<svg width="90" height="90" viewBox="0 0 90 90" fill="none" xmlns="http://www.w3.org/2000/svg">
<path d="M15.117 51.153C14.4597 51.153 13.859 51.0397 13.315 50.813C12.7823 50.5863 12.3233 50.2293 11.938 49.742C11.564 49.2547 11.2693 48.62 11.054 47.838C10.85 47.0447 10.748 46.087 10.748 44.965V44.693C10.748 43.639 10.8387 42.721 11.02 41.939C11.2127 41.1457 11.4903 40.494 11.853 39.984C12.2157 39.4627 12.669 39.0773 13.213 38.828C13.7683 38.5787 14.403 38.454 15.117 38.454C15.8423 38.454 16.477 38.5787 17.021 38.828C17.565 39.0773 18.0183 39.4627 18.381 39.984C18.7437 40.494 19.0213 41.1457 19.214 41.939C19.4067 42.721 19.503 43.639 19.503 44.693V44.965C19.503 46.087 19.3953 47.0447 19.18 47.838C18.976 48.62 18.6813 49.2547 18.296 49.742C17.9107 50.2293 17.4517 50.5863 16.919 50.813C16.3863 51.0397 15.7857 51.153 15.117 51.153ZM15.117 49.538C15.661 49.538 16.1143 49.4133 16.477 49.164C16.851 48.9033 17.1287 48.535 17.31 48.059C17.4913 47.5717 17.582 46.9937 17.582 46.325V43.282C17.582 42.636 17.4913 42.0693 17.31 41.582C17.14 41.0947 16.8737 40.7207 16.511 40.46C16.1597 40.188 15.695 40.052 15.117 40.052C14.5617 40.052 14.097 40.188 13.723 40.46C13.3603 40.7207 13.0883 41.0947 12.907 41.582C12.737 42.0693 12.652 42.636 12.652 43.282V46.325C12.652 46.9937 12.7483 47.5717 12.941 48.059C13.1337 48.535 13.4113 48.9033 13.774 49.164C14.1367 49.4133 14.5843 49.538 15.117 49.538ZM24.2718 51V42.194H21.1268V40.732H24.3058L24.5608 38.607H26.1248V51H24.2718ZM33.9587 51.17C32.8707 51.17 31.964 51 31.2387 50.66C30.5134 50.32 29.9694 49.844 29.6067 49.232C29.244 48.62 29.0627 47.923 29.0627 47.141H31.0347C31.0574 47.719 31.1877 48.195 31.4257 48.569C31.675 48.9317 32.015 49.198 32.4457 49.368C32.8877 49.538 33.409 49.623 34.0097 49.623C34.6217 49.623 35.126 49.5437 35.5227 49.385C35.9307 49.215 36.2367 48.9827 36.4407 48.688C36.6447 48.382 36.7467 48.0193 36.7467 47.6C36.7467 47.2033 36.6617 46.886 36.4917 46.648C36.3217 46.41 36.078 46.2173 35.7607 46.07C35.4547 45.9227 35.1034 45.8037 34.7067 45.713C34.31 45.611 33.885 45.5147 33.4317 45.424C32.8537 45.3107 32.321 45.169 31.8337 44.999C31.3464 44.829 30.9214 44.6137 30.5587 44.353C30.196 44.0923 29.9127 43.7693 29.7087 43.384C29.5047 42.9987 29.4027 42.5283 29.4027 41.973C29.4027 41.225 29.5897 40.5903 29.9637 40.069C30.349 39.5363 30.8817 39.134 31.5617 38.862C32.2417 38.5787 33.0407 38.437 33.9587 38.437C34.9447 38.437 35.7777 38.59 36.4577 38.896C37.1377 39.1907 37.6534 39.61 38.0047 40.154C38.3674 40.698 38.5544 41.3497 38.5657 42.109H36.5937C36.5824 41.6557 36.4747 41.2703 36.2707 40.953C36.0667 40.6357 35.772 40.392 35.3867 40.222C35.0014 40.052 34.514 39.967 33.9247 39.967C33.426 39.967 32.9897 40.0407 32.6157 40.188C32.253 40.3353 31.9697 40.545 31.7657 40.817C31.573 41.0777 31.4767 41.395 31.4767 41.769C31.4767 42.1203 31.5504 42.4093 31.6977 42.636C31.8564 42.8513 32.0717 43.027 32.3437 43.163C32.627 43.299 32.9614 43.4123 33.3467 43.503C33.732 43.5823 34.1457 43.6673 34.5877 43.758C35.041 43.8373 35.4774 43.9393 35.8967 44.064C36.316 44.1773 36.7014 44.3247 37.0527 44.506C37.404 44.676 37.71 44.897 37.9707 45.169C38.2427 45.4297 38.4524 45.747 38.5997 46.121C38.747 46.495 38.8207 46.937 38.8207 47.447C38.8207 48.297 38.6167 48.994 38.2087 49.538C37.8007 50.082 37.234 50.49 36.5087 50.762C35.7834 51.034 34.9334 51.17 33.9587 51.17ZM41.2124 53.839V42.024H42.9294L43.0314 43.537H43.1504C43.3544 43.0157 43.7057 42.6077 44.2044 42.313C44.7031 42.007 45.2697 41.854 45.9044 41.854C46.6977 41.854 47.3494 42.0353 47.8594 42.398C48.3807 42.7607 48.7661 43.2877 49.0154 43.979C49.2761 44.659 49.4064 45.4693 49.4064 46.41V46.665C49.4064 47.4357 49.3271 48.1043 49.1684 48.671C49.0097 49.2263 48.7774 49.691 48.4714 50.065C48.1654 50.439 47.7971 50.7167 47.3664 50.898C46.9471 51.0793 46.4654 51.17 45.9214 51.17C45.2867 51.17 44.7201 51.017 44.2214 50.711C43.7227 50.405 43.3657 50.0027 43.1504 49.504H43.0314V53.839H41.2124ZM45.2414 49.674C45.7061 49.674 46.1027 49.5833 46.4314 49.402C46.7601 49.2093 47.0094 48.943 47.1794 48.603C47.3607 48.263 47.4514 47.8493 47.4514 47.362V45.679C47.4514 45.1917 47.3607 44.7723 47.1794 44.421C47.0094 44.0697 46.7601 43.8033 46.4314 43.622C46.1027 43.4407 45.7061 43.35 45.2414 43.35C44.5614 43.35 44.0231 43.571 43.6264 44.013C43.2297 44.4437 43.0314 45.0273 43.0314 45.764V47.277C43.0314 47.7643 43.1221 48.1893 43.3034 48.552C43.4847 48.9033 43.7397 49.181 44.0684 49.385C44.3971 49.5777 44.7881 49.674 45.2414 49.674ZM54.4258 51.17C53.6438 51.17 52.9921 50.9887 52.4708 50.626C51.9494 50.2633 51.5584 49.7477 51.2978 49.079C51.0484 48.4103 50.9238 47.6057 50.9238 46.665V46.41C50.9238 45.6393 51.0031 44.9707 51.1618 44.404C51.3204 43.8373 51.5528 43.367 51.8588 42.993C52.1648 42.6077 52.5331 42.3243 52.9638 42.143C53.4058 41.9503 53.8931 41.854 54.4258 41.854C55.0718 41.854 55.6384 42.007 56.1258 42.313C56.6244 42.6077 56.9814 43.0157 57.1968 43.537H57.3158L57.4008 42.024H59.1348V51H57.3158V49.504H57.1968C56.9701 50.0027 56.6074 50.405 56.1088 50.711C55.6214 51.017 55.0604 51.17 54.4258 51.17ZM55.1058 49.674C55.7858 49.674 56.3184 49.4587 56.7038 49.028C57.1004 48.586 57.2988 48.0023 57.2988 47.277V45.764C57.2988 45.2653 57.2081 44.8403 57.0268 44.489C56.8568 44.1263 56.6074 43.8487 56.2788 43.656C55.9501 43.452 55.5591 43.35 55.1058 43.35C54.6411 43.35 54.2444 43.4407 53.9158 43.622C53.5871 43.8033 53.3321 44.0697 53.1508 44.421C52.9694 44.7723 52.8788 45.1917 52.8788 45.679V47.362C52.8788 47.8493 52.9694 48.263 53.1508 48.603C53.3321 48.943 53.5871 49.2093 53.9158 49.402C54.2444 49.5833 54.6411 49.674 55.1058 49.674ZM65.5316 51.17C64.5909 51.17 63.8089 50.983 63.1856 50.609C62.5736 50.235 62.1146 49.7023 61.8086 49.011C61.5026 48.3197 61.3496 47.5037 61.3496 46.563V46.495C61.3496 45.4523 61.5252 44.5853 61.8766 43.894C62.2279 43.2027 62.7152 42.6927 63.3386 42.364C63.9732 42.024 64.7042 41.854 65.5316 41.854C66.3136 41.854 66.9936 41.99 67.5716 42.262C68.1496 42.534 68.6029 42.9193 68.9316 43.418C69.2716 43.9167 69.4586 44.5117 69.4926 45.203H67.7076C67.6509 44.591 67.4242 44.132 67.0276 43.826C66.6309 43.5087 66.1322 43.35 65.5316 43.35C65.0669 43.35 64.6589 43.4463 64.3076 43.639C63.9562 43.8317 63.6842 44.1037 63.4916 44.455C63.3102 44.795 63.2196 45.1973 63.2196 45.662V47.362C63.2196 47.8493 63.3102 48.263 63.4916 48.603C63.6842 48.943 63.9506 49.2093 64.2906 49.402C64.6306 49.5833 65.0442 49.674 65.5316 49.674C66.2002 49.674 66.7216 49.504 67.0956 49.164C67.4696 48.8127 67.6736 48.365 67.7076 47.821H69.5096C69.4869 48.4897 69.3056 49.079 68.9656 49.589C68.6256 50.0877 68.1552 50.4787 67.5546 50.762C66.9652 51.034 66.2909 51.17 65.5316 51.17ZM75.1953 51.17C74.2433 51.17 73.4499 50.9773 72.8153 50.592C72.1919 50.2067 71.7216 49.6627 71.4043 48.96C71.0983 48.2573 70.9453 47.4413 70.9453 46.512V46.393C70.9453 45.4183 71.1209 44.591 71.4723 43.911C71.8236 43.231 72.3109 42.721 72.9343 42.381C73.5576 42.0297 74.2773 41.854 75.0933 41.854C75.9659 41.854 76.7026 42.0297 77.3033 42.381C77.9039 42.721 78.3629 43.2027 78.6803 43.826C78.9976 44.438 79.1563 45.1577 79.1563 45.985V46.971H72.8153C72.8153 47.073 72.8153 47.175 72.8153 47.277C72.8153 47.3677 72.8153 47.4583 72.8153 47.549C72.8153 47.991 72.9116 48.382 73.1043 48.722C73.3083 49.0507 73.5859 49.3057 73.9373 49.487C74.2886 49.6683 74.6909 49.759 75.1443 49.759C75.7676 49.759 76.2719 49.6117 76.6573 49.317C77.0539 49.011 77.2863 48.6143 77.3543 48.127H79.0883C79.0543 48.739 78.8673 49.2717 78.5273 49.725C78.1873 50.1783 77.7283 50.5353 77.1503 50.796C76.5723 51.0453 75.9206 51.17 75.1953 51.17ZM72.8153 45.968L72.5943 45.781H77.5923L77.3713 46.002V45.696C77.3713 44.8233 77.1673 44.1943 76.7593 43.809C76.3513 43.4237 75.8073 43.231 75.1273 43.231C74.6286 43.231 74.2036 43.333 73.8523 43.537C73.5123 43.7297 73.2516 44.013 73.0703 44.387C72.9003 44.7497 72.8153 45.186 72.8153 45.696V45.968Z" fill="white"/>
</svg>
