<svg width="70" height="70" viewBox="0 0 70 70" fill="none" xmlns="http://www.w3.org/2000/svg">
<path d="M42.1813 23.9806C44.9279 24.333 47.1928 25.2653 48.9155 26.7502C50.9843 28.5479 51.9917 30.8879 52 33.9057C52 37.5324 50.8884 40.4668 48.7007 42.6232C46.611 44.6295 43.9206 45.6472 40.7047 45.6472C39.8375 45.6499 38.9723 45.5632 38.1228 45.3886C38.8968 44.3219 39.5878 43.1972 40.1896 42.0247C40.638 41.1035 40.9875 40.1373 41.2324 39.1424C42.3251 39.0571 43.3499 38.5784 44.1167 37.7952C44.5563 37.3692 44.9059 36.8592 45.1446 36.2954C45.3833 35.7317 45.5063 35.1258 45.5063 34.5136C45.5063 33.9014 45.3833 33.2955 45.1446 32.7317C44.9059 32.168 44.5563 31.658 44.1167 31.232C43.69 30.7961 43.1797 30.451 42.6163 30.2173C42.0529 29.9836 41.4481 29.8662 40.8382 29.8722C40.7047 29.8722 40.5733 29.8952 40.4419 29.9056C39.8699 28.6674 39.081 27.5415 38.1124 26.5812C36.8934 25.3835 35.4157 24.4817 33.7932 23.9451C34.2333 23.3466 34.7213 22.8439 35.2531 22.1891L41.7955 14.3766H49.4348L41.2928 24.1099L42.1813 23.9806Z" fill="white"/>
<path d="M32.8095 33.8925C32.998 34.3322 33.0936 34.8059 33.0904 35.2842C33.0975 35.7638 33.0051 36.2398 32.8192 36.682C32.6333 37.1242 32.3578 37.5231 32.0101 37.8536C31.5756 38.3021 31.0324 38.6304 30.4334 38.8067C29.8743 37.2644 29.5995 35.6336 29.6221 33.9932C29.6204 33.2078 29.6902 32.4239 29.8307 31.6512C30.6572 31.743 31.4243 32.125 31.9955 32.7294C32.344 33.057 32.6211 33.4529 32.8095 33.8925Z" fill="white"/>
<path d="M37.4055 27.2257C35.3408 25.1818 32.6984 24.1453 29.5534 24.1453C26.3396 24.1453 23.6492 25.1714 21.5595 27.1986C19.3697 29.3321 18.2602 32.2497 18.2602 35.8702C18.2602 38.9047 19.2654 41.2405 21.3322 43.0111C23.0569 44.496 25.3218 45.4283 28.0685 45.7786L28.9549 45.8892L28.5523 46.4836L20.8171 56.0875H28.4543L34.9925 47.9393C37.0405 45.4178 38.4858 43.2656 39.2887 41.6347C40.1776 39.8265 40.6412 37.8391 40.6443 35.8244C40.6422 32.2914 39.5536 29.3925 37.4055 27.2257ZM32.6963 38.5543C32.269 38.9913 31.7587 39.3386 31.1953 39.5756C30.632 39.8127 30.027 39.9348 29.4158 39.9348C28.8046 39.9348 28.1995 39.8127 27.6362 39.5756C27.0728 39.3386 26.5625 38.9913 26.1352 38.5543C25.6965 38.1302 25.3476 37.6221 25.1093 37.0603C24.871 36.4984 24.7482 35.8944 24.7482 35.2842C24.7482 34.674 24.871 34.07 25.1093 33.5082C25.3476 32.9463 25.6965 32.4382 26.1352 32.0141C26.5625 31.5771 27.0728 31.2298 27.6362 30.9928C28.1995 30.7557 28.8046 30.6336 29.4158 30.6336C30.027 30.6336 30.632 30.7557 31.1953 30.9928C31.7587 31.2298 32.269 31.5771 32.6963 32.0141C33.1353 32.4381 33.4844 32.9461 33.7229 33.508C33.9613 34.0698 34.0842 34.6739 34.0842 35.2842C34.0842 35.8945 33.9613 36.4986 33.7229 37.0604C33.4844 37.6223 33.1353 38.1303 32.6963 38.5543Z" fill="white"/>
</svg>
