<svg width="70" height="70" viewBox="0 0 70 70" fill="none" xmlns="http://www.w3.org/2000/svg">
<g clip-path="url(#clip0_52_3)">
<path d="M61.8411 17.9474H50.9311L48.3999 21.9948H62.0866L61.8411 17.9474Z" fill="#C91239"/>
<path d="M53.0149 28.8259V34.5251H62.8536L62.1786 23.4642H47.4845L40.5632 34.5251H49.8291L53.0149 28.8259Z" fill="#C91239"/>
<path d="M52.941 51.6281H63.8484L63.7436 48.9741H53.0152L52.941 51.6281Z" fill="#C91239"/>
<path d="M37.8174 17.9474H26.9074L24.3787 21.9948H38.0654L37.8174 17.9474Z" fill="#004978"/>
<path d="M28.9943 28.8259V34.5251H38.8355L38.1554 23.4642H23.4588L16.5426 34.5251H25.8085L28.9943 28.8259Z" fill="#004978"/>
<path d="M62.9449 35.9972H53.0142V41.3256H46.0264L49.0076 35.9972H39.6445L38.9874 37.0455L39.6318 47.5029H63.6531L62.9449 35.9972Z" fill="#C91239"/>
<path d="M38.922 35.9972H28.9938V41.3256H22.006L24.9847 35.9972H15.6216L8.4216 47.5029H32.4481H39.6302L38.9859 37.0455L38.922 35.9972Z" fill="#004978"/>
<path d="M42.0866 48.9731H39.7189L39.8263 51.6553H40.6368L42.0866 48.9731Z" fill="#C91239"/>
<path d="M31.5292 48.9731H28.9928L28.9212 51.6629H39.8261V51.6553L39.7212 48.9731H31.5292Z" fill="#004978"/>
<path d="M5.82742 51.6555H16.6121L18.0644 48.9734H7.5047L5.82742 51.6555Z" fill="#004978"/>
</g>
<defs>
<clipPath id="clip0_52_3">
<rect width="60" height="34.2857" fill="white" transform="translate(5 17.8572)"/>
</clipPath>
</defs>
</svg>
