<svg width="90" height="90" viewBox="0 0 90 90" fill="none" xmlns="http://www.w3.org/2000/svg">
<g clip-path="url(#clip0_2388_3545)">
<path d="M63.4445 55.0562L68.6935 37.9875C70.4559 29.9224 64.7855 25.8804 51.7014 25.8804C46.4716 25.7846 41.2418 25.9953 36.0311 26.5125C34.058 26.4551 32.2764 27.6811 31.5676 29.5202L30.5331 32.8343C30.3416 33.4473 30.6289 33.7538 31.4143 33.7538H31.4335C32.0082 33.6772 34.2304 33.4665 38.0234 33.16C43.0425 32.7577 46.7398 32.5469 49.1919 32.5469C56.414 32.5469 59.4408 34.3668 58.3105 37.9875C58.0998 38.7537 57.4676 39.3476 56.6822 39.4817C49.8624 40.612 44.441 41.4357 40.4372 41.9338C29.1538 43.3705 22.6405 46.8954 20.8973 52.5083C18.5026 60.2285 24.5179 64.0791 38.9813 64.0791C45.054 64.1557 51.1267 63.7342 57.1419 62.8339C59.958 62.3549 61.3948 61.627 61.9503 59.8071L63.4445 55.0562ZM52.4294 56.7611C48.9237 57.2018 45.3797 57.3933 41.8548 57.3359C33.8664 57.3359 30.3799 55.7267 31.3952 52.4892C32.1231 50.1712 34.2112 48.7728 37.6786 48.2938L55.8393 45.8418L52.4294 56.7611Z" fill="#80C343"/>
</g>
<defs>
<clipPath id="clip0_2388_3545">
<rect width="48.62" height="38.237" fill="white" transform="translate(20.38 25.8613)"/>
</clipPath>
</defs>
</svg>
