<svg width="70" height="70" viewBox="0 0 70 70" fill="none" xmlns="http://www.w3.org/2000/svg">
<path fill-rule="evenodd" clip-rule="evenodd" d="M5.09277 29C5.55078 29 5.94727 29.041 6.28906 29.1299C6.56934 29.1982 6.97266 29.3418 7.17773 29.4443C7.38281 29.5469 7.71777 29.752 7.91602 29.8955C8.10742 30.0391 8.28516 30.1621 8.30566 30.1621C8.32617 30.1621 8.33984 29.9023 8.33984 29H11.0742V40.5186L10.582 40.5391C10.3086 40.5527 10.0625 40.5732 10.0283 40.5938C10.001 40.6074 9.61133 40.6006 8.33984 40.5186V39.3223L7.97754 39.6025C7.78613 39.7598 7.37598 39.999 7.0752 40.1426C6.74707 40.2998 6.33691 40.4365 6.0498 40.4775C5.79004 40.5186 5.44824 40.5664 5.29785 40.5801C5.14746 40.5938 4.75781 40.5664 4.42285 40.5117C4.09473 40.457 3.65039 40.3477 3.43164 40.2656C3.21973 40.1836 2.82324 39.9717 2.56348 39.7939C2.29688 39.6162 1.91406 39.3086 1.70898 39.1035C1.50391 38.8984 1.18262 38.502 0.991211 38.2217C0.806641 37.9414 0.567383 37.4971 0.458008 37.2373C0.348633 36.9775 0.198242 36.499 0.129883 36.1777C0.0478516 35.7949 0 35.3232 0 34.7764C0 34.2432 0.0478516 33.7373 0.129883 33.3408C0.198242 32.9922 0.369141 32.4727 0.526367 32.1445C0.676758 31.8232 0.984375 31.3174 1.20996 31.0166C1.42871 30.7158 1.76367 30.3467 1.95508 30.1895C2.13965 30.0391 2.42676 29.8203 2.59766 29.7041C2.76855 29.5879 3.02832 29.4443 3.17871 29.376C3.3291 29.3145 3.66406 29.2051 3.93066 29.1367C4.23828 29.0547 4.65527 29.0068 5.09277 29ZM4.04004 31.9053C3.87598 32.0146 3.61621 32.2471 3.46582 32.418C3.30859 32.5889 3.09668 32.9238 2.9873 33.1699C2.87793 33.416 2.74805 33.8125 2.69336 34.0586C2.64551 34.3047 2.59766 34.6396 2.59766 34.8105C2.59766 34.9814 2.64551 35.3369 2.7002 35.5967C2.75488 35.8564 2.91211 36.3008 3.04199 36.5674C3.19238 36.8887 3.41113 37.1963 3.63672 37.415C3.83496 37.6064 4.19727 37.8594 4.44336 37.9824C4.85352 38.1807 4.94238 38.1943 5.60547 38.1943C6.27539 38.1943 6.35742 38.1807 6.76758 37.9756C7.01367 37.8594 7.34863 37.6406 7.5127 37.4971C7.67676 37.3535 7.90918 37.0664 8.03906 36.8613C8.16211 36.6562 8.32617 36.3008 8.4082 36.0752C8.49707 35.8359 8.57227 35.4121 8.59277 35.0498C8.62012 34.6055 8.59961 34.3047 8.51074 33.9561C8.44922 33.6963 8.29883 33.293 8.18262 33.0742C8.05957 32.8486 7.80664 32.5 7.62207 32.2949C7.38281 32.0283 7.12988 31.8574 6.76758 31.6797C6.35742 31.4883 6.15234 31.4336 5.74219 31.4131C5.33203 31.3926 5.14062 31.4199 4.77832 31.543C4.53223 31.6318 4.19727 31.7891 4.04004 31.9053ZM18.9014 29.0068C19.4277 29.0068 20.207 29.0205 21.4033 29.1025L21.3623 31.3584C21.3623 31.3584 17.3838 31.4883 16.9463 31.707C16.5088 31.9258 16.2832 32.0898 16.0098 32.3906C15.8115 32.6162 15.5381 33.0059 15.415 33.2725C15.2646 33.5664 15.1484 33.9424 15.1006 34.2637C15.0596 34.5439 15.0459 34.9746 15.0664 35.2207C15.0938 35.4668 15.1553 35.8154 15.21 36.0068C15.2646 36.1914 15.4287 36.5332 15.5723 36.7588C15.7158 36.9844 15.9893 37.3125 16.1738 37.4834C16.3584 37.6543 16.7002 37.8936 16.9326 38.0098C17.1719 38.1328 17.5547 38.2559 17.7871 38.2969C18.0264 38.3311 18.9355 38.3652 21.3965 38.3652V40.6211H19.5303C17.9512 40.6211 17.5752 40.6006 17.0215 40.4844C16.6387 40.4023 16.1465 40.2451 15.8252 40.0879C15.5244 39.9375 15.0801 39.6846 14.834 39.5137C14.5879 39.3428 14.1914 38.9873 13.9453 38.7275C13.6992 38.4609 13.3643 38.0029 13.1934 37.709C13.0225 37.415 12.8037 36.9297 12.7012 36.6357C12.5918 36.3486 12.4756 35.8086 12.4277 35.4395C12.3662 34.9268 12.3662 34.6396 12.4346 34.1611C12.4756 33.8193 12.5986 33.2998 12.7012 32.999C12.8105 32.6982 13.0156 32.2334 13.1729 31.9736C13.3232 31.707 13.6172 31.2969 13.8154 31.0576C14.0205 30.8184 14.3828 30.4766 14.6289 30.292C14.875 30.1074 15.3057 29.834 15.5859 29.6904C15.8662 29.54 16.2832 29.3691 16.5088 29.3076C16.7344 29.2393 17.1514 29.1504 17.4316 29.1025C17.7119 29.0547 18.375 29.0137 18.9014 29.0068ZM28.0615 29.041C28.2871 29.0615 28.6768 29.1025 28.9365 29.1367C29.1895 29.1777 29.6201 29.2803 29.8936 29.376C30.1602 29.4717 30.625 29.6973 30.9258 29.875C31.2197 30.0527 31.6777 30.3945 31.9443 30.6406C32.2041 30.8867 32.5527 31.2695 32.71 31.4951C32.874 31.7207 33.0928 32.0898 33.209 32.3154C33.3184 32.541 33.4824 32.9375 33.5645 33.2041C33.667 33.5391 33.7217 33.9355 33.749 34.5371C33.7764 35.1934 33.7627 35.5283 33.6738 35.9727C33.6055 36.2939 33.4688 36.752 33.3662 36.998C33.2637 37.2441 33.0449 37.6611 32.874 37.9209C32.7031 38.1807 32.4092 38.5703 32.2178 38.7754C32.0332 38.9805 31.6504 39.3086 31.3701 39.5C31.0898 39.6914 30.7139 39.9307 30.5225 40.0195C30.3379 40.1152 30.0303 40.2451 29.8389 40.2998C29.6543 40.3613 29.251 40.457 28.9502 40.5186C28.6494 40.5732 28.1436 40.6211 27.8223 40.6211C27.501 40.6211 26.9814 40.5596 26.6602 40.4912C26.3389 40.4229 25.8809 40.2793 25.6348 40.1836C25.3887 40.0811 24.9443 39.835 24.6436 39.6367C24.3428 39.4316 23.8848 39.042 23.6182 38.7617C23.3516 38.4814 22.9961 38.0098 22.8184 37.7158C22.6475 37.415 22.4219 36.9365 22.3262 36.6562C22.2305 36.376 22.1211 35.8359 22.0801 35.46C22.0254 34.9678 22.0254 34.6055 22.0732 34.1748C22.1143 33.8467 22.2236 33.3408 22.3193 33.0469C22.4082 32.7598 22.6338 32.2744 22.8115 31.9736C22.9893 31.6729 23.2969 31.2422 23.4814 31.0234C23.6729 30.8047 24.0215 30.4766 24.2676 30.292C24.5137 30.1074 24.9443 29.8408 25.2246 29.6904C25.5049 29.5469 25.8945 29.376 26.0791 29.3145C26.2705 29.2529 26.7012 29.1572 27.0361 29.1094C27.3711 29.0547 27.8359 29.0205 28.0615 29.041ZM26.5918 31.6045C26.3115 31.748 25.9834 31.9941 25.6963 32.2744C25.4092 32.5615 25.1768 32.876 25.0537 33.1357C24.9512 33.3613 24.8213 33.7441 24.7734 33.9902C24.7188 34.2363 24.6777 34.585 24.6777 34.7764C24.6777 34.9609 24.7256 35.3369 24.7803 35.5967C24.835 35.8564 24.9785 36.2734 25.1016 36.5195C25.2314 36.7725 25.4844 37.1279 25.7031 37.3398C25.9082 37.5449 26.25 37.8047 26.4551 37.9141C26.6602 38.0234 26.9883 38.1533 27.1729 38.208C27.3574 38.2559 27.7061 38.2969 27.9453 38.2969C28.1846 38.2969 28.5537 38.2354 28.793 38.1602C29.0322 38.085 29.4219 37.8936 29.6611 37.7295C29.9072 37.5723 30.2148 37.2852 30.3584 37.1006C30.4951 36.9092 30.6729 36.6357 30.748 36.4854C30.8232 36.335 30.9395 36.0273 31.001 35.8018C31.0762 35.5488 31.1172 35.1592 31.1172 34.7764C31.1172 34.3252 31.0693 34.0244 30.9531 33.6484C30.8643 33.3682 30.6865 32.9717 30.5566 32.7666C30.4268 32.5615 30.1602 32.2607 29.9756 32.0967C29.7842 31.9395 29.4492 31.7139 29.2236 31.6045C28.998 31.4951 28.6289 31.3721 28.4033 31.3311C28.1777 31.29 27.9316 31.2559 27.8564 31.2627C27.7812 31.2695 27.5625 31.2969 27.3779 31.3311C27.1865 31.3652 26.8379 31.4883 26.5918 31.6045ZM40.127 29.0068C41.2275 29 41.7061 29.0273 42.041 29.1094C42.2871 29.1641 42.6699 29.3076 42.8955 29.4307C43.1279 29.5469 43.5381 29.8682 43.832 30.1621C44.2285 30.5518 44.4131 30.7979 44.5977 31.1875C44.7344 31.4678 44.8916 31.9121 44.9463 32.1787C45.0283 32.5684 45.0488 33.375 45.0488 40.5186L44.3516 40.5664C43.9619 40.5869 43.3467 40.5869 42.3145 40.5186V36.8066C42.3145 33.2998 42.3076 33.0811 42.1846 32.7393C42.1094 32.5479 41.918 32.2334 41.7539 32.0557C41.583 31.8643 41.3027 31.6455 41.084 31.543C40.7695 31.3857 40.6191 31.3584 40.127 31.3584C39.6348 31.3584 39.498 31.3857 39.2041 31.543C39.0195 31.6387 38.7324 31.8574 38.5684 32.0146C38.4043 32.1855 38.2197 32.4658 38.1445 32.6709C38.0146 33.0127 38.0078 33.2178 38.0078 36.6221C38.0078 38.5977 37.9805 40.2793 37.9463 40.3613C37.8916 40.5049 37.8301 40.5254 37.2148 40.5664C36.8389 40.5938 36.251 40.5938 35.2734 40.5186V36.4854C35.2734 33.1084 35.2871 32.3838 35.376 32.042C35.4307 31.8164 35.5742 31.4473 35.6904 31.2217C35.8066 30.9961 36.0117 30.6748 36.1484 30.5039C36.2783 30.333 36.5449 30.0664 36.7363 29.9023C36.9277 29.7451 37.2559 29.5264 37.4609 29.4102C37.666 29.3008 38.0215 29.1641 38.2471 29.1094C38.541 29.041 39.0811 29.0068 40.127 29.0068ZM51.8164 29.0205C53.3477 29.0342 53.4434 29.041 53.9014 29.2051C54.168 29.3008 54.5781 29.5195 54.8242 29.6904C55.0703 29.8613 55.3779 30.1279 55.5078 30.2783C55.6377 30.4355 55.8633 30.75 56.0068 30.9893C56.1504 31.2285 56.3281 31.625 56.417 31.8711C56.5605 32.3086 56.5674 32.4043 56.6084 40.5186L55.8701 40.5664C55.4668 40.5938 54.8516 40.5938 53.874 40.5186L53.8535 36.7588C53.833 33.2383 53.8193 32.9785 53.6963 32.6572C53.6279 32.4658 53.4365 32.1855 53.2725 32.0215C53.1084 31.8643 52.8008 31.6523 52.5889 31.543C52.2607 31.3926 52.1035 31.3584 51.6455 31.3584C51.1533 31.3584 51.0576 31.3789 50.6611 31.5977C50.4219 31.7275 50.1484 31.9258 50.0527 32.042C49.957 32.1514 49.7998 32.418 49.5264 32.999L49.4854 40.5186L48.6172 40.5664C48.1387 40.5938 47.5371 40.5938 46.792 40.5186V36.4854C46.792 32.7803 46.8057 32.418 46.9219 32.0078C46.9902 31.7617 47.1543 31.3447 47.2842 31.085C47.4619 30.7363 47.6738 30.4697 48.0498 30.1143C48.3506 29.8271 48.7402 29.5332 48.9795 29.4102C49.2051 29.3008 49.5742 29.1641 49.7998 29.1094C50.1143 29.0273 50.5791 29.0068 51.8164 29.0205ZM64.1074 29.0068C64.5928 29 65.1328 29.041 65.3994 29.0957C65.6592 29.1504 66.0488 29.2666 66.2744 29.3486C66.5 29.4307 66.835 29.5947 67.0264 29.7041C67.2109 29.8135 67.5801 30.0596 67.8467 30.2578C68.1133 30.4561 68.5098 30.8457 68.7559 31.1533C68.9951 31.4541 69.3096 31.9463 69.4531 32.2471C69.5967 32.5479 69.7812 33.0469 69.8564 33.3545C69.959 33.7646 70 34.1406 70 34.6875C70 35.1865 69.9521 35.665 69.8701 36.041C69.7949 36.3623 69.6582 36.8066 69.5557 37.0322C69.46 37.2578 69.248 37.627 69.0977 37.8525C68.9473 38.0781 68.6191 38.4746 68.3662 38.7344C68.1201 38.9873 67.7031 39.3428 67.4365 39.5137C67.1699 39.6914 66.7256 39.9307 66.4453 40.0537C66.165 40.1768 65.8916 40.2793 65.8438 40.2793C65.7822 40.2793 65.7617 39.9854 65.7549 37.7842L65.9395 37.6816C66.042 37.627 66.2744 37.4082 66.4658 37.2031C66.6572 36.998 66.8965 36.6426 67.0059 36.417C67.1084 36.1914 67.2451 35.7881 67.2998 35.5283C67.3545 35.2617 67.4023 34.9268 67.4023 34.7764C67.4023 34.626 67.3682 34.3184 67.3271 34.0928C67.2861 33.8672 67.1426 33.4502 67.0127 33.1699C66.8555 32.835 66.6436 32.5205 66.3906 32.2607C66.1719 32.0352 65.8096 31.7617 65.5566 31.6318C65.2832 31.4951 64.9277 31.3721 64.6338 31.3242C64.2988 31.2695 64.0254 31.2695 63.7109 31.3174C63.4648 31.3584 63.0547 31.4951 62.7881 31.625C62.4326 31.7959 62.1934 31.9805 61.8789 32.3223C61.6396 32.582 61.373 32.9443 61.2773 33.1357C61.1885 33.3203 61.0654 33.7236 61.0039 34.0244C60.9355 34.4004 60.915 34.7217 60.9424 35.0498C60.9697 35.3096 61.0449 35.7129 61.1201 35.9385C61.1885 36.1641 61.3525 36.499 61.4756 36.6904C61.6055 36.875 61.8789 37.1963 62.0771 37.3945C62.2822 37.5928 62.4668 37.7568 62.4941 37.75C62.5283 37.75 62.5488 38.3174 62.5488 40.2793L62.3574 40.2451C62.2549 40.2246 61.8652 40.0537 61.4893 39.8691C61.1064 39.6777 60.6074 39.3564 60.3477 39.1309C60.0947 38.9189 59.7598 38.584 59.6025 38.3994C59.4453 38.208 59.1924 37.8389 59.042 37.5791C58.8848 37.3125 58.6797 36.8545 58.5703 36.5537C58.4678 36.2529 58.3516 35.7129 58.3105 35.3574C58.2559 34.8994 58.2559 34.5371 58.3105 34.127C58.3516 33.8057 58.4404 33.3477 58.5156 33.1016C58.5908 32.8555 58.7959 32.3906 58.9736 32.0557C59.1582 31.7275 59.4521 31.2832 59.6367 31.0645C59.8281 30.8525 60.1357 30.5381 60.3203 30.374C60.5117 30.21 60.8809 29.9502 61.1475 29.7861C61.4141 29.6289 61.8105 29.4307 62.0361 29.3486C62.2617 29.2598 62.6309 29.1504 62.8564 29.1025C63.082 29.0547 63.6426 29.0137 64.1006 29.0068H64.1074Z" fill="#FE9832"/>
</svg>
