<svg width="70" height="70" viewBox="0 0 70 70" fill="none" xmlns="http://www.w3.org/2000/svg">
<path d="M50.3707 33.3812C50.272 32.7592 49.9347 32.5806 49.1193 32.3206C48.5007 32.1219 44.3547 30.8012 44.3547 30.8012C44.3547 30.8012 41.4647 29.7092 39.3227 31.2532C39.0347 31.4619 38.7353 31.6986 38.4353 31.9512C38.6873 31.6512 38.9247 31.3519 39.132 31.0639C40.6713 28.9186 39.5753 26.0306 39.5753 26.0306C39.5753 26.0306 38.248 21.8886 38.0473 21.2679C37.7853 20.4546 37.6073 20.1166 36.9847 20.0199C36.3607 19.9212 36.088 20.1866 35.5887 20.8812C35.208 21.4086 32.6707 24.9439 32.6707 24.9439C32.6707 24.9439 30.7413 27.3546 31.546 29.8692C31.6553 30.2066 31.788 30.5646 31.9367 30.9286C31.728 30.5952 31.5167 30.2779 31.306 29.9919C29.7413 27.8659 26.6573 28.0146 26.6573 28.0146C26.6573 28.0146 22.3067 27.9972 21.656 27.9966C20.8007 27.9932 20.4253 28.0599 20.1387 28.6212C19.8527 29.1826 20.022 29.5259 20.5273 30.2146C20.9113 30.7399 23.49 34.2446 23.49 34.2446C23.49 34.2446 25.186 36.8259 27.8253 36.8366C28.18 36.8386 28.56 36.8219 28.9507 36.7939C28.5713 36.8886 28.2047 36.9926 27.868 37.1032C25.362 37.9339 24.552 40.9146 24.552 40.9146C24.552 40.9146 23.1907 45.0472 22.988 45.6659C22.7227 46.4779 22.6687 46.8552 23.1147 47.2999C23.5607 47.7466 23.9387 47.6912 24.75 47.4232C25.368 47.2212 29.4993 45.8512 29.4993 45.8512C29.4993 45.8512 32.4767 45.0352 33.302 42.5279C33.414 42.1906 33.5153 41.8246 33.6107 41.4466C33.5827 41.8359 33.568 42.2152 33.5707 42.5699C33.5847 45.2099 36.1693 46.9019 36.1693 46.9019C36.1693 46.9019 39.6787 49.4719 40.204 49.8559C40.8953 50.3592 41.2373 50.5279 41.7993 50.2412C42.36 49.9545 42.4253 49.5792 42.4213 48.7232C42.4187 48.0732 42.3927 43.7226 42.3927 43.7226C42.3927 43.7226 42.538 40.6379 40.4087 39.0772C40.122 38.8672 39.8053 38.6566 39.4733 38.4499C39.836 38.5959 40.1927 38.7286 40.5313 38.8346C43.046 39.6366 45.4547 37.7026 45.4547 37.7026C45.4547 37.7026 48.984 35.1592 49.5113 34.7779C50.204 34.2786 50.4693 34.0032 50.3707 33.3812ZM35.384 30.1779C35.8593 30.2519 36.0947 31.2619 35.9087 32.4326C35.7253 33.6032 35.192 34.4912 34.7167 34.4166C34.2427 34.3412 34.0067 33.3326 34.1907 32.1619C34.3753 30.9919 34.9093 30.1032 35.384 30.1779ZM29.3067 33.2806C29.5233 32.8519 30.5567 32.9412 31.6113 33.4779C32.668 34.0146 33.348 34.7979 33.13 35.2259C32.912 35.6532 31.88 35.5659 30.824 35.0292C29.768 34.4926 29.0887 33.7092 29.3067 33.2806ZM32.5107 39.1186C31.6733 39.9572 30.7193 40.3606 30.38 40.0212C30.0393 39.6819 30.4427 38.7272 31.2793 37.8886C32.116 37.0492 33.07 36.6452 33.4107 36.9846C33.7513 37.3246 33.3487 38.2799 32.5107 39.1186ZM37.1213 41.0832C36.6927 41.3012 35.9087 40.6239 35.3707 39.5692C34.832 38.5132 34.742 37.4799 35.1707 37.2619C35.598 37.0439 36.3807 37.7219 36.92 38.7772C37.4587 39.8319 37.55 40.8646 37.1213 41.0832ZM38.2327 36.1959C37.0627 36.3832 36.0527 36.1486 35.9773 35.6746C35.902 35.1999 36.7893 34.6639 37.96 34.4779C39.1293 34.2919 40.1393 34.5252 40.2147 34.9992C40.29 35.4732 39.4033 36.0099 38.2327 36.1959Z" fill="white"/>
</svg>
