<svg width="90" height="90" viewBox="0 0 90 90" fill="none" xmlns="http://www.w3.org/2000/svg">
<path d="M36.1564 42.9591C34.0725 42.9591 32.3359 42.8767 30.6167 42.9808C28.9539 43.0807 28.7759 42.5727 29.5009 41.1835C33.0696 34.3152 36.7164 27.4774 40.042 20.4919C41.1317 18.204 42.4559 17.5701 44.809 17.7091C47.9739 17.8957 51.1649 17.848 54.3385 17.7177C55.8884 17.6526 56.6569 18.1562 57.1779 19.6063C61.0461 30.3732 64.9795 41.1097 68.8912 51.8635C71.1661 58.1196 73.4063 64.3844 75.7247 70.6274C76.1762 71.8474 76.2327 72.364 74.635 72.3076C71.3876 72.1947 68.1358 72.2164 64.8883 72.3076C63.651 72.3423 63.1257 71.9082 62.7523 70.7533C61.0852 65.5826 59.2574 60.4597 57.625 55.2803C57.0693 53.522 56.2922 52.8056 54.3168 52.8621C48.6903 53.0227 43.0507 52.9619 37.4198 52.8881C36.0522 52.8708 35.3706 53.3396 34.8192 54.5596C32.3576 59.9691 29.7831 65.3265 27.2911 70.7186C26.7875 71.8083 26.184 72.3684 24.8555 72.325C21.5386 72.2164 18.213 72.2208 14.8918 72.3119C13.2594 72.3553 13.242 71.8213 13.9019 70.6057C17.1841 64.558 20.4489 58.5017 23.6572 52.4192C24.0957 51.5944 24.595 51.0994 25.4807 51.3339C31.511 52.9315 33.6904 49.0242 35.44 44.47C35.5877 44.0792 35.8004 43.7146 36.1607 42.9678L36.1564 42.9591ZM39.2692 44.5438C44.2185 44.5438 48.8205 44.5394 53.4268 44.5438C54.7553 44.5438 54.3038 43.6929 54.1041 43.072C53.4268 40.9621 52.7018 38.8695 51.9768 36.7769C50.8089 33.3905 49.6237 30.0041 48.2865 26.1576C45.178 32.5005 42.2953 38.3745 39.2692 44.5394V44.5438Z" fill="#0262A6"/>
</svg>
