<svg width="90" height="90" viewBox="0 0 90 90" fill="none" xmlns="http://www.w3.org/2000/svg">
<path d="M57.0983 26.6499C70.4349 34.6946 72.3351 53.8459 59.933 63.7846C59.5607 64.0833 58.1241 64.8478 58.0692 65.2502L59.5783 69.8575C60.3344 71.5264 61.0771 74.2813 63.4689 73.6496C65.1835 73.1964 65.6969 69.7393 65.3442 68.2602L65.4314 68.144C66.4001 68.0206 69.1488 67.5943 69.4599 68.9023C69.5356 69.2196 69.1488 70.5027 69.0793 70.9622C69.0284 71.2962 69.1073 71.6467 69.0554 71.9755C68.5544 75.1297 66.6159 78.4136 63.5395 79.5286C61.4215 80.2962 57.8731 80.1146 55.8609 79.0722C52.0284 77.0859 51.1478 72.6269 50.6914 68.6844L50.54 68.5195C50.3346 68.4594 49.3098 68.8649 48.9883 68.9188C38.5362 70.6749 27.6225 66.3714 22.649 56.7937C16.8841 45.6913 20.8567 32.8494 31.3814 26.5213C38.7789 22.0737 49.7257 22.2044 57.0973 26.6499H57.0983ZM54.1744 31.0239C50.3221 26.6406 42.9651 25.8005 37.8423 28.3147C29.1732 32.5683 29.7716 45.0617 30.7165 53.1852L33.0762 60.8347L33.4113 58.112C35.1102 50.9417 45.1983 49.445 50.4891 53.431C51.3666 54.0928 53.2056 55.5781 53.8196 56.4276C54.4337 57.2771 54.9627 58.5435 55.3796 59.5351C55.4554 59.7145 55.4491 59.9718 55.53 60.1118C55.7209 60.4427 55.8288 59.7114 55.8723 59.6212C57.3265 56.6091 58.1023 52.0754 58.1812 48.7573C58.2735 44.8937 58.3388 40.6867 57.3203 36.9558C56.7415 34.8347 55.6223 32.6721 54.1754 31.025L54.1744 31.0239ZM31.7268 27.7484L30.7694 28.2659C29.7156 29.3415 28.3828 30.0676 27.4358 31.1836C27.245 31.4087 26.1019 33.0112 26.1777 33.1419C26.2617 33.2871 26.3986 33.2944 26.4847 33.1367C27.3456 32.2095 28.0903 31.1359 28.9906 30.2491C29.7229 29.5272 30.7352 28.8198 31.4893 28.0803C31.593 27.9786 31.7828 27.9797 31.7278 27.7494L31.7268 27.7484ZM29.5476 53.5742C29.3619 53.5669 29.3287 53.5223 29.3412 53.7287C29.3671 54.1664 29.5683 55.101 29.7509 55.4993C30.5485 57.2356 31.6397 58.9791 32.2962 60.8368L32.9704 61.9767C32.5296 60.4437 31.9944 58.9117 31.3119 57.4648C30.9717 56.7439 30.6751 56.2025 30.2073 55.6134C29.7395 55.0242 29.7322 54.2712 29.5476 53.5752V53.5742ZM39.0278 64.6299C40.5079 65.8518 45.0188 65.7813 46.8972 65.4773C48.09 65.2844 49.3814 64.7575 50.5036 64.3125C50.624 63.8199 50.5576 62.9859 50.4995 62.4435C50.2796 60.3701 49.6842 57.0613 47.9002 55.8115C45.1858 53.9092 39.7373 54.4392 37.9128 57.4264C36.5551 59.6502 37.0125 62.9662 39.0278 64.6299ZM58.0723 60.9395C57.7777 60.9053 57.7445 61.2102 57.5806 61.3596C57.4572 61.4726 57.0734 61.4467 57.1398 61.872C57.4458 61.9622 58.2185 61.0972 58.0723 60.9395ZM58.3824 68.9261C58.1822 68.9157 58.1739 68.8774 58.1729 69.0827C58.1718 69.3721 58.5649 70.5131 58.6977 70.8419C58.762 71.0016 58.7786 71.1437 59.0058 71.1032L58.3824 68.9261Z" fill="white"/>
<path d="M48.7964 16.6057C47.0777 19.5172 42.4185 19.5763 40.5598 16.7883C38.6212 13.8809 40.872 10.3367 44.1341 10.0235C47.7446 9.67604 50.7816 13.243 48.7964 16.6057ZM42.8417 12.3811C43.0553 12.517 43.964 12.4278 44.1216 12.0834C44.5002 11.2547 42.879 11.3429 42.738 11.9517C42.7162 12.0461 42.7867 12.3458 42.8417 12.3811Z" fill="white"/>
<path d="M29.5476 53.5721C29.7322 54.2681 29.7571 55.0418 30.2073 55.6102C30.6574 56.1786 30.9717 56.7408 31.3119 57.4617C31.9944 58.9086 32.5286 60.4396 32.9704 61.9736L32.2962 60.8337C31.6397 58.976 30.5485 57.2335 29.7509 55.4962C29.5683 55.0989 29.3671 54.1644 29.3412 53.7256C29.3287 53.5192 29.3619 53.5648 29.5476 53.5711V53.5721Z" fill="white"/>
<path d="M31.7266 27.7471C31.7826 27.9774 31.5918 27.9774 31.4881 28.078C30.734 28.8175 29.7217 29.5249 28.9894 30.2468C28.0901 31.1337 27.3454 32.2082 26.4835 33.1345C26.3974 33.2921 26.2605 33.2849 26.1764 33.1397C26.1007 33.009 27.2438 31.4075 27.4346 31.1814C28.3805 30.0653 29.7144 29.3393 30.7682 28.2637L31.7256 27.7461L31.7266 27.7471Z" fill="white"/>
<path d="M58.3824 68.9237L59.0057 71.1009C58.7786 71.1413 58.762 71.0002 58.6977 70.8395C58.5649 70.5096 58.1718 69.3697 58.1729 69.0803C58.1729 68.875 58.1822 68.9133 58.3824 68.9237Z" fill="white"/>
<path d="M58.0724 60.9382C58.2187 61.0948 57.4459 61.9609 57.14 61.8707C57.0736 61.4454 57.4584 61.4713 57.5808 61.3583C57.7436 61.2089 57.7779 60.904 58.0724 60.9382Z" fill="white"/>
<path d="M42.842 12.3813C42.787 12.346 42.7154 12.0463 42.7382 11.9519C42.8803 11.343 44.5005 11.2549 44.1219 12.0836C43.9642 12.428 43.0556 12.5182 42.842 12.3813Z" fill="white"/>
</svg>
