<svg width="70" height="70" viewBox="0 0 70 70" fill="none" xmlns="http://www.w3.org/2000/svg">
<path d="M22.6044 31.104H20.8751V39.4568H22.6044V31.104Z" fill="white"/>
<path d="M38.4128 36.4523C38.3006 36.7946 38.1397 37.0899 37.9302 37.3386C37.7203 37.5879 37.4662 37.7741 37.1667 37.8993C36.8687 38.0238 36.5412 38.0862 36.1872 38.0862C35.8192 38.0862 35.4899 38.0224 35.1974 37.8931C34.9059 37.7659 34.651 37.5783 34.435 37.3286C34.2179 37.0793 34.055 36.7867 33.9476 36.4468C33.8392 36.108 33.784 35.7276 33.784 35.3054C33.784 34.9041 33.8402 34.5272 33.9517 34.1739C34.0635 33.8217 34.2275 33.5209 34.4446 33.2719C34.661 33.0226 34.9138 32.8363 35.2029 32.7125C35.4917 32.5657 35.8192 32.5009 36.1872 32.5143C36.5353 32.5143 36.8611 32.5818 37.1619 32.7163C37.4638 32.8511 37.7237 33.0473 37.9401 33.3024C38.1566 33.559 38.3184 33.8567 38.423 34.1949C38.527 34.5337 38.5801 34.9041 38.5801 35.3054C38.5801 35.7276 38.5249 36.1093 38.4128 36.4523ZM39.8793 33.3789C39.7418 32.977 39.4873 32.5812 39.1203 32.1891C38.7523 31.7982 38.3157 31.5018 37.8088 31.3008C37.3091 31.0933 36.7679 30.9928 36.1827 31.0004C35.5843 31.0004 35.0362 31.1019 34.5358 31.307C34.0361 31.5107 33.6026 31.8108 33.2342 32.2053C32.8669 32.5993 32.5922 33.0562 32.4114 33.5758C32.2297 34.095 32.1401 34.6736 32.1401 35.3102C32.1401 35.6432 32.1638 35.9492 32.2098 36.2294C32.2557 36.5099 32.3469 36.8481 32.4852 37.2429C32.6234 37.6373 32.8799 38.0338 33.2551 38.4313C33.629 38.8305 34.0666 39.1237 34.5663 39.3141C35.0653 39.5048 35.6045 39.6001 36.1827 39.6001C36.7679 39.6001 37.3039 39.5031 37.7944 39.31C38.2841 39.1165 38.7218 38.8216 39.1104 38.4265C39.4986 38.0324 39.7812 37.5762 39.9582 37.0597C40.1355 36.5453 40.2243 35.9612 40.2243 35.3102C40.2243 34.9779 40.2014 34.6736 40.1551 34.3965C40.1094 34.1197 40.0186 33.7802 39.8793 33.3789Z" fill="white"/>
<path d="M14.4 36.6049L17.2772 32.8147H17.3273V36.6049H14.4ZM19.0565 31.0483H16.4489L10 39.4563H12.2269L13.4784 37.8193H17.3273V39.4598H19.0565V31.0483Z" fill="white"/>
<path d="M52.6717 34.9692V32.815H52.7225L54.3115 34.9044C53.7493 34.9222 53.202 34.9438 52.6717 34.9692ZM57.7738 39.4567H60L57.2089 35.8174C58.8137 35.8339 59.8251 35.9062 59.8251 35.9062V34.8742C58.658 34.8512 57.5412 34.8475 56.4729 34.8588L53.5514 31.0483H50.9428V35.0683C50.4198 35.1033 49.917 35.1414 49.431 35.1822V31.0727H47.701V35.3451C46.1882 35.5032 44.9164 35.6812 43.8903 35.8476V31.0727H42.161V36.1562C41.2857 36.3298 40.8309 36.4502 40.8309 36.4502V38.5135C41.2597 38.3084 41.7045 38.1198 42.161 37.9435V39.4265H43.8903V37.3594C45.125 36.9928 46.4132 36.7102 47.701 36.493V39.4265H49.431V36.2399C49.9413 36.1758 50.4458 36.1189 50.9428 36.0719V39.4601H52.6717V35.9357C53.4979 35.8836 54.2864 35.8507 55.017 35.8328L57.7738 39.4567Z" fill="white"/>
<path d="M26.1292 32.6134H28.1685C28.4381 32.6134 28.6734 32.6374 28.8754 32.6872C29.077 32.7372 29.2362 32.8031 29.3528 32.8875C29.4704 32.9725 29.5538 33.0891 29.6032 33.2369C29.667 33.3858 29.6989 33.5545 29.6989 33.7449C29.6989 33.9565 29.6625 34.1547 29.5918 34.3382C29.5219 34.521 29.4111 34.6658 29.2626 34.7711C29.1995 34.8355 29.1254 34.8843 29.0407 34.9192C28.9546 34.9552 28.8246 34.9909 28.6476 35.0249C28.4703 35.0605 28.2361 35.0784 27.9452 35.0784H26.1292V32.6134ZM30.1433 35.7403C30.3875 35.6179 30.6016 35.4604 30.7847 35.2708C30.9757 35.0451 31.116 34.8047 31.2031 34.5481C31.2913 34.2923 31.3365 34.0086 31.3365 33.6993C31.3365 33.2706 31.2669 32.8919 31.1287 32.5651C30.9915 32.2382 30.7892 31.9865 30.5206 31.8115C30.2524 31.5999 29.9094 31.4418 29.4938 31.3365C29.0764 31.2309 28.5828 31.1777 28.0104 31.1777H24.3999V39.4568H26.1292V36.3481H27.2545C27.2703 36.3481 27.3238 36.3419 27.4003 36.3313L27.6081 36.6053L28.5307 37.8198L29.7825 39.4568H32.0091L29.337 35.9735C29.6474 35.9279 29.9194 35.8535 30.1433 35.7403Z" fill="white"/>
</svg>
