<svg width="70" height="70" viewBox="0 0 70 70" fill="none" xmlns="http://www.w3.org/2000/svg">
<path fill-rule="evenodd" clip-rule="evenodd" d="M35.3759 8C37.436 8 37.7471 8.01436 37.7471 8.10772C37.7471 8.19821 37.9109 8.21545 38.789 8.21545C39.4356 8.21545 39.8308 8.24274 39.8308 8.28726C39.8308 8.32676 39.976 8.35908 40.1542 8.35908C40.3934 8.35908 40.4775 8.38709 40.4775 8.4668C40.4775 8.5537 40.5896 8.57453 41.0523 8.57453C41.5151 8.57453 41.6272 8.59536 41.6272 8.68225C41.6272 8.76484 41.7191 8.78998 42.0223 8.78998C42.3256 8.78998 42.4175 8.81511 42.4175 8.8977C42.4175 8.98029 42.5095 9.00543 42.8127 9.00543C43.0297 9.00543 43.2079 9.03774 43.2079 9.07724C43.2079 9.11674 43.3372 9.14906 43.4953 9.14906C43.703 9.14906 43.7827 9.17922 43.7827 9.25678C43.7827 9.33434 43.8625 9.36451 44.0701 9.36451C44.2778 9.36451 44.3576 9.39467 44.3576 9.47223C44.3576 9.54405 44.4294 9.57995 44.5731 9.57995C44.6917 9.57995 44.7887 9.61227 44.7887 9.65177C44.7887 9.69127 44.918 9.72359 45.0761 9.72359C45.2837 9.72359 45.3635 9.75375 45.3635 9.83131C45.3635 9.8981 45.431 9.93904 45.5431 9.93904C45.6552 9.93904 45.7228 9.97997 45.7228 10.0468C45.7228 10.1243 45.8025 10.1545 46.0102 10.1545C46.2178 10.1545 46.2976 10.1846 46.2976 10.2622C46.2976 10.334 46.3694 10.3699 46.5131 10.3699C46.6317 10.3699 46.7287 10.4022 46.7287 10.4417C46.7287 10.4812 46.8099 10.5136 46.9083 10.5136C47.0204 10.5136 47.088 10.5545 47.088 10.6213C47.088 10.6988 47.1677 10.729 47.3754 10.729C47.583 10.729 47.6628 10.7592 47.6628 10.8367C47.6628 10.9086 47.7346 10.9445 47.8784 10.9445C47.9969 10.9445 48.0939 10.9768 48.0939 11.0163C48.0939 11.0558 48.1421 11.1362 48.2017 11.1958C48.2613 11.2554 48.4374 11.3035 48.5969 11.3035C48.8045 11.3035 48.8843 11.3337 48.8843 11.4113C48.8843 11.4709 48.9166 11.519 48.9561 11.519C48.9957 11.519 49.028 11.5671 49.028 11.6267C49.028 11.6863 49.0761 11.7344 49.1358 11.7344C49.1954 11.7344 49.2436 11.7668 49.2436 11.8063C49.2436 11.8458 49.3406 11.8781 49.4591 11.8781C49.6028 11.8781 49.6747 11.914 49.6747 11.9858C49.6747 12.0454 49.707 12.0935 49.7465 12.0935C49.786 12.0935 49.8184 12.1416 49.8184 12.2012C49.8184 12.2788 49.8981 12.309 50.1058 12.309C50.3134 12.309 50.3932 12.3391 50.3932 12.4167C50.3932 12.4763 50.4413 12.5244 50.501 12.5244C50.5606 12.5244 50.6088 12.5567 50.6088 12.5962C50.6088 12.6357 50.6569 12.668 50.7165 12.668C50.7762 12.668 50.8243 12.7162 50.8243 12.7758C50.8243 12.8426 50.8919 12.8835 51.004 12.8835C51.116 12.8835 51.1836 12.9244 51.1836 12.9912C51.1836 13.0508 51.2317 13.0989 51.2914 13.0989C51.351 13.0989 51.3991 13.1313 51.3991 13.1708C51.3991 13.2103 51.4473 13.2426 51.5069 13.2426C51.5666 13.2426 51.6147 13.2907 51.6147 13.3503C51.6147 13.4171 51.6822 13.458 51.7943 13.458C51.9064 13.458 51.974 13.499 51.974 13.5657C51.974 13.6254 52.0221 13.6735 52.0817 13.6735C52.1414 13.6735 52.1895 13.7216 52.1895 13.7812C52.1895 13.8408 52.2377 13.8889 52.2973 13.8889C52.3569 13.8889 52.4051 13.9212 52.4051 13.9607C52.4051 14.0002 52.4863 14.0326 52.5847 14.0326C52.6968 14.0326 52.7643 14.0735 52.7643 14.1403C52.7643 14.1999 52.8125 14.248 52.8721 14.248C52.9318 14.248 52.9799 14.2961 52.9799 14.3557C52.9799 14.4153 53.028 14.4635 53.0877 14.4635C53.1473 14.4635 53.1955 14.4958 53.1955 14.5353C53.1955 14.5748 53.2436 14.6552 53.3032 14.7148C53.3629 14.7744 53.4434 14.8225 53.4829 14.8225C53.5224 14.8225 53.5547 14.8706 53.5547 14.9303C53.5547 14.997 53.6223 15.038 53.7344 15.038C53.8465 15.038 53.914 15.0789 53.914 15.1457C53.914 15.2053 53.9621 15.2534 54.0218 15.2534C54.0814 15.2534 54.1296 15.2857 54.1296 15.3252C54.1296 15.3647 54.1777 15.3971 54.2373 15.3971C54.297 15.3971 54.3451 15.4452 54.3451 15.5048C54.3451 15.5644 54.3933 15.6125 54.4529 15.6125C54.5125 15.6125 54.5607 15.6606 54.5607 15.7202C54.5607 15.7798 54.593 15.828 54.6325 15.828C54.672 15.828 54.7044 15.8761 54.7044 15.9357C54.7044 15.9953 54.7525 16.0434 54.8122 16.0434C54.8718 16.0434 54.9199 16.0757 54.9199 16.1152C54.9199 16.1547 54.9681 16.187 55.0277 16.187C55.0874 16.187 55.1355 16.2352 55.1355 16.2948C55.1355 16.3544 55.1678 16.4025 55.2073 16.4025C55.2469 16.4025 55.2792 16.4506 55.2792 16.5102C55.2792 16.5698 55.3273 16.6179 55.387 16.6179C55.4466 16.6179 55.4948 16.6503 55.4948 16.6898C55.4948 16.7292 55.5429 16.7616 55.6025 16.7616C55.6744 16.7616 55.7103 16.8334 55.7103 16.977C55.7103 17.1587 55.7383 17.1925 55.8899 17.1925C56.0337 17.1925 56.0696 17.2284 56.0696 17.372C56.0696 17.484 56.1105 17.5515 56.1774 17.5515C56.237 17.5515 56.2851 17.6004 56.2851 17.6593C56.2851 17.7182 56.3333 17.767 56.3929 17.767C56.4526 17.767 56.5007 17.8158 56.5007 17.8747C56.5007 17.9336 56.533 17.9824 56.5726 17.9824C56.6121 17.9824 56.6444 18.0636 56.6444 18.162C56.6444 18.274 56.6854 18.3415 56.7522 18.3415C56.8118 18.3415 56.86 18.3904 56.86 18.4492C56.86 18.5081 56.9081 18.557 56.9677 18.557C57.0274 18.557 57.0755 18.6058 57.0755 18.6647C57.0755 18.7236 57.1237 18.7724 57.1833 18.7724C57.2501 18.7724 57.2911 18.8399 57.2911 18.952C57.2911 19.0511 57.3234 19.1315 57.3629 19.1315C57.4025 19.1315 57.4348 19.1803 57.4348 19.2392C57.4348 19.2981 57.4829 19.3469 57.5426 19.3469C57.6022 19.3469 57.6503 19.3958 57.6503 19.4547C57.6503 19.5136 57.6985 19.5624 57.7581 19.5624C57.8249 19.5624 57.8659 19.6299 57.8659 19.7419C57.8659 19.854 57.9069 19.9215 57.9737 19.9215C58.0333 19.9215 58.0815 19.9703 58.0815 20.0292C58.0815 20.0881 58.1138 20.1369 58.1533 20.1369C58.1928 20.1369 58.2252 20.2181 58.2252 20.3165C58.2252 20.4285 58.2661 20.496 58.3329 20.496C58.3926 20.496 58.4407 20.5448 58.4407 20.6037C58.4407 20.6626 58.4889 20.7115 58.5485 20.7115C58.6153 20.7115 58.6563 20.779 58.6563 20.891C58.6563 20.9901 58.6886 21.0705 58.7281 21.0705C58.7677 21.0705 58.8 21.1675 58.8 21.286C58.8 21.4296 58.8359 21.5014 58.9078 21.5014C58.9674 21.5014 59.0155 21.5337 59.0155 21.5732C59.0155 21.6127 59.0637 21.6451 59.1233 21.6451C59.183 21.6451 59.2311 21.6939 59.2311 21.7528C59.2311 21.8117 59.2792 21.8605 59.3389 21.8605C59.4165 21.8605 59.4467 21.9402 59.4467 22.1478C59.4467 22.3058 59.479 22.435 59.5185 22.435C59.558 22.435 59.5904 22.4839 59.5904 22.5428C59.5904 22.6017 59.6385 22.6505 59.6982 22.6505C59.77 22.6505 59.8059 22.7223 59.8059 22.8659C59.8059 23.0096 59.8419 23.0814 59.9137 23.0814C59.9913 23.0814 60.0215 23.1611 60.0215 23.3687C60.0215 23.5266 60.0538 23.6559 60.0933 23.6559C60.1329 23.6559 60.1652 23.7371 60.1652 23.8355C60.1652 23.9475 60.2062 24.015 60.273 24.015C60.3448 24.015 60.3808 24.0868 60.3808 24.2304C60.3808 24.3741 60.4167 24.4459 60.4885 24.4459C60.5661 24.4459 60.5963 24.5256 60.5963 24.7332C60.5963 24.9407 60.6265 25.0204 60.7041 25.0204C60.7709 25.0204 60.8119 25.0879 60.8119 25.2C60.8119 25.2991 60.8442 25.3795 60.8837 25.3795C60.9232 25.3795 60.9556 25.5088 60.9556 25.6668C60.9556 25.8743 60.9858 25.954 61.0634 25.954C61.123 25.954 61.1711 26.0029 61.1711 26.0618C61.1711 26.1206 61.2193 26.1695 61.2789 26.1695C61.3615 26.1695 61.3867 26.2614 61.3867 26.5645C61.3867 26.8675 61.4118 26.9595 61.4945 26.9595C61.5721 26.9595 61.6023 27.0392 61.6023 27.2467C61.6023 27.4047 61.6346 27.534 61.6741 27.534C61.7136 27.534 61.746 27.7121 61.746 27.929C61.746 28.232 61.7711 28.324 61.8537 28.324C61.9364 28.324 61.9615 28.4159 61.9615 28.719C61.9615 29.022 61.9867 29.1139 62.0693 29.1139C62.1562 29.1139 62.1771 29.226 62.1771 29.6885C62.1771 30.0239 62.2073 30.263 62.2489 30.263C62.2884 30.263 62.3208 30.3923 62.3208 30.5503C62.3208 30.7578 62.351 30.8375 62.4286 30.8375C62.5198 30.8375 62.5363 31.0049 62.5363 31.9148C62.5363 32.8247 62.5529 32.992 62.6441 32.992C62.7375 32.992 62.7519 33.303 62.7519 35.3619C62.7519 37.4209 62.7375 37.7319 62.6441 37.7319C62.5536 37.7319 62.5363 37.8956 62.5363 38.7732C62.5363 39.6508 62.5191 39.8145 62.4286 39.8145C62.3488 39.8145 62.3208 39.8986 62.3208 40.1377C62.3208 40.3158 62.2884 40.4609 62.2489 40.4609C62.2058 40.4609 62.1771 40.7604 62.1771 41.215C62.1771 41.8376 62.1584 41.969 62.0693 41.969C61.9974 41.969 61.9615 42.0408 61.9615 42.1845C61.9615 42.3281 61.9256 42.3999 61.8537 42.3999C61.7711 42.3999 61.746 42.4918 61.746 42.7949C61.746 43.0118 61.7136 43.1899 61.6741 43.1899C61.6346 43.1899 61.6023 43.3192 61.6023 43.4772C61.6023 43.6847 61.5721 43.7644 61.4945 43.7644C61.4118 43.7644 61.3867 43.8564 61.3867 44.1594C61.3867 44.4625 61.3615 44.5544 61.2789 44.5544C61.2193 44.5544 61.1711 44.6032 61.1711 44.6621C61.1711 44.7217 61.123 44.7699 61.0634 44.7699C60.9858 44.7699 60.9556 44.8496 60.9556 45.0571C60.9556 45.2151 60.9232 45.3444 60.8837 45.3444C60.8442 45.3444 60.8119 45.4255 60.8119 45.5239C60.8119 45.636 60.7709 45.7035 60.7041 45.7035C60.6265 45.7035 60.5963 45.7832 60.5963 45.9907C60.5963 46.1983 60.5661 46.278 60.4885 46.278C60.4167 46.278 60.3808 46.3498 60.3808 46.4934C60.3808 46.6371 60.3448 46.7089 60.273 46.7089C60.2062 46.7089 60.1652 46.7764 60.1652 46.8884C60.1652 46.9875 60.1329 47.068 60.0933 47.068C60.0538 47.068 60.0215 47.1972 60.0215 47.3552C60.0215 47.5628 59.9913 47.6425 59.9137 47.6425C59.8419 47.6425 59.8059 47.7143 59.8059 47.8579C59.8059 47.9764 59.7714 48.0734 59.729 48.0734C59.6867 48.0734 59.6055 48.1215 59.5494 48.1811C59.4927 48.24 59.4467 48.4181 59.4467 48.5761C59.4467 48.7837 59.4165 48.8634 59.3389 48.8634C59.2792 48.8634 59.2311 48.8957 59.2311 48.9352C59.2311 48.9747 59.183 49.007 59.1233 49.007C59.0637 49.007 59.0155 49.0551 59.0155 49.1147C59.0155 49.1743 58.9674 49.2225 58.9078 49.2225C58.8359 49.2225 58.8 49.2943 58.8 49.4379C58.8 49.5564 58.7677 49.6534 58.7281 49.6534C58.6886 49.6534 58.6563 49.7345 58.6563 49.8329C58.6563 49.9449 58.6153 50.0124 58.5485 50.0124C58.4817 50.0124 58.4407 50.0799 58.4407 50.192C58.4407 50.304 58.3998 50.3715 58.3329 50.3715C58.2733 50.3715 58.2252 50.4196 58.2252 50.4792C58.2252 50.5388 58.1928 50.587 58.1533 50.587C58.1138 50.587 58.0815 50.6351 58.0815 50.6947C58.0815 50.7543 58.0333 50.8024 57.9737 50.8024C57.9069 50.8024 57.8659 50.8699 57.8659 50.982C57.8659 51.094 57.8249 51.1615 57.7581 51.1615C57.6985 51.1615 57.6503 51.2096 57.6503 51.2692C57.6503 51.3288 57.6022 51.3769 57.5426 51.3769C57.4829 51.3769 57.4348 51.4251 57.4348 51.4847C57.4348 51.5443 57.4025 51.5924 57.3629 51.5924C57.3234 51.5924 57.2911 51.6735 57.2911 51.7719C57.2911 51.884 57.2501 51.9515 57.1833 51.9515C57.1237 51.9515 57.0755 51.9996 57.0755 52.0592C57.0755 52.1188 57.0274 52.1669 56.9677 52.1669C56.9081 52.1669 56.86 52.215 56.86 52.2746C56.86 52.3342 56.8118 52.3824 56.7522 52.3824C56.6854 52.3824 56.6444 52.4499 56.6444 52.5619C56.6444 52.661 56.6121 52.7414 56.5726 52.7414C56.533 52.7414 56.5007 52.7896 56.5007 52.8492C56.5007 52.9088 56.4526 52.9569 56.3929 52.9569C56.3333 52.9569 56.2851 53.005 56.2851 53.0646C56.2851 53.1242 56.237 53.1723 56.1774 53.1723C56.1105 53.1723 56.0696 53.2398 56.0696 53.3519C56.0696 53.4955 56.0337 53.5314 55.8899 53.5314C55.7462 53.5314 55.7103 53.5673 55.7103 53.711C55.7103 53.823 55.6694 53.8905 55.6025 53.8905C55.5429 53.8905 55.4948 53.9386 55.4948 53.9982C55.4948 54.0578 55.4466 54.106 55.387 54.106C55.3273 54.106 55.2792 54.1541 55.2792 54.2137C55.2792 54.2733 55.2469 54.3214 55.2073 54.3214C55.1678 54.3214 55.1355 54.3695 55.1355 54.4291C55.1355 54.4887 55.0874 54.5368 55.0277 54.5368C54.9681 54.5368 54.9199 54.5692 54.9199 54.6087C54.9199 54.6482 54.8718 54.6805 54.8122 54.6805C54.7525 54.6805 54.7044 54.7286 54.7044 54.7882C54.7044 54.8478 54.672 54.8959 54.6325 54.8959C54.593 54.8959 54.5607 54.944 54.5607 55.0037C54.5607 55.0633 54.5125 55.1114 54.4529 55.1114C54.3933 55.1114 54.3451 55.1437 54.3451 55.1832C54.3451 55.2227 54.297 55.255 54.2373 55.255C54.1777 55.255 54.1296 55.3031 54.1296 55.3627C54.1296 55.4223 54.0814 55.4705 54.0218 55.4705C53.9621 55.4705 53.914 55.5186 53.914 55.5782C53.914 55.645 53.8465 55.6859 53.7344 55.6859C53.5907 55.6859 53.5547 55.7218 53.5547 55.8654C53.5547 56.0091 53.5188 56.045 53.3751 56.045C53.263 56.045 53.1955 56.0859 53.1955 56.1527C53.1955 56.2123 53.1473 56.2604 53.0877 56.2604C53.028 56.2604 52.9799 56.3086 52.9799 56.3682C52.9799 56.4278 52.9318 56.4759 52.8721 56.4759C52.8125 56.4759 52.7643 56.5082 52.7643 56.5477C52.7643 56.5872 52.6832 56.6195 52.5847 56.6195C52.4726 56.6195 52.4051 56.6605 52.4051 56.7272C52.4051 56.7868 52.3569 56.835 52.2973 56.835C52.2377 56.835 52.1895 56.8831 52.1895 56.9427C52.1895 57.0023 52.1414 57.0504 52.0817 57.0504C52.0221 57.0504 51.974 57.0985 51.974 57.1581C51.974 57.2249 51.9064 57.2659 51.7943 57.2659C51.6952 57.2659 51.6147 57.2982 51.6147 57.3377C51.6147 57.3772 51.5666 57.4095 51.5069 57.4095C51.4473 57.4095 51.3991 57.4576 51.3991 57.5172C51.3991 57.5768 51.351 57.6249 51.2914 57.6249C51.2317 57.6249 51.1836 57.6731 51.1836 57.7327C51.1836 57.7995 51.116 57.8404 51.004 57.8404C50.8919 57.8404 50.8243 57.8813 50.8243 57.9481C50.8243 58.0077 50.7762 58.0558 50.7165 58.0558C50.6569 58.0558 50.6088 58.0882 50.6088 58.1277C50.6088 58.1672 50.5606 58.1995 50.501 58.1995C50.4413 58.1995 50.3932 58.2476 50.3932 58.3072C50.3932 58.374 50.3257 58.4149 50.2136 58.4149C50.1015 58.4149 50.0339 58.4559 50.0339 58.5226C50.0339 58.5894 49.9664 58.6304 49.8543 58.6304C49.7551 58.6304 49.6747 58.6627 49.6747 58.7022C49.6747 58.7417 49.5777 58.774 49.4591 58.774C49.3154 58.774 49.2436 58.8099 49.2436 58.8817C49.2436 58.9413 49.1954 58.9894 49.1358 58.9894C49.0761 58.9894 49.028 59.0376 49.028 59.0972C49.028 59.1568 48.9957 59.2049 48.9561 59.2049C48.9166 59.2049 48.8843 59.253 48.8843 59.3126C48.8843 59.3909 48.8038 59.4203 48.5918 59.4203C48.4252 59.4203 48.2549 59.467 48.1967 59.5281C48.1399 59.5877 48.0939 59.6681 48.0939 59.7076C48.0939 59.7471 47.9969 59.7794 47.8784 59.7794C47.7346 59.7794 47.6628 59.8153 47.6628 59.8871C47.6628 59.9647 47.583 59.9949 47.3754 59.9949C47.2173 59.9949 47.088 60.0272 47.088 60.0667C47.088 60.1062 47.0075 60.1385 46.9083 60.1385C46.7962 60.1385 46.7287 60.1794 46.7287 60.2462C46.7287 60.318 46.6569 60.354 46.5131 60.354C46.3694 60.354 46.2976 60.3899 46.2976 60.4617C46.2976 60.5392 46.2178 60.5694 46.0102 60.5694C45.8025 60.5694 45.7228 60.5996 45.7228 60.6771C45.7228 60.7439 45.6552 60.7849 45.5431 60.7849C45.4447 60.7849 45.3635 60.8172 45.3635 60.8567C45.3635 60.8962 45.2342 60.9285 45.0761 60.9285C44.8684 60.9285 44.7887 60.9586 44.7887 61.0362C44.7887 61.0958 44.7405 61.1439 44.6809 61.1439C44.622 61.1439 44.5731 61.192 44.5731 61.2517C44.5731 61.3342 44.4811 61.3594 44.1779 61.3594C43.8747 61.3594 43.7827 61.3845 43.7827 61.4671C43.7827 61.5447 43.703 61.5748 43.4953 61.5748C43.3372 61.5748 43.2079 61.6071 43.2079 61.6466C43.2079 61.6861 43.0297 61.7185 42.8127 61.7185C42.5095 61.7185 42.4175 61.7436 42.4175 61.8262C42.4175 61.9088 42.3256 61.9339 42.0223 61.9339C41.7191 61.9339 41.6272 61.959 41.6272 62.0416C41.6272 62.1285 41.5151 62.1494 41.0523 62.1494C40.7168 62.1494 40.4775 62.1795 40.4775 62.2212C40.4775 62.2607 40.3324 62.293 40.1542 62.293C39.9149 62.293 39.8308 62.321 39.8308 62.4007C39.8308 62.4912 39.667 62.5084 38.789 62.5084C37.9109 62.5084 37.7471 62.5257 37.7471 62.6162C37.7471 62.7095 37.436 62.7239 35.3759 62.7239C33.3159 62.7239 33.0048 62.7095 33.0048 62.6162C33.0048 62.525 32.8374 62.5084 31.927 62.5084C31.0166 62.5084 30.8492 62.4919 30.8492 62.4007C30.8492 62.3232 30.7695 62.293 30.5618 62.293C30.4037 62.293 30.2744 62.2607 30.2744 62.2212C30.2744 62.1795 30.0351 62.1494 29.6996 62.1494C29.2368 62.1494 29.1247 62.1285 29.1247 62.0416C29.1247 61.959 29.0328 61.9339 28.7296 61.9339C28.4263 61.9339 28.3344 61.9088 28.3344 61.8262C28.3344 61.7436 28.2424 61.7185 27.9392 61.7185C27.7222 61.7185 27.544 61.6861 27.544 61.6466C27.544 61.6071 27.4146 61.5748 27.2566 61.5748C27.0489 61.5748 26.9692 61.5447 26.9692 61.4671C26.9692 61.3845 26.8772 61.3594 26.574 61.3594C26.2708 61.3594 26.1788 61.3342 26.1788 61.2517C26.1788 61.192 26.1299 61.1439 26.071 61.1439C26.0121 61.1439 25.9632 61.0958 25.9632 61.0362C25.9632 60.9586 25.8835 60.9285 25.6758 60.9285C25.5177 60.9285 25.3884 60.8962 25.3884 60.8567C25.3884 60.8172 25.3079 60.7849 25.2088 60.7849C25.0967 60.7849 25.0291 60.7439 25.0291 60.6771C25.0291 60.5996 24.9494 60.5694 24.7417 60.5694C24.5341 60.5694 24.4543 60.5392 24.4543 60.4617C24.4543 60.3899 24.3825 60.354 24.2388 60.354C24.095 60.354 24.0232 60.318 24.0232 60.2462C24.0232 60.1794 23.9557 60.1385 23.8436 60.1385C23.7451 60.1385 23.6639 60.1062 23.6639 60.0667C23.6639 60.0272 23.5346 59.9949 23.3765 59.9949C23.1689 59.9949 23.0891 59.9647 23.0891 59.8871C23.0891 59.8153 23.0173 59.7794 22.8735 59.7794C22.7298 59.7794 22.658 59.7435 22.658 59.6717C22.658 59.6121 22.6091 59.564 22.5502 59.564C22.4913 59.564 22.4424 59.5317 22.4424 59.4922C22.4424 59.4527 22.3131 59.4203 22.155 59.4203C21.9474 59.4203 21.8676 59.3902 21.8676 59.3126C21.8676 59.253 21.8187 59.2049 21.7598 59.2049C21.7009 59.2049 21.652 59.1568 21.652 59.0972C21.652 59.0376 21.6197 58.9894 21.5802 58.9894C21.5407 58.9894 21.5083 58.9413 21.5083 58.8817C21.5083 58.8099 21.4365 58.774 21.2928 58.774C21.1742 58.774 21.0772 58.7417 21.0772 58.7022C21.0772 58.6627 20.9967 58.6304 20.8976 58.6304C20.7855 58.6304 20.718 58.5894 20.718 58.5226C20.718 58.463 20.6691 58.4149 20.6102 58.4149C20.5513 58.4149 20.5024 58.3668 20.5024 58.3072C20.5024 58.2404 20.4349 58.1995 20.3228 58.1995C20.2243 58.1995 20.1431 58.1672 20.1431 58.1277C20.1431 58.0882 20.0943 58.0558 20.0354 58.0558C19.9764 58.0558 19.9276 58.0077 19.9276 57.9481C19.9276 57.8813 19.86 57.8404 19.7479 57.8404C19.6359 57.8404 19.5683 57.7995 19.5683 57.7327C19.5683 57.6731 19.5195 57.6249 19.4605 57.6249C19.4016 57.6249 19.3528 57.5768 19.3528 57.5172C19.3528 57.4576 19.3039 57.4095 19.245 57.4095C19.1861 57.4095 19.1372 57.3772 19.1372 57.3377C19.1372 57.2982 19.0567 57.2659 18.9576 57.2659C18.8455 57.2659 18.7779 57.2249 18.7779 57.1581C18.7779 57.0985 18.7291 57.0504 18.6702 57.0504C18.6112 57.0504 18.5624 57.0023 18.5624 56.9427C18.5624 56.8831 18.5135 56.835 18.4546 56.835C18.3957 56.835 18.3468 56.7868 18.3468 56.7272C18.3468 56.6605 18.2793 56.6195 18.1672 56.6195C18.0687 56.6195 17.9876 56.5872 17.9876 56.5477C17.9876 56.5082 17.9387 56.4759 17.8798 56.4759C17.8209 56.4759 17.772 56.4278 17.772 56.3682C17.772 56.3086 17.7231 56.2604 17.6642 56.2604C17.6053 56.2604 17.5564 56.2123 17.5564 56.1527C17.5564 56.0859 17.4889 56.045 17.3768 56.045C17.2331 56.045 17.1972 56.0091 17.1972 55.8654C17.1972 55.7139 17.1634 55.6859 16.9816 55.6859C16.8379 55.6859 16.7661 55.65 16.7661 55.5782C16.7661 55.5186 16.7337 55.4705 16.6942 55.4705C16.6547 55.4705 16.6223 55.4223 16.6223 55.3627C16.6223 55.3031 16.5742 55.255 16.5146 55.255C16.4549 55.255 16.4068 55.2227 16.4068 55.1832C16.4068 55.1437 16.3586 55.1114 16.299 55.1114C16.2394 55.1114 16.1912 55.0633 16.1912 55.0037C16.1912 54.944 16.1589 54.8959 16.1194 54.8959C16.0799 54.8959 16.0475 54.8478 16.0475 54.7882C16.0475 54.7286 15.9994 54.6805 15.9397 54.6805C15.8801 54.6805 15.832 54.6482 15.832 54.6087C15.832 54.5692 15.7838 54.5368 15.7242 54.5368C15.6645 54.5368 15.6164 54.4887 15.6164 54.4291C15.6164 54.3695 15.5683 54.3214 15.5086 54.3214C15.449 54.3214 15.4008 54.2733 15.4008 54.2137C15.4008 54.1541 15.3685 54.106 15.329 54.106C15.2895 54.106 15.2571 54.0578 15.2571 53.9982C15.2571 53.9386 15.209 53.8905 15.1494 53.8905C15.0825 53.8905 15.0416 53.823 15.0416 53.711C15.0416 53.5989 15.0006 53.5314 14.9338 53.5314C14.8742 53.5314 14.826 53.4991 14.826 53.4596C14.826 53.4201 14.7779 53.3397 14.7182 53.2801C14.6586 53.2205 14.5781 53.1723 14.5386 53.1723C14.4991 53.1723 14.4668 53.1242 14.4668 53.0646C14.4668 53.005 14.4186 52.9569 14.359 52.9569C14.2993 52.9569 14.2512 52.9088 14.2512 52.8492C14.2512 52.7896 14.2031 52.7414 14.1434 52.7414C14.0766 52.7414 14.0356 52.6739 14.0356 52.5619C14.0356 52.4628 14.0033 52.3824 13.9638 52.3824C13.9243 52.3824 13.8919 52.3342 13.8919 52.2746C13.8919 52.215 13.8438 52.1669 13.7842 52.1669C13.7245 52.1669 13.6764 52.1188 13.6764 52.0592C13.6764 51.9996 13.6282 51.9515 13.5686 51.9515C13.5018 51.9515 13.4608 51.884 13.4608 51.7719C13.4608 51.6599 13.4199 51.5924 13.353 51.5924C13.2934 51.5924 13.2453 51.5443 13.2453 51.4847C13.2453 51.4251 13.2129 51.3769 13.1734 51.3769C13.1339 51.3769 13.1016 51.3288 13.1016 51.2692C13.1016 51.2096 13.0534 51.1615 12.9938 51.1615C12.927 51.1615 12.886 51.094 12.886 50.982C12.886 50.8699 12.845 50.8024 12.7782 50.8024C12.7186 50.8024 12.6704 50.7543 12.6704 50.6947C12.6704 50.6351 12.6381 50.587 12.5986 50.587C12.5591 50.587 12.5267 50.5388 12.5267 50.4792C12.5267 50.4196 12.4786 50.3715 12.419 50.3715C12.3414 50.3715 12.3112 50.2918 12.3112 50.0842C12.3112 49.8767 12.281 49.797 12.2034 49.797C12.1438 49.797 12.0956 49.7647 12.0956 49.7252C12.0956 49.6857 12.0475 49.6534 11.9878 49.6534C11.916 49.6534 11.8801 49.5815 11.8801 49.4379C11.8801 49.3194 11.8477 49.2225 11.8082 49.2225C11.7687 49.2225 11.7364 49.1743 11.7364 49.1147C11.7364 49.0551 11.6882 49.007 11.6286 49.007C11.5689 49.007 11.5208 48.9747 11.5208 48.9352C11.5208 48.8957 11.4726 48.8634 11.413 48.8634C11.3354 48.8634 11.3052 48.7837 11.3052 48.5761C11.3052 48.4167 11.2571 48.2407 11.1975 48.1811C11.1378 48.1215 11.0573 48.0734 11.0178 48.0734C10.9783 48.0734 10.946 47.9764 10.946 47.8579C10.946 47.7143 10.91 47.6425 10.8382 47.6425C10.7606 47.6425 10.7304 47.5628 10.7304 47.3552C10.7304 47.1477 10.7002 47.068 10.6226 47.068C10.5558 47.068 10.5149 47.0005 10.5149 46.8884C10.5149 46.7893 10.4825 46.7089 10.443 46.7089C10.4035 46.7089 10.3711 46.6119 10.3711 46.4934C10.3711 46.3498 10.3352 46.278 10.2634 46.278C10.1858 46.278 10.1556 46.1983 10.1556 45.9907C10.1556 45.7832 10.1254 45.7035 10.0478 45.7035C9.98098 45.7035 9.94003 45.636 9.94003 45.5239C9.94003 45.4119 9.89907 45.3444 9.83225 45.3444C9.75465 45.3444 9.72447 45.2647 9.72447 45.0571C9.72447 44.8991 9.69214 44.7699 9.65262 44.7699C9.6131 44.7699 9.58076 44.6729 9.58076 44.5544C9.58076 44.4108 9.54484 44.339 9.47298 44.339C9.39538 44.339 9.3652 44.2592 9.3652 44.0517C9.3652 43.8441 9.33503 43.7644 9.25743 43.7644C9.17982 43.7644 9.14965 43.6847 9.14965 43.4772C9.14965 43.3192 9.11731 43.1899 9.07779 43.1899C9.03827 43.1899 9.00594 43.0118 9.00594 42.7949C9.00594 42.4918 8.98079 42.3999 8.89816 42.3999C8.82631 42.3999 8.79038 42.3281 8.79038 42.1845C8.79038 42.0408 8.75446 41.969 8.6826 41.969C8.5935 41.969 8.57482 41.8376 8.57482 41.215C8.57482 40.5923 8.55614 40.4609 8.46704 40.4609C8.38729 40.4609 8.35926 40.3769 8.35926 40.1377C8.35926 39.9596 8.32693 39.8145 8.28741 39.8145C8.24286 39.8145 8.21556 39.4196 8.21556 38.7732C8.21556 37.8956 8.19831 37.7319 8.10778 37.7319C8.01437 37.7319 8 37.4209 8 35.3619C8 33.303 8.01437 32.992 8.10778 32.992C8.19903 32.992 8.21556 32.8247 8.21556 31.9148C8.21556 31.2447 8.24286 30.8375 8.28741 30.8375C8.32693 30.8375 8.35926 30.7083 8.35926 30.5503C8.35926 30.3427 8.38944 30.263 8.46704 30.263C8.55399 30.263 8.57482 30.151 8.57482 29.6885C8.57482 29.226 8.59566 29.1139 8.6826 29.1139C8.76523 29.1139 8.79038 29.022 8.79038 28.719C8.79038 28.4159 8.81553 28.324 8.89816 28.324C8.98079 28.324 9.00594 28.232 9.00594 27.929C9.00594 27.7121 9.03827 27.534 9.07779 27.534C9.11731 27.534 9.14965 27.4047 9.14965 27.2467C9.14965 27.0392 9.17982 26.9595 9.25743 26.9595C9.33503 26.9595 9.3652 26.8797 9.3652 26.6722C9.3652 26.4646 9.39538 26.3849 9.47298 26.3849C9.54484 26.3849 9.58076 26.3131 9.58076 26.1695C9.58076 26.051 9.6131 25.954 9.65262 25.954C9.69214 25.954 9.72447 25.8248 9.72447 25.6668C9.72447 25.4592 9.75465 25.3795 9.83225 25.3795C9.89907 25.3795 9.94003 25.312 9.94003 25.2C9.94003 25.0879 9.98098 25.0204 10.0478 25.0204C10.1254 25.0204 10.1556 24.9407 10.1556 24.7332C10.1556 24.5256 10.1858 24.4459 10.2634 24.4459C10.3352 24.4459 10.3711 24.3741 10.3711 24.2304C10.3711 24.1119 10.4035 24.015 10.443 24.015C10.4825 24.015 10.5149 23.9338 10.5149 23.8355C10.5149 23.7234 10.5558 23.6559 10.6226 23.6559C10.7002 23.6559 10.7304 23.5762 10.7304 23.3687C10.7304 23.1611 10.7606 23.0814 10.8382 23.0814C10.91 23.0814 10.946 23.0096 10.946 22.8659C10.946 22.7223 10.9819 22.6505 11.0537 22.6505C11.1134 22.6505 11.1615 22.6017 11.1615 22.5428C11.1615 22.4839 11.1939 22.435 11.2334 22.435C11.2729 22.435 11.3052 22.3058 11.3052 22.1478C11.3052 21.9402 11.3354 21.8605 11.413 21.8605C11.4726 21.8605 11.5208 21.8117 11.5208 21.7528C11.5208 21.6939 11.5553 21.6451 11.5977 21.6451C11.6401 21.6451 11.7213 21.5969 11.7773 21.5373C11.8341 21.4785 11.8801 21.3485 11.8801 21.2501C11.8801 21.138 11.921 21.0705 11.9878 21.0705C12.0475 21.0705 12.0956 21.0382 12.0956 20.9987C12.0956 20.9592 12.1438 20.9269 12.2034 20.9269C12.2752 20.9269 12.3112 20.8551 12.3112 20.7115C12.3112 20.5678 12.3471 20.496 12.419 20.496C12.4858 20.496 12.5267 20.4285 12.5267 20.3165C12.5267 20.2174 12.5591 20.1369 12.5986 20.1369C12.6381 20.1369 12.6704 20.0881 12.6704 20.0292C12.6704 19.9703 12.7186 19.9215 12.7782 19.9215C12.845 19.9215 12.886 19.854 12.886 19.7419C12.886 19.6299 12.927 19.5624 12.9938 19.5624C13.0534 19.5624 13.1016 19.5136 13.1016 19.4547C13.1016 19.3958 13.1339 19.3469 13.1734 19.3469C13.2129 19.3469 13.2453 19.2981 13.2453 19.2392C13.2453 19.1803 13.2934 19.1315 13.353 19.1315C13.4199 19.1315 13.4608 19.064 13.4608 18.952C13.4608 18.8399 13.5018 18.7724 13.5686 18.7724C13.6282 18.7724 13.6764 18.7236 13.6764 18.6647C13.6764 18.6058 13.7245 18.557 13.7842 18.557C13.8438 18.557 13.8919 18.5081 13.8919 18.4492C13.8919 18.3904 13.9243 18.3415 13.9638 18.3415C14.0033 18.3415 14.0356 18.2604 14.0356 18.162C14.0356 18.0499 14.0766 17.9824 14.1434 17.9824C14.2031 17.9824 14.2512 17.9336 14.2512 17.8747C14.2512 17.8158 14.2993 17.767 14.359 17.767C14.4186 17.767 14.4668 17.7182 14.4668 17.6593C14.4668 17.6004 14.5012 17.5515 14.5436 17.5515C14.586 17.5515 14.6672 17.5034 14.7233 17.4438C14.78 17.3849 14.826 17.3038 14.826 17.2643C14.826 17.2248 14.8742 17.1925 14.9338 17.1925C15.0057 17.1925 15.0416 17.1206 15.0416 16.977C15.0416 16.8585 15.0761 16.7616 15.1185 16.7616C15.1609 16.7616 15.2421 16.7127 15.2981 16.6538C15.3549 16.5942 15.4008 16.5138 15.4008 16.4743C15.4008 16.4348 15.449 16.4025 15.5086 16.4025C15.5683 16.4025 15.6164 16.3544 15.6164 16.2948C15.6164 16.2352 15.6645 16.187 15.7242 16.187C15.7838 16.187 15.832 16.1547 15.832 16.1152C15.832 16.0757 15.8801 16.0434 15.9397 16.0434C15.9994 16.0434 16.0475 15.9953 16.0475 15.9357C16.0475 15.8761 16.0799 15.828 16.1194 15.828C16.1589 15.828 16.1912 15.7798 16.1912 15.7202C16.1912 15.6606 16.2394 15.6125 16.299 15.6125C16.3586 15.6125 16.4068 15.5644 16.4068 15.5048C16.4068 15.4452 16.4413 15.3971 16.4837 15.3971C16.5261 15.3971 16.6073 15.3489 16.6633 15.2893C16.7201 15.2297 16.7661 15.1493 16.7661 15.1098C16.7661 15.0703 16.8631 15.038 16.9816 15.038C17.1253 15.038 17.1972 15.0021 17.1972 14.9303C17.1972 14.8706 17.2317 14.8225 17.2741 14.8225C17.3164 14.8225 17.3976 14.7744 17.4537 14.7148C17.5104 14.6552 17.5564 14.5748 17.5564 14.5353C17.5564 14.4958 17.6053 14.4635 17.6642 14.4635C17.7231 14.4635 17.772 14.4153 17.772 14.3557C17.772 14.2961 17.8209 14.248 17.8798 14.248C17.9387 14.248 17.9876 14.1999 17.9876 14.1403C17.9876 14.0735 18.0551 14.0326 18.1672 14.0326C18.2663 14.0326 18.3468 14.0002 18.3468 13.9607C18.3468 13.9212 18.3957 13.8889 18.4546 13.8889C18.5135 13.8889 18.5624 13.8408 18.5624 13.7812C18.5624 13.7216 18.6112 13.6735 18.6702 13.6735C18.7291 13.6735 18.7779 13.6254 18.7779 13.5657C18.7779 13.499 18.8455 13.458 18.9576 13.458C19.0697 13.458 19.1372 13.4171 19.1372 13.3503C19.1372 13.2907 19.1861 13.2426 19.245 13.2426C19.3039 13.2426 19.3528 13.2103 19.3528 13.1708C19.3528 13.1313 19.4016 13.0989 19.4605 13.0989C19.5195 13.0989 19.5683 13.0508 19.5683 12.9912C19.5683 12.9244 19.6359 12.8835 19.7479 12.8835C19.86 12.8835 19.9276 12.8426 19.9276 12.7758C19.9276 12.7162 19.9764 12.668 20.0354 12.668C20.0943 12.668 20.1431 12.6357 20.1431 12.5962C20.1431 12.5567 20.2243 12.5244 20.3228 12.5244C20.4349 12.5244 20.5024 12.4835 20.5024 12.4167C20.5024 12.3449 20.5743 12.309 20.718 12.309C20.8617 12.309 20.9335 12.2731 20.9335 12.2012C20.9335 12.1416 20.9659 12.0935 21.0054 12.0935C21.0449 12.0935 21.0772 12.0454 21.0772 11.9858C21.0772 11.9183 21.1455 11.8781 21.2619 11.8781C21.3639 11.8781 21.4933 11.83 21.5493 11.7703C21.6061 11.7115 21.652 11.6303 21.652 11.5908C21.652 11.5513 21.7009 11.519 21.7598 11.519C21.8187 11.519 21.8676 11.4709 21.8676 11.4113C21.8676 11.3337 21.9474 11.3035 22.155 11.3035C22.3131 11.3035 22.4424 11.2712 22.4424 11.2317C22.4424 11.1922 22.4913 11.1599 22.5502 11.1599C22.6091 11.1599 22.658 11.1118 22.658 11.0522C22.658 10.9804 22.7298 10.9445 22.8735 10.9445C23.0173 10.9445 23.0891 10.9086 23.0891 10.8367C23.0891 10.7592 23.1689 10.729 23.3765 10.729C23.5842 10.729 23.6639 10.6988 23.6639 10.6213C23.6639 10.5545 23.7315 10.5136 23.8436 10.5136C23.9427 10.5136 24.0232 10.4812 24.0232 10.4417C24.0232 10.4022 24.1202 10.3699 24.2388 10.3699C24.3825 10.3699 24.4543 10.334 24.4543 10.2622C24.4543 10.1846 24.5341 10.1545 24.7417 10.1545C24.9494 10.1545 25.0291 10.1243 25.0291 10.0468C25.0291 9.97997 25.0967 9.93904 25.2088 9.93904C25.3209 9.93904 25.3884 9.8981 25.3884 9.83131C25.3884 9.75375 25.4682 9.72359 25.6758 9.72359C25.8339 9.72359 25.9632 9.69127 25.9632 9.65177C25.9632 9.61227 26.0602 9.57995 26.1788 9.57995C26.3225 9.57995 26.3943 9.54405 26.3943 9.47223C26.3943 9.39467 26.4741 9.36451 26.6818 9.36451C26.8894 9.36451 26.9692 9.33434 26.9692 9.25678C26.9692 9.17922 27.0489 9.14906 27.2566 9.14906C27.4146 9.14906 27.544 9.11674 27.544 9.07724C27.544 9.03774 27.7222 9.00543 27.9392 9.00543C28.2424 9.00543 28.3344 8.98029 28.3344 8.8977C28.3344 8.81511 28.4263 8.78998 28.7296 8.78998C29.0328 8.78998 29.1247 8.76484 29.1247 8.68225C29.1247 8.59536 29.2368 8.57453 29.6996 8.57453C30.1623 8.57453 30.2744 8.5537 30.2744 8.4668C30.2744 8.38924 30.3542 8.35908 30.5618 8.35908C30.7199 8.35908 30.8492 8.32676 30.8492 8.28726C30.8492 8.24274 31.2566 8.21545 31.927 8.21545C32.8374 8.21545 33.0048 8.19893 33.0048 8.10772C33.0048 8.01436 33.3159 8 35.3759 8ZM45.7228 16.6179C46.1683 16.6179 46.2976 16.6503 46.2976 16.6898C46.2976 16.7307 46.5131 16.7616 46.8006 16.7616C47.2001 16.7616 47.3035 16.7838 47.3035 16.8693C47.3035 16.9469 47.3833 16.977 47.5909 16.977C47.7986 16.977 47.8784 17.0072 47.8784 17.0847C47.8784 17.1515 47.9459 17.1925 48.058 17.1925C48.1701 17.1925 48.2376 17.2334 48.2376 17.3002C48.2376 17.3777 48.3174 17.4079 48.525 17.4079C48.6845 17.4079 48.8606 17.456 48.9202 17.5156C48.9799 17.5745 49.028 17.6557 49.028 17.6952C49.028 17.7347 49.125 17.767 49.2436 17.767C49.3873 17.767 49.4591 17.8029 49.4591 17.8747C49.4591 17.9336 49.5073 17.9824 49.5669 17.9824C49.6337 17.9824 49.6747 18.0499 49.6747 18.162C49.6747 18.3056 49.7106 18.3415 49.8543 18.3415C49.9664 18.3415 50.0339 18.3825 50.0339 18.4492C50.0339 18.5081 50.0821 18.557 50.1417 18.557C50.2014 18.557 50.2495 18.5893 50.2495 18.6288C50.2495 18.6683 50.2976 18.7494 50.3573 18.8083C50.4169 18.8672 50.4974 18.9161 50.5369 18.9161C50.5764 18.9161 50.6088 19.013 50.6088 19.1315C50.6088 19.2751 50.6447 19.3469 50.7165 19.3469C50.7762 19.3469 50.8243 19.3958 50.8243 19.4547C50.8243 19.5136 50.8567 19.5624 50.8962 19.5624C50.9357 19.5624 51.0162 19.6112 51.0758 19.6701C51.1354 19.729 51.1836 19.8906 51.1836 20.0292C51.1836 20.2044 51.2159 20.2806 51.2914 20.2806C51.3632 20.2806 51.3991 20.3524 51.3991 20.496C51.3991 20.6396 51.4351 20.7115 51.5069 20.7115C51.5896 20.7115 51.6147 20.8034 51.6147 21.1064C51.6147 21.324 51.647 21.5014 51.6866 21.5014C51.7261 21.5014 51.7584 21.6788 51.7584 21.8964C51.7584 22.1995 51.7836 22.2914 51.8662 22.2914C51.9488 22.2914 51.974 22.3833 51.974 22.6864V23.0814C53.0798 23.0814 53.1955 23.0613 53.1955 22.9737C53.1955 22.9148 53.2278 22.8659 53.2673 22.8659C53.3068 22.8659 53.3392 22.7367 53.3392 22.5787C53.3392 22.4207 53.3068 22.2914 53.2673 22.2914C53.2278 22.2914 53.1955 22.114 53.1955 21.8964C53.1955 21.5934 53.1703 21.5014 53.0877 21.5014C53.0051 21.5014 52.9799 21.4095 52.9799 21.1064C52.9799 20.8034 52.9548 20.7115 52.8721 20.7115C52.8003 20.7115 52.7643 20.6396 52.7643 20.496C52.7643 20.3524 52.7284 20.2806 52.6566 20.2806C52.5897 20.2806 52.5488 20.2131 52.5488 20.101C52.5488 20.0019 52.5165 19.9215 52.4769 19.9215C52.4374 19.9215 52.4051 19.7922 52.4051 19.6342C52.4051 19.4267 52.3749 19.3469 52.2973 19.3469C52.2377 19.3469 52.1895 19.2981 52.1895 19.2392C52.1895 19.1803 52.1414 19.1315 52.0817 19.1315C52.0149 19.1315 51.974 19.064 51.974 18.952C51.974 18.8399 51.933 18.7724 51.8662 18.7724C51.8065 18.7724 51.7584 18.7236 51.7584 18.6647C51.7584 18.6058 51.7261 18.557 51.6866 18.557C51.647 18.557 51.6147 18.5081 51.6147 18.4492C51.6147 18.3904 51.5666 18.3415 51.5069 18.3415C51.4401 18.3415 51.3991 18.274 51.3991 18.162C51.3991 18.0499 51.3582 17.9824 51.2914 17.9824C51.2317 17.9824 51.1836 17.9336 51.1836 17.8747C51.1836 17.8158 51.1513 17.767 51.1117 17.767C51.0722 17.767 51.0399 17.7182 51.0399 17.6593C51.0399 17.6004 50.9917 17.5515 50.9321 17.5515C50.8725 17.5515 50.8243 17.5192 50.8243 17.4797C50.8243 17.4402 50.7762 17.4079 50.7165 17.4079C50.6569 17.4079 50.6088 17.3591 50.6088 17.3002C50.6088 17.2413 50.5606 17.1925 50.501 17.1925C50.4413 17.1925 50.3932 17.1436 50.3932 17.0847C50.3932 17.018 50.3257 16.977 50.2136 16.977C50.1015 16.977 50.0339 16.9361 50.0339 16.8693C50.0339 16.8097 49.9858 16.7616 49.9262 16.7616C49.8665 16.7616 49.8184 16.7292 49.8184 16.6898C49.8184 16.6503 49.7379 16.6179 49.6387 16.6179C49.5267 16.6179 49.4591 16.577 49.4591 16.5102C49.4591 16.4506 49.411 16.4025 49.3513 16.4025C49.2917 16.4025 49.2436 16.3544 49.2436 16.2948C49.2436 16.228 49.176 16.187 49.0639 16.187C48.9655 16.187 48.8843 16.1547 48.8843 16.1152C48.8843 16.0757 48.7873 16.0434 48.6687 16.0434C48.525 16.0434 48.4532 16.0075 48.4532 15.9357C48.4532 15.8581 48.3734 15.828 48.1658 15.828C47.9581 15.828 47.8784 15.7978 47.8784 15.7202C47.8784 15.6348 47.7749 15.6125 47.3754 15.6125C46.9759 15.6125 46.8724 15.5902 46.8724 15.5048C46.8724 15.4179 46.7603 15.3971 46.2976 15.3971H45.7228V16.6179ZM45.7228 18.9161C46.6252 18.9161 46.7287 18.9383 46.7287 19.0238C46.7287 19.1013 46.8085 19.1315 47.0161 19.1315C47.2238 19.1315 47.3035 19.1617 47.3035 19.2392C47.3035 19.306 47.3711 19.3469 47.4832 19.3469C47.5953 19.3469 47.6628 19.3879 47.6628 19.4547C47.6628 19.5215 47.7303 19.5624 47.8424 19.5624C47.9416 19.5624 48.0702 19.6112 48.1298 19.6701C48.1895 19.729 48.2376 19.8102 48.2376 19.8497C48.2376 19.8892 48.2858 19.9215 48.3454 19.9215C48.405 19.9215 48.4532 19.9703 48.4532 20.0292C48.4532 20.0881 48.5013 20.1369 48.561 20.1369C48.6206 20.1369 48.6687 20.1692 48.6687 20.2087C48.6687 20.2482 48.7169 20.2806 48.7765 20.2806C48.8362 20.2806 48.8843 20.3294 48.8843 20.3883C48.8843 20.4472 48.9166 20.496 48.9561 20.496C48.9957 20.496 49.028 20.593 49.028 20.7115C49.028 20.8551 49.0639 20.9269 49.1358 20.9269C49.2026 20.9269 49.2436 20.9944 49.2436 21.1064C49.2436 21.2185 49.2845 21.286 49.3513 21.286C49.4182 21.286 49.4591 21.3535 49.4591 21.4655C49.4591 21.5776 49.5001 21.6451 49.5669 21.6451C49.6546 21.6451 49.6747 21.7607 49.6747 22.2555C49.6747 22.6146 49.7041 22.8659 49.7465 22.8659C49.786 22.8659 49.8184 22.9148 49.8184 22.9737C49.8184 23.0613 49.9341 23.0814 50.4291 23.0814H51.0399C51.0399 21.9761 51.0198 21.8605 50.9321 21.8605C50.8495 21.8605 50.8243 21.7686 50.8243 21.4655C50.8243 21.1625 50.7992 21.0705 50.7165 21.0705C50.6497 21.0705 50.6088 21.003 50.6088 20.891C50.6088 20.779 50.5678 20.7115 50.501 20.7115C50.4342 20.7115 50.3932 20.6439 50.3932 20.5319C50.3932 20.4328 50.3451 20.3035 50.2854 20.2446C50.2258 20.1858 50.1453 20.1369 50.1058 20.1369C50.0663 20.1369 50.0339 20.04 50.0339 19.9215C50.0339 19.803 50.0016 19.706 49.9621 19.706C49.9226 19.706 49.8421 19.6572 49.7825 19.5983C49.7228 19.5394 49.6747 19.4583 49.6747 19.4188C49.6747 19.3793 49.6265 19.3469 49.5669 19.3469C49.5073 19.3469 49.4591 19.2981 49.4591 19.2392C49.4591 19.1803 49.411 19.1315 49.3513 19.1315C49.2917 19.1315 49.2436 19.0827 49.2436 19.0238C49.2436 18.9649 49.2112 18.9161 49.1717 18.9161C49.1322 18.9161 49.0517 18.8672 48.9921 18.8083C48.9324 18.7494 48.8843 18.6683 48.8843 18.6288C48.8843 18.5893 48.7873 18.557 48.6687 18.557C48.525 18.557 48.4532 18.5211 48.4532 18.4492C48.4532 18.3825 48.3856 18.3415 48.2735 18.3415C48.1615 18.3415 48.0939 18.3006 48.0939 18.2338C48.0939 18.1749 48.0458 18.1261 47.9861 18.1261C47.9265 18.1261 47.8784 18.0938 47.8784 18.0543C47.8784 18.0148 47.7979 17.9824 47.6987 17.9824C47.5866 17.9824 47.5191 17.9415 47.5191 17.8747C47.5191 17.7871 47.4034 17.767 46.9083 17.767C46.4133 17.767 46.2976 17.7469 46.2976 17.6593C46.2976 17.5817 46.2178 17.5515 46.0102 17.5515H45.7228V18.9161ZM25.0291 20.3524C25.0291 20.8149 25.0083 20.9269 24.9214 20.9269C24.8402 20.9269 24.8136 21.0145 24.8136 21.286C24.8136 21.5574 24.787 21.6451 24.7058 21.6451C24.6232 21.6451 24.598 21.737 24.598 22.0401C24.598 22.2577 24.5657 22.435 24.5262 22.435C24.4866 22.435 24.4543 22.6124 24.4543 22.83C24.4543 23.1331 24.4292 23.225 24.3465 23.225C24.2589 23.225 24.2388 23.3406 24.2388 23.8355C24.2388 24.3303 24.2186 24.4459 24.131 24.4459C24.0641 24.4459 24.0232 24.5134 24.0232 24.6254C24.0232 24.7375 23.9822 24.805 23.9154 24.805C23.8285 24.805 23.8076 24.917 23.8076 25.3795C23.8076 25.7149 23.7775 25.954 23.7358 25.954C23.6963 25.954 23.6639 26.1314 23.6639 26.349C23.6639 26.6521 23.6388 26.744 23.5561 26.744C23.4735 26.744 23.4484 26.8359 23.4484 27.139C23.4484 27.4421 23.4232 27.534 23.3406 27.534C23.258 27.534 23.2328 27.6259 23.2328 27.929C23.2328 28.1459 23.2005 28.324 23.161 28.324C23.1214 28.324 23.0891 28.5021 23.0891 28.719C23.0891 29.022 23.064 29.1139 22.9813 29.1139C22.8987 29.1139 22.8735 29.2059 22.8735 29.5089C22.8735 29.812 22.8484 29.9039 22.7658 29.9039C22.681 29.9039 22.658 30.0037 22.658 30.3707C22.658 30.7377 22.635 30.8375 22.5502 30.8375C22.4726 30.8375 22.4424 30.9172 22.4424 31.1248C22.4424 31.2828 22.4101 31.4121 22.3706 31.4121C22.3282 31.4121 22.2987 31.6634 22.2987 32.0225C22.2987 32.5173 22.2786 32.6329 22.1909 32.6329C22.1133 32.6329 22.0832 32.7126 22.0832 32.9202C22.0832 33.1277 22.053 33.2075 21.9754 33.2075C21.8899 33.2075 21.8676 33.3109 21.8676 33.7102C21.8676 34.1095 21.8453 34.2129 21.7598 34.2129C21.675 34.2129 21.652 34.3127 21.652 34.6797C21.652 34.9433 21.6204 35.1465 21.5802 35.1465C21.5378 35.1465 21.5083 35.3979 21.5083 35.7569C21.5083 36.2517 21.4882 36.3674 21.4006 36.3674C21.323 36.3674 21.2928 36.4471 21.2928 36.6546C21.2928 36.8622 21.2626 36.9419 21.185 36.9419C21.0981 36.9419 21.0772 37.0539 21.0772 37.5164C21.0772 37.8518 21.047 38.091 21.0054 38.091C20.9644 38.091 20.9335 38.3064 20.9335 38.5937C20.9335 38.993 20.9112 39.0964 20.8257 39.0964C20.741 39.0964 20.718 39.1962 20.718 39.5632C20.718 39.9302 20.695 40.03 20.6102 40.03C20.5225 40.03 20.5024 40.1456 20.5024 40.6404C20.5024 41.1352 20.4823 41.2509 20.3946 41.2509C20.3077 41.2509 20.2868 41.3629 20.2868 41.8254C20.2868 42.1608 20.2567 42.3999 20.215 42.3999C20.1733 42.3999 20.1431 42.6391 20.1431 42.9745C20.1431 43.4369 20.1223 43.549 20.0354 43.549C19.9477 43.549 19.9276 43.6646 19.9276 44.1594C19.9276 44.6542 19.9075 44.7699 19.8198 44.7699C19.7329 44.7699 19.712 44.8819 19.712 45.3444C19.712 45.6798 19.6818 45.9189 19.6402 45.9189C19.5963 45.9189 19.5683 46.2543 19.5683 46.7807C19.5683 47.4989 19.5504 47.6425 19.4605 47.6425C19.375 47.6425 19.3528 47.7459 19.3528 48.1452C19.3528 48.5445 19.3305 48.6479 19.245 48.6479C19.158 48.6479 19.1372 48.76 19.1372 49.2225C19.1372 49.685 19.1164 49.797 19.0294 49.797C18.9439 49.797 18.9216 49.9004 18.9216 50.2997C18.9216 50.587 18.8907 50.8024 18.8498 50.8024C18.8103 50.8024 18.7779 50.8505 18.7779 50.9101C18.7779 50.9697 18.7291 51.0179 18.6702 51.0179C18.6112 51.0179 18.5624 51.0502 18.5624 51.0897C18.5624 51.1292 18.4654 51.1615 18.3468 51.1615C18.2031 51.1615 18.1313 51.1974 18.1313 51.2692C18.1313 51.3288 18.0989 51.3769 18.0594 51.3769C18.0199 51.3769 17.9876 51.4251 17.9876 51.4847C17.9876 51.5787 18.4266 51.5924 21.5083 51.5924H25.0291V41.6099H28.6936C28.6936 43.3572 28.6663 43.7644 28.6218 43.7644C28.5787 43.7644 28.5499 44.0395 28.5499 44.4467C28.5499 45.0054 28.5305 45.1289 28.4421 45.1289C28.3538 45.1289 28.3344 45.2525 28.3344 45.8112C28.3344 46.3699 28.315 46.4934 28.2266 46.4934C28.1396 46.4934 28.1188 46.6055 28.1188 47.068C28.1188 47.4034 28.0886 47.6425 28.047 47.6425C28.0046 47.6425 27.9751 47.8939 27.9751 48.2529C27.9751 48.7478 27.955 48.8634 27.8673 48.8634C27.7847 48.8634 27.7595 48.9553 27.7595 49.2584V49.6534C28.205 49.6534 28.3344 49.6857 28.3344 49.7252C28.3344 49.7647 28.4156 49.797 28.514 49.797C28.6261 49.797 28.6936 49.8379 28.6936 49.9047C28.6936 49.9765 28.7655 50.0124 28.9092 50.0124C29.0529 50.0124 29.1247 50.0483 29.1247 50.1202C29.1247 50.1798 29.1736 50.2279 29.2325 50.2279C29.2914 50.2279 29.3403 50.2602 29.3403 50.2997C29.3403 50.3392 29.4215 50.3715 29.5199 50.3715C29.632 50.3715 29.6996 50.4124 29.6996 50.4792C29.6996 50.5388 29.7484 50.587 29.8074 50.587C29.8792 50.587 29.9151 50.6588 29.9151 50.8024C29.9151 50.9209 29.9475 51.0179 29.987 51.0179C30.0265 51.0179 30.0588 51.099 30.0588 51.1974C30.0588 51.2965 30.0265 51.3769 29.987 51.3769C29.9475 51.3769 29.9151 51.4251 29.9151 51.4847C29.9151 51.578 30.2227 51.5924 32.2503 51.5924C33.7593 51.5924 34.5856 51.6175 34.5856 51.6642C34.5856 51.7037 34.7638 51.736 34.9808 51.736C35.3544 51.736 35.3759 51.726 35.3759 51.5565C35.3759 51.4444 35.335 51.3769 35.2682 51.3769C35.2093 51.3769 35.1604 51.3288 35.1604 51.2692C35.1604 51.2024 35.0928 51.1615 34.9808 51.1615C34.8823 51.1615 34.8011 51.1292 34.8011 51.0897C34.8011 51.0502 34.7523 51.0179 34.6933 51.0179C34.6344 51.0179 34.5856 50.9697 34.5856 50.9101C34.5856 50.8505 34.5367 50.8024 34.4778 50.8024C34.4189 50.8024 34.37 50.7543 34.37 50.6947C34.37 50.6351 34.3377 50.587 34.2982 50.587C34.2586 50.587 34.2263 50.5058 34.2263 50.4074C34.2263 50.2954 34.1853 50.2279 34.1185 50.2279C34.0301 50.2279 34.0107 50.1044 34.0107 49.5456C34.0107 48.9869 33.9913 48.8634 33.903 48.8634C33.8153 48.8634 33.7952 48.7478 33.7952 48.2529C33.7952 47.7581 33.7751 47.6425 33.6874 47.6425C33.599 47.6425 33.5796 47.519 33.5796 46.9602C33.5796 46.553 33.5509 46.278 33.5078 46.278C33.4647 46.278 33.4359 45.9785 33.4359 45.5239C33.4359 44.9013 33.4172 44.7699 33.3281 44.7699C33.2369 44.7699 33.2204 44.6025 33.2204 43.6926C33.2204 42.7827 33.2038 42.6154 33.1126 42.6154C33.0249 42.6154 33.0048 42.4997 33.0048 42.0049C33.0048 41.6459 32.9753 41.3945 32.933 41.3945C32.8891 41.3945 32.8611 41.0835 32.8611 40.6045C32.8611 39.9503 32.8424 39.8145 32.7533 39.8145C32.6685 39.8145 32.6455 39.7147 32.6455 39.3477C32.6455 38.9808 32.6225 38.8809 32.5378 38.8809C32.4523 38.8809 32.43 38.7775 32.43 38.3782C32.43 37.9789 32.4077 37.8755 32.3222 37.8755C32.2374 37.8755 32.2144 37.7757 32.2144 37.4087C32.2144 37.1451 32.1828 36.9419 32.1426 36.9419C32.0995 36.9419 32.0707 36.6668 32.0707 36.2596C32.0707 35.7009 32.0513 35.5774 31.9629 35.5774C31.8832 35.5774 31.8552 35.4934 31.8552 35.2542C31.8552 35.0151 31.8271 34.931 31.7474 34.931C31.6662 34.931 31.6396 34.8434 31.6396 34.572C31.6396 34.3005 31.613 34.2129 31.5318 34.2129C31.4434 34.2129 31.424 34.0894 31.424 33.5306C31.424 33.1234 31.3953 32.8484 31.3522 32.8484C31.3127 32.8484 31.2803 32.6703 31.2803 32.4534C31.2803 32.1503 31.2552 32.0584 31.1726 32.0584C31.0871 32.0584 31.0648 31.955 31.0648 31.5557C31.0648 31.1564 31.0425 31.053 30.957 31.053C30.8744 31.053 30.8492 30.9611 30.8492 30.658C30.8492 30.4411 30.8169 30.263 30.7774 30.263C30.7371 30.263 30.7055 30.0598 30.7055 29.7962C30.7055 29.4292 30.6825 29.3294 30.5977 29.3294C30.5151 29.3294 30.49 29.2375 30.49 28.9344C30.49 28.6313 30.4648 28.5394 30.3822 28.5394C30.2967 28.5394 30.2744 28.436 30.2744 28.0367C30.2744 27.6374 30.2521 27.534 30.1666 27.534C30.084 27.534 30.0588 27.4421 30.0588 27.139C30.0588 26.9221 30.0265 26.744 29.987 26.744C29.9453 26.744 29.9151 26.5049 29.9151 26.1695C29.9151 25.707 29.8943 25.595 29.8074 25.595C29.7297 25.595 29.6996 25.5152 29.6996 25.3077C29.6996 25.1001 29.6694 25.0204 29.5918 25.0204C29.5063 25.0204 29.484 24.917 29.484 24.5177C29.484 24.2304 29.4531 24.015 29.4122 24.015C29.3719 24.015 29.3403 23.8118 29.3403 23.5482C29.3403 23.1812 29.3173 23.0814 29.2325 23.0814C29.147 23.0814 29.1247 22.978 29.1247 22.5787C29.1247 22.1794 29.1025 22.076 29.017 22.076C28.9343 22.076 28.9092 21.984 28.9092 21.681C28.9092 21.3779 28.884 21.286 28.8014 21.286C28.7145 21.286 28.6936 21.1739 28.6936 20.7115C28.6936 20.3761 28.6635 20.1369 28.6218 20.1369C28.5823 20.1369 28.5499 20.0077 28.5499 19.8497V19.5624C25.5048 19.5674 25.193 19.5868 25.1189 19.673C25.0636 19.7376 25.0291 19.9969 25.0291 20.3524ZM45.7228 21.0705C46.4212 21.0705 46.5131 21.0957 46.5131 21.1783C46.5131 21.2371 46.5613 21.286 46.6209 21.286C46.6806 21.286 46.7287 21.3183 46.7287 21.3578C46.7287 21.3973 46.7768 21.4785 46.8365 21.5373C46.8961 21.5962 46.9766 21.6451 47.0161 21.6451C47.0556 21.6451 47.088 21.6939 47.088 21.7528C47.088 21.8117 47.1361 21.8605 47.1957 21.8605C47.2676 21.8605 47.3035 21.9323 47.3035 22.076C47.3035 22.2196 47.3395 22.2914 47.4113 22.2914C47.4781 22.2914 47.5191 22.3589 47.5191 22.4709C47.5191 22.5693 47.5514 22.6505 47.5909 22.6505C47.6305 22.6505 47.6628 22.7474 47.6628 22.8659V23.0814H48.8843C48.8843 22.3833 48.8591 22.2914 48.7765 22.2914C48.7047 22.2914 48.6687 22.2196 48.6687 22.076C48.6687 21.9323 48.6328 21.8605 48.561 21.8605C48.4834 21.8605 48.4532 21.7808 48.4532 21.5732C48.4532 21.3657 48.423 21.286 48.3454 21.286C48.2858 21.286 48.2376 21.2537 48.2376 21.2142C48.2376 21.1747 48.1895 21.0935 48.1298 21.0346C48.0702 20.9757 47.9897 20.9269 47.9502 20.9269C47.9107 20.9269 47.8784 20.8781 47.8784 20.8192C47.8784 20.7603 47.8302 20.7115 47.7706 20.7115C47.7109 20.7115 47.6628 20.6626 47.6628 20.6037C47.6628 20.5448 47.6305 20.496 47.5909 20.496C47.5514 20.496 47.5191 20.4472 47.5191 20.3883C47.5191 20.3294 47.4709 20.2806 47.4113 20.2806C47.3517 20.2806 47.3035 20.2482 47.3035 20.2087C47.3035 20.1692 47.2065 20.1369 47.088 20.1369C46.9443 20.1369 46.8724 20.101 46.8724 20.0292C46.8724 19.9516 46.7927 19.9215 46.585 19.9215C46.3773 19.9215 46.2976 19.8913 46.2976 19.8138C46.2976 19.7362 46.2178 19.706 46.0102 19.706H45.7228V21.0705ZM42.202 24.015C42.0583 24.015 41.9864 24.0509 41.9864 24.1227C41.9864 24.1895 41.9189 24.2304 41.8068 24.2304C41.6947 24.2304 41.6272 24.2714 41.6272 24.3382C41.6272 24.3971 41.5783 24.4459 41.5194 24.4459C41.4525 24.4459 41.4116 24.5134 41.4116 24.6254C41.4116 24.7238 41.3793 24.805 41.3397 24.805C41.3002 24.805 41.2679 24.9824 41.2679 25.2C41.2679 25.503 41.2427 25.595 41.1601 25.595C41.0825 25.595 41.0523 25.6747 41.0523 25.8822C41.0523 26.0898 41.0825 26.1695 41.1601 26.1695C41.2427 26.1695 41.2679 26.2614 41.2679 26.5645C41.2679 26.7814 41.3002 26.9595 41.3397 26.9595C41.3793 26.9595 41.4116 27.0083 41.4116 27.0672C41.4116 27.1261 41.4605 27.1749 41.5194 27.1749C41.5783 27.1749 41.6272 27.2072 41.6272 27.2467C41.6272 27.2862 41.7083 27.3185 41.8068 27.3185C41.9189 27.3185 41.9864 27.3595 41.9864 27.4263C41.9864 27.4981 42.0583 27.534 42.202 27.534H42.4175C42.4175 28.571 42.3967 28.683 42.3098 28.683C42.2508 28.683 42.202 28.7319 42.202 28.7908C42.202 28.8497 42.1531 28.8985 42.0942 28.8985C42.0223 28.8985 41.9864 28.9703 41.9864 29.1139C41.9864 29.2324 41.9541 29.3294 41.9146 29.3294C41.875 29.3294 41.8427 29.4098 41.8427 29.5089C41.8427 29.621 41.8018 29.6885 41.7349 29.6885C41.6681 29.6885 41.6272 29.756 41.6272 29.868C41.6272 29.98 41.5862 30.0476 41.5194 30.0476C41.4475 30.0476 41.4116 30.1194 41.4116 30.263C41.4116 30.3815 41.3793 30.4784 41.3397 30.4784C41.293 30.4784 41.2679 31.5679 41.2679 33.6024C41.2679 36.3315 41.2542 36.7264 41.1601 36.7264C41.0703 36.7264 41.0523 36.8701 41.0523 37.5882C41.0523 38.3064 41.0703 38.45 41.1601 38.45C41.2514 38.45 41.2679 38.6296 41.2679 39.635C41.2679 40.3769 41.2945 40.82 41.3397 40.82C41.3864 40.82 41.4116 41.9453 41.4116 44.0517C41.4116 46.8762 41.4252 47.2834 41.5194 47.2834C41.6128 47.2834 41.6272 47.5786 41.6272 49.5097V51.736H46.2976C46.2976 51.4444 46.3385 51.3769 46.4054 51.3769C46.4722 51.3769 46.5131 51.3094 46.5131 51.1974C46.5131 51.0854 46.4722 51.0179 46.4054 51.0179C46.3335 51.0179 46.2976 50.946 46.2976 50.8024C46.2976 50.6207 46.2696 50.587 46.118 50.587C46.0059 50.587 45.9383 50.546 45.9383 50.4792C45.9383 50.4196 45.8902 50.3715 45.8305 50.3715C45.7709 50.3715 45.7228 50.3392 45.7228 50.2997C45.7228 50.2602 45.6746 50.2279 45.615 50.2279C45.5553 50.2279 45.5072 50.1798 45.5072 50.1202C45.5072 50.0426 45.4274 50.0124 45.2198 50.0124C45.0121 50.0124 44.9324 49.9823 44.9324 49.9047C44.9324 49.8379 44.8648 49.797 44.7528 49.797C44.6543 49.797 44.5731 49.7647 44.5731 49.7252C44.5731 49.6857 44.4761 49.6534 44.3576 49.6534C44.1442 49.6534 44.142 49.649 44.142 49.2584C44.142 48.9553 44.1671 48.8634 44.2498 48.8634C44.3353 48.8634 44.3576 48.76 44.3576 48.3607C44.3576 47.9614 44.3798 47.8579 44.4653 47.8579C44.5523 47.8579 44.5731 47.7459 44.5731 47.2834C44.5731 46.8209 44.594 46.7089 44.6809 46.7089C44.7722 46.7089 44.7887 46.5416 44.7887 45.6316C44.7887 44.9616 44.816 44.5544 44.8605 44.5544C44.9 44.5544 44.9324 44.4251 44.9324 44.2671C44.9324 44.0596 44.9626 43.9799 45.0402 43.9799C45.1321 43.9799 45.1479 43.7802 45.1479 42.6154C45.1479 41.4505 45.1637 41.2509 45.2557 41.2509C45.3463 41.2509 45.3635 41.0914 45.3635 40.2454C45.3635 39.6228 45.3908 39.24 45.4354 39.24C45.477 39.24 45.5072 39.0009 45.5072 38.6655C45.5072 38.203 45.528 38.091 45.615 38.091C45.7084 38.091 45.7228 37.7721 45.7228 35.6492C45.7228 33.5263 45.7084 33.2075 45.615 33.2075C45.5324 33.2075 45.5072 33.1155 45.5072 32.8125C45.5072 32.5956 45.4749 32.4175 45.4354 32.4175C45.3958 32.4175 45.3635 32.2394 45.3635 32.0225C45.3635 31.7194 45.3384 31.6275 45.2557 31.6275C45.1731 31.6275 45.1479 31.5356 45.1479 31.2325C45.1479 30.9295 45.1228 30.8375 45.0402 30.8375C44.9733 30.8375 44.9324 30.77 44.9324 30.658C44.9324 30.5589 44.9 30.4784 44.8605 30.4784C44.821 30.4784 44.7887 30.3492 44.7887 30.1912C44.7887 29.9836 44.7585 29.9039 44.6809 29.9039C44.609 29.9039 44.5731 29.8321 44.5731 29.6885C44.5731 29.5448 44.5372 29.473 44.4653 29.473C44.3877 29.473 44.3576 29.3933 44.3576 29.1858C44.3576 28.9782 44.3274 28.8985 44.2498 28.8985C44.1628 28.8985 44.142 28.7865 44.142 28.324C44.142 27.8615 44.1628 27.7494 44.2498 27.7494C44.3087 27.7494 44.3576 27.7006 44.3576 27.6417C44.3576 27.5828 44.4064 27.534 44.4653 27.534C44.5243 27.534 44.5731 27.4852 44.5731 27.4263C44.5731 27.3674 44.6076 27.3185 44.65 27.3185C44.6924 27.3185 44.7736 27.2697 44.8296 27.2108C44.8864 27.1519 44.9324 27.0708 44.9324 27.0313C44.9324 26.9918 44.9805 26.9595 45.0402 26.9595C45.0998 26.9595 45.1479 26.9106 45.1479 26.8517C45.1479 26.7849 45.2155 26.744 45.3276 26.744C45.4397 26.744 45.5072 26.7031 45.5072 26.6363C45.5072 26.5774 45.5553 26.5286 45.615 26.5286C45.6926 26.5286 45.7228 26.4488 45.7228 26.2413C45.7228 26.0833 45.6904 25.954 45.6509 25.954C45.6114 25.954 45.5309 25.9052 45.4713 25.8463C45.4116 25.7874 45.3635 25.7063 45.3635 25.6668C45.3635 25.6273 45.3154 25.595 45.2557 25.595C45.1961 25.595 45.1479 25.5461 45.1479 25.4872C45.1479 25.4283 45.0998 25.3795 45.0402 25.3795C44.9805 25.3795 44.9324 25.3307 44.9324 25.2718C44.9324 25.2129 44.9 25.1641 44.8605 25.1641C44.821 25.1641 44.7887 25.0829 44.7887 24.9845C44.7887 24.8725 44.7477 24.805 44.6809 24.805C44.6033 24.805 44.5731 24.7253 44.5731 24.5177C44.5731 24.3102 44.5429 24.2304 44.4653 24.2304C44.4064 24.2304 44.3576 24.1816 44.3576 24.1227C44.3576 24.0638 44.3087 24.015 44.2498 24.015C44.1909 24.015 44.142 23.9662 44.142 23.9073C44.142 23.8175 43.9983 23.7995 43.2798 23.7995C42.5612 23.7995 42.4175 23.8175 42.4175 23.9073C42.4175 23.9791 42.3457 24.015 42.202 24.015V24.015ZM37.5315 49.6534C37.413 49.6534 37.316 49.6857 37.316 49.7252C37.316 49.7647 37.2671 49.797 37.2082 49.797C37.1205 49.797 37.1004 49.9126 37.1004 50.4074C37.1004 50.9022 37.1205 51.0179 37.2082 51.0179C37.2671 51.0179 37.316 51.0502 37.316 51.0897C37.316 51.1292 37.413 51.1615 37.5315 51.1615C37.6752 51.1615 37.7471 51.1974 37.7471 51.2692C37.7471 51.3468 37.8269 51.3769 38.0345 51.3769C38.2422 51.3769 38.3219 51.3468 38.3219 51.2692C38.3219 51.2024 38.3895 51.1615 38.5015 51.1615C38.6007 51.1615 38.6812 51.1292 38.6812 51.0897C38.6812 51.0502 38.73 51.0179 38.789 51.0179C38.8766 51.0179 38.8967 50.9022 38.8967 50.4074C38.8967 49.9126 38.8766 49.797 38.789 49.797C38.73 49.797 38.6812 49.7647 38.6812 49.7252C38.6812 49.6857 38.6007 49.6534 38.5015 49.6534C38.3895 49.6534 38.3219 49.6124 38.3219 49.5456C38.3219 49.4681 38.2422 49.4379 38.0345 49.4379C37.8269 49.4379 37.7471 49.4681 37.7471 49.5456C37.7471 49.6174 37.6752 49.6534 37.5315 49.6534Z" fill="#136CC8" fill-opacity="0.98"/>
<path d="M25.9992 23.7999C26.2169 23.7999 26.3944 23.7676 26.3944 23.7281C26.3944 23.6878 26.5977 23.6562 26.8614 23.6562C27.1251 23.6562 27.3284 23.6878 27.3284 23.7281C27.3284 23.7676 27.4254 23.7999 27.544 23.7999C27.6877 23.7999 27.7596 23.8358 27.7596 23.9076C27.7596 23.9665 27.8084 24.0153 27.8673 24.0153C27.9263 24.0153 27.9751 24.0642 27.9751 24.1231C27.9751 24.1819 28.0075 24.2308 28.047 24.2308C28.0865 24.2308 28.1188 24.36 28.1188 24.518C28.1188 24.7256 28.149 24.8053 28.2266 24.8053C28.2855 24.8053 28.3344 24.8541 28.3344 24.913C28.3344 24.9719 28.3667 25.0208 28.4062 25.0208C28.4458 25.0208 28.527 25.0696 28.5859 25.1285C28.6448 25.1874 28.6937 25.3166 28.6937 25.4157C28.6937 25.5673 28.7274 25.5953 28.9092 25.5953C29.091 25.5953 29.1248 25.6233 29.1248 25.7748C29.1248 25.8869 29.1657 25.9544 29.2325 25.9544C29.3044 25.9544 29.3403 26.0262 29.3403 26.1698C29.3403 26.3134 29.3044 26.3853 29.2325 26.3853C29.1657 26.3853 29.1248 26.4528 29.1248 26.5648C29.1248 26.7163 29.091 26.7443 28.9092 26.7443C28.7174 26.7443 28.6937 26.768 28.6937 26.9598C28.6937 27.1415 28.6656 27.1752 28.514 27.1752C28.4156 27.1752 28.3344 27.2076 28.3344 27.2471C28.3344 27.2866 28.2855 27.3189 28.2266 27.3189C28.1677 27.3189 28.1188 27.3677 28.1188 27.4266C28.1188 27.4855 28.0865 27.5343 28.047 27.5343C28.0075 27.5343 27.9751 27.5832 27.9751 27.642C27.9751 27.7009 27.9263 27.7498 27.8673 27.7498C27.7804 27.7498 27.7596 27.8618 27.7596 28.3243C27.7596 28.7868 27.7804 28.8988 27.8673 28.8988C27.9449 28.8988 27.9751 28.9785 27.9751 29.1861C27.9751 29.3441 28.0075 29.4734 28.047 29.4734C28.0865 29.4734 28.1188 29.5703 28.1188 29.6888C28.1188 29.8324 28.1548 29.9043 28.2266 29.9043C28.2934 29.9043 28.3344 29.9718 28.3344 30.0838C28.3344 30.1958 28.3753 30.2633 28.4422 30.2633C28.514 30.2633 28.5499 30.3351 28.5499 30.4788C28.5499 30.5973 28.5823 30.6942 28.6218 30.6942C28.662 30.6942 28.6937 30.8975 28.6937 31.161C28.6937 31.528 28.7166 31.6278 28.8014 31.6278C28.879 31.6278 28.9092 31.7076 28.9092 31.9151C28.9092 32.1227 28.9394 32.2024 29.017 32.2024C29.1068 32.2024 29.1248 32.3503 29.1248 33.1001C29.1248 33.8498 29.1427 33.9978 29.2325 33.9978C29.3245 33.9978 29.3403 34.1852 29.3403 35.2546C29.3403 36.3239 29.3245 36.5113 29.2325 36.5113C29.1442 36.5113 29.1248 36.6349 29.1248 37.8758H24.4543V37.5886C24.4543 37.4306 24.4867 37.3013 24.5262 37.3013C24.5707 37.3013 24.598 36.8941 24.598 36.2241C24.598 35.3142 24.6146 35.1468 24.7058 35.1468C24.7985 35.1468 24.8136 34.9271 24.8136 33.6028C24.8136 32.2785 24.7985 32.0587 24.7058 32.0587C24.6182 32.0587 24.598 31.9431 24.598 31.4483C24.598 30.9535 24.6182 30.8379 24.7058 30.8379C24.7834 30.8379 24.8136 30.7581 24.8136 30.5506C24.8136 30.343 24.8438 30.2633 24.9214 30.2633C24.999 30.2633 25.0292 30.1836 25.0292 29.9761C25.0292 29.8181 25.0615 29.6888 25.101 29.6888C25.1405 29.6888 25.1729 29.6084 25.1729 29.5093C25.1729 29.3972 25.2138 29.3297 25.2806 29.3297C25.3396 29.3297 25.3884 29.2809 25.3884 29.222C25.3884 29.1631 25.4373 29.1143 25.4962 29.1143C25.5681 29.1143 25.604 29.0425 25.604 28.8988C25.604 28.7803 25.6385 28.6834 25.6809 28.6834C25.7233 28.6834 25.8044 28.6345 25.8605 28.5757C25.9216 28.5117 25.9632 28.3221 25.9632 28.1088C25.9632 27.9114 25.9309 27.7498 25.8914 27.7498C25.8519 27.7498 25.8195 27.7009 25.8195 27.642C25.8195 27.5702 25.7477 27.5343 25.604 27.5343C25.4603 27.5343 25.3884 27.4984 25.3884 27.4266C25.3884 27.3677 25.3561 27.3189 25.3166 27.3189C25.277 27.3189 25.1959 27.27 25.1369 27.2111C25.078 27.1523 25.0292 27.0711 25.0292 27.0316C25.0292 26.9921 24.9803 26.9598 24.9214 26.9598C24.8625 26.9598 24.8136 26.911 24.8136 26.8521C24.8136 26.7932 24.7647 26.7443 24.7058 26.7443C24.6153 26.7443 24.598 26.5885 24.598 25.7748C24.598 24.9611 24.6153 24.8053 24.7058 24.8053C24.7726 24.8053 24.8136 24.7378 24.8136 24.6258C24.8136 24.5137 24.8546 24.4462 24.9214 24.4462C24.9803 24.4462 25.0292 24.3974 25.0292 24.3385C25.0292 24.2717 25.0967 24.2308 25.2088 24.2308C25.3209 24.2308 25.3884 24.1898 25.3884 24.1231C25.3884 24.0642 25.4373 24.0153 25.4962 24.0153C25.5551 24.0153 25.604 23.9665 25.604 23.9076C25.604 23.825 25.6959 23.7999 25.9992 23.7999Z" fill="#136CC8" fill-opacity="0.98"/>
</svg>
