<svg width="70" height="70" viewBox="0 0 70 70" fill="none" xmlns="http://www.w3.org/2000/svg">
<path d="M40.1056 42.7383C38.7225 44.6015 38.4841 45.7959 40.821 45.7003C49.2628 45.127 56.8937 42.165 64 39.1074C59.183 42.4516 34.3347 54.873 34.3347 46.3691C34.4301 45.127 34.9071 43.9326 35.6702 42.9294C36.5763 41.5917 37.5779 40.3496 38.6748 39.1552C40.3441 37.1965 44.5411 32.5623 45.9719 29.7436C46.2104 29.2659 46.3535 28.7881 46.4488 28.2626C46.6396 25.6828 43.4442 24.6795 38.5794 23.3419L37.6256 23.9152L39.4379 25.3962C32.9993 26.4472 26.7038 28.1671 20.5991 30.4125L21.4098 32.5146L18.4529 35.4288C22.316 36.6709 26.5607 35.811 29.7085 33.1834C29.3746 32.6579 28.9454 32.2757 28.4208 32.0368C29.3269 32.0368 30.1377 32.5146 30.6147 33.2789C30.9485 33.8045 31.0916 34.3778 31.0439 34.9988H30.1377C30.1377 34.6644 30.1377 34.2822 30.0423 33.9478C26.3699 37.0531 21.3621 37.8653 16.9267 36.1454V39.8718C14.9235 40.5884 11.3942 42.7861 11.3942 44.9359C11.4419 45.6525 11.8712 46.2736 12.4912 46.608C16.9744 49.1878 29.2792 45.6525 29.2792 45.6525C24.8438 47.8979 20.5514 49.7611 14.0174 50C5.48026 49.8089 4.14485 44.076 8.19878 38.1042C12.0142 32.0846 18.0713 26.5905 27.7531 23.1985C31.2347 21.9086 34.9071 21.1442 38.6271 21.0009C44.3503 20.9531 49.8828 22.7686 49.5012 28.2626C49.3105 32.5146 43.3011 38.4386 40.1056 42.7383Z" fill="#FF6A00"/>
</svg>
