<svg width="70" height="70" viewBox="0 0 70 70" fill="none" xmlns="http://www.w3.org/2000/svg">
<path fill-rule="evenodd" clip-rule="evenodd" d="M4.50128 27.8204C4.71929 26.7085 5.69383 25.9065 6.82687 25.9065H64.6293C66.1212 25.9065 67.242 27.2684 66.9549 28.7324L64.4988 41.2589C64.2808 42.3707 63.3062 43.1727 62.1732 43.1727H4.3707C2.87884 43.1727 1.75805 41.8108 2.0451 40.3469L4.50128 27.8204ZM53.6668 33.9872H53.9927C54.1286 33.9872 54.243 33.9708 54.3362 33.9381C54.4332 33.9021 54.5205 33.8449 54.5981 33.7664L57.0312 31.2644C57.1282 31.1565 57.233 31.0845 57.3455 31.0486C57.4619 31.0093 57.5958 30.9897 57.7471 30.9897H59.0452L56.0649 33.9577C55.9796 34.0493 55.8942 34.1262 55.8088 34.1883C55.7234 34.2472 55.6342 34.2946 55.5411 34.3306C55.6536 34.3698 55.7525 34.4238 55.8379 34.4925C55.9272 34.5579 56.0048 34.6478 56.0708 34.7623L58.2128 38.0835H56.8798C56.7906 38.0835 56.7149 38.0786 56.6528 38.0688C56.5907 38.0557 56.5364 38.0394 56.4898 38.0198C56.4472 37.9969 56.4103 37.9707 56.3793 37.9413C56.3521 37.9086 56.3269 37.8726 56.3036 37.8333L54.569 35.1891C54.5185 35.1008 54.4487 35.0387 54.3594 35.0027C54.2741 34.9667 54.148 34.9487 53.9811 34.9487H53.5271L53.0731 38.0835H51.5713L52.5958 30.9848H54.1092L53.6668 33.9872ZM47.4428 34.0216L47.7397 32.0053H51.1216L51.2729 30.9897H46.366L45.3299 38.0836H50.2426L50.394 37.0681H46.9946L47.2973 34.9978H49.9574L50.1029 34.0216H47.4428ZM45.142 32.0347H42.8428L41.9581 38.0836H40.4563L41.3294 32.0347H39.0186L39.1699 30.9897H45.2992L45.142 32.0347ZM37.0771 38.0836L38.1132 30.9897H36.7802L36.1225 35.508C36.1108 35.5832 36.0992 35.6666 36.0875 35.7582C36.0798 35.8465 36.072 35.9397 36.0642 36.0379L32.7872 31.1958C32.7561 31.15 32.727 31.114 32.6998 31.0879C32.6727 31.0617 32.6416 31.0421 32.6067 31.029C32.5718 31.0126 32.531 31.0028 32.4845 30.9996C32.4418 30.993 32.3875 30.9897 32.3215 30.9897H31.5299L30.4938 38.0836H31.8267L32.4903 33.4574C32.4981 33.392 32.5058 33.3233 32.5136 33.2513C32.5213 33.1761 32.5291 33.0976 32.5369 33.0159L35.7965 37.8628C35.8625 37.9413 35.9323 37.9986 36.006 38.0345C36.0837 38.0672 36.1807 38.0836 36.2971 38.0836H37.0771ZM26.6622 32.0053L26.3653 34.0216H29.0254L28.8799 34.9978H26.2198L25.9171 37.0681H29.3164L29.1651 38.0836H24.2524L25.2885 30.9897H30.1954L30.044 32.0053H26.6622ZM20.9668 38.0836H22.4861L23.5105 30.9897H21.9913L20.9668 38.0836ZM20.06 37.0288L19.9144 38.0836H15.3393L16.3754 30.9897H17.883L16.9982 37.0288H20.06ZM11.7085 32.9865L12.2789 35.4149H9.83417L11.1089 32.9914C11.1671 32.8769 11.2331 32.7461 11.3068 32.5989C11.3806 32.4517 11.4562 32.2915 11.5338 32.1181C11.5649 32.2915 11.5959 32.4517 11.627 32.5989L11.7085 32.9865ZM13.3033 38.0836H14.4733L12.4652 30.9898H10.9227L6.85394 38.0836H8.04137C8.16555 38.0836 8.27421 38.0542 8.36734 37.9953C8.46435 37.9365 8.5342 37.8694 8.57689 37.7942L9.35687 36.3126H12.4943L12.8435 37.7942C12.8745 37.8792 12.925 37.9495 12.9948 38.0051C13.0686 38.0575 13.1714 38.0836 13.3033 38.0836Z" fill="#00A1E9"/>
</svg>
