<svg width="90" height="90" viewBox="0 0 90 90" fill="none" xmlns="http://www.w3.org/2000/svg">
<path d="M21.4439 35.3051C24.9236 26.807 30.895 22 38.4988 22C42.3866 22 49.7542 22 49.7542 22C48.5083 22 46.747 22.1073 43.7184 28.8672C42.5585 31.4638 30.4224 57.9024 28.3604 62.2373C26.5776 65.9714 23.6134 68.9757 19.0167 68.9757C16.4606 68.9757 11.1766 68.9757 6 68.9757L21.4439 35.3051Z" fill="#E42314"/>
<path d="M68.1845 56.293C65.478 62.7095 58.9911 68.9758 52.8909 68.9758C50.4637 68.9758 46.1678 68.9758 40.7119 68.9758C43.8694 68.9758 46.8766 61.2502 46.8766 61.2502C46.8766 61.2502 60.5806 31.0346 61.8694 28.2878C63.6093 24.5323 67.1749 22.0215 70.805 22.0215C73.3611 22.0215 84.1009 22.0215 84.1009 22.0215L68.1845 56.293Z" fill="#E42314"/>
<path d="M53.965 45.6274C55.7693 41.6787 57.595 37.6443 59.0557 34.4467C57.8743 31.8501 56.8647 29.6397 56.5211 28.8672C54.9101 25.2404 53.4924 22 49.6261 22C48.681 22 47.4566 22.1931 45.6309 25.1546C45.6523 27.5796 46.5115 29.2964 47.6499 31.6355C48.7025 33.8029 51.4948 40.0907 53.965 45.6274Z" fill="url(#paint0_linear_2216_2953)"/>
<path d="M45.0282 65.006C45.2 63.4823 44.7919 62.1733 44.3194 61.229C42.6654 57.9457 38.7346 50.4132 36.1356 45.4131C34.3098 49.4046 32.4626 53.3962 31.002 56.5508C32.8277 60.1775 34.4387 63.3106 35.0831 64.5339C36.6511 67.4953 38.9494 68.9117 40.7537 68.9546C42.3218 68.9331 43.8683 66.9588 45.0282 65.006Z" fill="url(#paint1_linear_2216_2953)"/>
<defs>
<linearGradient id="paint0_linear_2216_2953" x1="52.3327" y1="45.6236" x2="52.3327" y2="22.0021" gradientUnits="userSpaceOnUse">
<stop offset="0.17" stop-color="#C5220E"/>
<stop offset="0.4139" stop-color="#C2220D"/>
<stop offset="0.6098" stop-color="#B8200B"/>
<stop offset="0.7891" stop-color="#A71F08"/>
<stop offset="0.9574" stop-color="#8F1C03"/>
<stop offset="1" stop-color="#881B02"/>
</linearGradient>
<linearGradient id="paint1_linear_2216_2953" x1="38.0248" y1="45.4273" x2="38.0248" y2="68.9721" gradientUnits="userSpaceOnUse">
<stop offset="0.17" stop-color="#C5220E"/>
<stop offset="0.4139" stop-color="#C2220D"/>
<stop offset="0.6098" stop-color="#B8200B"/>
<stop offset="0.7891" stop-color="#A71F08"/>
<stop offset="0.9574" stop-color="#8F1C03"/>
<stop offset="1" stop-color="#881B02"/>
</linearGradient>
</defs>
</svg>
