<svg width="90" height="90" viewBox="0 0 90 90" fill="none" xmlns="http://www.w3.org/2000/svg">
<path fill-rule="evenodd" clip-rule="evenodd" d="M63.0029 57.8137C60.4607 60.6378 57.3424 63.2049 53.7157 65.3085C39.6471 73.4784 23.3919 71.6494 17.4058 61.2222C11.4197 50.795 17.9744 35.7198 32.0429 27.5498C45.1322 19.9492 60.115 21.0073 66.9552 29.5929H69.8155C69.7028 29.3788 69.5951 29.1621 69.4749 28.9505C62.78 17.2863 44.5912 15.2407 28.8545 24.3806C13.1153 33.5179 5.78424 50.3844 12.4792 62.0511C19.1741 73.7152 37.3603 75.7609 53.0995 66.621C57.3349 64.1622 60.9566 61.1391 63.862 57.8137H63.0029Z" fill="#0A5BA9"/>
<path d="M41.7179 47.7101V38.7237L36.7249 47.7101H41.7179ZM34.3093 52.028L31.4474 57.0781H23.9775L35.4864 37.767C36.1419 36.6784 36.7835 35.8339 37.4083 35.2251C38.0331 34.6162 38.6105 34.1673 39.1405 33.8671C39.6705 33.5697 40.1251 33.3874 40.5073 33.3228C40.8894 33.2583 41.1544 33.2274 41.305 33.2274H48.1696V57.0781H41.5895V52.028H34.3093Z" fill="#0A5BA9"/>
<path d="M74.7119 33.3137L69.9476 47.3008L67.688 33.8538L57.7686 47.8971L61.3815 33.3137H56.2135L50.4097 56.565L54.3405 56.3663C54.4693 56.349 57.5366 55.9212 59.7963 52.836C60.0455 52.4946 62.4512 49.6946 64.5348 47.2749C64.9858 48.8607 65.5787 51.0125 65.8923 52.5119C66.7643 55.9385 69.8188 57.0533 71.3095 57.1613L72.2374 57.2305L80.0002 33.3137H74.7119Z" fill="#0A5BA9"/>
</svg>
