<svg width="90" height="90" viewBox="0 0 90 90" fill="none" xmlns="http://www.w3.org/2000/svg">
<path d="M67.4219 72.9937H21.6912C15.2355 72.9937 11.0302 66.1986 13.9218 60.4217L36.7839 21.392C39.9835 14.9865 49.1233 14.9865 52.3229 21.392L75.1851 60.4217C78.0704 66.1986 73.8713 72.9937 67.4156 72.9937H67.4219Z" fill="url(#paint0_linear_154_24)"/>
<path d="M52.3234 21.392C49.1238 14.9865 39.984 14.9865 36.7844 21.392L13.9222 60.4217C11.0935 66.0728 15.06 72.6983 21.2831 72.9812C23.8478 72.912 26.2113 71.5857 27.5943 69.417L46.578 39.6779C48.3192 36.9498 51.3365 35.2966 54.5738 35.2966C57.0882 35.2966 59.502 36.2961 61.2809 38.075L63.2422 40.0362L52.3234 21.392Z" fill="url(#paint1_linear_154_24)"/>
<path d="M75.1923 60.4217L74.8278 59.7993C73.734 57.9324 72.3888 56.2289 70.8299 54.7265C69.4658 53.4128 67.6491 52.6836 65.7571 52.6836C63.5067 52.6836 61.3757 53.7208 59.9865 55.4997L49.6712 68.7066C47.6911 71.2399 44.655 72.7234 41.4365 72.7234L41.4805 72.9999H67.4166C73.8723 72.9999 78.0776 66.2048 75.1861 60.4279L75.1923 60.4217Z" fill="#01AFC8"/>
<defs>
<linearGradient id="paint0_linear_154_24" x1="34.653" y1="46.0268" x2="65.0584" y2="70.6113" gradientUnits="userSpaceOnUse">
<stop stop-color="#0479B8"/>
<stop offset="0.38" stop-color="#086594"/>
<stop offset="0.88" stop-color="#0F4961"/>
</linearGradient>
<linearGradient id="paint1_linear_154_24" x1="18.5047" y1="35.8058" x2="61.3312" y2="62.1064" gradientUnits="userSpaceOnUse">
<stop stop-color="#0479B8"/>
<stop offset="0.2" stop-color="#086194"/>
<stop offset="0.61" stop-color="#142941"/>
</linearGradient>
</defs>
</svg>
