<svg width="70" height="70" viewBox="0 0 70 70" fill="none" xmlns="http://www.w3.org/2000/svg">
<path d="M41.8345 28.6252C43.8319 30.6062 45.8271 32.5882 47.83 34.5636C47.9835 34.715 47.9879 34.8817 47.9879 35.0627C47.989 38.9379 47.9879 42.812 47.9956 46.6872C47.9956 47.0009 47.8958 47.0875 47.5843 47.0854C45.7569 47.0733 43.9284 47.0722 42.1011 47.0908C41.7358 47.0952 41.6821 46.9504 41.6941 46.6378C41.7161 46.0598 41.7007 45.4806 41.7007 44.7743C40.9241 45.4664 40.2013 46.0346 39.3809 46.4612C35.3346 48.5628 30.0444 47.953 26.5169 44.9783C20.6213 40.0084 20.097 31.069 25.419 25.5025C27.9121 22.8942 31.0129 21.6766 34.6337 21.8061C34.9507 21.817 35.1689 21.9278 35.3905 22.1505C37.4515 24.2235 39.5235 26.2845 41.5921 28.3499C41.6733 28.4421 41.7545 28.5342 41.8356 28.6263L41.8345 28.6252ZM34.8695 27.8289C30.855 27.8399 28.0306 30.7279 28.0415 34.8104C28.0525 38.7832 30.9592 41.6932 34.8947 41.6713C38.8445 41.6482 41.7084 38.7383 41.6941 34.7611C41.6788 30.7038 38.8379 27.818 34.8695 27.8289Z" fill="#FBFCFC"/>
<path d="M41.8344 28.6252C41.7533 28.5331 41.6721 28.441 41.5909 28.3488C41.7599 28.1404 41.6853 27.8936 41.6864 27.6655C41.6919 26.0235 41.6984 24.3826 41.6776 22.7406C41.6721 22.3369 41.8004 22.1889 42.2052 22.1911C43.9931 22.2042 45.7809 22.2053 47.5677 22.1944C47.9176 22.1922 47.9988 22.338 47.9966 22.6539C47.9867 24.4594 47.9812 26.2659 47.9999 28.0713C48.0043 28.4892 47.7772 28.4947 47.4811 28.4947C45.7842 28.4925 44.0885 28.4925 42.3917 28.4991C42.2019 28.4991 41.9836 28.4245 41.8344 28.6252Z" fill="#03C0F4"/>
</svg>
