<svg width="70" height="70" viewBox="0 0 70 70" fill="none" xmlns="http://www.w3.org/2000/svg">
<path d="M36.3178 14.4176C31.7187 13.9886 27.4285 15.2928 23.9106 17.5752C18.1274 21.2476 14.3005 27.7 14.3005 35.062C14.3005 39.1806 15.5018 43.0246 17.5954 46.2508C21.611 52.6174 29.8139 57.4053 38.7889 55.3975C43.5768 54.5051 47.764 51.9653 50.7843 48.4131C57.4255 41.0854 57.7344 30.4286 51.6595 22.8092C49.8736 20.3716 47.5736 18.3563 44.9225 16.9062C42.2713 15.456 39.3337 14.6065 36.3178 14.4176ZM35.0994 32.8483C35.0307 32.4879 34.9278 32.1104 34.8076 31.7671C34.5694 31.0675 34.2589 30.3945 33.8809 29.7593C33.6922 29.4504 33.4863 29.1587 33.2632 28.8841C33.0401 28.5924 32.7998 28.335 32.5424 28.0776C32.3022 27.8373 32.0447 27.6142 31.7702 27.3911C31.5007 27.1867 31.22 26.9977 30.9293 26.8248C30.6547 26.6532 30.363 26.4988 30.0884 26.3787C29.7967 26.2585 29.505 26.1384 29.2304 26.0526C28.6779 25.8844 28.1078 25.7808 27.5315 25.7437C27.2569 25.7266 26.9823 25.7266 26.7078 25.7437C26.4332 25.7609 26.1758 25.7952 25.9012 25.8295C25.6438 25.8638 25.3864 25.9325 25.1461 26.0011C24.8887 26.0698 24.6485 26.1384 24.4082 26.2414C24.168 26.3272 23.9449 26.4301 23.7046 26.5331C23.4815 26.6532 23.2584 26.7734 23.0525 26.9106C22.8294 27.0479 22.6235 27.1852 22.4347 27.3397C22.0315 27.6408 21.6579 27.9798 21.3193 28.3521C21.1477 28.5409 20.9932 28.7468 20.8216 28.9356C20.6672 29.1415 20.5299 29.3475 20.3926 29.5706C20.2382 29.7937 20.118 29.9996 19.9979 30.2227C19.8778 30.4458 19.7577 30.6689 19.6719 30.9091C19.5689 31.1322 19.4659 31.3553 19.3973 31.5955C19.3115 31.8186 19.2257 32.0589 19.1742 32.282C19.1055 32.5222 19.0541 32.7453 19.0026 32.9856C18.9511 33.2086 18.9168 33.4489 18.8825 33.6891C18.8481 33.9294 18.831 34.1525 18.8138 34.3927C18.7967 34.633 18.7795 34.8561 18.7795 35.0963C18.7795 35.3366 18.7967 35.5768 18.8138 35.7999C18.8442 36.2784 18.9073 36.7543 19.0026 37.2243C19.0541 37.4473 19.1055 37.6876 19.1742 37.9107C19.2257 38.1509 19.3115 38.374 19.3973 38.6143C19.4659 38.8374 19.5689 39.0605 19.6719 39.3007C19.7577 39.5238 19.8778 39.7469 19.9979 39.97C20.118 40.1931 20.2382 40.4162 20.3926 40.6221C20.5299 40.8452 20.6672 41.0511 20.8216 41.257C20.9932 41.463 21.1477 41.6517 21.3193 41.8405C21.6575 42.2133 22.031 42.5524 22.4347 42.853C22.6235 43.0074 22.8294 43.1619 23.0525 43.282C23.2584 43.4193 23.4815 43.5394 23.7046 43.6595C23.9449 43.7797 24.168 43.8655 24.4082 43.9684C24.6485 44.0542 24.8887 44.14 25.1461 44.2087C25.3864 44.2773 25.6438 44.3288 25.9012 44.3631C26.1758 44.4146 26.4332 44.4318 26.7078 44.4489C26.9823 44.4661 27.2569 44.4661 27.5315 44.4489C28.2522 44.3974 28.6812 43.6595 28.4582 42.8187C28.2351 41.9778 27.48 41.3943 26.7764 41.4973C26.5876 41.5144 26.3989 41.5316 26.2273 41.5316C26.0385 41.5488 25.8497 41.5488 25.6781 41.5316C25.4997 41.5183 25.3221 41.4954 25.1461 41.463C24.9574 41.4286 24.7858 41.3772 24.6141 41.3257C24.4597 41.2742 24.2881 41.2227 24.1165 41.1541C23.962 41.0854 23.8076 40.9996 23.6531 40.931C23.4987 40.8452 23.3443 40.7422 23.207 40.6564C23.0525 40.5534 22.9152 40.4505 22.7779 40.3304C22.6407 40.2274 22.5034 40.1073 22.3832 39.97C22.2488 39.8469 22.1226 39.7151 22.0057 39.5753C21.8856 39.438 21.7826 39.2835 21.6625 39.1291C21.5595 38.9747 21.4566 38.8202 21.3708 38.6658C21.285 38.5113 21.1992 38.3397 21.1134 38.1853C21.0447 38.0136 20.9761 37.8592 20.9074 37.6876C20.8388 37.516 20.7873 37.3444 20.7358 37.1728C20.6843 37.0183 20.6329 36.8467 20.5985 36.6751C20.5642 36.5035 20.5299 36.3147 20.5127 36.1431C20.4784 35.9715 20.4612 35.7999 20.4612 35.6283C20.4441 35.4567 20.4441 35.2679 20.4441 35.0963C20.4441 34.9247 20.4441 34.7531 20.4612 34.5815C20.4612 34.4099 20.4784 34.2211 20.5127 34.0495C20.5299 33.8779 20.5642 33.7063 20.5985 33.5347C20.6329 33.3631 20.6843 33.1915 20.7358 33.0199C20.7873 32.8483 20.8388 32.6767 20.9074 32.5222C20.9761 32.3506 21.0447 32.179 21.1134 32.0245C21.1992 31.8529 21.285 31.6985 21.3708 31.544C21.4566 31.3724 21.5595 31.218 21.6625 31.0635L22.0057 30.6174C22.1258 30.4801 22.246 30.36 22.3832 30.2227C22.5034 30.1025 22.6407 29.9824 22.7779 29.8623C22.9152 29.7593 23.0525 29.6564 23.207 29.5534C23.3443 29.4504 23.4987 29.3646 23.6531 29.2788C23.8076 29.193 23.962 29.1072 24.1165 29.0557C24.2881 28.9871 24.4597 28.9185 24.6141 28.867C24.7858 28.8155 24.9574 28.7812 25.1461 28.7468C25.3177 28.7125 25.4893 28.6954 25.6781 28.6782C25.8497 28.661 26.0385 28.661 26.2273 28.661C26.3989 28.661 26.5876 28.6782 26.7764 28.7125C27.1555 28.7794 27.5285 28.877 27.8918 29.0043C28.0806 29.0901 28.2522 29.1759 28.441 29.2617C28.6298 29.3646 28.8014 29.4848 28.973 29.6049C29.1617 29.725 29.3333 29.8623 29.505 30.0167C29.6766 30.1712 29.8482 30.3428 29.9855 30.5144C30.1399 30.686 30.2944 30.8748 30.4145 31.0635C30.5518 31.2523 30.689 31.4411 30.792 31.647C30.9121 31.8529 31.0151 32.0589 31.1009 32.282C31.2039 32.505 31.2725 32.7281 31.3412 32.9512C31.4098 33.1915 31.4784 33.4146 31.5299 33.6548L31.6329 34.3756C31.6501 34.6158 31.6672 34.8561 31.6672 35.0963C31.6672 35.3366 31.6501 35.594 31.6329 35.8342L31.5299 36.555C31.4784 36.7781 31.4098 37.0183 31.3412 37.2414C31.0837 38.0823 31.5986 39.0433 32.5081 39.3865C33.4519 39.764 34.4987 39.335 34.8076 38.4427C34.9278 38.0823 35.0307 37.7219 35.0994 37.3444C35.1852 36.984 35.2366 36.6065 35.2881 36.2289C35.3567 35.4754 35.3567 34.7172 35.2881 33.9637C35.2366 33.5862 35.1852 33.2086 35.0994 32.8483ZM41.7749 26.7734C41.6033 26.4816 41.4145 26.2071 41.2257 25.9325C41.037 25.6579 40.8311 25.4005 40.6251 25.1431C40.4192 24.8857 40.1961 24.6454 39.9902 24.4052C39.7671 24.1649 39.544 23.9418 39.3037 23.7187C39.0635 23.4957 38.8232 23.2897 38.583 23.0838C38.3427 22.8779 38.0853 22.6891 37.8279 22.5175C37.5877 22.3287 37.3303 22.1571 37.0557 21.9855C36.9184 21.8997 36.764 21.8139 36.6267 21.7281C36.5065 21.6595 36.3864 21.608 36.2663 21.5393C36.0089 21.402 35.7343 21.2648 35.4769 21.1446C35.2023 21.0245 34.9449 20.9215 34.6875 20.8186C34.4129 20.7156 34.1555 20.6298 33.8809 20.5612C33.6235 20.4754 33.3661 20.4067 33.1087 20.3381L32.3365 20.1836C32.0791 20.1493 31.8217 20.0978 31.5814 20.0807C31.324 20.0463 31.0837 20.0292 30.8263 20.012C30.5861 20.012 30.3458 19.9949 30.1056 19.9949C29.8653 19.9949 29.6251 20.012 29.3848 20.0292L28.6812 20.0807L28.012 20.1836C27.7889 20.218 27.5658 20.2694 27.3427 20.3209C27.1368 20.3552 26.9137 20.4239 26.7078 20.4754C26.4847 20.5268 26.2787 20.5955 26.0728 20.6641C25.884 20.7328 25.6781 20.8014 25.4722 20.8872C25.2834 20.9559 25.0946 21.0417 24.8887 21.1275C24.6999 21.2133 24.5112 21.2991 24.3396 21.3849C24.1508 21.4707 23.962 21.5737 23.7904 21.6766C23.6188 21.7796 23.4472 21.8654 23.2756 21.9855C23.104 22.0885 22.9324 22.1914 22.7608 22.3116C22.6063 22.4145 22.4347 22.5347 22.2803 22.6548C22.1258 22.7577 21.9714 22.895 21.8169 23.0152C21.6625 23.1353 21.5252 23.2554 21.3708 23.3927C21.2163 23.5128 21.079 23.6501 20.9417 23.7702L20.5299 24.1821C20.4098 24.3194 20.2725 24.4567 20.1524 24.6111C20.0151 24.7484 19.8949 24.8857 19.7748 25.0401C19.6547 25.1774 19.5346 25.3319 19.4144 25.4863C19.3115 25.6408 19.1913 25.7952 19.0884 25.9496C18.9683 26.1041 18.8653 26.2585 18.7623 26.413C18.6594 26.5846 18.5564 26.739 18.4706 26.9106L18.3162 27.1681C18.2647 27.2367 18.2303 27.3225 18.1789 27.3911C18.0931 27.5628 18.0073 27.7172 17.9215 27.8888C17.8528 28.0433 17.767 28.2149 17.6812 28.3693C17.6126 28.5409 17.5439 28.7125 17.4753 28.867C17.4066 29.0386 17.338 29.193 17.2865 29.3646C17.2179 29.5362 17.1492 29.6907 17.0977 29.8623L16.9433 30.36C16.8918 30.5144 16.8403 30.686 16.7888 30.8405C16.7545 31.0121 16.703 31.1837 16.6687 31.3381C16.6344 31.5097 16.6001 31.6813 16.5658 31.8358C16.5314 32.0074 16.4971 32.179 16.4628 32.3334C16.4456 32.5051 16.4113 32.6767 16.3941 32.8311C16.377 33.0027 16.3427 33.1572 16.3255 33.3288C16.3083 33.5004 16.2912 33.6548 16.2912 33.8264C16.274 33.998 16.2569 34.1525 16.2569 34.3241C16.2397 34.4957 16.2397 34.6501 16.2397 34.8218V35.3194C16.2397 35.4739 16.2397 35.6455 16.2569 35.8171C16.2569 35.9715 16.274 36.1431 16.274 36.3147L16.3255 36.8124L16.377 37.3101C16.4113 37.4645 16.4285 37.6361 16.4628 37.8077C16.48 37.9622 16.5143 38.1338 16.5486 38.3054C16.5829 38.4598 16.6172 38.6314 16.6516 38.803C16.6859 38.9575 16.7374 39.1291 16.7717 39.3007C16.8232 39.4552 16.8746 39.6268 16.9261 39.7984C16.9776 39.9528 17.0291 40.1244 17.0806 40.296C17.1321 40.4505 17.2007 40.6221 17.2522 40.7937C17.3208 40.9481 17.3895 41.1197 17.4581 41.2914C17.5268 41.4458 17.5954 41.6174 17.664 41.789C17.7498 41.9435 17.8185 42.1151 17.9043 42.2867C17.9901 42.4583 18.0759 42.6127 18.1617 42.7843L18.3162 43.0417C18.3505 43.1276 18.402 43.1962 18.4363 43.2648C18.5392 43.4364 18.6422 43.5909 18.7452 43.7453C18.8481 43.9169 18.9511 44.0714 19.0541 44.2258C19.157 44.3803 19.2772 44.5176 19.3801 44.672C19.5002 44.8265 19.6204 44.9809 19.7405 45.1182C19.8606 45.2726 19.9807 45.4099 20.1009 45.5472C20.221 45.7017 20.3583 45.8389 20.4784 45.9762C20.6157 46.1135 20.753 46.2508 20.8903 46.3709C21.0275 46.5082 21.1648 46.6455 21.3193 46.7656C21.4566 46.9029 21.611 47.023 21.7483 47.1432C21.9027 47.2805 22.0572 47.4006 22.2116 47.5035C22.3661 47.6237 22.5377 47.7438 22.6921 47.8468C22.8637 47.9669 23.0182 48.0698 23.1898 48.1728C23.3614 48.2929 23.533 48.3959 23.7046 48.4989C23.8934 48.5847 24.065 48.6876 24.2538 48.7734C24.6177 48.9735 24.9963 49.1456 25.3864 49.2883C25.5923 49.3741 25.7811 49.4427 25.987 49.5113L26.6048 49.7173L27.2397 49.8717C27.4628 49.9232 27.6859 49.9747 27.909 50.009L28.5783 50.112C28.8185 50.1463 29.0588 50.1635 29.2819 50.1806C29.5221 50.1978 29.7624 50.1978 30.0026 50.2149C30.2429 50.2149 30.4831 50.2149 30.7405 50.1978C31.7873 50.1463 32.285 49.1167 31.8217 47.9154C31.3583 46.7313 30.1742 45.9248 29.1961 46.0792L28.6812 46.1307C28.5268 46.1478 28.3552 46.165 28.1836 46.165C28.012 46.1822 27.8575 46.1822 27.6859 46.1822C27.5143 46.165 27.3599 46.165 27.1883 46.1478C27.0338 46.1478 26.8794 46.1307 26.7078 46.1135C26.5533 46.0792 26.3989 46.062 26.2444 46.0277C26.09 45.9934 25.9355 45.9762 25.7811 45.9248C25.6266 45.8904 25.4722 45.8561 25.3349 45.8218C25.1853 45.773 25.0365 45.7215 24.8887 45.6673C24.7514 45.6159 24.597 45.5644 24.4597 45.5129C24.3224 45.4614 24.1851 45.3928 24.0478 45.3241C23.9106 45.2726 23.7733 45.204 23.636 45.1354C23.5159 45.0667 23.3786 44.9981 23.2584 44.9123C23.1212 44.8436 23.001 44.775 22.8809 44.6892C22.7608 44.6034 22.6235 44.5176 22.5034 44.4318C22.4004 44.346 22.2803 44.2602 22.1602 44.1744C22.0416 44.0881 21.9271 43.9965 21.8169 43.8998C21.714 43.814 21.611 43.711 21.4909 43.6081L21.182 43.2992C21.079 43.1962 20.9761 43.0932 20.8903 42.9903C20.7873 42.8873 20.7015 42.7672 20.5985 42.6642C20.5127 42.5441 20.4098 42.4411 20.324 42.321L20.0665 41.9606C19.9807 41.8405 19.8949 41.7204 19.8263 41.6002C19.7748 41.5316 19.7405 41.4801 19.7062 41.4286C19.6719 41.36 19.6204 41.2914 19.586 41.2227C19.5174 41.0854 19.4316 40.9653 19.363 40.828C19.2943 40.6907 19.2257 40.5706 19.1742 40.4333C19.1055 40.3132 19.0369 40.1759 18.9854 40.0558C18.9168 39.9185 18.8653 39.7984 18.8138 39.6611C18.7623 39.5238 18.7108 39.4037 18.6594 39.2664C18.6079 39.1291 18.5736 39.009 18.5221 38.8717C18.4878 38.7344 18.4534 38.6143 18.402 38.477L18.299 38.0823C18.2647 37.945 18.2303 37.8077 18.2132 37.6876C18.1789 37.5503 18.1617 37.413 18.1274 37.2757L18.0759 36.881C18.043 36.752 18.0257 36.6195 18.0244 36.4863L17.9729 36.0745C17.9729 35.9544 17.9558 35.8171 17.9558 35.6798C17.9386 35.5425 17.9386 35.4052 17.9386 35.2679V34.8732C17.9386 34.7359 17.9558 34.5987 17.9558 34.4785C17.9558 34.3413 17.9729 34.204 17.9901 34.0667C17.9901 33.9294 18.0073 33.8093 18.0244 33.672L18.0759 33.2773C18.0931 33.14 18.1102 33.0027 18.1445 32.8654C18.1617 32.7453 18.196 32.608 18.2303 32.4707C18.2475 32.3334 18.2818 32.2133 18.3162 32.076C18.3505 31.9387 18.3848 31.8015 18.4191 31.6813C18.4534 31.544 18.5049 31.4239 18.5392 31.2866C18.5907 31.1494 18.6422 31.0292 18.6765 30.8919C18.728 30.7718 18.7795 30.6345 18.831 30.5144C18.8825 30.3771 18.9339 30.2398 19.0026 30.1197C19.0541 29.9824 19.1227 29.8623 19.1913 29.725C19.2428 29.6049 19.3115 29.4676 19.3801 29.3475C19.4488 29.2273 19.5174 29.0901 19.6032 28.9699C19.6375 28.9013 19.6719 28.8498 19.7062 28.7983C19.7405 28.7297 19.792 28.661 19.8435 28.5924C19.9121 28.4551 19.9979 28.335 20.0837 28.2149C20.1695 28.0947 20.2553 27.9746 20.3583 27.8545C20.4441 27.7515 20.5299 27.6314 20.6329 27.5113C20.7187 27.4083 20.8216 27.2882 20.9246 27.1852C21.0275 27.0823 21.1134 26.9621 21.2163 26.8592C21.3193 26.7562 21.4222 26.6704 21.5424 26.5674C21.6453 26.4645 21.7483 26.3615 21.8684 26.2757C21.9714 26.1727 22.0915 26.0869 22.2116 26.0011C22.3146 25.9153 22.4347 25.8124 22.5549 25.7266C22.6921 25.6579 22.8123 25.5721 22.9324 25.4863C23.0525 25.4177 23.1726 25.3319 23.3099 25.2632C23.4472 25.1774 23.5673 25.1088 23.7046 25.0401C23.8419 24.9715 23.9792 24.92 24.0993 24.8514C24.2366 24.7827 24.3911 24.7312 24.5283 24.6797C24.6656 24.6111 24.8029 24.5596 24.9574 24.5081C25.0946 24.4738 25.2491 24.4223 25.3864 24.3709L25.8497 24.2679L26.3131 24.1649C26.4675 24.1478 26.622 24.1134 26.7764 24.0963C26.948 24.0791 27.1025 24.062 27.2569 24.062C27.4285 24.0448 27.6001 24.0276 27.7546 24.0276C27.9262 24.0276 28.0978 24.0276 28.2522 24.0448C28.4238 24.0448 28.5954 24.062 28.767 24.0791C28.9387 24.0963 29.1103 24.1134 29.2647 24.1478C29.4535 24.1821 29.6251 24.2164 29.7967 24.2507C29.9683 24.2851 30.1399 24.3365 30.3115 24.388C30.4831 24.4395 30.6547 24.491 30.8263 24.5596C31.0151 24.6111 31.1867 24.6797 31.3583 24.7656C31.5299 24.8342 31.7187 24.92 31.8903 25.0058C32.0619 25.0916 32.2335 25.1946 32.4051 25.2804C32.5767 25.3833 32.7483 25.5035 32.9199 25.6064C33.0058 25.6579 33.0744 25.7266 33.1602 25.778C33.246 25.8467 33.349 25.9153 33.4348 25.984C33.6064 26.1041 33.7608 26.2414 33.9324 26.3787C34.0869 26.5331 34.2585 26.6704 34.3958 26.8248C34.5674 26.9793 34.7047 27.1337 34.8591 27.3053C35.1455 27.6345 35.4147 27.9782 35.6657 28.335C35.7858 28.5238 35.9231 28.7125 36.026 28.9013C36.1462 29.0901 36.2663 29.2788 36.3693 29.4848C36.4722 29.6907 36.558 29.8795 36.661 30.0854C36.7468 30.3085 36.8498 30.5144 36.9184 30.7203C37.0042 30.9434 37.0728 31.1494 37.1587 31.3724C37.2273 31.5955 37.2788 31.8186 37.3474 32.0417L37.5019 32.711C37.5362 32.9512 37.5877 33.1743 37.6048 33.4146C37.6392 33.6377 37.6735 33.8779 37.6906 34.101C37.7078 34.3412 37.725 34.5815 37.725 34.8046V35.5082C37.7078 35.7484 37.7078 35.9715 37.6735 36.2118C37.6563 36.452 37.622 36.6751 37.5877 36.9154C37.5705 37.1385 37.519 37.3615 37.4675 37.6018C37.4332 37.8249 37.3817 38.048 37.3131 38.2711C37.2616 38.4942 37.193 38.7172 37.1243 38.9403C37.0557 39.1463 36.9699 39.3693 36.8841 39.5753C36.7983 39.7984 36.7125 40.0043 36.6267 40.2102C36.5237 40.4162 36.4207 40.6049 36.3178 40.8109C35.7515 41.8748 36.3349 43.3163 37.7078 44.0886C39.1665 44.9123 40.9855 44.7063 41.7062 43.5566C41.8779 43.2648 42.0495 42.9731 42.2039 42.6814C42.3584 42.3725 42.5128 42.0807 42.6501 41.7719C42.7874 41.4458 42.9247 41.1369 43.0448 40.828C43.1649 40.502 43.2679 40.1759 43.3708 39.8327C43.4738 39.5066 43.5596 39.1806 43.6454 38.8374C43.7312 38.4942 43.7999 38.1509 43.8513 37.8077C43.9028 37.4645 43.9543 37.1213 43.9886 36.7609C44.0229 36.4177 44.0573 36.0573 44.0573 35.7141C44.0744 35.3709 44.0744 35.0105 44.0744 34.6501C44.0573 34.3069 44.0401 33.9637 44.0058 33.6033C43.9715 33.2601 43.9371 32.8997 43.8685 32.5565C43.817 32.2133 43.7484 31.8701 43.6797 31.5269C43.6111 31.1837 43.5253 30.8576 43.4223 30.5144C43.3194 30.1883 43.2164 29.8623 43.0963 29.5362C42.9808 29.2119 42.8549 28.8914 42.7187 28.5752C42.5814 28.2663 42.427 27.9575 42.2726 27.6486C42.1132 27.3532 41.9472 27.0614 41.7749 26.7734ZM39.87 49.7859L25.884 34.2211C25.4722 33.7578 24.8201 33.7921 24.4254 34.2554C24.0478 34.7188 24.0478 35.4567 24.4254 35.92L37.0214 51.2274C32.8341 52.8234 28.5954 52.3944 25.1461 50.7812C22.0057 49.3226 19.4144 46.8514 17.6984 43.7453C16.2634 41.0879 15.5088 38.1164 15.5018 35.0963C15.5018 32.2305 16.2054 29.193 17.6984 26.4473C19.4144 23.3412 22.0057 20.8701 25.1461 19.3942C28.9901 17.6095 33.8295 17.2663 38.4629 19.6002C44.2289 22.5003 47.6782 28.3865 47.6782 35.0963C47.6782 41.1884 44.8123 46.6283 39.87 49.7859Z" fill="#0058DD"/>
</svg>
