<svg width="70" height="70" viewBox="0 0 70 70" fill="none" xmlns="http://www.w3.org/2000/svg">
<path d="M20.1522 40.7615H17.0464L16.0963 38.4698H10.9202L10.0546 40.7615H7L11.6667 29.1873H15.01L20.1522 40.7615ZM13.3808 31.953L11.6838 36.4501H15.2477L13.3808 31.953ZM31.4339 29.1873H33.9455V40.7615H31.0602V33.5319L27.9376 37.1633H27.4966L24.3742 33.5319V40.7614H21.4889V29.1873H24.0005L27.7169 33.4808L31.4339 29.1873ZM41.2563 29.1873C45.4817 29.1873 47.6536 31.8174 47.6536 34.9909C47.6536 38.3171 45.5496 40.7615 40.9336 40.7615H36.1478V29.1873H41.2563ZM39.0329 38.6402H40.9163C43.8183 38.6402 44.6839 36.6711 44.6839 34.9738C44.6839 32.988 43.6146 31.3084 40.8824 31.3084H39.0328V38.6402H39.0329ZM53.3938 31.9316L49.7558 28.293H63V41.5377L59.362 37.8994V31.9316H53.3938ZM53.3896 32.6608L49.644 36.4062V41.6491H54.8862L58.6316 37.9037H53.3896V32.6608Z" fill="white"/>
</svg>
