<svg width="70" height="70" viewBox="0 0 70 70" fill="none" xmlns="http://www.w3.org/2000/svg">
<path d="M14.066 55.4516L34.9659 15.168H43.1536C50.1273 15.2276 50.3861 15.2412 51.4821 15.6041C53.0924 16.1376 54.208 17.2633 54.6831 18.8358C55.0222 19.9528 55.0238 20.136 54.9812 37.8198L54.9387 55.676L14.066 55.4516ZM45.7108 53.2974C46.4922 53.1303 47.6717 52.765 48.3319 52.4865C49.554 51.9721 51.279 50.8942 51.3576 50.5977C51.3822 50.5076 51.1217 50.1144 50.7777 49.7245L50.1552 49.0135L49.2427 49.5984C47.5161 50.7025 44.854 51.3414 42.0265 51.3299C36.2208 51.3037 33.3359 48.586 33.3392 43.1439C33.3392 37.2563 36.7253 33.6474 42.2427 33.6474C47.5259 33.6474 50.4762 36.6633 50.224 41.8039C50.1027 43.4847 49.7145 45.3325 48.3106 46.0517C47.9092 46.2565 47.3359 46.4203 47.0377 46.4203C46.0581 46.4203 46.0335 46.1074 46.6626 41.6139C46.8985 39.8315 47.1786 38.0541 47.3539 36.2636H44.741L44.5739 37.4938C44.5739 37.4938 44.3101 37.1662 44.1054 36.9238C42.6326 35.1725 38.6125 36.3635 36.9154 39.055C36.1372 40.2853 35.636 42.0988 35.6261 43.7173C35.6097 46.0665 36.2421 47.4048 37.7066 48.1355C39.335 48.9464 41.4466 48.5893 42.8636 47.3147C43.3158 46.9085 43.5598 46.5481 43.7171 46.3384C43.6958 46.5464 43.6925 46.784 43.6925 46.9331C43.6925 47.9946 44.7639 48.6105 46.5839 48.604C49.4688 48.5876 51.5116 47.0952 52.5322 44.2432C52.8844 43.2553 52.9565 42.7672 52.963 41.26C52.9794 38.4866 52.1685 36.2259 50.5401 34.4911C47.8552 31.6308 43.3092 30.5291 38.8943 31.6701C36.7122 32.2353 35.2985 33.0298 33.8028 34.5337C31.5602 36.7862 30.5297 39.4826 30.5396 43.062C30.5396 45.8158 31.1817 47.8472 32.661 49.8638C34.9725 53.0107 40.3932 54.4376 45.7108 53.2974ZM38.4372 43.945C38.4372 41.4255 39.2744 39.6382 40.7979 38.8994C42.0478 38.2949 43.1159 38.4899 43.6958 39.4285C44.1103 40.1002 44.1365 40.8734 43.7925 42.3347C43.1847 44.9115 41.8807 46.3073 40.0951 46.3073C38.3897 46.3073 38.4422 44.9623 38.4372 43.945Z" fill="#163293"/>
</svg>
