<svg width="90" height="90" viewBox="0 0 90 90" fill="none" xmlns="http://www.w3.org/2000/svg">
<path d="M15.1942 65.014C17.0885 61.6045 19.9128 58.2115 23.0348 55.5948C28.0552 51.387 34.1225 48.7082 40.5043 47.8823C40.8598 47.8364 41.1773 47.7708 41.2101 47.7368C41.2427 47.7028 43.9989 42.5641 47.3348 36.3176C50.6708 30.0712 53.4166 24.9781 53.4367 25.0001C53.4697 25.036 74.6252 64.625 74.8883 65.1434L75 65.3636H73.2687H71.5375L71.1137 64.7291C69.1416 61.7755 66.5378 59.0277 63.6983 56.9036C59.4482 53.7244 54.6255 51.7278 49.3595 50.9675C48.9538 50.9089 48.4244 50.8458 48.1831 50.8271C47.9417 50.8086 47.7443 50.7778 47.7443 50.7587C47.7443 50.7281 49.2324 47.9094 49.2723 47.8644C49.3 47.8332 50.7951 48.0666 51.5971 48.2273C56.3592 49.1815 60.6837 51.0247 64.5871 53.7642C65.2901 54.2575 65.5341 54.3703 65.5341 54.2016C65.5341 54.1185 53.617 31.7662 53.5133 31.6549C53.4792 31.6183 53.4164 31.6016 53.3738 31.618C53.3313 31.6343 49.265 39.196 44.3378 48.4217C39.4106 57.6473 35.3513 65.2337 35.3172 65.2804C35.2616 65.3564 35.0791 65.3637 33.5417 65.3514L31.8284 65.3377L35.3424 58.7595C39.5777 50.8309 39.2916 51.3849 39.1985 51.2916C39.136 51.229 39.0413 51.2371 38.5258 51.3487C35.9039 51.9165 33.6742 52.6906 31.2732 53.8668C29.9282 54.5256 29.0774 55.0143 27.8083 55.8568C24.3116 58.1779 21.3865 61.0975 19.0761 64.573L18.5513 65.3622L16.7757 65.3629L15 65.3636L15.1942 65.014Z" fill="#EF3F22"/>
</svg>
