<svg width="90" height="90" viewBox="0 0 90 90" fill="none" xmlns="http://www.w3.org/2000/svg">
<path d="M55.73 48.9479C55.3913 49.5766 55.0503 50.2032 54.7149 50.833C53.3146 53.4643 51.911 56.0933 50.5229 58.7311C50.3292 59.0986 50.1111 59.258 49.6716 59.2536C47.2563 59.2293 44.8409 59.2514 42.4255 59.2326C42.0248 59.2293 41.7923 59.3621 41.5842 59.6986C39.8408 62.5169 38.0741 65.3208 36.3328 68.1402C36.1037 68.5111 35.8524 68.6594 35.4063 68.6572C31.1279 68.6395 26.8507 68.6472 22.5723 68.6461C22.3952 68.6461 22.217 68.6317 21.9502 68.6195C22.0963 68.3672 22.1982 68.1801 22.3111 67.9985C32.0368 52.4126 41.7647 36.8256 51.4815 21.232C51.7084 20.8678 51.9553 20.7538 52.3715 20.7549C57.3683 20.7682 62.3662 20.7637 67.363 20.7637C67.8692 20.7637 68.1227 21.0106 68.1234 21.5043C68.1301 33.6598 68.1323 45.8152 68.1478 57.9707C68.1522 61.3026 68.1821 64.6334 68.2363 67.9642C68.2463 68.5443 68.0614 68.6638 67.5179 68.6605C63.886 68.6373 60.253 68.6373 56.62 68.6605C56.0698 68.6638 55.9027 68.5321 55.9049 67.9598C55.927 61.845 55.9182 55.7302 55.9182 49.6165V48.9855C55.8562 48.9733 55.7931 48.9601 55.7311 48.9479H55.73ZM55.8905 34.9925L55.7333 34.9538C53.0368 39.5377 50.3402 44.1216 47.5706 48.8317H48.2791C50.6015 48.8317 52.9239 48.8162 55.2451 48.8427C55.7743 48.8483 55.9303 48.6977 55.9281 48.1653C55.9082 43.95 55.9171 39.7347 55.9159 35.5194C55.9159 35.3434 55.8993 35.1685 55.8905 34.9925Z" fill="#0075BF"/>
</svg>
