<svg width="70" height="70" viewBox="0 0 70 70" fill="none" xmlns="http://www.w3.org/2000/svg">
<path d="M11 50.3879H27.6167H31.0223L27.9984 44.6993H20.7469L26.2369 33.6992L35.2792 50.3879H42.0903L26.413 20L11 50.3879Z" fill="#1C2C4E"/>
<path d="M58.7658 20H28.0571L28.9379 21.7704H57.885L58.7658 20Z" fill="#ED1B23"/>
<path d="M56.0356 25.3691L56.9457 23.5986H29.8481L30.7289 25.3691H56.0356Z" fill="#ED1B23"/>
<path d="M31.6387 27.1689L32.5194 28.9394H54.2151L55.1252 27.1689H31.6387Z" fill="#ED1B23"/>
<path d="M34.3104 32.5087H52.3951L53.3052 30.7383H33.4297L34.3104 32.5087Z" fill="#ED1B23"/>
<path d="M36.1014 36.08H50.575L51.4851 34.3096H35.2207L36.1014 36.08Z" fill="#ED1B23"/>
<path d="M37.892 39.6494H48.7545L49.6352 37.8789H37.0112L37.892 39.6494Z" fill="#ED1B23"/>
<path d="M39.683 43.2187H46.9051L47.8152 41.4482H38.8022L39.683 43.2187Z" fill="#ED1B23"/>
<path d="M41.4736 46.8183H45.0846L45.9947 45.0479H40.5635L41.4736 46.8183Z" fill="#ED1B23"/>
<path d="M43.2646 50.3876L44.1747 48.6172H42.3545L43.2646 50.3876Z" fill="#ED1B23"/>
</svg>
