<svg width="70" height="70" viewBox="0 0 70 70" fill="none" xmlns="http://www.w3.org/2000/svg">
<path d="M35.5226 35.4663H39.891C40.0361 36.0047 40.5324 36.3933 41.1224 36.3933C41.8294 36.3933 42.4006 35.8408 42.4006 35.1338C42.4006 34.4268 41.8294 33.8322 41.1224 33.8322C40.5278 33.8322 40.0315 34.2536 39.891 34.8061H35.5226V32.9333H37.5547C37.5547 32.9333 37.7232 32.952 37.8262 32.8724C38.0088 32.7319 38.477 32.2778 38.477 32.2778L39.7599 30.9949C39.9378 31.0885 40.1345 31.1447 40.3498 31.1447C41.0568 31.1447 41.6327 30.5688 41.6327 29.8618C41.6327 29.1548 41.0615 28.5789 40.3498 28.5789C39.6428 28.5789 39.0716 29.1502 39.0716 29.8618C39.0716 30.1147 39.1466 30.3488 39.273 30.5501L37.7794 32.0484C37.7794 32.0484 37.5921 32.2263 37.5219 32.2544C37.4797 32.2731 37.3674 32.2731 37.3674 32.2731H35.5367V31.4725V29.4217C36.3748 29.2672 37.0068 28.5321 37.0068 27.6519C37.0068 26.6546 36.1969 25.8493 35.2043 25.8493C34.207 25.8493 33.4017 26.6546 33.4017 27.6519C33.4017 28.5321 34.0384 29.2672 34.8765 29.4217V32.2778C34.8765 32.2778 32.9335 32.2778 32.8866 32.259C32.8117 32.231 32.6291 32.053 32.6291 32.053L31.1309 30.5548C31.2573 30.3581 31.3322 30.124 31.3322 29.8665C31.3322 29.1595 30.761 28.5836 30.0493 28.5836C29.3423 28.5836 28.7664 29.1548 28.7664 29.8665C28.7664 30.5735 29.3376 31.1494 30.0493 31.1494C30.2647 31.1494 30.4613 31.0932 30.6392 30.9996L31.9221 32.2825C31.9221 32.2825 32.3857 32.7366 32.5683 32.8771C32.6713 32.9567 32.8398 32.9379 32.8398 32.9379H34.8718V34.8108H30.5035C30.3583 34.2583 29.8667 33.8369 29.2721 33.8369C28.5651 33.8369 27.9892 34.4315 27.9892 35.1385C27.9892 35.8455 28.5604 36.398 29.2721 36.398C29.862 36.398 30.3583 36.0094 30.5035 35.4709H34.8718V37.2969H32.8398C32.8398 37.2969 32.6713 37.2782 32.5683 37.3578C32.3857 37.503 31.9221 37.9524 31.9221 37.9524L30.6392 39.2353C30.4613 39.1417 30.2647 39.0855 30.0493 39.0855C29.3423 39.0855 28.7664 39.6614 28.7664 40.3684C28.7664 41.0754 29.3376 41.6513 30.0493 41.6513C30.7563 41.6513 31.3322 41.0801 31.3322 40.3684C31.3322 40.1155 31.2573 39.8814 31.1309 39.6801L32.6291 38.1819C32.6291 38.1819 32.8117 38.0039 32.8866 37.9712C32.9288 37.9524 33.0411 37.9524 33.0411 37.9524H34.8765V40.8085C34.0384 40.963 33.4017 41.6981 33.4017 42.5783C33.4017 43.5709 34.2117 44.3809 35.2043 44.3809C36.1969 44.3809 37.0068 43.5709 37.0068 42.5783C37.0068 41.6981 36.3701 40.963 35.5367 40.8085V37.9524H37.3674C37.3674 37.9524 37.4797 37.9524 37.5219 37.9712C37.5968 37.9993 37.7794 38.1819 37.7794 38.1819L39.273 39.6801C39.1466 39.8768 39.0716 40.1155 39.0716 40.3684C39.0716 41.0754 39.6428 41.6513 40.3498 41.6513C41.0568 41.6513 41.6327 41.0801 41.6327 40.3684C41.6327 39.6614 41.0615 39.0855 40.3498 39.0855C40.1345 39.0855 39.9378 39.1417 39.7599 39.2353L38.477 37.9524C38.477 37.9524 38.0088 37.4983 37.8262 37.3578C37.7232 37.2782 37.5547 37.2969 37.5547 37.2969H35.5226V36.206V35.4663ZM41.1224 34.4877C41.4689 34.4877 41.7498 34.7686 41.7498 35.1151C41.7498 35.4616 41.4689 35.7425 41.1224 35.7425C40.7759 35.7425 40.495 35.4616 40.495 35.1151C40.495 34.7686 40.7806 34.4877 41.1224 34.4877ZM40.3452 29.2391C40.6916 29.2391 40.9726 29.52 40.9726 29.8665C40.9726 30.213 40.6916 30.4939 40.3452 30.4939C39.9987 30.4939 39.7178 30.213 39.7178 29.8665C39.7178 29.52 39.9987 29.2391 40.3452 29.2391ZM30.0399 30.4892C29.6935 30.4892 29.4125 30.2083 29.4125 29.8618C29.4125 29.5154 29.6935 29.2344 30.0399 29.2344C30.3864 29.2344 30.6673 29.5154 30.6673 29.8618C30.6673 30.2083 30.3864 30.4892 30.0399 30.4892ZM29.258 35.7378C28.9116 35.7378 28.6306 35.4569 28.6306 35.1104C28.6306 34.764 28.9116 34.483 29.258 34.483C29.6045 34.483 29.8854 34.764 29.8854 35.1104C29.8854 35.4569 29.6045 35.7378 29.258 35.7378ZM30.0399 40.9864C29.6935 40.9864 29.4125 40.7055 29.4125 40.359C29.4125 40.0125 29.6935 39.7316 30.0399 39.7316C30.3864 39.7316 30.6673 40.0125 30.6673 40.359C30.6673 40.7055 30.3864 40.9864 30.0399 40.9864ZM40.3452 39.7316C40.6916 39.7316 40.9726 40.0125 40.9726 40.359C40.9726 40.7055 40.6916 40.9864 40.3452 40.9864C39.9987 40.9864 39.7178 40.7055 39.7178 40.359C39.7178 40.0125 39.9987 39.7316 40.3452 39.7316ZM35.1949 43.7114C34.5675 43.7114 34.0572 43.201 34.0572 42.5736C34.0572 41.9462 34.5675 41.4359 35.1949 41.4359C35.8223 41.4359 36.3326 41.9462 36.3326 42.5736C36.3326 43.201 35.8223 43.7114 35.1949 43.7114ZM35.1949 26.5095C35.8223 26.5095 36.3326 27.0198 36.3326 27.6472C36.3326 28.2746 35.8223 28.785 35.1949 28.785C34.5675 28.785 34.0572 28.2746 34.0572 27.6472C34.0525 27.0198 34.5675 26.5095 35.1949 26.5095Z" fill="white"/>
<path d="M54.9766 24.8988C54.9906 24.042 54.5412 23.246 53.7967 22.8153L36.3794 12.7442C35.6444 12.3181 34.7407 12.3181 34.0056 12.7442L16.565 22.8434C15.8345 23.2694 15.3851 24.0467 15.3851 24.8941V45.3641C15.3851 46.2116 15.8345 46.9935 16.5696 47.4148L34.0103 57.4719C34.7407 57.898 35.6444 57.898 36.3748 57.4719L53.8154 47.4195C54.5505 46.9981 55 46.2116 55 45.3688L54.9766 24.8988ZM47.5087 43.098L35.8691 49.8121C35.4571 50.0462 34.9514 50.0462 34.5394 49.8121L22.8998 43.098C22.4878 42.8592 22.2349 42.4238 22.2349 41.9462V28.2886C22.2349 27.811 22.4878 27.3756 22.8951 27.1368L34.5394 20.3947C34.9514 20.1559 35.4571 20.1559 35.8691 20.3947L47.4993 27.1181C47.916 27.3616 48.1689 27.8064 48.1595 28.2886V28.4197L48.1736 41.9509C48.1736 42.4238 47.9207 42.8639 47.5087 43.098Z" fill="white"/>
</svg>
