<svg width="90" height="90" viewBox="0 0 90 90" fill="none" xmlns="http://www.w3.org/2000/svg">
<path d="M52.3495 40.9518L57.5049 25.1943L53.165 25.4565C51.7961 25.6021 51.1553 25.8934 50.4271 26.5342C44.4271 32.1556 26.8346 47.8548 20.3685 53.4762H26.5434C28.1453 51.4374 33.2716 46.1363 34.6988 44.5344C34.6988 44.5344 36.7377 43.6315 38.8056 43.4276C40.728 42.9324 48.2135 42.9907 48.2135 42.9907L36.3299 74.7386H42.2426L51.7087 43.0489C51.7087 43.0489 62.6603 42.379 64.5244 43.1654L65.9225 39.9615C64.204 40.9227 52.3495 40.9518 52.3495 40.9518ZM49.1747 40.9518L41.1358 41.3596C39.9707 41.3596 38.8639 40.8936 39.2134 40.5149C41.9513 37.6023 46.6698 33.3206 50.7184 29.3886C51.0679 29.039 53.165 27.3206 54.4757 27.2914L49.1747 40.9518Z" fill="white"/>
<path d="M8.28067 15.8159V53.5057H20.3682C17.1934 50.6222 16.9313 45.991 20.4264 41.3308C26.8925 32.6802 43.6694 25.719 57.9123 25.7481C72.1552 25.7772 78.4466 32.8258 71.9805 41.4473C68.4853 46.1075 61.9901 50.6222 54.5045 53.4766H82V15.8159H8.28067Z" fill="#144D8E"/>
</svg>
