<svg width="70" height="70" viewBox="0 0 70 70" fill="none" xmlns="http://www.w3.org/2000/svg">
<g clip-path="url(#clip0_636_7453)">
<path d="M49.7193 28.8741C47.3715 32.9016 45.022 36.9291 42.6232 41.0433H44.1957C44.7398 40.1491 45.2923 39.2412 45.8159 38.381H55.8617C56.4023 39.2888 56.9344 40.1814 57.4292 41.0127H59C56.6165 36.8985 54.2925 32.8863 51.9685 28.8741H49.7193ZM46.564 37.0974C48.0056 34.6493 49.3861 32.2998 50.8329 29.8432C52.2796 32.2998 53.6652 34.651 55.1086 37.0974H46.564Z" fill="white"/>
<path d="M18.4378 28.8741C16.0883 32.8999 13.7388 36.924 11.34 41.0331C11.9282 41.0331 12.4212 41.0331 12.921 41.0331C13.4651 40.144 14.0023 39.2548 14.5225 38.3929H24.5887C25.1242 39.299 25.641 40.1712 26.1341 41.0042H27.7219C25.3401 36.8951 23.0127 32.8846 20.687 28.8741H18.4378ZM15.2688 37.1348C16.7207 34.6663 18.108 32.3083 19.5513 29.8534C21.0049 32.3219 22.3922 34.6731 23.8406 37.1348H15.2688Z" fill="white"/>
<path d="M40.8312 28.8741H29.1687V41.0212H30.6937V36.2865C33.6297 36.2865 36.4552 36.3205 39.2791 36.2729C40.906 36.2457 42.6299 36.0655 42.9087 34.022C43.1892 31.9717 43.5361 29.7395 40.8312 28.8741ZM41.5419 32.6874C41.4841 34.09 40.9383 35.0012 39.3505 34.9876C36.4977 34.9621 33.645 34.9808 30.7141 34.9808V30.139C33.7249 30.139 36.6864 30.0999 39.648 30.1543C41.2665 30.1832 41.598 31.3308 41.5419 32.6857V32.6874Z" fill="white"/>
</g>
<defs>
<clipPath id="clip0_636_7453">
<rect width="47.66" height="12.1692" fill="white" transform="translate(11.34 28.8741)"/>
</clipPath>
</defs>
</svg>
