<svg width="70" height="70" viewBox="0 0 70 70" fill="none" xmlns="http://www.w3.org/2000/svg">
<g clip-path="url(#clip0_208_173)">
<path fill-rule="evenodd" clip-rule="evenodd" d="M21.2392 35.4313V29.768H28.4984C29.3235 29.768 30.0651 29.9337 30.7229 30.2652C30.8792 30.3414 31.0279 30.4245 31.1691 30.5145C31.6669 30.8135 32.0755 31.1946 32.3946 31.6579C32.7848 32.2246 32.9799 32.8769 32.9799 33.6147C32.9799 34.0175 32.9269 34.1513 32.819 34.2674C32.7848 34.4596 32.7361 34.6459 32.673 34.8265C34.4377 34.8068 36.2024 34.8212 37.9667 34.8695V29.8295H48.8222V32.4439H41.1448V34.9934C46.2273 35.2506 51.298 35.7904 56.3313 36.6128L57.5239 35.3045L52.3644 29.8295H56.5293L59.7702 33.3563L62.7348 29.8295H66.8159L61.7327 35.4713L67 41.0569H62.8184L62.2554 40.4433C60.7299 40.1173 59.1994 39.8181 57.6653 39.5459L56.3453 41.0569H52.2808L54.1788 38.9745C49.8545 38.3244 45.5041 37.8866 41.1448 37.6613V38.4425H49.0731V41.0569H37.9667V37.5347C35.0355 37.4526 32.1021 37.4665 29.1714 37.5762C28.8487 37.6316 28.5128 37.6593 28.1638 37.6593H27.3016C26.4173 37.7047 25.5335 37.7589 24.6502 37.8218V41.0569H21.3384V40.9954H21.2392V38.1086C19.617 38.2658 17.9972 38.4525 16.3807 38.6688L17.6189 41.0569H14.2569L13.2377 39.1274C11.0426 39.4743 8.85454 39.876 6.67571 40.3326L6.29509 41.0569H3L8.85425 29.8295H11.7981L15.0783 36.1565C17.1271 35.8681 19.1814 35.6264 21.2392 35.4313ZM11.9229 36.638L10.9952 34.8818L10.6272 34.1761C10.5269 33.9622 10.4377 33.7591 10.3596 33.5666C10.3299 33.4894 10.3003 33.4129 10.2706 33.3372C10.2344 33.4244 10.1972 33.5115 10.1589 33.5987C10.0697 33.8018 9.96933 34.0103 9.85782 34.2242C9.75745 34.438 9.65152 34.6573 9.54002 34.8818L8.27494 37.2892C9.48846 37.0556 10.7045 36.8385 11.9229 36.638ZM24.6 32.5722V34.9166H24.8555C25.2884 34.8607 26.1205 34.8796 27.0785 34.9166H27.4613C27.8293 34.9166 28.1528 34.8685 28.4314 34.7722C28.7213 34.6653 28.9556 34.5103 29.1339 34.3071C29.3124 34.1039 29.4017 33.8687 29.4017 33.6014C29.4017 33.3554 29.3124 33.1523 29.1339 32.9919C29.0901 32.9524 29.0428 32.9156 28.9921 32.8813C28.8584 32.8056 28.7046 32.7454 28.5308 32.7005C28.252 32.6149 27.9285 32.5722 27.5606 32.5722H24.6Z" fill="white"/>
</g>
<defs>
<clipPath id="clip0_208_173">
<rect width="64" height="12.928" fill="white" transform="translate(3 29)"/>
</clipPath>
</defs>
</svg>
