<svg width="90" height="90" viewBox="0 0 90 90" fill="none" xmlns="http://www.w3.org/2000/svg">
<path d="M66.1786 35.7163C65.8562 35.9665 60.1634 39.1742 60.1634 46.3068C60.1634 54.5569 67.4072 57.4755 67.624 57.5478C67.5907 57.7257 66.4732 61.5449 63.8048 65.4364C61.4254 68.861 58.9404 72.2799 55.16 72.2799C51.3797 72.2799 50.4068 70.084 46.0428 70.084C41.7899 70.084 40.2778 72.3522 36.8199 72.3522C33.362 72.3522 30.9492 69.1834 28.1751 65.2919C24.9619 60.7221 22.3657 53.6229 22.3657 46.885C22.3657 36.0777 29.3926 30.346 36.3084 30.346C39.9831 30.346 43.0463 32.7588 45.3534 32.7588C47.5493 32.7588 50.9739 30.2015 55.1545 30.2015C56.7389 30.2015 62.4316 30.346 66.1786 35.7163ZM53.1698 25.6262C54.8988 23.5748 56.1218 20.7284 56.1218 17.8821C56.1218 17.4874 56.0885 17.0871 56.0162 16.7646C53.2032 16.8703 49.8565 18.6381 47.8384 20.9786C46.254 22.7798 44.7753 25.6262 44.7753 28.5115C44.7753 28.9451 44.8475 29.3787 44.8809 29.5177C45.0588 29.5511 45.3479 29.59 45.6369 29.59C48.1609 29.59 51.3352 27.9 53.1698 25.6262Z" fill="white"/>
</svg>
