<svg width="70" height="70" viewBox="0 0 70 70" fill="none" xmlns="http://www.w3.org/2000/svg">
<path d="M22.1465 25.0971C15.5423 24.5714 9.99369 32.3887 12.702 38.4304C15.3409 44.986 25.2715 46.7637 29.9937 41.5137C34.5701 37.0276 36.334 30.1248 41.9381 26.5832C47.6326 22.6943 56.7993 26.3665 57.9104 33.2776C58.9937 39.8957 51.8617 46.3332 45.4104 44.3887C40.6395 43.3123 37.2159 39.236 35.2715 34.9443C32.8756 30.8471 29.7437 26.4721 24.8548 25.361C23.9867 25.1637 23.0909 25.086 22.202 25.0873L22.1465 25.0971Z" stroke="white" stroke-width="4.09722"/>
<path d="M18.2576 34.4721H26.5909" stroke="white" stroke-width="1.73611"/>
<path d="M43.8131 34.4721H50.7576M47.2159 30.9999V37.9443" stroke="white" stroke-width="2.22222"/>
</svg>
