<svg width="90" height="90" viewBox="0 0 90 90" fill="none" xmlns="http://www.w3.org/2000/svg">
<path d="M19.7029 20.416C26.4923 20.416 32.0143 24.4018 36.3629 32.4008C40.6851 40.348 43.1103 51.0293 43.6452 64.4486H44.6709C46.3832 51.3177 49.8977 40.6873 55.1498 32.5856C60.4 24.48 66.4697 20.416 73.2581 20.416C74.1519 20.416 75.0055 20.4864 75.8289 20.6125L75.9971 17.3963C76.0567 16.2561 75.1816 15.3301 74.0414 15.3301H19.4223C18.2821 15.3301 17.3101 16.2561 17.2485 17.3963L17.0783 20.6184C17.9251 20.4884 18.8003 20.416 19.7029 20.416Z" fill="#0084D1"/>
<path d="M38.9094 62.7342C37.7751 54.4301 36.2301 47.6535 34.2743 42.4033C29.9805 31.0013 25.0305 25.2983 19.3862 25.2983C18.4768 25.2983 17.6192 25.4284 16.8154 25.6787L14.3883 72.0524C14.3267 73.1926 15.2039 74.1186 16.3441 74.1186H39.9978C39.7993 70.4907 39.4365 66.6995 38.9094 62.7342Z" fill="#0084D1"/>
<path d="M73.0557 24.8525C67.5952 24.8525 62.2169 30.1849 56.953 40.7968C54.2561 46.2015 51.8974 53.2196 49.7872 61.8406C48.7555 66.1021 47.9341 70.1945 47.322 74.1207H70.965C72.1052 74.1207 73.0772 73.1947 73.1368 72.0545L75.5893 25.229C74.8149 24.9806 73.9709 24.8525 73.0557 24.8525Z" fill="#0084D1"/>
</svg>
