<svg width="70" height="70" viewBox="0 0 70 70" fill="none" xmlns="http://www.w3.org/2000/svg">
<path d="M40.6853 27.4239H44.4187V28.9101C44.888 28.308 45.4903 27.8226 46.1784 27.492C46.8666 27.1614 47.6219 26.9946 48.3853 27.0046C49.2249 26.9912 50.0529 27.2026 50.7834 27.6167C51.514 28.0308 52.1205 28.6327 52.5403 29.36C53.8735 27.4545 55.8944 27.0046 57.303 27.0046C59.2463 27.0046 60.961 27.9185 61.8773 29.5202C62.1811 30.0549 62.7158 31.235 62.7158 33.5598V43.4692H58.9801V34.6268C58.9801 32.8367 58.7893 32.1112 58.6362 31.7697C58.4007 31.1596 57.8353 30.3564 56.5022 30.3564C56.0667 30.3643 55.6394 30.4752 55.255 30.6798C54.8706 30.8845 54.54 31.1773 54.2904 31.5341C53.6426 32.448 53.5673 33.8213 53.5673 35.1921V43.4692H49.8315V34.6268C49.8315 32.8367 49.6407 32.1112 49.4876 31.7697C49.2521 31.1596 48.6868 30.3564 47.3536 30.3564C46.9185 30.3645 46.4916 30.4754 46.1076 30.6801C45.7236 30.8848 45.3934 31.1775 45.1442 31.5341C44.4964 32.448 44.4187 33.8213 44.4187 35.1921V43.4692H40.6853V27.4239ZM27.7539 27.4239H31.4896V28.8725C31.9358 28.3477 32.463 27.8976 33.0513 27.5393C33.7495 27.1529 34.5413 26.9678 35.3384 27.0046C36.3687 26.9811 37.385 27.2454 38.2733 27.7678L36.7399 31.1596C36.1765 30.7821 35.5126 30.5827 34.8344 30.5872C34.0335 30.5872 33.2327 30.7003 32.5095 31.4635C31.4802 32.5682 31.4802 34.0921 31.4802 35.1592V43.4692H27.7562L27.7539 27.4239ZM10.8064 35.5031C10.8064 38.2848 12.5589 40.6097 15.2653 40.6097C17.6207 40.6097 19.7995 38.8949 19.7995 35.5407C19.7995 32.0335 17.6278 30.3587 15.2653 30.3587C12.5589 30.3587 10.8064 32.6459 10.8064 35.5031ZM19.571 27.4239H23.3139V43.4692H19.5734V41.7921C18.9836 42.4865 18.2471 43.0414 17.417 43.4169C16.5869 43.7925 15.6839 43.9792 14.773 43.9638C9.82654 43.9638 7 39.8489 7 35.4277C7 30.2056 10.5826 27.0046 14.813 27.0046C15.7311 26.985 16.6408 27.1818 17.4687 27.5792C18.2965 27.9765 19.0192 28.5632 19.5781 29.2917L19.571 27.4239Z" fill="white"/>
</svg>
