<svg width="90" height="90" viewBox="0 0 90 90" fill="none" xmlns="http://www.w3.org/2000/svg">
<mask id="mask0_2388_3630" style="mask-type:luminance" maskUnits="userSpaceOnUse" x="17" y="28" width="57" height="35">
<path d="M73.3312 28H17V62.4H73.3312V28Z" fill="white"/>
</mask>
<g mask="url(#mask0_2388_3630)">
<path d="M68.4131 28.0318L27.7037 32.8881C25.2371 33.1826 23.2018 34.956 22.5729 37.36L17.1201 58.2068C16.5429 60.3039 18.1186 62.375 20.294 62.3784L36.2878 62.4001C34.2959 62.3458 32.4892 61.2031 31.5925 59.4155L24.0385 44.3467C24.0385 44.3467 29.4387 36.7018 39.2582 35.2287C49.0769 33.7556 57.9146 37.3324 57.9146 37.3324L68.0311 57.497L73.2387 33.2802C73.8426 30.3423 71.391 27.6765 68.4131 28.0318Z" fill="url(#paint0_linear_2388_3630)"/>
<path d="M57.8446 42.5233C57.8446 42.5233 50.691 39.719 42.5548 40.3504C34.4186 40.9793 30.3496 46.6632 30.3496 46.6632C33.9973 52.4838 45.164 53.8168 45.164 53.8168L49.4273 62.4009H61.6291L54.8959 49.4684C57.2832 47.9961 57.8437 42.5242 57.8437 42.5242L57.8446 42.5233ZM45.9881 48.8003C41.291 49.6077 37.1537 46.0668 37.1537 46.0668C37.1537 46.0668 38.9746 44.6112 41.9091 43.7787C41.8925 43.8997 41.8841 44.0206 41.8841 44.1441C41.8841 45.7098 43.1528 46.976 44.716 46.976C46.2792 46.976 47.5479 45.7098 47.5479 44.1441C47.5479 43.8062 47.4904 43.4818 47.3803 43.1823C50.4407 43.2699 52.4076 43.9264 52.4076 43.9264C52.4076 43.9264 50.6876 47.9954 45.9881 48.8003Z" fill="url(#paint1_linear_2388_3630)"/>
</g>
<defs>
<linearGradient id="paint0_linear_2388_3630" x1="34.3234" y1="63.683" x2="57.3257" y2="29.0102" gradientUnits="userSpaceOnUse">
<stop stop-color="#F59820"/>
<stop offset="0.96" stop-color="#FA6701"/>
</linearGradient>
<linearGradient id="paint1_linear_2388_3630" x1="41.9225" y1="60.9445" x2="55.9753" y2="38.7847" gradientUnits="userSpaceOnUse">
<stop stop-color="#F59820"/>
<stop offset="1" stop-color="#FA6701"/>
</linearGradient>
</defs>
</svg>
