<svg width="90" height="90" viewBox="0 0 90 90" fill="none" xmlns="http://www.w3.org/2000/svg">
<g clip-path="url(#clip0_183_349)">
<path d="M69.7939 20.5167C63.2121 13.9349 54.4618 10.3105 45.1544 10.3105C35.8469 10.3105 27.0967 13.9349 20.5162 20.5167C13.9358 27.0985 10.3101 35.8474 10.3101 45.1549C10.3101 54.4623 13.9345 63.2126 20.5162 69.7944C27.098 76.3761 35.8483 80.0005 45.1557 80.0005C54.4632 80.0005 63.2134 76.3761 69.7952 69.7944C76.377 63.2126 80.0014 54.4623 80.0014 45.1549C80.0014 35.8474 76.377 27.0972 69.7952 20.5154L69.7939 20.5167ZM15.9355 45.1549C15.9355 37.3502 18.9746 30.013 24.4942 24.4934C30.0125 18.9751 37.3511 15.9347 45.1557 15.9347C52.9604 15.9347 60.2976 18.9737 65.8172 24.4934C67.4218 26.098 68.8161 27.8579 69.9881 29.7371H53.6475C49.2811 29.7371 45.729 33.2892 45.729 37.6556V39.5589C45.729 43.9253 49.2811 47.4774 53.6475 47.4774H62.4995C63.7639 47.4774 64.7926 48.506 64.7926 49.7704C64.7926 51.0348 63.7639 52.0635 62.4995 52.0635H47.0121L24.7045 29.7599V66.0226C24.6349 65.9543 24.5639 65.886 24.4942 65.8177C18.9759 60.2994 15.9355 52.9609 15.9355 45.1562V45.1549ZM65.8159 65.8164C60.2976 71.3347 52.959 74.3751 45.1544 74.3751C39.8557 74.3751 34.7741 72.9728 30.3286 70.3462V43.34L39.0307 52.042H33.6035V57.6675H44.6561L44.6789 57.6903H62.4969C66.8633 57.6903 70.4154 54.1382 70.4154 49.7718C70.4154 45.4053 66.8633 41.8533 62.4969 41.8533H53.6448C52.3804 41.8533 51.3518 40.8246 51.3518 39.5602V37.6569C51.3518 36.3926 52.3804 35.3639 53.6448 35.3639H72.699C73.7987 38.4659 74.3733 41.7662 74.3733 45.1562C74.3733 52.9609 71.3342 60.2981 65.8145 65.8177L65.8159 65.8164Z" fill="url(#paint0_linear_183_349)"/>
</g>
<defs>
<linearGradient id="paint0_linear_183_349" x1="80.0014" y1="45.1555" x2="10.3101" y2="45.1555" gradientUnits="userSpaceOnUse">
<stop stop-color="#8860E8"/>
<stop offset="1" stop-color="#1BE9D9"/>
</linearGradient>
<clipPath id="clip0_183_349">
<rect width="69.69" height="69.69" fill="white" transform="translate(10.3101 10.3105)"/>
</clipPath>
</defs>
</svg>
