<svg width="70" height="70" viewBox="0 0 70 70" fill="none" xmlns="http://www.w3.org/2000/svg">
<g clip-path="url(#clip0_28_143)">
<mask id="mask0_28_143" style="mask-type:luminance" maskUnits="userSpaceOnUse" x="0" y="27" width="71" height="15">
<path d="M70.5 27.5317H0.5V41.6122H70.5V27.5317Z" fill="white"/>
</mask>
<g mask="url(#mask0_28_143)">
<path d="M47.3606 31.1896C46.692 31.1896 46.1412 31.7009 46.1412 32.3301V39.0558H37.8816L36.859 37.2072L35.0893 34.1397V28.9086C35.0893 28.2794 34.5385 27.7681 33.8699 27.7681H27.8917C27.2231 27.7681 26.6724 28.2794 26.6724 28.9086V39.0952H25.5318L22.7395 34.1787V28.9086C22.7395 28.2794 22.1887 27.7681 21.5201 27.7681H15.542C14.8733 27.7681 14.3226 28.2794 14.3226 28.9086V39.0952H12.4346L9.79955 28.633C9.68127 28.1217 9.17035 27.7681 8.61961 27.7681H5.35495C4.8046 27.7681 4.33231 28.1217 4.17501 28.633L1.3038 40.1573C1.1465 40.7865 1.53995 41.4157 2.20857 41.5335C2.248 41.5335 2.28742 41.5335 2.32644 41.5335C2.36587 41.5335 2.44472 41.5335 2.48374 41.5335C2.56259 41.5335 2.64104 41.5335 2.68047 41.5335C3.15236 41.4551 3.54581 41.1405 3.66369 40.6686L6.33817 30.0097H7.71483L10.3109 40.5113C10.4287 41.0226 10.9401 41.4157 11.4908 41.4157H15.542C16.2106 41.4157 16.7609 40.9043 16.7609 40.2751V30.0491H20.3796V34.4543C20.3796 34.651 20.4186 34.8473 20.5369 35.0046L23.8012 40.7865C23.9979 41.1405 24.4304 41.3762 24.8632 41.3762H27.9312C28.5998 41.3762 29.1501 40.8649 29.1501 40.2357V30.0491H32.7688V34.4543C32.7688 34.651 32.8082 34.8473 32.9261 35.0046L36.1904 40.7865C36.3477 41.0616 36.6232 41.2584 36.9378 41.3372C37.0557 41.3762 37.1345 41.3762 37.2524 41.3762H47.439C48.1077 41.3762 48.6584 40.8649 48.6584 40.2357V32.3696C48.5795 31.7009 48.0292 31.1896 47.3606 31.1896Z" fill="white"/>
<path d="M68.5203 27.5712C67.8517 27.453 67.2225 27.8464 67.1046 28.4756L64.9414 39.0951H64.3122L62.2275 28.6723C62.1097 28.1216 61.6378 27.7285 61.0476 27.7285H58.7666C58.1764 27.7285 57.7045 28.1216 57.5866 28.6723L55.4625 39.0557H54.8333L52.7095 28.6723C52.5913 28.1216 52.1194 27.7285 51.5296 27.7285H50.5464H40.0448C39.3762 27.7285 38.8258 28.2399 38.8258 28.8691V36.7352C38.8258 37.3644 39.3762 37.8757 40.0448 37.8757C40.7134 37.8757 41.2641 37.3644 41.2641 36.7352V30.049H50.5464V30.0884L52.6307 40.4718C52.749 41.0225 53.2209 41.4156 53.8106 41.4156H56.4457C57.0359 41.4156 57.5078 41.0225 57.6256 40.4718L59.7498 30.0884H60.0644L62.1881 40.4718C62.3064 41.0225 62.7783 41.4156 63.368 41.4156H66.0031C66.5933 41.4156 67.0652 41.0225 67.183 40.4718L69.3072 29.695V28.0826C69.1499 27.807 68.8743 27.6107 68.5203 27.5712Z" fill="white"/>
</g>
</g>
<defs>
<clipPath id="clip0_28_143">
<rect width="70" height="70" fill="white"/>
</clipPath>
</defs>
</svg>
