<svg width="90" height="90" viewBox="0 0 90 90" fill="none" xmlns="http://www.w3.org/2000/svg">
<path d="M78.358 40.7526C78.6333 40.7526 78.9031 40.8234 79.1661 40.9653C79.4255 41.1048 79.6389 41.317 79.7801 41.5759C79.9263 41.84 80 42.1161 80 42.4036C80 42.6911 79.9279 42.9615 79.783 43.2233C79.6429 43.4813 79.432 43.6935 79.1759 43.8346C78.9267 43.9769 78.645 44.0521 78.358 44.0526C78.0714 44.0521 77.7896 43.9769 77.54 43.8346C77.2831 43.6935 77.0718 43.4813 76.9314 43.2233C76.7893 42.9738 76.7144 42.6911 76.7135 42.4036C76.7135 42.1161 76.7872 41.84 76.9341 41.5759C77.0759 41.3166 77.29 41.1044 77.5502 40.9653C77.7974 40.8275 78.0754 40.7543 78.358 40.7526ZM78.358 41.0257C78.1271 41.0257 77.9028 41.0855 77.6841 41.2045C77.4655 41.3231 77.2945 41.4936 77.1711 41.7136C77.0478 41.9345 76.9863 42.1647 76.9863 42.404C76.9863 42.6432 77.047 42.869 77.1683 43.087C77.2888 43.305 77.4581 43.4751 77.676 43.597C77.8836 43.716 78.1186 43.779 78.3576 43.7797C78.5965 43.779 78.8315 43.716 79.0391 43.597C79.2529 43.4788 79.4288 43.3021 79.5456 43.087C79.6661 42.869 79.726 42.6412 79.726 42.404C79.726 42.1669 79.6654 41.9341 79.5428 41.7136C79.4203 41.4932 79.2493 41.3231 79.0298 41.2045C78.8104 41.0859 78.5868 41.0257 78.358 41.0257ZM77.6374 43.3156V41.5403H78.244C78.4524 41.5403 78.6026 41.5562 78.6955 41.589C78.7884 41.6216 78.862 41.6794 78.9178 41.7607C78.9724 41.8429 79.0005 41.9296 79.0005 42.0213C79.0005 42.1513 78.9545 42.2641 78.8624 42.3599C78.7696 42.4564 78.6479 42.51 78.4951 42.5222C78.5579 42.548 78.6084 42.5795 78.6454 42.6162C78.7163 42.6866 78.8034 42.804 78.9069 42.9688L79.1222 43.316H78.7736L78.6165 43.0359C78.4931 42.8162 78.3943 42.6785 78.3185 42.6232C78.2664 42.5824 78.1899 42.5619 78.0901 42.5619H77.9227V43.3156H77.6374ZM77.9224 42.3165H78.2688C78.4338 42.3165 78.5465 42.2911 78.6071 42.2416C78.6666 42.1938 78.7 42.121 78.6975 42.0445C78.6975 41.9943 78.6825 41.9448 78.6536 41.9035C78.6234 41.8614 78.5815 41.8294 78.533 41.811C78.4809 41.7901 78.3861 41.7804 78.2456 41.7804H77.9219L77.9224 42.3165ZM46.6791 40.6437H46.7336V44.4382H42.917V40.6437H46.6791ZM30.0695 48.6679L38.896 49.2175C39.2633 49.2175 39.5634 49.5192 39.5634 49.8877C39.5634 50.2562 39.2633 50.5581 38.896 50.5581H26.3164V45.619C26.7028 47.144 28.0337 48.391 30.0695 48.6679ZM26.3164 54.3738H39.177C41.0515 54.3738 42.6255 53.0151 42.9724 51.23C43.2786 53.009 44.8277 54.3738 46.6791 54.3738H54.8961C56.7315 54.3738 58.2714 53.0311 58.5946 51.273V54.3738H71.7691C73.8956 54.3738 75.6357 52.6262 75.6357 50.4894V49.9398C75.6357 47.8036 73.896 46.0558 71.7691 46.0558L71.0464 46.0239C66.9476 45.8426 62.8611 45.6353 58.7673 45.423C59.0861 47.0364 60.4415 48.3799 62.5644 48.6683L71.4878 49.2179C71.8559 49.2191 72.1542 49.5181 72.1555 49.8881C72.1539 50.2579 71.8559 50.5573 71.4878 50.5585H58.6578V45.4174L54.8415 45.2198V49.617C54.8399 50.2341 54.342 50.7344 53.7276 50.736H47.8476C47.2332 50.7344 46.7353 50.2346 46.7336 49.617V44.7998L42.917 44.6023V48.961C42.4806 47.3121 40.9656 46.1236 39.177 46.1236L22.3688 45.0198V54.375L26.3164 54.3738ZM42.3107 44.4403V40.625H30.0695C28.2621 40.625 26.735 41.8866 26.3169 43.577V40.6437H19.0097L16.5196 44.4386H26.204L42.3107 44.4403ZM20.7569 44.9249L14.7213 54.3738H10L16.3674 44.6705L20.7569 44.9249ZM75.6354 44.4403V40.625H62.5639C60.4606 40.625 58.7364 42.3345 58.698 44.4386L75.6354 44.4403ZM54.8411 44.4382V40.6437H58.6574V44.4382H54.8411Z" fill="white"/>
</svg>
