<svg width="90" height="90" viewBox="0 0 90 90" fill="none" xmlns="http://www.w3.org/2000/svg">
<path d="M60.8676 42.7193V50.2338C60.8676 51.0807 61.5559 51.5972 62.6853 51.5972H64.419V56.2144H61.7766C59.7356 56.2144 57.9669 55.7526 56.8485 54.8514C55.7298 53.9501 55.1859 52.5001 55.1859 50.3071V42.7193H52.865C52.9897 43.4715 53.0556 44.2444 53.0556 45.0324C53.0556 46.2505 52.9146 47.362 52.6607 48.0639C52.4091 48.7603 51.7254 49.9302 50.1168 50.1315C49.0437 50.2658 47.9611 49.7728 47.9611 48.637V36.0965H43.5879L43.2358 37.8614C41.9934 36.5353 40.0945 35.7383 37.9648 35.7383C33.0483 35.7383 29.2637 39.8114 29.2637 45.0327C29.2637 49.8759 33.351 54.4386 38.8504 54.4386C41.5171 54.4386 43.2052 53.412 44.6821 52.1399L47.9158 55.0146C45.4978 57.2428 42.5772 58.7003 38.8502 58.7003C30.9417 58.7003 25 52.1515 25 45.0324C25 37.0919 31.0979 31 39.0324 31C44.4062 31 49.0694 34.0214 51.4242 38.4576H55.1853V33.4861H60.867V38.4579H64.4184V42.7196L60.8676 42.7193ZM38.8504 40.0564C36.1046 40.0564 33.879 42.2825 33.879 45.0281C33.879 47.7742 36.1046 50.0004 38.8504 50.0004C41.5963 50.0004 43.8224 47.7742 43.8224 45.0281C43.8224 42.2825 41.5963 40.0564 38.8504 40.0564Z" fill="white"/>
</svg>
