<svg width="70" height="70" viewBox="0 0 70 70" fill="none" xmlns="http://www.w3.org/2000/svg">
<g clip-path="url(#clip0_636_7433)">
<path fill-rule="evenodd" clip-rule="evenodd" d="M56.2279 47.4621L57.5365 44.5748H10V47.4621H56.2279Z" fill="white"/>
<path fill-rule="evenodd" clip-rule="evenodd" d="M16.0239 43.5741V41.3031H14.9462L17.1786 37.6274V43.5741H21.3355V28.3701H17.7176L10.1734 43.5741H16.0239Z" fill="white"/>
<path fill-rule="evenodd" clip-rule="evenodd" d="M22.5482 43.5741V27.0615H18.0832L20.9699 22H59.9617V27.0615H26.282V43.5741H22.5482Z" fill="white"/>
<path fill-rule="evenodd" clip-rule="evenodd" d="M27.6097 43.5741V28.3701H38.1178C40.7739 28.3701 41.4857 30.68 41.4857 31.8922V43.5741H37.6366C37.6366 43.5741 37.6366 30.68 37.6366 31.2573C37.6366 31.8152 37.7908 30.3333 37.1554 30.3333C37.1171 30.3333 36.4241 30.3333 36.4241 30.3333V43.5741H32.6904V30.1988H31.3626V43.5741H27.6097Z" fill="white"/>
<path fill-rule="evenodd" clip-rule="evenodd" d="M42.5828 43.5741V28.3701H50.9161V32.6237H45.2773V33.7784H50.9547V37.8586H45.3156V38.8976H50.9161V43.5741H42.5828Z" fill="white"/>
<path fill-rule="evenodd" clip-rule="evenodd" d="M52.0707 43.5741V28.3701H56.0162V38.936H60L58.0755 43.5741H52.0707Z" fill="white"/>
</g>
<defs>
<clipPath id="clip0_636_7433">
<rect width="50" height="25.462" fill="white" transform="translate(10 22)"/>
</clipPath>
</defs>
</svg>
