<svg width="70" height="70" viewBox="0 0 70 70" fill="none" xmlns="http://www.w3.org/2000/svg">
<path fill-rule="evenodd" clip-rule="evenodd" d="M41.5289 24.0008C49.5753 23.9965 56.1822 24.01 56.2114 24.0307C56.2406 24.0514 55.4077 25.3513 52.4562 29.7695L29.3201 29.8022L28.9998 29.9561C28.8233 30.0408 28.5357 30.2296 28.3591 30.3763C28.1826 30.523 27.9071 30.8065 27.7469 31.006C27.586 31.2061 26.6442 32.699 25.6533 34.3251C24.6623 35.9505 22.8848 38.8352 21.7038 40.7356C20.5227 42.6352 19.4307 44.3902 18.9979 45.0804H15.9902C13.4986 45.0804 12.9854 45.064 13.0003 44.9842C13.0103 44.9308 15.5645 40.5318 18.6776 35.2083C23.8657 26.3349 24.3754 25.4901 24.7997 25.0649C25.0539 24.8092 25.439 24.5079 25.654 24.3954C25.869 24.2821 26.2377 24.1489 26.4726 24.0991C26.8094 24.0279 30.0043 24.0072 41.5289 24.0008Z" fill="#FF6600"/>
<path fill-rule="evenodd" clip-rule="evenodd" d="M33.1644 31.1954L36.9018 38.041C38.957 41.8061 40.647 44.9144 40.6569 44.9479C40.6662 44.9814 39.3407 45.0013 34.7455 44.9736L33.1288 41.9464H27.9677C24.5741 41.9464 22.8065 41.9222 22.8065 41.8752C22.8065 41.836 23.4793 40.6821 25.7964 36.8181L30.1902 36.7825L28.0745 33.043L28.3948 32.5445C28.5706 32.2702 28.8511 31.9483 29.0177 31.8279C29.1836 31.7083 29.5281 31.548 29.783 31.4711C30.0371 31.3949 30.534 31.3051 30.8864 31.2716C31.2388 31.2382 31.8951 31.2068 33.1644 31.1954ZM42.5968 31.1911H47.6511V45.0092H42.5968V31.1911Z" fill="#FDF5F5"/>
</svg>
