<svg width="70" height="70" viewBox="0 0 70 70" fill="none" xmlns="http://www.w3.org/2000/svg">
<path d="M2.35897 44.9998V35.2226V25.4453H67.641V44.9998H2.35897Z" fill="white"/>
<path d="M21.6879 44.4733V35.2225V25.9717H67.1146V44.4733H21.6879Z" fill="#020202"/>
<path d="M10.9163 27.7015C11.0367 27.5571 11.2676 27.3623 11.4293 27.2706C11.6293 27.1555 11.8482 27.1021 12.1174 27.1013C12.3589 27.1006 12.6221 27.1555 12.7943 27.2427C12.9493 27.3217 13.1508 27.4653 13.2411 27.5624C13.3321 27.6594 13.4592 27.8662 13.5231 28.0211C13.5878 28.1761 13.6397 28.4468 13.6389 28.6228C13.6382 28.7988 13.5765 29.0778 13.5021 29.2433C13.4276 29.4088 13.2336 29.6547 13.0711 29.7893C12.9086 29.924 12.7334 30.0338 12.6815 30.0338C12.6093 30.033 12.592 30.3158 12.6251 32.4608L12.9259 32.548C13.0914 32.5954 13.3569 32.718 13.8051 33.0038L14.6663 32.1389C15.4883 31.3123 15.5237 31.2649 15.4485 31.0671C15.4056 30.9536 15.3703 30.7084 15.3703 30.5219C15.3703 30.3361 15.4064 30.0902 15.45 29.9766C15.4944 29.863 15.6215 29.6728 15.732 29.5532C15.8433 29.4343 16.0697 29.2741 16.2352 29.1982C16.4006 29.1215 16.6797 29.0575 16.8557 29.0568C17.0316 29.056 17.3024 29.1079 17.4573 29.1726C17.6123 29.2365 17.8198 29.3636 17.9184 29.4546C18.0169 29.5449 18.1598 29.7547 18.2365 29.9202C18.3132 30.0857 18.3771 30.3737 18.3787 30.5595C18.3809 30.7738 18.317 31.022 18.2049 31.2364C18.1079 31.4229 17.8958 31.6703 17.7334 31.7877C17.5423 31.9253 17.3062 32.0148 17.0625 32.0419C16.8519 32.0652 16.5541 32.0426 16.0848 31.899L14.3955 33.6055L14.5211 33.7935C14.5896 33.8973 14.7039 34.168 14.9017 34.8088L17.3633 34.8517L17.4521 34.6043C17.501 34.4689 17.6612 34.2478 17.8093 34.1131C17.9567 33.9785 18.2049 33.8349 18.3599 33.7942C18.5148 33.7529 18.7434 33.7198 18.8675 33.7205C18.9916 33.7213 19.2285 33.7845 19.394 33.8612C19.5594 33.9371 19.7858 34.0973 19.8971 34.2162C20.0077 34.3358 20.1348 34.526 20.1792 34.6396C20.2228 34.7532 20.2589 35.033 20.2589 35.2601C20.2589 35.5233 20.204 35.7828 20.1085 35.9746C20.0257 36.14 19.831 36.3581 19.676 36.4597C19.5211 36.5612 19.2421 36.6785 19.0555 36.7214C18.86 36.7658 18.6216 36.7718 18.4915 36.7357C18.3674 36.7019 18.156 36.6176 18.0214 36.5499C17.8868 36.4815 17.6973 36.316 17.6002 36.1814C17.5025 36.0468 17.4009 35.8776 17.3746 35.8054C17.3302 35.6865 17.2091 35.6752 14.8979 35.7113L14.8115 36.0122C14.7641 36.1776 14.6475 36.4484 14.3828 36.9147L16.0095 38.5415L16.4608 38.452C16.8391 38.3775 16.973 38.382 17.2881 38.4813C17.528 38.5565 17.7612 38.7024 17.9334 38.8852C18.1154 39.0777 18.2297 39.2928 18.2861 39.547C18.3418 39.796 18.3463 40.0246 18.2997 40.2239C18.2613 40.3894 18.159 40.6263 18.0733 40.7504C17.9868 40.8745 17.7935 41.061 17.6446 41.164C17.4491 41.2994 17.2452 41.3603 16.9173 41.3829C16.5285 41.4092 16.4082 41.3844 16.1036 41.2137C15.9073 41.1039 15.6628 40.8865 15.5613 40.7316C15.4598 40.5767 15.3545 40.2976 15.3274 40.1111C15.2966 39.899 15.3161 39.6523 15.4831 39.1259L13.7961 37.4412L13.4735 37.6247C13.2967 37.7255 13.0162 37.8481 12.5499 37.9842L12.5311 39.1981C12.5123 40.4007 12.5138 40.4127 12.6815 40.4586C12.7748 40.4834 12.9673 40.594 13.1095 40.703C13.2516 40.8113 13.4291 41.0362 13.5028 41.2017C13.5765 41.3671 13.6382 41.6634 13.6389 41.8597C13.6397 42.0651 13.5795 42.3373 13.4975 42.499C13.4186 42.654 13.2749 42.8555 13.1779 42.9458C13.0809 43.0368 12.8741 43.1639 12.7191 43.2278C12.5642 43.2925 12.2761 43.3444 12.0798 43.3436C11.8497 43.3429 11.6181 43.2827 11.4293 43.1744C11.2676 43.0826 11.0307 42.8766 10.9028 42.7171C10.711 42.4787 10.6644 42.3463 10.6418 41.965C10.62 41.6048 10.6486 41.4318 10.7734 41.1829C10.8614 41.0069 11.0427 40.7835 11.1773 40.6865C11.3119 40.5887 11.4812 40.4872 11.5534 40.4608C11.6722 40.4165 11.6835 40.2954 11.6474 37.9842L11.3465 37.8977C11.1811 37.8503 10.9103 37.7345 10.444 37.4697L8.78941 39.1371L8.8932 39.5673C8.97518 39.905 8.97894 40.0675 8.912 40.3179C8.86462 40.4962 8.70217 40.773 8.54498 40.9429C8.39005 41.1107 8.12757 41.3002 7.9621 41.3641C7.76154 41.4413 7.53592 41.4659 7.28522 41.4378C7.05658 41.4122 6.80613 41.3212 6.64593 41.2062C6.50153 41.1016 6.30674 40.9053 6.21423 40.7707C6.12097 40.6353 6.02395 40.3555 5.99687 40.1487C5.96679 39.9103 5.98559 39.6629 6.04952 39.4718C6.10518 39.3064 6.23679 39.0732 6.34209 38.9536C6.44663 38.8348 6.66022 38.6739 6.81516 38.5964C6.97686 38.5159 7.25739 38.4565 7.47324 38.4565C7.68007 38.4565 7.92525 38.4881 8.01851 38.5264C8.16893 38.5889 8.2825 38.5024 9.88597 36.9147L9.65733 36.4258C9.53173 36.1573 9.42869 35.8776 9.42869 35.8054C9.42869 35.6858 9.32039 35.6737 6.98438 35.6737L6.79635 36.022C6.67602 36.2453 6.50078 36.4303 6.30749 36.5394C6.14203 36.6327 5.89684 36.7297 5.76222 36.7553C5.62759 36.7808 5.37414 36.7673 5.19815 36.7259C5.02215 36.6838 4.73485 36.5319 4.55886 36.3875C4.36482 36.228 4.19184 35.9994 4.11889 35.8054C4.04593 35.6121 4.00983 35.3376 4.02713 35.1097C4.04518 34.866 4.12716 34.6216 4.26028 34.414C4.41145 34.1778 4.57767 34.0424 4.89731 33.8958C5.24929 33.7341 5.39971 33.7047 5.70581 33.7393C5.94799 33.7664 6.18715 33.8574 6.37743 33.9943C6.54064 34.1116 6.74371 34.3493 6.98438 34.8397L9.42869 34.8464L9.47608 34.602C9.5024 34.4674 9.61296 34.1793 9.91756 33.5649L8.23135 31.8756L7.94631 31.9682C7.78912 32.0193 7.53416 32.0614 7.37923 32.0622C7.2243 32.0629 6.97009 32.0005 6.81516 31.923C6.66022 31.8456 6.42933 31.6681 6.30222 31.5282C6.16158 31.3732 6.03824 31.1266 5.9871 30.8979C5.93896 30.6866 5.92693 30.4068 5.95852 30.2586C5.9901 30.1142 6.08487 29.8773 6.17061 29.7322C6.25559 29.5878 6.45716 29.3847 6.61735 29.2809C6.85878 29.1252 7.00168 29.0929 7.44165 29.0929C7.89667 29.0929 8.01701 29.1222 8.26896 29.2952C8.43141 29.4065 8.63749 29.6269 8.72849 29.7841C8.81874 29.942 8.91501 30.206 8.94133 30.3714C8.97067 30.5512 8.94961 30.7994 8.78941 31.3033L10.4741 33.0038L10.9103 32.8037C11.1502 32.6939 11.4142 32.5916 11.497 32.5774C11.6391 32.5518 11.6481 32.4841 11.6662 31.292C11.682 30.215 11.6684 30.033 11.5722 30.033C11.5105 30.033 11.2901 29.8638 11.0833 29.657C10.8133 29.387 10.6937 29.2019 10.6599 28.9989C10.6336 28.8439 10.6313 28.5476 10.6546 28.3408C10.6847 28.0783 10.7637 27.8858 10.9163 27.7015Z" fill="#020202"/>
<path d="M11.4894 28.5294C11.515 28.385 11.609 28.1902 11.6985 28.097C11.8181 27.9729 11.9467 27.9277 12.1866 27.9277C12.4544 27.9277 12.5394 27.9646 12.665 28.1346C12.7492 28.2481 12.8169 28.4512 12.8154 28.5858C12.8139 28.7332 12.7387 28.9198 12.6251 29.0559C12.4739 29.2379 12.3784 29.2815 12.1362 29.2815C11.8873 29.2815 11.8015 29.2394 11.6391 29.0371C11.4797 28.8393 11.4511 28.743 11.4894 28.5294Z" fill="white"/>
<path d="M6.84146 30.1953C6.90915 30.0975 7.06409 29.9764 7.18593 29.9246C7.30852 29.8734 7.49654 29.8516 7.60334 29.8757C7.71014 29.9005 7.87635 30.0141 7.97337 30.1276C8.07039 30.2412 8.15011 30.4104 8.15011 30.5037C8.14936 30.5969 8.08167 30.7827 7.99969 30.9173C7.91696 31.0519 7.77331 31.1821 7.68005 31.2069C7.58679 31.2325 7.40102 31.2325 7.2664 31.2069C7.12275 31.1806 6.95879 31.076 6.86929 30.9549C6.78506 30.8414 6.71662 30.6631 6.71812 30.5601C6.71887 30.4563 6.77453 30.2923 6.84146 30.1953Z" fill="white"/>
<path d="M16.278 30.1163C16.3111 30.0577 16.4442 29.9689 16.5751 29.9185C16.7341 29.8569 16.8925 29.8481 17.0504 29.8922C17.1813 29.9291 17.3468 30.0351 17.4182 30.1276C17.4897 30.2209 17.5491 30.4066 17.5498 30.5413C17.5506 30.7112 17.4844 30.8541 17.3317 31.0113C17.1994 31.1467 17.0339 31.237 16.9181 31.237C16.8113 31.237 16.6383 31.1948 16.533 31.143C16.4285 31.0911 16.2946 30.9474 16.2359 30.8233C16.1773 30.6992 16.1502 30.5127 16.1742 30.4097C16.1991 30.3059 16.2457 30.1742 16.278 30.1163Z" fill="white"/>
<path d="M24.8993 35.2231C25.874 32.6381 26.6998 30.4465 26.7352 30.3532C26.7961 30.1931 26.8397 30.184 28.3439 30.1825L28.6245 30.9542C28.7786 31.3784 29.5826 33.6038 30.4107 35.9C31.2395 38.1961 31.9164 40.0997 31.9164 40.1305C31.9164 40.1614 31.5892 40.1787 30.4618 40.1493L29.5097 37.2537L25.4326 37.2913L24.4157 40.1493L23.7291 40.1681C23.1033 40.1854 23.0454 40.1749 23.0845 40.0553C23.1086 39.9831 23.9254 37.8088 24.8993 35.2231Z" fill="white"/>
<path d="M55.8331 32.8164L55.8361 31.798L55.8391 30.7797L57.0741 30.8233L57.1117 32.8164H58.315V33.8693H57.1117L57.1102 36.37C57.1094 38.4255 57.1282 38.8978 57.217 39.0212C57.2989 39.1355 57.4396 39.1806 58.2774 39.2468L58.315 40.1869L57.6569 40.1877C57.217 40.1884 56.8755 40.1448 56.6281 40.0561C56.3866 39.9703 56.1888 39.8334 55.8707 39.4093L55.8331 33.8693H54.9306V32.8164H55.8331Z" fill="white"/>
<path d="M41.2424 32.9811C41.4703 32.8728 41.7749 32.7592 41.9193 32.7291C42.0645 32.699 42.5887 32.6848 43.085 32.6975C43.7401 32.7148 44.0906 32.76 44.3636 32.863C44.5915 32.9487 44.8886 33.1526 45.118 33.3804C45.3511 33.6113 45.5316 33.8723 45.5873 34.0573C45.6489 34.2627 45.6775 35.096 45.6783 36.6897C45.6783 38.7948 45.6918 39.0385 45.8106 39.2009C45.9265 39.3589 45.9829 39.3754 46.5823 39.2844L46.5846 40.1493L46.1694 40.2057C45.9378 40.2373 45.5888 40.229 45.3789 40.1869C45.1082 40.1328 44.9502 40.0485 44.8149 39.8861C44.7118 39.762 44.6268 39.5755 44.6268 39.4724C44.6268 39.3686 44.6103 39.2844 44.5892 39.2844C44.5689 39.2844 44.332 39.4363 44.0628 39.6229C43.7852 39.8154 43.3551 40.0267 43.0662 40.1132C42.7428 40.2102 42.3472 40.2644 41.9757 40.2636C41.562 40.2629 41.2672 40.2148 40.9604 40.0982C40.7189 40.0064 40.385 39.7988 40.2045 39.6281C39.9879 39.4228 39.8428 39.1979 39.7623 38.946C39.6968 38.7391 39.6472 38.3668 39.6517 38.1187C39.6585 37.7862 39.7179 37.5486 39.8796 37.2161C40.0503 36.8642 40.1872 36.7047 40.5008 36.4911C40.7227 36.3407 41.0905 36.1632 41.3176 36.0963C41.5455 36.0301 42.2389 35.9225 42.8594 35.8579C43.6777 35.7729 44.0395 35.7037 44.1756 35.6059C44.2794 35.5322 44.4057 35.3908 44.4569 35.2908C44.508 35.1915 44.5501 35.0005 44.5509 34.8658C44.5509 34.7312 44.5073 34.5116 44.4531 34.377C44.396 34.2363 44.2275 34.0551 44.0583 33.9498C43.8943 33.849 43.5438 33.7339 43.2731 33.6926C42.906 33.6354 42.6721 33.6422 42.333 33.7181C42.0005 33.7926 41.8072 33.8896 41.5974 34.0882C41.4041 34.2717 41.2838 34.4725 41.1296 35.0749L40.0391 35.0727V34.8094C40.0391 34.6643 40.1135 34.3514 40.2045 34.1137C40.2955 33.8761 40.473 33.5685 40.5994 33.4301C40.7257 33.2917 41.0153 33.0901 41.2424 32.9811Z" fill="white"/>
<path d="M49.1018 33.0751C49.2673 32.9781 49.5892 32.8487 49.8163 32.787C50.0442 32.7261 50.4669 32.6735 50.7564 32.6705C51.046 32.6675 51.486 32.7186 51.7342 32.784C51.9824 32.8495 52.3208 32.9826 52.4863 33.0796C52.6517 33.1766 52.942 33.4196 53.1316 33.6189C53.3218 33.8189 53.546 34.1175 53.631 34.283C53.7159 34.4484 53.8581 34.8207 53.9461 35.1103C54.0341 35.3998 54.1273 35.8902 54.1522 36.2008C54.1845 36.5979 54.1597 36.9544 54.0687 37.4042C53.9972 37.7554 53.8408 38.2548 53.7205 38.5135C53.6001 38.7722 53.3406 39.1468 53.1444 39.3468C52.9481 39.5469 52.6517 39.78 52.4863 39.8658C52.3208 39.9515 51.9824 40.0749 51.7342 40.1403C51.486 40.2057 51.0633 40.2599 50.794 40.2614C50.5255 40.2621 50.1104 40.2117 49.8727 40.1493C49.6351 40.0876 49.2966 39.9628 49.1206 39.8733C48.9446 39.7838 48.64 39.5469 48.4437 39.3468C48.2474 39.1468 47.9857 38.7722 47.8616 38.5135C47.7383 38.2548 47.5856 37.781 47.5232 37.4606C47.4608 37.1402 47.4096 36.7085 47.4096 36.5016C47.4096 36.2948 47.4623 35.8631 47.5269 35.5427C47.5916 35.2223 47.7435 34.7485 47.8654 34.4898C47.9872 34.2311 48.2474 33.8467 48.4437 33.6354C48.64 33.4241 48.9364 33.1714 49.1018 33.0751Z" fill="white"/>
<path d="M60.6127 33.0089C60.7759 32.9284 61.0624 32.8186 61.2482 32.7652C61.4693 32.7013 61.9003 32.6765 62.4892 32.693C63.1856 32.7126 63.4864 32.7554 63.8053 32.8788C64.0332 32.9668 64.3378 33.1353 64.4822 33.2526C64.6274 33.3699 64.8304 33.6331 65.1215 34.2077L65.1591 39.2092L65.3283 39.2934C65.4216 39.3393 65.6074 39.3649 65.9857 39.322L65.9887 40.1493L65.5547 40.205C65.3133 40.2358 64.9884 40.2275 64.8207 40.1862C64.6552 40.1463 64.4439 40.0621 64.3506 39.9997C64.2558 39.9357 64.14 39.7379 63.9934 39.2137L63.8053 39.3897C63.7023 39.4867 63.4819 39.6529 63.3165 39.759C63.151 39.8643 62.7787 40.026 62.4892 40.117C62.062 40.2516 61.8348 40.2764 61.2858 40.2516C60.7541 40.2275 60.5202 40.1787 60.1953 40.0237C59.9681 39.9154 59.6703 39.6958 59.5349 39.5364C59.3988 39.3769 59.2333 39.0603 59.1679 38.8331C59.0852 38.5481 59.0626 38.2849 59.0949 37.987C59.1213 37.7494 59.2236 37.3936 59.3236 37.1973C59.4229 37.001 59.6004 36.7506 59.7184 36.6415C59.8358 36.5325 60.0674 36.3753 60.2329 36.2926C60.3983 36.2091 60.6691 36.1045 60.8345 36.0602C61 36.015 61.6431 35.924 62.2635 35.8571C62.884 35.7902 63.4676 35.7052 63.5609 35.6676C63.6542 35.63 63.7865 35.5059 63.8565 35.3923C63.9482 35.2419 63.9738 35.0697 63.9505 34.7598C63.9257 34.4364 63.873 34.2867 63.7301 34.1363C63.6271 34.028 63.3902 33.8813 63.2037 33.8106C62.984 33.7279 62.6539 33.6835 62.2635 33.685C61.8017 33.6873 61.5919 33.7249 61.361 33.846C61.1956 33.9325 60.9925 34.0799 60.9098 34.1724C60.827 34.2649 60.7217 34.4973 60.5931 35.0351L59.4432 35.0727L59.486 34.7154C59.5101 34.5191 59.6056 34.1889 59.6989 33.9821C59.7921 33.7753 59.9689 33.5045 60.0922 33.3804C60.2148 33.2563 60.4487 33.0886 60.6127 33.0089Z" fill="white"/>
<path d="M33.8012 37.1409C33.1965 35.4863 32.5948 33.8362 32.4639 33.4745L32.2255 32.8164H33.6462L33.9418 33.7753C34.1042 34.3025 34.5141 35.6307 34.8518 36.7273C35.1895 37.8231 35.4881 38.7467 35.5152 38.7782C35.5423 38.8106 36.0379 37.4809 37.6699 32.8119L38.2904 32.8141C38.7364 32.8156 38.9102 32.8427 38.9086 32.9104C38.9079 32.9623 38.3062 34.6116 36.2395 40.1493H34.9007L33.8012 37.1409Z" fill="white"/>
<path d="M10.72 33.9069C10.8231 33.7828 11.0908 33.588 11.3149 33.4737C11.6293 33.3135 11.8264 33.2661 12.1738 33.2684C12.4626 33.2699 12.7477 33.3263 12.9635 33.4241C13.1501 33.5083 13.3998 33.6685 13.5186 33.7798C13.6374 33.8911 13.8149 34.1513 13.9127 34.3582C14.0323 34.6109 14.0902 34.8696 14.0909 35.1479C14.0909 35.375 14.0571 35.6886 14.0165 35.8436C13.9751 35.9985 13.8315 36.2677 13.6968 36.4407C13.5569 36.622 13.2757 36.8476 13.0387 36.9695C12.7439 37.1221 12.5168 37.183 12.249 37.1815C12.0422 37.1808 11.7211 37.1296 11.5346 37.068C11.3488 37.0063 11.0607 36.8423 10.8953 36.704C10.72 36.5573 10.5177 36.282 10.4109 36.0444C10.2861 35.7676 10.2282 35.5044 10.2297 35.2231C10.2312 34.9764 10.2928 34.6725 10.3823 34.471C10.4651 34.2845 10.617 34.031 10.72 33.9069Z" fill="white"/>
<path d="M4.8469 35.2171C4.85066 35.0704 4.93038 34.9057 5.06651 34.7658C5.20114 34.6282 5.35983 34.5454 5.49371 34.5432C5.61028 34.5424 5.79078 34.6041 5.89382 34.6816C5.99761 34.759 6.10892 34.9215 6.14126 35.0418C6.17511 35.1659 6.16683 35.366 6.12246 35.5051C6.07432 35.6563 5.9585 35.7924 5.81861 35.8624C5.65089 35.9466 5.53056 35.9571 5.34855 35.9037C5.21393 35.8654 5.0447 35.7465 4.9725 35.6405C4.9003 35.5352 4.84389 35.3442 4.8469 35.2171Z" fill="white"/>
<path d="M18.1267 35.1103C18.1417 35.0275 18.2433 34.8666 18.3516 34.753C18.4779 34.6214 18.6283 34.5462 18.7652 34.5462C18.8833 34.5462 19.048 34.58 19.1307 34.6214C19.2135 34.6628 19.3293 34.8064 19.3872 34.941C19.4459 35.0757 19.479 35.2697 19.4609 35.3735C19.4436 35.4765 19.3451 35.6443 19.2428 35.7458C19.1044 35.8827 18.9848 35.9263 18.7742 35.9165C18.6186 35.9097 18.4441 35.8609 18.3862 35.8082C18.3283 35.7548 18.2395 35.6104 18.1899 35.4863C18.1395 35.3622 18.1116 35.193 18.1267 35.1103Z" fill="white"/>
<path d="M6.81514 39.6206C6.86704 39.5161 7.01069 39.3814 7.13478 39.3213C7.25888 39.2618 7.37771 39.2115 7.39802 39.2099C7.41908 39.2077 7.54543 39.2408 7.68005 39.2829C7.83273 39.331 7.96735 39.4446 8.0373 39.5852C8.09972 39.7093 8.15011 39.8613 8.15011 39.9237C8.15011 39.9854 8.10424 40.1298 8.04783 40.2433C7.99142 40.3569 7.84777 40.4953 7.72819 40.5509C7.56498 40.6269 7.44615 40.6329 7.2476 40.5743C7.10319 40.5314 6.92495 40.4095 6.85275 40.3035C6.78054 40.1982 6.72113 40.044 6.72113 39.9613C6.72113 39.8786 6.76325 39.7251 6.81514 39.6206Z" fill="white"/>
<path d="M16.3277 39.4807C16.3871 39.4032 16.5097 39.3115 16.5992 39.2784C16.6887 39.2445 16.8632 39.2348 16.9873 39.2566C17.1114 39.2784 17.2889 39.3867 17.3821 39.4973C17.4746 39.6078 17.5521 39.7996 17.5536 39.9237C17.5551 40.0478 17.4934 40.2336 17.416 40.3373C17.3385 40.4404 17.1768 40.5517 17.0557 40.5848C16.9339 40.6179 16.7368 40.6111 16.6112 40.5697C16.4751 40.5246 16.3352 40.3975 16.2577 40.2471C16.1818 40.1004 16.1479 39.9222 16.1742 39.8109C16.1991 39.7071 16.2675 39.5589 16.3277 39.4807Z" fill="white"/>
<path d="M11.5646 41.5181C11.6391 41.4016 11.773 41.2767 11.8617 41.2406C11.9505 41.2038 12.049 41.1722 12.0798 41.1692C12.1107 41.1669 12.2551 41.215 12.3995 41.2775C12.5446 41.3391 12.6965 41.458 12.7379 41.5407C12.7793 41.6234 12.8131 41.7927 12.8131 41.9167C12.8131 42.0642 12.7372 42.2198 12.5935 42.368C12.4431 42.5222 12.3002 42.5936 12.1422 42.5936C11.9956 42.5936 11.8264 42.5177 11.6805 42.3868C11.53 42.2514 11.4466 42.1018 11.4398 41.9544C11.4338 41.8303 11.4902 41.634 11.5646 41.5181Z" fill="white"/>
<path d="M25.9259 35.9561C25.9402 35.9042 26.2862 34.9228 26.6946 33.7751C27.103 32.6274 27.4632 31.688 27.4956 31.688C27.5279 31.688 27.8641 32.6274 28.2424 33.7751C28.6207 34.9228 28.9419 35.9042 28.9569 35.9561C28.9772 36.0291 28.6388 36.0502 27.4414 36.0502C26.2441 36.0502 25.9056 36.0291 25.9259 35.9561Z" fill="#020202"/>
<path d="M49.5644 34.1865C49.7877 33.9894 50.0457 33.8397 50.23 33.7999C50.3954 33.7638 50.6323 33.7307 50.7564 33.7262C50.8805 33.7209 51.1596 33.7683 51.3769 33.8307C51.6199 33.9007 51.8899 34.0526 52.0779 34.2263C52.2463 34.3812 52.4554 34.661 52.5427 34.8468C52.6299 35.0326 52.7442 35.371 52.7976 35.5989C52.851 35.8268 52.8954 36.2239 52.8969 36.4826C52.8984 36.7413 52.8616 37.1302 52.8149 37.3475C52.7683 37.5649 52.6555 37.9116 52.5645 38.1184C52.4712 38.3313 52.2531 38.6246 52.0621 38.7953C51.859 38.9766 51.5845 39.1338 51.3724 39.1902C51.1784 39.2421 50.9099 39.2842 50.7752 39.2849C50.6406 39.2857 50.3616 39.2353 50.1548 39.1744C49.9216 39.1059 49.6682 38.9555 49.4877 38.7788C49.3275 38.6223 49.1364 38.3764 49.0627 38.2312C48.989 38.0861 48.8754 37.7649 48.81 37.5167C48.7446 37.2686 48.6904 36.8368 48.6897 36.5578C48.6889 36.2788 48.7258 35.8727 48.7717 35.6553C48.8183 35.4379 48.9334 35.0912 49.0281 34.8844C49.1274 34.6686 49.3553 34.3715 49.5644 34.1865Z" fill="#020202"/>
<path d="M42.7842 36.8835C43.2806 36.8023 43.8221 36.6872 43.9876 36.6278C44.153 36.5676 44.3305 36.515 44.3824 36.5104C44.4509 36.5037 44.4764 36.6782 44.4749 37.1595C44.4742 37.5213 44.4321 37.9492 44.3809 38.1094C44.3305 38.2703 44.1696 38.5215 44.0252 38.669C43.8808 38.8156 43.6266 38.9946 43.4611 39.0661C43.2956 39.1383 42.9572 39.239 42.709 39.2894C42.4608 39.3406 42.1058 39.3609 41.9193 39.3346C41.7328 39.3082 41.4816 39.2105 41.3605 39.1165C41.2394 39.0224 41.0957 38.8359 41.0408 38.7013C40.9867 38.5667 40.9416 38.3132 40.9416 38.1372C40.9423 37.95 41.004 37.716 41.092 37.5732C41.1762 37.437 41.3838 37.2625 41.562 37.1798C41.738 37.0978 42.2878 36.9647 42.7842 36.8835Z" fill="#020202"/>
<path d="M62.8652 36.7722C63.1548 36.7112 63.4767 36.6278 63.5797 36.5864C63.6835 36.545 63.8121 36.5089 63.8655 36.5059C63.9415 36.5022 63.958 36.6676 63.9385 37.2347C63.9181 37.8447 63.882 38.0252 63.7271 38.3064C63.6113 38.5155 63.3969 38.7397 63.1653 38.8931C62.9585 39.03 62.6712 39.1744 62.5268 39.215C62.3824 39.2548 62.0605 39.309 61.8123 39.3338C61.4453 39.3714 61.2941 39.3504 61.0038 39.2195C60.7608 39.1097 60.6074 38.9803 60.5254 38.8141C60.4585 38.6795 60.4013 38.4005 60.3991 38.1936C60.3961 37.9793 60.448 37.7123 60.5202 37.5732C60.5991 37.4205 60.7661 37.2731 60.9662 37.1806C61.1422 37.0993 61.5227 36.9993 61.8123 36.9579C62.1018 36.9166 62.5757 36.8331 62.8652 36.7722Z" fill="#020202"/>
</svg>
