<svg width="90" height="90" viewBox="0 0 90 90" fill="none" xmlns="http://www.w3.org/2000/svg">
<rect x="10" y="10" width="70" height="70" fill="#0F1932"/>
<path fill-rule="evenodd" clip-rule="evenodd" d="M63.0369 66.6042L60.8225 66.7206C60.8225 66.7206 68.7875 56.2311 62.6365 48.1503C55.1615 38.3307 18.5336 23.6008 18.5336 23.6008L21.6316 22.9604C21.6316 22.9604 62.4827 37.151 69.4718 47.4176C75.1856 55.8104 63.0369 66.6042 63.0369 66.6042ZM53.1772 56.2118L50.7223 56.4227C50.7223 56.4227 55.3614 52.0286 52.8757 49.1981C50.2237 46.1781 37.2864 42.722 37.2864 42.722L40.0323 42.3563C40.0323 42.3563 56.6893 45.2231 59.3194 48.5072C61.7721 51.5701 53.1772 56.2118 53.1772 56.2118Z" fill="white"/>
</svg>
