<svg width="90" height="90" viewBox="0 0 90 90" fill="none" xmlns="http://www.w3.org/2000/svg">
<path d="M61.9345 31.4268L58.2993 31.4673L47.2951 58.6912L52.219 58.714L52.2568 58.619L60.1288 39.1059L62.5162 45.065L57.0445 58.619L57.0071 58.714H61.9391L62.0344 58.505L67.4416 45.0276L61.9345 31.4268ZM26.4528 31.4293L37.3549 58.714L42.279 58.678L31.2664 31.4293H26.4528ZM36.5625 31.4293L44.6704 51.6398L44.7201 51.5477L52.7673 31.4704V31.4293H47.9845L47.9134 31.5623L44.6556 39.4193L41.4149 31.4293H36.5625ZM73.38 31.4293L67.8917 31.4517L70.6251 38.1175L73.38 31.4293ZM83.7163 31.4293L78.874 31.4296L73.5159 44.7804L79.0659 58.714H84.0003L78.3683 44.7677L83.7163 31.4293ZM70.6322 52.0258L67.9125 58.619L67.8754 58.714H73.3616L70.6322 52.0258Z" fill="#00AEEF"/>
<path d="M16.6847 31.4292L5.64841 58.7139H10.646L10.6847 58.6189L21.5689 31.5046L21.6155 31.4292H16.6847ZM23.9266 38.2081L23.8381 38.3156L21.476 44.1785L21.4383 44.2736L26.3947 44.2439L23.9266 38.2081ZM19.1805 49.8967L15.5861 58.7139H20.5944L22.3116 54.4578H25.5433L27.2201 58.6209L27.279 58.7162L32.2374 58.6759L28.6993 49.9357L19.1805 49.8967Z" fill="white"/>
</svg>
