<svg width="90" height="90" viewBox="0 0 90 90" fill="none" xmlns="http://www.w3.org/2000/svg">
<path d="M77.6373 61.8556C77.582 61.8508 77.5262 61.8415 77.4708 61.8415C55.8353 61.8408 34.1998 61.8408 12.5642 61.8415C12.4969 61.8415 12.4299 61.8508 12.3626 61.8556C12.3626 59.8912 12.3626 57.9268 12.3626 55.9624C12.4306 55.9641 12.4983 55.9675 12.5663 55.9675C34.2228 55.9675 55.8794 55.9675 77.5361 55.9675C77.5697 55.9675 77.6037 55.9641 77.6373 55.9624V61.8556Z" fill="#FE8801"/>
<path d="M25.3842 26.7031C25.5532 26.7262 25.7219 26.7528 25.8911 26.7714C27.2364 26.9188 28.5245 27.257 29.6917 27.9762C31.3838 29.0187 32.3615 30.5413 32.6304 32.5291C32.7905 33.7147 32.7063 34.8768 32.2445 35.9895C31.7118 37.2741 30.8037 38.2063 29.587 38.839C29.5367 38.8652 29.487 38.8917 29.4126 38.9311C29.5024 38.971 29.5751 39.0051 29.6488 39.0365C31.923 40.0004 33.1876 41.7318 33.443 44.2101C33.6129 45.8588 33.3046 47.409 32.3812 48.7992C31.4871 50.146 30.2221 50.9935 28.7272 51.5139C27.5496 51.924 26.3311 52.0974 25.0915 52.0994C20.8486 52.1067 16.6055 52.1022 12.3626 52.1022V26.7031C16.703 26.7031 21.0439 26.7031 25.3842 26.7031ZM18.2156 48.2251C18.2904 48.2251 18.3526 48.2251 18.4148 48.2251C20.2337 48.2251 22.0525 48.232 23.871 48.2196C24.2532 48.2168 24.6425 48.1789 25.015 48.0955C26.3725 47.7915 27.2649 46.9689 27.6052 45.5852C27.8273 44.6829 27.8072 43.7748 27.5506 42.8819C27.302 42.0172 26.7938 41.3521 25.9935 40.9365C25.3816 40.6187 24.7227 40.4929 24.042 40.4905C22.1498 40.4843 20.2571 40.4885 18.3648 40.4888C18.3159 40.4888 18.2669 40.4932 18.2149 40.4957L18.2156 48.2251ZM18.219 36.5996C19.911 36.5996 21.5874 36.6061 23.2638 36.5947C23.6463 36.592 24.0325 36.5517 24.4096 36.4855C25.0143 36.3794 25.5709 36.1436 26.0278 35.7125C26.6931 35.0849 26.9019 34.2833 26.8373 33.3979C26.7554 32.2748 26.1805 31.5114 25.1381 31.1144C24.6231 30.9183 24.0852 30.8487 23.5406 30.8467C21.8132 30.8401 20.0861 30.8442 18.3587 30.8442C18.3149 30.8442 18.271 30.8442 18.219 30.8442V36.5996Z" fill="white"/>
<path d="M67.6773 26.7031C67.8525 26.7259 68.0272 26.7524 68.2026 26.7714C69.8413 26.9464 71.3865 27.3941 72.7341 28.3963C74.1827 29.4736 75.0449 30.9383 75.4124 32.7025C75.751 34.3285 75.733 35.9568 75.2366 37.5494C74.4544 40.0597 72.7249 41.5892 70.2819 42.3491C70.1326 42.3957 69.9793 42.4284 69.8083 42.4728C72.3418 45.6796 74.8674 48.8765 77.406 52.0901C77.3526 52.0953 77.3122 52.1025 77.2717 52.1025C75.1075 52.1032 72.9432 52.1025 70.7793 52.1053C70.6787 52.1053 70.6161 52.0742 70.5532 51.9947C68.0897 48.8699 65.6242 45.7468 63.1554 42.6269C63.103 42.561 63.0041 42.4949 62.9262 42.4939C62.1107 42.4842 61.2947 42.4879 60.4788 42.4886C60.4628 42.4886 60.4465 42.4956 60.4173 42.5025V52.097H54.5942V51.8926C54.5942 43.5653 54.5942 35.2376 54.5942 26.9102C54.5942 26.8413 54.5908 26.7728 54.5887 26.7038C58.9517 26.7038 63.3144 26.7031 67.6773 26.7031ZM60.3748 38.3572C62.2966 38.3572 64.2001 38.3689 66.1033 38.3489C66.5796 38.3441 67.0647 38.2811 67.5288 38.1704C68.4882 37.9422 69.2436 37.4153 69.6608 36.4728C69.9643 35.7873 70.0092 35.066 69.9178 34.3326C69.7906 33.3128 69.3221 32.5144 68.4022 32.0308C67.7137 31.6686 66.9665 31.5501 66.2019 31.5473C64.3211 31.5401 62.4404 31.5448 60.5593 31.5448C60.4992 31.5448 60.439 31.5448 60.3741 31.5448L60.3748 38.3572Z" fill="white"/>
<path d="M39.4066 40.7241C38.9453 40.2186 38.4963 39.7264 38.0472 39.234C37.8282 38.9938 37.6068 38.7559 37.3913 38.5123C37.354 38.4699 37.3209 38.4048 37.3209 38.3503C37.3169 37.1045 37.3179 35.8586 37.3179 34.6011H48.832V38.4982H42.9899C44.3957 40.3547 45.7934 42.2005 47.2015 44.0606C47.7679 43.353 48.3228 42.6596 48.8854 41.9572C49.6422 42.9132 50.3884 43.8558 51.1378 44.8025C50.5738 45.5066 50.0176 46.2004 49.4556 46.9017C50.8392 48.6232 52.2185 50.339 53.6148 52.076C53.5468 52.0802 53.4999 52.0856 53.453 52.0856C51.8439 52.086 50.2348 52.085 48.6257 52.0888C48.5176 52.0888 48.4513 52.054 48.3829 51.9709C47.8982 51.3798 47.4079 50.7937 46.9102 50.1946C46.7432 50.3163 46.5795 50.4352 46.4159 50.5548C45.2926 51.3754 44.0144 51.7882 42.664 51.996C41.4597 52.1814 40.259 52.1556 39.0776 51.8286C36.9969 51.253 35.5994 49.9324 35.0091 47.824C34.4723 45.9061 34.9163 44.1987 36.2708 42.7409C36.9697 41.9886 37.8133 41.4579 38.7376 41.0443C38.9586 40.9454 39.1751 40.8351 39.4066 40.7241ZM41.679 43.5822C40.9957 43.9144 40.3616 44.2797 39.8364 44.8197C38.76 45.9267 39.2574 47.3142 40.0852 47.888C40.99 48.5149 41.9738 48.6228 42.9835 48.1745C43.4265 47.9776 43.8399 47.7123 44.2649 47.4748C44.3611 47.421 44.4501 47.3546 44.5535 47.2866C43.5901 46.0446 42.6387 44.8193 41.679 43.5822Z" fill="white"/>
</svg>
