<svg width="70" height="70" viewBox="0 0 70 70" fill="none" xmlns="http://www.w3.org/2000/svg">
<path d="M43.4444 37.6263C44.7418 37.6263 45.7028 36.5081 45.7028 35.1819C45.7028 33.8556 44.6697 32.7374 43.4444 32.7374C42.147 32.7374 41.186 33.8556 41.186 35.1819C41.186 36.5081 42.2431 37.6263 43.4444 37.6263ZM26.8188 32.7634C25.5214 32.7634 24.5604 33.8816 24.5604 35.2079C24.5604 36.5341 25.5935 37.6523 26.8188 37.6523C28.0441 37.6523 29.0772 36.5341 29.0772 35.2079C29.0772 33.8816 28.02 32.7634 26.8188 32.7634ZM26.8188 27.8746C23.0948 27.8746 20.0676 31.1512 20.0676 35.1819C20.0676 39.2126 23.0948 42.4892 26.8188 42.4892H43.7327C47.4567 42.4892 50.4839 39.2126 50.4839 35.1819C50.4839 31.1512 47.4567 27.8746 43.7327 27.8746H26.8188ZM43.7087 47.404H26.8188C20.5721 47.404 15.5508 41.9691 15.5508 35.2079C15.5508 28.4467 20.5721 23.0117 26.8188 23.0117H43.7327C49.9794 23.0117 55.0007 28.4467 55.0007 35.2079C55.0007 41.9691 49.8592 47.404 43.7087 47.404Z" fill="white"/>
</svg>
