<svg width="90" height="90" viewBox="0 0 90 90" fill="none" xmlns="http://www.w3.org/2000/svg">
<path d="M47.4137 48.7601L33.7769 48.7375C32.7252 51.2896 30.6627 52.9758 27.9444 53.5122C21.361 54.8117 16.5167 49.0578 18.2226 42.7328C20.205 35.3878 30.8637 34.939 33.7784 41.799H47.3276C48.423 37.1708 51.1081 33.079 55.2377 30.6402C70.3809 21.6996 87.2664 38.6017 78.6748 53.9263C71.153 67.3455 50.138 63.8672 47.4122 48.7571L47.4137 48.7601ZM62.8093 34.8876C50.2196 36.1795 51.2259 56.8168 65.0289 55.6926C77.738 54.6576 76.6455 33.4673 62.8093 34.8876Z" fill="white"/>
<path d="M42.1404 39.8283H39.7983C36.6177 31.9197 27.6559 28.4338 19.8516 31.9695C9.03582 36.8682 8.84091 53.3019 19.5252 58.4408C27.3144 62.1881 36.666 58.7611 39.7983 50.709H42.1404C38.381 63.5903 20.8745 66.3947 12.7665 55.8313C6.52453 47.6991 8.7306 35.3602 17.8087 30.383C26.9578 25.368 39.2 29.635 42.1389 39.8298L42.1404 39.8283Z" fill="#E29534"/>
<path d="M37.4563 39.8306H34.8876C32.606 35.3611 26.698 33.9437 22.1982 35.6784C16.3355 37.9373 14.267 45.4787 17.3902 50.7567C21.204 57.2056 31.2869 57.2782 34.8891 50.7098H37.4578C36.1387 54.6551 31.6329 57.6242 27.5577 57.9596C8.45112 59.5326 9.4378 29.9411 28.2951 32.7485C32.1829 33.3272 36.1705 36.0682 37.4578 39.8291L37.4563 39.8306Z" fill="#E29534"/>
</svg>
