<svg width="70" height="70" viewBox="0 0 70 70" fill="none" xmlns="http://www.w3.org/2000/svg">
<path d="M49.4044 30.8802C50.081 27.2153 46.9377 24.2834 42.1592 22.6483C40.8624 18.0954 37.9305 15.4031 33.7018 15.4031C32.5747 15.3803 31.4548 15.5873 30.4103 16.0113C29.3658 16.4354 28.4187 17.0678 27.6265 17.8699C24.4832 18.0672 24.4832 21.8026 21.6641 27.1308C19.5074 31.3595 21.1989 35.5882 26.4284 36.293C25.6006 38.2866 25.1651 40.4211 25.1457 42.5797C22.4957 39.5491 23.2287 36.4057 21.7486 36.4903C19.888 36.589 22.2561 43.1717 25.5545 46.8366C25.6782 47.4576 25.843 48.0698 26.0478 48.669C25.408 48.881 24.8442 49.2755 24.426 49.804C24.0077 50.3325 23.7532 50.9718 23.6938 51.6432C23.6938 53.2078 24.7651 53.3629 26.1606 53.377C26.1164 53.557 26.0928 53.7414 26.0901 53.9267C26.0829 54.1294 26.1239 54.3309 26.2096 54.5146C26.2954 54.6984 26.4235 54.8592 26.5835 54.9839C27.044 55.2836 27.5848 55.436 28.134 55.4209H28.4441C29.5671 55.47 30.668 55.098 31.5311 54.3778C31.8059 54.138 32.0279 53.8439 32.1832 53.5139C32.3385 53.1839 32.4236 52.8253 32.4332 52.4608C32.4487 52.3108 32.4487 52.1596 32.4332 52.0097C32.4285 51.9252 32.4285 51.8405 32.4332 51.756C33.6196 51.6502 34.813 51.6502 35.9994 51.756C36.0047 51.8499 36.0047 51.944 35.9994 52.0379C35.9848 52.1738 35.9848 52.3108 35.9994 52.4467C35.9987 52.7927 36.0669 53.1355 36.2 53.4549C36.3331 53.7744 36.5284 54.0641 36.7747 54.3073C37.6803 55.0273 38.8193 55.3885 39.9744 55.3222H40.2845C40.8167 55.3389 41.3418 55.1966 41.7927 54.9134C41.9505 54.7931 42.0774 54.6371 42.1632 54.4583C42.2489 54.2794 42.2911 54.0827 42.2861 53.8844C42.2867 53.6794 42.2582 53.4753 42.2015 53.2783C43.6111 53.2783 44.7246 53.1373 44.7246 51.5445C44.6472 50.8907 44.3845 50.2726 43.9674 49.7631C43.5503 49.2537 42.9963 48.8741 42.3707 48.669C43.5869 44.8566 43.5126 40.7496 42.1592 36.9837H42.0746C43.3804 36.724 44.6334 36.2476 45.7818 35.5741C46.247 36.3212 46.698 37.0541 47.7834 36.8991C49.3903 36.6736 50.081 34.2491 48.6855 32.8254C49.0434 32.227 49.2871 31.5675 49.4044 30.8802Z" fill="white" stroke="#231F20" stroke-width="0.989886"/>
<path d="M49.644 30.6406C50.3206 26.9757 47.1773 24.0438 42.3989 22.4087C41.1161 17.8558 38.1701 15.1494 33.9414 15.1494C32.8114 15.1329 31.6899 15.3469 30.6454 15.7782C29.6009 16.2096 28.6552 16.8494 27.8662 17.6584C24.6946 17.8558 24.6805 21.577 21.9178 26.9052C19.747 31.1339 21.4526 35.3626 26.668 36.0815C25.8465 38.0716 25.4158 40.2012 25.3994 42.3541C22.7494 39.3235 23.4683 36.1943 21.9883 36.2648C20.1417 36.3775 22.5098 42.9461 25.8082 46.6251C25.9381 47.2248 26.0981 47.8175 26.2875 48.4012C25.6488 48.6106 25.0854 49.0025 24.6671 49.5286C24.2487 50.0547 23.9937 50.6918 23.9335 51.3613C23.9335 52.94 25.0188 53.0809 26.4143 53.095C26.3937 53.2777 26.3937 53.4621 26.4143 53.6448C26.4037 53.8499 26.443 54.0546 26.5289 54.2412C26.6149 54.4278 26.7448 54.5908 26.9077 54.716C27.369 55.0124 27.9102 55.16 28.4582 55.1389H28.7119C29.8435 55.2092 30.9603 54.852 31.8412 54.1381C32.1141 53.8977 32.3339 53.6031 32.4868 53.273C32.6397 52.943 32.7222 52.5848 32.7292 52.2211C32.7437 52.0711 32.7437 51.92 32.7292 51.77C32.7292 51.77 32.7292 51.6291 32.7292 51.5163C33.9206 51.4176 35.1181 51.4176 36.3095 51.5163C36.3151 51.6055 36.3151 51.695 36.3095 51.7841C36.2882 51.9243 36.2882 52.0669 36.3095 52.207C36.3233 52.577 36.4144 52.94 36.5771 53.2726C36.7398 53.6052 36.9703 53.9001 37.2539 54.1381C38.1583 54.8605 39.2983 55.222 40.4536 55.153H40.7497C41.2863 55.17 41.816 55.0277 42.272 54.7442C42.4289 54.6232 42.5552 54.467 42.6409 54.2883C42.7266 54.1097 42.7692 53.9134 42.7653 53.7152C42.752 53.5105 42.719 53.3075 42.6667 53.1091C44.0762 53.1091 45.2039 52.9682 45.2039 51.3754C45.1437 50.7059 44.8887 50.0688 44.4703 49.5427C44.0519 49.0166 43.4886 48.6247 42.8499 48.4153C44.0527 44.5961 43.9785 40.489 42.6385 36.7158H42.5539C43.8559 36.4432 45.1069 35.9676 46.2611 35.3062C46.7262 36.0533 47.1773 36.7863 48.2486 36.6312C49.8696 36.3916 50.5462 33.9813 49.1648 32.5576C49.4342 31.9511 49.5964 31.3025 49.644 30.6406Z" fill="white" stroke="#231F20" stroke-width="0.618679"/>
<path d="M42.6244 48.373C43.1177 48.1193 45.0911 49.106 44.9783 51.3331C44.8656 53.5603 42.1592 53.0669 42.1592 53.0669L40.9188 50.2478C40.9188 50.2478 40.4254 44.8068 40.5523 41.9595C40.5648 40.175 39.8998 38.4521 38.6917 37.1387C39.346 37.0532 40.0052 37.0108 40.665 37.0119C41.2718 37.0283 41.8758 36.9229 42.4411 36.7018C42.4411 36.7018 43.3996 37.8858 43.5124 41.8326C43.6251 45.7794 42.131 48.669 42.6244 48.373Z" fill="#A97F2C"/>
<path d="M39.904 17.6584C41.0056 19.2082 41.91 20.8891 42.5962 22.6624C41.1735 22.5358 39.806 22.0508 38.6213 21.2528C37.9306 20.6326 34.7308 15.3467 34.7308 15.3467C36.6239 15.6645 38.4044 16.4601 39.904 17.6584Z" fill="#A97F2C"/>
<path d="M33.9415 15.1494C33.9415 15.1494 37.7896 20.9427 37.7473 23.0289C37.6768 26.1158 32.3627 25.3687 35.7598 33.7698C36.6337 35.87 34.6463 37.6038 31.7989 37.1105C30.5021 36.8849 28.0917 37.477 28.0917 41.3392C28.0917 45.2014 27.838 50.2477 27.838 50.2477L26.7245 53.0668C26.7245 53.0668 24.004 53.4474 24.004 51.8405C24.004 50.2336 24.7511 49.7261 25.8646 48.8663C26.9782 48.0065 25.7519 46.5969 25.7519 46.5969C24.2974 44.5631 22.9879 42.4293 21.8333 40.2115C21.7064 39.3517 23.2428 38.2381 23.2428 38.2381C23.873 39.6457 24.5934 41.0111 25.3995 42.3259C25.7941 42.6783 25.6673 37.477 26.4144 36.6876C27.1614 35.8982 27.5279 17.9967 27.5279 17.9967C27.5279 17.9967 28.1199 15.9528 33.9415 15.1494Z" fill="#A97F2C"/>
<path d="M32.9406 30.5561C27.9508 31.4441 25.4699 36.8287 25.3712 42.326C22.7212 39.2954 23.4401 36.1662 21.9601 36.2367C20.1135 36.3494 22.4816 42.918 25.78 46.597C25.9099 47.1967 26.0699 47.7894 26.2593 48.3731C25.6206 48.5825 25.0572 48.9744 24.6389 49.5005C24.2205 50.0266 23.9655 50.6637 23.9053 51.3332C23.9053 53.0528 25.188 53.0669 26.7244 53.0669C27.0958 53.0683 27.4635 52.994 27.8052 52.8486C28.1469 52.7032 28.4554 52.4897 28.7119 52.2212C32.4481 51.1568 36.4073 51.1568 40.1435 52.2212C40.3968 52.4863 40.7007 52.6978 41.0373 52.8431C41.3739 52.9884 41.7362 53.0645 42.1028 53.0669C43.6675 53.0669 44.922 53.0669 44.922 51.3332C44.8618 50.6637 44.6067 50.0266 44.1884 49.5005C43.77 48.9744 43.2067 48.5825 42.568 48.3731C43.7708 44.5539 43.6966 40.4468 42.3566 36.6736" stroke="#231F20" stroke-width="0.618679"/>
<path d="M28.275 40.8177C28.275 40.8177 28.1481 48.8663 27.8944 50.2195C27.6407 51.5727 24.9343 54.6738 28.3877 54.8006C31.8412 54.9275 32.6165 52.8272 32.3486 51.8405C32.0808 50.8538 31.8553 43.3831 31.8553 43.3831" fill="white"/>
<path d="M28.7119 55.1107H28.3877C27.8398 55.1318 27.2986 54.9842 26.8372 54.6879C26.6744 54.5626 26.5444 54.3997 26.4585 54.213C26.3725 54.0264 26.3332 53.8218 26.3439 53.6166C26.404 52.9475 26.6058 52.2988 26.9359 51.7137C27.2078 51.2202 27.4298 50.7008 27.5984 50.1631C27.684 49.499 27.7358 48.8309 27.7534 48.1616C27.7534 47.2312 27.838 46.0895 27.8662 45.0041C27.8662 42.8193 27.9649 43.4113 27.9649 42.4951C27.9726 41.9224 28.0774 41.3552 28.275 40.8177C28.4975 41.353 28.6033 41.9297 28.5851 42.5092C28.5851 43.2985 28.5851 45.3283 28.3737 48.1475C28.3737 49.0919 28.275 49.8389 28.2045 50.2195C28.0289 50.8108 27.7927 51.3823 27.4997 51.9251C27.2068 52.4258 27.0242 52.9833 26.9641 53.5602C26.9523 53.6703 26.9694 53.7816 27.014 53.883C27.0585 53.9844 27.1287 54.0723 27.2178 54.1381C27.5713 54.3594 27.9858 54.4631 28.4018 54.4341H28.7119C29.6888 54.507 30.6567 54.2045 31.4183 53.5884C31.6238 53.4132 31.791 53.1977 31.9099 52.9552C32.0287 52.7128 32.0964 52.4485 32.109 52.1788C32.1243 52.0808 32.1243 51.9809 32.109 51.8828C31.9927 51.2868 31.9126 50.6843 31.8694 50.0786C31.7989 49.2469 31.7566 48.2179 31.7002 47.2594C31.6157 45.2719 31.7002 45.7371 31.7002 44.9336C31.7065 44.4184 31.7824 43.9063 31.9258 43.4113C32.1655 43.9542 32.2995 44.5379 32.3205 45.131C32.3205 46.019 32.3205 44.4403 32.3205 45.7935C32.3205 47.203 32.4473 48.824 32.5319 50.0222C32.5548 50.5848 32.616 51.1453 32.7151 51.6996C32.7297 51.8496 32.7297 52.0006 32.7151 52.1506C32.7082 52.5143 32.6256 52.8725 32.4728 53.2026C32.3199 53.5326 32.1 53.8272 31.8271 54.0677C30.9581 54.7984 29.8462 55.1758 28.7119 55.1248V55.1107Z" fill="#231F20"/>
<path d="M40.5242 40.8177C40.5242 40.8177 40.637 48.8663 40.8907 50.2195C41.1444 51.5727 43.9777 54.6738 40.5242 54.8006C37.0708 54.9275 36.1827 52.8272 36.4364 51.8405C36.6902 50.8538 36.9298 43.3831 36.9298 43.3831" fill="white"/>
<path d="M37.0284 54.1099C36.7448 53.8719 36.5143 53.5771 36.3516 53.2444C36.1889 52.9118 36.0978 52.5488 36.084 52.1788C36.0627 52.0387 36.0627 51.8961 36.084 51.7559C36.084 51.5727 36.1968 50.9102 36.2532 50.0786C36.2532 49.2469 36.3659 48.232 36.4082 47.2594C36.5069 45.2719 36.5633 45.582 36.5633 44.8631C36.5886 44.3716 36.7184 43.8911 36.9438 43.4536C37.0942 43.9087 37.175 44.3839 37.1835 44.8631C37.1835 45.6666 37.0425 47.6118 36.8734 50.1208C36.8458 50.7212 36.7799 51.3191 36.676 51.911C36.6675 52.0001 36.6675 52.0897 36.676 52.1788C36.6955 52.4514 36.7706 52.717 36.8967 52.9594C37.0227 53.2019 37.1971 53.4159 37.409 53.5884C38.2104 54.2132 39.2145 54.5194 40.2281 54.4482H40.5101C40.9148 54.4718 41.3174 54.3736 41.6659 54.1663C41.7495 54.1053 41.8166 54.0243 41.8609 53.9308C41.9052 53.8372 41.9254 53.734 41.9196 53.6307C41.8503 53.0621 41.6733 52.512 41.3981 52.0097C41.0803 51.4621 40.8249 50.8805 40.6369 50.2759C40.6369 49.8953 40.5242 49.1482 40.4819 48.1897C40.4819 47.2453 40.3973 46.1177 40.355 45.0182C40.355 42.8334 40.2704 42.5937 40.2704 41.8185C40.2763 41.2998 40.3139 40.782 40.3832 40.2679C40.6574 40.7443 40.8301 41.2722 40.8906 41.8185C40.8906 42.4951 40.8906 41.9453 40.8906 43.4254C40.8906 44.9195 40.9752 46.752 41.0457 48.1615C41.0457 49.106 41.1585 49.8671 41.2148 50.1631C41.3764 50.7124 41.6085 51.2383 41.9055 51.7278C42.2529 52.3248 42.4736 52.9869 42.5539 53.673C42.5578 53.8711 42.5152 54.0674 42.4295 54.2461C42.3438 54.4248 42.2175 54.5809 42.0606 54.702C41.6046 54.9855 41.0749 55.1277 40.5382 55.1107H40.2422C39.0869 55.1798 37.9469 54.8182 37.0425 54.0958L37.0284 54.1099Z" fill="#231F20"/>
<path d="M35.9712 36.6312C42.6949 37.8575 48.8124 35.2216 49.6441 30.6405C50.3206 26.9757 47.1773 24.0437 42.3989 22.4086C41.1161 17.8557 38.1701 15.1494 33.9414 15.1494C29.7127 15.1494 26.2311 17.9685 26.2311 21.577" stroke="#231F20" stroke-width="0.618679"/>
<path d="M49.9965 27.1871C50.0313 27.8496 49.8038 28.4991 49.3632 28.9951C48.9227 29.491 48.3045 29.7935 47.6425 29.8371C47.0016 30.0126 46.3175 29.9311 45.7357 29.6099C45.1539 29.2888 44.7204 28.7533 44.5274 28.1174C44.5 27.4545 44.732 26.807 45.1741 26.3123C45.6162 25.8176 46.2337 25.5145 46.8955 25.4674C47.5346 25.2886 48.2186 25.3688 48.799 25.6907C49.3795 26.0126 49.8097 26.5502 49.9965 27.1871Z" fill="#231F20" stroke="#231F20" stroke-width="0.494943"/>
<path d="M32.9407 26.8066C35.6471 33.9813 31.5311 36.1379 28.0777 36.1379C21.7205 36.1379 19.5075 31.4159 21.8615 26.877C24.7511 21.4079 24.6947 17.6584 28.134 17.6584C31.5734 17.6584 31.1928 22.0281 32.9407 26.8066Z" fill="#A97F2C"/>
<path d="M32.9407 26.8066C35.6471 33.9813 31.5311 36.1379 28.0777 36.1379C21.7205 36.1379 19.5075 31.4159 21.8615 26.877C24.7511 21.4079 24.6947 17.6584 28.134 17.6584C31.5734 17.6584 31.1928 22.0281 32.9407 26.8066Z" stroke="black" stroke-width="0.618679"/>
<path d="M48.8688 25.8763C48.9815 26.1723 48.2767 26.7362 47.29 27.1026C46.3033 27.4691 45.4012 27.5396 45.2885 27.2295C45.1757 26.9194 45.8805 26.3697 46.8672 26.0032C47.8539 25.6367 48.756 25.5662 48.8688 25.8763Z" fill="white"/>
<path d="M34.3643 22.9584C35.1661 22.9584 35.8161 22.5167 35.8161 21.9717C35.8161 21.4268 35.1661 20.985 34.3643 20.985C33.5624 20.985 32.9124 21.4268 32.9124 21.9717C32.9124 22.5167 33.5624 22.9584 34.3643 22.9584Z" fill="#231F20" stroke="#231F20" stroke-width="0.494943"/>
<path d="M42.1029 20.9709C42.1103 21.1172 42.0855 21.2634 42.0302 21.399C41.9749 21.5347 41.8905 21.6566 41.783 21.7561C41.6754 21.8556 41.5473 21.9302 41.4078 21.9748C41.2682 22.0193 41.1205 22.0327 40.9752 22.014C40.1859 22.014 39.5657 21.5488 39.5657 20.9709C39.5657 20.393 40.2141 19.9278 40.9752 19.9278C41.1205 19.909 41.2682 19.9224 41.4078 19.967C41.5473 20.0115 41.6754 20.0862 41.783 20.1857C41.8905 20.2852 41.9749 20.407 42.0302 20.5427C42.0855 20.6784 42.1103 20.8246 42.1029 20.9709Z" fill="#231F20"/>
<path d="M34.2657 21.5207C34.2516 21.6278 34.197 21.7255 34.1131 21.7937C34.0292 21.8618 33.9224 21.8953 33.8146 21.8872C33.7031 21.8953 33.5928 21.8603 33.5062 21.7895C33.4197 21.7188 33.3636 21.6175 33.3495 21.5066C33.3669 21.3983 33.4243 21.3004 33.5105 21.2325C33.5967 21.1646 33.7053 21.1316 33.8146 21.1401C33.9246 21.1322 34.0333 21.1676 34.1175 21.2387C34.2018 21.3098 34.255 21.411 34.2657 21.5207Z" fill="white"/>
<path d="M40.7779 20.7031C40.7673 20.799 40.7206 20.8873 40.6473 20.9501C40.574 21.0129 40.4796 21.0456 40.3832 21.0414C40.2935 21.0414 40.2074 21.0057 40.144 20.9423C40.0806 20.8789 40.0449 20.7928 40.0449 20.7031C40.0449 20.6134 40.0806 20.5273 40.144 20.4639C40.2074 20.4004 40.2935 20.3648 40.3832 20.3648C40.4796 20.3606 40.574 20.3933 40.6473 20.4561C40.7206 20.5189 40.7673 20.6072 40.7779 20.7031Z" fill="white"/>
<path d="M40.2423 35.5036C44.33 36.7722 49.4186 35.5036 49.6018 30.3446C49.6018 30.3446 49.7005 29.231 49.4327 29.7667C48.1923 32.1629 45.3026 33.2342 40.7074 33.8262C40.059 33.9108 38.6776 33.9108 38.5931 34.5169C38.579 34.8552 38.9737 35.109 40.2423 35.5036Z" fill="#231F20"/>
<path d="M48.3331 32.0502C50.2079 33.3048 49.7427 36.0957 47.9949 36.434C46.247 36.7723 46.0074 34.221 44.3723 33.9109C45.2374 33.7518 46.0831 33.5014 46.8954 33.1638C47.4299 32.87 47.915 32.4943 48.3331 32.0502Z" fill="#F26322" stroke="#231F20" stroke-width="0.618679"/>
<path d="M32.7433 29.3298C32.7433 29.3298 34.0401 35.8138 26.062 34.7002C27.4756 34.0033 28.8329 33.1974 30.1215 32.2899C31.0832 31.3846 31.9608 30.3938 32.7433 29.3298Z" fill="#886327"/>
</svg>
