<svg width="90" height="90" viewBox="0 0 90 90" fill="none" xmlns="http://www.w3.org/2000/svg">
<mask id="mask0_2388_3704" style="mask-type:luminance" maskUnits="userSpaceOnUse" x="9" y="37" width="72" height="14">
<path d="M81 37.6216H9V50.993H81V37.6216Z" fill="white"/>
</mask>
<g mask="url(#mask0_2388_3704)">
<path fill-rule="evenodd" clip-rule="evenodd" d="M12.0595 45.2433C13.3636 45.2939 14.2327 45.2598 14.2327 46.74C14.2327 48.458 13.5895 48.3562 12.0595 48.3901V45.2433ZM12.0595 40.2245C13.1377 40.2245 14.0241 40.1735 14.0241 41.4322C14.0241 42.9464 13.3984 42.8614 12.0595 42.9464V40.2245ZM13.3113 50.687C15.7974 50.687 17.2925 49.5808 17.2925 46.9954C17.2925 45.4133 16.9969 44.7325 15.606 43.9502V43.9162C16.6666 43.3549 17.0839 42.351 17.0839 41.2284C17.0839 38.6594 15.2758 37.9277 12.9636 37.9277H9V50.687H13.3113Z" fill="#E2001A"/>
<path d="M25.7698 50.687V48.1346H21.6147V45.3794H25.4396V42.8275H21.6147V40.4797H25.561V37.9277H18.5549V50.687H25.7698Z" fill="#E2001A"/>
<path d="M35.2677 42.3849V41.3131C35.2677 38.7102 33.703 37.6216 31.0951 37.6216C28.2961 37.6216 26.9924 38.9145 26.9924 41.6874V46.9273C26.9924 49.5303 28.0876 50.993 30.9041 50.993C34.0334 50.993 35.3197 49.4624 35.3197 47.2674V45.7027H32.2601V46.8594C32.2601 47.6422 32.1732 48.6971 31.1301 48.6971C30.3304 48.6971 30.0351 48.2717 30.0351 47.5568L30.0523 41.2454C30.0523 40.4115 30.2779 39.9014 31.2343 39.9184C31.8079 39.9184 32.2081 40.4797 32.2081 41.5685V42.385L35.2677 42.3849Z" fill="#E2001A"/>
<path d="M39.6575 50.687V47.5403L40.3353 46.2466L42.0216 50.687H45.2551L42.2999 43.5588L45.0815 37.9277H41.9521L39.6922 43.0316H39.6575V37.9277H36.5976V50.687H39.6575Z" fill="#E2001A"/>
<path d="M49.1242 50.687V45.3794H51.2452V50.687H54.3048V37.9277H51.2452V42.8275H49.1242V37.9277H46.0647V50.687H49.1242Z" fill="#E2001A"/>
<path fill-rule="evenodd" clip-rule="evenodd" d="M60.8 46.8759C60.8 47.6072 60.7307 48.697 59.7397 48.697C58.7488 48.697 58.6269 47.6073 58.6269 46.8759V41.6364C58.6269 40.8537 58.7488 39.9183 59.7223 39.9183C60.7307 39.9183 60.8 40.8537 60.8 41.6364V46.8759ZM63.86 41.4322C63.86 38.9825 62.4167 37.6216 59.7397 37.6216C57.0623 37.6216 55.567 38.9825 55.567 41.4322V46.6215C55.567 49.4962 56.6451 50.9929 59.7397 50.9929C62.8339 50.9929 63.86 49.4962 63.86 46.6215V41.4322Z" fill="#E2001A"/>
<path d="M68.3046 50.687V45.2937H72.1121V42.7421H68.3046V40.4797H72.4423V37.9277H65.245V50.687H68.3046Z" fill="#E2001A"/>
<path d="M76.8626 50.687V45.2937H80.6701V42.7421H76.8626V40.4797H81.0003V37.9277H73.803V50.687H76.8626Z" fill="#E2001A"/>
</g>
</svg>
