<svg width="90" height="90" viewBox="0 0 90 90" fill="none" xmlns="http://www.w3.org/2000/svg">
<path opacity="0.5" fill-rule="evenodd" clip-rule="evenodd" d="M53.6951 68.4004C63.4951 68.4004 71.4451 69.4804 71.4451 70.8104C71.4451 72.1404 63.4451 73.2304 53.6951 73.2304C43.9451 73.2304 35.9551 72.1504 35.9551 70.8104C35.9551 69.4704 43.8951 68.4004 53.6951 68.4004Z" fill="#32241F"/>
<path fill-rule="evenodd" clip-rule="evenodd" d="M48.925 37.6404C60.715 42.5304 68.315 51.2504 65.875 57.1104C63.435 62.9704 51.875 63.7604 40.125 58.8704C28.375 53.9804 20.735 45.2605 23.125 39.4005C25.515 33.5405 37.125 32.7504 48.885 37.6404" fill="#42302B"/>
<path fill-rule="evenodd" clip-rule="evenodd" d="M22.605 46.4805C22.8595 50.1827 23.7632 53.8114 25.275 57.2005C27.6153 62.3192 30.7997 67.0079 34.695 71.0705C41.5055 71.3538 48.2883 70.0458 54.505 67.2505C57.0008 66.1533 59.3519 64.7528 61.505 63.0805C56.215 64.9105 48.0851 64.2505 39.8651 60.8405C31.3651 57.3105 24.925 51.7305 22.535 46.4805" fill="#42302B"/>
<path fill-rule="evenodd" clip-rule="evenodd" d="M48.695 38.8301C57.195 42.3501 62.695 48.6401 60.915 52.8301C59.135 57.0201 50.845 57.6301 42.345 54.1001C33.845 50.5701 28.345 44.2901 30.125 40.1001C31.905 35.9101 40.185 35.3101 48.695 38.8401" fill="#FDDD46"/>
<path fill-rule="evenodd" clip-rule="evenodd" d="M47.5451 40.3197C52.7351 42.4697 56.0651 46.3197 54.9951 48.8797C53.9251 51.4397 48.8651 51.7997 43.6751 49.6497C38.4851 47.4997 35.1551 43.6497 36.2251 41.0897C37.2951 38.5297 42.3551 38.1697 47.5451 40.3197Z" fill="#231815"/>
<path fill-rule="evenodd" clip-rule="evenodd" d="M47.315 42.0097C49.875 43.0797 51.525 45.0097 50.995 46.2397C50.465 47.4697 47.995 47.6897 45.405 46.6197C42.815 45.5497 41.195 43.6197 41.715 42.3997C42.235 41.1797 44.715 40.9497 47.315 42.0097Z" fill="#FDDD46"/>
<mask id="mask0_2390_3108" style="mask-type:luminance" maskUnits="userSpaceOnUse" x="43" y="17" width="15" height="29">
<path d="M57.6951 17L43.9951 43.14C44.4371 43.9108 45.1232 44.5124 45.9451 44.85C46.8437 45.345 47.8598 45.587 48.8851 45.55L57.6951 17Z" fill="white"/>
</mask>
<g mask="url(#mask0_2390_3108)">
<path d="M57.675 17H43.985V45.59H57.675V17Z" fill="url(#paint0_linear_2390_3108)"/>
</g>
<path fill-rule="evenodd" clip-rule="evenodd" d="M21.465 49.55C18.395 45.41 17.205 41.22 18.545 37.81C20.995 31.58 31.145 29.81 42.715 33.01C31.525 30.27 21.845 32.36 19.455 38.73C18.255 41.93 19.085 45.73 21.455 49.55" fill="#42302B"/>
<path fill-rule="evenodd" clip-rule="evenodd" d="M64.465 64.8897C65.9517 64.365 67.2861 63.4819 68.3501 62.3185C69.4141 61.155 70.1749 59.7473 70.565 58.2198C71.865 52.5898 67.655 46.0497 60.785 42.2197C67.295 46.1697 71.135 52.7097 69.785 58.3997C69.4273 59.8032 68.769 61.1122 67.8556 62.2362C66.9422 63.3603 65.7956 64.2725 64.495 64.9098" fill="#42302B"/>
<path fill-rule="evenodd" clip-rule="evenodd" d="M25.2751 52.5498C26.6745 54.3639 28.3884 55.9118 30.3351 57.1198C30.9196 60.6936 31.9475 64.1805 33.3951 67.4998C31.5598 65.2705 29.8887 62.911 28.3951 60.4398C27.1257 58.1787 26.1192 55.7797 25.3951 53.2898C25.3205 53.0488 25.2702 52.8009 25.2451 52.5498" fill="#9E9E9F"/>
<defs>
<linearGradient id="paint0_linear_2390_3108" x1="53.895" y1="32.59" x2="49.625" y2="30.79" gradientUnits="userSpaceOnUse">
<stop stop-color="#231815"/>
<stop offset="0.45" stop-color="#DBDCDC"/>
<stop offset="1" stop-color="#231815"/>
</linearGradient>
</defs>
</svg>
