<svg width="70" height="70" viewBox="0 0 70 70" fill="none" xmlns="http://www.w3.org/2000/svg">
<g clip-path="url(#clip0_245_2628)">
<path d="M11.8905 28V32.9834C11.8905 33.0288 11.8514 33.0904 11.9003 33.1488C11.9622 33.2201 12.6304 33.2136 12.7445 33.178C12.9433 33.1164 13.3833 32.5522 13.5724 32.3868C13.706 32.2734 13.9016 32.1048 14.0776 32.0821H18.2008C18.3866 32.1048 18.5072 32.2247 18.6506 32.3285C19.0613 32.8278 19.6969 33.2785 20.0978 33.7713C20.2445 33.9561 20.3194 34.1345 20.3488 34.3679C20.251 36.229 20.4791 38.2198 20.3488 40.0646C20.3227 40.4667 20.2184 40.5867 19.9609 40.872C19.648 41.2189 18.9961 41.8901 18.6408 42.1721C18.5007 42.2856 18.354 42.4153 18.1617 42.4283H14.0711C13.7353 42.4348 12.8781 41.3129 12.7151 41.3129H11.9426C11.7601 41.6274 12.0013 42.1073 11.8253 42.4283H10V28H11.8905ZM17.7738 40.3305C17.9172 40.1943 18.2399 39.9414 18.3409 39.7988C18.3996 39.7145 18.4355 39.6269 18.4518 39.5264C18.3638 38.0868 18.5821 36.4819 18.4583 35.065C18.4485 34.958 18.4289 34.8575 18.3735 34.7635C18.3051 34.65 17.7347 34.0858 17.6076 33.9886C17.5163 33.9172 17.425 33.8491 17.3077 33.8232C16.3787 33.8686 15.3357 33.7324 14.4198 33.8135C14.3123 33.8232 14.2145 33.8426 14.1167 33.8978L11.9198 36.0961C11.91 36.764 11.8416 37.5194 11.8742 38.1841C11.8774 38.2716 11.8937 38.3689 11.9361 38.45L14.0548 40.5737C14.1558 40.6677 14.2894 40.6969 14.4198 40.7099C15.0978 40.7682 16.5287 40.7747 17.2001 40.7099C17.5391 40.6742 17.5684 40.5283 17.7738 40.3402V40.3305Z" fill="white"/>
<path d="M40.075 28V33.0612C40.075 33.2785 40.6421 33.2525 40.7888 33.2331C41.3233 33.1715 41.7438 32.215 42.2979 32.0821H45.9583C46.1245 32.1048 46.2614 32.2053 46.3885 32.309C46.7405 32.5976 47.6271 33.4633 47.8944 33.8102C47.9302 33.8556 48.1063 34.1572 48.1063 34.1766V42.4315H46.2158V34.9061C46.2158 34.8867 46.1082 34.7278 46.0821 34.6921C45.9648 34.543 45.4791 34.0502 45.3292 33.9432C45.2542 33.888 45.1923 33.8459 45.0978 33.8264C44.7718 33.7583 42.8814 33.7616 42.5391 33.82C42.4479 33.8362 42.3468 33.8816 42.2784 33.9432C41.7112 34.6435 40.7399 35.3049 40.2119 36.002C40.176 36.0507 40.0782 36.2095 40.0782 36.2517V42.4672C40.0489 42.4769 40.0326 42.4283 40.0196 42.4283H38.1845V28H40.075Z" fill="white"/>
<path d="M58.2073 32.439C58.6376 32.8346 59.4068 33.5641 59.7621 33.9953C59.8566 34.1088 59.9316 34.2385 59.987 34.3779L59.9967 40.0293C60.0033 40.2011 59.9022 40.3308 59.8044 40.4508C59.4687 40.8625 58.3996 41.9455 57.9889 42.26C57.8977 42.3313 57.7966 42.3799 57.6891 42.4221L52.5619 42.4318C52.3631 42.4318 52.2034 42.3183 52.06 42.2016C51.6558 41.8676 50.6323 40.8723 50.3227 40.4702C50.2282 40.347 50.1662 40.2043 50.1206 40.0552L50.1108 34.5595L50.2282 34.1736C50.8377 33.6127 51.4798 32.7438 52.1219 32.2509C52.2132 32.1796 52.3142 32.131 52.4218 32.0888L57.6239 32.0791C57.8488 32.1018 58.0476 32.2899 58.2073 32.439ZM57.0469 33.9823C56.9198 33.8883 56.8677 33.83 56.6949 33.8137C55.6649 33.7035 54.4329 33.8883 53.3833 33.8235L53.1421 33.9305L52.0339 35.0555L52.0143 39.3678L52.0991 39.5526L53.2106 40.6388L56.8416 40.6583C56.9035 40.6485 56.9394 40.6064 56.985 40.5707C57.1089 40.4767 58.002 39.5883 58.0606 39.4878C58.1747 39.2835 58.0997 39.1863 58.103 38.995C58.1128 37.8407 58.1128 36.6832 58.103 35.5289C58.103 35.2468 58.1943 35.1593 57.9694 34.8934C57.7934 34.6827 57.2555 34.1445 57.0437 33.9856L57.0469 33.9823Z" fill="white"/>
<path d="M28.4159 32.0791V33.1004C28.4159 33.2982 29.2243 33.2593 29.3709 33.1685L30.2836 32.2477L30.6063 32.0888L34.0678 32.0823C34.1558 32.1018 34.2438 32.131 34.3253 32.1731C34.5339 32.2866 35.8149 33.5738 36.0039 33.8105C36.0724 33.898 36.2158 34.112 36.2158 34.2158V42.4318H34.3253V34.9064C34.3253 34.8772 34.2568 34.767 34.2308 34.7313C34.1362 34.6016 33.5691 34.0407 33.4387 33.9434C33.3084 33.8462 33.2301 33.8235 33.0737 33.8073C32.6173 33.7683 31.3038 33.7457 30.8801 33.817C30.7888 33.8332 30.6877 33.8786 30.6193 33.9402C30.0522 34.6405 29.0808 35.302 28.5528 35.9991C28.517 36.0477 28.4192 36.2066 28.4192 36.2487V42.4642C28.3898 42.474 28.3735 42.4253 28.3605 42.4253H26.5254V32.0791H28.4159Z" fill="white"/>
<path d="M24.322 32.0791H22.4315V42.4318H24.322V32.0791Z" fill="white"/>
<path d="M24.4394 28H22.3533V30.0394H24.4394V28Z" fill="white"/>
</g>
<defs>
<clipPath id="clip0_245_2628">
<rect width="50" height="14.4737" fill="white" transform="translate(10 28)"/>
</clipPath>
</defs>
</svg>
