<svg width="90" height="90" viewBox="0 0 90 90" fill="none" xmlns="http://www.w3.org/2000/svg">
<path d="M8 44.779V40.1382L12.2139 40.1698C15.9613 40.2014 16.4673 40.2251 16.8547 40.3437C17.9062 40.6837 18.2778 41.1976 18.341 42.3914C18.3885 43.3796 18.2462 43.9014 17.7955 44.3046C17.6216 44.4628 17.4872 44.6051 17.503 44.613C17.5109 44.6209 17.6611 44.7078 17.8192 44.8106C18.3173 45.111 18.4359 45.4747 18.4359 46.7634C18.4359 47.7912 18.4201 47.9019 18.2382 48.2734C18.0169 48.7083 17.6769 48.9929 17.0919 49.2222C16.7677 49.3487 16.325 49.3645 12.372 49.3882L8 49.4119V44.779ZM16.1827 47.8702C16.325 47.807 16.4831 47.6884 16.5306 47.6014C16.578 47.5066 16.6175 47.0717 16.6175 46.6132C16.6175 45.8384 16.6096 45.7831 16.412 45.6012L16.2064 45.4115L13.0124 45.3878L9.81838 45.364V46.6764V47.9809H12.8622C15.313 47.9809 15.9613 47.9572 16.1827 47.8702ZM16.0009 43.8698C16.4515 43.7433 16.5385 43.5536 16.5385 42.7393C16.5385 42.1068 16.5227 42.0277 16.3408 41.8538L16.1511 41.6561H12.9808H9.81838V42.8025V43.9489H12.7673C14.5462 43.9489 15.8269 43.9172 16.0009 43.8698Z" fill="white"/>
<path d="M20.4124 44.7793V40.1543H21.2821H22.1517V44.7793V49.4043H21.2821H20.4124V44.7793Z" fill="white"/>
<path d="M28.3974 45.5304V41.6564H26.0256H23.6538V40.9054V40.1543H29.2671H34.8803V40.9054V41.6564H32.548H30.2158V45.5304V49.4043H29.3066H28.3974V45.5304Z" fill="white"/>
<path d="M36.3192 44.8026L36.3429 40.1934L37.1414 40.1697L37.9479 40.146L40.6517 43.8697C42.138 45.9095 43.3793 47.5855 43.403 47.5776C43.4346 47.5776 44.66 45.9095 46.1305 43.8618L48.8107 40.1539H49.5538H50.297V44.7789V49.4039H49.4669H48.6367L48.6209 46.281L48.5972 43.1582L46.344 46.2731L44.0908 49.396H43.3318L42.5728 49.4039L40.288 46.2731L38.0032 43.1345L37.9795 46.2731L37.9637 49.4039H37.1335H36.3034L36.3192 44.8026Z" fill="white"/>
<path d="M51.5382 49.175C51.6173 49.0485 53.0008 46.9693 54.6057 44.55L57.5309 40.1622L58.1318 40.1543C58.6062 40.1543 58.7564 40.1859 58.8512 40.2966C58.9936 40.4547 64.844 49.3173 64.844 49.3727C64.844 49.3885 64.3933 49.4043 63.8399 49.3964H62.828L60.5273 45.7834C59.2624 43.799 58.1951 42.1703 58.1634 42.1703C58.1397 42.1703 57.0566 43.799 55.7679 45.7834L53.4198 49.3964L52.4079 49.4043H51.388L51.5382 49.175Z" fill="white"/>
<path d="M66.0299 44.7793V40.1543H66.9391H67.8483V44.7793V49.4043H66.9391H66.0299V44.7793Z" fill="white"/>
<path d="M69.8406 44.8026L69.8643 40.1934L70.5837 40.1697L71.3111 40.146L74.7739 42.7313C76.6872 44.1543 78.7111 45.6723 79.2882 46.0992C79.8575 46.5261 80.3476 46.874 80.3713 46.874C80.3951 46.874 80.4267 45.3719 80.4346 43.5377L80.4583 40.1934L81.2331 40.1697L82 40.146V44.7789V49.4039H81.5493H81.0908L76.2681 45.8778L71.4455 42.3597L71.4218 45.8778L71.406 49.4039H70.6154H69.8248L69.8406 44.8026Z" fill="white"/>
</svg>
