<svg width="70" height="70" viewBox="0 0 70 70" fill="none" xmlns="http://www.w3.org/2000/svg">
<path d="M14.7538 34.5264C14.8895 33.5285 15.0121 32.5275 15.1631 31.5317C16.3839 23.4826 22.9963 16.6938 31.0089 15.1225C41.9838 12.9707 52.5393 20.1161 54.6192 31.013C56.8855 42.8865 48.7412 53.1319 38.0773 54.8603C27.453 56.5815 17.2338 49.4736 15.2735 38.9242C15.083 37.901 14.9959 36.8575 14.8561 35.8252C14.8338 35.66 14.7882 35.4979 14.7538 35.3348C14.7538 35.0653 14.7538 34.7959 14.7538 34.5264ZM28.7811 29.1884C28.6028 28.9442 28.4083 28.7102 28.2493 28.4549C27.1004 26.6212 26.3416 24.6933 26.9302 22.4827C27.0548 22.0156 27.2311 21.5516 27.454 21.1221C28.4488 19.2073 30.8043 17.633 33.6146 19.6956C35.1282 20.807 34.6946 20.7594 36.2183 19.719C36.968 19.2073 37.7612 18.791 38.6862 18.7707C40.6019 18.7302 41.8359 19.7959 42.5734 21.4199C43.7476 24.0044 43.237 26.373 41.4084 28.4954C41.0508 28.9108 40.683 29.317 40.3203 29.7273C40.4652 29.7324 40.5604 29.6807 40.6475 29.6169C41.7407 28.8216 42.9473 28.2766 44.2754 28.0182C46.6836 27.5492 48.7381 28.1712 50.2821 30.1133C51.3084 31.405 51.3499 32.9693 50.4655 34.3511C50.1129 34.9012 49.6844 35.4078 49.2508 35.8991C48.9144 36.2811 48.8303 36.6235 49.1363 37.0632C49.3652 37.3934 49.5435 37.7602 49.7279 38.1188C50.9426 40.4814 50.1301 42.8003 47.7058 43.9036C45.3686 44.9674 42.6788 44.4537 40.7468 42.5694C39.0205 40.8856 37.3003 39.1968 35.575 37.512C35.4899 37.4289 35.3865 37.3631 35.3156 37.3073C35.3156 39.991 35.2011 42.6545 35.347 45.3027C35.499 48.0624 37.2597 49.6965 40.0083 50.1261C42.1348 50.4584 44.0232 49.8738 45.8133 48.8435C48.4565 47.3208 50.3479 45.0889 51.6386 42.3637C54.0447 37.283 53.8695 32.1405 51.7177 27.0528C48.4291 19.2732 40.3872 14.7943 32.1162 16.164C25.6375 17.2358 20.9803 20.8719 18.3168 26.8177C15.7355 32.5802 15.8074 38.362 19.0838 43.9067C20.6105 46.489 22.6873 48.5162 25.5433 49.6418C27.0123 50.2203 28.5198 50.353 30.0678 50.0795C32.7555 49.6043 34.3856 47.803 34.5001 44.9734C34.6024 42.4681 34.5527 39.9556 34.5669 37.4471C34.5669 37.4026 34.5396 37.358 34.5132 37.281C34.4443 37.3296 34.3886 37.358 34.3471 37.4005C32.6745 39.0661 30.9877 40.7184 29.3333 42.4022C27.0933 44.6827 23.7116 45.1183 21.3136 43.4052C19.8973 42.3941 19.2621 40.8076 19.7575 39.2018C19.9976 38.4258 20.4362 37.7055 20.8202 36.9791C21.0218 36.5972 21.0005 36.2993 20.7199 35.9731C20.2924 35.4757 19.8557 34.9782 19.489 34.4362C18.5671 33.0736 18.5681 31.5134 19.5579 30.1964C20.9458 28.3475 22.8646 27.6566 25.1259 27.923C26.4237 28.076 27.6272 28.5521 28.7791 29.1884H28.7811Z" fill="white"/>
</svg>
