<svg width="70" height="70" viewBox="0 0 70 70" fill="none" xmlns="http://www.w3.org/2000/svg">
<path d="M34.8768 54.9994C23.78 54.9994 14.7535 45.9728 14.7535 34.8761C14.7535 23.7794 23.78 14.7538 34.8768 14.7538C45.9735 14.7538 55 23.7803 55 34.8761C55 45.9719 45.9735 54.9994 34.8768 54.9994ZM34.8768 20.5547C26.9795 20.5547 20.5544 26.9789 20.5544 34.8761C20.5544 42.7733 26.9795 49.1985 34.8768 49.1985C42.774 49.1985 49.1991 42.7733 49.1991 34.8761C49.1991 26.9789 42.774 20.5547 34.8768 20.5547Z" fill="white"/>
<path d="M40.2268 43.1324H29.5278C27.9231 43.1324 26.6215 41.8307 26.6215 40.226V29.5271C26.6215 27.9224 27.9231 26.6208 29.5278 26.6208H40.2268C41.8315 26.6208 43.1331 27.9224 43.1331 29.5271V40.226C43.1331 41.8307 41.8315 43.1324 40.2268 43.1324ZM32.4351 37.3188H37.3186V32.4352H32.4351V37.3188Z" fill="white"/>
</svg>
