<svg width="90" height="90" viewBox="0 0 90 90" fill="none" xmlns="http://www.w3.org/2000/svg">
<path d="M70.9692 39.1917C72.3107 38.0514 75.3292 36.2403 75.3292 31.6119C75.3292 26.9835 71.4387 21.2148 59.7671 21.2148H14.9591V29.5325H24.9537L14.6908 68.8401L25.1549 64.2118L27.0331 57.504H63.3223C70.4325 57.504 76 53.0098 76 47.7106C76 42.881 72.6461 40.265 70.9692 39.1917ZM34.6129 29.4654H60.9745C63.8589 29.4654 65.1334 31.0753 65.1334 32.3498C65.1334 33.5572 64.9321 36.0391 59.3647 36.0391H32.6677L34.6129 29.4654ZM59.4988 49.3205H29.1796L31.1249 43.0152H61.1087C64.5968 43.0152 65.67 44.625 65.67 45.8995C65.67 47.1069 65.6029 49.3205 59.4988 49.3205Z" fill="#5FA9D5"/>
</svg>
