<svg width="70" height="70" viewBox="0 0 70 70" fill="none" xmlns="http://www.w3.org/2000/svg">
<path d="M34.9182 51C43.7999 51 51 43.7999 51 34.9182C51 26.0364 43.7999 18.8363 34.9182 18.8363C26.0364 18.8363 18.8363 26.0364 18.8363 34.9182C18.8363 43.7999 26.0364 51 34.9182 51Z" fill="#CC092F"/>
<path d="M49.079 39.2555C47.2371 38.5227 45.5536 38.7703 43.8702 39.7903C43.8702 39.7903 43.2562 40.1666 43.0681 40.2854C42.2858 40.7805 41.5431 41.2459 40.8301 41.2459C40.1171 41.2459 39.4833 41.0677 39.1961 39.7507C38.7505 37.7008 37.681 32.6505 37.2057 30.155C36.9284 28.6894 36.7799 27.8972 36.6215 27.3625C36.3442 26.4217 35.8391 25.9068 35.1163 25.8177C35.1163 25.8177 35.0073 25.7979 34.9083 25.7979C34.8093 25.7979 34.6904 25.8177 34.6904 25.8177C33.9775 25.9068 33.4724 26.4217 33.1951 27.3526C33.0367 27.8873 32.8882 28.6795 32.6109 30.1451C32.1356 32.6406 31.0661 37.6909 30.6205 39.7408C30.3333 41.0578 29.6698 41.236 28.9865 41.236C28.3033 41.236 27.5308 40.7706 26.7485 40.2755C26.5604 40.1567 25.9464 39.7804 25.9464 39.7804C24.263 38.7604 22.5795 38.5128 20.7376 39.2456C20.3415 39.4041 19.9454 39.5823 19.579 39.7606C19.8365 40.5627 20.1534 41.345 20.5198 42.0778C20.9258 41.8797 21.3516 41.6817 21.7873 41.5529C22.4112 41.3648 23.0549 41.3549 23.6787 41.5628C24.2828 41.7609 24.8274 42.1273 25.3622 42.464C26.3722 43.0977 27.5209 43.8206 28.9865 43.8206C31.1552 43.8206 32.6703 42.5234 33.1555 40.2755C33.5318 38.5326 34.3637 34.631 34.8984 31.9375C34.8984 31.9375 36.2749 38.5227 36.6413 40.2755C37.1265 42.5333 38.6416 43.8206 40.8103 43.8206C42.2759 43.8206 43.4147 43.0977 44.4346 42.464C44.9694 42.1273 45.514 41.7708 46.1181 41.5628C46.7419 41.3549 47.3856 41.3648 48.0095 41.5529C48.4452 41.6817 48.871 41.8797 49.277 42.0778C49.6434 41.3351 49.9603 40.5528 50.2178 39.7606C49.8415 39.5823 49.4553 39.4041 49.0591 39.2456" fill="white"/>
</svg>
