<svg width="90" height="90" viewBox="0 0 90 90" fill="none" xmlns="http://www.w3.org/2000/svg">
<mask id="mask0_2388_3742" style="mask-type:luminance" maskUnits="userSpaceOnUse" x="9" y="39" width="74" height="15">
<path d="M82.2857 39.9111H9V53.9446H82.2857V39.9111Z" fill="white"/>
</mask>
<g mask="url(#mask0_2388_3742)">
<path d="M16.3975 53.7708C16.4325 53.7708 16.4325 53.7708 16.4672 53.7708C17.0256 53.7708 17.5492 53.6304 17.9679 53.2796C18.2471 53.0691 18.4565 52.8235 18.6658 52.5078C18.7706 52.2973 18.8752 52.0868 18.9101 51.8763V51.8412C18.9101 51.8061 18.9101 51.8061 18.9101 51.771C19.2242 50.6132 19.5384 49.4555 19.8524 48.2977C19.992 47.4206 19.5384 46.9996 18.9451 46.8593C19.7128 46.754 20.3409 46.1927 20.6202 45.491C20.9342 44.3684 21.2135 43.2457 21.5275 42.123C21.5625 41.9827 21.5972 41.8423 21.6322 41.702C21.6671 41.5617 21.6671 41.4213 21.6671 41.281C21.6322 41.0003 21.5275 40.7197 21.353 40.4741C21.1436 40.2636 20.8993 40.0882 20.6202 40.018C20.4806 39.9829 20.3409 39.9829 20.2014 39.9829C20.0618 39.9829 19.9223 39.9829 19.7825 39.9829C17.4793 39.9829 15.1412 39.9829 12.8379 39.9829L9.17358 53.7006C11.5466 53.7006 13.9546 53.7006 16.3277 53.7006C16.3277 53.7708 16.3626 53.7708 16.3975 53.7708ZM15.8392 41.9827C16.1881 41.9827 16.5022 41.9827 16.8511 41.9827C17.0256 41.9827 17.2001 41.9827 17.3398 41.9827C17.4095 41.9827 17.5143 41.9827 17.584 41.9827C17.6189 41.9827 17.6538 41.9827 17.7237 41.9827C17.7585 41.9827 17.7934 42.0178 17.8283 42.0528C17.8982 42.123 17.9329 42.1932 17.9329 42.2984C17.9329 42.3335 17.8982 42.5089 17.8632 42.544C17.8283 42.7545 17.7934 42.8949 17.7237 43.0703C17.6189 43.386 17.5492 43.7369 17.4793 44.0526C17.3747 44.3684 17.3049 44.7192 17.2001 45.0349C17.1653 45.2104 17.1304 45.3507 17.0605 45.5261C17.0256 45.7015 16.886 45.8419 16.7465 45.912C16.572 46.0173 16.4325 46.0173 16.258 46.0173C16.0835 46.0173 15.909 46.0173 15.7693 46.0173C15.4203 46.0173 15.1063 46.0173 14.7573 46.0173L15.8392 41.9827ZM15.909 49.8765C15.8042 50.1922 15.7344 50.5431 15.6297 50.8588C15.5948 51.0342 15.5599 51.1746 15.4902 51.35C15.4553 51.5254 15.3157 51.6657 15.1762 51.7359C15.0015 51.8412 14.862 51.8412 14.6875 51.8412C14.513 51.8412 14.3385 51.8412 14.199 51.8412C13.85 51.8412 13.5358 51.8412 13.1868 51.8412L14.2339 47.8416C14.5828 47.8416 14.8969 47.8416 15.2459 47.8416C15.4203 47.8416 15.5948 47.8416 15.7344 47.8416C15.8042 47.8416 15.909 47.8416 15.9787 47.8416C16.0136 47.8416 16.0486 47.8416 16.1183 47.8416C16.1532 47.8416 16.1881 47.8767 16.223 47.9118C16.2927 47.982 16.3277 48.0521 16.3277 48.1574C16.3277 48.1925 16.258 48.3679 16.258 48.403C16.223 48.5784 16.1881 48.7187 16.1183 48.8941C16.0835 49.245 16.0136 49.5607 15.909 49.8765Z" fill="#FF0000"/>
<path d="M68.3247 51.8412C67.6615 51.8412 66.9985 51.8412 66.3704 51.8412C66.0562 51.8412 65.7073 51.8412 65.3932 51.8412C65.3234 51.8412 65.2188 51.8412 65.1489 51.8412C65.0792 51.8412 64.9744 51.8412 64.9047 51.8412C64.7301 51.8412 64.6255 51.6658 64.6604 51.4904C65.0093 50.2274 65.3234 48.9293 65.6724 47.6663C66.3355 45.1052 67.0334 42.5792 67.6964 40.0181C67.4523 40.0181 67.173 40.0181 66.9287 40.0181C66.859 40.0181 66.2307 40.0181 66.161 40.0181C65.6376 40.0181 65.114 40.1935 64.6953 40.5092C64.2416 40.825 63.9275 41.246 63.7181 41.7372C63.6135 41.9827 63.5786 42.2283 63.5087 42.4739C63.439 42.7195 63.3692 42.9651 63.2993 43.2107C62.7759 45.2104 62.2175 47.2453 61.694 49.245C61.5545 49.7362 61.4149 50.2625 61.3101 50.7536C61.2404 50.9992 61.1706 51.2448 61.1007 51.4904C61.0658 51.6307 61.031 51.736 60.9961 51.8763C60.9612 52.0167 60.9262 52.1219 60.9262 52.2622C60.8913 52.7534 61.0658 53.2095 61.4497 53.4902C61.6242 53.6305 61.8685 53.7357 62.0779 53.7708C62.1825 53.7708 62.3223 53.7708 62.4269 53.7708C62.5664 53.7708 62.6712 53.7708 62.8108 53.7708C62.9154 53.7708 62.9853 53.7708 63.0899 53.7708C65.1489 53.7708 67.2428 53.7708 69.3019 53.7708C68.6387 53.3498 68.3247 52.8236 68.3247 51.8412Z" fill="#FF0000"/>
<path d="M70.7673 53.771C70.8721 53.771 70.9767 53.8061 71.1164 53.8061C71.221 53.8061 71.3256 53.8061 71.4654 53.8061C71.6748 53.8061 71.9189 53.8061 72.1284 53.8061C72.5821 53.8061 73.0357 53.8061 73.4894 53.8061C73.943 53.8061 74.3968 53.8061 74.8504 53.8061C75.0598 53.8061 75.3041 53.8061 75.5135 53.8061C75.6182 53.8061 76.1067 53.8061 76.1765 53.8061C77.1188 53.771 77.9563 53.2447 78.445 52.4378C78.5496 52.2273 78.6542 52.0519 78.6891 51.8414C78.759 51.6309 78.7939 51.4204 78.8636 51.2099C78.9684 50.7889 79.108 50.3328 79.2126 49.9118C79.6663 48.1576 80.1549 46.4034 80.6086 44.6492C80.8528 43.7722 81.0622 42.8951 81.3065 42.018C81.3764 41.7724 81.4112 41.6321 81.4112 41.3514C81.4112 41.1058 81.3065 40.8953 81.2019 40.7199C80.9576 40.334 80.5038 40.0884 80.0502 40.0884C78.2356 40.0884 76.4556 40.0884 74.641 40.0884C73.6987 40.0884 72.8263 40.5796 72.3378 41.3514C72.233 41.5268 72.1284 41.7373 72.0585 41.9478C72.0237 42.0531 71.9189 42.4741 71.884 42.5793C71.7794 43.0003 71.6398 43.4564 71.5351 43.8774C71.0815 45.6316 70.5928 47.3858 70.1392 49.1399C70.0344 49.5609 69.8949 50.017 69.7902 50.438C69.7204 50.6485 69.6854 50.859 69.6158 51.1046C69.5459 51.3151 69.511 51.5256 69.4413 51.7712C69.1969 52.6834 69.8252 53.5956 70.7673 53.771ZM73.0706 51.4555C73.0706 51.3853 73.1056 51.3502 73.1056 51.28C73.1753 51.0345 73.2451 50.7889 73.315 50.5433C73.4545 50.0521 73.5591 49.561 73.6987 49.0698C73.943 48.0874 74.2223 47.1402 74.4665 46.1578C74.7108 45.1755 74.9899 44.2282 75.2343 43.2459C75.3041 43.0003 75.3738 42.7547 75.4437 42.5091C75.4437 42.439 75.4786 42.4039 75.5135 42.3337C75.5483 42.2636 75.5832 42.2285 75.6182 42.1583C75.7228 42.0531 75.8276 41.9829 75.9322 41.9478C76.0719 41.9127 76.1765 41.9127 76.3161 41.9127C76.4556 41.9127 76.5604 41.9127 76.7 41.9127C76.9443 41.9127 77.1885 41.9127 77.4328 41.9127C77.5724 41.9127 77.6772 42.018 77.7121 42.1232C77.7121 42.1934 77.7121 42.2636 77.6772 42.2986C77.6772 42.3688 77.6422 42.4039 77.6422 42.4741C77.5724 42.7197 77.5027 42.9652 77.4328 43.2108C77.2933 43.702 77.1885 44.1932 77.0489 44.6492C76.8048 45.6316 76.5255 46.5788 76.2812 47.5612C76.037 48.5435 75.7577 49.4908 75.5135 50.4731C75.4437 50.7187 75.3738 50.9643 75.3041 51.2099C75.3041 51.28 75.2692 51.3151 75.2343 51.3853C75.1993 51.4555 75.1644 51.4905 75.1296 51.5607C75.0249 51.666 74.9202 51.7361 74.8154 51.7712C74.6759 51.8063 74.5713 51.8063 74.4316 51.8063C74.292 51.8063 74.1874 51.8063 74.0478 51.8063C73.8035 51.8063 73.5591 51.8063 73.315 51.8063C73.1753 51.8063 73.0706 51.701 73.0357 51.5958C73.0357 51.5958 73.0357 51.4905 73.0706 51.4555Z" fill="#FF0000"/>
<path d="M47.9117 53.7709H50.2149L52.3089 50.473H56.2872L55.9732 53.7709H59.3931L60.7542 40.0532C60.3354 40.0532 59.9166 40.0532 59.4979 40.0532C59.2885 40.0532 59.0791 40.0532 58.8697 40.0532C58.6603 40.0532 58.4508 40.0532 58.2414 40.0532C57.404 40.0883 56.6012 40.4742 56.0429 41.1057C55.9033 41.2461 55.7987 41.4215 55.6939 41.5969C55.5893 41.7723 55.4845 41.9477 55.3449 42.1232C55.1355 42.474 54.8913 42.8248 54.6819 43.1757C54.2282 43.8773 53.7746 44.579 53.3208 45.2807C51.5062 48.1224 49.6915 50.9642 47.9117 53.7709ZM57.0201 43.1055L56.4966 48.5435H53.5652L57.0201 43.1055Z" fill="#FF0000"/>
<path d="M20.5511 50.9292C20.4463 51.28 20.3417 51.666 20.2718 52.0168C20.2369 52.1922 20.2021 52.3676 20.2369 52.5781C20.2718 52.7886 20.3067 52.929 20.4114 53.1044C20.6208 53.4201 20.935 53.6657 21.3187 53.7359C21.4933 53.771 21.7026 53.771 21.8771 53.771C22.0516 53.771 22.261 53.771 22.4354 53.771C23.1683 53.771 23.9361 53.771 24.6689 53.771C25.4018 53.771 26.1347 53.771 26.9024 53.771C27.0769 53.771 27.2514 53.771 27.4259 53.7359C27.6004 53.7008 27.7749 53.6657 27.9843 53.5956C28.3332 53.4552 28.6822 53.2447 28.9615 52.9641C29.2406 52.6834 29.45 52.3676 29.5895 52.0168C29.6594 51.8414 29.6943 51.666 29.7292 51.4905C29.764 51.3151 29.8339 51.1397 29.8688 50.9643C30.0782 50.2275 30.2527 49.5259 30.4621 48.7891C31.2297 45.8772 31.9975 42.9652 32.8002 40.0884H29.2406C28.6822 42.1934 28.1238 44.3335 27.5654 46.4385C27.2863 47.491 27.0071 48.5435 26.728 49.6311C26.5884 50.1574 26.4487 50.6836 26.3091 51.2099C26.2742 51.3502 26.2394 51.4555 26.1696 51.5958C26.0997 51.701 25.9951 51.8063 25.8555 51.8765C25.7158 51.9466 25.6112 51.9466 25.4717 51.9466C25.3321 51.9466 25.1924 51.9466 25.0528 51.9466C24.9133 51.9466 24.7737 51.9466 24.634 51.9466C24.5643 51.9466 24.4945 51.9466 24.4248 51.9466C24.3898 51.9466 24.2501 51.9466 24.2154 51.9466C24.0756 51.9115 23.971 51.7712 24.0059 51.6309C24.0059 51.5958 24.0409 51.4555 24.0409 51.4204C24.0756 51.3502 24.0756 51.28 24.1106 51.2099C24.2501 50.6836 24.3898 50.1574 24.5294 49.6311C24.8085 48.5786 25.0878 47.5261 25.3669 46.4736C25.9252 44.3686 26.4836 42.2285 27.0769 40.1235H23.5173C22.7496 43.0354 21.9819 45.9473 21.1791 48.8242C20.935 49.4908 20.7603 50.1925 20.5511 50.9292Z" fill="#FF0000"/>
<path d="M33.9857 53.7708L35.3816 48.5434H39.6392L40.6164 46.6138H35.905C36.1144 45.8069 36.3239 45.035 36.5333 44.2281C36.6379 43.8422 36.7427 43.4212 36.8473 43.0353C36.8822 42.8247 36.9521 42.6493 37.0567 42.4739C37.1615 42.2985 37.336 42.1582 37.5105 42.0529C37.7197 41.9477 37.8944 41.9477 38.1036 41.9477C38.313 41.9477 38.5224 41.9477 38.7318 41.9477C39.1507 41.9477 39.5693 41.9477 39.9532 41.9477C40.7909 41.9477 41.5934 41.9477 42.431 41.9477C42.6405 41.1407 43.0244 40.4742 43.792 40.0181C41.8727 40.0181 39.9183 40.0181 37.999 40.0181C37.4057 40.0181 36.8124 40.0181 36.1843 40.0181H36.1494C36.1144 40.0181 36.1144 40.0181 36.0795 40.0181C36.0447 40.0181 35.9749 40.0181 35.94 40.0181C35.8353 40.0181 35.7655 40.0531 35.6609 40.0531C35.4864 40.0882 35.277 40.1584 35.1025 40.2286C34.6487 40.4391 34.2301 40.7548 33.9508 41.1407C33.8112 41.3512 33.7065 41.5617 33.6018 41.7722C33.532 41.9477 33.4623 42.2634 33.3924 42.4388C32.3805 46.2279 31.4033 49.9467 30.3913 53.7357H33.9857V53.7708Z" fill="#FF0000"/>
<path d="M40.688 53.7708H44.2476L45.6436 48.5434H49.8662L50.8782 46.6138H46.167C46.3764 45.7718 46.6206 44.9298 46.83 44.0878C46.9348 43.6668 47.0394 43.2458 47.179 42.8248C47.2139 42.7195 47.2488 42.6143 47.2838 42.5441C47.3535 42.4388 47.3884 42.3687 47.4932 42.2634C47.6327 42.088 47.8421 41.9827 48.0514 41.9477C48.1562 41.9126 48.2608 41.9477 48.3656 41.9477C48.4702 41.9477 48.575 41.9477 48.6796 41.9477C48.889 41.9477 49.0984 41.9477 49.3426 41.9477C49.7614 41.9477 50.2152 41.9477 50.6339 41.9477C51.5064 41.9477 52.3788 41.9477 53.2512 41.9477C53.4607 41.1407 53.8446 40.4742 54.6123 40.0181C52.623 40.0181 50.6688 40.0181 48.6796 40.0181C48.0514 40.0181 47.3884 40.0181 46.7602 40.0181C46.6555 40.0181 46.5509 40.0181 46.4461 40.0181H46.4112C46.3764 40.0181 46.3415 40.0181 46.3066 40.0181C46.2367 40.0181 46.167 40.0181 46.0972 40.0531C45.9576 40.0882 45.8181 40.0882 45.7133 40.1233C45.2247 40.2636 44.771 40.5443 44.457 40.9302C44.2825 41.1057 44.1429 41.3162 44.0381 41.5617C43.8986 41.8424 43.8637 42.0178 43.794 42.2283C42.7469 46.0875 41.7349 49.9467 40.688 53.7708Z" fill="#FF0000"/>
<path d="M79.8416 53.7009V52.3326H79.3529V52.1572H80.5744V52.3326H80.0858V53.7009H79.8416Z" fill="#FF0000"/>
<path d="M80.7479 53.7009V52.1572H81.0619L81.4109 53.2448C81.4458 53.3501 81.4807 53.4202 81.4807 53.4553C81.4807 53.3852 81.5157 53.315 81.5504 53.2097L81.9343 52.1572H82.2136V53.7009H82.0042V52.4028L81.5504 53.7009H81.3759L80.9223 52.4028V53.7009H80.7479Z" fill="#FF0000"/>
</g>
</svg>
