<svg width="90" height="90" viewBox="0 0 90 90" fill="none" xmlns="http://www.w3.org/2000/svg">
<path d="M37.8324 57.6663C36.7439 57.6663 36.1219 56.7334 36.1458 55.9559C36.1698 55.2382 36.6961 54.3411 37.629 53.4799L39.5428 57.3075C38.9089 57.6185 38.4065 57.6663 37.8324 57.6663ZM41.2293 43.313C42.1264 43.3728 42.569 43.8153 42.5092 44.533C42.4733 44.9995 41.6719 46.1597 40.4638 47.2123C40.1887 46.7458 39.5548 45.5975 39.5548 44.9277C39.5428 44.0785 40.3322 43.2532 41.2293 43.313ZM50.6308 51.0997H44.9373C44.9373 51.0997 44.5784 52.224 43.7412 53.5278L42.3058 50.7528C44.6622 49.3294 47.3056 47.0568 47.3056 43.8153C47.3056 40.0117 42.8919 39.9399 41.7436 39.9399C39.2438 39.9399 35.4162 41.3753 34.7703 44.7363C34.2799 47.2841 35.5119 49.3892 35.799 49.8318C33.7417 50.8604 31.5289 52.4273 30.6796 55.6329C29.5313 59.9629 31.8279 62.1996 35.3564 62.1996C37.1267 62.1996 39.2079 61.7211 41.2891 60.7523L41.7556 61.6733H47.9634L45.8822 57.6783C47.772 55.9798 49.4466 53.8029 50.6308 51.0997Z" fill="white"/>
<path d="M25.9789 27.0098C32.7608 27.0098 35.5119 29.8326 35.3803 33.5764C35.2487 37.3202 34.4234 40.2029 34.4234 40.2029H25.5961C25.5961 40.2029 26.0147 37.691 26.3616 36.0045C26.6128 34.7606 26.2061 33.2535 24.7588 33.2535C24.077 33.2535 23.0005 33.5764 22.4503 35.2869C20.9791 39.8799 19.5079 48.157 18.9936 50.5851C18.8022 52.6903 17.7735 55.9198 20.2495 55.9198C22.1393 55.9198 22.9766 54.1256 23.5986 50.3818C23.8498 48.8508 24.2325 47.6307 24.2325 47.6307L33 47.559C32.3661 54.317 28.2036 62.2711 18.6108 62.2711C11.6973 62.2711 9.1376 58.9938 9.20936 54.9151C9.26917 50.8483 9.97488 48.3484 11.0633 43.229C12.1518 38.1097 12.403 36.8657 14.0656 33.1219C15.7521 29.3661 20.4169 27.0098 25.9789 27.0098ZM79.768 29.0671V28.6843H80.0072C80.0431 28.6843 80.067 28.6843 80.1029 28.6963C80.1388 28.6963 80.1627 28.7082 80.1866 28.7202C80.2106 28.7322 80.2345 28.7561 80.2464 28.78C80.2584 28.8039 80.2704 28.8398 80.2704 28.8757C80.2704 28.9235 80.2584 28.9594 80.2464 28.9834C80.2345 29.0073 80.2106 29.0312 80.1747 29.0432C80.1508 29.0551 80.1149 29.0671 80.079 29.0671C80.0431 29.0671 80.0072 29.0671 79.9594 29.0671H79.768ZM79.5886 28.5288V29.7369H79.768V29.2226H79.9594L80.2823 29.7369H80.4737L80.1388 29.1986C80.2225 29.1867 80.2943 29.1628 80.3541 29.1149C80.4139 29.0671 80.4378 28.9833 80.4378 28.8757C80.4378 28.7561 80.4019 28.6724 80.3421 28.6126C80.2704 28.5527 80.1747 28.5288 80.0311 28.5288H79.5886ZM79.2058 29.4857C79.17 29.3781 79.146 29.2585 79.146 29.1388C79.146 29.0192 79.17 28.8996 79.2058 28.792C79.2537 28.6843 79.3015 28.5886 79.3852 28.5169C79.457 28.4331 79.5527 28.3733 79.6484 28.3374C79.7441 28.2896 79.8637 28.2657 79.9833 28.2657C80.1029 28.2657 80.2106 28.2896 80.3063 28.3374C80.4019 28.3853 80.4976 28.4451 80.5694 28.5169C80.6412 28.6006 80.701 28.6843 80.7488 28.792C80.7967 28.8996 80.8086 29.0073 80.8086 29.1388C80.8086 29.2704 80.7847 29.39 80.7488 29.4857C80.7129 29.5934 80.6531 29.6891 80.5694 29.7608C80.4976 29.8446 80.4139 29.9044 80.3063 29.9522C80.2106 30 80.1029 30.024 79.9833 30.024C79.8637 30.024 79.756 30 79.6484 29.9522C79.5527 29.9044 79.457 29.8446 79.3852 29.7608C79.3135 29.6891 79.2537 29.5934 79.2058 29.4857ZM79.0503 28.7202C79.0025 28.8518 78.9666 28.9833 78.9666 29.1269C78.9666 29.2824 78.9905 29.4139 79.0503 29.5455C79.0982 29.6771 79.1819 29.7847 79.2656 29.8685C79.3613 29.9642 79.469 30.0359 79.5886 30.0838C79.7082 30.1316 79.8398 30.1555 79.9833 30.1555C80.1268 30.1555 80.2465 30.1316 80.378 30.0838C80.4976 30.0359 80.6053 29.9642 80.701 29.8685C80.7967 29.7728 80.8684 29.6651 80.9163 29.5455C80.9641 29.4139 81 29.2824 81 29.1269C81 28.9833 80.9761 28.8518 80.9163 28.7202C80.8684 28.5886 80.7847 28.481 80.701 28.3973C80.6053 28.3016 80.4976 28.2298 80.378 28.182C80.2584 28.1341 80.1268 28.0982 79.9833 28.0982C79.8398 28.0982 79.7202 28.1221 79.5886 28.182C79.469 28.2298 79.3613 28.3016 79.2656 28.3973C79.17 28.4929 79.0982 28.6006 79.0503 28.7202ZM78.6317 27.9308H68.6561L60.6661 40.7172L63.2856 27.9308H54.0157L47.162 61.6731H56.3721L58.2141 52.6544L59.9484 50.5014L62.2569 61.6611H72.687L67.4241 42.6908L78.6317 27.9308Z" fill="#AC1F2D"/>
</svg>
