<svg width="70" height="70" viewBox="0 0 70 70" fill="none" xmlns="http://www.w3.org/2000/svg">
<path d="M13.9365 30.298H18.3746V29.0767H13.9365V30.298Z" fill="#D21C2E"/>
<path d="M10.2363 39.7929C9.99983 39.9187 9.57692 40.0453 9.01015 40.0453C7.19263 40.0453 5.9845 38.6993 5.9845 36.1818C5.9845 33.8888 7.25323 32.1671 9.28188 32.1671C9.7341 32.1671 10.0278 32.277 10.2363 32.3896V33.7216C10.0704 33.6537 9.68415 33.5504 9.31518 33.5504C8.22227 33.5504 7.65883 34.7399 7.65883 36.1485C7.65883 37.7143 8.29153 38.668 9.31651 38.668C9.62554 38.668 9.99184 38.6074 10.2363 38.4862V39.7929Z" fill="white"/>
<path d="M16.7198 38.7013L16.7205 36.0013C16.0678 36.0099 14.883 36.1904 14.883 37.5231C14.883 38.3882 15.3439 38.7006 15.7128 38.7006L16.7198 38.7013ZM18.3728 38.0912C18.3728 38.6853 18.4095 39.4425 18.4907 39.95H15.2067C14.1091 39.95 13.2806 39.0389 13.2806 37.6963C13.2806 35.7282 14.9436 34.8977 16.6759 34.8817V34.7465C16.6759 33.9487 16.3635 33.3879 15.5317 33.3879C14.9842 33.3879 14.3582 33.5477 13.9439 33.8128V32.6673C14.3202 32.4282 14.9636 32.1198 15.8966 32.1198C17.868 32.1198 18.3728 33.4012 18.3728 35.0309V38.0912Z" fill="white"/>
<path d="M25.7566 38.6899H24.7789C24.075 38.6899 23.6674 37.6276 23.6674 36.0984C23.6674 34.7291 23.9711 33.521 24.8202 33.521C25.3157 33.521 25.6601 34.0658 25.732 34.6812C25.7566 34.8364 25.7566 35.0069 25.7566 35.1527V38.6899ZM27.429 38.0898L27.4256 29.858H25.7566V32.9309H25.7247C25.4796 32.4021 25.016 32.0991 24.3847 32.0991C23.1479 32.0991 21.9937 33.3885 21.9937 36.0758C21.9937 38.3828 22.8249 39.9446 24.3061 39.9446L27.5469 39.9473C27.4663 39.4391 27.429 38.6839 27.429 38.0898Z" fill="white"/>
<path d="M34.7579 35.3695C34.7706 34.1407 34.3677 33.4108 33.7722 33.4108C33.043 33.4108 32.7146 34.4717 32.6813 35.3695H34.7579ZM32.674 36.5643C32.692 38.276 33.4865 38.7408 34.3803 38.7408C34.9397 38.7408 35.5325 38.6149 35.8728 38.4691V39.6766C35.3953 39.9017 34.7759 40.0369 34.0759 40.0369C32.1019 40.0369 31.0423 38.605 31.0423 36.2347C31.0423 33.7018 32.2564 32.16 33.8915 32.16C35.5019 32.16 36.313 33.6153 36.313 35.6679C36.313 36.1048 36.2957 36.3512 36.2691 36.561L32.674 36.5643Z" fill="white"/>
<path d="M41.6147 33.5843V39.9539H39.9364V34.4547C39.9364 33.5896 39.8931 32.9123 39.8678 32.2343H43.1765C44.4519 32.2343 45.2118 33.1627 45.2118 34.9382V39.9539H43.5335V35.0981C43.5335 34.3328 43.371 33.5856 42.6404 33.5856L41.6147 33.5843Z" fill="white"/>
<path d="M53.0313 39.7929C52.7949 39.9187 52.3713 40.0453 51.8052 40.0453C49.9877 40.0453 48.7782 38.6993 48.7782 36.1818C48.7782 33.8888 50.0476 32.1671 52.0762 32.1671C52.5291 32.1671 52.8222 32.277 53.0313 32.3896V33.7216C52.8648 33.6537 52.4785 33.5504 52.1095 33.5504C51.0166 33.5504 50.4532 34.7399 50.4532 36.1485C50.4532 37.7143 51.0852 38.668 52.1115 38.668C52.4212 38.668 52.7862 38.6074 53.0313 38.4862V39.7929Z" fill="white"/>
<path d="M57.6479 35.3695C57.6819 34.4717 58.0102 33.4108 58.7382 33.4108C59.3349 33.4108 59.7379 34.1407 59.7245 35.3695H57.6479ZM61.279 35.6679C61.279 33.6146 60.4685 32.16 58.8581 32.16C57.2237 32.16 56.0082 33.7018 56.0082 36.2347C56.0082 38.605 57.0679 40.0369 59.0419 40.0369C59.7432 40.0369 60.3626 39.9017 60.8394 39.6766V38.4691C60.4978 38.6149 59.9064 38.7408 59.3469 38.7408C58.4525 38.7408 57.6593 38.276 57.6413 36.5643L61.2357 36.561C61.2623 36.3512 61.279 36.1048 61.279 35.6679Z" fill="white"/>
<path d="M62.9923 29.3997C63.5478 29.3997 64 29.9158 64 30.5506C64 31.1839 63.5478 31.7001 62.9923 31.7001C62.4356 31.7001 61.9854 31.1839 61.9854 30.5506C61.9854 29.9158 62.4356 29.3997 62.9923 29.3997ZM62.9957 31.5282C63.4592 31.5282 63.8075 31.1013 63.8075 30.5506C63.8075 29.9984 63.4592 29.5722 62.9957 29.5722C62.5268 29.5722 62.1778 29.9984 62.1778 30.5506C62.1778 31.1013 62.5268 31.5282 62.9957 31.5282ZM62.6067 29.8746H63.0596C63.33 29.8746 63.4645 29.9984 63.4645 30.2535C63.4645 30.4706 63.344 30.6258 63.1588 30.6258L63.4945 31.2219H63.2914L62.961 30.6258H62.7992V31.2219H62.6067V29.8746ZM62.7992 30.454H63.0276C63.1768 30.454 63.2714 30.4193 63.2714 30.2442C63.2714 30.091 63.1515 30.0464 63.0276 30.0464H62.7992V30.454Z" fill="white"/>
</svg>
