<svg width="90" height="90" viewBox="0 0 90 90" fill="none" xmlns="http://www.w3.org/2000/svg">
<g clip-path="url(#clip0_2216_2993)">
<path d="M21.6928 51.7193C20.6741 51.7193 20.2165 51.4802 20.2165 50.2703V40.2016C20.2165 38.9977 20.6003 38.8471 21.619 38.8471H22.2612V37.6033H15.6103V38.8471H16.3263C17.2785 38.8471 17.7214 39.1726 17.7214 40.2016V50.2703C17.7214 51.2971 17.1678 51.7193 16.2156 51.7193H15.5733V52.9609H22.3055V51.7193H21.6928Z" fill="white"/>
<path d="M44.2367 51.7193C43.218 51.7193 42.7604 51.4802 42.7604 50.2703V40.2016C42.7604 38.9977 43.1442 38.8471 44.1629 38.8471H44.8125V37.6033H38.1616V38.8471H38.8702C39.8225 38.8471 40.258 39.1726 40.258 40.2016V50.2703C40.258 51.2971 39.7043 51.7193 38.7669 51.7193H38.1173V52.9609H44.8494V51.7193H44.2367Z" fill="white"/>
<path d="M23.7142 37.6033V41.6499H24.8658V40.8069C24.8658 39.7883 25.2348 38.8471 26.6152 38.8471H28.9626V50.2703C28.9626 51.2971 28.3499 51.7193 27.3977 51.7193H26.7038V52.9609H33.7164V51.7193H33.0226C32.0777 51.7193 31.465 51.2971 31.465 50.2703V38.8471H33.805C35.1854 38.8471 35.5545 39.7883 35.5545 40.8069V41.6499H36.706V37.6033H23.7142Z" fill="white"/>
<path d="M57.4485 48.7927V49.0644C57.4485 50.3399 57.0942 51.7196 54.3703 51.7196H49.646L58.4377 38.8466V37.6035H46.8262V41.7616H47.9999V41.2523C47.9999 39.942 48.6052 38.8466 50.3842 38.8466C51.4619 38.8466 55.3152 38.8592 55.3152 38.8592L46.5531 51.7196V52.9604H58.6001V48.7927H57.4485Z" fill="white"/>
<path d="M71.6743 48.7726V49.183C71.6743 50.5523 71.0026 51.7193 69.3048 51.7193H64.7429V45.7025H67.4889C68.5961 45.7025 68.8471 46.6363 68.8471 47.2969V47.9362H70.0503V42.1792H68.8471V42.6915C68.8471 43.3485 68.5961 44.283 67.4889 44.283H64.7429V38.8471H69.0981C71.2757 38.8471 71.3273 40.6659 71.3273 41.3406V41.6721H72.4863V37.6033H60.2695V38.8471H60.5427C61.5982 38.8471 62.1445 38.9755 62.1445 39.9278V50.4504C62.1445 51.5569 61.4137 51.7193 60.7346 51.7193H60.3433V52.9609H72.7742V48.7726H71.6743Z" fill="white"/>
<path d="M84.2298 37.6033V38.8471H84.5768C85.7874 38.8471 86.2229 39.259 86.2229 40.302V48.8213L78.5385 37.6033H74.5081V38.8471H74.8846C75.6301 38.8471 76.2133 39.1505 76.2133 40.3323V50.3803C76.2133 51.3982 75.4825 51.7193 74.9215 51.7193H74.4048V52.9609H79.6384V51.7193H79.1438C78.5828 51.7193 77.7413 51.5761 77.7413 50.3803V40.9944L85.9498 52.9609H87.7435V40.302C87.7435 39.259 88.1717 38.8471 89.3823 38.8471H89.6997V37.6033H84.2298Z" fill="white"/>
<path d="M8.84088 52.1397C5.78485 52.1397 3.36364 49.2276 3.36364 45.2865C3.36364 41.0147 5.10573 38.2503 8.54561 38.2503C11.395 38.2503 12.5244 39.7141 12.9673 41.5396H14.0524C13.9195 40.4559 13.7276 38.5692 13.7423 38.1499C12.7901 37.9491 11.0185 37.0367 8.36845 37.0367C3.68106 37.0367 0.300232 40.2433 0.300232 45.2865C0.300232 50.216 4.20516 53.354 8.32416 53.354C10.2286 53.354 12.1184 52.9089 13.7128 51.7197C13.7866 51.3248 14.0524 50.1717 14.3255 49.2424H13.137C12.2512 51.3462 10.6125 52.1397 8.84088 52.1397Z" fill="white"/>
</g>
<defs>
<clipPath id="clip0_2216_2993">
<rect width="90" height="16.9173" fill="white" transform="translate(0 36.7368)"/>
</clipPath>
</defs>
</svg>
