<svg width="90" height="90" viewBox="0 0 90 90" fill="none" xmlns="http://www.w3.org/2000/svg">
<path d="M74.863 25.411C74.726 22.5342 73.7671 20.0685 71.5753 18.2877C69.5206 16.0959 66.9178 15 64.0411 15C51.4384 15 38.8356 15 26.0959 15C22.2603 15 19.2466 16.7808 17.0548 20.0685C15.5479 21.9863 15 24.1781 15 26.5069C15 38.8356 15 51.1644 15 63.3562C15 64.0411 15 64.726 15.137 65.274C16.3699 71.3014 20.8904 75 27.0548 75C38.8356 75 50.7534 75 62.5342 75C70.2055 75 75.274 70.0685 75.137 62.3973C75.137 50.0685 75.5479 37.7397 74.863 25.411ZM25.9589 35.274C26.2329 33.3562 26.6438 31.5753 26.9178 29.6575C27.0548 28.6986 27.6027 28.2877 28.5616 28.0137C34.589 26.2329 40.8904 25.274 47.1918 25.6849C54.4521 26.0959 60.2055 29.1096 63.3562 36.0959C64.863 40.7534 64.726 45.5479 63.9041 50.2055C63.6301 52.1233 63.0822 53.9041 62.1233 55.5479C59.9315 59.2466 57.0548 62.1233 52.8082 63.4931C49.3836 64.589 45.9589 64.4521 42.5342 64.4521C40.0685 64.4521 37.7397 63.9041 35.6849 63.0822C31.5753 61.4384 28.6986 58.4247 27.1918 54.0411C25.8219 49.9315 25.5479 45.6849 25.6849 41.4384C25.6849 39.7945 25.8219 38.2877 25.9589 36.6438" fill="white"/>
<path d="M35.137 40.342C34.589 43.0817 34.863 45.6845 35.137 48.4242C35.6849 53.3557 38.1507 56.0954 42.5342 56.7804C44.726 57.1913 46.7808 57.0543 48.9726 56.3694C51.5753 55.5475 53.2192 54.0406 54.1781 51.5749C55 49.3831 55.5479 46.9174 55.274 44.5886C55.274 42.5338 55.274 41.0269 54.726 38.9722C53.9041 36.0954 51.7123 34.1776 48.6986 33.6297C46.6438 33.2187 44.589 33.2187 42.5342 33.4927C40.7534 33.7667 38.9726 34.0406 37.1918 34.3146C36.2329 34.4516 35.5479 35.1365 35.5479 36.2324C35.5479 37.6023 35.4109 38.8352 35.274 40.342M50.0685 51.5749C49.5205 51.8489 48.9726 51.8489 48.4246 51.8489C46.2329 51.8489 43.9041 51.8489 41.7123 51.8489C38.2877 51.8489 37.0548 49.9311 38.6986 46.7804C39.5205 46.2324 40.3425 46.0954 41.3014 46.0954C43.6301 46.0954 46.0959 46.0954 48.4246 46.0954C49.1096 46.0954 49.6575 46.0954 50.3425 46.3694C52.1233 48.2872 51.9863 50.753 50.0685 51.5749Z" fill="white"/>
</svg>
