<svg width="90" height="90" viewBox="0 0 90 90" fill="none" xmlns="http://www.w3.org/2000/svg">
<path d="M12 12H78V78H12V12Z" fill="#E81825"/>
<path d="M47.8156 62.1423C49.7286 61.5667 51.5434 60.7046 53.1983 59.5855C56.5 57.3528 57.1008 61.4022 56.2261 61.9405C55.1495 62.6133 54.073 63.6226 52.9292 64.3627C51.9872 64.7664 51.1798 65.2374 50.0359 65.6411C46.268 66.8522 41.8273 66.7849 38.3958 64.7664C35.7717 63.1516 33.8878 60.3929 32.6767 57.7689C30.389 52.588 30.7255 46.9362 32.0038 41.5534C32.5654 39.4429 33.3316 37.3923 34.2915 35.4306C34.7625 34.6905 35.0989 33.9504 35.5026 33.2775C35.5699 33.2102 35.7045 33.2102 35.7045 33.1429C35.7116 33.0919 35.7352 33.0447 35.7717 33.0084C37.6904 29.8342 40.2866 27.1231 43.3748 25.0689C46.0662 23.2522 49.7668 22.1757 53.4674 23.7905L54.2748 24.1942C57.639 26.0108 58.0427 29.1732 58.3119 32.4701C58.4443 34.8052 58.054 37.1403 57.1694 39.3054C56.2847 41.4704 54.9281 43.4108 53.1983 44.9849C51.5835 46.4652 49.094 47.8781 46.4026 47.3399C45.8408 47.2766 45.3025 47.0783 44.8339 46.7619C44.3653 46.4456 43.9801 46.0206 43.7113 45.5232C42.5674 43.5047 42.9711 40.9479 43.8458 38.7275C44.3841 37.651 45.1242 36.5744 46.4699 36.238C46.7563 36.1151 47.0748 36.088 47.3779 36.1607C47.681 36.2335 47.9525 36.4022 48.152 36.6417C49.2958 38.3911 47.4119 40.3423 47.4792 42.0917C47.6137 42.3608 48.0174 42.4281 48.3538 42.4281C50.8434 41.8226 52.5927 39.8713 53.602 37.7183C54.7458 34.9596 54.8131 31.5954 53.1983 29.2405C52.7323 28.6094 52.1236 28.0976 51.422 27.7468C50.7204 27.3959 49.9457 27.2161 49.1613 27.222C47.3446 27.222 45.9989 28.2985 44.7205 29.1059C39.4051 33.2102 36.8483 39.2658 35.5699 46.2633C34.6952 50.5695 35.839 55.6831 38.5304 58.9127C39.6088 60.2807 41.056 61.3116 42.7012 61.8839C44.3464 62.4561 46.121 62.5458 47.8156 62.1423Z" fill="white"/>
</svg>
