<svg width="70" height="70" viewBox="0 0 70 70" fill="none" xmlns="http://www.w3.org/2000/svg">
<path fill-rule="evenodd" clip-rule="evenodd" d="M58.8518 31C58.9491 31 59.1372 31.0454 59.2735 31.1038C59.4032 31.1558 59.5848 31.2661 59.6627 31.344C59.747 31.4219 59.8573 31.5647 59.9092 31.662C59.9611 31.7659 60 31.9866 60 32.1683C60 32.3435 59.9481 32.6031 59.8897 32.733C59.8248 32.8628 59.6692 33.051 59.5459 33.1419C59.4227 33.2327 59.2086 33.3301 59.0788 33.356C58.9426 33.382 58.7156 33.369 58.5729 33.3366C58.4301 33.3041 58.2096 33.1743 58.0798 33.064C57.9566 32.9471 57.8074 32.733 57.749 32.5902C57.6841 32.4171 57.6647 32.2267 57.6906 32.019C57.7166 31.7983 57.7879 31.649 57.9436 31.4738C58.0539 31.344 58.268 31.1882 58.4107 31.1233C58.5534 31.0584 58.748 31 58.8518 31V31ZM58.0863 31.6426C58.0215 31.7334 57.9436 31.8827 57.9177 31.9736C57.8917 32.0644 57.8982 32.2527 57.9371 32.3954C57.9696 32.5382 58.0669 32.7265 58.1382 32.8043C58.2161 32.8887 58.3588 32.9991 58.4626 33.051C58.5599 33.1029 58.748 33.1419 58.8842 33.1419C59.0269 33.1419 59.2151 33.0834 59.3513 32.9991C59.4746 32.9147 59.6302 32.7459 59.6886 32.6226C59.7535 32.4993 59.8054 32.2916 59.8054 32.1683C59.8054 32.045 59.747 31.8438 59.6756 31.7334C59.6043 31.6166 59.4486 31.4608 59.3383 31.3894C59.2151 31.318 59.014 31.2596 58.8648 31.2596C58.7221 31.2596 58.5145 31.3115 58.4042 31.3635C58.2939 31.4219 58.1512 31.5452 58.0863 31.6426V31.6426ZM18.9048 33.4729C19.1189 33.4729 19.4822 33.4988 19.7157 33.5378C19.9492 33.5702 20.2865 33.6676 20.4617 33.752C20.6433 33.8298 20.9028 33.9986 21.0455 34.1284C21.1882 34.2517 21.3828 34.4984 21.4802 34.6736C21.5775 34.8488 21.7007 35.1799 21.7526 35.4135C21.811 35.6537 21.8564 36.1275 21.8564 36.5169C21.8564 36.8933 21.811 37.3801 21.7591 37.6073C21.7072 37.828 21.5904 38.146 21.5061 38.3212C21.4218 38.49 21.2336 38.7366 21.0974 38.8664C20.9612 38.9962 20.6887 39.178 20.4941 39.2688C20.2995 39.3597 19.9362 39.4636 19.6832 39.509C19.4238 39.5544 18.9956 39.5674 18.6778 39.5479C18.3729 39.5285 17.9382 39.4506 17.7047 39.3792C17.4712 39.3013 17.1663 39.152 17.0236 39.0417C16.8809 38.9313 16.6668 38.7107 16.55 38.5419C16.4333 38.3732 16.2905 38.0941 16.2386 37.9123C16.1868 37.7371 16.1154 37.3217 16.0765 37.0037C16.0376 36.6207 16.0376 36.2313 16.083 35.8808C16.1154 35.5888 16.2062 35.1928 16.2711 35.0111C16.3424 34.8164 16.537 34.5113 16.7187 34.3101C16.9328 34.07 17.1598 33.8947 17.4193 33.7779C17.6269 33.6806 17.9642 33.5767 18.1588 33.5443C18.3534 33.5053 18.6907 33.4794 18.9048 33.4729V33.4729ZM17.8345 34.9981C17.7436 35.102 17.6269 35.3032 17.575 35.446C17.5101 35.619 17.4777 35.9652 17.4777 36.4844C17.4777 37.0556 17.5101 37.3477 17.5879 37.5878C17.6528 37.7696 17.7826 37.9902 17.8799 38.0811C17.9837 38.1785 18.1653 38.3083 18.2885 38.3667C18.4313 38.4381 18.6713 38.4835 18.9372 38.4835C19.2551 38.4835 19.4367 38.451 19.6832 38.3277C19.8779 38.2369 20.066 38.0811 20.1568 37.9448C20.2411 37.8215 20.3384 37.6008 20.3838 37.458C20.4228 37.3152 20.4552 36.8933 20.4552 36.5169C20.4552 36.1404 20.4228 35.7186 20.3838 35.5758C20.3384 35.433 20.2411 35.2123 20.1568 35.089C20.0725 34.9657 19.8779 34.7969 19.7157 34.7125C19.4951 34.6022 19.3135 34.5698 18.9697 34.5698C18.6713 34.5698 18.4248 34.6152 18.2561 34.6931C18.1134 34.7515 17.9253 34.8943 17.8345 34.9981V34.9981ZM30.5814 33.4729C30.7955 33.4729 31.1588 33.4988 31.3923 33.5378C31.6258 33.5702 31.9826 33.6806 32.1967 33.7779C32.4237 33.8818 32.6897 34.0765 32.8584 34.2647C33.014 34.4335 33.1957 34.6931 33.2606 34.8488C33.3319 34.9981 33.4227 35.2837 33.4681 35.4784C33.5135 35.6731 33.5525 36.1404 33.5525 36.5169C33.5525 36.8933 33.5135 37.3607 33.4681 37.5554C33.4227 37.7501 33.3319 38.0357 33.2606 38.1914C33.1957 38.3407 33.0205 38.6003 32.8713 38.7691C32.7027 38.9443 32.4302 39.1455 32.2032 39.2494C31.9891 39.3532 31.6129 39.4701 31.3599 39.509C31.1069 39.5544 30.6593 39.5674 30.3544 39.5479C30.0495 39.5285 29.6149 39.4506 29.3813 39.3792C29.1478 39.3013 28.8429 39.152 28.7002 39.0417C28.5575 38.9313 28.3629 38.7366 28.2656 38.6068C28.1683 38.4705 28.0255 38.1914 27.9542 37.9772C27.8763 37.7631 27.792 37.3217 27.7661 37.0037C27.7401 36.6856 27.7401 36.1859 27.7661 35.9003C27.792 35.6147 27.8763 35.2188 27.9477 35.0241C28.0191 34.8164 28.2072 34.5178 28.3953 34.3101C28.6094 34.07 28.8364 33.8947 29.0959 33.7779C29.3035 33.6806 29.6408 33.5767 29.8354 33.5443C30.03 33.5053 30.3673 33.4794 30.5814 33.4729V33.4729ZM29.563 34.9332C29.5046 34.9981 29.3878 35.2058 29.3035 35.3811C29.1737 35.6666 29.1543 35.8094 29.1543 36.5169C29.1608 37.2114 29.1802 37.3736 29.3035 37.6527C29.3813 37.8345 29.5111 38.0422 29.5889 38.12C29.6732 38.1979 29.8549 38.3083 29.9976 38.3732C30.1403 38.4316 30.4322 38.4835 30.6463 38.4835C30.8928 38.4835 31.1458 38.4381 31.3274 38.3537C31.4896 38.2888 31.6972 38.1265 31.7945 38.0032C31.8918 37.8864 32.015 37.6073 32.0669 37.3931C32.1253 37.1789 32.1707 36.783 32.1707 36.5169C32.1707 36.2508 32.1253 35.8549 32.0669 35.6407C32.015 35.4265 31.8918 35.1539 31.7945 35.0306C31.6972 34.9073 31.5026 34.7515 31.3599 34.6866C31.1912 34.6152 30.9447 34.5698 30.6463 34.5698C30.3436 34.5698 30.1057 34.6109 29.9327 34.6931C29.79 34.758 29.6213 34.8683 29.563 34.9332V34.9332ZM14.7856 33.5962V34.6347L13.5725 34.6541C12.4827 34.6671 12.327 34.6801 12.0934 34.8034C11.8988 34.9073 11.7886 35.0306 11.6394 35.3162C11.4512 35.6861 11.4447 35.7251 11.4447 36.5753C11.4447 37.3866 11.4577 37.484 11.6069 37.776C11.7367 38.0357 11.8275 38.1265 12.061 38.2304C12.314 38.3407 12.5216 38.3602 14.7856 38.3991V39.4376L11.7626 39.4051L11.3474 39.2039C11.0945 39.0806 10.8285 38.8859 10.6793 38.7172C10.5431 38.5614 10.3679 38.3148 10.2965 38.172C10.2252 38.0292 10.1214 37.6917 10.0695 37.4256C10.0046 37.0945 9.98517 36.7441 10.0111 36.3222C10.0306 35.9847 10.089 35.5628 10.1344 35.3811C10.1863 35.2058 10.3095 34.9008 10.4133 34.7061C10.5171 34.5178 10.6923 34.2842 10.796 34.1933C10.9063 34.1024 11.1399 33.9597 11.315 33.8818C11.4966 33.7974 11.7691 33.7 11.9313 33.6676C12.0935 33.6351 12.8005 33.6092 14.7856 33.5962V33.5962ZM23.1473 33.5962H24.4512V35.6731C24.4512 37.3866 24.4707 37.7825 24.5485 37.9448C24.6069 38.0616 24.7561 38.1914 24.9248 38.2693C25.1583 38.3797 25.3399 38.3991 27.1757 38.3991V39.4376L25.8978 39.4181C24.6977 39.3987 24.5939 39.3922 24.2631 39.2429C24.0685 39.152 23.8025 38.9573 23.6663 38.808C23.5236 38.6523 23.3614 38.4186 23.303 38.2888C23.1992 38.0746 23.1862 37.776 23.1668 35.8224L23.1473 33.5962ZM34.9602 33.5962H36.6792C37.7042 33.5962 38.5345 33.6221 38.7421 33.6676C38.9237 33.7065 39.1897 33.7909 39.3259 33.8623C39.4556 33.9272 39.6373 34.0765 39.7216 34.1933C39.8059 34.3101 39.9097 34.5243 39.9551 34.6671C40.007 34.8034 40.0395 35.1279 40.0395 35.3811C40.0395 35.7186 40.0006 35.9198 39.8838 36.1924C39.7865 36.3936 39.6243 36.6207 39.5011 36.7181C39.3778 36.8155 39.1962 36.9193 39.0924 36.9453C38.9951 36.9777 38.9237 37.0296 38.9367 37.0686C38.9561 37.101 39.261 37.6203 39.6243 38.2174C39.9876 38.8145 40.2795 39.3338 40.2795 39.3727C40.2795 39.4116 40.007 39.4311 38.8848 39.4311L37.6198 37.1659H36.2576V39.4376H34.9602V33.5962ZM36.2576 36.0626L38.4112 36.0301C38.6837 35.7121 38.7226 35.5952 38.7226 35.3616C38.7291 35.115 38.6967 35.0241 38.5604 34.8943C38.3918 34.732 38.3593 34.7255 37.3279 34.7061L36.2705 34.6866L36.2576 36.0626ZM46.3773 33.5962V34.6996H45.1123C44.1133 34.6996 43.7955 34.719 43.6008 34.7969C43.4711 34.8553 43.3089 34.9527 43.2376 35.0111C43.1727 35.0695 43.0819 35.1928 43.0365 35.2837C42.9911 35.3746 42.9327 35.5693 42.8743 35.9977H46.3773V37.101H42.8743V39.4376H41.5769L41.6028 37.4385C41.6223 35.6342 41.6353 35.407 41.7585 35.0241C41.8364 34.7904 41.9921 34.4854 42.1153 34.3426C42.2451 34.1868 42.4851 34.0116 42.7186 33.9077C42.9262 33.8104 43.2635 33.7 43.4581 33.6676C43.6527 33.6351 44.3923 33.6092 46.3773 33.5962V33.5962ZM47.6098 33.5962H48.8423L48.8618 35.6537C48.8748 37.4515 48.8942 37.7436 48.9915 37.9253C49.0499 38.0486 49.2186 38.1979 49.3743 38.2823C49.5948 38.3991 49.7635 38.4251 50.1722 38.4316C50.6068 38.4316 50.7366 38.4056 50.9701 38.2693C51.1323 38.172 51.2879 38.0162 51.3398 37.8929C51.4177 37.7241 51.4371 37.2957 51.4371 33.5962H52.7346V35.5563C52.7346 36.6402 52.7021 37.6852 52.6697 37.8799C52.6308 38.0746 52.5205 38.3667 52.4232 38.5224C52.3259 38.6847 52.1183 38.9119 51.9561 39.0352C51.7939 39.152 51.502 39.3013 51.3074 39.3597C51.0479 39.4376 50.7171 39.4701 50.1073 39.4636C49.3873 39.4636 49.2056 39.4376 48.8748 39.3078C48.6023 39.2039 48.3818 39.0547 48.1418 38.8145C47.8952 38.5549 47.7785 38.3732 47.7071 38.12C47.6293 37.8474 47.6098 37.3607 47.6098 35.6861V33.5962ZM53.9541 33.5962H55.2645L55.2969 37.8734L55.4591 38.0486C55.5499 38.146 55.7121 38.2628 55.8289 38.3147C55.9781 38.3732 56.3348 38.3991 57.989 38.3991V39.4376L56.7046 39.4246C55.4656 39.4051 55.4137 39.3987 55.0699 39.2364C54.8753 39.139 54.6093 38.9508 54.486 38.8145C54.3693 38.6782 54.2071 38.4316 54.1357 38.2693C54.006 37.9967 53.9995 37.8409 53.9736 35.79L53.9541 33.5962ZM58.3782 31.5192H58.7221C58.9167 31.5192 59.1243 31.5582 59.2086 31.6166C59.3037 31.6815 59.3513 31.7789 59.3513 31.9087C59.3513 32.0255 59.3059 32.1228 59.241 32.1618C59.1372 32.2137 59.1437 32.2462 59.3383 32.4993C59.5524 32.7784 59.5524 32.7849 59.4032 32.8043C59.3124 32.8173 59.2216 32.7784 59.1697 32.707C59.1243 32.6421 59.0269 32.5253 58.9621 32.4409C58.8907 32.363 58.7869 32.2981 58.735 32.2981C58.6637 32.2981 58.6377 32.3695 58.6377 32.5577C58.6377 32.7719 58.6183 32.8173 58.508 32.8173C58.3847 32.8173 58.3782 32.7719 58.3782 32.1683V31.5192ZM58.7869 32.1034C58.8648 32.1034 58.9751 32.0709 59.0269 32.0385C59.1048 31.993 59.1113 31.9476 59.0529 31.8632C59.014 31.7983 58.9037 31.7334 58.8129 31.7269C58.6702 31.7075 58.6442 31.7269 58.6442 31.9022C58.6377 32.0709 58.6637 32.1034 58.7869 32.1034Z" fill="#E6022C"/>
</svg>
