<svg width="70" height="70" viewBox="0 0 70 70" fill="none" xmlns="http://www.w3.org/2000/svg">
<path d="M23.155 40.3936C23.0387 41.6186 23 63.9208 23 63.9208H28.2306V57.4071H31.8145V53.7127L35.5437 53.6641L35.5921 50.0184H39.176V46.324H45.5205L45.443 43.2908C45.4042 41.6186 45.3558 40.0728 45.3268 39.8589C45.3074 39.645 45.2008 38.5075 45.104 37.3312C44.9974 36.1548 44.9103 35.1243 44.9103 35.0465C44.9103 34.9688 44.8231 33.9577 44.7165 32.8105C44.5519 30.973 44.4259 30.2633 43.7188 26.9773C43.283 24.9162 42.9052 23.2149 42.8858 23.1857C42.8665 23.1565 42.8374 23.1565 42.8083 23.1857C42.789 23.2149 42.7309 23.5357 42.6921 23.9051C42.6437 24.2648 42.5856 24.5857 42.5468 24.6051C42.4984 24.6246 42.45 24.4787 42.4209 24.2843C42.3918 24.0801 42.1981 22.5149 41.985 20.8038C41.7719 19.0928 41.5782 17.4984 41.5588 17.2553C41.5298 17.0123 41.1811 14.2415 40.7742 11.0818C40.3771 7.9222 40.0478 5.31671 40.0478 5.2681C40.0478 5.22921 39.9993 5.20977 39.9412 5.21949C39.8831 5.23894 39.8153 5.42365 39.7959 5.63754C39.7766 5.85142 39.3891 8.75829 38.9339 12.1027C38.4786 15.447 38.0911 18.3539 38.0621 18.5678C38.033 18.7817 37.8684 20.0941 37.6746 21.4844C37.4906 22.8746 37.3162 24.1774 37.2872 24.3718C37.2581 24.576 37.2 24.7412 37.1419 24.7412C37.0838 24.7412 37.0257 24.5079 36.9966 24.2357C36.9675 23.9537 36.9094 23.594 36.861 23.4288C36.8029 23.2343 36.7577 23.1857 36.7254 23.2829C36.6963 23.3607 36.4735 25.0912 36.2314 27.1231C35.9892 29.155 35.7374 31.5855 35.6793 32.5188C35.6212 33.4521 35.5727 34.2882 35.5727 34.366C35.5727 34.4438 35.4856 36.0673 35.379 37.9631C35.2821 39.8589 35.1756 41.4339 35.1562 41.463C35.1272 41.4922 35.0884 41.4436 35.0594 41.3658C35.04 41.288 34.8656 40.6269 34.6719 39.9075C34.4879 39.1881 34.3038 38.5756 34.2845 38.5464C34.2554 38.5173 34.2167 38.5173 34.1973 38.5464C34.1876 38.5756 34.0132 39.1881 33.8292 39.9075C33.6452 40.6269 33.4418 41.2297 33.374 41.2491C33.3062 41.2589 33.2674 41.1228 33.2674 40.9089C33.2674 40.7047 33.1802 39.0325 33.0834 37.1854C32.9865 35.3382 32.8993 33.7632 32.8993 33.6854C32.8993 33.6077 32.8703 33.0341 32.8315 32.4216C32.8025 31.8091 32.5797 29.7092 32.3375 27.755C32.1051 25.8009 31.9016 24.0121 31.8726 23.769C31.8532 23.526 31.7951 23.3218 31.7564 23.3024C31.7079 23.2927 31.6111 23.5746 31.5433 23.9343C31.4755 24.3037 31.4076 24.6148 31.3786 24.644C31.3495 24.6732 31.3108 24.6732 31.2914 24.644C31.272 24.6148 31.1171 23.594 30.9524 22.3593C30.7877 21.1247 30.6327 19.9483 30.6037 19.7344C30.5746 19.5205 30.1194 16.1276 29.5866 12.1999C29.0539 8.27219 28.589 5.03478 28.5696 5.00561C28.5405 4.97644 28.5018 5.06394 28.4824 5.20005C28.4533 5.33616 28.1046 8.06803 27.6978 11.2763C27.291 14.4845 26.9423 17.2845 26.9229 17.4984C26.8939 17.7122 26.7001 19.3553 26.4774 21.1441C26.2643 22.9329 26.0608 24.469 26.0318 24.5468C25.993 24.6537 25.9543 24.6246 25.9059 24.4496C25.8574 24.3135 25.8284 24.0024 25.8187 23.7399C25.809 23.4871 25.7703 23.2635 25.7121 23.2343C25.6637 23.2052 25.5959 23.2635 25.5765 23.351C25.5475 23.4482 25.1794 25.1496 23.9783 30.7202L23.678 34.1715C23.5134 36.0673 23.3584 37.9242 23.3293 38.3034C23.3003 38.6825 23.2228 39.6159 23.155 40.3936Z" fill="white"/>
<path d="M40.1446 50.2129V48.7546V47.2963H43.0505V50.2129H40.1446Z" fill="#0066CC"/>
<path d="M43.8254 50.2129V48.7546V47.2963H46.8281V50.2129H43.8254Z" fill="#0066CC"/>
<path d="M36.4639 53.9072V52.4003V50.8934H39.3698V53.9072H36.4639Z" fill="#0066CC"/>
<path d="M40.1446 53.9072V52.4489V50.9906H43.0505V53.9072H40.1446Z" fill="#0066CC"/>
<path d="M43.8254 53.9072V52.4489V50.9906H46.8281V53.9072H43.8254Z" fill="#0066CC"/>
<path d="M32.7831 57.6016V56.0947L32.7928 54.578L35.7374 54.6364L35.7858 57.6016H32.7831Z" fill="#0066CC"/>
<path d="M36.4542 57.6113V56.153V54.6947H39.3601V57.6113H36.4542Z" fill="#0066CC"/>
<path d="M40.135 57.6113V56.153V54.6947H43.0408V57.6113H40.135Z" fill="#0066CC"/>
<path d="M43.8157 57.6113V56.153V54.6947H46.8185V57.6113H43.8157Z" fill="#0066CC"/>
<path d="M29.0927 61.3056V59.7987V58.2918H32.0954V61.3056H29.0927Z" fill="#0066CC"/>
<path d="M32.7734 61.3056L32.7831 59.789V58.2821L35.7277 58.3404V61.257L32.7734 61.3056Z" fill="#0066CC"/>
<path d="M36.4639 61.2959V59.789V58.2821H39.3698V61.2959H36.4639Z" fill="#0066CC"/>
<path d="M40.1446 61.2959V59.789V58.2821H43.0505V61.2959H40.1446Z" fill="#0066CC"/>
<path d="M43.8254 61.2959V59.789V58.2821H46.8281V61.2959H43.8254Z" fill="#0066CC"/>
<path d="M29.083 63.5514C29.0733 62.7639 29.1023 62.0834 29.1508 62.0445C29.1895 62.0056 29.8772 61.9764 32.1051 61.9764V64.9903H29.1023L29.083 63.5514Z" fill="#0066CC"/>
<path d="M32.7831 64.9903V63.4834V61.9764H35.7858V64.9903H32.7831Z" fill="#0066CC"/>
<path d="M36.6092 64.9417L36.5801 63.4639L36.5511 61.9764H39.4472L39.4182 64.9417H36.6092Z" fill="#0066CC"/>
<path d="M40.1446 65V63.4931V61.9862H43.0505V65H40.1446Z" fill="#0066CC"/>
<path d="M43.8254 65V63.4931V61.9764L46.7797 62.0348L46.8281 65H43.8254Z" fill="#0066CC"/>
</svg>
