<svg width="90" height="90" viewBox="0 0 90 90" fill="none" xmlns="http://www.w3.org/2000/svg">
<path d="M20.1496 28.6756L38.185 63.3442C38.308 63.5805 38.5023 63.6715 38.7679 63.6173L48.804 61.4183C48.88 61.402 48.959 61.4028 49.0355 61.4206C49.112 61.4385 49.1841 61.4729 49.2468 61.5216L52.3093 63.9421C52.3495 63.974 52.3797 64.0169 52.3966 64.0655C52.4135 64.114 52.4164 64.1666 52.4048 64.2167C52.3932 64.2669 52.3678 64.3126 52.3313 64.349C52.2948 64.3854 52.2488 64.4105 52.1986 64.4218L37.0485 67.8164C36.9841 67.8289 36.9175 67.8204 36.8589 67.7925C36.8003 67.7646 36.7529 67.7185 36.7238 67.6615L17.1683 29.8858C17.0551 29.6645 17.0699 29.4504 17.2125 29.2438L18.8729 26.8676C19.0205 26.6561 19.2222 26.538 19.478 26.5134C30.8178 25.3425 42.1527 24.2086 53.4826 23.1115C54.2796 23.0377 55.2389 22.6171 56.2278 22.4769C56.5328 22.4375 56.7615 22.5507 56.914 22.8163L61.7256 31.2068C61.8486 31.4232 61.7895 31.5733 61.5484 31.6569C60.8203 31.9029 60.2864 31.7258 59.947 31.1256C58.4957 28.5379 57.288 26.4519 56.3237 24.8678C56.181 24.6366 55.9744 24.5357 55.7038 24.5652L20.4964 28.0336C20.425 28.0412 20.3565 28.0662 20.2969 28.1062C20.2373 28.1463 20.1883 28.2002 20.1541 28.2634C20.12 28.3266 20.1017 28.3971 20.101 28.4689C20.1002 28.5407 20.1168 28.6117 20.1496 28.6756Z" fill="#00AEF0"/>
<path d="M46.2033 27.215C46.2445 27.1901 46.2939 27.1823 46.3408 27.1934C46.3876 27.2044 46.4283 27.2334 46.4542 27.274L47.4135 28.7868C47.6019 29.0832 47.7363 29.3971 47.7875 29.6599C47.8387 29.9226 47.8024 30.1128 47.6866 30.1889L47.598 30.2479C47.4801 30.3205 47.2929 30.2728 47.0773 30.1152C46.8616 29.9576 46.6349 29.7029 46.4468 29.4066L45.4875 27.8939C45.4737 27.8736 45.464 27.8508 45.4592 27.8267C45.4543 27.8027 45.4543 27.7779 45.4591 27.7539C45.4639 27.7298 45.4735 27.707 45.4872 27.6867C45.5009 27.6664 45.5186 27.649 45.5391 27.6356L46.2033 27.215Z" fill="#00AEF0"/>
<path d="M44.094 30.5357L42.2787 28.2997C41.9343 27.8717 42.0352 27.6577 42.5812 27.6577H43.0683C43.3241 27.6577 43.5135 27.7684 43.6365 27.9898L44.8098 30.0486C44.8604 30.1434 44.8742 30.2535 44.8485 30.3578C44.8229 30.4621 44.7595 30.5532 44.6707 30.6137C44.5819 30.6741 44.4739 30.6995 44.3674 30.6851C44.261 30.6708 44.1636 30.6175 44.094 30.5357Z" fill="#00AEF0"/>
<path d="M39.6833 28.0279L39.6107 28.0786C39.3734 28.2441 39.3153 28.5707 39.4808 28.808L40.7897 30.6842C40.9552 30.9215 41.2818 30.9797 41.5191 30.8142L41.5918 30.7635C41.8291 30.5979 41.8873 30.2713 41.7217 30.034L40.4129 28.1578C40.2473 27.9205 39.9207 27.8623 39.6833 28.0279Z" fill="#00AEF0"/>
<path d="M36.5454 28.1804L36.4219 28.2612C36.1934 28.4107 36.1294 28.7171 36.2789 28.9456L37.6366 31.0204C37.7861 31.2489 38.0926 31.3129 38.3211 31.1634L38.4446 31.0826C38.673 30.933 38.7371 30.6266 38.5876 30.3981L37.2299 28.3234C37.0804 28.0949 36.7739 28.0309 36.5454 28.1804Z" fill="#00AEF0"/>
<path d="M35.0912 31.5093C35.0714 31.5234 35.049 31.5335 35.0252 31.539C35.0014 31.5444 34.9769 31.5451 34.9529 31.541C34.9288 31.5368 34.9059 31.528 34.8853 31.515C34.8647 31.5019 34.8469 31.485 34.8329 31.465L33.5194 29.5832C33.3684 29.3659 33.2706 29.1254 33.247 28.9139C33.2235 28.7025 33.2763 28.5373 33.394 28.4542L33.453 28.4099C33.572 28.3289 33.7457 28.337 33.9364 28.4323C34.1271 28.5277 34.3193 28.7026 34.4713 28.9191L35.7923 30.8008C35.8186 30.8403 35.8286 30.8885 35.8204 30.9352C35.8121 30.9819 35.7862 31.0236 35.748 31.0518L35.0912 31.5093Z" fill="#00AEF0"/>
<path d="M50.9744 33.3622L35.7948 34.8159C35.7158 34.8239 35.6399 34.8511 35.5737 34.8951C35.5076 34.9391 35.4532 34.9987 35.4154 35.0685C35.3776 35.1384 35.3574 35.2165 35.3566 35.2959C35.3559 35.3754 35.3746 35.4538 35.4111 35.5244L42.9898 50.1135C43.0931 50.3054 43.2456 50.4481 43.4473 50.5416L44.7387 51.1245C44.8119 51.1566 44.8732 51.2107 44.9141 51.2793C44.955 51.3479 44.9736 51.4276 44.9671 51.5072C44.9606 51.5868 44.9294 51.6624 44.8779 51.7234C44.8264 51.7845 44.7571 51.8279 44.6797 51.8477L43.2112 52.2167C42.8619 52.3052 42.6085 52.1921 42.4511 51.8772L34.3115 35.9302C34.2435 35.7968 34.2077 35.6492 34.207 35.4994C34.2063 35.3495 34.2406 35.2017 34.3073 35.0675C34.374 34.9334 34.4712 34.8167 34.5912 34.7269C34.7111 34.6371 34.8503 34.5766 34.9978 34.5503C37.8414 34.0189 40.5693 33.6869 43.1817 33.5541C45.7866 33.4212 48.5834 32.6242 51.4688 32.8677C51.7344 32.8874 51.9386 33.0104 52.0813 33.2367L52.7602 34.2772C52.7858 34.3157 52.796 34.3624 52.7888 34.4081C52.7816 34.4537 52.7575 34.495 52.7214 34.5238C52.6852 34.5526 52.6395 34.5667 52.5934 34.5634C52.5473 34.5601 52.5041 34.5396 52.4724 34.506L51.5131 33.5541C51.4445 33.483 51.3603 33.4287 51.2668 33.3955C51.1734 33.3622 51.0733 33.3508 50.9744 33.3622Z" fill="#00AEF0"/>
<path d="M51.5055 45.9579C49.8747 59.3147 61.5638 61.9417 71.4449 58.5251C71.7548 58.4168 71.9097 58.5251 71.9097 58.8498V61.0341C71.9097 61.3342 71.7669 61.5211 71.4817 61.5949C62.5674 63.9267 50.2215 63.307 47.8305 52.1418C44.2958 35.6561 59.4531 32.2689 71.4154 35.3462C71.7006 35.415 71.853 35.5971 71.8729 35.8923L71.9983 38.0766C72.0181 38.4062 71.8704 38.5193 71.5553 38.416C64.331 36.0915 52.7084 36.1284 51.5055 45.9579Z" fill="white"/>
</svg>
