<svg width="70" height="70" viewBox="0 0 70 70" fill="none" xmlns="http://www.w3.org/2000/svg">
<path d="M30.384 37.7863C31.2663 37.7863 31.9816 37.0711 31.9816 36.1888C31.9816 35.3064 31.2663 34.5912 30.384 34.5912C29.5017 34.5912 28.7864 35.3064 28.7864 36.1888C28.7864 37.0711 29.5017 37.7863 30.384 37.7863Z" fill="#AD9120"/>
<path d="M39.842 37.7863C40.7243 37.7863 41.4395 37.0711 41.4395 36.1888C41.4395 35.3064 40.7243 34.5912 39.842 34.5912C38.9596 34.5912 38.2444 35.3064 38.2444 36.1888C38.2444 37.0711 38.9596 37.7863 39.842 37.7863Z" fill="#AD9120"/>
<path d="M28.7864 38.3098V46.6123L30.4301 48.2533V57.6028H31.8731V41.8305H33.5168L36.2047 38.3098H28.7864Z" fill="#AD9120"/>
<path d="M38.4071 38.3098H40.8076V46.9921L39.5572 48.2397V60.3097H38.4966V41.8305H35.4832L38.4071 38.3098Z" fill="#AD9120"/>
<path d="M26.9285 46.1973H22.9386V48.4893H29.2204L26.9285 46.1973Z" fill="#AD9120"/>
<path d="M43.0996 46.1973H47.0867V48.4893H40.8076L43.0996 46.1973Z" fill="#AD9120"/>
<path d="M37.1785 46.1973H33.1371V48.4893H37.1785V46.1973Z" fill="#AD9120"/>
<path fill-rule="evenodd" clip-rule="evenodd" d="M14.9453 32.8851H22.3446V34.2412H14.9453V32.8851Z" fill="#AD9120"/>
<path fill-rule="evenodd" clip-rule="evenodd" d="M14.9946 21.2805L23.9834 26.4801L23.3043 27.654L14.3156 22.4544L14.9946 21.2805Z" fill="#AD9120"/>
<path fill-rule="evenodd" clip-rule="evenodd" d="M27.6055 22.4974L23.8869 16.0718L25.0607 15.3925L28.7793 21.8181L27.6055 22.4974Z" fill="#AD9120"/>
<path fill-rule="evenodd" clip-rule="evenodd" d="M35.8359 9.91949V20.1369H34.4797V9.91949H35.8359Z" fill="#AD9120"/>
<path fill-rule="evenodd" clip-rule="evenodd" d="M55.3702 34.2412H47.9709V32.8851H55.3702V34.2412Z" fill="#AD9120"/>
<path fill-rule="evenodd" clip-rule="evenodd" d="M56 22.4544L47.0112 27.654L46.3322 26.4801L55.3209 21.2805L56 22.4544Z" fill="#AD9120"/>
<path fill-rule="evenodd" clip-rule="evenodd" d="M41.5362 21.8181L45.2548 15.3925L46.4286 16.0718L42.71 22.4974L41.5362 21.8181Z" fill="#AD9120"/>
<path d="M26.0008 46.9921V33.8101C26.0008 28.8654 30.026 24.8403 34.9706 24.8403C39.9152 24.8403 43.9403 28.8627 43.9403 33.8101V46.9921H45.4077V33.8101C45.4077 28.0545 40.7262 23.3729 34.9706 23.3729C29.215 23.3729 24.5334 28.0545 24.5334 33.8101V46.9921H26.0008Z" fill="#AD9120"/>
</svg>
