<svg width="90" height="90" viewBox="0 0 90 90" fill="none" xmlns="http://www.w3.org/2000/svg">
<g clip-path="url(#clip0_184_454)">
<path d="M4.14648 45.5674C5.13395 43.9793 6.8356 43.0159 8.44659 42.1511C18.3284 36.8453 28.5748 35.6171 39.5354 38.1184C48.8791 40.2505 59.4301 45.5961 69.1339 43.4007C71.0221 42.9735 72.3174 42.0702 74.0301 41.328C74.2786 41.2204 74.5989 41.0456 74.8572 41.0475C73.162 44.475 69.2089 45.9144 65.6256 46.4042C56.2166 47.6904 47.216 43.8893 38.1129 42.2059C29.953 40.6973 21.4473 40.1833 13.4165 42.6233C10.3041 43.569 7.34237 45.0091 4.14714 45.6979V45.5681L4.14648 45.5674Z" fill="#23584C"/>
<path d="M41.8149 57.7313H33.8643C32.6355 57.4802 31.5111 56.4112 31.3395 55.1452C31.2215 54.2732 31.226 51.8248 31.3297 50.941C31.4693 49.7481 32.6577 48.5617 33.8388 48.3712C36.2358 48.4906 38.8244 48.1886 41.1992 48.3615C42.3464 48.4449 43.6143 49.2961 43.9698 50.4101C44.2477 51.2808 44.2698 54.4963 44.0813 55.4068C43.8505 56.5214 42.8597 57.3797 41.8162 57.7313H41.8149ZM35.3461 50.656C34.9672 50.7192 34.3593 51.1712 34.1871 51.5156C33.9967 51.8959 34.0182 53.3784 34.0678 53.8525C34.1545 54.6834 34.5204 55.2515 35.3937 55.3265C36.6134 55.4315 38.936 55.4315 40.1556 55.3265C40.8281 55.2685 41.3433 54.9704 41.4242 54.251C41.4855 53.7077 41.4829 52.3896 41.4242 51.8437C41.3453 51.1112 40.7146 50.6977 40.0252 50.6384C38.5381 50.5105 36.8534 50.7258 35.3461 50.656Z" fill="#23584C"/>
<path d="M27.7382 57.7313H19.7876C18.5608 57.4893 17.4337 56.4034 17.2629 55.1452C17.1448 54.2732 17.1494 51.8248 17.2531 50.941C17.3953 49.7253 18.5693 48.5773 19.7622 48.3712C22.1591 48.4906 24.7478 48.1886 27.1225 48.3615C28.5085 48.4626 29.8821 49.5805 30.019 50.999C30.1019 51.8541 30.1351 54.7421 29.974 55.5059C29.7516 56.556 28.7126 57.3993 27.7389 57.7306L27.7382 57.7313ZM21.2695 50.656C20.7483 50.8021 20.0661 51.2834 19.9892 51.8495C19.9122 52.4157 19.9357 53.9347 20.1216 54.4382C20.3368 55.022 20.6994 55.2731 21.3171 55.3265C22.5361 55.4315 24.8606 55.4315 26.079 55.3265C26.7442 55.2691 27.268 54.9593 27.3475 54.251C27.4036 53.7527 27.403 51.8404 27.2295 51.4413C27.0253 50.9723 26.5022 50.6905 26.0111 50.641C24.5247 50.491 22.7833 50.7382 21.2701 50.656H21.2695Z" fill="#23584C"/>
<path d="M62.0181 57.7311V51.9414H70.9137C70.9483 51.9414 71.2183 51.6335 71.2431 51.5546C71.352 51.2076 71.2483 50.9265 70.9418 50.7426C70.8994 50.7172 70.5452 50.575 70.523 50.575H62.0181V48.3633H72.543C72.6565 48.3633 73.1522 48.5387 73.2735 48.6098C73.7457 48.887 73.9661 49.429 74.0118 49.9547C74.0705 50.6376 74.0855 52.5623 73.8983 53.1636C73.7548 53.6248 73.2526 54.2176 72.7386 54.2176H64.6902V57.7305H62.0181V57.7311Z" fill="#FABE00"/>
<path d="M8.18735 57.7311L7.06553 57.3868C4.49773 56.1573 5.71152 52.7801 5.47933 50.5071C5.5452 49.7923 7.0564 48.3633 7.69819 48.3633H15.9423V50.575H9.39266C8.98502 50.575 8.23692 51.3524 8.1854 51.777C8.12931 52.2447 8.12409 53.9861 8.21605 54.4166C8.28193 54.7264 8.83892 55.3884 9.13242 55.3884H15.9103C16.0036 55.4458 16.0003 55.5182 16.0114 55.6127C16.0877 56.2643 15.9481 57.062 16.0082 57.7305H8.18735V57.7311Z" fill="#FABE00"/>
<path d="M47.8109 57.7305C46.9708 57.5029 46.1947 56.8409 45.7799 56.0823C45.6996 55.9356 45.4648 55.421 45.4648 55.2912V48.3633H48.0718V54.185C48.0718 54.6331 48.9021 55.5188 49.3423 55.5188H55.9571V57.7305H47.8109Z" fill="#23584C"/>
<path d="M78.1155 48.3633H75.4434V57.7305H78.1155V48.3633Z" fill="#23584C"/>
<path d="M84.3707 38.4119L80.2676 39.942L78.44 44.2656L77.7956 40.079L74.0747 38.9963C74.1484 38.8567 74.3734 38.8084 74.515 38.7536C75.7268 38.2808 76.9901 37.9299 78.1837 37.4068L80.006 33.1426L80.6504 37.279L84.3707 38.4119Z" fill="#FABE00"/>
<path d="M83.9956 42.4298L86.0006 43.3553L83.7876 43.7812L82.7427 45.8273L82.4714 43.626C81.8531 43.3058 81.1748 43.0892 80.5545 42.7762C80.4854 42.7416 80.4312 42.8101 80.4619 42.6405L82.6345 42.255L83.5906 40.2338C83.6793 40.2175 83.6898 40.3505 83.7028 40.4125C83.8391 41.0589 83.8385 41.7802 83.9963 42.4292L83.9956 42.4298Z" fill="#FABE00"/>
</g>
<defs>
<clipPath id="clip0_184_454">
<rect width="81.8532" height="24.5888" fill="white" transform="translate(4.14697 33.1426)"/>
</clipPath>
</defs>
</svg>
