<svg width="90" height="90" viewBox="0 0 90 90" fill="none" xmlns="http://www.w3.org/2000/svg">
<path fill-rule="evenodd" clip-rule="evenodd" d="M9.93038 64.1219H13.4437C14.5865 64.1219 15.2891 64.7396 15.2891 65.8747C15.2891 67.0098 14.5865 67.7201 13.4437 67.7201H9.93038V64.1219ZM8 69.303H13.1811C16.0767 69.303 17.3044 67.9827 17.3044 66.1449C17.3044 64.562 16.5168 63.5119 15.1965 63.1567C16.1617 62.7166 16.7794 61.929 16.7794 60.7013C16.7794 58.8558 15.459 57.8906 13.4437 57.8906H8V69.303ZM9.93038 59.5585H13.1811C14.2313 59.5585 14.849 59.9986 14.849 61.1414C14.849 62.1066 14.1463 62.7243 13.1811 62.7243H9.93038V59.5662V59.5585Z" fill="white"/>
<path fill-rule="evenodd" clip-rule="evenodd" d="M25.9982 69.3031H24.2454V68.1604H24.1605C23.7204 69.0406 22.7552 69.5657 21.8749 69.5657C19.7669 69.5657 18.8018 68.4229 18.8018 66.3149V61.0488H20.6472V66.145C20.6472 67.5504 21.1723 68.0754 22.2301 68.0754C23.7204 68.0754 24.1605 67.1102 24.1605 65.8825V61.0566H26.0059V69.3109L25.9982 69.3031Z" fill="white"/>
<path fill-rule="evenodd" clip-rule="evenodd" d="M29.2488 66.6701C29.3337 67.7202 30.129 68.0754 31.0942 68.0754C31.7969 68.0754 32.9397 67.9904 32.9397 67.0252C32.8547 66.06 31.5343 65.9751 30.214 65.6199C28.8936 65.3574 27.5809 64.9173 27.5809 63.2494C27.5809 61.404 29.5113 60.8789 31.0015 60.8789C32.6694 60.8789 34.1597 61.5816 34.4299 63.427H32.5845C32.4069 62.5468 31.7042 62.2842 30.9166 62.2842C30.3915 62.2842 29.4264 62.4618 29.4264 63.1645C29.4264 64.0447 30.7467 64.1297 32.0594 64.4849C33.3798 64.7474 34.6924 65.2725 34.6924 66.8554C34.6924 68.8784 32.7621 69.5811 31.0015 69.5811C28.9785 69.5811 27.4883 68.6159 27.4033 66.6855H29.2488V66.6701Z" fill="white"/>
<path fill-rule="evenodd" clip-rule="evenodd" d="M37.4187 66.6701C37.5036 67.7202 38.299 68.0754 39.2642 68.0754C39.9668 68.0754 41.1096 67.9904 41.1096 67.0252C41.0247 66.06 39.7043 65.9751 38.3839 65.6199C37.0635 65.3574 35.8358 64.9173 35.8358 63.2494C35.8358 61.404 37.6812 60.8789 39.1715 60.8789C40.8393 60.8789 42.4223 61.5816 42.5921 63.427H40.7467C40.5691 62.5468 39.8664 62.2842 39.0788 62.2842C38.5538 62.2842 37.5886 62.4618 37.5886 63.1645C37.5886 64.0447 38.909 64.1297 40.2216 64.4849C41.542 64.7474 42.8547 65.2725 42.8547 66.8554C42.8547 68.8784 40.9243 69.5811 39.2564 69.5811C37.1484 69.5811 35.6582 68.6159 35.6582 66.6855H37.411L37.4187 66.6701Z" fill="white"/>
<path fill-rule="evenodd" clip-rule="evenodd" d="M44.2676 61.0487H45.9354V62.1915H46.0204C46.5454 61.4039 47.1631 60.8711 48.4758 60.8711C49.5259 60.8711 50.4062 61.3112 50.7614 62.1915C51.3791 61.4039 52.1667 60.8711 53.3095 60.8711C55.0623 60.8711 56.0352 61.5738 56.0352 63.5968V69.303H54.2824V64.4771C54.2824 63.2493 54.1975 62.2841 52.7921 62.2841C51.5644 62.2841 51.0394 63.0717 51.0394 64.4771V69.303H49.2866V64.0369C49.2866 62.8941 48.9391 62.2841 47.7963 62.2841C46.9161 62.2841 46.0435 63.0717 46.0435 64.4771V69.303H44.2907V61.0487H44.2676Z" fill="white"/>
<path fill-rule="evenodd" clip-rule="evenodd" d="M62.9691 66.585C62.9691 67.7278 61.7413 68.0753 60.946 68.0753C60.3283 68.0753 59.2782 67.8977 59.2782 67.0252C59.2782 66.1526 59.9808 65.7974 60.7684 65.7048C61.556 65.5272 62.4363 65.5272 62.9614 65.1797V66.585H62.9691ZM64.8145 63.2416C64.8145 61.4888 63.1467 60.8711 61.5637 60.8711C59.7183 60.8711 57.9655 61.4888 57.7879 63.5968H59.6334C59.7183 62.7165 60.421 62.2764 61.3862 62.2764C62.1737 62.2764 63.1389 62.454 63.1389 63.4192C63.1389 64.4693 61.9112 64.2995 60.6835 64.562C59.1006 64.7396 57.5254 65.087 57.5254 67.1101C57.5254 68.7779 58.8458 69.5655 60.336 69.5655C61.3012 69.5655 62.444 69.2181 63.1467 68.5154C63.3243 69.303 63.7644 69.5655 64.552 69.5655C64.8145 69.5655 65.4322 69.4806 65.6948 69.3879V68.0676H65.2546C64.9072 68.0676 64.8145 67.89 64.8145 67.4498V63.2339V63.2416Z" fill="white"/>
<path fill-rule="evenodd" clip-rule="evenodd" d="M66.7451 61.0488H68.413V62.3692C69.0307 61.404 69.9032 60.8789 70.9611 60.8789C72.8065 60.8789 73.8566 61.8441 73.8566 63.6895V69.3108H72.1039V64.1297C72.0189 62.9019 71.5788 62.2842 70.5209 62.2842C69.2932 62.2842 68.4979 63.2494 68.4979 64.4771V69.3031H66.7451V61.0488Z" fill="white"/>
<path fill-rule="evenodd" clip-rule="evenodd" d="M75.787 61.0487H77.4549V62.2764L77.5398 62.3613C78.0649 61.3962 78.9451 60.8711 79.9953 60.8711C81.8407 60.8711 82.8908 61.8363 82.8908 63.6817V69.303H81.138V64.1219C81.138 62.8941 80.613 62.2764 79.5551 62.2764C78.3274 62.2764 77.5321 63.2416 77.5321 64.4693V69.2953H75.7793V61.041L75.787 61.0487Z" fill="white"/>
<path fill-rule="evenodd" clip-rule="evenodd" d="M58.7148 42.2358H69.0873V45.1293H63.6074V47.1196H68.9909V50.013H63.6074V52.1086H69.0873V55.0984H58.7148V42.2358Z" fill="white"/>
<path fill-rule="evenodd" clip-rule="evenodd" d="M53.2334 42.2358H46.3506V55.0984H51.1379V51.2054H53.2334C56.7231 51.2054 58.2224 49.8113 58.2224 46.7162C58.2224 43.8228 56.7231 42.2271 53.2334 42.2271V42.2358ZM51.8393 48.3208H51.1379V45.1292H51.8393C53.2334 45.1292 53.5315 45.7255 53.5315 46.725C53.5315 47.821 53.137 48.3208 51.8393 48.3208Z" fill="white"/>
<path fill-rule="evenodd" clip-rule="evenodd" d="M71.4795 31.767V21L46.3506 30.7675V41.6397L71.4795 31.767Z" fill="#CE1141"/>
<path fill-rule="evenodd" clip-rule="evenodd" d="M80.9489 43.3318C80.2475 42.7356 79.1515 42.2358 77.5557 42.2358H69.875V55.0984H74.6623V45.1293H75.0569C76.2493 45.1293 76.3545 45.2257 76.6526 45.5238C77.0472 46.12 77.0472 47.4177 76.5562 47.9175C76.1616 48.4172 75.7583 48.4172 75.2585 48.4172V48.5137H74.7587L77.547 55.0984H82.9305L79.7389 49.1187C80.3352 48.917 80.8349 48.6189 81.2383 48.0227C81.6328 47.5229 81.8345 46.6286 81.8345 45.7255C81.8345 44.8224 81.5364 44.0333 80.9402 43.3318H80.9489Z" fill="white"/>
<path fill-rule="evenodd" clip-rule="evenodd" d="M39.5733 41.7363C37.1796 41.7363 35.6891 42.1309 34.6895 43.3321C33.69 44.7262 33.4971 46.1203 33.4971 48.7156V48.6192C33.4971 51.1093 33.4971 52.4069 34.6895 53.9062C35.5838 55.0987 37.1796 55.5985 39.5733 55.5985C41.9669 55.5985 43.5627 55.0987 44.457 53.9062C45.553 52.6086 45.6495 51.2145 45.6495 48.7244C45.6495 46.2343 45.7459 44.735 44.5535 43.3409C43.6591 42.1484 41.9581 41.7451 39.5645 41.7451L39.5733 41.7363ZM39.6697 52.705C39.1699 52.705 38.4773 52.4069 38.4773 51.0128V46.3307C38.4773 44.9366 39.1787 44.6385 39.5733 44.6385C40.073 44.6385 40.7657 44.9366 40.7657 46.3307V51.0128C40.7657 52.4069 40.0643 52.705 39.6697 52.705Z" fill="white"/>
<path fill-rule="evenodd" clip-rule="evenodd" d="M14.1465 52.7051C14.6462 52.7051 15.2424 52.4069 15.2424 51.0128V51.1093V49.9168H20.1262V50.0133C20.1262 54.3973 18.7321 55.5985 14.1465 55.5985C11.7528 55.5985 10.0606 55.0987 9.06104 53.9063C7.96505 52.5122 8.0615 51.1181 8.0615 48.7244V48.8209C7.96505 45.6293 8.26316 44.1388 9.65726 42.8411C10.6568 42.0432 12.1474 41.7451 14.1465 41.7451C18.6356 41.7451 20.1262 43.3409 20.1262 47.0322H15.2424V46.3308C15.2424 44.9367 14.6462 44.735 14.1465 44.735C13.7519 44.735 13.0505 44.9367 13.0505 46.3308V51.1181V51.0216C13.0505 52.4157 13.7519 52.7138 14.1465 52.7138V52.7051Z" fill="white"/>
<path fill-rule="evenodd" clip-rule="evenodd" d="M26.8076 41.7363C24.414 41.7363 22.9147 42.1309 21.9239 43.3321C20.9243 44.7262 20.7314 46.1203 20.7314 48.7156V48.6192C20.7314 51.1093 20.7314 52.4069 21.9239 53.9062C22.8182 55.0987 24.414 55.5985 26.8076 55.5985C29.2013 55.5985 30.7971 55.0987 31.6914 53.9062C32.7874 52.6086 32.8838 51.2145 32.8838 48.7244C32.8838 46.2343 32.9803 44.735 31.7878 43.3409C30.8935 42.1484 29.1925 41.7451 26.7989 41.7451L26.8076 41.7363ZM26.8076 52.705C26.3079 52.705 25.7116 52.4069 25.7116 51.0128V46.3307C25.7116 44.9366 26.4131 44.6385 26.8076 44.6385C27.3074 44.6385 27.9036 44.9366 27.9036 46.3307V51.0128H28.0001C28.0001 52.4069 27.2986 52.705 26.8076 52.705Z" fill="white"/>
</svg>
