<svg width="70" height="70" viewBox="0 0 70 70" fill="none" xmlns="http://www.w3.org/2000/svg">
<path d="M10.3652 36.8983C10.0913 37.8024 9.68629 38.9974 7.63572 38.9974C5.69362 38.9974 4.40507 37.3524 4.38928 35.0386C4.37417 32.5841 5.5879 30.9865 7.72016 30.9865C9.52222 30.9865 10.0563 32.0861 10.2492 33.2578H10.692V31.0448C10.195 30.7587 8.8419 30.3746 7.69201 30.3746C4.88698 30.3746 2.96479 32.2727 3.00049 35.0914C3.03756 37.8196 4.72841 39.6121 7.5101 39.6121C9.08492 39.6121 9.94991 39.1957 10.771 38.7772C10.7771 38.7767 10.9735 36.4126 10.9735 36.4126H10.5094L10.3652 36.8983Z" fill="#005ED1"/>
<path d="M16.8425 38.9974C14.8387 38.9974 13.5968 37.4581 13.5968 34.9782C13.5968 32.5149 14.8387 30.9865 16.8425 30.9865C18.9103 30.9865 20.146 32.4867 20.146 35.0043C20.146 37.5054 18.9103 38.9974 16.8425 38.9974ZM21.532 34.8534C21.532 32.0895 19.8206 30.3746 17.0636 30.3746C14.1151 30.3746 12.2059 32.2082 12.2059 35.0475C12.2059 37.9033 13.883 39.6107 16.6894 39.6107C19.6764 39.6107 21.532 37.786 21.532 34.8534Z" fill="#005ED1"/>
<path d="M36.7693 30.9444L38.6867 31.2764L38.9002 37.0956L33.5524 30.5671H30.8565V30.9403L32.3023 31.2695L32.2466 38.7104L30.9553 39.0212C30.5908 38.9169 30.0128 38.7639 29.2439 37.8063C29.2439 37.8063 27.2434 35.3326 26.9922 35.0212C27.7851 34.8024 29.0661 34.2179 29.0661 32.7183C29.0661 31.7346 28.5327 30.5671 25.9885 30.5671H22.0178V30.9403L23.4602 31.2695L23.4593 38.7084L22.0183 39.0431V39.4184H25.9581V39.0466L24.6826 38.7111V31.2236C25.0629 31.1611 25.4391 31.12 25.6938 31.12C27.1053 31.12 27.7911 31.6475 27.7911 32.73C27.7911 34.4107 26.4352 34.6521 25.8799 34.7262C25.6911 34.7502 25.4687 34.7612 25.2703 34.7612V35.1337L25.7639 35.2908L27.8481 37.995C28.5442 38.8984 29.0501 39.4184 31.4096 39.4184H34.8943V39.0411L33.1588 38.7043L32.9446 31.7195L39.3208 39.6043H39.4917L39.5988 31.2675L40.7673 30.9355V30.5671H36.7691V30.9444" fill="#005ED1"/>
<path d="M45.6979 39.0443L44.2549 38.7102L44.253 31.27L45.6995 30.9407V30.5668H41.5908V30.9407L43.0304 31.27V38.7102L41.5908 39.0443V39.4181L45.6981 39.4158V39.044" fill="#005ED1"/>
<path d="M50.5633 39.0424L48.8265 38.7077L48.6123 31.7216L54.9871 39.6043H55.156L55.2665 31.2682L56.4336 30.9355V30.5671H52.4381L52.4367 30.9444L54.3507 31.2764L54.5656 37.0956L49.2225 30.5671H46.5253V30.9403L47.9649 31.2695L47.9113 38.7104L46.5253 39.0431V39.4163H50.5633L50.5633 39.0424Z" fill="#005ED1"/>
<path d="M64.8597 35.9875L66 35.6576V35.2892L61.9456 35.2887V35.6625L63.6385 35.9939V38.2906C63.0433 38.7611 62.3815 39.0369 61.3497 39.0033C59.5016 38.9443 58.1973 37.3617 58.1973 35.0472C58.1987 32.4919 59.3987 30.9917 61.5817 30.9917C63.5018 30.9917 64.038 32.2347 64.2289 33.252H64.6373V31.0651C64.0648 30.742 62.825 30.3804 61.3957 30.3804C58.59 30.3804 56.7954 32.2237 56.8105 35.1028C56.8222 37.7754 58.5714 39.574 61.2707 39.6166C63.1229 39.6474 64.0936 39.1281 64.857 38.674C64.8529 38.6823 64.8597 35.9875 64.8597 35.9875Z" fill="#005ED1"/>
</svg>
