<svg width="70" height="70" viewBox="0 0 70 70" fill="none" xmlns="http://www.w3.org/2000/svg">
<path d="M33.8869 38.105V30.5024L10.9362 17.455C9.91918 16.8783 8.66032 16.8783 7.64332 17.4674C6.63253 18.0565 6 19.1479 6 20.3199V48.6719C6 49.8564 6.63873 50.954 7.66813 51.5431L33.8807 66.4136V58.8109L12.5981 46.7558V26.0003L33.8807 38.1112L33.8869 38.105Z" fill="#6400B9"/>
<path d="M42.9965 34.3905L57.4019 26.0126V54.47L64 50.7307V20.2765C64 19.0983 63.3675 18.0069 62.3443 17.4177C61.3273 16.8348 60.0622 16.8348 59.039 17.4239L38.0417 29.6403C37.0309 30.2295 36.3984 31.3209 36.3984 32.4929V66.3826L42.9965 62.6432V34.3905Z" fill="#991DFF"/>
<path d="M36.262 3.09912V10.4538L52.5402 19.1293L59.2313 15.1853L36.262 3.09912Z" fill="#35343C"/>
<path d="M33.8993 3L10.5021 15.0862L17.3234 19.1294L33.8993 10.4539V3Z" fill="#9D9CAA"/>
</svg>
