<svg width="90" height="90" viewBox="0 0 90 90" fill="none" xmlns="http://www.w3.org/2000/svg">
<path d="M45.8334 67.0514C41.4779 67.0514 37.6215 66.1062 34.2491 64.2234C30.8766 62.3405 28.2301 59.7469 26.3095 56.4425C24.3888 53.1381 23.4285 49.3423 23.4285 45.0397C23.4285 40.7372 24.3888 36.9413 26.3095 33.6369C28.2301 30.3325 30.8615 27.7389 34.2113 25.8561C37.5686 23.9808 41.4174 23.0356 45.7729 23.0356C48.8429 23.0356 51.7011 23.5498 54.3477 24.5858C56.9942 25.6217 59.308 27.0584 61.2892 28.9034C63.2703 30.7484 64.7977 32.8657 65.8639 35.2551L57.7352 38.1134C57.0093 36.6162 56.049 35.308 54.8543 34.1889C53.6596 33.0774 52.2909 32.2002 50.7559 31.5726C49.221 30.945 47.5574 30.6274 45.7653 30.6274C43.1642 30.6274 40.8503 31.2475 38.8238 32.48C36.7973 33.7201 35.217 35.4063 34.0903 37.5538C32.9561 39.7013 32.3965 42.1966 32.3965 45.0322C32.3965 47.8678 32.9712 50.3706 34.1281 52.5408C35.2775 54.7109 36.8805 56.4123 38.9297 57.6448C40.9789 58.8849 43.3229 59.4974 45.9695 59.4974C47.8069 59.4974 49.478 59.1647 50.9903 58.4917C52.5027 57.8263 53.8486 56.9038 55.0207 55.7242C56.1927 54.5522 57.1454 53.1911 57.8714 51.6485L66 54.4463C64.9338 56.9189 63.4064 59.1042 61.4253 61.0097C59.4442 62.9152 57.1228 64.3973 54.4838 65.4483C51.8372 66.4994 48.9563 67.0287 45.8409 67.0287L45.8334 67.0514Z" fill="#004D95"/>
</svg>
