<svg width="90" height="90" viewBox="0 0 90 90" fill="none" xmlns="http://www.w3.org/2000/svg">
<g clip-path="url(#clip0_46_121)">
<path d="M47.376 74.3792L16.7463 43.7379C16.2122 43.2038 16.2122 42.333 16.7463 41.7873L41.3615 17.1721C42.4529 16.0806 44.241 15.86 45.4253 16.847C46.749 17.9616 46.807 19.9355 45.6111 21.1314L24.9552 41.7873C24.4211 42.3214 24.4211 43.1922 24.9552 43.7379L47.376 66.1587C47.376 66.1587 47.4224 66.1819 47.4456 66.1587L68.9027 44.7016C69.9941 43.6102 71.7822 43.3896 72.9665 44.3765C74.2902 45.4912 74.3482 47.4651 73.1523 48.661L47.4456 74.3676C47.4456 74.3676 47.3992 74.3909 47.376 74.3676V74.3792Z" fill="white"/>
<path d="M42.1518 41.6938L38.0415 37.5836L56.0617 19.5634C57.1996 18.4255 59.0341 18.4255 60.172 19.5634C61.3099 20.7012 61.3099 22.5358 60.172 23.6736L42.1518 41.6938Z" fill="white"/>
<path d="M51.9863 50.8325L47.876 46.7222L65.8962 28.702C67.0341 27.5642 68.8686 27.5642 70.0065 28.702C71.1443 29.8399 71.1443 31.6744 70.0065 32.8123L51.9863 50.8325Z" fill="white"/>
</g>
<defs>
<clipPath id="clip0_46_121">
<rect width="57.66" height="58.1709" fill="white" transform="translate(16.3398 16.2188)"/>
</clipPath>
</defs>
</svg>
