<svg width="90" height="90" viewBox="0 0 90 90" fill="none" xmlns="http://www.w3.org/2000/svg">
<circle cx="45" cy="45" r="35" fill="#556BD5"/>
<path d="M30.0826 53.5837C25.7646 53.5837 22.2862 49.8204 22.2862 45.2063C22.2862 40.5665 25.7885 36.8289 30.0826 36.8547H41.4294C42.053 36.8547 42.5569 36.3133 42.5569 35.6432C42.5569 34.973 42.053 34.4316 41.4294 34.4316H30.0826C24.5411 34.4316 20.0552 39.2777 20.0552 45.2321C20.0552 51.1866 24.5411 56.0068 30.0826 56.0068H41.4294C42.053 56.0068 42.5569 55.4655 42.5569 54.7952C42.5569 54.1251 42.053 53.5837 41.4294 53.5837H30.0826Z" fill="white"/>
<path d="M47.9783 34.4316H68.8728C69.4724 34.4316 70.0002 34.9472 70.0002 35.6174C70.0002 36.2876 69.4965 36.8289 68.8728 36.8289H59.2771V54.7952C59.2771 55.4655 58.7734 56.0068 58.1497 56.0068C57.5259 56.0068 57.0222 55.4655 57.0222 54.7952V36.8547H47.9783C47.3546 36.8547 46.8509 36.3133 46.8509 35.6432C46.8509 34.973 47.3546 34.4316 47.9783 34.4316Z" fill="white"/>
</svg>
