<svg width="90" height="90" viewBox="0 0 90 90" fill="none" xmlns="http://www.w3.org/2000/svg">
<path d="M27.226 28.1362C34.5477 28.1362 38.0214 32.3171 38.0214 32.3171L34.9429 37.1012C34.9429 37.1012 32.0309 34.0644 27.6212 34.0644C22.4419 34.0644 19.093 37.9748 19.093 42.7589C19.093 47.5015 22.5043 51.5783 27.85 51.5783C32.5925 51.5783 36.1078 48.0007 36.1078 48.0007L38.8118 52.9512C38.8118 52.9512 34.7973 57.5273 27.2468 57.5273C17.949 57.5273 12.0001 50.9751 12.0001 42.8213C11.9793 34.8548 17.9074 28.1362 27.226 28.1362Z" fill="white"/>
<path d="M59.5706 48.4997C59.5706 48.4997 62.6491 51.5781 67.2252 51.5781C69.2012 51.5781 70.9069 50.7045 70.9069 49.0405C70.9069 44.8596 57.241 45.4004 57.241 36.373C57.241 31.1313 61.9211 28.1152 67.974 28.1152C74.2973 28.1152 77.3966 31.3185 77.3966 31.3185L74.8173 36.4978C74.8173 36.4978 72.2381 34.0642 67.9324 34.0642C66.1228 34.0642 64.3547 34.8338 64.3547 36.6018C64.3547 40.5747 77.9998 40.0755 77.9998 49.1029C77.9998 53.783 73.9229 57.5271 67.2668 57.5271C60.2778 57.5271 56.3673 53.3878 56.3673 53.3878L59.5706 48.4997Z" fill="white"/>
<path d="M47.6727 19.3584H40.663V27.4498H47.6727V19.3584Z" fill="#78BE20"/>
<path d="M55.764 27.4502H47.6726V34.4599H55.764V27.4502Z" fill="#E57200"/>
<path d="M40.6838 34.4598V46.2328C40.6838 55.6554 48.4423 56.7994 52.3528 56.7994C53.6633 56.7994 54.4953 56.633 54.4953 56.633V50.5177C54.4953 50.5177 53.9961 50.6217 53.2264 50.6217C51.292 50.6217 47.6727 49.9561 47.6727 45.3384V34.439H40.6838V34.4598Z" fill="white"/>
</svg>
