<svg width="90" height="90" viewBox="0 0 90 90" fill="none" xmlns="http://www.w3.org/2000/svg">
<path d="M48.529 34.8696C45.2507 32.7635 43.9546 32.7921 40.7431 34.8505C37.522 36.909 33.4337 39.5773 33.4337 39.5773L36.5214 41.55L44.5931 36.442V35.003C44.5931 35.003 44.6789 34.7552 46.6039 35.975C46.8994 36.1656 53.9514 40.6828 53.9514 40.6828L55.7621 39.5297C55.7621 39.5297 51.8072 36.9661 48.529 34.8696Z" fill="white"/>
<path d="M48.491 27.4267C45.2127 25.3206 43.9167 25.3492 40.6956 27.4076C37.4745 29.4661 27.6874 35.8701 27.6874 35.8701L30.8703 37.9191L44.5933 29.0944V27.6268C44.5933 27.6268 44.8315 27.4553 46.6422 28.494C47.3474 28.9038 48.024 29.4089 59.7457 36.9661L61.4992 35.832C61.4992 35.8415 51.7693 29.5328 48.491 27.4267ZM7.31257 43.799L39.6854 64.5454C39.6854 64.5454 42.8779 66.7659 44.4408 66.6325C44.4408 66.6325 45.8798 66.6325 48.1575 65.0696L81.6072 43.4749L84.9998 46.2767L50.3112 68.9006C50.3112 68.9006 45.7655 72.0931 44.5552 71.6833L44.5647 68.7671C44.5647 68.7671 44.5933 68.6433 44.3646 68.6433C43.9167 68.6528 42.8779 68.5575 41.7915 68.0047C40.2858 67.2424 5.9498 44.933 5.9498 44.933L7.31257 43.799Z" fill="white"/>
<path d="M13.2784 38.9482L39.7047 55.9685C39.7047 55.9685 42.8972 58.1889 44.4601 58.0555C44.4601 58.0555 45.8895 58.0555 48.1767 56.4926L75.8132 38.71L79.2154 41.5117L50.0827 60.4285C50.0827 60.4285 45.7657 63.5638 44.6125 63.1349L44.5935 60.2093C44.5935 60.2093 44.6125 60.0663 44.4505 60.0759C44.0503 60.0854 42.8019 59.971 41.8203 59.4374C40.3336 58.6369 11.8585 40.0918 11.8585 40.0918L13.2784 38.9482Z" fill="white"/>
<path d="M19.2341 34.0786L39.6089 47.1345C39.6089 47.1345 42.7919 49.2978 44.3929 49.2596C44.3929 49.2596 46.2322 49.4788 48.5098 47.9159L69.9901 34.0786L73.3446 36.8613L50.5206 51.5373C50.5206 51.5373 46.4132 54.5392 44.5263 54.2723C44.5263 54.2723 44.5168 51.4229 44.5263 51.3657C44.5359 51.299 44.412 51.28 44.3453 51.28C43.6019 51.2895 42.4393 50.9941 41.7436 50.6415C40.2284 49.8791 17.8333 35.2222 17.8333 35.2222L19.2341 34.0786Z" fill="white"/>
<path d="M48.5192 19.8886C45.2409 17.7825 43.9449 17.8111 40.7333 19.8696C37.5122 21.928 21.769 32.0963 21.769 32.0963L25.0663 34.2215L44.612 21.5754L44.6024 20.1173C44.6024 20.1173 44.8788 19.8314 47.0611 21.2514C48.5001 22.1853 65.6634 33.1446 65.6634 33.1446L67.5122 31.9629C67.5026 31.9629 51.7975 21.9947 48.5192 19.8886Z" fill="white"/>
</svg>
