<svg width="70" height="70" viewBox="0 0 70 70" fill="none" xmlns="http://www.w3.org/2000/svg">
<path d="M35.0354 53.0049C37.4451 53.0067 39.8305 52.5226 42.0487 51.5813C44.267 50.64 46.2727 49.261 47.9457 47.5267H22.1251C23.7982 49.261 25.8038 50.64 28.0221 51.5813C30.2403 52.5226 32.6257 53.0067 35.0354 53.0049Z" fill="#00AAE9"/>
<path d="M40.1466 40.7572H39.4071L36.4518 44.762H50.1415C51.749 42.2726 52.7118 39.4223 52.9431 36.468H43.3038L40.1466 40.7572Z" fill="#005697"/>
<path d="M19.9919 29.0956H24.4603V28.1741H22.0312V27.2525H26.1043V26.331H28.2602V25.4094H33.8294V26.331H39.0942V27.2525H38.13V28.1741H49.5584V29.0956H51.9959C50.7376 25.5013 48.3699 22.3996 45.2345 20.2381C42.0991 18.0766 38.358 16.9671 34.5512 17.0696C30.7443 17.1722 27.0684 18.4814 24.0539 20.8085C21.0393 23.1357 18.842 26.3603 17.779 30.0172H19.9919V29.0956Z" fill="#005697"/>
<path d="M29.051 45.6835H31.955V44.762H33.5876L38.0162 38.7634L35.2089 35.5521H32.5808V34.6249H34.9842V33.7033H31.0875V34.6249H25.433V33.7033H24.1474V32.7818H20.9305V31.8546H17.3495C16.8802 34.4507 16.99 37.1185 17.6709 39.6673C18.3519 42.2162 19.5873 44.5832 21.2889 46.5994H29.051V45.6835Z" fill="#005697"/>
<path d="M50.5596 31.8546H51.2735V32.7762H50.1358V33.7034H47.0497V34.625H45.3431V35.5522H48.4065V34.625H53C52.9739 33.3797 52.8185 32.1405 52.5364 30.9274H50.5624L50.5596 31.8546Z" fill="#005697"/>
<path d="M39.5123 38.1747L41.4948 35.5466H37.0463L39.3388 38.1747H39.5123Z" fill="#005697"/>
</svg>
