<svg width="90" height="90" viewBox="0 0 90 90" fill="none" xmlns="http://www.w3.org/2000/svg">
<path d="M46.4717 66.5305C50.6872 66.5867 55.774 66.8115 60.4953 63.1299C63.8678 60.9098 67.9147 51.9166 69.376 48.207C70.1067 46.2678 70.3035 43.7104 69.376 41.7713C66.8186 35.982 63.109 29.5182 60.664 26.9045C57.151 23.6726 53.8629 23.3916 48.3827 23.3916H25.0006C24.017 23.3916 22.921 23.6445 22.5275 24.319L20.8413 27.4385C20.5884 28.7313 22.1341 28.8718 22.1341 28.8718H24.5229C25.1692 28.8718 25.3098 29.3776 25.3098 29.9116V58.8582C25.3098 60.151 23.8484 60.9379 22.668 61.1908C22.1341 61.3313 21.3753 61.4718 20.9818 62.1182L19.2956 65.3782C19.0427 66.0246 19.5486 66.5586 20.0825 66.5586C29.2724 66.5586 37.2538 66.5867 46.4717 66.5305ZM40.5419 61.1627V30.0521C40.5419 29.2652 40.6824 28.8718 41.4412 28.7594H43.7176C44.5326 28.7594 45.7129 28.5907 46.4436 29.8835L54.2845 43.5699C54.9308 45.0032 54.7341 45.5934 54.2845 46.577L46.3312 60.0105C45.3757 61.3313 44.926 61.0784 43.7176 61.1627C43.7457 61.1627 43.6895 61.1627 43.7176 61.1627H40.5419Z" fill="#2B8CA1"/>
</svg>
