<svg width="70" height="70" viewBox="0 0 70 70" fill="none" xmlns="http://www.w3.org/2000/svg">
<g clip-path="url(#clip0_636_7406)">
<path d="M21.9462 21.8762V20.1102C16.726 20.1102 12.48 24.3562 12.48 29.5763H14.2442C14.2442 25.3303 17.7001 21.8762 21.9462 21.8762Z" fill="white"/>
<path d="M20.1801 29.5763C20.1801 28.604 20.9721 27.8121 21.9444 27.8121V26.046C19.9998 26.046 18.4141 27.6299 18.4141 29.5745H20.1783L20.1801 29.5763Z" fill="white"/>
<path d="M21.9462 23.079C18.3638 23.079 15.4489 25.994 15.4489 29.5763H17.2149C17.2149 26.9663 19.3379 24.8433 21.9462 24.8433V23.079Z" fill="white"/>
<path d="M51.9472 49.3899H39.2723C38.8745 49.3899 38.5492 49.0682 38.5492 48.6686C38.5492 48.2689 38.8726 47.9473 39.2723 47.9473C44.0946 47.9473 48.0153 44.0247 48.0153 39.2042C48.0153 34.3838 44.0946 30.4612 39.2723 30.4612C38.3093 30.4612 37.365 30.6155 36.4615 30.9223L35.8127 31.5711C35.6714 31.7124 35.4873 31.783 35.3014 31.783C35.1155 31.783 34.9333 31.7124 34.7921 31.5711C34.5095 31.2904 34.5095 30.833 34.7921 30.5505L37.0749 28.2657C36.9076 27.3269 36.0859 26.613 35.1007 26.613C34.1154 26.613 33.2491 27.3567 33.1134 28.3438C33.0873 28.539 32.9832 28.7137 32.8252 28.829C32.6672 28.9461 32.4683 28.9926 32.2749 28.9591C31.8864 28.8922 31.4886 28.8588 31.0889 28.8588C28.4937 28.8588 26.1048 30.3144 24.9058 32.5973L26.1755 34.6645L33.2249 36.8228C33.5279 36.9158 33.7361 37.1965 33.7361 37.5125V39.4719C34.1693 39.3511 34.6285 39.286 35.1007 39.286C35.8889 39.286 36.6455 39.4626 37.3482 39.8121C37.7033 39.9888 37.8502 40.4219 37.6717 40.7807C37.4951 41.1376 37.0619 41.2826 36.705 41.106C36.2049 40.8569 35.6639 40.7305 35.1007 40.7305C33.1096 40.7305 31.4904 42.3497 31.4904 44.3407C31.4904 46.3318 33.1096 47.9491 35.1007 47.9491C35.4985 47.9491 35.822 48.2726 35.822 48.6704C35.822 49.0682 35.5004 49.3917 35.1007 49.3917H28.5234C28.1237 49.3917 27.8021 49.0682 27.8021 48.6704C27.8021 48.2726 28.1237 47.9491 28.5234 47.9491H31.5666C30.6278 47.0307 30.0478 45.7517 30.0478 44.3407C30.0478 42.5914 30.9402 41.0484 32.2935 40.1412V38.0479L25.4932 35.9658C25.3259 35.9138 25.1809 35.8022 25.0898 35.6535L23.4687 33.0137C23.3423 32.8092 23.3274 32.5545 23.4278 32.337C24.7961 29.3458 27.804 27.4143 31.0907 27.4143C31.3473 27.4143 31.602 27.4273 31.8567 27.4477C32.34 26.1092 33.632 25.1686 35.1025 25.1686C37.0043 25.1686 38.551 26.7153 38.551 28.6189C38.551 28.7639 38.5417 28.9071 38.525 29.0484C38.7741 29.0298 39.0232 29.0205 39.2742 29.0205C44.8922 29.0205 49.4617 33.5918 49.4617 39.208C49.4617 42.9167 47.4688 46.17 44.498 47.951H51.949C53.9401 47.951 55.5593 46.3318 55.5593 44.3426C55.5593 42.3534 53.9401 40.7324 51.949 40.7324C51.5493 40.7324 51.2259 40.4089 51.2259 40.0111C51.2259 39.6132 51.5493 39.2898 51.949 39.2898C54.7339 39.2898 57.0019 41.5559 57.0019 44.3445C57.0019 47.1293 54.7339 49.3973 51.949 49.3973L51.9472 49.3899ZM31.1707 31.7421C31.1707 32.495 30.5609 33.1048 29.808 33.1048C29.0551 33.1048 28.4435 32.495 28.4435 31.7421C28.4435 30.9892 29.0551 30.3794 29.808 30.3794C30.5609 30.3794 31.1707 30.9892 31.1707 31.7421Z" fill="white"/>
</g>
<defs>
<clipPath id="clip0_636_7406">
<rect width="44.52" height="29.2797" fill="white" transform="translate(12.48 20.1102)"/>
</clipPath>
</defs>
</svg>
