<svg width="90" height="90" viewBox="0 0 90 90" fill="none" xmlns="http://www.w3.org/2000/svg">
<path d="M84 51.4199V55.9468H69.3054V33.1684H74.4791V51.4199H84ZM16.0601 55.9468C21.3606 55.9468 25.8157 52.3253 27.0852 47.4247L39.9714 57.4917L52.8504 47.4295V55.9468H67.545V51.4199H58.024V33.1684H52.8504V41.6858L40.4983 51.3361L37.7367 49.178L43.648 44.5576L50.0863 39.5277L46.4121 36.6535L34.0576 46.3061L31.2959 44.1481L43.648 34.4978L39.9714 31.6235L27.0852 41.6906C25.8157 36.79 21.3606 33.1684 16.0601 33.1684H6.82655V55.9468H16.0601ZM12.0002 51.4199V37.6954H16.0601C19.4924 37.6954 22.2756 40.7684 22.2756 44.5576C22.2756 48.3468 19.4924 51.4199 16.0601 51.4199H12.0002Z" fill="white"/>
</svg>
