<svg width="90" height="90" viewBox="0 0 90 90" fill="none" xmlns="http://www.w3.org/2000/svg">
<path d="M80 10H11V79H80V10Z" fill="#F35412"/>
<path d="M34.7541 48.3179C34.7541 43.9933 38.1913 40.5385 43.7849 40.5385C44.2293 40.5385 44.6083 40.563 45.1572 40.6243V34.511C45.1572 34.364 45.2225 34.3027 45.3532 34.3027H48.8166C48.9734 34.3027 48.9734 34.364 48.9734 34.4865V52.4832C48.9734 53.0835 49.0388 53.8554 49.1041 54.3944C49.1041 54.5414 49.078 54.6027 48.9081 54.6639C46.8431 55.497 44.8043 55.8278 42.8962 55.8278C38.2828 55.8278 34.7541 53.3286 34.7541 48.3179ZM45.1572 43.7605C44.739 43.6135 44.2293 43.5522 43.6673 43.5522C40.8313 43.5522 38.7141 45.2551 38.7141 48.1464C38.7141 51.3929 40.779 52.7405 43.3275 52.7405C43.9679 52.7405 44.5952 52.6793 45.1703 52.5077V43.7728L45.1572 43.7605Z" fill="white"/>
<path d="M55.1436 48.8717C55.2296 50.991 56.6052 52.6865 59.6511 52.6865C60.9899 52.6865 62.2181 52.4496 63.3603 51.9634C63.4463 51.9011 63.5446 51.9385 63.5446 52.0881V54.6064C63.5446 54.7934 63.4832 54.8806 63.3603 54.943C62.2304 55.4915 60.9039 55.8281 58.8774 55.8281C53.4364 55.8281 51.4958 51.951 51.4958 48.2235C51.4958 44.0097 54.0013 40.2822 58.5212 40.2822C63.041 40.2822 64.65 43.7978 64.65 46.6776C64.65 47.5253 64.6254 48.2235 64.5272 48.5601C64.5026 48.6847 64.4412 48.747 64.2938 48.772C63.8762 48.8592 62.6848 48.8967 61.2233 48.8967H55.1559L55.1436 48.8717ZM59.602 46.2662C60.732 46.2662 61.125 46.2662 61.2478 46.2413V46.0044C61.2478 45.1193 60.646 43.1869 58.3861 43.1869C56.3227 43.1869 55.4015 44.7951 55.1559 46.2787H59.602V46.2662Z" fill="white"/>
<path d="M70.7316 55.8281C70.5594 55.8281 70.5135 55.7373 70.4561 55.6336C69.5378 52.6126 66.8289 43.6533 65.8533 40.5026C65.8303 40.373 65.8533 40.2822 66.0254 40.2822H69.2049C69.3427 40.2822 69.4001 40.3082 69.4575 40.4767C71.4662 47.8542 72.1893 50.8882 72.4763 52.2755H72.5337C72.8436 50.8882 73.6815 47.8931 75.805 40.4767C75.828 40.3211 75.9198 40.2822 76.0231 40.2822H78.8468C78.9271 40.2822 79.0419 40.3471 78.9845 40.5286C77.9285 43.8348 75.2196 52.6645 74.2669 55.6077C74.2095 55.7633 74.1292 55.8281 73.957 55.8281H70.7431H70.7316Z" fill="white"/>
<path d="M32.4918 15.6558H16.6558V31.4918H32.4918V15.6558Z" fill="white"/>
</svg>
