<svg width="90" height="90" viewBox="0 0 90 90" fill="none" xmlns="http://www.w3.org/2000/svg">
<path d="M18.3911 51.743C18.2603 51.8677 18.0955 51.9508 17.9174 51.9819C17.7394 52.0129 17.5562 51.9905 17.3908 51.9175C17.2255 51.8444 17.0856 51.724 16.9887 51.5714C16.8919 51.4188 16.8424 51.241 16.8465 51.0603C16.8507 50.8796 16.9084 50.7042 17.0122 50.5563C17.116 50.4084 17.2614 50.2945 17.4299 50.2292C17.5984 50.1638 17.7825 50.1499 17.9589 50.1892C18.1353 50.2284 18.2961 50.3191 18.421 50.4497C18.5041 50.5365 18.5693 50.6388 18.6128 50.7509C18.6562 50.8629 18.6772 50.9824 18.6744 51.1025C18.6716 51.2227 18.6452 51.3411 18.5966 51.451C18.548 51.5609 18.4781 51.6601 18.3911 51.743ZM36.2319 29L22.1139 29.0062V51.0123L25.8067 54.9V32.698L36.4726 32.7032C37.0633 32.7696 37.6081 33.0536 38.0008 33.4999C38.3934 33.9462 38.6058 34.5228 38.5965 35.1171V54.5831C38.5962 55.1657 38.3817 55.7279 37.9937 56.1626C37.6058 56.5973 37.0715 56.8741 36.4927 56.9404L25.8227 56.9543L25.8108 56.9636L19.0213 49.8762C18.864 49.7068 18.6746 49.5704 18.4641 49.4749C18.2536 49.3794 18.0262 49.3267 17.7952 49.3199C17.5641 49.313 17.334 49.3522 17.1182 49.4351C16.9025 49.518 16.7053 49.643 16.5383 49.8028C16.3713 49.9626 16.2377 50.154 16.1453 50.3659C16.0529 50.5778 16.0036 50.8059 16.0002 51.037C15.9968 51.2681 16.0394 51.4976 16.1255 51.7122C16.2115 51.9267 16.3394 52.1219 16.5017 52.2866C16.6532 52.4472 16.8349 52.5763 17.0365 52.6663L22.2509 55.2194C22.5117 55.3815 22.7552 55.5697 22.978 55.7811C23.4345 56.2603 27.6483 60.6533 27.6483 60.6533H36.2325C37.8323 60.6538 39.3675 60.0216 40.5031 58.8947C41.6387 57.7678 42.2826 56.2375 42.2945 54.6377V35.0682C42.2934 33.4608 41.6548 31.9194 40.5187 30.7822C39.3827 29.645 37.8419 29.0048 36.2345 29.0021" fill="#DF006A"/>
<path d="M72.75 37.1771C72.6251 37.3078 72.4644 37.3984 72.288 37.4377C72.1117 37.4769 71.9276 37.463 71.7592 37.3977C71.5907 37.3323 71.4454 37.2185 71.3417 37.0706C71.2379 36.9227 71.1803 36.7474 71.1762 36.5667C71.1721 36.3861 71.2217 36.2083 71.3186 36.0558C71.4155 35.9033 71.5555 35.783 71.7208 35.7101C71.8861 35.6372 72.0693 35.6149 72.2473 35.6461C72.4253 35.6773 72.59 35.7606 72.7206 35.8854C72.8955 36.053 72.9967 36.2831 73.0022 36.5252C73.0077 36.7673 72.917 37.0018 72.75 37.1771ZM73.2977 35.2846C73.1319 35.1261 72.9365 35.0018 72.7226 34.9188C72.5087 34.8358 72.2806 34.7958 72.0513 34.801C71.8219 34.8062 71.5958 34.8566 71.386 34.9492C71.1761 35.0418 70.9865 35.1749 70.8281 35.3408L63.2888 43.3927V43.3891H49.4758V29H45.7814V60.6245H49.4758V47.0804H61.4926L61.5318 46.999L67.6 40.684L72.8118 38.134C73.072 38.0166 73.2994 37.8371 73.474 37.6112C73.6486 37.3854 73.7651 37.1201 73.8131 36.8387C73.8612 36.5573 73.8393 36.2684 73.7495 35.9974C73.6598 35.7264 73.5048 35.4817 73.2982 35.2846" fill="#00668A"/>
<path d="M60.8975 29V29.0077L60.8934 29V30.8601L60.8821 34.5818L60.8934 34.5911V42.0582H61.5287L64.5863 38.8378V34.5823C64.5857 33.3929 64.2358 32.2298 63.5801 31.2375C62.9243 30.2452 61.9915 29.4673 60.8975 29.0005" fill="#00668A"/>
<path d="M60.8939 49.1336V60.6388L60.8826 60.6533C60.8858 60.6506 60.8897 60.6488 60.8939 60.6481V60.6533L60.898 60.644C60.9104 60.6388 60.9212 60.6311 60.9362 60.6249H64.5888V45.2754L60.8939 49.1336Z" fill="#00668A"/>
</svg>
