<svg width="90" height="90" viewBox="0 0 90 90" fill="none" xmlns="http://www.w3.org/2000/svg">
<path fill-rule="evenodd" clip-rule="evenodd" d="M27.7833 21.0072H39.9712C42.8216 20.9475 45.6675 21.2609 48.4361 21.9396C50.6346 22.5171 52.6926 23.5338 54.4851 24.9281C56.909 26.8162 58.864 29.2358 60.1983 31.9989C61.5563 34.7926 62.2517 37.8601 62.2307 40.9645C62.2741 44.3203 61.5072 47.6372 59.9945 50.6353C58.5322 53.5091 56.3518 55.9587 53.6638 57.748C51.8749 58.9328 49.893 59.7984 47.8067 60.3062C45.7044 60.8042 42.4651 61.0533 38.0887 61.0533H27.7833V21.0072ZM31.9079 24.8325V57.2997H40.6786C46.134 57.2997 50.3306 55.8692 53.2681 53.0082C56.2057 50.1472 57.6784 46.0928 57.6864 40.8449C57.7179 38.3377 57.2089 35.853 56.1937 33.5589C55.2265 31.3821 53.753 29.4663 51.8953 27.9704C50.5208 26.8444 48.9263 26.0159 47.2132 25.5378C44.7499 24.9827 42.2253 24.7457 39.7014 24.8325H31.9079Z" fill="white"/>
<path fill-rule="evenodd" clip-rule="evenodd" d="M68.9421 79C71.2267 79 73.0787 77.1536 73.0787 74.8759C73.0787 72.5982 71.2267 70.7517 68.9421 70.7517C66.6576 70.7517 64.8056 72.5982 64.8056 74.8759C64.8056 75.9697 65.2414 77.0187 66.0171 77.7921C66.7929 78.5655 67.845 79 68.9421 79Z" fill="#002A5B"/>
<path fill-rule="evenodd" clip-rule="evenodd" d="M56.7407 79C59.0253 79 60.8773 77.1536 60.8773 74.8759C60.8773 72.5982 59.0253 70.7517 56.7407 70.7517C54.4562 70.7517 52.6042 72.5982 52.6042 74.8759C52.6042 75.9697 53.04 77.0187 53.8158 77.7921C54.5915 78.5655 55.6437 79 56.7407 79Z" fill="#647DA4"/>
<path fill-rule="evenodd" clip-rule="evenodd" d="M44.5394 79C46.8239 79 48.6759 77.1536 48.6759 74.8759C48.6759 72.5982 46.8239 70.7517 44.5394 70.7517C42.2548 70.7517 40.4028 72.5982 40.4028 74.8759C40.4028 75.9697 40.8386 77.0187 41.6144 77.7921C42.3901 78.5655 43.4423 79 44.5394 79Z" fill="#EE7C22"/>
<path fill-rule="evenodd" clip-rule="evenodd" d="M32.338 79C34.6225 79 36.4745 77.1536 36.4745 74.8759C36.4745 72.5982 34.6225 70.7517 32.338 70.7517C30.0534 70.7517 28.2014 72.5982 28.2014 74.8759C28.2014 75.9697 28.6372 77.0187 29.413 77.7921C30.1887 78.5655 31.2409 79 32.338 79Z" fill="#F6B885"/>
<path fill-rule="evenodd" clip-rule="evenodd" d="M20.1366 79C22.4211 79 24.2731 77.1536 24.2731 74.8759C24.2731 72.5982 22.4211 70.7517 20.1366 70.7517C17.852 70.7517 16 72.5982 16 74.8759C16 75.9697 16.4358 77.0187 17.2116 77.7921C17.9874 78.5655 19.0395 79 20.1366 79Z" fill="#FBE0C8"/>
</svg>
