<svg width="70" height="70" viewBox="0 0 70 70" fill="none" xmlns="http://www.w3.org/2000/svg">
<path d="M41.0976 51.1373C41.1237 51.1557 41.165 51.1862 41.2008 51.2111C41.166 51.1865 41.1324 51.1634 41.0976 51.1373Z" fill="white"/>
<path d="M42.3072 46.03C38.597 47.7716 36.1355 45.9921 36.8543 44.5913C37.3798 43.5685 38.9748 41.373 38.597 39.5564C38.1486 37.4044 36.0975 35.7323 33.902 34.6346C31.7065 33.5368 29.8683 32.4033 30.3048 29.7507C30.6968 27.3782 33.3526 26.579 35.7381 26.579C35.7381 26.579 37.6306 26.5883 38.5394 26.8157C39.1149 26.9601 39.2973 27.0438 38.8239 27.4411C38.433 27.7691 37.5145 28.5302 38.369 29.5422C39.8077 31.2458 43.0379 31.059 45.3354 33.6497C46.3376 34.7789 47.039 36.6031 47.039 38.1547C47.039 38.1547 47.557 43.5652 42.3072 46.03ZM41.0976 51.1376C41.1323 51.1622 41.166 51.1865 41.2007 51.2114C41.1649 51.1868 41.1236 51.1573 41.0976 51.1376ZM45.0629 17.7874C42.8881 17.7874 41.1258 19.5507 41.1258 21.7256V25.3488C41.1225 25.6289 40.8945 25.8538 40.6144 25.8538C40.5492 25.8538 40.4874 25.8414 40.4298 25.819L40.4233 25.8179C40.4287 25.82 40.4331 25.821 40.4374 25.824C38.7892 25.1345 36.9792 24.7534 35.079 24.7534C27.4166 24.7534 21.2069 30.9403 21.2069 38.5724C21.2069 46.2044 27.4166 52.3912 35.079 52.3912C36.5188 52.3912 37.9151 52.286 39.2213 51.8798C39.7599 51.7127 40.2832 51.5118 40.7903 51.2816C40.8185 51.2692 40.9662 51.2012 41.0563 51.2012C41.1367 51.2012 41.2116 51.2259 41.2746 51.2631C41.2767 51.2653 41.2691 51.26 41.2637 51.257C42.6655 52.2038 44.4277 52.2396 44.6829 52.2396H44.7828C44.7871 52.2396 44.7914 52.2396 44.7947 52.2396C47.0086 52.2396 48.9272 50.5012 48.9935 48.3025H49V21.7255C49 19.5507 47.2377 17.7874 45.0629 17.7874Z" fill="white"/>
</svg>
