<svg width="70" height="70" viewBox="0 0 70 70" fill="none" xmlns="http://www.w3.org/2000/svg">
<path d="M51.8698 47.6285C52.0136 47.3788 52.0395 47.1492 51.9424 46.9808C51.8452 46.8124 51.6333 46.7204 51.3458 46.7204H26.7493L26.8376 46.5671L34.9488 32.5054L32.9705 29.0754L21.3158 49.2801C21.172 49.5298 21.1461 49.7594 21.2433 49.9277C21.3404 50.0961 21.5523 50.1882 21.8405 50.1882H49.2269C49.5352 50.1882 49.8884 50.0822 50.2207 49.8899C50.5537 49.6976 50.8217 49.4447 50.9762 49.1773L51.8698 47.6278V47.6285Z" fill="white"/>
<path d="M32.8834 27.9993L32.9717 27.846L33.06 27.9993L41.1711 42.061H45.1283L33.4736 21.8557C33.3299 21.606 33.1438 21.4691 32.9496 21.4691C32.7554 21.4691 32.5693 21.6066 32.4255 21.8557L18.7321 45.595C18.5776 45.8624 18.4931 46.2212 18.4931 46.6059C18.4931 46.9906 18.5782 47.3494 18.7321 47.6168L19.6257 49.1656C19.7695 49.4147 19.9555 49.5522 20.1498 49.5522C20.344 49.5522 20.53 49.4147 20.6738 49.1656L32.8834 27.9993Z" fill="white"/>
<path d="M51.6407 45.2L37.9467 21.4607C37.7928 21.1933 37.5248 20.9405 37.1918 20.7481C36.8589 20.5558 36.5057 20.4498 36.1973 20.4498H34.4108C34.1226 20.4498 33.9107 20.5425 33.8142 20.7109C33.7171 20.8793 33.7429 21.1095 33.8867 21.3586L46.0963 42.5255L46.1852 42.6788H29.7858L27.8075 46.1094H51.1173C51.4049 46.1094 51.6174 46.0167 51.7145 45.8483C51.8116 45.6799 51.7858 45.4498 51.642 45.2007L51.6407 45.2Z" fill="white"/>
</svg>
