<svg width="90" height="90" viewBox="0 0 90 90" fill="none" xmlns="http://www.w3.org/2000/svg">
<path fill-rule="evenodd" clip-rule="evenodd" d="M56.7958 45.6602C56.9967 49.8791 59.1061 53.5958 64.0283 53.5958C68.8499 53.5958 70.9594 49.8791 71.2607 45.6602H80C79.5982 53.8972 74.0734 59.0202 64.0283 59.0202C55.6908 59.0202 50.166 55.203 48.7597 49.1759V58.5179H40.2213V49.1759C38.1118 56.0066 31.0802 58.5179 22.0396 58.5179H10.3873V45.6602H18.9257V53.0935H22.2405C28.2676 53.0935 31.7834 50.5823 32.0848 45.6602" fill="#005A9C"/>
<path fill-rule="evenodd" clip-rule="evenodd" d="M56.7958 43.9525C56.9967 39.6331 59.1061 36.1173 64.0283 36.1173C68.8499 36.1173 70.9594 39.6331 71.2607 43.9525H80C79.5982 35.6151 74.1738 30.5925 64.0283 30.5925C55.5903 30.5925 50.4673 34.1083 48.6592 39.9345V31.0948H40.1209V40.0349C38.1118 33.2043 31.1807 31.0948 21.9392 31.0948H10.3873V43.9525H18.9257V36.5192H22.2405C28.0667 36.5192 31.683 39.0304 32.0848 43.9525" fill="#005A9C"/>
</svg>
