<svg width="90" height="90" viewBox="0 0 90 90" fill="none" xmlns="http://www.w3.org/2000/svg">
<path d="M44.8186 18.14C52.7849 18.14 59.9434 21.647 64.8448 27.1939C65.9797 27.6001 67.03 28.183 67.9658 28.9079C62.8849 21.5624 54.4064 16.7377 44.8186 16.7377C29.3063 16.7377 16.6865 29.3576 16.6865 44.8694C16.6865 46.7588 16.877 48.6046 17.2339 50.3906C17.4457 49.4146 17.784 48.4859 18.2299 47.6212C18.137 46.7162 18.0888 45.7982 18.0888 44.8694C18.0888 30.1307 30.0799 18.14 44.8186 18.14Z" fill="white"/>
<path d="M72.3228 38.9661C72.2068 40.1777 71.8983 41.3331 71.4305 42.4035C71.5048 43.2154 71.5483 44.0367 71.5483 44.8678C71.5483 59.6065 59.5575 71.5968 44.8192 71.5968C37.534 71.5968 30.9228 68.6642 26.0967 63.9208C25.1164 63.7254 24.1818 63.4024 23.3096 62.9715C28.4742 69.0975 36.1981 72.999 44.8192 72.999C60.3306 72.999 72.9505 60.3795 72.9505 44.8678C72.9505 42.8434 72.7313 40.8704 72.3228 38.9661Z" fill="white"/>
<path d="M61.0323 28.4106H38.7354V32.1299H61.0323C64.2005 32.1299 66.7774 34.7068 66.7774 37.8745C66.7774 41.0422 64.2005 43.6196 61.0323 43.6196H46.2085V56.662V56.6709H49.9278V56.662V47.3388H61.0323C66.251 47.3388 70.4966 43.0932 70.4966 37.8745C70.4966 37.7053 70.4803 37.5398 70.4714 37.3725C70.348 35.033 69.3776 32.9179 67.8534 31.3306C66.1295 29.5347 63.712 28.4106 61.0323 28.4106Z" fill="white"/>
<path d="M28.3193 58.5406C25.1515 58.5406 22.5743 55.9632 22.5743 52.796C22.5743 49.6283 25.1515 47.0509 28.3193 47.0509H42.7304V34.5736H39.0111V43.3316H28.3193C23.5155 43.3316 19.5455 46.9322 18.9432 51.5741C18.891 51.9752 18.855 52.3809 18.855 52.796C18.855 56.2278 20.6973 59.2296 23.4388 60.8893C24.8661 61.7531 26.5328 62.2598 28.3193 62.2598H50.0769V58.5406H28.3193Z" fill="white"/>
</svg>
