<svg width="70" height="70" viewBox="0 0 70 70" fill="none" xmlns="http://www.w3.org/2000/svg">
<path d="M25.4991 45.6124C25.4991 45.6124 42.9431 49.6466 42.9431 37.479C42.9431 37.479 43.0733 31.4159 37.2704 31.4159C37.2704 31.4159 34.3187 31.7294 32.485 35.178C32.485 35.178 31.1718 36.3669 29.699 34.4327C28.2261 32.4984 29.1666 31.1201 30.5862 31.1201C32.3253 31.1201 31.1778 25.7432 41.6359 25.7432L45.1318 26.0094C45.8948 26.0685 46.6579 25.684 46.9714 24.9801C47.0542 24.7849 47.1134 24.572 47.1134 24.3354C47.1134 23.2233 50 25.1221 50 26.3998C50 27.6775 50 30.3334 48.0657 30.3334C46.1315 30.3334 48.1012 33.2496 48.1012 33.6459C48.1012 34.0423 49.1482 38.2361 47.1844 41.4836C45.2146 44.7311 41.1508 48.7889 35.0877 48.7889C29.0246 48.7889 25.5169 45.6184 25.5169 45.6184L25.4991 45.6124Z" fill="#0087B1"/>
<path d="M43.7476 24.7435C43.7476 24.7435 26.3095 20.7152 26.3095 32.8769C26.3095 32.8769 26.1794 38.94 31.9822 38.94C31.9822 38.94 34.9339 38.6265 36.7676 35.178C36.7676 35.178 38.0808 33.989 39.5537 35.9233C41.0266 37.8576 40.0861 39.2358 38.6664 39.2358C36.9273 39.2358 38.0749 44.6127 27.6168 44.6127L24.1386 44.3584C23.3755 44.2992 22.6066 44.6837 22.2871 45.3758C22.1984 45.5651 22.1452 45.784 22.1452 46.0206C22.1452 47.1326 19.2585 45.2338 19.2585 43.9561C19.2585 42.6785 19.2585 40.0225 21.1928 40.0225C23.1271 40.0225 21.1573 37.1063 21.1573 36.71C21.1573 36.3137 20.1103 32.1198 22.0742 28.8723C24.038 25.6249 28.1077 21.5729 34.1767 21.5729C40.2458 21.5729 43.7476 24.7435 43.7476 24.7435Z" fill="#0087B1"/>
</svg>
