<svg width="90" height="90" viewBox="0 0 90 90" fill="none" xmlns="http://www.w3.org/2000/svg">
<path d="M45.8098 18.1566C45.1015 17.6057 43.9209 17.6057 43.2126 18.1566L31.8002 27.6013C31.0919 28.1522 31.328 28.7032 32.2725 28.7032H56.7499C57.6944 28.7032 57.9305 28.2309 57.2222 27.6013L45.8098 18.1566Z" fill="#BE2037"/>
<path d="M45.8098 18.1566C45.1015 17.6057 43.9209 17.6057 43.2126 18.1566L31.8002 27.6013C31.0919 28.1522 31.328 28.7032 32.2725 28.7032H56.7499C57.6944 28.7032 57.9305 28.2309 57.2222 27.6013L45.8098 18.1566Z" fill="#BE2037"/>
<path d="M43.2126 71.5189C43.9209 72.0698 45.1015 72.0698 45.8098 71.5189L57.2222 62.0742C57.9305 61.5233 57.6944 61.051 56.7499 61.051H32.2725C31.328 61.051 31.0919 61.5233 31.8002 62.0742L43.2126 71.5189Z" fill="#BE2037"/>
<path d="M43.2126 71.5189C43.9209 72.0698 45.1015 72.0698 45.8098 71.5189L57.2222 62.0742C57.9305 61.5233 57.6944 61.051 56.7499 61.051H32.2725C31.328 61.051 31.0919 61.5233 31.8002 62.0742L43.2126 71.5189Z" fill="#BE2037"/>
<path d="M14.5632 43.6576C13.9336 44.2872 13.9336 45.3104 14.5632 45.9401L25.1885 56.1718C25.8182 56.8014 26.3691 56.644 26.3691 55.7783V33.8981C26.3691 33.0323 25.8182 32.8749 25.1885 33.5046L14.5632 43.6576Z" fill="#BE2037"/>
<path d="M14.5632 43.6576C13.9336 44.2872 13.9336 45.3104 14.5632 45.9401L25.1885 56.1718C25.8182 56.8014 26.3691 56.644 26.3691 55.7783V33.8981C26.3691 33.0323 25.8182 32.8749 25.1885 33.5046L14.5632 43.6576Z" fill="#BE2037"/>
<path d="M74.5368 43.6574L63.9115 33.4257C63.2819 32.7961 62.7309 32.9535 62.7309 33.8192V36.5739H38.3322C37.1516 36.5739 36.2858 37.4397 36.2858 38.4629V39.0138C36.2858 40.037 37.2303 40.9027 38.3322 40.9027H62.6522V48.852H38.3322C37.1516 48.852 36.2858 49.7178 36.2858 50.741V51.2919C36.2858 52.3151 37.2303 53.1808 38.3322 53.1808H62.6522V55.8568C62.6522 56.7226 63.2032 56.88 63.8328 56.2504L74.4581 46.0186C75.1664 45.3103 75.1664 44.2871 74.5368 43.6574Z" fill="#BE2037"/>
<path d="M74.5368 43.6574L63.9115 33.4257C63.2819 32.7961 62.7309 32.9535 62.7309 33.8192V36.5739H38.3322C37.1516 36.5739 36.2858 37.4397 36.2858 38.4629V39.0138C36.2858 40.037 37.2303 40.9027 38.3322 40.9027H62.6522V48.852H38.3322C37.1516 48.852 36.2858 49.7178 36.2858 50.741V51.2919C36.2858 52.3151 37.2303 53.1808 38.3322 53.1808H62.6522V55.8568C62.6522 56.7226 63.2032 56.88 63.8328 56.2504L74.4581 46.0186C75.1664 45.3103 75.1664 44.2871 74.5368 43.6574Z" fill="#BE2037"/>
</svg>
