<svg width="90" height="90" viewBox="0 0 90 90" fill="none" xmlns="http://www.w3.org/2000/svg">
<path d="M45.6351 15C46.6529 15.0528 47.6699 15.1185 48.6803 15.2544C50.7563 15.534 52.7789 16.032 54.7418 16.7658C58.2776 18.0876 61.4342 20.0301 64.1963 22.5999C68.746 26.8325 71.6989 31.9958 73.117 38.0411C73.5079 39.7079 73.7437 41.3972 73.8457 43.1069C73.9309 44.5367 73.9267 45.9652 73.8187 47.3923C73.573 50.6347 72.832 53.7613 71.5897 56.7676C71.5561 56.8489 71.5342 56.9392 71.4505 57.0157C71.6101 56.4523 71.7724 55.9069 71.9188 55.357C72.31 53.8864 72.5638 52.3921 72.7048 50.8768C72.8572 49.2397 72.8809 47.6002 72.7366 45.9649C72.1348 39.1334 69.4939 33.2336 64.5728 28.4204C61.2995 25.2191 57.416 23.0859 52.9442 22.05C50.7281 21.5367 48.4808 21.3525 46.2152 21.4989C40.7421 21.8529 35.9319 23.8635 31.7982 27.449C27.4173 31.2488 24.6238 36.0269 23.2564 41.6498C22.6747 44.0423 22.4089 46.474 22.4938 48.9328C22.7518 56.4046 25.4251 62.8507 30.7992 68.0964C34.0758 71.295 37.9719 73.4091 42.4452 74.4339C43.5375 74.6841 44.6451 74.8374 45.7601 74.9403C45.9386 74.9568 46.1168 74.9799 46.295 75H42.9357C42.9099 74.8968 42.8226 74.9403 42.7635 74.9352C41.4186 74.8185 40.0845 74.628 38.769 74.3238C33.822 73.1802 29.4639 70.8948 25.7626 67.4277C19.8505 61.8898 16.6816 55.0312 16.1068 46.9609C16.09 46.7254 16.0954 46.4842 16 46.2598V43.7999C16.0918 43.574 16.0909 43.3325 16.1044 43.0967C16.2028 41.387 16.4416 39.6977 16.8358 38.0318C18.3961 31.4369 21.7213 25.9103 26.9388 21.5742C31.7547 17.5719 37.3137 15.396 43.5762 15.048C43.6638 15.0432 43.7577 15.0633 43.8354 15H45.6351Z" fill="#E51B38"/>
<path d="M50.9453 48.4953C46.1168 48.4953 41.2884 48.4947 36.4602 48.4962C36.0567 48.4962 36.06 48.4209 36.0804 48.9054C36.1902 51.4926 36.9684 53.8509 38.5326 55.9239C40.3101 58.2795 42.6765 59.7258 45.5468 60.3603C47.0135 60.6846 48.4973 60.7539 49.988 60.5862C52.4243 60.312 54.5579 59.3454 56.399 57.7284C57.7805 56.5152 58.8743 55.0701 59.81 53.4972C59.8457 53.4372 59.8892 53.3799 59.9144 53.3157C59.9777 53.1558 60.0674 53.1798 60.1925 53.2485C61.8992 54.1875 63.6085 55.1223 65.3164 56.0595C65.5105 56.166 65.5129 56.172 65.4145 56.3439C63.1475 60.3051 60.0059 63.2928 55.7372 65.0181C54.2114 65.6349 52.6259 66.0276 50.9948 66.2481C49.0205 66.5151 47.0453 66.5028 45.077 66.2295C40.8342 65.6403 37.176 63.8805 34.2537 60.7029C32.2527 58.527 30.9264 55.9779 30.1578 53.1318C29.6358 51.1989 29.4126 49.2285 29.4486 47.2293C29.5011 44.3059 29.997 41.4664 31.1145 38.7523C32.3589 35.7298 34.2276 33.1801 36.873 31.2307C38.9346 29.7115 41.2434 28.7581 43.7474 28.2595C45.5222 27.9061 47.3153 27.805 49.1177 27.9076C52.1087 28.0777 54.9257 28.849 57.4937 30.4288C60.0947 32.0287 62.066 34.2178 63.4913 36.907C64.5343 38.8753 65.1979 40.9705 65.5579 43.1659C65.7589 44.3923 65.8585 45.6244 65.8321 46.8672C65.8222 47.337 65.8324 47.8071 65.8294 48.2769C65.8279 48.4875 65.8234 48.4881 65.6104 48.4944C65.5405 48.4965 65.4706 48.4947 65.4004 48.4947C60.5822 48.4947 55.7636 48.4947 50.9453 48.4947V48.4953ZM59.0093 43.1809C59.0417 43.0654 59.0138 42.9676 58.9937 42.8707C58.5353 40.6744 57.5588 38.7385 55.9898 37.1347C53.2664 34.3516 49.9658 33.1876 46.1009 33.8008C43.6448 34.1905 41.5221 35.3017 39.7212 37.0132C38.1651 38.4922 37.0731 40.2547 36.5487 42.3499C36.4818 42.6178 36.3993 42.8857 36.4026 43.1809H59.0099H59.0093Z" fill="#E51B38"/>
</svg>
