<svg width="70" height="70" viewBox="0 0 70 70" fill="none" xmlns="http://www.w3.org/2000/svg">
<g clip-path="url(#clip0_61_272)">
<g clip-path="url(#clip1_61_272)">
<path d="M23.1929 29.3082L24.8841 35.3929H21.3809L23.1929 29.3082ZM20.1178 39.655L18.5789 44.7023H27.5759L26.1289 39.655H20.1178ZM43.6002 25.6606H26.3285V31.0809H31.7776V44.7023H40.546C40.0051 44.3688 36.2839 41.4144 36.2839 35.9023C36.2839 31.3198 39.0649 26.8371 43.6002 25.6606ZM46.5939 39.8257C48.6317 39.8257 50.2677 38.1345 50.2677 35.9969C50.2677 33.8724 48.7341 31.9501 46.67 31.9501C44.5954 31.9501 42.9646 33.8724 42.9646 35.9969C42.9646 38.1345 44.4956 39.8257 46.5939 39.8257ZM64.7085 37.6303L61.2027 25.6606H52.2268V44.7023H57.8335V32.7668H57.8728L61.3471 44.7023H70.3992V25.6606H64.7427V37.6303H64.7085ZM11.4649 44.7023L13.0852 39.3635H7.07935V37.7485H13.5763L15.1204 32.6303H7.07935V31.0809H15.5668L17.2055 25.6606H0.60083V44.7023H11.4649Z" fill="#1175C7"/>
</g>
</g>
<defs>
<clipPath id="clip0_61_272">
<rect width="70" height="70" fill="white"/>
</clipPath>
<clipPath id="clip1_61_272">
<rect width="70" height="19.2433" fill="white" transform="translate(0.5 25.5598)"/>
</clipPath>
</defs>
</svg>
