<svg width="70" height="70" viewBox="0 0 70 70" fill="none" xmlns="http://www.w3.org/2000/svg">
<path d="M35.4262 46.9431C27.1202 46.9431 18.8095 46.9431 10.5035 46.9431C10.1756 46.9431 9.85231 46.9993 9.52438 47.0227C9.35573 47.0321 9.09807 47.0649 9.0887 46.854C9.07933 46.6573 9.32294 46.676 9.49627 46.662C11.2765 46.5308 13.0613 46.573 14.8462 46.5448C21.2877 46.4465 27.7292 46.3012 34.1707 46.2731C38.1667 46.2544 42.1675 46.2919 46.1682 46.409C48.0187 46.4652 49.8691 46.498 51.7196 46.4839C54.6288 46.4605 57.538 46.5261 60.4472 46.5542C60.5268 46.5542 60.6018 46.5683 60.6814 46.5636C60.8829 46.5495 61 46.7229 61 46.84C61 47.0742 60.7751 46.9758 60.644 46.9758C58.6811 46.9805 56.7229 46.9805 54.76 46.9805C48.3138 46.9805 41.8723 46.9805 35.4262 46.9805C35.4262 46.9665 35.4262 46.9524 35.4262 46.9337V46.9431Z" fill="white"/>
<path d="M14.5322 32.725C14.4854 30.0453 15.3802 27.6842 16.9121 25.5246C17.582 24.5782 18.2987 23.6835 19.1326 22.8777C19.3856 22.6341 19.6667 22.4467 19.9665 22.278C20.3179 22.0813 20.6036 22.1562 20.8285 22.4561C21.0627 22.7746 20.8285 23.0229 20.613 23.1822C19.7651 23.8099 19.0952 24.597 18.4674 25.4309C17.1276 27.2157 16.1485 29.1505 15.8112 31.3945C15.4317 33.9336 16.1906 36.1823 17.418 38.3419C18.1254 39.5881 19.0764 40.6468 19.9571 41.7618C20.1398 41.9913 20.2523 42.1459 19.9525 42.4176C19.6667 42.6753 19.4606 42.6425 19.2216 42.4457C18.1254 41.5275 17.2822 40.3891 16.5139 39.2039C15.5207 37.6673 14.8789 35.9761 14.5416 34.1772C14.4526 33.7087 14.5276 33.2075 14.5276 32.725H14.5322Z" fill="white"/>
<path d="M55.8046 32.9357C55.7296 35.5217 54.7974 37.8922 53.2608 40.0471C52.6893 40.8482 52.0896 41.6259 51.3729 42.3005C51.2136 42.4504 51.0496 42.5722 50.8529 42.6565C50.5624 42.7783 50.3703 42.619 50.197 42.4223C50.019 42.2208 50.0939 42.0194 50.2392 41.8461C50.7357 41.2558 51.2557 40.6889 51.7336 40.0846C53.1484 38.3091 54.1322 36.3556 54.4226 34.0507C54.7833 31.1743 53.9541 28.6633 52.4176 26.2975C51.6727 25.1497 50.6748 24.2409 49.7379 23.2665C49.5411 23.0651 49.1523 22.873 49.4849 22.5123C49.7754 22.1984 50.1033 22.1984 50.4593 22.4748C52.2021 23.838 53.4716 25.5807 54.5023 27.5155C55.3877 29.1786 55.7624 30.9682 55.8046 32.9264V32.9357Z" fill="white"/>
<path d="M34.789 38.6792C35.2621 38.5808 35.8524 38.7776 36.4567 38.7448C36.8924 38.7214 36.8877 39.0821 36.9065 39.3398C37.0095 41.0544 37.2204 42.7549 37.4967 44.4461C37.6232 45.2284 37.5811 45.2612 36.7894 45.2612C35.5854 45.2612 34.3767 45.2425 33.1728 45.2753C32.7605 45.2847 32.6621 45.1254 32.7183 44.774C33.0369 42.9048 33.243 41.0263 33.2992 39.1289C33.3086 38.7823 33.5241 38.7026 33.7865 38.6839C34.0769 38.6605 34.3674 38.6792 34.789 38.6792Z" fill="white"/>
<path d="M37.731 32.2284C37.9184 33.4839 36.527 34.7816 35.1076 34.8565C33.8052 34.9268 32.5216 33.5495 32.4935 32.2237C32.4654 30.9448 33.6131 29.4644 35.1216 29.5487C36.5645 29.6284 37.731 30.3358 37.731 32.2331V32.2284Z" fill="white"/>
<path d="M49.1569 32.6969C49.3209 35.0392 48.2715 36.9459 46.9926 38.7729C46.6225 39.3023 46.0931 39.6864 45.6856 40.1783C45.5122 40.3845 45.2686 40.4641 45.0438 40.4735C44.847 40.4782 44.6268 40.3189 44.5425 40.1221C44.4441 39.8832 44.6315 39.7005 44.7861 39.5412C45.7558 38.5246 46.5991 37.419 47.18 36.1307C47.5922 35.2172 47.8499 34.2943 47.8921 33.2684C47.967 31.4929 47.611 29.8579 46.7162 28.3354C46.0697 27.2298 45.1984 26.3163 44.2942 25.4215C44.149 25.281 43.7695 25.2013 43.9757 24.8546C44.1865 24.5033 44.5284 24.4377 44.8892 24.5455C45.0625 24.597 45.2218 24.7375 45.353 24.8687C47.1191 26.6442 48.6182 28.5743 49.082 31.1368C49.1757 31.6615 49.082 32.1768 49.1523 32.6922L49.1569 32.6969Z" fill="white"/>
<path d="M21.0534 32.5984C21.0394 30.0125 22.1168 27.8716 23.7799 25.9742C24.2156 25.4777 24.6653 24.9951 25.1947 24.5969C25.4243 24.4236 25.6538 24.3065 25.9396 24.4705C26.3799 24.7187 26.4174 24.9483 26.0286 25.3184C25.0026 26.2881 24.0516 27.3188 23.3724 28.5696C22.843 29.5487 22.5057 30.584 22.3464 31.6896C21.9623 34.3692 23.1147 36.5195 24.67 38.534C24.937 38.8759 25.2462 39.1851 25.5086 39.5271C25.6632 39.7286 25.8412 39.9534 25.5086 40.2064C25.2181 40.4219 24.9652 40.4734 24.6888 40.2251C24.2437 39.8223 23.8596 39.3632 23.4895 38.89C22.4823 37.597 21.6624 36.2057 21.2549 34.5988C21.0862 33.9383 21.0581 33.273 21.0534 32.5984Z" fill="white"/>
<path d="M26.3706 33.1559C26.4596 30.7527 27.0827 29.2583 28.1133 27.8997C28.4647 27.4406 28.8441 27.0283 29.322 26.7004C29.4344 26.6254 29.5422 26.5505 29.6546 26.4802C29.9638 26.2835 30.2496 26.349 30.4838 26.602C30.7602 26.9065 30.5119 27.1408 30.3198 27.3282C29.767 27.8669 29.2517 28.4291 28.8114 29.0662C27.0921 31.5584 27.4387 34.3318 29.2096 36.5664C29.4625 36.885 29.7342 37.1848 29.9966 37.4893C30.2121 37.7423 30.2777 38.0187 29.9966 38.2529C29.7389 38.4637 29.4438 38.4918 29.1627 38.2529C28.4975 37.6861 27.9587 37.0021 27.5277 36.2572C26.8578 35.0954 26.2957 33.8727 26.3706 33.1512V33.1559Z" fill="white"/>
<path d="M43.8117 32.3127C43.8492 34.9876 42.7015 36.7022 41.282 38.2857C40.9962 38.6042 40.598 38.6558 40.2701 38.356C39.8625 37.9859 40.1342 37.6673 40.4294 37.3909C42.1627 35.784 42.7811 33.7462 42.4766 31.4788C42.2939 30.1155 41.5303 28.949 40.5371 27.9746C40.345 27.7826 40.1249 27.6092 39.9703 27.3937C39.8391 27.2063 39.3659 27.1033 39.7688 26.7285C40.0874 26.424 40.4106 26.4053 40.7432 26.6489C41.6708 27.3375 42.3501 28.2463 42.9497 29.2161C43.615 30.2936 43.8539 31.4788 43.8117 32.3127Z" fill="white"/>
</svg>
