<svg width="90" height="90" viewBox="0 0 90 90" fill="none" xmlns="http://www.w3.org/2000/svg">
<path d="M28.9635 34.791H16.9972V41.8111H28.2625V46.7427H16.9972V54.7657H29.4357V59.6973H10.24V29.8594H28.9635V34.791Z" fill="#055FAC"/>
<path d="M46.2606 35.1853C45.6813 34.197 44.6248 33.7004 43.0913 33.7004C42.2442 33.7004 41.5481 33.9049 41.0028 34.3041C40.4576 34.7082 40.0243 35.3605 39.7127 36.266C39.4011 37.1715 39.1821 38.3545 39.0555 39.815C38.9289 41.2755 38.8705 43.0671 38.8705 45.1848C38.8705 47.4388 38.9581 49.2644 39.1285 50.6568C39.2989 52.0491 39.5667 53.1299 39.9269 53.8942C40.2872 54.6585 40.7399 55.1746 41.29 55.4423C41.8353 55.7052 42.4682 55.8415 43.1887 55.8415C43.7826 55.8415 44.3376 55.7539 44.8536 55.5689C45.3697 55.3888 45.8176 55.0237 46.1924 54.4833C46.5673 53.938 46.8643 53.1737 47.0833 52.1854C47.3024 51.1972 47.4095 49.8925 47.4095 48.281H54.1667C54.1667 49.8973 54.0255 51.4308 53.7432 52.8767C53.4608 54.3275 52.935 55.5932 52.1707 56.6789C51.4015 57.7645 50.3256 58.6165 48.9333 59.225C47.541 59.8384 45.7348 60.1451 43.5149 60.1451C40.9785 60.1451 38.963 59.7849 37.4587 59.0595C35.9592 58.3341 34.8054 57.2923 34.007 55.9243C33.2086 54.5612 32.6926 52.9303 32.4589 51.0365C32.2252 49.1427 32.1084 47.0542 32.1084 44.771C32.1084 42.4877 32.2252 40.4333 32.4589 38.5249C32.6926 36.6166 33.2086 34.9808 34.007 33.6177C34.8054 32.2546 35.9544 31.1884 37.4587 30.4241C38.9581 29.6597 40.9785 29.2751 43.5149 29.2751C46.0512 29.2751 47.8233 29.6257 49.2156 30.3218C50.608 31.018 51.6498 31.904 52.3362 32.9751C53.0227 34.0461 53.456 35.2048 53.6263 36.4413C53.7967 37.6827 53.8844 38.8414 53.8844 39.9319H47.1271C47.1271 37.7606 46.8399 36.1784 46.2606 35.1901V35.1853Z" fill="#055FAC"/>
<path d="M63.4603 51.2505C63.4603 51.9466 63.5236 52.5795 63.6502 53.1491C63.7768 53.7187 64.0105 54.2007 64.3561 54.5901C64.7018 54.9796 65.1594 55.2863 65.7387 55.5103C66.318 55.7342 67.0434 55.8462 67.9197 55.8462C68.9518 55.8462 69.8816 55.5492 70.7141 54.9504C71.5417 54.3516 71.9555 53.4266 71.9555 52.1706C71.9555 51.5036 71.8533 50.9243 71.6488 50.4375C71.4444 49.9506 71.1085 49.5125 70.6411 49.123C70.1737 48.7336 69.5555 48.3782 68.7863 48.0569C68.0171 47.7356 67.0726 47.4094 65.948 47.0735C64.4486 46.6305 63.1488 46.1388 62.0534 45.613C60.958 45.0823 60.0428 44.4641 59.3077 43.7533C58.5726 43.0425 58.0322 42.2198 57.6865 41.2899C57.3409 40.3552 57.1705 39.2793 57.1705 38.0525C57.1705 35.1023 58.0906 32.9018 59.9405 31.4511C61.7856 30.0052 64.322 29.2798 67.5449 29.2798C69.0443 29.2798 70.4318 29.4258 71.6975 29.7179C72.9633 30.01 74.0587 30.4823 74.9836 31.1395C75.9086 31.7918 76.6291 32.6292 77.1452 33.6467C77.6612 34.6641 77.9192 35.8812 77.9192 37.3028V38.1401H71.4444C71.4444 36.7186 71.162 35.6281 70.5973 34.8589C70.0326 34.0945 69.0978 33.7099 67.7834 33.7099C67.0337 33.7099 66.4057 33.8073 65.9042 34.002C65.4028 34.1968 65.0036 34.4548 64.7066 34.7761C64.4097 35.0974 64.2052 35.4674 64.0981 35.8812C63.9861 36.2999 63.9326 36.7332 63.9326 37.1762C63.9326 38.0963 64.1516 38.8704 64.5898 39.4935C65.0279 40.1215 65.9675 40.7008 67.4085 41.2266L72.6176 43.2324C73.898 43.7338 74.9496 44.2547 75.7626 44.8C76.5756 45.3452 77.2231 45.9294 77.7099 46.5526C78.1967 47.1806 78.5326 47.867 78.7176 48.6216C78.9026 49.3713 79 50.2087 79 51.1288C79 54.2786 77.9728 56.5667 75.9281 58.0028C73.8785 59.439 71.0257 60.1546 67.3647 60.1546C63.7038 60.1546 60.8168 59.4146 59.1762 57.9395C57.5356 56.4644 56.7129 54.3467 56.7129 51.5913V50.3791H63.4701V51.2554L63.4603 51.2505Z" fill="#055FAC"/>
</svg>
