<svg width="90" height="90" viewBox="0 0 90 90" fill="none" xmlns="http://www.w3.org/2000/svg">
<path d="M75 15H15V75H75V15Z" fill="#1F1A17"/>
<path d="M57.5867 28.6543C59.0353 28.6543 60.2095 27.48 60.2095 26.0315C60.2095 24.583 59.0353 23.4087 57.5867 23.4087C56.1382 23.4087 54.9639 24.583 54.9639 26.0315C54.9639 27.48 56.1382 28.6543 57.5867 28.6543Z" fill="white"/>
<path d="M51.2596 28.6543C52.7081 28.6543 53.8824 27.48 53.8824 26.0315C53.8824 24.583 52.7081 23.4087 51.2596 23.4087C49.811 23.4087 48.6368 24.583 48.6368 26.0315C48.6368 27.48 49.811 28.6543 51.2596 28.6543Z" fill="white"/>
<path d="M44.9324 28.6543C46.381 28.6543 47.5552 27.48 47.5552 26.0315C47.5552 24.583 46.381 23.4087 44.9324 23.4087C43.4839 23.4087 42.3096 24.583 42.3096 26.0315C42.3096 27.48 43.4839 28.6543 44.9324 28.6543Z" fill="white"/>
<path d="M38.6188 28.6543C40.0673 28.6543 41.2416 27.48 41.2416 26.0315C41.2416 24.583 40.0673 23.4087 38.6188 23.4087C37.1702 23.4087 35.996 24.583 35.996 26.0315C35.996 27.48 37.1702 28.6543 38.6188 28.6543Z" fill="white"/>
<path d="M57.5867 66.5908C59.0353 66.5908 60.2095 65.4166 60.2095 63.968C60.2095 62.5195 59.0353 61.3452 57.5867 61.3452C56.1382 61.3452 54.9639 62.5195 54.9639 63.968C54.9639 65.4166 56.1382 66.5908 57.5867 66.5908Z" fill="white"/>
<path d="M51.2596 66.5908C52.7081 66.5908 53.8824 65.4166 53.8824 63.968C53.8824 62.5195 52.7081 61.3452 51.2596 61.3452C49.811 61.3452 48.6368 62.5195 48.6368 63.968C48.6368 65.4166 49.811 66.5908 51.2596 66.5908Z" fill="white"/>
<path d="M44.9324 66.5908C46.381 66.5908 47.5552 65.4166 47.5552 63.968C47.5552 62.5195 46.381 61.3452 44.9324 61.3452C43.4839 61.3452 42.3096 62.5195 42.3096 63.968C42.3096 65.4166 43.4839 66.5908 44.9324 66.5908Z" fill="white"/>
<path d="M38.6188 66.5908C40.0673 66.5908 41.2416 65.4166 41.2416 63.968C41.2416 62.5195 40.0673 61.3452 38.6188 61.3452C37.1702 61.3452 35.996 62.5195 35.996 63.968C35.996 65.4166 37.1702 66.5908 38.6188 66.5908Z" fill="white"/>
<path d="M51.2596 47.6226C52.7081 47.6226 53.8824 46.4483 53.8824 44.9998C53.8824 43.5512 52.7081 42.377 51.2596 42.377C49.811 42.377 48.6368 43.5512 48.6368 44.9998C48.6368 46.4483 49.811 47.6226 51.2596 47.6226Z" fill="white"/>
<path d="M44.9324 47.6226C46.381 47.6226 47.5552 46.4483 47.5552 44.9998C47.5552 43.5512 46.381 42.377 44.9324 42.377C43.4839 42.377 42.3096 43.5512 42.3096 44.9998C42.3096 46.4483 43.4839 47.6226 44.9324 47.6226Z" fill="white"/>
<path d="M38.6188 47.6226C40.0673 47.6226 41.2416 46.4483 41.2416 44.9998C41.2416 43.5512 40.0673 42.377 38.6188 42.377C37.1702 42.377 35.996 43.5512 35.996 44.9998C35.996 46.4483 37.1702 47.6226 38.6188 47.6226Z" fill="white"/>
<path d="M32.2916 28.6543C33.7401 28.6543 34.9144 27.48 34.9144 26.0315C34.9144 24.583 33.7401 23.4087 32.2916 23.4087C30.843 23.4087 29.6688 24.583 29.6688 26.0315C29.6688 27.48 30.843 28.6543 32.2916 28.6543Z" fill="white"/>
<path d="M32.2916 53.9497C33.7401 53.9497 34.9144 52.7754 34.9144 51.3269C34.9144 49.8784 33.7401 48.7041 32.2916 48.7041C30.843 48.7041 29.6688 49.8784 29.6688 51.3269C29.6688 52.7754 30.843 53.9497 32.2916 53.9497Z" fill="white"/>
<path d="M32.2916 47.6226C33.7401 47.6226 34.9144 46.4483 34.9144 44.9998C34.9144 43.5512 33.7401 42.377 32.2916 42.377C30.843 42.377 29.6688 43.5512 29.6688 44.9998C29.6688 46.4483 30.843 47.6226 32.2916 47.6226Z" fill="white"/>
<path d="M32.2916 66.5908C33.7401 66.5908 34.9144 65.4166 34.9144 63.968C34.9144 62.5195 33.7401 61.3452 32.2916 61.3452C30.843 61.3452 29.6688 62.5195 29.6688 63.968C29.6688 65.4166 30.843 66.5908 32.2916 66.5908Z" fill="white"/>
<path d="M32.2916 60.2627C33.7401 60.2627 34.9144 59.0884 34.9144 57.6399C34.9144 56.1914 33.7401 55.0171 32.2916 55.0171C30.843 55.0171 29.6688 56.1914 29.6688 57.6399C29.6688 59.0884 30.843 60.2627 32.2916 60.2627Z" fill="white"/>
<path d="M32.2916 41.2964C33.7401 41.2964 34.9144 40.1221 34.9144 38.6736C34.9144 37.2251 33.7401 36.0508 32.2916 36.0508C30.843 36.0508 29.6688 37.2251 29.6688 38.6736C29.6688 40.1221 30.843 41.2964 32.2916 41.2964Z" fill="white"/>
<path d="M32.2916 34.9824C33.7401 34.9824 34.9144 33.8082 34.9144 32.3596C34.9144 30.9111 33.7401 29.7368 32.2916 29.7368C30.843 29.7368 29.6688 30.9111 29.6688 32.3596C29.6688 33.8082 30.843 34.9824 32.2916 34.9824Z" fill="white"/>
</svg>
