<svg width="90" height="90" viewBox="0 0 90 90" fill="none" xmlns="http://www.w3.org/2000/svg">
<path d="M79.5152 49.5158C79.0984 53.6818 82.6746 54.3845 84.5872 54.3845C89.5773 54.3845 90.2426 51.9143 89.9378 49.5398C89.8264 48.6195 88.385 47.3114 87.4706 46.8514L84.5322 45.1075C83.8387 44.6957 83.1734 44.332 83.1734 43.533C83.1734 42.7581 83.8387 42.4185 84.698 42.4185C85.946 42.4185 86.4448 42.9999 86.3616 44.5262H89.9654C90.0492 41.595 88.4413 39.9965 84.9483 39.9965C81.4829 39.9965 79.5703 41.2072 79.5703 43.3148C79.5703 45.277 80.7344 46.5359 82.5369 47.6264L84.5046 48.8131C85.1981 49.2254 86.2245 49.6612 86.279 50.4362C86.5287 51.3084 85.8071 51.9625 84.7819 51.9625C83.9507 51.9625 82.8417 52.0352 83.1183 49.5163H79.5152V49.5158ZM67.2062 49.5158C66.7912 53.6818 70.3668 54.3845 72.2795 54.3845C77.2701 54.3845 77.9348 51.9143 77.63 49.5398C77.5186 48.6195 76.0773 47.3114 75.1628 46.8514L72.2244 45.1075C71.5309 44.6957 70.8656 44.332 70.8656 43.533C70.8656 42.7581 71.5309 42.4185 72.3902 42.4185C73.6376 42.4185 74.137 42.9999 74.0538 44.5262H77.6576C77.7414 41.595 76.1336 39.9965 72.6406 39.9965C69.1751 39.9965 67.2625 41.2072 67.2625 43.3148C67.2625 45.277 68.4266 46.5359 70.2285 47.6264L72.1975 48.8131C72.8897 49.2254 73.9161 49.6612 73.9712 50.4362C74.2197 51.3084 73.4999 51.9625 72.4741 51.9625C71.6429 51.9625 70.5333 52.0352 70.8105 49.5163H67.2062V49.5158ZM57.6153 45.4219V44.8652C57.6153 43.6298 57.5315 42.4185 59.334 42.4185C60.7747 42.4185 61.1915 42.8544 61.2191 44.2352V45.4219H57.6153ZM54.0109 48.6441C53.9277 52.6652 55.6188 54.3845 59.7777 54.3845C63.4641 54.3845 64.9061 52.4464 64.7671 49.3944H61.1628C61.2185 51.1148 60.8304 51.9625 59.4998 51.9625C58.4183 51.9625 57.6422 51.6229 57.6147 49.8313V47.8451H64.8216V46.0038C64.8216 42.2736 64.2958 39.9975 59.2776 39.9975C55.729 39.9975 53.8438 41.8378 54.0103 45.0599V48.6441H54.0109ZM51.6276 35.8545H48.0232V54.0214H51.6276V35.8545ZM34.9944 54.0209H38.4311V52.5678H38.4874C39.2904 53.9241 40.2887 54.3118 41.7864 54.384C44.835 54.384 45.4452 51.9619 45.5285 49.7821V44.8406C45.4446 41.0864 44.114 40.0446 41.7864 39.9965C40.2617 39.9719 39.291 40.4318 38.5706 41.7404H38.5149C38.5425 41.0864 38.5982 40.6505 38.5982 40.2141V35.855H34.9944V54.0209ZM38.5976 45.4465C38.5419 44.3566 38.5976 42.4185 40.2887 42.4185C41.9804 42.4185 41.8133 43.7026 41.9241 45.0594V49.6131C41.8409 50.9212 41.4528 51.963 40.345 51.963C39.1796 51.963 38.5982 51.1154 38.5982 49.5409V45.4465H38.5976ZM28.7564 48.305C28.6732 49.6126 29.0612 51.9625 26.927 51.9625C25.5964 51.9625 25.2359 51.2603 25.2359 50.218C25.2359 49.6366 25.3191 48.9591 25.8455 48.5713C26.788 47.8927 27.8695 47.36 28.7564 46.8268V48.305ZM32.665 54.0209C32.4709 53.3914 32.3608 52.762 32.3608 52.1074V44.0416C32.4158 42.249 32.1111 39.997 27.2042 39.997C22.6854 39.997 21.7153 41.8132 21.7429 44.4053H25.1802C25.1526 43.1694 25.4299 42.4185 27.0653 42.4185C28.036 42.4185 28.5899 42.5159 28.7564 43.1213C29.0612 44.2352 28.5073 44.8406 26.982 45.3979C24.155 46.4151 21.6321 47.1659 21.6321 50.2907C21.6321 53.1005 22.907 54.384 25.8179 54.384C27.0377 54.384 28.1468 53.754 28.9786 52.6154H29.0336C28.9786 53.1 29.0061 53.5845 29.2546 54.0203H32.665V54.0209ZM14.7294 42.6608V54.0209H18.3331V42.6608H19.8853V40.3596H18.3331V38.7611C18.3331 38.4461 18.5547 38.2279 19.0817 38.2279C19.3032 38.2279 19.6087 38.3012 19.8853 38.3734V35.8545H18.5272C15.8935 35.8545 14.7294 36.5326 14.7294 39.0034V40.3596H13.3431V42.6608H14.7294V42.6608Z" fill="white"/>
<path d="M3.94516 45.4225V44.8647C3.94516 43.6294 3.86193 42.4191 5.66381 42.4191C7.10518 42.4191 7.52138 42.8545 7.54893 44.2353V45.4225H3.94516ZM0.342006 48.6441C0.25878 52.6658 1.94988 54.3846 6.10815 54.3846C9.79517 54.3846 11.2366 52.447 11.0982 49.395H7.49446C7.54954 51.1149 7.1615 51.9625 5.83091 51.9625C4.75001 51.9625 3.97333 51.6235 3.94578 49.8308V47.8446H11.1533V46.0044C11.1533 42.2737 10.627 39.9971 5.60935 39.9971C2.06066 39.9971 0.175526 41.8384 0.342006 45.06V48.6441Z" fill="#CE181E"/>
</svg>
