<svg width="70" height="70" viewBox="0 0 70 70" fill="none" xmlns="http://www.w3.org/2000/svg">
<path d="M11.7417 44.8233C12.0761 44.8079 12.3506 44.7916 12.6382 44.9934C12.8397 45.1375 12.9771 45.3559 13.0207 45.6013C13.0691 45.8767 13.0021 46.1823 12.8366 46.407C12.6871 46.6095 12.4616 46.7407 12.2133 46.7694C11.7631 46.8235 11.4942 46.6024 11.1685 46.3447C10.7495 46.3355 10.3308 46.3167 9.91273 46.288C9.99688 47.4641 9.92316 49.3084 9.9462 50.5733C9.10493 50.4882 7.92965 50.5152 7.05738 50.5142C6.74145 51.0694 6.64563 51.1306 6.06314 51.3224C5.3913 51.2009 4.80167 50.8933 4.87068 50.0868C4.89889 49.7526 5.06169 49.4447 5.321 49.2353C5.54329 49.0548 5.82905 48.9741 6.11176 49.0121C6.57607 49.079 6.80615 49.328 7.06139 49.6855C7.73567 49.6768 8.41003 49.6787 9.08425 49.6912C9.01286 48.3763 9.08276 46.8333 9.0307 45.4497C9.63784 45.4876 10.4223 45.4816 11.0428 45.4923C11.2871 45.155 11.3769 45.0234 11.7417 44.8233ZM6.16303 50.8003C6.40601 50.7396 6.59599 50.5484 6.65686 50.303C6.71774 50.0578 6.63957 49.7985 6.45366 49.6292C6.26775 49.4599 6.0045 49.4082 5.76933 49.4947C5.43158 49.619 5.24908 49.9886 5.35385 50.3361C5.45862 50.6835 5.81406 50.8874 6.16303 50.8003ZM12.2555 46.295C12.5153 46.1862 12.6479 45.8931 12.5591 45.6234C12.4704 45.3537 12.1905 45.1991 11.9179 45.2692C11.7233 45.3192 11.5726 45.4749 11.5275 45.6727C11.4824 45.8704 11.5505 46.077 11.7038 46.2081C11.8571 46.3392 12.07 46.3727 12.2555 46.295Z" fill="#0067B3"/>
<path d="M5.76927 49.4947C6.00444 49.4082 6.26769 49.4599 6.4536 49.6292C6.63951 49.7985 6.71768 50.0578 6.6568 50.303C6.59593 50.5483 6.40595 50.7396 6.16297 50.8002C5.814 50.8874 5.45856 50.6835 5.35379 50.336C5.24902 49.9886 5.43152 49.619 5.76927 49.4947Z" fill="#0067B3"/>
<path d="M5.85674 49.7206C6.07944 49.648 6.31922 49.7657 6.40034 49.9875C6.48146 50.2092 6.37505 50.4562 6.15911 50.5473C6.01119 50.6098 5.84132 50.5853 5.71661 50.4835C5.59189 50.3817 5.53241 50.2191 5.56166 50.0598C5.59091 49.9006 5.70419 49.7704 5.85674 49.7206Z" fill="#0067B3"/>
<path d="M18.629 14.7822C18.9504 14.7833 19.2218 14.8061 19.4842 15.0162C19.6788 15.175 19.801 15.4069 19.8229 15.6586C19.8496 15.9383 19.7659 16.2172 19.59 16.4347C19.0719 17.0685 18.4477 16.7355 17.9602 16.3085L16.6932 16.285L16.6942 20.5478C15.7739 20.4938 14.7748 20.5005 13.8469 20.4908C13.5723 21.0774 13.3062 21.1691 12.7138 21.2977C12.0488 21.1442 11.5251 20.6902 11.6757 19.9422C11.7408 19.6244 11.9273 19.3454 12.1948 19.1659C12.436 19.003 12.7328 18.9473 13.0157 19.012C13.4765 19.1207 13.6426 19.3649 13.8676 19.7372C14.5046 19.708 15.2477 19.7208 15.8937 19.7179C15.8499 18.3356 15.8755 16.8128 15.8751 15.4187C16.3691 15.4842 17.3178 15.4653 17.8469 15.4698C18.1309 15.0735 18.2056 15.0046 18.629 14.7822ZM12.9599 20.7814C13.1976 20.7188 13.3829 20.5308 13.4441 20.2905C13.5052 20.0501 13.4325 19.7952 13.2542 19.6245C13.0759 19.4538 12.82 19.3943 12.5857 19.469C12.236 19.5805 12.038 19.9534 12.1396 20.3095C12.241 20.6655 12.605 20.875 12.9599 20.7814ZM18.9956 16.2954C19.2677 16.2161 19.4303 15.9351 19.3654 15.6566C19.3005 15.3781 19.0309 15.2 18.7524 15.2516C18.5594 15.2873 18.4017 15.4276 18.342 15.6164C18.2824 15.8052 18.3306 16.0119 18.4673 16.1539C18.604 16.296 18.8072 16.3504 18.9956 16.2954Z" fill="#0067B3"/>
<path d="M12.5857 19.4691C12.82 19.3944 13.0759 19.4539 13.2542 19.6246C13.4325 19.7953 13.5052 20.0502 13.4441 20.2906C13.3829 20.5309 13.1976 20.7189 12.9598 20.7815C12.605 20.8751 12.241 20.6656 12.1396 20.3096C12.038 19.9535 12.236 19.5806 12.5857 19.4691Z" fill="#0067B3"/>
<path d="M12.686 19.6911C12.9231 19.6374 13.1589 19.7866 13.2146 20.0257C13.2703 20.2648 13.125 20.5046 12.889 20.5633C12.7341 20.6019 12.5707 20.5533 12.461 20.4363C12.3514 20.3193 12.3124 20.1517 12.3589 19.9976C12.4054 19.8434 12.5303 19.7264 12.686 19.6911Z" fill="#0067B3"/>
<path d="M22.7179 55.0839C23.4484 55.1243 23.8804 55.8227 23.4725 56.4235C23.3525 56.6016 23.1646 56.7212 22.9539 56.7537C22.5465 56.8173 22.2834 56.6102 21.9751 56.3847C21.3137 56.381 19.8111 56.4205 19.2492 56.3223C19.1182 56.8149 18.9762 57.2157 18.8042 57.6964C18.8474 57.7412 18.8894 57.787 18.9303 57.8341C19.4195 58.4005 19.2348 58.9199 18.7249 59.3687C18.2039 59.6332 17.4952 59.4839 17.2366 58.904C16.8498 58.0364 17.8303 57.7865 18.0972 57.1659C18.3121 56.666 18.4987 56.0555 18.6987 55.5081C19.7532 55.5753 20.8625 55.5504 21.9229 55.5407C22.2513 55.3028 22.3425 55.2463 22.7179 55.0839ZM22.8387 56.3127C22.9692 56.2942 23.0795 56.2059 23.1275 56.082C23.1755 55.958 23.1536 55.8175 23.0703 55.7144C22.987 55.6113 22.8551 55.5617 22.7253 55.5844C22.5289 55.6189 22.3963 55.8062 22.4272 56.005C22.4583 56.2039 22.6414 56.3409 22.8387 56.3127Z" fill="#0067B3"/>
<path d="M16.6154 54.3279C17.7396 54.5275 17.6125 55.5264 16.672 56.067C16.3492 56.6455 15.9145 57.7129 15.6341 58.3523C14.4645 58.328 13.2946 58.3237 12.1247 58.3395C11.6448 58.8414 11.2908 58.8868 10.6992 58.5552C10.5397 58.3216 10.3917 58.0765 10.4177 57.7798C10.4373 57.5543 10.5501 57.3477 10.7284 57.2107C11.282 56.7797 11.8382 57.0803 12.2061 57.571C13.1597 57.552 14.1135 57.5483 15.0671 57.56C15.259 57.0163 15.7182 56.2258 15.8245 55.6985C15.9781 54.9368 15.3934 54.5645 16.6154 54.3279ZM11.5131 58.3685C11.6902 58.2988 11.8156 58.1371 11.8403 57.9468C11.8651 57.7564 11.7852 57.5675 11.632 57.4539C11.4788 57.3404 11.2765 57.3201 11.1043 57.4011C10.8493 57.5209 10.7345 57.8236 10.845 58.0849C10.9554 58.3462 11.2512 58.4717 11.5131 58.3685ZM16.7378 55.5133C16.9215 55.4236 16.9996 55.2011 16.9126 55.0145C16.8257 54.8279 16.6062 54.7469 16.4208 54.8329C16.2991 54.8892 16.2168 55.0072 16.2051 55.142C16.1935 55.2768 16.2544 55.4074 16.3646 55.4842C16.4747 55.561 16.6172 55.5721 16.7378 55.5133Z" fill="#0067B3"/>
<path d="M11.1043 57.4012C11.2765 57.3203 11.4788 57.3406 11.632 57.4541C11.7852 57.5677 11.865 57.7566 11.8403 57.947C11.8155 58.1373 11.6901 58.2989 11.5131 58.3687C11.2512 58.4719 10.9554 58.3464 10.8449 58.0851C10.7345 57.8238 10.8493 57.5211 11.1043 57.4012Z" fill="#0067B3"/>
<path d="M40.9536 43.0817C41.3434 43.1532 41.6761 43.3626 41.7468 43.7832C41.7813 43.9932 41.7334 44.2085 41.6132 44.3834C41.4922 44.5549 41.3074 44.6695 41.1013 44.701C40.7171 44.7628 40.4818 44.5496 40.1801 44.3321C38.7048 44.293 36.9413 44.2931 35.4702 44.3378C35.267 44.4862 35.0032 44.6304 34.7828 44.7588C34.6173 44.7424 34.5264 44.7242 34.378 44.6453C34.1807 44.5423 34.0339 44.3618 33.9724 44.1461C33.9112 43.938 33.9402 43.6895 34.0512 43.5038C34.1571 43.3271 34.3326 43.2044 34.5336 43.1665C34.9314 43.0883 35.1839 43.2823 35.4921 43.4959C36.9925 43.4418 38.7481 43.6171 40.231 43.3881C40.3004 43.3774 40.8564 43.1245 40.9536 43.0817ZM34.853 44.2501C35.0351 44.1766 35.1296 43.9731 35.0692 43.7847C35.0088 43.5963 34.8141 43.4874 34.6241 43.5358C34.4893 43.5701 34.3847 43.6773 34.3527 43.8139C34.3207 43.9506 34.3666 44.0938 34.4717 44.1855C34.577 44.2772 34.7239 44.3021 34.853 44.2501Z" fill="#0067B3"/>
<path d="M17.4544 28.8013C18.7167 27.8876 19.5145 29.1007 18.5941 29.9792C17.731 30.0477 17.9373 29.783 17.3005 29.718C16.1419 29.5997 14.8466 29.6558 13.681 29.6944C13.376 29.725 12.9241 30.0656 12.6204 29.989C11.6522 29.7447 11.9027 28.8995 12.5249 28.4396C13.0528 28.4217 13.1482 28.5333 13.5724 28.8423C14.4303 28.7636 16.4733 28.8256 17.4544 28.8013ZM12.9578 29.5767C13.1379 29.4852 13.2127 29.2652 13.1263 29.0811C13.04 28.8971 12.824 28.8165 12.64 28.8994C12.5171 28.9548 12.4334 29.0732 12.4216 29.2086C12.4096 29.3441 12.4713 29.4755 12.5827 29.5519C12.694 29.6283 12.8376 29.6378 12.9578 29.5767Z" fill="#0067B3"/>
<path d="M8.95776 60.2075C10.3332 60.4315 9.68199 61.3612 9.49425 62.2782C9.45498 62.4701 9.48169 63.0557 9.48765 63.2741C10.0104 63.94 10.0194 64.3757 9.27179 64.8083C7.43798 64.9171 8.92591 62.8494 8.63442 61.9875C8.34557 61.1333 7.82654 60.7374 8.95776 60.2075ZM9.14775 64.388C9.34657 64.3365 9.46652 64.132 9.41576 63.931C9.365 63.7301 9.16274 63.6087 8.96381 63.6598C8.76456 63.7109 8.64417 63.9156 8.695 64.1169C8.74583 64.3182 8.94862 64.4396 9.14775 64.388Z" fill="#0067B3"/>
<path d="M11.6998 60.2184C13.0064 60.4851 12.2732 61.4727 12.1466 62.3109C12.1086 62.5625 12.1445 62.9876 12.1599 63.2528C12.6623 63.9805 12.7541 64.5277 11.8041 64.8436C10.4036 64.6931 11.2046 63.4936 11.3365 62.5439C11.4924 61.4209 10.153 60.7754 11.6998 60.2184ZM11.9132 61.3858C12.0333 61.3203 12.1086 61.1939 12.1096 61.056C12.1106 60.9181 12.0373 60.7906 11.9181 60.7232C11.799 60.656 11.653 60.6595 11.5373 60.7326C11.3659 60.8407 11.3105 61.0668 11.4121 61.2432C11.5136 61.4197 11.7355 61.4828 11.9132 61.3858Z" fill="#0067B3"/>
<path d="M53.3003 31.8811C53.8424 31.82 54.3348 32.2045 54.4129 32.75C54.4911 33.2955 54.1269 33.8053 53.5898 33.9021C53.2265 33.9676 52.8566 33.8278 52.625 33.5374C52.3934 33.247 52.3369 32.8522 52.4775 32.5073C52.618 32.1625 52.9335 31.9224 53.3003 31.8811ZM53.5216 33.4506C53.7318 33.4076 53.8998 33.2481 53.9553 33.0387C54.0108 32.8294 53.9442 32.6064 53.7834 32.4629C53.6226 32.3196 53.3953 32.2804 53.1966 32.3621C52.9264 32.4731 52.7842 32.7737 52.8685 33.0559C52.9527 33.3382 53.2357 33.5091 53.5216 33.4506Z" fill="#0067B3"/>
<path d="M54.8123 27.9188C55.3445 27.7662 55.899 28.0747 56.0561 28.6106C56.2132 29.1465 55.9143 29.7104 55.3857 29.8752C55.0384 29.9836 54.6602 29.895 54.3956 29.6431C54.1309 29.3913 54.0206 29.0151 54.1068 28.6583C54.1931 28.3014 54.4626 28.019 54.8123 27.9188ZM55.2377 29.4421C55.5381 29.36 55.7154 29.0471 55.6333 28.7438C55.5512 28.4406 55.241 28.2624 54.9411 28.3463C54.6425 28.4298 54.467 28.7416 54.5488 29.0436C54.6305 29.3456 54.9387 29.5238 55.2377 29.4421Z" fill="#0067B3"/>
<path d="M50.7306 36.0351C51.2869 35.9818 51.7803 36.3953 51.8311 36.9577C51.8819 37.5201 51.4707 38.0171 50.914 38.0663C50.3601 38.1153 49.8714 37.7025 49.8208 37.143C49.7703 36.5836 50.1771 36.0882 50.7306 36.0351ZM51.0497 37.573C51.2391 37.4914 51.3697 37.3124 51.3908 37.1055C51.412 36.8986 51.3204 36.6964 51.1516 36.5774C50.9828 36.4583 50.7634 36.4412 50.5785 36.5326C50.3026 36.669 50.1846 37.0026 50.3124 37.2849C50.4402 37.567 50.7673 37.6949 51.0497 37.573Z" fill="#0067B3"/>
<path d="M49.4811 20.4353C50.0216 20.3824 50.5065 20.7715 50.5779 21.3153C50.6493 21.8592 50.2817 22.3626 49.7463 22.454C49.3827 22.516 49.0146 22.3726 48.7863 22.0799C48.5581 21.7873 48.5062 21.3921 48.651 21.0494C48.7957 20.7068 49.1141 20.4712 49.4811 20.4353ZM49.7471 21.9875C49.9451 21.9233 50.0917 21.7537 50.1282 21.5468C50.1647 21.3399 50.085 21.1296 49.9212 21.0002C49.7574 20.8708 49.5361 20.8435 49.3463 20.9292C49.0739 21.052 48.9442 21.3686 49.0508 21.6501C49.1574 21.9316 49.4631 22.0798 49.7471 21.9875Z" fill="#0067B3"/>
<path d="M56.3093 31.8823C56.8567 31.8275 57.3465 32.2263 57.4099 32.7784C57.4733 33.3305 57.087 33.832 56.5418 33.9055C56.1807 33.9541 55.8219 33.8021 55.603 33.508C55.3841 33.2139 55.3392 32.8234 55.4856 32.4865C55.632 32.1495 55.9469 31.9185 56.3093 31.8823ZM56.5407 33.4405C56.7409 33.3919 56.8985 33.236 56.951 33.0347C57.0033 32.8335 56.942 32.6194 56.7913 32.4776C56.6406 32.3358 56.4249 32.2891 56.2299 32.3561C55.9471 32.4535 55.7899 32.7582 55.873 33.0482C55.9561 33.3382 56.2501 33.511 56.5407 33.4405Z" fill="#0067B3"/>
<path d="M46.1651 20.5055C46.504 20.3715 46.8879 20.4324 47.1697 20.665C47.4515 20.8977 47.5872 21.2658 47.5247 21.6279C47.4622 21.9901 47.2113 22.2901 46.8682 22.4127C46.35 22.5979 45.7805 22.329 45.5885 21.8084C45.3966 21.2879 45.6533 20.7081 46.1651 20.5055ZM46.7255 21.9838C46.9175 21.9145 47.0574 21.7456 47.0907 21.5423C47.1241 21.3391 47.0459 21.1335 46.8863 21.0053C46.7268 20.877 46.5109 20.8462 46.3224 20.9248C46.0406 21.0423 45.9031 21.3656 46.0125 21.6531C46.122 21.9405 46.4384 22.0874 46.7255 21.9838Z" fill="#0067B3"/>
<path d="M50.4942 24.1742C50.8374 24.0548 51.2176 24.1312 51.4894 24.3741C51.7613 24.6171 51.8828 24.9891 51.8074 25.3478C51.732 25.7065 51.4715 25.9965 51.1254 26.1069C50.5998 26.2746 50.0383 25.9842 49.8656 25.4554C49.6929 24.9264 49.973 24.3555 50.4942 24.1742ZM50.9841 25.6915C51.2859 25.6039 51.4596 25.2849 51.3712 24.9804C51.283 24.6758 50.9663 24.5021 50.6654 24.5929C50.3667 24.683 50.1963 25.0001 50.2839 25.3024C50.3716 25.6047 50.6845 25.7786 50.9841 25.6915Z" fill="#0067B3"/>
<path d="M47.4874 24.1795C47.8331 24.0569 48.2174 24.1336 48.491 24.3799C48.7646 24.6261 48.8842 25.003 48.8034 25.3641C48.7226 25.7251 48.4541 26.0134 48.1023 26.1168C47.5785 26.2706 47.0287 25.9752 46.8621 25.4504C46.6956 24.9256 46.9728 24.3622 47.4874 24.1795ZM48.0309 25.6683C48.3193 25.5514 48.4596 25.2206 48.3446 24.929C48.2296 24.6372 47.9026 24.4946 47.6136 24.6101C47.3236 24.726 47.1818 25.0578 47.2972 25.3505C47.4126 25.6433 47.7414 25.7857 48.0309 25.6683Z" fill="#0067B3"/>
<path d="M53.6701 20.5021C54.0177 20.3719 54.4079 20.4453 54.6858 20.6932C54.9637 20.941 55.0842 21.3232 54.9995 21.6879C54.9148 22.0525 54.6386 22.3405 54.2806 22.4377C53.7613 22.5784 53.2242 22.2819 53.061 21.7643C52.8977 21.2467 53.1659 20.6909 53.6701 20.5021ZM54.2759 21.9577C54.5438 21.8216 54.6584 21.4966 54.5361 21.2199C54.4137 20.9433 54.0975 20.8129 53.8185 20.9238C53.6263 21.0003 53.4912 21.1771 53.4669 21.3844C53.4424 21.5915 53.5327 21.7955 53.7018 21.9153C53.8708 22.0352 54.0914 22.0515 54.2759 21.9577Z" fill="#0067B3"/>
<path d="M46.2209 36.0415C46.5788 35.9819 46.9408 36.1216 47.1683 36.4071C47.3958 36.6926 47.4536 37.0797 47.3197 37.4203C47.1857 37.761 46.8807 38.0024 46.5213 38.0523C45.9759 38.1279 45.4715 37.7467 45.3893 37.1967C45.3072 36.6466 45.6776 36.1319 46.2209 36.0415ZM46.609 37.569C46.7973 37.4875 46.927 37.3092 46.9479 37.1032C46.9688 36.8973 46.8777 36.6961 46.7097 36.5776C46.5416 36.4591 46.3233 36.4419 46.1392 36.5327C45.864 36.6684 45.7461 37.0011 45.8737 37.2825C46.0012 37.5638 46.3275 37.691 46.609 37.569Z" fill="#0067B3"/>
<path d="M43.1778 20.5018C43.5262 20.3721 43.9169 20.447 44.1942 20.6965C44.4714 20.9459 44.5901 21.3294 44.5029 21.694C44.4158 22.0587 44.1369 22.3451 43.7775 22.4392C43.2585 22.575 42.7254 22.2757 42.5654 21.7587C42.4054 21.2418 42.6748 20.6889 43.1778 20.5018ZM43.7709 21.9627C44.0441 21.831 44.1645 21.5041 44.0432 21.224C43.9219 20.9439 43.6025 20.8115 43.3214 20.9249C43.1312 21.0016 42.9975 21.1769 42.9726 21.3823C42.9478 21.5876 43.0356 21.7904 43.2017 21.9113C43.3679 22.0321 43.5861 22.0518 43.7709 21.9627Z" fill="#0067B3"/>
<path d="M53.7187 36.0436C54.2697 35.9852 54.7635 36.3884 54.8228 36.945C54.8821 37.5016 54.4843 38.0016 53.9337 38.0631C53.3808 38.1247 52.8836 37.721 52.8241 37.1622C52.7646 36.6034 53.1656 36.1021 53.7187 36.0436ZM53.9337 37.6005C54.2306 37.5425 54.4278 37.2562 54.3784 36.9547C54.3291 36.6532 54.0511 36.4463 53.7515 36.4881C53.5504 36.5161 53.3802 36.6523 53.3071 36.8436C53.2339 37.035 53.2694 37.2513 53.3997 37.4086C53.5299 37.566 53.7344 37.6394 53.9337 37.6005Z" fill="#0067B3"/>
<path d="M57.798 27.9286C58.3277 27.7683 58.8859 28.0714 59.0461 28.606C59.2063 29.1408 58.9081 29.7057 58.3793 29.8691C57.8484 30.0332 57.2865 29.7303 57.1256 29.1934C56.9647 28.6565 57.2662 28.0896 57.798 27.9286ZM58.2239 29.4431C58.4191 29.392 58.5719 29.2387 58.6238 29.0418C58.6757 28.8449 58.6187 28.6351 58.4746 28.4926C58.3304 28.3502 58.1214 28.2972 57.9278 28.3541C57.6344 28.4401 57.4638 28.7483 57.5448 29.046C57.6257 29.3436 57.9281 29.5205 58.2239 29.4431Z" fill="#0067B3"/>
<path d="M53.4971 24.1813C53.8448 24.0605 54.2301 24.1415 54.5011 24.3926C54.7722 24.6436 54.8855 25.0245 54.7965 25.3849C54.7075 25.7454 54.4304 26.0277 54.0743 26.1207C53.5529 26.2569 53.0181 25.9526 52.863 25.4314C52.7078 24.9102 52.9878 24.3584 53.4971 24.1813ZM53.9348 25.6934C54.1371 25.6537 54.3013 25.5048 54.3622 25.3059C54.4231 25.107 54.3708 24.8904 54.226 24.7423C54.0813 24.5941 53.8676 24.5384 53.6699 24.5974C53.3838 24.6828 53.2146 24.9802 53.2853 25.273C53.3561 25.5658 53.642 25.7509 53.9348 25.6934Z" fill="#0067B3"/>
<path d="M22.8322 18.2121C23.1818 18.0921 23.5683 18.176 23.8383 18.4305C24.1084 18.6849 24.2181 19.0686 24.124 19.4294C24.03 19.7901 23.7473 20.0694 23.3882 20.1563C22.8673 20.2826 22.3402 19.9725 22.1914 19.4525C22.0427 18.9324 22.3249 18.3862 22.8322 18.2121Z" fill="#0067B3"/>
<path d="M14.2272 63.0987C14.6718 62.9067 15.1868 63.1102 15.3843 63.5562C15.5818 64.0021 15.3891 64.5258 14.951 64.7328C14.6611 64.8699 14.3206 64.8383 14.0602 64.6502C13.7998 64.462 13.6601 64.1466 13.6947 63.8251C13.7293 63.5036 13.9329 63.2259 14.2272 63.0987ZM14.8099 64.4C15.0622 64.2756 15.1716 63.9715 15.0572 63.7124C14.9428 63.4533 14.6458 63.3324 14.3856 63.4391C14.2091 63.5114 14.0858 63.6752 14.0639 63.8663C14.042 64.0574 14.125 64.2454 14.2804 64.3566C14.4358 64.4677 14.6388 64.4844 14.8099 64.4Z" fill="#0067B3"/>
<path d="M14.3856 63.4391C14.6458 63.3325 14.9428 63.4534 15.0572 63.7124C15.1716 63.9716 15.0622 64.2756 14.8099 64.4001C14.6388 64.4845 14.4358 64.4677 14.2804 64.3566C14.125 64.2455 14.042 64.0574 14.0639 63.8663C14.0858 63.6753 14.2091 63.5114 14.3856 63.4391Z" fill="#0067B3"/>
<path d="M22.8848 21.198C23.163 21.0976 23.4734 21.1616 23.6904 21.3641C23.9074 21.5666 23.9953 21.8741 23.9183 22.1623C23.8414 22.4505 23.6124 22.6717 23.3241 22.7364C22.9148 22.8284 22.5053 22.5828 22.3891 22.1758C22.2728 21.7687 22.4899 21.3405 22.8848 21.198ZM23.3224 22.2765C23.4417 22.2141 23.5184 22.0918 23.5234 21.9563C23.5284 21.8209 23.4608 21.6931 23.3465 21.6221C23.2322 21.551 23.0889 21.5476 22.9715 21.6131C22.7932 21.7126 22.7271 21.9383 22.8231 22.1197C22.9191 22.3012 23.1416 22.371 23.3224 22.2765Z" fill="#0067B3"/>
<path d="M16.8881 60.933C17.1131 60.8225 17.38 60.846 17.5827 60.9941C17.7855 61.1423 17.8912 61.3911 17.8577 61.6416C17.8243 61.8921 17.6572 62.1037 17.4229 62.1924C17.0834 62.3208 16.704 62.1571 16.5611 61.8205C16.4181 61.4839 16.5621 61.0932 16.8881 60.933Z" fill="#0067B3"/>
<path d="M16.9623 63.2957C17.3027 63.173 17.6779 63.3464 17.8089 63.6868C17.9397 64.0272 17.7786 64.411 17.4455 64.5527C17.2217 64.6479 16.9643 64.6127 16.7734 64.4607C16.5827 64.3088 16.4886 64.0642 16.5278 63.822C16.5671 63.5797 16.7335 63.3782 16.9623 63.2957Z" fill="#0067B3"/>
<path d="M16.3454 34.9315C16.6671 34.7582 17.0668 34.8781 17.2428 35.2007C17.4187 35.5232 17.3056 35.9288 16.9889 36.1111C16.78 36.2313 16.5233 36.2285 16.317 36.104C16.1106 35.9793 15.9867 35.7521 15.9926 35.5093C15.9985 35.2665 16.1333 35.0457 16.3454 34.9315Z" fill="#0067B3"/>
<path d="M14.0541 14.667C14.2721 14.6082 14.5045 14.6747 14.6597 14.84C14.8151 15.0054 14.8684 15.2434 14.7989 15.4603C14.7293 15.6772 14.548 15.8383 14.3263 15.8802C14.0007 15.9419 13.6852 15.7324 13.612 15.406C13.5388 15.0796 13.7341 14.7532 14.0541 14.667Z" fill="#0067B3"/>
<path d="M16.5179 41.5815C16.7255 41.4971 16.9621 41.5337 17.1352 41.677C17.3084 41.8203 17.3904 42.0475 17.3494 42.2698C17.3084 42.4921 17.1507 42.6741 16.9381 42.7447C16.6238 42.849 16.2843 42.6826 16.1708 42.3686C16.0573 42.0546 16.211 41.7063 16.5179 41.5815Z" fill="#0067B3"/>
<path d="M38.1028 40.9739C38.4274 40.8862 38.7609 41.0808 38.8482 41.4086C38.9353 41.7365 38.7433 42.0738 38.4189 42.1624C38.0939 42.2511 37.7593 42.0566 37.672 41.7281C37.5846 41.3995 37.7775 41.0618 38.1028 40.9739Z" fill="#0067B3"/>
<path d="M16.5811 39.6442C16.8841 39.5554 17.2036 39.7179 17.3136 40.0167C17.4236 40.3155 17.2868 40.6493 17.0001 40.7822C16.7947 40.8774 16.5539 40.8485 16.3764 40.7074C16.1988 40.5662 16.1143 40.3367 16.1575 40.1126C16.2006 39.8885 16.3641 39.7077 16.5811 39.6442Z" fill="#0067B3"/>
<path d="M14.0054 16.6144C14.3091 16.4997 14.6482 16.6486 14.7724 16.9513C14.8966 17.254 14.7613 17.6016 14.4663 17.7377C14.266 17.83 14.0318 17.8047 13.8555 17.6713C13.6792 17.538 13.589 17.3182 13.6202 17.098C13.6515 16.8778 13.7991 16.6924 14.0054 16.6144Z" fill="#0067B3"/>
<path d="M38.0375 39.0931C38.3402 38.9713 38.6836 39.1171 38.8093 39.4209C38.9349 39.7246 38.7963 40.0741 38.4979 40.2061C38.3003 40.2935 38.0714 40.2664 37.8992 40.1353C37.7269 40.0042 37.6381 39.7893 37.6668 39.5733C37.6954 39.3573 37.8371 39.1737 38.0375 39.0931Z" fill="#0067B3"/>
<path d="M18.0524 34.938C18.3694 34.8739 18.6787 35.0783 18.7477 35.3974C18.8168 35.7166 18.6201 36.0327 18.3055 36.1082C18.097 36.1582 17.878 36.0906 17.7327 35.9314C17.5875 35.7722 17.5385 35.5461 17.6048 35.3402C17.6711 35.1342 17.8422 34.9805 18.0524 34.938Z" fill="#0067B3"/>
<path d="M41.0503 20.3802C41.2279 20.3843 41.2749 20.3793 41.4402 20.4561C41.662 20.8171 41.5549 22.0136 41.5549 22.5027C41.3851 22.5123 41.3093 22.5356 41.1692 22.443C40.9586 22.0879 41.0532 20.8481 41.0503 20.3802Z" fill="#0067B3"/>
<path d="M51.5469 20.3744C51.7189 20.3819 51.7776 20.3761 51.9362 20.4582C52.1568 20.8132 52.0526 21.9863 52.0519 22.4807C51.8825 22.4981 51.8132 22.5228 51.6643 22.4422C51.4511 22.0875 51.5484 20.8411 51.5469 20.3744Z" fill="#0067B3"/>
<path d="M57.2622 24.0303C57.4161 24.0372 57.4505 24.0526 57.5963 24.105C57.8604 24.4549 57.7526 25.6519 57.746 26.1777C57.5901 26.1983 57.5148 26.2217 57.3706 26.1501C57.1559 25.7743 57.2558 24.5609 57.2622 24.0303Z" fill="#0067B3"/>
<path d="M58.4478 31.8149L58.7767 31.8375L58.8367 31.9142C58.869 32.3213 58.909 33.7027 58.7778 34.0427C58.7068 34.0154 58.5031 33.9258 58.4754 33.8675C58.294 33.4873 58.3144 32.184 58.4478 31.8149Z" fill="#0067B3"/>
<path d="M57.2621 35.9754C57.4398 35.985 57.479 35.9796 57.6231 36.081C57.8774 36.5084 57.7554 37.5939 57.7132 38.1102C57.5653 38.1288 57.545 38.1281 57.4 38.0935C57.1586 37.714 57.257 36.5127 57.2621 35.9754Z" fill="#0067B3"/>
<path d="M58.7325 24.0254C58.8526 24.0459 58.9375 24.081 59.0515 24.1221C59.289 24.4534 59.1844 25.7405 59.1763 26.2369C58.941 26.1927 58.9531 26.2332 58.8074 26.0886C58.6041 25.5393 58.7018 24.6323 58.7325 24.0254Z" fill="#0067B3"/>
<path d="M52.765 27.776L53.0016 27.8427C53.1932 28.1542 53.1618 29.71 52.9132 30.0512L52.7486 29.9375C52.5598 29.6372 52.5413 28.0777 52.765 27.776Z" fill="#0067B3"/>
<path d="M55.8433 24.0228C55.9049 24.0323 56.132 24.0567 56.1481 24.0846C56.3617 24.4556 56.2533 25.8315 56.2404 26.2635C56.0879 26.2243 56.0478 26.2068 55.9068 26.1357C55.6966 25.739 55.7709 24.4761 55.8433 24.0228Z" fill="#0067B3"/>
<path d="M56.0429 20.3494C56.1646 20.364 56.2383 20.3876 56.3565 20.4209C56.552 20.7616 56.5153 22.2111 56.3564 22.5792L56.1033 22.4588C55.9019 22.0873 55.9815 20.785 56.0429 20.3494Z" fill="#0067B3"/>
<path d="M55.8408 35.9588C55.9394 35.9723 56.0545 36.0029 56.1533 36.0264C56.3693 36.341 56.2456 37.7301 56.2259 38.1658C56.0731 38.1391 56.0472 38.1267 55.908 38.0567C55.6873 37.6437 55.7843 36.4369 55.8408 35.9588Z" fill="#0067B3"/>
<path d="M43.9631 35.9559C44.191 35.9986 44.2527 35.9637 44.3605 36.111C44.3931 36.5354 44.4299 37.8284 44.2789 38.198L44.0226 38.0696C43.8307 37.7004 43.8994 36.3855 43.9631 35.9559Z" fill="#0067B3"/>
<path d="M50.9487 31.7897C51.1009 31.8031 51.1261 31.8171 51.2656 31.882C51.5414 32.3481 51.4108 33.3907 51.3777 33.941C51.2265 33.9692 51.2156 33.9781 51.0806 33.9182C50.866 33.5276 50.9455 32.3252 50.9487 31.7897Z" fill="#0067B3"/>
<path d="M48.3806 35.9495C48.5445 35.9773 48.5651 35.9853 48.7085 36.0703C48.9496 36.5045 48.8407 37.5756 48.8185 38.1072C48.6699 38.1184 48.6454 38.1104 48.5012 38.0703C48.2978 37.7354 48.3796 36.4307 48.3806 35.9495Z" fill="#0067B3"/>
<path d="M45.5601 23.9617C45.9227 24.1966 45.8641 25.9948 45.6349 26.2716L45.4793 26.1659C45.3023 25.8601 45.2902 24.2824 45.5601 23.9617Z" fill="#0067B3"/>
<path d="M32.6349 4.37836H33.9116C34.1924 4.49209 37.2421 4.58582 37.8377 4.65019C44.8784 5.41116 51.8856 7.84439 57.0356 12.9217C57.9006 13.7744 58.6562 14.4363 59.435 15.3974C57.6095 18.0909 56.2032 19.5566 52.7867 19.5102C47.9021 19.4439 42.9622 19.5993 38.075 19.4941C37.8854 20.5538 37.3463 23.0841 37.0255 24.0664C37.6535 24.0786 38.3373 24.0629 38.9697 24.0602C40.8895 21.9435 42.2911 25.6934 39.8876 25.7118C39.4965 25.7147 39.1359 25.2128 38.9306 24.9001L36.8323 24.9019C36.7045 25.7034 36.5257 26.4959 36.2969 27.2741C39.5676 27.2274 42.8726 27.3014 46.1419 27.2679C47.348 27.2556 49.6501 27.3452 50.7571 27.2133C50.1581 29.3956 49.6571 32.0661 49.1175 34.3234C48.2605 34.2246 46.2451 34.2764 45.3089 34.2769L38.1325 34.2814C37.3559 34.2819 35.3912 34.3268 34.7376 34.2172L33.8482 38.1872C33.6848 38.9057 33.4839 39.8898 33.2564 40.5645C33.9779 40.5054 35.027 40.53 35.7742 40.5274C35.703 39.251 35.747 37.5932 35.7247 36.2761C36.3366 36.3736 37.8627 36.3299 38.5521 36.3227C39.0068 35.7131 39.8476 35.1556 40.4964 35.9308C41.218 36.7929 40.5953 38.071 39.4095 37.7885C38.947 37.6783 38.8508 37.4837 38.5862 37.1117L36.6007 37.1061C36.6094 38.1615 36.5539 40.4381 36.653 41.4001C35.5345 41.3194 34.2468 41.3846 33.0941 41.3436C32.9278 42.3153 32.3532 44.9367 32.0591 45.8423L51.8865 45.832C51.4308 48.1694 50.5635 51.1367 50.207 53.4063C45.4671 53.3242 40.5696 53.3845 35.821 53.3845L11.5005 53.3726C11.0085 54.1519 10.0606 54.5228 9.50509 53.6076C9.31972 53.3027 9.2638 52.9351 9.34994 52.5881C9.6114 51.56 10.9175 51.5588 11.4927 52.5704C13.5484 52.4477 16.7765 52.5426 18.8899 52.5534C19.0571 51.9071 19.2392 51.2649 19.4359 50.6272C17.5206 50.6007 15.5638 50.6193 13.6452 50.6172C13.2922 51.0702 12.6326 51.7018 12.1462 51.2081C11.1155 50.1621 12.0697 48.4106 13.5751 49.8078C15.604 49.7956 17.6329 49.7979 19.6617 49.8147C19.7447 49.3411 19.9818 48.5728 20.1155 48.0887C18.7438 48.0518 17.3203 48.0715 15.9447 48.0724C15.4474 48.4327 14.6005 48.7938 14.3935 47.9078C14.3402 47.6733 14.3818 47.4269 14.5092 47.2236C14.6196 47.0492 14.7975 46.9295 14.9993 46.8939C15.375 46.8283 15.6222 47.0291 15.9099 47.2354C17.3235 47.2432 18.9487 47.1921 20.3403 47.2737C20.7959 45.336 21.6101 42.3859 22.1927 40.481L19.4298 40.4437C19.4826 41.7449 19.4423 43.3697 19.4455 44.6955C18.4931 44.6846 17.5192 44.6839 16.5698 44.6375C15.7397 46.0531 14.1517 45.3518 14.3941 44.1072C14.4602 43.7671 14.6598 43.4686 14.9474 43.2796C15.5741 42.8757 16.1894 43.2713 16.537 43.838C17.224 43.836 17.9111 43.8409 18.598 43.8527C18.5105 43.0127 18.5574 40.6003 18.5486 39.6238C19.79 39.6435 21.1926 39.5804 22.416 39.6634C22.5394 39.0881 22.7434 38.3932 22.8965 37.8157L15.9111 37.8065C14.6016 39.7137 12.7297 37.4737 14.3928 36.3448C14.9873 35.9412 15.6172 36.4319 15.933 37.0078C17.5576 36.9526 19.2213 37.0192 20.8495 36.9913C21.5812 36.9788 22.3908 36.974 23.1152 37.0299C23.342 35.977 23.5824 34.9272 23.8365 33.8808C20.5431 33.7048 17.042 33.9725 13.7281 33.851C13.3617 33.8522 12.1738 34.3849 11.8895 34.1043C10.9751 33.2021 11.9915 32.1112 13.1236 33.0247C16.7384 33.0361 20.4278 32.9881 24.0347 33.0438C24.2078 32.1011 24.7562 29.6701 25.0182 28.8001L20.5203 28.8054C20.5691 29.7576 20.538 31.0083 20.5426 31.9836C19.6154 31.9441 18.6285 31.9756 17.6806 31.9421C17.4226 32.3235 16.9437 32.9062 16.4389 32.7522C14.2715 32.0904 16.187 28.983 17.7071 31.2154C18.3249 31.1795 19.0865 31.208 19.7151 31.2153C19.6258 30.3389 19.6784 28.951 19.6495 27.988C21.4059 28.0356 23.4798 27.8989 25.1971 28.0196C25.2506 27.6102 25.3083 27.3177 25.3987 26.9148L19.779 26.9047C18.7127 26.9036 17.6437 26.8909 16.5782 26.9264C16.1052 26.9422 15.9208 27.8014 15.3627 27.7804C14.3299 27.7416 13.7009 26.5395 14.5282 25.7635C14.7545 25.5493 15.0587 25.4395 15.3681 25.4605C15.8435 25.4906 16.08 25.7532 16.3732 26.0787C19.4089 26.0755 22.6069 26.0233 25.6296 26.0898C25.7257 25.3548 26.2507 23.2581 26.4433 22.4428C26.8818 20.5871 27.2848 18.5122 27.7719 16.6896C27.4915 16.7009 27.179 16.7029 26.8977 16.6964C25.0005 16.6532 23.0365 16.7762 21.1458 16.6747C20.7864 18.1668 20.3084 19.7591 19.9071 21.2554C21.173 23.1325 18.7046 23.9793 18.0241 22.5605C17.7103 21.9062 18.3581 21.2092 19.0601 20.9696C19.5586 19.4956 20.0892 17.3773 20.5235 15.8292C21.165 15.8947 22.2197 15.8515 22.8917 15.8587C24.5815 15.8769 26.2896 15.8251 27.9796 15.8778C28.0238 15.4543 28.0667 15.2788 28.1808 14.8675C26.6246 14.794 24.6885 14.8321 23.1183 14.8554C21.017 16.3942 21.1004 12.5494 23.0826 14.0083C24.8386 14.0438 26.6257 14.0038 28.3907 14.0262C28.4295 13.743 28.5158 13.3985 28.5788 13.1147C25.1038 13.0294 21.2059 13.1011 17.7178 13.1158C15.1614 14.9691 15.4597 10.0381 17.7226 12.0078L39.2142 12.0156L44.5403 12.015C45.7665 12.0147 47.2412 12.0928 48.424 11.8564C48.7791 11.7855 48.9919 11.5783 49.1797 11.276C49.229 10.6287 47.6124 9.99339 47.094 9.74612C43.916 8.23024 40.5685 7.04664 37.0985 6.44107C32.4533 5.63039 27.6574 6.43923 23.1277 7.54176C22.0856 7.79727 20.4322 8.24762 19.4599 8.66061C18.2819 9.16096 16.7187 10.1372 15.6872 10.8993C14.3788 11.866 12.6673 13.2253 11.5876 14.4249C8.58981 17.7553 7.44819 22.441 7.25717 26.8393C7.17943 28.6292 7.15119 31.1477 7.57471 32.9255C8.12301 35.2271 10.2166 37.9477 9.88124 40.3794C9.6996 41.4072 9.19053 42.1748 8.33626 42.7524C7.9424 43.0188 6.34153 43.8883 6.0158 43.3589C6.25257 43.1826 6.4293 43.1608 6.62525 43.0311C7.74484 42.2902 8.53792 41.5769 8.89546 40.2722C8.47391 38.5078 7.33181 37.3494 6.6013 35.7896C3.90865 30.0403 3.24122 22.5546 6.54497 16.9412C11.2514 8.9444 20.6754 5.31528 29.4555 4.57356C30.2419 4.50714 31.9747 4.57837 32.6349 4.37836ZM18.9732 21.4828C18.7355 21.5457 18.55 21.7334 18.4882 21.9737C18.4265 22.214 18.4981 22.4692 18.6755 22.641C18.8528 22.8127 19.1082 22.8742 19.3432 22.8016C19.6963 22.6926 19.8984 22.3181 19.7976 21.9591C19.6969 21.6001 19.3305 21.3885 18.9732 21.4828ZM10.5547 53.6328C10.9058 53.5611 11.1407 53.2253 11.0903 52.8669C11.0399 52.5086 10.7217 52.2522 10.3648 52.2821C10.1146 52.3031 9.89652 52.4623 9.79832 52.6958C9.70012 52.9292 9.73797 53.1984 9.89663 53.395C10.0553 53.5915 10.3087 53.6831 10.5547 53.6328ZM39.8584 37.3644C40.2091 37.2716 40.4246 36.9154 40.3462 36.5577C40.2679 36.2 39.9238 35.9689 39.5671 36.0343C39.3239 36.0789 39.1243 36.2543 39.0468 36.4915C38.9694 36.7287 39.0266 36.9897 39.1959 37.1717C39.3651 37.3537 39.6193 37.4277 39.8584 37.3644ZM16.6607 32.2635C17.0317 32.218 17.2948 31.8756 17.2465 31.5012C17.1983 31.1267 16.8572 30.8638 16.4871 30.9158C16.1213 30.967 15.8649 31.3067 15.9126 31.6766C15.9602 32.0466 16.2942 32.3086 16.6607 32.2635ZM15.5007 27.2275C15.8539 27.12 16.0555 26.7452 15.9527 26.3873C15.8498 26.0294 15.4809 25.822 15.1257 25.9223C14.7654 26.0241 14.5566 26.4033 14.6609 26.7663C14.7652 27.1293 15.1425 27.3365 15.5007 27.2275ZM12.6376 49.7749C12.3476 49.7874 12.1223 50.0347 12.1338 50.3278C12.1454 50.6209 12.3895 50.8493 12.6796 50.8386C12.971 50.8277 13.1982 50.5799 13.1866 50.2854C13.175 49.9911 12.9289 49.7623 12.6376 49.7749ZM39.8857 23.9112C39.5386 24.0014 39.3236 24.3521 39.3982 24.7063C39.4726 25.0606 39.8103 25.2925 40.1637 25.2323C40.4061 25.1909 40.6065 25.0187 40.6858 24.7837C40.765 24.5486 40.7103 24.2885 40.5433 24.1064C40.3762 23.9242 40.1238 23.8492 39.8857 23.9112ZM15.2676 43.6604C15.0346 43.7441 14.8659 43.95 14.8282 44.1969C14.7905 44.4437 14.8899 44.6916 15.0871 44.8423C15.2842 44.9929 15.5473 45.0221 15.7721 44.9183C16.0994 44.7671 16.2508 44.3824 16.1156 44.0453C15.9805 43.7084 15.6067 43.5388 15.2676 43.6604ZM16.6364 12.0499C16.4588 12.1245 16.3352 12.2907 16.3138 12.4838C16.2925 12.6771 16.3766 12.8667 16.5336 12.9791C16.6906 13.0914 16.8956 13.1087 17.0689 13.0243C17.3266 12.8986 17.4386 12.5885 17.3215 12.3247C17.2044 12.0608 16.9008 11.939 16.6364 12.0499ZM14.6986 36.7245C14.3411 36.8121 14.1197 37.1735 14.2016 37.5358C14.2835 37.8981 14.6383 38.1265 14.9978 38.0486C15.2347 37.9972 15.4259 37.821 15.4983 37.5875C15.5706 37.3539 15.513 37.099 15.3474 36.9204C15.1819 36.7417 14.9339 36.6669 14.6986 36.7245Z" fill="#0067B3"/>
<path d="M18.9732 21.4829C19.3305 21.3885 19.6969 21.6002 19.7976 21.9592C19.8984 22.3182 19.6964 22.6926 19.3432 22.8017C19.1083 22.8742 18.8528 22.8128 18.6755 22.641C18.4982 22.4692 18.4266 22.214 18.4883 21.9738C18.5501 21.7335 18.7356 21.5457 18.9732 21.4829Z" fill="#0067B3"/>
<path d="M18.9883 21.7511C19.1362 21.6974 19.3011 21.7283 19.4201 21.8319C19.539 21.9356 19.5935 22.0959 19.5626 22.2516C19.5318 22.4072 19.4203 22.5339 19.271 22.5832C19.0448 22.6579 18.8012 22.5353 18.724 22.3079C18.6467 22.0805 18.7645 21.8326 18.9883 21.7511Z" fill="#0067B3"/>
<path d="M10.3648 52.2821C10.7218 52.2522 11.0399 52.5087 11.0903 52.867C11.1407 53.2253 10.9058 53.5611 10.5547 53.6328C10.3087 53.6831 10.0553 53.5916 9.89666 53.395C9.73799 53.1984 9.70014 52.9293 9.79835 52.6958C9.89654 52.4624 10.1146 52.3031 10.3648 52.2821Z" fill="#0067B3"/>
<path d="M10.1716 52.617C10.3048 52.526 10.4766 52.5158 10.6194 52.5904C10.7623 52.6651 10.8533 52.8126 10.8567 52.975C10.8602 53.1375 10.7754 53.2888 10.6359 53.3696C10.431 53.4881 10.1699 53.4217 10.045 53.2192C9.92012 53.0168 9.97605 52.7507 10.1716 52.617Z" fill="#0067B3"/>
<path d="M39.5671 36.0344C39.9238 35.969 40.2679 36.2001 40.3462 36.5578C40.4246 36.9154 40.2091 37.2717 39.8584 37.3645C39.6193 37.4277 39.3651 37.3538 39.1959 37.1717C39.0266 36.9897 38.9694 36.7287 39.0468 36.4915C39.1243 36.2544 39.3239 36.079 39.5671 36.0344Z" fill="#0067B3"/>
<path d="M39.4698 36.3187C39.6822 36.2081 39.9431 36.2925 40.0526 36.5071C40.162 36.7218 40.0784 36.9854 39.866 37.096C39.6535 37.2065 39.3927 37.1221 39.2833 36.9075C39.1739 36.6929 39.2574 36.4292 39.4698 36.3187Z" fill="#0067B3"/>
<path d="M16.487 30.9158C16.8572 30.8638 17.1983 31.1267 17.2465 31.5012C17.2948 31.8756 17.0317 32.218 16.6607 32.2636C16.2942 32.3086 15.9602 32.0466 15.9126 31.6766C15.8649 31.3067 16.1213 30.967 16.487 30.9158Z" fill="#0067B3"/>
<path d="M16.3875 31.1884C16.5902 31.0874 16.8355 31.1596 16.953 31.3546C17.0704 31.5496 17.0211 31.8029 16.8393 31.9385C16.7064 32.0374 16.5296 32.0522 16.3825 31.9765C16.2353 31.9008 16.1431 31.7477 16.1442 31.5808C16.1453 31.414 16.2395 31.2621 16.3875 31.1884Z" fill="#0067B3"/>
<path d="M15.1257 25.9223C15.4809 25.822 15.8498 26.0294 15.9527 26.3873C16.0555 26.7452 15.8539 27.12 15.5007 27.2275C15.1425 27.3365 14.7652 27.1293 14.6609 26.7663C14.5566 26.4033 14.7654 26.0242 15.1257 25.9223Z" fill="#0067B3"/>
<path d="M15.2226 26.1463C15.436 26.098 15.6523 26.2152 15.7305 26.4216C15.8088 26.628 15.7253 26.8611 15.5345 26.9693C15.3838 27.0547 15.1976 27.0433 15.0582 26.9399C14.9189 26.8367 14.8522 26.6606 14.8875 26.4897C14.9229 26.3188 15.0539 26.1845 15.2226 26.1463Z" fill="#0067B3"/>
<path d="M15.2676 43.6605C15.6067 43.5388 15.9804 43.7085 16.1156 44.0454C16.2507 44.3824 16.0994 44.7671 15.7721 44.9183C15.5473 45.0222 15.2842 44.993 15.087 44.8423C14.8899 44.6916 14.7905 44.4438 14.8282 44.197C14.8659 43.9501 15.0346 43.7441 15.2676 43.6605Z" fill="#0067B3"/>
<path d="M15.3317 43.8831C15.5466 43.7965 15.7911 43.8939 15.8897 44.1054C15.9883 44.3169 15.9069 44.5694 15.704 44.6817C15.5613 44.7606 15.387 44.7531 15.2515 44.6621C15.116 44.5711 15.0416 44.4116 15.0585 44.2481C15.0753 44.0846 15.1805 43.944 15.3317 43.8831Z" fill="#0067B3"/>
<path d="M14.6986 36.7245C14.934 36.6669 15.1819 36.7417 15.3475 36.9204C15.5131 37.099 15.5707 37.3539 15.4983 37.5875C15.426 37.821 15.2348 37.9971 14.9979 38.0485C14.6384 38.1265 14.2835 37.898 14.2016 37.5358C14.1198 37.1735 14.3412 36.812 14.6986 36.7245Z" fill="#0067B3"/>
<path d="M14.7676 36.9508C14.9272 36.9231 15.0891 36.9862 15.1889 37.115C15.2888 37.2439 15.3105 37.4178 15.2454 37.5677C15.1804 37.7176 15.0392 37.8193 14.8777 37.8325C14.6431 37.8516 14.4351 37.6808 14.4056 37.4448C14.3762 37.2089 14.5356 36.9912 14.7676 36.9508Z" fill="#0067B3"/>
<path d="M39.8857 23.9112C40.1238 23.8493 40.3762 23.9242 40.5433 24.1064C40.7103 24.2886 40.765 24.5486 40.6858 24.7837C40.6065 25.0188 40.4061 25.191 40.1638 25.2323C39.8103 25.2925 39.4727 25.0606 39.3982 24.7063C39.3236 24.3521 39.5386 24.0014 39.8857 23.9112Z" fill="#0067B3"/>
<path d="M39.9547 24.1357C40.1851 24.0868 40.4115 24.2348 40.4618 24.4673C40.5121 24.6997 40.3676 24.9297 40.138 24.9825C39.9055 25.036 39.6746 24.8878 39.6236 24.6525C39.5728 24.4172 39.7214 24.1851 39.9547 24.1357Z" fill="#0067B3"/>
<path d="M60.5109 16.6509C62.4599 18.4614 63.3987 21.2357 63.5349 23.8324C63.6995 26.806 62.5234 29.5038 61.5757 32.2425C61.2817 33.0924 61.5025 33.4778 61.8053 34.2303C62.5114 35.9856 65.5773 38.7503 66 40.3509C65.7435 41.1988 65.453 41.5305 64.6804 41.9936C63.0463 42.9731 60.2417 42.0957 59.542 44.2451C59.0104 45.8786 60.2927 46.6302 60.1065 47.98C59.8473 49.4111 57.9449 50.1147 57.5641 51.4272C57.26 52.6406 57.2184 54.0132 57.3091 55.2343C57.3944 56.3827 57.938 58.3188 57.0651 59.2491C52.2395 64.3931 44.9784 56.0899 39.6118 56.7975C37.4388 57.0841 34.5622 61.2127 35.933 63.211C36.7671 64.4782 37.3661 64.7987 38.5325 65.6217H29.5438C30.5359 62.234 32.8794 56.9869 36.0494 55.2335C39.3732 53.3951 44.6331 56.4218 47.7566 57.7534C49.4753 58.4862 52.4376 60.3931 54.2525 59.4073C55.0857 58.9451 55.7004 58.1641 55.9583 57.2397C56.6038 54.9899 55.4555 52.1517 56.7695 50.0658C57.3017 49.221 58.1765 48.7959 58.7676 48.0004C58.78 46.7036 58.5248 44.902 58.7205 43.699C59.1463 41.082 63.2292 42.0586 64.8115 40.3757C63.4768 38.5751 60.204 35.042 60.5795 32.686C61.3991 27.5428 64.1308 22.2948 58.772 18.5038C59.5114 17.8275 59.9515 17.4828 60.5109 16.6509Z" fill="#0067B3"/>
</svg>
