<svg width="70" height="70" viewBox="0 0 70 70" fill="none" xmlns="http://www.w3.org/2000/svg">
<g clip-path="url(#clip0_636_7416)">
<path fill-rule="evenodd" clip-rule="evenodd" d="M24.0065 14.2097C22.8625 13.9418 22.0083 12.9134 22.0083 11.6888C22.0083 10.261 23.1694 9.09821 24.5972 9.09821C26.025 9.09821 27.1861 10.2593 27.1861 11.6871C27.1861 12.9117 26.3319 13.9402 25.1878 14.208V16.2827L30.455 21.5499V24.5438H30.7572V26.7766H34.2523V24.5438H34.5544V14.2097C33.4104 13.9419 32.5562 12.9134 32.5562 11.6888C32.5562 10.261 33.7173 9.09988 35.1451 9.09988C36.5728 9.09988 37.734 10.261 37.734 11.6888C37.734 12.9134 36.8798 13.9418 35.7358 14.2097V24.5438H36.0379V26.7766H39.4976V24.5438H39.8351V21.5499L45.1023 16.2827V14.2181C43.9398 13.964 43.0671 12.9266 43.0671 11.6888C43.0671 10.261 44.2282 9.09988 45.6559 9.09988C47.0837 9.09988 48.2448 10.261 48.2448 11.6888C48.2448 12.9001 47.409 13.9195 46.2837 14.2007V16.7721L41.0165 22.0393V24.5438H41.2832V26.9196C42.084 27.1951 42.7125 27.8446 42.9591 28.6583H45.3049V30.4439H43.0721V33.6572H45.3049V35.4428H43.0721V38.656H45.3049V40.4416H42.9585C42.7117 41.2545 42.0834 41.9033 41.2832 42.1786V44.3131H40.981V47.0606L46.2466 52.3262V54.8902C47.3906 55.158 48.2448 56.1865 48.2448 57.4111C48.2448 58.8389 47.0837 60 45.6559 60C44.2282 60 43.0671 58.8389 43.0671 57.4111C43.0671 56.1865 43.9212 55.1581 45.0652 54.8902V52.8156L39.7997 47.5484V44.3131H39.4976V42.3217H36.0379V44.3131H35.7003V54.8902C36.8444 55.158 37.6986 56.1865 37.6986 57.4111C37.6986 58.8389 36.5375 60 35.1097 60C33.6819 60 32.5208 58.8389 32.5208 57.4111C32.5208 56.1865 33.375 55.1581 34.519 54.8902V44.3131H34.2523V42.3217H30.7572V44.3131H30.418V47.5484L25.1524 52.8156V54.8821C26.3142 55.1369 27.1861 56.1739 27.1861 57.4111C27.1861 58.8389 26.025 60 24.5972 60C23.1694 60 22.0083 58.8389 22.0083 57.4111C22.0083 56.1992 22.8449 55.1794 23.9711 54.8987V52.3262L29.2366 47.0606V44.3131H28.9716V42.1662C28.1872 41.8837 27.5732 41.2407 27.3307 40.4382H24.9853V38.6527H27.2181V35.4394H24.9853V33.6538H27.2181V30.4388H24.9853V28.6533H27.3327C27.5766 27.8539 28.1894 27.2138 28.9716 26.9321V24.5438H29.2737V22.0393L24.0065 16.7721V14.2097ZM23.1897 11.6871C23.1897 10.9108 23.8209 10.2796 24.5972 10.2796C25.3735 10.2796 26.0047 10.9108 26.0047 11.6871C26.0047 12.4634 25.3735 13.0946 24.5972 13.0946C23.8209 13.0946 23.1897 12.4634 23.1897 11.6871ZM44.2484 11.6871C44.2484 10.9107 44.8796 10.2796 45.6559 10.2796C46.4323 10.2796 47.0634 10.9107 47.0634 11.6871C47.0634 12.4634 46.4323 13.0946 45.6559 13.0946C44.8796 13.0946 44.2484 12.4634 44.2484 11.6871ZM23.1897 57.4094C23.1897 56.6331 23.8209 56.0019 24.5972 56.0019C25.3735 56.0019 26.0047 56.6331 26.0047 57.4094C26.0047 58.1858 25.3735 58.8169 24.5972 58.8169C23.8209 58.8169 23.1897 58.1858 23.1897 57.4094ZM35.1097 56.0019C34.3334 56.0019 33.7022 56.6331 33.7022 57.4094C33.7022 58.1858 34.3334 58.8169 35.1097 58.8169C35.886 58.8169 36.5172 58.1858 36.5172 57.4094C36.5172 56.6331 35.886 56.0019 35.1097 56.0019ZM44.2484 57.4094C44.2484 56.6331 44.8796 56.0019 45.6559 56.0019C46.4323 56.0019 47.0634 56.6331 47.0634 57.4094C47.0634 58.1858 46.4323 58.8169 45.6559 58.8169C44.8796 58.8169 44.2484 58.1858 44.2484 57.4094ZM35.1451 10.2796C34.3688 10.2796 33.7376 10.9107 33.7376 11.6871C33.7376 12.4634 34.3688 13.0946 35.1451 13.0946C35.9214 13.0946 36.5526 12.4634 36.5526 11.6871C36.5526 10.9107 35.9214 10.2796 35.1451 10.2796ZM29.8661 28.0221C29.0931 28.0221 28.4636 28.6516 28.4636 29.4245V39.6737C28.4636 40.4467 29.0931 41.0762 29.8661 41.0762H40.4241C41.1971 41.0762 41.8266 40.4467 41.8266 39.6737V29.4245C41.8266 28.6516 41.1971 28.0221 40.4241 28.0221H29.8661ZM29.5319 37.019V31.8362C29.5319 30.4726 30.6373 29.3671 32.001 29.3671H38.0226C39.3862 29.3671 40.4916 30.4726 40.4916 31.8362V37.019C40.4916 38.3827 39.3862 39.4881 38.0226 39.4881H32.001C30.6373 39.4881 29.5319 38.3827 29.5319 37.019ZM32.433 36.8097H37.5922V32.0455H32.433V36.8097Z" fill="white"/>
</g>
<defs>
<clipPath id="clip0_636_7416">
<rect width="59.0532" height="50.9018" fill="white" transform="translate(5.47339 9.09821)"/>
</clipPath>
</defs>
</svg>
