<svg width="90" height="90" viewBox="0 0 90 90" fill="none" xmlns="http://www.w3.org/2000/svg">
<path d="M19.768 51V38.607H28.625V40.273H21.689V43.894H27.775V45.458H21.689V49.334H28.625V51H19.768ZM31.3891 51V38.607H33.3101V49.81L32.7831 49.283H39.6341V51H31.3891ZM46.3215 51.17C45.1088 51.17 44.0888 50.9263 43.2615 50.439C42.4455 49.9403 41.8278 49.2263 41.4085 48.297C41.0005 47.3677 40.7965 46.24 40.7965 44.914V44.829C40.7965 43.775 40.9325 42.8513 41.2045 42.058C41.4878 41.2533 41.8901 40.5847 42.4115 40.052C42.9328 39.5193 43.5618 39.1227 44.2985 38.862C45.0351 38.59 45.8511 38.454 46.7465 38.454C47.7551 38.454 48.6505 38.624 49.4325 38.964C50.2145 39.2927 50.8491 39.763 51.3365 40.375C51.8238 40.9757 52.1071 41.6897 52.1865 42.517H50.2145C50.1011 42.007 49.8801 41.5763 49.5515 41.225C49.2341 40.8623 48.8318 40.5903 48.3445 40.409C47.8685 40.2277 47.3301 40.137 46.7295 40.137C45.8681 40.137 45.1485 40.3013 44.5705 40.63C43.9925 40.9473 43.5561 41.395 43.2615 41.973C42.9781 42.5397 42.8365 43.1913 42.8365 43.928V45.73C42.8365 46.3533 42.9215 46.903 43.0915 47.379C43.2728 47.8437 43.5278 48.2403 43.8565 48.569C44.1965 48.8863 44.5988 49.1243 45.0635 49.283C45.5281 49.4417 46.0381 49.521 46.5935 49.521C47.3755 49.521 48.0385 49.3793 48.5825 49.096C49.1265 48.8127 49.5401 48.4103 49.8235 47.889C50.1068 47.3563 50.2485 46.7273 50.2485 46.002V45.288L50.9285 45.968H46.7805V44.54H52.2715V51H50.8265L50.6735 48.569H50.5885C50.4185 49.0903 50.1295 49.5493 49.7215 49.946C49.3135 50.3313 48.8148 50.6317 48.2255 50.847C47.6475 51.0623 47.0128 51.17 46.3215 51.17ZM55.4946 51V38.607H57.4156V51H55.4946ZM60.9565 51V38.607H63.4215L68.9975 47.668L69.2695 48.195H69.3545V38.607H71.2075V51H68.8615L63.1325 41.854L62.8945 41.412H62.8095V51H60.9565Z" fill="white"/>
</svg>
