<svg width="90" height="90" viewBox="0 0 90 90" fill="none" xmlns="http://www.w3.org/2000/svg">
<path fill-rule="evenodd" clip-rule="evenodd" d="M55.7872 55.0401C54.7931 55.0401 50.1549 54.9164 49.1593 54.8749C46.8398 54.7533 43.7744 52.9059 43.7744 50.364C43.7744 45.5212 51.6447 44.6201 54.9998 44.6201C55.248 44.6201 55.7872 44.5786 55.7872 45.0299V55.0401ZM34.7455 49.9449C34.7455 49.8219 34.7877 49.2468 34.7877 49.1245C36.1645 48.9557 37.9754 48.7547 39.8786 48.4007C39.6934 48.9993 39.5925 49.6516 39.5925 50.364C39.5925 52.2908 40.2777 53.757 41.372 54.8699C38.0126 54.5144 34.7455 53.3794 34.7455 49.9449ZM34.3728 45.429V35.4152C35.3677 35.4152 40.0066 35.5382 41.0022 35.5797C43.3224 35.7034 46.3885 37.5501 46.3885 40.0934C46.3885 44.9376 38.5161 45.8402 35.161 45.8402C34.9121 45.8402 34.3728 45.8817 34.3728 45.429ZM55.4153 40.5161C55.4153 40.6399 55.3724 41.2142 55.3724 41.3365C53.9963 41.5053 52.1861 41.7063 50.2836 42.0603C50.4703 41.4602 50.5718 40.8072 50.5718 40.0934C50.5718 38.1716 49.8902 36.7083 48.801 35.5947C52.1553 35.9516 55.4153 37.0881 55.4153 40.5161ZM47.0887 32.2696C46.5695 32.2696 40.0331 32.2689 38.2779 32.2689C37.9475 32.2589 37.6249 32.2539 37.3138 32.2539C36.2374 32.2539 33.3358 32.2961 33.1284 32.2961C32.3831 32.3383 30.6437 32.6251 30.6437 32.7052V50.7638C30.6437 57.1285 38.4732 58.1956 43.0728 58.1956H52.2927C52.2934 58.1956 52.2934 58.1949 52.2941 58.1942C52.4815 58.1971 52.6653 58.1992 52.8462 58.1992C53.9219 58.1992 56.8229 58.157 57.031 58.157C57.7755 58.1155 59.515 57.828 59.515 57.7479V39.6972C59.515 33.3353 51.6883 32.2696 47.0887 32.2696Z" fill="white"/>
<path fill-rule="evenodd" clip-rule="evenodd" d="M63.2535 36.7184C70.2755 49.7776 60.1222 70.4696 60.1222 70.4696C73.4139 55.1768 73.8788 39.5049 69.9029 32.1911C66.2631 25.4959 57.1913 22.1787 50.401 22.1787C46.0767 22.1787 42.3912 22.7881 33.2493 25.3135C33.2493 25.3135 40.0682 24.815 45.3222 25.5782C52.9192 26.681 59.4049 29.5612 63.2535 36.7184Z" fill="#A4312A"/>
<path fill-rule="evenodd" clip-rule="evenodd" d="M26.8352 53.7519C19.8124 40.6935 29.9664 20 29.9664 20C16.6748 35.2935 16.2099 50.9654 20.1858 58.2793C23.8255 64.9737 32.8974 68.2916 39.6877 68.2916C44.0119 68.2916 47.6974 67.6816 56.8394 65.1568C56.8394 65.1568 50.0205 65.6546 44.7664 64.8922C37.1694 63.7901 30.6838 60.9092 26.8352 53.7519Z" fill="#A4312A"/>
</svg>
