<svg width="70" height="70" viewBox="0 0 70 70" fill="none" xmlns="http://www.w3.org/2000/svg">
<path d="M42.558 22.7997H42.4863C42.4638 22.7959 42.4408 22.7959 42.4183 22.7997C42.3956 22.8025 42.3736 22.8098 42.3538 22.8212C42.3336 22.8298 42.3143 22.8406 42.2965 22.8534L39.073 25.0633H30.4125L27.189 22.8534C27.1711 22.8406 27.1519 22.8298 27.1317 22.8212L27.0672 22.7997C27.0447 22.7963 27.0217 22.7963 26.9992 22.7997H26.9275H26.8523C26.8285 22.7966 26.8045 22.7966 26.7807 22.7997C26.7571 22.8036 26.7342 22.8108 26.7126 22.8212L26.6482 22.8534L22.386 25.3857C22.349 25.4085 22.3163 25.4376 22.2893 25.4716C22.2659 25.4995 22.2499 25.5327 22.2427 25.5683C22.234 25.6012 22.234 25.6357 22.2427 25.6686C22.2567 25.7022 22.2804 25.7309 22.3107 25.751L25.9999 28.5017C26.0185 28.5153 26.039 28.5261 26.0608 28.5339L26.1288 28.5626H26.204H26.358H26.4368L26.5121 28.5339L26.5801 28.5017L30.3588 26.102H39.1267L42.8946 28.5232C42.9162 28.5361 42.939 28.5469 42.9627 28.5554L43.0379 28.5841H43.1131H43.2707H43.3459L43.414 28.5554C43.4354 28.5469 43.4558 28.5361 43.4749 28.5232L47.1533 25.7725C47.1846 25.7515 47.2104 25.7232 47.2285 25.6901C47.2355 25.657 47.2355 25.6229 47.2285 25.5898C47.2268 25.5502 47.2144 25.5119 47.1926 25.4788C47.1648 25.4442 47.1308 25.415 47.0924 25.3928L42.8302 22.8606L42.7657 22.8283C42.7442 22.818 42.7212 22.8107 42.6976 22.8069C42.6727 22.8035 42.6474 22.8035 42.6224 22.8069H42.5508" fill="white"/>
<path d="M43.8688 34.3829H43.7828L43.704 34.4044L43.6288 34.4331L43.5643 34.4725L39.8286 37.4811H29.7211L25.9783 34.4725L25.9138 34.4331L25.8386 34.4044L25.7598 34.3829H25.5915L25.5091 34.4044L25.4303 34.4331C25.4041 34.4441 25.379 34.4572 25.3551 34.4725L20.33 37.9252C20.2828 37.9558 20.2415 37.9946 20.2082 38.0398C20.1811 38.081 20.1628 38.1274 20.1545 38.1759C20.142 38.2192 20.142 38.2652 20.1545 38.3085C20.1713 38.3543 20.1997 38.395 20.2369 38.4266L24.4847 42.2161C24.5059 42.2348 24.5286 42.2515 24.5528 42.2662L24.6352 42.302L24.7211 42.3235H24.8142H24.9074L24.9862 42.3128C25.0157 42.303 25.0444 42.291 25.0721 42.277L25.1545 42.2268L29.6423 38.8744H39.9146L44.3988 42.2161C44.4237 42.2348 44.4501 42.2516 44.4776 42.2662L44.5672 42.302L44.6603 42.3235H44.7534H44.8466L44.9325 42.302C44.96 42.293 44.9864 42.281 45.0113 42.2662C45.0371 42.2525 45.0612 42.2356 45.0829 42.2161L49.3236 38.4266C49.3608 38.395 49.3892 38.3543 49.406 38.3085C49.4166 38.2649 49.4166 38.2195 49.406 38.1759C49.3953 38.1275 49.3759 38.0813 49.3487 38.0398C49.3177 37.9939 49.2774 37.9548 49.2305 37.9252L44.1839 34.4761L44.1087 34.4367L44.0299 34.408L43.9475 34.3865H43.8616" fill="white"/>
<path d="M34.7928 41.7252H34.7033C34.6726 41.7285 34.6425 41.7357 34.6137 41.7467L34.5314 41.7825C34.5047 41.7967 34.4795 41.8135 34.4561 41.8327L29.363 45.9301C29.3159 45.9686 29.2769 46.0161 29.2484 46.0698C29.2204 46.1184 29.2042 46.1729 29.2011 46.2288C29.1979 46.2848 29.208 46.3408 29.2305 46.3922C29.2535 46.4454 29.2877 46.493 29.3308 46.5318L34.4347 51.0806C34.4597 51.104 34.4873 51.1244 34.517 51.1414C34.5463 51.1594 34.5775 51.1738 34.6102 51.1844C34.6413 51.1965 34.6738 51.205 34.7069 51.2095C34.7402 51.213 34.7738 51.213 34.8072 51.2095C34.8753 51.2069 34.9428 51.1948 35.0077 51.1737C35.0392 51.163 35.0693 51.1486 35.0973 51.1307C35.127 51.1137 35.1546 51.0932 35.1796 51.0698L40.2728 46.5211C40.3158 46.4823 40.35 46.4346 40.3731 46.3814C40.3954 46.3306 40.4069 46.2757 40.4069 46.2202C40.4069 46.1647 40.3954 46.1099 40.3731 46.0591C40.342 46.006 40.302 45.9588 40.2549 45.9194L35.151 41.8219C35.1288 41.8012 35.1034 41.7842 35.0758 41.7718L34.9934 41.736C34.9646 41.725 34.9345 41.7178 34.9039 41.7145H34.8107" fill="white"/>
<path d="M35.7312 27.7566C35.4034 27.7566 35.0758 27.7734 34.7498 27.8068C34.4423 27.8345 34.1371 27.8836 33.8365 27.9536C33.2487 28.0837 32.6854 28.3061 32.1674 28.6127C31.9414 28.7458 31.7248 28.8941 31.5191 29.0568C31.3138 29.2187 31.1188 29.3934 30.9353 29.5797C30.7559 29.7649 30.5895 29.9624 30.4374 30.1707C30.2854 30.3743 30.15 30.5899 30.0327 30.8154L21.3185 30.7545L18.1881 28.2473L18.1308 28.2115L18.0663 28.1864H17.9947H17.9159H17.8371H17.7583L17.6795 28.2115L17.6079 28.2473L12.6688 31.1843C12.6238 31.2121 12.5829 31.2458 12.547 31.2846C12.5191 31.3183 12.4984 31.3573 12.4861 31.3992C12.4753 31.4366 12.4753 31.4764 12.4861 31.5138C12.4951 31.5528 12.518 31.5872 12.5506 31.6105L16.1322 34.834C16.1505 34.85 16.171 34.8633 16.1931 34.8734C16.2158 34.8857 16.2398 34.8953 16.2648 34.9021C16.2909 34.9057 16.3174 34.9057 16.3435 34.9021H16.4259H16.5119C16.5404 34.9055 16.5693 34.9055 16.5979 34.9021L16.6802 34.8734L16.759 34.834L21.2397 31.9687L29.628 31.9221L29.6065 32.0403C29.6065 32.0797 29.6065 32.1191 29.5814 32.1585C29.5564 32.1979 29.5814 32.2373 29.5814 32.2803C29.5814 32.3233 29.5814 32.3591 29.5814 32.3985C29.5469 32.7992 29.6185 33.2019 29.7892 33.5661C29.9665 33.9201 30.2363 34.2196 30.57 34.4329C30.9767 34.6869 31.4255 34.8664 31.8952 34.963C32.4835 35.0903 33.0841 35.1516 33.686 35.1456C34.0821 35.1459 34.4779 35.1243 34.8716 35.0812C35.2581 35.0382 35.642 34.9736 36.0213 34.8877C36.4029 34.8007 36.7795 34.6931 37.1495 34.5654C37.5077 34.4293 37.8909 34.2789 38.2598 34.0998C38.4855 33.9923 38.6896 33.8813 38.883 33.7738C39.0764 33.6664 39.2412 33.5661 39.4024 33.4694L39.8358 33.2008C39.9683 33.1184 40.0865 33.0468 40.1939 32.9895C40.3873 32.8856 40.5915 32.7746 40.8207 32.6671C41.0695 32.5484 41.3255 32.4455 41.5872 32.3591C41.9095 32.2561 42.2386 32.1759 42.5722 32.1191C42.9915 32.0479 43.415 32.0036 43.8401 31.9866L48.2706 32.0367L52.7155 34.8842C52.7402 34.9012 52.7666 34.9156 52.7943 34.9271L52.8802 34.9558C52.908 34.9653 52.9369 34.9713 52.9662 34.9737H53.0521H53.1345C53.1615 34.9715 53.188 34.9655 53.2133 34.9558L53.285 34.9271C53.3074 34.9161 53.3279 34.9016 53.3458 34.8842L56.9275 31.6786C56.9571 31.6511 56.9793 31.6166 56.992 31.5783C57.0027 31.5396 57.0027 31.4988 56.992 31.4601C56.9797 31.4185 56.9576 31.3804 56.9275 31.3491C56.8959 31.3074 56.8556 31.2732 56.8093 31.2488L51.8594 28.3082L51.7878 28.2724L51.709 28.2473H51.6302H51.4905H51.4189L51.3544 28.2724C51.3347 28.2813 51.3166 28.2934 51.3007 28.3082L48.1381 30.8548L43.7756 30.9121H43.0808C42.8802 30.9121 42.6581 30.93 42.4146 30.9515C42.1477 30.9738 41.8822 31.0109 41.6194 31.0625C41.3097 31.1222 41.0045 31.2035 40.7061 31.3061C40.3528 31.4252 40.0091 31.5713 39.6782 31.743C39.5421 31.8111 39.3737 31.9042 39.1731 32.0117L38.4998 32.3698C38.2527 32.4988 37.9912 32.6313 37.719 32.7638C37.4468 32.8963 37.1674 33.0217 36.888 33.122C36.6803 33.2044 36.4726 33.2796 36.2648 33.344C36.0614 33.4102 35.8546 33.4652 35.6452 33.5088C35.4375 33.5554 35.2297 33.5876 35.0256 33.6127C34.8223 33.6369 34.6178 33.6488 34.4131 33.6485C34.1417 33.6522 33.8706 33.6294 33.6036 33.5804C33.3992 33.5449 33.2028 33.4734 33.0234 33.3691C32.8713 33.2877 32.7467 33.1631 32.6652 33.0109C32.586 32.8459 32.5491 32.6637 32.5578 32.4809C32.5578 32.4379 32.5578 32.3806 32.5757 32.3268C32.5936 32.2731 32.5972 32.2087 32.6079 32.1585C32.6187 32.1084 32.6294 32.0582 32.6402 32.026C32.6509 31.9938 32.6402 31.9723 32.6402 31.9723H33.9869C34.7853 31.9793 35.5827 31.9122 36.3687 31.7717C36.9683 31.6684 37.5497 31.479 38.0951 31.2094C38.4781 31.0332 38.8143 30.7694 39.0764 30.4393C39.2753 30.1804 39.3756 29.8592 39.3594 29.5331C39.3443 29.2297 39.2312 28.9394 39.0371 28.7058C38.8297 28.4653 38.5682 28.2775 38.2742 28.1578C37.9153 28.008 37.5384 27.9056 37.1531 27.8533C36.6872 27.7831 36.2166 27.7496 35.7455 27.7531M34.0657 30.7796H33.7362H33.378H32.9733C33.0757 30.4977 33.2206 30.2332 33.4031 29.9952C33.571 29.7814 33.7702 29.5943 33.994 29.44C34.2079 29.2939 34.4437 29.1827 34.6925 29.1105C34.9399 29.0358 35.197 28.9984 35.4554 28.9995C35.6298 28.9969 35.804 29.0138 35.9747 29.0496C36.1023 29.0715 36.2242 29.119 36.3329 29.1893C36.4157 29.2436 36.4825 29.319 36.5263 29.4078C36.5697 29.4946 36.593 29.5901 36.5943 29.6872C36.5925 29.7738 36.5725 29.8591 36.5354 29.9375C36.4984 30.0159 36.4453 30.0856 36.3794 30.142C36.2098 30.2962 36.0131 30.4176 35.7992 30.5002C35.5367 30.6025 35.2642 30.677 34.9862 30.7223C34.6859 30.7756 34.3814 30.802 34.0764 30.801" fill="white"/>
<path d="M34.7211 18.158H34.6566H34.5886L34.5277 18.1794L34.4739 18.2045L30.7597 20.4108C30.7276 20.4302 30.6996 20.4558 30.6774 20.486C30.6575 20.5104 30.6462 20.5406 30.6451 20.572C30.6419 20.6023 30.6495 20.6328 30.6666 20.658C30.6859 20.6882 30.7116 20.7139 30.7418 20.7332L34.4596 23.115L34.5169 23.1437L34.585 23.1687H34.653H34.7282H34.7999C34.8237 23.1705 34.8477 23.1705 34.8715 23.1687L34.936 23.1437L34.9969 23.115L38.7075 20.7332C38.7387 20.7138 38.7655 20.6882 38.7863 20.658C38.8028 20.6323 38.8115 20.6025 38.8114 20.572C38.8072 20.5407 38.7948 20.511 38.7755 20.486C38.7529 20.4549 38.7235 20.4292 38.6896 20.4108L34.9718 18.2045C34.955 18.194 34.9369 18.1856 34.9181 18.1794L34.8572 18.158H34.7927H34.7247" fill="white"/>
</svg>
