<svg width="70" height="70" viewBox="0 0 70 70" fill="none" xmlns="http://www.w3.org/2000/svg">
<g clip-path="url(#clip0_884_2622)">
<path d="M41.8115 44.2955V34.9793C41.8115 31.2978 38.816 28.2971 35.1293 28.2971C31.4426 28.2971 28.4472 31.2926 28.4472 34.9793V44.2955H30.6624V34.6232C30.6624 32.3556 32.5005 30.5123 34.7732 30.5123H35.4383C37.7058 30.5123 39.5492 32.3504 39.5492 34.6232V44.2955H41.8115Z" fill="url(#paint0_linear_884_2622)"/>
<path d="M35.1301 25.5376C29.9038 25.5376 25.6672 29.7742 25.6672 35.0005V44.2958H27.9295V34.9795C27.9295 31.01 31.1606 27.7737 35.1353 27.7737C39.1101 27.7737 42.3412 31.0048 42.3412 34.9795V44.2958H44.6035V35.0005C44.6035 29.7742 40.3669 25.5376 35.1406 25.5376H35.1301Z" fill="url(#paint1_linear_884_2622)"/>
<path d="M25.0644 34.6548C25.0644 29.6223 20.985 25.5376 15.9472 25.5376C10.9094 25.5376 6.82996 29.6223 6.82996 34.6548C6.82996 39.6874 11.0927 44.2905 16.1305 44.2905C19.7543 44.2905 20.3147 44.1125 23.0954 42.9447V39.5303C18.9688 42.0806 14.9993 40.0068 14.9993 40.0068L25.0487 34.9586C25.0487 34.8538 25.0644 34.7543 25.0644 34.6496V34.6548ZM12.3757 37.6869L11.8311 36.6553C10.5428 34.215 11.475 31.1881 13.9206 29.8998C16.3609 28.6116 19.3878 29.5437 20.676 31.9893L21.2206 33.021L12.381 37.6869H12.3757Z" fill="url(#paint2_linear_884_2622)"/>
<path d="M64.0001 34.6548C64.0001 29.6223 59.9154 25.5376 54.8828 25.5376C49.8503 25.5376 45.7656 29.6171 45.7656 34.6548C45.7656 39.6926 50.0283 44.2905 55.0661 44.2905C58.69 44.2905 59.2503 44.1125 62.031 42.9447V39.5303C57.9044 42.0806 53.935 40.0068 53.935 40.0068L63.9843 34.9586C63.9843 34.8538 64.0001 34.7543 64.0001 34.6496V34.6548ZM51.3113 37.6869L50.7667 36.6553C49.4784 34.215 50.4106 31.1881 52.8562 29.8998C55.2965 28.6116 58.3234 29.5437 59.6116 31.9893L60.1563 33.021L51.3166 37.6869H51.3113Z" fill="url(#paint3_linear_884_2622)"/>
</g>
<defs>
<linearGradient id="paint0_linear_884_2622" x1="35.1293" y1="44.2955" x2="35.1293" y2="28.2971" gradientUnits="userSpaceOnUse">
<stop stop-color="#004F95"/>
<stop offset="1" stop-color="#2394FB"/>
</linearGradient>
<linearGradient id="paint1_linear_884_2622" x1="35.1301" y1="25.5376" x2="35.1301" y2="25.5376" gradientUnits="userSpaceOnUse">
<stop stop-color="#004F95"/>
<stop offset="1" stop-color="#2394FB"/>
</linearGradient>
<linearGradient id="paint2_linear_884_2622" x1="10.0506" y1="41.824" x2="23.0326" y2="28.8472" gradientUnits="userSpaceOnUse">
<stop stop-color="#004F95"/>
<stop offset="1" stop-color="#2394FB"/>
</linearGradient>
<linearGradient id="paint3_linear_884_2622" x1="60.2505" y1="43.9763" x2="50.3111" y2="26.7682" gradientUnits="userSpaceOnUse">
<stop stop-color="#004F95"/>
<stop offset="1" stop-color="#2394FB"/>
</linearGradient>
<clipPath id="clip0_884_2622">
<rect width="57.17" height="18.7582" fill="white" transform="translate(6.83002 25.5378)"/>
</clipPath>
</defs>
</svg>
