<svg width="70" height="70" viewBox="0 0 70 70" fill="none" xmlns="http://www.w3.org/2000/svg">
<g clip-path="url(#clip0_65_362)">
<path d="M28 60.19C28.03 57.83 28.08 55.47 28.09 53.11C28.11 50.27 28.09 47.42 28.09 44.58C28.11 37.01 28.14 29.44 28.16 21.87C28.16 21.63 28.19 21.4 28.22 21.02C29.02 21.02 29.81 21.02 30.6 21.02C31 21.02 31.4 21.01 31.8 21.02C32.51 21.04 33.44 20.82 33.88 21.19C34.29 21.53 34.18 22.5 34.32 23.26C34.44 23.16 34.61 23.08 34.7 22.94C35.67 21.52 37.14 21 38.73 20.79C40.49 20.56 42.26 20.67 43.92 21.34C45.55 22.01 47.09 22.87 48.32 24.17C49.66 25.58 50.67 27.21 51.25 29.07C52.43 32.84 52.18 36.57 50.78 40.24C50.34 41.38 49.57 42.28 48.81 43.22C47.26 45.12 45.3 46.31 42.94 46.8C41.66 47.07 40.33 47.17 39.02 47.16C37.76 47.16 36.62 46.62 35.61 45.86C35.21 45.55 34.8 45.26 34.26 44.86C34.21 45.36 34.16 45.7 34.15 46.04C34.15 50.61 34.15 55.17 34.15 59.74C34.15 59.9 34.2 60.05 34.23 60.21H27.99L28 60.19ZM45.99 34.39C45.99 31.84 45.68 30.01 44.97 28.25C44.03 25.91 42.18 24.7 39.76 24.82C37.7 24.92 36.43 26.21 35.5 27.88C34.13 30.36 33.88 33.04 34.33 35.79C34.66 37.79 35.37 39.63 36.79 41.16C38.26 42.73 40.33 43.13 42.24 42.17C43.46 41.55 44.23 40.52 44.8 39.33C45.65 37.57 45.97 35.69 45.98 34.4L45.99 34.39Z" fill="#C00324"/>
<path d="M66.89 47.2C65.74 47.09 64.57 47.08 63.44 46.85C59.75 46.11 57.39 43.81 56.08 40.34C55.28 38.22 54.93 36.02 54.9 33.76C54.87 31.24 54.89 28.71 54.89 26.19C54.89 25.84 54.89 25.49 54.89 25.03C54.1 25.03 53.39 25.06 52.68 25.02C52.39 25 51.98 24.94 51.83 24.74C50.72 23.33 49.43 22.13 47.94 21.02H54.87V9.81001C56.58 9.29001 58.25 8.78001 59.91 8.27001C60.08 8.22001 60.24 8.10001 60.4 8.01001C60.56 8.01001 60.72 8.01001 60.88 8.01001V21H66.88V25.09H60.89C60.89 27.47 60.86 29.71 60.89 31.95C60.91 33.43 60.95 34.91 61.13 36.38C61.35 38.19 61.9 39.92 63.22 41.25C64.21 42.25 65.34 43.05 66.87 42.89V47.22L66.89 47.2Z" fill="white"/>
<path d="M26.23 35.52H9.65C9.99001 38.26 10.76 40.6 13.15 42C15.44 43.34 18.67 42 19.74 39.33H25.67C24.85 42.4 23.34 44.84 20.39 46.09C17.55 47.3 14.57 47.58 11.6 46.66C8.27 45.62 5.97001 43.34 4.69001 40.13C2.70001 35.16 2.86 30.22 5.71 25.63C8.09 21.81 11.79 20.31 16.19 20.68C20.78 21.07 23.69 23.73 25.25 27.96C26.13 30.36 26.34 32.85 26.25 35.52H26.23ZM19.89 31.36C19.91 29.65 19.53 28.13 18.53 26.82C16.79 24.54 13.56 24.46 11.65 26.62C10.78 27.6 10.24 28.74 9.97 30.02C9.88 30.46 9.82 30.91 9.75 31.37H19.9L19.89 31.36Z" fill="white"/>
</g>
<defs>
<clipPath id="clip0_65_362">
<rect width="64" height="53" fill="white" transform="translate(3 8)"/>
</clipPath>
</defs>
</svg>
