<svg width="70" height="70" viewBox="0 0 70 70" fill="none" xmlns="http://www.w3.org/2000/svg">
<path d="M29.5499 43.0828C29.5499 43.5707 29.4052 44.0476 29.1342 44.4532C28.8632 44.8589 28.4779 45.175 28.0272 45.3617C27.5765 45.5484 27.0805 45.5973 26.602 45.5021C26.1235 45.4069 25.684 45.172 25.339 44.827C24.9941 44.482 24.7592 44.0425 24.664 43.564C24.5688 43.0856 24.6176 42.5896 24.8043 42.1389C24.991 41.6881 25.3072 41.3029 25.7128 41.0319C26.1185 40.7608 26.5954 40.6161 27.0832 40.6161C27.4072 40.6161 27.7279 40.68 28.0272 40.8039C28.3265 40.9279 28.5984 41.1096 28.8274 41.3386C29.0565 41.5677 29.2382 41.8396 29.3622 42.1389C29.4861 42.4381 29.5499 42.7589 29.5499 43.0828Z" fill="#E7352C"/>
<path d="M51.0666 40.5162C50.2802 35.0488 47.7444 29.9832 43.8386 26.0774C39.9329 22.1716 34.8672 19.6358 29.3999 18.8495C28.0932 19.5431 26.8875 20.4123 25.8165 21.4328V23.8162C31.1918 23.8206 36.3458 25.9567 40.1483 29.756C43.9507 33.5553 46.0911 38.7076 46.0999 44.0828H48.4832C49.4946 43.0104 50.3629 41.8115 51.0666 40.5162Z" fill="#E7352C"/>
<path d="M53 33.0329C53 30.9203 52.5826 28.8286 51.7716 26.8779C50.9607 24.9272 49.7722 23.156 48.2745 21.666C46.7768 20.1761 44.9995 18.9968 43.0446 18.196C41.0897 17.3952 38.9958 16.9886 36.8833 16.9995C36.3166 16.9995 35.7666 16.9995 35.2166 17.0829L34.85 18.1495C38.7523 19.517 42.2972 21.7444 45.2225 24.6668C48.1478 27.5892 50.3786 31.132 51.75 35.0329L52.8167 34.6496C52.8167 34.1162 52.9167 33.5829 52.9167 32.9829" fill="#E7352C"/>
<path d="M37.0668 51.9996C32.0244 51.9996 27.1873 50.0023 23.614 46.4446C20.0407 42.8869 18.0221 38.0586 18.0001 33.0162C17.9925 30.5112 18.482 28.0295 19.4405 25.715C20.3989 23.4005 21.8071 21.2992 23.5834 19.5329L24.6668 20.5496C23.0159 22.1859 21.7056 24.1329 20.8113 26.2784C19.9171 28.4239 19.4567 30.7252 19.4567 33.0496C19.4567 35.3739 19.9171 37.6753 20.8113 39.8208C21.7056 41.9662 23.0159 43.9133 24.6668 45.5496C26.3031 47.2004 28.2501 48.5108 30.3956 49.405C32.5411 50.2993 34.8424 50.7597 37.1668 50.7597C39.4911 50.7597 41.7925 50.2993 43.938 49.405C46.0834 48.5108 48.0305 47.2004 49.6668 45.5496L50.6835 46.5663C48.8895 48.3324 46.7611 49.7227 44.4229 50.6557C42.0847 51.5887 39.5838 52.0456 37.0668 51.9996Z" fill="#E7352C"/>
<path d="M36.8501 45.1828C37.022 43.3066 36.7128 41.4176 35.9517 39.6941C35.1905 37.9706 34.0026 36.4696 32.5001 35.3328C30.8903 34.0653 28.9546 33.2794 26.9168 33.0662C26.662 33.0329 26.4293 32.9044 26.2654 32.7065C26.1015 32.5086 26.0186 32.256 26.0334 31.9995C26.0438 31.8687 26.0803 31.7412 26.1408 31.6247C26.2012 31.5082 26.2843 31.4049 26.3853 31.321C26.4863 31.2372 26.603 31.1744 26.7286 31.1363C26.8543 31.0983 26.9862 31.0857 27.1168 31.0995C30.5566 31.4572 33.7148 33.1623 35.9011 35.842C38.0873 38.5217 39.1236 41.9579 38.7834 45.3995C38.7148 46.1622 38.5696 46.9159 38.3501 47.6495L41.2501 48.4662C42.1083 48.2194 42.9446 47.9016 43.7501 47.5162C43.9659 46.3902 44.0719 45.246 44.0668 44.0995C44.0618 39.7231 42.4915 35.4929 39.6396 32.1733C36.7877 28.8538 32.8424 26.6639 28.5168 25.9995C27.5526 25.8223 26.5642 25.8223 25.6001 25.9995C24.3796 26.3219 23.2829 27.0008 22.4501 27.9495C21.7786 28.727 21.3097 29.6583 21.0851 30.6607C20.8604 31.6632 20.887 32.7056 21.1625 33.6952C21.4379 34.6849 21.9537 35.5911 22.6639 36.3334C23.3742 37.0756 24.2568 37.6308 25.2334 37.9495C25.75 38.0727 26.2731 38.1673 26.8001 38.2328C28.1615 38.465 29.3968 39.1712 30.2875 40.2266C31.1782 41.282 31.6667 42.6185 31.6668 43.9995C31.6667 45.1177 31.3425 46.2118 30.7334 47.1495L32.7334 48.4329C33.7137 48.7018 34.719 48.8693 35.7334 48.9329C36.3313 47.733 36.7041 46.4338 36.8334 45.0995" fill="#E7352C"/>
</svg>
