<svg width="70" height="70" viewBox="0 0 70 70" fill="none" xmlns="http://www.w3.org/2000/svg">
<path d="M35.169 11.0041C29.0094 10.8895 23.0462 13.1718 18.5371 17.3695C14.028 21.5673 11.3256 27.3524 11 33.5044H12.9671C13.0087 33.5035 13.0493 33.4912 13.0844 33.4688C13.1195 33.4464 13.1478 33.4147 13.166 33.3773C13.522 32.6973 14.0956 32.1563 14.7953 31.8407C15.4949 31.5251 16.2802 31.4533 17.0255 31.6365C17.7708 31.8198 18.4332 32.2477 18.9067 32.8517C19.3802 33.4558 19.6375 34.2011 19.6375 34.9687C19.6375 35.7362 19.3802 36.4816 18.9067 37.0856C18.4332 37.6897 17.7708 38.1175 17.0255 38.3008C16.2802 38.4841 15.4949 38.4122 14.7953 38.0966C14.0956 37.7811 13.522 37.24 13.166 36.56C13.1478 36.5226 13.1195 36.491 13.0844 36.4685C13.0493 36.4461 13.0087 36.4338 12.9671 36.433H11.0221C11.3445 41.0315 12.9976 45.4369 15.78 49.1123C18.5624 52.7877 22.3539 55.5744 26.6923 57.1326C31.0308 58.6909 35.7288 58.9535 40.2139 57.8884C44.699 56.8233 48.7773 54.4765 51.9519 51.134C55.1266 47.7915 57.2603 43.5977 58.0931 39.0638C58.926 34.5298 58.4219 29.8515 56.6424 25.5991C54.8628 21.3466 51.8847 17.7036 48.0709 15.1141C44.2572 12.5246 39.7725 11.1004 35.1635 11.0152L35.169 11.0041ZM35.821 48.0257C33.109 48.2485 30.3939 47.6334 28.0427 46.2634C25.6915 44.8935 23.8176 42.8348 22.6741 40.3655C21.5306 37.8963 21.1727 35.1355 21.6488 32.4563C22.1248 29.7771 23.4119 27.3086 25.3361 25.3844C27.2602 23.4602 29.7287 22.1732 32.4079 21.6971C35.0872 21.221 37.8479 21.5789 40.3172 22.7224C42.7864 23.8659 44.8452 25.7398 46.2151 28.091C47.585 30.4422 48.2001 33.1573 47.9773 35.8693C47.715 39.0066 46.3493 41.9493 44.1227 44.1748C41.8961 46.4004 38.9528 47.7648 35.8155 48.0257H35.821Z" fill="#DA0000"/>
</svg>
