<svg width="90" height="90" viewBox="0 0 90 90" fill="none" xmlns="http://www.w3.org/2000/svg">
<path fill-rule="evenodd" clip-rule="evenodd" d="M49.2779 22.5127V35.7286H40.3669V22.5127H22.5449L22.445 66.6682H40.267V53.3524H49.0766L49.1765 66.5684H67V22.5127H49.2779Z" fill="#E83434"/>
<path fill-rule="evenodd" clip-rule="evenodd" d="M62.4953 62.1624H53.6842V53.2499C53.6206 52.1379 53.1432 51.09 52.346 50.3121C51.5488 49.5342 50.4895 49.0827 49.3762 49.0464H40.3669C39.2271 49.06 38.1334 49.4987 37.3002 50.2765C36.4669 51.0544 35.9541 52.1153 35.8622 53.2514V62.2623H26.9512V26.9194H35.8622V40.1354H55.786C57.5171 40.3248 59.13 41.1056 60.3523 42.3461C61.5746 43.5866 62.3315 45.2108 62.4953 46.9446V62.1624Z" fill="white"/>
</svg>
