<svg width="70" height="70" viewBox="0 0 70 70" fill="none" xmlns="http://www.w3.org/2000/svg">
<path d="M32.4918 25.5362L39.0027 21.624L35.0043 19.5506L28.4933 23.4628L32.4918 25.5362Z" fill="#F2511A"/>
<path d="M38.4904 28.6597L45.0014 24.7429L41.0029 22.6696L34.492 26.5817L38.4904 28.6597Z" fill="#FBBC09"/>
<path d="M44.489 31.7765L51 27.8643L47.0015 25.7864L40.4906 29.6986L44.489 31.7765Z" fill="#F2511A"/>
<path d="M35.5041 37.1675L42.015 33.2553L38.0303 31.1819L31.5193 35.0941L35.5041 37.1675Z" fill="#FBBC09"/>
<path d="M41.5027 40.291L48.0137 36.3789L44.0289 34.3009L37.518 38.2131L41.5027 40.291Z" fill="#F2511A"/>
<path d="M26.5389 42.565L33.0498 38.6528L29.0514 36.5748L22.5541 40.487L26.5389 42.565Z" fill="#F2511A"/>
<path d="M32.5374 45.6819L39.0484 41.7697L35.05 39.6963L28.5527 43.6085L32.5374 45.6819Z" fill="#FBBC09"/>
<path d="M23.5656 51.0793L30.0629 47.1671L26.0781 45.0892L19.5672 49.0014L23.5656 51.0793Z" fill="#F2511A"/>
</svg>
