<svg width="90" height="90" viewBox="0 0 90 90" fill="none" xmlns="http://www.w3.org/2000/svg">
<path fill-rule="evenodd" clip-rule="evenodd" d="M23.8756 59.3797H16V30.0132H29.2149V36.1868H23.8756V41.326H29.2149V47.1659H23.8756V59.3797Z" fill="#0054A3"/>
<path fill-rule="evenodd" clip-rule="evenodd" d="M31.2839 30.0132H35.0548H36.7568H40.8948L43.164 42.0268L45.1329 30.0132H49.5045H51.3066H54.944V59.4464H48.1363L48.0362 41.9266L45.4666 59.4464H45.2998H40.6946L37.858 41.9266L37.7579 59.4464H31.2839V30.0132Z" fill="#0054A3"/>
<path fill-rule="evenodd" clip-rule="evenodd" d="M57.9808 30.0129H70.1612C72.8309 30.0129 75 32.182 75 34.8517V54.5072C75 57.1769 72.8309 59.346 70.1612 59.346H57.9808V29.9795V30.0129ZM64.7551 34.885H67.1912C67.7585 34.885 68.2591 35.5525 68.2591 36.3534V53.0389C68.2591 53.8398 67.7919 54.5072 67.1912 54.5072H64.7551V34.885Z" fill="#0054A3"/>
</svg>
