<svg width="90" height="90" viewBox="0 0 90 90" fill="none" xmlns="http://www.w3.org/2000/svg">
<path d="M75.1126 15.7334H15V72.2451H75.1126V15.7334Z" fill="#FDFEFD"/>
<path d="M15.007 74.999C15.0098 72.1104 15.0112 69.2218 15.014 66.3332C15.014 65.5072 15.0168 65.5016 15.7474 65.8017C20.5627 67.7845 25.5701 69.01 30.7486 69.5162C38.172 70.2412 45.4384 69.4391 52.5506 67.1969C61.0117 64.5299 68.3342 60.0119 74.5924 53.7523C74.6752 53.6695 74.7565 53.5868 74.8462 53.5125C74.8785 53.4844 74.9318 53.4816 75.1141 53.4199V75.0004H15.007V74.999Z" fill="#79B856"/>
<path d="M45.0781 15.0154C54.8124 15.0154 64.5482 15.0224 74.2826 15C74.9514 14.9986 75.1337 15.1571 75.1323 15.8385C75.1071 24.0403 75.1113 32.242 75.1225 40.4437C75.1225 41.156 74.9977 41.7183 74.5027 42.3227C73.3837 43.6898 72.3671 45.1426 71.1948 46.4733C67.3331 50.8581 62.8206 54.4128 57.6239 57.0953C52.646 59.6656 47.368 61.2978 41.8109 61.9709C33.6625 62.9566 25.772 61.9288 18.1817 58.7639C17.3221 58.405 16.485 57.9899 15.6226 57.6379C15.1403 57.4402 15 57.1415 15.0014 56.6255C15.0169 47.9807 15.0113 39.3373 15.0113 30.6925C15.0127 25.7047 15.0239 20.7183 15 15.7334C14.9972 15.15 15.1515 15 15.7334 15.0028C25.5154 15.021 35.2961 15.0154 45.0781 15.0154ZM34.2135 34.9609C34.2388 32.9347 32.6444 31.2618 30.6673 31.238C28.526 31.2127 26.8293 32.7832 26.8111 34.8067C26.7929 36.896 28.3676 38.6011 30.342 38.6306C32.5785 38.6642 34.1869 37.1386 34.2135 34.9609ZM56.885 34.9104C56.8667 36.9745 58.4555 38.6109 60.5013 38.6348C62.5921 38.6586 64.2818 37.0432 64.3056 34.996C64.3295 32.9613 62.6916 31.2604 60.6892 31.2394C58.5059 31.2169 56.9046 32.7622 56.8864 34.9104H56.885Z" fill="#79B856"/>
<path d="M34.2135 34.9615C34.1869 37.1406 32.5785 38.6648 30.3419 38.6312C28.3676 38.6017 26.7928 36.8966 26.8111 34.8073C26.8293 32.7824 28.526 31.2133 30.6672 31.2386C32.6444 31.2624 34.2387 32.9353 34.2135 34.9615Z" fill="#FDFEFD"/>
<path d="M56.8849 34.9106C56.9046 32.7624 58.5045 31.2157 60.6878 31.2395C62.6902 31.2606 64.328 32.9629 64.3042 34.9961C64.2803 37.0434 62.5906 38.6588 60.4999 38.6349C58.454 38.6111 56.8653 36.9761 56.8835 34.9106H56.8849Z" fill="#FDFEFD"/>
</svg>
