<svg width="70" height="70" viewBox="0 0 70 70" fill="none" xmlns="http://www.w3.org/2000/svg">
<path d="M59.8926 42.2744C59.9535 42.2731 60.001 46.3893 60.001 60.5654H9V56.6426C9 54.4848 9.04835 52.7148 9.10938 52.7148C9.17586 52.7124 10.5947 53.1782 12.2695 53.748C13.9478 54.3234 17.378 55.1387 19.8975 55.5615C23.2627 56.1282 25.6866 56.2626 29.0518 56.0752C31.6367 55.9313 35.4297 55.3603 37.7705 54.7588C40.0459 54.1746 43.3805 53.0718 45.1807 52.3047C46.9766 51.5331 50.0196 49.8769 51.9375 48.6172C53.8555 47.3574 56.4048 45.4172 57.6035 44.3057C58.8023 43.1985 59.8316 42.2831 59.8926 42.2744ZM60.001 32.2314L57.4951 35.3262C56.1176 37.0262 53.5191 39.6114 51.7188 41.0674C49.8269 42.5974 46.6146 44.585 44.0908 45.7881C41.6933 46.9302 38.5547 48.1902 37.1162 48.5869C35.4554 49.049 32.1205 49.3883 27.9619 49.5234C22.0075 49.7152 21.0528 49.637 17.2822 48.6475C15.0068 48.0546 12.2082 47.1565 9 45.7441V10H60.001V32.2314ZM21.9463 23.5C21.5191 23.5045 20.6906 23.9926 20.1152 24.5811C19.5399 25.1695 19.0566 26.1505 19.0479 26.7607C19.0348 27.384 19.5051 28.3517 20.1152 28.9619C20.7166 29.5589 21.5492 30.0597 21.9678 30.0645C22.3862 30.0732 23.2715 29.6815 23.9297 29.1934C24.8407 28.5221 25.1289 27.9417 25.1289 26.7822C25.1289 25.6229 24.8407 25.0433 23.9297 24.3721C23.2715 23.8839 22.3778 23.4913 21.9463 23.5ZM47.4688 23.5176C47.29 23.522 46.7193 23.7702 46.2051 24.0752C45.6907 24.376 45.0056 25.1478 44.6787 25.7842C44.2036 26.73 44.1955 27.1622 44.6357 28.0645C44.9367 28.6789 45.7209 29.3843 46.3789 29.6328C47.2028 29.9467 47.9182 29.9511 48.668 29.6416C49.265 29.3973 50.0148 28.6526 50.3242 27.9902C50.7427 27.1053 50.7727 26.4901 50.4414 25.6924C50.1928 25.0909 49.4959 24.3584 48.8945 24.0576C48.2886 23.7568 47.6475 23.5176 47.4688 23.5176Z" fill="#78BB56"/>
</svg>
