<svg width="90" height="90" viewBox="0 0 90 90" fill="none" xmlns="http://www.w3.org/2000/svg">
<mask id="mask0_2392_3904" style="mask-type:luminance" maskUnits="userSpaceOnUse" x="15" y="28" width="60" height="35">
<path d="M75 28H15V62.0541H75V28Z" fill="white"/>
</mask>
<g mask="url(#mask0_2392_3904)">
<path d="M36.4765 35.407H15V28.6406H36.4765V35.407Z" fill="#E35530"/>
<path d="M15 39.6495V60.6284H22.5839V46.4158H36.4765V39.6539H15V39.6495ZM57.5309 48.9305H65.9412C65.3458 51.5828 62.8356 54.2307 58.2196 54.2307C51.5021 54.2307 48.0767 49.5702 48.0767 44.5898C48.0767 39.6095 51.8219 35.1311 57.3532 35.1311C61.2096 35.1311 63.5731 36.5573 65.1192 38.792H73.1341C73.0719 38.5343 72.983 38.2411 72.8453 37.9212C70.8816 32.6209 65.4436 28.0049 57.2644 28.0049C47.7123 28.0049 40.4039 35.18 40.4039 44.6387C40.4039 54.0974 47.6679 61.2726 57.6331 61.2726C67.5983 61.2726 73.9026 54.8749 73.9026 46.2381V42.444H57.5443V48.9349L57.5309 48.9305Z" fill="white"/>
</g>
</svg>
