<svg width="90" height="90" viewBox="0 0 90 90" fill="none" xmlns="http://www.w3.org/2000/svg">
<path d="M47.5657 49.8407C50.2399 52.4573 53.9722 54.0647 58.0467 54.0647C66.2561 54.0647 72.9012 47.6064 72.9012 39.6242C72.9012 31.665 66.2561 25.1953 58.0467 25.1953C58.0467 25.1953 46.6111 24.14 41.464 38.3677L41.4813 27.6883C45.3114 22.8144 51.2405 19.2719 58.0467 19.2719C69.6289 19.2719 79 28.3755 79 39.6242C79 50.8557 69.6289 59.9938 58.0467 59.9938C52.2613 59.9938 47.028 57.7251 43.2468 54.0244L36.041 46.1486C34.0655 44.2307 31.3482 43.0633 28.3693 43.0633C22.3682 43.0633 17.503 47.779 17.503 53.6046C17.503 59.4532 22.3682 64.1805 28.3693 64.1805C28.3693 64.1805 36.3946 65.2271 41.464 55.557L41.4813 64.1086C38.3758 67.7719 33.6342 70.1096 28.3693 70.1096C19.0011 70.1096 11.3927 62.7197 11.3927 53.6046C11.3927 44.5067 19.0011 37.1341 28.3693 37.1341C33.0361 37.1341 37.2745 38.9571 40.3512 41.9648L47.5657 49.8407Z" fill="#E60012"/>
</svg>
