<svg width="90" height="90" viewBox="0 0 90 90" fill="none" xmlns="http://www.w3.org/2000/svg">
<path d="M65.0359 31.5683C67.121 33.6825 68.2654 42.0227 65.0359 41.179L33.6824 23.3929C31.6749 23.1893 32.4216 23.5093 32.2277 24.8185C31.9852 26.4963 31.9076 31.7235 32.6932 32.9939C34.6231 36.0973 60.0803 47.2305 64.4734 51.2746C65.3754 51.9341 67.0046 54.6786 67.0046 55.4641V72.2125C86.7012 56.0072 83.8791 29.8033 66.1415 16.7013C66.1318 16.7013 66.1124 16.6819 66.1027 16.6722C65.6663 16.3522 65.2105 16.0515 64.7547 15.7509C59.1977 12.1239 52.5546 10 45.4266 10C40.8201 10 36.4366 10.8922 32.4022 12.4827L65.0456 31.5586L65.0359 31.5683Z" fill="white"/>
<path d="M58.3056 77.9545C59.7118 76.6065 27.0684 59.6835 25.0125 57.8312C23.2474 56.6384 22.9565 48.2884 24.0233 48.2884L56.0557 66.3169L58.2959 66.4721L57.3455 56.4153C48.5786 50.2474 34.7492 45.3887 26.6611 38.9686C25.7592 38.251 23.5287 36.3599 23.5287 35.3804V17.6719C23.1214 17.9628 22.7334 18.2635 22.3455 18.5738C20.0956 20.5134 18.0881 22.7245 16.3813 25.1587C15.1205 27.011 14.0344 28.9797 13.0646 31.0163C11.0959 35.4192 10 40.2973 10 45.4275C10 50.2668 10.9698 54.8733 12.7251 59.0822C20.9975 75.6852 39.2588 84.1903 58.2862 77.9545H58.3056Z" fill="white"/>
</svg>
