<svg width="90" height="90" viewBox="0 0 90 90" fill="none" xmlns="http://www.w3.org/2000/svg">
<path d="M80 45.5C80 35.8388 72.153 28 62.4802 28H41.8932V42.3967H27.5058V48.6033H41.8932V56.7933H27.5198C21.2782 56.7933 16.2125 51.7347 16.2125 45.5C16.2125 39.2653 21.2782 34.2067 27.5198 34.2067H34.7088V28H27.5198C17.8482 28 10 35.8388 10 45.5C10 55.0433 17.8855 63 27.5198 63H62.4802C72.1133 63 80 55.1017 80 45.5ZM62.4802 56.7933H48.1068V48.6033H62.4977V42.3967H48.1068V34.2067H62.4802C68.7218 34.2067 73.7852 39.2653 73.7852 45.5C73.7852 51.7347 68.7218 56.7933 62.4802 56.7933Z" fill="white"/>
</svg>
