<svg width="90" height="90" viewBox="0 0 90 90" fill="none" xmlns="http://www.w3.org/2000/svg">
<path d="M30.6351 44.6323C30.6351 36.8931 36.9168 30.6113 44.656 30.6113C52.3951 30.6113 58.7272 36.8931 58.7272 44.6323C58.7272 52.3714 52.4454 58.6532 44.7062 58.6532C36.9671 58.6532 30.6351 52.4217 30.6351 44.6323Z" fill="#E84C0A"/>
<path d="M28.4239 40.0081C27.469 43.4254 27.6198 47.0437 28.8259 50.4107C26.9162 49.9081 25.1071 48.9533 23.6497 47.4457C19.2274 43.0233 19.2274 35.837 23.6497 31.3643L23.9513 31.0628C24.4538 30.5603 24.9563 30.6105 25.2076 30.8618C25.4589 31.1131 25.5594 31.2638 25.5091 31.8166C25.5091 31.8669 25.5091 36.3898 28.4239 40.0081Z" fill="#E84C0A"/>
<path d="M36.3138 29.8574C33.2483 31.6163 30.7356 34.2798 29.2782 37.4961C28.2731 35.7874 27.7203 33.8275 27.7203 31.7168C27.7203 25.4351 32.796 20.3594 39.0778 20.3594H39.5301C40.2839 20.3594 40.5352 20.7112 40.5352 21.1132C40.5352 21.465 40.5352 21.6157 40.0829 22.0178C40.0829 22.0178 36.8163 25.234 36.3138 29.8574Z" fill="#E84C0A"/>
<path d="M49.5307 28.3996C46.1636 27.3945 42.4951 27.495 39.1281 28.6508C39.6306 26.7412 40.6859 24.9823 42.1936 23.5249C46.7164 19.1528 53.9028 19.3036 58.2749 23.8264L58.5764 24.128C59.079 24.6305 59.0287 25.133 58.7272 25.3843C58.4759 25.6356 58.3252 25.7361 57.7221 25.6858C57.7221 25.6356 53.149 25.5351 49.5307 28.3996Z" fill="#E84C0A"/>
<path d="M59.5814 36.5912C57.923 33.4755 55.2595 30.9627 52.0433 29.4049C53.7519 28.45 55.7118 27.8972 57.8225 27.9475C64.1043 28.048 69.0795 33.2242 68.9789 39.506V39.9582C68.9789 40.7121 68.5769 40.9633 68.2251 40.9633C67.8734 40.9633 67.7226 40.9131 67.3206 40.4608C67.3206 40.4105 64.2048 37.144 59.5814 36.5912Z" fill="#E84C0A"/>
<path d="M60.9383 49.4065C61.9434 46.0395 61.8429 42.3709 60.6871 39.0039C62.5967 39.5064 64.3556 40.5618 65.813 42.0694C70.1851 46.5923 70.0344 53.7786 65.5115 58.1005L65.2602 58.4523C64.7577 58.9548 64.2551 58.9046 64.0038 58.603C63.7526 58.3518 63.6521 58.201 63.7023 57.598C63.7023 57.598 63.8028 53.0751 60.9383 49.4065Z" fill="#E84C0A"/>
<path d="M52.8976 59.4581C56.0134 57.7997 58.5261 55.1362 60.084 51.9199C61.0388 53.6286 61.5916 55.5885 61.5414 57.6992C61.4408 63.9809 56.2647 68.9561 49.9829 68.8556H49.5306C48.7768 68.8556 48.5255 68.4536 48.5255 68.1018C48.5255 67.75 48.5758 67.5992 49.0281 67.1972C49.0281 67.1972 52.3448 64.0814 52.8976 59.4581Z" fill="#E84C0A"/>
<path d="M39.9823 60.9153C43.3494 61.9204 47.0179 61.8199 50.3849 60.6641C49.8824 62.5737 48.8271 64.3326 47.3194 65.79C42.7966 70.1621 35.6102 70.0113 31.2381 65.4885L30.9366 65.1869C30.434 64.6844 30.4843 64.1819 30.7858 63.9306C31.0371 63.6793 31.1878 63.5788 31.7909 63.6291C31.7909 63.6793 36.3138 63.7798 39.9823 60.9153Z" fill="#E84C0A"/>
<path d="M29.831 52.8737C31.5899 55.9392 34.2534 58.4519 37.4696 59.9093C35.761 60.9144 33.8011 61.4672 31.6904 61.4672C25.4086 61.4672 20.3329 56.3915 20.3329 50.1097V49.6574C20.3329 48.9036 20.6847 48.6523 21.0868 48.6523C21.4385 48.6523 21.5893 48.6523 21.9913 49.1046C22.0416 49.1549 25.2076 52.3712 29.831 52.8737Z" fill="#E84C0A"/>
</svg>
