<svg width="90" height="90" viewBox="0 0 90 90" fill="none" xmlns="http://www.w3.org/2000/svg">
<path d="M27.8238 26.3857C29.4048 24.5251 31.346 23.8959 33.7282 24.6165C34.9005 24.9661 35.8792 25.0736 36.4277 23.4819C37.7774 19.5725 40.3156 16.916 44.8057 16.9268C49.2099 16.9322 52.6944 19.5671 54.4744 24.0519C54.7002 24.6273 55.0282 25.2188 55.0444 25.8103C55.0982 27.7677 56.3457 28.2302 57.9912 28.4775C62.5244 29.1497 62.9976 29.7305 62.9976 34.269C62.9976 43.7226 63.003 53.1815 62.9976 62.635C62.9976 66.1949 62.2071 67.0929 58.6526 67.792C50.7855 69.346 42.9183 70.9163 35.0564 72.4811C34.5671 72.5779 33.9487 72.4381 33.7282 73.1103H29.9748C29.2596 72.223 28.5444 71.3411 27.8292 70.4538C27.8292 55.7626 27.8292 41.0769 27.8292 26.3857H27.8238ZM53.8721 58.0481C54.2163 59.6021 53.4311 61.2691 55.8725 60.9734C57.8138 60.7368 58.7763 60.3496 58.6365 58.1664C58.4483 55.2625 58.4806 52.3318 58.6258 49.4226C58.7225 47.4975 57.9751 46.9544 56.1521 47.0727C54.1087 47.2018 52.0223 47.2986 50.0003 47.0566C47.3224 46.7339 46.9191 47.9546 46.9944 50.2185C47.0804 52.9771 49.0593 51.6274 50.2692 51.9447C50.9898 52.1329 52.0384 51.5306 52.4202 52.4286C52.8127 53.3428 52.0384 54.101 51.4523 54.7409C49.0001 57.4081 44.2304 56.9995 42.0848 53.9666C39.9338 50.9283 40.0682 45.1099 42.359 42.1739C44.4992 39.4314 48.742 38.7753 50.7639 41.3672C52.5869 43.6957 54.7325 43.1633 56.9426 43.2386C58.2816 43.2816 58.3623 42.5987 57.9697 41.5232C56.6307 37.8773 54.0065 35.6725 50.2262 34.952C40.079 33.0107 32.5559 40.3885 34.0455 50.6702C34.7284 55.3808 36.8202 59.1128 41.4072 60.9196C45.935 62.7049 50.1455 62.022 53.8829 58.0588L53.8721 58.0481ZM49.6669 27.1332C51.5114 27.5257 51.947 27.2138 51.4738 25.9125C50.8876 24.2993 50.0864 22.8527 48.7205 21.788C45.5371 19.2929 41.7083 20.1909 40.0843 23.7292C39.5412 24.9123 39.3745 25.6114 41.0792 25.8157C44.1604 26.1814 47.2202 26.7514 49.6616 27.1332H49.6669Z" fill="#F04541"/>
</svg>
