<svg width="90" height="90" viewBox="0 0 90 90" fill="none" xmlns="http://www.w3.org/2000/svg">
<g clip-path="url(#clip0_2393_4065)">
<path d="M45.0021 75C28.4619 75 15 61.6186 15 44.9979C15 28.4619 28.4619 15 45.0021 15C61.5367 15 75.0014 28.4619 75.0014 44.9979C75.0014 61.6186 61.5367 75 45.0021 75ZM45.0021 16.41C29.2114 16.41 16.4114 29.21 16.4114 44.9979C16.4114 60.7872 29.2114 73.5858 45.0021 73.5858C60.79 73.5858 73.5872 60.7872 73.5872 44.9979C73.5872 29.2932 60.7914 16.41 45.0021 16.41ZM70.4243 53.5511L70.2689 53.583L70.1815 53.4748C70.187 53.4276 71.189 50.4701 71.1807 47.0755C71.1682 43.4186 69.6832 41.1758 67.7722 41.1758C66.6092 41.1758 65.7793 42.0085 65.7793 43.2534C65.7793 45.4975 68.5216 45.6641 68.5216 50.5673C68.5216 52.563 68.1067 54.4698 67.4419 56.5502C64.3665 66.9353 54.5587 71.7553 45.0049 71.7553C40.5985 71.7553 37.4689 70.8504 36.5363 70.4327C36.4989 70.4132 36.4669 70.3397 36.4961 70.2661L36.6168 70.1815C36.9943 70.3313 39.6825 71.1751 43.0078 71.1751C46.6647 71.1751 48.8255 69.6805 48.8255 67.8485C48.8255 66.6897 47.911 65.7751 46.7466 65.7751C44.5025 65.7751 44.3359 68.5993 39.5174 68.5993C37.4398 68.5993 35.6134 68.1844 33.4498 67.5196C23.1438 64.3637 18.2323 54.6378 18.2406 44.9979C18.2447 40.3043 19.559 36.5669 19.5812 36.5294L19.7297 36.5044L19.8172 36.6127C19.6964 37.0012 18.8235 39.6825 18.8235 43.005C18.8235 46.6619 20.3182 48.8214 22.2292 48.8214C23.3103 48.8214 24.2263 47.9915 24.2263 46.8271C24.2263 44.583 21.4825 44.3345 21.4825 39.5132C21.4825 37.4356 21.8975 35.6079 22.5623 33.447C25.721 23.1438 35.4441 18.3127 45.0021 18.2392C49.4431 18.2059 53.3304 19.5354 53.4762 19.652L53.5025 19.8019L53.3929 19.8852C53.3471 19.8796 50.8199 18.8221 46.995 18.8221C43.4213 18.8207 41.1786 20.3168 41.1786 22.2292C41.1786 23.3103 42.0099 24.2249 43.2562 24.2249C45.5003 24.2249 45.6669 21.4812 50.4854 21.4812C52.563 21.4812 54.3907 21.8961 56.553 22.5623C66.9409 25.7196 71.6748 35.5274 71.7594 44.9993C71.8066 49.8525 70.4382 53.5247 70.4243 53.5511ZM56.1366 46.4135C53.3124 46.4135 51.1502 48.4925 51.1502 50.9836C51.1502 53.0612 52.395 54.721 54.059 54.721C54.6419 54.721 55.2221 54.388 55.2221 53.6413C55.2221 52.563 53.7898 52.2979 53.9008 50.6825C53.9716 49.6166 54.975 48.9047 55.9701 48.9047C57.9658 48.9047 58.8984 50.8379 58.8984 52.8308C58.8138 55.9063 56.553 58.0463 53.8939 58.0463C50.4007 58.0463 48.1608 54.721 48.1608 51.1488C48.1608 45.8292 51.6498 43.7516 53.4776 43.2548C53.497 43.2534 58.2572 44.1042 58.1087 42.0058C58.0435 41.0842 56.6709 40.729 55.6745 40.6887C54.5725 40.6457 53.4623 41.0426 53.4623 41.0426C52.8808 40.7498 52.4797 40.178 52.2327 39.5146C55.6398 36.9388 58.0477 34.4463 58.0477 31.6206C58.0477 30.1246 57.0498 28.7936 55.1388 28.7936C51.7317 28.7936 49.1545 33.1153 49.1545 37.0207C49.1545 37.6854 49.1545 38.3502 49.3224 38.9345C47.1602 40.5125 45.5544 41.4923 42.6442 43.2382C42.6442 42.8732 42.7205 41.9364 42.9634 40.7179C43.9612 39.6367 45.3296 38.0199 45.3296 36.7736C45.3296 36.1921 44.9993 35.6925 44.3318 35.6925C42.6705 35.6925 41.4229 38.1865 41.0926 39.931C40.3431 40.8455 38.8484 42.0113 37.6008 42.0113C36.6029 42.0113 36.2726 41.0953 36.1866 40.765C39.3453 39.6825 43.252 35.3608 43.252 31.4555C43.252 30.6242 42.9203 28.7964 40.4264 28.7964C36.6862 28.7964 33.5275 34.3644 33.5275 38.6847C32.198 38.6847 31.6997 37.2719 31.6997 36.1935C31.6997 35.1124 32.1147 34.0313 32.1147 33.701C32.1147 33.3665 31.9482 32.9516 31.4499 32.9516C30.2023 32.9516 29.4542 34.6128 29.4542 36.5252C29.5389 39.1857 31.2834 40.8469 33.6108 41.0135C33.9411 42.5928 35.3553 44.0875 37.0998 44.0875C38.1809 44.0875 39.5104 43.7558 40.425 42.9259C40.3404 43.5074 40.2585 44.0056 40.1752 44.5039C36.5183 46.4163 33.8592 47.7458 31.4485 49.9053C29.5431 51.6484 28.4619 53.9744 28.4619 55.8036C28.4619 58.2961 30.0427 60.6221 33.2833 60.6221C37.1053 60.6221 40.0156 57.5467 41.427 53.3096C42.0946 51.3153 42.3597 48.4134 42.5262 45.7529C46.3483 43.5934 48.1608 42.3416 50.1537 40.9274C50.4021 41.3424 50.6547 41.6768 50.9864 41.9253C49.2405 42.8398 45.0867 45.4157 45.0867 51.4819C45.0867 55.8049 47.997 60.6221 53.7287 60.6221C58.4668 60.6221 61.7074 56.7181 61.7074 52.9793C61.7046 49.5708 59.7922 46.4135 56.1366 46.4135ZM33.2833 58.0463C32.037 58.1032 31.2071 57.3066 31.2071 55.9784C31.2071 52.4048 36.1602 48.9949 39.9004 47.1643C39.2357 52.1522 37.5522 57.8506 33.2833 58.0463ZM36.0256 38.4349C36.0256 35.6911 38.7319 30.4785 40.3875 31.0294C42.3402 31.6803 38.768 36.9388 36.0256 38.4349ZM51.7331 37.1872C51.7331 33.7801 54.0396 30.466 55.2998 31.096C56.7348 31.8149 54.227 35.0264 51.7331 37.1872Z" fill="white"/>
</g>
<defs>
<clipPath id="clip0_2393_4065">
<rect width="60.0014" height="60" fill="white" transform="translate(15 15)"/>
</clipPath>
</defs>
</svg>
