<svg width="90" height="90" viewBox="0 0 90 90" fill="none" xmlns="http://www.w3.org/2000/svg">
<rect x="10" y="10" width="70" height="70" fill="#E3000F"/>
<path d="M31.8464 28.4031C31.2168 25.5073 29.8004 24.3637 29.1709 24.1539C28.5414 23.3669 28.8562 22.8949 32.948 21.7933C36.2215 20.9119 37.7743 23.3146 38.1415 24.6261L40.9744 37.3738C43.9121 31.0262 50.1653 17.9217 51.6761 16.285C53.5647 14.2391 53.4073 13.4521 57.1844 13.1373C60.9615 12.8226 61.1189 13.9242 60.9615 15.1833C60.8356 16.1905 58.391 17.2817 57.1844 17.7013C53.7745 24.8358 46.6715 39.7344 45.5383 42.2525C44.4052 44.7705 46.0105 47.4984 46.9548 48.5476L42.076 52.7969C39.942 57.1903 38.0479 67.1635 37.3608 71.6423C37.4046 71.5097 37.6947 71.4653 38.6137 72.1545C39.8727 73.0988 40.5022 74.3578 39.7153 75.6168C38.9284 76.8759 35.4661 78.2923 32.1611 76.8759C29.5172 75.7427 30.0103 71.6824 30.5873 69.7938C32.7382 62.8167 37.1028 48.6106 37.3546 47.6034C37.6694 46.3443 32.6333 32.0228 31.8464 28.4031Z" fill="white"/>
</svg>
