<svg width="90" height="90" viewBox="0 0 90 90" fill="none" xmlns="http://www.w3.org/2000/svg">
<mask id="mask0_114_199" style="mask-type:luminance" maskUnits="userSpaceOnUse" x="12" y="10" width="67" height="70">
<path d="M78.6667 10H12V80H78.6667V10Z" fill="white"/>
</mask>
<g mask="url(#mask0_114_199)">
<path d="M19.8731 20.8379C25.4613 14.4903 32.3331 11.1006 40.3538 10.2105C56.2205 8.44378 71.3645 18.0058 76.6205 32.9759C76.8673 33.6773 77.0916 34.3876 77.2756 35.1068C77.5271 36.0779 77.186 36.3791 76.1311 36.3656C70.1571 36.2756 64.2548 36.1183 58.3121 36.0644C49.3218 35.9879 40.327 36.0374 31.3321 36.0509C28.6705 36.0509 28.7198 36.1453 28.5986 39.3371C28.518 41.4456 28.9936 42.3221 31.4085 42.3491C34.5953 42.3851 37.4993 42.3356 40.547 42.2951C41.8485 42.2773 42.459 42.7538 42.4365 44.1114C42.3243 51.9471 43.4868 50.5669 36.2918 50.6614C30.3491 50.7378 24.402 50.6209 18.4548 50.7063C16.4575 50.7333 15.699 50.0949 15.7393 48.0134C15.8515 42.0614 15.8381 36.1048 15.7438 30.1528C15.7125 28.1883 16.242 27.3699 18.3651 27.4059C25.5735 27.5139 32.782 27.4779 39.9903 27.4239C41.5926 27.4104 42.5936 27.7611 42.4635 29.6223C42.3826 30.8046 43.0828 31.2048 44.169 31.0384C44.9051 30.9259 45.933 30.8451 46.6511 30.7013C48.3613 30.3551 49.7571 30.8001 50.417 28.7591C51.2293 26.2371 49.4788 22.9554 47.2885 21.8989C45.6503 21.1033 43.8728 20.9009 42.0775 20.8919C35.4615 20.8604 28.85 20.8604 22.2341 20.8469C21.4441 20.8469 20.6586 20.8469 19.8686 20.8469L19.8731 20.8379Z" fill="#7AC848"/>
<path d="M64.5687 73.0897C62.2302 75.0947 59.7795 76.4343 57.1717 77.4683C39.972 84.2655 21.2193 77.0008 13.01 60.3853C12.844 60.0527 12.7003 59.711 12.5567 59.3648C11.6142 57.108 11.686 57.1845 14.1637 57.2833C15.169 57.3238 16.2597 57.2383 17.2202 57.2383C27.4268 57.2608 36.9423 57.9937 46.8843 56.8788C49.3215 56.6045 51.8708 57.4542 54.4113 57.4317C60.354 57.3778 66.3012 57.4047 72.2438 57.4227C74.735 57.4317 75.2512 58.0745 74.8607 60.5292C74.331 63.8738 72.0418 65.8743 68.7473 65.8788C63.0247 65.8788 57.3063 65.8293 51.5837 65.9058C49.8197 65.9283 49.0342 65.4697 49.1015 63.5367C49.1598 61.8823 48.4283 61.59 47.0503 61.9767C46.6195 62.098 46.1707 62.17 45.7532 62.2913C44.281 62.7275 41.9873 62.8038 41.7808 64.2828C41.341 67.4253 42.8805 70.6755 45.1832 71.696C46.772 72.4018 48.4552 72.6222 50.1877 72.6177C54.0523 72.6042 57.9168 72.6042 61.7768 72.6222C62.5758 72.6267 63.4062 72.4378 64.5642 73.0897H64.5687Z" fill="#7AC848"/>
<path d="M62.3156 42.2942C65.5112 42.2942 68.7026 42.3345 71.8984 42.2807C73.3616 42.2582 74.4299 42.4963 74.2637 44.3082C74.0977 46.1603 75.0089 46.457 76.5842 45.976C77.6436 45.6523 78.5682 45.468 78.5906 47.2347C78.6041 48.4215 79.2056 50.6423 76.8401 50.5703C68.9899 50.3367 61.2472 50.4895 53.4554 50.3502C50.5199 50.2962 50.4751 50.3142 50.4976 47.3337C50.5424 41.5028 49.8422 42.375 55.4079 42.3032C57.7104 42.2717 60.0129 42.2987 62.3156 42.3032V42.2942Z" fill="#7AC848"/>
</g>
</svg>
