<svg width="70" height="70" viewBox="0 0 70 70" fill="none" xmlns="http://www.w3.org/2000/svg">
<path d="M50.84 35.375C50.84 34.205 50.735 33.08 50.54 32H35V38.39H43.88C43.49 40.445 42.32 42.185 40.565 43.355V47.51H45.92C49.04 44.63 50.84 40.4 50.84 35.375Z" fill="#4285F4"/>
<path d="M35 51.5C39.455 51.5 43.19 50.03 45.92 47.51L40.565 43.355C39.095 44.345 37.22 44.945 35 44.945C30.71 44.945 27.065 42.05 25.76 38.15H20.27V42.41C22.985 47.795 28.55 51.5 35 51.5Z" fill="#34A853"/>
<path d="M25.76 38.135C25.43 37.145 25.235 36.095 25.235 35C25.235 33.905 25.43 32.855 25.76 31.865V27.605H20.27C19.145 29.825 18.5 32.33 18.5 35C18.5 37.67 19.145 40.175 20.27 42.395L24.545 39.065L25.76 38.135Z" fill="#FBBC05"/>
<path d="M35 25.07C37.43 25.07 39.59 25.91 41.315 27.53L46.04 22.805C43.175 20.135 39.455 18.5 35 18.5C28.55 18.5 22.985 22.205 20.27 27.605L25.76 31.865C27.065 27.965 30.71 25.07 35 25.07Z" fill="#EA4335"/>
</svg>
