<svg width="90" height="90" viewBox="0 0 90 90" fill="none" xmlns="http://www.w3.org/2000/svg">
<path d="M54.5745 53.7456C54.6055 53.7962 54.6362 53.8469 54.6672 53.8975C54.7656 54.1563 54.8838 54.4039 55.0948 54.595C55.0835 54.6373 55.0977 54.6709 55.137 54.6906C55.3169 55.0676 55.5167 55.4332 55.7923 55.754L55.798 55.7679C56.4984 56.9549 57.1988 58.1448 57.9582 59.433C58.2873 58.8339 58.532 58.3895 58.7767 57.9422L58.7683 57.9478C58.8048 57.8944 58.8413 57.8409 58.878 57.7876L58.8835 57.7763C58.9651 57.6469 59.0468 57.5175 59.1282 57.3881C59.1479 57.3458 59.1676 57.3065 59.1873 57.2644C59.764 56.4402 60.2674 55.5739 60.7455 54.6935C60.7849 54.6682 60.799 54.6316 60.7935 54.5866C61.2125 54.0325 61.5669 53.4363 61.8622 52.809C61.9157 52.7218 61.9664 52.6346 62.0197 52.5475C62.0535 52.4911 62.0873 52.4349 62.121 52.3787C62.3488 52.1002 62.5541 51.8077 62.6667 51.4589C62.8242 51.3239 62.9227 51.1523 62.9733 50.9497L62.9676 50.9525C63.3671 50.4406 63.6765 49.8752 63.9774 49.3043C64.0197 49.2817 64.0365 49.2452 64.0281 49.1974C64.4922 48.5533 64.8972 47.8726 65.2516 47.1609L65.2488 47.1638C65.6989 46.5674 66.0476 45.9093 66.4077 45.2567C66.4499 45.2315 66.4667 45.1921 66.461 45.1443C66.7762 44.7702 67.0039 44.3427 67.2206 43.9095C67.2627 43.887 67.2797 43.8504 67.2711 43.8027C67.5777 43.42 67.8168 42.9981 68.0305 42.5594C68.0728 42.5369 68.0896 42.5004 68.0812 42.4524C68.2163 42.3371 68.2977 42.1909 68.3344 42.0193C68.4723 41.8786 68.5847 41.7239 68.6269 41.5299C68.8041 41.3695 68.9054 41.1614 68.987 40.942C69.0264 40.9251 69.0432 40.897 69.0319 40.8548C69.0684 40.7929 69.1051 40.7338 69.1416 40.672C69.3695 40.388 69.5719 40.0898 69.6929 39.7438C69.7942 39.6735 69.8757 39.5919 69.8166 39.4541V39.4653C69.9347 39.485 69.9405 39.4034 69.946 39.3247C70.0838 39.184 70.1993 39.0322 70.2442 38.8353C70.3145 38.7285 70.3849 38.6243 70.4552 38.5174C70.4975 38.4893 70.5114 38.4471 70.503 38.3993C70.638 38.2896 70.7309 38.1518 70.7618 37.9774V37.9746C70.9671 37.6764 71.1724 37.3755 71.3974 37.0492C72.0106 38.0084 72.6041 38.9338 73.1976 39.862V39.8648C73.4058 40.3177 73.6588 40.7451 73.9823 41.1277C73.9739 41.1698 73.988 41.2008 74.0274 41.2176C74.061 41.2711 74.0949 41.3218 74.1287 41.3751C74.1484 41.4147 74.1707 41.4512 74.1904 41.4905C74.2185 41.5299 74.2468 41.5722 74.2776 41.6115C74.3086 41.783 74.4015 41.9181 74.5337 42.0277C74.9556 42.7393 75.3465 43.4706 75.8077 44.1542C76.0778 44.5535 76.0526 44.8461 75.7993 45.237C75.2903 46.0274 74.8375 46.8543 74.3621 47.6644C74.334 47.7179 74.3059 47.7741 74.2805 47.8277C74.1988 47.9597 74.1145 48.092 74.0329 48.2243C73.9964 48.2467 73.9823 48.2776 73.9909 48.3199C73.8473 48.4324 73.7573 48.5787 73.7263 48.7585C72.0274 51.5573 70.3201 54.3475 68.6298 57.1518C65.1673 62.8954 61.716 68.6448 58.2591 74.3912C58.1889 74.5065 58.1157 74.6162 58.0031 74.7905C53.5001 67.3086 49.0194 59.8633 44.4964 52.3506C39.9932 59.8522 35.5266 67.2889 31.015 74.8018C29.9629 73.0354 28.9476 71.3309 27.9322 69.6263C23.0717 61.4525 18.2114 53.2759 13.3537 45.1021C13.1962 44.8377 13.0078 44.6127 13.2272 44.2498C14.6589 41.8927 16.0652 39.5189 17.5278 37.0718C22.0114 44.5283 26.4556 51.9173 30.9531 59.3965C35.4534 51.9004 39.8948 44.503 44.381 37.0322C44.7298 37.5583 45.0533 38.0421 45.374 38.5258C45.945 39.6032 46.5807 40.6439 47.2669 41.6536C47.2557 41.6987 47.2698 41.7297 47.3092 41.752C47.835 42.6156 48.3611 43.4764 48.8871 44.3398C48.8787 44.3876 48.8955 44.4243 48.9377 44.4466C49.4271 45.3271 49.9306 46.1991 50.5128 47.026C50.5044 47.0766 50.5212 47.1131 50.5606 47.1441C50.8139 47.552 51.0698 47.9597 51.3229 48.3676C51.3397 48.4099 51.3567 48.4521 51.3735 48.4915C51.441 48.5899 51.5085 48.6884 51.5788 48.7868L51.5733 48.7811C51.6014 48.9724 51.7111 49.1103 51.8461 49.2368C51.9108 49.3465 51.9755 49.4591 52.0401 49.5686C52.1188 49.7797 52.2146 49.9794 52.3946 50.1285L52.3918 50.1228C52.434 50.3254 52.538 50.4942 52.6871 50.6347L52.6927 50.6432C52.7293 50.6994 52.7659 50.7557 52.8024 50.8119C52.7968 50.857 52.8136 50.8906 52.853 50.916C53.2103 51.5686 53.5647 52.2239 54.0175 52.8202L54.0146 52.8174C54.1469 53.1607 54.3382 53.4671 54.5745 53.7484V53.7456Z" fill="#025283"/>
<path d="M37.7067 25.667C39.0483 27.9059 40.3365 30.0519 41.6191 32.1981C42.0073 32.8507 42.6515 33.4949 42.688 34.1727C42.7302 34.8899 41.9989 35.534 41.6023 36.2034C40.4294 38.1864 39.2311 40.1583 38.0582 42.1412C37.7967 42.5856 37.6279 42.6841 37.3213 42.1636C35.8418 39.6575 34.3398 37.1626 32.8349 34.6706C32.6606 34.3837 32.5621 34.1362 32.759 33.807C34.3398 31.2024 35.9064 28.5921 37.4788 25.9849C37.5237 25.9088 37.5799 25.8413 37.7038 25.667H37.7067Z" fill="#04A0E7"/>
<path d="M31.0093 31.6253C29.33 28.8407 27.693 26.1235 26.0476 23.4093C25.9041 23.1731 25.9689 22.9987 26.0926 22.7934C27.6508 20.2084 29.209 17.6264 30.7478 15.033C30.9867 14.6308 31.1048 14.6814 31.3159 15.033C32.8404 17.5841 34.3733 20.1325 35.9063 22.678C36.0779 22.9621 36.1397 23.204 35.9372 23.5387C34.3536 26.1348 32.7982 28.748 31.2316 31.3553C31.1865 31.4285 31.1218 31.4904 31.0093 31.6253Z" fill="#04A0E7"/>
<path d="M29.4593 34.199C29.3776 34.3256 29.3046 34.4381 29.2371 34.5506C27.707 37.0989 26.1685 39.6444 24.6551 42.2041C24.3851 42.6626 24.2698 42.6401 24.011 42.2041C22.4893 39.6473 20.9536 37.0989 19.4066 34.5591C19.2434 34.2919 19.2378 34.1034 19.4038 33.8334C20.9675 31.2513 22.5202 28.6607 24.0645 26.0674C24.2782 25.7073 24.3963 25.727 24.6016 26.0758C26.1572 28.6888 27.7267 31.2963 29.2905 33.9037C29.3469 33.9966 29.3973 34.0922 29.4593 34.2019V34.199Z" fill="#04A0E7"/>
<path d="M31.0261 36.8906C32.0556 38.5924 33.026 40.1957 33.9965 41.8018C34.6433 42.8733 35.2818 43.9507 35.9344 45.0195C36.1003 45.2895 36.1341 45.5118 35.9512 45.8126C34.3958 48.3751 32.8628 50.9487 31.3187 53.5168C31.2428 53.6434 31.1247 53.7475 30.9896 53.905C29.572 51.5478 28.25 49.1852 26.7536 46.935C26.0222 45.8323 26.0167 45.0308 26.7509 43.9254C28.2443 41.6752 29.5692 39.3125 31.0261 36.8906Z" fill="#04A0E7"/>
<path d="M60.7935 36.4851C60.7765 36.4429 60.7596 36.4007 60.7428 36.3584C60.4334 35.7932 60.1606 35.2052 59.7189 34.7214C59.5306 34.3728 59.4967 34.0239 59.7104 33.6724C60.242 33.0057 60.636 32.2547 61.0324 31.5036C61.0691 31.484 61.0859 31.4559 61.0775 31.4136C61.2912 31.228 61.3954 30.9721 61.5191 30.7274C61.5445 30.6739 61.5697 30.6205 61.595 30.567C62.1126 29.8414 62.5796 29.0875 62.9536 28.2775C63.3642 27.8021 63.654 27.2508 63.9268 26.6911C63.9577 26.6321 63.9887 26.573 64.0223 26.5139C64.1152 26.3901 64.2278 26.2748 64.2953 26.137C64.5344 25.6561 64.6975 25.7432 64.9282 26.1595C65.1306 26.5223 65.2854 26.9274 65.6228 27.2059C65.9042 27.8808 66.2951 28.4885 66.7227 29.0763C67.2908 30.1507 67.9013 31.1999 68.6043 32.1927C68.5959 32.2407 68.6101 32.2801 68.6466 32.3109C68.6663 32.4487 68.7337 32.5471 68.866 32.6006H68.8631C68.8828 32.8172 68.9926 32.9831 69.1556 33.1209C69.7464 33.841 69.6958 34.5584 69.1445 35.2727C68.8857 35.4893 68.7702 35.7987 68.6324 36.0912C68.5959 36.1137 68.5846 36.1447 68.5959 36.1869C68.2641 36.561 68.0334 36.997 67.8224 37.4441C67.7858 37.4667 67.7719 37.4976 67.7803 37.5399C67.5553 37.7198 67.4708 37.9899 67.3443 38.2318C67.3191 38.2852 67.2936 38.3414 67.2655 38.3949C66.987 38.648 66.8437 38.98 66.7114 39.3202C66.6495 39.4074 66.5849 39.4948 66.5229 39.5848C66.5004 39.6353 66.4751 39.6888 66.4526 39.7394C66.3345 39.8491 66.2247 39.9644 66.2079 40.1387C66.1882 40.181 66.1714 40.2204 66.1517 40.2626C66.011 40.3639 65.907 40.4904 65.9042 40.676C65.7664 40.7858 65.6651 40.9179 65.6425 41.0979C65.3894 41.4861 65.0941 41.8518 64.8972 42.2652C64.6778 42.7236 64.509 42.6141 64.2869 42.2991V42.2962C64.2869 42.1049 64.163 41.9896 64.0252 41.8828V41.8854C64.0168 41.697 63.9409 41.5507 63.7664 41.4664H63.7693C63.6653 41.1063 63.4711 40.797 63.2151 40.5241C63.2264 40.4792 63.2124 40.4398 63.1731 40.4117C63.0352 40.1219 62.8946 39.835 62.6638 39.6045C62.3741 38.9716 62.0197 38.3781 61.595 37.8268C61.6062 37.7817 61.5894 37.7452 61.5529 37.7171C61.5303 37.5819 61.4684 37.478 61.3335 37.4273H61.3363C61.2406 37.0645 61.0437 36.7635 60.7906 36.4962L60.7935 36.4851Z" fill="#04A0E7"/>
<path d="M55.6289 40.6676C55.6654 40.6479 55.6795 40.617 55.6711 40.5747C55.9888 40.1951 56.2392 39.7732 56.4332 39.3202C56.4699 39.2978 56.4839 39.2669 56.4726 39.2246C56.9227 38.6959 57.1871 38.0489 57.5837 37.4892C57.7074 37.3149 57.7271 36.9829 58.076 37.0335C58.076 37.118 58.1041 37.1797 58.1912 37.2023L58.1744 37.1882C58.1857 37.3036 58.2279 37.3992 58.3432 37.447C58.4416 37.8098 58.6498 38.108 58.8916 38.3836C58.9141 38.4342 58.9338 38.482 58.9564 38.5327C59.021 38.6227 59.0885 38.7099 59.1533 38.7999H59.1504C59.4373 39.4666 59.8339 40.0685 60.2529 40.6563L60.2587 40.6705C60.8268 41.7421 61.4428 42.7828 62.129 43.7841C62.1264 43.8628 62.1545 43.9276 62.2416 43.95L62.2248 43.9389C62.2388 44.0513 62.2781 44.1497 62.3936 44.1948C62.4976 44.4086 62.5819 44.6364 62.7113 44.8333C62.9026 45.1315 63.1079 45.4155 62.9364 45.7925C62.3091 46.6391 61.7859 47.5476 61.3105 48.4871C60.8745 49.0271 60.5259 49.6177 60.2418 50.2506C59.4964 51.3308 58.8241 52.4559 58.2279 53.623C58.1069 53.6624 58.0815 53.7608 58.076 53.8705C57.595 53.7469 57.6147 53.1899 57.2743 52.9423C57.28 52.8609 57.2517 52.799 57.1619 52.7736H57.1758C56.9874 52.3517 56.7737 51.9466 56.4586 51.6007C56.4277 51.5473 56.3939 51.4967 56.3602 51.4432C56.1773 51.0129 55.9636 50.5966 55.6486 50.245C55.6344 50.0621 55.5388 49.93 55.3869 49.8343C55.3588 49.5925 55.2013 49.4266 55.0522 49.2549L55.0466 49.2239C54.9228 48.9567 54.8243 48.6782 54.5797 48.4871C54.1804 47.6179 53.6711 46.8163 53.1143 46.04L53.1227 46.0511C53.1115 45.9358 53.0721 45.8403 52.9568 45.7925C52.7148 45.362 53.0973 45.0751 53.1986 44.7207C53.2352 44.701 53.2493 44.6729 53.2409 44.6335C53.57 44.2539 53.8034 43.8206 54.0143 43.3678L54.02 43.3594C54.6022 42.4931 55.1451 41.6014 55.626 40.676L55.6289 40.6676Z" fill="#04A0E7"/>
<path d="M51.3654 42.558C51.3148 42.5919 51.2613 42.6255 51.2108 42.6594C50.983 42.2795 50.7607 41.8915 50.5215 41.5174C49.6075 40.0745 48.8284 38.5443 47.8298 37.152C47.5851 36.4994 47.2026 35.9143 46.7976 35.3686C46.2293 34.6008 46.0493 33.8949 46.7104 33.1157C46.7273 33.0764 46.7469 33.0341 46.7638 32.9947C46.9972 32.8315 47.0591 32.5587 47.1885 32.3309C47.2336 32.2409 47.2757 32.1508 47.3208 32.0581C47.5794 31.8416 47.7004 31.5405 47.8214 31.2396C47.8833 31.1525 47.9451 31.0651 48.007 30.9808C48.0324 30.9273 48.0576 30.874 48.0829 30.8204C48.4178 30.3676 48.7355 29.9064 48.9239 29.3691C49.3515 28.8769 49.6524 28.303 49.9479 27.7265C49.9647 27.6843 49.9815 27.642 49.9984 27.6C50.4344 27.0627 50.7664 26.4636 51.0617 25.842C51.146 25.8053 51.2305 25.7659 51.3148 25.7266C51.3148 25.7772 51.3374 25.8137 51.3794 25.8363C51.5033 26.0922 51.6298 26.351 51.8492 26.5424C51.8408 26.5873 51.8548 26.6211 51.8915 26.6464C52.499 27.763 53.1263 28.8684 53.8771 29.9007H53.8716C54.032 30.3395 54.2569 30.7417 54.5664 31.0961C54.5916 31.1467 54.6142 31.1974 54.6394 31.2509C54.7014 31.3381 54.766 31.4252 54.8279 31.5124C55.1177 32.1482 55.4663 32.7501 55.8968 33.3042C55.8884 33.3436 55.9023 33.3744 55.9362 33.3914C56.3525 33.9342 56.2961 34.4714 55.9249 35.0087C55.8911 35.02 55.88 35.0452 55.8911 35.0762C55.4663 35.6387 55.0867 36.2267 54.8166 36.8819C53.6437 38.6231 52.5861 40.4344 51.5736 42.274C51.4387 42.3218 51.3907 42.4344 51.3513 42.558H51.3654Z" fill="#04A0E7"/>
<path d="M60.7343 19.1168C60.7792 19.2068 60.8214 19.2968 60.8664 19.3896C61.4373 20.391 61.983 21.4064 62.6666 22.3402C63.08 22.8775 62.9957 23.4091 62.6553 23.9407C61.3108 25.9603 60.1042 28.0614 58.8975 30.1624C58.6613 30.3874 58.5431 30.6856 58.394 30.9641C58.3772 31.0064 58.3602 31.0484 58.3434 31.0907C58.1381 31.1723 58.1633 31.507 57.8906 31.5154C57.4995 30.919 57.117 30.3284 56.7316 29.7406C56.7177 29.6983 56.7035 29.659 56.6867 29.6167C56.4195 29.1555 56.172 28.6858 55.885 28.2385C54.9794 26.8181 54.22 25.3077 53.2298 23.9407C52.7741 23.3078 52.8896 22.7228 53.3761 22.1658C53.4296 22.1039 53.4435 22.0083 53.4745 21.9267V21.9183C53.5926 21.8086 53.7107 21.7017 53.722 21.5245C53.8121 21.3417 54.0258 21.2292 54.0231 20.9929C54.8949 19.6822 55.722 18.3405 56.4531 16.9454C56.8555 16.456 57.1508 15.9019 57.4349 15.3393C57.463 15.2831 57.4939 15.2268 57.522 15.1705C57.8709 14.5939 58.0762 14.7908 58.3462 15.2662C58.8524 16.155 59.4178 17.0073 59.9578 17.8764C59.9804 17.9298 60.0029 17.9805 60.0255 18.0339C60.0901 18.1211 60.1547 18.2083 60.2224 18.2927C60.3405 18.5965 60.4642 18.8946 60.723 19.114L60.7343 19.1168Z" fill="#04A0E7"/>
</svg>
