<svg width="70" height="70" viewBox="0 0 70 70" fill="none" xmlns="http://www.w3.org/2000/svg">
<path d="M37.8452 17.5932C37.9918 17.7965 38.2187 17.8438 38.441 17.8816C39.2779 18.0187 40.0817 18.2693 40.8572 18.5909C41.9022 19.0212 42.8715 19.6075 43.7321 20.3309C44.4461 20.9362 45.0986 21.6124 45.6708 22.3595C46.0869 22.9032 46.5077 23.4375 46.7867 24.0664C47.1791 24.9459 47.5149 25.8491 47.704 26.7947C47.7749 27.1447 47.808 27.504 47.8364 27.8634C47.8695 28.2795 47.8742 28.6956 47.8931 29.1164C47.9357 30.0858 47.8128 31.0362 47.6378 31.9819C47.5811 32.2892 47.5196 32.5918 47.4676 32.8992C47.4534 32.9843 47.4534 33.0694 47.4487 33.1829C47.6142 33.1924 47.756 33.2113 47.9026 33.2113C49.5197 33.2018 51.1369 33.1829 52.754 33.1782C53.3309 33.1782 53.9125 33.1971 54.4893 33.2065C54.6785 33.2065 54.8582 33.2349 55 33.3389C54.5461 34.3934 54.1063 35.4431 53.643 36.4786C53.1985 37.4716 52.7776 38.4788 52.2244 39.4197C51.8603 40.0392 51.4726 40.6491 51.0754 41.2496C50.7586 41.7272 50.4323 42.2048 50.0682 42.6493C49.3495 43.5335 48.7017 44.4745 47.8648 45.2594C47.4723 45.6235 47.1177 46.0301 46.711 46.38C45.8552 47.1271 44.9473 47.8033 43.9638 48.3754C43.2545 48.7868 42.5216 49.1556 41.7887 49.5292C41.2591 49.7987 40.7201 50.0635 40.1668 50.2857C39.8453 50.4134 39.4859 50.456 39.1455 50.5316C38.9658 50.5742 38.7767 50.5978 38.6017 50.6593C37.4149 51.0659 36.1855 51.3213 34.9514 51.534C34.5258 51.605 34.105 51.6854 33.6794 51.7705C32.9559 51.917 32.2136 51.9123 31.4807 51.9218C30.5113 51.936 29.5373 51.9218 28.5679 51.8792C28.1424 51.8603 27.7121 51.7799 27.2913 51.6853C26.2983 51.4584 25.3148 51.1889 24.3691 50.8106C23.6882 50.5411 23.0404 50.1959 22.4115 49.8082C21.9717 49.5386 21.5036 49.2975 21.097 48.9854C19.6784 47.8979 18.5011 46.607 17.6783 45.004C16.9454 43.5808 16.4536 42.0913 16.1936 40.5167C15.995 39.3204 15.9808 38.1194 15.9902 36.9136C15.9902 36.4455 15.9855 35.9821 15.9902 35.514C15.9997 34.6062 16.1888 33.7219 16.3732 32.8377C16.6191 31.6745 16.9832 30.5444 17.4513 29.4521C18.0187 28.1282 18.7469 26.8846 19.6075 25.7167C20.208 24.8986 20.8275 24.0995 21.532 23.3666C22.1751 22.6952 22.8512 22.071 23.5889 21.4989C24.4164 20.8653 25.3148 20.3593 26.2179 19.8486C26.2936 19.8061 26.3787 19.7824 26.459 19.7446C26.7049 19.6264 26.9413 19.4987 27.192 19.39C27.3906 19.3049 27.5986 19.2481 27.8019 19.1819C27.9012 19.1488 28.0194 19.1394 28.1045 19.0826C28.3457 18.9219 28.6105 18.8415 28.8895 18.7753C29.6602 18.5909 30.4215 18.3781 31.197 18.2031C31.7218 18.0849 32.2561 18.0045 32.7857 17.91C33.0742 17.858 33.0742 17.8627 33.1214 17.5884H37.831L37.8452 17.5932ZM45.6377 34.7858C45.406 34.4359 45.0608 34.3792 44.7818 34.6298C44.6825 34.7196 44.5927 34.8284 44.5123 34.9372C44.2428 35.3154 43.978 35.7032 43.7085 36.0862C43.5477 36.3179 43.3964 36.5637 43.2072 36.7671C42.6587 37.3629 42.1102 37.9586 41.5239 38.5213C40.8383 39.1833 40.0534 39.7176 39.2022 40.1432C38.37 40.5593 37.5284 40.9517 36.6725 41.3111C35.8687 41.6516 35.0365 41.9211 34.1712 42.0346C33.5706 42.1102 32.9607 42.0913 32.3507 42.096C32.0386 42.096 31.7171 42.096 31.4145 42.044C30.4735 41.8785 29.5751 41.5901 28.7523 41.0841C27.9107 40.5687 27.2723 39.8784 26.8752 38.98C26.4969 38.1289 26.2983 37.2305 26.2274 36.3037C26.1517 35.2823 26.2132 34.2846 26.6671 33.3437C27.0312 32.5777 27.4426 31.84 27.9391 31.1497C28.1329 30.8801 28.3362 30.6201 28.5679 30.3836C29.211 29.7406 29.9723 29.2866 30.814 28.932C31.7502 28.5395 32.7101 28.3977 33.7125 28.4308C34.0719 28.4403 34.417 28.5159 34.7338 28.6814C35.3249 28.9935 35.793 29.4238 35.9301 30.1094C36.0484 30.7194 36.1193 31.3388 35.9963 31.963C35.9396 32.2561 35.9112 32.5587 35.8734 32.8566C35.8403 33.112 35.8781 33.164 36.1429 33.2018C36.2564 33.2207 36.3794 33.2207 36.4928 33.2207C38.0107 33.2113 39.5332 33.1971 41.0511 33.1924C42.2095 33.1924 43.3633 33.2018 44.5218 33.2065C44.9237 33.2065 45.3256 33.2207 45.7275 33.2113C46.0727 33.2065 46.1105 33.1734 46.1531 32.8377C46.3044 31.632 46.451 30.4262 46.4415 29.211C46.4415 28.7665 46.4226 28.3173 46.3753 27.8728C46.2997 27.1825 46.0869 26.5252 45.841 25.8774C45.6424 25.3478 45.3918 24.8419 45.023 24.4021C44.692 24.0097 44.3515 23.6172 43.9969 23.2389C43.8172 23.0498 43.6186 22.8701 43.4011 22.7235C42.2994 21.9623 41.1078 21.3712 39.8075 21.0355C39.0888 20.8511 38.3511 20.7045 37.6135 20.6288C36.8948 20.5532 36.1618 20.5816 35.4384 20.591C34.6629 20.6005 33.8969 20.7234 33.1404 20.8889C31.9441 21.1537 30.8471 21.6738 29.7926 22.2791C28.5112 23.0167 27.3244 23.882 26.2605 24.9223C25.4141 25.7498 24.6102 26.6056 23.9151 27.5655C23.7686 27.7688 23.5983 27.9627 23.4754 28.1849C23.1018 28.8658 22.7188 29.5467 22.3878 30.2465C21.967 31.126 21.6549 32.0481 21.48 33.0079C21.3523 33.6936 21.3003 34.3934 21.2105 35.0885C21.0591 36.2706 21.2341 37.4338 21.4611 38.5922C21.5982 39.2921 21.8914 39.9399 22.2223 40.5687C22.6337 41.3489 23.1302 42.0677 23.8206 42.6351C24.0333 42.81 24.2319 42.9944 24.44 43.1694C24.8325 43.5051 25.2344 43.8314 25.7214 44.03C26.1895 44.2238 26.6482 44.4461 27.1258 44.621C27.9201 44.9095 28.7382 45.0892 29.594 45.1033C30.7525 45.1175 31.9062 45.0371 33.06 44.9284C33.5186 44.8858 33.9726 44.8054 34.4218 44.7156C34.6866 44.6636 34.9419 44.5312 35.2067 44.4792C35.8403 44.361 36.3888 44.0252 37.0035 43.8503C37.0839 43.8267 37.1548 43.7652 37.2352 43.7226C37.3203 43.6753 37.4054 43.6186 37.4953 43.5902C37.8263 43.4862 38.1147 43.3113 38.4079 43.1363C39.0698 42.7486 39.6845 42.2994 40.2661 41.8076C41.4624 40.8004 42.5642 39.6987 43.4862 38.4268C44.0915 37.5898 44.6683 36.734 45.1365 35.8119C45.3067 35.4762 45.4674 35.131 45.6329 34.7811L45.6377 34.7858Z" fill="white"/>
</svg>
