<svg width="90" height="90" viewBox="0 0 90 90" fill="none" xmlns="http://www.w3.org/2000/svg">
<path d="M7.341 51.17C6.12833 51.17 5.10833 50.9263 4.281 50.439C3.465 49.9403 2.84733 49.2263 2.428 48.297C2.02 47.3677 1.816 46.24 1.816 44.914V44.829C1.816 43.775 1.952 42.8513 2.224 42.058C2.50733 41.2533 2.90967 40.5847 3.431 40.052C3.95233 39.5193 4.58133 39.1227 5.318 38.862C6.05467 38.59 6.87067 38.454 7.766 38.454C8.77467 38.454 9.67 38.624 10.452 38.964C11.234 39.2927 11.8687 39.763 12.356 40.375C12.8433 40.9757 13.1267 41.6897 13.206 42.517H11.234C11.1207 42.007 10.8997 41.5763 10.571 41.225C10.2537 40.8623 9.85133 40.5903 9.364 40.409C8.888 40.2277 8.34967 40.137 7.749 40.137C6.88767 40.137 6.168 40.3013 5.59 40.63C5.012 40.9473 4.57567 41.395 4.281 41.973C3.99767 42.5397 3.856 43.1913 3.856 43.928V45.73C3.856 46.3533 3.941 46.903 4.111 47.379C4.29233 47.8437 4.54733 48.2403 4.876 48.569C5.216 48.8863 5.61833 49.1243 6.083 49.283C6.54767 49.4417 7.05767 49.521 7.613 49.521C8.395 49.521 9.058 49.3793 9.602 49.096C10.146 48.8127 10.5597 48.4103 10.843 47.889C11.1263 47.3563 11.268 46.7273 11.268 46.002V45.288L11.948 45.968H7.8V44.54H13.291V51H11.846L11.693 48.569H11.608C11.438 49.0903 11.149 49.5493 10.741 49.946C10.333 50.3313 9.83433 50.6317 9.245 50.847C8.667 51.0623 8.03233 51.17 7.341 51.17ZM16.2251 51V43.605C16.2251 43.1063 16.3724 42.721 16.6671 42.449C16.9618 42.1657 17.3471 42.024 17.8231 42.024H21.4951V43.52H18.0441V51H16.2251ZM26.782 51.17C25.8413 51.17 25.0593 50.983 24.436 50.609C23.824 50.235 23.365 49.7023 23.059 49.011C22.753 48.3197 22.5943 47.5037 22.583 46.563V46.495C22.583 45.441 22.7586 44.574 23.11 43.894C23.4613 43.2027 23.9486 42.6927 24.572 42.364C25.2066 42.024 25.9433 41.854 26.782 41.854C27.6206 41.854 28.3516 42.024 28.975 42.364C29.5983 42.6927 30.0856 43.2027 30.437 43.894C30.7883 44.574 30.964 45.441 30.964 46.495V46.563C30.964 47.5037 30.811 48.3197 30.505 49.011C30.199 49.7023 29.7343 50.235 29.111 50.609C28.499 50.983 27.7226 51.17 26.782 51.17ZM26.782 49.674C27.2693 49.674 27.683 49.5833 28.023 49.402C28.3743 49.2207 28.6406 48.96 28.822 48.62C29.0033 48.2687 29.094 47.8493 29.094 47.362V45.662C29.094 45.1973 28.9976 44.795 28.805 44.455C28.6236 44.1037 28.3573 43.8317 28.006 43.639C27.666 43.4463 27.258 43.35 26.782 43.35C26.306 43.35 25.8923 43.4463 25.541 43.639C25.1896 43.8317 24.9176 44.1037 24.725 44.455C24.5436 44.795 24.453 45.1973 24.453 45.662V47.362C24.453 47.8493 24.5436 48.2687 24.725 48.62C24.9176 48.96 25.184 49.2207 25.524 49.402C25.8753 49.5833 26.2946 49.674 26.782 49.674ZM37.9005 51.153C37.2658 51.153 36.6992 51.0057 36.2005 50.711C35.7018 50.405 35.3505 49.9913 35.1465 49.47H35.0275L34.9255 51H33.2085V38.607H35.0275V43.537H35.1465C35.3618 43.0157 35.7188 42.6077 36.2175 42.313C36.7162 42.007 37.2828 41.854 37.9175 41.854C38.7108 41.854 39.3625 42.0353 39.8725 42.398C40.3825 42.7493 40.7622 43.265 41.0115 43.945C41.2722 44.6137 41.4025 45.4183 41.4025 46.359V46.597C41.4025 47.3677 41.3232 48.042 41.1645 48.62C41.0058 49.1867 40.7735 49.6627 40.4675 50.048C40.1615 50.422 39.7932 50.6997 39.3625 50.881C38.9432 51.0623 38.4558 51.153 37.9005 51.153ZM37.2375 49.674C37.7022 49.674 38.0988 49.5833 38.4275 49.402C38.7562 49.2093 39.0055 48.943 39.1755 48.603C39.3568 48.2517 39.4475 47.8323 39.4475 47.345V45.662C39.4475 45.1633 39.3568 44.744 39.1755 44.404C39.0055 44.064 38.7562 43.8033 38.4275 43.622C38.0988 43.4407 37.7022 43.35 37.2375 43.35C36.5575 43.35 36.0192 43.571 35.6225 44.013C35.2258 44.4437 35.0275 45.0217 35.0275 45.747V47.26C35.0275 47.7473 35.1182 48.1723 35.2995 48.535C35.4808 48.8977 35.7358 49.181 36.0645 49.385C36.3932 49.5777 36.7842 49.674 37.2375 49.674ZM47.1189 51.17C46.1782 51.17 45.3962 50.983 44.7729 50.609C44.1609 50.235 43.7019 49.7023 43.3959 49.011C43.0899 48.3197 42.9312 47.5037 42.9199 46.563V46.495C42.9199 45.441 43.0955 44.574 43.4469 43.894C43.7982 43.2027 44.2855 42.6927 44.9089 42.364C45.5435 42.024 46.2802 41.854 47.1189 41.854C47.9575 41.854 48.6885 42.024 49.3119 42.364C49.9352 42.6927 50.4225 43.2027 50.7739 43.894C51.1252 44.574 51.3009 45.441 51.3009 46.495V46.563C51.3009 47.5037 51.1479 48.3197 50.8419 49.011C50.5359 49.7023 50.0712 50.235 49.4479 50.609C48.8359 50.983 48.0595 51.17 47.1189 51.17ZM47.1189 49.674C47.6062 49.674 48.0199 49.5833 48.3599 49.402C48.7112 49.2207 48.9775 48.96 49.1589 48.62C49.3402 48.2687 49.4309 47.8493 49.4309 47.362V45.662C49.4309 45.1973 49.3345 44.795 49.1419 44.455C48.9605 44.1037 48.6942 43.8317 48.3429 43.639C48.0029 43.4463 47.5949 43.35 47.1189 43.35C46.6429 43.35 46.2292 43.4463 45.8779 43.639C45.5265 43.8317 45.2545 44.1037 45.0619 44.455C44.8805 44.795 44.7899 45.1973 44.7899 45.662V47.362C44.7899 47.8493 44.8805 48.2687 45.0619 48.62C45.2545 48.96 45.5209 49.2207 45.8609 49.402C46.2122 49.5833 46.6315 49.674 47.1189 49.674ZM56.3164 51.17C55.5344 51.17 54.8827 50.9887 54.3614 50.626C53.8401 50.2633 53.4491 49.7477 53.1884 49.079C52.9391 48.4103 52.8144 47.6057 52.8144 46.665V46.41C52.8144 45.6393 52.8937 44.9707 53.0524 44.404C53.2111 43.8373 53.4434 43.367 53.7494 42.993C54.0554 42.6077 54.4237 42.3243 54.8544 42.143C55.2964 41.9503 55.7837 41.854 56.3164 41.854C56.9624 41.854 57.5291 42.007 58.0164 42.313C58.5151 42.6077 58.8721 43.0157 59.0874 43.537H59.2064L59.2914 42.024H61.0254V51H59.2064V49.504H59.0874C58.8607 50.0027 58.4981 50.405 57.9994 50.711C57.5121 51.017 56.9511 51.17 56.3164 51.17ZM56.9964 49.674C57.6764 49.674 58.2091 49.4587 58.5944 49.028C58.9911 48.586 59.1894 48.0023 59.1894 47.277V45.764C59.1894 45.2653 59.0987 44.8403 58.9174 44.489C58.7474 44.1263 58.4981 43.8487 58.1694 43.656C57.8407 43.452 57.4497 43.35 56.9964 43.35C56.5317 43.35 56.1351 43.4407 55.8064 43.622C55.4777 43.8033 55.2227 44.0697 55.0414 44.421C54.8601 44.7723 54.7694 45.1917 54.7694 45.679V47.362C54.7694 47.8493 54.8601 48.263 55.0414 48.603C55.2227 48.943 55.4777 49.2093 55.8064 49.402C56.1351 49.5833 56.5317 49.674 56.9964 49.674ZM63.9712 51V43.605C63.9712 43.1063 64.1185 42.721 64.4132 42.449C64.7079 42.1657 65.0932 42.024 65.5692 42.024H69.2412V43.52H65.7902V51H63.9712ZM73.8311 51.153C73.0491 51.153 72.3974 50.9717 71.8761 50.609C71.3547 50.2463 70.9637 49.725 70.7031 49.045C70.4537 48.365 70.3291 47.549 70.3291 46.597V46.359C70.3291 45.5883 70.4084 44.9197 70.5671 44.353C70.7257 43.7863 70.9581 43.3217 71.2641 42.959C71.5701 42.585 71.9384 42.3073 72.3691 42.126C72.7997 41.9447 73.2871 41.854 73.8311 41.854C74.4657 41.854 75.0267 42.007 75.5141 42.313C76.0127 42.6077 76.3754 43.0157 76.6021 43.537H76.7211V38.607H78.5401V51H76.8061L76.7211 49.47H76.6021C76.3867 49.9913 76.0297 50.405 75.5311 50.711C75.0437 51.0057 74.4771 51.153 73.8311 51.153ZM74.5111 49.674C75.1911 49.674 75.7237 49.4587 76.1091 49.028C76.5057 48.586 76.7041 47.9967 76.7041 47.26V45.747C76.7041 45.2597 76.6134 44.8403 76.4321 44.489C76.2621 44.1263 76.0127 43.8487 75.6841 43.656C75.3554 43.452 74.9644 43.35 74.5111 43.35C74.0464 43.35 73.6497 43.4407 73.3211 43.622C72.9924 43.8033 72.7374 44.064 72.5561 44.404C72.3747 44.744 72.2841 45.1633 72.2841 45.662V47.345C72.2841 47.8323 72.3747 48.2517 72.5561 48.603C72.7374 48.943 72.9924 49.2093 73.3211 49.402C73.6497 49.5833 74.0464 49.674 74.5111 49.674ZM84.4604 51.17C83.6558 51.17 82.9758 51.0453 82.4204 50.796C81.8651 50.5467 81.4458 50.201 81.1624 49.759C80.8791 49.3057 80.7374 48.7843 80.7374 48.195H82.4884C82.4998 48.7957 82.6924 49.232 83.0664 49.504C83.4404 49.7647 83.9278 49.895 84.5284 49.895C85.1404 49.895 85.5881 49.7703 85.8714 49.521C86.1548 49.2717 86.2964 48.9657 86.2964 48.603C86.2964 48.3197 86.2511 48.093 86.1604 47.923C86.0698 47.7417 85.9338 47.6 85.7524 47.498C85.5711 47.396 85.3444 47.3167 85.0724 47.26C84.8118 47.192 84.5001 47.124 84.1374 47.056C83.7861 47.0107 83.4234 46.9427 83.0494 46.852C82.6868 46.75 82.3468 46.6083 82.0294 46.427C81.7234 46.2343 81.4741 45.9907 81.2814 45.696C81.1001 45.39 81.0094 45.0047 81.0094 44.54C81.0094 43.962 81.1511 43.4747 81.4344 43.078C81.7291 42.67 82.1371 42.364 82.6584 42.16C83.1911 41.956 83.7918 41.854 84.4604 41.854C85.1631 41.854 85.7694 41.9673 86.2794 42.194C86.8008 42.4093 87.2088 42.7267 87.5034 43.146C87.7981 43.554 87.9511 44.0413 87.9624 44.608L86.2284 44.591C86.2284 44.2623 86.1548 43.9903 86.0074 43.775C85.8601 43.5483 85.6504 43.3783 85.3784 43.265C85.1178 43.1517 84.8061 43.095 84.4434 43.095C83.8881 43.095 83.4744 43.2083 83.2024 43.435C82.9304 43.6617 82.7944 43.962 82.7944 44.336C82.7944 44.6533 82.8851 44.9027 83.0664 45.084C83.2591 45.254 83.5084 45.3787 83.8144 45.458C84.1318 45.5373 84.4774 45.6053 84.8514 45.662C85.2481 45.7073 85.6391 45.781 86.0244 45.883C86.4211 45.9737 86.7781 46.1153 87.0954 46.308C87.4241 46.4893 87.6791 46.75 87.8604 47.09C88.0531 47.43 88.1494 47.872 88.1494 48.416C88.1494 49.0053 87.9964 49.504 87.6904 49.912C87.3958 50.32 86.9708 50.6317 86.4154 50.847C85.8714 51.0623 85.2198 51.17 84.4604 51.17Z" fill="white"/>
</svg>
