<svg width="70" height="70" viewBox="0 0 70 70" fill="none" xmlns="http://www.w3.org/2000/svg">
<path d="M53.6728 39.3608C53.5903 39.2883 53.4836 39.3068 53.3884 39.2902C52.5652 39.1453 52.1574 38.7175 52.053 37.8866C52.0129 37.5671 52.0094 37.2469 52.0098 36.9262C52.0117 35.2705 52.0129 33.6149 52.0167 31.9588C52.0175 31.6628 52.0549 31.3703 52.137 31.0855C52.3119 30.4769 52.7525 30.1875 53.3467 30.0769C53.4812 30.0518 53.6246 30.0727 53.7499 30.001H62.2656C62.3824 30.0742 62.5189 30.053 62.6453 30.0738C63.391 30.1971 63.7799 30.5714 63.9333 31.3163C63.9514 31.4038 63.9252 31.5063 63.9996 31.5803V37.8203C63.9252 37.8789 63.946 37.9703 63.9306 38.045C63.7822 38.7661 63.3949 39.15 62.6819 39.2818C62.5431 39.3076 62.3967 39.2945 62.2656 39.3612H53.6728V39.3608ZM57.9989 37.5571V37.556C59.1863 37.556 60.3737 37.554 61.5611 37.5587C61.6868 37.559 61.7361 37.5413 61.7357 37.3972C61.7303 35.5684 61.7311 33.7397 61.7346 31.911C61.7346 31.7834 61.7107 31.736 61.5688 31.7364C59.2002 31.7414 56.8319 31.7414 54.4632 31.7376C54.326 31.7376 54.2779 31.7622 54.2782 31.9133C54.284 33.7355 54.2848 35.558 54.2779 37.3802C54.2771 37.5467 54.3395 37.5598 54.4748 37.5594C55.6495 37.5552 56.8242 37.5571 57.9989 37.5571Z" fill="white"/>
<path d="M8.32065 39.3602H6.04718C6.04487 39.3155 6.04102 39.2708 6.04102 39.2261C6.04102 36.1953 6.04102 33.1649 6.04102 30.1341C6.04102 30.0894 6.04526 30.0447 6.04718 30H8.32065C8.31872 31.1219 8.32065 32.2442 8.30986 33.3661C8.30832 33.5295 8.3669 33.5464 8.50487 33.5464C10.6924 33.5426 12.8799 33.5437 15.0671 33.5437C15.2577 33.5437 15.3532 33.445 15.3534 33.2474C15.3534 32.2342 15.3534 31.2209 15.3542 30.2077C15.3542 30.1384 15.3368 30.0667 15.3719 30H17.6068C17.6404 30.0601 17.6246 30.1256 17.6246 30.1885C17.6253 33.1826 17.6253 36.1772 17.6246 39.1713C17.6246 39.2342 17.6404 39.2997 17.6068 39.3598H15.3719C15.3368 39.2931 15.3546 39.2211 15.3542 39.1517C15.353 37.9708 15.3538 36.79 15.3526 35.6091C15.3526 35.5212 15.39 35.4206 15.2228 35.421C12.9628 35.426 10.7032 35.4249 8.44321 35.4222C8.34532 35.4222 8.31217 35.4434 8.31256 35.5482C8.31795 36.8189 8.31872 38.0891 8.32026 39.3598L8.32065 39.3602Z" fill="white"/>
<path d="M27.316 30C28.8722 32.6473 30.4289 35.2946 31.9851 37.9423C32.2352 38.3678 32.4854 38.7936 32.7347 39.2195C32.7601 39.2631 32.7944 39.3043 32.7875 39.3602H30.514C30.5252 39.2962 30.4836 39.2511 30.4562 39.2018C29.2553 37.0181 28.0537 34.8344 26.8516 32.6515C26.6832 32.3455 26.5109 32.0411 26.3248 31.7077C26.2704 31.8029 26.2319 31.8676 26.1956 31.9335C25.2649 33.6224 24.3334 35.3112 23.4042 37.0008C22.9722 37.7862 22.544 38.574 22.1139 39.3606H19.879C19.8389 39.2939 19.8967 39.2538 19.9237 39.208C21.4209 36.6601 22.9194 34.113 24.4178 31.5659C24.6972 31.0907 24.9759 30.6151 25.2537 30.1391C25.2788 30.096 25.3173 30.057 25.3123 30.0004C25.9802 30.0004 26.6481 30.0004 27.316 30.0004V30Z" fill="#0498C1"/>
<path d="M42.8843 30C42.8504 30.0601 42.8665 30.1256 42.8665 30.1885C42.8658 32.593 42.8677 34.9979 42.8619 37.4024C42.8615 37.565 42.9039 37.5985 43.0616 37.5981C45.3516 37.5924 47.6416 37.5966 49.9317 37.5897C50.1059 37.5893 50.1429 37.6359 50.1386 37.802C50.1252 38.3211 50.1302 38.8403 50.1282 39.3598H40.5723V30H42.8843Z" fill="white"/>
<path d="M37.2969 30V39.3602H35.0234C35.0254 39.1683 35.0284 38.9759 35.0284 38.784C35.0284 35.9328 35.0284 33.0817 35.0284 30.2309C35.0284 30.1542 35.025 30.0771 35.0234 30.0004C35.7811 30.0004 36.5392 30.0004 37.2969 30.0004V30Z" fill="#0498C1"/>
<path d="M6.04679 30.0001C6.04447 30.0448 6.04062 30.0895 6.04062 30.1342C6.04062 33.165 6.04062 36.1954 6.04062 39.2261C6.04062 39.2708 6.04486 39.3155 6.04679 39.3603C5.97086 39.366 6.01017 39.3075 6.01017 39.2836C6.00825 36.2146 6.00825 33.1461 6.01017 30.0771C6.01017 30.0529 5.97086 29.9943 6.04679 30.0005V30.0001Z" fill="#0498C1"/>
</svg>
