<svg width="90" height="90" viewBox="0 0 90 90" fill="none" xmlns="http://www.w3.org/2000/svg">
<path d="M44.3465 18.1812C31.853 18.1812 21.7214 20.5537 21.7214 23.4714C21.7214 26.389 31.853 28.7616 44.3465 28.7616C56.8401 28.7616 66.9717 26.389 66.9717 23.4714C66.9717 20.5537 56.8401 18.1812 44.3465 18.1812ZM44.3465 26.0791C34.2042 26.0791 25.9856 24.5615 25.9856 22.6805C25.9856 20.7996 34.2042 19.282 44.3465 19.282C54.4888 19.282 62.7074 20.7996 62.7074 22.6805C62.7074 24.5615 54.4888 26.0791 44.3465 26.0791Z" fill="#193964"/>
<path d="M51.2284 32.7162H37.9547L18.3434 71.6396H29.6613L34.0324 62.8866H54.7018L58.4744 71.6396H71L51.2391 32.7162H51.2284ZM37.3027 56.3994L44.3457 41.7149L51.6879 56.3994H37.3027Z" fill="#193964"/>
</svg>
