<svg width="90" height="90" viewBox="0 0 90 90" fill="none" xmlns="http://www.w3.org/2000/svg">
<path d="M34.5741 29.5112C34.5741 27.8394 34.606 26.4049 34.5604 24.9703C34.5398 24.3613 34.7246 24.0101 35.2651 23.7067C37.9131 22.2265 40.5474 20.7189 43.1634 19.1862C43.631 18.9126 43.9503 18.9559 44.395 19.2159C47.0179 20.7417 49.6522 22.2447 52.3001 23.725C52.7973 24.0032 52.9821 24.3271 52.9707 24.8927C52.9365 26.585 52.9593 28.2774 52.9593 30.143C54.59 29.2079 56.0725 28.3823 57.5276 27.5133C57.9998 27.2305 58.3647 27.1963 58.8733 27.4745C61.633 28.9867 64.4064 30.4737 67.2003 31.9174C67.8709 32.2641 67.8435 32.515 67.4444 33.0715C65.3005 36.0639 63.2204 39.1018 61.0583 42.0805C60.593 42.7237 60.5633 43.2255 60.8439 43.9325C63.542 50.7269 66.1922 57.5418 68.9018 64.3316C69.2097 65.1002 69.0888 65.4127 68.3635 65.7776C65.6221 67.1598 62.9034 68.5875 60.2052 70.0563C59.5461 70.4144 59.0808 70.3711 58.4491 70.0016C55.9311 68.5259 53.3881 67.0868 50.8199 65.6978C50.1289 65.3238 49.7274 64.8425 49.4857 64.1218C49.1002 62.9723 48.6258 61.8547 48.2495 60.7029C48.0328 60.0438 47.7569 59.9868 47.2095 60.3517C46.5777 60.7714 45.8501 61.0519 45.2526 61.5103C44.2012 62.32 43.2752 62.2721 42.2146 61.4875C41.3365 60.8375 40.2896 60.4201 39.3773 59.8112C38.4605 59.1976 38.3578 59.5625 38.3852 60.4361C38.4331 61.8387 38.3761 63.246 38.4103 64.6509C38.4217 65.1732 38.2552 65.4606 37.7899 65.7229C35.11 67.2259 32.4461 68.7563 29.7959 70.3095C29.3329 70.5809 29.0067 70.5421 28.5665 70.2844C25.9459 68.7563 23.3139 67.2464 20.6683 65.7639C20.1688 65.4834 20 65.1687 20.0023 64.603C20.0182 54.1594 20.0205 43.7181 20 33.2745C20 32.6519 20.2053 32.3417 20.7367 32.0452C23.5511 30.4737 26.3519 28.8772 29.123 27.235C29.7115 26.8861 30.1175 26.9454 30.6534 27.2715C31.8782 28.0151 33.1372 28.6993 34.5786 29.5204L34.5741 29.5112ZM28.6646 40.3745C28.6646 36.7663 28.6395 33.3885 28.6806 30.013C28.692 29.0437 28.4411 29.0095 27.6862 29.4565C25.7635 30.5992 23.818 31.7008 21.8634 32.7864C21.3685 33.0601 21.186 33.3817 21.1883 33.9519C21.2042 43.4034 21.2065 52.8571 21.1837 62.3086C21.1837 63.1616 21.4164 63.1912 22.0664 62.8081C23.9617 61.6951 25.8593 60.5843 27.7888 59.5329C28.4046 59.1976 28.6418 58.8145 28.6304 58.112C28.5916 55.683 28.8471 53.2243 28.5529 50.8318C28.2062 47.9945 29.1732 46.3068 31.8052 45.2918C33.1509 44.7741 34.3551 43.896 35.8057 43.0772V54.9189C38.0226 53.6485 40.0616 52.4283 42.1553 51.3108C42.9376 50.8934 43.1862 50.403 43.1839 49.5295C43.152 40.3426 43.1634 31.1557 43.1588 21.9688C43.1588 21.5765 43.1246 21.1842 43.0995 20.6414C40.7093 22.0121 38.4901 23.3053 36.2459 24.5552C35.719 24.8494 35.7806 25.269 35.7806 25.7183C35.7806 28.9456 35.7829 32.1706 35.7783 35.3979C35.7783 35.8335 35.8809 36.2669 35.3404 36.5679C33.1623 37.7767 31.0092 39.0311 28.6646 40.3722V40.3745ZM66.8924 63.3007C67.1137 62.7875 66.7875 62.4409 66.6461 62.0805C64.2468 55.9111 61.8474 49.7416 59.4001 43.5904C59.1264 42.9016 59.1721 42.434 59.5872 41.8433C61.5486 39.0494 63.4371 36.2053 65.4145 33.425C65.9208 32.7134 65.7635 32.4511 65.0678 32.1045C63.2022 31.1762 61.3411 30.232 59.5301 29.2033C58.6749 28.7175 58.221 28.8407 57.5869 29.6025C55.7578 31.8011 53.81 33.8994 51.7345 36.2326C51.7345 33.5687 51.7527 31.1876 51.7277 28.8042C51.7117 27.4814 52.2135 25.9122 51.5361 24.9064C50.8678 23.912 49.383 23.449 48.2267 22.8058C46.9905 22.117 45.8205 21.2891 44.4748 20.7622C44.4315 20.9265 44.3927 20.9994 44.3927 21.0724C44.3836 30.7178 44.3768 40.3654 44.3699 50.0107C44.3699 50.3551 44.3608 50.7178 44.7098 50.9185C46.9974 52.2322 49.2872 53.5413 51.7345 54.9394V41.0314C52.0378 41.3324 52.1884 41.6609 52.3207 41.9984C54.4098 47.3171 56.4922 52.6382 58.5882 57.9523C58.7889 58.4632 58.8733 59.0539 59.4526 59.3573C61.9318 60.6596 64.4041 61.9779 66.8947 63.3007H66.8924ZM35.7965 56.3398C38.4171 57.8337 40.9077 59.2455 43.3892 60.6778C43.7062 60.8603 43.9366 60.8033 44.224 60.6391C46.6781 59.2273 49.1367 57.8269 51.7322 56.3421C49.1162 54.8368 46.6279 53.4068 44.1418 51.9745C43.891 51.8308 43.6538 51.8171 43.3938 51.9676C40.9055 53.4022 38.4171 54.8345 35.7965 56.3398ZM21.2749 64.6555C23.8841 66.1494 26.3154 67.527 28.7285 68.9342C29.1801 69.1965 29.4925 69.03 29.8666 68.8133C31.1734 68.0493 32.4917 67.3057 33.8054 66.5531C34.8706 65.9418 35.938 65.3306 37.1194 64.6509C34.5353 63.1707 32.1359 61.8068 29.748 60.4178C29.3853 60.208 29.1025 60.1419 28.7148 60.3699C26.2995 61.7794 23.8682 63.1639 21.2749 64.6555ZM52.1085 64.9839C54.4349 66.2885 56.5925 67.4791 58.725 68.713C59.2245 69.0026 59.6008 68.941 60.0752 68.6902C61.649 67.8508 63.2432 67.0548 64.8261 66.2383C65.6061 65.8369 66.3793 65.4241 67.3167 64.9337C64.671 63.5265 62.2306 62.2333 59.797 60.9264C59.4594 60.744 59.1857 60.7235 58.8505 60.9264C56.6495 62.2607 54.4418 63.5835 52.104 64.9885L52.1085 64.9839Z" fill="white"/>
<path d="M28.6646 40.3744C31.0092 39.0333 33.1622 37.7789 35.3404 36.5701C35.8809 36.2713 35.776 35.8357 35.7783 35.4001C35.7828 32.1728 35.7805 28.9478 35.7805 25.7205C35.7805 25.2735 35.719 24.8516 36.2458 24.5573C38.4901 23.3075 40.7093 22.012 43.0995 20.6436C43.1246 21.1841 43.1588 21.5764 43.1588 21.971C43.1634 31.1579 43.1497 40.3448 43.1839 49.5317C43.1862 50.4029 42.9399 50.8933 42.1553 51.3129C40.0615 52.4328 38.0225 53.653 35.8056 54.9211V43.0794C34.3551 43.8982 33.1485 44.7763 31.8052 45.294C29.1755 46.3067 28.2061 47.9967 28.5528 50.834C28.8447 53.2288 28.5893 55.6852 28.6304 58.1142C28.6418 58.8144 28.4023 59.1975 27.7888 59.5351C25.8592 60.5865 23.9616 61.6973 22.0663 62.8103C21.4163 63.1911 21.1814 63.1638 21.1837 62.3108C21.2065 52.8593 21.2042 43.4055 21.1882 33.9541C21.1882 33.3839 21.3707 33.0623 21.8633 32.7886C23.818 31.703 25.7657 30.6014 27.6861 29.4587C28.4411 29.0094 28.6919 29.0436 28.6805 30.0152C28.6395 33.393 28.6646 36.7708 28.6646 40.3767V40.3744Z" fill="#7DCAD5"/>
<path d="M66.8924 63.3002C64.3996 61.9773 61.9295 60.6591 59.4503 59.3568C58.871 59.0511 58.7866 58.4627 58.5859 57.9518C56.4899 52.6376 54.4076 47.3166 52.3184 41.9979C52.1861 41.6603 52.0356 41.3319 51.7322 41.0308V54.9389C49.2873 53.5385 46.9951 52.2317 44.7075 50.9179C44.3562 50.7172 44.3654 50.3546 44.3676 50.0102C44.3745 40.3649 44.3813 30.7172 44.3905 21.0719C44.3905 20.9989 44.4269 20.9259 44.4726 20.7617C45.8182 21.2863 46.9882 22.1142 48.2244 22.8053C49.3808 23.4507 50.8655 23.9137 51.5338 24.9059C52.2112 25.9117 51.7094 27.4808 51.7254 28.8037C51.7528 31.1848 51.7322 33.5682 51.7322 36.2321C53.8077 33.8989 55.7555 31.7983 57.5847 29.6019C58.2187 28.8402 58.6726 28.717 59.5279 29.2028C61.3388 30.2314 63.1999 31.1757 65.0656 32.1039C65.7612 32.4506 65.9208 32.7129 65.4122 33.4245C63.4348 36.2048 61.5441 39.0489 59.5849 41.8428C59.1698 42.4335 59.1242 42.9011 59.3979 43.5899C61.8451 49.7411 64.2445 55.9105 66.6438 62.08C66.7852 62.4426 67.1114 62.787 66.8902 63.3002H66.8924Z" fill="#619AA5"/>
</svg>
