<svg width="90" height="90" viewBox="0 0 90 90" fill="none" xmlns="http://www.w3.org/2000/svg">
<g clip-path="url(#clip0_2221_3007)">
<path d="M80 27.8159H10.68V61.3642H80V27.8159Z" fill="#F17F03"/>
<path d="M22.2608 48.7075H18.5807V53.3553H22.2608V48.7075Z" fill="#FFFDFF"/>
<path d="M64.7957 39.2887C66.5611 39.2887 68.1207 40.1534 69.0832 41.4762L72.6655 39.9218C71.0648 37.2402 68.1464 35.4336 64.7957 35.4336C61.445 35.4336 58.6965 37.1321 57.07 39.6799L60.395 41.6203C61.3472 40.21 62.9634 39.2836 64.7957 39.2836V39.2887Z" fill="#FFFDFF"/>
<path d="M37.6555 49.9582H33.5276V53.3552H38.1599C40.0489 53.3552 41.7217 52.403 42.7305 50.9567C41.9944 50.0766 41.4128 49.0678 41.0268 47.9663C40.3628 49.1501 39.1018 49.9582 37.6555 49.9582Z" fill="#FFFDFF"/>
<path d="M69.0008 47.8328C68.028 49.0938 66.5097 49.907 64.7957 49.907C62.7524 49.907 60.9766 48.7489 60.0914 47.0504C59.8289 46.546 59.7053 45.9798 59.7053 45.4137V43.0975V43.01H59.695C59.695 43.01 59.695 43.01 59.695 43.0049H55.7473C55.7473 43.0049 55.7473 43.01 55.7473 43.0151H51.012V46.6953H55.5517C54.7385 48.5791 52.8598 49.9019 50.6775 49.9019C47.7488 49.9019 45.3709 47.5291 45.3709 44.6004C45.3709 41.6718 47.7488 39.299 50.6775 39.299V35.4336C47.6459 35.4336 44.9694 36.9108 43.3018 39.1806C42.4628 37.2196 40.507 35.8351 38.2474 35.8351H31.5048V35.8814H27.8247V43.0254H22.2659V35.8814H18.5858V46.7056H27.8247V53.3658H31.5048V41.013H33.5328V39.7571H37.7945C39.843 39.7571 41.5209 41.435 41.5209 43.4835V44.5232C41.5209 44.5232 41.5209 44.5747 41.5209 44.5953C41.5209 44.621 41.5209 44.6468 41.5209 44.6673V45.0482C41.5775 46.7313 42.1231 48.2908 43.0084 49.5982C43.0908 49.7269 43.1834 49.8504 43.2709 49.9739C43.2709 49.9739 43.2709 49.9791 43.2761 49.9842C44.9437 52.2695 47.6304 53.757 50.6775 53.757C53.5186 53.757 56.0561 52.4651 57.7392 50.432C59.4222 52.4599 61.9597 53.757 64.8009 53.757C67.642 53.757 70.3957 52.3415 72.0685 50.1592L69.0008 47.8276V47.8328Z" fill="#FFFDFF"/>
</g>
<defs>
<clipPath id="clip0_2221_3007">
<rect width="69.32" height="33.5483" fill="white" transform="translate(10.68 27.8159)"/>
</clipPath>
</defs>
</svg>
