<svg width="90" height="90" viewBox="0 0 90 90" fill="none" xmlns="http://www.w3.org/2000/svg">
<path d="M38.7396 54.5431C38.7396 54.5431 30.7485 51.0459 30.7485 46.5462C30.7485 42.0464 37.4068 25.4569 36.9114 22.3489C36.416 19.2409 35.4134 19.0168 35.4134 19.0168C35.4134 19.0168 43.7406 20.4617 43.7406 25.622C43.7406 30.7823 41.6294 33.8902 41.6294 33.8902H48.2876C48.2876 33.8902 53.672 19.5712 49.7855 18.0732C49.7855 18.0732 59.9999 18.6276 59.9999 26.6776C59.9999 26.6776 49.4494 54.3072 47.9573 66.6683C47.5799 69.7999 50.4107 70.7022 51.0653 71.3922C51.0653 71.3922 40.6858 69.4165 40.6858 62.5873C40.6858 55.758 46.9017 39.5518 46.9017 39.5518H40.2965C40.2965 39.5518 35.8557 49.8782 38.7396 54.5372V54.5431Z" fill="#0093DD"/>
</svg>
