<svg width="70" height="70" viewBox="0 0 70 70" fill="none" xmlns="http://www.w3.org/2000/svg">
<path fill-rule="evenodd" clip-rule="evenodd" d="M25.5331 20.261C28.4409 20.9159 31.2176 21.5184 33.8896 22.1209C35.2518 24.3213 36.614 26.4956 37.9499 28.6698C36.7449 30.3988 35.4613 32.2325 34.1516 34.1186C31.3748 33.778 28.4409 33.4113 25.376 33.0183C23.8304 30.5821 22.2063 28.1197 20.6083 25.6573C22.3111 23.7712 23.9876 21.9637 25.5331 20.261ZM39.5479 29.6653C38.3691 31.4204 37.1379 33.2279 35.8805 35.114C37.2689 37.3668 38.6572 39.5935 40.0456 41.8201C42.508 42.0035 44.8918 42.1607 47.1709 42.3178C48.1401 40.4317 49.1093 38.6242 50 36.8691C48.795 34.8782 47.59 32.8873 46.385 30.8703C44.1845 30.4511 41.9055 30.0582 39.5479 29.6653ZM25.3498 34.7211C28.4409 35.0616 31.3748 35.376 34.1777 35.6903C35.6185 37.9693 37.0331 40.2484 38.4215 42.5012C37.1379 44.6493 35.8019 46.8497 34.3873 49.1811C31.4534 49.1811 28.3623 49.1549 25.0878 49.1549C23.4375 46.6139 21.7348 44.0206 20.0582 41.4534C21.9181 39.0958 23.6732 36.8691 25.3498 34.7211ZM26.5286 23.3521C25.7427 24.2166 24.9568 25.081 24.1448 25.9455C25.114 27.4386 26.0571 28.9056 27.0263 30.3988C28.9648 30.6345 30.9033 30.8703 32.8418 31.106C33.4443 30.2678 34.0206 29.4033 34.6231 28.565C33.811 27.2291 32.9727 25.9193 32.1607 24.5833C30.2746 24.1642 28.3885 23.745 26.5286 23.3521ZM40.8577 32.7302C42.1151 32.9397 43.3725 33.1755 44.6561 33.3851C45.3633 34.5639 46.0968 35.7689 46.8041 36.9477C46.385 37.7598 45.9658 38.5718 45.5467 39.3839C44.2631 39.3053 42.9795 39.2005 41.6959 39.1219C40.8839 37.8122 40.0718 36.5024 39.2335 35.1664C39.7575 34.3543 40.3076 33.5422 40.8577 32.7302ZM35.147 42.5274C34.2825 41.139 33.3919 39.7244 32.5274 38.3361C30.5365 38.1265 28.5719 37.8907 26.581 37.6812C25.5593 38.991 24.5377 40.3008 23.5161 41.5844C24.5639 43.1823 25.5855 44.754 26.6334 46.352C28.7028 46.352 30.7723 46.352 32.8156 46.3782C33.6014 45.0946 34.3873 43.811 35.147 42.5274Z" fill="white"/>
</svg>
