<svg width="70" height="70" viewBox="0 0 70 70" fill="none" xmlns="http://www.w3.org/2000/svg">
<g clip-path="url(#clip0_28_91)">
<path d="M70.3802 23.5603V16.3078C70.3802 16.3078 57.7738 16.3078 55.7939 16.3078C53.814 16.3078 49.6704 19.0596 49.6704 22.4228V30.5819C49.6704 33.5774 52.6702 36.8808 56.0677 36.8808C59.6533 36.8808 63.0957 36.8808 63.0957 36.8808V45.6407H51.5732L41.4791 35.5873C44.5794 33.524 44.6266 30.6525 44.6266 30.6525V23.494C44.6266 17.9798 39.5848 16.3078 37.4617 16.3078C35.1846 16.3078 20.2156 16.3078 20.2156 16.3078V29.7673H11.6203V16.3078H0.5V23.5325H4.2759V45.6407H0.5V52.9253H11.6203V36.992H20.2156V52.9253H31.274V45.6407H27.4382V23.5325H37.3419V29.7245H32.4713V37.0091L48.3961 52.8034C48.3961 52.8034 60.3695 52.8034 63.504 52.8034C66.8715 52.8034 70.4871 49.7053 70.4871 45.367H70.5V36.9835H70.4743C70.4743 32.7628 66.7882 29.686 63.0508 29.686C61.3317 29.686 57.0639 29.686 57.0639 29.686V23.5603H70.3802Z" fill="#264D8E"/>
</g>
<defs>
<clipPath id="clip0_28_91">
<rect width="70" height="70" fill="white"/>
</clipPath>
</defs>
</svg>
