<svg width="70" height="70" viewBox="0 0 70 70" fill="none" xmlns="http://www.w3.org/2000/svg">
<path d="M29.5489 15.2292C34.1875 14.0443 39.0865 14.4111 43.497 16.2734C46.3152 17.4886 48.8302 19.3112 50.8625 21.6109C52.8948 23.9106 54.3943 26.6307 55.2537 29.577C56.3297 33.5619 56.2402 37.7719 54.9959 41.7075C48.7566 41.7075 42.5173 41.7075 36.2909 41.7075C35.7109 41.7845 35.1211 41.7345 34.5624 41.5608C34.0037 41.3872 33.4894 41.0942 33.0552 40.702C32.7239 39.8745 32.7239 38.9512 33.0552 38.1238C35.0061 32.2454 36.9569 26.3714 38.9078 20.5016H31.6243C30.9927 22.5255 30.245 24.5108 29.6262 26.5476H25.9265C27.1511 22.8091 28.3887 19.032 29.5489 15.2292ZM42.1048 20.5274C41.8341 21.5458 41.5118 22.5384 41.1508 23.5182C43.6001 23.5182 46.0495 23.5182 48.4988 23.5182C48.821 22.5126 49.1691 21.5071 49.5301 20.5016C47.055 20.5016 44.5799 20.4887 42.1048 20.5274ZM40.1324 26.5862C38.8433 30.5825 37.464 34.5658 36.2651 38.575C38.7015 38.575 41.138 38.575 43.5744 38.575C44.8635 34.5787 46.1526 30.5696 47.4417 26.5733C44.9408 26.5605 42.556 26.5733 40.1324 26.5862Z" fill="#E20004"/>
<path d="M13.9998 32.58C14.7524 27.7879 17.0738 23.381 20.6 20.0499C18.6406 26.2505 16.578 32.4382 14.5927 38.5873H21.9407C22.8946 35.5579 23.9775 32.5671 24.9056 29.5635C26.1947 29.5635 27.4194 29.5635 28.6827 29.5635C26.7491 35.184 24.9443 40.8303 23.0235 46.4508C22.7629 47.1487 22.5897 47.8761 22.5079 48.6165C22.6123 49.2258 22.942 49.7735 23.4316 50.1508C23.9212 50.5281 24.5348 50.7075 25.1506 50.6533C33.0915 50.6533 41.0324 50.6533 48.9733 50.6533C45.6848 53.4475 41.6354 55.1936 37.3461 55.6669C33.0569 56.1401 28.7242 55.3189 24.9056 53.3089C21.9337 51.7211 19.3898 49.4382 17.4909 46.6549C15.5919 43.8715 14.3942 40.6702 13.9998 37.3239V32.58Z" fill="#E20004"/>
</svg>
