<svg width="70" height="70" viewBox="0 0 70 70" fill="none" xmlns="http://www.w3.org/2000/svg">
<path fill-rule="evenodd" clip-rule="evenodd" d="M59.987 35.9022C59.7706 37.9259 56.8071 39.8036 52.1835 41.0328C49.5099 41.8267 46.403 42.3331 42.9356 42.6218L35.5642 49.1968L31.6628 52.6655C30.94 52.8108 30.4349 52.5931 30.3625 52.1603V42.6225C28.7722 42.4771 27.2549 42.3337 25.81 42.1161L18.6563 48.837L16.6332 50.7154C16.2004 50.8607 15.7664 50.643 15.7664 50.0649V39.7313C12.5864 38.5757 10.7087 37.0584 10.5634 35.3964C10.555 35.2762 10.555 35.1555 10.5634 35.0353C10.7087 33.0123 13.8156 31.1333 18.6563 29.833C21.4021 29.1102 24.6544 28.5327 28.2671 28.2433L35.5642 21.523L39.3216 17.9827C40.1168 17.6216 40.4055 18.1997 40.4055 18.6331V28.388C42.0489 28.4575 43.6883 28.6021 45.3185 28.8214L53.9901 20.4398C54.6406 20.0787 55.1457 20.8009 55.074 21.162V31.2779C58.0363 32.5059 59.8429 33.9515 59.987 35.4688C60.0023 35.6128 60.0062 35.7575 59.987 35.9022ZM52.1835 39.4425C56.6637 38.431 59.4095 37.0584 59.1208 35.4688C58.6144 34.1678 56.8077 33.0846 54.0631 32.2171L45.1751 40.4541C47.7756 40.2377 50.1604 39.8766 52.1835 39.4425ZM43.5854 30.4111C42.0675 30.2664 40.4055 30.1947 38.7442 30.1217L35.5642 33.1563L27.4713 40.5988C28.9893 40.6711 30.5789 40.7428 32.3126 40.8152L35.5636 37.8529L43.5854 30.4111ZM18.6563 31.2779C14.3361 32.2383 11.5538 33.5853 11.3086 35.1454C11.2746 35.3612 11.3521 35.5296 11.5147 35.7517C12.3636 36.908 14.153 37.9393 16.7779 38.7927L18.6563 37.059L26.0277 30.267C23.2812 30.4828 20.7517 30.8445 18.6563 31.2779Z" fill="#3382C3"/>
</svg>
