<svg width="70" height="70" viewBox="0 0 70 70" fill="none" xmlns="http://www.w3.org/2000/svg">
<path d="M31.274 52.4019H26.2051C22.5808 52.4019 19.6393 49.4604 19.6393 45.836V37.8519C19.6393 34.2276 22.5808 31.2861 26.2051 31.2861H31.274C34.8983 31.2861 37.8399 34.2276 37.8399 37.8519V45.836C37.8399 49.4604 34.8983 52.4019 31.274 52.4019ZM26.2051 33.9124C24.0253 33.9124 22.2656 35.6721 22.2656 37.8519V45.836C22.2656 48.0159 24.0253 49.7755 26.2051 49.7755H31.274C33.4539 49.7755 35.2135 48.0159 35.2135 45.836V37.8519C35.2135 35.6721 33.4539 33.9124 31.274 33.9124H26.2051Z" fill="white"/>
<path fill-rule="evenodd" clip-rule="evenodd" d="M33.2176 29.4214C34.2944 29.3951 35.45 29.684 36.5005 30.3406C37.5511 30.9972 38.3127 31.9164 38.7329 32.8882L37.9713 33.1508C37.6036 32.3104 36.9733 31.5225 36.0803 30.9709C35.1873 30.4194 34.2156 30.183 33.2964 30.2093L33.2176 29.3951V29.4214Z" fill="white"/>
<path fill-rule="evenodd" clip-rule="evenodd" d="M32.7709 25.3508C34.7144 25.3508 36.7367 25.876 38.5751 27.0316C40.4135 28.1872 41.7792 29.7893 42.5934 31.5489L41.8318 31.8116C41.0964 30.2095 39.8357 28.7388 38.1549 27.6882C36.474 26.6377 34.6093 26.1387 32.8497 26.1649L32.7709 25.3508Z" fill="white"/>
<path fill-rule="evenodd" clip-rule="evenodd" d="M32.3246 21.28C35.1086 21.28 38.0238 22.0679 40.6764 23.7225C43.329 25.3771 45.2988 27.662 46.4806 30.1833L45.719 30.4459C44.5897 28.0822 42.7512 25.9286 40.2562 24.3791C37.7612 22.8295 35.0298 22.0679 32.4297 22.0941L32.3509 21.28H32.3246Z" fill="white"/>
<path fill-rule="evenodd" clip-rule="evenodd" d="M31.9045 17.5505C35.45 17.6031 39.1532 18.6536 42.5149 20.7547C45.8766 22.8558 48.4242 25.7447 50 28.9489L49.2384 29.2115C47.7413 26.1912 45.2988 23.4336 42.0947 21.4113C38.8906 19.389 35.3713 18.391 31.9833 18.3647L31.9045 17.5505Z" fill="white"/>
</svg>
