<svg width="70" height="70" viewBox="0 0 70 70" fill="none" xmlns="http://www.w3.org/2000/svg">
<path d="M27.4015 20.1546V31.1326C27.6224 31.1581 27.8348 31.2091 28.0557 31.2091C30.8852 31.2091 33.7062 31.1921 36.5356 31.1751C38.354 31.1751 40.1723 31.1581 41.9906 31.1496C42.22 31.1496 42.4495 31.1326 42.6789 31.0987C43.0782 31.0307 43.2652 30.7843 43.2397 30.4189C43.1887 29.7137 43.1122 29.0084 43.1037 28.2947C43.0867 26.6973 43.0782 25.0998 43.1037 23.5109C43.1122 22.4063 43.1717 21.2932 43.2057 20.1377C43.792 20.0697 44.3698 20.1122 44.9475 20.1037C45.5338 20.1037 46.1116 20.1037 46.6979 20.1037C47.2842 20.1037 47.862 20.1037 48.4483 20.1037C49.0346 20.1037 49.6123 20.0952 50.1986 20.1037C50.7764 20.1122 51.3627 20.0187 51.9745 20.2651C51.983 20.622 52 21.0043 52 21.3782C52 29.4418 51.983 37.5138 51.9745 45.5774C51.9745 46.3251 51.9915 47.0728 51.983 47.8121C51.983 48.1349 51.9405 48.4578 51.864 48.7722C51.847 48.8657 51.6771 48.9761 51.5666 48.9931C51.2523 49.0441 50.9379 49.0696 50.615 49.0696C48.7457 49.0611 46.8678 49.0016 44.9985 49.0441C44.3358 49.0611 43.7495 48.8572 43.1207 48.7722C43.0442 48.7637 42.9678 48.6957 42.8743 48.6363C43.1547 48.1094 43.0867 47.5571 43.0867 47.0133C43.0867 44.8806 43.0952 42.7479 43.0867 40.6152C43.0867 39.8844 43.0867 39.1622 43.1122 38.4315C43.1292 37.9387 43.0442 37.8197 42.5429 37.7602C42.2115 37.7177 41.8717 37.7177 41.5403 37.7177C38.3285 37.7347 35.1081 37.7347 31.8963 37.7857C30.6218 37.8027 29.3472 37.6922 28.0812 37.7517C27.9537 37.7517 27.8348 37.7517 27.7073 37.7602C27.4949 37.7687 27.3845 37.8962 27.376 38.0916C27.376 38.372 27.393 38.6439 27.393 38.9243C27.393 41.6688 27.393 44.4048 27.4099 47.1493C27.4099 47.6251 27.4949 48.1094 27.5459 48.5853C27.5459 48.6532 27.5374 48.7212 27.5204 48.8317C27.3845 48.8572 27.257 48.8912 27.1211 48.9082C24.9883 49.0866 22.8471 49.0356 20.7144 49.0186C20.2216 49.0186 19.7288 48.9761 19.2359 48.9251C19.032 48.9082 18.8366 48.8147 18.6072 48.7467C18.5477 39.2302 18.5732 29.7307 18.5987 20.1801C18.8791 20.1461 19.083 20.1037 19.2784 20.1037C21.785 20.1037 24.3001 20.1037 26.8067 20.1037C26.9936 20.1037 27.189 20.1377 27.393 20.1546H27.4015Z" fill="#F90100"/>
</svg>
