<svg width="70" height="70" viewBox="0 0 70 70" fill="none" xmlns="http://www.w3.org/2000/svg">
<path d="M60.6802 48.175C60.5457 47.6683 60.3282 47.1875 60.0365 46.752C60.099 46.5228 60.1467 46.2898 60.1785 46.0543C60.3857 44.5603 59.8677 43.1925 58.8917 42.1343C58.363 41.5563 57.7962 41.1745 57.196 40.9403C57.59 39.2545 57.7892 37.5293 57.7902 35.7983C57.7902 35.0075 57.7455 34.233 57.6705 33.47C57.6315 33.089 57.5842 32.709 57.5287 32.33C57.357 31.2118 57.102 30.1078 56.766 29.0275C56.5457 28.3177 56.291 27.619 56.0025 26.934C55.5702 25.9196 55.0655 24.9375 54.4922 23.9955C54.1162 23.3688 53.7067 22.7627 53.2655 22.18C53.0492 21.8858 52.824 21.5985 52.5895 21.3185C51.895 20.4745 51.1402 19.6819 50.3312 18.947C50.0625 18.6999 49.7862 18.4613 49.5025 18.2315C49.2232 17.9986 48.9377 17.7732 48.6465 17.5555C48.0602 17.1192 47.4545 16.7098 46.831 16.3288C43.3857 14.2363 39.3455 13.0363 35.0272 13.0363C22.4542 13.0363 12.2642 23.2268 12.2642 35.799C12.2637 37.552 12.4667 39.299 12.8692 41.005C12.3292 41.2395 11.8117 41.605 11.3317 42.1338C10.356 43.1915 9.83772 44.5543 10.045 46.0483C10.0765 46.2855 10.1237 46.5205 10.1867 46.7515C9.89525 47.1873 9.6779 47.6683 9.54347 48.175C9.24347 49.3153 9.34222 50.3435 9.72347 51.2445C9.30897 52.422 9.41247 53.676 9.95222 54.7663C10.3447 55.5625 10.9065 56.1785 11.599 56.729C12.4222 57.3835 13.4527 57.9395 14.6957 58.473C16.1787 59.1055 17.989 59.6998 18.8122 59.9178C20.9387 60.4683 22.9777 60.8173 25.0442 60.8343C27.9885 60.8615 30.524 60.1693 32.3392 58.3975C33.231 58.5068 34.1287 58.5615 35.0272 58.561C35.9765 58.559 36.9247 58.4993 37.8667 58.3823C39.6777 60.1653 42.223 60.8638 45.178 60.8358C47.2442 60.8193 49.2832 60.4703 51.4042 59.919C52.233 59.701 54.0425 59.1068 55.5262 58.4743C56.7692 57.94 57.7997 57.384 58.6285 56.7305C59.3157 56.1798 59.877 55.564 60.2697 54.7678C60.815 53.6773 60.913 52.4233 60.5042 51.2458C60.8817 50.3448 60.98 49.3143 60.6802 48.175ZM58.5702 51.1683C58.988 51.961 59.0147 52.8568 58.6462 53.691C58.0872 54.9553 56.6987 55.9513 54.002 57.0205C52.325 57.6855 50.7895 58.1108 50.776 58.1145C48.558 58.6898 46.552 58.982 44.8155 58.982C41.94 58.982 39.8002 58.1885 38.4432 56.6215C36.1485 57.0125 33.8055 57.0258 31.5065 56.661C30.1477 58.202 28.0202 58.982 25.169 58.982C23.4322 58.982 21.4265 58.6898 19.2082 58.1145C19.1947 58.1108 17.6597 57.6855 15.9822 57.0205C13.2857 55.9513 11.8967 54.956 11.338 53.691C10.9695 52.8568 10.9962 51.961 11.414 51.1683C11.4525 51.0945 11.494 51.0228 11.5382 50.9533C11.2879 50.5773 11.1199 50.1525 11.0455 49.7068C10.971 49.2613 10.9917 48.805 11.1062 48.368C11.2722 47.7373 11.615 47.2128 12.0805 46.836C11.8562 46.4675 11.7091 46.0575 11.648 45.6305C11.514 44.702 11.8222 43.775 12.5155 43.019C13.0555 42.4308 13.8187 42.107 14.6637 42.107H14.6862C14.0491 40.0648 13.7261 37.9375 13.7282 35.7983C13.7282 24.1305 23.1872 14.6708 34.8567 14.6708C46.526 14.6708 55.985 24.1295 55.985 35.7983C55.9867 37.9433 55.6615 40.076 55.0202 42.123C55.1222 42.113 55.2222 42.108 55.3205 42.1078C56.1655 42.1078 56.929 42.4315 57.4685 43.0198C58.1617 43.775 58.4702 44.7028 58.336 45.6313C58.275 46.0583 58.1277 46.4683 57.9037 46.8368C58.3692 47.2135 58.7122 47.738 58.878 48.3688C58.9925 48.8058 59.0132 49.262 58.9387 49.7078C58.8645 50.1533 58.6965 50.578 58.446 50.954C58.4902 51.0228 58.5322 51.0945 58.5702 51.1683Z" fill="white"/>
<path d="M58.4459 50.954C58.6964 50.578 58.8644 50.1533 58.9389 49.7078C59.0132 49.262 58.9924 48.8058 58.8779 48.3688C58.7119 47.738 58.3689 47.2135 57.9037 46.8368C58.1279 46.4683 58.2749 46.0583 58.3359 45.6313C58.4702 44.7028 58.1619 43.7758 57.4684 43.0198C56.9289 42.4315 56.1654 42.1078 55.3204 42.1078C55.2222 42.1078 55.1222 42.113 55.0202 42.123C55.6607 40.076 55.9854 37.9435 55.9832 35.7988C55.9832 24.1308 46.5242 14.6713 34.8559 14.6713C23.1874 14.6713 13.7274 24.1298 13.7274 35.7988C13.7253 37.938 14.0483 40.0653 14.6854 42.1075H14.6629C13.8179 42.1075 13.0547 42.431 12.5149 43.0193C11.8217 43.7745 11.5132 44.7025 11.6474 45.6308C11.7086 46.0578 11.8557 46.468 12.0799 46.8365C11.6144 47.213 11.2714 47.7375 11.1054 48.3683C10.991 48.8055 10.9704 49.2618 11.0449 49.7075C11.1195 50.153 11.2875 50.578 11.5379 50.954C11.4934 51.0235 11.4524 51.0953 11.4137 51.169C10.9962 51.9618 10.9692 52.8575 11.3379 53.6918C11.8969 54.956 13.2854 55.952 15.9822 57.0213C17.6589 57.6863 19.1947 58.1115 19.2082 58.1153C21.4262 58.6905 23.4322 58.9828 25.1687 58.9828C28.0202 58.9828 30.1477 58.2028 31.5064 56.6618C33.8054 57.0265 36.1484 57.013 38.4432 56.6223C39.8002 58.1893 41.9399 58.9828 44.8154 58.9828C46.5519 58.9828 48.5579 58.6905 50.7757 58.1153C50.7894 58.1115 52.3244 57.6863 54.0019 57.0213C56.6987 55.952 58.0874 54.956 58.6462 53.6918C59.0147 52.8575 58.9879 51.9618 58.5702 51.169C58.5322 51.0948 58.4902 51.0228 58.4459 50.954ZM30.5342 54.2493C30.4172 54.4538 30.2919 54.6535 30.1587 54.8478C29.8074 55.362 29.3454 55.755 28.8092 56.047C27.7842 56.606 26.4867 56.8013 25.1687 56.8013C23.0864 56.8013 20.9519 56.314 19.7557 56.0038C19.6967 55.9885 12.4222 53.9338 13.3432 52.1848C13.4982 51.8905 13.7532 51.773 14.0744 51.773C15.3712 51.773 17.7324 53.704 18.7472 53.704C18.9739 53.704 19.1339 53.6075 19.1992 53.372C19.6317 51.821 12.6259 51.169 13.2159 48.923C13.3199 48.5255 13.6024 48.364 13.9994 48.364C15.7139 48.3638 19.5619 51.379 20.3667 51.379C20.4284 51.379 20.4727 51.3608 20.4967 51.3228C20.5002 51.317 20.5037 51.3115 20.5069 51.3055C20.8847 50.6818 20.6679 50.2283 18.0802 48.6433L17.8317 48.492C14.9839 46.7685 12.9852 45.7313 14.1219 44.4938C14.2527 44.351 14.4382 44.2878 14.6634 44.2878C14.9304 44.2878 15.2537 44.377 15.6097 44.527C17.1137 45.1613 19.1982 46.891 20.0689 47.6453C20.2059 47.7643 20.342 47.8845 20.4772 48.0055C20.4772 48.0055 21.5797 49.152 22.2462 49.152C22.3997 49.152 22.5299 49.0915 22.6182 48.942C23.0909 48.145 18.2274 44.4595 17.9532 42.9388C17.7672 41.9085 18.0837 41.3865 18.6687 41.3865C18.9469 41.3865 19.2864 41.505 19.6612 41.7428C20.8237 42.4805 23.0682 46.3375 23.8899 47.838C24.1654 48.3408 24.6357 48.5533 25.0594 48.5533C25.9002 48.5533 26.5574 47.7175 25.1364 46.6555C23.0007 45.0575 23.7502 42.4455 24.7694 42.2848C24.8129 42.2778 24.8569 42.2743 24.9007 42.2743C25.8277 42.2743 26.2364 43.8715 26.2364 43.8715C26.2364 43.8715 27.4349 46.881 29.4937 48.9383C31.3617 50.8055 31.6227 52.3378 30.5342 54.2493ZM37.1914 54.6018L37.0847 54.6145L36.9027 54.6353C36.8069 54.6453 36.7109 54.6548 36.6147 54.6635L36.5209 54.672L36.4352 54.6793L36.3137 54.689L36.1794 54.6988L36.0454 54.7075L36.0157 54.7095C35.9807 54.7115 35.9457 54.7138 35.9102 54.7155L35.8654 54.718C35.8239 54.7203 35.7824 54.7223 35.7404 54.724L35.5952 54.7303L35.4634 54.7348L35.3754 54.7373H35.3307C35.3032 54.7373 35.2759 54.7388 35.2484 54.739H35.2049C35.1774 54.739 35.1502 54.739 35.1227 54.7403L35.0107 54.7418H34.8544C34.7317 54.7418 34.6092 54.7405 34.4872 54.738L34.3882 54.7358C34.3599 54.7358 34.3317 54.7345 34.3039 54.7335L34.1989 54.7305L34.0687 54.7255L33.9512 54.7203L33.9209 54.719L33.8092 54.7133C33.7779 54.7115 33.7472 54.71 33.7162 54.7078L33.6439 54.7035C33.5532 54.6978 33.4624 54.6915 33.3717 54.6845L33.2767 54.6768C33.2367 54.6738 33.1967 54.67 33.1569 54.6665C33.1102 54.6625 33.0634 54.658 33.0167 54.6535C32.9384 54.6463 32.8602 54.6383 32.7819 54.6298H32.7782C33.9207 52.081 33.3429 49.7005 31.0342 47.3938C29.5199 45.8815 28.5127 43.6485 28.3037 43.1583C27.8807 41.707 26.7612 40.0938 24.9019 40.0938C24.7447 40.0938 24.5877 40.1063 24.4324 40.1308C23.6179 40.259 22.9059 40.7278 22.3979 41.4333C21.8489 40.7505 21.3154 40.2078 20.8329 39.9013C20.1054 39.44 19.3794 39.206 18.6722 39.206C17.7894 39.206 17.0004 39.5685 16.4504 40.226L16.4364 40.2428C16.4259 40.1995 16.4159 40.1563 16.4057 40.1128L16.4044 40.107C16.2997 39.6595 16.2119 39.2083 16.1409 38.754C16.1409 38.751 16.1409 38.748 16.1394 38.745C16.1339 38.7108 16.1289 38.6763 16.1237 38.642C16.1083 38.5405 16.0939 38.4388 16.0804 38.337C16.0744 38.2908 16.0679 38.2445 16.0622 38.1983L16.0452 38.0595C16.0397 38.0133 16.0352 37.9713 16.0302 37.9273L16.0287 37.9163C16.0087 37.7363 15.9912 37.5563 15.9762 37.3758L15.9707 37.3065L15.9619 37.1885C15.9594 37.1563 15.9569 37.1238 15.9552 37.0913C15.9552 37.0835 15.9539 37.076 15.9537 37.0688C15.9473 36.9783 15.9419 36.8875 15.9374 36.7968C15.9349 36.7495 15.9324 36.7025 15.9304 36.655L15.9254 36.531L15.9242 36.4935L15.9202 36.3793L15.9177 36.282C15.9177 36.2433 15.9157 36.2045 15.9152 36.1658C15.9144 36.127 15.9134 36.0845 15.9132 36.0435C15.9127 36.0025 15.9132 35.962 15.9119 35.9213C15.9109 35.8803 15.9119 35.8395 15.9119 35.7988C15.9119 25.3355 24.3947 16.8528 34.8589 16.8528C45.3229 16.8528 53.8054 25.3353 53.8054 35.7988V36.0435C53.8054 36.0843 53.8042 36.1253 53.8034 36.1658C53.8034 36.1995 53.8019 36.2328 53.8009 36.267C53.8009 36.297 53.7997 36.3273 53.7987 36.3563C53.7987 36.3945 53.7964 36.4328 53.7952 36.471V36.474L53.7899 36.6068C53.7882 36.6455 53.7867 36.6845 53.7847 36.7233L53.7834 36.7508L53.7767 36.8748C53.7619 37.1405 53.7417 37.4058 53.7164 37.6708V37.674C53.7122 37.7175 53.7079 37.761 53.7032 37.8045L53.6919 37.9073L53.6697 38.1083L53.6569 38.21L53.6412 38.3298C53.6354 38.3733 53.6297 38.417 53.6232 38.4603C53.6167 38.509 53.6094 38.5575 53.6022 38.606L53.5849 38.7208L53.5644 38.8508C53.5574 38.894 53.5499 38.937 53.5419 38.98C53.5337 39.0233 53.5272 39.0663 53.5197 39.1093C53.5047 39.1953 53.4889 39.2813 53.4724 39.367C53.4472 39.4953 53.4214 39.6233 53.3949 39.7513L53.3674 39.878C53.3584 39.9203 53.3487 39.9628 53.3392 40.005C52.8059 39.4868 52.0997 39.2045 51.3209 39.2045C50.6142 39.2045 49.8874 39.4383 49.1602 39.8995C48.6777 40.206 48.1444 40.749 47.5952 41.4315C47.0864 40.726 46.3744 40.2573 45.5604 40.129C45.4052 40.1045 45.2482 40.092 45.0909 40.092C43.2312 40.092 42.1124 41.7053 41.6892 43.1565C41.4792 43.6468 40.4717 45.8798 38.9562 47.3943C36.6489 49.6938 36.0669 52.0635 37.1914 54.6018ZM56.7517 49.4995L56.7442 49.5218C56.7252 49.572 56.7032 49.621 56.6784 49.6685C56.6597 49.7035 56.6394 49.7375 56.6174 49.7705C56.5757 49.8328 56.5299 49.8923 56.4802 49.9483C56.4687 49.9613 56.4577 49.9743 56.4447 49.987C56.4267 50.0063 56.4084 50.0253 56.3897 50.0438C56.0532 50.3773 55.5402 50.6698 54.9602 50.938C54.8944 50.9678 54.8277 50.9975 54.7604 51.0275L54.6934 51.0573C54.6487 51.077 54.6039 51.0965 54.5569 51.1158C54.5122 51.1353 54.4657 51.1548 54.4192 51.1738L54.2797 51.2313C53.9534 51.3655 53.6192 51.4935 53.2932 51.6198L53.1537 51.674L53.0159 51.728C52.9242 51.7638 52.8337 51.7995 52.7447 51.8353L52.6119 51.8888L52.4814 51.942L52.4174 51.969C52.3747 51.9868 52.3329 52.0045 52.2912 52.0223C51.3319 52.434 50.6417 52.8528 50.7867 53.3723C50.7907 53.387 50.7952 53.401 50.8002 53.4148C50.8132 53.4533 50.8309 53.4895 50.8532 53.5238C50.8662 53.544 50.8812 53.5633 50.8979 53.5808C51.0684 53.758 51.3787 53.73 51.7699 53.5893C51.8249 53.569 51.8797 53.548 51.9339 53.526L51.9679 53.512C52.0574 53.474 52.1522 53.4315 52.2489 53.3855C52.2732 53.374 52.2977 53.363 52.3222 53.3503C52.8007 53.1163 53.3429 52.8013 53.8809 52.5145C54.0962 52.3983 54.3144 52.288 54.5354 52.1833C55.0449 51.9435 55.5239 51.7735 55.9089 51.7735C56.0897 51.7735 56.2492 51.8105 56.3822 51.8955L56.4044 51.9103C56.4879 51.969 56.5579 52.0445 56.6102 52.132C56.6204 52.1488 56.6304 52.1665 56.6402 52.1848C56.8304 52.546 56.6712 52.92 56.2984 53.2868C55.9407 53.639 55.3842 53.9843 54.7517 54.3038C54.7047 54.3275 54.6577 54.3513 54.6099 54.3745C52.7274 55.299 50.2622 55.9953 50.2279 56.004C49.5709 56.1743 48.6314 56.3978 47.5729 56.565L47.4164 56.5895L47.3907 56.5933C47.2722 56.6113 47.1534 56.628 47.0344 56.6435C46.9137 56.6598 46.7917 56.6745 46.6689 56.6883L46.6464 56.6908C46.2014 56.742 45.7547 56.776 45.3069 56.7923H45.3004C45.1384 56.798 44.9767 56.801 44.8147 56.801H44.6279C44.3809 56.7978 44.1344 56.7865 43.8882 56.7675C43.8824 56.7675 43.8762 56.7675 43.8704 56.766C43.7822 56.7593 43.6942 56.751 43.6062 56.7413C43.5149 56.7315 43.4239 56.7205 43.3332 56.7083C43.2734 56.7003 43.2139 56.6913 43.1544 56.6815C43.0939 56.6718 43.0334 56.6618 42.9732 56.6513L42.8909 56.6358L42.8847 56.6345C42.7979 56.618 42.7117 56.5998 42.6257 56.5798C42.5757 56.5685 42.5259 56.5575 42.4767 56.544L42.4469 56.5365C42.4224 56.5305 42.3987 56.524 42.3744 56.5175L42.3612 56.514L42.2842 56.4915C42.2562 56.4838 42.2282 56.4753 42.2002 56.467L42.1904 56.4643L42.1177 56.442C42.0902 56.4335 42.0627 56.4245 42.0354 56.4155L41.9684 56.3933L41.9192 56.376C41.8717 56.3593 41.8244 56.342 41.7777 56.324L41.7332 56.3065L41.6964 56.292C41.6254 56.2635 41.5549 56.2338 41.4852 56.2025L41.4389 56.18L41.4312 56.1765C41.4147 56.1688 41.3984 56.161 41.3819 56.1543C41.3497 56.1388 41.3177 56.1228 41.2859 56.1065L41.2762 56.1018L41.2302 56.0775C41.1484 56.0348 41.0684 55.9893 40.9899 55.941L40.9469 55.9145C40.9254 55.9013 40.9039 55.8875 40.8829 55.8735L40.8269 55.8365L40.7667 55.795L40.7307 55.7693C40.6927 55.7423 40.6554 55.7143 40.6189 55.6855L40.5607 55.6408C40.5374 55.622 40.5144 55.603 40.4917 55.5838C40.4724 55.568 40.4537 55.5515 40.4349 55.535L40.4334 55.5338C40.4132 55.516 40.3934 55.4983 40.3737 55.48C40.3542 55.4623 40.3347 55.4443 40.3157 55.426L40.3134 55.4238C40.2934 55.4048 40.2739 55.3855 40.2547 55.3658C40.2354 55.3463 40.2157 55.3268 40.1969 55.3068C40.1782 55.287 40.1589 55.2668 40.1404 55.246C40.1219 55.2255 40.1049 55.2068 40.0874 55.1865L40.0817 55.1798C40.0647 55.1603 40.0479 55.1405 40.0314 55.1203C39.9957 55.0775 39.9609 55.0338 39.9274 54.989C39.8937 54.944 39.8607 54.898 39.8284 54.8513L39.7977 54.8053C39.7567 54.7453 39.7167 54.6848 39.6779 54.6233C39.6489 54.579 39.6207 54.5345 39.5932 54.4893C39.5754 54.461 39.5584 54.4325 39.5414 54.4045L39.5344 54.393C39.5182 54.3655 39.5022 54.3385 39.4867 54.3113C39.4777 54.2965 39.4692 54.2818 39.4612 54.2665C39.4529 54.251 39.4434 54.2353 39.4347 54.2195L39.4204 54.1948L39.4117 54.1788C39.3949 54.1488 39.3784 54.1185 39.3624 54.088C39.3549 54.0745 39.3477 54.061 39.3399 54.048L39.3177 54.0048L39.2952 53.962C39.2389 53.8495 39.1857 53.7355 39.1357 53.62L39.1179 53.5778C39.1064 53.5495 39.0957 53.5215 39.0842 53.4938C39.0787 53.4803 39.0732 53.467 39.0684 53.4535C39.0417 53.3843 39.0167 53.3143 38.9937 53.2438C38.9854 53.2185 38.9774 53.1938 38.9699 53.1688C38.9519 53.112 38.9357 53.0548 38.9212 52.997C38.9034 52.9298 38.8877 52.862 38.8744 52.7938C38.8717 52.78 38.8689 52.7663 38.8667 52.753C38.8537 52.6863 38.8432 52.619 38.8349 52.5515C38.8329 52.5383 38.8314 52.525 38.8299 52.5118L38.8257 52.4713C38.8202 52.4183 38.8159 52.365 38.8134 52.3118C38.8134 52.2983 38.8122 52.2848 38.8117 52.2718C38.8104 52.2453 38.8099 52.2188 38.8097 52.1923C38.7957 51.124 39.3362 50.097 40.4919 48.9418C42.5507 46.885 43.7492 43.8753 43.7492 43.8753C43.7492 43.8753 43.7814 43.749 43.8484 43.5673C43.8577 43.542 43.8674 43.516 43.8784 43.4888C43.9174 43.387 43.9614 43.287 44.0102 43.1895L44.0199 43.1708C44.0614 43.0878 44.1069 43.0068 44.1559 42.928C44.1674 42.9098 44.1784 42.8918 44.1912 42.8735C44.2279 42.8193 44.2667 42.7663 44.3074 42.715C44.3297 42.6873 44.3539 42.6598 44.3782 42.633C44.3879 42.6225 44.3974 42.612 44.4077 42.602C44.5269 42.4788 44.6632 42.3783 44.8174 42.3248L44.8369 42.3183C44.8499 42.314 44.8629 42.31 44.8762 42.3063C44.8914 42.3023 44.9067 42.2988 44.9224 42.2955L44.9297 42.294C44.9622 42.2875 44.9952 42.2833 45.0284 42.281H45.0312C45.0484 42.281 45.0659 42.2793 45.0837 42.2793C45.1059 42.2793 45.1267 42.2793 45.1484 42.2815C45.1709 42.2835 45.1932 42.286 45.2157 42.2895C45.4012 42.319 45.5777 42.4295 45.7297 42.6C45.7874 42.665 45.8394 42.735 45.8849 42.809C45.9149 42.857 45.9432 42.9078 45.9699 42.9613C45.9807 42.9835 45.9909 43.004 46.0009 43.026C46.0269 43.0825 46.0504 43.14 46.0709 43.1988C46.1197 43.3363 46.1564 43.4778 46.1807 43.6218C46.2017 43.748 46.2142 43.8755 46.2182 44.0033C46.2202 44.0715 46.2202 44.1408 46.2182 44.2105C46.2047 44.535 46.1382 44.8553 46.0214 45.1585C46.0109 45.1863 45.9992 45.2143 45.9879 45.2423C45.9649 45.2988 45.9397 45.3543 45.9124 45.4085C45.8922 45.4498 45.8709 45.4913 45.8479 45.5325C45.8329 45.56 45.8172 45.5875 45.8014 45.615C45.7612 45.6835 45.7177 45.7515 45.6709 45.8193L45.6427 45.8598C45.5322 46.0138 45.4092 46.1583 45.2747 46.2918C45.1422 46.4245 45.0002 46.5473 44.8499 46.6593C44.6994 46.7708 44.5582 46.8943 44.4277 47.0285C44.0519 47.4228 43.9644 47.7708 44.0489 48.0345C44.0624 48.076 44.0802 48.1163 44.1017 48.1543C44.1269 48.1978 44.1569 48.2378 44.1909 48.2743L44.2042 48.288L44.2177 48.3015C44.2312 48.3145 44.2454 48.3273 44.2607 48.3398L44.2757 48.3518C44.3119 48.3798 44.3504 48.4048 44.3907 48.4268C44.4024 48.433 44.4129 48.4393 44.4262 48.4453C44.4697 48.4665 44.5144 48.4848 44.5604 48.4995C44.5732 48.5038 44.5859 48.5075 44.5989 48.5115L44.6152 48.5158L44.6377 48.5218L44.6569 48.5265L44.6779 48.531L44.6987 48.5353L44.7184 48.5385C44.7329 48.541 44.7479 48.5435 44.7629 48.5453L44.7772 48.5475L44.8032 48.55L44.8192 48.5518L44.8454 48.5535H44.8609L44.8884 48.555H44.9749L44.9997 48.5535L45.0282 48.5518L45.0629 48.5485L45.0954 48.5448C45.1029 48.5448 45.1104 48.5428 45.1179 48.5413C45.2179 48.5268 45.3159 48.5003 45.4097 48.4623L45.4494 48.4455C45.4717 48.4358 45.4942 48.4255 45.5147 48.4145C45.5587 48.3925 45.6014 48.3675 45.6424 48.3403C45.6997 48.3028 45.7537 48.2608 45.8042 48.2145C45.8162 48.2038 45.8279 48.1923 45.8394 48.1813C45.8452 48.1758 45.8507 48.1705 45.8562 48.1645C45.8672 48.1533 45.8784 48.1423 45.8894 48.13C45.9694 48.042 46.0387 47.945 46.0957 47.8408C46.5849 46.951 47.0977 46.0745 47.6334 45.2123L47.7069 45.0945L47.7812 44.9768C47.8182 44.917 47.8557 44.8583 47.8929 44.7998L47.9304 44.7413C48.0549 44.5463 48.1814 44.3525 48.3102 44.1603L48.3864 44.0463C48.5394 43.8195 48.6919 43.599 48.8432 43.3895L48.9184 43.2858C49.0829 43.059 49.2542 42.837 49.4319 42.6205L49.5024 42.536C49.5142 42.522 49.5249 42.508 49.5377 42.4945C49.5609 42.467 49.5842 42.4403 49.6069 42.4143C49.6184 42.401 49.6292 42.388 49.6414 42.375L49.7084 42.2995L49.7419 42.2628C49.7757 42.2265 49.8087 42.1918 49.8412 42.1585C49.8637 42.136 49.8844 42.1138 49.9059 42.0928C50.0327 41.9633 50.1724 41.847 50.3232 41.7463L50.3582 41.7238C50.3917 41.7013 50.4264 41.6803 50.4619 41.6613C51.0529 41.3258 51.5422 41.301 51.8239 41.5828C51.9944 41.7533 52.0889 42.036 52.0837 42.4295C52.0837 42.4468 52.0837 42.4643 52.0824 42.4823V42.5015C52.0824 42.5195 52.0809 42.5375 52.0794 42.5558C52.0794 42.5783 52.0769 42.6005 52.0747 42.623C52.0724 42.6453 52.0712 42.6623 52.0689 42.6823C52.0689 42.6878 52.0679 42.6935 52.0669 42.6995C52.0654 42.7168 52.0632 42.7345 52.0607 42.7523C52.0607 42.7575 52.0607 42.763 52.0587 42.7685C52.0559 42.7923 52.0524 42.8158 52.0484 42.8393C52.0457 42.8618 52.0419 42.8828 52.0379 42.9048L52.0314 42.942C52.0249 42.9775 52.0167 43.0125 52.0064 43.047C51.9869 43.1118 51.9634 43.175 51.9357 43.2365C51.8969 43.321 51.8542 43.4033 51.8072 43.4833C51.7812 43.5278 51.7544 43.5715 51.7267 43.6148C51.6982 43.6595 51.6682 43.7048 51.6372 43.7505C51.5582 43.8635 51.4762 43.9743 51.3909 44.0825L51.3519 44.1318C51.2129 44.305 51.0694 44.4748 50.9214 44.6405L50.8747 44.693C50.8117 44.7633 50.7477 44.834 50.6822 44.905L50.6329 44.9585C50.6002 44.9943 50.5659 45.03 50.5329 45.066C50.5002 45.1018 50.4659 45.138 50.4314 45.1743L50.3287 45.2825L50.2244 45.3915L50.1194 45.5005C50.0489 45.5735 49.9782 45.6465 49.9069 45.7195C48.8932 46.7593 47.8252 47.7955 47.4637 48.4415C47.4394 48.4835 47.4177 48.527 47.3982 48.5713C47.3467 48.6888 47.3252 48.7893 47.3399 48.8705C47.3447 48.8973 47.3539 48.9228 47.3677 48.9463C47.3879 48.9815 47.4127 49.014 47.4414 49.043C47.4547 49.056 47.4687 49.068 47.4834 49.079C47.5579 49.132 47.6477 49.1593 47.7392 49.1568H47.7677L47.7969 49.1545L47.8262 49.1513L47.8504 49.1478C47.8537 49.1473 47.8572 49.1468 47.8604 49.1458L47.8827 49.1415L47.8884 49.1403L47.9132 49.135L47.9219 49.1328C47.9307 49.1305 47.9392 49.1283 47.9479 49.1258C47.9567 49.1233 47.9687 49.12 47.9792 49.1165C48.0232 49.1033 48.0662 49.0875 48.1084 49.0695C48.1307 49.0605 48.1524 49.0508 48.1739 49.0403C48.1852 49.0353 48.1964 49.03 48.2069 49.0245L48.2404 49.008C48.3204 48.9665 48.3984 48.9213 48.4744 48.8728L48.5077 48.8503C48.5189 48.8433 48.5302 48.836 48.5409 48.828L48.5742 48.8058L48.5919 48.7935L48.6399 48.7598C48.6847 48.729 48.7264 48.6973 48.7687 48.665L48.7724 48.662L48.8397 48.61C48.9314 48.5375 49.0184 48.4645 49.0974 48.3958L49.1499 48.3498L49.1547 48.3453L49.1822 48.321C49.2467 48.263 49.3042 48.209 49.3519 48.1645L49.3717 48.1453C49.3889 48.129 49.4047 48.1138 49.4189 48.1008L49.4469 48.073L49.4569 48.0633L49.4597 48.0605L49.4889 48.0313L49.5074 48.012L49.5097 48.0103L49.5184 48.0023L49.5294 47.9923L49.5329 47.989L49.5422 47.9805L49.5932 47.9358L49.6217 47.9103C49.6369 47.897 49.6517 47.8835 49.6664 47.8698L49.7004 47.8395C49.7067 47.8345 49.7127 47.829 49.7189 47.8235L49.7547 47.7923L49.8072 47.746L49.8352 47.7218C49.9439 47.6273 50.0762 47.513 50.2282 47.3843L50.2904 47.3315L50.3932 47.2453L50.4984 47.1575C50.6359 47.0433 50.7839 46.922 50.9404 46.7963L51.0432 46.7138C51.1307 46.644 51.2204 46.573 51.3114 46.5015C51.3482 46.4728 51.3854 46.444 51.4234 46.4155C51.5164 46.3433 51.6099 46.2715 51.7042 46.2008C51.9187 46.0388 52.1399 45.8765 52.3639 45.7185L52.4599 45.6515C52.5272 45.6053 52.5942 45.5588 52.6612 45.5135L52.7219 45.4725C52.8417 45.3913 52.9632 45.312 53.0857 45.2348L53.1464 45.1965L53.2067 45.159C53.2672 45.1215 53.3272 45.0848 53.3869 45.049L53.4467 45.0133L53.5662 44.9438L53.6834 44.8765L53.7072 44.8635L53.7999 44.8125C53.8387 44.7915 53.8772 44.7713 53.9157 44.7515L53.9729 44.722L54.0287 44.694C54.0482 44.6848 54.0674 44.675 54.0864 44.6658C54.2119 44.6038 54.3399 44.5468 54.4699 44.4948C54.5052 44.4798 54.5402 44.4663 54.5749 44.4545L54.6774 44.4185C54.7082 44.4083 54.7382 44.3985 54.7669 44.3898L54.7769 44.3868C54.7924 44.3818 54.8079 44.3773 54.8232 44.3733L54.8277 44.372C54.8597 44.3628 54.8914 44.3548 54.9227 44.3473H54.9249C55.0134 44.326 55.1034 44.3108 55.1942 44.3015C55.2359 44.2973 55.2777 44.295 55.3197 44.2953H55.3407C55.3687 44.2953 55.3957 44.297 55.4224 44.2998C55.4347 44.2998 55.4469 44.3023 55.4589 44.3038H55.4639C55.4759 44.3053 55.4879 44.307 55.4999 44.3098C55.5117 44.312 55.5237 44.314 55.5352 44.3168H55.5389C55.5507 44.3193 55.5612 44.3223 55.5734 44.3258C55.6369 44.3435 55.6974 44.371 55.7529 44.407C55.7802 44.4248 55.8057 44.4448 55.8292 44.467L55.8359 44.4735C55.8404 44.4775 55.8447 44.4818 55.8487 44.486L55.8609 44.4993C55.9614 44.6045 56.0444 44.7253 56.1069 44.8568L56.1164 44.8793C56.1377 44.9293 56.1544 44.981 56.1664 45.0338C56.2019 45.1953 56.1882 45.3638 56.1269 45.5175C56.1037 45.5795 56.0754 45.6393 56.0422 45.6963C55.9644 45.8273 55.8722 45.949 55.7674 46.0593L55.7452 46.083C55.7119 46.118 55.6774 46.153 55.6412 46.188C55.6252 46.2038 55.6084 46.2193 55.5917 46.235L55.5404 46.2823L55.5137 46.306C55.4492 46.3635 55.3829 46.4193 55.3157 46.4733C55.2749 46.5063 55.2339 46.5385 55.1924 46.5703C55.0459 46.6823 54.8967 46.7903 54.7447 46.8945C54.6529 46.9575 54.5604 47.0193 54.4672 47.0803C54.2374 47.231 54.0052 47.378 53.7707 47.521C53.2787 47.8235 52.7334 48.147 52.1522 48.4988L52.0017 48.59C51.8369 48.6905 51.6814 48.7865 51.5349 48.878L51.4612 48.9243L51.3217 49.0138C51.2292 49.073 51.1369 49.1328 51.0447 49.1925L50.9704 49.2415C50.9342 49.265 50.8982 49.289 50.8622 49.313L50.8269 49.3355L50.7189 49.4083L50.6617 49.4475L50.5947 49.494L50.5324 49.5373C50.4282 49.611 50.3312 49.6813 50.2419 49.748L50.2084 49.7735C50.1559 49.8133 50.1039 49.8538 50.0527 49.895C49.9754 49.9573 49.9049 50.0168 49.8417 50.074L49.8107 50.1023C49.7929 50.1185 49.7754 50.1348 49.7587 50.1508C49.7472 50.162 49.7364 50.1733 49.7244 50.184L49.7084 50.2C49.6727 50.236 49.6377 50.2728 49.6039 50.3105L49.5874 50.3295C49.5507 50.372 49.5187 50.4128 49.4907 50.4525L49.4782 50.4703C49.4562 50.5023 49.4359 50.5353 49.4177 50.5693C49.4129 50.5778 49.4087 50.5863 49.4044 50.5948L49.3922 50.6203L49.3839 50.6388L49.3787 50.6513L49.3744 50.6625L49.3687 50.6778C49.3532 50.72 49.3424 50.764 49.3362 50.8085L49.3342 50.824L49.3327 50.8385V50.9173C49.3327 50.9238 49.3327 50.9303 49.3344 50.9373L49.3357 50.9493C49.3357 50.9558 49.3372 50.962 49.3382 50.969C49.3392 50.9755 49.3409 50.9873 49.3429 50.9965V50.9978C49.3447 51.0065 49.3464 51.015 49.3487 51.0238C49.3509 51.0325 49.3532 51.0425 49.3559 51.0515C49.3607 51.0693 49.3667 51.0868 49.3729 51.1043C49.3769 51.1148 49.3807 51.125 49.3849 51.1353C49.3849 51.1373 49.3864 51.1395 49.3874 51.1415L49.3964 51.1618L49.4089 51.1895C49.4224 51.2183 49.4372 51.2463 49.4532 51.2735L49.4697 51.302L49.4867 51.3305C49.4897 51.3353 49.4932 51.3398 49.4969 51.344L49.5024 51.3498L49.5087 51.3555L49.5152 51.3605C49.5247 51.3673 49.5349 51.3725 49.5457 51.3763C49.5514 51.3783 49.5574 51.3798 49.5634 51.3813C49.7077 51.4138 50.0042 51.2945 50.3982 51.0865C50.4204 51.0745 50.4449 51.062 50.4687 51.049L50.5887 50.9835L50.6472 50.951C50.6889 50.9288 50.7314 50.9035 50.7749 50.8788L50.8542 50.834C51.3749 50.5343 51.9969 50.1493 52.6399 49.7733C52.7002 49.738 52.7607 49.7028 52.8212 49.668L52.9427 49.5903C53.0837 49.5095 53.2254 49.4298 53.3677 49.351C53.5469 49.2525 53.7274 49.1565 53.9097 49.0635L54.0287 49.0033C54.1077 48.9643 54.1859 48.9263 54.2632 48.8893C54.4127 48.8183 54.5639 48.7508 54.7169 48.687L54.8007 48.653L54.8107 48.649C55.2544 48.4733 55.6567 48.3648 55.9822 48.3648C56.0524 48.364 56.1229 48.37 56.1922 48.382H56.1944C56.2167 48.386 56.2369 48.3905 56.2577 48.3955H56.2614C56.3147 48.409 56.3664 48.4283 56.4154 48.453C56.4842 48.4885 56.5459 48.5358 56.5982 48.5928C56.6222 48.6193 56.6434 48.648 56.6622 48.6785C56.6972 48.7323 56.7247 48.7905 56.7444 48.8515C56.7524 48.8753 56.7594 48.8985 56.7667 48.9233C56.8194 49.1125 56.8142 49.3133 56.7517 49.4995Z" fill="#FF9D00"/>
<path fill-rule="evenodd" clip-rule="evenodd" d="M53.8026 35.9212V35.7985C53.8026 25.335 45.3231 16.8527 34.8588 16.8527C24.3949 16.8527 15.9121 25.3355 15.9121 35.7985V35.8395C15.9116 35.8667 15.9113 35.894 15.9121 35.9212C15.9133 35.962 15.9137 36.0027 15.9133 36.0435L15.9146 36.1335L15.9153 36.1657C15.9153 36.1807 15.9159 36.1955 15.9164 36.2105C15.9171 36.2342 15.9176 36.2582 15.9176 36.282L15.9203 36.3792L15.9243 36.4935L15.9256 36.531L15.9306 36.6492V36.655C15.9326 36.7012 15.9351 36.7472 15.9374 36.7932L15.9376 36.7967C15.9401 36.8437 15.9426 36.891 15.9456 36.9382C15.9481 36.9817 15.9506 37.0252 15.9538 37.0687L15.9544 37.0765C15.9565 37.1137 15.959 37.1512 15.9618 37.1885L15.9626 37.1985L15.9708 37.3065L15.9716 37.3135C15.9731 37.3345 15.9746 37.3555 15.9766 37.3757C15.9915 37.556 16.009 37.7362 16.0289 37.916L16.0301 37.9272L16.0453 38.0595L16.0624 38.1982L16.0748 38.2925L16.0806 38.3367C16.0939 38.4387 16.1083 38.5405 16.1238 38.642L16.1249 38.6487L16.1396 38.7447C16.211 39.202 16.2994 39.6565 16.4046 40.1072L16.4059 40.1127L16.4138 40.1465L16.4366 40.2427L16.4506 40.226C17.0006 39.5685 17.7896 39.206 18.6723 39.206C19.3798 39.206 20.1056 39.44 20.8331 39.9012C21.3156 40.2077 21.8491 40.7505 22.3981 41.4332C22.9061 40.7277 23.6181 40.2587 24.4326 40.1307C24.5879 40.1062 24.7449 40.094 24.9021 40.0937C26.7611 40.0937 27.8808 41.707 28.3038 43.1582C28.5128 43.6485 29.5201 45.8815 31.0391 47.392C33.3481 49.6987 33.9258 52.079 32.7831 54.6277H32.7871C32.8648 54.6365 32.9431 54.6445 33.0218 54.6517C33.0686 54.6562 33.1151 54.6607 33.1621 54.6647L33.1786 54.6662L33.2818 54.675L33.3768 54.6825C33.4673 54.6895 33.5581 54.696 33.6491 54.7017L33.7213 54.706L33.7786 54.7095L33.8141 54.7115L33.9258 54.7172L33.9563 54.7185L34.0736 54.7237L34.2041 54.7287L34.3088 54.7317L34.3263 54.7322C34.3486 54.7332 34.3708 54.734 34.3931 54.734L34.4171 54.7347C34.5646 54.7382 34.7118 54.74 34.8593 54.7397H35.0158L35.1276 54.7385C35.1551 54.7372 35.1823 54.7372 35.2101 54.7372H35.2536L35.2913 54.7362C35.3061 54.7357 35.3208 54.7352 35.3358 54.7352H35.3806L35.4683 54.733L35.6003 54.7285L35.7456 54.722C35.7876 54.7205 35.8291 54.7182 35.8706 54.7162L35.9153 54.7135L35.9818 54.71L36.0208 54.7077L36.0503 54.7057L36.1846 54.697L36.3186 54.6872L36.4403 54.6775L36.5258 54.6702L36.6198 54.6617C36.7768 54.6477 36.9333 54.6312 37.0898 54.6125L37.1966 54.5997C36.0718 52.0617 36.6541 49.6917 38.9533 47.3942C40.4691 45.8797 41.4763 43.6467 41.6863 43.1562C42.1096 41.7052 43.2286 40.092 45.0881 40.092C45.2453 40.092 45.4026 40.1045 45.5578 40.129C46.3716 40.257 47.0836 40.726 47.5923 41.4315C48.1416 40.749 48.6748 40.2057 49.1576 39.8992C49.8848 39.4382 50.6113 39.2042 51.3181 39.2042C52.0971 39.2042 52.8031 39.4867 53.3363 40.005C53.3461 39.9627 53.3556 39.9205 53.3648 39.878L53.3921 39.7515C53.4018 39.7052 53.4116 39.659 53.4208 39.6127C53.4373 39.531 53.4538 39.4492 53.4696 39.3667C53.4861 39.2812 53.5018 39.1952 53.5168 39.1092L53.5246 39.0627C53.5293 39.0352 53.5338 39.0077 53.5391 38.98C53.5476 38.937 53.5546 38.894 53.5616 38.8505L53.5643 38.834L53.5821 38.7207L53.5996 38.606V38.605C53.6123 38.5202 53.6243 38.4355 53.6356 38.3507L53.6383 38.3297L53.6541 38.2102L53.6668 38.1082L53.6893 37.9072L53.6981 37.8265L53.7003 37.8045C53.7051 37.761 53.7096 37.7175 53.7136 37.674V37.6705C53.7168 37.636 53.7203 37.6012 53.7233 37.5665C53.7411 37.3695 53.7561 37.1715 53.7681 36.9727C53.7703 36.9402 53.7721 36.9075 53.7741 36.8747V36.8732L53.7806 36.7505L53.7821 36.723C53.7861 36.64 53.7896 36.557 53.7923 36.474V36.471L53.7936 36.4385C53.7948 36.4112 53.7958 36.3837 53.7958 36.3562L53.7963 36.3452C53.7973 36.3195 53.7983 36.293 53.7983 36.2667L53.7991 36.2442C53.7998 36.218 53.8006 36.192 53.8006 36.1657L53.8011 36.1435C53.8018 36.1102 53.8026 36.0767 53.8026 36.0435V35.9212ZM30.1596 54.8477C31.6601 52.6475 31.5536 50.996 29.4951 48.9385C27.4361 46.8807 26.2378 43.8717 26.2378 43.8717C26.2378 43.8717 25.7906 42.124 24.7706 42.2845C23.7506 42.445 23.0024 45.0567 25.1381 46.6555C27.2736 48.2542 24.7131 49.3382 23.8911 47.838C23.0691 46.3375 20.8248 42.4807 19.6613 41.743C18.4978 41.0052 17.6796 41.4187 17.9538 42.9392C18.0901 43.694 19.3571 44.9822 20.5409 46.1857C21.7419 47.4067 22.8571 48.5407 22.6186 48.942C22.1453 49.7387 20.4786 48.0057 20.4786 48.0057C20.4786 48.0057 15.2596 43.2562 14.1236 44.494C13.0761 45.6347 14.6913 46.6045 17.1804 48.0992C17.3919 48.2262 17.6099 48.3572 17.8331 48.4922C20.6809 50.2162 20.9023 50.671 20.4981 51.3232C20.3488 51.5642 19.3956 50.992 18.2231 50.2882C16.2243 49.088 13.5889 47.5057 13.2166 48.922C12.8946 50.1477 14.8336 50.8987 16.5921 51.58C18.0571 52.1475 19.3971 52.6665 19.1999 53.371C18.9956 54.1015 17.8884 53.4922 16.6781 52.8262C15.3194 52.0785 13.8306 51.2595 13.3434 52.1837C12.4226 53.9312 19.6959 55.9885 19.7559 56.0037C22.1059 56.6132 28.0738 57.9047 30.1596 54.8477ZM39.8258 54.8477C38.3253 52.6475 38.4318 50.996 40.4906 48.9385C42.5493 46.8807 43.7476 43.8717 43.7476 43.8717C43.7476 43.8717 44.1948 42.124 45.2148 42.2845C46.2348 42.445 46.9831 45.0567 44.8476 46.6555C42.7118 48.2542 45.2723 49.3382 46.0943 47.838C46.9166 46.3375 49.1593 42.4807 50.3228 41.743C51.4863 41.0052 52.3051 41.4187 52.0306 42.9392C51.8946 43.694 50.6273 44.9822 49.4436 46.186C48.2426 47.407 47.1273 48.5407 47.3656 48.942C47.8388 49.7387 49.5068 48.0047 49.5068 48.0047C49.5068 48.0047 54.7256 43.2555 55.8621 44.4932C56.9093 45.6337 55.2941 46.6037 52.8048 48.0985C52.5871 48.2292 52.3696 48.3602 52.1523 48.4915C49.3046 50.2155 49.0831 50.6702 49.4871 51.3222C49.6366 51.5635 50.5898 50.991 51.7621 50.2872C53.7611 49.0872 56.3966 47.5047 56.7688 48.9212C57.0911 50.147 55.1518 50.898 53.3933 51.5792C51.9283 52.1467 50.5883 52.6657 50.7853 53.3702C50.9893 54.1005 52.0963 53.4912 53.3063 52.8252C54.6651 52.0775 56.1541 51.258 56.6411 52.183C57.5621 53.9315 50.2876 55.9867 50.2288 56.0017C47.8788 56.6132 41.9108 57.9047 39.8258 54.8477Z" fill="#FFD21E"/>
<path fill-rule="evenodd" clip-rule="evenodd" d="M41.0117 30.6417C41.3072 30.7462 41.527 31.0642 41.736 31.367C42.0185 31.776 42.2815 32.1567 42.685 31.9422C43.161 31.689 43.5513 31.3005 43.8063 30.8255C44.0615 30.3505 44.1703 29.8106 44.1188 29.274C44.0803 28.8727 43.9532 28.4849 43.7467 28.1387C43.5402 27.7924 43.2595 27.4962 42.925 27.2715C42.5902 27.0468 42.2097 26.8992 41.8112 26.8392C41.4125 26.7792 41.0055 26.8084 40.6195 26.9247C40.2335 27.0409 39.8782 27.2413 39.579 27.5113C39.2797 27.7814 39.044 28.1144 38.889 28.4865C38.734 28.8585 38.6632 29.2603 38.682 29.663C38.701 30.0657 38.8088 30.459 38.998 30.815C39.185 31.1667 39.6 31.0007 40.038 30.8255C40.3812 30.6882 40.739 30.5452 41.0117 30.6417ZM28.168 30.6417C27.8725 30.7462 27.6527 31.0645 27.4437 31.367C27.1612 31.7762 26.898 32.1567 26.4947 31.9422C25.8961 31.6252 25.437 31.0965 25.2069 30.4595C24.9769 29.8223 24.9923 29.1224 25.2502 28.496C25.5081 27.8696 25.99 27.3617 26.602 27.0713C27.214 26.7809 27.9122 26.7289 28.5605 26.9252C29.0767 27.0807 29.5352 27.3856 29.8782 27.8016C30.2212 28.2176 30.433 28.7258 30.4872 29.2622C30.5412 29.7986 30.435 30.339 30.182 30.815C29.9947 31.1667 29.5797 31.0007 29.1417 30.8257C28.7982 30.6882 28.441 30.5452 28.168 30.6417ZM39.0247 42.3295C41.0605 40.7257 41.8083 38.1072 41.8083 36.4942C41.8083 35.2192 40.9505 35.6205 39.5773 36.3005L39.4997 36.3387C38.2392 36.963 36.5612 37.7942 34.7192 37.7942C32.877 37.7942 31.199 36.963 29.9387 36.3385C28.521 35.6362 27.6317 35.1957 27.6317 36.4945C27.6317 38.1585 28.4272 40.8907 30.6107 42.478C30.899 41.8932 31.3047 41.3742 31.8027 40.9532C32.3005 40.5322 32.88 40.2185 33.5045 40.0315C33.7225 39.9665 33.947 40.3417 34.1767 40.726C34.3985 41.0965 34.6252 41.4755 34.8557 41.4755C35.1015 41.4755 35.3427 41.102 35.5785 40.7375C35.8247 40.3562 36.065 39.985 36.2972 40.0592C37.466 40.4345 38.4437 41.2482 39.0247 42.3295Z" fill="#32343D"/>
<path d="M39.0243 42.3293C37.964 43.1648 36.5548 43.725 34.7195 43.725C32.9953 43.725 31.6468 43.2305 30.6108 42.4778C30.899 41.893 31.3048 41.3738 31.8028 40.953C32.3005 40.532 32.88 40.2183 33.5045 40.0313C33.9325 39.9035 34.3863 41.4753 34.8558 41.4753C35.3583 41.4753 35.8425 39.9138 36.2973 40.059C37.4658 40.4345 38.4433 41.2483 39.0243 42.3293Z" fill="#FF323D"/>
<path fill-rule="evenodd" clip-rule="evenodd" d="M23.3001 32.91C23.0579 33.072 22.7794 33.1717 22.4894 33.2002C22.1993 33.229 21.9067 33.1855 21.6376 33.0737C21.4224 32.985 21.2269 32.8545 21.0623 32.6897C20.8976 32.5252 20.7672 32.3297 20.6783 32.1145C20.5668 31.8452 20.5234 31.5527 20.5521 31.2627C20.5808 30.9727 20.6805 30.6942 20.8426 30.452C21.0373 30.1605 21.314 29.9333 21.6379 29.7991C21.9617 29.665 22.3181 29.6299 22.6618 29.6983C23.0056 29.7668 23.3214 29.9356 23.5692 30.1835C23.8169 30.4315 23.9856 30.7475 24.0538 31.0912C24.1221 31.435 24.087 31.7912 23.9529 32.115C23.8188 32.4387 23.5914 32.7152 23.3001 32.91ZM48.6533 32.91C48.4111 33.072 48.1326 33.1717 47.8426 33.2002C47.5523 33.229 47.2598 33.1855 46.9906 33.0737C46.7753 32.9847 46.5798 32.8545 46.4153 32.6897C46.2508 32.5252 46.1203 32.3297 46.0313 32.1145C45.9201 31.8452 45.8768 31.5527 45.9053 31.2627C45.9341 30.9727 46.0338 30.6942 46.1956 30.452C46.3411 30.234 46.5333 30.0512 46.7581 29.9164C46.9828 29.7817 47.2346 29.6985 47.4953 29.6729C47.7563 29.6472 48.0196 29.6798 48.2661 29.7682C48.5128 29.8566 48.7368 29.9986 48.9221 30.184C49.1701 30.4317 49.3388 30.7475 49.4071 31.0912C49.4756 31.435 49.4403 31.7912 49.3061 32.115C49.1718 32.4387 48.9448 32.7152 48.6533 32.91Z" fill="#FFAD03"/>
</svg>
