<svg width="70" height="70" viewBox="0 0 70 70" fill="none" xmlns="http://www.w3.org/2000/svg">
<path d="M30.3809 26.9738L23.5345 44.1258C23.5345 44.1258 21.5894 50.5412 25.1204 50.5412C28.6513 50.5412 28.0601 50.5412 28.0601 50.5412C28.0601 50.5412 34.3871 36.2682 39.0342 27.6203C43.6814 18.9725 37.1942 18 34.597 18C31.9999 18 28.4358 19.188 28.4358 19.188C28.4358 19.188 32.221 22.3653 30.3809 26.9738Z" fill="white"/>
<path d="M37.5367 34.8646C37.5367 34.8646 40.1338 35.5111 40.1338 39.136C40.1338 42.7609 37.5367 45.568 37.5367 48.3806C37.5367 51.1932 38.2937 52.3813 42.8856 52.3813C42.8856 52.3813 42.2888 48.1651 46.1845 38.5945C46.1845 38.5945 47.914 34.8646 43.1011 34.8646H37.5311H37.5367Z" fill="white"/>
</svg>
