<svg width="70" height="70" viewBox="0 0 70 70" fill="none" xmlns="http://www.w3.org/2000/svg">
<path fill-rule="evenodd" clip-rule="evenodd" d="M40.604 38.8512C41.0397 41.0905 39.8595 42.9504 38.8789 44.7558C37.7896 46.4355 35.9919 47.8792 33.8311 47.6631C28.9823 47.5909 24.2433 46.8506 19.8485 45.5319C19.649 45.4779 19.4494 45.3511 19.3402 45.1709C19.2493 44.9178 19.3768 44.683 19.558 44.5209C23.5715 41.2883 28.3471 39.79 33.0683 38.2183C34.8294 37.7128 36.7004 37.1709 38.6793 37.424C39.4958 37.5326 40.3129 38.0927 40.604 38.8512ZM57.1465 29.2808C59.3982 31.1225 61.432 33.633 60.7419 36.6666C59.616 41.1451 54.7135 43.5288 50.8093 45.0452C48.6845 45.7498 46.542 46.4725 44.2177 46.6892C44.0725 46.671 43.8363 46.7068 43.7997 46.4901L43.854 46.2377C47.159 42.5354 49.6645 38.3828 51.8626 34.1749C52.8792 32.2786 53.8238 30.3288 54.6952 28.4142C54.8221 28.2698 54.9497 28.1976 55.0949 28.1436C55.9114 28.2152 56.4929 28.8475 57.1465 29.2808ZM25.4589 24.5135L25.3863 24.7841C20.6107 30.1832 17.4693 36.4494 14.4914 42.6792C13.9104 43.2211 13.3472 42.4983 12.8206 42.2635C10.1692 40.5304 7.77222 37.731 8.46239 34.4086C9.56994 30.0751 14.0551 27.7637 17.7963 26.1932C20.0114 25.3624 22.3181 24.6943 24.751 24.315C25.0055 24.3144 25.332 24.2786 25.4589 24.5135ZM49.1568 25.38C49.429 25.5245 49.7561 25.5785 49.9196 25.8491C50.0648 26.1562 49.7744 26.3546 49.6108 26.5537C45.8519 29.4786 41.5486 31.1043 37.1538 32.531C34.9198 33.0729 32.668 34.0481 30.1808 33.5062C29.5992 33.3618 29.0732 32.9825 28.7461 32.4224C28.1286 30.7251 28.964 28.9555 29.6902 27.4748C30.6525 25.6149 32.3599 23.4296 34.7202 23.3938C39.8046 23.3574 44.5985 24.116 49.1568 25.38ZM55.4397 25.5245C59.2896 27.6193 63.6478 31.3028 63.1938 36.2145C62.6671 40.7652 58.3999 43.9432 54.5866 45.8578C43.4549 51.1488 27.8204 51.3109 16.3257 46.6886C12.4392 45.0817 8.081 42.3187 6.44621 38.1649C5.19343 34.752 6.71837 31.1948 9.27947 28.8293C14.636 23.9898 21.4638 22.3288 28.4917 21.3713C36.1188 20.4501 44.1445 21.2626 50.9722 23.5923C52.4978 24.1524 54.005 24.7665 55.4397 25.5245Z" fill="#003984"/>
</svg>
