<svg width="90" height="90" viewBox="0 0 90 90" fill="none" xmlns="http://www.w3.org/2000/svg">
<path d="M4.93332 35.915H0V53.1883H4.93332V35.915Z" fill="#0097DD"/>
<path d="M14.2666 43.2484H8.73331V45.5817H14.2666V43.2484Z" fill="#0097DD"/>
<path d="M48.533 38.2484H58.4663C59.3997 38.2484 59.7997 38.115 60.133 37.3817L60.9997 35.915H46.7997C42.2664 35.915 40.6664 37.2484 40.6664 41.1817V47.8483C40.6664 51.8483 42.2664 53.1817 46.7997 53.1817H58.4663C59.3997 53.1817 59.7997 52.9817 60.133 52.2483L60.9997 50.7817H48.533C46.3997 50.7817 45.5997 50.115 45.5997 48.2483V45.315H57.5997C57.9429 45.3693 58.2945 45.3149 58.6052 45.1595C58.916 45.0041 59.1705 44.7555 59.333 44.4483L60.1997 42.915H45.5997V40.8484C45.5997 38.9817 46.3997 38.2484 48.533 38.2484Z" fill="#0097DD"/>
<path d="M29.7998 35.915H18.2665V53.1817H23.1998V46.115H29.7998C34.8664 46.115 37.9998 44.715 37.9998 40.9817C37.9998 37.2484 34.8664 35.915 29.7998 35.915ZM27.9331 43.715H23.1998V38.2484H27.9331C30.9331 38.2484 32.7998 38.8484 32.7998 40.9817C32.7998 43.115 30.9331 43.715 27.9331 43.715Z" fill="#0097DD"/>
<path d="M71.9999 37.115C70.8666 36.115 70.1999 35.915 68.2666 35.915H63.2666L72.7999 44.3817L62.1333 53.1817H65.6666C67.5999 53.1817 68.3333 52.915 69.5333 51.915L75.5999 46.915L81.2666 51.915C82.3999 52.915 83.0665 53.1817 84.9999 53.1817H89.9999L71.9999 37.115Z" fill="#0097DD"/>
<path d="M79.8001 35.915V43.4484L89.0001 35.915H79.8001Z" fill="#E60012"/>
</svg>
