<svg width="90" height="90" viewBox="0 0 90 90" fill="none" xmlns="http://www.w3.org/2000/svg">
<path d="M74.2043 60.6452H74.1267H74.049H73.9714H73.8937H73.8161H73.7384H73.6607H73.5831L73.5054 60.7228L73.4278 60.8005L73.3501 60.8781L73.2724 60.9558L73.1948 61.0335L72.8842 61.1111L72.8065 61.1888L72.7288 61.2664L72.6512 61.3441L72.5735 61.4218L72.4959 61.4994L72.4182 61.5771L72.3405 61.6547L72.2629 61.7324L72.1852 61.81L72.2629 61.8877V61.9654V62.043V62.1207V62.1983V62.276V62.3537V62.4313V62.509V62.5866V62.6643V62.7419V62.8196V62.8973V62.9749V63.0526V63.1302L72.3405 63.2079L72.4182 63.2856L72.4959 63.3632L72.5735 63.4409L72.6512 63.5185L72.7288 63.5962L72.8065 63.6738L72.8842 63.7515L72.9618 63.8292L73.0395 63.9068L73.1171 63.9845L73.1948 64.0621L73.2724 64.1398L73.3501 64.2175L73.4278 64.2951L73.5054 64.3728L73.5831 64.4504H73.6607H73.7384H73.8161H73.8937H73.9714H74.049H74.1267H74.2043H74.282H74.3597H74.4373H74.515H74.5926H74.6703L74.748 64.3728L74.8256 64.2951L74.9033 64.2175L74.9809 64.1398L75.0586 64.0621L75.1362 63.9845L75.2139 63.9068L75.2916 63.8292L75.3692 63.7515L75.4469 63.6738L75.5245 63.5962L75.6022 63.5185L75.6799 63.4409L75.7575 63.3632L75.8352 63.2856L75.9128 63.2079L75.9905 63.1302V63.0526V62.9749V62.8973V62.8196V62.7419V62.6643V62.5866V62.509V62.4313V62.3537V62.276V62.1983V62.1207V62.043V61.9654V61.8877L75.9128 61.81L75.8352 61.7324L75.7575 61.6547L75.6799 61.5771L75.9128 61.4994L75.8352 61.4218L75.7575 61.3441L75.6799 61.2664L75.6022 61.1888L75.5245 61.1111L75.4469 61.0335L75.3692 60.9558L75.2916 60.8781L75.2139 60.8005H75.1362L75.0586 60.7228H74.9809H74.9033H74.8256H74.748H74.6703H74.5926H74.515L74.2043 60.6452ZM74.2043 60.1016H74.3597H74.515H74.6703H74.8256H74.9809H75.1362L75.2916 60.1792L75.4469 60.2569L75.6022 60.3345L75.6799 60.4122L75.7575 60.4899L75.8352 60.5675L75.9128 60.6452L75.9905 60.7228L76.0681 60.8005L76.1458 60.8781L76.2235 60.9558L76.3011 61.0335L76.3788 61.1111L76.4564 61.1888L76.5341 61.2664L76.6118 61.3441L76.6894 61.4218L76.7671 61.5771L76.8447 61.7324L76.9224 61.8877L77 62.043V62.1983V62.3537V62.509V62.6643V62.8196V62.9749V63.1302V63.2856V63.4409V63.5962L76.9224 63.7515L76.6894 63.6738V63.7515L76.6118 63.9068L76.5341 63.9845L76.4564 64.0621V64.2175L76.3788 64.2951L76.3011 64.3728L76.2235 64.4504L76.1458 64.5281L76.0681 64.6057L75.9128 64.7611L75.8352 64.8387L75.7575 64.9164L75.6022 64.994L75.5245 65.0717L75.4469 65.1494L75.2916 65.227H75.1362L74.9809 65.3047H74.8256H74.6703H74.515H74.3597H74.2043H74.049H73.8937H73.7384H73.5831H73.4278H73.2724H73.1171L72.9618 65.227L72.8842 65.1494L72.7288 65.0717L72.6512 64.994H72.8065L72.7288 64.9164L72.6512 64.8387L72.5735 64.7611L72.4959 64.6834L72.4182 64.6057L72.3405 64.5281L72.2629 64.4504L72.0299 64.2951L71.9523 64.2175L71.8746 64.1398L71.7969 64.0621L71.7193 63.9845L71.6416 63.8292L71.564 63.6738V63.5185V63.3632V63.2079V63.0526V62.8973V62.7419V62.5866V62.4313V62.276V62.1207V61.9654V61.81V61.6547V61.4994L71.6416 61.3441L71.7193 61.1888L71.7969 61.1111L71.8746 61.0335L71.9523 60.9558L72.0299 61.1111L72.1076 61.0335L72.1852 60.9558L72.2629 60.8781L72.3405 60.8005L72.4182 60.7228L72.4959 60.6452L72.5735 60.5675L72.6512 60.4899L72.7288 60.4122L72.8065 60.3345L72.9618 60.2569L73.0395 60.1792L73.1948 60.1016H73.3501H73.5054H73.6607H73.8161H73.9714H74.2043ZM74.049 62.509H74.1267H74.2043H74.282H74.3597H74.2043H74.049ZM72.9618 64.1398V61.2664H74.2043H74.282H74.3597H74.4373H74.515H74.5926H74.6703H74.748H74.8256H74.9033H74.9809H75.0586H75.1362V61.3441H75.2139V61.4218V61.4994V61.5771V61.6547V61.7324V61.81V61.8877V61.9654V62.043V62.1207V62.1983V62.276V62.3537H75.1362H75.0586H74.9809H74.9033L74.9809 62.4313L75.0586 62.509H75.1362V62.5866L75.2139 62.6643V62.7419L75.1362 63.4409L75.2139 63.5962L75.5245 64.1398H74.8256L74.4373 63.5185L74.3597 63.3632L74.282 63.2079L74.2043 63.1302L74.1267 63.0526L74.049 62.9749H73.9714H73.8937H73.8161H73.7384H73.6607H73.5831V64.1398H72.9618Z" fill="#3B801C"/>
<path d="M21.086 37.1143H13.7861C12.7766 37.1143 12 37.8908 12 38.9004V63.6734C12 64.683 12.7766 65.4595 13.7861 65.4595H21.086C22.0956 65.4595 22.8722 64.683 22.8722 63.6734V38.9004C22.8722 37.8908 22.0956 37.1143 21.086 37.1143Z" fill="#3B801C"/>
<path d="M21.086 26.165H13.7861C12.8542 26.165 12.0776 26.9416 12.0776 27.9512V33.6202C12.0776 34.6298 12.8542 35.4064 13.8638 35.4064H21.1637C22.1732 35.4064 22.9498 34.6298 22.9498 33.6202V27.9512C22.8721 26.9416 22.0956 26.165 21.086 26.165Z" fill="#B81C22"/>
<path d="M27.0657 29.0384V62.4315C27.0657 64.0623 28.3859 65.3048 29.9391 65.3048H52.6153V54.821H37.8602V51.2487H52.6153V40.6871H37.8602V37.0372H53.0036V26.165H29.9391C28.3083 26.165 27.0657 27.4852 27.0657 29.0384Z" fill="#3B801C"/>
<path d="M66.8267 40.6875H58.9832C58.2066 40.6875 57.5077 41.3088 57.5077 42.163V63.9073C57.5077 64.6839 58.129 65.3828 58.9832 65.3828H66.9043C67.6809 65.3828 68.3799 64.7616 68.3799 63.9073V42.163C68.3022 41.3864 67.6809 40.6875 66.8267 40.6875Z" fill="#3B801C"/>
<path d="M62.9439 25C59.4493 25 56.6536 27.6404 56.6536 30.902C56.6536 34.1637 59.4493 36.8041 62.9439 36.8041C66.4385 36.8041 69.2342 34.1637 69.2342 30.902C69.2342 27.6404 66.4385 25 62.9439 25Z" fill="#19388F"/>
</svg>
