<svg width="70" height="70" viewBox="0 0 70 70" fill="none" xmlns="http://www.w3.org/2000/svg">
<path d="M37.0859 30.5885C37.0859 33.0845 37.0601 35.5828 37.0976 38.0788C37.114 39.2776 37.1749 40.4858 37.3411 41.6729C37.5916 43.4384 39.7833 44.9885 41.8648 44.9791C44.6254 44.965 47.386 44.9533 50.1489 44.944C51.8746 44.9393 52.0104 45.0681 51.9963 46.8148C51.9682 50.8257 52.4108 50.2029 48.5895 50.2614C46.2106 50.2989 43.8293 50.3902 41.4551 50.2966C39.4578 50.217 37.4769 49.8564 35.6084 49.093C32.4428 47.7959 31.066 45.1875 30.5275 41.9937C30.1856 39.9684 30.1903 37.9477 30.2675 35.8848C30.4338 31.4829 30.3191 27.0692 30.3191 22.6579C30.3191 20.6841 30.3191 20.677 32.2344 20.656C33.3653 20.6443 34.5009 20.7098 35.6272 20.6372C36.7862 20.5646 37.107 21.0681 37.0859 22.1592C37.032 24.9666 37.0672 27.7787 37.0672 30.5861C37.0718 30.5861 37.0765 30.5861 37.0812 30.5861L37.0859 30.5885Z" fill="white"/>
<path d="M24.6765 35.4071C24.6765 39.7388 24.6835 44.0705 24.6718 48.4022C24.6671 49.9453 24.3534 50.2543 22.8291 50.2707C21.6583 50.2848 20.4876 50.2754 19.3169 50.259C17.4694 50.2356 17.4413 50.2099 17.4413 48.3062C17.439 40.4623 17.4413 32.6184 17.4413 24.7769C17.4413 23.8801 17.4812 22.9786 17.4273 22.0842C17.3641 21.0001 17.8534 20.6208 18.8907 20.6535C20.2558 20.6957 21.6209 20.6489 22.9883 20.6535C24.5711 20.6606 24.6788 20.7589 24.6812 22.2949C24.6882 26.6664 24.6835 31.0356 24.6835 35.4071H24.6788H24.6765Z" fill="white"/>
</svg>
