<svg width="90" height="90" viewBox="0 0 90 90" fill="none" xmlns="http://www.w3.org/2000/svg">
<path d="M47.4934 26.8888C48.2309 26.3161 48.9309 25.7176 49.6848 25.1979C51.3156 24.0731 53.1173 23.33 55.0594 22.9267C56.0598 22.7192 57.07 22.5977 58.0897 22.6052C61.2499 22.6286 64.1426 23.537 66.7311 25.3472C69.752 27.4597 71.7687 30.3172 72.8151 33.8436C73.0709 34.7055 73.1986 35.6078 73.3488 36.4974C73.5207 37.517 73.5239 38.5497 73.4418 39.5778C73.2629 41.8189 72.6621 43.9427 71.6119 45.9355C70.7505 47.5701 69.6407 49.0164 68.2728 50.2539C66.2293 52.1025 63.8577 53.3235 61.1523 53.8873C59.997 54.1282 58.8304 54.2573 57.655 54.2014C56.8823 54.1648 56.1142 54.0315 55.3439 53.9432C55.2847 53.9366 55.2247 53.9423 55.142 53.9423C55.1979 54.2451 55.2646 54.5295 55.3012 54.8178C55.3824 55.4633 55.4683 56.1097 55.5148 56.758C55.5486 57.2316 55.5284 57.71 55.5218 58.186C55.5035 59.5342 55.2636 60.8482 54.8867 62.1392C54.3064 64.1277 53.3779 65.9426 52.0874 67.5593C49.9232 70.2708 47.1625 72.0768 43.7905 72.9359C42.6253 73.2325 41.4404 73.3875 40.2438 73.3879C38.0783 73.3893 35.9991 72.9509 34.0205 72.0538C32.6441 71.4299 31.3831 70.6314 30.2457 69.6362C27.6595 67.3744 25.9789 64.5676 25.2236 61.2195C25.0386 60.3999 24.9527 59.5563 24.8494 58.7202C24.7246 57.7081 24.7753 56.6908 24.9011 55.6848C25.2635 52.7888 26.3169 50.1647 28.0792 47.832C28.2853 47.5593 28.5078 47.2987 28.7252 47.0297C28.1768 46.8255 27.6337 46.6396 27.1028 46.4227C25.5658 45.796 24.1805 44.9238 22.929 43.8333C20.3578 41.5936 18.7162 38.7934 17.9125 35.4956C17.6909 34.5853 17.5365 33.6577 17.5266 32.7151C17.5187 31.9743 17.4778 31.2293 17.5365 30.4932C17.6834 28.66 18.136 26.8973 18.8885 25.2143C19.5011 23.8436 20.2818 22.5737 21.2559 21.4339C23.4191 18.9022 26.1099 17.2038 29.3537 16.4114C30.2274 16.1978 31.1155 16.0762 32.0173 16.0255C35.5551 15.8264 38.7538 16.7963 41.6287 18.8281C44.1031 20.5767 45.8945 22.8864 47.0456 25.6899C47.2118 26.0945 47.3526 26.51 47.4934 26.8888ZM19.2345 32.0686C19.2584 32.4137 19.2697 33.039 19.3518 33.6544C19.5128 34.8599 19.818 36.0317 20.2766 37.1626C21.2066 39.4567 22.6403 41.3758 24.5823 42.9038C26.1742 44.1563 27.9614 45.0182 29.9448 45.4665C30.1649 45.5163 30.31 45.4754 30.4691 45.3397C31.6338 44.3441 32.9285 43.5568 34.3416 42.9681C35.8804 42.3269 37.4788 41.9354 39.1486 41.8297C40.0086 41.7753 40.8635 41.7692 41.7169 41.8814C42.2638 41.9532 42.2624 41.9593 42.6441 41.5269C42.7164 41.4448 42.8065 41.3758 42.8652 41.2857C42.9103 41.2166 42.9483 41.1204 42.9398 41.042C42.8924 40.6195 42.7934 40.1994 42.7793 39.7764C42.7525 38.9666 42.7277 38.1521 42.7826 37.3447C42.8389 36.5208 42.9347 35.6909 43.1149 34.8862C43.6257 32.6066 44.5834 30.5237 46.0062 28.661C46.064 28.5854 46.0832 28.4431 46.0593 28.3469C45.2819 25.204 43.6224 22.6272 41.0715 20.6307C38.8984 18.9299 36.4198 17.999 33.6754 17.8112C32.4957 17.7305 31.3169 17.823 30.1499 18.0737C26.8422 18.7844 24.1692 20.4997 22.1319 23.1751C20.2015 25.7096 19.2504 28.5971 19.234 32.0682L19.2345 32.0686ZM40.1471 71.5914C41.094 71.6055 42.0287 71.4984 42.9464 71.2942C46.1621 70.5797 48.8064 68.925 50.8105 66.3158C53.0042 63.4597 53.9924 60.214 53.7567 56.6049C53.69 55.5877 53.5079 54.5962 53.2417 53.6151C53.1915 53.4292 53.1051 53.3367 52.9263 53.2705C50.3439 52.3203 48.1774 50.7735 46.4109 48.6709C45.4002 47.4682 44.5669 46.1453 44.0055 44.676C43.8205 44.1915 43.5478 43.954 43.0652 43.8986C43.0037 43.8915 42.9431 43.8676 42.8821 43.869C42.8272 43.8699 42.7577 43.8779 42.7197 43.9112C41.5442 44.9337 40.2354 45.743 38.8073 46.3584C37.6244 46.8683 36.3982 47.2358 35.1189 47.4062C34.573 47.479 34.0242 47.5729 33.4764 47.5748C32.6605 47.5771 31.8446 47.5109 31.0292 47.463C30.8724 47.4536 30.755 47.4663 30.6339 47.5879C29.7213 48.5038 28.9618 49.5328 28.3341 50.6604C27.1169 52.8475 26.5333 55.2022 26.5352 57.6959C26.5362 58.7108 26.6606 59.7206 26.8906 60.7163C27.6468 63.9921 29.3167 66.6871 31.9746 68.7536C34.3768 70.621 37.1122 71.5421 40.1471 71.5909V71.5914ZM58.1061 52.4241C58.6112 52.3894 59.1182 52.3748 59.62 52.3147C60.1176 52.2556 60.6152 52.1748 61.1035 52.0622C63.3389 51.5467 65.3167 50.5167 67.0245 48.9897C68.5465 47.6283 69.7154 46.0021 70.5355 44.1281C71.2317 42.5377 71.626 40.8716 71.7166 39.1422C71.787 37.7944 71.664 36.4574 71.3518 35.1388C70.7937 32.7827 69.7215 30.6932 68.1 28.898C66.8062 27.4658 65.274 26.3471 63.5047 25.5598C62.0254 24.9017 60.4763 24.5153 58.8638 24.4238C57.3498 24.3379 55.8546 24.5012 54.3951 24.9341C51.9137 25.6697 49.8068 26.9991 48.0835 28.9314C48.0314 28.9896 48.014 29.1027 48.0215 29.1863C48.0915 29.967 48.2107 30.7453 48.238 31.5274C48.2779 32.6714 48.1483 33.8065 47.9244 34.9318C47.4577 37.2799 46.517 39.4173 45.0927 41.3387C44.9157 41.5776 44.8688 41.7781 44.9397 42.0771C45.0345 42.4776 45.2194 42.6827 45.6152 42.8343C48.1145 43.7915 50.1998 45.3336 51.908 47.3917C52.9882 48.693 53.8281 50.1346 54.4383 51.7101C54.4989 51.8659 54.5815 51.9377 54.743 51.9781C55.8467 52.2551 56.9621 52.4278 58.1056 52.4246L58.1061 52.4241ZM46.1217 45.028C47.4906 47.6541 49.489 49.6403 52.1432 50.958C50.7743 48.3348 48.7717 46.3542 46.1217 45.028ZM46.4461 31.2063C45.0425 33.6093 44.3735 36.1946 44.5209 38.9812C45.9245 36.58 46.5888 33.9943 46.4461 31.2063ZM32.937 45.7561C35.5555 45.7665 37.9487 45.0318 40.134 43.6085C37.5192 43.6028 35.1227 44.3267 32.937 45.7561Z" fill="#3396A4"/>
<path d="M25.0957 31.7816C25.1225 29.8071 25.7581 28.0584 27.0237 26.5572C28.2396 25.115 29.7981 24.2179 31.6632 23.9255C33.8968 23.5757 35.9116 24.1348 37.6692 25.5582C39.1766 26.7787 40.1056 28.3565 40.4572 30.2639C40.898 32.6529 40.3915 34.8362 38.9128 36.7586C37.7227 38.3054 36.1487 39.2771 34.2108 39.6217C31.9289 40.0273 29.8859 39.4776 28.0814 38.0453C26.5111 36.7994 25.6008 35.1498 25.2318 33.1965C25.1445 32.7327 25.1389 32.2538 25.0962 31.7816H25.0957Z" fill="#3396A4"/>
<path d="M39.9446 49.6138C41.9735 49.6457 43.5889 50.209 44.9897 51.3605C46.5078 52.6088 47.4481 54.2049 47.7716 56.1418C47.8772 56.7741 47.9453 57.429 47.9054 58.0656C47.7932 59.8551 47.1665 61.4559 45.9929 62.8327C44.8211 64.2082 43.3471 65.0837 41.582 65.4114C39.2953 65.8358 37.2204 65.2968 35.3971 63.8481C33.8489 62.6182 32.9077 61.0015 32.5589 59.0711C32.1317 56.7061 32.6532 54.5387 34.1198 52.621C35.2704 51.1164 36.7942 50.1837 38.6367 49.7809C39.1348 49.672 39.6516 49.6494 39.945 49.6133L39.9446 49.6138Z" fill="#3396A4"/>
<path d="M50.3169 38.4026C50.3615 36.437 50.9891 34.693 52.2454 33.1969C53.434 31.7806 54.9498 30.8915 56.7844 30.5727C59.0978 30.1709 61.1572 30.7474 62.9622 32.2219C64.4569 33.4429 65.3587 35.0282 65.7052 36.9252C66.1427 39.3208 65.6075 41.4985 64.1241 43.412C62.9449 44.9334 61.3835 45.8901 59.4719 46.2375C57.1337 46.6624 55.0475 46.0779 53.226 44.5935C51.7665 43.4044 50.8732 41.8454 50.5192 39.9935C50.4192 39.4696 50.3826 38.9335 50.3169 38.403V38.4026Z" fill="#3396A4"/>
<g opacity="0.15">
<path d="M40.0544 43.5737C47.7918 43.5737 54.064 49.8459 54.064 57.5832C54.064 65.3206 47.7918 71.5928 40.0544 71.5928C32.3171 71.5928 26.0449 65.3206 26.0449 57.5832C26.0449 49.8459 32.3171 43.5737 40.0544 43.5737ZM40.0544 41.9307C37.942 41.9307 35.8919 42.3447 33.9611 43.1615C32.0969 43.9502 30.4234 45.0783 28.9864 46.5152C27.5495 47.9522 26.4209 49.6257 25.6327 51.4899C24.8159 53.4207 24.4019 55.4708 24.4019 57.5832C24.4019 59.6957 24.8159 61.7458 25.6327 63.6766C26.4214 65.5407 27.5495 67.2143 28.9864 68.6513C30.4234 70.0882 32.0969 71.2168 33.9611 72.005C35.8919 72.8218 37.942 73.2358 40.0544 73.2358C42.1669 73.2358 44.217 72.8218 46.1478 72.005C48.0119 71.2163 49.6855 70.0882 51.1225 68.6513C52.5594 67.2143 53.688 65.5407 54.4761 63.6766C55.293 61.7458 55.707 59.6957 55.707 57.5832C55.707 55.4708 55.293 53.4207 54.4761 51.4899C53.6875 49.6257 52.5594 47.9522 51.1225 46.5152C49.6855 45.0783 48.0119 43.9497 46.1478 43.1615C44.217 42.3447 42.1669 41.9307 40.0544 41.9307Z" fill="#3396A4"/>
</g>
<path opacity="0.15" d="M40.1344 65.3646C44.4328 65.3646 47.9173 61.8801 47.9173 57.5817C47.9173 53.2833 44.4328 49.7988 40.1344 49.7988C35.8361 49.7988 32.3516 53.2833 32.3516 57.5817C32.3516 61.8801 35.8361 65.3646 40.1344 65.3646Z" fill="#3396A4"/>
<g opacity="0.15">
<path d="M58.0837 24.3999C65.8211 24.3999 72.0933 30.6721 72.0933 38.4094C72.0933 46.1468 65.8211 52.419 58.0837 52.419C50.3464 52.419 44.0742 46.1468 44.0742 38.4094C44.0742 30.6721 50.3464 24.3999 58.0837 24.3999ZM58.0837 22.7568C55.9712 22.7568 53.9212 23.1709 51.9904 23.9877C50.1262 24.7764 48.4527 25.9044 47.0157 27.3414C45.5788 28.7784 44.4502 30.4519 43.662 32.3161C42.8452 34.2469 42.4312 36.2969 42.4312 38.4094C42.4312 40.5219 42.8452 42.572 43.662 44.5028C44.4507 46.3669 45.5788 48.0405 47.0157 49.4774C48.4527 50.9144 50.1262 52.0429 51.9904 52.8311C53.9212 53.648 55.9712 54.062 58.0837 54.062C60.1962 54.062 62.2463 53.648 64.1771 52.8311C66.0412 52.0425 67.7148 50.9144 69.1518 49.4774C70.5887 48.0405 71.7173 46.3669 72.5054 44.5028C73.3223 42.572 73.7363 40.5219 73.7363 38.4094C73.7363 36.2969 73.3223 34.2469 72.5054 32.3161C71.7168 30.4519 70.5887 28.7784 69.1518 27.3414C67.7148 25.9044 66.0412 24.7759 64.1771 23.9877C62.2463 23.1709 60.1962 22.7568 58.0837 22.7568Z" fill="#3396A4"/>
</g>
<path opacity="0.15" d="M58.1632 46.1927C62.4616 46.1927 65.9461 42.7082 65.9461 38.4098C65.9461 34.1115 62.4616 30.627 58.1632 30.627C53.8649 30.627 50.3804 34.1115 50.3804 38.4098C50.3804 42.7082 53.8649 46.1927 58.1632 46.1927Z" fill="#3396A4"/>
<g opacity="0.15">
<path d="M32.6526 17.7768C40.3899 17.7768 46.6621 24.049 46.6621 31.7864C46.6621 39.5237 40.3899 45.7959 32.6526 45.7959C24.9152 45.7959 18.643 39.5237 18.643 31.7864C18.643 24.049 24.9152 17.7768 32.6526 17.7768ZM32.6526 16.1338C30.5401 16.1338 28.49 16.5478 26.5592 17.3647C24.6951 18.1533 23.0215 19.2814 21.5846 20.7184C20.1476 22.1553 19.0191 23.8289 18.2309 25.693C17.414 27.6238 17 29.6739 17 31.7864C17 33.8989 17.414 35.9489 18.2309 37.8797C19.0195 39.7439 20.1476 41.4174 21.5846 42.8544C23.0215 44.2914 24.6951 45.4199 26.5592 46.2081C28.49 47.0249 30.5401 47.439 32.6526 47.439C34.7651 47.439 36.8151 47.0249 38.7459 46.2081C40.6101 45.4194 42.2836 44.2914 43.7206 42.8544C45.1576 41.4174 46.2861 39.7439 47.0743 37.8797C47.8911 35.9489 48.3052 33.8989 48.3052 31.7864C48.3052 29.6739 47.8911 27.6238 47.0743 25.693C46.2856 23.8289 45.1576 22.1553 43.7206 20.7184C42.2836 19.2814 40.6101 18.1529 38.7459 17.3647C36.8151 16.5478 34.7651 16.1338 32.6526 16.1338Z" fill="#3396A4"/>
</g>
<path opacity="0.15" d="M32.7321 39.5706C37.0304 39.5706 40.515 36.0861 40.515 31.7878C40.515 27.4894 37.0304 24.0049 32.7321 24.0049C28.4337 24.0049 24.9492 27.4894 24.9492 31.7878C24.9492 36.0861 28.4337 39.5706 32.7321 39.5706Z" fill="#3396A4"/>
</svg>
