<svg width="90" height="90" viewBox="0 0 90 90" fill="none" xmlns="http://www.w3.org/2000/svg">
<path d="M45.2339 56.0456C39.1425 56.0456 34.2134 51.1099 34.266 45.0547C34.3154 39.0488 39.1952 34.2185 45.2175 34.2119C51.3089 34.2053 56.2446 39.1509 56.1853 45.2028C56.1261 51.2284 51.2628 56.0456 45.2372 56.0456H45.2339Z" fill="url(#paint0_linear_137_352)"/>
<path d="M18.4909 53.7272C18.4909 52.5188 18.4975 51.3137 18.4909 50.1053C18.4843 49.1636 18.886 48.6993 19.8771 48.7092C22.3466 48.7322 24.8194 48.6433 27.2823 48.7651C27.7334 48.7882 28.2437 49.5192 28.5368 50.0328C28.7278 50.3621 28.6125 50.8955 28.5697 51.3301C28.3294 53.8128 29.3764 55.4954 31.5792 56.6544C34.0125 57.9385 33.973 58.0142 32.5835 60.4377C31.6583 62.0544 30.7034 63.6579 29.8176 65.2976C29.2809 66.2887 28.6488 66.4534 27.684 65.8738C25.6162 64.6325 23.499 63.4768 21.4312 62.2322C19.4886 61.06 18.5831 59.249 18.4975 57.0199C18.4546 55.9234 18.4909 54.8237 18.4909 53.7272Z" fill="#183C59"/>
<path d="M18.4911 36.6523C17.4473 31.3873 19.9333 28.1901 24.5529 26.1783C25.6493 25.7009 26.6569 25.016 27.6842 24.3871C28.4843 23.8998 29.0968 23.9393 29.5907 24.8085C30.809 26.9455 32.1063 29.0396 33.2291 31.226C33.4299 31.6178 33.0743 32.4673 32.7253 32.9151C32.3829 33.3563 31.7342 33.5703 31.2041 33.8502C29.3701 34.8051 28.458 36.2802 28.5699 38.371C28.6029 38.9703 28.5502 39.5762 28.5765 40.1754C28.6226 41.2258 28.1189 41.6571 27.0948 41.6505C24.6879 41.6374 22.281 41.6472 19.8707 41.6637C18.9093 41.6703 18.4746 41.2126 18.4845 40.261C18.4977 39.0559 18.4878 37.8541 18.4878 36.649L18.4911 36.6523Z" fill="#183C59"/>
<path d="M45.202 15.0033C46.2359 15.3391 47.2797 15.5301 48.1753 16.001C50.2562 17.0941 52.2549 18.3519 54.3128 19.4912C55.2841 20.0312 55.4916 20.6338 54.8989 21.6117C53.7399 23.5346 52.6336 25.4871 51.5404 27.4496C51.0432 28.3419 50.4472 28.6284 49.5483 28.0258C49.275 27.8447 48.9622 27.7229 48.6988 27.5286C46.5224 25.9514 44.4085 26.0173 42.1563 27.4891C40.0556 28.8621 39.993 28.7699 38.7154 26.5671C37.754 24.9109 36.8222 23.235 35.8212 21.6018C35.2088 20.6041 35.2911 19.9423 36.3842 19.3496C38.3598 18.2828 40.2498 17.0645 42.2353 16.0207C43.1342 15.5499 44.1714 15.3457 45.202 15V15.0033Z" fill="#183C59"/>
<path d="M45.0068 75.2099C44.1605 74.907 43.0344 74.637 42.0401 74.1234C40.1962 73.1685 38.4478 72.0292 36.617 71.048C35.5206 70.4619 35.2275 69.8198 35.9091 68.7003C37.0747 66.784 38.181 64.8314 39.261 62.8657C39.7977 61.8911 40.4234 61.6507 41.3782 62.273C42.017 62.6912 42.692 63.06 43.3703 63.4189C45.1879 64.3836 46.8309 63.8634 48.4739 62.8789C50.8414 61.4565 50.8644 61.4894 52.2605 63.9029C53.166 65.4636 54.1406 66.9947 54.9276 68.6147C55.1613 69.0955 55.0922 70.1985 54.7761 70.3961C52.3165 71.9206 49.7778 73.3232 47.2227 74.693C46.6695 74.9893 45.9583 74.9992 45.01 75.2066L45.0068 75.2099Z" fill="#183C59"/>
<path d="M71.9445 53.6203C72.985 58.8885 70.5155 62.1022 65.8761 64.0942C64.9278 64.5025 64.0454 65.082 63.1695 65.6385C62.2278 66.2378 61.5857 66.0896 61.0326 65.0952C59.9427 63.1361 58.8232 61.1901 57.6543 59.2771C57.0386 58.2695 57.3316 57.6735 58.2964 57.1796C59.0241 56.8076 59.7419 56.3927 60.4136 55.9284C61.9216 54.8912 62.3069 53.3799 62.2772 51.6249C62.2212 48.6055 62.2706 48.6088 65.3262 48.6055C66.9133 48.6055 68.5069 48.6516 70.0907 48.5594C71.5559 48.4738 72.063 49.1027 71.9609 50.4988C71.8852 51.5327 71.9478 52.5798 71.9478 53.6203H71.9445Z" fill="#183C59"/>
<path d="M71.9348 36.4846C71.9348 37.7457 72.0566 39.0233 71.8755 40.2548C71.8064 40.7355 71.0787 41.4566 70.6177 41.4829C68.3227 41.6113 66.0179 41.5191 63.7196 41.5619C62.6462 41.5817 62.2247 41.0944 62.2576 40.077C62.2741 39.5304 62.228 38.9805 62.2642 38.4339C62.4058 36.264 61.4411 34.7659 59.5445 33.7945C59.0111 33.5212 58.3558 33.3039 58.02 32.8627C57.6808 32.4116 57.3647 31.5588 57.5689 31.1505C58.6555 29.007 59.9199 26.9524 61.1085 24.8582C61.5662 24.0482 62.1523 24.0252 62.8898 24.4598C65.0103 25.7077 67.1769 26.8898 69.2612 28.197C71.0063 29.2935 71.8327 30.9991 71.9249 33.0372C71.9776 34.1864 71.9348 35.3388 71.9348 36.4879V36.4846Z" fill="#183C59"/>
<path d="M22.8471 47.0662C21.316 47.0662 19.7849 47.0629 18.2538 47.0662C16.9993 47.0695 16.0511 46.6053 16.0017 45.2421C15.9556 43.8658 16.8709 43.329 18.1353 43.3192C21.2535 43.2928 24.3683 43.283 27.4865 43.2764C28.7278 43.2764 29.7222 43.7373 29.742 45.1038C29.765 46.5559 28.7607 47.0531 27.4371 47.0498C25.906 47.0498 24.3749 47.0498 22.8438 47.0498V47.0695L22.8471 47.0662Z" fill="url(#paint1_linear_137_352)"/>
<path d="M31.7211 71.1822C30.055 71.113 29.143 69.7828 29.7916 68.5777C31.4544 65.4957 33.1897 62.4434 35.0698 59.4899C35.3727 59.0125 36.6535 58.7952 37.3252 58.9927C38.3493 59.2924 38.6522 60.3723 38.1418 61.3009C36.4593 64.3729 34.7043 67.4055 32.8999 70.4084C32.6365 70.8463 31.9582 71.0307 31.7211 71.1789V71.1822Z" fill="white"/>
<path d="M31.7211 71.1822C30.055 71.113 29.143 69.7828 29.7916 68.5777C31.4544 65.4957 33.1897 62.4434 35.0698 59.4899C35.3727 59.0125 36.6535 58.7952 37.3252 58.9927C38.3493 59.2924 38.6522 60.3723 38.1418 61.3009C36.4593 64.3729 34.7043 67.4055 32.8999 70.4084C32.6365 70.8463 31.9582 71.0307 31.7211 71.1789V71.1822Z" fill="url(#paint2_radial_137_352)"/>
<path d="M61.2897 69.7041C60.9835 70.04 60.5818 70.8499 60.0022 71.0047C59.4096 71.1627 58.2999 70.8928 58.0135 70.4351C56.1235 67.4256 54.329 64.3502 52.6892 61.1991C52.439 60.7151 52.9526 59.4474 53.4893 59.0589C53.9273 58.7428 55.3398 58.9371 55.6065 59.3585C57.569 62.4504 59.3536 65.6541 61.181 68.8282C61.2567 68.96 61.2271 69.1509 61.2897 69.7074V69.7041Z" fill="url(#paint3_radial_137_352)"/>
<path d="M38.356 30.0242C38.0135 30.3995 37.6184 31.2029 37.0389 31.3643C36.4528 31.5256 35.3399 31.2721 35.0567 30.8243C33.1667 27.8181 31.3656 24.746 29.7226 21.5949C29.4658 21.1043 29.9728 19.7609 30.503 19.4481C31.0199 19.1419 32.439 19.379 32.7354 19.8432C34.6517 22.833 36.3738 25.9478 38.1453 29.0298C38.2473 29.2076 38.2374 29.4545 38.3494 30.0242H38.356Z" fill="white"/>
<path d="M38.356 30.0242C38.0135 30.3995 37.6184 31.2029 37.0389 31.3643C36.4528 31.5256 35.3399 31.2721 35.0567 30.8243C33.1667 27.8181 31.3656 24.746 29.7226 21.5949C29.4658 21.1043 29.9728 19.7609 30.503 19.4481C31.0199 19.1419 32.439 19.379 32.7354 19.8432C34.6517 22.833 36.3738 25.9478 38.1453 29.0298C38.2473 29.2076 38.2374 29.4545 38.3494 30.0242H38.356Z" fill="url(#paint4_radial_137_352)"/>
<path d="M61.4376 20.6133C61.1478 21.3212 61.0128 21.7954 60.7791 22.2102C59.2677 24.8773 57.7333 27.5279 56.2121 30.1884C55.6063 31.2486 54.7897 31.9697 53.545 31.3112C52.2379 30.623 52.3037 29.5167 52.959 28.3675C54.5329 25.6116 56.0475 22.8161 57.7498 20.1424C58.112 19.5761 59.192 19.181 59.9131 19.2205C60.4465 19.2501 60.9338 20.1161 61.4376 20.61V20.6133Z" fill="white"/>
<path d="M61.4376 20.6133C61.1478 21.3212 61.0128 21.7954 60.7791 22.2102C59.2677 24.8773 57.7333 27.5279 56.2121 30.1884C55.6063 31.2486 54.7897 31.9697 53.545 31.3112C52.2379 30.623 52.3037 29.5167 52.959 28.3675C54.5329 25.6116 56.0475 22.8161 57.7498 20.1424C58.112 19.5761 59.192 19.181 59.9131 19.2205C60.4465 19.2501 60.9338 20.1161 61.4376 20.61V20.6133Z" fill="url(#paint5_radial_137_352)"/>
<path d="M67.911 46.9519C66.3239 46.9519 64.7401 46.9749 63.1531 46.9453C61.9578 46.9222 61.1116 46.3888 61.1182 45.0915C61.1248 43.8173 61.9414 43.2279 63.1432 43.218C66.37 43.1884 69.5968 43.1884 72.8236 43.1949C74.0452 43.1949 74.8618 43.8206 74.8717 45.0553C74.8816 46.3032 74.0617 46.8992 72.8335 46.9058C71.1938 46.9157 69.5507 46.9058 67.911 46.9058C67.911 46.9222 67.911 46.9354 67.911 46.9519Z" fill="url(#paint6_linear_137_352)"/>
<defs>
<linearGradient id="paint0_linear_137_352" x1="45.2257" y1="34.2119" x2="45.2257" y2="56.0456" gradientUnits="userSpaceOnUse">
<stop stop-color="#34AAB9"/>
<stop offset="1" stop-color="#1D4366"/>
</linearGradient>
<linearGradient id="paint1_linear_137_352" x1="40.073" y1="45.091" x2="10.734" y2="45.091" gradientUnits="userSpaceOnUse">
<stop offset="0.444708" stop-color="#36A3AB"/>
<stop offset="0.740953" stop-color="#183A59"/>
</linearGradient>
<radialGradient id="paint2_radial_137_352" cx="0" cy="0" r="1" gradientUnits="userSpaceOnUse" gradientTransform="translate(45.3391 45.8431) rotate(119.578) scale(32.0052 22.8704)">
<stop offset="0.444708" stop-color="#36A3AB"/>
<stop offset="0.740953" stop-color="#183A59"/>
</radialGradient>
<radialGradient id="paint3_radial_137_352" cx="0" cy="0" r="1" gradientUnits="userSpaceOnUse" gradientTransform="translate(45.3392 45.0909) rotate(52.9072) scale(38.6676 27.5837)">
<stop offset="0.444708" stop-color="#36A3AB"/>
<stop offset="0.740953" stop-color="#183A59"/>
</radialGradient>
<radialGradient id="paint4_radial_137_352" cx="0" cy="0" r="1" gradientUnits="userSpaceOnUse" gradientTransform="translate(29.5414 16.5042) rotate(56.3099) scale(27.1239 19.3902)">
<stop offset="0.259047" stop-color="#183A59"/>
<stop offset="0.555292" stop-color="#36A3AB"/>
</radialGradient>
<radialGradient id="paint5_radial_137_352" cx="0" cy="0" r="1" gradientUnits="userSpaceOnUse" gradientTransform="translate(44.5871 42.0816) rotate(-55.9228) scale(30.8802 22.1131)">
<stop offset="0.444708" stop-color="#36A3AB"/>
<stop offset="0.740953" stop-color="#183A59"/>
</radialGradient>
<linearGradient id="paint6_linear_137_352" x1="85.2109" y1="44.9944" x2="55.8479" y2="44.9944" gradientUnits="userSpaceOnUse">
<stop offset="0.259047" stop-color="#183A59"/>
<stop offset="0.555292" stop-color="#36A3AB"/>
</linearGradient>
</defs>
</svg>
