<svg width="70" height="70" viewBox="0 0 70 70" fill="none" xmlns="http://www.w3.org/2000/svg">
<path d="M13.9356 24.2933H10V28.2214H13.9356V24.2933Z" fill="#00AAE8"/>
<path d="M13.8376 44.759V30.6121H10.1121V44.759H13.8376ZM38.5995 44.8988V41.432C38.0532 41.432 37.5911 41.404 37.2549 41.3481C36.8628 41.2922 36.5687 41.1524 36.3726 40.9567C36.1765 40.761 36.0505 40.4814 35.9804 40.118C35.9244 39.7685 35.8964 39.3072 35.8964 38.748V33.7994H38.5995V30.6121H35.8964V25.0904H32.1569V38.776C32.1569 39.9362 32.2549 40.9148 32.451 41.6976C32.6471 42.4665 32.9832 43.0955 33.4454 43.5708C33.9076 44.0461 34.5238 44.3816 35.2661 44.5913C36.0224 44.801 36.9748 44.8988 38.1093 44.8988H38.5995ZM60 44.759V24H56.2605V44.759H60ZM28.5575 31.9961C27.5211 30.8777 26.0645 30.3186 24.2157 30.3186C23.3194 30.3186 22.5071 30.5003 21.7648 30.8638C21.0365 31.2272 20.4062 31.7305 19.916 32.3735L19.7059 32.6391V32.4015V30.6121H16.0225V44.759H19.734V37.2243V37.7415C19.734 37.6576 19.734 37.5738 19.734 37.4899C19.776 36.1619 20.0981 35.1833 20.7143 34.5543C21.3726 33.8833 22.1709 33.5478 23.0813 33.5478C24.1597 33.5478 24.986 33.8833 25.5323 34.5263C26.0645 35.1693 26.3446 36.078 26.3446 37.2383V37.2662V44.7451H30.1121V36.721C30.1261 34.708 29.5939 33.1144 28.5575 31.9961ZM54.3277 37.6576C54.3277 36.6372 54.1457 35.6866 53.7955 34.7919C53.4314 33.9112 52.9272 33.1284 52.2969 32.4574C51.6527 31.7864 50.8824 31.2692 49.986 30.8917C49.0896 30.5143 48.0952 30.3326 47.0168 30.3326C45.9944 30.3326 45.028 30.5283 44.1317 30.9057C43.2353 31.2971 42.451 31.8143 41.7927 32.4714C41.1345 33.1284 40.6023 33.9112 40.2241 34.8059C39.832 35.7005 39.6499 36.6651 39.6499 37.6856C39.6499 38.7061 39.832 39.6706 40.1961 40.5653C40.5602 41.46 41.0785 42.2428 41.7227 42.8998C42.367 43.5568 43.1653 44.088 44.0897 44.4655C45.014 44.8569 46.0364 45.0526 47.1289 45.0526C50.2941 45.0526 52.2549 43.6127 53.4314 42.2707L50.7423 40.2298C50.1821 40.9008 48.8375 41.8094 47.1569 41.8094C46.1065 41.8094 45.2381 41.5718 44.5798 41.0825C43.9216 40.6072 43.4734 39.9362 43.2353 39.1115L43.1933 38.9857H54.3277V37.6576ZM43.2213 36.3576C43.2213 35.3231 44.4118 33.5198 46.9748 33.5058C49.5378 33.5058 50.7423 35.3091 50.7423 36.3436L43.2213 36.3576Z" fill="white"/>
</svg>
