<svg width="70" height="70" viewBox="0 0 70 70" fill="none" xmlns="http://www.w3.org/2000/svg">
<g clip-path="url(#clip0_907_6980)">
<path d="M61.0002 19.3591H8.91016V49.9909H61.0002V19.3591Z" fill="#C41230"/>
<path d="M31.1732 42.9478H25.5875C26.5284 42.183 27.2011 41.7025 27.8017 41.142C29.3473 39.7005 29.3594 38.3671 27.8618 36.8655C27.109 36.1087 26.2762 35.432 25.5714 34.6352C24.0018 32.8654 23.9698 30.8673 25.3993 29.0014C27.3012 26.5228 30.3003 25.722 33.82 26.9312C32.9871 27.4678 32.2864 27.8962 31.6137 28.3607C29.2192 30.0024 28.066 32.3128 31.1292 34.8354C31.3855 35.0476 31.6257 35.2799 31.866 35.5081C34.7489 38.291 34.5287 40.5654 31.1732 42.9438V42.9478Z" fill="white"/>
<path d="M41.583 42.9759H35.9572C36.8701 42.2231 37.5268 41.7386 38.1194 41.19C39.7771 39.6484 39.7812 38.327 38.1635 36.7734C37.3947 36.0367 36.5578 35.356 35.8731 34.5471C34.3555 32.7613 34.4156 30.7512 35.8451 28.9053C37.9993 26.1264 40.8543 26.1384 44.3098 26.699C43.6372 27.2195 43.2528 27.5158 42.8684 27.8121C42.1356 28.3807 41.3187 28.8692 40.6821 29.5339C39.2926 30.9794 39.3007 32.481 40.642 33.9545C41.2667 34.6432 41.9995 35.2358 42.6561 35.8965C44.8384 38.0828 44.7984 40.1049 42.536 42.2391C42.2477 42.5114 41.9074 42.7276 41.583 42.9759Z" fill="white"/>
<path d="M18.1875 26.5547H22.496V42.8836H18.1875V26.5547Z" fill="white"/>
<path d="M47.418 26.5549H51.7224V42.8839H47.418V26.5549Z" fill="white"/>
</g>
<defs>
<clipPath id="clip0_907_6980">
<rect width="52.09" height="30.6318" fill="white" transform="translate(8.91016 19.3591)"/>
</clipPath>
</defs>
</svg>
