<svg width="70" height="70" viewBox="0 0 70 70" fill="none" xmlns="http://www.w3.org/2000/svg">
<path d="M44.9201 24.6128C43.4467 18.9338 27.3579 18.104 17.1369 23.2756C16.8029 23.4438 16.3199 23.7945 16.2338 24.2338C16.2338 24.2338 16.0964 25.1073 16.09 25.1484C16.0424 25.4618 16.3636 25.3976 16.4895 25.3205C17.8331 24.51 19.3257 23.7778 20.6925 23.3668C27.1691 21.413 35.3785 21.3462 36.8211 25.5813C37.8243 28.5319 33.6907 30.9545 31.3836 32.0567C30.496 32.4818 30.1865 32.8736 30.1325 33.3065C30.0863 33.6893 30.2173 34.2519 30.7324 35.0124C34.0169 39.8666 43.6677 46.8686 53.1475 49.3144C53.5226 49.412 53.7281 49.3632 53.8913 49.2784C53.9748 49.2322 54.075 49.1615 53.9157 49.078C47.5958 45.7871 41.5674 40.2225 38.5937 35.9218C37.9181 34.9456 37.7036 34.2943 37.7601 33.7689C37.8089 33.2937 38.2443 32.8993 39.132 32.4831C42.4782 30.9173 45.9387 28.555 44.9201 24.6128ZM17.3938 42.8044H26.0605V34.1402H17.3938V42.8044Z" fill="white"/>
</svg>
