<svg width="70" height="70" viewBox="0 0 70 70" fill="none" xmlns="http://www.w3.org/2000/svg">
<path d="M52 38.5543L41.0559 32.2295V19.5827L52 38.5543ZM17.4337 38.5543L28.4062 32.2295V19.5827L17.4337 38.5543ZM34.7169 43.185L23.7728 49.5126H45.6894L34.7169 43.185ZM41.0559 19.5827H28.4062L34.7169 25.9075L41.0559 19.5827ZM41.0559 32.2295L34.7169 43.185L43.3584 40.8682L41.0559 32.2295ZM28.4062 32.2295H41.0559L34.7169 25.9075L28.4062 32.2295ZM43.3584 40.8682L45.6894 49.5126L52 38.5543L43.3584 40.8682ZM28.4062 32.2295L34.7169 43.185L26.0753 40.8682L28.4062 32.2295ZM26.0753 40.8682L23.7728 49.5126L17.4337 38.5543L26.0753 40.8682Z" fill="white"/>
</svg>
