<svg width="70" height="70" viewBox="0 0 70 70" fill="none" xmlns="http://www.w3.org/2000/svg">
<path d="M35.7957 21.5638C35.7957 20.5239 34.7149 17.0604 29.9976 17.7276C25.2803 18.3948 21.2422 19.4143 16.4852 23.2131C11.7282 27.0108 12.9869 33.107 12.9869 33.107C12.9869 33.107 14.3742 40.1168 22.436 42.3889C30.4977 44.6598 26.1398 37.4444 26.1398 37.4444L20.4836 34.3861L19.8044 32.7475L18.9845 30.5488L19.9042 29.26C19.9042 29.26 21.562 27.262 25.4738 26.0058C27.586 25.3277 29.9507 25.793 33.0691 25.1534C34.6271 24.8337 35.7957 23.5509 35.7957 23.0148C35.7957 20.7956 35.7957 21.8354 35.7957 21.5662V21.5638Z" fill="url(#paint0_linear_636_7378)"/>
<path d="M19.9043 29.26C19.9043 29.26 17.0528 35.8263 28.9386 36.8529C28.9386 36.8529 30.0446 36.7459 29.672 34.4546C29.2993 32.1621 29.9653 32.3087 30.5652 32.6826C31.1651 33.0553 34.9627 36.4274 35.5229 38.9327C36.0831 41.438 35.7898 42.5837 34.6165 43.424C33.4444 44.2631 32.0042 44.8365 27.5934 43.8772C23.1827 42.9179 20.5042 41.9718 18.9582 39.773C17.4122 37.5742 16.3327 35.6688 16.9723 33.4568C17.6118 31.2448 18.9979 29.5053 19.9043 29.2624V29.26Z" fill="#116947"/>
<path d="M34.0406 49.3291C34.0406 50.3689 35.1214 53.8324 39.8387 53.1652C44.556 52.498 48.5941 51.4785 53.3511 47.6797C58.1081 43.882 56.8494 37.7858 56.8494 37.7858C56.8494 37.7858 55.4621 30.776 47.4003 28.5039C39.3386 26.2318 43.6965 33.4484 43.6965 33.4484L49.3527 36.5067L50.0319 38.1453L50.8518 40.3441L49.9321 41.6328C49.9321 41.6328 48.2743 43.6308 44.3625 44.887C42.2503 45.5651 39.8856 45.0998 36.7672 45.7394C35.2092 46.0592 34.0406 47.3419 34.0406 47.878C34.0406 50.0972 34.0406 49.0574 34.0406 49.3267V49.3291Z" fill="url(#paint1_linear_636_7378)"/>
<path d="M49.932 41.6328C49.932 41.6328 52.7835 35.0665 40.8977 34.0399C40.8977 34.0399 39.7917 34.1469 40.1644 36.4382C40.537 38.7307 39.871 38.5841 39.2712 38.2102C38.6713 37.8375 34.8736 34.4655 34.3134 31.9601C33.7532 29.4548 34.0465 28.3091 35.2198 27.4688C36.392 26.6297 37.8322 26.0563 42.2429 27.0156C46.6537 27.9749 49.3321 28.9211 50.8781 31.1198C52.4241 33.3186 53.5036 35.224 52.8641 37.436C52.2245 39.648 50.8384 41.3875 49.932 41.6304V41.6328Z" fill="#27316E"/>
<defs>
<linearGradient id="paint0_linear_636_7378" x1="12.8366" y1="30.2374" x2="35.7957" y2="30.2374" gradientUnits="userSpaceOnUse">
<stop stop-color="#209C50"/>
<stop offset="0.48" stop-color="#35EE86"/>
<stop offset="1" stop-color="#1F984D"/>
</linearGradient>
<linearGradient id="paint1_linear_636_7378" x1="56.9997" y1="40.6542" x2="34.0406" y2="40.6542" gradientUnits="userSpaceOnUse">
<stop stop-color="#3962A0"/>
<stop offset="0.48" stop-color="#61A8E9"/>
<stop offset="1" stop-color="#3B66A4"/>
</linearGradient>
</defs>
</svg>
