<svg width="90" height="90" viewBox="0 0 90 90" fill="none" xmlns="http://www.w3.org/2000/svg">
<path fill-rule="evenodd" clip-rule="evenodd" d="M45.2642 42.8673L45.2606 42.7235L45.5981 34.7738L45.7586 34.6904C46.4095 34.7599 47.0599 34.8281 47.7102 34.897C56.0009 35.8754 62.4088 40.2936 62.6667 45.4755C62.7513 45.6347 62.7602 46.0415 62.6837 46.2853L62.7678 46.4451C62.4707 47.8296 62.0865 49.0512 61.1372 50.365C58.7918 46.2777 52.5702 43.1351 45.2642 42.8673Z" fill="white" stroke="white" stroke-width="0.842425"/>
<path fill-rule="evenodd" clip-rule="evenodd" d="M43.752 70.3022C28.5744 69.4533 16.7843 59.0586 17.4492 47.0525C18.1165 35.0483 30.9172 25.8929 46.0127 26.5813L45.5981 34.7736C36.1003 34.2228 28.1023 40.0465 27.5967 47.6728C27.2516 55.2163 34.7529 61.7203 44.2507 62.271L44.4118 62.1871C59.592 63.0366 72.3554 56.1512 72.9906 46.8207L72.4938 54.8519C72.102 64.2607 59.1774 71.2295 43.9973 70.3787L43.752 70.3022Z" fill="white" stroke="white" stroke-width="0.791223"/>
<path fill-rule="evenodd" clip-rule="evenodd" d="M46.4652 20.4149L46.0126 26.5821C30.9172 25.8937 18.1165 35.0492 17.4491 47.0533L17.657 40.8103C18.3213 28.8049 31.1238 19.6488 46.4652 20.4149Z" fill="#969696" stroke="#969696" stroke-width="0.842425"/>
<path fill-rule="evenodd" clip-rule="evenodd" d="M27.5283 48.3241C27.5002 48.6454 27.5758 47.8717 27.5965 47.6741C27.819 46.5353 27.8797 45.4811 28.1875 44.5027C29.7599 50.6321 36.42 55.531 44.4566 56.0281C44.8496 56.0496 44.6904 56.0382 44.6904 56.0382C54.3507 56.5044 62.4694 52.124 62.6837 46.2864C63.0572 40.3643 55.5034 35.3188 45.7585 34.6916L45.598 34.7749L45.9658 28.4473L46.2104 28.525C57.6491 29.1635 67.272 33.8875 71.1589 40.1988L72.0279 41.8606C72.7206 43.4472 73.0631 45.1084 72.9904 46.8221C72.3553 56.1525 59.5237 63.1288 44.3435 62.2793L44.2505 62.2724C34.9133 61.6357 27.8253 55.5304 27.5283 48.3241Z" fill="#969696" stroke="#969696" stroke-width="0.842425"/>
</svg>
