<svg width="90" height="90" viewBox="0 0 90 90" fill="none" xmlns="http://www.w3.org/2000/svg">
<path d="M62.6583 28.1426C65.0455 28.1426 67 30.1042 67 32.4835V74.4839C67 76.8781 65.0455 78.8255 62.6583 78.8255H33.341C30.9545 78.8255 29 76.8781 29 74.4839V32.4835C29 30.1042 30.9545 28.1426 33.341 28.1426H62.6583ZM36.2656 38.5878C36.2656 39.6925 37.2641 40.606 38.3334 40.606C39.7072 40.606 39.9976 40.606 40.7269 40.606C41.8175 40.606 42.7664 41.562 42.7664 42.6384C42.7664 63.2526 42.7664 50.8742 42.7664 71.7646C42.7664 73.4146 43.8499 74.6744 45.8044 74.6744H51.8237C53.7002 74.6744 54.6421 73.6964 54.6421 71.7143V35.7198C54.6421 33.7865 53.6287 32.2782 51.6884 32.2782H38.3547C37.2641 32.2782 36.2656 33.3333 36.2656 34.4097V38.5878Z" fill="#CB2027"/>
<path d="M47.9855 24.0155C44.4943 24.0155 41.6617 21.1758 41.6617 17.6775C41.6617 14.1793 44.4943 11.3467 47.9855 11.3467C51.4908 11.3467 54.3305 14.1793 54.3305 17.6775C54.3305 21.1758 51.4908 24.0155 47.9855 24.0155Z" fill="#CB2027"/>
</svg>
