<svg width="90" height="90" viewBox="0 0 90 90" fill="none" xmlns="http://www.w3.org/2000/svg">
<path d="M59.9708 36.2807C47.9829 32.2968 38.0869 35.2347 30.1523 44.987C29.9821 44.8498 30.0912 44.6135 30.0912 44.4169C30.0846 38.8881 30.0994 33.3576 30.068 27.8288C30.0647 27.1497 30.2812 27.0258 30.9008 27.0307C34.1742 27.0588 37.4475 27.0274 40.7225 27.0588C41.3388 27.0654 41.509 26.9068 41.5007 26.2839C41.4743 24.2895 41.5007 24.2895 43.4852 24.2895C44.9707 24.2895 46.4562 24.3126 47.9416 24.2779C48.4621 24.2663 48.6241 24.4316 48.5811 24.9322C48.5414 25.3966 48.6125 25.8708 48.5629 26.3334C48.5001 26.9316 48.743 27.0605 49.3048 27.0572C52.5782 27.0324 55.8531 27.0654 59.1265 27.0291C59.8072 27.0208 59.9989 27.1943 59.989 27.8867C59.9477 30.6874 59.9725 33.4882 59.9725 36.2823L59.9708 36.2807Z" fill="#0236BC"/>
<path d="M51.2215 52.5212C51.1819 52.6402 51.1257 52.7955 51.0794 52.9541C49.8666 57.1197 48.6455 61.2837 47.4558 65.4559C47.312 65.9599 47.2046 66.1169 46.6428 65.9219C43.4587 64.8197 40.4382 63.4004 37.6391 61.5101C37.1996 61.2126 37.0922 60.973 37.2872 60.4476C38.8833 56.1448 41.3255 52.4072 44.6319 49.2248C44.9492 48.9191 45.1508 48.8844 45.5143 49.1653C47.0923 50.3847 48.8603 51.2654 50.7126 51.9859C50.9505 52.0784 51.2975 52.0668 51.2232 52.5229L51.2215 52.5212Z" fill="#0236BC"/>
<path d="M59.9708 60.7341C59.9708 62.8805 59.9444 65.0269 59.9873 67.1717C60.0006 67.831 59.8568 68.0706 59.1479 68.0607C56.0812 68.0177 53.0673 67.6327 50.0864 66.9156C49.627 66.8049 49.5048 66.6743 49.6535 66.2001C50.9803 61.9569 52.2097 57.6855 53.363 53.391C53.4803 52.9531 53.6125 52.8424 54.0917 52.9465C55.8416 53.3299 57.6195 53.5414 59.414 53.4125C59.9626 53.3728 59.9774 53.6372 59.9758 54.0453C59.9642 56.2744 59.9708 58.5018 59.9708 60.7308V60.7341Z" fill="#0236BC"/>
<path d="M30.0697 50.6535C29.9953 50.2635 30.2415 49.8174 30.6331 49.3779C33.3215 46.3573 36.5783 44.1911 40.3688 42.8081C40.8348 42.6379 41.0975 42.5453 41.2149 43.241C41.471 44.7711 42.2889 46.0566 43.3348 47.1753C43.7165 47.5834 43.667 47.7817 43.2787 48.1369C39.9029 51.2417 37.4128 54.9463 35.81 59.2491C35.734 59.4507 35.7654 60.1149 35.225 59.639C32.7482 57.4563 30.6695 55.0141 30.1374 51.5986C30.0994 51.3557 30.1011 51.1062 30.0697 50.6518V50.6535Z" fill="#0236BC"/>
<path d="M45.0268 13.9668C48.249 14.2147 51.4562 14.4592 54.6618 14.7087C55.2417 14.7533 55.564 15.0788 55.6036 15.6588C55.6251 15.9595 55.6168 16.2636 55.6135 16.566C55.602 17.683 55.3723 17.9143 54.2801 17.9936C51.9767 18.1605 49.6749 18.3555 47.3699 18.5042C46.8345 18.5389 46.6594 18.7339 46.6825 19.2593C46.7189 20.0822 46.6825 20.91 46.6957 21.7345C46.7023 22.1212 46.5586 22.2732 46.1637 22.2617C45.3937 22.2402 44.6237 22.2402 43.8537 22.2617C43.4389 22.2732 43.3381 22.0766 43.3447 21.7098C43.358 20.8852 43.3266 20.0591 43.3563 19.2345C43.3728 18.7636 43.2506 18.5438 42.7334 18.5108C40.4283 18.3588 38.1282 18.1638 35.8232 17.9986C34.6599 17.9159 34.4451 17.7077 34.4385 16.5428C34.4385 16.2404 34.4286 15.9364 34.4484 15.6357C34.4848 15.0921 34.7855 14.7616 35.3275 14.7186C38.5612 14.4609 41.7965 14.2163 45.0219 13.9684L45.0268 13.9668Z" fill="#0236BC"/>
<path d="M35.8298 74.9848C35.2663 71.1679 35.377 67.3889 36.3503 63.5488C38.9527 65.4309 41.694 66.8486 44.589 67.9838C45.2383 68.2382 46.2182 68.2101 46.4479 68.8248C46.6461 69.3569 46.2033 70.1269 46.0381 70.7911C45.706 72.1213 45.359 73.4481 45.045 74.7816" fill="#0236BC"/>
<path d="M30.0696 74.5917C30.0977 69.4165 30.0862 64.2396 30.0862 59.0644V56.6338C31.3634 58.8612 32.8506 60.6375 34.6384 62.1527C34.8846 62.3609 34.797 62.5724 34.7442 62.8186C33.8998 66.7396 33.8354 70.6789 34.5376 74.6264" fill="#0236BC"/>
<path d="M46.7221 75.3402C47.3649 73.3855 47.9796 71.5695 48.5496 69.7387C48.6818 69.3124 48.9098 69.3256 49.2271 69.4049C52.5814 70.2443 55.9836 70.6326 59.442 70.474C59.8253 70.4558 59.984 70.555 59.9774 70.9681C59.9575 72.2602 59.9625 73.554 59.9757 74.8478" fill="#0236BC"/>
<path d="M53.5977 41.9989C50.6433 43.0415 48.0953 44.3601 45.7622 46.0802C45.5193 46.2603 45.3557 46.2669 45.1326 46.0455C44.1644 45.0855 43.3547 44.0247 42.9747 42.6912C42.8953 42.4153 42.7516 42.098 43.2341 41.9972C46.6099 41.2933 49.984 41.2371 53.5993 41.9989H53.5977Z" fill="#0236BC"/>
<path d="M53.6637 40.9473C50.1111 40.2996 46.5635 40.2401 42.9382 40.8349C43.1018 39.8534 43.6074 39.1908 44.2766 38.6538C45.6283 37.5649 47.2344 37.1369 48.9231 36.9502C49.1627 36.9238 49.3411 37.0064 49.5278 37.1419C51.0381 38.2424 52.4228 39.4816 53.6637 40.9473Z" fill="#0236BC"/>
<path d="M54.2751 43.0732C53.5249 45.3618 52.8226 47.49 52.132 49.6232C52.0361 49.9173 51.9122 50.0066 51.6015 49.8942C50.0483 49.3274 48.5794 48.5971 47.1864 47.7048C46.7073 47.3975 46.9535 47.2289 47.2509 47.0042C49.3676 45.4097 51.6528 44.1175 54.2734 43.0749L54.2751 43.0732Z" fill="#0236BC"/>
<path d="M55.9076 43.5557C57.5748 45.8277 58.8191 48.1922 59.7791 50.7137C59.9377 51.1301 59.7873 51.2259 59.3825 51.2325C57.7814 51.2606 56.2034 51.1103 54.6402 50.7583C54.3478 50.6922 54.0999 50.6526 54.204 50.251C54.7658 48.0583 55.321 45.864 55.9076 43.5557Z" fill="#0236BC"/>
<path d="M34.2402 43.8722C36.6494 41.3887 39.4369 39.5017 42.9201 38.2178C42.0642 39.153 41.4561 39.9726 41.2248 41.002C41.1636 41.2763 40.9323 41.2978 40.7241 41.3556C38.6504 41.929 36.6709 42.7337 34.7954 43.7912C34.6236 43.887 34.4633 43.9878 34.2386 43.8722H34.2402Z" fill="#0236BC"/>
<path d="M50.5011 36.9531C52.3022 36.8788 54.052 37.1134 55.787 37.51C56.1604 37.5959 56.1902 37.7562 56.058 38.09C55.7738 38.8021 55.5276 39.5292 55.2847 40.2579C55.1657 40.6148 55.0649 40.7949 54.7031 40.438C53.4126 39.1623 51.9899 38.0454 50.5028 36.9548L50.5011 36.9531Z" fill="#0236BC"/>
<path d="M59.951 39.829C60.0815 40.4123 59.8882 40.67 59.2685 40.718C58.5085 40.7774 57.755 40.9476 57.0032 41.0947C56.6049 41.1724 56.4314 41.103 56.5488 40.6552C56.6892 40.1264 56.7966 39.5894 56.9222 39.0573C57.105 38.2752 57.5848 38.0296 58.3614 38.3204C58.6423 38.4261 58.9116 38.5732 59.1991 38.6525C59.8221 38.8244 60.1261 39.178 59.951 39.829Z" fill="#0236BC"/>
<path d="M57.1089 43.0693C58.1168 43.3271 58.8918 43.7732 59.6981 44.1384C59.9807 44.2673 59.9741 44.5052 59.9724 44.7564C59.9675 45.5181 59.9708 46.2815 59.8997 47.0829C59.0438 45.7429 58.178 44.421 57.1089 43.0693Z" fill="#0236BC"/>
<path d="M57.3386 42.0537C57.9384 41.9016 58.3795 41.781 58.8224 41.6786C60.0369 41.3993 60.0236 41.4026 59.979 42.6353C59.9642 43.0451 59.8981 43.1855 59.4718 42.9823C58.8174 42.6683 58.14 42.4007 57.3386 42.0537Z" fill="#0236BC"/>
</svg>
