<svg width="70" height="70" viewBox="0 0 70 70" fill="none" xmlns="http://www.w3.org/2000/svg">
<g clip-path="url(#clip0_1_1500)">
<path d="M61 19.3589H8.91V49.9906H61V19.3589Z" fill="#C41230"/>
<path d="M31.1731 42.9476H25.5873C26.5283 42.1828 27.201 41.7023 27.8016 41.1417C29.3472 39.7002 29.3592 38.3668 27.8617 36.8653C27.1089 36.1085 26.276 35.4318 25.5713 34.635C24.0017 32.8651 23.9696 30.8671 25.3991 29.0011C27.3011 26.5226 30.3002 25.7217 33.8198 26.931C32.987 27.4675 32.2862 27.896 31.6135 28.3605C29.2191 30.0022 28.0659 32.3126 31.129 34.8352C31.3853 35.0474 31.6256 35.2796 31.8658 35.5079C34.7488 38.2908 34.5286 40.5651 31.1731 42.9436V42.9476Z" fill="white"/>
<path d="M41.5829 42.9756H35.957C36.87 42.2228 37.5267 41.7383 38.1193 41.1898C39.777 39.6482 39.781 38.3268 38.1633 36.7732C37.3945 36.0364 36.5577 35.3557 35.8729 34.5469C34.3554 32.761 34.4154 30.7509 35.8449 28.905C37.9992 26.1262 40.8541 26.1382 44.3097 26.6987C43.637 27.2193 43.2526 27.5156 42.8682 27.8119C42.1354 28.3805 41.3186 28.869 40.6819 29.5337C39.2925 30.9792 39.3005 32.4807 40.6419 33.9543C41.2665 34.643 41.9993 35.2356 42.656 35.8963C44.8382 38.0825 44.7982 40.1046 42.5359 42.2389C42.2476 42.5111 41.9072 42.7274 41.5829 42.9756Z" fill="white"/>
<path d="M18.1873 26.5547H22.4958V42.8836H18.1873V26.5547Z" fill="white"/>
<path d="M47.4178 26.5547H51.7223V42.8836H47.4178V26.5547Z" fill="white"/>
</g>
<defs>
<clipPath id="clip0_1_1500">
<rect width="52.09" height="30.6318" fill="white" transform="translate(8.91 19.3589)"/>
</clipPath>
</defs>
</svg>
