<svg width="90" height="90" viewBox="0 0 90 90" fill="none" xmlns="http://www.w3.org/2000/svg">
<path d="M55.2452 12.7676H55.6407L61.1967 15.2905C62.0034 21.9024 65.2896 26.7031 71.7354 28.7713C72.9771 29.1707 74.9424 28.9374 75.7254 29.9063C76.0892 30.3571 78.0388 35.0194 77.9992 35.3832C73.8708 39.4642 73.0166 45.9258 75.2983 51.1655C76.1604 53.1507 77.9557 54.3172 77.5722 56.4091C77.4417 57.1289 75.9627 60.8619 75.5 61.1506C71.1382 61.637 67.5476 62.9815 64.7201 66.4337C62.4424 69.2177 61.7582 72.0095 61.1651 75.4737C59.6544 76.0431 56.3406 78.0876 54.8656 77.4311C54.5927 77.3085 51.8167 75.1929 51.7534 75.007V68.4545C54.8814 66.5563 58.2822 65.4491 61.1651 62.8945C79.8578 46.3015 62.6084 15.5515 38.585 22.7091C19.6391 28.3561 15.57 54.1195 32.3053 64.9034C34.4684 66.2953 37.0072 67.015 39.0002 68.4545V75.007L35.3068 77.6328L29.3869 75.2759C28.8966 68.4189 24.8551 63.4362 18.2472 61.6093C17.215 61.3246 15.744 61.7872 14.9689 60.8382L13.0273 55.4403C13.5453 53.9218 14.6249 52.9411 15.3288 51.4305C17.7963 46.1275 16.8591 39.5987 12.7544 35.3793L15.1824 29.665C23.2535 28.5578 28.7146 23.4763 29.557 15.2905L35.1209 12.7676H35.5163C40.7283 18.1338 49.9541 18.0745 55.2452 12.7676Z" fill="#3365A8"/>
<path d="M51.6942 63.0811V55.0219C51.6942 54.8281 54.0273 52.8074 54.4465 52.2617C62.0352 42.423 50.8124 29.4167 39.728 35.2416C33.8674 38.3222 32.167 46.4328 35.9791 51.8109C36.4893 52.5306 39.0676 54.8005 39.0676 55.0259V63.0851C18.9709 56.5483 24.0524 26.3322 45.1772 26.1028C66.5274 25.8735 71.953 56.4692 51.6942 63.0851V63.0811Z" fill="#3365A8"/>
<path d="M49.725 74.4806C46.6998 73.5197 44.0701 73.5157 41.0449 74.4806V50.6984C41.0449 49.3064 44.1176 47.6574 45.5768 47.7246C47.036 47.7919 49.725 49.5595 49.725 51.0899V74.4767V74.4806Z" fill="#3365A8"/>
<path d="M44.0819 37.6167C50.5356 36.1338 51.7456 45.4505 45.8653 46.107C40.3686 46.7239 39.4472 38.6805 44.0819 37.6167Z" fill="#3365A8"/>
</svg>
