<svg width="70" height="70" viewBox="0 0 70 70" fill="none" xmlns="http://www.w3.org/2000/svg">
<path fill-rule="evenodd" clip-rule="evenodd" d="M14.6297 30.0193C14.8229 30.0193 14.9774 30.0193 15.1705 30.0579C15.2478 30.0579 15.2864 30.0579 15.4023 30.0579C15.4795 30.0579 15.5568 30.0579 15.634 30.0579L17.1791 30.1351L19.2263 30.0579C19.5739 30.0193 19.9602 29.8261 19.8443 30.3669C19.767 30.6759 19.8443 30.7145 19.5739 30.869C18.5696 31.4098 18.8014 31.3712 19.0718 32.221C19.5739 33.5343 20.1147 34.8476 20.6941 36.1609L21.1576 37.2038C21.3507 37.6673 21.5439 38.1308 21.737 38.633C21.8529 38.8647 21.9688 39.0965 22.046 39.3282L23.4366 42.4956C23.4366 42.5729 23.5524 42.766 23.5524 42.8432H23.5911C23.6297 42.8046 25.5224 39.0192 25.5224 38.9033C25.561 38.8261 25.0975 37.8218 25.0202 37.6673C24.9816 37.5128 24.943 37.3969 24.8657 37.2424L22.3936 31.5257C22.2391 31.2939 22.0074 31.1394 21.6984 31.0622C21.428 30.9849 21.0417 30.8304 20.7713 30.7918C20.7713 30.56 20.81 30.3283 20.81 30.0193L22.4323 30.0965C22.9344 30.1351 24.634 30.1738 24.9816 30.1351L25.9473 30.0579C26.1404 30.0579 26.4494 30.0579 26.6426 30.0193H27.3378C27.3378 30.2124 27.3765 30.6373 27.2992 30.7918C27.0288 30.869 26.3335 30.9077 26.179 31.0235C25.7928 31.3326 26.2177 32.0665 26.3722 32.3368L27.531 35.2338C27.6468 35.1566 27.7241 34.9248 27.7627 34.8089L29.1147 31.912C29.2305 31.5257 29.385 31.2939 28.9215 31.1008C28.767 31.0622 28.6511 31.0235 28.4966 30.9463C27.9945 30.8304 27.9172 30.869 27.8786 30.6759C27.8786 30.3669 27.8786 30.3283 27.9172 30.0193C29.2692 30.0193 30.5438 30.0965 31.8571 30.0965H32.6297C32.6297 30.3283 32.6297 30.6373 32.5524 30.8304L31.5867 31.1394C31.046 31.3326 30.7756 31.4484 30.4666 31.912C30.2348 32.3368 30.0417 32.7617 29.8099 33.148L28.149 36.5471C28.149 36.7016 28.458 37.281 28.5353 37.4742C28.5739 37.5514 28.6125 37.5901 28.6125 37.6673C28.6898 37.8218 28.7284 37.8991 28.767 38.0149C28.8443 38.1694 28.8829 38.2853 28.9215 38.4012C28.9988 38.5171 29.0374 38.633 29.076 38.7488L29.7327 40.2166C29.8099 40.487 29.9258 40.7188 30.0417 40.9506C30.1189 41.2209 30.2348 41.4527 30.3507 41.6845L30.5825 42.2252C30.6211 42.3411 30.5825 42.3411 30.6597 42.3797C30.737 42.1093 31.7799 39.4441 31.973 38.9806C32.0503 38.7488 32.1275 38.5171 32.2048 38.2853C32.282 38.1694 32.3207 38.0536 32.3593 37.9377L34.3292 32.8776C34.4065 32.6845 34.7927 31.6416 34.7927 31.4871C34.7927 31.4484 34.7541 31.2939 34.7541 31.2553C34.5224 31.1781 33.9043 31.0235 33.7112 30.9077C33.634 30.869 33.5953 30.869 33.5953 30.7918C33.5696 30.7403 33.5567 30.6759 33.5567 30.5987C33.5567 30.0579 33.5567 30.3283 33.6339 30.0579C33.7885 30.0579 33.943 30.0193 34.1361 30.0579C34.3292 30.0579 34.4837 30.0579 34.6769 30.0579C34.7927 30.0579 34.7927 30.0965 34.9086 30.0965L36.4151 30.0579C36.5696 30.0579 37.0331 30.0193 37.1876 30.0579C37.3421 30.1351 37.2648 30.6759 37.1876 30.7918C37.1103 31.0235 36.4151 31.1394 36.1447 31.5643C36.0674 31.7575 35.9902 31.8733 35.9515 32.0665C35.8743 32.2467 35.797 32.427 35.7198 32.6072C35.2949 33.8047 34.7927 35.0407 34.2906 36.2381C34.1747 36.5858 34.0202 36.8948 33.9043 37.281C33.7498 37.6287 33.5953 37.9377 33.4408 38.2853C32.9387 39.4827 32.4752 40.6802 31.973 41.9162L30.3507 46.0492C30.2734 46.2424 30.1962 46.3969 30.1576 46.59C29.9516 46.59 29.7327 46.59 29.5009 46.59C29.2692 46.59 29.1147 46.6286 28.8829 46.6286C28.767 46.1651 28.5739 45.7789 28.3807 45.354C28.3292 45.2252 28.2777 45.0965 28.2262 44.9677L27.9172 44.1566C27.7885 43.899 27.6726 43.6415 27.5696 43.384L27.222 42.5729C26.9902 42.1093 26.3335 40.4098 26.1404 40.2553C26.1018 40.3712 25.9859 40.5643 25.9473 40.6802L25.0975 42.2252C24.8271 42.8046 24.5181 43.3454 24.2477 43.9248C24.2091 43.9634 24.2091 43.9634 24.1705 44.002C24.1318 44.0793 24.0932 44.1179 24.0932 44.1952C23.7842 44.7746 23.3593 45.5857 23.0889 46.2038C23.0503 46.3196 22.973 46.4741 22.9344 46.59H21.6597C21.5825 46.2424 21.3894 45.8175 21.2735 45.5085C21.1962 45.354 21.119 45.1995 21.0417 45.0063L20.3851 43.4999C20.2692 43.1523 20.0761 42.8433 19.9602 42.4956L17.1404 35.9291C16.9087 35.427 16.7156 34.8862 16.4838 34.3841C16.3293 34.075 16.2134 33.7274 16.0589 33.3798L15.4795 32.1437C15.325 31.7961 15.0932 31.2553 14.7456 31.0622C14.6684 31.0235 14.5911 30.9849 14.5138 30.9463C14.398 30.9077 14.3207 30.9077 14.2821 30.8304C14.2435 30.7532 14.2048 30.1351 14.2048 30.0965C14.4366 29.9806 14.398 30.0193 14.6297 30.0193ZM5.86152 31.6029C6.01602 31.2167 5.90015 31.2553 6.44092 31.1781L7.67696 30.9849C7.98597 30.9463 8.25636 30.869 8.52675 30.869C8.99026 30.7918 10.0332 30.5987 10.5739 30.5214C10.7285 30.4828 10.883 30.4828 10.9988 30.4442C11.1533 30.4442 11.2692 30.4055 11.4237 30.4055C12.0418 30.2896 12.119 30.3283 12.7757 30.3283C12.7757 30.4442 12.428 31.6416 12.3894 31.8347L10.4967 38.324C10.4709 38.4527 10.4323 38.5815 10.3808 38.7102L10.1877 39.3669C10.1619 39.4441 10.1491 39.5085 10.1491 39.56C10.0718 39.8304 9.95592 40.1394 9.9173 40.4098C9.76279 40.8733 9.3379 42.3025 9.18339 42.9205C9.10614 43.1909 9.02889 43.4999 9.02889 43.8089C9.02889 44.1179 9.37653 44.5428 9.95592 44.1179C10.0718 44.0407 10.1491 43.9634 10.2649 43.8475L10.3422 43.7703L10.5739 43.5385C10.8443 43.2681 11.8486 41.9162 11.8872 41.7617C11.9645 41.8003 12.428 42.0707 12.4666 42.1093C12.428 42.3411 11.5782 43.5772 11.501 43.6544C11.1533 44.1179 10.9216 44.4269 10.4967 44.8518L10.3808 45.0063C10.0718 45.2767 9.87867 45.4699 9.53103 45.7016C9.45378 45.7789 9.41515 45.7789 9.3379 45.8561C9.22202 45.9334 9.10614 46.0106 8.95164 46.0879C8.41087 46.3969 7.75422 46.59 7.09757 46.6286H6.86581C6.32504 46.59 5.78427 46.4355 5.32075 46.0492C4.8186 45.6244 4.62547 45.0836 4.58685 44.5428V44.2338C4.6126 43.9505 4.65122 43.6802 4.70272 43.4226C4.74135 43.3068 4.74135 43.1909 4.77998 43.075C4.8186 42.9978 4.8186 42.9591 4.85723 42.8819L5.20487 41.6845C5.47525 40.6802 5.82289 39.5986 6.09328 38.5557C6.17053 38.324 6.24778 38.0922 6.32504 37.8604L7.2907 34.3841C7.48383 33.7274 7.8701 32.6845 7.21345 32.221C6.78855 31.912 6.32504 31.9506 5.78427 31.9506C5.78427 31.8347 5.82289 31.7188 5.86152 31.6029ZM36.7627 36.8948C37.3035 36.5085 38.0374 36.0064 38.694 35.8519C39.7369 35.5815 41.1661 35.4656 42.2477 35.736C43.1361 35.9677 43.7541 36.5085 43.9472 37.5128C44.1403 38.6716 44.0631 41.2209 44.0631 42.5729C44.0631 42.766 44.0631 42.9205 44.0631 43.1523C44.0631 43.4999 44.0631 43.9634 44.1403 44.2338C44.2562 44.4656 44.488 44.5814 44.7197 44.5042C44.797 44.5042 44.797 44.4656 44.8743 44.3883L45.106 44.0407C45.1446 43.9634 45.1446 43.8862 45.2219 43.8475C45.4536 43.7317 45.4536 43.8089 45.4923 43.8475C45.9172 44.1179 45.9172 44.0793 45.7627 44.6201C45.6468 44.9677 45.4923 45.2767 45.2991 45.5471C44.7584 46.281 43.6382 46.3583 42.9043 46.0106C42.0159 45.5471 41.7069 44.5042 41.591 44.3883C41.5524 44.5428 41.1661 45.0063 41.0502 45.1608C40.973 45.1995 40.9344 45.2381 40.8571 45.3153C40.3936 45.7789 39.5052 46.1265 38.8485 46.2038C37.6897 46.3583 36.106 46.4355 35.4494 45.3153C34.87 44.3883 35.2949 43.2295 36.0288 42.5342C36.0674 42.4956 36.0674 42.4956 36.106 42.457C36.4537 42.1866 36.7627 41.9548 37.1876 41.7231C37.3421 41.6458 37.458 41.6072 37.6125 41.53C38.2691 41.2596 38.8485 41.0278 39.4665 40.7574C39.6211 40.7188 39.7756 40.6415 39.9301 40.6029L41.3206 40.0235C41.3206 39.0579 41.4751 37.7832 41.0116 36.8561C40.5481 36.0064 38.9258 36.5085 38.4623 36.9334C38.1146 37.2424 38.0374 37.4742 37.9215 37.9377C37.9215 38.0149 37.9215 38.0922 37.8829 38.1694C37.8056 38.5557 37.8442 38.8647 37.5738 39.0579C37.3035 39.251 36.8399 39.4441 36.5309 39.56C36.1447 39.7145 35.7584 39.9463 35.2949 39.9463C35.1018 39.9463 35.1018 39.5214 35.1018 39.4055C35.1018 38.2853 35.9515 37.5128 36.7627 36.8948ZM40.2777 44.7746L40.8957 44.3111C40.9344 44.2338 40.973 44.1952 41.0116 44.1179C41.1661 43.9634 41.2434 43.8089 41.282 43.5772L41.3592 42.8046C41.3592 42.457 41.3592 41.6072 41.3206 41.3368V40.9119C41.1275 40.9506 40.3936 41.2982 40.2777 41.3754C39.6597 41.7231 38.9644 42.1093 38.5781 42.6501C38.1532 43.2295 38.0374 44.1565 38.5009 44.6587C38.8099 45.0063 38.9644 45.045 39.4279 45.045C39.6983 45.045 40.0459 44.9291 40.2777 44.7746ZM64.96 39.9076V39.9463C64.9214 40.0621 64.8441 40.0235 64.7669 40.0235C64.5351 39.9849 64.1875 39.9849 63.9557 39.9849C63.5308 39.9849 62.8356 39.9463 62.4107 39.9463L61.6768 39.9076C61.4064 39.9076 61.136 39.9076 60.9042 39.869C60.4407 39.7918 58.2004 39.8304 57.6596 39.8304C57.621 39.8304 57.5824 39.869 57.5824 39.9076C57.5824 40.2939 57.5824 40.4484 57.621 40.8347C57.6596 40.9892 57.6596 41.1051 57.6982 41.2209C57.7369 41.4913 57.7755 41.7231 57.8527 41.9548C58.0459 42.4956 58.3549 43.075 58.7025 43.4226C58.7798 43.4999 58.857 43.5772 58.9343 43.6544C58.9729 43.7317 59.0115 43.7317 59.0502 43.7703L59.4364 44.0407C59.6682 44.1952 60.518 44.5428 60.7884 44.5428C61.754 44.5428 62.0244 44.5814 62.9514 44.2338C63.415 44.0793 63.5308 43.9634 63.9171 43.7317C63.9944 43.693 64.1489 43.5385 64.1875 43.5385C64.2647 43.5385 64.8828 44.0793 64.96 44.1179L64.7669 44.3497C64.5351 44.5814 64.4965 44.5814 64.3806 44.6973C64.1102 44.9677 63.8012 45.2381 63.4922 45.4312C62.9128 45.8175 62.2948 46.0879 61.6381 46.2424C59.7454 46.7059 57.621 46.4355 56.2691 45.045C55.8313 44.6329 55.4837 44.1308 55.2261 43.5385C54.8785 42.8819 54.6854 42.1093 54.6854 41.2596C54.6854 40.487 54.7626 39.8304 54.9944 39.1351C55.0201 39.0321 55.0588 38.9291 55.1103 38.8261C55.136 38.7231 55.1618 38.633 55.1875 38.5557C55.3807 38.2081 55.5738 37.8991 55.8055 37.5901C56.2304 37.0493 56.6167 36.7016 57.1961 36.3154C57.2347 36.2768 57.2733 36.2768 57.312 36.2381C57.3892 36.1995 57.4665 36.1609 57.5437 36.0836C58.2004 35.6974 59.2819 35.427 60.0931 35.5042C60.3635 35.5428 60.5952 35.5042 60.8656 35.5428C61.7926 35.6974 62.4493 35.8519 63.1832 36.4313C63.3377 36.5858 63.6853 36.8561 63.8012 37.0107C64.033 37.281 64.0716 37.3583 64.3034 37.7059C64.6896 38.2853 64.8055 38.8261 64.9214 39.4827C64.9214 39.5986 64.9214 39.7531 64.96 39.869C64.96 39.869 64.96 39.8819 64.96 39.9076ZM62.1403 38.9806C62.1403 37.9763 61.7154 37.0879 60.9429 36.5858C60.5566 36.354 60.2862 36.3154 59.8227 36.3154C59.0888 36.3154 58.3549 36.972 58.0459 37.5901C57.8141 38.0536 57.6982 38.4785 57.6596 39.0192C58.5866 39.0192 59.4364 39.0192 60.3635 39.0192C61.0201 39.0192 61.4836 38.9806 62.1403 38.9806ZM51.8656 35.9291H53.6425C53.7583 35.9291 53.7583 35.9291 53.8356 35.9291C54.6081 36.0064 55.1489 35.9291 55.8828 35.9291C56.0373 35.9291 56.1146 35.8905 56.1146 36.0064C56.1146 36.8175 56.2304 36.6244 55.5738 36.7789L54.6854 37.0879C54.5695 37.1265 54.3764 37.2038 54.3377 37.2424C54.2605 37.3197 53.9901 38.1308 53.9515 38.2853C53.797 38.6716 53.5266 39.2896 53.4107 39.6759C53.1017 40.3712 52.7927 41.0664 52.5223 41.6845L50.5137 46.3969H49.4708C49.4322 46.3196 49.3163 46.1651 49.2777 46.0879C48.7755 45.0836 48.0416 43.4999 47.6167 42.457L45.5309 37.7832C45.4536 37.6673 45.415 37.59 45.3764 37.4355C45.1833 37.0493 45.1833 37.1265 44.8356 37.0107C44.7197 36.972 44.6039 36.9334 44.488 36.8948C44.3335 36.8561 44.0631 36.8175 44.0245 36.663C43.9472 36.5085 43.9858 36.2381 44.0245 36.0836C44.0245 35.9677 44.0245 35.9677 44.1403 35.9291H45.106C45.2991 35.9291 45.415 35.9677 45.6082 35.9677C46.3034 35.9677 46.9215 36.0064 47.6554 36.0064C48.3506 36.0064 48.9687 35.9291 49.6639 35.9291C49.7412 36.1609 49.7798 36.7403 49.6253 36.8175L48.6596 36.9334C48.1961 37.0493 48.1575 37.2424 48.3893 37.6673C48.621 38.0922 48.7369 38.5557 48.9687 39.0192C49.0073 39.0965 49.0073 39.0965 49.0459 39.2124C49.1232 39.3411 49.1875 39.457 49.239 39.56L49.9343 41.0664C50.2433 41.7617 50.4751 42.3411 50.7455 43.0364L50.9 43.384L51.3635 42.2252C51.4408 42.1093 51.4794 41.9935 51.518 41.839C51.5953 41.7231 51.6339 41.5686 51.6725 41.4527C51.9429 40.7574 53.0631 37.6287 53.0631 36.972C52.7927 36.972 52.5609 36.8948 52.2519 36.8948C52.0974 36.8948 51.9815 36.8561 51.7884 36.8561C51.518 36.8561 51.4794 36.8561 51.3635 36.8561L51.3249 36.3154C51.3249 35.8519 51.4794 35.9677 51.8656 35.9291ZM9.29927 24.457C9.37653 23.9549 9.64691 23.53 9.99455 23.1824L10.0718 23.1437C10.2263 22.9892 10.4194 22.8347 10.6126 22.7575C10.9216 22.603 11.2692 22.5257 11.6169 22.5257H11.8872C12.3508 22.5257 12.8143 22.6802 13.2005 22.9892C13.3164 23.0665 13.3937 23.1437 13.5096 23.2596C14.2821 24.0322 14.4366 25.191 13.9731 26.1566C13.8186 26.4656 13.6641 26.6588 13.4323 26.8519C13.3164 26.9678 13.2392 27.045 13.0847 27.1223C12.8915 27.3154 12.4666 27.4699 12.1963 27.5085C12.0804 27.5085 11.7714 27.5472 11.6555 27.5472C11.2692 27.5085 10.9602 27.4699 10.6512 27.3154C10.1104 27.0064 9.68554 26.6201 9.45378 26.0407C9.29927 25.7317 9.22202 25.3841 9.22202 25.0364C9.22202 24.8819 9.26065 24.6116 9.29927 24.457Z" fill="#199F9F"/>
</svg>
