<svg width="70" height="70" viewBox="0 0 70 70" fill="none" xmlns="http://www.w3.org/2000/svg">
<g clip-path="url(#clip0_71_139)">
<path d="M30.3932 47.0175H43.8607C48.3756 47.0175 52.0339 43.1563 52.0339 38.3902V31.5244C52.0339 28.1721 43.8059 21.1453 38.9336 17.2777C36.879 15.6482 33.9742 15.6482 31.9164 17.2777C27.0441 21.1453 18.8161 28.1721 18.8161 31.5244V38.3902C18.8161 41.8327 20.7258 44.8019 23.4888 46.1866C25.2278 47.0594 26.9764 46.8114 28.2131 44.5539L29.7975 40.4931" stroke="#54BC81" stroke-width="1.9322" stroke-miterlimit="10" stroke-linecap="round"/>
<path d="M32.0742 42.6602L27.5174 54.4756" stroke="#54BC81" stroke-width="1.9322" stroke-miterlimit="10" stroke-linecap="round"/>
<path d="M31.6911 38.8696L34.6409 40.0579C35.0563 40.2254 35.549 39.9678 35.7455 39.4879C35.9999 38.8567 36.7277 38.6571 37.1238 39.1111C37.5392 39.591 38.3121 39.3817 38.5826 38.7118L39.1139 37.4011C39.6936 35.9745 39.4424 34.3901 38.486 33.4401C38.3378 33.292 38.2509 33.0762 38.2444 32.8411C38.2444 32.8411 39.2492 29.9783 39.0141 26.7289C38.779 23.4796 38.0448 23.1833 38.0448 23.1833" stroke="#54BC81" stroke-width="1.9322" stroke-miterlimit="10" stroke-linecap="round"/>
<path d="M31.691 38.8698L28.7412 37.6815C28.3258 37.514 28.1487 36.9859 28.3451 36.506C28.5995 35.8749 28.2163 35.2276 27.6173 35.2823C26.9829 35.3403 26.5771 34.6544 26.8476 33.9845L27.379 32.6738C27.9587 31.2472 29.2404 30.2811 30.5897 30.2586C30.8022 30.2554 31.0115 30.162 31.179 29.9945C31.179 29.9945 32.451 27.2379 34.8824 25.0642C37.3137 22.8905 38.048 23.1835 38.048 23.1835" stroke="#54BC81" stroke-width="1.9322" stroke-miterlimit="10" stroke-linecap="round"/>
<path d="M34.9532 31.9558C35.7002 31.9558 36.3057 31.3503 36.3057 30.6033C36.3057 29.8563 35.7002 29.2507 34.9532 29.2507C34.2062 29.2507 33.6007 29.8563 33.6007 30.6033C33.6007 31.3503 34.2062 31.9558 34.9532 31.9558Z" stroke="#54BC81" stroke-width="1.61017" stroke-miterlimit="10" stroke-linecap="round"/>
</g>
<defs>
<clipPath id="clip0_71_139">
<rect width="35.15" height="40.3541" fill="white" transform="translate(17.85 15.0875)"/>
</clipPath>
</defs>
</svg>
