<svg width="90" height="90" viewBox="0 0 90 90" fill="none" xmlns="http://www.w3.org/2000/svg">
<path d="M27.0645 52.2975C27.0645 50.7697 28.2997 49.5344 29.8275 49.5344C31.3553 49.5344 32.5906 50.7697 32.5906 52.2975C32.5906 53.8253 31.3553 55.0605 29.8275 55.0605C28.2997 55.0605 27.0645 53.8253 27.0645 52.2975Z" fill="#00489A"/>
<path d="M40.5221 52.2975C40.5221 50.7697 41.7573 49.5344 43.2852 49.5344C44.813 49.5344 46.0482 50.7697 46.0482 52.2975C46.0482 53.8253 44.813 55.0605 43.2852 55.0605C41.7573 55.0605 40.5221 53.8253 40.5221 52.2975Z" fill="#00489A"/>
<path d="M53.915 52.2975C53.915 50.7697 55.1503 49.5344 56.6781 49.5344C58.2059 49.5344 59.4411 50.7697 59.4411 52.2975C59.4411 53.8253 58.2059 55.0605 56.6781 55.0605C55.1503 55.0605 53.915 53.8253 53.915 52.2975Z" fill="#00489A"/>
<path d="M23.2286 47.942C25.3416 47.942 26.4793 49.6323 26.4793 49.6323C29.5024 45.504 28.6247 40.3354 27.7146 37.8649C24.8865 30.2259 18.3852 29.2832 13.0866 29.2832H9.77094C14.6144 30.5185 18.3527 33.119 20.7907 37.8649C21.4408 39.4578 22.8711 43.4561 19.783 49.6323C19.8155 49.6973 21.1157 47.942 23.2286 47.942Z" fill="#00489A"/>
<path d="M36.621 47.8444C38.734 47.8444 39.8717 49.5348 39.8717 49.5348C42.8948 45.4065 42.0171 40.2379 41.1069 37.7674C38.2789 30.1284 31.7775 29.2832 26.5115 29.2832H21.4405C30.0547 30.7785 32.0701 33.4765 34.2155 37.7674C34.8657 39.3602 36.296 43.3585 33.1753 49.5348C33.1753 49.5998 34.5081 47.8444 36.621 47.8444Z" fill="#00489A"/>
<path d="M50.0136 47.942C52.1266 47.942 53.2643 49.6323 53.2643 49.6323C56.2874 45.504 55.4097 40.3354 54.4995 37.8649C51.6715 30.2259 45.1702 29.2832 39.9041 29.2832H34.8981C43.5123 30.7785 45.5928 33.6066 47.6082 37.8649C48.2583 39.4578 49.6886 43.4561 46.6005 49.6323C46.568 49.6973 47.9007 47.942 50.0136 47.942Z" fill="#00489A"/>
<path d="M63.4066 47.942C65.5195 47.942 66.6572 49.6323 66.6572 49.6323C69.6803 45.504 68.8027 40.3354 67.8925 37.8649C65.0644 30.2259 58.5631 29.2832 53.297 29.2832H48.291C56.0926 30.4209 58.9207 33.5416 61.0011 37.8649C61.6512 39.4578 63.0815 43.4561 59.9609 49.6323C59.9609 49.6973 61.2936 47.942 63.4066 47.942Z" fill="#00489A"/>
<path d="M20.4004 52.3302C20.4004 50.8024 21.6356 49.5671 23.1634 49.5671C24.6913 49.5671 25.9265 50.8024 25.9265 52.3302C25.9265 53.858 24.6913 55.0933 23.1634 55.0933C21.6356 55.0933 20.4004 53.858 20.4004 52.3302Z" fill="white"/>
<path d="M33.7285 52.3302C33.7285 50.8024 34.9638 49.5671 36.4916 49.5671C38.0194 49.5671 39.2547 50.8024 39.2547 52.3302C39.2547 53.858 38.0194 55.0933 36.4916 55.0933C34.9638 55.0933 33.7285 53.858 33.7285 52.3302Z" fill="white"/>
<path d="M47.1862 52.3302C47.1862 50.8024 48.4214 49.5671 49.9492 49.5671C51.4771 49.5671 52.7123 50.8024 52.7123 52.3302C52.7123 53.858 51.4771 55.0933 49.9492 55.0933C48.4214 55.0933 47.1862 53.858 47.1862 52.3302Z" fill="white"/>
<path d="M60.5784 52.3302C60.5784 50.8024 61.8136 49.5671 63.3414 49.5671C64.8692 49.5671 66.1045 50.8024 66.1045 52.3302C66.1045 53.858 64.8692 55.0933 63.3414 55.0933C61.8136 55.0933 60.5784 53.858 60.5784 52.3302Z" fill="white"/>
<path d="M16.4671 61.6272C13.7691 61.6272 11.3961 60.4245 11.1686 57.4989C10.9735 54.9634 12.8589 53.3056 13.119 50.9326C13.509 47.2268 11.7212 45.4065 9.64075 44.3012L9.70576 42.6759C11.4611 43.1635 12.8264 44.4963 13.8341 45.8616C14.8418 47.2593 15.1669 48.8847 15.1669 50.3475C15.1669 52.4604 14.5492 53.8907 14.5492 54.7033C14.5492 55.1909 14.8418 56.6862 16.4996 56.8813C18.385 56.8813 19.8153 55.516 19.8153 55.516C19.8153 55.516 20.823 56.8813 23.196 56.8813C25.2439 56.8813 26.5116 55.516 26.5116 55.516C26.5116 55.516 27.9419 56.8813 29.7948 56.8813C32.0378 56.8813 33.208 55.516 33.208 55.516C33.208 55.516 34.1507 56.8813 36.5237 56.8813C38.8967 56.8813 39.9694 55.516 39.9694 55.516C39.9694 55.516 41.0421 56.8813 43.22 56.8813C45.398 56.8813 46.6007 55.516 46.6007 55.516C46.6007 55.516 48.096 56.8813 49.9164 56.8813C51.9318 56.8813 53.2971 55.516 53.2971 55.516C53.2971 55.516 54.7923 56.8813 56.6127 56.8813C58.4331 56.8813 59.9934 55.516 59.9934 55.516C59.9934 55.516 61.3587 56.8813 63.3091 56.8813C65.4545 56.8813 66.6897 55.516 66.6897 55.516C68.0225 56.5237 70.0704 57.4989 71.5982 56.4587C72.5734 55.7761 73.2886 54.8984 73.4511 53.7607C73.8412 51.1276 71.1432 50.2499 70.0054 48.3321C69.5828 47.812 69.3553 47.1943 69.3228 46.3167C69.2578 45.2439 69.7779 43.9112 70.233 43.196C70.7531 42.3834 71.8908 41.5707 72.931 41.3106C76.3442 40.4655 79.4973 42.8059 79.9849 45.9591C80.2125 47.5194 77.807 47.9745 76.4742 47.2268C75.109 46.4792 75.8241 44.7563 74.9789 43.8462C74.1663 42.9685 72.4434 43.066 71.6633 44.1712C71.0131 45.0489 71.0781 46.5442 71.9233 47.1618C74.5238 49.1122 77.9695 49.8599 78.5872 53.5006C79.0423 56.1011 78.2621 58.6041 76.1492 60.2295C74.4588 61.5297 72.0858 61.8548 70.493 61.5947C68.9002 61.3022 66.6572 59.6118 66.6572 59.6118C66.6572 59.6118 66.2672 61.6597 63.2766 61.6597C60.7736 61.6597 59.9609 59.6118 59.9609 59.6118C59.9609 59.6118 59.3433 61.6597 56.5802 61.6272C54.1422 61.6272 53.2645 59.6118 53.2645 59.6118C53.2645 59.6118 52.7119 61.6597 49.8839 61.6597C47.3158 61.6597 46.5682 59.6118 46.5682 59.6118C46.5682 59.6118 46.0156 61.6597 43.1875 61.6597C40.6195 61.6597 39.8718 59.6443 39.8718 59.6443C39.8718 59.6443 39.2867 61.6597 36.4912 61.6597C33.9231 61.6597 33.1755 59.6443 33.1755 59.6443C33.1755 59.6443 32.6229 61.6923 29.7948 61.6923C27.1618 61.6923 26.4791 59.6443 26.4791 59.6443C26.4791 59.6443 25.9265 61.6597 23.0985 61.6597C20.4654 61.6597 19.9128 59.5793 19.9128 59.5793C19.9128 59.5793 19.1652 61.6272 16.4671 61.6272Z" fill="white"/>
</svg>
