<svg width="90" height="90" viewBox="0 0 90 90" fill="none" xmlns="http://www.w3.org/2000/svg">
<path d="M29.768 51V38.607H31.689V45.22L37.469 38.607H39.849L34.902 44.166V43.486L40.019 51H37.673L33.814 45.339L31.689 47.6V51H29.768ZM43.2841 48.909V40.817H44.7801V48.909H43.2841ZM39.9861 45.594V44.149H48.0781V45.594H39.9861ZM50.5366 51V38.607H55.9596C56.9116 38.607 57.7049 38.7713 58.3396 39.1C58.9856 39.4173 59.4672 39.882 59.7846 40.494C60.1132 41.0947 60.2776 41.82 60.2776 42.67C60.2776 43.486 60.1132 44.2057 59.7846 44.829C59.4672 45.441 58.9856 45.917 58.3396 46.257C57.6936 46.5857 56.8719 46.75 55.8746 46.75H52.2536V45.169H55.6876C56.2202 45.169 56.6736 45.0897 57.0476 44.931C57.4329 44.7723 57.7219 44.54 57.9146 44.234C58.1186 43.9167 58.2206 43.537 58.2206 43.095V42.364C58.2206 41.9107 58.1186 41.531 57.9146 41.225C57.7219 40.919 57.4329 40.6867 57.0476 40.528C56.6736 40.3693 56.2202 40.29 55.6876 40.29H52.4576V51H50.5366Z" fill="white"/>
</svg>
