<svg width="90" height="90" viewBox="0 0 90 90" fill="none" xmlns="http://www.w3.org/2000/svg">
<circle cx="45" cy="45" r="38" fill="#2B4A7C"/>
<path d="M44.1111 29.0353C42.8375 33.4807 41.5829 37.8593 40.3288 42.2384C40.3635 42.2573 40.3988 42.2768 40.4335 42.2963C40.5472 42.201 53.7419 29 53.7419 29H64.1952C64.1952 29 50.5416 42.3336 49.818 43.0362C49.3775 43.4641 49.3791 43.463 49.6065 44.0103C51.8278 49.3662 56.409 60.4484 56.4938 60.6737H46.8867C44.5984 54.9826 42.3113 49.2941 40.0246 43.6056C39.9836 43.6088 39.943 43.6125 39.9025 43.6162C38.2742 49.2925 36.646 54.9689 35.0103 60.671H26C29.0355 50.1167 32.0658 39.5812 35.0987 29.0353H44.1111Z" fill="white"/>
</svg>
