<svg width="90" height="90" viewBox="0 0 90 90" fill="none" xmlns="http://www.w3.org/2000/svg">
<g clip-path="url(#clip0_2393_4413)">
<path fill-rule="evenodd" clip-rule="evenodd" d="M29.8223 50.1385L57.646 21.6145C58.227 20.992 57.7653 20.0166 56.9092 20.0166C56.6343 20.0166 56.3645 20.1359 56.1725 20.3279L28.3904 48.8104C26.2893 51.0672 22.476 49.6301 22.476 46.5951V21.4952C22.476 20.9505 22.0506 20.5198 21.5007 20.5198C20.9508 20.5198 20.5253 20.9453 20.5253 21.4952V46.6677C20.5668 51.4563 26.5539 53.7131 29.8223 50.1333V50.1385Z" fill="#C9C9C8"/>
<path fill-rule="evenodd" clip-rule="evenodd" d="M32.1207 20.5667C31.5759 20.5667 31.1505 20.9921 31.1505 21.5421V39.0518L33.096 37.3397V21.5369C33.096 20.9921 32.6654 20.5615 32.1207 20.5615V20.5667Z" fill="#E51D25"/>
<path fill-rule="evenodd" clip-rule="evenodd" d="M70.8755 75H19.1608C16.8677 75 15 73.1323 15 70.8392V19.1608C15 16.8677 16.8677 15 19.1608 15H70.8703C73.1634 15 75.0363 16.8677 75.0363 19.1608V70.8703C74.9948 73.1634 73.1686 74.9948 70.8703 74.9948L70.8755 75ZM19.1608 15.5811C17.1738 15.5811 15.5811 17.179 15.5811 19.1608V70.8703C15.5811 72.8573 17.179 74.4501 19.1608 74.4501H70.8703C72.8573 74.4501 74.4501 72.8521 74.4501 70.8703V19.1608C74.4501 17.179 72.8521 15.5811 70.8703 15.5811H19.1608Z" fill="#0091D1"/>
<path fill-rule="evenodd" clip-rule="evenodd" d="M21.4228 69.7859C21.1894 69.7859 20.9559 69.7081 20.7587 69.511C20.3696 69.1219 20.3696 68.5356 20.7587 68.188L68.4267 20.5252C68.8158 20.1361 69.3969 20.1361 69.7497 20.5252C70.1388 20.9143 70.1388 21.5006 69.7497 21.8482L22.0817 69.511C21.9261 69.7081 21.6563 69.7859 21.4228 69.7859Z" fill="#0091D1"/>
<path fill-rule="evenodd" clip-rule="evenodd" d="M53.3658 69.7079L42.1595 58.5017L43.4825 57.1787L54.6887 68.3849C55.0778 68.774 55.0778 69.3603 54.6887 69.7079C54.3411 70.097 53.7186 70.097 53.3658 69.7079Z" fill="#8BC13F"/>
<path fill-rule="evenodd" clip-rule="evenodd" d="M67.9546 69.7436L49.4747 51.2585L50.7977 49.9355L69.2776 68.4154C69.6667 68.8045 69.6667 69.3908 69.2776 69.7384C68.93 70.086 68.3437 70.086 67.9546 69.7384V69.7436Z" fill="#F6B319"/>
</g>
<defs>
<clipPath id="clip0_2393_4413">
<rect width="60.0415" height="60" fill="white" transform="translate(15 15)"/>
</clipPath>
</defs>
</svg>
