<svg width="90" height="90" viewBox="0 0 90 90" fill="none" xmlns="http://www.w3.org/2000/svg">
<path d="M24.4772 23.693C24.2206 22.7947 23.964 20.7417 23.964 20.7417C23.579 19.0736 24.3489 18.5603 24.3489 18.5603C24.3489 18.5603 32.0478 14.5825 46.2909 14.1976C50.5253 14.0693 57.9676 13.941 65.4099 16.5073C65.9231 16.7639 66.0515 17.1489 66.1798 17.7904C66.4364 18.6886 66.5647 19.5869 66.693 20.3567C66.9497 22.2815 67.078 23.308 66.9497 24.4628C66.9497 25.2327 66.0515 26.5159 66.0515 26.9008C65.9231 28.184 66.4364 33.3166 66.1798 35.7546C66.0515 38.1926 65.0249 46.5331 63.1002 52.0507C61.0471 57.8249 57.326 56.9267 55.5296 56.9267L64.3834 76.3023H22.0392L28.3267 42.2987C28.3267 42.2987 28.455 41.4005 27.6851 41.0155C25.8887 39.8607 24.6055 38.1926 24.6055 38.1926C24.6055 38.1926 23.7073 37.1661 22.8091 31.6485C22.8091 31.6485 22.0392 26.3876 22.9374 25.2327C23.3224 24.7195 24.3489 24.2062 24.6055 23.9496L24.4772 23.693Z" fill="#010101"/>
<path d="M58.4808 32.5464L55.7862 31.9048C55.7862 31.9048 55.1446 31.9048 54.888 32.2898C54.7597 32.6747 54.1181 34.7278 54.1181 34.7278C54.1181 34.7278 54.1181 34.8561 54.2464 34.9844C54.3748 35.1127 60.9188 39.8604 60.9188 39.8604C60.9188 39.8604 55.4013 39.3471 53.7332 39.7321C52.0651 40.117 48.6006 41.9134 46.4192 42.2984C44.2378 42.6833 36.1539 43.5815 35.6407 43.5815L32.4328 29.7235C32.4328 29.7235 32.0478 26.259 28.455 26.3873C25.7604 26.5156 25.3754 27.1572 25.2471 27.4138C24.9905 27.9271 25.2471 28.4403 25.2471 28.4403L33.9726 43.3249C33.9726 43.3249 28.0701 40.502 25.7604 37.2941C24.4772 35.626 23.3224 27.2855 24.0923 25.874C24.8622 24.5909 29.6099 23.5643 31.6629 23.821C32.6894 23.9493 33.5876 24.9758 34.1009 25.6174C34.2292 25.874 34.3575 25.7457 34.4858 25.874C34.4858 25.874 33.9726 22.6661 31.9195 22.5378C28.9683 22.2812 25.7604 23.436 25.7604 23.436C25.7604 23.436 25.5038 23.436 25.3754 23.0511C25.2471 22.5378 24.8622 19.8432 24.8622 19.8432C24.8622 19.8432 24.9905 19.3299 25.5038 19.0733C25.5038 19.0733 33.8443 15.2238 46.2909 15.2238C47.7023 15.2238 59.5074 15.0955 65.0249 17.5335C65.5382 17.9184 65.1533 19.8432 64.8966 20.8697C64.7683 21.6396 63.8701 21.8962 63.8701 21.8962C62.9719 22.1529 62.7153 22.7944 62.7153 22.7944C62.7153 22.7944 63.8701 33.9579 63.9984 34.3428C64.1267 34.8561 63.6135 34.8561 62.5869 34.9844C62.0737 34.9844 56.1712 35.1127 56.1712 35.1127C56.1712 35.1127 54.888 34.9844 55.0163 34.2145C55.0163 33.7013 55.273 32.6747 55.5296 32.6747C55.9145 32.6747 56.6844 32.6747 56.6844 32.6747C56.6844 32.6747 59.2507 32.803 58.4808 32.5464Z" fill="#E21D38"/>
<path d="M49.6271 42.2991C49.6271 42.2991 55.273 41.2725 61.3038 42.8123C61.3038 42.8123 62.5869 43.8388 62.4586 44.7371C62.4586 44.7371 53.2199 45.2503 49.6271 42.2991Z" fill="#E21D38"/>
<path d="M49.8837 52.307C49.8837 52.307 51.5518 45.3779 62.202 46.2761C62.202 46.2761 62.9719 46.9177 60.9189 48.9708C58.3525 51.4088 53.8615 53.3335 49.8837 52.307Z" fill="#E21D38"/>
<path d="M47.7023 18.945C47.7023 18.945 48.8572 18.6884 53.6048 19.7149C56.0428 20.2282 57.326 20.8698 57.9676 20.9981C58.2242 21.1264 58.2242 21.768 58.0959 21.768C57.7109 21.8963 51.8084 19.8432 48.3439 19.8432C48.3439 19.8432 44.2378 21.5113 39.4901 25.6174C39.4901 25.6174 38.4636 25.7457 37.9503 25.6174C37.9503 25.8741 42.3131 21.1264 47.7023 18.945Z" fill="#010101"/>
<path d="M43.4679 25.7457C43.4679 25.7457 47.3174 23.821 49.2421 23.3077C51.1669 22.7944 52.835 22.6661 53.7332 22.9227C54.6314 23.1794 55.5296 25.4891 55.6579 25.874C55.6579 25.874 52.7066 27.2855 50.012 27.0288C47.574 26.6439 45.0077 26.3873 43.4679 25.7457Z" fill="#010101"/>
<path d="M65.5382 22.5379C66.0515 22.6662 66.0515 22.6662 66.3081 22.9228C66.693 23.1794 66.5647 23.9493 66.3081 24.0777C66.0515 24.3343 65.9231 23.821 64.255 23.9493C64.255 23.9493 65.0249 22.4096 65.5382 22.5379Z" fill="#E21D38"/>
<path d="M29.7382 42.4268L33.7159 45.1214L40.26 75.0189H23.579L29.7382 42.4268Z" fill="#E21D38"/>
<path d="M39.3618 57.0552C39.3618 57.0552 47.4457 62.0595 48.7288 63.9842L49.6271 75.1477H43.7245L39.3618 57.0552Z" fill="#E21D38"/>
<path d="M53.0916 67.3203C53.0916 67.3203 57.8393 71.683 59.2507 75.1476H51.2952L53.0916 67.3203Z" fill="#E21D38"/>
<path d="M59.764 23.4361C59.764 23.4361 60.2772 23.3078 60.4056 23.8211C61.0471 26.5157 61.817 32.4182 61.817 32.8032C61.817 33.7014 60.9188 32.9315 60.9188 32.9315L59.764 23.4361Z" fill="white"/>
<path d="M42.698 15.6089C42.698 15.6089 42.8263 15.6089 43.2113 15.6089C43.3396 15.6089 45.7776 19.8433 45.7776 19.8433C45.7776 19.8433 44.8794 20.3566 44.7511 20.4849L42.698 15.6089Z" fill="white"/>
<path d="M32.4328 29.7238C32.4328 29.7238 31.5346 27.0292 33.331 26.6442C35.1274 26.2593 37.5654 25.8743 40.3884 26.1309C40.3884 26.1309 35.769 27.0292 34.3575 27.5424C32.9461 28.0557 32.4328 29.7238 32.4328 29.7238Z" fill="white"/>
</svg>
