<svg width="90" height="90" viewBox="0 0 90 90" fill="none" xmlns="http://www.w3.org/2000/svg">
<g clip-path="url(#clip0_257_5)">
<path d="M13.5101 37.7701H18.2459C18.447 37.7701 18.5587 37.9935 18.4246 38.1499L12.6612 45.4101C12.6165 45.4548 12.6165 45.5218 12.6612 45.5888L18.4246 52.849C18.5363 53.0053 18.447 53.2287 18.2459 53.2287H13.5101C13.443 53.2287 13.376 53.2064 13.3314 53.1394L8.97525 47.4876C8.95291 47.4429 8.90823 47.4429 8.86356 47.4429H7.50088C7.4562 47.4429 7.43386 47.4653 7.43386 47.5099V52.983C7.43386 53.117 7.32217 53.2064 7.21047 53.2064H3.32349C3.18945 53.2064 3.1001 53.0947 3.1001 52.983V38.0159C3.1001 37.8818 3.21179 37.7925 3.32349 37.7925H7.18813C7.32217 37.7925 7.41152 37.9042 7.41152 38.0159V43.5113C7.41152 43.5559 7.43386 43.5783 7.47854 43.5783H8.84122C8.8859 43.5783 8.93057 43.5559 8.95291 43.5336L13.3314 37.8595C13.376 37.8148 13.443 37.7701 13.5101 37.7701ZM44.3155 45.4994C44.3155 49.9896 40.6966 53.6532 35.715 53.6532C30.7334 53.6532 27.1145 50.0119 27.1145 45.4994C27.1369 40.987 30.7334 37.3457 35.715 37.3457C40.6966 37.3457 44.3155 40.987 44.3155 45.4994ZM40.0041 45.4994C40.0041 43.0868 38.217 41.1433 35.7374 41.1433C33.2577 41.1433 31.4706 43.0868 31.4706 45.4994C31.4706 47.912 33.2577 49.8555 35.7374 49.8555C38.217 49.8555 40.0041 47.8897 40.0041 45.4994ZM20.5692 53.2064H24.7466C24.8806 53.2064 24.97 53.0947 24.97 52.983V38.0159C24.97 37.8818 24.8583 37.7925 24.7466 37.7925H20.5692C20.4352 37.7925 20.3458 37.9042 20.3458 38.0159V52.983C20.3458 53.117 20.4352 53.2064 20.5692 53.2064ZM60.4443 37.7701H55.7084C55.6414 37.7701 55.5744 37.7925 55.5297 37.8595L52.0895 42.305C52.0672 42.3496 52.0001 42.3496 51.9778 42.305L48.5376 37.8595C48.4929 37.7925 48.4259 37.7701 48.3589 37.7701H43.623C43.422 37.7701 43.3103 37.9935 43.4443 38.1499L49.2078 45.4101C49.2524 45.4548 49.2524 45.5218 49.2078 45.5888L43.4443 52.849C43.3326 53.0053 43.422 53.2287 43.623 53.2287H48.3589C48.4259 53.2287 48.4929 53.2064 48.5376 53.1394L51.9778 48.6939C52.0001 48.6492 52.0672 48.6492 52.0895 48.6939L55.5297 53.1394C55.5744 53.2064 55.6414 53.2287 55.7084 53.2287H60.4443C60.6453 53.2287 60.757 53.0053 60.623 52.849L54.8595 45.5888C54.8149 45.5441 54.8149 45.4771 54.8595 45.4101L60.623 38.1499C60.757 37.9935 60.6453 37.7701 60.4443 37.7701ZM81.5546 53.05L80.8174 50.9055C80.7951 50.8608 80.7504 50.8161 80.6834 50.8161H74.3615C74.2945 50.8161 74.2498 50.8608 74.2274 50.9055L73.4903 53.05C73.4679 53.1394 73.3786 53.2064 73.2669 53.2064H69.2682C69.1118 53.2064 69.0001 53.05 69.0448 52.8936L74.2721 37.9265C74.2945 37.8372 74.3838 37.7701 74.4955 37.7701H80.5717C80.6611 37.7701 80.7504 37.8372 80.7951 37.9265L86.0224 52.8936C86.0671 53.05 85.9554 53.2064 85.799 53.2064H81.8004C81.6663 53.2064 81.577 53.1617 81.5546 53.05ZM77.4443 41.0763L75.4561 46.9515C75.4337 47.0408 75.5008 47.1302 75.5901 47.1302H79.4548C79.5441 47.1302 79.6111 47.0408 79.5888 46.9515L77.6006 41.0763C77.5559 41.0093 77.4666 41.0093 77.4443 41.0763ZM62.7675 53.2064H66.9449C67.079 53.2064 67.1683 53.0947 67.1683 52.983V38.0159C67.1683 37.8818 67.0566 37.7925 66.9449 37.7925H62.7675C62.6335 37.7925 62.5441 37.9042 62.5441 38.0159V52.983C62.5218 53.117 62.6335 53.2064 62.7675 53.2064Z" fill="white"/>
</g>
<defs>
<clipPath id="clip0_257_5">
<rect width="82.9" height="16.3075" fill="white" transform="translate(3.1001 37.3457)"/>
</clipPath>
</defs>
</svg>
