<svg width="90" height="90" viewBox="0 0 90 90" fill="none" xmlns="http://www.w3.org/2000/svg">
<path d="M21.746 43.2268L19.3869 45.9171H14.4423V40.5128C14.4389 39.7287 13.8069 39.0967 13.0261 39.0967C12.242 39.0967 11.61 39.7287 11.61 40.5128V51.6594H14.4389V48.746H19.2213L22.0975 51.6594H25.1461L20.9585 47.3299L25.1461 43.2268H21.746Z" fill="white"/>
<path d="M37.594 43.2344H30.1449C27.8263 43.2344 25.9302 45.1304 25.9302 47.449C25.9302 49.7675 27.8263 51.6636 30.1449 51.6636H37.594C39.9125 51.6636 41.8086 49.7675 41.8086 47.449C41.8086 45.1304 39.9125 43.2344 37.594 43.2344ZM37.452 49.2471H30.2868C29.2965 49.2471 28.4888 48.4393 28.4888 47.449C28.4888 46.4587 29.2965 45.6509 30.2868 45.6509H37.452C38.4423 45.6509 39.2501 46.4587 39.2501 47.449C39.2501 48.4393 38.4423 49.2471 37.452 49.2471Z" fill="white"/>
<path d="M70.6383 43.2344H63.1892C60.8707 43.2344 58.9746 45.1304 58.9746 47.449C58.9746 49.7675 60.8707 51.6636 63.1892 51.6636H70.6383C72.9569 51.6636 74.853 49.7675 74.853 47.449C74.853 45.1304 72.9569 43.2344 70.6383 43.2344ZM70.4964 49.2471H63.3312C62.3409 49.2471 61.5331 48.4393 61.5331 47.449C61.5331 46.4587 62.3409 45.6509 63.3312 45.6509H70.4964C71.4867 45.6509 72.2944 46.4587 72.2944 47.449C72.2944 48.4393 71.4867 49.2471 70.4964 49.2471Z" fill="white"/>
<path d="M54.1179 43.2337H47.098V45.6503H53.9759C54.9662 45.6503 55.774 46.4581 55.774 47.4484C55.774 48.4386 54.9662 49.2464 53.9759 49.2464H46.8107C45.3371 49.2464 45.3777 46.377 45.3777 46.377V40.0736C45.3777 39.5666 44.9653 39.1543 44.4584 39.1543H43.3701C42.8631 39.1543 42.4507 39.5666 42.4507 40.0736V47.5869L42.4575 47.5802C42.5285 49.8379 44.3941 51.663 46.6654 51.663H54.1145C56.433 51.663 58.3291 49.7669 58.3291 47.4484C58.3291 45.1298 56.433 43.2337 54.1145 43.2337H54.1179Z" fill="white"/>
<path d="M77.763 39.1543C77.0803 39.1543 76.526 39.7086 76.526 40.3913V51.6596H79V40.3913C79 39.7086 78.4457 39.1543 77.763 39.1543Z" fill="white"/>
</svg>
