<svg width="90" height="90" viewBox="0 0 90 90" fill="none" xmlns="http://www.w3.org/2000/svg">
<path d="M29.768 51V38.607H31.689V49.81L31.162 49.283H38.013V51H29.768ZM42.1884 48.909V40.817H43.6844V48.909H42.1884ZM38.8904 45.594V44.149H46.9824V45.594H38.8904ZM54.3459 51.17C53.1332 51.17 52.1132 50.9263 51.2859 50.439C50.4699 49.9403 49.8522 49.2263 49.4329 48.297C49.0249 47.3677 48.8209 46.24 48.8209 44.914V44.829C48.8209 43.775 48.9569 42.8513 49.2289 42.058C49.5122 41.2533 49.9145 40.5847 50.4359 40.052C50.9572 39.5193 51.5862 39.1227 52.3229 38.862C53.0595 38.59 53.8755 38.454 54.7709 38.454C55.7795 38.454 56.6749 38.624 57.4569 38.964C58.2389 39.2927 58.8735 39.763 59.3609 40.375C59.8482 40.9757 60.1316 41.6897 60.2109 42.517H58.2389C58.1255 42.007 57.9045 41.5763 57.5759 41.225C57.2585 40.8623 56.8562 40.5903 56.3689 40.409C55.8929 40.2277 55.3545 40.137 54.7539 40.137C53.8925 40.137 53.1729 40.3013 52.5949 40.63C52.0169 40.9473 51.5805 41.395 51.2859 41.973C51.0025 42.5397 50.8609 43.1913 50.8609 43.928V45.73C50.8609 46.3533 50.9459 46.903 51.1159 47.379C51.2972 47.8437 51.5522 48.2403 51.8809 48.569C52.2209 48.8863 52.6232 49.1243 53.0879 49.283C53.5525 49.4417 54.0625 49.521 54.6179 49.521C55.3999 49.521 56.0629 49.3793 56.6069 49.096C57.1509 48.8127 57.5646 48.4103 57.8479 47.889C58.1312 47.3563 58.2729 46.7273 58.2729 46.002V45.288L58.9529 45.968H54.8049V44.54H60.2959V51H58.8509L58.6979 48.569H58.6129C58.4429 49.0903 58.1539 49.5493 57.7459 49.946C57.3379 50.3313 56.8392 50.6317 56.2499 50.847C55.6719 51.0623 55.0372 51.17 54.3459 51.17Z" fill="white"/>
</svg>
