<svg width="90" height="90" viewBox="0 0 90 90" fill="none" xmlns="http://www.w3.org/2000/svg">
<path d="M46.7353 58.3035C64.275 58.3035 78.4938 52.6901 78.4938 45.7655C78.4938 38.841 64.275 33.2275 46.7353 33.2275C29.1955 33.2275 14.9767 38.841 14.9767 45.7655C14.9767 52.6901 29.1955 58.3035 46.7353 58.3035Z" fill="white"/>
<path d="M32.112 47.1458H36.5018L34.3582 42.2316L32.112 47.1458ZM45 30.2764C25.6708 30.2764 10 36.8858 10 45.0335C10 53.1866 25.6708 59.79 45 59.79C64.3311 59.79 80 53.1854 80 45.0335C80 36.8858 64.3298 30.2764 45 30.2764ZM38.9063 52.6985L37.3903 49.1868H31.2039L29.5951 52.6985H21.6089V38.2643H23.7808V50.658H28.1988L34.3968 37.3396L41.2912 52.6985H38.9063ZM54.5937 39.385C53.0377 38.0869 51.3025 37.8198 49.6421 37.8198C47.8098 37.8198 46.2692 38.478 45.0154 39.7933C43.7529 41.1012 43.1229 42.7032 43.1229 44.5981C43.1229 46.4697 43.7535 48.0484 45.0154 49.3329C46.276 50.6187 47.8227 51.2616 49.6544 51.2616C50.5994 51.2616 51.5327 51.2365 52.194 50.9301C52.5625 50.7753 52.9462 50.5684 53.3429 50.308C53.7377 50.0452 54.1565 49.8561 54.5943 49.4877V52.6033C53.0537 53.4765 51.3129 53.7853 49.6188 53.7853C47.0711 53.7853 44.8987 52.898 43.0989 51.1179C41.306 49.3262 40.4076 47.1648 40.4076 44.6319C40.4076 42.3618 41.1598 40.3373 42.6611 38.5609C44.5069 36.3836 46.8968 35.2936 49.8275 35.2936C51.4283 35.2936 53.101 35.4711 54.5949 36.3351L54.5937 39.385ZM58.9282 52.6985H56.7569V38.2643H58.9282V52.6985ZM68.8375 40.3115H63.044V43.7913H68.6661V45.8354H63.044V50.658H68.8375V52.7003H60.8753V38.2643H68.8381L68.8375 40.3115Z" fill="#013A81"/>
</svg>
