<svg width="70" height="70" viewBox="0 0 70 70" fill="none" xmlns="http://www.w3.org/2000/svg">
<path d="M48.1427 28.5369V27.1836H47.6305V27H48.8677V27.1836H48.3554V28.5369H48.1427ZM49.2736 28.5369V27.232L49.7279 28.5369H49.9116L50.3659 27.261V28.5369H50.5689V27.0097H50.2886L49.9116 28.0729C49.8729 28.1792 49.8439 28.2662 49.8246 28.3145C49.8053 28.2662 49.7859 28.1889 49.7473 28.0922L49.38 27.0097H49.0707V28.5369H49.2736ZM18.5075 36.0278H13.5973V27.493H10.8619V38.077H18.5075V36.0278ZM24.162 35.9988C23.9977 36.1342 23.8237 36.2501 23.64 36.3371C23.0504 36.6368 22.3351 36.6078 21.9099 36.4821C21.7649 36.4338 21.6585 36.3758 21.5716 36.2888C21.4556 36.1921 21.3976 36.1052 21.3589 35.9892C21.3396 35.9215 21.3202 35.8345 21.3202 35.7379C21.3106 35.5445 21.3299 35.3416 21.3782 35.1966C21.4266 35.0709 21.4846 34.9646 21.6392 34.8486C21.7069 34.8003 21.7842 34.7519 21.8712 34.7036C21.9678 34.6553 22.0742 34.6166 22.2192 34.578C22.3641 34.5393 22.5575 34.5006 22.8861 34.4523C23.2147 34.404 23.6884 34.3556 24.162 34.317V35.9988ZM24.162 38.077H26.7331V32.6158C26.7331 32.2968 26.6944 31.9875 26.6171 31.7072C26.5398 31.4366 26.4334 31.2143 26.2884 31.0113C26.1435 30.8083 25.9598 30.6343 25.7278 30.4797C25.4959 30.325 25.2252 30.1897 24.8676 30.093C24.5003 29.9867 24.0363 29.9094 23.495 29.8707C22.9538 29.8224 22.3255 29.8127 21.6392 29.8707C20.9529 29.9287 20.199 30.0447 19.4644 30.2284V32.1422H19.6964C20.1507 31.9682 20.6146 31.8136 20.9723 31.7266C21.3299 31.6299 21.5812 31.6009 21.8519 31.5816C22.3835 31.5526 22.9731 31.6106 23.3404 31.7169C23.524 31.7652 23.6497 31.8232 23.7464 31.8909C23.8527 31.9585 23.93 32.0262 23.988 32.1132C24.0557 32.2002 24.0943 32.2968 24.133 32.4032C24.1716 32.5288 24.1813 32.6931 24.1813 32.8188C23.3597 32.8575 22.5478 32.9348 21.9485 33.0218C21.3589 33.1088 20.9819 33.1958 20.6726 33.3021C20.3633 33.4084 20.1024 33.5244 19.8897 33.6597C19.6771 33.7854 19.5031 33.9304 19.3581 34.085C19.2131 34.2397 19.0971 34.404 19.0005 34.5876C18.9038 34.7713 18.8361 34.9646 18.7975 35.1772C18.7588 35.3899 18.7395 35.6219 18.7491 35.8635C18.7781 36.3178 18.8941 36.7914 19.1358 37.1587C19.2518 37.3327 19.3871 37.497 19.5321 37.6323C19.6867 37.7677 19.8607 37.8933 20.0637 37.99C20.2667 38.0866 20.4987 38.164 20.75 38.222C21.0013 38.28 21.2816 38.3089 21.5619 38.3089C21.8422 38.3089 22.1128 38.2606 22.3835 38.2026C22.6541 38.1446 22.9054 38.0576 23.2051 37.903C23.5047 37.7483 23.8527 37.5067 24.1716 37.236V38.077H24.162ZM30.986 30.0834H28.4149V38.077H30.986V30.0834ZM31.0633 27.0097H28.3279V28.9428H31.0633V27.0097ZM38.5446 30.1124C38.4577 30.1027 38.3803 30.1027 38.3127 30.093C38.245 30.093 38.2063 30.0834 38.1 30.0834C38.0034 30.0834 37.839 30.0834 37.6264 30.1027C37.4138 30.1317 37.1431 30.18 36.8821 30.267C36.3698 30.4313 35.8189 30.789 35.2873 31.2529V30.0834H32.7162V38.077H35.2873V32.7511C35.7899 32.6158 36.3022 32.4805 36.8048 32.4515C37.3074 32.4225 37.81 32.4902 38.3127 32.5578H38.5446V30.1124ZM44.5181 35.9118C44.3634 36.0182 44.1895 36.1148 44.0058 36.1921C43.6192 36.3565 43.2422 36.4145 42.9039 36.3855C42.5849 36.3565 42.2563 36.2791 42.034 36.1052C41.9277 36.0278 41.8407 35.9408 41.7633 35.8248C41.686 35.7089 41.6087 35.5735 41.5507 35.3996C41.4927 35.2256 41.4444 35.0129 41.4154 34.7713C41.3864 34.5296 41.3767 34.2493 41.3864 33.9884C41.396 33.7274 41.4347 33.4761 41.483 33.2538C41.5314 33.0411 41.599 32.8575 41.6763 32.7028C41.7537 32.5482 41.8407 32.4128 41.947 32.2968C42.0437 32.1809 42.1596 32.0939 42.2853 32.0165C42.411 31.9392 42.5656 31.8812 42.7396 31.8329C42.9232 31.7846 43.1359 31.7459 43.3389 31.7362C43.7448 31.7266 44.1508 31.8039 44.5181 31.9489V35.9118ZM47.0795 27.0097H44.5084V30.3927C44.1121 30.18 43.6772 30.0157 43.2809 29.9287C42.8749 29.8417 42.4979 29.8321 42.1403 29.8611C41.773 29.8997 41.4154 29.9771 41.0867 30.1124C40.7581 30.2477 40.4488 30.4217 40.1782 30.644C39.9075 30.8663 39.6659 31.1369 39.4629 31.4559C39.2599 31.7749 39.0859 32.1422 38.9603 32.5288C38.8346 32.9251 38.7573 33.3407 38.738 33.8144C38.7186 34.288 38.7573 34.8099 38.8346 35.2836C38.9119 35.7572 39.0376 36.1728 39.1922 36.5208C39.3469 36.8687 39.5402 37.1587 39.7529 37.3907C39.9655 37.6227 40.2072 37.816 40.4875 37.961C40.7678 38.106 41.1061 38.2123 41.4347 38.2703C42.1113 38.3959 42.7299 38.3476 43.4259 37.9706C43.7738 37.787 44.1605 37.5357 44.5181 37.236V38.0673H47.0892V27.0097H47.0795ZM56.8033 36.4531C56.8419 36.8591 56.697 37.2554 56.32 37.6613C55.943 38.0673 55.3244 38.4926 54.2902 38.9179C53.2463 39.3432 51.7867 39.7685 49.7183 40.1744C47.6498 40.5804 44.982 40.9574 41.8503 41.2667C38.7186 41.576 35.1326 41.808 31.1117 41.9143C27.0907 42.0206 22.6251 42.0109 19.3388 41.9336C16.0524 41.8563 13.9356 41.7306 11.9058 41.5856C9.87597 41.4407 7.93315 41.286 6 41.0927L6.65727 41.518C7.7785 41.6823 8.89973 41.808 10.9392 42.0013C12.9884 42.1849 15.9557 42.4362 19.5804 42.5909C23.2147 42.7455 27.5063 42.8132 31.7883 42.7552C36.0702 42.6972 40.3328 42.5136 44.1508 42.2139C47.9688 41.9143 51.3421 41.4987 54.0002 41.0637C56.6583 40.6287 58.5915 40.1744 60.022 39.7588C61.4429 39.3432 62.3611 38.9566 62.9604 38.5989C63.5597 38.2413 63.8496 37.8933 63.9559 37.5357C64.0623 37.1781 63.9849 36.8011 63.6273 36.4145C63.26 36.0278 62.6124 35.6219 61.4622 35.1966C60.312 34.7713 58.6784 34.317 56.8806 33.94C55.0828 33.5727 53.1399 33.2731 51.6321 33.0894C50.1242 32.8961 49.061 32.8188 47.9881 32.7801C48.6454 32.8478 49.3026 32.9638 50.3465 33.2054C51.3904 33.4471 52.821 33.8047 53.8745 34.1623C54.9378 34.52 55.6241 34.8583 56.088 35.2449C56.5326 35.6219 56.755 36.0472 56.8033 36.4531Z" fill="white"/>
</svg>
