<svg width="90" height="90" viewBox="0 0 90 90" fill="none" xmlns="http://www.w3.org/2000/svg">
<g clip-path="url(#clip0_2394_4485)">
<path d="M10.4756 10.4688V79.5339H79.5411L79.5408 10.4688H10.4756Z" fill="white"/>
<path fill-rule="evenodd" clip-rule="evenodd" d="M10.4756 79.5339V10.4688H79.5404L79.5408 79.5339H10.4756ZM73.5421 45.8005C74.1469 44.0092 74.8317 41.3283 74.9445 39.1765C75.0304 37.5533 74.8119 35.2799 73.2808 33.6644C72.0593 32.3737 70.193 31.7223 67.7337 31.7223C64.6269 31.7223 62.1236 32.819 60.2919 34.9878L59.8085 35.5579L59.4873 34.8836C59.2252 34.3341 59.0378 34.1089 58.7523 33.7869C57.5005 32.3706 55.4013 31.6527 52.513 31.6531C49.867 31.6531 47.4769 32.446 45.7821 33.8861L45.3531 34.2505L45.0576 33.7694C44.2573 32.4686 42.2623 31.6266 39.9768 31.6266C36.6883 31.6274 33.3703 32.0739 31.3687 35.3005L30.5392 36.632L30.4743 35.0636C30.4237 33.8503 30.3129 33.3463 29.7486 32.749C29.1279 32.0906 28.0834 31.7705 26.5558 31.7717C24.3127 31.7717 22.6269 32.7498 21.4007 34.7638C19.5134 37.7785 14.9518 47.6944 15.0525 52.4073C15.1186 55.4659 17.1595 57.338 20.5136 57.4154C23.2779 57.4823 25.4751 56.773 26.8708 55.3644L27.227 55.0043L27.5693 55.3745C28.8238 56.7364 30.7309 57.487 32.9402 57.487C35.7534 57.487 38.1591 56.6127 39.5408 55.0871L39.918 54.6714L40.2727 55.1074C41.5661 56.6964 43.565 57.5294 46.0528 57.5193C49.2973 57.5049 52.3275 56.0139 54.3656 53.4313L54.9 52.7542L55.1983 53.5643C56.4544 56.9799 59.8587 57.4889 61.7786 57.4901C68.2984 57.4901 71.1139 53.0167 73.5421 45.8005Z" fill="#FFED00"/>
<path fill-rule="evenodd" clip-rule="evenodd" d="M10.4756 79.5339V10.4688H79.5404L79.5408 79.5339H10.4756ZM73.9746 50.8564C74.8772 48.996 76.5755 44.3398 76.8893 41.8256L76.8928 41.798C77.2755 38.7289 77.6375 35.8247 75.5667 32.9388C74.0944 30.8878 71.5856 29.5115 67.7687 29.5111C64.8835 29.5111 62.3068 30.2928 60.2464 32.0062C58.482 30.2601 55.9515 29.4675 52.5456 29.4683C49.8806 29.4683 47.6437 30.0777 45.6958 31.2471C44.2818 30.1236 42.622 29.4216 39.9775 29.4216C37.5804 29.4213 34.215 29.5461 31.6759 31.7017C31.0891 30.5043 29.896 29.564 26.6048 29.564C23.573 29.564 21.0997 30.9982 19.4776 33.6609C17.3119 37.1201 12.7149 47.1095 12.8323 52.5664C12.9198 56.6742 16.0002 59.5041 20.4623 59.6103C23.1437 59.6729 25.4273 59.0989 27.1699 57.9424C28.7456 59.0779 30.7593 59.6912 32.997 59.6912C35.6749 59.6916 38.0906 58.9885 39.8819 57.7261C41.5047 59.0126 43.6339 59.7079 46.0426 59.7079C49.1678 59.7091 52.0716 58.6299 54.4174 56.577C56.0173 58.6171 58.7581 59.6776 62.0866 59.678C68.3178 59.6784 71.5545 55.8459 73.9746 50.8564Z" fill="#E3000B"/>
<path fill-rule="evenodd" clip-rule="evenodd" d="M10 80V10H80L79.9988 79.9988L10 80ZM79.0356 79.0359L79.0363 10.9637H10.9629L10.9644 79.0356L79.0356 79.0359Z" fill="black"/>
<path fill-rule="evenodd" clip-rule="evenodd" d="M75.1836 31.1167C75.1832 30.8965 75.2263 30.6783 75.3103 30.4747C75.3944 30.2712 75.5177 30.0862 75.6734 29.9304C75.8291 29.7745 76.014 29.651 76.2175 29.5667C76.421 29.4825 76.6391 29.4393 76.8593 29.4395C77.0797 29.439 77.2981 29.4821 77.5018 29.5663C77.7055 29.6504 77.8906 29.7739 78.0465 29.9298C78.2024 30.0856 78.326 30.2706 78.4103 30.4743C78.4945 30.678 78.5377 30.8963 78.5374 31.1167C78.5378 31.3372 78.4947 31.5555 78.4105 31.7592C78.3263 31.9629 78.2027 32.148 78.0467 32.3038C77.8908 32.4596 77.7057 32.5831 77.5019 32.6671C77.2981 32.7512 77.0798 32.7942 76.8593 32.7936C76.6391 32.794 76.4209 32.7508 76.2174 32.6667C76.0138 32.5825 75.8289 32.459 75.6732 32.3032C75.5175 32.1474 75.3941 31.9624 75.3101 31.7588C75.2261 31.5552 75.1831 31.337 75.1836 31.1167ZM76.8601 29.7723C77.606 29.7727 78.2123 30.3732 78.2103 31.1191C78.2123 31.865 77.6037 32.4673 76.8601 32.4673C76.6834 32.4671 76.5084 32.432 76.3453 32.3641C76.1821 32.2962 76.0339 32.1968 75.9092 32.0715C75.7845 31.9463 75.6857 31.7978 75.6184 31.6343C75.5512 31.4709 75.5168 31.2958 75.5173 31.1191C75.5165 30.9423 75.5507 30.7672 75.6178 30.6037C75.685 30.4402 75.7838 30.2916 75.9086 30.1665C76.0334 30.0413 76.1817 29.942 76.345 29.8744C76.5083 29.8068 76.6834 29.7721 76.8601 29.7723ZM77.5131 31.6429L77.7133 31.9929L77.2789 31.9956L77.1401 31.7117C77.0782 31.5874 76.9984 31.4729 76.9033 31.3718C76.8348 31.3007 76.7722 31.2828 76.6178 31.2828L76.5541 31.2832L76.5533 31.9948H76.1951V30.2577H77.0604C77.4333 30.2577 77.6083 30.4657 77.6083 30.7411C77.6091 31.0036 77.4318 31.1922 77.1386 31.2272L77.1393 31.2369C77.2883 31.2886 77.3377 31.3372 77.5131 31.6429ZM76.5529 30.5276V31.0047H76.9157C77.1584 31.0047 77.2385 30.8865 77.235 30.7636C77.235 30.6104 77.1133 30.5264 76.8768 30.5264L76.5529 30.5276ZM59.9201 34.6747C61.611 32.6719 64.1131 31.2373 67.7313 31.2373C73.9944 31.2373 75.6328 35.3323 75.4274 39.2017C75.3057 41.5273 74.5594 44.2977 74.0018 45.9548C71.5246 53.3168 68.5496 57.9722 61.779 57.9715C58.6893 57.9722 55.8617 56.7667 54.7475 53.7295C52.7124 56.3047 49.6021 57.9855 46.0558 58.003C43.3453 58.0162 41.2375 57.0583 39.8978 55.413C38.3072 57.1684 35.6157 57.9722 32.9406 57.973C30.5372 57.9715 28.5306 57.1342 27.2134 55.7038C25.7457 57.184 23.4396 57.9695 20.5023 57.9007C16.7398 57.8105 14.6379 55.553 14.5687 52.4193C14.4652 47.5683 19.0852 37.5536 20.9896 34.5129C22.3041 32.3557 24.1299 31.2968 26.5546 31.2956C27.8858 31.2968 29.2527 31.5282 30.0978 32.4234C30.7927 33.1584 30.9043 33.8117 30.9557 35.0484C33.0868 31.6145 36.6786 31.1478 39.974 31.1486C42.4956 31.1486 44.5886 32.0925 45.4667 33.5193C47.1568 32.0827 49.5908 31.1712 52.5106 31.1712C55.4992 31.1716 57.7256 31.9007 59.1116 33.4687C59.4173 33.8129 59.6347 34.0758 59.9201 34.6747ZM26.9517 51.5777C27.0629 50.4048 26.1844 49.1382 22.6793 49.7465C23.0274 48.9667 23.545 47.8981 24.1326 46.6847C26.0156 42.7966 28.6177 37.4237 28.6667 35.3218C28.6931 34.2854 28.2754 33.4213 26.5947 33.4221C24.819 33.4213 23.7052 34.1641 22.7929 35.6628C20.8142 38.8226 16.6123 48.3542 16.7006 52.4741C16.7503 54.8292 18.5762 55.7587 20.605 55.8061C23.4011 55.8711 26.6219 55.0859 26.9521 51.5773L26.9517 51.5777ZM34.0878 46.5105C33.8544 47.1382 33.4158 48.4526 33.0615 49.8437C34.2118 49.5567 35.0732 49.358 36.5498 49.3922C38.2333 49.4334 39.3106 50.1303 39.3098 51.5233C39.3098 54.8965 35.5792 55.8874 32.9942 55.8882C30.153 55.8882 27.6571 54.2723 27.6571 51.1655C27.6571 47.5232 29.6311 42.0002 31.4838 38.3232C33.758 33.8059 36.0832 33.2058 40.086 33.2058C41.8461 33.2058 43.8722 33.9572 43.8722 35.6185C43.8722 37.9215 41.9247 38.7996 39.9899 38.9108C39.1628 38.9583 37.8923 39.0038 37.1324 38.9493C37.1324 38.9493 36.4864 39.9313 35.8039 41.6774C39.3848 41.1734 40.9046 41.9866 40.3003 44.0574C39.4821 46.857 37.0562 47.0417 34.0874 46.5101L34.0878 46.5105ZM49.6293 39.0773C50.1018 38.415 50.7338 37.8017 51.7033 37.8017C52.8913 37.8017 52.7762 38.4302 52.4943 39.2332C51.6936 41.5199 54.1117 41.5802 54.702 41.5335C56.8129 41.369 57.9761 40.0052 58.2623 37.682C58.6543 34.5187 55.9892 33.3042 52.6109 33.3042C46.9798 33.3042 44.7694 36.7482 42.6608 41.6716C41.6703 43.9843 40.4228 47.9366 40.4232 50.4535C40.4228 53.9885 42.5737 55.9053 46.0403 55.9053C51.1024 55.9053 54.6794 51.8686 55.7014 46.8391C56.0161 45.2913 56.4038 42.3867 52.4721 42.5485C50.4763 42.631 49.2723 43.0712 48.6377 45.1105C47.9843 47.2113 50.3538 47.2685 50.3538 47.2685C49.8771 49.4404 48.4813 50.7572 47.2377 50.7583C46.4614 50.7583 45.7552 50.4216 45.9917 48.7789C46.3428 46.3771 48.5922 40.5352 49.6293 39.0773ZM72.9693 41.9578C72.3719 44.9211 71.0342 48.4289 69.5805 51.0426C67.2083 55.3064 64.3309 55.9037 61.8152 55.8718C59.301 55.8419 56.4664 54.9148 56.445 51.0345C56.4298 48.25 57.6303 44.3176 58.6504 41.7427C60.4296 37.0722 62.2441 33.263 67.9876 33.3311C74.6835 33.4092 73.4892 39.3651 72.9693 41.9578ZM64.5701 49.5555C65.5011 47.9786 68.1218 40.8257 68.1933 39.0372C68.2143 38.5161 68.1284 37.9095 67.2884 37.8997C66.7124 37.8916 66.2116 38.0032 65.7612 38.6989C64.7493 40.0141 61.7872 48.1042 61.8373 49.7181C61.8556 50.2983 62.1796 50.805 62.892 50.805C63.7126 50.8058 64.1672 50.2411 64.5701 49.5555Z" fill="black"/>
</g>
<defs>
<clipPath id="clip0_2394_4485">
<rect width="70" height="70" fill="white" transform="translate(10 10)"/>
</clipPath>
</defs>
</svg>
