<svg width="90" height="90" viewBox="0 0 90 90" fill="none" xmlns="http://www.w3.org/2000/svg">
<path d="M44.6421 72.2275C59.8498 72.2275 72.1782 59.8991 72.1782 44.6914C72.1782 29.4836 59.8498 17.1553 44.6421 17.1553C29.4343 17.1553 17.106 29.4836 17.106 44.6914C17.106 59.8991 29.4343 72.2275 44.6421 72.2275Z" fill="#535353"/>
<path d="M70.6924 32.4086L69.5421 31.7449L62.8351 43.3628L47.0341 15.9971L45.8838 16.6607L52.5886 28.2742H20.624V29.6014H34.3964L18.5933 56.9739L19.7436 57.6397L26.4506 46.0217L42.2848 73.4473L43.4373 72.7836L36.697 61.1104H68.3012V59.7832H54.8893L70.6924 32.4086Z" fill="white"/>
<path d="M51.5421 45.0714L55.734 49.2589H43.7246L47.9165 45.0714V41.4436L43.7246 37.2539H55.734L51.5421 41.4436V45.0714Z" fill="#E29823"/>
<path d="M37.7228 43.2575L43.7243 49.2589V55.2625L31.7192 43.2575L37.7228 37.2539H43.7243L37.7228 43.2575Z" fill="#E29823"/>
<path d="M40.7817 43.1286L43.7261 46.0729L46.6682 43.1286H43.7261V40.1865L40.7817 43.1286Z" fill="#E29823"/>
<path d="M44.642 73.9998C28.4826 73.9998 15.334 60.8533 15.334 44.6918C15.334 28.5302 28.4826 15.3838 44.642 15.3838C60.8013 15.3838 73.95 28.5324 73.95 44.6918C73.95 60.8511 60.8035 73.9998 44.642 73.9998ZM44.642 17.1557C29.4582 17.1557 17.1059 29.508 17.1059 44.6918C17.1059 59.8756 29.4582 72.2279 44.642 72.2279C59.8258 72.2279 72.1781 59.8756 72.1781 44.6918C72.1781 29.508 59.8258 17.1557 44.642 17.1557Z" fill="#2C2829"/>
</svg>
