<svg width="90" height="90" viewBox="0 0 90 90" fill="none" xmlns="http://www.w3.org/2000/svg">
<path d="M52.0059 25.5069L35.526 63.4488H62.1332C66.5931 63.4488 68 71.8319 68 71.8319H22.2913L45.1456 18.168H62.4523L60.7118 23.1355C60.2151 24.5533 58.8735 25.5069 57.3687 25.5069H52.0023H52.0059Z" fill="white"/>
<path d="M43.4451 62.3648H37.9155L39.6451 58.4053H44.9897L43.4451 62.3648Z" fill="#0091D1"/>
<path d="M49.573 62.3648H44.0471L45.7766 58.4053H51.1213L49.573 62.3648Z" fill="#0091D1"/>
<path d="M55.7842 62.3648H50.2546L51.9842 58.4053H57.3289L55.7842 62.3648Z" fill="#0091D1"/>
<path d="M52.006 25.5069H57.3724C58.8771 25.5069 60.2151 24.5569 60.7155 23.1355L62.4559 18.168H45.1493L42.0237 25.5069H52.006Z" fill="#0091D1"/>
</svg>
