<svg width="90" height="90" viewBox="0 0 90 90" fill="none" xmlns="http://www.w3.org/2000/svg">
<path d="M73.6056 48.9122V40.7595H75.9884C76.9805 40.7595 77.7139 40.9603 78.1886 41.362C78.6634 41.7576 78.9007 42.3571 78.9007 43.1605C78.9007 43.7509 78.7486 44.2196 78.4443 44.5665C78.146 44.9073 77.8021 45.1538 77.4126 45.306L79.5763 48.9122H78.0791L76.1892 45.662H74.9294V48.9122H73.6056ZM74.9294 44.5848H75.9428C76.4479 44.5848 76.8435 44.46 77.1296 44.2104C77.4217 43.9609 77.5678 43.6231 77.5678 43.1971C77.5678 42.7284 77.4339 42.3906 77.1661 42.1837C76.8983 41.9767 76.4844 41.8733 75.9245 41.8733H74.9294V44.5848ZM76.1345 51.6875C75.1424 51.6875 74.2264 51.5171 73.3865 51.1763C72.5526 50.8355 71.8253 50.3577 71.2045 49.743C70.5898 49.1282 70.112 48.404 69.7712 47.5701C69.4364 46.7302 69.269 45.8172 69.269 44.8312C69.269 43.8392 69.4395 42.9262 69.7803 42.0924C70.1211 41.2525 70.5989 40.5251 71.2136 39.9104C71.8344 39.2957 72.5618 38.8179 73.3956 38.4771C74.2355 38.1362 75.1485 37.9658 76.1345 37.9658C77.09 37.9658 77.9817 38.1393 78.8094 38.4862C79.6433 38.827 80.3736 39.3079 81.0005 39.9287C81.6274 40.5434 82.1174 41.2677 82.4704 42.1015C82.8234 42.9353 82.9999 43.8453 82.9999 44.8312C82.9999 45.8172 82.8295 46.7302 82.4886 47.5701C82.1478 48.404 81.667 49.1282 81.0462 49.743C80.4315 50.3577 79.7041 50.8355 78.8642 51.1763C78.0304 51.5171 77.1205 51.6875 76.1345 51.6875ZM76.1345 50.7563C76.944 50.7563 77.7017 50.6103 78.4077 50.3181C79.1198 50.026 79.7437 49.6151 80.2793 49.0856C80.8149 48.55 81.2349 47.9231 81.5392 47.2049C81.8435 46.4807 81.9957 45.6894 81.9957 44.8312C81.9957 44.0157 81.8496 43.2518 81.5574 42.5397C81.2714 41.8276 80.8666 41.1977 80.3432 40.6499C79.8198 40.1021 79.199 39.6761 78.4808 39.3718C77.7687 39.0614 76.9866 38.9062 76.1345 38.9062C75.2824 38.9062 74.4972 39.0522 73.779 39.3444C73.0669 39.6365 72.4461 40.0504 71.9166 40.586C71.3932 41.1155 70.9854 41.7424 70.6933 42.4667C70.4072 43.1849 70.2642 43.9731 70.2642 44.8312C70.2642 45.6468 70.4072 46.4137 70.6933 47.1319C70.9793 47.844 71.3841 48.4739 71.9075 49.0217C72.437 49.5634 73.0578 49.9895 73.7699 50.2999C74.4881 50.6042 75.2763 50.7563 76.1345 50.7563Z" fill="white"/>
<path d="M67.2058 44.8127C67.2058 45.8413 67.075 46.7786 66.8133 47.6246C66.5515 48.4645 66.162 49.1888 65.6447 49.7974C65.1334 50.4 64.4974 50.8656 63.7366 51.1943C62.9758 51.5229 62.0933 51.6873 61.089 51.6873C60.0543 51.6873 59.1505 51.5229 58.3775 51.1943C57.6107 50.8656 56.9716 50.3969 56.4603 49.7883C55.9552 49.1797 55.5748 48.4523 55.3191 47.6063C55.0696 46.7603 54.9448 45.823 54.9448 44.7944C54.9448 43.4311 55.17 42.2351 55.6204 41.2065C56.0708 40.1779 56.7525 39.3776 57.6654 38.8054C58.5845 38.2333 59.7348 37.9473 61.1164 37.9473C62.4372 37.9473 63.5479 38.2303 64.4487 38.7963C65.3556 39.3623 66.0403 40.1597 66.5028 41.1883C66.9715 42.2108 67.2058 43.4189 67.2058 44.8127ZM56.579 44.8127C56.579 45.9448 56.7403 46.9247 57.0629 47.7524C57.3855 48.5802 57.8785 49.2192 58.5419 49.6696C59.2114 50.12 60.0604 50.3452 61.089 50.3452C62.1237 50.3452 62.9697 50.12 63.627 49.6696C64.2905 49.2192 64.7804 48.5802 65.0969 47.7524C65.4134 46.9247 65.5716 45.9448 65.5716 44.8127C65.5716 43.0903 65.2095 41.7452 64.4852 40.7774C63.767 39.8036 62.6441 39.3167 61.1164 39.3167C60.0817 39.3167 59.2296 39.5389 58.5601 39.9832C57.8906 40.4275 57.3915 41.0604 57.0629 41.8821C56.7403 42.6977 56.579 43.6745 56.579 44.8127Z" fill="white"/>
<path d="M47.7325 44.5117H52.3977V50.9846C51.6978 51.2219 50.9765 51.3984 50.234 51.5141C49.4975 51.6297 48.6728 51.6875 47.7599 51.6875C46.3722 51.6875 45.2006 51.4106 44.245 50.8568C43.2955 50.3029 42.5743 49.5147 42.0813 48.4922C41.5883 47.4636 41.3418 46.2433 41.3418 44.8312C41.3418 43.4496 41.6126 42.2445 42.1543 41.2159C42.7021 40.1873 43.4903 39.39 44.5189 38.824C45.5536 38.2519 46.7952 37.9658 48.2437 37.9658C48.9863 37.9658 49.6893 38.0358 50.3527 38.1758C51.0222 38.3097 51.643 38.5014 52.2151 38.751L51.6217 40.1021C51.1287 39.8891 50.584 39.7065 49.9875 39.5544C49.3971 39.4022 48.7854 39.3261 48.1524 39.3261C47.063 39.3261 46.1287 39.5513 45.3497 40.0017C44.5767 40.4521 43.9833 41.0881 43.5694 41.9098C43.1616 42.7315 42.9577 43.7053 42.9577 44.8312C42.9577 45.9451 43.1373 46.9158 43.4964 47.7436C43.8555 48.5652 44.4154 49.2043 45.1762 49.6608C45.937 50.1173 46.9169 50.3455 48.1159 50.3455C48.7185 50.3455 49.2358 50.312 49.668 50.2451C50.1001 50.172 50.4927 50.0868 50.8457 49.9895V45.8994H47.7325V44.5117Z" fill="white"/>
<path d="M34.9695 44.8502L38.5209 38.1582H40.1916L35.7455 46.3292V51.5056H34.1935V46.4022L29.7383 38.1582H31.4364L34.9695 44.8502Z" fill="white"/>
<path d="M21.7954 51.5056V38.1582H23.3474V50.1179H29.2725V51.5056H21.7954Z" fill="white"/>
<path d="M16.5732 51.5056V38.1582H18.1253V51.5056H16.5732Z" fill="white"/>
<path d="M6.80469 51.5056V38.1582H8.35671V50.1179H14.2818V51.5056H6.80469Z" fill="white"/>
</svg>
