<svg width="90" height="90" viewBox="0 0 90 90" fill="none" xmlns="http://www.w3.org/2000/svg">
<path d="M38.2663 26.5508H11.91V36.8166H32.8237C33.6671 36.8166 34.3524 37.5018 34.3524 38.3452C34.3524 39.1886 33.6671 39.8739 32.8237 39.8739H11.91V63.4496H22.1758V50.1265H37.6601C41.5082 50.1265 44.6182 47.0033 44.6182 43.1684V32.9027C44.6182 29.3973 41.7717 26.5508 38.2663 26.5508Z" fill="white"/>
<path d="M72.6481 26.5508H46.2918V36.8166H67.2056C68.049 36.8166 68.7342 37.5018 68.7342 38.3452C68.7342 39.1886 68.049 39.8739 67.2056 39.8739H46.2918V63.4496H56.5576V50.1265H72.0419C75.89 50.1265 79 47.0033 79 43.1684V32.9027C79 29.3973 76.1535 26.5508 72.6481 26.5508Z" fill="white"/>
</svg>
