<svg width="90" height="90" viewBox="0 0 90 90" fill="none" xmlns="http://www.w3.org/2000/svg">
<path d="M34.4484 44.582C34.4484 51.5364 31.2576 57.1616 27.3173 57.1616C23.3838 57.1616 20.1885 51.5364 20.1885 44.582C20.1885 37.6366 23.3838 32.0046 27.3173 32.0046C31.2576 32.0046 34.4484 37.6366 34.4484 44.582Z" fill="#0079C2"/>
<path d="M30.5565 27C38.3171 28.6101 44.1778 35.8838 44.1778 44.6182C44.1778 53.4614 38.1699 60.8053 30.2666 62.2954H45.7109V27H30.5565Z" fill="#0079C2"/>
<path d="M10.463 44.6182C10.463 35.8838 16.3192 28.6101 24.0866 27H8.91406V62.2954H24.3697C16.4709 60.8053 10.463 53.4614 10.463 44.6182Z" fill="#0079C2"/>
<path d="M55.9805 27.0475L65.8494 47.1636V27.0475H55.9805Z" fill="#0079C2"/>
<path d="M55.1992 62.2954H65.5483L55.1992 40.7051V62.2954Z" fill="#0079C2"/>
<path d="M75.3193 62.2954H81.9998V27H75.3193V62.2954Z" fill="#0079C2"/>
</svg>
