<svg width="90" height="90" viewBox="0 0 90 90" fill="none" xmlns="http://www.w3.org/2000/svg">
<path d="M58.1595 45.1258H74.0798V16L57.9295 44.7117C54.8006 44.3896 53.1442 47.7485 50.6595 48.6227C52.9601 41.1687 55.4908 33.8068 57.9295 26.3988C58.2055 25.7546 58.3436 24.6503 57.5614 24.2822C57.2393 23.9601 56.5491 23.9601 56.227 24.2822L39.0644 51.9816C40.0307 47.4264 41.5951 43.1472 42.2853 38.546C41.9632 37.9018 41.273 37.5337 40.6288 37.6718L33.1288 43.6074L32.4847 43.6994L48.4049 16.4141L48.2669 16.1841H20.1994L18.819 16.3681C16.3344 16.9202 15 19.727 15.046 22.2117L15 44.8957H31.3344L31.5644 45.0337L30.4141 47.0583H15.046V69.5583L15.4141 70.9847C15.9663 72.7331 17.5767 73.6534 19.4632 73.7914H74.1258V67.9479H32.8067C29.0337 67.7178 25.1687 68.638 22.0399 66.7055C21.2577 65.7853 21.1196 64.3589 21.4877 63.2086L30.8282 47.3804C34.0951 47.9785 35.7055 44.3896 38.3742 43.2393C37.316 49.2669 35.3374 55.1104 33.865 61.046C33.4969 61.7362 33.727 62.6564 34.4172 63.2086C34.9693 63.6227 35.6135 63.2086 36.0736 62.8405L51.1196 38.1779C49.6472 43.1933 47.9908 48.0705 46.4264 53.0859C46.5184 53.7761 47.2086 54.4663 47.9908 54.3282L55.1687 48.9448L55.7209 48.8528C53.8344 52.2117 51.5798 55.3405 49.7853 58.6994L50.0153 58.8374H74.1258V47.1503H57.2853L57.0552 47.0123L58.1595 45.1258Z" fill="#00833E"/>
</svg>
