<svg width="70" height="70" viewBox="0 0 70 70" fill="none" xmlns="http://www.w3.org/2000/svg">
<path d="M38.4483 16.8283C43.4773 17.8379 47.967 21.1013 50.5136 25.5492C51.3089 26.9089 51.9578 28.3828 52.3423 29.9127C47.7157 34.556 43.0773 39.1873 38.4388 43.8174C37.853 43.5603 37.3208 43.2864 36.6684 43.2341C35.5219 43.1472 34.317 43.6353 33.6241 44.5699C32.6192 45.8129 32.6764 47.7987 33.7396 48.9893C34.7897 50.2418 36.7601 50.5132 38.1542 49.6965C39.0686 49.181 39.677 48.2345 39.8187 47.1987C39.9758 46.2879 39.6901 45.4604 39.2377 44.6818C40.758 43.115 42.3236 41.5911 43.8583 40.0386C46.7954 37.1181 49.7052 34.1702 52.6554 31.2628C53.6412 36.1144 52.4769 41.291 49.6076 45.3092C47.4252 48.3571 44.3238 50.7228 40.7771 51.9526C38.2959 52.8408 35.6004 53.142 32.98 52.9003C29.819 52.6098 26.7199 51.4645 24.1483 49.6001C24.6114 49.0762 25.1174 48.5988 25.6079 48.1011C30.1131 43.5984 34.6182 39.0944 39.1222 34.5893C39.4674 34.2345 39.8818 33.888 40.1449 33.4654C40.4509 33.007 40.3223 32.3093 40.3461 31.7772C40.3651 29.9782 40.2985 28.1733 40.3889 26.3767C41.2926 26.1433 42.1189 25.6838 42.6451 24.8944C43.4952 23.7015 43.4535 21.9299 42.5344 20.7869C42.0653 20.1512 41.3438 19.7261 40.5866 19.5309C39.4151 19.2392 38.1233 19.6238 37.2911 20.4953C36.822 20.9703 36.5065 21.5763 36.3577 22.2252C36.1386 23.2788 36.4398 24.4122 37.1637 25.2099C37.6982 25.8386 38.4162 26.1731 39.1972 26.3886C39.196 28.3804 39.1984 30.3854 39.1972 32.376C39.2222 32.9868 38.8019 33.2606 38.4269 33.6571C33.7598 38.3158 29.0999 42.9817 24.4352 47.6428C24.0257 48.0571 23.6125 48.4678 23.1875 48.8667C21.7457 47.7142 20.5075 46.3307 19.4801 44.7985C19.2122 44.4139 18.9776 44.0151 18.7895 43.5853C19.9765 42.4197 21.1469 41.2339 22.3231 40.0564C22.4446 39.9493 22.572 39.7909 22.7351 39.7588C23.3113 39.9231 23.7768 40.2457 24.4031 40.2541C25.4317 40.3552 26.4354 40.0409 27.1759 39.3123C28.1427 38.3837 28.4939 36.9026 28.0308 35.643C27.6474 34.4976 26.633 33.6321 25.452 33.4035C24.6376 33.2535 23.784 33.3547 23.0565 33.763C21.8493 34.4012 21.154 35.7858 21.2885 37.1371C21.3064 37.7824 21.6219 38.2575 21.8612 38.8266C21.6921 39.0921 21.4302 39.3123 21.2111 39.5373C20.2039 40.5231 19.2336 41.547 18.2049 42.5114C17.0263 40.0338 16.381 37.2621 16.4381 34.5143C16.4596 34.269 16.4155 34.0535 16.6108 33.869C18.0264 32.4367 19.4765 31.0092 20.8945 29.577C21.1123 29.3615 21.3254 29.1222 21.5743 28.9436C21.7933 28.7864 22.1219 28.79 22.3803 28.7793C23.7923 28.7805 25.2055 28.7924 26.6176 28.7745C26.8461 29.3948 27.0354 29.9758 27.4807 30.4818C28.3522 31.5009 29.7904 31.9224 31.0775 31.5498C32.3454 31.1914 33.3217 30.0949 33.5503 28.8007C33.7134 27.7161 33.4276 26.5839 32.6609 25.7814C31.4834 24.5313 29.3999 24.373 28.0331 25.4076C27.2974 25.9481 26.889 26.7255 26.6521 27.5911C25.1484 27.6173 23.6447 27.597 22.141 27.6018C21.7921 27.6042 21.4576 27.6375 21.1445 27.8042C20.7837 27.9959 20.4861 28.3554 20.1968 28.64C19.0181 29.8151 17.8513 30.9985 16.6596 32.1581C16.7108 31.6902 16.7584 31.2235 16.8644 30.7628C17.4858 28.059 18.705 25.4623 20.4492 23.3014C22.1207 21.2072 24.2507 19.4928 26.6545 18.3117C30.269 16.5211 34.5027 15.9889 38.4483 16.8283Z" fill="#E0384F"/>
</svg>
