<svg width="90" height="90" viewBox="0 0 90 90" fill="none" xmlns="http://www.w3.org/2000/svg">
<path d="M34.0581 30.9678V45.4544V59.947L43.0002 54.5107V45.4544V36.398L34.0581 30.9678Z" fill="#B50000"/>
<path d="M54.967 30.9678V45.4544V59.947L46.0249 54.5107V45.4544V36.398L54.967 30.9678Z" fill="#B50000"/>
<path d="M12.3066 43.4012V25.2344H22.4936L20.6474 27.0805C19.0959 28.632 18.224 30.7428 18.224 32.9377V37.4899C18.224 40.7553 15.578 43.4073 12.3066 43.4073V43.4012Z" fill="#B50000"/>
<path d="M12.3066 47.1369V65.3037H22.4936L20.6474 63.4576C19.0959 61.9061 18.224 59.7953 18.224 57.6004V53.0482C18.224 49.7828 15.578 47.1309 12.3066 47.1309V47.1369Z" fill="#B50000"/>
<path d="M76.9999 43.4012V25.2344H66.813L68.6591 27.0805C70.2106 28.632 71.0826 30.7428 71.0826 32.9377V37.4899C71.0826 40.7553 73.7285 43.4073 76.9999 43.4073V43.4012Z" fill="#B50000"/>
<path d="M76.9999 47.1369V65.3037H66.813L68.6591 63.4576C70.2106 61.9061 71.0826 59.7953 71.0826 57.6004V53.0482C71.0826 49.7828 73.7285 47.1309 76.9999 47.1309V47.1369Z" fill="#B50000"/>
</svg>
