<svg width="70" height="70" viewBox="0 0 70 70" fill="none" xmlns="http://www.w3.org/2000/svg">
<path d="M38.8695 49.9216C30.6748 49.9216 24.0085 43.268 24.0085 35.0845C24.0085 26.9054 30.6748 20.2518 38.8695 20.2518C47.0643 20.2518 53.7306 26.9054 53.7306 35.0845C53.7349 43.2637 47.0643 49.9216 38.8695 49.9216ZM38.8695 11C27.1297 11 17.3508 19.3715 15.1886 30.4608H8V39.7126H15.1886C17.3508 50.8019 27.1297 59.1734 38.8695 59.1734C52.1978 59.1734 63 48.3917 63 35.0888C63 21.7859 52.1978 11 38.8695 11Z" fill="#5724E8"/>
<path d="M38.8695 36.2647C38.2187 36.2647 37.6878 35.7348 37.6878 35.0853C37.6878 34.4358 38.2187 33.9059 38.8695 33.9059C39.5203 33.9059 40.0512 34.4358 40.0512 35.0853C40.0512 35.7348 39.5203 36.2647 38.8695 36.2647ZM38.8695 30.4658C36.3135 30.4658 34.2412 32.5341 34.2412 35.0853C34.2412 37.6365 36.3135 39.7048 38.8695 39.7048C41.4255 39.7048 43.4978 37.6365 43.4978 35.0853C43.4978 32.5341 41.4255 30.4658 38.8695 30.4658Z" fill="#5724E8"/>
</svg>
