<svg width="70" height="70" viewBox="0 0 70 70" fill="none" xmlns="http://www.w3.org/2000/svg">
<path d="M34.6543 55.0515C31.4311 55.0107 28.208 54.9699 24.9848 54.3172C22.5065 53.823 20.2347 52.5932 18.4661 50.7881C16.6974 48.9831 15.5141 46.6867 15.0706 44.1989C13.9286 37.9539 13.9286 31.5536 15.0706 25.3087C16.1314 19.7191 19.6401 16.292 25.148 15.068C30.6559 13.844 34.9807 14.2112 39.9582 14.456C42.7734 14.6192 45.507 15.1496 48.0365 16.5368C51.3821 18.3728 53.2997 21.2695 54.1565 24.9415C55.2173 29.715 55.0541 34.611 54.8501 39.4661C54.7882 41.716 54.3893 43.944 53.6669 46.0757C53.0933 47.8491 52.1117 49.4634 50.8007 50.7884C49.4898 52.1135 47.8863 53.1125 46.119 53.7052C43.1814 54.8067 40.1214 54.9291 37.0207 55.0515H34.6543Z" fill="#EB3223"/>
<path d="M19.273 28.1237L19.8034 28.2461C19.9515 28.322 20.0779 28.4343 20.1706 28.5725L24.3321 34.978H23.4753L27.7593 28.5725C27.8474 28.4358 27.968 28.3233 28.1105 28.2449C28.253 28.1666 28.4127 28.1249 28.5753 28.1237C28.8603 28.1189 29.1368 28.2207 29.3505 28.4093C29.4549 28.5094 29.5377 28.6299 29.5938 28.7631C29.65 28.8965 29.6782 29.0399 29.6769 29.1845V39.0988C29.6751 39.2369 29.6451 39.3732 29.5891 39.4995C29.5329 39.6257 29.4518 39.7393 29.3505 39.8332C29.2499 39.9344 29.1284 40.0124 28.9945 40.0617C28.8606 40.1111 28.7175 40.1306 28.5753 40.1188C28.4335 40.1254 28.2919 40.1036 28.1587 40.0546C28.0256 40.0055 27.9037 39.9302 27.8001 39.8332C27.7042 39.7372 27.6293 39.6224 27.5801 39.496C27.531 39.3696 27.5087 39.2343 27.5145 39.0988V31.0205L28.1673 31.1837L24.6993 36.4876C24.5823 36.6182 24.4444 36.7284 24.2913 36.814C24.2349 36.8735 24.1632 36.9163 24.0841 36.9379C24.0049 36.9595 23.9214 36.9589 23.8425 36.9364C23.7637 36.9589 23.6802 36.9595 23.6011 36.9379C23.522 36.9163 23.4503 36.8735 23.3937 36.814C23.2407 36.7284 23.1029 36.6182 22.9857 36.4876L19.7218 31.3469L20.1706 30.4085V39.0988C20.1765 39.2343 20.1541 39.3696 20.1049 39.496C20.0558 39.6224 19.9809 39.7372 19.885 39.8332C19.7986 39.9303 19.6913 40.0064 19.5711 40.0559C19.451 40.1054 19.3211 40.1269 19.1914 40.1188C19.0559 40.1246 18.9206 40.1023 18.7942 40.0531C18.6678 40.0039 18.553 39.9291 18.457 39.8332C18.2924 39.6244 18.2059 39.3646 18.2122 39.0988V29.1845C18.2064 29.049 18.2287 28.9137 18.2779 28.7873C18.3271 28.6609 18.4019 28.5461 18.4978 28.4501C18.7075 28.2501 18.9834 28.1339 19.273 28.1237Z" fill="white"/>
<path d="M39.4685 30.8167C39.6041 30.8108 39.7393 30.8331 39.8657 30.8823C39.9922 30.9315 40.107 31.0064 40.2029 31.1022C40.3009 31.1966 40.3772 31.3112 40.4266 31.438C40.4759 31.5648 40.497 31.7009 40.4885 31.8366V39.099C40.4885 39.3694 40.3811 39.6289 40.1898 39.8202C39.9985 40.0115 39.7391 40.1189 39.4685 40.1189C39.198 40.1189 38.9386 40.0115 38.7473 39.8202C38.556 39.6289 38.4485 39.3694 38.4485 39.099V38.2422L38.8157 38.4054C38.7956 38.6045 38.7094 38.7912 38.5709 38.9358C38.3832 39.1694 38.1635 39.3755 37.9181 39.5478C37.6504 39.7944 37.3292 39.9759 36.9797 40.0781C36.5922 40.2408 36.1761 40.324 35.7558 40.3229C34.9916 40.3276 34.2418 40.1154 33.5934 39.7109C32.9484 39.2823 32.4277 38.6913 32.0838 37.9974C31.7079 37.2376 31.5257 36.3967 31.5534 35.5494C31.5257 34.7021 31.7079 33.8612 32.0838 33.1014C32.4277 32.4075 32.9484 31.8165 33.5934 31.3878C34.2232 31.0142 34.9419 30.8169 35.6742 30.8167C36.1319 30.7981 36.5889 30.8674 37.0205 31.0207C37.4152 31.1526 37.7869 31.3453 38.1221 31.5918C38.3922 31.7807 38.6269 32.0154 38.8157 32.2854C38.9504 32.4484 39.0354 32.6467 39.0605 32.8566L38.4485 33.1014V31.8366C38.4428 31.7012 38.4652 31.5659 38.5144 31.4396C38.5637 31.3132 38.6385 31.1984 38.7344 31.1026C38.8304 31.0067 38.9451 30.9317 39.0715 30.8825C39.1979 30.8334 39.333 30.8109 39.4685 30.8167ZM36.0006 38.4054C36.4755 38.4162 36.9433 38.2886 37.3469 38.0382C37.7243 37.7873 38.0217 37.4332 38.2037 37.0182C38.4188 36.5584 38.5301 36.057 38.5301 35.5494C38.5301 35.0418 38.4188 34.5404 38.2037 34.0806C38.0111 33.6722 37.716 33.3208 37.3469 33.0606C36.9433 32.8102 36.4755 32.6826 36.0006 32.6934C35.5392 32.6881 35.086 32.8156 34.695 33.0606C34.326 33.3208 34.0308 33.6722 33.8382 34.0806C33.6232 34.5404 33.5118 35.0418 33.5118 35.5494C33.5118 36.057 33.6232 36.5584 33.8382 37.0182C34.0203 37.4332 34.3177 37.7873 34.695 38.0382C35.086 38.2832 35.5392 38.4107 36.0006 38.4054Z" fill="white"/>
<path d="M50.1582 27.471C50.2938 27.4652 50.429 27.4876 50.5554 27.5367C50.6818 27.5859 50.7966 27.6607 50.8926 27.7566C51.0689 27.9616 51.1697 28.2208 51.1782 28.491V39.0989C51.1697 39.3691 51.0689 39.6283 50.8926 39.8333C50.7966 39.9292 50.6818 40.0041 50.5554 40.0532C50.429 40.1024 50.2938 40.1248 50.1582 40.1189C50.0219 40.1335 49.884 40.1152 49.7563 40.0655C49.6284 40.0158 49.5145 39.9362 49.4238 39.8333C49.3225 39.7394 49.2414 39.6259 49.1853 39.4996C49.1292 39.3734 49.0992 39.2371 49.0974 39.0989V38.2421L49.5054 38.4053C49.4852 38.6045 49.3991 38.7912 49.2606 38.9357C49.0729 39.1695 48.8532 39.3755 48.6078 39.5477C48.3194 39.787 47.9867 39.9672 47.6286 40.0781C47.2426 40.2452 46.8253 40.3287 46.4047 40.3229C45.6531 40.3289 44.916 40.1163 44.2831 39.7109C43.6285 39.2934 43.1053 38.6994 42.7735 37.9973C42.399 37.2356 42.2043 36.3981 42.2043 35.5493C42.2043 34.7005 42.399 33.8631 42.7735 33.1014C43.1053 32.3994 43.6285 31.8054 44.2831 31.3878C44.9112 31.0103 45.6311 30.8127 46.3639 30.8166C46.8216 30.7981 47.2786 30.8674 47.7102 31.0206C48.0923 31.1527 48.4505 31.3455 48.771 31.5918C49.0506 31.769 49.2874 32.0059 49.4646 32.2854C49.6087 32.4471 49.7072 32.6443 49.7502 32.8566L49.0974 33.1014V28.491C49.0992 28.3529 49.1292 28.2166 49.1853 28.0903C49.2414 27.9641 49.3225 27.8506 49.4238 27.7566C49.5145 27.6537 49.6284 27.5741 49.7563 27.5244C49.884 27.4747 50.0219 27.4564 50.1582 27.471ZM46.6903 38.4053C47.1523 38.4153 47.6068 38.2875 47.9958 38.0381C48.3853 37.7896 48.6965 37.436 48.8934 37.0181C49.1084 36.5584 49.2198 36.0569 49.2198 35.5493C49.2198 35.0418 49.1084 34.5404 48.8934 34.0805C48.6848 33.6704 48.3761 33.3196 47.9958 33.0606C47.6033 32.8187 47.1514 32.6906 46.6903 32.6906C46.2292 32.6906 45.7772 32.8187 45.3847 33.0606C45.0044 33.3196 44.6957 33.6704 44.4871 34.0805C44.2721 34.5404 44.1607 35.0418 44.1607 35.5493C44.1607 36.0569 44.2721 36.5584 44.4871 37.0181C44.684 37.436 44.9953 37.7896 45.3847 38.0381C45.7737 38.2875 46.2282 38.4153 46.6903 38.4053Z" fill="white"/>
</svg>
