<svg width="90" height="90" viewBox="0 0 90 90" fill="none" xmlns="http://www.w3.org/2000/svg">
<path d="M72.4767 9.74219H18.265C13.5589 9.74219 9.7417 13.5594 9.7417 18.2655V72.4772C9.7417 77.1833 13.5589 81.0005 18.265 81.0005H72.4767C77.1828 81.0005 81 77.1833 81 72.4772V18.2655C81 13.5594 77.1828 9.74219 72.4767 9.74219ZM35.1939 76.2944H32.5794V65.1304L30.0433 76.2944H27.2981L24.8535 65.1043L24.8143 76.2944H22.1998V62.9342H26.2784L28.6968 73.4838L31.1283 62.9342H35.1677V76.2944H35.1939ZM24.0692 37.8612C24.0692 26.0959 33.599 16.566 45.3643 16.566C57.1296 16.566 66.6594 26.0959 66.6594 37.8612C66.6594 47.0511 60.8291 54.8946 52.6718 57.8752L48.371 44.1883C50.7763 43.051 52.4496 40.6064 52.4496 37.7697C52.4496 33.8479 49.273 30.6713 45.3512 30.6713C41.4295 30.6713 38.2529 33.8479 38.2529 37.7697C38.2529 40.711 40.0438 43.234 42.5929 44.319L38.0829 57.9013C29.9126 54.9208 24.0692 47.0904 24.0692 37.8873V37.8612ZM53.6392 76.2813H50.0443L45.9003 70.4117L44.593 71.7582V76.2944H41.7955V62.9342H44.593V68.3593L49.7044 62.9342H53.3255L47.8611 68.4116L53.6392 76.3074V76.2813ZM67.7575 75.4054C66.7771 76.229 65.4698 76.6342 63.8227 76.6342C61.6526 76.6342 60.0839 76.0983 59.1297 75.0263C58.4499 74.2681 58.11 73.3138 58.11 72.1504H60.7899C60.7899 72.6994 60.9467 73.1569 61.2735 73.5099C61.7572 74.0459 62.5416 74.3073 63.6266 74.3073C64.424 74.3073 65.0515 74.1897 65.5221 73.9674C66.1234 73.6799 66.4241 73.2223 66.4241 72.5687C66.4241 72.085 66.2019 71.719 65.7574 71.4706C65.4567 71.3137 64.8685 71.1176 64.0057 70.9085L62.5677 70.5686C61.1428 70.2287 60.1624 69.8888 59.6395 69.5228C58.7505 68.9084 58.3192 67.9541 58.3192 66.6338C58.3192 65.601 58.6329 64.7382 59.2473 64.0323C60.1232 63.0258 61.535 62.529 63.4567 62.529C65.2868 62.529 66.6594 63.0388 67.6006 64.0716C68.3196 64.869 68.6857 65.7841 68.6857 66.8429H66.0058C65.9404 66.307 65.7836 65.9017 65.5352 65.6272C65.0907 65.1174 64.3325 64.8559 63.2606 64.8559C62.6331 64.8559 62.1102 64.9605 61.6919 65.1958C61.182 65.4834 60.9337 65.9017 60.9337 66.4638C60.9337 66.9214 61.0905 67.2743 61.4173 67.5096C61.6004 67.6403 61.9141 67.7711 62.3455 67.8626L65.6005 68.66C66.7117 68.9345 67.5222 69.2875 68.0451 69.7189C68.751 70.3071 69.104 71.1438 69.104 72.2549C69.104 73.6014 68.6595 74.6603 67.7575 75.4054Z" fill="#68D517"/>
</svg>
