<svg width="70" height="70" viewBox="0 0 70 70" fill="none" xmlns="http://www.w3.org/2000/svg">
<path d="M35.0745 57.0025C22.9654 57.0025 13.15 47.185 13.15 35.0737C13.15 22.9646 22.9654 13.1492 35.0745 13.1492C47.1835 13.1492 57 22.9646 57 35.0737C57.0011 47.185 47.1835 57.0025 35.0745 57.0025Z" fill="#00B2A9"/>
<path d="M31.5509 33.9909L33.9696 29.6113L31.7721 25.7106C31.4038 25.0482 30.644 24.6246 29.8599 24.6246H23.713C22.4688 24.6246 21.4635 25.6332 21.4635 26.8741V45.8058H26.0886V28.8184H28.6677L31.5509 33.9909ZM46.4393 24.6235H40.2913C39.5082 24.6235 38.7473 25.0482 38.3813 25.7095L27.2255 45.8047H32.1017L35.0756 40.4231L38.0506 45.8047H42.9267L37.4987 35.9971L41.4846 28.8173H44.0648V45.8047H48.6888V26.873C48.6877 25.6321 47.6835 24.6235 46.4393 24.6235Z" fill="white"/>
</svg>
