<svg width="90" height="90" viewBox="0 0 90 90" fill="none" xmlns="http://www.w3.org/2000/svg">
<path fill-rule="evenodd" clip-rule="evenodd" d="M1.15039 50.1361V49.4622L1.62466 49.4372C2.01156 49.4122 2.26117 49.3498 2.36101 49.2375C2.46086 49.1252 2.52326 48.7508 2.53574 48.0893C2.57318 46.7663 2.59815 45.3311 2.59815 43.7835C2.59815 42.9597 2.59815 42.0237 2.58567 40.9878C2.57318 40.3513 2.53574 39.9644 2.47334 39.8271C2.4359 39.7522 2.38597 39.7023 2.29861 39.6524C2.21125 39.6024 1.83683 39.565 1.15039 39.5151V38.8411C1.79938 38.8536 2.4359 38.8661 3.05993 38.8661C3.78381 38.8661 4.48272 38.8536 5.15668 38.8411C5.44373 39.5276 5.74327 40.2015 6.05529 40.863C6.27994 41.3373 7.24095 43.3716 8.97576 46.9411C10.7979 43.2718 12.071 40.5759 12.8073 38.8411C13.4438 38.8661 14.0679 38.8786 14.642 38.8786C15.3284 38.8786 15.9774 38.8661 16.6139 38.8411V39.5151C15.915 39.565 15.5156 39.6149 15.4283 39.7023C15.3409 39.7772 15.2785 40.0268 15.2535 40.4386C15.2161 41.1126 15.1911 42.3981 15.1911 44.2952C15.1911 45.2562 15.2036 46.2546 15.2286 47.3155C15.2535 48.3763 15.291 48.9754 15.3409 49.1127C15.3783 49.2001 15.4283 49.25 15.5031 49.2999C15.578 49.3374 15.9524 49.3873 16.6264 49.4497V50.1236C15.7527 50.0862 14.9789 50.0612 14.305 50.0612C13.6186 50.0612 12.6825 50.0862 11.5093 50.1236V49.4622L11.9836 49.4497C12.358 49.4372 12.5951 49.3873 12.6825 49.2874C12.7824 49.2001 12.8448 48.9629 12.8697 48.5885C12.8947 48.2141 12.9072 47.3155 12.9072 45.9177V41.0627C12.0834 42.7226 11.0226 44.8942 9.74956 47.5776C9.22537 48.6759 8.81351 49.587 8.51397 50.2734H7.96482C7.56544 49.3498 7.02878 48.1891 6.34234 46.7788L3.55916 41.0627V42.161C3.55916 45.1813 3.57164 47.2656 3.60908 48.4138C3.62156 48.8756 3.68396 49.1626 3.79629 49.2625C3.90861 49.3748 4.29551 49.4372 4.99443 49.4746V50.1486C4.44528 50.1112 3.89613 50.0862 3.35947 50.0862C2.51078 50.0737 1.7869 50.0987 1.15039 50.1361Z" fill="white"/>
<path fill-rule="evenodd" clip-rule="evenodd" d="M17.5249 49.537C17.9243 49.512 18.1739 49.4746 18.2738 49.4122C18.3362 49.3748 18.436 49.2 18.5733 48.9255C18.8354 48.3638 19.1724 47.59 19.5718 46.6041L21.8557 41.0252H22.8042L25.7122 47.9395C26.0867 48.8381 26.3238 49.3248 26.4112 49.4122C26.4985 49.4996 26.7731 49.562 27.2224 49.5869V50.1236C26.5235 50.0986 25.862 50.0737 25.238 50.0737C24.5016 50.0737 23.7902 50.0862 23.1163 50.1236V49.5869C23.628 49.562 23.9275 49.537 24.0024 49.4996C24.0773 49.4621 24.1272 49.3997 24.1272 49.2999C24.1272 49.2125 24.0398 48.9379 23.8526 48.4637L23.4283 47.3654C22.8916 47.3529 22.305 47.3529 21.6435 47.3529C21.0694 47.3529 20.5577 47.3529 20.0835 47.3654L19.7964 48.1017C19.7215 48.3014 19.6217 48.601 19.5094 49.0003C19.4844 49.0877 19.4719 49.1751 19.4719 49.25C19.4719 49.3498 19.5094 49.4247 19.5967 49.4621C19.6841 49.4996 19.9836 49.5495 20.5078 49.5869V50.1236C20.0835 50.0986 19.5593 50.0737 18.9352 50.0737C18.3362 50.0737 17.8619 50.0862 17.5125 50.1236V49.537H17.5249ZM21.7434 43.2967L20.383 46.5916C20.7824 46.6165 21.2192 46.629 21.6935 46.629C22.1927 46.629 22.667 46.6165 23.1163 46.5916L21.7434 43.2967Z" fill="white"/>
<path fill-rule="evenodd" clip-rule="evenodd" d="M27.572 50.1235V49.5868C27.9589 49.5619 28.1961 49.5244 28.2834 49.4745C28.3708 49.4246 28.5705 49.1875 28.895 48.7881L31.0666 45.905C30.3927 44.7194 29.8435 43.8083 29.4441 43.1718C29.0323 42.5353 28.7327 42.1484 28.533 42.0236C28.4332 41.9487 28.2959 41.9112 28.1461 41.9112C28.0463 41.9112 27.909 41.9237 27.7218 41.9612L27.6594 41.437L30.0682 40.9502C30.3303 41.1374 30.5424 41.3371 30.7047 41.5493C30.8669 41.7615 31.1665 42.2732 31.6158 43.0844L32.3022 44.3325L33.8748 42.036C34.1493 41.6491 34.349 41.3371 34.4863 41.1C34.7234 41.1374 34.9356 41.1499 35.1353 41.1499C35.3849 41.1499 35.672 41.1374 35.9965 41.1V41.6242C35.6345 41.6491 35.4099 41.6866 35.3225 41.7365C35.2102 41.7989 34.998 42.0236 34.711 42.4105L32.7141 45.0189L33.1384 45.7927C33.8748 47.1281 34.399 48.0268 34.686 48.4885C35.0854 49.1001 35.3225 49.4246 35.3849 49.487C35.4598 49.5369 35.6595 49.5744 35.984 49.5868V50.1235C35.4972 50.0985 35.023 50.0736 34.5862 50.0736C34.1868 50.0736 33.8124 50.0861 33.4255 50.1235C33.2632 49.8614 33.0386 49.462 32.7515 48.9378L31.4535 46.5915L30.193 48.4012C30.0432 48.6258 29.6937 49.1999 29.1321 50.111C28.7951 50.0861 28.5455 50.0611 28.3833 50.0611C28.221 50.0736 27.9465 50.0861 27.572 50.1235Z" fill="white"/>
<path fill-rule="evenodd" clip-rule="evenodd" d="M37.257 50.1235V49.7117C37.5565 49.5744 37.8311 49.4121 38.0932 49.2249C38.1681 47.7772 38.193 46.2545 38.193 44.682C38.193 43.4464 38.1805 42.2732 38.1556 41.1749C38.1431 40.3886 38.1057 39.9393 38.0433 39.827C38.0183 39.7521 37.9559 39.7022 37.881 39.6648C37.7936 39.6273 37.4067 39.5774 36.7078 39.5275V38.8535C37.7437 38.8785 38.7047 38.891 39.5909 38.891C40.452 38.891 41.2633 38.8785 42.0246 38.8535V39.5275C41.2882 39.5774 40.8514 39.6398 40.7391 39.7272C40.6642 39.7771 40.6143 39.8769 40.5893 40.0142C40.5643 40.164 40.5394 41.0251 40.5144 42.6227L40.4645 46.5416C40.4645 47.278 40.4895 48.1266 40.5269 49.0876C41.2258 49.1251 41.75 49.1376 42.087 49.1376C43.0979 49.1376 43.9591 49.0627 44.6455 48.9004C44.7828 48.4137 44.9201 47.8271 45.0574 47.1531H45.7688C45.6565 47.9145 45.5441 48.8755 45.4568 50.0112C44.9451 50.0861 44.4708 50.1235 44.0464 50.1235L41.1385 50.0861L39.8405 50.0736C39.2414 50.0611 38.3802 50.0861 37.257 50.1235Z" fill="white"/>
<path fill-rule="evenodd" clip-rule="evenodd" d="M46.6921 50.1234V49.5868C47.2787 49.5618 47.6156 49.5119 47.6905 49.437C47.7654 49.3746 47.8153 49.1999 47.8278 48.9253C47.8528 48.3637 47.8777 47.3028 47.8777 45.7552C47.8777 45.1686 47.8653 44.3074 47.8528 43.1842C47.8403 42.4229 47.8278 41.9985 47.8029 41.9236C47.7779 41.8488 47.728 41.7988 47.6656 41.7614C47.5657 41.7115 47.2412 41.674 46.6921 41.6366V41.0999C47.5782 41.1374 48.2522 41.1498 48.7139 41.1498C49.5252 41.1498 50.2491 41.1374 50.8981 41.0999V41.6366C50.3115 41.674 49.987 41.7239 49.9121 41.7739C49.8372 41.8363 49.7873 41.9611 49.7623 42.1733C49.7249 42.5851 49.6999 43.4213 49.6999 44.6819C49.6999 46.3543 49.7124 47.515 49.7249 48.1764C49.7374 48.8379 49.7748 49.2248 49.8372 49.3496C49.8622 49.3995 49.9246 49.4495 49.9994 49.4869C50.0868 49.5244 50.3739 49.5493 50.8856 49.5868V50.1234L50.1243 50.0985C49.6375 50.086 49.2132 50.0735 48.8388 50.0735L46.6921 50.1234Z" fill="white"/>
<path fill-rule="evenodd" clip-rule="evenodd" d="M51.7845 50.1234V49.5868C52.3087 49.5618 52.6207 49.5368 52.7081 49.4869C52.7705 49.4495 52.8079 49.3995 52.8453 49.3122C52.8953 49.2123 52.9202 48.8504 52.9327 48.2264C52.9577 47.1905 52.9701 46.4167 52.9701 45.8925L52.9577 43.1717C52.9577 42.4478 52.9327 42.036 52.8828 41.9236C52.8578 41.8612 52.8204 41.8113 52.758 41.7864C52.6706 41.7364 52.3461 41.6865 51.7845 41.6366V41.0999C52.4584 41.1249 52.9701 41.1374 53.2946 41.1374C53.6566 41.1374 54.0684 41.1249 54.5177 41.0999C55.5037 42.3605 56.6145 43.7333 57.8626 45.206C58.6863 46.192 59.4102 47.0033 60.0092 47.6523V45.0937C60.0092 44.1327 59.9967 43.2965 59.9718 42.5976C59.9593 42.1857 59.9219 41.9236 59.8719 41.8363C59.847 41.7863 59.7971 41.7489 59.7347 41.7239C59.6723 41.699 59.3602 41.674 58.8361 41.6366V41.0999C59.2978 41.1249 59.7721 41.1374 60.2339 41.1374C60.8704 41.1374 61.4445 41.1249 61.9562 41.0999V41.6366C61.4695 41.6615 61.1824 41.699 61.0826 41.7364C61.0202 41.7614 60.9827 41.7864 60.9453 41.8238C60.9078 41.8612 60.8829 41.9112 60.8704 41.9736C60.8454 42.0734 60.8205 42.4104 60.8205 42.9595L60.7955 45.5305L60.783 48.1265C60.783 48.8254 60.7955 49.5119 60.833 50.2108L60.7456 50.2982C60.2214 50.1983 59.8595 50.1484 59.6473 50.1109C58.549 48.8878 57.2136 47.3527 55.6535 45.5056C54.8672 44.5695 54.2307 43.7833 53.7439 43.1467V45.6429C53.7439 46.3293 53.7564 47.153 53.7814 48.1016C53.7939 48.813 53.8188 49.2123 53.8688 49.3247C53.8812 49.3746 53.9187 49.412 53.9686 49.437C54.056 49.4869 54.3555 49.5244 54.8922 49.5618V50.0985C54.1932 50.0735 53.694 50.0485 53.3945 50.0485C53.1449 50.0735 52.6082 50.086 51.7845 50.1234Z" fill="white"/>
<path fill-rule="evenodd" clip-rule="evenodd" d="M63.2165 50.1234V49.774C63.4411 49.6741 63.6533 49.5493 63.8405 49.412C63.9279 48.7381 63.9653 47.3402 63.9653 45.1936C63.9653 43.7333 63.9528 42.7598 63.9154 42.2856C63.9029 42.036 63.853 41.8737 63.7781 41.8113C63.7032 41.7489 63.3787 41.6865 62.8171 41.6366V41.0999C63.828 41.1374 64.6268 41.1623 65.2134 41.1623L68.7579 41.1249C69.1323 41.1249 69.4693 41.1374 69.7688 41.1748L69.8187 41.2497C69.7189 41.7115 69.6565 42.3355 69.6065 43.1093H69.0948C69.0699 42.4853 69.0449 42.1483 69.02 42.1108C68.995 42.0734 68.8952 42.0235 68.7329 41.986C68.371 41.9112 67.8343 41.8737 67.0979 41.8737C66.736 41.8737 66.3117 41.8862 65.8374 41.9236C65.7875 43.2466 65.75 44.3074 65.7375 45.0937C66.1993 45.1187 66.6237 45.1436 67.0355 45.1436C67.6346 45.1436 67.9965 45.1187 68.1089 45.0812C68.1838 45.0563 68.2337 44.9939 68.2586 44.894C68.2836 44.8191 68.3086 44.5446 68.346 44.0828H68.8952C68.8702 44.8067 68.8577 45.2809 68.8577 45.4931L68.8952 46.9409H68.346C68.321 46.3792 68.2836 46.0547 68.2337 45.9674C68.2087 45.9174 68.1463 45.88 68.0589 45.855C67.8468 45.8051 67.36 45.7802 66.6112 45.7802C66.3741 45.7802 66.0995 45.7926 65.775 45.8176C65.7625 46.0423 65.7625 46.2794 65.7625 46.5165C65.7625 47.7396 65.7875 48.6881 65.8249 49.3496L67.0979 49.3746C67.8218 49.3746 68.4833 49.3371 69.0824 49.2623C69.1947 48.8629 69.2945 48.4136 69.3944 47.9143H69.931C69.8312 48.6757 69.7688 49.3995 69.7563 50.086C69.3694 50.1359 68.995 50.1484 68.6331 50.1484C68.3959 50.1484 67.9341 50.1359 67.2352 50.1234C66.5862 50.1109 65.9872 50.0985 65.4505 50.0985C64.7641 50.0735 64.0152 50.086 63.2165 50.1234Z" fill="white"/>
<path fill-rule="evenodd" clip-rule="evenodd" d="M70.7924 49.537C71.1918 49.512 71.4414 49.4746 71.5413 49.4122C71.6037 49.3748 71.7035 49.2 71.8408 48.9255C72.1029 48.3638 72.4399 47.59 72.8393 46.6041L75.1232 41.0252H76.0718L78.9797 47.9395C79.3542 48.8381 79.5913 49.3248 79.6787 49.4122C79.766 49.4996 80.0406 49.562 80.4899 49.5869V50.1236C79.791 50.0986 79.1295 50.0737 78.5055 50.0737C77.7691 50.0737 77.0577 50.0862 76.3838 50.1236V49.5869C76.8955 49.562 77.195 49.537 77.2699 49.4996C77.3448 49.4621 77.3947 49.3997 77.3947 49.2999C77.3947 49.2125 77.3073 48.9379 77.1201 48.4637L76.6958 47.3654C76.1591 47.3529 75.5725 47.3529 74.9111 47.3529C74.337 47.3529 73.8252 47.3529 73.351 47.3654L73.0639 48.1017C72.989 48.3014 72.8892 48.601 72.7769 49.0003C72.7519 49.0877 72.7394 49.1751 72.7394 49.25C72.7394 49.3498 72.7769 49.4247 72.8642 49.4621C72.9516 49.4996 73.2511 49.5495 73.7753 49.5869V50.1236C73.351 50.0986 72.8268 50.0737 72.2028 50.0737C71.6037 50.0737 71.1294 50.0862 70.78 50.1236V49.537H70.7924ZM75.0109 43.2967L73.6505 46.5916C74.0499 46.6165 74.4867 46.629 74.961 46.629C75.4602 46.629 75.9345 46.6165 76.3838 46.5916L75.0109 43.2967Z" fill="white"/>
<path fill-rule="evenodd" clip-rule="evenodd" d="M81.1014 50.1236V49.5869C81.6006 49.5495 81.8877 49.4995 81.9625 49.4621C82.0125 49.4371 82.0499 49.3997 82.0624 49.3373C82.1123 49.2374 82.1373 48.888 82.1498 48.2889C82.1747 47.3654 82.1872 46.654 82.1872 46.1173C82.1872 45.4059 82.1747 44.4948 82.1622 43.3965C82.1498 42.5728 82.0998 42.0736 82.0374 41.8863C82.0249 41.8364 81.9875 41.7865 81.9376 41.7615C81.8752 41.7116 81.5881 41.6742 81.1014 41.6243V41.0876C81.9875 41.125 82.5616 41.1375 82.8237 41.1375L86.0437 41.0751C86.7426 41.0751 87.2543 41.1375 87.5664 41.2748C87.8909 41.4121 88.1405 41.6243 88.3277 41.9238C88.5149 42.2233 88.6147 42.5728 88.6147 42.9722C88.6147 43.4839 88.465 43.9332 88.1654 44.3326C87.8659 44.7195 87.3542 45.0689 86.6178 45.3684L87.9907 47.4402L89.064 49.0253C89.2637 49.2874 89.4135 49.4371 89.5133 49.4871C89.6132 49.537 89.7754 49.5744 90.0001 49.5744V50.0736L89.6257 50.0861C88.5399 50.0986 87.8409 50.1111 87.5164 50.1236C87.142 49.5245 86.5804 48.6633 85.844 47.5276L84.5211 45.5182C84.5585 45.4433 84.596 45.3684 84.6209 45.2811C84.7957 45.306 84.9205 45.3185 84.9953 45.3185C85.3947 45.3185 85.7816 45.1563 86.1685 44.8318C86.5554 44.5073 86.7426 44.058 86.7426 43.4589C86.7426 42.9347 86.5929 42.5353 86.2808 42.2483C85.9813 41.9612 85.5195 41.8115 84.908 41.8115C84.7208 41.8115 84.4587 41.8239 84.1217 41.8614L84.0718 43.7584L84.0094 46.1672C84.0094 46.7164 84.0343 47.4028 84.0718 48.264C84.1092 48.9005 84.1467 49.2624 84.1716 49.3373C84.1966 49.3997 84.2465 49.4371 84.3089 49.4746C84.3963 49.5245 84.6958 49.5619 85.1826 49.5869V50.1236C84.4088 50.0986 83.7223 50.0736 83.1357 50.0736C82.5117 50.0736 81.8253 50.0861 81.1014 50.1236Z" fill="white"/>
<path d="M85.4322 52.4824C83.4602 55.4153 81.2761 57.7991 78.9922 59.6213C75.1981 62.6292 71.0794 64.1393 66.9359 64.1393C62.8048 64.1393 58.6737 62.6292 54.8796 59.6213C52.5831 57.7991 50.4115 55.4153 48.4395 52.4824H50.9731C52.6081 54.7039 54.3554 56.5511 56.1775 57.9988C59.5848 60.7071 63.2666 62.0675 66.9359 62.0675C70.6052 62.0675 74.287 60.7071 77.6942 57.9988C79.5164 56.5511 81.2637 54.7039 82.8986 52.4824H85.4322Z" fill="#ED1C24"/>
<path d="M5.09433 36.7942C7.09123 33.7989 9.30031 31.3651 11.6342 29.518C15.4283 26.5102 19.5469 25 23.6905 25C27.8216 25 31.9527 26.5102 35.7468 29.518C38.0807 31.3651 40.2773 33.7989 42.2867 36.7942H39.7656C38.1056 34.5103 36.3209 32.6257 34.4613 31.1405C31.0541 28.4322 27.3723 27.0718 23.703 27.0718C20.0337 27.0718 16.3519 28.4322 12.9447 31.1405C11.085 32.6257 9.30031 34.5103 7.64038 36.7942H5.09433Z" fill="#ED1C24"/>
</svg>
