<svg width="90" height="90" viewBox="0 0 90 90" fill="none" xmlns="http://www.w3.org/2000/svg">
<path d="M78.351 51.5007L77.3466 46.0496L72.8993 21.975C72.7281 21.0486 72.1961 20.228 71.4203 19.6936C70.6444 19.1592 69.6882 18.9546 68.7616 19.1249L64.0516 20.0007L50.0095 22.6017H49.9911L39.2386 24.6032H39.2291C38.3029 24.7751 37.4828 25.3079 36.9494 26.0843C36.4159 26.8608 36.2127 27.8173 36.3845 28.7436L41.8464 58.2686V58.2788C41.9315 58.7369 42.106 59.1737 42.36 59.5643C42.6139 59.955 42.9423 60.2917 43.3264 60.5555C43.7105 60.8192 44.1428 61.0046 44.5985 61.1013C45.0543 61.1979 45.5247 61.2038 45.9827 61.1187L75.5077 55.6451C76.4343 55.4725 77.2544 54.9388 77.7876 54.1616C78.3208 53.3844 78.5234 52.4273 78.351 51.5007Z" fill="#F39222"/>
<path d="M66.5573 67.2939L65.5528 61.8428L61.1055 37.7682C60.9343 36.8418 60.4024 36.0212 59.6266 35.4868C58.8507 34.9524 57.8944 34.7478 56.9679 34.9181L52.2579 35.7939L38.2157 38.395H38.1973L27.4449 40.3964H27.4354C26.5091 40.5683 25.6891 41.1011 25.1556 41.8775C24.6222 42.654 24.419 43.6105 24.5907 44.5368L30.0527 74.0618V74.072C30.1378 74.5301 30.3123 74.9669 30.5662 75.3575C30.8202 75.7482 31.1486 76.085 31.5326 76.3487C31.9167 76.6124 32.349 76.7978 32.8048 76.8945C33.2606 76.9911 33.7309 76.997 34.189 76.9119L63.714 71.4383C64.6406 71.2657 65.4606 70.7321 65.9938 69.9549C66.527 69.1777 66.7297 68.2205 66.5573 67.2939Z" fill="#0A72B9"/>
<path d="M49.7887 22.5459L39.2397 24.5038C39.0286 24.5428 38.8212 24.5995 38.6197 24.6733C38.6169 24.6749 38.6137 24.6758 38.6105 24.6758C38.6073 24.6758 38.6041 24.6749 38.6013 24.6733C38.1264 24.8618 37.6964 25.1479 37.3389 25.5131C37.1985 25.6529 37.072 25.8061 36.9612 25.9704C36.6934 26.3533 36.5048 26.7859 36.4067 27.2428C36.3085 27.6996 36.3027 28.1715 36.3896 28.6306L36.506 29.2506L38.2121 38.3929H38.1937L27.4412 40.3875C26.515 40.5597 25.6951 41.0928 25.1618 41.8696C24.6286 42.6463 24.4258 43.603 24.598 44.5293L26.3674 54.1752L21.6696 55.0422C21.2107 55.1274 20.7394 55.1214 20.2828 55.0245C19.8261 54.9276 19.3931 54.7417 19.0083 54.4775C18.6235 54.2132 18.2945 53.8757 18.0402 53.4843C17.7858 53.0928 17.611 52.6552 17.5258 52.1962V52.1921L12.0611 22.6855C11.9747 22.2265 11.9796 21.7551 12.0755 21.298C12.1713 20.841 12.3563 20.4073 12.6199 20.0218C12.8834 19.6363 13.2203 19.3065 13.6114 19.0512C14.0025 18.796 14.44 18.6203 14.899 18.5342H14.9112L44.4362 13.06C44.8949 12.9746 45.3659 12.9804 45.8223 13.0771C46.2786 13.1737 46.7115 13.3594 47.0962 13.6233C47.4809 13.8873 47.8098 14.2244 48.0641 14.6155C48.3185 15.0066 48.4933 15.4439 48.5787 15.9026L49.7887 22.5459Z" fill="#76B947"/>
<path d="M52.254 35.7919L38.2118 38.3901L36.5057 29.2567L36.3894 28.6367C36.3025 28.1776 36.3083 27.7057 36.4064 27.2488C36.5046 26.792 36.6932 26.3594 36.961 25.9765C37.0718 25.8121 37.1983 25.659 37.3387 25.5192C37.6961 25.154 38.1262 24.8679 38.6011 24.6794C38.6039 24.681 38.6071 24.6819 38.6103 24.6819C38.6135 24.6819 38.6167 24.681 38.6195 24.6794C38.821 24.6056 39.0284 24.5489 39.2394 24.5099L49.7877 22.5541L52.254 35.7919Z" fill="#7D953F"/>
</svg>
