<svg width="70" height="70" viewBox="0 0 70 70" fill="none" xmlns="http://www.w3.org/2000/svg">
<g clip-path="url(#clip0_863_6299)">
<path fill-rule="evenodd" clip-rule="evenodd" d="M58.5551 41.4856C58.1544 42.1576 57.1819 42.7076 56.392 42.7076H3.91769C3.12863 42.7076 2.80944 42.1576 3.20964 41.4856L11.1116 28.2068C11.5118 27.5348 12.4848 26.9844 13.2747 26.9844H65.749C66.5385 26.9844 66.8572 27.5344 66.4574 28.2068L58.5551 41.4856Z" fill="#EC9430"/>
<path fill-rule="evenodd" clip-rule="evenodd" d="M50.4378 37.2436H51.8843V32.1632H50.4378V37.2436ZM53.9643 34.7092H53.961L53.9643 34.6976L55.4488 32.1632H54.0027L52.5174 34.6976L52.5259 34.7092H52.5174L54.0027 37.2436H55.4488L53.9643 34.7092ZM38.0076 32.1636H36.8463L33.8756 37.2436H35.3386L37.4539 33.6264V37.2436H38.9166V32.1636H38.0076ZM22.1631 35.126H24.4396L24.933 34.2928H22.6233L22.1631 35.126Z" fill="#FFFFFE"/>
<path fill-rule="evenodd" clip-rule="evenodd" d="M21.6978 34.09H21.6994C21.6994 33.4484 21.8938 33.2072 22.5257 33.2072H24.5843L25.1996 32.154H22.3094C21.0793 32.154 20.2659 32.58 20.2659 34.1196V37.2532H24.7119L25.3276 36.2004H21.6978V34.09ZM46.689 35.126H48.9667L49.4596 34.2928H47.1495L46.689 35.126Z" fill="#FFFFFE"/>
<path fill-rule="evenodd" clip-rule="evenodd" d="M46.274 34.09H46.2756C46.2756 33.4484 46.47 33.2072 47.1027 33.2072H49.1604L49.7761 32.154H46.8868C45.6562 32.154 44.8433 32.58 44.8433 34.1196V37.2532H49.2888L49.9045 36.2004H46.274V34.09ZM39.5556 33.2204H41.3549V37.2436H42.7706V33.2204H44.102L44.7193 32.1636H40.1737L39.5556 33.2204ZM28.3086 36.202H27.5236V33.2048H28.3086C29.4521 33.2048 29.8106 33.4036 29.8106 34.6648C29.8106 35.9264 29.4521 36.2024 28.3086 36.2024V36.202ZM28.6164 32.154H26.1366V37.2532H28.6829C30.4716 37.2532 31.2761 36.572 31.2761 34.6636C31.2761 32.8588 30.4789 32.154 28.6164 32.154ZM32.0834 37.2436H33.5299V32.1636H32.0834V37.2436ZM16.2393 34.7452V32.1636L14.5194 32.1688L11.5527 37.238H12.9713L14.7928 34.1264V37.2172L14.7803 37.238H14.7928V37.2436H16.2393L18.0204 34.1264V37.2436H19.4669V32.1636L17.747 32.1688L16.2393 34.7452Z" fill="#FFFFFE"/>
</g>
<defs>
<clipPath id="clip0_863_6299">
<rect width="64" height="16" fill="white" transform="translate(2.99979 26.75)"/>
</clipPath>
</defs>
</svg>
