<svg width="70" height="70" viewBox="0 0 70 70" fill="none" xmlns="http://www.w3.org/2000/svg">
<path d="M25.7295 29.9692C25.7389 33.0732 25.7554 33.2138 26.0527 32.7632C26.2232 32.5037 26.7104 31.9473 27.1308 31.5269C27.5532 31.1064 28.3656 30.5317 28.9394 30.2495C29.5133 29.9674 30.4923 29.6423 31.1172 29.5249C31.9561 29.3696 32.5754 29.3697 33.4844 29.5269C34.2684 29.6632 35.1589 29.998 35.9316 30.4468C36.6987 30.8919 37.4358 31.5208 38.6933 33.1382L38.7881 26.7026H42.0078V36.7407H48.8252V26.7026H60V29.9224H52.2344V31.6265H60V34.8462H52.2344V36.7407H60V39.9604H38.7881V38.2554H28.75C28.75 38.2554 28.9547 38.8664 29.1836 39.2026C29.7625 40.053 30.928 40.7368 31.7803 40.7368C33.5666 40.7368 34.6063 40.1582 34.6211 40.1499H38.5986L38.2666 40.7388C38.0846 41.0627 37.5507 41.6649 37.083 42.0776C36.6152 42.4886 35.7632 43.044 35.1894 43.3091C34.5702 43.595 33.6498 43.8314 32.917 43.8901C32.2068 43.9488 31.2439 43.8878 30.6435 43.7495C30.0697 43.615 29.2817 43.3488 28.8916 43.1538C28.5015 42.9606 27.7897 42.4397 27.3105 41.9966C26.8333 41.5534 26.2784 40.9148 25.7197 39.9604H22.5L22.4883 38.2085C22.4826 37.2445 22.4826 35.4544 22.4883 34.231C22.4958 33.0075 22.4351 32.0054 22.3574 32.0054C22.2777 32.0122 21.6154 33.7866 19.5644 39.8657L16.1553 39.9731L13.4414 31.9106L13.4092 39.9604H9.99998V26.7026L15.208 26.7065L16.4863 30.4927C17.1889 32.574 17.786 34.2818 17.8125 34.2837C17.839 34.2875 18.4568 32.5833 20.5117 26.7026H25.7197L25.7295 29.9692ZM32.1592 32.7749C31.5304 32.7787 30.8537 32.9172 30.4541 33.1255C30.0886 33.315 29.5564 33.7374 29.2705 34.0649C28.9846 34.3907 28.75 34.8472 28.75 34.8472L35.7519 34.894C35.7499 34.8163 35.5511 34.4964 35.3144 34.1841C35.0759 33.8717 34.5021 33.4249 34.04 33.1919C33.4681 32.904 32.8693 32.7711 32.1592 32.7749Z" fill="#E50B1A"/>
</svg>
