<svg width="70" height="70" viewBox="0 0 70 70" fill="none" xmlns="http://www.w3.org/2000/svg">
<path d="M44.5186 33.3065L38.8911 27.6788C38.6154 27.3955 38.2869 27.1696 37.924 27.0145C37.561 26.8594 37.1712 26.778 36.7758 26.775C36.3813 26.772 35.9896 26.8476 35.6249 26.9973C35.2592 27.147 34.9278 27.3679 34.6484 27.6471C34.369 27.9262 34.1481 28.2581 33.9987 28.6234C33.8493 28.9887 33.7732 29.3801 33.7759 29.7749C33.7797 30.1697 33.8604 30.5599 34.0154 30.923C34.1713 31.286 34.3969 31.6146 34.68 31.8895L40.3075 37.5173C41.1392 38.3492 41.7044 39.4092 41.9327 40.5627C42.1611 41.7164 42.0413 42.9118 41.5893 43.9974C41.1382 45.0831 40.3743 46.0104 39.3951 46.6617C38.4159 47.3129 37.2659 47.6589 36.0899 47.6558H22.3932V53.6115H36.0899C38.4428 53.6143 40.7447 52.9189 42.7031 51.6132C44.6616 50.3075 46.1884 48.4503 47.0906 46.2764C47.9937 44.1026 48.2304 41.7099 47.7728 39.4011C47.3152 37.0924 46.1819 34.9714 44.5186 33.3065Z" fill="#00A19B"/>
<path d="M31.5027 42.6155C32.0606 43.1742 32.8189 43.4882 33.6088 43.4885C34.3986 43.4886 35.156 43.1751 35.7148 42.6167C36.2735 42.0583 36.5873 41.3008 36.5873 40.511C36.5882 39.7211 36.2745 38.9634 35.7157 38.4048L30.0984 32.777C29.2677 31.9451 28.7015 30.8854 28.4741 29.7321C28.2458 28.5787 28.3646 27.3835 28.8157 26.2979C29.2677 25.2123 30.0306 24.2851 31.0099 23.6336C31.9882 22.9822 33.1382 22.6358 34.3142 22.6383H36.6968V16.6827H34.3142C31.9603 16.6799 29.6584 17.3753 27.7 18.681C25.742 19.9867 24.215 21.844 23.3126 24.0178C22.4102 26.1917 22.1729 28.5843 22.6308 30.893C23.0887 33.2018 24.2212 35.3228 25.885 36.9877L31.5027 42.6155Z" fill="#00A19B"/>
</svg>
