<svg width="90" height="90" viewBox="0 0 90 90" fill="none" xmlns="http://www.w3.org/2000/svg">
<path d="M59.2125 33.9446L60.1519 34.7587C65.0993 38.7041 71.1739 41.2717 78 41.9606V47.7221C71.8001 48.2231 66.1639 50.4776 61.3418 53.9219C60.9034 54.235 60.465 54.6108 60.0267 54.9865L59.4004 55.6128L55.2672 51.6048C55.2672 51.6048 56.6449 50.227 57.8974 49.3503C59.1499 48.4109 60.465 47.6594 60.465 47.6594H48.3785V59.3703C49.3804 57.8673 51.0713 55.6128 52.4491 54.235L56.4571 58.1804C51.8228 63.1904 48.9421 69.8286 48.3158 76.4669H42.4291C41.8028 69.8286 39.11 63.8166 34.9767 58.9319L34.3505 58.243L38.4211 54.235L39.0473 54.9239C40.2998 56.3017 41.4271 57.742 42.4291 59.3077V47.5968H30.4051C31.9707 48.5988 33.4737 49.6634 34.9141 50.8533V50.9159L35.603 51.4796L31.4697 55.5502L30.7809 54.8613C25.8335 50.8533 19.6336 48.1604 12.8075 47.5968V41.8353C19.571 41.2091 26.5224 38.2657 31.3445 33.9446L35.4777 38.0152C34.0374 39.2051 31.9081 40.8959 30.3425 41.8979H42.3665V30.1245C41.3645 32.0032 38.3585 35.2597 38.3585 35.2597L34.1626 31.1891L34.8515 30.5002C38.9847 25.6781 41.7402 19.6661 42.3665 13.0279H48.2532C48.8795 19.6035 51.5723 25.6155 55.7056 30.4376L56.4571 31.2517L52.3238 35.1971L51.6349 34.5082C50.3824 33.1305 49.2552 31.6901 48.2532 30.1245V41.8979H60.3398C58.7742 40.8959 57.2712 39.8313 55.8308 38.6415L55.1419 37.9526L59.2125 33.9446Z" fill="#004277"/>
</svg>
