<svg width="90" height="90" viewBox="0 0 90 90" fill="none" xmlns="http://www.w3.org/2000/svg">
<path d="M63.8701 60.1063H36.7276C32.4943 60.1063 29.0293 56.6412 29.0293 52.408V37.1351C29.0293 32.9018 32.4943 29.4368 36.7276 29.4368H63.8701C65.5975 29.4368 67 28.0343 67 26.307C67 24.5796 65.5975 23.1771 63.8701 23.1771H37.336C29.0602 23.1771 22.2901 29.9473 22.2901 38.2231V51.3097C22.2901 59.5855 29.0602 66.3556 37.336 66.3556H63.865C65.5923 66.3556 66.9948 64.9531 66.9948 63.2258C66.9948 61.4984 65.5923 60.0959 63.865 60.0959L63.8701 60.1063Z" fill="#1C296B"/>
</svg>
