<svg width="90" height="90" viewBox="0 0 90 90" fill="none" xmlns="http://www.w3.org/2000/svg">
<path d="M16.1822 35.2485H23.8692L23.6771 46.7407L29.7498 35.2485H37.3985L32.2674 54.1203H27.5014L31.4026 39.7263L23.8116 54.1203H19.4876L19.7374 39.7263L15.817 54.1203H11.051L16.1822 35.2485Z" fill="white"/>
<path d="M51.7517 46.3954L56.4408 47.9329C55.7105 49.3742 54.8457 50.5657 53.8464 51.5266C52.8471 52.4875 51.7324 53.2177 50.5025 53.6982C49.2726 54.1978 47.812 54.4477 46.1209 54.4477C44.0646 54.4477 42.4695 54.1402 41.3165 53.5444C40.1826 52.9487 39.3563 51.8917 38.8182 50.3927C38.2801 48.913 38.3185 46.972 38.9527 44.6466C39.8175 41.5142 41.2972 39.1119 43.4112 37.44C45.5251 35.7681 48.1195 34.9225 51.1559 34.9225C53.5389 34.9225 55.2685 35.4029 56.3831 36.3638C57.4785 37.3247 58.0743 38.8045 58.2088 40.8031L52.751 41.9369C52.7318 41.3796 52.6549 40.9568 52.5204 40.6878C52.309 40.2458 52.0015 39.8999 51.5979 39.6693C51.1944 39.4194 50.6947 39.3041 50.1182 39.3041C48.7921 39.3041 47.6199 39.8422 46.6398 40.8992C45.8903 41.6871 45.2753 42.917 44.8333 44.6082C44.2568 46.7029 44.1799 48.125 44.6027 48.913C45.0447 49.6817 45.8326 50.066 46.9665 50.066C48.1003 50.066 49.0228 49.7585 49.753 49.1244C50.5025 48.4902 51.1559 47.5869 51.7517 46.3954Z" fill="white"/>
<path d="M72.5621 46.3954L77.2512 47.9329C76.5209 49.3742 75.6561 50.5657 74.6568 51.5266C73.6382 52.4875 72.5428 53.2177 71.3129 53.6982C70.083 54.1978 68.6224 54.4477 66.9313 54.4477C64.875 54.4477 63.2799 54.1402 62.1269 53.5444C60.993 52.9487 60.1666 51.8917 59.6286 50.3927C59.0905 48.913 59.1289 46.972 59.7631 44.6466C60.6279 41.5142 62.1076 39.1119 64.2216 37.44C66.3355 35.7681 68.9299 34.9225 71.9663 34.9225C74.3301 34.9225 76.0789 35.4029 77.1743 36.3638C78.2697 37.3247 78.8847 38.8045 79 40.8031L73.5614 41.9369C73.5229 41.3796 73.4653 40.9568 73.3308 40.6878C73.1194 40.2458 72.8119 39.8999 72.4083 39.6693C72.0047 39.4194 71.5051 39.3041 70.9286 39.3041C69.6025 39.3041 68.4303 39.8422 67.4502 40.8992C66.7007 41.6871 66.0857 42.917 65.6245 44.6082C65.0672 46.7029 64.9903 48.125 65.4131 48.913C65.8359 49.6817 66.6238 50.066 67.7769 50.066C68.8915 50.066 69.8331 49.7585 70.5634 49.1244C71.3129 48.4902 71.9663 47.5869 72.5621 46.3954Z" fill="white"/>
</svg>
