<svg width="70" height="70" viewBox="0 0 70 70" fill="none" xmlns="http://www.w3.org/2000/svg">
<path d="M43.4437 37.6266C44.7411 37.6266 45.7021 36.5084 45.7021 35.1821C45.7021 33.8559 44.669 32.7377 43.4437 32.7377C42.1464 32.7377 41.1853 33.8559 41.1853 35.1821C41.1853 36.5084 42.2425 37.6266 43.4437 37.6266ZM26.8181 32.7637C25.5207 32.7637 24.5597 33.8819 24.5597 35.2081C24.5597 36.5344 25.5928 37.6526 26.8181 37.6526C28.0434 37.6526 29.0765 36.5344 29.0765 35.2081C29.0765 33.8819 28.0194 32.7637 26.8181 32.7637ZM26.8181 27.8748C23.0941 27.8748 20.0669 31.1514 20.0669 35.1821C20.0669 39.2128 23.0941 42.4894 26.8181 42.4894H43.732C47.456 42.4894 50.4832 39.2128 50.4832 35.1821C50.4832 31.1514 47.456 27.8748 43.732 27.8748H26.8181ZM43.708 47.4043H26.8181C20.5714 47.4043 15.5501 41.9693 15.5501 35.2081C15.5501 28.4469 20.5714 23.012 26.8181 23.012H43.732C49.9787 23.012 55 28.4469 55 35.2081C55 41.9693 49.8586 47.4043 43.708 47.4043Z" fill="white"/>
</svg>
