<svg width="70" height="70" viewBox="0 0 70 70" fill="none" xmlns="http://www.w3.org/2000/svg">
<path d="M45.0395 38.7371L45.0383 45.3276H51.0547V33.2949C49.3118 35.0929 47.3015 36.9234 45.0395 38.7371Z" fill="white"/>
<path d="M51.0548 33.2949C57.6801 26.4598 60.424 20.1066 58.2879 17.0486C56.0583 13.8552 49.1308 15.1487 40.1512 19.8932C39.7496 20.0898 39.3936 20.2984 39.1311 20.4794C38.6971 20.7803 38.9501 20.9996 39.2701 20.8833C39.5986 20.7647 39.9726 20.6208 40.3945 20.4134C47.1254 17.2212 52.3758 16.6483 54.428 18.8767C57.5555 22.2703 51.1507 33.392 40.0601 41.6189C38.5797 42.7169 36.2949 44.3244 34.8073 45.2174C34.7066 45.2798 34.6071 45.3409 34.51 45.4032C34.1168 45.661 33.7668 45.9007 33.4911 46.1165C33.2226 46.3251 33.2741 46.6571 33.7584 46.4485C34.0533 46.3227 34.4117 46.1321 34.7929 45.8983C34.8792 45.8456 34.9643 45.7976 35.0542 45.7425C36.7264 44.7272 39.209 43.013 40.9052 41.8286C42.364 40.8097 43.7426 39.7752 45.0396 38.7371C47.3016 36.9235 49.3118 35.0918 51.0548 33.2949Z" fill="white"/>
<path d="M21.5219 53.9117H27.5383V47.6772C29.1829 46.705 30.848 45.6394 32.4842 44.5233C32.8522 44.2704 33.1783 44.0187 33.4144 43.8029C33.804 43.4469 33.5223 43.2635 33.2214 43.4217C32.9122 43.5847 32.5466 43.8053 32.151 44.057C22.8573 50.0015 16.5832 51.8152 14.266 48.6697C12.2534 45.939 15.5523 40.6599 21.5219 34.6974V48.5367C23.2157 47.9613 25.2176 47.0443 27.5371 45.7544L27.5359 32.9149L28.8593 35.7307C30.3097 38.8402 32.9421 40.6994 36.289 40.6994C39.6346 40.6994 42.267 38.8402 43.7175 35.7307L45.0409 32.9149L45.0397 36.191C47.1926 34.1028 49.0302 32.0183 50.4243 30.002C50.5981 29.7527 50.5826 29.5429 50.4879 29.3127C49.56 27.3768 47.5857 26.0426 45.2914 26.0426C43.0222 26.0426 41.0515 27.3588 40.1069 29.2624L37.5896 34.6027C37.3295 35.123 36.85 35.4118 36.289 35.4118C35.7292 35.4118 35.2473 35.123 34.9872 34.6027L32.4698 29.2624C31.9904 28.295 31.2447 27.4799 30.3301 26.9117C32.1714 25.4505 33.9611 24.145 35.7232 23.0758C36.1236 22.8324 36.452 22.5891 36.7289 22.3769C37.001 22.1695 36.9507 21.8375 36.4652 22.0413C36.1703 22.1648 35.7879 22.353 35.4055 22.5855C33.605 23.6763 31.765 24.7924 30.0053 25.9947C29.7919 26.1397 29.5809 26.286 29.3699 26.4322C28.7226 26.1805 28.0202 26.0426 27.2854 26.0426C24.0968 26.0426 21.5219 28.6187 21.5219 31.8073V32.6008C13.023 40.1792 8.56131 47.6832 10.8928 51.024C12.6046 53.4742 16.6635 52.9084 21.5219 50.7975V53.9117Z" fill="white"/>
</svg>
