<svg width="70" height="70" viewBox="0 0 70 70" fill="none" xmlns="http://www.w3.org/2000/svg">
<path d="M40.9059 16.7603C39.0839 16.2369 37.1528 15.9535 35.1499 15.9535C24.2625 15.9535 15.4357 24.2742 15.4357 34.5395C15.4357 44.8041 24.2625 53.1249 35.1499 53.1249C45.1548 53.1249 53.4127 46.0971 54.687 36.9939L40.9059 16.7603Z" fill="white"/>
<path d="M43.3539 17.6695C40.8167 16.4721 38.4707 15.8783 35.4513 15.825C24.5671 15.6358 15.5967 23.8649 15.4158 34.2052C15.3851 35.9958 15.6191 37.7319 16.0848 39.3808L21.7112 31.493L25.5208 37.4555C25.5208 37.4555 26.6656 38.7536 25.7972 40.0664C25.7433 40.1485 20.6286 47.2135 20.6286 47.2135C24.1611 50.9147 29.1309 53.1741 34.7984 53.2729C40.2966 53.3697 45.2048 51.3642 48.8393 47.9773L36.8719 29.0873C36.8719 29.0873 38.7593 26.4386 40.2351 24.3395C41.8602 22.0294 43.3231 23.6423 43.8112 24.4062C47.3199 29.9076 53.9039 40.3415 53.9039 40.3415L53.9071 40.2812C54.5818 38.7298 54.9275 38.2597 55 36.0253L43.3539 17.6695ZM40.5147 40.2889C40.5147 40.2889 37.3291 44.9348 37.0027 45.378C35.0537 48.0261 33.6203 44.9688 33.6203 44.9688L23.4833 29.0341C23.4833 29.0341 25.3701 26.386 26.8471 24.2869C28.4716 21.9761 29.9345 23.5897 30.4225 24.3536C33.9313 29.8543 40.5147 40.2889 40.5147 40.2889Z" fill="#EE2223"/>
<path d="M47 19.3598C47 18.2249 47.9197 17.3911 49.0054 17.3911C50.0819 17.3911 51 18.2249 51 19.3598C51 20.5022 50.0819 21.3377 49.0054 21.3377C47.9197 21.3377 47 20.5022 47 19.3598ZM49.0054 21.0083C49.8985 21.0083 50.6031 20.3079 50.6031 19.3598C50.6031 18.4251 49.8985 17.7196 49.0054 17.7196C48.1024 17.7196 47.3969 18.4251 47.3969 19.3598C47.3969 20.3079 48.1024 21.0083 49.0054 21.0083ZM48.5885 20.5022H48.2433V18.2249H49.1097C49.6475 18.2249 49.9152 18.4251 49.9152 18.8737C49.9152 19.2814 49.6583 19.459 49.3248 19.5007L49.9719 20.5022H49.5849L48.9846 19.5149H48.5885V20.5022ZM49.0013 19.2239C49.2931 19.2239 49.5533 19.2022 49.5533 18.852C49.5533 18.5718 49.2981 18.5176 49.0571 18.5176H48.5885V19.2239H49.0013Z" fill="white"/>
</svg>
