<svg width="70" height="70" viewBox="0 0 70 70" fill="none" xmlns="http://www.w3.org/2000/svg">
<path d="M48.4083 34.1078H47.392H41.8632V29.1583C43.3267 28.9246 44.4447 27.6643 44.4447 26.1297C44.4447 24.4324 43.0726 23.0604 41.3754 23.0604C39.6781 23.0604 38.3061 24.4324 38.3061 26.1297C38.3061 27.644 39.4037 28.8941 40.8367 29.1482V34.0976H35.3384H34.312H28.7832V29.1482C30.2467 28.9144 31.3646 27.6542 31.3646 26.1195C31.3646 24.4223 29.9926 23.0502 28.2953 23.0502C26.5981 23.0502 25.226 24.4223 25.226 26.1195C25.226 27.6338 26.3237 28.8839 27.7567 29.138V34.0875H21.2014L21.1913 38.1121L21.2014 40.0635C19.7684 40.3175 18.6708 41.5676 18.6708 43.0819C18.6708 44.7792 20.0428 46.1512 21.7401 46.1512C23.4373 46.1512 24.8094 44.7792 24.8094 43.0819C24.8094 41.5473 23.6914 40.287 22.2279 40.0533V35.1038H27.7567H28.7832H34.312V40.0533C32.8688 40.3074 31.7813 41.5574 31.7813 43.0718C31.7813 44.769 33.1534 46.1411 34.8506 46.1411C36.5479 46.1411 37.9199 44.769 37.9199 43.0718C37.9199 41.5371 36.8019 40.2769 35.3384 40.0431V35.0936H40.8367H41.8632H47.392V40.0431C45.9488 40.2972 44.8614 41.5473 44.8614 43.0616C44.8614 44.7589 46.2334 46.1309 47.9307 46.1309C49.6279 46.1309 51 44.7589 51 43.0616C51 41.527 49.882 40.2667 48.4185 40.033V35.0835V34.1078H48.4083Z" fill="white"/>
</svg>
