<svg width="91" height="90" viewBox="0 0 91 90" fill="none" xmlns="http://www.w3.org/2000/svg">
<path d="M73.4526 30.1451C73.3788 29.9772 73.3015 29.816 73.2142 29.6716C73.1269 29.5273 73.0228 29.3829 72.9053 29.2419C72.2976 28.4964 71.3071 27.7645 70.0412 27.0694L59.8574 21.489L49.6736 15.9018C48.4078 15.2068 47.246 14.7602 46.2622 14.6326C46.0742 14.6091 45.8895 14.5957 45.7149 14.5957C44.627 14.5957 43.2638 15.0758 41.7529 15.9018L31.5691 21.4856L21.3853 27.0661C20.1194 27.7611 19.1289 28.4897 18.5212 29.2385C18.4037 29.3829 18.2996 29.5273 18.2123 29.6683C18.125 29.8127 18.0477 29.9738 17.9739 30.1417C17.5978 31.0181 17.4232 32.1932 17.4232 33.58V55.9085C17.4232 57.5638 17.6683 58.9236 18.2123 59.8201C18.7562 60.7166 19.8743 61.5963 21.3853 62.4223L31.5691 68.0061L41.7529 73.5866C43.0187 74.2783 44.1805 74.7282 45.1643 74.8558C45.3523 74.8793 45.537 74.8961 45.7116 74.8961C45.8862 74.8961 46.0708 74.8826 46.2589 74.8558C47.2427 74.7282 48.4044 74.2816 49.6703 73.5866L70.0379 62.4223C71.5455 61.5963 72.6669 60.7166 73.2109 59.8201C73.2982 59.6758 73.3754 59.5146 73.4493 59.3467C73.8253 58.4737 73.9999 57.2952 73.9999 55.9085V33.58C74.0033 32.1932 73.8287 31.0181 73.4526 30.1451ZM33.7348 56.3416C33.7348 56.8486 33.1908 57.1743 32.7443 56.9292L29.1012 54.9314C28.245 54.4613 27.7111 53.5614 27.7111 52.5844V41.7928C27.7111 41.2858 28.2551 40.9635 28.7016 41.2052L33.0431 43.5825C33.4729 43.8175 33.7381 44.2674 33.7381 44.7576V56.3416H33.7348ZM63.7154 52.5844C63.7154 53.5614 63.1815 54.4647 62.3253 54.9347L58.6822 56.9292C58.2357 57.1743 57.6917 56.852 57.6917 56.3416V42.0446C57.6917 41.5376 57.1478 41.2119 56.7012 41.457L50.1202 45.0632C49.264 45.5333 48.7301 46.4331 48.7301 47.4102V61.593C48.7301 62.0832 48.4649 62.5331 48.0351 62.7682L47.0009 63.3323C46.1984 63.7721 45.2281 63.7721 44.4256 63.3323L43.3981 62.7682C42.9684 62.5331 42.7031 62.0832 42.7031 61.593V47.4136C42.7031 46.4365 42.1692 45.5366 41.313 45.0665L27.7111 37.6125V36.9074C27.7111 35.9303 28.245 35.0305 29.1012 34.5604L30.6021 33.7344C31.4045 33.2946 32.3749 33.2946 33.174 33.7344L44.4256 39.8991C45.2281 40.3389 46.1984 40.3389 46.9976 39.8991L52.1952 37.0484C52.6586 36.7932 52.6586 36.1284 52.1952 35.8732L40.5173 29.4735C40.0539 29.2183 40.0539 28.5535 40.5173 28.2983L44.4256 26.1562C45.2281 25.7163 46.1984 25.7163 47.0009 26.1562L62.3253 34.5537C63.1849 35.0238 63.7188 35.9236 63.7188 36.9041V52.5844H63.7154Z" fill="white"/>
</svg>
