<svg width="70" height="70" viewBox="0 0 70 70" fill="none" xmlns="http://www.w3.org/2000/svg">
<path fill-rule="evenodd" clip-rule="evenodd" d="M47.9993 41.3156V41.0034C47.9993 40.6913 47.8745 40.3999 47.6248 40.1502C47.3751 39.9005 47.0837 39.7757 46.7716 39.7757H26.7107C26.2737 39.7757 25.92 39.5884 25.6078 39.3386C25.2957 39.0265 25.1708 38.6727 25.1708 38.2357V37.3201C25.1708 37.0079 25.2957 36.7166 25.5454 36.4669C25.7951 36.2171 26.0865 36.0923 26.3986 36.0923H46.7507C47.4167 36.0923 47.9785 35.5512 47.9785 34.8645V34.5523C47.9785 34.2402 47.8537 33.9489 47.604 33.6991C47.3542 33.4494 47.0629 33.3246 46.7507 33.3246H26.3986C26.0865 33.3246 25.7951 33.1997 25.5454 32.95C25.2957 32.7003 25.1708 32.4089 25.1708 32.0968V30.9314C25.1708 30.4944 25.3581 30.1406 25.6078 29.8285C25.92 29.5163 26.2737 29.3915 26.7107 29.3915H46.7716C47.4375 29.3915 47.9993 28.8504 47.9993 28.1637V28.0388C47.9993 27.7267 47.8745 27.4353 47.6248 27.1856C47.3751 26.9359 47.0837 26.811 46.7716 26.811H26.7107C25.6078 26.811 24.5257 27.248 23.7141 28.0388C22.9025 28.8296 22.4863 29.8701 22.4863 30.973V38.1109C22.4863 39.2138 22.9233 40.2959 23.7141 41.1075C24.5049 41.8983 25.5454 42.3353 26.7107 42.3353H46.7716C47.4583 42.4809 47.9993 42.0023 47.9993 41.3156Z" fill="#FBCA12"/>
</svg>
