<svg width="70" height="70" viewBox="0 0 70 70" fill="none" xmlns="http://www.w3.org/2000/svg">
<g clip-path="url(#clip0_244_2256)">
<path d="M23.81 33.5875C23.2117 32.8496 22.434 32.4807 21.4668 32.4807C20.1207 32.4807 19.1335 33.1587 18.4954 34.4948C18.2262 33.8367 17.8473 33.3382 17.3387 32.9892C16.8402 32.6502 16.2619 32.4707 15.6137 32.4707C14.3973 32.4707 13.47 33.0291 12.8318 34.1459C12.8218 34.086 12.8119 34.0162 12.8019 33.9464C12.752 33.5974 12.5726 33.2983 12.3332 33.0889C12.064 32.8596 11.715 32.7299 11.3262 32.7499C10.5783 32.7898 10 33.4379 10 34.1857V41.0757C10 41.4945 10.1695 41.8734 10.4387 42.1427C10.7179 42.4219 11.0968 42.5914 11.5256 42.5814C12.3632 42.5714 13.0213 41.8635 13.0213 41.0259V37.9349C13.0213 37.0674 13.1509 36.3993 13.4101 35.9207C13.6694 35.4421 14.0383 35.1928 14.5269 35.1928C15.0055 35.1928 15.3445 35.4321 15.5439 35.9007C15.5938 36.0304 15.6437 36.16 15.6835 36.3096C15.883 37.0873 16.571 37.6457 17.3786 37.6457C18.1464 37.6457 18.8344 37.1471 19.0438 36.4093C19.0937 36.2298 19.1634 36.0603 19.2432 35.9107C19.4925 35.4321 19.8614 35.1828 20.35 35.1828C20.8485 35.1828 21.1876 35.4221 21.387 35.8908C21.5864 36.3594 21.6861 36.9976 21.6861 37.7953V41.0658C21.6861 41.4845 21.8557 41.8535 22.1249 42.1327C22.404 42.4119 22.783 42.5814 23.2117 42.5714C24.0393 42.5614 24.6974 41.8535 24.6974 41.0259V36.7383C24.7074 35.3822 24.4082 34.3154 23.81 33.5875Z" fill="#2D88C9"/>
<path d="M56.2554 33.8669C55.6174 33.8669 55.0389 34.2757 54.8297 34.874L54.4208 36.0307C54.1916 36.6887 53.2643 36.6888 53.0347 36.0406L50.7416 29.7589C50.6216 29.4198 50.4024 29.1406 50.1231 28.9512C49.8439 28.7518 49.5051 28.6421 49.1462 28.6421C47.9395 28.6421 47.1219 29.8685 47.5706 30.9853L51.7585 41.3154C51.9181 41.7042 52.1774 42.0133 52.5062 42.2427C52.8354 42.4621 53.2343 42.5917 53.6431 42.5917C54.4804 42.5917 55.2285 42.0831 55.5374 41.3054L57.6512 35.9409C58.0501 34.9438 57.3224 33.8669 56.2554 33.8669Z" fill="#2D88C9"/>
<path d="M29.6038 28.5723C29.2449 28.2034 28.8161 28.0239 28.3375 28.0239C27.8289 28.0239 27.4002 28.2034 27.0512 28.5624C26.7022 28.9213 26.5227 29.3601 26.5227 29.8686C26.5227 30.3671 26.7022 30.7959 27.0512 31.1549C27.4102 31.5138 27.8289 31.6933 28.3275 31.6933C28.826 31.6933 29.2449 31.5138 29.6038 31.1549C29.9628 30.7959 30.1323 30.3671 30.1323 29.8686C30.1522 29.38 29.9727 28.9413 29.6038 28.5723Z" fill="#2D88C9"/>
<path d="M18.655 39.4507C18.2961 39.0818 17.8673 38.9023 17.3887 38.9023C16.8802 38.9023 16.4514 39.0818 16.1024 39.4408C15.7534 39.7997 15.574 40.2385 15.574 40.747C15.574 41.2455 15.7534 41.6743 16.1024 42.0333C16.4614 42.3922 16.8802 42.5717 17.3787 42.5717C17.8773 42.5717 18.2961 42.3922 18.655 42.0333C19.014 41.6743 19.1835 41.2455 19.1835 40.747C19.2034 40.2484 19.014 39.8197 18.655 39.4507Z" fill="#2D88C9"/>
<path d="M59.4654 29.2105C59.1065 28.8416 58.6777 28.6621 58.1992 28.6621C57.6908 28.6621 57.2619 28.8416 56.9131 29.2005C56.5638 29.5595 56.3846 29.9982 56.3846 30.5068C56.3846 31.0053 56.5638 31.4341 56.9131 31.793C57.2719 32.152 57.6908 32.3315 58.1892 32.3315C58.6877 32.3315 59.1065 32.152 59.4654 31.793C59.8246 31.4341 59.9938 31.0053 59.9938 30.5068C60.0038 30.0082 59.8246 29.5695 59.4654 29.2105Z" fill="#2D88C9"/>
<path d="M29.444 33.1989C29.1648 32.9197 28.7759 32.7402 28.3472 32.7402C27.4896 32.7402 26.7917 33.4382 26.7917 34.2957V41.0362C26.7917 41.8937 27.4896 42.5917 28.3472 42.5917C29.2047 42.5917 29.9027 41.8937 29.9027 41.0362V34.2957C29.9027 33.867 29.7331 33.4781 29.444 33.1989Z" fill="#2D88C9"/>
<path d="M34.7775 28.5524C34.4983 28.2732 34.1094 28.0938 33.6807 28.0938C32.8231 28.0938 32.1252 28.7917 32.1252 29.6492V41.0362C32.1252 41.8938 32.8231 42.5917 33.6807 42.5917C34.5382 42.5917 35.2361 41.8938 35.2361 41.0362V29.6492C35.2361 29.2205 35.0567 28.8316 34.7775 28.5524Z" fill="#2D88C9"/>
<path d="M46.4535 40.2083L44.0804 36.6088L46.4236 34.0063C46.8624 33.5177 46.5134 32.74 45.8652 32.74H44.4992C44.1901 32.74 43.891 32.8796 43.6915 33.1089L41.3683 35.831C41.109 36.1402 40.6005 35.9507 40.6005 35.5518V29.639C40.6005 29.2102 40.431 28.8214 40.1419 28.5422C39.8627 28.263 39.4738 28.0835 39.045 28.0835C38.1875 28.0835 37.4895 28.7815 37.4895 29.639V41.026C37.4895 41.4547 37.659 41.8436 37.9482 42.1228C38.2274 42.402 38.6163 42.5815 39.045 42.5815C39.9025 42.5815 40.6005 41.8835 40.6005 41.026V40.7568C40.6005 40.5673 40.6703 40.3778 40.7999 40.2383L41.5179 39.4505C41.7671 39.1813 42.2059 39.2212 42.4053 39.5303L43.881 41.8536C44.0206 42.073 44.21 42.2524 44.4394 42.3721C44.6587 42.4917 44.918 42.5615 45.1772 42.5615C46.3937 42.5915 47.1316 41.2254 46.4535 40.2083Z" fill="#2D88C9"/>
</g>
<defs>
<clipPath id="clip0_244_2256">
<rect width="50" height="14.6154" fill="white" transform="translate(10 28)"/>
</clipPath>
</defs>
</svg>
