<svg width="90" height="90" viewBox="0 0 90 90" fill="none" xmlns="http://www.w3.org/2000/svg">
<path d="M78.8782 23.9902H68.5376V10.335L78.8782 23.9902Z" fill="#E60A95"/>
<path d="M65.338 47.5451L46.7236 28.9308L65.338 10.3164V47.5451Z" fill="white"/>
<path d="M34.0151 80.0004L46.7233 67.2922L34.0151 54.584V80.0004Z" fill="white"/>
<path d="M13.0591 24.5576L10.6157 27.001L48.7544 65.1396L51.1977 62.6963L13.0591 24.5576Z" fill="#E60A95"/>
<path d="M17.2314 20.3858L14.7881 22.8291L52.9267 60.9677L55.3701 58.5244L17.2314 20.3858Z" fill="#E60A95"/>
<path d="M21.4033 16.2041L18.96 18.6475L57.0986 56.7861L59.5419 54.3428L21.4033 16.2041Z" fill="#E60A95"/>
<path d="M25.5815 12.0323L23.1382 14.4756L61.2768 52.6142L63.7202 50.1709L25.5815 12.0323Z" fill="#E60A95"/>
</svg>
