<svg width="90" height="90" viewBox="0 0 90 90" fill="none" xmlns="http://www.w3.org/2000/svg">
<path d="M52.4117 35.9814H47.9605V53.5762H52.4117V35.9814Z" fill="#EA0437"/>
<path d="M39.2582 43.4469C40.892 43.3568 41.9223 45.114 41.9223 47.4546C41.9223 50.4587 40.892 51.7658 39.1949 51.7658C37.5911 51.7658 36.4708 50.4587 36.4708 47.4546C36.4708 45.6641 37.1076 43.4469 39.2582 43.4469ZM32.1696 47.8047C32.1696 52.1059 35.2872 54.3098 39.3182 54.3098C43.3493 54.3098 46.4668 52.1525 46.4668 47.5413C46.4668 43.6236 43.7328 41.0095 39.2982 41.0095C35.0471 41.0062 32.1696 43.4302 32.1696 47.8047Z" fill="#EA0437"/>
<path d="M61.3809 51.2391C60.1105 51.2391 59.0035 50.2555 59.0035 48.7718H68.166C68.236 44.2372 65.5353 41.0063 61.0541 41.0063C57.183 41.0063 54.2122 43.6604 54.2122 47.7615C54.2122 51.9993 57.2064 54.3099 61.0774 54.3099C63.8949 54.3099 66.939 53.2763 67.7726 50.1522H63.1813C62.8346 50.8824 62.1411 51.2391 61.3809 51.2391ZM63.3647 46.2211H59.0002C58.9902 42.9669 63.4047 42.9335 63.3647 46.2211Z" fill="#EA0437"/>
<path d="M21.2603 53.5795L21.2636 45.8541C21.2636 44.6504 22.2405 43.6735 23.4442 43.6735C24.6478 43.6735 25.6281 44.6504 25.6281 45.8541L25.6248 53.5762H29.8993L29.9026 44.3703C29.8326 43.5001 28.979 42.2231 27.9587 41.6596C26.5784 40.9928 23.5009 40.2392 20.9502 43.04C20.1299 42.1697 19.1097 41.5062 17.9827 41.1961C16.0889 40.786 14.105 41.2028 12.7246 42.6332C12.5346 42.7932 12.3845 43.1767 12.3979 42.8566V41.2962H8V53.5728H12.3912V45.8474C12.3912 44.6437 13.3681 43.6668 14.5751 43.6668C15.7788 43.6668 16.7524 44.6437 16.7524 45.8474V53.5795H21.2603Z" fill="#EA0437"/>
<path d="M77.6856 41.3026L75.5884 44.2801C74.9315 43.3698 74.3314 42.2629 73.7312 41.3026H68.7832L72.6476 47.0008C72.6476 47.0008 69.7701 51.2853 68.243 53.5793H72.5609L74.9715 49.6915C75.3716 50.2684 76.3052 52.0822 77.2388 53.5793H82.0001C80.8031 51.6087 77.939 46.9808 77.939 46.9808C79.116 45.0403 80.6997 43.2465 81.9267 41.3026H77.6856Z" fill="#EA0437"/>
</svg>
