<svg width="70" height="70" viewBox="0 0 70 70" fill="none" xmlns="http://www.w3.org/2000/svg">
<g clip-path="url(#clip0_56_322)">
<path d="M54.4574 30.5509V32.2922C54.4574 32.7301 54.7937 33.0884 55.2046 33.0884H62.7437C63.7324 33.0884 64.6277 33.5163 65.2749 34.207C65.8843 34.8575 66.2759 35.7425 66.3192 36.7242C66.322 36.7857 66.324 36.8471 66.324 36.9095V40.1718C66.324 42.2852 64.7173 44 62.737 44H38.6949V39.8073H60.1982C60.6092 39.8073 60.9453 39.449 60.9453 39.011V37.707C60.9453 37.2683 60.6087 36.9095 60.197 36.9095H52.7567C50.7934 36.9095 49.1868 35.1948 49.1868 33.0995V29.811C49.1868 27.7148 50.7934 26 52.7567 26H62.8276C64.7032 26 66.1231 27.5232 66.1231 29.4022V29.7546H55.2046C54.7937 29.7546 54.4574 30.113 54.4574 30.5509Z" fill="#1C4EFF"/>
<path d="M29.4948 29.4313V43.991H23.9581V30.9404H19.8279V43.991H14.2922V30.9404H10.0157V43.991H4.67603V29.8338C4.67603 27.9467 6.175 26 8.00674 26H26.164C27.9957 26 29.4948 27.5442 29.4948 29.4313Z" fill="#1C4EFF"/>
<path d="M42.4974 32.3136C42.4974 32.7515 42.1399 33.1098 41.7026 33.1098H36.5756V32.5838V29.7755H41.7026C42.1399 29.7755 42.4974 30.1339 42.4974 30.5718V32.3136ZM44.9698 26H33.36C32.0962 26 31.0718 27.0263 31.0718 28.2922V32.5838V36.7462V44H36.5756V36.9071H44.9698C47.076 36.9071 47.8954 35.1781 47.8954 33.0648V29.8422C47.8954 27.729 47.076 26 44.9698 26Z" fill="#1C4EFF"/>
</g>
<defs>
<clipPath id="clip0_56_322">
<rect width="61.648" height="18" fill="white" transform="translate(4.67603 26)"/>
</clipPath>
</defs>
</svg>
