<svg width="90" height="90" viewBox="0 0 90 90" fill="none" xmlns="http://www.w3.org/2000/svg">
<rect x="10" y="10" width="70" height="70" fill="#0281CC"/>
<path d="M37.52 59.41H27V58.07C28.22 58.07 29.13 57.96 29.73 57.73C30.33 57.51 30.73 57.02 30.94 56.27C31.15 55.52 31.25 54.39 31.25 52.87V35.46C31.25 34.33 31.15 33.47 30.94 32.89C30.73 32.31 30.34 31.91 29.75 31.68C29.17 31.46 28.28 31.34 27.09 31.34V30H36.22L45.67 52.52H45.85L55.25 30H63.76V31.34C62.71 31.34 61.91 31.45 61.34 31.68C60.77 31.9 60.38 32.31 60.18 32.89C59.97 33.47 59.87 34.32 59.87 35.42V54.09C59.87 55.16 59.97 55.99 60.18 56.57C60.39 57.15 60.78 57.55 61.34 57.76C61.91 57.97 62.73 58.07 63.8 58.07V59.41H51.89V58.07C53.05 58.07 53.92 57.97 54.49 57.76C55.06 57.55 55.43 57.16 55.61 56.57C55.79 55.99 55.88 55.16 55.88 54.09V34.79H55.7L45.27 59.41H44.2L33.63 34.83H33.45V52.87C33.45 54.39 33.55 55.53 33.76 56.27C33.97 57.02 34.36 57.5 34.95 57.73C35.54 57.96 36.39 58.07 37.52 58.07V59.41Z" fill="white"/>
</svg>
