<svg width="70" height="70" viewBox="0 0 70 70" fill="none" xmlns="http://www.w3.org/2000/svg">
<path d="M34.8508 16.7015C24.816 16.7015 16.7015 24.816 16.7015 34.8508C16.7015 44.8857 24.816 53 34.8508 53C44.8855 53 53 44.8856 53 34.8508C53 24.8701 44.9938 16.7015 34.8508 16.7015Z" fill="white"/>
<path d="M40.2604 21.1648L34.8778 39.0165L34.8507 39.0436L34.7966 39.0165L29.4141 21.1648L22.4627 44.0204H23.761C23.761 44.0204 24.6265 40.0443 26.06 37.6641C26.8444 36.3659 28.0346 35.311 29.6304 35.338C30.7664 35.3651 31.7402 35.9872 32.9573 37.6912C33.2278 38.0698 33.5524 38.692 33.8769 39.287C34.3908 40.2878 34.8236 41.3156 34.8236 41.3156C34.8236 41.3156 35.9596 38.719 36.6899 37.6912C37.9071 35.9872 38.8808 35.3651 40.0168 35.338C41.6126 35.311 42.8297 36.3659 43.5871 37.6641C45.0207 40.0443 45.8862 44.0204 45.8862 44.0204H47.1845L40.2604 21.1648Z" fill="black"/>
</svg>
