<svg width="90" height="90" viewBox="0 0 90 90" fill="none" xmlns="http://www.w3.org/2000/svg">
<path d="M30.6993 33.2537H33.9034V57.1976H30.458V38.5653L23.0951 47.8211H22.4597L15.0164 38.5653V57.1949H11.5897V33.2537H14.8341L22.7895 43.0886L30.6993 33.2537Z" fill="white"/>
<path d="M38.877 57.1976V33.2188H46.4705C48.7549 33.2188 50.5782 33.8354 51.9376 35.0688C53.297 36.3022 53.9781 37.9593 53.9781 40.04C53.9781 41.4342 53.6295 42.6676 52.9324 43.7428C52.2352 44.818 51.2807 45.5956 50.0688 46.0836C48.8568 46.5689 47.122 46.8129 44.859 46.8129H42.3225V57.2002H38.877V57.1976ZM45.8699 36.2701H42.3225V43.7589H46.0763C47.4706 43.7589 48.5458 43.4318 49.2992 42.7722C50.0527 42.1153 50.4307 41.1768 50.4307 39.9515C50.4307 37.4954 48.9104 36.2674 45.8725 36.2674L45.8699 36.2701Z" fill="white"/>
<path d="M56.9919 57.1628V33.2537H65.0653C68.3231 33.2537 70.8971 33.7417 72.7955 34.7203C74.6912 35.6963 76.2007 37.1335 77.3215 39.0318C78.4423 40.9275 79 42.9975 79 45.2364C79 46.8371 78.6916 48.3681 78.075 49.8294C77.4583 51.2934 76.5788 52.5777 75.4366 53.6851C74.2702 54.8273 72.9161 55.6907 71.3744 56.2726C70.4708 56.6265 69.6423 56.8651 68.8888 56.9831C68.1354 57.1038 66.6955 57.1628 64.5693 57.1628H56.9946H56.9919ZM64.706 36.305H60.4213V54.1141H64.8079C66.5213 54.1141 67.8539 53.9961 68.8004 53.7629C69.7495 53.5296 70.5405 53.232 71.1733 52.8727C71.8088 52.5134 72.3879 52.071 72.9135 51.5454C74.6054 49.8321 75.45 47.6656 75.45 45.0487C75.45 42.4317 74.5812 40.3805 72.8437 38.7584C72.2029 38.1524 71.4709 37.6563 70.6424 37.2676C69.8139 36.8788 69.0283 36.6214 68.2855 36.4953C67.5428 36.3693 66.3497 36.3077 64.7033 36.3077L64.706 36.305Z" fill="white"/>
</svg>
