<svg width="90" height="90" viewBox="0 0 90 90" fill="none" xmlns="http://www.w3.org/2000/svg">
<path fill-rule="evenodd" clip-rule="evenodd" d="M75.2928 54.6842L80.356 40.7175C80.356 40.7175 76.5699 40.7175 72.7839 41.4783L67.997 54.6842H75.2928ZM74.4278 36.945L73.4541 39.6261C77.2628 38.8652 81.0262 38.8652 81.0262 38.8652L81.9999 36.1842C81.9999 36.1842 78.2139 36.1842 74.4278 36.945ZM48.0206 51.3691C50.2986 51.7858 52.6445 52.0032 55.0447 52.0032C57.5039 52.0032 59.2927 51.4552 59.4829 49.7841C59.578 48.987 58.8263 48.4164 57.4495 47.6556C55.8735 46.786 54.5466 46.3513 53.1789 45.4365C51.8112 44.5217 51.2179 43.077 51.6799 41.5508C52.2188 39.7665 53.4687 38.7339 55.3799 37.7557C57.6171 36.6144 59.3923 36.1842 63.7083 36.1842C66.4255 36.1842 69.0839 36.4469 71.6562 36.945L70.7278 39.4993C68.4499 39.0826 66.104 38.8698 63.7037 38.8698C61.3035 38.8698 59.4557 39.4177 59.261 41.0889C59.1704 41.8859 59.9177 42.4611 61.299 43.2174C62.875 44.0869 64.2019 44.5217 65.5696 45.4365C66.9418 46.3513 67.5305 47.796 67.0686 49.3221C66.5297 51.1019 65.2752 52.139 63.3686 53.1127C61.1314 54.254 59.3561 54.6842 55.0447 54.6842C52.3275 54.6842 49.6691 54.4215 47.0968 53.9234L48.0206 51.3691ZM37.0248 54.6842L41.2501 43.0317C42.6586 39.146 37.4867 40.5681 36.3319 41.4602C35.4262 42.1622 33.7686 43.7608 33.1618 45.4365L29.806 54.6887H22.5101L26.7355 43.0362C28.1439 39.1506 22.9766 40.5726 21.8172 41.4647C20.9115 42.1667 19.254 43.7654 18.6471 45.441L15.2958 54.6887H8L14.7071 36.1887C17.0303 36.1887 18.2848 36.7231 19.3445 37.7602C19.7295 38.1406 19.9695 38.6297 20.1008 39.1551C21.4685 38.3263 22.6777 37.7059 23.4929 37.3889C25.01 36.7956 26.894 36.1842 29.2172 36.1842C31.5405 36.1842 32.795 36.7186 33.8502 37.7557C34.2396 38.1361 34.4797 38.6252 34.611 39.1506C35.9787 38.3218 37.1878 37.7014 38.003 37.3843C39.5202 36.7911 41.4041 36.1797 43.7274 36.1797C46.0506 36.1797 47.3096 36.7141 48.3648 37.7512C49.42 38.7837 49.3929 40.6767 49.0124 41.7274L44.3161 54.6797H37.0203L37.0248 54.6842Z" fill="white"/>
</svg>
