<svg width="90" height="90" viewBox="0 0 90 90" fill="none" xmlns="http://www.w3.org/2000/svg">
<g clip-path="url(#clip0_2216_3673)">
<path d="M71.1006 52.4545L75.734 36.4125C75.888 35.8946 75.986 35.3627 75.986 34.8307C75.986 34.1728 75.86 33.5149 75.608 32.899C75.3561 32.2831 74.9781 31.7371 74.5162 31.2612C74.0542 30.7993 73.4943 30.4213 72.8784 30.1693C72.2625 29.9174 71.6186 29.7914 70.9466 29.7914C70.2047 29.7914 69.4628 29.9594 68.7909 30.2813L60.714 34.0608L59.2022 34.7748C59.0202 34.8587 58.8242 34.9007 58.6282 34.9147C58.3483 34.9147 58.0823 34.8167 57.8723 34.6348C57.6624 34.4528 57.5084 34.2148 57.4664 33.9349C57.2424 32.773 56.6265 31.7371 55.7306 30.9812C54.8207 30.2113 53.6869 29.7914 52.511 29.7774C51.7551 29.7774 51.0272 29.9454 50.3413 30.2673L41.7324 34.3128L40.7665 34.7608C40.5846 34.8447 40.3886 34.8867 40.1926 34.9007C39.9127 34.9007 39.6467 34.8027 39.4367 34.6348C39.2267 34.4668 39.0728 34.2148 39.0168 33.9489C38.7928 32.787 38.1909 31.7371 37.281 30.9672C36.4551 30.2673 35.4192 29.8474 34.3274 29.7774C33.8934 29.7494 33.4595 29.8334 33.0395 29.9454L31.8497 30.2673L19.4893 36.0066C19.2793 36.0906 19.0974 36.2446 18.9714 36.4405C18.8454 36.6365 18.7894 36.8605 18.7894 37.0845C18.8734 37.4624 18.9994 37.8264 19.1813 38.1623C19.2793 38.3583 19.4333 38.5403 19.6153 38.6523C19.8113 38.7782 20.0212 38.8342 20.2452 38.8342C20.4272 38.8342 20.5952 38.7922 20.7491 38.7222L24.2347 37.0565C24.4027 36.9725 24.5706 36.9305 24.7526 36.9305C25.0606 36.9305 25.3685 37.0565 25.5925 37.2804C25.8165 37.5044 25.9425 37.7984 25.9425 38.1203C25.9425 38.4983 21.757 52.8184 21.757 52.8184C21.547 53.5603 21.0991 54.2322 20.4832 54.6942C19.8673 55.1561 19.1113 55.4221 18.3274 55.4221L15.7658 55.3941C15.5138 55.3941 15.2618 55.4781 15.0659 55.6321C14.8699 55.786 14.7159 55.996 14.6459 56.234C14.6459 56.234 14.212 57.7178 14.156 58.1097C14.142 58.2637 14.156 58.4317 14.212 58.5857C14.268 58.7397 14.352 58.8796 14.4639 58.9916C14.5759 59.1036 14.7159 59.1876 14.8699 59.2436C15.0239 59.2996 15.1779 59.3136 15.3458 59.2996H29.19H31.3038C31.5417 59.2996 31.7937 59.2156 31.9897 59.0756C32.1857 58.9356 32.3396 58.7397 32.4236 58.5017L37.7709 39.9961C37.7989 39.8141 37.8689 39.6461 37.9809 39.4921C38.0929 39.3382 38.2189 39.2122 38.3869 39.1282L41.2005 37.7984L42.7403 37.0705C42.8943 37.0005 43.0623 36.9725 43.2442 36.9725C43.5522 36.9725 43.8601 37.0985 44.0841 37.3224C44.3081 37.5464 44.4341 37.8404 44.4341 38.1623C44.4341 38.2603 44.4201 38.3583 44.3921 38.4423C42.8383 44.1815 38.7648 58.0957 38.7648 58.1657C38.7648 58.4737 38.8908 58.7816 39.1148 59.0056C39.3387 59.2296 39.6327 59.3556 39.9547 59.3556H49.8094C50.0893 59.3556 50.3553 59.2576 50.5653 59.0756C50.7753 58.8936 50.9152 58.6417 50.9712 58.3757L56.3745 39.6461C56.4865 39.4362 56.6545 39.2682 56.8505 39.1422L59.9861 37.6584L61.2039 37.0845C61.3579 37.0145 61.5399 36.9725 61.7078 36.9865C62.3518 36.9865 63.0097 37.5324 62.8837 38.1623C62.7717 38.8482 57.6484 56.9059 57.6484 56.9059C57.6484 56.9059 57.3124 58.0117 57.3124 58.1797C57.3124 58.3337 57.3404 58.4877 57.3964 58.6277C57.4524 58.7677 57.5364 58.8936 57.6484 59.0056C57.7603 59.1176 57.8863 59.2016 58.0263 59.2576C58.1663 59.3136 58.3203 59.3416 58.4743 59.3416H64.4515H67.0412C68.217 59.3416 69.2529 58.5717 69.6028 57.4378L71.1006 52.4545Z" fill="#F5002F"/>
</g>
<defs>
<clipPath id="clip0_2216_3673">
<rect width="61.83" height="29.5642" fill="white" transform="translate(14.17 29.7778)"/>
</clipPath>
</defs>
</svg>
