<svg width="90" height="90" viewBox="0 0 90 90" fill="none" xmlns="http://www.w3.org/2000/svg">
<path d="M71.9999 28.5277C70.2594 29.9635 68.6482 31.3023 67.0231 32.6319C62.3002 36.5053 57.5912 40.3971 52.8407 44.2336C52.0835 44.843 52.2082 45.0923 52.8868 45.6232C58.8747 50.3138 64.8348 55.032 70.8042 59.7456C71.1596 60.0272 71.5105 60.3181 71.9122 60.6413C71.5567 60.909 71.2058 60.7982 70.8919 60.7982C66.4322 60.8075 61.9725 60.789 57.5174 60.8213C56.8156 60.8259 56.2847 60.6274 55.7538 60.1842C52.3236 57.3403 48.8842 54.5057 45.4171 51.708C44.7661 51.1863 44.7292 50.9093 45.4032 50.3784C47.3607 48.8318 49.2351 47.1698 51.211 45.6463C52.0328 45.0138 51.8389 44.7184 51.1556 44.2013C49.2535 42.7655 47.4115 41.2558 45.5094 39.8201C44.8492 39.3215 44.6415 39.0491 45.4401 38.4304C49.4797 35.305 53.4778 32.1194 57.485 28.9524C57.8821 28.6385 58.2607 28.3753 58.8147 28.3799C63.0066 28.3984 67.1939 28.3892 71.3859 28.3984C71.529 28.3984 71.6721 28.4584 71.9999 28.5277Z" fill="#0C66FE"/>
<path d="M17.1111 60.8088C21.0952 57.6602 24.8163 54.7148 28.5419 51.7739C31.1873 49.6872 33.8511 47.6143 36.4826 45.5091C37.0135 45.0844 37.3275 45.0151 37.9092 45.523C39.7882 47.1526 41.7456 48.6946 43.6846 50.2551C44.2802 50.7352 44.7188 51.003 43.7862 51.7416C40.1806 54.5993 36.6673 57.5679 33.1263 60.5041C32.8724 60.7164 32.6277 60.818 32.2999 60.818C27.3462 60.8134 22.3879 60.818 17.1064 60.818L17.1111 60.8088Z" fill="#0C66FE"/>
<path d="M17.4772 28.4229C21.8861 28.4229 26.2996 28.4229 30.7086 28.4229C31.4011 28.4229 31.7843 28.9907 32.2413 29.3462C36.1609 32.3978 40.0389 35.5002 43.9538 38.5565C44.5217 38.9997 44.5124 39.1936 43.9492 39.6275C41.8532 41.2387 39.7942 42.8961 37.7259 44.5443C37.4258 44.7843 37.2273 45.0152 36.7841 44.6458C30.3392 39.3044 23.8667 33.9859 17.4033 28.6629C17.4264 28.5844 17.4495 28.506 17.4726 28.4229H17.4772Z" fill="#0C66FE"/>
</svg>
