<svg width="70" height="70" viewBox="0 0 70 70" fill="none" xmlns="http://www.w3.org/2000/svg">
<g clip-path="url(#clip0_209_76)">
<path d="M20.2 28.99V52.99H8V28.99H20.2ZM32.4 16.99C33.989 16.9768 35.5651 17.2767 37.0381 17.8727C38.5112 18.4686 39.8525 19.3488 40.9854 20.4632C42.1183 21.5775 43.0206 22.904 43.6408 24.3671C44.261 25.8301 44.5869 27.401 44.6 28.99V52.99H32.4V28.99H20.2V16.99H32.4ZM62.9 16.99V52.99C61.3106 53.0045 59.734 52.7055 58.2603 52.11C56.7866 51.5145 55.4448 50.6343 54.3117 49.5198C53.1785 48.4052 52.2763 47.0781 51.6566 45.6145C51.0368 44.1508 50.7118 42.5794 50.7 40.99V16.99H62.9Z" fill="#03B584"/>
</g>
<defs>
<clipPath id="clip0_209_76">
<rect width="54.9" height="35.96" fill="white" transform="translate(8 17)"/>
</clipPath>
</defs>
</svg>
