<svg width="70" height="70" viewBox="0 0 70 70" fill="none" xmlns="http://www.w3.org/2000/svg">
<path d="M22.716 34.8243C22.716 31.585 22.6829 28.348 22.7349 25.1087C22.7538 23.9431 23.4537 23.0257 24.818 22.8436C25.22 22.7892 25.6148 22.7939 26.012 22.7939C32.0627 22.7892 38.1109 22.7845 44.1616 22.801C44.8827 22.801 45.611 22.8909 46.2044 23.4016C46.6939 23.8201 46.8996 24.3687 46.9753 24.9763C47.0698 25.7519 47.0367 26.5321 47.0367 27.31C47.0367 32.8972 47.0367 38.4844 47.0367 44.0716C47.0367 44.5327 46.9871 44.9938 46.8429 45.4312C46.5449 46.3273 45.7907 46.8238 44.8733 46.9279C44.0031 47.0272 43.1307 46.9799 42.2582 46.9823C36.6899 46.987 31.124 46.9823 25.5557 46.9846C24.9764 46.9846 24.4137 46.9208 23.903 46.6229C23.2456 46.2375 22.9075 45.6487 22.7728 44.911C22.6947 44.483 22.7207 44.0574 22.7207 43.6318C22.716 40.6976 22.7184 37.7609 22.7184 34.8266L22.716 34.8243ZM43.2583 34.8857C43.2583 32.2045 43.2536 29.5255 43.2654 26.8442C43.2654 26.5983 43.204 26.5416 42.9604 26.5416C37.5718 26.5487 32.1809 26.5487 26.7923 26.5416C26.5464 26.5416 26.4897 26.6031 26.4897 26.8442C26.4968 32.2045 26.4968 37.5647 26.4897 42.9272C26.4897 43.1731 26.5511 43.2299 26.7947 43.2275C32.1833 43.2204 37.5742 43.2204 42.9628 43.2275C43.2087 43.2275 43.2678 43.1684 43.2654 42.9249C43.256 40.2436 43.2583 37.5647 43.2583 34.8834V34.8857Z" fill="white"/>
<path d="M43.0219 19.6492C43.0219 20.1576 43.0148 20.6659 43.0266 21.1743C43.029 21.3398 42.9817 21.3871 42.8162 21.3847C42.3244 21.3729 41.8326 21.3729 41.3408 21.3847C41.1729 21.3894 41.128 21.3398 41.1303 21.1743C41.1374 20.1363 41.1374 19.1007 41.1303 18.0627C41.1303 17.8972 41.1753 17.8499 41.3408 17.8522C41.8326 17.8641 42.3244 17.8641 42.8162 17.8522C42.9841 17.8475 43.0314 17.8972 43.0266 18.0627C43.0172 18.5899 43.0219 19.1196 43.0219 19.6468V19.6492Z" fill="white"/>
<path d="M19.5286 28.6625C19.0085 28.6625 18.4859 28.6554 17.9657 28.6672C17.8002 28.6696 17.7506 28.6246 17.7553 28.4568C17.7671 27.9673 17.7671 27.4779 17.7553 26.9885C17.7506 26.8229 17.8002 26.778 17.9657 26.778C19.0085 26.7851 20.0512 26.7851 21.0939 26.778C21.2594 26.778 21.3091 26.8206 21.3043 26.9885C21.2925 27.4779 21.2925 27.9673 21.3043 28.4568C21.3091 28.6223 21.2618 28.6696 21.0939 28.6672C20.5737 28.6554 20.0512 28.6625 19.531 28.6625H19.5286Z" fill="white"/>
<path d="M50.1956 28.6625C49.6849 28.6625 49.1718 28.6554 48.6611 28.6672C48.4932 28.6696 48.4459 28.6223 48.4506 28.4568C48.4625 27.9673 48.4625 27.4779 48.4506 26.9885C48.4459 26.8229 48.4956 26.778 48.6611 26.778C49.7038 26.7851 50.7465 26.7851 51.7892 26.778C51.9547 26.778 52.0044 26.8206 51.9997 26.9885C51.9879 27.4779 51.9879 27.9673 51.9997 28.4568C52.0044 28.6223 51.9547 28.6696 51.7892 28.6672C51.2572 28.6578 50.7276 28.6625 50.1956 28.6625Z" fill="white"/>
<path d="M19.5594 30.3058C20.0701 30.3058 20.5832 30.3129 21.0939 30.301C21.2618 30.2987 21.3091 30.346 21.3044 30.5115C21.2925 31.0009 21.2925 31.4904 21.3044 31.9798C21.3091 32.1453 21.2594 32.1902 21.0939 32.1902C20.0512 32.1831 19.0085 32.1831 17.9658 32.1902C17.7979 32.1902 17.7506 32.1477 17.7553 31.9798C17.7671 31.4904 17.7671 31.0009 17.7553 30.5115C17.7506 30.346 17.8002 30.2987 17.9658 30.301C18.4978 30.3105 19.0274 30.3058 19.5594 30.3058Z" fill="white"/>
<path d="M50.1956 32.1855C49.6849 32.1855 49.1718 32.1784 48.6611 32.1902C48.4932 32.1926 48.4459 32.1477 48.4506 31.9798C48.4625 31.4904 48.4625 31.0009 48.4506 30.5115C48.4459 30.346 48.4956 30.3011 48.6611 30.3011C49.7038 30.3081 50.7465 30.3081 51.7892 30.3011C51.9547 30.3011 52.0044 30.3436 51.9997 30.5115C51.9879 31.0009 51.9879 31.4904 51.9997 31.9798C52.0044 32.1453 51.9547 32.1926 51.7892 32.1902C51.2572 32.1808 50.7276 32.1855 50.1956 32.1855Z" fill="white"/>
<path d="M19.5145 35.7085C18.9943 35.7085 18.4718 35.7014 17.9516 35.7132C17.7955 35.7156 17.753 35.6707 17.7553 35.517C17.7648 35.0181 17.7648 34.5192 17.7553 34.0203C17.753 33.8642 17.7979 33.8264 17.9516 33.8264C19.0038 33.8335 20.0559 33.8335 21.1081 33.8264C21.2642 33.8264 21.3067 33.869 21.3044 34.0227C21.2949 34.5216 21.2949 35.0205 21.3044 35.5194C21.3067 35.6754 21.2618 35.7156 21.1081 35.7132C20.5761 35.7038 20.0465 35.7109 19.5145 35.7109V35.7085Z" fill="white"/>
<path d="M50.2098 35.7085C49.6896 35.7085 49.1671 35.7038 48.6469 35.7109C48.4932 35.7133 48.4483 35.6731 48.4507 35.517C48.4601 35.0181 48.4601 34.5192 48.4507 34.0203C48.4483 33.8666 48.4909 33.8241 48.6469 33.8241C49.6991 33.8312 50.7513 33.8312 51.8034 33.8241C51.9571 33.8241 52.0021 33.8619 51.9997 34.018C51.9902 34.5168 51.9902 35.0157 51.9997 35.5146C52.0021 35.6683 51.9595 35.7133 51.8034 35.7109C51.2714 35.7014 50.7418 35.7062 50.2098 35.7062V35.7085Z" fill="white"/>
<path d="M26.7309 19.5925C26.7309 19.0841 26.738 18.5758 26.7261 18.0674C26.7238 17.9019 26.7687 17.8546 26.9366 17.857C27.4284 17.8688 27.9202 17.8688 28.412 17.857C28.5799 17.8522 28.6248 17.9019 28.6224 18.0674C28.6153 19.1054 28.6153 20.141 28.6224 21.179C28.6224 21.3445 28.5799 21.3918 28.412 21.3895C27.9202 21.3776 27.4284 21.3776 26.9366 21.3895C26.7687 21.3942 26.7214 21.3445 26.7261 21.179C26.7356 20.6518 26.7309 20.1221 26.7309 19.5948V19.5925Z" fill="white"/>
<path d="M26.7309 49.8953C26.7309 49.3869 26.7356 48.8786 26.7285 48.3702C26.7261 48.2141 26.7545 48.1479 26.9318 48.1527C27.4236 48.1645 27.9154 48.1621 28.4072 48.1527C28.5633 48.1503 28.6271 48.1787 28.6248 48.356C28.6153 49.394 28.6177 50.4296 28.6248 51.4676C28.6248 51.6237 28.5988 51.6899 28.4214 51.6852C27.9296 51.6733 27.4378 51.6686 26.946 51.6852C26.7474 51.6923 26.7261 51.6166 26.7285 51.4511C26.738 50.9333 26.7332 50.4131 26.7332 49.8953H26.7309Z" fill="white"/>
<path d="M41.1351 49.9189C41.1351 49.4011 41.1421 48.8809 41.1303 48.3631C41.128 48.1976 41.1729 48.1503 41.3408 48.1526C41.8326 48.1645 42.3244 48.1645 42.8162 48.1526C42.9841 48.1479 43.029 48.1976 43.0266 48.3631C43.0195 49.4011 43.0195 50.4367 43.0266 51.4747C43.0266 51.6402 42.9841 51.6875 42.8162 51.6851C42.3244 51.6733 41.8326 51.6733 41.3408 51.6851C41.1729 51.6899 41.1256 51.6402 41.1303 51.4747C41.1421 50.9569 41.1351 50.4367 41.1351 49.9189Z" fill="white"/>
<path d="M39.2458 19.6492C39.2458 20.1576 39.2387 20.6659 39.2506 21.1743C39.2529 21.3398 39.208 21.3894 39.0401 21.3847C38.6169 21.3729 38.1937 21.3753 37.7704 21.3847C37.6286 21.3871 37.5884 21.3469 37.5907 21.205C37.5955 20.1481 37.5955 19.0912 37.5907 18.0343C37.5907 17.8948 37.6286 17.8499 37.7704 17.8546C38.1937 17.8641 38.6169 17.8664 39.0401 17.8546C39.208 17.8499 39.2553 17.8972 39.2506 18.065C39.2387 18.5923 39.2458 19.1219 39.2458 19.6492Z" fill="white"/>
<path d="M35.7039 19.6492C35.7039 20.1576 35.6968 20.6659 35.7087 21.1743C35.711 21.3398 35.6661 21.3894 35.4982 21.3847C35.075 21.3729 34.6517 21.3753 34.2285 21.3847C34.0866 21.3871 34.0464 21.3445 34.0488 21.205C34.0535 20.1481 34.0535 19.0912 34.0488 18.0343C34.0488 17.8924 34.0866 17.8522 34.2285 17.8546C34.6517 17.8641 35.075 17.8664 35.4982 17.8546C35.6661 17.8499 35.7134 17.8995 35.7087 18.065C35.6992 18.5923 35.7039 19.1219 35.7039 19.6492Z" fill="white"/>
<path d="M32.1619 19.6208C32.1619 20.1387 32.1548 20.6588 32.1667 21.1766C32.169 21.3422 32.1241 21.3918 31.9562 21.3871C31.533 21.3753 31.1097 21.3776 30.6865 21.3871C30.5446 21.3894 30.5044 21.3493 30.5068 21.2074C30.5115 20.1505 30.5115 19.0936 30.5068 18.0367C30.5068 17.8972 30.5446 17.8546 30.6865 17.857C31.1097 17.8664 31.533 17.8688 31.9562 17.857C32.1241 17.8522 32.1714 17.8995 32.1667 18.0674C32.1548 18.5852 32.1619 19.1054 32.1619 19.6232V19.6208Z" fill="white"/>
<path d="M19.524 39.2316C19.0133 39.2316 18.5002 39.2268 17.9895 39.2339C17.824 39.2363 17.7436 39.2174 17.7531 39.0188C17.772 38.6097 17.7625 38.1983 17.7554 37.7869C17.7554 37.6498 17.7696 37.5812 17.9399 37.5812C19.0015 37.5906 20.0631 37.5883 21.1271 37.5812C21.2761 37.5812 21.3045 37.6332 21.3021 37.7656C21.295 38.1959 21.2926 38.6263 21.3021 39.0566C21.3068 39.2056 21.2501 39.2316 21.1153 39.2292C20.5833 39.2221 20.0537 39.2268 19.5217 39.2268L19.524 39.2316Z" fill="white"/>
<path d="M50.2193 39.2316C49.7086 39.2316 49.1955 39.2221 48.6848 39.2363C48.4838 39.2434 48.4413 39.1748 48.4484 38.9904C48.4625 38.5908 48.4554 38.1888 48.4484 37.7869C48.4484 37.6521 48.4578 37.5788 48.6328 37.5812C49.6944 37.5906 50.7561 37.5883 51.8201 37.5812C51.969 37.5812 51.9974 37.6308 51.995 37.7656C51.9879 38.1959 51.9856 38.6263 51.995 39.0566C51.9974 39.2056 51.9454 39.2339 51.8106 39.2316C51.2786 39.2245 50.749 39.2292 50.217 39.2292L50.2193 39.2316Z" fill="white"/>
<path d="M19.5286 42.7546C19.0085 42.7546 18.4859 42.7475 17.9657 42.7593C17.8002 42.7617 17.7506 42.7168 17.7553 42.5489C17.7671 42.128 17.7648 41.7072 17.7553 41.2863C17.7529 41.1444 17.7931 41.1066 17.935 41.1066C18.9966 41.1113 20.0583 41.1113 21.1223 41.1066C21.2641 41.1066 21.3067 41.1444 21.3043 41.2863C21.2949 41.7072 21.2925 42.128 21.3043 42.5489C21.3091 42.7144 21.2594 42.7617 21.0939 42.7593C20.5737 42.7475 20.0512 42.7546 19.531 42.7546H19.5286Z" fill="white"/>
<path d="M50.224 41.1113C50.7442 41.1113 51.2667 41.1184 51.7869 41.1066C51.9548 41.1042 52.0021 41.1492 51.9973 41.317C51.9855 41.7379 51.9879 42.1588 51.9973 42.5796C51.9997 42.7215 51.9571 42.7593 51.8176 42.7593C50.756 42.7546 49.6944 42.7546 48.6304 42.7593C48.4885 42.7593 48.4459 42.7215 48.4507 42.5796C48.4601 42.1588 48.4625 41.7379 48.4507 41.317C48.4459 41.1515 48.4956 41.1042 48.6611 41.1066C49.1813 41.1161 49.7038 41.1113 50.224 41.1113Z" fill="white"/>
<path d="M30.5092 49.8882C30.5092 49.3798 30.5163 48.8714 30.5045 48.3631C30.5021 48.1976 30.5494 48.1479 30.7149 48.1526C31.1382 48.1645 31.5614 48.1621 31.9846 48.1526C32.1265 48.1503 32.1667 48.1928 32.1643 48.3323C32.1596 49.3893 32.1596 50.4462 32.1643 51.5031C32.1643 51.6449 32.1265 51.6851 31.9846 51.6828C31.5614 51.6733 31.1382 51.6709 30.7149 51.6828C30.547 51.6875 30.5021 51.6378 30.5045 51.4723C30.5139 50.9451 30.5092 50.4154 30.5092 49.8882Z" fill="white"/>
<path d="M35.704 49.9189C35.704 50.4367 35.6969 50.9569 35.7087 51.4747C35.7111 51.6426 35.6638 51.6875 35.4959 51.6828C35.0727 51.671 34.6494 51.6733 34.2262 51.6828C34.082 51.6851 34.0465 51.6402 34.0465 51.5007C34.0512 50.4438 34.0512 49.3869 34.0465 48.33C34.0465 48.1881 34.0867 48.1479 34.2286 48.1503C34.6613 48.1597 35.0939 48.1597 35.5266 48.1503C35.6709 48.1479 35.7087 48.1928 35.7063 48.3323C35.6992 48.8596 35.704 49.3893 35.704 49.9165V49.9189Z" fill="white"/>
<path d="M39.2458 49.8976C39.2458 50.4155 39.2387 50.9356 39.2506 51.4534C39.2529 51.6237 39.2269 51.6946 39.0307 51.6852C38.6287 51.6686 38.2244 51.671 37.8201 51.6852C37.6498 51.6899 37.586 51.6592 37.586 51.4676C37.5978 50.4415 37.5955 49.4129 37.586 48.3868C37.586 48.2165 37.6096 48.1456 37.8059 48.155C38.2078 48.1716 38.6122 48.174 39.0141 48.155C39.2246 48.1456 39.2482 48.2283 39.2458 48.4057C39.2364 48.9046 39.2411 49.4035 39.2411 49.9024L39.2458 49.8976Z" fill="white"/>
<path d="M43.2584 34.8857C43.2584 37.567 43.2537 40.2459 43.2655 42.9272C43.2655 43.1708 43.2088 43.2299 42.9629 43.2299C37.5743 43.2228 32.1833 43.2228 26.7948 43.2299C26.5512 43.2299 26.4897 43.1755 26.4897 42.9296C26.4968 37.5694 26.4968 32.2092 26.4897 26.8466C26.4897 26.6031 26.5465 26.5416 26.7924 26.5439C32.181 26.551 37.5719 26.551 42.9605 26.5439C43.204 26.5439 43.2655 26.6007 43.2655 26.8466C43.2561 29.5279 43.2584 32.2068 43.2584 34.8881V34.8857ZM39.48 35.0158C39.48 33.5285 39.4753 32.0437 39.4848 30.5564C39.4848 30.3483 39.428 30.3011 39.2247 30.3011C36.3235 30.3082 33.4247 30.3082 30.5235 30.3011C30.3154 30.3011 30.2658 30.3531 30.2658 30.5588C30.2729 33.5214 30.2729 36.4841 30.2658 39.4467C30.2658 39.6501 30.3131 39.7045 30.5235 39.7045C33.4129 39.6974 36.3046 39.6974 39.1939 39.7045C39.428 39.7045 39.4871 39.643 39.4848 39.4136C39.4729 37.9477 39.48 36.4794 39.48 35.0134V35.0158Z" fill="#FFBE01"/>
<path d="M39.48 35.0158C39.48 36.4817 39.4752 37.95 39.4847 39.416C39.4847 39.6453 39.4279 39.7068 39.1938 39.7068C36.3045 39.6974 33.4128 39.6997 30.5234 39.7068C30.3153 39.7068 30.2657 39.6524 30.2657 39.4491C30.2728 36.4864 30.2728 33.5238 30.2657 30.5611C30.2657 30.3554 30.3153 30.3034 30.5234 30.3034C33.4246 30.3105 36.3234 30.3105 39.2246 30.3034C39.4279 30.3034 39.487 30.3483 39.4847 30.5588C39.4752 32.046 39.48 33.5309 39.48 35.0181V35.0158Z" fill="white"/>
</svg>
