<svg width="90" height="90" viewBox="0 0 90 90" fill="none" xmlns="http://www.w3.org/2000/svg">
<rect x="10" y="10" width="70" height="70" fill="#003288"/>
<path d="M59.3828 48.296V40.043C59.3828 34.7138 52.5721 35.0236 52.5721 35.0236C50.122 34.8748 47.6806 35.4312 45.5368 36.6269C42.4318 38.2314 42.7579 36.2656 42.7579 36.2656V35.0236H28V39.9876H31.3364L31.3621 40.0052C31.6735 40.0052 31.9722 40.1289 32.1925 40.3491C32.4127 40.5693 32.5364 40.868 32.5364 41.1795H32.5526V48.3501H32.5364C32.5361 48.6613 32.4122 48.9597 32.192 49.1796C31.9718 49.3996 31.6733 49.5231 31.3621 49.5231L31.3364 49.5136H28V54.4789H46.0712V49.5136H43.9579V49.5204C43.804 49.5204 43.6515 49.49 43.5093 49.4311C43.367 49.3721 43.2378 49.2857 43.129 49.1767C43.0202 49.0678 42.9339 48.9385 42.8751 48.7962C42.8163 48.6539 42.7861 48.5014 42.7863 48.3474L42.7687 48.296V42.8409L42.8066 42.7895C42.8614 41.9925 43.2168 41.2459 43.8008 40.7007C44.3848 40.1555 45.1539 39.8523 45.9529 39.8523C46.7518 39.8523 47.5209 40.1555 48.1049 40.7007C48.689 41.2459 49.0443 41.9925 49.0991 42.7895V49.5136H49.1072V54.4762H62.8328V49.5109H60.5653V49.4947C60.411 49.4949 60.2582 49.4646 60.1157 49.4057C59.9731 49.3467 59.8436 49.2602 59.7345 49.1511C59.6254 49.042 59.5389 48.9125 59.48 48.7699C59.421 48.6274 59.3908 48.4746 59.3909 48.3203L59.3828 48.296Z" fill="white"/>
</svg>
