<svg width="70" height="70" viewBox="0 0 70 70" fill="none" xmlns="http://www.w3.org/2000/svg">
<path d="M13.3993 28.2329C13.128 29.4744 12.877 30.7116 12.5858 31.9393C12.0808 34.0686 11.5337 36.1884 10.7667 38.2413C10.5055 38.9406 10.1867 39.62 9.86502 40.2945C9.7477 40.5407 9.55861 40.758 9.37846 40.9679C9.17754 41.2022 8.91841 41.2443 8.63419 41.1129C8.18164 40.9036 7.77232 40.6297 7.40394 40.2948C7.35839 40.2533 7.30766 40.2057 7.28748 40.1507C7.26298 40.0847 7.23906 39.9893 7.26961 39.9408C7.30045 39.8921 7.40076 39.8593 7.46562 39.8659C7.59793 39.8794 7.72908 39.9178 7.85707 39.9575C8.12543 40.0408 8.35891 39.989 8.52754 39.7641C8.74027 39.4808 8.95588 39.1963 9.132 38.8899C9.81343 37.7052 10.3334 36.4455 10.8171 35.1711C11.5501 33.2401 12.1805 31.2769 12.6294 29.2588C12.7374 28.7723 12.8043 28.2765 12.887 27.7841C12.8943 27.7403 12.8934 27.683 12.8709 27.6484C12.3915 26.9058 11.8603 26.2094 11.116 25.7056C11.0405 25.6545 10.9552 25.6119 10.8947 25.5467C10.8416 25.4897 10.769 25.3781 10.7909 25.3409C10.8275 25.2781 10.931 25.2245 11.0088 25.2207C11.2143 25.2112 11.4219 25.2227 11.6274 25.24C12.1699 25.2861 12.7017 25.3873 13.2142 25.5776C13.5878 25.7162 13.8881 25.9396 14.1334 26.263C16.8891 29.8987 19.652 33.5293 22.4137 37.1604C22.495 37.2673 22.5798 37.3728 22.6737 37.4682C22.9842 37.7833 23.3693 37.7302 23.5714 37.3382C23.8054 36.8842 23.8971 36.3881 23.9772 35.8892C24.0922 35.1732 24.0781 34.452 24.0513 33.7322C24.0092 32.6095 23.9691 31.4853 23.8818 30.3654C23.8002 29.3179 23.678 28.2716 23.3693 27.2592C23.2347 26.8173 23.0658 26.3896 22.8095 26.001C22.7778 25.9532 22.7513 25.9016 22.7262 25.85C22.649 25.6914 22.7083 25.558 22.8842 25.5326C23.0055 25.515 23.1361 25.5116 23.2554 25.5369C23.7236 25.6361 24.1473 25.8307 24.5018 26.1607C24.7094 26.3541 24.8186 26.5839 24.8137 26.8744C24.7803 28.8965 24.7653 30.9189 24.7174 32.9404C24.6875 34.2029 24.6192 35.4663 24.4004 36.713C24.3162 37.1924 24.1801 37.666 24.0254 38.128C23.9553 38.3373 23.8063 38.5359 23.6498 38.6973C23.3434 39.0132 22.8908 39.0738 22.5308 38.825C22.1935 38.5921 21.8617 38.3321 21.5888 38.0291C20.9301 37.2979 20.3009 36.54 19.6713 35.7831C17.5951 33.2871 15.5237 30.7866 13.4503 28.288C13.4327 28.2669 13.4131 28.2476 13.3993 28.2326V28.2329Z" fill="white"/>
<path d="M47.6604 42.8862V43.427C47.5961 43.427 47.5402 43.429 47.4846 43.427C45.4593 43.3442 43.4344 43.2506 41.4085 43.1808C39.5026 43.1154 37.5961 43.0551 35.6896 43.0275C31.9 42.9727 28.1101 42.9194 24.3202 42.9093C21.6112 42.9021 18.9016 42.9427 16.1932 43.0067C14.5182 43.0462 12.8449 43.1615 11.1716 43.2615C10.7329 43.2878 10.2985 43.3858 9.86149 43.4477C9.69113 43.4719 9.58419 43.5625 9.53115 43.7247C9.51184 43.7838 9.48475 43.8403 9.45707 43.8962C9.35186 44.1087 9.18698 44.23 8.94629 44.2681C8.4701 44.343 8.05271 44.2139 7.6728 43.9355C7.32776 43.6827 7.03259 43.3826 6.83774 42.9972C6.71552 42.7559 6.70111 42.5086 6.91038 42.3065C6.99483 42.2253 7.11734 42.1572 7.23178 42.1379C7.70912 42.0566 8.1879 41.9696 8.66986 41.9327C11.4838 41.7171 14.3037 41.6848 17.1234 41.7277C20.005 41.7715 22.8864 41.8476 25.7675 41.9237C27.5872 41.9719 29.4066 42.0399 31.2258 42.1097C33.4528 42.195 35.6796 42.2898 37.9066 42.3832C39.3271 42.4426 40.7479 42.4974 42.1678 42.5706C43.976 42.664 45.7836 42.7741 47.5915 42.877C47.6103 42.8781 47.629 42.8822 47.6604 42.8865V42.8862Z" fill="white"/>
<path d="M56.3463 33.1949C56.6308 33.0128 56.9055 32.8283 57.1892 32.6585C57.3405 32.5677 57.5051 32.4974 57.6679 32.4276C57.7717 32.3832 57.8472 32.4144 57.8536 32.5429C57.8567 32.6052 57.8654 32.6674 57.8645 32.7294C57.8493 34.1127 57.8395 35.4963 57.8152 36.8797C57.791 38.2566 57.61 39.6091 57.0909 40.8967C56.6562 41.9745 56.0168 42.8978 55.0302 43.5509C54.2833 44.0453 53.4583 44.3001 52.5722 44.3762C51.8666 44.4367 51.169 44.4142 50.5009 44.1479C49.8474 43.8873 49.2721 43.5135 48.8483 42.9396C48.7382 42.7902 48.6471 42.6239 48.567 42.4562C48.465 42.2423 48.4528 42.0097 48.569 41.8021C48.7414 41.4937 48.9339 41.1956 49.1323 40.9031C49.1913 40.816 49.2917 40.7497 49.3856 40.6955C49.5263 40.6142 49.5721 40.6563 49.5935 40.8166C49.6367 41.1435 49.6635 41.4775 49.754 41.7923C49.9105 42.3362 50.251 42.7675 50.7214 43.0796C51.7438 43.7588 52.8631 43.9115 54.0432 43.6279C54.5188 43.5138 54.9013 43.2298 55.2155 42.8557C55.7865 42.1751 56.0932 41.3784 56.261 40.5162C56.4979 39.2998 56.521 38.0739 56.4492 36.8425C56.4437 36.7479 56.4386 36.6534 56.4319 36.5398C56.3999 36.5629 56.3806 36.5741 56.3648 36.5885C55.0898 37.7548 53.5707 38.4129 51.89 38.7271C51.2835 38.8403 50.6715 38.9052 50.0596 38.759C49.9013 38.7213 49.7431 38.6763 49.5926 38.6158C48.8247 38.3071 48.4232 37.732 48.3655 36.9091C48.3197 36.2518 48.5042 35.6526 48.8339 35.0968C49.554 33.883 50.5565 32.969 51.8167 32.338C52.8847 31.8033 53.9556 31.9056 55.0209 32.3466C55.4496 32.5242 55.8352 32.7764 56.1935 33.0707C56.2451 33.1131 56.297 33.1546 56.3469 33.1952L56.3463 33.1949ZM52.2892 37.8805C53.2208 37.8767 54.4931 37.4628 55.3311 36.8935C55.7332 36.6205 56.0814 36.2931 56.329 35.8722C56.3973 35.7563 56.4443 35.6174 56.4619 35.4837C56.5302 34.9717 56.4397 34.4707 56.3365 33.9709C56.2719 33.6582 56.0932 33.4451 55.8073 33.3174C55.6848 33.2627 55.5626 33.1998 55.4337 33.169C54.9725 33.0586 54.5116 32.943 54.0449 32.8609C52.8902 32.6574 51.8127 32.879 50.8133 33.4901C50.2902 33.8101 49.9319 34.2551 49.78 34.8527C49.6511 35.3597 49.6554 35.8714 49.7826 36.3781C49.8915 36.8136 50.1215 37.1691 50.5187 37.4005C51.0658 37.719 51.6556 37.8819 52.2895 37.8807L52.2892 37.8805Z" fill="white"/>
<path d="M34.2934 36.8993C34.3167 36.8558 34.3412 36.8128 34.3634 36.7687C34.8459 35.8172 35.3665 34.8899 36.0067 34.0321C36.666 33.1489 37.5123 32.5162 38.5347 32.1227C38.7584 32.0365 39.0092 31.9976 39.2498 31.9849C39.6658 31.9627 39.9774 32.1556 40.174 32.5283C40.4002 32.9575 40.5213 33.4216 40.6257 33.8902C40.8819 35.0427 41.131 36.1968 41.3904 37.3487C41.4256 37.5055 41.4904 37.6591 41.5633 37.8033C41.6357 37.9462 41.7614 38.037 41.9306 38.0463C42.0606 38.0535 42.0799 38.1359 42.0257 38.2227C41.9663 38.3178 41.8934 38.4236 41.7991 38.4743C41.4878 38.6415 41.1725 38.8075 40.843 38.9329C40.5458 39.0459 40.4083 38.9658 40.3282 38.6622C40.0967 37.7857 39.8771 36.9059 39.6557 36.0265C39.4998 35.4076 39.3669 34.7821 39.1864 34.1707C39.1054 33.896 38.9587 33.6308 38.7961 33.3921C38.5799 33.0745 38.309 32.9869 37.9516 33.1241C37.6872 33.2255 37.4258 33.3671 37.205 33.5432C36.5319 34.0799 36.0356 34.7711 35.5902 35.4998C35.0699 36.351 34.6557 37.251 34.3539 38.2025C34.2879 38.4106 34.2377 38.4484 34.0279 38.3988C33.8428 38.355 33.6601 38.2901 33.486 38.2126C33.3012 38.1304 33.2219 37.9797 33.2453 37.7681C33.3802 36.5355 33.462 35.2998 33.458 34.0586C33.4554 33.2936 33.4113 32.5323 33.2975 31.7756C33.273 31.6136 33.3217 31.5531 33.4825 31.5744C33.9077 31.6309 34.2965 31.7889 34.6589 32.0163C34.8151 32.1143 34.822 32.2619 34.8047 32.4216C34.7249 33.1566 34.6548 33.8931 34.5652 34.627C34.4767 35.3514 34.3686 36.0732 34.2697 36.7961C34.2654 36.8267 34.2691 36.8584 34.2691 36.8898C34.2772 36.893 34.2853 36.8961 34.2934 36.8993Z" fill="white"/>
<path d="M44.4174 35.7783C44.4174 34.9619 44.428 34.145 44.4133 33.329C44.4047 32.8574 44.3234 32.3936 44.1426 31.9514C44.0611 31.7517 44.1127 31.6837 44.3309 31.6987C44.7679 31.7286 45.1795 31.8546 45.5678 32.0544C45.7782 32.1627 45.8782 32.3302 45.8629 32.5807C45.7923 33.7504 45.7153 34.9204 45.6741 36.0913C45.6441 36.9448 45.6637 37.8001 45.6678 38.6547C45.6692 38.9389 45.6283 39.0035 45.351 38.96C45.1362 38.9263 44.9229 38.8582 44.7209 38.7758C44.5277 38.6968 44.4404 38.5337 44.4419 38.3149C44.447 37.4694 44.4439 36.624 44.4439 35.7783C44.4349 35.7783 44.426 35.7783 44.4171 35.7783H44.4174Z" fill="white"/>
<path d="M61.2244 35.8166C61.2244 35.0386 61.2339 34.2603 61.2209 33.4823C61.212 32.9525 61.1393 32.4302 60.9341 31.9332C60.862 31.7589 60.916 31.6868 61.1053 31.698C61.5625 31.7248 61.9931 31.8534 62.3944 32.0722C62.5809 32.1736 62.6757 32.329 62.6622 32.5564C62.6054 33.5008 62.5665 34.4465 62.5051 35.3905C62.4342 36.4798 62.4025 37.5686 62.4616 38.6593C62.4771 38.9458 62.4252 39.0032 62.1448 38.9599C61.9346 38.9277 61.7254 38.8614 61.5279 38.7806C61.3299 38.6996 61.2397 38.5356 61.2414 38.3099C61.248 37.4789 61.244 36.6479 61.244 35.8169C61.2374 35.8169 61.2307 35.8169 61.2241 35.8169L61.2244 35.8166Z" fill="white"/>
<path d="M28.8466 35.8315C28.8466 35.0102 28.8584 34.1887 28.842 33.3678C28.8325 32.8873 28.7578 32.4125 28.5701 31.9614C28.4834 31.7527 28.5358 31.683 28.7607 31.6988C29.1974 31.7299 29.6096 31.8548 29.9967 32.0568C30.1993 32.1626 30.3051 32.3237 30.2901 32.5705C30.2224 33.6875 30.1714 34.8056 30.1013 35.9223C30.0437 36.8395 30.0486 37.7558 30.0887 38.673C30.1005 38.9423 30.0492 39.0011 29.7869 38.9613C29.5764 38.9293 29.3669 38.8659 29.1683 38.7875C28.9642 38.7068 28.8668 38.5428 28.8688 38.3101C28.8754 37.484 28.8714 36.6576 28.8714 35.8315C28.8633 35.8315 28.8549 35.8315 28.8469 35.8315H28.8466Z" fill="white"/>
<path d="M45.7107 28.6863C45.7107 28.9737 45.7217 29.2614 45.7073 29.5482C45.6955 29.7834 45.6283 29.8353 45.4046 29.7751C45.1804 29.7145 44.9593 29.6324 44.7483 29.5347C44.5941 29.4635 44.5087 29.3248 44.4992 29.1426C44.4707 28.6019 44.4338 28.0617 44.4044 27.5209C44.3954 27.3578 44.4563 27.301 44.6203 27.3232C44.9515 27.3682 45.2599 27.4838 45.5513 27.6463C45.662 27.708 45.6957 27.8106 45.6978 27.9245C45.7018 28.1782 45.6989 28.4321 45.6989 28.6861C45.7027 28.6861 45.7064 28.6861 45.7102 28.6861L45.7107 28.6863Z" fill="white"/>
<path d="M62.512 28.7667C62.512 29.0256 62.523 29.2847 62.5089 29.5427C62.4959 29.7817 62.425 29.8379 62.1955 29.7727C61.9632 29.707 61.7358 29.6159 61.517 29.5127C61.3766 29.4464 61.3092 29.3124 61.3002 29.1481C61.2706 28.6122 61.2319 28.0767 61.2014 27.5408C61.191 27.3581 61.259 27.2802 61.4265 27.3275C61.7378 27.4154 62.0436 27.5264 62.3423 27.6503C62.4109 27.6789 62.4757 27.7948 62.4841 27.8763C62.5141 28.1715 62.519 28.4693 62.5334 28.7659C62.5262 28.7659 62.5193 28.7659 62.512 28.7662V28.7667Z" fill="white"/>
<path d="M30.1412 28.7639C30.1412 29.0179 30.1524 29.2724 30.138 29.5258C30.1233 29.7846 30.0567 29.8382 29.8108 29.7699C29.5828 29.7065 29.3597 29.6166 29.1458 29.5145C29.0066 29.4482 28.9369 29.3162 28.9279 29.1507C28.8985 28.61 28.8582 28.0698 28.827 27.529C28.8172 27.3593 28.8879 27.2817 29.0504 27.3276C29.3617 27.4155 29.6682 27.5247 29.9665 27.6495C30.038 27.6795 30.1034 27.802 30.1123 27.8879C30.1426 28.1782 30.1464 28.4713 30.1602 28.7633C30.1539 28.7633 30.1472 28.7633 30.1409 28.7636L30.1412 28.7639Z" fill="white"/>
<path d="M56.3423 43.9351V43.3741C58.5629 43.4773 60.7813 43.5805 63 43.6837L62.9994 43.7036C60.7882 43.7806 58.5774 43.8575 56.3423 43.9351Z" fill="white"/>
</svg>
