<svg width="70" height="70" viewBox="0 0 70 70" fill="none" xmlns="http://www.w3.org/2000/svg">
<path d="M16.5397 41.3178C12.6195 41.3164 10 38.5383 10 35.1698C10 31.8014 12.6254 28.9914 16.5337 29H53.4663C57.3746 28.9914 60 31.8014 60 35.1698C60 38.5383 57.3806 41.3164 53.4603 41.3178H16.5397ZM16.5516 30.5153C13.4481 30.5212 11.5431 32.5955 11.5431 35.1619C11.5431 37.7275 13.4362 39.8191 16.5516 39.8078H53.4484C56.5638 39.8185 58.4576 37.7275 58.4576 35.1619C58.4576 32.5962 56.5526 30.5219 53.4491 30.5159L16.5516 30.5153ZM55.4331 32.6812C55.7153 32.6812 55.8554 32.7768 55.8554 32.9661C55.8554 33.0962 55.7744 33.1945 55.6396 33.2283L55.8607 33.6699H55.5931L55.4038 33.2649H55.2863V33.6699H55.0453V32.6812H55.4331ZM55.4112 32.2948C54.9185 32.2948 54.5187 32.6945 54.5187 33.1872C54.5187 33.6798 54.9185 34.0796 55.4112 34.0796C55.9038 34.0796 56.3036 33.6798 56.3036 33.1872C56.3036 32.6945 55.9038 32.2948 55.4112 32.2948ZM56.1329 33.1878C56.1329 33.5862 55.8095 33.9096 55.4112 33.9096C55.0128 33.9096 54.6894 33.5862 54.6894 33.1878C54.6894 32.7894 55.0128 32.4661 55.4112 32.4661C55.8095 32.4661 56.1329 32.7888 56.1329 33.1878ZM55.2863 33.1201H55.4038C55.5413 33.1201 55.6077 33.0783 55.6077 32.98C55.6077 32.8771 55.5366 32.8326 55.3919 32.8326H55.2863V33.1201ZM35.1169 35.5364C35.1142 35.1984 35.1215 34.9726 35.2324 34.7801C35.3685 34.5424 35.6188 34.4295 35.8459 34.4282H35.8453C36.0723 34.4295 36.3227 34.5424 36.4588 34.7801C36.5697 34.9733 36.5743 35.1991 36.5717 35.537L35.1169 35.5364ZM36.5657 36.699C36.5657 36.699 36.567 36.7163 36.567 36.9327C36.567 37.6379 36.1029 37.7946 35.8453 37.7946C35.5876 37.7946 35.1155 37.6379 35.1155 36.9327C35.1155 36.7216 35.1169 36.1366 35.1169 36.1366C35.1169 36.1366 38.4016 36.1379 38.4016 36.1359C38.4016 34.9401 37.247 33.9494 35.8287 33.9494C34.4104 33.9494 33.261 34.9188 33.261 36.1147C33.261 37.3105 34.4104 38.2793 35.8287 38.2793C37.0053 38.2793 37.9993 37.608 38.3027 36.6977L36.5657 36.699ZM42.0523 34.0138C42.7043 33.9952 44.027 34.4222 44.0177 35.9487C44.0164 36.2196 44.017 38.0469 44.017 38.0469H42.2847C42.2847 38.0469 42.2847 35.7555 42.2847 35.5145C42.2847 35.1785 41.9633 34.8046 41.4879 34.8046C41.0131 34.8046 40.6599 35.1785 40.6599 35.5145C40.6599 35.6791 40.6619 38.0469 40.6619 38.0469H38.9308L38.9322 34.1911L40.6625 34.1898C40.6625 34.1898 40.6605 34.4999 40.6625 34.5955C40.9958 34.2774 41.4766 34.0304 42.0523 34.0138ZM27.8813 34.0138C28.5334 33.9952 29.8561 34.4222 29.8468 35.9487C29.8454 36.2196 29.8461 38.0469 29.8461 38.0469H28.1137C28.1137 38.0469 28.1137 35.7555 28.1137 35.5145C28.1137 35.1785 27.7923 34.8046 27.3169 34.8046C26.8422 34.8046 26.4889 35.1785 26.4889 35.5145C26.4889 35.6791 26.4909 38.0469 26.4909 38.0469H24.7599L24.7592 34.1911L26.4916 34.1898C26.4916 34.1898 26.4896 34.4999 26.4916 34.5955C26.8249 34.2774 27.305 34.0304 27.8813 34.0138ZM47.7759 32.2496H49.497V38.0483H47.7732C47.7732 38.0483 47.7726 37.861 47.7726 37.8252C47.1052 38.2441 46.3523 38.2435 45.766 37.9699C45.6086 37.8969 44.5734 37.4002 44.5734 36.0583C44.5734 35.0404 45.5336 33.9288 46.7905 34.0391C47.2042 34.0756 47.4983 34.2263 47.7772 34.383C47.7759 33.4906 47.7759 32.2496 47.7759 32.2496ZM47.7885 36.1008C47.7885 36.1008 47.7885 35.6174 47.7885 35.4115C47.7885 34.8153 47.3768 34.6632 47.1059 34.6632C46.8284 34.6632 46.422 34.8153 46.422 35.4115C46.422 35.6094 46.4227 36.0988 46.4227 36.0988C46.4227 36.0988 46.422 36.5795 46.422 36.7847C46.422 37.3803 46.8284 37.5363 47.1053 37.5363C47.3768 37.5363 47.7892 37.3803 47.7892 36.7847C47.7892 36.537 47.7885 36.1008 47.7885 36.1008ZM53.3136 36.0895C53.3136 36.0895 53.3129 36.6725 53.3129 36.9062C53.3129 37.521 52.9497 37.7747 52.6004 37.7747C52.2505 37.7747 51.886 37.521 51.886 36.9062C51.886 36.6725 51.8867 36.0749 51.8867 36.0749C51.8867 36.0749 51.888 35.5045 51.888 35.2708C51.888 34.6586 52.2532 34.4069 52.6005 34.4069C52.9484 34.4069 53.3129 34.6586 53.3129 35.2708C53.3129 35.5045 53.3123 35.9368 53.3143 36.0915L53.3136 36.0895ZM52.6131 33.9288C51.2054 33.9288 50.0647 34.8983 50.0647 36.0941C50.0647 37.29 51.2061 38.2594 52.6131 38.2594C54.0207 38.2594 55.1615 37.29 55.1615 36.0941C55.1615 34.8983 54.0207 33.9288 52.6131 33.9288ZM22.0515 33.4335V32.2483H23.7991V33.4335H22.0515ZM22.0555 38.0483V34.1918L23.7991 34.1925V38.0483L22.0555 38.0483ZM30.8036 38.0483L30.8043 34.1998H29.8561V33.6274L30.8049 33.6267L30.8036 32.8458H32.5486V33.626H33.4928V34.1997H32.5486L32.5499 38.0482L30.8036 38.0483ZM14.9594 38.0483L14.96 32.2496H16.7668L19.266 36.2933L19.2647 32.2496H21.0575V38.0483H19.2674L16.7548 34.0045V38.0483H14.9594Z" fill="white"/>
</svg>
