<svg width="70" height="70" viewBox="0 0 70 70" fill="none" xmlns="http://www.w3.org/2000/svg">
<g clip-path="url(#clip0_244_2127)">
<path d="M60 29.4579C59.1997 29.703 58.8734 30.0097 58.5352 30.3471C58.2735 30.6082 57.7544 31.348 57.7544 32.3651V40.2337C57.7544 42.1296 56.1899 43.2594 54.7403 43.2594H38.0288C36.4456 43.2594 35.0001 44.5165 35.0001 46.2673C35.0001 44.5165 33.5546 43.2594 31.9715 43.2594H15.2599C13.8102 43.2594 12.2457 42.1296 12.2457 40.2337V32.3651C12.2457 31.348 11.7266 30.6082 11.4648 30.3471C11.1266 30.0097 10.8003 29.703 10 29.4579L12.2698 25.0186H32.8223L35 23L37.1777 25.0186H57.7302L60 29.4579ZM56.4998 27.0241H36.3522L35.0001 25.7667L33.6479 27.0241H13.5003L12.6481 28.6914C13.2438 29.2303 13.6299 29.8975 13.802 30.2815C13.953 30.6186 14.2547 31.3472 14.2547 32.3644V40.251C14.2547 40.6958 14.5865 41.2599 15.2599 41.2599H31.9713C33.8549 41.2599 35 42.2577 35 42.2577C35 42.2577 36.145 41.2599 38.0286 41.2599H54.7401C55.4136 41.2599 55.7453 40.6958 55.7453 40.251V32.3644C55.7453 31.3473 56.047 30.6187 56.198 30.2816C56.3699 29.8976 56.7561 29.2303 57.3518 28.6914L56.4997 27.0242L56.4998 27.0241Z" fill="#004A9B"/>
<path d="M19.9268 35.2738C19.6497 35.5491 19.3249 35.6711 18.9022 35.6711C18.0565 35.6711 17.371 34.9907 17.371 34.1509C17.371 33.3111 18.0566 32.6306 18.9022 32.6306C19.283 32.6306 19.6852 32.8066 19.9532 33.035L20.6847 32.215C20.198 31.7708 19.5619 31.525 18.9022 31.5261C17.4457 31.5261 16.265 32.6983 16.265 34.1446C16.265 35.5908 17.4457 36.7628 18.9022 36.7628C19.5865 36.7628 20.1885 36.515 20.6572 36.0904L19.9267 35.2739L19.9268 35.2738Z" fill="#004A9B"/>
<path d="M23.823 31.5649V33.6601H22.694V31.5649H21.5504V36.7589L21.5745 36.7596H22.7005L22.7027 36.8016V34.7777H23.8316V36.7592H24.977V31.5649H23.823Z" fill="#004A9B"/>
<path d="M28.3801 32.7162V31.565H26.8601L25.775 31.5649V36.7589L26.4236 36.7612H26.8601L28.3801 36.7589V35.6302H26.929V34.7361H27.8698V33.608H26.9117V32.7162H28.3801Z" fill="#004A9B"/>
<path d="M30.122 31.5259L28.8508 36.757H29.9992L30.6323 34.1627L31.1066 36.757H32.2475L32.7216 34.1627L33.3572 36.757H34.5005L33.2278 31.5259H32.0918L31.6957 34.0784L31.2597 31.5259H30.122Z" fill="#004A9B"/>
<path d="M35.2256 31.5259H36.3713V36.7596H35.2256V31.5259Z" fill="#004A9B"/>
<path d="M37.2566 33.6052H38.8842V34.7364H37.2566V33.6052Z" fill="#004A9B"/>
<path d="M43.2761 35.2735C42.999 35.5487 42.6741 35.6708 42.2513 35.6708C41.4058 35.6708 40.7202 34.9903 40.7202 34.1505C40.7202 33.3107 41.4058 32.6303 42.2513 32.6303C42.6323 32.6303 43.0346 32.8063 43.3023 33.0347L44.034 32.2146C43.5472 31.7705 42.911 31.5247 42.2513 31.5259C40.795 31.5259 39.6143 32.6981 39.6143 34.1442C39.6143 35.5903 40.7949 36.7625 42.2513 36.7625C42.9357 36.7625 43.5378 36.5146 44.0065 36.09L43.2761 35.2735Z" fill="#004A9B"/>
<path d="M46.4057 31.5339C44.956 31.5339 43.781 32.7062 43.781 34.1523C43.781 35.5983 44.956 36.7706 46.4057 36.7706C47.8555 36.7706 49.0303 35.5983 49.0303 34.1523C49.0303 32.7062 47.8551 31.5339 46.4057 31.5339ZM46.4164 35.6246C45.594 35.6246 44.9307 34.9755 44.9307 34.1524C44.9307 33.3294 45.5873 32.6788 46.4164 32.6788C47.227 32.6788 47.8815 33.3478 47.8815 34.1524C47.8815 34.9473 47.2335 35.6246 46.4164 35.6246Z" fill="#004A9B"/>
<path d="M50.7509 33.8215V36.7556H49.6257V31.5229H50.7509L52.5787 34.3428V31.5173H53.7331V36.7596H52.5787L50.7509 33.8215Z" fill="#004A9B"/>
</g>
<defs>
<clipPath id="clip0_244_2127">
<rect width="50" height="23.2673" fill="white" transform="translate(10 23)"/>
</clipPath>
</defs>
</svg>
