<svg width="70" height="70" viewBox="0 0 70 70" fill="none" xmlns="http://www.w3.org/2000/svg">
<path d="M43.0557 18.1547C43.0346 18.1644 43.0134 18.1778 42.9923 18.1874C42.9057 18.2259 42.8211 18.2682 42.7384 18.3163L34.4965 23.0737L44.0903 28.6408V17.9336C43.7384 17.9413 43.3865 18.0144 43.0557 18.1547Z" fill="#81CADF"/>
<path d="M26.1531 51.5819L34.8796 46.5418L25.2685 41.0074L25.2743 51.8338C25.5916 51.8377 25.8819 51.7415 26.1531 51.5819Z" fill="#60BDD8"/>
<path d="M53.9016 45.8981L34.2218 34.5352L34.2199 34.5333L33.2969 34.0006L15.5631 23.7684C15.4362 24.0819 15.367 24.4184 15.3651 24.7684C15.3651 24.8453 15.3651 24.9241 15.3651 24.9991V45.3328C15.3651 45.977 15.717 46.5712 16.2804 46.8808L24.3781 51.6113C24.6569 51.7652 24.9665 51.8382 25.2742 51.8325L25.2665 41.4176L25.2684 41.008L43.6406 51.5863C43.6945 51.6152 43.7502 51.6402 43.806 51.6652C43.8233 51.6729 43.8387 51.6825 43.856 51.6882C44.3829 51.894 44.8252 51.7306 45.3117 51.421L48.3865 49.673L53.2901 46.7481C53.5786 46.5327 53.7882 46.2347 53.9016 45.8981Z" fill="#94D1E3"/>
<path d="M53.9998 32.4908V24.7797C53.9998 23.7913 53.4613 22.8817 52.596 22.4067L45.4732 18.2742C45.0425 18.0377 44.5656 17.9242 44.0906 17.9339V28.641L28.0299 19.3222L26.2415 18.3165C25.4627 17.88 24.7704 17.8473 23.9724 18.2127C23.9531 18.2223 23.9339 18.2338 23.9127 18.2435C23.8204 18.2877 23.7301 18.3358 23.6416 18.3915L20.8206 20.0357L16.7631 22.3894C16.765 22.4009 16.7631 22.3894 16.7631 22.3894C16.2073 22.6952 15.792 23.199 15.5612 23.7682C15.5843 23.7797 33.295 34.0004 33.295 34.0004L34.218 34.533L34.2199 34.535L53.8998 45.8979C53.9959 45.5325 53.9959 44.8614 53.9959 44.8614V32.4908H53.9998Z" fill="#00A9CE"/>
</svg>
