<svg width="70" height="70" viewBox="0 0 70 70" fill="none" xmlns="http://www.w3.org/2000/svg">
<path d="M49.1231 9.50718C50.6462 9.1387 53.0139 8.66493 54.3846 8.4516C55.7554 8.23827 58.0289 8.04987 62 8V32.3808L60.8231 32.378C60.1751 32.3753 58.5551 32.5637 57.2231 32.7936C55.8911 33.0236 53.8723 33.4918 50.6822 34.4587L44.7782 24.0886C41.5326 18.384 38.8465 13.6159 38.8077 13.4912C38.7689 13.3666 39.2674 12.9981 39.9154 12.6711C40.5634 12.3442 42.2775 11.6488 43.7231 11.1252C45.1686 10.6015 47.6 9.87289 49.1231 9.50718Z" fill="#1E59AE"/>
<path d="M10.1932 46.6491C10.4757 45.7349 11.1182 43.9506 11.6166 42.6817C12.3311 40.8698 12.6163 40.4154 12.9625 40.5567C13.2034 40.6537 17.9498 43.1638 23.5077 46.1338C29.0683 49.1038 33.7123 51.6195 33.8314 51.7248C33.9477 51.8273 33.776 52.9106 33.4492 54.1296C33.1225 55.3487 32.7099 57.6538 32.2142 62.1642L8 62.3027V60.2941C8 59.1886 8.13015 57.2271 8.29077 55.9305C8.45138 54.6339 8.828 52.3897 9.12985 50.9435C9.43169 49.4973 9.908 47.5634 10.1932 46.6491Z" fill="#1E59AE"/>
<path d="M24.5156 23.2172C26.0165 21.7599 28.3676 19.7347 29.7384 18.7179C31.1064 17.7011 32.3359 16.8976 32.4661 16.9364C32.5962 16.9724 35.7725 21.4773 39.5276 26.9436C45.8774 36.1889 46.315 36.9037 45.7999 37.1836C45.4953 37.3498 44.3738 38.1893 43.3076 39.0481C42.2414 39.9098 40.735 41.3477 39.9568 42.2454C39.1814 43.143 38.0267 44.6557 36.2461 47.3404L35.4845 46.8251C35.0664 46.5397 30.799 43.7802 25.9999 40.6883C21.2008 37.5992 16.9334 34.8369 15.7537 34.0418L16.9057 32.3102C17.5399 31.3571 18.8968 29.5202 19.9214 28.2236C20.9488 26.9298 23.0147 24.6745 24.5156 23.2172Z" fill="#1E59AE"/>
<path d="M54.523 43.5863C55.5116 43.179 57.1344 42.6859 58.123 42.4864C59.1116 42.2897 60.391 42.1179 61.9999 42.0764V62.3014H52.1691C43.0611 62.3014 42.3245 62.2653 42.1528 61.8165C42.0504 61.5505 42.1141 60.4285 42.2913 59.323C42.4685 58.2176 42.8728 56.5358 43.1885 55.5828C43.5014 54.6297 44.2325 53.0394 44.8113 52.0503C45.3901 51.0612 46.5974 49.4571 47.4919 48.4846C48.3891 47.5149 49.9344 46.1823 50.923 45.5229C51.9116 44.8635 53.5344 43.9908 54.523 43.5863Z" fill="#1E59AE"/>
</svg>
