<svg width="90" height="90" viewBox="0 0 90 90" fill="none" xmlns="http://www.w3.org/2000/svg">
<path d="M37.6815 41.5047L40.3394 44.094L42.6042 41.773L38.7827 38.0513C38.4739 37.7519 38.0527 37.5772 37.6285 37.5928C37.198 37.599 36.7893 37.7737 36.4898 38.0825L27.0874 47.7408C25.9893 47.5006 24.7976 47.8126 23.9553 48.6767C22.6575 50.0088 22.6856 52.1426 24.0177 53.4403C25.3497 54.7381 27.4835 54.71 28.7813 53.3779C29.7109 52.4233 29.9574 51.057 29.5331 49.8809L37.6878 41.5079L37.6815 41.5047Z" fill="#19A583"/>
<path d="M48.388 42.5746C49.6108 43.0519 51.0521 42.7867 52.0254 41.7853C53.3232 40.4532 53.2951 38.3194 51.963 37.0217C50.631 35.7239 48.5003 35.752 47.1994 37.0841C46.4039 37.9014 46.1075 39.0182 46.3072 40.0602L37.3851 49.2224L34.7491 46.655L32.4843 48.976L36.2839 52.6758C36.599 52.9816 37.0077 53.1344 37.4132 53.1344C37.8188 53.1344 38.2586 52.9722 38.5737 52.6446L48.3848 42.5715L48.388 42.5746Z" fill="#19A583"/>
<path d="M47.034 46.0869L44.7692 48.4079L47.4209 50.9909L39.0603 59.5792C37.9154 59.2641 36.6364 59.5636 35.7504 60.4745C34.4527 61.8066 34.4808 63.9404 35.8128 65.2381C37.1449 66.5359 39.2787 66.5078 40.5765 65.1757C41.4655 64.2648 41.7307 62.9795 41.3844 61.8409L50.8774 52.0921C51.5013 51.4495 51.4888 50.4232 50.8462 49.7992L47.034 46.0869Z" fill="#19A583"/>
<path d="M27.6457 39.7422L36.5616 30.5862C37.7283 30.9449 39.051 30.6548 39.9619 29.7189C41.2597 28.3868 41.2316 26.253 39.8995 24.9553C38.5675 23.6575 36.4336 23.6856 35.1359 25.0177C34.2718 25.9036 34.0004 27.1421 34.303 28.2558L24.1892 38.641C23.8897 38.9498 23.7244 39.3616 23.7306 39.7921C23.7369 40.2226 23.9116 40.6313 24.2204 40.9307L28.0544 44.6649L30.3192 42.3439L27.6457 39.7422Z" fill="#19A583"/>
<path d="M67.5173 43.3198L50.4063 26.1433C49.7762 25.51 48.753 25.5069 48.1197 26.134L44.1203 30.0803C43.0722 29.9118 41.9647 30.2362 41.1692 31.0536C39.8715 32.3856 39.8995 34.5194 41.2316 35.8172C42.5637 37.115 44.6975 37.0869 45.9952 35.7548C46.9654 34.7565 47.1963 33.3122 46.6909 32.1049L49.2521 29.578L64.0795 44.4616L56.084 52.4291C54.9173 52.0734 53.5977 52.3636 52.6868 53.2994C51.389 54.6315 51.4171 56.7653 52.7492 58.0599C54.0812 59.3577 56.215 59.3296 57.5128 57.9976C58.3769 57.1085 58.6483 55.87 58.3426 54.7532L67.5111 45.6127C68.1444 44.9795 68.1475 43.9531 67.5142 43.3198H67.5173Z" fill="#19A583"/>
<path d="M58.0057 47.7658C59.3034 46.4337 59.2753 44.2999 57.9433 43.0022C56.6112 41.7044 54.4774 41.7325 53.1796 43.0645C51.8819 44.3966 51.91 46.5304 53.242 47.8282C54.5741 49.1259 56.7079 49.0978 58.0057 47.7658Z" fill="#19A583"/>
<path d="M63.2872 30.5295C64.5849 29.1974 64.5568 27.0636 63.2248 25.7658C61.8927 24.4681 59.7589 24.4961 58.4611 25.8282C57.1634 27.1603 57.1915 29.2941 58.5235 30.5918C59.8556 31.8896 61.9894 31.8615 63.2872 30.5295Z" fill="#19A583"/>
<path d="M34.5244 54.4201C33.1924 53.1224 31.0586 53.1504 29.7608 54.4825C28.4631 55.8146 28.4911 57.9484 29.8232 59.2461C31.1553 60.5439 33.2891 60.5158 34.5868 59.1838C35.8846 57.8517 35.8565 55.7179 34.5244 54.4201Z" fill="#19A583"/>
</svg>
