<svg width="70" height="70" viewBox="0 0 70 70" fill="none" xmlns="http://www.w3.org/2000/svg">
<path d="M42.9369 48.9564C40.8931 48.4047 39.2881 47.0881 38.4355 45.2574C38.2599 44.8813 38.1095 44.4926 38.1095 44.4173C38.1095 44.2919 37.3822 44.2543 34.8619 44.2543H31.6143L31.1629 45.1947C30.373 46.8875 28.9185 48.1539 27.1379 48.7182C23.5894 49.8467 19.9782 47.7777 18.8121 43.9534C18.4485 42.7622 18.461 41.6462 18.8748 40.3547C19.5895 38.0977 21.0566 36.5554 23.2133 35.7906C24.1035 35.4771 24.2791 35.452 25.4703 35.5273C26.185 35.5649 26.9248 35.615 27.1254 35.6276C27.4765 35.6652 27.5392 35.5774 28.7304 33.4834C29.4075 32.2797 29.9592 31.2766 29.9592 31.2515C29.9592 31.2264 29.7586 30.913 29.5203 30.5493C29.2821 30.1982 28.931 29.5337 28.7429 29.0823C28.4295 28.3425 28.3918 28.1293 28.4044 26.6999C28.4044 24.8441 28.605 24.142 29.5454 22.7627C30.7742 20.9571 32.7679 19.8913 34.9121 19.8913C38.3101 19.8787 41.169 22.4994 41.5577 26.0103C41.7207 27.54 41.0812 29.7468 40.1533 30.8252L39.7019 31.3518L39.9903 31.8784C41.7959 35.1009 42.2348 35.7906 42.4479 35.778C42.5858 35.7655 43.0247 35.6903 43.4385 35.6025C44.8428 35.3266 46.5607 35.7153 47.9776 36.6307C49.8208 37.8219 50.8615 39.6776 50.9869 41.9973C51.0997 44.0662 50.4853 45.6712 49.0058 47.1508C47.3632 48.8059 44.9808 49.5081 42.9369 48.9564ZM46.0967 45.8091C47.5638 45.107 48.4164 43.3891 48.1406 41.7089C47.8146 39.7027 46.197 38.3861 44.1908 38.5115C42.7488 38.6118 41.6454 39.3265 41.031 40.593C40.7301 41.2199 40.6799 41.4456 40.6925 42.3735C40.705 43.6274 40.8931 44.1415 41.6454 44.969C42.8241 46.2355 44.5294 46.5489 46.0967 45.8091ZM26.8872 45.7214C28.2664 45.0192 29.0062 43.8029 29.0062 42.2481C29.0062 41.0067 28.6552 40.2043 27.7649 39.3767C25.8464 37.6338 22.95 38.2357 21.8215 40.618C21.3575 41.6086 21.3575 42.9127 21.834 43.8782C22.2102 44.6556 22.4359 44.9314 23.0628 45.4079C24.1286 46.2104 25.696 46.3358 26.8872 45.7214ZM38.0468 40.43C38.2725 39.5773 38.912 38.4112 39.4386 37.847L39.7521 37.5209L38.5107 35.3392C37.5452 33.6213 37.2317 33.1574 37.0437 33.1699C36.9057 33.1825 36.4543 33.2577 36.0406 33.3455C35.1628 33.521 33.8964 33.4458 33.0939 33.1699C32.6551 33.0195 32.5046 33.0069 32.3917 33.1323C32.0281 33.5085 29.9592 37.383 30.047 37.5209C30.0971 37.6087 30.3228 37.9096 30.536 38.198C31.025 38.8375 31.5516 39.9535 31.6645 40.593C31.7146 40.8437 31.7773 41.0945 31.8024 41.1572C31.8275 41.2074 33.1942 41.245 34.8368 41.245H37.8211L38.0468 40.43ZM36.7678 30.0603C38.4355 29.17 39.1627 27.1011 38.4731 25.2454C38.122 24.3175 37.5201 23.6655 36.5797 23.189C35.1879 22.4994 33.6331 22.7251 32.4419 23.7909C30.8996 25.1952 30.7241 27.4522 32.0406 29.17C33.0939 30.5493 35.1252 30.9255 36.7678 30.0603Z" fill="white"/>
</svg>
