<svg width="70" height="70" viewBox="0 0 70 70" fill="none" xmlns="http://www.w3.org/2000/svg">
<path d="M35.364 25.4117C33.9111 25.4117 32.4668 25.5489 31.0119 25.8356C29.5546 26.1113 28.1982 26.5704 26.94 27.2203C25.6797 27.8636 24.6713 28.7378 23.9076 29.8493C23.144 30.9587 22.7623 32.292 22.7623 33.863V43.9759H29.9487V35.2579C29.9487 34.0413 30.1769 33.0619 30.6256 32.2698C31.0807 31.4865 31.714 30.9146 32.5367 30.5536C33.355 30.1904 34.2904 30.0066 35.3538 30.0066C36.4587 30.0066 37.4141 30.195 38.2324 30.5604C39.0441 30.9258 39.6791 31.5049 40.1299 32.2904C40.585 33.0737 40.8068 34.0784 40.8068 35.2818V43.9759H48V33.863C48 31.826 47.3527 30.167 46.0684 28.9023C44.7795 27.6311 43.1795 26.73 41.2648 26.2049C39.3548 25.6754 37.3857 25.4117 35.364 25.4117Z" fill="#E7290F"/>
</svg>
