<svg width="70" height="70" viewBox="0 0 70 70" fill="none" xmlns="http://www.w3.org/2000/svg">
<g clip-path="url(#clip0_865_2282)">
<path d="M62.3272 54.6958C62.3272 55.2964 61.8862 55.6995 61.3642 55.6995V55.6958C60.8273 55.6995 60.3944 55.2964 60.3944 54.696C60.3944 54.0957 60.8273 53.6937 61.3642 53.6937C61.8864 53.6936 62.3272 54.0955 62.3272 54.6958ZM62.7179 54.6958C62.7179 53.8716 62.0777 53.3932 61.3642 53.3932C60.6457 53.3932 60.0055 53.8716 60.0055 54.6958C60.0055 55.5195 60.6459 55.9999 61.3642 55.9999C62.0778 55.9999 62.7179 55.5195 62.7179 54.6958ZM61.1396 54.806H61.2845L61.6204 55.3958H61.9893L61.6172 54.7812C61.8095 54.7675 61.9676 54.6759 61.9676 54.4171C61.9676 54.0955 61.7459 53.9922 61.3704 53.9922H60.8271V55.3958H61.1394V54.806M61.1396 54.5684V54.2304H61.3568C61.475 54.2304 61.636 54.24 61.636 54.3841C61.636 54.541 61.5527 54.5684 61.4134 54.5684H61.1396Z" fill="white"/>
<path d="M53.6012 47.516L55.2891 52.1335H51.8611L53.6012 47.516ZM51.7936 45.718L47.9039 55.5733H50.6506L51.2658 53.8319H55.869L56.4512 55.5733H59.433L55.5143 45.7168L51.7936 45.718ZM43.9844 55.5769H46.771V45.715L43.9839 45.7144L43.9844 55.5769ZM24.6392 45.7144L22.3142 53.5307L20.0871 45.715L17.0804 45.7144L20.2612 55.5769H24.2757L27.4822 45.7144H24.6392ZM35.9031 47.8619H37.1007C38.8383 47.8619 39.9621 48.642 39.9621 50.6664C39.9621 52.6912 38.8383 53.4715 37.1007 53.4715H35.9031V47.8619ZM33.1398 45.7144V55.5769H37.6575C40.0645 55.5769 40.8504 55.1769 41.7003 54.2793C42.3005 53.649 42.6888 52.266 42.6888 50.7541C42.6888 49.3674 42.3602 48.1314 41.7874 47.3612C40.7552 45.9837 39.2683 45.7144 37.0493 45.7144H33.1398ZM6.74304 45.7007V55.5769H9.55325V48.0778L11.7307 48.0785C12.4517 48.0785 12.9656 48.2581 13.3128 48.6291C13.7532 49.0981 13.933 49.8552 13.933 51.2402V55.5769H16.6561V50.1202C16.6561 46.2258 14.1738 45.7007 11.745 45.7007H6.74304ZM28.655 45.7144L28.6561 55.5769H31.4415V45.7144H28.655Z" fill="white"/>
<path d="M14.2322 26.077C14.2322 26.077 17.8163 20.789 24.9724 20.2419V18.3234C17.0461 18.96 10.1821 25.6733 10.1821 25.6733C10.1821 25.6733 14.0697 36.9117 24.9724 37.9407V35.9015C16.9715 34.895 14.2322 26.077 14.2322 26.077ZM24.9724 31.846V33.7135C18.9255 32.6355 17.2471 26.3497 17.2471 26.3497C17.2471 26.3497 20.1504 23.1333 24.9724 22.6118V24.661C24.9688 24.661 24.9662 24.6599 24.9632 24.6599C22.4324 24.3562 20.4553 26.7204 20.4553 26.7204C20.4553 26.7204 21.5634 30.7006 24.9724 31.846ZM24.9724 14.7849V18.3234C25.2051 18.3056 25.4378 18.2905 25.6718 18.2825C34.6832 17.9788 40.5548 25.6733 40.5548 25.6733C40.5548 25.6733 33.8111 33.8734 26.7853 33.8734C26.1414 33.8734 25.5386 33.8137 24.9724 33.7134V35.9015C25.4566 35.963 25.9586 35.9991 26.4824 35.9991C33.0203 35.9991 37.7484 32.6602 42.3266 28.7084C43.0856 29.3163 46.1932 30.7952 46.832 31.4426C42.479 35.087 32.3341 38.0248 26.5826 38.0248C26.0282 38.0248 25.4958 37.9912 24.9724 37.9407V41.0154H49.8226V14.7849H24.9724ZM24.9724 22.6118V20.2419C25.2027 20.2258 25.4348 20.2136 25.6718 20.2061C32.1519 20.0025 36.4033 25.7747 36.4033 25.7747C36.4033 25.7747 31.8114 32.1521 26.8879 32.1521C26.1793 32.1521 25.5442 32.0382 24.9724 31.846V24.661C27.4952 24.9658 28.0028 26.0802 29.5194 28.6085L32.8926 25.7642C32.8926 25.7642 30.4302 22.5348 26.2794 22.5348C25.8282 22.5347 25.3964 22.5664 24.9724 22.6118Z" fill="#77B900"/>
</g>
<defs>
<clipPath id="clip0_865_2282">
<rect width="55.9747" height="41.215" fill="white" transform="translate(6.74261 14.785)"/>
</clipPath>
</defs>
</svg>
