<svg width="70" height="70" viewBox="0 0 70 70" fill="none" xmlns="http://www.w3.org/2000/svg">
<path d="M39.7873 26.6198H38.8128L35.2253 32.3938L31.633 26.6198H30.6585V43.995H31.633L35.2253 38.2211L38.8128 43.995H39.797L39.7873 43.9805V26.6198Z" fill="#6DACDE"/>
<path d="M30.6587 26.6198H25.3356L30.649 35.3074L25.3356 43.995H30.6587V26.6198Z" fill="#938647"/>
<path d="M45.1153 26.6198H39.7874V43.9805L39.7971 43.995H45.1105L39.7971 35.3074L45.1105 26.6198H45.1153Z" fill="#6D9A45"/>
<path d="M52.7025 26.6198H45.1154L39.7826 35.3074L45.1154 43.995V40.1554H54.0987C57.8704 40.1554 59 37.1836 59 34.5996V32.5586C59 29.165 57.7735 26.6198 52.6976 26.6198H52.7025ZM54.0308 33.6106C54.0308 34.6433 53.546 35.8262 52.3001 35.8262H45.1202V30.9297H51.8444C53.4539 30.9297 54.0308 31.5987 54.0308 32.7719V33.6106Z" fill="#BFD730"/>
<path d="M30.6489 35.3074L25.3355 26.6198H25.3307V37.1206L16.3231 26.6198H11V43.995H16.3279V33.4943L25.3355 43.995L30.6489 35.3074Z" fill="#FCB316"/>
</svg>
