<svg width="70" height="70" viewBox="0 0 70 70" fill="none" xmlns="http://www.w3.org/2000/svg">
<path d="M17.1239 21.2372H18.7799V17.765H17.1239V21.2372Z" fill="#BD342F"/>
<path d="M25.6709 21.2372H27.3269V17.765H25.6709V21.2372Z" fill="#BD342F"/>
<path d="M34.2179 21.2372H35.8739V17.765H34.2179V21.2372Z" fill="#BD342F"/>
<path d="M21.3974 21.2372H23.0534V17.765H21.3974V21.2372Z" fill="#BD342F"/>
<path d="M29.9444 21.2372H31.6004V17.765H29.9444V21.2372Z" fill="#BD342F"/>
<path d="M38.4914 21.2372H40.1474V17.765H38.4914V21.2372Z" fill="#BD342F"/>
<path d="M38.4914 21.2372H40.1474V17.765H38.4914V21.2372Z" fill="#BD342F"/>
<path d="M47.0385 21.2372H48.6944V17.765H47.0385V21.2372Z" fill="#BD342F"/>
<path d="M42.765 21.2372H44.4209V17.765H42.765V21.2372Z" fill="#BD342F"/>
<path d="M51.312 21.2372H52.9679V17.765H51.312V21.2372Z" fill="#BD342F"/>
<path d="M10.7671 47.0385H14.2393V45.3825H10.7671V47.0385Z" fill="#BD342F"/>
<path d="M10.7671 38.4914H14.2393V36.8354H10.7671V38.4914Z" fill="#BD342F"/>
<path d="M10.7671 29.9444H14.2393V28.2885H10.7671V29.9444Z" fill="#BD342F"/>
<path d="M10.7671 42.7649H14.2393V41.1089H10.7671V42.7649Z" fill="#BD342F"/>
<path d="M10.7671 34.2179H14.2393V32.562H10.7671V34.2179Z" fill="#BD342F"/>
<path d="M10.7671 25.6709H14.2393V24.015H10.7671V25.6709Z" fill="#BD342F"/>
<path d="M10.7671 25.6709H14.2393V24.015H10.7671V25.6709Z" fill="#BD342F"/>
<path d="M55.7991 47.0385H59.2714V45.3825H55.7991V47.0385Z" fill="#BD342F"/>
<path d="M55.7991 38.4914H59.2714V36.8354H55.7991V38.4914Z" fill="#BD342F"/>
<path d="M55.7991 29.9444H59.2714V28.2885H55.7991V29.9444Z" fill="#BD342F"/>
<path d="M55.7991 42.7649H59.2714V41.1089H55.7991V42.7649Z" fill="#BD342F"/>
<path d="M55.7991 34.2179H59.2714V32.562H55.7991V34.2179Z" fill="#BD342F"/>
<path d="M55.7991 25.6709H59.2714V24.015H55.7991V25.6709Z" fill="#BD342F"/>
<path d="M55.7991 25.6709H59.2714V24.015H55.7991V25.6709Z" fill="#BD342F"/>
<path d="M17.1239 52.9679H18.7799V49.4957H17.1239V52.9679Z" fill="#BD342F"/>
<path d="M25.6709 52.9679H27.3269V49.4957H25.6709V52.9679Z" fill="#BD342F"/>
<path d="M34.2179 52.9679H35.8739V49.4957H34.2179V52.9679Z" fill="#BD342F"/>
<path d="M21.3974 52.9679H23.0534V49.4957H21.3974V52.9679Z" fill="#BD342F"/>
<path d="M29.9444 52.9679H31.6004V49.4957H29.9444V52.9679Z" fill="#BD342F"/>
<path d="M38.4914 52.9679H40.1474V49.4957H38.4914V52.9679Z" fill="#BD342F"/>
<path d="M38.4914 52.9679H40.1474V49.4957H38.4914V52.9679Z" fill="#BD342F"/>
<path d="M47.0385 52.9679H48.6944V49.4957H47.0385V52.9679Z" fill="#BD342F"/>
<path d="M42.765 52.9679H44.4209V49.4957H42.765V52.9679Z" fill="#BD342F"/>
<path d="M51.312 52.9679H52.9679V49.4957H51.312V52.9679Z" fill="#BD342F"/>
<path d="M26.0449 32.9893C27.1132 32.9893 28.0214 32.6688 28.7158 31.9743C29.4103 31.2799 29.7842 30.4786 29.7842 29.5171C29.7842 28.5021 29.4103 27.6474 28.6624 27.0598C27.9145 26.4188 27.0598 26.0983 26.0449 26.0983C25.0833 26.0983 24.2286 26.4188 23.4808 27.0598C22.7329 27.7008 22.359 28.5021 22.359 29.5171C22.359 30.4786 22.7329 31.2799 23.4273 31.9743C24.1218 32.6154 24.9765 32.9893 26.0449 32.9893Z" fill="#BD342F"/>
<path d="M44.9017 34.2714C43.7265 34.2714 42.765 34.7521 42.0171 35.7137C41.3226 36.6752 40.9487 37.9038 40.9487 39.453C40.9487 41.0021 41.3226 42.2842 42.0171 43.1923C42.7115 44.1538 43.6731 44.6346 44.9017 44.6346C46.1303 44.6346 47.0385 44.1538 47.7863 43.1923C48.4808 42.2308 48.8547 41.0021 48.8547 39.453C48.8547 37.9038 48.4808 36.6752 47.7863 35.7137C47.0919 34.7521 46.1303 34.2714 44.9017 34.2714Z" fill="#BD342F"/>
<path d="M14.2927 49.4423H55.8526V21.2372H14.2927V49.4423ZM26.0449 46.1303C24.4957 46.1303 23.2137 45.8633 22.1987 45.3291C21.1838 44.7949 20.3825 43.9936 19.7949 42.9786C19.2073 41.9637 18.8867 40.8953 18.8867 39.7735C18.8867 38.5983 19.2073 37.5299 19.9017 36.4615C20.5962 35.3932 21.6111 34.5919 22.9466 33.9509C21.8782 33.4167 21.0769 32.7756 20.5427 31.9744C20.0085 31.2265 19.7414 30.3184 19.7414 29.3034C19.7414 28.3419 20.0085 27.3804 20.5427 26.5257C21.0769 25.671 21.8782 25.0299 22.8932 24.6026C23.9081 24.1752 24.9765 23.9615 26.0449 23.9615C27.1667 23.9615 28.235 24.1752 29.25 24.656C30.265 25.0833 31.0662 25.7778 31.6004 26.5791C32.1346 27.4338 32.4017 28.3419 32.4017 29.3034C32.4017 30.3184 32.1346 31.2265 31.6004 31.9744C31.0662 32.7222 29.25 33.7906 29.25 33.7906C27.7543 34.7521 25.6709 34.9658 25.6709 34.9658C25.0299 35.0192 24.3889 35.1795 23.8013 35.5534C23.1068 35.9274 22.5192 36.515 22.1453 37.2628C21.7179 38.0107 21.5043 38.7586 21.5043 39.5598C21.5043 40.3077 21.7179 41.0556 22.0919 41.8034C22.4658 42.4979 23.0534 43.0855 23.7479 43.406C24.4957 43.7799 25.2436 43.9402 26.0449 43.9402C26.8462 43.9402 27.594 43.7799 28.3419 43.406C28.5555 43.2991 28.7692 43.1389 28.9295 43.0321L29.8376 45.3291C28.8761 45.8633 27.6474 46.1303 26.0449 46.1303ZM31.7607 46.1303L27.4338 35.6069C27.4338 35.6069 28.1816 35.4466 29.5171 34.859L32.9359 43.2457L37.3162 32.8291H39.5064L33.9508 46.1303H31.7607ZM49.3355 44.7415C48.1068 45.9167 46.6111 46.5043 44.9017 46.5043C43.1923 46.5043 41.6966 45.9167 40.4679 44.7415C39.2393 43.5662 38.6517 41.8034 38.6517 39.5064C38.6517 37.2094 39.2393 35.4466 40.4679 34.2714C41.6966 33.0962 43.1923 32.5086 44.9017 32.5086C46.6111 32.5086 48.1068 33.0962 49.3355 34.2714C50.5641 35.4466 51.1517 37.2094 51.1517 39.5064C51.2051 41.8034 50.5641 43.5662 49.3355 44.7415Z" fill="#BD342F"/>
</svg>
