<svg width="70" height="70" viewBox="0 0 70 70" fill="none" xmlns="http://www.w3.org/2000/svg">
<path d="M41.6901 39.3421V29.4623H37.4924L35.9666 30.9881L34.4545 29.4761H32.19V29.4554H30.2982V39.3421C29.8633 39.639 29.5802 40.143 29.5802 40.7092C29.5802 41.6274 30.3259 42.3731 31.2441 42.3731C32.1624 42.3731 32.908 41.6274 32.908 40.7092C32.908 40.143 32.6249 39.6459 32.19 39.3421V31.5542H33.5984L34.8895 32.8453V34.8268C34.496 35.1306 34.2405 35.6001 34.2405 36.1317C34.2405 37.0499 34.9862 37.7956 35.9044 37.7956C36.8227 37.7956 37.5683 37.0499 37.5683 36.1317C37.5683 35.5379 37.2507 35.0201 36.7813 34.7232V33.0939L38.3485 31.5266H39.7915V39.3421C39.3565 39.639 39.0734 40.143 39.0734 40.7092C39.0734 41.6274 39.8191 42.3731 40.7373 42.3731C41.6556 42.3731 42.4013 41.6274 42.4013 40.7092C42.4013 40.143 42.1182 39.6459 41.6832 39.3421H41.6901ZM31.2441 41.2132C31.0025 41.2132 30.8091 41.0198 30.8091 40.7782C30.8091 40.5366 31.0025 40.3432 31.2441 40.3432C31.4858 40.3432 31.6791 40.5366 31.6791 40.7782C31.6791 41.0198 31.4858 41.2132 31.2441 41.2132ZM35.9044 36.6426C35.6628 36.6426 35.4695 36.4493 35.4695 36.2076C35.4695 35.966 35.6628 35.7727 35.9044 35.7727C36.1461 35.7727 36.3394 35.966 36.3394 36.2076C36.3394 36.4493 36.1461 36.6426 35.9044 36.6426ZM40.7373 41.2132C40.4957 41.2132 40.3024 41.0198 40.3024 40.7782C40.3024 40.5366 40.4957 40.3432 40.7373 40.3432C40.979 40.3432 41.1723 40.5366 41.1723 40.7782C41.1723 41.0198 40.979 41.2132 40.7373 41.2132Z" fill="white"/>
<path d="M27.6333 39.0452C27.1155 39.0452 26.6598 39.2869 26.356 39.6597H23.6772L22.5311 38.5067V29.4622H20.6393V39.1833L23.0972 41.6412H26.2593C26.5562 42.0831 27.0602 42.3731 27.6333 42.3731C28.5515 42.3731 29.2972 41.6274 29.2972 40.7092C29.2972 39.7909 28.5515 39.0452 27.6333 39.0452ZM27.6333 41.2132C27.3916 41.2132 27.1983 41.0198 27.1983 40.7782C27.1983 40.5365 27.3916 40.3432 27.6333 40.3432C27.8749 40.3432 28.0682 40.5365 28.0682 40.7782C28.0682 41.0198 27.8749 41.2132 27.6333 41.2132Z" fill="white"/>
<path d="M27.6332 28.5026C26.715 28.5026 25.9693 29.2482 25.9693 30.1665C25.9693 30.7326 26.2524 31.2297 26.6873 31.5335V38.0165H28.5791V31.5266C29.014 31.2297 29.2971 30.7257 29.2971 30.1596C29.2971 29.2413 28.5515 28.4957 27.6332 28.4957V28.5026ZM27.6332 29.8074C27.8749 29.8074 28.0682 30.0008 28.0682 30.2424C28.0682 30.4841 27.8749 30.6774 27.6332 30.6774C27.3916 30.6774 27.1982 30.4841 27.1982 30.2424C27.1982 30.0008 27.3916 29.8074 27.6332 29.8074Z" fill="white"/>
<path d="M58.3292 38.9279C58.0668 38.9279 57.8252 38.99 57.6042 39.1005L54.8357 36.3319H52.9094L49.5678 39.6735H46.4402L45.2941 38.5274V36.4907H48.1455C48.4424 36.9257 48.9464 37.2087 49.5125 37.2087C50.4308 37.2087 51.1765 36.4631 51.1765 35.5448C51.1765 34.6266 50.4308 33.8809 49.5125 33.8809C48.9464 33.8809 48.4493 34.164 48.1455 34.599H45.2941V32.5967L46.4402 31.4507H49.5678L52.9094 34.7923H54.8357L57.5835 32.0444C57.8114 32.1618 58.0599 32.2308 58.3292 32.2308C59.2474 32.2308 59.9931 31.4852 59.9931 30.5669C59.9931 29.6487 59.2474 28.903 58.3292 28.903C57.4109 28.903 56.686 29.628 56.6722 30.5324L53.876 33.3286L50.0027 29.4553H45.8533L43.3954 31.9132V39.2593L45.7774 41.6412H50.0027L53.876 37.768L56.6722 40.5642C56.6722 40.5642 56.6722 40.5849 56.6722 40.5987C56.6722 41.5169 57.4178 42.2626 58.3361 42.2626C59.2543 42.2626 60 41.5169 60 40.5987C60 39.6804 59.2543 38.9348 58.3361 38.9348L58.3292 38.9279ZM49.5056 35.1927C49.7473 35.1927 49.9406 35.386 49.9406 35.6277C49.9406 35.8693 49.7473 36.0626 49.5056 36.0626C49.264 36.0626 49.0707 35.8693 49.0707 35.6277C49.0707 35.386 49.264 35.1927 49.5056 35.1927ZM58.3292 30.2217C58.5708 30.2217 58.7641 30.415 58.7641 30.6567C58.7641 30.8983 58.5708 31.0916 58.3292 31.0916C58.1151 31.0916 57.9425 30.9328 57.908 30.7257V30.5945C57.9425 30.3874 58.1151 30.2286 58.3292 30.2286V30.2217ZM58.3292 41.1027C58.1151 41.1027 57.9425 40.9439 57.908 40.7368V40.6056C57.9425 40.3985 58.1151 40.2397 58.3292 40.2397C58.5708 40.2397 58.7641 40.433 58.7641 40.6746C58.7641 40.9163 58.5708 41.1096 58.3292 41.1096V41.1027Z" fill="white"/>
<path d="M13.0792 29.4622L10.6213 31.9201V33.1767C10.2416 33.4805 9.99304 33.9431 9.99304 34.4678C9.99304 34.9925 10.2416 35.4551 10.6213 35.7589V39.2524L13.0033 41.6343H16.6625L19.1204 39.1764V31.9201L16.6625 29.4622H13.0792ZM11.6569 34.1157C11.8986 34.1157 12.0919 34.309 12.0919 34.5506C12.0919 34.7923 11.8986 34.9856 11.6569 34.9856C11.4153 34.9856 11.222 34.7923 11.222 34.5506C11.222 34.309 11.4153 34.1157 11.6569 34.1157ZM17.3805 38.5343L16.2344 39.6804H13.673L12.5269 38.5343V35.89C13.0033 35.6001 13.3209 35.0753 13.3209 34.4747C13.3209 33.874 13.0033 33.3562 12.5269 33.0593V32.5967L13.673 31.4507H16.2344L17.3805 32.5967V38.5343Z" fill="white"/>
</svg>
