<svg width="90" height="90" viewBox="0 0 90 90" fill="none" xmlns="http://www.w3.org/2000/svg">
<path d="M12.3115 49.9469C11.4118 49.9469 10.5324 49.6801 9.78431 49.1803C9.03625 48.6804 8.45321 47.97 8.10892 47.1388C7.76463 46.3076 7.67455 45.393 7.85006 44.5106C8.02558 43.6282 8.45882 42.8177 9.09499 42.1815C9.73116 41.5453 10.5417 41.1121 11.4241 40.9366C12.3065 40.7611 13.2211 40.8511 14.0523 41.1954C14.8835 41.5397 15.5939 42.1228 16.0937 42.8708C16.5936 43.6189 16.8604 44.4983 16.8604 45.398C16.8607 45.9955 16.7433 46.5871 16.5148 47.1392C16.2863 47.6912 15.9512 48.1928 15.5288 48.6153C15.1063 49.0378 14.6047 49.3728 14.0527 49.6013C13.5006 49.8298 12.909 49.9472 12.3115 49.9469ZM12.3115 53.2274C13.8601 53.2279 15.3741 52.7692 16.662 51.9092C17.9499 51.0492 18.9538 49.8265 19.5467 48.3959C20.1397 46.9654 20.2951 45.391 19.9933 43.8721C19.6915 42.3532 18.946 40.9579 17.8511 39.8627C16.7563 38.7675 15.3612 38.0215 13.8424 37.7192C12.3235 37.4169 10.7492 37.5718 9.3184 38.1643C7.88761 38.7569 6.66468 39.7604 5.80426 41.048C4.94384 42.3356 4.48459 43.8494 4.48459 45.398C4.48459 47.4741 5.30913 49.4652 6.77689 50.9334C8.24465 52.4016 10.2355 53.2268 12.3115 53.2274Z" fill="#005EB8"/>
<path d="M63.083 53.2274C61.5343 53.2274 60.0205 52.7682 58.7329 51.9078C57.4453 51.0474 56.4418 49.8244 55.8493 48.3936C55.2568 46.9629 55.1019 45.3885 55.4042 43.8697C55.7065 42.3508 56.4524 40.9558 57.5476 39.8609C58.6428 38.766 60.0381 38.0206 61.5571 37.7187C63.076 37.4169 64.6503 37.5723 66.0809 38.1653C67.5115 38.7583 68.7341 39.7622 69.5941 41.0501C70.4541 42.3379 70.9129 43.8519 70.9124 45.4005C70.9117 47.4766 70.0866 49.4674 68.6183 50.9351C67.1501 52.4029 65.159 53.2274 63.083 53.2274ZM63.083 49.9469C63.9829 49.9474 64.8627 49.6809 65.6111 49.1813C66.3596 48.6817 66.943 47.9712 67.2876 47.14C67.6322 46.3087 67.7225 45.3938 67.547 44.5112C67.3716 43.6286 66.9383 42.8178 66.302 42.1815C65.6657 41.5452 64.8549 41.1119 63.9723 40.9365C63.0897 40.761 62.1748 40.8513 61.3435 41.1959C60.5122 41.5405 59.8018 42.1239 59.3022 42.8724C58.8025 43.6208 58.5361 44.5006 58.5366 45.4005C58.5366 45.9976 58.6542 46.5888 58.8827 47.1403C59.1112 47.6919 59.446 48.1931 59.8682 48.6153C60.2904 49.0375 60.7916 49.3723 61.3431 49.6008C61.8947 49.8293 62.4859 49.9469 63.083 49.9469Z" fill="#005EB8"/>
<path d="M21.8561 38.0455V52.8555H25.1367V40.7768H28.7144V52.8555H31.9949V40.7768H33.2632C33.5667 40.7768 33.8672 40.8366 34.1476 40.9528C34.4279 41.069 34.6826 41.2394 34.8971 41.4541C35.1116 41.6688 35.2816 41.9237 35.3975 42.2041C35.5134 42.4846 35.5729 42.7852 35.5726 43.0887V52.8555H38.8532V43.1636C38.8532 41.7794 38.3035 40.452 37.325 39.473C36.3465 38.4941 35.0193 37.9438 33.6352 37.9431H25.1467C24.0432 37.9431 22.9463 37.9772 21.8561 38.0455Z" fill="#005EB8"/>
<path d="M72.4753 38.0455V52.8555H75.7559V40.7768H79.4084C80.0216 40.7768 80.6096 41.0204 81.0432 41.4539C81.4767 41.8875 81.7203 42.4755 81.7203 43.0887V52.8555H85.0009V43.1636C85.0009 41.7794 84.4512 40.452 83.4727 39.473C82.4943 38.4941 81.1671 37.9438 79.7829 37.9431H75.7534C74.6399 37.9431 73.5613 37.9781 72.4753 38.0455Z" fill="#005EB8"/>
<path d="M41.3896 38.0455V52.8555H44.6802V40.7768H48.5575C48.8673 40.7666 49.176 40.8188 49.4652 40.9304C49.7545 41.0419 50.0183 41.2105 50.2411 41.426C50.4639 41.6416 50.641 41.8998 50.762 42.1852C50.883 42.4706 50.9453 42.7774 50.9453 43.0874C50.9453 43.3974 50.883 43.7042 50.762 43.9896C50.641 44.2751 50.4639 44.5332 50.2411 44.7488C50.0183 44.9644 49.7545 45.1329 49.4652 45.2445C49.176 45.356 48.8673 45.4082 48.5575 45.398H45.7138L50.782 52.8555H54.809L51.1714 47.4902C52.0483 47.1358 52.7991 46.5274 53.3276 45.7431C53.8561 44.9588 54.1381 44.0344 54.1374 43.0887C54.1374 41.724 53.5953 40.4152 52.6303 39.4502C51.6653 38.4852 50.3566 37.9431 48.9919 37.9431H44.6652C43.5634 37.9431 42.4715 37.9772 41.3896 38.0455Z" fill="#005EB8"/>
</svg>
