<svg width="70" height="70" viewBox="0 0 70 70" fill="none" xmlns="http://www.w3.org/2000/svg">
<path d="M22.1191 35.0703C22.1191 32.0903 22.7091 29.4103 23.8791 27.0203C25.0491 24.6403 26.6791 22.8003 28.7791 21.5103C30.8791 20.2203 33.2591 19.5703 35.9391 19.5703C40.0891 19.5703 43.4391 21.0103 45.9991 23.8703C48.5591 26.7403 49.8391 30.5603 49.8391 35.3203V35.6903C49.8391 38.6503 49.2691 41.3103 48.1391 43.6703C46.9991 46.0203 45.3791 47.8603 43.2691 49.1703C41.1591 50.4803 38.7391 51.1403 35.9991 51.1403C31.8691 51.1403 28.5291 49.7103 25.9691 46.8403C23.4091 43.9703 22.1291 40.1703 22.1291 35.4503V35.0803L22.1191 35.0703ZM24.5991 35.6903C24.5991 39.0703 25.5091 41.7803 27.3191 43.8203C29.1391 45.8603 31.5691 46.8903 34.6091 46.8903C37.6491 46.8903 40.1091 45.8503 41.9191 43.7803C43.7191 41.7103 44.6291 38.8103 44.6291 35.0703C44.6291 31.7303 43.7091 29.0303 41.8691 26.9503C40.0291 24.8803 37.5891 23.8403 34.5491 23.8403C31.5091 23.8403 29.1691 24.8603 27.3391 26.9103C25.5091 28.9503 24.5991 31.8803 24.5991 35.6903Z" fill="white"/>
<path d="M21.1108 23.26C18.7608 26.82 18.2608 31.6 20.1808 36.69C19.5308 34.21 19.7908 28.35 22.6408 24.35C25.5008 20.35 30.9608 18.21 33.5208 18C28.0708 17.85 23.7208 19.87 21.1108 23.26Z" fill="#F48032"/>
</svg>
