<svg width="70" height="70" viewBox="0 0 70 70" fill="none" xmlns="http://www.w3.org/2000/svg">
<path d="M28.9887 27.6327C29.317 27.9516 29.6695 28.2424 30.0433 28.509V27.6327H28.9887Z" fill="white"/>
<path d="M30.0437 13.975C29.9766 14.0224 29.9114 14.0722 29.8472 14.1221H30.0437V13.975Z" fill="white"/>
<path d="M30.0437 17.3287V14.8064H29.0386C28.4481 15.3707 27.9396 16.014 27.5219 16.7209V17.3287H30.0437Z" fill="white"/>
<path d="M26.8371 18.1601C26.5597 18.911 26.3785 19.7063 26.3123 20.5357H26.8371V18.1601Z" fill="white"/>
<path d="M30.0432 21.2195H27.5214V23.7418H30.0432V21.2195Z" fill="white"/>
<path d="M26.8371 21.2195H26.2778C26.2778 21.2274 26.2778 21.2338 26.2778 21.2422C26.2778 22.1107 26.4081 22.9475 26.6406 23.7418H26.8371V21.2195Z" fill="white"/>
<path d="M33.2514 12.5437C32.3509 12.7447 31.5037 13.0843 30.7281 13.5361V14.1226H33.2514V12.5437Z" fill="white"/>
<path d="M30.0437 26.9484V24.4261H27.5219V25.763C27.7693 26.1802 28.0418 26.5786 28.3508 26.9484H30.0437Z" fill="white"/>
<path d="M36.4574 18.0129H33.9356V20.5353H36.4574V18.0129Z" fill="white"/>
<path d="M36.4574 24.4261H33.9356V26.9484H36.4574V24.4261Z" fill="white"/>
<path d="M33.2508 14.8064H30.7275V17.3287H33.2508V14.8064Z" fill="white"/>
<path d="M36.4574 14.8064H33.9356V17.3287H36.4574V14.8064Z" fill="white"/>
<path d="M36.4574 21.2195H33.9356V23.7418H36.4574V21.2195Z" fill="white"/>
<path d="M33.2508 18.0129H30.7275V20.5353H33.2508V18.0129Z" fill="white"/>
<path d="M33.2508 21.2195H30.7275V23.7418H33.2508V21.2195Z" fill="white"/>
<path d="M33.2508 24.4261H30.7275V26.9484H33.2508V24.4261Z" fill="white"/>
<path d="M30.0432 18.0129H27.5214V20.5353H30.0432V18.0129Z" fill="white"/>
<path d="M39.664 14.8064H37.1412V17.3287H39.664V14.8064Z" fill="white"/>
<path d="M39.664 13.5356C38.8875 13.0838 38.0413 12.7442 37.1412 12.5432V14.1216H39.664V13.5356Z" fill="white"/>
<path d="M30.7275 27.6327V28.9484C31.5031 29.4001 32.3503 29.7398 33.2508 29.9407V27.6327H30.7275Z" fill="white"/>
<path d="M40.3478 27.6327V28.509C40.721 28.2424 41.0745 27.9516 41.4028 27.6327H40.3478Z" fill="white"/>
<path d="M40.3478 24.4261V26.9484H42.0417C42.3507 26.5786 42.6237 26.1787 42.8711 25.7621V24.4261H40.3478Z" fill="white"/>
<path d="M33.9356 14.1221H36.4574V12.4238C36.0442 12.364 35.6246 12.3235 35.1955 12.3235C34.766 12.3235 34.3483 12.364 33.9356 12.4238V14.1221Z" fill="white"/>
<path d="M44.1132 21.2195H43.5548V23.7418H43.7503C43.9828 22.9475 44.1142 22.1102 44.1142 21.2422C44.1142 21.2338 44.1132 21.2269 44.1132 21.2195Z" fill="white"/>
<path d="M39.664 24.4261H37.1412V26.9484H39.664V24.4261Z" fill="white"/>
<path d="M39.664 18.0129H37.1412V20.5353H39.664V18.0129Z" fill="white"/>
<path d="M39.664 21.2195H37.1412V23.7418H39.664V21.2195Z" fill="white"/>
<path d="M44.0783 20.5353C44.0121 19.7068 43.8309 18.912 43.5544 18.162V20.5353H44.0783Z" fill="white"/>
<path d="M33.9356 27.6327V30.0607C34.3138 30.1155 34.6979 30.152 35.0904 30.155H35.3002C35.6927 30.1515 36.0783 30.1155 36.4569 30.0607V27.6327H33.9356Z" fill="white"/>
<path d="M42.8706 18.0129H40.3478V20.5353H42.8706V18.0129Z" fill="white"/>
<path d="M37.1412 27.6327V29.9407C38.0417 29.7398 38.8879 29.4001 39.664 28.9484V27.6327H37.1412Z" fill="white"/>
<path d="M42.8706 21.2195H40.3478V23.7418H42.8706V21.2195Z" fill="white"/>
<path d="M40.3478 14.1221H40.5448C40.4796 14.0722 40.4144 14.0224 40.3478 13.975V14.1221Z" fill="white"/>
<path d="M42.8706 16.7219C42.4524 16.0149 41.9429 15.3702 41.3535 14.8059H40.3473V17.3282H42.8701L42.8706 16.7219Z" fill="white"/>
<path d="M21.1072 26.9484H23.0035C22.6249 26.1486 22.3277 25.3034 22.1124 24.4261H21.1068L21.1072 26.9484Z" fill="white"/>
<path d="M23.6307 37.2524H21.1074V39.7757H23.6307V37.2524Z" fill="white"/>
<path d="M23.6307 30.8393H21.1074V33.3616H23.6307V30.8393Z" fill="white"/>
<path d="M23.6305 28.1259C23.5338 27.9654 23.4474 27.7981 23.3575 27.6327H21.1068V30.155H23.6301L23.6305 28.1259Z" fill="white"/>
<path d="M21.1074 23.7418H21.9659C21.8119 22.9302 21.7171 22.0983 21.7171 21.2422C21.7171 21.2338 21.7176 21.2274 21.7176 21.2195H21.1074V23.7418Z" fill="white"/>
<path d="M22.3267 17.3287C22.5286 16.6795 22.7587 16.0426 23.049 15.4368C22.3775 15.8515 21.7308 16.3008 21.1068 16.7792V17.3287H22.3267Z" fill="white"/>
<path d="M21.1074 20.5353H21.7581C21.804 19.6713 21.923 18.8261 22.1264 18.0129H21.1074V20.5353Z" fill="white"/>
<path d="M23.6307 34.0459H21.1074V36.5682H23.6307V34.0459Z" fill="white"/>
<path d="M25.6286 37.2524H24.3149V39.7757H25.6286V37.2524Z" fill="white"/>
<path d="M12.4601 30.8393C12.4389 30.9538 12.4107 31.0664 12.3915 31.1804H14.0103V30.8393H12.4601Z" fill="white"/>
<path d="M25.6286 34.0459H24.3149V36.5682H25.6286V34.0459Z" fill="white"/>
<path d="M25.5768 30.8393H24.3149V33.3621H25.6286V31.1809" fill="white"/>
<path d="M25.1162 30.155C24.8343 29.838 24.5667 29.5078 24.3149 29.1651V30.155H25.1162Z" fill="white"/>
<path d="M20.4235 30.8393H17.9007V33.3616H20.4235V30.8393Z" fill="white"/>
<path d="M17.2165 27.6327H14.6951V30.155H17.2165V27.6327Z" fill="white"/>
<path d="M14.0108 30.155V27.6327H13.3009C13.0205 28.4542 12.7864 29.2965 12.5974 30.155H14.0108Z" fill="white"/>
<path d="M17.2165 24.4261H14.6951V26.9484H17.2165V24.4261Z" fill="white"/>
<path d="M17.2164 21.2195H16.7099C16.1066 22.0208 15.5566 22.8655 15.0594 23.7418H17.2169L17.2164 21.2195Z" fill="white"/>
<path d="M14.0108 25.8331C13.8504 26.2005 13.6973 26.5722 13.5546 26.9489H14.0108V25.8331Z" fill="white"/>
<path d="M17.2165 30.8393H14.6951V31.1804H17.2165V30.8393Z" fill="white"/>
<path d="M20.4235 37.2524H17.9007V39.7757H20.4235V37.2524Z" fill="white"/>
<path d="M20.4235 34.0459H17.9007V36.5682H20.4235V34.0459Z" fill="white"/>
<path d="M20.4235 21.2195H17.9007V23.7418H20.4235V21.2195Z" fill="white"/>
<path d="M20.4235 20.5353V18.0129H19.6415C19.0303 18.5679 18.4492 19.1554 17.9007 19.7735V20.5353H20.4235Z" fill="white"/>
<path d="M20.4235 27.6327H17.9007V30.155H20.4235V27.6327Z" fill="white"/>
<path d="M20.4235 24.4261H17.9007V26.9484H20.4235V24.4261Z" fill="white"/>
<path d="M52.4903 40.46H50.7421L51.3454 42.9818H52.4903V40.46Z" fill="white"/>
<path d="M52.4902 30.8393H49.9679V33.3616H52.4902V30.8393Z" fill="white"/>
<path d="M49.9679 20.5353H52.4902V19.7725C51.9422 19.1554 51.3611 18.5679 50.7499 18.0129H49.9679V20.5353Z" fill="white"/>
<path d="M52.4902 24.4261H49.9679V26.9484H52.4902V24.4261Z" fill="white"/>
<path d="M52.4902 27.6327H49.9679V30.155H52.4902V27.6327Z" fill="white"/>
<path d="M52.4902 21.2195H49.9679V23.7418H52.4902V21.2195Z" fill="white"/>
<path d="M51.5092 43.6661L51.8859 45.2356C51.9723 45.5816 52.039 45.9021 52.0903 46.1889H52.4453C52.4576 46.0961 52.4744 45.9939 52.4902 45.8951V43.6661H51.5092Z" fill="white"/>
<path d="M52.3663 46.8727H52.1955C52.2518 47.3229 52.2616 47.593 52.2616 47.593H52.3258C52.3258 47.593 52.3263 47.3229 52.3663 46.8727Z" fill="white"/>
<path d="M53.1745 36.5687H54.508L55.0619 34.0459H53.1745V36.5687Z" fill="white"/>
<path d="M56.3812 31.1809H58C57.9808 31.0669 57.9526 30.9543 57.9314 30.8398H56.3812V31.1809Z" fill="white"/>
<path d="M55.6968 27.6327H53.1745V30.155H55.6968V27.6327Z" fill="white"/>
<path d="M55.6968 24.4261H53.1745V26.9484H55.6968V24.4261Z" fill="white"/>
<path d="M53.1745 39.7762H53.8059L54.3589 37.2524H53.1745V39.7762Z" fill="white"/>
<path d="M53.1745 23.7418H55.333C54.8353 22.8655 54.2858 22.0208 53.6825 21.2195H53.175L53.1745 23.7418Z" fill="white"/>
<path d="M49.0432 33.3621H49.2837V30.8393H46.7614V31.1809H48.5209L49.0432 33.3621Z" fill="white"/>
<path d="M52.4902 39.7762V37.2524H49.9748L50.5791 39.7762H52.4902Z" fill="white"/>
<path d="M49.2072 34.0459L49.2837 34.3663V34.0459H49.2072Z" fill="white"/>
<path d="M44.6064 30.8393C44.4933 30.9518 44.3877 31.0733 44.2682 31.1804H46.0771V30.8393H44.6064Z" fill="white"/>
<path d="M53.1745 40.46V42.6545L53.6554 40.46H53.1745Z" fill="white"/>
<path d="M56.3812 26.9484H56.8373C56.6947 26.5717 56.5431 26.2 56.3812 25.8336V26.9484Z" fill="white"/>
<path d="M53.1745 30.8393V33.3621H55.2115L55.6899 31.1809H55.6968V30.8393H53.1745Z" fill="white"/>
<path d="M56.3812 27.6327V30.155H57.7946C57.606 29.2965 57.372 28.4542 57.0901 27.6327H56.3812Z" fill="white"/>
<path d="M49.2836 16.7792C48.6601 16.3008 48.0143 15.8515 47.3419 15.4368C47.6317 16.0426 47.8623 16.6795 48.0642 17.3287H49.2831L49.2836 16.7792Z" fill="white"/>
<path d="M49.2836 18.0129H48.2646C48.4681 18.8261 48.587 19.6713 48.6334 20.5353H49.2836V18.0129Z" fill="white"/>
<path d="M49.2837 21.2195H48.6735C48.6735 21.2274 48.6745 21.2338 48.6745 21.2422C48.6745 22.0983 48.5802 22.9307 48.4261 23.7418H49.2832L49.2837 21.2195Z" fill="white"/>
<path d="M49.2837 24.4261H48.278C48.0633 25.3034 47.7656 26.1486 47.3869 26.9484H49.2832L49.2837 24.4261Z" fill="white"/>
<path d="M49.2837 30.155V27.6327H47.0334C46.9435 27.7981 46.8571 27.9645 46.7614 28.1249V30.155H49.2837Z" fill="white"/>
<path d="M52.4902 34.0459H49.9679V36.5682H52.4902V34.0459Z" fill="white"/>
<path d="M46.0771 29.1656C45.8253 29.5082 45.5567 29.8385 45.2758 30.1555H46.0771V29.1656Z" fill="white"/>
<path d="M40.3478 39.7762H41.9721L42.5936 37.2524H40.3478V39.7762Z" fill="white"/>
<path d="M39.664 42.9818V40.46H38.9447L39.4527 42.9818H39.664Z" fill="white"/>
<path d="M39.664 37.2524H38.299L38.808 39.7762H39.664V37.2524Z" fill="white"/>
<path d="M43.5549 31.7867V33.3468L44.0358 31.3932C43.8793 31.5295 43.7164 31.6573 43.5549 31.7867Z" fill="white"/>
<path d="M42.8706 32.2952C42.2984 32.6956 41.6976 33.0535 41.0662 33.3616H42.8706V32.2952Z" fill="white"/>
<path d="M40.3478 42.9818H41.1841L41.8042 40.46H40.3478V42.9818Z" fill="white"/>
<path d="M41.0158 43.6661H40.3478V46.1884H40.4248C40.4761 45.9016 40.5428 45.5817 40.6292 45.2351L41.0158 43.6661Z" fill="white"/>
<path d="M40.3478 34.0459V36.5687H42.7615L42.8706 36.1278V34.0459H40.3478Z" fill="white"/>
<path d="M39.591 43.6661L39.6641 44.0275V43.6661H39.591Z" fill="white"/>
<path d="M38.1617 36.5687H39.6641V34.0463H39.3757C38.8445 34.2216 38.299 34.3663 37.7401 34.4734L38.1617 36.5687Z" fill="white"/>
<path d="M20.4235 46.8727H17.9007V49.395H20.4235V46.8727Z" fill="white"/>
<path d="M20.4235 50.0793H17.9007V50.5127C18.5573 51.2508 19.2559 51.9524 20.0009 52.6011H20.4235V50.0793Z" fill="white"/>
<path d="M32.77 37.2525H31.1304V39.7763H33.2513V39.2312L32.77 37.2525Z" fill="white"/>
<path d="M23.6307 46.8727H21.1074V49.395H23.6307V46.8727Z" fill="white"/>
<path d="M23.6307 50.0793H21.1074V52.6011H23.6307V50.0793Z" fill="white"/>
<path d="M21.1074 53.2859V53.5056C21.9086 54.1217 22.7529 54.6811 23.6307 55.1886V53.2859H21.1074Z" fill="white"/>
<path d="M23.6307 44.8579H21.1074V46.1884H23.6307V44.8579Z" fill="white"/>
<path d="M33.2514 56.4924H30.7281V57.8531C31.5545 58.0135 32.3958 58.1315 33.2514 58.2026V56.4924Z" fill="white"/>
<path d="M30.0437 56.4924H27.5219V56.9876C28.3429 57.2764 29.1847 57.5203 30.0437 57.7158V56.4924Z" fill="white"/>
<path d="M26.8372 55.8077V53.6606H25.6281V53.2854H24.3144V55.5742C24.4665 55.6537 24.62 55.7302 24.7735 55.8077H26.8372Z" fill="white"/>
<path d="M20.4235 44.8579H17.9007V46.1884H20.4235V44.8579Z" fill="white"/>
<path d="M33.2508 40.46H31.1304V42.9814H33.2508V40.46Z" fill="white"/>
<path d="M25.6286 44.8579H24.3149V46.1884H25.6286V44.8579Z" fill="white"/>
<path d="M33.2508 50.0793H31.1304V52.6011H33.2508V50.0793Z" fill="white"/>
<path d="M32.0605 34.3371C31.7465 34.2631 31.434 34.1885 31.1309 34.0923V36.5687H32.6031L32.0605 34.3371Z" fill="white"/>
<path d="M33.2508 46.8727H31.1304V49.395H33.2508V46.8727Z" fill="white"/>
<path d="M33.2508 43.6661H31.1304V46.1884H33.2508V43.6661Z" fill="white"/>
<path d="M25.6286 46.8727H24.3149V49.395H25.6286V46.8727Z" fill="white"/>
<path d="M33.2513 55.8077V53.2859H31.1303V53.6611H30.7275V55.8077H33.2513Z" fill="white"/>
<path d="M25.6286 50.0793H24.3149V52.6011H25.6286V50.0793Z" fill="white"/>
<path d="M30.0432 53.6611H27.5214V55.8082H30.0432V53.6611Z" fill="white"/>
<path d="M26.8372 56.4924H26.2443C26.4398 56.5744 26.6397 56.6504 26.8377 56.7284L26.8372 56.4924Z" fill="white"/>
<path d="M33.9356 49.395H35.7248L35.1101 46.8727H33.9356V49.395Z" fill="white"/>
<path d="M36.4574 53.2859H33.9356V55.8077H36.4574V53.2859Z" fill="white"/>
<path d="M33.9356 52.6011H36.4574V52.4051L35.8912 50.0793H33.9356V52.6011Z" fill="white"/>
<path d="M34.1627 42.9818L33.9356 42.0423V42.9818H34.1627Z" fill="white"/>
<path d="M42.8706 56.4924H40.3478V57.6966C41.2053 57.5001 42.052 57.2745 42.8706 56.9866V56.4924Z" fill="white"/>
<path d="M39.664 56.4924H37.1412V58.209C37.9978 58.1384 38.8361 58.0071 39.664 57.8442V56.4924Z" fill="white"/>
<path d="M43.5549 56.4924V56.7136C43.7401 56.6415 43.9247 56.5685 44.1079 56.4924H43.5549Z" fill="white"/>
<path d="M36.4574 56.4924H33.9356V58.2574C34.3528 58.2796 34.7729 58.292 35.1955 58.292C35.6201 58.292 36.0373 58.2614 36.4574 58.2382V56.4924Z" fill="white"/>
<path d="M49.2838 53.2859H46.7615V55.1777C47.6388 54.6687 48.484 54.1103 49.2838 53.4947V53.2859Z" fill="white"/>
<path d="M43.5549 53.2859V55.8077H45.5865C45.7494 55.7257 45.9158 55.6482 46.0772 55.5628V53.2859H43.5549Z" fill="white"/>
<path d="M46.8963 42.9818L46.7615 42.4388V42.9818H46.8963Z" fill="white"/>
<path d="M49.2838 52.5586L48.6657 50.0793H46.7615V52.6011H49.2838V52.5586Z" fill="white"/>
<path d="M33.9356 46.1884H34.9442L34.3296 43.6661H33.9356V46.1884Z" fill="white"/>
<path d="M46.7615 49.395H48.4949L47.8669 46.8727H46.7615V49.395Z" fill="white"/>
<path d="M46.0772 46.8727H44.648L44.019 49.395H46.0772V46.8727Z" fill="white"/>
<path d="M46.7615 43.6661V46.1884H47.6951L47.0671 43.6661H46.7615Z" fill="white"/>
<path d="M46.0772 50.0793H43.8492L43.5549 51.2597V52.6011H46.0772V50.0793Z" fill="white"/>
<path d="M39.664 53.6611H37.1412V55.8082H39.664V53.6611Z" fill="white"/>
<path d="M46.0772 43.6661H45.4477L44.8197 46.1884H46.0772V43.6661Z" fill="white"/>
<path d="M42.8706 53.6611H40.3478V55.8082H42.8706V53.6611Z" fill="white"/>
<path d="M46.0772 40.8377C46.011 41.2598 45.9152 41.7683 45.7864 42.3104L45.619 42.9813H46.0772V40.8377Z" fill="white"/>
</svg>
