<svg width="70" height="70" viewBox="0 0 70 70" fill="none" xmlns="http://www.w3.org/2000/svg">
<path d="M56.5071 19.3575C56.6302 20.0744 56.5481 20.7958 56.612 21.5127C56.6302 21.7176 56.5892 21.9224 56.5892 22.1272C56.5892 22.4167 56.7306 22.4479 56.9404 22.3276C57.3191 22.1139 57.6931 21.8912 58.0763 21.6908C58.3911 21.5261 58.6785 21.3123 59.0024 21.1654C59.0663 21.1342 59.1301 21.1075 59.194 21.0808C59.3035 21.0362 59.3902 21.063 59.4677 21.152C59.7688 21.486 59.9786 21.8734 60.1748 22.2697C60.2934 22.5013 60.1702 22.7284 59.9467 22.8442C59.4403 23.1025 58.934 23.3652 58.4413 23.6546C58.3637 23.7036 58.2771 23.7481 58.1858 23.7704C57.9988 23.8149 57.8802 23.9485 57.757 24.0688C57.684 24.1356 57.7388 24.2113 57.7981 24.2692C57.9486 24.4116 58.122 24.523 58.3136 24.5942C58.4732 24.6521 58.6192 24.7323 58.7652 24.8169C59.2031 25.0573 59.6411 25.2978 60.079 25.5383C60.2341 25.6229 60.3071 25.8144 60.225 25.9747C60.0425 26.3398 59.8418 26.6961 59.6182 27.0434C59.4221 27.3462 59.2715 27.3373 58.9978 27.1725C58.382 26.794 57.7524 26.4378 57.1275 26.0726C56.9906 25.9925 56.8538 25.899 56.6758 25.9346C56.5937 25.9479 56.58 25.9747 56.5846 26.0459C56.6393 26.9232 56.5983 27.8004 56.612 28.6777C56.612 28.9092 56.5527 28.9448 56.3155 28.9671C55.8958 29.0116 55.4806 28.9359 55.0655 28.9582C55.0062 28.9582 54.9423 28.9448 54.883 28.9404C54.7416 28.927 54.696 28.8424 54.6869 28.7177C54.6778 28.5441 54.7279 28.3704 54.7142 28.2012C54.6641 27.6446 54.7188 27.0879 54.7006 26.5313C54.696 26.3621 54.7006 26.1929 54.7234 26.0236C54.7371 25.9123 54.6823 25.8812 54.5865 25.8901C54.4451 25.9034 54.2991 25.9435 54.1896 26.0281C53.8703 26.2686 53.5099 26.4333 53.1723 26.6471C52.8713 26.8386 52.561 27.0078 52.2554 27.1859C52.1322 27.2571 51.9954 27.266 51.8585 27.266C51.8038 27.266 51.781 27.2349 51.7536 27.1948C51.4799 26.8029 51.3065 26.3532 51.0374 25.9569C50.9553 25.8366 51.0465 25.6184 51.229 25.5472C51.4844 25.4492 51.7262 25.329 51.9589 25.1909C52.4561 24.9015 52.9534 24.6165 53.446 24.3226C53.6468 24.2068 53.6331 24.0643 53.4096 23.9307C53.1906 23.7971 52.9671 23.6724 52.7344 23.5567C52.4059 23.3919 52.0821 23.2138 51.7627 23.0312C51.6532 22.9689 51.5392 22.9154 51.416 22.8754C51.2974 22.8397 51.2107 22.7685 51.1332 22.6794C51.0146 22.5414 51.0055 22.4211 51.1013 22.2653C51.2928 21.9447 51.489 21.6285 51.6715 21.3034C51.8311 21.0229 51.9406 20.9873 52.2372 21.1431C52.6933 21.3836 53.1358 21.6419 53.5738 21.9135C53.8749 22.1005 54.1805 22.2786 54.4862 22.4612C54.6139 22.5369 54.7462 22.4612 54.7462 22.292C54.7462 22.0382 54.7462 21.7799 54.7371 21.5261C54.7279 21.0407 54.7553 20.5553 54.7371 20.0744C54.7279 19.8963 54.6869 19.7226 54.7051 19.54C54.7051 19.4955 54.6823 19.4599 54.6641 19.4242C54.6914 19.4153 54.7234 19.4064 54.696 19.3664H54.8374C54.8739 19.4242 54.915 19.3975 54.9515 19.3664H56.5071V19.3575Z" fill="#01F2FE"/>
<path d="M7.1203 31.9907C7.05187 31.9417 7.00169 31.9774 6.96063 32.0263V31.6434C6.98344 31.7057 7.04731 31.6746 7.09293 31.6968C7.03818 31.8037 7.13398 31.8928 7.12486 31.9907H7.1203Z" fill="#01F2FE"/>
<path d="M41.8086 43.4617C41.8086 43.4172 41.8041 43.3771 41.8041 43.3326C41.8041 42.4064 41.8041 41.4757 41.8041 40.5494C41.8041 40.447 41.8269 40.4203 41.9364 40.4203C43.6425 40.4203 45.3486 40.4203 47.0548 40.4203C47.1779 40.4203 47.2144 40.4693 47.2008 40.5806C47.1597 40.919 47.1779 41.2619 47.1871 41.6048C47.1871 41.6894 47.1734 41.7696 47.1734 41.8542C47.1734 42.6335 47.1734 43.4083 47.1734 44.1876C47.1734 44.6284 47.1734 45.0648 47.1186 45.5012C47.0411 46.138 46.886 46.7481 46.553 47.3091C46.4435 47.4917 46.3477 47.6966 46.1971 47.8435C45.6862 48.3512 45.1479 48.8321 44.4728 49.1438C43.9299 49.3976 43.3551 49.5089 42.7712 49.6114C42.6389 49.6336 42.5112 49.6381 42.3789 49.6381C41.5395 49.6381 40.7001 49.6425 39.8607 49.6381C39.6965 49.6381 39.5277 49.5802 39.3635 49.5624C39.0624 49.5223 38.7613 49.4778 38.4694 49.3843C37.6345 49.1171 36.932 48.654 36.3207 48.0439C35.9649 47.6921 35.6592 47.3091 35.4403 46.8728C35.2259 46.4586 35.0343 46.0311 34.9293 45.5725C34.9065 45.4611 34.9157 45.3454 34.8974 45.234C34.7879 44.6462 34.8107 44.054 34.7879 43.4617C34.7286 41.6761 34.7697 39.8859 34.7651 38.1003C34.7651 37.6639 34.7651 37.223 34.7971 36.7866C34.8244 36.4126 34.9339 36.0474 35.0662 35.6912C35.162 35.4284 35.2624 35.1702 35.3901 34.9208C35.7186 34.284 36.1656 33.7407 36.6857 33.242C37.2012 32.7433 37.8261 32.4137 38.4876 32.1377C39.0989 31.8794 39.7467 31.7859 40.4036 31.7191C41.1563 31.6434 41.8953 31.7191 42.6435 31.7814C43.2091 31.8259 43.7474 31.964 44.2219 32.2712C44.4819 32.4405 44.7419 32.6141 44.9974 32.7967C45.3669 33.0594 45.668 33.3756 45.9599 33.7096C46.1059 33.8743 46.2154 34.0569 46.334 34.2395C46.594 34.6447 46.7902 35.0767 46.9225 35.5353C47.032 35.9272 47.1004 36.3324 47.1278 36.7376C47.1506 37.0449 47.1643 37.3522 47.1871 37.6594C47.1962 37.7574 47.1597 37.7886 47.0639 37.8153C46.8221 37.8821 46.5803 37.7975 46.3431 37.8019C46.2929 37.8019 46.2336 37.7886 46.1789 37.7886C45.5539 37.7886 44.9244 37.7886 44.2994 37.7886C44.0987 37.7886 44.0941 37.7886 44.1033 37.5971C44.1261 37.2097 44.1352 36.8178 44.0394 36.4393C43.8022 35.5175 43.127 34.8718 42.1325 34.7249C41.6034 34.6447 41.0605 34.6581 40.5268 34.6803C39.7695 34.716 39.1399 35.0143 38.6108 35.5175C38.296 35.8159 38.0953 36.1855 37.9584 36.5862C37.8672 36.849 37.8353 37.1251 37.8033 37.4011C37.7623 37.7173 37.744 38.0335 37.744 38.3496C37.744 40.1219 37.744 41.8987 37.7531 43.671C37.7531 44.1787 37.7896 44.6863 37.9493 45.1717C38.0633 45.5101 38.2778 45.7951 38.5469 46.04C38.9848 46.4408 39.5095 46.6456 40.1025 46.6679C40.7913 46.6902 41.4802 46.6857 42.1645 46.6724C42.4017 46.6679 42.6526 46.659 42.8852 46.5788C43.5056 46.3607 44.0804 45.755 44.085 45.0648C44.085 44.575 44.0987 44.0896 44.1124 43.5998C44.1124 43.5018 44.0759 43.4573 43.971 43.435C43.6106 43.3549 43.2502 43.3994 42.8898 43.4038C42.5385 43.4083 42.1827 43.3905 41.8269 43.4573L41.8086 43.4617Z" fill="#016DFE"/>
<path d="M27.6487 31.6478C29.2088 31.6478 30.769 31.6478 32.3291 31.6478C32.434 31.6478 32.5298 31.6701 32.6256 31.7057C32.6576 31.7191 32.6667 31.7235 32.653 31.7636C32.6165 31.866 32.6393 31.9729 32.6393 32.0753C32.6485 32.8279 32.6165 33.5849 32.6576 34.3375C32.6713 34.5512 32.5344 34.667 32.32 34.6358C32.0235 34.5957 31.727 34.6046 31.4259 34.6358C31.2388 34.6536 31.0518 34.6358 30.8602 34.6358C29.6559 34.6358 28.447 34.6314 27.2426 34.6358C26.8959 34.6358 26.5492 34.5868 26.2025 34.6091C26.0566 34.618 25.906 34.6447 25.76 34.6625C25.7099 34.667 25.6779 34.6893 25.6825 34.7427C25.7281 35.2414 25.6962 35.7446 25.7099 36.2434C25.7281 36.9603 25.7235 37.6772 25.7099 38.3942C25.7099 38.5946 25.6916 38.795 25.6871 38.9998C25.6871 39.1913 25.7372 39.2313 25.938 39.2447C26.0657 39.2536 26.1889 39.2135 26.3166 39.2135C26.8458 39.2135 27.3749 39.2313 27.8996 39.2135C28.5838 39.1868 29.2727 39.1824 29.957 39.169C30.6412 39.1601 31.3164 39.2447 32.0007 39.2135C32.1786 39.2046 32.2151 39.2625 32.2105 39.4362C32.1786 40.26 32.1877 41.0794 32.1831 41.9032C32.1831 42.1436 32.1466 42.1793 31.8957 42.1748C30.8283 42.157 29.7562 42.1392 28.6888 42.1436C27.7764 42.1481 26.8594 42.1525 25.9471 42.157C25.7099 42.157 25.6916 42.1882 25.6962 42.4108C25.719 43.6888 25.7509 44.9713 25.6962 46.2493C25.6962 46.3518 25.6962 46.4497 25.6916 46.5521C25.6871 46.6546 25.7418 46.6902 25.833 46.7035C25.8878 46.708 25.9471 46.708 26.0018 46.708C27.7581 46.708 29.519 46.7258 31.2753 46.708C31.6266 46.708 31.9824 46.7258 32.3337 46.708C32.4249 46.7035 32.4979 46.7392 32.5755 46.7703C32.6211 46.7882 32.6439 46.8193 32.6439 46.8728C32.6439 47.3804 32.6439 47.8881 32.6393 48.3957C32.6393 48.7163 32.5983 49.0414 32.6393 49.362C32.6621 49.5579 32.5709 49.6336 32.3337 49.6426C32.206 49.6426 32.0782 49.6426 31.9505 49.6426C28.9488 49.6426 25.9471 49.6426 22.9454 49.6426C22.7264 49.6426 22.6717 49.5891 22.6625 49.3665C22.6534 49.1928 22.6899 49.0236 22.6899 48.8499C22.6899 43.5597 22.6899 38.2739 22.6899 32.9837C22.6899 32.5963 22.6762 32.2089 22.6625 31.8215C22.6625 31.7191 22.699 31.6701 22.7948 31.6567C22.8496 31.6478 22.9089 31.6478 22.9636 31.6478C24.5283 31.6478 26.0931 31.6478 27.6578 31.6478H27.6487Z" fill="#016DFE"/>
<path d="M61.4932 49.6381C61.037 49.6381 60.5808 49.6381 60.12 49.6381C59.9969 49.6381 59.9193 49.598 59.8646 49.4867C59.6867 49.1394 59.5909 48.7609 59.4631 48.3913C59.2578 47.8079 59.0708 47.2201 58.8792 46.6368C58.6146 45.8352 58.35 45.0292 58.0809 44.2277C57.7935 43.3638 57.497 42.5043 57.205 41.6405C57.0043 41.0437 56.7853 40.447 56.612 39.8459C56.393 39.0844 56.1649 38.3274 55.9414 37.5704C55.8958 37.4234 55.8228 37.2809 55.7863 37.1295C55.7635 37.0316 55.6312 37.0093 55.5445 37.0805C55.4943 37.1251 55.4487 37.1741 55.4441 37.2409C55.3803 37.7797 55.1659 38.2829 55.0108 38.7994C54.5454 40.3669 53.998 41.9032 53.478 43.4528C53.0993 44.5795 52.7298 45.7105 52.3375 46.8327C52.1778 47.2914 51.9726 47.7322 51.8038 48.1864C51.6806 48.5159 51.5894 48.8544 51.489 49.1973C51.3886 49.558 51.2563 49.6381 50.9416 49.6337C50.0748 49.6247 49.2081 49.6337 48.3413 49.6337C48.1406 49.6337 48.1451 49.6337 48.1908 49.4466C48.282 49.0681 48.4645 48.7163 48.5785 48.3423C48.7336 47.8391 48.9207 47.3492 49.094 46.8505C49.313 46.2182 49.532 45.5858 49.7464 44.9535C49.906 44.4904 50.0748 44.0273 50.2025 43.5553C50.3029 43.1901 50.4261 42.8339 50.5493 42.4821C50.7591 41.8809 50.9598 41.2798 51.1651 40.6786C51.2427 40.4515 51.2928 40.2155 51.3841 39.9928C51.4525 39.8281 51.5072 39.6544 51.5711 39.4896C51.6304 39.3427 51.6669 39.1868 51.708 39.0354C51.7764 38.7504 51.9132 38.4877 51.9954 38.2116C52.0729 37.9489 52.1368 37.6862 52.228 37.4279C52.2873 37.2587 52.374 37.0939 52.4242 36.9202C52.5154 36.6219 52.593 36.3146 52.707 36.0207C52.9898 35.2993 53.2088 34.5601 53.4643 33.8343C53.6741 33.2331 53.8703 32.632 54.071 32.0263C54.0847 31.9774 54.0984 31.9284 54.1075 31.8794C54.1394 31.6924 54.1987 31.6434 54.3949 31.6434C55.0016 31.6523 55.6084 31.6612 56.2196 31.6746C56.4295 31.679 56.6393 31.6478 56.8492 31.6924C57.1092 31.7458 57.1138 31.7369 57.164 31.9729C57.2552 32.387 57.392 32.7878 57.5152 33.1975C57.6065 33.4959 57.7296 33.7898 57.8163 34.0881C57.8893 34.3419 57.976 34.5913 58.0626 34.8451C58.3957 35.8159 58.7332 36.7866 59.0617 37.7619C59.2807 38.4076 59.4905 39.0577 59.7049 39.7034C60.1976 41.1773 60.6766 42.6602 61.1921 44.1252C61.5844 45.2385 61.9083 46.3696 62.3052 47.4828C62.5241 48.1018 62.7112 48.7386 62.9758 49.3442C62.9803 49.3576 62.9849 49.3709 62.9894 49.3843C63.029 49.5565 62.9575 49.6426 62.775 49.6426C62.3417 49.6426 61.9083 49.6426 61.4749 49.6426L61.4932 49.6381Z" fill="#016DFE"/>
<path d="M7.12031 31.9907C7.13399 31.8883 7.03363 31.7992 7.08838 31.6968C7.1568 31.6567 7.22979 31.6478 7.30735 31.6478C8.20603 31.6478 9.10928 31.6478 10.008 31.6434C10.0992 31.6434 10.1403 31.6657 10.1266 31.7592C10.1175 31.8215 10.1357 31.8839 10.1539 31.9462C10.3319 32.583 10.5235 33.2109 10.7059 33.8476C11.0344 34.9832 11.4039 36.1053 11.746 37.2364C12.0973 38.4031 12.4622 39.5698 12.8226 40.7365C12.9458 41.1328 13.0599 41.5291 13.1739 41.9299C13.3153 42.4153 13.475 42.9007 13.6438 43.3771C13.7076 43.5597 13.7487 43.7556 13.8947 43.9026C14.0042 44.0139 14.1091 43.9917 14.1228 43.8492C14.1866 43.1901 14.474 42.5845 14.6428 41.9522C14.9028 40.9725 15.1902 39.9973 15.5004 39.031C15.9429 37.655 16.3672 36.2745 16.7869 34.8897C16.9146 34.4622 17.0606 34.0391 17.1883 33.6116C17.3389 33.0995 17.4985 32.5919 17.6582 32.0842C17.6947 31.9685 17.6947 31.8482 17.7449 31.7324C17.7723 31.6657 17.8088 31.6434 17.8772 31.6434C18.8854 31.6434 19.8935 31.6434 20.9017 31.6434C21.0021 31.6434 21.0157 31.6835 20.9975 31.7592C20.9427 31.9551 20.888 32.1555 20.8196 32.347C20.5641 33.0773 20.3634 33.8209 20.1171 34.5557C20.0167 34.8585 19.9118 35.1657 19.816 35.473C19.3415 37.0182 18.8671 38.5634 18.3927 40.1042C18.0368 41.2619 17.6719 42.4197 17.3069 43.5731C16.9283 44.7798 16.5542 45.9911 16.171 47.1934C15.9794 47.799 15.7742 48.4002 15.5734 49.0058C15.5278 49.1394 15.5141 49.2819 15.4503 49.4066C15.4001 49.5001 15.3317 49.558 15.2176 49.5847C15.0443 49.6248 14.8664 49.6381 14.6884 49.6381C14.0863 49.6381 13.4841 49.6381 12.8774 49.6381C12.5535 49.6381 12.4486 49.5802 12.3391 49.2819C12.1931 48.8766 12.0699 48.467 11.9422 48.0573C11.8646 47.8168 11.7962 47.5764 11.7278 47.3359C11.4221 46.2983 11.0891 45.2652 10.7744 44.2321C10.5235 43.4128 10.2862 42.5934 10.0125 41.7785C9.81181 41.1729 9.63846 40.5628 9.45598 39.9528C9.20052 39.1067 8.93137 38.2695 8.66678 37.4279C8.43413 36.6887 8.21972 35.9495 8.04181 35.1969C7.90951 34.6447 7.73616 34.097 7.58106 33.5493C7.53544 33.3845 7.48526 33.2242 7.45789 33.0595C7.40314 32.7477 7.27541 32.4627 7.17049 32.1644C7.15224 32.111 7.14312 32.0486 7.13399 31.9907H7.12031Z" fill="#016DFE"/>
</svg>
