<svg width="70" height="70" viewBox="0 0 70 70" fill="none" xmlns="http://www.w3.org/2000/svg">
<path d="M46.244 32.0195C46.8654 30.1545 46.6514 28.1114 45.6577 26.4149C44.1633 23.8129 41.1589 22.4742 38.2248 23.1041C36.9195 21.6337 35.0442 20.7974 33.0781 20.8094C30.0789 20.8025 27.4178 22.7335 26.4951 25.5872C24.5684 25.9818 22.9053 27.1878 21.9321 28.8971C20.4265 31.4923 20.7698 34.7637 22.7812 36.9891C22.1598 38.8542 22.3738 40.8973 23.3675 42.5937C24.862 45.1958 27.8663 46.5344 30.8004 45.9045C32.1049 47.375 33.9811 48.2112 35.9472 48.1984C38.9481 48.2061 41.61 46.2734 42.5327 43.4171C44.4594 43.0225 46.1225 41.8165 47.0957 40.1072C48.5996 37.5121 48.2555 34.2432 46.2449 32.0178L46.244 32.0195ZM35.9489 46.4086C34.748 46.4103 33.5848 45.9901 32.6629 45.2206C32.7049 45.1983 32.7776 45.1581 32.8247 45.129L38.2787 41.9792C38.5578 41.8208 38.7289 41.5238 38.7272 41.2028V33.514L41.0323 34.845C41.0571 34.857 41.0733 34.8809 41.0768 34.9083V41.2756C41.0733 44.107 38.7803 46.4026 35.9489 46.4086ZM24.921 41.6984C24.3193 40.6593 24.1028 39.4413 24.3091 38.2593C24.3493 38.2832 24.4203 38.3269 24.4708 38.356L29.9248 41.5058C30.2013 41.6676 30.5437 41.6676 30.821 41.5058L37.4793 37.661V40.3229C37.481 40.3503 37.4682 40.3769 37.4468 40.394L31.9337 43.5772C29.478 44.9912 26.3419 44.1507 24.9219 41.6984H24.921ZM23.4856 29.7933C24.0848 28.7524 25.0306 27.9564 26.157 27.543C26.157 27.5901 26.1544 27.6731 26.1544 27.7313V34.0318C26.1527 34.352 26.3239 34.649 26.6021 34.8073L33.2604 38.6513L30.9554 39.9823C30.9323 39.9977 30.9032 40.0002 30.8775 39.9891L25.3636 36.8033C22.913 35.3842 22.0725 32.2489 23.4848 29.7941L23.4856 29.7933ZM42.424 34.2005L35.7657 30.3556L38.0707 29.0255C38.0938 29.0101 38.1229 29.0075 38.1486 29.0186L43.6625 32.2019C46.1173 33.6201 46.9587 36.7605 45.5404 39.2154C44.9404 40.2545 43.9955 41.0505 42.8699 41.4647V34.9759C42.8725 34.6558 42.7022 34.3597 42.4249 34.2005H42.424ZM44.7179 30.7476C44.6777 30.7228 44.6066 30.68 44.5561 30.6509L39.1021 27.5011C38.8257 27.3393 38.4833 27.3393 38.206 27.5011L31.5477 31.3459V28.684C31.546 28.6566 31.5588 28.63 31.5802 28.6129L37.0933 25.4323C39.5489 24.0157 42.6885 24.8588 44.1042 27.3153C44.7025 28.3527 44.919 29.5673 44.7162 30.7476H44.7179ZM30.2946 35.4921L27.9887 34.1611C27.9639 34.1491 27.9476 34.1251 27.9442 34.0977V27.7305C27.9459 24.8956 30.2458 22.5983 33.0806 22.6C34.2798 22.6 35.4404 23.0211 36.3623 23.788C36.3203 23.8103 36.2484 23.8505 36.2005 23.8796L30.7465 27.0295C30.4675 27.1878 30.2963 27.484 30.298 27.8049L30.2946 35.4903V35.4921ZM31.5468 32.7924L34.5126 31.0797L37.4784 32.7916V36.2162L34.5126 37.928L31.5468 36.2162V32.7924Z" fill="white"/>
</svg>
