<svg width="70" height="70" viewBox="0 0 70 70" fill="none" xmlns="http://www.w3.org/2000/svg">
<path d="M26.928 19.3114C26.918 19.052 27.3805 18.4533 27.9528 17.981C28.6017 17.4455 29.4002 17.1228 30.0524 17.1295C30.6347 17.1361 31.6295 17.4588 32.2717 17.8513C32.9206 18.2471 34.2448 18.6362 35.2663 18.7293C36.6671 18.8557 37.5056 18.726 38.8432 18.1739C40.3871 17.5353 40.7365 17.502 41.8378 17.8679C42.7628 18.1772 43.2586 18.6262 43.751 19.5975C44.1636 20.409 45.0487 21.317 46.0802 21.9856C47.1017 22.6475 48.3528 23.1364 49.3243 23.2528C50.1928 23.3559 51.354 23.7384 51.903 24.1043C52.452 24.4702 52.9079 25.0323 52.9145 25.3516C52.9245 25.6709 52.9778 26.6055 53.0377 27.4304C53.0975 28.2519 53.5268 29.6755 53.9926 30.5902C54.4584 31.5048 55.1672 32.4761 55.5731 32.7521C55.9757 33.0249 56.6611 33.5138 57.1003 33.8331C57.7192 34.2888 57.8922 34.7245 57.8956 35.8288C57.8956 36.637 57.6494 37.5982 57.3166 38.0739C56.9972 38.5295 56.6412 39.8034 56.5214 40.901C56.3916 42.0884 56.4582 43.4056 56.6811 44.1506C56.8907 44.8424 57.1735 45.4046 57.31 45.3979C57.4464 45.3946 57.5595 45.8403 57.5595 46.3891C57.5595 46.9379 57.3832 47.7228 57.1702 48.1353C56.9539 48.5477 56.6112 49.0333 56.4083 49.2163C56.2053 49.3992 55.5931 49.7784 55.0507 50.0578C54.5083 50.3405 53.5767 51.3882 52.9811 52.386C52.3855 53.3872 51.8964 54.6178 51.8997 55.1201C51.8997 55.6223 51.6834 56.5203 51.4172 57.1157C51.1477 57.7111 50.5488 58.3829 50.0863 58.6124C49.6205 58.8419 48.5657 59.0282 47.7439 59.0282C46.6359 59.0282 45.7275 59.3309 44.2502 60.1923C43.1521 60.8343 42.2537 61.4696 42.2571 61.6059C42.2571 61.7423 41.8079 62.341 41.2589 62.9364C40.5568 63.6947 39.9579 64.0173 39.2591 64.0173C38.7101 64.0173 37.7751 63.7147 37.1796 63.3488C36.4941 62.923 35.1665 62.5904 33.5494 62.4341C31.4332 62.2312 30.8942 62.2811 30.3884 62.7268C30.0524 63.0195 29.327 63.3654 28.778 63.4918C28.0859 63.6515 27.4537 63.5384 26.7184 63.1226C26.1328 62.79 25.4307 61.9984 25.1579 61.3565C24.8318 60.5848 24.0698 59.8165 22.8953 59.0714C21.7607 58.353 20.4696 57.8607 19.2951 57.6944C17.9309 57.5049 17.2754 57.2188 16.7164 56.5702C16.1541 55.9216 15.9678 55.283 15.9678 54.0391C15.9678 53.0279 15.6949 51.8239 15.2757 50.9624C14.893 50.1841 13.775 48.8005 12.7901 47.8858C11.3927 46.5886 11 46.0033 11 45.2249C10.9967 44.6761 11.366 43.6284 11.8186 42.8967C12.4807 41.819 12.6371 41.1239 12.6437 39.238C12.6482 37.688 12.4862 36.6902 12.1579 36.2445C11.8851 35.8786 11.6588 35.0937 11.6522 34.4983C11.6455 33.9029 11.7919 33.118 11.9749 32.7521C12.1579 32.3863 12.9066 31.7111 13.6386 31.2554C14.3706 30.7964 15.4953 29.6389 16.1341 28.6777C16.8728 27.5734 17.302 26.5323 17.2987 25.8505C17.2987 25.2551 17.5216 24.3205 17.7978 23.7717C18.0706 23.2229 18.5964 22.6242 18.9624 22.4413C19.3284 22.2583 20.2999 22.1086 21.1251 22.1086C22.2032 22.1086 23.228 21.7827 24.7852 20.9445C25.9731 20.3026 26.938 19.5708 26.928 19.3114Z" fill="#F6AB2C"/>
<path d="M43.0856 7.62041C44.0007 7.33104 45.7209 6.96517 46.9121 6.80884C48.1033 6.64919 51.0214 6.57934 53.4004 6.65584C55.7794 6.73234 58.1086 6.89199 58.5777 7.01173C59.353 7.21462 59.2033 7.35099 56.9141 8.55171C55.5299 9.27347 53.8762 10.2646 53.234 10.7469C52.5952 11.2325 51.0979 12.553 49.9067 13.6805C48.7155 14.8114 47.0685 16.0421 46.2466 16.4179C45.4181 16.8004 44.0439 17.1097 43.1688 17.1131C42.0176 17.1164 41.6549 17.2295 41.8379 17.5222C42.0209 17.8182 41.8678 17.8581 41.2556 17.6685C40.7998 17.5288 39.4522 17.1929 38.261 16.9235C37.0698 16.6574 36.0616 16.4013 36.0184 16.3614C35.9718 16.3215 36.4975 15.6263 37.1829 14.8181C37.8684 14.0098 39.176 12.7958 40.091 12.1239C41.0061 11.4521 42.3536 10.574 43.0856 10.1748C43.9241 9.71584 44.1071 9.52958 43.5847 9.66262C43.1289 9.78236 41.9311 10.3079 40.9229 10.8334C39.9147 11.3589 38.1579 12.5397 37.0132 13.4577C34.9736 15.0908 34.9436 15.1041 35.486 14.0431C35.7888 13.4477 36.574 12.3168 37.2329 11.5319C37.8883 10.7436 39.1028 9.6593 39.9247 9.1238C40.7465 8.58497 42.1706 7.90978 43.0856 7.62041Z" fill="#89B327" fill-opacity="0.97"/>
<path d="M32.1752 31.089C30.7511 26.1066 30.3951 24.4269 30.6346 23.8448C30.9407 23.1098 31.0738 23.0865 34.4877 23.1796C37.3991 23.2561 38.0879 23.3725 38.3907 23.8448C38.6668 24.2739 38.6269 24.9391 38.2243 26.5057C37.9282 27.6532 37.0298 30.8063 36.2279 33.5071C35.4227 36.2079 34.6541 38.4164 34.5176 38.4131C34.3812 38.4098 34.3413 38.2568 34.4345 38.0738C34.5276 37.8909 34.4711 37.7046 34.3147 37.6581C34.1583 37.6115 33.1967 34.6546 32.1752 31.089Z" fill="#F8F6E3"/>
<path d="M23.1847 27.0778C24.0565 26.4491 25.2676 25.6143 25.8699 25.2218C26.5653 24.7728 27.2208 24.5899 27.6633 24.7229C28.0493 24.8393 28.4652 25.0854 28.5883 25.2684C28.7148 25.4513 29.2804 26.8749 29.846 28.4282C30.4117 29.9814 31.33 32.5292 31.889 34.0825C32.4447 35.6358 32.9837 37.3221 33.0835 37.8244C33.1867 38.3266 33.1568 38.7324 33.0203 38.7257C32.8839 38.7191 32.2284 38.3066 31.563 37.8111C30.9008 37.3155 29.1773 35.9983 27.7365 34.8841C26.2958 33.7699 24.895 32.649 24.6188 32.3895C24.346 32.1301 23.5574 31.5081 22.8719 31.0059C21.9569 30.334 21.6209 29.8418 21.6076 29.1566C21.5976 28.4149 21.9203 27.9891 23.1847 27.0778Z" fill="#F8F6E3"/>
<path d="M38.9696 29.2597C39.7482 27.0645 40.5468 25.1586 40.7398 25.0256C40.9327 24.8892 41.4252 24.7761 41.8378 24.7761C42.2504 24.7728 43.5214 25.4247 44.666 26.2296C45.8106 27.0312 46.9319 27.9293 47.1615 28.2253C47.3911 28.518 47.5076 29.0967 47.4244 29.5091C47.3246 29.9948 45.3215 31.7742 41.7147 34.5814C38.6602 36.9596 36.0349 38.9419 35.8785 38.9885C35.7255 39.0351 35.599 38.8854 35.5957 38.6559C35.5957 38.4264 36.0349 37.1192 36.5739 35.7456C37.113 34.3752 38.191 31.4549 38.9696 29.2597Z" fill="#F8F6E3"/>
<path d="M17.6181 35.8653C18.0673 34.4284 18.6429 32.9151 18.8958 32.5026C19.1686 32.0636 19.6877 31.7543 20.1602 31.7543C20.626 31.7543 23.3478 33.3541 26.6984 35.5926C29.856 37.7046 32.5013 39.6138 32.5778 39.8333C32.6843 40.1426 31.6095 40.1792 27.9195 39.9863C25.2809 39.8499 22.0734 39.7435 20.7924 39.7535C18.9823 39.7635 18.2769 39.6204 16.7995 38.4763L17.6181 35.8653Z" fill="#F8F6E3"/>
<path d="M36.4309 39.7768C36.6139 39.5805 39.309 37.7013 42.4201 35.5959C46.1833 33.0514 48.3827 31.7676 48.9916 31.7609C49.5306 31.7576 50.033 31.9937 50.216 32.3363C50.3857 32.6556 50.8316 33.8896 51.2076 35.0803C51.5869 36.2711 51.8963 37.6547 51.8997 38.157C51.8997 38.6991 51.6667 39.1914 51.3207 39.3643C51.0013 39.524 47.4444 39.7601 43.4183 39.8932C38.2709 40.0562 36.1979 40.0229 36.4309 39.7768Z" fill="#F8F6E3"/>
<path d="M17.465 42.0718C18.004 41.523 18.6329 41.3766 20.7924 41.3001C22.2564 41.2469 25.5139 41.1737 28.0293 41.1338C30.5448 41.0972 32.6011 41.1804 32.5944 41.3168C32.5911 41.4531 30.0058 43.2791 26.8548 45.3713C23.7038 47.4667 20.8256 49.2328 20.4596 49.2994C20.0936 49.3659 19.5513 49.2262 19.2584 48.9867C18.9623 48.7472 18.2902 47.2472 16.7995 42.7503L17.465 42.0718Z" fill="#F8F6E3"/>
<path d="M39.9246 43.7847C38.0047 42.441 36.3643 41.2569 36.2878 41.1538C36.2079 41.0507 39.3523 41.0407 43.2752 41.1338C47.6174 41.2403 50.6985 41.4531 51.1543 41.6859C51.6568 41.9421 51.903 42.3645 51.8997 42.9798C51.8997 43.482 51.6867 44.4932 51.4239 45.2249C51.1643 45.9566 50.8649 46.9678 50.7617 47.47C50.6586 47.9723 50.3358 48.6075 50.0497 48.8836C49.7602 49.1563 49.2378 49.3825 48.8851 49.3825C48.5324 49.3825 47.1582 48.6707 45.8306 47.8026C44.503 46.9345 41.8478 45.1251 39.9246 43.7847Z" fill="#F8F6E3"/>
<path d="M27.7798 46.2261C29.4268 44.9621 31.2668 43.5086 31.8691 42.9964C32.4713 42.4842 33.1068 42.0651 33.2832 42.0651C33.4595 42.0651 33.6026 42.1383 33.6026 42.2314C33.6026 42.3246 33.1701 43.5585 32.6377 44.9754C32.1086 46.3924 31.2768 48.6741 30.7877 50.0477C30.2986 51.4181 29.6863 53.0279 29.4235 53.6233C29.1606 54.2186 28.9443 54.8539 28.9443 55.0369C28.9443 55.2198 28.7214 55.5956 28.4452 55.8684C28.1724 56.1411 27.5535 56.3307 27.071 56.2841C26.5886 56.2376 26.1394 56.0147 26.0728 55.7852C26.0063 55.5557 25.8 55.4426 25.617 55.5358C25.434 55.6289 25.0979 55.4027 24.8683 55.0369C24.6388 54.6677 24.2295 54.375 23.9533 54.3783C23.6805 54.3849 23.1182 54.049 22.7089 53.6333C22.2963 53.2142 21.8904 52.5024 21.8005 52.0434C21.6674 51.3682 21.9303 50.9591 23.2113 49.8681C24.0764 49.1264 26.1327 47.4866 27.7798 46.2261Z" fill="#F8F6E3"/>
<path d="M35.9883 43.0629C35.7754 43.0629 35.599 42.8401 35.599 42.564C35.599 42.288 35.6755 42.0651 35.7654 42.0651C35.8586 42.0651 36.9433 42.8334 38.1777 43.7714C39.4122 44.7127 42.0374 46.7682 44.0105 48.3448C45.9836 49.9213 47.5908 51.3981 47.5874 51.6276C47.5808 51.8571 47.4477 52.3061 47.2846 52.6254C47.1249 52.9448 46.1167 53.8062 45.0387 54.5379C43.964 55.2697 43.0489 55.9815 43.0024 56.1178C42.9558 56.2542 42.5066 56.3739 42.0042 56.3806C41.5017 56.3906 40.9228 56.2043 40.7165 55.9648C40.5102 55.7287 39.8647 54.1887 39.2791 52.5423C38.6934 50.8959 38.0845 49.2495 37.9248 48.8836C37.7651 48.5177 37.256 47.1707 36.7969 45.8901C36.3344 44.6096 36.0515 43.4488 36.168 43.3124C36.2811 43.176 36.2013 43.0629 35.9883 43.0629Z" fill="#F8F6E3"/>
<path d="M34.308 43.4787C34.4677 43.4321 34.501 43.1727 34.3812 42.8966C34.2514 42.5973 34.338 42.3977 34.6008 42.3977C34.8737 42.3977 35.3428 43.6051 35.8586 45.6407C36.3111 47.4234 36.9765 49.9313 37.3359 51.2119C37.6986 52.4924 38.1278 54.1754 38.2942 54.9537C38.4572 55.732 38.5104 56.7032 38.4106 57.1157C38.3108 57.5281 37.9747 57.9039 37.662 57.9538C37.3525 58.0037 35.8253 58.0436 34.2681 58.047C31.8391 58.0503 31.3567 57.9538 30.8576 57.3751C30.3984 56.8429 30.3385 56.4704 30.5714 55.6189C30.7344 55.0236 31.1005 53.7164 31.3833 52.7086C31.6694 51.7008 32.3748 49.2328 32.9571 47.2206C33.5394 45.2083 34.1483 43.5253 34.308 43.4787Z" fill="#F8F6E3"/>
<path d="M27.0911 12.2966C26.6685 11.5649 26.1794 10.3409 26.0097 9.57585L25.7002 8.18555L26.572 8.51816C27.0545 8.70109 27.8963 9.13016 28.4453 9.47274C28.9943 9.812 29.916 10.587 30.4916 11.1923C31.0672 11.801 31.9323 12.8953 32.4148 13.627C32.8973 14.3588 33.2866 15.2934 33.2799 15.7058C33.2733 16.1183 33.1202 16.4542 32.9372 16.4542C32.7542 16.4542 32.1187 16.258 31.5231 16.0185C30.9275 15.779 29.8627 15.1437 29.1507 14.6049C28.442 14.0661 27.5136 13.0283 27.0911 12.2966Z" fill="#89B327" fill-opacity="0.97"/>
<path d="M33.7424 34.6646C33.4529 33.5204 33.3032 32.2499 33.413 31.8374C33.5427 31.3518 33.8721 31.0824 34.3579 31.0757C34.7639 31.0658 35.3229 31.3019 35.599 31.5979C36.0449 32.0802 36.0283 32.3829 35.4726 34.3586C35.1265 35.5793 34.714 36.7268 34.5509 36.9097C34.3879 37.0926 34.2581 37.1292 34.2614 36.9929C34.2648 36.8565 34.0319 35.8088 33.7424 34.6646Z" fill="#F6AB2C"/>
<path d="M37.6953 34.4218C38.0579 33.6036 38.5204 32.8186 38.7234 32.6822C38.9264 32.5425 39.1293 32.4261 39.1759 32.4261C39.2225 32.4228 39.5586 32.5692 39.9246 32.7521C40.2906 32.935 40.5934 33.4206 40.6 33.8331C40.6067 34.3253 40.0643 35.0471 39.0195 35.9318C38.1444 36.6769 37.2427 37.3887 37.0132 37.5117C36.7037 37.6814 36.6538 37.5051 36.8168 36.8265C36.9366 36.3243 37.3326 35.24 37.6953 34.4218Z" fill="#F6AB2C"/>
<path d="M30.1422 36.005C28.3488 34.3985 28.2123 34.1856 28.5717 33.5005C28.8179 33.0315 29.2704 32.7521 29.7862 32.7521C30.4184 32.7521 30.7345 33.0415 31.1537 33.9994C31.4532 34.6845 31.8125 35.546 31.9556 35.9119C32.0953 36.2777 32.2983 36.8399 32.4081 37.1592C32.5146 37.4785 32.4913 37.7445 32.3549 37.7512C32.2185 37.7545 31.2236 36.9696 30.1422 36.005Z" fill="#F6AB2C"/>
<path d="M25.5604 38.1304C25.5305 37.6115 25.6303 37.086 25.7834 36.9662C25.9364 36.8432 26.3723 36.7467 26.755 36.75C27.1343 36.7567 28.1192 37.1891 28.9443 37.7179C29.7662 38.2468 30.6646 38.9153 30.9408 39.2047C31.3933 39.6837 31.2435 39.7169 29.2771 39.5473C28.0859 39.4475 26.7783 39.2978 26.3657 39.218C25.8166 39.1116 25.6037 38.8189 25.5604 38.1304Z" fill="#F6AB2C"/>
<path d="M37.9348 39.4043C37.9348 39.3111 38.7966 38.6792 39.8447 37.994C40.8962 37.3122 41.9409 36.75 42.1705 36.7467C42.4001 36.7467 42.8094 36.8166 43.0855 36.9097C43.3617 37.0028 43.5913 37.4119 43.598 37.8244C43.6079 38.2368 43.4216 38.7424 43.182 38.9519C42.9458 39.1581 41.6681 39.3843 40.3405 39.4508C39.0162 39.5174 37.9315 39.4974 37.9348 39.4043Z" fill="#F6AB2C"/>
<path d="M41.1757 43.9776C40.5801 43.6583 39.5652 42.9632 38.9264 42.4343L37.7618 41.4764L40.2573 41.646C41.6282 41.7392 42.9491 41.9853 43.192 42.1915C43.4349 42.3944 43.5846 42.8468 43.5248 43.196C43.4649 43.5419 43.1587 43.9909 42.8393 44.1938C42.3968 44.4732 42.0075 44.4233 41.1757 43.9776Z" fill="#F6AB2C"/>
<path d="M25.6802 43.3922C25.6237 42.9366 25.6569 42.3745 25.7568 42.145C25.8765 41.8656 26.7516 41.7292 28.4386 41.7292C29.8128 41.7292 30.9474 41.7691 30.9541 41.8124C30.9607 41.8589 30.1488 42.4676 29.1506 43.1627C28.0227 43.951 27.0411 44.3934 26.5586 44.3269C26.0163 44.257 25.7534 43.9743 25.6802 43.3922Z" fill="#F6AB2C"/>
<path d="M37.3159 45.7205C37.1263 45.2648 36.8867 44.5331 36.7836 44.1007C36.6471 43.5186 36.707 43.3789 37.0132 43.5752C37.2427 43.7182 38.1544 44.4499 39.0362 45.195C40.3006 46.2593 40.6233 46.7316 40.5335 47.3835C40.4436 48.0587 40.2373 48.2151 39.4388 48.2151C38.7134 48.2151 38.3474 47.9955 38.0546 47.3835C37.8383 46.9279 37.5056 46.1795 37.3159 45.7205Z" fill="#F6AB2C"/>
<path d="M29.4934 45.6374C30.1622 45.0453 30.8742 44.3768 31.0738 44.1539C31.2768 43.9311 31.7027 43.7448 32.0221 43.7382C32.5612 43.7282 32.5545 43.8546 31.909 45.471C31.5264 46.4323 31.0772 47.48 30.9108 47.7993C30.7444 48.1219 30.272 48.3847 29.8594 48.388C29.4468 48.3914 28.9211 48.2051 28.6881 47.9723C28.4586 47.7394 28.2689 47.3636 28.2722 47.1341C28.2756 46.9079 28.8246 46.2327 29.4934 45.6374Z" fill="#F6AB2C"/>
<path d="M33.3997 49.1297C33.2865 48.6142 33.4662 47.3137 33.8156 46.1363C34.155 44.9921 34.5176 44.1705 34.6175 44.3069C34.7173 44.4433 34.9668 45.0819 35.1698 45.7205C35.3761 46.3624 35.6323 47.3736 35.7388 47.9656C35.8552 48.6142 35.7654 49.2528 35.5158 49.5621C35.2863 49.8449 34.7639 50.0677 34.3513 50.061C33.8122 50.0511 33.5461 49.7916 33.3997 49.1297Z" fill="#F6AB2C"/>
</svg>
