<svg width="90" height="90" viewBox="0 0 90 90" fill="none" xmlns="http://www.w3.org/2000/svg">
<path fill-rule="evenodd" clip-rule="evenodd" d="M26.7801 47.2672C26.6318 48.9116 28.3167 49.8147 29.8263 49.7877C30.945 49.7608 32.3199 49.5721 32.4951 48.1029C32.8455 45.1645 23.316 47.2807 23.2487 41.1613C23.2217 37.913 26.4835 36.0394 29.6511 36.1338C34.153 36.2686 35.9726 38.7891 35.9726 41.6466H32.2929C32.2929 41.6466 32.6299 39.463 29.5837 39.3687C28.438 39.3417 27.2114 39.8 27.0632 40.8513C26.6857 43.6145 36.0804 41.5657 36.1478 47.8198C36.1748 50.92 33.3038 53.0227 29.7319 52.9687C22.6421 52.8744 23.06 47.6985 23.033 47.2672H26.7801Z" fill="#F0461C"/>
<path fill-rule="evenodd" clip-rule="evenodd" d="M79.1451 43.52V52.3756H83L82.9865 36.5515H79.1047L75.1419 43.0483L71.4218 36.5515H67.3377V52.3621H71.3139V43.7761L75.1958 50.0438L79.1451 43.52Z" fill="#F0461C"/>
<path fill-rule="evenodd" clip-rule="evenodd" d="M60.9218 36.5515L66.6772 52.3621H62.7279L61.7979 49.599H55.5707L54.6137 52.3621H50.6375L56.4064 36.5515H60.9218ZM58.6978 40.5412L56.6759 46.2832H60.6791L58.6978 40.5008V40.5412Z" fill="#F0461C"/>
<path fill-rule="evenodd" clip-rule="evenodd" d="M43.8712 47.3078H41.4719V52.3623H37.7788V36.5652H45.866C48.7775 36.5652 51.0419 39.0588 50.8666 42.1184C50.7454 44.4098 49.7479 46.1081 47.6452 47.0651L50.2871 52.3623H46.23L43.8712 47.3078ZM41.418 39.9079H45.1786C46.2838 39.9079 47.0252 40.8919 47.0791 41.9971C47.133 42.9676 46.3782 44.1537 45.2864 44.1537H41.418V39.9079Z" fill="#F0461C"/>
<path fill-rule="evenodd" clip-rule="evenodd" d="M14.3527 53.1036C19.0837 53.1305 22.2378 49.3565 22.1299 44.6928C22.3456 39.6922 18.922 36.2551 14.3527 36.2686C9.90469 36.2686 6.56195 39.7596 6.58894 44.6928C6.53501 49.5586 9.68903 53.2653 14.3527 53.1036ZM14.3527 39.5978C17.1428 39.5574 18.3154 42.1049 18.302 44.6793C18.1402 47.0381 17.0619 49.6395 14.3392 49.6665C11.6569 49.6665 10.4169 47.146 10.3764 44.6928C10.4169 42.2262 11.5626 39.5574 14.3527 39.5978Z" fill="#F0461C"/>
</svg>
