<svg width="70" height="70" viewBox="0 0 70 70" fill="none" xmlns="http://www.w3.org/2000/svg">
<path d="M10.2122 36.5873H8.6249V34.5592H9.65633C9.85159 34.5592 10.0179 34.5544 10.2131 34.5438C10.3427 34.5388 10.4693 34.5043 10.5835 34.4428C10.6976 34.3813 10.7961 34.2945 10.8714 34.189C10.9549 34.0789 11.0082 33.949 11.0261 33.812C11.0435 33.6921 11.0454 33.5897 11.0338 33.4679C11.0135 33.251 10.9127 33.0497 10.7513 32.9035C10.59 32.7573 10.3796 32.6769 10.1619 32.6781H8.6249V39.2533H5.99847V30.5978H10.2905C10.4616 30.5978 10.6056 30.6007 10.7767 30.6104C11.9164 30.6713 12.855 31.3045 13.3374 32.3378C13.5838 32.8489 13.6781 33.42 13.609 33.9831C13.5507 34.5795 13.3032 35.1417 12.9027 35.5874C12.5022 36.0332 11.9696 36.3391 11.3828 36.4606C10.999 36.5471 10.6066 36.5896 10.2131 36.5873" fill="white"/>
<path d="M19.9649 38.7691C19.9301 38.2596 19.9107 37.8285 19.9001 37.3171C19.8866 36.6453 19.8788 36.0798 19.874 35.408C19.874 35.064 19.8292 34.7215 19.7406 34.3891C19.6875 34.169 19.5886 33.9625 19.4503 33.7831C19.3121 33.6037 19.1376 33.4555 18.9383 33.348C18.7014 33.214 18.445 33.1177 18.1785 33.0628C17.3313 32.8725 16.4544 32.855 15.6004 33.0116C15.3491 33.0551 15.1393 33.116 14.9025 33.2146C14.6395 33.3185 14.4038 33.4809 14.2132 33.6897C14.0225 33.8984 13.882 34.1478 13.8024 34.4191C13.7364 34.6249 13.7162 34.8426 13.7434 35.0571C13.7473 35.0977 13.7579 35.1325 13.7763 35.1702L15.8575 35.2214C15.8511 35.0958 15.8702 34.9702 15.9136 34.8521C15.9447 34.761 15.9963 34.6782 16.0643 34.61C16.1323 34.5418 16.215 34.4901 16.306 34.4587C16.5725 34.3565 16.8665 34.3514 17.1364 34.4442C17.2258 34.4719 17.307 34.5212 17.3728 34.5878C17.4386 34.6544 17.4869 34.7363 17.5134 34.826C17.5482 34.942 17.5308 35.058 17.4602 35.1576C17.4022 35.2427 17.3191 35.3076 17.2224 35.3432C17.1606 35.3674 17.1064 35.3838 17.0436 35.4012C16.7698 35.4759 16.4923 35.5362 16.2123 35.582C15.9784 35.6206 15.7812 35.6564 15.5492 35.7038C15.2505 35.7623 14.9558 35.8392 14.6666 35.9338C14.3997 36.0172 14.1551 36.16 13.9513 36.3514C13.6781 36.5941 13.5022 36.9276 13.4563 37.2901C13.4206 37.5424 13.4293 37.7618 13.4853 38.0102C13.5502 38.3197 13.6991 38.6053 13.9157 38.8357C14.1323 39.0661 14.4081 39.2323 14.713 39.3162C15.3859 39.5222 16.1098 39.4856 16.7584 39.2127C17.0754 39.0895 17.3546 38.8855 17.5685 38.6212L17.4216 37.5578C17.3236 37.7143 17.1798 37.8368 17.0098 37.9087C16.8454 37.9812 16.6956 38.0199 16.5168 38.0383C16.3669 38.0528 16.2374 38.0421 16.0924 38.0015C15.9798 37.9724 15.8781 37.9113 15.7995 37.8256C15.7305 37.7536 15.6836 37.6634 15.6642 37.5656C15.6477 37.491 15.6521 37.4134 15.6771 37.3412C15.702 37.269 15.7464 37.2052 15.8053 37.1567C15.882 37.0898 15.9705 37.038 16.0663 37.0039C16.2952 36.9193 16.5274 36.8438 16.7623 36.7777C17.061 36.6936 17.3075 36.6028 17.5907 36.4723C17.6178 36.6985 17.6168 36.8918 17.5849 37.117C17.5627 37.2823 17.5115 37.4186 17.4216 37.5578L17.5685 38.6212C17.6139 38.772 17.6555 38.8976 17.7077 39.0465C17.7367 39.1286 17.7754 39.1924 17.8334 39.2572H20.1244C20.0295 39.1116 19.9745 38.9436 19.9649 38.77" fill="white"/>
<path d="M22.7054 33.724C22.9923 33.4693 23.3159 33.2592 23.6653 33.1005C24.2355 32.8268 24.888 32.7785 25.4923 32.9652C25.8174 33.0548 26.1145 33.2254 26.3558 33.4611C26.597 33.6967 26.7746 33.9898 26.8717 34.3127C26.9717 34.6195 27.0213 34.9404 27.0186 35.263V39.2533H24.5633V35.6651C24.5633 35.5452 24.5478 35.4428 24.513 35.3287C24.4843 35.2296 24.4335 35.1384 24.3643 35.0618C24.2951 34.9853 24.2095 34.9255 24.1138 34.8869C23.9056 34.7973 23.6717 34.7871 23.4565 34.8584C23.2413 34.9296 23.0597 35.0774 22.9461 35.2736C22.8487 35.4347 22.7985 35.6199 22.8011 35.8082V39.2533H20.4231V33.0706H22.6532L22.7054 33.724Z" fill="white"/>
<path d="M33.8462 38.7691C33.8114 38.2596 33.792 37.8285 33.7814 37.3171C33.7679 36.6453 33.7601 36.0798 33.7553 35.408C33.7553 35.064 33.7104 34.7215 33.6219 34.3891C33.5688 34.169 33.4699 33.9625 33.3316 33.7831C33.1934 33.6037 33.0189 33.4555 32.8196 33.348C32.5827 33.214 32.3263 33.1177 32.0598 33.0628C31.2126 32.8725 30.3357 32.855 29.4817 33.0116C29.2303 33.0551 29.0206 33.116 28.7837 33.2146C28.5208 33.3185 28.2851 33.4809 28.0945 33.6897C27.9038 33.8984 27.7633 34.1478 27.6837 34.4191C27.6176 34.6249 27.5975 34.8426 27.6247 35.0571C27.6286 35.0977 27.6392 35.1325 27.6576 35.1702L29.7388 35.2214C29.7324 35.0958 29.7515 34.9702 29.7949 34.8521C29.826 34.761 29.8775 34.6782 29.9456 34.61C30.0136 34.5418 30.0963 34.4901 30.1873 34.4587C30.4538 34.3565 30.7478 34.3514 31.0177 34.4442C31.1071 34.4719 31.1883 34.5212 31.2541 34.5878C31.3199 34.6544 31.3682 34.7363 31.3947 34.826C31.4295 34.942 31.4121 35.058 31.3415 35.1576C31.2835 35.2427 31.2004 35.3076 31.1037 35.3432C31.0419 35.3674 30.9877 35.3838 30.9249 35.4012C30.6511 35.4759 30.3736 35.5362 30.0936 35.582C29.8596 35.6206 29.6624 35.6564 29.4304 35.7038C29.1318 35.7623 28.8371 35.8392 28.5479 35.9338C28.281 36.0172 28.0364 36.16 27.8325 36.3514C27.5594 36.5941 27.3835 36.9276 27.3376 37.2901C27.3018 37.5424 27.3105 37.7618 27.3666 38.0102C27.4315 38.3197 27.5804 38.6053 27.797 38.8357C28.0135 39.0661 28.2894 39.2323 28.5943 39.3162C29.2672 39.5222 29.991 39.4856 30.6397 39.2127C30.9567 39.0895 31.2359 38.8855 31.4498 38.6212L31.3029 37.5578C31.2049 37.7143 31.0611 37.8368 30.8911 37.9087C30.7267 37.9812 30.5769 38.0199 30.3981 38.0383C30.2482 38.0528 30.1187 38.0421 29.9737 38.0015C29.8611 37.9724 29.7594 37.9113 29.6808 37.8256C29.6118 37.7536 29.5649 37.6634 29.5455 37.5656C29.529 37.491 29.5334 37.4134 29.5583 37.3412C29.5833 37.269 29.6276 37.2052 29.6866 37.1567C29.7633 37.0898 29.8518 37.038 29.9476 37.0039C30.1765 36.9193 30.4087 36.8438 30.6436 36.7777C30.9423 36.6936 31.1888 36.6028 31.472 36.4723C31.4991 36.6985 31.4981 36.8918 31.4662 37.117C31.444 37.2823 31.3928 37.4186 31.3029 37.5578L31.4498 38.6212C31.4952 38.772 31.5368 38.8976 31.589 39.0465C31.618 39.1286 31.6567 39.1924 31.7147 39.2572H34.0057C33.9108 39.1116 33.8558 38.9436 33.8462 38.77" fill="white"/>
<path d="M37.2777 36.9807C37.4546 37.0107 37.6025 37.0484 37.7726 37.1045C37.8408 37.1258 37.902 37.1652 37.9496 37.2185C37.9973 37.2717 38.0296 37.3369 38.0433 37.407C38.0608 37.4827 38.0586 37.5615 38.0367 37.6361C38.0149 37.7106 37.9742 37.7782 37.9186 37.8324C37.8089 37.9461 37.6643 38.02 37.5078 38.0421C37.2893 38.0769 37.096 38.0595 36.8891 37.9841C36.7927 37.9507 36.7033 37.8999 36.6252 37.8343C36.5226 37.7499 36.4475 37.6368 36.4096 37.5095C36.376 37.403 36.3603 37.2916 36.3632 37.1799H34.0993V37.3113C34.0993 37.524 34.1322 37.7048 34.2066 37.9049C34.3207 38.2045 34.4763 38.4365 34.7112 38.655C35.0008 38.931 35.3546 39.1303 35.7407 39.235C36.5357 39.4711 37.3738 39.524 38.1922 39.3897C38.5763 39.3343 38.9481 39.2133 39.2912 39.032C39.4435 38.9536 39.5863 38.8579 39.7166 38.7468C40.0134 38.5049 40.2295 38.1782 40.3358 37.8103C40.4422 37.4424 40.4339 37.0509 40.312 36.6878C40.2273 36.4132 40.0656 36.1686 39.8461 35.9831C39.5511 35.7222 39.2008 35.5315 38.8215 35.4254L38.574 35.3548C38.1144 35.2253 37.6468 35.1259 37.1743 35.0571C37.0409 35.0377 36.9287 35.0165 36.7973 34.9855C36.7397 34.9719 36.6837 34.9525 36.63 34.9275C36.5969 34.9127 36.567 34.8915 36.5421 34.8651C36.5171 34.8387 36.4977 34.8076 36.4847 34.7737C36.4718 34.7397 36.4657 34.7036 36.4667 34.6673C36.4678 34.631 36.476 34.5953 36.4908 34.5621L36.5015 34.5409C36.5361 34.477 36.5834 34.4207 36.6404 34.3755C36.6974 34.3304 36.7629 34.2972 36.833 34.2779C37.0921 34.2035 37.3299 34.2103 37.5841 34.2953C37.7012 34.334 37.8024 34.4101 37.8719 34.512C37.9414 34.6138 37.9755 34.7358 37.9689 34.8589H40.1516C40.1516 34.6042 40.1064 34.3516 40.0182 34.1126C39.9331 33.8672 39.7778 33.652 39.5716 33.494C39.3962 33.3529 39.1994 33.2407 38.9887 33.1614C38.7846 33.0811 38.5727 33.0221 38.3565 32.9855C37.8441 32.8938 37.3225 32.8646 36.8031 32.8985C36.4899 32.9159 36.226 32.9546 35.9195 33.0261C35.5077 33.1228 35.1752 33.2823 34.8427 33.5433C34.5693 33.7519 34.3649 34.0378 34.2559 34.364C34.1238 34.7579 34.1383 35.1862 34.2965 35.5704C34.379 35.7873 34.5065 35.9843 34.6706 36.1485C34.8347 36.3126 35.0317 36.4401 35.2487 36.5225C35.4778 36.6134 35.6779 36.6733 35.9195 36.7226C36.3961 36.8212 36.7992 36.8976 37.2787 36.9798M44.6939 32.9526C44.4494 32.914 44.2406 32.8975 43.9931 32.8975C43.7456 32.8975 43.5378 32.914 43.2923 32.9526C42.611 33.0498 41.9791 33.3633 41.4894 33.8468C40.9486 34.3505 40.6173 35.0394 40.5614 35.7763C40.5169 36.2233 40.5579 36.6747 40.6823 37.1064C40.8756 37.8043 41.241 38.3437 41.8162 38.7836C42.1737 39.0645 42.5917 39.2584 43.0371 39.35C43.3511 39.4204 43.6722 39.4548 43.9941 39.4525C44.3324 39.4525 44.6185 39.4235 44.9501 39.35C45.3955 39.2584 45.8134 39.0644 46.171 38.7836L44.8428 37.3355C44.7926 37.4471 44.721 37.5476 44.6319 37.6315C44.5429 37.7153 44.4382 37.7808 44.3238 37.8242C44.2094 37.8675 44.0876 37.8879 43.9654 37.8842C43.8431 37.8804 43.7228 37.8527 43.6113 37.8024C43.4019 37.7118 43.235 37.5448 43.1444 37.3355C43.0576 37.1462 42.9986 36.9453 42.9694 36.7391C42.9037 36.3041 42.9114 35.9271 42.9955 35.4959C43.039 35.2726 43.1144 35.0899 43.2391 34.8985C43.3213 34.7737 43.4333 34.6712 43.5649 34.6003C43.6965 34.5294 43.8436 34.4923 43.9931 34.4923C44.1426 34.4923 44.2897 34.5294 44.4213 34.6003C44.5529 34.6712 44.6649 34.7737 44.7471 34.8985C44.8683 35.0789 44.9512 35.2822 44.9907 35.4959C45.0748 35.928 45.0835 36.305 45.0178 36.7391C44.9849 36.9566 44.9327 37.1354 44.8428 37.3355L46.171 38.7836C46.7284 38.3696 47.128 37.778 47.3039 37.1064C47.4305 36.6521 47.4673 36.2461 47.4248 35.7763C47.3691 35.0393 47.0377 34.3504 46.4968 33.8468C46.0073 33.3631 45.3752 33.0496 44.6939 32.9526Z" fill="white"/>
<path d="M50.0512 33.724C50.3382 33.4693 50.6617 33.2592 51.0111 33.1005C51.5813 32.8268 52.2338 32.7785 52.8381 32.9652C53.1633 33.0548 53.4604 33.2254 53.7016 33.4611C53.9429 33.6967 54.1204 33.9898 54.2175 34.3127C54.3175 34.6195 54.3672 34.9404 54.3645 35.263V39.2533H51.9091V35.6651C51.9091 35.5452 51.8937 35.4428 51.8589 35.3287C51.8302 35.2296 51.7793 35.1384 51.7101 35.0618C51.641 34.9853 51.5553 34.9255 51.4596 34.8869C51.2514 34.7973 51.0175 34.7871 50.8023 34.8584C50.5871 34.9296 50.4055 35.0774 50.2919 35.2736C50.1945 35.4347 50.1443 35.6199 50.1469 35.8082V39.2533H47.7689V33.0706H49.999L50.0512 33.724Z" fill="white"/>
<path d="M54.8401 30.5978V32.2315H57.1514V30.5978H54.8401ZM54.8401 33.0715V39.2543H57.1514V33.0715H54.8401ZM63.3603 38.452C62.9198 38.9285 62.3374 39.2502 61.6995 39.3693C61.251 39.4602 60.8585 39.4795 60.4032 39.4322C59.8253 39.3805 59.274 39.1652 58.814 38.8116C58.4327 38.5333 58.1153 38.1767 57.8831 37.7656C57.6976 37.451 57.5736 37.1039 57.5177 36.7429C57.4307 36.2171 57.4539 35.755 57.5922 35.2407C57.9083 34.0711 58.787 33.2426 59.9731 32.9961C60.6497 32.856 61.251 32.8705 61.9209 33.0435C62.3771 33.1556 62.796 33.3853 63.136 33.7095C63.3537 33.908 63.5338 34.1441 63.6677 34.4065C63.8339 34.7143 63.9099 35.0627 63.8871 35.4118H61.773C61.7532 35.2766 61.7068 35.1466 61.6365 35.0295C61.5661 34.9123 61.4732 34.8103 61.3631 34.7294C61.223 34.6196 61.0522 34.556 60.8744 34.5473C60.6966 34.5387 60.5205 34.5854 60.3704 34.681C60.1607 34.8069 60.0055 35.0065 59.9354 35.2407C59.7545 35.7907 59.745 36.3827 59.9083 36.9382C59.971 37.1735 60.0994 37.3861 60.2785 37.551C60.3777 37.6487 60.4986 37.7215 60.6314 37.7635C60.7641 37.8055 60.9049 37.8155 61.0422 37.7927C61.2155 37.7704 61.3745 37.6851 61.4888 37.553C61.6113 37.4204 61.692 37.2546 61.7208 37.0764C61.744 36.9459 61.7566 36.8347 61.7643 36.7023H63.9925C64.0189 37.0222 63.9761 37.3441 63.867 37.646C63.7579 37.9479 63.5851 38.2228 63.3603 38.452Z" fill="white"/>
</svg>
