<svg width="90" height="90" viewBox="0 0 90 90" fill="none" xmlns="http://www.w3.org/2000/svg">
<path d="M80 33.8118H10.4351V62.6617H80V33.8118Z" fill="#0075C1"/>
<path d="M29.4295 36.51V51.0225C29.4295 53.2803 27.5836 55.1261 25.3258 55.1261H24.2815C22.3623 55.1261 20.7423 53.7883 20.302 51.999H15.3742C16.3112 56.3397 20.1891 59.6249 24.8008 59.6249C30.1068 59.6249 34.4476 55.2842 34.4476 49.9782V36.5157H29.4238L29.4295 36.51Z" fill="white"/>
<path d="M45.7146 36.51H40.7473V59.6193H45.7146V36.51Z" fill="white"/>
<path d="M64.8957 36.51H59.9284V59.6193H64.8957V36.51Z" fill="white"/>
<path d="M73.9607 41.4773V36.51H50.8515V41.4773H73.9607Z" fill="white"/>
<path d="M34.081 26.4343H29.0573V31.4581H34.081V26.4343Z" fill="#0075C1"/>
<path d="M45.7426 26.4343H40.7188V31.4581H45.7426V26.4343Z" fill="#0075C1"/>
</svg>
