<svg width="70" height="70" viewBox="0 0 70 70" fill="none" xmlns="http://www.w3.org/2000/svg">
<path d="M42.1606 53.726C48.6993 53.726 54 48.4253 54 41.8866C54 35.3479 48.6993 30.0472 42.1606 30.0472C35.6219 30.0472 30.3212 35.3479 30.3212 41.8866C30.3212 48.4253 35.6219 53.726 42.1606 53.726Z" fill="#254633"/>
<path d="M28.9043 41.8867C28.9043 34.5819 34.8488 28.6303 42.1607 28.6303C45.59 28.6303 48.7075 29.9482 51.0597 32.095V19.377C51.0597 17.7262 49.7206 16.38 48.0698 16.38H19.3109C17.6601 16.38 16.321 17.7191 16.321 19.377V50.7078H32.2981C30.2009 48.3626 28.9114 45.2806 28.9114 41.8867H28.9043Z" fill="#254633"/>
<g clip-path="url(#clip0_56_191)">
<path d="M63 8H8V63H63V8Z" fill="#0099D8"/>
<path d="M24.2165 36.6719H47.1846L35.7005 50.3497L24.2165 36.6719ZM21.824 32.644V36.6719L35.7005 53.0899L49.5769 36.6719V32.644H21.824Z" fill="white"/>
<path d="M21.8264 31.5051V17.7518H25.2668C27.9943 17.9004 30.6954 19.2423 30.7696 22.9918C30.8461 26.8688 26.8363 28.3898 25.6807 28.3898V31.5051H21.8264ZM26.1831 21.3647L25.5587 21.268L25.5276 24.9727C26.5635 25.0293 27.1856 23.6969 26.9918 22.6947C26.7525 21.4967 26.3937 21.4778 26.1831 21.3647Z" fill="white"/>
<path d="M31.3102 17.7518H37.6216V21.2444H35.0927V22.914H37.5642V26.1613H35.0927V28.2578H37.6216V31.5051H31.3102V17.7518Z" fill="white"/>
<path d="M38.3275 17.825V31.5051L42.2249 31.5098L42.2057 27.6352L43.8781 30.9721L45.7299 27.6281V31.5051H49.5843V17.825H45.7299L43.9547 21.6241L42.1818 17.825H38.3275Z" fill="white"/>
<path d="M51.2132 20.0469H50.8945V18.5419H51.4535C51.8385 18.5419 52.0667 18.6548 52.0667 19.0009C52.0714 19.0528 52.0651 19.105 52.0488 19.1541C52.0324 19.2032 52.0062 19.248 51.9719 19.2854C51.9376 19.3228 51.8958 19.3519 51.8498 19.3708C51.8038 19.3897 51.7546 19.3978 51.7055 19.3947L52.0882 20.0569H51.7102L51.3653 19.4198H51.2132V20.0469ZM51.496 19.1539C51.6411 19.1539 51.734 19.1238 51.734 18.9558C51.734 18.7877 51.5697 18.7902 51.4484 18.7902H51.2226V19.1539H51.496ZM51.4461 20.6965C50.7069 20.6965 50.0504 20.1798 50.0504 19.2919C50.0379 18.9982 50.1085 18.7072 50.254 18.4563C50.3991 18.2054 50.6125 18.0062 50.8661 17.8843C51.1196 17.7624 51.402 17.7234 51.677 17.7724C51.9516 17.8213 52.2063 17.9559 52.408 18.1589C52.6097 18.3618 52.7493 18.6238 52.8086 18.9111C52.8675 19.1984 52.8441 19.4978 52.7407 19.7708C52.637 20.0438 52.4587 20.2779 52.2278 20.4429C51.9973 20.6079 51.725 20.6962 51.4461 20.6965ZM51.4461 18.2134C51.175 18.2134 50.9152 18.327 50.7233 18.5292C50.5314 18.7315 50.4237 19.0058 50.4237 19.2919C50.4237 19.578 50.5314 19.8522 50.7233 20.0545C50.9152 20.2568 51.175 20.3704 51.4461 20.3704C51.709 20.357 51.9571 20.2374 52.1389 20.0364C52.3202 19.8354 52.4217 19.5683 52.4217 19.2906C52.4217 19.0129 52.3202 18.7459 52.1389 18.5448C51.9571 18.3438 51.709 18.2242 51.4461 18.2108" fill="white"/>
</g>
<defs>
<clipPath id="clip0_56_191">
<rect width="55" height="55" fill="white" transform="translate(8 8)"/>
</clipPath>
</defs>
</svg>
