<svg width="70" height="70" viewBox="0 0 70 70" fill="none" xmlns="http://www.w3.org/2000/svg">
<g clip-path="url(#clip0_2498_3014)">
<mask id="mask0_2498_3014" style="mask-type:luminance" maskUnits="userSpaceOnUse" x="17" y="12" width="36" height="47">
<path d="M17 12H52.8548V58.1787H17V12Z" fill="white"/>
</mask>
<g mask="url(#mask0_2498_3014)">
<path fill-rule="evenodd" clip-rule="evenodd" d="M48.2445 48.1742C46.9903 48.3252 45.08 48.5748 44.6155 48.7026C44.151 48.8303 43.6865 49.1323 43.489 49.8406C43.3555 50.3052 43.1116 52.2445 42.9665 53.5161C45.1341 52.1894 46.9473 50.3562 48.2503 48.1742H48.2445ZM34.9419 55.769C37.671 55.769 40.2258 55.0606 42.4555 53.8123C42.3189 52.4816 42.131 51.1568 41.8923 49.8406C41.8282 49.5653 41.689 49.3131 41.4902 49.1121C41.2913 48.9112 41.0405 48.7694 40.7658 48.7026C40.0632 48.5052 35.9987 48.0348 35.9987 48.0348V47.7503C35.9987 47.7503 40.0632 47.28 40.7658 47.0826C41.2303 46.9548 41.6948 46.6529 41.8923 45.9445C42.0839 45.271 42.5135 41.5026 42.56 41.1019C39.7729 41.6245 37.8568 42.9194 35.4645 44.1561C32.9213 45.4742 30.4361 46.4206 27.2077 46.4206C24.3568 46.4206 21.8194 45.48 19.9787 44.3303C20.8816 47.6093 22.8331 50.5026 25.535 52.5682C28.237 54.6337 31.5409 55.7579 34.9419 55.769ZM19.6477 21.9174H21.3142V20.6052H21.9065C23.4568 20.6052 24.4381 19.7923 24.4381 18.3871C24.4381 16.8426 23.3929 16.2852 21.68 16.2852C21.0181 16.2852 20.2168 16.3316 19.6477 16.4013V21.9174ZM25.1 21.9174H26.7606V19.7516H28.4968V21.9174H30.1632V16.4013H28.4968V18.5961H26.7606V16.4013H25.1V21.9174ZM31.3942 21.9174H33.0606V16.4013H31.3942V21.9174ZM34.2916 21.9174H37.2994L37.549 20.8142H35.9523V16.4013H34.2916V21.9174ZM38.1471 21.9174H39.8077V16.4013H38.1471V21.9174ZM41.0619 21.9174H42.7284V20.6052H43.3206C44.871 20.6052 45.8523 19.7923 45.8523 18.3871C45.8523 16.8426 44.8071 16.2852 43.0942 16.2852C42.4323 16.2852 41.6368 16.3316 41.0619 16.4013V21.9174ZM34.9361 24.3561C33.6181 24.3561 32.3406 24.5187 31.1213 24.8323C31.1852 25.3839 31.371 26.9226 31.4639 27.2361C31.5742 27.631 31.8297 27.7994 32.0852 27.869C32.4742 27.9794 34.6632 28.229 34.6632 28.229V28.3858C34.6632 28.3858 32.4742 28.6471 32.0852 28.7574C31.8297 28.8271 31.5742 28.9897 31.4639 29.3845C31.3768 29.6923 31.2026 31.0974 31.1329 31.7071C32.4277 31.8813 33.8155 32.0439 33.8155 32.0439V32.3226C33.8155 32.3226 29.751 32.7929 29.0542 32.9903C28.5839 33.1181 28.1252 33.42 27.9219 34.1284C27.7361 34.7787 27.3297 38.3439 27.2716 38.8781C30.1342 38.3555 32.5787 36.8458 34.4135 35.9516C37.0265 34.6742 39.4245 33.629 42.6877 33.629C45.5271 33.629 48.0297 34.5523 49.8645 35.6961C48.9455 32.4422 46.9923 29.5757 44.3002 27.5299C41.608 25.4841 38.3232 24.37 34.9419 24.3561H34.9361ZM48.9587 20.3961C48.9587 20.7445 48.7032 20.9245 48.0877 20.9245C47.4342 20.9062 46.7907 20.7581 46.1948 20.489L46.3806 21.7548C46.9386 21.9403 47.5229 22.0345 48.111 22.0335C49.5045 22.0335 50.6426 21.569 50.6426 20.1871C50.6426 18.3406 48.0239 18.689 48.0239 17.8065C48.0239 17.5161 48.3142 17.371 48.7961 17.371C49.3187 17.371 49.8935 17.4871 50.2768 17.6497L50.1432 16.4477C49.6425 16.3329 49.1298 16.2783 48.6161 16.2852C47.269 16.2852 46.3516 16.8252 46.3516 17.9516C46.3516 19.8852 48.9587 19.4961 48.9587 20.3903V20.3961ZM42.8213 41.0555C42.8561 41.3748 43.2974 45.2652 43.489 45.9445C43.553 46.2199 43.6922 46.4721 43.8911 46.673C44.09 46.874 44.3408 47.0157 44.6155 47.0826C45.1148 47.2219 47.3155 47.5006 48.5406 47.6516C49.5081 45.8853 50.127 43.9496 50.3639 41.9497C48.6773 41.2718 46.8801 40.9116 45.0626 40.8871C44.2497 40.8871 43.5065 40.9452 42.8213 41.0555ZM25.1871 31.3761C25.6516 31.2426 26.1161 30.9465 26.3135 30.2381C26.4413 29.7794 26.6794 27.9271 26.8361 26.6555C24.7168 27.9653 22.9395 29.7606 21.651 31.8929C22.8379 31.7641 24.0194 31.5898 25.1929 31.3703L25.1871 31.3761ZM19.5142 38.0942C21.1941 38.7559 22.981 39.1042 24.7865 39.1219C25.5529 39.1219 26.2787 39.0523 26.9697 38.9361C26.9116 38.3729 26.5052 34.7845 26.3194 34.1342C26.2553 33.8588 26.1161 33.6066 25.9173 33.4057C25.7184 33.2047 25.4676 33.063 25.1929 32.9961C24.7052 32.8568 22.5858 32.5897 21.349 32.4387C20.3833 34.19 19.7606 36.1095 19.5142 38.0942ZM30.5755 29.3845C30.5395 29.233 30.4625 29.0943 30.3529 28.9837C30.2433 28.8731 30.1054 28.7948 29.9542 28.7574C29.6465 28.6703 28.2123 28.4903 27.6316 28.4148C27.7361 29.2335 27.8465 29.971 27.9219 30.2381C27.9859 30.5134 28.1251 30.7656 28.324 30.9666C28.5229 31.1675 28.7737 31.3093 29.0484 31.3761C29.3155 31.4516 30.0703 31.5619 30.9065 31.6781C30.825 30.9097 30.7146 30.1446 30.5755 29.3845ZM30.5755 27.2361C30.6626 26.9284 30.8426 25.4826 30.9123 24.8845C29.6639 25.2271 28.4735 25.7148 27.3703 26.3361C27.4284 26.8645 27.5155 27.5497 27.6026 28.2C28.1716 28.1361 29.6348 27.9561 29.9542 27.869C30.2097 27.7994 30.4652 27.631 30.5755 27.2361ZM19.5084 42.0077C21.4768 43.2735 24.2116 43.9006 26.5052 43.9006C29.9774 43.9006 32.0677 42.8555 34.3555 41.7C37.5084 40.1148 40.1213 38.4368 44.2206 38.46C46.3964 38.4572 48.5411 38.9769 50.4742 39.9755C50.4742 39.3135 50.4277 38.6632 50.3465 38.0245C48.3839 36.7703 45.6548 36.1258 43.3729 36.1258C39.9006 36.1258 37.8161 37.1942 35.5226 38.3497C32.5787 39.8245 29.7626 41.6013 25.6748 41.6013C23.1839 41.6013 19.3923 40.0568 19.3923 40.0626C19.3923 40.7129 19.4329 41.3806 19.5084 42.0077ZM52.8548 12.9929V40.051C52.8548 50.0381 44.8129 58.1787 34.9303 58.1787C24.8735 58.1787 17 50.0381 17 40.0452V12.9929C19.3342 12.7026 26.8187 12 34.9303 12C42.8561 12 50.4452 12.6561 52.8548 12.9929ZM39.169 50.9729C39.0819 50.671 38.8787 48.9465 38.8787 48.9465H38.7626C38.7626 48.9465 38.5652 50.671 38.4723 50.9787C38.391 51.2806 38.1935 51.4084 37.9903 51.4665C37.6884 51.5477 35.9813 51.7568 35.9813 51.7568V51.8729C35.9813 51.8729 37.6884 52.0819 37.9903 52.1632C38.1935 52.2213 38.3968 52.349 38.4781 52.6568C38.5652 52.9587 38.7626 54.689 38.7626 54.689H38.8787C38.8787 54.689 39.0819 52.9587 39.169 52.6568C39.2561 52.349 39.4535 52.2213 39.6568 52.1632C39.9587 52.0819 41.66 51.8729 41.66 51.8729V51.7568C41.66 51.7568 39.9587 51.5477 39.6568 51.4665C39.4535 51.4084 39.2503 51.2806 39.169 50.9729ZM44.2903 18.4103C44.2903 17.7135 43.9013 17.3245 43.0768 17.3245L42.8039 17.3303V19.6123H43.0768C43.9477 19.6123 44.2903 19.1245 44.2903 18.4103ZM21.6684 19.6123H21.3955V17.3303H21.6684C22.4871 17.3303 22.8761 17.7194 22.8761 18.4103C22.8761 19.1245 22.5335 19.6123 21.6684 19.6123Z" fill="#FEFEFE"/>
</g>
</g>
<defs>
<clipPath id="clip0_2498_3014">
<rect width="36" height="46.4516" fill="white" transform="translate(17 12)"/>
</clipPath>
</defs>
</svg>
