<svg width="90" height="90" viewBox="0 0 90 90" fill="none" xmlns="http://www.w3.org/2000/svg">
<path fill-rule="evenodd" clip-rule="evenodd" d="M46.779 58.7965V53.0992C46.779 49.9087 49.2858 48.7692 49.2858 48.7692C51.5648 47.174 53.8437 44.2114 53.8437 40.793C53.8437 37.8304 52.7042 35.5515 50.6532 33.7284C50.2566 33.3885 49.8321 33.0909 49.4178 32.8005C48.1651 31.9226 47.0069 31.1109 47.0069 29.3984V23.2453C47.0069 21.4222 47.0069 19.5991 50.4253 19.5991C61.592 19.5991 70.9356 29.8542 70.9356 40.3372C70.9356 51.0482 62.2757 61.5312 50.4253 61.5312C46.5511 61.5312 46.779 58.7965 46.779 58.7965ZM41.9933 67.9122V53.0992C41.9933 50.1366 39.4865 48.7692 39.4865 48.7692C37.2075 47.174 34.9286 44.4393 34.9286 40.793C35.1565 37.8304 36.0681 35.7794 38.347 33.7284C38.8383 33.237 39.373 32.8537 39.8778 32.4919C41.0113 31.6793 41.9933 30.9753 41.9933 29.3984V23.2453C41.9933 21.4222 41.9933 19.5991 38.5749 19.5991H23.3061C21.483 19.5991 19.8877 21.1943 19.8877 23.0174V67.9122C19.8877 69.7353 21.7109 71.3306 23.534 71.3306H38.5749C40.398 71.3306 41.9933 69.7353 41.9933 67.9122ZM44.5001 45.123C41.9933 45.123 39.9423 43.0719 39.9423 40.5651C39.9423 38.0583 41.9933 36.0073 44.5001 36.0073C47.0069 36.0073 49.0579 38.0583 49.0579 40.5651C49.0579 43.0719 47.0069 45.123 44.5001 45.123ZM12.1394 16.6365C12.1394 14.1296 14.1904 12.0786 16.6972 12.0786H73.4424C75.949 12.0786 78 14.1296 78 16.6365V74.0653C78 76.5721 75.949 78.6231 73.4424 78.6231H16.6972C14.1904 78.6231 12.1394 76.5721 12.1394 74.0653V16.6365Z" fill="white"/>
</svg>
