<svg width="70" height="70" viewBox="0 0 70 70" fill="none" xmlns="http://www.w3.org/2000/svg">
<path d="M13.7424 30.058H4V40.0462H7.913V36.2658H13.7424C14.0048 36.2658 14.2174 36.0531 14.2174 35.7908V30.5302C14.2174 30.2679 14.0048 30.0552 13.7424 30.0552V30.058ZM11.699 34.9486H8.00689V31.2537H11.699V34.9458V34.9486Z" fill="url(#paint0_linear_636_7445)"/>
<path d="M21.886 30V34.5398H20.5191H20.2485H18.8843V30H14.9686V40.1042H18.9009V36.0669H20.2485H20.5191H21.8667V40.1042H25.799V30H21.886Z" fill="#FDFDFD"/>
<path d="M38.4355 30H35.5857H34.3927L32.4431 32.778L30.4963 30H26.4535L30.3499 35.0507V40.1042H32.4431H34.5391V35.0507L37.2398 31.5492H39.3523V40.1594H43.4696V31.5299H46.6481V30H38.4355Z" fill="#FDFDFD"/>
<path d="M47.0899 30V40.1594H55.0623V38.4943H51.141V35.719H55.0623V34.3493H51.1852H51.1603V31.5851H55.0623V30H47.0899Z" fill="#FDFDFD"/>
<path d="M62.5431 36.6938V38.185C62.5431 38.3672 62.3967 38.5136 62.2145 38.5136H60.0053C59.8231 38.5136 59.6767 38.3672 59.6767 38.185V31.8778C59.6767 31.6955 59.8231 31.5492 60.0053 31.5492H62.2145C62.3967 31.5492 62.5431 31.6955 62.5431 31.8778V33.4408H66.1109V31.3835C66.1109 30.6186 65.4923 30 64.7274 30H57.1085C56.3436 30 55.725 30.6186 55.725 31.3835V38.7759C55.725 39.5409 56.3436 40.1594 57.1085 40.1594H64.7274C65.4923 40.1594 66.1109 39.5409 66.1109 38.7759V36.6938H62.5431Z" fill="#FDFDFD"/>
<defs>
<linearGradient id="paint0_linear_636_7445" x1="9.10871" y1="40.0462" x2="9.10871" y2="30.058" gradientUnits="userSpaceOnUse">
<stop stop-color="white"/>
<stop offset="1" stop-color="#FAFAFA"/>
</linearGradient>
</defs>
</svg>
