<svg width="90" height="90" viewBox="0 0 90 90" fill="none" xmlns="http://www.w3.org/2000/svg">
<path d="M27 22H37.085V67.4149C36.933 67.4305 36.7786 67.4607 36.6242 67.4607C33.5922 67.4631 30.5615 67.4643 27.5295 67.4607C27.3534 67.4607 27.1761 67.4124 27 67.3859C27 52.2573 27 37.1298 27 22.0012L27 22Z" fill="#E60021"/>
<path d="M51.4863 37.726C47.2616 32.5038 43.079 27.3323 38.8216 22.0703C39.1027 22.057 39.2546 22.0425 39.4066 22.0425C42.9813 22.0425 46.5572 22.0341 50.1319 22.057C50.4081 22.0582 50.7772 22.1993 50.9448 22.4043C55.0514 27.442 59.1363 32.4977 63.2248 37.5511C63.2622 37.5969 63.2863 37.6536 63.343 37.7489C62.307 39.0309 61.2637 40.3238 60.2169 41.6155C57.0969 45.4652 53.9792 49.3161 50.8471 53.1561C50.7048 53.3298 50.4395 53.5059 50.2308 53.5071C46.4354 53.5276 42.64 53.5227 38.6902 53.5227C42.9922 48.2125 47.223 42.9891 51.4863 37.726Z" fill="#E60021"/>
</svg>
