<svg width="70" height="70" viewBox="0 0 70 70" fill="none" xmlns="http://www.w3.org/2000/svg">
<path d="M41.5062 19.5959L43.4833 24.5594L37.0679 21.7275L41.5062 19.5959Z" fill="#4D90E6"/>
<path d="M36.965 30.7481L47.0257 26.3305V35.207L36.965 30.7481Z" fill="#0069B5"/>
<path d="M36.8621 41.0045L45.2546 44.7013L49.1058 35.8867L36.8621 41.0045Z" fill="#003F85"/>
<path d="M34.0817 20.6257L31.0233 19.2767L34.7613 15.1474L38.5096 19.2767L35.4307 20.636C35.3689 20.6669 35.3071 20.6875 35.235 20.7184C35.1938 20.7287 35.1526 20.7493 35.1114 20.7596C34.9261 20.811 34.7304 20.811 34.5348 20.7699C34.5039 20.7699 34.473 20.7596 34.4421 20.7493C34.3391 20.7184 34.2258 20.6875 34.1229 20.6566C34.1126 20.6566 34.092 20.6463 34.0817 20.636V20.6257Z" fill="#4D90E6"/>
<path d="M28.0164 19.5959L26.0393 24.5594L32.4547 21.7275L28.0164 19.5959Z" fill="#4D90E6"/>
<path d="M34.473 30.0376C34.473 30.0376 34.3906 30.017 34.3494 29.9964L25.7098 26.2275L34.37 22.4586C34.37 22.4586 34.4421 22.4278 34.4833 22.4175C34.576 22.3969 34.6789 22.3866 34.7716 22.3866C34.8643 22.3866 34.957 22.3969 35.0496 22.4175C35.0908 22.4175 35.1217 22.4381 35.1629 22.4586L43.8231 26.2275C40.9398 27.4838 38.0668 28.7401 35.1835 29.9964C35.1423 30.017 35.1114 30.0273 35.0702 30.0376C34.8952 30.0891 34.7098 30.0891 34.5245 30.0479H34.4833L34.473 30.0376Z" fill="#4D90E6"/>
<path d="M32.5576 30.7481L22.4969 26.3305V35.207L32.5576 30.7481Z" fill="#0069B5"/>
<path d="M32.6606 41.0045L24.2681 44.7013L20.4168 35.8867L32.6606 41.0045Z" fill="#003F85"/>
<path d="M34.751 41.7356C34.751 41.7356 34.648 41.7459 34.6068 41.7562C34.5039 41.7768 34.4112 41.8077 34.3185 41.8489L25.7407 45.6796L33.5977 49.1499C33.7213 49.2014 33.7933 49.3249 33.7933 49.4588V54H35.7396V49.4588C35.7396 49.3249 35.8219 49.2014 35.9352 49.1499L43.7922 45.6796L35.2041 41.8489C35.1114 41.8077 35.0084 41.7768 34.9158 41.7562C34.8643 41.7459 34.8128 41.7356 34.7716 41.7356" fill="#003F85"/>
<path d="M34.4524 40.2116C34.2155 40.1086 30.1274 38.3375 24.4844 35.9175C24.4844 35.9175 34.0199 31.7779 34.2979 31.6544C34.5863 31.5308 34.9158 31.5308 35.2144 31.6544C35.5027 31.7779 45.028 35.9175 45.028 35.9175L35.0599 40.2116C34.9776 40.2425 34.8952 40.2631 34.8025 40.2734C34.7716 40.2734 34.7407 40.2734 34.6995 40.2734C34.6069 40.2734 34.5245 40.2425 34.4318 40.2116H34.4524Z" fill="#0069B5"/>
</svg>
