<svg width="70" height="70" viewBox="0 0 70 70" fill="none" xmlns="http://www.w3.org/2000/svg">
<path d="M43.5081 35.3751L35.2589 27.1526L27.0131 35.3751L35.2589 43.6309L43.5081 35.3751Z" fill="#8F807C"/>
<path d="M51.7539 27.1524L43.5081 18.8965L35.2588 27.1524L43.5081 35.3749L51.7539 27.1524Z" fill="#A153A0"/>
<path d="M51.7539 43.6309L43.5081 35.375L35.2588 43.6309L43.5081 51.8868L51.7539 43.6309Z" fill="#00AAAB"/>
<path d="M60 35.3751L51.7542 27.1526L43.5083 35.3751L51.7542 43.6309L60 35.3751Z" fill="#0070BB"/>
<path d="M19.0247 27.3866L18.5066 26.8852L10.2574 35.1411L10 35.3751L18.5066 43.8983L27.0131 35.3751L19.0247 27.3866Z" fill="#FFD100"/>
<path d="M27.2739 19.164L27.0131 18.8966L26.7524 18.6292L18.5066 26.8851L27.0131 35.375L35.2589 27.1525L27.2739 19.164Z" fill="#F6931C"/>
<path d="M35.52 10.9082L34.9986 10.3734L26.7527 18.6293L27.0134 18.8967L35.2593 27.1526L43.5085 18.8967L35.52 10.9082Z" fill="#EC1B24"/>
<path d="M27.0131 35.375L19.028 43.3635H19.0246L18.5066 43.8983L26.7524 52.1542L27.0131 51.8868L35.2589 43.6309L27.0131 35.375Z" fill="#8BC63F"/>
<path d="M35.2593 43.6308L27.2742 51.6193L26.7527 52.1541L34.9986 60.3766L43.5085 51.8867L35.2593 43.6308Z" fill="#0CB04A"/>
</svg>
