<svg width="70" height="70" viewBox="0 0 70 70" fill="none" xmlns="http://www.w3.org/2000/svg">
<path d="M49.1622 37.1751C49.4414 37.1699 50.2317 36.9602 50.4029 36.8973C52.9634 35.9407 54.8363 34.5491 56.6882 32.932C57.6339 32.1038 58.7534 30.6257 59.2671 29.7398C59.4515 29.4227 59.794 28.6417 59.8941 28.4137C60.0126 28.149 60.0995 27.7401 60.0995 27.7401C60.0995 27.7401 60.7238 29.0977 60.9161 30.2326C61.767 35.2803 61.169 40.1157 59.2302 44.8358C59.0722 45.2184 57.9421 46.2196 57.9421 46.2196C57.9421 46.2196 57.6681 45.0821 57.4837 44.6681C56.6171 42.7208 55.0339 41.261 53.1451 40.286C51.2564 39.3111 49.3334 38.8682 47.3287 38.5039C42.7452 37.6705 38.1748 37.5892 33.5649 38.2287C31.0676 38.5773 28.5914 39.1093 26.1732 39.8195C23.7655 40.5245 21.3631 41.3973 19.145 42.574C18.5418 42.8938 17.9544 43.245 17.3985 43.6407C16.9138 43.984 16.3765 44.3903 16.0393 44.8856C16.1025 44.7939 16.6109 44.6969 16.7347 44.6602C17.1298 44.5475 17.5434 44.482 17.9465 44.3955C18.7236 44.2304 19.5033 44.0758 20.283 43.9316C21.8451 43.6433 23.4151 43.3996 24.993 43.2109C28.1383 42.8335 31.3126 42.6736 34.4789 42.8256C38.886 43.0353 44.3073 44.0626 47.5184 47.3754C48.904 48.8037 49.4836 50.5335 49.2834 52.5358C49.1095 54.2629 47.4025 56.4827 46.2645 57.7774C45.5875 58.5479 45.4821 58.4274 44.6128 58.7524C34.6765 62.4713 22.9752 60.262 15.5151 52.6196C12.1353 49.1575 9.72501 44.7939 8.63707 40.0895C8.14183 37.9404 7.83889 34.9972 8.09178 32.801C8.16554 32.1693 8.42106 30.7698 8.42106 30.7698C8.42106 30.7698 12.1459 28.3927 14.0346 27.5488C16.8401 26.2961 21.3025 24.6371 31.6023 23.2402C34.3683 22.8654 42.0366 22.4854 45.6639 23.1852C49.9235 24.0081 54.6124 26.9906 52.8132 31.9544C52.2284 33.5662 51.4592 34.9762 50.316 36.2395C50.1843 36.3863 49.3439 37.1673 49.1622 37.1725V37.1751Z" fill="white"/>
<path d="M32.5401 9.34425C37.0341 9.03237 41.4385 9.70855 45.6112 11.3335C48.6695 12.5259 52.8553 15.6264 54.9548 18.1397C55.2472 18.4883 56.2008 20.0136 56.2008 20.0136C56.2087 20.0398 54.889 19.479 54.5333 19.3139C53.5271 18.85 50.5319 18.2629 50.1552 18.2C46.0748 17.537 42.1735 17.689 38.0404 17.8148C37.4898 17.8305 32.4821 18.2655 28.2331 19.3296C24.5057 20.2652 20.8862 21.7014 17.4485 23.4024C14.5061 24.8569 10.8445 27.1318 8.42101 30.2873C8.42101 30.2873 9.62749 26.28 9.82506 25.7559C13.1732 16.8293 23.1122 10.0021 32.5401 9.34425Z" fill="white"/>
</svg>
