<svg width="70" height="70" viewBox="0 0 70 70" fill="none" xmlns="http://www.w3.org/2000/svg">
<path d="M34.3381 5.87329C35.623 5.8636 37.0165 5.99021 38.1174 6.21704C39.0767 6.41482 40.517 6.84932 41.3156 7.18091C42.1161 7.51251 43.4016 8.19922 44.1711 8.70923C44.9425 9.21733 46.0761 10.1289 47.8088 11.8313L52.0734 11.8948C55.9655 11.9549 56.406 11.9961 57.1135 12.3704C57.5399 12.5955 58.1927 13.1285 58.5666 13.5549C58.9407 13.9796 59.3537 14.6683 59.4836 15.0852C59.6153 15.5003 59.7219 16.2757 59.7219 16.8088C59.7219 17.342 59.5631 18.1273 59.3693 18.554C59.1774 18.9806 58.7201 19.6288 58.3576 19.9934C57.9932 20.356 57.3455 20.8132 56.9191 21.0051C56.3396 21.2688 55.6555 21.3577 52.2678 21.3655L52.2424 23.9358C52.221 25.9367 52.1196 26.848 51.7844 28.0559C51.5479 28.9092 51.3153 29.782 51.2687 29.9954C51.2028 30.3037 51.5388 30.6241 52.8859 31.5471C53.8199 32.1869 54.9261 33.0146 55.3449 33.3889C55.7635 33.7631 56.2663 34.4164 56.4602 34.843C56.6714 35.3064 56.8166 36.0883 56.8225 36.7825C56.8283 37.4224 56.708 38.251 56.5588 38.6252C56.4075 38.9995 56.0349 39.6026 55.7287 39.967C55.4243 40.3316 54.7381 40.8341 54.2053 41.0803C53.5504 41.3846 52.876 41.5295 52.1223 41.5315C51.5098 41.5334 50.7241 41.4132 50.3771 41.2659C50.0297 41.1181 48.7652 40.2895 45.3859 37.8489L44.3684 38.5549C43.8081 38.9447 42.7405 39.5477 41.9943 39.8987C41.2481 40.2477 39.9824 40.7236 39.1838 40.9563C38.1643 41.251 36.9758 41.408 35.2102 41.4758C33.2197 41.5553 32.4251 41.5062 31.4309 41.2463C30.7389 41.066 29.5156 40.6128 28.717 40.2405C27.9185 39.8701 27.0017 39.3893 26.6818 39.1741C26.3582 38.9569 26.5712 39.2457 27.1662 39.8254C27.802 40.446 28.8588 41.1823 29.7834 41.6477C30.6361 42.0801 31.5198 42.4699 32.1594 42.5999L31.799 44.636C31.5994 45.7549 31.3105 47.0219 31.1535 47.4485C30.9984 47.875 30.4965 48.5668 30.0373 48.9856C29.5779 49.4045 28.9184 49.8645 28.5715 50.0042C28.2244 50.1457 27.4397 50.258 26.8273 50.2561C26.1278 50.2522 25.3876 50.1048 24.841 49.8567C24.3623 49.6376 23.7629 49.2691 23.5129 49.0364C23.2628 48.8017 22.8478 48.1968 22.592 47.6907C22.2684 47.0509 22.1272 46.4439 22.1271 45.7034C22.1271 45.1177 22.3889 43.108 23.2902 37.8489L21.5939 36.0461C20.526 34.9118 19.5553 33.6354 18.9738 32.6038C18.466 31.702 17.7888 30.1582 17.4709 29.1711C17.153 28.1841 16.8011 26.5259 16.6867 25.4866C16.5724 24.4472 16.531 23.2915 16.5969 22.9172C16.7151 22.2502 16.6587 22.1807 13.5227 19.0393C11.5185 17.0342 10.2126 15.5673 10.0246 15.1116C9.85797 14.712 9.72187 13.8607 9.72187 13.2209C9.72191 12.5813 9.83829 11.7753 9.97968 11.428C10.1212 11.0809 10.5362 10.4641 10.9006 10.0549C11.265 9.6477 11.957 9.12754 12.4357 8.90259C12.9978 8.64084 13.6862 8.49733 14.3742 8.49927C15.0272 8.5032 15.7788 8.65838 16.3117 8.90063C16.7905 9.11976 17.7948 9.91111 19.8977 12.0247L19.4777 12.5735C19.2452 12.876 18.7503 13.7795 18.3801 14.5784C18.008 15.3792 17.5703 16.5566 17.4094 17.1965C17.2485 17.8365 17.0602 18.8837 16.9943 19.5237C16.8761 20.6542 16.9034 20.6092 17.9152 17.9719C18.487 16.4789 19.255 14.6916 19.6213 14.0012C19.9876 13.309 20.8532 12.1415 21.5451 11.4045C22.2369 10.6697 23.3283 9.69437 23.968 9.23853C24.6076 8.78087 25.7422 8.10205 26.4885 7.72778C27.2345 7.35361 28.2806 6.90137 28.8137 6.7229C29.3467 6.54449 30.3512 6.28245 31.0432 6.14282C31.7352 6.00321 33.2178 5.88105 34.3381 5.87329ZM23.9103 44.054C23.825 44.054 23.6328 44.1594 23.4836 44.2874C23.3346 44.4156 23.2319 44.7427 23.2531 45.0139C23.2764 45.2852 23.3829 45.6379 23.4894 45.7991C23.6581 46.0492 23.7248 46.0379 23.9768 45.7024C24.1354 45.4893 24.2646 45.162 24.2629 44.9758C24.2609 44.7897 24.2146 44.504 24.1623 44.345C24.108 44.1841 23.9956 44.054 23.9103 44.054ZM54.6945 36.4915C54.46 36.4915 54.2623 36.6623 54.1887 36.928C54.1209 37.1685 54.1208 37.605 54.1848 37.8977C54.2662 38.2619 54.4252 38.4309 54.6906 38.4309C54.9288 38.4308 55.1228 38.2618 55.1965 37.9944C55.2604 37.754 55.2604 37.3175 55.1965 37.0247C55.1151 36.6622 54.956 36.4916 54.6945 36.4915ZM54.5705 34.6067C54.4504 34.566 54.2867 34.6449 54.2072 34.7844C54.1278 34.9221 54.117 35.2325 54.1828 35.4729C54.2487 35.7134 54.4114 35.8809 54.5451 35.8459C54.6788 35.809 54.7873 35.5332 54.7873 35.2307C54.7873 34.9286 54.6885 34.6479 54.5705 34.6067ZM49.8654 21.5598L50.2287 22.1897C50.4283 22.5369 50.6857 23.3438 50.8 23.9836C50.9143 24.6235 51.0662 25.7576 51.1379 26.5042C51.2639 27.817 51.2708 27.8366 51.4162 27.0862C51.4996 26.6596 51.5715 25.2418 51.5773 23.9348L51.5891 21.5598H49.8654ZM35.4045 13.1243C34.2318 13.0835 32.6615 13.1338 31.9152 13.2346C31.1691 13.3374 29.9929 13.6044 29.299 13.8293C28.6071 14.0543 27.4379 14.5548 26.7033 14.9407C25.9687 15.3285 25.0016 16.0369 24.5519 16.5178C24.1023 16.9968 23.635 17.7397 23.5129 18.1663C23.3909 18.5927 23.2903 19.1584 23.2883 19.426C23.2863 19.6917 23.3849 20.2158 23.5109 20.5901C23.635 20.9643 23.8992 21.5092 24.0949 21.802C24.2927 22.0948 24.7364 22.4771 25.0832 22.6497C25.4303 22.8241 26.1943 22.969 26.7795 22.9729C27.7114 22.9787 28.004 22.8758 29.1047 22.1584C29.7986 21.7086 30.8455 21.1155 31.4309 20.8401C32.2991 20.4309 32.9291 20.3109 34.8225 20.1907C36.1015 20.1092 37.5398 19.9378 38.0207 19.8079C38.5537 19.6663 39.1685 19.3018 39.5988 18.8694C40.1104 18.3575 40.3428 17.9272 40.4455 17.2932C40.523 16.8123 40.523 16.0714 40.4455 15.6448C40.3563 15.1426 40.0889 14.6635 39.6877 14.2874C39.3484 13.9674 38.7244 13.591 38.3039 13.4495C37.8811 13.3099 36.5769 13.1631 35.4045 13.1243ZM56.1906 13.3567C56.0027 13.2908 55.7937 13.3431 55.7238 13.4709C55.656 13.6009 55.8305 13.9014 56.1135 14.1418C56.3963 14.3821 56.7601 14.5782 56.9191 14.5784C57.0799 14.5784 57.212 14.4699 57.216 14.3362C57.2199 14.2025 57.0669 13.9541 56.8771 13.7834C56.6872 13.6128 56.3786 13.4207 56.1906 13.3567ZM13.6223 10.1184C13.5293 10.1184 13.2462 10.2791 12.9924 10.4749C12.7404 10.6727 12.6201 10.8805 12.7268 10.9387C12.8336 10.9947 13.1165 10.9653 13.3566 10.8704C13.5967 10.7773 13.7918 10.5683 13.7922 10.4094C13.7922 10.2486 13.7171 10.1187 13.6223 10.1184ZM15.4689 9.53638C15.2171 9.53647 14.8532 9.69525 14.6594 9.89087C14.4637 10.0847 14.3198 10.3468 14.3391 10.4729C14.3584 10.597 14.5271 10.6994 14.7131 10.7014C14.8991 10.7014 15.2481 10.5723 15.4885 10.4114C15.7287 10.2505 15.9249 9.98642 15.925 9.82739C15.925 9.65092 15.7442 9.53638 15.4689 9.53638ZM41.6555 8.76685C41.2019 8.77072 40.6646 8.86138 40.4592 8.96997C40.2538 9.07861 40.1029 9.33869 40.1203 9.54614C40.141 9.79815 40.3779 9.98914 40.8312 10.1184C41.2673 10.2425 41.7348 10.2464 42.1398 10.1282C42.4868 10.0273 42.8358 9.81157 42.9152 9.64868C43.0023 9.47228 42.944 9.23427 42.7697 9.05786C42.5972 8.88141 42.1458 8.76299 41.6555 8.76685ZM36.2766 7.2229C36.1176 7.22874 35.8051 7.31443 35.5842 7.41138C35.3654 7.5084 35.1257 7.7213 35.0519 7.88403C34.9803 8.04489 35.0514 8.39578 35.2102 8.66333C35.3691 8.929 35.8718 9.3211 36.3254 9.53247C36.7789 9.74378 37.5016 9.91821 37.9338 9.92017C38.3659 9.9221 38.8253 9.81566 38.9553 9.68188C39.0851 9.5481 39.1896 9.24362 39.1877 9.00317C39.1858 8.7589 38.9282 8.35376 38.6027 8.08228C38.2829 7.81467 37.6934 7.51024 37.2941 7.40552C36.8948 7.29886 36.4355 7.21708 36.2766 7.2229Z" fill="white" fill-opacity="0.98"/>
<path d="M26.9849 17.4868C27.3588 17.4869 27.7545 17.6869 28.1362 18.0688C28.5236 18.4565 28.7171 18.8443 28.7173 19.2319C28.7173 19.6333 28.5216 20.0065 28.0874 20.4292C27.5409 20.9623 27.368 21.0261 26.7788 20.9155C26.4049 20.8438 25.9267 20.6092 25.7134 20.3921C25.455 20.1297 25.3257 19.7361 25.3257 19.2114C25.3257 18.5891 25.4396 18.3248 25.8696 17.9546C26.1778 17.6909 26.6631 17.4868 26.9849 17.4868ZM27.0698 18.1548C26.9632 18.1257 26.7503 18.1454 26.5952 18.1997C26.4363 18.254 26.3318 18.4996 26.353 18.7632C26.3743 19.0211 26.5449 19.2792 26.7309 19.3354C26.917 19.3915 27.202 19.3029 27.3608 19.1382C27.5702 18.9229 27.5971 18.7479 27.4575 18.5229C27.3509 18.3485 27.1764 18.1839 27.0698 18.1548ZM36.2671 14.772C36.5927 14.772 37.0324 14.8597 37.2456 14.9663C37.4588 15.0729 37.7653 15.4642 37.9243 15.8384C38.1414 16.3484 38.1663 16.6628 38.021 17.0991C37.9028 17.4539 37.5814 17.8016 37.1977 17.9917C36.812 18.1798 36.3791 18.2489 36.0825 18.1694C35.8151 18.0976 35.4009 17.8493 35.1567 17.6187C34.8428 17.3162 34.7203 16.9849 34.73 16.4595C34.7397 15.9573 34.8908 15.5733 35.2104 15.2476C35.5031 14.9489 35.8969 14.772 36.2671 14.772ZM36.1528 15.3501C36.0327 15.352 35.8345 15.4861 35.7163 15.645C35.5981 15.804 35.5222 16.0799 35.5493 16.2544C35.5765 16.4309 35.7441 16.6693 35.9204 16.7876C36.1663 16.9522 36.3179 16.9324 36.56 16.7114C36.7322 16.5525 36.8733 16.2893 36.8696 16.1304C36.8677 15.9714 36.7533 15.729 36.6196 15.5933C36.484 15.4596 36.275 15.3483 36.1528 15.3501Z" fill="white" fill-opacity="0.98"/>
</svg>
