<svg width="90" height="90" viewBox="0 0 90 90" fill="none" xmlns="http://www.w3.org/2000/svg">
<path d="M39.7156 27.3479C39.6473 27.3491 39.5808 27.3695 39.5237 27.4068C39.4665 27.4441 39.421 27.4967 39.3923 27.5586L38.7091 29.0719C38.6932 29.0832 38.675 29.0909 38.6558 29.0944C38.6345 29.0944 38.6108 29.0719 38.5942 29.0246C38.5776 28.9772 38.4948 28.7593 38.3171 28.3473L38.0981 27.8523C38.0199 27.6699 37.9572 27.5504 37.937 27.5125C37.9081 27.4623 37.8665 27.4206 37.8164 27.3915C37.7664 27.3625 37.7096 27.347 37.6517 27.3467C37.642 27.3338 37.6374 27.3178 37.6386 27.3017C37.6377 27.2866 37.6405 27.2716 37.6469 27.2579H37.7618C37.8897 27.2579 37.9986 27.2638 38.0933 27.2638C38.1881 27.2638 38.3917 27.2531 38.5161 27.2531H38.5907C38.6025 27.2531 38.6072 27.2827 38.6072 27.2922C38.6081 27.3092 38.6053 27.3262 38.599 27.3419C38.5161 27.3502 38.3302 27.3419 38.3302 27.4604C38.33 27.495 38.3356 27.5294 38.3467 27.5622L38.7943 28.6279L39.1673 27.7481C39.2014 27.6739 39.2184 27.5929 39.2171 27.5113C39.2171 27.4118 39.1472 27.368 38.9601 27.3455C38.9543 27.3323 38.9503 27.3183 38.9483 27.3041C38.9496 27.2862 38.9535 27.2686 38.9601 27.252H39.0134C39.0963 27.252 39.1792 27.2626 39.3686 27.2626C39.4018 27.2626 39.5297 27.2567 39.5924 27.2567H39.7203C39.7292 27.268 39.7349 27.2815 39.7369 27.2958C39.7345 27.3147 39.7272 27.3327 39.7156 27.3479Z" fill="white"/>
<path d="M41.6078 29.0433C41.0655 29.0433 40.7719 29.0291 40.6973 29.0291H40.4403C40.3657 29.0291 40.1916 29.041 40.001 29.041H39.8932C39.8867 29.029 39.8838 29.0154 39.885 29.0019C39.8829 28.9846 39.8829 28.9671 39.885 28.9498C39.9793 28.9508 40.0727 28.931 40.1585 28.8918C40.2027 28.8077 40.2228 28.713 40.2165 28.6182C40.2165 28.5353 40.2165 28.4442 40.2165 28.3518C40.2165 28.2156 40.2165 28.0498 40.2165 27.8485V27.5644C40.2165 27.3678 40.117 27.3678 39.9146 27.3453C39.9104 27.3298 39.9076 27.3139 39.9063 27.2979C39.9063 27.2873 39.9063 27.2589 39.9228 27.2529H40.0223C40.0886 27.2529 40.2662 27.2529 40.6061 27.2529C40.9163 27.2529 41.2195 27.2589 41.2846 27.2589H41.4705C41.5119 27.2589 41.5285 27.2589 41.5285 27.3003L41.5534 27.7064C41.5285 27.7183 41.5238 27.723 41.5036 27.723C41.4899 27.7253 41.4759 27.7253 41.4622 27.723C41.4 27.5987 41.3076 27.492 41.1934 27.4128C41.146 27.3837 41.0915 27.3682 41.0359 27.3678C41.0111 27.3678 40.9495 27.3678 40.7991 27.3678C40.6807 27.3678 40.6132 27.3678 40.5966 27.3737C40.58 27.3796 40.58 27.3737 40.5717 27.4424C40.5717 27.4862 40.5635 27.5608 40.5635 27.7976V28.0344H40.625C40.6931 28.0356 40.761 28.0288 40.8275 28.0143C40.9012 27.9939 40.9656 27.9487 41.0099 27.8864C41.0289 27.8383 41.0428 27.7883 41.0513 27.7372C41.0692 27.7281 41.0893 27.724 41.1093 27.7254C41.1255 27.7248 41.1414 27.7298 41.1543 27.7396C41.1543 27.8118 41.1378 27.9492 41.1378 28.1221C41.1378 28.2085 41.146 28.3992 41.146 28.4773C41.1392 28.483 41.1312 28.4871 41.1226 28.4896C41.1141 28.492 41.1051 28.4927 41.0963 28.4915C41.0795 28.4916 41.0628 28.4896 41.0466 28.4856C41.03 28.3328 41.0051 28.2286 40.8772 28.1754C40.8144 28.1488 40.7466 28.1359 40.6783 28.1375C40.6387 28.1382 40.5992 28.1409 40.5599 28.1458V28.6194C40.5552 28.6906 40.5636 28.762 40.5848 28.8302C40.5978 28.861 40.6381 28.9237 40.6925 28.9296C40.7473 28.9387 40.8028 28.9427 40.8583 28.9415H41.1153C41.1837 28.9411 41.2513 28.9271 41.3142 28.9C41.439 28.7977 41.537 28.6664 41.5996 28.5176C41.6163 28.5099 41.6345 28.5063 41.6528 28.5069C41.6713 28.5078 41.6894 28.5122 41.7061 28.5199V28.9936C41.7038 29.0374 41.6694 29.0433 41.6078 29.0433Z" fill="white"/>
<path d="M43.7618 27.8186C43.7499 27.8186 43.7333 27.8186 43.712 27.8127C43.6794 27.7189 43.6348 27.6298 43.5794 27.5474C43.5409 27.4952 43.4911 27.4524 43.4336 27.4223C43.3762 27.3921 43.3127 27.3754 43.2479 27.3734C43.2064 27.3734 43.1069 27.3734 43.0738 27.3734V28.162C43.0738 28.2804 43.0738 28.4331 43.0738 28.7043C43.0738 28.9139 43.1685 28.9139 43.384 28.9411C43.3941 28.9567 43.3998 28.9747 43.4006 28.9932C43.4006 29.0086 43.3965 29.0237 43.3888 29.037H43.3094C43.191 29.037 42.9364 29.0288 42.8583 29.0288C42.805 29.0288 42.5315 29.0406 42.4024 29.0406C42.3963 29.0344 42.3917 29.0269 42.3888 29.0188C42.386 29.0106 42.3849 29.0019 42.3858 28.9932C42.3868 28.9767 42.3912 28.9606 42.3988 28.9459C42.6842 28.9246 42.7138 28.8713 42.7221 28.7801C42.7304 28.7221 42.7304 28.4864 42.7304 28.2461V27.5889C42.7321 27.5163 42.7266 27.4437 42.7138 27.3722C42.6211 27.3691 42.5282 27.3754 42.4367 27.3911C42.2724 27.4719 42.1453 27.6126 42.0815 27.7842C42.067 27.7891 42.0517 27.7911 42.0365 27.7902C42.0286 27.7905 42.0207 27.789 42.0135 27.7857C42.0063 27.7824 42 27.7775 41.9951 27.7712V27.3118C41.9951 27.2703 41.9951 27.2597 42.0483 27.2597H42.2425C42.3041 27.2597 42.5658 27.2597 42.8926 27.2597C43.3236 27.2597 43.6422 27.249 43.7215 27.249C43.763 27.249 43.7914 27.249 43.8079 27.2632C43.8101 27.2853 43.8101 27.3075 43.8079 27.3295V27.789C43.804 27.7979 43.7975 27.8055 43.7893 27.8107C43.7811 27.816 43.7715 27.8187 43.7618 27.8186Z" fill="white"/>
<path d="M39.6292 30.6217C39.6126 30.6217 39.5996 30.6217 39.5759 30.6158C39.5468 30.5205 39.502 30.4309 39.4433 30.3505C39.4051 30.2979 39.3554 30.2548 39.2979 30.2246C39.2404 30.1944 39.1766 30.178 39.1117 30.1764C39.0703 30.1764 38.9708 30.1764 38.9376 30.1764V30.9651C38.9376 31.0835 38.9376 31.2362 38.9376 31.5074C38.9376 31.717 39.0371 31.717 39.2526 31.7442C39.2615 31.7601 39.2657 31.7782 39.2644 31.7963C39.2658 31.8114 39.2629 31.8266 39.2562 31.8401H39.1827C39.0549 31.8401 38.8062 31.8318 38.7316 31.8318C38.6783 31.8318 38.4048 31.8449 38.2722 31.8449C38.2632 31.8308 38.259 31.8142 38.2603 31.7975C38.2614 31.7815 38.2641 31.7656 38.2686 31.7501C38.554 31.7288 38.5836 31.6755 38.5954 31.5844C38.5954 31.5263 38.5954 31.2907 38.5954 31.0503V30.3967C38.5984 30.3239 38.5945 30.2509 38.5836 30.1788C38.4892 30.1757 38.3948 30.182 38.3018 30.1978C38.1371 30.2781 38.0098 30.4189 37.9465 30.5909C37.9304 30.5956 37.9136 30.5977 37.8968 30.5968C37.8889 30.5968 37.8811 30.5951 37.874 30.5919C37.8668 30.5886 37.8605 30.5838 37.8553 30.5779V30.1184C37.8553 30.077 37.8636 30.0663 37.9086 30.0663H38.1028C38.1691 30.0663 38.4296 30.0663 38.7565 30.0663C39.1827 30.0663 39.506 30.0557 39.5853 30.0557C39.6303 30.0557 39.6599 30.0557 39.673 30.0699C39.686 30.0841 39.673 30.1113 39.673 30.1362V30.5956C39.6683 30.6032 39.6619 30.6095 39.6543 30.6141C39.6467 30.6186 39.638 30.6212 39.6292 30.6217Z" fill="white"/>
<path d="M41.6694 31.8472C41.1306 31.8472 40.8334 31.833 40.7624 31.833H40.5019C40.432 31.833 40.2532 31.846 40.0673 31.846H39.9596C39.9519 31.8344 39.9478 31.8208 39.9477 31.8069C39.9465 31.7891 39.9494 31.7713 39.956 31.7548C40.0489 31.7568 40.141 31.737 40.2248 31.6968C40.258 31.6613 40.2745 31.5855 40.2828 31.4233C40.2828 31.3404 40.2911 31.2492 40.2911 31.1557C40.2911 31.0195 40.2911 30.8537 40.2911 30.6524C40.2911 30.5139 40.2911 30.431 40.2911 30.3729C40.2911 30.1764 40.1952 30.1764 39.9927 30.1539C39.9857 30.139 39.9816 30.1229 39.9809 30.1065C39.9809 30.0959 39.9892 30.0674 40.001 30.0615H40.0969C40.1668 30.0615 40.3408 30.0615 40.6807 30.0615C40.9957 30.0615 41.2929 30.0674 41.3639 30.0674H41.5463C41.5913 30.0674 41.6079 30.0674 41.6079 30.1089L41.628 30.515C41.6138 30.5261 41.5962 30.532 41.5782 30.5316C41.5645 30.5334 41.5506 30.5334 41.5368 30.5316C41.4775 30.4054 41.3844 30.2981 41.268 30.2214C41.2224 30.1922 41.1694 30.1766 41.1153 30.1764C41.0904 30.1764 41.0288 30.1764 40.8713 30.1764C40.7529 30.1764 40.6854 30.1764 40.6724 30.1823C40.6594 30.1882 40.6511 30.1823 40.6428 30.251C40.6428 30.2948 40.6428 30.3694 40.6428 30.6062V30.843H40.7008C40.7689 30.8444 40.837 30.8372 40.9033 30.8217C40.9779 30.8013 41.0434 30.7562 41.0892 30.6938C41.1065 30.6455 41.1188 30.5955 41.1259 30.5446C41.144 30.536 41.1639 30.5316 41.1839 30.5316C41.2017 30.5303 41.2193 30.5353 41.2337 30.5458C41.2337 30.6181 41.2135 30.7554 41.2135 30.9283C41.2135 31.0147 41.2254 31.2054 41.2254 31.2835C41.2112 31.2945 41.1934 31.2995 41.1756 31.2977C41.1577 31.2978 41.1398 31.2958 41.1224 31.2918C41.1058 31.1391 41.0845 31.0349 40.953 30.9816C40.8917 30.9554 40.8255 30.9425 40.7588 30.9437C40.7193 30.9445 40.6797 30.9473 40.6404 30.952V31.4256C40.6371 31.4965 40.6439 31.5675 40.6606 31.6364C40.6771 31.6672 40.7186 31.73 40.7683 31.7359C40.8231 31.7453 40.8785 31.7496 40.9341 31.7489H41.1946C41.2595 31.7519 41.3243 31.7419 41.3852 31.7193C41.5132 31.6188 41.6131 31.4871 41.6753 31.3368C41.6919 31.3287 41.7102 31.3251 41.7286 31.3262C41.7459 31.3266 41.7628 31.3307 41.7784 31.338V31.8117C41.7701 31.8413 41.7405 31.8472 41.6694 31.8472Z" fill="white"/>
<path d="M42.9328 31.8858C42.7886 31.8797 42.6473 31.843 42.5184 31.778C42.4973 31.7694 42.4749 31.7645 42.4521 31.7638C42.4035 31.777 42.3583 31.8005 42.3195 31.8325C42.299 31.8334 42.2786 31.829 42.2603 31.8196C42.2421 31.8103 42.2265 31.7964 42.2153 31.7792C42.2153 31.7413 42.2484 31.63 42.2484 31.5601C42.2484 31.5187 42.2366 31.3233 42.2318 31.27C42.2411 31.2582 42.253 31.2488 42.2666 31.2424C42.2801 31.236 42.295 31.2329 42.31 31.2333C42.3198 31.2322 42.3298 31.2322 42.3396 31.2333C42.3775 31.3056 42.4521 31.5009 42.5054 31.5791C42.5552 31.6361 42.6162 31.6823 42.6847 31.7147C42.7531 31.7471 42.8275 31.765 42.9032 31.7674C42.9549 31.7727 43.0071 31.7678 43.0569 31.753C43.1067 31.7382 43.153 31.7137 43.1934 31.6809C43.2265 31.6555 43.2528 31.6223 43.2702 31.5843C43.2875 31.5464 43.2953 31.5047 43.2928 31.463C43.2966 31.4051 43.2789 31.3478 43.2431 31.302C43.1942 31.2418 43.13 31.196 43.0572 31.1694C42.979 31.1315 42.7019 31.064 42.6013 31.0095C42.5064 30.9697 42.4215 30.9095 42.3526 30.8331C42.2838 30.7385 42.2473 30.6244 42.2484 30.5075C42.2493 30.4377 42.2646 30.3688 42.2932 30.3051C42.3219 30.2415 42.3633 30.1844 42.4149 30.1374C42.4666 30.0904 42.5273 30.0546 42.5934 30.0321C42.6595 30.0096 42.7295 30.0009 42.799 30.0066C42.9505 29.9958 43.1011 30.0376 43.2253 30.125C43.2576 30.089 43.292 30.055 43.3283 30.0232C43.347 30.0213 43.3658 30.0248 43.3825 30.0332C43.3993 30.0416 43.4134 30.0545 43.4231 30.0705C43.4089 30.1512 43.3994 30.2327 43.3947 30.3144C43.3947 30.3618 43.4231 30.5513 43.4231 30.5797C43.4018 30.5928 43.378 30.6013 43.3532 30.6046C43.3419 30.6032 43.3307 30.6004 43.3201 30.5963C43.2703 30.5098 43.2253 30.3594 43.1709 30.286C43.1292 30.2329 43.0748 30.1911 43.0127 30.1644C42.9507 30.1377 42.8829 30.127 42.8156 30.1333C42.7768 30.13 42.7376 30.1346 42.7005 30.1467C42.6634 30.1587 42.6291 30.178 42.5996 30.2035C42.57 30.229 42.5459 30.2601 42.5285 30.295C42.5111 30.3299 42.5008 30.3679 42.4983 30.4068C42.5036 30.468 42.5274 30.5261 42.5665 30.5735C42.6057 30.6209 42.6582 30.6552 42.7173 30.6721C42.7919 30.7017 42.8831 30.736 42.9861 30.768C43.0835 30.7985 43.1789 30.8352 43.2715 30.8781C43.3631 30.9175 43.4403 30.984 43.4928 31.0687C43.5454 31.1534 43.5706 31.2522 43.5652 31.3517C43.5595 31.4286 43.5386 31.5036 43.5036 31.5723C43.4686 31.641 43.4202 31.702 43.3613 31.7517C43.3024 31.8015 43.2342 31.8389 43.1606 31.862C43.087 31.885 43.0096 31.8931 42.9328 31.8858Z" fill="white"/>
<path d="M40.3503 34.6548C39.808 34.6548 39.5143 34.6406 39.4397 34.6406H39.1828C39.1082 34.6406 38.9341 34.6536 38.7435 34.6536H38.6357C38.6291 34.6417 38.6262 34.6281 38.6274 34.6145C38.6255 34.5972 38.6255 34.5797 38.6274 34.5624C38.7218 34.5635 38.8152 34.5437 38.9009 34.5044C38.9453 34.4204 38.9654 34.3257 38.959 34.2309C38.959 34.148 38.959 34.0568 38.959 33.9633C38.959 33.8271 38.959 33.6613 38.959 33.46V33.1806C38.959 32.984 38.8595 32.984 38.657 32.9615C38.6527 32.946 38.6499 32.9302 38.6487 32.9141C38.6487 32.9035 38.6487 32.8751 38.6653 32.8691H38.7648C38.8311 32.8691 39.0087 32.8691 39.3485 32.8691C39.6588 32.8691 39.9607 32.8751 40.027 32.8751H40.213C40.2544 32.8751 40.271 32.8751 40.271 32.9165L40.2958 33.3227C40.271 33.3357 40.2674 33.3392 40.2461 33.3392C40.2324 33.3417 40.2184 33.3417 40.2047 33.3392C40.1425 33.2149 40.0501 33.1082 39.9359 33.029C39.8885 32.9999 39.834 32.9843 39.7784 32.984C39.7535 32.984 39.6919 32.984 39.5416 32.984C39.4231 32.984 39.3556 32.984 39.3391 32.9899C39.3225 32.9958 39.3225 32.9899 39.3142 33.0586C39.3142 33.1024 39.3059 33.177 39.3059 33.4138V33.6507H39.3675C39.4355 33.6518 39.5035 33.645 39.57 33.6305C39.6436 33.6101 39.708 33.565 39.7523 33.5026C39.7713 33.4545 39.7852 33.4045 39.7938 33.3534C39.8116 33.3439 39.8316 33.3394 39.8518 33.3404C39.868 33.3399 39.8838 33.3449 39.8968 33.3546C39.8968 33.4269 39.8802 33.5642 39.8802 33.7371C39.8802 33.8247 39.8885 34.0142 39.8885 34.0923C39.8816 34.098 39.8737 34.1021 39.8651 34.1046C39.8566 34.107 39.8476 34.1077 39.8388 34.1065C39.822 34.1067 39.8053 34.1047 39.789 34.1006C39.7725 33.9479 39.7476 33.8437 39.6197 33.7904C39.5567 33.7643 39.4889 33.7518 39.4208 33.7537C39.3812 33.7544 39.3417 33.7572 39.3024 33.762V34.2356C39.2977 34.3068 39.3061 34.3783 39.3272 34.4464C39.3403 34.4772 39.3805 34.5399 39.435 34.5459C39.4898 34.5549 39.5453 34.5589 39.6008 34.5577H39.8577C39.9238 34.5606 39.9897 34.5506 40.0519 34.5281C40.1769 34.4259 40.2749 34.2945 40.3373 34.1456C40.354 34.138 40.3722 34.1343 40.3906 34.135C40.409 34.1357 40.4271 34.1402 40.4439 34.148V34.6216C40.445 34.6477 40.4154 34.6548 40.3503 34.6548Z" fill="white"/>
<path d="M42.9577 32.9529C42.7754 32.9588 42.6179 33.0583 42.6179 33.3484V34.2697C42.6179 34.3052 42.6345 34.5657 42.6345 34.6652C42.6125 34.6811 42.5868 34.6913 42.5599 34.6948C42.5425 34.6892 42.5269 34.6789 42.5149 34.6652L41.2526 33.307L41.2656 33.5841V34.0849C41.2656 34.124 41.2739 34.2176 41.2822 34.2874C41.2807 34.3242 41.2883 34.3608 41.3041 34.3941C41.32 34.4273 41.3438 34.4561 41.3734 34.4781C41.4436 34.5255 41.5256 34.5525 41.6102 34.5562C41.6176 34.5688 41.6217 34.5831 41.622 34.5977C41.6206 34.6139 41.6149 34.6294 41.6055 34.6427H41.4693C41.3509 34.6427 41.2621 34.6427 41.1425 34.6427C41.0643 34.6427 40.9518 34.651 40.8737 34.651H40.8157C40.8138 34.6372 40.8138 34.6233 40.8157 34.6095C40.8155 34.5941 40.8183 34.5788 40.8239 34.5645C40.9302 34.5606 41.0315 34.5185 41.1093 34.4461C41.1324 34.3767 41.1424 34.3036 41.1389 34.2306V33.5888C41.1389 33.4858 41.1389 33.4337 41.1306 33.3318C41.133 33.2592 41.1099 33.188 41.0655 33.1305C41.0394 33.0966 41.01 33.0653 40.9779 33.037C40.9142 32.9993 40.8462 32.9695 40.7754 32.9482C40.7692 32.9351 40.7653 32.9211 40.7635 32.9067C40.7639 32.891 40.768 32.8756 40.7754 32.8617H40.8204C40.8583 32.8617 41.0572 32.8724 41.2017 32.8724H41.2881C41.3079 32.8809 41.326 32.8929 41.3414 32.9079L42.2769 33.931C42.3467 34.0092 42.4379 34.1134 42.4876 34.1797V33.4384C42.4885 33.37 42.4857 33.3016 42.4793 33.2336C42.4747 33.1663 42.4566 33.1007 42.4261 33.0405C42.3976 32.9955 42.2236 32.9707 42.1324 32.9517C42.126 32.9347 42.1232 32.9166 42.1241 32.8985C42.1224 32.8855 42.1224 32.8723 42.1241 32.8594H42.1774C42.2638 32.8594 42.4047 32.8724 42.4924 32.8724C42.7079 32.8724 42.7742 32.8665 42.8819 32.8665H42.9518C42.9583 32.8801 42.9611 32.8952 42.9601 32.9103C42.9626 32.9245 42.9618 32.9391 42.9577 32.9529Z" fill="white"/>
<path d="M48.8583 27.3419C48.6806 27.3478 48.5184 27.4473 48.5184 27.7374V28.6586C48.5184 28.6942 48.5302 28.9547 48.5302 29.0541C48.5098 29.0698 48.4858 29.0799 48.4604 29.0837C48.4485 29.0837 48.4355 29.0731 48.4107 29.0541L47.1484 27.6959L47.165 27.973V28.4739C47.165 28.513 47.1732 28.6065 47.1768 28.6764C47.1772 28.7129 47.1856 28.7488 47.2013 28.7818C47.2171 28.8147 47.2398 28.8438 47.268 28.867C47.3388 28.9133 47.4204 28.9402 47.5048 28.9452C47.5122 28.9578 47.5163 28.972 47.5166 28.9866C47.5153 29.0022 47.5113 29.0174 47.5048 29.0316H47.3639C47.2514 29.0316 47.1614 29.0316 47.0371 29.0316C46.9589 29.0316 46.8512 29.0399 46.7718 29.0399H46.7138C46.7095 29.0265 46.7067 29.0126 46.7055 28.9985C46.7054 28.9825 46.7099 28.9669 46.7185 28.9535C46.8236 28.9489 46.9236 28.9069 47.0004 28.8351C47.0253 28.7661 47.0354 28.6927 47.03 28.6196V27.9778C47.03 27.8747 47.03 27.8226 47.03 27.7208C47.0299 27.6513 47.0084 27.5835 46.9684 27.5266C46.9406 27.493 46.9101 27.4617 46.8772 27.4331C46.8139 27.3946 46.7459 27.3648 46.6747 27.3443C46.6712 27.3306 46.6684 27.3168 46.6664 27.3028C46.6675 27.2875 46.6702 27.2724 46.6747 27.2578H46.7245C46.7576 27.2578 46.9518 27.2685 47.101 27.2685H47.1875C47.2081 27.278 47.2276 27.2899 47.2455 27.304L48.1809 28.3271C48.2508 28.4052 48.342 28.5094 48.3917 28.5757V27.8392C48.3917 27.7707 48.3873 27.7023 48.3787 27.6344C48.3761 27.5668 48.3579 27.5007 48.3254 27.4414C48.297 27.3964 48.1229 27.3715 48.0353 27.3525C48.0279 27.3357 48.0239 27.3176 48.0234 27.2993C48.0228 27.2857 48.0256 27.2723 48.0317 27.2602H48.085C48.1715 27.2602 48.3124 27.272 48.4 27.272C48.6108 27.272 48.6818 27.2661 48.7896 27.2661H48.8559C48.8636 27.2795 48.868 27.2945 48.8689 27.3099C48.867 27.3211 48.8634 27.3318 48.8583 27.3419Z" fill="white"/>
<path d="M50.7173 28.817C50.6354 28.901 50.5377 28.968 50.4299 29.0141C50.322 29.0603 50.2061 29.0846 50.0889 29.0859C49.9716 29.0871 49.8552 29.0651 49.7464 29.0212C49.6376 28.9773 49.5386 28.9123 49.455 28.83C49.3657 28.7412 49.2956 28.6349 49.2494 28.5177C49.2031 28.4006 49.1816 28.2751 49.1862 28.1492C49.1827 28.0239 49.2047 27.8993 49.2509 27.7829C49.2971 27.6664 49.3666 27.5606 49.455 27.4719C49.6218 27.3049 49.8478 27.2104 50.0838 27.209C50.2506 27.2104 50.4141 27.2562 50.5574 27.3416C50.6922 27.4254 50.8034 27.5423 50.8802 27.6812C50.9571 27.82 50.9972 27.9762 50.9967 28.135C50.9946 28.3898 50.8946 28.634 50.7173 28.817ZM50.4272 27.5145C50.3888 27.4555 50.3361 27.4073 50.2739 27.3744C50.2118 27.3415 50.1423 27.3249 50.0719 27.3262C50.005 27.3255 49.939 27.3425 49.8808 27.3756C49.8225 27.4087 49.7741 27.4566 49.7404 27.5145C49.618 27.7012 49.5598 27.9228 49.5746 28.1456C49.5623 28.3659 49.6173 28.5848 49.7321 28.7732C49.7682 28.8348 49.8202 28.8856 49.8828 28.9202C49.9453 28.9548 50.0159 28.9719 50.0873 28.9698C50.1692 28.9724 50.2499 28.9506 50.3193 28.9072C50.3887 28.8637 50.4435 28.8006 50.4769 28.7258C50.5648 28.5481 50.6056 28.3508 50.5953 28.1527C50.6126 27.9267 50.5552 27.7012 50.4319 27.5109L50.4272 27.5145Z" fill="white"/>
<path d="M53.2596 27.3479C53.1922 27.35 53.1267 27.3708 53.0705 27.408C53.0142 27.4453 52.9694 27.4974 52.9411 27.5586L52.2626 29.0719C52.2467 29.0832 52.2285 29.0909 52.2093 29.0944C52.188 29.0944 52.1596 29.0719 52.1477 29.0246C52.1359 28.9772 52.0483 28.7593 51.8659 28.3473L51.6504 27.8523C51.5723 27.6699 51.5095 27.5504 51.4894 27.5125C51.46 27.4627 51.4183 27.4213 51.3683 27.3923C51.3184 27.3633 51.2618 27.3476 51.204 27.3467C51.198 27.3409 51.1934 27.3339 51.1905 27.3261C51.1876 27.3183 51.1866 27.31 51.1874 27.3017C51.1862 27.286 51.1909 27.2704 51.2004 27.2579H51.3118C51.4302 27.2579 51.5486 27.2638 51.6386 27.2638C51.7286 27.2638 51.937 27.2531 52.0649 27.2531H52.1347C52.1513 27.2531 52.1549 27.2827 52.1549 27.2922C52.1557 27.3092 52.1529 27.3262 52.1466 27.3419C52.0601 27.3502 51.8778 27.3419 51.8778 27.4604C51.8757 27.4951 51.8814 27.5299 51.8943 27.5622L52.3372 28.6279L52.7138 27.7481C52.7446 27.673 52.76 27.5925 52.7588 27.5113C52.7588 27.4118 52.6889 27.368 52.5018 27.3455C52.497 27.3322 52.4942 27.3182 52.4935 27.3041C52.4937 27.2864 52.4965 27.2688 52.5018 27.252H52.5551C52.638 27.252 52.7209 27.2626 52.9103 27.2626C52.9399 27.2626 53.0714 27.2567 53.1341 27.2567H53.262C53.2713 27.2696 53.2764 27.2851 53.2764 27.3011C53.2764 27.317 53.2713 27.3326 53.262 27.3455L53.2596 27.3479Z" fill="white"/>
<path d="M48.2745 30.6217C48.2579 30.6217 48.2461 30.6217 48.2212 30.6158C48.192 30.5206 48.1472 30.431 48.0886 30.3505C48.0504 30.298 48.0006 30.2549 47.9431 30.2248C47.8856 30.1946 47.822 30.178 47.757 30.1764C47.7156 30.1764 47.6161 30.1764 47.583 30.1764V30.9651C47.583 31.0835 47.583 31.2362 47.583 31.5074C47.583 31.717 47.6824 31.717 47.8979 31.7442C47.9074 31.7599 47.9119 31.778 47.911 31.7963C47.9123 31.8114 47.9095 31.8266 47.9027 31.8401H47.8269C47.699 31.8401 47.4503 31.8318 47.3757 31.8318C47.3225 31.8318 47.0489 31.8449 46.9163 31.8449C46.9069 31.8309 46.9023 31.8143 46.9033 31.7975C46.9044 31.7815 46.9072 31.7656 46.9116 31.7501C47.1969 31.7288 47.2265 31.6755 47.2384 31.5844C47.2384 31.5263 47.2384 31.2907 47.2384 31.0503V30.3967C47.2411 30.3238 47.2368 30.2508 47.2254 30.1788C47.131 30.1757 47.0366 30.182 46.9435 30.1978C46.7789 30.2781 46.6516 30.4189 46.5883 30.5909C46.5722 30.5956 46.5554 30.5977 46.5386 30.5968C46.5307 30.5968 46.5229 30.5951 46.5158 30.5919C46.5086 30.5886 46.5023 30.5838 46.4971 30.5779V30.1184C46.4971 30.077 46.5054 30.0663 46.5504 30.0663H46.7446C46.8109 30.0663 47.0714 30.0663 47.3982 30.0663C47.8245 30.0663 48.1478 30.0557 48.2271 30.0557C48.2721 30.0557 48.3017 30.0557 48.3136 30.0699C48.3254 30.0841 48.3136 30.1113 48.3136 30.1362V30.5956C48.3094 30.6026 48.3037 30.6086 48.297 30.6131C48.2902 30.6176 48.2825 30.6205 48.2745 30.6217Z" fill="white"/>
<path d="M50.4189 31.8438H50.2779C50.1868 31.8438 50.0838 31.832 49.976 31.832C49.8067 31.832 49.5912 31.8438 49.5023 31.8438C49.4927 31.8309 49.488 31.8149 49.4893 31.7988C49.4902 31.7847 49.4929 31.7707 49.4976 31.7574C49.6717 31.7491 49.7415 31.7195 49.7415 31.6496C49.7397 31.5679 49.7216 31.4874 49.6883 31.4128C49.635 31.2825 49.6054 31.2221 49.5923 31.189C49.5841 31.176 49.5805 31.17 49.5426 31.17H48.9802C48.9188 31.2763 48.8741 31.3913 48.8475 31.5111C48.8385 31.5451 48.8341 31.5801 48.8345 31.6153C48.8345 31.6733 48.8878 31.7337 49.0867 31.7432C49.0955 31.7582 49.0996 31.7755 49.0986 31.7929C49.1004 31.8066 49.1004 31.8206 49.0986 31.8343H49.0488C48.9162 31.8343 48.8795 31.826 48.7386 31.826C48.6474 31.826 48.4283 31.8343 48.3537 31.8343C48.3489 31.8222 48.3461 31.8094 48.3455 31.7964C48.3449 31.781 48.3478 31.7657 48.3537 31.7514C48.4531 31.7431 48.5452 31.6963 48.6107 31.6212C48.6998 31.4729 48.7758 31.3172 48.8381 31.1558C48.9375 30.919 49.0571 30.6159 49.1116 30.4892C49.1862 30.3341 49.2111 30.282 49.23 30.2287C49.2679 30.1505 49.3082 30.0712 49.3247 30.0428C49.3338 30.0318 49.3452 30.023 49.3581 30.017C49.371 30.0109 49.3851 30.0078 49.3993 30.0078C49.4136 30.0078 49.4276 30.0109 49.4405 30.017C49.4534 30.023 49.4648 30.0318 49.4739 30.0428C49.4904 30.0711 49.5042 30.1008 49.5154 30.1316C49.6184 30.3779 49.7013 30.5969 49.8303 30.9036C49.8967 31.0587 49.9298 31.1558 49.9997 31.3181C50.0494 31.4199 50.0778 31.4957 50.1276 31.5892C50.1939 31.7242 50.3016 31.7254 50.4094 31.7526C50.4094 31.7645 50.426 31.7775 50.426 31.7941C50.426 31.8107 50.4319 31.8272 50.4189 31.8438ZM49.288 30.4229C49.2501 30.4915 49.185 30.6467 49.1601 30.7106C49.0642 30.9474 49.0323 31.0208 49.0157 31.054H49.5497C49.5035 30.9522 49.3662 30.623 49.2892 30.4264L49.288 30.4229Z" fill="white"/>
<path d="M53.185 31.8451L52.4603 31.8369H52.2614C52.2541 31.8229 52.2497 31.8076 52.2484 31.7919C52.248 31.7836 52.2493 31.7754 52.2521 31.7677C52.255 31.7599 52.2593 31.7529 52.265 31.7469C52.3246 31.7472 52.3841 31.7416 52.4426 31.7303C52.5172 31.6971 52.5468 31.6249 52.5468 31.5171V30.2288L52.1655 31.0577C52.1241 31.1489 52.0743 31.2483 52.0329 31.3478C51.9729 31.4802 51.9203 31.6158 51.8754 31.754C51.8709 31.7653 51.8628 31.7747 51.8522 31.7808C51.8417 31.7868 51.8294 31.789 51.8174 31.7871C51.7925 31.7871 51.7759 31.7788 51.7641 31.7374C51.7143 31.6296 51.6812 31.5598 51.6646 31.5136L51.0726 30.2016H51.0595V30.5367L51.0726 31.375C51.0726 31.6296 51.2052 31.7504 51.4077 31.7504C51.4155 31.764 51.4211 31.7788 51.4242 31.7942C51.4233 31.8096 51.4189 31.8246 51.4112 31.838C51.3982 31.838 51.3579 31.838 51.32 31.838C51.2821 31.838 51.1625 31.8262 50.9719 31.8262C50.9186 31.8262 50.8061 31.8262 50.7197 31.8262H50.6013C50.5964 31.8121 50.5936 31.7973 50.593 31.7824C50.5945 31.7691 50.5973 31.756 50.6013 31.7433C50.6922 31.7261 50.78 31.6953 50.8618 31.6521C50.8997 31.6166 50.9316 31.5408 50.9316 31.3644V30.4455C50.9316 30.2987 50.9115 30.243 50.8405 30.1933C50.7644 30.1657 50.6845 30.1497 50.6036 30.1459C50.5961 30.1304 50.5921 30.1134 50.5918 30.0962C50.5924 30.0798 50.5964 30.0636 50.6036 30.0488C50.6747 30.0488 50.7978 30.0547 50.9222 30.0547H51.3567C51.3733 30.0659 51.3865 30.0815 51.3946 30.0997L51.9287 31.3111L52.0246 31.0743C52.1075 30.8801 52.2271 30.5876 52.3976 30.2714L52.5053 30.0642L53.1838 30.0536C53.1933 30.0663 53.1991 30.0815 53.2004 30.0974C53.2002 30.1133 53.1957 30.1288 53.1874 30.1424C53.1128 30.1554 52.9849 30.1554 52.9221 30.2608C52.9008 30.2939 52.889 30.3271 52.889 30.4739V31.3372C52.889 31.6687 52.9719 31.7019 53.0074 31.7267C53.0667 31.7438 53.1281 31.7522 53.1898 31.7516C53.1974 31.7654 53.2015 31.7808 53.2016 31.7966C53.1969 31.8286 53.1886 31.8286 53.185 31.8451Z" fill="white"/>
<path d="M48.233 33.4291C48.2164 33.4291 48.2034 33.4291 48.1797 33.4232C48.1506 33.328 48.1057 33.2384 48.0471 33.1579C48.009 33.1053 47.9592 33.0622 47.9017 33.0321C47.8442 33.0019 47.7805 32.9854 47.7156 32.9839C47.6741 32.9839 47.5746 32.9839 47.5415 32.9839V33.7725C47.5415 33.8909 47.5415 34.0436 47.5415 34.3148C47.5415 34.5244 47.641 34.5244 47.8565 34.5516C47.8654 34.5675 47.8695 34.5856 47.8683 34.6037C47.8697 34.6188 47.8668 34.634 47.86 34.6475H47.7819C47.654 34.6475 47.4053 34.6393 47.3307 34.6393C47.2774 34.6393 47.0039 34.6523 46.8713 34.6523C46.8623 34.6382 46.8581 34.6216 46.8594 34.6049C46.8605 34.5889 46.8633 34.573 46.8677 34.5576C47.1531 34.5362 47.1827 34.483 47.1945 34.3918C47.1945 34.3338 47.1945 34.0981 47.1945 33.8577V33.2041C47.1975 33.1317 47.1935 33.0591 47.1827 32.9874C47.0884 32.9843 46.994 32.9906 46.9009 33.0064C46.7362 33.0867 46.6089 33.2275 46.5456 33.3995C46.5295 33.4042 46.5127 33.4062 46.4959 33.4054C46.488 33.4054 46.4803 33.4037 46.4731 33.4005C46.466 33.3972 46.4596 33.3924 46.4545 33.3865V32.927C46.4545 32.8856 46.4628 32.8749 46.5078 32.8749H46.7019C46.7683 32.8749 47.0288 32.8749 47.3556 32.8749C47.7819 32.8749 48.1051 32.8643 48.1845 32.8643C48.2295 32.8643 48.2591 32.8643 48.2709 32.8785C48.2828 32.8927 48.2709 32.9199 48.2709 32.9448V33.4042C48.2668 33.4108 48.2612 33.4165 48.2547 33.4208C48.2481 33.4251 48.2408 33.4279 48.233 33.4291Z" fill="white"/>
<path d="M50.4556 32.9592C50.3881 32.9612 50.3226 32.982 50.2663 33.0192C50.21 33.0564 50.1653 33.1087 50.1371 33.17L49.4574 34.6833C49.4415 34.6946 49.4233 34.7022 49.4041 34.7058C49.384 34.7058 49.3543 34.6833 49.3425 34.6359C49.3307 34.5885 49.243 34.3707 49.0607 33.9586L48.8452 33.4636C48.767 33.2813 48.7043 33.1617 48.6841 33.1238C48.6547 33.074 48.6131 33.0327 48.5631 33.0036C48.5131 32.9746 48.4565 32.9589 48.3988 32.958C48.3927 32.9523 48.3881 32.9452 48.3853 32.9374C48.3824 32.9296 48.3813 32.9213 48.3822 32.913C48.381 32.8973 48.3856 32.8817 48.3952 32.8692H48.5065C48.6249 32.8692 48.7433 32.8751 48.8333 32.8751C48.9233 32.8751 49.1317 32.8645 49.2596 32.8645H49.3295C49.3461 32.8645 49.3508 32.8929 49.3508 32.9035C49.3516 32.9205 49.3488 32.9375 49.3425 32.9533C49.2549 32.9616 49.0737 32.9533 49.0737 33.0717C49.0717 33.1064 49.0773 33.1412 49.0903 33.1735L49.5332 34.2392L49.9097 33.3594C49.9408 33.2844 49.9561 33.2038 49.9547 33.1226C49.9547 33.0231 49.8848 32.9805 49.6977 32.9568C49.693 32.9435 49.6903 32.9295 49.6895 32.9154C49.6897 32.8977 49.6925 32.8802 49.6977 32.8633H49.751C49.8339 32.8633 49.9168 32.8739 50.1063 32.8739C50.1359 32.8739 50.2673 32.868 50.3301 32.868H50.458C50.4659 32.8795 50.4705 32.8931 50.471 32.9071C50.4725 32.9258 50.467 32.9443 50.4556 32.9592Z" fill="white"/>
<path d="M53.2217 34.6514L52.5017 34.6431H52.2992C52.293 34.6289 52.2902 34.6135 52.2909 34.5981C52.2898 34.5902 52.2902 34.5821 52.2923 34.5744C52.2943 34.5666 52.2979 34.5594 52.3028 34.5531C52.364 34.5533 52.425 34.5478 52.4851 34.5365C52.555 34.5034 52.5846 34.4311 52.5846 34.3234V33.2778C52.5846 33.2778 52.5846 33.0895 52.5846 33.041H52.5763L52.1998 33.8698C52.1548 33.961 52.1086 34.0605 52.0636 34.16C51.9807 34.3542 51.931 34.4891 51.9061 34.5661C51.8978 34.5993 51.8682 34.5993 51.8481 34.5993C51.8279 34.5993 51.8114 34.591 51.7948 34.5495C51.7498 34.4418 51.7155 34.3719 51.6989 34.3257L51.1021 33.0114H51.0902V33.3465L51.1021 34.1848C51.1021 34.4394 51.2347 34.5602 51.4419 34.5602C51.4487 34.5739 51.4527 34.5888 51.4538 34.604C51.4548 34.6191 51.4519 34.6342 51.4455 34.6478C51.4289 34.6478 51.3922 34.6478 51.3507 34.6478C51.3093 34.6478 51.198 34.636 51.0074 34.636C50.9493 34.636 50.838 34.636 50.7551 34.636H50.6367C50.6289 34.6227 50.6249 34.6076 50.6249 34.5922C50.6261 34.5785 50.6302 34.5652 50.6367 34.5531C50.7274 34.5351 50.8151 34.5044 50.8972 34.4619C50.9534 34.3772 50.977 34.2749 50.9635 34.1742V33.7514V33.2541C50.9635 33.1073 50.947 33.0516 50.8724 33.0019C50.7963 32.9742 50.7164 32.9583 50.6355 32.9545C50.6248 32.9402 50.619 32.9227 50.619 32.9048C50.6197 32.8877 50.6254 32.8712 50.6355 32.8574C50.7018 32.8574 50.8297 32.8633 50.9505 32.8633H51.3898C51.4049 32.8749 51.4164 32.8905 51.423 32.9083L51.957 34.1197L52.0565 33.8829C52.1663 33.6088 52.2908 33.3408 52.4295 33.08C52.4626 33.0102 52.5124 32.9202 52.5372 32.8728L53.2122 32.8622C53.2205 32.8764 53.2335 32.8894 53.2335 32.906C53.232 32.9222 53.2263 32.9377 53.2169 32.951C53.1471 32.9628 53.018 32.9628 52.9564 33.0694C52.9363 33.1025 52.9197 33.1357 52.9197 33.2825V34.1457C52.9197 34.4773 53.0026 34.5105 53.0381 34.5353C53.0957 34.5526 53.1556 34.561 53.2157 34.5602C53.2265 34.5727 53.2324 34.5887 53.2323 34.6052C53.2382 34.6324 53.2299 34.6348 53.2217 34.6514Z" fill="white"/>
<path d="M70.3716 23.4416L70.297 22.5914L69.4859 22.8377C67.5144 23.4375 65.4649 23.7415 63.4042 23.74C59.8926 23.7498 56.4373 22.8574 53.3696 21.1482C50.3019 19.4391 47.7247 16.9705 45.8851 13.9793L45.2978 13L44.7057 13.9793C42.8669 16.9712 40.2901 19.4405 37.2226 21.1502C34.1551 22.86 30.6997 23.753 27.1878 23.7435C25.1313 23.7462 23.0858 23.4437 21.118 22.846L20.3045 22.5997L20.2299 23.4463C19.7148 29.3024 20.0663 35.2024 21.2732 40.9559C22.548 47.0198 24.7444 52.8526 27.7858 58.2512C29.3826 61.0952 31.2015 63.8085 33.2257 66.366C36.5997 70.6294 40.5128 74.437 44.8668 77.6933L45.2789 78L45.6909 77.6933C50.0532 74.4514 53.9759 70.6565 57.3605 66.4039C59.3857 63.8517 61.2044 61.1421 62.7991 58.3009C65.7026 53.1379 67.8341 47.5775 69.1259 41.7967L69.2952 40.9607C70.5086 35.205 70.8713 29.3025 70.3716 23.4416ZM55.8258 28.0537H56.8406V30.0371H55.8258V28.0537ZM55.8258 33.2461H56.8406V35.2319H55.8258V33.2461ZM45.5583 25.9531C45.757 25.6935 46.02 25.4903 46.3214 25.3636C46.6228 25.2369 46.952 25.1911 47.2765 25.2308L49.235 25.5079L51.814 25.8477C52.5788 25.895 53.3444 25.7699 54.0544 25.4818V36.2573C53.3345 36.5054 52.5749 36.6182 51.814 36.5901L49.3274 36.2585L47.2765 35.972C46.657 35.9389 46.0465 36.1316 45.5583 36.5143V25.9531ZM36.7307 25.502C37.4105 25.783 38.1457 25.9045 38.8799 25.8572L41.4636 25.515L43.4174 25.2355C43.7419 25.1961 44.071 25.242 44.3724 25.3687C44.6737 25.4953 44.9367 25.6984 45.1356 25.9578V36.5261C44.6431 36.1389 44.0264 35.9444 43.4008 35.9791L41.3511 36.2668L38.8799 36.596C37.0705 36.596 36.694 36.1591 36.6892 36.1555C36.6845 36.152 36.7271 26.2243 36.7319 25.502H36.7307ZM35.2564 26.8128C35.4506 26.7737 36.0261 26.6517 36.308 26.5914V36.2775C36.411 36.4989 36.855 37.014 38.8787 37.014L41.4411 36.6765L43.3997 36.3971C43.7275 36.3579 44.0598 36.404 44.3646 36.5309C44.6693 36.6579 44.9361 36.8614 45.1391 37.1217L45.1972 37.0886H45.4991L45.5571 37.1194C45.7557 36.8597 46.0188 36.6564 46.3201 36.5297C46.6215 36.403 46.9508 36.3573 47.2753 36.3971L49.2338 36.6741L51.8128 37.014C53.8661 37.014 54.3753 36.474 54.4297 36.4136L54.4676 26.5416L55.4031 26.8021V37.503C54.174 37.6793 52.9348 37.7762 51.6932 37.7931C50.0376 37.7637 48.3847 37.6475 46.7412 37.445L46.5044 37.4119V38.1365C46.1195 38.2769 45.7135 38.351 45.3037 38.3556C44.9101 38.3534 44.5202 38.28 44.1528 38.1389V37.4119L43.9159 37.445C42.2768 37.6471 40.6282 37.7633 38.977 37.7931C37.7326 37.7766 36.4907 37.6797 35.2588 37.503L35.2564 26.8128ZM33.8355 28.0549H34.829V30.0383H33.8355V28.0549ZM33.8355 33.2473H34.829V35.2331H33.8355V33.2473ZM45.2789 76.2309C41.1876 73.128 37.5005 69.5255 34.3032 65.5075C34.2902 65.4909 34.2784 65.4696 34.2653 65.4542L45.2777 54.7391L56.3161 65.4744C56.2995 65.4909 56.2865 65.5158 56.2711 65.5359C53.0689 69.5451 49.3782 73.1384 45.2848 76.2321L45.2789 76.2309ZM67.7772 41.4888C66.5254 47.077 64.4722 52.4549 61.6813 57.4555L45.2895 41.6842L28.9107 57.4223C26.0069 52.2306 23.8986 46.6325 22.6562 40.815H67.9157L67.7772 41.4888Z" fill="white"/>
</svg>
