<svg width="90" height="90" viewBox="0 0 90 90" fill="none" xmlns="http://www.w3.org/2000/svg">
<path d="M38.8523 72.0667C31.3528 72.0667 24.0783 68.6897 20.0065 63.7218C16.1989 59.0709 14.834 52.8778 16.161 46.2755C19.1602 31.3781 34.4916 19.2634 50.3425 19.2634C57.842 19.2634 63.4681 21.9271 67.5388 26.8972C70.1407 30.0771 71.5846 34.1186 71.196 38.646C66.7995 39.3193 62.1335 40.0964 56.4696 41.2664L57.118 25.2823L34.957 30.3769L32.8594 49.1404C25.8815 52.9546 20.4514 57.2634 20.4514 57.2634C20.7988 58.2126 21.3584 59.5894 22.313 60.4574C22.5046 60.36 30.554 56.311 37.8371 53.8205L38.3447 53.6473L40.2864 34.8632L50.8469 32.3901L49.6281 50.9382L50.6932 50.7282C58.5402 49.1859 66.9186 48.1956 71.2133 47.794C71.2101 47.8027 71.2057 47.8113 71.2057 47.82C74.2926 47.5418 76.4086 47.3578 77.8199 47.2355C78.0505 46.4281 78.2561 45.6109 78.4261 44.7829C80.0896 36.5203 78.3178 28.6928 73.4375 22.7323C68.2997 16.4569 60.4029 12.9999 51.2149 12.9999C32.867 12.9999 15.0992 27.105 11.6076 44.4539C9.94616 52.7122 11.719 60.5419 16.5961 66.5034C21.735 72.7767 29.6297 76.2358 38.8177 76.2358C54.3634 76.2358 69.4902 66.1051 75.8728 52.4632L72.7481 53.0878C66.6523 63.6363 51.2105 72.0667 38.8523 72.0667Z" fill="#0AABBA"/>
</svg>
