<svg width="70" height="70" viewBox="0 0 70 70" fill="none" xmlns="http://www.w3.org/2000/svg">
<path d="M54.813 33.3525V32.4181H55.2269C55.2909 32.4181 55.3548 32.4242 55.4187 32.4424C55.4613 32.4607 55.4978 32.4911 55.5222 32.5307C55.5496 32.5733 55.5617 32.622 55.5617 32.6707C55.5617 32.7316 55.5404 32.7925 55.4978 32.8381C55.443 32.8899 55.373 32.9203 55.2969 32.9233C55.3243 32.9355 55.3487 32.9507 55.373 32.969C55.4126 33.0055 55.4461 33.0481 55.4765 33.0938L55.6409 33.3495H55.4857L55.3609 33.1547C55.3243 33.0999 55.2939 33.0542 55.2726 33.0268C55.2543 33.0025 55.233 32.9812 55.2087 32.966C55.1904 32.9538 55.1722 32.9447 55.1539 32.9416C55.1295 32.9386 55.1082 32.9355 55.0839 32.9386H54.9408V33.3525H54.816H54.813ZM54.9378 32.829H55.2026C55.2482 32.829 55.2909 32.8259 55.3365 32.8107C55.3669 32.8016 55.3913 32.7803 55.4096 32.7559C55.4248 32.7316 55.4339 32.7012 55.4339 32.6707C55.4339 32.6281 55.4187 32.5885 55.3852 32.5611C55.3426 32.5277 55.2878 32.5124 55.233 32.5185H54.9378V32.829Z" fill="#F8F8F8"/>
<path d="M54.3564 32.8715C54.3564 32.418 54.7247 32.0497 55.1782 32.0497C55.6317 32.0497 56 32.418 56 32.8715C56 33.3251 55.6317 33.6933 55.1782 33.6933C54.7247 33.6933 54.3564 33.3251 54.3564 32.8715ZM54.4781 32.8715C54.4781 33.2581 54.7916 33.5716 55.1812 33.5746C55.5678 33.5746 55.8813 33.2611 55.8843 32.8715C55.8843 32.485 55.5708 32.1684 55.1812 32.1684C54.7947 32.1684 54.4812 32.485 54.4781 32.8715Z" fill="#F8F8F8"/>
<path d="M43.5786 38.8616H40.8971V37.014H37.1443V38.8616H34.4628V33.4286C34.4475 32.9964 34.6454 32.5824 34.9924 32.3206C35.4276 32.0285 35.9481 31.8854 36.4746 31.9219H41.5759C42.0994 31.8884 42.6199 32.0285 43.0582 32.3206C43.4021 32.5824 43.5969 32.9964 43.5786 33.4286V38.8585V38.8616ZM40.8971 35.7357V33.7268H37.1443V35.7357H40.8971Z" fill="#F8F8F8"/>
<path d="M53.1907 32.2689C52.8224 32.0285 52.3841 31.9067 51.9428 31.925H51.9519H51.8484H46.8537C46.3302 31.8915 45.8067 32.0315 45.3714 32.3267C45.0336 32.5794 44.8357 32.9781 44.8418 33.3981V33.4316V38.8616H47.5203V37.0506H51.8545C53.0324 37.0506 53.6198 36.5818 53.6198 35.6474V33.4225C53.6625 32.9933 53.5011 32.5672 53.1876 32.2719L53.1907 32.2689ZM50.8927 35.5226H47.4838V33.7268H50.8927V35.5226Z" fill="#F8F8F8"/>
<path d="M31.0964 31.9223H30.6977V35.9583C30.6794 36.0009 30.6429 36.0313 30.5607 36.0191C30.5272 36.01 30.4938 35.9948 30.4694 35.9704C30.0159 35.2795 28.2749 32.9115 27.7179 32.1567C27.7179 32.1536 27.7149 32.1506 27.7118 32.1476C27.7118 32.1476 27.6936 32.1323 27.6844 32.1232C27.6844 32.1171 27.6783 32.111 27.6722 32.111C27.5109 31.9771 27.307 31.9102 27.097 31.9223H24.9329C24.7016 31.9071 24.4733 31.9893 24.3059 32.1476C24.1537 32.315 24.0746 32.5341 24.0807 32.7563H24.0776V38.8589H26.61C26.61 38.8589 26.5948 35.6356 26.5887 34.686C26.5978 34.6251 26.6465 34.5308 26.8383 34.5551C26.8809 34.5582 26.9205 34.5795 26.9448 34.616C27.4348 35.3861 30.6338 38.8589 30.6338 38.8589H33.2635V31.9223H31.0995H31.0964Z" fill="#F8F8F8"/>
<path d="M19.7556 37.2545L19.6369 37.1693H16.8306V33.5077H20.5653V36.6153C21.4418 36.8619 22.2636 37.2758 22.985 37.8297C23.0794 37.5832 23.125 37.3215 23.1189 37.0566V33.6721C23.1189 32.5094 22.4311 31.8976 21.0583 31.8337V31.8276H16.3102C14.7701 31.8306 14 32.4424 14 33.6721V37.0566C14 38.2772 14.7701 38.889 16.3102 38.889H20.8148C21.037 38.889 21.2592 38.8737 21.4784 38.8403C20.9883 38.2285 20.407 37.6928 19.7556 37.2545Z" fill="#F8F8F8"/>
<path d="M18.8852 36.3657C19.7252 36.8984 21.2562 37.9576 21.7615 38.9224H23.6699C23.3442 38.3411 22.2424 36.941 18.8852 36.3657Z" fill="#F8F8F8"/>
</svg>
