<svg width="70" height="70" viewBox="0 0 70 70" fill="none" xmlns="http://www.w3.org/2000/svg">
<path d="M36.1054 40.6918C40.2742 40.6607 44.2687 42.7792 46.5442 46.4066L46.5436 46.4043C46.6382 46.5498 46.7225 46.7022 46.7906 46.8696C47.3702 48.27 46.7052 49.8793 45.3025 50.4589C44.0372 50.9853 42.6022 50.4912 41.9083 49.3575H41.9065C40.6504 47.3337 38.4234 46.1554 36.1052 46.1896H34.699C27.9949 46.1399 22.5746 40.6919 22.5746 33.9774V31.5357C22.5746 24.7888 28.0422 19.3201 34.7879 19.3201C41.5324 19.3201 47 24.7888 47 31.5357V38.7201C47 40.2371 45.7705 41.4712 44.2523 41.4712C42.7342 41.4712 41.5037 40.2417 41.5037 38.7235V31.5357C41.5037 27.824 38.4975 24.8177 34.7881 24.8177C31.0787 24.8177 28.0701 27.824 28.0701 31.5357V33.9774C28.0701 37.6579 31.0337 40.6457 34.7038 40.6918H36.1054Z" fill="white"/>
</svg>
