<svg width="90" height="90" viewBox="0 0 90 90" fill="none" xmlns="http://www.w3.org/2000/svg">
<path d="M44.4428 22.6833C44.7011 22.5337 45.0184 22.5352 45.2752 22.6833L64.1033 33.6248L68.1675 31.2784L44.8673 17.7383L21.4055 31.283L25.4621 33.6399L44.4428 22.6818V22.6833Z" fill="#FFE005"/>
<path d="M62.3704 34.5403L44.8567 24.3633L27.2222 34.5448L44.7343 44.7219L62.3704 34.5403Z" fill="black"/>
<path d="M45.6227 66.4169L63.2588 56.2353L63.2014 35.9795L45.5653 46.1611L45.6227 66.4169Z" fill="black"/>
<path d="M68.9229 32.5889L64.8588 34.9352L64.9207 56.7125C64.9207 57.0101 64.7636 57.2851 64.5052 57.4347L45.5245 68.3928L45.5381 73.0855L69 59.5408L68.9229 32.5904V32.5889Z" fill="#039EE7"/>
<path d="M25.2098 57.4319C24.9544 57.2838 24.7973 57.0104 24.7958 56.7158L24.7338 34.9657L21.6623 33.1814L20.6576 32.5967L20.7346 59.538L44.0288 73.0751L44.0152 68.3598L25.2113 57.4319H25.2098Z" fill="#E80080"/>
<path d="M43.9608 66.4061L43.9034 46.1608L39.5854 43.6513L26.3988 35.9883L26.4562 56.2336L43.9608 66.4061Z" fill="black"/>
<path d="M26.3988 35.9883L26.4562 56.2336L43.9608 66.4061L43.9034 46.1608L39.5854 43.6513L26.3988 35.9883Z" fill="#E6007D"/>
<path d="M62.3704 34.5413L44.8568 24.3643L27.2222 34.5458L44.7344 44.7228L62.3704 34.5413Z" fill="#FFEF03"/>
<path d="M63.2588 56.2353L63.2014 35.9795L45.5653 46.1611L45.6227 66.4169L63.2588 56.2353Z" fill="#5BC6F2"/>
</svg>
