<svg width="70" height="70" viewBox="0 0 70 70" fill="none" xmlns="http://www.w3.org/2000/svg">
<path d="M50.943 38.5256C50.8914 37.6446 50.6605 36.7833 50.2645 35.9946C49.8685 35.2059 49.3157 34.5064 48.6399 33.9388C48.4315 33.1796 48.0677 32.4719 47.5715 31.8606C47.4093 30.1887 46.5939 28.6484 45.3026 27.5743C45.5133 27.3932 45.6914 27.1766 45.8279 26.9347C46.4911 26.6588 47.0803 26.2311 47.5481 25.686C48.0159 25.1409 48.3492 24.4936 48.5212 23.7962C49.2787 23.0913 49.7435 22.1272 49.8233 21.0955C49.8462 20.6778 49.7673 20.2607 49.5933 19.8802C49.908 19.5795 50.1314 19.1961 50.2377 18.7741C50.344 18.3521 50.329 17.9086 50.1943 17.4948C49.7447 16.1919 48.1688 15.3461 46.0512 15.2563C45.4094 14.7112 44.5851 14.4289 43.7438 14.4661C43.3242 14.4682 42.9063 14.5197 42.4987 14.6197C42.1142 14.4471 41.6959 14.3625 41.2745 14.3719C40.4543 14.3807 39.6501 14.5999 38.9388 15.0085C38.8454 14.9961 38.7512 14.9899 38.6569 14.9899C37.6787 15.0875 36.7564 15.4921 36.0222 16.1459C35.5021 16.5668 35.037 17.0514 34.6377 17.5883C34.2382 17.0514 33.7728 16.5668 33.2525 16.1459C32.5184 15.4924 31.5965 15.0877 30.6185 14.9899C30.5243 14.9899 30.4301 14.9959 30.3366 15.0085C29.6253 14.5999 28.8211 14.3807 28.0009 14.3719C27.5795 14.3625 27.1613 14.4471 26.7767 14.6197C26.3687 14.5196 25.9503 14.468 25.5302 14.4661C24.6891 14.4291 23.8652 14.7114 23.2234 15.2563C21.1059 15.3453 19.53 16.1919 19.0796 17.4955C18.9453 17.9094 18.9306 18.3528 19.0372 18.7747C19.1437 19.1966 19.3673 19.5798 19.6821 19.8802C19.508 20.2609 19.4291 20.6783 19.4521 21.0963C19.5318 22.128 19.9966 23.092 20.7542 23.797C20.9263 24.4942 21.2597 25.1414 21.7275 25.6863C22.1953 26.2313 22.7844 26.6589 23.4475 26.9347C23.5833 27.1766 23.7614 27.3932 23.9721 27.5743C22.681 28.6486 21.8659 30.1888 21.7039 31.8606C21.2077 32.4719 20.8439 33.1795 20.6355 33.9388C19.9597 34.5064 19.4069 35.2059 19.0109 35.9946C18.6149 36.7833 18.384 37.6446 18.3325 38.5256C18.2147 39.3935 18.2806 40.2765 18.5261 41.1173C18.7715 41.9581 19.1909 42.7379 19.757 43.4062C19.9499 44.3781 20.3506 45.2974 20.9301 46.101C21.0595 47.6209 21.681 49.0572 22.7004 50.1921C23.7197 51.3635 25.0883 52.1766 26.6045 52.5115C27.5089 53.3536 28.5696 54.0103 29.7267 54.4443C31.0646 55.6786 32.8182 56.3639 34.6385 56.3639C36.4587 56.3639 38.2123 55.6786 39.5502 54.4443C40.7069 54.0102 41.7672 53.3536 42.6716 52.5115C44.1879 52.1766 45.5565 51.3635 46.5758 50.1921C47.5951 49.0572 48.2167 47.6209 48.3461 46.101C48.9261 45.2973 49.3265 44.3782 49.5199 43.4062C50.0859 42.7378 50.5052 41.958 50.7505 41.1172C50.9957 40.2764 51.0608 39.3934 50.943 38.5256Z" fill="white"/>
<path d="M38.5954 17.1891C38.6216 17.1815 38.6494 17.1805 38.6762 17.1862C38.7029 17.1919 38.7279 17.2041 38.7489 17.2216C38.7698 17.2392 38.7861 17.2617 38.7964 17.2871C38.8066 17.3125 38.8104 17.34 38.8076 17.3672C38.7541 17.8658 39.0561 17.8027 39.1281 17.7144C39.3875 17.3337 39.7428 17.0282 40.1582 16.8289C40.5735 16.6295 41.0341 16.5434 41.4934 16.5792C41.5232 16.5822 41.5516 16.5932 41.5756 16.611C41.5997 16.6287 41.6185 16.6526 41.6302 16.6801C41.6419 16.7076 41.6459 16.7378 41.642 16.7674C41.638 16.797 41.6262 16.8251 41.6077 16.8485C41.3109 17.2885 41.63 17.3724 41.7487 17.2937C42.9588 16.5369 44.1133 16.5347 44.557 16.853C44.5768 16.8679 44.5931 16.8871 44.6046 16.9091C44.6161 16.9311 44.6225 16.9554 44.6234 16.9802C44.6243 17.005 44.6197 17.0297 44.6099 17.0525C44.6001 17.0753 44.5853 17.0956 44.5666 17.1119C44.1185 17.4933 44.3693 17.6833 44.528 17.6254C45.1126 17.4464 45.7286 17.394 46.335 17.4717C46.9414 17.5493 47.5243 17.7553 48.0449 18.0757C48.0634 18.0912 48.0784 18.1105 48.0888 18.1323C48.0992 18.1541 48.1048 18.1778 48.1052 18.202C48.1057 18.2261 48.1009 18.2501 48.0913 18.2722C48.0816 18.2943 48.0673 18.3141 48.0494 18.3302C47.6973 18.5994 47.4025 18.9361 47.1821 19.3206C46.9617 19.7051 46.8202 20.1296 46.7658 20.5695C46.7324 20.8633 47.2213 20.8017 47.4269 20.7483C47.451 20.7422 47.4762 20.7415 47.5006 20.7464C47.525 20.7513 47.548 20.7616 47.568 20.7766C47.5879 20.7915 47.6042 20.8107 47.6157 20.8328C47.6273 20.8548 47.6337 20.8792 47.6346 20.9041C47.6539 21.6119 46.9847 22.3895 45.989 23.0543C45.8554 23.1433 45.8747 23.357 46.1789 23.3659C46.2078 23.366 46.2362 23.3737 46.2613 23.3883C46.2863 23.4028 46.307 23.4237 46.3214 23.4488C46.3357 23.474 46.3432 23.5024 46.3431 23.5314C46.343 23.5603 46.3352 23.5887 46.3206 23.6137C45.966 24.2726 45.4822 24.8928 43.8388 25.3187C43.8046 25.3275 43.7741 25.3467 43.7514 25.3737C43.7288 25.4008 43.7152 25.4342 43.7126 25.4694C43.71 25.5045 43.7185 25.5396 43.7368 25.5697C43.7552 25.5998 43.7826 25.6233 43.815 25.637C43.8442 25.6451 43.8705 25.6611 43.8909 25.6834C43.9114 25.7057 43.9251 25.7333 43.9306 25.763C43.9361 25.7927 43.9331 25.8234 43.922 25.8515C43.9109 25.8796 43.8921 25.904 43.8677 25.9219C42.2302 27.3287 38.0804 26.7737 37.5536 24.4061C37.5486 24.3828 37.5487 24.3587 37.5538 24.3354C37.5589 24.3121 37.569 24.2901 37.5833 24.2711C39.3449 21.9185 41.7286 20.1048 44.4657 19.0344C44.4969 19.0238 44.5229 19.0018 44.5385 18.9729C44.5542 18.944 44.5584 18.9102 44.5502 18.8783C44.5421 18.8465 44.5222 18.8189 44.4945 18.801C44.4669 18.7832 44.4336 18.7764 44.4012 18.7821C42.918 18.9977 41.4928 19.5074 40.2093 20.2813C38.9257 21.0552 37.8097 22.0777 36.9267 23.2887C36.9026 23.3211 36.8678 23.3438 36.8284 23.3526C36.7891 23.3615 36.7479 23.3559 36.7123 23.337C34.0523 21.9636 36.2374 17.9081 38.5954 17.1891ZM22.9542 23.613C22.9396 23.588 22.9318 23.5596 22.9317 23.5306C22.9315 23.5017 22.939 23.4732 22.9534 23.4481C22.9678 23.423 22.9885 23.4021 23.0135 23.3875C23.0385 23.373 23.0669 23.3652 23.0959 23.3652C23.4001 23.3577 23.4194 23.1433 23.2858 23.0543C22.2901 22.3895 21.6223 21.6119 21.6401 20.9048C21.641 20.8799 21.6475 20.8556 21.659 20.8335C21.6706 20.8115 21.6869 20.7923 21.7068 20.7773C21.7267 20.7624 21.7497 20.7521 21.7741 20.7472C21.7986 20.7423 21.8238 20.7429 21.8479 20.749C22.0542 20.8024 22.5424 20.864 22.509 20.5702C22.4545 20.1305 22.3129 19.7061 22.0926 19.3217C21.8722 18.9374 21.5774 18.6008 21.2254 18.3317C21.2073 18.3156 21.1929 18.2958 21.1832 18.2735C21.1735 18.2513 21.1687 18.2273 21.1691 18.2031C21.1695 18.1789 21.1752 18.155 21.1856 18.1332C21.1961 18.1113 21.2112 18.092 21.2298 18.0765C21.7505 17.756 22.3334 17.5501 22.9398 17.4724C23.5462 17.3948 24.1621 17.4472 24.7467 17.6261C24.9055 17.6847 25.1563 17.4941 24.7081 17.1127C24.6894 17.0963 24.6745 17.0759 24.6647 17.053C24.6548 17.0301 24.6502 17.0053 24.6512 16.9804C24.6522 16.9555 24.6588 16.9311 24.6704 16.9091C24.6821 16.887 24.6985 16.8679 24.7185 16.853C25.1615 16.5354 26.316 16.5369 27.5268 17.2937C27.6448 17.3731 27.9638 17.2893 27.6678 16.8493C27.6493 16.8259 27.6375 16.7979 27.6335 16.7683C27.6295 16.7387 27.6335 16.7086 27.6451 16.6811C27.6567 16.6536 27.6754 16.6297 27.6994 16.6119C27.7234 16.5942 27.7516 16.5831 27.7813 16.58C28.2407 16.5439 28.7014 16.6299 29.1169 16.8291C29.5324 17.0283 29.8879 17.3337 30.1474 17.7144C30.2187 17.8034 30.5206 17.8658 30.468 17.3664C30.4652 17.3393 30.4691 17.3119 30.4794 17.2866C30.4897 17.2613 30.506 17.239 30.527 17.2215C30.5479 17.204 30.5728 17.1919 30.5995 17.1862C30.6262 17.1806 30.6539 17.1816 30.6802 17.1891C33.0381 17.9088 35.2224 21.9636 32.5625 23.337C32.5269 23.3559 32.4857 23.3615 32.4463 23.3526C32.407 23.3438 32.3721 23.3211 32.3481 23.2887C31.4651 22.0779 30.3491 21.0556 29.0657 20.2819C27.7824 19.5081 26.3573 18.9985 24.8743 18.7828C24.8418 18.7767 24.8081 18.7832 24.7802 18.8009C24.7522 18.8187 24.7321 18.8464 24.7238 18.8784C24.7155 18.9105 24.7197 18.9445 24.7355 18.9736C24.7513 19.0027 24.7776 19.0247 24.809 19.0351C27.5461 20.1053 29.9298 21.9188 31.6914 24.2711C31.7211 24.3097 31.7315 24.3594 31.7211 24.4069C31.1943 26.7737 27.0446 27.3287 25.4071 25.9219C25.3827 25.904 25.3639 25.8796 25.3528 25.8515C25.3416 25.8234 25.3387 25.7927 25.3442 25.763C25.3497 25.7333 25.3634 25.7057 25.3839 25.6834C25.4043 25.6611 25.4306 25.6451 25.4597 25.637C25.4922 25.6234 25.5196 25.5999 25.538 25.5699C25.5565 25.5398 25.565 25.5048 25.5625 25.4696C25.5599 25.4345 25.5464 25.401 25.5239 25.374C25.5013 25.3469 25.4708 25.3276 25.4367 25.3187C23.7926 24.8928 23.3096 24.2718 22.9542 23.613Z" fill="#46AF4B"/>
<path d="M45.1187 30.8508C45.8013 32.6656 45.2693 33.5381 43.6511 32.6144C42.3456 31.8921 41.1918 30.9247 40.2529 29.7653C39.0331 28.317 39.8255 27.6722 41.7457 28.0202C42.4813 28.2154 43.1648 28.5702 43.7477 29.0595C44.3307 29.5487 44.7987 30.1603 45.1187 30.8508ZM37.8601 28.8089C40.175 30.7328 37.5232 32.0943 34.6378 32.0943C31.7515 32.0943 29.1005 30.7328 31.4147 28.8089C32.3284 28.0748 33.4653 27.6747 34.6374 27.6747C35.8095 27.6747 36.9464 28.0748 37.8601 28.8089ZM24.1569 30.8508C24.4767 30.1603 24.9446 29.5488 25.5275 29.0596C26.1103 28.5704 26.7937 28.2155 27.5291 28.0202C29.4493 27.6715 30.2417 28.317 29.0226 29.7653C28.0837 30.9247 26.9299 31.8921 25.6245 32.6144C24.0055 33.5381 23.4743 32.6656 24.1569 30.8508ZM20.8092 40.9347C20.5437 40.2171 20.4405 39.4495 20.5069 38.6873C20.5734 37.925 20.8079 37.1869 21.1935 36.526C22.049 35.0718 22.9096 35.1289 23.2509 36.3613C23.685 38.0604 23.5277 39.8574 22.8058 41.4563C22.1721 42.7147 21.3805 42.2895 20.8092 40.9347ZM26.9748 50.3576C25.929 50.0935 24.9924 49.5078 24.2972 48.6829C23.6021 47.8581 23.1834 46.8359 23.1003 45.7604C23.4216 38.2919 34.1852 51.6293 26.9748 50.3576ZM27.1937 41.0549C25.3885 40.0132 24.9107 37.4609 26.1268 35.3552C27.3428 33.2488 29.792 32.3874 31.5965 33.4291C33.4017 34.4708 33.8795 37.0231 32.6634 39.1288C31.4473 41.2352 28.9981 42.0966 27.1937 41.0549ZM37.6494 53.2074C36.7721 53.8391 35.7184 54.179 34.6374 54.179C33.5564 54.179 32.5027 53.8391 31.6254 53.2074C29.8373 51.9728 31.6365 50.5512 34.6378 50.5512C37.639 50.5512 39.4375 51.9728 37.6494 53.2074Z" fill="#CD2355"/>
<path d="M34.6377 48.68C36.9517 48.68 38.8275 47.0722 38.8275 45.0889C38.8275 43.1056 36.9517 41.4978 34.6377 41.4978C32.3237 41.4978 30.4479 43.1056 30.4479 45.0889C30.4479 47.0722 32.3237 48.68 34.6377 48.68Z" fill="#CD2355"/>
<path d="M36.6113 39.1288C35.3953 37.0231 35.8731 34.4708 37.6783 33.4291C39.4835 32.3866 41.9327 33.2488 43.148 35.3552C44.3648 37.4609 43.8862 40.0132 42.081 41.0549C40.2766 42.0974 37.8274 41.2352 36.6113 39.1288ZM42.3007 50.3576C35.0888 51.6293 45.8539 38.2919 46.1737 45.7604C46.0907 46.8358 45.6722 47.8581 44.9772 48.6829C44.2822 49.5077 43.3464 50.0935 42.3007 50.3576ZM48.4663 40.9347C47.895 42.2895 47.1026 42.7147 46.4697 41.4563C45.7474 39.8577 45.5904 38.0609 46.0246 36.3613C46.3659 35.1296 47.2265 35.071 48.0813 36.526C48.4669 37.1869 48.7014 37.925 48.7678 38.6873C48.8343 39.4495 48.7318 40.2171 48.4663 40.9347Z" fill="#CD2355"/>
</svg>
