<svg width="70" height="70" viewBox="0 0 70 70" fill="none" xmlns="http://www.w3.org/2000/svg">
<path d="M17.2943 12.7092C14.7496 12.7092 12.6861 14.7726 12.6861 17.3174V55.2069H33.103C30.1435 52.3652 28.3028 48.3689 28.3028 43.9425C28.3028 35.3175 35.2944 28.3258 43.9194 28.3258C48.3458 28.3258 52.3422 30.1665 55.1839 33.126V17.3174C55.1839 14.7726 53.1204 12.7092 50.5757 12.7092H17.2943Z" fill="#254632"/>
<path d="M58 43.8502C58 51.6278 51.697 57.9308 43.9194 57.9308C36.1418 57.9308 29.8388 51.6278 29.8388 43.8502C29.8388 36.0726 36.1418 29.7697 43.9194 29.7697C51.697 29.7697 58 36.0726 58 43.8502Z" fill="#254632"/>
</svg>
