<svg width="90" height="90" viewBox="0 0 90 90" fill="none" xmlns="http://www.w3.org/2000/svg">
<path d="M16.7249 52.2255H25.2223V50.0625H14.8709L9 56.8604V65.3578H11.163V58.0964H11.472L16.1069 52.5345L16.7249 52.2255Z" fill="#19519D"/>
<path d="M19.6604 56.5516H24.9133V54.3887H17.6519L12.708 59.9506V67.83H15.18V61.4956L19.3514 56.8606L19.6604 56.5516Z" fill="#19519D"/>
<path d="M21.514 61.1864H25.222V59.0234H19.9691L16.7246 62.7314V70.6108H18.4241V63.9674L21.2051 61.4954L21.514 61.1864Z" fill="#19519D"/>
<path d="M22.1319 63.04L20.8959 64.585L20.5869 65.0485V73.3914H22.7499V66.5935L23.0589 66.2845L23.6769 65.3575H25.2218V63.04H22.4409H22.1319Z" fill="#19519D"/>
<path d="M80.3781 56.8604L74.5072 50.0625H64.4648V52.2255H73.1167L73.4257 52.5345L78.2152 58.0964V65.3578H80.6871V57.1694L80.3781 56.8604Z" fill="#19519D"/>
<path d="M71.8808 54.3887H64.4648V56.5516H69.7178L70.3358 56.8606L74.1982 61.4956L74.5072 61.8046V67.83H76.6702V60.5686V59.9506L71.8808 54.3887Z" fill="#19519D"/>
<path d="M69.7178 59.0234H64.4648V61.1864H68.1728L68.4818 61.4954L70.9538 63.9674V70.6108H73.1167V63.0404V62.7314L69.7178 59.0234Z" fill="#19519D"/>
<path d="M67.5548 63.04H64.4648V65.3575H65.7008L66.6278 66.2845V73.3914H68.7908V65.0485V64.585L67.5548 63.04Z" fill="#19519D"/>
<path d="M39.7719 32.1738C38.0949 32.1738 36.7275 33.5331 36.7275 35.2101C36.7275 36.6137 37.686 37.8002 38.9802 38.1483L38.9721 38.1647V45.4287H52.2596V38.1647L52.2515 38.1075C53.4754 37.7153 54.3654 36.5637 54.3654 35.2101C54.3654 33.5331 53.0062 32.1738 51.3292 32.1738C49.6522 32.1738 48.2848 33.5331 48.2848 35.2101C48.2848 36.5788 49.1944 37.7443 50.4395 38.1238L50.4069 38.1647V43.7311H40.5147V38.1647L40.5065 38.1565C41.827 37.8264 42.8081 36.6324 42.8081 35.2101C42.8081 33.5331 41.4489 32.1738 39.7719 32.1738Z" fill="#19519D"/>
<path d="M65.7009 47.8996V43.4192L66.0099 42.8012L72.8078 36.3122V27.9694H75.7433V17H72.1898V20.399H70.0269V23.7979H68.1729V20.399H65.7009V17H61.993V27.9694H65.0829V33.5313L58.594 40.0202L58.285 40.3292L57.976 40.9472V48.2086H52.2596L51.3326 48.5176L45.7707 54.6975V55.0065L45.4617 54.6975L39.8998 48.8266L39.5908 48.5176L39.2818 48.2086H32.9474V40.9472L32.6384 40.3292L32.3294 40.0202L25.8405 33.5313V27.9694H28.9304V17H25.2225V20.399H22.7505V23.7979H20.8965V20.399H18.7335V17H14.8711V27.9694H18.2701V36.3122L24.6045 42.8012L25.2225 43.4192V48.5176L25.5315 48.8266L26.7674 50.0626V67.8298H29.8574V59.6414H32.3294V63.6584H34.4923V67.8298H40.5178V56.8605L45.1527 62.1134H45.7707L50.4056 56.8605V67.8298H62.611V64.5854H54.4226V54.0795H62.92V48.2086H65.7009V47.8996ZM34.4923 55.9335H29.8574V54.0795H34.4923V55.9335Z" fill="#19519D"/>
</svg>
