<svg width="90" height="90" viewBox="0 0 90 90" fill="none" xmlns="http://www.w3.org/2000/svg">
<path d="M17.7011 49.8571L14.6321 47.1582C15.8989 46.6405 16.7917 45.3966 16.7917 43.9441C16.7917 42.0274 15.2375 40.4731 13.3207 40.4731H4.27002V49.8584H7.17882V47.4164H10.5722L13.4874 49.8584H17.7011V49.8571ZM7.07071 45.1168V42.9139H12.7204C13.3284 42.9139 13.8219 43.4074 13.8219 44.0153C13.8219 44.6233 13.3284 45.1168 12.7204 45.1168H7.07071Z" fill="#0B67BC"/>
<path d="M21.4352 40.4719H18.5264V49.8572H21.4352V40.4719Z" fill="#0B67BC"/>
<path d="M69.8265 42.6392V40.4719H62.5195H60.4425H59.6095V49.8572H60.4425H62.5195H69.8265V47.6899H62.5195V46.2272H69.0723V44.2189H62.5195V42.6392H69.8265Z" fill="#0B67BC"/>
<path d="M58.3567 40.4719H54.4265H51.5177H47.5876V42.8542H51.5177V49.8572H54.4265V42.8542H58.3567V40.4719Z" fill="#0B67BC"/>
<path d="M43.5215 40.4719V43.9429H38.0511V40.4719H35.1423V49.8572H38.0511V46.3849H43.5215V49.8572H46.4303V40.4719H43.5215Z" fill="#0B67BC"/>
<path d="M33.6467 47.4749H27.6968C26.4211 47.4749 25.3871 46.4409 25.3871 45.1652C25.3871 43.8895 26.4211 42.8554 27.6968 42.8554H33.6467C33.7204 42.8554 33.7904 42.8707 33.8553 42.8961V40.4719H27.0558C24.4637 40.4719 22.3638 42.5731 22.3638 45.1639C22.3638 47.756 24.4649 49.8559 27.0558 49.8559H33.8553V47.4329C33.7904 47.4584 33.7204 47.4736 33.6467 47.4736V47.4749Z" fill="#0B67BC"/>
<path d="M79.2539 45.1639L84.4979 40.4719H80.5945L73.9628 46.4154V40.4719H71.054V49.8572H72.5091H73.9628L77.2189 46.8466L80.8577 49.8572H85.0003L79.2539 45.1639Z" fill="#0B67BC"/>
</svg>
