<svg width="90" height="90" viewBox="0 0 90 90" fill="none" xmlns="http://www.w3.org/2000/svg">
<path d="M74.8412 50.3412C74.8382 50.3342 74.8364 50.3218 74.8321 50.3208C74.8165 50.3173 74.7997 50.3153 74.7836 50.3166C74.5597 50.3352 74.3388 50.2791 74.1151 50.2911C74.016 50.2554 73.9108 50.2806 73.8119 50.2625C73.714 50.2444 73.6114 50.2625 73.5216 50.2355C73.4227 50.2056 73.3178 50.2459 73.2265 50.1908C73.0362 50.1965 72.8606 50.1221 72.678 50.0871C72.565 50.0655 72.4596 50.0073 72.3479 49.9756C72.1625 49.9233 71.9987 49.8257 71.8306 49.7376C71.7466 49.6936 71.6653 49.643 71.5956 49.5759C71.5551 49.5369 71.5065 49.5064 71.4648 49.4684C71.2698 49.2911 71.1304 49.0742 71.0179 48.8379C70.9347 48.6626 70.8783 48.4771 70.8164 48.294C70.7684 48.1521 70.7296 48.0084 70.7163 47.8587C70.6723 47.8165 70.7082 47.7546 70.6811 47.7103C70.6521 47.6627 70.6765 47.6129 70.6652 47.5659C70.6323 47.4282 70.6297 47.2866 70.6096 47.1482C70.593 47.0332 70.6101 46.9175 70.5875 46.8071C70.547 46.6096 70.5905 46.4098 70.5611 46.2153C70.5316 46.0211 70.5455 45.8286 70.5409 45.6354C70.5364 45.4432 70.5392 45.2507 70.5402 45.0585C70.5407 44.9729 70.5042 44.8929 70.513 44.8054C70.5213 44.7226 70.5117 44.6381 70.5153 44.5548C70.5236 44.3575 70.5522 44.161 70.5399 43.963C70.5766 43.873 70.553 43.7766 70.5673 43.6853C70.588 43.5544 70.5975 43.4223 70.6187 43.2923C70.636 43.1863 70.6463 43.0792 70.6672 42.9743C70.6919 42.8507 70.7145 42.7264 70.7447 42.6047C70.7616 42.5362 70.7588 42.4595 70.7943 42.4006C70.8298 42.3417 70.8396 42.2758 70.8617 42.2149C70.8821 42.1596 70.9133 42.1103 70.9322 42.0557C70.9513 41.9993 70.9631 41.9407 71.0132 41.9009C71.0642 41.7432 71.1863 41.6297 71.2736 41.4949C71.3179 41.4262 71.3868 41.3716 71.4497 41.3167C71.5111 41.2632 71.5496 41.1831 71.6341 41.1562C71.7166 41.0599 71.8291 41.0038 71.932 40.9348C72.0294 40.8697 72.1368 40.8249 72.244 40.7783C72.3441 40.7348 72.4473 40.7023 72.5507 40.6691C72.599 40.6535 72.648 40.6339 72.6978 40.6311C72.7942 40.6259 72.8805 40.5796 72.9754 40.5713C73.0151 40.5265 73.073 40.565 73.1243 40.5343C73.1779 40.5023 73.2569 40.5134 73.3243 40.5036C73.3673 40.4973 73.4096 40.4867 73.4524 40.4789C73.4914 40.4719 73.5359 40.4958 73.5691 40.4565C73.5729 40.452 73.5847 40.4543 73.5928 40.4538C73.7193 40.4455 73.8456 40.4382 73.9719 40.4281C74.0482 40.4221 74.1241 40.4085 74.2004 40.4045C74.2799 40.4002 74.3622 40.4165 74.4386 40.4012C74.6779 40.3534 74.9199 40.404 75.1574 40.3758C75.5021 40.335 75.8466 40.3607 76.1907 40.3546C76.5342 40.3486 76.8794 40.3715 77.2213 40.3473C77.4784 40.3292 77.7363 40.3536 77.9902 40.3239C78.2724 40.291 78.5537 40.3104 78.8353 40.3043C79.1158 40.2983 79.3968 40.3031 79.6776 40.3031C79.8998 40.3031 80.1219 40.3053 80.3438 40.3023C80.5172 40.2998 80.6873 40.3418 80.8616 40.3312C80.9054 40.3287 80.9527 40.3529 81.0018 40.3549C81.0485 40.3567 81.0946 40.3431 81.1449 40.374C81.1814 40.3964 81.2456 40.3682 81.2926 40.3806C81.3814 40.404 81.474 40.4045 81.561 40.4301C81.6471 40.4555 81.7349 40.4822 81.8207 40.4983C81.9759 40.5277 82.1153 40.6045 82.2703 40.6294C82.4796 40.7356 82.6912 40.8354 82.8799 40.9799C83.0095 41.079 83.126 41.1914 83.2291 41.313C83.3942 41.5072 83.5331 41.7201 83.6224 41.9649C83.6661 42.0849 83.7069 42.2059 83.7502 42.3259C83.7796 42.4072 83.7914 42.4919 83.8179 42.5735C83.8566 42.6932 83.8672 42.8203 83.8926 42.9436C83.9145 43.0502 83.9082 43.1624 83.9215 43.2711C83.9366 43.3929 83.9532 43.5142 83.9457 43.6372C83.9917 43.7134 83.9708 43.7977 83.9691 43.8777C83.9658 44.0299 84.0073 44.1784 83.998 44.3316C83.9887 44.4858 83.996 44.6408 83.996 44.7956V45.7239C83.996 45.8787 83.999 46.0334 83.9952 46.1881C83.9897 46.4105 83.9879 46.6337 83.9666 46.8549C83.958 46.9434 83.9588 47.0337 83.9429 47.1203C83.9205 47.2428 83.9152 47.3671 83.8928 47.4884C83.8735 47.5933 83.8614 47.6997 83.8355 47.8029C83.8108 47.9015 83.793 48.0029 83.7628 48.099C83.6885 48.3352 83.6038 48.5677 83.4827 48.7861C83.4229 48.8943 83.3476 48.9899 83.2772 49.09C83.1763 49.2334 83.0442 49.3479 82.9194 49.4679C82.8281 49.5555 82.7194 49.6242 82.6099 49.6893C82.5395 49.7313 82.4728 49.7832 82.3974 49.8131C82.1483 49.9117 81.8999 50.0119 81.6355 50.0692C81.4778 50.1035 81.3205 50.1394 81.1613 50.1681C81.047 50.1885 80.9313 50.2001 80.8181 50.221C80.7366 50.236 80.6518 50.223 80.5778 50.2464C80.495 50.2725 80.4118 50.2464 80.3363 50.27C80.2422 50.2994 80.1468 50.2738 80.0573 50.2947C79.9056 50.3296 79.7536 50.3098 79.6019 50.3181C79.5906 50.3186 79.5802 50.3337 79.5694 50.3422C77.9932 50.3422 76.4172 50.3422 74.8409 50.3422L74.8412 50.3412ZM79.1998 47.8298C79.2766 47.8278 79.3518 47.8318 79.4295 47.8104C79.5095 47.7885 79.5974 47.8014 79.6829 47.7873C79.7571 47.7749 79.8333 47.7596 79.9101 47.7538C79.9878 47.748 80.0666 47.7302 80.1403 47.7042C80.246 47.667 80.3514 47.63 80.4505 47.5722C80.5652 47.5052 80.6535 47.4184 80.7308 47.314C80.8226 47.19 80.8845 47.0509 80.924 46.9052C80.9444 46.8305 80.9509 46.7497 80.9706 46.673C80.9904 46.595 80.9831 46.5145 80.998 46.4347C81.0204 46.3119 81.0143 46.1834 81.0241 46.057C81.041 45.8409 81.0289 45.6225 81.0289 45.4052C81.0289 45.1878 81.0335 44.9702 81.0277 44.753C81.0219 44.5392 81.0408 44.3256 81.0088 44.1105C80.9877 43.9683 80.9791 43.8234 80.9575 43.68C80.9449 43.5964 80.9117 43.522 80.8916 43.4425C80.8712 43.3627 80.8339 43.2915 80.7798 43.2246C80.7034 43.1297 80.5942 43.0082 80.521 42.971C80.4656 42.9428 80.412 42.9098 80.3539 42.8892C80.2326 42.8459 80.1098 42.8092 79.9823 42.7825C79.8379 42.7523 79.6909 42.7443 79.5468 42.7156C79.4484 42.696 79.3447 42.7018 79.2431 42.692C79.0134 42.6701 78.7817 42.6879 78.5497 42.6673C78.3004 42.6449 78.0473 42.6623 77.7959 42.6623C77.5446 42.6623 77.2847 42.6577 77.0291 42.6635C76.781 42.6693 76.5337 42.6504 76.2846 42.6832C76.0519 42.7136 75.8139 42.6676 75.5786 42.7103C75.4712 42.7297 75.36 42.7176 75.2493 42.7317C75.1059 42.7498 74.9615 42.7617 74.818 42.7866C74.6975 42.8077 74.577 42.8296 74.4603 42.8643C74.3128 42.9081 74.178 42.9856 74.0622 43.0824C73.9757 43.1549 73.9166 43.2593 73.8602 43.3605C73.8031 43.4631 73.7661 43.5736 73.7372 43.6855C73.7166 43.765 73.7057 43.8473 73.6864 43.9281C73.6715 43.9897 73.6889 44.0538 73.6637 44.1195C73.6428 44.1744 73.6627 44.2436 73.6584 44.3059C73.6542 44.3696 73.636 44.4328 73.6353 44.4964C73.6325 44.7681 73.6295 45.0401 73.6353 45.3116C73.6413 45.5798 73.6104 45.849 73.6569 46.1169C73.671 46.1979 73.6386 46.2918 73.667 46.3642C73.6995 46.447 73.6519 46.5371 73.7093 46.6101C73.7057 46.7354 73.7535 46.8501 73.7855 46.9676C73.8494 47.2023 73.9792 47.3996 74.1697 47.547C74.338 47.6776 74.5428 47.7382 74.7501 47.7815C74.8757 47.8077 75.0047 47.8082 75.132 47.8288C75.2478 47.8477 75.3675 47.8434 75.4858 47.8537C75.7701 47.8783 76.0564 47.8449 76.343 47.8781C76.5495 47.9022 76.7614 47.8829 76.9709 47.8829C77.1805 47.8829 77.3901 47.8872 77.5994 47.8816C77.8055 47.8763 78.011 47.8929 78.2184 47.8625C78.3784 47.8388 78.5447 47.8519 78.7077 47.8595C78.8735 47.8673 79.0358 47.8353 79.2001 47.831L79.1998 47.8298Z" fill="#2275B8"/>
<path d="M5.52417 40.3521C8.58407 40.3521 11.644 40.3521 14.7041 40.3531C14.7844 40.3531 14.8646 40.3722 14.9452 40.3762C15.0287 40.3805 15.1167 40.3614 15.1955 40.3815C15.2815 40.4034 15.3656 40.3958 15.4501 40.4031C15.4974 40.4072 15.5437 40.4212 15.5907 40.4268C15.6383 40.4326 15.6838 40.4295 15.7326 40.4484C15.782 40.4675 15.8423 40.4663 15.8972 40.4736C16.0819 40.4982 16.258 40.5521 16.4326 40.6104C16.5949 40.6645 16.7501 40.737 16.8948 40.8293C16.9285 40.851 16.9592 40.8779 16.9894 40.9043C17.0789 40.9831 17.1932 41.0334 17.2525 41.1476C17.28 41.2002 17.325 41.2447 17.3668 41.2885C17.4337 41.3582 17.4815 41.4427 17.517 41.5278C17.5527 41.6128 17.5932 41.6968 17.6254 41.7844C17.6574 41.8712 17.6913 41.9605 17.7152 42.0473C17.7386 42.1326 17.7648 42.2214 17.7754 42.3127C17.7887 42.4272 17.8262 42.5389 17.8229 42.6562C17.8654 42.7241 17.8337 42.8013 17.8498 42.8713C17.8908 43.0512 17.8642 43.2328 17.8742 43.4132C17.876 43.4437 17.8936 43.4728 17.8974 43.5033C17.9017 43.5362 17.9029 43.571 17.8974 43.6034C17.8634 43.8082 17.8856 44.0155 17.8689 44.2203C17.8579 44.3597 17.845 44.5011 17.8191 44.6385C17.7972 44.7537 17.7764 44.8702 17.7464 44.9842C17.718 45.0931 17.6649 45.1945 17.6465 45.3067C17.5552 45.4479 17.4976 45.6064 17.3934 45.7427C17.2201 45.9694 16.9959 46.1242 16.7473 46.2472C16.6336 46.3035 16.5088 46.3395 16.3855 46.375C16.3367 46.3891 16.2869 46.3994 16.2293 46.4135C16.4115 46.4452 16.582 46.4872 16.7471 46.5506C16.9086 46.6125 17.0568 46.6953 17.201 46.7916C17.3549 46.8948 17.4445 47.0475 17.5394 47.1924C17.6073 47.2963 17.6362 47.4282 17.6694 47.5512C17.6964 47.6503 17.7288 47.7505 17.722 47.8561C17.7653 47.915 17.7351 47.9839 17.7482 48.0463C17.7965 48.276 17.7653 48.508 17.7711 48.739C17.7766 48.9689 17.7723 49.1991 17.7723 49.4291V50.1351H14.7082C14.7069 50.1087 14.7039 50.0772 14.7039 50.0455C14.7036 49.7109 14.7031 49.3763 14.7039 49.0416C14.7041 48.8691 14.6654 48.6987 14.676 48.5249C14.6792 48.469 14.6493 48.4114 14.6375 48.354C14.6168 48.2539 14.5814 48.1555 14.5245 48.0755C14.4354 47.9505 14.3174 47.8508 14.1632 47.8058C14.0535 47.7739 13.9453 47.7419 13.8306 47.7248C13.7493 47.7127 13.6681 47.7183 13.5888 47.7042C13.3123 47.6551 13.0338 47.6876 12.7565 47.6818C12.4717 47.6757 12.1864 47.6805 11.9014 47.6805H9.36125C9.08047 47.6805 8.79944 47.6805 8.51866 47.6808C8.51136 47.6808 8.50407 47.6853 8.49224 47.6893V50.1399H5.52417V40.3521ZM8.54482 45.3213H12.5427C12.7271 45.3213 12.9118 45.314 13.0959 45.3233C13.2786 45.3324 13.4575 45.2949 13.6389 45.2961C13.6975 45.2967 13.7564 45.2936 13.815 45.2969C13.8766 45.3004 13.9342 45.2856 13.9936 45.2733C14.0477 45.2619 14.1046 45.2577 14.1594 45.2504C14.3023 45.231 14.4319 45.1824 14.5595 45.1208C14.7235 45.0415 14.8038 44.8936 14.8518 44.7338C14.8918 44.6005 14.9122 44.4596 14.9074 44.3167C14.9016 44.1496 14.9089 43.9821 14.9049 43.815C14.9026 43.7222 14.8893 43.6296 14.8807 43.5367C14.8805 43.5327 14.88 43.5287 14.8787 43.5252C14.8307 43.4064 14.8209 43.2688 14.7099 43.181C14.6332 43.031 14.488 42.9686 14.3446 42.9153C14.1868 42.8564 14.0158 42.8396 13.8487 42.8393C12.122 42.8358 10.3951 42.8373 8.66836 42.8373H8.54507V45.3218L8.54482 45.3213Z" fill="#2275B8"/>
<path d="M55.3542 40.3521H55.4821C58.5417 40.3521 61.6016 40.3521 64.6613 40.3531C64.7501 40.3531 64.8386 40.3719 64.9274 40.3762C65.0153 40.3805 65.1071 40.3616 65.1906 40.3812C65.289 40.4044 65.3854 40.4001 65.483 40.4014C65.532 40.4021 65.5708 40.4371 65.6239 40.4298C65.6649 40.4243 65.7152 40.4077 65.7524 40.4514C65.7577 40.4577 65.7766 40.4514 65.7892 40.4524C65.8775 40.4612 65.9701 40.4575 66.0533 40.4836C66.1356 40.5093 66.2206 40.5269 66.3029 40.5458C66.4561 40.5808 66.6048 40.6258 66.7515 40.6791C66.8904 40.7297 67.022 40.7936 67.1521 40.8668C67.418 41.0163 67.6225 41.2331 67.8258 41.4498C67.9441 41.5758 68.044 41.7232 68.1245 41.8772C68.1977 42.0171 68.2525 42.1668 68.3046 42.317C68.3544 42.4609 68.3725 42.6131 68.4292 42.7548C68.4153 42.8212 68.4455 42.8818 68.4543 42.9452C68.4737 43.0844 68.5104 43.2215 68.5046 43.3636C68.5474 43.4225 68.523 43.4902 68.53 43.5539C68.5371 43.6175 68.5497 43.6807 68.5539 43.7443C68.5582 43.8067 68.5388 43.8754 68.5585 43.9312C68.5927 44.0294 68.5788 44.1262 68.5786 44.2231C68.5783 44.4085 68.6163 44.5912 68.6073 44.7774C68.5982 44.961 68.6053 45.1452 68.6053 45.3294C68.6053 45.5135 68.608 45.7057 68.6043 45.8939C68.6025 45.9868 68.5851 46.0794 68.5811 46.1722C68.5768 46.2683 68.5977 46.3687 68.5756 46.4595C68.5497 46.5665 68.565 46.6714 68.5539 46.7763C68.5482 46.8314 68.5232 46.8832 68.5285 46.9418C68.5336 46.9974 68.5394 47.0558 68.5051 47.1074C68.5014 47.1132 68.5051 47.1237 68.5046 47.132C68.4963 47.2415 68.4946 47.3519 68.478 47.4601C68.4578 47.591 68.4415 47.722 68.4246 47.8531C68.412 47.9515 68.3859 48.0519 68.3554 48.1492C68.3265 48.2421 68.2905 48.3319 68.2591 48.423C68.2294 48.5085 68.1831 48.5843 68.1501 48.667C68.1174 48.7495 68.0724 48.8293 68.0201 48.9013C67.9466 49.0027 67.8638 49.0975 67.781 49.1916C67.7287 49.2512 67.6661 49.3018 67.6135 49.3614C67.497 49.4938 67.3493 49.5879 67.2064 49.686C67.111 49.7514 67.0019 49.7972 66.8972 49.8485C66.7787 49.9066 66.6521 49.9504 66.5266 49.9839C66.429 50.0098 66.3251 50.0294 66.2232 50.0463C66.1037 50.0659 65.9781 50.0666 65.8634 50.115C65.8599 50.1165 65.8551 50.115 65.8508 50.115C65.7411 50.1233 65.6294 50.1215 65.5222 50.1429C65.412 50.1648 65.2985 50.1462 65.1939 50.1703C65.0945 50.1932 64.9984 50.1892 64.9013 50.1892C61.7619 50.1904 58.6225 50.1902 55.4831 50.1902H55.3545V40.3521H55.3542ZM64.028 47.83C64.1211 47.828 64.2162 47.8247 64.306 47.8035C64.4311 47.7739 64.5579 47.749 64.6799 47.7057C64.8857 47.6327 65.0776 47.5346 65.214 47.3595C65.3428 47.1942 65.4133 46.9987 65.4578 46.7964C65.4739 46.7237 65.4817 46.6475 65.5016 46.5753C65.523 46.497 65.488 46.412 65.5363 46.339C65.5182 46.1946 65.5627 46.054 65.562 45.9103C65.5602 45.5047 65.5625 45.0992 65.5605 44.6936C65.56 44.6176 65.5592 44.5426 65.5418 44.4644C65.5195 44.3635 65.5371 44.2545 65.5132 44.1494C65.4953 44.0714 65.5096 43.9841 65.4827 43.9106C65.4387 43.7904 65.4206 43.6638 65.3662 43.5448C65.3152 43.4333 65.2578 43.3262 65.1856 43.2318C65.0616 43.0698 64.8817 42.9795 64.692 42.912C64.5961 42.8778 64.4982 42.8519 64.3971 42.8333C64.2909 42.8137 64.1835 42.8084 64.0773 42.79C63.9716 42.7719 63.8599 42.7835 63.7512 42.7867C63.6446 42.79 63.5424 42.7583 63.4347 42.7586C61.8132 42.7621 60.1917 42.7611 58.5701 42.7611H58.4496V47.7552C58.4496 47.7552 63.8481 47.8332 64.0282 47.8295L64.028 47.83Z" fill="#2275B8"/>
<path d="M35.027 46.4755H31.2604V44.6723H37.9948V44.7785C37.9948 45.5313 37.9956 46.2841 37.9938 47.0368C37.9938 47.1297 37.975 47.2223 37.9707 47.3151C37.9664 47.4069 37.9858 47.5028 37.9654 47.5901C37.9443 47.6802 37.9594 47.7697 37.9428 47.8563C37.905 48.053 37.8834 48.252 37.8255 48.4465C37.7832 48.5887 37.7307 48.7253 37.6788 48.8632C37.6195 49.0214 37.5415 49.1678 37.4431 49.3057C37.3384 49.4524 37.2184 49.5797 37.077 49.6932C36.9462 49.7983 36.804 49.8799 36.6571 49.9563C36.5756 49.9989 36.2656 50.0927 36.1826 50.1166C36.0882 50.1438 35.9901 50.1516 35.8973 50.1856C35.8457 50.2044 35.7888 50.1931 35.732 50.2102C35.6444 50.2366 35.5476 50.2308 35.4547 50.2401C35.3825 50.2474 35.3111 50.26 35.2389 50.264C35.1636 50.2683 35.0831 50.2482 35.0137 50.2688C34.9027 50.3015 34.793 50.2887 34.6836 50.289C33.5519 50.291 32.4202 50.2902 31.2886 50.2902C30.9074 50.337 30.5242 50.3076 30.142 50.3151C29.8434 50.3209 29.5463 50.2718 29.2471 50.2902C29.1145 50.2462 28.9751 50.2847 28.8433 50.261C28.7283 50.2404 28.6123 50.2578 28.5019 50.2354C28.4158 50.218 28.3321 50.2208 28.2475 50.214C28.2002 50.2102 28.1542 50.1949 28.1069 50.1906C28.0611 50.1863 28.0095 50.2027 27.9698 50.1868C27.8973 50.1579 27.8223 50.1793 27.7536 50.1611C27.6892 50.1443 27.6258 50.1461 27.5622 50.1375C27.5028 50.1297 27.4397 50.1257 27.3853 50.1093C27.3209 50.0899 27.2532 50.0922 27.1901 50.0658C27.1294 50.0404 27.061 50.0338 26.9984 50.0127C26.9362 49.9918 26.8763 49.9636 26.8157 49.938C26.6715 49.8768 26.5349 49.8011 26.4069 49.7115C26.3085 49.6429 26.2119 49.5707 26.1205 49.4932C26.0473 49.431 25.9822 49.3593 25.9152 49.2901C25.8096 49.1802 25.7228 49.0571 25.6435 48.9263C25.5887 48.836 25.5222 48.7505 25.4817 48.6538C25.4191 48.5041 25.3731 48.3474 25.3192 48.1942C25.2777 48.0764 25.2681 47.9499 25.2188 47.8341C25.2377 47.7592 25.1917 47.6922 25.1922 47.6188C25.1922 47.572 25.1773 47.5252 25.1685 47.4786C25.1597 47.4321 25.1901 47.3788 25.1441 47.3377C25.1398 47.334 25.1431 47.3216 25.1436 47.3133C25.1559 47.1568 25.1006 47.0039 25.1184 46.8469C25.0716 46.584 25.1184 46.3165 25.0877 46.0549C25.0638 45.8521 25.0752 45.6513 25.0694 45.4498C25.0636 45.2493 25.0495 45.0462 25.0726 44.848C25.1059 44.5621 25.0825 44.2771 25.0933 43.992C25.1376 43.8597 25.1003 43.7213 25.1222 43.589C25.1376 43.4954 25.1421 43.4035 25.1438 43.3102C25.1446 43.2624 25.1778 43.2216 25.1705 43.1698C25.1647 43.1273 25.1783 43.0845 25.1886 43.0413C25.2052 42.9728 25.202 42.8988 25.2171 42.8266C25.2493 42.6729 25.2807 42.5192 25.3245 42.3685C25.358 42.2535 25.4002 42.1405 25.4468 42.0303C25.4918 41.9234 25.5426 41.8182 25.6002 41.7176C25.6491 41.6321 25.7062 41.55 25.7688 41.4738C25.8871 41.3299 26.0244 41.2071 26.1706 41.0891C26.3603 40.9359 26.5852 40.8516 26.7898 40.7293C26.8806 40.7203 26.9551 40.6629 27.0454 40.6466C27.1279 40.6315 27.2037 40.5801 27.2862 40.5633C27.4095 40.5381 27.5272 40.4938 27.6523 40.4712C27.7506 40.4533 27.8568 40.4523 27.9491 40.402C27.9557 40.3985 27.9657 40.4018 27.974 40.4015C28.051 40.4005 28.1265 40.3909 28.203 40.3806C28.3696 40.3585 28.5394 40.361 28.7074 40.3507C28.7922 40.3454 28.8765 40.3311 28.9611 40.327C29.0489 40.3228 29.1412 40.3429 29.2242 40.3225C29.3724 40.286 29.5201 40.3026 29.6673 40.3024C30.9917 40.3001 32.3163 40.3004 33.6407 40.3021C33.7839 40.3021 33.927 40.321 34.0704 40.3253C34.2129 40.3296 34.3583 40.3089 34.4972 40.3311C34.6333 40.3527 34.7676 40.3419 34.9025 40.3525C34.9578 40.3567 35.0097 40.3829 35.0683 40.3776C35.1241 40.3728 35.1828 40.3663 35.2338 40.4015C35.3332 40.3826 35.4273 40.4234 35.5249 40.4294C35.6183 40.4352 35.7109 40.4632 35.8027 40.4848C35.8862 40.5047 35.9692 40.5273 36.0513 40.5525C36.1738 40.59 36.2961 40.629 36.4168 40.671C36.5527 40.7183 36.6795 40.7857 36.8071 40.8519C36.9097 40.9052 37.0061 40.9658 37.0926 41.0426C37.1286 41.0745 37.1716 41.0989 37.2058 41.1321C37.3819 41.3035 37.5138 41.5058 37.6187 41.7264C37.6874 41.8711 37.7332 42.0235 37.7684 42.1788C37.791 42.2792 37.827 42.3783 37.82 42.484C37.8773 42.5534 37.8308 42.6397 37.8595 42.7185C37.8849 42.7886 37.8572 42.8762 37.8726 42.9522C37.9178 43.1784 37.8841 43.4058 37.8955 43.6322C37.8965 43.6531 37.8967 43.674 37.8955 43.6949C37.8927 43.7404 37.8731 43.7608 37.8298 43.7638C37.8089 43.7653 37.7878 43.7638 37.7669 43.7638C36.8994 43.7638 36.0316 43.7631 35.1641 43.7646C35.03 43.7646 35.0263 43.757 35.027 43.6257C35.0273 43.558 35.0119 43.4903 35.0034 43.4229C34.9953 43.3595 34.9973 43.2921 34.9757 43.2335C34.9465 43.154 34.9037 43.0785 34.8587 43.006C34.7699 42.8631 34.6099 42.7803 34.472 42.7328C34.3251 42.682 34.1764 42.6535 34.0229 42.6322C33.7119 42.5886 33.4007 42.6166 33.09 42.6108C32.7715 42.6047 32.4529 42.6095 32.1344 42.6095H31.1914C30.7054 42.6095 30.219 42.603 29.7329 42.6128C29.5309 42.6168 29.3271 42.6334 29.1314 42.7049C29.0635 42.7295 28.986 42.7353 28.9153 42.76C28.8111 42.7959 28.714 42.8425 28.6254 42.9112C28.4838 43.0214 28.3987 43.1635 28.3295 43.3271C28.2875 43.4262 28.28 43.5314 28.2392 43.6285C28.2244 43.6642 28.2178 43.7045 28.2141 43.7432C28.2098 43.7847 28.2211 43.8287 28.2118 43.8682C28.1761 44.0187 28.21 44.1742 28.1831 44.3216C28.1552 44.4746 28.166 44.625 28.1645 44.7765C28.1602 45.1864 28.164 45.5962 28.1625 46.006C28.1617 46.1746 28.2055 46.3407 28.1884 46.51C28.1844 46.5503 28.2183 46.5812 28.2158 46.6252C28.2133 46.6677 28.2017 46.7115 28.2279 46.7576C28.246 46.7895 28.2269 46.8408 28.2405 46.8776C28.2667 46.9483 28.2775 47.0215 28.2948 47.0937C28.3119 47.1646 28.3532 47.228 28.3748 47.299C28.3869 47.339 28.4146 47.3752 28.44 47.4097C28.5253 47.5257 28.6262 47.6193 28.7578 47.689C28.8956 47.7622 29.0466 47.8037 29.1817 47.8802C29.2627 47.8782 29.3357 47.9131 29.4124 47.9305C29.5752 47.9672 29.7395 47.9823 29.9071 47.9818C31.0136 47.9791 32.1201 47.9811 33.2266 47.9793C33.3111 47.9793 33.3954 47.9604 33.4802 47.9562C33.5637 47.9519 33.6505 47.9682 33.7308 47.9514C33.7995 47.9368 33.8667 47.9348 33.9348 47.9292C34.0028 47.9237 34.0712 47.9129 34.1376 47.9016C34.3142 47.8714 34.4949 47.8271 34.6391 47.7219C34.7706 47.6258 34.8745 47.497 34.9332 47.332C34.9712 47.2248 34.984 47.1118 35.0283 47.0076C35.0328 46.9971 35.0288 46.9827 35.0288 46.9702V46.4745L35.027 46.4755Z" fill="#2275B8"/>
<path d="M53.9408 50.1866H50.6567C50.5578 50.0334 50.4791 49.8628 50.3779 49.7043C50.3244 49.6202 50.2849 49.5254 50.2323 49.4391C50.1591 49.3191 50.1014 49.1908 50.0217 49.0738C49.9588 48.9817 49.9208 48.873 49.866 48.7751C49.8028 48.6624 49.7331 48.5535 49.6639 48.4393H43.3564C43.3489 48.4533 43.3376 48.4778 43.3232 48.5001C43.2198 48.6609 43.1413 48.8348 43.0507 49.0023C42.9861 49.1218 42.9295 49.2459 42.8598 49.3624C42.774 49.5063 42.7056 49.6587 42.6233 49.8044C42.5621 49.9126 42.5005 50.021 42.4489 50.1338C42.4273 50.1811 42.4021 50.1949 42.3568 50.1909C42.3485 50.1901 42.34 50.1909 42.3317 50.1909H39.026C39.0313 50.1632 39.0282 50.1322 39.0421 50.1146C39.0987 50.0432 39.1311 49.9584 39.1762 49.8809C39.2793 49.7023 39.3747 49.5194 39.4798 49.3417C39.5714 49.1872 39.6527 49.0272 39.7483 48.8748C39.8054 48.7837 39.8502 48.6828 39.9063 48.5895C39.9725 48.4793 40.0248 48.3613 40.0973 48.2541C40.1405 48.1902 40.1707 48.1172 40.2085 48.0495C40.2746 47.9305 40.3413 47.8115 40.4097 47.6935C40.5016 47.535 40.5886 47.3735 40.6807 47.2152C40.7348 47.1224 40.7871 47.0258 40.8392 46.9304C40.9323 46.7594 41.0204 46.585 41.1286 46.4222C41.1781 46.3477 41.2156 46.2652 41.2586 46.187C41.3482 46.0234 41.4395 45.8607 41.5309 45.6981C41.632 45.518 41.7324 45.3373 41.8368 45.1587C41.8871 45.0724 41.9367 44.9831 41.9847 44.8945C42.0836 44.7131 42.1805 44.5307 42.2907 44.3551C42.3435 44.2708 42.3848 44.177 42.4361 44.0897C42.5413 43.9118 42.6308 43.7254 42.7453 43.552C42.8155 43.4458 42.8636 43.3251 42.9252 43.2129C42.9758 43.1205 43.0319 43.031 43.085 42.9401C43.0948 42.9235 43.1026 42.9054 43.1119 42.8886C43.1793 42.7653 43.251 42.6443 43.321 42.5227C43.3745 42.4291 43.4286 42.3338 43.4779 42.2372C43.5366 42.1225 43.6042 42.013 43.6692 41.9018C43.722 41.8115 43.7673 41.7164 43.8221 41.6266C43.8933 41.5103 43.9537 41.3878 44.0239 41.2703C44.0752 41.1845 44.1162 41.0909 44.1696 41.0051C44.2438 40.8856 44.2974 40.7553 44.3804 40.6401C44.4343 40.5656 44.4662 40.4755 44.5095 40.393C44.5168 40.3789 44.5311 40.3683 44.5437 40.3545H48.5471C48.6314 40.5294 48.7232 40.6962 48.8251 40.8577C48.8435 40.8869 48.8545 40.9208 48.8701 40.9518C48.9791 41.1666 49.1026 41.3737 49.2158 41.5863C49.3016 41.7476 49.3947 41.9056 49.483 42.0658C49.5786 42.2394 49.6662 42.4176 49.7673 42.5879C49.8627 42.7489 49.9505 42.9137 50.0418 43.077C50.1367 43.2466 50.2237 43.4204 50.3198 43.589C50.4142 43.7548 50.505 43.9221 50.5971 44.0889C50.6892 44.2557 50.7823 44.422 50.8728 44.5896C50.9652 44.7604 51.0552 44.933 51.1519 45.1011C51.2432 45.2598 51.3277 45.4224 51.4196 45.5809C51.5187 45.7522 51.602 45.9329 51.7039 46.1027C51.8002 46.2632 51.8835 46.4308 51.9776 46.5923C52.0752 46.7601 52.1625 46.934 52.2556 47.1043C52.3469 47.2714 52.4398 47.4377 52.5321 47.6042C52.6244 47.771 52.7165 47.9378 52.8089 48.1046C52.9012 48.2714 52.9933 48.4383 53.0856 48.6051C53.178 48.7719 53.27 48.9387 53.3624 49.1055C53.4562 49.2756 53.5465 49.4477 53.6416 49.617C53.741 49.7933 53.8354 49.9725 53.9355 50.1483C53.9405 50.1574 53.9383 50.1705 53.94 50.1863L53.9408 50.1866ZM44.4516 46.351C45.8409 46.351 47.2182 46.351 48.5956 46.3508C48.5987 46.3508 48.6024 46.3462 48.6047 46.3432C48.607 46.3402 48.608 46.3362 48.613 46.3254C48.5212 46.1598 48.4263 45.9905 48.3332 45.8199C48.2233 45.6189 48.1151 45.4168 48.0062 45.2151C47.8972 45.0135 47.7883 44.8118 47.6791 44.6102C47.5701 44.4087 47.4617 44.2067 47.352 44.0054C47.2438 43.8074 47.1301 43.6124 47.0264 43.4124C46.919 43.2056 46.8048 43.0025 46.6951 42.797C46.635 42.6843 46.5736 42.5723 46.5139 42.4626C46.4609 42.556 46.407 42.6463 46.358 42.7389C46.2762 42.8931 46.202 43.0511 46.1164 43.2031C46.0344 43.3487 45.967 43.5017 45.8799 43.6454C45.7899 43.7943 45.7187 43.9546 45.6374 44.109C45.5617 44.2535 45.4847 44.3974 45.4064 44.5403C45.3189 44.7003 45.2449 44.8674 45.1511 45.0246C45.0738 45.1542 45.0139 45.2941 44.9392 45.4262C44.8401 45.6015 44.7533 45.7839 44.6599 45.9626C44.595 46.0866 44.5279 46.2091 44.4519 46.351H44.4516Z" fill="#2275B8"/>
<path d="M23.0758 40.3516V50.1895H22.9867C22.048 50.1895 21.1093 50.1887 20.1706 50.1902C20.036 50.1902 20.0352 50.1812 20.0352 50.0508C20.0363 46.8646 20.0363 43.6784 20.0352 40.4922C20.0352 40.3526 20.0375 40.3506 20.1809 40.3508C21.107 40.3521 22.0332 40.3516 22.9593 40.3516H23.0758Z" fill="#2275B8"/>
</svg>
