<svg width="70" height="70" viewBox="0 0 70 70" fill="none" xmlns="http://www.w3.org/2000/svg">
<path d="M56.3532 32.2426C57.5272 32.2426 58.4789 31.2909 58.4789 30.1168C58.4789 28.9428 57.5272 27.9911 56.3532 27.9911C55.1791 27.9911 54.2274 28.9428 54.2274 30.1168C54.2274 31.2909 55.1791 32.2426 56.3532 32.2426Z" fill="url(#paint0_linear_636_7343)"/>
<path d="M13.3379 36.7442C14.0882 37.9946 14.7134 39.2451 15.4637 40.4955C15.3387 40.4955 15.3387 40.4955 15.3387 40.4955C13.9632 40.4955 12.7127 40.4955 11.3372 40.4955C11.2122 40.4955 11.2122 40.4955 11.0871 40.3705C10.587 39.3701 10.0868 38.3698 9.58662 37.3694C9.58662 37.3694 9.58662 37.2444 9.46157 37.2444C9.21148 38.3698 8.83635 39.3701 8.58626 40.4955C8.58626 40.6205 8.46122 40.6205 8.33617 40.6205C7.33582 40.6205 6.33546 40.6205 5.21007 40.6205H5.08502C5.33511 39.6202 5.5852 38.6198 5.83529 37.6195C6.08538 36.4941 6.46051 35.3687 6.7106 34.3683C6.83564 33.6181 7.08573 32.9928 7.21077 32.2426C7.21077 32.1175 7.33582 31.9925 7.46086 31.9925C9.58662 31.9925 11.5873 31.9925 13.7131 31.9925C14.3383 31.9925 14.9635 32.1175 15.4637 32.4927C15.8388 32.7428 15.9639 33.1179 16.0889 33.6181C16.214 34.7435 15.5887 35.6188 14.7134 36.119C14.3383 36.369 13.8381 36.4941 13.3379 36.7442ZM9.8367 35.8689C10.3369 35.8689 10.8371 35.8689 11.3372 35.7438C11.7124 35.6188 12.0875 35.4937 12.3376 35.2436C12.5877 34.9936 12.7127 34.7435 12.5877 34.3683C12.4626 34.1182 12.2125 33.9932 11.9625 33.8682C11.4623 33.7431 11.0871 33.7431 10.587 33.7431C10.4619 33.7431 10.4619 33.7431 10.4619 33.8682C10.2118 34.6184 10.0868 35.2436 9.8367 35.8689Z" fill="white"/>
<path d="M55.978 42.7463C56.2281 41.4959 56.4782 40.4955 56.7283 39.3701C56.4782 39.6202 56.3532 39.7452 56.1031 39.8703C55.728 40.2454 55.2278 40.4955 54.7276 40.3705C54.3525 40.3705 54.1024 40.1204 53.8523 39.8703C53.6022 39.3701 53.7272 38.8699 53.7272 38.3698C53.8523 37.4944 54.1024 36.6191 54.3525 35.7438C54.4775 35.2437 54.6026 34.7435 54.7276 34.2433C54.7276 34.1183 54.7276 34.1183 54.6026 34.1183C54.3525 34.1183 54.1024 34.1183 53.8523 34.1183C53.7272 34.1183 53.7272 34.1183 53.7272 33.9932C53.7272 33.6181 53.7272 33.6181 54.1024 33.6181C54.9777 33.6181 55.853 33.493 56.7283 33.493C56.8534 33.493 56.8534 33.493 56.9784 33.493C56.8534 33.9932 56.7283 34.6184 56.4782 35.1186C56.1031 36.369 55.728 37.6195 55.4779 38.8699C55.4779 39.12 55.3528 39.3701 55.4779 39.6202C55.4779 39.7452 55.4779 39.8703 55.6029 39.8703C55.728 39.8703 55.728 39.8703 55.853 39.7452C56.1031 39.4952 56.2281 39.2451 56.4782 38.995C56.7283 38.6198 56.8534 38.3698 56.9784 37.9946C56.9784 37.8696 57.1034 37.8696 57.1034 37.8696C57.8537 38.1197 58.604 38.2447 59.4793 38.2447C60.2295 38.2447 60.9798 37.9946 61.48 37.3694C61.9802 36.6191 61.8551 35.7438 61.3549 35.2437C61.1049 34.9936 60.8548 34.8685 60.4796 34.8685C59.7294 34.7435 59.1041 34.7435 58.3539 34.9936C58.1038 34.9936 57.8537 35.1186 57.6036 35.1186C57.4786 35.1186 57.4786 35.1186 57.4786 34.9936C57.6036 34.4934 57.7287 33.9932 57.7287 33.6181C57.7287 33.493 57.8537 33.493 57.8537 33.493C59.1041 33.368 60.2295 33.2429 61.48 33.368C62.2303 33.368 62.8555 33.493 63.4807 33.7431C64.356 34.1183 64.8562 34.6184 64.9812 35.6188C65.1063 37.1193 64.6061 38.3698 63.4807 39.4952C62.9805 39.9953 62.2303 40.2454 61.48 40.3705C60.6047 40.4955 59.7294 40.4955 58.9791 40.4955C58.8541 40.4955 58.729 40.4955 58.729 40.7456C58.604 41.3708 58.4789 42.1211 58.3539 42.7463" fill="white"/>
<path d="M19.09 40.6206C18.3397 40.4955 17.8395 40.3705 17.2143 40.1204C16.339 39.7453 15.9639 38.8699 15.8388 37.9946C15.7138 36.9943 15.9639 35.9939 16.5891 35.1186C17.2143 34.2433 18.0896 33.6181 19.215 33.368C20.3404 33.1179 21.5909 32.9929 22.7163 33.493C23.2164 33.6181 23.5916 33.9932 23.8417 34.3684C23.8417 34.4934 23.9667 34.4934 23.8417 34.6184C23.0914 35.3687 22.7163 36.3691 22.5912 37.4945C22.5912 37.8696 22.5912 38.2447 22.5912 38.6199C22.5912 38.8699 22.7163 39.12 22.8413 39.3701C22.9663 39.4952 22.9663 39.4952 22.8413 39.6202C22.091 40.1204 21.3408 40.4955 20.4655 40.6206C20.0903 40.7456 19.4651 40.6206 19.09 40.6206ZM18.7148 37.3694C18.7148 37.4945 18.7148 37.4945 18.7148 37.6195C18.7148 37.9946 18.8399 38.2447 19.215 38.4948C19.7152 38.7449 20.5905 38.6199 20.8406 37.9946C21.2157 37.3694 21.3408 36.7442 21.3408 36.119C21.3408 35.4938 20.9656 34.9936 20.3404 34.9936C19.8402 34.9936 19.4651 35.1186 19.215 35.4938C18.8399 35.9939 18.7148 36.7442 18.7148 37.3694Z" fill="white"/>
<path d="M52.8519 34.2433C52.4768 33.7431 51.8515 33.6181 51.2263 33.493C50.351 33.493 49.4757 33.6181 48.6004 33.8681H48.4754V33.7431C48.4754 33.493 48.6004 33.368 48.7254 33.1179C48.8505 32.4927 49.1006 31.8674 49.2256 31.3673C49.2256 31.2422 49.2256 31.2422 49.1006 31.2422C48.2253 31.2422 47.35 31.2422 46.4746 31.2422C46.3496 31.2422 46.3496 31.2422 46.3496 31.3673C46.3496 31.6174 46.2246 31.8674 46.2246 31.9925C45.9745 33.1179 45.7244 34.1182 45.4743 35.2436C45.3492 35.8689 45.2242 36.369 45.0992 36.9943C45.0992 37.1193 45.0992 37.2443 44.8491 37.3694C44.3489 37.6195 43.8487 37.8696 43.3485 37.9946C42.7233 38.1197 42.0981 38.2447 41.5979 37.8696C40.7226 37.4944 40.3475 36.6191 40.9727 35.7438C41.4729 34.9935 42.2231 34.7435 43.0985 34.6184C43.8487 34.4934 44.4739 34.4934 45.2242 34.6184C45.3492 34.6184 45.3492 34.6184 45.4743 34.4934C45.5993 34.1182 45.5993 33.7431 45.7244 33.368C45.7244 33.2429 45.7244 33.1179 45.5993 33.1179C44.599 33.1179 43.5986 33.1179 42.7233 33.1179C42.0981 33.1179 41.4729 33.2429 40.9727 33.493C39.2221 34.2433 38.0967 35.8689 38.0967 37.7445C38.0967 38.6198 38.5969 39.3701 39.4722 39.7452C40.2224 39.9953 40.9727 39.9953 41.723 39.9953C42.3482 39.9953 42.8484 39.8703 43.3485 39.6202C44.0988 39.2451 44.724 38.7449 45.3492 38.2447C45.5993 37.9946 45.8494 37.7445 46.0995 37.4944C46.0995 37.6195 46.0995 37.6195 46.0995 37.6195C45.8494 37.9946 45.4743 38.3697 45.0992 38.7449C44.724 38.995 44.4739 39.3701 44.3489 39.8703C44.3489 39.9953 44.3489 39.9953 44.4739 39.9953C45.3492 39.9953 46.0995 39.9953 46.9748 39.9953C47.0999 39.9953 47.2249 39.8703 47.2249 39.7452C47.2249 39.4951 47.35 39.2451 47.35 39.12C47.6 38.1197 47.7251 37.1193 48.1002 36.244C48.3503 35.4937 48.9755 35.1186 49.7258 34.8685C50.351 34.7435 50.7262 34.9935 50.7262 35.7438C50.7262 36.1189 50.6011 36.6191 50.4761 36.9943C50.226 37.8696 49.9759 38.8699 49.6008 39.7452C49.6008 39.8703 49.6008 39.9953 49.7258 39.9953C50.4761 39.9953 51.3514 39.9953 52.1016 39.9953C52.2267 39.9953 52.3517 39.8703 52.3517 39.7452C52.4768 38.995 52.7269 38.3697 52.9769 37.6195C53.227 36.8692 53.3521 35.9939 53.3521 35.2436C53.227 34.9935 53.102 34.6184 52.8519 34.2433Z" fill="white"/>
<path d="M38.2218 34.1183C38.4718 33.8682 38.847 33.6181 39.0971 33.368C38.0967 33.368 37.0964 33.368 36.096 33.368C35.971 33.368 35.7209 33.368 35.5958 33.493C35.0956 33.8682 34.5955 34.2433 34.0953 34.6184C33.9703 34.7435 33.8452 34.8685 33.5951 34.9936C33.5951 34.8685 33.5951 34.8685 33.5951 34.8685C33.8452 33.7431 34.0953 32.6177 34.4704 31.4923C34.4704 31.3673 34.4704 31.3673 34.3454 31.3673C33.4701 31.3673 32.7198 31.3673 31.8445 31.3673C31.7195 31.3673 31.7195 31.3673 31.5944 31.4923C31.4694 32.1175 31.3443 32.6177 31.2193 33.2429C30.8441 34.6184 30.5941 35.9939 30.2189 37.2444C30.2189 37.3694 30.0939 37.3694 30.0939 37.4944C29.8438 37.6195 29.5937 37.7445 29.3436 37.8696C28.4683 38.2447 27.593 38.3698 26.7177 38.1197C26.3426 37.9946 25.9674 37.7445 25.8424 37.2444C25.7173 36.7442 25.9674 36.3691 26.2175 35.9939C26.8427 35.3687 27.593 34.9936 28.3433 34.8685C28.9685 34.7435 29.7187 34.7435 30.344 34.7435C30.469 34.7435 30.469 34.7435 30.5941 34.6184C30.7191 34.2433 30.8441 33.7431 30.9692 33.368C29.9688 33.368 28.9685 33.368 27.9681 33.368C27.593 33.368 27.2179 33.368 26.8427 33.493C25.5923 33.7431 24.717 34.3683 24.0918 35.3687C23.5916 36.244 23.3415 37.1193 23.3415 38.1197C23.3415 38.7449 23.7166 39.2451 24.2168 39.6202C24.717 39.8703 25.2172 39.9953 25.7173 40.1204C26.9678 40.2454 28.0932 39.9953 29.0935 39.3701C29.8438 38.995 30.469 38.4948 31.0942 37.8696L31.2193 37.7445C30.8441 38.2447 30.344 38.7449 29.8438 39.2451C29.7187 39.2451 29.7187 39.3701 29.7187 39.4952C29.7187 39.7452 29.5937 39.8703 29.5937 40.1204C30.469 40.1204 31.3443 40.1204 32.2196 40.1204C32.5948 40.1204 32.4697 40.1204 32.5948 39.7452C32.7198 39.12 32.9699 38.4948 33.0949 37.7445C33.0949 37.8696 33.22 37.8696 33.22 37.8696C33.8452 38.6198 34.3454 39.2451 34.8456 39.9953C34.9706 40.1204 34.9706 40.1204 35.0956 40.1204C35.971 40.1204 36.9713 40.1204 37.8466 40.1204H37.9717C37.7216 39.8703 37.4715 39.4952 37.2214 39.2451C36.4711 38.3698 35.8459 37.4944 35.0956 36.6191C35.0956 36.4941 34.9706 36.4941 35.0956 36.4941C36.221 35.6188 37.2214 34.8685 38.2218 34.1183Z" fill="white"/>
<path opacity="0.8" d="M56.7283 28.3662C56.8533 28.4913 56.8533 28.6163 56.8533 28.8664C56.8533 29.1165 56.2281 29.3666 55.978 29.6167C55.7279 29.7417 55.2278 30.2419 54.9777 30.1169C54.7276 30.1169 54.6025 29.9918 54.4775 29.8668C54.2274 29.4916 54.6025 28.8664 55.1027 28.6163C55.6029 28.2412 56.4782 27.9911 56.7283 28.3662Z" fill="#F5D9A3"/>
<defs>
<linearGradient id="paint0_linear_636_7343" x1="55.276" y1="29.2262" x2="58.1918" y2="31.7528" gradientUnits="userSpaceOnUse">
<stop stop-color="#E58C31"/>
<stop offset="1" stop-color="#F6D921"/>
</linearGradient>
</defs>
</svg>
