<svg width="70" height="70" viewBox="0 0 70 70" fill="none" xmlns="http://www.w3.org/2000/svg">
<g clip-path="url(#clip0_636_7427)">
<path d="M58.798 25C58.7947 25.0675 58.7464 25.105 58.7014 25.1441C58.6872 25.1566 58.6664 25.1632 58.6523 25.1757C58.549 25.2698 58.4499 25.3681 58.3433 25.4597C58.2175 25.568 58.0935 25.6763 57.9702 25.787C57.8728 25.8745 57.7695 25.9561 57.6721 26.0427C57.5513 26.1501 57.4272 26.2559 57.3065 26.3633C57.2007 26.4574 57.0916 26.5474 56.9858 26.6406C56.8642 26.7481 56.7418 26.8538 56.6202 26.9613C56.5203 27.0504 56.4154 27.1362 56.3146 27.2244C56.198 27.3269 56.0806 27.4285 55.964 27.5309C55.8499 27.6308 55.7341 27.7291 55.6209 27.8299C55.5101 27.9282 55.396 28.0239 55.2853 28.1222C55.1695 28.2255 55.0504 28.3254 54.9346 28.4287C54.8289 28.5228 54.7206 28.6127 54.614 28.7068C54.4924 28.8143 54.37 28.9209 54.2484 29.0275C54.1426 29.1207 54.0335 29.2115 53.9278 29.3056C53.8145 29.4064 53.6988 29.5055 53.5838 29.6037C53.5247 29.6546 53.4689 29.7078 53.4106 29.7595C53.3831 29.7836 53.3523 29.8036 53.324 29.8253C53.2982 29.8453 53.2732 29.8669 53.2432 29.8919C53.2341 29.9444 53.2899 29.9627 53.319 29.996C53.329 30.0077 53.349 30.0093 53.3606 30.0202C53.4714 30.1218 53.5805 30.2242 53.6904 30.3266C53.7879 30.4166 53.8803 30.514 53.9852 30.5948C54.0644 30.6556 54.1268 30.7322 54.2034 30.793C54.3109 30.8779 54.4 30.9829 54.5049 31.0686C54.5732 31.1253 54.6332 31.1902 54.7006 31.246C54.8472 31.3668 54.9829 31.4992 55.1262 31.6233C55.2245 31.7082 55.3127 31.8023 55.4093 31.889C55.4543 31.9289 55.5018 31.9664 55.5476 32.0064C55.5909 32.0439 55.6225 32.0938 55.6783 32.1163C55.6842 32.1188 55.6883 32.1255 55.6933 32.1305C55.7908 32.2204 55.884 32.3162 55.9873 32.3986C56.0864 32.4777 56.168 32.5752 56.2655 32.6535C56.3404 32.7134 56.402 32.7867 56.477 32.8433C56.5486 32.8966 56.6044 32.9658 56.6735 33.0191C56.7526 33.079 56.8151 33.1573 56.8934 33.2156C56.9933 33.2897 57.0658 33.3922 57.1641 33.4638C57.2665 33.5371 57.3364 33.6453 57.4464 33.707C57.4489 33.7086 57.4514 33.712 57.4539 33.7145C57.5438 33.7969 57.6313 33.8844 57.7254 33.9618C57.8286 34.0459 57.9169 34.1467 58.0193 34.2308C58.0851 34.2849 58.1426 34.3466 58.2076 34.4007C58.3633 34.5314 58.5107 34.6722 58.6631 34.8071C58.7339 34.8704 58.7972 34.9428 58.8738 34.9978C58.9379 35.0436 58.9904 35.1011 59.047 35.1535C59.0562 35.1619 59.0628 35.1735 59.0678 35.181C59.0645 35.1902 59.0637 35.1935 59.062 35.196C59.0603 35.1985 59.057 35.2027 59.0545 35.2027C57.7578 35.2027 56.462 35.2027 55.1653 35.2027C54.6798 34.7205 54.2018 34.2316 53.7071 33.7594C53.3357 33.4055 52.9809 33.0357 52.6061 32.686C52.3496 32.4469 52.1114 32.1904 51.8508 31.9572C51.6509 31.7782 51.466 31.585 51.2736 31.3993C51.0796 31.2119 50.8914 31.0195 50.699 30.8313C50.6482 30.7822 50.6074 30.723 50.5399 30.6897C50.5166 30.6781 50.51 30.6331 50.4866 30.6223C50.4567 30.6081 50.4392 30.5948 50.4283 30.5631C50.4234 30.549 50.3934 30.5465 50.3809 30.5323C50.3226 30.4665 50.2435 30.4191 50.2027 30.3374C50.1935 30.32 50.1743 30.3075 50.1594 30.2933C50.0761 30.2109 49.9928 30.1276 49.9095 30.0451C49.897 30.0326 49.887 30.0143 49.872 30.0102C49.8021 29.9893 49.8046 29.9377 49.8104 29.8827C49.8246 29.8752 49.8412 29.8711 49.8529 29.8603C49.9487 29.7736 50.0444 29.6862 50.1385 29.5979C50.3009 29.4455 50.4575 29.2873 50.6241 29.1399C50.7431 29.0349 50.8614 28.9283 50.983 28.8267C51.1362 28.6985 51.2636 28.5461 51.4144 28.4162C51.5185 28.3271 51.6084 28.223 51.715 28.1397C51.9282 27.9715 52.1231 27.7832 52.323 27.6C52.467 27.4676 52.5986 27.3235 52.7469 27.197C52.8884 27.0762 53.0234 26.9463 53.1641 26.8255C53.324 26.6889 53.4622 26.5332 53.6163 26.3925C53.7212 26.2975 53.8278 26.2042 53.9361 26.1135C54.056 26.0127 54.1668 25.9003 54.2817 25.7937C54.3742 25.7079 54.4624 25.6171 54.5615 25.5397C54.6348 25.483 54.6906 25.4073 54.7664 25.3573C54.878 25.2832 54.9471 25.1657 55.0621 25.0966C55.087 25.0816 55.0995 25.0367 55.0929 24.9984H58.7955L58.798 25Z" fill="#084BA7"/>
<path d="M34.2336 35.2651V27.7533C34.2753 26.8713 34.2453 25.9894 34.2544 25.1074C34.2544 25.1008 34.2569 25.095 34.2594 25.0816C34.3469 25.0816 34.4393 25.0675 34.5251 25.0841C34.6992 25.1183 34.874 25.1 35.0473 25.1008C37.1101 25.1033 39.1721 25.1016 41.235 25.1033C41.3149 25.1033 41.3957 25.1191 41.4757 25.1224C41.559 25.1258 41.6431 25.1166 41.7247 25.1249C41.8021 25.1333 41.8771 25.1657 41.957 25.1641C41.987 25.2049 42.037 25.1682 42.0703 25.1916C42.1086 25.2182 42.1502 25.1991 42.1894 25.2049C42.2319 25.2115 42.2735 25.2232 42.316 25.224C42.3618 25.2249 42.3968 25.2507 42.4359 25.2607C42.5175 25.2815 42.5975 25.309 42.6791 25.3248C42.7599 25.3406 42.8365 25.3681 42.9106 25.3948C42.9914 25.4239 43.0738 25.4514 43.1546 25.4822C43.2953 25.5363 43.4328 25.598 43.5668 25.6646C43.6526 25.7079 43.7384 25.7512 43.8242 25.7962C43.9566 25.8653 44.084 25.9427 44.2048 26.0302C44.3197 26.1143 44.4396 26.1893 44.547 26.2834C44.6486 26.3716 44.7544 26.4549 44.8519 26.5474C44.9101 26.6032 44.9809 26.6481 45.0326 26.7098C45.1433 26.8422 45.2674 26.9629 45.3632 27.1095C45.4265 27.2078 45.4973 27.3027 45.5639 27.3993C45.593 27.4426 45.6264 27.4834 45.6505 27.5292C45.7454 27.71 45.8454 27.8898 45.9295 28.0756C45.997 28.223 46.0536 28.377 46.0977 28.5328C46.1235 28.626 46.1569 28.7151 46.1918 28.8043C46.211 28.8509 46.2201 28.9 46.2118 28.9508C46.206 28.9891 46.2135 29.0291 46.2351 29.0541C46.2726 29.0974 46.2301 29.1565 46.2751 29.194C46.2818 29.2773 46.2834 29.3614 46.2976 29.443C46.3084 29.5063 46.3109 29.5713 46.3334 29.6346C46.3476 29.6745 46.3392 29.7228 46.3367 29.767C46.3292 29.8961 46.3676 30.021 46.3601 30.1509C46.3526 30.2817 46.3584 30.4124 46.3584 30.5431C46.3584 30.6373 46.3234 30.7289 46.3376 30.8238C46.3001 30.8713 46.3342 30.9329 46.3118 30.9787C46.2859 31.0328 46.3009 31.0853 46.2968 31.1378C46.2951 31.1653 46.2876 31.1877 46.2759 31.2119C46.2493 31.271 46.2618 31.3401 46.226 31.3984C46.2176 31.4118 46.211 31.4293 46.2126 31.4442C46.2201 31.5192 46.1935 31.5858 46.171 31.6549C46.1127 31.8407 46.0486 32.0247 45.9728 32.2038C45.9187 32.3328 45.8487 32.4561 45.7829 32.5802C45.7371 32.6651 45.688 32.7484 45.6364 32.8292C45.5806 32.9166 45.5214 33.0024 45.4623 33.0882C45.4098 33.164 45.354 33.2373 45.3016 33.3122C45.2266 33.4197 45.1358 33.5121 45.0534 33.6104C44.9801 33.6978 44.901 33.7836 44.8011 33.8477C44.7394 33.8877 44.6861 33.9418 44.6328 33.9926C44.4788 34.1384 44.3005 34.2558 44.1231 34.369C43.9608 34.4723 43.7975 34.5772 43.6168 34.6497C43.4386 34.7213 43.2687 34.8096 43.0871 34.8754C42.9431 34.9279 42.7982 34.982 42.6508 35.0245C42.5425 35.0561 42.4351 35.1061 42.3168 35.0986C42.3026 35.0977 42.2868 35.1094 42.2727 35.1161C42.2185 35.1402 42.1586 35.1344 42.1028 35.1569C42.052 35.1777 41.9937 35.1844 41.9354 35.1819C41.8937 35.1802 41.8513 35.1944 41.8088 35.201C41.7663 35.2068 41.7197 35.1869 41.6822 35.221C41.678 35.2243 41.6689 35.2218 41.6622 35.221C41.5048 35.2102 41.3499 35.2568 41.1925 35.2418C40.8702 35.2851 40.5463 35.256 40.224 35.261C39.895 35.266 39.5652 35.2618 39.2363 35.2618H34.2328L34.2336 35.2651ZM36.8769 33.0965H39.1638C39.5344 33.0965 39.9058 33.1007 40.2764 33.0957C40.6445 33.0907 41.0126 33.1173 41.3807 33.0774C41.4474 33.0699 41.5115 33.0416 41.5798 33.0549C41.5848 33.0557 41.5906 33.0482 41.5964 33.0457C41.6764 33.0107 41.7638 32.9974 41.8479 32.9766C41.9012 32.9633 41.9529 32.9441 42.0062 32.9308C42.0561 32.9183 42.1069 32.9033 42.1536 32.8858C42.2027 32.8675 42.2543 32.845 42.3026 32.8192C42.4017 32.7667 42.5033 32.7168 42.6008 32.6618C42.7157 32.5968 42.819 32.5152 42.9206 32.4311C42.9631 32.3961 42.9955 32.3478 43.0397 32.3162C43.0838 32.2854 43.113 32.2437 43.1463 32.2054C43.2087 32.133 43.267 32.0572 43.322 31.9789C43.4311 31.8232 43.5144 31.6533 43.5843 31.4784C43.6143 31.4026 43.641 31.3227 43.6593 31.2402C43.6726 31.1761 43.6926 31.1103 43.7092 31.0453C43.7251 30.9862 43.7517 30.9296 43.7575 30.8688C43.7642 30.8096 43.7592 30.7505 43.7767 30.6906C43.7909 30.6398 43.7767 30.5815 43.7809 30.5265C43.7842 30.4707 43.7975 30.4149 43.8 30.3591C43.8034 30.28 43.8009 30.2009 43.8009 30.1218C43.8009 30.0426 43.8034 29.9569 43.8009 29.8744C43.7975 29.7978 43.7867 29.722 43.7809 29.6454C43.7775 29.5963 43.7867 29.5463 43.7609 29.498C43.7459 29.4705 43.7384 29.4355 43.7401 29.4039C43.7459 29.2865 43.6943 29.1807 43.6659 29.0724C43.6193 28.8975 43.5435 28.7318 43.4586 28.5694C43.3628 28.3854 43.2454 28.218 43.1088 28.0639C43.023 27.9681 42.9264 27.879 42.824 27.8016C42.6691 27.685 42.5058 27.58 42.3243 27.5059C42.2027 27.456 42.0861 27.3968 41.9554 27.3668C41.8329 27.3385 41.7222 27.2661 41.5898 27.2711C41.5131 27.2328 41.4215 27.2519 41.3449 27.2094C41.2491 27.2244 41.1575 27.1886 41.0626 27.1886C39.6968 27.1886 38.3318 27.1886 36.966 27.1886H36.8761V33.0957L36.8769 33.0965Z" fill="#084BA7"/>
<path d="M10.0016 31.5975C10.0332 31.6608 10.0824 31.6707 10.1257 31.6699C10.2206 31.6682 10.3064 31.7016 10.3955 31.724C10.5204 31.7549 10.642 31.7973 10.7653 31.8331C10.8294 31.8515 10.8985 31.8623 10.9651 31.8773C11.0626 31.8998 11.1575 31.9364 11.255 31.9531C11.3649 31.9722 11.4648 32.0247 11.5797 32.0255C11.6314 32.0255 11.688 32.0505 11.7371 32.0688C11.8387 32.1071 11.947 32.1113 12.0478 32.1479C12.0994 32.1663 12.1552 32.1671 12.2052 32.1954C12.2402 32.2154 12.2851 32.2254 12.3259 32.2279C12.4026 32.2321 12.4742 32.2479 12.5425 32.2845C12.5533 32.2904 12.5683 32.2912 12.5808 32.2912C12.6674 32.2904 12.7457 32.3287 12.8298 32.3437C12.8556 32.3478 12.8814 32.3536 12.9081 32.3595C12.9231 32.4286 12.8981 32.4927 12.8847 32.5602C12.8656 32.6551 12.8306 32.7451 12.8065 32.8383C12.789 32.905 12.7915 32.9741 12.7673 33.039C12.7615 33.054 12.7548 33.0682 12.7498 33.0832C12.7207 33.1748 12.6907 33.2656 12.6632 33.3572C12.6332 33.4588 12.6124 33.5629 12.5841 33.6645C12.5633 33.7386 12.54 33.8119 12.5225 33.8868C12.5058 33.9593 12.4925 34.0326 12.4758 34.105C12.4708 34.1267 12.4658 34.1492 12.455 34.1683C12.4017 34.2608 12.4042 34.3674 12.3726 34.4648C12.3676 34.4798 12.3593 34.4939 12.3534 34.5089C12.3401 34.5422 12.3268 34.5747 12.3301 34.613C12.3351 34.6763 12.2926 34.728 12.2793 34.7879C12.2585 34.8787 12.231 34.9678 12.2068 35.0578C12.1994 35.0861 12.1902 35.1136 12.1869 35.1419C12.1835 35.1727 12.1869 35.2035 12.1869 35.2393C12.2393 35.2476 12.2776 35.2351 12.3251 35.206C12.3976 35.1627 12.4642 35.1111 12.5375 35.0694C12.6074 35.0294 12.6765 34.9861 12.7457 34.9462C12.8015 34.9137 12.8581 34.8829 12.9139 34.8512C13.023 34.7879 13.1313 34.7246 13.2404 34.6613C13.2462 34.658 13.2495 34.6497 13.2553 34.6472C13.3736 34.6014 13.4752 34.5264 13.5851 34.4648C13.7034 34.399 13.8208 34.3316 13.9366 34.2599C13.9907 34.2266 14.0507 34.2008 14.1065 34.1692C14.2181 34.1042 14.3297 34.0376 14.4396 33.9693C14.557 33.896 14.6828 33.8377 14.8035 33.7702C14.9101 33.7094 15.0142 33.6437 15.12 33.5812C15.1725 33.5495 15.2274 33.5229 15.2799 33.4904C15.3948 33.4188 15.5181 33.3613 15.6305 33.2831C15.6821 33.2464 15.7454 33.2273 15.8029 33.1981C15.8212 33.1889 15.837 33.1723 15.8604 33.154C15.7621 33.1182 15.6771 33.0674 15.5897 33.0607C15.4848 33.0532 15.394 33.0091 15.2949 32.9891C15.2099 32.9716 15.1275 32.9408 15.0417 32.9233C14.9726 32.9091 14.9051 32.8858 14.836 32.8683C14.7452 32.845 14.6536 32.8242 14.5628 32.8C14.4379 32.7667 14.313 32.7334 14.1881 32.7001C14.0448 32.6618 13.9008 32.6285 13.7584 32.586C13.6351 32.5494 13.5102 32.5119 13.3794 32.4936C13.2787 32.4794 13.1787 32.4453 13.0855 32.4036C13.0372 32.382 12.9922 32.3736 12.938 32.3728C12.938 32.3387 12.9297 32.3103 12.9539 32.277C12.9714 32.2537 12.9539 32.2154 12.9689 32.1804C13.0005 32.1005 13.0172 32.0147 13.0396 31.9306C13.0613 31.8498 13.0746 31.7665 13.1038 31.6882C13.1304 31.6183 13.1346 31.5442 13.1637 31.475C13.1754 31.4484 13.1771 31.4184 13.1862 31.3909C13.1887 31.3818 13.2062 31.3751 13.2054 31.3684C13.1995 31.2577 13.2753 31.1636 13.2687 31.0536C13.2978 31.0037 13.2937 30.9429 13.3286 30.8912C13.3561 30.8513 13.3711 30.7946 13.3703 30.7447C13.3694 30.6631 13.4136 30.5948 13.4227 30.5165C13.4311 30.4507 13.4635 30.3882 13.4752 30.3224C13.4877 30.2525 13.5202 30.1875 13.5293 30.1176C13.5377 30.0559 13.5618 30.0001 13.5793 29.9418C13.5976 29.8836 13.6051 29.8219 13.6226 29.7636C13.6343 29.7278 13.6384 29.6895 13.6601 29.6545C13.6776 29.6262 13.6484 29.5821 13.6817 29.5496C13.6917 29.5396 13.6834 29.5105 13.6834 29.4896C13.6434 29.4597 13.6093 29.4913 13.5843 29.5088C13.4352 29.6121 13.2753 29.6978 13.1196 29.7911C12.9505 29.8927 12.779 29.9918 12.6108 30.0951C12.48 30.1759 12.3426 30.2492 12.2093 30.3274C12.0894 30.3974 11.972 30.4723 11.8521 30.5431C11.7913 30.5789 11.728 30.6114 11.6664 30.6456C11.5589 30.7047 11.4532 30.768 11.3499 30.8346C11.2608 30.8912 11.1633 30.9354 11.0717 30.9895C10.9435 31.0653 10.8186 31.1461 10.6903 31.2219C10.5962 31.2777 10.4954 31.3226 10.4055 31.3851C10.3089 31.4517 10.1956 31.4867 10.1024 31.5575C10.0782 31.5758 10.0424 31.5775 10.0058 31.5883C9.99576 31.5358 10.0341 31.5017 10.0532 31.4659C10.1074 31.3668 10.1715 31.2735 10.2306 31.1769C10.3114 31.0453 10.3905 30.9121 10.4705 30.7796C10.5021 30.7272 10.5288 30.6722 10.5612 30.6206C10.6254 30.5181 10.6712 30.4041 10.7311 30.2983C10.8002 30.175 10.8835 30.0584 10.9468 29.9319C10.996 29.8336 11.0626 29.747 11.1125 29.6495C11.1683 29.5413 11.2391 29.4405 11.3016 29.3347C11.3424 29.2656 11.3782 29.194 11.4174 29.124C11.4856 28.9999 11.5523 28.875 11.6322 28.7576C11.693 28.6677 11.7405 28.5686 11.7954 28.4745C11.8454 28.3878 11.8987 28.3037 11.9495 28.2171C11.9687 28.1838 11.9812 28.1472 12.0003 28.1147C12.1152 27.914 12.216 27.7058 12.3459 27.5126C12.4034 27.4276 12.4467 27.3335 12.5 27.2461C12.5391 27.1828 12.5741 27.117 12.6174 27.0562C12.6616 26.9937 12.6907 26.9213 12.729 26.8547C12.7465 26.8238 12.7632 26.7872 12.7898 26.7672C12.819 26.7456 12.8048 26.7172 12.8173 26.6948C12.8673 26.6056 12.9114 26.5124 12.9664 26.4258C13.0163 26.3466 13.0555 26.2617 13.1063 26.1842C13.2012 26.0385 13.2703 25.8778 13.3678 25.7337C13.4127 25.6679 13.4402 25.5913 13.4802 25.5222C13.5318 25.4331 13.5876 25.3456 13.6418 25.2582C13.6534 25.239 13.6676 25.2207 13.6784 25.2007C13.7134 25.1341 13.7659 25.1008 13.8433 25.1008C14.7652 25.1008 15.6871 25.1008 16.609 25.1008C17.0596 25.1008 17.5101 25.1008 17.9607 25.1008C17.9907 25.1008 18.0223 25.1008 18.0506 25.1091C18.1256 25.1299 18.1256 25.1316 18.178 25.2282C18.2472 25.3556 18.3196 25.4814 18.4004 25.6013C18.4429 25.6646 18.4737 25.7362 18.5112 25.8037C18.572 25.9136 18.6294 26.0252 18.7027 26.1276C18.7227 26.1559 18.7377 26.1884 18.7543 26.2201C18.8176 26.3391 18.8884 26.4549 18.96 26.569C18.9942 26.6231 19.02 26.6823 19.0525 26.7372C19.1266 26.8621 19.2057 26.9837 19.2732 27.1112C19.3365 27.2302 19.4123 27.341 19.4706 27.4634C19.5313 27.5908 19.6221 27.7033 19.6854 27.8299C19.7345 27.9281 19.8003 28.0156 19.8511 28.1122C19.9078 28.2204 19.9786 28.3212 20.0402 28.427C20.0818 28.4986 20.1151 28.5761 20.1593 28.646C20.2467 28.7851 20.3233 28.9308 20.4141 29.0682C20.4633 29.1432 20.5016 29.2248 20.5465 29.3031C20.6123 29.4172 20.6789 29.5313 20.7464 29.6437C20.7797 29.6987 20.808 29.7561 20.8405 29.8111C20.9155 29.9385 20.9896 30.0676 21.0662 30.1942C21.132 30.3033 21.1895 30.419 21.2577 30.5273C21.3319 30.6447 21.3927 30.7697 21.4734 30.8829C21.5217 30.9504 21.5509 31.0295 21.5934 31.1019C21.655 31.2077 21.7208 31.311 21.7832 31.4159C21.7916 31.4292 21.7957 31.4459 21.7966 31.4617C21.7982 31.4925 21.7949 31.5242 21.7974 31.5542C21.8016 31.6 21.7816 31.6358 21.7599 31.6732C21.6816 31.8065 21.5942 31.9331 21.5209 32.0697C21.4576 32.1879 21.3893 32.3053 21.3227 32.4228C21.2469 32.556 21.1703 32.6901 21.0953 32.8242C21.0204 32.9591 20.9529 33.0982 20.8638 33.2256C20.8114 33.3005 20.7872 33.3955 20.7339 33.4704C20.6548 33.582 20.6173 33.7153 20.5324 33.8219C20.5091 33.851 20.5057 33.8943 20.4857 33.926C20.41 34.0459 20.35 34.175 20.2667 34.2907C20.2501 34.3141 20.2426 34.3424 20.2292 34.3682C20.1418 34.5323 20.0585 34.698 19.9652 34.8579C19.8928 34.9828 19.8237 35.1086 19.7579 35.2376C19.7412 35.2701 19.7121 35.2951 19.6904 35.3218C17.2212 35.3218 14.7569 35.3218 12.2926 35.3218C12.2593 35.3218 12.2235 35.3218 12.1919 35.3134C12.1077 35.2901 12.1094 35.2859 12.0628 35.1977C12.007 35.0927 11.9512 34.987 11.8846 34.8895C11.8329 34.8146 11.8004 34.7305 11.7555 34.6522C11.6897 34.5381 11.6289 34.4215 11.5556 34.3116C11.5364 34.2824 11.5198 34.2508 11.504 34.2191C11.4457 34.1009 11.3724 33.9909 11.3058 33.8777C11.25 33.7836 11.1992 33.6878 11.1434 33.5937C11.0809 33.4879 11.0159 33.3847 10.9526 33.2797C10.9193 33.2248 10.8902 33.1673 10.8569 33.1123C10.7603 32.9524 10.672 32.7884 10.5737 32.6293C10.5188 32.5402 10.4663 32.4469 10.4147 32.3545C10.3555 32.2479 10.2889 32.1446 10.2248 32.0405C10.1656 31.9439 10.1057 31.8481 10.0457 31.7524C10.0324 31.7307 10.0124 31.7099 10.0058 31.6866C9.99909 31.6616 10.0041 31.6341 10.0041 31.5925L10.0016 31.5975ZM13.7459 25.1707C13.7459 26.3941 13.7459 27.6125 13.745 28.8301C13.745 28.9408 13.7534 29.0508 13.7292 29.1632C13.7092 29.2581 13.725 29.3597 13.725 29.4605C13.785 29.4796 13.8092 29.5205 13.8308 29.5713C13.8608 29.6412 13.9049 29.7062 13.9449 29.772C14.0082 29.8769 14.074 29.9802 14.1356 30.0859C14.1964 30.1909 14.2464 30.3041 14.3147 30.4041C14.4188 30.5565 14.4954 30.7239 14.5978 30.8771C14.6353 30.9329 14.6611 30.9953 14.6953 31.0536C14.7577 31.1594 14.8235 31.2627 14.886 31.3676C14.9201 31.4251 14.9451 31.4892 14.9834 31.5442C15.0534 31.6449 15.1075 31.7557 15.1725 31.859C15.2099 31.9181 15.2382 31.9839 15.2766 32.043C15.3832 32.2079 15.4798 32.3795 15.5772 32.5494C15.6605 32.6943 15.7504 32.835 15.8279 32.9832C15.8495 33.0241 15.8812 33.0607 15.912 33.104C15.9345 33.0807 15.957 33.064 15.9703 33.0415C16.0011 32.9891 16.0252 32.9333 16.0544 32.88C16.0919 32.8125 16.1277 32.7434 16.1718 32.6809C16.2534 32.5643 16.3184 32.4386 16.3867 32.3145C16.4258 32.2445 16.4616 32.1729 16.5024 32.1038C16.5624 32.0005 16.6282 31.9014 16.6848 31.7965C16.7448 31.6866 16.8297 31.5908 16.8697 31.47C16.8714 31.4642 16.8805 31.4609 16.8839 31.4551C16.953 31.346 17.0229 31.2377 17.0896 31.1261C17.1304 31.0578 17.1587 30.9812 17.202 30.9146C17.2878 30.7821 17.3602 30.6414 17.4427 30.5073C17.4777 30.4499 17.5051 30.3882 17.5393 30.3308C17.5976 30.2308 17.6642 30.1351 17.7175 30.0318C17.7891 29.8919 17.8791 29.762 17.949 29.6212C17.9773 29.5629 18.0198 29.5121 18.054 29.4613C18.0956 29.4738 18.1289 29.498 18.1314 29.5313C18.1347 29.5779 18.1497 29.6212 18.1556 29.667C18.1606 29.707 18.1514 29.7453 18.1914 29.7778C18.2114 29.7953 18.2163 29.8369 18.218 29.8677C18.2213 29.9468 18.253 30.0193 18.2688 30.0951C18.2888 30.1892 18.3479 30.2725 18.3438 30.3732C18.3871 30.3982 18.3421 30.4557 18.3846 30.4807C18.3787 30.5615 18.4429 30.6289 18.4279 30.7114C18.4262 30.7197 18.4304 30.7338 18.4362 30.738C18.487 30.7705 18.4554 30.8338 18.4895 30.8713C18.4712 30.9512 18.5287 31.0145 18.5411 31.0878C18.5561 31.1752 18.5903 31.2602 18.6136 31.3468C18.6236 31.3843 18.6253 31.4242 18.6361 31.4617C18.6461 31.495 18.6661 31.525 18.6761 31.5583C18.6869 31.5958 18.6885 31.6358 18.6985 31.6732C18.7085 31.7099 18.7269 31.7449 18.7369 31.7815C18.761 31.8648 18.7835 31.9489 18.801 32.0338C18.821 32.1346 18.8526 32.2321 18.8926 32.3303C18.9192 32.3303 18.9592 32.342 18.9709 32.3278C19.0025 32.2912 19.0566 32.332 19.0816 32.2895C19.1241 32.3028 19.1624 32.2779 19.1957 32.2645C19.2357 32.2487 19.2765 32.2587 19.3123 32.2445C19.4297 32.1996 19.5513 32.1679 19.6729 32.1363C19.7254 32.1221 19.7762 32.0946 19.8278 32.0855C19.9561 32.0622 20.0777 32.018 20.2018 31.9839C20.3075 31.9547 20.4141 31.9306 20.519 31.8981C20.6115 31.8698 20.7081 31.8531 20.7997 31.8223C20.8938 31.7907 20.9904 31.7624 21.0854 31.7365C21.2378 31.6949 21.3902 31.6516 21.5417 31.6075C21.5767 31.5975 21.61 31.5816 21.6475 31.5875C21.7041 31.5958 21.7349 31.5666 21.7641 31.5125C21.7441 31.4967 21.7266 31.4784 21.7066 31.4667C21.6025 31.4092 21.4984 31.3526 21.3927 31.2977C21.301 31.2502 21.2144 31.1952 21.1228 31.1486C21.072 31.1228 21.0196 31.0953 20.9713 31.0628C20.8688 30.9945 20.7581 30.9395 20.654 30.8754C20.5723 30.8255 20.4807 30.7896 20.4 30.7372C20.3483 30.703 20.2917 30.6789 20.2392 30.6472C20.1151 30.5723 19.9911 30.4957 19.862 30.429C19.8395 30.4174 19.8162 30.4049 19.7945 30.3924C19.6854 30.3291 19.578 30.2641 19.4681 30.2025C19.3898 30.1584 19.3032 30.1267 19.2307 30.0759C19.1791 30.0393 19.1233 30.016 19.0708 29.9835C18.9875 29.9327 18.9084 29.8761 18.8218 29.8319C18.6869 29.7628 18.5561 29.6878 18.4254 29.6112C18.3254 29.5529 18.2238 29.4946 18.1247 29.4355C18.1039 29.423 18.0948 29.4039 18.0939 29.3755C18.0898 29.179 18.1114 28.9808 18.0739 28.7851C18.0739 27.6283 18.0739 26.4724 18.0739 25.3156C18.0739 25.2898 18.0664 25.264 18.0881 25.2382C18.1081 25.214 18.0956 25.1857 18.0698 25.1691C18.0431 25.1524 18.019 25.1599 17.999 25.184C17.9607 25.2307 17.924 25.279 17.8807 25.3215C17.5285 25.6729 17.1753 26.0227 16.8222 26.3733C16.5449 26.6481 16.2693 26.9246 15.9903 27.1978C15.9378 27.2486 15.9436 27.2719 15.9911 27.321C16.1002 27.4334 16.2268 27.5301 16.3159 27.6608C16.3625 27.6675 16.3559 27.7299 16.3958 27.7391C16.4367 27.7491 16.4566 27.7807 16.4825 27.8065C16.978 28.2979 17.4727 28.7893 17.9682 29.2814C17.9832 29.2964 18.0032 29.3081 18.0115 29.3256C18.0281 29.3622 18.0681 29.3872 18.0756 29.4372C16.7098 29.4372 15.3523 29.4372 13.994 29.438C13.9757 29.438 13.9582 29.4522 13.9399 29.4572C13.9299 29.4597 13.9191 29.4572 13.9091 29.4572C13.8816 29.4572 13.8533 29.4572 13.8258 29.4572C13.8225 29.4572 13.8192 29.4555 13.8167 29.4538C13.8142 29.4522 13.8117 29.4488 13.8092 29.4463V29.3839C13.8383 29.3547 13.8675 29.3264 13.8974 29.2973C13.9266 29.2681 13.9574 29.2398 13.9857 29.2098C14.0149 29.1782 14.0557 29.1549 14.0665 29.109C14.1123 29.1032 14.1323 29.0632 14.1606 29.0358C14.3755 28.8184 14.5995 28.6102 14.8019 28.3812C14.9726 28.1888 15.1691 28.0222 15.3399 27.8282C15.5139 27.6308 15.7071 27.4509 15.8937 27.2611C15.8653 27.2336 15.842 27.2094 15.8179 27.1861C15.1783 26.5507 14.5387 25.9161 13.8991 25.2798C13.8708 25.2523 13.8375 25.229 13.8233 25.1874C13.8142 25.1607 13.7833 25.1532 13.7467 25.1666L13.7459 25.1707ZM15.9536 33.1506C15.9778 33.1748 15.9878 33.1898 16.0011 33.1973C16.0977 33.2472 16.196 33.2939 16.2934 33.3447C16.345 33.3713 16.395 33.4013 16.4441 33.4321C16.4941 33.4629 16.5391 33.5037 16.5907 33.5296C16.7323 33.5995 16.8622 33.6895 17.0013 33.7644C17.1287 33.8327 17.2536 33.9093 17.3777 33.9851C17.4327 34.0184 17.4926 34.0426 17.5476 34.075C17.6567 34.1392 17.7625 34.2075 17.8716 34.2708C17.9407 34.3107 18.019 34.3374 18.0848 34.3824C18.2613 34.5031 18.4537 34.5964 18.6352 34.708C18.7035 34.7496 18.7802 34.7813 18.8443 34.8279C18.9134 34.8779 18.9925 34.9062 19.0641 34.9528C19.1416 35.0036 19.2257 35.0461 19.3057 35.0944C19.3848 35.1427 19.4714 35.1818 19.5472 35.236C19.5763 35.2568 19.618 35.226 19.6396 35.2643C19.6471 35.2585 19.6588 35.2535 19.6604 35.246C19.6654 35.2285 19.6746 35.2052 19.6679 35.191C19.6471 35.146 19.6454 35.0944 19.6263 35.0536C19.6071 35.0136 19.6304 34.9537 19.5747 34.9287C19.568 34.9262 19.5722 34.9037 19.5688 34.8912C19.5588 34.8462 19.548 34.8021 19.5455 34.7554C19.543 34.7121 19.523 34.6697 19.5055 34.628C19.4764 34.5564 19.4672 34.479 19.4447 34.4057C19.4139 34.3082 19.3889 34.2083 19.3606 34.11C19.3481 34.0676 19.3248 34.0259 19.3215 33.9826C19.3181 33.9426 19.3132 33.9027 19.2973 33.8677C19.274 33.8177 19.2632 33.7644 19.2424 33.7153C19.2307 33.687 19.234 33.6578 19.2257 33.6295C19.2082 33.5712 19.1857 33.5137 19.1749 33.4538C19.1632 33.3863 19.1441 33.323 19.1216 33.2589C19.0891 33.169 19.0492 33.0782 19.0483 32.9791C19.0483 32.9608 19.0375 32.9424 19.0308 32.9249C19.0233 32.9041 19.0117 32.8833 19.0083 32.8625C18.9917 32.7509 18.9459 32.646 18.9234 32.536C18.9134 32.4902 18.8901 32.4469 18.8718 32.3994C18.8326 32.3994 18.7843 32.387 18.746 32.4019C18.6736 32.4294 18.5994 32.4503 18.5262 32.4719C18.4362 32.4977 18.3438 32.5152 18.2538 32.5419C18.1797 32.5635 18.1031 32.5777 18.029 32.601C17.9607 32.6218 17.8924 32.6501 17.8183 32.6451C17.8041 32.6443 17.7883 32.656 17.7741 32.6618C17.7533 32.6701 17.7325 32.6809 17.7108 32.6851C17.5984 32.7043 17.491 32.7409 17.3819 32.7709C17.3253 32.7859 17.272 32.8092 17.2112 32.8117C17.1703 32.8134 17.1304 32.8325 17.0904 32.845C16.9788 32.8775 16.8672 32.91 16.7539 32.9349C16.6657 32.9541 16.5791 32.9816 16.4924 33.0057C16.43 33.0232 16.3692 33.0524 16.3067 33.0557C16.186 33.0624 16.0794 33.1048 15.9536 33.154V33.1506Z" fill="#084BA7"/>
<path d="M26.1838 35.2651V35.1585C26.1838 32.5635 26.1838 29.9685 26.1838 27.3735C26.1838 27.2494 26.1846 27.2502 26.0597 27.2502C24.5832 27.2502 23.1066 27.2502 21.63 27.2502H21.5259V25.0824C21.6184 25.0824 21.7142 25.0674 21.8024 25.0866C21.9115 25.1107 22.0198 25.1024 22.1272 25.1024C25.7732 25.1041 29.4192 25.1032 33.0653 25.1041C33.1502 25.1041 33.2301 25.0733 33.3168 25.0808C33.4025 25.0883 33.49 25.0824 33.5799 25.0824C33.6107 25.3198 33.5633 25.5555 33.5658 25.7928C33.5683 26.0368 33.5658 26.2817 33.5658 26.5257V27.251H33.4583C31.9926 27.251 30.526 27.251 29.0603 27.251C29.0212 27.251 28.9762 27.2361 28.9487 27.2835V32.0821C28.9079 32.4227 28.9329 32.765 28.9287 33.1065C28.9246 33.4538 28.9279 33.8019 28.9279 34.1491V35.1818C28.9279 35.196 28.9329 35.2118 28.9271 35.2226C28.9179 35.2385 28.9046 35.2568 28.8887 35.2626C28.8704 35.2693 28.8479 35.2643 28.8271 35.2643H26.183L26.1838 35.2651Z" fill="#084BA7"/>
<path d="M46.9896 35.286C46.9862 35.2493 46.9454 35.2252 46.9812 35.1843C46.9971 35.1669 46.9837 35.1244 46.9837 35.0936V25.0825C47.077 25.0825 47.1686 25.0683 47.2544 25.085C47.4285 25.1191 47.6025 25.0999 47.7766 25.1016C48.2513 25.1058 48.726 25.1041 49.2015 25.1016C49.2748 25.1016 49.3481 25.0858 49.4213 25.0825C49.4938 25.0791 49.5671 25.0825 49.6395 25.0825H49.7078V25.1857C49.7078 28.5111 49.7078 31.8356 49.7078 35.161C49.7078 35.2818 49.7145 35.2868 49.5862 35.286C48.7235 35.2851 47.8598 35.286 46.9887 35.286H46.9896Z" fill="#084BA7"/>
</g>
<path d="M51.3615 43.3194C51.0975 43.3605 50.8326 43.3357 50.5678 43.3399C50.3003 43.3442 50.0329 43.3408 49.7654 43.3408H48.9631C48.9417 43.3408 48.9203 43.3408 48.8988 43.3408C48.8525 43.3425 48.8397 43.3571 48.8354 43.4025C48.8251 43.5131 48.8465 43.6185 48.8868 43.7214C48.904 43.7642 48.9185 43.808 48.9323 43.8517C48.9503 43.9108 48.9923 43.9563 49.03 44.0025C49.156 44.1594 49.3077 44.2768 49.5134 44.3214C49.6643 44.354 49.8152 44.33 49.9652 44.3403C50.062 44.3068 50.1606 44.2768 50.248 44.2237C50.3715 44.1483 50.4555 44.0368 50.5266 43.9151C50.5498 43.8757 50.5609 43.8302 50.5763 43.7908H51.3238C51.2767 43.8971 51.2355 44 51.1866 44.0985C51.1181 44.2374 51.0341 44.3651 50.9321 44.4834C50.8129 44.6223 50.6681 44.7209 50.5052 44.7937C50.3638 44.8572 50.2103 44.8923 50.0629 44.9394C49.9206 44.9857 49.7817 44.9712 49.6403 44.9754C49.5974 44.9772 49.5537 44.96 49.51 44.9566C49.4637 44.9532 49.4131 44.9677 49.372 44.9532C49.2657 44.9172 49.156 44.894 49.0506 44.8529C48.9331 44.8066 48.8354 44.7329 48.7317 44.6686C48.6237 44.6017 48.5354 44.5091 48.454 44.4131C48.3545 44.2966 48.2774 44.1637 48.2157 44.0231C48.1514 43.8783 48.0931 43.7325 48.0622 43.5757C48.0528 43.5285 48.0442 43.4822 48.0442 43.4351C48.0442 43.2654 48.0459 43.0948 48.0434 42.9251C48.0425 42.8522 48.0579 42.7845 48.0811 42.7168C48.0897 42.6911 48.0837 42.6619 48.0879 42.6345C48.0922 42.6088 48.0991 42.5822 48.1094 42.5582C48.1617 42.4305 48.1865 42.2933 48.2577 42.1725C48.3074 42.0885 48.3545 42.0036 48.4222 41.9316C48.4625 41.8887 48.4951 41.839 48.5371 41.7987C48.7008 41.6402 48.892 41.5202 49.1011 41.4327C49.1946 41.3933 49.2957 41.3556 49.4029 41.3607C49.4097 41.3607 49.4183 41.3633 49.4243 41.3607C49.5546 41.2861 49.6986 41.3144 49.834 41.3239C49.9446 41.3316 50.0577 41.3599 50.1666 41.3933C50.272 41.4259 50.3689 41.473 50.4658 41.5219C50.566 41.5724 50.6603 41.6299 50.7409 41.7096C50.7675 41.7353 50.8043 41.7516 50.8292 41.7782C50.9749 41.9342 51.0949 42.1082 51.1849 42.301C51.2235 42.3842 51.2355 42.4776 51.2758 42.5616C51.2818 42.5728 51.2758 42.5899 51.2775 42.6036C51.2835 42.6439 51.2638 42.6868 51.2912 42.7253C51.3152 42.7596 51.2835 42.8051 51.3178 42.8428C51.3332 42.8599 51.3204 42.9019 51.3384 42.9328C51.3392 42.8994 51.3384 42.8659 51.3427 42.8333C51.3435 42.8239 51.3564 42.8145 51.3632 42.8059V43.3159L51.3615 43.3194ZM50.5883 42.8093C50.6029 42.7091 50.548 42.6276 50.542 42.5376C50.4615 42.3765 50.374 42.2205 50.2317 42.103C50.1906 42.0687 50.1469 42.0345 50.098 42.0139C50.0217 41.9822 49.942 41.9453 49.8623 41.9419C49.7483 41.9367 49.6343 41.929 49.5177 41.9556C49.342 41.995 49.204 42.0885 49.0746 42.2016C49.0668 42.2085 49.0574 42.2153 49.0523 42.2239C49.0231 42.277 48.9811 42.3225 48.9477 42.373C48.916 42.4219 48.9057 42.4828 48.8783 42.5351C48.8311 42.6242 48.8303 42.7151 48.8405 42.8102H50.5883V42.8093Z" fill="#084BA7"/>
<path d="M33.1197 43.2783H33.9983C33.9983 43.3254 34.0034 43.3708 33.9974 43.4154C33.9854 43.5071 34.0086 43.5937 34.0472 43.6717C34.1037 43.7891 34.1569 43.9126 34.2649 43.9966C34.402 44.1046 34.5503 44.1851 34.7218 44.2366C34.9335 44.3 35.1461 44.3009 35.3604 44.294C35.4598 44.2906 35.5601 44.2666 35.6544 44.2314C35.7881 44.1817 35.915 44.12 36.0118 44.0103C36.0598 43.9563 36.1001 43.8654 36.143 43.7883C36.1927 43.6991 36.1901 43.6074 36.1798 43.5174C36.1653 43.3803 36.1172 43.2525 36.0204 43.148C35.9715 43.0957 35.9081 43.0674 35.8412 43.04C35.6732 42.9705 35.4992 42.9191 35.3261 42.8642C35.2318 42.8342 35.1349 42.8077 35.0372 42.7854C34.9241 42.7597 34.8083 42.7434 34.7029 42.6894C34.6969 42.6868 34.6909 42.6808 34.6849 42.6808C34.546 42.6825 34.4286 42.6122 34.3009 42.5745C34.2057 42.5462 34.1115 42.5179 34.024 42.4682C33.9066 42.4005 33.7874 42.3362 33.6923 42.2376C33.6271 42.1699 33.5491 42.1125 33.5037 42.0285C33.4583 41.9445 33.4154 41.8596 33.3794 41.7713C33.364 41.7319 33.3914 41.6813 33.3563 41.6428C33.3717 41.5656 33.3306 41.4945 33.334 41.4173C33.3374 41.3393 33.322 41.2587 33.3383 41.1842C33.3588 41.0916 33.382 40.999 33.4137 40.9081C33.4891 40.6947 33.6434 40.5447 33.8037 40.3998C33.8852 40.327 33.9803 40.2627 34.0797 40.2164C34.2135 40.1538 34.3506 40.0947 34.498 40.0638C34.5846 40.045 34.672 40.033 34.7578 40.0175C34.8563 39.9995 34.9523 40.0064 35.0492 40.0021C35.1452 39.9978 35.2421 40.0013 35.3381 40.0021C35.3518 40.0021 35.3741 39.9978 35.3792 40.0047C35.4084 40.0458 35.4487 40.0441 35.4915 40.0458C35.5284 40.0475 35.5644 40.0647 35.6004 40.0647C35.7178 40.0664 35.8215 40.1153 35.9287 40.1513C36.0332 40.1864 36.1275 40.2404 36.2201 40.2996C36.257 40.3227 36.2964 40.3441 36.329 40.3724C36.4164 40.4478 36.5073 40.5207 36.5844 40.6064C36.7061 40.741 36.7858 40.9021 36.8433 41.0736C36.8467 41.083 36.8467 41.0942 36.8467 41.1044C36.8459 41.2004 36.8639 41.2922 36.8879 41.3847C36.899 41.4276 36.8896 41.4765 36.8896 41.5227C36.8039 41.5382 36.3144 41.5425 36.0538 41.5296C36.0718 41.4156 36.0238 41.3136 35.993 41.2073C35.9792 41.1593 35.951 41.1233 35.9252 41.0864C35.8455 40.9716 35.7495 40.8704 35.6192 40.8121C35.5258 40.7701 35.4315 40.7256 35.3235 40.7247C35.2909 40.7247 35.2566 40.7161 35.2258 40.7041C35.1195 40.6621 35.0072 40.6741 34.9035 40.6887C34.7775 40.7067 34.6515 40.7419 34.5332 40.7993C34.4466 40.8413 34.3643 40.8841 34.2983 40.9527C34.216 41.0376 34.162 41.137 34.1706 41.2613C34.1732 41.2965 34.1732 41.3325 34.1706 41.3676C34.1612 41.4842 34.216 41.5767 34.288 41.659C34.3695 41.7525 34.4689 41.8185 34.5898 41.8579C34.6455 41.8759 34.6978 41.9076 34.7578 41.917C34.8143 41.9256 34.8692 41.9453 34.9206 41.9633C35.0269 42.0011 35.1392 42.0165 35.2455 42.0559C35.3072 42.0791 35.3741 42.0885 35.4384 42.1065C35.5601 42.1408 35.6835 42.1673 35.8035 42.2068C35.8952 42.2368 35.9912 42.2531 36.0838 42.2788C36.131 42.2916 36.179 42.3079 36.2235 42.3294C36.3701 42.4005 36.5098 42.4794 36.6264 42.5977C36.7164 42.6894 36.803 42.7828 36.8673 42.8925C36.9359 43.01 36.9933 43.1342 36.9976 43.2748C37.037 43.3391 37.0147 43.4103 37.0181 43.4788C37.0216 43.5491 37.0301 43.6228 37.0164 43.6906C36.9924 43.8071 36.9924 43.928 36.9359 44.0394C36.8819 44.1457 36.8201 44.2469 36.7619 44.3497C36.755 44.3617 36.7421 44.3703 36.7318 44.3797C36.6916 44.42 36.6427 44.4552 36.6144 44.5023C36.5887 44.5452 36.5218 44.5494 36.521 44.6103C36.4121 44.6609 36.3273 44.7483 36.2098 44.7886C36.1224 44.8186 36.0375 44.858 35.9484 44.8786C35.8507 44.9 35.7581 44.9378 35.6595 44.9592C35.5901 44.9746 35.5207 44.9652 35.4538 44.9789C35.2575 45.0192 35.0595 44.9875 34.8632 44.9978C34.8221 44.9995 34.7835 44.9943 34.7423 44.9798C34.6763 44.9566 34.6052 44.9463 34.5358 44.9352C34.4166 44.9155 34.3026 44.8855 34.1903 44.84C34.018 44.7706 33.8672 44.6686 33.7163 44.5623C33.5911 44.474 33.5114 44.3523 33.4214 44.2366C33.3623 44.1611 33.3168 44.0729 33.2774 43.988C33.2466 43.9211 33.202 43.8543 33.1917 43.7797C33.1814 43.706 33.1514 43.6331 33.1634 43.5568C33.1651 43.5465 33.1686 43.532 33.1634 43.526C33.1017 43.4548 33.1257 43.3691 33.1205 43.2791L33.1197 43.2783Z" fill="#084BA7"/>
<path d="M29.0749 43.7865C29.0723 43.8268 29.0714 43.8534 29.056 43.8842C29.0054 43.9905 28.9617 44.1002 28.9051 44.2048C28.858 44.2905 28.8014 44.3685 28.7449 44.4474C28.6609 44.564 28.5434 44.6368 28.4294 44.7157C28.3437 44.7748 28.2511 44.8185 28.1525 44.8477C28.0703 44.8717 27.9914 44.9094 27.904 44.9214C27.8834 44.924 27.8585 44.9308 27.8354 44.9343C27.8217 44.936 27.8011 44.9334 27.796 44.9411C27.76 44.9925 27.7077 44.9754 27.6605 44.9763C27.5748 44.978 27.4891 44.9728 27.4034 44.978C27.2748 44.9848 27.1556 44.9505 27.0322 44.9205C26.8325 44.8725 26.6628 44.7723 26.499 44.66C26.3122 44.5314 26.169 44.3617 26.0602 44.1637C25.995 44.0454 25.9367 43.9245 25.9007 43.7934C25.8759 43.7033 25.8407 43.6159 25.8416 43.5199C25.8416 43.5036 25.8416 43.4822 25.8322 43.4711C25.791 43.4239 25.7996 43.3682 25.7987 43.3142C25.7987 43.201 25.8013 43.087 25.797 42.9739C25.7953 42.9173 25.8099 42.8659 25.8253 42.8145C25.8416 42.7604 25.857 42.7064 25.8639 42.649C25.8759 42.547 25.9033 42.4459 25.9505 42.3559C26.0156 42.2299 26.0653 42.0944 26.1622 41.9856C26.1776 41.9684 26.187 41.9453 26.2033 41.9281C26.2402 41.8896 26.2848 41.857 26.3148 41.8141C26.3422 41.7738 26.3833 41.7533 26.4142 41.7198C26.4999 41.6255 26.6079 41.5595 26.7202 41.5038C26.8531 41.4378 26.9953 41.395 27.1411 41.3572C27.2825 41.3212 27.4222 41.323 27.5637 41.3204C27.6065 41.3204 27.6614 41.3041 27.6888 41.3247C27.7265 41.3521 27.7771 41.3195 27.8028 41.3632C27.8945 41.3547 27.9717 41.4035 28.054 41.4275C28.0917 41.4387 28.1328 41.449 28.1637 41.4704C28.2486 41.5304 28.3463 41.5707 28.4251 41.641C28.4834 41.6933 28.5537 41.7318 28.6094 41.7858C28.6703 41.8458 28.72 41.917 28.7749 41.9821C28.8726 42.0978 28.9266 42.2376 28.9883 42.3721C29.0329 42.469 29.062 42.5702 29.0749 42.6764C29.0792 42.7159 29.0783 42.763 29.0989 42.793C29.122 42.8273 29.1169 42.859 29.1169 42.8925C29.1186 43.045 29.1169 43.1968 29.1169 43.357C28.9763 43.3639 28.8349 43.3562 28.6934 43.3613C28.5563 43.3665 28.4226 43.3305 28.2845 43.3373C28.1423 43.345 27.9991 43.339 27.8568 43.339H26.5882C26.5993 43.3965 26.5693 43.4531 26.6122 43.5019C26.5959 43.5979 26.6465 43.6768 26.6748 43.7625C26.7108 43.8696 26.7639 43.9639 26.8419 44.0445C26.9345 44.1414 27.0305 44.2322 27.1616 44.2785C27.2414 44.3068 27.3185 44.3385 27.4042 44.3377C27.4831 44.3377 27.5611 44.3334 27.6399 44.3377C27.7822 44.3462 27.9022 44.2854 28.0205 44.2228C28.1448 44.1568 28.222 44.0394 28.2991 43.9262C28.3154 43.9031 28.3223 43.8705 28.3248 43.8414C28.3283 43.7951 28.3531 43.7839 28.3943 43.7839C28.5297 43.7848 28.6651 43.7839 28.8006 43.7839H29.0749V43.7865ZM28.3437 42.805C28.3548 42.715 28.3317 42.6362 28.3077 42.553C28.2546 42.3696 28.1448 42.2273 28.0085 42.1039C27.9614 42.061 27.9031 42.0241 27.8397 41.9993C27.7162 41.9521 27.5911 41.9281 27.4591 41.9358C27.3939 41.9401 27.3296 41.9333 27.2645 41.9564C27.1702 41.989 27.0811 42.031 26.9954 42.0798C26.9542 42.103 26.9174 42.1356 26.8831 42.1699C26.8471 42.2059 26.8136 42.2461 26.7845 42.2881C26.7313 42.3636 26.6833 42.4416 26.6533 42.5316C26.6413 42.5667 26.6473 42.607 26.6251 42.6362C26.5865 42.6876 26.589 42.7433 26.595 42.805H28.3437Z" fill="#084BA7"/>
<path d="M39.8967 43.7865C40.0938 43.7865 40.2936 43.7873 40.4924 43.7856C40.5224 43.7856 40.5447 43.795 40.5696 43.8079C40.6201 43.8353 40.6201 43.837 40.6021 43.8945C40.5499 44.059 40.4736 44.2125 40.3733 44.3531C40.2798 44.4833 40.1684 44.6008 40.0338 44.6891C39.9353 44.7542 39.8315 44.8142 39.7158 44.8502C39.6721 44.8639 39.6275 44.8794 39.5838 44.8922C39.5392 44.9059 39.4955 44.9222 39.4501 44.9308C39.3901 44.9428 39.3284 44.9565 39.2684 44.9539C39.2169 44.9514 39.1758 44.9797 39.1269 44.9779C39.0807 44.9762 39.0344 44.9805 38.9881 44.9771C38.9375 44.9737 38.8869 44.9608 38.8364 44.9574C38.7866 44.9539 38.7326 44.9685 38.6872 44.9548C38.5003 44.8982 38.3143 44.8434 38.148 44.7328C38.0032 44.6368 37.8806 44.5185 37.7675 44.3908C37.65 44.2588 37.5763 44.0985 37.5052 43.9365C37.4606 43.8353 37.4477 43.7273 37.4032 43.627C37.3929 43.603 37.3989 43.5704 37.4023 43.543C37.4066 43.5036 37.3946 43.4693 37.3791 43.435C37.3723 43.4204 37.3603 43.405 37.3603 43.3904C37.3586 43.2807 37.3474 43.1693 37.3637 43.0613C37.3766 42.9781 37.3732 42.8967 37.3826 42.8144C37.3972 42.6858 37.4229 42.5564 37.4717 42.4373C37.5043 42.3593 37.5326 42.277 37.5763 42.2041C37.6372 42.1038 37.6946 42.0001 37.7786 41.9144C37.8223 41.8698 37.8549 41.8149 37.9012 41.7747C38.0358 41.6564 38.1772 41.5441 38.3418 41.4729C38.4566 41.4232 38.5783 41.3898 38.7018 41.3589C38.8364 41.3246 38.9684 41.3281 39.1029 41.3204C39.2392 41.3118 39.3661 41.3546 39.4921 41.3898C39.6772 41.4412 39.8281 41.5269 39.961 41.6229C40.135 41.7489 40.2824 41.9041 40.4016 42.0867C40.4693 42.1904 40.5104 42.3044 40.567 42.4124C40.5687 42.415 40.5713 42.4184 40.5713 42.421C40.5567 42.5187 40.6133 42.6053 40.6167 42.7013C40.6184 42.751 40.6416 42.7998 40.6356 42.8521C40.6356 42.8556 40.6339 42.8616 40.6356 42.8624C40.7102 42.919 40.6724 42.9987 40.6767 43.0681C40.6819 43.1633 40.6784 43.2593 40.6784 43.363H40.5841C40.4376 43.363 40.2893 43.3784 40.1461 43.3596C39.9413 43.333 39.7381 43.3467 39.5341 43.3424C39.3241 43.3382 39.1132 43.3416 38.9024 43.3416H38.2818C38.2569 43.3416 38.232 43.3416 38.2072 43.3416C38.1729 43.3416 38.1532 43.3622 38.1549 43.3922C38.1583 43.4359 38.1438 43.4779 38.1703 43.5242C38.1918 43.561 38.1746 43.615 38.1935 43.663C38.2449 43.7967 38.2998 43.9245 38.3898 44.0402C38.4421 44.107 38.4978 44.1662 38.5672 44.2065C38.6315 44.2442 38.7052 44.2699 38.7729 44.3025C38.8501 44.3402 38.9246 44.3411 39.0035 44.3411C39.0395 44.3411 39.0747 44.3411 39.1107 44.3411C39.1784 44.3411 39.2504 44.3548 39.3129 44.3368C39.3721 44.3205 39.427 44.2879 39.4904 44.2742C39.5272 44.2665 39.559 44.2348 39.5924 44.2125C39.679 44.1559 39.793 44.035 39.8435 43.9382C39.8658 43.8945 39.8778 43.8456 39.8984 43.7873L39.8967 43.7865ZM39.907 42.8067C39.907 42.7476 39.8993 42.6978 39.8898 42.6473C39.8778 42.5838 39.8607 42.5247 39.8324 42.4681C39.7201 42.2495 39.7038 42.2461 39.547 42.0987C39.4338 41.9924 39.2932 41.953 39.1441 41.9375C39.0909 41.9315 39.0369 41.9418 38.9838 41.9358C38.8586 41.9212 38.7515 41.977 38.6461 42.0241C38.5329 42.0755 38.4326 42.1561 38.3598 42.2564C38.3203 42.3104 38.2758 42.3635 38.2535 42.4355C38.2338 42.5007 38.214 42.5693 38.1866 42.6301C38.1592 42.6901 38.1498 42.7433 38.1549 42.8067H39.9078H39.907Z" fill="#084BA7"/>
<path d="M44.6601 43.7445C44.9121 43.7445 45.1573 43.7445 45.4033 43.7445C45.4573 43.7445 45.4719 43.7591 45.4736 43.8097C45.4813 43.9922 45.5902 44.1328 45.7239 44.2134C45.8225 44.2734 45.9322 44.2974 46.0376 44.3351C46.0505 44.3394 46.065 44.3394 46.0788 44.3394C46.1893 44.3394 46.3025 44.3531 46.4096 44.336C46.5562 44.312 46.7062 44.294 46.8331 44.1954C46.8948 44.1474 46.9282 44.0865 46.9711 44.0282C47.0062 43.9811 46.9951 43.9219 46.9925 43.8679C46.9899 43.8165 46.9625 43.7711 46.9291 43.7359C46.8751 43.6776 46.8194 43.6202 46.7516 43.5748C46.7053 43.5439 46.6548 43.5294 46.6059 43.5131C46.5785 43.5036 46.5476 43.5002 46.5193 43.4899C46.4559 43.4676 46.3942 43.4462 46.3239 43.4419C46.2639 43.4376 46.1988 43.4179 46.1388 43.4008C46.0719 43.3819 45.9982 43.3879 45.9365 43.3468C45.9167 43.3331 45.8816 43.3451 45.8542 43.3408C45.8285 43.3365 45.8027 43.3279 45.777 43.3202C45.6536 43.2842 45.5284 43.2542 45.4076 43.2045C45.2901 43.1556 45.1804 43.0965 45.0741 43.0262C45.0013 42.9782 44.9524 42.9156 44.9053 42.8496C44.8667 42.7965 44.8453 42.7313 44.8084 42.6773C44.7707 42.6225 44.7827 42.5539 44.7467 42.4999C44.7373 42.4853 44.745 42.4587 44.745 42.4373C44.745 42.349 44.7501 42.2599 44.7433 42.1716C44.739 42.121 44.7536 42.073 44.7716 42.0336C44.817 41.9341 44.865 41.8321 44.9438 41.7541C45.0116 41.6881 45.0913 41.6324 45.1693 41.5767C45.2756 41.5013 45.3964 41.4524 45.5199 41.4164C45.6064 41.3915 45.693 41.3555 45.7873 41.3624C45.801 41.3633 45.8233 41.3667 45.8285 41.3598C45.8765 41.293 45.9459 41.3238 46.005 41.3213C46.1156 41.317 46.2262 41.3195 46.3368 41.3204C46.395 41.3204 46.4551 41.3101 46.5048 41.3547C46.5116 41.3607 46.5236 41.3633 46.5331 41.3624C46.6385 41.353 46.7311 41.4001 46.8271 41.4275C46.9711 41.4678 47.1057 41.5493 47.2137 41.6316C47.2745 41.6787 47.3285 41.7318 47.3851 41.7833C47.4622 41.8527 47.5102 41.9444 47.5462 42.0361C47.5762 42.1116 47.6208 42.1862 47.62 42.2719C47.6542 42.3053 47.6268 42.3439 47.6388 42.3816H46.8245C46.8159 42.3499 46.8108 42.3173 46.7988 42.2873C46.7533 42.1699 46.6771 42.079 46.5622 42.0224C46.5356 42.0096 46.5099 41.983 46.4833 41.9821C46.401 41.9796 46.3333 41.9179 46.2433 41.935C46.1748 41.9487 46.101 41.9359 46.0299 41.9384C45.8936 41.9427 45.7642 41.9761 45.6467 42.0456C45.5662 42.0927 45.513 42.1562 45.5139 42.2607C45.5139 42.3447 45.543 42.4039 45.6013 42.4604C45.6784 42.5359 45.7642 42.5847 45.8662 42.6233C45.9399 42.6516 46.0162 42.6739 46.0899 42.7013C46.1645 42.7287 46.2433 42.7527 46.3205 42.763C46.4619 42.781 46.5948 42.8282 46.7336 42.8548C46.8296 42.8736 46.9222 42.9148 47.0156 42.9473C47.0842 42.9713 47.1545 42.9953 47.2179 43.0253C47.3482 43.087 47.4665 43.1659 47.5591 43.2876C47.638 43.3913 47.6765 43.5096 47.7357 43.6202C47.7434 43.6339 47.7434 43.6536 47.7434 43.6699C47.7434 43.7445 47.7408 43.8191 47.7443 43.8928C47.7511 44.0359 47.7005 44.162 47.6371 44.2854C47.5951 44.3668 47.5522 44.4482 47.4777 44.5065C47.4374 44.5374 47.4151 44.5845 47.3748 44.6154C47.3371 44.6445 47.3011 44.6771 47.2599 44.7003C47.1794 44.7457 47.0971 44.7885 47.0131 44.8271C46.9719 44.8468 46.9248 44.8546 46.8819 44.8708C46.8382 44.8871 46.7919 44.8991 46.7482 44.9068C46.6916 44.9171 46.6342 44.924 46.5768 44.9343C46.5408 44.9403 46.5048 44.9506 46.4679 44.9548C46.4328 44.9583 46.3942 44.948 46.3616 44.9566C46.2125 44.9977 46.0599 44.9754 45.9099 44.9728C45.8259 44.9711 45.7402 44.9463 45.657 44.9163C45.5327 44.8708 45.4084 44.8297 45.291 44.7663C45.1419 44.6857 45.0107 44.5897 44.9087 44.4517C44.8521 44.3754 44.8067 44.2957 44.7587 44.2151C44.7158 44.144 44.715 44.0557 44.6618 43.9888C44.6567 43.9819 44.6601 43.9682 44.6601 43.9579C44.6601 43.8877 44.6601 43.8182 44.6601 43.7436V43.7445Z" fill="#084BA7"/>
<path d="M31.8366 44.8708V44.7611C31.8366 44.0737 31.8366 43.3862 31.8366 42.6996C31.8366 42.6027 31.8041 42.5093 31.8126 42.4107C31.8152 42.3824 31.7852 42.3524 31.7724 42.3224C31.7321 42.2282 31.6781 42.1442 31.6009 42.073C31.5332 42.0104 31.4543 41.983 31.3695 41.9581C31.2452 41.9213 31.1175 41.9299 30.9932 41.9419C30.904 41.9496 30.814 41.9864 30.736 42.0404C30.5603 42.1622 30.4369 42.3233 30.3743 42.5273C30.3537 42.595 30.3366 42.6636 30.3366 42.7347C30.3366 43.4436 30.3366 44.1517 30.3366 44.8657H29.5685V41.4053C29.6903 41.4053 29.8137 41.4018 29.9371 41.4061C30.0546 41.4104 30.1754 41.383 30.2929 41.431V41.9281C30.322 41.8939 30.3451 41.875 30.3563 41.851C30.4103 41.7318 30.5012 41.6453 30.6074 41.5767C30.6794 41.5304 30.7506 41.4816 30.8303 41.4447C30.934 41.3967 31.042 41.3701 31.1509 41.3401C31.2863 41.3015 31.4235 41.3273 31.5598 41.3204C31.5812 41.3195 31.6035 41.3341 31.6258 41.3401C31.7252 41.3667 31.8255 41.3855 31.9232 41.4233C32.0175 41.4601 32.1049 41.5056 32.1838 41.569C32.2155 41.5947 32.2498 41.6178 32.2807 41.6444C32.3998 41.7498 32.465 41.8913 32.537 42.0276C32.549 42.0499 32.5524 42.0799 32.5524 42.1056C32.5524 42.2084 32.6055 42.301 32.6055 42.403C32.6055 43.1899 32.6055 43.9759 32.6055 44.7628C32.6055 44.7808 32.6055 44.798 32.6055 44.816C32.6055 44.8503 32.585 44.8657 32.555 44.8691C32.5301 44.8717 32.5052 44.8691 32.4804 44.8691H31.8349L31.8366 44.8708Z" fill="#084BA7"/>
<path d="M43.3974 44.8708V44.7628C43.3974 44.0796 43.3957 43.3956 43.3991 42.7124C43.3991 42.5744 43.3562 42.4484 43.3228 42.3181C43.2911 42.193 43.2071 42.109 43.1145 42.0335C43.0682 41.9958 43.0031 41.9778 42.9431 41.9598C42.8239 41.9247 42.6988 41.9264 42.5779 41.941C42.4416 41.9572 42.3139 42.0087 42.2085 42.1055C42.0996 42.2067 42.0122 42.3207 41.9582 42.4596C41.9264 42.541 41.8973 42.6224 41.8973 42.7107C41.8973 43.3973 41.8973 44.0848 41.8973 44.7714V44.8674H41.131V41.4044C41.3444 41.4044 41.5579 41.4035 41.7713 41.4052C41.7996 41.4052 41.8279 41.4224 41.8579 41.4318V41.9041C41.8776 41.8878 41.8896 41.881 41.8973 41.8707C41.9513 41.8012 41.9976 41.7241 42.0593 41.6624C42.1185 41.6032 42.1913 41.5569 42.2633 41.5115C42.3842 41.4352 42.5196 41.3907 42.6542 41.3469C42.7082 41.3289 42.7673 41.3255 42.8248 41.3204C42.8779 41.3161 42.9319 41.3238 42.9851 41.3187C43.1008 41.3075 43.2062 41.3452 43.3151 41.3744C43.3854 41.3932 43.4591 41.4061 43.5242 41.4378C43.6151 41.4815 43.7025 41.5304 43.7797 41.5989C43.82 41.635 43.8731 41.6624 43.9031 41.7078C43.9597 41.7935 44.0343 41.869 44.0643 41.9701C44.0668 41.9795 44.0831 41.9873 44.0814 41.9941C44.066 42.0773 44.1157 42.1424 44.1388 42.2153C44.1448 42.2341 44.1465 42.2555 44.1465 42.2761C44.1465 43.1119 44.1465 43.9476 44.1465 44.7834C44.1465 44.7902 44.1465 44.7979 44.1465 44.8048C44.1448 44.8511 44.1294 44.8691 44.0857 44.8691C43.8577 44.8691 43.6305 44.8691 43.3965 44.8691L43.3974 44.8708Z" fill="#084BA7"/>
<path d="M19.2907 44.8709V41.527C19.2907 41.509 19.2907 41.4919 19.2907 41.4739C19.2924 41.4216 19.3061 41.4062 19.3584 41.4062C19.5401 41.4062 19.7219 41.4044 19.9044 41.4062C19.9405 41.4062 19.9756 41.4216 20.0193 41.4319V41.9102C20.0836 41.8365 20.1462 41.7833 20.183 41.7156C20.2259 41.6367 20.2996 41.6025 20.363 41.5545C20.4805 41.4662 20.6159 41.407 20.7556 41.3684C20.8662 41.3376 20.9802 41.3059 21.0994 41.3187C21.1491 41.3239 21.1996 41.323 21.2494 41.3187C21.2897 41.3153 21.3257 41.3247 21.3574 41.3436C21.3762 41.3547 21.3925 41.3624 21.4139 41.3633C21.5125 41.3676 21.7422 41.4482 21.8245 41.5073C21.888 41.5536 21.9548 41.5965 22.0105 41.6513C22.1237 41.7636 22.2154 41.8939 22.2591 42.0473C22.2848 42.1399 22.3131 42.2333 22.3131 42.3345C22.3106 43.142 22.3114 43.9494 22.3131 44.7569C22.3131 44.8709 22.3054 44.8726 22.194 44.8709C21.9874 44.8683 21.78 44.8709 21.5631 44.8709V44.7903C21.5631 44.0746 21.5631 43.3597 21.5631 42.6439C21.5631 42.5925 21.5631 42.5428 21.5434 42.4931C21.5134 42.4168 21.4997 42.3336 21.4671 42.2591C21.3994 42.1048 21.2759 42.0079 21.1156 41.9599C21.0702 41.9462 21.0248 41.9333 20.9751 41.9368C20.9151 41.941 20.8533 41.935 20.7933 41.9385C20.6331 41.9462 20.4908 42.0028 20.3733 42.1116C20.2928 42.1871 20.2087 42.2608 20.1607 42.3636C20.1307 42.4288 20.0973 42.4931 20.0716 42.5608C20.0613 42.5882 20.0647 42.6225 20.0647 42.6534C20.0647 43.3545 20.0647 44.0557 20.0647 44.7569C20.0647 44.7783 20.0647 44.7997 20.0647 44.8203C20.063 44.8829 20.0253 44.9172 19.9705 44.8889C19.9345 44.8709 19.9036 44.8726 19.8702 44.8717C19.6816 44.87 19.4921 44.8717 19.2941 44.8717L19.2907 44.8709Z" fill="#084BA7"/>
<path d="M23.7904 44.8709C23.745 44.7483 23.7013 44.6317 23.6593 44.5143C23.619 44.4029 23.5761 44.2932 23.5375 44.1817C23.4861 44.0334 23.4253 43.8869 23.3807 43.736C23.349 43.6288 23.2993 43.5277 23.265 43.4223C23.223 43.2945 23.1672 43.172 23.1244 43.0442C23.0721 42.8882 23.0215 42.7322 22.9667 42.5779C22.9324 42.4819 22.8827 42.3919 22.8561 42.2942C22.8201 42.1639 22.7575 42.0439 22.7181 41.9153C22.6915 41.8271 22.6469 41.7456 22.6187 41.6582C22.6007 41.6025 22.5784 41.5476 22.5586 41.4919C22.5364 41.4302 22.5509 41.4053 22.6109 41.4053C22.8535 41.4045 23.0961 41.4053 23.3387 41.4053C23.385 41.4053 23.403 41.4216 23.4013 41.467C23.3995 41.5142 23.4021 41.557 23.445 41.5879C23.463 41.6685 23.4844 41.7482 23.5281 41.8193C23.5358 41.8322 23.5307 41.8536 23.5307 41.8716C23.5307 41.9231 23.5444 41.9702 23.5735 42.0139C23.6267 42.0945 23.649 42.1888 23.679 42.2788C23.7116 42.3756 23.7424 42.4725 23.7716 42.5702C23.8238 42.7468 23.8941 42.9165 23.9533 43.0905C23.9481 43.1857 24.0116 43.2577 24.0364 43.3434C24.0604 43.4257 24.0776 43.5114 24.1153 43.5868C24.1359 43.628 24.1179 43.6666 24.1401 43.7051C24.1967 43.802 24.2276 43.91 24.2636 44.0154C24.267 44.0249 24.2781 44.0309 24.2927 44.0454C24.303 44.0249 24.3219 44.0069 24.321 43.9889C24.3167 43.8714 24.3647 43.7668 24.3999 43.6588C24.4427 43.5277 24.4787 43.3948 24.5353 43.268C24.5344 43.148 24.6047 43.0477 24.627 42.9328C24.6485 42.8257 24.6939 42.7202 24.7307 42.6148C24.7976 42.4219 24.8525 42.2265 24.9159 42.0328C24.9588 41.9016 25.0016 41.7696 25.041 41.6376C25.0522 41.5999 25.0676 41.5613 25.0693 41.5228C25.0719 41.4782 25.0925 41.4465 25.1165 41.4105H25.9016C25.9059 41.4387 25.9068 41.4645 25.8888 41.5005C25.7962 41.6856 25.7354 41.8836 25.6694 42.0799C25.6274 42.2042 25.5768 42.3251 25.5313 42.4485C25.5048 42.5197 25.4808 42.5908 25.4559 42.6619C25.4336 42.7271 25.4191 42.7957 25.3899 42.8582C25.3608 42.9208 25.3436 42.9877 25.3136 43.0502C25.2733 43.136 25.2493 43.2294 25.2202 43.3203C25.2022 43.3768 25.173 43.4291 25.1576 43.4857C25.1422 43.5406 25.125 43.5928 25.0993 43.6426C25.0908 43.6597 25.0882 43.6803 25.0839 43.7C25.0565 43.8054 25.0059 43.9023 24.9708 44.0043C24.9108 44.1783 24.855 44.3532 24.7899 44.5255C24.7513 44.6266 24.7127 44.7277 24.6836 44.8323C24.6767 44.8563 24.6613 44.8743 24.6313 44.8735C24.5953 44.8718 24.5602 44.8735 24.5242 44.8735H23.7878L23.7904 44.8709Z" fill="#084BA7"/>
<path d="M17.6444 40.0877C17.9179 40.0877 18.1853 40.0877 18.4528 40.0877C18.4596 40.0877 18.4656 40.0912 18.4776 40.0937V40.1855C18.4776 41.7078 18.4776 43.231 18.4776 44.7534C18.4776 44.8639 18.4768 44.8725 18.3619 44.8717C18.1587 44.8691 17.9556 44.8717 17.7524 44.8717C17.731 44.8717 17.707 44.8777 17.689 44.8699C17.6702 44.8614 17.653 44.8425 17.6436 44.8237C17.6367 44.8099 17.6419 44.7894 17.6419 44.7714C17.6419 43.2173 17.6419 41.6624 17.6419 40.1083C17.6419 40.1049 17.6419 40.1015 17.6436 40.0886L17.6444 40.0877Z" fill="#084BA7"/>
<path d="M10 54.4469H59.9999V16H10V54.4469Z" fill="#D90013"/>
<path d="M14.2927 40.576C14.1039 40.576 13.9832 40.7127 13.9832 40.8875C13.9832 41.0629 14.1544 41.1795 14.3303 41.1795H15.2138C15.7404 41.1795 16.0318 41.4802 16.0447 41.9103C16.0473 42.3719 15.7445 42.7221 15.2138 42.7221H13.4401V42.2553H14.9797C15.1901 42.2502 15.35 42.1589 15.35 41.934C15.35 41.7102 15.1901 41.6266 14.8899 41.6266H14.0843C13.8414 41.6266 13.6005 41.5451 13.4515 41.3847C13.337 41.2604 13.2813 41.081 13.273 40.9092C13.2596 40.4352 13.6278 40.1196 14.1415 40.116H15.8616V40.576M16.8952 41.4275C16.8952 40.9206 17.0066 40.116 18.1196 40.116H19.2744V40.576H18.2114C17.7369 40.576 17.6111 40.9206 17.6111 41.1949H19.293V41.655H17.6111C17.6111 41.9443 17.7369 42.2579 18.2114 42.2579H19.293V42.7144H18.1196C17.0066 42.7144 16.8952 41.9443 16.8952 41.4275ZM21.2771 40.1155L21.9326 42.1697L22.5784 40.1155H23.4593V42.7139H22.9162V40.7328L22.2813 42.7139H21.5974L20.9671 40.7328V42.7139H20.4209V40.1155M24.7002 42.6927H25.376V40.1054H24.7002V42.6927ZM26.4497 41.443C26.4497 40.6756 26.754 40.1196 27.5818 40.1196H28.7154V40.5802H27.7334C27.2965 40.5802 27.1253 40.9283 27.1253 41.443C27.1253 41.9547 27.2965 42.262 27.7334 42.262H28.7154V42.7247H27.5818C26.754 42.7247 26.4497 42.2027 26.4497 41.443ZM44.1372 41.443C44.1372 40.6756 44.4456 40.1196 45.278 40.1196H46.407V40.5802H45.4209C44.9908 40.5802 44.8216 40.9283 44.8216 41.443C44.8216 41.9547 44.9908 42.262 45.4209 42.262H46.407V42.7247H45.278C44.4456 42.7247 44.1372 42.2027 44.1372 41.443ZM30.241 41.4389C30.241 42.0202 30.4545 42.3714 31.0033 42.3714C31.5531 42.3714 31.744 42.0202 31.744 41.4389C31.744 40.8468 31.5531 40.4718 31.0033 40.4718C30.4473 40.4718 30.241 40.8468 30.241 41.4389ZM29.5865 41.4389C29.5865 40.6678 29.898 40.0613 31.0033 40.0613C32.1096 40.0613 32.399 40.5987 32.399 41.4389C32.399 42.2734 32.1138 42.7794 31.0033 42.7794C29.898 42.7794 29.5865 42.2734 29.5865 41.4389ZM34.2057 40.1196L35.4193 42.0619V40.1196H36.0433V42.7247H35.2289L33.9896 40.8179V42.7139H33.3846V40.1196M41.3046 40.149V41.7901C41.3046 42.2734 41.7234 42.3533 41.9534 42.3533C42.2763 42.3497 42.609 42.2734 42.609 41.7901V40.1448H43.2351V41.9443C43.2351 42.6303 42.592 42.8165 41.9534 42.8165C41.3129 42.8165 40.6754 42.6303 40.6754 41.9443V40.149M49.7636 40.1155V40.5755H48.8105V42.7139H48.2148V40.5755H47.2802V40.1155M54.6546 41.2862H55.4679C55.7949 41.2862 55.9682 41.1898 55.9682 40.9159C55.9682 40.6168 55.7949 40.5394 55.4679 40.5394H54.6546V41.2862ZM56.6547 40.9159C56.6547 41.2888 56.4494 41.574 56.0167 41.655L56.7295 42.7139H56.0167L55.3411 41.7024H54.6566V42.7139H54.0511V40.1155H55.8496C56.3628 40.1155 56.6547 40.4455 56.6547 40.9159ZM38.4545 42.2316H37.7768V40.5451H38.4545C38.8862 40.5451 39.0585 40.8942 39.0585 41.4069C39.0585 41.918 38.8862 42.2316 38.4545 42.2316ZM38.6062 40.0902H37.178V42.6881H38.6062C39.434 42.6881 39.7362 42.1702 39.7362 41.4069C39.7362 40.6493 39.434 40.0902 38.6062 40.0902ZM51.0174 41.3987C51.0174 41.9882 51.2361 42.3389 51.7756 42.3389C52.3311 42.3389 52.525 41.9882 52.525 41.3987C52.525 40.8102 52.3311 40.4347 51.7756 40.4347C51.2258 40.4347 51.0174 40.8102 51.0174 41.3987ZM50.3676 41.3987C50.3676 40.6353 50.6739 40.0278 51.7756 40.0278C52.8891 40.0278 53.1743 40.5683 53.1743 41.3987C53.1743 42.2368 52.8891 42.7505 51.7756 42.7505C50.6739 42.7505 50.3676 42.2368 50.3676 41.3987ZM26.3764 35.667C26.2289 35.3534 26.2083 34.9078 26.2083 34.3296L26.2098 32.0412C26.2098 31.4527 26.2258 31.0277 26.3713 30.7183C26.6694 30.072 27.3394 29.9204 28.2579 29.9204C29.2833 29.9204 29.9161 30.0664 30.1853 30.7183C30.305 31.0277 30.3003 31.4527 30.305 32.0412V34.3296C30.305 34.9027 30.3205 35.3534 30.1729 35.667C29.8625 36.2988 29.1682 36.4505 28.2579 36.4505C27.3394 36.4505 26.6771 36.3066 26.3764 35.667ZM23.7424 31.6647V34.6334C23.7424 36.764 25.0906 37.6666 28.2579 37.6666C31.4304 37.6666 32.7796 36.764 32.7796 34.6334V31.6647C32.7796 29.5408 31.4304 28.6336 28.2579 28.6336C25.0906 28.6336 23.7424 29.5408 23.7424 31.6647ZM13.4215 28.8327V37.4252H15.9292V30.4516C15.9292 30.2216 15.956 30.0127 16.3015 29.9627C16.4047 29.9441 16.9091 29.8858 17.6296 29.8858C18.4868 29.8858 18.9598 29.9627 19.328 30.2051C19.6272 30.4073 19.784 30.6775 19.786 31.3393C19.7974 31.8824 19.7221 32.3486 19.3734 32.6158C18.8798 32.9923 17.6812 32.9371 16.9452 32.9371V33.6313C16.9452 34.0981 17.0448 34.2053 17.2701 34.5014C17.3645 34.6231 19.7107 37.4252 19.7107 37.4252H22.6485L19.818 34.096C20.1976 34.0202 21.0182 33.8655 21.5278 33.4539C22.042 33.0428 22.1549 32.3306 22.1549 31.3836C22.1549 30.4408 21.9285 29.7672 21.4674 29.3804C20.8274 28.8358 19.9108 28.6336 17.4037 28.6336C15.892 28.6336 13.4215 28.8327 13.4215 28.8327ZM41.4454 28.8244V31.8267C41.4454 32.1573 41.2567 32.2718 41.0019 32.2718L37.4818 32.2759C37.2177 32.2759 37.0372 32.1753 37.0372 31.8267V28.8244H34.5069V37.4252H37.0372V34.2053C37.0372 33.8613 37.2311 33.7597 37.4818 33.7597H40.9941C41.2566 33.7597 41.4454 33.8551 41.4454 34.2053V37.4252H43.9752V28.8244M54.9243 28.9425C53.9248 28.6155 52.3316 28.6341 51.2263 28.6341C49.319 28.6341 46.979 28.778 45.9588 28.8321V37.4247H48.3669V30.3454C48.3669 30.2185 48.3948 30.0777 48.6031 30.0664C48.7919 30.0586 49.5779 30.0421 49.7734 30.0421C49.9931 30.0421 50.0385 30.1819 50.0385 30.3155V37.4221H52.4451V30.2969C52.4451 30.185 52.4822 30.0421 52.6988 30.0421C52.9876 30.0421 53.358 30.0457 53.5447 30.0854C53.8789 30.1504 54.0321 30.3021 54.1156 30.561C54.1914 30.8096 54.1888 31.1495 54.1888 31.5156V37.4247H56.5856V31.5265C56.5856 30.675 56.5319 29.4748 54.9243 28.9425Z" fill="white"/>
<defs>
<clipPath id="clip0_636_7427">
<rect width="50" height="10.3448" fill="white" transform="translate(10 25)"/>
</clipPath>
</defs>
</svg>
