<svg width="70" height="70" viewBox="0 0 70 70" fill="none" xmlns="http://www.w3.org/2000/svg">
<g clip-path="url(#clip0_215_43)">
<path fill-rule="evenodd" clip-rule="evenodd" d="M15.7535 33.6123C15.7535 32.7371 15.9285 32.4573 16.1914 32.2003C16.4543 31.9438 16.7849 31.794 17.6672 31.794H23.3429C24.203 31.794 24.5558 31.9438 24.8187 32.2003C25.0816 32.4573 25.2562 32.7812 25.2562 33.6123V37.7975C25.2562 38.5872 25.08 38.9565 24.8187 39.2095C24.5546 39.4648 24.203 39.6133 23.3429 39.6133H17.6672C16.7849 39.6133 16.4801 39.4648 16.2164 39.2095C15.9547 38.9565 15.7535 38.6751 15.7535 37.7975V33.6123ZM18.4446 37.7754H22.6381V33.5247H18.4446V37.7754Z" fill="white"/>
<path fill-rule="evenodd" clip-rule="evenodd" d="M25.9154 39.6133V31.7627L29.4029 31.7535L33.0811 36.3739C33.5169 36.9211 33.9347 37.7634 34.1573 38.2869C34.0367 37.8132 33.9303 36.8111 33.9202 36.628C33.9105 36.445 33.9048 35.9664 33.9048 35.8669V31.7631L35.9887 31.7752V39.6133H32.3912L28.4844 34.7412C28.0876 34.2466 27.9884 33.6652 27.7412 33.0478C27.7642 33.2899 27.8682 34.3497 27.8807 34.5657C27.8932 34.7821 27.8985 35.1924 27.8985 35.3526V39.6133H25.9154Z" fill="white"/>
<path fill-rule="evenodd" clip-rule="evenodd" d="M36.8951 39.6133V34.4625L39.1782 31.7258H51.2075L49.8248 33.4416H48.447V39.6133H45.872V33.4416C43.0152 33.4416 42.0729 33.436 39.1915 33.436V34.74H43.1854L43.1886 36.3595H39.1915V37.93H44.9729L43.5136 39.6133H36.8951Z" fill="white"/>
<path fill-rule="evenodd" clip-rule="evenodd" d="M10.8648 30.8847H6.94633V33.438H10.8648C11.2257 33.438 11.4721 33.3854 11.6039 33.2827C11.7358 33.1799 11.8031 32.9952 11.8031 32.7306V31.5833C11.8031 31.3247 11.7358 31.1425 11.6039 31.0401C11.4721 30.9373 11.2257 30.8847 10.8648 30.8847ZM4 40.9498V34.2072L8.44228 29.0131H12.9704C13.6809 29.0131 14.1962 29.2114 14.5156 29.4848C14.8333 29.7566 14.9922 30.1986 14.9922 30.8016V33.2802C14.9922 33.8804 14.7361 34.3188 14.4196 34.5914C14.0995 34.8664 13.0991 34.96 12.3898 34.96H10.7842C11.1297 35.017 11.5451 35.1515 11.8132 35.3638L16.1595 39.4784H11.5632L7.25601 35.123C7.11286 34.9106 7.03141 34.7372 6.94633 34.544V38.0846L4 40.9498Z" fill="white"/>
<path fill-rule="evenodd" clip-rule="evenodd" d="M66 30.971L65.9592 28.7413H63.4835L59.5553 33.375L61.7133 35.2326C61.9682 35.4518 62.3916 35.3261 62.5722 35.1077L66 30.971Z" fill="#DA251D"/>
<path fill-rule="evenodd" clip-rule="evenodd" d="M53.9264 29.5784L65.5339 39.5599H61.4646L58.4388 36.8368L56.386 39.6133H53.0929L56.2042 35.7067C56.3316 35.5469 56.6009 35.4201 56.734 35.4642L52.8502 32.1036V39.6133H50.045V34.2273L53.9264 29.5784Z" fill="white"/>
</g>
<defs>
<clipPath id="clip0_215_43">
<rect width="62" height="12.2085" fill="white" transform="translate(4 28.7413)"/>
</clipPath>
</defs>
</svg>
