<svg width="70" height="70" viewBox="0 0 70 70" fill="none" xmlns="http://www.w3.org/2000/svg">
<path d="M13.2571 31.5664H6V38.5532H8.24998V36.7305H11.7588C12.1424 36.7305 12.4539 37.042 12.4539 37.4256V38.5532H14.7039V36.6585C14.7039 36.244 14.4207 35.8965 14.0397 35.7935C14.4207 35.6879 14.7039 35.3404 14.7039 34.9285V33.0106C14.7039 32.2126 14.0577 31.5664 13.2597 31.5664H13.2571ZM12.4513 34.6685C12.4513 34.9079 12.2582 35.1036 12.0162 35.1036H8.24998V33.3633H12.0188C12.2582 33.3633 12.4539 33.5564 12.4539 33.7984V34.6711L12.4513 34.6685Z" fill="white"/>
<path d="M22.8306 31.5664H17.0795C16.0575 31.5664 15.2285 32.3953 15.2285 33.4174V36.6997C15.2285 37.7217 16.0575 38.5506 17.0795 38.5506H22.8306C23.8526 38.5506 24.6815 37.7217 24.6815 36.6997V33.4174C24.6815 32.3953 23.8526 31.5664 22.8306 31.5664ZM22.6426 36.105C22.6426 36.5014 22.3183 36.8284 21.9192 36.8284H17.9856C17.5892 36.8284 17.2622 36.504 17.2622 36.105V34.0841C17.2622 33.6877 17.5866 33.3607 17.9856 33.3607H21.9192C22.3157 33.3607 22.6426 33.6851 22.6426 34.0841V36.105Z" fill="white"/>
<path d="M43.5239 31.5664H37.7728C36.7508 31.5664 35.9219 32.3953 35.9219 33.4174V36.6997C35.9219 37.7217 36.7508 38.5506 37.7728 38.5506H43.5239C44.5459 38.5506 45.3749 37.7217 45.3749 36.6997V33.4174C45.3749 32.3953 44.5459 31.5664 43.5239 31.5664ZM43.336 36.105C43.336 36.5014 43.0116 36.8284 42.6126 36.8284H38.679C38.2825 36.8284 37.9556 36.504 37.9556 36.105V34.0841C37.9556 33.6877 38.28 33.3607 38.679 33.3607H42.6126C43.009 33.3607 43.336 33.6851 43.336 34.0841V36.105Z" fill="white"/>
<path d="M32.9738 31.5664L32.9789 31.587V36.7769L29.1792 31.5664H25.5957V38.5532H27.7324V33.3633L31.5167 38.5532H35.0513V31.5664H32.9738Z" fill="white"/>
<path d="M45.6504 31.5664V33.3993H48.9095V38.5532H50.9999V33.3993H54.259V31.5664H45.6504Z" fill="white"/>
<path d="M61.6063 31.5664V34.1253H56.9391V31.5664H54.5449V38.5532H56.9391V35.9943H61.6063V38.5532H64.0005V31.5664H61.6063Z" fill="white"/>
</svg>
