<svg width="90" height="90" viewBox="0 0 90 90" fill="none" xmlns="http://www.w3.org/2000/svg">
<path d="M54.9487 46.4419C54.9487 46.4419 57.6566 45.5916 59.4808 42.4637C60.4458 40.8231 60.9574 38.8419 60.9574 36.7373C60.9574 28.8533 54.093 26.043 47.6733 26.043C47.6733 26.043 28.5304 26.043 28.2729 26.043C28.2729 26.3023 28.2729 64.2458 28.2729 64.2458H37.9916V50.2384H45.6886C47.8532 50.2384 49.3439 51.0746 50.2437 52.7876C51.0322 54.2906 51.2633 56.2877 51.3974 58.2229L51.4521 58.8721C51.5615 60.2658 51.7855 63.1343 52.47 64.2458C52.6147 64.2458 61.4919 64.2458 62 64.2458C60.9186 62.7215 60.6822 58.4611 60.5675 56.3565L60.5304 55.7161C60.3311 53.4703 59.8707 51.5968 59.1615 50.1449C57.4379 46.7083 55.0245 46.5054 54.9487 46.4419ZM51.281 38.0869C51.281 41.1177 49.5803 42.7901 46.4913 42.7901H37.9493V33.7612H46.0644C46.0644 33.7612 51.281 33.5124 51.281 38.0869Z" fill="#E62F35"/>
</svg>
