<svg width="70" height="70" viewBox="0 0 70 70" fill="none" xmlns="http://www.w3.org/2000/svg">
<path d="M58.7109 41.4805C58.3259 41.4455 57.9128 41.2425 57.6958 40.9975C57.5348 40.8085 57.4228 40.5844 57.3738 40.3464C57.3178 40.1084 57.3318 39.9964 57.3318 37.3852C57.3318 34.2559 57.3318 34.5429 57.4998 34.0879C57.6398 33.8288 57.8498 33.6188 58.1019 33.4718C58.4589 33.2968 58.8649 33.2338 59.257 33.2898C60.118 33.3878 60.5171 33.8008 60.5941 34.6689C60.6081 34.8439 60.6151 35.852 60.6151 37.5532C60.6081 40.1504 60.6081 40.0244 60.5521 40.3394C60.4191 40.8015 60.167 41.1165 59.768 41.3195C59.509 41.4455 59.0819 41.5085 58.7109 41.4805ZM36.925 41.4805C35.3779 41.4105 34.0407 40.7805 33.0116 39.6604C32.2766 38.8763 31.7935 37.8892 31.6255 36.8321C31.5345 36.2931 31.5205 35.894 31.5345 32.4567C31.5415 28.7744 31.4995 29.1734 31.7235 28.6834C31.9195 28.2984 32.2766 28.0183 32.6966 27.9133C33.0186 27.8503 33.3477 27.8573 33.6697 27.9273C34.2157 28.0743 34.6428 28.5084 34.7758 29.0614C34.8108 29.1944 34.8178 29.5165 34.8248 32.6947L34.8388 36.1811C34.8738 36.9021 35.3218 37.5112 35.8259 37.8262C36.61 38.3792 37.7371 38.3512 38.5561 37.8682C39.2352 37.4132 39.6342 36.7411 39.7182 36.02C39.7322 35.887 39.7462 34.5779 39.7462 32.5127C39.7462 28.8584 39.7392 29.0544 39.9002 28.7184C40.1033 28.3054 40.4743 28.0043 40.9153 27.8923C41.2304 27.8363 41.5524 27.8363 41.8744 27.8923C42.1334 27.9553 42.3715 28.0883 42.5605 28.2704C42.8475 28.5364 42.9875 28.8584 43.0085 29.0964V32.7017C43.0085 36.7621 43.0155 36.5521 42.8335 37.2801C42.5465 38.4072 41.9094 39.4153 41.0203 40.1644C39.9073 41.1165 38.5491 41.5505 36.925 41.4805ZM10.7427 41.4805C10.3506 41.4455 9.93761 41.2425 9.72759 40.9975C9.58057 40.8015 9.46856 40.5844 9.40556 40.3464C9.34955 40.0804 9.36356 39.9614 9.36356 36.6291C9.36356 33.8428 9.37056 33.0168 9.39156 32.8208C9.55257 31.5466 10.0496 30.4895 10.9037 29.6005C11.9748 28.4874 13.2769 27.9063 14.852 27.8433C15.2791 27.8223 15.4891 27.8503 15.7411 27.9413C16.1402 28.1023 16.4552 28.4104 16.6232 28.8094C16.7142 29.0614 16.7562 29.3274 16.7352 29.5865C16.6932 30.2865 16.3852 30.7346 15.7971 30.9586C15.5521 31.0426 15.3071 31.0986 15.0481 31.1196C14.551 31.1826 14.306 31.2526 13.949 31.4346C13.4869 31.6587 13.1159 32.0297 12.8779 32.4777C12.8009 32.6457 12.7379 32.8208 12.6958 33.0028C12.6468 33.2968 12.6678 33.9549 12.6538 36.6291C12.6748 39.7724 12.6818 40.0104 12.5908 40.3324C12.4578 40.7945 12.2128 41.1095 11.8068 41.3125C11.5407 41.4455 11.1137 41.5085 10.7427 41.4805ZM48.728 40.5004C48.616 40.2764 44.5557 29.9715 44.4997 29.7755C44.4156 29.5165 44.4156 29.2364 44.4997 28.9774C44.6677 28.4384 45.1717 27.9833 45.7458 27.8503C46.1308 27.7663 46.6208 27.8223 46.9289 27.9833C47.1529 28.1163 47.3419 28.3054 47.4749 28.5294C47.5799 28.7044 47.5659 28.6694 49.0571 32.4637C49.6381 33.9339 50.1212 35.124 50.1212 35.117C50.1212 35.11 50.7022 33.6608 51.3953 31.9037C52.2843 29.6565 52.6834 28.6554 52.7604 28.5224C52.9564 28.1723 53.2924 27.9273 53.6845 27.8363C54.0065 27.7803 54.3355 27.7943 54.6506 27.8853C54.9236 27.9763 55.1686 28.1303 55.3646 28.3404C55.5536 28.5154 55.6866 28.7394 55.7496 28.9844C55.8267 29.2294 55.8267 29.4885 55.7496 29.7335C55.7076 29.9225 51.6753 40.1644 51.5213 40.4794C50.9262 41.9216 49.2251 41.6485 48.728 40.5004Z" fill="white"/>
<path d="M23.8268 41.5015C22.2796 41.4315 20.9495 40.8085 19.9134 39.6814C19.1853 38.8973 18.7023 37.9172 18.5273 36.8601C18.4363 36.3211 18.4293 35.922 18.4363 32.4847C18.4433 28.8024 18.4013 29.2014 18.6253 28.7044C18.8213 28.3194 19.1783 28.0393 19.6054 27.9343C19.9274 27.8713 20.2564 27.8783 20.5715 27.9483C21.1175 28.0953 21.5446 28.5294 21.6776 29.0824C21.7126 29.2154 21.7196 29.5445 21.7336 32.7158L21.7476 36.2091C21.7966 36.8811 22.1606 37.4902 22.7347 37.8542C23.5187 38.4073 24.6458 38.3863 25.4649 37.8962C25.8639 37.6582 26.179 37.3082 26.382 36.8881C26.515 36.6221 26.599 36.3351 26.627 36.041C26.641 35.908 26.648 34.5989 26.648 32.5337C26.648 28.8794 26.641 29.0684 26.802 28.7394C27.005 28.3264 27.3761 28.0253 27.8171 27.9133C28.0271 27.8503 28.5662 27.8503 28.7762 27.9133C29.0352 27.9833 29.2662 28.1093 29.4623 28.2914C29.7423 28.5574 29.8893 28.8794 29.9103 29.1174V32.7298C29.9103 36.7901 29.9173 36.5801 29.7353 37.3082C29.4482 38.4353 28.8112 39.4433 27.9221 40.1924C26.816 41.1445 25.4509 41.5785 23.8268 41.5015Z" fill="white"/>
<path d="M61 29.8245C61 30.9656 60.0759 31.8827 58.9348 31.8827C57.7937 31.8827 56.8696 30.9586 56.8696 29.8175C56.8696 28.6764 57.7937 27.7593 58.9278 27.7593C60.0759 27.7593 61 28.6834 61 29.8245Z" fill="white"/>
</svg>
