<svg width="70" height="70" viewBox="0 0 70 70" fill="none" xmlns="http://www.w3.org/2000/svg">
<g clip-path="url(#clip0_865_2289)">
<path d="M4.66669 37.1294V36.4644H6.99652V37.3103C6.99472 37.4214 7.01674 37.5316 7.0611 37.6335C7.10547 37.7354 7.17115 37.8266 7.25372 37.901C7.33629 37.9754 7.43384 38.0313 7.5398 38.0648C7.64577 38.0983 7.75768 38.1088 7.86802 38.0954C8.05651 38.121 8.24773 38.0748 8.40375 37.966C8.55977 37.8572 8.66921 37.6937 8.71035 37.508C8.77273 37.2953 8.76743 37.0684 8.69519 36.8588C8.24427 35.7248 5.1631 35.2114 4.77169 33.4439C4.692 33.0556 4.68705 32.6557 4.7571 32.2656C4.99744 30.8463 6.2446 30.333 7.79277 30.333C9.02535 30.333 10.724 30.62 10.724 32.5228V33.1423H8.55985V32.5987C8.56639 32.4915 8.54965 32.3842 8.51078 32.2841C8.47191 32.1841 8.41183 32.0936 8.33468 32.0189C8.25753 31.9443 8.16513 31.8872 8.06384 31.8516C7.96254 31.8161 7.85474 31.8029 7.74785 31.8129C7.56533 31.7928 7.38195 31.8423 7.23434 31.9516C7.08672 32.0608 6.98576 32.2217 6.9516 32.4021C6.92728 32.5527 6.93243 32.7067 6.96677 32.8553C7.22169 33.8668 10.514 34.4111 10.8751 36.2387C10.9653 36.7123 10.9703 37.1983 10.8897 37.6737C10.6791 39.1227 9.38644 39.6663 7.82369 39.6663C6.18335 39.6663 4.66669 39.0772 4.66669 37.1294ZM32.8954 37.0997V36.4347H35.1954V37.2653C35.1918 37.3755 35.212 37.4851 35.2547 37.5867C35.2973 37.6883 35.3614 37.7795 35.4426 37.854C35.5237 37.9286 35.62 37.9847 35.7248 38.0186C35.8297 38.0525 35.9406 38.0634 36.05 38.0505C36.2368 38.0784 36.4273 38.0347 36.5833 37.9283C36.7393 37.8219 36.8495 37.6606 36.8918 37.4765C36.9541 37.2687 36.949 37.0465 36.8772 36.8418C36.4409 35.7248 33.3894 35.2085 32.9992 33.4439C32.9194 33.0608 32.9142 32.6658 32.984 32.2808C33.2261 30.8767 34.475 30.3633 35.9917 30.3633C37.2097 30.3633 38.8926 30.6655 38.8926 32.538V33.1423H36.7436V32.6138C36.7505 32.508 36.7345 32.4019 36.6967 32.3028C36.659 32.2037 36.6004 32.1138 36.5248 32.0394C36.4493 31.9649 36.3587 31.9076 36.259 31.8712C36.1594 31.8348 36.0531 31.8203 35.9474 31.8287C35.7682 31.8049 35.5867 31.8514 35.441 31.9584C35.2953 32.0654 35.1967 32.2246 35.1657 32.4027C35.1411 32.5533 35.1461 32.7072 35.1803 32.8559C35.4206 33.8674 38.6803 34.3965 39.0437 36.2083C39.1338 36.6769 39.1388 37.1579 39.0583 37.6282C38.8477 39.0783 37.5702 39.6068 36.0249 39.6068C34.3992 39.608 32.8954 39.0171 32.8954 37.0997ZM41.1326 37.4176C41.1117 37.2268 41.1068 37.0346 41.118 36.843V30.5897H43.3125V37.0384C43.3097 37.1495 43.3146 37.2606 43.3271 37.3709C43.3761 37.5528 43.4836 37.7134 43.6331 37.828C43.7826 37.9425 43.9657 38.0046 44.154 38.0046C44.3423 38.0046 44.5254 37.9425 44.6749 37.828C44.8243 37.7134 44.9319 37.5528 44.9809 37.3709C44.9939 37.2606 44.999 37.1495 44.996 37.0384V30.5897H47.1917V36.8418C47.1917 37.0081 47.1765 37.3254 47.1765 37.4164C47.0266 39.0498 45.7485 39.5748 44.1554 39.5748C42.5624 39.5748 41.2831 39.0468 41.1326 37.4164V37.4176ZM59.2008 37.3266C59.1785 37.1351 59.1683 36.9424 59.1704 36.7497V33.0817C59.1704 32.9306 59.185 32.6588 59.2002 32.5071C59.3956 30.8767 60.7034 30.3633 62.2516 30.3633C63.7852 30.3633 65.1374 30.8767 65.2884 32.5077C65.3064 32.6986 65.3113 32.8906 65.303 33.0823V33.3663H63.1085V32.8857C63.1089 32.7742 63.0989 32.6629 63.0788 32.5532C63.0211 32.369 62.9061 32.2081 62.7506 32.0939C62.5951 31.9797 62.4072 31.918 62.2143 31.918C62.0213 31.918 61.8334 31.9797 61.6779 32.0939C61.5224 32.2081 61.4074 32.369 61.3498 32.5532C61.3244 32.6877 61.3144 32.8247 61.32 32.9615V36.948C61.3175 37.0591 61.3226 37.1702 61.3352 37.2805C61.3872 37.4782 61.5081 37.6509 61.6761 37.7675C61.8441 37.884 62.0482 37.9368 62.2516 37.9163C62.4514 37.9376 62.6521 37.8848 62.8155 37.7679C62.979 37.651 63.0938 37.4782 63.1383 37.2823C63.1585 37.1726 63.1636 37.0608 63.1534 36.9498V35.6793H62.2668V34.4105H65.3334V36.7497C65.3356 36.9415 65.3254 37.1332 65.303 37.3237C65.1531 38.9092 63.7864 39.468 62.2516 39.468C60.7169 39.468 59.3507 38.9109 59.2008 37.3254V37.3266ZM28.6119 39.3035L28.5536 31.2389L27.0486 39.3035H24.8541L23.3654 31.2389L23.3071 39.3035H21.1412L21.3214 30.6048H24.8541L25.9514 37.4013L27.0486 30.6048H30.5807L30.7761 39.3035H28.6119ZM17.0678 39.3035L15.8953 31.2389L14.6924 39.3035H12.348L13.9417 30.6048H17.8051L19.3988 39.3035H17.0678ZM53.8044 39.2131L51.625 31.9792L51.7452 39.2125H49.6102V30.6048H52.8267L54.8684 37.6124L54.7511 30.6048H56.9007V39.2137L53.8044 39.2131Z" fill="white"/>
</g>
<defs>
<clipPath id="clip0_865_2289">
<rect width="70" height="18.6667" fill="white" transform="translate(0 25.6666)"/>
</clipPath>
</defs>
</svg>
