<svg width="90" height="90" viewBox="0 0 90 90" fill="none" xmlns="http://www.w3.org/2000/svg">
<g clip-path="url(#clip0_2216_3745)">
<path d="M44.0115 36.748H41.456C41.456 36.748 41.1512 36.9356 41.1512 37.4045C41.1512 37.9671 41.456 38.0844 41.456 38.0844H43.7301C47.0123 38.0844 49.0989 40.2881 49.0989 44.6253C49.0989 49.2907 47.0592 51.3069 43.4253 51.3069H41.9483C41.7373 51.3069 41.5498 51.0491 41.5498 50.9084C41.5498 50.041 41.5498 44.555 41.5498 44.1096C41.5498 41.8589 40.0025 40.6164 37.5174 40.6164C35.8294 40.6164 34.6337 41.3666 33.9539 42.656C33.9539 42.234 33.9539 41.4603 33.9539 41.2494C33.9539 41.0384 33.8132 40.9211 33.6491 40.9211C33.4615 40.9211 29.4291 40.9211 29.4291 40.9211C29.4291 40.9211 29.1478 41.1556 29.1478 41.601C29.1478 42.0699 29.4057 42.2574 29.4057 42.2574C29.4057 42.2574 30.0621 42.2574 30.3669 42.2574C30.6013 42.2574 30.8827 42.5154 30.8827 42.8201C30.8827 43.078 30.8827 50.9084 30.8827 50.9084C30.8827 51.0959 30.6482 51.2835 30.4841 51.2835H29.5698L29.1712 52.4557C31.9142 52.4557 35.1964 52.4557 35.1964 52.4557C35.1964 52.4557 35.4074 52.2682 35.4074 51.8462C35.4074 51.4476 35.1964 51.2835 35.1964 51.2835H34.4696C34.2586 51.2835 34.118 51.1194 34.118 50.9318V44.6253C34.7041 43.0077 35.8529 42.0699 36.8141 42.0699C37.7049 42.0699 38.2676 42.7498 38.2676 43.7579C38.2676 44.2737 38.2676 49.9003 38.2676 50.8381C38.2676 51.0959 38.08 51.2835 37.9159 51.2835H37.0485C37.0485 51.2835 36.8141 51.4476 36.8141 51.8462C36.8141 52.2682 37.0485 52.4557 37.0485 52.4557H44.1521C51.2089 52.4557 53.0375 48.2123 53.0375 44.6253C53.0375 38.9284 49.0989 36.748 44.0115 36.748Z" fill="#EC1B24"/>
<path d="M28.1397 51.2839C27.366 51.2135 27.2723 50.7681 27.2723 50.2523V44.063C27.2723 43.1722 26.944 42.1172 26.1938 41.4842C25.2326 40.6871 23.8494 40.4761 22.6537 40.4761C21.083 40.4761 19.8639 40.6636 18.5979 41.0856C18.4572 41.1559 18.4103 41.2732 18.4103 41.4607C18.4103 42.0937 18.4103 42.4454 18.4103 43.1722C18.4103 43.3128 18.5041 43.4066 18.6213 43.4066C18.6213 43.4066 19.2074 43.4066 19.2777 43.4066C19.4184 43.4066 19.5591 43.3363 19.6529 43.1956C20.028 42.7033 20.4734 42.3047 20.8485 42.0937C21.1767 41.9296 21.716 41.7186 22.2552 41.7186C23.5446 41.7186 24.0838 42.6564 24.0838 43.7583V45.4697C19.2309 45.1884 17.2381 46.6185 17.2381 48.8926C17.2381 51.5183 19.0433 52.6202 20.8251 52.6202C22.4193 52.6202 23.6384 52.0107 24.2948 51.0729C24.4355 51.8934 24.9278 52.4561 25.5608 52.4561C25.889 52.4561 26.8737 52.4561 28.0928 52.4561L28.5148 51.2839H28.1397ZM24.0838 49.5724C23.5915 50.2289 22.7944 50.7681 21.927 50.7681C20.8251 50.7681 20.1921 50.2289 20.1921 48.9863C20.1921 47.5328 20.872 46.7591 24.0838 46.7591V49.5724Z" fill="#EC1B24"/>
<path d="M60.8444 51.2838H59.508C59.2971 51.2838 59.1798 51.1665 59.1798 50.979C59.1798 50.979 59.1798 41.6247 59.1798 41.3668C59.1798 41.0855 59.0861 40.9214 58.7578 40.9214C58.4296 40.9214 54.6551 40.9214 54.6551 40.9214C54.6551 40.9214 54.3737 41.1793 54.3737 41.5778C54.3737 41.953 54.6551 42.2343 54.6551 42.2343C54.6551 42.2343 55.7101 42.2343 55.8038 42.2343C55.8742 42.2343 55.9445 42.2812 55.9445 42.3984C55.9445 42.5156 55.9445 50.9555 55.9445 50.9555C55.9445 51.1431 55.7804 51.2838 55.6397 51.2838H54.3269C54.3269 51.2838 54.069 51.4479 54.069 51.8464C54.069 52.2215 54.3269 52.456 54.3269 52.456H60.8444C60.8444 52.456 61.0554 52.2215 61.0554 51.8464C61.0554 51.4713 60.8444 51.2838 60.8444 51.2838Z" fill="#EC1B24"/>
<path d="M10.2984 42.4216C8.04775 41.648 7.60233 40.9915 7.60233 40.0772C7.60233 39.0925 8.51665 38.0844 10.486 38.0844C11.1659 38.0844 11.8692 38.3189 12.5491 38.7408C12.9476 38.9987 13.3931 39.4207 13.8854 40.2647C13.9323 40.3585 14.0495 40.4054 14.1198 40.4054C14.3074 40.4054 14.8231 40.4054 14.8231 40.4054C14.9169 40.4054 14.9638 40.3351 14.9638 40.2178C14.9638 39.7255 14.9638 38.3657 14.9638 37.5452C14.9638 37.4045 14.8701 37.3108 14.7294 37.2404C13.3931 36.8184 12.0802 36.6074 10.3453 36.6074C7.13343 36.6074 5 38.4361 5 41.226C5 43.9689 7.08655 45.1177 9.78264 45.9617C11.5175 46.4775 13.5572 47.2042 13.5572 48.8922C13.5572 49.9003 12.6194 51.0726 10.7673 51.0726C9.36065 51.0726 8.42286 50.5568 7.88364 49.9941C7.32098 49.4314 6.80522 48.8922 6.31289 47.8607C6.266 47.7435 6.17221 47.6262 6.05499 47.6262C5.77365 47.6262 5.23445 47.6028 5.23445 47.6028C5.11722 47.6262 5.02343 47.6966 5.02343 47.8607C5.02343 48.5171 5.02343 50.252 5.02343 50.9788C5.02343 51.096 5.09377 51.2836 5.21099 51.3539C6.82865 52.2682 8.91519 52.6199 10.6501 52.6199C13.7447 52.5964 16.1126 50.5568 16.1126 47.2746C16.1126 43.7579 12.8773 43.3125 10.2984 42.4216Z" fill="#EC1B24"/>
<path d="M67.3618 45.1649C65.0174 44.6022 64.5251 44.1802 64.5251 43.3597C64.5251 42.6564 65.1346 41.9061 66.3772 41.9061C67.5963 41.9061 68.7216 42.6329 69.2608 43.4535C69.3311 43.5707 69.4249 43.6176 69.5656 43.6176C69.7766 43.6176 70.0345 43.6176 70.1517 43.6176C70.2689 43.6176 70.3158 43.5472 70.3158 43.4769C70.3158 43.4066 70.3158 42.0468 70.3158 41.4372C70.3158 41.2966 70.2455 41.1559 70.0813 41.109C69.1905 40.8511 67.8307 40.6636 66.3537 40.6636C64.3609 40.6636 62.2041 41.8124 62.2041 44.2506C62.2041 46.3605 63.8921 47.5093 65.3456 47.8844C67.8307 48.5643 68.5575 48.916 68.5575 49.971C68.5575 50.8853 67.8307 51.448 66.5882 51.448C65.3222 51.448 64.15 50.5336 63.4701 48.8691C63.3528 48.705 63.2825 48.6581 63.1653 48.6581C62.8371 48.6346 62.4854 48.6581 62.3916 48.6581C62.2744 48.6581 62.1806 48.705 62.1806 48.8691C62.1806 49.4552 62.1806 51.1197 62.1806 51.2838C62.1806 51.4714 62.4385 51.659 62.4385 51.659C62.4385 51.659 63.1418 52.1044 63.9389 52.3857C64.6188 52.5967 65.4394 52.7843 66.5882 52.7843C69.5187 52.7843 70.9019 50.9791 70.9019 48.8456C70.9019 46.9466 69.8235 45.751 67.3618 45.1649Z" fill="#EC1B24"/>
<path d="M56.2025 39.3035H59.133C59.2971 39.3035 59.4143 39.2332 59.4612 39.0925L60.1411 36.9825C60.188 36.8184 60.0708 36.7246 59.9067 36.7246H56.8355C56.6714 36.7246 56.5776 36.8184 56.5541 36.959L55.9915 38.8815C55.8977 39.1159 56.0149 39.3035 56.2025 39.3035Z" fill="#EC1B24"/>
<path d="M85.3904 51.3069C84.6871 51.3069 84.1713 51.0725 83.8665 50.6271C83.7259 50.4161 80.0686 44.8363 79.9748 44.6957C80.9125 43.4297 81.3814 42.9373 82.202 42.5153C82.7412 42.234 83.7493 42.023 84.4995 42.023C84.4995 42.023 84.6636 41.8823 84.6636 41.4838C84.6636 41.0618 84.4995 40.8977 84.4995 40.8977L80.8188 40.9211C80.6781 40.9211 80.514 41.0149 80.3733 41.2025C80.303 41.3197 77.4194 45.4459 76.6457 46.5478C76.6457 42.5388 76.6457 37.2404 76.6457 37.1466C76.6457 36.9122 76.505 36.748 76.2471 36.748C75.9658 36.748 71.6521 36.7246 71.6521 36.7246C71.6521 36.7246 71.4176 36.9122 71.4176 37.2873C71.4176 37.6858 71.6521 37.8968 71.6521 37.8968C71.6521 37.8968 72.9649 37.8968 73.1291 37.8968C73.3166 37.8968 73.3869 37.9906 73.3869 38.1781C73.3869 38.3657 73.3869 51.0022 73.3869 51.0022C73.3869 51.1897 73.2932 51.2835 73.1759 51.2835H71.7693C71.7693 51.2835 71.5348 51.4711 71.5348 51.8462C71.5348 52.2213 71.7693 52.4557 71.7693 52.4557H77.8882C77.8882 52.4557 78.0758 52.1978 78.0758 51.8462C78.0758 51.4945 77.8882 51.2835 77.8882 51.2835H76.9036C76.7629 51.2835 76.6457 51.1663 76.6457 51.0256C76.6457 51.0256 76.6457 49.7831 76.6457 48.0482C76.927 47.7434 77.4663 47.2042 77.5131 47.1339C77.7007 46.9463 77.9117 47.0166 78.0055 47.1808C78.1461 47.3683 80.4671 50.9553 80.514 51.0491C80.6312 51.2132 80.5609 51.307 80.4437 51.307H79.7169C79.7169 51.307 79.5293 51.5883 79.5293 51.8696C79.5293 52.1744 79.6935 52.4557 79.6935 52.4557H85.8124C85.8124 52.4557 86 52.2213 86 51.8931C86 51.5648 85.7655 51.307 85.7655 51.307C85.7655 51.307 85.6014 51.3069 85.3904 51.3069Z" fill="#EC1B24"/>
</g>
<defs>
<clipPath id="clip0_2216_3745">
<rect width="81" height="16.1766" fill="white" transform="translate(5 36.6074)"/>
</clipPath>
</defs>
</svg>
