<svg width="90" height="90" viewBox="0 0 90 90" fill="none" xmlns="http://www.w3.org/2000/svg">
<path d="M56.1409 36.5061C55.4546 36.5061 55.1656 36.6186 54.8853 36.9319C54.775 37.0533 54.7308 37.1769 54.6911 37.424L51.2024 50.655C50.3838 55.2956 44.6841 59.9295 37.2543 59.9295H26.9251L28.7168 53.1308H35.3522C36.0296 53.1308 36.5592 52.8793 37.0027 52.385C37.166 52.193 37.3779 51.8929 37.4066 51.584L40.1604 40.0234C40.9725 35.3807 45.8778 30.2525 53.3054 30.2525H63.884L62.5313 36.5061H56.1409ZM58.524 44.5691L59.7046 40.2882H70.4509C71.7771 34.081 70.7334 28.3305 66.9667 24.5637C59.3427 16.9398 43.3931 19.5304 31.5104 30.899C29.6546 32.6643 28.0879 34.573 26.6602 36.5237H33.1301L31.6251 40.8134H23.8953C23.1561 42.1661 22.4632 43.5077 21.9336 44.8692H31.1L29.6326 49.1589H20.6251C19.0849 55.7126 20.0668 61.825 23.9416 65.7065C31.4707 73.2333 47.3717 70.5875 59.2478 59.2212C61.3265 57.244 63.0432 55.1102 64.5945 52.919H56.2821L57.5487 48.6381H67.2667C67.9795 47.2766 68.6348 45.9306 69.1468 44.5691H58.524Z" fill="#009E4D"/>
</svg>
