<svg width="70" height="70" viewBox="0 0 70 70" fill="none" xmlns="http://www.w3.org/2000/svg">
<path fill-rule="evenodd" clip-rule="evenodd" d="M33.9211 51.7509C33.5234 50.1909 33.1369 48.6552 32.7629 47.1562C33.1722 46.9491 33.5117 46.7905 33.9557 46.5584C35.8038 45.7424 37.5937 44.7913 39.2548 43.6089C41.3363 42.1342 43.2787 40.4766 44.9744 38.5266C46.3078 37.0034 47.4071 35.309 48.0389 33.3224C48.46 32.0063 48.6706 30.6534 48.4836 29.2639C48.3312 28.1057 47.9218 27.0577 47.2901 26.0948C46.5302 24.9366 45.5472 24.0472 44.3426 23.4134C42.834 22.621 41.2318 22.3286 39.5707 22.3771C38.0966 22.4381 36.6697 22.7671 35.2891 23.304C32.7393 24.2786 30.4001 25.6681 28.1544 27.2405C27.4991 27.704 26.8909 28.2276 26.3762 28.849C26.0957 29.1905 25.8733 29.5687 25.7798 30.0196C25.6281 30.7754 26.0375 31.36 26.7856 31.3967C27.3003 31.421 27.7685 31.2138 28.2243 30.9943C29.6402 30.2995 30.9148 29.3609 32.2246 28.5082C33.3129 27.8009 34.4004 27.1186 35.5939 26.6192C36.7632 26.1315 37.9795 25.8635 39.243 26.0824C40.6229 26.3262 41.7346 26.9967 42.4128 28.3253C42.8804 29.2514 42.9275 30.2385 42.6698 31.2381C42.3892 32.3838 41.7575 33.3099 40.9976 34.1509C39.9683 35.3215 38.7748 36.2961 37.4531 37.1004C36.0733 37.942 34.7045 38.8072 33.2893 39.5871C31.6282 40.489 29.8736 41.1353 28.0726 41.6832C26.5639 42.1342 25.0317 42.3413 23.4641 42.1951C22.1542 42.0732 20.9143 41.6714 19.8261 40.8915C18.8439 40.1725 18.1186 39.2339 17.6739 38.0639C16.9957 36.2594 17.0311 34.4196 17.4633 32.5667C17.9551 30.4706 18.9727 28.6668 20.2237 26.9842C21.1831 25.6924 22.2942 24.5591 23.4759 23.5228C25.1481 22.0481 26.938 20.7195 28.8443 19.5987C29.4878 19.2205 30.1549 18.8548 30.7631 18.5015C30.9729 18.9649 31.1842 19.4034 31.3941 19.8543C30.8212 20.1716 30.2602 20.4757 29.7102 20.7929C27.3238 22.17 25.1481 23.8401 23.2064 25.8385C22.1542 26.9233 21.253 28.1424 20.5867 29.5195C19.8732 30.9575 19.4991 32.4932 19.6626 34.1266C19.8496 35.9062 20.6449 37.2832 22.2242 38.0999C23.16 38.5876 24.1658 38.7337 25.207 38.7095C26.6339 38.6728 27.9791 38.2585 29.3126 37.7591C31.2895 37.0152 33.1369 35.9914 34.9386 34.8581C35.9915 34.2 37.0437 33.517 37.9331 32.6276C38.4007 32.1524 38.869 31.6766 39.1142 31.0067C39.5471 29.8368 38.9389 28.8247 37.7343 28.7028C37.079 28.6419 36.4826 28.8614 35.9091 29.142C34.3768 29.8852 32.997 30.8966 31.57 31.8109C30.4818 32.5182 29.3707 33.2005 28.1779 33.6881C27.3474 34.0289 26.4815 34.2368 25.581 34.1266C24.037 33.9437 23.0665 32.6643 23.23 31.0552C23.3588 29.7876 23.9553 28.752 24.7505 27.8252C25.6399 26.8014 26.6692 25.9604 27.7803 25.2296C29.4878 24.0957 31.2071 23.0109 33.067 22.1458C35.2074 21.1462 37.4067 20.3538 39.7695 20.1349C41.477 19.9763 43.1616 20.0739 44.8338 20.5249C46.3078 20.9266 47.6648 21.5729 48.8812 22.5115C50.0975 23.4501 51.0687 24.6076 51.805 25.9729C52.4721 27.2163 52.8462 28.5449 52.9632 29.9587C53.0803 31.4452 52.9161 32.9082 52.4957 34.322C52.0974 35.7115 51.5481 37.0401 50.811 38.271C49.7817 39.9889 48.5653 41.5495 47.1501 42.9509C45.7114 44.3771 44.2609 45.7784 42.6234 46.9491C40.4947 48.4848 38.2719 49.8369 35.8744 50.8732C35.2309 51.178 34.5992 51.4585 33.9211 51.7509Z" fill="#6ABF4B"/>
</svg>
