<svg width="70" height="70" viewBox="0 0 70 70" fill="none" xmlns="http://www.w3.org/2000/svg">
<path d="M39.1193 26.4496H53.4771C54.3171 26.4496 55 27.1953 55 28.1114V41.9202C55 42.8363 54.3171 43.582 53.4771 43.582H38.8746C38.3471 43.582 37.8659 43.291 37.5848 42.8032L36.3066 40.5841L36.2669 40.5147L36.3066 40.4452L37.9453 37.5978L38.066 37.3895L38.1867 37.5978L39.7195 40.2584H51.9558V29.7732H39.9593L32.4621 42.8032C32.1826 43.291 31.6998 43.582 31.1723 43.582H16.2771C15.4371 43.582 14.7542 42.8363 14.7542 41.9202V28.1131C14.7542 27.197 15.4371 26.4512 16.2771 26.4512H31.6088L31.6485 26.4843L31.8966 26.6976L31.9826 26.772L31.9263 26.8712L30.3108 29.7038L30.2711 29.7732H17.8017V40.2584H30.3323L37.8295 27.2284C38.109 26.7406 38.5918 26.4496 39.1193 26.4496Z" fill="white"/>
</svg>
