<svg width="70" height="70" viewBox="0 0 70 70" fill="none" xmlns="http://www.w3.org/2000/svg">
<path d="M57.9491 39.3109C56.6027 40.2967 55.156 40.6141 53.5841 40.2299C52.5342 39.9737 51.6724 39.4 51.0096 38.5535C49.6159 36.7713 49.5908 34.5087 50.9372 32.7613C51.7726 31.6781 52.8976 31.0682 54.2357 30.8942C55.5737 30.7202 56.7948 31.1239 58.0465 31.976C58.0813 31.5082 58.1217 31.1838 58.1259 30.8594C58.1468 29.467 58.0159 29.7956 59.2607 29.3946C59.4528 29.332 59.6603 29.3153 59.9735 29.2554V30.0504C59.9735 33.1832 59.9805 36.316 59.9652 39.4474C59.9638 39.8066 60.1963 40.3245 59.4779 40.3705C58.3208 40.4429 58.2456 40.4206 58.1036 39.6061C58.0925 39.5434 58.0424 39.4877 57.9477 39.3123L57.9491 39.3109ZM54.8274 38.5368C56.5233 38.5368 57.7388 37.3129 57.7388 35.6087C57.7388 33.9198 56.4996 32.6945 54.7996 32.6973C53.1733 32.7015 51.9481 33.9671 51.9007 35.6045C51.859 37.0484 53.1873 38.7108 54.8274 38.5354V38.5368Z" fill="#7EC500"/>
<path d="M26.7703 38.5479C25.0216 41.0179 21.1035 40.9803 19.2308 38.5354C17.8997 36.7977 17.9944 34.1801 19.448 32.5037C20.9155 30.8106 23.4914 30.3373 25.3752 31.4859C27.0335 32.4968 27.6781 34.0618 27.6002 35.9693C27.5807 36.4427 27.2939 36.4608 26.9416 36.4594C25.0675 36.4538 23.1934 36.4566 21.3193 36.4566C21.0687 36.4566 20.8195 36.4566 20.5772 36.4566C20.4756 37.2753 21.077 38.0369 22.06 38.3961C22.7827 38.6607 23.561 38.7428 24.2015 38.3321C24.8921 37.8893 25.4908 37.9826 26.1466 38.2806C26.3345 38.3655 26.5253 38.4435 26.7703 38.5479ZM20.5869 34.7092H25.6537C25.4727 33.5369 24.2989 32.6736 23.0013 32.7001C21.8025 32.7251 20.7011 33.6134 20.5855 34.7092H20.5869Z" fill="#7EC500"/>
<path d="M41.6016 36.4566C41.8076 38.1427 43.8572 39.1744 45.3442 38.3056C46.355 37.7153 47.0136 38.2541 47.9061 38.5423C47.1695 39.5532 46.2395 40.0321 45.1493 40.2814C42.1752 40.9608 39.3195 38.6495 39.385 35.6003C39.4379 33.1345 41.3509 31.0501 43.7221 30.8775C46.2436 30.6937 48.2013 32.2239 48.6844 34.7579C48.6886 34.7802 48.6928 34.8039 48.6969 34.8262C48.9378 36.316 48.8209 36.4552 47.3338 36.4552C45.6895 36.4552 44.0437 36.4552 42.3994 36.4552C42.1515 36.4552 41.9023 36.4552 41.603 36.4552L41.6016 36.4566ZM41.6712 34.7245H46.7393C46.685 33.7749 45.5558 32.7836 44.4879 32.7028C43.1164 32.5984 41.9176 33.4199 41.6712 34.7245Z" fill="#7EC500"/>
<path d="M31.0671 36.4566C31.1367 37.7042 32.4497 38.7025 33.7696 38.5869C34.1093 38.5577 34.4616 38.4811 34.7749 38.3488C35.815 37.9116 36.248 37.9381 37.2922 38.6203C36.5014 39.7077 35.4056 40.241 34.1247 40.344C31.2731 40.5738 29.1999 38.9419 28.8574 36.1002C28.6388 34.2915 29.5647 31.9788 32.064 31.1337C34.2333 30.3999 36.5278 31.1824 37.4886 33.122C37.8742 33.9017 37.9759 34.8304 38.1555 35.702C38.2683 36.245 38.0177 36.4775 37.4231 36.4664C35.5727 36.4329 33.7209 36.4538 31.8691 36.4538C31.6184 36.4538 31.3678 36.4538 31.0657 36.4538L31.0671 36.4566ZM31.1158 34.6995H36.2229C36.0071 33.5675 34.8682 32.7029 33.6721 32.7001C32.4288 32.6973 31.34 33.5118 31.1158 34.6995Z" fill="#7EC500"/>
<path d="M16.169 32.9646C15.161 32.7683 14.2852 32.5915 13.408 32.4327C13.2535 32.4049 13.0836 32.43 12.9249 32.4592C12.1591 32.597 11.6356 33.0203 11.6551 33.5397C11.6815 34.2289 12.2287 34.4461 12.7689 34.6076C13.6099 34.8596 14.469 35.0448 15.3058 35.3093C16.3403 35.6365 17.0434 36.2993 17.0782 37.4507C17.113 38.5799 16.5951 39.4404 15.562 39.8873C13.6308 40.7255 11.7233 40.4916 9.87703 39.5796C9.7364 39.51 9.6097 39.2051 9.64172 39.0408C9.71552 38.6649 9.88956 38.3084 10.0135 37.9687C10.8266 38.2416 11.5673 38.5869 12.3457 38.722C12.9847 38.8319 13.6893 38.7804 14.3214 38.6245C14.6277 38.5479 15.0009 38.087 15.0371 37.7654C15.0677 37.4953 14.714 37.0247 14.423 36.9063C13.6364 36.5889 12.7912 36.419 11.9739 36.1754C11.0689 35.9052 10.2084 35.5516 9.82969 34.5811C9.3549 33.3642 9.86032 32.022 11.0912 31.4149C12.801 30.574 14.5428 30.7118 16.2512 31.4497C16.4002 31.5138 16.5408 31.8493 16.5102 32.0304C16.4503 32.3826 16.2665 32.7154 16.169 32.966V32.9646Z" fill="#7EC500"/>
</svg>
