<svg width="70" height="70" viewBox="0 0 70 70" fill="none" xmlns="http://www.w3.org/2000/svg">
<path d="M7.40454 29.4085L11.299 34.6255L7.40454 39.8112V29.4085Z" fill="#005CA8"/>
<path d="M13.1733 24.7747L19.6815 33.2301V33.2822C19.8481 33.5009 20.1188 33.6883 20.4 33.6883H62.0419C62.5417 33.6883 62.9583 33.2301 62.9583 32.7303C62.9583 32.2305 62.5522 31.7723 62.0419 31.7723H20.8582L14.6311 23.6501C14.4645 23.4314 14.1938 23.2856 13.9126 23.2856C13.4128 23.2856 12.9963 23.6917 12.9963 24.202C13.0067 24.4102 13.0692 24.6081 13.1733 24.7747Z" fill="#005CA8"/>
<path d="M16.8179 35.1982C16.9429 35.0316 17.0366 34.8337 17.0366 34.6255C17.0366 34.4172 16.9637 34.2194 16.8179 34.0527L9.02891 23.6709C8.8623 23.4522 8.59156 23.3064 8.31041 23.3064C7.81058 23.3064 7.39406 23.7126 7.39406 24.2228C7.39406 24.4415 7.48777 24.6601 7.61273 24.8268L14.9644 34.6359L7.5919 44.4658C7.44612 44.6324 7.37323 44.8303 7.37323 45.0698C7.37323 45.5696 7.77934 45.9861 8.28958 45.9861C8.58115 45.9861 8.84148 45.8404 9.00809 45.6217L16.8179 35.1982Z" fill="#005CA8"/>
<path d="M62.0732 35.5835H20.4C20.1085 35.5835 19.8481 35.7501 19.6815 35.9896V36.0104L13.1733 44.4659C13.0484 44.6116 12.9859 44.7991 12.9859 45.0177C12.9859 45.5176 13.392 45.9341 13.9023 45.9341C14.1938 45.9341 14.4541 45.7883 14.6208 45.5696V45.5905L20.8686 37.4891H62.0836C62.5834 37.4891 63 37.0309 63 36.5311C62.9895 36.0417 62.5522 35.5835 62.0732 35.5835Z" fill="#005CA8"/>
<path d="M26.2626 41.2065C26.2626 41.3731 26.2105 41.5189 26.096 41.6126C25.971 41.7064 25.8044 41.7584 25.617 41.7584C25.3775 41.7584 25.1172 41.6126 24.8672 41.3523C24.7944 41.2794 24.7423 41.2274 24.7215 41.2065C24.5965 41.0816 24.4299 40.9879 24.2425 40.915C24.055 40.8629 23.8051 40.8213 23.5448 40.8213C23.1595 40.8213 22.8679 40.8941 22.6597 41.0087C22.441 41.1545 22.3473 41.3211 22.3473 41.5606C22.3473 41.873 22.7534 42.1125 23.576 42.2791C23.7635 42.3311 23.9405 42.352 24.0342 42.3728C24.534 42.4665 24.9193 42.5602 25.1588 42.6331C25.3983 42.706 25.5962 42.7789 25.7836 42.8518C26.0752 42.9976 26.2834 43.185 26.4604 43.4037C26.6062 43.6432 26.6791 43.9035 26.6791 44.2472C26.6791 44.8511 26.4396 45.3301 25.9294 45.6633C25.4296 46.0278 24.7527 46.1944 23.8884 46.1944C23.4094 46.1944 23.0241 46.1423 22.6909 46.0694C22.3577 45.9757 22.0141 45.8508 21.7017 45.6633C21.483 45.5384 21.3164 45.3718 21.2018 45.1843C21.0873 44.9969 21.0144 44.8199 21.0144 44.6533C21.0144 44.4867 21.0665 44.3409 21.181 44.2159C21.306 44.091 21.4726 44.0493 21.66 44.0493C21.9203 44.0493 22.1598 44.1951 22.3785 44.4867C22.4722 44.6116 22.5243 44.6741 22.5972 44.7262C22.743 44.8719 22.9096 44.9865 23.1283 45.0594C23.3469 45.1323 23.5864 45.1531 23.878 45.1531C24.3362 45.1531 24.6694 45.0802 24.9089 44.9657C25.1484 44.8199 25.2734 44.6324 25.2734 44.3929C25.2734 44.0285 24.6694 43.7161 23.4719 43.5078C23.4198 43.5078 23.399 43.487 23.3782 43.487C22.441 43.3204 21.8162 43.0809 21.5038 42.8102C21.1706 42.5498 21.0248 42.1645 21.0248 41.6543C21.0248 41.0816 21.2643 40.6234 21.7433 40.311C22.2223 39.9986 22.8992 39.832 23.7426 39.832C24.1487 39.832 24.4924 39.8841 24.8256 39.957C25.138 40.0299 25.4504 40.1444 25.6899 40.3214C25.9086 40.4464 26.0543 40.5818 26.1897 40.7588C26.1897 40.8941 26.2626 41.0608 26.2626 41.2065Z" fill="white"/>
<path d="M32.4688 44.9344C32.7292 44.9344 32.9479 44.9865 33.0728 45.0802C33.2186 45.1739 33.2602 45.3197 33.2602 45.4863C33.2602 45.6529 33.1874 45.7987 33.0416 45.8924C32.8958 45.9861 32.7084 46.0382 32.4376 46.0382H28.6681C28.3349 46.0382 28.0954 45.9653 27.9704 45.8195C27.8246 45.6737 27.783 45.4342 27.783 45.0698V40.9358C27.783 40.5505 27.835 40.311 27.9704 40.1652C28.1162 40.0194 28.3349 39.9778 28.6681 39.9778H32.271C32.5313 39.9778 32.7292 40.0298 32.875 40.1236C33.0207 40.2173 33.0624 40.3422 33.0624 40.5297C33.0624 40.6963 32.9895 40.8212 32.875 40.915C32.7292 41.0087 32.5417 41.0399 32.271 41.0399H29.2408V42.3415H31.9586C32.2189 42.3415 32.4168 42.3936 32.5626 42.4665C32.6875 42.5602 32.75 42.6852 32.75 42.8726C32.75 43.0392 32.6771 43.1642 32.5626 43.2579C32.4168 43.3516 32.2293 43.4037 31.9898 43.4037H29.272V44.9656H32.4688V44.9344Z" fill="white"/>
<path d="M39.2894 43.8098H38.1856C37.9982 43.8098 37.8524 43.7577 37.7274 43.664C37.6025 43.5703 37.5608 43.4454 37.5608 43.2787C37.5608 43.133 37.6129 42.9872 37.7274 42.9143C37.8524 42.8206 37.9878 42.7685 38.1856 42.7685H39.7684C40.0808 42.7685 40.3203 42.8206 40.4453 42.9143C40.5702 43.008 40.6327 43.1538 40.6327 43.3516V45.6842C40.6327 45.8716 40.5806 45.9966 40.5077 46.0903C40.414 46.184 40.2891 46.2361 40.1224 46.2361C39.9767 46.2361 39.8621 46.184 39.758 46.1423C39.6643 46.0694 39.5914 45.9757 39.5706 45.8299L39.4456 45.3718C39.1853 45.6842 38.8729 45.9028 38.5292 46.0486C38.196 46.1944 37.8107 46.2673 37.3526 46.2673C36.3425 46.2673 35.5303 45.9757 34.9263 45.3822C34.3015 44.8095 33.9891 44.0077 33.9891 43.0497C33.9891 42.0916 34.3015 41.3003 34.9263 40.7171C35.5511 40.1444 36.3633 39.8528 37.4046 39.8528C37.7378 39.8528 38.0502 39.8737 38.3418 39.9466C38.6334 39.9986 38.9145 40.0923 39.154 40.1861C39.5185 40.3527 39.7788 40.5193 39.9662 40.7171C40.1537 40.9046 40.2578 41.1232 40.2578 41.3211C40.2578 41.4877 40.1849 41.6335 40.0704 41.7584C39.9558 41.8834 39.8101 41.925 39.6122 41.925C39.4456 41.925 39.3206 41.9042 39.2061 41.8313C39.0811 41.7793 38.9666 41.6647 38.8 41.4981C38.6125 41.2794 38.3939 41.1336 38.196 41.0399C37.9773 40.9462 37.7378 40.8941 37.4463 40.8941C36.8423 40.8941 36.3633 41.0816 36.0301 41.446C35.6969 41.8313 35.5303 42.3312 35.5303 43.008C35.5303 43.6536 35.6969 44.1847 36.0613 44.5491C36.4258 44.9344 36.9256 45.101 37.5296 45.101C38.0086 45.101 38.3939 44.9761 38.7063 44.7366C38.9978 44.5491 39.1957 44.2159 39.2894 43.8098Z" fill="white"/>
<path d="M47.0055 43.8098H45.9017C45.7143 43.8098 45.5685 43.7577 45.4435 43.664C45.3186 43.5703 45.2769 43.4454 45.2769 43.2787C45.2769 43.133 45.329 42.9872 45.4435 42.9143C45.5685 42.8206 45.7039 42.7685 45.9017 42.7685H47.4845C47.7969 42.7685 48.0156 42.8206 48.1614 42.9143C48.2863 43.008 48.3488 43.1538 48.3488 43.3516V45.6842C48.3488 45.8716 48.2967 45.9966 48.2238 46.0903C48.1301 46.184 48.0052 46.2361 47.8177 46.2361C47.6719 46.2361 47.5574 46.184 47.4533 46.1423C47.3595 46.0694 47.3075 45.9757 47.2658 45.8299L47.1409 45.3718C46.8805 45.6842 46.5682 45.9028 46.2245 46.0486C45.8913 46.1944 45.4748 46.2673 45.027 46.2673C44.0169 46.2673 43.2047 45.9757 42.5799 45.3822C41.9552 44.8095 41.6428 44.0077 41.6428 43.0497C41.6428 42.0916 41.9552 41.3003 42.5799 40.7171C43.2047 40.1444 44.0169 39.8528 45.0583 39.8528C45.3915 39.8528 45.7039 39.8737 45.9954 39.9466C46.287 39.9986 46.5682 40.0923 46.8077 40.1861C47.1721 40.3527 47.4324 40.5193 47.6199 40.7171C47.8073 40.9046 47.9114 41.1232 47.9114 41.3211C47.9114 41.4877 47.8594 41.6335 47.724 41.7584C47.599 41.8834 47.4324 41.925 47.2658 41.925C47.12 41.925 46.9743 41.9042 46.8597 41.8313C46.7348 41.7793 46.6202 41.6647 46.4224 41.4981C46.2349 41.2794 46.0371 41.1336 45.8184 41.0399C45.5997 40.9462 45.3602 40.8941 45.0687 40.8941C44.4647 40.8941 43.9857 41.0816 43.6525 41.446C43.3193 41.8313 43.1527 42.3312 43.1527 43.008C43.1527 43.6536 43.3193 44.1847 43.6837 44.5491C44.0482 44.9344 44.5272 45.101 45.152 45.101C45.6101 45.101 46.0163 44.9761 46.3287 44.7366C46.7452 44.5491 46.9326 44.2159 47.0055 43.8098Z" fill="white"/>
<path d="M54.4509 44.9344C54.7112 44.9344 54.9299 44.9865 55.0549 45.0802C55.2006 45.1739 55.2423 45.3197 55.2423 45.4863C55.2423 45.6529 55.1694 45.7987 55.0236 45.8924C54.8778 45.9861 54.6904 46.0382 54.4197 46.0382H50.6501C50.3169 46.0382 50.0774 45.9653 49.9524 45.8195C49.8275 45.6737 49.765 45.4342 49.765 45.0698V40.9358C49.765 40.5505 49.8379 40.311 49.9524 40.1652C50.0774 40.0194 50.3169 39.9778 50.6501 39.9778H54.2322C54.4926 39.9778 54.6904 40.0298 54.8362 40.1236C54.982 40.2173 55.0236 40.3422 55.0236 40.5297C55.0236 40.6963 54.9507 40.8212 54.8362 40.915C54.6904 41.0087 54.503 41.0399 54.2322 41.0399H51.2333V42.3415H53.9719C54.2322 42.3415 54.4301 42.3936 54.5446 42.4665C54.6904 42.5602 54.7321 42.6852 54.7321 42.8726C54.7321 43.0392 54.6592 43.1642 54.5446 43.2579C54.3988 43.3516 54.2114 43.4037 53.9719 43.4037H51.2333V44.9656H54.4509V44.9344Z" fill="white"/>
<path d="M57.7414 41.0399V42.6539H59.47C59.8553 42.6539 60.1156 42.581 60.2822 42.4665C60.4488 42.3415 60.5425 42.1333 60.5425 41.8625C60.5425 41.5918 60.4488 41.4044 60.2822 41.2586C60.1156 41.1128 59.8449 41.0399 59.5116 41.0399H57.7414ZM57.7414 45.4655C57.7414 45.6841 57.6893 45.8508 57.554 45.9653C57.429 46.0903 57.2416 46.1319 57.0021 46.1319C56.7626 46.1319 56.5647 46.0798 56.4502 45.9653C56.3356 45.8508 56.2628 45.6737 56.2628 45.4655V40.9462C56.2628 40.5609 56.3356 40.3214 56.4502 40.1756C56.596 40.0298 56.8146 39.9882 57.1479 39.9882H59.7199C60.5113 39.9882 61.0944 40.134 61.4485 40.4255C61.8338 40.7171 62.0212 41.144 62.0212 41.7272C62.0212 42.0916 61.9275 42.404 61.7296 42.6644C61.5422 42.9039 61.2715 43.0705 60.9382 43.1642C61.1986 43.2371 61.4172 43.3516 61.563 43.5286C61.7088 43.6952 61.7817 43.9139 61.8025 44.2055C61.8233 44.3304 61.8233 44.4658 61.8233 44.6428C61.8233 44.8303 61.8442 44.9552 61.8442 45.0073C61.865 45.0802 61.8962 45.1739 61.9171 45.3197C61.9379 45.4655 61.9691 45.5592 61.9691 45.6113C61.9691 45.7779 61.8962 45.9236 61.7817 46.0174C61.6359 46.1111 61.4693 46.1631 61.2506 46.1631C60.9382 46.1631 60.7196 46.0903 60.5738 45.9445C60.4488 45.7987 60.3551 45.4134 60.3134 44.7886C60.2926 44.3096 60.1677 43.9972 60.0219 43.8723C59.8761 43.7473 59.6158 43.7057 59.2305 43.7057H57.6685V45.4863H57.7414V45.4655Z" fill="white"/>
</svg>
