<svg width="90" height="90" viewBox="0 0 90 90" fill="none" xmlns="http://www.w3.org/2000/svg">
<path d="M76.9992 19.46C76.5953 20.4887 75.8745 21.2869 75.1494 22.0992C73.2722 24.2031 71.2887 26.2014 69.2719 28.1672C68.1066 29.303 66.8712 30.3656 65.618 31.4068C64.0111 32.742 62.34 33.9878 60.6039 35.1464C59.2931 36.0208 57.9395 36.8264 56.5541 37.5811C54.0766 38.9303 51.4964 40.0395 48.8313 40.9566C48.7707 40.9773 48.719 40.9936 48.6156 40.967C48.7567 40.7964 48.9443 40.7277 49.1053 40.628C49.2692 40.5269 49.4346 40.4279 49.6059 40.3408C51.1656 39.5484 52.7348 38.776 54.2826 37.9614C55.027 37.5701 55.795 37.2149 56.4862 36.7245C56.608 36.6381 56.7062 36.534 56.8133 36.4365C57.2549 36.0363 57.139 35.8051 56.6346 35.5799C55.8858 35.2461 55.0669 35.1331 54.2568 35.0209C53.5035 34.9168 52.7481 34.8304 51.9949 34.727C51.7165 34.6886 51.4093 34.8274 51.119 34.5771C51.8922 34.5748 52.624 34.5276 53.3529 34.5195C54.3816 34.5084 55.4088 34.4567 56.4345 34.4109C57.3458 34.3703 58.2696 34.3179 59.1587 34.0594C59.2274 34.0395 59.296 34.0188 59.3603 33.9885C59.6099 33.8711 59.9636 33.7788 59.9348 33.4649C59.9112 33.2087 59.5966 33.0669 59.344 32.9768C58.6071 32.7132 57.8457 32.5433 57.0696 32.4363C56.2336 32.3211 55.4014 32.1778 54.564 32.0818C54.2523 32.0463 53.9407 32.0316 53.6261 31.8876C53.9702 31.8499 54.3144 31.8012 54.66 31.7753C57.0068 31.5981 59.3588 31.6402 61.7093 31.6114C62.2093 31.6055 62.7432 31.5833 63.1996 31.2665C63.4373 31.1011 63.441 30.9837 63.235 30.7998C62.8946 30.4948 62.4589 30.4143 62.0468 30.3139C60.8402 30.0207 59.6151 29.8346 58.3789 29.7017C57.2941 29.585 56.2107 29.4551 55.12 29.4071C55.0912 29.4056 55.0639 29.3775 55.0395 29.3635C55.0447 29.2609 55.1156 29.2682 55.1717 29.2682C56.111 29.2742 57.0423 29.1412 57.9808 29.105C58.8928 29.0703 59.8034 28.998 60.7168 28.9633C61.7847 28.9226 62.854 28.8562 63.9166 28.7402C64.9541 28.6273 66.0072 28.5645 66.9923 28.162C67.0145 28.1532 67.0484 28.1642 67.0632 28.1502C67.2345 27.9922 67.569 27.9405 67.5425 27.6577C67.5188 27.4014 67.2227 27.3512 67.0122 27.2796C66.3351 27.0499 65.6313 26.9709 64.9217 26.8978C63.8073 26.7826 62.6908 26.739 61.5742 26.6689C60.0899 26.5751 58.6085 26.6511 57.1264 26.6105C57.0799 26.609 57.0334 26.6031 56.9802 26.5994C57.0747 26.4621 57.2069 26.4695 57.3421 26.4614C58.7119 26.3786 60.0751 26.2073 61.4487 26.1556C62.1879 26.1276 62.93 26.0722 63.6677 26.0072C64.6927 25.9171 65.7207 25.8565 66.7449 25.7391C67.812 25.6165 68.8769 25.4999 69.9122 25.206C70.2807 25.1018 70.6521 24.9903 70.9268 24.6861C71.1587 24.4291 71.1543 24.308 70.8412 24.1197C70.4749 23.8996 70.0547 23.8169 69.6456 23.7423C68.6922 23.5688 67.7278 23.4957 66.7597 23.4241C65.3618 23.3207 63.9661 23.3783 62.5704 23.3805C62.0387 23.3812 61.4893 23.4056 60.9605 23.5525C61.1725 23.3369 61.4745 23.3635 61.73 23.3074C63.5356 22.9079 65.3389 22.498 67.1622 22.176C68.9249 21.8644 70.6817 21.5166 72.4303 21.1348C72.9716 21.0167 73.5351 20.8837 73.9952 20.5175C74.3577 20.2295 74.3415 20.0611 73.9176 19.8728C73.5609 19.7148 73.1762 19.6601 72.7988 19.6128C71.5944 19.4622 70.3804 19.491 69.1804 19.6165C67.0972 19.8351 65.0398 20.2103 62.998 20.6932C61.0588 21.1511 59.1417 21.6798 57.2343 22.2521C53.7147 23.3081 50.2787 24.5953 46.8751 25.9688C45.7061 26.4407 44.563 26.9783 43.4065 27.4826C43.267 27.5432 43.1207 27.5875 42.9472 27.5831C43.2455 27.4044 43.5402 27.219 43.8422 27.0477C45.3849 26.1748 46.9445 25.3315 48.5492 24.5797C50.0387 23.8819 51.5437 23.2165 53.0715 22.5999C54.931 21.8489 56.8126 21.1644 58.723 20.5581C61.1038 19.8026 63.5164 19.1727 65.9732 18.7171C67.301 18.4712 68.6361 18.2836 69.9772 18.116C71.7547 17.8944 73.5351 17.8944 75.317 17.9166C75.9801 17.9247 76.6056 18.1019 77 18.7193V19.4563L76.9992 19.46Z" fill="#1E71B8"/>
<path d="M44.6257 74.54C44.382 74.4027 44.1014 74.4499 43.8414 74.379C42.2043 73.9308 41.2672 72.8312 40.8654 71.2243C40.6889 70.5176 40.5937 69.7969 40.6483 69.0702C40.7517 67.6908 41.0966 66.4059 42.1858 65.4363C42.8822 64.8167 43.7026 64.4836 44.6198 64.4475C45.4483 64.415 46.2761 64.3876 47.0899 64.703C48.2309 65.1453 48.9376 65.9753 49.4168 67.0476C49.7447 67.7816 49.8466 68.5806 49.8437 69.3597C49.8378 70.9149 49.5239 72.3948 48.2818 73.4988C47.649 74.0615 46.9038 74.3798 46.0598 74.4662C45.9933 74.4728 45.9077 74.4359 45.8796 74.5393H44.6257V74.54ZM48.8298 69.4011C48.8534 68.8502 48.7655 68.266 48.6016 67.6996C48.3889 66.9671 48.0625 66.298 47.4112 65.8358C46.5516 65.2258 45.6108 65.0966 44.5814 65.2391C43.1842 65.4326 42.3069 66.2537 41.9236 67.5246C41.4998 68.9292 41.5012 70.384 42.0669 71.7701C42.4214 72.6385 43.0439 73.2935 43.9707 73.5741C44.5541 73.7506 45.1463 73.8023 45.7718 73.7462C46.7591 73.6576 48.0433 72.8113 48.3837 71.9015C48.6806 71.1099 48.846 70.2939 48.8298 69.4011Z" fill="white"/>
<path d="M25.673 74.5399C25.2248 74.4129 24.7581 74.3605 24.3246 74.1714C23.1896 73.6774 22.4341 72.8186 22.0738 71.6636C21.5701 70.0479 21.5642 68.4026 22.2392 66.8355C22.7834 65.5705 23.7833 64.7553 25.1694 64.5197C26.1036 64.3609 27.0547 64.3307 27.9674 64.6364C29.2634 65.0699 30.1031 65.9656 30.5498 67.2638C31.1015 68.8663 31.069 70.4621 30.4309 72.004C29.8313 73.4514 28.6992 74.2992 27.1071 74.4676C27.0554 74.4727 27.0126 74.4823 27.0015 74.5414H25.6738L25.673 74.5399ZM29.869 69.4194C29.9081 68.9291 29.8623 68.404 29.7316 67.8819C29.4584 66.7957 28.9178 65.9213 27.8448 65.4672C27.0451 65.129 26.2173 65.1001 25.3769 65.2848C24.7307 65.4265 24.1481 65.7116 23.722 66.216C22.9976 67.0733 22.7657 68.1138 22.7214 69.2097C22.6978 69.7938 22.7391 70.3757 22.8779 70.9384C23.0928 71.8091 23.4576 72.5985 24.2271 73.145C25.2093 73.8421 26.2941 73.9115 27.4047 73.6294C28.378 73.382 29.0707 72.7639 29.4717 71.8202C29.7937 71.0618 29.9155 70.2797 29.8682 69.4202L29.869 69.4194Z" fill="white"/>
<path d="M72.5005 74.5395C72.1217 74.4014 71.7133 74.4361 71.3249 74.3261C70.8109 74.1806 70.3029 74.0285 69.8177 73.8018C69.639 73.7184 69.6102 73.6194 69.7136 73.4599C69.7653 73.3801 69.8125 73.2952 69.8443 73.2066C69.9093 73.0242 69.9831 73.0257 70.1618 73.1062C70.983 73.4754 71.8381 73.6933 72.7494 73.7442C73.3195 73.776 73.8564 73.7649 74.405 73.5914C75.2085 73.3381 75.6109 72.6166 75.6641 71.8885C75.6959 71.4609 75.7313 71.0193 75.4802 70.6205C75.1671 70.122 74.6591 69.9566 74.1399 69.8245C73.253 69.5985 72.3359 69.5069 71.46 69.2315C70.7555 69.0099 70.1057 68.6806 69.8088 67.9643C69.3517 66.8625 69.5917 65.2393 71.1078 64.7431C72.7907 64.1929 74.4685 64.3185 76.105 64.9853C76.1928 65.0207 76.3228 65.0429 76.212 65.2083C76.1426 65.311 76.1478 65.4601 76.0983 65.5798C76.0415 65.7164 75.9942 65.8087 75.783 65.7105C74.8636 65.2844 73.8815 65.1108 72.8757 65.1847C72.2886 65.2275 71.7163 65.3361 71.1831 65.6743C70.4483 66.1403 70.2851 67.7863 71.2703 68.219C71.926 68.507 72.6061 68.6267 73.2848 68.7817C73.8984 68.922 74.5261 69.0136 75.1117 69.2462C75.9432 69.5763 76.5259 70.1634 76.6167 71.0813C76.6847 71.771 76.6625 72.4622 76.2778 73.1069C75.862 73.804 75.2528 74.1762 74.5062 74.3955C74.3061 74.4539 74.0838 74.4088 73.9029 74.5388H72.502L72.5005 74.5395Z" fill="white"/>
<path d="M65.2739 74.5404C65.0198 74.4008 64.7281 74.4429 64.4579 74.3624C62.831 73.8765 61.8939 72.7415 61.5276 71.1457C61.199 69.7138 61.23 68.262 61.8407 66.8995C62.3518 65.7608 63.2254 64.9537 64.4586 64.6324C65.8713 64.2647 67.2633 64.309 68.594 64.9906C68.7491 65.0696 68.8044 65.1375 68.6715 65.2852C68.6088 65.3546 68.5585 65.4418 68.5231 65.5289C68.4219 65.7815 68.2624 65.8081 68.0387 65.684C67.374 65.3155 66.6533 65.1486 65.9008 65.1818C64.3257 65.2505 63.2601 66.0385 62.6951 67.4999C62.4382 68.1652 62.3134 68.8653 62.3326 69.5727C62.3621 70.676 62.6124 71.7372 63.3221 72.6115C63.8619 73.2769 64.6225 73.6284 65.4666 73.7214C66.352 73.8189 67.216 73.6749 68.035 73.3027C68.1664 73.2429 68.3806 73.1048 68.4168 73.3382C68.45 73.5538 68.7343 73.8285 68.3496 74.0331C67.8784 74.2834 67.3873 74.4414 66.8542 74.4688C66.7877 74.4725 66.702 74.4385 66.674 74.5419H65.2731L65.2739 74.5404Z" fill="white"/>
<path d="M41.5242 45.7175C41.008 45.4848 40.59 45.109 40.1684 44.7486C38.5076 43.3285 37.2921 41.5599 36.2205 39.6776C34.9844 37.505 33.9992 35.2195 33.116 32.8859C32.193 30.4475 31.2669 28.0091 30.3313 25.5426C30.7183 25.437 31.0513 25.6047 31.3511 25.7789C32.1538 26.2464 32.7483 26.9346 33.2881 27.6812C34.8514 29.8449 35.968 32.2575 37.1673 34.6228C38.1147 36.4918 39.167 38.2981 40.4652 39.9441C41.2657 40.9588 42.1009 41.952 43.1178 42.7702C43.2692 42.8921 43.3888 43.0523 43.5232 43.1949C42.8771 44.0515 42.1415 44.8379 41.5249 45.7175H41.5242Z" fill="#DCE183"/>
<path d="M46.6196 45.4053C47.5353 45.9192 48.4495 46.4369 49.3674 46.9464C50.0571 47.329 50.7557 47.6975 51.4462 48.0792C52.5036 48.6641 53.5161 49.3228 54.5344 49.9727C56.2432 51.0626 57.8782 52.2575 59.4925 53.4789C60.2619 54.0608 60.9982 54.69 61.7337 55.3169C62.4596 55.9358 63.1486 56.5893 63.8139 57.2687C63.9867 57.4444 64.2888 57.6645 64.1337 57.8919C63.9963 58.0935 63.6862 57.8831 63.4757 57.79C61.8001 57.0457 60.2065 56.1447 58.6122 55.2438C57.6751 54.7143 56.7284 54.2018 55.7891 53.6761C54.4436 52.9228 53.1025 52.1615 51.7556 51.4105C50.8052 50.8802 49.8466 50.3663 48.8962 49.8361C47.5412 49.0799 46.1905 48.3163 44.8376 47.5557C45.4314 46.8386 46.0251 46.1223 46.6181 45.4053H46.6196Z" fill="#3BA949"/>
<path d="M42.3498 24.7819C42.2339 24.0021 42.1061 23.2629 41.8949 22.5429C41.5833 21.4824 41.1033 20.5069 40.4158 19.6341C39.4159 18.3661 38.0815 17.6668 36.5218 17.4076C35.2066 17.189 33.9092 17.3249 32.653 17.8138C31.8924 18.1099 31.213 18.5389 30.6503 19.109C29.8122 19.9583 29.2746 20.9928 29.0146 22.2815C28.7532 21.7387 28.3463 21.4337 27.9173 21.1671C26.9196 20.5475 25.8259 20.1495 24.702 19.8239C23.7287 19.5418 22.7429 19.3143 21.7496 19.1223C20.9388 18.9658 20.1206 18.8469 19.3038 18.7228C18.4494 18.5928 17.595 18.4651 16.7377 18.3587C16.1624 18.2871 15.5812 18.2576 15.0038 18.2044C14.3281 18.1424 13.6546 18.0486 12.9737 18.0567C12.86 18.0582 12.7847 18.005 12.7729 17.8891C12.7559 17.7207 12.8866 17.7717 12.973 17.7628C14.4145 17.6122 15.8633 17.6594 17.3041 17.7089C18.4118 17.7473 19.5239 17.833 20.6294 17.9725C21.4107 18.0715 22.2075 18.0412 22.9888 18.1402C24.1806 18.2915 25.3755 18.3159 26.5674 18.2672C27.904 18.2125 29.1704 17.8957 30.3557 17.206C31.4781 16.5517 32.7003 16.1256 34.0015 15.9026C35.6202 15.6257 37.1724 15.7741 38.6427 16.4749C40.435 17.3293 41.5943 18.7612 42.1925 20.6495C42.5063 21.639 42.6186 22.6588 42.547 23.6868C42.5226 24.0324 42.5632 24.409 42.352 24.7804L42.3498 24.7819Z" fill="#E32026"/>
<path d="M37.5653 69.194C38.6959 69.4126 39.5163 70.3733 39.4772 71.5512C39.4513 72.3406 39.3273 73.0488 38.7313 73.6159C38.2779 74.0464 37.7159 74.2355 37.1215 74.313C35.7804 74.4873 34.4305 74.3514 33.0858 74.3965C32.8768 74.4031 32.8214 74.3418 32.8214 74.1336C32.8281 71.0372 32.8281 67.9408 32.8214 64.8444C32.8214 64.6354 32.8783 64.5793 33.0858 64.5808C34.1182 64.5911 35.152 64.5454 36.1822 64.5985C36.9406 64.6377 37.6908 64.7698 38.3134 65.3052C38.9795 65.8783 39.0821 66.6293 39.009 67.4121C38.9263 68.2938 38.4116 68.8875 37.5653 69.1932V69.194ZM33.7113 71.6294C33.7113 72.2187 33.7157 72.808 33.7083 73.3981C33.7061 73.5672 33.7157 73.6713 33.9358 73.6595C34.8492 73.6085 35.7649 73.7126 36.6814 73.5901C37.7374 73.449 38.5415 72.7903 38.5194 71.5696C38.4995 70.4508 37.8607 69.9214 36.9147 69.7478C35.9385 69.5684 34.9526 69.6068 33.9675 69.5957C33.7556 69.5935 33.7017 69.6577 33.7061 69.8623C33.7194 70.4516 33.7105 71.0409 33.7105 71.6302L33.7113 71.6294ZM33.7113 67.0923C33.7113 67.6329 33.7179 68.1734 33.7076 68.714C33.7039 68.8919 33.757 68.9488 33.9343 68.9385C34.7628 68.8912 35.5929 68.9961 36.4229 68.8698C37.47 68.7095 37.8201 68.4585 38.0327 67.4276C38.1671 66.7763 37.9286 65.8318 37.0779 65.5578C36.0204 65.2174 34.9356 65.3547 33.8604 65.3215C33.678 65.3156 33.712 65.4396 33.712 65.5445C33.7105 66.0607 33.712 66.5761 33.712 67.0923H33.7113Z" fill="white"/>
<path d="M18.4612 69.4942C19.179 71.0155 19.8458 72.5618 20.5178 74.106C20.6168 74.3334 20.599 74.394 20.3406 74.3969C19.5851 74.4058 19.5874 74.4139 19.2846 73.716C18.7285 72.4341 18.2448 71.1218 17.66 69.8509C17.5846 69.687 17.5174 69.6715 17.3808 69.6722C16.889 69.6752 16.3972 69.6826 15.9061 69.67C15.5553 69.6611 15.2038 69.6353 14.8545 69.5954C14.5976 69.5666 14.5281 69.6501 14.5311 69.9115C14.5459 71.288 14.5289 72.6645 14.5451 74.0402C14.5488 74.3282 14.475 74.442 14.1862 74.394C14.1028 74.3799 14.0127 74.3799 13.9285 74.394C13.6959 74.4324 13.6457 74.3356 13.6472 74.1119C13.6575 72.5633 13.6523 71.0147 13.6523 69.4669C13.6523 67.9427 13.6597 66.4193 13.6457 64.8958C13.6435 64.6307 13.7188 64.5761 13.9713 64.579C15.1388 64.5931 16.3071 64.5569 17.4739 64.596C18.2123 64.6211 18.9744 64.7097 19.5563 65.2296C20.2099 65.8137 20.263 66.6194 20.1914 67.4288C20.1589 67.7921 20.04 68.137 19.8591 68.47C19.5541 69.032 19.0697 69.3067 18.4619 69.4942H18.4612ZM14.5377 67.0551C14.5377 67.5698 14.5466 68.0853 14.5333 68.6C14.5281 68.8038 14.5798 68.8754 14.7932 68.8673C15.2097 68.8503 15.6277 68.8747 16.0435 68.8592C16.6985 68.8348 17.3572 68.9323 18.0093 68.7905C18.6362 68.6539 19.0852 68.3031 19.2189 67.6732C19.3533 67.0396 19.3496 66.403 18.8792 65.864C18.4737 65.3987 17.8992 65.3721 17.3683 65.3374C16.5013 65.2813 15.6277 65.3271 14.7571 65.3182C14.5769 65.316 14.5304 65.3729 14.534 65.5464C14.5444 66.0486 14.5377 66.5515 14.5377 67.0544V67.0551Z" fill="white"/>
<path d="M16.6365 61.1932C15.503 61.2324 14.4233 61.0034 13.4006 60.5175C13.2691 60.4555 13.0003 60.3817 13.1864 60.1697C13.3186 60.0191 13.2699 59.5634 13.744 59.8241C14.3827 60.1749 15.1013 60.3019 15.8294 60.3927C16.5095 60.4777 17.1756 60.5035 17.8336 60.3056C19.1628 59.9054 19.5158 58.1286 18.8807 57.1981C18.5565 56.7233 18.0093 56.6066 17.488 56.4745C16.556 56.2381 15.5931 56.148 14.6789 55.8194C13.8259 55.513 13.0631 54.8107 13.1222 53.7052C13.1495 53.189 13.1879 52.7016 13.4766 52.2637C13.888 51.639 14.5445 51.416 15.2165 51.2447C15.8663 51.0785 16.5368 51.0563 17.2037 51.0962C17.9813 51.1427 18.7323 51.3274 19.4501 51.6309C19.5498 51.673 19.7263 51.7018 19.6915 51.8583C19.6465 52.0621 19.5616 52.2593 19.4722 52.4498C19.436 52.5266 19.3681 52.4328 19.3267 52.4144C18.6223 52.0983 17.8912 51.9292 17.1143 51.893C16.3182 51.8561 15.5525 51.8915 14.8288 52.2696C14.2166 52.5887 14.0253 53.1381 14.029 53.7628C14.0334 54.3824 14.4278 54.7568 14.9639 55.0012C15.7319 55.352 16.5745 55.3985 17.3816 55.589C18.1356 55.767 18.8888 55.9258 19.4759 56.5033C20.0741 57.0911 20.1996 57.8288 20.1258 58.5961C20.0682 59.1957 19.8902 59.7798 19.4397 60.2443C18.8091 60.8934 18.0366 61.1733 17.152 61.194C16.9799 61.1977 16.8078 61.194 16.6358 61.194L16.6365 61.1932Z" fill="white"/>
<path d="M21.8382 56.1116C21.8382 54.5874 21.8427 53.0639 21.8331 51.5405C21.8316 51.3093 21.8788 51.2311 22.1292 51.2333C23.7516 51.2458 25.374 51.2532 26.9957 51.2296C27.3767 51.2244 27.294 51.4393 27.2933 51.6431C27.2933 51.8447 27.3834 52.0677 26.9994 52.0604C25.6723 52.0352 24.3446 52.0574 23.0176 52.0448C22.7746 52.0426 22.7133 52.1091 22.717 52.3484C22.731 53.3312 22.7318 54.3149 22.717 55.2978C22.7133 55.5452 22.7879 55.5983 23.0227 55.5961C24.2641 55.5843 25.5054 55.6013 26.7468 55.5828C27.0341 55.5784 27.0931 55.6633 27.0806 55.9292C27.0592 56.401 27.0762 56.4018 26.5866 56.4018C25.419 56.4018 24.2515 56.4092 23.084 56.3959C22.8145 56.3929 22.7081 56.4365 22.7148 56.7444C22.7369 57.813 22.7325 58.8823 22.717 59.9516C22.7133 60.2255 22.765 60.3223 23.0678 60.3178C24.4073 60.2986 25.7469 60.3105 27.0865 60.309C27.3117 60.309 27.4432 60.2551 27.404 60.6369C27.3612 61.0593 27.2002 61.0526 26.8974 61.0511C25.3363 61.043 23.776 61.0393 22.2148 61.0548C21.9202 61.0578 21.8249 61.0046 21.8294 60.6849C21.8493 59.1614 21.8382 57.6372 21.8382 56.1138V56.1116Z" fill="white"/>
<path d="M54.1386 69.9205C54.1386 71.2963 54.1275 72.6721 54.1467 74.0478C54.1511 74.3513 54.0529 74.4082 53.7797 74.3978C53.2539 74.3786 53.2532 74.3927 53.2532 73.8839C53.2532 71.1818 53.2458 68.4791 53.2628 65.777C53.265 65.4381 53.1668 65.3797 52.8581 65.3879C52.0605 65.41 51.2615 65.3879 50.4625 65.3997C50.2424 65.4026 50.1391 65.3731 50.1479 65.1102C50.1656 64.5844 50.1479 64.5844 50.6634 64.5844C52.7274 64.5844 54.7914 64.597 56.8546 64.5733C57.2409 64.5689 57.2283 64.7277 57.2475 65.0157C57.2704 65.3628 57.1404 65.4108 56.8377 65.4026C56.0763 65.3812 55.3142 65.4108 54.5529 65.3886C54.2361 65.3797 54.1209 65.4396 54.1275 65.7933C54.1519 67.1683 54.1371 68.5448 54.1371 69.9198L54.1386 69.9205Z" fill="white"/>
<path d="M29.3602 56.1425C29.3602 54.619 29.3676 53.0956 29.3536 51.5729C29.3506 51.3004 29.4126 51.1903 29.6925 51.2354C29.8121 51.2546 29.9384 51.2465 30.0603 51.2369C30.205 51.225 30.2582 51.2812 30.2471 51.4244C30.2375 51.5588 30.2449 51.6947 30.2449 51.8298C30.2449 54.7778 30.2397 57.7265 30.2523 60.6744C30.2537 60.9779 30.1858 61.1035 29.8756 61.0473C29.804 61.034 29.7272 61.0355 29.6548 61.0473C29.4126 61.0857 29.3513 60.989 29.3536 60.749C29.3646 59.2137 29.3595 57.6777 29.3595 56.1425H29.3602Z" fill="white"/>
<path d="M58.4896 69.4891C58.4896 67.9657 58.497 66.4422 58.4829 64.9195C58.48 64.647 58.542 64.537 58.8219 64.5821C58.9415 64.6013 59.0678 64.5931 59.1897 64.5835C59.3344 64.5717 59.389 64.6278 59.3765 64.7711C59.3669 64.8811 59.375 64.9919 59.375 65.1027C59.375 68.0757 59.3698 71.048 59.3824 74.0211C59.3839 74.3246 59.3159 74.4509 59.0065 74.394C58.9349 74.3807 58.8581 74.3822 58.7857 74.394C58.5442 74.4324 58.4822 74.3357 58.4837 74.0957C58.4948 72.5604 58.4896 71.0244 58.4896 69.4891Z" fill="white"/>
<path d="M32.5851 19.9024C33.116 19.9038 33.4904 20.2745 33.4904 20.7944C33.4904 21.3542 33.0754 21.7182 32.5659 21.7404C32.0475 21.7625 31.6406 21.3091 31.6465 20.7612C31.6524 20.2612 32.046 19.9001 32.5851 19.9024Z" fill="#E32026"/>
<path d="M46.6195 45.406C46.0258 46.123 45.4321 46.8393 44.8391 47.5564C44.6914 47.5291 44.5541 47.4833 44.475 47.3407C44.509 47.151 44.6375 47.0166 44.752 46.8755C45.2268 46.287 45.7024 45.6991 46.1779 45.1113C46.3256 45.2095 46.4726 45.3078 46.6203 45.406H46.6195Z" fill="#52B148"/>
<path d="M42.8475 46.4502C42.7308 46.4428 42.6378 46.3867 42.5558 46.3084C42.5425 46.1607 42.6252 46.064 42.7138 45.9554C43.2824 45.2598 43.8429 44.5575 44.4064 43.8574C44.5149 43.9771 44.6981 44.0036 44.78 44.1565C44.7232 44.2015 44.6567 44.2377 44.6117 44.2924C44.0216 45.0102 43.4346 45.7302 42.8467 46.4502H42.8475Z" fill="#A5CF6A"/>
<path d="M44.032 47.1179C43.871 47.1075 43.7883 46.9665 43.6635 46.8963C43.9205 46.5766 44.1886 46.2642 44.4323 45.9341C44.7609 45.4896 45.187 45.1189 45.4373 44.6152C45.5643 44.7024 45.7253 44.743 45.8087 44.8899C45.7526 45.0125 45.6795 45.1218 45.5909 45.2274C45.0666 45.8544 44.5504 46.4872 44.032 47.1179Z" fill="#76BE53"/>
<path d="M44.4071 43.8577C43.8437 44.5578 43.2832 45.2601 42.7146 45.9557C42.626 46.0643 42.5432 46.161 42.5565 46.3087C42.3985 46.2939 42.3114 46.1595 42.188 46.0872C42.2545 45.7674 42.5196 45.585 42.7072 45.3516C43.1695 44.7749 43.6458 44.2107 44.1169 43.6406C44.2137 43.713 44.3104 43.7854 44.4071 43.8577Z" fill="#B4D571"/>
<path d="M44.1169 43.6405C43.6458 44.2098 43.1695 44.7748 42.7072 45.3515C42.5196 45.5849 42.2545 45.7673 42.188 46.087C42.0189 46.0516 41.8757 45.9652 41.7413 45.8596C41.8757 45.7894 41.9576 45.6698 42.0514 45.5553C42.637 44.8397 43.2308 44.1301 43.8215 43.4189C43.9197 43.4928 44.018 43.5666 44.1162 43.6405H44.1169Z" fill="#C3D978"/>
<path d="M42.8475 46.4499C43.4353 45.7307 44.0224 45.0099 44.6124 44.2921C44.6574 44.2375 44.7239 44.2013 44.7808 44.1562C44.876 44.2345 45.0245 44.2412 45.0762 44.3778C44.4366 45.1266 43.7934 45.8724 43.2211 46.6759C43.0971 46.6006 42.9723 46.5252 42.8482 46.4499H42.8475Z" fill="#91C961"/>
<path d="M44.032 47.1176C44.5511 46.4869 45.0673 45.8533 45.5909 45.2271C45.6788 45.1215 45.7519 45.013 45.8087 44.8896C45.9653 44.9074 46.0561 45.0337 46.1772 45.1105C45.7017 45.6983 45.2261 46.2861 44.7513 46.8746C44.6368 47.0164 44.5083 47.1501 44.4743 47.3399C44.3067 47.3059 44.1634 47.2232 44.0312 47.1176H44.032Z" fill="#5FB648"/>
<path d="M43.8215 43.4188C43.2308 44.13 42.637 44.8396 42.0514 45.5552C41.9576 45.6697 41.8764 45.79 41.7413 45.8595C41.6689 45.8122 41.5965 45.7642 41.5242 45.7169C42.1415 44.8374 42.8763 44.051 43.5225 43.1943C43.6709 43.2039 43.7484 43.3088 43.8215 43.4188Z" fill="#D3DF7F"/>
<path d="M43.2204 46.676C43.7927 45.8733 44.4359 45.1275 45.0754 44.3779C45.1493 44.4274 45.2231 44.4761 45.297 44.5256C44.9757 44.9081 44.6286 45.2722 44.3399 45.6776C44.0667 46.0609 43.6458 46.34 43.5158 46.8252C43.4013 46.8082 43.3016 46.761 43.2204 46.6768V46.676Z" fill="#88C55C"/>
<path d="M43.5158 46.825C43.6458 46.3398 44.0667 46.0607 44.3399 45.6774C44.6287 45.272 44.9757 44.9079 45.297 44.5254C45.3435 44.5557 45.39 44.5852 45.4373 44.6155C45.1869 45.1191 44.7609 45.4898 44.4322 45.9344C44.1885 46.2645 43.9205 46.5761 43.6635 46.8966C43.6089 46.884 43.5409 46.8988 43.5165 46.825H43.5158Z" fill="#7EC157"/>
</svg>
