<svg width="90" height="90" viewBox="0 0 90 90" fill="none" xmlns="http://www.w3.org/2000/svg">
<path fill-rule="evenodd" clip-rule="evenodd" d="M42.2457 68.9079C44.9386 68.9147 47.6063 68.3892 50.0955 67.3618C52.5847 66.3344 54.8464 64.8252 56.7506 62.9211C58.6548 61.0169 60.1639 58.7552 61.1913 56.266C62.2188 53.7768 62.7442 51.1091 62.7374 48.4161C62.7442 45.7232 62.2188 43.0555 61.1913 40.5663C60.1639 38.0771 58.6548 35.8154 56.7506 33.9112C54.8464 32.007 52.5847 30.4979 50.0955 29.4705C47.6063 28.443 44.9386 27.9176 42.2457 27.9244C31.1361 27.9244 22.0003 37.0593 22.0003 48.4161C22.0011 59.7738 31.1369 68.9079 42.2457 68.9079ZM63.4783 32.6155C66.4412 32.6155 68.6631 30.1471 68.6631 27.4307C68.6631 24.4679 66.4412 21.9995 63.4783 21.9995C60.5155 21.9995 58.0463 24.4679 58.0463 27.4307C58.0463 30.1463 60.5155 32.6155 63.4783 32.6155Z" fill="#2F7CBD"/>
</svg>
