<svg width="70" height="70" viewBox="0 0 70 70" fill="none" xmlns="http://www.w3.org/2000/svg">
<path d="M26.537 27.9905C27.6627 29.376 27.8936 31.1655 27.3452 32.7241C26.9988 33.6766 27.2009 34.7446 27.8647 35.495L27.9225 35.5527C28.5863 36.3609 29.6543 36.6784 30.6933 36.3898C33.5219 35.6393 36.6969 36.9382 37.9957 40.0265C38.8616 42.0758 38.5153 44.4426 37.101 46.1744C34.4167 49.436 29.712 49.1762 27.3452 46.0878C25.902 44.1829 25.7288 41.7295 26.6813 39.709C27.1431 38.7566 26.97 37.6597 26.3061 36.8516L26.2772 36.8227C25.6134 36.0434 24.6032 35.6682 23.593 35.8414C22.6693 35.9857 21.7457 35.8702 20.8798 35.495C20.1871 35.1775 19.35 35.293 18.7728 35.7836L18.6285 35.8991C18.1667 36.3032 17.878 36.8804 17.9069 37.4866C17.9357 38.4968 17.4739 39.507 16.5792 40.142C15.2226 41.0945 13.3465 40.8059 12.3074 39.507C11.2106 38.0927 11.5281 36.0723 12.9713 35.0621C13.7794 34.4848 14.7608 34.3405 15.6267 34.6002C16.2617 34.7734 16.9544 34.6291 17.4451 34.1962C18.0223 33.7055 18.2821 32.9262 18.1089 32.2046C17.6471 30.3285 18.3398 28.308 20.0139 27.0958C22.0921 25.6237 24.9495 26.0278 26.537 27.9905Z" fill="#00AFAA"/>
<path d="M44.1434 42.6243C43.0177 41.2389 42.7868 39.4494 43.3352 37.8907C43.6816 36.9383 43.4795 35.8703 42.8157 35.1199L42.758 35.0621C42.0941 34.254 41.0262 33.9365 39.9871 34.2251C37.1585 34.9756 33.9835 33.6767 32.6847 30.5883C31.8188 28.539 32.1651 26.1722 33.5794 24.4404C36.2348 21.2077 40.9396 21.4387 43.3064 24.5559C44.7495 26.4609 44.9227 28.9143 43.9702 30.9347C43.5084 31.8872 43.6816 32.984 44.3454 33.7922L44.3743 33.821C45.0382 34.6003 46.0484 34.9756 47.0586 34.8024C47.9822 34.6581 48.9058 34.7735 49.7717 35.1487C50.4645 35.4662 51.3015 35.3508 51.8788 34.8601L52.0231 34.7446C52.4849 34.3406 52.7735 33.7633 52.7447 33.1572C52.7158 32.1469 53.1776 31.1367 54.0724 30.5017C55.4289 29.5492 57.3051 29.8379 58.3441 31.1367C59.4409 32.551 59.1235 34.5715 57.6803 35.5817C56.8721 36.1589 55.8908 36.3033 55.0249 36.0435C54.3899 35.8703 53.6972 36.0146 53.2065 36.4476C52.6292 36.9383 52.3694 37.7176 52.5426 38.4391C53.0044 40.3153 52.3117 42.3357 50.6376 43.548C48.6172 44.9911 45.7309 44.587 44.1434 42.6243Z" fill="#00AFAA"/>
</svg>
