<svg width="70" height="70" viewBox="0 0 70 70" fill="none" xmlns="http://www.w3.org/2000/svg">
<rect x="10" y="10" width="50" height="50" fill="#68CB33"/>
<path d="M26.6199 31.1995C26.6199 29.0493 28.2591 28.1405 31.7877 28.1405H48.4518V23.9733H30.8088C23.1824 23.9733 19.5627 26.0791 19.5627 31.1551C19.5627 35.8544 22.9092 37.8715 30.2396 37.8715H38.1847C41.4402 37.8715 42.9654 38.4922 42.9654 40.5758C42.9654 42.5929 41.3036 43.2136 37.7294 43.2136H20.8603V47.3808H38.7994C46.3802 47.3808 50 45.2972 50 40.3763C50 35.4776 46.9267 33.7486 39.7783 33.7486H30.8543C28.0542 33.7486 26.6199 32.8841 26.6199 31.1995Z" fill="white"/>
</svg>
