<svg width="90" height="90" viewBox="0 0 90 90" fill="none" xmlns="http://www.w3.org/2000/svg">
<path d="M72.6446 57.9546C72.6446 53.7316 73.9511 49.9968 75.9438 47.7204V41.0559C73.9511 38.7794 72.6446 35.0447 72.6446 30.8217C72.6446 26.5987 73.9511 22.864 75.9438 20.5875V15.1768H68.6921C66.4156 17.1695 62.6809 18.476 58.4579 18.476C54.2349 18.476 50.5001 17.1695 48.2237 15.1768H41.5592C39.2828 17.1695 35.548 18.476 31.325 18.476C27.102 18.476 23.3739 17.1695 21.0974 15.1768H13.8457V20.5941C15.8384 22.8706 17.1449 26.6053 17.1449 30.8283C17.1449 35.0513 15.8384 38.786 13.8457 41.0625V47.727C15.8384 50.0034 17.1449 53.7381 17.1449 57.9612C17.1449 62.1842 15.8384 65.9189 13.8457 68.1954V74.4177H21.0974C23.3739 72.425 27.1086 71.1185 31.3316 71.1185C35.5546 71.1185 39.2894 72.425 41.5658 74.4177H48.2303C50.5067 72.425 54.2415 71.1185 58.4645 71.1185C62.6875 71.1185 66.4222 72.425 68.6987 74.4177H75.9504V68.1954C73.9577 65.9189 72.6512 62.1842 72.6512 57.9612L72.6446 57.9546ZM61.381 59.9143H28.4085V29.6736H61.3876V59.9143H61.381Z" fill="#31AC96"/>
</svg>
