<svg width="70" height="70" viewBox="0 0 70 70" fill="none" xmlns="http://www.w3.org/2000/svg">
<path d="M26.1414 34.0994H21.2078V31.2296H18.6582V38.7351H21.2078V35.7196H26.1414V38.7351H28.6906V31.2296H26.1414V34.0994Z" fill="#E6000D"/>
<path d="M32.9482 35.7193L34.7235 32.8048L36.4446 35.7193H32.9482ZM33.7346 31.2294L29.1622 38.7349H31.1112L32.0464 37.1992H37.3179L38.2252 38.7349H41.3375L36.7662 31.2294H33.7346Z" fill="#E6000D"/>
<path d="M51.4504 34.4823C52.0576 33.6868 51.9754 32.5215 50.8092 31.8542C49.7227 31.2305 47.6487 31.001 46.3527 31.001C44.2796 31.001 42.9449 31.1419 41.8096 31.3359V38.7351H44.3583V32.4588C45.2763 32.2769 46.2086 32.2729 46.5569 32.2891C47.5688 32.3339 48.1385 32.4913 48.5935 32.8141C49.0638 33.1496 49.1916 33.8913 48.5815 34.4061C48.1243 34.7899 47.1972 35.0915 45.1238 34.7751L44.831 35.2559L48.7512 38.7351H52.222L48.7349 35.7196C49.5728 35.6109 50.8432 35.2759 51.4504 34.4823Z" fill="#E6000D"/>
<path d="M13.071 33.8231C11.5989 33.5369 10.3479 33.3592 10.3479 32.8815C10.3479 32.3528 11.3595 32.2165 12.7929 32.3685C14.1485 32.512 15.4268 32.8667 16.6191 33.374L17.5246 31.8885C16.5609 31.5216 14.575 31.0516 12.7717 30.9981C10.7962 30.9409 7.46076 31.1181 7.31666 33.1157C7.18506 34.9442 9.79072 35.3812 11.4993 35.7786C13.1657 36.1664 14.7278 36.3067 14.7278 36.8837C14.7278 37.2893 14.1772 37.6059 12.7209 37.4967C10.9679 37.3657 9.47637 36.8866 7.98863 36.1473L7 37.7707C8.65014 38.4156 10.8142 38.9336 12.7639 38.9659C15.0819 39.0045 17.6992 38.6306 17.7585 36.6452C17.807 34.9884 16.0906 34.4097 13.071 33.8231Z" fill="#E6000D"/>
<path d="M59.6878 34.4207C59.2473 34.7815 58.6038 34.9093 57.5882 34.9064C56.8392 34.9038 56.0641 34.7661 55.4325 34.6229V32.4588C56.35 32.2769 57.2988 32.2743 57.6472 32.2888C58.6645 32.3318 59.2581 32.5041 59.6991 32.8141C60.1581 33.1363 60.3112 33.9096 59.6878 34.4207ZM61.916 31.8542C60.878 31.2398 58.9347 31.001 57.4429 31.001C55.3689 31.001 54.0186 31.1419 52.8832 31.3357V38.7351H55.4325V36.0243C56.2207 36.1559 57.2082 36.2323 58.0626 36.2259C60.1485 36.2082 61.6987 35.7181 62.4044 34.95C63.4099 33.8571 63.0723 32.5372 61.916 31.8542Z" fill="#E6000D"/>
</svg>
