<svg width="90" height="90" viewBox="0 0 90 90" fill="none" xmlns="http://www.w3.org/2000/svg">
<path fill-rule="evenodd" clip-rule="evenodd" d="M56.3383 27.8202V34.5868C52.8325 33.2635 49.7164 32.5943 46.9848 32.5943C45.3618 32.5943 44.0784 32.8939 43.1095 33.4732C42.1408 34.0575 41.6464 34.7766 41.6464 35.6256C41.6464 36.7542 42.755 37.7579 44.9573 38.6569L51.3195 41.753C56.4431 44.205 59 47.4609 59 51.5509C59 54.9517 57.6417 57.6633 54.93 59.6708C52.1984 61.6984 48.5678 62.7021 44.0085 62.7021C41.9111 62.7021 40.0234 62.6123 38.3504 62.4225C36.6775 62.2428 34.7748 61.8731 32.6276 61.3438V54.2626C36.5527 55.586 40.1133 56.2551 43.2993 56.2551C47.1247 56.2551 49.0273 55.1465 49.0273 52.9092C49.0273 51.7956 48.2533 50.8967 46.6851 50.1926L39.6189 47.1813C36.9921 46.0027 35.0545 44.5745 33.8061 42.8816C32.5376 41.1737 31.9184 39.2162 31.9184 36.9789C31.9184 33.8477 33.2268 31.3258 35.8485 29.4082C38.4554 27.5055 41.946 26.5518 46.2807 26.5518C47.7039 26.5518 49.307 26.6766 51.1247 26.9063C52.9225 27.151 54.6653 27.4506 56.3383 27.8202Z" fill="#009999"/>
</svg>
