<svg width="70" height="70" viewBox="0 0 70 70" fill="none" xmlns="http://www.w3.org/2000/svg">
<g clip-path="url(#clip0_53_440)">
<path d="M54.6455 46.8014L54.3189 45.4728L59.6 44.1774L59.1239 42.2399L53.8428 43.5353L53.3502 41.5148L58.6312 40.2194L58.1552 38.2819L52.8741 39.5773L52.3814 37.5567L57.6625 36.2614L57.1864 34.3239L51.9053 35.6192L51.4127 33.5987L56.6937 32.3033L56.2177 30.3658L50.9366 31.6612L50.4439 29.6407L55.725 28.3453L55.2489 26.4078L49.9678 27.7032L49.4752 25.6826L54.7562 24.3873L54.2802 22.4498L48.9991 23.7451L48.5064 21.7246L53.7875 20.4292L53.3114 18.4917L48.0303 19.7871L47.5377 17.7666L52.8187 16.4712L52.3427 14.5337L47.0616 15.8291L46.8623 15.0042L45.7884 15.27L44.493 9.98889L42.5555 10.465L43.8509 15.746L41.8303 16.2387L40.535 10.9576L38.5975 11.4337L39.8928 16.7148L37.8723 17.2075L36.577 11.9264L34.6395 12.4025L35.9348 17.6835L33.9143 18.1762L32.6189 12.8951L30.6814 13.3712L31.9768 18.6523L29.9562 19.145L28.6609 13.8639L26.7234 14.34L28.0187 19.621L25.9982 20.1137L24.7028 14.8326L22.7654 15.3087L24.0607 20.5898L22.0402 21.0825L20.7448 15.8014L18.8073 16.2775L20.1027 21.5585L18.0821 22.0512L16.7868 16.7701L14.8493 17.2462L16.1446 22.5273L15.0707 22.793L15.27 23.6178L10 24.9187L10.4761 26.8562L15.7571 25.5608L16.2498 27.5814L10.9687 28.8767L11.4448 30.8142L16.7259 29.5189L17.2186 31.5394L11.9375 32.8348L12.4136 34.7723L17.6946 33.4769L18.1873 35.4975L12.9062 36.7928L13.3823 38.7303L18.6634 37.435L19.1561 39.4555L13.875 40.7508L14.3511 42.6883L19.6321 41.393L20.1248 43.4135L14.8437 44.7089L15.3198 46.6464L20.6009 45.351L21.0936 47.3716L15.8125 48.6669L16.2886 50.6044L21.5696 49.3091L22.0623 51.3296L16.7812 52.6249L17.2573 54.5624L22.5384 53.2671L22.865 54.5957L23.9389 54.3299L25.2343 59.611L27.1718 59.1349L25.8764 53.8539L27.897 53.3612L29.1923 58.6423L31.1298 58.1662L29.8345 52.8851L31.855 52.3924L33.1503 57.6735L35.0878 57.1974L33.7925 51.9164L35.813 51.4237L37.1084 56.7048L39.0459 56.2287L37.7505 50.9476L39.7711 50.4549L41.0664 55.736L43.0039 55.2599L41.7086 49.9789L43.7291 49.4862L45.0244 54.7673L46.9619 54.2912L45.6666 49.0101L47.6871 48.5174L48.9825 53.7985L50.92 53.3224L49.6246 48.0414L51.6452 47.5487L52.9405 52.8298L54.878 52.3537L53.5827 47.0726L54.6566 46.8069L54.6455 46.8014ZM29.8455 44.7255H26.3802V38.7303H27.1164V44.0114H29.8455V44.7255ZM31.1852 44.7255H30.5098V40.3744H31.1852V44.7255ZM31.1852 39.5607H30.5098V38.7303H31.1852V39.5607ZM35.42 44.7255H34.7446V41.9687C34.7446 41.703 34.7114 41.4871 34.6395 41.3266C34.5232 41.0553 34.3073 40.9169 33.9973 40.9169C33.8368 40.9169 33.7095 40.9335 33.6098 40.9723C33.4271 41.0332 33.2666 41.1494 33.1282 41.3321C33.0175 41.476 32.9455 41.6255 32.9123 41.7805C32.8791 41.9355 32.8625 42.1514 32.8625 42.4392V44.731H32.1982V40.3633H32.8293V40.9833C33.0175 40.7287 33.2168 40.546 33.4271 40.4298C33.6375 40.3191 33.87 40.2637 34.1246 40.2637C34.6893 40.2637 35.0657 40.4796 35.265 40.9114C35.3757 41.1494 35.4255 41.4871 35.4255 41.9299V44.731L35.42 44.7255ZM32.4695 36.7264C30.4489 36.7264 28.8602 36.3444 27.7032 35.5805C26.5462 34.8166 25.965 33.7648 25.965 32.4307H29.0595C29.1591 33.0175 29.3528 33.4548 29.6407 33.7482C30.1666 34.2796 31.0689 34.5398 32.3421 34.5398C33.1061 34.5398 33.7261 34.4678 34.2021 34.3294C35.1045 34.0637 35.5584 33.5655 35.5584 32.8403C35.5584 32.4141 35.3314 32.0875 34.883 31.855C34.4346 31.628 33.7316 31.4287 32.7684 31.2516L31.1298 30.9471C29.5189 30.6426 28.4007 30.316 27.7862 29.9617C26.74 29.3694 26.2196 28.4394 26.2196 27.1828C26.2196 26.0314 26.7234 25.0737 27.7364 24.3153C28.7439 23.5514 30.2275 23.175 32.1871 23.175C33.8202 23.175 35.2152 23.5348 36.3666 24.2544C37.518 24.9741 38.127 26.0148 38.1823 27.3821H35.0657C35.0103 26.6071 34.6007 26.0591 33.8478 25.7325C33.3441 25.5166 32.713 25.4114 31.9657 25.4114C31.1298 25.4114 30.4655 25.5498 29.9673 25.8321C29.4691 26.1089 29.22 26.5019 29.22 27.0001C29.22 27.4596 29.4636 27.8028 29.9562 28.0298C30.2718 28.1792 30.9471 28.3564 31.9768 28.5612L34.6505 29.0926C35.8241 29.3251 36.7043 29.6351 37.3021 30.0226C38.2266 30.626 38.6916 31.5007 38.6916 32.6466C38.6916 33.7925 38.1491 34.7944 37.0641 35.5694C35.9791 36.3444 34.4512 36.7319 32.4695 36.7319V36.7264ZM39.533 44.7255H38.902V44.0833C38.8244 44.2494 38.7193 44.3878 38.592 44.5041C38.3428 44.731 38.0384 44.8473 37.6841 44.8473C37.1305 44.8473 36.7541 44.6369 36.5493 44.2217C36.4386 44.0003 36.3887 43.7014 36.3887 43.3305V40.3578H37.0696V43.2585C37.0696 43.4799 37.1028 43.6626 37.1637 43.8066C37.28 44.0667 37.4959 44.1996 37.8114 44.1996C38.2653 44.1996 38.5698 43.9726 38.7359 43.5132C38.8244 43.2696 38.8687 42.9319 38.8687 42.5057V40.3578H39.533V44.7255ZM42.9596 44.7255L41.9743 43.0869L41.0166 44.7255H40.1752L41.5702 42.4835L40.2471 40.3523H41.1107L42.0241 41.8912L42.9486 40.3523L43.7568 40.3744L42.4227 42.4835L43.8177 44.7255H42.9652H42.9596ZM43.9228 36.3942H40.8837V26.8894H43.9228V36.3942ZM43.9228 25.7546H40.8837V23.4628H43.9228V25.7546Z" fill="url(#paint0_linear_53_440)"/>
</g>
<defs>
<linearGradient id="paint0_linear_53_440" x1="47.8532" y1="11.9375" x2="21.5586" y2="57.4798" gradientUnits="userSpaceOnUse">
<stop stop-color="#4749A9"/>
<stop offset="1" stop-color="#F5F6F9"/>
</linearGradient>
<clipPath id="clip0_53_440">
<rect width="49.6" height="49.6" fill="white" transform="translate(10 10)"/>
</clipPath>
</defs>
</svg>
