<svg width="70" height="70" viewBox="0 0 70 70" fill="none" xmlns="http://www.w3.org/2000/svg">
<path d="M35.7728 32.1787C40.0593 32.3558 40.2718 32.6036 41.4052 33.0644C37.6501 33.8082 30.9548 34.5874 24.3308 33.9147C23.1968 33.7729 20.3273 33.2415 19.0167 32.4977C18.45 32.1787 17.1395 31.4702 17.2454 30.1243C17.3519 28.8137 19.1939 27.3966 19.9731 26.9359C25.1453 23.8893 30.7071 22.8623 36.552 21.9413C32.1242 22.4722 29.0422 23.1101 26.2081 23.8186C19.2292 25.59 11.8966 28.849 9.2749 32.1787C8.14146 33.5958 7.61007 35.19 8.38924 36.6424C9.771 39.2282 13.7739 40.5388 18.2729 41.1767C16.7498 40.7159 14.9073 40.2204 14.0928 39.1217C13.8092 38.7321 13.7032 37.9177 14.6243 37.1738C16.8558 35.3671 18.5919 34.7292 18.5919 34.7292L23.0555 35.792L22.2405 36.3941C21.8509 36.6424 21.6737 37.032 21.8862 37.4922C22.347 38.1654 22.9491 38.4137 23.4451 38.6615C28.7233 40.7871 38.5716 38.9093 41.7948 36.5712C42.6805 35.9339 43.6015 35.3318 43.6727 34.1625C43.7077 33.4893 43.1766 32.9938 42.8576 32.7454C41.0157 31.4349 37.8984 31.293 35.7728 31.2224C31.9117 31.1512 30.9548 30.7263 29.892 30.0884C36.9774 28.8137 43.4956 28.4948 49.8365 29.77C51.3595 30.1596 53.2021 30.7969 53.8747 32.0728C54.3708 32.9938 53.9106 34.0919 52.9891 34.977C51.0053 36.9255 47.4985 38.1654 45.231 38.9805C49.9071 37.4922 52.7766 36.6777 57.1338 34.056C59.4012 32.7101 62.5543 30.0531 61.9164 27.2901C61.1726 23.9604 55.0793 22.6493 55.0793 22.6493C55.0793 22.6493 56.4252 23.1101 57.0985 23.9246C57.7011 24.669 57.6652 25.271 57.5946 25.5188C57.0278 27.5026 54.442 27.7862 52.6706 28.4236L47.7821 27.6797C47.7821 27.6797 48.6319 27.2195 49.0573 26.9359C49.5175 26.5816 49.8012 26.1214 49.5887 25.5541C49.1633 24.7396 48.49 24.35 47.5338 24.0664C42.2203 22.5081 35.3479 23.3937 30.6006 26.1214C29.4671 26.8293 27.9441 27.7862 27.8023 29.2033C27.7317 29.8406 28.2625 30.6204 29.0422 31.0453C31.5216 32.2499 33.5059 32.1081 35.7728 32.1787Z" fill="#DC1319"/>
<path d="M60.9252 22.012C61.5125 22.012 61.9881 22.4876 61.9881 23.0748C61.9881 23.6615 61.5125 24.1377 60.9252 24.1377C60.338 24.1377 59.8624 23.6615 59.8624 23.0748C59.8624 22.4876 60.338 22.012 60.9252 22.012Z" stroke="white" stroke-width="0.142113"/>
<path d="M60.4292 23.6766V22.4367H60.9606C61.0671 22.4367 61.1377 22.4367 61.2084 22.472C61.2796 22.5079 61.3149 22.5432 61.3502 22.5785C61.3855 22.6491 61.3855 22.6845 61.3855 22.7557C61.3855 22.8616 61.3502 22.9328 61.3149 22.9681C61.2442 23.0387 61.1731 23.0746 61.0671 23.0746C61.1024 23.1099 61.1377 23.1099 61.1731 23.1452C61.2084 23.1805 61.2796 23.2517 61.3149 23.3224L61.5273 23.6766H61.3149L61.1377 23.4289C61.1024 23.3577 61.0671 23.2871 61.0312 23.2517C60.9959 23.2159 60.9606 23.1805 60.9606 23.1805C60.9253 23.1805 60.9253 23.1452 60.89 23.1452C60.8541 23.1452 60.8541 23.1452 60.7835 23.1452H60.6063V23.712H60.4292V23.6766ZM60.6063 23.0034H60.9606C61.0312 23.0034 61.1024 23.0034 61.1377 22.9681C61.1731 22.9681 61.2084 22.9328 61.2442 22.8975C61.2796 22.8616 61.2796 22.8263 61.2796 22.791C61.2796 22.7203 61.2442 22.6845 61.2084 22.6491C61.1731 22.6138 61.1024 22.5785 60.9959 22.5785H60.6063V23.0034Z" fill="white"/>
<path d="M60.4292 23.6766V22.4367H60.9606C61.0671 22.4367 61.1377 22.4367 61.2084 22.472C61.2796 22.5079 61.3149 22.5432 61.3502 22.5785C61.3855 22.6491 61.3855 22.6845 61.3855 22.7557C61.3855 22.8616 61.3502 22.9328 61.3149 22.9681C61.2442 23.0387 61.1731 23.0746 61.0671 23.0746C61.1024 23.1099 61.1377 23.1099 61.1731 23.1452C61.2084 23.1805 61.2796 23.2517 61.3149 23.3224L61.5273 23.6766H61.3149L61.1377 23.4289C61.1024 23.3577 61.0671 23.2871 61.0312 23.2517C60.9959 23.2159 60.9606 23.1805 60.9606 23.1805C60.9253 23.1805 60.9253 23.1452 60.89 23.1452C60.8541 23.1452 60.8541 23.1452 60.7835 23.1452H60.6063V23.712H60.4292V23.6766Z" stroke="white" stroke-width="0.047244"/>
<path d="M60.6066 23.0033H60.9608C61.0315 23.0033 61.1027 23.0033 61.138 22.968C61.1733 22.968 61.2092 22.9326 61.2445 22.8968C61.2798 22.8614 61.2798 22.8261 61.2798 22.7908C61.2798 22.7196 61.2445 22.6843 61.2092 22.649C61.1733 22.6137 61.1027 22.5784 60.9962 22.5784H60.6066V23.0033Z" stroke="white" stroke-width="0.047244"/>
<path d="M13.5972 48.4738H14.4473V42.4871H13.5972V48.4738Z" fill="white"/>
<path d="M19.5841 48.5099V47.6242H17.4584V42.4879H16.6086V48.5099" fill="white"/>
<path d="M20.8948 48.4738H21.7451V42.4871H20.8948V48.4738Z" fill="white"/>
<path d="M26.4568 46.774V47.6243H24.7561V43.3378H26.4568V44.0463H27.3072V43.3731C27.3072 42.9482 26.8817 42.5233 26.4568 42.5233H24.7561C24.3312 42.5233 23.9063 42.9482 23.9063 43.3731V47.695C23.9063 48.1199 24.3312 48.5453 24.7561 48.5453H26.4568C26.8817 48.5453 27.3072 48.1199 27.3072 47.695V46.774H26.4568Z" fill="white"/>
<path d="M35.0294 44.6481L36.7301 48.5092H37.5799V42.4871H36.7301V46.3482L35.0294 42.4871H34.1437V48.5092H35.0294" fill="white"/>
<path d="M47.0032 48.5099V47.6242H44.8776V42.4879H44.0278V48.5099" fill="white"/>
<path d="M31.5929 48.5099C32.0178 48.5099 32.4432 48.085 32.4432 47.6595V43.3377C32.4432 42.9128 32.0178 42.4879 31.5929 42.4879H29.8921C29.4673 42.4879 29.0424 42.9128 29.0424 43.3377V47.6595C29.0424 48.085 29.4673 48.5099 29.8921 48.5099H31.5929ZM31.5929 47.6242H29.8924V43.3378H31.5929V47.6242Z" fill="white"/>
<path d="M49.8017 42.487L48.0657 48.4737H48.9513L49.3409 47.1631H51.1123L51.4312 48.4737H52.3522L50.6521 42.487H49.8017ZM50.2266 43.9041L50.8645 46.3481H49.5539L50.2266 43.9041Z" fill="white"/>
<path d="M57.2765 46.1365L56.6392 45.4992L57.2765 44.8613V43.3736C57.2765 42.9481 56.8516 42.5232 56.4262 42.5232H53.8403V48.5099H56.4262C56.8516 48.5099 57.2765 48.085 57.2765 47.6595V46.1365ZM54.726 43.3377H56.4263V45.0381H54.726V43.3377ZM54.726 45.9241H56.4263V47.6244H54.726V45.9241Z" fill="white"/>
<path d="M8.88567 43.8338C8.88567 44.2945 8.88567 44.3299 9.20463 44.507L10.8695 45.3574C11.2944 45.5698 11.4362 45.8529 11.4362 46.1718V47.6595C11.4362 48.085 11.0113 48.5099 10.5858 48.5099H8.88567C8.46078 48.5099 8.03531 48.085 8.03531 47.6595V46.7739H8.88567V47.6242H10.5858V46.8097C10.5858 46.243 10.5858 46.243 10.2316 46.03L8.88567 45.3574C8.35427 45.0737 8 44.7901 8 44.3652V43.3024C8 42.8775 8.4249 42.452 8.85036 42.452H10.5505C11.1531 42.452 11.4009 42.771 11.4009 43.3024V44.0109H10.5505L10.5152 43.3024H8.88567V43.8338Z" fill="white"/>
<path d="M59.4371 43.8338C59.4371 44.2945 59.4371 44.3299 59.756 44.507L61.4209 45.3574C61.8458 45.5698 61.9876 45.8529 61.9876 46.2071V47.6595C61.9876 48.085 61.5627 48.5099 61.1372 48.5099H59.4371C59.0122 48.5099 58.5867 48.085 58.5867 47.6595V46.7739H59.4371V47.6242H61.1372V46.8097C61.1372 46.243 61.1372 46.243 60.783 46.03L59.4371 45.3574C58.9057 45.0737 58.5514 44.7901 58.5514 44.3652V43.3024C58.5514 42.8775 58.9763 42.452 59.4018 42.452H61.1019C61.7039 42.452 61.9523 42.771 61.9523 43.3024V44.0109H61.1372V43.3024H59.4371V43.8338Z" fill="white"/>
</svg>
