<svg width="70" height="70" viewBox="0 0 70 70" fill="none" xmlns="http://www.w3.org/2000/svg">
<path d="M12.4219 31.3203V31.7563H17.3637C17.4495 31.7563 17.9502 32.0582 18.0643 32.1432C19.7608 33.4228 19.284 36.3396 17.1508 36.7745L10.645 36.7559C10.5776 36.7363 10.4408 36.6153 10.4104 36.5554C10.3246 36.3832 10.3191 35.1177 10.3561 34.8616C10.3724 34.746 10.5646 34.4823 10.6298 34.4823H16.6034L16.7663 34.3188L16.6034 34.0463H11.7159C11.6757 34.0463 11.0979 33.7215 11.0132 33.6615C9.31991 32.4593 9.83256 29.427 11.9288 29.027L18.4357 29.0466C18.503 29.0662 18.6399 29.1872 18.6703 29.2472C18.7561 29.4194 18.7615 30.6848 18.7246 30.941C18.7083 31.0565 18.5161 31.3203 18.4509 31.3203H12.4219Z" fill="#2D81B7"/>
<path d="M45.114 36.4976L44.899 36.7178C44.7176 36.8104 43.235 36.8126 43.0471 36.7178C42.9874 36.6873 42.8658 36.5499 42.8473 36.4824V29.3191C42.8668 29.2526 42.9885 29.1142 43.0471 29.0837C43.2339 28.9899 44.8218 28.9888 45.0065 29.0837L48.3517 32.8124L48.5885 32.9552C48.532 31.6353 48.6537 30.3382 48.6971 29.0313H50.7064L50.9258 29.2471L50.9791 36.3908C50.9704 36.5107 50.8607 36.6687 50.7618 36.7178C50.5772 36.8104 48.9882 36.8137 48.8025 36.7178C48.2257 36.1009 47.6295 35.4905 47.0658 34.8638C46.5314 34.2697 46.0503 33.5209 45.4388 33.0086C45.3291 32.9171 45.2997 32.8004 45.1129 32.8451V36.4965L45.114 36.4976Z" fill="#868789"/>
<path d="M28.605 33.0642V29.0313H30.6143L30.8337 29.2471L30.8869 36.3908C30.8782 36.5107 30.7685 36.6687 30.6697 36.7178C30.4851 36.8104 28.8961 36.8137 28.7103 36.7178L25.0197 32.7372V36.4976L24.8047 36.7178C24.6233 36.8104 23.1407 36.8126 22.9528 36.7178C22.8931 36.6872 22.7714 36.5499 22.753 36.4823V29.319C22.8323 29.1719 22.9441 29.0542 23.1168 29.0302C23.3829 28.9921 24.7438 28.9975 24.9133 29.0847C25.2663 29.3528 25.503 29.7648 25.7778 30.07C26.6228 31.0063 27.4928 31.9055 28.2944 32.8854C28.391 33.0031 28.403 33.111 28.6028 33.0664L28.605 33.0642Z" fill="#2D81B7"/>
<path d="M57.2894 29.0434L59.7136 29.027L59.9841 29.5382L57.4002 32.8092C57.3589 33.0773 58.6557 34.4409 58.9088 34.7526C59.1304 35.0251 59.3378 35.3532 59.5572 35.6279C59.7343 35.8491 60.0253 35.9451 59.9982 36.2775C59.9819 36.4824 59.8331 36.744 59.6159 36.7734C58.9707 36.8628 58.1257 36.7146 57.4556 36.756L55.9763 34.9706L55.7037 34.8093L54.0593 36.756C53.6227 36.7037 51.9902 36.8966 51.7328 36.7211C51.6134 36.6394 51.4483 36.2568 51.5743 36.1173L54.1342 32.9008L54.0767 32.625L51.6818 29.7976C51.5395 29.5371 51.7078 29.0706 52.0076 29.0292C52.6528 28.9398 53.4978 29.0881 54.1679 29.0466C54.3428 29.0979 55.2084 30.3601 55.43 30.614C55.5071 30.7023 55.683 30.9192 55.8036 30.8821L57.2894 29.0434Z" fill="#87888A"/>
<path d="M38.8688 34.4812C38.9068 34.4921 39.2153 34.8115 39.2348 34.8769C39.2924 35.072 39.2783 36.284 39.1979 36.4453C39.1664 36.5075 38.9242 36.7353 38.8547 36.7549H31.8243C31.6418 36.6568 31.5104 36.5053 31.5332 36.284L31.5527 29.318C31.5723 29.2504 31.6928 29.1131 31.7526 29.0826C31.9242 28.9965 33.1852 28.991 33.4404 29.0281C33.5555 29.0444 33.8184 29.2374 33.8184 29.3028V34.3166L33.9813 34.4801H38.8688V34.4812Z" fill="#868789"/>
<path d="M20.0931 29.0466C20.2984 28.9866 21.7125 29.003 21.8732 29.0836C21.933 29.1131 22.0546 29.2515 22.0731 29.3191L22.0361 36.5554C21.9666 36.6241 21.896 36.7287 21.8015 36.7559C21.5963 36.8159 20.1821 36.7995 20.0214 36.7189C19.9617 36.6895 19.84 36.551 19.8215 36.4834L19.8585 29.2471C19.928 29.1785 19.9986 29.0738 20.0931 29.0466Z" fill="#2D81B7"/>
<path d="M40.1863 29.0466C40.3916 28.9866 41.8058 29.003 41.9665 29.0836C42.0262 29.1131 42.1479 29.2515 42.1663 29.3191L42.1294 36.5554C42.0599 36.6241 41.9893 36.7287 41.8948 36.7559C41.6895 36.8159 40.2754 36.7995 40.1147 36.7189C40.0549 36.6895 39.9333 36.551 39.9148 36.4834L39.9517 29.2471C40.0213 29.1785 40.0919 29.0738 40.1863 29.0466Z" fill="#868789"/>
<path d="M59.5594 37.6421V39.713H56.3011V37.6421H59.5594ZM57.713 37.9702H56.8441V38.4062H57.713V37.9702ZM59.0164 37.9702H58.1475V38.4062H59.0164V37.9702ZM57.713 38.8421H56.8441V39.2781H57.713V38.8421ZM59.0164 38.8421H58.1475V39.2781H59.0164V38.8421Z" fill="#3E85B6"/>
<path d="M54.6719 37.5331V39.277H51.4135V38.95H54.1288V38.6231H51.6308V38.1871H54.1288V37.8601H51.4135V37.4241C51.5808 37.3467 51.7654 37.5331 51.7937 37.5331H54.6719Z" fill="#3681B3"/>
<path d="M47.8293 37.4241V37.9691H48.6982V37.4241H49.2413V37.9691H50.436V38.405H49.2413V39.0013C49.2413 39.0994 49.0382 39.0743 48.9665 39.0612C48.6037 38.9958 48.6993 38.7004 48.6982 38.404H47.8293V39.059H47.2863V38.405H46.2001V37.9691H47.2852L47.3894 37.4731L47.8293 37.4241Z" fill="#3681B3"/>
<path d="M53.803 40.4761C53.8193 40.4946 53.7433 40.6156 53.8703 40.6984C54.0311 40.8031 54.4395 40.9404 54.6404 40.9971C55.0292 41.1072 55.3638 40.9153 55.0998 41.5595C54.3602 41.626 53.5825 41.2391 53.0959 40.6941C52.7028 41.1388 52.0337 41.5562 51.4461 41.6587C51.1844 41.7045 51.0703 41.517 50.9791 41.2925C50.8879 41.0679 51.142 41.1497 51.2528 41.1333C51.6242 41.081 52.2813 40.8467 52.5029 40.5349C52.7245 40.2232 52.6897 39.7589 52.8309 39.3926L53.3675 39.3861C53.3653 39.6957 53.3077 40.2199 53.5869 40.4238C53.6651 40.4804 53.7943 40.4674 53.8019 40.4761H53.803Z" fill="#3681B3"/>
<path d="M47.8293 39.3861V40.9666C47.8293 41.1856 48.9155 41.2074 49.0838 41.0265C49.2565 40.7627 48.9231 40.2385 49.6736 40.8652L49.2956 41.4581H47.5578L47.3949 41.2946V39.3872H47.8293V39.3861Z" fill="#2D81B7"/>
<path d="M59.3422 40.803C59.3378 41.8254 57.6 41.6303 56.9592 41.4504L56.8441 40.04H57.3872L57.3969 40.9556L57.5599 41.1191H58.5167L58.8534 40.5839C59 40.6635 59.2075 40.7343 59.3411 40.8019C59.3411 40.5752 58.709 40.0585 59.1782 39.9299C59.5268 39.834 59.7994 40.4378 59.9797 40.6515L59.9971 40.7441C59.844 41.2673 59.6159 40.9414 59.3411 40.8008L59.3422 40.803Z" fill="#3681B3"/>
<path d="M47.1776 39.4961L46.8485 41.0177L46.3087 41.021L46.64 39.5015L47.1776 39.4961Z" fill="#3681B3"/>
<path d="M49.893 40.803L49.2521 39.6574C49.8408 38.8824 50.0418 40.0585 50.4317 40.428C50.4979 40.6351 49.9418 40.8607 49.893 40.803Z" fill="#3681B3"/>
<path d="M55.758 41.1299L56.1881 39.9953C56.2533 39.8416 56.818 39.8732 56.6877 40.2634C56.6366 40.4182 56.2272 41.2117 56.1273 41.2335L55.7591 41.1299H55.758Z" fill="#3E85B6"/>
<path d="M48.481 40.1501C48.4603 39.7349 47.9846 39.5027 48.0465 39.0602C48.5842 38.9512 48.7319 39.4417 49.0197 39.7752C49.087 39.9812 48.5299 40.2079 48.481 40.1501Z" fill="#3681B3"/>
<path d="M53.803 40.476L54.1288 39.495L54.6219 39.7119L54.2407 40.537L53.803 40.476Z" fill="#3E85B6"/>
<path d="M52.1727 39.6051L51.95 40.4706L51.4135 40.4771C51.3429 40.4062 51.6742 39.5332 51.8013 39.4994L52.1727 39.6062V39.6051Z" fill="#3681B3"/>
<path d="M58.4733 40.585L58.1073 40.6853L57.6044 39.931L58.1529 39.87C58.2756 40.1109 58.5276 40.2864 58.4733 40.5839V40.585Z" fill="#3681B3"/>
</svg>
