<svg width="70" height="70" viewBox="0 0 70 70" fill="none" xmlns="http://www.w3.org/2000/svg">
<path d="M35.3831 53.2943C25.2987 53.319 17.5317 45.4984 17.5111 35.2987C17.4864 25.416 25.4963 17.4185 35.4161 17.4185C45.1877 17.4185 52.9835 25.4613 53 35.5498C53.0123 45.5478 45.3482 53.2696 35.3831 53.2943ZM46.7559 35.5457C46.8341 28.927 41.9236 23.6461 35.5972 23.5391C28.8592 23.4279 23.8869 28.3878 23.8211 35.2864C23.7552 42.115 28.7027 47.2683 35.3831 47.3259C41.6519 47.3794 46.6777 42.1726 46.7559 35.5416V35.5457Z" fill="#F0EFF0"/>
<path d="M35.5765 41.296C33.6254 41.3742 31.9955 40.942 30.4766 40.0694C26.4223 37.7479 26.3688 33.0885 30.3902 30.73C33.0327 29.1824 35.8193 29.0054 38.68 30.0303C41.5407 31.0552 43.1953 33.1297 43.1295 35.5376C43.0677 37.8591 41.1661 40.0406 38.4083 40.8597C37.4287 41.1478 36.4285 41.436 35.5765 41.296ZM33.0657 35.4759C33.218 36.7395 33.9012 37.5874 35.3007 37.5627C36.696 37.538 37.4904 36.6407 37.4658 35.3359C37.4452 34.027 36.5726 33.0927 35.2266 33.1544C33.963 33.212 33.078 33.9694 33.0615 35.4759H33.0657Z" fill="#F0EFF0"/>
</svg>
