<svg width="70" height="70" viewBox="0 0 70 70" fill="none" xmlns="http://www.w3.org/2000/svg">
<g clip-path="url(#clip0_245_2827)">
<path d="M32.5177 47.8042L29.4295 47.8533C25.816 47.7349 22.2219 47.2065 18.8845 45.8873C17.8722 45.4875 16.9584 45.016 15.9754 44.5607C15.9704 44.5352 15.9898 44.4998 15.9675 44.4718C15.951 44.4512 15.5978 44.269 15.5118 44.2076C13.91 43.0711 12.5624 41.8885 11.754 40.06C9.91593 35.901 12.5191 31.7947 15.6262 29.1136C17.2932 27.6755 19.1497 26.4477 21.1489 25.5047V38.7408C21.1489 38.8474 20.8684 39.4446 20.7918 39.5669C20.6132 39.8503 20.348 40.0634 20.1043 40.2879H23.3377L23.3123 33.0927L23.288 26.0941C23.2915 26.0774 23.283 26.0577 23.288 26.045L23.3049 26.0278C23.3168 26.0189 23.3307 26.0081 23.3377 25.9958C23.3452 25.9811 23.3203 25.9227 23.3432 25.905L23.4093 25.8942C23.6735 25.8613 23.8053 25.933 24.0341 25.9958C24.1714 26.32 24.5505 26.4713 24.8042 26.6844C26.1175 27.7885 26.888 29.1504 26.7706 30.9067C27.1626 30.9995 27.3537 30.9195 27.6611 30.6818C28.2456 30.2299 28.4351 29.4878 28.2128 28.7953C28.5003 28.8911 28.5077 29.2693 28.5625 29.4966C28.5729 29.5404 28.653 29.534 28.6749 29.5929C28.7938 29.9136 28.8624 30.3635 28.9948 30.6498C29.0604 30.7913 29.3892 30.6425 29.4823 30.5644C29.5658 30.4941 29.7519 30.171 29.8136 30.0565C31.4556 27.0321 28.2331 23.9503 25.0679 24.88C24.4998 25.047 24.0247 25.406 23.387 25.3083C23.384 24.7577 23.3188 24.2135 23.3352 23.6605C23.3387 23.5407 23.4606 23.1266 23.3113 23.0981C22.8621 23.301 22.4129 23.5028 21.9667 23.7111C21.6588 23.855 21.3524 24.0013 21.0484 24.1531C20.0376 24.6565 18.9795 25.1953 18.0612 25.8205C17.8603 25.958 17.4225 26.1682 17.2678 26.3161C17.2171 26.3652 17.2325 26.3902 17.219 26.4379C16.8106 26.6039 16.4365 26.8863 16.0789 27.1539C13.5712 29.0345 11.3307 31.528 10.3184 34.5308C10.2522 34.7267 10.0239 35.3868 10.006 35.5238C9.98757 35.6609 10.0184 35.8244 10.006 35.9659V38.7162C10.4875 40.8497 11.7018 42.7062 13.3648 44.1172C18.5065 48.4795 26.9442 49.3925 33.5101 48.9804C33.7897 48.9628 34.2374 48.9289 34.5055 48.8827C34.5617 48.8729 34.5981 48.8572 34.6299 48.809V47.6058L32.5177 47.8042ZM28.1088 29.6013C28.0541 29.9583 27.8148 30.337 27.4909 30.5133C28.2923 29.0198 27.2885 27.5807 26.1468 26.6358L25.4768 26.1437C26.5453 26.4408 27.3348 27.232 27.8342 28.1883C28.0585 28.617 28.1919 29.0635 28.1088 29.6013ZM26.795 24.8662C28.1352 25.0455 29.3504 25.9816 29.8205 27.232C29.918 27.4923 30.0414 27.9859 30.0553 28.2776C30.0787 28.7865 29.9588 29.3503 29.6802 29.7781C29.6529 29.3945 29.736 29.0094 29.7071 28.6214C29.5857 27.0032 28.2446 25.7149 26.7602 25.1948L25.5265 24.8662C25.9235 24.904 26.41 24.8147 26.795 24.8662ZM24.6316 25.2596C25.9837 25.1481 27.2174 25.4359 28.2918 26.2615C28.3998 26.3441 28.6913 26.6068 28.7605 26.7075C29.3375 27.5513 29.6872 28.2212 29.6046 29.3105C29.5808 29.6283 29.5225 30.1695 29.1788 30.2653C29.0778 30.2938 29.1216 30.2451 29.1067 30.1975C29.0564 30.0359 29.0773 29.8689 29.0455 29.7167C28.6067 27.6151 26.5881 26.1987 24.5774 25.7183L24.6316 25.2596ZM24.5316 25.9674C24.6788 25.8922 25.7334 26.5317 25.92 26.6628C26.9776 27.4074 28.0944 28.8292 27.5402 30.1695C27.4402 30.4111 27.284 30.722 26.9691 30.6616C27.2596 29.0733 26.1384 27.6618 25.0027 26.6849C24.8883 26.5862 24.455 26.3205 24.4038 26.2414C24.3475 26.1555 24.4729 26.0258 24.5316 25.9674Z" fill="#005CA1"/>
<path d="M29.6802 29.7779C29.6529 29.3944 29.736 29.0093 29.7071 28.6213C29.5857 27.003 28.2446 25.7148 26.7602 25.1947L25.5265 24.8661C25.9235 24.9039 26.41 24.8145 26.795 24.8661C28.1351 25.0454 29.3504 25.9815 29.8205 27.2319C29.918 27.4922 30.0414 27.9858 30.0553 28.2775C30.0787 28.7863 29.9588 29.3502 29.6802 29.7779Z" fill="#E9DE06"/>
<path d="M29.6046 29.3107C29.5808 29.6284 29.5225 30.1697 29.1788 30.2654C29.0778 30.2939 29.1216 30.2453 29.1067 30.1977C29.0564 30.0361 29.0773 29.8691 29.0455 29.7168C28.6067 27.6153 26.5881 26.1988 24.5774 25.7185L24.6316 25.2598C25.9837 25.1483 27.2174 25.4361 28.2919 26.2617C28.3998 26.3442 28.6913 26.607 28.7605 26.7077C29.3375 27.5514 29.6872 28.2213 29.6046 29.3107Z" fill="#E9DE06"/>
<path d="M28.1088 29.6011C28.0541 29.9582 27.8148 30.3369 27.4909 30.5132C28.2923 29.0196 27.2885 27.5806 26.1468 26.6357L25.4768 26.1436C26.5453 26.4407 27.3347 27.2319 27.8342 28.1881C28.0585 28.6169 28.1919 29.0634 28.1088 29.6011Z" fill="#E9DE06"/>
<path d="M27.5402 30.1697C27.4402 30.4113 27.284 30.7222 26.9691 30.6618C27.2596 29.0735 26.1384 27.662 25.0027 26.6851C24.8883 26.5864 24.455 26.3207 24.4037 26.2416C24.3475 26.1556 24.4729 26.026 24.5316 25.9675C24.6788 25.8924 25.7334 26.5319 25.92 26.663C26.9776 27.4075 28.0944 28.8294 27.5402 30.1697Z" fill="#E9DE06"/>
<path d="M59.8632 29.6942C59.7523 29.3858 59.6926 29.0238 59.5025 28.7463C59.4996 28.7306 59.505 28.7134 59.5025 28.6972C59.3269 27.5607 57.5023 25.5584 56.591 24.8187C56.2184 24.5162 55.7527 24.2966 55.4234 24.0314C55.4155 24.025 55.408 23.9239 55.3533 23.8816C55.017 23.6233 54.6509 23.4096 54.2559 23.2456C54.1534 23.4583 54.0634 23.6739 53.9564 23.8846C53.8992 23.9975 53.6575 24.2583 53.7381 24.3693C56.3134 25.7342 58.7434 28.2542 58.9548 31.2757C59.3697 37.2135 52.6879 41.9009 47.8801 44.1115C44.7167 45.5657 41.2525 46.5814 37.8136 47.1634V31.202H34.2817C34.6413 31.531 35.0308 31.7717 35.2681 32.2172C35.384 32.4352 35.5751 33.0074 35.5751 33.2402V48.8337C38.5284 48.5454 41.4251 47.766 44.2283 46.8422C48.6586 45.3825 52.8581 43.2367 56.1696 39.9933C57.65 38.5435 58.8384 37.0337 59.6269 35.0819C59.7597 34.7524 59.809 34.3575 60 34.0506V29.8268C59.8816 29.8514 59.8916 29.7728 59.8632 29.6942Z" fill="#005CA1"/>
<path d="M44.3984 21.4841C45.7151 21.6447 47.0229 21.9074 48.3094 22.2149C48.3417 21.8077 48.4785 21.4227 48.6586 21.0612C47.601 20.7926 46.524 20.5657 45.441 20.4056C39.5258 19.5313 33.145 20.1143 27.4168 21.7483C26.2742 22.0744 25.1604 22.4821 24.0341 22.8534V24.1794C30.402 21.7331 37.5723 20.6521 44.3984 21.4841Z" fill="#005CA1"/>
<path d="M40.9684 39.1059C40.1954 39.3107 39.4447 39.2267 38.6593 39.3063V40.2885C39.2955 40.2645 39.9407 40.32 40.5764 40.2905C40.7287 40.2836 41.2102 40.2625 41.3112 40.2384C41.349 40.2296 41.3415 40.1505 41.3793 40.1422C41.549 40.1039 41.7803 40.122 41.9932 40.0685C43.4259 39.7109 44.4307 38.9634 45.0267 37.6364C45.6236 36.3069 45.7082 34.4023 44.9481 33.1219C43.7353 31.0783 40.7555 31.1794 38.6593 31.2025V32.2339C40.5461 32.0561 42.4732 32.4048 43.013 34.443C43.493 36.2543 42.9961 38.5686 40.9684 39.1064V39.1059Z" fill="#005CA1"/>
<path d="M49.4794 26.4868C49.8087 26.8576 50.0683 27.6479 50.1002 28.1331L50.1241 40.1914C50.137 40.2106 50.3076 40.2877 50.325 40.2877H53.6331C53.2605 39.9144 52.8765 39.6777 52.6287 39.192C52.4929 38.9253 52.3397 38.3944 52.3397 38.1022V25.8979H48.8078C49.0028 26.1253 49.2799 26.2614 49.4799 26.4868H49.4794Z" fill="#005CA1"/>
<path d="M27.2178 38.8146C26.9228 38.9104 26.6164 39.0587 26.3229 39.1343C25.6026 39.319 24.8241 39.3111 24.0839 39.3057V40.288C26.3443 40.3715 29.0112 40.2227 30.2926 38.0931C31.0935 36.7617 31.2527 34.4214 30.4115 33.0836C29.1569 31.0881 26.2304 31.1745 24.1341 31.202V32.1843C25.0499 32.1799 26.0896 32.147 26.9388 32.534C27.0477 32.5836 27.7058 32.9627 27.7655 33.0192C28.7699 33.9632 28.8231 36.4896 28.2645 37.6619C28.0003 38.2159 27.6228 38.4242 27.2183 38.8146H27.2178Z" fill="#005CA1"/>
<path d="M52.3711 23.572C53.8992 22.134 51.5677 19.9976 50.2176 21.3968C48.8367 22.828 50.9464 24.9128 52.3711 23.572Z" fill="#005CA1"/>
</g>
<defs>
<clipPath id="clip0_245_2827">
<rect width="50" height="29.0698" fill="white" transform="translate(10 20)"/>
</clipPath>
</defs>
</svg>
