<svg width="70" height="70" viewBox="0 0 70 70" fill="none" xmlns="http://www.w3.org/2000/svg">
<g clip-path="url(#clip0_636_7394)">
<path d="M13.1975 28.6C13.6529 28.6 14.1083 28.6 14.5637 28.6C14.649 28.6146 14.734 28.6346 14.8202 28.6425C15.364 28.6933 15.8972 28.7881 16.3958 29.0202C16.9142 29.2617 17.2879 29.6356 17.4257 30.1995C17.571 30.795 17.48 31.3822 17.3206 31.9619C17.3096 32.0014 17.2341 32.0465 17.1859 32.0491C16.2903 32.1041 15.3943 32.153 14.4984 32.2026C14.2859 32.2143 14.0734 32.2229 13.8597 32.2327C13.8704 31.9983 13.8943 31.7809 13.8863 31.5642C13.873 31.2012 13.6753 30.9575 13.325 30.8442C12.9679 30.7288 12.6021 30.7276 12.2378 30.7916C11.7988 30.8687 11.4265 31.0748 11.1559 31.4296C10.8546 31.8246 10.9446 32.174 11.4071 32.3576C11.6986 32.4731 12.0067 32.5502 12.3122 32.6269C13.1512 32.8383 13.9903 33.0486 14.7735 33.4248C15.9025 33.9672 16.337 34.8859 15.9901 36.0765C15.5905 37.4465 14.7401 38.4904 13.5296 39.251C13.3831 39.3428 13.2324 39.4282 13.0442 39.5399C13.1277 39.5478 13.1626 39.5531 13.1979 39.5542C13.6969 39.567 14.1967 39.5696 14.695 39.5971C14.8805 39.6072 14.9568 39.5422 15.0232 39.38C16.0102 36.9748 17.0049 34.5721 17.9934 32.1672C18.0511 32.0273 18.1228 31.9724 18.2818 31.9731C19.5531 31.9803 20.8243 31.9739 22.0956 31.981C22.2557 31.9818 22.3293 31.9272 22.384 31.7843C22.535 31.3863 22.7039 30.9947 22.8568 30.5975C22.9001 30.4846 22.9657 30.4338 23.0834 30.4056C23.8871 30.2134 24.6893 30.0125 25.4919 29.8162C25.8012 29.7405 26.1116 29.6683 26.4505 29.5874C26.1435 30.3962 25.8494 31.1708 25.5413 31.9829H30.566C30.3929 32.4193 30.2332 32.8229 30.0734 33.2266C30.1409 33.2141 30.1755 33.1825 30.2096 33.1506C30.4768 32.9019 30.7295 32.636 31.0138 32.4088C31.5811 31.9558 32.23 31.7249 32.9688 31.805C33.3756 31.8494 33.7445 31.992 34.0773 32.2466C33.8033 32.5739 33.5434 32.8842 33.283 33.195C33.4648 33.1197 33.6132 33.0136 33.7665 32.9151C35.4089 31.8588 37.1951 31.5417 39.0982 31.9615C40.3091 32.2286 41.002 33.0528 41.0593 34.1862C41.0692 34.3814 41.0609 34.5774 41.0609 34.7734C41.1064 34.7365 41.128 34.6944 41.1463 34.6508C41.487 33.8224 41.8308 32.9948 42.1652 32.1639C42.2198 32.0284 42.2832 31.9724 42.438 31.9739C43.3108 31.9822 44.1836 31.9777 45.0564 31.9784C45.116 31.9784 45.1756 31.9856 45.2564 31.9908C45.078 32.4321 44.9096 32.8496 44.7282 33.2988C45.1061 33.0366 45.4386 32.7864 45.79 32.566C46.7793 31.9449 47.8517 31.6583 49.0243 31.8437C49.894 31.9814 50.3665 32.5509 50.3422 33.4241C50.3282 33.9311 50.1775 34.4111 49.9881 34.8772C49.332 36.4906 48.6702 38.1022 48.0111 39.7145C47.9864 39.775 47.9682 39.8382 47.9382 39.9259C48.0646 39.9259 48.1606 39.9142 48.2524 39.9281C48.4505 39.9586 48.5359 39.8717 48.6087 39.6923C49.6322 37.173 50.6644 34.6575 51.692 32.1398C51.7375 32.0281 51.7914 31.9746 51.925 31.975C54.0755 31.9795 56.2257 31.9792 58.3762 31.9758C58.5025 31.9758 58.5564 32.016 58.5746 32.1383C58.6232 32.4667 58.6794 32.7936 58.7336 33.1212C58.7978 33.5068 58.8634 33.892 58.9329 34.3043C59.0057 34.2441 59.0551 34.2072 59.1002 34.1655C59.8432 33.476 60.5836 32.7838 61.3316 32.0992C61.4018 32.0348 61.516 31.9844 61.6101 31.9837C62.6791 31.9758 63.7477 31.9784 64.8167 31.9792C64.8672 31.9792 64.918 31.9889 65.0019 31.9976C64.9161 32.0758 64.8611 32.1266 64.8049 32.1763C63.4164 33.4011 62.0294 34.6274 60.6375 35.8481C60.5305 35.9422 60.5119 36.0212 60.5517 36.1543C60.883 37.2577 61.2067 38.3636 61.5315 39.4688C61.6158 39.7551 61.6966 40.0421 61.7816 40.337C61.7365 40.3483 61.7137 40.3592 61.6906 40.3592C60.5077 40.3604 59.3253 40.3592 58.1424 40.3626C58.0327 40.3626 58.0043 40.3115 57.9895 40.2182C57.9151 39.7543 57.8369 39.2913 57.7588 38.8282C57.6958 38.4539 57.6309 38.0796 57.5622 37.6801C57.5007 37.7279 57.4605 37.7546 57.4252 37.7869C56.5387 38.5995 55.6511 39.4109 54.7685 40.2276C54.6633 40.325 54.5586 40.3637 54.4159 40.3634C52.3542 40.3596 50.2921 40.3615 48.2304 40.3596C48.035 40.3596 47.838 40.3585 47.6445 40.3355C47.0111 40.2603 46.3785 40.1757 45.7463 40.0925C45.3873 40.0455 45.0287 39.9943 44.6564 39.9432C44.6857 39.8657 44.7039 39.813 44.7251 39.7615C45.1718 38.6852 45.6241 37.6109 46.0636 36.5316C46.2522 36.0686 46.4434 35.6029 46.5793 35.1232C46.7106 34.6602 46.4571 34.3566 45.9706 34.3167C45.8643 34.3081 45.7547 34.3111 45.6495 34.3276C45.2025 34.398 44.8299 34.6116 44.5225 34.9359C44.1889 35.288 43.962 35.7082 43.7791 36.1506C43.2311 37.4766 42.6869 38.8041 42.1507 40.135C42.0821 40.3054 42.0005 40.3683 41.8092 40.3656C40.8859 40.354 39.9627 40.3604 39.039 40.3604H38.8143C39.2067 39.4041 39.5854 38.4817 39.9721 37.5387C39.6268 37.9103 39.3251 38.2835 38.9745 38.604C37.2319 40.1986 35.1759 40.8178 32.8379 40.4367C31.2263 40.1741 30.3713 38.9681 30.6214 37.3686C30.7796 36.3571 31.2232 35.4637 31.841 34.6508C31.8847 34.5932 31.9264 34.5338 31.9697 34.4747C31.6691 34.2851 31.3257 34.2385 30.9709 34.3321C30.4275 34.4751 30.0241 34.823 29.7319 35.2703C29.3865 35.7988 29.059 36.3477 28.7999 36.9214C28.3126 38.0006 27.8789 39.1032 27.4273 40.1978C27.3817 40.3084 27.3317 40.3652 27.1966 40.3641C26.2289 40.3577 25.2612 40.3611 24.2935 40.36C24.2412 40.36 24.1888 40.3498 24.1167 40.3423C24.9413 38.3252 25.7549 36.3341 26.5795 34.3163C25.9511 34.3163 25.3633 34.3216 24.7762 34.3126C24.6294 34.3103 24.5687 34.3649 24.5167 34.4928C24.1414 35.4155 23.7566 36.3345 23.379 37.2565C23.3054 37.436 23.2412 37.6203 23.1892 37.8069C23.1175 38.0638 23.239 38.2414 23.5076 38.2688C23.6382 38.2824 23.774 38.2748 23.9038 38.2534C24.1607 38.2109 24.415 38.1522 24.6909 38.0962C24.3755 38.8383 24.0715 39.5599 23.7592 40.278C23.738 40.3269 23.6609 40.372 23.6029 40.3825C22.6398 40.5616 21.6706 40.6143 20.6983 40.4755C19.9022 40.3619 19.5098 39.912 19.5914 39.1205C19.6396 38.654 19.7758 38.1853 19.9447 37.7448C20.3614 36.6569 20.8198 35.5848 21.2611 34.5063C21.2839 34.451 21.3021 34.3938 21.3302 34.316C21.0425 34.316 20.7837 34.3239 20.5253 34.3126C20.3929 34.3069 20.3371 34.3611 20.2908 34.4747C19.4597 36.5173 18.6249 38.5585 17.7908 40.6004H17.5251C17.4841 40.5868 17.4443 40.5657 17.4026 40.5605C15.8884 40.3592 14.3747 40.158 12.8602 39.962C12.6947 39.9405 12.5035 39.9003 12.3608 39.9582C11.4853 40.3141 10.5749 40.4973 9.63497 40.5398C8.64756 40.5846 7.66509 40.5552 6.70349 40.2911C5.88191 40.0658 5.30017 39.5967 5.09411 38.7435C5.06034 38.61 5.03074 38.4765 5 38.3429C5 38.1048 5 37.8663 5 37.6282C5.06869 37.3242 5.13965 37.0207 5.20454 36.716C5.23186 36.5881 5.2941 36.5324 5.43413 36.5252C6.17867 36.4872 6.92283 36.4391 7.66737 36.3947C8.02446 36.3733 8.38193 36.353 8.75382 36.3315C8.71701 36.5666 8.67603 36.7803 8.65136 36.9958C8.57546 37.6553 8.9151 38.124 9.5735 38.2399C9.80726 38.2809 10.0535 38.2895 10.29 38.2692C10.9556 38.2116 11.5214 37.9363 11.9342 37.4085C12.3528 36.874 12.3118 36.2247 11.5631 35.9602C11.0766 35.7887 10.5753 35.6585 10.0797 35.5137C9.37427 35.3076 8.68134 35.0728 8.08973 34.6207C7.54631 34.2057 7.27005 33.6641 7.32166 32.9738C7.36378 32.4114 7.54973 31.893 7.85179 31.4235C8.87373 29.8361 10.3738 28.9961 12.2242 28.7207C12.5475 28.6726 12.8731 28.6399 13.1975 28.6ZM36.7101 34.0022C36.3128 34.0015 35.9546 34.1271 35.6233 34.3367C34.9326 34.7738 34.5236 35.4261 34.2192 36.1551C34.045 36.5723 33.8906 36.9966 33.9058 37.4589C33.9244 38.0243 34.2887 38.3768 34.8564 38.3892C35.3603 38.4001 35.8017 38.2256 36.1838 37.9197C37.0919 37.193 37.5408 36.2029 37.7089 35.0928C37.8118 34.4134 37.3883 34 36.7105 34.0022H36.7101ZM51.8643 39.6362L51.8912 39.6531C51.9288 39.6242 51.9683 39.5975 52.0032 39.5659C53.2866 38.405 54.5688 37.243 55.8549 36.0847C55.9483 36.0009 55.9672 35.929 55.9289 35.8105C55.5881 34.7501 55.2538 33.6874 54.9172 32.6254C54.8982 32.5656 54.8755 32.5073 54.8542 32.4479C54.8398 32.4494 54.825 32.4509 54.8106 32.4524C53.8281 34.8471 52.846 37.2415 51.8635 39.6362H51.8643Z" fill="white"/>
<path d="M18.5046 30.9462C18.7326 30.3872 18.9535 29.8425 19.1778 29.2997C19.2468 29.1327 19.2837 28.9104 19.4115 28.822C19.5318 28.7388 19.7527 28.7968 19.9291 28.7964C20.8141 28.7956 21.6987 28.796 22.6125 28.796C22.4648 29.159 22.3244 29.5047 22.1833 29.8504C22.0482 30.1807 21.9161 30.5125 21.7727 30.8394C21.7488 30.8936 21.6736 30.9617 21.6216 30.962C20.6039 30.9684 19.5861 30.9654 18.5683 30.9639C18.5562 30.9639 18.544 30.9575 18.5046 30.9462Z" fill="white"/>
<path d="M56.2773 28.8092C56.1331 29.1665 55.993 29.513 55.8538 29.8598C55.7228 30.1848 55.5969 30.5121 55.4587 30.8341C55.4348 30.8898 55.3601 30.9613 55.3084 30.9616C54.2728 30.9692 53.2369 30.9673 52.1724 30.9673C52.2411 30.7991 52.3011 30.6509 52.3622 30.5027C52.577 29.9821 52.7933 29.4614 53.0069 28.9401C53.0414 28.8558 53.0688 28.7922 53.1875 28.793C54.1859 28.7986 55.1844 28.7964 56.1828 28.7967C56.2063 28.7967 56.2302 28.8028 56.2776 28.8088L56.2773 28.8092Z" fill="white"/>
</g>
<defs>
<clipPath id="clip0_636_7394">
<rect width="60" height="12" fill="white" transform="translate(5 28.6)"/>
</clipPath>
</defs>
</svg>
