<svg width="90" height="90" viewBox="0 0 90 90" fill="none" xmlns="http://www.w3.org/2000/svg">
<path d="M11.9755 47.6222C11.9755 50.0173 9.82982 50.9238 7.50953 50.9238C6.71116 50.9238 5.30568 50.8988 4 50.4082V48.4704C4.89817 48.8031 6.19554 49.0942 7.06876 49.0942C8.43266 49.0942 9.23103 48.5203 9.23103 47.8883C9.23103 47.1731 8.71542 46.882 6.74442 45.9173C6.01258 45.5597 4.0998 44.911 4.0998 42.624C4.0998 40.7278 5.63002 39.5386 8.23306 39.5386C9.63022 39.5386 10.4037 39.6966 11.2187 40.0126V41.8173C10.5783 41.5096 9.81318 41.1104 8.69047 41.1104C7.45132 41.1104 6.60304 41.6011 6.60304 42.4743C6.60304 42.8153 6.66126 43.256 8.02515 43.913C9.69675 44.7031 11.9755 45.227 11.9755 47.6222ZM83.4968 39.7631V44.2873H79.3967V39.7631H76.8935V50.6992H79.3967V46.1751H83.4968V50.6992H86V39.7631H83.4968ZM56.5016 45.2353C56.5016 47.0317 56.2771 48.4871 54.9298 49.6846C53.9901 50.5246 52.701 50.9238 51.3704 50.9238C50.0481 50.9238 48.759 50.5246 47.811 49.6846C46.472 48.4954 46.2391 47.0317 46.2391 45.2353C46.2391 43.439 46.4637 41.967 47.811 40.7694C48.7507 39.9295 50.0398 39.5303 51.3704 39.5303C52.6927 39.5303 53.9817 39.9295 54.9298 40.7694C56.2771 41.967 56.5016 43.439 56.5016 45.2353ZM53.8819 45.2353C53.8819 44.2291 53.8487 42.8735 53.1002 42.0834C52.6677 41.6177 52.0107 41.3599 51.3787 41.3599C50.7467 41.3599 50.0897 41.626 49.6572 42.0834C48.9004 42.8735 48.8755 44.2291 48.8755 45.2353C48.8755 46.2416 48.9087 47.5889 49.6572 48.3706C50.0897 48.8364 50.7467 49.0942 51.3787 49.0942C52.0107 49.0942 52.6677 48.828 53.1002 48.3706C53.8487 47.5889 53.8819 46.2416 53.8819 45.2353ZM41.6901 46.7406L39.8189 39.7631H37.7647L35.8935 46.7406L34.3467 39.7631H31.9515L34.3799 50.6992H36.8333L38.7959 43.3808L40.7586 50.6992H43.212L45.632 39.7631H43.2369L41.6901 46.7406ZM27.0116 44.3704L24.7245 39.7631H22.2047L25.5229 46.2749V50.6992H28.1426V46.1751L31.8434 39.7631H29.4483L27.0116 44.3704ZM13.2229 50.6992H15.7262V39.7631H13.2229V50.6992ZM19.6432 39.7631L16.4247 44.57L19.3521 50.6992H22.0799L19.1692 44.2374L22.1548 39.7714H19.6432V39.7631ZM66.4647 43.0648C66.4647 41.0688 64.8014 39.7631 62.8055 39.7631H58.0318V50.6992H60.427V41.3599H62.3065C63.4209 41.3599 63.9032 42.2747 63.9032 43.0648C63.9032 43.913 63.2546 44.8112 61.3667 45.385L64.0696 50.6992H66.8057L64.4521 46.0753C65.8909 45.3601 66.4647 44.1958 66.4647 43.0648ZM75.9787 41.5844L75.1554 39.7631H66.6393L67.4627 41.5844H70.1156V50.6992H72.6189V41.5844H75.9787Z" fill="#0063B2"/>
</svg>
