<svg width="70" height="70" viewBox="0 0 70 70" fill="none" xmlns="http://www.w3.org/2000/svg">
<path d="M26.6862 16.0576C27.1468 16.2145 27.5937 16.4261 28.0644 16.5216C34.9147 17.9101 39.7931 21.748 42.4131 28.2571C45.6404 36.2741 42.5905 45.6522 35.3275 50.4146C32.6597 52.1647 29.7395 53.1507 26.5873 53.4713C25.0896 53.6248 25.0078 53.543 24.9941 52.0999C24.9771 50.343 25.018 48.5827 24.9839 46.8258C24.9668 45.99 25.2022 45.5703 26.1267 45.5874C28.1668 45.6215 30.2069 45.5533 32.2469 45.5806C33.5228 45.5976 34.8021 45.5158 35.8085 44.7141C36.5317 44.1375 37.214 43.3665 37.5927 42.5341C38.2648 41.0706 38.3228 39.4672 38.084 37.8638C37.8895 36.5743 37.4221 35.4519 36.2281 34.7764C35.73 34.4967 35.5799 34.3397 36.1019 33.8383C37.8622 32.1393 38.2 28.0797 36.8081 26.1215C35.9791 24.9582 34.7544 24.5317 33.4034 24.4976C31.2474 24.443 29.0913 24.4772 26.9352 24.4499C25.0419 24.426 24.9839 24.8081 24.9907 22.5292C24.9975 20.3731 24.9839 18.2171 24.9805 16.061C25.5502 16.0576 26.1199 16.0576 26.6862 16.0576Z" fill="#C12026"/>
<path d="M54.255 30.7476C53.9138 30.7476 53.5727 30.751 53.2315 30.7476C52.3355 30.734 51.818 30.295 51.6793 29.4308C51.5122 28.3869 51.0755 27.9639 50.3113 28.114C49.5096 28.2709 49.0593 29.1135 49.5062 29.9937C49.8508 30.6726 50.4171 31.2798 51.0038 31.7813C52.2047 32.8184 53.5352 33.7088 54.7258 34.7595C56.9808 36.745 57.472 39.2422 56.5816 42.0362C56.0869 43.5919 55.0499 44.6733 53.4635 45.1646C51.2802 45.84 49.0934 45.8503 46.951 45.0315C44.8871 44.24 43.4883 41.2891 44.1638 39.2286C44.232 39.0171 44.5391 38.7476 44.7438 38.7407C45.9924 38.6964 47.241 38.7066 48.4896 38.7203C48.9877 38.7237 49.1582 39.0409 49.1616 39.5049C49.1616 39.9006 49.1616 40.3066 49.2435 40.6887C49.4175 41.4767 50.0282 41.9066 50.7207 41.7633C51.4678 41.6098 51.7885 41.023 51.71 40.3817C51.6384 39.7949 51.3757 39.1638 51.0107 38.7032C50.5603 38.1369 49.9224 37.7207 49.3527 37.2533C48.3463 36.4243 47.2785 35.6636 46.3301 34.7732C44.9348 33.4666 44.2798 31.8325 44.3549 29.8879C44.4709 26.8551 46.1152 24.8014 49.1105 24.3818C50.3727 24.2044 51.7305 24.2965 52.9859 24.5524C55.5786 25.0743 57.0729 27.4248 56.701 30.0415C56.6328 30.5293 56.4247 30.7476 55.9471 30.7408C55.3808 30.734 54.8111 30.7408 54.2447 30.7408C54.2447 30.7442 54.2447 30.7476 54.2447 30.7545L54.255 30.7476Z" fill="white"/>
<path d="M23.8992 30.6691C23.5001 30.6691 23.1009 30.635 22.7086 30.6759C21.7807 30.768 21.327 30.3928 21.3474 29.441C21.3577 28.8439 21.2348 28.2026 20.5594 28.1105C20.1227 28.0525 19.5223 28.2094 19.205 28.4994C18.7035 28.9634 18.7274 29.7002 19.1061 30.2324C19.5939 30.9113 20.1875 31.5322 20.8255 32.0814C22.0297 33.1185 23.3193 34.0499 24.5235 35.0801C26.7717 37.0008 26.8774 40.2656 25.9632 42.4353C25.4037 43.7658 24.4246 44.6664 23.0532 45.1133C21.1052 45.7478 19.13 45.7342 17.182 45.1577C14.7803 44.4447 13.3612 42.0362 13.8558 39.5662C13.907 39.3138 14.2413 38.9385 14.4596 38.9283C15.6468 38.8635 16.8443 38.8601 18.0315 38.9215C18.26 38.9317 18.5773 39.2728 18.6694 39.5253C18.7991 39.8869 18.7138 40.3168 18.7991 40.7023C18.9935 41.5551 19.6451 42.0157 20.3922 41.8929C21.0404 41.7837 21.4293 41.214 21.4054 40.3372C21.3815 39.3513 20.8562 38.6247 20.1159 38.0413C19.0003 37.1646 17.8541 36.3253 16.7488 35.4383C14.8076 33.8657 13.8217 31.8631 14.0912 29.3216C14.3198 27.1519 15.3671 25.5962 17.4481 24.8184C19.5189 24.0474 21.5999 24.1566 23.6024 24.989C25.7551 25.8862 26.4067 28.015 26.2463 30.0482C26.2293 30.2631 25.8472 30.5838 25.5981 30.6213C25.0455 30.71 24.4655 30.6486 23.8992 30.6486C23.8992 30.6554 23.8992 30.6623 23.8992 30.6657V30.6691Z" fill="#C12026"/>
<path d="M33.1918 39.1396C33.1918 39.3647 33.2021 39.5899 33.1918 39.8151C33.0997 41.473 31.8443 42.3396 30.2853 41.7835C30.0874 41.7118 29.8486 41.3946 29.8452 41.1865C29.8042 39.665 29.8042 38.14 29.8213 36.6185C29.8213 36.4206 29.9271 36.1511 30.0772 36.0386C30.872 35.4415 32.7791 36.117 33.0349 37.1268C33.1987 37.7716 33.185 38.4641 33.2533 39.1362C33.2328 39.1362 33.2157 39.1362 33.1953 39.1396H33.1918Z" fill="#C12026"/>
<path d="M29.8327 30.0413C29.8327 29.7581 29.8327 29.475 29.8327 29.1918C29.8464 27.7181 29.8566 27.701 30.7573 27.6328C32.214 27.5202 32.8383 27.8818 33.0259 29.0554C33.1146 29.608 33.1112 30.1914 33.0361 30.7475C32.8485 32.1564 31.6135 32.8762 30.2728 32.3577C30.0784 32.2826 29.8805 31.962 29.8566 31.7368C29.7986 31.1773 29.8362 30.6076 29.8362 30.0413H29.8327Z" fill="#C12026"/>
</svg>
