<svg width="70" height="70" viewBox="0 0 70 70" fill="none" xmlns="http://www.w3.org/2000/svg">
<g clip-path="url(#clip0_884_2670)">
<path d="M10.819 34.4129H7.64527C6.44651 34.4569 6.43398 36.0226 7.65781 36.0118H9.23867C10.1058 36.0226 10.819 36.6151 10.819 37.3341C10.819 38.0642 10.1058 38.646 9.23867 38.6568H6.05829V38.1155H9.22614C10.475 38.1383 10.4625 36.5726 9.23867 36.5408H7.65781C6.79101 36.5303 6.05829 35.9282 6.05829 35.2045C6.05829 34.4516 6.82919 33.9279 7.65781 33.8961H10.819V34.4129Z" fill="white"/>
<path d="M17.3843 35.2188C17.3604 34.7851 16.9888 34.4359 16.4729 34.4132H14.686C14.2187 34.4359 13.811 34.7851 13.811 35.2188V37.3347C13.811 37.7579 14.2187 38.1281 14.6979 38.1173H16.4848C16.9888 38.1281 17.3604 37.7579 17.3843 37.3347V35.2188ZM17.9718 37.3347C17.9599 38.054 17.3126 38.6466 16.4848 38.6571H14.6979C13.8827 38.6466 13.2231 38.054 13.2112 37.3347V35.2188C13.2351 34.4994 13.8827 33.9069 14.6979 33.8961H16.4848C17.3126 33.9069 17.9599 34.4994 17.9718 35.2188V37.3347Z" fill="white"/>
<path d="M24.7147 38.1173V38.6571H22.2635C21.4136 38.6463 20.7488 38.0538 20.7363 37.3344V35.2188C20.7488 34.4991 21.4136 33.9069 22.2635 33.8961H24.7147V34.4146L22.2635 34.4097C21.7584 34.4254 21.3521 34.7956 21.3521 35.2188V37.3344C21.3641 37.7894 21.7829 38.1173 22.2516 38.1158L24.7147 38.1173Z" fill="white"/>
<path d="M34.6612 35.2188C34.6373 34.7851 34.2657 34.4359 33.7499 34.4132H31.9629C31.4957 34.4359 31.088 34.7851 31.088 35.2188V37.3347C31.088 37.7579 31.4957 38.1281 31.9749 38.1173H33.7618C34.2657 38.1281 34.6373 37.7579 34.6612 37.3347V35.2188ZM35.2488 37.3347C35.2369 38.054 34.5895 38.6466 33.7618 38.6571H31.9749C31.1597 38.6466 30.5001 38.054 30.4882 37.3347V35.2188C30.5121 34.4994 31.1597 33.9069 31.9749 33.8961H33.7618C34.5895 33.9069 35.2369 34.4994 35.2488 35.2188V37.3347Z" fill="white"/>
<path d="M42.392 38.6568H41.8044V35.2188C41.7925 34.774 41.397 34.4356 40.893 34.4129H39.1064C38.627 34.4356 38.2428 34.7848 38.2315 35.2188V38.6568H37.6313V35.2188C37.6433 34.4884 38.2912 33.9066 39.1184 33.8961H40.905C41.7083 33.9066 42.404 34.4884 42.392 35.2188V38.6568Z" fill="white"/>
<path d="M55.9414 33.8961H56.6741L54.9298 35.9593C54.7768 36.1389 54.7768 36.414 54.9298 36.6046L56.6741 38.6568H55.9318L54.2935 36.7101L52.6439 38.6568H51.9129L53.657 36.6046C53.8103 36.4035 53.8103 36.1497 53.657 35.9593L51.9129 33.8961H52.6558L54.2935 35.8428L55.9414 33.8961Z" fill="white"/>
<path d="M59.651 33.8961V33.0905V32.048H59.0352V37.3875C59.0227 38.1286 59.728 38.6568 60.5624 38.6568H61.4864V38.1173H60.5624C60.0576 38.1173 59.651 37.8279 59.651 37.3875V35.2388C59.651 34.7987 60.0576 34.444 60.5624 34.4333H61.4864V33.8961H60.5624H59.651Z" fill="white"/>
<path d="M45.4367 35.171V35.1535C45.481 34.7903 45.7952 34.44 46.3583 34.4149H47.9447C49.1732 34.4464 49.1863 36.0226 47.9447 36.0121H47.6118H46.3583H45.4367V35.171ZM45.4373 37.3997C45.4373 37.3997 45.4379 36.6667 45.4373 36.704C45.4373 36.6145 45.5148 36.5411 45.6142 36.5411H46.3583H46.9794H47.9447C48.7896 36.5519 49.532 35.9489 49.532 35.2505C49.532 34.5207 48.8535 33.9069 47.9447 33.8961H46.3583C45.488 33.9069 44.7838 34.4994 44.7713 35.2188V37.3347C44.7838 38.0645 45.488 38.6466 46.3583 38.6571H49.532V38.1158H46.3458C45.7658 38.1281 45.4577 37.7783 45.4373 37.3997Z" fill="white"/>
<path d="M28.1102 38.6568H27.4943V33.8961H28.1102V38.6568Z" fill="white"/>
<path d="M63.0188 33.9725H62.774V34.725H62.6836V33.9725H62.4399V33.8961H63.0188V33.9725Z" fill="white"/>
<path d="M63.8906 34.725H63.8012L63.7808 34.3517C63.7741 34.2328 63.7653 34.0792 63.7665 33.9944H63.7633C63.7359 34.0879 63.7024 34.1905 63.6618 34.3059L63.5138 34.7218H63.4476L63.3089 34.3144C63.269 34.1946 63.2372 34.0902 63.2145 33.9944H63.211C63.2092 34.0955 63.2025 34.2328 63.1949 34.3604L63.1716 34.725H63.0856L63.1436 33.8953H63.2547L63.4004 34.3167C63.4354 34.4202 63.4625 34.5082 63.4841 34.5942H63.4876C63.5085 34.5105 63.5365 34.4234 63.5741 34.3167L63.7251 33.8953H63.8382L63.8906 34.725Z" fill="white"/>
</g>
<defs>
<clipPath id="clip0_884_2670">
<rect width="58" height="6.70352" fill="white" transform="translate(6 32.0001)"/>
</clipPath>
</defs>
</svg>
