<svg width="90" height="90" viewBox="0 0 90 90" fill="none" xmlns="http://www.w3.org/2000/svg">
<path d="M36.9411 34.2773C33.4492 34.2773 32.1792 35.8193 32.1792 38.7667V39.8096H30.7505V42.984H32.1792V51.0788H36.3061V42.984H38.2334V39.8096H36.3061V38.7441C36.3061 37.9281 36.6685 37.6334 37.4623 37.6334C37.757 37.6334 38.1651 37.6782 38.5052 37.8145L38.7551 34.4589C38.1652 34.3227 37.5304 34.2773 36.9411 34.2773ZM44.4387 35.5304L40.3121 36.6416V39.816H38.8834V42.9904H40.3121V47.6159C40.3121 50.5411 41.1966 51.357 43.9401 51.357C44.8015 51.357 45.7314 51.2181 46.5474 51.0142L46.5447 47.7791C46.2046 47.8694 45.754 47.9334 45.3912 47.9334C44.7105 47.9334 44.4387 47.6161 44.4387 46.777V42.9904H46.5474V39.816H44.4387L44.4387 35.5304ZM14.8936 39.5177C11.2428 39.5177 9.67834 41.3089 9.67834 43.4404C9.67834 47.0911 13.1375 46.5068 13.3061 47.7031C13.3428 47.9622 13.117 48.2462 12.4168 48.2583C11.6009 48.2717 10.8179 48.1221 10.0863 47.9233L9.99952 51.1705C10.9591 51.2738 11.5378 51.3652 12.4446 51.354C15.6357 51.3142 17.7876 49.8787 17.7051 47.3859C17.5911 43.9381 13.9783 44.0591 13.9866 43.1231C13.9889 42.8173 14.2517 42.6021 14.8253 42.6017C15.4341 42.6012 16.0806 42.687 16.6858 42.8307L16.7821 39.6622C16.1297 39.5839 15.483 39.5177 14.8936 39.5177ZM24.6022 39.5518C21.133 39.5518 18.4349 41.9552 18.4349 45.7871C18.4349 49.8461 20.6567 51.3651 24.0355 51.3651C27.4365 51.3651 30.1799 48.9617 30.1799 45.1979C30.1799 41.6152 28.2983 39.5518 24.6022 39.5518ZM24.3527 43.089C25.4866 43.089 25.895 43.8373 25.895 45.447C25.895 46.8529 25.3278 47.7828 24.2621 47.7828C23.1509 47.7828 22.7201 47.0799 22.7201 45.334C22.7201 43.7465 23.5363 43.089 24.3527 43.089Z" fill="#009FE3"/>
<path d="M51.4444 38.9502C50.078 38.9502 48.9618 37.8798 48.9618 36.5584C48.9618 35.2373 50.078 34.167 51.4444 34.167C52.8109 34.167 53.9271 35.2373 53.9271 36.5584C53.9271 37.8798 52.8109 38.9502 51.4444 38.9502ZM49.3714 51.1364V42.9364C48.8251 42.8452 48.0508 42.7539 47.3901 42.7085V39.9978C49.2806 39.793 51.3077 39.7245 53.517 39.793V51.1364H49.3714Z" stroke="#009FE3" stroke-width="0.445747" stroke-miterlimit="10"/>
<path d="M63.3568 51.137V43.9847C63.3568 43.4152 63.1974 43.051 62.7192 43.051C61.8082 43.051 60.9422 44.372 60.9422 45.625V51.137H56.7971V42.937C56.2503 42.8458 55.4761 42.7549 54.8153 42.7091V39.9984C56.7058 39.7936 58.733 39.7255 60.6235 39.7936C60.6235 40.1124 60.6007 40.8186 60.5095 41.3199H60.5326C61.2388 40.3177 62.4231 39.543 64.1542 39.543C66.6596 39.543 67.5024 41.1832 67.5024 43.1191V51.137H63.3568ZM75.8734 42.9968C75.6922 42.9514 75.4652 42.906 75.0796 42.906C74.1274 42.906 73.311 43.5408 73.311 45.7176C73.311 47.3505 73.6738 47.9399 74.3994 47.9399C75.1705 47.9399 75.8734 47.1007 75.8734 45.1964V42.9968ZM73.2434 56.6014C71.9733 56.6014 70.6583 56.4202 69.5926 56.1255L69.91 52.4066C70.9757 52.8602 72.2907 53.1322 73.3791 53.1322C75.1705 53.1322 75.9415 52.5428 75.9415 51.2278V51.0689C75.9415 50.7742 75.9415 50.4568 76.0318 49.9124H75.9864C75.4424 50.8423 74.3994 51.3863 73.1525 51.3863C70.4086 51.3863 68.9578 49.5042 68.9578 46.1713C68.9578 42.5886 71.0665 39.5958 75.397 39.5958C77.3579 39.5958 78.4941 39.7214 80 39.9813V50.7742C80 54.1071 78.4584 56.6014 73.2434 56.6014Z" stroke="#009FE3" stroke-width="0.457794" stroke-miterlimit="10"/>
</svg>
