<svg width="70" height="70" viewBox="0 0 70 70" fill="none" xmlns="http://www.w3.org/2000/svg">
<path d="M13.4026 28C15.1183 27.9927 16.5205 29.2688 16.6742 30.9371C16.6934 31.1452 16.6965 31.353 16.6937 31.5608C16.692 31.6715 16.7241 31.7061 16.8383 31.7082C17.2996 31.7162 17.7571 31.763 18.2031 31.888C19.4586 32.2397 20.2094 33.074 20.4836 34.3295C20.757 35.5829 20.2688 37.0399 18.8541 37.7855C18.5447 37.9486 18.2206 38.0736 17.8846 38.1725C17.7722 38.2056 17.7463 38.1773 17.724 38.0747C17.5431 37.239 17.175 36.4958 16.5984 35.8616C15.8936 35.0859 15.0014 34.6728 13.9746 34.523C13.5527 34.4615 13.1232 34.4842 12.7045 34.3857C11.3536 34.0683 10.3548 32.9333 10.2207 31.5521C10.0503 29.7937 11.2904 28.249 13.0512 28.0231C13.1819 28.0063 13.3121 28.006 13.4026 28Z" fill="#CE3737"/>
<path d="M16.3529 38.9902C16.3501 40.6201 15.1784 41.9653 13.5552 42.2028C11.8464 42.4528 10.1973 41.2487 9.91237 39.543C9.86418 39.2549 9.86802 38.9637 9.86348 38.6738C9.86138 38.5418 9.82262 38.5163 9.69794 38.5152C8.967 38.5107 8.25666 38.3958 7.60604 38.0424C6.77802 37.5922 6.3062 36.8711 6.08968 35.9739C5.72368 34.4568 6.50352 32.9418 7.96226 32.3146C8.19834 32.213 8.43826 32.1239 8.68587 32.0534C8.76968 32.0293 8.80915 32.0377 8.82975 32.1344C9.00891 32.9761 9.37805 33.7238 9.95672 34.3636C10.5902 35.0641 11.3861 35.4734 12.306 35.6592C12.6496 35.7287 12.9978 35.749 13.3457 35.7682C14.8268 35.8503 16.1168 37.0394 16.3201 38.5124C16.3421 38.6713 16.3539 38.8302 16.3526 38.9905L16.3529 38.9902Z" fill="#CE3737"/>
<path d="M53.1529 37.8233C52.613 37.8233 52.0885 37.8208 51.5643 37.8257C51.4794 37.8264 51.4466 37.788 51.4113 37.7241C51.0544 37.0745 50.6856 36.4319 50.2623 35.8222C49.9582 35.3839 49.9616 35.3811 49.4291 35.3811C49.2684 35.3811 49.1881 35.4618 49.1881 35.6231C49.1881 36.3118 49.1856 37.0005 49.1909 37.6892C49.1916 37.7981 49.1637 37.8278 49.0543 37.8261C48.6321 37.8194 48.2095 37.8208 47.7873 37.8254C47.6986 37.8264 47.6738 37.8048 47.6738 37.7133C47.6766 35.5899 47.6759 33.4666 47.6752 31.3436C47.6752 31.2759 47.6749 31.2284 47.7664 31.2141C48.8305 31.0485 49.8956 30.9707 50.9611 31.1924C51.4124 31.2864 51.8325 31.4582 52.1789 31.7749C52.5302 32.0959 52.6961 32.5083 52.7373 32.9711C52.7813 33.4666 52.7426 33.9513 52.4454 34.3778C52.2344 34.6802 51.947 34.8911 51.6132 35.0385C51.5098 35.0839 51.5143 35.1125 51.5789 35.1971C52.188 35.9919 52.6954 36.8493 53.1253 37.7527C53.1334 37.7695 53.1393 37.7877 53.1536 37.8229L53.1529 37.8233ZM49.1881 33.27C49.1881 33.5414 49.1874 33.8124 49.1888 34.0837C49.1888 34.1263 49.1661 34.1874 49.2482 34.1871C49.7175 34.1853 50.1904 34.207 50.6437 34.0533C51.0156 33.9273 51.1923 33.6622 51.1944 33.2567C51.1965 32.8645 51.0188 32.6047 50.6468 32.4744C50.1977 32.3173 49.7329 32.3365 49.2677 32.3658C49.1923 32.3707 49.1863 32.4109 49.187 32.471C49.1891 32.7374 49.1881 33.0035 49.1877 33.27H49.1881Z" fill="white"/>
<path d="M44.7816 32.8566C44.7816 32.1278 44.7837 31.4251 44.7795 30.7221C44.7788 30.609 44.7934 30.5552 44.9275 30.5381C45.3169 30.4882 45.7035 30.4183 46.0905 30.3509C46.1872 30.3341 46.2246 30.3457 46.2242 30.4588C46.2211 32.82 46.2218 35.1811 46.2221 37.5426C46.2221 37.6121 46.227 37.6645 46.1296 37.6883C45.3051 37.8894 44.4729 38.0103 43.6235 37.9135C42.4808 37.7833 41.6612 36.9577 41.5288 35.816C41.4471 35.1106 41.4967 34.4205 41.8194 33.7748C42.1787 33.0564 42.7773 32.695 43.5722 32.6422C43.9846 32.615 44.3831 32.674 44.7819 32.8573L44.7816 32.8566ZM44.7819 35.3662C44.7819 34.9688 44.7788 34.571 44.7844 34.1736C44.7858 34.0807 44.7529 34.0336 44.6705 33.9983C44.4205 33.8918 44.161 33.8446 43.8907 33.8617C43.51 33.8855 43.2345 34.0702 43.1025 34.4282C42.9132 34.9402 42.91 35.464 43.0868 35.9791C43.2362 36.4146 43.5401 36.6832 44.0147 36.7185C44.2322 36.7345 44.4505 36.7226 44.6684 36.6971C44.7669 36.6856 44.7847 36.6462 44.784 36.5589C44.7802 36.1614 44.7823 35.7637 44.7823 35.3662H44.7819Z" fill="white"/>
<path d="M26.2926 37.9654C25.5812 37.9507 24.8674 37.847 24.2017 37.5121C24.1179 37.4698 24.0875 37.4377 24.1256 37.3382C24.2513 37.0081 24.3662 36.6743 24.4808 36.3401C24.5056 36.2678 24.5307 36.2548 24.6012 36.2908C25.2313 36.6132 25.9042 36.7109 26.6034 36.6627C26.7396 36.6533 26.8702 36.6208 27.0001 36.5779C27.5086 36.4109 27.5184 35.7872 27.2023 35.5166C27.0228 35.3626 26.8115 35.2662 26.5971 35.1761C26.2039 35.0112 25.7918 34.8956 25.4048 34.7144C25.1167 34.5792 24.859 34.4057 24.6372 34.1745C23.923 33.4303 24.0233 31.7693 25.3853 31.2151C25.9398 30.9895 26.515 30.9573 27.1 30.9968C27.6043 31.0307 28.0792 31.176 28.5385 31.3831C28.6377 31.4278 28.6495 31.4735 28.6136 31.5678C28.4938 31.8793 28.3768 32.1922 28.2685 32.5083C28.2329 32.6117 28.1987 32.6319 28.0978 32.5809C27.5592 32.3099 26.99 32.2121 26.3911 32.2928C26.2894 32.3064 26.1895 32.326 26.0953 32.3654C25.7268 32.5184 25.6336 32.9804 25.913 33.2668C26.0582 33.4156 26.2405 33.506 26.4312 33.5808C26.9271 33.7746 27.4346 33.9394 27.9085 34.1863C28.4281 34.457 28.8133 34.8418 28.9202 35.4383C29.0319 36.0624 29.0051 36.6697 28.579 37.1894C28.242 37.6004 27.7775 37.7848 27.2711 37.8826C26.9558 37.9437 26.6359 37.9605 26.2929 37.9654H26.2926Z" fill="white"/>
<path d="M32.3143 32.6117C33.6452 32.6145 34.6465 33.5382 34.7708 34.8656C34.8326 35.5264 34.7719 36.1655 34.4481 36.755C34.049 37.4828 33.4151 37.8606 32.5969 37.9458C32.2106 37.986 31.8317 37.9553 31.4619 37.8341C30.8175 37.6232 30.352 37.2065 30.073 36.5936C29.7199 35.8173 29.693 35.0147 29.9731 34.215C30.3282 33.2019 31.2135 32.6089 32.3143 32.6113V32.6117ZM33.3194 35.2739C33.3205 34.9659 33.2845 34.6603 33.1427 34.3753C32.9716 34.0317 32.6978 33.8476 32.3108 33.8441C31.9256 33.8406 31.6263 34.0048 31.4653 34.3533C31.1793 34.9714 31.1828 35.6032 31.473 36.2196C31.6361 36.5657 31.9298 36.7298 32.3189 36.7246C32.6988 36.7193 32.9604 36.5353 33.1312 36.2084C33.2831 35.9175 33.3198 35.6015 33.3198 35.2742L33.3194 35.2739Z" fill="white"/>
<path d="M59.607 35.3606C59.607 34.5996 59.6098 33.8386 59.6035 33.0776C59.6025 32.9589 59.6346 32.9069 59.7513 32.8796C60.5206 32.7001 61.298 32.6009 62.0887 32.6453C62.5423 32.6708 62.9726 32.7811 63.3316 33.0773C63.7433 33.4171 63.897 33.8854 63.964 34.3932C64.0196 34.8137 63.9923 35.2362 63.9948 35.6578C63.999 36.337 63.9937 37.0163 63.9983 37.6955C63.999 37.7958 63.9745 37.8265 63.8711 37.8247C63.4779 37.8185 63.0843 37.8181 62.6911 37.8247C62.5807 37.8268 62.5552 37.7972 62.5559 37.6878C62.5608 36.8406 62.5601 35.9937 62.5573 35.1465C62.5566 34.909 62.5444 34.6715 62.4871 34.4389C62.3908 34.0482 62.1816 33.8763 61.7772 33.8617C61.5732 33.8543 61.3703 33.868 61.1671 33.8889C61.0728 33.8987 61.0473 33.9284 61.048 34.0209C61.0522 34.6129 61.0501 35.2048 61.0501 35.7964C61.0501 36.4271 61.0473 37.0578 61.0529 37.6885C61.0539 37.7968 61.0277 37.8268 60.9173 37.8247C60.5339 37.8174 60.1501 37.816 59.7666 37.8251C59.6406 37.8282 59.6032 37.7968 59.6042 37.6683C59.6102 36.8989 59.607 36.1292 59.607 35.3599V35.3606Z" fill="white"/>
<path d="M58.2568 35.2108C58.2568 35.977 58.254 36.7432 58.2596 37.5091C58.2603 37.624 58.2236 37.6631 58.1139 37.6883C57.3208 37.8713 56.5221 37.9788 55.7056 37.9174C54.6695 37.8395 54.0283 37.2196 53.9085 36.1803C53.8683 35.8318 53.8742 35.4832 53.8739 35.1343C53.8725 34.3824 53.8753 33.6305 53.8711 32.8786C53.8704 32.7774 53.8963 32.7473 53.9996 32.7487C54.3929 32.7547 54.7864 32.7557 55.1793 32.7487C55.29 32.7466 55.3152 32.7781 55.3148 32.8856C55.311 33.7685 55.3117 34.6513 55.3148 35.5339C55.3155 35.7375 55.3386 35.9397 55.3917 36.1377C55.4957 36.526 55.7182 36.7066 56.1237 36.7115C56.3077 36.7139 56.4917 36.6895 56.6758 36.6863C56.797 36.6846 56.8235 36.6308 56.8232 36.5173C56.819 35.3145 56.8221 34.1118 56.8176 32.909C56.8172 32.7878 56.8364 32.7431 56.9723 32.7473C57.3509 32.7585 57.7298 32.7568 58.1083 32.748C58.2295 32.7452 58.262 32.777 58.2609 32.8975C58.2557 33.6683 58.2582 34.4394 58.2582 35.2101C58.2578 35.2101 58.2571 35.2101 58.2568 35.2101V35.2108Z" fill="white"/>
<path d="M37.3325 33.2172C37.3325 34.0655 37.3321 34.9134 37.3325 35.7617C37.3325 35.8776 37.3332 35.9936 37.3499 36.1095C37.4048 36.4881 37.5724 36.6721 37.9558 36.714C38.1168 36.7315 38.1263 36.786 38.0983 36.9218C38.0369 37.2204 37.9915 37.5221 37.9426 37.8232C37.9328 37.8829 37.9206 37.9213 37.8469 37.9196C37.4467 37.9119 37.0527 37.8689 36.6825 37.7037C36.2422 37.5075 36.0015 37.1624 35.9324 36.6903C35.9062 36.5125 35.895 36.3344 35.8954 36.1546C35.8957 34.3448 35.8964 32.5348 35.8926 30.7251C35.8926 30.6032 35.917 30.5539 36.0511 30.5365C36.4353 30.4865 36.8173 30.4184 37.1987 30.35C37.3091 30.3301 37.336 30.3549 37.3353 30.4687C37.3304 31.3847 37.3325 32.3008 37.3325 33.2168V33.2172Z" fill="white"/>
<path d="M40.3888 35.2779C40.3888 36.078 40.3857 36.8781 40.392 37.6779C40.393 37.8032 40.3557 37.8277 40.2383 37.8256C39.8503 37.8179 39.4616 37.8193 39.0736 37.8249C38.9723 37.8263 38.943 37.7987 38.9434 37.696C38.9465 36.091 38.9465 34.4859 38.9434 32.8808C38.9434 32.7841 38.9615 32.7464 39.0687 32.7481C39.4665 32.7547 39.8646 32.754 40.2628 32.7481C40.3651 32.7467 40.3916 32.7757 40.3913 32.8773C40.3871 33.6774 40.3888 34.4775 40.3888 35.2772V35.2779Z" fill="white"/>
<path d="M38.8028 31.2951C38.8 30.795 39.1583 30.4353 39.6601 30.4346C40.1655 30.4339 40.5283 30.7908 40.528 31.2874C40.5276 31.7823 40.1623 32.142 39.6608 32.1413C39.1659 32.1406 38.8059 31.7854 38.8031 31.2951H38.8028Z" fill="white"/>
</svg>
