<svg width="70" height="70" viewBox="0 0 70 70" fill="none" xmlns="http://www.w3.org/2000/svg">
<path d="M62.9722 27.557C63.1597 30.174 62.4033 33.0923 60.5627 36.1444C54.2778 46.5924 37.846 54.6578 23.8036 54.1558C18.5093 53.9684 14.326 52.5762 11.5082 50.354C13.7036 50.8159 21.3807 50.2536 26.9026 48.0449C31.6795 46.0369 35.8708 42.8529 39.0842 38.7882C39.0842 38.7882 31.4473 37.3625 20.457 38.4334C11.7559 39.2768 7.73993 39.9996 7.73993 39.9996C7.73993 39.9996 11.9968 38.2393 15.4639 37.0948C21.0661 35.214 25.8718 33.9691 34.3655 31.8674C44.8404 29.2771 57.1358 28.0389 62.9722 27.557Z" fill="#FF7129"/>
<path d="M46.6074 16.299C53.2671 16.56 58.1665 18.6952 60.797 21.9949C57.7315 22.43 50.9312 21.426 33.2745 27.1688C22.7729 30.589 8.25531 37.9917 8.25531 37.9917C9.91857 36.3324 11.709 34.8064 13.6099 33.4269C15.1493 32.2221 20.4102 28.9559 21.5815 28.2865C25.0486 26.3388 31.2598 23.2532 31.2598 23.2532C29.1207 23.0906 26.9695 23.1917 24.8545 23.5544C21.22 24.2171 20.2696 24.5116 18.931 25.0002C26.7152 19.4917 37.2369 15.9643 46.6074 16.299Z" fill="#FF7129"/>
</svg>
