<svg width="70" height="70" viewBox="0 0 70 70" fill="none" xmlns="http://www.w3.org/2000/svg">
<path d="M40.2386 50.4231H35.5967V58.4388H40.2386V50.4231Z" fill="#3E944F"/>
<path d="M33.4479 11.4833H28.8061V19.499H33.4479V11.4833Z" fill="#3E944F"/>
<path d="M58 29.244H49.9843V33.8858H58V29.244Z" fill="#3E944F"/>
<path d="M58 36.035H49.9843V40.6769H58V36.035Z" fill="#3E944F"/>
<path d="M42.3875 19.499H49.9842V27.0957H57.9999V11.4833H42.3875V19.499Z" fill="#3E944F"/>
<path d="M33.4479 50.4231H28.8061V58.4388H33.4479V50.4231Z" fill="#3E944F"/>
<path d="M19.0603 36.035H11.0446V40.6769H19.0603V36.035Z" fill="#3E944F"/>
<path d="M26.657 50.4227H19.0603V42.826H11.0446V58.4385H26.657V50.4227Z" fill="#3E944F"/>
<path d="M49.9842 42.826V50.4227H42.3875V58.4385H57.9999V42.826H49.9842Z" fill="#3E944F"/>
<path d="M19.0603 29.244H11.0446V33.8858H19.0603V29.244Z" fill="#3E944F"/>
<path d="M40.2386 11.4833H35.5967V19.499H40.2386V11.4833Z" fill="#3E944F"/>
<path d="M19.0603 27.0957V19.499H26.657V11.4833H11.0446V27.0957H19.0603Z" fill="#3E944F"/>
<path d="M21.2092 23.2706V46.6516C21.2092 47.5434 21.9291 48.2741 22.8317 48.2741H46.2127C47.1046 48.2741 47.8352 47.5541 47.8352 46.6516V23.2706C47.8352 22.3787 47.1153 21.6481 46.2127 21.6481H22.8317C21.9399 21.6481 21.2092 22.368 21.2092 23.2706ZM25.3568 46.1251C24.25 46.1251 23.3582 45.2332 23.3582 44.1265C23.3582 43.0198 24.25 42.1279 25.3568 42.1279C26.4635 42.1279 27.3553 43.0198 27.3553 44.1265C27.3553 45.2332 26.4635 46.1251 25.3568 46.1251Z" fill="#436475"/>
</svg>
