<svg width="70" height="70" viewBox="0 0 70 70" fill="none" xmlns="http://www.w3.org/2000/svg">
<path fill-rule="evenodd" clip-rule="evenodd" d="M21.3679 28C21.4623 28 21.7689 28.4461 22.0283 29.0096C22.3349 29.6435 22.5 30.4888 22.5 31.4044C22.5 32.3201 22.3349 33.1653 22.0283 33.8228C21.7689 34.3628 21.4859 34.8089 21.3679 34.8089C21.2736 34.8089 21.1321 34.7384 21.0377 34.6445C20.9434 34.5271 21.0849 34.0575 21.3208 33.588C21.6274 33.001 21.7925 32.2262 21.7925 31.4044C21.7925 30.5827 21.6274 29.8079 21.3208 29.2209C21.0849 28.7513 20.9434 28.2817 21.0142 28.1878C21.0849 28.0704 21.25 28 21.3679 28V28ZM20.0236 28.9392C20.0943 28.9392 20.3066 29.2679 20.4953 29.6435C20.684 30.0427 20.8491 30.8175 20.8491 31.4044C20.8491 31.9914 20.684 32.8132 20.4717 33.2358C20.2359 33.7288 20.0236 33.9167 19.8821 33.7523C19.7406 33.6114 19.7406 33.2827 19.9057 32.8836C20.0236 32.5079 20.1415 31.8505 20.1415 31.4044C20.1415 30.9583 20.0236 30.3244 19.9057 29.9957C19.7877 29.667 19.717 29.2913 19.7877 29.1739C19.8821 29.0565 19.9764 28.9392 20.0236 28.9392ZM18.7264 30.1131C18.8443 30.1131 19.0094 30.2774 19.0802 30.4653C19.151 30.6531 19.1981 31.0992 19.1981 31.4749C19.1981 31.8271 19.1038 32.2731 18.9623 32.461C18.8443 32.6488 18.6557 32.7192 18.5613 32.6253C18.467 32.5079 18.3962 31.9444 18.4198 31.381C18.467 30.8175 18.4906 30.3009 18.4906 30.2305C18.4906 30.1601 18.6085 30.1131 18.7264 30.1131V30.1131ZM10 30.5827H17.0755V32.2262H11.8868V35.748H17.0755V42.7917H10V41.1481H15.1887V37.6263H10V30.5827ZM25.566 35.748V42.7917H18.4906L18.4434 39.4342C18.4198 37.5794 18.4906 35.9828 18.6085 35.9124C18.7264 35.8185 20.3302 35.748 25.566 35.748ZM20.3774 41.1481H23.9151V37.6263H20.3774V41.1481ZM27.217 35.748H34.2925V42.7917H32.4057V37.6263H28.8679V42.7917H27.217V35.748ZM35.7076 35.748H42.783V42.7917H35.7076V35.748ZM37.5943 41.1481H41.1321V37.6263H37.5943V41.1481ZM44.434 35.748H51.5094V37.6263H46.0849V39.2698H51.5094V41.1481H46.0849V41.9699C46.0849 42.7447 46.0377 42.7917 44.434 42.7917V35.748ZM52.9245 35.748H60V37.6263H54.8113V39.2698H60V41.1481H54.8113V41.9699C54.8113 42.7682 54.7877 42.7917 52.9245 42.7917V35.748Z" fill="white" fill-opacity="0.94"/>
</svg>
