<svg width="70" height="70" viewBox="0 0 70 70" fill="none" xmlns="http://www.w3.org/2000/svg">
<g clip-path="url(#clip0_53_192)">
<path d="M16.3917 37.0635C16.3917 37.51 16.2048 37.8423 15.8414 38.05C15.4779 38.2577 14.9899 38.3719 14.3876 38.3719H9.95342C9.7042 38.3719 9.46535 38.3408 9.22651 38.2888C8.98767 38.2369 8.77998 38.1538 8.59306 38.0396C8.40615 37.9254 8.26076 37.7904 8.14654 37.6346C8.03231 37.4788 7.98039 37.2919 7.98039 37.0739H14.3253V35.9004H9.85996C9.61074 35.9004 9.37189 35.8693 9.14344 35.8173C8.91498 35.7654 8.71768 35.6823 8.54114 35.5681C8.36461 35.4539 8.22961 35.3189 8.12577 35.1527C8.02192 34.9866 7.97 34.7997 7.97 34.5712V33.5328C7.97 33.2836 8.02192 33.0655 8.12577 32.8889C8.22961 32.7124 8.36461 32.5566 8.54114 32.4424C8.71768 32.3282 8.91498 32.2451 9.14344 32.1828C9.37189 32.1309 9.61074 32.0997 9.87035 32.0997H14.4083C15.0106 32.0997 15.4883 32.2036 15.8518 32.4009C16.2152 32.6086 16.3917 32.9409 16.3917 33.4082H10.0988V34.5712H14.3979C14.6472 34.5712 14.8964 34.592 15.1352 34.6439C15.3741 34.6958 15.5921 34.7581 15.7687 34.862C15.9556 34.9658 16.101 35.0904 16.2152 35.2566C16.3294 35.4227 16.3917 35.5993 16.3917 35.807V37.0531V37.0635Z" fill="white"/>
<path d="M25.5196 37.105C25.5196 37.3335 25.4677 37.5204 25.3743 37.6761C25.2704 37.8319 25.1354 37.9565 24.9693 38.0604C24.8031 38.1642 24.5954 38.2369 24.367 38.2888C24.1385 38.3407 23.8893 38.3615 23.6193 38.3615H19.0086C18.749 38.3615 18.5102 38.3304 18.2817 38.2681C18.0533 38.2057 17.8559 38.1227 17.6898 38.0084C17.5236 37.8942 17.3887 37.7592 17.2952 37.6138C17.2017 37.4581 17.1498 37.2815 17.1498 37.0842V33.3874C17.1498 33.2005 17.2017 33.0343 17.2952 32.8682C17.3887 32.702 17.5236 32.567 17.6898 32.4528C17.8559 32.3386 18.0533 32.2555 18.2817 32.1932C18.5102 32.1309 18.749 32.1101 19.0086 32.1101H23.6193C24.18 32.1101 24.6473 32.2243 25.0004 32.4424C25.3535 32.6605 25.53 32.9824 25.53 33.4082V37.0946L25.5196 37.105ZM23.4324 33.4289H19.2163V37.0842H23.4324V33.4289Z" fill="white"/>
<path d="M34.6371 34.592C34.6371 35.0281 34.4295 35.3604 34.0037 35.5785C33.5779 35.7966 33.0068 35.9108 32.3007 35.9108H29.1853C29.1853 35.7758 29.2061 35.6304 29.258 35.4643C29.2996 35.2981 29.3723 35.1631 29.4657 35.0385C29.5592 34.9139 29.6838 34.81 29.8499 34.7166C30.0057 34.6335 30.1926 34.5816 30.4107 34.5816H32.5499V33.4185H28.3546V36.8973C28.3546 37.4788 28.1781 37.8734 27.8146 38.0915C27.6277 38.1954 27.42 38.268 27.1915 38.2992C26.9631 38.3304 26.7242 38.3511 26.4854 38.3511H26.2777V32.1205H32.7472C33.3079 32.1205 33.7752 32.2347 34.1283 32.4528C34.4814 32.6812 34.6579 33.0032 34.6579 33.4289V34.592H34.6371Z" fill="white"/>
<path d="M52.8825 37.0635C52.8825 37.2919 52.8306 37.4788 52.7371 37.6346C52.6333 37.7904 52.4983 37.9254 52.3321 38.0292C52.166 38.1331 51.9583 38.2161 51.7298 38.2681C51.5014 38.32 51.2522 38.3511 50.9925 38.3511H46.3715C46.1223 38.3511 45.8834 38.32 45.6654 38.2577C45.4369 38.1954 45.2396 38.1123 45.0734 37.9981C44.9073 37.8838 44.7723 37.7488 44.6685 37.5931C44.5646 37.4373 44.5231 37.2608 44.5231 37.0531V33.3874C44.5231 33.2005 44.575 33.0343 44.6685 32.8786C44.7723 32.7228 44.9073 32.5878 45.0734 32.4839C45.2396 32.3697 45.4369 32.2866 45.6654 32.214C45.8938 32.1516 46.1327 32.1101 46.3923 32.1101H51.0029C51.5845 32.1101 52.0414 32.214 52.3841 32.432C52.7267 32.6397 52.8929 32.972 52.8929 33.4185H46.6V37.0738H50.8264V35.9004H49.331C48.8326 35.9004 48.4068 35.7966 48.0434 35.5889C47.6799 35.3812 47.4826 35.1216 47.4411 34.8204V34.5816H52.9033V37.0635H52.8825Z" fill="white"/>
<path d="M62 37.105C62 37.3335 61.9481 37.5204 61.8546 37.6761C61.7508 37.8319 61.6158 37.9565 61.4496 38.0604C61.2835 38.1642 61.0758 38.2369 60.8473 38.2888C60.6189 38.3407 60.3697 38.3615 60.0997 38.3615H55.489C55.2294 38.3615 54.9905 38.3304 54.7621 38.2681C54.5336 38.2057 54.3363 38.1227 54.1702 38.0084C54.004 37.8942 53.869 37.7592 53.7756 37.6138C53.6821 37.4581 53.6302 37.2815 53.6302 37.0842V33.3874C53.6302 33.2005 53.6821 33.0343 53.7756 32.8682C53.869 32.702 54.004 32.567 54.1702 32.4528C54.3363 32.3386 54.5336 32.2555 54.7621 32.1932C54.9905 32.1309 55.2294 32.1101 55.489 32.1101H60.0997C60.6604 32.1101 61.1277 32.2243 61.4808 32.4424C61.8339 32.6605 62.0104 32.9824 62.0104 33.4082V37.0946L62 37.105ZM59.9231 33.4289H55.7071V37.0842H59.9231V33.4289Z" fill="white"/>
<path d="M37.4617 34.6127V32.1205H37.254C36.9944 32.1205 36.7555 32.1516 36.5271 32.2243C36.2986 32.2866 36.1013 32.3801 35.9352 32.4943C35.769 32.6085 35.634 32.7435 35.5302 32.8889C35.4263 33.0447 35.3848 33.2108 35.3848 33.3978V38.3719H37.4617V34.6231V34.6127Z" fill="white"/>
<path d="M41.6882 32.1205V34.6127H38.0952L38.7078 35.9108H41.6778V38.3615H43.7546V32.1205H41.6882Z" fill="white"/>
</g>
<defs>
<clipPath id="clip0_53_192">
<rect width="54.03" height="6.25141" fill="white" transform="translate(7.97 32.1205)"/>
</clipPath>
</defs>
</svg>
