<svg width="70" height="70" viewBox="0 0 70 70" fill="none" xmlns="http://www.w3.org/2000/svg">
<path d="M31.2038 65.892L12.6921 56.5955C11.5351 55.9499 10.7638 54.7878 10.7638 53.4966V35.8074C10.7638 33.225 13.4634 31.5464 15.7774 32.7085L34.2891 42.0051C35.4461 42.6507 36.2174 43.8127 36.2174 45.1039V62.7932C36.2174 65.3756 33.5178 67.0541 31.2038 65.892Z" fill="#B0E237"/>
<path d="M43.8022 29.7389L58.0717 22.5082C59.2287 21.8626 60 20.7006 60 19.4094V5.85191C60 3.52777 57.5575 2.10747 55.6292 3.14042L41.3597 10.3711C40.2027 11.0167 39.4314 12.1787 39.4314 13.4699V27.1565C39.4314 29.4807 41.8739 30.901 43.8022 29.868V29.7389Z" fill="#C0E767"/>
<path d="M43.1594 47.17L50.8727 43.2964C52.0297 42.6508 52.801 41.4888 52.801 40.1976V33.0961C52.801 31.1593 50.7441 29.8681 49.0729 30.7719L41.3597 34.6455C40.2027 35.2911 39.4314 36.4531 39.4314 37.7443V44.8459C39.4314 46.7827 41.4882 48.0738 43.1594 47.17Z" fill="#D0EE90"/>
</svg>
