<svg width="70" height="70" viewBox="0 0 70 70" fill="none" xmlns="http://www.w3.org/2000/svg">
<path d="M49.2779 25.4808C48.1578 26.1227 47.0988 26.7542 46.0086 27.3273C45.8306 27.4208 45.4785 27.3104 45.2667 27.1895C42.0091 25.3457 38.7659 23.4772 35.5044 21.6398C35.2926 21.5203 34.9093 21.4891 34.7092 21.6009C30.8266 23.7903 26.9609 26.0084 23.0913 28.2213C23.0355 28.2524 22.9874 28.2966 22.8535 28.3954C23.0562 28.5253 23.2213 28.6397 23.3941 28.7384C27.1129 30.8642 30.837 32.9835 34.548 35.1236C34.9366 35.3471 35.2159 35.3393 35.5992 35.1197C40.4577 32.326 45.3252 29.5505 50.1914 26.7698C50.3928 26.6542 50.6007 26.5489 50.8788 26.4008C50.8956 26.6516 50.9203 26.8335 50.9203 27.0154C50.9229 30.221 50.9125 33.4253 50.932 36.6309C50.9346 37.0805 50.7878 37.3157 50.3967 37.5379C45.4668 40.3355 40.5434 43.1486 35.6304 45.9761C35.2211 46.2113 34.9275 46.2165 34.5156 45.98C29.5831 43.1421 24.6415 40.3199 19.6921 37.5106C19.3166 37.2975 19.1893 37.0649 19.1997 36.6439C19.2295 35.5225 19.2101 34.3998 19.2101 33.1667C19.5063 33.3279 19.7272 33.4409 19.9442 33.5643C24.8104 36.3437 29.6792 39.1192 34.5389 41.9103C34.921 42.1299 35.2003 42.1429 35.5914 41.9181C39.4519 39.691 43.3215 37.4781 47.2028 35.286C47.6472 35.0352 47.807 34.7572 47.7732 34.2634C47.7303 33.641 47.7628 33.0134 47.7628 32.274C47.4912 32.4157 47.2872 32.5118 47.0923 32.6236C43.2591 34.8118 39.4233 36.996 35.5979 39.1998C35.212 39.422 34.9327 39.4259 34.5428 39.2011C29.6117 36.3645 24.6701 33.5422 19.7207 30.733C19.3296 30.5108 19.1867 30.2639 19.1997 29.8195C19.2321 28.8242 19.2243 27.8275 19.2023 26.8309C19.1945 26.484 19.3023 26.2891 19.609 26.1149C24.6311 23.2576 29.6428 20.3846 34.6676 17.5338C34.8651 17.422 35.2289 17.3999 35.4186 17.5078C39.9756 20.0871 44.5182 22.6911 49.0635 25.2911C49.1168 25.3223 49.1584 25.3743 49.2766 25.4808H49.2779Z" fill="white"/>
<path d="M22.7989 42.4366C26.0382 44.2882 29.1516 46.0697 32.2662 47.8511C33.0354 48.2916 33.819 48.71 34.5713 49.1778C34.9287 49.4 35.1937 49.3974 35.5641 49.183C38.463 47.5029 41.3775 45.8475 44.2882 44.1856C44.4727 44.0803 44.6637 43.9828 44.9846 43.8113C44.9846 44.6637 44.9002 45.4356 45.0041 46.1814C45.1795 47.447 44.7001 48.1318 43.5553 48.7282C40.8539 50.1354 38.2395 51.7116 35.6017 53.2423C35.2171 53.4658 34.9365 53.471 34.5453 53.2462C29.5973 50.4005 24.6388 47.5718 19.6764 44.7508C19.336 44.5572 19.1879 44.348 19.1996 43.9426C19.2307 42.9264 19.2281 41.9077 19.1996 40.8916C19.1892 40.5109 19.3256 40.303 19.6491 40.1354C20.3001 39.7975 20.9355 39.1556 21.5787 39.1517C22.2206 39.1491 22.8677 39.7689 23.507 40.1276C24.032 40.4212 24.5478 40.7305 25.1443 41.0774C24.349 41.5387 23.6279 41.9571 22.7963 42.4379L22.7989 42.4366Z" fill="white"/>
<path d="M50.9216 44.4701C48.8893 43.3097 46.9818 42.2196 44.9769 41.0748C46.1645 40.3978 47.2625 39.7663 48.3683 39.1491C48.4605 39.0984 48.6061 39.1296 48.7243 39.1439C48.7841 39.1504 48.84 39.1998 48.8958 39.2336C49.5611 39.6325 50.4447 39.8898 50.8254 40.4745C51.1542 40.9812 50.9164 41.8583 50.9229 42.5717C50.9281 43.1551 50.9229 43.7385 50.9229 44.4714L50.9216 44.4701Z" fill="white"/>
</svg>
