<svg width="70" height="70" viewBox="0 0 70 70" fill="none" xmlns="http://www.w3.org/2000/svg">
<path d="M42.1261 23.5194C42.1261 23.5194 42.5748 25.4235 41.1385 25.6874C40.1382 25.866 38.5233 24.8736 37.7111 23.8844C36.7093 22.663 36.8357 21.7022 37.6147 20.8505C38.7856 19.5564 40.7877 20.0573 40.7877 20.0573C40.7877 20.0573 37.1185 16.8353 33.2945 19.4742C29.8892 21.8192 30.8674 25.0127 33.9376 27.8001C36.7093 30.322 34.4986 33.0842 31.7064 32.7239C29.7944 32.4821 29.0138 30.9478 29.4705 30.0044C29.8687 29.1985 31.2403 28.7039 31.2403 28.7039C31.2403 28.7039 29.6633 28.0624 27.8066 28.7624C26.1411 29.3897 24.7648 30.7692 24.8754 34.2187V50.2227C24.8754 50.2227 26.5993 48.0958 28.622 45.9341C30.8927 43.499 31.9292 41.8494 34.2584 42.0437C38.6655 42.3171 41.8527 40.3577 44.0191 37.2179C48.1797 31.1737 44.9214 24.4217 42.1261 23.5194Z" fill="#EE2922"/>
</svg>
