<svg width="90" height="90" viewBox="0 0 90 90" fill="none" xmlns="http://www.w3.org/2000/svg">
<path d="M61.599 44.2507C63.665 45.5001 64.4192 47.4367 64.7904 49.5942C64.8185 49.7563 64.8085 49.9247 64.8085 50.0904C64.8094 53.2121 64.8484 56.3347 64.7913 59.4555C64.7669 60.8136 65.0738 62.0449 65.6904 63.2273C65.799 63.4355 65.8986 63.6492 66 63.8556C65.8859 63.9588 65.7764 63.9172 65.6786 63.9172C63.0231 63.9199 60.3686 63.9126 57.7132 63.9289C57.3845 63.9308 57.2378 63.8085 57.102 63.5369C56.6086 62.5446 56.3895 61.498 56.3913 60.3944C56.3958 56.8652 56.3931 53.3361 56.3922 49.807C56.3922 49.596 56.3958 49.3842 56.3786 49.1741C56.2899 48.0976 55.2913 47.3109 54.2184 47.4557C54.0853 47.4738 54.0301 47.5146 54.0355 47.645C54.0401 47.75 54.0373 47.8559 54.0373 47.9618C54.0373 53.1197 54.0319 58.2776 54.0473 63.4355C54.0482 63.8321 53.9622 63.9335 53.5593 63.9298C51.0705 63.909 48.5807 63.9117 46.0918 63.9271C45.7342 63.9289 45.6111 63.8692 45.612 63.4726C45.6237 51.1967 45.6247 38.9199 45.6102 26.644C45.6102 26.2149 45.7478 26.1687 46.1154 26.1696C50.4602 26.1814 54.806 26.2339 59.1491 26.1605C62.977 26.0963 64.3948 28.3253 64.7108 31.2062C64.9923 33.7747 64.7832 36.3595 64.8031 38.9362C64.8103 39.9194 64.7198 40.8972 64.431 41.8415C64.096 42.9388 63.5446 43.8632 62.3151 44.1484C62.1132 44.1955 61.9041 44.2082 61.5981 44.2507H61.599ZM54.0383 36.3948C54.0383 38.0082 54.0364 39.6225 54.0419 41.2358C54.0419 41.3898 53.9423 41.5935 54.2646 41.6107C55.2342 41.6623 56.0455 41.0955 56.2863 40.153C56.3687 39.8298 56.394 39.5003 56.394 39.1662C56.3922 37.2966 56.3995 35.4261 56.3913 33.5565C56.385 32.2256 55.782 31.5348 54.4692 31.2949C54.1596 31.2378 54.022 31.2578 54.0283 31.6453C54.0527 33.2288 54.0383 34.8122 54.0383 36.3957V36.3948Z" fill="white"/>
<path d="M23.2558 56.1025C23.2558 53.8852 23.2649 51.6689 23.2468 49.4516C23.2441 49.1058 23.3382 49.0288 23.6723 49.0306C26.0552 49.0451 28.4391 49.0451 30.8229 49.0306C31.1416 49.0288 31.2222 49.1157 31.2204 49.4308C31.2068 51.7078 31.214 53.9848 31.214 56.2618C31.214 56.8078 31.2675 57.3455 31.4739 57.8571C31.7681 58.5859 32.3195 58.9553 33.0818 58.9372C33.7645 58.9209 34.2307 58.547 34.4942 57.8064C34.668 57.3175 34.735 56.8078 34.7386 56.2953C34.7522 54.3071 34.4716 52.3615 33.8623 50.4647C33.6142 49.6925 33.1859 49.0985 32.4924 48.6332C30.4789 47.2815 28.4853 45.8972 26.5125 44.4857C24.5025 43.0498 23.2975 41.0045 23.2586 38.6017C23.2115 35.6737 23.0711 32.7276 23.4125 29.7951C23.5908 28.2642 24.4953 27.3334 25.7836 26.7431C27.3001 26.0469 28.9542 25.9129 30.6002 25.8477C34.4019 25.6983 38.1591 26.084 41.8874 26.8147C42.1699 26.8699 42.2442 26.9749 42.2433 27.2556C42.2333 31.4628 42.2333 35.6701 42.2433 39.8783C42.2433 40.1834 42.1808 40.2911 41.8512 40.2893C39.4375 40.2748 37.0238 40.2757 34.6101 40.2893C34.2814 40.2911 34.2172 40.1843 34.2199 39.8792C34.2335 38.0693 34.2244 36.2595 34.2244 34.4506C34.2244 33.92 34.1809 33.394 34.0125 32.8888C33.7165 31.9997 32.4924 31.6186 31.7319 32.1736C31.5246 32.3248 31.4322 32.552 31.387 32.791C30.908 35.288 31.2005 39.144 34.3684 41.2816C36.1673 42.4948 37.9065 43.7976 39.7245 44.9791C41.3107 46.0103 42.2333 47.4517 42.7168 49.2298C43.2374 51.142 43.3306 53.0985 43.2455 55.0622C43.1685 56.8204 43.289 58.5877 42.9232 60.3342C42.6308 61.7275 41.9019 62.6872 40.571 63.2467C39.05 63.8859 37.4665 64.2227 35.8387 64.3549C31.7464 64.6872 27.7066 64.3694 23.7339 63.2938C23.3726 63.196 23.2386 63.0593 23.2432 62.6628C23.2667 60.4763 23.254 58.2898 23.254 56.1034L23.2558 56.1025Z" fill="white"/>
</svg>
