<svg width="70" height="70" viewBox="0 0 70 70" fill="none" xmlns="http://www.w3.org/2000/svg">
<path d="M29.373 48.969C29.3833 48.9531 29.398 48.9403 29.4154 48.9323C30.4334 48.4315 31.315 47.693 31.9852 46.7796C32.6554 45.8662 33.0944 44.8049 33.2649 43.686C33.7928 40.433 31.3188 38.158 31.3188 38.158L25.2033 32.4972C24.9988 32.3346 24.851 32.1118 24.7809 31.8606C24.7109 31.6094 24.7222 31.3425 24.8132 31.098C24.9042 30.8536 25.0702 30.644 25.2877 30.4991C25.5052 30.3543 25.763 30.2815 26.0244 30.2913H44.5203C44.5848 30.2898 44.6487 30.3041 44.7064 30.333C44.7641 30.3618 44.8138 30.4043 44.8512 30.4568C44.8886 30.5093 44.9125 30.5701 44.9208 30.6339C44.9291 30.6977 44.9216 30.7626 44.8989 30.8228L37.5623 48.4805C37.4802 48.6708 37.3442 48.8331 37.1708 48.9473C36.9975 49.0616 36.7944 49.1229 36.5866 49.1236H29.458C29.4312 49.1236 29.4054 49.113 29.3864 49.0941C29.3674 49.0751 29.3567 49.0494 29.3567 49.0227C29.357 49.0036 29.3626 48.985 29.373 48.969Z" fill="white"/>
<path d="M51.2223 30.286H57.7484V30.2807C57.8499 30.2833 57.9466 30.3243 58.0189 30.3954C58.0912 30.4664 58.1336 30.5622 58.1377 30.6634C58.1386 30.7142 58.1296 30.7648 58.111 30.8122L52.2994 44.7916C51.7511 46.0765 50.835 47.1717 49.6658 47.9403C48.4965 48.7089 47.1259 49.1168 45.7253 49.113H43.2887C43.1835 49.113 43.0826 49.0718 43.0078 48.9981C42.9329 48.9245 42.8902 48.8245 42.8888 48.7197C42.8893 48.6564 42.9058 48.5942 42.9368 48.539L50.2466 30.9291C50.3287 30.7388 50.4648 30.5765 50.6381 30.4623C50.8115 30.348 51.0145 30.2867 51.2223 30.286Z" fill="white"/>
<path d="M26.7761 43.9996H9.42655H9.42122C9.36738 44.0025 9.31352 43.9945 9.26287 43.9761C9.21222 43.9577 9.16583 43.9292 9.12649 43.8925C9.08714 43.8558 9.05566 43.8115 9.03392 43.7623C9.01218 43.7131 9.00065 43.66 9.00001 43.6063C8.99968 43.5532 9.01058 43.5007 9.032 43.4522L16.6404 25.2151C17.1976 23.9581 18.11 22.8901 19.2661 22.1415C20.4222 21.393 21.772 20.9963 23.1505 21H61.582C61.6871 21 61.788 21.0413 61.8629 21.1149C61.9377 21.1885 61.9805 21.2886 61.9819 21.3934C61.981 21.4446 61.9702 21.4951 61.9499 21.5422L60.5956 24.8005C60.5673 24.8781 60.5158 24.9451 60.4481 24.9926C60.3805 25.0401 60.2998 25.0658 60.217 25.0663H26.2323C19.2743 25.0663 17.8401 32.6566 21.1884 35.9309L27.5866 41.8735C28.5463 42.8143 28.0078 43.9996 26.7761 43.9996Z" fill="white"/>
</svg>
