<svg width="70" height="70" viewBox="0 0 70 70" fill="none" xmlns="http://www.w3.org/2000/svg">
<g clip-path="url(#clip0_53_89)">
<path d="M29.4063 23C28.9657 23.1358 28.5504 23.1371 28.3733 23.3434C27.8315 23.9731 27.2059 24.1674 26.4192 24.0037C25.0987 23.7281 23.7862 23.3674 22.451 23.217C19.9645 22.9348 17.4952 23.004 15.1817 24.1741C13.0039 25.2749 11.8285 27.0067 11.8392 29.4747C11.8458 31.0601 12.6432 32.3247 13.6855 33.4042C15.0552 34.8219 16.5541 36.1131 17.9385 37.5161C18.7119 38.3002 19.4799 39.1295 20.0563 40.0586C21.4926 42.3788 19.9778 45.4591 17.3541 45.7014C13.7254 46.0368 10.9752 43.714 10.6531 40.064C10.6358 39.8683 10.4468 39.5967 10.2711 39.5262C9.94627 39.397 9.6827 39.5235 9.62014 39.9402C9.56822 40.2889 9.44709 40.6257 9.36589 40.9705C8.91064 42.902 8.45672 44.8348 8.00146 46.7729C8.58318 46.9367 8.95057 46.8834 9.20615 46.2831C9.53095 45.5203 10.0993 45.2954 10.8927 45.4924C11.6222 45.6734 12.3463 45.8811 13.0651 46.1007C16.4303 47.1243 19.7701 47.2654 23.062 45.8198C25.7776 44.6271 27.3483 42.3415 27.2245 39.6739C27.134 37.7078 26.1596 36.1304 24.7912 34.7966C23.681 33.7144 22.4617 32.744 21.3688 31.6458C20.469 30.7419 19.5385 29.8141 18.8822 28.7372C17.8133 26.9828 18.6187 24.8676 20.4756 24.4097C23.4228 23.6815 26.153 25.2523 26.736 28.1995C26.8505 28.7772 26.9024 29.3669 26.9942 30.0324C27.3417 29.8967 27.7889 30.2441 27.9314 29.5719C28.38 27.4513 28.8778 25.3415 29.4089 23H29.4063ZM50.8497 23.3674C50.6554 23.9385 50.7725 24.2446 51.4088 24.2619C51.7349 24.2712 52.065 24.3578 52.3832 24.447C53.1406 24.6599 53.3802 24.9768 53.307 25.7422C53.2564 26.268 53.1619 26.7964 53.0275 27.3076C52.5136 29.2537 51.9772 31.1932 51.4461 33.1353C50.4956 36.6123 49.5611 40.0946 48.5788 43.5635C48.2646 44.675 47.6683 45.5922 46.3704 45.7666C45.8246 45.8398 45.7514 46.1553 45.9631 46.6678C49.239 46.6678 52.5163 46.6718 55.7922 46.6531C55.916 46.6531 56.1517 46.4242 56.1383 46.331C56.1144 46.1646 55.9693 45.9343 55.8215 45.8824C55.514 45.7732 55.1693 45.7719 54.8431 45.7107C53.9939 45.5509 53.5959 45.0837 53.6744 44.2238C53.7303 43.6101 53.8581 42.9965 54.0165 42.4001C54.6661 39.9641 55.3423 37.5348 56.0039 35.1028C56.8052 32.1596 57.5866 29.2111 58.4133 26.2733C58.7048 25.235 59.3211 24.4336 60.4819 24.2806C61.0609 24.2047 61.2499 23.9531 61.0569 23.3674H50.8484H50.8497ZM46.6273 40.0307C46.0895 39.7045 45.7288 39.7897 45.4812 40.3382C45.392 40.5378 45.2536 40.7162 45.1258 40.8972C42.6671 44.3888 39.1556 45.6707 35.0517 45.6202C33.449 45.6002 33.0709 45.2235 33.5102 43.4743C34.0001 41.5216 34.5591 39.5874 35.0823 37.6426C35.2686 36.9517 35.435 36.2555 35.6281 35.4941C34.1119 35.3371 32.7049 35.1933 31.2978 35.0429C30.8612 34.9963 30.6389 35.1281 30.5151 35.6073C29.8349 38.2203 29.1214 40.824 28.392 43.4224C28.0658 44.5832 27.5134 45.5629 26.1463 45.7453C25.6258 45.8145 25.498 46.1207 25.7203 46.6531C25.9426 46.6531 26.1822 46.6531 26.4219 46.6531C31.9434 46.6531 37.4664 46.6531 42.988 46.6531C44.5694 46.6531 44.596 46.6611 45.0752 45.1676C45.6196 43.465 46.1122 41.7452 46.6273 40.0267V40.0307ZM31.0143 33.8928C32.7155 33.8089 34.2836 33.745 35.8477 33.6359C36.0088 33.6252 36.2297 33.3696 36.287 33.1846C36.5758 32.2568 36.8248 31.317 37.0777 30.3785C37.5156 28.7572 37.9323 27.1292 38.3849 25.5119C38.6218 24.6639 38.9093 24.435 39.8105 24.4177C40.6065 24.403 41.4145 24.4044 42.1986 24.5228C43.5843 24.7332 44.9501 25.0313 45.8739 26.2653C46.5128 27.1212 46.5581 28.1076 46.6007 29.1073C46.6153 29.4507 46.5621 29.8141 47.1132 29.8461C47.6416 29.8767 47.619 29.4933 47.6882 29.2045C47.9837 27.9785 48.2513 26.7472 48.5255 25.5159C48.6813 24.8157 48.829 24.1128 48.9981 23.3315C48.632 23.3315 48.3698 23.3315 48.1075 23.3315C43.1424 23.3315 38.1759 23.3315 33.2107 23.3315C32.4799 23.3315 31.7464 23.3088 31.017 23.3501C30.8479 23.3594 30.6908 23.5844 30.5284 23.7108C30.6735 23.8825 30.788 24.1408 30.9704 24.2073C31.3391 24.3405 31.7504 24.3485 32.1351 24.447C32.8965 24.6426 33.1601 25.01 33.0696 25.7994C33.0084 26.3252 32.9085 26.851 32.7727 27.3635C32.2097 29.496 31.6266 31.6232 31.013 33.8928H31.0143ZM39.736 39.7045C40.2458 38.6543 40.6545 37.777 41.0924 36.9145C41.5064 36.1011 42.1746 35.5767 43.0638 35.3783C44.2672 35.1094 45.4785 34.8751 46.5674 34.6502C45.8246 34.4958 44.9354 34.4013 44.1101 34.1217C42.1493 33.4588 41.9936 33.0382 41.8924 31.4355C41.8698 31.0761 41.8538 30.7166 41.8325 30.324C41.2588 31.2877 40.7716 32.2235 40.1593 33.0714C39.921 33.4016 39.4192 33.6784 39.0092 33.7224C37.075 33.9327 35.1315 34.0631 33.1894 34.2016C31.8769 34.2948 30.5617 34.3547 29.2479 34.4292C29.4236 34.5503 29.598 34.5663 29.771 34.5836C32.5438 34.8485 35.3179 35.1001 38.0893 35.3823C39.3446 35.5101 39.6548 35.8402 39.7267 37.1022C39.7732 37.9115 39.736 38.7262 39.736 39.7032V39.7045Z" fill="white"/>
<path d="M29.406 23C28.8749 25.3428 28.3784 27.4527 27.9284 29.5719C27.786 30.2441 27.3387 29.8967 26.9913 30.0324C26.8995 29.3682 26.8476 28.7772 26.7331 28.1994C26.15 25.2523 23.4199 23.6815 20.4727 24.4097C18.6144 24.8689 17.8104 26.9828 18.8793 28.7372C19.5356 29.8141 20.466 30.7433 21.3659 31.6458C22.4588 32.744 23.6781 33.7144 24.7883 34.7966C26.1567 36.1304 27.1311 37.7078 27.2216 39.6739C27.3454 42.3415 25.7747 44.6271 23.0591 45.8198C19.7672 47.2654 16.4273 47.1243 13.0622 46.1007C12.3434 45.8824 11.6193 45.6747 10.8898 45.4923C10.0964 45.2953 9.52802 45.5203 9.20322 46.2831C8.94764 46.8834 8.58025 46.9366 7.99854 46.7729C8.45379 44.8348 8.90771 42.9019 9.36296 40.9704C9.44416 40.6257 9.56529 40.2889 9.61721 39.9401C9.67977 39.5222 9.94334 39.3957 10.2681 39.5262C10.4438 39.5967 10.6329 39.8683 10.6502 40.0639C10.9736 43.7139 13.7225 46.0381 17.3512 45.7013C19.9762 45.4591 21.491 42.3775 20.0534 40.0586C19.477 39.1295 18.7103 38.2988 17.9355 37.5161C16.5498 36.1131 15.0509 34.8219 13.6825 33.4042C12.6402 32.326 11.8442 31.0601 11.8362 29.4747C11.8256 27.0067 13.001 25.2762 15.1787 24.1741C17.4949 23.004 19.9642 22.9348 22.4521 23.2156C23.7873 23.3661 25.0998 23.7268 26.4203 24.0023C27.2056 24.1661 27.8326 23.9731 28.3744 23.3421C28.5514 23.1358 28.9667 23.1358 29.4073 22.9987L29.406 23Z" fill="white"/>
<path d="M50.8495 23.3673H61.0581C61.2498 23.953 61.0621 24.2046 60.483 24.2805C59.3223 24.4336 58.7073 25.2349 58.4144 26.2732C57.5891 29.2097 56.8077 32.1582 56.0051 35.1027C55.3422 37.5347 54.6659 39.964 54.0177 42.4C53.8593 42.9964 53.7315 43.61 53.6756 44.2237C53.597 45.0836 53.995 45.5508 54.8443 45.7106C55.1704 45.7718 55.5152 45.7731 55.8227 45.8823C55.9705 45.9342 56.1156 46.1645 56.1395 46.3309C56.1528 46.4241 55.9185 46.6517 55.7934 46.653C52.5161 46.6717 49.2402 46.6677 45.9642 46.6677C45.7526 46.1552 45.8258 45.8397 46.3716 45.7665C47.6681 45.5934 48.2645 44.6763 48.5799 43.5634C49.561 40.0945 50.4955 36.6135 51.4472 33.1353C51.9784 31.1931 52.5148 29.2536 53.0286 27.3075C53.1631 26.7963 53.2576 26.2679 53.3082 25.7421C53.3814 24.9767 53.1418 24.6599 52.3844 24.4469C52.0662 24.3577 51.7374 24.2712 51.41 24.2618C50.7737 24.2432 50.6565 23.937 50.8509 23.3673H50.8495Z" fill="white"/>
<path d="M46.6271 40.0306C46.1107 41.7491 45.6195 43.4689 45.075 45.1714C44.5971 46.6663 44.5705 46.657 42.9878 46.657C37.4662 46.657 31.9433 46.657 26.4217 46.657C26.1821 46.657 25.9438 46.657 25.7202 46.657C25.4979 46.1245 25.6243 45.8184 26.1461 45.7492C27.5132 45.5668 28.0656 44.5871 28.3918 43.4263C29.1212 40.8266 29.8347 38.2229 30.515 35.6112C30.6401 35.1319 30.8611 35.0002 31.2977 35.0467C32.7047 35.1958 34.1117 35.3396 35.6279 35.498C35.4349 36.2594 35.2685 36.9556 35.0821 37.6465C34.559 39.5899 33.9986 41.5254 33.51 43.4782C33.0721 45.2273 33.4488 45.6041 35.0515 45.624C39.1567 45.6746 42.667 44.3914 45.1256 40.9011C45.2534 40.7201 45.3918 40.5417 45.481 40.342C45.7273 39.7936 46.0894 39.7084 46.6271 40.0345V40.0306Z" fill="white"/>
<path d="M31.0142 33.8927C31.6279 31.6231 32.2109 29.4959 32.774 27.3634C32.9098 26.8509 33.0096 26.3251 33.0708 25.7993C33.1613 25.0099 32.8978 24.6425 32.1364 24.4469C31.7517 24.3484 31.3403 24.3404 30.9716 24.2073C30.7879 24.1407 30.6748 23.8825 30.5297 23.7107C30.6921 23.5843 30.8491 23.3593 31.0182 23.35C31.7477 23.3101 32.4798 23.3314 33.2119 23.3314C38.1771 23.3314 43.1436 23.3314 48.1088 23.3314C48.371 23.3314 48.6332 23.3314 48.9993 23.3314C48.8302 24.1114 48.6825 24.8143 48.5267 25.5158C48.2525 26.7471 47.9836 27.9784 47.6895 29.2044C47.6202 29.4932 47.6415 29.8779 47.1144 29.846C46.562 29.814 46.6152 29.4506 46.6019 29.1072C46.5593 28.1088 46.5154 27.1211 45.8751 26.2652C44.9526 25.0312 43.5855 24.7331 42.1998 24.5227C41.4158 24.4043 40.6078 24.4016 39.8117 24.4176C38.9106 24.4349 38.623 24.6638 38.3861 25.5118C37.9335 27.1291 37.5168 28.7571 37.0789 30.3784C36.826 31.3169 36.5771 32.2567 36.2882 33.1845C36.231 33.3695 36.0087 33.6238 35.8489 33.6358C34.2848 33.7449 32.7167 33.8088 31.0155 33.8927H31.0142Z" fill="white"/>
<path d="M39.7358 39.7044C39.7358 38.7274 39.773 37.9127 39.7265 37.1034C39.6546 35.8415 39.3444 35.5127 38.0891 35.3835C35.3177 35.1 32.5436 34.8484 29.7708 34.5849C29.5964 34.5689 29.4234 34.5516 29.2477 34.4304C30.5615 34.3559 31.8767 34.296 33.1892 34.2028C35.1313 34.0644 37.0748 33.9326 39.009 33.7236C39.419 33.6797 39.9208 33.4015 40.1591 33.0727C40.7714 32.2261 41.2586 31.2889 41.8323 30.3252C41.8536 30.7179 41.8696 31.0773 41.8922 31.4367C41.9934 33.0394 42.1505 33.4614 44.1099 34.123C44.9352 34.4025 45.8244 34.497 46.5672 34.6514C45.4783 34.8764 44.267 35.1093 43.0636 35.3796C42.1744 35.5779 41.5062 36.1024 41.0922 36.9157C40.6543 37.7783 40.2443 38.6555 39.7358 39.7058V39.7044Z" fill="white"/>
</g>
<defs>
<clipPath id="clip0_53_89">
<rect width="53.13" height="23.8874" fill="white" transform="translate(8 23)"/>
</clipPath>
</defs>
</svg>
