<svg width="70" height="70" viewBox="0 0 70 70" fill="none" xmlns="http://www.w3.org/2000/svg">
<path fill-rule="evenodd" clip-rule="evenodd" d="M48.7757 36.043C46.6432 34.8692 44.4834 33.6546 42.3919 32.4945C39.9693 31.1297 34.5784 28.2875 32.1013 26.9329L32.0603 26.9125C31.9239 26.8374 32.0092 31.5255 32.0092 31.5255C32.2719 31.6756 35.0356 33.1666 35.3461 33.3407C36.7109 34.1049 38.0757 34.8692 39.4405 35.6335C41.7299 36.9164 44.1013 38.2403 46.4419 39.5198C47.4348 40.0589 48.0489 40.6355 48.0251 41.8467C48.008 42.9966 47.4245 43.5527 46.4862 44.0611C44.6642 45.0608 42.8184 46.1083 41.0271 47.0978C38.4169 48.5615 35.718 50.0731 33.0396 51.5095C32.6011 51.7304 32.2211 52.0519 31.9307 52.4478C31.7769 52.1706 31.5564 51.936 31.2892 51.7654C28.43 50.1311 25.9154 48.7321 22.8992 47.0534L20.1354 45.5112V45.7398C20.1354 46.1049 20.1354 46.4598 20.1354 46.8078C20.1354 47.1558 20.1354 47.4697 20.1354 47.7938C20.1354 48.4558 20.1354 49.1006 20.1627 49.7421C20.1943 49.8907 20.2571 50.0309 20.3472 50.1533C20.4372 50.2757 20.5523 50.3774 20.6848 50.4518C23.7965 52.2056 26.55 53.7375 29.8187 55.5698L31.9034 56.7333L32.0228 56.7981C32.0228 56.7981 37.2909 53.9798 39.3279 52.8436C42.5124 51.0694 45.6901 49.2985 48.861 47.5311C50.9457 46.3779 52 44.4603 52 41.8126V41.7683C52 39.1342 50.9116 37.2064 48.7962 36.0464" fill="white"/>
<path fill-rule="evenodd" clip-rule="evenodd" d="M41.6207 23.3879C44.9167 25.2235 48.0318 26.9602 51.1743 28.731C51.3052 28.8094 51.4176 28.9153 51.5036 29.0414C51.5896 29.1675 51.6472 29.3107 51.6724 29.4612C51.7031 30.4131 51.6997 31.389 51.6963 32.416C51.6963 32.7845 51.6963 33.1632 51.6963 33.5556V33.7842L49.226 32.4023C45.9915 30.5906 42.9343 28.8812 39.8669 27.1342C39.7087 27.0237 39.5764 26.8801 39.4792 26.7134C39.3819 26.5467 39.3222 26.3608 39.304 26.1686C39.2801 25.6125 39.2733 25.0529 39.2733 24.4626C39.2733 24.1214 39.2733 23.7802 39.2733 23.439C39.2733 23.0978 39.2733 22.6816 39.2733 22.2755V22.0811L41.6207 23.3879Z" fill="white"/>
<path fill-rule="evenodd" clip-rule="evenodd" d="M21.8821 34.1322C24.0146 35.3025 26.1744 36.5205 28.2659 37.6772C30.6885 39.042 36.0794 41.8842 38.5565 43.2388L38.5974 43.2626C38.7339 43.3377 38.6486 38.6462 38.6486 38.6462C38.3859 38.4995 35.6222 37.005 35.3117 36.8344C33.9469 36.0702 32.5821 35.3059 31.2173 34.5416C28.9279 33.2587 26.5565 31.9314 24.2125 30.6553C23.223 30.1128 22.6089 29.5396 22.6327 28.3284C22.6327 27.1785 23.2333 26.6224 24.1715 26.114C25.9936 25.1108 27.8394 24.0668 29.6307 23.0773C32.2409 21.6136 34.9398 20.0986 37.6182 18.6622C38.0676 18.4496 38.4587 18.1312 38.7578 17.7341C38.9116 18.0114 39.1321 18.2459 39.3993 18.4165C42.2585 20.0509 44.7732 21.4464 47.7894 23.1285L50.5531 24.6673V24.4421C50.5531 24.077 50.5531 23.7188 50.5531 23.3707C50.5531 23.0227 50.5531 22.7088 50.5531 22.3847C50.5531 21.7227 50.5531 21.0779 50.5258 20.4364C50.494 20.2883 50.431 20.1487 50.341 20.0269C50.251 19.9051 50.136 19.804 50.0037 19.7301C46.892 17.9764 44.1385 16.4444 40.8698 14.6121L38.7851 13.4452L38.6657 13.3804C38.6657 13.3804 33.3976 16.1987 31.3606 17.3383C28.1761 19.108 24.9984 20.8777 21.8275 22.6474C19.7428 23.8041 18.6885 25.7182 18.6885 28.3659V28.4102C18.6885 31.0477 19.7769 32.9721 21.8923 34.1356" fill="white"/>
<path fill-rule="evenodd" clip-rule="evenodd" d="M29.0372 46.7873C25.7413 44.9482 22.6261 43.2115 19.4837 41.4441C19.3527 41.3657 19.2404 41.2598 19.1544 41.1338C19.0684 41.0077 19.0108 40.8645 18.9855 40.7139C18.9548 39.7586 18.9582 38.7862 18.9616 37.7558C18.9616 37.3907 18.9616 37.0119 18.9616 36.6196V36.391L21.4319 37.7728C24.6665 39.5812 27.7236 41.2906 30.791 43.0409C30.9488 43.1516 31.0806 43.2953 31.1772 43.4621C31.2738 43.6288 31.333 43.8146 31.3506 44.0065C31.3745 44.5593 31.3813 45.1222 31.3813 45.7125C31.3813 46.0537 31.3813 46.3744 31.3813 46.7156C31.3813 47.0568 31.3813 47.4765 31.3813 47.8791V48.1077L29.0372 46.7873Z" fill="white"/>
</svg>
