<svg width="90" height="90" viewBox="0 0 90 90" fill="none" xmlns="http://www.w3.org/2000/svg">
<g clip-path="url(#clip0_2216_3765)">
<path d="M64.0001 9.4043H25.6701V80.487H64.0001V9.4043Z" fill="#1994CF"/>
<path d="M64.0001 31.3551V24.4731V9.4043H25.6701V80.487H64.0001V65.0139V44.2589V31.3551ZM29.1111 12.8453H60.5591V24.4731H33.9887C32.2481 24.4731 30.5993 24.8544 29.1111 25.5369V12.8453ZM29.1111 46.9257C30.5965 47.6053 32.2481 47.9895 33.9887 47.9895H55.9997C58.0844 47.9895 59.8623 49.3086 60.5591 51.1524V58.1233C59.8623 59.9671 58.0844 61.2861 55.9997 61.2861H29.1111V46.9285V46.9257ZM60.5591 77.046H29.1111V68.1682H55.9997C57.617 68.1682 59.1569 67.8384 60.5591 67.2448V77.0489V77.046ZM60.5591 42.0308C59.1569 41.4372 57.617 41.1075 55.9997 41.1075H33.9887C31.299 41.1075 29.1111 38.9196 29.1111 36.2299C29.1111 33.5401 31.299 31.3522 33.9887 31.3522H60.5591V42.0308Z" fill="#282425"/>
</g>
<defs>
<clipPath id="clip0_2216_3765">
<rect width="38.33" height="71.0827" fill="white" transform="translate(25.67 9.40381)"/>
</clipPath>
</defs>
</svg>
