<svg width="90" height="90" viewBox="0 0 90 90" fill="none" xmlns="http://www.w3.org/2000/svg">
<path fill-rule="evenodd" clip-rule="evenodd" d="M23.5012 67.3372C29.5273 73.3649 36.6255 76.4429 45.1969 76.4429C53.6335 76.4429 60.7316 73.3649 66.7594 67.3372C72.7871 61.3094 76 53.9432 76 45.3734C76 36.9353 72.7855 29.5691 66.7594 23.543C60.7332 17.5168 53.6351 14.4355 45.1969 14.4355C36.6255 14.4355 29.5273 17.5168 23.5012 23.543C17.4751 29.5691 14.3938 36.9353 14.3938 45.3734C14.3938 53.9448 17.4735 61.311 23.5012 67.3372ZM18.8135 45.3751C18.8135 38.0089 21.492 31.9811 26.5809 26.8922C31.8046 21.8033 37.8307 19.1249 45.1969 19.1249C52.5631 19.1249 58.5892 21.8033 63.6781 26.8922C68.767 31.9811 71.4455 38.0089 71.4455 45.3751C71.4455 52.7412 68.767 58.769 63.6781 63.9911C58.5892 69.0784 52.5631 71.7584 45.1969 71.7584C37.8307 71.7584 31.8046 69.0784 26.5809 63.9911C21.492 58.769 18.8135 52.7412 18.8135 45.3751Z" fill="#007DC1"/>
<path fill-rule="evenodd" clip-rule="evenodd" d="M42.9195 48.0516H18.8134L48.5444 19.1245L42.9195 48.0516ZM42.2503 72.1577L71.9814 42.6946H47.6072L42.2503 72.1577Z" fill="#007DC1"/>
</svg>
