<svg width="70" height="70" viewBox="0 0 70 70" fill="none" xmlns="http://www.w3.org/2000/svg">
<path d="M46.3755 19.8142C39.0162 26.9858 31.5987 34.3169 24.1362 41.4619C22.483 43.0439 21.1029 45.1154 18.6231 45.275C14.6018 45.5324 12.0419 41.6009 14.0446 38.061C14.4585 37.3311 15.0776 36.9528 15.6481 36.3956C25.4483 26.8553 35.1757 17.3221 45.0075 7.75997C46.0174 6.77741 47.3757 5.21232 48.706 4.67935C52.2127 3.27742 55.9391 6.08007 55.4414 9.81332C55.1501 12.002 52.4482 13.9043 50.9528 15.3703C49.4355 16.8592 47.8843 18.3421 46.3755 19.813V19.8142Z" fill="#00AD40"/>
<path d="M47.589 39.8644C43.6429 43.6931 39.6944 47.6342 35.6634 51.4871C34.6317 52.4733 33.3426 54.0698 32.1397 54.743C31.4005 55.1575 29.7716 55.5322 28.9341 55.4138C28.7204 55.3835 28.5906 55.2301 28.4267 55.1938C27.8125 55.0584 27.4435 55.0971 26.8172 54.743C24.4478 53.4039 23.3542 50.2484 24.6955 47.8155C25.3983 46.5405 26.4494 45.8021 27.4192 44.8497C31.0449 41.2917 34.7263 37.7265 38.3398 34.2204C41.0624 31.5797 43.8736 28.458 46.7066 26.001C47.9216 24.9459 49.3648 24.2292 51.0216 24.3694C54.6436 24.6764 56.9911 28.3118 55.5734 31.6873C54.9956 33.0626 52.4843 35.2622 51.3239 36.3958C50.1635 37.5295 48.787 38.703 47.589 39.8656V39.8644Z" fill="#00AD40"/>
<path d="M48.9849 58.4048C46.6434 60.3035 44.5727 62.9007 42.2823 64.838C40.0379 66.7355 36.6915 66.4599 34.8174 64.1733C33.4688 62.5284 33.4822 59.7911 34.8174 58.1329C36.0227 56.6355 37.9223 55.1453 39.3109 53.7881C42.0249 51.1365 44.7281 48.4705 47.4348 45.8104C50.1501 43.4283 54.7165 44.4786 55.7858 48.0124C56.1026 49.0602 56.048 49.899 55.753 50.9492C55.6365 51.3662 55.3986 51.9245 55.1401 52.2714C53.8656 53.9767 51.4186 55.7629 49.9256 57.3473C49.6148 57.7002 49.1888 57.9722 48.9861 58.4048H48.9849Z" fill="#00AD40"/>
</svg>
