<svg width="90" height="90" viewBox="0 0 90 90" fill="none" xmlns="http://www.w3.org/2000/svg">
<path d="M32.5535 53.2305C35.6251 53.2305 38.6967 53.2851 41.7637 53.1987C42.824 53.1714 43.0151 53.5126 42.9787 54.4682C42.9059 56.3203 42.9832 58.1769 42.9423 60.0289C42.9286 60.7297 43.0697 61.0801 43.8615 60.9982C44.9081 60.8935 46.2596 61.4214 46.9376 60.798C47.6293 60.1609 47.1151 58.7958 47.156 57.7537C47.2015 56.5842 47.0832 55.4011 47.1879 54.2362C47.288 53.1714 46.8466 52.821 45.8728 52.6025C40.9537 51.4877 36.1757 49.9314 31.607 47.7881C29.4046 46.7552 27.3523 45.4719 25.6368 43.7109C24.1988 42.2365 23.4571 40.48 23.4889 38.3959C23.5299 35.7885 23.3661 33.1674 23.9258 30.5918C25.1726 24.8491 28.9632 21.5409 34.3783 19.8845C39.0015 18.4739 43.7659 18.301 48.5576 18.5968C51.7748 18.797 54.9647 19.2338 58.0089 20.3578C64.2886 22.6694 67.3829 27.0106 67.5513 33.6725C67.5907 35.2288 66.8429 36.0069 65.3079 36.0069C59.7381 36.0069 54.1638 36.0115 48.594 36.0069C47.0059 36.0069 47.1788 36.2253 47.1697 34.5326C47.1606 33.172 47.1515 31.8068 47.1788 30.4462C47.1879 29.8774 47.015 29.6726 46.4097 29.6408C42.9605 29.4588 42.9423 29.4406 42.9741 32.8534C42.9832 33.9774 42.5009 35.388 43.1834 36.1389C43.8069 36.8215 45.1948 36.8215 46.2505 37.099C51.388 38.4551 56.4163 40.0887 60.9804 42.8782C63.5605 44.4572 65.8813 46.3229 67.1782 49.1715C67.7197 50.3546 68.0109 51.5969 67.9972 52.9029C67.979 55.0962 68.1019 57.2941 67.6605 59.4647C66.623 64.584 63.3603 67.7193 58.646 69.5622C55.3651 70.8454 51.9204 71.3414 48.4347 71.5371C43.3882 71.8238 38.3599 71.6827 33.4591 70.2448C29.3864 69.048 25.837 67.0913 23.7256 63.1824C22.1101 60.1928 21.9827 56.9528 22.0555 53.681C22.0692 53.0394 22.5606 53.2442 22.8883 53.2396C26.11 53.226 29.3318 53.2305 32.5535 53.2305Z" fill="#EE4136"/>
</svg>
