<svg width="90" height="90" viewBox="0 0 90 90" fill="none" xmlns="http://www.w3.org/2000/svg">
<path fill-rule="evenodd" clip-rule="evenodd" d="M80 10H10V80H80V10ZM49.9906 26.2958L50.1061 26.2073C50.5209 25.8895 51.0273 25.7144 51.5498 25.7082C52.0724 25.7019 52.5829 25.8649 53.0051 26.1727C53.4274 26.4806 53.7387 26.9168 53.8926 27.4161C54.0465 27.9155 54.0347 28.4513 53.859 28.9434L53.8106 29.0791L41.7506 45.6508L41.742 45.6619C41.5802 45.8717 41.5015 46.134 41.5211 46.3982L41.5239 46.4352V60.476C41.593 60.7894 41.5993 61.1139 41.5417 61.4307C41.4744 61.8006 41.322 62.1496 41.0965 62.4504C40.871 62.7511 40.5785 62.9951 40.2423 63.1632C39.9061 63.3313 39.5354 63.4189 39.1595 63.4189C38.7836 63.4189 38.4129 63.3313 38.0767 63.1632C37.7405 62.9951 37.448 62.7511 37.2225 62.4504C36.9969 62.1496 36.8445 61.8006 36.7773 61.4307C36.7197 61.1139 36.7259 60.7894 36.7951 60.476V45.955C36.7704 45.3747 36.8677 44.7956 37.0807 44.255C37.2854 43.7358 37.5924 43.2634 37.9831 42.8659C39.1234 41.278 42.0705 37.2109 44.7474 33.5203C46.1057 31.6476 47.3951 29.8709 48.345 28.5624L49.9047 26.4141L50.7143 27.0011C49.9052 26.4135 49.9048 26.414 49.9047 26.4141L49.9906 26.2958Z" fill="#6AEB63"/>
</svg>
