<svg width="90" height="90" viewBox="0 0 90 90" fill="none" xmlns="http://www.w3.org/2000/svg">
<g clip-path="url(#clip0_46_446)">
<path d="M43.4953 52.6598C43.7844 52.3175 43.858 52.1123 43.8524 51.8972C43.8509 51.8406 43.839 51.7968 43.8155 51.773C43.7842 51.7415 43.742 51.7214 43.6977 51.7292C42.9039 51.8689 42.3414 53.1489 42.4368 53.507C42.8088 53.296 43.2037 53.0053 43.4953 52.6598Z" fill="#FF6600"/>
<path d="M68.0894 44.4668C68.1175 44.6846 68.1395 44.9024 68.1484 45.121C68.1878 46.0852 68.0312 47.0551 67.6831 48.0404C67.6826 48.0469 67.6829 48.0534 67.6824 48.0599C67.6315 48.8222 67.4599 49.5655 67.1733 50.2983C68.2643 48.3277 68.5679 46.4084 68.0894 44.4668Z" fill="#FF6600"/>
<path d="M21.2178 41.1159C21.9886 32.5221 23.4013 26.7443 25.9285 23.5459C22.6417 25.964 21.2702 31.7737 21.2178 41.1159Z" fill="#FF6600"/>
<path d="M55.5947 32.1934C62.7965 37.4741 66.7188 41.9476 67.5351 45.9858C67.5556 45.718 67.5638 45.451 67.5531 45.1849C67.3853 41.0781 63.4986 36.9438 55.5947 32.1934Z" fill="#FF6600"/>
<path d="M58.8666 58.4551C57.681 59.1998 56.3694 59.9621 54.9366 60.7475C53.8107 61.5112 52.6171 62.2937 51.3472 63.0997C50.3262 63.7476 49.3405 64.3585 48.3862 64.9349C49.0845 64.5462 49.7983 64.1414 50.5287 63.7197C53.7462 61.862 56.5228 60.1179 58.8666 58.4551Z" fill="#FF6600"/>
<path d="M25.347 68.3437C23.1131 65.3355 21.862 60.1949 21.2318 52.7441C21.1423 61.0308 22.1826 66.173 25.347 68.3437Z" fill="#FF6600"/>
<path d="M59.4873 57.4628C63.5251 54.8043 65.9581 52.3498 66.8634 49.8027C65.4955 52.1915 63.0382 54.7008 59.4873 57.4628Z" fill="#FF6600"/>
<path d="M52.5171 28.4196C52.2294 28.2145 51.8768 28.0064 51.6183 27.8821L51.6253 27.8649C51.64 27.8266 51.6535 27.7879 51.6646 27.7484C51.6785 27.7033 51.6906 27.6453 51.6977 27.5863C51.8184 26.7704 51.6461 26.5647 51.0494 26.0609C50.9321 25.9619 50.8594 25.8527 50.8009 25.7108C50.5615 25.131 50.0532 24.8233 49.4462 24.7615C48.8986 24.7057 48.2609 24.9852 47.7967 25.2639C47.531 25.4234 47.376 25.6303 47.3142 25.8405C47.0603 25.8216 41.3101 22.9265 41.0616 23.0034C41.0192 23.0166 41.1673 23.1349 41.4159 23.3091C42.7752 23.9869 44.222 24.7839 45.7659 25.7004C45.9971 25.8376 45.8907 26.0068 45.7074 26.0717C45.6009 26.1095 45.4687 26.1123 45.3611 26.0528C44.9264 25.7968 44.5007 25.5519 44.0818 25.3156C43.6224 25.0564 43.1724 24.809 42.7316 24.5735C38.8989 22.7367 35.6596 21.5784 32.9393 21.1441C31.4171 21.0487 30.0864 21.2823 28.9191 21.8562C28.8453 21.8925 28.774 21.934 28.7015 21.973C32.4118 21.2379 37.5884 22.6308 44.6232 25.8978C44.8365 25.9969 45.0498 26.096 45.2666 26.1985C45.4616 26.2907 45.4309 26.4826 45.2938 26.5636C45.2197 26.6075 45.1158 26.6203 44.9968 26.564C37.0314 22.7918 31.425 21.3475 27.7172 22.6179C24.0761 25.4986 22.3623 32.6682 21.5763 44.6326C21.499 45.8096 21.4335 46.9417 21.3803 48.033C21.9137 59.0241 23.6268 65.9609 26.8843 69.1107C31.0162 70.5451 37.7468 68.6286 47.2801 64.093C43.4213 65.4949 39.0361 66.9678 36.6609 67.3526C38.2575 66.9057 45.0427 64.5776 46.6432 63.9365C48.5995 63.1525 50.877 62.3762 51.5226 61.9646L51.574 61.9719C52.6355 61.4282 53.6406 60.897 54.5917 60.376C61.9956 55.3635 66.1801 51.2689 67.2682 47.457C67.2379 42.6784 62.0946 37.109 51.8427 30.1765C51.5674 29.9904 51.5549 29.8004 51.6573 29.7043C51.7233 29.608 51.9068 29.572 52.0862 29.6688C52.1817 29.7203 52.2734 29.7712 52.368 29.8226C52.2659 29.7617 52.1614 29.7001 52.0583 29.6389C52.2843 29.7516 52.5185 29.935 52.5638 29.8824C52.6373 29.7625 51.4123 29.103 51.5609 28.9421C51.7093 28.7811 52.5669 29.3159 52.5669 29.3159L52.4756 29.1481C54.6911 30.6402 56.6786 32.0536 58.4449 33.4022C62.9604 36.8497 66.0159 39.8697 67.6355 42.6687C68.655 44.4306 69.1072 46.1053 68.9977 47.7446C68.6414 53.0851 62.3382 58.3009 49.6345 64.5626C48.4897 65.1269 47.3884 65.6564 46.3256 66.1532C45.8041 66.3969 45.2938 66.6312 44.7914 66.8584C43.2369 67.5617 41.7734 68.1852 40.3957 68.727C43.2464 67.3997 46.5228 65.5333 50.2952 63.1674C49.9935 63.3181 49.6904 63.4692 49.3804 63.6219C39.4983 68.4933 32.6384 70.924 28.0764 70.0532C28.2267 70.1477 28.3789 70.2375 28.5347 70.3191C29.6617 70.9098 30.9521 71.1621 32.4326 71.0955C31.4417 71.2558 30.5206 71.3334 29.6651 71.3266C29.0947 71.1832 28.5541 70.9824 28.0451 70.7155C27.4543 70.406 26.9079 70.0135 26.4025 69.5376C26.0342 69.3753 25.6824 69.1873 25.3514 68.9655C21.5919 66.4467 20.3906 60.1489 20.6914 49.8824C20.5124 47.9234 20.2785 45.1005 20.1371 42.426C20.1042 43.6666 20.0878 44.9616 20.0878 46.316C20.0878 61.8133 22.1917 69.7424 28.3051 71.2402C26.9958 71.0716 25.8604 70.6646 24.8784 70.0068C20.4315 67.0274 19.0028 58.7199 19.9322 44.5856C19.9892 43.7183 20.0511 42.8755 20.1179 42.056C20.1328 41.8735 20.1487 41.6959 20.1641 41.5156C20.2013 41.0808 20.24 40.653 20.2802 40.2319C20.4318 42.0624 20.6331 44.4349 20.8303 46.5915C20.837 46.4663 20.8438 46.3409 20.851 46.2148C20.6543 40.814 20.7682 36.3678 21.2823 32.8179C21.67 30.7472 22.1284 28.9288 22.6703 27.3595C23.4947 25.3669 24.6084 23.9219 26.0616 23.0017C26.2978 22.8522 26.5428 22.717 26.7964 22.5952C27.3627 22.0568 27.9758 21.6207 28.6431 21.2927C28.8343 21.1987 29.0304 21.1159 29.2293 21.0392C27.2575 21.3064 25.6636 22.1612 24.393 23.6323C25.3641 22.0857 26.5122 20.9906 27.8675 20.3243C31.7666 18.4073 37.5666 19.8701 45.8488 24.8277C46.1123 24.9855 46.3783 25.1467 46.6469 25.3116C47.008 25.5333 47.6693 25.3119 47.1923 25.0039C47.0526 24.9191 46.9138 24.8351 46.7756 24.7521C37.8769 19.4047 31.8906 17.8013 27.6692 19.8766C22.6236 22.3569 20.2513 30.1436 19.3051 44.5459C18.3598 58.9192 19.5103 67.2056 24.1808 70.3348C26.1404 71.6477 28.7061 72.0381 31.977 71.5817C34.4865 71.2314 37.4125 70.3814 40.8033 69.0613C43.5264 68.0011 46.5463 66.6405 49.8928 64.9907C62.8135 58.6221 69.415 53.4825 69.7893 47.8732C70.1617 42.2971 64.3735 36.369 52.5171 28.4196ZM33.9009 48.4585C33.8089 48.5836 33.713 48.6444 33.6163 48.6444C33.5788 48.6444 33.5366 48.6392 33.4957 48.6266L33.3673 48.5871C33.2892 48.5631 33.1301 48.5455 32.8869 48.5455C32.2742 48.5455 31.8214 48.5694 31.5331 48.6146C31.3829 48.6383 31.2869 48.6691 31.2485 48.7076C31.1555 48.9516 30.9794 50.1784 30.9548 50.541C31.565 50.4344 32.6777 50.3754 33.2081 50.6436C33.4214 50.7517 33.5263 50.9442 33.5263 51.2169C33.5263 51.3532 33.4853 51.4806 33.4 51.6003C33.312 51.723 33.2181 51.7861 33.1211 51.7861C33.1014 51.7861 33.0663 51.7719 33.0125 51.7504C32.3774 51.5357 31.4454 51.6889 30.8777 51.7623C30.8363 52.1699 30.7229 54.0405 30.7229 54.4727V55.0399C30.7229 55.3207 30.7565 55.54 30.8216 55.6941C30.8632 55.8008 30.8849 55.872 30.8849 55.9018C30.8849 55.9985 30.8238 56.0815 30.6991 56.1507C30.5807 56.2236 30.4364 56.2615 30.2663 56.2615C30.0884 56.2615 29.9382 56.2179 29.8136 56.1329C29.6792 56.0439 29.5863 55.9253 29.5368 55.7751C29.4697 55.5855 29.4381 55.2355 29.4381 54.7256C29.4381 54.2296 29.5646 52.3875 29.5811 51.9362L29.587 51.774C29.421 51.5487 29.338 51.3453 29.338 51.1593C29.338 50.9558 29.4466 50.8134 29.6621 50.7364C29.7862 49.9838 29.8179 49.7177 29.9002 49.0376C29.9301 48.791 29.9458 48.6777 29.9458 48.6955L29.9635 48.5749C29.8627 48.3438 29.8133 48.1796 29.8133 48.0828C29.8133 47.9386 29.8693 47.8224 29.9814 47.729C30.0923 47.6368 30.2746 47.5593 30.5248 47.4919C30.9187 47.3857 31.5565 47.3297 32.4421 47.3297C33.0369 47.3297 33.4497 47.3841 33.6813 47.4919C33.9161 47.6013 34.0332 47.7883 34.0332 48.0591C34.0334 48.2016 33.9904 48.3367 33.9009 48.4585ZM35.9757 51.4784C35.9598 51.5907 35.9324 51.8227 35.8948 52.1721C35.8044 53.0099 35.7179 53.8847 35.7179 54.7282C35.7179 54.9634 35.7197 55.1099 35.7239 55.167C35.7314 55.2756 35.739 55.3532 35.7476 55.4001C35.7624 55.4814 35.7887 55.5698 35.8227 55.6709C35.8397 55.7218 35.8463 55.7699 35.8463 55.8153C35.8463 55.9278 35.788 56.0302 35.6724 56.1177C35.5531 56.208 35.4213 56.2501 35.2791 56.2501C35.0399 56.2501 34.8581 56.1535 34.7276 55.9674C34.5994 55.7843 34.532 55.5109 34.532 55.1451C34.532 54.2694 34.6595 53.3659 34.7186 52.4924C34.7514 52.0067 34.756 51.7252 34.7581 51.6523C34.7593 51.6129 34.7642 51.5455 34.7642 51.4486C34.7642 51.3557 34.7516 51.2669 34.7304 51.1838L34.6949 51.0435V51.0159C34.691 51.0118 34.6889 51.0039 34.6889 50.9921C34.6889 50.8756 34.7646 50.7749 34.9162 50.6898C35.0626 50.6074 35.2324 50.5632 35.4242 50.5632C35.6179 50.5632 35.7658 50.6052 35.865 50.6898C35.967 50.7767 36.0152 50.9053 36.0152 51.0672C36.0153 51.1641 36.0009 51.3007 35.9757 51.4784ZM35.0925 49.2707C35.1664 48.4828 36.5465 48.7318 36.5129 49.3964C36.4637 50.3547 35.0109 50.1386 35.0925 49.2707ZM40.1594 52.5236C40.0326 52.5236 39.9187 52.4544 39.7897 52.4544C39.3492 52.4544 39.008 52.7556 38.7895 53.099C38.6516 53.316 38.5485 53.4849 38.483 53.7729C38.4205 54.0476 38.3902 54.2257 38.3902 54.6447C38.3902 54.8819 38.3994 55.0658 38.4178 55.202C38.4369 55.3442 38.472 55.4827 38.5165 55.6192C38.5489 55.7177 38.5641 55.7872 38.5641 55.8208C38.5641 55.9335 38.4937 56.0347 38.3545 56.1272C38.2113 56.2223 38.06 56.2734 37.8979 56.2734C37.7161 56.2734 37.5775 56.2183 37.481 56.1114C37.3761 55.9951 37.3046 55.8089 37.2656 55.5539C37.2236 55.2814 37.2024 54.9116 37.2024 54.449C37.2024 54.1369 37.2143 54.0322 37.2261 53.7967L37.2656 53.006C37.2939 52.437 37.3725 51.607 37.2716 51.0377C37.2613 50.9803 37.2497 50.925 37.2497 50.8697C37.2497 50.7513 37.3171 50.6456 37.4512 50.5575C37.5869 50.4685 37.7438 50.425 37.9217 50.425C38.2833 50.425 38.4653 50.5734 38.4653 50.8697C38.4653 51.1567 38.4238 51.6108 38.4238 51.8894C38.9988 51.3458 39.5111 51.1856 40.1019 51.1856C40.4538 51.1856 40.8194 51.3594 40.8194 51.7587C40.8195 52.1038 40.534 52.5236 40.1594 52.5236ZM45.3212 54.7471C45.1618 55.178 44.958 55.4916 44.591 55.762C44.1568 56.0818 43.6892 56.247 43.19 56.26C42.2068 56.2854 41.4098 55.7058 41.2093 54.7288C41.0032 53.7234 41.3766 52.4714 41.8733 51.7501C42.4022 50.982 43.7569 50.1484 44.5803 50.9982C44.8022 51.237 44.9188 51.5331 44.9282 51.8887C44.9356 52.1684 44.8761 52.4515 44.7474 52.7423C44.6242 53.0193 44.4435 53.2861 44.207 53.5406C43.7066 54.0622 43.0382 54.4483 42.3359 54.6316C42.389 54.8415 42.4761 54.9919 42.5971 55.0843C42.7244 55.1828 42.8857 55.2315 43.0813 55.2264C43.8602 55.2061 44.3944 54.6308 44.4445 53.8729C44.4574 53.6812 44.5674 53.5822 44.7708 53.577C44.9566 53.5722 45.1118 53.6235 45.2338 53.737C45.3568 53.8515 45.4206 53.998 45.4254 54.174C45.4299 54.3406 45.398 54.5393 45.3212 54.7471ZM48.311 50.672C48.679 50.657 49.2208 50.6106 49.5325 50.822C49.6867 50.9268 49.7638 51.1048 49.7638 51.3537C49.7638 51.4546 49.7455 51.5367 49.7064 51.5989C49.6646 51.6652 49.6096 51.6957 49.5443 51.6957C49.5403 51.6957 49.5304 51.6938 49.5126 51.6897C49.4949 51.6858 49.4751 51.6851 49.4515 51.6838C48.9767 51.6549 48.4963 51.7088 48.0264 51.7708C47.8747 52.7129 47.8487 54.1459 47.8487 54.1282C47.8487 54.5531 47.8499 55.4125 47.9058 55.5478L47.9749 55.7159C47.9946 55.7633 48.0047 55.8107 48.0047 55.8622C48.0047 55.9807 47.9473 56.0686 47.8425 56.133C47.732 56.2009 47.5916 56.2377 47.4137 56.2377C47.22 56.2377 47.0738 56.1922 46.973 56.0994C46.8723 56.0065 46.8087 55.8398 46.7713 55.6013C46.7356 55.3735 46.7121 55.0855 46.7121 54.5675C46.7121 54.1505 46.7269 53.8183 46.7535 53.3973C46.7801 52.9765 46.8207 52.4329 46.8741 51.9389C46.7151 51.956 46.5145 52.0307 46.3842 52.0307C46.299 52.0307 46.2273 52.0205 46.1628 51.9368C46.1028 51.8587 46.0717 51.7607 46.0717 51.6421C46.0717 51.5296 46.0979 51.4188 46.1528 51.3121C46.2023 51.2154 46.2721 51.1338 46.3663 51.0728C46.4951 50.9897 46.6398 50.8879 46.8741 50.8339L47.0026 50.8043C47.06 50.4881 47.1246 50.1163 47.1984 49.9308C47.3788 49.4771 47.746 49.0798 48.1766 48.8537C48.5554 48.6549 49.3062 48.4993 49.6776 48.7801C49.8193 48.8874 49.891 49.0312 49.891 49.2092C49.891 49.3632 49.8366 49.5027 49.7231 49.6262C49.6097 49.7497 49.4702 49.81 49.312 49.81C49.2587 49.81 49.2167 49.8044 49.1855 49.7922L49.0689 49.7467C49.0056 49.7221 48.9542 49.717 48.9187 49.717C48.3869 49.717 48.2143 50.2462 48.1668 50.6776L48.311 50.672ZM45.9367 29.575C46.2764 29.6502 46.7872 29.7321 47.3145 29.8166C48.6471 30.0317 50.0592 30.2596 50.1124 31.0573C50.1622 31.8023 49.8333 32.1182 49.0641 32.1141C47.725 32.1074 46.1417 30.9652 44.9255 31.1612C44.2662 31.2739 44.3781 31.717 44.2468 32.4631C44.0651 33.6721 43.7759 34.175 42.381 34.7959C41.5837 35.1505 40.5797 35.5003 39.7628 35.8078C38.6742 36.2171 37.4398 37.5773 38.0295 38.6378C38.4534 39.2254 41.2007 38.323 42.166 37.3286C42.6953 36.7825 43.1499 36.3351 43.4435 35.7985C43.7984 35.1386 44.2001 35.4364 44.0313 36.0068C43.4099 37.146 42.706 37.8898 41.9642 38.5534C41.0978 39.4989 41.0355 41.3708 41.7836 41.8273C42.5096 42.0753 43.3164 41.5853 43.7481 40.957C44.1636 40.3516 44.588 39.4768 44.7123 38.3871C44.7072 37.9412 44.7057 37.2397 44.8573 36.7605C45.11 35.9761 45.6622 36.2784 45.4288 37.0679C45.1369 38.3259 45.4428 39.6786 46.1301 40.7493C46.4181 41.1988 46.6818 41.5765 47.0676 41.6344C47.7322 41.5262 48.1926 40.7594 48.2831 40.2205C48.4995 38.9452 47.351 37.2249 47.1206 36.7677C46.6903 35.9134 46.6274 35.0873 46.8779 34.1745C47.0139 33.6771 47.3667 33.1847 47.533 32.7752C47.6438 32.4379 48.2329 32.5388 48.2387 32.9523C48.2058 33.2045 48.1803 33.447 48.1698 33.6835C48.141 34.3128 48.3373 34.9804 48.6229 35.5505C49.058 36.4182 49.454 37.2252 49.7751 38.1453C50.2768 39.5841 50.6379 41.3744 50.0689 43.3684C49.1493 46.5893 46.6548 48.1293 43.923 48.63C42.6909 48.857 41.4033 48.8278 40.1723 48.5684C37.3509 47.9721 35.0167 46.0662 34.1078 43.5031C33.306 41.2408 33.7205 38.453 35.1733 36.5337C36.2406 35.1235 38.0191 34.2122 39.6977 33.7468C40.4043 33.551 41.0462 33.3239 41.7304 33.0599C42.4101 32.7732 42.7066 32.3272 42.9472 32.411C43.0694 32.4978 43.0212 32.7155 42.8867 32.9305C42.5429 33.4815 41.7761 33.7298 41.1983 33.9361C40.6391 34.1362 40.0637 34.2969 39.5031 34.4959C38.0629 35.0053 36.6651 35.6726 35.7457 37.0897C34.4313 39.1679 34.4099 42.1748 35.7464 44.2869C36.7978 45.9878 38.4391 47.1236 40.5597 47.5718C44.3541 48.3732 48.2029 47.1609 49.3446 43.1629C49.813 41.524 49.5701 39.658 49.177 38.3822C48.8672 37.378 48.3722 36.5637 47.9874 35.6068C47.7684 35.0629 47.607 34.6464 47.6538 33.9121C47.2897 34.4701 47.2425 35.3627 47.4193 35.8515C47.5312 36.1609 47.6738 36.4571 47.8468 36.7794C48.2751 37.5772 49.3072 39.5493 48.8326 40.9482C48.6064 41.6165 47.8364 42.4139 46.8789 42.4102C46.3571 42.3132 45.8619 41.7175 45.542 41.2357C45.2815 40.8449 45.0624 40.375 44.9221 39.8591C44.336 41.6574 43.3143 43.3012 41.3503 42.6882C40.4354 42.1823 40.2991 40.4213 40.8264 39.184C39.3624 39.7021 37.8334 39.8675 37.2873 39.0846C36.2913 37.3029 37.9333 35.8704 39.4013 35.2581C40.3356 34.8676 41.6326 34.4405 42.5924 33.9355C42.5926 33.9355 42.5935 33.9355 42.5935 33.9355C42.5937 33.9346 42.5939 33.9344 42.5939 33.9337C43.6623 33.3951 43.5696 32.4239 43.7057 31.6331C43.8043 31.0637 43.9452 30.5895 44.5719 30.4872C45.0599 30.4055 45.733 30.5252 46.8816 30.8819C47.9422 31.211 48.6216 31.3616 49.0665 31.3636C49.2815 31.3664 49.376 31.2881 49.3629 31.1073V31.1049C49.3502 30.9043 48.2419 30.727 47.1951 30.5588C46.0603 30.3741 44.9831 30.2012 44.8104 29.6568C44.7441 29.4491 44.7335 29.27 44.7642 29.1128C44.7967 28.9451 44.8733 28.8116 44.9831 28.7033C45.084 28.6042 45.2069 28.5367 45.3466 28.4915C45.6166 28.4064 45.9623 28.4151 46.2965 28.4804H46.2996C46.4769 28.5154 46.7754 28.5961 47.1291 28.6953C47.918 28.9142 49.0135 29.2179 49.5861 29.2149C49.6667 29.2144 49.7371 29.2081 49.7947 29.1944C50.5645 29.0054 50.0023 28.8115 49.4847 28.8002C49.2552 28.7951 49.0208 28.7842 48.7877 28.7677C48.0644 28.7169 47.3542 28.6111 46.8467 28.4453C46.6003 28.3627 46.3912 28.2627 46.2343 28.1417C46.0204 27.9763 45.9026 27.7742 45.9085 27.5274C45.9107 27.4618 45.921 27.3924 45.9452 27.3228C45.9579 27.2803 45.9728 27.2405 45.9858 27.208C45.9869 27.2054 45.9885 27.2034 45.9896 27.2007C46.1212 26.8879 46.3296 26.6731 46.6073 26.55C46.6495 26.5313 46.6889 26.5087 46.7345 26.4945C47.0446 26.399 47.4186 26.42 47.855 26.565C47.9365 26.5909 48.0219 26.625 48.1167 26.6616C48.6408 26.8793 49.4719 27.1656 50.0589 27.2519C50.1805 27.2699 50.5702 27.1746 50.2506 27.0036C50.0774 26.9132 49.9032 26.9393 49.7889 26.6781C49.6165 26.2907 49.4473 25.9756 49.2892 25.9595H49.2875C49.1404 25.9442 48.63 26.1089 48.29 26.1889C47.8475 26.2921 47.7426 25.9989 48.1068 25.7803C48.5262 25.5285 49.0307 25.3251 49.3849 25.3609C49.7187 25.3952 50.0761 25.5344 50.2435 25.9404C50.3614 26.2254 50.5127 26.3966 50.6602 26.5213C51.0685 26.8656 51.1915 26.8864 51.099 27.5142C51.0958 27.5394 51.0912 27.5613 51.0845 27.5836C51.0784 27.6048 51.0707 27.6266 51.0625 27.6481C50.9713 27.8631 50.7835 27.9762 50.5277 28.0152C50.3653 28.0367 50.1683 28.0278 49.948 27.9963C49.5511 27.9375 49.056 27.798 48.6016 27.6448C48.3166 27.5487 48.0474 27.4474 47.8292 27.3569H47.828C47.7596 27.3281 47.5244 27.2251 47.4535 27.2007C46.9664 27.0388 46.0815 27.3999 47.0834 27.7309C47.6416 27.9139 48.4947 28.0158 49.3117 28.0439C49.3743 28.046 49.4372 28.0487 49.4992 28.05C50.1121 28.0629 50.4957 28.2059 50.7046 28.402C50.854 28.5412 50.929 28.7046 50.9418 28.8785C50.9444 28.9131 50.9429 28.9474 50.9405 28.9817C50.9313 29.1079 50.8896 29.2313 50.8184 29.3453C50.7377 29.4789 50.6131 29.6029 50.4615 29.7051C50.3186 29.8014 50.1518 29.8784 49.9713 29.9222C49.316 30.0822 47.9061 29.6896 46.9299 29.4183C46.5994 29.3269 46.3223 29.252 46.1563 29.2184L46.1553 29.218C45.5149 29.0929 45.149 29.4031 45.9367 29.575ZM37.5041 42.375C38.0523 42.3143 38.65 42.1671 39.0174 41.8969L39.3177 42.5403C39.3138 42.5414 38.2842 43.0461 37.5859 43.1214L37.5041 42.375ZM40.3635 45.1736L41.1492 43.7015L41.7482 43.9005L41.061 45.6177L40.3635 45.1736ZM43.984 43.8135L44.6764 43.4608C44.6773 43.4654 45.0842 44.538 45.1805 45.2998L44.4004 45.3917C44.3159 44.7109 44.1636 44.3884 43.984 43.8135ZM53.1867 57.0372C53.2421 56.7218 53.5181 56.0542 53.9246 55.315L54.0271 55.1322C53.9061 54.7356 53.8071 54.3583 53.7253 54.0036C53.5539 53.2604 53.4568 52.7321 53.3272 51.9811C53.2658 51.6252 53.2345 51.4136 53.2578 51.281C53.3192 50.9309 53.6717 50.8419 53.9775 50.8955C54.26 50.9451 54.4408 51.0741 54.5279 51.2812C54.6047 51.4632 54.5143 51.8079 54.5511 52.0288C54.6532 52.643 54.7145 53.0347 54.8667 53.64C54.9315 53.533 54.9678 53.475 54.9739 53.4641L55.3143 52.8957C55.7734 52.1293 56.0528 51.8076 56.2914 51.5636C56.4781 51.373 56.6755 51.2959 56.8858 51.3327C57.0454 51.3608 57.3107 51.397 57.4551 51.5363C57.5953 51.6714 57.6556 51.8 57.6335 51.9266C57.6227 51.987 57.5894 52.0665 57.504 52.1266L57.2508 52.3049C57.1033 52.4088 56.8309 52.7235 56.3689 53.4499C55.9004 54.1868 55.4451 54.9313 55.0328 55.7017C54.6308 56.4523 54.3591 57.1264 54.303 57.4457C54.2983 57.4731 54.2923 57.5204 54.2898 57.5901C54.2857 57.6957 54.2856 57.7517 54.2841 57.7595C54.2703 57.8393 54.2257 57.8952 54.1536 57.9314C54.0806 57.9679 53.9907 57.9788 53.8837 57.9601C53.6638 57.9217 53.4827 57.8095 53.3426 57.6245C53.2026 57.4394 53.1506 57.2436 53.1867 57.0372ZM51.937 48.7712C52.0442 48.8677 52.0991 48.9966 52.0991 49.1586C52.0991 49.2021 52.0883 49.3029 52.0695 49.465C52.0331 49.7793 51.9926 50.2271 51.947 50.6522C51.7898 52.117 51.6471 53.6627 51.7631 55.1605C51.7753 55.3184 51.7917 55.4398 51.8204 55.5204L51.8718 55.6647C51.8849 55.7011 51.8955 55.7397 51.8955 55.7872C51.8955 55.9097 51.8375 56.0157 51.7216 56.1054C51.6026 56.1974 51.4607 56.2437 51.2986 56.2437C51.0832 56.2437 50.9003 56.1475 50.7551 55.9551C50.6218 55.778 50.5576 55.4927 50.5576 55.1033C50.5576 55.0756 50.563 54.9471 50.5693 54.7159C50.5707 54.6607 50.5752 54.6212 50.5753 54.5933C50.5789 53.5597 50.6575 52.6834 50.7314 51.6541L50.8125 50.5255C50.8399 50.142 50.8539 49.7813 50.8539 49.5995C50.8539 49.4748 50.8421 49.3719 50.8184 49.2871C50.7868 49.1744 50.7729 49.1072 50.7729 49.0835C50.7729 48.971 50.855 48.8698 51.016 48.7712C51.1712 48.6762 51.3361 48.627 51.514 48.627C51.688 48.627 51.8289 48.674 51.937 48.7712Z" fill="#FF6600"/>
</g>
<defs>
<clipPath id="clip0_46_446">
<rect width="51" height="52.9245" fill="white" transform="translate(19 19)"/>
</clipPath>
</defs>
</svg>
