<svg width="70" height="70" viewBox="0 0 70 70" fill="none" xmlns="http://www.w3.org/2000/svg">
<g clip-path="url(#clip0_69_389)">
<g clip-path="url(#clip1_69_389)">
<path d="M33.3301 56.1201C32.7564 59.1112 30.6631 60.0906 28.1017 60.6115C26.0325 61.034 24.004 61.6533 21.9491 62.1527C20.0983 62.604 18.3723 62.3399 16.8888 61.0772C15.0163 59.4832 14.3682 57.2027 15.1292 55.0374C15.8589 52.961 18.089 51.2422 20.3264 51.1918C23.1638 51.1269 26.0061 51.1389 28.8459 51.1846C30.4327 51.2086 31.6833 52.0103 32.5355 53.309C32.9964 54.0124 33.5054 54.1156 34.2519 53.9956C36.8517 53.5755 39.4875 53.333 42.0585 52.7833C46.113 51.9143 50.1556 50.9541 54.1453 49.8306C56.7523 49.0961 59.2489 47.987 61.5942 46.5875C63.3778 45.5241 64.9742 44.2086 65.7759 42.2665C66.6593 40.1252 66.0064 36.8173 63.0993 35.8402C62.1919 35.5354 61.2485 35.3217 60.3099 35.1441C58.4327 34.784 56.541 34.4983 54.6638 34.1359C54.1645 34.0398 53.6676 33.8334 53.2139 33.5933C51.8384 32.8636 51.5263 31.2936 52.6377 30.1942C53.2067 29.63 53.9892 29.1211 54.7574 28.9507C56.5026 28.5594 58.2886 28.3025 60.0722 28.1633C61.7022 28.0361 63.3514 28.1441 64.991 28.1321C65.4183 28.1297 65.8456 28.0673 66.3641 28.0265C66.6713 25.8972 67.6676 23.9959 67.7276 21.713C61.1501 21.5882 54.743 21.2281 48.4704 23.7391C49.7067 27.3855 49.2794 30.5038 45.813 32.8804C46.3123 33.1732 46.6604 33.3869 47.0157 33.5861C48.5424 34.4383 49.8675 35.4922 50.6885 37.0909C52.6833 40.9774 51.4111 46.9044 46.3459 48.5632C44.6247 49.1273 42.7475 49.4153 40.9351 49.4538C35.7763 49.569 30.6151 49.4946 25.4563 49.4826C24.9906 49.4826 24.5249 49.4105 23.9008 49.3577V38.8817C22.5781 38.5073 21.3802 38.1688 20.0575 37.7919C20.0575 38.6849 19.9759 39.4387 20.0719 40.1708C20.4272 42.8619 20.8425 45.5433 21.2338 48.2295C21.4138 49.4586 21.2098 49.7178 19.9327 49.7226C16.0534 49.7346 12.1717 49.7298 8.29241 49.7226C7.46662 49.7226 6.64083 49.6866 5.70941 49.665C5.6662 49.1753 5.57258 48.8248 5.61579 48.4935C6.01188 45.6057 6.43678 42.7226 6.84727 39.8348C7.30338 36.6372 7.75228 33.4397 8.20599 30.2422C8.31401 29.486 8.12437 28.8643 7.59384 28.2713C5.62299 26.0604 3.81778 23.7199 2.40866 21.1033C0.91792 18.3282 -0.145523 15.4548 -0.00869201 12.202C0.113736 9.32379 2.32944 7.75863 4.58116 7.653C7.52423 7.51617 10.1504 8.29875 12.719 9.62865C15.1748 10.9009 17.4505 12.4133 19.563 14.1897C19.9567 14.521 20.36 14.8402 20.7104 15.1283C20.3312 16.0213 19.9303 15.8893 19.4934 15.5532C18.7012 14.9483 17.8994 14.3529 17.1168 13.736C14.7667 11.8828 12.1597 10.5481 9.25022 9.8159C7.76908 9.44381 6.01669 10.1856 5.72382 11.5059C5.51497 12.4493 5.56298 13.5055 5.74302 14.4658C6.0767 16.2542 7.03692 17.7977 7.98273 19.3293C10.1672 22.8677 12.9759 25.8708 16.1902 28.4562C18.6772 30.4558 21.3658 32.2322 24.5249 33.0364C25.3099 33.2357 26.2053 33.1828 27.0191 33.0532C28.0969 32.8804 28.8027 31.8961 28.8555 30.6863C28.9539 28.4418 28.1473 26.4421 27.0143 24.5793C26.1453 23.1485 25.1082 21.821 24.1816 20.4239C23.9632 20.0926 23.884 19.6701 23.6655 19.082C24.3929 18.938 24.9186 18.7459 25.4443 18.7435C29.6453 18.7171 33.8462 18.6571 38.0448 18.7531C40.5606 18.8108 43.0908 19.0628 45.2993 20.4935C46.065 20.9905 46.7852 21.5522 47.491 22.0587C52.6473 20.0782 57.9502 19.6221 63.3274 19.735C65.5479 19.7806 67.7948 19.5045 69.9601 20.0614C70.193 21.1705 68.7622 27.4527 67.7252 29.9517C67.3195 29.9877 66.8538 30.0765 66.3905 30.0621C64.7941 30.0117 63.1954 29.8269 61.6038 29.8797C59.5729 29.9469 57.5421 30.1581 55.5232 30.3982C55.0215 30.4582 54.5606 30.8591 53.8308 31.2312C54.3157 31.6753 54.563 32.045 54.9039 32.1842C55.4896 32.4219 56.1281 32.5539 56.7547 32.6643C58.7975 33.0268 60.8572 33.3149 62.8929 33.7158C66.873 34.4983 68.635 37.8951 68.0877 41.6016C67.8572 43.1595 67.0914 44.3694 66.0376 45.4352C63.9515 47.5405 61.4502 48.9953 58.6895 50.0371C57.2372 50.5868 55.8401 51.3142 54.3517 51.7319C51.5503 52.5193 48.7032 53.1458 45.8706 53.8252C44.7087 54.1036 43.5469 54.3917 42.3706 54.5861C39.814 55.011 37.2454 55.3759 34.6864 55.7792C34.2615 55.8464 33.8462 55.9905 33.3397 56.1201H33.3301ZM24.2032 52.8817C24.2032 52.8817 24.2032 52.8889 24.2032 52.8913C22.9262 52.8913 21.6467 52.8529 20.3696 52.9009C18.3651 52.973 16.4207 55.0542 16.7183 56.8907C17.1792 59.7545 19.6758 61.1036 22.074 60.3402C23.0582 60.0258 24.0736 59.8097 25.0794 59.5649C26.467 59.2264 27.8857 58.9863 29.242 58.5494C30.3342 58.199 31.148 57.5124 31.3233 56.1921C31.4865 54.9606 30.9416 54.1444 30.0222 53.5971C29.3692 53.2082 28.5578 52.9802 27.7969 52.9081C26.6086 52.7977 25.4035 52.8793 24.2056 52.8793L24.2032 52.8817ZM42.7427 38.3224C42.7859 36.1019 40.9135 34.1839 38.6665 34.1479C36.3548 34.1094 34.4464 35.9507 34.3984 38.2672C34.3552 40.4349 36.2756 42.4129 38.4889 42.4778C40.7574 42.545 42.6971 40.6485 42.7427 38.3224ZM40.6398 26.8286C40.863 25.0258 39.0938 22.702 36.5661 22.6636C34.4128 22.63 32.2187 24.7353 32.3219 26.903C32.4203 28.9963 33.9567 31.0247 36.6333 31.0031C38.9714 30.9839 40.6542 29.2195 40.6422 26.831L40.6398 26.8286Z" fill="white"/>
<path d="M20.2087 22.6252C19.2797 22.0947 17.813 20.4335 17.124 19.1348C20.4896 16.5662 23.9992 14.1441 27.4296 11.5491C28.0897 12.3004 27.6216 12.7854 27.3024 13.2343C26.4694 14.4033 25.5956 15.5412 24.7386 16.6934C23.5983 18.2298 22.4676 19.771 21.3178 21.3025C20.9865 21.7442 20.6072 22.1523 20.2063 22.6252H20.2087Z" fill="white"/>
<path d="M37.3271 39.7219C36.3212 39.7339 35.4186 38.9321 35.3826 37.9935C35.3442 37.0357 36.3932 35.9698 37.3775 35.9674C38.4769 35.9626 39.4059 36.8652 39.3843 37.9191C39.3651 38.8049 38.3329 39.7099 37.3295 39.7219H37.3271Z" fill="white"/>
<path d="M37.2958 26.1924C37.3126 27.191 36.2948 28.2592 35.325 28.2544C34.4656 28.2496 33.4742 27.2774 33.4262 26.3916C33.3733 25.4434 34.3936 24.3415 35.3634 24.2983C36.3404 24.2551 37.2766 25.1745 37.2958 26.1948V26.1924Z" fill="white"/>
</g>
</g>
<defs>
<clipPath id="clip0_69_389">
<rect width="70" height="70" fill="white"/>
</clipPath>
<clipPath id="clip1_69_389">
<rect width="70" height="54.7229" fill="white" transform="translate(-0.0206909 7.63855)"/>
</clipPath>
</defs>
</svg>
