<svg width="90" height="90" viewBox="0 0 90 90" fill="none" xmlns="http://www.w3.org/2000/svg">
<rect x="10" y="10" width="70" height="70" fill="#E98300"/>
<path d="M37.84 38.67H67.39C68.5397 38.67 69.6423 38.2133 70.4553 37.4003C71.2683 36.5873 71.725 35.4847 71.725 34.335C71.725 33.1853 71.2683 32.0827 70.4553 31.2697C69.6423 30.4567 68.5397 30 67.39 30H37.84C36.6903 30 35.5877 30.4567 34.7747 31.2697C33.9617 32.0827 33.505 33.1853 33.505 34.335C33.505 35.4847 33.9617 36.5873 34.7747 37.4003C35.5877 38.2133 36.6903 38.67 37.84 38.67Z" fill="white"/>
<path d="M65.5996 54.3792C65.8178 54.9057 65.93 55.4701 65.93 56.04C65.9274 57.1893 65.4689 58.2906 64.6553 59.1024C63.8417 59.9141 62.7393 60.37 61.59 60.37H32.04C30.8903 60.37 29.7877 59.9133 28.9747 59.1003C28.1617 58.2873 27.705 57.1847 27.705 56.035C27.705 54.8853 28.1617 53.7827 28.9747 52.9697C29.7877 52.1567 30.8903 51.7 32.04 51.7H61.59C62.16 51.7 62.7243 51.8123 63.2509 52.0304C63.7774 52.2485 64.2558 52.5682 64.6589 52.9712C65.0619 53.3742 65.3815 53.8526 65.5996 54.3792Z" fill="white"/>
<path d="M19.3275 46.8139C19.11 46.2862 18.9987 45.7208 19 45.15C19.0013 44.5814 19.1146 44.0186 19.3334 43.4937C19.5523 42.9689 19.8723 42.4923 20.2753 42.0912C20.6783 41.69 21.1564 41.3722 21.6822 41.1558C22.2081 40.9394 22.7714 40.8287 23.34 40.83H52.89C54.0397 40.83 55.1423 41.2867 55.9553 42.0997C56.7683 42.9127 57.225 44.0153 57.225 45.165C57.225 46.3147 56.7683 47.4173 55.9553 48.2303C55.1423 49.0433 54.0397 49.5 52.89 49.5H23.34C22.7692 49.5 22.2041 49.3874 21.6769 49.1687C21.1496 48.95 20.6708 48.6294 20.2676 48.2253C19.8645 47.8212 19.545 47.3416 19.3275 46.8139Z" fill="white"/>
</svg>
