<svg width="70" height="70" viewBox="0 0 70 70" fill="none" xmlns="http://www.w3.org/2000/svg">
<path d="M24.8523 34.8523H19.0449C19.0341 35.8294 19.461 36.432 20.3827 36.6956C21.5972 37.0439 22.7701 36.8821 23.8906 36.3118C24.1356 36.187 24.3792 36.0606 24.7491 35.871C24.7491 36.5522 24.7783 37.1318 24.7306 37.7036C24.7167 37.87 24.5132 38.1012 24.3452 38.1629C22.5821 38.804 20.7865 38.935 18.9925 38.3201C17.1338 37.682 16.2414 36.1361 16.3909 33.9244C16.5234 31.9424 17.7503 30.4705 19.5905 30.0805C19.6414 30.0698 19.6922 30.0698 19.7431 30.0605C23.2756 29.4039 25.1883 31.1563 24.8508 34.8538L24.8523 34.8523ZM22.3185 33.2756C22.2769 32.0611 21.8099 31.5971 20.6771 31.6156C19.5859 31.6326 19.0295 32.189 19.0326 33.2756H22.3185Z" fill="white"/>
<path d="M34.6901 34.8445H28.8904C28.8704 35.8124 29.2989 36.4243 30.2051 36.691C31.4181 37.047 32.591 36.8867 33.7145 36.3241C33.9611 36.2008 34.2062 36.0698 34.59 35.871C34.59 36.5738 34.6208 37.1734 34.5684 37.7667C34.5545 37.9224 34.311 38.1259 34.1307 38.189C32.4677 38.7763 30.7738 38.9042 29.0661 38.3971C27.0671 37.8037 26.1054 36.2702 26.2379 33.9337C26.3505 31.9393 27.6174 30.4381 29.4992 30.0682C29.5501 30.059 29.6009 30.0574 29.6518 30.0482C33.1396 29.4224 35.0431 31.1887 34.6901 34.843V34.8445ZM28.8272 33.274H32.1563C32.1286 32.1489 31.7017 31.6572 30.7476 31.6156C29.5485 31.5632 28.9844 32.0302 28.8272 33.274Z" fill="white"/>
<path d="M39.1998 38.3601H36.6721V30.2871H39.1504C39.1813 30.4921 39.2121 30.7063 39.2429 30.9067C39.9134 30.6061 40.536 30.227 41.2111 30.0466C43.0421 29.5565 44.5386 30.5337 44.6512 32.4032C44.7698 34.3668 44.6774 36.3426 44.6774 38.357H42.1574C42.1574 37.9918 42.162 37.6203 42.1574 37.2473C42.1389 35.8864 42.1343 34.527 42.0865 33.1677C42.068 32.6436 41.8091 32.1181 41.2481 32.1366C40.5884 32.1581 39.9288 32.3847 39.2907 32.5851C39.2013 32.6128 39.2044 33.0074 39.2044 33.2324C39.1982 34.9216 39.2013 36.6124 39.2013 38.3617L39.1998 38.3601Z" fill="white"/>
<path d="M59.6567 35.3054C60.2532 33.6254 60.8497 31.947 61.4507 30.2562H64C63.9568 30.4335 63.9368 30.5999 63.8751 30.751C62.5373 34.0539 61.1841 37.3521 59.8633 40.6612C59.6629 41.1621 59.4194 41.3887 58.8599 41.3409C58.2249 41.2869 57.5822 41.3286 56.8131 41.3286C57.143 40.5317 57.4096 39.7966 57.7518 39.0968C58.0061 38.5759 58.0246 38.1258 57.8011 37.5725C56.9333 35.4348 56.1211 33.274 55.2904 31.1209C55.1902 30.862 55.107 30.5969 54.9806 30.2316C55.8129 30.2316 56.5727 30.1946 57.3248 30.2578C57.5067 30.2732 57.7302 30.5922 57.8165 30.8173C58.3821 32.2999 58.9154 33.7965 59.4579 35.2884C59.5242 35.2946 59.5905 35.2992 59.6567 35.3054Z" fill="white"/>
<path d="M12.0107 29.7492V38.3617H9.30578V29.8047H6.00134V27.6531H15.3259V29.7492H12.0091H12.0107Z" fill="white"/>
<path d="M53.7892 32.3061C52.6641 32.0626 51.6377 31.8145 50.5973 31.6341C50.3183 31.5848 49.9731 31.6865 49.7142 31.8237C49.5215 31.9254 49.2873 32.2136 49.3088 32.3893C49.3366 32.6082 49.5739 32.9118 49.7835 32.9766C50.4663 33.1862 51.1784 33.3018 51.8796 33.4559C53.313 33.7718 54.0497 34.4731 54.1483 35.609C54.2532 36.822 53.5349 37.8685 52.2033 38.337C50.4848 38.9427 48.7632 38.7716 47.0694 38.2137C46.8875 38.1536 46.6718 37.8854 46.6533 37.6943C46.5978 37.141 46.6332 36.58 46.6332 36.0159C47.4686 36.3334 48.2284 36.7064 49.0314 36.9006C49.6109 37.0408 50.2598 37.0146 50.8547 36.9175C51.1152 36.8744 51.3155 36.4706 51.5436 36.2317C51.3186 36.0251 51.126 35.7153 50.8624 35.6352C50.1796 35.4256 49.4568 35.3485 48.7648 35.162C47.3977 34.7937 46.7041 34.0076 46.6563 32.8425C46.6116 31.7374 47.3052 30.788 48.5567 30.3148C50.1673 29.7045 51.7856 29.8494 53.3808 30.3826C53.5565 30.4412 53.7507 30.7217 53.7723 30.9159C53.8278 31.4199 53.7908 31.9347 53.7908 32.3077L53.7892 32.3061Z" fill="white"/>
</svg>
