<svg width="70" height="70" viewBox="0 0 70 70" fill="none" xmlns="http://www.w3.org/2000/svg">
<path d="M35.362 51.581L39.94 25.836C44.303 25.836 45.68 26.314 45.878 28.266C45.878 28.266 48.805 27.166 50.281 24.958C44.521 22.288 38.731 22.158 38.731 22.158L35.353 26.272H35.361L31.983 22.158C31.983 22.158 26.183 22.278 20.433 24.958C21.908 27.175 24.836 28.266 24.836 28.266C25.036 26.313 26.41 25.834 30.736 25.831L35.36 51.581M35.359 20.981C40.016 20.945 45.346 21.701 50.803 24.081C51.533 22.768 51.72 22.188 51.72 22.188C45.755 19.828 40.17 19.02 35.36 19C30.56 19.02 24.964 19.828 19 22.188C19 22.188 19.266 22.903 19.916 24.081C25.372 21.703 30.703 20.947 35.36 20.981" fill="#E82127"/>
</svg>
