<svg width="70" height="70" viewBox="0 0 70 70" fill="none" xmlns="http://www.w3.org/2000/svg">
<path fill-rule="evenodd" clip-rule="evenodd" d="M46.4818 21.6813C49.9924 21.6813 54.1737 22.0363 55.436 22.6675C55.436 23.6142 55.436 26.8093 55.436 27.1248C55.436 31.6216 58 32.2528 58 32.2528C58 32.2528 58 34.1856 58 36.3946C58 39.2741 57.3689 41.207 57.3689 41.207C56.0671 41.5225 52.872 42.4692 49.3613 45.0332C46.7973 46.966 44.549 49.8456 44.549 52.7251C44.549 54.6185 44.8645 55.9202 45.5351 57.1825C45.5351 57.1825 44.2334 57.8136 41.985 57.8136C39.1449 57.498 35.9498 55.2496 34.017 51.739C31.453 47.2816 30.1908 41.8381 27.3112 41.8381C24.4317 41.8381 24.4317 44.7176 22.1833 44.7176C19.6193 44.7176 18.0414 40.5758 17.4103 38.643C15.793 35.7634 11.9668 34.8168 11.6512 30.3199H23.8005C23.8005 23.6142 23.8005 19.7879 23.8005 13.0822C28.2579 13.0822 30.8219 13.0822 35.2792 13.0822V20.4191C35.6342 20.7346 36.581 21.0502 37.8432 21.3658L36.5809 27.1248H33.0702L31.7685 32.2528H35.2792L34.017 38.643C34.017 39.5897 33.7014 41.8381 34.017 42.7848C34.6481 45.3488 36.2653 46.2955 38.4743 46.2955C41.6694 46.2955 44.549 44.7176 44.549 44.7176L45.8507 40.5758C45.2196 40.5758 44.2334 40.5758 43.6023 40.5758C42.9711 40.5758 42.34 40.5758 42.6555 38.9585L44.2334 32.2528H47.7441L49.0458 27.1248H45.5351L46.4818 21.6813Z" fill="#BE372F"/>
<path fill-rule="evenodd" clip-rule="evenodd" d="M39.4605 23.6142H43.918L40.4073 40.2603H35.95L39.4605 23.6142Z" fill="#BE372F"/>
<path fill-rule="evenodd" clip-rule="evenodd" d="M42.6555 17.5395C43.9178 17.5395 45.2195 18.4862 45.2195 20.1035C45.2195 21.3658 43.9178 22.3519 42.6555 22.3519C41.3538 22.3519 40.0915 21.3658 40.0915 20.1035C40.0915 18.4862 41.3538 17.5395 42.6555 17.5395Z" fill="#BE372F"/>
</svg>
