<svg width="90" height="90" viewBox="0 0 90 90" fill="none" xmlns="http://www.w3.org/2000/svg">
<path d="M32.4476 59.0895C32.4476 59.0895 32.4476 59.3063 32.4205 59.4147C32.1223 63.3722 33.5589 67.2754 36.405 70.0402C39.2512 72.8321 43.1815 74.1332 47.139 73.7538C51.0964 73.3472 54.6473 71.2871 56.87 68.0073C59.0927 64.7275 59.7703 60.6074 58.659 56.7855C58.6048 56.7855 58.5505 56.7313 58.4963 56.7041C57.4663 56.162 56.4634 55.5928 55.4876 54.9694C54.5389 54.373 53.5902 53.7225 52.6957 53.0448C52.0451 52.5298 51.3946 52.0148 50.7712 51.4727C49.958 50.7408 49.1719 49.9548 48.413 49.1416C46.4342 54.373 41.7991 58.1408 36.2966 59.0081C34.9955 59.1979 33.7216 59.2521 32.3934 59.1166" fill="#E30040"/>
<path d="M51.9637 25.1252C54.2948 31.2511 56.5175 36.7807 59.0925 42.8253C58.7131 42.9338 58.3336 42.7711 58.1438 42.4187C55.0809 36.7265 52.4245 31.2511 49.9308 25.2878C49.6597 24.6644 49.4157 24.0138 49.1447 23.3904C49.0092 23.0651 48.8736 22.7399 48.7652 22.4146C48.7381 22.3333 48.711 22.252 48.6568 22.1706C48.6026 22.0622 48.6026 21.9538 48.6568 21.8454C48.6568 21.7912 48.711 21.7641 48.7381 21.737C48.7381 21.7098 48.7923 21.6827 48.8194 21.6556C49.0091 21.3846 49.1718 21.0864 49.3073 20.7882C49.5513 20.1648 49.6326 19.4601 49.5242 18.7824C49.3073 17.4271 48.3586 16.3158 47.0575 15.855C45.7565 15.3942 44.3198 15.6652 43.3169 16.5868C42.2869 17.4813 41.8261 18.8908 42.1242 20.219C42.1242 20.3003 42.1785 20.3817 42.2056 20.4901V20.5443L42.2598 20.6256C42.2598 20.6256 42.2598 20.8696 42.1785 20.978L42.07 21.0864C41.9345 21.2219 41.8261 21.3846 41.6906 21.5201C41.4466 21.8183 41.2027 22.1164 40.9587 22.4146C40.4708 23.0109 40.01 23.6344 39.5763 24.2578C38.6818 25.5318 37.8686 26.8329 37.1097 28.1882C36.9199 28.5405 36.7302 28.8658 36.5675 29.2182C36.4862 29.3808 36.3778 29.5706 36.2965 29.7332C36.2423 29.8145 36.2152 29.8958 36.161 30.0042V30.0585C36.161 30.0585 36.0796 30.1398 36.0525 30.1669C35.9712 30.2753 35.8357 30.3024 35.7002 30.3024C35.646 30.3024 35.5917 30.3024 35.5646 30.3024C34.8599 30.2211 34.128 30.194 33.4233 30.2211C31.9324 30.2753 30.4687 30.5735 29.0863 31.1156C26.0505 32.3082 23.5567 34.558 22.0388 37.4584C20.6022 40.2503 20.1685 43.4488 20.8461 46.5117C21.5509 49.7644 23.4483 52.6377 26.1589 54.5622C28.6797 56.3512 31.7156 57.2186 34.7786 57.0288C38.1126 56.812 41.2569 55.3754 43.588 52.99C45.7293 50.7945 47.0304 47.9483 47.3286 44.9125C47.6268 41.7411 46.8136 38.5968 44.9975 35.9946C44.1301 34.7207 43.0187 33.6364 41.7719 32.7419C41.1755 32.3082 40.5792 31.9559 39.9287 31.6306C39.766 31.5493 39.6034 31.468 39.4679 31.4138C39.4137 31.4138 39.3595 31.3595 39.3053 31.3324C39.1968 31.2511 39.1426 31.1156 39.1697 30.9801C39.1697 30.9258 39.1697 30.8716 39.2239 30.8174C39.2239 30.7632 39.2781 30.7361 39.2781 30.6819C39.3324 30.6006 39.3594 30.5193 39.4137 30.4379C39.5763 30.1127 39.766 29.7603 39.9558 29.435C40.6876 28.1068 41.5008 26.8329 42.4224 25.586C42.8561 24.9626 43.344 24.3933 43.8048 23.797C43.9132 23.6615 44.0488 23.4988 44.1572 23.3633C44.1843 23.3362 44.2114 23.282 44.2385 23.2549L44.2927 23.2007V23.1465C44.2927 23.1465 44.5638 23.0109 44.6993 23.038C44.7264 23.038 44.7806 23.038 44.8077 23.0651H44.8891C44.8891 23.0651 44.9975 23.1194 45.0246 23.1194C45.133 23.1194 45.2143 23.1465 45.3227 23.1736C45.377 23.1736 45.4312 23.1736 45.4583 23.1736H45.5125C45.648 23.1736 45.7564 23.282 45.8378 23.4175C45.8378 23.4717 45.892 23.5259 45.9191 23.5802L45.9733 23.7157C46.1359 24.0952 46.3257 24.4746 46.4883 24.8541C46.5425 24.9626 46.5696 25.0439 46.6238 25.1252C46.6238 25.1794 46.678 25.2336 46.678 25.2607C46.7051 25.342 46.7594 25.3962 46.7594 25.4776C46.7594 25.5589 46.7594 25.6131 46.7594 25.6673C46.7594 25.7215 46.7051 25.7757 46.7051 25.8028C46.678 25.8842 46.6238 25.9655 46.5967 26.0468C46.5154 26.2094 46.4612 26.3721 46.3799 26.5618C46.1088 27.2123 45.8649 27.89 45.6751 28.5676C45.2685 29.8687 44.9975 31.1969 44.8348 32.5522C48.5754 36.2386 50.2018 41.5514 49.1718 46.7015C53.8069 52.4479 61.0984 56.053 67.7393 58.3028C69.2302 51.8787 69.7452 44.2619 67.3327 37.7836C66.0859 34.4767 64.1342 31.6306 61.3694 29.435C58.6046 27.2394 55.3519 25.9113 51.9908 25.1252" fill="#E30040"/>
</svg>
