<svg width="90" height="90" viewBox="0 0 90 90" fill="none" xmlns="http://www.w3.org/2000/svg">
<path fill-rule="evenodd" clip-rule="evenodd" d="M74.513 54.5131C75.4785 51.5155 76 48.3186 76 45C76 41.6615 75.4723 38.4463 74.4957 35.4332L70.1076 39.8213C67.2769 36.9905 62.6653 36.9905 59.8213 39.8213C56.9906 42.652 56.9906 47.2769 59.8213 50.1076C62.652 52.9383 67.2769 52.9383 70.1076 50.1076L74.513 54.5131ZM71.8775 60.4571C66.5236 69.7467 56.4921 76 45 76C27.8792 76 14 62.1208 14 45C14 27.8792 27.8792 14 45 14C56.448 14 66.4466 20.2054 71.8157 29.4361C65.5936 26.6988 58.0529 27.8746 52.9637 32.9637C46.3454 39.5821 46.3454 50.3468 52.9637 56.9651C56.2729 60.2743 60.6187 61.9222 64.9644 61.9222C67.3241 61.9222 69.6838 61.4324 71.8775 60.4571ZM28 31.3536H38.3182V62.0049H41.6626V31.3536H51.0252V28H28V31.3536Z" fill="#C73422"/>
</svg>
