<svg width="70" height="70" viewBox="0 0 70 70" fill="none" xmlns="http://www.w3.org/2000/svg">
<g clip-path="url(#clip0_69_416)">
<path d="M25.0366 22.1181L33.1441 0C28.2372 0.136993 23.5919 1.30766 19.4199 3.32519L22.8571 22.3174C23.567 22.1929 24.2893 22.1306 25.0366 22.1181Z" fill="#B9183A"/>
<path d="M45.5856 44.9961L64.4283 48.7571C66.4708 44.6349 67.6913 40.0269 67.8781 35.1575L45.6852 42.854C45.6852 43.5763 45.6603 44.2862 45.5731 44.9961" fill="#B9183A"/>
<path d="M43.4808 34.1611L67.3052 27.436C66.2715 21.9811 63.9177 16.9996 60.605 12.8151L42.0984 32.0937C42.5966 32.7289 43.0574 33.4138 43.4684 34.1611" fill="#B9183A"/>
<path d="M35.9711 25.5928L55.4366 7.5595C51.277 4.17204 46.3079 1.75598 40.8655 0.647583L33.7543 24.2228C34.5389 24.6338 35.2737 25.0821 35.9711 25.5803" fill="#B9183A"/>
<path d="M13.3922 52.2317C5.50888 43.1528 10.5901 33.3392 14.3512 28.258L11.9102 8.13245C4.68692 14.3345 0.103882 23.5255 0.103882 33.7875C0.103882 52.4684 15.2478 67.5999 33.9162 67.5999C44.0786 67.5999 53.1949 63.1165 59.3845 56.0177L40.7659 53.4273C37.2913 56.0302 24.0527 64.5237 13.3673 52.2317" fill="#B9183A"/>
</g>
<defs>
<clipPath id="clip0_69_416">
<rect width="70" height="70" fill="white"/>
</clipPath>
</defs>
</svg>
