<svg width="70" height="70" viewBox="0 0 70 70" fill="none" xmlns="http://www.w3.org/2000/svg">
<path d="M47.7691 39.3473C46.9507 39.3446 46.1507 39.1044 45.4668 38.656C44.783 38.2076 44.2449 37.5704 43.9183 36.8222C43.5917 36.074 43.4907 35.2472 43.6276 34.4428C43.7645 33.6383 44.1335 32.8909 44.6893 32.292C45.2452 31.6931 45.964 31.2685 46.7579 31.07C47.5518 30.8716 48.3865 30.9079 49.1601 31.1745C49.9337 31.4411 50.6126 31.9266 51.114 32.5715C51.6155 33.2164 51.9177 33.9929 51.9838 34.8062C51.8472 31.2973 50.4705 27.9496 48.0971 25.3549C45.7237 22.7602 42.5065 21.0856 39.0143 20.6272C35.522 20.1688 31.9797 20.9561 29.0135 22.8499C26.0473 24.7438 23.8483 27.6221 22.8052 30.9762H22.2379C21.1201 30.9762 20.0481 31.4189 19.2576 32.2068C18.4672 32.9948 18.0232 34.0635 18.0232 35.1779C18.0232 36.2923 18.4672 37.361 19.2576 38.149C20.0481 38.9369 21.1201 39.3796 22.2379 39.3796H22.7728C23.8126 42.7556 26.0214 45.6536 29.0054 47.5568C31.9893 49.4601 35.5543 50.2449 39.0647 49.7713C42.5751 49.2977 45.8027 47.5965 48.1718 44.971C50.541 42.3455 51.8977 38.9665 52 35.4365C51.9221 36.5011 51.4422 37.4966 50.657 38.2224C49.8718 38.9481 48.8399 39.3501 47.7691 39.3473ZM34.963 39.3473C34.1322 39.3409 33.3218 39.0899 32.6337 38.6257C31.9456 38.1616 31.4104 37.5051 31.0955 36.7386C30.7805 35.9722 30.6998 35.1301 30.8634 34.318C31.0271 33.506 31.4278 32.7603 32.0153 32.1747C32.6028 31.589 33.3508 31.1895 34.1653 31.0263C34.9798 30.8632 35.8246 30.9436 36.5934 31.2576C37.3622 31.5717 38.0207 32.1052 38.4863 32.7912C38.9519 33.4772 39.2037 34.285 39.2101 35.1133C39.2122 35.6685 39.1044 36.2187 38.8927 36.7323C38.681 37.2459 38.3697 37.7128 37.9766 38.1062C37.5835 38.4996 37.1164 38.8117 36.602 39.0247C36.0877 39.2377 35.5362 39.3473 34.9792 39.3473H34.963Z" fill="#C1D72E"/>
</svg>
