<svg width="70" height="70" viewBox="0 0 70 70" fill="none" xmlns="http://www.w3.org/2000/svg">
<g clip-path="url(#clip0_69_499)">
<path d="M0.000177143 49.3171C0.000177143 51.1593 1.53951 53.0015 3.63861 53.0015H17.6395V67.1743C17.6395 69.0166 19.1789 70.8588 21.278 70.8588H33.2489V37.2007H0L0.000177143 49.3171ZM44.3789 0.000442858C29.7491 0.000442858 18.0612 11.7623 18.0612 26.2862V31.8857H32.7583V26.2862C32.7583 19.9817 37.8689 14.8805 44.3785 14.8805C50.8176 14.8805 55.2989 19.4135 55.2989 26.1445C55.2989 32.8069 50.4682 37.6956 44.026 37.6956H38.4973V52.5716H44.026C58.3794 52.5716 70 40.7424 70 26.1423C70 10.9829 59.1504 0 44.3785 0" fill="#4ACBD6"/>
</g>
<defs>
<clipPath id="clip0_69_499">
<rect width="70" height="70" fill="white"/>
</clipPath>
</defs>
</svg>
