<svg width="90" height="90" viewBox="0 0 90 90" fill="none" xmlns="http://www.w3.org/2000/svg">
<path d="M25.2253 74.5972C22.2371 74.5972 19.6691 73.7101 17.8482 72.0759C16.0272 70.4417 15 68.1072 15 65.3524V25.8518C15 22.9103 15.8871 20.389 17.7081 18.6614C19.529 16.8871 22.2371 16 25.6455 16H65.1461C68.4612 16 70.9358 16.8404 72.6167 18.5213C74.2976 20.1555 75.0446 22.5367 74.9979 25.3382V66.6597C74.9979 70.6752 74.9979 73.8968 74.9979 73.8968V74.5972H25.2253Z" fill="#00A7E5"/>
<path d="M46.9833 64.326C47.8237 65.0731 48.7109 65.8201 51.7925 65.8201H64.0255C64.0255 65.8201 63.1384 64.0459 62.2046 63.3455C61.0373 62.4584 59.7766 62.365 58.4693 62.365H45.816C45.8627 62.4117 46.1428 63.5789 46.9833 64.326ZM43.8083 56.6687C44.1818 57.369 45.1623 57.7893 46.2362 57.7893C46.2362 57.7893 48.0572 57.8826 49.1778 57.7893C50.1116 57.7426 50.6252 57.6959 51.2789 57.369C51.8391 57.0422 52.5395 56.5753 52.9597 55.0812L57.1152 39.4397C57.4421 38.2257 57.5354 37.4787 57.1152 36.825C56.5549 35.9846 55.481 35.7978 54.3605 35.7978C54.3605 35.7978 52.8664 35.7978 51.9325 35.7978C50.7186 35.7978 49.9248 35.9846 49.3178 36.3114C48.7109 36.6849 48.1506 37.3386 47.8237 38.5526L43.7616 54.5676C43.7616 54.5209 43.3881 55.8282 43.8083 56.6687ZM59.2163 55.7349C58.7961 57.3223 58.1891 58.4896 57.0685 59.19C55.948 59.8904 54.5939 60.1238 51.6991 60.0771C51.6991 60.0771 46.0028 60.0771 43.1546 60.0771C41.6138 60.0771 38.9524 59.8437 37.8785 58.4429C36.7113 56.9488 37.2249 55.3613 37.5984 53.7271L41.5671 38.0857C41.5671 38.0857 42.0807 35.4243 43.5748 34.4904C44.9756 33.65 46.9366 33.6967 50.1116 33.6967H57.909C57.909 33.6967 61.9244 33.5099 63.2318 35.4243C64.3056 36.8717 63.7454 38.5993 63.3718 40.2334L59.2163 55.7349ZM56.3682 26.3662H30.7348C29.194 26.3662 27.7466 26.5063 26.4859 27.5335C25.6922 28.1405 25.5521 28.6074 25.0852 29.4945H29.9411C31.9021 29.4945 32.2289 30.4283 31.6686 32.7162L28.3536 45.8831C27.6999 48.5911 27.5131 50.9257 29.0539 53.2135C30.3613 55.1746 32.3223 55.3146 32.3223 55.3146L37.9252 33.7901C37.9252 33.7901 38.2988 31.3621 39.6528 30.4283C40.4465 29.868 41.5204 29.728 42.7811 29.728H48.9443C50.1583 29.728 52.8664 29.8213 54.2671 28.9342C55.2943 28.1872 55.8546 27.4401 56.3682 26.3662Z" fill="white"/>
</svg>
