<svg width="90" height="90" viewBox="0 0 90 90" fill="none" xmlns="http://www.w3.org/2000/svg">
<path d="M19.545 55.4126L19.2866 57.1982H10.9268L11.1961 55.4126H19.545Z" fill="#045CC7"/>
<path d="M19.9057 52.916L19.648 54.7016H11.3036L11.5736 52.916H19.9057Z" fill="#045CC7"/>
<path d="M20.267 50.4194L20.0085 52.205H11.681L11.9503 50.4194H20.267Z" fill="#045CC7"/>
<path d="M20.6284 47.9224L20.3699 49.7072H12.0578L12.327 47.9224H20.6284Z" fill="#045CC7"/>
<path d="M20.9898 45.4263L20.7313 47.2111H12.4345L12.7037 45.4263H20.9898Z" fill="#045CC7"/>
<path d="M21.3498 42.9292L21.0921 44.714H12.8106L13.0806 42.9292H21.3498Z" fill="#045CC7"/>
<path d="M21.7111 40.4321L21.4534 42.2177H13.188L13.4572 40.4321H21.7111Z" fill="#045CC7"/>
<path d="M31.0588 37.9355L30.808 39.5263H21.8424L21.814 39.7212H13.5647L13.59 39.5532L5.07996 39.5263L5.3208 37.9355H31.0588Z" fill="#045CC7"/>
<path d="M31.4531 35.4385L31.1717 37.2241H5.42825L5.69824 35.4385H31.4531Z" fill="#045CC7"/>
<path d="M31.8475 32.9424L31.566 34.728H5.80569L6.07568 32.9424H31.8475Z" fill="#045CC7"/>
<path d="M44.9387 34.728H36.0919L35.038 32.9424H43.9323L44.9387 34.728Z" fill="#045CC7"/>
<path d="M59.0919 32.9424L57.5425 34.728H49.1636L50.6892 32.9424H59.0919Z" fill="#045CC7"/>
<path d="M56.9255 35.4385L55.3769 37.2241H47.0294L48.5558 35.4385H56.9255Z" fill="#045CC7"/>
<path d="M46.3464 37.2241H37.5664L36.5117 35.4385H45.3393L46.3464 37.2241Z" fill="#045CC7"/>
<path d="M54.7608 37.9355L53.2114 39.7212H39.04L37.9861 37.9355H54.7608Z" fill="#045CC7"/>
<path d="M52.5942 40.4321L51.0449 42.2177H40.5137L39.4591 40.4321H52.5942Z" fill="#045CC7"/>
<path d="M39.5097 44.714L40.987 43.0197L40.9333 42.9292H50.4275L50.2994 43.0772L51.2635 44.714H39.5097Z" fill="#045CC7"/>
<path d="M52.7341 47.2111H37.3339L38.8902 45.4263H51.6825L52.7341 47.2111Z" fill="#045CC7"/>
<path d="M54.2046 49.7072H35.1581L36.7136 47.9224H53.153L54.2046 49.7072Z" fill="#045CC7"/>
<path d="M44.2797 50.4194L42.6138 52.205H32.9808L34.5371 50.4194H44.2797Z" fill="#045CC7"/>
<path d="M41.9506 52.916L40.2846 54.7016H30.8043L32.3613 52.916H41.9506Z" fill="#045CC7"/>
<path d="M39.6213 55.4126L37.9554 57.1982H28.6284L30.1847 55.4126H39.6213Z" fill="#045CC7"/>
<path d="M55.6747 52.205H46.1951L45.1297 50.4194H54.6231L55.6747 52.205Z" fill="#045CC7"/>
<path d="M57.1452 54.7016H47.6848L46.6194 52.916H56.0936L57.1452 54.7016Z" fill="#045CC7"/>
<path d="M58.6157 57.1982H49.1737L48.1083 55.4126H57.5641L58.6157 57.1982Z" fill="#045CC7"/>
<path d="M80.7253 55.4126C78.6521 56.5447 76.2114 57.1982 73.599 57.1982C70.9865 57.1982 68.5458 56.5447 66.4718 55.4126H80.7253Z" fill="#045CC7"/>
<path d="M83.9992 52.916C83.3694 53.5757 82.6615 54.1747 81.8883 54.7016H65.3085C64.5353 54.1747 63.8274 53.5757 63.1977 52.916H83.9992Z" fill="#045CC7"/>
<path d="M83.5562 52.205H62.5683C62.1088 51.6444 61.7023 51.0469 61.3549 50.4194H69.3441C70.5061 51.1857 71.929 51.6367 73.4653 51.6367C75.0016 51.6367 76.4229 51.1865 77.5842 50.4194H81.5619L83.5562 52.205Z" fill="#045CC7"/>
<path d="M68.4356 49.7072H60.9925C60.7248 49.1335 60.5062 48.5367 60.3398 47.9224H67.065C67.4124 48.5874 67.8773 49.1902 68.4356 49.7072Z" fill="#045CC7"/>
<path d="M66.7477 47.2111H60.1721C60.0555 46.6297 59.9857 46.0337 59.9665 45.4263H66.3726C66.4079 46.0483 66.5376 46.6466 66.7477 47.2111Z" fill="#045CC7"/>
<path d="M66.7477 42.9292C66.5376 43.4937 66.4079 44.092 66.3726 44.714H59.9665C59.9857 44.1066 60.0555 43.5106 60.1721 42.9292H66.7477Z" fill="#045CC7"/>
<path d="M68.4364 40.4321C67.878 40.9491 67.4124 41.552 67.065 42.2177H60.3398C60.5062 41.6034 60.7256 41.0066 60.9933 40.4321H68.4364Z" fill="#045CC7"/>
<path d="M83.9612 37.9355L81.9569 39.7212H77.5857C76.4237 38.9549 75.0016 38.5039 73.4653 38.5039C71.929 38.5039 70.5061 38.9549 69.3441 39.7212H61.3549C61.7023 39.0937 62.1088 38.4962 62.5683 37.9355H83.9612Z" fill="#045CC7"/>
<path d="M81.1585 40.4321L79.6252 41.7982C79.313 41.2973 78.9318 40.8379 78.4931 40.4321H81.1585Z" fill="#045CC7"/>
<path d="M83.9999 37.2241H63.1977C63.8274 36.5645 64.5353 35.9654 65.3085 35.4385H81.8883C82.6623 35.9654 83.3702 36.5645 83.9999 37.2241Z" fill="#045CC7"/>
<path d="M80.7253 34.728H66.4718C68.5458 33.5959 70.9865 32.9424 73.599 32.9424C76.2114 32.9424 78.6521 33.5951 80.7253 34.728Z" fill="#045CC7"/>
<path d="M80.7673 49.7076H78.4931C78.8681 49.3609 79.2003 48.9759 79.4841 48.5586L80.7673 49.7076Z" fill="#045CC7"/>
</svg>
