<svg width="70" height="70" viewBox="0 0 70 70" fill="none" xmlns="http://www.w3.org/2000/svg">
<path fill-rule="evenodd" clip-rule="evenodd" d="M55 34.9307C55 46.0195 46.0207 55 34.9307 55C23.8419 55 14.8625 46.0195 14.8625 34.9307C14.8625 23.8656 23.8419 14.8625 34.9307 14.8625C46.0207 14.8625 55 23.8656 55 34.9307Z" fill="white"/>
<path fill-rule="evenodd" clip-rule="evenodd" d="M55 34.9307C55 46.0195 46.0207 55 34.9307 55C23.8419 55 14.8625 46.0195 14.8625 34.9307C14.8625 23.8656 23.8419 14.8625 34.9307 14.8625C46.0207 14.8625 55 23.8656 55 34.9307Z" fill="white"/>
<path fill-rule="evenodd" clip-rule="evenodd" d="M55 34.9307C55 38.2554 54.1917 41.3936 52.7617 44.1542V30.8101H48.1584V40.4248C48.1584 43.069 47.141 44.3939 45.131 44.3939C44.1395 44.3939 43.4013 44.0875 42.8926 43.5019C42.4088 42.8926 42.1556 41.8243 42.1556 40.323V30.8101H37.5523V40.704C37.5523 46.0715 39.7137 48.744 44.0378 48.744C45.7923 48.744 47.1658 48.233 48.1584 47.2167V48.3879H49.8247C46.1541 52.4474 40.8419 55 34.9307 55C23.8419 55 14.8625 46.0195 14.8625 34.9307C14.8625 23.8656 23.8419 14.8625 34.9307 14.8625C46.0207 14.8625 55 23.8656 55 34.9307ZM34.5746 26.7912C34.5746 28.6735 33.0744 30.1748 31.1933 30.1748C29.3348 30.1748 27.8087 28.6735 27.8087 26.7912C27.8087 24.935 29.3348 23.4089 31.1933 23.4089C33.0744 23.4089 34.5746 24.935 34.5746 26.7912Z" fill="#ED1B2F"/>
</svg>
