<svg width="70" height="70" viewBox="0 0 70 70" fill="none" xmlns="http://www.w3.org/2000/svg">
<path d="M30.045 33.3863H44.837V33.6578C44.837 37.3184 44.825 40.9773 44.8439 44.638C44.8508 45.9819 44.385 47.1127 43.5034 48.0975C42.211 49.5446 40.5972 50.3901 38.6741 50.629C37.0036 50.8352 35.371 50.7029 33.8277 49.9656C32.4957 49.328 31.4611 48.3467 30.6843 47.1093C30.3269 46.5387 30.1395 45.8857 30.1344 45.1931C30.1069 41.3348 30.0742 37.4783 30.0416 33.62C30.0416 33.5461 30.0416 33.4722 30.0416 33.3863H30.045Z" fill="#E2017A"/>
<path d="M36.8454 30.9458L34.5133 31.0593C34.4995 30.963 34.4806 30.884 34.4772 30.8049C34.4153 29.4902 34.3586 28.1737 34.295 26.859C34.2056 24.9823 34.1042 23.1056 34.0252 21.2288C34.0063 20.794 34.0458 20.3541 34.0974 19.9227C34.1163 19.756 34.2211 19.5876 34.3208 19.4449C34.7143 18.8795 35.4585 18.8503 35.9088 19.3727C36.2095 19.7216 36.3212 20.1444 36.3436 20.5895C36.433 22.425 36.5172 24.2605 36.6031 26.0977C36.6701 27.5155 36.7389 28.9334 36.8093 30.3512C36.8179 30.542 36.8317 30.7327 36.8454 30.9476V30.9458Z" fill="#E2017A"/>
<path d="M40.7157 31.1039L38.3853 30.9046C38.399 30.6966 38.4093 30.5024 38.4248 30.3082C38.5296 29.1069 38.6379 27.9056 38.7393 26.7026C38.8424 25.4944 38.9369 24.2845 39.0452 23.0763C39.083 22.6467 39.1294 22.217 39.2119 21.7943C39.2807 21.4385 39.468 21.1292 39.7687 20.9075C40.1915 20.5981 40.7466 20.6651 41.0766 21.0725C41.4272 21.5055 41.4856 22.0194 41.4427 22.5505C41.3533 23.6435 41.2605 24.7365 41.166 25.8278C41.0628 27.036 40.9546 28.2442 40.8515 29.4541C40.8051 29.992 40.7621 30.5317 40.7157 31.1022V31.1039Z" fill="#E2017A"/>
<path d="M32.4442 31.3669C31.6811 31.446 30.9267 31.525 30.1413 31.6058C30.112 31.3789 30.0811 31.171 30.0605 30.963C29.8628 29.0605 29.6669 27.1563 29.471 25.2538C29.3868 24.4426 29.2837 23.6315 29.2373 22.8168C29.2201 22.5058 29.2802 22.1655 29.3988 21.8785C29.7219 21.0948 30.6053 20.9934 31.1363 21.6533C31.3993 21.9799 31.5196 22.3631 31.5643 22.7721C31.7636 24.6471 31.9561 26.5239 32.152 28.3989C32.2534 29.3682 32.3583 30.3357 32.4614 31.3033C32.4614 31.3153 32.4562 31.3291 32.4459 31.3669H32.4442Z" fill="#E2017A"/>
<path d="M44.8868 31.6023C44.0894 31.5164 43.3246 31.4339 42.5495 31.3497C42.6251 30.6433 42.6956 29.9697 42.7678 29.2977C42.8726 28.3301 42.9723 27.3625 43.084 26.395C43.1252 26.0426 43.1785 25.6886 43.2541 25.3432C43.2902 25.1799 43.3744 25.0218 43.4638 24.8774C43.7027 24.4993 44.0378 24.257 44.507 24.3137C44.9659 24.3704 45.2236 24.6815 45.3766 25.094C45.545 25.5477 45.4969 26.0117 45.4453 26.4757C45.3233 27.5791 45.2047 28.6824 45.0844 29.7875C45.0191 30.3804 44.9555 30.9716 44.8851 31.6023H44.8868Z" fill="#E2017A"/>
<path d="M28.5016 42.8437C28.1665 42.4227 27.864 41.9672 27.4876 41.5857C26.6558 40.7419 25.7845 39.9359 24.9303 39.1126C24.554 38.7483 24.2085 38.3633 24.0504 37.8426C23.9404 37.4765 24.0143 37.1517 24.2343 36.8527C24.7928 36.0931 25.836 35.9728 26.5544 36.5829C27.1662 37.1019 27.7832 37.6157 28.3916 38.1382C28.45 38.188 28.505 38.2808 28.505 38.3547C28.5119 39.8362 28.5102 41.3176 28.5102 42.8008C28.5102 42.818 28.5033 42.8351 28.5016 42.8437Z" fill="#E2017A"/>
</svg>
