<svg width="70" height="70" viewBox="0 0 70 70" fill="none" xmlns="http://www.w3.org/2000/svg">
<path d="M40.1692 13.9752C39.341 15.0594 38.7324 16.3282 38.4813 17.6719C38.3583 18.332 38.3183 19.0138 38.4381 19.674C38.8937 22.2033 41.2866 24.1655 43.0028 25.8883C45.271 28.1632 47.6523 31.1647 50.7902 32.1858C52.1172 32.6181 53.5589 32.5067 54.8677 31.948C56.484 31.2562 59 28.7951 59 28.7951V58.814H28.4589C29.2638 57.8445 30.3314 56.9249 31.0547 55.8973C29.9738 54.1944 17.2259 37.4738 17.2259 37.4738L12.9988 41.681L23.683 54.5703L11 44.3766L11.0516 10.9653H43.3337C43.3337 10.9653 41.0904 12.7679 40.1692 13.9752ZM37.1477 36.8719C37.1477 36.8719 39.0434 38.6479 39.8665 39.6406C40.4968 40.4006 41.137 42.3329 39.4874 42.3063C38.3233 42.2863 37.2075 40.8861 36.4609 40.1411C35.2852 38.9688 34.1078 37.7964 32.9355 36.6208C31.9211 35.6047 30.9034 34.5987 29.9323 33.5427C29.3453 32.9058 28.0798 32.0295 28.5121 31.0118C29.5914 28.4725 33.2132 33.3797 33.2132 33.3797L37.7796 28.9897C37.7796 28.9897 37.5102 28.6521 37.4087 28.5506C36.7419 27.8738 35.3367 26.748 34.3972 26.2276C33.4626 25.7104 32.2188 25.2381 31.1279 25.4144C28.8131 25.7885 26.9124 26.9991 25.3393 28.7302C24.6193 29.5218 24.0256 30.5129 23.6082 31.499C23.2174 32.4269 23.0012 33.4446 23.116 34.4457C23.2324 35.4551 23.6814 36.4046 24.2651 37.236C25.1148 38.4516 26.224 39.486 27.265 40.5336C29.006 42.2813 31.364 44.5878 32.8424 45.8133C33.471 46.3338 34.7863 47.2601 35.6377 47.5029C36.5956 47.7756 37.9059 47.7573 38.8571 47.5095C40.8476 46.994 42.8315 45.1382 44.0122 43.5069C45.281 41.7542 45.6485 39.6123 45.0581 37.5703C44.4894 35.6031 41.4679 32.6131 41.4679 32.6131L37.146 36.8719H37.1477ZM45.0415 50.1402H57.0161V48.9712H51.8245V42.8633H50.2564V48.9712H45.0415V50.1402ZM55.1271 51.6502H46.9771V52.8691H55.1271V51.6502ZM48.64 55.5597H53.2546V54.3757H48.64V55.5597Z" fill="#30328C"/>
<path d="M58.9983 19.7039L56.4973 17.4041L52.3034 21.6296C52.3034 21.6296 54.3821 23.5769 55.2668 24.6544C55.6991 25.1816 56.03 25.6322 55.7739 26.2675C55.6027 26.6915 55.295 27.0124 54.8361 27.0806C53.7934 27.2369 52.9387 26.0529 52.2918 25.4161C51.2142 24.3518 47.0603 20.1745 46.0476 19.1652C45.3225 18.4435 43.6447 17.3476 43.6447 16.2334C43.6447 14.8865 45.0016 15.0877 45.7715 15.6348C46.7859 16.3548 48.4605 18.1774 48.4605 18.1774L53.0501 13.7424L49.7459 10.9653H59V19.7023L58.9983 19.7039Z" fill="#30328C"/>
<path d="M19.7985 58.8139H11.2145L11.0782 52.4467L19.7985 58.8139Z" fill="#30328C"/>
</svg>
