<svg width="70" height="70" viewBox="0 0 70 70" fill="none" xmlns="http://www.w3.org/2000/svg">
<path d="M63.7585 33.5389C64.4228 39.4055 59.7203 44.2843 55.0033 47.0486C44.4427 53.181 29.7285 53.5652 18.6653 48.49C14.2892 46.4102 10.1296 43.2646 8.13655 38.6891C5.35488 32.2823 8.50917 25.8524 13.9916 22.1695C20.4995 17.7269 28.9052 16.4444 36.5454 17.3283C34.379 17.5998 32.2502 17.9782 30.1675 18.4722C24.2604 19.9338 18.1252 22.415 14.087 27.0685C10.0343 31.8548 11.0858 37.1495 15.8028 40.9682C24.7313 48.1578 40.1503 49.0359 50.8062 45.6245C56.5313 43.7528 62.863 40.0814 63.7556 33.5389H63.7585Z" fill="#FA6E36"/>
<path d="M31.5223 41.5979H30.468L24.4338 26.5254C24.1882 25.8957 23.9427 25.396 23.6972 25.0349C23.4517 24.6739 23.1715 24.4081 22.8537 24.2406C22.536 24.073 22.1432 23.9893 21.6694 23.9893V23.1545H28.729V23.9893C28.5009 23.9893 28.2467 24.0066 27.9636 24.0442C27.6805 24.0817 27.4408 24.1684 27.2386 24.3099C27.0364 24.4486 26.9353 24.6941 26.9353 25.0494C26.9353 25.422 27.0855 25.9881 27.383 26.7478L30.5719 35.0235L31.6003 37.9496H31.7331L32.6546 35.1622L35.9735 26.303C36.0602 26.0979 36.1324 25.8813 36.1844 25.6473C36.2364 25.4162 36.2624 25.1794 36.2624 24.9367C36.2624 24.5641 36.1208 24.3157 35.8407 24.1857C35.5605 24.0557 35.1127 23.9922 34.4975 23.9922V23.1574H40.0291V23.9922C39.6593 23.9922 39.3474 24.0326 39.0932 24.1164C38.839 24.2001 38.6108 24.3677 38.4086 24.619C38.2064 24.8703 37.9926 25.2371 37.7644 25.7195C37.5362 26.2019 37.2647 26.8345 36.947 27.6144L31.5194 41.6008L31.5223 41.5979Z" fill="#FA6E36"/>
<path d="M41.8229 41.8752H41.0054L40.7686 35.8583H41.586C41.9009 37.1408 42.2706 38.1201 42.6923 38.7989C43.1141 39.4777 43.6369 39.9427 44.2608 40.1911C44.8847 40.4425 45.6444 40.5667 46.5399 40.5667C47.2071 40.5667 47.7791 40.4685 48.2528 40.2749C48.7265 40.0814 49.0962 39.7636 49.3591 39.3275C49.622 38.8913 49.7548 38.3194 49.7548 37.6146C49.7548 36.7971 49.5382 36.1183 49.1107 35.581C48.6803 35.0438 48.1315 34.5643 47.4642 34.1454C46.797 33.7266 46.1037 33.3049 45.3816 32.8773C44.6797 32.4498 44.0037 31.9963 43.3538 31.5111C42.7039 31.0287 42.1724 30.451 41.7593 29.7837C41.3463 29.1136 41.1412 28.299 41.1412 27.3313C41.1412 26.3637 41.3694 25.526 41.8258 24.8645C42.2822 24.2059 42.8887 23.7004 43.6427 23.3451C44.3966 22.9927 45.2314 22.8165 46.1441 22.8165C46.9529 22.8165 47.5769 22.8859 48.0159 23.0245C48.455 23.1632 48.8016 23.3076 49.0558 23.4578C49.31 23.608 49.544 23.6802 49.7548 23.6802C49.9657 23.6802 50.1361 23.6195 50.269 23.4982C50.4019 23.3769 50.5001 23.1689 50.5723 22.8714H51.2569L51.4417 28.4434H50.6503C50.2805 26.9009 49.7895 25.76 49.1742 25.0176C48.559 24.2752 47.5855 23.9113 46.251 23.9315C45.3556 23.9315 44.6623 24.151 44.1684 24.5872C43.6773 25.0234 43.4318 25.6791 43.4318 26.5514C43.4318 27.2389 43.6167 27.8282 43.9864 28.3192C44.3561 28.8132 44.8385 29.2522 45.4365 29.6422C46.0344 30.0321 46.6554 30.4307 47.3082 30.8409C47.8888 31.1933 48.4723 31.5486 49.0587 31.901C49.648 32.2534 50.1823 32.652 50.6647 33.0998C51.1471 33.5446 51.5342 34.0645 51.823 34.6596C52.1119 35.2546 52.2563 35.9681 52.2563 36.8058C52.2563 37.8832 52.0223 38.7931 51.5573 39.5355C51.0922 40.2778 50.4539 40.8411 49.648 41.2195C48.8392 41.6008 47.9264 41.7914 46.9067 41.7914C45.9939 41.7914 45.2516 41.7221 44.6796 41.5834C44.1077 41.4448 43.66 41.3061 43.3365 41.1646C43.0101 41.0259 42.7443 40.9566 42.5335 40.9566C42.3573 40.9566 42.1984 41.0404 42.0597 41.2079C41.9182 41.3755 41.8402 41.5979 41.8229 41.8781V41.8752Z" fill="#FA6E36"/>
</svg>
