<?xml version="1.0" encoding="UTF-8"?><svg id="Layer_1" xmlns="http://www.w3.org/2000/svg" viewBox="0 0 206 203"><path d="M33.21,41.99v74.45c.18-.05.37-.08.57-.08h138.15V41.99H33.21ZM144.84,85.88v16.81H54.19v-46.16h97.63v3.91h-7.84v4h7.84v1.97h-7.84v4h7.84v1.96h-7.84v4h7.84v1.97h-7.84v4h7.84v3.66l-6.98-.12Z" style="fill:#fff; stroke-width:0px;"/><polygon points="60.53 70.79 68.1 70.58 68.1 62.23 60.53 62.44 60.53 70.79" style="fill:#fff; stroke-width:0px;"/><rect x="77.01" y="68.2" width="16.69" height="16.89" style="fill:#fff; stroke-width:0px;"/><rect x="102.57" y="68.41" width="16.69" height="8.34" style="fill:#fff; stroke-width:0px;"/><rect x="112.89" y="87.06" width="7.56" height="8.35" style="fill:#fff; stroke-width:0px;"/><rect x="127.72" y="87.06" width="7.57" height="8.35" style="fill:#fff; stroke-width:0px;"/><path d="M110.92,132.13v20.88h20.58v7.27h-55.61v-7.27h19.65v-20.88h-62.33v-11.85c.18.05.37.08.57.08h138.15v11.77h-61.01Z" style="fill:#fff; stroke-width:0px;"/><polygon points="60.53 62.44 68.1 62.23 68.1 70.58 60.53 70.79 60.53 62.44" style="fill:#fff; fill-rule:evenodd; stroke-width:0px;"/><rect x="77.01" y="68.2" width="16.69" height="16.89" style="fill:#fff; stroke-width:0px;"/><rect x="102.57" y="68.41" width="16.69" height="8.34" style="fill:#fff; stroke-width:0px;"/><rect x="112.89" y="87.06" width="7.56" height="8.35" style="fill:#fff; stroke-width:0px;"/><rect x="127.72" y="87.06" width="7.57" height="8.35" style="fill:#fff; stroke-width:0px;"/><rect x="77.01" y="68.2" width="16.69" height="16.89" style="fill:#fff; stroke-width:0px;"/><rect x="102.57" y="68.41" width="16.69" height="8.34" style="fill:#fff; stroke-width:0px;"/><rect x="127.72" y="87.06" width="7.57" height="8.35" style="fill:#fff; stroke-width:0px;"/><rect x="112.89" y="87.06" width="7.56" height="8.35" style="fill:#fff; stroke-width:0px;"/><polygon points="68.1 62.23 68.1 70.58 60.53 70.79 60.53 62.44 68.1 62.23" style="fill:#fff; fill-rule:evenodd; stroke-width:0px;"/></svg>