<svg width="70" height="70" viewBox="0 0 70 70" fill="none" xmlns="http://www.w3.org/2000/svg">
<g clip-path="url(#clip0_43_30)">
<path fill-rule="evenodd" clip-rule="evenodd" d="M54.0844 4.6275C52.406 4.36706 51.6537 4.25131 51.3353 4.22237C51.017 4.1645 50.1778 4.22237 49.4544 4.36706C48.731 4.51175 47.4577 4.97475 46.5896 5.40881C45.7215 5.87182 44.4482 6.85569 43.7537 7.66595C42.8856 8.62089 42.3068 9.6337 42.0174 10.7044C41.7281 11.7461 41.6413 12.7879 41.757 13.7428C41.8438 14.5242 41.9885 15.5948 42.1043 16.0578C42.1911 16.5208 42.5383 17.5626 42.9145 18.3729C43.2907 19.1542 44.4771 21.1798 45.5768 22.8292C46.6764 24.4787 48.239 26.8805 49.0782 28.1827C49.9174 29.4849 51.017 31.1054 51.509 31.8288C51.6127 31.9814 51.7435 32.1726 51.8929 32.391C52.4519 33.2081 53.2714 34.4063 53.9108 35.3881C54.1616 35.7823 54.4263 36.1959 54.6826 36.5963C55.2541 37.4892 55.7835 38.3164 56.0232 38.716C56.4573 39.4105 56.6888 40.2497 56.6888 41.0889C56.6888 42.0438 56.5152 42.5647 56.0232 43.0277L55.3866 43.6354C56.7467 43.8669 58.1067 43.8958 59.2932 43.8669C61.232 43.8379 61.6661 43.7222 63.1708 42.8251C64.1258 42.2464 65.2833 41.2335 65.8331 40.5101C66.3539 39.7867 67.0195 38.4266 67.2799 37.4717C67.6272 36.2273 67.714 35.1566 67.5983 33.7098C67.5115 32.6101 67.2221 31.1054 66.9616 30.3819C66.7012 29.6585 65.6884 27.8354 64.7045 26.3307C63.6917 24.8259 61.0584 20.8615 58.8302 17.5047C56.602 14.148 54.3738 10.7044 53.8529 9.83626C53.332 8.91026 52.9269 7.81063 52.9269 7.23188C52.9269 6.65313 53.1584 5.90075 53.5057 5.40881L54.0844 4.6275ZM18.2018 4.6275H8.01086e-05L1.4759 7.02932C2.28615 8.33151 3.29896 9.92308 3.70409 10.5308C3.78511 10.6523 3.86961 10.7785 3.9541 10.9046C4.2921 11.4093 4.63009 11.914 4.74584 12.1223C4.91947 12.3538 6.0191 14.0901 7.20554 15.971L7.25582 16.0495C8.44533 17.9063 10.3173 20.8283 11.4015 22.5688C12.5301 24.334 14.3531 27.1988 15.4527 28.9351C16.5813 30.6713 17.7099 32.4655 17.9703 32.8995C18.1122 33.1124 18.4211 33.6105 18.8117 34.2403C19.2176 34.895 19.7118 35.6919 20.1985 36.4588C21.1245 37.9636 22.0216 39.3237 22.1663 39.4973C22.311 39.6709 22.9765 40.7416 23.6421 41.8991L24.8575 43.9826H35.275V29.9479C33.9461 27.9735 32.8608 26.3534 31.9657 25.0174C30.8143 23.2986 29.9778 22.05 29.3428 21.1219C28.2432 19.4435 27.0857 17.823 26.8252 17.5047C26.5648 17.1864 25.5809 15.7395 24.6549 14.2927C23.7289 12.8747 22.6582 11.2831 22.2531 10.7912C21.848 10.2993 20.7773 8.7077 19.8802 7.26082L18.2018 4.6275ZM35.275 4.6275H25.3783L25.6098 5.26413C25.7256 5.61138 26.1886 6.45057 26.6516 7.08719C27.1146 7.72382 28.4747 9.80733 29.69 11.7172C30.7071 13.3544 32.107 15.5233 33.0146 16.9295C33.1657 17.1637 33.3032 17.3767 33.423 17.5626C34.2911 18.8648 35.0435 19.9644 35.1303 19.9644C35.2171 19.9644 35.275 16.4919 35.275 12.296V4.6275ZM66.5276 13.1641V4.6275C57.0939 4.6275 54.3738 4.68537 54.3738 4.77219C54.3738 4.859 54.9236 5.69819 55.5892 6.68207C55.9331 7.17557 56.5399 8.03232 57.2256 9.00068C57.8668 9.90611 58.5771 10.9091 59.2064 11.804C60.5086 13.685 62.5631 16.6655 63.7496 18.4597C64.9649 20.2249 66.0646 21.7007 66.2382 21.7007C66.4118 21.7007 66.5276 18.6622 66.5276 13.1641ZM48.0075 34.2306C45.2006 30.0347 42.7988 26.6201 42.6541 26.6201C42.5094 26.6201 42.4804 27.4593 42.5962 28.5878C42.683 29.6585 42.7698 33.5651 42.7698 37.2402L42.7988 43.9826C51.7694 43.9826 54.3738 43.8958 54.4027 43.7511C54.4027 43.6354 54.1712 43.2013 53.9108 42.8251C53.6214 42.42 53.3031 42.0438 53.2163 41.957C53.1295 41.8702 50.7855 38.3977 48.0075 34.2306ZM13.7165 48.7573C13.0509 48.2654 12.4143 48.1786 8.82604 48.0917C5.32459 48.0339 4.57222 48.0917 3.53046 48.5837C2.8649 48.8731 2.05465 49.5097 1.73633 49.9438C1.41802 50.4068 1.0129 51.3617 0.868207 52.0851C0.694582 52.8086 0.549894 54.8921 0.549894 56.7151C0.549894 58.7697 0.694582 60.6507 0.983958 61.6345C1.21546 62.5027 1.64952 63.4576 1.90996 63.747C2.19934 64.0364 3.00959 64.4994 3.73303 64.7598C4.68797 65.136 5.90335 65.2517 8.50773 65.2517C11.4594 65.2228 12.1828 65.136 13.3403 64.5862C14.3821 64.0942 14.8161 63.6891 15.1923 62.8499C15.4527 62.2712 15.7421 61.0268 15.8289 60.1008L16.0315 58.4514H11.8356C11.5172 60.6796 11.1989 61.403 10.8227 61.7213C10.3597 62.1265 9.78098 62.2133 7.95791 62.1554C6.07697 62.0686 5.64291 61.9818 5.29566 61.4898C5.06416 61.1715 4.80372 60.1877 4.68797 59.3195C4.60116 58.4514 4.57222 56.5415 4.63009 55.0946C4.71691 52.9243 4.83266 52.3166 5.32459 51.8247C5.64291 51.4774 6.42422 51.1302 7.06085 51.0434C7.69748 50.9566 8.73923 50.9566 9.37586 51.0434C10.0125 51.1591 10.707 51.3617 10.9674 51.5064C11.1989 51.6511 11.4594 52.2877 11.5462 52.8664L11.6909 53.9661L16.0315 54.1397C15.6842 51.5353 15.337 50.4646 15.0476 50.0595C14.7293 49.6544 14.1506 49.0756 13.7165 48.7573ZM34.8409 48.6994C33.7992 48.1496 33.2204 48.0628 29.4875 48.0628C26.7673 48.0628 24.9153 48.1786 24.2787 48.4101C23.7289 48.6126 22.9765 49.1624 22.6003 49.6254C22.2241 50.1174 21.819 51.0723 21.6743 51.7958C21.5296 52.5192 21.385 54.6606 21.385 56.5705C21.385 58.4803 21.5007 60.6217 21.6454 61.3452C21.7901 62.0686 22.1663 62.9657 22.4556 63.3708C22.774 63.8049 23.7578 64.3547 24.8575 64.7598C26.478 65.3385 27.1725 65.3964 29.9215 65.3096C32.4102 65.2228 33.3651 65.0781 34.4069 64.5862C35.1014 64.2389 35.9695 63.5444 36.3167 63.0235C36.664 62.5027 37.0981 61.2873 37.2717 60.3323C37.4453 59.3774 37.59 57.6701 37.59 56.5705C37.59 55.4708 37.4453 53.8214 37.2717 52.9533C37.127 52.0851 36.7508 50.8987 36.4904 50.3489C36.201 49.7701 35.5065 49.0756 34.8409 48.6994ZM47.8628 48.1786L43.9563 48.0049V65.107H48.0075C48.0075 56.0206 48.1522 53.5899 48.3837 52.9533C48.6152 52.2588 49.0493 51.7668 49.7438 51.4196C50.4672 51.0434 51.1328 50.9276 52.2035 51.0434C52.9848 51.1013 53.824 51.3906 54.0844 51.6511C54.4317 52.0273 54.5185 53.3005 54.5764 58.5961L54.6632 65.107H59.0038C59.0038 56.1364 59.1195 53.2137 59.2932 52.8086C59.4379 52.4034 59.9298 51.8536 60.3639 51.5643C60.8558 51.2459 61.695 51.0723 62.7946 51.0723C64.01 51.0723 64.6177 51.217 64.9939 51.5932C65.4279 52.0562 65.5148 52.8664 65.6594 58.5382L65.8041 64.9624L70.0001 65.107C69.8554 52.0562 69.7686 50.9276 69.3345 50.1174C69.0451 49.6254 68.4664 48.9309 68.0323 48.6126C67.3668 48.0917 66.817 48.0049 64.4151 48.0339C62.621 48.0339 61.2899 48.1786 60.7979 48.439C60.3639 48.6416 59.6694 49.1914 59.2353 49.6544L58.4829 50.4936C57.991 49.4808 57.4122 48.9309 56.8914 48.6416C56.1969 48.2075 55.3287 48.0628 53.5057 48.0339C51.8273 48.0049 50.6987 48.1207 49.9463 48.439C49.3387 48.6994 48.702 49.1914 48.4995 49.5386C48.3402 49.8305 48.254 49.9886 48.1934 49.9793C48.1218 49.9684 48.0859 49.7241 48.0075 49.1914L47.8628 48.1786ZM27.2593 51.1882C26.9121 51.3329 26.3912 51.7091 26.1018 52.0853C25.6678 52.6351 25.581 53.2717 25.581 56.7442C25.581 60.535 25.6099 60.7955 26.2465 61.4032C26.7674 61.953 27.2883 62.0977 28.9956 62.1555C30.3557 62.2424 31.3106 62.1266 31.7736 61.8662C32.1498 61.6636 32.6417 61.0559 32.8732 60.535C33.1047 59.9563 33.2494 58.4515 33.2494 56.5706C33.2494 54.516 33.1047 53.2138 32.8154 52.5193C32.4681 51.738 32.1498 51.4486 31.3106 51.2171C30.7029 51.0724 29.6901 50.9278 29.0535 50.9567C28.4169 50.9567 27.6066 51.0724 27.2593 51.1882Z" fill="white"/>
</g>
<defs>
<clipPath id="clip0_43_30">
<rect width="70" height="70" fill="white"/>
</clipPath>
</defs>
</svg>
