<svg width="90" height="90" viewBox="0 0 90 90" fill="none" xmlns="http://www.w3.org/2000/svg">
<g clip-path="url(#clip0_2216_4502)">
<path d="M44.5304 44.5307L40.2012 16.2636C40.2012 16.2636 52.0433 13.9085 52.0433 25.2399C52.0433 29.6762 44.5304 44.5307 44.5304 44.5307Z" fill="#B62030"/>
<path d="M44.5305 44.5303L61.4571 21.4819C61.4571 21.4819 71.4965 28.1899 63.483 36.2023C60.3455 39.3398 44.5305 44.5303 44.5305 44.5303Z" fill="#456999"/>
<path d="M44.5305 44.5304L72.7975 40.2012C72.7975 40.2012 75.1526 52.0433 63.8212 52.0433C59.385 52.0433 44.5305 44.5304 44.5305 44.5304Z" fill="#456999"/>
<path d="M44.5305 44.5303L67.5788 61.4569C67.5788 61.4569 60.8709 71.4963 52.8585 63.4828C49.721 60.3453 44.5305 44.5303 44.5305 44.5303Z" fill="#456999"/>
<path d="M44.5304 44.5303L48.8596 72.7973C48.8596 72.7973 37.0175 75.1525 37.0175 63.8211C37.0175 59.3848 44.5304 44.5303 44.5304 44.5303Z" fill="#456999"/>
<path d="M44.5305 44.5303L27.6038 67.5787C27.6038 67.5787 17.5644 60.8707 25.5779 52.8583C28.7154 49.7208 44.5305 44.5303 44.5305 44.5303Z" fill="#B62030"/>
<path d="M44.5304 44.5305L16.2634 48.8597C16.2634 48.8597 13.9082 37.0176 25.2397 37.0176C29.6759 37.0176 44.5304 44.5305 44.5304 44.5305Z" fill="#B62030"/>
<path d="M44.5304 44.5305L21.482 27.6038C21.482 27.6038 28.19 17.5644 36.2024 25.5779C39.3399 28.7154 44.5304 44.5305 44.5304 44.5305Z" fill="#B62030"/>
</g>
<defs>
<clipPath id="clip0_2216_4502">
<rect width="56.94" height="56.94" fill="white" transform="translate(16.06 16.0601)"/>
</clipPath>
</defs>
</svg>
