<svg width="70" height="70" viewBox="0 0 70 70" fill="none" xmlns="http://www.w3.org/2000/svg">
<g clip-path="url(#clip0_40_102)">
<path d="M35.0113 8C50.9024 8.01127 63.015 20.2708 63.0038 36.3363C62.9925 51.8382 50.4634 64.015 34.546 63.9962C19.2589 63.985 6.9925 51.3498 7 35.6187C7.00751 20.3309 19.5216 7.99249 35.0113 8ZM35.9231 56.7074C47.4278 56.0311 56.227 46.3791 55.9043 35.5473C55.5666 24.197 46.0432 14.9732 34.7936 15.0972C23.8255 15.2174 14.4859 24.2721 14.4259 35.0851C15.1351 34.4314 15.7505 33.9016 16.3246 33.3306C19.9906 29.6786 23.6229 25.9929 27.3152 22.371C28.7674 20.9433 31.4015 20.7555 32.8086 21.954C34.4559 23.3591 34.9099 25.1475 33.9306 27.1238C33.5704 27.8489 32.9662 28.4764 32.3884 29.0625C27.6867 33.804 22.9662 38.5229 18.2495 43.2494C17.8368 43.6627 17.4315 44.0835 17.015 44.493C16.1557 45.3271 16.7336 46.0823 17.2664 46.6759C18.0094 47.5025 18.4221 46.5481 18.8349 46.1612C19.9343 45.1355 20.9662 44.0421 22.0319 42.9864C28.197 36.8811 34.3621 30.7757 40.5385 24.6817C42.4747 22.773 45.0938 22.619 46.7448 24.2796C48.4371 25.9816 48.2645 28.4576 46.3133 30.4939C45.9081 30.9147 45.4916 31.3243 45.0788 31.7375C38.3546 38.4703 31.6266 45.1918 24.925 51.9509C24.4522 52.428 23.1839 52.9127 24.3696 53.8633C25.0976 54.4494 25.9644 54.8476 26.7711 53.8407C27.0826 53.4537 27.4765 53.1306 27.8293 52.7775C32.3696 48.2276 36.9062 43.6777 41.4465 39.1316C41.9193 38.6582 42.3659 38.1547 42.8799 37.7377C44.7298 36.2311 47.0075 36.2236 48.5722 37.6776C50.3096 39.2931 50.4747 41.4986 48.9174 43.5274C48.2083 44.4479 47.3677 45.2707 46.5422 46.0973C43.1463 49.5088 39.7392 52.909 35.9231 56.7224V56.7074Z" fill="#C32606"/>
</g>
<defs>
<clipPath id="clip0_40_102">
<rect width="56" height="56" fill="white" transform="translate(7 8)"/>
</clipPath>
</defs>
</svg>
