<svg width="90" height="90" viewBox="0 0 90 90" fill="none" xmlns="http://www.w3.org/2000/svg">
<path d="M14.7807 25.9549V51.2101L20.1267 42.2496L20.976 42.0982C28.7185 41.1304 26.8684 46.3908 31.1676 50.5583V25.9549H37.0732V33.0785C42.8011 26.7515 50.3526 25.3228 58.7074 25.9549V42.1443H75.1009V25.9549H81V63.5151H75.1009V47.3257H58.7074V63.5151C50.379 64.2064 42.8208 62.5802 37.0798 56.3915V63.5151L31.6022 63.4098L23.6227 47.9643C22.5495 47.8063 22.3191 48.7807 21.8648 49.4654C20.5283 51.4669 15.9921 63.0016 15.3337 63.4098L9.54004 63.5151V25.9549H14.7873H14.7807ZM53.4602 31.1363C33.3271 33.1772 35.1903 54.7126 53.4602 58.3337V31.1363Z" fill="white"/>
</svg>
