<svg width="70" height="70" viewBox="0 0 70 70" fill="none" xmlns="http://www.w3.org/2000/svg">
<path d="M12.8694 26.5143C14.0413 24.4048 15.0893 22.5189 16.2558 20.4149C17.4278 22.5567 18.4623 24.4479 19.5803 26.49C20.4829 24.5179 21.283 22.7479 22.1262 20.9995C22.1693 20.9106 22.6085 21.013 23.2093 21.0426C21.3369 25.275 19.5453 29.3215 17.6029 33.7101C16.307 31.3663 15.1782 29.3188 13.9201 27.0477C12.7051 29.2595 11.5843 31.2989 10.2804 33.6724C8.47266 29.3188 6.78078 25.2427 5 20.9618C6.8212 20.9618 8.46189 20.9187 10.0945 20.9995C10.3908 21.013 10.7734 21.4871 10.927 21.832C11.5789 23.2895 12.1582 24.7793 12.8694 26.5143Z" fill="white"/>
<path d="M47.7146 49.9635C46.2086 49.7642 44.8454 49.5702 43.4741 49.4166C43.2505 49.3924 42.9945 49.5163 42.7763 49.6187C41.1114 50.4026 39.5165 50.0982 38.2718 48.7404C35.8849 46.1352 37.0945 41.6604 40.446 41.0111C41.4185 40.8225 42.4988 41.2078 43.633 41.3398V39.0687H47.7146V49.9635ZM41.7499 41.9621V49.0529C43.0673 48.4252 43.7974 47.7247 43.6384 46.3723C43.5603 45.7096 43.5522 45.0226 43.6384 44.3625C43.8243 42.9562 43.0646 42.3474 41.7499 41.9594V41.9621Z" fill="white"/>
<path d="M25.087 41.2293H29.4487V48.7108C30.7177 48.4818 31.4019 48.0669 31.3508 46.7791C31.2753 44.9552 31.3319 43.1259 31.3319 41.232H35.5023V49.7803C34.2819 49.7803 32.8648 50.1575 31.8519 49.6779C30.7473 49.1553 29.9956 49.6456 29.085 49.7399C26.4906 50.0066 24.9065 49.3277 25.0709 46.3965C25.1652 44.7074 25.087 43.0074 25.087 41.2293Z" fill="white"/>
<path d="M40.6264 20.5415C42.9164 24.526 45.1336 28.3866 47.5152 32.5328C45.3438 32.5328 43.4498 32.5382 41.5559 32.5247C41.3942 32.5247 41.1329 32.4466 41.0871 32.3335C40.4405 30.7278 39.045 31.2289 37.8704 31.2046C36.4937 31.175 34.9312 30.7709 34.2711 32.6217C34.2388 32.7079 34.0556 32.7672 33.9344 32.7888C33.8104 32.8103 33.6757 32.7726 33.5491 32.7618C33.4737 31.7973 38.6167 22.8638 40.6264 20.5442V20.5415ZM35.6828 30.3318H39.9448C39.2525 29.0736 38.6274 27.9394 37.9 26.6166C37.1107 27.9394 36.4533 29.0386 35.6828 30.3318Z" fill="white"/>
<path d="M15.7547 40.5693C15.4826 40.5262 15.1863 40.5369 14.9438 40.4292C14.5801 40.2702 14.273 39.9281 13.9012 39.8446C13.3705 39.726 12.802 39.7691 12.2471 39.7422C12.4276 40.2406 12.4949 40.8252 12.8074 41.2185C13.6722 42.3042 14.6798 43.2741 15.5527 44.3544C17.5059 46.7764 16.6222 49.1607 13.5779 49.8557C11.8429 50.2518 10.1969 50.1332 8.71512 49.0906C8.32448 48.8158 8.05777 48.3659 7.83685 47.8379C9.46138 47.7624 10.442 49.9662 12.4814 48.867C11.8537 48.0911 11.2826 47.388 10.7168 46.6767C9.91129 45.6638 8.96298 44.7289 8.34334 43.6109C7.30073 41.7304 8.02005 39.7718 10.0918 39.2249C11.4846 38.8558 13.0526 39.0202 14.5262 39.1414C15.0354 39.1845 15.4961 39.8149 15.9783 40.1786L15.7547 40.572V40.5693Z" fill="white"/>
<path d="M32.8298 28.2169H27.35C27.35 29.0494 27.3392 29.7579 27.35 30.4638C27.377 32.0183 27.8646 32.3954 29.2332 31.7085C30.0468 31.299 30.6853 30.5581 31.445 30.0247C31.7279 29.8253 32.1293 29.7957 32.4742 29.6879C32.4472 30.0543 32.5415 30.4988 32.3691 30.7763C31.2753 32.5544 27.9239 33.3303 25.8117 32.3443C23.6053 31.3151 22.533 28.6049 23.3655 26.1614C24.1818 23.7663 26.5553 22.4004 29.0015 22.9177C31.5501 23.4565 33.0211 25.442 32.8244 28.2196L32.8298 28.2169ZM29.0769 27.3575C29.0769 26.4146 29.1685 25.566 29.0365 24.7497C28.9719 24.3509 28.4923 24.0223 28.2014 23.6612C27.9239 23.9953 27.4551 24.3024 27.4039 24.6661C27.2854 25.5282 27.3662 26.4173 27.3662 27.3575H29.0769Z" fill="white"/>
<path d="M58.1838 24.0707L56.869 23.699L56.8044 23.3487L62.7583 20V22.9446C63.4749 23.1036 64.0353 23.2275 64.5957 23.3541C64.5768 23.505 64.5579 23.6532 64.5391 23.804L62.8661 23.998V31.3232C63.6042 30.5581 64.1377 30.0058 64.6684 29.4562L64.9782 29.6744C64.9782 29.9304 65.0348 30.1998 64.9701 30.4368C64.5876 31.8405 62.6856 32.7753 60.7512 32.5355C59.1725 32.3389 58.2349 31.3825 58.1945 29.7822C58.146 27.9071 58.1838 26.0266 58.1838 24.0707Z" fill="white"/>
<path d="M56.7694 29.2919C56.9122 31.2181 54.9913 32.6972 52.7363 32.8103C49.6678 32.9639 47.4398 30.9945 47.3832 28.0795C47.3213 24.887 49.3445 22.8207 52.5073 22.8422C54.8081 22.8584 56.3491 23.8983 56.3033 25.6117C55.9531 25.4501 55.6406 25.3666 55.4035 25.1834C55.0883 24.9409 54.8808 24.526 54.5414 24.3563C53.9595 24.0627 53.3075 23.9037 52.6879 23.6882C52.5262 24.3051 52.2433 24.9194 52.2218 25.5417C52.1598 27.3333 52.2218 29.1302 52.1921 30.9245C52.1733 31.9725 52.6771 32.2715 53.5149 31.8162C54.2827 31.3986 54.9482 30.7871 55.6486 30.2456C55.9665 30.0004 56.2629 29.7256 56.7694 29.2919Z" fill="white"/>
<path d="M18.5485 42.2046C17.9693 41.9729 17.611 41.8274 17.0883 41.6173C18.1094 40.9249 18.888 40.3214 19.7366 39.8446C20.6229 39.3462 21.574 38.9663 22.6516 38.4652V40.9383C23.3224 41.135 23.8558 41.294 24.3866 41.4502L24.3004 41.8516C23.7993 41.919 23.2982 41.9863 22.8267 42.0483V48.4144L23.1284 48.5114C23.3844 48.1261 23.6053 47.7113 23.9124 47.3718C24.0552 47.2128 24.365 47.2075 24.5994 47.132C24.656 47.3718 24.8015 47.6277 24.7557 47.846C24.5105 48.9775 22.9452 49.8261 21.2641 49.7776C19.7231 49.7318 18.6697 49.0367 18.5835 47.7193C18.4623 45.8954 18.5539 44.0581 18.5539 42.2019L18.5485 42.2046Z" fill="white"/>
<path d="M55.4223 45.4428C55.4142 42.8377 57.2732 40.9222 59.8406 40.8926C62.47 40.8629 64.4125 42.7838 64.4313 45.4401C64.4502 48.1073 62.5482 50.0497 59.916 50.0524C57.2624 50.0524 55.4331 48.1773 55.4223 45.4428ZM59.943 49.1364C61.9851 49.1364 63.5665 47.5523 63.58 45.5075C63.5962 43.5004 61.9959 41.8409 59.943 41.8058V49.1364Z" fill="white"/>
<path d="M53.9352 49.7183H49.8483V41.2697H53.9352V49.7183Z" fill="white"/>
<path d="M51.753 40.941C51.4027 40.871 50.9016 40.8952 50.5622 40.6716C50.2173 40.4453 49.8617 39.99 49.8321 39.6075C49.8078 39.3138 50.2389 38.7723 50.5433 38.7077C51.3031 38.5433 52.1355 38.4598 52.8872 38.6026C53.3021 38.6834 53.8974 39.295 53.8948 39.6614C53.8894 40.0385 53.3021 40.475 52.8818 40.7578C52.6205 40.9357 52.2002 40.8791 51.753 40.941Z" fill="white"/>
</svg>
