<svg width="90" height="90" viewBox="0 0 90 90" fill="none" xmlns="http://www.w3.org/2000/svg">
<path d="M25.9164 31.6745H36.3677C37.4567 31.6745 37.9799 32.0988 38.8144 33.117C39.1113 33.4847 39.8043 34.3192 40.6246 35.3374L44.7401 30.2885C43.3258 28.549 42.2793 27.2762 42.2793 27.2762C41.2469 26.0175 40.1296 25.1831 38.0789 25.1831H25.9022C24.2193 25.1831 22.4798 26.2862 22.4798 28.45C22.4798 30.6138 24.191 31.6887 25.9022 31.6887L25.9164 31.6745Z" fill="white"/>
<path d="M63.5771 58.4891H53.1258C52.0368 58.4891 51.4994 58.0648 50.665 57.0465C50.368 56.6788 49.6892 55.8444 48.8548 54.812L44.7252 59.8609C46.1394 61.6004 47.186 62.8874 47.186 62.8874C48.2184 64.1461 49.3356 64.9805 51.3863 64.9805H63.563C65.2459 64.9805 66.9855 63.8774 66.9855 61.7135C66.9855 59.5497 65.2742 58.4891 63.563 58.4891H63.5771Z" fill="#EF7800"/>
<path d="M42.6749 47.2317C41.9536 46.4115 41.6142 45.7326 41.6142 45.0821C41.6142 44.4315 41.9678 43.7244 42.6749 42.9324C42.7456 42.8475 49.4916 34.5459 50.6654 33.1175C51.4998 32.0993 52.0231 31.675 53.1262 31.675H63.5775C65.2887 31.675 67 30.6143 67 28.4363C67 26.2584 65.2605 25.1694 63.5775 25.1694H51.4008C49.336 25.1694 48.2329 26.0038 47.2005 27.2625C47.2005 27.2625 37.824 38.8169 36.8199 39.9059C35.5329 41.306 34.8965 41.801 32.6337 41.801H25.9161C24.2331 41.801 22.4936 42.9041 22.4936 45.0962C22.4936 47.2883 24.2048 48.349 25.9161 48.349H32.6337C34.8824 48.349 35.5329 48.844 36.8199 50.2441C37.2018 50.6683 38.7999 52.6059 40.6384 54.8404L44.768 49.7774C43.5942 48.349 42.7173 47.26 42.6891 47.2176L42.6749 47.2317Z" fill="#EF7800"/>
<path d="M63.5778 41.8146H56.8602C54.6115 41.8146 53.961 41.3197 52.674 39.9196C52.2921 39.5094 50.6941 37.5578 48.8555 35.3232L44.7259 40.3863C45.8997 41.8288 46.7766 42.9036 46.7907 42.9319C47.4978 43.7239 47.8514 44.4593 47.8514 45.0816C47.8514 45.7038 47.5261 46.411 46.7907 47.2312C46.72 47.3161 39.974 55.6177 38.8002 57.0461C37.9658 58.0644 37.4425 58.4886 36.3535 58.4886H25.9022C24.191 58.4886 22.4798 59.5493 22.4798 61.7131C22.4798 63.8769 24.2193 64.98 25.9022 64.98H38.0789C40.1296 64.98 41.2469 64.1456 42.2793 62.887C42.2793 62.887 51.6699 51.3325 52.6599 50.2436C53.9468 48.8435 54.5974 48.3485 56.846 48.3485H63.5637C65.275 48.3485 66.9862 47.2878 66.9862 45.0957C66.9862 42.9036 65.2467 41.8005 63.5637 41.8005L63.5778 41.8146Z" fill="white"/>
</svg>
