<svg width="90" height="90" viewBox="0 0 90 90" fill="none" xmlns="http://www.w3.org/2000/svg">
<path d="M28.2298 37.8966L24.2353 50.7021H22.6804L19.4366 40.9349C19.4068 40.8396 19.377 40.7383 19.3472 40.6311C19.3234 40.5238 19.2966 40.4107 19.2668 40.2915C19.237 40.4107 19.2072 40.5238 19.1774 40.6311C19.1477 40.7383 19.1179 40.8396 19.0881 40.9349L15.8264 50.7021H14.2715L10.277 37.8966H11.7157C11.8706 37.8966 11.9987 37.9353 12.1 38.0128C12.2072 38.0902 12.2757 38.1885 12.3055 38.3077L14.9506 47.2081C14.9923 47.369 15.0311 47.5417 15.0668 47.7264C15.1085 47.9111 15.1472 48.1077 15.183 48.3162C15.2247 48.1077 15.2664 47.9111 15.3081 47.7264C15.3557 47.5358 15.4064 47.363 15.46 47.2081L18.4715 38.3077C18.5072 38.2064 18.5757 38.1141 18.677 38.0307C18.7843 37.9413 18.9123 37.8966 19.0613 37.8966H19.5617C19.7166 37.8966 19.8417 37.9353 19.937 38.0128C20.0323 38.0902 20.1038 38.1885 20.1515 38.3077L23.154 47.2081C23.2077 47.363 23.2553 47.5298 23.297 47.7085C23.3447 47.8873 23.3894 48.0749 23.4311 48.2715C23.4609 48.0749 23.4936 47.8873 23.5294 47.7085C23.5651 47.5298 23.6038 47.363 23.6455 47.2081L26.2996 38.3077C26.3294 38.2004 26.3949 38.1051 26.4962 38.0217C26.6034 37.9383 26.7315 37.8966 26.8804 37.8966H28.2298ZM38.0356 49.2902L38.0266 50.7021H30.136V37.8966H38.0266V39.3085H31.8696V43.5621H36.856V44.9204H31.8696V49.2902H38.0356ZM53.7748 37.8966V50.7021H52.2557V41.2924C52.2557 41.1673 52.2586 41.0332 52.2646 40.8902C52.2765 40.7473 52.2884 40.6013 52.3003 40.4524L47.9037 48.4592C47.7667 48.7273 47.5582 48.8613 47.2782 48.8613H47.028C46.748 48.8613 46.5395 48.7273 46.4025 48.4592L41.9165 40.4166C41.9523 40.7324 41.9701 41.0243 41.9701 41.2924V50.7021H40.451V37.8966H41.7289C41.8837 37.8966 42.0029 37.9115 42.0863 37.9413C42.1697 37.9711 42.2501 38.0545 42.3276 38.1915L46.751 46.0732C46.8225 46.2162 46.891 46.3651 46.9565 46.52C47.028 46.6749 47.0935 46.8328 47.1531 46.9936C47.2127 46.8328 47.2752 46.6749 47.3408 46.52C47.4063 46.3592 47.4778 46.2073 47.5552 46.0643L51.8982 38.1915C51.9697 38.0545 52.0471 37.9711 52.1306 37.9413C52.2199 37.9115 52.342 37.8966 52.4969 37.8966H53.7748ZM68.8807 44.3039C68.8807 45.263 68.7288 46.1447 68.425 46.949C68.1211 47.7473 67.6922 48.4353 67.1382 49.0132C66.5841 49.5911 65.9169 50.0409 65.1365 50.3626C64.362 50.6783 63.5041 50.8362 62.5628 50.8362C61.6216 50.8362 60.7637 50.6783 59.9892 50.3626C59.2147 50.0409 58.5505 49.5911 57.9965 49.0132C57.4424 48.4353 57.0135 47.7473 56.7096 46.949C56.4058 46.1447 56.2539 45.263 56.2539 44.3039C56.2539 43.3447 56.4058 42.466 56.7096 41.6677C57.0135 40.8634 57.4424 40.1724 57.9965 39.5945C58.5505 39.0107 59.2147 38.5579 59.9892 38.2362C60.7637 37.9145 61.6216 37.7536 62.5628 37.7536C63.5041 37.7536 64.362 37.9145 65.1365 38.2362C65.9169 38.5579 66.5841 39.0107 67.1382 39.5945C67.6922 40.1724 68.1211 40.8634 68.425 41.6677C68.7288 42.466 68.8807 43.3447 68.8807 44.3039ZM67.1024 44.3039C67.1024 43.5175 66.9952 42.8115 66.7807 42.186C66.5662 41.5604 66.2624 41.0332 65.8692 40.6043C65.476 40.1694 64.9994 39.8358 64.4394 39.6034C63.8794 39.3711 63.2539 39.2549 62.5628 39.2549C61.8777 39.2549 61.2552 39.3711 60.6952 39.6034C60.1352 39.8358 59.6556 40.1694 59.2565 40.6043C58.8633 41.0332 58.5594 41.5604 58.345 42.186C58.1305 42.8115 58.0233 43.5175 58.0233 44.3039C58.0233 45.0902 58.1305 45.7962 58.345 46.4217C58.5594 47.0413 58.8633 47.5685 59.2565 48.0034C59.6556 48.4324 60.1352 48.763 60.6952 48.9953C61.2552 49.2217 61.8777 49.3349 62.5628 49.3349C63.2539 49.3349 63.8794 49.2217 64.4394 48.9953C64.9994 48.763 65.476 48.4324 65.8692 48.0034C66.2624 47.5685 66.5662 47.0413 66.7807 46.4217C66.9952 45.7962 67.1024 45.0902 67.1024 44.3039ZM77.9113 39.8983C77.8576 39.9877 77.7981 40.0562 77.7325 40.1038C77.673 40.1456 77.5985 40.1664 77.5091 40.1664C77.4079 40.1664 77.2887 40.1158 77.1517 40.0145C77.0147 39.9132 76.8419 39.803 76.6334 39.6838C76.4308 39.5587 76.1836 39.4456 75.8917 39.3443C75.6057 39.243 75.2572 39.1924 74.8462 39.1924C74.4589 39.1924 74.1164 39.246 73.8185 39.3532C73.5266 39.4545 73.2793 39.5945 73.0768 39.7732C72.8802 39.9519 72.7313 40.1634 72.63 40.4077C72.5287 40.646 72.4781 40.9051 72.4781 41.1851C72.4781 41.5426 72.5645 41.8404 72.7372 42.0787C72.9159 42.3111 73.1483 42.5107 73.4342 42.6775C73.7262 42.8443 74.0538 42.9902 74.4172 43.1153C74.7866 43.2345 75.1619 43.3596 75.5432 43.4907C75.9304 43.6217 76.3057 43.7707 76.6691 43.9375C77.0385 44.0983 77.3662 44.3039 77.6521 44.5541C77.944 44.8043 78.1764 45.1111 78.3491 45.4745C78.5279 45.8379 78.6172 46.2847 78.6172 46.8149C78.6172 47.3749 78.5219 47.9021 78.3313 48.3966C78.1406 48.8851 77.8606 49.3111 77.4913 49.6745C77.1279 50.0379 76.6781 50.3239 76.1419 50.5324C75.6117 50.7409 75.007 50.8451 74.3279 50.8451C73.4938 50.8451 72.7372 50.6962 72.0581 50.3983C71.3789 50.0945 70.7981 49.6864 70.3155 49.1741L70.8159 48.3519C70.8636 48.2864 70.9202 48.2328 70.9857 48.1911C71.0572 48.1434 71.1347 48.1196 71.2181 48.1196C71.2955 48.1196 71.3819 48.1524 71.4772 48.2179C71.5785 48.2775 71.6917 48.3549 71.8168 48.4502C71.9419 48.5456 72.0849 48.6498 72.2457 48.763C72.4066 48.8762 72.5883 48.9804 72.7908 49.0758C72.9993 49.1711 73.2347 49.2515 73.4968 49.317C73.7589 49.3766 74.0538 49.4064 74.3815 49.4064C74.7925 49.4064 75.1589 49.3498 75.4806 49.2366C75.8023 49.1234 76.0734 48.9656 76.2938 48.763C76.5202 48.5545 76.693 48.3073 76.8121 48.0213C76.9313 47.7353 76.9908 47.4166 76.9908 47.0651C76.9908 46.6779 76.9015 46.3621 76.7228 46.1179C76.55 45.8677 76.3206 45.6592 76.0347 45.4924C75.7487 45.3256 75.4211 45.1856 75.0517 45.0724C74.6823 44.9532 74.307 44.8341 73.9257 44.7149C73.5445 44.5898 73.1691 44.4468 72.7998 44.286C72.4304 44.1251 72.1028 43.9166 71.8168 43.6604C71.5308 43.4043 71.2985 43.0856 71.1198 42.7043C70.947 42.317 70.8606 41.8404 70.8606 41.2745C70.8606 40.8217 70.947 40.3838 71.1198 39.9609C71.2985 39.5379 71.5547 39.1626 71.8883 38.8349C72.2279 38.5073 72.6419 38.2451 73.1304 38.0485C73.6249 37.8519 74.1908 37.7536 74.8283 37.7536C75.5432 37.7536 76.1925 37.8668 76.7764 38.0932C77.3662 38.3196 77.8845 38.6473 78.3313 39.0762L77.9113 39.8983Z" fill="white"/>
</svg>
