<svg width="70" height="70" viewBox="0 0 70 70" fill="none" xmlns="http://www.w3.org/2000/svg">
<path d="M49.0857 48.8811L54.9982 22H48.673L46.1059 34.4566C45.7716 36.0682 45.4521 37.7369 45.1369 39.4614L44.6954 41.9647L44.2238 44.4675H44.0864L43.5614 41.9647L43.0365 39.4614C42.8157 38.4882 42.4361 36.8268 41.9038 34.4829L39.0319 22H30.9638L28.0925 34.4829C27.6136 36.5472 27.237 38.2048 26.9598 39.4614L26.4349 41.9647L25.8829 44.4675H25.7726L25.304 41.9647L24.86 39.4614C24.5485 37.6799 24.2333 36.0118 23.9211 34.4566L21.3804 22H15L20.8824 48.8811H30.3585L33.009 36.8471C33.4696 34.746 33.8002 33.1724 34.005 32.1225L34.4735 29.732L34.9439 27.3703H35.1352L35.6056 29.732L36.0741 32.0949C36.2949 33.1822 36.6371 34.765 37.0971 36.8471L39.7476 48.8811H49.0857Z" fill="#C90130"/>
</svg>
