<svg width="90" height="90" viewBox="0 0 90 90" fill="none" xmlns="http://www.w3.org/2000/svg">
<path d="M62.4616 26.3116H71.1094C72.109 26.3238 73.0642 26.7263 73.771 27.4332C74.4779 28.1401 74.8804 29.0952 74.8927 30.0948V38.7401C74.8918 39.4786 74.6737 40.2004 74.2655 40.8158C73.8574 41.4312 73.2772 41.9129 72.5972 42.2009C71.9173 42.489 71.1677 42.5706 70.4417 42.4357C69.7156 42.3007 69.0454 41.9552 68.5143 41.4421L59.8665 32.7943C59.3189 32.2773 58.9394 31.6075 58.7775 30.872C58.6156 30.1365 58.6786 29.3692 58.9585 28.67C59.2384 27.9708 59.7222 27.372 60.3469 26.9514C60.9717 26.5308 61.7085 26.3079 62.4616 26.3116Z" fill="#5DA7FB"/>
<path d="M43.4382 47.1716H37.2786C36.4114 47.1772 35.5516 47.0106 34.7493 46.6813C33.947 46.352 33.218 45.8666 32.6048 45.2534C31.9915 44.6401 31.5062 43.9112 31.1769 43.1088C30.8476 42.3065 30.6809 41.4468 30.6865 40.5795V30.0948C30.6743 29.0948 30.2714 28.1392 29.564 27.4323C28.8566 26.7254 27.9008 26.3231 26.9008 26.3115H18.2555C17.517 26.3124 16.7952 26.5305 16.1798 26.9387C15.5644 27.3468 15.0827 27.927 14.7947 28.6069C14.5067 29.2869 14.425 30.0365 14.5599 30.7625C14.6949 31.4885 15.0404 32.1588 15.5535 32.6899L18.9117 36.0406L23.4506 40.5795L23.5575 40.6864L24.3032 41.4321L36.518 53.5375L37.5993 54.6188L37.9224 54.942L42.4613 59.4809L45.1633 62.2922C45.6879 62.8225 46.3595 63.1832 47.0913 63.3278C47.8231 63.4724 48.5815 63.3941 49.2683 63.1031C49.9552 62.8122 50.5389 62.3219 50.9442 61.6957C51.3495 61.0694 51.5576 60.336 51.5416 59.5902V50.9549C51.5294 49.9553 51.1269 49.0001 50.42 48.2933C49.7132 47.5864 48.758 47.1839 47.7584 47.1716H43.4382Z" fill="#FC1859"/>
<path d="M66.7839 47.1716H60.6243C59.7571 47.1772 58.8973 47.0106 58.095 46.6813C57.2927 46.352 56.5638 45.8666 55.9505 45.2534C55.3372 44.6401 54.8519 43.9112 54.5226 43.1088C54.1933 42.3065 54.0266 41.4468 54.0322 40.5795V30.0948C54.02 29.0948 53.6171 28.1392 52.9097 27.4323C52.2023 26.7254 51.2465 26.3231 50.2465 26.3115H41.6012C40.8627 26.3124 40.1409 26.5305 39.5255 26.9387C38.9101 27.3468 38.4284 27.927 38.1404 28.6069C37.8524 29.2869 37.7707 30.0365 37.9056 30.7625C38.0406 31.4885 38.3861 32.1588 38.8992 32.6899L42.2574 36.0406L46.7963 40.5795L46.9032 40.6864L47.6489 41.4321L59.8662 53.6544L60.9475 54.7357L61.2706 55.0588L65.8095 59.5977L68.6209 62.409C69.1455 62.9393 69.8171 63.3001 70.5489 63.4446C71.2807 63.5892 72.039 63.5109 72.7259 63.22C73.4127 62.929 73.9965 62.4387 74.4018 61.8125C74.807 61.1862 75.0151 60.4528 74.9992 59.7071V51.0642C74.9869 50.0647 74.5844 49.1095 73.8776 48.4026C73.1707 47.6958 72.2155 47.2932 71.216 47.281H66.7839V47.1716Z" fill="#995DFF"/>
</svg>
