<svg width="70" height="70" viewBox="0 0 70 70" fill="none" xmlns="http://www.w3.org/2000/svg">
<g clip-path="url(#clip0_40_50)">
<path d="M23.052 32.267C22.8801 32.8712 22.7026 33.4755 22.5362 34.0812C22.0597 35.8048 21.5887 37.5297 21.1135 39.2533C20.9807 39.7333 20.6998 39.9943 20.3168 40.0013C19.938 40.0083 19.6417 39.7571 19.5076 39.277C18.7626 36.5989 18.0233 33.9179 17.2811 31.2384C17.1917 30.916 17.0897 30.5978 17.0058 30.2741C16.8702 29.7507 17.0952 29.3181 17.5537 29.2009C18.0624 29.0711 18.4496 29.3041 18.5893 29.8554C19.1665 32.1372 19.7354 34.4217 20.3685 36.7245C20.4775 36.3463 20.5879 35.968 20.6942 35.5898C21.2323 33.657 21.7661 31.7227 22.307 29.7898C22.4356 29.332 22.6942 29.1143 23.0687 29.1087C23.4713 29.1032 23.741 29.3167 23.8724 29.787C24.4929 32.0088 25.1065 34.2319 25.7201 36.4551C25.7452 36.5458 25.7648 36.6323 25.8501 36.737C26.089 35.7936 26.3252 34.8739 26.5559 33.9528C26.8941 32.5977 27.2253 31.2426 27.5622 29.8875C27.6796 29.4144 28.0024 29.1422 28.4119 29.1618C28.8047 29.1799 29.1205 29.4479 29.2002 29.8275C29.2477 30.0564 29.1485 30.2601 29.0912 30.4708C28.2777 33.4169 27.4629 36.3644 26.6453 39.3105C26.5237 39.7487 26.2442 39.9943 25.8822 40.0013C25.502 40.0083 25.2183 39.771 25.0869 39.3077C24.4287 36.9645 23.7732 34.6199 23.1177 32.2767C23.0967 32.2739 23.0743 32.2711 23.0534 32.2684L23.052 32.267Z" fill="white"/>
<path d="M44.9249 35.1267C44.9249 36.4036 44.9249 37.682 44.9249 38.9589C44.9249 39.633 44.6454 39.9945 44.1227 40C43.586 40.0056 43.3037 39.6414 43.3037 38.9436C43.3037 36.3534 43.2981 33.7632 43.3107 31.1744C43.3121 30.852 43.2254 30.7641 42.9081 30.7752C42.187 30.799 41.4658 30.7892 40.7446 30.7808C40.2498 30.7752 39.9521 30.5575 39.8543 30.1626C39.7439 29.7132 40.0094 29.2861 40.4637 29.1954C40.5769 29.1731 40.6929 29.1619 40.8089 29.1619C43.0074 29.1605 45.2073 29.1605 47.4057 29.1619C47.9886 29.1619 48.2653 29.3503 48.3729 29.8081C48.4735 30.2421 48.2136 30.672 47.7691 30.7389C47.0773 30.8436 46.3771 30.7696 45.6797 30.7808C44.9249 30.792 44.9249 30.7836 44.9249 31.54V35.1281V35.1267Z" fill="white"/>
<path d="M7.06301 33.4981C8.71362 33.4981 10.3642 33.4981 12.0148 33.4981C12.4621 33.4981 12.8101 33.6683 13.0016 34.0786C13.1651 34.4289 13.1344 34.7778 12.9051 35.0974C12.6647 35.4324 12.3181 35.5203 11.9268 35.5203C10.0442 35.5175 8.16016 35.5203 6.27754 35.5203C4.88269 35.5203 3.48785 35.5245 2.09301 35.5189C1.57588 35.5175 1.22228 35.2705 1.06994 34.8364C0.927377 34.4289 1.03779 34.0214 1.36763 33.7381C1.59265 33.5455 1.8582 33.4967 2.14612 33.4981C3.78555 33.5023 5.42498 33.4995 7.06301 33.4995V33.4981Z" fill="#0682BB"/>
<path d="M7.06155 37.8451C8.71356 37.8451 10.3642 37.8451 12.0162 37.8451C12.6591 37.8451 13.084 38.2317 13.091 38.8137C13.0979 39.4193 12.6759 39.8534 12.0371 39.8534C8.71076 39.8589 5.38438 39.8589 2.058 39.8534C1.52271 39.8534 1.12997 39.5268 1.02235 39.0425C0.927312 38.6183 1.16072 38.148 1.56464 37.9358C1.73794 37.8451 1.91964 37.8423 2.10692 37.8437C3.75893 37.8437 5.40954 37.8437 7.06155 37.8437V37.8451Z" fill="#065D83"/>
<path d="M7.04197 31.1603C5.35502 31.1603 3.66807 31.1603 1.98112 31.1603C1.54505 31.1603 1.25574 30.9286 1.08942 30.5518C0.917513 30.1652 0.999974 29.801 1.27531 29.4856C1.48076 29.2497 1.75749 29.1646 2.05659 29.1646C5.38437 29.1618 8.71214 29.159 12.0399 29.1646C12.592 29.1646 13.0085 29.5065 13.0826 29.9629C13.1636 30.4653 12.9288 30.8979 12.476 31.0961C12.2859 31.1798 12.0888 31.1617 11.8932 31.1631C10.2761 31.1659 8.65903 31.1645 7.04057 31.1645C7.04057 31.1631 7.04057 31.1617 7.04057 31.1603H7.04197Z" fill="#169FD9"/>
<path d="M67.9972 29.956C68.0041 30.2184 67.8867 30.418 67.7064 30.6008C66.5101 31.8024 65.3263 33.0166 64.1201 34.207C63.8853 34.4387 63.8671 34.5531 64.1075 34.7945C65.3123 36.0031 66.4947 37.234 67.6897 38.451C67.9566 38.7231 68.0782 39.0287 67.9468 39.3958C67.8406 39.693 67.6128 39.8619 67.2983 39.9024C67.03 39.9373 66.791 39.8605 66.6037 39.6609C65.1753 38.137 63.7455 36.613 62.3241 35.082C61.9705 34.701 61.9775 34.2796 62.3339 33.9028C63.7455 32.4109 65.1655 30.9274 66.5799 29.4383C66.8427 29.1606 67.1614 29.0978 67.4996 29.2261C67.8183 29.3476 67.9846 29.6085 67.9944 29.956H67.9972Z" fill="white"/>
<path d="M61.4171 34.4986C61.4171 36.031 61.4171 37.5619 61.4171 39.0943C61.4171 39.6344 61.097 39.9958 60.6232 40C60.1466 40.0042 59.8042 39.619 59.8042 39.0733C59.8042 36.0212 59.8042 32.9691 59.8042 29.9169C59.8042 29.3643 60.1368 28.9972 60.6274 29C61.1068 29.0042 61.4171 29.3545 61.4171 29.903C61.4171 31.4353 61.4171 32.9663 61.4171 34.4986Z" fill="white"/>
<path d="M53.7986 33.6809C54.8329 33.6809 55.8671 33.6809 56.9014 33.6809C57.5079 33.6809 57.8504 33.9796 57.849 34.4987C57.849 35.0081 57.4982 35.3179 56.8972 35.3179C54.8412 35.3207 52.7839 35.3207 50.728 35.3179C50.1424 35.3179 49.7594 34.983 49.7622 34.4945C49.7636 34.0061 50.1494 33.6823 50.7322 33.6809C51.7553 33.6809 52.7769 33.6809 53.8 33.6809H53.7986Z" fill="white"/>
<path d="M53.8084 30.7835C52.7867 30.7835 51.7637 30.7863 50.742 30.7835C50.1732 30.7807 49.895 30.5812 49.7944 30.1164C49.7021 29.695 49.9537 29.2958 50.3758 29.1981C50.4653 29.1772 50.5589 29.1618 50.6497 29.1604C52.7518 29.1577 54.8552 29.1549 56.9573 29.1604C57.5611 29.1618 57.8881 29.508 57.8476 30.0606C57.8238 30.3872 57.582 30.6719 57.2536 30.7389C57.1068 30.7682 56.9545 30.7807 56.8049 30.7807C55.8056 30.7849 54.8063 30.7821 53.8084 30.7821V30.7835Z" fill="white"/>
<path d="M34.4035 33.6809C35.4378 33.6809 36.4707 33.6809 37.5049 33.6809C38.0975 33.6809 38.4343 33.9684 38.4413 34.4708C38.4483 34.9997 38.1171 35.3165 37.5231 35.3179C35.4434 35.3221 33.3651 35.3235 31.2854 35.3179C30.6551 35.3151 30.3043 34.9202 30.3923 34.3508C30.458 33.9251 30.7669 33.6851 31.2672 33.6823C32.3127 33.6781 33.3581 33.6823 34.4035 33.6823V33.6809Z" fill="white"/>
<path d="M34.3854 29.1578C35.4448 29.1578 36.5028 29.1564 37.5622 29.1578C37.9075 29.1578 38.2052 29.261 38.3645 29.6002C38.4973 29.8821 38.4791 30.1598 38.3142 30.4263C38.1492 30.6915 37.8865 30.7794 37.5986 30.7794C35.4812 30.785 33.3637 30.7878 31.2449 30.7794C30.6887 30.7766 30.3658 30.4459 30.3742 29.9532C30.3826 29.4634 30.7152 29.1633 31.2771 29.1592C32.3127 29.1536 33.3484 29.1578 34.384 29.1578H34.3854Z" fill="white"/>
<path d="M34.4203 39.8144C33.3735 39.8144 32.3266 39.7963 31.2798 39.8214C30.6215 39.8368 30.3853 39.4167 30.3769 39.0385C30.3643 38.5417 30.7124 38.2053 31.2812 38.2039C33.3749 38.197 35.4685 38.1984 37.5622 38.2039C37.9018 38.2039 38.2065 38.3128 38.3616 38.6533C38.4972 38.9478 38.4832 39.2353 38.2931 39.5074C38.1226 39.7503 37.8794 39.8186 37.5943 39.8172C36.5363 39.8117 35.4769 39.8158 34.4189 39.8158L34.4203 39.8144Z" fill="white"/>
<path d="M53.814 39.8143C52.7672 39.8143 51.719 39.799 50.6735 39.8199C50.0306 39.8339 49.7916 39.4361 49.7693 39.03C49.7427 38.5639 50.1229 38.208 50.6568 38.2052C52.763 38.1969 54.8678 38.1983 56.9741 38.2052C57.3445 38.2052 57.6575 38.3448 57.7973 38.7258C57.9147 39.0468 57.8588 39.3371 57.6254 39.5924C57.4535 39.7808 57.2312 39.8157 56.9909 39.8157C55.9328 39.8129 54.8734 39.8157 53.8154 39.8157L53.814 39.8143Z" fill="white"/>
</g>
<defs>
<clipPath id="clip0_40_50">
<rect width="67" height="11" fill="white" transform="translate(1 29)"/>
</clipPath>
</defs>
</svg>
