<svg width="90" height="90" viewBox="0 0 90 90" fill="none" xmlns="http://www.w3.org/2000/svg">
<path d="M15.7822 75.9632C15.8267 75.7919 15.9107 75.6667 15.9947 75.5383C16.7819 74.3229 17.5707 73.1091 18.3547 71.8904C19.6656 69.8499 20.9683 67.8028 22.2792 65.7623C23.3036 64.1665 24.3395 62.5789 25.3655 60.9847C26.4113 59.3609 27.4504 57.7337 28.4913 56.1066C29.7297 54.1732 30.9649 52.2364 32.205 50.3046C32.9741 49.1057 33.7531 47.9133 34.5238 46.7161C35.4527 45.2701 36.3733 43.8175 37.3038 42.3716C38.0992 41.1331 38.9046 39.9029 39.7017 38.6661C41.2448 36.2698 42.7879 33.8736 44.3278 31.4757C44.7033 30.8911 45.0689 30.2998 45.4394 29.7136C45.4707 29.6641 45.5053 29.6147 45.5448 29.5719C45.6058 29.506 45.6667 29.5093 45.7161 29.5867C45.7968 29.7169 45.8759 29.847 45.9582 29.9771C47.0913 31.7969 48.2227 33.6167 49.3557 35.4332C50.3966 37.1015 51.444 38.7665 52.4832 40.4365C53.5355 42.1245 54.5813 43.8175 55.6287 45.5072C56.6712 47.1887 57.7104 48.8718 58.7562 50.55C59.5286 51.7901 60.3108 53.022 61.0832 54.2621C61.8556 55.5006 62.6198 56.7456 63.3905 57.9857C64.1234 59.1649 64.8596 60.3441 65.5941 61.5216C66.3483 62.7304 67.101 63.9392 67.8552 65.1497C68.5832 66.319 69.3127 67.4883 70.0407 68.6576C70.9415 70.1068 71.8407 71.5594 72.7432 73.0087C73.285 73.8782 73.8285 74.7461 74.3704 75.614C74.4362 75.7194 74.5713 75.8248 74.4922 75.9566C74.4247 76.0669 74.2765 76.0109 74.1628 76.0109C54.8283 76.0109 35.4939 76.0109 16.1594 76.0109C16.0441 76.0109 15.9239 76.0373 15.7839 75.9648L15.7822 75.9632Z" fill="#B6C0C8"/>
<path d="M75.9333 63.1355C75.6154 62.6415 75.3157 62.1803 75.0209 61.7159C74.3671 60.6817 73.7166 59.6425 73.0627 58.6082C72.0763 57.0453 71.0848 55.4841 70.1 53.9212C68.7561 51.7901 67.4172 49.6557 66.0733 47.5247C65.4146 46.4789 64.7476 45.4381 64.0855 44.3939C63.1221 42.8722 62.1636 41.3472 61.2002 39.8255C60.5464 38.7912 59.886 37.7586 59.2322 36.7244C58.2177 35.1219 57.2065 33.5195 56.1953 31.9171C55.7687 31.2402 55.3471 30.5584 54.919 29.8832C54.1564 28.6793 53.389 27.4804 52.6281 26.2765C51.7602 24.903 50.8989 23.5262 50.031 22.1527C49.3591 21.0871 48.6822 20.0249 48.007 18.961C47.1753 17.6484 46.3436 16.3359 45.5136 15.0216C45.4773 14.964 45.4427 14.9014 45.4444 14.8273C45.5613 14.7483 45.6815 14.7795 45.7935 14.7795C55.7358 14.7779 65.6781 14.7779 75.6204 14.7779C75.6797 14.7779 75.7389 14.7812 75.7966 14.7779C75.925 14.773 75.9992 14.824 75.9959 14.9624C75.9942 15.0447 75.9959 15.127 75.9959 15.2094C75.9959 31.0607 75.9959 46.9137 75.9959 62.765C75.9959 62.8671 76.0239 62.9758 75.9316 63.1322L75.9333 63.1355Z" fill="#B6C0C8"/>
<path d="M14.8128 62.8754C14.7502 62.7436 14.7782 62.6251 14.7782 62.5114C14.7766 46.7425 14.7766 30.9735 14.7749 15.2029C14.7749 15.1913 14.7749 15.1798 14.7749 15.1683C14.7766 14.7829 14.7766 14.7812 15.1619 14.7812C25.0812 14.7812 35.0004 14.7812 44.9196 14.7812C44.9542 14.7812 44.9904 14.7812 45.025 14.7812C45.3231 14.7895 45.3445 14.8208 45.1848 15.0727C44.5968 16.0098 44.0056 16.9453 43.4143 17.8807C42.5711 19.2147 41.7296 20.5487 40.8831 21.881C40.3017 22.795 39.7121 23.7041 39.1324 24.6181C37.9911 26.4182 36.8564 28.2215 35.7168 30.0216C35.0169 31.125 34.3087 32.2235 33.6088 33.3269C32.3719 35.2752 31.1401 37.2267 29.9033 39.1733C29.0502 40.5156 28.1905 41.8512 27.339 43.1934C26.1516 45.0626 24.9708 46.9335 23.7851 48.8027C22.517 50.8004 21.2472 52.7964 19.9774 54.7941C19.1375 56.1149 18.2993 57.4374 17.461 58.7598C16.6293 60.0724 15.7993 61.385 14.9676 62.6959C14.9297 62.7552 14.9083 62.826 14.8112 62.8754H14.8128Z" fill="#B6C0C8"/>
</svg>
