<svg width="70" height="70" viewBox="0 0 70 70" fill="none" xmlns="http://www.w3.org/2000/svg">
<path fill-rule="evenodd" clip-rule="evenodd" d="M23.3921 25.005C23.3429 25.0105 23.1178 25.0328 22.892 25.0547C22.0532 25.1361 21.0473 25.3244 20.2633 25.5469C20.1857 25.5689 20.0645 25.6014 19.994 25.6193C19.9235 25.637 19.8312 25.6634 19.7889 25.6782C19.7466 25.6928 19.6253 25.7305 19.5196 25.7618C19.4137 25.793 19.2811 25.8355 19.2246 25.8564C19.1681 25.8772 19.0873 25.903 19.045 25.9139C19.0027 25.9247 18.87 25.9706 18.7502 26.0157C18.6303 26.0606 18.4952 26.1083 18.4501 26.1215C18.405 26.1349 18.3358 26.1626 18.2962 26.1831C18.2567 26.2037 18.2102 26.2206 18.193 26.2208C18.1757 26.2209 18.1122 26.2428 18.0519 26.2696C17.9915 26.2962 17.8846 26.3413 17.814 26.3697C17.1055 26.6549 15.739 27.3023 15.1467 27.6331C15.0763 27.6727 14.9839 27.723 14.9416 27.7453C14.8993 27.7676 14.8216 27.8116 14.7691 27.8433C14.7166 27.8749 14.6012 27.9399 14.5126 27.9876C14.4241 28.0355 14.346 28.0829 14.3389 28.0931C14.3318 28.1034 14.2856 28.1321 14.2362 28.1572C14.1868 28.1823 14.1407 28.21 14.1337 28.2186C14.1267 28.2272 14.0699 28.262 14.0076 28.296C13.9452 28.3299 13.8275 28.402 13.746 28.4562C13.6644 28.5104 13.5869 28.5549 13.5739 28.5549C13.5609 28.5549 13.5356 28.5724 13.5178 28.5938C13.5001 28.6152 13.4467 28.651 13.3993 28.6736C13.3519 28.6961 13.3129 28.7247 13.3129 28.7372C13.3129 28.7498 13.302 28.76 13.2886 28.76C13.2585 28.76 13.0212 28.9171 13.0095 28.9449C13.0049 28.956 12.99 28.9651 12.9764 28.9651C12.9629 28.9651 12.8893 29.0113 12.8128 29.0677C12.7365 29.1242 12.6625 29.1704 12.6485 29.1704C12.6345 29.1704 12.6139 29.1848 12.6026 29.2024C12.5912 29.2201 12.5186 29.2778 12.4411 29.3306C12.3635 29.3833 12.2364 29.4732 12.1588 29.5303C12.0813 29.5874 11.989 29.6536 11.9537 29.6773C11.9185 29.7011 11.8803 29.7353 11.8691 29.7531C11.8579 29.7711 11.8377 29.7859 11.8245 29.7859C11.8111 29.7859 11.7741 29.8077 11.7423 29.8344C11.7104 29.8611 11.5055 30.0241 11.287 30.1966C11.0683 30.3691 10.8778 30.5233 10.8638 30.5391C10.8496 30.555 10.7342 30.6538 10.6073 30.7586C10.4803 30.8635 10.3575 30.9674 10.3344 30.9894C10.3112 31.0116 10.1959 31.1164 10.0782 31.2221C9.55672 31.6906 8.54326 32.7332 8.19595 33.1583C8.11532 33.2571 8.03345 33.3472 8.01391 33.3584C7.99437 33.3698 7.97852 33.3915 7.97852 33.4069C7.97852 33.4223 7.96267 33.4476 7.94328 33.4633C7.92404 33.479 7.76524 33.6822 7.59058 33.915C7.29729 34.3058 7.21419 34.4214 7.14525 34.5347C7.13094 34.558 7.08185 34.6308 7.036 34.6962C6.99014 34.7616 6.95259 34.8247 6.95259 34.8364C6.95259 34.8481 6.93413 34.873 6.91151 34.8918C6.88889 34.9106 6.86011 34.9495 6.8478 34.9783C6.83534 35.0071 6.79902 35.0728 6.76717 35.1243C6.49464 35.5638 6.28167 35.9733 6.06855 36.4668C6.05039 36.5091 6.011 36.599 5.98099 36.6662C5.95114 36.7336 5.92667 36.8029 5.92652 36.8201C5.92652 36.8375 5.91159 36.8804 5.89359 36.9157C5.4838 37.7145 5.37762 39.3357 5.67769 40.2113C5.99053 41.1238 6.66607 41.8154 7.6803 42.261C7.76324 42.2973 7.84402 42.3275 7.85987 42.328C7.87572 42.3284 7.93481 42.3512 7.99129 42.3784C8.04776 42.4057 8.11116 42.4283 8.1324 42.4286C8.15348 42.4289 8.24011 42.4514 8.32475 42.4784C8.56773 42.556 8.93442 42.6311 9.34113 42.6865C9.81862 42.7514 11.3639 42.7636 11.3639 42.7025C11.3639 42.6753 11.2793 42.6633 10.9855 42.6491C10.7775 42.6389 10.5322 42.6154 10.4406 42.5966C10.3489 42.578 10.217 42.5552 10.1475 42.5462C10.0779 42.5371 10.0124 42.5243 10.0019 42.5178C9.99128 42.5114 9.89818 42.4838 9.79493 42.4568C9.60873 42.4078 9.42377 42.3472 9.32497 42.3026C9.29666 42.2898 9.19864 42.2473 9.10692 42.2082C8.94874 42.1405 8.90165 42.1142 8.7233 41.9937C8.68144 41.9656 8.64051 41.9425 8.63205 41.9425C8.61635 41.9425 8.46401 41.8266 8.3286 41.7117C7.98144 41.4168 7.7163 41.0364 7.53303 40.5703C7.28236 39.933 7.32237 38.787 7.62244 38.0087C7.6489 37.9397 7.67075 37.8679 7.67075 37.8491C7.67075 37.8302 7.69276 37.7652 7.71969 37.7049C7.74677 37.6446 7.79971 37.5203 7.83756 37.4285C7.97544 37.0939 8.22519 36.6174 8.48586 36.1915C8.7096 35.826 8.70422 35.8343 8.75423 35.7774C8.779 35.7492 8.79916 35.7194 8.79916 35.7109C8.79916 35.6926 9.19079 35.1497 9.24357 35.0948C9.26404 35.0735 9.3239 34.9992 9.37683 34.9295C9.49871 34.7692 9.45823 34.818 9.77369 34.4519C10.0722 34.1055 10.1802 33.9908 10.6176 33.5557C11.1246 33.0512 11.2625 32.9234 11.772 32.4859C11.8085 32.4545 11.8555 32.4125 11.8768 32.3926C11.8979 32.3726 12.071 32.2332 12.2615 32.0829C12.4518 31.9324 12.6346 31.787 12.6676 31.7594C12.7005 31.7319 12.7333 31.7094 12.7404 31.7094C12.7473 31.7094 12.8185 31.6592 12.8984 31.5982C13.1421 31.4115 13.3662 31.2495 13.4441 31.2034C13.4848 31.1794 13.5182 31.1507 13.5182 31.1396C13.5182 31.1285 13.5293 31.1194 13.543 31.1194C13.5725 31.1194 13.8092 30.9614 13.8217 30.9335C13.8263 30.9229 13.8401 30.9143 13.8525 30.9143C13.8811 30.9143 14.1182 30.7561 14.1294 30.7293C14.1341 30.7183 14.1484 30.7092 14.161 30.7092C14.1736 30.7092 14.2505 30.6661 14.3319 30.6136C14.4134 30.561 14.5097 30.5004 14.546 30.479C14.5825 30.4574 14.6903 30.3937 14.7857 30.3373C14.8813 30.2808 14.9901 30.2161 15.0275 30.1934C15.1369 30.1271 15.2937 30.0373 15.3903 29.9858C15.4397 29.9595 15.5321 29.9084 15.5956 29.8722C15.659 29.8361 15.838 29.7422 15.9931 29.6634C16.1482 29.5848 16.279 29.5109 16.2838 29.4992C16.2884 29.4877 16.3079 29.4781 16.327 29.4781C16.3461 29.4781 16.475 29.4214 16.6134 29.352C16.8827 29.2168 17.4542 28.9625 17.814 28.8177C17.8846 28.7892 18 28.7426 18.0705 28.7141C18.3413 28.6046 18.476 28.5547 18.5035 28.5539C18.5192 28.5535 18.5783 28.5307 18.6348 28.5035C18.6911 28.4762 18.7543 28.4536 18.7753 28.4531C18.7962 28.4527 18.8711 28.4305 18.9419 28.404C19.152 28.3253 19.2411 28.2963 19.4205 28.248C19.514 28.2229 19.6061 28.1929 19.6247 28.1814C19.6435 28.1697 19.7053 28.1518 19.7622 28.1414C19.8192 28.1309 19.9351 28.1032 20.0197 28.0798C21.6436 27.6303 23.458 27.5086 24.5462 27.7762C24.638 27.7987 24.7592 27.8261 24.8155 27.837C25.4372 27.9572 26.2577 28.4365 26.6416 28.9037C26.8851 29.1999 26.9413 29.2901 27.0948 29.632C27.3718 30.2486 27.3778 31.3535 27.1081 32.1155C27.0814 32.1909 27.0597 32.27 27.0597 32.2912C27.0597 32.3125 27.043 32.3663 27.0223 32.4108C27.0019 32.4553 26.9685 32.5377 26.9482 32.5942C26.8458 32.8783 26.7069 33.1968 26.6072 33.3764C26.5875 33.4116 26.5361 33.5098 26.493 33.5944C26.4498 33.6791 26.3816 33.8002 26.3414 33.8637C26.3014 33.9271 26.2372 34.0369 26.1991 34.1073C26.1608 34.1778 26.1069 34.2644 26.0792 34.2997L26.029 34.3639L26.2683 34.3712C26.4253 34.3762 26.5108 34.3691 26.517 34.3506C26.5221 34.3351 26.5462 34.3029 26.5706 34.2791C26.6396 34.211 27.0636 33.6472 27.2299 33.4021C27.2826 33.3245 27.3321 33.2551 27.3401 33.2482C27.3481 33.2411 27.3692 33.2122 27.387 33.184C27.4671 33.0576 27.5198 32.9768 27.5391 32.9518C27.5679 32.9143 27.6142 32.8409 27.6756 32.7352C27.7043 32.6858 27.749 32.6108 27.7748 32.5685C27.9553 32.2732 28.2369 31.7433 28.3339 31.5171C28.37 31.4324 28.4204 31.317 28.4454 31.2605C28.932 30.1694 29.1456 28.7775 28.9491 27.9778C28.8343 27.5103 28.657 27.0587 28.5307 26.9114C28.5116 26.8891 28.4959 26.8623 28.4959 26.852C28.4959 26.8415 28.4642 26.7906 28.4254 26.7386C28.3867 26.6866 28.3463 26.6326 28.3359 26.6184C28.162 26.3831 27.5188 25.8105 27.4283 25.8105C27.4181 25.8105 27.3918 25.7945 27.3695 25.7748C27.3193 25.7304 26.9505 25.5365 26.8289 25.4906C25.8809 25.1322 25.2298 25.0148 24.1231 25.0024C23.7705 24.9984 23.4415 24.9996 23.3921 25.005Z" fill="#EC2C2C"/>
<path fill-rule="evenodd" clip-rule="evenodd" d="M11.1366 34.4728C11.0765 34.7135 11.0763 34.7101 11.1389 34.7098C11.6709 34.7067 12.0328 34.9706 12.2299 35.505C12.3061 35.7119 12.4926 36.4626 12.4919 36.5602C12.4917 36.5934 12.5142 36.7245 12.5419 36.8515C12.5974 37.106 12.6659 37.4467 12.7482 37.8774C12.7993 38.1449 12.8287 38.2934 12.9524 38.9097C12.9815 39.0543 13.0289 39.2908 13.0578 39.4355C13.0868 39.5801 13.1332 39.8022 13.1609 39.9291C13.1886 40.0561 13.2109 40.183 13.2105 40.2113C13.21 40.2395 13.2323 40.3664 13.26 40.4934C13.3156 40.7479 13.3841 41.0884 13.4662 41.5193C13.4959 41.6744 13.5424 41.9109 13.5695 42.045C13.5966 42.179 13.6435 42.4157 13.6735 42.5708C13.8769 43.619 14.0076 44.2716 14.0842 44.6225C14.1119 44.7494 14.1344 44.8852 14.1341 44.9239L14.1338 44.9944H14.3213H14.5091L14.7111 44.5952C14.8224 44.3757 14.9226 44.1904 14.9339 44.1833C14.9452 44.1764 14.9547 44.1511 14.955 44.1273C14.9553 44.1034 14.9781 44.0551 15.0056 44.0199C15.0333 43.9846 15.0564 43.9383 15.057 43.9172C15.0577 43.896 15.0807 43.85 15.1083 43.8146C15.1358 43.7794 15.1589 43.7332 15.1595 43.7121C15.1601 43.6909 15.1832 43.6447 15.2109 43.6095C15.2385 43.5742 15.2612 43.5304 15.2616 43.5122C15.2619 43.4941 15.2748 43.4651 15.2902 43.4481C15.3056 43.4311 15.4297 43.196 15.5659 42.9256C15.7021 42.6554 15.9072 42.2515 16.0217 42.028C16.6862 40.7318 17.3025 39.5256 17.671 38.8007C17.836 38.4763 17.9846 38.1849 18.0014 38.1532C18.0183 38.1213 18.0436 38.0724 18.0577 38.0441C18.0717 38.0159 18.0948 37.9697 18.109 37.9416C18.1231 37.9133 18.1462 37.8671 18.1602 37.8389C18.1744 37.8108 18.1958 37.7674 18.2076 37.7428C18.2196 37.7182 18.2485 37.6632 18.2718 37.6209C18.2952 37.5786 18.3863 37.4008 18.4744 37.2259C18.5905 36.9957 18.6365 36.9247 18.6409 36.9694C18.6443 37.0034 18.6703 37.1436 18.6986 37.2811C18.782 37.6863 18.8471 38.0127 18.9047 38.3134C18.9869 38.7442 19.0553 39.0848 19.1109 39.3393C19.1386 39.4662 19.1609 39.5932 19.1604 39.6213C19.16 39.6497 19.1823 39.7766 19.21 39.9036C19.2705 40.1804 19.3442 40.546 19.4169 40.9293C19.4463 41.0846 19.4924 41.3211 19.5191 41.4551C19.5459 41.5892 19.5908 41.8142 19.6191 41.9553C19.6473 42.0964 19.6935 42.3272 19.7216 42.4681C19.8541 43.1308 19.8789 43.2562 19.9292 43.5198C19.9971 43.8745 20.066 44.2182 20.1337 44.5375C20.1627 44.6742 20.1864 44.8147 20.1864 44.8496C20.1864 44.9816 20.205 44.9944 20.3978 44.9944C20.6128 44.9944 20.5929 45.0139 20.8033 44.5969C20.9595 44.2872 21.3281 43.5693 21.3862 43.4621C21.4177 43.4036 21.4508 43.3388 21.4905 43.2568C21.5025 43.2322 21.5314 43.1774 21.5548 43.1351C21.5782 43.0927 21.6799 42.8965 21.7807 42.699C21.8815 42.5015 22.0365 42.2015 22.1253 42.0322C22.2139 41.8629 22.3571 41.5859 22.4438 41.4167C22.5303 41.2474 22.6731 40.9704 22.7611 40.8012C22.849 40.6319 23.0308 40.2798 23.165 40.019C23.2991 39.758 23.4243 39.5156 23.4431 39.4804C23.4619 39.4452 23.4869 39.3961 23.4988 39.3713C23.5256 39.3159 23.5728 39.2237 23.6007 39.1726C23.6122 39.1514 23.6898 39.0014 23.773 38.8392C23.8563 38.677 24.0064 38.3855 24.1071 38.1916C24.2076 37.9976 24.369 37.686 24.4658 37.4992C24.7886 36.8753 24.9917 36.5014 25.0631 36.3988C25.0891 36.3614 25.1105 36.3198 25.1105 36.3066C25.1105 36.2934 25.1336 36.2615 25.1618 36.236C25.1901 36.2104 25.2132 36.1804 25.2132 36.1692C25.2132 36.158 25.2506 36.0952 25.2964 36.0295C25.3423 35.9639 25.3914 35.8911 25.4055 35.8679C25.4195 35.8447 25.4375 35.8199 25.4454 35.8128C25.4532 35.8057 25.5029 35.7426 25.556 35.6725C25.9255 35.1828 26.3801 34.8609 26.862 34.7473L27.0545 34.7019L27.0711 34.597C27.0804 34.5393 27.0938 34.4679 27.1011 34.4383L27.1145 34.3846L25.4992 34.38L23.884 34.3752L23.8561 34.5054C23.8141 34.701 23.8141 34.7009 23.9917 34.7566C24.5786 34.9408 24.6977 35.3227 24.405 36.0821C24.367 36.1809 24.3227 36.2968 24.3064 36.3397C24.2902 36.3828 24.2568 36.4486 24.2322 36.4863C24.2074 36.524 24.1873 36.567 24.1873 36.5819C24.1873 36.5967 24.1316 36.7155 24.0634 36.8456C23.9952 36.9758 23.9277 37.1054 23.9135 37.1337C23.8992 37.1619 23.8718 37.2139 23.8526 37.2491C23.8333 37.2844 23.7519 37.4401 23.6718 37.5954C23.5916 37.7505 23.4571 38.0101 23.3729 38.1724C23.2887 38.3346 23.1373 38.626 23.0367 38.8199C22.936 39.0138 22.7712 39.3313 22.6705 39.5252C22.5698 39.7192 22.4221 40.0048 22.3424 40.1599C22.2627 40.3152 22.1853 40.4652 22.1705 40.4934C22.1557 40.5216 22.132 40.5677 22.1179 40.596C22.08 40.6717 22.028 40.7702 22.0028 40.8139C21.9906 40.8352 21.9614 40.8929 21.938 40.9423L21.8952 41.032L21.864 40.9038C21.8467 40.8332 21.8318 40.7467 21.8306 40.7114C21.8295 40.6762 21.8056 40.5434 21.7776 40.4165C21.7496 40.2895 21.7025 40.0587 21.6732 39.9036C21.6436 39.7483 21.5976 39.5118 21.5708 39.3778C21.544 39.2437 21.4982 39.0072 21.4686 38.8519C21.4393 38.6968 21.3931 38.4602 21.366 38.3263C21.3389 38.1923 21.2921 37.9556 21.2621 37.8005C21.2321 37.6454 21.1855 37.4236 21.1586 37.3078C21.1316 37.1919 21.1098 37.0706 21.1101 37.0385C21.1103 37.0061 21.0878 36.876 21.0601 36.749C20.8896 35.9682 20.8427 35.6706 20.8599 35.481C20.8896 35.1534 21.1181 34.8912 21.4871 34.7615C21.663 34.6996 21.6478 34.7173 21.6864 34.5319L21.7189 34.3766H19.4783H17.238L17.2257 34.4343C17.2191 34.466 17.21 34.5394 17.2057 34.5974L17.1978 34.7029L17.3905 34.7486C17.9999 34.8934 18.1564 35.0315 18.3887 35.6303C18.4686 35.8357 18.5191 35.7071 17.8383 37.0311C17.6932 37.3131 17.4571 37.7748 17.3139 38.057C17.1706 38.3391 16.9349 38.8007 16.7899 39.0828C16.6451 39.365 16.4015 39.8439 16.2489 40.1472C16.0962 40.4505 15.9502 40.7291 15.9245 40.7667C15.8988 40.8041 15.8774 40.8502 15.8771 40.8692C15.8768 40.8882 15.854 40.9326 15.8264 40.9678L15.7763 41.032L15.7761 40.955C15.776 40.9127 15.7532 40.7742 15.7255 40.6473C15.6609 40.3507 15.5182 39.6404 15.4167 39.1085C15.387 38.9534 15.3402 38.7138 15.3125 38.5763C15.2848 38.4388 15.2391 38.2109 15.2109 38.0698C15.1826 37.9287 15.1364 37.6978 15.1083 37.5569C15.0801 37.4158 15.0332 37.182 15.0041 37.0375C14.7484 35.7636 14.7393 35.6825 14.8205 35.3769C14.9102 35.0395 15.0684 34.8824 15.4545 34.7475C15.6124 34.6924 15.5956 34.7092 15.6244 34.5774C15.6378 34.5164 15.6549 34.4462 15.6624 34.4216C15.6752 34.3789 15.5565 34.3766 13.4184 34.3766H11.1606L11.1366 34.4728ZM27.5614 34.534C27.5406 34.7186 27.5402 34.7181 27.7393 34.7692C27.8902 34.8078 28.1503 34.9086 28.2009 34.948C28.2151 34.9589 28.2796 35.002 28.3442 35.0437C28.6027 35.2105 28.6761 35.6508 28.5493 36.2744C28.5221 36.4085 28.475 36.6624 28.4447 36.8387C28.4144 37.0151 28.3673 37.269 28.34 37.403C28.3128 37.5369 28.2905 37.6754 28.2906 37.7105C28.2906 37.7455 28.2685 37.884 28.2411 38.0182C28.19 38.2697 28.1278 38.615 28.0332 39.1726C28.0033 39.349 27.9575 39.6086 27.9313 39.7497C27.9052 39.8906 27.859 40.1504 27.8285 40.3267C27.7345 40.8726 27.6722 41.2268 27.6231 41.4936C27.5973 41.6347 27.5512 41.8943 27.5208 42.0707C27.3814 42.8804 27.36 42.9913 27.314 43.1497C27.2869 43.2423 27.2649 43.3357 27.2649 43.3573C27.2649 43.3788 27.2489 43.4299 27.2292 43.4708C27.2096 43.5119 27.1727 43.5915 27.1472 43.6479C27.0847 43.786 26.8428 44.017 26.6724 44.1011C26.4608 44.2059 26.2943 44.2762 26.2585 44.2762C26.2408 44.2762 26.1654 44.2993 26.0912 44.3276C26.0171 44.3558 25.9286 44.3789 25.8946 44.3789C25.8329 44.3789 25.8278 44.3886 25.7921 44.5712C25.7867 44.5994 25.7741 44.6543 25.7641 44.6933L25.7461 44.7639L28.2045 44.7573L30.6627 44.7508L30.6924 44.6225C30.7437 44.4023 30.7397 44.386 30.631 44.3715C30.5781 44.3646 30.4597 44.3306 30.3682 44.2959C29.6897 44.0397 29.5445 43.7811 29.6731 43.0581C29.7031 42.8889 29.7517 42.6119 29.7808 42.4426C29.8101 42.2733 29.855 42.0194 29.8807 41.8783C29.9064 41.7372 29.9506 41.4892 29.9789 41.327C30.0072 41.1646 30.0553 40.8878 30.0861 40.7114C30.1167 40.5351 30.1632 40.2753 30.1892 40.1344C30.2152 39.9933 30.2614 39.7337 30.2917 39.5573C30.4205 38.8095 30.452 38.6342 30.4987 38.4032C30.5258 38.2692 30.5478 38.1307 30.5476 38.0955C30.5475 38.0602 30.5696 37.9216 30.5969 37.7877C30.6241 37.6537 30.6712 37.3998 30.7015 37.2234C30.7318 37.0471 30.7789 36.7932 30.8061 36.6591C30.8334 36.5251 30.8557 36.3883 30.8555 36.3551C30.8551 36.129 31.1296 35.3513 31.2307 35.2922C31.2499 35.281 31.2661 35.2579 31.2665 35.241C31.2693 35.1323 31.8264 34.8589 32.2708 34.7479L32.4423 34.7052L32.4696 34.5781C32.4845 34.5082 32.4968 34.4343 32.4968 34.4139C32.4968 34.3816 32.1695 34.3766 30.0381 34.3766H27.5792L27.5614 34.534ZM33.7405 34.4471C33.7328 34.4859 33.714 34.5524 33.6989 34.5947C33.6837 34.637 33.6568 34.7293 33.6391 34.7998C33.6214 34.8703 33.5886 34.9857 33.5664 35.0563C33.5441 35.1268 33.5038 35.2594 33.4766 35.3512C33.4495 35.4429 33.4029 35.5988 33.3729 35.6974C33.343 35.7962 33.295 35.9578 33.2662 36.0565C33.1851 36.3348 33.1196 36.5539 33.0622 36.7379C32.976 37.0148 32.9791 37.022 33.1799 37.0131C33.3393 37.0058 33.3527 37.0006 33.3919 36.9284C33.5708 36.5996 33.6726 36.424 33.7456 36.3197C33.7922 36.2527 33.8305 36.1926 33.8305 36.1857C33.8305 36.1789 33.9073 36.0727 34.0012 35.9496C34.4096 35.4142 34.7069 35.2171 35.3564 35.0509C35.5207 35.0089 35.7182 35.0043 37.6878 34.9975C40.0734 34.9894 39.8731 34.9748 39.7015 35.1446C39.6652 35.1807 39.5218 35.3372 39.3828 35.4923C38.991 35.9299 38.9794 35.9425 38.8636 36.0584C38.8036 36.1183 38.7547 36.1741 38.7547 36.1824C38.7547 36.1909 38.7158 36.2352 38.6682 36.2809C38.6208 36.3268 38.4683 36.4913 38.3295 36.6464C38.1907 36.8015 38.0247 36.9848 37.9607 37.0534C37.8967 37.122 37.8154 37.2097 37.78 37.248C37.7448 37.2865 37.6632 37.3747 37.5989 37.4438C37.5344 37.513 37.3679 37.6966 37.2288 37.8517C37.0899 38.007 36.9604 38.1433 36.9415 38.1547C36.9226 38.1661 36.9126 38.1846 36.9195 38.1956C36.9263 38.2069 36.9035 38.2312 36.8687 38.2498C36.8339 38.2684 36.8055 38.2932 36.8055 38.3051C36.8055 38.3167 36.7667 38.3638 36.7195 38.4097C36.6721 38.4554 36.525 38.6142 36.3925 38.7622C36.0508 39.1442 35.9851 39.2168 35.8694 39.3397C35.6671 39.5546 35.2559 40.0053 34.9474 40.3501C34.9044 40.3981 34.8201 40.4866 34.7601 40.5465C34.7002 40.6065 34.6511 40.6624 34.6511 40.6707C34.6511 40.679 34.6124 40.7233 34.5651 40.7691C34.5177 40.815 34.3657 40.9793 34.2271 41.1346C34.0884 41.2897 33.9427 41.4513 33.9031 41.4936C33.8637 41.5359 33.782 41.624 33.7219 41.6894C33.6617 41.7548 33.5604 41.8645 33.497 41.9331C33.4336 42.0019 33.2665 42.185 33.1257 42.3401C32.9849 42.4952 32.832 42.66 32.7858 42.7064C32.7398 42.7527 32.7019 42.7962 32.7019 42.8033C32.7019 42.8102 32.6558 42.8585 32.5995 42.9104C32.543 42.9623 32.4968 43.0123 32.4968 43.0217C32.4968 43.0309 32.4477 43.0891 32.3876 43.1509C32.3275 43.2126 32.1861 43.3657 32.0735 43.4911C31.9607 43.6166 31.8224 43.7677 31.7659 43.8271C31.2593 44.3604 31.2387 44.3906 31.181 44.6803L31.1644 44.7637L36.1072 44.7573L41.05 44.7508L41.0855 44.6354C41.1051 44.5718 41.1409 44.468 41.1654 44.4046C41.2299 44.2372 41.296 44.0442 41.3193 43.9557C41.3425 43.8672 41.4088 43.6743 41.4731 43.5068C41.5376 43.3396 41.6038 43.1465 41.627 43.0581C41.6383 43.0158 41.6677 42.9235 41.6926 42.8528C41.7175 42.7824 41.7591 42.664 41.7851 42.59C41.8111 42.516 41.8545 42.3947 41.8817 42.3207C41.9088 42.2467 41.9385 42.1485 41.9477 42.1027L41.9645 42.0194L41.8023 42.0197C41.7129 42.02 41.6278 42.0287 41.6129 42.039C41.5759 42.0648 41.4219 42.2983 41.4219 42.3284C41.4219 42.3418 41.4125 42.3527 41.401 42.3527C41.3894 42.3527 41.354 42.3989 41.3223 42.4554C41.2906 42.5118 41.2539 42.558 41.2408 42.558C41.2276 42.558 41.2168 42.5706 41.2168 42.586C41.2168 42.6674 40.6177 43.3359 40.357 43.5453C39.6955 44.0768 39.3799 44.1224 36.3577 44.1224C34.4314 44.1224 34.3365 44.1202 34.3775 44.0776C34.5251 43.9237 34.6184 43.8226 34.8438 43.571C34.9829 43.4159 35.1322 43.2496 35.1753 43.2014C35.2185 43.1532 35.3028 43.0649 35.3628 43.0049C35.4229 42.945 35.4718 42.8892 35.4718 42.8809C35.4718 42.8724 35.5107 42.8281 35.5581 42.7824C35.6057 42.7365 35.7506 42.5796 35.8804 42.4337C36.0101 42.2876 36.1559 42.1287 36.2044 42.0802C36.2529 42.0317 36.2926 41.9867 36.2926 41.98C36.2926 41.9734 36.3314 41.9305 36.3789 41.8846C36.4263 41.8389 36.5727 41.6801 36.7041 41.5321C37.0515 41.1402 37.0892 41.0991 37.2094 40.9789C37.2694 40.9189 37.3184 40.863 37.3184 40.8547C37.3184 40.8464 37.3573 40.8021 37.4047 40.7562C37.4522 40.7104 37.5986 40.5517 37.7298 40.4037C37.9634 40.1402 38.0464 40.0491 38.2546 39.8271C38.3871 39.6858 38.4608 39.6046 38.7679 39.2623C38.907 39.1072 39.0532 38.9457 39.0926 38.9033C39.1696 38.8206 39.3279 38.6485 39.4736 38.4892C39.5233 38.4349 39.6734 38.2694 39.8069 38.1213C39.9405 37.9733 40.0844 37.816 40.1267 37.7715C40.169 37.7272 40.2672 37.6194 40.3447 37.5318C40.4223 37.4444 40.5262 37.3298 40.5756 37.2771C40.625 37.2245 40.7634 37.0734 40.8833 36.9414C41.0032 36.8092 41.1301 36.6701 41.1654 36.6324C41.3183 36.4683 41.6897 36.061 41.9169 35.8076C42.0525 35.6566 42.1841 35.511 42.2093 35.4841C42.8479 34.8047 42.9607 34.6655 42.9607 34.5576C42.9607 34.5027 42.9678 34.4396 42.9763 34.4173C42.9904 34.3803 42.5743 34.3766 38.3732 34.3766H33.7545L33.7405 34.4471ZM62.8626 35.923C62.6016 36.1806 62.2794 36.4893 62.1466 36.6087C62.0136 36.7281 61.881 36.85 61.8516 36.8795C61.8223 36.9089 61.6194 37.0743 61.4007 37.2471C61.182 37.4198 60.9792 37.5803 60.95 37.6038C60.9206 37.6274 60.8783 37.6581 60.8558 37.6723C60.7098 37.7642 60.5147 37.9034 60.5074 37.9208C60.5027 37.9322 60.4865 37.9416 60.4714 37.9416C60.4562 37.9416 60.4082 37.9684 60.3645 38.0011C60.3208 38.0339 60.2678 38.0685 60.2466 38.0782C60.2123 38.0939 60.0506 38.1915 59.9741 38.2427C59.9453 38.2621 59.8876 38.4894 59.8876 38.584C59.8876 38.6322 59.9098 38.634 60.488 38.634H61.0883L61.0531 38.7815C61.0337 38.8626 61.0175 38.9635 61.0171 39.0058C61.0166 39.0481 60.9942 39.1925 60.9671 39.3265C60.9181 39.568 60.8654 39.8616 60.7596 40.4806C60.7295 40.657 60.6836 40.9166 60.6576 41.0577C60.6316 41.1986 60.5853 41.4584 60.5547 41.6347C60.4534 42.2184 60.4048 42.4908 60.3509 42.7759C60.2054 43.5461 60.3312 44.1344 60.7244 44.5205C60.9486 44.7405 61.1805 44.8525 61.6572 44.9709C61.8239 45.0123 62.7318 44.9992 62.9021 44.9529C62.9861 44.9301 63.0954 44.9033 63.1448 44.8933C63.2713 44.8676 63.6594 44.6914 63.8139 44.5894C63.8505 44.5654 63.9274 44.5143 63.9848 44.4761C64.1843 44.3435 64.633 43.8777 64.6317 43.8048C64.6311 43.7721 64.4725 43.5838 64.4457 43.5838C64.436 43.5838 64.3877 43.6213 64.3386 43.6672C63.9645 44.0156 63.5766 44.1578 63.1702 44.0953C62.6996 44.0231 62.492 43.8114 62.4249 43.3357C62.3789 43.0097 62.4034 42.7854 62.6064 41.6732C62.6321 41.5321 62.6782 41.2725 62.7089 41.0961C62.7395 40.9198 62.7876 40.6428 62.8158 40.4806C62.844 40.3183 62.889 40.0796 62.9161 39.95C62.9431 39.8203 62.9652 39.6795 62.9652 39.6367C62.9652 39.5941 62.9883 39.4602 63.0165 39.3393C63.0448 39.2183 63.0679 39.0903 63.0679 39.0548C63.0679 39.0194 63.086 38.9101 63.1083 38.8122L63.1488 38.634H64.2475H65.3462L65.3868 38.4559C65.409 38.3578 65.4273 38.225 65.4273 38.1609V38.0441H64.3425H63.2576L63.2659 37.9479C63.2704 37.8951 63.2961 37.7363 63.3228 37.5954C63.3496 37.4542 63.3964 37.1946 63.4267 37.0183C63.4572 36.842 63.5043 36.5881 63.5315 36.454C63.5587 36.32 63.5809 36.1793 63.5809 36.1415C63.5807 36.1036 63.6037 35.9767 63.6318 35.8594C63.66 35.7422 63.6831 35.6029 63.6831 35.55L63.6834 35.4538L63.5103 35.4541L63.3371 35.4546L62.8626 35.923ZM45.3843 37.8012C45.2574 37.8197 45.0344 37.8413 44.8887 37.8491C44.7431 37.857 44.4892 37.8805 44.3246 37.9016C44.1598 37.9225 43.9154 37.9465 43.7814 37.955C43.6473 37.9634 43.4116 37.987 43.2572 38.0073C43.1031 38.0275 42.9293 38.0441 42.8715 38.0441H42.7661L42.7391 38.2172C42.7067 38.4248 42.6742 38.3886 42.9479 38.4495C43.6312 38.6019 43.8237 38.888 43.7035 39.5723C43.6889 39.6557 43.655 39.8451 43.6286 39.9933C43.6019 40.1413 43.5556 40.4069 43.5255 40.5831C43.4953 40.7595 43.4482 41.0135 43.4208 41.1477C43.3934 41.2817 43.3711 41.4199 43.3711 41.4545C43.3711 41.4892 43.3493 41.6275 43.3225 41.762C43.2959 41.8965 43.2488 42.1508 43.218 42.3272C43.1872 42.5035 43.1398 42.7573 43.1126 42.8913C43.0854 43.0253 43.063 43.1638 43.0632 43.1991C43.0635 43.2951 42.9586 43.6383 42.905 43.716C42.8792 43.7535 42.8581 43.7938 42.8579 43.8058C42.857 43.9608 42.2927 44.2872 41.8423 44.3933C41.8201 44.3986 41.7297 44.6846 41.7297 44.7496C41.7297 44.7573 42.6514 44.7636 43.778 44.7636H45.8261L45.8415 44.6546C45.8498 44.5946 45.8644 44.5081 45.8738 44.4623C45.8888 44.3892 45.8841 44.3789 45.8367 44.3789C45.7584 44.3789 45.4094 44.2041 45.2989 44.1094C45.0383 43.8862 45.0329 43.5556 45.2712 42.3784C45.2983 42.2444 45.3203 42.1059 45.3202 42.0707C45.32 42.0354 45.3422 41.8969 45.3694 41.7629C45.3965 41.6289 45.4437 41.375 45.474 41.1986C45.5045 41.0224 45.5519 40.7511 45.5795 40.596C45.607 40.4408 45.6404 40.2518 45.6536 40.1761C45.6826 40.0116 45.7884 39.8643 46.0973 39.5598C46.3807 39.2802 46.3863 39.2751 46.407 39.2751C46.417 39.2751 46.448 39.254 46.4758 39.228C46.5644 39.1454 46.8907 38.9951 47.1027 38.9392C47.8076 38.7532 48.3051 39.0357 48.4353 39.696C48.4893 39.9693 48.4796 40.0938 48.3472 40.8396C48.3208 40.9877 48.2742 41.2533 48.2437 41.4294C48.2131 41.6058 48.1668 41.8655 48.1408 42.0065C48.1148 42.1476 48.0689 42.4074 48.0389 42.5836C47.8694 43.5821 47.7921 43.7944 47.5076 44.0448C47.3449 44.1881 46.9138 44.3786 46.7516 44.3787C46.6645 44.3789 46.6628 44.3821 46.6406 44.5905L46.6223 44.7636H48.6877H50.7531L50.7809 44.634C50.8256 44.4258 50.8189 44.3789 50.7452 44.3789C50.6837 44.3789 50.5529 44.3278 50.3267 44.2155C49.9841 44.0454 49.8867 43.7213 49.9981 43.1221C50.0231 42.9881 50.0649 42.7573 50.0912 42.6093C50.1174 42.4611 50.1617 42.213 50.1897 42.0579C50.2176 41.9026 50.2653 41.6315 50.2957 41.4551C50.363 41.0663 50.4293 40.695 50.5023 40.2993C50.5707 39.9285 50.5649 39.3027 50.4909 39.07C50.4167 38.837 50.2133 38.4545 50.1636 38.4545C50.1516 38.4545 50.1419 38.4442 50.1419 38.4315C50.1419 38.3084 49.537 37.9063 49.2698 37.8519C49.2486 37.8476 49.1424 37.8256 49.0336 37.8029C48.7813 37.7506 48.4116 37.7506 48.1377 37.8029C48.0199 37.8256 47.8972 37.8489 47.865 37.855C47.833 37.861 47.7493 37.8885 47.6792 37.9162C47.609 37.9437 47.5514 37.9607 47.5514 37.9534C47.5514 37.9464 47.5025 37.9656 47.4425 37.9961C47.3825 38.0267 47.3277 38.0516 47.3206 38.0516C47.3135 38.0516 47.2674 38.0762 47.2181 38.1062C47.1687 38.1364 47.0843 38.1838 47.0304 38.2115C46.9765 38.2393 46.9107 38.2823 46.8841 38.3071C46.8573 38.3317 46.8284 38.3518 46.8196 38.3518C46.7576 38.3518 46.2139 38.851 46.0103 39.0951C45.8017 39.3448 45.8066 39.3408 45.8187 39.2574C45.8406 39.1094 45.9414 38.5357 45.9869 38.3006C46.0129 38.1666 46.0411 37.9905 46.0494 37.9094L46.0645 37.762L45.8398 37.7648C45.7163 37.7663 45.5113 37.7828 45.3843 37.8012ZM55.7328 37.8005C55.6129 37.8206 55.4706 37.8434 55.4166 37.851C55.2946 37.868 55.1895 37.8927 55.1558 37.9123C55.1416 37.9205 55.1098 37.9304 55.085 37.9342C55.0601 37.9382 54.9734 37.9651 54.8926 37.9942C54.8117 38.0235 54.7271 38.0513 54.7047 38.0562C54.651 38.0681 54.1592 38.3011 54.1428 38.3224C54.1357 38.3315 54.078 38.3668 54.0144 38.4005C53.951 38.4343 53.8752 38.4834 53.8461 38.5096C53.817 38.5357 53.7845 38.5571 53.7741 38.5571C53.7573 38.5571 53.591 38.6793 53.5126 38.7495C53.4968 38.7635 53.4349 38.8155 53.3749 38.8649C53.315 38.9141 53.1892 39.034 53.0951 39.1312C53.0013 39.2283 52.8985 39.3334 52.8668 39.365C52.8351 39.3964 52.8091 39.4352 52.8091 39.4512C52.8091 39.4673 52.798 39.4804 52.7845 39.4804C52.7377 39.4804 52.4191 39.9648 52.2868 40.2369C51.7536 41.3336 51.6933 42.5342 52.1262 43.4341C52.1779 43.5416 52.2373 43.6438 52.2582 43.6612C52.2791 43.6786 52.2962 43.7041 52.2962 43.718C52.2962 43.7489 52.435 43.9303 52.5322 44.0265C52.5716 44.0654 52.604 44.1065 52.604 44.1177C52.604 44.129 52.6498 44.1722 52.7058 44.2136C52.762 44.2552 52.8082 44.2969 52.8085 44.3064C52.8103 44.3575 53.532 44.7893 53.6157 44.7893C53.63 44.7893 53.6996 44.8114 53.7704 44.8385C54.2 45.0033 55.3518 45.055 55.861 44.9322C56.433 44.7945 56.8642 44.6257 57.2844 44.3749C57.3267 44.3496 57.396 44.3098 57.4383 44.2862C57.4806 44.2627 57.5211 44.2362 57.5281 44.2275C57.5351 44.2187 57.6072 44.1664 57.6883 44.1114C57.7694 44.0563 57.8359 44.0017 57.8359 43.9899C57.8359 43.9782 57.8476 43.9685 57.8618 43.9685C57.8935 43.9685 58.0395 43.8358 58.2679 43.5996C58.3617 43.5025 58.4645 43.3973 58.4962 43.3659C58.5281 43.3343 58.5539 43.2956 58.5539 43.2796C58.5539 43.2636 58.5651 43.2505 58.5787 43.2505C58.5995 43.2505 58.7581 43.0415 58.8489 42.8945C58.8631 42.8718 58.8948 42.8224 58.9194 42.785C59.0019 42.6597 58.9826 42.6348 58.804 42.6353L58.6438 42.6356L58.3942 42.9019C57.9387 43.3882 57.4589 43.7266 56.9639 43.9106C55.9709 44.2798 54.9525 44.0436 54.5332 43.3466C54.5098 43.3079 54.4816 43.276 54.4705 43.276C54.4595 43.276 54.4505 43.2568 54.4505 43.2332C54.4505 43.2097 54.4347 43.1721 54.4153 43.1498C54.1386 42.831 54.0234 41.6732 54.1963 40.9486L54.2285 40.8139H56.776H59.3233L59.3229 40.6408C59.3221 40.3869 59.2556 39.8439 59.2094 39.7143C59.1874 39.6526 59.1694 39.5864 59.1694 39.5673C59.1694 39.4865 58.8785 38.9293 58.796 38.8519C58.7809 38.8379 58.7189 38.7653 58.6581 38.6907C58.4379 38.4205 57.8025 37.9996 57.5437 37.9527C57.5108 37.9467 57.4437 37.9251 57.3947 37.9047C57.346 37.8842 57.2512 37.861 57.1842 37.853C57.1173 37.8449 57.0143 37.8263 56.9554 37.8119C56.7712 37.7663 55.9786 37.7589 55.7328 37.8005ZM56.3314 38.3311C56.7154 38.4149 56.9797 38.7288 57.1593 39.3136C57.1951 39.4307 57.2085 39.5733 57.2155 39.9099L57.2245 40.3523H55.7642H54.3037L54.3297 40.2433C54.3594 40.1185 54.4675 39.7748 54.5008 39.6983C54.628 39.4079 54.8006 39.0882 54.8378 39.0743C54.8505 39.0695 54.8608 39.0505 54.8608 39.0317C54.8608 38.9954 55.2509 38.5905 55.3357 38.5388C55.538 38.4155 55.628 38.3743 55.7668 38.3408C56.0243 38.2784 56.0864 38.2775 56.3314 38.3311Z" fill="white"/>
<path fill-rule="evenodd" clip-rule="evenodd" d="M26.1557 34.3956C26.2155 34.401 26.3137 34.401 26.3736 34.3956C26.4336 34.3902 26.3845 34.3857 26.2646 34.3857C26.1448 34.3857 26.0957 34.3902 26.1557 34.3956Z" fill="white"/>
</svg>
