<svg width="70" height="70" viewBox="0 0 70 70" fill="none" xmlns="http://www.w3.org/2000/svg">
<path d="M31.4569 10.4159C32.0533 10.3991 32.5505 10.3769 32.562 10.3668C32.5736 10.3562 33.5169 10.3586 34.6576 10.3721C35.7984 10.3851 36.9598 10.4077 37.2378 10.4222C37.5158 10.4367 38.2745 10.4699 38.9239 10.4964C39.5733 10.5229 40.2887 10.5552 40.5136 10.5682C40.7386 10.5812 41.3027 10.6145 41.7662 10.6419C42.2301 10.6699 42.9994 10.7359 43.4763 10.7889C43.9533 10.8419 44.6576 10.9392 45.042 11.0052C45.4264 11.0708 46.0657 11.1999 46.4631 11.2914C46.8606 11.3835 47.4786 11.5468 47.8361 11.6547C48.1935 11.7627 48.8005 11.9704 49.185 12.1168C49.5694 12.2633 50.2737 12.5736 50.7506 12.8068C51.2275 13.04 51.889 13.4014 52.2199 13.6101C52.5513 13.8187 53.0923 14.195 53.4228 14.4465C53.7533 14.6981 54.314 15.1857 54.6691 15.5302C55.0236 15.8747 55.4837 16.3624 55.6908 16.6144C55.898 16.8659 56.1841 17.2345 56.3263 17.4335C56.4679 17.632 56.7208 18.0117 56.888 18.2767C57.0546 18.5417 57.3721 19.1272 57.5928 19.5777C57.8139 20.0282 58.1029 20.6898 58.2359 21.0473C58.3688 21.4048 58.5644 22.0014 58.6709 22.3724C58.7773 22.7434 58.9291 23.3399 59.0086 23.6974C59.0881 24.055 59.209 24.6515 59.2769 25.0225C59.3448 25.3935 59.4537 26.0657 59.5187 26.5162C59.5838 26.9668 59.6806 27.769 59.7336 28.299C59.7866 28.8291 59.8521 29.5769 59.8791 29.9614C59.9065 30.3454 59.9446 31.1805 59.9644 31.8165C59.9841 32.4525 60 33.6234 60 34.4184C60 35.2135 59.9822 36.6123 59.96 37.5263C59.9379 38.4404 59.9138 39.1993 59.9061 39.2128C59.8984 39.2263 59.8776 39.7245 59.8603 40.321C59.8425 40.9171 59.8174 41.5897 59.8039 41.8147C59.79 42.0398 59.7577 42.4951 59.7317 42.8266C59.7057 43.1576 59.6401 43.7648 59.5867 44.1758C59.5332 44.5868 59.4354 45.2156 59.3699 45.5731C59.3044 45.9306 59.1415 46.6679 59.0076 47.2114C58.8737 47.7549 58.6164 48.6434 58.4363 49.1869C58.2556 49.7305 58.007 50.4021 57.8832 50.6806C57.7599 50.9592 57.5277 51.4357 57.3683 51.7407C57.2083 52.0457 56.899 52.5656 56.6803 52.8971C56.4621 53.2281 56.1027 53.7269 55.8826 54.0054C55.6619 54.2839 55.1653 54.8279 54.7779 55.2148C54.3911 55.6022 53.8467 56.0994 53.5688 56.3197C53.2908 56.5403 52.7701 56.9138 52.4126 57.1494C52.0552 57.3855 51.372 57.7705 50.8951 58.0056C50.4182 58.2408 49.6705 58.5617 49.2331 58.7192C48.7957 58.8763 48.1348 59.0922 47.7638 59.1982C47.3929 59.3047 46.7965 59.4579 46.439 59.5393C46.0816 59.6208 45.4635 59.7422 45.0661 59.8087C44.6686 59.8752 43.986 59.973 43.5486 60.026C43.1112 60.079 42.483 60.144 42.1516 60.1715C41.8206 60.1985 41.2131 60.2419 40.8027 60.2669C40.3922 60.2924 39.6224 60.3305 39.0925 60.3517C38.5626 60.3724 37.3486 60.3898 36.3948 60.3898C35.4409 60.3898 33.7934 60.3739 32.7335 60.3546C31.6737 60.3348 30.4058 60.2973 29.9154 60.2703C29.425 60.2438 28.7101 60.1985 28.3256 60.1701C27.9412 60.1416 27.2369 60.0766 26.76 60.0245C26.2831 59.973 25.6004 59.8877 25.2425 59.8347C24.8846 59.7817 24.2453 59.6723 23.8214 59.5914C23.3974 59.5104 22.8338 59.3904 22.5688 59.3239C22.3039 59.2579 21.8703 59.1375 21.6054 59.0565C21.3404 58.9751 20.8852 58.817 20.5937 58.7043C20.3023 58.592 19.7714 58.354 19.4134 58.1747C19.0555 57.996 18.6113 57.7618 18.4259 57.6544C18.2404 57.5469 17.9263 57.3503 17.7274 57.2183C17.5289 57.0858 17.1926 56.8473 16.9807 56.6883C16.7687 56.5293 16.3891 56.2209 16.1376 56.0036C15.8861 55.7863 15.4694 55.3945 15.2127 55.1324C14.9554 54.8703 14.6881 54.5908 14.6187 54.5113C14.5493 54.4318 14.3056 54.1282 14.0772 53.8367C13.8489 53.5452 13.5059 53.0682 13.3151 52.7767C13.1243 52.4851 12.8488 52.0298 12.7028 51.7648C12.5564 51.4998 12.3068 50.99 12.1483 50.6325C11.9894 50.2749 11.7692 49.7218 11.6584 49.4038C11.5481 49.0857 11.3853 48.5437 11.2966 48.1992C11.208 47.8546 11.0688 47.2042 10.9878 46.7536C10.9064 46.3031 10.786 45.5876 10.7205 45.1635C10.6549 44.7395 10.5475 43.9589 10.4815 43.4289C10.416 42.8989 10.3283 42.1183 10.2874 41.6943C10.2464 41.2703 10.1915 40.6521 10.166 40.321C10.14 39.9895 10.0932 39.2745 10.0619 38.7309C10.0306 38.1874 10.0031 36.8652 10.0003 35.7917C9.99785 34.7182 10.0123 33.4283 10.0325 32.9247C10.0532 32.4212 10.1024 31.5645 10.1414 31.0215C10.1809 30.4779 10.2469 29.6974 10.2874 29.2868C10.3283 28.8758 10.4155 28.1063 10.482 27.5763C10.548 27.0463 10.6776 26.1356 10.7691 25.5525C10.8611 24.9695 11.0105 24.1239 11.1015 23.6734C11.1921 23.2228 11.3669 22.5073 11.4898 22.0833C11.6122 21.6593 11.8328 21.0088 11.9792 20.6377C12.1252 20.2667 12.4157 19.6268 12.6243 19.2163C12.8329 18.8053 13.174 18.2093 13.3825 17.8912C13.5911 17.5732 13.9216 17.1068 14.1172 16.8553C14.3128 16.6033 14.7444 16.1181 15.0763 15.7764C15.4083 15.4348 15.9078 14.9684 16.1858 14.7405C16.4642 14.5121 16.865 14.2042 17.077 14.0553C17.289 13.9069 17.6792 13.6549 17.9441 13.4954C18.2091 13.3364 18.6971 13.0704 19.0281 12.9042C19.3595 12.7384 19.8576 12.51 20.1361 12.3963C20.4145 12.2831 20.8693 12.1111 21.1477 12.0142C21.4257 11.9174 21.957 11.7516 22.328 11.6466C22.6989 11.5415 23.4793 11.3594 24.0622 11.2423C24.6451 11.1252 25.48 10.9749 25.9169 10.9084C26.3539 10.8414 27.102 10.7436 27.5789 10.6906C28.0559 10.6376 28.8796 10.561 29.4095 10.5205C29.9395 10.4795 30.861 10.4323 31.4569 10.4159Z" fill="#FF6200"/>
<path fill-rule="evenodd" clip-rule="evenodd" d="M28.2181 26.0126C35.1797 26.015 36.7068 26.0271 37.0455 26.0825C37.2704 26.1196 37.6395 26.2073 37.8644 26.2776C38.0894 26.348 38.469 26.506 38.7075 26.6289C38.9459 26.7513 39.3039 26.9739 39.5023 27.1233C39.7013 27.2726 40.0371 27.5776 40.249 27.8002C40.461 28.0229 40.7361 28.3563 40.8599 28.5413C40.9842 28.7259 41.161 29.04 41.253 29.2385C41.345 29.4375 41.4664 29.7406 41.5228 29.9131C41.5791 30.0856 41.6572 30.4109 41.6962 30.6359C41.7569 30.9847 41.7675 32.1185 41.767 38.3092C41.7665 45.5084 41.7656 45.574 41.6702 45.6694C41.5767 45.7629 41.5083 45.7658 39.3939 45.7677C37.3687 45.7696 37.2064 45.7638 36.9978 45.5971L36.9838 39.1404C36.9708 33.0774 36.965 32.6659 36.8831 32.3946C36.8354 32.2356 36.7227 31.9648 36.6331 31.7923C36.543 31.6198 36.3768 31.3692 36.2636 31.2353C36.1504 31.1009 35.9606 30.911 35.8411 30.8132C35.7216 30.7154 35.4837 30.5612 35.3112 30.4711C35.1387 30.3805 34.8574 30.2687 34.6849 30.222C34.3969 30.1439 33.9884 30.1367 29.5544 30.1309C26.9049 30.1275 24.6826 30.142 24.6166 30.1622C24.5506 30.183 24.4692 30.2547 24.4359 30.3217C24.3887 30.4171 24.3757 32.053 24.3757 38.0081C24.3757 45.5089 24.3748 45.574 24.2794 45.6694C24.1859 45.7629 24.1185 45.7658 22.0032 45.7662C20.1403 45.7662 19.8074 45.7561 19.6065 45.6212V35.9121C19.6065 26.2583 19.607 26.2024 19.7033 26.1061C19.7992 26.0102 19.8541 26.0097 28.2181 26.0126ZM45.8088 26.0102H50.1488L50.3897 26.2511L50.3911 35.8759C50.393 45.481 50.393 45.5012 50.197 45.7658H45.765L45.6672 45.6332C45.5689 45.5012 45.5689 45.4829 45.5766 26.2468L45.8088 26.0102ZM30.6986 33.6243C32.8331 33.6257 33.0302 33.6325 33.1087 33.7086C33.1906 33.7876 33.1949 34.0936 33.193 39.6825C33.1916 45.5075 33.1906 45.574 33.0952 45.6694C33.0017 45.7629 32.9348 45.7658 30.6865 45.7658C28.4387 45.7658 28.3717 45.7629 28.2778 45.6694C28.1824 45.574 28.1815 45.5089 28.1815 39.6945C28.1815 33.8801 28.1824 33.8151 28.2778 33.7197C28.3717 33.6257 28.4377 33.6233 30.6986 33.6243V33.6243Z" fill="white"/>
</svg>
