<svg width="70" height="70" viewBox="0 0 70 70" fill="none" xmlns="http://www.w3.org/2000/svg">
<path d="M18.0839 36.963H15.6216L12.2124 43.0239L8.80316 37.0009L8.76528 36.963H6.30304L11.0002 44.9558L6 53.3653H8.42435L12.2124 46.8498L15.9626 53.3653H18.4248L13.3488 44.9558L18.0839 36.963Z" fill="white"/>
<path d="M21.4931 36.963H19.3718V53.3653H21.4931V36.963Z" fill="white"/>
<path d="M26.1525 36.963H23.9933V53.3653H32.7816V51.3955H26.1525V36.963Z" fill="white"/>
<path d="M36.3423 36.963H34.2209V53.3653H36.3423V36.963Z" fill="white"/>
<path d="M48.9565 49.2363L40.8501 37.0009L40.8122 36.963H38.8424V53.3653H41.0016V41.0541L49.108 53.3274L49.1459 53.3653H51.0778V36.963H48.9565V49.2363Z" fill="white"/>
<path d="M59.3736 44.9558L64.0329 37.1145L64.1087 36.963H61.6464L58.2372 43.0239L54.8279 37.0009L54.7901 36.963H52.3278L57.025 44.9558L52.0248 53.3653H54.4491L58.2372 46.8498L61.9873 53.3653H64.4496L59.3736 44.9558Z" fill="white"/>
<path d="M10.2805 27.7202H15.508L16.4929 30.0688H19.9022L14.5232 17.947H10.9624L6.07581 30.0688H9.44717L10.2805 27.7202ZM11.1139 25.4473L12.7428 21.1668L14.5232 25.4473H11.1139Z" fill="white"/>
<path d="M27.5162 22.3033L23.7281 17.947H21.0007V30.0688H24.1827V22.7578L27.251 26.3565H27.8192L30.8875 22.7578V30.0688H34.0695V17.947H31.3421L27.5162 22.3033Z" fill="white"/>
<path d="M48.1988 24.0079C48.1988 20.2956 45.5851 17.9091 41.494 17.9091H36.1528V30.0309H41.1909C45.623 30.0688 48.1988 27.8717 48.1988 24.0079ZM44.9411 24.0079C44.9411 27.4171 42.0243 27.6823 41.1531 27.6823H39.2969V20.2956H41.1152C43.5395 20.2956 44.9411 21.6593 44.9411 24.0079Z" fill="white"/>
<path d="M60.0934 20.9396V27.0762L64.0329 31.0158V17H50.0551L53.9946 20.9396H60.0934Z" fill="white"/>
<path d="M50.0551 25.4473V30.9779H55.6235L59.6767 26.9247H54.1083V21.3941L50.0551 25.4473Z" fill="white"/>
</svg>
