<svg width="50" height="50" viewBox="0 0 50 50" fill="none" xmlns="http://www.w3.org/2000/svg">
<g clip-path="url(#clip0_38_254)">
<g clip-path="url(#clip1_38_254)">
<path d="M11.2643 23.6712C11.2262 23.9873 11.2003 24.307 11.1855 24.6293L-0.170044 24.5207C-0.134327 23.6662 -0.055503 22.8217 0.0639645 21.9919L11.2643 23.6712Z" fill="#149DDF"/>
<path d="M11.8888 20.8684C11.7853 21.1758 11.6929 21.487 11.6104 21.8031L0.589844 19.3447C0.800451 18.5175 1.0517 17.7063 1.34237 16.9148L11.8888 20.8684Z" fill="#149DDF"/>
<path d="M13.0945 18.2396C12.9258 18.5224 12.7681 18.8126 12.6216 19.1089L2.40649 14.4318C2.78337 13.6662 3.19843 12.9242 3.6492 12.2056L13.0945 18.2396Z" fill="#149DDF"/>
<path d="M14.8348 15.9049C14.6069 16.1506 14.3889 16.4037 14.182 16.6655L5.20349 9.99428C5.73063 9.32383 6.29101 8.68054 6.88219 8.06812L14.8348 15.9049Z" fill="#149DDF"/>
<path d="M17.0407 13.9737C16.7635 14.1675 16.4938 14.3725 16.2315 14.5873L8.86145 6.22211C9.51544 5.6739 10.1978 5.15902 10.9047 4.67871L17.0407 13.9737Z" fill="#149DDF"/>
<path d="M19.6197 12.5462C19.3019 12.6783 18.9915 12.8228 18.6873 12.9784L13.2263 3.28211C13.9801 2.88083 14.756 2.51782 15.5529 2.19556L19.6197 12.5462Z" fill="#149DDF"/>
<path d="M22.4585 11.7006C22.1161 11.7624 21.7787 11.8377 21.4461 11.9254L18.1183 1.31293C18.9398 1.07957 19.7773 0.88695 20.6296 0.737549L22.4585 11.7006Z" fill="#149DDF"/>
<path d="M25.9083 0.373229L25.423 11.4857C25.2641 11.4783 25.104 11.4758 24.9427 11.4758C24.753 11.4758 24.5658 11.4795 24.3786 11.4882L23.3243 0.413975C23.8798 0.375699 24.4414 0.357178 25.0067 0.357178C25.3085 0.357178 25.609 0.362117 25.9083 0.373229Z" fill="#149DDF"/>
<path d="M31.1587 1.11531L28.3727 11.908C28.0353 11.8203 27.6941 11.7463 27.348 11.687L28.6166 0.614014C29.4787 0.73872 30.3273 0.906642 31.1587 1.11531Z" fill="#149DDF"/>
<path d="M36.1443 2.95261L31.1661 12.9625C30.8545 12.8044 30.5367 12.6575 30.2115 12.5242L33.7599 1.92285C34.5752 2.22536 35.3708 2.56985 36.1443 2.95261Z" fill="#149DDF"/>
<path d="M40.6397 5.80477L33.6626 14.596C33.3928 14.3737 33.1145 14.1626 32.8275 13.9626L38.5201 4.29224C39.2541 4.7602 39.9611 5.2652 40.6397 5.80477Z" fill="#149DDF"/>
<path d="M44.4442 9.53968L35.7502 16.7233C35.5346 16.4504 35.308 16.1849 35.0715 15.9294L42.6842 7.61475C43.3037 8.22593 43.8912 8.86799 44.4442 9.53968Z" fill="#149DDF"/>
<path d="M47.3854 13.9946L37.3279 19.2409C37.1777 18.9298 37.0151 18.6236 36.8402 18.326L46.0663 11.7388C46.5442 12.466 46.9851 13.218 47.3854 13.9946Z" fill="#149DDF"/>
<path d="M49.3252 18.9693L38.328 22.0265C38.248 21.6919 38.1556 21.3622 38.0497 21.0375L48.5099 16.4875C48.8239 17.2951 49.0961 18.1236 49.3252 18.9693Z" fill="#149DDF"/>
<path d="M50.17 24.2416L38.7098 24.943C38.7024 24.6022 38.6814 24.2639 38.6482 23.9293L49.8966 21.645C50.0321 22.497 50.1245 23.3638 50.17 24.2416Z" fill="#149DDF"/>
<path d="M31.0503 15.9073C29.9751 15.911 28.629 17.2926 28.3654 18.3384C27.9331 18.0087 25.9095 17.4704 24.2087 18.4779C22.8539 19.2793 22.2504 20.146 21.7627 21.645C23.5103 19.7596 25.6386 19.546 28.1326 20.1547C28.1425 20.1572 27.7003 21.7067 27.6301 21.8339C27.3924 22.2673 27.2717 22.713 26.949 23.0871C26.3246 23.8095 25.5068 24.3997 24.5584 24.5873C23.4561 24.8059 22.1802 24.4873 21.2158 23.9366C20.1234 23.3131 19.3191 22.292 19.0408 21.0573C18.8462 20.1979 18.8831 19.2842 19.1639 18.4483C19.228 18.2582 19.3056 18.0717 19.3942 17.8914C19.898 16.8691 20.8131 16.1641 21.7836 15.6134C22.844 15.0121 24.0498 14.6775 25.2703 14.6775C26.2692 14.6775 27.2188 14.8849 28.0821 15.2578C28.0255 15.2331 27.9368 14.9627 27.9035 14.901C27.3271 13.8354 26.1645 13.2662 25.0018 13.0699C22.8822 12.7118 20.6616 13.281 19.0346 14.6972C18.0419 15.5603 17.2882 16.6925 16.8904 17.984C16.6871 18.6483 16.5763 19.3558 16.5763 20.088C16.5763 21.7302 17.1281 23.2415 18.0592 24.4466C18.4287 24.9244 18.8585 25.3553 19.3351 25.7257C19.4595 25.8221 19.5901 25.9171 19.7219 26.006C20.2564 26.3653 20.8389 26.6543 21.4609 26.8592C22.8699 27.3235 24.4205 27.3321 25.8344 26.8814C27.5648 26.3308 29.0477 25.1059 29.9209 23.5094C30.7153 22.0599 30.538 20.5881 30.7215 18.9817C30.7646 18.6026 30.921 18.1952 31.1599 17.8989C31.4038 17.5951 31.9211 17.3 32.3103 17.2926C32.7007 17.2852 33.0813 17.3926 33.4557 17.5013C33.1847 16.4579 32.1268 15.9035 31.0503 15.9073ZM31.075 17.0926C30.9087 17.0926 30.7732 16.9568 30.7732 16.7901C30.7732 16.6234 30.9087 16.4888 31.075 16.4888C31.2412 16.4888 31.3767 16.6234 31.3767 16.7901C31.3767 16.9568 31.2412 17.0926 31.075 17.0926Z" fill="#585558"/>
<path d="M49.3363 27.8792C48.3313 40.44 37.8612 50.3239 25.0807 50.3573C12.3001 50.3239 1.82886 40.4412 0.823853 27.8792C1.09111 27.1791 1.97419 26.8272 2.66759 27.3013C3.66028 27.978 4.81062 28.7595 5.62595 29.3016C6.49917 29.8819 7.4155 30.4067 8.37124 30.8437C11.1646 32.3069 14.5478 32.56 17.5382 31.5253C18.2316 31.2845 19.2822 30.7264 19.8672 30.2819C21.0643 29.3732 21.9955 28.3953 23.5621 28.0199C24.056 27.9014 24.5671 27.836 25.0794 27.8273C25.593 27.836 26.1041 27.9014 26.598 28.0199C28.1647 28.3953 29.0945 29.3732 30.2917 30.2819C30.8779 30.7264 31.9285 31.2845 32.6219 31.5253C35.6123 32.5612 38.9956 32.3069 41.7901 30.8425C42.7446 30.4067 43.6609 29.8807 44.5329 29.3016C45.3483 28.7595 46.4986 27.978 47.4925 27.3013C48.1859 26.8272 49.069 27.1791 49.3363 27.8792Z" fill="url(#paint0_radial_38_254)"/>
<path d="M9.0203 37.1803C9.10405 37.147 10.869 35.4443 10.869 35.4443L10.5352 35.2875L10.0869 35.0776C10.0869 35.0776 9.93663 32.623 8.0387 32.7069C7.34653 32.7378 6.63342 32.9613 6.04224 33.3243C5.3242 33.7663 4.69115 34.2565 4.42635 35.0949C4.10613 36.1074 4.43005 37.205 5.26385 37.8607C5.87228 38.3397 6.68515 38.5225 7.43151 38.6645L7.74065 37.9804C7.18519 37.8607 6.61002 37.731 6.15309 37.3915C5.90553 37.2075 5.70231 36.968 5.5422 36.7037C5.40795 36.4802 5.3008 36.2345 5.27494 35.9752C5.24168 35.6419 5.2306 35.1134 5.41165 34.8307C5.86119 34.133 6.59524 33.8108 7.37855 33.6638C8.17787 33.5132 8.91192 33.891 9.11268 34.3911C9.31343 34.8912 9.42058 35.6036 9.33806 35.8036C9.25554 36.0036 8.588 36.6951 8.588 36.6951L9.02154 37.1791L9.0203 37.1803Z" fill="#ECFFB2"/>
<path d="M11.5439 36.8025L13.3975 38.2199L12.9861 38.7212L12.3248 38.2483L12.3383 40.1671L13.9751 39.7633L13.5625 39.2806L14.0022 38.7212L15.6514 40.2041L14.9912 40.6721L14.607 40.3005L12.1203 41.1401L10.869 42.3661L11.4331 42.9712L11.0217 43.4403L9.26294 42.076L9.66199 41.5253L10.1977 41.9661L11.4885 40.5338L11.5845 37.8076L11.1584 37.3544L11.5439 36.8025Z" fill="#ECFFB2"/>
<path d="M16.5676 40.2817L16.2388 40.8942L16.8497 41.2078L15.3779 45.0996L14.3914 45.2404V45.554L18.1638 47.1233L19.51 45.4602L18.9619 45.0527L17.851 46.0096L16.16 45.3354L17.9446 41.6486C17.9446 41.6486 18.5555 41.7745 18.5703 41.7276C18.585 41.6807 18.9151 41.1781 18.9151 41.1781L16.5676 40.2842V40.2817Z" fill="#ECFFB2"/>
<path d="M26.5869 44.528C26.5709 43.7353 26.5549 42.9438 26.5389 42.1512L25.758 42.0709C25.7297 42.0684 25.6989 42.066 25.6767 42.082C25.6583 42.0956 25.6496 42.1203 25.6422 42.1425C25.6004 42.2685 25.5597 42.3956 25.5179 42.5216C25.0277 42.3623 24.5326 42.2018 24.0202 42.1573C23.5078 42.1129 22.9672 42.1981 22.5435 42.4907C21.4486 43.2501 21.2121 44.7033 21.5237 45.8664C21.9264 47.3753 23.6877 48.5643 25.1644 47.9099C25.8713 47.5963 26.1681 47.2641 26.6448 46.669C26.4921 46.4702 26.4736 46.2368 26.3209 46.0381C25.9538 46.4739 25.6829 46.6566 25.1693 46.9024C24.7222 47.116 24.2012 47.195 23.7382 46.9888C23.0053 46.6616 22.3674 45.8689 22.3563 45.096C22.3477 44.4971 22.4326 44.0773 22.7245 43.555C22.8366 43.355 23.3773 43.008 23.5891 42.9241C24.0461 42.7451 24.652 42.9303 25.0437 43.1908C25.4809 43.4809 25.7088 43.9872 25.9588 44.428C25.9797 44.4638 26.0019 44.5021 26.0388 44.5206C26.0696 44.5366 26.1066 44.5354 26.1411 44.5354C26.2901 44.5317 26.4379 44.5292 26.5869 44.5255V44.528Z" fill="#ECFFB2"/>
<path d="M31.0085 40.9771C29.379 41.224 28.4024 42.8156 28.6524 44.4726C28.9024 46.1296 30.2843 47.2273 31.9137 46.9803C33.5419 46.7334 34.659 45.19 34.409 43.5317C34.159 41.8735 32.6367 40.7314 31.0085 40.9771ZM31.8644 46.2691C30.7363 46.4395 29.8741 45.4172 29.7005 44.2676C29.5268 43.1181 30.0232 41.871 31.1501 41.7006C32.277 41.5303 33.1909 42.5551 33.3646 43.7021C33.5382 44.8492 32.9914 46.0975 31.8644 46.2679V46.2691Z" fill="#ECFFB2"/>
<path d="M37.6667 43.4402L37.307 43.797L37.8083 44.3144L39.4833 43.0438L38.8576 42.4166L38.3958 42.7463L36.1493 40.0472L40.9071 41.5214L41.3295 41.1609C41.3295 41.1609 38.4968 37.5518 38.4808 37.4888C38.4648 37.4259 38.95 36.9863 38.9352 36.9233C38.9205 36.8604 38.5128 36.343 38.5128 36.343L36.8846 37.8333L37.3193 38.2902L37.9647 37.8333L39.1224 39.8422L35.9449 38.7199L34.207 40.12L34.5667 40.4534L35.3019 40.12L37.6654 43.439L37.6667 43.4402Z" fill="#ECFFB2"/>
<path d="M43.3234 38.0198L43.066 38.4569L43.6818 38.8298L44.9775 37.1715L44.2126 36.7246L43.8505 37.1617L40.9907 35.1281L45.9665 35.3355L46.283 34.8787C46.283 34.8787 42.6238 32.1154 42.5931 32.0586C42.5623 32.0018 42.9194 31.4523 42.8874 31.3967C42.8554 31.3412 42.3307 30.9436 42.3307 30.9436L41.1373 32.8019L41.6743 33.1328L42.1817 32.5253L43.8136 34.1699L40.4562 33.8995L39.1334 35.6985L39.567 35.9282L40.1926 35.417L43.3234 38.0198Z" fill="#ECFFB2"/>
</g>
</g>
<defs>
<radialGradient id="paint0_radial_38_254" cx="0" cy="0" r="1" gradientUnits="userSpaceOnUse" gradientTransform="translate(25.7507 33.1206) scale(17.4533 17.4972)">
<stop stop-color="white"/>
<stop offset="0.71" stop-color="#94C20D"/>
<stop offset="1" stop-color="#3EAB33"/>
</radialGradient>
<clipPath id="clip0_38_254">
<rect width="50" height="50" fill="white"/>
</clipPath>
<clipPath id="clip1_38_254">
<rect width="50.3401" height="50" fill="white" transform="translate(-0.170044 0.357178)"/>
</clipPath>
</defs>
</svg>
