<svg width="70" height="70" viewBox="0 0 70 70" fill="none" xmlns="http://www.w3.org/2000/svg">
<path d="M62.8613 5.87207L63 64.0449H6.07031V34.8896L6.07324 5.73145L62.8613 5.87207ZM51.1172 26.8467C50.28 26.8163 49.0362 26.966 48.3535 27.1787C47.6683 27.3915 46.5488 27.9745 45.8662 28.4746C45.0013 29.1074 44.346 29.9255 43.7188 31.1689C42.9671 32.653 42.815 33.2587 42.8232 34.751C42.8316 35.7375 42.9887 37.0172 43.1738 37.5947L43.5166 38.6416L37.9902 44.1387C35.7686 43.4479 34.682 43.3291 33.8447 43.4092C33.0849 43.481 31.9655 43.7516 31.3574 44.0059C30.6831 44.2877 29.6799 45.1367 28.79 46.1758C27.8975 47.2121 27.1538 48.4169 26.8857 49.2598C26.5956 50.1634 26.4884 51.2166 26.5713 52.2998C26.6681 53.5155 26.9634 54.4386 27.6846 55.7539C28.2925 56.862 29.0778 57.8372 29.7383 58.2959C30.3242 58.7077 31.3022 59.2524 31.9102 59.5039C32.717 59.8382 33.5381 59.9299 34.9502 59.8359C36.1688 59.7585 37.2939 59.4956 37.9902 59.1309C38.5981 58.8131 39.4237 58.263 39.8271 57.9121C40.2306 57.5611 40.9275 56.5885 41.3779 55.7539C41.8284 54.9138 42.2817 53.554 42.3867 52.7139C42.5111 51.7052 42.442 50.6825 42.1768 49.6738L41.7783 48.1543L47.2529 42.3506C48.8557 42.8673 50.0666 43.0218 50.9785 43.0273C52.1502 43.0329 53.0403 42.8476 54.0186 42.3916C54.7784 42.0351 55.8338 41.3116 56.3672 40.7783C56.8978 40.2449 57.6417 39.1975 58.0176 38.4541C58.5675 37.3598 58.6976 36.7019 58.6865 35.0273C58.6755 33.5821 58.5032 32.5787 58.1191 31.7109C57.8179 31.0285 57.1443 29.9894 56.6221 29.4062C56.1025 28.8232 54.9908 28.022 54.1562 27.624C53.1865 27.1627 52.087 26.8827 51.1172 26.8467ZM34.8115 10.249C33.778 10.1965 32.4872 10.327 31.7715 10.5508C31.0889 10.7665 29.9063 11.4898 29.1465 12.1611C28.2539 12.9487 27.5324 13.9078 27.1123 14.875C26.5485 16.1683 26.48 16.6555 26.6182 18.4463C26.7066 19.5847 26.8142 20.8507 26.8584 21.2568C26.9216 21.8619 26.4513 22.4955 24.2412 24.7803L21.5469 27.5654C20.0464 26.9243 18.9598 26.7334 18.1611 26.7334C17.3626 26.7307 16.0891 26.9413 15.3291 27.1982C14.4116 27.5078 13.4772 28.1379 12.5459 29.0664C11.6175 29.9976 10.9873 30.9313 10.6777 31.8486C10.4207 32.6086 10.2132 34.0408 10.2188 35.0273C10.2243 36.2248 10.4152 37.2384 10.791 38.0674C11.0979 38.75 11.8112 39.7891 12.3721 40.3721C12.9359 40.9551 13.9859 41.7321 14.707 42.0996C15.4283 42.4643 16.6109 42.8396 17.332 42.9336C18.1583 43.0386 19.2061 42.945 20.165 42.6797C21.0024 42.4475 22.2462 41.8361 22.9287 41.3193C23.6113 40.8052 24.5428 39.7691 24.9932 39.0176C25.6369 37.9455 25.8416 37.2348 25.9355 35.7178C26.0101 34.5185 25.9074 33.2777 25.667 32.457L25.2773 31.1309L30.8047 25.5898C32.7306 26.2309 33.9742 26.3824 34.8115 26.3438C35.6489 26.305 36.8926 26.0289 37.5752 25.7305C38.2578 25.432 39.3222 24.6973 39.9385 24.0977C40.621 23.4345 41.2975 22.3813 41.665 21.417C42.0326 20.4553 42.2736 19.2 42.2764 18.2383C42.2791 17.3652 42.0937 16.0889 41.8672 15.4062C41.6406 14.7209 41.0355 13.6646 40.5215 13.0566C40.0103 12.4487 38.9184 11.5895 38.0977 11.1445C36.9812 10.5393 36.1573 10.3154 34.8115 10.249ZM50.6328 31.999C50.8981 31.9936 51.4588 32.1561 51.876 32.3633C52.3098 32.5789 52.833 33.1982 53.0928 33.8145C53.3772 34.4857 53.4823 35.1903 53.3691 35.6904C53.2696 36.1326 52.846 36.7851 52.4287 37.1416C51.9452 37.5531 51.3154 37.7909 50.7021 37.791C49.9947 37.791 49.5104 37.5671 48.9053 36.9619C48.3942 36.4508 48.074 35.8428 48.0684 35.373C48.0656 34.9557 48.2723 34.1896 48.5293 33.6729C48.7862 33.159 49.2565 32.574 49.5742 32.3721C49.8893 32.1704 50.3675 32.0018 50.6328 31.999ZM18.0225 31.9961C18.4397 31.9906 19.0616 32.1179 19.4043 32.2754C19.747 32.433 20.1729 32.897 20.3525 33.3115C20.5321 33.7232 20.7038 34.2452 20.7314 34.4746C20.7591 34.7012 20.7666 35.1681 20.75 35.5107C20.7306 35.8534 20.4131 36.4429 20.04 36.8242C19.5289 37.3435 19.0644 37.5171 18.1748 37.5254C17.2353 37.5337 16.8264 37.3734 16.2158 36.7656C15.6825 36.2296 15.4496 35.7212 15.4551 35.0967C15.4606 34.602 15.6714 33.8305 15.9229 33.3828C16.1715 32.9354 16.5772 32.4411 16.8203 32.2861C17.0635 32.1314 17.6053 32.0017 18.0225 31.9961Z" fill="white"/>
</svg>
