<svg width="106" height="31" viewBox="0 0 106 31" fill="none" xmlns="http://www.w3.org/2000/svg">
<path d="M7.69836 25.2302C6.70942 25.2302 5.80574 25.0597 4.98731 24.7187C4.18593 24.3777 3.49538 23.8406 2.91566 23.1074C2.35299 22.3742 1.90967 21.4194 1.58571 20.2429C1.2788 19.0493 1.12534 17.6086 1.12534 15.9205V15.5113C1.12534 13.9256 1.26175 12.5445 1.53456 11.368C1.82442 10.1745 2.24216 9.19407 2.78778 8.42679C3.3334 7.64247 4.01542 7.06274 4.83385 6.68763C5.66933 6.31252 6.62417 6.12496 7.69836 6.12496C8.7896 6.12496 9.74443 6.31252 10.5629 6.68763C11.3813 7.06274 12.0633 7.64247 12.6089 8.42679C13.1546 9.19407 13.5723 10.1745 13.8622 11.368C14.152 12.5445 14.2969 13.9256 14.2969 15.5113V15.9205C14.2969 17.6086 14.135 19.0493 13.811 20.2429C13.5041 21.4194 13.0608 22.3742 12.4811 23.1074C11.9013 23.8406 11.2108 24.3777 10.4094 24.7187C9.60803 25.0597 8.70434 25.2302 7.69836 25.2302ZM7.69836 22.8005C8.51679 22.8005 9.19881 22.6129 9.74443 22.2378C10.3071 21.8456 10.7248 21.2915 10.9977 20.5754C11.2705 19.8422 11.4069 18.9726 11.4069 17.9666V13.3885C11.4069 12.4166 11.2705 11.5641 10.9977 10.8309C10.7419 10.0978 10.3412 9.53508 9.79558 9.14292C9.26701 8.7337 8.56794 8.5291 7.69836 8.5291C6.86288 8.5291 6.1638 8.7337 5.60113 9.14292C5.05551 9.53508 4.6463 10.0978 4.37349 10.8309C4.11773 11.5641 3.98985 12.4166 3.98985 13.3885V17.9666C3.98985 18.9726 4.13478 19.8422 4.42464 20.5754C4.7145 21.2915 5.13224 21.8456 5.67786 22.2378C6.22348 22.6129 6.89698 22.8005 7.69836 22.8005ZM21.4714 25V11.7517H16.7398V9.55213H21.5225L21.9062 6.35514H24.2592V25H21.4714ZM36.0451 25.2558C34.4082 25.2558 33.0442 25 31.9529 24.4885C30.8617 23.977 30.0433 23.2608 29.4976 22.3401C28.952 21.4194 28.6792 20.3708 28.6792 19.1943H31.646C31.6801 20.0638 31.8762 20.78 32.2343 21.3426C32.6094 21.8883 33.1209 22.289 33.7688 22.5447C34.4338 22.8005 35.2181 22.9283 36.1218 22.9283C37.0425 22.9283 37.8013 22.809 38.3981 22.5703C39.0119 22.3145 39.4723 21.965 39.7792 21.5217C40.0861 21.0613 40.2395 20.5157 40.2395 19.8848C40.2395 19.288 40.1117 18.8106 39.8559 18.4526C39.6001 18.0945 39.2336 17.8046 38.7561 17.583C38.2958 17.3613 37.7672 17.1823 37.1704 17.0459C36.5737 16.8924 35.9343 16.7475 35.2522 16.6111C34.3826 16.4406 33.5813 16.2275 32.8481 15.9717C32.1149 15.7159 31.4755 15.392 30.9299 14.9998C30.3843 14.6076 29.958 14.1217 29.6511 13.542C29.3442 12.9623 29.1907 12.2547 29.1907 11.4192C29.1907 10.2938 29.4721 9.339 30.0347 8.55467C30.6145 7.75329 31.4158 7.148 32.4389 6.73878C33.4619 6.31252 34.664 6.09938 36.0451 6.09938C37.5285 6.09938 38.7817 6.32957 39.8047 6.78993C40.8278 7.23325 41.6036 7.86412 42.1322 8.68255C42.6778 9.50098 42.9591 10.4814 42.9762 11.6238H40.0094C39.9923 10.9418 39.8303 10.362 39.5234 9.88462C39.2165 9.4072 38.7732 9.04062 38.1935 8.78486C37.6137 8.5291 36.8806 8.40122 35.9939 8.40122C35.2437 8.40122 34.5873 8.51205 34.0246 8.7337C33.479 8.95536 33.0527 9.2708 32.7458 9.68001C32.4559 10.0722 32.311 10.5496 32.311 11.1123C32.311 11.6408 32.4218 12.0756 32.6435 12.4166C32.8822 12.7406 33.2062 13.0049 33.6154 13.2095C34.0416 13.4141 34.5446 13.5846 35.1244 13.721C35.7041 13.8404 36.3264 13.9682 36.9914 14.1047C37.6734 14.224 38.3299 14.3775 38.9607 14.565C39.5916 14.7355 40.1713 14.9572 40.6999 15.23C41.2285 15.4858 41.6888 15.8182 42.081 16.2275C42.4902 16.6196 42.8057 17.097 43.0273 17.6597C43.249 18.2224 43.3598 18.8874 43.3598 19.6546C43.3598 20.9334 43.0529 21.982 42.4391 22.8005C41.8252 23.6189 40.9727 24.2327 39.8815 24.6419C38.7902 25.0512 37.5114 25.2558 36.0451 25.2558ZM46.958 29.2712V11.4959H49.5412L49.6946 13.7722H49.8737C50.1806 12.9878 50.7092 12.374 51.4594 11.9307C52.2096 11.4703 53.0621 11.2401 54.017 11.2401C55.2105 11.2401 56.1909 11.513 56.9582 12.0586C57.7425 12.6042 58.3223 13.397 58.6974 14.4371C59.0895 15.4602 59.2856 16.6793 59.2856 18.0945V18.4781C59.2856 19.6376 59.1663 20.6436 58.9276 21.4961C58.6888 22.3316 58.3393 23.0307 57.8789 23.5933C57.4186 24.156 56.8644 24.5737 56.2165 24.8465C55.5856 25.1194 54.861 25.2558 54.0426 25.2558C53.0877 25.2558 52.2352 25.0256 51.485 24.5652C50.7347 24.1048 50.1976 23.4995 49.8737 22.7493H49.6946V29.2712H46.958ZM53.0195 23.0051C53.7186 23.0051 54.3154 22.8687 54.8098 22.5959C55.3043 22.306 55.6794 21.9053 55.9352 21.3938C56.208 20.8823 56.3444 20.2599 56.3444 19.5267V16.9947C56.3444 16.2616 56.208 15.6307 55.9352 15.1021C55.6794 14.5735 55.3043 14.1729 54.8098 13.9C54.3154 13.6272 53.7186 13.4908 53.0195 13.4908C51.9965 13.4908 51.1866 13.8233 50.5898 14.4883C49.993 15.1362 49.6946 16.0143 49.6946 17.1226V19.3989C49.6946 20.132 49.831 20.7714 50.1039 21.3171C50.3767 21.8456 50.7603 22.2634 51.2548 22.5703C51.7492 22.8601 52.3375 23.0051 53.0195 23.0051ZM66.8371 25.2558C65.6606 25.2558 64.6802 24.9829 63.8959 24.4373C63.1116 23.8917 62.5233 23.1159 62.1311 22.1099C61.756 21.1039 61.5685 19.8933 61.5685 18.4781V18.0945C61.5685 16.9351 61.6878 15.9291 61.9265 15.0765C62.1652 14.224 62.5148 13.5164 62.9751 12.9537C63.4355 12.374 63.9897 11.9477 64.6376 11.6749C65.3026 11.3851 66.0357 11.2401 66.8371 11.2401C67.809 11.2401 68.6615 11.4703 69.3947 11.9307C70.1449 12.374 70.682 12.9878 71.006 13.7722H71.185L71.3129 11.4959H73.9216V25H71.185V22.7493H71.006C70.665 23.4995 70.1194 24.1048 69.3691 24.5652C68.636 25.0256 67.7919 25.2558 66.8371 25.2558ZM67.8602 23.0051C68.8832 23.0051 69.6846 22.6811 70.2643 22.0332C70.8611 21.3682 71.1594 20.4901 71.1594 19.3989V17.1226C71.1594 16.3724 71.023 15.733 70.7502 15.2044C70.4945 14.6588 70.1194 14.2411 69.6249 13.9512C69.1304 13.6443 68.5422 13.4908 67.8602 13.4908C67.1611 13.4908 66.5643 13.6272 66.0698 13.9C65.5754 14.1729 65.1917 14.5735 64.9189 15.1021C64.6461 15.6307 64.5097 16.2616 64.5097 16.9947V19.5267C64.5097 20.2599 64.6461 20.8823 64.9189 21.3938C65.1917 21.9053 65.5754 22.306 66.0698 22.5959C66.5643 22.8687 67.1611 23.0051 67.8602 23.0051ZM83.5454 25.2558C82.1302 25.2558 80.9537 24.9744 80.0159 24.4118C79.0952 23.8491 78.4046 23.0477 77.9443 22.0076C77.4839 20.9675 77.2537 19.7399 77.2537 18.3247V18.2224C77.2537 16.6537 77.518 15.3493 78.0466 14.3093C78.5751 13.2692 79.3083 12.5019 80.2461 12.0074C81.2009 11.4959 82.3007 11.2401 83.5454 11.2401C84.7219 11.2401 85.7449 11.4448 86.6145 11.854C87.4841 12.2632 88.1661 12.8429 88.6606 13.5931C89.1721 14.3434 89.4534 15.2385 89.5046 16.2786H86.8191C86.7339 15.3579 86.3928 14.6673 85.7961 14.207C85.1993 13.7295 84.4491 13.4908 83.5454 13.4908C82.8463 13.4908 82.2325 13.6358 81.7039 13.9256C81.1754 14.2155 80.7661 14.6247 80.4763 15.1533C80.2035 15.6648 80.0671 16.2701 80.0671 16.9692V19.5267C80.0671 20.2599 80.2035 20.8823 80.4763 21.3938C80.7661 21.9053 81.1668 22.306 81.6784 22.5959C82.1899 22.8687 82.8122 23.0051 83.5454 23.0051C84.5514 23.0051 85.3357 22.7493 85.8984 22.2378C86.4611 21.7092 86.768 21.0357 86.8191 20.2173H89.5302C89.4961 21.2233 89.2233 22.1099 88.7117 22.8772C88.2002 23.6274 87.4926 24.2157 86.5889 24.6419C85.7023 25.0512 84.6878 25.2558 83.5454 25.2558ZM98.0841 25.2558C96.6519 25.2558 95.4583 24.9659 94.5035 24.3862C93.5657 23.8065 92.8581 22.988 92.3807 21.9309C91.9203 20.8737 91.6901 19.6461 91.6901 18.248V18.0689C91.6901 16.6026 91.9544 15.3579 92.483 14.3348C93.0116 13.3118 93.7447 12.5445 94.6825 12.033C95.6203 11.5044 96.703 11.2401 97.9307 11.2401C99.2436 11.2401 100.352 11.5044 101.256 12.033C102.159 12.5445 102.85 13.2692 103.327 14.207C103.805 15.1277 104.043 16.2104 104.043 17.4551V18.9385H94.5035C94.5035 19.092 94.5035 19.2454 94.5035 19.3989C94.5035 19.5353 94.5035 19.6717 94.5035 19.8081C94.5035 20.4731 94.6484 21.0613 94.9383 21.5728C95.2452 22.0673 95.6629 22.4509 96.1915 22.7237C96.7201 22.9966 97.3254 23.133 98.0074 23.133C98.9452 23.133 99.7039 22.9113 100.284 22.468C100.88 22.0076 101.23 21.4108 101.332 20.6777H103.941C103.89 21.5984 103.609 22.3998 103.097 23.0818C102.585 23.7638 101.895 24.3009 101.025 24.6931C100.156 25.0682 99.1754 25.2558 98.0841 25.2558ZM94.5035 17.4295L94.171 17.1482H101.69L101.358 17.4807V17.0203C101.358 15.7074 101.051 14.7611 100.437 14.1814C99.8233 13.6017 99.0048 13.3118 97.9818 13.3118C97.2316 13.3118 96.5922 13.4653 96.0636 13.7722C95.5521 14.062 95.1599 14.4883 94.8871 15.051C94.6314 15.5966 94.5035 16.253 94.5035 17.0203V17.4295Z" fill="white"/>
</svg>
