<svg width="95" height="36" viewBox="0 0 95 36" fill="none" xmlns="http://www.w3.org/2000/svg">
<path d="M32.1689 10.4333C33.0324 10.2564 34.6037 10.1233 36.1344 10.1233C38.1504 10.1233 39.3905 10.3668 40.4099 11.0761C40.8935 11.3609 41.2922 11.7697 41.5647 12.2603C41.8373 12.7509 41.9737 13.3054 41.9601 13.8664C41.9601 15.2396 41.0965 16.5025 39.4798 17.0998V17.1436C41.0527 17.543 42.4925 18.7831 42.4925 20.8429C42.5031 21.4327 42.3789 22.0171 42.1294 22.5515C41.8798 23.086 41.5116 23.5565 41.0527 23.927C39.9895 24.8571 38.2397 25.323 35.5143 25.323C34.396 25.3268 33.2786 25.2596 32.1689 25.1217V10.4333ZM34.8715 16.3255H36.2675C38.1504 16.3255 39.2136 15.4393 39.2136 14.1764C39.2136 12.7805 38.1504 12.1377 36.4233 12.1377C35.9041 12.12 35.3846 12.157 34.8731 12.2481V16.3239L34.8715 16.3255ZM34.8715 23.1917C35.3497 23.2426 35.8305 23.2649 36.3113 23.2583C38.0611 23.2583 39.6113 22.5944 39.6113 20.7553C39.6113 19.0282 38.1049 18.3205 36.222 18.3205H34.8699V23.1901L34.8715 23.1917ZM54.6714 19.671C54.6714 23.6365 51.8795 25.4074 49.133 25.4074C46.0765 25.4074 43.7277 23.2972 43.7277 19.8479C43.7277 16.3028 46.0538 14.1326 49.3099 14.1326C52.5239 14.1326 54.6714 16.3921 54.6714 19.671ZM46.5424 19.7814C46.5424 21.8639 47.5617 23.4368 49.2223 23.4368C50.7725 23.4368 51.8584 21.9078 51.8584 19.7375C51.8584 18.0543 51.1052 16.1275 49.245 16.1275C47.3183 16.1259 46.5424 17.9796 46.5424 19.7814ZM62.5618 25.1639L62.3849 23.9676H62.3183C61.6544 24.8101 60.5247 25.4074 59.1287 25.4074C56.9585 25.4074 55.7395 23.8345 55.7395 22.1951C55.7395 19.4713 58.1548 18.0965 62.1414 18.1192V17.9423C62.1414 17.2329 61.8541 16.0593 59.9484 16.0593C58.9272 16.0609 57.925 16.3361 57.0461 16.8563L56.5137 15.0838C57.3107 14.5968 58.7067 14.131 60.4094 14.131C63.8652 14.131 64.8619 16.3239 64.8619 18.676V22.5716C64.8507 23.4402 64.905 24.3084 65.0242 25.1688H62.5618V25.1639ZM62.2079 19.8917C60.2812 19.8479 58.4421 20.2683 58.4421 21.9078C58.4421 22.971 59.1287 23.4579 59.9923 23.4579C60.4579 23.4665 60.9143 23.3277 61.2962 23.0612C61.6782 22.7947 61.966 22.4143 62.1187 21.9743C62.1791 21.781 62.2092 21.5795 62.2079 21.377V19.8934V19.8917ZM67.2074 17.8546C67.2074 16.3937 67.1847 15.3516 67.1181 14.3777H69.488L69.5773 16.4359H69.6666C70.1974 14.9069 71.4602 14.1326 72.6127 14.1326C72.831 14.13 73.0488 14.1523 73.262 14.1991V16.7687C73.0002 16.7108 72.7331 16.6809 72.465 16.6794C71.1583 16.6794 70.272 17.5219 70.0302 18.7393C69.9756 19.0169 69.9463 19.2988 69.9425 19.5817V25.1639H67.2074V17.8595V17.8546ZM84.5839 9.4367V22.1301C84.5839 23.2372 84.6277 24.4335 84.6731 25.1655H82.2383L82.128 23.4595H82.076C81.4267 24.6558 80.1282 25.4074 78.5536 25.4074C75.9841 25.4074 73.9454 23.2144 73.9454 19.8885C73.9226 16.2785 76.1821 14.1293 78.7744 14.1293C80.258 14.1293 81.3212 14.7494 81.8098 15.5464H81.8536V9.4367H84.5774H84.5839ZM81.8601 18.8724C81.8599 18.6344 81.8376 18.3969 81.7936 18.163C81.5501 17.0998 80.6865 16.2363 79.4448 16.2363C77.695 16.2363 76.7194 17.7864 76.7194 19.8073C76.7194 21.7795 77.6933 23.2161 79.4221 23.2161C79.9756 23.2147 80.5117 23.0222 80.9397 22.6711C81.3677 22.32 81.6613 21.8319 81.7708 21.2893C81.8357 21.0288 81.8657 20.7608 81.8601 20.4923V18.8691V18.8724ZM86.8711 22.6609C87.7191 23.1374 88.6681 23.4035 89.6401 23.4368C90.8361 23.4368 91.3671 22.9499 91.3671 22.2405C91.3671 21.5312 90.9241 21.1335 89.5951 20.6676C87.4841 19.9372 86.6051 18.7847 86.6261 17.5219C86.6261 15.6162 88.1991 14.1326 90.7021 14.1326C91.6921 14.1227 92.6701 14.345 93.5581 14.7819L93.0261 16.7086C92.3281 16.3165 91.5441 16.1035 90.7441 16.0886C89.7701 16.0886 89.2371 16.5544 89.2371 17.2248C89.2371 17.8952 89.7471 18.2442 91.1201 18.7311C93.0681 19.4405 93.9771 20.4371 94.0001 22.0311C94.0001 23.979 92.4711 25.3977 89.6171 25.3977C88.3111 25.3977 87.1371 25.0876 86.3381 24.6445L86.8711 22.6609ZM24.8596 11.2157C23.5188 10.06 21.756 9.3344 19.6182 9.0601L18.9267 9.1607L25.2637 1.58521H19.3179L14.2259 7.6657C13.812 8.1754 13.4322 8.56659 13.0897 9.03249C14.3525 9.45009 15.5026 10.152 16.4514 11.0842C17.2052 11.8316 17.8193 12.7079 18.2645 13.6716C18.3667 13.6635 18.469 13.6456 18.5729 13.6456C19.0476 13.641 19.5183 13.7323 19.9568 13.9142C20.3953 14.0961 20.7925 14.3647 21.1246 14.704C21.4668 15.0355 21.7388 15.4325 21.9246 15.8712C22.1104 16.31 22.2062 16.7816 22.2062 17.2581C22.2062 17.7346 22.1104 18.2062 21.9246 18.6449C21.7388 19.0837 21.4668 19.4806 21.1246 19.8122C20.5278 20.4218 19.7302 20.7944 18.8797 20.8608C18.6891 21.6351 18.4171 22.3871 18.0681 23.1041C17.5997 24.0167 17.0619 24.892 16.4595 25.7223C17.1206 25.8582 17.794 25.9256 18.469 25.9236C20.972 25.9236 23.0659 25.1314 24.6924 23.5699C26.3951 21.8915 27.2603 19.6077 27.2603 16.7849C27.2538 14.4361 26.4698 12.6149 24.8596 11.2157ZM12.5427 17.8579C12.5451 17.4856 12.4707 17.1169 12.3241 16.7747C12.1774 16.4326 11.9617 16.1244 11.6905 15.8694C11.2459 15.399 10.6489 15.1017 10.0056 15.0302C9.8962 15.6317 9.8419 16.2418 9.8433 16.8531C9.8256 18.1298 10.0396 19.3991 10.4747 20.5995C10.9409 20.4623 11.3637 20.2067 11.7018 19.8576C11.9725 19.6004 12.1869 19.2899 12.3316 18.9458C12.4763 18.6016 12.5482 18.2312 12.5427 17.8579Z" fill="white"/>
<path d="M15.901 11.5859C14.294 9.99506 12.2374 9.18835 9.7896 9.18835C7.2883 9.18835 5.1943 9.98695 3.5679 11.5648C1.8635 13.2253 1 15.4962 1 18.3141C1 20.6758 1.7824 22.4938 3.391 23.8719C4.7333 25.0277 6.4962 25.7532 8.6339 26.0259L9.3238 26.112L9.0105 26.5746L2.99 34.0494H8.9342L14.023 27.7076C15.617 25.7451 16.7418 24.07 17.3668 22.8006C18.0586 21.3933 18.4195 19.8465 18.4219 18.2784C18.4202 15.5286 17.5729 13.2724 15.901 11.5859ZM12.2358 20.4031C11.9032 20.7433 11.5061 21.0135 11.0676 21.198C10.6291 21.3825 10.1582 21.4776 9.6825 21.4776C9.2068 21.4776 8.7359 21.3825 8.2974 21.198C7.859 21.0135 7.4618 20.7433 7.1292 20.4031C6.7877 20.073 6.5162 19.6775 6.3307 19.2403C6.1453 18.803 6.0497 18.3329 6.0497 17.8579C6.0497 17.383 6.1453 16.9129 6.3307 16.4756C6.5162 16.0384 6.7877 15.6429 7.1292 15.3128C7.4618 14.9726 7.859 14.7024 8.2974 14.5179C8.7359 14.3334 9.2068 14.2383 9.6825 14.2383C10.1582 14.2383 10.6291 14.3334 11.0676 14.5179C11.5061 14.7024 11.9032 14.9726 12.2358 15.3128C12.5775 15.6428 12.8492 16.0382 13.0348 16.4755C13.2204 16.9128 13.316 17.3829 13.316 17.8579C13.316 18.333 13.2204 18.8031 13.0348 19.2404C12.8492 19.6777 12.5775 20.0731 12.2358 20.4031Z" fill="white"/>
</svg>
