<svg width="108" height="26" viewBox="0 0 108 26" fill="none" xmlns="http://www.w3.org/2000/svg">
<g clip-path="url(#clip0_2388_3543)">
<path d="M107.705 1.16949C107.328 0.623488 106.899 0.259488 105.053 0.116488C104.572 0.0774883 102.973 0.0254883 100.295 0.0254883C93.249 0.0254883 88.465 2.17049 86.021 6.40849C86.697 2.14449 82.55 0.0124883 73.606 0.0124883C63.089 0.0124883 56.524 4.26349 53.911 12.7655C52.949 15.2485 52.845 17.9915 53.612 20.5395L51.129 20.7085C49.192 20.8515 46.631 20.9945 45.071 20.9945C41.223 20.9945 38.831 20.3445 37.908 19.0445C37.076 17.8745 37.167 15.7165 38.129 12.5705C39.728 7.34449 43.706 5.00449 50.063 5.00449C53.352 5.00449 56.563 5.35549 56.563 5.35549C56.953 5.29049 57.226 4.92649 57.161 4.52349C57.161 4.51049 57.161 4.49749 57.148 4.48449L57.083 3.99049L56.862 2.23549C56.719 1.07849 55.861 0.402488 54.301 0.194488C52.871 0.103488 51.818 0.0254883 50.245 0.0254883H50.154C41.847 0.0384883 36.062 2.78149 32.786 8.24149C33.982 2.76849 30.134 0.0254883 21.255 0.0254883C17.706 -0.0395117 14.157 0.103488 10.621 0.454488C9.28198 0.415488 8.07298 1.24749 7.59198 2.49549L6.88998 4.74449C6.75998 5.16049 6.95498 5.36849 7.48798 5.36849H7.50098C7.89098 5.31649 9.39898 5.17349 11.973 4.96549C15.379 4.69249 17.888 4.54949 19.552 4.54949C24.453 4.54949 26.507 5.78449 25.74 8.24149C25.597 8.76149 25.168 9.16449 24.635 9.25549C20.007 10.0225 16.328 10.5815 13.611 10.9195C5.95398 11.8945 1.53398 14.2865 0.350978 18.0955C-1.27402 23.3345 2.80798 25.9475 12.623 25.9475C16.744 25.9995 20.865 25.7135 24.947 25.1025C26.858 24.7775 27.833 24.2835 28.21 23.0485L30.043 17.2115C29.848 23.0485 33.93 25.9865 42.276 25.9865C45.175 26.0385 48.061 25.9085 50.934 25.5835C52.65 25.2845 53.469 24.9075 53.846 23.6205L54.21 21.7875C55.991 24.5695 59.891 25.9605 65.923 25.9605C72.28 25.9605 75.985 25.7785 77.038 25.4275C77.779 25.2715 78.39 24.7515 78.663 24.0495C78.702 23.9325 78.728 23.8025 78.741 23.6855L79.508 21.2025C79.638 20.7735 79.443 20.5655 78.923 20.5785L74.854 20.7735C72.137 20.9295 70.018 21.0075 68.484 20.9945C66.482 21.0985 64.48 20.9035 62.53 20.3965C60.97 19.8635 60.008 18.3035 60.229 16.6785L73.112 15.0275C78.884 14.2865 82.758 12.5055 84.708 9.67149L80.327 24.9205C80.236 25.1545 80.275 25.4145 80.418 25.6095C80.652 25.8305 80.951 25.9345 81.263 25.8955H86.593C87.204 25.9865 87.802 25.6095 87.971 25.0115L92.677 8.54049C93.301 6.36949 95.277 5.31649 98.748 5.31649C101.881 5.31649 104.234 5.34249 105.742 5.40749C105.781 5.40749 105.82 5.40749 105.859 5.40749C106.366 5.40749 106.821 5.06949 106.951 4.58849L107.77 2.32649C107.965 1.93649 107.926 1.50749 107.705 1.16949ZM21.749 20.9815C19.37 21.2805 16.965 21.4105 14.573 21.3715C9.15198 21.3715 6.78598 20.2795 7.47498 18.0825C7.96898 16.5095 9.38598 15.5605 11.739 15.2355L24.063 13.5715L21.749 20.9815ZM78.728 7.63049C78.208 9.32049 75.803 10.4775 71.5 11.1015L61.23 12.5705L61.49 11.7255C61.997 9.46349 63.271 7.46149 65.117 6.04449C66.677 5.04349 69.212 4.53649 72.735 4.53649C77.363 4.53649 79.365 5.57649 78.728 7.63049Z" fill="#80C343"/>
</g>
<defs>
<clipPath id="clip0_2388_3543">
<rect width="107.9" height="26" fill="white"/>
</clipPath>
</defs>
</svg>
