<svg width="125" height="50" viewBox="0 0 125 50" fill="none" xmlns="http://www.w3.org/2000/svg">
<path fill-rule="evenodd" clip-rule="evenodd" d="M20.2754 17C20.9297 17 21.4961 17.0586 21.9844 17.1855C22.3848 17.2832 22.9609 17.4883 23.2539 17.6348C23.5469 17.7812 24.0254 18.0742 24.3086 18.2793C24.582 18.4844 24.8359 18.6602 24.8652 18.6602C24.8945 18.6602 24.9141 18.2891 24.9141 17H28.8203V33.4551L28.1172 33.4844C27.7266 33.5039 27.375 33.5332 27.3262 33.5625C27.2871 33.582 26.7305 33.5723 24.9141 33.4551V31.7461L24.3965 32.1465C24.123 32.3711 23.5371 32.7129 23.1074 32.918C22.6387 33.1426 22.0527 33.3379 21.6426 33.3965C21.2715 33.4551 20.7832 33.5234 20.5684 33.543C20.3535 33.5625 19.7969 33.5234 19.3184 33.4453C18.8496 33.3672 18.2148 33.2109 17.9023 33.0938C17.5996 32.9766 17.0332 32.6738 16.6621 32.4199C16.2812 32.166 15.7344 31.7266 15.4414 31.4336C15.1484 31.1406 14.6895 30.5742 14.416 30.1738C14.1523 29.7734 13.8105 29.1387 13.6543 28.7676C13.498 28.3965 13.2832 27.7129 13.1855 27.2539C13.0684 26.707 13 26.0332 13 25.252C13 24.4902 13.0684 23.7676 13.1855 23.2012C13.2832 22.7031 13.5273 21.9609 13.752 21.4922C13.9668 21.0332 14.4063 20.3105 14.7285 19.8809C15.041 19.4512 15.5195 18.9238 15.793 18.6992C16.0566 18.4844 16.4668 18.1719 16.7109 18.0059C16.9551 17.8398 17.3262 17.6348 17.541 17.5371C17.7559 17.4492 18.2344 17.293 18.6152 17.1953C19.0547 17.0781 19.6504 17.0098 20.2754 17ZM18.7715 21.1504C18.5371 21.3066 18.166 21.6387 17.9512 21.8828C17.7266 22.127 17.4238 22.6055 17.2676 22.957C17.1113 23.3086 16.9258 23.875 16.8477 24.2266C16.7793 24.5781 16.7109 25.0566 16.7109 25.3008C16.7109 25.5449 16.7793 26.0527 16.8574 26.4238C16.9355 26.7949 17.1602 27.4297 17.3457 27.8105C17.5605 28.2695 17.873 28.709 18.1953 29.0215C18.4785 29.2949 18.9961 29.6562 19.3477 29.832C19.9336 30.1152 20.0605 30.1348 21.0078 30.1348C21.9648 30.1348 22.082 30.1152 22.668 29.8223C23.0195 29.6562 23.498 29.3438 23.7324 29.1387C23.9668 28.9336 24.2988 28.5234 24.4844 28.2305C24.6602 27.9375 24.8945 27.4297 25.0117 27.1074C25.1387 26.7656 25.2461 26.1602 25.2754 25.6426C25.3145 25.0078 25.2852 24.5781 25.1582 24.0801C25.0703 23.709 24.8555 23.1328 24.6895 22.8203C24.5137 22.498 24.1523 22 23.8887 21.707C23.5469 21.3262 23.1855 21.082 22.668 20.8281C22.082 20.5547 21.7891 20.4766 21.2031 20.4473C20.6172 20.418 20.3438 20.457 19.8262 20.6328C19.4746 20.7598 18.9961 20.9844 18.7715 21.1504ZM40.002 17.0098C40.7539 17.0098 41.8672 17.0293 43.5762 17.1465L43.5176 20.3691C43.5176 20.3691 37.834 20.5547 37.209 20.8672C36.584 21.1797 36.2617 21.4141 35.8711 21.8438C35.5879 22.166 35.1973 22.7227 35.0215 23.1035C34.8066 23.5234 34.6406 24.0605 34.5723 24.5195C34.5137 24.9199 34.4941 25.5352 34.5234 25.8867C34.5625 26.2383 34.6504 26.7363 34.7285 27.0098C34.8066 27.2734 35.041 27.7617 35.2461 28.084C35.4512 28.4062 35.8418 28.875 36.1055 29.1191C36.3691 29.3633 36.8574 29.7051 37.1895 29.8711C37.5312 30.0469 38.0781 30.2227 38.4102 30.2812C38.752 30.3301 40.0508 30.3789 43.5664 30.3789V33.6016H40.9004C38.6445 33.6016 38.1074 33.5723 37.3164 33.4062C36.7695 33.2891 36.0664 33.0645 35.6074 32.8398C35.1777 32.625 34.543 32.2637 34.1914 32.0195C33.8398 31.7754 33.2734 31.2676 32.9219 30.8965C32.5703 30.5156 32.0918 29.8613 31.8477 29.4414C31.6035 29.0215 31.291 28.3281 31.1445 27.9082C30.9883 27.498 30.8223 26.7266 30.7539 26.1992C30.666 25.4668 30.666 25.0566 30.7637 24.373C30.8223 23.8848 30.998 23.1426 31.1445 22.7129C31.3008 22.2832 31.5938 21.6191 31.8184 21.248C32.0332 20.8672 32.4531 20.2812 32.7363 19.9395C33.0293 19.5977 33.5469 19.1094 33.8984 18.8457C34.25 18.582 34.8652 18.1914 35.2656 17.9863C35.666 17.7715 36.2617 17.5273 36.584 17.4395C36.9062 17.3418 37.502 17.2148 37.9023 17.1465C38.3027 17.0781 39.25 17.0195 40.002 17.0098ZM53.0879 17.0586C53.4102 17.0879 53.9668 17.1465 54.3379 17.1953C54.6992 17.2539 55.3145 17.4004 55.7051 17.5371C56.0859 17.6738 56.75 17.9961 57.1797 18.25C57.5996 18.5039 58.2539 18.9922 58.6348 19.3438C59.0059 19.6953 59.5039 20.2422 59.7285 20.5645C59.9629 20.8867 60.2754 21.4141 60.4414 21.7363C60.5977 22.0586 60.832 22.625 60.9492 23.0059C61.0957 23.4844 61.1738 24.0508 61.2129 24.9102C61.252 25.8477 61.2324 26.3262 61.1055 26.9609C61.0078 27.4199 60.8125 28.0742 60.666 28.4258C60.5195 28.7773 60.207 29.373 59.9629 29.7441C59.7188 30.1152 59.2988 30.6719 59.0254 30.9648C58.7617 31.2578 58.2148 31.7266 57.8145 32C57.4141 32.2734 56.877 32.6152 56.6035 32.7422C56.3398 32.8789 55.9004 33.0645 55.627 33.1426C55.3633 33.2305 54.7871 33.3672 54.3574 33.4551C53.9277 33.5332 53.2051 33.6016 52.7461 33.6016C52.2871 33.6016 51.5449 33.5137 51.0859 33.416C50.627 33.3184 49.9727 33.1133 49.6211 32.9766C49.2695 32.8301 48.6348 32.4785 48.2051 32.1953C47.7754 31.9023 47.1211 31.3457 46.7402 30.9453C46.3594 30.5449 45.8516 29.8711 45.5977 29.4512C45.3535 29.0215 45.0312 28.3379 44.8945 27.9375C44.7578 27.5371 44.6016 26.7656 44.543 26.2285C44.4648 25.5254 44.4648 25.0078 44.5332 24.3926C44.5918 23.9238 44.748 23.2012 44.8848 22.7812C45.0117 22.3711 45.334 21.6777 45.5879 21.248C45.8418 20.8184 46.2812 20.2031 46.5449 19.8906C46.8184 19.5781 47.3164 19.1094 47.668 18.8457C48.0195 18.582 48.6348 18.2012 49.0352 17.9863C49.4355 17.7813 49.9922 17.5371 50.2559 17.4492C50.5293 17.3613 51.1445 17.2246 51.623 17.1562C52.1016 17.0781 52.7656 17.0293 53.0879 17.0586ZM50.9883 20.7207C50.5879 20.9258 50.1191 21.2773 49.709 21.6777C49.2988 22.0879 48.9668 22.5371 48.791 22.9082C48.6445 23.2305 48.459 23.7773 48.3906 24.1289C48.3125 24.4805 48.2539 24.9785 48.2539 25.252C48.2539 25.5156 48.3223 26.0527 48.4004 26.4238C48.4785 26.7949 48.6836 27.3906 48.8594 27.7422C49.0449 28.1035 49.4062 28.6113 49.7188 28.9141C50.0117 29.207 50.5 29.5781 50.793 29.7344C51.0859 29.8906 51.5547 30.0762 51.8184 30.1543C52.082 30.2227 52.5801 30.2812 52.9219 30.2812C53.2637 30.2812 53.791 30.1934 54.1328 30.0859C54.4746 29.9785 55.0312 29.7051 55.373 29.4707C55.7246 29.2461 56.1641 28.8359 56.3691 28.5723C56.5645 28.2988 56.8184 27.9082 56.9258 27.6934C57.0332 27.4785 57.1992 27.0391 57.2871 26.7168C57.3945 26.3555 57.4531 25.7988 57.4531 25.252C57.4531 24.6074 57.3848 24.1777 57.2188 23.6406C57.0918 23.2402 56.8379 22.6738 56.6523 22.3809C56.4668 22.0879 56.0859 21.6582 55.8223 21.4238C55.5488 21.1992 55.0703 20.877 54.748 20.7207C54.4258 20.5645 53.8984 20.3887 53.5762 20.3301C53.2539 20.2715 52.9023 20.2227 52.7949 20.2324C52.6875 20.2422 52.375 20.2812 52.1113 20.3301C51.8379 20.3789 51.3398 20.5547 50.9883 20.7207ZM70.3242 17.0098C71.8965 17 72.5801 17.0391 73.0586 17.1562C73.4102 17.2344 73.957 17.4395 74.2793 17.6152C74.6113 17.7812 75.1973 18.2402 75.6172 18.6602C76.1836 19.2168 76.4473 19.5684 76.7109 20.125C76.9063 20.5254 77.1309 21.1602 77.209 21.541C77.3262 22.0977 77.3555 23.25 77.3555 33.4551L76.3594 33.5234C75.8027 33.5527 74.9238 33.5527 73.4492 33.4551V28.1523C73.4492 23.1426 73.4394 22.8301 73.2637 22.3418C73.1562 22.0684 72.8828 21.6191 72.6484 21.3652C72.4043 21.0918 72.0039 20.7793 71.6914 20.6328C71.2422 20.4082 71.0273 20.3691 70.3242 20.3691C69.6211 20.3691 69.4258 20.4082 69.0059 20.6328C68.7422 20.7695 68.332 21.082 68.0977 21.3066C67.8633 21.5508 67.5996 21.9512 67.4922 22.2441C67.3066 22.7324 67.2969 23.0254 67.2969 27.8887C67.2969 30.7109 67.2578 33.1133 67.209 33.2305C67.1309 33.4355 67.043 33.4648 66.1641 33.5234C65.627 33.5625 64.7871 33.5625 63.3906 33.4551V27.6934C63.3906 22.8691 63.4102 21.834 63.5371 21.3457C63.6152 21.0234 63.8203 20.4961 63.9863 20.1738C64.1523 19.8516 64.4453 19.3926 64.6406 19.1484C64.8262 18.9043 65.207 18.5234 65.4805 18.2891C65.7539 18.0645 66.2227 17.752 66.5156 17.5859C66.8086 17.4297 67.3164 17.2344 67.6387 17.1562C68.0586 17.0586 68.8301 17.0098 70.3242 17.0098ZM87.0234 17.0293C89.2109 17.0488 89.3477 17.0586 90.002 17.293C90.3828 17.4297 90.9688 17.7422 91.3203 17.9863C91.6719 18.2305 92.1113 18.6113 92.2969 18.8262C92.4824 19.0508 92.8047 19.5 93.0098 19.8418C93.2148 20.1836 93.4688 20.75 93.5957 21.1016C93.8008 21.7266 93.8105 21.8633 93.8691 33.4551L92.8145 33.5234C92.2383 33.5625 91.3594 33.5625 89.9629 33.4551L89.9336 28.084C89.9043 23.0547 89.8848 22.6836 89.709 22.2246C89.6113 21.9512 89.3379 21.5508 89.1035 21.3164C88.8691 21.0918 88.4297 20.7891 88.127 20.6328C87.6582 20.418 87.4336 20.3691 86.7793 20.3691C86.0762 20.3691 85.9395 20.3984 85.373 20.7109C85.0312 20.8965 84.6406 21.1797 84.5039 21.3457C84.3672 21.502 84.1426 21.8828 83.752 22.7129L83.6934 33.4551L82.4531 33.5234C81.7695 33.5625 80.9102 33.5625 79.8457 33.4551V27.6934C79.8457 22.4004 79.8652 21.8828 80.0312 21.2969C80.1289 20.9453 80.3633 20.3496 80.5488 19.9785C80.8027 19.4805 81.1055 19.0996 81.6426 18.5918C82.0723 18.1816 82.6289 17.7617 82.9707 17.5859C83.293 17.4297 83.8203 17.2344 84.1426 17.1562C84.5918 17.0391 85.2559 17.0098 87.0234 17.0293ZM104.582 17.0098C105.275 17 106.047 17.0586 106.428 17.1367C106.799 17.2148 107.355 17.3809 107.678 17.498C108 17.6152 108.479 17.8496 108.752 18.0059C109.016 18.1621 109.543 18.5137 109.924 18.7969C110.305 19.0801 110.871 19.6367 111.223 20.0762C111.564 20.5059 112.014 21.209 112.219 21.6387C112.424 22.0684 112.688 22.7812 112.795 23.2207C112.941 23.8066 113 24.3438 113 25.125C113 25.8379 112.932 26.5215 112.814 27.0586C112.707 27.5176 112.512 28.1523 112.365 28.4746C112.229 28.7969 111.926 29.3242 111.711 29.6465C111.496 29.9688 111.027 30.5352 110.666 30.9062C110.314 31.2676 109.719 31.7754 109.338 32.0195C108.957 32.2734 108.322 32.6152 107.922 32.791C107.521 32.9668 107.131 33.1133 107.062 33.1133C106.975 33.1133 106.945 32.6934 106.936 29.5488L107.199 29.4023C107.346 29.3242 107.678 29.0117 107.951 28.7188C108.225 28.4258 108.566 27.918 108.723 27.5957C108.869 27.2734 109.064 26.6973 109.143 26.3262C109.221 25.9453 109.289 25.4668 109.289 25.252C109.289 25.0371 109.24 24.5977 109.182 24.2754C109.123 23.9531 108.918 23.3574 108.732 22.957C108.508 22.4785 108.205 22.0293 107.844 21.6582C107.531 21.3359 107.014 20.9453 106.652 20.7598C106.262 20.5645 105.754 20.3887 105.334 20.3203C104.855 20.2422 104.465 20.2422 104.016 20.3105C103.664 20.3691 103.078 20.5645 102.697 20.75C102.189 20.9941 101.848 21.2578 101.398 21.7461C101.057 22.1172 100.676 22.6348 100.539 22.9082C100.412 23.1719 100.236 23.748 100.148 24.1777C100.051 24.7148 100.021 25.1738 100.061 25.6426C100.1 26.0137 100.207 26.5898 100.314 26.9121C100.412 27.2344 100.646 27.7129 100.822 27.9863C101.008 28.25 101.398 28.709 101.682 28.9922C101.975 29.2754 102.238 29.5098 102.277 29.5C102.326 29.5 102.355 30.3105 102.355 33.1133L102.082 33.0645C101.936 33.0352 101.379 32.791 100.842 32.5273C100.295 32.2539 99.582 31.7949 99.2109 31.4727C98.8496 31.1699 98.3711 30.6914 98.1465 30.4277C97.9219 30.1543 97.5605 29.627 97.3457 29.2559C97.1211 28.875 96.8281 28.2207 96.6719 27.791C96.5254 27.3613 96.3594 26.5898 96.3008 26.082C96.2227 25.4277 96.2227 24.9102 96.3008 24.3242C96.3594 23.8652 96.4863 23.2109 96.5938 22.8594C96.7012 22.5078 96.9941 21.8438 97.248 21.3652C97.5117 20.8965 97.9316 20.2617 98.1953 19.9492C98.4688 19.6465 98.9082 19.1973 99.1719 18.9629C99.4453 18.7285 99.9727 18.3574 100.354 18.123C100.734 17.8984 101.301 17.6152 101.623 17.498C101.945 17.3711 102.473 17.2148 102.795 17.1465C103.117 17.0781 103.918 17.0195 104.572 17.0098H104.582Z" fill="#FE9832"/>
</svg>
