<svg width="125" height="20" viewBox="0 0 125 20" fill="none" xmlns="http://www.w3.org/2000/svg">
<g clip-path="url(#clip0_10_2193)">
<path d="M123.949 10.7831C123.318 10.1526 122.608 9.68646 121.243 9.03956C120.668 8.77656 120.106 8.48466 119.56 8.16506C118.992 7.72366 118.768 7.34256 118.768 6.81896C118.768 5.92526 119.719 5.32766 121.131 5.32766C122.318 5.32766 123.346 5.69506 124.456 6.52016L124.714 6.71206V3.87476L124.62 3.82266C123.485 3.27166 122.239 2.99026 120.977 3.00026C117.962 3.00026 115.917 4.64506 115.917 7.11236C115.91 8.06196 116.267 8.97826 116.914 9.67276C117.449 10.2211 118.132 10.6625 119.623 11.3972C120.599 11.8769 121.092 12.1593 121.339 12.3868C121.553 12.5376 121.729 12.7374 121.85 12.9696C121.972 13.2018 122.036 13.4598 122.038 13.7219C122.038 14.6841 121.142 15.3064 119.752 15.3064C118.403 15.3064 117.26 14.8733 116.045 13.9028L115.771 13.6917V16.7923L115.864 16.8389C117.09 17.4411 118.438 17.7517 119.804 17.7463C122.91 17.7463 124.999 16.0685 124.999 13.5629C125.025 12.5348 124.648 11.5371 123.949 10.7831Z" fill="white"/>
<path d="M27.8049 6.01592C28.3828 6.01502 28.9552 6.12843 29.4892 6.34963C30.0232 6.57073 30.5082 6.89523 30.9164 7.30433L32.9889 5.23183C31.9631 4.20533 30.656 3.50613 29.2328 3.22253C27.8096 2.93903 26.3343 3.08402 24.9935 3.63912C23.6527 4.19412 22.5066 5.13443 21.7003 6.34093C20.894 7.54753 20.4636 8.96603 20.4636 10.4172C20.4636 11.8683 20.894 13.2869 21.7003 14.4934C22.5066 15.6999 23.6527 16.6402 24.9935 17.1953C26.3343 17.7504 27.8096 17.8953 29.2328 17.6118C30.656 17.3283 31.9631 16.6291 32.9889 15.6026L30.9164 13.53C30.4045 14.0425 29.7741 14.4207 29.0811 14.6312C28.3881 14.8417 27.6539 14.878 26.9435 14.7368C26.2331 14.5957 25.5685 14.2815 25.0087 13.822C24.4488 13.3626 24.0109 12.7721 23.7338 12.1029C23.4567 11.4338 23.349 10.7066 23.4201 9.98583C23.4913 9.26503 23.7392 8.57302 24.1419 7.97092C24.5445 7.36892 25.0895 6.87553 25.7284 6.53453C26.3674 6.19343 27.0806 6.01532 27.8049 6.01592Z" fill="white"/>
<path d="M38.7898 6.01045H41.7258V17.7464H44.6619V6.01045H47.5952V3.07715H38.7898V6.01045Z" fill="white"/>
<path d="M58.6651 3.07715H55.729V17.7464H58.6651V3.07715Z" fill="white"/>
<path d="M88.8751 3.07715H85.9419V17.7464H88.8751V3.07715Z" fill="white"/>
<path d="M72.668 3.07715H66.7986V17.7464H69.7347V6.01595H72.668C75.604 6.01595 75.604 8.95195 75.604 8.95195V17.7518H78.5401V8.94645C78.5401 3.07715 72.668 3.07715 72.668 3.07715Z" fill="white"/>
<path d="M105.315 11.8797C105.315 11.8797 105.315 14.8158 102.382 14.8158H102.275C102.275 14.8158 99.3392 14.8158 99.3392 11.8797V3.07715H96.4031V11.8797C96.4031 11.8797 96.4031 17.7464 102.275 17.7464H102.382C102.382 17.7464 108.252 17.7464 108.252 11.8797V3.07715H105.315V11.8797Z" fill="white"/>
<path d="M7.33491 3.07715C6.17262 3.07745 5.02703 3.35385 3.99254 3.88375C2.95804 4.41355 2.06425 5.18165 1.38479 6.12465C0.705338 7.06765 0.259672 8.15855 0.0845148 9.30755C-0.0906428 10.4566 0.00972104 11.6307 0.377337 12.7334C0.744953 13.836 1.3693 14.8355 2.19894 15.6495C3.02857 16.4635 4.03975 17.0687 5.14916 17.4153C6.25857 17.7619 7.43445 17.8399 8.57993 17.643C9.7254 17.446 10.8077 16.9797 11.7376 16.2824V17.7463H14.6709V10.4021C14.6687 8.45825 13.8948 6.59465 12.5192 5.22115C11.1436 3.84755 9.27886 3.07645 7.33491 3.07715ZM7.33491 14.8158C6.4646 14.8158 5.61382 14.5578 4.89004 14.0746C4.16626 13.5913 3.60195 12.9043 3.2684 12.1004C2.93485 11.2966 2.84703 10.4119 3.01602 9.55825C3.18501 8.70455 3.60324 7.91995 4.21787 7.30385C4.8325 6.68765 5.61596 6.26745 6.46928 6.09635C7.3226 5.92525 8.20748 6.01085 9.01216 6.34245C9.81684 6.67395 10.5052 7.23655 10.9903 7.95915C11.4754 8.68175 11.7354 9.53185 11.7376 10.4021C11.7387 10.9811 11.6256 11.5546 11.4049 12.0899C11.1841 12.6252 10.8601 13.1117 10.4512 13.5216C10.0423 13.9315 9.55657 14.2568 9.02185 14.4789C8.48714 14.7009 7.9139 14.8154 7.33491 14.8158Z" fill="white"/>
</g>
<defs>
<clipPath id="clip0_10_2193">
<rect width="125" height="20" fill="white"/>
</clipPath>
</defs>
</svg>
