<svg width="89" height="34" viewBox="0 0 89 34" fill="none" xmlns="http://www.w3.org/2000/svg">
<g clip-path="url(#clip0_10_2202)">
<path d="M25.8839 22.4767C26.2972 22.0647 26.7839 21.8961 27.7192 21.8961H31.4846C32.5326 21.8961 33.1513 22.0821 33.5266 22.4767C33.9959 22.9427 34.1453 23.4874 34.1453 25.2287V32.1967H31.2786V31.0181C30.0419 32.0287 29.5932 32.2154 28.6752 32.2154H27.2692C26.3519 32.2154 25.8646 32.1034 25.4532 31.6934C25.0966 31.3354 24.8552 30.7361 24.8552 29.3887C24.8552 28.1147 25.0412 27.3274 25.4926 26.8774C25.9592 26.4094 26.5586 26.1841 28.4119 26.1841C29.4059 26.1841 30.4359 26.2981 31.2793 26.4841V25.5661C31.2793 24.5547 31.2226 24.3487 31.0912 24.1987C30.9592 24.0847 30.7726 24.0467 30.3419 24.0467H28.9006C28.5066 24.0467 28.2999 24.0847 28.1872 24.1987C28.0379 24.3487 28.0186 24.5547 27.9812 25.1727H25.2672C25.2846 23.4514 25.4532 22.8861 25.8839 22.4767ZM31.2786 29.6307V27.9081H29.3879C28.2999 27.9081 28.0379 27.9827 27.8506 28.1687C27.6646 28.3581 27.6266 28.5821 27.6266 29.0507C27.6266 29.5761 27.6646 29.8561 27.8139 30.0067C27.9639 30.1547 28.1692 30.1734 28.5439 30.1734H29.3486C29.9493 30.1727 30.3419 30.1181 31.2786 29.6307Z" fill="white"/>
<path d="M41.8774 32.1967V30.8674C40.5847 31.9921 40.1347 32.2161 39.2914 32.2161H38.206C37.118 32.2161 36.5387 32.0294 36.09 31.5801C35.4727 30.9627 35.228 30.0614 35.228 27.0461C35.228 24.0114 35.526 23.1514 36.1634 22.5134C36.614 22.0654 37.212 21.8781 38.242 21.8781H39.366C40.2274 21.8781 40.696 22.0654 41.8774 23.0574V18.3741H44.744V32.1967H41.8774ZM41.8774 29.4807V24.5741C41.2767 24.2934 40.846 24.1627 40.378 24.1627H39.3494C38.824 24.1627 38.578 24.2367 38.4107 24.4054C38.1487 24.6481 38.0754 25.0807 38.0754 27.0454C38.0754 29.0121 38.1494 29.4254 38.4107 29.6887C38.578 29.8554 38.824 29.9134 39.3494 29.9134H40.284C40.7714 29.9134 41.2387 29.7807 41.8774 29.4807Z" fill="white"/>
<path d="M46.8553 22.4767C47.2667 22.0647 47.7547 21.8961 48.69 21.8961H52.456C53.5047 21.8961 54.122 22.0821 54.4987 22.4767C54.966 22.9427 55.116 23.4874 55.116 25.2287V32.1967H52.2493V31.0181C51.0133 32.0287 50.5633 32.2154 49.646 32.2154H48.2427C47.324 32.2154 46.8353 32.1034 46.4253 31.6934C46.0687 31.3354 45.8247 30.7361 45.8247 29.3887C45.8247 28.1147 46.012 27.3274 46.462 26.8774C46.9307 26.4094 47.53 26.1841 49.384 26.1841C50.378 26.1841 51.4067 26.2981 52.25 26.4841V25.5661C52.25 24.5547 52.194 24.3487 52.0627 24.1987C51.9333 24.0847 51.7433 24.0467 51.3133 24.0467H49.8713C49.4773 24.0467 49.272 24.0847 49.16 24.1987C49.0087 24.3487 48.9913 24.5547 48.952 25.1727H46.2373C46.256 23.4514 46.4253 22.8861 46.8553 22.4767ZM52.2493 29.6307V27.9081H50.3593C49.272 27.9081 49.0087 27.9827 48.8227 28.1687C48.6353 28.3581 48.5973 28.5821 48.5973 29.0507C48.5973 29.5761 48.6353 29.8561 48.7853 30.0067C48.9347 30.1547 49.14 30.1734 49.5153 30.1734H50.3193C50.92 30.1727 51.3133 30.1181 52.2493 29.6307Z" fill="white"/>
<path d="M56.1975 32.1967V21.4081C56.1975 20.1154 56.3675 19.4401 56.7981 19.0108C57.2295 18.5801 57.7161 18.3741 58.8208 18.3741H61.1815V20.5454H59.7935C59.4201 20.5454 59.3081 20.5834 59.1961 20.6761C59.1015 20.7901 59.0655 20.9927 59.0655 21.5014V21.9141H61.1821V24.1434H59.0835V32.1961L56.1975 32.1967Z" fill="white"/>
<path d="M62.2627 32.1967V21.8954H65.1267V23.468C66.196 22.362 66.738 21.8767 67.562 21.8767H68.6666V24.7047H67.3373C66.5513 24.7047 65.952 24.7787 65.1267 25.116V32.196L62.2627 32.1967Z" fill="white"/>
<path d="M79.0202 21.8954V32.1967H76.1355V30.8314C74.8248 32.0107 74.3935 32.2161 73.4568 32.2161H72.2022C71.3028 32.2161 70.7408 32.0294 70.3495 31.6354C69.9362 31.2047 69.7495 30.6627 69.7495 29.1621V21.8954H72.6342V28.8447C72.6342 29.2741 72.6895 29.5187 72.8582 29.6887C73.0268 29.8554 73.1955 29.9134 73.7008 29.9134H74.5268C75.0122 29.9134 75.4448 29.7994 76.1355 29.5001V21.8954H79.0202Z" fill="white"/>
<path d="M82.916 20.4701H80.0881V18.3741H82.916V20.4701ZM82.916 32.1967H80.0881V21.8954H82.916V32.1967Z" fill="white"/>
<path d="M89 29.9313H87.765C87.294 29.9313 87.107 29.892 87.015 29.818C86.921 29.7053 86.883 29.556 86.883 29.106V24.1433H89V21.8953H86.883V20.47H83.999V21.8953V24.1433V29.8746C83.999 30.9233 84.129 31.392 84.467 31.7286C84.823 32.0853 85.347 32.2886 86.322 32.2886C87.089 32.2886 87.858 32.1766 88.307 32.0646L89 31.8846V29.9313Z" fill="white"/>
<path d="M30.3707 15.2828C30.272 14.6608 29.9347 14.4821 29.1193 14.2221C28.5007 14.0234 24.3547 12.7028 24.3547 12.7028C24.3547 12.7028 21.4647 11.6108 19.3227 13.1548C19.0347 13.3634 18.7353 13.6001 18.4353 13.8528C18.6873 13.5528 18.9247 13.2534 19.132 12.9654C20.6713 10.8201 19.5753 7.93206 19.5753 7.93206C19.5753 7.93206 18.248 3.79006 18.0473 3.16936C17.7853 2.35606 17.6073 2.01806 16.9847 1.92139C16.3607 1.82272 16.088 2.08806 15.5887 2.78276C15.208 3.31006 12.6707 6.84536 12.6707 6.84536C12.6707 6.84536 10.7413 9.25606 11.546 11.7708C11.6553 12.1081 11.788 12.4661 11.9367 12.8301C11.728 12.4968 11.5167 12.1794 11.306 11.8934C9.74128 9.76736 6.65729 9.91606 6.65729 9.91606C6.65729 9.91606 2.30668 9.89876 1.65598 9.89806C0.800685 9.89476 0.425285 9.96136 0.138685 10.5228C-0.147315 11.0841 0.0219845 11.4274 0.527284 12.1161C0.911284 12.6414 3.48998 16.1461 3.48998 16.1461C3.48998 16.1461 5.18598 18.7274 7.82528 18.7381C8.17998 18.7401 8.55999 18.7234 8.95069 18.6954C8.57129 18.7901 8.20468 18.8941 7.86798 19.0048C5.36198 19.8354 4.55198 22.8161 4.55198 22.8161C4.55198 22.8161 3.19069 26.9487 2.98799 27.5674C2.72269 28.3794 2.66868 28.7567 3.11468 29.2014C3.56068 29.6481 3.93868 29.5927 4.74998 29.3247C5.36798 29.1227 9.49928 27.7527 9.49928 27.7527C9.49928 27.7527 12.4767 26.9367 13.302 24.4294C13.414 24.0921 13.5153 23.7261 13.6107 23.3481C13.5827 23.7374 13.568 24.1167 13.5707 24.4714C13.5847 27.1114 16.1693 28.8034 16.1693 28.8034C16.1693 28.8034 19.6787 31.3734 20.204 31.7574C20.8953 32.2607 21.2373 32.4294 21.7993 32.1427C22.36 31.8561 22.4253 31.4807 22.4213 30.6247C22.4187 29.9747 22.3927 25.6241 22.3927 25.6241C22.3927 25.6241 22.538 22.5394 20.4087 20.9788C20.122 20.7688 19.8053 20.5581 19.4733 20.3514C19.836 20.4974 20.1927 20.6301 20.5313 20.7361C23.046 21.5381 25.4547 19.6041 25.4547 19.6041C25.4547 19.6041 28.984 17.0608 29.5113 16.6794C30.204 16.1801 30.4693 15.9048 30.3707 15.2828ZM15.384 12.0794C15.8593 12.1534 16.0947 13.1634 15.9087 14.3341C15.7253 15.5048 15.192 16.3928 14.7167 16.3181C14.2427 16.2428 14.0067 15.2341 14.1907 14.0634C14.3753 12.8934 14.9093 12.0048 15.384 12.0794ZM9.30668 15.1821C9.52328 14.7534 10.5567 14.8428 11.6113 15.3794C12.668 15.9161 13.348 16.6994 13.13 17.1274C12.912 17.5548 11.88 17.4674 10.824 16.9308C9.76798 16.3941 9.08868 15.6108 9.30668 15.1821ZM12.5107 21.0201C11.6733 21.8588 10.7193 22.2621 10.38 21.9227C10.0393 21.5834 10.4427 20.6288 11.2793 19.7901C12.116 18.9508 13.07 18.5467 13.4107 18.8861C13.7513 19.2261 13.3487 20.1814 12.5107 21.0201ZM17.1213 22.9847C16.6927 23.2027 15.9087 22.5254 15.3707 21.4707C14.832 20.4148 14.742 19.3814 15.1707 19.1634C15.598 18.9454 16.3807 19.6234 16.92 20.6787C17.4587 21.7334 17.55 22.7661 17.1213 22.9847ZM18.2327 18.0974C17.0627 18.2848 16.0527 18.0501 15.9773 17.5761C15.902 17.1014 16.7893 16.5654 17.96 16.3794C19.1293 16.1934 20.1393 16.4268 20.2147 16.9008C20.29 17.3748 19.4033 17.9114 18.2327 18.0974Z" fill="white"/>
</g>
<defs>
<clipPath id="clip0_10_2202">
<rect width="89" height="34" fill="white"/>
</clipPath>
</defs>
</svg>
