<svg width="109" height="43" viewBox="0 0 109 43" fill="none" xmlns="http://www.w3.org/2000/svg">
<g clip-path="url(#clip0_2219_3)">
<path d="M77.1788 14.1244C78.0557 11.8261 78.9185 9.52309 79.811 7.23103C80.7066 4.93428 81.8035 2.71399 82.4666 0.328311C82.5493 0.0287354 82.76 0.0178134 83.0065 0.0178134C84.6417 0.020934 86.2769 0.0334163 87.912 0.010012C88.3614 0.0037708 88.4129 0.191005 88.3942 0.565475C88.0899 6.7411 88.0478 12.9214 88.0166 19.1017C88.015 19.5308 87.8496 19.6213 87.4658 19.6119C86.6092 19.5901 85.7495 19.5557 84.8976 19.6213C84.2407 19.6712 84.1283 19.4091 84.1627 18.838C84.4388 14.2679 84.5403 9.69316 84.5278 5.11528C84.5278 4.91088 84.5106 4.70804 84.3905 4.47244C83.6977 6.31046 83.0003 8.14692 82.3106 9.9865C81.1638 13.0447 80.0139 16.1013 78.8904 19.1688C78.7531 19.5448 78.5503 19.6166 78.2024 19.6119C77.2428 19.5963 76.2816 19.5916 75.3205 19.6135C74.9133 19.6228 74.7572 19.4933 74.6418 19.0799C73.3171 14.3007 71.9628 9.53089 70.6162 4.75953C70.5913 4.66903 70.5538 4.5801 70.3838 4.48648C70.3104 5.18237 70.2152 5.87826 70.17 6.57571C69.8954 10.6995 69.5537 14.8203 69.4881 18.955C69.4788 19.5339 69.276 19.6384 68.7673 19.6166C67.9388 19.5807 67.1056 19.5838 66.2755 19.6166C65.8496 19.6322 65.7435 19.4809 65.7825 19.0845C66.0009 16.9017 66.2131 14.7173 66.4035 12.5313C66.4425 12.0898 66.7186 12.1444 67.0026 12.1335C68.0995 12.0944 68.0948 12.0929 68.1198 10.9851C68.1291 10.5716 68.1151 10.1488 68.2025 9.74933C68.3133 9.24068 68.1385 9.12522 67.6595 9.1221C66.6016 9.11274 66.6593 9.09713 66.7654 8.0299C66.9464 6.20592 67.0479 4.37258 67.182 2.54392C67.2351 1.82307 67.31 1.10377 67.335 0.382921C67.3474 0.0396574 67.5222 0.020934 67.7828 0.020934C69.4179 0.0256148 71.0531 0.042778 72.6883 0.010012C73.1236 0.000650223 73.1236 0.259658 73.1876 0.526467C74.2876 5.11996 76.0258 9.53089 77.1757 14.1275L77.1788 14.1244Z" fill="#0262A6"/>
<path d="M96.7355 31.2467C98.1116 31.2467 99.4878 31.2123 100.862 31.2623C101.474 31.2841 101.599 31.0438 101.611 30.5102C101.664 28.4179 101.772 26.3255 101.81 24.2316C101.822 23.5295 102.009 23.2377 102.775 23.2939C103.808 23.3688 104.851 23.3266 105.888 23.3048C106.311 23.2954 106.448 23.3735 106.414 23.8618C106.058 28.8111 105.793 33.765 105.762 38.7298C105.754 39.9453 105.688 41.1592 105.699 42.3746C105.704 42.8474 105.514 42.9208 105.106 42.9129C103.939 42.8911 102.769 42.8739 101.602 42.9192C101.075 42.9395 101.051 42.746 101.076 42.306C101.213 39.8033 101.31 37.3006 101.432 34.7963C101.448 34.4593 101.331 34.347 100.993 34.3485C98.0602 34.3579 95.1268 34.3626 92.1935 34.347C91.6801 34.3438 91.7628 34.6965 91.7503 34.9758C91.6536 37.377 91.5506 39.7783 91.5007 42.1812C91.4898 42.7304 91.4071 42.952 90.7908 42.9207C89.6518 42.8646 88.5065 42.8989 87.3644 42.9067C87.0367 42.9083 86.8604 42.8833 86.8822 42.4449C86.9883 40.198 87.0695 37.9512 87.11 35.7029C87.1225 35.0257 87.2786 34.7448 88.0337 34.7745C89.5472 34.8353 89.5503 34.7885 89.5956 33.2797C89.6424 31.7475 89.6424 31.7241 88.093 31.7506C87.5017 31.76 87.3363 31.6633 87.38 30.9939C87.5391 28.6223 87.6031 26.2444 87.6702 23.8681C87.6827 23.4296 87.7981 23.2939 88.2397 23.3032C89.4068 23.3313 90.5754 23.3251 91.7441 23.3064C92.142 23.3001 92.2512 23.3844 92.2278 23.8213C92.1092 26.04 92.0577 28.2634 91.9469 30.4837C91.9173 31.0626 92.0359 31.2919 92.6834 31.2638C94.0315 31.2077 95.3827 31.2467 96.7323 31.2467H96.7355Z" fill="#0262A6"/>
<path d="M31.1581 0.0191447C32.7012 0.106521 34.5923 -0.0791535 36.4849 0.143968C39.7584 0.529359 42.1004 2.43135 42.9242 5.62682C43.7527 8.83478 43.5187 11.9819 41.9553 14.9402C40.5307 17.6348 38.1404 19.0344 35.1914 19.4198C31.8898 19.8504 28.5571 19.5196 25.2399 19.6133C24.7156 19.6273 24.8014 19.3074 24.8217 19.011C24.9481 17.1574 25.0807 15.3053 25.2118 13.4517C25.2134 13.4267 25.2227 13.4017 25.229 13.3752C25.346 12.8775 25.0402 12.1972 25.4178 11.9085C25.7314 11.6667 26.3617 11.8149 26.8517 11.829C27.1637 11.8383 27.34 11.7588 27.3603 11.4264C27.4103 10.5761 27.4649 9.7257 27.521 8.87534C27.5429 8.54144 27.326 8.5352 27.0732 8.49931C26.5334 8.42442 25.7657 8.69123 25.5114 8.22938C25.2805 7.80967 25.5488 7.12938 25.5566 6.563C25.58 4.622 25.6081 2.681 25.5863 0.739998C25.58 0.182975 25.6846 -0.0183022 26.2962 0.00354183C27.8003 0.0534711 29.306 0.020705 31.1565 0.020705L31.1581 0.0191447ZM32.5342 3.13036C31.9991 3.13036 31.634 3.1132 31.272 3.13348C30.6572 3.16781 29.9005 2.87759 29.4698 3.25674C29.0969 3.58597 29.3887 4.3349 29.3294 4.89349C29.3263 4.91845 29.3169 4.94342 29.3154 4.96994C29.1671 8.60697 29.0267 12.2424 28.8644 15.8795C28.8442 16.3398 28.9362 16.513 29.4417 16.4942C30.5293 16.4521 31.6215 16.5286 32.709 16.4724C35.5222 16.3242 37.705 15.1383 38.7457 12.4156C39.4588 10.5527 39.5883 8.59761 39.0484 6.64725C38.5289 4.77178 37.3821 3.55944 35.3864 3.22242C34.3769 3.05235 33.369 3.20213 32.5358 3.13036H32.5342Z" fill="#0262A6"/>
<path d="M54.7902 0.0717966C55.4642 0.0717966 56.1414 0.101442 56.8139 0.0624349C57.3163 0.0327894 57.5348 0.232506 57.7017 0.695912C59.7613 6.40033 61.8458 12.0969 63.9117 17.7998C64.1254 18.3911 64.6949 19.0839 64.3922 19.5567C64.205 19.85 63.2376 19.6519 62.6213 19.6643C62.1282 19.6737 61.6352 19.6675 61.1421 19.6659C60.3173 19.6659 59.7774 19.28 59.5226 18.5082C58.9499 16.7762 58.3648 15.049 57.8062 13.314C57.6721 12.8989 57.502 12.6867 57.0043 12.6945C54.8511 12.7257 52.6963 12.7195 50.5415 12.6977C50.1109 12.693 49.9065 12.8443 49.7318 13.2282C48.8299 15.1926 47.8797 17.1367 46.9841 19.1042C46.7937 19.5208 46.5768 19.6893 46.1166 19.6784C44.9229 19.6487 43.7293 19.6519 42.5357 19.6721C42.0504 19.6799 41.8585 19.6347 42.1534 19.0995C43.3314 16.9557 44.4861 14.7978 45.622 12.6306C45.817 12.2577 46.0229 12.1063 46.4505 12.1203C47.1713 12.1453 48.1637 12.384 48.5569 12.0158C49.234 11.3839 49.5367 10.3541 50.0001 9.49438C50.164 9.19168 49.9954 9.13395 49.7442 9.13239C49.1732 9.12927 48.6021 9.11991 48.031 9.13239C47.669 9.14019 47.4756 9.10431 47.7003 8.66899C49.1154 5.92288 50.5181 3.17053 51.9162 0.41506C52.0535 0.14513 52.2407 0.0608746 52.534 0.0671158C53.2861 0.0827187 54.0397 0.0717966 54.7918 0.0733569L54.7902 0.0717966ZM54.5406 3.06911C53.4702 5.26132 52.4794 7.28345 51.4949 9.31027C51.2811 9.75183 51.6259 9.69878 51.874 9.69878C53.0926 9.70346 54.3128 9.70034 55.5313 9.7019C56.3833 9.7019 56.675 9.31755 56.4067 8.54885C56.3645 8.42714 56.324 8.307 56.2818 8.1853C55.7217 6.54075 55.1616 4.89777 54.539 3.06911H54.5406Z" fill="#0262A6"/>
<path d="M8.67431 9.1295C7.92537 9.1295 7.30126 9.09985 6.68338 9.1373C6.08579 9.17319 6.02182 8.99063 6.28239 8.49134C7.56495 6.02296 8.87559 3.56551 10.0708 1.055C10.4624 0.232731 10.9383 0.00492866 11.784 0.0548579C12.9214 0.12195 14.0682 0.104787 15.2088 0.0579785C15.7658 0.0345741 16.042 0.215568 16.2292 0.736704C17.6194 4.60622 19.0331 8.46481 20.4389 12.3296C21.2565 14.578 22.0616 16.8295 22.8948 19.0732C23.0571 19.5117 23.0773 19.6973 22.5032 19.677C21.3361 19.6365 20.1674 19.6443 19.0003 19.677C18.5556 19.6895 18.3668 19.5335 18.2326 19.1185C17.6335 17.2602 16.9766 15.419 16.3899 13.5576C16.1902 12.9257 15.9109 12.6682 15.201 12.6885C13.1789 12.7462 11.1521 12.7244 9.12836 12.6979C8.63686 12.6916 8.3919 12.8601 8.19374 13.2986C7.30906 15.2427 6.38381 17.1681 5.4882 19.106C5.30721 19.4976 5.09033 19.6989 4.61288 19.6833C3.42082 19.6443 2.22564 19.6458 1.03202 19.6786C0.445348 19.6942 0.439107 19.5023 0.676271 19.0654C1.85585 16.8919 3.02919 14.7153 4.18224 12.5294C4.33983 12.2329 4.51926 12.055 4.83756 12.1393C7.0048 12.7135 7.78807 11.3092 8.41686 9.67248C8.46991 9.53205 8.54637 9.40099 8.67587 9.13262L8.67431 9.1295ZM9.79304 9.699C11.5718 9.699 13.2257 9.69744 14.8811 9.699C15.3586 9.699 15.1963 9.39319 15.1245 9.17007C14.8811 8.41177 14.6206 7.65971 14.36 6.90765C13.9403 5.69062 13.5143 4.4736 13.0338 3.09118C11.9166 5.37076 10.8806 7.48183 9.79304 9.69744V9.699Z" fill="#0262A6"/>
<path d="M54.2535 42.9034C52.0488 42.9034 49.8425 42.8956 47.6378 42.9112C47.2524 42.9143 47.112 42.841 47.1401 42.4103C47.2914 40.0418 47.421 37.6717 47.5239 35.3001C47.5427 34.8851 47.6675 34.7368 48.0622 34.7946C48.0872 34.7977 48.1137 34.7946 48.1402 34.7946C49.3011 34.7696 49.8867 34.1621 49.8971 32.9721C49.908 31.7395 49.9065 31.6974 48.6583 31.7551C47.9171 31.7879 47.6269 31.6599 47.6893 30.8111C47.8625 28.4691 47.9343 26.1209 48.0185 23.7727C48.0326 23.3842 48.1652 23.3062 48.5194 23.3062C52.9818 23.3155 57.4442 23.3171 61.9067 23.3062C62.3014 23.3062 62.395 23.4528 62.3654 23.807C62.3077 24.5013 62.2499 25.1972 62.2343 25.8931C62.2234 26.4189 61.8583 26.2816 61.579 26.2816C58.8033 26.2879 56.0275 26.3097 53.2517 26.2676C52.5527 26.2567 52.3171 26.4283 52.3187 27.1491C52.3218 28.413 52.2391 29.6784 52.1283 30.9375C52.0737 31.5616 52.481 31.39 52.7712 31.3916C55.1834 31.4025 57.5972 31.4321 60.0094 31.3775C60.7552 31.3604 60.8816 31.5913 60.7614 32.2497C60.6647 32.7787 60.6319 33.3326 60.6647 33.8693C60.7006 34.4388 60.479 34.5387 59.9579 34.5324C57.5191 34.5059 55.0804 34.5402 52.6417 34.5059C52.0441 34.4965 51.9099 34.6822 51.9083 35.2486C51.9037 36.617 51.8537 37.9869 51.7461 39.349C51.7055 39.8749 51.8693 39.9513 52.3249 39.9498C55.1787 39.9342 58.0325 39.9591 60.8862 39.9279C61.4963 39.9217 61.6851 40.0621 61.6071 40.6909C61.5197 41.4039 61.7834 42.337 61.3403 42.7817C60.9268 43.1952 60.0062 42.894 59.3103 42.9003C57.6237 42.9143 55.937 42.9049 54.2519 42.9049L54.2535 42.9034Z" fill="#0262A6"/>
<path d="M34.6095 23.3123C37.5163 23.3123 40.4246 23.3263 43.3315 23.2998C43.8729 23.2951 44.0632 23.4246 44.0164 23.9816C43.9556 24.7275 43.9603 25.4811 43.9665 26.2316C43.9696 26.7433 43.7949 26.9259 43.2441 26.915C41.2204 26.8775 39.1951 26.9243 37.1699 26.8853C36.5473 26.8728 36.3539 27.0102 36.3351 27.6764C36.1963 32.5851 35.9981 37.4906 35.839 42.3977C35.8249 42.8221 35.6767 42.9157 35.2897 42.9095C34.0961 42.8908 32.9009 42.8877 31.7073 42.9095C31.2876 42.9173 31.194 42.7909 31.2221 42.3743C31.3828 40.0292 31.5248 37.6825 31.6355 35.3359C31.6574 34.8818 31.8009 34.7726 32.2253 34.7804C32.7371 34.7913 33.3831 35.0035 33.731 34.6899C34.0774 34.3778 33.8824 33.7163 33.9448 33.2107C34.1273 31.7394 34.1133 31.6941 32.6451 31.7534C31.9382 31.7831 31.7541 31.5709 31.8165 30.8984C31.9148 29.8452 31.8727 28.7748 32.0069 27.7279C32.1083 26.9321 31.7666 26.8713 31.1238 26.8838C29.2811 26.9197 27.4384 26.8775 25.5957 26.9087C25.0761 26.9181 24.9232 26.7621 24.9606 26.2597C25.0168 25.4873 25.0168 24.7103 25.0324 23.9348C25.0418 23.4714 25.2165 23.2889 25.7314 23.2935C28.6897 23.3216 31.6496 23.3076 34.6079 23.3076L34.6095 23.3123Z" fill="#0262A6"/>
<path d="M81.8269 39.1336C81.6615 40.1884 81.4836 41.123 81.3838 42.0654C81.3463 42.4164 81.17 42.5163 80.9094 42.546C78.1072 42.8705 75.2799 43.3401 72.5057 42.5506C69.3976 41.6659 66.9605 39.934 66.0165 36.634C65.9884 36.5357 65.9588 36.4359 65.9416 36.336C65.8464 35.7525 65.4875 34.9832 65.7325 34.6353C66.0056 34.2468 66.8419 34.5042 67.4285 34.5183C67.892 34.5292 68.0027 34.3576 67.9746 33.9363C67.9122 33.0032 68.0807 32.0873 68.2539 31.0966C67.6626 31.0966 67.0946 31.0669 66.5329 31.1059C66.0087 31.1418 65.8449 31.0029 65.9931 30.4615C66.884 27.2348 68.9171 25.027 72.0642 23.952C75.2721 22.8567 78.5628 22.8848 81.8581 23.6259C82.245 23.7133 82.426 23.8381 82.3527 24.3031C82.2357 25.0411 82.2138 25.7931 82.1686 26.5405C82.1499 26.8432 82.0734 26.9509 81.7426 26.8323C80.6645 26.45 79.5348 26.2877 78.4052 26.1879C75.5467 25.9336 73.0144 26.6763 71.2809 29.0713C69.6192 31.3665 69.3149 33.9394 70.5507 36.5264C71.4962 38.5064 73.1938 39.5315 75.3938 39.8045C77.5673 40.0729 79.6565 39.7062 81.83 39.1336H81.8269Z" fill="#0262A6"/>
<path d="M12.2723 29.1681C9.49657 29.1681 6.72082 29.1635 3.94507 29.1697C3.45514 29.1697 2.99485 29.1166 2.73896 28.6376C2.35357 27.9168 2.84038 27.1257 3.72507 27.0602C4.24152 27.0212 4.76266 27.0508 5.28067 27.0508C10.2346 27.0508 15.1901 27.0508 20.144 27.0508C20.325 27.0508 20.5075 27.043 20.6885 27.0508C21.4671 27.0867 21.9477 27.4971 21.9524 28.1243C21.9586 28.7469 21.4718 29.1619 20.6745 29.165C17.8738 29.1728 15.0715 29.1681 12.2708 29.1666L12.2723 29.1681Z" fill="white"/>
<path d="M12.2208 42.3385C9.44509 42.3385 6.6709 42.3401 3.89514 42.3385C3.32096 42.3385 2.80606 42.2277 2.66252 41.5459C2.5533 41.031 2.72337 40.6534 3.16805 40.3648C3.38961 40.2212 3.61429 40.2555 3.84053 40.2555C9.4685 40.2524 15.0965 40.2509 20.726 40.2555C21.4546 40.2555 21.9243 40.6519 21.9477 41.2619C21.9711 41.8845 21.4796 42.3338 20.7026 42.337C17.8753 42.3463 15.0481 42.3417 12.2208 42.3417V42.3385Z" fill="white"/>
<path d="M99.9262 16.2315C102.313 16.2315 104.701 16.2315 107.09 16.2315C108.085 16.2315 108.48 16.5342 108.472 17.2754C108.466 17.9681 107.987 18.3457 107.063 18.3473C102.289 18.352 97.5125 18.3488 92.738 18.3504C92.1045 18.3504 91.521 18.2365 91.34 17.5203C91.1465 16.7527 91.6255 16.2378 92.5305 16.2347C94.9957 16.2253 97.461 16.2315 99.9262 16.2315Z" fill="white"/>
<path d="M99.8935 3.06321C102.306 3.06321 104.716 3.06009 107.129 3.06321C108.051 3.06321 108.467 3.38619 108.472 4.0774C108.477 4.78109 108.049 5.13995 107.168 5.14151C102.318 5.14463 97.4704 5.14463 92.621 5.14151C91.7191 5.14151 91.3181 4.80137 91.3244 4.08052C91.3291 3.39087 91.7145 3.06633 92.582 3.06477C95.0191 3.05853 97.4563 3.06321 99.8935 3.06321Z" fill="white"/>
<path d="M15.3773 33.7275C17.1654 33.7275 18.9551 33.7243 20.7432 33.729C21.5015 33.7306 21.9446 34.1082 21.9461 34.7307C21.9477 35.3408 21.4874 35.7714 20.7634 35.773C17.1607 35.7824 13.5565 35.7824 9.95377 35.773C9.20171 35.7714 8.77263 35.3751 8.77263 34.7463C8.77263 34.0551 9.1627 33.729 10.0099 33.7275C11.798 33.7243 13.5877 33.7275 15.3758 33.7275H15.3773Z" fill="white"/>
<path d="M96.7854 11.6759C95.3577 11.6759 93.93 11.679 92.5039 11.6759C91.7066 11.6728 91.3337 11.3482 91.3244 10.6711C91.315 9.97987 91.6754 9.63192 92.4603 9.63036C95.3671 9.62256 98.2739 9.62256 101.181 9.63036C101.958 9.63192 102.342 9.99859 102.332 10.6664C102.323 11.3124 101.905 11.6728 101.145 11.6759C99.6922 11.6806 98.238 11.6759 96.7854 11.6759Z" fill="white"/>
</g>
<defs>
<clipPath id="clip0_2219_3">
<rect width="107.944" height="43" fill="white" transform="translate(0.528046)"/>
</clipPath>
</defs>
</svg>
