<svg width="83" height="50" viewBox="0 0 83 50" fill="none" xmlns="http://www.w3.org/2000/svg">
<mask id="mask0_10_2212" style="mask-type:luminance" maskUnits="userSpaceOnUse" x="1" y="3" width="80" height="44">
<path d="M81 3.19995H1V46.72H81V3.19995Z" fill="white"/>
</mask>
<g mask="url(#mask0_10_2212)">
<path d="M15.1098 33.2212L15.1089 33.2372C16.5844 33.5423 18.285 35.2206 19.0953 37.6043V37.591C19.7144 38.7401 21.3082 38.3417 21.3082 38.3417C20.2453 37.414 19.8922 36.1768 19.8922 36.1768C19.8922 36.1768 20.4428 37.4131 22.5979 37.4131C21.9504 36.6188 21.1374 35.926 20.65 34.381C20.2978 33.263 20.2 31.6469 20.2258 31.2102C19.1051 32.5764 17.0078 33.6294 15.1098 33.2212Z" fill="#EEE800"/>
<path d="M19.0695 30.8588C21.2068 30.7272 23.8751 29.0346 25.9626 26.9124C23.9071 26.2053 21.5306 25.9482 19.2296 27.0467C17.28 27.9779 16.057 29.7185 15.3019 31.3444C15.2094 31.9368 15.1436 32.563 15.1089 33.2211C17.0078 33.6285 19.106 32.5763 20.2258 31.2101C20.2266 31.1767 20.2302 31.1434 20.2364 31.1105C20.2364 31.1105 19.2936 31.1995 18.4078 30.8472C18.559 30.8499 18.7858 30.8615 19.0695 30.8588Z" fill="#42A732"/>
<path d="M15.1088 33.2372C15.1043 33.3252 15.0972 33.4124 15.0954 33.5031C15.0848 33.7548 15.0776 34.0101 15.0776 34.2725C15.0776 34.3169 15.0812 34.3596 15.0812 34.405V34.4441C15.0981 35.4261 15.2107 36.404 15.4174 37.3641C15.7723 39.0096 16.3424 40.398 16.8289 41.2776C16.8094 40.7271 17.1331 39.6002 17.2363 39.4009C17.054 39.1145 16.869 37.8693 16.8218 37.3437C16.8209 37.3188 16.8183 37.2948 16.8165 37.2725C16.788 36.947 16.772 36.7273 16.8387 36.9728C16.8797 37.1213 16.9289 37.2674 16.9864 37.4104C17.7539 39.3298 19.7143 40.0218 19.7143 40.0218C19.5146 39.6789 19.3666 39.3084 19.2749 38.9224C19.1675 38.4908 19.1072 38.0489 19.0952 37.6043C18.2849 35.2206 16.5843 33.5422 15.1088 33.2372ZM26.9071 45.0364C26.9071 45.0364 26.9845 44.8905 27.0556 44.7927C27.1339 44.6824 27.2664 44.6148 27.2664 44.6148C27.2664 44.6148 27.0654 44.5472 26.8973 44.5561C26.7301 44.565 26.5798 44.6539 26.5798 44.6539C26.5798 44.6539 26.417 44.4698 26.2792 44.3782C26.0532 44.2314 25.6699 44.1309 25.6699 44.1309C25.6699 44.1309 25.9118 44.3862 26.0221 44.5641C26.1342 44.742 26.1813 44.9261 26.1813 44.9261C26.1813 44.9261 26.0959 45.0755 25.9056 45.1903C25.7162 45.3059 25.5231 45.3681 25.5231 45.3681C25.5231 45.3681 25.8789 45.4971 26.0275 45.5158C26.152 45.5318 26.4072 45.4882 26.4072 45.4882C26.4072 45.4882 26.4962 45.7346 26.5798 45.8742C26.6963 46.0788 26.9133 46.2193 26.9133 46.2193C26.9133 46.2193 26.8991 46.0121 26.9071 45.8991C26.9133 45.7684 26.9471 45.6385 26.9471 45.6385C26.9471 45.6385 27.1188 45.715 27.3554 45.6972C27.6089 45.6777 27.8552 45.4767 27.8552 45.4767C27.8552 45.4767 27.5057 45.3699 27.3714 45.313C27.077 45.1956 26.9071 45.0364 26.9071 45.0364ZM24.3438 44.3551C24.6728 44.4707 25.0357 44.7073 25.0357 44.7073C25.0357 44.7073 24.849 44.2599 24.5981 43.986C24.3269 43.6898 24.0289 43.5857 24.0289 43.5857C24.0289 43.5857 24.1552 43.4559 24.1917 43.0805C24.2219 42.7799 24.1757 42.2 24.1757 42.2C24.1757 42.2 24.0102 42.4775 23.8092 42.6847C23.6962 42.7995 23.5228 42.8964 23.5228 42.8964C23.5228 42.8964 23.2836 42.5762 23.0363 42.3983C22.7001 42.1511 22.3061 42.2213 22.3061 42.2213C22.3061 42.2213 22.5782 42.4366 22.7348 42.8217C22.8326 43.0618 22.8629 43.3242 22.8629 43.3242C22.8629 43.3242 22.5017 43.8081 22.3941 44.0847C22.2972 44.3302 22.2518 44.5223 22.2785 44.8096C22.2554 44.5605 22.8762 44.3497 23.0683 44.356C23.183 44.6619 23.3405 45.0061 23.578 45.2543C24.1339 45.8324 24.7876 45.7079 24.7876 45.7079C24.7876 45.7079 24.2459 45.265 24.0912 44.9839C23.8065 44.4734 23.8466 44.2635 23.8466 44.2635C23.8466 44.2635 24.1454 44.2857 24.3438 44.3551Z" fill="#EF7A00"/>
<path d="M20.224 42.4951C20.224 42.4951 20.5282 42.0727 20.7701 41.1308C20.2614 41.6306 19.2892 41.5959 19.2892 41.5959C19.2892 41.5959 18.9379 41.3851 18.5492 41.0089C18.2886 40.7545 17.9666 40.3614 17.9666 40.3614C17.9666 40.3614 17.9132 40.8915 17.9684 41.2864C18.0226 41.6804 18.1338 42.1038 18.1338 42.1038C18.1338 42.1038 18.0431 42.1927 17.8021 42.2603C17.5477 42.3288 17.2319 42.3048 17.2319 42.3048C17.2319 42.3048 17.4863 42.7371 17.8563 42.8909C18.0315 42.9657 18.3215 42.9576 18.3215 42.9576C18.3215 42.9576 18.2788 43.3846 18.4905 43.7706C18.7938 44.3309 19.4333 44.3861 19.4404 44.3861C19.1273 44.3594 19.0508 43.5794 19.1496 43.3881C19.0615 43.5616 20.0417 43.6283 20.1039 43.6309C21.0298 43.6665 21.688 43.1933 21.688 43.1933C21.688 43.1933 20.9489 43.0759 20.6794 42.9132C20.5015 42.8047 20.224 42.4951 20.224 42.4951ZM21.8703 41.7525C21.8703 41.7525 22.613 41.7356 22.9643 41.5034C23.3539 41.2482 23.4375 40.9804 23.4375 40.9804C23.4375 40.9804 23.8271 41.1459 24.1971 41.459C24.528 41.7382 24.8944 42.3181 24.8944 42.3181C24.8944 42.3181 24.8686 41.587 24.5377 40.9555C24.2789 40.4646 23.9303 40.1266 23.9303 40.1266C23.9303 40.1266 24.0272 40.0501 24.2558 39.9932C24.4871 39.9371 24.7432 40.0074 24.7432 40.0074C24.7432 40.0074 24.4675 39.6685 24.0468 39.5645C23.8509 39.5187 23.6503 39.496 23.4491 39.4969C23.2739 39.2736 23.0284 39.1073 22.798 38.9232C22.7135 38.8556 21.7956 38.4198 21.7965 38.41C21.7894 38.5336 22.1496 39.5556 22.0713 39.5751C21.5021 39.7157 21.1321 39.6899 20.5122 39.6196C20.7434 39.8989 20.9782 40.0465 21.4443 40.2938C21.8365 40.5055 22.171 40.5366 22.171 40.5366C22.171 40.5366 22.2119 40.7768 22.114 41.1912C22.0713 41.3664 21.8703 41.7525 21.8703 41.7525Z" fill="#EF7A00"/>
<path d="M19.0019 22.2544C18.0196 22.2444 17.0374 22.2871 16.0597 22.3825C17.1207 22.9322 19.9821 24.3491 22.1203 23.2951C21.6791 23.8759 20.554 24.4015 18.6355 23.7193L18.6337 23.7185C18.5776 23.7816 18.1151 24.3597 18.0831 24.4033C19.1077 25.1415 20.5095 25.3203 21.7921 24.7502C23.7203 23.8919 24.6436 21.6665 23.8609 19.7809C23.8 19.6372 23.7299 19.4976 23.651 19.3629C23.5747 19.2287 23.4891 19.1 23.3948 18.9778C24.5077 18.7179 25.6769 18.8646 26.6911 19.3914C26.9418 18.2902 27.5676 17.3105 28.4611 16.6199C29.046 16.1653 29.7267 15.8499 30.4516 15.6975C29.8904 15.6147 29.3204 15.6111 28.7582 15.6869C26.5697 15.9676 24.5152 16.8969 22.8594 18.3552C23.3601 17.6187 24.0646 17.0023 24.0646 17.0023C20.538 12.3684 18.5465 6.79071 17.8439 4.41414C17.6357 3.7106 17.3315 3.70082 17.223 4.41414C17.1163 5.12035 16.9936 6.09517 16.9242 7.22653C17.1875 7.8607 17.6064 8.6941 18.0271 9.3923L16.8904 7.94253C16.861 8.68432 16.8601 9.47769 16.9028 10.296C17.352 11.1445 18.1338 12.3435 18.8925 13.3228C18.8925 13.3228 18.0093 12.4333 16.9891 11.4558C17.1074 12.5988 17.3182 13.7657 17.6686 14.8846C17.9533 15.1159 19.2207 15.8461 19.2207 15.8461C12.1408 13.0621 6.46985 9.73385 3.60945 7.7682C2.79645 7.20963 2.55985 7.54851 2.96015 8.22359C3.16645 8.57225 3.42265 8.99384 3.72415 9.47235C6.22345 12.8985 8.53865 13.6501 8.53865 13.6501C8.53865 13.6501 7.39305 13.2916 6.01885 12.8469C9.34715 17.1055 13.5933 18.2333 13.5933 18.2333C13.5933 18.2333 11.5689 17.8197 10.0053 17.6321C14.4738 21.7857 18.1294 22.2091 19.0019 22.2544Z" fill="#C70027"/>
<path d="M26.6911 19.3923C26.6511 19.5717 26.6202 19.7531 26.5986 19.9357C26.8721 19.9238 27.1442 19.8902 27.4124 19.8352C28.6851 19.5798 29.8123 18.8481 30.5637 17.7895C30.9728 17.2149 31.245 16.5852 31.3891 15.9359C31.0868 15.8205 30.7723 15.7405 30.4516 15.6975C29.726 15.8494 29.0446 16.1649 28.4593 16.6199C27.5657 17.3107 26.9412 18.2908 26.6911 19.3923Z" fill="#8F1E22"/>
<path d="M32.347 19.0685C32.1611 19.2304 31.8089 19.1307 31.5598 18.8452C31.3108 18.5606 31.2574 18.1995 31.4442 18.0376C31.6283 17.8749 31.9805 17.9754 32.2305 18.2618C32.4795 18.5464 32.5338 18.9075 32.347 19.0685ZM38.5188 26.5531C38.2813 26.2275 36.4322 23.6918 35.6664 22.7356C34.9005 21.7759 34.6079 21.2787 34.3331 19.8983C34.0591 18.5188 33.4045 17.2941 32.3105 16.4633C32.0279 16.2478 31.7181 16.0704 31.3891 15.9359C31.2413 16.6029 30.9606 17.2334 30.5637 17.7895C29.8123 18.8481 28.6852 19.5798 27.4124 19.8352C28.1397 20.3736 28.7296 21.076 29.1343 21.8853C30.7994 21.0661 32.4368 20.906 34.1187 22.0828C35.7998 23.2604 37.8037 26.4855 38.1292 26.9177C38.4441 27.3367 38.8354 26.9871 38.5188 26.5531Z" fill="#9E4394"/>
<path d="M28.1783 24.1436C28.0378 24.3588 27.9666 24.4727 27.9382 24.5172C28.0209 24.3926 28.1018 24.2681 28.1783 24.1436Z" fill="#00A0E9"/>
<path d="M27.3929 23.1909C26.845 23.5218 26.5417 23.7601 26.5417 23.7601C26.5417 23.7601 26.7481 23.4844 27.3076 23.0468C27.1141 22.7029 26.9456 22.3457 26.8032 21.9777C26.5346 21.1415 26.4956 20.2485 26.6903 19.3921C25.6761 18.8653 24.5069 18.7186 23.394 18.9785C23.5826 19.2252 23.7392 19.4948 23.8601 19.7808C24.6437 21.6664 23.7205 23.8909 21.7913 24.7501C20.5096 25.3202 19.1079 25.1414 18.0841 24.4032C17.2623 25.5159 15.8445 27.8391 15.302 31.3443C16.058 29.7185 17.2801 27.9787 19.2297 27.0466C21.5307 25.9481 23.9072 26.2052 25.9627 26.9132C26.7134 26.1518 27.3867 25.3362 27.9373 24.5179L28.1943 24.1177C27.875 23.8206 27.5824 23.4898 27.3929 23.1909ZM28.1943 24.1177L28.1783 24.1435C28.1845 24.1346 28.1899 24.1266 28.1943 24.1177Z" fill="#00A0E9"/>
<path d="M27.9381 24.5163L27.9372 24.518C27.9167 24.5447 27.9132 24.5518 27.9381 24.5163ZM28.1942 24.1187L27.9372 24.518C27.9372 24.5163 27.9381 24.5163 27.9381 24.5163C27.9665 24.4718 28.0377 24.3588 28.1782 24.1436L28.1942 24.1187Z" fill="#00A0E9"/>
<path d="M28.1942 24.1187C28.502 23.6206 29.0241 22.6067 29.0925 22.3087C28.3988 22.6147 27.8206 22.9313 27.3928 23.191C27.5823 23.4899 27.8758 23.8207 28.1942 24.1187Z" fill="#475AA7"/>
<path d="M27.4124 19.8352C27.1439 19.8902 26.8715 19.9238 26.5977 19.9357C26.5209 20.6235 26.5906 21.3198 26.8023 21.9787C26.9357 22.3256 27.1287 22.7347 27.3083 23.0469C27.713 22.7312 28.3027 22.3309 29.1343 21.8853C28.7295 21.0758 28.1401 20.3734 27.4124 19.8352Z" fill="#475AA7"/>
<path d="M71.5932 34.7217L73.5411 30.9843L74.1673 30.9852C74.3558 30.9976 74.4821 31.0652 74.5826 31.2369L76.4149 34.7217H71.5932ZM77.0837 30.4897C76.7306 29.8493 76.5341 29.7141 75.4472 29.7141L72.8909 29.7115L68.6973 37.518L70.316 37.5216L71.1343 36.006H77.0668L77.918 37.518H80.9999L77.0837 30.4897ZM52.2952 34.7217L54.2431 30.9843L54.8675 30.9852C55.056 30.9976 55.1841 31.0652 55.2846 31.2369L57.1168 34.7217H52.2952ZM55.997 29.7141L53.4417 29.7115L49.2471 37.518L50.865 37.5216L51.6859 36.006H57.6167L58.4697 37.518H61.5515L57.6345 30.4906C57.2814 29.8502 57.0866 29.715 55.9979 29.715M28.7501 34.7226L30.6989 30.9852L31.3224 30.986C31.5109 30.9985 31.639 31.0661 31.7404 31.2377L33.5708 34.7226H28.7501ZM32.4528 29.715L29.8957 29.7124L25.7029 37.5189L27.3199 37.5225L28.14 36.0069H34.0716L34.9228 37.5189H38.0047L34.0894 30.4906C33.7372 29.8502 33.5397 29.715 32.4528 29.715ZM70.3214 29.7933L59.8011 29.7898L59.8029 31.1479H63.8792L63.8854 37.4931H66.3331L66.3358 31.7874C66.3349 31.5393 66.3625 31.3694 66.4194 31.2902C66.4701 31.2173 66.5511 31.1639 66.7992 31.1604L66.8108 31.1613H70.3311L70.3214 29.7933ZM43.923 36.3822H40.8882L40.8962 30.6614L43.9114 30.6721C43.9203 30.6703 43.9274 30.6703 43.9354 30.6703C45.5809 30.6792 46.5824 31.4121 46.5913 33.5298C46.5842 35.3709 45.5755 36.3644 43.923 36.3822ZM43.8998 29.4873L38.6984 29.4882L38.702 37.5776H38.7518L43.9105 37.5732H43.9327C45.676 37.5732 46.9586 37.3428 47.8116 36.7176C48.6654 36.0914 49.0737 35.0721 49.0719 33.5298C49.0808 30.4168 47.4594 29.4873 43.8998 29.4873Z" fill="white"/>
</g>
</svg>
