<svg width="118" height="25" viewBox="0 0 118 25" fill="none" xmlns="http://www.w3.org/2000/svg">
<path d="M41.0822 6.59961H37.2572L30.1741 18.0995H34.3525C34.3525 18.0995 38.531 10.8331 39.0978 9.77452C39.7353 10.8331 43.9138 18.0995 43.9138 18.0995H48.0922L41.0798 6.59961H41.0822Z" fill="white"/>
<path d="M37.0446 15.3486H40.9403L38.9571 18.1702L37.0446 15.3486Z" fill="#7D8485"/>
<path d="M56.5243 6.59961H49.5826V18.0995H56.4536C63.182 18.0995 64.5289 14.9247 64.5289 12.3143C64.5996 9.77452 63.182 6.59961 56.5243 6.59961ZM53.4783 8.85786H55.2493C59.0036 8.92831 60.632 9.28149 60.632 12.3143C60.632 15.3472 59.0743 15.7709 55.2493 15.8412H53.4783V8.85786Z" fill="white"/>
<path d="M69.8398 15.7709V6.59961H65.9442V18.0995H78.6233V15.7709H69.8398Z" fill="white"/>
<path d="M83.7928 6.59961H80.3214V18.1699H84.1463V6.59961H83.7928Z" fill="white"/>
<path d="M105.536 6.59961H101.995V18.1699H105.891V6.59961H105.536Z" fill="white"/>
<path d="M96.4703 6.59961V13.5843C95.3368 12.3848 89.67 6.59961 89.67 6.59961H85.9865V18.0995H89.5993V11.0445C90.7328 12.244 96.3996 18.0995 96.3996 18.0995H100.083V6.59961H96.4703Z" fill="white"/>
<path d="M110.637 11.398C111.345 10.9039 117.365 6.60107 117.365 6.60107H112.337L106.102 11.54L112.619 18.101H118.002C118.002 18.1713 111.273 12.0341 110.636 11.3991L110.637 11.398Z" fill="white"/>
<path d="M0 24.6608C7.29527 17.7466 16.1494 17.7466 23.4446 24.6608L18.6286 14.5718L4.1796 16.053L0 24.6608Z" fill="#CE343A"/>
<path d="M4.95764 14.2901H18.4864L17.4235 12.1035L5.31106 13.5847L4.95764 14.2901Z" fill="#CE343A"/>
<path d="M6.09155 11.8203H17.2836L16.2914 9.7041L6.44627 11.1148L6.09155 11.8203Z" fill="#CE343A"/>
<path d="M7.29456 9.351H16.1488L11.6863 0.109375L7.29456 9.351Z" fill="#CE343A"/>
<path d="M25.371 21.3501C24.3974 21.3501 23.6009 22.1466 23.6009 23.1202C23.6009 24.0937 24.3974 24.8902 25.371 24.8902C26.3445 24.8902 27.141 24.0937 27.141 23.1202C27.141 22.1466 26.3445 21.3501 25.371 21.3501ZM25.371 24.5362C24.5892 24.5362 23.9476 23.9019 23.9476 23.1202C23.9476 22.3384 24.5892 21.6967 25.371 21.6967C26.1527 21.6967 26.7943 22.3384 26.7943 23.1202C26.7943 23.9019 26.1527 24.5362 25.371 24.5362Z" fill="white"/>
<path d="M26.1012 22.8108C26.0938 22.501 25.8798 22.2798 25.5332 22.2798L24.7441 22.2945L24.7662 23.9613H25.1277V23.364H25.3784L25.7176 23.954H26.1233L25.7397 23.3123C25.9168 23.2681 26.1012 23.1058 26.1012 22.8108ZM25.489 23.0468H25.1129V22.597H25.4817C25.6217 22.5895 25.7324 22.678 25.7324 22.8182C25.7397 22.9583 25.6292 23.0468 25.489 23.0468Z" fill="white"/>
</svg>
