<svg width="249" height="51" viewBox="0 0 249 51" fill="none" xmlns="http://www.w3.org/2000/svg">
<path d="M249 0H0V50.6801H249V0Z" fill="#004280"/>
<path d="M56.1499 16.6035V43.2207H61.9494C71.087 43.2207 76.5149 37.5547 76.5149 30.1419C76.5149 22.7172 71.5296 16.6035 60.7905 16.6035H56.1499ZM62.1352 37.7895V21.7763C67.9567 21.4587 70.5701 25.5655 70.5701 30.2483C70.5701 34.7318 67.8334 38.1561 62.1352 37.7895Z" fill="white"/>
<path d="M137.014 16.6029H131.015V31.3744L114.642 16.1484V43.2201H120.63V29.3388L137.014 44.3029V16.6029Z" fill="white"/>
<path d="M139.567 21.7712H146.874V43.2207H153.308V21.7712H160.529V16.6035H139.567V21.7712Z" fill="white"/>
<path d="M162.882 43.2207V16.6035H178.575V21.6546H168.918V27.3257H177.61V32.4512H168.918V38.1189H178.575V43.2207H162.882Z" fill="white"/>
<path d="M220.283 16.6035V27.3629H209.998V16.6035H203.993V43.2207H209.998V32.4512H220.283V43.2207H226.283V16.6035H220.283Z" fill="white"/>
<path d="M73.6191 16.6035L87.2453 43.9505L90.5243 37.009L80.5877 16.6035H73.6191Z" fill="white"/>
<path d="M100.755 15.6816L97.4523 22.5893L100.26 29.6981H94.0382L91.9468 34.0988H101.971L105.757 43.2195H112.721L100.755 15.6816Z" fill="white"/>
<path d="M179.862 29.9657C179.862 38.6928 186.438 43.5446 194.549 43.5446C197.75 43.5446 199.519 42.6256 200.848 41.9431V35.6317C199.617 37.2653 197.156 38.3549 194.667 38.3549C189.81 38.3549 185.957 35.0742 185.957 29.8035C185.957 24.5851 190.231 21.4565 194.667 21.4565C197.157 21.4565 199.619 22.5461 200.848 24.1797V18.3295C199.713 17.3311 197.671 16.4746 194.478 16.4746C186.373 16.4746 179.862 22.2217 179.862 29.9657Z" fill="white"/>
<path d="M35.3998 32.7903L39.2261 23.3857L43.0525 32.7903H35.3998ZM54.6971 43.2203L39.4474 9.9707L24.0542 43.2203H31.5886L33.7611 37.6573H44.6759L46.8636 43.2203H54.6971Z" fill="white"/>
</svg>
