<svg width="183" height="65" viewBox="0 0 183 65" fill="none" xmlns="http://www.w3.org/2000/svg">
<g clip-path="url(#clip0_183_193)">
<path d="M33.9543 15.2368C46.1607 22.5997 47.8999 40.128 36.5488 49.2244C36.208 49.4978 34.8932 50.1975 34.8429 50.5658L36.2242 54.7827C36.9162 56.3102 37.5959 58.8316 39.7851 58.2534C41.3543 57.8386 41.8242 54.6745 41.5015 53.3207L41.5812 53.2144C42.4679 53.1014 44.9836 52.7113 45.2684 53.9084C45.3377 54.1989 44.9836 55.3732 44.92 55.7937C44.8734 56.0994 44.9456 56.4203 44.8981 56.7212C44.4396 59.6081 42.6653 62.6137 39.8496 63.6342C37.9111 64.3367 34.6635 64.1705 32.8218 63.2165C29.3141 61.3985 28.5081 57.3174 28.0904 53.709L27.9518 53.5581C27.7638 53.503 26.8259 53.8742 26.5316 53.9236C16.9653 55.5308 6.97653 51.592 2.42453 42.826C-2.8518 32.6645 0.784104 20.9109 10.4169 15.1191C17.1874 11.0484 27.2066 11.168 33.9534 15.2368H33.9543ZM31.2782 19.2401C27.7524 15.2283 21.0189 14.4593 16.3302 16.7605C8.39576 20.6536 8.94352 32.0882 9.80835 39.5233L11.9681 46.5246L12.2747 44.0326C13.8297 37.4699 23.0628 36.1001 27.9053 39.7483C28.7084 40.354 30.3915 41.7134 30.9535 42.4909C31.5155 43.2684 31.9997 44.4275 32.3813 45.3351C32.4506 45.4993 32.4449 45.7347 32.519 45.8629C32.6936 46.1657 32.7924 45.4964 32.8322 45.4138C34.1632 42.657 34.8733 38.5075 34.9454 35.4707C35.0299 31.9344 35.0897 28.084 34.1575 24.6693C33.6278 22.7279 32.6035 20.7486 31.2792 19.241L31.2782 19.2401ZM10.733 16.2421L9.85677 16.7159C8.89226 17.7003 7.67238 18.3648 6.80565 19.3863C6.63097 19.5923 5.58482 21.059 5.65412 21.1786C5.73102 21.3115 5.85633 21.3182 5.93512 21.1739C6.72306 20.3252 7.40467 19.3426 8.22868 18.531C8.8989 17.8702 9.82544 17.2228 10.5156 16.5459C10.6105 16.4529 10.7843 16.4538 10.7339 16.2431L10.733 16.2421ZM8.73847 39.8793C8.56854 39.8727 8.53816 39.8318 8.54955 40.0207C8.57329 40.4214 8.75745 41.2767 8.92454 41.6412C9.65456 43.2304 10.6532 44.8262 11.2542 46.5264L11.8712 47.5698C11.4678 46.1667 10.9779 44.7645 10.3533 43.4402C10.0419 42.7804 9.77038 42.2849 9.34224 41.7457C8.91409 41.2065 8.90745 40.5172 8.73847 39.8802V39.8793ZM17.4153 49.9981C18.7699 51.1164 22.8985 51.0519 24.6178 50.7737C25.7095 50.5971 26.8914 50.1149 27.9186 49.7076C28.0287 49.2567 27.9679 48.4934 27.9148 47.9969C27.7135 46.0993 27.1686 43.0709 25.5358 41.927C23.0514 40.1859 18.0646 40.671 16.3947 43.4051C15.1521 45.4404 15.5707 48.4754 17.4153 49.9981ZM34.8458 46.6204C34.5762 46.5891 34.5458 46.8682 34.3958 47.0049C34.2828 47.1084 33.9316 47.0847 33.9923 47.4739C34.2724 47.5565 34.9796 46.7647 34.8458 46.6204ZM35.1296 53.9302C34.9464 53.9207 34.9388 53.8856 34.9378 54.0736C34.9369 54.3384 35.2967 55.3827 35.4182 55.6836C35.4771 55.8298 35.4922 55.9599 35.7001 55.9228L35.1296 53.9302Z" fill="white"/>
<path d="M55.6357 42.3465L63.3347 13.022L70.6863 13.0059L78.5144 42.3465H71.5843L70.4509 37.4518L63.6224 37.4224L62.4709 42.3465H55.6357ZM69.211 32.0939L66.9801 19.9416L64.8442 32.0939H69.211Z" fill="white"/>
<path d="M108.988 13.393V20.0382C107.239 19.2028 103.466 17.2748 101.963 19.3263C100.041 21.9521 104.986 24.6738 106.521 26.0645C109.65 28.903 111.646 32.2589 110.554 36.6514C108.979 42.99 101.09 44.6247 95.8863 41.7293V34.9416C96.5052 35.0708 97.0577 35.515 97.6558 35.7827C99.3124 36.5242 102.614 37.6244 103.622 35.4163C104.825 32.7819 101.328 30.9194 99.6817 29.4849C96.1113 26.3721 93.757 22.9745 95.1961 17.9716C96.9486 11.8798 103.9 11.0871 108.986 13.392L108.988 13.393Z" fill="white"/>
<path d="M93.1339 13.0137V19.7539H88.5772V42.3477H81.837V19.7539H77.2803V13.0137H93.1339Z" fill="white"/>
<path d="M54.4018 12.7281V43.9608H182.94V45.2898H54.4018V54.9729H53.0728V12.8705C53.4012 12.58 53.9803 12.7869 54.4018 12.7281Z" fill="white"/>
<path d="M26.3558 6.04395C24.7828 8.7087 20.5184 8.76281 18.8173 6.21103C17.043 3.55009 19.103 0.306256 22.0886 0.0195606C25.3932 -0.298462 28.1728 2.96625 26.3558 6.04395ZM20.9058 2.17737C21.1013 2.30173 21.9329 2.22009 22.0772 1.90491C22.4237 1.14641 20.9399 1.2271 20.8108 1.78435C20.7909 1.87074 20.8555 2.14509 20.9058 2.17737Z" fill="white"/>
<path d="M137.087 23.0762L137.705 26.5896L138.43 23.0895L140.599 23.0771L141.312 30.3859H139.746L139.318 25.8283L138.371 30.2939L137.24 30.3926L136.139 25.8302L135.853 30.1496L135.711 30.3859H134.287L134.163 30.1723L134.904 23.0762H137.087Z" fill="white"/>
<path d="M170.789 33.3281L172.35 36.6564L172.687 37.0305V33.3281H174.396V40.6379H172.592L170.694 36.8406V40.6379H168.985V33.3281H170.789Z" fill="white"/>
<path d="M138.369 12.7285L140.41 16.6207V12.7285H141.977L142.119 12.8709V20.0383H140.363L138.417 16.241V20.0383H136.708V12.8709L136.85 12.7285H138.369Z" fill="white"/>
<path d="M150.046 33.3281L152.087 37.2203V33.3281H153.653L153.796 33.4705V40.6379H152.04L150.094 36.8406V40.6379H148.385V33.3281H150.046Z" fill="white"/>
<path d="M144.185 33.1638C148.759 32.5743 148.121 42.5678 143.515 40.6188C141.252 39.661 141.183 33.5511 144.185 33.1638ZM144.557 34.8716C143.581 34.9144 143.673 37.1538 143.735 37.8364C143.857 39.1958 144.966 39.6581 145.321 38.2863C145.493 37.6209 145.628 34.8251 144.557 34.8716Z" fill="white"/>
<path d="M120.262 33.164C124.841 32.5972 124.169 42.5556 119.593 40.619C117.324 39.6592 117.256 33.5361 120.262 33.164ZM120.617 34.8898C119.576 34.887 119.694 37.8299 119.93 38.4773C120.207 39.2396 120.958 39.3099 121.307 38.5751C121.634 37.8868 121.725 34.8927 120.617 34.8889V34.8898Z" fill="white"/>
<path d="M119.335 20.0383V12.8709L119.478 12.7285H121.092C121.682 12.7285 122.664 13.0627 123.135 13.4386C124.581 14.5901 124.546 18.1406 123.166 19.3595C122.925 19.5722 121.947 20.0383 121.661 20.0383H119.335ZM121.139 18.4244C122.831 18.3751 122.8 14.3689 121.139 14.4373V18.4244Z" fill="white"/>
<path d="M119.525 23.0762V25.7343H120.854V23.0762H122.563V30.3859H120.854V27.3481H119.525V30.3859H117.816V23.0762H119.525Z" fill="white"/>
<path d="M153.036 20.0383V12.8709L153.179 12.7285H154.792C155.37 12.7285 156.379 13.0636 156.835 13.4386C158.252 14.5987 158.253 18.0979 156.923 19.3206C156.678 19.5456 155.66 20.0383 155.362 20.0383H153.036ZM154.745 14.4373V18.4244C156.565 18.5108 156.533 14.2389 154.745 14.4373Z" fill="white"/>
<path d="M133.385 30.3859H131.582L130.347 27.3481V30.3859H128.639V23.0762H131.249C131.427 23.0762 132.118 23.4208 132.294 23.5508C133.418 24.3872 133.396 26.3229 132.192 27.0633L133.385 30.3859ZM130.347 26.114C131.736 26.3352 131.662 24.3862 130.347 24.5951V26.114Z" fill="white"/>
<path d="M130.158 33.3281V38.7867C130.158 38.8218 130.485 39.1114 130.565 39.1446C131.003 39.3288 131.487 38.9101 131.487 38.5019V33.3281H133.196V38.8817C133.196 39.0468 132.939 39.7683 132.836 39.9458C132.06 41.2692 129.204 41.1952 128.634 39.6459C128.537 39.3819 128.354 38.5598 128.354 38.3121V33.3281H130.158Z" fill="white"/>
<path d="M142.214 30.3858L144.021 23.0808L145.953 23.0703L147.872 30.1893L147.767 30.3858H146.106L145.809 29.164L144.197 29.2067L143.924 30.3858H142.215H142.214ZM145.442 27.7277L144.969 25.1655L144.493 27.7267H145.442V27.7277Z" fill="white"/>
<path d="M135.854 20.0376H134.192L133.871 18.9535L132.152 18.8994L131.961 20.0376H130.158L132.147 12.7715L134.005 12.8199L135.854 20.0376ZM133.48 17.4744L133.007 15.0071L132.531 17.4744H133.48Z" fill="white"/>
<path d="M118.576 20.0373H116.772L116.539 18.9892L114.867 18.9399L114.589 20.0382H112.88L114.729 12.8215C114.839 12.6753 116.503 12.6677 116.632 12.8215C116.698 12.9022 116.773 13.2515 116.82 13.393C117.514 15.528 117.877 17.889 118.577 20.0373H118.576ZM116.203 17.4732L115.634 14.816L115.158 17.4732H116.203Z" fill="white"/>
<path d="M126.123 12.7285L127.452 17.1913L128.544 12.7285H130.348L128.121 20.0449L126.596 19.9462L124.462 12.7285H126.123Z" fill="white"/>
<path d="M136.604 47.6726L137.515 52.2198L138.461 47.7532L139.367 47.6621L140.031 54.6871L139.086 54.6823L138.749 50.699L137.859 54.633L137.192 54.6776L136.376 50.6041L136.044 54.688H135.094L135.754 47.7238L136.604 47.6726Z" fill="white"/>
<path d="M127.404 23.0762V24.69H125.696V25.9241H127.215V27.3956L127.072 27.538H125.696V28.6772H127.404V30.3859H123.987V23.0762H127.404Z" fill="white"/>
<path d="M151.802 12.7285V14.4373H150.188V15.6714H151.612V17.1903H150.188V18.4244H151.802V20.0383H148.479V12.7285H151.802Z" fill="white"/>
<path d="M158.448 33.4236V35.1323C157.974 35.0365 157.185 34.4583 156.779 34.9339C156.183 35.6317 157.664 36.3665 158.071 36.7908C160.306 39.1252 157.681 41.9523 155.125 40.4011V38.7398C155.604 38.9629 157.06 39.6483 157.117 38.6847C157.159 37.9642 155.083 37.0993 154.935 35.7494C154.683 33.4492 156.507 32.7049 158.448 33.4236Z" fill="white"/>
<path d="M116.772 35.1321C116.697 35.2109 114.848 34.1866 114.898 35.2584C114.932 35.9846 116.968 36.8675 117.143 38.131C117.463 40.4255 115.367 41.3616 113.449 40.5432V38.7395C114.002 38.8743 114.672 39.498 115.208 39.0262C115.97 38.3541 114.361 37.5481 113.968 37.1295C111.879 34.9024 114.186 32.0354 116.772 33.5657V35.1321Z" fill="white"/>
<path d="M147.34 14.5326C144.218 13.2425 144.227 19.5545 147.34 18.235V19.9912C146.697 20.4004 145.755 20.2513 145.092 19.9618C143.089 19.0893 142.729 15.9727 143.655 14.2165C144.337 12.9244 145.978 12.1451 147.34 12.7754V14.5316V14.5326Z" fill="white"/>
<path d="M179.617 35.1315C176.543 33.8243 176.512 40.1249 179.617 38.8339V40.5901C179.242 40.8768 178.709 40.8483 178.267 40.8009C174.899 40.4335 174.547 34.748 177.319 33.4503C178.021 33.1218 178.94 32.9785 179.617 33.3753V35.1315Z" fill="white"/>
<path d="M138.037 33.3281V35.1318H136.898V40.6379H135.189V35.1318C134.823 35.0825 134.325 35.2676 134.05 34.9894V33.3281H138.037Z" fill="white"/>
<path d="M116.867 23.0762V24.785H115.728V30.3859H114.019V24.785H112.88V23.0762H116.867Z" fill="white"/>
<path d="M166.422 54.6873C166.175 54.6455 165.483 54.8145 165.391 54.5316C165.229 53.811 165.597 51.1491 165.29 50.6688C165.075 50.3327 164.428 50.6583 164.428 50.9374V54.6873H163.479V50.9374C163.479 50.6488 162.915 50.4087 162.649 50.6308C162.632 50.6451 162.435 51.0096 162.435 51.0324V54.6873H161.485V49.8457L162.383 49.8391C162.483 50.4077 162.603 50.0024 162.909 49.8922C163.955 49.5163 163.887 50.14 164.3 50.215C164.414 50.2359 164.949 49.7062 165.495 49.7688C165.963 49.822 166.423 50.2805 166.423 50.7476V54.6873H166.422Z" fill="white"/>
<path d="M125.601 54.689H124.651V50.9392C124.651 50.8832 124.471 50.6629 124.401 50.6164C123.958 50.324 123.607 50.9373 123.607 51.3189V54.689H122.658V50.8442C122.658 50.5082 121.709 50.4265 121.709 50.9392V54.689H120.759V49.8474L121.656 49.8408L121.755 50.1322C122.303 49.593 123.172 49.6367 123.559 50.3212C123.899 49.8076 124.83 49.5854 125.313 49.9927C125.363 50.0354 125.6 50.4379 125.6 50.4655V54.6899L125.601 54.689Z" fill="white"/>
<path d="M150.378 23.0762V28.5822H151.707V30.3859H148.812L148.669 30.2435V23.0762H150.378Z" fill="white"/>
<path d="M126.171 33.3281V38.9291H127.5V40.6379H124.462V33.3281H126.171Z" fill="white"/>
<path d="M156.264 55.5892C156.025 57.2078 152.89 57.0227 153.321 55.162H154.27C154.194 55.5693 154.442 55.987 154.882 55.9253C155.502 55.838 155.28 54.6532 155.314 54.2127C154.827 54.9247 153.872 54.8896 153.505 54.076C153.217 53.4371 153.218 50.9243 153.533 50.2939C153.87 49.618 154.853 49.5962 155.268 50.2246L155.314 49.8449H156.265V55.5892H156.264ZM154.716 50.6195C154.302 50.7382 154.26 51.903 154.266 52.2714C154.272 52.5723 154.373 53.5188 154.551 53.6953C155.278 54.4159 155.331 52.3482 155.318 51.979C155.306 51.5878 155.275 50.46 154.716 50.6205V50.6195Z" fill="white"/>
<path d="M110.507 47.4727V50.1308C110.929 49.7662 111.662 49.5915 112.118 49.9912C112.171 50.0377 112.405 50.4355 112.405 50.463V54.6875H111.456V50.9377C111.456 50.5874 110.726 50.4412 110.554 50.7943L110.493 54.5318C110.401 54.8147 109.709 54.6457 109.462 54.6875V47.4727H110.507Z" fill="white"/>
<path d="M167.561 33.3281H165.852V40.6379H167.561V33.3281Z" fill="white"/>
<path d="M140.695 33.3281H138.986V40.6379H140.695V33.3281Z" fill="white"/>
<path d="M129.778 54.6887L128.887 54.6773L128.733 54.3089C128.075 54.9592 127.2 54.8073 126.901 53.9102C126.499 52.7008 126.5 48.5447 128.732 50.1319C128.781 49.6487 129.422 49.9022 129.778 49.8471V54.6887ZM127.997 50.7252C127.689 51.0376 127.69 53.3587 127.967 53.6985C128.055 53.8058 128.164 53.8514 128.302 53.839C128.883 53.7849 128.806 51.5977 128.729 51.1344C128.696 50.9369 128.603 50.7746 128.448 50.6493C128.322 50.579 128.092 50.6294 127.998 50.7252H127.997Z" fill="white"/>
<path d="M152.182 54.6882H151.231V54.2136C150.668 54.9303 149.656 54.8819 149.329 53.981C149.041 53.1874 148.984 50.5046 149.708 49.9834C150.052 49.7356 150.548 49.6758 150.903 49.9388C151.075 50.066 151.067 50.2767 151.231 50.3204V49.8457H152.182V54.6873V54.6882ZM150.401 50.7248C150.098 51.04 150.123 53.2377 150.334 53.6421C150.546 54.0465 151.034 53.7797 151.119 53.3877C151.164 53.1769 151.239 52.3159 151.237 52.0833C151.235 51.8773 151.119 51.0106 151.032 50.8568C150.898 50.6175 150.609 50.5093 150.402 50.7258L150.401 50.7248Z" fill="white"/>
<path d="M77.4704 54.6889H76.5201V54.2142C76.3055 54.3813 76.2192 54.6262 75.8983 54.6841C74.0794 55.0136 74.3101 51.6463 74.649 50.5859C74.9518 49.6385 75.884 49.516 76.5201 50.2271V49.8464H77.4704V54.6879V54.6889ZM76.3093 50.7255C75.7863 50.1796 75.5261 51.278 75.4891 51.6159C75.4398 52.0621 75.3781 54.2997 76.2381 53.7889C76.5875 53.3276 76.6388 51.0691 76.3093 50.7255Z" fill="white"/>
<path d="M143.923 54.6878H142.973V54.2131C142.752 54.3764 142.77 54.5891 142.432 54.6669C140.629 55.0789 140.798 52.0335 141.005 50.9627C141.229 49.8045 142.073 49.3403 142.973 50.226V49.8453H143.923V54.6869V54.6878ZM142.762 50.7244C142.504 50.4548 142.171 50.6826 142.069 50.9826C141.865 51.5769 141.915 52.8594 142.046 53.4812C142.119 53.8268 142.37 53.9265 142.692 53.7879C143.05 53.5752 143.084 51.0586 142.763 50.7244H142.762Z" fill="white"/>
<path d="M148.005 54.6887H147.056V50.844C147.056 50.488 146.106 50.488 146.106 50.844V54.6887C145.767 54.646 145.313 54.8169 145.062 54.5463V49.8472L146.054 49.8405L146.153 50.132C146.56 49.5254 148.005 49.7503 148.005 50.4642V54.6887Z" fill="white"/>
<path d="M61.3321 54.6887H60.3827V50.844C60.3827 50.488 59.4334 50.488 59.4334 50.844V54.6887C59.0945 54.646 58.6398 54.8169 58.3892 54.5463V49.8472L59.3812 49.8405L59.4799 50.132C59.8872 49.5254 61.3321 49.7503 61.3321 50.4642V54.6887Z" fill="white"/>
<path d="M102.342 54.6888H101.393V50.844C101.393 50.4881 100.444 50.4881 100.444 50.844V54.6888C100.105 54.6461 99.65 54.817 99.3994 54.5464V49.8473L100.391 49.8406L100.49 50.1321C100.86 49.7239 101.637 49.627 102.054 49.9935C102.107 50.04 102.341 50.4377 102.341 50.4653V54.6898L102.342 54.6888Z" fill="white"/>
<path d="M88.5773 54.6876H87.6279V49.8461L88.525 49.8394L88.5782 50.1318C89.0016 49.6913 90.0506 49.6031 90.3705 50.1888C90.417 50.2742 90.5708 50.8704 90.5708 50.9378V54.5452L90.4132 54.6724C90.2936 54.699 90.1702 54.6933 90.0487 54.6933C89.8541 54.6933 89.6471 54.7246 89.5266 54.5452V50.8429C89.5266 50.5068 88.5773 50.4252 88.5773 50.9378V54.6876Z" fill="white"/>
<path d="M84.7575 49.7729C85.8767 49.6086 86.3998 50.538 86.4881 51.5101C86.6191 52.9559 86.5327 55.0046 84.5486 54.6828C83.2034 54.4644 83.2594 51.5063 83.661 50.5788C83.849 50.145 84.2951 49.8403 84.7575 49.7729ZM84.8467 50.6197C84.6644 50.6709 84.5306 50.9548 84.5002 51.1342C84.4356 51.5225 84.4461 53.479 84.6426 53.7334C84.7318 53.8493 84.8771 53.9091 85.0204 53.9262C85.5948 53.9138 85.4951 51.7683 85.4448 51.3184C85.4068 50.9766 85.2767 50.4982 84.8467 50.6187V50.6197Z" fill="white"/>
<path d="M67.9573 49.7729C68.8649 49.6836 69.3661 50.2542 69.5493 51.0763C69.7705 52.0721 69.8332 54.471 68.4937 54.6827C66.6321 54.978 66.4422 53.0974 66.5552 51.7C66.6273 50.8086 66.933 49.8735 67.9583 49.7729H67.9573ZM68.4301 53.8113C68.5193 53.7182 68.6266 53.1012 68.6408 52.9312C68.6798 52.4775 68.6788 50.932 68.3162 50.6965C67.4029 50.1042 67.5615 52.5809 67.6108 53.0157C67.6554 53.4069 67.9459 54.3182 68.431 53.8113H68.4301Z" fill="white"/>
<path d="M65.5088 54.6881H64.5595V51.2231C64.5595 51.1937 64.3981 50.7038 64.3772 50.6697C64.1712 50.3327 63.5152 50.6583 63.5152 50.9383V54.6881H62.5659V49.8466L63.463 49.84L63.5162 50.1324C63.9576 49.7232 64.8937 49.5685 65.2686 50.1352C65.3256 50.2206 65.5088 50.6858 65.5088 50.7494V54.6891V54.6881Z" fill="white"/>
<path d="M174.491 54.6875H173.542V50.8428C173.542 50.5067 172.592 50.4251 172.592 50.9377V54.6875H171.643V49.846L172.54 49.8393L172.639 50.1308C172.969 49.5298 174.491 49.7862 174.491 50.3681V54.6875Z" fill="white"/>
<path d="M116.487 52.5044H114.494C114.714 52.9003 114.427 53.467 114.782 53.7812C115.306 54.2454 115.641 53.4623 115.538 52.9781H116.487C116.395 54.1553 115.943 54.9024 114.641 54.6821C113.339 54.4619 113.377 51.6975 113.729 50.7425C114.145 49.6109 115.67 49.3925 116.256 50.5042C116.302 50.5925 116.487 51.0757 116.487 51.1269V52.5034V52.5044ZM115.539 51.651C115.541 51.3035 115.532 50.5706 115.106 50.5089C114.456 50.4415 114.594 51.2133 114.589 51.651H115.539Z" fill="white"/>
<path d="M160.346 52.504H158.353C158.385 52.8467 158.406 53.7229 158.732 53.8824L159.046 53.9147C159.397 53.7248 159.426 53.3423 159.397 52.9777H160.252C160.62 54.7539 158.179 55.4336 157.567 53.8122C157.146 52.6977 157.17 49.7614 158.874 49.75C160.325 49.7405 160.407 51.4218 160.346 52.504ZM159.397 51.6496C159.391 50.0984 158.336 50.0823 158.353 51.6496H159.397Z" fill="white"/>
<path d="M170.504 52.504H168.51C168.339 53.7619 169.426 54.7615 169.555 52.9787H170.41C170.613 55.0273 168.038 55.4555 167.585 53.3822C167.34 52.2648 167.425 49.7634 169.031 49.7501C170.472 49.7377 170.56 51.4389 170.504 52.5031V52.504ZM169.554 51.6497C169.54 50.0833 168.476 50.0975 168.51 51.6497H169.554Z" fill="white"/>
<path d="M108.513 47.6621V48.6124H107.469V54.688H106.425V48.6124H105.379C105.415 48.3001 105.263 47.889 105.523 47.6631H108.513V47.6621Z" fill="white"/>
<path d="M71.3908 49.8515L72.0117 52.8855L72.7132 49.9018L73.673 49.8477L72.2841 54.6759L71.6842 54.6835L70.4453 49.8477L71.3908 49.8515Z" fill="white"/>
<path d="M56.1104 54.6871V47.6621L57.1128 47.7513L57.1546 54.4507L56.9989 54.6738L56.1104 54.6871Z" fill="white"/>
<path d="M78.8943 50.6068H78.3247L78.4139 49.8882L78.8953 49.8473L78.9494 48.6113H79.9395V49.8473L80.4208 49.8882L80.51 50.6068H79.9405V54.6889C79.6015 54.6462 79.1468 54.817 78.8962 54.5465V50.6068H78.8943Z" fill="white"/>
<path d="M131.866 47.4727H130.917V54.6875H131.866V47.4727Z" fill="white"/>
<path d="M93.8814 49.9549L93.8928 50.702C93.8197 50.7751 92.5628 50.2862 92.5562 51.0315C92.5514 51.5773 93.2511 51.8735 93.5624 52.2191C94.6057 53.3744 94.0637 54.8553 92.4214 54.6882C91.6334 54.6085 91.8014 54.3294 91.8052 53.6449C92.0957 53.8092 92.8201 53.9839 93.047 53.7019C93.3773 52.8504 92.2201 52.5342 91.847 51.846C91.0572 50.3907 92.5258 49.2885 93.8805 49.9549H93.8814Z" fill="white"/>
<path d="M176.01 50.6058L175.44 50.6068V49.8464L176.011 49.8473L176.065 48.6113L176.96 48.6123L176.959 49.8473L177.53 49.8464V50.6068L176.959 50.6058V54.6879H176.01V50.6058Z" fill="white"/>
<path d="M117.626 49.8469H118.577L118.67 50.4155C118.774 49.9532 119.298 49.7833 119.715 49.752L119.703 50.5931C119.471 50.7155 119.132 50.6662 118.917 50.8048C118.807 50.875 118.576 51.3278 118.576 51.4133V54.6884H117.626V49.8469Z" fill="white"/>
<path d="M82.3116 49.8457H81.3623V54.6872H82.3116V49.8457Z" fill="white"/>
<path d="M98.2604 49.8457H97.311V54.6872H98.2604V49.8457Z" fill="white"/>
<path d="M179.596 47.8764C182.478 47.5631 182.416 52.2385 179.402 51.724C177.348 51.3737 177.4 48.1156 179.596 47.8764ZM179.402 48.3511C177.927 48.6568 177.905 51.0737 179.593 51.3452C181.871 51.7107 181.925 47.8289 179.402 48.3511Z" fill="white"/>
<path d="M161.865 38.9297L160.546 42.0045L160.397 42.07L159.396 42.0624L160.251 38.9297H161.865Z" fill="white"/>
<path d="M181.395 38.9487C182.774 38.6383 183.039 40.6338 181.824 40.8094C180.56 40.9917 180.392 39.1747 181.395 38.9487Z" fill="white"/>
<path d="M97.5673 47.9651C98.5688 47.6565 98.5489 49.2761 97.5673 48.9742C97.1372 48.8422 97.1344 48.0989 97.5673 47.9651Z" fill="white"/>
<path d="M81.4804 48.874C81.1045 48.499 81.526 47.6218 82.1753 48.0367C82.8588 48.4743 81.974 49.3667 81.4804 48.874Z" fill="white"/>
<path d="M8.73841 39.8779C8.90739 40.5149 8.93017 41.2231 9.34217 41.7433C9.75418 42.2636 10.0418 42.7781 10.3532 43.4379C10.9779 44.7622 11.4668 46.1634 11.8712 47.5674L11.2541 46.5241C10.6532 44.8239 9.6545 43.229 8.92447 41.6389C8.75739 41.2753 8.57322 40.42 8.54949 40.0184C8.5381 39.8295 8.56848 39.8713 8.73841 39.877V39.8779Z" fill="white"/>
<path d="M10.733 16.2412C10.7843 16.4519 10.6096 16.4519 10.5147 16.544C9.82451 17.2209 8.89797 17.8683 8.22775 18.529C7.40469 19.3407 6.72308 20.3242 5.93419 21.172C5.8554 21.3163 5.73009 21.3096 5.65319 21.1767C5.58389 21.0571 6.63005 19.5913 6.80472 19.3844C7.6705 18.3629 8.89133 17.6984 9.85584 16.7139L10.7321 16.2402L10.733 16.2412Z" fill="white"/>
<path d="M35.1298 53.9288L35.7003 55.9214C35.4924 55.9584 35.4772 55.8293 35.4183 55.6822C35.2968 55.3803 34.937 54.337 34.938 54.0721C34.938 53.8841 34.9465 53.9193 35.1298 53.9288Z" fill="white"/>
<path d="M34.8458 46.6196C34.9796 46.763 34.2724 47.5557 33.9923 47.4731C33.9316 47.0838 34.2838 47.1076 34.3958 47.0041C34.5448 46.8674 34.5762 46.5883 34.8458 46.6196Z" fill="white"/>
<path d="M20.906 2.17782C20.8557 2.14555 20.7902 1.87119 20.8111 1.7848C20.9412 1.22755 22.424 1.14686 22.0775 1.90537C21.9332 2.22054 21.1016 2.30313 20.906 2.17782Z" fill="white"/>
<path d="M178.953 48.8026C179.443 48.8586 180.439 48.571 180.565 49.2336C180.69 49.8962 180.174 49.9437 180.187 49.9883L180.755 50.8902C180.001 51.0895 180.184 50.5104 179.809 50.1763C179.077 49.5231 179.413 50.8133 179.33 50.8921H178.951V48.8036L178.953 48.8026ZM179.332 49.6579C180.408 49.7633 180.516 49.0257 179.332 49.1823V49.6579Z" fill="white"/>
</g>
<defs>
<clipPath id="clip0_183_193">
<rect width="182.94" height="64.0669" fill="white"/>
</clipPath>
</defs>
</svg>
