<svg width="125" height="50" viewBox="0 0 125 50" fill="none" xmlns="http://www.w3.org/2000/svg">
<path fill-rule="evenodd" clip-rule="evenodd" d="M51.9586 10.2164C54.1835 10.3379 56.6317 10.9858 58.0451 11.816C59.4518 12.6462 60.872 14.266 61.5483 15.8116C62.1705 17.2425 62.8535 19.247 63.0699 20.2661C63.2796 21.2853 63.2255 23.4923 62.441 28.2168L54.1565 28.2101C46.3183 28.1966 45.872 28.2708 45.872 29.5464C45.872 30.2889 46.4806 31.5037 47.2246 32.2462C48.4216 33.4408 49.3481 33.5758 62.1028 33.2586V38.9955L56.1853 39.7447C52.9324 40.1564 48.9761 40.3049 47.3936 40.0821C45.4775 39.8077 43.7146 38.9392 42.1051 37.4769C40.7795 36.2688 39.4135 34.217 39.0685 32.9211C38.7236 31.6252 38.4599 28.1291 38.4869 25.1594C38.514 22.1897 38.8927 18.7745 39.3323 17.5732C39.7651 16.365 40.9621 14.4685 41.9833 13.3549C43.0045 12.2345 44.8305 11.0263 46.0411 10.6686C47.2516 10.3109 49.9162 10.1084 51.9586 10.2164V10.2164ZM46.2642 20.2661L45.872 22.1222C55.2047 22.1222 55.34 22.075 55.34 20.4349C55.34 19.5035 54.8869 18.2886 54.3256 17.7352C53.7642 17.1817 52.1276 16.7228 50.6804 16.7228C49.2331 16.7228 47.7385 17.1007 47.3598 17.5664C46.9743 18.0321 46.4806 19.247 46.2642 20.2661V20.2661ZM78.1646 10.0004C79.0032 9.98695 81.9654 10.2772 89.8306 11.3233L89.8441 17.7352L83.9198 17.1547C79.8554 16.7633 77.5154 16.8172 76.4739 17.3234C75.6353 17.7352 74.9523 18.5316 74.9523 19.085C74.9523 19.6452 75.4865 20.3539 76.1358 20.6711C76.785 20.9883 79.294 21.6565 81.7151 22.1627C84.5217 22.7431 86.8076 23.7015 88.0249 24.7949C89.4113 26.0301 90.047 27.3529 90.3175 29.5464C90.5812 31.7332 90.331 33.3126 89.4113 35.2091C88.7147 36.6535 87.2269 38.3003 86.111 38.874C84.8937 39.4949 82.1885 39.9269 79.3481 39.9606C76.7444 39.9876 73.1669 39.7784 68.1894 38.9955V32.9211L74.1069 33.3531C78.0023 33.6298 80.5452 33.515 81.5461 33.0156C82.3847 32.5904 83.0677 31.794 83.0677 31.2338C83.0677 30.6803 82.5334 29.9514 81.8842 29.6207C81.235 29.29 78.8747 28.6488 76.643 28.1966C74.4112 27.7444 71.7399 26.8737 70.712 26.2663C69.6502 25.6386 68.5208 24.1403 68.0947 22.7971C67.6754 21.4945 67.5199 19.22 67.7431 17.7352C67.9662 16.2503 68.8387 14.347 69.6908 13.5101C70.5361 12.6664 72.45 11.546 73.9378 11.0061C75.4257 10.4729 77.326 10.0207 78.1646 10.0004V10.0004ZM108.767 10.3312C111.181 10.5066 113.873 10.8846 114.731 11.1613C116.084 11.5933 116.273 12.032 115.868 16.9995L110.565 17.0332C105.737 17.0602 105.148 17.2087 103.945 18.7476C102.917 20.0569 102.626 21.4945 102.626 25.1594C102.626 28.8243 102.917 30.2619 103.945 31.5712C105.155 33.1168 105.717 33.2586 115.868 33.2586L116.037 36.127C116.206 38.9415 116.158 39.0022 113.67 39.5017C112.276 39.7784 109.152 39.9944 106.738 39.9809C103.951 39.9606 101.537 39.5287 100.144 38.7998C98.7846 38.0843 97.4388 36.5522 96.607 34.7772C95.5925 32.5971 95.2679 30.4509 95.2611 25.8343C95.2544 22.4934 95.5384 18.7003 95.8969 17.3977C96.2553 16.0951 97.3914 14.2053 98.4262 13.1861C99.4676 12.167 101.226 11.0331 102.342 10.6686C103.458 10.3042 106.352 10.1557 108.767 10.3312V10.3312Z" fill="white" fill-opacity="0.98"/>
<path fill-rule="evenodd" clip-rule="evenodd" d="M20.6804 10.0273C23.0541 9.99352 25.9419 10.4187 27.2742 10.9857C28.5794 11.5459 30.1754 12.8215 30.8247 13.8271C31.7579 15.2715 32.0555 17.5123 32.2449 24.4573C32.3734 29.2966 32.7588 33.5621 33.1038 33.9333C33.4419 34.3045 33.7192 35.8974 33.7124 37.4767C33.6989 40.2642 33.638 40.3452 31.501 40.3114C30.2904 40.2979 28.39 39.8997 27.2742 39.434C25.6376 38.7456 24.7854 38.7456 22.8783 39.434C21.5731 39.8997 19.0641 40.2979 17.2989 40.3182C15.5338 40.3317 13.1736 39.893 12.0577 39.3328C10.908 38.7591 9.58929 37.2945 9.01444 35.9581C8.45313 34.6623 8.00002 32.381 8.00002 30.8961C8.00002 29.4113 8.41255 27.3595 8.91976 26.3404C9.42698 25.3212 10.8742 23.9848 12.1321 23.3707C13.3968 22.7632 16.6294 22.0748 19.3278 21.8521C23.8319 21.4808 24.2309 21.3256 24.2579 19.9285C24.2782 19.0916 23.8995 18.0117 23.4126 17.5325C22.7904 16.9048 20.7548 16.7091 10.0356 17.0601L9.9139 14.2253C9.79894 11.4176 9.82599 11.3771 12.45 10.9587C13.9108 10.7292 15.4053 10.4322 15.7773 10.3107C16.1493 10.1825 18.354 10.0543 20.6804 10.0273V10.0273ZM20.721 27.5215C18.9761 27.7037 17.211 28.1627 16.8053 28.5339C16.3927 28.9051 16.1493 30.12 16.2575 31.2336C16.4401 33.1234 16.6565 33.2719 19.4969 33.4339C21.1741 33.5284 22.9324 33.3799 23.4058 33.0964C23.9401 32.7792 24.2038 31.5441 24.0821 29.8837L23.8927 27.184L20.721 27.5215Z" fill="#C2073D" fill-opacity="0.96"/>
</svg>
