<svg width="185" height="45" viewBox="0 0 185 45" fill="none" xmlns="http://www.w3.org/2000/svg">
<g clip-path="url(#clip0_183_284)">
<path d="M27.9361 18.3839C30.3551 20.5188 33.7582 15.9649 35.6973 14.8681C45.3044 9.43778 49.4812 24.1619 38.8262 24.8621C37.1075 24.9747 35.3055 24.25 34.0667 24.4557C33.4546 24.5585 30.4873 26.0813 30.3257 26.6542C29.3219 30.1945 34.0716 31.7908 35.9029 33.1912C42.8708 38.5285 36.5101 47.078 30.2963 43.2048C26.2811 40.7026 28.2936 33.7984 23.6614 31.2375C19.6217 33.6074 20.3219 36.0998 18.9068 39.6939C15.822 47.5382 4.75073 43.9686 8.47705 35.6346C10.2104 31.7565 15.9248 31.7516 16.106 26.6542C11.841 22.5754 5.90143 27.9225 2.14574 22.8741C-1.35533 18.1684 2.3514 12.7773 7.95801 13.6293C12.1544 14.2658 13.7409 19.5395 18.4367 18.4133C21.1544 14.638 18.1919 12.4737 17.6582 9.32515C15.9689 -0.585569 29.9046 -1.23682 28.1908 9.81481C27.9704 11.2397 26.5112 13.6586 26.5553 14.8289C26.5651 15.1031 27.799 18.2566 27.941 18.3839H27.9361Z" fill="white"/>
<path d="M76.7851 43.4734V40.5354C65.092 49.5256 51.9593 40.5648 52.7771 26.5605C53.5165 13.9028 67.1535 7.16998 76.7802 16.0524C76.8243 14.8625 76.4081 13.418 77.5196 12.6248H84.6197V43.4734H76.7851ZM66.8597 19.103C57.277 20.8658 58.0213 39.4043 71.0414 36.9903C80.771 35.1834 79.0522 16.8653 66.8597 19.103Z" fill="white"/>
<path d="M152.555 12.2528C175.265 8.68315 178.159 41.0889 159.165 43.8359C135.652 47.239 133.84 15.1956 152.555 12.2528ZM154.523 19.0933C143.995 20.6162 144.999 38.8168 157.295 37.0639C167.744 35.5753 165.932 17.4432 154.523 19.0933Z" fill="white"/>
<path d="M133.585 43.472H126.24V26.089C126.24 25.8785 125.643 22.8034 125.52 22.4019C123.939 17.1135 117.167 18.2496 115.027 22.7153C114.836 23.1168 113.994 25.4182 113.994 25.5994V43.472H106.159V13.3578L106.894 12.6234H113.994L114.243 15.5662C118.959 11.6734 126.686 10.224 131.127 15.3214C131.764 16.051 133.58 19.508 133.58 20.2131V43.472H133.585Z" fill="white"/>
<path d="M185 0.873047H177.655V43.4735H185V0.873047Z" fill="white"/>
<path d="M99.3097 12.623H91.4751V43.4716H99.3097V12.623Z" fill="white"/>
<path d="M93.7856 0.486389C102.257 -1.44777 102.066 10.4412 95.2154 10.0152C89.7018 9.67242 89.0947 1.55875 93.7856 0.486389Z" fill="white"/>
</g>
<defs>
<clipPath id="clip0_183_284">
<rect width="184.22" height="43.9029" fill="white" transform="translate(0.779785 0.275391)"/>
</clipPath>
</defs>
</svg>
