<svg width="125" height="50" viewBox="0 0 125 50" fill="none" xmlns="http://www.w3.org/2000/svg">
<path d="M35.2492 16.2246H31.5107V34.2824H35.2492V16.2246Z" fill="white"/>
<path d="M69.4251 27.7873C69.1827 28.5272 68.8349 29.1657 68.3819 29.7032C67.9281 30.2423 67.3787 30.6449 66.7314 30.9155C66.087 31.1847 65.3789 31.3196 64.6137 31.3196C63.8182 31.3196 63.1063 31.1817 62.4739 30.9022C61.8436 30.6271 61.2927 30.2215 60.8256 29.6817C60.3562 29.1427 60.004 28.5102 59.772 27.7754C59.5377 27.0428 59.4183 26.2205 59.4183 25.3078C59.4183 24.4403 59.5399 23.6254 59.7809 22.8617C60.0226 22.1002 60.377 21.4499 60.8464 20.9116C61.3142 20.3726 61.8607 19.9699 62.4857 19.7023C63.1101 19.3849 63.8182 19.2448 64.6137 19.2737C65.3663 19.2737 66.0707 19.4198 66.721 19.7104C67.3735 20.0018 67.9355 20.4259 68.4034 20.9776C68.8712 21.5322 69.2212 22.1758 69.4474 22.9069C69.672 23.6395 69.787 24.4403 69.787 25.3078C69.787 26.2205 69.6676 27.0458 69.4251 27.7873ZM72.5956 21.1429C72.2983 20.2739 71.7481 19.4183 70.9548 18.5708C70.1592 17.7255 69.2153 17.0849 68.1194 16.6504C67.0391 16.2018 65.869 15.9845 64.6041 16.0009C63.3102 16.0009 62.1254 16.2203 61.0436 16.6637C59.9633 17.1042 59.0261 17.7529 58.2297 18.6056C57.4356 19.4576 56.8417 20.4452 56.4509 21.5686C56.058 22.6911 55.8644 23.942 55.8644 25.3182C55.8644 26.0381 55.9156 26.6995 56.015 27.3053C56.1143 27.9118 56.3115 28.6429 56.6104 29.4963C56.9092 30.349 57.4638 31.2062 58.2749 32.0655C59.0831 32.9286 60.0293 33.5626 61.1096 33.9741C62.1884 34.3863 63.354 34.5925 64.6041 34.5925C65.869 34.5925 67.028 34.3826 68.0883 33.9652C69.1471 33.547 70.0932 32.9093 70.9333 32.0552C71.7726 31.2032 72.3836 30.2171 72.7662 29.1004C73.1495 27.9882 73.3415 26.7255 73.3415 25.3182C73.3415 24.5997 73.2919 23.942 73.1918 23.3429C73.0932 22.7445 72.8967 22.0105 72.5956 21.1429Z" fill="white"/>
<path d="M17.5123 28.117L23.7325 19.9231H23.8407V28.117H17.5123ZM27.5792 16.1045H21.9418L8.00002 34.2816H12.8144L15.52 30.7426H23.8407V34.289H27.5792V16.1045Z" fill="white"/>
<path d="M100.251 24.581V19.9238H100.361L103.796 24.4408C102.581 24.4794 101.398 24.5261 100.251 24.581ZM111.281 34.2824H116.094L110.06 26.4146C113.53 26.4502 115.716 26.6067 115.716 26.6067V24.3756C113.193 24.3259 110.779 24.3178 108.469 24.3422L102.153 16.1045H96.5136V24.7953C95.3829 24.8709 94.2959 24.9532 93.2453 25.0414V16.1571H89.5053V25.3936C86.2347 25.7354 83.4853 26.1203 81.2669 26.4799V16.1571H77.5284V27.1472C75.6362 27.5224 74.653 27.7826 74.653 27.7826V32.2433C75.5798 31.7999 76.5415 31.3921 77.5284 31.011V34.2171H81.2669V29.7483C83.9361 28.9557 86.7211 28.3447 89.5053 27.8753V34.2171H93.2453V27.3281C94.3486 27.1895 95.4393 27.0664 96.5136 26.9648V34.2898H100.251V26.6704C102.038 26.5577 103.742 26.4866 105.322 26.448L111.281 34.2824Z" fill="white"/>
<path d="M42.8695 19.4876H47.2782C47.861 19.4876 48.3697 19.5395 48.8064 19.647C49.2424 19.7553 49.5864 19.8976 49.8385 20.08C50.0929 20.2639 50.273 20.516 50.3798 20.8356C50.5177 21.1574 50.5867 21.5222 50.5867 21.9337C50.5867 22.3912 50.5081 22.8197 50.3553 23.2164C50.2041 23.6116 49.9646 23.9245 49.6435 24.1522C49.5071 24.2916 49.3469 24.3969 49.1638 24.4725C48.9777 24.5503 48.6967 24.6275 48.3141 24.7009C47.9307 24.778 47.4243 24.8165 46.7956 24.8165H42.8695V19.4876ZM51.5476 26.2476C52.0755 25.9829 52.5382 25.6425 52.9342 25.2325C53.3472 24.7446 53.6504 24.2248 53.8387 23.6702C54.0293 23.1171 54.1272 22.5039 54.1272 21.8351C54.1272 20.9082 53.9767 20.0897 53.6778 19.383C53.3813 18.6764 52.9438 18.1322 52.3632 17.754C51.7834 17.2965 51.0419 16.9547 50.1433 16.7271C49.2409 16.4987 48.1739 16.3838 46.9364 16.3838H39.131V34.2821H42.8695V27.5614H45.3022C45.3363 27.5614 45.452 27.5481 45.6174 27.5251L46.0667 28.1176L48.0612 30.7431L50.7676 34.2821H55.5812L49.8044 26.7518C50.4755 26.6531 51.0634 26.4922 51.5476 26.2476Z" fill="white"/>
</svg>
