<svg width="125" height="50" viewBox="0 0 125 50" fill="none" xmlns="http://www.w3.org/2000/svg">
<path fill-rule="evenodd" clip-rule="evenodd" d="M25.6241 7C26.9503 7 27.1505 7.00925 27.1505 7.06935C27.1505 7.1276 27.256 7.1387 27.8213 7.1387C28.2376 7.1387 28.492 7.15627 28.492 7.18493C28.492 7.21036 28.5854 7.23117 28.7002 7.23117C28.8542 7.23117 28.9083 7.2492 28.9083 7.30052C28.9083 7.35646 28.9805 7.36987 29.2784 7.36987C29.5763 7.36987 29.6484 7.38328 29.6484 7.43922C29.6484 7.49239 29.7077 7.50857 29.9029 7.50857C30.0981 7.50857 30.1573 7.52475 30.1573 7.57792C30.1573 7.63109 30.2165 7.64727 30.4117 7.64727C30.5514 7.64727 30.6661 7.66808 30.6661 7.69351C30.6661 7.71893 30.7494 7.73974 30.8511 7.73974C30.9848 7.73974 31.0362 7.75916 31.0362 7.80909C31.0362 7.85902 31.0875 7.87844 31.2212 7.87844C31.3549 7.87844 31.4062 7.89786 31.4062 7.94779C31.4062 7.99402 31.4525 8.01714 31.545 8.01714C31.6213 8.01714 31.6838 8.03795 31.6838 8.06337C31.6838 8.0888 31.767 8.10961 31.8688 8.10961C32.0025 8.10961 32.0538 8.12903 32.0538 8.17896C32.0538 8.22196 32.0973 8.24831 32.1695 8.24831C32.2416 8.24831 32.2851 8.27466 32.2851 8.31766C32.2851 8.36759 32.3365 8.38701 32.4701 8.38701C32.6038 8.38701 32.6552 8.40643 32.6552 8.45636C32.6552 8.50259 32.7014 8.52571 32.7939 8.52571C32.8703 8.52571 32.9327 8.54652 32.9327 8.57195C32.9327 8.59737 32.985 8.61818 33.0484 8.61818C33.1205 8.61818 33.164 8.64453 33.164 8.68753C33.164 8.73746 33.2153 8.75688 33.349 8.75688C33.4827 8.75688 33.5341 8.7763 33.5341 8.82623C33.5341 8.87246 33.5803 8.89558 33.6728 8.89558C33.7492 8.89558 33.8116 8.91639 33.8116 8.94182C33.8116 8.96724 33.8426 9.01903 33.881 9.0574C33.9194 9.09577 34.0327 9.12675 34.1354 9.12675C34.2691 9.12675 34.3204 9.14617 34.3204 9.1961C34.3204 9.23447 34.3413 9.26545 34.3667 9.26545C34.3921 9.26545 34.4129 9.29643 34.4129 9.3348C34.4129 9.37318 34.4439 9.40415 34.4823 9.40415C34.5207 9.40415 34.5517 9.42496 34.5517 9.45039C34.5517 9.47581 34.6142 9.49662 34.6905 9.49662C34.783 9.49662 34.8293 9.51974 34.8293 9.56597C34.8293 9.60434 34.8501 9.63532 34.8755 9.63532C34.901 9.63532 34.9218 9.6663 34.9218 9.70467C34.9218 9.7546 34.9731 9.77402 35.1068 9.77402C35.2405 9.77402 35.2918 9.79344 35.2918 9.84337C35.2918 9.88175 35.3228 9.91272 35.3612 9.91272C35.3996 9.91272 35.4306 9.93353 35.4306 9.95896C35.4306 9.98438 35.4616 10.0052 35.5 10.0052C35.5384 10.0052 35.5694 10.0362 35.5694 10.0745C35.5694 10.1175 35.6129 10.1439 35.685 10.1439C35.7572 10.1439 35.8007 10.1702 35.8007 10.2132C35.8007 10.2516 35.8317 10.2826 35.8701 10.2826C35.9084 10.2826 35.9394 10.3034 35.9394 10.3288C35.9394 10.3543 35.9704 10.3751 36.0088 10.3751C36.0472 10.3751 36.0782 10.406 36.0782 10.4444C36.0782 10.4874 36.1217 10.5138 36.1939 10.5138C36.266 10.5138 36.3095 10.5401 36.3095 10.5831C36.3095 10.6215 36.3405 10.6525 36.3789 10.6525C36.4173 10.6525 36.4483 10.6834 36.4483 10.7218C36.4483 10.7602 36.4793 10.7912 36.5177 10.7912C36.5561 10.7912 36.587 10.812 36.587 10.8374C36.587 10.8628 36.6393 10.8836 36.7027 10.8836C36.7748 10.8836 36.8183 10.91 36.8183 10.953C36.8183 10.9914 36.8493 11.0223 36.8877 11.0223C36.9261 11.0223 36.9571 11.0533 36.9571 11.0917C36.9571 11.1301 36.9881 11.161 37.0265 11.161C37.0649 11.161 37.0959 11.1818 37.0959 11.2073C37.0959 11.2327 37.1269 11.2845 37.1653 11.3229C37.2037 11.3612 37.2555 11.3922 37.2809 11.3922C37.3063 11.3922 37.3272 11.4232 37.3272 11.4616C37.3272 11.5045 37.3706 11.5309 37.4428 11.5309C37.515 11.5309 37.5584 11.5573 37.5584 11.6003C37.5584 11.6386 37.5894 11.6696 37.6278 11.6696C37.6662 11.6696 37.6972 11.6904 37.6972 11.7158C37.6972 11.7413 37.7282 11.7621 37.7666 11.7621C37.805 11.7621 37.836 11.793 37.836 11.8314C37.836 11.8698 37.867 11.9008 37.9054 11.9008C37.9438 11.9008 37.9748 11.9317 37.9748 11.9701C37.9748 12.0085 37.9956 12.0395 38.021 12.0395C38.0465 12.0395 38.0673 12.0704 38.0673 12.1088C38.0673 12.1472 38.0983 12.1782 38.1367 12.1782C38.1751 12.1782 38.2061 12.199 38.2061 12.2244C38.2061 12.2498 38.237 12.2706 38.2754 12.2706C38.3138 12.2706 38.3448 12.3016 38.3448 12.34C38.3448 12.3784 38.3656 12.4093 38.3911 12.4093C38.4165 12.4093 38.4373 12.4403 38.4373 12.4787C38.4373 12.5171 38.4683 12.548 38.5067 12.548C38.5451 12.548 38.5761 12.5688 38.5761 12.5943C38.5761 12.6197 38.6071 12.6405 38.6455 12.6405C38.6918 12.6405 38.7149 12.6867 38.7149 12.7792C38.7149 12.8962 38.7329 12.9179 38.8305 12.9179C38.923 12.9179 38.9462 12.941 38.9462 13.0335C38.9462 13.1056 38.9725 13.1491 39.0156 13.1491C39.0539 13.1491 39.0849 13.1805 39.0849 13.2184C39.0849 13.2563 39.1159 13.2878 39.1543 13.2878C39.1927 13.2878 39.2237 13.3192 39.2237 13.3571C39.2237 13.395 39.2445 13.4265 39.27 13.4265C39.2954 13.4265 39.3162 13.4787 39.3162 13.5421C39.3162 13.6142 39.3426 13.6577 39.3856 13.6577C39.424 13.6577 39.455 13.6891 39.455 13.727C39.455 13.7649 39.486 13.7964 39.5244 13.7964C39.5628 13.7964 39.5938 13.8278 39.5938 13.8657C39.5938 13.9036 39.6248 13.9351 39.6632 13.9351C39.7062 13.9351 39.7325 13.9785 39.7325 14.0506C39.7325 14.1144 39.7534 14.1662 39.7788 14.1662C39.8042 14.1662 39.8251 14.1977 39.8251 14.2356C39.8251 14.2735 39.8561 14.3049 39.8944 14.3049C39.9328 14.3049 39.9638 14.3364 39.9638 14.3743C39.9638 14.4122 39.9948 14.4436 40.0332 14.4436C40.0762 14.4436 40.1026 14.4871 40.1026 14.5592C40.1026 14.6313 40.129 14.6748 40.172 14.6748C40.2104 14.6748 40.2414 14.7062 40.2414 14.7441C40.2414 14.7821 40.2622 14.8135 40.2876 14.8135C40.3131 14.8135 40.3339 14.8657 40.3339 14.9291C40.3339 15.0012 40.3603 15.0447 40.4033 15.0447C40.4417 15.0447 40.4727 15.0761 40.4727 15.114C40.4727 15.1519 40.5037 15.1834 40.542 15.1834C40.5851 15.1834 40.6114 15.2268 40.6114 15.2989C40.6114 15.3628 40.6323 15.4145 40.6577 15.4145C40.6831 15.4145 40.7039 15.4769 40.7039 15.5532C40.7039 15.6457 40.7271 15.6919 40.7733 15.6919C40.8117 15.6919 40.8427 15.7127 40.8427 15.7382C40.8427 15.7636 40.8737 15.7844 40.9121 15.7844C40.9505 15.7844 40.9815 15.8158 40.9815 15.8538C40.9815 15.8917 41.0125 15.9231 41.0509 15.9231C41.1008 15.9231 41.1203 15.9744 41.1203 16.108C41.1203 16.2098 41.1411 16.293 41.1665 16.293C41.192 16.293 41.2128 16.3244 41.2128 16.3623C41.2128 16.4002 41.2438 16.4317 41.2822 16.4317C41.3284 16.4317 41.3516 16.4779 41.3516 16.5704C41.3516 16.6628 41.3747 16.7091 41.4209 16.7091C41.4709 16.7091 41.4903 16.7604 41.4903 16.894C41.4903 16.9957 41.5111 17.0789 41.5366 17.0789C41.562 17.0789 41.5828 17.1312 41.5828 17.1945C41.5828 17.2667 41.6092 17.3101 41.6522 17.3101C41.6985 17.3101 41.7216 17.3563 41.7216 17.4488C41.7216 17.5413 41.7447 17.5875 41.791 17.5875C41.841 17.5875 41.8604 17.6388 41.8604 17.7725C41.8604 17.9061 41.8798 17.9574 41.9298 17.9574C41.9728 17.9574 41.9992 18.0008 41.9992 18.073C41.9992 18.1368 42.02 18.1886 42.0454 18.1886C42.0709 18.1886 42.0917 18.2718 42.0917 18.3735C42.0917 18.5071 42.1111 18.5584 42.1611 18.5584C42.1994 18.5584 42.2304 18.5899 42.2304 18.6278C42.2304 18.6657 42.2614 18.6971 42.2998 18.6971C42.353 18.6971 42.3692 18.7563 42.3692 18.9514C42.3692 19.1465 42.3854 19.2057 42.4386 19.2057C42.4886 19.2057 42.508 19.257 42.508 19.3906C42.508 19.4923 42.5288 19.5756 42.5542 19.5756C42.5797 19.5756 42.6005 19.6902 42.6005 19.8298C42.6005 20.025 42.6167 20.0841 42.6699 20.0841C42.7231 20.0841 42.7393 20.1433 42.7393 20.3384C42.7393 20.5335 42.7555 20.5927 42.8087 20.5927C42.8646 20.5927 42.878 20.6648 42.878 20.9626C42.878 21.1785 42.8975 21.3324 42.9243 21.3324C42.9497 21.3324 42.9706 21.4157 42.9706 21.5174C42.9706 21.651 42.99 21.7023 43.0399 21.7023C43.0987 21.7023 43.1093 21.81 43.1093 22.3958C43.1093 22.9816 43.12 23.0893 43.1787 23.0893C43.2389 23.0893 43.2481 23.2895 43.2481 24.615C43.2481 25.9406 43.2389 26.1407 43.1787 26.1407C43.1204 26.1407 43.1093 26.2462 43.1093 26.8111C43.1093 27.3761 43.0982 27.4815 43.0399 27.4815C42.9886 27.4815 42.9706 27.5356 42.9706 27.6896C42.9706 27.8042 42.9497 27.8976 42.9243 27.8976C42.8965 27.8976 42.878 28.0904 42.878 28.3831C42.878 28.7839 42.866 28.8685 42.8087 28.8685C42.7624 28.8685 42.7393 28.9148 42.7393 29.0072C42.7393 29.0997 42.7161 29.1459 42.6699 29.1459C42.6167 29.1459 42.6005 29.2051 42.6005 29.4002C42.6005 29.5398 42.5797 29.6545 42.5542 29.6545C42.5288 29.6545 42.508 29.7377 42.508 29.8394C42.508 29.9731 42.4886 30.0244 42.4386 30.0244C42.3854 30.0244 42.3692 30.0836 42.3692 30.2787C42.3692 30.4738 42.353 30.5329 42.2998 30.5329C42.2614 30.5329 42.2304 30.5644 42.2304 30.6023C42.2304 30.6407 42.1994 30.6716 42.1611 30.6716C42.1111 30.6716 42.0917 30.723 42.0917 30.8566C42.0917 30.9583 42.0709 31.0415 42.0454 31.0415C42.02 31.0415 41.9992 31.0938 41.9992 31.1571C41.9992 31.2292 41.9728 31.2727 41.9298 31.2727C41.8798 31.2727 41.8604 31.324 41.8604 31.4576C41.8604 31.5912 41.841 31.6426 41.791 31.6426C41.7447 31.6426 41.7216 31.6888 41.7216 31.7813C41.7216 31.8737 41.6985 31.92 41.6522 31.92C41.6092 31.92 41.5828 31.9634 41.5828 32.0355C41.5828 32.0993 41.562 32.1511 41.5366 32.1511C41.5111 32.1511 41.4903 32.2343 41.4903 32.3361C41.4903 32.4697 41.4709 32.521 41.4209 32.521C41.3747 32.521 41.3516 32.5672 41.3516 32.6597C41.3516 32.736 41.3293 32.7984 41.3021 32.7984C41.2748 32.7984 41.2225 32.8294 41.1864 32.8678C41.1499 32.9057 41.1203 33.0203 41.1203 33.122C41.1203 33.2557 41.1008 33.307 41.0509 33.307C41.0125 33.307 40.9815 33.3278 40.9815 33.3532C40.9815 33.3786 40.9505 33.3994 40.9121 33.3994C40.8737 33.3994 40.8427 33.4304 40.8427 33.4688C40.8427 33.5072 40.8117 33.5381 40.7733 33.5381C40.7271 33.5381 40.7039 33.5844 40.7039 33.6768C40.7039 33.7531 40.6831 33.8155 40.6577 33.8155C40.6323 33.8155 40.6114 33.8678 40.6114 33.9311C40.6114 34.0032 40.5851 34.0467 40.542 34.0467C40.499 34.0467 40.4727 34.0902 40.4727 34.1623C40.4727 34.2344 40.4463 34.2779 40.4033 34.2779C40.3649 34.2779 40.3339 34.3089 40.3339 34.3472C40.3339 34.3856 40.3131 34.4166 40.2876 34.4166C40.2622 34.4166 40.2414 34.4476 40.2414 34.4859C40.2414 34.5243 40.2104 34.5553 40.172 34.5553C40.129 34.5553 40.1026 34.5987 40.1026 34.6709C40.1026 34.743 40.0762 34.7864 40.0332 34.7864C39.9948 34.7864 39.9638 34.8174 39.9638 34.8558C39.9638 34.8942 39.9328 34.9251 39.8944 34.9251C39.8561 34.9251 39.8251 34.9561 39.8251 34.9945C39.8251 35.0329 39.8042 35.0639 39.7788 35.0639C39.7534 35.0639 39.7325 35.1161 39.7325 35.1794C39.7325 35.2516 39.7062 35.295 39.6632 35.295C39.6248 35.295 39.5938 35.326 39.5938 35.3644C39.5938 35.4027 39.5628 35.4337 39.5244 35.4337C39.486 35.4337 39.455 35.4647 39.455 35.5031C39.455 35.5414 39.424 35.5724 39.3856 35.5724C39.3426 35.5724 39.3162 35.6159 39.3162 35.688C39.3162 35.7518 39.2954 35.8036 39.27 35.8036C39.2445 35.8036 39.2237 35.8346 39.2237 35.8729C39.2237 35.9113 39.1927 35.9423 39.1543 35.9423C39.1159 35.9423 39.0849 35.9733 39.0849 36.0116C39.0849 36.05 39.0539 36.081 39.0156 36.081C38.9725 36.081 38.9462 36.1245 38.9462 36.1966C38.9462 36.289 38.923 36.3122 38.8305 36.3122C38.738 36.3122 38.7149 36.3353 38.7149 36.4277C38.7149 36.4999 38.6885 36.5433 38.6455 36.5433C38.6071 36.5433 38.5761 36.5743 38.5761 36.6127C38.5761 36.6511 38.5451 36.682 38.5067 36.682C38.4683 36.682 38.4373 36.713 38.4373 36.7514C38.4373 36.7898 38.4165 36.8207 38.3911 36.8207C38.3656 36.8207 38.3448 36.8517 38.3448 36.8901C38.3448 36.9285 38.3138 36.9594 38.2754 36.9594C38.237 36.9594 38.2061 36.9802 38.2061 37.0057C38.2061 37.0311 38.1751 37.0519 38.1367 37.0519C38.0983 37.0519 38.0673 37.0829 38.0673 37.1212C38.0673 37.1596 38.0465 37.1906 38.021 37.1906C37.9956 37.1906 37.9748 37.2216 37.9748 37.26C37.9748 37.2983 37.9438 37.3293 37.9054 37.3293C37.867 37.3293 37.836 37.3501 37.836 37.3755C37.836 37.401 37.805 37.4218 37.7666 37.4218C37.7282 37.4218 37.6972 37.4527 37.6972 37.4911C37.6972 37.5295 37.6662 37.5605 37.6278 37.5605C37.5894 37.5605 37.5584 37.5914 37.5584 37.6298C37.5584 37.6728 37.515 37.6992 37.4428 37.6992C37.3503 37.6992 37.3272 37.7223 37.3272 37.8148C37.3272 37.9072 37.304 37.9303 37.2115 37.9303C37.1394 37.9303 37.0959 37.9567 37.0959 37.9997C37.0959 38.0381 37.0649 38.069 37.0265 38.069C36.9881 38.069 36.9571 38.1 36.9571 38.1384C36.9571 38.1768 36.9261 38.2077 36.8877 38.2077C36.8493 38.2077 36.8183 38.2285 36.8183 38.254C36.8183 38.2794 36.7661 38.3002 36.7027 38.3002C36.6305 38.3002 36.587 38.3266 36.587 38.3696C36.587 38.4079 36.5561 38.4389 36.5177 38.4389C36.4793 38.4389 36.4483 38.4699 36.4483 38.5083C36.4483 38.5466 36.4173 38.5776 36.3789 38.5776C36.3405 38.5776 36.3095 38.6086 36.3095 38.647C36.3095 38.69 36.266 38.7163 36.1939 38.7163C36.13 38.7163 36.0782 38.7371 36.0782 38.7625C36.0782 38.788 36.0472 38.8088 36.0088 38.8088C35.9704 38.8088 35.9394 38.8398 35.9394 38.8781C35.9394 38.9165 35.9084 38.9475 35.8701 38.9475C35.8317 38.9475 35.8007 38.9785 35.8007 39.0168C35.8007 39.0598 35.7572 39.0862 35.685 39.0862C35.6129 39.0862 35.5694 39.1125 35.5694 39.1555C35.5694 39.1939 35.5384 39.2249 35.5 39.2249C35.4616 39.2249 35.4306 39.2457 35.4306 39.2711C35.4306 39.2965 35.3996 39.3174 35.3612 39.3174C35.3228 39.3174 35.2918 39.3483 35.2918 39.3867C35.2918 39.4297 35.2484 39.4561 35.1762 39.4561C35.104 39.4561 35.0606 39.4824 35.0606 39.5254C35.0606 39.5684 35.0171 39.5948 34.9449 39.5948C34.8811 39.5948 34.8293 39.6156 34.8293 39.641C34.8293 39.6664 34.7668 39.6872 34.6905 39.6872C34.598 39.6872 34.5517 39.7103 34.5517 39.7566C34.5517 39.7949 34.5207 39.8259 34.4823 39.8259C34.4439 39.8259 34.4129 39.8569 34.4129 39.8953C34.4129 39.9336 34.3921 39.9646 34.3667 39.9646C34.3413 39.9646 34.3204 39.9956 34.3204 40.034C34.3204 40.0844 34.2686 40.1033 34.1322 40.1033C34.0248 40.1033 33.9152 40.1334 33.8778 40.1727C33.8412 40.211 33.8116 40.2628 33.8116 40.2883C33.8116 40.3137 33.7492 40.3345 33.6728 40.3345C33.5803 40.3345 33.5341 40.3576 33.5341 40.4038C33.5341 40.4538 33.4827 40.4732 33.349 40.4732C33.2473 40.4732 33.164 40.494 33.164 40.5194C33.164 40.5449 33.1122 40.5657 33.0484 40.5657C32.9762 40.5657 32.9327 40.592 32.9327 40.635C32.9327 40.6812 32.8865 40.7044 32.7939 40.7044C32.7014 40.7044 32.6552 40.7275 32.6552 40.7737C32.6552 40.8236 32.6038 40.8431 32.4701 40.8431C32.3365 40.8431 32.2851 40.8625 32.2851 40.9124C32.2851 40.9554 32.2416 40.9818 32.1695 40.9818C32.1061 40.9818 32.0538 41.0026 32.0538 41.028C32.0538 41.0534 31.9706 41.0742 31.8688 41.0742C31.7351 41.0742 31.6838 41.0936 31.6838 41.1436C31.6838 41.182 31.6528 41.2129 31.6144 41.2129C31.5764 41.2129 31.545 41.2439 31.545 41.2823C31.545 41.3355 31.4858 41.3516 31.2906 41.3516C31.0954 41.3516 31.0362 41.3678 31.0362 41.421C31.0362 41.4709 30.9848 41.4903 30.8511 41.4903C30.7494 41.4903 30.6661 41.5111 30.6661 41.5366C30.6661 41.562 30.5514 41.5828 30.4117 41.5828C30.2165 41.5828 30.1573 41.599 30.1573 41.6522C30.1573 41.7053 30.0981 41.7215 29.9029 41.7215C29.7077 41.7215 29.6484 41.7377 29.6484 41.7909C29.6484 41.8468 29.5763 41.8602 29.2784 41.8602C29.0624 41.8602 28.9083 41.8796 28.9083 41.9064C28.9083 41.9319 28.8149 41.9527 28.7002 41.9527C28.5461 41.9527 28.492 41.9707 28.492 42.022C28.492 42.0803 28.3865 42.0914 27.8213 42.0914C27.256 42.0914 27.1505 42.1025 27.1505 42.1607C27.1505 42.2208 26.9503 42.2301 25.6241 42.2301C24.2979 42.2301 24.0976 42.2208 24.0976 42.1607C24.0976 42.102 23.9898 42.0914 23.4037 42.0914C22.8176 42.0914 22.7098 42.0807 22.7098 42.022C22.7098 41.9721 22.6585 41.9527 22.5248 41.9527C22.423 41.9527 22.3398 41.9319 22.3398 41.9064C22.3398 41.8796 22.1857 41.8602 21.9697 41.8602C21.6718 41.8602 21.5997 41.8468 21.5997 41.7909C21.5997 41.7377 21.5405 41.7215 21.3452 41.7215C21.15 41.7215 21.0908 41.7053 21.0908 41.6522C21.0908 41.599 21.0316 41.5828 20.8364 41.5828C20.6967 41.5828 20.582 41.562 20.582 41.5366C20.582 41.5111 20.4987 41.4903 20.397 41.4903C20.2633 41.4903 20.2119 41.4709 20.2119 41.421C20.2119 41.3678 20.1527 41.3516 19.9575 41.3516C19.7623 41.3516 19.7031 41.3355 19.7031 41.2823C19.7031 41.2439 19.6717 41.2129 19.6337 41.2129C19.5958 41.2129 19.5643 41.182 19.5643 41.1436C19.5643 41.0936 19.513 41.0742 19.3793 41.0742C19.2775 41.0742 19.1943 41.0534 19.1943 41.028C19.1943 41.0026 19.1425 40.9818 19.0786 40.9818C19.0065 40.9818 18.963 40.9554 18.963 40.9124C18.963 40.8625 18.9116 40.8431 18.778 40.8431C18.6443 40.8431 18.5929 40.8236 18.5929 40.7737C18.5929 40.7275 18.5467 40.7044 18.4542 40.7044C18.3616 40.7044 18.3154 40.6812 18.3154 40.635C18.3154 40.592 18.2719 40.5657 18.1997 40.5657C18.1364 40.5657 18.0841 40.5449 18.0841 40.5194C18.0841 40.494 18.0008 40.4732 17.8991 40.4732C17.7654 40.4732 17.714 40.4538 17.714 40.4038C17.714 40.3576 17.6678 40.3345 17.5753 40.3345C17.4828 40.3345 17.4365 40.3114 17.4365 40.2651C17.4365 40.2268 17.405 40.1958 17.3671 40.1958C17.3292 40.1958 17.2977 40.175 17.2977 40.1496C17.2977 40.1241 17.2145 40.1033 17.1127 40.1033C16.979 40.1033 16.9277 40.0839 16.9277 40.034C16.9277 39.9956 16.8962 39.9646 16.8583 39.9646C16.8204 39.9646 16.7889 39.9336 16.7889 39.8953C16.7889 39.8569 16.7681 39.8259 16.7426 39.8259C16.7172 39.8259 16.6964 39.7949 16.6964 39.7566C16.6964 39.7103 16.6501 39.6872 16.5576 39.6872C16.4813 39.6872 16.4188 39.6664 16.4188 39.641C16.4188 39.6156 16.367 39.5948 16.3032 39.5948C16.231 39.5948 16.1876 39.5684 16.1876 39.5254C16.1876 39.487 16.1561 39.4561 16.1182 39.4561C16.0802 39.4561 16.0488 39.4251 16.0488 39.3867C16.0488 39.3437 16.0053 39.3174 15.9331 39.3174C15.8698 39.3174 15.8175 39.2965 15.8175 39.2711C15.8175 39.2457 15.786 39.2249 15.7481 39.2249C15.7102 39.2249 15.6787 39.1939 15.6787 39.1555C15.6787 39.1125 15.6352 39.0862 15.5631 39.0862C15.4909 39.0862 15.4474 39.0598 15.4474 39.0168C15.4474 38.9785 15.416 38.9475 15.378 38.9475C15.3401 38.9475 15.3087 38.9165 15.3087 38.8781C15.3087 38.8398 15.2772 38.8088 15.2393 38.8088C15.2013 38.8088 15.1699 38.788 15.1699 38.7625C15.1699 38.7371 15.1181 38.7163 15.0542 38.7163C14.9821 38.7163 14.9386 38.69 14.9386 38.647C14.9386 38.6086 14.9071 38.5776 14.8692 38.5776C14.8313 38.5776 14.7998 38.5466 14.7998 38.5083C14.7998 38.4699 14.7684 38.4389 14.7304 38.4389C14.6925 38.4389 14.6611 38.4079 14.6611 38.3696C14.6611 38.3266 14.6176 38.3002 14.5454 38.3002C14.482 38.3002 14.4298 38.2794 14.4298 38.254C14.4298 38.2285 14.3983 38.2077 14.3604 38.2077C14.3225 38.2077 14.291 38.1768 14.291 38.1384C14.291 38.1 14.2595 38.069 14.2216 38.069C14.1837 38.069 14.1522 38.0381 14.1522 37.9997C14.1522 37.9567 14.1087 37.9303 14.0366 37.9303C13.9441 37.9303 13.9209 37.9072 13.9209 37.8148C13.9209 37.7172 13.8992 37.6992 13.7822 37.6992C13.6897 37.6992 13.6434 37.6761 13.6434 37.6298C13.6434 37.5914 13.6226 37.5605 13.5971 37.5605C13.5717 37.5605 13.5509 37.5295 13.5509 37.4911C13.5509 37.4527 13.5199 37.4218 13.4815 37.4218C13.4431 37.4218 13.4121 37.401 13.4121 37.3755C13.4121 37.3501 13.3811 37.3293 13.3427 37.3293C13.3043 37.3293 13.2733 37.2983 13.2733 37.26C13.2733 37.2216 13.2525 37.1906 13.2271 37.1906C13.2016 37.1906 13.1808 37.1596 13.1808 37.1212C13.1808 37.0829 13.1498 37.0519 13.1114 37.0519C13.073 37.0519 13.0421 37.0311 13.0421 37.0057C13.0421 36.9802 13.0111 36.9594 12.9727 36.9594C12.9343 36.9594 12.9033 36.9285 12.9033 36.8901C12.9033 36.8517 12.8723 36.8207 12.8339 36.8207C12.7955 36.8207 12.7645 36.7898 12.7645 36.7514C12.7645 36.713 12.7437 36.682 12.7183 36.682C12.6928 36.682 12.672 36.6511 12.672 36.6127C12.672 36.5743 12.641 36.5433 12.6026 36.5433C12.5596 36.5433 12.5332 36.4999 12.5332 36.4277C12.5332 36.3556 12.5069 36.3122 12.4638 36.3122C12.4254 36.3122 12.3944 36.2914 12.3944 36.2659C12.3944 36.2405 12.3635 36.1887 12.3251 36.1503C12.2867 36.112 12.2349 36.081 12.2094 36.081C12.184 36.081 12.1632 36.05 12.1632 36.0116C12.1632 35.9733 12.1322 35.9423 12.0938 35.9423C12.0554 35.9423 12.0244 35.9113 12.0244 35.8729C12.0244 35.8346 11.9934 35.8036 11.955 35.8036C11.912 35.8036 11.8856 35.7601 11.8856 35.688C11.8856 35.6242 11.8648 35.5724 11.8394 35.5724C11.8139 35.5724 11.7931 35.5414 11.7931 35.5031C11.7931 35.4647 11.7621 35.4337 11.7237 35.4337C11.6853 35.4337 11.6543 35.4027 11.6543 35.3644C11.6543 35.326 11.6233 35.295 11.5849 35.295C11.5419 35.295 11.5156 35.2516 11.5156 35.1794C11.5156 35.1073 11.4892 35.0639 11.4462 35.0639C11.4078 35.0639 11.3768 35.0329 11.3768 34.9945C11.3768 34.9561 11.356 34.9251 11.3305 34.9251C11.3051 34.9251 11.2843 34.8942 11.2843 34.8558C11.2843 34.8174 11.2533 34.7864 11.2149 34.7864C11.1719 34.7864 11.1455 34.743 11.1455 34.6709C11.1455 34.5987 11.1191 34.5553 11.0761 34.5553C11.0377 34.5553 11.0067 34.5243 11.0067 34.4859C11.0067 34.4476 10.9859 34.4166 10.9605 34.4166C10.935 34.4166 10.9142 34.3856 10.9142 34.3472C10.9142 34.3089 10.8832 34.2779 10.8448 34.2779C10.7949 34.2779 10.7754 34.2266 10.7754 34.0929C10.7754 33.9593 10.756 33.908 10.7061 33.908C10.6677 33.908 10.6367 33.8872 10.6367 33.8618C10.6367 33.8363 10.6057 33.8155 10.5673 33.8155C10.521 33.8155 10.4979 33.7693 10.4979 33.6768C10.4979 33.6006 10.4771 33.5381 10.4516 33.5381C10.4262 33.5381 10.4054 33.5072 10.4054 33.4688C10.4054 33.4304 10.3744 33.3994 10.336 33.3994C10.2976 33.3994 10.2666 33.3786 10.2666 33.3532C10.2666 33.3278 10.2356 33.307 10.1972 33.307C10.1473 33.307 10.1278 33.2557 10.1278 33.122C10.1278 33.0194 10.0968 32.9061 10.0585 32.8678C10.0201 32.8294 9.96825 32.7984 9.94281 32.7984C9.91737 32.7984 9.89655 32.736 9.89655 32.6597C9.89655 32.5672 9.87342 32.521 9.82717 32.521C9.77721 32.521 9.75778 32.4697 9.75778 32.3361C9.75778 32.2024 9.73835 32.1511 9.68839 32.1511C9.64537 32.1511 9.61901 32.1077 9.61901 32.0355C9.61901 31.9717 9.59819 31.92 9.57275 31.92C9.54731 31.92 9.52649 31.8575 9.52649 31.7813C9.52649 31.6888 9.50336 31.6426 9.45711 31.6426C9.40715 31.6426 9.38772 31.5912 9.38772 31.4576C9.38772 31.324 9.36829 31.2727 9.31833 31.2727C9.27532 31.2727 9.24895 31.2292 9.24895 31.1571C9.24895 31.085 9.22258 31.0415 9.17956 31.0415C9.1296 31.0415 9.11018 30.9902 9.11018 30.8566C9.11018 30.7549 9.08936 30.6716 9.06392 30.6716C9.03848 30.6716 9.01766 30.6092 9.01766 30.5329C9.01766 30.4405 8.99453 30.3942 8.94828 30.3942C8.89832 30.3942 8.87889 30.3429 8.87889 30.2093C8.87889 30.0757 8.85946 30.0244 8.8095 30.0244C8.75955 30.0244 8.74012 29.9731 8.74012 29.8394C8.74012 29.7377 8.7193 29.6545 8.69386 29.6545C8.66842 29.6545 8.6476 29.5398 8.6476 29.4002C8.6476 29.2051 8.63141 29.1459 8.57822 29.1459C8.53196 29.1459 8.50883 29.0997 8.50883 29.0072C8.50883 28.9148 8.4857 28.8685 8.43944 28.8685C8.38209 28.8685 8.37006 28.7839 8.37006 28.3831C8.37006 27.9822 8.35803 27.8976 8.30067 27.8976C8.24933 27.8976 8.23129 27.8435 8.23129 27.6896C8.23129 27.5749 8.21047 27.4815 8.18503 27.4815C8.15635 27.4815 8.13877 27.2272 8.13877 26.8111C8.13877 26.2462 8.12767 26.1407 8.06939 26.1407C8.00925 26.1407 8 25.9406 8 24.615C8 23.2895 8.00925 23.0893 8.06939 23.0893C8.12813 23.0893 8.13877 22.9816 8.13877 22.3958C8.13877 21.9645 8.15635 21.7023 8.18503 21.7023C8.21047 21.7023 8.23129 21.6191 8.23129 21.5174C8.23129 21.3838 8.25071 21.3324 8.30067 21.3324C8.35664 21.3324 8.37006 21.2603 8.37006 20.9626C8.37006 20.6648 8.38347 20.5927 8.43944 20.5927C8.49264 20.5927 8.50883 20.5335 8.50883 20.3384C8.50883 20.1433 8.52502 20.0841 8.57822 20.0841C8.63141 20.0841 8.6476 20.025 8.6476 19.8298C8.6476 19.6902 8.66842 19.5756 8.69386 19.5756C8.7193 19.5756 8.74012 19.4923 8.74012 19.3906C8.74012 19.257 8.75955 19.2057 8.8095 19.2057C8.85946 19.2057 8.87889 19.1544 8.87889 19.0208C8.87889 18.8871 8.89832 18.8358 8.94828 18.8358C8.99453 18.8358 9.01766 18.7896 9.01766 18.6971C9.01766 18.6208 9.03848 18.5584 9.06392 18.5584C9.08936 18.5584 9.11018 18.4752 9.11018 18.3735C9.11018 18.2399 9.1296 18.1886 9.17956 18.1886C9.22258 18.1886 9.24895 18.1451 9.24895 18.073C9.24895 18.0008 9.27532 17.9574 9.31833 17.9574C9.36829 17.9574 9.38772 17.9061 9.38772 17.7725C9.38772 17.6388 9.40715 17.5875 9.45711 17.5875C9.50336 17.5875 9.52649 17.5413 9.52649 17.4488C9.52649 17.3725 9.54731 17.3101 9.57275 17.3101C9.59819 17.3101 9.61901 17.2579 9.61901 17.1945C9.61901 17.1224 9.64537 17.0789 9.68839 17.0789C9.73835 17.0789 9.75778 17.0276 9.75778 16.894C9.75778 16.7604 9.77721 16.7091 9.82717 16.7091C9.87342 16.7091 9.89655 16.6628 9.89655 16.5704C9.89655 16.4779 9.91968 16.4317 9.96594 16.4317C10.0043 16.4317 10.0353 16.4002 10.0353 16.3623C10.0353 16.3244 10.0561 16.293 10.0816 16.293C10.107 16.293 10.1278 16.2098 10.1278 16.108C10.1278 15.9744 10.1473 15.9231 10.1972 15.9231C10.2356 15.9231 10.2666 15.8917 10.2666 15.8538C10.2666 15.8158 10.2888 15.7844 10.3161 15.7844C10.3434 15.7844 10.3957 15.7534 10.4317 15.7151C10.4683 15.6771 10.4979 15.5935 10.4979 15.5301C10.4979 15.458 10.5243 15.4145 10.5673 15.4145C10.6057 15.4145 10.6367 15.3937 10.6367 15.3683C10.6367 15.3429 10.6677 15.3221 10.7061 15.3221C10.7523 15.3221 10.7754 15.2758 10.7754 15.1834C10.7754 15.0909 10.7986 15.0447 10.8448 15.0447C10.8878 15.0447 10.9142 15.0012 10.9142 14.9291C10.9142 14.8653 10.935 14.8135 10.9605 14.8135C10.9859 14.8135 11.0067 14.7821 11.0067 14.7441C11.0067 14.7062 11.0377 14.6748 11.0761 14.6748C11.1191 14.6748 11.1455 14.6313 11.1455 14.5592C11.1455 14.4871 11.1719 14.4436 11.2149 14.4436C11.2533 14.4436 11.2843 14.4122 11.2843 14.3743C11.2843 14.3364 11.3051 14.3049 11.3305 14.3049C11.356 14.3049 11.3768 14.2735 11.3768 14.2356C11.3768 14.1977 11.4078 14.1662 11.4462 14.1662C11.4892 14.1662 11.5156 14.1228 11.5156 14.0506C11.5156 13.9785 11.5419 13.9351 11.5849 13.9351C11.6233 13.9351 11.6543 13.9036 11.6543 13.8657C11.6543 13.8278 11.6853 13.7964 11.7237 13.7964C11.7621 13.7964 11.7931 13.7649 11.7931 13.727C11.7931 13.6891 11.8139 13.6577 11.8394 13.6577C11.8648 13.6577 11.8856 13.6054 11.8856 13.5421C11.8856 13.4699 11.912 13.4265 11.955 13.4265C11.9934 13.4265 12.0244 13.395 12.0244 13.3571C12.0244 13.3192 12.0554 13.2878 12.0938 13.2878C12.1322 13.2878 12.1632 13.2563 12.1632 13.2184C12.1632 13.1805 12.1854 13.1491 12.2127 13.1491C12.2399 13.1491 12.2922 13.1181 12.3283 13.0797C12.3648 13.0418 12.3944 12.9896 12.3944 12.9641C12.3944 12.9387 12.4254 12.9179 12.4638 12.9179C12.5101 12.9179 12.5332 12.8717 12.5332 12.7792C12.5332 12.7029 12.5554 12.6405 12.5827 12.6405C12.61 12.6405 12.6623 12.6091 12.6984 12.5712C12.7349 12.5328 12.7645 12.481 12.7645 12.4556C12.7645 12.4301 12.7955 12.4093 12.8339 12.4093C12.8723 12.4093 12.9033 12.3784 12.9033 12.34C12.9033 12.3016 12.9343 12.2706 12.9727 12.2706C13.0111 12.2706 13.0421 12.2498 13.0421 12.2244C13.0421 12.199 13.073 12.1782 13.1114 12.1782C13.1498 12.1782 13.1808 12.1472 13.1808 12.1088C13.1808 12.0704 13.2016 12.0395 13.2271 12.0395C13.2525 12.0395 13.2733 12.0085 13.2733 11.9701C13.2733 11.9317 13.3043 11.9008 13.3427 11.9008C13.3811 11.9008 13.4121 11.8698 13.4121 11.8314C13.4121 11.793 13.4343 11.7621 13.4616 11.7621C13.4889 11.7621 13.5412 11.7311 13.5772 11.6927C13.6138 11.6543 13.6434 11.6026 13.6434 11.5771C13.6434 11.5517 13.7058 11.5309 13.7822 11.5309C13.8747 11.5309 13.9209 11.5078 13.9209 11.4616C13.9209 11.4232 13.9431 11.3922 13.9704 11.3922C13.9977 11.3922 14.05 11.3612 14.0861 11.3229C14.1226 11.2845 14.1522 11.2327 14.1522 11.2073C14.1522 11.1818 14.1837 11.161 14.2216 11.161C14.2595 11.161 14.291 11.1301 14.291 11.0917C14.291 11.0533 14.3225 11.0223 14.3604 11.0223C14.3983 11.0223 14.4298 10.9914 14.4298 10.953C14.4298 10.91 14.4733 10.8836 14.5454 10.8836C14.6093 10.8836 14.6611 10.8628 14.6611 10.8374C14.6611 10.812 14.6925 10.7912 14.7304 10.7912C14.7684 10.7912 14.7998 10.7602 14.7998 10.7218C14.7998 10.6834 14.8313 10.6525 14.8692 10.6525C14.9071 10.6525 14.9386 10.6215 14.9386 10.5831C14.9386 10.5401 14.9821 10.5138 15.0542 10.5138C15.1264 10.5138 15.1699 10.4874 15.1699 10.4444C15.1699 10.406 15.2013 10.3751 15.2393 10.3751C15.2772 10.3751 15.3087 10.3543 15.3087 10.3288C15.3087 10.3034 15.3401 10.2826 15.378 10.2826C15.416 10.2826 15.4474 10.2516 15.4474 10.2132C15.4474 10.1702 15.4909 10.1439 15.5631 10.1439C15.6352 10.1439 15.6787 10.1175 15.6787 10.0745C15.6787 10.0362 15.7102 10.0052 15.7481 10.0052C15.786 10.0052 15.8175 9.98438 15.8175 9.95896C15.8175 9.93353 15.8698 9.91272 15.9331 9.91272C16.0053 9.91272 16.0488 9.88637 16.0488 9.84337C16.0488 9.79714 16.095 9.77402 16.1876 9.77402C16.2801 9.77402 16.3263 9.7509 16.3263 9.70467C16.3263 9.6663 16.3471 9.63532 16.3726 9.63532C16.398 9.63532 16.4188 9.60434 16.4188 9.56597C16.4188 9.52251 16.4628 9.49662 16.5377 9.49662C16.6034 9.49662 16.6867 9.46564 16.7227 9.42727C16.7593 9.38936 16.7889 9.33711 16.7889 9.31168C16.7889 9.28626 16.8204 9.26545 16.8583 9.26545C16.8962 9.26545 16.9277 9.23447 16.9277 9.1961C16.9277 9.14617 16.979 9.12675 17.1127 9.12675C17.2145 9.12675 17.2977 9.10594 17.2977 9.08052C17.2977 9.05509 17.3292 9.03428 17.3671 9.03428C17.405 9.03428 17.4365 9.00331 17.4365 8.96493C17.4365 8.9187 17.4828 8.89558 17.5753 8.89558C17.6678 8.89558 17.714 8.87246 17.714 8.82623C17.714 8.7763 17.7654 8.75688 17.8991 8.75688C18.0328 8.75688 18.0841 8.73746 18.0841 8.68753C18.0841 8.64453 18.1276 8.61818 18.1997 8.61818C18.2636 8.61818 18.3154 8.59737 18.3154 8.57195C18.3154 8.54652 18.3778 8.52571 18.4542 8.52571C18.5467 8.52571 18.5929 8.50259 18.5929 8.45636C18.5929 8.40643 18.6443 8.38701 18.778 8.38701C18.9116 8.38701 18.963 8.36759 18.963 8.31766C18.963 8.27466 19.0065 8.24831 19.0786 8.24831C19.1508 8.24831 19.1943 8.22196 19.1943 8.17896C19.1943 8.12903 19.2456 8.10961 19.3793 8.10961C19.4811 8.10961 19.5643 8.0888 19.5643 8.06337C19.5643 8.03795 19.6268 8.01714 19.7031 8.01714C19.7956 8.01714 19.8419 7.99402 19.8419 7.94779C19.8419 7.89786 19.8932 7.87844 20.0269 7.87844C20.1606 7.87844 20.2119 7.85902 20.2119 7.80909C20.2119 7.75916 20.2633 7.73974 20.397 7.73974C20.4987 7.73974 20.582 7.71893 20.582 7.69351C20.582 7.66808 20.6967 7.64727 20.8364 7.64727C21.0316 7.64727 21.0908 7.63109 21.0908 7.57792C21.0908 7.52475 21.15 7.50857 21.3452 7.50857C21.5405 7.50857 21.5997 7.49239 21.5997 7.43922C21.5997 7.38328 21.6718 7.36987 21.9697 7.36987C22.2676 7.36987 22.3398 7.35646 22.3398 7.30052C22.3398 7.25059 22.3911 7.23117 22.5248 7.23117C22.6266 7.23117 22.7098 7.21036 22.7098 7.18493C22.7098 7.15627 22.9721 7.1387 23.4037 7.1387C23.9898 7.1387 24.0976 7.12807 24.0976 7.06935C24.0976 7.00925 24.2979 7 25.6241 7ZM32.2851 12.548C32.5719 12.548 32.6552 12.5688 32.6552 12.5943C32.6552 12.6206 32.7939 12.6405 32.979 12.6405C33.2362 12.6405 33.3028 12.6548 33.3028 12.7099C33.3028 12.7598 33.3541 12.7792 33.4878 12.7792C33.6215 12.7792 33.6728 12.7986 33.6728 12.8486C33.6728 12.8916 33.7163 12.9179 33.7885 12.9179C33.8606 12.9179 33.9041 12.9443 33.9041 12.9873C33.9041 13.0372 33.9555 13.0566 34.0891 13.0566C34.1918 13.0566 34.3052 13.0876 34.3436 13.126C34.382 13.1639 34.4129 13.2161 34.4129 13.2415C34.4129 13.267 34.4754 13.2878 34.5517 13.2878C34.6442 13.2878 34.6905 13.3109 34.6905 13.3571C34.6905 13.395 34.7215 13.4265 34.7599 13.4265C34.8029 13.4265 34.8293 13.4699 34.8293 13.5421C34.8293 13.6345 34.8524 13.6577 34.9449 13.6577C35.0171 13.6577 35.0606 13.684 35.0606 13.727C35.0606 13.7649 35.0915 13.7964 35.1299 13.7964C35.1683 13.7964 35.1993 13.8172 35.1993 13.8426C35.1993 13.868 35.2303 13.9203 35.2687 13.9582C35.3071 13.9961 35.3589 14.0275 35.3844 14.0275C35.4098 14.0275 35.4306 14.0899 35.4306 14.1662C35.4306 14.2587 35.4537 14.3049 35.5 14.3049C35.5384 14.3049 35.5694 14.3364 35.5694 14.3743C35.5694 14.4122 35.5902 14.4436 35.6156 14.4436C35.6411 14.4436 35.6929 14.4751 35.7313 14.513C35.7697 14.5509 35.8007 14.6549 35.8007 14.7441C35.8007 14.857 35.8215 14.906 35.8701 14.906C35.9163 14.906 35.9394 14.9522 35.9394 15.0447C35.9394 15.1371 35.9626 15.1834 36.0088 15.1834C36.062 15.1834 36.0782 15.2425 36.0782 15.4376C36.0782 15.5777 36.099 15.6919 36.1245 15.6919C36.1499 15.6919 36.1707 15.8061 36.1707 15.9462C36.1707 16.1413 36.1869 16.2005 36.2401 16.2005C36.2933 16.2005 36.3095 16.2597 36.3095 16.4548V16.7091C37.0214 16.7091 37.0959 16.6961 37.0959 16.6397C37.0959 16.6018 37.1167 16.5704 37.1421 16.5704C37.1676 16.5704 37.1884 16.4872 37.1884 16.3854C37.1884 16.2837 37.1676 16.2005 37.1421 16.2005C37.1167 16.2005 37.0959 16.0863 37.0959 15.9462C37.0959 15.7511 37.0797 15.6919 37.0265 15.6919C36.9733 15.6919 36.9571 15.6328 36.9571 15.4376C36.9571 15.2425 36.9409 15.1834 36.8877 15.1834C36.8415 15.1834 36.8183 15.1371 36.8183 15.0447C36.8183 14.9522 36.7952 14.906 36.7489 14.906C36.7059 14.906 36.6796 14.8625 36.6796 14.7904C36.6796 14.7266 36.6587 14.6748 36.6333 14.6748C36.6079 14.6748 36.587 14.5916 36.587 14.4899C36.587 14.3562 36.5676 14.3049 36.5177 14.3049C36.4793 14.3049 36.4483 14.2735 36.4483 14.2356C36.4483 14.1977 36.4173 14.1662 36.3789 14.1662C36.3359 14.1662 36.3095 14.1228 36.3095 14.0506C36.3095 13.9785 36.2831 13.9351 36.2401 13.9351C36.2017 13.9351 36.1707 13.9036 36.1707 13.8657C36.1707 13.8278 36.1499 13.7964 36.1245 13.7964C36.099 13.7964 36.0782 13.7649 36.0782 13.727C36.0782 13.6891 36.0472 13.6577 36.0088 13.6577C35.9658 13.6577 35.9394 13.6142 35.9394 13.5421C35.9394 13.4699 35.9131 13.4265 35.8701 13.4265C35.8317 13.4265 35.8007 13.395 35.8007 13.3571C35.8007 13.3192 35.7799 13.2878 35.7544 13.2878C35.729 13.2878 35.7082 13.2563 35.7082 13.2184C35.7082 13.1805 35.6772 13.1491 35.6388 13.1491C35.6004 13.1491 35.5694 13.1283 35.5694 13.1028C35.5694 13.0774 35.5384 13.0566 35.5 13.0566C35.4616 13.0566 35.4306 13.0252 35.4306 12.9873C35.4306 12.9494 35.3996 12.9179 35.3612 12.9179C35.3228 12.9179 35.2918 12.8865 35.2918 12.8486C35.2918 12.8056 35.2484 12.7792 35.1762 12.7792C35.104 12.7792 35.0606 12.7529 35.0606 12.7099C35.0606 12.6715 35.0296 12.6405 34.9912 12.6405C34.9528 12.6405 34.9218 12.6197 34.9218 12.5943C34.9218 12.5688 34.87 12.548 34.8061 12.548C34.734 12.548 34.6905 12.5217 34.6905 12.4787C34.6905 12.4403 34.6595 12.4093 34.6211 12.4093C34.5827 12.4093 34.5517 12.3784 34.5517 12.34C34.5517 12.297 34.5082 12.2706 34.4361 12.2706C34.3727 12.2706 34.3204 12.2498 34.3204 12.2244C34.3204 12.199 34.258 12.1782 34.1817 12.1782C34.0891 12.1782 34.0429 12.1551 34.0429 12.1088C34.0429 12.0589 33.9915 12.0395 33.8579 12.0395C33.7242 12.0395 33.6728 12.0201 33.6728 11.9701C33.6728 11.9151 33.6062 11.9008 33.349 11.9008C33.0918 11.9008 33.0252 11.8864 33.0252 11.8314C33.0252 11.7755 32.9531 11.7621 32.6552 11.7621H32.2851V12.548ZM32.2851 14.0275C32.8661 14.0275 32.9327 14.0419 32.9327 14.0969C32.9327 14.1468 32.9841 14.1662 33.1177 14.1662C33.2514 14.1662 33.3028 14.1856 33.3028 14.2356C33.3028 14.2786 33.3463 14.3049 33.4184 14.3049C33.4906 14.3049 33.5341 14.3313 33.5341 14.3743C33.5341 14.4173 33.5775 14.4436 33.6497 14.4436C33.7135 14.4436 33.7963 14.4751 33.8347 14.513C33.8731 14.5509 33.9041 14.6031 33.9041 14.6286C33.9041 14.654 33.9351 14.6748 33.9735 14.6748C34.0119 14.6748 34.0429 14.7062 34.0429 14.7441C34.0429 14.7821 34.0739 14.8135 34.1123 14.8135C34.1507 14.8135 34.1817 14.8343 34.1817 14.8597C34.1817 14.8852 34.2127 14.906 34.251 14.906C34.2894 14.906 34.3204 14.9374 34.3204 14.9753C34.3204 15.0132 34.3413 15.0447 34.3667 15.0447C34.3921 15.0447 34.4129 15.1071 34.4129 15.1834C34.4129 15.2758 34.4361 15.3221 34.4823 15.3221C34.5254 15.3221 34.5517 15.3655 34.5517 15.4376C34.5517 15.5098 34.5781 15.5532 34.6211 15.5532C34.6641 15.5532 34.6905 15.5967 34.6905 15.6688C34.6905 15.7409 34.7169 15.7844 34.7599 15.7844C34.8163 15.7844 34.8293 15.8588 34.8293 16.1774C34.8293 16.4086 34.8482 16.5704 34.8755 16.5704C34.901 16.5704 34.9218 16.6018 34.9218 16.6397C34.9218 16.6961 34.9963 16.7091 35.315 16.7091H35.7082C35.7082 15.9975 35.6952 15.9231 35.6388 15.9231C35.5856 15.9231 35.5694 15.8639 35.5694 15.6688C35.5694 15.4737 35.5532 15.4145 35.5 15.4145C35.457 15.4145 35.4306 15.3711 35.4306 15.2989C35.4306 15.2268 35.4042 15.1834 35.3612 15.1834C35.3182 15.1834 35.2918 15.1399 35.2918 15.0678C35.2918 15.004 35.2608 14.9208 35.2225 14.8828C35.1841 14.8449 35.1323 14.8135 35.1068 14.8135C35.0814 14.8135 35.0606 14.7511 35.0606 14.6748C35.0606 14.5985 35.0397 14.5361 35.0143 14.5361C34.9889 14.5361 34.937 14.5047 34.8987 14.4667C34.8603 14.4288 34.8293 14.3766 34.8293 14.3512C34.8293 14.3257 34.7983 14.3049 34.7599 14.3049C34.7215 14.3049 34.6905 14.2735 34.6905 14.2356C34.6905 14.1977 34.6595 14.1662 34.6211 14.1662C34.5827 14.1662 34.5517 14.1348 34.5517 14.0969C34.5517 14.059 34.5309 14.0275 34.5055 14.0275C34.48 14.0275 34.4282 13.9961 34.3898 13.9582C34.3514 13.9203 34.3204 13.868 34.3204 13.8426C34.3204 13.8172 34.258 13.7964 34.1817 13.7964C34.0891 13.7964 34.0429 13.7732 34.0429 13.727C34.0429 13.684 33.9994 13.6577 33.9272 13.6577C33.8551 13.6577 33.8116 13.6313 33.8116 13.5883C33.8116 13.5504 33.7806 13.519 33.7422 13.519C33.7038 13.519 33.6728 13.4981 33.6728 13.4727C33.6728 13.4473 33.621 13.4265 33.5572 13.4265C33.485 13.4265 33.4415 13.4001 33.4415 13.3571C33.4415 13.3007 33.3671 13.2878 33.0484 13.2878C32.7296 13.2878 32.6552 13.2748 32.6552 13.2184C32.6552 13.1685 32.6038 13.1491 32.4701 13.1491H32.2851V14.0275ZM18.963 14.9522C18.963 15.2499 18.9496 15.3221 18.8936 15.3221C18.8413 15.3221 18.8242 15.3785 18.8242 15.5532C18.8242 15.728 18.8071 15.7844 18.7548 15.7844C18.7016 15.7844 18.6854 15.8436 18.6854 16.0387C18.6854 16.1788 18.6646 16.293 18.6392 16.293C18.6137 16.293 18.5929 16.4072 18.5929 16.5473C18.5929 16.7424 18.5767 16.8015 18.5235 16.8015C18.4671 16.8015 18.4542 16.876 18.4542 17.1945C18.4542 17.5131 18.4412 17.5875 18.3848 17.5875C18.3418 17.5875 18.3154 17.631 18.3154 17.7031C18.3154 17.7752 18.289 17.8187 18.246 17.8187C18.19 17.8187 18.1766 17.8908 18.1766 18.1886C18.1766 18.4045 18.1572 18.5584 18.1304 18.5584C18.1049 18.5584 18.0841 18.6726 18.0841 18.8127C18.0841 19.0078 18.0679 19.067 18.0147 19.067C17.9615 19.067 17.9453 19.1262 17.9453 19.3213C17.9453 19.5164 17.9291 19.5756 17.8759 19.5756C17.8227 19.5756 17.8066 19.6347 17.8066 19.8298C17.8066 19.9695 17.7857 20.0841 17.7603 20.0841C17.7349 20.0841 17.714 20.1988 17.714 20.3384C17.714 20.5335 17.6979 20.5927 17.6447 20.5927C17.5915 20.5927 17.5753 20.6519 17.5753 20.847C17.5753 21.0421 17.5591 21.1013 17.5059 21.1013C17.4513 21.1013 17.4365 21.1655 17.4365 21.4018C17.4365 21.638 17.4217 21.7023 17.3671 21.7023C17.3172 21.7023 17.2977 21.7536 17.2977 21.8872C17.2977 21.989 17.2769 22.0722 17.2515 22.0722C17.2242 22.0722 17.2052 22.234 17.2052 22.4652C17.2052 22.7837 17.1923 22.8582 17.1358 22.8582C17.0859 22.8582 17.0664 22.9095 17.0664 23.0431C17.0664 23.1767 17.047 23.228 16.9971 23.228C16.942 23.228 16.9277 23.2946 16.9277 23.5517C16.9277 23.8087 16.9133 23.8753 16.8583 23.8753C16.8037 23.8753 16.7889 23.9396 16.7889 24.1758C16.7889 24.3455 16.7685 24.4763 16.7426 24.4763C16.7153 24.4763 16.6964 24.6382 16.6964 24.8693C16.6964 25.1879 16.6834 25.2623 16.627 25.2623C16.577 25.2623 16.5576 25.3136 16.5576 25.4472C16.5576 25.5809 16.5382 25.6322 16.4882 25.6322C16.4323 25.6322 16.4188 25.7043 16.4188 26.002C16.4188 26.218 16.3994 26.3719 16.3726 26.3719C16.3462 26.3719 16.3263 26.5106 16.3263 26.6956C16.3263 26.9526 16.312 27.0192 16.2569 27.0192C16.2024 27.0192 16.1876 27.0835 16.1876 27.3197C16.1876 27.556 16.1727 27.6202 16.1182 27.6202C16.0617 27.6202 16.0488 27.6947 16.0488 28.0132C16.0488 28.3318 16.0358 28.4062 15.9794 28.4062C15.9234 28.4062 15.91 28.4783 15.91 28.7761C15.91 28.992 15.8906 29.1459 15.8638 29.1459C15.8369 29.1459 15.8175 29.2999 15.8175 29.5158C15.8175 29.8136 15.8041 29.8857 15.7481 29.8857C15.6917 29.8857 15.6787 29.9601 15.6787 30.2787C15.6787 30.5972 15.6658 30.6716 15.6093 30.6716C15.5534 30.6716 15.5399 30.7438 15.5399 31.0415C15.5399 31.2574 15.5205 31.4114 15.4937 31.4114C15.4655 31.4114 15.4474 31.6273 15.4474 31.9662C15.4474 32.4285 15.4359 32.521 15.378 32.521C15.323 32.521 15.3087 32.5876 15.3087 32.8446C15.3087 33.1017 15.2943 33.1683 15.2393 33.1683C15.1833 33.1683 15.1699 33.2404 15.1699 33.5381C15.1699 33.8359 15.1565 33.908 15.1005 33.908C15.0455 33.908 15.0311 33.9746 15.0311 34.2316C15.0311 34.4166 15.0112 34.5553 14.9849 34.5553C14.9594 34.5553 14.9386 34.5863 14.9386 34.6246C14.9386 34.663 14.9071 34.694 14.8692 34.694C14.8313 34.694 14.7998 34.7148 14.7998 34.7402C14.7998 34.7656 14.7374 34.7864 14.6611 34.7864C14.5685 34.7864 14.5223 34.8096 14.5223 34.8558C14.5223 34.8942 14.5015 34.9251 14.476 34.9251C14.4506 34.9251 14.4298 34.9561 14.4298 34.9945C14.4298 35.0551 14.7124 35.0639 16.6964 35.0639H18.963V28.6374H21.3221C21.3221 29.7622 21.3045 30.0244 21.2759 30.0244C21.2481 30.0244 21.2296 30.2015 21.2296 30.4636C21.2296 30.8233 21.2171 30.9028 21.1602 30.9028C21.1033 30.9028 21.0908 30.9823 21.0908 31.342C21.0908 31.7017 21.0783 31.7813 21.0214 31.7813C20.9655 31.7813 20.9521 31.8534 20.9521 32.1511C20.9521 32.367 20.9326 32.521 20.9058 32.521C20.8785 32.521 20.8595 32.6828 20.8595 32.914C20.8595 33.2325 20.8466 33.307 20.7902 33.307C20.737 33.307 20.7208 33.3661 20.7208 33.5613V33.8155C21.0076 33.8155 21.0908 33.8363 21.0908 33.8618C21.0908 33.8872 21.1431 33.908 21.2065 33.908C21.2786 33.908 21.3221 33.9344 21.3221 33.9774C21.3221 34.0236 21.3684 34.0467 21.4609 34.0467C21.5534 34.0467 21.5997 34.0698 21.5997 34.1161C21.5997 34.1544 21.6311 34.1854 21.669 34.1854C21.707 34.1854 21.7384 34.2062 21.7384 34.2316C21.7384 34.2571 21.7907 34.2779 21.8541 34.2779C21.9262 34.2779 21.9697 34.3042 21.9697 34.3472C21.9697 34.3856 22.0012 34.4166 22.0391 34.4166C22.0854 34.4166 22.1085 34.4628 22.1085 34.5553C22.1085 34.6316 22.1293 34.694 22.1548 34.694C22.1802 34.694 22.201 34.7462 22.201 34.8096C22.201 34.8734 22.1802 34.9251 22.1548 34.9251C22.1293 34.9251 22.1085 34.9561 22.1085 34.9945C22.1085 35.0546 22.3065 35.0639 23.6119 35.0639C24.5833 35.0639 25.1152 35.08 25.1152 35.1101C25.1152 35.1355 25.2299 35.1563 25.3696 35.1563C25.6102 35.1563 25.6241 35.1498 25.6241 35.0407C25.6241 34.9686 25.5977 34.9251 25.5547 34.9251C25.5167 34.9251 25.4853 34.8942 25.4853 34.8558C25.4853 34.8128 25.4418 34.7864 25.3696 34.7864C25.3063 34.7864 25.254 34.7656 25.254 34.7402C25.254 34.7148 25.2225 34.694 25.1846 34.694C25.1467 34.694 25.1152 34.663 25.1152 34.6246C25.1152 34.5863 25.0838 34.5553 25.0458 34.5553C25.0079 34.5553 24.9764 34.5243 24.9764 34.4859C24.9764 34.4476 24.9556 34.4166 24.9302 34.4166C24.9048 34.4166 24.8839 34.3643 24.8839 34.301C24.8839 34.2289 24.8576 34.1854 24.8145 34.1854C24.7577 34.1854 24.7452 34.1059 24.7452 33.7462C24.7452 33.3865 24.7327 33.307 24.6758 33.307C24.6193 33.307 24.6064 33.2325 24.6064 32.914C24.6064 32.5954 24.5934 32.521 24.537 32.521C24.4801 32.521 24.4676 32.4415 24.4676 32.0818C24.4676 31.8196 24.4491 31.6426 24.4214 31.6426C24.3936 31.6426 24.3751 31.4498 24.3751 31.1571C24.3751 30.7563 24.3631 30.6716 24.3057 30.6716C24.247 30.6716 24.2363 30.5639 24.2363 29.9781C24.2363 29.3924 24.2257 29.2846 24.1669 29.2846C24.1105 29.2846 24.0976 29.2102 24.0976 28.8917C24.0976 28.6605 24.0786 28.4987 24.0513 28.4987C24.0231 28.4987 24.005 28.2985 24.005 27.9901C24.005 27.5689 23.993 27.4815 23.9357 27.4815C23.8811 27.4815 23.8663 27.4173 23.8663 27.181C23.8663 26.9448 23.8515 26.8805 23.7969 26.8805C23.7418 26.8805 23.7275 26.8139 23.7275 26.5569C23.7275 26.2998 23.7132 26.2332 23.6581 26.2332C23.6035 26.2332 23.5887 26.169 23.5887 25.9327C23.5887 25.763 23.5684 25.6322 23.5425 25.6322C23.5147 25.6322 23.4962 25.4551 23.4962 25.193C23.4962 24.8333 23.4837 24.7537 23.4268 24.7537C23.3755 24.7537 23.3574 24.6996 23.3574 24.5457C23.3574 24.3917 23.3394 24.3376 23.2881 24.3376C23.2358 24.3376 23.2187 24.2812 23.2187 24.1065C23.2187 23.9317 23.2016 23.8753 23.1493 23.8753C23.0924 23.8753 23.0799 23.7958 23.0799 23.4361C23.0799 23.1739 23.0614 22.9969 23.0336 22.9969C23.0082 22.9969 22.9874 22.8822 22.9874 22.7426C22.9874 22.5475 22.9712 22.4883 22.918 22.4883C22.863 22.4883 22.8486 22.4217 22.8486 22.1647C22.8486 21.9076 22.8343 21.841 22.7792 21.841C22.726 21.841 22.7098 21.7818 22.7098 21.5867C22.7098 21.4471 22.689 21.3324 22.6636 21.3324C22.6377 21.3324 22.6173 21.2016 22.6173 21.0319C22.6173 20.7957 22.6025 20.7314 22.5479 20.7314C22.4947 20.7314 22.4786 20.6722 22.4786 20.4771C22.4786 20.282 22.4624 20.2228 22.4092 20.2228C22.3541 20.2228 22.3398 20.1563 22.3398 19.8992C22.3398 19.6421 22.3254 19.5756 22.2704 19.5756C22.2172 19.5756 22.201 19.5164 22.201 19.3213C22.201 19.1817 22.1802 19.067 22.1548 19.067C22.1279 19.067 22.1085 18.913 22.1085 18.6971C22.1085 18.3994 22.0951 18.3273 22.0391 18.3273C21.9891 18.3273 21.9697 18.2759 21.9697 18.1423C21.9697 18.0087 21.9503 17.9574 21.9003 17.9574C21.8453 17.9574 21.8309 17.8908 21.8309 17.6337C21.8309 17.4488 21.8111 17.3101 21.7847 17.3101C21.7588 17.3101 21.7384 17.1793 21.7384 17.0096C21.7384 16.7733 21.7236 16.7091 21.669 16.7091C21.614 16.7091 21.5997 16.6425 21.5997 16.3854C21.5997 16.1284 21.5853 16.0618 21.5303 16.0618C21.4771 16.0618 21.4609 16.0026 21.4609 15.8075C21.4609 15.6124 21.4447 15.5532 21.3915 15.5532C21.3355 15.5532 21.3221 15.4811 21.3221 15.1834C21.3221 14.9675 21.3027 14.8135 21.2759 14.8135C21.2504 14.8135 21.2296 14.7303 21.2296 14.6286V14.4436C19.2692 14.4469 19.0685 14.4593 19.0208 14.5148C18.9852 14.5564 18.963 14.7233 18.963 14.9522ZM32.2851 15.4145C32.7347 15.4145 32.7939 15.4307 32.7939 15.4839C32.7939 15.5218 32.8249 15.5532 32.8633 15.5532C32.9017 15.5532 32.9327 15.574 32.9327 15.5995C32.9327 15.6249 32.9637 15.6771 33.0021 15.7151C33.0405 15.753 33.0923 15.7844 33.1177 15.7844C33.1432 15.7844 33.164 15.8158 33.164 15.8538C33.164 15.8917 33.195 15.9231 33.2334 15.9231C33.2796 15.9231 33.3028 15.9693 33.3028 16.0618C33.3028 16.1543 33.3259 16.2005 33.3722 16.2005C33.4152 16.2005 33.4415 16.244 33.4415 16.3161C33.4415 16.3794 33.4624 16.4317 33.4878 16.4317C33.5132 16.4317 33.5341 16.4941 33.5341 16.5704V16.7091H34.3204C34.3204 16.2597 34.3042 16.2005 34.251 16.2005C34.2048 16.2005 34.1817 16.1543 34.1817 16.0618C34.1817 15.9693 34.1585 15.9231 34.1123 15.9231C34.0623 15.9231 34.0429 15.8718 34.0429 15.7382C34.0429 15.6046 34.0235 15.5532 33.9735 15.5532C33.9351 15.5532 33.9041 15.5324 33.9041 15.507C33.9041 15.4816 33.8731 15.4293 33.8347 15.3914C33.7963 15.3535 33.7445 15.3221 33.7191 15.3221C33.6936 15.3221 33.6728 15.2906 33.6728 15.2527C33.6728 15.2148 33.6418 15.1834 33.6034 15.1834C33.5651 15.1834 33.5341 15.1519 33.5341 15.114C33.5341 15.0761 33.5132 15.0447 33.4878 15.0447C33.4624 15.0447 33.4415 15.0132 33.4415 14.9753C33.4415 14.9374 33.4106 14.906 33.3722 14.906C33.3338 14.906 33.3028 14.8852 33.3028 14.8597C33.3028 14.8343 33.2403 14.8135 33.164 14.8135C33.0715 14.8135 33.0252 14.7904 33.0252 14.7441C33.0252 14.6942 32.9739 14.6748 32.8402 14.6748C32.7065 14.6748 32.6552 14.6554 32.6552 14.6054C32.6552 14.5555 32.6038 14.5361 32.4701 14.5361H32.2851V15.4145ZM30.0185 17.3101C29.926 17.3101 29.8797 17.3332 29.8797 17.3795C29.8797 17.4225 29.8362 17.4488 29.7641 17.4488C29.6919 17.4488 29.6484 17.4752 29.6484 17.5182C29.6484 17.5561 29.617 17.5875 29.5791 17.5875C29.536 17.5875 29.5097 17.631 29.5097 17.7031C29.5097 17.7664 29.4889 17.8187 29.4634 17.8187C29.438 17.8187 29.4172 17.9329 29.4172 18.073C29.4172 18.2681 29.401 18.3273 29.3478 18.3273C29.2978 18.3273 29.2784 18.3786 29.2784 18.5122C29.2784 18.6458 29.2978 18.6971 29.3478 18.6971C29.401 18.6971 29.4172 18.7563 29.4172 18.9514C29.4172 19.091 29.438 19.2057 29.4634 19.2057C29.4889 19.2057 29.5097 19.2371 29.5097 19.275C29.5097 19.313 29.5411 19.3444 29.5791 19.3444C29.617 19.3444 29.6484 19.3652 29.6484 19.3906C29.6484 19.4161 29.7007 19.4369 29.7641 19.4369C29.8362 19.4369 29.8797 19.4632 29.8797 19.5062C29.8797 19.5524 29.926 19.5756 30.0185 19.5756H30.1573C30.1573 20.2432 30.1439 20.3153 30.0879 20.3153C30.05 20.3153 30.0185 20.3467 30.0185 20.3847C30.0185 20.4226 29.987 20.454 29.9491 20.454C29.9029 20.454 29.8797 20.5002 29.8797 20.5927C29.8797 20.669 29.8589 20.7314 29.8335 20.7314C29.808 20.7314 29.7872 20.7832 29.7872 20.847C29.7872 20.9191 29.7608 20.9626 29.7178 20.9626C29.6748 20.9626 29.6484 21.006 29.6484 21.0782C29.6484 21.1503 29.6221 21.1937 29.5791 21.1937C29.5328 21.1937 29.5097 21.24 29.5097 21.3324C29.5097 21.4087 29.4889 21.4711 29.4634 21.4711C29.4333 21.4711 29.4172 22.1725 29.4172 23.4823C29.4172 25.2392 29.4084 25.4935 29.3478 25.4935C29.2899 25.4935 29.2784 25.5859 29.2784 26.0483C29.2784 26.5106 29.2899 26.6031 29.3478 26.6031C29.4065 26.6031 29.4172 26.7187 29.4172 27.3659C29.4172 27.8435 29.4343 28.1288 29.4634 28.1288C29.4935 28.1288 29.5097 28.8533 29.5097 30.2093C29.5097 32.0277 29.5185 32.2898 29.5791 32.2898C29.6392 32.2898 29.6484 32.4798 29.6484 33.7231V35.1563H32.6552C32.6552 34.9686 32.6815 34.9251 32.7246 34.9251C32.7676 34.9251 32.7939 34.8817 32.7939 34.8096C32.7939 34.7374 32.7676 34.694 32.7246 34.694C32.6783 34.694 32.6552 34.6477 32.6552 34.5553C32.6552 34.4383 32.6371 34.4166 32.5395 34.4166C32.4674 34.4166 32.4239 34.3902 32.4239 34.3472C32.4239 34.3089 32.3929 34.2779 32.3545 34.2779C32.3161 34.2779 32.2851 34.2571 32.2851 34.2316C32.2851 34.2062 32.2541 34.1854 32.2157 34.1854C32.1773 34.1854 32.1463 34.1544 32.1463 34.1161C32.1463 34.0661 32.095 34.0467 31.9613 34.0467C31.8276 34.0467 31.7763 34.0273 31.7763 33.9774C31.7763 33.9344 31.7328 33.908 31.6606 33.908C31.5973 33.908 31.545 33.8872 31.545 33.8618C31.545 33.8363 31.4825 33.8155 31.4062 33.8155C31.2688 33.8155 31.2674 33.8128 31.2674 33.5613C31.2674 33.3661 31.2836 33.307 31.3368 33.307C31.3919 33.307 31.4062 33.2404 31.4062 32.9833C31.4062 32.7263 31.4206 32.6597 31.4756 32.6597C31.5316 32.6597 31.545 32.5876 31.545 32.2898C31.545 31.9921 31.5584 31.92 31.6144 31.92C31.6731 31.92 31.6838 31.8122 31.6838 31.2265C31.6838 30.7951 31.7013 30.5329 31.73 30.5329C31.7555 30.5329 31.7763 30.4497 31.7763 30.348C31.7763 30.2144 31.7957 30.1631 31.8457 30.1631C31.9049 30.1631 31.9151 30.0345 31.9151 29.2846C31.9151 28.5347 31.9252 28.4062 31.9844 28.4062C32.0427 28.4062 32.0538 28.3036 32.0538 27.7589C32.0538 27.3581 32.0714 27.1117 32.1001 27.1117C32.1269 27.1117 32.1463 26.9577 32.1463 26.7418C32.1463 26.444 32.1598 26.3719 32.2157 26.3719C32.2759 26.3719 32.2851 26.1666 32.2851 24.8C32.2851 23.4333 32.2759 23.228 32.2157 23.228C32.1625 23.228 32.1463 23.1688 32.1463 22.9737C32.1463 22.8341 32.1255 22.7195 32.1001 22.7195C32.0746 22.7195 32.0538 22.6048 32.0538 22.4652C32.0538 22.2701 32.0376 22.2109 31.9844 22.2109C31.9312 22.2109 31.9151 22.1517 31.9151 21.9566C31.9151 21.7615 31.8989 21.7023 31.8457 21.7023C31.8026 21.7023 31.7763 21.6589 31.7763 21.5867C31.7763 21.5229 31.7555 21.4711 31.73 21.4711C31.7046 21.4711 31.6838 21.3879 31.6838 21.2862C31.6838 21.1526 31.6643 21.1013 31.6144 21.1013C31.5681 21.1013 31.545 21.055 31.545 20.9626C31.545 20.8701 31.5219 20.8239 31.4756 20.8239C31.4256 20.8239 31.4062 20.7726 31.4062 20.6389C31.4062 20.5053 31.3868 20.454 31.3368 20.454C31.2809 20.454 31.2674 20.3819 31.2674 20.0841C31.2674 19.7864 31.2809 19.7143 31.3368 19.7143C31.3748 19.7143 31.4062 19.6828 31.4062 19.6449C31.4062 19.607 31.4377 19.5756 31.4756 19.5756C31.5135 19.5756 31.545 19.5441 31.545 19.5062C31.545 19.4683 31.5672 19.4369 31.5945 19.4369C31.6218 19.4369 31.6741 19.4054 31.7101 19.3675C31.7467 19.3296 31.7763 19.2774 31.7763 19.2519C31.7763 19.2265 31.8073 19.2057 31.8457 19.2057C31.8841 19.2057 31.9151 19.1743 31.9151 19.1363C31.9151 19.0933 31.9585 19.067 32.0307 19.067C32.1029 19.067 32.1463 19.0406 32.1463 18.9976C32.1463 18.9597 32.1773 18.9283 32.2157 18.9283C32.2657 18.9283 32.2851 18.877 32.2851 18.7434C32.2851 18.6416 32.2643 18.5584 32.2389 18.5584C32.2134 18.5584 32.1616 18.527 32.1232 18.4891C32.0848 18.4512 32.0538 18.3989 32.0538 18.3735C32.0538 18.3481 32.0228 18.3273 31.9844 18.3273C31.946 18.3273 31.9151 18.2958 31.9151 18.2579C31.9151 18.22 31.8841 18.1886 31.8457 18.1886C31.8073 18.1886 31.7763 18.1571 31.7763 18.1192C31.7763 18.0813 31.7555 18.0499 31.73 18.0499C31.7046 18.0499 31.6838 17.9976 31.6838 17.9343C31.6838 17.8621 31.6574 17.8187 31.6144 17.8187C31.5644 17.8187 31.545 17.7674 31.545 17.6337C31.545 17.5001 31.5256 17.4488 31.4756 17.4488C31.4377 17.4488 31.4062 17.4174 31.4062 17.3795C31.4062 17.3416 31.3748 17.3101 31.3368 17.3101C31.2989 17.3101 31.2674 17.2787 31.2674 17.2408C31.2674 17.183 31.1749 17.1714 30.7124 17.1714C30.2498 17.1714 30.1573 17.183 30.1573 17.2408C30.1573 17.287 30.111 17.3101 30.0185 17.3101V17.3101ZM27.0118 33.8155C26.9354 33.8155 26.873 33.8363 26.873 33.8618C26.873 33.8872 26.8415 33.908 26.8036 33.908C26.7472 33.908 26.7342 33.9824 26.7342 34.301C26.7342 34.6195 26.7472 34.694 26.8036 34.694C26.8415 34.694 26.873 34.7148 26.873 34.7402C26.873 34.7656 26.9354 34.7864 27.0118 34.7864C27.1043 34.7864 27.1505 34.8096 27.1505 34.8558C27.1505 34.9057 27.2019 34.9251 27.3356 34.9251C27.4693 34.9251 27.5206 34.9057 27.5206 34.8558C27.5206 34.8128 27.5641 34.7864 27.6362 34.7864C27.7001 34.7864 27.7519 34.7656 27.7519 34.7402C27.7519 34.7148 27.7833 34.694 27.8213 34.694C27.8777 34.694 27.8907 34.6195 27.8907 34.301C27.8907 33.9824 27.8777 33.908 27.8213 33.908C27.7833 33.908 27.7519 33.8872 27.7519 33.8618C27.7519 33.8363 27.7001 33.8155 27.6362 33.8155C27.5641 33.8155 27.5206 33.7892 27.5206 33.7462C27.5206 33.6963 27.4693 33.6768 27.3356 33.6768C27.2019 33.6768 27.1505 33.6963 27.1505 33.7462C27.1505 33.7924 27.1043 33.8155 27.0118 33.8155Z" fill="#136CC8" fill-opacity="0.98"/>
<path fill-rule="evenodd" clip-rule="evenodd" d="M115.93 20.4108C115.949 20.4089 115.964 20.4126 115.964 20.4191C115.964 20.4256 115.996 20.6073 116.035 20.8236C116.074 21.04 116.1 21.2189 116.093 21.2213C116.086 21.224 115.935 21.2615 115.756 21.3049C115.578 21.3484 115.225 21.4677 114.97 21.5699C114.716 21.6725 114.362 21.851 114.184 21.9675C114.006 22.0835 113.743 22.2953 113.6 22.4372C113.458 22.5796 113.234 22.8626 112.865 23.4358V28.5447H112.033V27.331C112.033 26.6634 112.049 24.895 112.102 20.6849H112.865L112.864 22.0026L113.085 21.7885C113.206 21.6706 113.409 21.4963 113.536 21.4011C113.663 21.3063 113.934 21.145 114.137 21.0428C114.341 20.9406 114.643 20.8061 114.808 20.7437C114.973 20.6817 115.286 20.5818 115.502 20.5222C115.719 20.463 115.911 20.4126 115.93 20.4108V20.4108ZM75.1194 18.1421H75.9516L75.9752 21.8805L76.2527 21.6498C76.4054 21.5227 76.7176 21.3271 76.9466 21.2148C77.1755 21.1024 77.5294 20.967 77.7329 20.9133C77.9721 20.8505 78.3153 20.807 78.7044 20.7908C79.0457 20.7765 79.4755 20.7876 79.6989 20.8172C79.9149 20.8458 80.2586 20.9106 80.4621 20.9614C80.6657 21.0127 80.9987 21.1371 81.2023 21.2384C81.4058 21.3391 81.6949 21.5319 81.8443 21.666C81.9942 21.8001 82.2134 22.0558 82.3319 22.2338C82.4595 22.4252 82.5988 22.7178 82.6732 22.9504C82.7422 23.1668 82.8324 23.52 82.8735 23.7364C82.9341 24.0545 82.9517 24.5501 82.9832 28.5447H82.1968L82.1778 26.4988C82.1672 25.3194 82.1371 24.3161 82.1075 24.1294C82.0788 23.9514 82.0229 23.6703 81.9826 23.5052C81.9419 23.3401 81.8508 23.0798 81.78 22.9273C81.7018 22.7594 81.5436 22.5431 81.3803 22.3794C81.2106 22.2102 80.9885 22.0498 80.7859 21.9504C80.6014 21.8602 80.2632 21.7502 79.9996 21.6951C79.6647 21.6253 79.3709 21.599 78.9356 21.5994C78.4694 21.6004 78.2515 21.623 77.9642 21.6998C77.7607 21.7543 77.4489 21.8759 77.2713 21.9702C77.0937 22.0641 76.8157 22.2661 76.6538 22.4187C76.4475 22.6129 76.3119 22.7932 76.2009 23.0197C76.0839 23.2588 76.0307 23.446 75.9978 23.7364C75.9729 23.9527 75.9525 25.1331 75.952 28.5909H75.1194V18.1421ZM94.5012 18.1421H95.3334L95.357 22.6614L98.3869 21.4418C100.054 20.7709 101.429 20.2379 101.444 20.2568C101.458 20.2762 101.526 20.4219 101.594 20.5809C101.662 20.74 101.717 20.8958 101.717 20.9277C101.717 20.961 100.474 21.4885 98.8013 22.1644C97.1976 22.8126 95.8871 23.354 95.8894 23.3665C95.8913 23.379 97.174 24.4091 98.7403 25.6551C100.306 26.9011 101.596 27.9362 101.606 27.9552C101.617 27.9741 101.516 28.1258 101.382 28.2913C101.248 28.4573 101.129 28.5928 101.116 28.5918C101.103 28.5914 99.8023 27.559 95.357 24.0045L95.3339 28.5447H94.5706L94.5359 25.9671C94.517 24.5496 94.5012 22.2088 94.5012 20.7659V18.1421ZM51.2275 18.2993C51.8894 18.3136 52.0869 18.3353 52.4764 18.4366C52.7308 18.5027 53.1055 18.6391 53.3091 18.7404C53.5126 18.8411 53.798 19.0233 53.9437 19.1454C54.0894 19.2674 54.3082 19.4921 54.4299 19.6447C54.5515 19.7973 54.7477 20.1093 54.8661 20.3382C54.984 20.567 55.1325 20.9207 55.1968 21.1242C55.2607 21.3276 55.3462 21.7127 55.386 21.9795C55.4471 22.3836 55.4591 22.9744 55.46 28.5447H54.6737V25.1465L52.7655 25.1118C51.716 25.0929 50.1548 25.0771 47.7351 25.0771V28.5447H46.9024L46.926 26.0827C46.9385 24.7285 46.9589 23.1732 46.9704 22.6268C46.9852 21.9379 47.0144 21.5407 47.0652 21.3322C47.106 21.1672 47.1934 20.8962 47.26 20.7312C47.3266 20.5661 47.4547 20.3058 47.5445 20.1533C47.6347 20.0007 47.865 19.7122 48.057 19.5125C48.249 19.3123 48.5617 19.0464 48.7527 18.9216C48.9433 18.7968 49.2555 18.6345 49.4466 18.561C49.6372 18.4875 49.9392 18.3945 50.1173 18.3548C50.362 18.3002 50.6331 18.2868 51.2275 18.2993V18.2993ZM49.9091 19.2707C49.7181 19.3368 49.4512 19.4584 49.3152 19.5411C49.1792 19.6234 48.9424 19.8056 48.7888 19.9452C48.6352 20.0848 48.4141 20.3451 48.2971 20.5231C48.18 20.7011 48.0242 21.0234 47.9501 21.2397C47.834 21.5796 47.8105 21.7354 47.7776 22.3956C47.7568 22.8149 47.7383 23.3979 47.7369 23.6901L47.7346 24.2218C49.1871 24.2755 50.7533 24.2912 52.1526 24.2912L54.6968 24.2916C54.6496 22.7918 54.6043 22.1954 54.5626 21.9679C54.5219 21.7455 54.4253 21.3919 54.348 21.182C54.2708 20.9721 54.1172 20.6549 54.0066 20.4769C53.8956 20.2989 53.6726 20.0307 53.5107 19.8809C53.3488 19.7311 53.1018 19.5518 52.9621 19.4815C52.822 19.4117 52.593 19.3201 52.4533 19.2781C52.3131 19.236 52.0009 19.1713 51.7594 19.1343C51.5175 19.0977 51.1951 19.0695 51.0425 19.0728C50.8898 19.0755 50.6502 19.0945 50.5105 19.1144C50.3703 19.1343 50.0997 19.2045 49.9091 19.2707V19.2707ZM65.4054 18.2808H68.6087C70.3706 18.2808 72.2649 18.2965 73.8242 18.3501V19.113H70.0774V21.0433C70.0774 22.1048 70.0616 24.2269 70.008 28.5447H69.2447V19.113L65.4054 19.0668V18.2808ZM57.1253 19.0668H57.9579V19.9452H57.1253V19.0668ZM83.9546 19.113H84.7872V19.9914H83.9546V19.113ZM85.8049 20.2688H86.5912V21.9333L86.811 21.7534C86.9317 21.654 87.1449 21.5019 87.2851 21.415C87.4248 21.3285 87.6644 21.2041 87.8171 21.1394C87.9697 21.0747 88.2403 20.9822 88.4184 20.9341C88.6876 20.8616 88.8976 20.8472 89.6673 20.85C90.5203 20.8532 90.6286 20.8629 91.0551 20.9781C91.3095 21.0465 91.6425 21.1616 91.7952 21.2337C91.9478 21.3059 92.206 21.4668 92.3683 21.5916C92.5311 21.716 92.7583 21.9425 92.8725 22.0951C92.9872 22.2476 93.138 22.4973 93.2074 22.6499C93.2773 22.8024 93.3776 23.1039 93.4304 23.3203C93.4836 23.5366 93.5483 23.8899 93.5747 24.1062C93.6011 24.3226 93.6224 25.4197 93.6224 26.5451C93.6224 28.3431 93.614 28.5881 93.553 28.5678C93.5146 28.5553 93.3328 28.5447 92.8128 28.5447L92.8281 26.7993C92.8378 25.705 92.823 24.8386 92.7893 24.4761C92.7597 24.158 92.6949 23.7419 92.6454 23.5514C92.5959 23.3605 92.502 23.09 92.4368 22.9504C92.3711 22.8108 92.2078 22.5814 92.0737 22.4418C91.9395 22.3022 91.7073 22.1214 91.5579 22.0405C91.4085 21.9601 91.13 21.8505 90.9394 21.7978C90.7484 21.7446 90.3737 21.6767 90.1068 21.6466C89.7312 21.6041 89.5133 21.6041 89.147 21.6471C88.8676 21.6794 88.5253 21.7557 88.3143 21.8329C88.1173 21.9046 87.8411 22.0359 87.7014 22.1247C87.5613 22.213 87.3739 22.3572 87.2851 22.4446C87.1958 22.532 87.051 22.7077 86.9636 22.8348C86.8757 22.962 86.7642 23.1908 86.7152 23.3434C86.6333 23.5977 86.6236 23.827 86.5681 28.5447H85.8049V20.2688ZM106.921 20.5971C107.201 20.5952 107.649 20.6258 107.916 20.6651C108.183 20.7044 108.578 20.7978 108.795 20.8722C109.011 20.9471 109.302 21.0756 109.441 21.1588C109.58 21.2416 109.83 21.4455 109.996 21.6115C110.162 21.7779 110.365 22.0382 110.446 22.1894C110.528 22.341 110.638 22.6314 110.691 22.8348C110.757 23.0909 110.797 23.4363 110.853 24.71L110.714 24.6879C110.638 24.6754 109.098 24.6536 104.007 24.613L104.037 24.9491C104.053 25.134 104.103 25.4308 104.146 25.6088C104.19 25.7868 104.29 26.0679 104.368 26.233C104.453 26.4096 104.629 26.6574 104.796 26.834C104.953 26.9995 105.204 27.2016 105.354 27.283C105.504 27.3648 105.834 27.4868 106.089 27.5539C106.429 27.644 106.71 27.6829 107.153 27.7004C107.613 27.7189 107.846 27.706 108.147 27.6454C108.387 27.5973 108.666 27.5003 108.863 27.3967C109.041 27.3033 109.32 27.1022 109.483 26.9496C109.645 26.797 109.873 26.5367 109.989 26.3717C110.104 26.2066 110.211 26.0536 110.225 26.0319C110.24 26.0101 110.403 26.0726 110.587 26.1706C110.771 26.2686 110.922 26.3745 110.922 26.4064C110.923 26.4383 110.842 26.5839 110.744 26.73C110.646 26.8761 110.464 27.1147 110.339 27.2594C110.215 27.4045 109.978 27.6311 109.812 27.7624C109.647 27.8942 109.371 28.0717 109.2 28.1577C109.028 28.2432 108.716 28.3542 108.506 28.4037C108.296 28.4531 107.926 28.5077 107.685 28.5248C107.437 28.5419 107.033 28.5327 106.759 28.5035C106.492 28.4749 106.076 28.399 105.834 28.3357C105.592 28.2719 105.249 28.148 105.071 28.0606C104.893 27.9728 104.633 27.8109 104.493 27.7009C104.353 27.5904 104.142 27.3763 104.024 27.2252C103.906 27.0735 103.731 26.7933 103.636 26.6029C103.541 26.4119 103.423 26.0998 103.375 25.9094C103.327 25.7184 103.265 25.3545 103.236 25.1003C103.207 24.8367 103.198 24.3698 103.213 24.0138C103.23 23.6444 103.277 23.2481 103.329 23.0429C103.378 22.8519 103.471 22.5814 103.535 22.4418C103.6 22.3022 103.746 22.0627 103.86 21.9101C103.973 21.7576 104.188 21.5366 104.337 21.4196C104.486 21.3022 104.733 21.1431 104.886 21.0659C105.039 20.9887 105.299 20.8796 105.464 20.8232C105.629 20.7663 105.911 20.6933 106.089 20.6604C106.267 20.6276 106.641 20.5989 106.921 20.5971V20.5971ZM105.557 21.6651C105.417 21.7201 105.219 21.8158 105.117 21.8778C105.016 21.9397 104.843 22.0761 104.733 22.1811C104.624 22.2865 104.475 22.4659 104.402 22.5805C104.329 22.6952 104.228 22.9134 104.178 23.066C104.128 23.2185 104.074 23.4423 104.058 23.563L104.03 23.7826C104.263 23.815 105.606 23.8358 107.164 23.8496L109.997 23.8751C109.996 23.5704 109.967 23.3466 109.933 23.1816C109.898 23.0165 109.818 22.777 109.754 22.6499C109.69 22.5227 109.515 22.3022 109.367 22.1598C109.218 22.0174 108.991 21.8482 108.864 21.783C108.737 21.7183 108.466 21.6189 108.263 21.5629C107.968 21.482 107.734 21.4575 107.106 21.4436C106.505 21.4298 106.26 21.4418 106.066 21.4954C105.925 21.5333 105.696 21.6101 105.557 21.6651V21.6651ZM57.1253 20.6387H57.9579V28.5447H57.1253V20.6387ZM83.9546 20.6849H84.7872V28.5447H83.9546V20.6849ZM60.8874 24.2306L61.6775 24.2607C62.1123 24.2773 63.3372 24.2912 66.3305 24.2912L66.331 25.1465L65.5326 25.1118C65.0936 25.0929 63.8655 25.0771 60.8721 25.0771L60.8874 24.2306Z" fill="#FDFFFF" fill-opacity="0.95"/>
<path d="M19.5875 17.1716C19.7276 17.1716 19.8419 17.1508 19.8419 17.1253C19.8419 17.0994 19.9728 17.0791 20.1426 17.0791C20.3123 17.0791 20.4432 17.0994 20.4432 17.1253C20.4432 17.1508 20.5057 17.1716 20.582 17.1716C20.6745 17.1716 20.7208 17.1947 20.7208 17.2409C20.7208 17.2788 20.7522 17.3103 20.7902 17.3103C20.8281 17.3103 20.8596 17.3417 20.8596 17.3796C20.8596 17.4175 20.8804 17.449 20.9058 17.449C20.9313 17.449 20.9521 17.5322 20.9521 17.6339C20.9521 17.7675 20.9715 17.8188 21.0215 17.8188C21.0594 17.8188 21.0908 17.8503 21.0908 17.8882C21.0908 17.9261 21.1117 17.9575 21.1371 17.9575C21.1625 17.9575 21.2148 17.989 21.2527 18.0269C21.2907 18.0648 21.3221 18.148 21.3221 18.2118C21.3221 18.3094 21.3439 18.3274 21.4609 18.3274C21.5779 18.3274 21.5997 18.3454 21.5997 18.443C21.5997 18.5151 21.626 18.5586 21.6691 18.5586C21.7153 18.5586 21.7384 18.6048 21.7384 18.6973C21.7384 18.7897 21.7153 18.836 21.6691 18.836C21.626 18.836 21.5997 18.8794 21.5997 18.9516C21.5997 19.0491 21.5779 19.0672 21.4609 19.0672C21.3374 19.0672 21.3221 19.0824 21.3221 19.2059C21.3221 19.3228 21.3041 19.3446 21.2065 19.3446C21.1431 19.3446 21.0908 19.3654 21.0908 19.3908C21.0908 19.4162 21.0594 19.437 21.0215 19.437C20.9835 19.437 20.9521 19.4685 20.9521 19.5064C20.9521 19.5443 20.9313 19.5757 20.9058 19.5757C20.8804 19.5757 20.8596 19.6072 20.8596 19.6451C20.8596 19.683 20.8281 19.7144 20.7902 19.7144C20.7342 19.7144 20.7208 19.7865 20.7208 20.0843C20.7208 20.382 20.7342 20.4542 20.7902 20.4542C20.8401 20.4542 20.8596 20.5055 20.8596 20.6391C20.8596 20.7408 20.8804 20.824 20.9058 20.824C20.9313 20.824 20.9521 20.8864 20.9521 20.9627C20.9521 21.0552 20.9752 21.1014 21.0215 21.1014C21.0645 21.1014 21.0908 21.1449 21.0908 21.217C21.0908 21.2891 21.1172 21.3326 21.1602 21.3326C21.2065 21.3326 21.2296 21.3788 21.2296 21.4713C21.2296 21.5476 21.2504 21.61 21.2759 21.61C21.3018 21.61 21.3221 21.7408 21.3221 21.9105C21.3221 22.1468 21.3369 22.211 21.3915 22.211C21.4415 22.211 21.4609 22.2624 21.4609 22.396C21.4609 22.5296 21.4803 22.5809 21.5303 22.5809C21.5881 22.5809 21.5997 22.6762 21.5997 23.1588C21.5997 23.6415 21.6112 23.7368 21.6691 23.7368C21.7283 23.7368 21.7384 23.8574 21.7384 24.5458C21.7384 25.2343 21.7283 25.3549 21.6691 25.3549C21.6122 25.3549 21.5997 25.4345 21.5997 26.2334H18.5929V26.0484C18.5929 25.9467 18.6138 25.8635 18.6392 25.8635C18.6679 25.8635 18.6855 25.6014 18.6855 25.17C18.6855 24.5842 18.6961 24.4765 18.7548 24.4765C18.8145 24.4765 18.8242 24.335 18.8242 23.4825C18.8242 22.6299 18.8145 22.4884 18.7548 22.4884C18.6984 22.4884 18.6855 22.414 18.6855 22.0955C18.6855 21.7769 18.6984 21.7025 18.7548 21.7025C18.8048 21.7025 18.8242 21.6512 18.8242 21.5175C18.8242 21.3839 18.8437 21.3326 18.8936 21.3326C18.9436 21.3326 18.963 21.2813 18.963 21.1477C18.963 21.046 18.9838 20.9627 19.0093 20.9627C19.0347 20.9627 19.0555 20.9109 19.0555 20.8471C19.0555 20.775 19.0819 20.7316 19.1249 20.7316C19.1628 20.7316 19.1943 20.7001 19.1943 20.6622C19.1943 20.6243 19.2257 20.5929 19.2637 20.5929C19.3099 20.5929 19.3331 20.5466 19.3331 20.4542C19.3331 20.3779 19.3553 20.3155 19.3826 20.3155C19.4099 20.3155 19.4621 20.284 19.4982 20.2461C19.5375 20.205 19.5644 20.0829 19.5644 19.9456C19.5644 19.8184 19.5435 19.7144 19.5181 19.7144C19.4927 19.7144 19.4718 19.683 19.4718 19.6451C19.4718 19.5988 19.4256 19.5757 19.3331 19.5757C19.2406 19.5757 19.1943 19.5526 19.1943 19.5064C19.1943 19.4685 19.1735 19.437 19.148 19.437C19.1226 19.437 19.0703 19.4056 19.0324 19.3677C18.9945 19.3298 18.963 19.2775 18.963 19.2521C18.963 19.2267 18.9316 19.2059 18.8936 19.2059C18.8557 19.2059 18.8242 19.1744 18.8242 19.1365C18.8242 19.0986 18.7928 19.0672 18.7548 19.0672C18.6966 19.0672 18.6855 18.9668 18.6855 18.443C18.6855 17.9192 18.6966 17.8188 18.7548 17.8188C18.7979 17.8188 18.8242 17.7754 18.8242 17.7033C18.8242 17.6311 18.8506 17.5877 18.8936 17.5877C18.9316 17.5877 18.963 17.5562 18.963 17.5183C18.963 17.4753 19.0065 17.449 19.0787 17.449C19.1508 17.449 19.1943 17.4226 19.1943 17.3796C19.1943 17.3417 19.2257 17.3103 19.2637 17.3103C19.3016 17.3103 19.3331 17.2788 19.3331 17.2409C19.3331 17.1878 19.3923 17.1716 19.5875 17.1716Z" fill="#136CC8" fill-opacity="0.98"/>
</svg>
