<svg width="125" height="50" viewBox="0 0 125 50" fill="none" xmlns="http://www.w3.org/2000/svg">
<g clip-path="url(#clip0_239_723)">
<path d="M85.0338 28.356V27.6481H83.7874C82.932 27.6481 82.5899 27.7945 82.5899 28.3804C82.5899 28.8442 82.8831 29.015 83.5185 29.015C84.2762 29.015 84.8138 28.7465 85.0338 28.356ZM87.2088 25.6465V30.5285H85.2537L85.0582 29.7717C84.7894 30.2111 84.0806 30.6505 82.8831 30.6505C81.3435 30.6505 80.4881 29.967 80.4881 28.478C80.4881 26.8425 81.4657 26.2567 83.4208 26.2567H85.0582V26.2079C85.0582 25.378 84.8138 25.1339 83.6163 25.1339C83.0298 25.1339 82.4188 25.1827 81.8323 25.2559V23.4252C82.5166 23.3519 83.2008 23.3031 83.8851 23.3031C86.2802 23.3031 87.1844 24.0842 87.2088 25.6465ZM43.2186 26.1835L42.1433 22.7173H41.9967L40.8969 26.1591H43.2186V26.1835ZM43.854 28.2095H40.2859L39.5528 30.504H37.1822L40.5548 20.5692H43.6341L46.9822 30.504H44.5628L43.854 28.2095ZM77.2622 26.989C77.2622 25.7441 77.0666 24.8898 75.918 24.8898C74.7694 24.8898 74.4761 25.6465 74.4761 26.989C74.4761 28.2583 74.7449 29.0394 75.918 29.0394C77.0911 29.0394 77.2622 28.1363 77.2622 26.989ZM79.4861 26.989C79.4861 29.0394 78.9485 30.6505 76.6756 30.6505C75.3315 30.6505 74.8183 30.2355 74.5494 29.6253L74.4272 30.5285H72.4232V20.5448H74.5983V24.1575C74.8916 23.7425 75.4537 23.3031 76.6756 23.3031C78.9485 23.3031 79.4861 24.6945 79.4861 26.989ZM68.4397 28.3804V27.6725H67.1933C66.3379 27.6725 65.9958 27.8189 65.9958 28.4048C65.9958 28.8686 66.289 29.0394 66.9245 29.0394C67.6576 29.0394 68.2197 28.7709 68.4397 28.3804ZM70.5903 25.6709V30.5285H68.6352L68.4397 29.7717C68.1709 30.2111 67.4621 30.6505 66.2646 30.6505C64.725 30.6505 63.8696 29.967 63.8696 28.478C63.8696 26.8425 64.8471 26.2567 66.8023 26.2567H68.4397V26.2079C68.4397 25.378 68.1953 25.1339 66.9978 25.1339C66.4112 25.1339 65.8003 25.1827 65.2137 25.2559V23.4496C65.898 23.3763 66.5823 23.3275 67.2666 23.3275C69.6861 23.3275 70.5903 24.1086 70.5903 25.6709ZM60.6436 26.989C60.6436 25.7685 60.4481 24.9142 59.2995 24.9142C58.1509 24.9142 57.8576 25.6709 57.8576 26.989C57.8576 28.2583 58.1264 29.0639 59.2995 29.0639C60.4726 29.0639 60.6436 28.1363 60.6436 26.989ZM62.8676 26.989C62.8676 29.0639 62.3299 30.6749 60.0571 30.6749C58.713 30.6749 58.1997 30.2599 57.9309 29.6497L57.8087 30.5529H55.8047V20.5448H57.9798V24.1575C58.2731 23.7425 58.8352 23.3275 60.0571 23.3275C62.3299 23.3031 62.8676 24.6945 62.8676 26.989ZM51.8945 23.4496H54.0695V30.5285H51.8945V23.4496ZM51.7967 21.4479C51.7967 20.4227 52.0167 20.3495 52.9942 20.3495C53.9718 20.3495 54.1917 20.4227 54.1917 21.4479C54.1917 22.4732 53.9962 22.5708 52.9942 22.5708C51.9922 22.5708 51.7967 22.4488 51.7967 21.4479ZM48.0087 20.5448H50.2082V30.5285H48.0087V20.5448ZM116.413 23.9378C116.804 24.426 117.024 25.0362 116.976 25.6465V30.5285H115.851V26.037C115.876 25.5732 115.778 25.1339 115.558 24.7433C115.289 24.426 114.898 24.2795 114.483 24.3039C114.067 24.2795 113.676 24.3771 113.31 24.5724C112.968 24.7921 112.723 25.1583 112.625 25.5488V30.5285H111.501V26.037C111.526 25.5732 111.428 25.1339 111.208 24.7433C110.964 24.4504 110.597 24.2795 110.206 24.3283C109.79 24.3039 109.399 24.4016 109.033 24.5968C108.666 24.8409 108.422 25.2071 108.324 25.6221V30.5285H107.2V23.4496H108.324V24.3771C108.495 24.011 108.788 23.7181 109.155 23.5472C109.546 23.3763 109.962 23.3031 110.377 23.3031C111.428 23.3031 112.112 23.6937 112.454 24.4504C112.796 23.6937 113.554 23.3031 114.654 23.3031C115.46 23.3031 116.047 23.5228 116.413 23.9378ZM103.461 29.3568C103.778 29.1859 103.998 28.893 104.072 28.5512C104.218 28.0142 104.267 27.4772 104.243 26.9402C104.267 26.4032 104.194 25.8417 104.047 25.3291C103.95 24.9874 103.73 24.6945 103.412 24.4992C103.045 24.3283 102.63 24.2307 102.214 24.2551C101.799 24.2307 101.383 24.3039 100.992 24.4992C100.699 24.6701 100.455 24.963 100.381 25.3291C100.235 25.8662 100.186 26.4032 100.186 26.9402C100.162 27.4772 100.235 28.0142 100.381 28.5512C100.479 28.893 100.699 29.1859 101.017 29.3568C101.383 29.5276 101.799 29.6253 102.214 29.6009C102.654 29.6253 103.094 29.5521 103.461 29.3568ZM100.455 30.2111C99.966 29.9914 99.575 29.5765 99.3795 29.0883C98.8907 27.6969 98.8907 26.1835 99.3795 24.7921C99.5994 24.3039 99.966 23.8889 100.455 23.6693C101.017 23.4252 101.628 23.3031 102.239 23.3275C102.85 23.3031 103.461 23.4252 104.023 23.6693C104.512 23.9134 104.878 24.3039 105.098 24.7921C105.587 26.1835 105.587 27.6969 105.098 29.0883C104.878 29.5765 104.512 29.9914 104.023 30.2111C103.461 30.4552 102.85 30.5773 102.239 30.5529C101.603 30.5529 101.017 30.4308 100.455 30.2111ZM94.0273 30.2111C93.5385 29.967 93.1475 29.5765 92.952 29.0883C92.4632 27.6969 92.4632 26.1835 92.952 24.7921C93.172 24.3039 93.5385 23.8889 94.0273 23.6693C94.5894 23.4252 95.2004 23.3031 95.8114 23.3275C96.4223 23.3275 97.0333 23.4007 97.6443 23.596V24.6212C97.0578 24.4016 96.4468 24.3039 95.8358 24.3283C95.4204 24.3039 95.0049 24.4016 94.6139 24.5724C94.2962 24.7433 94.0762 25.0362 93.9784 25.378C93.8318 25.8906 93.7585 26.4276 93.7829 26.989C93.7585 27.526 93.8318 28.063 93.9784 28.5757C94.0762 28.9174 94.2962 29.2103 94.6139 29.3812C95.0049 29.5521 95.4204 29.6253 95.8603 29.6253C96.4712 29.6497 97.0822 29.5521 97.6687 29.3324V30.2844C97.3999 30.3576 97.1311 30.4308 96.8378 30.4552C96.4957 30.504 96.1535 30.5285 95.8114 30.5285C95.2004 30.5773 94.5894 30.4552 94.0273 30.2111ZM89.7016 30.4796C89.5794 30.4552 89.4817 30.3576 89.4328 30.2355C89.3595 30.0403 89.335 29.845 89.3595 29.6497C89.335 29.4056 89.3839 29.1615 89.555 28.9662C89.9949 28.7465 90.5081 28.7465 90.948 28.9662C91.0946 29.1615 91.168 29.4056 91.1435 29.6497C91.1924 29.8938 91.1191 30.1623 90.948 30.3576C90.7525 30.504 90.5081 30.5529 90.2637 30.5285C90.0682 30.5285 89.8971 30.504 89.7016 30.4796ZM24.816 30.7237C23.6185 30.7726 23.7407 30.1623 24.4495 29.2103C26.0869 27.0134 29.1662 23.9866 29.2639 21.8141C29.4595 19.0069 26.6245 18.0794 23.6919 18.1038C21.7856 18.177 19.9038 18.5676 18.1198 19.2266C13.1586 20.9597 10.0549 23.7669 8.09976 26.8425C6.02244 29.8938 6.70674 32.823 11.0813 32.9206C14.4295 32.7986 16.629 31.8466 18.9018 30.6993C18.9018 30.6993 12.5965 32.5057 10.2993 31.1875C9.98156 31.0167 9.76161 30.6993 9.73717 30.3332C9.73717 29.2347 11.5457 28.1119 12.5721 27.7457V25.8417C14.8449 26.7205 17.411 26.3055 19.2928 24.7189C19.3417 24.8898 19.3417 25.085 19.3417 25.2559H19.806C19.8305 24.9386 19.7572 24.6457 19.5861 24.3771C19.3417 23.9866 18.9262 23.7425 18.4619 23.7425C18.7307 23.8645 18.9507 24.0598 19.1218 24.3283C17.5088 25.6709 15.3337 26.1102 13.3541 25.4756L14.8694 23.9866L14.4539 22.9125C17.5821 21.7653 20.808 20.8865 24.1073 20.3495L23.1786 19.5928L23.6674 19.2999C26.1602 19.9833 27.7976 20.496 27.6998 21.8141C27.651 22.0826 27.5777 22.3267 27.4555 22.5708C26.7223 24.011 24.5717 26.3788 23.7163 27.3796C23.1542 27.9898 22.641 28.6245 22.1766 29.308C21.7856 29.8206 21.5412 30.4308 21.4923 31.0655C21.4923 35.4105 34.2251 29.0639 36.6934 27.3552C33.052 28.9174 29.1417 30.4308 24.816 30.7237Z" fill="#FF6A00"/>
</g>
<defs>
<clipPath id="clip0_239_723">
<rect width="110" height="14.8413" fill="white" transform="translate(7 18.0794)"/>
</clipPath>
</defs>
</svg>
