<svg width="133" height="49" viewBox="0 0 133 49" fill="none" xmlns="http://www.w3.org/2000/svg">
<g clip-path="url(#clip0_302_2)">
<path d="M0.556152 48.5731L37.3429 25.3737L40.0434 15.8242L0.556152 48.5731Z" fill="#17A1DB"/>
<path d="M0.239258 48.4885L40.1538 15.3894L44.4828 0.298828L0.239258 48.4885Z" fill="#5DCBED"/>
<path d="M40.3235 15.8242L37.6709 25.37L47.6514 41.1826L40.3235 15.8242Z" fill="#5DCBED"/>
<path d="M40.4189 15.4373L47.8574 41.0353L44.7737 0.298828L40.4189 15.4373Z" fill="#17A1DB"/>
<path d="M54.0615 31.918H132.708" stroke="white" stroke-width="0.368421" stroke-miterlimit="10"/>
<path d="M55.0197 39.1419C54.9902 40.2545 55.9702 40.5972 57.1934 40.5972C57.8934 40.5972 58.9581 40.2877 58.9581 39.4993C58.9581 38.884 58.2102 38.6445 57.5876 38.5229L56.1028 38.2282C55.3181 38.0698 54.5997 37.7751 54.5997 36.924C54.5997 36.3934 55.0197 35.4023 56.8949 35.4023C58.2212 35.4023 59.356 35.9698 59.356 37.0861H58.7223C58.6744 36.2682 57.8565 35.8445 56.9023 35.8445C56.0365 35.8445 55.2334 36.1171 55.2334 36.9203C55.2334 37.4287 55.6902 37.6461 56.2391 37.7456L57.8639 38.0698C58.807 38.2761 59.5881 38.615 59.5881 39.4956C59.5881 39.8677 59.4002 41.0429 57.0423 41.0429C55.4655 41.0429 54.3086 40.4682 54.386 39.1493H55.0197V39.1419Z" fill="white"/>
<path d="M60.5977 35.5096H65.1955V35.948H61.2313V37.9042H64.945V38.3427H61.2313V40.4795H65.2434V40.9179H60.5977V35.5059V35.5096Z" fill="white"/>
<path d="M66.1089 35.5098H67.041L69.3436 40.2551L71.6389 35.5098H72.571V40.9219H71.9373V36.2466H71.9189L69.642 40.9219H69.0452L66.761 36.2466H66.7426V40.9219H66.1089V35.5098Z" fill="white"/>
<path d="M73.9453 35.5098H74.579V40.9219H73.9453V35.5098Z" fill="white"/>
<path d="M80.8385 37.1484C80.6137 36.3158 79.7664 35.8369 78.7974 35.8369C77.0364 35.8369 76.2885 37.0342 76.2885 38.2168C76.2885 39.3995 77.0364 40.5968 78.7974 40.5968C80.0279 40.5968 80.8127 39.8231 80.9343 38.8616H81.5679C81.3911 40.1952 80.3558 41.0352 78.7974 41.0352C76.6974 41.0352 75.6548 39.7016 75.6548 38.2168C75.6548 36.7321 76.7011 35.3984 78.7974 35.3984C80.0648 35.3984 81.299 36.0211 81.4758 37.1484H80.8422H80.8385Z" fill="white"/>
<path d="M85.3257 35.3984C87.4147 35.3984 88.461 36.7321 88.461 38.2168C88.461 39.7016 87.4147 41.0352 85.3257 41.0352C83.2368 41.0352 82.1831 39.7016 82.1831 38.2168C82.1831 36.7321 83.2294 35.3984 85.3257 35.3984ZM85.3257 40.5968C87.0794 40.5968 87.8236 39.3995 87.8236 38.2168C87.8236 37.0342 87.0757 35.8369 85.3257 35.8369C83.5757 35.8369 82.8168 37.0342 82.8168 38.2168C82.8168 39.3995 83.5647 40.5968 85.3257 40.5968Z" fill="white"/>
<path d="M89.4375 35.5098H90.1449L94.0243 40.0893H94.0428V35.5098H94.6764V40.9219H93.9691L90.0896 36.3424H90.0712V40.9219H89.4375V35.5098Z" fill="white"/>
<path d="M96.0137 35.5098H98.3163C100.332 35.5466 101.374 36.4271 101.374 38.2177C101.374 40.0082 100.328 40.8851 98.3163 40.9219H96.0137V35.5098ZM96.6474 40.4835H97.9995C99.9116 40.4835 100.741 39.8388 100.741 38.2177C100.741 36.5966 99.9116 35.9519 97.9995 35.9519H96.6474V40.4835Z" fill="white"/>
<path d="M102.339 35.5098H102.973V38.8588C102.973 40.1114 103.691 40.594 104.922 40.594C106.153 40.594 106.882 40.1077 106.882 38.8588V35.5098H107.516V38.973C107.516 40.0856 106.779 41.0361 104.922 41.0361C103.065 41.0361 102.339 40.0893 102.339 38.973V35.5098Z" fill="white"/>
<path d="M113.661 37.1484C113.436 36.3158 112.589 35.8369 111.62 35.8369C109.859 35.8369 109.111 37.0342 109.111 38.2168C109.111 39.3995 109.859 40.5968 111.62 40.5968C112.851 40.5968 113.635 39.8231 113.757 38.8616H114.391C114.214 40.1952 113.179 41.0352 111.62 41.0352C109.52 41.0352 108.478 39.7016 108.478 38.2168C108.478 36.7321 109.524 35.3984 111.62 35.3984C112.888 35.3984 114.122 36.0211 114.299 37.1484H113.665H113.661Z" fill="white"/>
<path d="M114.641 35.5098H119.921V35.9482H117.6V40.9219H116.966V35.9482H114.645V35.5098H114.641Z" fill="white"/>
<path d="M123.336 35.3984C125.425 35.3984 126.471 36.7321 126.471 38.2168C126.471 39.7016 125.425 41.0352 123.336 41.0352C121.247 41.0352 120.193 39.7016 120.193 38.2168C120.193 36.7321 121.24 35.3984 123.336 35.3984ZM123.336 40.5968C125.09 40.5968 125.834 39.3995 125.834 38.2168C125.834 37.0342 125.086 35.8369 123.336 35.8369C121.586 35.8369 120.827 37.0342 120.827 38.2168C120.827 39.3995 121.575 40.5968 123.336 40.5968Z" fill="white"/>
<path d="M127.458 35.5098H130.509C131.6 35.5098 132.532 35.9408 132.532 36.9209C132.532 37.6098 132.093 38.1551 131.235 38.2987V38.3135C132.101 38.413 132.355 38.8809 132.403 39.533C132.432 39.9051 132.432 40.6566 132.712 40.9219H132.012C131.861 40.7156 131.861 40.3066 131.835 40.0819C131.787 39.323 131.695 38.483 130.502 38.5198H128.096V40.9219H127.462V35.5098H127.458ZM128.092 38.0777H130.461C131.235 38.0777 131.898 37.6835 131.898 37.024C131.898 36.3645 131.423 35.9482 130.461 35.9482H128.092V38.0777Z" fill="white"/>
<path d="M54.0655 28.3807L62.3222 5.33594H70.0037L78.2597 28.3807H70.7365L69.8416 25.3412H62.3181L61.4523 28.3807H54.0581H54.0655ZM66.1018 12.2807L63.766 20.5407H68.5334L66.1018 12.2807Z" fill="white"/>
<path d="M81.0483 28.3807V5.33594H88.601V23.0054H98.972V28.3844H81.0483V28.3807Z" fill="white"/>
<path d="M102.398 28.3807V5.33594H109.951V28.3807H102.398Z" fill="white"/>
<path d="M114.785 28.3807V5.33594H132.709V10.7149H122.338V14.9075H130.598V20.2865H122.338V28.3844H114.785V28.3807Z" fill="white"/>
</g>
<defs>
<clipPath id="clip0_302_2">
<rect width="133" height="48.6316" fill="white"/>
</clipPath>
</defs>
</svg>
