<svg width="176" height="34" viewBox="0 0 176 34" fill="none" xmlns="http://www.w3.org/2000/svg">
<g clip-path="url(#clip0_2216_3058)">
<path d="M137.872 30.8708C138.372 31.1886 138.963 31.446 139.615 31.673C140.266 31.8849 140.978 31.9908 141.72 31.9908C142.569 31.9908 143.235 31.8243 143.72 31.5065C144.19 31.1886 144.432 30.7043 144.432 30.0989C144.432 29.5994 144.25 29.2059 143.902 28.9183C143.554 28.6459 143.099 28.4188 142.569 28.2372C142.039 28.0556 141.463 27.9042 140.842 27.768C140.221 27.6318 139.645 27.4199 139.115 27.1626C138.585 26.9053 138.145 26.542 137.782 26.1031C137.418 25.649 137.251 25.0436 137.251 24.2717C137.251 23.7117 137.357 23.2273 137.585 22.7884C137.812 22.3495 138.115 21.9862 138.509 21.6684C138.903 21.3657 139.372 21.1235 139.918 20.957C140.463 20.7905 141.054 20.7148 141.69 20.7148C142.387 20.7148 143.099 20.8057 143.811 20.957C144.144 21.0327 144.463 21.1084 144.781 21.2295C145.538 21.5322 145.599 22.1981 145.417 22.5614C145.235 22.9246 145.099 23.1668 145.099 23.1668C144.599 22.8944 144.038 22.6825 143.432 22.5311C142.826 22.3798 142.236 22.2889 141.69 22.2889C140.933 22.2889 140.327 22.4554 139.872 22.7884C139.418 23.1214 139.19 23.5906 139.19 24.1809C139.19 24.6804 139.372 25.0739 139.721 25.3463C140.069 25.6188 140.524 25.8307 141.054 25.9972C141.584 26.1636 142.16 26.315 142.781 26.4512C143.402 26.5874 143.963 26.7842 144.508 27.0415C145.038 27.2988 145.478 27.6621 145.841 28.1161C146.205 28.5702 146.371 29.2059 146.371 29.9929C146.371 31.1281 145.962 32.006 145.144 32.6417C144.326 33.2622 143.19 33.5801 141.751 33.5801C140.827 33.5801 139.978 33.459 139.19 33.2319C138.842 33.126 138.494 33.0049 138.175 32.8687C137.66 32.6568 137.221 32.006 137.569 31.4308C137.721 31.0978 137.872 30.8708 137.872 30.8708Z" fill="white"/>
<path d="M71.35 33.2922C71.35 33.2922 65.8508 18.7166 65.5478 17.8993C65.1993 16.9609 65.0933 16.6885 64.2601 16.6885C64.2146 16.6885 63.6238 16.6885 63.5632 16.6885C62.6845 16.6885 62.5482 16.9004 62.1846 17.9296C61.8664 18.8075 56.3672 33.3073 56.3672 33.3073C56.3672 33.3073 57.2307 33.3073 57.3064 33.3073C58.0942 33.3073 58.7002 33.0046 59.1547 31.7635C59.2607 31.4759 60.0485 29.2207 60.0485 29.2207L60.6242 27.6315H67.093L67.6687 29.2207C67.6687 29.2207 68.4565 31.4759 68.5625 31.7635C69.017 33.0197 69.623 33.3073 70.4108 33.3073C70.4714 33.3073 71.35 33.3073 71.35 33.2922C71.35 33.2922 71.35 33.3073 71.35 33.2922ZM63.8207 18.7469H63.8662L66.4264 25.906H61.2756L63.8207 18.7469Z" fill="white"/>
<path d="M97.0282 24.0139C96.8161 23.3479 96.5131 22.7577 96.1041 22.2582C95.6951 21.7587 95.1648 21.3803 94.5437 21.0927C93.9074 20.8203 93.1651 20.6841 92.2864 20.6841C91.4532 20.6841 90.6654 20.8354 89.9534 21.1381C89.2262 21.4409 88.6051 21.8647 88.09 22.4095C87.5749 22.9544 87.1507 23.6204 86.8629 24.4074C86.5599 25.1945 86.4084 26.0572 86.4084 27.0259C86.4084 29.0843 86.9235 30.6887 87.9688 31.8693C88.999 33.0347 90.4685 33.625 92.347 33.625C93.1954 33.625 94.0135 33.4888 94.8013 33.2315C95.1951 33.0952 95.286 33.0498 95.6345 32.8833C96.0587 32.6714 96.6798 32.0358 96.2707 31.1882L96.0435 30.8249C95.5436 31.1579 94.9679 31.4303 94.3619 31.6574C93.7408 31.8844 93.1045 31.9903 92.4379 31.9903C91.0896 31.9903 90.0898 31.5817 89.4232 30.7492C88.8172 30.0076 88.4839 28.9632 88.393 27.6464C88.393 27.6464 96.2253 27.6464 96.4525 27.6464C97.0585 27.6464 97.1949 27.4194 97.2403 27.2378C97.2706 27.1318 97.3009 26.9502 97.3161 26.7383C97.3312 26.5264 97.3464 26.3448 97.3464 26.1934C97.3312 25.4064 97.2252 24.6799 97.0282 24.0139ZM89.7716 23.1814C90.4836 22.5306 91.332 22.1976 92.3167 22.1976C92.8924 22.1976 93.362 22.3036 93.7711 22.5003C94.165 22.6971 94.4983 22.9544 94.7407 23.2874C94.9982 23.6204 95.1648 24.0139 95.2709 24.468C95.3769 24.922 95.4224 25.3912 95.4224 25.9059H88.4233C88.6202 24.7404 89.0747 23.8323 89.7716 23.1814Z" fill="white"/>
<path d="M152.173 26.9805C152.173 26.0269 152.324 25.1642 152.627 24.3923C152.93 23.6204 153.339 22.9544 153.87 22.4095C154.4 21.8647 155.021 21.4409 155.748 21.1381C156.475 20.8354 157.263 20.6841 158.111 20.6841C158.96 20.6841 159.748 20.8354 160.475 21.1381C161.202 21.4409 161.823 21.8647 162.338 22.4095C162.853 22.9544 163.262 23.6204 163.565 24.3923C163.853 25.1642 164.005 26.0269 164.005 26.9805C164.005 27.9946 163.868 28.9027 163.58 29.72C163.293 30.5373 162.899 31.2184 162.384 31.7936C161.869 32.3687 161.247 32.8077 160.52 33.1104C159.793 33.4131 158.99 33.5796 158.127 33.5796C157.233 33.5796 156.43 33.4282 155.703 33.1104C154.976 32.8077 154.354 32.3687 153.824 31.7936C153.309 31.2184 152.9 30.5373 152.612 29.72C152.324 28.9178 152.173 27.9946 152.173 26.9805ZM154.173 26.9805C154.173 27.7373 154.263 28.4335 154.445 29.0389C154.627 29.6595 154.885 30.1892 155.233 30.6281C155.566 31.0671 155.991 31.4152 156.46 31.6422C156.945 31.8844 157.49 31.9903 158.111 31.9903C158.702 31.9903 159.233 31.8693 159.717 31.6422C160.202 31.4001 160.611 31.0671 160.944 30.6281C161.278 30.1892 161.55 29.6595 161.732 29.0389C161.914 28.4184 162.005 27.7373 162.005 26.9805C162.005 26.2691 161.914 25.6183 161.717 25.0431C161.52 24.468 161.263 23.9685 160.914 23.5598C160.566 23.1512 160.157 22.8333 159.687 22.6063C159.217 22.3793 158.687 22.2733 158.127 22.2733C157.551 22.2733 157.036 22.3793 156.551 22.6063C156.066 22.8333 155.657 23.1512 155.309 23.5598C154.96 23.9685 154.688 24.468 154.491 25.0431C154.279 25.6334 154.173 26.2691 154.173 26.9805Z" fill="white"/>
<path d="M82.394 18.2928C82.394 18.8377 82.8334 19.2767 83.3787 19.2767C83.9241 19.2767 84.3635 18.8377 84.3635 18.2928V17.6117C84.3635 17.0669 83.9241 16.6279 83.3787 16.6279C82.8334 16.6279 82.394 17.0669 82.394 17.6117V18.2928Z" fill="white"/>
<path d="M133.281 18.2928C133.281 18.8377 133.72 19.2767 134.266 19.2767C134.811 19.2767 135.25 18.8377 135.25 18.2928V17.6117C135.25 17.0669 134.811 16.6279 134.266 16.6279C133.72 16.6279 133.281 17.0669 133.281 17.6117V18.2928Z" fill="white"/>
<path d="M148.173 18.2928C148.173 18.8377 148.612 19.2767 149.158 19.2767C149.703 19.2767 150.142 18.8377 150.142 18.2928V17.6117C150.142 17.0669 149.703 16.6279 149.158 16.6279C148.612 16.6279 148.173 17.0669 148.173 17.6117V18.2928Z" fill="white"/>
<path d="M131.721 16.6885C131.721 16.6885 131.357 16.6885 131.024 16.6885C130.827 16.6885 130.63 16.6885 130.539 16.6885C129.918 16.6885 129.403 16.9761 128.933 18.2323C128.843 18.4745 124.358 31.0067 124.358 31.0067H124.313C124.313 31.0067 119.859 18.4745 119.768 18.2323C119.313 16.9761 118.798 16.6885 118.162 16.6885C118.071 16.6885 117.874 16.6885 117.677 16.6885C117.344 16.6885 116.98 16.6885 116.98 16.6885H116.965C116.965 16.6885 122.677 31.9754 122.798 32.3538C123.025 33.0349 123.419 33.2922 123.707 33.2922C123.98 33.2922 124.692 33.2922 124.692 33.2922C125.161 33.2922 125.479 33.1862 125.782 32.4446C126.07 31.703 131.736 16.6885 131.736 16.6885H131.721Z" fill="white"/>
<path d="M74.8945 15.3867H74.5915C73.5765 15.3867 72.9251 15.6743 72.9251 17.4754C72.9251 18.3684 72.9251 33.2921 72.9251 33.2921C72.9251 33.2921 73.3644 33.2921 73.9098 33.2921C74.4552 33.2921 74.8945 32.8532 74.8945 32.3083V15.3867Z" fill="white"/>
<path d="M79.6223 15.3867H79.3193C78.3043 15.3867 77.6528 15.6592 77.6528 17.3241C77.6528 18.1111 77.6528 33.2921 77.6528 33.2921C77.6528 33.2921 78.0922 33.2921 78.6376 33.2921C79.183 33.2921 79.6223 32.8532 79.6223 32.3083V15.3867Z" fill="white"/>
<path d="M84.0605 21.063C83.0757 21.063 82.4243 21.3354 82.394 22.8944V33.2925C82.394 33.2925 82.8334 33.2925 83.3787 33.2925C83.9241 33.2925 84.3635 32.8536 84.3635 32.3087V21.0479H84.0605V21.063Z" fill="white"/>
<path d="M134.932 21.063C133.948 21.063 133.296 21.3354 133.281 22.8944V33.2925C133.281 33.2925 133.72 33.2925 134.266 33.2925C134.811 33.2925 135.25 32.8536 135.25 32.3087V21.0479H134.932V21.063Z" fill="white"/>
<path d="M149.84 21.063C148.855 21.063 148.204 21.3354 148.189 22.8944V33.2925C148.189 33.2925 148.628 33.2925 149.173 33.2925C149.719 33.2925 150.158 32.8536 150.158 32.3087V21.0479H149.84V21.063Z" fill="white"/>
<path d="M176.048 24.6647C176.033 24.1501 175.957 23.6507 175.836 23.2117C175.7 22.682 175.457 22.2279 175.154 21.8647C174.836 21.4863 174.427 21.1987 173.942 21.0019C173.458 20.79 172.852 20.6992 172.155 20.6992C171.276 20.6992 170.488 20.896 169.776 21.2744C169.064 21.6528 168.443 22.122 167.928 22.6668L167.898 22.6366C167.776 21.456 167.322 21.0019 166.489 21.0019H165.974V33.3071C165.974 33.3071 166.413 33.3071 166.958 33.3071C167.504 33.3071 167.943 32.8682 167.943 32.3233V24.2409C168.443 23.6204 169.019 23.136 169.64 22.7879C170.261 22.4398 170.958 22.2733 171.715 22.2733C172.564 22.2733 173.17 22.5155 173.533 22.9998C173.882 23.4842 174.063 24.1199 174.063 24.922C174.063 25.0885 174.063 33.292 174.063 33.292C174.063 33.292 174.503 33.292 175.048 33.292C175.594 33.292 176.033 32.8531 176.033 32.3082V24.6647H176.048Z" fill="white"/>
<path d="M109.329 15.3867C108.314 15.3867 107.663 15.6743 107.663 17.4754C107.663 17.7176 107.663 21.7285 107.663 22.5761C107.163 22.0312 106.587 21.5923 105.936 21.229C105.284 20.8658 104.557 20.6993 103.754 20.6993C102.997 20.6993 102.315 20.8355 101.694 21.108C101.088 21.3804 100.558 21.7891 100.118 22.3339C99.6791 22.8788 99.3307 23.5296 99.1034 24.2864C98.861 25.0583 98.7398 25.9362 98.7398 26.9351C98.7398 29.0541 99.1792 30.6888 100.073 31.8391C100.952 32.9894 102.179 33.5645 103.724 33.5645C104.572 33.5645 105.33 33.3829 105.981 33.0348C106.602 32.7018 107.163 32.2477 107.663 31.718C107.663 32.6867 108.208 33.2769 108.814 33.2769C109.208 33.2769 109.632 33.2769 109.632 33.2769V15.3867H109.329ZM107.678 30.1893C107.178 30.7796 106.633 31.2185 106.057 31.5212C105.481 31.8239 104.86 31.9904 104.179 31.9904C103.042 31.9904 102.179 31.5364 101.588 30.6434C100.997 29.7504 100.709 28.5244 100.709 26.9503C100.709 25.467 101.012 24.3167 101.618 23.4994C102.224 22.6821 103.073 22.2734 104.163 22.2734C104.86 22.2734 105.497 22.4399 106.057 22.7729C106.618 23.1059 107.148 23.5448 107.663 24.1048C107.678 26.2238 107.678 28.4487 107.678 30.1893Z" fill="white"/>
<path d="M10.843 9.49928C13.2972 3.5056 17.5088 0.115234 22.8717 0.115234C25.6138 0.115234 30.81 0.115234 30.81 0.115234C29.9314 0.115234 28.6891 0.190912 26.553 4.95861C25.735 6.79002 17.1755 25.437 15.7211 28.4944C14.4637 31.128 12.3731 33.247 9.13108 33.247C7.32829 33.247 3.60151 33.247 -0.04953 33.247L10.843 9.49928Z" fill="#E42314"/>
<path d="M43.8086 24.3019C41.8998 28.8274 37.3246 33.247 33.0222 33.247C31.3103 33.247 28.2804 33.247 24.4324 33.247C26.6594 33.247 28.7803 27.7982 28.7803 27.7982C28.7803 27.7982 38.4457 6.48731 39.3547 4.54995C40.5818 1.90123 43.0966 0.130371 45.6569 0.130371C47.4596 0.130371 55.0344 0.130371 55.0344 0.130371L43.8086 24.3019Z" fill="#E42314"/>
<path d="M33.78 16.7795C35.0525 13.9945 36.3402 11.1491 37.3704 8.89386C36.5372 7.06246 35.8251 5.50349 35.5828 4.95861C34.4465 2.4007 33.4467 0.115234 30.7198 0.115234C30.0532 0.115234 29.1897 0.251454 27.9019 2.34016C27.9171 4.05048 28.5231 5.26132 29.326 6.9111C30.0683 8.43979 32.0378 12.8745 33.78 16.7795Z" fill="url(#paint0_linear_2216_3058)"/>
<path d="M27.4768 30.4467C27.598 29.3721 27.3102 28.4488 26.9769 27.7828C25.8104 25.4671 23.038 20.1545 21.2049 16.6279C19.9172 19.4431 18.6143 22.2584 17.5842 24.4833C18.8719 27.0412 20.0081 29.251 20.4626 30.1137C21.5685 32.2024 23.1895 33.2014 24.4621 33.2316C25.568 33.2165 26.6587 31.824 27.4768 30.4467Z" fill="url(#paint1_linear_2216_3058)"/>
</g>
<defs>
<linearGradient id="paint0_linear_2216_3058" x1="32.6287" y1="16.7769" x2="32.6287" y2="0.116688" gradientUnits="userSpaceOnUse">
<stop offset="0.17" stop-color="#C5220E"/>
<stop offset="0.4139" stop-color="#C2220D"/>
<stop offset="0.6098" stop-color="#B8200B"/>
<stop offset="0.7891" stop-color="#A71F08"/>
<stop offset="0.9574" stop-color="#8F1C03"/>
<stop offset="1" stop-color="#881B02"/>
</linearGradient>
<linearGradient id="paint1_linear_2216_3058" x1="22.5373" y1="16.638" x2="22.5373" y2="33.244" gradientUnits="userSpaceOnUse">
<stop offset="0.17" stop-color="#C5220E"/>
<stop offset="0.4139" stop-color="#C2220D"/>
<stop offset="0.6098" stop-color="#B8200B"/>
<stop offset="0.7891" stop-color="#A71F08"/>
<stop offset="0.9574" stop-color="#8F1C03"/>
<stop offset="1" stop-color="#881B02"/>
</linearGradient>
<clipPath id="clip0_2216_3058">
<rect width="176" height="33.337" fill="white" transform="translate(0 0.175781)"/>
</clipPath>
</defs>
</svg>
