<svg width="124" height="35" viewBox="0 0 124 35" fill="none" xmlns="http://www.w3.org/2000/svg">
<g clip-path="url(#clip0_2216_3039)">
<path d="M26.0945 17.2086V0.101074H21.4745V19.8221H21.5054L21.4745 19.8763L38.5512 29.7387L40.8631 25.7373L26.0945 17.2086Z" fill="white"/>
<path d="M15.2691 17.2086V0.101074H19.8891V19.8221H19.8582L19.8891 19.8763L2.81244 29.7387L0.500504 25.7373L15.2691 17.2086Z" fill="white"/>
<path d="M37.8746 30.7942L20.736 20.897L20.6471 21.0516L20.6278 21.0207L3.49316 30.9179L5.80124 34.9194L20.7902 26.267L35.5626 34.7957L37.8746 30.7942Z" fill="white"/>
<path d="M53.6405 1.62842L57.0813 18.044H53.1688L52.7938 15.1714H49.8671L49.4921 18.044H45.6376L49.0166 1.62842H53.6405ZM51.3092 4.98421L50.3001 11.951H52.3569L51.3479 4.98421H51.3092Z" fill="white"/>
<path d="M61.3693 1.62842V14.549H65.8965V18.044H57.6965V1.62842H61.3731H61.3693Z" fill="white"/>
<path d="M70.5157 1.62842V14.549H75.0429V18.044H66.8429V1.62842H70.5196H70.5157Z" fill="white"/>
<path d="M79.5282 1.62842V18.044H75.8515V1.62842H79.5282Z" fill="white"/>
<path d="M88.0682 1.62842L91.509 18.044H87.5965L87.2215 15.1714H84.2948L83.9198 18.044H80.0653L83.4443 1.62842H88.0682ZM85.7369 4.98421L84.7278 11.951H86.7846L85.7756 4.98421H85.7369Z" fill="white"/>
<path d="M96.2297 1.62842L98.5997 11.7422H98.6383V1.62842H102.075V18.044H98.043L95.5918 7.90699H95.5532V18.044H92.1123V1.62842H96.222H96.2297Z" fill="white"/>
<path d="M109.212 4.70972C109.053 4.37337 108.798 4.20326 108.443 4.20326C108.164 4.20326 107.944 4.28831 107.781 4.45456C107.615 4.62467 107.492 4.92236 107.406 5.3515C107.321 5.78064 107.263 6.36055 107.24 7.08738C107.213 7.81421 107.202 8.73048 107.202 9.83619C107.202 10.9419 107.213 11.8543 107.24 12.585C107.267 13.3118 107.321 13.8918 107.406 14.3209C107.492 14.75 107.615 15.0477 107.781 15.2178C107.948 15.3879 108.168 15.4691 108.443 15.4691C108.667 15.4691 108.852 15.4034 108.995 15.272C109.139 15.1405 109.251 14.924 109.332 14.6186C109.409 14.3132 109.467 13.9033 109.498 13.3892C109.529 12.875 109.548 12.2293 109.548 11.4484H113.105V12.6662C113.105 13.8144 112.974 14.7578 112.711 15.4923C112.448 16.2269 112.1 16.8068 111.663 17.2282C111.23 17.6496 110.731 17.9318 110.171 18.0788C109.61 18.2257 109.034 18.2953 108.443 18.2953C107.414 18.2953 106.571 18.1483 105.914 17.8584C105.257 17.5684 104.743 17.0813 104.372 16.397C104.004 15.7166 103.749 14.8351 103.61 13.7526C103.471 12.6701 103.401 11.3672 103.401 9.83233C103.401 8.29748 103.482 6.94434 103.649 5.85409C103.815 4.76771 104.093 3.88624 104.488 3.20967C104.882 2.53696 105.404 2.04983 106.049 1.74827C106.695 1.45058 107.492 1.2998 108.443 1.2998C109.274 1.2998 109.977 1.42352 110.557 1.66709C111.137 1.91065 111.609 2.26247 111.972 2.7148C112.336 3.16714 112.599 3.71226 112.761 4.34631C112.927 4.98421 113.008 5.69945 113.008 6.49587V7.53199H109.452V6.61185C109.452 5.67625 109.374 5.04221 109.216 4.70199L109.212 4.70972Z" fill="white"/>
<path d="M122.79 1.62842V5.12339H118.104V7.92632H122.492V11.2821H118.104V14.5451H122.968V18.0401H114.432V1.62842H122.79Z" fill="white"/>
<path d="M48.8965 21.8828L49.6542 26.6149H49.6736L50.4313 21.8828H53.1183V29.8741H51.3592V23.9203H51.3399L50.3386 29.8741H48.9854L47.9841 23.9203H47.9648V29.8741H46.2057V21.8828H48.8926H48.8965Z" fill="white"/>
<path d="M66.3946 21.8828V23.5839H64.0014V24.9486H66.2438V26.584H64.0014V28.173H66.4874V29.8741H62.1225V21.8828H66.3946Z" fill="white"/>
<path d="M77.9697 21.8828L78.7275 26.6149H78.7468L79.5046 21.8828H82.1915V29.8741H80.4324V23.9203H80.4131L79.4118 29.8741H78.0586L77.0573 23.9203H77.038V29.8741H75.2789V21.8828H77.9659H77.9697Z" fill="white"/>
<path d="M91.1145 23.9709C91.2035 23.4451 91.3465 23.0159 91.5475 22.6834C91.7486 22.351 92.0153 22.1074 92.344 21.9566C92.6726 21.802 93.0785 21.7285 93.5579 21.7285C94.0373 21.7285 94.4394 21.8058 94.7719 21.9566C95.1044 22.1074 95.3673 22.351 95.5683 22.6834C95.7693 23.0159 95.9163 23.4451 96.0013 23.9709C96.0902 24.4967 96.1328 25.1346 96.1328 25.8807C96.1328 26.6269 96.0902 27.2609 96.0013 27.7906C95.9124 28.3164 95.7693 28.7455 95.5683 29.078C95.3673 29.4105 95.1005 29.6463 94.7719 29.7894C94.4433 29.9324 94.0373 30.002 93.5579 30.002C93.0785 30.002 92.6765 29.9324 92.344 29.7894C92.0153 29.6463 91.7486 29.4105 91.5475 29.078C91.3465 28.7455 91.1996 28.3164 91.1145 27.7906C91.0256 27.2648 90.9831 26.6269 90.9831 25.8807C90.9831 25.1346 91.0256 24.5005 91.1145 23.9709ZM92.9432 27.2145C92.9548 27.5702 92.9857 27.8524 93.0283 28.0612C93.0708 28.27 93.1365 28.4169 93.2216 28.4981C93.3066 28.5793 93.4188 28.6218 93.5618 28.6218C93.7048 28.6218 93.817 28.5793 93.902 28.4981C93.9871 28.4169 94.0489 28.27 94.0953 28.0612C94.1378 27.8524 94.1688 27.5702 94.1804 27.2145C94.192 26.8589 94.1997 26.4143 94.1997 25.8769C94.1997 25.3395 94.192 24.8949 94.1804 24.5392C94.1649 24.1835 94.1378 23.9013 94.0953 23.6925C94.0528 23.4837 93.9871 23.3368 93.902 23.2556C93.817 23.1744 93.7048 23.1319 93.5618 23.1319C93.4188 23.1319 93.3066 23.1744 93.2216 23.2556C93.1365 23.3368 93.0747 23.4837 93.0283 23.6925C92.9857 23.9013 92.9548 24.1835 92.9432 24.5392C92.9278 24.8949 92.9239 25.3395 92.9239 25.8769C92.9239 26.4143 92.9316 26.8589 92.9432 27.2145Z" fill="white"/>
<path d="M107.936 21.8828C108.292 21.8828 108.597 21.9369 108.848 22.0413C109.1 22.1457 109.305 22.2926 109.463 22.482C109.622 22.6715 109.738 22.8996 109.807 23.1586C109.877 23.4215 109.911 23.7037 109.911 24.0091C109.911 24.5465 109.815 24.9795 109.618 25.3082C109.42 25.6368 109.107 25.8378 108.678 25.9113V25.9345C109.131 25.9809 109.44 26.1548 109.606 26.4603C109.776 26.7657 109.857 27.1871 109.857 27.7245V28.7297C109.857 28.8418 109.857 28.9462 109.869 29.0506C109.877 29.1511 109.884 29.2439 109.9 29.325C109.911 29.4062 109.931 29.472 109.95 29.5145C109.977 29.5609 110.004 29.6034 110.031 29.6421C110.058 29.6846 110.101 29.7233 110.163 29.7581V29.8702H108.164C108.118 29.7658 108.083 29.6421 108.06 29.499C108.036 29.356 108.021 29.2168 108.009 29.0738C107.998 28.9307 107.994 28.7954 107.99 28.6639C107.99 28.5325 107.986 28.4281 107.986 28.3469V27.8095C107.986 27.5853 107.975 27.3997 107.955 27.2489C107.936 27.0982 107.901 26.9822 107.851 26.8971C107.801 26.8121 107.735 26.7502 107.658 26.7193C107.58 26.6845 107.484 26.669 107.371 26.669H106.877V29.8702H104.998V21.8789H107.936V21.8828ZM107.248 25.2618C107.518 25.2618 107.716 25.1728 107.843 24.9989C107.971 24.8249 108.036 24.5929 108.036 24.3107C108.036 23.9743 107.975 23.7346 107.851 23.5955C107.727 23.4524 107.522 23.3828 107.24 23.3828H106.877V25.2618H107.252H107.248Z" fill="white"/>
<path d="M118.163 21.8828H120.192L120.9 24.6703H120.919L121.627 21.8828H123.687L121.847 26.7271V29.8702H119.968V26.7271L118.159 21.8828H118.163Z" fill="white"/>
</g>
<defs>
<clipPath id="clip0_2216_3039">
<rect width="123.186" height="35" fill="white" transform="translate(0.500412)"/>
</clipPath>
</defs>
</svg>
