<svg width="95" height="50" viewBox="0 0 95 50" fill="none" xmlns="http://www.w3.org/2000/svg">
<path d="M12.7015 48.9126C12.9716 48.7505 13.0257 48.3181 13.0257 47.5614V36.3731C13.0257 35.9947 13.0257 35.7245 12.7555 35.5083H14.3229V48.1019C14.3229 48.2641 14.3229 48.4262 14.3769 48.5342C14.431 48.6423 14.5391 48.8045 14.6472 48.8586L12.7015 48.9126Z" fill="white"/>
<path d="M15.8351 48.9126C16.1053 48.7505 16.1594 48.3181 16.1594 47.5614V36.3731C16.1594 35.9947 16.1594 35.7245 15.8892 35.5083H17.5107V48.1019C17.5107 48.2641 17.5107 48.4262 17.5646 48.5342C17.6187 48.6423 17.7268 48.8045 17.8349 48.8586L15.8351 48.9126Z" fill="white"/>
<path d="M19.1326 48.9125C19.4029 48.7503 19.457 48.318 19.457 47.5613V40.5347C19.457 40.1565 19.457 39.8862 19.1867 39.6699H20.7541V48.1017C20.7541 48.2639 20.7541 48.4261 20.8082 48.5341C20.8623 48.6422 20.9704 48.8044 21.0785 48.8584H19.1326V48.9125Z" fill="white"/>
<path d="M20.9711 37.3996C20.9711 37.5618 20.917 37.724 20.8089 37.8862C20.7008 38.0482 20.5927 38.1563 20.4306 38.2104C20.2685 38.2644 20.1063 38.3185 19.9441 38.2644C19.7821 38.2104 19.6199 38.1563 19.5118 38.0482C19.4036 37.9402 19.2955 37.778 19.2955 37.6159C19.2415 37.4537 19.2955 37.2915 19.3496 37.1295C19.4036 36.9673 19.5118 36.8592 19.6739 36.751C19.7821 36.6429 19.9982 36.5889 20.1603 36.5889C20.2685 36.5889 20.3766 36.5889 20.4847 36.6429C20.5927 36.697 20.7008 36.751 20.7549 36.8051C20.8089 36.8592 20.917 36.9673 20.917 37.0754C20.917 37.1835 20.9711 37.2915 20.9711 37.3996Z" fill="white"/>
<path d="M80.9648 48.9125C81.2891 48.7503 81.2891 48.318 81.2891 47.5613V40.5347C81.2891 40.1565 81.2891 39.8862 80.9648 39.6699H82.5863V48.1017C82.5863 48.2639 82.5863 48.4261 82.6404 48.5341C82.6944 48.6422 82.8025 48.8044 82.9107 48.8584H80.9648V48.9125Z" fill="white"/>
<path d="M82.8043 37.3996C82.8043 37.5618 82.7502 37.724 82.6421 37.8862C82.534 38.0482 82.4259 38.1563 82.2637 38.2104C82.1017 38.2644 81.9395 38.3185 81.7773 38.2644C81.6151 38.2104 81.4529 38.1563 81.345 38.0482C81.2368 37.9402 81.1287 37.778 81.1287 37.6159C81.1287 37.4537 81.1287 37.2915 81.1828 37.1295C81.2368 36.9673 81.345 36.8592 81.507 36.751C81.6692 36.6429 81.8314 36.5889 81.9935 36.5889C82.1017 36.5889 82.2096 36.5889 82.3178 36.6429C82.4259 36.697 82.534 36.751 82.5881 36.8051C82.6421 36.8592 82.7502 36.9673 82.7502 37.0754C82.8043 37.1835 82.8043 37.2915 82.8043 37.3996Z" fill="white"/>
<path d="M40.9141 45.9398C40.9141 46.3721 40.9141 46.9668 41.1302 47.1288C40.7519 47.2369 40.3735 47.3991 40.0493 47.6694C38.7521 48.4261 37.9954 49.1828 36.3199 49.1828C35.6713 49.1828 35.0227 49.0747 34.4281 48.8584C33.8335 48.6422 33.2931 48.2639 32.8067 47.8315C32.3201 47.3991 31.9959 46.8586 31.7256 46.264C31.4553 45.6695 31.3472 45.0209 31.2933 44.3723C31.2933 44.3183 31.2933 44.2642 31.2933 44.2101C31.2933 41.3996 33.6714 39.3998 36.3739 39.3998C37.6711 39.3998 38.7521 39.6699 39.4548 40.751L39.5088 40.6969V36.1027C39.5088 35.9946 39.4548 35.8324 39.4007 35.7244C39.3467 35.6163 39.2386 35.5082 39.1304 35.4541H40.806L40.9141 45.9398ZM39.6168 42.1563C38.644 41.1833 37.9954 40.6429 36.2118 40.6429C35.7794 40.6429 35.2929 40.751 34.8605 40.9132C34.4281 41.0752 34.0498 41.3455 33.7254 41.6699C33.4012 41.9941 33.1309 42.3725 32.9687 42.8049C32.8067 43.2373 32.6986 43.7237 32.6986 44.1561V44.3183C32.7526 45.2912 33.1309 46.2101 33.8335 46.8586C34.5362 47.5072 35.4551 47.8855 36.3739 47.8855C38.0494 47.8855 38.9683 46.8586 39.6709 46.4262L39.6168 42.1563Z" fill="white"/>
<path d="M49.7256 48.21C49.7256 48.4262 49.8337 48.6964 49.9417 48.8586H48.1041C48.2662 48.6964 48.3203 48.4262 48.3203 48.21V36.8055H46.2122C46.0502 36.8055 45.888 36.8055 45.7799 36.8595C45.6177 36.9136 45.5096 37.0217 45.4016 37.1298V35.5083H52.6983V37.1298C52.5902 37.0217 52.4821 36.9136 52.3199 36.8055C52.1577 36.7514 51.9957 36.6973 51.8335 36.7514H49.7256V48.21Z" fill="white"/>
<path d="M61.3459 48.9126C61.6702 48.7505 61.6702 48.3181 61.6702 47.5614V36.3731C61.6702 35.9947 61.6702 35.7245 61.4 35.5083H62.9673V48.1019C62.9673 48.2641 62.9673 48.4262 63.0214 48.5342C63.0754 48.6423 63.1836 48.8045 63.2917 48.8586L61.3459 48.9126Z" fill="white"/>
<path d="M78.8032 41.2914C78.3166 40.913 77.7762 40.6428 77.1276 40.6428C76.3168 40.6428 75.6683 40.913 75.6683 41.8318C75.6683 43.9397 79.668 42.8588 79.668 46.318C79.668 46.6964 79.6139 47.0747 79.4517 47.399C79.2896 47.7232 79.1274 48.0476 78.8572 48.3179C78.5869 48.5881 78.2626 48.8043 77.9384 48.9665C77.614 49.1285 77.2357 49.1826 76.8573 49.1826H76.7492C76.2087 49.1826 75.7223 49.1285 75.1819 49.0205C74.9116 48.9124 74.6413 48.8584 74.3711 48.8584C74.317 48.8584 74.263 48.9124 74.1549 48.9124C74.1008 48.9665 74.0467 49.0205 73.9927 49.0746V46.8045C74.317 47.1287 74.6413 47.4531 75.0737 47.6151C75.5061 47.8314 75.9386 47.9395 76.3709 47.9395C77.3438 47.9395 78.3166 47.6692 78.3166 46.5342C78.3166 43.8857 74.317 45.183 74.317 41.8859C74.317 40.3725 75.452 39.4536 76.9114 39.4536C77.4519 39.4536 78.0465 39.6158 78.3166 39.6158C78.3707 39.6158 78.4788 39.6158 78.5329 39.5617C78.5869 39.5077 78.641 39.5077 78.7491 39.4536L78.8032 41.2914Z" fill="white"/>
<path d="M89.128 41.2914C88.6416 40.859 88.101 40.6428 87.4524 40.6428C86.6417 40.6428 85.9931 40.913 85.9931 41.8318C85.9931 43.9397 89.9928 42.8588 89.9928 46.318C89.9928 46.6964 89.9388 47.0747 89.7766 47.399C89.6144 47.7232 89.4524 48.0476 89.1821 48.3179C88.9118 48.5881 88.5876 48.8043 88.2632 48.9665C87.939 49.1285 87.5606 49.1826 87.1823 49.1826H87.1282C86.5876 49.1826 86.1012 49.1285 85.5608 49.0205C85.2905 48.9124 85.0203 48.8584 84.75 48.8584C84.6959 48.8584 84.6419 48.9124 84.5338 48.9124C84.4256 48.9124 84.4256 49.0205 84.3716 49.0746V46.8045C84.6959 47.1287 85.0202 47.4531 85.4526 47.6151C85.885 47.8314 86.3175 47.9395 86.7498 47.9395C87.7227 47.9395 88.6957 47.6692 88.6957 46.5342C88.6957 43.8857 84.6959 45.183 84.6959 41.8859C84.6959 40.3725 85.8309 39.4536 87.2903 39.4536C87.8309 39.4536 88.4254 39.6158 88.6957 39.6158C88.7496 39.6158 88.8577 39.6158 88.9118 39.5617C88.9658 39.5077 89.0199 39.5077 89.128 39.4536V41.2914Z" fill="white"/>
<path d="M31.2944 41.1834L24.3759 47.0748C25.8353 48.372 27.8351 48.318 29.4025 47.0208C29.8349 46.6965 30.2133 46.3181 30.5377 45.8858V47.7775L30.2133 48.0477C28.0513 49.8854 24.9164 49.9394 23.0788 47.7234C21.241 45.5074 21.6734 42.4806 23.8894 40.6429C26.2136 38.6971 29.3485 39.2377 30.8078 41.0212C30.97 41.0753 31.1322 41.1293 31.2944 41.1834ZM24.7002 41.5078C24.0516 41.9942 23.5652 42.7509 23.3489 43.5616C23.1327 44.3724 23.2408 45.2912 23.5652 46.0479L29.2404 41.1834C27.8351 40.1564 26.1054 40.3186 24.7002 41.5078Z" fill="white"/>
<path d="M60.3732 41.1832L53.4548 47.0746C54.9142 48.3719 56.9141 48.3179 58.4815 47.0206C58.9139 46.6963 59.2923 46.3179 59.6165 45.8315V47.7232L59.2923 47.9935C57.1302 49.8313 53.9954 49.8853 52.1577 47.6691C50.32 45.4531 50.7524 42.4263 52.9144 40.5887C55.2385 38.6429 58.3734 39.1834 59.8328 40.967C59.9949 41.021 60.211 41.1291 60.3732 41.1832ZM53.7792 41.5076C53.1306 42.048 52.6441 42.7507 52.428 43.6155C52.2117 44.4803 52.3198 45.3451 52.6441 46.1018L58.3734 41.2373C56.9141 40.1563 55.1845 40.3184 53.7792 41.5076Z" fill="white"/>
<path d="M73.6696 41.1832L66.6973 47.0746C68.1566 48.3719 70.1564 48.3179 71.7239 47.0206C72.1562 46.6963 72.5346 46.2639 72.8588 45.8315V47.7232L72.5346 47.9935C70.3726 49.8313 67.2377 49.8853 65.4 47.6691C63.5623 45.4531 63.9947 42.4263 66.1567 40.5887C68.4808 38.6429 71.6157 39.1834 73.0751 40.967C73.2913 41.021 73.5074 41.1291 73.6696 41.1832ZM67.0755 41.5076C66.427 42.048 65.9406 42.7507 65.7243 43.6155C65.5081 44.4262 65.6162 45.3451 65.9406 46.1018L71.6698 41.2373C70.2105 40.1563 68.4808 40.3184 67.0755 41.5076Z" fill="white"/>
<path d="M3.45892 45.2374L2.26974 48.1561C2.21568 48.3183 2.16162 48.4803 2.10769 48.5884C2.10769 48.6965 2.16162 48.8047 2.26974 48.9128H0.215881C0.37806 48.8047 0.48618 48.6965 0.540239 48.4803L6.16136 35.1841H6.21541L12.1068 48.1561C12.2149 48.4262 12.3771 48.6425 12.5934 48.9128H10.3772C10.4853 48.8047 10.4853 48.7506 10.5394 48.5884C10.4853 48.4262 10.4313 48.2642 10.3772 48.1561L9.18815 45.2374H3.45892ZM8.64769 43.9401L6.21541 38.2109L3.89126 43.8862L8.64769 43.9401Z" fill="white"/>
<path d="M91.1809 37.0755H90.5323V38.9131H90.1539V37.0755H89.5053V36.8052H91.1809V37.0755ZM93.9374 38.9672H93.6132V37.1835L92.9104 38.9672H92.6943L91.9916 37.1835V38.9672H91.6673V36.8592H92.2077L92.8565 38.4808L93.505 36.8592H93.9914V38.9672H93.9374Z" fill="white"/>
<path d="M39.186 1.07812L48.5367 29.6704H34.8621L33.0245 22.9682L23.9441 29.6704H0L39.186 1.07812Z" fill="white"/>
<path d="M41.6722 1.02426L45.4017 12.699H48.7527L46.3745 15.5097L50.9687 29.6167L65.0217 12.6449H67.8324L77.5613 0.970215C77.6154 1.07832 41.6722 1.07832 41.6722 1.02426Z" fill="white"/>
<path d="M56.4281 29.6706L72.1566 10.645C71.3999 14.6988 73.1295 18.4823 76.4806 21.2929C79.8317 24.1034 84.534 25.4546 88.4256 23.5089L83.453 29.6706H56.4281Z" fill="white"/>
<path d="M91.0747 3.56453C89.2369 2.10518 87.0209 1.29443 84.6427 1.29443C82.2645 1.29443 80.0484 2.10518 78.2108 3.56453H91.0747Z" fill="#BE3A34"/>
<path d="M94.2622 8.15877C93.992 7.34801 93.6136 6.59131 93.1272 5.88867H76.2096C75.7231 6.59131 75.3448 7.40207 75.0745 8.15877H94.2622Z" fill="#BE3A34"/>
<path d="M94.7476 12.7529C94.8016 12.3746 94.8016 11.9962 94.8016 11.5638C94.8016 11.1854 94.8016 10.8071 94.7476 10.4287H74.5329C74.4789 10.8071 74.4789 11.1854 74.4789 11.5638C74.4789 11.9421 74.4789 12.3205 74.5329 12.7529H94.7476Z" fill="#BE3A34"/>
<path d="M93.1266 17.3472C93.613 16.6446 93.9914 15.8879 94.2616 15.0771H75.0199C75.2902 15.8879 75.6685 16.6446 76.1549 17.3472H93.1266Z" fill="#BE3A34"/>
<path d="M78.2628 19.6172C80.1005 21.0765 82.3166 21.8873 84.6407 21.8873C86.9649 21.8873 89.1809 21.0765 91.0185 19.6172H78.2628Z" fill="#BE3A34"/>
</svg>
