<svg width="136" height="53" viewBox="0 0 136 53" fill="none" xmlns="http://www.w3.org/2000/svg">
<path fill-rule="evenodd" clip-rule="evenodd" d="M52.6884 38.6231C50.1652 41.4098 47.0702 43.9429 43.4707 46.0187C29.5073 54.0805 13.3737 52.2757 7.43243 41.9865C1.4911 31.6973 7.99673 16.8216 21.9601 8.75985C34.9514 1.25986 49.8222 2.30394 56.6112 10.7759H59.4501C59.3382 10.5646 59.2313 10.3508 59.112 10.142C52.4672 -1.36775 34.4145 -3.38631 18.7955 5.63257C3.17406 14.649 -4.1022 31.2921 2.54264 42.8044C9.18748 54.3141 27.2377 56.3327 42.8591 47.3138C47.0628 44.8876 50.6574 41.9045 53.5411 38.6231H52.6884Z" fill="#0A5BA9"/>
<path d="M39.4041 25.639V17.6766L34.9544 25.639H39.4041ZM32.8016 29.4648L30.251 33.9395H23.5938L33.8506 16.8289C34.4348 15.8644 35.0066 15.1162 35.5634 14.5767C36.1202 14.0373 36.6348 13.6395 37.1072 13.3735C37.5795 13.11 37.9847 12.9484 38.3252 12.8913C38.6658 12.8341 38.902 12.8067 39.0362 12.8067H45.154V33.9395H39.2898V29.4648H32.8016Z" fill="#0A5BA9"/>
<path d="M52.7586 30.8921C52.6194 30.8921 52.525 30.8846 52.4603 30.8772C52.4728 30.8175 52.4926 30.7355 52.5324 30.6186L55.9704 20.4935H52.8382L49.5518 30.1761C49.1367 31.3967 49.169 32.3165 49.6512 32.9852C50.2678 33.8453 51.3939 33.9473 52.1894 33.9473H56.4154L57.452 30.8921H52.7586Z" fill="#0A5BA9"/>
<path d="M62.2836 30.8921C62.1444 30.8921 62.05 30.8846 61.9878 30.8772C61.9978 30.82 62.0201 30.7355 62.0574 30.6186L65.4954 20.4935H62.3657L59.0768 30.1761C58.6641 31.3967 58.6965 32.3165 59.1762 32.9852C59.7928 33.8453 60.9214 33.9473 61.7144 33.9473H65.9404L66.977 30.8921H62.2836Z" fill="#0A5BA9"/>
<path d="M81.6917 20.4983L78.9348 28.5452L77.6272 20.809L71.8873 28.8882L73.9779 20.4983H70.9874L67.6289 33.875L69.9035 33.7606C69.9781 33.7507 71.753 33.5046 73.0606 31.7296C73.2048 31.5333 74.5969 29.9224 75.8026 28.5303C76.0636 29.4426 76.4067 30.6806 76.5881 31.5432C77.0928 33.5145 78.8602 34.1559 79.7229 34.218L80.2598 34.2578L84.7518 20.4983H81.6917Z" fill="#0A5BA9"/>
<path d="M88.5482 20.6539L84.0288 33.9609H87.1586L91.6755 20.6539H88.5482Z" fill="#0A5BA9"/>
<path d="M109.291 20.4289L109.017 21.2318C108.485 22.8005 107.951 24.3666 107.411 25.9352C107.225 26.4821 107.041 27.0265 106.855 27.5734L105.562 23.0863C105.507 22.7085 105.353 22.2088 105.08 21.7464L105.077 21.7415C104.662 21.0454 103.966 20.4289 102.877 20.4289H102.385L102.228 20.8938C102.213 20.931 102.017 21.5128 101.716 22.3977C101.316 23.5785 100.913 24.7569 100.508 25.9352C100.322 26.4821 100.135 27.0265 99.9487 27.5734L98.6585 23.0863C98.5168 22.1367 97.7884 20.4289 95.9737 20.4289H95.4815L95.3224 20.8938C95.2652 21.0628 91.2604 32.8609 91.2604 32.8609L90.9497 33.7683H94.0969L94.3529 33.0126C94.8675 31.5011 95.3796 29.9773 95.8917 28.4559C96.0607 27.9537 96.2323 27.4491 96.4013 26.947C96.9954 28.9332 97.607 31.0338 97.6592 31.3843C97.7437 31.961 97.9351 32.4184 98.1936 32.7739C98.743 33.5346 99.5932 33.8379 100.364 33.8379C100.476 33.8379 100.538 33.8304 100.538 33.8304L100.983 33.7832L100.99 33.7658L101.003 33.7683L101.259 33.0126C101.773 31.5011 102.285 29.9773 102.798 28.4559C102.85 28.2993 102.902 28.1427 102.957 27.9861L103.307 26.9519C103.901 28.9357 104.513 31.0338 104.565 31.3843C104.831 33.1916 106.134 33.8379 107.267 33.8379C107.379 33.8379 107.444 33.8304 107.444 33.8304L107.889 33.7832L112.433 20.4214L109.291 20.4289Z" fill="#0A5BA9"/>
<path d="M117.386 24.6169C117.542 24.2913 117.734 24.0427 117.96 23.8712C118.169 23.7121 118.415 23.63 118.668 23.63L123.029 23.6275L124.06 20.5922L119.238 20.5773C118.176 20.5773 117.154 20.9254 116.287 21.5816C115.347 22.2951 114.641 23.3317 114.253 24.5647L112.399 30.0213C111.904 31.5974 112.257 32.5445 112.637 33.0641C112.981 33.5339 113.674 34.0957 115.017 34.0957H119.481L120.508 31.053L115.586 31.0405C115.419 31.0405 115.345 31.0082 115.335 30.9983C115.322 30.9809 115.295 30.8814 115.33 30.6801C115.345 30.6105 115.365 30.5384 115.399 30.4116L115.971 28.7237H121.306L122.342 25.671H117.008L117.239 24.9923C117.281 24.8581 117.333 24.7313 117.386 24.6169Z" fill="#0A5BA9"/>
<path d="M132.412 24.7746C132.225 25.329 131.858 25.7889 131.457 25.9803C130.91 26.2338 130.115 26.2686 129.486 26.2686C129.322 26.2686 129.15 26.2637 128.974 26.2612L129.861 23.6485C130.239 23.6261 130.605 23.6112 130.953 23.6112C131.803 23.6112 132.22 23.7206 132.402 23.7927C132.481 23.9393 132.559 24.3495 132.412 24.7746ZM134.478 21.1775C133.794 20.7549 132.857 20.5585 131.522 20.5585C130.995 20.5585 130.388 20.5883 129.809 20.6231L129.041 20.6704H127.741L123.207 34.0272H126.336L127.94 29.3064C128.27 29.3213 128.601 29.3363 128.939 29.3363L130.301 34.0918H134.085L132.173 28.7595C132.243 28.7297 132.312 28.7023 132.387 28.67C133.732 27.9889 134.91 26.6366 135.395 25.2171C135.982 23.4844 135.611 21.8611 134.478 21.1775Z" fill="#0A5BA9"/>
</svg>
