<svg width="256" height="34" viewBox="0 0 256 34" fill="none" xmlns="http://www.w3.org/2000/svg">
<g clip-path="url(#clip0_154_2)">
<path d="M32.3191 33.5375H5.16531C1.33205 33.5375 -1.16499 29.5026 0.551956 26.0725L14.127 2.89747C16.0268 -0.905929 21.4539 -0.905929 23.3537 2.89747L36.9288 26.0725C38.642 29.5026 36.1487 33.5375 32.3154 33.5375H32.3191Z" fill="url(#paint0_linear_154_2)"/>
<path d="M23.3539 2.89747C21.4541 -0.905929 16.027 -0.905929 14.1272 2.89747L0.552139 26.0725C-1.12748 29.428 1.22772 33.362 4.92288 33.53C6.44573 33.4889 7.84915 32.7014 8.6703 31.4137L19.9424 13.7553C20.9763 12.1354 22.7679 11.1537 24.6901 11.1537C26.1831 11.1537 27.6164 11.7472 28.6727 12.8035L29.8372 13.968L23.3539 2.89747Z" fill="url(#paint1_linear_154_2)"/>
<path d="M36.9331 26.0713L36.7166 25.7017C36.0672 24.5932 35.2684 23.5817 34.3428 22.6896C33.5328 21.9095 32.4541 21.4766 31.3306 21.4766C29.9944 21.4766 28.7291 22.0924 27.9042 23.1487L21.7792 30.9907C20.6035 32.4949 18.8007 33.3757 16.8896 33.3757L16.9158 33.54H32.316C36.1493 33.54 38.6463 29.5051 36.9294 26.075L36.9331 26.0713Z" fill="#01AFC8"/>
<path d="M55.7333 9.08789H53.6916L47.0366 26.7724H50.2316L51.6612 22.6293H58.5066L59.9361 26.7724H63.1423L56.4612 9.08789H55.7333ZM52.4935 20.2144L55.0801 12.7121L57.6705 20.2144H52.4935Z" fill="white"/>
<path d="M68.1735 9.08789H65.124V26.7724H67.3225H68.1735H76.202V24.3575H68.1735V9.08789Z" fill="white"/>
<path d="M88.7658 9.81199C87.8065 9.3305 86.642 9.08789 85.2722 9.08789H78.5537V26.7724H81.6032V20.1771H85.2722C86.642 20.1771 87.8065 19.9569 88.7658 19.5202C89.725 19.0835 90.4566 18.4564 90.9568 17.639C91.4569 16.8216 91.7107 15.84 91.7107 14.6978C91.7107 13.5557 91.4606 12.6487 90.9568 11.8014C90.4529 10.9541 89.725 10.2898 88.7658 9.80826V9.81199ZM88.3067 16.2991C88.0753 16.7581 87.7132 17.1165 87.2205 17.374C86.7279 17.6316 86.0784 17.7622 85.2759 17.7622H81.6069V11.5177H85.2759C86.0784 11.5177 86.7241 11.667 87.2205 11.9656C87.7132 12.2642 88.0753 12.6599 88.3067 13.1488C88.5381 13.6378 88.6538 14.1641 88.6538 14.7202C88.6538 15.3099 88.5381 15.8362 88.3067 16.2916V16.2991Z" fill="white"/>
<path d="M105.428 16.4745H97.4818V9.08789H94.436V26.7724H97.4818V18.8894H105.428V26.7724H108.463V9.08789H105.428V16.4745Z" fill="white"/>
<path d="M119.41 9.08789H117.368L110.713 26.7724H113.908L115.337 22.6293H122.183L123.612 26.7724H126.819L120.137 9.08789H119.41ZM116.166 20.2144L118.753 12.7121L121.343 20.2144H116.166Z" fill="white"/>
<path d="M141.965 22.3084L138.613 9.08789H137.897H136.792H136.049L132.66 22.286L129.891 9.08789H126.867L130.962 26.7724H132.007H133H133.925L137.333 13.9588L140.689 26.7724H141.614H142.611H143.652L147.747 9.08789H144.712L141.965 22.3084Z" fill="white"/>
<path d="M156.578 9.08789H154.536L147.881 26.7724H151.076L152.506 22.6293H159.351L160.781 26.7724H163.987L157.306 9.08789H156.578ZM153.338 20.2144L155.925 12.7121L158.519 20.2144H153.342H153.338Z" fill="white"/>
<path d="M171.179 23.0511L166.722 9.08789H163.367L169.686 26.7724H170.425H171.966H172.698L179.039 9.08789H175.673L171.179 23.0511Z" fill="white"/>
<path d="M184.068 24.3575V18.8558H191.368V16.4745H184.068V11.5177H192.533V9.08789H184.068H183.205H181.018V26.7724H183.205H184.068H192.592V24.3575H184.068Z" fill="white"/>
<path d="M212.393 18.625C211.9 18.1734 211.284 17.7628 210.552 17.397C209.821 17.0312 208.97 16.7065 208.007 16.4116C207.432 16.2325 206.924 16.0496 206.488 15.8667C206.051 15.6801 205.682 15.4822 205.383 15.2732C205.084 15.0642 204.857 14.8365 204.707 14.5939C204.558 14.3513 204.483 14.0788 204.483 13.7802C204.483 13.3846 204.588 13.0263 204.801 12.7053C205.01 12.3843 205.327 12.1305 205.749 11.9401C206.171 11.7498 206.697 11.6564 207.328 11.6564C207.958 11.6564 208.529 11.7684 208.962 11.9961C209.395 12.2238 209.72 12.5336 209.933 12.9255C210.146 13.3174 210.254 13.7728 210.254 14.2916H213.874C213.874 13.239 213.606 12.3022 213.068 11.4847C212.531 10.6673 211.773 10.0216 210.803 9.55505C209.832 9.08849 208.694 8.84961 207.391 8.84961C206.436 8.84961 205.558 8.96532 204.76 9.20046C203.961 9.43561 203.27 9.7678 202.688 10.2008C202.106 10.6337 201.65 11.1526 201.329 11.7572C201.005 12.3619 200.844 13.03 200.844 13.769C200.844 14.5081 201.001 15.1986 201.311 15.7734C201.621 16.3482 202.054 16.8521 202.599 17.285C203.143 17.718 203.778 18.0987 204.495 18.4197C205.211 18.7444 205.969 19.0356 206.771 19.2931C207.492 19.5208 208.078 19.7373 208.533 19.95C208.985 20.159 209.339 20.3718 209.589 20.5883C209.84 20.8048 210.011 21.0362 210.105 21.2937C210.198 21.5475 210.246 21.8349 210.246 22.1485C210.246 22.5441 210.146 22.9024 209.948 23.2159C209.75 23.5332 209.444 23.7796 209.037 23.955C208.626 24.1341 208.108 24.2237 207.477 24.2237C206.958 24.2237 206.484 24.1715 206.051 24.067C205.618 23.9624 205.245 23.7908 204.935 23.5556C204.622 23.3205 204.383 23.0144 204.211 22.6337C204.039 22.253 203.957 21.7864 203.957 21.2377H200.299C200.299 22.2343 200.505 23.0965 200.919 23.8243C201.333 24.5522 201.886 25.1531 202.576 25.6234C203.267 26.0937 204.039 26.4445 204.89 26.6722C205.741 26.9036 206.603 27.0194 207.477 27.0194C208.447 27.0194 209.328 26.9111 210.112 26.6909C210.896 26.4707 211.575 26.1534 212.139 25.7316C212.706 25.3099 213.139 24.7948 213.438 24.1901C213.736 23.5817 213.886 22.895 213.886 22.1261C213.886 21.3982 213.759 20.745 213.509 20.1702C213.259 19.5954 212.885 19.0804 212.393 18.6287V18.625Z" fill="#0089D1"/>
<path d="M219.995 19.0611H226.994V16.2916H219.995V11.9432H228.207V9.08789H219.995H218.805H216.353V26.7724H218.805H219.995H228.222V23.932H219.995V19.0611Z" fill="#0089D1"/>
<path d="M245.858 9.08789H244.182L239.64 22.0732L235.093 9.08789H233.418H232.01H230.346V26.7724H233.977V21.7448L233.615 13.5295L238.4 26.7724H240.879L245.66 13.5333L245.298 21.7448V26.7724H248.945V9.08789H247.265H245.858Z" fill="#0089D1"/>
<path d="M255.999 9.08789H252.367V26.7724H255.999V9.08789Z" fill="#0089D1"/>
</g>
<defs>
<linearGradient id="paint0_linear_154_2" x1="12.8617" y1="17.5251" x2="30.9157" y2="32.1228" gradientUnits="userSpaceOnUse">
<stop stop-color="#0479B8"/>
<stop offset="0.38" stop-color="#086594"/>
<stop offset="0.88" stop-color="#0F4961"/>
</linearGradient>
<linearGradient id="paint1_linear_154_2" x1="3.27312" y1="11.4561" x2="28.7025" y2="27.0728" gradientUnits="userSpaceOnUse">
<stop stop-color="#0479B8"/>
<stop offset="0.2" stop-color="#086194"/>
<stop offset="0.61" stop-color="#142941"/>
</linearGradient>
<clipPath id="clip0_154_2">
<rect width="256" height="33.4916" fill="white" transform="translate(0 0.046875)"/>
</clipPath>
</defs>
</svg>
