<svg width="159" height="19" viewBox="0 0 159 19" fill="none" xmlns="http://www.w3.org/2000/svg">
<g clip-path="url(#clip0_2216_3080)">
<path fill-rule="evenodd" clip-rule="evenodd" d="M64.7483 8.42291C65.6367 8.83339 66.3922 9.48458 66.9293 10.3026C67.3794 11.0584 67.6121 11.9238 67.6015 12.8034C67.6047 13.8841 67.2875 14.9415 66.6899 15.842C66.0624 16.7846 65.1715 17.5219 64.1282 17.962C62.7613 18.5486 61.2873 18.8446 59.7999 18.8312C56.7533 18.8312 54.6404 18.1387 53.5194 17.0177C52.5011 16.0014 51.8458 14.6781 51.6547 13.2521H56.1367C56.261 13.8078 56.5019 14.3308 56.8434 14.7864C57.2063 15.2401 57.6717 15.6012 58.2013 15.84C58.731 16.0788 59.3097 16.1885 59.89 16.16C60.7266 16.2067 61.5515 15.9463 62.2096 15.4277C62.4826 15.2109 62.7036 14.9357 62.8564 14.6224C63.0093 14.3091 63.0901 13.9655 63.093 13.6169C63.0888 13.2804 63.0112 12.9488 62.8656 12.6454C62.7201 12.3419 62.5101 12.0739 62.2503 11.86C61.2699 11.2029 60.1517 10.7798 58.9819 10.6233C57.0921 10.318 55.2998 9.5751 53.7482 8.45383C53.2777 8.06329 52.9023 7.57086 52.6502 7.01381C52.3982 6.45676 52.2761 5.84967 52.2933 5.23849C52.2942 4.36903 52.5557 3.5198 53.0442 2.80049C53.6119 1.97995 54.4093 1.34538 55.3364 0.97641C56.74 0.405623 58.2453 0.127288 59.7601 0.158443C61.5926 0.0718388 63.4075 0.54908 64.9603 1.52584C65.4816 1.91618 65.9203 2.40603 66.251 2.96704C66.5817 3.52805 66.7978 4.14908 66.8869 4.79418H62.4393C62.2686 4.2344 61.9434 3.73412 61.5012 3.35081C60.837 2.84643 60.0164 2.59189 59.1833 2.63178C58.4968 2.58978 57.8175 2.7919 57.2656 3.20241C57.038 3.38207 56.8539 3.61084 56.7271 3.87164C56.6003 4.13243 56.5341 4.41851 56.5333 4.70849C56.5372 4.95341 56.5964 5.19428 56.7063 5.41315C56.8163 5.63202 56.9743 5.82324 57.1685 5.97254C57.834 6.4222 58.5976 6.70573 59.3953 6.79934C61.2365 7.13133 63.0329 7.67617 64.7483 8.42291ZM0 18.3798L13.8878 0.60541H18.6639L4.77618 18.3798H0ZM18.3733 18.3798H7.84488L18.3733 4.90459V18.3798ZM45.8954 8.73384C45.1112 9.34665 44.1222 9.63588 43.1314 9.54209H41.113V3.56104H43.3646C43.8458 3.50713 44.3331 3.55818 44.7927 3.71068C45.2523 3.86317 45.6734 4.11349 46.027 4.44438C46.5343 5.03413 46.805 5.79105 46.7866 6.56879C46.7991 6.97212 46.7262 7.37353 46.5726 7.74666C46.419 8.1198 46.1882 8.45622 45.8954 8.73384ZM49.9083 2.10178C49.3236 1.56606 48.6347 1.15667 47.8847 0.899207C47.1346 0.641741 46.3395 0.541726 45.5491 0.60541H36.4234V18.3798H41.113V12.4836H44.9034C47.0993 12.4836 48.7361 11.9421 49.7679 10.8724C50.3093 10.2643 50.7242 9.55445 50.9885 8.78435C51.2529 8.01425 51.3613 7.19925 51.3075 6.38683C51.4204 4.83034 50.918 3.29172 49.9083 2.10178ZM87.4067 18.3798V0.60541H92.0822V14.8933H101.224V18.3807L87.4067 18.3798ZM124.011 18.3798H119.322V0.60541H124.011V18.3798ZM138.153 18.3798L130.152 6.64829V18.3798H125.824V0.60541H130.391L138.429 12.4191V0.60541H142.77V18.3798H138.153ZM144.586 0.60541V18.3798H159.387V15.2687H149.275V10.3503H158.391V7.66678H149.275V3.47183H159.103V0.60541H144.586ZM112.511 8.73208C111.727 9.34488 110.738 9.63411 109.747 9.54033H107.728V3.56104H109.975C110.456 3.50706 110.944 3.55808 111.404 3.71057C111.863 3.86306 112.285 4.11342 112.638 4.44438C113.146 5.03413 113.416 5.79105 113.398 6.56879C113.411 6.97186 113.339 7.37313 113.186 7.74626C113.033 8.11938 112.802 8.45594 112.51 8.73384L112.511 8.73208ZM116.521 2.10178C115.936 1.5668 115.247 1.15812 114.498 0.901263C113.748 0.644406 112.954 0.544893 112.164 0.608943H103.038V18.3798H107.727V12.4836H111.517C113.713 12.4836 115.35 11.9421 116.382 10.8724C116.924 10.2645 117.339 9.55483 117.604 8.78473C117.869 8.01462 117.978 7.19949 117.925 6.38683C118.037 4.82957 117.532 3.29072 116.521 2.10178ZM20.7919 0.60541V18.3798H34.6099V14.8933H25.4683V0.60541H20.7919ZM85.5932 0.60541H80.817L66.9293 18.3798H71.7064L80.9036 6.60678V18.3798H85.595L85.5932 0.60541Z" fill="#013399"/>
</g>
<defs>
<clipPath id="clip0_2216_3080">
<rect width="159" height="18.55" fill="white" transform="translate(0 0.158203)"/>
</clipPath>
</defs>
</svg>
