<svg width="95" height="30" viewBox="0 0 95 30" fill="none" xmlns="http://www.w3.org/2000/svg">
<mask id="mask0_10_2230" style="mask-type:luminance" maskUnits="userSpaceOnUse" x="2" y="2" width="90" height="25">
<path d="M91.9452 2.57996H2.27466V27H91.9452V2.57996Z" fill="white"/>
</mask>
<g mask="url(#mask0_10_2230)">
<path d="M15.7902 24.9808C14.6091 26.0974 13.2843 26.7058 11.7743 26.9029C7.93985 27.4022 4.29735 25.2757 2.95925 21.6162C1.63365 17.9893 2.19975 14.6425 4.93755 11.8335C7.46115 9.24473 11.5431 8.72163 14.518 10.485C14.9544 10.7436 15.3441 11.0644 15.7902 11.4586C15.7902 10.9807 15.8043 10.5695 15.785 10.1605C15.7739 9.92714 15.8502 9.87303 16.0755 9.87523C17.2973 9.88713 18.5198 9.88864 19.7424 9.87604C19.9824 9.87374 20.0254 9.95754 20.0254 10.1731C20.0202 15.5309 20.0202 20.8879 20.0254 26.2456C20.0254 26.479 19.9758 26.5642 19.7216 26.5613C18.4998 26.5479 17.2773 26.5516 16.0547 26.5613C15.848 26.5628 15.7761 26.5079 15.785 26.2945C15.8013 25.8915 15.7894 25.4869 15.7894 24.9801L15.7902 24.9808ZM6.54535 18.2131C6.52985 20.8916 8.46885 22.8818 11.1156 22.9032C13.8045 22.9247 15.7783 20.9538 15.7902 18.236C15.802 15.5538 13.8623 13.5688 11.2141 13.5533C8.50515 13.537 6.56095 15.4775 6.54535 18.2131Z" fill="#FBFCFC"/>
<path d="M51.2041 20.0876C49.254 20.0876 47.3031 20.0921 45.3529 20.0825C45.0558 20.081 44.958 20.1158 45.0995 20.4374C45.5967 21.5643 46.4139 22.3527 47.5839 22.7121C49.4155 23.2752 51.1663 23.1796 52.7157 21.8978C52.9846 21.6747 53.1891 21.3939 53.381 21.1079C53.4803 20.9605 53.5588 20.9501 53.707 21.0375C54.7473 21.6518 55.7891 22.2645 56.839 22.8625C57.0754 22.9973 56.9583 23.0973 56.8679 23.2329C55.8202 24.8097 54.4087 25.9263 52.6001 26.4886C49.9393 27.3163 47.3268 27.1607 44.8416 25.8692C42.5825 24.6948 41.2014 22.8025 40.6827 20.3196C40.1404 17.7211 40.4856 15.2537 42.0275 13.0383C43.4153 11.0444 45.3744 9.94258 47.7521 9.58768C49.9386 9.26098 52.0125 9.59588 53.873 10.8525C55.9551 12.2588 57.0939 14.2646 57.5066 16.7141C57.6763 17.7218 57.6518 18.7273 57.5051 19.7357C57.4658 20.0054 57.3747 20.0973 57.0909 20.0958C55.1282 20.0825 53.1654 20.0891 51.2026 20.0884L51.2041 20.0876ZM49.0798 16.4874C50.3624 16.4874 51.6443 16.4792 52.9268 16.4933C53.2239 16.4963 53.2447 16.4177 53.1632 16.1562C52.6608 14.5558 51.4079 13.5792 49.6 13.4006C47.5142 13.1954 45.6945 14.3038 45.0313 16.1636C44.9306 16.4466 44.9972 16.4948 45.2707 16.4926C46.5406 16.4822 47.8098 16.4881 49.0798 16.4874Z" fill="#FBFCFC"/>
<path d="M82.2113 14.0904C83.5606 15.4286 84.9084 16.7675 86.2609 18.1019C86.3649 18.2041 86.3678 18.3168 86.3678 18.439C86.3688 21.0568 86.3679 23.6738 86.3729 26.2915C86.3729 26.5035 86.3059 26.562 86.0949 26.5605C84.861 26.5524 83.6258 26.5516 82.3914 26.5642C82.1447 26.5672 82.1083 26.4694 82.1165 26.2582C82.1313 25.8677 82.1209 25.4765 82.1209 24.9993C81.5964 25.4669 81.1081 25.8507 80.5539 26.1389C77.8205 27.5586 74.2468 27.1466 71.864 25.1372C67.8814 21.7799 67.5273 15.7412 71.1223 11.981C72.8065 10.219 74.9012 9.39647 77.347 9.48397C77.5612 9.49137 77.7086 9.56617 77.8583 9.71657C79.2505 11.117 80.6502 12.5093 82.0476 13.9044C82.1024 13.9667 82.1572 14.0289 82.212 14.0912L82.2113 14.0904ZM77.5063 13.5525C74.7945 13.5599 72.8865 15.5108 72.8939 18.2686C72.9013 20.9523 74.8649 22.918 77.5234 22.9032C80.1915 22.8876 82.1261 20.9219 82.1165 18.2353C82.1061 15.4945 80.1871 13.5451 77.5063 13.5525Z" fill="#FBFCFC"/>
<path d="M31.4946 18.3865C31.4946 16.8571 31.4872 15.5857 31.5005 14.3142C31.5035 14.0505 31.4198 13.9793 31.1656 13.9845C30.4002 13.9993 29.6348 13.983 28.8695 13.9964C28.6338 14.0008 28.5501 13.9423 28.5531 13.6896C28.5672 12.5167 28.5686 11.3438 28.5531 10.1709C28.5494 9.90344 28.6553 9.87454 28.8769 9.87754C29.6549 9.88864 30.4328 9.87384 31.2101 9.88714C31.4376 9.89084 31.5028 9.82784 31.4991 9.59744C31.4857 8.69644 31.5028 7.79475 31.4902 6.89375C31.4865 6.65145 31.5339 6.52994 31.7977 6.45654C33.0084 6.11874 34.2131 5.75714 35.4157 5.38884C35.6758 5.30884 35.7313 5.37334 35.7298 5.62964C35.7202 6.93814 35.7328 8.24744 35.721 9.55594C35.7187 9.81154 35.781 9.89154 36.0462 9.88784C37.1451 9.87234 38.2439 9.88784 39.3427 9.87524C39.5976 9.87234 39.6769 9.93605 39.6732 10.202C39.6576 11.3379 39.6576 12.4737 39.6724 13.6096C39.6761 13.9045 39.6117 14.009 39.2893 14.0023C38.2157 13.9786 37.1406 14.0023 36.067 13.9852C35.7825 13.9808 35.7195 14.0712 35.721 14.3431C35.7313 16.6275 35.7232 18.911 35.7284 21.1954C35.7306 22.2653 36.0573 22.6069 37.1169 22.7024C37.8586 22.7691 38.5973 22.6987 39.3368 22.6765C39.5857 22.6691 39.6769 22.7143 39.6724 22.9862C39.6561 24.0599 39.6583 25.1342 39.6709 26.2086C39.6739 26.4642 39.5924 26.5324 39.3405 26.5605C37.9127 26.7191 36.4864 26.8265 35.0697 26.4976C32.9595 26.0078 31.8236 24.7074 31.5709 22.4972C31.405 21.045 31.5428 19.586 31.4946 18.3879V18.3865Z" fill="#FBFCFC"/>
<path d="M27.054 14.5839C27.054 18.4464 27.0503 22.309 27.0607 26.1715C27.0614 26.4701 26.9999 26.5709 26.6821 26.5649C25.5099 26.5449 24.337 26.5457 23.1648 26.5649C22.861 26.5701 22.8047 26.4701 22.8054 26.19C22.8129 18.465 22.8143 10.7399 22.8025 3.0141C22.8025 2.6451 22.9107 2.5717 23.2574 2.5791C24.38 2.6028 25.504 2.5991 26.6265 2.5799C26.9503 2.5747 27.0636 2.6377 27.0629 2.9948C27.0488 6.8573 27.054 10.7199 27.054 14.5824V14.5839Z" fill="#FBFCFC"/>
<path d="M63.3409 11.5023C64.1619 10.5769 65.0962 10.0419 66.1913 9.77958C66.7715 9.64108 67.3613 9.60848 67.954 9.59068C68.1541 9.58478 68.2422 9.63288 68.2408 9.85368C68.2326 11.1993 68.2304 12.5441 68.2415 13.8897C68.2437 14.166 68.1044 14.1453 67.9147 14.1275C67.1686 14.0593 66.4329 14.1223 65.7253 14.3787C64.2026 14.9307 63.4772 16.0806 63.3639 17.6433C63.312 18.3553 63.3424 19.074 63.3416 19.7898C63.3394 21.9252 63.3357 24.0598 63.3476 26.1952C63.3491 26.485 63.2757 26.5702 62.9793 26.565C61.7945 26.5472 60.6098 26.5516 59.425 26.562C59.1835 26.5642 59.0812 26.525 59.082 26.2471C59.0908 20.9027 59.0908 15.559 59.082 10.2146C59.082 9.92488 59.1716 9.87078 59.4376 9.87368C60.6224 9.88778 61.8079 9.89298 62.9919 9.87148C63.3046 9.86558 63.3616 9.97298 63.3461 10.2479C63.3246 10.6273 63.3409 11.0089 63.3409 11.5009V11.5023Z" fill="#FBFCFC"/>
<path d="M82.2114 14.0905C82.1566 14.0283 82.1018 13.9661 82.0469 13.9038C82.161 13.763 82.1107 13.5963 82.1114 13.4422C82.1151 12.333 82.1196 11.2246 82.1055 10.1154C82.1018 9.84266 82.1885 9.74266 82.4619 9.74416C83.6696 9.75296 84.8773 9.75376 86.084 9.74636C86.321 9.74486 86.376 9.84336 86.374 10.0568C86.367 11.2764 86.364 12.4968 86.376 13.7164C86.379 13.9987 86.226 14.0024 86.026 14.0024C84.8796 14.0009 83.7341 14.0009 82.5878 14.0053C82.4596 14.0053 82.3122 13.9549 82.2114 14.0905Z" fill="#03C0F4"/>
<path d="M90.122 25.2446C90.117 25.6136 90.105 25.9833 90.107 26.3523C90.107 26.485 90.084 26.5591 89.93 26.5598C89.78 26.5605 89.742 26.4968 89.744 26.359C89.75 25.8529 89.742 25.3476 89.751 24.8416C89.753 24.7371 89.673 24.56 89.873 24.5526C90.042 24.5467 90.246 24.4555 90.365 24.6845C90.51 24.966 90.667 25.2409 90.84 25.558C91.059 25.3024 91.175 25.0327 91.288 24.7712C91.393 24.5281 91.573 24.5259 91.77 24.5459C92.037 24.5733 91.92 24.7897 91.924 24.9245C91.938 25.381 91.932 25.8374 91.927 26.2938C91.927 26.4064 91.972 26.5479 91.767 26.5568C91.523 26.5672 91.601 26.3975 91.598 26.2812C91.593 25.8818 91.596 25.4825 91.52 25.0638C91.384 25.3172 91.254 25.5743 91.111 25.824C90.952 26.1019 90.764 26.0989 90.603 25.8211C90.474 25.5981 90.348 25.3728 90.22 25.1483C90.196 25.1313 90.16 25.0942 90.148 25.1009C90.088 25.135 90.102 25.1905 90.123 25.2439L90.122 25.2446Z" fill="#FBFCFC"/>
<path d="M88.59 24.5422C88.837 24.5422 89.084 24.5429 89.33 24.5422C89.45 24.5422 89.507 24.5874 89.507 24.7178C89.507 24.8497 89.447 24.8838 89.33 24.8934C89.15 24.9082 88.896 24.7956 88.81 24.9505C88.718 25.112 88.766 25.355 88.762 25.5625C88.757 25.8337 88.752 26.1056 88.764 26.3768C88.771 26.5368 88.692 26.5539 88.564 26.559C88.424 26.5642 88.401 26.4961 88.403 26.3797C88.407 25.9722 88.396 25.5647 88.409 25.1579C88.416 24.9586 88.37 24.8564 88.149 24.8882C88.053 24.9023 87.952 24.8875 87.854 24.889C87.736 24.8912 87.668 24.8504 87.668 24.7193C87.667 24.5889 87.734 24.5452 87.851 24.5452C88.097 24.5452 88.344 24.5452 88.592 24.5452V24.5422H88.59Z" fill="#FBFCFC"/>
</g>
</svg>
