<svg width="108" height="26" viewBox="0 0 108 26" fill="none" xmlns="http://www.w3.org/2000/svg">
<g clip-path="url(#clip0_2495_2882)">
<path d="M25.3649 24.1383H19.3752L17.5428 19.7186H7.56041L5.891 24.1383H0L9.00005 1.81656H15.4478L25.3649 24.1383ZM12.3059 7.15041L9.03312 15.8233H15.9064L12.3059 7.15041ZM47.1226 1.81656H51.9664V24.1383H46.4018V10.1955L40.3797 17.1989H39.5291L33.5074 10.1955V24.138H27.9428V1.81656H32.7866L39.9541 10.0969L47.1226 1.81656ZM66.0656 1.81656C74.2148 1.81656 78.4034 6.88891 78.4034 13.0093C78.4034 19.4241 74.3456 24.1383 65.4434 24.1383H56.2136V1.81656H66.0656ZM61.7778 20.0471H65.4101C71.0068 20.0471 72.6762 16.2497 72.6762 12.9762C72.6762 9.14652 70.6139 5.90719 65.3446 5.90719H61.7776V20.0471H61.7778ZM89.4738 7.10923L82.4576 0.0917969H108V25.6351L100.984 18.6185V7.10923H89.4738ZM89.4656 8.51539L82.242 15.7387V25.8501H92.352L99.5752 18.6268H89.4656V8.51539Z" fill="white"/>
</g>
<defs>
<clipPath id="clip0_2495_2882">
<rect width="108" height="25.7584" fill="white" transform="translate(0 0.0917969)"/>
</clipPath>
</defs>
</svg>
