<svg width="113" height="33" viewBox="0 0 113 33" fill="none" xmlns="http://www.w3.org/2000/svg">
<g clip-path="url(#clip0_10_2268)">
<path d="M84.5385 32.1557C83.6903 32.3803 83.3293 32.4154 81.5636 32.4445C80.1238 32.4686 79.3397 32.4345 78.8003 32.3352C78.3862 32.257 77.7304 32.0865 77.3434 31.9572L76.6405 31.7226L76.5854 27.8734L77.5319 28.3215C78.8775 28.9592 79.817 29.1858 81.1616 29.1949C82.8911 29.2069 83.984 28.8018 84.9356 27.7962C85.6224 27.0702 85.9402 26.3473 86.0074 25.3577L86.0616 24.5716L83.7625 24.5195C81.8754 24.4773 81.313 24.4302 80.6291 24.2568C77.3996 23.4376 75.8815 21.2227 75.8886 17.3434C75.8986 13.789 77.0567 11.3766 79.3026 10.2536C80.588 9.61027 81.0222 9.45786 83.7244 9.39931H90.3309V25.0569C90.3309 25.7086 90.2397 26.2952 90.0712 26.8577C89.222 29.6751 87.4162 31.3947 84.5385 32.1557ZM86.0345 12.4905C85.5572 12.5056 85.08 12.4755 84.6027 12.4905C82.9874 12.5406 82.461 12.6991 81.688 13.2646C80.8217 13.8973 80.3344 15.0724 80.2371 16.7649C80.1368 18.5075 80.4577 19.7027 81.2418 20.5108C82.0399 21.334 82.9643 21.6328 84.8544 21.6328H86.0345V12.4905ZM0.100342 24.7531L12.8923 0.097168H17.9036C22.1719 0.133672 22.3304 0.141969 23.0011 0.364113C23.9868 0.69066 24.6696 1.37962 24.9603 2.34207C25.1679 3.02579 25.1689 3.13789 25.1428 13.9614L25.1168 24.8904L0.100342 24.7531ZM19.4688 23.4346C19.947 23.3323 20.6689 23.1087 21.073 22.9383C21.821 22.6234 22.8768 21.9637 22.9249 21.7822C22.94 21.727 22.7806 21.4864 22.57 21.2478L22.189 20.8126L21.6305 21.1706C20.5737 21.8464 18.9444 22.2374 17.2138 22.2304C13.6603 22.2143 11.8947 20.5509 11.8967 17.2201C11.8967 13.6165 13.9692 11.4076 17.3461 11.4076C20.5797 11.4076 22.3855 13.2535 22.2311 16.3999C22.1569 17.4286 21.9193 18.5596 21.06 18.9998C20.8143 19.1251 20.4634 19.2254 20.2809 19.2254C19.6813 19.2254 19.6663 19.0339 20.0513 16.2836C20.1957 15.1927 20.3671 14.1048 20.4744 13.0089H18.8752L18.7729 13.7619C18.7729 13.7619 18.6115 13.5614 18.4862 13.413C17.5848 12.3411 15.1242 13.0701 14.0855 14.7174C13.6092 15.4704 13.3024 16.5804 13.2964 17.571C13.2863 19.0088 13.6734 19.828 14.5698 20.2752C15.5664 20.7715 16.8588 20.5529 17.7261 19.7728C18.0029 19.5242 18.1523 19.3036 18.2485 19.1753C18.2355 19.3026 18.2335 19.448 18.2335 19.5392C18.2335 20.189 18.8892 20.566 20.0032 20.5619C21.7689 20.5519 23.0192 19.6385 23.6438 17.8929C23.8594 17.2883 23.9035 16.9895 23.9075 16.067C23.9176 14.3695 23.4213 12.9858 22.4246 11.924C20.7812 10.1734 17.9989 9.49907 15.2967 10.1974C13.9611 10.5433 13.0958 11.0296 12.1804 11.9501C10.8078 13.3287 10.1771 14.9791 10.1831 17.1699C10.1831 18.8554 10.5762 20.0987 11.4816 21.333C12.8963 23.2591 16.2141 24.1324 19.4688 23.4346ZM15.0169 17.7104C15.0169 16.1683 15.5293 15.0744 16.4618 14.6222C17.2268 14.2522 17.8805 14.3715 18.2355 14.946C18.4892 15.3571 18.5052 15.8304 18.2946 16.7248C17.9227 18.3019 17.1245 19.1562 16.0316 19.1562C14.9879 19.1562 15.02 18.333 15.0169 17.7104ZM49.706 15.0162L49.7431 24.9406H45.7215V15.7161C45.7215 14.0296 44.7459 12.9046 43.0654 12.9046H41.1102V24.9406H37.0986L36.9662 12.9046L32.4362 12.9588L32.3841 24.9406H28.3744L28.4255 10.051H37.1988C45.4377 10.051 46.0082 10.0623 46.5707 10.2355C47.9373 10.6576 48.7244 11.3004 49.2699 12.4945C49.7211 13.4832 49.704 14.3154 49.706 15.0162ZM64.775 24.7952C62.3336 24.3941 60.4957 23.1057 59.5141 21.1064C58.8002 19.6535 58.6458 19.1743 58.6458 17.0155C58.6458 15.3762 58.733 15.0674 58.9365 14.3625C59.5391 12.281 60.8587 10.7028 62.7186 9.83757C63.8696 9.30175 64.4742 9.17682 66.1918 9.11987C68.161 9.05459 69.0374 9.2075 70.3849 9.85161C72.1707 10.7048 73.5714 12.4544 74.0727 14.4577C74.3424 15.5356 74.3134 18.2889 74.0216 19.3738C73.6496 20.7565 73.0761 21.7611 72.0955 22.7467C71.3675 23.4787 71.0888 23.6822 70.2867 24.0672C69.7653 24.3179 69.0163 24.5936 68.6213 24.6809C67.5785 24.9095 65.7968 24.9626 64.775 24.7952ZM67.9755 21.2217C68.9 20.8136 69.5497 19.8691 69.8094 18.5546C69.9849 17.6673 69.9518 15.7813 69.7472 15.0102C69.2981 13.3137 68.2362 12.4735 66.5307 12.4654C65.4899 12.4654 64.8482 12.7141 64.1654 13.3969C63.3182 14.2432 62.9672 15.317 62.9713 17.0546C62.9713 19.0459 63.6059 20.5048 64.7249 21.1064C65.5561 21.5536 67.0982 21.6087 67.9755 21.2217ZM109.691 12.4624C107.145 12.4524 105.54 14.0466 105.4 16.7097C105.31 18.3561 105.751 19.6214 106.693 20.4707C107.325 21.0402 107.937 21.3129 108.879 21.4513C109.922 21.6027 111.005 21.3962 112.108 20.8367L112.9 20.4356V24.0101L112.298 24.2788C111.967 24.4262 111.356 24.6137 110.935 24.6939C109.952 24.8814 108.117 24.9546 107.275 24.8393C104.457 24.4513 102.262 22.6324 101.389 19.9714C101.179 19.3086 101.119 18.9186 101.078 17.7324C100.978 14.8117 101.61 12.9397 103.264 11.2893C104.868 9.68747 106.533 9.07896 109.31 9.08237C110.724 9.08437 111.857 9.24911 112.469 9.51672C112.679 9.60656 112.83 9.70512 112.94 9.8112V13.5493C112.759 13.436 112.529 13.2876 112.258 13.1382C111.356 12.6449 110.674 12.4654 109.691 12.4624ZM55.7982 24.5505C54.1087 24.0582 53.2454 23.2421 52.8554 22.2013C52.718 21.8323 52.6398 21.4323 52.6398 21.0302V0.575885H56.6505V24.7641C56.5693 24.7641 56.1862 24.6638 55.7982 24.5505ZM97.2082 24.5505C95.5788 24.0753 94.8108 23.3854 94.3355 22.3838C94.1701 22.0359 94.0498 21.6899 94.0498 21.331V9.80037H98.0604V24.7641C97.9792 24.7641 97.5962 24.6638 97.2082 24.5505ZM94.0498 3.28307H98.0604V6.99292H94.0498V3.28307Z" fill="#163293"/>
</g>
<defs>
<clipPath id="clip0_10_2268">
<rect width="113" height="32.5865" fill="white" transform="translate(0 0.074585)"/>
</clipPath>
</defs>
</svg>
