<svg width="90" height="48" viewBox="0 0 90 48" fill="none" xmlns="http://www.w3.org/2000/svg">
<mask id="mask0_2390_3022" style="mask-type:luminance" maskUnits="userSpaceOnUse" x="0" y="0" width="90" height="48">
<path d="M90 0.25H0V47.75H90V0.25Z" fill="white"/>
</mask>
<g mask="url(#mask0_2390_3022)">
<path d="M24.6022 27.3141C25.8896 25.008 27.809 22.7131 29.9307 20.9432C33.3427 18.0972 37.4662 16.2855 41.8033 15.7269C42.045 15.6957 42.2608 15.6515 42.283 15.6284C42.3052 15.6054 44.1783 12.1299 46.4455 7.90487C48.7126 3.67995 50.5787 0.235272 50.5925 0.250047C50.615 0.274372 64.9925 27.051 65.1713 27.4016L65.2472 27.5505H64.0707H62.8941L62.6061 27.1214C61.2658 25.1236 59.4962 23.2652 57.5663 21.8285C54.678 19.6782 51.4003 18.3277 47.8215 17.8135C47.5457 17.7739 47.186 17.7312 47.022 17.7186C46.858 17.706 46.7238 17.6852 46.7238 17.6722C46.7238 17.6516 47.7351 15.7451 47.7622 15.7147C47.7811 15.6936 48.7972 15.8514 49.3422 15.9601C52.5786 16.6055 55.5176 17.8522 58.1705 19.7051C58.6482 20.0387 58.8141 20.115 58.8141 20.001C58.8141 19.9447 50.715 4.82645 50.6446 4.75116C50.6213 4.72637 50.5787 4.71515 50.5497 4.72621C50.5207 4.73728 47.7573 9.85175 44.4087 16.0916C41.0601 22.3315 38.3013 27.4626 38.2781 27.4942C38.2403 27.5457 38.1163 27.5506 37.0715 27.5424L35.9071 27.533L38.2952 23.0837C41.1736 17.7211 40.9792 18.0959 40.916 18.0327C40.8735 17.9905 40.8091 17.9959 40.4587 18.0714C38.6768 18.4554 37.1615 18.979 35.5297 19.7745C34.6156 20.2201 34.0375 20.5506 33.175 21.1204C30.7985 22.6904 28.8106 24.6651 27.2403 27.0159L26.8837 27.5496L25.677 27.5501L24.4702 27.5505L24.6022 27.3141Z" fill="#EF3F22"/>
<path d="M0.000596362 47.7048C0.140971 47.3546 5.21572 36.1628 5.2426 36.1443C5.26322 36.1302 5.74859 36.1183 6.32134 36.1181C7.11209 36.1177 7.37135 36.1281 7.3991 36.1613C7.42685 36.1947 12.3592 47.086 12.5953 47.6353L12.6446 47.7497L11.5696 47.7404L10.4947 47.7312L9.77872 46.1073C9.3851 45.2142 9.0526 44.4732 9.0401 44.4607C9.0036 44.4243 3.73447 44.4152 3.64097 44.4513C3.57272 44.4778 3.4296 44.7758 2.84147 46.1161L2.12497 47.7487H1.05397C0.211348 47.7487 -0.0132786 47.7393 0.000596362 47.7048ZM8.2706 42.6907C8.28085 42.6642 7.8561 41.6433 7.32685 40.4222C6.55685 38.646 6.3516 38.2021 6.30035 38.2021C6.24872 38.2021 6.05022 38.6396 5.29147 40.4254C4.77197 41.6482 4.35472 42.6691 4.36422 42.6938C4.39085 42.7628 8.2441 42.7598 8.2706 42.6907ZM16.8418 47.7048C16.8326 47.6808 16.8291 45.0677 16.8341 41.8981L16.8431 36.1351L18.095 36.1258C19.0693 36.1187 19.3548 36.1265 19.3833 36.1608C19.4036 36.1852 20.3965 38.0496 21.5898 40.3041C22.7832 42.5584 23.7757 44.4133 23.7952 44.4259C23.8148 44.4387 23.8481 44.4422 23.8692 44.434C23.8902 44.4256 24.8711 42.5979 26.0488 40.3724C27.2265 38.1469 28.2188 36.2789 28.254 36.2213L28.3178 36.1167L29.5746 36.1258L30.8313 36.1351V41.9331V47.7312L29.8912 47.7404L28.951 47.7498L28.9505 43.4313C28.9501 40.9923 28.9365 39.0916 28.9188 39.0639C28.9018 39.0371 28.8657 39.0236 28.8387 39.0338C28.8118 39.0442 27.8622 40.7846 26.7285 42.9014L24.6673 46.7502H23.8373H23.0073L20.9461 42.9014C19.8125 40.7846 18.8628 39.0442 18.8358 39.034C18.8087 39.0236 18.7727 39.0371 18.7556 39.0639C18.7381 39.0916 18.7243 40.9921 18.724 43.4308L18.7235 47.7487H17.791C17.0773 47.7487 16.8546 47.7384 16.8418 47.7048ZM36.8751 47.7048C36.866 47.6808 36.8625 45.0677 36.8675 41.8981L36.8765 36.1351L40.1275 36.1359C43.0551 36.1367 43.418 36.1429 43.7745 36.1986C45.124 36.4088 46.0002 36.9738 46.4365 37.9151C46.7833 38.6634 46.8521 39.7143 46.6151 40.6457C46.3257 41.7824 45.5448 42.6097 44.4303 42.9599C43.7612 43.1702 43.7577 43.1704 41.1643 43.1919L38.7743 43.2118L38.7653 45.4802L38.7563 47.7487H37.8241C37.1106 47.7487 36.888 47.7384 36.8751 47.7048ZM43.5435 41.4169C43.8663 41.3267 43.9856 41.2693 44.2337 41.0848C44.6085 40.8062 44.8266 40.3272 44.8602 39.7084C44.9108 38.7814 44.5295 38.1573 43.7528 37.8964C43.5215 37.8187 43.4953 37.8178 41.1875 37.8069C39.4457 37.7987 38.8433 37.8062 38.8063 37.8368C38.7373 37.8939 38.732 41.4038 38.8007 41.4724C38.8352 41.5069 39.3188 41.5138 41.0588 41.5043C43.1992 41.4928 43.2821 41.4898 43.5435 41.4169ZM50.7416 41.9331V36.1173L55.4952 36.1262L60.2487 36.1351V36.9583V37.7816L56.453 37.7992L52.6571 37.8167V39.3581V40.8996L56.2596 40.9171L59.8621 40.9347V41.7579V42.5812L56.2596 42.5987L52.6571 42.6162L52.648 44.3414L52.6388 46.0667L56.4438 46.0757L60.2487 46.0846V46.9078V47.7312L55.4952 47.7401L50.7416 47.7489V41.9331ZM65.4064 41.9424L65.4152 36.1351L68.8595 36.1358C71.9757 36.1365 72.3416 36.1424 72.6997 36.1984C74.0501 36.4093 74.9256 36.9738 75.3618 37.9151C75.619 38.4697 75.7287 39.2012 75.6622 39.9147C75.5386 41.2386 74.9726 42.1544 73.9265 42.7231C73.7553 42.8161 73.6907 42.8697 73.7015 42.9101C73.7098 42.9412 74.2805 44.0296 74.9696 45.3287C75.6588 46.6279 76.2226 47.7041 76.2226 47.7203C76.2226 47.7364 75.7457 47.7456 75.1627 47.7404L74.1027 47.7312L72.9005 45.4714L71.6984 43.2118L69.4972 43.2028L67.296 43.1938L67.287 45.4625L67.278 47.7312L66.3377 47.7404L65.3975 47.7498L65.4064 41.9424ZM72.4687 41.4171C72.7918 41.3267 72.9111 41.2693 73.1591 41.0848C73.5338 40.8062 73.7519 40.3272 73.7856 39.7084C73.8367 38.7719 73.4452 38.1414 72.6596 37.8951C72.41 37.8168 72.4021 37.8167 69.8612 37.8167H67.3131L67.304 39.6208C67.299 40.6132 67.3027 41.4456 67.3123 41.4707C67.3265 41.5076 67.7902 41.5139 69.7641 41.5044C72.1323 41.4931 72.2057 41.4907 72.4687 41.4171ZM80.4916 47.7048C80.4824 47.6808 80.479 45.0677 80.4838 41.8981L80.493 36.1351L85.2465 36.1262L90 36.1173V36.9581V37.7988L86.1953 37.8077L82.3908 37.8167V39.3581V40.8996L86.0027 40.9086L89.6146 40.9174L89.6052 41.7493L89.5958 42.5812L85.9933 42.5987L82.3908 42.6162V44.3329V46.0496L86.1953 46.0584L90 46.0673V46.9081V47.7487H85.2541C81.4898 47.7487 80.5049 47.7396 80.4916 47.7048Z" fill="white"/>
</g>
</svg>
