<svg width="142" height="27" viewBox="0 0 142 27" fill="none" xmlns="http://www.w3.org/2000/svg">
<g clip-path="url(#clip0_2216_3082)">
<path d="M7.49993 -0.00634766L0 21.0091H4.64995L6.0999 16.656H13.85L15.2001 21.0091H19.9998L12.5498 -0.00634766H7.49993ZM67.0002 -0.00634766V21.0091H71.0499V12.1026C71.0499 9.75083 72.4499 8.49998 74.2499 8.49998C76.8499 8.49998 76.9002 10.4011 76.9002 11.5519V21.0091H80.9999V10.2008C80.9999 6.79829 78.65 4.99731 75.6 4.99731C73.35 4.99731 71.5999 6.14822 71.0999 7.44918H71.0499V-0.00634766H67.0002ZM138 -0.00634766V21.0091H142V-0.00634766H138ZM9.99991 4.74696H10.0498L12.5997 13.0529H7.24977L9.99991 4.74696ZM30.9499 4.99731C28.1999 4.99731 27.0502 6.69824 26.5002 7.69898H26.4503V5.39754H22.4998V21.0091H26.6V11.502C26.6 9.8007 27.1999 8.45003 29.1499 8.45003C31.6499 8.45003 31.6499 10.3009 31.6499 11.6019V21.0091H35.8001V11.7023C35.8001 9.85098 36.5502 8.49998 38.6002 8.49998C39.8002 8.49998 40.85 9.25021 40.85 11.5519V21.0091H45.0001V10.2008C45.0001 6.79829 42.5999 4.99731 39.4999 4.99731C36.9999 4.99731 35.8498 6.74859 35.2998 7.49914C34.2498 5.79788 33.1999 4.99731 30.9499 4.99731ZM57.5499 4.99731C54.8499 4.99731 53.6999 6.39809 52.9499 7.64902H52.9V5.39754H49V27.0136H53.0498V18.9575H53.1002C53.6002 19.8081 54.6001 21.3594 57.4501 21.3594C62.0501 21.3594 63.9499 17.2561 63.9499 13.0029C63.9499 7.64898 60.9499 4.99731 57.5499 4.99731ZM91.0497 4.99731C84.1497 4.99731 83.4999 10.8518 83.4999 12.7032C83.4999 18.9578 86.8998 21.0091 91.3498 21.0091C94.0498 21.0091 97.2001 19.8081 98.3001 16.1554V16.1054H94.0001C93.7001 17.2062 92.4998 17.7568 91.3498 17.7568C87.9998 17.7568 87.7501 15.2046 87.6501 14.0537H98.4998V13.3532C98.4998 6.4481 94.1497 4.99731 91.0497 4.99731ZM110.6 4.99731C107.65 4.99731 106.5 6.74827 105.95 7.69898H105.9V5.39754H102V21.0091H106.1V12.1026C106.1 9.75083 107.5 8.49998 109.3 8.49998C111.9 8.49998 111.95 10.4011 111.95 11.5519V21.0091H116V10.2008C116 6.79829 113.65 4.99731 110.6 4.99731ZM127 4.99731C122.8 4.99731 119 7.49887 119 13.0029C119 18.507 122.8 21.0091 127 21.0091C131.2 21.0091 135 18.507 135 13.0029C135 7.49887 131.2 4.99731 127 4.99731ZM90.9998 8.29959C92.3498 8.29959 93.9498 9.05014 94.1998 11.502H87.7499C87.9999 9.50048 89.0498 8.29959 90.9998 8.29959ZM127 8.34955C130.2 8.34955 130.75 11.0515 130.75 13.0029C130.75 14.9544 130.2 17.6563 127 17.6563C123.85 17.6563 123.25 14.9544 123.25 13.0029C123.25 11.0515 123.85 8.34955 127 8.34955ZM56.3502 8.54994C58.9502 8.54994 59.7998 10.8514 59.7998 13.3033C59.7998 15.1546 59.05 18.0066 56.45 18.0066C53.9 18.0066 52.9 15.8553 52.9 13.5536C52.9 11.0517 53.5502 8.54994 56.3502 8.54994Z" fill="#005CB9"/>
</g>
<defs>
<clipPath id="clip0_2216_3082">
<rect width="142" height="27" fill="white"/>
</clipPath>
</defs>
</svg>
