<svg width="67" height="22" viewBox="0 0 67 22" fill="none" xmlns="http://www.w3.org/2000/svg">
<mask id="mask0_10_2270" style="mask-type:luminance" maskUnits="userSpaceOnUse" x="2" y="2" width="62" height="18">
<path d="M64 2.87524H2.03711V19.9138H64V2.87524Z" fill="white"/>
</mask>
<g mask="url(#mask0_10_2270)">
<path d="M10.2036 3.16418C5.85527 3.16418 2.32617 6.49629 2.32617 11.381C2.32617 15.7572 5.23407 19.6248 10.2036 19.6248C12.3774 19.6248 14.4385 18.7214 15.4264 16.9142V19.1449H19.1252V3.64468H15.4264V5.90339C14.7493 4.66089 13.027 3.16418 10.2036 3.16418ZM29.2615 3.16418C26.5793 3.16418 25.0829 4.88648 24.7442 5.59288V3.64468H21.2714V19.1449H24.9698V10.7594C24.9698 9.85598 25.1112 8.89608 25.5627 8.07748C26.0149 7.28688 26.8618 6.63738 28.2168 6.63738C29.5441 6.66568 30.306 7.25858 30.7579 8.07748C31.1529 8.86778 31.2385 9.74318 31.2385 10.6463V19.1449H34.9366V10.6463C34.9366 9.71458 34.9931 8.89608 35.4733 8.04928C35.9524 7.20208 36.8561 6.63738 38.1552 6.63738C39.4532 6.63738 40.1879 7.14549 40.5835 7.90779C41.1196 8.72639 41.2044 9.79979 41.2044 10.7877V19.1449H44.9029V10.6463C44.9029 7.45588 44.6204 6.18519 43.2089 4.71749C42.023 3.50299 40.3856 3.16418 39.0872 3.16418C37.4497 3.16418 36.0941 3.78609 35.1341 4.68909C34.626 5.16928 34.287 5.67709 34.0048 6.15689C33.8072 5.76229 33.4122 5.11269 33.0731 4.74569C31.9435 3.53179 30.532 3.16418 29.2615 3.16418ZM47.5591 3.64758C47.259 3.64758 47.0169 3.89009 47.0169 4.19019C47.0169 4.48919 47.259 4.73178 47.5591 4.73178C47.8581 4.73178 48.1007 4.48919 48.1007 4.19019C48.1007 3.89009 47.8581 3.64758 47.5591 3.64758ZM48.7854 3.66438C48.5617 3.66438 48.394 3.82989 48.2887 4.16149C48.379 4.55289 48.5745 4.74888 48.8761 4.74888C49.2067 4.64348 49.3744 4.47769 49.3744 4.25179V4.16149C49.3744 3.88289 49.2067 3.71738 48.8761 3.66438H48.7854ZM50.0953 3.66438C49.86 3.66438 49.6942 3.83029 49.5964 4.16179C49.5964 4.46289 49.7774 4.65859 50.1389 4.74829C50.4549 4.74829 50.6354 4.55289 50.6809 4.16179C50.6809 3.88319 50.5154 3.71708 50.1838 3.66438H50.0953ZM54.0074 3.66438C53.7821 3.66438 53.6167 3.82989 53.511 4.16149C53.603 4.55289 53.7968 4.74888 54.0985 4.74888C54.4294 4.64348 54.5968 4.47769 54.5968 4.25179V4.16149C54.5968 3.88289 54.4294 3.71738 54.0985 3.66438H54.0074ZM55.3179 3.66438C55.0842 3.66438 54.9184 3.83029 54.8205 4.16179C54.8205 4.46289 55.0035 4.65859 55.3627 4.74829C55.679 4.74829 55.8615 4.55289 55.9051 4.16179C55.9051 3.88319 55.7392 3.71708 55.4099 3.66438H55.3179ZM56.6256 3.66438C56.4 3.66438 56.2342 3.82989 56.1308 4.16149C56.2189 4.55289 56.4147 4.74888 56.7157 4.74888C57.0473 4.64348 57.2128 4.47769 57.2128 4.25179V4.16149C57.2128 3.88289 57.0473 3.71738 56.7157 3.66438H56.6256ZM57.9354 3.66438C57.7098 3.66438 57.544 3.82989 57.4387 4.16149C57.5287 4.55289 57.7243 4.74888 58.0257 4.74888C58.3586 4.64348 58.5227 4.47769 58.5227 4.25179V4.16149C58.5227 3.88289 58.3586 3.71738 58.0257 3.66438H57.9354ZM59.1979 3.66438C58.9726 3.66438 58.8069 3.82989 58.7012 4.16149C58.7916 4.55289 58.987 4.74888 59.2887 4.74888C59.6216 4.64348 59.7854 4.47769 59.7854 4.25179V4.16149C59.7854 3.88289 59.6216 3.71738 59.2887 3.66438H59.1979ZM60.5063 3.66438C60.2726 3.66438 60.1072 3.83029 60.0109 4.16179C60.0109 4.46289 60.1917 4.65859 60.5512 4.74829C60.8675 4.74829 61.0479 4.55289 61.0931 4.16179C61.0931 3.88319 60.9273 3.71708 60.5983 3.66438H60.5063ZM61.8157 3.66438C61.5904 3.66438 61.4245 3.82989 61.3192 4.16149C61.4089 4.55289 61.605 4.74888 61.9064 4.74888C62.2373 4.64348 62.4031 4.47769 62.4031 4.25179V4.16149C62.4031 3.88289 62.2373 3.71738 61.9064 3.66438H61.8157ZM63.1236 3.66438C62.8984 3.66438 62.7326 3.82989 62.6269 4.16149C62.717 4.55289 62.9129 4.74888 63.2143 4.74888C63.5468 4.64348 63.7111 4.47769 63.7111 4.25179V4.16149C63.7111 3.88289 63.5468 3.71738 63.2143 3.66438H63.1236ZM47.4754 4.97429C47.2517 4.97429 47.0864 5.13978 46.983 5.47138C46.983 5.79348 47.1744 5.98889 47.5658 6.05679C47.8971 5.95109 48.0629 5.78568 48.0629 5.55968V5.47138C48.0629 5.19278 47.8971 5.02729 47.5658 4.97429H47.4754ZM48.7854 4.97429C48.5617 4.97429 48.394 5.13978 48.2887 5.47138C48.379 5.86078 48.5745 6.05679 48.8761 6.05679C49.2067 5.95109 49.3744 5.78568 49.3744 5.55968V5.47138C49.3744 5.19278 49.2067 5.02729 48.8761 4.97429H48.7854ZM54.0074 4.97429C53.7821 4.97429 53.6167 5.13978 53.511 5.47138C53.603 5.86078 53.7968 6.05679 54.0985 6.05679C54.4294 5.95109 54.5968 5.78568 54.5968 5.55968V5.47138C54.5968 5.19278 54.4294 5.02729 54.0985 4.97429H54.0074ZM56.6256 4.97429C56.4 4.97429 56.2342 5.13978 56.1308 5.47138C56.1308 5.79348 56.3243 5.98889 56.7157 6.05679C57.0473 5.95109 57.2128 5.78568 57.2128 5.55968V5.47138C57.2128 5.19278 57.0473 5.02729 56.7157 4.97429H56.6256ZM57.9354 4.97429C57.7098 4.97429 57.544 5.13978 57.4387 5.47138C57.5287 5.86078 57.7243 6.05679 58.0257 6.05679C58.3586 5.95109 58.5227 5.78568 58.5227 5.55968V5.47138C58.5227 5.19278 58.3586 5.02729 58.0257 4.97429H57.9354ZM59.1979 4.97429C58.9726 4.97429 58.8069 5.13978 58.7012 5.47138C58.7916 5.86078 58.987 6.05679 59.2887 6.05679C59.6216 5.95109 59.7854 5.78568 59.7854 5.55968V5.47138C59.7854 5.19278 59.6216 5.02729 59.2887 4.97429H59.1979ZM61.8157 4.97429C61.5904 4.97429 61.4245 5.13978 61.3192 5.47138C61.3192 5.79348 61.5146 5.98889 61.9064 6.05679C62.2373 5.95109 62.4031 5.78568 62.4031 5.55968V5.47138C62.4031 5.19278 62.2373 5.02729 61.9064 4.97429H61.8157ZM63.1236 4.97429C62.8984 4.97429 62.7326 5.13978 62.6269 5.47138C62.717 5.86078 62.9129 6.05679 63.2143 6.05679C63.5468 5.95109 63.7111 5.78568 63.7111 5.55968V5.47138C63.7111 5.19278 63.5468 5.02729 63.2143 4.97429H63.1236ZM50.0953 4.97469C49.8675 4.97469 49.704 5.14018 49.5964 5.47178C49.5964 5.79288 49.7944 5.98888 50.1838 6.05648C50.4624 6.05648 50.6282 5.86088 50.6809 5.47178C50.6809 5.19318 50.5154 5.02699 50.1838 4.97469H50.0953ZM55.3179 4.97469C55.092 4.97469 54.9262 5.14018 54.8205 5.47178C54.8205 5.79288 55.0163 5.98888 55.4099 6.05648C55.6866 6.05648 55.8521 5.86088 55.9051 5.47178C55.9051 5.19318 55.7392 5.02699 55.4099 4.97469H55.3627H55.3179ZM60.5063 4.97469C60.2804 4.97469 60.1143 5.14018 60.0109 5.47178C60.0109 5.79288 60.2053 5.98888 60.5983 6.05648C60.875 6.05648 61.0404 5.86088 61.0931 5.47178C61.0931 5.19318 60.9273 5.02699 60.5983 4.97469H60.5512H60.5063ZM47.5658 6.28209C47.1744 6.33539 46.983 6.50058 46.983 6.77918C46.983 7.06518 47.1461 7.26128 47.4754 7.36658C47.8675 7.30648 48.0629 7.14039 48.0629 6.86959V6.77918C48.0629 6.50058 47.8971 6.33539 47.5658 6.28209ZM48.8761 6.28209C48.4844 6.33539 48.2887 6.50058 48.2887 6.77918C48.2887 7.06518 48.4541 7.26128 48.7854 7.36658C49.1768 7.30648 49.3744 7.14039 49.3744 6.86959V6.77918C49.3744 6.50058 49.2067 6.33539 48.8761 6.28209ZM54.0985 6.28209C53.7068 6.33539 53.511 6.50058 53.511 6.77918C53.511 7.06518 53.6768 7.26128 54.0074 7.36658C54.3991 7.30648 54.5968 7.14039 54.5968 6.86959V6.77918C54.5968 6.50058 54.4294 6.33539 54.0985 6.28209ZM56.7157 6.28209C56.3243 6.33539 56.1308 6.50058 56.1308 6.77918C56.1308 7.06518 56.2944 7.26128 56.6256 7.36658C57.017 7.30648 57.2128 7.14039 57.2128 6.86959V6.77918C57.2128 6.50058 57.0473 6.33539 56.7157 6.28209ZM58.0257 6.28209C57.6343 6.33539 57.4387 6.50058 57.4387 6.77918C57.4387 7.06518 57.6044 7.26128 57.9354 7.36658C58.3251 7.30648 58.5227 7.14039 58.5227 6.86959V6.77918C58.5227 6.50058 58.3586 6.33539 58.0257 6.28209ZM59.2887 6.28209C58.897 6.33539 58.7012 6.50058 58.7012 6.77918C58.7012 7.06518 58.867 7.26128 59.1979 7.36658C59.5877 7.30648 59.7854 7.14039 59.7854 6.86959V6.77918C59.7854 6.50058 59.6216 6.33539 59.2887 6.28209ZM61.9064 6.28209C61.5146 6.33539 61.3192 6.50058 61.3192 6.77918C61.3192 7.06518 61.4848 7.26128 61.8157 7.36658C62.2074 7.30648 62.4031 7.14039 62.4031 6.86959V6.77918C62.4031 6.50058 62.2373 6.33539 61.9064 6.28209ZM63.2143 6.28209C62.8226 6.33539 62.6269 6.50058 62.6269 6.77918C62.6269 7.06518 62.7927 7.26128 63.1236 7.36658C63.5154 7.30648 63.7111 7.14039 63.7111 6.86959V6.77918C63.7111 6.50058 63.5468 6.33539 63.2143 6.28209ZM50.1838 6.28218C49.7944 6.33488 49.5964 6.50068 49.5964 6.77958C49.6737 7.17068 49.8379 7.36609 50.0953 7.36609C50.449 7.36609 50.6429 7.17068 50.6809 6.77958C50.6809 6.50068 50.5154 6.33488 50.1838 6.28218ZM55.4099 6.28218C55.0163 6.33488 54.8205 6.50068 54.8205 6.77958C54.8963 7.17068 55.0618 7.36609 55.3179 7.36609C55.6713 7.36609 55.867 7.17068 55.9051 6.77958C55.9051 6.50068 55.7392 6.33488 55.4099 6.28218ZM60.5983 6.28218C60.2053 6.33488 60.0109 6.50068 60.0109 6.77958C60.0847 7.17068 60.2501 7.36609 60.5063 7.36609C60.86 7.36609 61.0554 7.17068 61.0931 6.77958C61.0931 6.50068 60.9273 6.33488 60.5983 6.28218ZM10.7117 6.60918C12.9421 6.60918 14.3822 7.87988 15.0314 9.34798C15.3422 10.0251 15.4829 10.7877 15.455 11.5218C15.3984 12.2841 15.2291 13.0178 14.8621 13.6955C14.156 15.1071 12.801 16.1806 10.7399 16.1806C7.40847 16.1806 6.02467 13.3851 6.02467 11.4652V11.437C6.02467 9.03718 7.71897 6.60918 10.7117 6.60918ZM47.5658 7.59198C47.1744 7.64528 46.983 7.81039 46.983 8.08899C47.0412 8.47849 47.2196 8.67448 47.5207 8.67448C47.8822 8.59898 48.0629 8.43358 48.0629 8.17778V8.08899C48.0629 7.81039 47.8971 7.64528 47.5658 7.59198ZM48.831 7.59198C48.5521 7.59198 48.3712 7.77268 48.2887 8.13228C48.394 8.49378 48.5745 8.67448 48.831 8.67448C49.1925 8.59898 49.3744 8.43358 49.3744 8.17778V8.08899C49.3744 7.81039 49.2067 7.64528 48.8761 7.59198H48.831ZM50.1838 7.59198C49.7944 7.64498 49.5964 7.81038 49.5964 8.08938C49.6588 8.47848 49.8379 8.67409 50.1389 8.67409C50.4549 8.67409 50.6354 8.47848 50.6809 8.08938C50.6809 7.81038 50.5154 7.64498 50.1838 7.59198ZM54.053 7.59198C53.7747 7.59198 53.5936 7.77268 53.511 8.13228C53.6167 8.49378 53.7968 8.67448 54.053 8.67448C54.4142 8.59898 54.5968 8.43358 54.5968 8.17778V8.08899C54.5968 7.81039 54.4294 7.64528 54.0985 7.59198H54.053ZM55.4099 7.59198C55.0163 7.64498 54.8205 7.81038 54.8205 8.08938C54.8807 8.47848 55.0617 8.67409 55.3627 8.67409C55.679 8.67409 55.8615 8.47848 55.9051 8.08938C55.9051 7.81038 55.7392 7.64498 55.4099 7.59198ZM56.7157 7.59198C56.3243 7.64528 56.1308 7.81039 56.1308 8.08899C56.189 8.47849 56.3699 8.67448 56.6706 8.67448C57.0324 8.59898 57.2128 8.43358 57.2128 8.17778V8.08899C57.2128 7.81039 57.0473 7.64528 56.7157 7.59198ZM60.5983 7.59198C60.2053 7.64498 60.0109 7.81038 60.0109 8.08938C60.0695 8.47848 60.2502 8.67409 60.5512 8.67409C60.8675 8.67409 61.0479 8.47848 61.0931 8.08938C61.0931 7.81038 60.9273 7.64498 60.5983 7.59198ZM61.9064 7.59198C61.5146 7.64528 61.3192 7.81039 61.3192 8.08899C61.3794 8.47849 61.5618 8.67448 61.8631 8.67448C62.2227 8.59898 62.4031 8.43358 62.4031 8.17778V8.08899C62.4031 7.81039 62.2373 7.64528 61.9064 7.59198ZM63.1691 7.59198C62.8925 7.59198 62.7098 7.77268 62.6269 8.13228C62.7326 8.49378 62.913 8.67448 63.1691 8.67448C63.5306 8.59898 63.7111 8.43358 63.7111 8.17778V8.08899C63.7111 7.81039 63.5468 7.64528 63.2143 7.59198H63.1691ZM47.5207 8.90018C47.2648 8.90018 47.0864 9.06528 46.983 9.39688C47.0412 9.78828 47.2196 9.98429 47.5207 9.98429C47.8822 9.90849 48.0629 9.74308 48.0629 9.48718V9.39688C48.0629 9.11828 47.8971 8.95318 47.5658 8.90018H47.5207ZM48.831 8.90018C48.5521 8.90018 48.3712 9.08058 48.2887 9.44168C48.2887 9.72098 48.4698 9.90109 48.831 9.98429C49.1925 9.90849 49.3744 9.74308 49.3744 9.48718V9.39688C49.3744 9.11828 49.2067 8.95318 48.8761 8.90018H48.831ZM50.1836 8.90018C49.7942 8.95318 49.5966 9.11828 49.5966 9.39688C49.659 9.78828 49.8374 9.98429 50.1385 9.98429C50.5016 9.90849 50.6807 9.74308 50.6807 9.48718V9.39688C50.5981 9.06528 50.4323 8.90018 50.1836 8.90018ZM54.053 8.90018C53.7747 8.90018 53.5936 9.08058 53.511 9.44168C53.511 9.72098 53.6922 9.90109 54.053 9.98429C54.4142 9.90849 54.5968 9.74308 54.5968 9.48718V9.39688C54.5968 9.11828 54.4294 8.95318 54.0985 8.90018H54.053ZM55.4097 8.90018C55.0167 8.95318 54.821 9.11828 54.821 9.39688C54.8811 9.78828 55.0616 9.98429 55.3626 9.98429C55.7241 9.90849 55.9048 9.74308 55.9048 9.48718V9.39688C55.8223 9.06528 55.6568 8.90018 55.4097 8.90018ZM56.6706 8.90018C56.4147 8.90018 56.2342 9.06528 56.1308 9.39688C56.189 9.78828 56.3699 9.98429 56.6706 9.98429C57.0324 9.90849 57.2128 9.74308 57.2128 9.48718V9.39688C57.2128 9.11828 57.0473 8.95318 56.7157 8.90018H56.6706ZM60.5988 8.90018C60.2051 8.95318 60.0111 9.11828 60.0111 9.39688C60.0696 9.78828 60.25 9.98429 60.5513 9.98429C60.9128 9.90849 61.0932 9.74308 61.0932 9.48718V9.39688C61.0103 9.06528 60.8448 8.90018 60.5988 8.90018ZM61.8631 8.90018C61.605 8.90018 61.4245 9.06528 61.3192 9.39688C61.3794 9.78828 61.5618 9.98429 61.8631 9.98429C62.2227 9.90849 62.4031 9.74308 62.4031 9.48718V9.39688C62.4031 9.11828 62.2373 8.95318 61.9064 8.90018H61.8631ZM63.1691 8.90018C62.8925 8.90018 62.7098 9.08058 62.6269 9.44168C62.6269 9.72098 62.808 9.90109 63.1691 9.98429C63.5306 9.90849 63.7111 9.74308 63.7111 9.48718V9.39688C63.7111 9.11828 63.5468 8.95318 63.2143 8.90018H63.1691ZM47.5207 10.2101C47.2648 10.2101 47.0864 10.3752 46.983 10.7049C46.983 10.9835 47.1296 11.1792 47.4309 11.2923C47.8539 11.2546 48.0629 11.0892 48.0629 10.7953V10.7049C48.0629 10.4506 47.8822 10.2852 47.5207 10.2101ZM48.831 10.2101C48.5521 10.2101 48.3712 10.3906 48.2887 10.7498C48.2887 10.9835 48.4395 11.1639 48.7402 11.2923C49.1618 11.2546 49.3744 11.0892 49.3744 10.7953V10.7049C49.3744 10.4354 49.1925 10.2699 48.831 10.2101ZM50.1385 10.2101C49.8826 10.2101 49.7042 10.3752 49.5966 10.7049C49.5966 10.9835 49.7473 11.1792 50.0484 11.2923C50.4697 11.2546 50.6807 11.0892 50.6807 10.7953V10.7049C50.6807 10.4506 50.5016 10.2852 50.1385 10.2101ZM54.053 10.2101C53.7747 10.2101 53.5936 10.3906 53.511 10.7498C53.511 10.9835 53.6615 11.1639 53.9626 11.2923C54.3842 11.2546 54.5968 11.0892 54.5968 10.7953V10.7049C54.5968 10.4354 54.4142 10.2699 54.053 10.2101ZM55.3626 10.2101C55.1068 10.2101 54.9263 10.3752 54.821 10.7049C54.821 10.9835 54.9715 11.1792 55.2725 11.2923C55.6942 11.2546 55.9048 11.0892 55.9048 10.7953V10.7049C55.9048 10.4506 55.7241 10.2852 55.3626 10.2101ZM56.6706 10.2101C56.4147 10.2101 56.2342 10.3752 56.1308 10.7049C56.1308 10.9835 56.2814 11.1792 56.5801 11.2923C57.0021 11.2546 57.2128 11.0892 57.2128 10.7953V10.7049C57.2128 10.4506 57.0324 10.2852 56.6706 10.2101ZM60.5513 10.2101C60.2952 10.2101 60.1148 10.3752 60.0111 10.7049C60.0111 10.9835 60.1596 11.1792 60.4606 11.2923C60.8825 11.2546 61.0932 11.0892 61.0932 10.7953V10.7049C61.0932 10.4506 60.9128 10.2852 60.5513 10.2101ZM61.8631 10.2101C61.605 10.2101 61.4245 10.3752 61.3192 10.7049C61.3192 10.9835 61.4694 11.1792 61.7704 11.2923C62.1924 11.2546 62.4031 11.0892 62.4031 10.7953V10.7049C62.4031 10.4506 62.2227 10.2852 61.8631 10.2101ZM63.1691 10.2101C62.8925 10.2101 62.7098 10.3906 62.6269 10.7498C62.6269 10.9835 62.7775 11.1639 63.0785 11.2923C63.5004 11.2546 63.7111 11.0892 63.7111 10.7953V10.7049C63.7111 10.4354 63.5306 10.2699 63.1691 10.2101ZM47.5207 11.5179C47.2648 11.5179 47.0864 11.6837 46.983 12.0146C46.983 12.2932 47.1296 12.4889 47.4309 12.6021C47.8539 12.5647 48.0629 12.3989 48.0629 12.105V12.0146C48.0629 11.7588 47.8822 11.5933 47.5207 11.5179ZM48.831 11.5179C48.5521 11.5179 48.3712 11.6984 48.2887 12.0595C48.2887 12.2933 48.4395 12.4737 48.7402 12.6021C49.1618 12.6021 49.3744 12.436 49.3744 12.105V12.0146C49.3744 11.7588 49.1925 11.5933 48.831 11.5179ZM50.1385 11.5179C49.8826 11.5179 49.7042 11.6837 49.5966 12.0146C49.5966 12.2932 49.7473 12.4889 50.0484 12.6021C50.4697 12.5647 50.6807 12.3989 50.6807 12.105V12.0146C50.6807 11.7588 50.5016 11.5933 50.1385 11.5179ZM54.053 11.5179C53.7747 11.5179 53.5936 11.6984 53.511 12.0595C53.511 12.2933 53.6615 12.4737 53.9626 12.6021C54.3842 12.6021 54.5968 12.436 54.5968 12.105V12.0146C54.5968 11.7588 54.4142 11.5933 54.053 11.5179ZM55.3626 11.5179C55.1068 11.5179 54.9263 11.6837 54.821 12.0146C54.821 12.2932 54.9715 12.4889 55.2725 12.6021C55.6942 12.5647 55.9048 12.3989 55.9048 12.105V12.0146C55.9048 11.7588 55.7241 11.5933 55.3626 11.5179ZM56.6706 11.5179C56.4147 11.5179 56.2342 11.6837 56.1308 12.0146C56.1308 12.2932 56.2814 12.4889 56.5801 12.6021C57.0021 12.5647 57.2128 12.3989 57.2128 12.105V12.0146C57.2128 11.7588 57.0324 11.5933 56.6706 11.5179ZM60.5513 11.5179C60.2952 11.5179 60.1148 11.6837 60.0111 12.0146C60.0111 12.2932 60.1596 12.4889 60.4606 12.6021C60.8825 12.5647 61.0932 12.3989 61.0932 12.105V12.0146C61.0932 11.7588 60.9128 11.5933 60.5513 11.5179ZM61.8631 11.5179C61.605 11.5179 61.4245 11.6837 61.3192 12.0146C61.3192 12.2932 61.4694 12.4889 61.7704 12.6021C62.1924 12.5647 62.4031 12.3989 62.4031 12.105V12.0146C62.4031 11.7588 62.2227 11.5933 61.8631 11.5179ZM63.1691 11.5179C62.8925 11.5179 62.7098 11.6984 62.6269 12.0595C62.6269 12.2933 62.7775 12.4737 63.0785 12.6021C63.5004 12.6021 63.7111 12.436 63.7111 12.105V12.0146C63.7111 11.7588 63.5306 11.5933 63.1691 11.5179ZM47.5658 12.8274C47.1744 12.9028 46.983 13.0683 46.983 13.3225C47.0412 13.7139 47.2196 13.91 47.5207 13.91H47.5658C47.8448 13.91 48.0102 13.7445 48.0629 13.413V13.3225C48.0629 13.0894 47.8971 12.9253 47.5658 12.8274ZM48.8761 12.8274C48.4844 12.8953 48.2887 13.0761 48.2887 13.368C48.2887 13.6534 48.4698 13.8346 48.831 13.91H48.8761C49.1541 13.91 49.3218 13.7445 49.3744 13.413V13.3225C49.3744 13.0894 49.2067 12.9253 48.8761 12.8274ZM50.1836 12.8274C49.7942 12.9028 49.5966 13.0683 49.5966 13.3225C49.5966 13.6762 49.7942 13.872 50.1836 13.91C50.5149 13.8271 50.6807 13.661 50.6807 13.413V13.3225C50.6807 13.0894 50.5149 12.9253 50.1836 12.8274ZM54.0985 12.8274C53.7068 12.8953 53.511 13.0761 53.511 13.368C53.511 13.6534 53.6922 13.8346 54.053 13.91H54.0985C54.3764 13.91 54.5422 13.7445 54.5968 13.413V13.3225C54.5968 13.0894 54.4294 12.9253 54.0985 12.8274ZM55.4097 12.8274C55.0167 12.9028 54.821 13.0683 54.821 13.3225C54.821 13.6762 55.0167 13.872 55.4097 13.91C55.739 13.8271 55.9048 13.661 55.9048 13.413V13.3225C55.9048 13.0894 55.739 12.9253 55.4097 12.8274ZM56.7157 12.8274C56.3243 12.9028 56.1308 13.0683 56.1308 13.3225C56.189 13.7139 56.3699 13.91 56.6706 13.91H56.7157C56.9943 13.91 57.1601 13.7445 57.2128 13.413V13.3225C57.2128 13.0894 57.0473 12.9253 56.7157 12.8274ZM60.5988 12.8274C60.2051 12.9028 60.0111 13.0683 60.0111 13.3225C60.0111 13.6762 60.2051 13.872 60.5988 13.91C60.9274 13.8271 61.0932 13.661 61.0932 13.413V13.3225C61.0932 13.0894 60.9274 12.9253 60.5988 12.8274ZM61.9064 12.8274C61.5146 12.9028 61.3192 13.0683 61.3192 13.3225C61.3794 13.7139 61.5618 13.91 61.8631 13.91H61.9064C62.1846 13.91 62.3481 13.7445 62.4031 13.413V13.3225C62.4031 13.0894 62.2373 12.9253 61.9064 12.8274ZM63.2143 12.8274C62.8226 12.8953 62.6269 13.0761 62.6269 13.368C62.6269 13.6534 62.808 13.8346 63.1691 13.91H63.2143C63.4926 13.91 63.6581 13.7445 63.7111 13.413V13.3225C63.7111 13.0894 63.5468 12.9253 63.2143 12.8274ZM47.5658 14.1351C47.1744 14.2109 46.983 14.3763 46.983 14.6322C46.983 14.9862 47.1744 15.1818 47.5658 15.2199C47.8448 15.2199 48.0102 15.0544 48.0629 14.7228V14.6322C48.0629 14.3991 47.8971 14.2333 47.5658 14.1351ZM48.8761 14.1351C48.5745 14.1351 48.379 14.3158 48.2887 14.6777C48.2887 14.9634 48.4698 15.1441 48.831 15.2199H48.8761C49.1541 15.2199 49.3218 15.0544 49.3744 14.7228V14.6322C49.3744 14.3991 49.2067 14.2333 48.8761 14.1351ZM50.2292 14.1351C49.8076 14.1881 49.5966 14.3538 49.5966 14.6327C49.5966 14.9861 49.7942 15.1818 50.1836 15.2192C50.4622 15.2192 50.6277 15.0537 50.6807 14.7228C50.6807 14.4364 50.5299 14.2411 50.2292 14.1351ZM54.0985 14.1351C53.7968 14.1351 53.603 14.3158 53.511 14.6777C53.511 14.9634 53.6922 15.1441 54.053 15.2199H54.0985C54.3764 15.2199 54.5422 15.0544 54.5968 14.7228V14.6322C54.5968 14.3991 54.4294 14.2333 54.0985 14.1351ZM55.4533 14.1351C55.032 14.1881 54.821 14.3538 54.821 14.6327C54.821 14.9861 55.0167 15.1818 55.4097 15.2192C55.6863 15.2192 55.8525 15.0537 55.9048 14.7228C55.9048 14.4364 55.7546 14.2411 55.4533 14.1351ZM56.7157 14.1351C56.3243 14.2109 56.1308 14.3763 56.1308 14.6322C56.1308 14.9862 56.3243 15.1818 56.7157 15.2199C56.9943 15.2199 57.1601 15.0544 57.2128 14.7228V14.6322C57.2128 14.3991 57.0473 14.2333 56.7157 14.1351ZM60.6417 14.1351C60.2204 14.1881 60.0111 14.3538 60.0111 14.6327C60.0111 14.9861 60.2051 15.1818 60.5988 15.2192C60.8748 15.2192 61.0405 15.0537 61.0932 14.7228C61.0932 14.4364 60.9427 14.2411 60.6417 14.1351ZM61.9064 14.1351C61.5146 14.2109 61.3192 14.3763 61.3192 14.6322C61.3192 14.9862 61.5146 15.1818 61.9064 15.2199C62.1846 15.2199 62.3481 15.0544 62.4031 14.7228V14.6322C62.4031 14.3991 62.2373 14.2333 61.9064 14.1351ZM63.2143 14.1351C62.9129 14.1351 62.717 14.3158 62.6269 14.6777C62.6269 14.9634 62.808 15.1441 63.1691 15.2199H63.2143C63.4926 15.2199 63.6581 15.0544 63.7111 14.7228V14.6322C63.7111 14.3991 63.5468 14.2333 63.2143 14.1351ZM47.5658 15.445C47.2801 15.445 47.0864 15.6088 46.983 15.9403C46.983 16.294 47.1744 16.4898 47.5658 16.5275C47.8448 16.5275 48.0102 16.3624 48.0629 16.0308V15.9403C48.0629 15.716 47.8971 15.5513 47.5658 15.445ZM48.8761 15.445C48.552 15.445 48.3566 15.6413 48.2887 16.0308C48.2887 16.3094 48.4844 16.4748 48.8761 16.5275C49.1541 16.5275 49.3218 16.3624 49.3744 16.0308V15.9403C49.3744 15.716 49.2067 15.5513 48.8761 15.445ZM54.0985 15.445C53.7747 15.445 53.5806 15.6413 53.511 16.0308C53.511 16.3094 53.7068 16.4748 54.0985 16.5275C54.3764 16.5275 54.5422 16.3624 54.5968 16.0308V15.9403C54.5968 15.716 54.4294 15.5513 54.0985 15.445ZM56.7157 15.445C56.4316 15.445 56.2342 15.6088 56.1308 15.9403C56.1308 16.294 56.3243 16.4898 56.7157 16.5275C56.9943 16.5275 57.1601 16.3624 57.2128 16.0308V15.9403C57.2128 15.716 57.0473 15.5513 56.7157 15.445ZM61.9064 15.445C61.6203 15.445 61.4245 15.6088 61.3192 15.9403C61.3192 16.294 61.5146 16.4898 61.9064 16.5275C62.1846 16.5275 62.3481 16.3624 62.4031 16.0308V15.9403C62.4031 15.716 62.2373 15.5513 61.9064 15.445ZM63.2143 15.445C62.8925 15.445 62.6949 15.6413 62.6269 16.0308C62.6269 16.3094 62.8226 16.4748 63.2143 16.5275C63.4926 16.5275 63.6581 16.3624 63.7111 16.0308V15.9403C63.7111 15.716 63.5468 15.5513 63.2143 15.445ZM50.1838 15.4456C49.7944 15.5188 49.5964 15.6843 49.5964 15.9408C49.5964 16.2945 49.7944 16.4895 50.1838 16.5273C50.4624 16.5273 50.6282 16.3617 50.6809 16.0304C50.6282 15.6413 50.4624 15.4456 50.1838 15.4456ZM51.4934 15.4456C51.1023 15.5188 50.9082 15.6843 50.9082 15.9408C50.9082 16.2945 51.1023 16.4895 51.4934 16.5272C51.7723 16.5272 51.9381 16.3617 51.9904 16.0304C51.9381 15.6413 51.7723 15.4456 51.4934 15.4456ZM52.7566 15.4456C52.3652 15.5188 52.1708 15.6843 52.1708 15.9408C52.1708 16.2945 52.3652 16.4895 52.7566 16.5272C53.0352 16.5272 53.2003 16.3617 53.253 16.0304C53.2003 15.6413 53.0352 15.4456 52.7566 15.4456ZM55.4099 15.4456C55.0163 15.5188 54.8205 15.6843 54.8205 15.9408C54.8205 16.2945 55.0163 16.4895 55.4099 16.5272C55.6866 16.5272 55.8521 16.3617 55.9051 16.0304C55.8521 15.6413 55.6866 15.4456 55.4099 15.4456ZM60.5983 15.4456C60.2053 15.5188 60.0109 15.6843 60.0109 15.9408C60.0109 16.2945 60.2053 16.4895 60.5983 16.5272C60.875 16.5272 61.0404 16.3617 61.0931 16.0304C61.0404 15.6413 60.875 15.4456 60.5983 15.4456ZM47.5658 16.7529C47.2446 16.7529 47.0483 16.9493 46.983 17.3404C47.0864 17.672 47.2517 17.8374 47.4754 17.8374H47.5658C47.8448 17.8374 48.0102 17.672 48.0629 17.3404V17.25C48.0629 17.024 47.8971 16.8589 47.5658 16.7529ZM48.8761 16.7529C48.4844 16.8439 48.2887 17.0397 48.2887 17.3404C48.394 17.672 48.5617 17.8374 48.7854 17.8374H48.8761C49.1541 17.8374 49.3218 17.672 49.3744 17.3404V17.25C49.3744 17.024 49.2067 16.8589 48.8761 16.7529ZM54.0985 16.7529C53.7068 16.8439 53.511 17.0397 53.511 17.3404C53.6167 17.672 53.7821 17.8374 54.0074 17.8374H54.0985C54.3764 17.8374 54.5422 17.672 54.5968 17.3404V17.25C54.5968 17.024 54.4294 16.8589 54.0985 16.7529ZM56.7157 16.7529C56.3926 16.7529 56.1962 16.9493 56.1308 17.3404C56.2342 17.672 56.4 17.8374 56.6256 17.8374H56.7157C56.9943 17.8374 57.1601 17.672 57.2128 17.3404V17.25C57.2128 17.024 57.0473 16.8589 56.7157 16.7529ZM61.9064 16.7529C61.5826 16.7529 61.3868 16.9493 61.3192 17.3404C61.4245 17.672 61.5904 17.8374 61.8157 17.8374H61.9064C62.1846 17.8374 62.3481 17.672 62.4031 17.3404V17.25C62.4031 17.024 62.2373 16.8589 61.9064 16.7529ZM63.2143 16.7529C62.8226 16.8439 62.6269 17.0397 62.6269 17.3404C62.7326 17.672 62.8984 17.8374 63.1236 17.8374H63.2143C63.4926 17.8374 63.6581 17.672 63.7111 17.3404V17.25C63.7111 17.024 63.5468 16.8589 63.2143 16.7529ZM50.1838 16.7533C49.8981 16.7533 49.704 16.9191 49.5964 17.2504C49.6588 17.6415 49.8226 17.8372 50.0953 17.8372H50.1838C50.4624 17.8372 50.6282 17.6714 50.6809 17.3401C50.6282 16.9487 50.4624 16.7533 50.1838 16.7533ZM51.4934 16.7533C51.2096 16.7533 51.0116 16.9191 50.9082 17.2504C50.9664 17.6415 51.1321 17.8372 51.4033 17.8372H51.4934C51.7723 17.8372 51.9381 17.6714 51.9904 17.3401C51.9381 16.9487 51.7723 16.7533 51.4934 16.7533ZM52.7566 16.7533C52.4721 16.7533 52.2745 16.9191 52.1708 17.2504C52.2293 17.6415 52.395 17.8372 52.6658 17.8372H52.7566C53.0352 17.8372 53.2003 17.6714 53.253 17.3401C53.2003 16.9487 53.0352 16.7533 52.7566 16.7533ZM55.4099 16.7533C55.1222 16.7533 54.9262 16.9191 54.8205 17.2504C54.8807 17.6415 55.0468 17.8372 55.3179 17.8372H55.4099C55.6866 17.8372 55.8521 17.6714 55.9051 17.3401C55.8521 16.9487 55.6866 16.7533 55.4099 16.7533ZM60.5983 16.7533C60.3103 16.7533 60.1143 16.9191 60.0109 17.2504C60.0695 17.6415 60.2349 17.8372 60.5063 17.8372H60.5983C60.875 17.8372 61.0404 17.6714 61.0931 17.3401C61.0404 16.9487 60.875 16.7533 60.5983 16.7533ZM48.8761 18.0627C48.6141 18.0627 48.4167 18.2438 48.2887 18.603C48.3712 18.9645 48.537 19.1452 48.7854 19.1452H48.831C49.1925 19.1452 49.3744 18.9645 49.3744 18.603V18.5578C49.3744 18.3322 49.2067 18.1668 48.8761 18.0627ZM54.0985 18.0627C53.8368 18.0627 53.6394 18.2438 53.511 18.603C53.5936 18.9645 53.7594 19.1452 54.0074 19.1452H54.053C54.4142 19.1452 54.5968 18.9645 54.5968 18.603V18.5578C54.5968 18.3322 54.4294 18.1668 54.0985 18.0627ZM61.9064 18.0627C61.5146 18.1538 61.3192 18.3472 61.3192 18.6482C61.4245 18.9795 61.5904 19.1452 61.8157 19.1452H61.9064C62.1846 19.1452 62.3481 18.9795 62.4031 18.6482V18.5578C62.4031 18.3322 62.2373 18.1668 61.9064 18.0627ZM63.2143 18.0627C62.9506 18.0627 62.7553 18.2438 62.6269 18.603C62.7098 18.9645 62.8753 19.1452 63.1236 19.1452H63.1691C63.5306 19.1452 63.7111 18.9645 63.7111 18.603V18.5578C63.7111 18.3322 63.5468 18.1668 63.2143 18.0627ZM50.1385 18.0629C49.7773 18.1666 49.5966 18.3473 49.5966 18.6035C49.6736 18.9647 49.8374 19.145 50.0952 19.145H50.1836C50.4622 19.145 50.6277 18.9799 50.6807 18.6483C50.6355 18.2569 50.4548 18.0629 50.1385 18.0629ZM51.4483 18.0629C51.0868 18.1666 50.9084 18.3473 50.9084 18.6035C50.9815 18.9647 51.1473 19.145 51.4032 19.145H51.4935C51.7717 19.145 51.9375 18.9799 51.9905 18.6483C51.9453 18.2569 51.7662 18.0629 51.4483 18.0629ZM52.7109 18.0629C52.3494 18.1666 52.1713 18.3473 52.1713 18.6035C52.2444 18.9647 52.4099 19.145 52.6657 19.145H52.7565C53.0351 19.145 53.2005 18.9799 53.2535 18.6483C53.208 18.2569 53.0291 18.0629 52.7109 18.0629ZM55.3626 18.0629C55.0034 18.1666 54.821 18.3473 54.821 18.6035C54.8961 18.9647 55.0615 19.145 55.3177 19.145H55.4097C55.6863 19.145 55.8525 18.9799 55.9048 18.6483C55.8616 18.2569 55.6789 18.0629 55.3626 18.0629ZM60.5513 18.0629C60.1918 18.1666 60.0111 18.3473 60.0111 18.6035C60.0845 18.9647 60.25 19.145 60.5059 19.145H60.5988C60.8748 19.145 61.0405 18.9799 61.0932 18.6483C61.048 18.2569 60.8673 18.0629 60.5513 18.0629Z" fill="white"/>
</g>
</svg>
