<svg width="71" height="24" viewBox="0 0 71 24" fill="none" xmlns="http://www.w3.org/2000/svg">
<path d="M2 2.20484H21.1689V21.4768H2V2.20484ZM5.9451 5.20484V19.0318L17.9643 11.9644L5.9451 5.20484ZM27.6206 21.2722H24.3128V12.6831H27.6406C30.1065 12.6831 31.5856 14.6349 31.5856 17.1207C31.5856 19.6074 30.2712 21.2722 27.6206 21.2722ZM30.5581 10.7324L29.9019 8.82135H26.737L26.1613 10.7324H24.4358L27.3327 2.12344H29.079L32.3253 10.7324H30.5581ZM27.4767 14.1423H26.1205V19.936H27.5799C29.5108 19.936 29.7987 18.2921 29.7779 17.0392C29.7779 16.0526 29.3053 14.1423 27.4767 14.1423ZM29.3053 7.09504L28.2163 3.93115L27.2513 7.07514L27.1888 7.60834H29.3261C29.3261 7.32144 29.3469 7.25974 29.3053 7.09504ZM32.2029 21.2722V12.6831H38.5307V14.1217H33.9276V15.9502H37.9958V17.5119H33.9484V19.813H38.6746V21.2722H32.2029ZM38.1605 10.7324L34.3802 4.91695V10.7324H32.6547V2.12344H34.4219L38.0573 7.85544V2.12344H39.7836V10.7324H38.1605ZM43.5638 21.2514H41.9201L39.0857 13.1357V12.6831H40.8103L42.742 18.9701L44.6323 12.704H46.3168V13.1558L43.5638 21.2514ZM46.2971 10.7324L45.6388 8.82135H42.4751L41.9002 10.7324H40.1739L43.0708 2.12344H44.8177L48.0632 10.7324H46.2971ZM45.0633 7.13575L43.9748 3.89044L42.885 7.13575V7.60834H45.1048C45.1048 7.32144 45.1048 7.27975 45.0633 7.13575ZM46.8512 12.704H48.6796V21.2514H46.8512V12.704ZM48.4327 10.7324V2.12344H50.1389V9.27314H53.98V10.7324H48.4327ZM53.2204 21.4768C48.516 21.58 47.6928 12.4986 53.2405 12.5601C56.3228 12.5601 56.8568 15.1283 56.9798 15.5184H55.2744C55.0074 14.9852 54.3085 13.9578 53.4468 13.8953C50.406 13.6907 50.406 20.1208 53.4468 20.1208C54.9053 20.1208 55.2548 18.6623 55.336 18.4984H57.0008C57.0008 18.5185 56.7945 21.4361 53.2204 21.4768ZM57.9457 10.8754C52.4186 10.8754 52.6249 1.95855 58.0073 2.00015C63.2055 2.04085 63.3495 10.8754 57.9457 10.8754ZM57.8842 9.43784C61.0682 9.45774 61.0682 3.49934 57.9457 3.45864C54.8438 3.43784 54.7404 9.41704 57.8842 9.43784ZM57.3088 21.2722V12.6831H63.4102V14.2457H58.9527V16.0117H62.8967V17.5525H58.9723V19.813H63.6165V21.2722H57.3088ZM68.8968 10.526V9.70495C68.7122 9.86865 67.8894 10.9169 66.3485 10.8754C61.09 10.7522 61.0682 2.12344 66.5958 2.02024C67.93 2.02024 69.0399 2.86294 69.4718 3.45864C69.9857 4.13664 70.0267 4.71235 70.0472 4.85635H68.5883C68.2594 4.32125 67.7455 3.41774 66.5343 3.41774C63.3285 3.37714 63.1239 9.43785 66.5134 9.49855C68.0133 9.53925 68.7729 7.97864 68.7729 7.95864V7.50605H66.7188V6.17074H70.2519V10.526H68.8968ZM67.2935 21.4977C63.6571 21.4977 63.6981 18.7032 63.6981 18.7032H65.342C65.342 18.7032 65.2181 20.0593 67.0482 20.1825C67.5002 20.2031 68.9792 20.0186 68.9792 18.9909C68.9792 17.7997 67.4784 17.8603 66.5343 17.5942C65.5881 17.347 63.801 16.936 63.801 15.2722C63.801 13.8137 64.9925 12.5601 67.2935 12.5601C70.3762 12.5809 70.3552 14.9644 70.3762 15.1083H68.7946C68.6904 14.7581 68.5883 13.9162 67.2123 13.8754C66.5343 13.8754 65.5064 14.1017 65.5064 14.9019C65.5064 15.9095 66.6565 16.0526 67.8693 16.2371C69.6982 16.5875 70.7461 17.1426 70.6838 18.8262C70.6432 20.3055 69.3278 21.4977 67.2935 21.4977Z" fill="white"/>
</svg>
