<svg width="261" height="27" viewBox="0 0 261 27" fill="none" xmlns="http://www.w3.org/2000/svg">
<g clip-path="url(#clip0_183_319)">
<path d="M180.609 20.9107H185.184V1.11877L185.511 0.793878H193.136C193.315 0.793878 194.791 1.33463 195.061 1.47636C200.454 6.53065 204.732 12.7864 209.574 18.3814L210.237 18.5275V0.796058H227.993L228.32 1.12095V26.5341H221.349V6.74433L221.022 6.41944H217.208V26.5341H208.82C208.015 26.5341 206.145 24.986 205.549 24.3733C201.324 20.0298 197.735 14.3236 193.572 9.87546C193.258 9.53967 192.903 9.23877 192.589 8.90298L192.153 9.12102V26.5319H174.833L174.548 26.1678C174.046 23.5011 173.736 20.5226 173.058 17.9148C172.932 17.4285 172.856 16.9314 172.437 16.5847H155.551V26.5341H148.581V10.9613H172.219C173.353 10.9613 173.161 6.99508 172.675 6.61568L119.825 6.53065C119.722 6.57862 119.387 6.92313 119.387 6.96019V10.7455H144.44V16.3688H119.711L119.384 16.6937V20.37C119.384 20.4092 119.89 20.9107 119.929 20.9107H144.44V26.5341H117.969C116.094 26.5341 113.153 24.1073 112.645 22.304C112.034 20.1323 112.171 9.2126 112.405 6.51974C112.714 2.96343 115.723 1.1144 119.062 0.798239L172.88 0.785156C179.321 1.22997 180.727 5.46658 179.931 11.2666C179.805 12.1824 178.632 13.7087 178.656 13.8526C178.684 14.0096 179.301 14.4544 179.508 14.9668C180.178 16.6174 180.158 19.1446 180.603 20.9085L180.609 20.9107Z" fill="#E00003"/>
<path d="M41.1756 20.9123V1.12031L41.5027 0.795419H49.1277C50.3793 0.795419 52.0997 2.19091 52.9457 3.06091C57.1322 7.3564 60.682 13.0757 64.8096 17.4519C65.1737 17.8378 65.6621 18.4876 66.229 18.5312V0.797599H102.721C104.677 0.797599 107.603 2.67933 108.36 4.50001C108.935 5.88459 108.938 11.2768 108.32 12.6287C108.17 12.9602 107.679 13.2916 107.645 13.4813C107.607 13.6862 108.597 14.9902 108.698 15.6268C108.87 16.7171 108.859 20.9864 108.658 22.0505C108.314 23.8755 105.139 26.5356 103.373 26.5356H77.0114L76.7323 26.2108C76.7257 26.1235 76.9023 26.0472 76.9023 25.9949V10.747H101.413L101.74 10.4221V6.96173C101.74 6.92249 101.234 6.42098 101.195 6.42098H73.527L73.1999 6.74587V26.5356H64.8117C64.162 26.5356 62.3871 25.2099 61.8638 24.7041C57.5443 20.5154 53.7896 14.3426 49.5638 9.87918C49.2477 9.54557 48.8966 9.24249 48.5805 8.9067L48.1444 9.12474V26.5356H11.5477L14.5981 20.9123H25.9277L19.1945 8.94158C18.9917 8.67993 18.5077 8.75407 18.2373 8.84346C17.2583 9.16835 9.16008 24.5514 7.84308 26.5356H0L14.0661 2.3261C16.1964 -0.384205 21.0435 -0.342777 23.0932 2.41985L33.8777 20.9123H41.1756ZM83.8776 20.9123H101.415L101.742 20.5874V16.9111C101.742 16.8719 101.236 16.3704 101.197 16.3704H83.8776V20.9123Z" fill="#E00003"/>
<path d="M261 6.42026H239.976C239.939 6.42026 239.592 6.75387 239.544 6.85635V20.4754C239.592 20.5779 239.939 20.9115 239.976 20.9115H261V26.5349H238.016C236.006 26.5349 233.18 23.9991 232.691 22.0868C232.068 19.6403 232.201 9.39875 232.451 6.52056C232.709 3.57259 235.696 0.796875 238.668 0.796875H260.673L261 1.12176V6.42026Z" fill="#E00003"/>
</g>
<defs>
<clipPath id="clip0_183_319">
<rect width="261" height="26.2156" fill="white" transform="translate(0 0.318359)"/>
</clipPath>
</defs>
</svg>
