<svg width="125" height="50" viewBox="0 0 125 50" fill="none" xmlns="http://www.w3.org/2000/svg">
<g clip-path="url(#clip0_48_452)">
<g clip-path="url(#clip1_48_452)">
<path d="M13.2381 13.0923L16.106 13.0881C16.7001 13.0879 17.3259 13.0686 17.9167 13.1155C20.0596 13.2857 22.0162 14.6692 22.8748 16.6434C23.2865 17.59 23.6745 18.5423 24.0684 19.4957L26.2314 24.7332L32.9701 41.0325C33.2135 41.6193 35.2262 46.3836 35.2016 46.5369L35.1421 46.5707H26.9243C26.7029 45.9241 26.1442 44.7131 25.8636 44.0482L23.6605 38.8268L10.9926 38.8265C10.131 40.8646 8.6778 44.3594 7.72876 46.5175C7.6938 46.5382 7.66388 46.556 7.63902 46.5707H-0.593994V46.5068C0.675869 43.5699 1.90096 40.4987 3.12589 37.5365L10.1086 20.6494C11.1355 18.1658 12.1705 15.5503 13.2381 13.0923ZM12.5953 32.8446L17.4702 32.8447L22.097 32.8444L18.6032 24.2547C18.4576 23.8973 17.4716 21.382 17.3357 21.231L14.1817 28.9648C13.7179 30.103 13.1023 31.7632 12.5953 32.8446Z" fill="#192E63"/>
<path d="M91.6501 4H93.0589C93.4191 4.05373 93.7799 4.08827 94.1417 4.13339C95.9764 4.36243 97.7379 4.92178 99.4427 5.62334C101.211 6.35128 102.866 7.28807 104.55 8.18776L111.11 11.6928L119.961 16.4683L122.867 18.0411C123.255 18.251 123.798 18.5108 124.158 18.7297C124.367 18.8561 124.551 19.0222 124.697 19.2186C124.96 19.5771 125.057 19.9782 125.123 20.4094V20.474C125.052 20.8918 124.989 21.1961 124.754 21.5489C123.532 23.3865 121.746 22.0081 120.494 21.3261C119.453 20.7693 118.414 20.207 117.379 19.6393L104.984 12.9643C101.948 11.3424 99.4003 9.8206 96.1699 8.68394C90.3783 6.6461 86.7599 9.64527 82.14 12.672C79.0219 14.7147 75.6086 16.6837 72.1075 18.0009C71.5193 18.2222 70.7755 18.5115 70.1596 18.6556L69.6568 18.8131C63.8641 20.593 57.8244 20.2732 52.1995 18.0983C50.0823 17.2796 47.6577 16.0615 45.3394 16.293C41.8741 16.6833 38.7223 18.6854 35.7009 20.2935C34.4626 20.9526 33.1705 22.2169 31.7792 21.2076C31.3319 20.8816 31.0327 20.3909 30.9476 19.8438C30.8649 19.3181 30.9808 18.8135 31.2956 18.3833C31.4444 18.1817 31.6272 18.0076 31.8358 17.8687C32.2461 17.5904 32.8359 17.3238 33.2846 17.0791C36.7857 15.1696 40.395 12.986 44.3911 12.3822C47.9579 11.8432 50.8802 13.3319 54.0918 14.5432C58.3489 16.1488 63.1027 16.4202 67.5027 15.2665C72.2767 14.0813 76.5303 11.5844 80.5948 8.89974C83.5185 6.9686 86.5446 4.84156 90.0529 4.21612C90.59 4.12033 91.1145 4.08189 91.6501 4Z" fill="#298838"/>
<path d="M60.4209 24.628L66.5794 24.6268C70.118 24.6273 74.1734 24.2923 76.8874 26.9904C78.9853 29.0759 79.5341 32.8207 79.5366 35.6681C79.5391 38.458 78.9191 42.5316 76.8373 44.5634C75.1532 46.2074 72.9264 46.4732 70.6768 46.528C70.4964 46.5323 70.2044 46.5047 70.0376 46.5702H60.4204L60.4209 24.628ZM64.8326 42.627C66.3106 42.6293 68.9614 42.7118 70.3499 42.5637L70.7086 42.5139C71.7753 42.2994 72.7788 41.9623 73.3852 40.9845C74.7353 38.8069 74.9374 35.5371 74.4503 33.0736C74.1881 31.7461 73.5954 30.0526 72.4408 29.3131C71.0512 28.4233 69.216 28.5578 67.6481 28.5587L64.8326 28.5624V42.627Z" fill="#192E63"/>
<path d="M38.2714 24.6284C39.8139 24.6233 43.3527 24.2939 44.4395 25.5311C45.7761 27.0527 46.6745 29.2988 47.6955 31.0666C49.4926 34.2932 51.1504 37.7341 52.9584 40.9302L52.9589 24.6336C54.6642 24.6572 56.9593 25.0355 57.3322 27.1616C57.4479 27.8193 57.3908 28.7858 57.3903 29.4688L57.3883 33.161L57.3878 46.5707H51.6911C51.3915 46.1085 50.969 45.2882 50.6926 44.7914L48.7365 41.2719L42.76 30.5132L42.7597 46.5707H38.3523C38.334 46.5497 38.312 46.5243 38.2864 46.4947C38.2562 45.1477 38.27 43.2334 38.2699 41.9531L38.2714 24.6284Z" fill="#192E63"/>
<path d="M94.3078 46.57C94.0921 46.5073 92.9092 46.495 92.6075 46.483C89.1589 46.3449 85.9604 45.3676 84.1681 42.1465C81.3138 36.9869 82.0702 28.9592 87.4899 25.7912C88.2085 25.3675 88.9927 25.0677 89.8107 24.9044C91.2968 24.6039 97.2517 24.4343 98.6205 24.7959C99.676 25.0748 100.626 25.7392 101.174 26.6937C101.504 27.2678 101.658 27.9042 101.693 28.5622L96.5907 28.5609C94.4165 28.5615 91.2948 28.2576 89.642 29.87C88.5707 30.9151 88.4328 32.2755 88.3232 33.6859L101.676 33.686V37.621H88.3186C88.4732 39.0019 88.8537 40.5314 90.0073 41.4225C91.8359 42.8352 95.2143 42.6266 97.4371 42.6268L101.677 42.6267L101.676 46.57H94.3078Z" fill="#192E63"/>
<path d="M104.685 37.4605L104.681 33.0404C104.681 31.8709 104.605 30.2233 104.879 29.1415C105.138 28.1247 105.664 27.1957 106.402 26.4502C107.953 24.8897 109.532 24.699 111.58 24.6997L116.138 24.7025C117.056 24.7003 118.829 24.6355 119.62 24.8167C120.336 24.9789 120.992 25.3391 121.513 25.856C122.268 26.6123 122.609 27.5667 122.651 28.622L114.627 28.6194C113.875 28.6193 113.111 28.6254 112.36 28.6191C111.425 28.6112 110.697 28.5808 109.986 29.289C109.343 29.9293 109.303 30.6189 109.305 31.4781L109.315 33.5851L114.243 33.5829C116.893 33.5831 120.116 33.2633 122.119 35.2784C124.405 37.5775 124.42 42.1882 122.109 44.4822C120.714 45.8522 118.826 46.3169 116.934 46.4581C116.559 46.4916 115.795 46.5156 115.468 46.5705H104.683L104.684 42.6862L111.81 42.6875C113.366 42.6872 114.923 42.7556 116.466 42.5437C117.532 42.3974 118.255 41.9882 118.559 40.9029C118.922 39.5982 118.367 37.7993 116.847 37.6095C115.297 37.4159 113.698 37.4597 112.135 37.4595L104.685 37.4605Z" fill="#EEAB24"/>
<path d="M120.18 9.71304L120.918 9.71335C121.25 10.5435 121.703 11.5597 121.973 12.3911C122.265 11.5479 122.711 10.5491 123.058 9.71299L123.762 9.71289C123.759 10.237 123.83 12.7879 123.694 13.0937L123.577 13.1365C123.427 13.1163 123.411 13.0992 123.299 13.0013C123.188 12.8356 123.243 11.2328 123.244 10.881C123.254 10.6968 123.275 10.5212 123.224 10.3441C123.084 10.7908 122.334 12.6986 122.108 13.0671L121.861 13.064C121.628 12.9135 120.778 10.6663 120.668 10.268C120.672 11.0887 120.687 11.9851 120.685 12.8083C120.685 12.9035 120.624 13.005 120.558 13.0749C120.368 13.1395 120.445 13.1366 120.251 13.088C120.118 12.8441 120.179 10.2003 120.18 9.71304Z" fill="#298838"/>
<path d="M117.23 9.71285C117.59 9.7125 119.498 9.64379 119.669 9.78475C119.659 10.0047 119.689 9.95058 119.583 10.1255C119.392 10.2256 118.957 10.1733 118.709 10.168L118.709 12.1145C118.707 12.4564 118.825 12.8916 118.555 13.0902C118.423 13.1049 118.326 13.1324 118.213 13.0721C118.147 12.3747 118.187 10.9262 118.191 10.1678C117.932 10.1711 117.498 10.2231 117.303 10.125C117.197 9.97616 117.232 9.91999 117.23 9.71285Z" fill="#298838"/>
</g>
</g>
<defs>
<clipPath id="clip0_48_452">
<rect width="125" height="50" fill="white"/>
</clipPath>
<clipPath id="clip1_48_452">
<rect width="125.717" height="42.5707" fill="white" transform="translate(-0.593994 4)"/>
</clipPath>
</defs>
</svg>
