<svg width="125" height="50" viewBox="0 0 125 50" fill="none" xmlns="http://www.w3.org/2000/svg">
<path d="M39 39.3879H55.6167H59.0223L55.9984 33.6993H48.7469L54.2369 22.6992L63.2792 39.3879H70.0903L54.413 9L39 39.3879Z" fill="#1C2C4E"/>
<path d="M86.7658 9H56.0571L56.9379 10.7704H85.885L86.7658 9Z" fill="#ED1B23"/>
<path d="M84.0356 14.3691L84.9457 12.5986H57.8481L58.7289 14.3691H84.0356Z" fill="#ED1B23"/>
<path d="M59.6387 16.1689L60.5194 17.9394H82.2151L83.1252 16.1689H59.6387Z" fill="#ED1B23"/>
<path d="M62.3104 21.5087H80.3951L81.3052 19.7383H61.4297L62.3104 21.5087Z" fill="#ED1B23"/>
<path d="M64.1014 25.08H78.575L79.4851 23.3096H63.2207L64.1014 25.08Z" fill="#ED1B23"/>
<path d="M65.892 28.6494H76.7545L77.6352 26.8789H65.0112L65.892 28.6494Z" fill="#ED1B23"/>
<path d="M67.683 32.2187H74.9051L75.8152 30.4482H66.8022L67.683 32.2187Z" fill="#ED1B23"/>
<path d="M69.4736 35.8183H73.0846L73.9947 34.0479H68.5635L69.4736 35.8183Z" fill="#ED1B23"/>
<path d="M71.2646 39.3876L72.1747 37.6172H70.3545L71.2646 39.3876Z" fill="#ED1B23"/>
</svg>
