<svg width="147" height="32" viewBox="0 0 147 32" fill="none" xmlns="http://www.w3.org/2000/svg">
<g clip-path="url(#clip0_2216_3088)">
<path d="M49.9376 0.221191H51.6776L55.1259 9.19005H53.3543L52.6583 7.33933H48.9885L48.245 9.20587H46.4734L49.9376 0.221191ZM50.8234 2.60972L49.6212 5.69425H52.0256L50.8234 2.60972Z" fill="white"/>
<path d="M56.4388 0.221191H58.1472V7.56079H60.6306V9.19005H56.4388V0.221191Z" fill="white"/>
<path d="M61.9435 0.221191H63.7467C64.7275 0.221191 65.4393 0.3161 65.8664 0.490099C66.2935 0.664098 66.6415 0.964642 66.8945 1.37591C67.1476 1.78718 67.2742 2.26173 67.2742 2.83118C67.2742 3.4639 67.116 3.9859 66.7838 4.39717C66.4516 4.80844 66.0087 5.09316 65.4551 5.26716C65.1229 5.36207 64.5218 5.40953 63.6518 5.40953V9.20587H61.9435V0.221191ZM63.6518 3.73281H64.1896C64.6167 3.73281 64.9173 3.70117 65.0755 3.6379C65.2495 3.57463 65.376 3.47972 65.4709 3.33736C65.5658 3.19499 65.6133 3.02099 65.6133 2.83118C65.6133 2.48318 65.4867 2.23009 65.2178 2.07191C65.028 1.96118 64.6642 1.89791 64.1264 1.89791H63.6518V3.73281Z" fill="white"/>
<path d="M68.9351 0.221191H70.6751V3.60626H73.6647V0.221191H75.3889V9.19005H73.6647V5.26716H70.6751V9.20587H68.9351V0.221191Z" fill="white"/>
<path d="M80.1818 0.221191H81.9218L85.3701 9.19005H83.5985L82.8867 7.35515H79.2169L78.4893 9.20587H76.7177L80.1818 0.221191ZM81.0518 2.60972L79.8496 5.69425H82.254L81.0518 2.60972Z" fill="white"/>
<path d="M94.418 6.99169L94.8293 7.41878C94.5762 7.65605 94.3231 7.84586 94.0858 8.01986C94.244 8.16223 94.4655 8.36786 94.7185 8.63677C94.9242 8.8424 95.0982 9.03222 95.2564 9.20622H94.418L93.6271 8.38368C93.1209 8.77913 92.7255 9.04804 92.4091 9.17458C92.0927 9.30113 91.7606 9.3644 91.4284 9.3644C90.9697 9.3644 90.59 9.23786 90.3211 8.96895C90.0364 8.70004 89.9099 8.36786 89.9099 7.97241C89.9099 7.67187 90.0048 7.37132 90.1946 7.07078C90.3844 6.77023 90.764 6.3906 91.3493 5.93188C91.0171 5.53642 90.8115 5.2517 90.7166 5.06188C90.6217 4.87206 90.5742 4.69806 90.5742 4.52407C90.5742 4.22352 90.6849 3.98625 90.9222 3.78062C91.1911 3.55916 91.5233 3.43262 91.9187 3.43262C92.1718 3.43262 92.3933 3.48007 92.5989 3.5908C92.8046 3.68571 92.9627 3.82807 93.0735 4.00207C93.1842 4.17607 93.2317 4.35007 93.2317 4.53988C93.2317 4.74552 93.1684 4.95115 93.026 5.18843C92.8836 5.40988 92.5989 5.71042 92.1877 6.05842L93.0893 7.00751L93.6904 7.60859C93.9751 7.3555 94.2282 7.14987 94.418 6.99169ZM91.7131 6.37478C91.2069 6.75442 90.8748 7.05496 90.7166 7.29223C90.5584 7.51368 90.4793 7.73514 90.4793 7.92496C90.4793 8.14641 90.5742 8.35204 90.764 8.52604C90.9538 8.70004 91.1911 8.79495 91.4758 8.79495C91.6815 8.79495 91.9029 8.7475 92.0927 8.66841C92.4091 8.52604 92.7887 8.28877 93.2 7.95659L92.2509 6.99169C92.0927 6.81769 91.9187 6.61205 91.7131 6.37478ZM91.7922 5.58388C92.0769 5.36242 92.2984 5.14097 92.4407 4.91952C92.5515 4.76134 92.5989 4.63479 92.5989 4.50825C92.5989 4.36588 92.5356 4.25516 92.3933 4.14443C92.2509 4.0337 92.0769 3.98625 91.8555 3.98625C91.6498 3.98625 91.4758 4.0337 91.3335 4.14443C91.2069 4.25516 91.1278 4.36588 91.1278 4.50825C91.1278 4.61897 91.1595 4.71388 91.2069 4.80879C91.3651 5.06188 91.5549 5.31497 91.7922 5.58388Z" fill="white"/>
<path d="M104.225 0C105.491 0 106.582 0.458725 107.5 1.37617C108.417 2.29362 108.876 3.41671 108.876 4.74543C108.876 6.05833 108.417 7.1656 107.515 8.06723C106.614 8.96886 105.522 9.42758 104.241 9.42758C102.897 9.42758 101.773 8.96886 100.888 8.03559C100.002 7.10232 99.5431 5.99506 99.5431 4.71379C99.5431 3.85961 99.7488 3.06871 100.16 2.34108C100.571 1.61345 101.141 1.04399 101.868 0.632724C102.612 0.205635 103.387 0 104.225 0ZM104.209 1.6609C103.371 1.6609 102.675 1.94563 102.121 2.53089C101.552 3.11616 101.267 3.8438 101.267 4.72961C101.267 5.72615 101.631 6.50124 102.343 7.08651C102.897 7.54523 103.529 7.76668 104.241 7.76668C105.048 7.76668 105.744 7.46614 106.313 6.88087C106.883 6.2956 107.167 5.56797 107.167 4.71379C107.167 3.85961 106.883 3.13198 106.313 2.54671C105.728 1.96144 105.032 1.6609 104.209 1.6609Z" fill="white"/>
<path d="M111.359 0.221191H113.02L115.092 6.48516L117.196 0.221191H118.857L120.36 9.19005H118.715L117.75 3.52717L115.836 9.19005H114.333L112.451 3.52717L111.47 9.19005H109.809L111.359 0.221191Z" fill="white"/>
<path d="M121.736 0.221191H126.639V1.89791H123.428V3.52717H126.639V5.17225H123.428V7.52915H126.639V9.20587H121.736V0.221191Z" fill="white"/>
<path d="M136.51 1.69283L135.308 2.87919C134.549 2.07247 133.663 1.67701 132.65 1.67701C131.765 1.67701 131.021 1.97756 130.436 2.56283C129.851 3.1481 129.534 3.85991 129.534 4.69827C129.534 5.56826 129.851 6.2959 130.468 6.89698C131.084 7.49807 131.844 7.79861 132.761 7.79861C133.346 7.79861 133.853 7.67207 134.248 7.41898C134.659 7.16589 134.976 6.78626 135.229 6.24844H132.635V4.65081H137.143L137.159 5.03045C137.159 5.82135 136.953 6.5648 136.542 7.2608C136.13 7.9568 135.608 8.49461 134.96 8.87424C134.311 9.23806 133.552 9.42788 132.682 9.42788C131.749 9.42788 130.926 9.22224 130.183 8.82679C129.455 8.41552 128.87 7.84607 128.443 7.10262C128.016 6.35917 127.81 5.55245 127.81 4.68245C127.81 3.49609 128.206 2.46792 128.981 1.5821C129.914 0.53811 131.132 0.0161133 132.619 0.0161133C133.394 0.0161133 134.137 0.158476 134.802 0.443202C135.403 0.680473 135.972 1.09174 136.51 1.69283Z" fill="white"/>
<path d="M141.461 0.221191H143.201L146.649 9.19005H144.878L144.182 7.33933H140.512L139.784 9.19005H138.013L141.461 0.221191ZM142.347 2.60972L141.145 5.69425H143.549L142.347 2.60972Z" fill="white"/>
<path d="M23.9328 13.6508L26.7326 5.09326L24.3757 5.23562C23.6322 5.31471 23.2842 5.4729 22.8888 5.82089C19.6303 8.87379 10.0761 17.3997 6.56451 20.4526H9.91795C10.7879 19.3454 13.5719 16.4665 14.347 15.5965C14.347 15.5965 15.4543 15.1061 16.5774 14.9954C17.6214 14.7265 21.6866 14.7581 21.6866 14.7581L15.2328 31.9998H18.4439L23.5848 14.7898C23.5848 14.7898 29.5324 14.4259 30.5447 14.853L31.304 13.113C30.3707 13.635 23.9328 13.6508 23.9328 13.6508ZM22.2086 13.6508L17.8428 13.8723C17.2101 13.8723 16.609 13.6192 16.7988 13.4136C18.2857 11.8318 20.8483 9.50651 23.047 7.37107C23.2368 7.18125 24.3757 6.24798 25.0875 6.23216L22.2086 13.6508Z" fill="white"/>
<path d="M0 0V20.4686H6.56451C4.84034 18.9026 4.69797 16.3875 6.59614 13.8566C10.1078 9.15868 19.219 5.37815 26.954 5.39397C34.6891 5.40979 38.1058 9.23777 34.5942 13.9199C32.696 16.4508 29.1686 18.9026 25.1033 20.4528H40.0356V0H0Z" fill="#144D8E"/>
<path d="M49.9694 18.175C49.7954 18.0485 49.5898 17.9535 49.3525 17.8903C49.1152 17.8112 48.8463 17.7637 48.5616 17.7005C48.3085 17.653 48.087 17.6055 47.8972 17.5423C47.7232 17.479 47.565 17.4157 47.4543 17.3366C47.3436 17.2575 47.2645 17.1785 47.217 17.0677C47.1696 16.9728 47.138 16.8305 47.138 16.6881C47.138 16.4034 47.2487 16.1819 47.4701 16.0237C47.7074 15.8497 48.0396 15.7706 48.4667 15.7706C48.9096 15.7706 49.2576 15.8814 49.4948 16.087C49.7321 16.2926 49.8903 16.5774 49.9378 16.957L49.9536 17.0994H50.3807L50.349 16.9095C50.2857 16.4508 50.0801 16.0712 49.7796 15.7865C49.4632 15.5017 49.0203 15.3594 48.4667 15.3594C48.2136 15.3594 47.9763 15.391 47.7707 15.4385C47.5492 15.5017 47.3752 15.5808 47.217 15.6916C47.0589 15.8023 46.9323 15.9446 46.8532 16.1186C46.7741 16.2926 46.7267 16.4825 46.7267 16.6881C46.7267 16.9095 46.7741 17.0994 46.8532 17.2575C46.9323 17.4157 47.0589 17.5581 47.217 17.6688C47.3752 17.7795 47.565 17.8745 47.7865 17.9377C48.0079 18.001 48.2452 18.0643 48.5299 18.1117C48.8147 18.1592 49.0519 18.2224 49.2734 18.2857C49.479 18.349 49.6372 18.4281 49.7796 18.523C49.9061 18.6179 50.001 18.7128 50.0643 18.8394C50.1276 18.9659 50.1592 19.1083 50.1592 19.2981C50.1592 19.6303 50.0485 19.8833 49.7954 20.089C49.5423 20.2946 49.1785 20.3895 48.7039 20.3895C48.4034 20.3895 48.1503 20.3579 47.9447 20.2788C47.739 20.2155 47.565 20.1048 47.4227 19.9941C47.2803 19.8675 47.1854 19.7252 47.1063 19.5512C47.0272 19.3772 46.9798 19.1874 46.964 18.9817L46.9481 18.8394H46.5369L46.5527 19.0134C46.5685 19.2664 46.6318 19.5037 46.7267 19.7252C46.8216 19.9466 46.964 20.1364 47.138 20.2946C47.3119 20.4528 47.5334 20.5793 47.8023 20.6743C48.0554 20.7692 48.3718 20.8166 48.7039 20.8166C48.9887 20.8166 49.2576 20.785 49.479 20.7059C49.7163 20.6426 49.9061 20.5319 50.0801 20.4053C50.2383 20.2788 50.3807 20.1048 50.4598 19.9308C50.5388 19.741 50.5863 19.5354 50.5863 19.3139C50.5863 19.0608 50.5388 18.8552 50.4439 18.6654C50.2858 18.4439 50.1434 18.3015 49.9694 18.175Z" fill="white"/>
<path d="M54.9838 18.1751H57.9101V17.748H54.9838V15.8024H58.1474V15.3911H54.5567V20.7218H58.2265V20.3105H54.9838V18.1751Z" fill="white"/>
<path d="M71.9723 15.3911H71.5452V20.7218H71.9723V15.3911Z" fill="white"/>
<path d="M80.2927 18.776C80.2611 18.9816 80.2136 19.1873 80.1187 19.3929C80.0396 19.5827 79.9131 19.7567 79.7707 19.8991C79.6283 20.0414 79.4385 20.168 79.2329 20.2471C79.0273 20.342 78.79 20.3736 78.5211 20.3736C78.2205 20.3736 77.9358 20.3103 77.6827 20.2154C77.4296 20.1047 77.224 19.9465 77.05 19.7567C76.876 19.5511 76.7336 19.3138 76.6387 19.0291C76.5438 18.7443 76.4964 18.4122 76.4964 18.0642C76.4964 17.732 76.5438 17.4156 76.6387 17.1309C76.7336 16.8462 76.876 16.6089 77.05 16.4033C77.224 16.1976 77.4455 16.0395 77.6985 15.9287C77.9516 15.818 78.2522 15.7547 78.5685 15.7547C78.8216 15.7547 79.0431 15.7864 79.2487 15.8655C79.4385 15.9445 79.6125 16.0395 79.7549 16.1502C79.8973 16.2609 80.008 16.4033 80.0871 16.5456C80.1662 16.7038 80.2294 16.862 80.2452 17.0202L80.2611 17.1467H80.6723L80.6407 16.9727C80.6091 16.7671 80.5458 16.5614 80.4351 16.3558C80.3243 16.166 80.182 15.992 80.008 15.8338C79.834 15.6915 79.6283 15.5649 79.3753 15.47C79.138 15.3751 78.8533 15.3276 78.5527 15.3276C78.1731 15.3276 77.8251 15.3909 77.5245 15.5333C77.224 15.6756 76.9551 15.8655 76.7336 16.1027C76.5122 16.34 76.354 16.6405 76.2433 16.9727C76.1325 17.3049 76.0693 17.6687 76.0693 18.0483C76.0693 18.4596 76.1325 18.8234 76.2433 19.1556C76.354 19.4878 76.528 19.7883 76.7336 20.0256C76.9551 20.2629 77.2082 20.4527 77.5087 20.5792C77.8093 20.7058 78.1414 20.7691 78.5053 20.7691C78.8374 20.7691 79.138 20.7058 79.3911 20.5951C79.6442 20.4843 79.8656 20.342 80.0554 20.1522C80.2453 19.9623 80.3876 19.7567 80.4983 19.5194C80.6091 19.2822 80.6723 19.0449 80.6882 18.776L80.704 18.602H80.2927V18.776Z" fill="white"/>
<path d="M88.8503 16.1188C88.6288 15.8816 88.3599 15.6917 88.0594 15.5494C87.7588 15.407 87.4108 15.3438 87.047 15.3438C86.6832 15.3438 86.351 15.407 86.0347 15.5494C85.7341 15.6917 85.4652 15.8816 85.2438 16.1188C85.0223 16.3561 84.8483 16.6567 84.7218 16.9888C84.5952 17.321 84.532 17.6848 84.532 18.0645C84.532 18.4599 84.5952 18.8237 84.7218 19.1401C84.8483 19.4723 85.0223 19.757 85.2438 19.9943C85.4652 20.2315 85.7341 20.4372 86.0347 20.5637C86.3352 20.7061 86.6832 20.7694 87.0312 20.7694C87.395 20.7694 87.7272 20.7061 88.0436 20.5637C88.3441 20.4214 88.613 20.2315 88.8345 19.9943C89.0559 19.757 89.2299 19.4565 89.3565 19.1401C89.483 18.8079 89.5463 18.4441 89.5463 18.0645C89.5463 17.6848 89.483 17.321 89.3565 16.9888C89.2457 16.6408 89.0717 16.3561 88.8503 16.1188ZM87.047 20.3581C86.7465 20.3581 86.4618 20.2948 86.2087 20.1841C85.9556 20.0734 85.7341 19.8994 85.5601 19.7095C85.3861 19.5039 85.2279 19.2666 85.133 18.9819C85.0381 18.6972 84.9749 18.3966 84.9749 18.0645C84.9749 17.7323 85.0223 17.4159 85.133 17.147C85.2279 16.8623 85.3703 16.625 85.5601 16.4194C85.7341 16.2137 85.9556 16.0556 86.2087 15.929C86.4618 15.8183 86.7465 15.755 87.047 15.755C87.3476 15.755 87.6323 15.8183 87.8854 15.929C88.1385 16.0397 88.3599 16.2137 88.5339 16.4194C88.7237 16.625 88.8661 16.8781 88.961 17.147C89.0717 17.4317 89.1192 17.7323 89.1192 18.0645C89.1192 18.3966 89.0717 18.6972 88.961 18.9819C88.8661 19.2666 88.7079 19.5039 88.5339 19.7095C88.3599 19.9152 88.1385 20.0734 87.8854 20.1999C87.6323 20.2948 87.3476 20.3581 87.047 20.3581Z" fill="white"/>
<path d="M105.649 16.2137C105.475 15.9606 105.238 15.7549 104.953 15.6126C104.668 15.4702 104.336 15.3911 103.941 15.3911H101.948V20.7218H103.893C104.273 20.7218 104.621 20.6427 104.906 20.5162C105.19 20.3738 105.428 20.184 105.617 19.9309C105.791 19.6936 105.934 19.4089 106.029 19.0925C106.124 18.7762 106.155 18.444 106.155 18.096C106.155 17.748 106.108 17.4158 106.029 17.0995C105.965 16.7673 105.823 16.4667 105.649 16.2137ZM103.909 20.3105H102.375V15.8024H103.957C104.241 15.8024 104.478 15.8498 104.7 15.9606C104.921 16.0713 105.095 16.2137 105.254 16.4035C105.412 16.5933 105.522 16.8464 105.602 17.1153C105.681 17.4 105.728 17.7164 105.728 18.0802C105.728 18.4282 105.681 18.7604 105.602 19.0293C105.522 19.2982 105.396 19.5355 105.238 19.7253C105.08 19.9151 104.89 20.0575 104.668 20.1524C104.447 20.2631 104.194 20.3105 103.909 20.3105Z" fill="white"/>
<path d="M113.669 18.9027C113.669 19.1716 113.621 19.4089 113.542 19.5829C113.463 19.7727 113.352 19.9151 113.21 20.0258C113.068 20.1365 112.91 20.2156 112.72 20.2789C112.324 20.3896 111.85 20.3896 111.486 20.2789C111.296 20.2314 111.138 20.1365 111.011 20.0258C110.869 19.9151 110.774 19.7727 110.695 19.5829C110.616 19.3931 110.568 19.1716 110.568 18.9027V15.3911H110.141V18.9027C110.141 19.2349 110.189 19.5196 110.3 19.7569C110.41 19.9942 110.553 20.1998 110.727 20.3422C110.901 20.5004 111.122 20.6111 111.359 20.6744C111.597 20.7376 111.85 20.7693 112.103 20.7693C112.356 20.7693 112.609 20.7376 112.846 20.6744C113.084 20.6111 113.305 20.5004 113.479 20.3422C113.653 20.184 113.811 19.9942 113.922 19.7569C114.033 19.5196 114.08 19.2349 114.08 18.9027V15.3911H113.653V18.9027H113.669Z" fill="white"/>
<path d="M122.305 18.776C122.274 18.9816 122.226 19.1873 122.131 19.3929C122.052 19.5827 121.926 19.7567 121.783 19.8991C121.641 20.0414 121.451 20.168 121.246 20.2471C121.04 20.342 120.803 20.3736 120.534 20.3736C120.233 20.3736 119.949 20.3103 119.696 20.2154C119.442 20.1047 119.237 19.9465 119.063 19.7567C118.889 19.5511 118.746 19.3138 118.652 19.0291C118.557 18.7443 118.509 18.4122 118.509 18.0642C118.509 17.732 118.557 17.4156 118.652 17.1309C118.746 16.8462 118.889 16.6089 119.063 16.4033C119.237 16.1976 119.458 16.0395 119.711 15.9287C119.964 15.818 120.265 15.7547 120.581 15.7547C120.834 15.7547 121.056 15.7864 121.261 15.8655C121.451 15.9445 121.625 16.0395 121.768 16.1502C121.91 16.2609 122.021 16.4033 122.1 16.5456C122.179 16.7038 122.242 16.862 122.258 17.0202L122.274 17.1467H122.685L122.653 16.9727C122.622 16.7671 122.559 16.5614 122.448 16.3558C122.337 16.166 122.195 15.992 122.021 15.8338C121.847 15.6915 121.641 15.5649 121.388 15.47C121.151 15.3751 120.866 15.3276 120.566 15.3276C120.186 15.3276 119.838 15.3909 119.537 15.5333C119.237 15.6756 118.968 15.8655 118.746 16.1027C118.525 16.34 118.367 16.6405 118.256 16.9727C118.145 17.3049 118.082 17.6687 118.082 18.0483C118.082 18.4596 118.145 18.8234 118.256 19.1556C118.367 19.4878 118.541 19.7883 118.746 20.0256C118.968 20.2629 119.221 20.4527 119.522 20.5792C119.822 20.7058 120.154 20.7691 120.518 20.7691C120.85 20.7691 121.151 20.7058 121.404 20.5951C121.657 20.4843 121.878 20.342 122.068 20.1522C122.258 19.9623 122.4 19.7567 122.511 19.5194C122.622 19.2822 122.685 19.0449 122.701 18.776L122.717 18.602H122.305V18.776Z" fill="white"/>
<path d="M126.276 15.8024H128.127V20.7218H128.554V15.8024H130.404V15.3911H126.276V15.8024Z" fill="white"/>
<path d="M138.124 16.1188C137.902 15.8816 137.633 15.6917 137.333 15.5494C137.032 15.407 136.684 15.3438 136.32 15.3438C135.957 15.3438 135.624 15.407 135.308 15.5494C135.007 15.6917 134.739 15.8816 134.517 16.1188C134.296 16.3561 134.122 16.6567 133.995 16.9888C133.869 17.321 133.805 17.6848 133.805 18.0645C133.805 18.4599 133.869 18.8237 133.995 19.1401C134.122 19.4723 134.296 19.757 134.517 19.9943C134.739 20.2315 135.007 20.4372 135.308 20.5637C135.609 20.7061 135.957 20.7694 136.305 20.7694C136.668 20.7694 137.001 20.7061 137.317 20.5637C137.617 20.4214 137.886 20.2315 138.108 19.9943C138.329 19.757 138.503 19.4565 138.63 19.1401C138.756 18.8079 138.82 18.4441 138.82 18.0645C138.82 17.6848 138.756 17.321 138.63 16.9888C138.519 16.6408 138.345 16.3561 138.124 16.1188ZM136.32 20.3581C136.02 20.3581 135.735 20.2948 135.482 20.1841C135.229 20.0734 135.007 19.8994 134.833 19.7095C134.659 19.5039 134.501 19.2666 134.406 18.9819C134.311 18.6972 134.248 18.3966 134.248 18.0645C134.248 17.7323 134.296 17.4159 134.406 17.147C134.501 16.8623 134.644 16.625 134.833 16.4194C135.007 16.2137 135.229 16.0556 135.482 15.929C135.735 15.8183 136.02 15.755 136.32 15.755C136.621 15.755 136.906 15.8183 137.159 15.929C137.412 16.0397 137.633 16.2137 137.807 16.4194C137.997 16.625 138.139 16.8781 138.234 17.147C138.345 17.4317 138.393 17.7323 138.393 18.0645C138.393 18.3966 138.345 18.6972 138.234 18.9819C138.139 19.2666 137.981 19.5039 137.807 19.7095C137.633 19.9152 137.412 20.0734 137.159 20.1999C136.906 20.2948 136.621 20.3581 136.32 20.3581Z" fill="white"/>
<path d="M146.681 20.4373C146.665 20.4215 146.665 20.4056 146.65 20.3898C146.65 20.3898 146.634 20.3582 146.602 20.2791C146.586 20.2 146.571 20.1051 146.555 19.9469C146.539 19.8046 146.523 19.5989 146.523 19.33C146.507 18.9662 146.428 18.6657 146.27 18.4284C146.191 18.3177 146.08 18.2227 145.954 18.1437C146.128 18.0646 146.27 17.938 146.365 17.7957C146.555 17.5426 146.65 17.2262 146.65 16.8624C146.65 16.6251 146.602 16.4195 146.523 16.2297C146.444 16.0398 146.317 15.8817 146.159 15.7551C146.001 15.6286 145.827 15.5337 145.621 15.4704C145.416 15.4071 145.194 15.3755 144.941 15.3755H142.901V20.722H143.328V18.3809H145.099C145.463 18.3809 145.716 18.4758 145.859 18.634C146.001 18.808 146.096 19.0611 146.096 19.3775C146.096 19.6306 146.112 19.8362 146.128 19.9944C146.143 20.1526 146.159 20.2791 146.191 20.3582C146.207 20.4689 146.238 20.5322 146.27 20.5796C146.302 20.6271 146.317 20.6587 146.349 20.6745L146.397 20.722H146.586L146.745 20.7062V20.4847L146.681 20.4373ZM143.328 15.8026H144.941C145.337 15.8026 145.653 15.8975 145.89 16.0873C146.112 16.2771 146.223 16.5302 146.223 16.8782C146.223 17.2262 146.128 17.4951 145.922 17.6691C145.716 17.8589 145.368 17.9538 144.91 17.9538H143.344V15.8026H143.328Z" fill="white"/>
<path d="M62.7029 20.7218V16.4509L64.6169 20.7218H64.9332L66.8472 16.4509V20.7218H67.2743V15.3911H66.8472L64.7751 20.0575L62.7029 15.3911H62.2916V20.7218H62.7029Z" fill="white"/>
<path d="M94.0544 20.706V16.2137L97.3604 20.706H97.7084V15.3911H97.2813V19.8993L93.9912 15.3911H93.6273V20.706H94.0544Z" fill="white"/>
</g>
<defs>
<clipPath id="clip0_2216_3088">
<rect width="146.65" height="32" fill="white"/>
</clipPath>
</defs>
</svg>
