<svg width="125" height="50" viewBox="0 0 125 50" fill="none" xmlns="http://www.w3.org/2000/svg">
<g clip-path="url(#clip0_636_4826)">
<path d="M80.8607 17.3812C77.7897 22.6492 74.7166 27.9172 71.5789 33.2986H73.6358C74.3474 32.129 75.0701 30.9415 75.755 29.8163H88.895C89.6022 31.0038 90.2982 32.1712 90.9453 33.2586H93C89.8824 27.8772 86.8425 22.6292 83.8027 17.3812H80.8607ZM76.7335 28.1374C78.6192 24.9352 80.4249 21.862 82.3173 18.6487C84.2097 21.862 86.022 24.9374 87.9099 28.1374H76.7335Z" fill="white"/>
<path d="M39.9441 17.3812C36.8709 22.647 33.7977 27.9105 30.66 33.2853C31.4294 33.2853 32.0743 33.2853 32.7281 33.2853C33.4397 32.1223 34.1424 30.9593 34.8228 29.8318H47.9895C48.69 31.0171 49.366 32.1579 50.0109 33.2475H52.0878C48.9724 27.8727 45.9281 22.627 42.8861 17.3812H39.9441ZM35.799 28.1863C37.6981 24.9574 39.5127 21.8731 41.4006 18.6621C43.3019 21.8909 45.1165 24.9663 47.0111 28.1863H35.799Z" fill="white"/>
<path d="M69.2351 17.3812H53.9803V33.2697H55.975V27.0766C59.8153 27.0766 63.5112 27.1211 67.2048 27.0589C69.3329 27.0233 71.5878 26.7876 71.9525 24.1146C72.3194 21.4328 72.773 18.5131 69.2351 17.3812ZM70.1646 22.369C70.089 24.2036 69.3752 25.3955 67.2982 25.3777C63.5668 25.3444 59.8354 25.3688 56.0017 25.3688V19.0356C59.9399 19.0356 63.8136 18.9845 67.6873 19.0557C69.8043 19.0935 70.238 20.5945 70.1646 22.3668V22.369Z" fill="white"/>
</g>
<defs>
<clipPath id="clip0_636_4826">
<rect width="62.34" height="15.9174" fill="white" transform="translate(30.66 17.3812)"/>
</clipPath>
</defs>
</svg>
