<svg width="125" height="50" viewBox="0 0 125 50" fill="none" xmlns="http://www.w3.org/2000/svg">
<g clip-path="url(#clip0_124_39)">
<path d="M8.98701 15.1114C6.03048 15.1114 1.16712 15.8899 1.16712 15.8899L1.32263 19.0802C1.32263 19.0802 5.91308 18.6144 8.79232 18.6144C10.6215 18.6144 11.6719 19.587 11.6719 21.5703V22.9714L6.22491 23.4384C2.10035 23.7884 0 25.3064 0 29.2744C0 33.126 1.9452 35.3837 5.44736 35.3837C8.83195 35.3837 12.2166 33.9435 12.2166 33.9435C13.0301 34.6694 13.8655 35.0918 15.3692 35.2594V21.5319C15.3692 16.9404 13.1506 15.1114 8.98701 15.1114ZM11.6719 31.2192C11.6719 31.2192 8.59798 32.193 6.10813 32.193C4.59019 32.193 3.73471 31.1418 3.73471 29.1965C3.73471 27.368 4.63027 26.3952 6.65295 26.2394L11.6719 25.8507V31.2192Z" fill="#C2BFBC"/>
<path d="M18.7835 15.5405H22.4411V16.7074C22.4411 16.7074 25.2029 15.1114 27.7709 15.1114C32.7513 15.1114 35.0464 17.875 35.0464 25.0337C35.0464 32.8932 32.4018 35.3833 26.4484 35.3833C24.7364 35.3833 22.7905 35.0332 22.4411 34.9548V43.4371H18.7835V15.5405ZM22.4411 19.7419V31.7258C22.7905 31.7646 24.6975 32.0369 26.2149 32.0369C30.0664 32.0369 31.2725 30.1309 31.2725 24.9948C31.2725 20.1307 29.7555 18.4584 27.1488 18.4584C25.0478 18.4584 22.4411 19.7419 22.4411 19.7419Z" fill="#C2BFBC"/>
<path d="M53.1617 31.6481L53.2382 34.5662C53.2382 34.5662 48.8034 35.3834 45.4962 35.3834C39.6594 35.3442 37.5586 32.1151 37.5586 25.3832C37.5586 18.1469 40.6714 15.1116 45.8454 15.1116C51.216 15.1116 53.8995 17.8747 53.8995 24.0994L53.6667 26.7845H41.2942C41.2942 30.2865 42.5392 31.9979 46.0008 31.9979C48.9977 31.9979 53.1617 31.6481 53.1617 31.6481ZM50.2425 23.9052C50.2425 19.8587 48.9585 18.38 45.8454 18.38C42.8112 18.38 41.2942 19.9756 41.255 23.9052H50.2425Z" fill="#C2BFBC"/>
<path d="M56.9917 15.5405H60.6496V17.8356C60.6496 17.8356 60.9746 15.5405 66.9914 15.5405V18.8467C63.1157 18.3718 60.6496 20.4509 60.6496 20.4509V34.9548H56.9917V15.5405Z" fill="#C2BFBC"/>
<path d="M75.5337 18.8467V27.329C75.5337 30.831 75.7289 31.9205 77.9463 31.9205C79.0351 31.9205 81.2535 31.7258 81.2535 31.7258L81.4487 34.9156C81.4487 34.9156 78.8417 35.3834 77.4794 35.3834C73.2384 35.3834 71.8772 33.7881 71.8772 28.1851V18.8467H69.2698V15.5405H71.8772V9.70363H75.5337V15.5405H81.2535V18.8467H75.5337Z" fill="#C2BFBC"/>
<path d="M99.466 15.5405V34.9548C97.2997 34.9548 96.7965 33.8273 96.7965 33.8273C96.7965 33.8273 92.7351 35.3833 90.3222 35.3833C84.7972 35.3833 83.6695 32.6597 83.6695 25.6558V15.5405H87.3652V25.6173C87.3652 30.3637 87.716 32.0369 90.9839 32.0369C93.1633 32.0369 95.7698 30.8698 95.7698 30.8698V15.5405H99.466Z" fill="#C2BFBC"/>
<path d="M116.14 19.0417C116.14 19.0417 111.666 18.4189 109.253 18.4189C106.919 18.4189 105.518 19.0027 105.518 20.9091C105.518 22.388 106.413 22.8158 109.954 23.3992C115.09 24.216 116.842 25.3833 116.842 29.1965C116.842 33.7487 113.923 35.3834 109.176 35.3834C106.569 35.3834 102.133 34.5662 102.133 34.5662L102.289 31.4147C102.289 31.4147 106.88 32.0369 108.865 32.0369C111.822 32.0369 113.144 31.4147 113.144 29.3133C113.144 27.6798 112.327 27.2899 108.865 26.7455C104 25.9285 101.821 24.9556 101.821 20.9869C101.821 16.629 105.324 15.1113 109.02 15.1113C111.899 15.1113 116.218 15.9288 116.218 15.9288L116.14 19.0417Z" fill="#C2BFBC"/>
<path d="M121.317 7.80213C122.354 7.80213 123.198 8.64589 123.198 9.68305C123.198 10.7202 122.354 11.564 121.317 11.564C120.28 11.564 119.436 10.7202 119.436 9.68305C119.436 8.64589 120.28 7.80213 121.317 7.80213ZM121.317 6.00001C119.283 6.00001 117.634 7.64905 117.634 9.68305C117.634 11.7171 119.283 13.3661 121.317 13.3661C123.351 13.3661 125 11.7171 125 9.68305C125 7.64905 123.351 6.00001 121.317 6.00001Z" fill="#FA8756"/>
</g>
<defs>
<clipPath id="clip0_124_39">
<rect width="125" height="50" fill="white"/>
</clipPath>
</defs>
</svg>
