<svg width="125" height="50" viewBox="0 0 125 50" fill="none" xmlns="http://www.w3.org/2000/svg">
<path fill-rule="evenodd" clip-rule="evenodd" d="M35.6235 24.763V13.702H49.8015C51.413 13.702 52.8615 14.0257 54.1463 14.6731C54.4515 14.8219 54.742 14.9842 55.0177 15.16C55.99 15.7439 56.788 16.4883 57.4113 17.3932C58.1735 18.5001 58.5545 19.774 58.5545 21.2151C58.5545 22.0018 58.451 22.2631 58.2402 22.4899C58.1735 22.8652 58.0783 23.2292 57.955 23.5818C61.4018 23.5434 64.8485 23.5714 68.2943 23.6658V13.822H89.4965V18.9282H74.5015V23.9079C84.4283 24.4101 94.332 25.4645 104.163 27.0708L106.492 24.5154L96.4147 13.822H104.549L110.879 20.7104L116.67 13.822H124.641L114.712 24.8412L125 35.7506H116.833L115.733 34.5522C112.754 33.9153 109.764 33.3311 106.768 32.7994L104.19 35.7506H96.2515L99.9585 31.6835C91.5128 30.4136 83.0158 29.5586 74.5015 29.1185V30.6443H89.9865V35.7506H68.2943V28.8712C62.5693 28.711 56.84 28.738 51.116 28.9524C50.4858 29.0605 49.8297 29.1146 49.148 29.1146H47.464C45.737 29.2034 44.0107 29.3092 42.2855 29.4321V35.7506H35.8172V35.6305H35.6235V29.9921C32.455 30.2991 29.2915 30.6639 26.1343 31.0864L28.5525 35.7506H21.986L19.9956 31.9821C15.7082 32.6595 11.4346 33.4441 7.17912 34.3359L6.43573 35.7506H0L11.4341 13.822H17.1838L23.5904 26.1794C27.592 25.6163 31.6043 25.1441 35.6235 24.763ZM17.4275 27.12L15.6157 23.6899L14.8969 22.3115C14.7009 21.8938 14.5267 21.497 14.3742 21.1211C14.3163 20.9703 14.2583 20.8209 14.2004 20.6731C14.1297 20.8433 14.057 21.0135 13.9822 21.1837C13.808 21.5805 13.612 21.9878 13.3942 22.4055C13.1981 22.8231 12.9912 23.2513 12.7735 23.6899L10.3026 28.3919C12.6728 27.9356 15.0479 27.5116 17.4275 27.12ZM42.1875 19.1788V23.7578H42.6865C43.532 23.6486 45.1573 23.6856 47.0283 23.7578H47.776C48.4948 23.7578 49.1265 23.6638 49.6707 23.4758C50.237 23.267 50.6945 22.9642 51.0428 22.5674C51.3915 22.1706 51.5658 21.7111 51.5658 21.189C51.5658 20.7086 51.3915 20.3119 51.0428 19.9986C50.9573 19.9215 50.8648 19.8495 50.7658 19.7826C50.5048 19.6348 50.2042 19.5171 49.8647 19.4295C49.3202 19.2624 48.6885 19.1788 47.97 19.1788H42.1875Z" fill="white"/>
</svg>
