<svg width="38" height="46" viewBox="0 0 38 46" fill="none" xmlns="http://www.w3.org/2000/svg">
<g clip-path="url(#clip0_2388_3550)">
<path d="M36.2526 15.6814C35.9858 15.8884 31.2754 18.5426 31.2754 24.4444C31.2754 31.2708 37.2692 33.6858 37.4486 33.7456C37.421 33.8928 36.4964 37.053 34.2884 40.273C32.3196 43.1066 30.2634 45.9356 27.1354 45.9356C24.0074 45.9356 23.2024 44.1186 19.5914 44.1186C16.0724 44.1186 14.8212 45.9954 11.96 45.9954C9.0988 45.9954 7.1024 43.3734 4.807 40.1534C2.1482 36.3722 0 30.498 0 24.9228C0 15.9804 5.8144 11.2378 11.5368 11.2378C14.5774 11.2378 17.112 13.2342 19.021 13.2342C20.838 13.2342 23.6716 11.1182 27.1308 11.1182C28.4418 11.1182 33.1522 11.2378 36.2526 15.6814ZM25.4886 7.3324C26.9192 5.635 27.9312 3.2798 27.9312 0.9246C27.9312 0.598 27.9036 0.2668 27.8438 0C25.5162 0.0874 22.747 1.5502 21.0772 3.4868C19.7662 4.9772 18.5426 7.3324 18.5426 9.7198C18.5426 10.0786 18.6024 10.4374 18.63 10.5524C18.7772 10.58 19.0164 10.6122 19.2556 10.6122C21.344 10.6122 23.9706 9.2138 25.4886 7.3324Z" fill="white"/>
</g>
<defs>
<clipPath id="clip0_2388_3550">
<rect width="37.444" height="46" fill="white"/>
</clipPath>
</defs>
</svg>
