<svg width="132" height="21" viewBox="0 0 132 21" fill="none" xmlns="http://www.w3.org/2000/svg">
<g clip-path="url(#clip0_2216_3116)">
<path d="M80.9913 0.665893C81.4728 0.837475 81.9824 0.759794 82.4775 0.828939C84.703 1.1371 86.7014 1.91051 88.2917 3.55292C88.8372 4.11633 89.2819 4.75144 89.6259 5.4574C89.7122 5.63496 89.7164 5.72032 89.5107 5.80398C87.7419 6.52702 85.9766 7.25945 84.2027 7.99273C84.2762 7.08104 83.6607 6.56629 83.0845 6.08739C81.74 4.96912 80.1966 4.79583 78.561 5.33277C75.6782 6.27861 73.8147 9.50368 74.4379 12.4436C75.1208 15.6627 78.4876 17.1489 81.4463 15.5415C82.323 15.0652 83.0512 14.4241 83.6163 13.6089C83.7623 13.398 83.8724 13.3784 84.096 13.4817C85.4969 14.1304 86.9003 14.7724 88.3122 15.3955C88.6024 15.5236 88.5734 15.6192 88.4138 15.8369C86.3642 18.6368 83.5659 20.1051 80.1428 20.4611C77.8559 20.6984 75.6364 20.4414 73.5339 19.4674C69.4748 17.5886 67.6079 13.6072 68.838 9.25868C70.0945 4.81888 73.1822 2.24514 77.5699 1.09613C78.4364 0.86906 79.325 0.762355 80.2239 0.747843C80.3118 0.746135 80.4296 0.800769 80.4774 0.665039H80.9896L80.9913 0.665893Z" fill="#D51619"/>
<path d="M132 10.0937C131.726 10.6981 131.656 11.3571 131.508 11.9931C130.917 14.5378 130.346 17.0876 129.778 19.6375C129.722 19.891 129.613 19.9687 129.352 19.967C127.732 19.9542 126.112 19.949 124.492 19.9695C124.114 19.9747 124.124 19.8406 124.195 19.5512C124.823 16.986 125.441 14.4191 126.059 11.8514C126.3 10.8475 125.891 10.3515 124.858 10.3029C123.918 10.2585 123.195 10.6879 122.514 11.2513C122.352 11.3853 122.344 11.5731 122.302 11.7455C121.667 14.3671 121.031 16.9878 120.415 19.6136C120.349 19.8961 120.239 19.9687 119.964 19.9661C118.358 19.9542 116.752 19.949 115.146 19.9687C114.766 19.9729 114.75 19.868 114.831 19.5376C115.457 17.0014 116.062 14.4601 116.673 11.9205C116.931 10.8424 116.517 10.3276 115.414 10.3054C114.588 10.2892 113.898 10.6025 113.193 11.2017C113.433 10.1979 113.671 9.3186 113.846 8.4274C113.948 7.9118 114.225 7.56522 114.633 7.27925C116.161 6.20707 117.849 5.82378 119.682 6.17975C121.063 6.4478 121.766 7.07693 122.431 8.53325C122.805 8.17984 123.138 7.79655 123.548 7.49692C125.305 6.21304 127.241 5.70342 129.371 6.28304C130.781 6.66718 131.723 7.55412 131.924 9.07532C131.928 9.1069 131.974 9.13251 131.999 9.16068V10.0946L132 10.0937Z" fill="#D51619"/>
<path d="M2.4646 20.3561C2.8752 19.715 3.238 19.1465 3.60336 18.5788C7.15794 13.0447 10.7159 7.51219 14.2637 1.97374C14.4148 1.73814 14.5718 1.66387 14.8433 1.66472C17.1746 1.67497 19.5059 1.67838 21.8364 1.66216C22.1462 1.6596 22.2461 1.75179 22.2922 2.04289C22.7984 5.2671 23.3174 8.49047 23.8313 11.7138C23.8646 11.9247 23.8544 12.1287 23.7972 12.3413C23.1168 14.8774 22.4399 17.4153 21.7775 19.9566C21.6955 20.2716 21.5632 20.3783 21.2311 20.3664C20.4646 20.3382 19.6963 20.3442 18.9289 20.3647C18.6634 20.3715 18.5891 20.2742 18.5678 20.0335C18.2818 16.8084 17.989 13.585 17.6987 10.3608C17.6091 9.36801 17.5212 8.37437 17.4213 7.26549C16.1938 9.38167 15.0209 11.4023 13.8078 13.4928C14.6871 13.4928 15.5023 13.5116 16.3167 13.4834C16.6582 13.4715 16.7393 13.5876 16.7623 13.9043C16.8366 14.9474 16.9219 15.9914 17.0534 17.0286C17.1003 17.3957 16.9714 17.4059 16.6846 17.4042C15.1071 17.394 13.5287 17.4068 11.9512 17.3923C11.6763 17.3897 11.5218 17.4614 11.386 17.709C10.9439 18.514 10.4701 19.3019 10.0134 20.0992C9.92546 20.2528 9.84436 20.3638 9.6301 20.363C7.27233 20.3544 4.91456 20.3578 2.4646 20.3578V20.3561Z" fill="white"/>
<path d="M43.5314 18.735C41.7481 20.7462 38.774 20.6241 37.1453 19.7738C35.4867 18.9083 34.6065 17.4656 34.3701 15.6866C33.9783 12.739 34.7312 10.1003 36.8798 7.95599C38.8662 5.97382 42.373 5.45908 44.8742 6.74723C45.1252 6.87613 45.3642 7.03405 45.5878 7.20563C45.8106 7.37551 46.0087 7.57953 46.2554 7.80319C46.5209 6.70369 46.7812 5.63066 47.039 4.55592C47.2763 3.5674 47.5128 2.57802 47.7424 1.5878C47.7902 1.38036 47.8756 1.29329 48.1104 1.295C49.7596 1.30695 51.4088 1.30951 53.0572 1.295C53.3808 1.29158 53.3978 1.40682 53.3347 1.66633C51.886 7.65124 50.4408 13.637 49.0007 19.6245C48.9435 19.8609 48.8692 19.9719 48.5884 19.9693C46.9537 19.9531 45.3189 19.9506 43.6842 19.9693C43.3265 19.9736 43.3393 19.8396 43.3991 19.5732C43.4614 19.295 43.6253 19.0269 43.5254 18.7247C43.5399 18.7683 43.5638 18.7742 43.5946 18.7426C43.5988 18.7375 43.5954 18.7247 43.5954 18.7162C43.5732 18.723 43.5519 18.7298 43.5297 18.7367L43.5314 18.735ZM42.3192 16.5795C42.5301 16.5556 42.7443 16.5496 42.9509 16.5052C45.0116 16.069 46.4381 13.9648 46.0889 11.8836C45.7978 10.1464 44.2399 9.06829 42.5062 9.40292C40.4079 9.8084 38.9089 12.1184 39.4032 14.1859C39.748 15.6303 40.8885 16.5599 42.3192 16.5787V16.5795Z" fill="white"/>
<path d="M101.199 7.82668C101.295 7.47925 101.4 7.21206 101.437 6.93633C101.489 6.54878 101.644 6.41988 102.062 6.42841C103.638 6.46085 105.217 6.44805 106.794 6.43524C107.087 6.43268 107.154 6.50353 107.084 6.78694C106.034 11.0663 104.99 15.3473 103.955 19.63C103.893 19.8878 103.796 19.9681 103.532 19.9655C101.898 19.9536 100.264 19.9527 98.6291 19.9655C98.3261 19.9681 98.2586 19.893 98.3568 19.6053C98.4516 19.327 98.4934 19.0308 98.5779 18.6577C98.4362 18.7832 98.3457 18.8524 98.268 18.9343C97.224 20.0312 95.9026 20.3975 94.4394 20.3437C91.1606 20.2225 89.4422 17.7734 89.2629 15.1749C89.076 12.462 89.7461 10.006 91.7325 8.03668C93.7198 6.06647 96.9432 5.49196 99.5254 6.58975C100.164 6.86121 100.706 7.2556 101.2 7.82583L101.199 7.82668ZM94.3703 13.2422C94.331 15.39 96.1365 16.8412 98.1596 16.2872C100.056 15.7681 101.351 13.6298 100.929 11.7133C100.589 10.1699 99.2642 9.22239 97.6978 9.40081C95.9017 9.60568 94.4053 11.3326 94.3703 13.2422Z" fill="#D51619"/>
<path d="M59.9933 18.6565C59.1235 19.3232 58.2203 19.9344 57.1191 20.1513C55.7208 20.427 54.3234 20.4978 52.9781 19.9165C51.3194 19.1994 50.5136 17.6142 50.9148 15.8574C51.6105 12.815 52.3267 9.77777 53.0267 6.73623C53.0814 6.50062 53.1804 6.43233 53.4254 6.43404C55.0601 6.44684 56.6948 6.45026 58.3296 6.43319C58.6719 6.42977 58.6847 6.53562 58.6156 6.81903C58.0154 9.28948 57.423 11.7608 56.8383 14.2346C56.5233 15.568 56.9894 16.1238 58.3646 16.128C59.3318 16.1306 60.1086 15.6961 60.8453 15.1429C60.9844 15.0388 60.9981 14.88 61.0339 14.7306C61.5888 12.4522 62.1309 10.1713 62.7113 7.89975C62.824 7.45927 62.8112 7.10927 62.4945 6.77977C62.4194 6.70208 62.3707 6.59965 62.2837 6.46904H68.6382C68.3727 7.58475 68.1106 8.69535 67.8435 9.80338C67.0555 13.0711 66.2608 16.3372 65.4831 19.6075C65.4182 19.8815 65.3201 19.9694 65.0375 19.9669C63.4028 19.9532 61.7681 19.9541 60.1333 19.9669C59.8516 19.9686 59.7518 19.9114 59.8397 19.6186C59.9293 19.3224 59.9831 19.0151 60.0514 18.712C60.0565 18.6762 60.0778 18.6198 60.0642 18.6096C60.0181 18.5754 60.0061 18.6241 59.9925 18.6574L59.9933 18.6565Z" fill="white"/>
<path d="M36.4446 7.37395C35.9913 7.79565 35.631 8.18662 35.3015 8.60405C34.692 9.37574 34.2063 10.2191 33.8905 11.1496C33.8068 11.3972 33.6847 11.4561 33.4363 11.4603C32.5596 11.4731 31.723 11.6729 30.9377 12.0724C30.6978 12.1945 30.5587 12.3661 30.4861 12.6418C29.8425 15.0994 29.1826 17.552 28.5219 20.0053C28.4792 20.1641 28.4946 20.3656 28.2086 20.3639C26.3903 20.3528 24.5729 20.3579 22.7068 20.3579C22.9561 19.412 23.1926 18.5004 23.4359 17.5904C24.281 14.4259 25.1312 11.2623 25.9678 8.09528C26.0446 7.80333 26.1607 7.70516 26.474 7.70857C28.2351 7.7265 29.9961 7.71711 31.7819 7.71711C31.7034 8.12942 31.6095 8.50588 31.4098 9.01721C32.9463 7.9126 34.552 7.33382 36.4446 7.37565V7.37395Z" fill="white"/>
<path d="M110.894 6.44182C111.717 6.44182 112.542 6.45377 113.366 6.43585C113.658 6.42987 113.684 6.51182 113.62 6.77304C112.679 10.6127 111.749 14.4541 110.817 18.2955C110.707 18.748 110.591 19.1996 110.492 19.6545C110.443 19.8799 110.352 19.9712 110.096 19.9687C108.462 19.9542 106.829 19.9525 105.196 19.9687C104.863 19.9721 104.828 19.8731 104.899 19.5828C105.505 17.1295 106.097 14.6727 106.695 12.2176C107.137 10.407 107.591 8.59898 108.013 6.78414C108.082 6.49219 108.197 6.43243 108.465 6.43756C109.274 6.45207 110.084 6.44268 110.894 6.44268L110.894 6.44182Z" fill="#D51619"/>
<path d="M13.4193 1.67058C12.9455 2.40984 12.5153 3.08251 12.0833 3.75518C8.61411 9.15534 5.14233 14.5529 1.68336 19.9599C1.49129 20.2596 1.29922 20.4013 0.93984 20.3628C0.632528 20.3296 0.31924 20.356 0.00509864 20.356C-0.0290472 20.1802 0.098146 20.0837 0.169852 19.9727C4.02577 13.9648 7.88595 7.95939 11.7402 1.94972C11.8674 1.75082 11.9963 1.64924 12.2455 1.66461C12.6083 1.68765 12.9728 1.67058 13.4193 1.67058Z" fill="white"/>
</g>
<defs>
<clipPath id="clip0_2216_3116">
<rect width="132" height="19.878" fill="white" transform="translate(0 0.666016)"/>
</clipPath>
</defs>
</svg>
