<svg width="53" height="40" viewBox="0 0 53 40" fill="none" xmlns="http://www.w3.org/2000/svg">
<mask id="mask0_10_2335" style="mask-type:luminance" maskUnits="userSpaceOnUse" x="1" y="2" width="50" height="36">
<path d="M51 2.98608H1V37.0139H51V2.98608Z" fill="white"/>
</mask>
<g mask="url(#mask0_10_2335)">
<path d="M13.0834 5.06947C6.47932 4.5438 0.930724 12.3612 3.63902 18.4029C6.27792 24.9584 16.2084 26.7362 20.9307 21.4862C25.507 17.0001 27.2709 10.0973 32.8751 6.55557C38.5695 2.66671 47.7362 6.33897 48.8473 13.2501C49.9307 19.8681 42.7987 26.3056 36.3473 24.3612C31.5765 23.2848 28.1529 19.2084 26.2084 14.9167C23.8126 10.8195 20.6807 6.44447 15.7918 5.33337C14.9237 5.13617 14.0279 5.05837 13.139 5.05977L13.0834 5.06947Z" stroke="white" stroke-width="4.09722"/>
<path d="M9.19434 14.4446H17.5277" stroke="white" stroke-width="1.73611"/>
<path d="M34.75 14.4446H41.6944M38.1528 10.9723V17.9168" stroke="white" stroke-width="2.22222"/>
<path d="M6.83335 36.6668L6.38895 35.0696H3.56945L3.11115 36.6668H1.60425L3.99315 28.6112H6.11815L8.50695 36.6668H6.83335ZM5.00005 30.0696L3.93755 33.8265H6.04865L5.00005 30.0696ZM13.5 36.6668C13.5 36.6668 12.6875 34.7501 12.2292 33.8196C11.9632 33.4196 11.4375 33.2626 10.9792 33.3265C10.9375 34.4168 10.9459 36.6668 10.9459 36.6668H9.42505V28.6112C9.42505 28.6112 11.7167 28.5439 12.8556 28.6946C15.2653 28.9668 15.4251 32.4723 13.0036 32.8404C13.4577 33.021 13.7327 33.4411 13.9272 33.8682L15.1424 36.3821C15.2278 36.5543 15.2257 36.6876 14.9799 36.6862L13.5 36.6668ZM13.1236 30.9654C13.1167 29.7223 11.8737 29.8612 10.9501 29.8543V32.1321C12.0404 32.1689 13.1028 32.0578 13.1236 30.9654ZM21.9722 34.5835C21.2361 36.2848 19.625 36.6807 18.0972 36.6529H16.2292V28.5973L19.0695 28.6112C22.5833 28.7258 22.7084 32.514 21.9654 34.6112L21.9722 34.5835ZM20.0279 30.3265C19.3196 29.7182 18.5417 29.8425 17.75 29.8425V35.3772C18.4445 35.3772 19.2014 35.4328 19.7917 35.0022C21.0486 34.2105 20.8889 31.2105 20.0243 30.3286L20.0279 30.3265ZM29.264 33.6807C29.4147 37.7501 23.6042 37.7362 23.4306 34.5626C23.3243 33.5904 23.4119 32.6182 23.3834 31.646V28.5765H24.9043L24.9319 34.3404C25.1104 35.9307 27.2236 35.7918 27.5431 34.9098C27.8667 34.2085 27.7167 33.4168 27.75 32.6668V28.5765H29.2708V33.6807H29.264ZM30.7222 29.7918V28.5487H35.8265V29.7918H34.0486V35.3751H35.8265V36.6321H30.7222V35.3751H32.5V29.7918H30.7222ZM41.4861 36.6668L38.875 30.8057V36.6668H37.4932V28.6112H39.3611L41.9583 34.4168C41.9653 34.0001 41.9611 28.6112 41.9611 28.6112H43.3432V36.6668H41.4861ZM49.6111 35.9723C47.9236 37.4237 44.9792 37.1043 44.3958 34.2432C43.5972 29.896 45.9515 27.396 49.2293 28.8543C51.2432 29.9862 51.132 34.646 49.6111 36.0071V35.9723ZM47.5765 29.8126C46.139 29.7744 45.9306 31.2432 45.875 31.9515C45.8632 33.2918 45.7445 35.521 47.6043 35.4237C48.1807 35.4237 48.6807 35.0057 48.8682 34.4723C49.2466 33.6321 49.5321 29.7432 47.5765 29.8126ZM47.9446 3.91675V4.07925H48.3022V5.02366H48.4869V4.07925H48.8479V3.91675H47.9446ZM48.9722 3.91675V5.02096H49.141V4.07647L49.4396 5.02096H49.6063L49.891 4.0973V5.02096H50.0577V3.91675H49.7938L49.523 4.79869L49.2452 3.91675H48.9722Z" fill="white" stroke="white" stroke-width="0.0694444"/>
</g>
</svg>
