<svg width="132" height="38" viewBox="0 0 132 38" fill="none" xmlns="http://www.w3.org/2000/svg">
<g clip-path="url(#clip0_2390_2916)">
<path d="M53.9789 15.5216C49.0133 10.8953 36.1487 13.2388 34.5297 21.0244H39.2065C40.889 15.0426 52.9243 14.9422 53.9522 21.0244H58.1111L58.5557 12.5482C58.7881 8.10583 56.6674 4.67334 48.4887 4.67334C46.5296 4.67334 39.7952 4.87619 38.0932 5.00965L37.8918 8.84832C49.107 7.53949 54.6335 5.81912 54.3055 12.5477L54.1492 15.5211L53.9789 15.5216Z" fill="white"/>
<path d="M65.1052 21.0225C65.095 20.4936 65.0959 19.9515 65.11 19.3997C65.2672 13.4549 68.0252 8.83826 76.6935 8.83826L77.4345 4.80013C70.8006 4.75645 68.723 7.16448 66.3572 9.83554L66.6266 4.69434L61.9765 7.098L61.2466 21.0221L65.1052 21.0225Z" fill="white"/>
<path d="M37.7481 34.042C37.1905 34.042 36.682 33.9716 36.2238 33.8333C35.7677 33.693 35.3785 33.4805 35.0567 33.1956C34.733 32.9102 34.4904 32.5511 34.3288 32.1163C34.1638 31.6825 34.0987 31.169 34.1288 30.5736L34.1754 29.7039C34.2089 29.0623 34.336 28.5149 34.5583 28.0588C34.7801 27.6036 35.0654 27.2313 35.4124 26.9411C35.7575 26.65 36.1525 26.4379 36.5961 26.3039C37.0416 26.1695 37.5031 26.1025 37.9864 26.1025C39.0885 26.1025 39.9116 26.3796 40.4541 26.9338C40.9986 27.4881 41.2398 28.3354 41.1801 29.4773L41.1462 30.1416H35.1737L35.1518 30.5731C35.1271 31.0399 35.1737 31.4466 35.2921 31.7902C35.411 32.1347 35.5876 32.4201 35.823 32.6472C36.0593 32.8729 36.3476 33.0418 36.6878 33.1524C37.0299 33.2635 37.4104 33.3193 37.8306 33.3193C38.3504 33.3193 38.8071 33.2519 39.1963 33.1175C39.5894 32.9835 39.948 32.7734 40.279 32.4919L40.79 33.0151C40.6473 33.1563 40.4799 33.2888 40.2916 33.4111C40.1028 33.5343 39.8834 33.6426 39.634 33.7372C39.3836 33.8308 39.1026 33.9051 38.7906 33.9599C38.479 34.0143 38.1315 34.042 37.7481 34.042ZM37.9466 26.8387C37.5812 26.8387 37.2434 26.8868 36.9319 26.98C36.6198 27.0746 36.3471 27.2241 36.1098 27.4298C35.872 27.6346 35.6779 27.901 35.5245 28.2272C35.3717 28.5518 35.2707 28.9454 35.2217 29.4084H40.1528L40.1644 29.2026C40.1707 28.8299 40.1329 28.498 40.0494 28.2053C39.9645 27.9122 39.8344 27.6652 39.6563 27.4628C39.4782 27.26 39.2453 27.1052 38.9614 26.9989C38.6741 26.8916 38.3373 26.8387 37.9466 26.8387Z" fill="white"/>
<path d="M44.4879 26.2442L44.4569 27.39C44.7621 26.9974 45.1455 26.6858 45.6075 26.4515C46.0671 26.219 46.6058 26.1016 47.2187 26.1016C47.818 26.1016 48.3305 26.2132 48.7556 26.4369C49.1812 26.6616 49.4787 27.0183 49.652 27.5089C49.7985 27.3061 49.9708 27.1178 50.1688 26.944C50.3658 26.7688 50.5895 26.6198 50.8395 26.4976C51.0845 26.3743 51.3524 26.2777 51.6421 26.2073C51.9299 26.1365 52.2425 26.1001 52.5763 26.1001C53.016 26.1001 53.4052 26.153 53.7406 26.2602C54.0793 26.3656 54.3622 26.533 54.5893 26.7616C54.8155 26.9901 54.9824 27.2813 55.0868 27.6346C55.1916 27.9889 55.2304 28.413 55.2061 28.9085L54.9451 33.8968H53.9128L54.1759 28.9017C54.1948 28.5018 54.1657 28.1679 54.0832 27.9035C54.0007 27.639 53.876 27.4283 53.708 27.2701C53.5392 27.1129 53.3339 27.0027 53.0893 26.9421C52.8442 26.8805 52.5734 26.8494 52.2769 26.8494C51.9057 26.8542 51.5737 26.9168 51.2835 27.0372C50.9919 27.1576 50.7419 27.3104 50.5352 27.4968C50.326 27.6826 50.161 27.8918 50.0421 28.1233C49.9213 28.3543 49.8427 28.58 49.8073 28.8017L49.5399 33.8954H48.5004L48.7644 28.8362C48.7843 28.4596 48.7517 28.1432 48.6697 27.8884C48.5867 27.6341 48.4625 27.4303 48.2946 27.2765C48.1247 27.1246 47.9199 27.0134 47.6749 26.9474C47.4312 26.8809 47.159 26.8484 46.863 26.8484C46.5281 26.8484 46.2287 26.897 45.9637 26.9935C45.6983 27.0911 45.4658 27.2177 45.2659 27.3759C45.065 27.5332 44.8946 27.7161 44.7539 27.9243C44.6131 28.132 44.5001 28.3456 44.4142 28.5673L44.1356 33.8954H43.1039L43.5038 26.2408H44.4879V26.2442Z" fill="white"/>
<path d="M64.6834 30.433C64.6504 31.0498 64.5495 31.5865 64.3816 32.0393C64.2132 32.4925 63.9822 32.8667 63.6881 33.1642C63.4003 33.4607 63.0509 33.6815 62.6438 33.8256C62.2376 33.9698 61.7785 34.0416 61.2631 34.0416C60.638 34.0416 60.1149 33.9368 59.6956 33.7291C59.2768 33.5209 58.9424 33.2355 58.6949 32.8716L58.5949 33.898H57.6384L58.2067 23.0308H59.2283L59.004 27.3111C59.2904 26.9291 59.6505 26.6321 60.0824 26.4191C60.5148 26.207 61.0408 26.1007 61.6591 26.1007C62.1798 26.1007 62.6379 26.1701 63.033 26.3065C63.428 26.4429 63.7546 26.6579 64.0147 26.95C64.2743 27.2431 64.467 27.6163 64.5878 28.072C64.7111 28.5267 64.7548 29.0746 64.7208 29.7171L64.6834 30.433ZM63.6891 29.7176C63.742 28.7461 63.5886 28.0274 63.2368 27.56C62.8825 27.0936 62.2754 26.8607 61.4145 26.8607C61.0806 26.8607 60.7807 26.8986 60.5172 26.9733C60.2522 27.0485 60.0222 27.1499 59.8242 27.2771C59.6247 27.4052 59.4544 27.5518 59.3122 27.7187C59.17 27.8871 59.0521 28.0599 58.9565 28.2389L58.7565 32.0305C58.8415 32.2106 58.9516 32.3766 59.0895 32.5294C59.2273 32.6828 59.3913 32.8157 59.584 32.9293C59.7752 33.0414 59.9984 33.1312 60.2483 33.1948C60.4983 33.2583 60.7797 33.2899 61.0957 33.2899C61.926 33.2899 62.5467 33.0584 62.9597 32.5964C63.3712 32.1339 63.6022 31.4128 63.6517 30.4315L63.6891 29.7176Z" fill="white"/>
<path d="M70.1978 34.042C69.6417 34.042 69.1326 33.9716 68.674 33.8333C68.2169 33.693 67.8291 33.4805 67.5049 33.1956C67.1846 32.9102 66.942 32.5511 66.777 32.1163C66.6149 31.6825 66.5489 31.169 66.58 30.5736L66.6256 29.7039C66.6596 29.0623 66.7867 28.5149 67.0085 28.0588C67.2312 27.6036 67.5127 27.2313 67.8616 26.9411C68.2067 26.65 68.6036 26.4379 69.0453 26.3039C69.4898 26.1695 69.9513 26.1025 70.4356 26.1025C71.5353 26.1025 72.3618 26.3796 72.9038 26.9338C73.4478 27.4881 73.6881 28.3354 73.6284 29.4773L73.5978 30.1416H67.6243L67.602 30.5731C67.5743 31.0399 67.6243 31.4466 67.7413 31.7902C67.8587 32.1347 68.0363 32.4201 68.2717 32.6472C68.508 32.8729 68.7987 33.0418 69.1365 33.1524C69.4777 33.2635 69.8596 33.3193 70.2808 33.3193C70.7981 33.3193 71.2548 33.2519 71.646 33.1175C72.039 32.9835 72.3991 32.7734 72.7301 32.4919L73.2421 33.0151C73.095 33.1563 72.9286 33.2888 72.7413 33.4111C72.552 33.5343 72.3322 33.6426 72.0837 33.7372C71.8333 33.8308 71.5528 33.9051 71.2412 33.9599C70.9287 34.0143 70.5817 34.042 70.1978 34.042ZM70.3983 26.8387C70.0323 26.8387 69.6941 26.8868 69.383 26.98C69.0705 27.0746 68.7958 27.2241 68.5595 27.4298C68.3246 27.6346 68.1285 27.901 67.9776 28.2272C67.8233 28.5518 67.7209 28.9454 67.6724 29.4084H72.603L72.6136 29.2026C72.6209 28.8299 72.5831 28.498 72.5006 28.2053C72.4171 27.9122 72.2875 27.6652 72.106 27.4628C71.9279 27.26 71.6974 27.1052 71.4106 26.9989C71.1243 26.8921 70.7875 26.8387 70.3983 26.8387Z" fill="white"/>
<path d="M75.4395 29.7171C75.4725 29.0761 75.5778 28.5277 75.7515 28.0725C75.9287 27.6173 76.1631 27.2436 76.4654 26.951C76.7648 26.6579 77.123 26.4438 77.5355 26.307C77.9475 26.1706 78.4046 26.1017 78.905 26.1017C79.5058 26.1017 80.01 26.2046 80.4186 26.4089C80.8263 26.6147 81.1524 26.902 81.3989 27.2684L81.6207 23.0312H82.6519L82.0832 33.8989H81.1184L81.1237 32.9152C80.8384 33.269 80.4793 33.5456 80.0435 33.7436C79.6091 33.9416 79.0889 34.0411 78.4813 34.0411C77.98 34.0411 77.5316 33.9693 77.1371 33.8252C76.7411 33.681 76.4101 33.4602 76.1446 33.1637C75.8801 32.8662 75.6802 32.4906 75.5487 32.0388C75.4172 31.586 75.3667 31.0502 75.3997 30.4325L75.4395 29.7171ZM76.4499 30.4325C76.3994 31.4132 76.5532 32.1349 76.9172 32.5974C77.2822 33.0594 77.8839 33.2909 78.7269 33.2909C79.0292 33.2909 79.3034 33.2613 79.5514 33.2025C79.8008 33.1438 80.0246 33.0603 80.2255 32.9541C80.4264 32.8478 80.5996 32.7221 80.7506 32.5794C80.9 32.4353 81.031 32.279 81.1451 32.1082L81.3552 28.1399C81.2703 27.9701 81.163 27.807 81.0369 27.6508C80.9097 27.4955 80.7535 27.3601 80.5686 27.2451C80.3895 27.1296 80.1735 27.0354 79.9251 26.9655C79.6785 26.8947 79.3942 26.8593 79.0709 26.8593C78.2227 26.8593 77.5952 27.0917 77.1822 27.5561C76.7702 28.0206 76.5411 28.7407 76.4892 29.7171L76.4499 30.4325Z" fill="white"/>
<path d="M84.7178 29.7171C84.7508 29.0761 84.8542 28.5277 85.0308 28.0725C85.2075 27.6173 85.4433 27.2436 85.7418 26.951C86.0431 26.6579 86.4013 26.4438 86.8138 26.307C87.2268 26.1706 87.682 26.1017 88.1842 26.1017C88.7841 26.1017 89.2873 26.2046 89.6959 26.4089C90.1036 26.6147 90.4307 26.902 90.6762 27.2684L90.899 23.0312H91.9283L91.3605 33.8989H90.3948L90.4006 32.9152C90.1152 33.269 89.7576 33.5456 89.3208 33.7436C88.8865 33.9416 88.3672 34.0411 87.7586 34.0411C87.2593 34.0411 86.8089 33.9693 86.4163 33.8252C86.0184 33.681 85.6884 33.4602 85.4229 33.1637C85.1575 32.8662 84.9595 32.4906 84.828 32.0388C84.696 31.586 84.6469 31.0502 84.679 30.4325L84.7178 29.7171ZM85.7272 30.4325C85.6767 31.4132 85.8325 32.1349 86.1955 32.5974C86.5595 33.0594 87.1603 33.2909 88.0032 33.2909C88.3065 33.2909 88.5803 33.2613 88.8287 33.2025C89.0791 33.1438 89.3029 33.0603 89.5038 32.9541C89.7027 32.8478 89.8779 32.7221 90.0289 32.5794C90.1769 32.4353 90.3113 32.279 90.4229 32.1082L90.6335 28.1399C90.5481 27.9701 90.4418 27.807 90.3157 27.6508C90.1871 27.4955 90.0322 27.3601 89.8483 27.2451C89.6654 27.1296 89.4514 27.0354 89.2039 26.9655C88.9573 26.8947 88.6739 26.8593 88.3497 26.8593C87.5014 26.8593 86.874 27.0917 86.46 27.5561C86.049 28.0206 85.8194 28.7407 85.7665 29.7171L85.7272 30.4325Z" fill="white"/>
<path d="M97.4568 34.042C96.8987 34.042 96.3915 33.9716 95.9324 33.8333C95.4768 33.693 95.0871 33.4805 94.7629 33.1956C94.4426 32.9102 94.1999 32.5511 94.0359 32.1163C93.8738 31.6825 93.8059 31.169 93.8379 30.5736L93.8845 29.7039C93.9165 29.0623 94.0447 28.5149 94.2664 28.0588C94.4902 27.6036 94.7716 27.2313 95.1186 26.9411C95.4656 26.65 95.8616 26.4379 96.3042 26.3039C96.7458 26.1695 97.2102 26.1025 97.6936 26.1025C98.7957 26.1025 99.6197 26.3796 100.162 26.9338C100.709 27.4881 100.948 28.3354 100.889 29.4773L100.854 30.1416H94.8823L94.8614 30.5731C94.8342 31.0399 94.8823 31.4466 94.9992 31.7902C95.1167 32.1347 95.2957 32.4201 95.5306 32.6472C95.765 32.8729 96.0567 33.0418 96.3954 33.1524C96.7346 33.2635 97.1175 33.3193 97.5393 33.3193C98.058 33.3193 98.5128 33.2519 98.9054 33.1175C99.295 32.9835 99.6561 32.7734 99.9876 32.4919L100.499 33.0151C100.353 33.1563 100.188 33.2888 99.9992 33.4111C99.8104 33.5343 99.5906 33.6426 99.3392 33.7372C99.0912 33.8308 98.8098 33.9051 98.4997 33.9599C98.1876 34.0143 97.8387 34.042 97.4568 34.042ZM97.6557 26.8387C97.2908 26.8387 96.9506 26.8868 96.6415 26.98C96.3289 27.0746 96.0547 27.2241 95.8189 27.4298C95.5821 27.6346 95.3875 27.901 95.2351 28.2272C95.0788 28.5518 94.9784 28.9454 94.9289 29.4084H99.8604L99.8711 29.2026C99.8793 28.8299 99.8405 28.498 99.758 28.2053C99.6726 27.9122 99.543 27.6652 99.3635 27.4628C99.1844 27.26 98.9534 27.1052 98.668 26.9989C98.3832 26.8916 98.0454 26.8387 97.6557 26.8387Z" fill="white"/>
<path d="M102.699 29.7171C102.73 29.0761 102.836 28.5277 103.011 28.0725C103.187 27.6173 103.424 27.2436 103.724 26.951C104.023 26.6579 104.382 26.4438 104.795 26.307C105.206 26.1706 105.663 26.1017 106.164 26.1017C106.765 26.1017 107.269 26.2046 107.677 26.4089C108.084 26.6147 108.41 26.902 108.657 27.2684L108.881 23.0312H109.91L109.342 33.8989H108.375L108.382 32.9152C108.096 33.269 107.738 33.5456 107.3 33.7436C106.867 33.9416 106.348 34.0411 105.74 34.0411C105.239 34.0411 104.79 33.9693 104.395 33.8252C104 33.681 103.67 33.4602 103.403 33.1637C103.138 32.8662 102.941 32.4906 102.807 32.0388C102.676 31.586 102.627 31.0502 102.66 30.4325L102.699 29.7171ZM103.709 30.4325C103.658 31.4132 103.813 32.1349 104.176 32.5974C104.538 33.0594 105.143 33.2909 105.985 33.2909C106.287 33.2909 106.562 33.2613 106.809 33.2025C107.06 33.1438 107.284 33.0603 107.484 32.9541C107.684 32.8478 107.857 32.7221 108.008 32.5794C108.159 32.4353 108.29 32.279 108.403 32.1082L108.613 28.1399C108.53 27.9701 108.421 27.807 108.299 27.6508C108.167 27.4955 108.011 27.3601 107.827 27.2451C107.647 27.1296 107.433 27.0354 107.185 26.9655C106.936 26.8947 106.652 26.8593 106.33 26.8593C105.482 26.8593 104.853 27.0917 104.441 27.5561C104.028 28.0206 103.801 28.7407 103.747 29.7171L103.709 30.4325Z" fill="white"/>
<path d="M80.3264 3.24607H85.7054C86.3149 2.23277 87.3442 1.0108 87.9858 0.306641H80.9228L80.3264 3.24607Z" fill="white"/>
<path d="M122.552 16.9902C111.562 13.4548 114.321 8.59605 131.359 8.59605L131.828 4.68604C111.01 4.68604 105.23 14.4637 121.157 19.6011C131.795 23.0321 125.971 27.391 112.069 27.391L111.863 31.284C133.975 31.2845 135.579 21.1783 122.552 16.9902Z" fill="white"/>
<path d="M81.5925 21.0229C81.4556 19.0274 81.4813 16.813 81.8196 14.5127C82.7135 8.41447 84.8367 4.83154 84.8367 4.83154H79.8784L76.8541 21.0224L81.5925 21.0229Z" fill="white"/>
<path d="M84.7522 17.8351C84.6556 18.9018 84.709 19.9738 84.891 21.023H89.2024C88.9257 20.0238 88.8122 18.9935 88.8762 18.0079L110.104 18.0161C111.245 -0.456573 86.2877 0.848382 84.7522 17.8351ZM89.1208 14.8215C91.262 6.18856 105.152 4.58369 106.113 14.7317L89.1208 14.8215Z" fill="white"/>
<path d="M2.63908 7.40048C6.00847 7.40048 8.74893 9.37854 10.907 13.3482C13.052 17.2922 14.2556 22.5931 14.521 29.2528H15.0301C15.8798 22.7363 17.624 17.4606 20.2305 13.44C22.836 9.41736 25.8483 7.40048 29.2172 7.40048C29.6607 7.40048 30.0844 7.43542 30.493 7.49802L30.5765 5.90189C30.6061 5.33604 30.1718 4.87646 29.6059 4.87646H2.4998C1.93394 4.87646 1.45156 5.33604 1.42099 5.90189L1.33655 7.50094C1.75681 7.43639 2.19115 7.40048 2.63908 7.40048Z" fill="#0084D1"/>
<path d="M12.1708 28.4013C11.6078 24.2802 10.841 20.9171 9.87046 18.3115C7.73953 12.653 5.28297 9.82275 2.48185 9.82275C2.03053 9.82275 1.60493 9.8873 1.20602 10.0115L0.00151685 33.0256C-0.0290567 33.5915 0.406252 34.0511 0.972105 34.0511H12.7109C12.6124 32.2506 12.4323 30.3691 12.1708 28.4013Z" fill="#0084D1"/>
<path d="M29.1166 9.60205C26.4068 9.60205 23.7376 12.2484 21.1253 17.5148C19.7869 20.197 18.6163 23.6799 17.5691 27.9583C17.0571 30.0732 16.6494 32.1042 16.3456 34.0526H28.0791C28.6449 34.0526 29.1273 33.5931 29.1569 33.0272L30.374 9.78889C29.9897 9.66562 29.5709 9.60205 29.1166 9.60205Z" fill="#0084D1"/>
</g>
<defs>
<clipPath id="clip0_2390_2916">
<rect width="132" height="37.5" fill="white" transform="translate(0 0.306641)"/>
</clipPath>
</defs>
</svg>
