<svg width="61" height="22" viewBox="0 0 61 22" fill="none" xmlns="http://www.w3.org/2000/svg">
<path d="M36.6853 3.42389H40.4187V4.91009C40.888 4.30799 41.4903 3.82259 42.1784 3.49199C42.8666 3.16139 43.6219 2.99459 44.3853 3.00459C45.2249 2.99119 46.0529 3.20259 46.7834 3.61669C47.514 4.03079 48.1205 4.63269 48.5403 5.35999C49.8735 3.45449 51.8944 3.00459 53.303 3.00459C55.2463 3.00459 56.961 3.91849 57.8773 5.52019C58.1811 6.05489 58.7158 7.23499 58.7158 9.55979V19.4692H54.9801V10.6268C54.9801 8.83669 54.7893 8.11119 54.6362 7.76969C54.4007 7.15959 53.8353 6.35639 52.5022 6.35639C52.0667 6.36429 51.6394 6.47519 51.255 6.67979C50.8706 6.88449 50.54 7.17729 50.2904 7.53409C49.6426 8.44799 49.5673 9.82129 49.5673 11.1921V19.4692H45.8315V10.6268C45.8315 8.83669 45.6407 8.11119 45.4876 7.76969C45.2521 7.15959 44.6868 6.35639 43.3536 6.35639C42.9185 6.36449 42.4916 6.47539 42.1076 6.68009C41.7236 6.88479 41.3934 7.17749 41.1442 7.53409C40.4964 8.44799 40.4187 9.82129 40.4187 11.1921V19.4692H36.6853V3.42389ZM23.7539 3.42389H27.4896V4.87249C27.9358 4.34769 28.463 3.89759 29.0513 3.53929C29.7495 3.15289 30.5413 2.96779 31.3384 3.00459C32.3687 2.98109 33.385 3.24539 34.2733 3.76779L32.7399 7.15959C32.1765 6.78209 31.5126 6.58269 30.8344 6.58719C30.0335 6.58719 29.2327 6.70029 28.5095 7.46349C27.4802 8.56819 27.4802 10.0921 27.4802 11.1592V19.4692H23.7562L23.7539 3.42389ZM6.8064 11.5031C6.8064 14.2848 8.5589 16.6097 11.2653 16.6097C13.6207 16.6097 15.7995 14.8949 15.7995 11.5407C15.7995 8.03349 13.6278 6.35869 11.2653 6.35869C8.5589 6.35869 6.8064 8.64589 6.8064 11.5031ZM15.571 3.42389H19.3139V19.4692H15.5734V17.7921C14.9836 18.4865 14.2471 19.0414 13.417 19.4169C12.5869 19.7925 11.6839 19.9792 10.773 19.9638C5.8265 19.9638 3 15.8489 3 11.4277C3 6.20559 6.5826 3.00459 10.813 3.00459C11.7311 2.98499 12.6408 3.18179 13.4687 3.57919C14.2965 3.97649 15.0192 4.56319 15.5781 5.29169L15.571 3.42389Z" fill="white"/>
</svg>
