<svg width="153" height="21" viewBox="0 0 153 21" fill="none" xmlns="http://www.w3.org/2000/svg">
<g clip-path="url(#clip0_183_337)">
<path d="M0.169897 0.00195312H11.2132C15.9703 0.00195312 19.1134 1.91329 20.5575 5.69349C20.8123 6.5005 20.9398 7.26504 20.9398 8.02957V15.8873C20.9398 18.2234 19.708 19.8374 17.2445 20.6869L16.2251 20.7718H6.4136C4.11999 20.7718 2.25113 19.6675 0.764535 17.4588C0.254845 16.6094 0 15.8448 0 15.1228V14.1883C0 11.0452 1.74144 9.04895 5.18185 8.15699L6.4136 8.07205H15.9278C15.9278 6.58545 15.1208 5.56607 13.4643 4.97143C12.7423 4.84401 11.6804 4.75906 10.3637 4.75906H4.33237C2.54845 4.75906 1.18928 3.82463 0.169897 1.91329L0 0.766488V0.214324L0.169897 0.00195312ZM4.79958 14.4856C4.79958 15.4626 5.69154 16.0147 7.43298 16.0572H14.5262C15.4606 15.9722 15.9278 15.505 15.9278 14.6555V12.7867H6.79587C5.64906 12.7867 5.01195 13.2964 4.79958 14.2733V14.4856Z" fill="white"/>
<path d="M27.9482 0.128906H37.8022C37.9297 0.17138 37.9721 0.298803 37.9721 0.468699V0.935916C37.9721 2.88973 36.9103 4.20643 34.829 4.88601C34.6591 4.97096 34.3193 5.01344 33.8521 5.01344H30.4117C29.7746 5.01344 29.4348 5.43818 29.4348 6.24519V20.6439L29.3074 20.7714H24.6352L24.5078 20.6439V3.65426C24.5078 2.16767 25.4422 0.97839 27.2686 0.128906H27.9482Z" fill="white"/>
<path d="M49.1003 0.128906C51.4788 0.128906 53.56 1.02086 55.3864 2.84725C56.9155 1.06334 58.9543 0.128906 61.4178 0.128906C64.6883 0.128906 67.2792 1.65798 69.1481 4.71612C69.8701 6.28766 70.2099 7.56189 70.2099 8.49632V20.1767C70.2099 20.559 69.9975 20.7714 69.6153 20.7714H69.2755C67.2367 20.7714 65.8351 19.5396 65.0705 17.0761L64.9856 15.4196V9.77054C64.9856 7.90168 64.5609 6.66993 63.6689 6.11776C63.0743 5.52313 62.3522 5.22581 61.5027 5.22581H61.3328C59.7188 5.22581 58.572 6.16024 57.8499 7.98663V20.2617L57.3402 20.7714H53.0928C52.7955 20.6439 52.6681 20.4316 52.6681 20.1342V9.3458C52.6681 7.43446 51.8611 6.11777 50.2895 5.3957L49.2277 5.22581H49.0578C47.3588 5.22581 46.1695 6.20271 45.5749 8.199L45.49 9.09096V20.3466L45.0652 20.7714H40.7328L40.3081 20.3466V11.2571C40.3081 7.39199 40.8178 4.97096 41.8796 4.03653C42.6867 2.54993 44.3007 1.40313 46.7217 0.511174L49.1003 0.128906Z" fill="white"/>
<path d="M80.191 0.0859375H94.08C94.5048 0.128412 94.7171 0.298307 94.7171 0.680575C94.7171 2.84676 93.5279 4.29088 91.1493 5.05541L90.3423 5.14036H80.3609C79.4264 5.26779 78.9592 5.69253 78.9592 6.45706V6.62696C78.9592 7.39149 79.4264 7.85871 80.3609 7.94366H87.2841C90.852 7.94366 93.1456 9.21788 94.2074 11.8088C94.5897 12.7857 94.8021 13.7626 94.8021 14.782C94.8021 16.9057 93.6553 18.6896 91.3192 20.1337C90.4272 20.5585 89.5353 20.7709 88.6008 20.7709H74.3295C74.0322 20.6434 73.9048 20.4311 73.9048 20.1337C73.9048 18.095 74.9666 16.7358 77.1328 16.0138C77.3452 15.8863 77.6425 15.8439 78.0248 15.8439H87.7938C88.7707 15.8439 89.4079 15.5041 89.7052 14.782V14.1449C89.5353 13.3804 88.9831 12.9981 88.0487 12.9981H81.1254C77.685 12.9981 75.3914 11.554 74.2021 8.62324C73.9897 7.60386 73.8623 6.75438 73.8623 6.07479C73.8623 3.82366 75.1365 1.99727 77.7275 0.595626C78.5769 0.255833 79.384 0.0859375 80.191 0.0859375Z" fill="white"/>
<path d="M108.139 0.171875H108.564C111.452 0.171875 114.001 1.36115 116.209 3.73971C117.866 5.77847 118.673 7.90218 118.673 10.0684V10.7904C118.673 13.3813 117.611 15.7174 115.53 17.8836C113.406 19.7949 111.155 20.7718 108.734 20.7718H108.012C105.633 20.7718 103.424 19.8799 101.301 18.0535C99.0921 15.8448 98.0303 13.4238 98.0303 10.7055V10.1958C98.0303 7.43496 99.1771 4.92898 101.513 2.72033C103.509 1.02136 105.718 0.171875 108.139 0.171875ZM102.915 10.3657C102.915 12.1921 103.722 13.6787 105.378 14.8255C106.313 15.4201 107.29 15.7174 108.267 15.7174C110.093 15.7174 111.58 14.9104 112.726 13.2539C113.321 12.3195 113.618 11.3426 113.618 10.3657C113.618 8.53929 112.811 7.05269 111.155 5.90589C110.22 5.31125 109.243 5.01393 108.267 5.01393C106.44 5.01393 104.954 5.82094 103.807 7.47743C103.212 8.36939 102.915 9.3463 102.915 10.3657Z" fill="white"/>
<path d="M130.99 0.128906C133.369 0.128906 135.45 1.02086 137.277 2.84725C138.806 1.06334 140.844 0.128906 143.308 0.128906C146.578 0.128906 149.169 1.65798 151.038 4.71612C151.76 6.28766 152.1 7.56189 152.1 8.49632V20.1767C152.1 20.559 151.888 20.7714 151.505 20.7714H151.166C149.127 20.7714 147.725 19.5396 146.961 17.0761L146.876 15.4196V9.77054C146.876 7.90168 146.451 6.66993 145.559 6.11776C144.964 5.52313 144.242 5.22581 143.393 5.22581H143.223C141.609 5.22581 140.462 6.16024 139.74 7.98663V20.2617L139.23 20.7714H134.898C134.601 20.6439 134.473 20.4316 134.473 20.1342V9.3458C134.473 7.43446 133.666 6.11777 132.095 5.3957L131.033 5.22581H130.863C129.164 5.22581 127.975 6.20271 127.38 8.199L127.295 9.09096V20.3466L126.87 20.7714H122.496L122.071 20.3466V11.2571C122.071 7.39199 122.58 4.97096 123.642 4.03653C124.449 2.54993 126.063 1.40313 128.484 0.511174L130.99 0.128906Z" fill="white"/>
</g>
<defs>
<clipPath id="clip0_183_337">
<rect width="152.1" height="20.7699" fill="white"/>
</clipPath>
</defs>
</svg>
