<svg width="125" height="50" viewBox="0 0 125 50" fill="none" xmlns="http://www.w3.org/2000/svg">
<mask id="mask0_28_140" style="mask-type:luminance" maskUnits="userSpaceOnUse" x="0" y="12" width="125" height="26">
<path d="M125 12H0V37.1437H125V12Z" fill="white"/>
</mask>
<g mask="url(#mask0_28_140)">
<path d="M83.6796 18.5313C82.4856 18.5313 81.5021 19.4444 81.5021 20.5679V32.578H66.7529L64.9267 29.277L61.7665 23.7993V14.458C61.7665 13.3345 60.783 12.4214 59.5891 12.4214H48.9138C47.7198 12.4214 46.7363 13.3345 46.7363 14.458V32.6484H44.6997L39.7134 23.8689V14.458C39.7134 13.3345 38.7299 12.4214 37.5359 12.4214H26.8606C25.6667 12.4214 24.6832 13.3345 24.6832 14.458V32.6484H21.3118L16.6063 13.9659C16.3951 13.0529 15.4828 12.4214 14.4993 12.4214H8.66954C7.68678 12.4214 6.84339 13.0529 6.5625 13.9659L1.43534 34.5449C1.15445 35.6685 1.85704 36.7921 3.051 37.0026C3.12141 37.0026 3.19181 37.0026 3.26149 37.0026C3.33189 37.0026 3.4727 37.0026 3.54238 37.0026C3.68319 37.0026 3.82327 37.0026 3.89368 37.0026C4.73635 36.8625 5.43893 36.3007 5.64942 35.458L10.4253 16.4243H12.8836L17.5194 35.1771C17.7299 36.0902 18.643 36.7921 19.6264 36.7921H26.8606C28.0546 36.7921 29.0373 35.879 29.0373 34.7554V16.4947H35.4993V24.361C35.4993 24.7123 35.569 25.0629 35.7802 25.3438L41.6092 35.6685C41.9605 36.3007 42.7328 36.7217 43.5057 36.7217H48.9842C50.1782 36.7217 51.1609 35.8086 51.1609 34.685V16.4947H57.6228V24.361C57.6228 24.7123 57.6932 25.0629 57.9037 25.3438L63.7328 35.6685C64.0136 36.1599 64.5057 36.5112 65.0675 36.652C65.278 36.7217 65.4188 36.7217 65.6293 36.7217H83.8197C85.0136 36.7217 85.9971 35.8086 85.9971 34.685V20.6383C85.8563 19.4444 84.8736 18.5313 83.6796 18.5313Z" fill="white"/>
<path d="M121.465 12.0701C120.271 11.8589 119.147 12.5615 118.937 13.6851L115.074 32.6484H113.95L110.228 14.0364C110.017 13.0529 109.175 12.351 108.121 12.351H104.047C102.994 12.351 102.151 13.0529 101.94 14.0364L98.1473 32.578H97.0237L93.2313 14.0364C93.0201 13.0529 92.1774 12.351 91.1243 12.351H89.3685H70.6157C69.4217 12.351 68.4389 13.2641 68.4389 14.3877V28.4344C68.4389 29.5579 69.4217 30.471 70.6157 30.471C71.8096 30.471 72.7931 29.5579 72.7931 28.4344V16.4947H89.3685V16.5651L93.0905 35.1068C93.3017 36.0902 94.1444 36.7921 95.1976 36.7921H99.903C100.957 36.7921 101.8 36.0902 102.01 35.1068L105.803 16.5651H106.365L110.157 35.1068C110.369 36.0902 111.211 36.7921 112.264 36.7921H116.97C118.024 36.7921 118.866 36.0902 119.077 35.1068L122.87 15.8625V12.9832C122.589 12.4911 122.097 12.1405 121.465 12.0701Z" fill="white"/>
</g>
</svg>
