<svg width="99" height="18" viewBox="0 0 99 18" fill="none" xmlns="http://www.w3.org/2000/svg">
<path d="M48.6377 2.96106H52.0678V8.21686H52.1036L55.9736 2.96106H60.1039L55.3423 8.95146L60.4723 15.831H56.0995L52.1036 9.98626H52.0678V15.831H48.6377" fill="white"/>
<path d="M59.3621 15.8303H62.8439L63.8594 13.0845H68.688L69.6452 15.8303H73.4066L68.4515 2.96033H64.2463L59.3621 15.8303ZM67.8745 10.6513H64.6497L66.3138 5.61673H66.3489" fill="white"/>
<path d="M73.8935 12.6566C74.7759 13.1395 76.0153 13.5078 77.4336 13.5078C78.5227 13.5078 79.5528 13.2879 79.5528 12.2531C79.5528 9.85636 73.4702 11.3721 73.4702 6.68926C73.4702 3.58896 76.4903 2.74036 79.0725 2.74036C80.3099 2.74036 81.5268 2.92326 82.3927 3.22336L82.1687 5.87176C81.2824 5.46906 80.2861 5.28286 79.3182 5.28286C78.4504 5.28286 77.0037 5.35776 77.0037 6.48256C77.0037 8.56796 83.0929 7.16556 83.0929 11.8133C83.0929 15.146 80.2861 16.0503 77.4336 16.0503C76.2326 16.0503 74.7381 15.8707 73.5974 15.4991L73.8935 12.6566Z" fill="white"/>
<path d="M84.552 2.96106H93.616V5.39616H87.979V8.05386H93.304V10.4824H87.979V13.3985H93.821V15.831H84.552" fill="white"/>
<path d="M95.574 2.96033V15.8303H99V2.96033H95.574Z" fill="white"/>
<path d="M1 15.8303H2.9317L4.2459 12.5843H10.5471L11.8568 15.8303H13.8699L8.4253 2.96033H6.4936L1 15.8303ZM9.9562 11.0779H4.8335L7.3992 4.69263" fill="white"/>
<path d="M14.8583 13.9856C15.5439 14.4294 16.5197 14.6507 17.0152 14.6507C17.8121 14.6507 18.7853 14.3155 18.7853 13.3052C18.7853 11.5869 14.7119 11.7346 14.7119 9.10535C14.7119 7.14385 16.1712 6.20715 18.0307 6.20715C18.8469 6.20715 19.506 6.37405 20.189 6.57215L20.0399 8.08845C19.661 7.84865 18.621 7.60555 18.2169 7.60555C17.3285 7.60555 16.5561 7.98175 16.5561 8.75085C16.5561 10.6707 20.6315 10.1143 20.6315 13.1171C20.6315 15.127 19.0297 16.0504 17.3491 16.0504C16.472 16.0504 15.5625 15.959 14.7689 15.533L14.8583 13.9856Z" fill="white"/>
<path d="M23.2653 8.56805C23.9682 7.98175 25.0182 7.60555 25.9966 7.60555C27.7262 7.60555 28.3191 8.43495 28.3191 10.0599C27.6322 10.0222 27.1559 10.0222 26.4729 10.0222C24.6869 10.0222 22.1047 10.7628 22.1047 13.1171C22.1047 15.1654 23.5277 16.0504 25.5541 16.0504C27.138 16.0504 28.0614 15.1859 28.4668 14.6129H28.5039V15.8305H30.1263C30.0865 15.5536 30.0461 15.0594 30.0461 13.9856V10.1003C30.0461 7.53395 28.9637 6.20715 26.2722 6.20715C25.0751 6.20715 24.043 6.57145 23.1732 7.09145L23.2653 8.56805ZM28.3191 12.1817C28.3191 13.5788 27.4136 14.6507 25.7044 14.6507C24.9075 14.6507 23.947 14.1134 23.947 13.1171C23.947 11.4623 26.2722 11.3126 27.2155 11.3126C27.5805 11.3126 27.9501 11.3497 28.3191 11.3497V12.1817Z" fill="white"/>
<path d="M32.606 2.95044H34.3343V7.76964H34.3747C35.0007 6.77734 36.0891 6.20694 37.3948 6.20694C39.8279 6.20694 40.9137 7.71804 40.9137 10.2426V15.8303H39.1827V10.9646C39.1827 8.76864 38.6998 7.70274 37.1914 7.60544C35.2193 7.60544 34.3343 9.19464 34.3343 11.482V15.8303H32.606V2.95044Z" fill="white"/>
<path d="M45.3214 2.94055V4.89535H43.3679V2.94055H45.3214ZM43.4785 15.8304V6.42825H45.2161V15.8304H43.4785Z" fill="white"/>
</svg>
