<svg width="93" height="20" viewBox="0 0 93 20" fill="none" xmlns="http://www.w3.org/2000/svg">
<path d="M89.234 2.86206C90.366 2.86206 90.638 3.49616 89.777 4.26606L77.4581 15.8604C76.6429 16.6303 76.0994 16.3586 76.3259 15.2263L78.2281 4.90016C78.4545 3.76786 79.5415 2.86206 80.6737 2.86206H89.234Z" fill="#0070BC"/>
<path d="M90.139 4.49255C91.09 4.49255 91.272 5.03595 90.592 5.67005L80.4925 15.1358C79.8132 15.7698 79.4055 15.5434 79.5414 14.6376L81.1266 6.16825C81.3077 5.26245 82.2135 4.49255 83.1193 4.49255H90.139Z" fill="#00A1DF"/>
<path d="M10.5642 16.2681H7.57507L7.75617 15.1812H7.71097C7.52977 15.4076 7.30327 15.6341 7.07687 15.8152C6.85037 15.9964 6.57867 16.1322 6.30697 16.2681C6.03517 16.404 5.71817 16.4946 5.40117 16.5399C5.08407 16.5852 4.81237 16.6304 4.49527 16.6304C3.72537 16.6304 3.04607 16.4946 2.45727 16.1775C1.86847 15.9058 1.41557 15.4982 1.09857 15C0.781471 14.5018 0.555072 13.9583 0.419172 13.279C0.283372 12.6449 0.328571 11.9655 0.464471 11.2409C0.600371 10.4257 0.87207 9.70096 1.27967 9.02166C1.77787 8.43286 2.23077 7.84406 2.77427 7.39116C3.31777 6.93826 3.90657 6.57596 4.54057 6.34956C5.17467 6.12306 5.85407 5.98716 6.53337 5.98716C6.94097 5.98716 7.30327 6.03246 7.62037 6.12306C7.93737 6.21366 8.20907 6.34956 8.39027 6.48536C8.61677 6.62126 8.75257 6.75716 8.88847 6.93826C9.02437 7.11946 9.11497 7.25536 9.20547 7.43646H9.25077L9.43197 6.39476H12.4211L10.5642 16.2681ZM3.49897 11.3315C3.45367 11.5579 3.45367 11.8297 3.49897 12.1014C3.54427 12.3732 3.63477 12.6449 3.77067 12.9166C3.90657 13.1884 4.13297 13.3695 4.40477 13.5507C4.67647 13.7319 5.03877 13.8224 5.49167 13.8224C5.94457 13.8224 6.35217 13.7319 6.71457 13.5507C7.07687 13.3695 7.34857 13.1431 7.62037 12.9166C7.84677 12.6449 8.07327 12.3732 8.20907 12.1014C8.34497 11.7844 8.43557 11.5126 8.48087 11.2862C8.52617 10.9692 8.52617 10.6974 8.48087 10.3804C8.43557 10.0634 8.34497 9.79156 8.16387 9.56516C7.98267 9.33866 7.75617 9.11226 7.48447 8.97636C7.21277 8.84046 6.89567 8.74986 6.44277 8.74986C5.98987 8.74986 5.62757 8.84046 5.31057 8.97636C4.99347 9.15756 4.67647 9.33866 4.45007 9.61046C4.17827 9.88216 3.99717 10.1539 3.86127 10.4257C3.68007 10.7427 3.58947 11.0145 3.49897 11.3315ZM17.4031 9.11226V8.88576C17.4031 8.79516 17.3578 8.70456 17.3125 8.61406C17.2672 8.52346 17.1766 8.47816 17.086 8.38756C16.9502 8.34226 16.8143 8.29696 16.5878 8.29696C16.2708 8.29696 16.0444 8.38756 15.9085 8.52346C15.7726 8.65936 15.682 8.84046 15.6367 8.97636C15.5915 9.24806 15.7273 9.47456 15.9991 9.61046C16.2708 9.79156 16.5878 9.92746 16.9955 10.0181C17.4031 10.1539 17.7654 10.2445 18.173 10.4257C18.5806 10.5615 18.8976 10.7427 19.2147 10.9692C19.4864 11.1956 19.7129 11.4674 19.8487 11.8297C19.9846 12.192 19.9846 12.5996 19.894 13.1431C19.8034 13.6866 19.577 14.1395 19.3053 14.5471C19.0335 14.9547 18.6712 15.317 18.2183 15.6341C17.8107 15.9511 17.3125 16.1322 16.8143 16.3134C16.2708 16.4493 15.7726 16.5399 15.1838 16.5399C14.8215 16.5399 14.4139 16.4946 13.961 16.404C13.5534 16.3134 13.1458 16.1322 12.7835 15.8605C12.4211 15.5888 12.1494 15.2717 11.9682 14.8641C11.7418 14.4565 11.6965 13.913 11.7418 13.2337H14.7309C14.7309 13.4601 14.7762 13.6413 14.8215 13.7772C14.9121 13.913 15.0027 14.0036 15.1386 14.0489C15.2744 14.0942 15.365 14.1395 15.4556 14.1395H15.682C15.9538 14.1395 16.1802 14.0489 16.4067 13.913C16.6331 13.7772 16.8143 13.596 16.8596 13.3243C16.9049 13.1431 16.8596 12.9619 16.8143 12.8714C16.7237 12.7355 16.5878 12.6449 16.4067 12.509C16.2255 12.4184 15.9538 12.2826 15.6367 12.1467C15.3197 12.0108 14.9574 11.875 14.5045 11.6938C14.1875 11.6032 13.9157 11.4674 13.644 11.2862C13.3722 11.1503 13.1911 10.9239 13.0099 10.7427C12.8288 10.5163 12.6929 10.2898 12.6476 10.0181C12.557 9.74626 12.557 9.42926 12.6023 9.11226C12.6929 8.61406 12.874 8.16116 13.1911 7.75356C13.4628 7.34586 13.8251 6.98356 14.2327 6.71186C14.6404 6.44006 15.0933 6.21366 15.5915 6.03246C16.0896 5.89666 16.5878 5.80606 17.086 5.80606C17.4031 5.80606 17.7654 5.85136 18.173 5.94186C18.5806 6.03246 18.9429 6.16836 19.3053 6.39476C19.6223 6.62126 19.894 6.93826 20.1205 7.34586C20.3469 7.75356 20.3922 8.29696 20.3469 8.93106H17.4031V9.11226ZM21.7509 6.30426H24.5589L24.3778 7.34586H24.423C24.5136 7.25536 24.6042 7.11946 24.7854 6.93826C24.9212 6.80246 25.1024 6.62126 25.3741 6.48536C25.6006 6.34956 25.9176 6.21366 26.2347 6.07776C26.597 5.98716 26.9593 5.89666 27.4575 5.89666C27.6839 5.89666 27.9104 5.94186 28.1369 5.98716C28.4086 6.03246 28.635 6.12306 28.8615 6.25896C29.0879 6.39476 29.3144 6.57596 29.4956 6.80246C29.6767 7.02886 29.8579 7.34586 29.9938 7.70826C30.4014 7.21006 30.8996 6.80246 31.4883 6.44006C32.0771 6.07776 32.7565 5.89666 33.4811 5.89666C33.6623 5.89666 33.8434 5.89666 34.0699 5.94186C34.2963 5.98716 34.5228 6.03246 34.7039 6.07776C34.9304 6.16836 35.1115 6.25896 35.338 6.39476C35.5644 6.53066 35.7456 6.71186 35.8815 6.93826C36.0626 7.21006 36.1985 7.43646 36.2891 7.66296C36.3797 7.88936 36.4703 8.16116 36.4703 8.43286C36.5155 8.70456 36.4703 9.06696 36.425 9.42926C36.3797 9.79156 36.2891 10.2898 36.1985 10.8333L35.2021 16.2681H32.213L33.2094 10.9692C33.2546 10.7427 33.2999 10.5163 33.2999 10.2898C33.3452 10.0181 33.2999 9.79156 33.2546 9.56516C33.2094 9.33866 33.0735 9.15756 32.8923 8.97636C32.7112 8.84046 32.4394 8.74986 32.0318 8.74986C31.6242 8.74986 31.2619 8.84046 31.0354 8.97636C30.7637 9.15756 30.5825 9.33866 30.4467 9.56516C30.3108 9.79156 30.2202 10.0181 30.1296 10.2445C30.0843 10.471 30.039 10.6521 29.9938 10.788L28.9974 16.2228H26.0082L27.0046 10.788C27.0499 10.6521 27.0499 10.471 27.0952 10.2445C27.1405 10.0181 27.0952 9.79156 27.0499 9.56516C27.0046 9.33866 26.8687 9.15756 26.7329 8.97636C26.5517 8.79516 26.2799 8.70456 25.9176 8.70456C25.51 8.70456 25.1477 8.79516 24.9212 8.97636C24.6495 9.15756 24.4683 9.33866 24.2872 9.61046C24.1513 9.83686 24.0154 10.1086 23.9701 10.3351C23.9249 10.6068 23.8796 10.788 23.8343 10.9239L22.8379 16.2228H19.894L21.7509 6.30426ZM46.6153 13.1431C46.2982 13.6866 45.8906 14.1848 45.483 14.6377C45.0301 15.0453 44.6225 15.4076 44.1243 15.7246C43.1732 16.3134 42.1768 16.6304 41.1351 16.6304C40.4105 16.6304 39.7764 16.4946 39.1877 16.2228C38.5989 15.9511 38.1007 15.5888 37.6931 15.0906C37.2855 14.5924 37.0137 14.0489 36.8779 13.4148C36.6967 12.7808 36.6967 12.1014 36.8326 11.3315C36.9684 10.6521 37.2402 9.97276 37.6025 9.33866C37.9648 8.70456 38.463 8.11586 39.0065 7.61766C39.55 7.11946 40.1841 6.71186 40.8634 6.44006C41.5428 6.12306 42.2674 5.98716 43.0373 5.98716C43.8073 5.98716 44.4866 6.12306 45.0754 6.39476C45.6642 6.66656 46.1624 7.07416 46.5247 7.57236C46.887 8.07056 47.1587 8.65936 47.2946 9.29336C47.4305 9.97276 47.4305 10.6521 47.2946 11.4221C47.2493 11.6485 47.204 11.7844 47.204 11.875C47.1587 11.9655 47.1135 12.1014 47.0682 12.192H39.5953C39.5953 12.7808 39.7764 13.2337 40.1388 13.596C40.5011 13.913 40.9993 14.0942 41.5881 14.0942C42.041 14.0942 42.4033 14.0036 42.7203 13.8224C43.0373 13.6413 43.3091 13.4148 43.5355 13.1431H46.6153ZM44.5319 10.1992C44.5319 10.0634 44.4866 9.88216 44.4413 9.70096C44.396 9.51986 44.3055 9.29336 44.1243 9.15756C43.9884 8.97636 43.762 8.84046 43.5355 8.70456C43.2638 8.56876 42.9468 8.52346 42.5844 8.52346C42.2221 8.52346 41.8598 8.56876 41.5881 8.70456C41.271 8.84046 41.0446 8.97636 40.8181 9.15756C40.5917 9.33866 40.4105 9.51986 40.3199 9.70096C40.1841 9.88216 40.0935 10.0634 40.0482 10.1992H44.5319ZM57.9378 16.2681H55.0845L55.2657 15.1812H55.2204C55.1298 15.2717 55.0392 15.4076 54.8581 15.5888C54.7222 15.7246 54.4958 15.9058 54.224 16.0417C53.9523 16.1775 53.6353 16.3134 53.2729 16.4493C52.9106 16.5399 52.4577 16.6304 51.9595 16.6304C51.1896 16.6304 50.5555 16.4946 49.9667 16.2228C49.378 15.9511 48.9251 15.5888 48.608 15.0906C48.2457 14.5924 48.0193 14.0489 47.9287 13.4148C47.7928 12.7808 47.8381 12.0561 47.974 11.3315C48.1098 10.471 48.4269 9.74626 48.7892 9.06696C49.1968 8.38756 49.6497 7.84406 50.1932 7.39116C50.7367 6.93826 51.3255 6.57596 51.9595 6.34956C52.5936 6.12306 53.2276 5.98716 53.8617 5.98716C54.3146 5.98716 54.6769 6.03246 54.994 6.12306C55.311 6.21366 55.5827 6.34956 55.7639 6.44006C55.9903 6.57596 56.1262 6.71186 56.2621 6.84766C56.398 6.98356 56.4885 7.07416 56.5338 7.16476L57.3038 2.99806H60.2929L57.9378 16.2681ZM50.9631 11.2409C50.8725 11.6032 50.8725 11.9655 50.9631 12.2826C51.0084 12.5996 51.1443 12.8714 51.3255 13.0978C51.5066 13.3243 51.7331 13.5054 52.0048 13.6413C52.2765 13.7772 52.5936 13.8224 52.9559 13.8224C53.4088 13.8224 53.8164 13.7319 54.1787 13.5507C54.5411 13.3695 54.8581 13.1884 55.0845 12.9166C55.3563 12.6449 55.5374 12.3732 55.6733 12.1014C55.8092 11.7844 55.8998 11.5126 55.9451 11.2409C55.9903 10.9239 55.9903 10.6521 55.9451 10.3351C55.8998 10.0181 55.7639 9.74626 55.628 9.51986C55.4469 9.29336 55.2204 9.11226 54.9487 8.93106C54.6769 8.79516 54.3146 8.70456 53.907 8.70456C53.4541 8.70456 53.0918 8.79516 52.7294 8.93106C52.3671 9.06696 52.0954 9.29336 51.8236 9.51986C51.5519 9.74626 51.3707 10.0181 51.1896 10.3351C51.1443 10.6521 51.0084 10.9692 50.9631 11.2409ZM62.0139 16.2681H59.0248L60.8817 6.30426H63.8708L62.0139 16.2681ZM64.052 5.21726H61.0628L61.4705 2.95276H64.4596L64.052 5.21726ZM73.6082 16.2681H70.6191L70.8002 15.1812H70.755C70.5738 15.4076 70.3473 15.6341 70.1209 15.8152C69.8944 15.9964 69.6227 16.1322 69.351 16.2681C69.0792 16.404 68.7622 16.4946 68.4452 16.5399C68.1281 16.5852 67.8564 16.6304 67.5394 16.6304C66.7694 16.6304 66.0901 16.4946 65.5013 16.1775C64.9125 15.9058 64.4596 15.4982 64.1426 15C63.8256 14.5018 63.5991 13.9583 63.4632 13.279C63.3274 12.6449 63.3727 11.9655 63.5085 11.2409C63.6444 10.4257 63.9161 9.70096 64.3237 9.02166C64.7314 8.34226 65.1843 7.79876 65.7277 7.34586C66.2712 6.89296 66.86 6.53066 67.4941 6.30426C68.1281 6.07776 68.8075 5.94186 69.4868 5.94186C69.8944 5.94186 70.2568 5.98716 70.5738 6.07776C70.8908 6.16836 71.1626 6.30426 71.3437 6.44006C71.5702 6.57596 71.7061 6.71186 71.8419 6.89296C71.9778 7.07416 72.0684 7.21006 72.159 7.39116H72.2042L72.3854 6.34956H75.3746L73.6082 16.2681ZM66.543 11.3315C66.4977 11.5579 66.4977 11.8297 66.543 12.1014C66.5883 12.3732 66.6788 12.6449 66.8147 12.9166C66.9506 13.1884 67.177 13.3695 67.4488 13.5507C67.7205 13.7319 68.0828 13.8224 68.5357 13.8224C68.9886 13.8224 69.3963 13.7319 69.7586 13.5507C70.1209 13.3695 70.3926 13.1431 70.6644 12.9166C70.8908 12.6449 71.1173 12.3732 71.2532 12.1014C71.389 11.7844 71.4796 11.5126 71.5249 11.2862C71.5702 10.9692 71.5702 10.6974 71.5249 10.3804C71.4796 10.0634 71.389 9.79156 71.2079 9.56516C71.0267 9.33866 70.8003 9.11226 70.5285 8.97636C70.2568 8.84046 69.8944 8.74986 69.4868 8.74986C69.0339 8.74986 68.6716 8.84046 68.3546 8.97636C68.0375 9.15756 67.7205 9.33866 67.4941 9.61046C67.2223 9.88216 67.0412 10.1539 66.9053 10.4257C66.7241 10.7427 66.6336 11.0145 66.543 11.3315Z" fill="white"/>
</svg>
