<svg width="93" height="16" viewBox="0 0 93 16" fill="none" xmlns="http://www.w3.org/2000/svg">
<g clip-path="url(#clip0_10_2361)">
<path fill-rule="evenodd" clip-rule="evenodd" d="M92.691 7.81104C92.142 9.44714 91.014 11.0356 89.708 12.0812C88.403 13.1257 85.672 13.4922 83.7548 13.4922H76.3783L79.1554 6.55044L82.4897 6.55214L80.8228 10.7155L84.698 10.7192C85.672 10.7192 86.498 10.372 87.288 9.87814C88.08 9.38634 88.631 8.71164 88.875 7.93884C89.12 7.13764 89.025 6.51434 88.567 5.98924C88.143 5.49454 87.321 5.16254 86.376 5.16254H79.7109L80.8228 2.38504H87.486C89.406 2.38504 91.259 2.86984 92.142 3.85844C93.056 4.87534 93.241 6.20534 92.691 7.81104ZM63.2188 5.16294H54.3666L53.8111 6.55094H62.6642L61.5519 9.32754H52.7005L52.1437 10.7163H60.9981L59.9208 13.4926H47.7022L52.1433 2.38464H64.3299L63.2188 5.16294ZM77.6586 5.16294H68.8076L68.2512 6.55094H77.1039L75.9938 9.32754H67.139L66.5843 10.7163H75.4387L74.3605 13.4926H62.1411L66.5839 2.38464H78.7713L77.6586 5.16294ZM48.9015 6.49914C48.4754 7.74904 47.6681 8.86824 46.3278 9.63164C45.0775 10.363 43.5996 10.7212 42.0744 10.7212L36.8703 10.7159L35.7601 13.4926H32.4287L34.6491 7.93884H43.3847C43.8416 7.93884 44.3005 7.79054 44.6954 7.54764C45.0939 7.33364 45.3368 6.99714 45.4884 6.63394C45.61 6.23614 45.5492 5.79984 45.3064 5.58574C45.0627 5.34214 44.8569 5.16294 44.3696 5.16294H35.7601L36.8703 2.38544H44.8799C46.4034 2.38544 47.5284 2.75074 48.3222 3.48244C49.1139 4.27544 49.2976 5.28004 48.9015 6.49914ZM32.7016 5.16294H23.5925C23.1652 5.16294 22.5221 5.26524 22.4281 5.98964C22.3985 6.21024 22.8533 6.55664 23.2293 6.53774H28.8056C30.1476 6.53774 31.1517 6.84594 31.8227 7.52384C32.4086 8.32464 32.5857 9.05554 32.1884 10.1629C31.8227 11.2398 31.1941 11.8257 30.0358 12.5024C28.9367 13.1466 27.7197 13.4852 26.3794 13.4852L17.1545 13.4926L18.2638 10.7101L27.4288 10.7167C27.7953 10.7167 28.1807 10.6592 28.3685 10.5782C28.553 10.4969 29.053 10.3872 29.053 9.86004C29.053 9.33784 28.2271 9.32474 27.8598 9.32474H22.2526C21.0352 9.32474 20.0914 9.00914 19.4496 8.45574C18.7495 7.84024 18.7022 6.51314 18.9311 5.77844C19.1591 5.04384 20.0396 3.86254 21.135 3.24704C22.1741 2.69194 23.3008 2.38464 24.5186 2.38464H33.8167L32.7007 5.16214L32.7016 5.16294Z" fill="white"/>
<path fill-rule="evenodd" clip-rule="evenodd" d="M12.4322 2.38464H8.54704L7.43604 5.16254H10.4896L11.0443 7.93844H6.32374L5.21484 10.7155H11.8775L12.712 13.4922H15.4887L12.4322 2.38464Z" fill="#E50113"/>
<path fill-rule="evenodd" clip-rule="evenodd" d="M2.15927 5.16211L1.04907 7.93801H6.32387L7.43617 5.16211H2.15927Z" fill="url(#paint0_linear_10_2361)"/>
<path fill-rule="evenodd" clip-rule="evenodd" d="M-0.0631399 10.7151L-1.17334 13.4926H4.10186L5.21456 10.7151H-0.0631399Z" fill="url(#paint1_linear_10_2361)"/>
</g>
<defs>
<linearGradient id="paint0_linear_10_2361" x1="6.83877" y1="6.72011" x2="1.29187" y2="6.72011" gradientUnits="userSpaceOnUse">
<stop stop-color="#E50113"/>
<stop offset="1" stop-color="#242424" stop-opacity="0"/>
</linearGradient>
<linearGradient id="paint1_linear_10_2361" x1="4.61706" y1="12.274" x2="-0.93054" y2="12.274" gradientUnits="userSpaceOnUse">
<stop stop-color="#E50113"/>
<stop offset="1" stop-color="#242424" stop-opacity="0"/>
</linearGradient>
<clipPath id="clip0_10_2361">
<rect width="93" height="16" fill="white"/>
</clipPath>
</defs>
</svg>
