<svg width="144" height="34" viewBox="0 0 144 34" fill="none" xmlns="http://www.w3.org/2000/svg">
<path d="M43.8467 26.1338C43.542 25.118 42.7632 24.7795 41.7813 24.7795C40.2238 24.7795 39.3435 25.6259 39.3435 27.1157C39.3435 28.6055 40.2577 29.4519 41.7813 29.4519C42.8987 29.4519 43.7451 28.8425 43.8467 27.8944H46.4538C46.0136 30.6031 44.0499 31.2126 41.5782 31.2126C38.7002 31.2126 36.7364 29.9937 36.7364 27.1157C36.7364 24.2377 38.7679 23.0188 41.7813 23.0188C43.7113 23.0188 45.9798 23.5944 46.4538 26.1338H43.8467ZM52.3113 29.4858C53.8688 29.4858 54.7491 28.6393 54.7491 27.1495C54.7491 25.6598 53.8349 24.8133 52.3113 24.8133C50.7538 24.8133 49.8735 25.6598 49.8735 27.1495C49.8735 28.6393 50.7538 29.4858 52.3113 29.4858ZM52.3113 23.0188C55.3247 23.0188 57.3562 24.2377 57.3562 27.1157C57.3562 29.9937 55.3247 31.2126 52.3113 31.2126C49.2979 31.2126 47.2664 29.9937 47.2664 27.1157C47.2664 24.2377 49.2979 23.0188 52.3113 23.0188ZM70.5949 26.3708C70.5949 25.355 69.7823 25.0503 69.0712 25.0503C68.0216 25.0503 67.1752 25.6259 67.1752 26.811V30.9417H64.6696V26.3708C64.6696 25.355 63.857 25.0503 63.146 25.0503C62.0625 25.0503 61.2161 25.6259 61.2161 26.811V30.9417H58.7106V23.2897H61.1484V24.407H61.1822C61.6224 23.7637 62.8413 23.0865 64.2972 23.0865C65.7531 23.0865 66.5319 23.6621 66.9382 24.5424C67.6492 23.6283 68.6988 23.0865 70.087 23.0865C71.6106 23.0865 73.1343 23.7298 73.1343 25.7613V30.9417H70.6287V26.3708H70.5949ZM79.6012 29.3842C80.854 29.3842 81.9713 28.6393 81.9713 27.1834C81.9713 25.7275 80.8878 24.9826 79.6012 24.9826C78.3485 24.9826 77.265 25.7275 77.265 27.1834C77.2311 28.6393 78.3485 29.3842 79.6012 29.3842ZM74.8272 23.2897H77.265V24.3393H77.2989C78.2469 23.3235 79.0933 23.0865 80.143 23.0865C82.6146 23.0865 84.5784 24.4409 84.5784 27.1157C84.5784 29.5874 82.7162 31.2126 80.3123 31.2126C78.8902 31.2126 77.8744 30.7724 77.3666 30.0614H77.3327V33.7519H74.8272V23.2897ZM90.6052 29.4858C92.1627 29.4858 93.043 28.6393 93.043 27.1495C93.043 25.6598 92.1289 24.8133 90.6052 24.8133C89.0477 24.8133 88.1674 25.6598 88.1674 27.1495C88.1336 28.6393 89.0477 29.4858 90.6052 29.4858ZM90.6052 23.0188C93.6186 23.0188 95.6501 24.2377 95.6501 27.1157C95.6501 29.9937 93.6186 31.2126 90.6052 31.2126C87.5918 31.2126 85.5603 29.9937 85.5603 27.1157C85.5603 24.2377 87.558 23.0188 90.6052 23.0188ZM103.336 26.6078C103.336 25.5582 102.794 25.0503 101.643 25.0503C100.492 25.0503 99.4761 25.6259 99.4761 27.2511V30.9417H96.9706V23.2897H99.4084V24.407H99.4423C99.8824 23.7637 101.101 23.0865 102.557 23.0865C103.844 23.0865 105.842 23.5944 105.842 25.8291V30.9078H103.336V26.6078ZM114.475 26.3031C114.475 25.8629 113.934 24.5763 112.105 24.5763C110.142 24.5763 109.701 26.0999 109.701 26.2692V26.3031H114.475ZM116.913 28.6732C116.202 30.5015 114.442 31.2464 112.139 31.2464C109.126 31.2464 107.094 30.0275 107.094 27.1495C107.094 24.2716 109.126 23.0527 112.139 23.0527C115.457 23.0527 117.049 24.7117 117.049 27.5897V27.7929H109.701V27.8267C109.701 28.5716 110.446 29.6551 112.139 29.6551C113.155 29.6551 113.866 29.3165 114.205 28.6393H116.913V28.6732ZM124.701 26.6078C124.701 25.5582 124.159 25.0503 123.008 25.0503C121.857 25.0503 120.841 25.6259 120.841 27.2511V30.9417H118.335V23.2897H120.773V24.407H120.807C121.247 23.7637 122.466 23.0865 123.922 23.0865C125.209 23.0865 127.206 23.5944 127.206 25.8291V30.9078H124.701V26.6078ZM129.712 20.9196H132.217V23.2897H134.249V24.9826H132.217V28.5377C132.217 29.1472 132.387 29.3503 133.064 29.3503C133.504 29.3503 133.876 29.3165 134.283 29.2826V30.9756C133.809 31.0433 132.861 31.111 132.319 31.111C129.949 31.111 129.712 30.2307 129.712 28.8425V24.9826H128.12V23.2897H129.712V20.9196ZM137.567 28.5716C137.668 29.2149 138.142 29.6551 139.429 29.6551C140.58 29.6551 141.224 29.3842 141.224 28.8425C141.224 28.4023 141.02 28.233 139.802 28.0637L137.533 27.759C135.942 27.5558 135.028 27.048 135.028 25.5921C135.028 23.5267 137.127 23.0188 139.192 23.0188C142.713 23.0188 143.526 24.17 143.695 25.5921H140.919C140.783 24.8133 139.937 24.5763 139.226 24.5763C138.583 24.5763 137.601 24.644 137.601 25.3889C137.601 25.7614 137.77 25.9984 138.854 26.0999L140.58 26.2692C143.12 26.5401 143.966 27.285 143.966 28.6393C143.966 30.9078 141.427 31.2126 139.26 31.2126C136.382 31.2126 134.892 30.3661 134.757 28.5716H137.567ZM12.0536 0.909244L11.9859 0.739952H9.27722L0 17.2629H2.91183L5.58664 12.3195H15.3379L18.0466 17.2629H20.9922L12.0536 0.909244ZM14.3221 10.4235H6.56854L10.53 3.17776L14.3221 10.4235ZM38.5648 10.8975C38.2262 10.3896 37.786 9.98331 37.2104 9.64472C36.6687 9.30614 36.0254 9.03527 35.3144 8.79826C34.6033 8.59511 33.8585 8.39196 33.0459 8.25653L27.6285 7.30849C27.1883 7.24077 26.7482 7.1392 26.3757 7.03762C26.0033 6.93605 25.6647 6.76676 25.36 6.59746C25.0891 6.42817 24.886 6.22502 24.7167 5.98801C24.5812 5.751 24.5135 5.48014 24.5135 5.17541C24.5135 4.63367 24.649 4.22737 24.9198 3.85493C25.1907 3.48249 25.5631 3.17776 26.0372 2.97461C26.5112 2.7376 27.0868 2.56831 27.7301 2.46673C29.0844 2.22972 30.6419 2.22972 31.9624 2.53445C32.6396 2.66988 33.249 2.90689 33.7907 3.21162C34.2986 3.48249 34.7049 3.85493 35.0435 4.26123C35.3482 4.66753 35.5175 5.14155 35.5514 5.68329L35.5852 5.95415H38.2601V5.64943C38.2601 4.76911 38.023 3.99036 37.549 3.31319C37.075 2.66988 36.4317 2.12815 35.653 1.68799C34.8742 1.24783 33.96 0.943102 32.9443 0.706093C31.9285 0.502943 30.8451 0.401367 29.7277 0.401367C28.1364 0.401367 26.8159 0.570659 25.8001 0.909244C24.7844 1.24783 23.9379 1.65413 23.3623 2.12815C22.7529 2.63603 22.3466 3.1439 22.1096 3.7195C21.8726 4.26123 21.771 4.76911 21.771 5.17541C21.771 5.85258 21.9403 6.42817 22.245 6.93605C22.5497 7.41007 22.956 7.78251 23.43 8.12109C23.9041 8.42582 24.4797 8.69669 25.123 8.86598C25.7324 9.03527 26.3757 9.20457 27.0529 9.30614L32.0301 10.1865C32.538 10.288 33.0459 10.3896 33.5876 10.525C34.0955 10.6605 34.5695 10.8298 35.0096 11.0668C35.4159 11.2699 35.7545 11.5408 35.9915 11.8117C36.2285 12.0825 36.3301 12.3873 36.3301 12.7936C36.3301 13.3014 36.1608 13.7077 35.8222 14.0802C35.4498 14.4526 34.9758 14.7912 34.434 15.0282C33.8585 15.2652 33.249 15.4684 32.6057 15.57C31.9285 15.6715 31.3191 15.7392 30.7435 15.7392C29.7616 15.7392 28.8135 15.6715 27.9332 15.5361C27.0868 15.4007 26.308 15.1637 25.6986 14.8589C25.0891 14.5542 24.6151 14.1479 24.2765 13.64C23.9379 13.1321 23.7686 12.5227 23.8025 11.7778V11.4731H21.0938L21.06 11.7439C20.9922 12.7936 21.1954 13.6739 21.6356 14.4526C22.0757 15.1975 22.719 15.807 23.5655 16.281C24.3781 16.755 25.36 17.0936 26.5112 17.2967C27.6285 17.4999 28.8813 17.6353 30.2017 17.6353C31.5222 17.6353 32.6734 17.5337 33.6214 17.3645C34.5695 17.1952 35.3821 16.9582 36.0254 16.6873C36.7026 16.4164 37.2104 16.0778 37.6167 15.7054C37.9892 15.3329 38.2939 14.9944 38.4971 14.6219C38.7002 14.2495 38.8356 13.9109 38.9034 13.5723C38.9711 13.2676 38.9711 12.9967 38.9711 12.7936C39.0727 12.0487 38.9034 11.4392 38.5648 10.8975ZM58.3043 10.8975C57.9657 10.3896 57.5255 9.98331 56.9499 9.64472C56.4082 9.30614 55.7649 9.03527 55.0538 8.79826C54.3428 8.59511 53.5979 8.39196 52.7853 8.25653L47.368 7.30849C46.9278 7.24077 46.4877 7.1392 46.1152 7.03762C45.7428 6.93605 45.4042 6.76676 45.0995 6.59746C44.8286 6.42817 44.6254 6.22502 44.4562 5.98801C44.3207 5.751 44.253 5.48014 44.253 5.17541C44.253 4.63367 44.3884 4.22737 44.6593 3.85493C44.9302 3.48249 45.3026 3.17776 45.7766 2.97461C46.2506 2.7376 46.8262 2.56831 47.4696 2.46673C48.8239 2.22972 50.3814 2.22972 51.7019 2.53445C52.379 2.66988 52.9885 2.90689 53.5302 3.21162C54.0381 3.48249 54.4444 3.85493 54.783 4.26123C55.0877 4.66753 55.257 5.14155 55.2909 5.68329L55.3247 5.95415H57.9995V5.64943C57.9995 4.76911 57.7625 3.99036 57.2885 3.31319C56.8145 2.66988 56.1712 2.12815 55.3924 1.68799C54.6137 1.24783 53.7334 0.943102 52.6838 0.706093C51.668 0.502943 50.5845 0.401367 49.4672 0.401367C47.8759 0.401367 46.5554 0.570659 45.5396 0.909244C44.5239 1.24783 43.6774 1.65413 43.1018 2.12815C42.4924 2.60217 42.0861 3.1439 41.849 3.7195C41.612 4.26123 41.5105 4.76911 41.5105 5.17541C41.5105 5.85258 41.6798 6.42817 41.9845 6.93605C42.2892 7.41007 42.6955 7.78251 43.1695 8.12109C43.6435 8.42582 44.2191 8.69669 44.8625 8.86598C45.4719 9.03527 46.1152 9.20457 46.7924 9.30614L51.7357 10.1865C52.2436 10.288 52.7515 10.3896 53.2932 10.525C53.8011 10.6605 54.2751 10.8298 54.7153 11.0668C55.1216 11.2699 55.4601 11.5408 55.6972 11.8117C55.9342 12.0825 56.0357 12.3873 56.0357 12.7936C56.0357 13.3014 55.8664 13.7077 55.5279 14.0802C55.1554 14.4526 54.6814 14.7912 54.1397 15.0282C53.5641 15.2652 52.9546 15.4684 52.3113 15.57C51.6341 15.6715 51.0247 15.7392 50.4491 15.7392C49.4672 15.7392 48.5192 15.6715 47.6388 15.5361C46.7924 15.4007 46.0475 15.1637 45.4042 14.8589C44.7947 14.5542 44.3207 14.1479 43.9821 13.64C43.6435 13.1321 43.4743 12.5227 43.5081 11.7778V11.4731H40.7994L40.7656 11.7439C40.6979 12.7936 40.901 13.6739 41.3412 14.4526C41.7813 15.1975 42.4246 15.807 43.2711 16.281C44.0837 16.755 45.0656 17.0936 46.2168 17.2967C47.3341 17.4999 48.5869 17.6353 49.9074 17.6353C51.2278 17.6353 52.379 17.5337 53.3271 17.3645C54.2751 17.1952 55.0877 16.9582 55.731 16.6873C56.4082 16.4164 56.9161 16.0778 57.3224 15.7054C57.6948 15.3329 57.9995 14.9944 58.2027 14.6219C58.4058 14.2495 58.5413 13.9109 58.609 13.5723C58.6767 13.2676 58.6767 12.9967 58.6767 12.7936C58.8121 12.0487 58.6428 11.4392 58.3043 10.8975ZM78.9918 0.739952L71.5091 14.3849L64.3988 0.909244L64.3311 0.739952H60.7421V17.2629H63.4507V4.26123L70.324 17.2629H72.6941L79.8721 4.22737V17.2629H82.5808V0.739952H78.9918ZM95.5824 0.909244L95.5147 0.739952H92.806L83.5627 17.2629H86.4745L89.1493 12.3195H98.9005L101.609 17.2629H104.555L95.5824 0.909244ZM97.8509 10.4235H90.0973L94.0588 3.17776L97.8509 10.4235ZM120.942 0.739952V13.8432L108.381 0.739952H105.571V17.2629H108.279V4.15966L120.875 17.2629H123.651V0.739952H120.942ZM141.291 0.739952V13.8432L128.696 0.739952H125.92V17.2629H128.628V4.15966L141.224 17.2629H144V0.739952H141.291Z" fill="#0069B4"/>
<path d="M29.7954 30.9414L28.4749 25.9642H28.4411L27.1206 30.9414M34.6033 23.2894L32.3348 30.9414M29.5584 23.2894L30.9127 28.4698H30.9466L32.1655 23.2894M24.7844 23.2894L25.9694 28.4698H26.0033L27.3915 23.2894M24.6151 30.9414L22.3127 23.2894M2.60706 30.9414L0.304688 23.2894M7.78741 30.9414L6.46693 25.9642H6.43307L5.11259 30.9414M12.5953 23.2894L10.3268 30.9414M7.5504 23.2894L8.90474 28.4698H8.93859L10.1236 23.2894M2.77635 23.2894L3.9614 28.4698H3.99526L5.38346 23.2894M15.6087 28.5713C15.7103 29.2147 16.1843 29.6548 17.4709 29.6548C18.6221 29.6548 19.2654 29.3839 19.2654 28.8422C19.2654 28.402 19.0623 28.2328 17.8434 28.0635L15.5749 27.7587C13.9835 27.5556 13.0693 27.0477 13.0693 25.5918C13.0693 23.5264 15.1686 23.0186 17.2339 23.0186C20.7552 23.0186 21.5678 24.1697 21.7371 25.5918" stroke="#0069B4" stroke-width="0.592523" stroke-miterlimit="10"/>
<path d="M18.9948 25.5919C18.8593 24.8132 18.0129 24.5762 17.3018 24.5762C16.6585 24.5762 15.6766 24.6439 15.6766 25.3888C15.6766 25.7612 15.8459 25.9982 16.9294 26.0998L18.6562 26.2691C21.1956 26.54 22.042 27.2848 22.042 28.6392C22.042 30.9077 19.5026 31.2124 17.3357 31.2124C14.4577 31.2124 12.968 30.366 12.8325 28.5715" stroke="#0069B4" stroke-width="0.592523" stroke-miterlimit="10"/>
</svg>
