<svg width="148" height="27" viewBox="0 0 148 27" fill="none" xmlns="http://www.w3.org/2000/svg">
<rect x="13.5916" y="13.2666" width="18.6735" height="18.6735" transform="rotate(-45 13.5916 13.2666)" fill="#F5A100"/>
<rect x="26.7835" y="13.2666" width="18.6735" height="18.6735" transform="rotate(-45 26.7835 13.2666)" fill="#D6001E"/>
<rect x="0.399414" y="13.2666" width="18.6735" height="18.6735" transform="rotate(-45 0.399414 13.2666)" fill="#FBC93A"/>
<path fill-rule="evenodd" clip-rule="evenodd" d="M33.3916 6.69775L39.9996 13.3058L33.3916 19.9139L26.7835 13.3058L33.3916 6.69775Z" fill="#B03C27"/>
<path fill-rule="evenodd" clip-rule="evenodd" d="M20.1997 6.69775L26.8078 13.3058L20.1997 19.9139L13.5916 13.3058L20.1997 6.69775Z" fill="#DC9334"/>
<path d="M148 13.1625C148 15.0494 147.649 16.627 146.946 17.8951C146.243 19.1556 145.223 20.1067 143.886 20.7484C142.549 21.3825 140.937 21.6995 139.05 21.6995H134.398V4.94629H139.555C141.289 4.94629 142.786 5.25951 144.047 5.88594C145.307 6.50473 146.281 7.42528 146.969 8.64759C147.656 9.86225 148 11.3672 148 13.1625ZM145.135 13.2427C145.135 11.8676 144.917 10.737 144.482 9.85079C144.054 8.96462 143.42 8.30763 142.58 7.87982C141.747 7.44438 140.72 7.22666 139.497 7.22666H137.148V19.3962H139.096C141.121 19.3962 142.633 18.8806 143.634 17.8493C144.635 16.8179 145.135 15.2824 145.135 13.2427Z" fill="white"/>
<path d="M129.998 21.6995H126.617L118.413 8.32673H118.309C118.34 8.77746 118.367 9.25492 118.39 9.75912C118.42 10.2633 118.443 10.7828 118.458 11.3176C118.481 11.8523 118.5 12.3947 118.516 12.9448V21.6995H116.018V4.94629H119.375L127.568 18.2274H127.649C127.633 17.8378 127.614 17.3909 127.591 16.8867C127.568 16.3825 127.546 15.863 127.523 15.3283C127.507 14.7859 127.496 14.2626 127.488 13.7584V4.94629H129.998V21.6995Z" fill="white"/>
<path d="M112.397 21.6995H102.908V4.94629H112.397L111.668 7.26103H105.659V11.8103H111.973V14.1136H105.659V19.3733H112.397V21.6995Z" fill="white"/>
<path d="M82.179 21.6995H79.4173V7.28395H74.5128V4.94629H86.3438L85.2516 7.28395H82.179V21.6995Z" fill="white"/>
<path d="M95.4465 21.6995H92.6848V7.28395H87.7803V4.94629H99.6113L98.5191 7.28395H95.4465V21.6995Z" fill="white"/>
<path d="M71.2355 21.6994L69.5968 17.047H63.1911L61.5525 21.6994H58.6533L64.8871 4.87744H67.9352L74.1575 21.6994H71.2355ZM68.8863 14.6865L67.2935 10.1028C67.2324 9.90418 67.1445 9.62534 67.03 9.26629C66.9154 8.89959 66.8008 8.52908 66.6862 8.15475C66.5716 7.77278 66.4761 7.45192 66.3997 7.19218C66.3233 7.5054 66.2278 7.85681 66.1132 8.24642C66.0063 8.62839 65.8993 8.98745 65.7924 9.32358C65.6931 9.65972 65.6167 9.91946 65.5632 10.1028L63.9589 14.6865H68.8863Z" fill="white"/>
</svg>
