<svg width="67" height="49" viewBox="0 0 67 49" fill="none" xmlns="http://www.w3.org/2000/svg">
<path d="M25.5143 11.0664C25.6832 11.1364 25.7316 11.2929 25.8129 11.4195C28.6822 15.9351 31.5474 20.4527 34.426 24.962C34.6072 25.2451 34.6278 25.4346 34.4363 25.7321C31.3755 30.5102 28.3291 35.2975 25.2786 40.0828C24.9543 40.5914 24.0205 40.6017 23.7116 40.0992C20.8989 35.5302 18.0893 30.958 15.2705 26.392C15.113 26.1367 15.0522 25.9565 15.254 25.6703C18.6206 20.8882 21.9727 16.0967 25.329 11.3073C25.3877 11.2239 25.4526 11.1457 25.5133 11.0664H25.5143Z" fill="white"/>
<path d="M35.8902 40.4342C33.1341 40.4342 30.3781 40.4342 27.621 40.4311C27.4923 40.4311 27.3224 40.5053 27.24 40.3797C27.1494 40.2407 27.309 40.1326 27.3759 40.0245C30.2 35.4853 33.0301 30.9491 35.849 26.4068C36.0086 26.1494 36.1486 26.0866 36.4595 26.1453C41.4291 27.0915 46.4017 28.0222 51.3754 28.9415C51.7913 29.0188 51.8304 29.1032 51.5988 29.4635C49.3266 32.9979 47.0678 36.5426 44.8183 40.0914C44.6484 40.3601 44.4621 40.4414 44.1573 40.4404C41.4013 40.4291 38.6452 40.4342 35.8881 40.4332L35.8902 40.4342Z" fill="#2C2C2C"/>
<path d="M27.5698 10.9287C28.6426 11.1789 29.6021 11.4013 30.5627 11.6267C34.7498 12.6141 38.9369 13.6014 43.124 14.5897C43.3917 14.6525 43.6172 14.7483 43.7932 15.0005C46.678 19.1362 49.573 23.2646 52.465 27.3951C52.5216 27.4754 52.569 27.5619 52.6678 27.7204C51.8853 27.705 51.2058 27.5011 50.5212 27.3734C46.0839 26.5416 41.6549 25.6706 37.2155 24.849C36.5144 24.7193 36.1088 24.3899 35.7351 23.7948C33.1561 19.6828 30.5338 15.5966 27.926 11.5022C27.8272 11.3467 27.7315 11.1882 27.5709 10.9297L27.5698 10.9287Z" fill="#6F6F6F"/>
<path d="M21.7032 40.4382C21.3409 40.4382 21.0721 40.4382 20.8045 40.4382C15.7227 40.4382 10.6399 40.4382 5.55811 40.4361C5.39338 40.4361 5.15865 40.5216 5.07628 40.3836C4.96406 40.1973 5.19674 40.0583 5.2966 39.9152C8.10723 35.8949 10.923 31.8787 13.7377 27.8614C13.9546 27.5519 14.1561 27.5567 14.3421 27.8758C16.6843 31.8694 19.0265 35.8619 21.3686 39.8555C21.4634 40.0161 21.555 40.1788 21.7043 40.4392L21.7032 40.4382Z" fill="#6F6F6F"/>
<path d="M61.5699 40.4187H46.5264C48.9231 36.6393 51.2869 32.9124 53.6734 29.1494C56.3038 32.9041 58.9106 36.6228 61.5699 40.4187Z" fill="white"/>
<path d="M33.2515 -0.000976562C36.2279 4.24688 39.1765 8.45664 42.1899 12.758C37.0412 11.5257 31.9965 10.318 26.8828 9.09289C29.0067 6.06092 31.1101 3.05674 33.2515 -0.000976562Z" fill="#2C2C2C"/>
<path d="M39.9009 47.9483C39.1823 47.9483 38.4637 47.9679 37.7461 47.9432C37.0121 47.9185 36.8062 47.692 36.8031 46.9662C36.7969 45.7184 36.801 44.4716 36.8031 43.2238C36.8031 42.4846 37.0049 42.254 37.7749 42.2169C38.475 42.183 39.1772 42.1984 39.8783 42.2015C41.0056 42.2046 42.136 42.1562 43.249 42.4033C43.841 42.5351 44.3856 42.7719 44.8705 43.1353C46.1893 44.1247 46.178 46.0736 44.8509 47.0527C44.0047 47.6765 43.0194 47.8722 42.0043 47.9308C41.3052 47.971 40.6031 47.938 39.902 47.938C39.902 47.9411 39.902 47.9453 39.902 47.9483H39.9009ZM38.9455 45.0842C38.9455 45.6319 38.9517 46.1786 38.9424 46.7263C38.9393 46.9312 38.9785 47.0465 39.2194 47.0372C40.1583 46.9981 41.1024 47.1144 42.0352 46.9332C43.1151 46.7242 43.6865 46.0303 43.6628 44.9668C43.6412 44.0145 43.0431 43.3999 41.9765 43.2331C41.0756 43.092 40.1666 43.1373 39.2606 43.1209C39.0135 43.1167 38.9342 43.197 38.9404 43.4421C38.9558 43.9888 38.9455 44.5365 38.9455 45.0842Z" fill="white"/>
<path d="M51.8983 47.9538C50.8718 47.9538 49.8443 47.9661 48.8179 47.9496C47.8954 47.9352 47.7235 47.7427 47.7225 46.8151C47.7214 45.5838 47.7194 44.3524 47.7245 43.1211C47.7276 42.5086 47.8718 42.3222 48.4823 42.2419C48.8869 42.1884 49.3018 42.1997 49.7115 42.1987C51.3372 42.1945 52.9628 42.1966 54.5895 42.1987C54.8283 42.1987 55.0672 42.1946 55.2998 42.2749C55.4872 42.3397 55.6694 42.4169 55.6756 42.6372C55.6828 42.8895 55.481 42.9698 55.2751 43.0316C55.025 43.1067 54.7696 43.1108 54.5122 43.1108C53.109 43.1108 51.7057 43.1222 50.3025 43.1026C49.9432 43.0974 49.8402 43.1973 49.8454 43.5577C49.8588 44.5254 49.8423 44.5254 50.8173 44.5254C51.9981 44.5254 53.179 44.5161 54.3599 44.5316C54.7037 44.5357 55.2226 44.4791 55.237 44.929C55.2525 45.4273 54.7223 45.383 54.3619 45.3861C53.0102 45.3995 51.6574 45.4036 50.3056 45.383C49.9483 45.3779 49.8443 45.4746 49.8474 45.837C49.8577 47.0313 49.8423 47.0313 51.0448 47.0313C52.2936 47.0313 53.5435 47.0313 54.7923 47.0313C55.0332 47.0313 55.27 47.0437 55.5006 47.124C55.689 47.1898 55.8609 47.2907 55.8558 47.5069C55.8506 47.7231 55.6705 47.8096 55.4841 47.8796C55.269 47.9599 55.0466 47.9558 54.8252 47.9568C53.8492 47.9599 52.8743 47.9579 51.8983 47.9579V47.9538Z" fill="white"/>
<path d="M19.7111 44.3297C19.7111 44.7569 19.709 45.1852 19.7111 45.6125C19.7152 46.5545 19.2777 47.1949 18.4118 47.5675C17.8549 47.8074 17.2763 47.9464 16.6781 47.9969C15.3088 48.1132 13.9406 48.1214 12.6022 47.7487C11.3266 47.3936 10.8262 46.7295 10.8118 45.4127C10.8036 44.6426 10.8056 43.8736 10.8098 43.1035C10.8139 42.3633 11.1114 42.0935 11.9021 42.1007C12.6742 42.1079 12.9471 42.3633 12.9491 43.086C12.9512 43.9076 12.9419 44.7281 12.9522 45.5497C12.9635 46.4484 13.3136 46.8613 14.1897 47.0363C14.9382 47.1856 15.6887 47.1681 16.4331 47.0188C17.1754 46.8695 17.5491 46.4104 17.5563 45.6495C17.5645 44.76 17.5532 43.8705 17.5604 42.981C17.5656 42.356 17.8724 42.1069 18.6126 42.1028C19.3775 42.0976 19.7008 42.3581 19.708 42.9964C19.7132 43.4412 19.709 43.8859 19.709 44.3307L19.7111 44.3297Z" fill="white"/>
<path d="M61.4453 42.1037C62.342 42.0965 62.8959 42.3055 63.3098 42.8758C64.293 44.2317 65.3019 45.567 66.2934 46.9168C66.7886 47.5901 66.6084 47.9535 65.7734 48.0554C65.0795 48.1409 64.6008 47.8269 64.3022 47.2575C64.0068 46.6934 63.5836 46.5533 62.9793 46.5832C61.9899 46.6316 60.9954 46.611 60.0029 46.5904C59.6611 46.5832 59.4202 46.6563 59.2555 46.9775C59.1474 47.1875 58.9888 47.3739 58.8426 47.5623C58.437 48.0843 57.6782 48.2181 57.0996 47.8876C56.8011 47.7167 56.7259 47.4995 56.9308 47.2153C58.0303 45.6916 59.1227 44.1617 60.2387 42.6504C60.5836 42.184 61.1272 42.114 61.4443 42.1037H61.4453ZM60.1193 45.671H63.2192C62.6859 44.8773 62.1886 44.1381 61.6533 43.3402C61.122 44.1473 60.6381 44.8824 60.1193 45.671Z" fill="white"/>
<path d="M4.83008 42.1016C5.56723 42.0851 6.13244 42.3559 6.57411 42.9757C7.52437 44.312 8.52302 45.6144 9.49387 46.9353C9.97569 47.5911 9.8017 47.9432 8.98322 48.0503C8.29755 48.1398 7.80543 47.8526 7.50172 47.275C7.19904 46.6995 6.77281 46.542 6.13759 46.5801C5.13173 46.6408 4.1197 46.6058 3.11076 46.5904C2.82558 46.5863 2.62791 46.6542 2.48377 46.9137C2.36023 47.136 2.19962 47.3399 2.04416 47.5427C1.63132 48.0791 0.902412 48.2222 0.307342 47.8969C0.0201017 47.7393 -0.10756 47.5324 0.106583 47.2349C1.21436 45.6967 2.31596 44.1535 3.44433 42.6287C3.77584 42.1809 4.30708 42.115 4.83111 42.1006L4.83008 42.1016ZM6.4063 45.6762C5.86682 44.8711 5.37059 44.1308 4.84038 43.3391C4.31737 44.1339 3.82629 44.8783 3.30122 45.6762H6.4063Z" fill="white"/>
<path d="M25.9776 46.7234C26.8239 45.3562 27.6177 44.0651 28.4228 42.7813C28.8377 42.1203 29.3597 41.9443 30.0834 42.1903C30.5735 42.3582 30.6836 42.6021 30.3985 43.0294C29.4111 44.5058 28.431 45.9883 27.3994 47.4337C26.7745 48.3099 25.0789 48.3191 24.4581 47.4461C23.4295 45.9986 22.4546 44.5119 21.4734 43.0315C21.1893 42.6021 21.3005 42.3633 21.7977 42.1893C22.5256 41.935 23.1032 42.1172 23.5181 42.7731C24.3294 44.0569 25.1242 45.35 25.9766 46.7213L25.9776 46.7234Z" fill="white"/>
<path d="M34.4066 45.1038C34.4066 45.7884 34.4107 46.472 34.4066 47.1556C34.4014 47.8012 34.0885 48.0575 33.3215 48.0555C32.5812 48.0534 32.261 47.8012 32.258 47.1865C32.2518 45.7843 32.2507 44.3821 32.258 42.9788C32.261 42.3632 32.5833 42.1048 33.3163 42.1006C34.0782 42.0965 34.3994 42.357 34.4045 42.9984C34.4107 43.6995 34.4056 44.4006 34.4066 45.1017V45.1038Z" fill="white"/>
</svg>
