<svg width="125" height="50" viewBox="0 0 125 50" fill="none" xmlns="http://www.w3.org/2000/svg">
<path fill-rule="evenodd" clip-rule="evenodd" d="M63.3996 5.00056C113.606 5.00911 115.568 5.01409 116.185 5.13945C116.538 5.21139 117.082 5.351 117.396 5.45C117.709 5.54901 118.173 5.72422 118.428 5.84032C118.683 5.95571 119.083 6.16654 119.318 6.30828C119.553 6.45003 119.985 6.74847 120.279 6.9707C120.573 7.19292 121.054 7.62812 121.349 7.93653C121.643 8.24566 122.095 8.81903 122.355 9.21078C122.613 9.60253 122.938 10.1795 123.076 10.4929C123.215 10.8063 123.393 11.255 123.471 11.49C123.549 11.7251 123.67 12.1574 123.741 12.4516C123.861 12.9523 123.87 13.7173 123.892 24.7382C123.911 35.1523 123.902 36.5719 123.803 37.203C123.741 37.5947 123.583 38.2357 123.453 38.6275C123.322 39.0192 123.094 39.5798 122.947 39.874C122.8 40.1674 122.542 40.6169 122.375 40.8711C122.207 41.1254 121.847 41.5905 121.575 41.9039C121.302 42.2173 120.866 42.6504 120.604 42.8655C120.343 43.0806 119.946 43.3798 119.724 43.5286C119.5 43.6782 118.997 43.9574 118.606 44.149C118.214 44.3406 117.606 44.5806 117.253 44.6818C116.901 44.7829 116.308 44.9133 115.936 44.9717C115.342 45.0643 108.883 45.075 62.6165 45.0564C12.0546 45.0358 9.9517 45.0301 9.43915 44.9061C9.14514 44.8349 8.71303 44.7131 8.47811 44.6348C8.24319 44.5564 7.79471 44.3776 7.48148 44.2373C7.16825 44.0963 6.7518 43.884 6.55604 43.7658C6.36027 43.6469 5.95948 43.3684 5.66619 43.1461C5.37218 42.9239 4.87529 42.473 4.56064 42.1447C4.2467 41.8163 3.80961 41.2757 3.58963 40.9424C3.36966 40.609 3.0785 40.1126 2.94182 39.8384C2.80514 39.5641 2.59514 39.0513 2.47412 38.6987C2.35381 38.3461 2.19791 37.7535 2.12743 37.381C2.00855 36.7478 2.00001 35.9544 2.00001 25.0588C2.00001 15.5101 2.0178 13.317 2.09754 12.879C2.15093 12.5848 2.27337 12.072 2.36876 11.7393C2.46486 11.406 2.66917 10.8533 2.82294 10.5107C2.97742 10.1681 3.22088 9.70296 3.36397 9.47788C3.50777 9.25281 3.77116 8.87601 3.94985 8.64097C4.12924 8.40592 4.50013 7.99138 4.77491 7.71929C5.0497 7.4472 5.51456 7.0462 5.80856 6.82824C6.10186 6.60957 6.63078 6.28193 6.98316 6.09959C7.33554 5.91725 7.83172 5.69004 8.08658 5.59388C8.34143 5.49843 8.85398 5.34886 9.22558 5.26196C9.59718 5.17506 10.2066 5.07891 10.5782 5.04828C10.9498 5.01694 34.7201 4.99629 63.3996 5.00056V5.00056ZM8.94083 7.15375C8.64683 7.25347 8.15065 7.46786 7.83742 7.63097C7.52419 7.79337 7.0273 8.10748 6.73401 8.32757C6.44 8.54766 6.01287 8.93228 5.78436 9.183C5.55585 9.43301 5.19706 9.89456 4.98634 10.208C4.77634 10.5214 4.47308 11.0983 4.3129 11.49C4.15273 11.8818 3.9591 12.515 3.88293 12.8968C3.7491 13.5677 3.74411 13.9723 3.7434 25.0053C3.74269 34.7577 3.75764 36.5078 3.84805 37.0249C3.90571 37.3582 4.02958 37.8547 4.12354 38.1289C4.2168 38.4031 4.39833 38.8362 4.52576 39.0905C4.65389 39.3448 4.86461 39.7137 4.99417 39.9096C5.12373 40.1055 5.39994 40.4616 5.60781 40.7016C5.81639 40.9409 6.16308 41.2878 6.37807 41.4716C6.59377 41.6561 6.99384 41.9538 7.26792 42.134C7.54199 42.3142 8.02251 42.5706 8.33573 42.7038C8.64896 42.8377 9.12948 43.0072 9.40355 43.0813C9.67763 43.1561 10.2379 43.2501 10.6493 43.2907C11.1612 43.342 27.6647 43.3648 62.9369 43.3648C95.9652 43.3641 114.745 43.3392 115.224 43.2943C115.636 43.2558 116.26 43.1426 116.613 43.0421C116.965 42.9417 117.494 42.7465 117.787 42.6077C118.081 42.4695 118.529 42.2166 118.784 42.0471C119.039 41.8776 119.454 41.5492 119.709 41.3163C119.964 41.0841 120.354 40.6567 120.576 40.3661C120.798 40.0755 121.108 39.5976 121.265 39.3042C121.423 39.01 121.614 38.5933 121.692 38.3782C121.769 38.1631 121.882 37.8098 121.941 37.5947C122.001 37.3796 122.083 36.8903 122.125 36.5085C122.175 36.0484 122.201 32.1686 122.2 25.0053C122.2 18.1597 122.173 13.9616 122.128 13.5556C122.088 13.203 121.989 12.6738 121.91 12.3804C121.829 12.0862 121.654 11.5976 121.52 11.2942C121.385 10.9907 121.124 10.51 120.938 10.2258C120.752 9.94157 120.359 9.45794 120.066 9.15024C119.772 8.84254 119.323 8.43654 119.069 8.24851C118.814 8.06047 118.365 7.77841 118.072 7.62171C117.779 7.46572 117.297 7.25632 117.004 7.15731C116.711 7.0583 116.182 6.92653 115.83 6.86528C115.252 6.76485 110.041 6.75417 62.9013 6.75986C17.4528 6.76556 10.539 6.77981 10.0442 6.87027C9.73102 6.92725 9.23413 7.05474 8.94083 7.15375V7.15375ZM37.4872 14.5207C45.5336 14.5165 52.1405 14.53 52.1697 14.5507C52.1989 14.5713 51.366 15.8712 48.4145 20.2894L25.2785 20.3222L24.9581 20.476C24.7816 20.5608 24.494 20.7495 24.3174 20.8963C24.1409 21.043 23.8654 21.3265 23.7052 21.5259C23.5443 21.7261 22.6025 23.219 21.6116 24.8451C20.6206 26.4705 18.8431 29.3552 17.6621 31.2555C16.4811 33.1551 15.389 34.9102 14.9562 35.6004H11.9485C9.45694 35.6004 8.94368 35.584 8.95863 35.5042C8.9686 35.4508 11.5228 31.0518 14.6359 25.7283C19.824 16.8549 20.3338 16.0101 20.758 15.5849C21.0122 15.3292 21.3973 15.0279 21.6123 14.9153C21.8273 14.8021 22.196 14.6689 22.4309 14.619C22.7677 14.5478 25.9626 14.5272 37.4872 14.5207V14.5207Z" fill="#FF6600"/>
<path fill-rule="evenodd" clip-rule="evenodd" d="M60.2318 14.4794C60.9394 14.4944 61.4919 14.5407 62.0115 14.7009L62.0471 15.7993L61.6022 15.629C61.3573 15.535 60.901 15.4182 60.5878 15.3683C60.2511 15.3156 59.7855 15.2964 59.4488 15.322C59.1355 15.3456 58.7355 15.4146 58.5589 15.4752C58.3824 15.5357 58.1183 15.6817 57.9716 15.7993C57.8086 15.9296 57.6741 16.1169 57.6256 16.28C57.5822 16.4268 57.5658 16.6511 57.59 16.7786C57.6143 16.9061 57.7374 17.1262 57.8648 17.2687C57.9923 17.4111 58.3041 17.6319 58.5589 17.7587C58.8138 17.8862 59.31 18.1092 59.6623 18.2545C60.0147 18.3998 60.5579 18.6519 60.8704 18.815C61.1822 18.9781 61.5986 19.258 61.7958 19.4375C62.0194 19.642 62.2173 19.9091 62.3233 20.1498C62.4593 20.4618 62.4856 20.6185 62.4579 20.9632C62.4387 21.1983 62.3746 21.4867 62.3148 21.6043C62.2543 21.7218 62.082 21.9462 61.9304 22.1036C61.7795 22.2603 61.479 22.4732 61.2641 22.5765C61.0491 22.6791 60.6163 22.8173 60.303 22.8821C59.9627 22.9526 59.4039 23.0003 58.9149 23.0003C58.4642 22.9996 57.8157 22.9497 57.4733 22.8892C57.1309 22.8294 56.7223 22.7311 56.2809 22.5658L56.2788 22.0494C56.2781 21.7652 56.2937 21.5174 56.3144 21.4974C56.335 21.4775 56.5037 21.5337 56.6902 21.6221C56.876 21.7104 57.2526 21.8486 57.5267 21.9291C57.8008 22.0103 58.3454 22.095 58.7369 22.1178C59.1626 22.1427 59.6346 22.1256 59.9115 22.0758C60.1763 22.0281 60.5023 21.9091 60.6739 21.7987C60.8391 21.6919 61.0234 21.5159 61.0832 21.4084C61.1438 21.3008 61.1929 21.0601 61.1929 20.8742C61.1922 20.6612 61.1395 20.4504 61.0505 20.3044C60.9722 20.1769 60.7558 19.9703 60.57 19.845C60.3842 19.7203 59.6709 19.3749 58.986 19.0778C58.3005 18.7808 57.5509 18.4104 57.3202 18.2552C57.0889 18.0992 56.8155 17.8599 56.7116 17.7224C56.6084 17.5849 56.4852 17.3848 56.4382 17.2772C56.3905 17.1697 56.3528 16.8812 56.3528 16.6362C56.3535 16.3463 56.4019 16.0913 56.4902 15.9061C56.5649 15.7494 56.7571 15.5008 56.9166 15.3541C57.0761 15.2074 57.3587 15.0108 57.5445 14.9175C57.7303 14.8242 58.0748 14.6967 58.3098 14.634C58.5447 14.5713 58.8166 14.5058 58.9149 14.4887C59.0124 14.4709 59.6054 14.4666 60.2318 14.4794ZM76.4271 14.4531C76.9162 14.4495 77.5248 14.4801 77.7797 14.5215C78.0345 14.5621 78.3634 14.634 78.7799 14.7665L78.7763 15.7993L78.4381 15.6639C78.2523 15.5891 77.8117 15.473 77.4593 15.4054C76.9852 15.3149 76.6428 15.295 76.1423 15.3285C75.7707 15.3534 75.2738 15.4239 75.0389 15.4859C74.804 15.5471 74.4353 15.6903 74.2203 15.8035C74.0053 15.9168 73.6415 16.1946 73.413 16.4204C73.1638 16.6668 72.9161 17.0037 72.7944 17.2594C72.6833 17.4945 72.5559 17.9111 72.5118 18.1854C72.4676 18.4596 72.452 18.8763 72.4776 19.1113C72.5032 19.3464 72.5751 19.7146 72.6378 19.9304C72.7004 20.1462 72.8656 20.4881 73.0051 20.6911C73.1446 20.8941 73.4194 21.1876 73.6152 21.3436C73.8109 21.4996 74.1313 21.6969 74.327 21.7823C74.5228 21.8678 74.8909 21.9825 75.1457 22.0366C75.4006 22.0915 75.8889 22.1363 76.2313 22.137C76.5737 22.1378 77.0863 22.0936 77.3703 22.0387C77.6544 21.9832 78.0787 21.8714 78.3136 21.7887C78.5485 21.7061 78.7485 21.6392 78.7585 21.6392C78.7685 21.6399 78.7763 21.8486 78.7763 22.5658L78.2958 22.7104C78.0317 22.7902 77.6074 22.8885 77.3525 22.9284C77.0977 22.9683 76.489 23.001 76 23.0017C75.4347 23.0017 74.9151 22.959 74.5762 22.8842C74.2822 22.8194 73.7782 22.6413 73.455 22.4882C73.0222 22.2831 72.7396 22.0836 72.3786 21.7289C72.0718 21.4269 71.807 21.0829 71.6668 20.803C71.5443 20.5579 71.3955 20.1733 71.3364 19.9482C71.2781 19.7232 71.2304 19.2502 71.2311 18.8976C71.2318 18.5451 71.2823 18.0479 71.3428 17.7936C71.4034 17.5393 71.5614 17.122 71.6952 16.8677C71.8284 16.6134 72.1224 16.2216 72.3487 15.9987C72.5758 15.7751 72.8406 15.5307 72.9389 15.456C73.0364 15.3812 73.2934 15.2223 73.5084 15.1034C73.7234 14.9837 74.0601 14.832 74.2559 14.7665C74.4516 14.7002 74.8197 14.6041 75.0745 14.5528C75.3294 14.5015 75.9373 14.4566 76.4271 14.4531ZM64.5387 14.5884H69.6642V15.4431H65.6777V18.221H69.3795V19.0757L65.7133 19.1113L65.6777 21.996H69.8778V22.922H64.5387V14.5884ZM80.7696 14.5884H81.9769L81.9968 17.5621C82.0168 20.4725 82.0203 20.543 82.1762 20.8742C82.2638 21.0601 82.4482 21.3243 82.5848 21.4618C82.7215 21.5993 82.9379 21.7645 83.0654 21.8293C83.1928 21.8942 83.4569 21.9896 83.6527 22.0416C83.8484 22.0943 84.2649 22.1378 84.5781 22.1392C84.9497 22.1406 85.3142 22.0915 85.6281 21.9974C85.9549 21.8999 86.2026 21.7681 86.4019 21.5865C86.5635 21.4397 86.78 21.1591 87.0697 20.6071L87.0889 14.5884H88.3155L88.3148 17.3485C88.3148 19.7431 88.2977 20.179 88.188 20.6427C88.1183 20.9369 87.978 21.3215 87.8762 21.4974C87.7744 21.6734 87.5431 21.954 87.363 22.1207C87.1822 22.2873 86.8981 22.4917 86.7315 22.5744C86.565 22.6577 86.1884 22.7866 85.8951 22.8614C85.5214 22.9561 85.1042 22.9975 84.5069 22.9996C83.9638 23.001 83.4711 22.9597 83.1544 22.8863C82.8803 22.823 82.4959 22.6912 82.3001 22.5929C82.1043 22.4946 81.8053 22.2802 81.6359 22.1157C81.4658 21.9518 81.2494 21.6655 81.1554 21.4796C81.0607 21.2937 80.9354 20.9411 80.877 20.6961C80.793 20.3414 80.7717 19.674 80.7703 17.4197L80.7696 14.5884ZM90.8782 14.5884L92.7469 14.5891C94.15 14.5905 94.7267 14.6169 95.0605 14.696C95.3054 14.7544 95.6578 14.879 95.8436 14.9737C96.0301 15.0685 96.2899 15.2522 96.4216 15.3833C96.5533 15.5144 96.7263 15.7494 96.8054 15.9061C96.8851 16.0628 96.9655 16.3833 96.9847 16.6184C97.0085 16.9033 96.9824 17.1644 96.9064 17.4019C96.8424 17.6034 96.6601 17.9083 96.4871 18.1035C96.2871 18.3307 96.0109 18.533 95.6834 18.6932C95.4094 18.8271 95.1296 18.9361 95.0605 18.9354C94.9922 18.934 94.921 18.9575 94.9032 18.9867C94.8847 19.0159 95.0207 19.1398 95.2058 19.2623C95.3901 19.3848 95.7681 19.7695 96.0458 20.117C96.3227 20.4646 96.9071 21.2225 97.3449 21.8001C97.8561 22.4761 98.1081 22.8643 98.0504 22.8885C98.002 22.9091 97.6909 22.917 96.7591 22.8863L95.8514 21.6399C95.3517 20.9547 94.7736 20.2153 94.5658 19.9981C94.2995 19.7189 94.0845 19.5672 93.8325 19.481C93.5912 19.3984 93.2538 19.3592 92.0884 19.3606L92.0528 22.8863L90.8782 22.922V14.5884ZM92.0884 18.4347C93.9094 18.4361 94.2931 18.4047 94.58 18.3186C94.8399 18.2409 95.0755 18.1027 95.2798 17.9083C95.5019 17.6975 95.6137 17.5165 95.6827 17.2594C95.7532 16.9966 95.7596 16.8192 95.7076 16.5828C95.6685 16.4068 95.5752 16.1739 95.4998 16.0664C95.425 15.9588 95.1794 15.7829 94.9538 15.6753C94.5665 15.4909 94.4789 15.4787 93.325 15.4538L92.1055 15.4268L92.0884 18.4347ZM99.5617 14.5884H100.773V22.922L99.5988 22.8863L99.5617 14.5884ZM102.41 14.5884H109.458V15.4431H106.539L106.503 22.8863H105.364L105.329 15.4431H102.41V14.5884ZM109.861 14.5834L111.256 14.624L112.212 16.191C112.737 17.0529 113.299 17.9988 113.46 18.2922C113.712 18.753 113.762 18.8093 113.829 18.7003C113.872 18.6305 114.468 17.6782 116.398 14.5941L117.021 14.5913C117.364 14.5898 117.644 14.6048 117.644 14.624C117.644 14.644 116.916 15.79 114.405 19.6811L114.334 22.8863L113.159 22.922L113.137 19.8635L111.607 17.3862C110.766 16.0236 110.029 14.8356 109.969 14.7465L109.861 14.5834ZM29.1227 21.7154L32.8601 28.561C34.9153 32.326 36.6053 35.4344 36.6152 35.4679C36.6245 35.5013 35.299 35.5213 30.7038 35.4935L29.0871 32.4664H23.926C20.5325 32.4664 18.7649 32.4421 18.7649 32.3951C18.7649 32.356 19.4376 31.2021 21.7548 27.338L26.1485 27.3024L24.0328 23.563L24.3531 23.0644C24.5289 22.7902 24.8094 22.4682 24.976 22.3479C25.1419 22.2282 25.4864 22.0679 25.7413 21.991C25.9954 21.9148 26.4923 21.8251 26.8447 21.7916C27.1971 21.7581 27.8534 21.7268 29.1227 21.7154ZM38.5551 21.7111H43.6095V35.5291H38.5551V21.7111ZM52.3656 28.4485C52.7372 28.4663 53.202 28.5204 53.7537 28.6557L53.7715 29.1009C53.7808 29.3459 53.7808 29.5468 53.7715 29.5475C53.7616 29.5475 53.5615 29.4777 53.3266 29.3915C52.9685 29.2597 52.7443 29.2341 51.9384 29.2298C51.1312 29.2263 50.9375 29.2469 50.7282 29.3587C50.5909 29.4314 50.3901 29.576 50.2812 29.6793C50.173 29.7818 50.0662 29.9627 50.0434 30.0803C50.0213 30.1978 50.0484 30.4065 50.1032 30.5432C50.158 30.6807 50.3132 30.8794 50.4478 30.9863C50.5823 31.0931 51.0607 31.3367 51.5113 31.529C51.9612 31.7206 52.53 31.9777 52.7749 32.101C53.0191 32.2235 53.3672 32.46 53.548 32.6266C53.7288 32.7933 53.9374 33.0497 54.0107 33.1964C54.0869 33.3482 54.1446 33.6096 54.1438 33.8019C54.1424 33.9878 54.084 34.2684 54.0136 34.4251C53.9431 34.5818 53.7438 34.8318 53.5701 34.98C53.3971 35.1281 53.0789 35.3154 52.8639 35.3959C52.6482 35.4764 52.1677 35.5768 51.7961 35.6196C51.2928 35.678 50.9425 35.6766 50.4257 35.6132C50.0434 35.5669 49.5629 35.4729 48.9841 35.2798L48.9635 34.8881C48.9521 34.673 48.9599 34.4564 48.9813 34.4073C49.0098 34.3411 49.0781 34.3539 49.2511 34.4586C49.3778 34.5355 49.7387 34.6644 50.052 34.7456C50.4364 34.8453 50.8414 34.8931 51.2977 34.8924C51.6693 34.8916 52.0858 34.8575 52.2232 34.8161C52.3599 34.7748 52.5685 34.6808 52.6859 34.6074C52.8034 34.5348 52.9393 34.3916 52.9885 34.2898C53.0369 34.1879 53.0767 33.9842 53.0767 33.8375C53.0767 33.69 53.0127 33.4749 52.9336 33.3567C52.8553 33.2392 52.6717 33.0625 52.525 32.9642C52.3784 32.8652 51.89 32.6295 51.4401 32.4393C50.9895 32.2491 50.4449 32.0041 50.2299 31.8951C50.0142 31.7854 49.7103 31.586 49.5536 31.4521C49.397 31.3182 49.2091 31.0831 49.1358 30.9293C49.061 30.7719 49.0034 30.4955 49.0041 30.2939C49.0041 30.0845 49.0624 29.8203 49.145 29.6529C49.2219 29.4962 49.3935 29.2761 49.5259 29.1636C49.6583 29.051 49.879 28.9022 50.0164 28.8324C50.153 28.7633 50.4093 28.6671 50.5859 28.618C50.7617 28.5695 51.082 28.5047 51.2977 28.4734C51.5127 28.442 51.9933 28.4306 52.3656 28.4485ZM65.393 28.4485C65.7646 28.4663 66.2294 28.5204 66.7811 28.6557L66.7989 29.1009C66.8082 29.3459 66.7925 29.5461 66.7633 29.5461C66.7334 29.5461 66.5334 29.4748 66.3184 29.3887C65.9831 29.2533 65.7888 29.2305 64.9658 29.2284C64.1614 29.2263 63.9642 29.2476 63.7556 29.3587C63.6182 29.4314 63.4175 29.576 63.3086 29.6793C63.2004 29.7818 63.0936 29.9627 63.0708 30.0803C63.0487 30.1978 63.0758 30.4065 63.1306 30.5432C63.1854 30.6807 63.3406 30.8794 63.4752 30.9863C63.6097 31.0931 64.0881 31.3367 64.5387 31.529C64.9886 31.7206 65.5574 31.9777 65.8023 32.101C66.0465 32.2235 66.3946 32.46 66.5754 32.6266C66.7562 32.7933 66.9648 33.0497 67.0381 33.1964C67.1121 33.3432 67.1719 33.5839 67.1719 33.7306C67.1719 33.8774 67.1364 34.126 67.0936 34.2827C67.0445 34.4629 66.8943 34.6865 66.685 34.8924C66.4743 35.0989 66.1988 35.2763 65.9269 35.3795C65.6919 35.4686 65.1951 35.5768 64.8235 35.6196C64.3202 35.678 63.9699 35.6766 63.4531 35.6132C63.0708 35.5669 62.5903 35.4729 62.0115 35.2798L61.9909 34.8881C61.9795 34.673 61.9873 34.4564 62.0087 34.4073C62.0372 34.3411 62.1055 34.3539 62.2785 34.4586C62.4052 34.5355 62.7661 34.6644 63.0794 34.7456C63.4638 34.8453 63.8688 34.8931 64.3251 34.8924C64.6967 34.8916 65.0975 34.8639 65.215 34.8304C65.3324 34.7969 65.5311 34.7086 65.6571 34.6331C65.7831 34.5576 65.9354 34.408 65.9952 34.3005C66.0557 34.1929 66.1041 33.9842 66.1041 33.8375C66.1041 33.69 66.0401 33.4749 65.961 33.3567C65.8827 33.2392 65.6991 33.0625 65.5524 32.9642C65.4058 32.8652 64.9174 32.6295 64.4675 32.4393C64.0169 32.2491 63.4723 32.0041 63.2573 31.8951C63.0416 31.7854 62.7376 31.586 62.581 31.4521C62.4244 31.3182 62.2351 31.0831 62.161 30.9293C62.082 30.7662 62.0272 30.5026 62.0286 30.2939C62.03 30.0874 62.0898 29.8181 62.1717 29.6529C62.2493 29.4962 62.4209 29.2761 62.5533 29.1636C62.6857 29.051 62.9064 28.9022 63.0438 28.8324C63.1804 28.7633 63.4367 28.6671 63.6133 28.618C63.7891 28.5695 64.1094 28.5047 64.3251 28.4734C64.5401 28.442 65.0206 28.4306 65.393 28.4485ZM95.3631 28.4485C95.7347 28.4663 96.1995 28.5204 96.7512 28.6557L96.769 29.1009C96.7783 29.3459 96.7626 29.5461 96.7335 29.5461C96.7036 29.5461 96.5035 29.4748 96.2885 29.3887C95.9532 29.2533 95.7589 29.2305 94.936 29.2284C94.1315 29.2263 93.9343 29.2476 93.7258 29.3587C93.5884 29.4314 93.3876 29.576 93.2787 29.6793C93.1705 29.7818 93.0637 29.9627 93.0409 30.0803C93.0189 30.1978 93.0459 30.4065 93.1007 30.5432C93.1555 30.6807 93.3107 30.8794 93.4453 30.9863C93.5798 31.0931 94.0582 31.3367 94.5088 31.529C94.9587 31.7206 95.5275 31.9777 95.7724 32.101C96.0166 32.2235 96.3647 32.46 96.5455 32.6266C96.7263 32.7933 96.9349 33.0497 97.0082 33.1964C97.0823 33.3432 97.1421 33.5839 97.1421 33.7306C97.1421 33.8774 97.1065 34.126 97.0638 34.2827C97.0146 34.4629 96.8644 34.6865 96.6551 34.8924C96.4444 35.0989 96.1689 35.2763 95.897 35.3795C95.6621 35.4686 95.1652 35.5768 94.7936 35.6196C94.2903 35.678 93.94 35.6766 93.4232 35.6132C93.0409 35.5669 92.5604 35.4729 91.9817 35.2798L91.961 34.8881C91.9496 34.673 91.9574 34.4564 91.9788 34.4073C92.0073 34.3411 92.0756 34.3539 92.2486 34.4586C92.3753 34.5355 92.7362 34.6644 93.0495 34.7456C93.4339 34.8453 93.839 34.8931 94.2953 34.8924C94.6669 34.8916 95.0677 34.8639 95.1851 34.8304C95.3026 34.7969 95.5012 34.7086 95.6272 34.6331C95.7532 34.5576 95.9055 34.408 95.9653 34.3005C96.0258 34.1929 96.0742 33.9842 96.0742 33.8375C96.0742 33.69 96.0102 33.4749 95.9312 33.3567C95.8529 33.2392 95.6692 33.0625 95.5225 32.9642C95.3759 32.8652 94.8875 32.6295 94.4376 32.4393C93.987 32.2491 93.4424 32.0041 93.2274 31.8951C93.0117 31.7854 92.7078 31.586 92.5512 31.4521C92.3945 31.3182 92.2052 31.0831 92.1311 30.9293C92.0521 30.7662 91.9973 30.5026 91.9987 30.2939C92.0002 30.0874 92.06 29.8181 92.1418 29.6529C92.2194 29.4962 92.391 29.2761 92.5234 29.1636C92.6558 29.051 92.8765 28.9022 93.0139 28.8324C93.1506 28.7633 93.4068 28.6671 93.5834 28.618C93.7592 28.5695 94.0796 28.5047 94.2953 28.4734C94.5103 28.442 94.9908 28.4306 95.3631 28.4485ZM55.8894 28.5524L58.025 32.096L58.2742 31.6786C58.4108 31.45 58.9077 30.6529 60.2318 28.5546L60.7479 28.5517C61.0313 28.5503 61.2641 28.5653 61.2641 28.5845C61.2641 28.6044 60.639 29.5981 58.4877 32.965V35.5291H57.4911L57.4961 33.0006L56.1677 30.8638C55.4373 29.6885 54.823 28.6871 54.8016 28.6379C54.7731 28.571 54.9027 28.5496 55.8894 28.5524ZM67.8845 28.5489H73.8643V29.2612H71.3727V35.5291H70.3761V29.2612H67.8845V28.5489ZM75.2169 28.5489H79.5594V29.2612H76.2135V31.6116H79.2746V32.3239H76.2135V34.8169H79.7017V35.5291H75.2169V28.5489ZM81.344 28.5439L82.7187 28.5845L83.8143 30.6145C84.4172 31.7313 85.0999 33.0048 85.7527 34.247L85.9015 33.9443C85.9827 33.7777 86.6796 32.4963 88.8494 28.5503L90.0952 28.5489V35.5291H89.0985L89.1341 29.7106L88.6002 30.722C88.3062 31.2783 87.6015 32.5867 86.0019 35.527L85.5036 35.5355L84.0819 32.9507C83.3003 31.5283 82.5898 30.2213 82.3428 29.7241L82.3357 35.5291H81.3391L81.344 28.5439Z" fill="#FDF5F5"/>
</svg>
