<svg width="94" height="32" viewBox="0 0 94 32" fill="none" xmlns="http://www.w3.org/2000/svg">
<mask id="mask0_2216_3145" style="mask-type:luminance" maskUnits="userSpaceOnUse" x="0" y="0" width="94" height="31">
<path fill-rule="evenodd" clip-rule="evenodd" d="M0.326996 30.8413H93.0902V0.950958H0.326996V30.8413Z" fill="white"/>
</mask>
<g mask="url(#mask0_2216_3145)">
<path d="M1.99477 27.1724H0.786774V26.5303H3.98759V27.1724H2.76814V30.7314H1.99477V27.1724Z" fill="white"/>
<path d="M11.4239 28.8679H9.82717V30.1017H11.6126V30.7314H9.05481V26.5303H11.5177V27.16H9.82717V28.2443H11.4239V28.8679Z" fill="white"/>
<path d="M19.8978 30.6066C19.7164 30.6942 19.313 30.7931 18.7982 30.7931C17.4536 30.7931 16.6354 29.9583 16.6354 28.6802C16.6354 27.297 17.61 26.4673 18.9045 26.4673C19.4141 26.4673 19.7716 26.5673 19.929 26.6487L19.7654 27.2589C19.5653 27.1723 19.2818 27.097 18.9368 27.097C18.0748 27.097 17.4536 27.633 17.4536 28.6431C17.4536 29.5656 17.9935 30.1521 18.9295 30.1521C19.239 30.1521 19.5653 30.0892 19.7716 30.0015L19.8978 30.6066Z" fill="white"/>
<path d="M25.9016 26.5303V28.2134H27.6933V26.5303H28.4667V30.7314H27.6933V28.8803H25.9016V30.7314H25.1282V26.5303H25.9016Z" fill="white"/>
<path d="M33.9166 30.7314V26.5303H34.8036L35.8969 28.3319C36.1731 28.7988 36.4243 29.2853 36.6203 29.7409L36.6328 29.7337C36.5765 29.1792 36.5629 28.637 36.5629 27.9949V26.5303H37.28V30.7314H36.4764L35.3695 28.8803C35.0985 28.4185 34.8223 27.9083 34.6139 27.4342L34.5889 27.4404C34.6212 27.9825 34.6337 28.537 34.6337 29.2286V30.7314H33.9166Z" fill="white"/>
<path d="M44.4781 30.7992C43.2774 30.7992 42.5228 29.8891 42.5228 28.6615C42.5228 27.3772 43.3473 26.4609 44.5417 26.4609C45.7737 26.4609 46.5033 27.3896 46.5033 28.5863C46.5033 29.9963 45.6413 30.7992 44.4844 30.7992H44.4781ZM44.5156 30.1828C45.264 30.1828 45.6851 29.4974 45.6851 28.6182C45.6851 27.8266 45.289 27.0783 44.5156 27.0783C43.7422 27.0783 43.341 27.8081 43.341 28.6429C43.341 29.4788 43.7683 30.1828 44.5104 30.1828H44.5156Z" fill="white"/>
<path d="M51.7373 26.5303H52.5106V30.0893H54.2523V30.7314H51.7373V26.5303Z" fill="white"/>
<path d="M61.1432 30.7992C59.9414 30.7992 59.1889 29.8891 59.1889 28.6615C59.1889 27.3772 60.0123 26.4609 61.2057 26.4609C62.4387 26.4609 63.1673 27.3896 63.1673 28.5863C63.1673 29.9963 62.3064 30.7992 61.1484 30.7992H61.1432ZM61.1807 30.1828C61.9291 30.1828 62.3502 29.4974 62.3502 28.6182C62.3502 27.8266 61.9551 27.0783 61.1807 27.0783C60.4094 27.0783 60.0071 27.8081 60.0071 28.6429C60.0071 29.4788 60.4344 30.1828 61.1755 30.1828H61.1807Z" fill="white"/>
<path d="M71.799 30.5375C71.5301 30.6375 71.0007 30.7746 70.441 30.7746C69.7239 30.7746 69.1767 30.5942 68.7744 30.2139C68.3981 29.8583 68.1834 29.3038 68.1834 28.6688C68.1917 27.3341 69.1392 26.4858 70.541 26.4858C71.0632 26.4858 71.4728 26.592 71.6666 26.6858L71.4957 27.3032C71.2654 27.197 70.9809 27.1228 70.5337 27.1228C69.6301 27.1228 68.9964 27.6516 68.9964 28.6307C68.9964 29.5903 69.5863 30.1521 70.467 30.1521C70.7494 30.1521 70.9496 30.1139 71.0496 30.0696V29.0172H70.3044V28.4132H71.799V30.5375Z" fill="white"/>
<path d="M77.9333 30.7314H77.161V26.5303H77.9333V30.7314Z" fill="white"/>
<path d="M85.7603 28.8679H84.1645V30.1017H85.9489V30.7314H83.3902V26.5303H85.8551V27.16H84.1645V28.2443H85.7603V28.8679Z" fill="white"/>
<path d="M91.1854 29.8954C91.4314 30.0387 91.8139 30.1644 92.209 30.1644C92.7009 30.1644 92.9781 29.9335 92.9781 29.5903C92.9781 29.2718 92.7634 29.0853 92.2287 28.8925C91.5242 28.6493 91.0791 28.2751 91.0791 27.6763C91.0791 26.9847 91.6565 26.4673 92.5821 26.4673C93.0396 26.4673 93.3721 26.5673 93.5941 26.6734L93.4117 27.297C93.2533 27.2156 92.9573 27.097 92.5623 27.097C92.0724 27.097 91.8629 27.3537 91.8629 27.6021C91.8629 27.9268 92.111 28.0762 92.6769 28.2875C93.4117 28.5689 93.764 28.9358 93.764 29.5336C93.764 30.2139 93.2471 30.7931 92.16 30.7931C91.7076 30.7931 91.2428 30.6684 91.0093 30.5324L91.1854 29.8954Z" fill="white"/>
<path d="M8.40799 1.28809H13.6986L17.356 11.1436H12.6407L11.0252 6.7714L7.40013 16.5888L13.5162 13.6184H18.1929L21.3698 22.0969H16.6931L14.966 17.5092L5.41354 22.0969H0.736847L8.40799 1.28809Z" fill="#A52F2A"/>
<path d="M64.5701 11.219H73.1803V16.9137C73.1803 19.812 70.806 22.161 67.8762 22.161H61.1941C58.2653 22.161 55.889 19.812 55.889 16.9137V9.91726C55.889 7.01892 58.2653 4.66895 61.1941 4.66895H70.9259L69.3156 9.02159H62.5408C61.3192 9.02159 60.328 10.0008 60.328 11.2077V15.6016C60.328 16.8096 61.3192 17.7887 62.5408 17.7887H66.5316C67.7521 17.7887 68.7444 16.8096 68.7444 15.6016V15.2017H63.0984L64.5701 11.219Z" fill="#A52F2A"/>
<path d="M19.0905 4.62891H23.8203L28.5178 17.4137L33.1549 4.62891H37.8848L31.4362 22.1209H25.5703L19.0905 4.62891Z" fill="#A52F2A"/>
<path d="M93.6578 16.8737C93.6578 19.772 91.2835 22.121 88.3515 22.121H81.2036C78.2717 22.121 75.8953 19.772 75.8953 16.8737V9.87627C75.8953 6.97897 78.2717 4.62793 81.2036 4.62793H88.3515C91.2835 4.62793 93.6578 6.97897 93.6578 9.87627V16.8737ZM89.2208 11.1883C89.2208 9.98035 88.2307 9.00118 87.0091 9.00118H82.5461C81.3246 9.00118 80.3354 9.98035 80.3354 11.1883V15.5616C80.3354 16.7696 81.3246 17.7467 82.5461 17.7467H87.0091C88.2307 17.7467 89.2208 16.7696 89.2208 15.5616V11.1883Z" fill="#A52F2A"/>
<path d="M41.9529 17.7662L48.7767 17.7724V11.2078C48.7767 10.0009 47.7865 9.02172 46.565 9.02172H39.9319L41.5058 4.64844H47.9095C50.8383 4.64844 53.2158 6.99742 53.2158 9.89678L53.2199 22.1415H41.7643C38.7 22.1415 36.2173 19.6843 36.2173 16.6541C36.2173 13.6238 38.7 11.1676 41.7643 11.1676H46.1043L44.6086 15.2142H41.9529C41.24 15.2142 40.6636 15.7862 40.6636 16.4902C40.6636 17.1952 41.2233 17.7734 41.9529 17.7662Z" fill="#A52F2A"/>
</g>
</svg>
