<svg width="125" height="50" viewBox="0 0 125 50" fill="none" xmlns="http://www.w3.org/2000/svg">
<path d="M3 42.5537V24.7768V7H121.695V42.5537H3Z" fill="white"/>
<path d="M38.1434 41.5968V24.7771V7.95752H120.737V41.5968H38.1434Z" fill="#020202"/>
<path d="M18.5588 11.1027C18.7776 10.8401 19.1974 10.4859 19.4914 10.3191C19.8552 10.1099 20.2531 10.0128 20.7427 10.0114C21.1816 10.0101 21.6602 10.1099 21.9734 10.2685C22.2551 10.4121 22.6215 10.6733 22.7856 10.8497C22.9511 11.0261 23.1822 11.4021 23.2984 11.6838C23.416 11.9655 23.5104 12.4578 23.509 12.7778C23.5076 13.0978 23.3955 13.6051 23.2601 13.9059C23.1248 14.2068 22.7719 14.6539 22.4766 14.8987C22.1812 15.1435 21.8626 15.3431 21.7682 15.3431C21.637 15.3417 21.6055 15.8559 21.6657 19.7559L22.2127 19.9145C22.5135 20.0006 22.9962 20.2235 23.8112 20.7432L25.3769 19.1706C26.8716 17.6678 26.9358 17.5816 26.7991 17.222C26.7211 17.0155 26.6569 16.5697 26.6569 16.2306C26.6569 15.8928 26.7225 15.4457 26.8018 15.2392C26.8825 15.0327 27.1136 14.6867 27.3146 14.4693C27.517 14.2533 27.9286 13.962 28.2294 13.8239C28.5303 13.6844 29.0376 13.5682 29.3576 13.5668C29.6776 13.5654 30.1698 13.6598 30.4515 13.7774C30.7332 13.8936 31.1107 14.1247 31.2898 14.2902C31.4689 14.4543 31.7287 14.8358 31.8682 15.1366C32.0077 15.4375 32.1239 15.9612 32.1267 16.299C32.1308 16.6887 32.0145 17.1399 31.8108 17.5297C31.6344 17.8688 31.2488 18.3187 30.9534 18.532C30.6061 18.7822 30.1767 18.945 29.7336 18.9942C29.3507 19.0366 28.8092 18.9956 27.9559 18.7344L24.8847 21.8371L25.113 22.179C25.2375 22.3677 25.4453 22.86 25.805 24.025L30.2806 24.103L30.442 23.6531C30.5309 23.407 30.8221 23.0049 31.0915 22.7601C31.3595 22.5154 31.8108 22.2542 32.0925 22.1804C32.3742 22.1051 32.7899 22.045 33.0155 22.0463C33.2411 22.0477 33.6719 22.1626 33.9727 22.3021C34.2736 22.4402 34.6852 22.7314 34.8875 22.9475C35.0886 23.1649 35.3197 23.5109 35.4003 23.7174C35.4796 23.9238 35.5453 24.4325 35.5453 24.8455C35.5453 25.3241 35.4455 25.7959 35.2718 26.1446C35.1214 26.4454 34.7672 26.842 34.4855 27.0266C34.2038 27.2112 33.6965 27.4245 33.3574 27.5025C33.0018 27.5831 32.5684 27.5941 32.3318 27.5284C32.1062 27.4669 31.7219 27.3138 31.4771 27.1907C31.2324 27.0662 30.8878 26.7654 30.7114 26.5206C30.5336 26.2759 30.349 25.9682 30.3011 25.8369C30.2204 25.6209 30.0003 25.6003 25.7981 25.666L25.6409 26.213C25.5547 26.5138 25.3428 27.0061 24.8614 27.8539L27.8192 30.8117L28.6397 30.649C29.3275 30.5136 29.5709 30.5218 30.1439 30.7023C30.5801 30.839 31.004 31.1043 31.3171 31.4366C31.6481 31.7867 31.8559 32.1778 31.9585 32.64C32.0597 33.0926 32.0679 33.5083 31.9831 33.8707C31.9133 34.1715 31.7274 34.6023 31.5715 34.8279C31.4142 35.0535 31.0628 35.3926 30.792 35.58C30.4365 35.8261 30.0659 35.9369 29.4697 35.9779C28.7627 36.0258 28.5439 35.9806 27.9901 35.6702C27.6332 35.4706 27.1888 35.0754 27.0042 34.7937C26.8196 34.512 26.6282 34.0047 26.5789 33.6656C26.5229 33.2799 26.5584 32.8314 26.862 31.8742L23.7948 28.8111L23.2082 29.1448C22.8868 29.328 22.3768 29.5509 21.5289 29.7984L21.4948 32.0055C21.4606 34.192 21.4633 34.2139 21.7682 34.2973C21.9378 34.3424 22.2879 34.5435 22.5463 34.7417C22.8048 34.9386 23.1275 35.3475 23.2615 35.6483C23.3955 35.9492 23.5076 36.488 23.509 36.8449C23.5104 37.2182 23.401 37.7132 23.2519 38.0072C23.1083 38.2889 22.8472 38.6554 22.6708 38.8195C22.4944 38.9849 22.1183 39.216 21.8366 39.3323C21.5549 39.4499 21.0312 39.5442 20.6743 39.5428C20.2558 39.5415 19.8347 39.4321 19.4914 39.2352C19.1974 39.0683 18.7667 38.6937 18.5342 38.4038C18.1855 37.9703 18.1007 37.7296 18.0597 37.0363C18.0201 36.3813 18.072 36.0668 18.299 35.6142C18.459 35.2942 18.7886 34.888 19.0333 34.7116C19.2781 34.5339 19.5858 34.3493 19.7171 34.3014C19.9331 34.2207 19.9536 34.0006 19.888 29.7984L19.341 29.6411C19.0402 29.555 18.5479 29.3444 17.7001 28.8631L14.6917 31.8947L14.8804 32.6769C15.0295 33.2909 15.0363 33.5862 14.9146 34.0416C14.8284 34.3657 14.5331 34.8689 14.2473 35.1779C13.9656 35.4829 13.4883 35.8275 13.1875 35.9437C12.8229 36.0841 12.4126 36.1288 11.9568 36.0777C11.5411 36.0312 11.0857 35.8658 10.7945 35.6566C10.5319 35.4665 10.1777 35.1096 10.0096 34.8648C9.83999 34.6187 9.66359 34.11 9.61436 33.7339C9.55966 33.3004 9.59385 32.8505 9.71008 32.5032C9.81127 32.2024 10.0506 31.7785 10.242 31.561C10.4321 31.345 10.8204 31.0524 11.1021 30.9115C11.3961 30.7652 11.9062 30.6572 12.2987 30.6572C12.6747 30.6572 13.1205 30.7146 13.2901 30.7843C13.5636 30.8978 13.77 30.7406 16.6854 27.8539L16.2697 26.9651C16.0414 26.4769 15.854 25.9682 15.854 25.8369C15.854 25.6195 15.6571 25.5976 11.4098 25.5976L11.068 26.2307C10.8492 26.6369 10.5306 26.9733 10.1791 27.1715C9.87828 27.3411 9.43249 27.5175 9.18772 27.564C8.94294 27.6105 8.48211 27.5859 8.16213 27.5107C7.84215 27.4341 7.31978 27.1579 6.9998 26.8953C6.647 26.6054 6.33248 26.1897 6.19984 25.8369C6.0672 25.4855 6.00156 24.9864 6.03301 24.572C6.06583 24.129 6.21488 23.6845 6.45692 23.3071C6.73178 22.8777 7.03398 22.6316 7.61515 22.365C8.25512 22.071 8.52861 22.0176 9.08516 22.0805C9.52548 22.1298 9.96032 22.2952 10.3063 22.5441C10.603 22.7574 10.9722 23.1895 11.4098 24.0811L15.854 24.0934L15.9402 23.649C15.988 23.4042 16.1891 22.8805 16.7429 21.7633L13.677 18.692L13.1588 18.8602C12.873 18.9532 12.4094 19.0297 12.1277 19.0311C11.846 19.0325 11.3838 18.919 11.1021 18.7781C10.8204 18.6373 10.4006 18.3146 10.1695 18.0602C9.91383 17.7785 9.68957 17.33 9.59658 16.9143C9.50907 16.5301 9.48719 16.0214 9.54462 15.752C9.60205 15.4894 9.77435 15.0587 9.93024 14.7948C10.0848 14.5322 10.4512 14.163 10.7425 13.9743C11.1815 13.6912 11.4413 13.6324 12.2412 13.6324C13.0685 13.6324 13.2873 13.6858 13.7454 14.0003C14.0408 14.2027 14.4155 14.6033 14.5809 14.8891C14.745 15.1763 14.9201 15.6563 14.9679 15.9571C15.0213 16.2839 14.983 16.7352 14.6917 17.6514L17.7548 20.7432L18.5479 20.3794C18.9841 20.1798 19.4641 19.9938 19.6145 19.9678C19.873 19.9213 19.8894 19.7983 19.9222 17.6308C19.9509 15.6727 19.9263 15.3417 19.7513 15.3417C19.6391 15.3417 19.2385 15.0341 18.8624 14.658C18.3715 14.1671 18.1541 13.8307 18.0925 13.4615C18.0447 13.1798 18.0406 12.641 18.083 12.265C18.1377 11.7877 18.2812 11.4377 18.5588 11.1027Z" fill="#020202"/>
<path d="M19.6008 12.6067C19.6473 12.3441 19.8182 11.9899 19.981 11.8204C20.1984 11.5947 20.4322 11.5127 20.8684 11.5127C21.3553 11.5127 21.5098 11.5797 21.7381 11.8887C21.8913 12.0952 22.0144 12.4644 22.0116 12.7092C22.0089 12.9772 21.8721 13.3164 21.6657 13.5639C21.3908 13.8948 21.2171 13.9741 20.7768 13.9741C20.3242 13.9741 20.1683 13.8975 19.8729 13.5297C19.583 13.17 19.5311 12.995 19.6008 12.6067Z" fill="white"/>
<path d="M11.15 15.6356C11.2731 15.4578 11.5547 15.2376 11.7763 15.1433C11.9992 15.0503 12.341 15.0106 12.5352 15.0544C12.7294 15.0995 13.0316 15.306 13.208 15.5125C13.3844 15.719 13.5293 16.0266 13.5293 16.1962C13.528 16.3658 13.4049 16.7035 13.2559 16.9483C13.1054 17.1931 12.8443 17.4296 12.6747 17.4748C12.5051 17.5213 12.1674 17.5213 11.9226 17.4748C11.6614 17.4269 11.3633 17.2368 11.2006 17.0167C11.0474 16.8102 10.923 16.4861 10.9257 16.2988C10.9271 16.1101 11.0283 15.812 11.15 15.6356Z" fill="white"/>
<path d="M28.3074 15.492C28.3675 15.3853 28.6096 15.224 28.8475 15.1323C29.1365 15.0202 29.4246 15.0042 29.7117 15.0845C29.9497 15.1515 30.2505 15.3443 30.3804 15.5125C30.5103 15.682 30.6183 16.0198 30.6197 16.2646C30.6211 16.5736 30.5007 16.8334 30.2232 17.1192C29.9825 17.3654 29.6816 17.5295 29.4711 17.5295C29.2769 17.5295 28.9624 17.4529 28.7709 17.3585C28.5809 17.2642 28.3374 17.003 28.2308 16.7774C28.1241 16.5517 28.0749 16.2126 28.1187 16.0253C28.1638 15.8366 28.2486 15.5973 28.3074 15.492Z" fill="white"/>
<path d="M43.9824 24.7769C45.7546 20.077 47.2561 16.0923 47.3204 15.9227C47.4311 15.6315 47.5104 15.615 50.2453 15.6123L50.7554 17.0153C51.0357 17.7865 52.4975 21.8328 54.0031 26.0077C55.51 30.1825 56.7407 33.6435 56.7407 33.6995C56.7407 33.7556 56.1459 33.7871 54.0961 33.7337L52.3649 28.4691L44.9519 28.5374L43.1032 33.7337L41.8547 33.7679C40.717 33.7994 40.6117 33.7802 40.6828 33.5628C40.7265 33.4315 42.2116 29.4782 43.9824 24.7769Z" fill="white"/>
<path d="M100.226 20.4011L100.231 18.5496L100.237 16.6981L102.482 16.7774L102.55 20.4011H104.738V22.3155H102.55L102.548 26.8623C102.546 30.5995 102.58 31.4583 102.742 31.6826C102.891 31.8904 103.146 31.9725 104.67 32.0928L104.738 33.8021L103.542 33.8035C102.742 33.8048 102.121 33.7255 101.671 33.5642C101.232 33.4083 100.872 33.1594 100.294 32.3882L100.226 22.3155H98.5846V20.4011H100.226Z" fill="white"/>
<path d="M73.6971 20.7006C74.1114 20.5037 74.6652 20.2972 74.9278 20.2425C75.1917 20.1878 76.1448 20.1618 77.0473 20.1851C78.2384 20.2165 78.8756 20.2986 79.372 20.4859C79.7863 20.6418 80.3265 21.0124 80.7435 21.4267C81.1674 21.8465 81.4956 22.321 81.5968 22.6574C81.709 23.0307 81.7609 24.5458 81.7623 27.4435C81.7623 31.271 81.7869 31.714 82.003 32.0094C82.2135 32.2965 82.3161 32.3266 83.406 32.1612L83.4101 33.7337L82.6552 33.8363C82.2341 33.8937 81.5996 33.8787 81.218 33.8021C80.7258 33.7037 80.4386 33.5505 80.1925 33.2551C80.0051 33.0295 79.8506 32.6904 79.8506 32.503C79.8506 32.3143 79.8205 32.1612 79.7822 32.1612C79.7453 32.1612 79.3146 32.4374 78.825 32.7765C78.3204 33.1266 77.5382 33.5108 77.0131 33.6681C76.4251 33.8445 75.7059 33.943 75.0303 33.9416C74.2782 33.9402 73.7422 33.8527 73.1843 33.6407C72.7453 33.4739 72.1382 33.0965 71.81 32.7861C71.4162 32.4128 71.1523 32.0039 71.0059 31.5458C70.887 31.1698 70.7967 30.4929 70.8049 30.0416C70.8172 29.4372 70.9253 29.0051 71.2193 28.4007C71.5297 27.7607 71.7785 27.4708 72.3488 27.0825C72.7522 26.809 73.4209 26.4863 73.8338 26.3646C74.2482 26.2442 75.5089 26.0487 76.6371 25.9311C78.1249 25.7766 78.7826 25.6507 79.0301 25.473C79.2188 25.339 79.4486 25.0819 79.5415 24.9C79.6345 24.7195 79.7111 24.3722 79.7125 24.1274C79.7125 23.8826 79.6332 23.4833 79.5347 23.2386C79.4308 22.9829 79.1245 22.6533 78.8168 22.4619C78.5187 22.2786 77.8815 22.0694 77.3892 21.9942C76.7219 21.8903 76.2966 21.9026 75.6799 22.0407C75.0755 22.1761 74.724 22.3525 74.3425 22.7135C73.9911 23.0471 73.7723 23.4122 73.492 24.5076L71.5092 24.5035V24.0248C71.5092 23.7609 71.6445 23.1921 71.81 22.76C71.9755 22.3278 72.2982 21.7686 72.5279 21.5169C72.7576 21.2653 73.2841 20.8989 73.6971 20.7006Z" fill="white"/>
<path d="M87.9869 20.8715C88.2878 20.6951 88.873 20.4599 89.286 20.3478C89.7003 20.237 90.4688 20.1413 90.9953 20.1358C91.5218 20.1304 92.3217 20.2233 92.773 20.3423C93.2242 20.4613 93.8396 20.7033 94.1404 20.8797C94.4413 21.0561 94.9691 21.4978 95.3137 21.8602C95.6597 22.2239 96.0672 22.7668 96.2217 23.0676C96.3762 23.3685 96.6347 24.0454 96.7947 24.5718C96.9547 25.0983 97.1242 25.9899 97.1693 26.5546C97.2281 27.2766 97.183 27.9248 97.0175 28.7425C96.8876 29.3811 96.6032 30.2891 96.3844 30.7595C96.1656 31.2299 95.6939 31.9109 95.337 32.2747C94.98 32.6384 94.4413 33.0623 94.1404 33.2182C93.8396 33.3741 93.2242 33.5984 92.773 33.7173C92.3217 33.8363 91.5532 33.9347 91.0637 33.9375C90.5755 33.9389 89.8207 33.8472 89.3885 33.7337C88.9564 33.6216 88.3411 33.3946 88.0211 33.2319C87.7011 33.0692 87.1473 32.6384 86.7904 32.2747C86.4335 31.9109 85.9576 31.2299 85.732 30.7595C85.5077 30.2891 85.2301 29.4276 85.1166 28.8451C85.0031 28.2626 84.9102 27.4777 84.9102 27.1016C84.9102 26.7256 85.0059 25.9406 85.1235 25.3581C85.2411 24.7756 85.5173 23.9141 85.7388 23.4437C85.9604 22.9733 86.4335 22.2745 86.7904 21.8903C87.1473 21.506 87.6861 21.0465 87.9869 20.8715Z" fill="white"/>
<path d="M108.916 20.7512C109.212 20.6049 109.733 20.4052 110.071 20.3081C110.473 20.1919 111.257 20.1468 112.327 20.1768C113.594 20.2124 114.141 20.2903 114.721 20.5146C115.135 20.6746 115.689 20.9809 115.951 21.1942C116.215 21.4076 116.584 21.8862 117.114 22.9309L117.182 32.0244L117.49 32.1776C117.659 32.261 117.997 32.3075 118.685 32.2295L118.69 33.7337L117.901 33.8349C117.462 33.891 116.872 33.8759 116.567 33.8007C116.266 33.7283 115.882 33.5751 115.712 33.4616C115.54 33.3454 115.329 32.9857 115.062 32.0326L114.721 32.3526C114.533 32.529 114.133 32.8312 113.832 33.024C113.531 33.2155 112.854 33.5095 112.327 33.6749C111.551 33.9197 111.138 33.9648 110.14 33.9197C109.173 33.8759 108.748 33.7871 108.157 33.5054C107.744 33.3085 107.202 32.9092 106.956 32.6193C106.709 32.3294 106.408 31.7537 106.289 31.3407C106.138 30.8224 106.097 30.3438 106.156 29.8023C106.204 29.3702 106.39 28.7234 106.572 28.3665C106.752 28.0096 107.075 27.5542 107.29 27.356C107.503 27.1577 107.924 26.8719 108.225 26.7215C108.526 26.5697 109.018 26.3796 109.319 26.2989C109.62 26.2169 110.789 26.0514 111.917 25.9297C113.045 25.808 114.107 25.6535 114.276 25.5851C114.446 25.5167 114.686 25.2911 114.814 25.0846C114.98 24.8111 115.027 24.498 114.984 23.9346C114.939 23.3466 114.844 23.0745 114.584 22.801C114.396 22.6041 113.966 22.3374 113.627 22.2089C113.227 22.0585 112.627 21.9778 111.917 21.9805C111.078 21.9846 110.696 22.053 110.276 22.2731C109.975 22.4304 109.606 22.6984 109.456 22.8666C109.305 23.0348 109.114 23.4574 108.88 24.4351L106.789 24.5035L106.867 23.8539C106.911 23.497 107.085 22.8967 107.254 22.5207C107.424 22.1446 107.745 21.6523 107.969 21.4267C108.192 21.2011 108.618 20.8961 108.916 20.7512Z" fill="white"/>
<path d="M60.1675 28.2639C59.0681 25.2556 57.9742 22.2554 57.7362 21.5976L57.3027 20.4011H59.8859L60.4233 22.1446C60.7186 23.1032 61.4639 25.5181 62.0779 27.5118C62.6919 29.5042 63.2347 31.1834 63.284 31.2409C63.3332 31.2997 64.2343 28.882 67.2017 20.3929L68.3298 20.397C69.1407 20.3997 69.4566 20.449 69.4539 20.572C69.4525 20.6664 68.3586 23.6652 64.6008 33.7337H62.1668L60.1675 28.2639Z" fill="white"/>
<path d="M18.2019 22.3839C18.3893 22.1583 18.8761 21.8041 19.2836 21.5963C19.8552 21.305 20.2134 21.2188 20.8452 21.2229C21.3703 21.2257 21.8886 21.3282 22.281 21.506C22.6201 21.6592 23.0741 21.9504 23.2902 22.1528C23.5062 22.3552 23.829 22.8283 24.0067 23.2044C24.2242 23.6638 24.3295 24.1342 24.3308 24.6402C24.3308 25.0532 24.2693 25.6234 24.1954 25.9051C24.1202 26.1868 23.8591 26.6763 23.6143 26.9908C23.3599 27.3204 22.8485 27.7306 22.4178 27.9522C21.8817 28.2298 21.4688 28.3405 20.9819 28.3378C20.6059 28.3364 20.022 28.2434 19.6829 28.1313C19.3451 28.0192 18.8214 27.7211 18.5205 27.4695C18.2019 27.2028 17.8341 26.7023 17.6399 26.2702C17.4129 25.767 17.3076 25.2884 17.3103 24.7769C17.3131 24.3284 17.4252 23.776 17.5879 23.4095C17.7384 23.0704 18.0146 22.6095 18.2019 22.3839Z" fill="white"/>
<path d="M7.52351 24.766C7.53035 24.4994 7.6753 24.1999 7.9228 23.9455C8.16758 23.6953 8.45611 23.5449 8.69951 23.5408C8.91147 23.5394 9.23966 23.6515 9.427 23.7924C9.61571 23.9332 9.81809 24.2286 9.87689 24.4474C9.93842 24.673 9.92338 25.0368 9.8427 25.2897C9.75519 25.5646 9.5446 25.8121 9.29025 25.9393C8.98531 26.0924 8.76652 26.1116 8.4356 26.0145C8.19082 25.9447 7.88315 25.7287 7.75187 25.5359C7.6206 25.3444 7.51804 24.9971 7.52351 24.766Z" fill="white"/>
<path d="M31.6685 24.5718C31.6959 24.4214 31.8805 24.1288 32.0774 23.9223C32.3071 23.683 32.5806 23.5462 32.8295 23.5462C33.0442 23.5462 33.3437 23.6078 33.4941 23.683C33.6445 23.7582 33.8551 24.0194 33.9604 24.2642C34.0671 24.5089 34.1272 24.8617 34.0944 25.0504C34.063 25.2378 33.8838 25.5427 33.6978 25.7273C33.4462 25.9762 33.2288 26.0555 32.8459 26.0377C32.5629 26.0254 32.2456 25.9365 32.1403 25.8408C32.035 25.7437 31.8737 25.4812 31.7834 25.2556C31.6918 25.0299 31.6412 24.7222 31.6685 24.5718Z" fill="white"/>
<path d="M11.1021 32.7724C11.1965 32.5823 11.4577 32.3376 11.6833 32.2282C11.9089 32.1201 12.125 32.0285 12.1619 32.0258C12.2002 32.0217 12.4299 32.0819 12.6747 32.1584C12.9523 32.246 13.1971 32.4524 13.3242 32.7081C13.4377 32.9338 13.5293 33.21 13.5293 33.3235C13.5293 33.4356 13.4459 33.6982 13.3434 33.9047C13.2408 34.1112 12.9796 34.3628 12.7622 34.464C12.4655 34.6021 12.2494 34.613 11.8884 34.5063C11.6259 34.4284 11.3018 34.2069 11.1705 34.0141C11.0392 33.8226 10.9312 33.5423 10.9312 33.3919C10.9312 33.2415 11.0078 32.9625 11.1021 32.7724Z" fill="white"/>
<path d="M28.3976 32.5181C28.5056 32.3772 28.7285 32.2104 28.8913 32.1502C29.054 32.0887 29.3712 32.0709 29.5969 32.1106C29.8225 32.1502 30.1452 32.3471 30.3148 32.5482C30.483 32.7492 30.6238 33.0979 30.6266 33.3235C30.6293 33.5491 30.5172 33.8869 30.3763 34.0756C30.2355 34.2629 29.9415 34.4653 29.7213 34.5255C29.4998 34.5857 29.1415 34.5733 28.9131 34.4981C28.6656 34.4161 28.4113 34.185 28.2704 33.9115C28.1323 33.6449 28.0708 33.3208 28.1187 33.1184C28.1638 32.9297 28.2882 32.6603 28.3976 32.5181Z" fill="white"/>
<path d="M19.7376 36.2225C19.8729 36.0105 20.1163 35.7835 20.2777 35.7179C20.4391 35.6509 20.6182 35.5935 20.6743 35.588C20.7303 35.5839 20.9929 35.6714 21.2554 35.7849C21.5193 35.897 21.7956 36.1131 21.8708 36.2635C21.946 36.4139 22.0075 36.7216 22.0075 36.9472C22.0075 37.2153 21.8694 37.4983 21.6082 37.7677C21.3347 38.048 21.0749 38.1779 20.7878 38.1779C20.5211 38.1779 20.2134 38.0398 19.9481 37.8019C19.6747 37.5558 19.5229 37.2836 19.5106 37.0156C19.4996 36.79 19.6022 36.4331 19.7376 36.2225Z" fill="white"/>
<path d="M45.849 26.1104C45.875 26.016 46.504 24.2315 47.2465 22.1448C47.989 20.058 48.6441 18.3501 48.7029 18.3501C48.7617 18.3501 49.3729 20.058 50.0607 22.1448C50.7486 24.2315 51.3325 26.016 51.3598 26.1104C51.3967 26.243 50.7814 26.2813 48.6044 26.2813C46.4274 26.2813 45.8121 26.243 45.849 26.1104Z" fill="#020202"/>
<path d="M88.8279 22.8928C89.234 22.5345 89.7031 22.2624 90.0381 22.1899C90.3389 22.1243 90.7697 22.0641 90.9953 22.0559C91.2209 22.0463 91.7283 22.1325 92.1234 22.246C92.5651 22.3731 93.056 22.6494 93.3979 22.9652C93.7042 23.2469 94.0844 23.7556 94.243 24.0934C94.4016 24.4311 94.6095 25.0465 94.7066 25.4608C94.8036 25.8752 94.8843 26.5972 94.8871 27.0676C94.8898 27.538 94.8228 28.245 94.738 28.6401C94.6532 29.0353 94.4481 29.6657 94.2826 30.0418C94.1131 30.4288 93.7165 30.9621 93.3692 31.2725C93 31.602 92.5009 31.8878 92.1152 31.9904C91.7624 32.0848 91.2743 32.1613 91.0295 32.1627C90.7847 32.1641 90.2774 32.0724 89.9013 31.9617C89.4774 31.8372 89.0166 31.5638 88.6884 31.2424C88.3971 30.958 88.0498 30.5108 87.9158 30.2469C87.7818 29.983 87.5753 29.3991 87.4563 28.9478C87.3374 28.4966 87.2389 27.7117 87.2375 27.2043C87.2362 26.697 87.3032 25.9586 87.3866 25.5634C87.4714 25.1682 87.6806 24.5378 87.8529 24.1618C88.0334 23.7693 88.4477 23.2292 88.8279 22.8928Z" fill="#020202"/>
<path d="M76.5003 27.7964C77.4029 27.6487 78.3874 27.4395 78.6883 27.3315C78.9891 27.2221 79.3118 27.1264 79.4062 27.1182C79.5306 27.1059 79.5771 27.4231 79.5744 28.2983C79.573 28.956 79.4964 29.7341 79.4034 30.0254C79.3118 30.318 79.0192 30.7747 78.7566 31.0428C78.4941 31.3094 78.0319 31.6349 77.7311 31.7648C77.4302 31.896 76.8149 32.0793 76.3636 32.1709C75.9123 32.2639 75.2669 32.3008 74.9278 32.2529C74.5887 32.2051 74.1319 32.0273 73.9118 31.8564C73.6916 31.6855 73.4304 31.3463 73.3306 31.1016C73.2321 30.8568 73.1501 30.396 73.1501 30.076C73.1515 29.7355 73.2636 29.3102 73.4236 29.0504C73.5767 28.8029 73.9542 28.4856 74.2782 28.3352C74.5982 28.1862 75.5978 27.9441 76.5003 27.7964Z" fill="#020202"/>
<path d="M113.011 27.594C113.538 27.4833 114.123 27.3315 114.31 27.2563C114.499 27.1811 114.733 27.1154 114.83 27.11C114.968 27.1031 114.998 27.404 114.963 28.435C114.926 29.544 114.86 29.8722 114.578 30.3836C114.368 30.7638 113.978 31.1713 113.557 31.4503C113.181 31.6991 112.658 31.9617 112.396 32.0355C112.133 32.108 111.548 32.2065 111.097 32.2516C110.429 32.32 110.155 32.2817 109.627 32.0437C109.185 31.8441 108.906 31.6089 108.757 31.3067C108.635 31.0619 108.531 30.5546 108.527 30.1785C108.522 29.7888 108.616 29.3034 108.748 29.0504C108.891 28.7728 109.195 28.5048 109.558 28.3366C109.878 28.1889 110.57 28.007 111.097 27.9318C111.623 27.8566 112.485 27.7048 113.011 27.594Z" fill="#020202"/>
</svg>
