<svg width="155" height="80" viewBox="0 0 155 80" fill="none" xmlns="http://www.w3.org/2000/svg">
<g clip-path="url(#clip0_2390_2980)">
<path opacity="0.201" fill-rule="evenodd" clip-rule="evenodd" d="M140.333 79.469L136.301 79.681C136.301 79.681 150.804 60.581 139.604 45.867C125.993 27.987 59.299 1.166 59.299 1.166L64.94 0C64.94 0 139.324 25.839 152.05 44.533C162.454 59.815 140.333 79.469 140.333 79.469ZM122.38 60.546L117.91 60.93C117.91 60.93 126.357 52.929 121.831 47.775C117.002 42.276 93.445 35.983 93.445 35.983L98.445 35.317C98.445 35.317 128.775 40.537 133.564 46.517C138.03 52.094 122.38 60.546 122.38 60.546Z" fill="white"/>
<mask id="mask0_2390_2980" style="mask-type:luminance" maskUnits="userSpaceOnUse" x="0" y="48" width="10" height="10">
<path d="M0 48.1748H9.587V57.2618H0V48.1748Z" fill="white"/>
</mask>
<g mask="url(#mask0_2390_2980)">
<path fill-rule="evenodd" clip-rule="evenodd" d="M7.447 48.3869H9.587L8.387 57.0489H6.264L6.393 56.1079C5.931 56.5369 5.5 56.8369 5.099 57.0059C4.698 57.1749 4.249 57.2609 3.75 57.2609C2.604 57.2609 1.692 56.8399 1.015 55.9979C0.338 55.1559 0 54.1769 0 53.0599C0 52.2079 0.216 51.3959 0.649 50.6259C1.082 49.8559 1.664 49.2539 2.394 48.8219C3.08375 48.4016 3.87528 48.1779 4.683 48.1749C5.19917 48.1702 5.7082 48.2958 6.163 48.5399C6.615 48.7829 6.987 49.1379 7.281 49.6039L7.447 48.3869ZM4.251 55.3689C4.774 55.3689 5.231 55.2519 5.62 55.0199C6.009 54.7879 6.337 54.4219 6.601 53.9249C6.865 53.4279 6.997 52.9199 6.997 52.4019C6.997 51.7199 6.798 51.1709 6.4 50.7549C6.002 50.3389 5.478 50.1319 4.826 50.1319C4.46384 50.1264 4.10463 50.1978 3.7721 50.3414C3.43957 50.485 3.14131 50.6975 2.897 50.9649C2.368 51.5199 2.104 52.2369 2.104 53.1149C2.104 53.7919 2.304 54.3369 2.705 54.7499C3.106 55.1629 3.62 55.3689 4.251 55.3689Z" fill="#199BE6"/>
</g>
<path fill-rule="evenodd" clip-rule="evenodd" d="M10.734 48.3872H12.834L14.188 53.2042L16.968 48.3872H19.281L14.263 57.0492H13.202L10.734 48.3872ZM22.162 44.8472C22.523 44.8472 22.832 44.9762 23.089 45.2332C23.346 45.4902 23.475 45.8002 23.475 46.1602C23.475 46.5202 23.346 46.8302 23.089 47.0872C22.832 47.3442 22.522 47.4732 22.162 47.4732C21.802 47.4732 21.492 47.3442 21.235 47.0872C20.978 46.8302 20.849 46.5202 20.849 46.1602C20.849 45.8002 20.978 45.4902 21.235 45.2332C21.492 44.9762 21.802 44.8472 22.162 44.8472ZM20.71 48.3872H22.834L21.651 57.0492H19.527L20.71 48.3872ZM28.798 48.1752C29.567 48.1752 30.267 48.3522 30.896 48.7072C31.525 49.0622 32.015 49.5652 32.365 50.2162C32.715 50.8672 32.89 51.5982 32.89 52.4082C32.9002 53.0492 32.7774 53.6854 32.5293 54.2766C32.2813 54.8678 31.9135 55.4012 31.449 55.8432C30.488 56.7882 29.299 57.2612 27.882 57.2612C26.65 57.2612 25.668 56.8892 24.936 56.1452C24.204 55.4012 23.837 54.4282 23.837 53.2262C23.837 51.7752 24.333 50.5702 25.326 49.6122C26.319 48.6542 27.476 48.1752 28.798 48.1752ZM28.643 50.1972C27.772 50.1972 27.104 50.5082 26.639 51.1302C26.174 51.7522 25.942 52.4262 25.942 53.1512C25.942 53.7972 26.132 54.3172 26.512 54.7112C26.892 55.1052 27.398 55.3032 28.03 55.3032C28.927 55.3032 29.611 55.0022 30.082 54.4022C30.553 53.8022 30.788 53.1142 30.788 52.3412C30.788 51.7062 30.588 51.1892 30.19 50.7922C29.792 50.3952 29.275 50.1972 28.643 50.1972ZM35.349 48.3872H37.473L37.351 49.2752C38.166 48.5422 39.012 48.1752 39.891 48.1752C40.642 48.1752 41.257 48.4122 41.736 48.8862C42.215 49.3602 42.454 49.9572 42.454 50.6772C42.454 51.0162 42.409 51.5222 42.319 52.1942L41.656 57.0492H39.532L40.179 52.3102L40.275 51.2172C40.275 50.8692 40.175 50.6012 39.975 50.4132C39.775 50.2252 39.491 50.1322 39.123 50.1322C38.765 50.1322 38.408 50.2552 38.05 50.5012C37.692 50.7472 37.417 51.0892 37.225 51.5272C37.033 51.9652 36.857 52.7852 36.697 53.9882L36.289 57.0492H34.165L35.349 48.3872ZM46.318 44.8472C46.679 44.8472 46.988 44.9762 47.245 45.2332C47.502 45.4902 47.631 45.8002 47.631 46.1602C47.631 46.5202 47.502 46.8302 47.245 47.0872C46.988 47.3442 46.679 47.4732 46.318 47.4732C45.957 47.4732 45.648 47.3442 45.391 47.0872C45.134 46.8302 45.005 46.5202 45.005 46.1602C45.005 45.8002 45.134 45.4902 45.391 45.2332C45.648 44.9762 45.958 44.8472 46.318 44.8472ZM44.866 48.3872H46.99L45.807 57.0492H43.683L44.866 48.3872ZM56.957 50.1862L55.157 51.1642C54.646 50.5202 53.962 50.1982 53.101 50.1982C52.522 50.1982 52.009 50.3202 51.564 50.5662C51.1154 50.8143 50.7454 51.1832 50.496 51.6312C50.2346 52.0781 50.0969 52.5865 50.097 53.1042C50.097 53.7692 50.307 54.3022 50.727 54.7032C51.147 55.1042 51.722 55.3052 52.455 55.3052C53.47 55.3052 54.248 54.9642 54.789 54.2842L56.462 55.4632C55.989 56.0262 55.401 56.4672 54.698 56.7852C53.995 57.1032 53.211 57.2632 52.346 57.2632C50.998 57.2632 49.936 56.8922 49.158 56.1512C48.38 55.4102 47.992 54.4302 47.992 53.2122C47.992 51.8192 48.472 50.6322 49.433 49.6502C50.394 48.6682 51.63 48.1772 53.143 48.1772C54.847 48.1772 56.117 48.8472 56.956 50.1882" fill="#199BE6"/>
<path fill-rule="evenodd" clip-rule="evenodd" d="M70.922 45.0432H73.062L71.406 57.0502H69.282L69.41 56.1142C68.947 56.5422 68.514 56.8402 68.113 57.0092C67.6835 57.1833 67.2234 57.2693 66.76 57.2622C65.611 57.2622 64.697 56.8412 64.019 55.9992C63.341 55.1572 63.001 54.1782 63.001 53.0602C63.001 52.2082 63.218 51.3962 63.652 50.6262C64.0625 49.8797 64.6658 49.257 65.399 48.8232C66.13 48.3922 66.895 48.1762 67.693 48.1762C68.229 48.1762 68.723 48.2982 69.176 48.5442C69.629 48.7902 70.002 49.1482 70.296 49.6172L70.922 45.0432ZM67.253 55.3702C67.776 55.3702 68.232 55.2532 68.622 55.0202C69.012 54.7872 69.339 54.4222 69.603 53.9252C69.867 53.4282 70 52.9192 70 52.4002C70 51.7182 69.801 51.1702 69.403 50.7552C69.005 50.3402 68.481 50.1332 67.829 50.1332C67.4666 50.1275 67.1072 50.1988 66.7745 50.3424C66.4418 50.486 66.1434 50.6986 65.899 50.9662C65.37 51.5212 65.106 52.2382 65.106 53.1162C65.106 53.7932 65.307 54.3382 65.707 54.7512C66.107 55.1642 66.622 55.3702 67.253 55.3702ZM80.159 54.5052L82.033 55.4742C81.5932 56.0411 81.0198 56.4902 80.364 56.7812C79.671 57.1012 78.903 57.2612 78.058 57.2612C76.736 57.2612 75.694 56.8902 74.932 56.1492C74.17 55.4082 73.789 54.4222 73.789 53.1942C73.789 51.7902 74.265 50.6032 75.219 49.6322C75.6621 49.1635 76.1978 48.7919 76.792 48.5409C77.3862 48.2899 78.026 48.165 78.671 48.1742C79.483 48.1742 80.206 48.3512 80.84 48.7062C81.474 49.0612 81.975 49.5762 82.341 50.2522C82.7071 50.9291 82.896 51.6876 82.89 52.4572C82.89 52.7062 82.864 52.9962 82.81 53.3302H75.892C75.913 53.9322 76.111 54.4122 76.486 54.7682C76.861 55.1242 77.378 55.3042 78.037 55.3042C78.8186 55.3102 79.5756 55.0254 80.159 54.5052ZM80.705 51.7802C80.545 51.2552 80.28 50.8572 79.907 50.5872C79.534 50.3172 79.085 50.1812 78.558 50.1812C78.037 50.1812 77.566 50.3202 77.145 50.5982C76.724 50.8762 76.405 51.2702 76.187 51.7792L80.705 51.7802ZM90.049 49.6042L89.042 51.2242C88.783 50.8382 88.51 50.5552 88.225 50.3722C87.94 50.1892 87.672 50.0992 87.424 50.0992C87.233 50.0992 87.072 50.1522 86.94 50.2582C86.808 50.3642 86.742 50.4832 86.742 50.6152C86.742 50.7472 86.795 50.8692 86.901 50.9962C87.001 51.1232 87.305 51.3692 87.812 51.7352C88.621 52.3172 89.153 52.8162 89.409 53.2312C89.6625 53.6371 89.7956 54.1066 89.793 54.5852C89.793 55.2252 89.529 55.8322 89.001 56.4032C88.473 56.9742 87.707 57.2602 86.704 57.2602C86.1569 57.2673 85.6157 57.1471 85.123 56.9092C84.648 56.6762 84.118 56.2482 83.535 55.6272L84.848 54.0982C85.442 54.8792 86.092 55.2702 86.798 55.2702C87.079 55.2702 87.304 55.2032 87.471 55.0682C87.5473 55.0133 87.6097 54.9413 87.6532 54.858C87.6966 54.7746 87.7198 54.6822 87.721 54.5882C87.721 54.4402 87.657 54.2882 87.531 54.1322C87.405 53.9762 87.057 53.6972 86.49 53.2962C85.833 52.8302 85.38 52.4312 85.13 52.0982C84.781 51.6332 84.606 51.1412 84.606 50.6232C84.606 49.8992 84.881 49.3092 85.43 48.8552C85.979 48.4012 86.628 48.1732 87.376 48.1732C87.8977 48.1725 88.4116 48.3006 88.872 48.5462C89.345 48.7962 89.7493 49.1589 90.049 49.6022M93.654 44.8472C94.015 44.8472 94.324 44.9762 94.581 45.2332C94.838 45.4902 94.967 45.8002 94.967 46.1602C94.967 46.5202 94.838 46.8302 94.581 47.0872C94.324 47.3442 94.015 47.4732 93.654 47.4732C93.293 47.4732 92.984 47.3442 92.727 47.0872C92.47 46.8302 92.341 46.5202 92.341 46.1602C92.341 45.8002 92.47 45.4902 92.727 45.2332C92.984 44.9762 93.293 44.8472 93.654 44.8472ZM92.202 48.3872H94.326L93.143 57.0492H91.02L92.202 48.3872ZM102.876 48.3872H105L104.016 55.3422C103.827 56.7022 103.632 57.6032 103.432 58.0462C103.119 58.7312 102.592 59.2992 101.852 59.7502C101.112 60.2012 100.183 60.4262 99.064 60.4262C98.135 60.4262 97.326 60.2502 96.637 59.8982C95.948 59.5462 95.434 59.0912 95.093 58.5352L96.959 57.5822C97.519 58.1512 98.246 58.4362 99.143 58.4362C99.665 58.4362 100.115 58.3442 100.496 58.1592C100.877 57.9742 101.172 57.7252 101.385 57.4112C101.598 57.0972 101.746 56.6312 101.833 56.0142C101.045 56.7042 100.152 57.0492 99.152 57.0492C98.4752 57.0542 97.8096 56.877 97.225 56.5362C96.635 56.1942 96.172 55.7132 95.836 55.0932C95.5 54.4732 95.331 53.7832 95.331 53.0252C95.3287 52.1783 95.5572 51.3469 95.992 50.6202C96.4246 49.8773 97.045 49.2614 97.791 48.8342C98.5106 48.4051 99.3322 48.1771 100.17 48.1742C100.67 48.1742 101.125 48.2712 101.532 48.4652C101.939 48.6592 102.34 48.9862 102.731 49.4452L102.876 48.3872ZM100.245 50.1822C99.451 50.1822 98.781 50.4512 98.236 50.9902C97.691 51.5292 97.418 52.1912 97.418 52.9782C97.418 53.6172 97.621 54.1292 98.026 54.5142C98.431 54.8992 98.974 55.0922 99.654 55.0922C100.147 55.0963 100.634 54.9745 101.067 54.7382C101.498 54.5038 101.855 54.1518 102.094 53.7232C102.344 53.2901 102.475 52.7983 102.472 52.2982C102.472 51.6912 102.264 51.1872 101.848 50.7852C101.432 50.3832 100.897 50.1822 100.245 50.1822ZM107.153 48.3872H109.276L109.155 49.2752C109.97 48.5422 110.816 48.1752 111.695 48.1752C112.446 48.1752 113.061 48.4122 113.54 48.8862C114.019 49.3602 114.258 49.9572 114.258 50.6772C114.258 51.0162 114.213 51.5222 114.123 52.1942L113.46 57.0492H111.336L111.983 52.3102L112.078 51.2172C112.078 50.8692 111.978 50.6012 111.779 50.4132C111.58 50.2252 111.295 50.1322 110.927 50.1322C110.569 50.1322 110.212 50.2552 109.854 50.5012C109.496 50.7472 109.222 51.0892 109.03 51.5272C108.838 51.9652 108.661 52.7852 108.501 53.9882L108.093 57.0492H105.97L107.153 48.3872Z" fill="white"/>
</g>
<defs>
<clipPath id="clip0_2390_2980">
<rect width="155" height="80" fill="white"/>
</clipPath>
</defs>
</svg>
