<svg width="84" height="58" viewBox="0 0 84 58" fill="none" xmlns="http://www.w3.org/2000/svg">
<mask id="mask0_2390_3020" style="mask-type:luminance" maskUnits="userSpaceOnUse" x="0" y="0" width="84" height="58">
<path d="M84 0.960449H0V57.3289H84V0.960449Z" fill="white"/>
</mask>
<g mask="url(#mask0_2390_3020)">
<path d="M84 46.1971C83.9287 46.1908 83.8569 46.1789 83.7857 46.1789C55.9436 46.178 28.1016 46.178 0.259382 46.1789C0.172837 46.1789 0.0866727 46.1908 0 46.1971C0 43.6692 0 41.1412 0 38.6133C0.0875636 38.6154 0.174618 38.6199 0.262055 38.6199C28.1312 38.6199 56.0004 38.6199 83.8697 38.6199C83.9129 38.6199 83.9567 38.6154 84 38.6133V46.1971Z" fill="#FE8801"/>
<path d="M16.7571 0.960449C16.9746 0.990167 17.1916 1.02431 17.4094 1.04827C19.1407 1.23808 20.7983 1.67315 22.3002 2.59873C24.4777 3.9403 25.7359 5.89968 26.082 8.45776C26.2881 9.98345 26.1796 11.4789 25.5854 12.9108C24.8999 14.5639 23.7313 15.7635 22.1656 16.5777C22.1008 16.6114 22.0369 16.6455 21.9411 16.6962C22.0566 16.7476 22.1502 16.7915 22.2451 16.8319C25.1716 18.0723 26.7991 20.3004 27.1277 23.4896C27.3463 25.6113 26.9496 27.6061 25.7613 29.3952C24.6107 31.1284 22.9828 32.219 21.0591 32.8887C19.5436 33.4164 17.9756 33.6395 16.3804 33.6422C10.9204 33.6515 5.46 33.6457 0 33.6457V0.960449C5.58562 0.960449 11.1716 0.960449 16.7571 0.960449ZM7.532 28.6564C7.62822 28.6564 7.70827 28.6564 7.78833 28.6564C10.129 28.6564 12.4697 28.6653 14.8098 28.6493C15.3016 28.6457 15.8026 28.597 16.282 28.4897C18.0289 28.0984 19.1773 27.0398 19.6153 25.2592C19.901 24.0981 19.8752 22.9295 19.5449 21.7804C19.2251 20.6676 18.571 19.8117 17.5411 19.2769C16.7537 18.868 15.9058 18.7061 15.0299 18.703C12.5948 18.695 10.1592 18.7004 7.72406 18.7007C7.66106 18.7007 7.59806 18.7065 7.53111 18.7096L7.532 28.6564ZM7.53632 13.6959C9.71383 13.6959 11.8711 13.7043 14.0284 13.6896C14.5207 13.6862 15.0177 13.6343 15.5028 13.5491C16.2811 13.4126 16.9973 13.1091 17.5853 12.5544C18.4414 11.7467 18.7101 10.7151 18.627 9.57582C18.5216 8.13046 17.7818 7.14812 16.4403 6.63721C15.7776 6.38485 15.0854 6.29528 14.3846 6.2926C12.1617 6.28418 9.93911 6.28951 7.71616 6.28951C7.65978 6.28951 7.60327 6.28951 7.53632 6.28951V13.6959Z" fill="white"/>
<path d="M71.1804 0.960449C71.4056 0.989722 71.6305 1.02387 71.8563 1.04827C73.9651 1.27355 75.9535 1.84967 77.6877 3.13935C79.5519 4.52571 80.6614 6.41059 81.1344 8.68084C81.5702 10.7733 81.5469 12.8687 80.9082 14.9182C79.9015 18.1486 77.6759 20.1169 74.5321 21.0947C74.34 21.1547 74.1426 21.1968 73.9226 21.254C77.1828 25.3806 80.4331 29.4946 83.6998 33.6302C83.6312 33.6368 83.5792 33.6461 83.5271 33.6461C80.7419 33.647 77.9568 33.6461 75.1722 33.6497C75.0426 33.6497 74.9622 33.6097 74.8812 33.5074C71.7111 29.4862 68.5383 25.4672 65.3612 21.4522C65.2938 21.3675 65.1665 21.2823 65.0663 21.2811C64.0167 21.2686 62.9667 21.2734 61.9167 21.2743C61.8962 21.2743 61.8752 21.2832 61.8375 21.2921V33.639H54.3441V33.376C54.3441 22.6598 54.3441 11.9432 54.3441 1.227C54.3441 1.13829 54.3396 1.05004 54.3371 0.96134C59.9515 0.96134 65.566 0.960449 71.1804 0.960449ZM61.7828 15.9578C64.2561 15.9578 66.7056 15.9728 69.1547 15.9471C69.7676 15.9408 70.392 15.8598 70.9892 15.7173C72.2238 15.4237 73.1959 14.7456 73.7327 13.5327C74.1234 12.6506 74.1812 11.7224 74.0635 10.7785C73.8998 9.46628 73.297 8.43869 72.1132 7.81647C71.2272 7.35036 70.2655 7.19778 69.2816 7.19424C66.8614 7.18493 64.4412 7.19114 62.0204 7.19114C61.943 7.19114 61.8655 7.19114 61.782 7.19114L61.7828 15.9578Z" fill="white"/>
<path d="M80.5448 57.3287C80.5518 57.2577 80.5653 57.1863 80.5653 57.1154C80.5666 55.7348 80.5662 54.3546 80.5662 52.974C80.5662 52.9013 80.5662 52.8281 80.5662 52.7394H81.4534V53.1364C81.814 52.7217 82.2392 52.5736 82.7274 52.6503C83.3653 52.7501 83.7359 53.1594 83.917 53.7679C83.9406 53.8477 83.9725 53.9244 84.001 54.003V54.7568C83.9717 54.8353 83.9362 54.9117 83.9143 54.9919C83.7359 55.6368 83.2752 56.0328 82.6242 56.0971C82.1884 56.1401 81.8179 56.0004 81.5072 55.6589V57.3287H80.5448ZM83.06 54.3555C83.0569 53.8907 82.8075 53.5359 82.433 53.4627C81.8603 53.3514 81.4083 53.7784 81.4355 54.4048C81.457 54.8983 81.7404 55.246 82.1564 55.289C82.6906 55.3445 83.0643 54.9586 83.06 54.3555Z" fill="white"/>
<path d="M0 55.9984C0.056 55.876 0.119891 55.7571 0.166218 55.6312C0.629109 54.3779 1.09162 53.1241 1.54662 51.8682C1.59473 51.735 1.65327 51.6867 1.79378 51.6929C2.07722 51.7049 2.36116 51.6965 2.66356 51.6965C3.19467 53.1387 3.72578 54.5824 4.26605 56.0504C3.93362 56.0504 3.62867 56.0556 3.32462 56.0445C3.27638 56.0427 3.20778 55.9749 3.18806 55.9222C3.108 55.7096 3.04933 55.4888 2.96889 55.2764C2.94878 55.2236 2.87738 55.1549 2.82838 55.154C2.33457 55.1451 1.84011 55.1486 1.33611 55.1486C1.25478 55.4033 1.169 55.6441 1.10205 55.8906C1.06973 56.0104 1.02289 56.0588 0.894726 56.0534C0.596781 56.0409 0.298327 56.0454 0 56.0427C0 56.0281 0 56.0131 0 55.9984ZM2.67527 54.3441C2.49162 53.776 2.31662 53.2337 2.12838 52.6505C1.94205 53.2412 1.77062 53.7858 1.59422 54.3441H2.67527Z" fill="white"/>
<path d="M34.7996 19.0041C34.2059 18.3535 33.628 17.7202 33.05 17.0865C32.7682 16.7773 32.4835 16.4712 32.2061 16.1578C32.158 16.1032 32.1156 16.0194 32.1156 15.9493C32.1102 14.346 32.1116 12.7428 32.1116 11.1245H46.9289V16.1396H39.4109C41.2199 18.5287 43.0185 20.904 44.8306 23.2976C45.5595 22.3871 46.2735 21.4948 46.9976 20.5909C47.9713 21.8211 48.9317 23.0342 49.896 24.2524C49.1701 25.1585 48.4543 26.0513 47.7312 26.9538C49.5118 29.1691 51.2868 31.3772 53.0836 33.6125C52.9961 33.6178 52.9357 33.6248 52.8753 33.6248C50.8047 33.6253 48.734 33.624 46.6632 33.6289C46.5241 33.6289 46.4389 33.5841 46.3509 33.4772C45.727 32.7166 45.0961 31.9622 44.4557 31.1913C44.2408 31.3479 44.03 31.501 43.8196 31.6549C42.374 32.7109 40.729 33.2421 38.9912 33.5095C37.4417 33.7481 35.8963 33.7149 34.3761 33.294C31.6986 32.5534 29.9 30.8539 29.1406 28.1406C28.4497 25.6725 29.0211 23.4754 30.7641 21.5994C31.6636 20.6313 32.749 19.9483 33.9386 19.4161C34.223 19.2888 34.5017 19.1469 34.7996 19.0041ZM37.7239 22.682C36.8445 23.1095 36.0286 23.5797 35.3526 24.2746C33.9675 25.6991 34.6076 27.4847 35.6729 28.2231C36.837 29.0297 38.1031 29.1686 39.4026 28.5917C39.9726 28.3384 40.5046 27.9969 41.0515 27.6913C41.1752 27.6221 41.2899 27.5366 41.4229 27.4491C40.183 25.8509 38.9589 24.2741 37.7239 22.682Z" fill="white"/>
<path d="M56.4505 51.6646C57.1837 51.6903 57.9147 51.6659 58.6318 51.7555C59.2925 51.8384 59.6468 52.4158 59.4928 53.0474C59.4402 53.2625 59.2815 53.4515 59.1577 53.6767C59.1275 53.6346 59.1327 53.6496 59.1428 53.655C59.74 53.9681 59.9521 54.3743 59.8419 54.9971C59.7466 55.5372 59.3314 55.939 58.707 55.9886C57.9616 56.0477 57.2112 56.0418 56.45 56.0645L56.4505 51.6646ZM57.4011 55.2432C57.7322 55.2432 58.0517 55.2596 58.3688 55.2388C58.6987 55.217 58.8865 55.0183 58.8951 54.7318C58.9048 54.42 58.7377 54.1801 58.4222 54.1487C58.0876 54.1153 57.7467 54.141 57.4011 54.141V55.2432ZM57.398 53.3893C57.7004 53.3725 57.9842 53.3765 58.2612 53.3347C58.4936 53.2997 58.62 53.1118 58.613 52.8958C58.606 52.6824 58.4875 52.5108 58.2568 52.486C57.9734 52.4553 57.6837 52.4788 57.398 52.4788V53.3893Z" fill="white"/>
<path d="M63.2313 53.6648C63.5052 53.7841 63.7729 53.9845 63.8784 54.3505C64.1121 55.1603 63.6465 55.893 62.7828 55.9878C62.2058 56.0513 61.6195 56.0287 61.0377 56.0424C60.8644 56.0464 60.6912 56.0428 60.5092 56.0428V51.666C61.2381 51.6908 61.9678 51.6664 62.6839 51.7538C63.3433 51.834 63.6998 52.3849 63.5634 53.0133C63.5135 53.2417 63.3478 53.4449 63.2313 53.6648ZM61.4598 54.135V55.2415C61.7972 55.2415 62.1239 55.2597 62.4482 55.2365C62.7851 55.2126 62.9657 55.0037 62.9648 54.6985C62.9635 54.3895 62.7658 54.1611 62.4368 54.1393C62.1196 54.1186 61.7998 54.135 61.4598 54.135ZM61.4582 53.3557C61.7359 53.3557 61.9984 53.3787 62.2557 53.3495C62.5493 53.3162 62.6862 53.1384 62.6731 52.8825C62.6604 52.6408 62.5085 52.482 62.2264 52.4612C61.9748 52.4425 61.7211 52.4571 61.4582 52.4571V53.3557Z" fill="white"/>
<path d="M9.0563 56.041H8.14465C8.14465 55.4866 8.14465 54.942 8.14465 54.397C8.14465 54.2714 8.14682 54.1455 8.13765 54.0204C8.11525 53.7051 7.96354 53.5272 7.68698 53.4824C7.42314 53.4399 7.14403 53.5836 7.05354 53.8439C6.99665 54.0072 6.9712 54.1889 6.96776 54.3628C6.9572 54.9159 6.96381 55.4693 6.96381 56.0365H6.0752V52.7825H6.88019C6.88719 52.8948 6.89382 53.0026 6.90298 53.1525C7.17776 52.8118 7.50803 52.6638 7.9092 52.6793C8.33276 52.6952 8.6092 52.9285 8.80049 53.3166C9.07209 52.8629 9.46714 52.6797 9.95714 52.6797C10.581 52.6802 11.0619 53.0536 11.1035 53.6896C11.1547 54.4666 11.1157 55.2493 11.1157 56.0401H10.2377C10.2377 55.8609 10.2377 55.6791 10.2377 55.4968C10.2377 55.0241 10.2441 54.5509 10.235 54.0781C10.228 53.7139 10.0535 53.5113 9.74714 53.4794C9.4282 53.4465 9.1762 53.6311 9.09703 53.9699C9.06903 54.0905 9.05898 54.2178 9.05809 54.3419C9.05414 54.9025 9.0563 55.4641 9.0563 56.041Z" fill="white"/>
<path d="M16.267 56.0453H15.3697V52.7829H16.1751V53.1856C16.4581 52.8202 16.7893 52.6676 17.1931 52.6788C17.6228 52.6902 17.905 52.9218 18.0957 53.3161C18.3517 52.8845 18.7261 52.6908 19.1942 52.6805C19.928 52.6645 20.4022 53.1306 20.4359 53.8921C20.4386 53.9511 20.4372 54.0106 20.4372 54.0695C20.4372 54.7192 20.4372 55.3695 20.4372 56.0347H19.5325C19.5325 55.6324 19.5338 55.2346 19.532 54.8368C19.5307 54.5561 19.539 54.2744 19.5171 53.9954C19.4918 53.6713 19.3317 53.5108 19.0477 53.4797C18.7616 53.4482 18.5043 53.5999 18.419 53.881C18.3727 54.0332 18.3565 54.1995 18.3547 54.3596C18.3472 54.9127 18.3517 55.4661 18.3517 56.0351H17.4573C17.4543 55.9814 17.4478 55.9185 17.4473 55.855C17.4465 55.2861 17.4521 54.7171 17.4451 54.148C17.4386 53.6176 17.0917 53.3444 16.6563 53.5249C16.379 53.6402 16.2806 53.8881 16.2743 54.168C16.2626 54.7073 16.2679 55.2465 16.2657 55.7859C16.2657 55.8657 16.267 55.9455 16.267 56.0453Z" fill="white"/>
<path d="M69.6911 52.2006C69.5231 52.4202 69.3582 52.6349 69.2208 52.814C68.9204 52.7027 68.646 52.5412 68.3568 52.5049C67.3594 52.3789 66.7123 53.0917 66.8671 54.1032C66.9814 54.8483 67.4349 55.2458 68.1791 55.2519C68.9133 55.2581 68.9461 55.2222 68.8945 54.4492H68.0921V53.627C68.5729 53.627 69.0568 53.615 69.5394 53.638C69.6234 53.642 69.7665 53.7906 69.7708 53.8774C69.7984 54.4598 69.7975 55.043 69.7997 55.6262C69.7997 55.6661 69.7581 55.7198 69.7214 55.7442C68.9667 56.2448 67.2998 56.3983 66.4695 55.4923C65.7743 54.7339 65.7147 53.8376 66.0363 52.9107C66.3203 52.0928 67.0894 51.6068 67.9989 51.5837C68.6018 51.5682 69.1544 51.699 69.6177 52.1146C69.6444 52.1385 69.6649 52.1701 69.6911 52.2006Z" fill="white"/>
<path d="M22.0098 55.651V56.036H21.1318V51.3979H22.0199V53.0881C22.2588 52.9612 22.4767 52.7909 22.7217 52.7253C23.405 52.5421 24.0538 52.8602 24.3518 53.5081C24.6244 54.1006 24.6248 54.7126 24.3614 55.3078C23.9178 56.3102 22.6219 56.4064 22.0098 55.651ZM22.8026 55.3402C23.2725 55.3451 23.6072 54.9747 23.6168 54.4381C23.6264 53.8891 23.3018 53.5006 22.8258 53.4926C22.3323 53.4842 21.9863 53.8637 21.9845 54.4146C21.9832 54.9531 22.3205 55.3349 22.8026 55.3402Z" fill="white"/>
<path d="M56.0068 56.0333H54.9861C54.8868 55.734 54.7857 55.4284 54.6833 55.1189C54.1911 55.1189 53.7103 55.1141 53.2303 55.1251C53.1709 55.1264 53.0833 55.2026 53.0602 55.2644C52.9648 55.5176 52.8895 55.7788 52.8069 56.0378H51.7867C51.8077 55.9633 51.8221 55.8963 51.8457 55.8329C52.3318 54.5095 52.8209 53.1874 53.303 51.8627C53.3507 51.7314 53.4093 51.6778 53.5511 51.6858C53.7908 51.6987 54.0319 51.6937 54.2721 51.6875C54.3792 51.6849 54.4365 51.7093 54.479 51.8251C54.9794 53.1977 55.4879 54.5677 55.9928 55.9385C56.0023 55.9646 56.0011 55.9948 56.0068 56.0333ZM53.3563 54.3171H54.4322C54.2523 53.7609 54.0795 53.2256 53.8892 52.6367C53.7015 53.2286 53.5322 53.7631 53.3563 54.3171Z" fill="white"/>
<path d="M43.4193 51.377H44.314V53.0662C44.335 53.0702 44.3543 53.0786 44.3582 53.0741C44.7301 52.6347 45.2039 52.5686 45.7079 52.746C46.2382 52.9327 46.4347 53.3877 46.4508 53.9138C46.4727 54.614 46.456 55.3157 46.456 56.0297H45.5421V55.5568C45.5421 55.0619 45.5448 54.567 45.5412 54.0721C45.5387 53.723 45.3714 53.5097 45.0828 53.4725C44.7376 53.4277 44.4601 53.5918 44.37 53.9115C44.3347 54.0375 44.3207 54.1731 44.3198 54.3045C44.3144 54.873 44.3176 55.442 44.3176 56.027H43.4193V51.377Z" fill="white"/>
<path d="M72.799 54.3631C72.799 53.3382 73.513 52.6347 74.5521 52.6353C75.5762 52.6353 76.303 53.3598 76.2995 54.3772C76.296 55.3911 75.5597 56.1158 74.5386 56.1101C73.506 56.1038 72.799 55.3941 72.799 54.3631ZM74.5508 55.2961C75.0246 55.2926 75.3768 54.8922 75.3711 54.3644C75.3655 53.8323 75.0101 53.4383 74.539 53.4419C74.0642 53.4459 73.7244 53.8362 73.7252 54.3769C73.7261 54.9139 74.073 55.3002 74.5508 55.2961Z" fill="white"/>
<path d="M36.0146 54.3458C36.0146 55.3648 35.2868 56.0851 34.2634 56.0803C33.2453 56.0749 32.5081 55.337 32.5143 54.3297C32.5209 53.3102 33.2423 52.6051 34.2791 52.606C35.3164 52.6063 36.0151 53.3067 36.0146 54.3458ZM35.0899 54.3515C35.0908 54.0504 35.0098 53.7812 34.77 53.5865C34.5119 53.3771 34.2161 53.3559 33.927 53.4903C33.5856 53.6495 33.461 53.9608 33.4531 54.324C33.4413 54.8593 33.7839 55.2563 34.2581 55.2665C34.7341 55.2766 35.0864 54.889 35.0899 54.3515Z" fill="white"/>
<path d="M25.899 54.6503C26.018 55.4211 26.7789 55.6113 27.7667 55.1381C27.859 55.3422 27.9514 55.5462 28.059 55.7838C27.9421 55.85 27.8315 55.9328 27.7072 55.9803C27.1665 56.1865 26.6126 56.2198 26.0591 56.0455C25.4905 55.8663 25.14 55.4721 25.0192 54.8774C24.9352 54.464 24.9454 54.0538 25.1085 53.6604C25.35 53.0763 25.7936 52.752 26.4084 52.6887C26.9508 52.6328 27.4404 52.7579 27.7842 53.2302C28.0896 53.6497 28.0914 54.1375 28.0751 54.6503H25.899ZM27.219 54.0445C27.191 53.6298 26.9766 53.4121 26.6044 53.4044C26.2176 53.3965 25.9577 53.632 25.9074 54.0445H27.219Z" fill="white"/>
<path d="M14.7902 54.6641H12.6272C12.7055 55.4087 13.3929 55.5866 14.4914 55.1461C14.5736 55.3297 14.6682 55.5111 14.7312 55.7032C14.7455 55.7476 14.6673 55.8575 14.6073 55.8868C13.9073 56.2274 13.1899 56.277 12.4915 55.9116C12.2711 55.7963 12.0667 55.5887 11.9329 55.3737C11.4625 54.6184 11.5885 53.0875 12.8394 52.7469C13.8623 52.4683 14.7705 53.0085 14.7897 54.1749C14.7924 54.3287 14.7902 54.4826 14.7902 54.6641ZM12.6324 54.0396H13.9467C13.8881 53.6023 13.6772 53.3993 13.3001 53.4045C12.9194 53.4098 12.6705 53.6454 12.6324 54.0396Z" fill="white"/>
<path d="M49.8121 55.0597C49.9089 55.2792 49.9999 55.4859 50.0979 55.708C49.519 56.0876 48.9009 56.1476 48.252 56.0109C47.8019 55.9161 47.4461 55.6739 47.2248 55.2605C46.7864 54.4419 46.961 52.988 48.1811 52.6599C49.2417 52.3747 50.072 52.988 50.1144 54.0968C50.1202 54.2503 50.1153 54.4042 50.1153 54.5793C49.7369 54.5793 49.3751 54.5793 49.0133 54.5793C48.6514 54.5793 48.3037 54.5793 47.9471 54.5793C48.021 55.3328 48.8248 55.54 49.8121 55.0597ZM49.2495 53.9722C49.2649 53.566 49.0133 53.3211 48.599 53.3304C48.2188 53.3389 47.9397 53.624 47.9717 53.9722H49.2495Z" fill="white"/>
<path d="M78.969 52.77H79.8706V56.0249H79.0464V55.6377C78.8019 55.9464 78.5258 56.114 78.1723 56.1363C77.3813 56.1854 76.8629 55.7038 76.8366 54.8523C76.8156 54.1666 76.8323 53.4797 76.8323 52.7771H77.7435C77.7435 53.331 77.7418 53.8899 77.7449 54.4482C77.7457 54.5955 77.7448 54.7449 77.7712 54.8886C77.8184 55.1538 77.9623 55.2989 78.1933 55.3295C78.4558 55.3645 78.7074 55.3197 78.8307 55.0594C78.9125 54.8868 78.9572 54.6811 78.9628 54.4891C78.9795 53.9218 78.969 53.3532 78.969 52.77Z" fill="white"/>
<path d="M37.7989 53.5039V56.0221H36.9011V53.5195H36.3721V52.7501H36.8783C36.8937 52.1912 36.9956 51.6821 37.5332 51.4128C37.9625 51.1977 38.4009 51.2147 38.848 51.4214C38.7889 51.6581 38.7325 51.8835 38.676 52.1079C38.0378 51.966 37.7647 52.1686 37.8129 52.751H38.6835V53.503L37.7989 53.5039Z" fill="white"/>
<path d="M42.7919 55.1929C42.8357 55.3916 42.886 55.5823 42.9136 55.7766C42.9206 55.8248 42.8644 55.9149 42.8172 55.9335C42.3911 56.1034 41.9553 56.1459 41.5236 55.9633C41.1281 55.7956 40.9701 55.451 40.9478 55.0461C40.9238 54.6048 40.933 54.1614 40.9277 53.7187C40.9268 53.6389 40.9277 53.5591 40.9277 53.4531H40.4141V52.7063C40.534 52.7 40.6542 52.6929 40.7746 52.6872C40.9254 52.6797 40.999 52.5985 40.999 52.4468C40.999 52.2636 40.999 52.0809 40.999 51.8857H41.8386V52.6867H42.7766V53.4446H41.8469C41.8469 53.7068 41.8469 53.9542 41.8469 54.2017C41.8469 54.4008 41.839 54.6009 41.8491 54.7995C41.8679 55.1822 42.0407 55.3286 42.4166 55.2825C42.5307 55.2683 42.6427 55.2297 42.7919 55.1929Z" fill="white"/>
<path d="M30.7065 53.583C30.5539 53.583 30.4099 53.5746 30.2669 53.5848C29.8831 53.6114 29.6159 53.8381 29.5746 54.2256C29.5358 54.5911 29.5462 54.9619 29.5392 55.3305C29.5349 55.5593 29.5384 55.7881 29.5384 56.0507C29.3861 56.0507 29.237 56.0507 29.0878 56.0507C28.9385 56.0507 28.7985 56.0507 28.6463 56.0507V52.7767H29.4631V53.3001C29.7891 52.8069 30.1824 52.6295 30.7065 52.7603V53.583Z" fill="white"/>
<path d="M70.45 52.7624H71.2677V53.2578C71.3294 53.1867 71.3648 53.1505 71.395 53.1101C71.6452 52.7774 71.9829 52.6648 72.3794 52.7216C72.4349 52.7296 72.5202 52.8085 72.5232 52.8586C72.5386 53.1007 72.5302 53.3438 72.5302 53.5894C72.4121 53.5784 72.3119 53.5633 72.2109 53.5607C71.6837 53.5464 71.36 53.864 71.3569 54.401C71.3538 54.9399 71.356 55.4783 71.356 56.03H70.45V52.7624Z" fill="white"/>
</g>
</svg>
