<svg width="104" height="62" viewBox="0 0 104 62" fill="none" xmlns="http://www.w3.org/2000/svg">
<g clip-path="url(#clip0_2390_3024)">
<path d="M42.9267 61.4361C42.7849 61.2861 42.6041 61.3652 42.4438 61.3683C38.9018 61.4258 35.3691 61.2491 31.857 60.8072C26.039 60.0756 20.3742 58.7367 15.0165 56.2922C10.9742 54.4488 7.2781 52.0977 4.30849 48.7325C2.32944 46.4904 0.863132 43.9627 0.0945281 41.0527C0.0400681 40.8482 0.0277376 40.6509 0.0277376 40.4485C0.0267101 38.2947 0.0873352 36.14 0.00615914 33.9893C-0.0513834 32.4429 0.334974 31.0259 0.892931 29.6294C2.6788 25.1586 5.61861 21.5211 9.13385 18.3079C13.4557 14.3581 18.4126 11.3761 23.6592 8.83911C24.4412 8.46097 25.2273 8.09208 26.0154 7.72833C26.4017 7.54954 26.7963 7.3913 27.2186 7.21045C27.3214 7.48275 27.269 7.75402 27.27 8.01604C27.2741 9.14429 27.2762 10.2715 27.2587 11.3998C27.2536 11.7029 27.3286 11.8097 27.6554 11.8128C28.3551 11.821 29.0025 11.6597 29.6293 11.3658C33.5586 9.5214 38.0089 10.812 40.3383 14.469C41.9578 17.0112 41.8365 20.1904 40.0362 22.6206C39.7989 22.9401 39.4362 22.9977 39.1032 23.0912C38.87 23.1569 38.87 22.8857 38.8309 22.7428C38.536 21.6958 38.2206 20.6549 37.7746 19.6612C37.6791 19.4485 37.6441 19.1659 37.2793 19.0416C37.4838 19.8071 37.5393 20.5213 37.3502 21.2334C37.0502 22.3616 36.2693 23.0624 35.251 23.5299C34.7762 23.7478 34.3056 23.4559 34.3118 22.9607C34.3549 19.1721 32.5896 16.3525 29.6139 14.1803C29.3251 13.9696 29.021 13.7878 28.798 13.4929C28.6305 13.2719 28.3757 13.1414 28.1136 13.0613C27.4632 12.8619 27.2659 13.013 27.2649 13.684C27.2608 22.5702 27.2567 31.4574 27.2546 40.3437C27.2546 41.1297 27.2618 41.9158 27.2834 42.7008C27.2906 42.9752 27.2289 43.0893 26.9207 43.0872C24.8347 43.0738 22.7499 43.08 20.7502 43.08C20.9373 42.8498 21.1438 42.5683 21.3791 42.3135C22.234 41.3887 22.7242 40.3324 22.7221 39.0448C22.7108 30.3117 22.7129 21.5796 22.7108 12.8465C22.7108 12.6472 22.7108 12.4468 22.7108 12.192C21.5959 12.6811 20.6074 13.2791 19.6107 13.8566C15.6598 16.1439 12.0048 18.8238 8.8523 22.1438C6.35228 24.7774 4.25403 27.6864 3.05386 31.1492C0.999796 37.073 2.13729 42.3946 6.25158 47.0761C9.17186 50.3992 12.8772 52.6156 16.9 54.3419C20.8746 56.0476 25.0228 57.142 29.282 57.8541C33.8268 58.6144 38.4035 58.9165 43.0059 58.8405C45.4997 58.7994 47.9905 58.6484 50.5306 58.3822C50.5306 59.1611 50.5213 59.9256 50.5357 60.6901C50.5408 60.9603 50.3651 60.9367 50.2018 60.9501C49.0961 61.0436 47.9915 61.1494 46.8838 61.2234C46.0145 61.2809 45.1421 61.2994 44.2708 61.3354C44.1875 61.3385 44.0971 61.3272 44.0611 61.432H42.9319L42.9267 61.4361ZM35.8798 22.0914C35.9127 22.1242 35.9466 22.1561 35.9795 22.189C35.9024 22.3667 35.8264 22.5445 35.7185 22.7942C36.3227 22.4592 36.6751 22.0205 36.9022 21.4707C37.2793 20.5572 37.2372 19.6232 36.9413 18.7148C36.1172 16.183 34.2717 14.6232 31.9217 13.5658C31.8529 13.535 31.7583 13.5617 31.633 13.5617C32.8044 14.3704 33.8843 15.2202 34.7084 16.3505C34.6663 16.3813 34.6242 16.4131 34.582 16.444C33.3243 15.0568 31.82 14.0179 30.1163 13.2504C29.7926 13.1045 29.6272 13.1764 29.4505 13.4528C29.2439 13.7765 29.5388 13.8361 29.6909 13.9511C31.0915 15.0075 32.3666 16.1912 33.3449 17.6575C34.3529 19.168 35.0352 20.7792 34.7197 22.6606C34.7033 22.7603 34.6149 22.9309 34.7906 22.9586C34.9817 22.9884 35.2099 23.0521 35.3589 22.8476C35.5397 22.6 35.7072 22.3431 35.8798 22.0903V22.0914ZM39.1248 22.2198C39.5759 22.0533 39.8379 21.817 39.9386 21.3844C40.5315 18.8248 40.0126 16.52 38.2565 14.5718C36.1244 12.2053 33.3346 11.522 30.2663 11.6926C29.7741 11.7203 29.8964 12.1879 29.807 12.4818C29.7002 12.8342 30.0043 12.7962 30.2078 12.8414C32.8856 13.4343 35.0783 14.8564 36.8971 16.857C38.2586 18.3552 38.9697 20.1647 39.1258 22.2198H39.1248ZM40.1811 21.3094C41.4594 19.6951 41.3556 16.7656 39.9612 14.4978C38.2524 11.7193 35.0794 10.4688 31.783 10.9733C34.4115 11.408 36.6608 12.3656 38.3809 14.2923C40.1657 16.2909 40.6959 18.6439 40.1811 21.3094Z" fill="#015CA1"/>
<path d="M103.07 28.6211C102.801 29.1544 102.777 29.7545 102.621 30.3186C101.649 33.8297 99.8579 36.898 97.5695 39.696C94.4889 43.465 90.7682 46.5035 86.6796 49.1063C80.2667 53.1887 73.3061 56.0093 66.0095 58.0726C63.6204 58.7477 61.2468 59.4629 58.8084 59.9469C56.8705 60.3312 54.9182 60.6261 52.9658 60.9261C52.4993 60.998 52.4531 60.8079 52.4541 60.4082C52.4685 50.3075 52.45 40.2067 52.489 30.1069C52.4983 27.6932 52.1037 25.5395 49.7835 24.2171C49.9654 24.0393 50.1247 24.1061 50.2644 24.1061C52.3678 24.1009 54.4722 24.1164 56.5756 24.0907C57.039 24.0855 57.1664 24.1996 57.1654 24.6743C57.1335 35.407 57.1222 46.1397 57.0935 56.8724C57.0924 57.342 57.1531 57.454 57.6751 57.3595C64.5175 56.1131 71.1246 54.1197 77.4502 51.2209C82.6424 48.8422 87.4975 45.9229 91.7577 42.0892C94.9996 39.172 97.7473 35.8715 99.4355 31.7911C100.428 29.3918 100.899 26.8907 100.689 24.3023C100.418 20.9351 99.0543 18.0076 96.8954 15.4326C95.087 13.2747 92.9045 11.5639 90.5072 10.1109C90.2894 9.97939 90.0725 9.84683 89.8465 9.71017C90.2904 9.08234 90.6747 8.44218 90.872 7.70646C90.9336 7.47731 91.0405 7.47834 91.2388 7.59445C95.6048 10.1582 99.3133 13.3703 101.57 18.0189C102.226 19.3712 102.687 20.7892 102.966 22.2668C102.982 22.3459 102.955 22.4415 103.068 22.4692V28.6221L103.07 28.6211Z" fill="#015CA1"/>
<path d="M79.6471 13.03C82.1255 13.03 84.4653 13.032 86.806 13.0259C87.0341 13.0259 87.1122 13.1091 87.0927 13.3249C87.0824 13.4441 87.0906 13.5643 87.0906 13.6835C87.0824 21.4086 87.0742 29.1337 87.0639 36.8598C87.0629 37.7301 87.1081 38.5943 87.2427 39.4585C87.4441 40.748 88.1233 41.7252 89.1036 42.5298C89.3009 42.6911 89.5074 42.8422 89.716 43.0025C89.5948 43.1761 89.4283 43.0939 89.2927 43.0939C87.1718 43.1001 85.0499 43.0847 82.9301 43.1104C82.4852 43.1155 82.4091 42.9768 82.4102 42.5658C82.4297 34.7718 82.4317 26.9789 82.44 19.185C82.44 18.3475 82.3968 17.5183 82.2684 16.687C82.0577 15.3173 81.3035 14.3113 80.2482 13.4852C80.0879 13.3598 79.9245 13.2396 79.6481 13.03H79.6471Z" fill="#015CA1"/>
<path d="M28.6613 9.39199C28.6613 8.58537 28.6747 7.76847 28.6541 6.9526C28.6469 6.67619 28.8391 6.65769 28.9994 6.59707C31.9906 5.46985 35.0311 4.50087 38.126 3.6963C41.67 2.77562 45.2562 2.06662 48.8814 1.57031C53.7458 0.904463 58.6369 0.595172 63.5465 0.750331C68.7377 0.914739 73.8744 1.52613 78.9268 2.77357C79.3656 2.88146 79.4858 2.99655 79.2464 3.42812C78.9237 4.01073 78.8508 4.68378 78.7275 5.27975C61.5962 1.4018 44.9736 3.30584 28.6613 9.39302V9.39199Z" fill="#015CA1"/>
<path d="M31.3854 24.1015C33.2843 24.0645 35.3507 24.2217 37.3667 24.8269C40.8388 25.8699 42.8117 28.4747 42.9494 32.0978C43.0336 34.3235 42.7449 36.4474 41.6064 38.3977C40.1966 40.8124 37.9966 42.0671 35.3394 42.6743C33.3017 43.1398 31.2384 43.1018 29.1731 43.0905C28.909 43.0895 28.8638 42.9806 28.8699 42.7535C28.8833 42.3096 28.8946 41.8636 28.8668 41.4207C28.8473 41.1032 28.946 41.0107 29.2645 41.021C30.5644 41.0632 31.858 40.9881 33.1342 40.7138C35.9672 40.1055 37.7068 38.1521 38.0058 35.2699C38.1764 33.6299 38.2052 32.0043 37.6965 30.4106C36.93 28.0102 35.2212 26.7505 32.789 26.3631C31.6536 26.1822 30.5099 26.1422 29.3652 26.2018C28.9449 26.2233 28.835 26.0826 28.8658 25.69C28.8977 25.2821 28.8915 24.869 28.8668 24.4601C28.8494 24.16 28.9634 24.086 29.246 24.0932C29.8954 24.1117 30.5459 24.0994 31.3864 24.0994L31.3854 24.1015Z" fill="#015CA1"/>
<path d="M61.3691 24.1014C63.2619 24.0623 65.3313 24.2062 67.3392 24.833C69.8659 25.6211 71.8038 27.1018 72.4964 29.7498C73.414 33.2609 73.0852 36.6231 70.7455 39.5659C69.3603 41.3087 67.4419 42.1872 65.3087 42.6743C63.2732 43.1397 61.2109 43.1069 59.1455 43.0915C58.8927 43.0894 58.8259 43.0031 58.8342 42.7647C58.8496 42.3208 58.864 41.8748 58.8301 41.433C58.8023 41.0733 58.9513 41.0148 59.2668 41.023C60.6858 41.06 62.0956 40.9788 63.4787 40.6181C66.2787 39.8896 67.5991 37.9393 67.9557 35.3931C68.192 33.712 68.1879 32.0258 67.6556 30.3848C66.887 28.0153 65.1895 26.7566 62.781 26.3671C61.6126 26.1781 60.4361 26.1483 59.2575 26.2017C58.9174 26.2171 58.8105 26.1143 58.8311 25.7773C58.8588 25.3344 58.8516 24.8885 58.8321 24.4456C58.8208 24.1815 58.8958 24.087 59.1722 24.0952C59.8381 24.1137 60.5049 24.1014 61.3691 24.1014Z" fill="#015CA1"/>
<path d="M81.808 5.87209C81.808 4.10368 83.1942 2.73088 84.9647 2.74424C86.7074 2.7576 88.0863 4.13451 88.0874 5.86284C88.0884 7.60966 86.6796 9.03282 84.9451 9.03384C83.1962 9.03487 81.806 7.63433 81.807 5.87106L81.808 5.87209Z" fill="#015CA1"/>
<path d="M39.1248 22.2204C38.9686 20.1654 38.2576 18.3558 36.8961 16.8577C35.0773 14.8571 32.8845 13.4349 30.2067 12.842C30.0023 12.7968 29.6991 12.8348 29.806 12.4824C29.8954 12.1885 29.7731 11.72 30.2653 11.6932C33.3336 11.5227 36.1233 12.206 38.2555 14.5724C40.0116 16.5217 40.5315 18.8265 39.9376 21.3851C39.8369 21.8187 39.5759 22.054 39.1238 22.2204H39.1248Z" fill="#F1D702"/>
<path d="M34.7084 16.3521C33.8843 15.2218 32.8043 14.372 31.6329 13.5633C31.7573 13.5633 31.8528 13.5366 31.9217 13.5674C34.2707 14.6248 36.1172 16.1846 36.9412 18.7165C37.2372 19.6248 37.2793 20.5589 36.9022 21.4723C36.6751 22.0221 36.3227 22.4608 35.7185 22.7958C35.8264 22.5461 35.9034 22.3684 35.9795 22.1906C36.0247 22.0981 36.0699 22.0067 36.1161 21.9142C36.6761 20.4499 36.2117 17.9088 35.1636 17.2317C36.0483 18.7216 36.5241 20.1889 36.0103 21.8166C35.9671 21.9091 35.924 22.0005 35.8798 22.093C35.7061 22.3458 35.5386 22.6026 35.3588 22.8503C35.2098 23.0548 34.9817 22.9911 34.7906 22.9613C34.6149 22.9335 34.7033 22.764 34.7197 22.6633C35.0351 20.7818 34.3529 19.1706 33.3448 17.6602C32.3666 16.1938 31.0925 15.0101 29.6909 13.9538C29.5388 13.8387 29.2449 13.7791 29.4504 13.4554C29.6272 13.179 29.7916 13.1071 30.1163 13.253C31.82 14.0206 33.3243 15.0594 34.582 16.4466C34.6745 16.6079 34.7618 16.7744 35.0084 16.8792C34.992 16.6038 34.844 16.4816 34.7094 16.3531L34.7084 16.3521ZM35.3712 17.3303C35.2489 17.0734 35.2417 16.9152 34.991 16.9162C35.0156 17.0816 35.0855 17.1926 35.3712 17.3303Z" fill="#F1D702"/>
<path d="M40.1812 21.3094C40.696 18.644 40.1657 16.2909 38.3809 14.2923C36.6598 12.3646 34.4115 11.408 31.783 10.9733C35.0794 10.4698 38.2524 11.7204 39.9613 14.4978C41.3556 16.7656 41.4604 19.6951 40.1812 21.3094Z" fill="#F1D702"/>
<path d="M36.0093 21.8154C36.5231 20.1867 36.0473 18.7204 35.1626 17.2305C36.2107 17.9076 36.6751 20.4498 36.1151 21.913C36.0802 21.8801 36.0442 21.8483 36.0093 21.8154Z" fill="#015CA1"/>
<path d="M34.7085 16.3521C34.8441 16.4815 34.9921 16.6028 35.0075 16.8782C34.7609 16.7744 34.6735 16.6079 34.5811 16.4456C34.6232 16.4147 34.6653 16.3829 34.7074 16.3521H34.7085Z" fill="#015CA1"/>
<path d="M35.3712 17.3301C35.0855 17.1924 35.0156 17.0815 34.991 16.916C35.2417 16.916 35.2489 17.0743 35.3712 17.3301Z" fill="#015CA1"/>
<path d="M36.1152 21.9126C36.07 22.005 36.0248 22.0965 35.9785 22.189C35.9456 22.1561 35.9117 22.1242 35.8788 22.0914C35.922 21.9989 35.9652 21.9074 36.0083 21.8149C36.0433 21.8478 36.0792 21.8797 36.1142 21.9126H36.1152Z" fill="#015CA1"/>
</g>
<defs>
<clipPath id="clip0_2390_3024">
<rect width="103.07" height="60.7259" fill="white" transform="translate(0 0.710449)"/>
</clipPath>
</defs>
</svg>
