<svg width="125" height="50" viewBox="0 0 125 50" fill="none" xmlns="http://www.w3.org/2000/svg">
<path d="M55.6523 31.0479H53.7281V25.3074C53.7281 24.0474 53.0328 23.1023 52.095 23.1023C51.1572 23.1023 50.4619 23.9949 50.4619 25.3074V31.0479H48.5216V25.3074C48.5216 23.8548 47.6969 23.1023 46.8885 23.1023C45.9507 23.1023 45.2554 23.9949 45.2554 25.3074V31.0479H43.3312V25.3599C43.3312 22.7698 44.7865 21.0021 46.8885 21.0021C47.8748 21.0021 48.6994 21.4397 49.4594 22.3322C50.1547 21.4397 51.0278 21.0021 52.0788 21.0021C54.1809 21.0021 55.5714 22.8398 55.5714 25.3599V31.0479H55.6523ZM59.1449 31.0479H57.2207V21.2646H59.1449V31.0479ZM58.1585 19.812C57.4632 19.812 56.9297 19.252 56.9297 18.4819C56.9297 17.7119 57.4471 17.1518 58.1585 17.1518C58.8538 17.1518 59.3874 17.7119 59.3874 18.4819C59.4359 19.252 58.8538 19.812 58.1585 19.812ZM65.2084 31.3104C63.9795 31.3104 62.7506 30.7503 61.8775 29.7878C61.0043 28.8427 60.5354 27.5826 60.5354 26.13C60.5354 24.7474 61.0043 23.4173 61.8775 22.4722C62.8153 21.5797 63.9795 21.0196 65.2084 21.0196C66.5504 21.0196 67.7146 21.5272 68.5878 22.4722L68.8141 22.7173L67.4721 24.2399L67.2457 23.9948C66.5989 23.3648 65.9683 23.0498 65.2569 23.0498C63.7369 23.0498 62.4596 24.4324 62.4596 26.1475C62.4596 27.8626 63.6884 29.2452 65.2569 29.2452C65.9522 29.2452 66.5989 28.9302 67.2457 28.3527L67.4721 28.1077L68.8788 29.5603L68.5878 29.8053C67.5529 30.8029 66.4372 31.3104 65.2084 31.3104ZM72.2097 31.0479H70.1724V26.13C70.1724 22.9798 71.4497 21.4572 74.2632 21.2121L74.6674 21.1421V23.2248L74.3764 23.2948C72.8565 23.4873 72.2744 24.2399 72.2744 26.0075V31.0479H72.2097ZM79.971 31.3104C78.7421 31.3104 77.5132 30.7503 76.6401 29.7878C75.767 28.8427 75.298 27.5126 75.298 26.13C75.298 24.7474 75.767 23.4698 76.6401 22.4722C77.5132 21.4572 78.6774 20.9496 79.971 20.9496C81.1999 20.9496 82.3641 21.5097 83.2372 22.4722C84.1104 23.4348 84.5793 24.7474 84.5793 26.13C84.5793 27.5126 84.1104 28.8427 83.2372 29.7878C82.3641 30.8029 81.1999 31.3104 79.971 31.3104ZM79.9063 23.1023C78.4511 23.1023 77.2222 24.4849 77.2222 26.2C77.2222 27.9151 78.4511 29.2977 79.9063 29.2977C81.4262 29.2977 82.5904 27.9676 82.5904 26.2C82.6551 24.4324 81.4262 23.1023 79.9063 23.1023ZM87.797 31.0479C87.1017 31.0479 86.4549 30.4178 86.4549 29.5953C86.4549 28.7727 87.037 28.1427 87.797 28.1427C88.5569 28.1427 89.139 28.7727 89.139 29.5953C89.0743 30.4178 88.4922 31.0479 87.797 31.0479ZM87.797 23.8548C87.1017 23.8548 86.4549 23.2248 86.4549 22.4022C86.4549 21.5797 87.037 20.9496 87.797 20.9496C88.5569 20.9496 89.139 21.5797 89.139 22.4022C89.0743 23.2248 88.4922 23.8548 87.797 23.8548ZM95.6068 31.3104C92.858 31.3104 90.9338 28.9827 90.9338 25.6925V16.5918H92.858V21.9647C93.6826 21.3347 94.6043 21.0196 95.6068 21.0196C96.8356 21.0196 97.9998 21.5272 98.873 22.5422C99.7461 23.4873 100.215 24.8174 100.215 26.2C100.215 27.5826 99.7461 28.9127 98.873 29.8578C97.9998 30.8029 96.8356 31.3104 95.6068 31.3104ZM95.6068 23.1023C94.0868 23.1023 92.8095 24.4849 92.8095 26.2C92.8095 27.9151 94.0383 29.2977 95.6068 29.2977C97.1267 29.2977 98.4041 27.9151 98.4041 26.2C98.3556 24.4849 97.1267 23.1023 95.6068 23.1023ZM103.837 31.0479H101.913V21.2646H103.837V31.0479ZM102.834 19.812C102.139 19.812 101.606 19.252 101.606 18.4819C101.606 17.7294 102.123 17.1518 102.834 17.1518C103.53 17.1518 104.063 17.7119 104.063 18.4819C104.128 19.252 103.546 19.812 102.834 19.812ZM111 31.3804L110.596 31.3104C107.734 30.7503 106.683 29.2277 106.683 25.885V23.4173H105.858V21.4047H106.683V19.1995H108.607V21.3522H111V23.3473H108.607V26.13C108.607 27.9676 109.254 28.9127 110.709 29.1052L111 29.1752V31.3804ZM32.7726 27.8276C33.6458 27.8276 34.2925 27.0751 34.2925 26.1825C34.2925 25.2899 33.5973 24.5374 32.7726 24.5374C31.8995 24.5374 31.2527 25.2899 31.2527 26.1825C31.2527 27.0751 31.9642 27.8276 32.7726 27.8276ZM21.5834 24.5549C20.7103 24.5549 20.0635 25.3074 20.0635 26.2C20.0635 27.0926 20.7588 27.8451 21.5834 27.8451C22.4081 27.8451 23.1034 27.0926 23.1034 26.2C23.1034 25.3074 22.3919 24.5549 21.5834 24.5549ZM21.5834 21.2646C19.0772 21.2646 17.0398 23.4698 17.0398 26.1825C17.0398 28.8952 19.0772 31.1004 21.5834 31.1004H32.9667C35.4729 31.1004 37.5102 28.8952 37.5102 26.1825C37.5102 23.4698 35.4729 21.2646 32.9667 21.2646H21.5834ZM32.9505 34.4081H21.5834C17.3794 34.4081 14 30.7503 14 26.2C14 21.6497 17.3794 17.9919 21.5834 17.9919H32.9667C37.1707 17.9919 40.5501 21.6497 40.5501 26.2C40.5501 30.7503 37.0898 34.4081 32.9505 34.4081Z" fill="white"/>
</svg>
