<svg width="171" height="56" viewBox="0 0 171 56" fill="none" xmlns="http://www.w3.org/2000/svg">
<g clip-path="url(#clip0_183_357)">
<path d="M0 0.546875H5.14028V14.2543L6.16491 12.9372C11.8752 7.17327 21.0295 9.60291 23.9606 16.9649C28.6519 28.7487 17.4473 41.3538 6.39108 32.5925L5.14028 31.0447V34.7572C5.03976 34.9205 4.91297 34.9148 4.74619 34.9342C3.28635 35.1056 1.49639 34.7948 0 34.9285L0 0.546875ZM11.6273 14.7443C2.79631 15.6536 2.93453 29.7517 11.7096 30.4724C22.5818 31.3657 22.3614 13.6386 11.6273 14.7443Z" fill="white"/>
<path d="M171 31.3886V32.9878C170.576 33.9655 169.853 34.7469 168.743 34.8988C166.353 35.2266 164.673 32.516 166.142 30.5855C167.58 28.6973 170.167 29.2788 170.999 31.3874L171 31.3886ZM167.771 30.1583C165.118 30.6472 166.109 35.2084 169.058 34.186C171.425 33.3658 170.668 29.6249 167.771 30.1583Z" fill="white"/>
<path d="M113.646 25.2319L103.337 25.2147C102.542 27.144 100.982 28.4188 98.9274 28.8243C93.9505 29.8067 90.2883 25.4569 91.578 20.6753C93.0766 15.1226 101.134 14.7834 103.338 19.9694H113.581C114.409 16.4705 116.439 13.3772 119.561 11.5336C131.008 4.77468 143.774 17.5523 137.278 29.1373C131.592 39.282 115.705 36.6524 113.645 25.2296L113.646 25.2319ZM125.284 14.7445C115.767 15.7212 116.528 31.3225 126.963 30.4727C136.57 29.6902 135.744 13.6708 125.284 14.7445Z" fill="white"/>
<path d="M33.5833 25.2208C34.8946 29.6609 39.8647 31.701 44.0569 29.8117C45.0678 29.3559 45.8491 28.5666 46.6088 27.7887C46.7036 27.6916 46.7036 27.5042 46.7196 27.5042H52.5452C51.1037 31.7924 46.988 34.7795 42.5365 35.3723C32.128 36.7613 24.6529 25.9325 29.3705 16.6091C35.6097 4.27818 55.2958 9.63206 53.4453 24.3493C53.4099 24.628 53.3677 25.0312 53.1735 25.2197H33.5833V25.2208ZM33.8689 19.9663C38.5065 19.8772 43.1648 19.9663 47.8047 19.9663C47.8173 19.9663 48.0526 20.2473 47.9738 19.9115C47.8847 19.5311 47.3375 18.5133 47.1102 18.1478C43.761 12.7562 35.4726 13.9453 33.5856 19.9103C33.7649 20.1936 33.8209 19.9675 33.8689 19.9663Z" fill="white"/>
<path d="M76.419 14.2543V10.2563H81.5593V34.9297H76.419V31.0459C72.1857 37.1274 63.1468 36.8407 58.9627 30.854C56.1469 26.8252 55.7928 20.9298 57.7792 16.4624C61.2095 8.74965 71.4318 7.24411 76.4179 14.2543H76.419ZM68.0564 14.7444C59.1032 15.665 59.624 31.3943 69.8486 30.4725C79.2348 29.6272 78.5311 13.6672 68.0564 14.7444Z" fill="white"/>
<path d="M147.241 14.026C148.89 11.738 151.255 10.0303 154.154 9.80186C168.333 8.68242 163.335 25.9675 164.266 34.5357L164.089 34.9298H159.177L159.023 34.7482C159.167 34.3975 158.997 34.0937 158.999 33.7361C159.036 29.0025 159.422 23.8051 159.004 19.1115C158.628 14.8885 154.378 13.8398 150.897 15.2277C148.799 16.065 147.239 18.706 147.239 20.9368V34.7585L147.068 34.9298H142.156L141.985 34.7585V10.4278L142.156 10.2565H147.068L147.239 10.4278V14.026H147.241Z" fill="white"/>
<path d="M109.659 18.4808H107.889C105.484 12.502 98.7093 9.86679 92.8094 12.5397C84.6329 16.243 84.4856 28.6665 92.5627 32.5514C98.4511 35.3843 105.521 32.7936 107.889 26.7063H109.659C106.817 36.4443 93.5827 38.5644 87.4532 30.5787C82.7344 24.4309 84.4022 15.103 91.265 11.3403C98.1816 7.54909 107.436 10.7749 109.658 18.4819L109.659 18.4808Z" fill="#E29534"/>
<path d="M106.118 18.4804H104.177C102.452 15.1015 97.9853 14.03 94.5836 15.3414C90.1515 17.0491 88.5878 22.7502 90.9489 26.7402C93.832 31.6155 101.454 31.6703 104.178 26.7048H106.12C105.122 29.6873 101.716 31.9319 98.6353 32.1855C84.1911 33.3746 84.937 11.0041 99.1927 13.1265C102.132 13.564 105.146 15.6361 106.12 18.4792L106.118 18.4804Z" fill="#E29534"/>
<path d="M120.625 42.5829L117.03 55.2657C116.868 55.4302 115.239 55.5056 115.047 55.1869L112.286 44.5248L112.031 44.6699L109.263 55.2657L107.254 55.3262L103.72 42.5841C104.147 42.6617 105.189 42.391 105.415 42.7725L108.232 53.4358L111.312 42.5749L113.19 42.5943C114.259 46.0417 114.924 49.7096 115.939 53.1536C115.988 53.3204 115.873 53.3524 116.17 53.3215L118.913 42.5841H120.626L120.625 42.5829Z" fill="white"/>
<path d="M16.7919 45.3241V46.8079L17.7046 45.8358C19.3038 44.4891 22.3754 44.9608 22.9614 47.1506C23.7358 46.1557 24.4475 45.3058 25.7885 45.1242C31.4394 44.3611 29.4792 51.9025 29.7979 55.1877C29.6894 55.5178 28.5231 55.3693 28.2079 55.3248L28.1165 55.1877C27.9497 53.0825 28.2833 50.7682 28.1051 48.6881C27.9737 47.1529 27.1501 46.5612 25.64 46.6891C22.0966 46.9884 23.6856 52.9694 23.2538 55.2677L21.6968 55.3248C21.5803 55.2437 21.5986 55.1032 21.5849 54.9798C21.3519 53.0573 21.7642 50.6654 21.594 48.6881C21.4661 47.1997 20.7179 46.6057 19.2432 46.6891C15.5285 46.897 17.1905 52.9043 16.7428 55.2677C16.6297 55.4299 15.2806 55.4824 15.0796 55.2037V45.3229H16.793L16.7919 45.3241Z" fill="white"/>
<path d="M101.892 41.3262V55.2049C101.495 55.5545 100.8 55.3055 100.293 55.3763V53.5486C98.4672 56.1439 94.4863 56.2524 92.7067 53.5383C90.4666 50.1218 92.4074 44.7405 96.9217 45.098C98.3849 45.2134 99.4107 46.0621 100.293 47.1518V41.3262H101.892ZM96.0387 46.7246C92.5913 47.2341 92.4599 53.6948 96.4671 54.0044C101.54 54.395 101.651 45.8965 96.0387 46.7246Z" fill="white"/>
<path d="M33.6973 41.3262V47.1518L34.4433 46.2414C38.9576 42.7792 43.6661 47.6624 41.7801 52.5503C40.6858 55.3866 37.2761 56.4249 34.7825 54.6909L33.6973 53.5486V55.3763H32.0981V41.3262H33.6973ZM39.5972 47.6487C37.9215 45.8885 34.7996 46.5704 33.9555 48.8367C32.8463 51.8123 35.3891 55.0439 38.5224 53.7462C40.7384 52.829 41.1702 49.3005 39.5972 47.6487Z" fill="white"/>
<path d="M77.9038 41.3262V55.0907C77.9038 55.1341 78.1162 55.2563 77.8329 55.3626L76.4119 55.326L76.2486 53.6628C73.8007 56.9275 68.8466 55.7167 67.9979 51.7461C66.8304 46.2837 72.4927 42.6032 76.3046 47.0376V41.3262H77.9038ZM72.0484 46.7223C68.4251 47.3346 68.5656 54.4727 73.2661 53.993C77.7587 53.5349 77.2321 45.8462 72.0484 46.7223Z" fill="white"/>
<path d="M65.9096 41.3262V55.3763H64.3104V53.5486C62.1058 56.5551 57.5949 56.1062 56.2276 52.5503C54.4502 47.9286 58.4893 43.1504 63.111 45.8953L64.3104 47.1518V41.3262H65.9096ZM60.0542 46.7223C56.552 47.2661 56.5109 53.6754 60.4849 54.0044C65.6274 54.4305 65.64 45.8553 60.0542 46.7223Z" fill="white"/>
<path d="M89.7835 52.293C88.6504 56.2819 82.6557 56.6131 80.6258 53.1691C78.6862 49.8759 80.6304 45.3845 84.5873 45.0989C88.0929 44.8453 90.1616 47.4863 90.125 50.808H81.5579C81.8469 53.0572 83.4518 54.2566 85.7147 53.9939C86.6491 53.8853 87.7914 53.2422 88.0689 52.293H89.7824H89.7835ZM88.2985 49.3231C87.5709 45.6712 82.4512 45.7797 81.6733 49.3231H88.2985Z" fill="white"/>
<path d="M45.5774 50.8067C45.6448 53.6613 49.2098 54.9887 51.3436 53.3175C51.6155 53.1039 52.0895 52.4185 52.2038 52.35C52.5019 52.1695 53.4054 52.3603 53.8018 52.2929C53.4443 53.8509 51.6589 55.2936 50.078 55.4787C41.9255 56.4291 42.09 44.8155 49.2966 45.0908C51.5401 45.1764 53.2992 46.5792 53.8589 48.7518C53.9526 49.115 54.1799 50.2185 54.1491 50.5223C54.1388 50.624 54.0463 50.8067 53.9743 50.8067H45.5785H45.5774ZM52.3168 49.3218C51.6555 45.687 46.3861 45.7647 45.6916 49.3218H52.3168Z" fill="white"/>
<path d="M13.1361 42.582C13.0653 43.0892 13.3143 43.786 12.9648 44.1812H6.62508V48.065H12.6792V49.55H6.62508V53.7764H13.1361C13.0653 54.2836 13.3143 54.9804 12.9648 55.3756H5.02588V42.582H13.1361Z" fill="white"/>
<path d="M122.379 46.7352C127.383 41.3128 135.113 49.7554 129.59 54.3462C124.531 58.551 118.041 51.4357 122.379 46.7352ZM123.757 53.0406C126.669 55.6861 130.898 52.6043 129.477 48.8667C128.335 45.8648 123.869 45.9413 122.879 49.0049C122.453 50.322 122.708 52.0868 123.757 53.0406Z" fill="white"/>
<path d="M142.671 41.3262V49.5506L143.015 49.3804C143.585 48.9475 147.113 45.3242 147.412 45.3242H149.411L144.378 50.0624L149.868 55.3763H147.983L142.671 50.6929V55.3763H141.072V41.3262H142.671Z" fill="white"/>
<path d="M157.521 48.0653C157.36 47.3068 156.493 46.7779 155.751 46.6945C154.687 46.5746 152.138 46.666 152.519 48.3268C152.64 48.8569 153.41 48.9996 153.866 49.1504C155.463 49.6782 158.918 49.9409 159.298 51.9422C160.204 56.7238 150.468 56.6747 150.324 52.0644L151.851 52.0792C152.027 52.1398 152.174 52.7406 152.331 52.9702C153.458 54.6288 158.296 54.2953 157.584 52.1706C157.464 51.8119 156.903 51.5972 156.57 51.4727C154.887 50.8433 150.913 50.7005 150.78 48.3474C150.538 44.1084 158.717 43.9724 159.119 48.0664H157.52L157.521 48.0653Z" fill="white"/>
<path d="M135.132 47.267L135.593 46.5279C136.517 45.3662 137.781 44.9778 139.246 45.0966L139.33 46.6444C139.155 46.9814 138.783 46.7175 138.523 46.7392C137.122 46.8603 136.041 47.3412 135.491 48.7097C135.406 48.9199 135.133 49.7926 135.133 49.9513V55.3772H133.534V45.3251H135.133V47.267H135.132Z" fill="white"/>
<path d="M168.887 30.8167C169.659 30.9812 169.761 32.3462 168.945 32.5861L169.629 33.6724C168.661 33.9169 168.693 33.1516 168.086 32.6455C167.741 32.5062 168.002 33.5902 167.916 33.6736L167.23 33.5022V30.8179C167.718 30.8875 168.438 30.7219 168.887 30.8179V30.8167ZM168.83 31.5021H167.915V32.0732L168.722 32.023L168.83 31.5021Z" fill="white"/>
</g>
<defs>
<clipPath id="clip0_183_357">
<rect width="171" height="55.0775" fill="white" transform="translate(0 0.546875)"/>
</clipPath>
</defs>
</svg>
