<svg width="125" height="34" viewBox="0 0 125 34" fill="none" xmlns="http://www.w3.org/2000/svg">
<mask id="mask0_10_2379" style="mask-type:luminance" maskUnits="userSpaceOnUse" x="3" y="3" width="120" height="29">
<path d="M123 3H3V32H123V3Z" fill="white"/>
</mask>
<g mask="url(#mask0_10_2379)">
<path d="M27.72 14C27.6973 13.8198 27.7133 13.6369 27.7667 13.4634C27.8202 13.2899 27.91 13.1297 28.0301 12.9935C28.1502 12.8574 28.2979 12.7483 28.4634 12.6736C28.6289 12.5989 28.8084 12.5603 28.99 12.5603C29.1716 12.5603 29.3511 12.5989 29.5166 12.6736C29.6821 12.7483 29.8298 12.8574 29.9499 12.9935C30.07 13.1297 30.1598 13.2899 30.2132 13.4634C30.2667 13.6369 30.2826 13.8198 30.26 14V17.46C30.9313 16.8863 31.7869 16.5738 32.67 16.58C35.4 16.58 36.76 19.13 36.76 21.58C36.76 24.03 35.14 26.35 32.58 26.35C32.1276 26.3633 31.6789 26.2643 31.274 26.0619C30.8692 25.8595 30.5208 25.5599 30.26 25.19C30.2296 25.4985 30.0819 25.7836 29.8475 25.9864C29.613 26.1892 29.3097 26.2943 29 26.28C28.8217 26.278 28.6457 26.2391 28.4832 26.1656C28.3207 26.0922 28.1752 25.9859 28.0559 25.8534C27.9365 25.7209 27.846 25.5651 27.7899 25.3959C27.7338 25.2266 27.7134 25.0475 27.73 24.87L27.72 14ZM32.25 24C33.57 24 34.25 22.62 34.25 21.44C34.25 20.26 33.6 18.85 32.25 18.85C30.9 18.85 30.25 20.12 30.25 21.35C30.25 22.58 30.86 24.06 32.25 24.06V24Z" fill="white" stroke="#231F20" stroke-width="0.614478"/>
<path d="M39.6201 22.33C39.7068 22.8819 40.002 23.3794 40.4449 23.72C40.8878 24.0605 41.4445 24.218 42.0001 24.16C43.3101 24.16 44.2001 23.16 44.8701 23.16C45.14 23.1911 45.3896 23.3184 45.5732 23.5186C45.7569 23.7188 45.8623 23.9784 45.8701 24.25C45.8701 25.35 43.6201 26.4 41.7301 26.4C41.0899 26.4164 40.4533 26.2996 39.8607 26.0569C39.268 25.8142 38.7323 25.4509 38.2875 24.9902C37.8428 24.5294 37.4986 23.9812 37.277 23.3804C37.0554 22.7795 36.9611 22.1392 37.0001 21.5C36.944 20.8816 37.0148 20.2583 37.2082 19.6683C37.4015 19.0783 37.7133 18.534 38.1244 18.0687C38.5356 17.6034 39.0374 17.227 39.5991 16.9626C40.1609 16.6981 40.7707 16.5511 41.3912 16.5307C42.0118 16.5102 42.63 16.6167 43.2079 16.8436C43.7859 17.0705 44.3114 17.413 44.7523 17.8502C45.1931 18.2874 45.5401 18.81 45.7719 19.386C46.0036 19.962 46.1153 20.5793 46.1001 21.2C46.1001 21.96 45.7701 22.33 44.9901 22.33H39.6201ZM43.6201 20.64C43.6045 20.12 43.3869 19.6266 43.0135 19.2644C42.6401 18.9022 42.1403 18.6997 41.6201 18.7C41.0999 18.6997 40.6001 18.9022 40.2267 19.2644C39.8533 19.6266 39.6357 20.12 39.6201 20.64H43.6201Z" fill="white" stroke="#231F20" stroke-width="0.614478"/>
<path d="M55.53 24.62C55.53 25.27 55.53 26.28 54.31 26.28C53.57 26.28 53.31 25.87 53.09 25.2C52.8074 25.5703 52.4426 25.8696 52.0243 26.0745C51.606 26.2793 51.1457 26.3839 50.68 26.38C48.3 26.38 46.49 24.38 46.49 21.5C46.49 18.62 48.35 16.59 50.68 16.59C51.1453 16.5757 51.6072 16.6737 52.0267 16.8756C52.4462 17.0775 52.8109 17.3774 53.09 17.75C53.1269 17.454 53.2719 17.1821 53.4971 16.9864C53.7222 16.7908 54.0117 16.6852 54.31 16.69C55.53 16.69 55.53 17.69 55.53 18.35V24.62ZM51 24.06C52.32 24.06 53 22.72 53 21.5C53 20.28 52.38 18.91 51 18.91C49.62 18.91 49 20.29 49 21.5C49 22.71 49.66 24.06 51 24.06Z" fill="white" stroke="#231F20" stroke-width="0.614478"/>
<path d="M65.1101 25.4301C65.1101 28.4801 63.1101 30.01 60.2301 30.01C59.2301 30.01 56.2301 29.5001 56.2301 28.1101C56.2518 27.841 56.3615 27.5864 56.5423 27.3858C56.723 27.1852 56.9647 27.0497 57.2301 27.0001C58.0401 27.0001 58.9401 27.7901 60.4001 27.7901C60.6751 27.8108 60.9514 27.7744 61.2116 27.6832C61.4718 27.592 61.7104 27.4478 61.9123 27.26C62.1142 27.0722 62.2751 26.8447 62.3849 26.5918C62.4946 26.3388 62.5509 26.0658 62.5501 25.7901V25.2001C62.2592 25.5961 61.8728 25.9118 61.427 26.1182C60.9811 26.3245 60.4902 26.4147 60.0001 26.3801C57.3401 26.3801 56.0901 24.0401 56.0901 21.5201C56.0901 19.0001 57.7101 16.5901 60.2701 16.5901C60.7225 16.5768 61.1712 16.6757 61.5761 16.8781C61.9809 17.0805 62.3293 17.3802 62.5901 17.7501C62.6299 17.4462 62.7827 17.1684 63.018 16.972C63.2533 16.7756 63.554 16.6749 63.8601 16.6901C64.0384 16.6921 64.2144 16.731 64.3769 16.8044C64.5394 16.8779 64.6849 16.9842 64.8042 17.1167C64.9235 17.2492 65.0141 17.405 65.0702 17.5742C65.1263 17.7435 65.1467 17.9225 65.1301 18.1001L65.1101 25.4301ZM60.5801 18.9101C59.2601 18.9101 58.5801 20.29 58.5801 21.47C58.5801 22.82 59.2301 24.0601 60.5801 24.0601C61.9301 24.0601 62.5801 22.79 62.5801 21.56C62.5801 20.33 62.0001 18.9101 60.5801 18.9101Z" fill="white" stroke="#231F20" stroke-width="0.614478"/>
<path d="M65.91 14C65.8944 13.8244 65.9155 13.6475 65.9719 13.4806C66.0284 13.3136 66.119 13.1602 66.238 13.0301C66.357 12.9001 66.5018 12.7962 66.6631 12.7252C66.8244 12.6541 66.9987 12.6174 67.175 12.6174C67.3513 12.6174 67.5256 12.6541 67.6869 12.7252C67.8482 12.7962 67.993 12.9001 68.112 13.0301C68.231 13.1602 68.3216 13.3136 68.3781 13.4806C68.4345 13.6475 68.4556 13.8244 68.44 14V24.87C68.4556 25.0456 68.4345 25.2225 68.3781 25.3895C68.3216 25.5565 68.231 25.7098 68.112 25.8399C67.993 25.9699 67.8482 26.0738 67.6869 26.1449C67.5256 26.2159 67.3513 26.2526 67.175 26.2526C66.9987 26.2526 66.8244 26.2159 66.6631 26.1449C66.5018 26.0738 66.357 25.9699 66.238 25.8399C66.119 25.7098 66.0284 25.5565 65.9719 25.3895C65.9155 25.2225 65.8944 25.0456 65.91 24.87V14Z" fill="white" stroke="#231F20" stroke-width="0.614478"/>
<path d="M71.7201 22.33C71.8114 22.8836 72.1107 23.3813 72.5568 23.7215C73.0029 24.0616 73.5621 24.2185 74.1201 24.16C75.4201 24.16 76.3201 23.16 76.9901 23.16C77.26 23.1912 77.5096 23.3185 77.6932 23.5187C77.8769 23.7188 77.9823 23.9785 77.9901 24.25C77.9901 25.35 75.7301 26.4 73.8501 26.4C73.2092 26.4205 72.5711 26.3073 71.9763 26.0677C71.3815 25.8281 70.8431 25.4673 70.3954 25.0083C69.9477 24.5493 69.6004 24.0021 69.3757 23.4015C69.1509 22.801 69.0537 22.1602 69.0901 21.52C69.0496 20.9098 69.1323 20.2976 69.3333 19.7199C69.5342 19.1423 69.8493 18.6109 70.2598 18.1576C70.6704 17.7042 71.1679 17.338 71.7228 17.0809C72.2777 16.8237 72.8787 16.6808 73.49 16.6607C74.1013 16.6405 74.7104 16.7436 75.281 16.9637C75.8517 17.1838 76.3722 17.5164 76.8116 17.9418C77.2511 18.3672 77.6005 18.8766 77.839 19.4398C78.0775 20.003 78.2003 20.6084 78.2001 21.22C78.2001 21.98 77.8601 22.35 77.0901 22.35L71.7201 22.33ZM75.7201 20.64C75.7045 20.1201 75.4869 19.6266 75.1135 19.2644C74.7401 18.9022 74.2403 18.6998 73.7201 18.7C73.1999 18.6998 72.7001 18.9022 72.3267 19.2644C71.9533 19.6266 71.7357 20.1201 71.7201 20.64H75.7201Z" fill="white" stroke="#231F20" stroke-width="0.614478"/>
<path d="M79.23 14C79.2144 13.8244 79.2355 13.6475 79.292 13.4806C79.3484 13.3136 79.439 13.1602 79.558 13.0301C79.677 12.9001 79.8218 12.7962 79.9831 12.7252C80.1444 12.6541 80.3187 12.6174 80.495 12.6174C80.6713 12.6174 80.8456 12.6541 81.0069 12.7252C81.1683 12.7962 81.313 12.9001 81.432 13.0301C81.551 13.1602 81.6416 13.3136 81.6981 13.4806C81.7545 13.6475 81.7756 13.8244 81.76 14V17.46C82.4353 16.8864 83.294 16.5741 84.18 16.58C86.91 16.58 88.26 19.13 88.26 21.58C88.26 24.03 86.64 26.35 84.09 26.35C83.6363 26.3623 83.1866 26.263 82.7803 26.0607C82.374 25.8585 82.0236 25.5595 81.76 25.19C81.7224 25.4949 81.5703 25.7741 81.3344 25.9709C81.0986 26.1678 80.7967 26.2676 80.49 26.25C80.3121 26.2482 80.1365 26.2092 79.9745 26.1357C79.8124 26.0622 79.6675 25.9557 79.5489 25.823C79.4304 25.6903 79.3408 25.5344 79.2859 25.3651C79.231 25.1959 79.2119 25.017 79.23 24.84V14ZM83.75 24.06C85.08 24.06 85.75 22.62 85.75 21.44C85.75 20.26 85.1 18.85 83.75 18.85C82.4 18.85 81.75 20.12 81.75 21.35C81.75 22.58 82.36 24.06 83.75 24.06Z" fill="white" stroke="#231F20" stroke-width="0.614478"/>
<path d="M97.8802 21.5C97.9312 22.1279 97.8516 22.7596 97.6464 23.3552C97.4412 23.9508 97.1147 24.4974 96.6877 24.9605C96.2607 25.4237 95.7423 25.7934 95.1653 26.0462C94.5883 26.299 93.9652 26.4296 93.3352 26.4296C92.7052 26.4296 92.0821 26.299 91.5051 26.0462C90.9281 25.7934 90.4097 25.4237 89.9827 24.9605C89.5556 24.4974 89.2292 23.9508 89.024 23.3552C88.8187 22.7596 88.7391 22.1279 88.7902 21.5C88.7391 20.8721 88.8187 20.2404 89.024 19.6448C89.2292 19.0492 89.5556 18.5026 89.9827 18.0394C90.4097 17.5763 90.9281 17.2066 91.5051 16.9538C92.0821 16.701 92.7052 16.5704 93.3352 16.5704C93.9652 16.5704 94.5883 16.701 95.1653 16.9538C95.7423 17.2066 96.2607 17.5763 96.6877 18.0394C97.1147 18.5026 97.4412 19.0492 97.6464 19.6448C97.8516 20.2404 97.9312 20.8721 97.8802 21.5ZM91.3302 21.5C91.3302 22.72 91.9602 24.06 93.3302 24.06C94.7002 24.06 95.3302 22.72 95.3302 21.5C95.3302 20.28 94.7102 18.91 93.3302 18.91C91.9502 18.91 91.3302 20.29 91.3302 21.5Z" fill="white" stroke="#231F20" stroke-width="0.614478"/>
<path d="M107.45 24.6199C107.45 25.2699 107.45 26.2799 106.24 26.2799C105.5 26.2799 105.24 25.8699 105.02 25.1999C104.737 25.5702 104.373 25.8696 103.954 26.0744C103.536 26.2792 103.076 26.3838 102.61 26.3799C100.23 26.3799 98.4102 24.3799 98.4102 21.4999C98.4102 18.6199 100.28 16.5899 102.61 16.5899C103.072 16.5788 103.53 16.6784 103.946 16.8801C104.361 17.0819 104.723 17.3801 105 17.7499C105.037 17.4539 105.182 17.182 105.407 16.9864C105.632 16.7907 105.922 16.6851 106.22 16.6899C107.43 16.6899 107.43 17.6899 107.43 18.3499L107.45 24.6199ZM103 24.0599C104.32 24.0599 105 22.7199 105 21.4999C105 20.2799 104.39 18.9099 103 18.9099C101.61 18.9099 101 20.2899 101 21.4999C101 22.7099 101.58 24.0599 103 24.0599Z" fill="white" stroke="#231F20" stroke-width="0.614478"/>
<path d="M108.16 18C108.157 17.8299 108.189 17.661 108.254 17.5036C108.318 17.3463 108.415 17.2038 108.536 17.0849C108.658 16.966 108.803 16.8732 108.962 16.8121C109.12 16.7511 109.29 16.7232 109.46 16.73C110.13 16.73 110.7 16.98 110.7 17.79C110.872 17.4676 111.128 17.1984 111.442 17.0116C111.756 16.8247 112.115 16.7273 112.48 16.73C112.653 16.729 112.824 16.7646 112.983 16.8344C113.141 16.9042 113.283 17.0066 113.399 17.1349C113.515 17.2633 113.603 17.4147 113.656 17.5793C113.71 17.7439 113.728 17.9179 113.71 18.09C113.71 18.92 112.96 18.97 112.2 19.32C111.44 19.67 110.7 20 110.7 21V24.9C110.723 25.0802 110.707 25.2631 110.653 25.4366C110.6 25.6101 110.51 25.7703 110.39 25.9065C110.27 26.0426 110.122 26.1517 109.957 26.2264C109.791 26.3011 109.612 26.3397 109.43 26.3397C109.248 26.3397 109.069 26.3011 108.903 26.2264C108.738 26.1517 108.59 26.0426 108.47 25.9065C108.35 25.7703 108.26 25.6101 108.207 25.4366C108.153 25.2631 108.137 25.0802 108.16 24.9V18Z" fill="white" stroke="#231F20" stroke-width="0.614478"/>
<path d="M122.59 24.87C122.607 25.0475 122.586 25.2266 122.53 25.3959C122.474 25.5651 122.383 25.7209 122.264 25.8534C122.145 25.9859 121.999 26.0922 121.837 26.1656C121.674 26.2391 121.498 26.278 121.32 26.28C121.013 26.2975 120.711 26.1978 120.476 26.0009C120.24 25.8041 120.088 25.5249 120.05 25.22C119.788 25.5907 119.437 25.8907 119.031 26.0931C118.624 26.2955 118.174 26.3941 117.72 26.38C115.17 26.38 113.55 24 113.55 21.61C113.55 19.22 114.91 16.61 117.64 16.61C118.523 16.6038 119.379 16.9163 120.05 17.49V14C120.027 13.8198 120.043 13.6369 120.097 13.4634C120.15 13.2899 120.24 13.1297 120.36 12.9935C120.48 12.8574 120.628 12.7483 120.793 12.6736C120.959 12.5989 121.138 12.5603 121.32 12.5603C121.502 12.5603 121.681 12.5989 121.847 12.6736C122.012 12.7483 122.16 12.8574 122.28 12.9935C122.4 13.1297 122.49 13.2899 122.543 13.4634C122.597 13.6369 122.613 13.8198 122.59 14V24.87ZM118.06 18.87C116.74 18.87 116.06 20.26 116.06 21.46C116.06 22.66 116.71 24.02 118.06 24.02C119.41 24.02 120.06 22.61 120.06 21.37C120.06 20.13 119.42 18.91 118.06 18.91V18.87Z" fill="white" stroke="#231F20" stroke-width="0.614478"/>
<path d="M23.6801 14.38C24.1601 11.78 21.9301 9.70001 18.5401 8.54001C17.6201 5.31001 15.5401 3.40001 12.5401 3.40001C11.7405 3.38381 10.946 3.53061 10.205 3.83151C9.464 4.13241 8.79204 4.58101 8.23008 5.15001C6.00008 5.29001 6.00008 7.94001 4.00008 11.72C2.47008 14.72 3.67008 17.72 7.38008 18.22C6.79283 19.6343 6.48385 21.1487 6.47008 22.68C4.59008 20.53 5.11008 18.3 4.06008 18.36C2.74008 18.43 4.42008 23.1 6.76008 25.7C6.84785 26.1406 6.96477 26.5749 7.11008 27C6.65619 27.1504 6.25621 27.4303 5.95947 27.8052C5.66272 28.1801 5.48217 28.6337 5.44008 29.11C5.44008 30.22 6.20008 30.33 7.19008 30.34C7.15873 30.4677 7.14196 30.5985 7.14008 30.73C7.13498 30.8738 7.16404 31.0167 7.22488 31.1471C7.28572 31.2775 7.3766 31.3916 7.49008 31.48C7.81678 31.6926 8.20045 31.8007 8.59008 31.79H8.81008C9.60678 31.8248 10.3878 31.5609 11.0001 31.05C11.195 30.8799 11.3526 30.6712 11.4627 30.4371C11.5729 30.203 11.6333 29.9486 11.6401 29.69C11.6511 29.5836 11.6511 29.4764 11.6401 29.37C11.6368 29.3101 11.6368 29.25 11.6401 29.19C12.4818 29.1149 13.3284 29.1149 14.1701 29.19C14.1738 29.2566 14.1738 29.3234 14.1701 29.39C14.1598 29.4864 14.1598 29.5836 14.1701 29.68C14.1696 29.9255 14.218 30.1687 14.3124 30.3953C14.4068 30.6219 14.5454 30.8275 14.7201 31C15.3626 31.5108 16.1707 31.7671 16.9901 31.72H17.2101C17.5877 31.7319 17.9602 31.6309 18.2801 31.43C18.392 31.3447 18.4821 31.234 18.5429 31.1071C18.6037 30.9802 18.6336 30.8407 18.6301 30.7C18.6305 30.5546 18.6103 30.4098 18.5701 30.27C19.5701 30.27 20.3601 30.17 20.3601 29.04C20.3051 28.5762 20.1188 28.1377 19.8229 27.7762C19.527 27.4148 19.134 27.1455 18.6901 27C19.553 24.2954 19.5002 21.3817 18.5401 18.71H18.4801C19.4064 18.5258 20.2954 18.1878 21.1101 17.71C21.4401 18.24 21.7601 18.76 22.5301 18.65C23.6701 18.49 24.1601 16.77 23.1701 15.76C23.4239 15.3355 23.5969 14.8676 23.6801 14.38Z" fill="white" stroke="#231F20" stroke-width="0.70226"/>
<path d="M23.85 14.21C24.33 11.61 22.1 9.52999 18.71 8.36999C17.8 5.13999 15.71 3.21999 12.71 3.21999C11.9083 3.20829 11.1127 3.36009 10.3717 3.66609C9.63062 3.97219 8.95974 4.42599 8.39997 4.99999C6.14997 5.13999 6.13997 7.77999 4.17997 11.56C2.63997 14.56 3.84997 17.56 7.54997 18.07C6.96716 19.4818 6.6616 20.9926 6.64997 22.52C4.76997 20.37 5.27997 18.15 4.22997 18.2C2.91997 18.28 4.59997 22.94 6.93997 25.55C7.03213 25.9754 7.14561 26.3959 7.27997 26.81C6.82686 26.9586 6.42721 27.2366 6.13041 27.6098C5.83362 27.9831 5.65268 28.4351 5.60997 28.91C5.60997 30.03 6.37997 30.13 7.36997 30.14C7.35535 30.2696 7.35535 30.4004 7.36997 30.53C7.36241 30.6755 7.39031 30.8208 7.45128 30.9531C7.51225 31.0855 7.60445 31.2011 7.71997 31.29C8.04728 31.5002 8.43124 31.605 8.81997 31.59H8.99997C9.80279 31.6398 10.5951 31.3864 11.22 30.88C11.4136 30.7094 11.5696 30.5004 11.6781 30.2663C11.7865 30.0321 11.8451 29.778 11.85 29.52C11.8603 29.4136 11.8603 29.3064 11.85 29.2C11.85 29.2 11.85 29.1 11.85 29.02C12.6952 28.95 13.5448 28.95 14.39 29.02C14.394 29.0833 14.394 29.1467 14.39 29.21C14.3749 29.3094 14.3749 29.4106 14.39 29.51C14.3998 29.7725 14.4644 30.03 14.5798 30.266C14.6952 30.5019 14.8588 30.7111 15.06 30.88C15.7016 31.3924 16.5103 31.649 17.33 31.6H17.54C17.9207 31.612 18.2965 31.5111 18.62 31.31C18.7313 31.2241 18.8209 31.1133 18.8817 30.9866C18.9425 30.8598 18.9727 30.7206 18.97 30.58C18.9606 30.4347 18.9371 30.2907 18.9 30.15C19.9 30.15 20.7 30.05 20.7 28.92C20.6573 28.4451 20.4764 27.9931 20.1796 27.6198C19.8828 27.2466 19.4831 26.9686 19.03 26.82C19.8833 24.1105 19.8306 21.1968 18.88 18.52H18.82C19.7437 18.3266 20.6312 17.9891 21.45 17.52C21.78 18.05 22.1 18.57 22.86 18.46C24.01 18.29 24.49 16.58 23.51 15.57C23.7011 15.1397 23.8162 14.6796 23.85 14.21Z" fill="white" stroke="#231F20" stroke-width="0.438913"/>
<path d="M18.8701 26.79C19.2201 26.61 20.6201 27.31 20.5401 28.89C20.4601 30.47 18.5401 30.12 18.5401 30.12L17.6601 28.12C17.6601 28.12 17.3101 24.26 17.4001 22.24C17.4089 20.974 16.9372 19.7518 16.0801 18.82C16.5443 18.7593 17.0119 18.7292 17.4801 18.73C17.9106 18.7417 18.339 18.6669 18.7401 18.51C18.7401 18.51 19.4201 19.35 19.5001 22.15C19.5801 24.95 18.5201 27 18.8701 26.79Z" fill="#A97F2C"/>
<path d="M16.94 4.99999C17.7215 6.09949 18.3631 7.29198 18.85 8.54998C17.8406 8.46008 16.8705 8.11609 16.03 7.54999C15.54 7.10999 13.27 3.35999 13.27 3.35999C14.613 3.58539 15.8762 4.14989 16.94 4.99999Z" fill="#A97F2C"/>
<path d="M12.71 3.21997C12.71 3.21997 15.44 7.32997 15.41 8.80997C15.36 11 11.59 10.47 14 16.43C14.62 17.92 13.21 19.15 11.19 18.8C10.27 18.64 8.56003 19.06 8.56003 21.8C8.56003 24.54 8.38003 28.12 8.38003 28.12L7.59003 30.12C7.59003 30.12 5.66003 30.39 5.66003 29.25C5.66003 28.11 6.19003 27.75 6.98003 27.14C7.77003 26.53 6.90003 25.53 6.90003 25.53C5.86816 24.0871 4.9392 22.5734 4.12003 21C4.03003 20.39 5.12003 19.6 5.12003 19.6C5.56709 20.5986 6.07815 21.5672 6.65003 22.5C6.93003 22.75 6.84003 19.06 7.37003 18.5C7.90003 17.94 8.16003 5.23997 8.16003 5.23997C8.16003 5.23997 8.58003 3.78997 12.71 3.21997Z" fill="#A97F2C"/>
<path d="M12 14.15C8.45998 14.78 6.69998 18.6 6.62998 22.5C4.74998 20.35 5.25998 18.13 4.20998 18.18C2.89998 18.26 4.57998 22.92 6.91998 25.53C7.01215 25.9555 7.12563 26.376 7.25998 26.79C6.80687 26.9386 6.40722 27.2167 6.11043 27.5899C5.81363 27.9631 5.6327 28.4151 5.58998 28.89C5.58998 30.11 6.49998 30.12 7.58998 30.12C7.85343 30.121 8.11432 30.0683 8.35673 29.9651C8.59915 29.862 8.81801 29.7105 8.99998 29.52C11.6506 28.7649 14.4594 28.7649 17.11 29.52C17.2897 29.7081 17.5053 29.8581 17.7441 29.9612C17.9829 30.0643 18.2399 30.1183 18.5 30.12C19.61 30.12 20.5 30.12 20.5 28.89C20.4573 28.4151 20.2764 27.9631 19.9796 27.5899C19.6828 27.2167 19.2831 26.9386 18.83 26.79C19.6833 24.0806 19.6306 21.1669 18.68 18.49" stroke="#231F20" stroke-width="0.438913"/>
<path d="M8.69014 21.4299C8.69014 21.4299 8.60014 27.1399 8.42014 28.0999C8.24014 29.0599 6.32014 31.2599 8.77014 31.3499C11.2202 31.4399 11.7702 29.9499 11.5802 29.2499C11.3902 28.5499 11.2302 23.2499 11.2302 23.2499" fill="white"/>
<path d="M9.00006 31.5699H8.77006C8.38133 31.5849 7.99737 31.4801 7.67006 31.2699C7.55454 31.181 7.46234 31.0654 7.40137 30.933C7.3404 30.8007 7.3125 30.6554 7.32006 30.5099C7.36273 30.0352 7.50589 29.575 7.74006 29.1599C7.93297 28.8098 8.09042 28.4413 8.21006 28.0599C8.27079 27.5887 8.30751 27.1148 8.32006 26.6399C8.32006 25.9799 8.38006 25.1699 8.40006 24.3999C8.40006 22.8499 8.47006 23.2699 8.47006 22.6199C8.47552 22.2136 8.54991 21.8113 8.69006 21.4299C8.84795 21.8097 8.92295 22.2188 8.91006 22.6299C8.91006 23.1899 8.91006 24.6299 8.76006 26.6299C8.76006 27.2999 8.69006 27.8299 8.64006 28.0999C8.51546 28.5194 8.34791 28.9248 8.14006 29.3099C7.93225 29.6651 7.80269 30.0606 7.76006 30.4699C7.75166 30.548 7.76386 30.6269 7.79544 30.6989C7.82702 30.7708 7.87688 30.8332 7.94006 30.8799C8.19083 31.0369 8.4849 31.1104 8.78006 31.0899H9.00006C9.6931 31.1416 10.3798 30.927 10.9201 30.4899C11.0658 30.3656 11.1845 30.2127 11.2688 30.0407C11.3531 29.8687 11.4012 29.6812 11.4101 29.4899C11.421 29.4203 11.421 29.3495 11.4101 29.2799C11.3275 28.8571 11.2708 28.4296 11.2401 27.9999C11.1901 27.4099 11.1601 26.6799 11.1201 25.9999C11.0601 24.5899 11.1201 24.9199 11.1201 24.3499C11.1246 23.9843 11.1784 23.621 11.2801 23.2699C11.4502 23.655 11.5452 24.0691 11.5601 24.4899C11.5601 25.1199 11.5601 23.9999 11.5601 24.9599C11.5601 25.9599 11.6501 27.1099 11.7101 27.9599C11.7263 28.3591 11.7698 28.7566 11.8401 29.1499C11.8504 29.2563 11.8504 29.3635 11.8401 29.4699C11.8352 29.7279 11.7766 29.982 11.6682 30.2162C11.5597 30.4503 11.4037 30.6593 11.2101 30.8299C10.5936 31.3483 9.80473 31.616 9.00006 31.5799V31.5699Z" fill="#231F20"/>
<path d="M17.3802 21.4299C17.3802 21.4299 17.4602 27.1399 17.6402 28.0999C17.8202 29.0599 19.8302 31.2599 17.3802 31.3499C14.9302 31.4399 14.3002 29.9499 14.4802 29.2499C14.6602 28.5499 14.8302 23.2499 14.8302 23.2499" fill="white"/>
<path d="M14.9001 30.86C14.6989 30.6911 14.5353 30.4819 14.4199 30.246C14.3045 30.01 14.2399 29.7525 14.2301 29.49C14.215 29.3905 14.215 29.2894 14.2301 29.19C14.2301 29.06 14.3101 28.59 14.3501 28C14.3501 27.41 14.4301 26.69 14.4601 26C14.5301 24.59 14.5701 24.81 14.5701 24.3C14.5881 23.9513 14.6802 23.6104 14.8401 23.3C14.9467 23.6229 15.0041 23.96 15.0101 24.3C15.0101 24.87 14.9101 26.25 14.7901 28.03C14.7706 28.4559 14.7238 28.8801 14.6501 29.3C14.6441 29.3632 14.6441 29.4268 14.6501 29.49C14.6639 29.6833 14.7172 29.8718 14.8066 30.0438C14.8961 30.2158 15.0198 30.3676 15.1701 30.49C15.7386 30.9332 16.451 31.1505 17.1701 31.1H17.3701C17.6573 31.1167 17.9429 31.0471 18.1901 30.9C18.2494 30.8567 18.297 30.7992 18.3284 30.7329C18.3599 30.6665 18.3742 30.5933 18.3701 30.52C18.3209 30.1166 18.1953 29.7263 18.0001 29.37C17.7746 28.9815 17.5935 28.5689 17.4601 28.14C17.4601 27.87 17.3801 27.34 17.3501 26.66C17.3501 25.99 17.2901 25.19 17.2601 24.41C17.2601 22.86 17.2001 22.69 17.2001 22.14C17.2043 21.772 17.231 21.4047 17.2801 21.04C17.4746 21.3779 17.5972 21.7524 17.6401 22.14C17.6401 22.62 17.6401 22.23 17.6401 23.28C17.6401 24.34 17.7001 25.64 17.7501 26.64C17.7501 27.31 17.8301 27.85 17.8701 28.06C17.9847 28.4496 18.1494 28.8228 18.3601 29.17C18.6065 29.5935 18.7631 30.0633 18.8201 30.55C18.8228 30.6905 18.7926 30.8298 18.7318 30.9566C18.671 31.0833 18.5814 31.1941 18.4701 31.28C18.1466 31.4811 17.7708 31.582 17.3901 31.57H17.1801C16.3604 31.619 15.5517 31.3624 14.9101 30.85L14.9001 30.86Z" fill="#231F20"/>
<path d="M14.15 18.46C18.92 19.33 23.26 17.46 23.85 14.21C24.33 11.61 22.1 9.52997 18.71 8.36997C17.8 5.13997 15.71 3.21997 12.71 3.21997C9.70999 3.21997 7.23999 5.21997 7.23999 7.77997" stroke="#231F20" stroke-width="0.438913"/>
<path d="M24.1 11.76C24.1247 12.23 23.9633 12.6907 23.6507 13.0426C23.3382 13.3945 22.8996 13.6091 22.43 13.64C21.9753 13.7645 21.49 13.7067 21.0772 13.4788C20.6645 13.251 20.3569 12.8711 20.22 12.42C20.2006 11.9497 20.3652 11.4903 20.6788 11.1394C20.9925 10.7884 21.4305 10.5734 21.9 10.54C22.3535 10.4131 22.8387 10.47 23.2505 10.6983C23.6623 10.9267 23.9675 11.3081 24.1 11.76Z" fill="#231F20" stroke="#231F20" stroke-width="0.35113"/>
<path d="M12.0001 11.49C13.9201 16.58 11.0001 18.11 8.55007 18.11C4.04007 18.11 2.47007 14.76 4.14007 11.54C6.19007 7.66 6.15007 5 8.59007 5C11.0301 5 10.7601 8.1 12.0001 11.49Z" fill="#A97F2C"/>
<path d="M12.0001 11.49C13.9201 16.58 11.0001 18.11 8.55007 18.11C4.04007 18.11 2.47007 14.76 4.14007 11.54C6.19007 7.66 6.15007 5 8.59007 5C11.0301 5 10.7601 8.1 12.0001 11.49Z" stroke="black" stroke-width="0.438913"/>
<path d="M23.3001 10.83C23.3801 11.04 22.8801 11.44 22.1801 11.7C21.4801 11.96 20.8401 12.01 20.7601 11.79C20.6801 11.57 21.1801 11.18 21.8801 10.92C22.5801 10.66 23.2201 10.61 23.3001 10.83Z" fill="white"/>
<path d="M13.01 8.75999C13.5789 8.75999 14.04 8.44659 14.04 8.05999C14.04 7.67339 13.5789 7.35999 13.01 7.35999C12.4412 7.35999 11.98 7.67339 11.98 8.05999C11.98 8.44659 12.4412 8.75999 13.01 8.75999Z" fill="#231F20" stroke="#231F20" stroke-width="0.35113"/>
<path d="M18.5002 7.34998C18.5055 7.45378 18.4879 7.55748 18.4486 7.65368C18.4094 7.74998 18.3495 7.83638 18.2732 7.90698C18.1969 7.97758 18.1061 8.03058 18.0071 8.06218C17.908 8.09378 17.8033 8.10328 17.7002 8.08998C17.1402 8.08998 16.7002 7.75998 16.7002 7.34998C16.7002 6.93998 17.1602 6.60998 17.7002 6.60998C17.8033 6.59668 17.908 6.60608 18.0071 6.63778C18.1061 6.66938 18.1969 6.72228 18.2732 6.79288C18.3495 6.86348 18.4094 6.94998 18.4486 7.04618C18.4879 7.14248 18.5055 7.24618 18.5002 7.34998Z" fill="#231F20"/>
<path d="M12.94 7.74004C12.93 7.81604 12.8913 7.88534 12.8318 7.93374C12.7722 7.98204 12.6965 8.00574 12.62 8.00004C12.5409 8.00574 12.4626 7.98094 12.4012 7.93074C12.3398 7.88054 12.3 7.80874 12.29 7.73004C12.3023 7.65314 12.3431 7.58374 12.4042 7.53564C12.4654 7.48744 12.5424 7.46404 12.62 7.47004C12.698 7.46444 12.7751 7.48954 12.8349 7.53994C12.8947 7.59044 12.9324 7.66214 12.94 7.74004Z" fill="white"/>
<path d="M17.56 7.15994C17.5525 7.22794 17.5194 7.29064 17.4674 7.33514C17.4154 7.37974 17.3484 7.40284 17.28 7.39994C17.2164 7.39994 17.1553 7.37464 17.1103 7.32964C17.0653 7.28464 17.04 7.22354 17.04 7.15994C17.04 7.09624 17.0653 7.03524 17.1103 6.99024C17.1553 6.94524 17.2164 6.91994 17.28 6.91994C17.3484 6.91694 17.4154 6.94014 17.4674 6.98464C17.5194 7.02924 17.5525 7.09184 17.56 7.15994Z" fill="white"/>
<path d="M17.18 17.6599C20.08 18.5599 23.69 17.6599 23.82 13.9999C23.82 13.9999 23.89 13.2099 23.7 13.5899C22.82 15.2899 20.77 16.0499 17.51 16.4699C17.05 16.5299 16.07 16.5299 16.01 16.9599C16 17.1999 16.28 17.3799 17.18 17.6599Z" fill="#231F20"/>
<path d="M22.9201 15.21C24.2501 16.1 23.9201 18.08 22.6801 18.32C21.4401 18.56 21.2701 16.75 20.1101 16.53C20.7238 16.4172 21.3238 16.2395 21.9001 16C22.2793 15.7916 22.6235 15.525 22.9201 15.21Z" fill="#F26322" stroke="#231F20" stroke-width="0.438913"/>
<path d="M22 16.11C22.3006 16.3107 22.5485 16.5809 22.7225 16.8977C22.8966 17.2145 22.9918 17.5686 23 17.93C22.8815 17.5609 22.7239 17.2056 22.53 16.87C22.41 16.59 22 16.11 22 16.11Z" fill="#A74624"/>
<path d="M11.8601 13.28C11.8601 13.28 12.7801 17.88 7.12012 17.09C8.12302 16.5956 9.08593 16.0239 10.0001 15.38C10.6824 14.7378 11.3049 14.0349 11.8601 13.28Z" fill="#886327"/>
</g>
</svg>
