<svg width="159" height="57" viewBox="0 0 159 57" fill="none" xmlns="http://www.w3.org/2000/svg">
<g clip-path="url(#clip0_2390_3090)">
<path opacity="0.5" fill-rule="evenodd" clip-rule="evenodd" d="M35.7 51.3999C45.5 51.3999 53.45 52.4799 53.45 53.8099C53.45 55.1399 45.45 56.2299 35.7 56.2299C25.95 56.2299 17.96 55.1499 17.96 53.8099C17.96 52.4699 25.9 51.3999 35.7 51.3999Z" fill="#32241F"/>
<path fill-rule="evenodd" clip-rule="evenodd" d="M30.93 20.64C42.72 25.53 50.32 34.25 47.88 40.11C45.44 45.97 33.88 46.7599 22.13 41.8699C10.38 36.9799 2.73997 28.26 5.12997 22.4C7.51997 16.54 19.13 15.75 30.89 20.64" fill="#42302B"/>
<path fill-rule="evenodd" clip-rule="evenodd" d="M4.61005 29.48C4.8645 33.1822 5.76825 36.8109 7.28003 40.2C9.62029 45.3187 12.8047 50.0074 16.7 54.07C23.5105 54.3533 30.2933 53.0454 36.51 50.25C39.0058 49.1528 41.3569 47.7523 43.51 46.08C38.22 47.91 30.0901 47.25 21.8701 43.84C13.3701 40.31 6.93004 34.73 4.54004 29.48" fill="#42302B"/>
<path fill-rule="evenodd" clip-rule="evenodd" d="M30.7 21.8301C39.2 25.3501 44.7 31.6401 42.92 35.8301C41.14 40.0201 32.85 40.6301 24.35 37.1001C15.85 33.5701 10.35 27.2901 12.13 23.1001C13.91 18.9101 22.19 18.3101 30.7 21.8401" fill="#FDDD46"/>
<path fill-rule="evenodd" clip-rule="evenodd" d="M29.55 23.3202C34.74 25.4702 38.07 29.3202 37 31.8802C35.93 34.4402 30.87 34.8002 25.68 32.6502C20.49 30.5002 17.16 26.6502 18.23 24.0902C19.3 21.5302 24.36 21.1702 29.55 23.3202Z" fill="#231815"/>
<path fill-rule="evenodd" clip-rule="evenodd" d="M29.32 25.0102C31.88 26.0802 33.53 28.0102 33 29.2402C32.47 30.4702 30 30.6902 27.41 29.6202C24.82 28.5502 23.2 26.6202 23.72 25.4002C24.24 24.1802 26.72 23.9502 29.32 25.0102Z" fill="#FDDD46"/>
<mask id="mask0_2390_3090" style="mask-type:luminance" maskUnits="userSpaceOnUse" x="26" y="0" width="14" height="29">
<path d="M39.7 0L26 26.14C26.442 26.9108 27.1281 27.5124 27.95 27.85C28.8486 28.345 29.8647 28.587 30.89 28.55L39.7 0Z" fill="white"/>
</mask>
<g mask="url(#mask0_2390_3090)">
<path d="M39.68 0H25.99V28.59H39.68V0Z" fill="url(#paint0_linear_2390_3090)"/>
</g>
<path fill-rule="evenodd" clip-rule="evenodd" d="M3.47002 32.55C0.400017 28.41 -0.789966 24.22 0.550034 20.81C3.00003 14.58 13.15 12.81 24.72 16.01C13.53 13.27 3.85004 15.36 1.46004 21.73C0.260038 24.93 1.09004 28.73 3.46004 32.55" fill="#42302B"/>
<path fill-rule="evenodd" clip-rule="evenodd" d="M46.47 47.8902C47.9567 47.3655 49.2911 46.4823 50.3551 45.3189C51.4191 44.1555 52.1798 42.7478 52.57 41.2202C53.87 35.5902 49.66 29.0502 42.79 25.2202C49.3 29.1702 53.14 35.7102 51.79 41.4002C51.4323 42.8037 50.7739 44.1127 49.8606 45.2367C48.9472 46.3607 47.8006 47.273 46.5 47.9102" fill="#42302B"/>
<path fill-rule="evenodd" clip-rule="evenodd" d="M7.28 35.5498C8.6794 37.3639 10.3933 38.9118 12.34 40.1198C12.9245 43.6936 13.9524 47.1805 15.4 50.4998C13.5647 48.2705 11.8937 45.911 10.4 43.4398C9.13064 41.1787 8.1241 38.7797 7.40002 36.2898C7.32545 36.0488 7.27518 35.8009 7.25 35.5498" fill="#9E9E9F"/>
<path d="M153.49 36.7598C152.452 36.7598 151.437 36.4519 150.573 35.875C149.71 35.2981 149.037 34.4782 148.64 33.5189C148.242 32.5595 148.138 31.5039 148.341 30.4855C148.543 29.4671 149.043 28.5317 149.778 27.7974C150.512 27.0632 151.447 26.5632 152.466 26.3607C153.484 26.1581 154.54 26.262 155.499 26.6594C156.458 27.0567 157.278 27.7297 157.855 28.593C158.432 29.4564 158.74 30.4714 158.74 31.5098C158.737 32.9013 158.183 34.2351 157.199 35.2191C156.215 36.2031 154.882 36.7571 153.49 36.7598ZM153.49 27.0398C152.606 27.0398 151.742 27.3019 151.007 27.7931C150.271 28.2843 149.699 28.9824 149.36 29.7992C149.022 30.6159 148.933 31.5147 149.106 32.3818C149.278 33.2489 149.704 34.0454 150.329 34.6705C150.954 35.2957 151.751 35.7214 152.618 35.8939C153.485 36.0664 154.384 35.9778 155.201 35.6395C156.017 35.3012 156.715 34.7282 157.207 33.9932C157.698 33.2581 157.96 32.3938 157.96 31.5098C157.96 30.3242 157.489 29.1873 156.651 28.349C155.812 27.5107 154.675 27.0398 153.49 27.0398Z" fill="white"/>
<path fill-rule="evenodd" clip-rule="evenodd" d="M152.05 31.1402H153.7C153.978 31.1488 154.255 31.1116 154.52 31.0302C154.701 30.9701 154.856 30.8502 154.96 30.6902C155.057 30.5339 155.109 30.354 155.11 30.1702C155.112 30.0443 155.088 29.9193 155.038 29.8037C154.988 29.6881 154.913 29.5846 154.82 29.5002C154.55 29.3068 154.221 29.2147 153.89 29.2402H152.07L152.05 31.1402ZM151.29 34.3502V28.6002H153.83C154.226 28.5849 154.622 28.639 155 28.7602C155.272 28.8616 155.499 29.0566 155.64 29.3102C155.799 29.5687 155.882 29.8667 155.88 30.1702C155.883 30.5431 155.74 30.9023 155.48 31.1702C155.146 31.4809 154.715 31.6679 154.26 31.7002C154.425 31.7772 154.579 31.8746 154.72 31.9902C154.962 32.2188 155.174 32.4776 155.35 32.7602L156.35 34.3202H155.4L154.64 33.1202C154.42 32.7802 154.24 32.5202 154.1 32.3302C153.989 32.1856 153.858 32.0576 153.71 31.9502C153.604 31.8782 153.485 31.8273 153.36 31.8002C153.22 31.7855 153.08 31.7855 152.94 31.8002H152.06V34.3502H151.29Z" fill="white"/>
<path fill-rule="evenodd" clip-rule="evenodd" d="M135.93 46.0702V29.2202H137.57V39.8202L144.57 33.9002H147L141.36 38.5102L147.42 46.0702H145.25L140.15 39.6302L137.56 41.7202V46.0702H135.93ZM130.54 46.0702V38.2302C130.54 36.0636 129.383 34.9802 127.07 34.9802C123.95 34.9802 122.4 36.4702 122.4 39.4702V46.0702H120.76V33.9002H122.4V36.2902C122.72 35.506 123.289 34.8489 124.02 34.4202C124.954 33.8167 126.048 33.5067 127.16 33.5302C130.493 33.5302 132.16 35.1969 132.16 38.5302V46.0702H130.54ZM115.41 31.8002V29.2202H117.05V31.8002H115.41ZM115.41 46.0702V33.9002H117.05V46.0702H115.41ZM110.11 46.0702V29.2202H111.75V46.0702H110.11ZM105.01 42.1802H106.7C105.827 45.0202 103.76 46.4402 100.5 46.4402C99.576 46.5014 98.6507 46.342 97.8005 45.9751C96.9502 45.6083 96.1994 45.0444 95.61 44.3302C94.6684 43.08 94.1848 41.5444 94.24 39.9802C94.175 38.3455 94.7204 36.7451 95.77 35.4902C96.3563 34.8214 97.0864 34.294 97.9056 33.9476C98.7248 33.6012 99.6117 33.4448 100.5 33.4902C102.067 33.4144 103.61 33.8923 104.86 34.8402C106.28 36.0069 106.99 37.8502 106.99 40.3702H95.83C95.8072 40.9812 95.9115 41.5903 96.1361 42.1589C96.3608 42.7275 96.7009 43.2434 97.1351 43.6739C97.5693 44.1043 98.0882 44.44 98.6588 44.6597C99.2293 44.8794 99.8392 44.9783 100.45 44.9502C101.529 45.0122 102.603 44.7696 103.55 44.2502C104.271 43.7417 104.788 42.9941 105.01 42.1402V42.1802ZM95.83 39.1402H105.3C105.205 37.9702 104.656 36.8837 103.77 36.1136C102.884 35.3435 101.732 34.951 100.56 35.0202C99.4843 34.9874 98.4285 35.3147 97.56 35.9502C97.0669 36.3336 96.6586 36.8149 96.3608 37.364C96.0631 37.913 95.8823 38.5178 95.83 39.1402ZM89.44 42.1402H91.08C90.2067 44.9802 88.1433 46.4002 84.89 46.4002C83.9658 46.4631 83.04 46.3044 82.1895 45.9374C81.339 45.5704 80.5883 45.0057 80 44.2903C79.0547 43.042 78.5707 41.5049 78.63 39.9402C78.5612 38.3067 79.1031 36.7061 80.15 35.4502C80.7373 34.78 81.4691 34.2518 82.2901 33.9053C83.1111 33.5589 84.0001 33.4033 84.89 33.4502C86.4537 33.3742 87.9941 33.8522 89.24 34.8002C90.66 35.9669 91.37 37.8102 91.37 40.3302H80.26C80.2371 40.9421 80.3416 41.552 80.5669 42.1214C80.7921 42.6907 81.1332 43.2071 81.5685 43.6377C82.0038 44.0683 82.5238 44.4038 83.0956 44.6228C83.6674 44.8419 84.2784 44.9398 84.89 44.9102C85.9653 44.972 87.0363 44.7294 87.98 44.2102C88.6932 43.7117 89.2097 42.9794 89.44 42.1402ZM80.26 39.1402H89.7C89.6103 37.97 89.064 36.8821 88.179 36.1112C87.294 35.3404 86.1414 34.9485 84.97 35.0202C83.8946 34.9897 82.8395 35.3167 81.97 35.9502C81.4806 36.3354 81.076 36.8177 80.7818 37.3666C80.4875 37.9156 80.3099 38.5194 80.26 39.1402ZM63.26 38.2502V44.5202H70.15C72.62 44.5202 73.86 43.4502 73.86 41.3302C73.86 39.2102 72.76 38.2502 70.54 38.2502H63.26ZM63.26 30.9902V36.6602H69.7C72.12 36.6602 73.33 35.6602 73.33 33.6602C73.33 31.8702 72.33 30.9702 70.25 30.9702L63.26 30.9902ZM61.63 46.1102V29.3602H70.63C71.2443 29.3165 71.8609 29.4026 72.4398 29.6128C73.0187 29.8229 73.5469 30.1526 73.99 30.5802C74.7072 31.4085 75.0668 32.4873 74.99 33.5802C75.0092 34.3744 74.7783 35.1544 74.33 35.8102C73.8411 36.507 73.104 36.99 72.27 37.1602C73.2317 37.2799 74.1098 37.7673 74.72 38.5202C75.3281 39.309 75.6427 40.2848 75.61 41.2802C75.6482 41.9901 75.5134 42.6985 75.2173 43.3448C74.9212 43.991 74.4726 44.5557 73.91 44.9902C72.8918 45.7374 71.6523 46.1213 70.39 46.0802L61.63 46.1102Z" fill="white"/>
</g>
<defs>
<linearGradient id="paint0_linear_2390_3090" x1="35.9" y1="15.59" x2="31.63" y2="13.79" gradientUnits="userSpaceOnUse">
<stop stop-color="#231815"/>
<stop offset="0.45" stop-color="#DBDCDC"/>
<stop offset="1" stop-color="#231815"/>
</linearGradient>
<clipPath id="clip0_2390_3090">
<rect width="158.74" height="56.22" fill="white"/>
</clipPath>
</defs>
</svg>
