<svg width="125" height="50" viewBox="0 0 125 50" fill="none" xmlns="http://www.w3.org/2000/svg">
<g clip-path="url(#clip0_245_2625)">
<path d="M12.087 9V19.7736C12.087 19.8718 12.0025 20.0049 12.1082 20.1311C12.242 20.2853 13.6866 20.2713 13.9332 20.1942C14.3631 20.061 15.3143 18.8414 15.723 18.4839C16.0119 18.2385 16.4347 17.874 16.8153 17.825H25.7292C26.1308 17.874 26.3915 18.1334 26.7016 18.3577C27.5895 19.4372 28.9635 20.4115 29.8303 21.4769C30.1474 21.8765 30.3094 22.262 30.3729 22.7667C30.1615 26.7902 30.6547 31.094 30.3729 35.0824C30.3165 35.9516 30.091 36.2109 29.5343 36.8278C28.8578 37.5778 27.4485 39.0288 26.6805 39.6386C26.3775 39.8839 26.0604 40.1643 25.6446 40.1923H16.8012C16.0754 40.2064 14.2221 37.7811 13.8698 37.7811H12.1998C11.8051 38.461 12.3266 39.4984 11.9461 40.1923H8V9H12.087ZM24.8061 35.6572C25.1161 35.3628 25.8137 34.816 26.0322 34.5076C26.159 34.3254 26.2365 34.1361 26.2718 33.9188C26.0815 30.8066 26.5536 27.3369 26.2858 24.2737C26.2647 24.0424 26.2224 23.8251 26.1026 23.6219C25.9547 23.3765 24.7215 22.1569 24.4467 21.9466C24.2494 21.7924 24.0521 21.6452 23.7984 21.5891C21.7901 21.6872 19.5352 21.3928 17.5551 21.5681C17.3226 21.5891 17.1112 21.6311 16.8998 21.7503L12.1504 26.5028C12.1293 27.9467 11.9813 29.5799 12.0518 31.0169C12.0588 31.2061 12.0941 31.4164 12.1857 31.5917L16.7659 36.1829C16.9844 36.3862 17.2733 36.4493 17.5551 36.4773C19.0208 36.6035 22.1143 36.6175 23.5659 36.4773C24.2987 36.4002 24.3621 36.0848 24.8061 35.6782V35.6572Z" fill="white"/>
<path d="M73.0187 9V19.9419C73.0187 20.4115 74.2448 20.3554 74.5619 20.3134C75.7175 20.1802 76.6265 18.1124 77.8245 17.825H85.7378C86.0971 17.874 86.3931 18.0913 86.6679 18.3156C87.4289 18.9395 89.3456 20.811 89.9234 21.5611C90.0009 21.6592 90.3815 22.3111 90.3815 22.3531V40.1994H86.2944V23.9303C86.2944 23.8882 86.0619 23.5447 86.0055 23.4676C85.7519 23.1452 84.7019 22.0798 84.3778 21.8484C84.2157 21.7293 84.0818 21.6382 83.8775 21.5961C83.1728 21.4489 79.0858 21.4559 78.3459 21.5821C78.1486 21.6171 77.9302 21.7153 77.7822 21.8484C76.5561 23.3625 74.4562 24.7924 73.3147 26.2995C73.2371 26.4046 73.0257 26.7481 73.0257 26.8392V40.2765C72.9623 40.2975 72.9271 40.1923 72.8989 40.1923H68.9317V9H73.0187Z" fill="white"/>
<path d="M112.219 18.5959C113.149 19.4511 114.812 21.0282 115.58 21.9605C115.784 22.2058 115.946 22.4862 116.066 22.7876L116.087 35.0052C116.101 35.3767 115.883 35.6571 115.672 35.9164C114.946 36.8067 112.635 39.1478 111.747 39.8278C111.549 39.982 111.331 40.0871 111.098 40.1782L100.014 40.1993C99.5843 40.1993 99.239 39.9539 98.9289 39.7016C98.0552 38.9796 95.8425 36.8277 95.1731 35.9585C94.9688 35.6921 94.8349 35.3837 94.7362 35.0613L94.7151 23.1802L94.9688 22.346C96.2865 21.1334 97.6747 19.2548 99.0628 18.1894C99.2601 18.0352 99.4786 17.93 99.7111 17.8389L110.957 17.8179C111.444 17.8669 111.873 18.2735 112.219 18.5959ZM109.71 21.9325C109.435 21.7292 109.323 21.603 108.949 21.568C106.722 21.3296 104.059 21.7292 101.79 21.589L101.268 21.8203L98.8726 24.2526L98.8303 33.5753L99.0135 33.9748L101.416 36.323L109.266 36.3651C109.4 36.344 109.478 36.2529 109.576 36.1758C109.844 35.9725 111.775 34.0519 111.902 33.8346C112.148 33.393 111.986 33.1827 111.993 32.7692C112.014 30.2738 112.014 27.7714 111.993 25.276C111.993 24.6662 112.191 24.4769 111.704 23.9021C111.324 23.4465 110.161 22.2829 109.703 21.9395L109.71 21.9325Z" fill="white"/>
<path d="M47.8131 17.8179V20.0259C47.8131 20.4534 49.5607 20.3693 49.8778 20.1731L51.8508 18.1824L52.5484 17.8389L60.0319 17.8249C60.2221 17.8669 60.4124 17.93 60.5886 18.0211C61.0395 18.2665 63.8088 21.0493 64.2175 21.561C64.3655 21.7502 64.6756 22.2128 64.6756 22.4371V40.1993H60.5886V23.9302C60.5886 23.8671 60.4406 23.6288 60.3842 23.5517C60.1798 23.2713 58.9538 22.0586 58.6719 21.8483C58.39 21.6381 58.2209 21.589 57.8827 21.5539C56.8962 21.4698 54.0564 21.4208 53.1403 21.575C52.943 21.61 52.7246 21.7082 52.5766 21.8413C51.3505 23.3554 49.2506 24.7853 48.1091 26.2924C48.0316 26.3975 47.8202 26.741 47.8202 26.8321V40.2693C47.7567 40.2904 47.7215 40.1852 47.6933 40.1852H43.7261V17.8179H47.8131Z" fill="white"/>
<path d="M38.9626 17.8179H34.8756V40.1993H38.9626V17.8179Z" fill="white"/>
<path d="M39.2163 9H34.7065V13.409H39.2163V9Z" fill="white"/>
</g>
<defs>
<clipPath id="clip0_245_2625">
<rect width="108.094" height="31.2905" fill="white" transform="translate(8 9)"/>
</clipPath>
</defs>
</svg>
