<svg width="158" height="22" viewBox="0 0 158 22" fill="none" xmlns="http://www.w3.org/2000/svg">
<path d="M0.833374 10.7501V0.966797L9.71671 1.03346C17.6167 1.10013 18.6834 1.15013 19.5 1.40013C21.7167 2.1168 22.5 3.20013 22.6334 5.7168C22.7334 7.80013 22.4334 8.90013 21.4834 9.75013C21.1167 10.0835 20.8334 10.3835 20.8667 10.4001C20.8834 10.4168 21.2 10.6001 21.5334 10.8168C22.5834 11.4501 22.8334 12.2168 22.8334 14.9335C22.8334 17.1001 22.8 17.3335 22.4167 18.1168C21.95 19.0335 21.2334 19.6335 20 20.1168C19.3167 20.3835 18.3834 20.4168 10.05 20.4668L0.833374 20.5168V10.7501ZM18.0834 17.2668C18.3834 17.1335 18.7167 16.8835 18.8167 16.7001C18.9167 16.5001 19 15.5835 19 14.6168C19 12.9835 18.9834 12.8668 18.5667 12.4835L18.1334 12.0835L11.4 12.0335L4.66671 11.9835V14.7501V17.5001H11.0834C16.25 17.5001 17.6167 17.4501 18.0834 17.2668ZM17.7 8.83346C18.65 8.5668 18.8334 8.1668 18.8334 6.45013C18.8334 5.1168 18.8 4.95013 18.4167 4.58346L18.0167 4.1668H11.3334H4.66671V6.58346V9.00013H10.8834C14.6334 9.00013 17.3334 8.93346 17.7 8.83346Z" fill="white"/>
<path d="M27.0001 10.75V1H28.8334H30.6667V10.75V20.5H28.8334H27.0001V10.75Z" fill="white"/>
<path d="M43.8334 12.3333V4.16667H38.8334H33.8334V2.58333V1H45.6667H57.5V2.58333V4.16667H52.5834H47.6667V12.3333V20.5H45.75H43.8334V12.3333Z" fill="white"/>
<path d="M60.5334 10.8001L60.5834 1.0834L62.2667 1.0334L63.9667 0.983398L69.6667 8.8334C72.8001 13.1334 75.4167 16.6667 75.4667 16.6501C75.5334 16.6501 78.1167 13.1334 81.2167 8.81673L86.8667 1.00007H88.4334H90.0001V10.7501V20.5001H88.2501H86.5001L86.4667 13.9167L86.4167 7.3334L81.6667 13.9001L76.9167 20.4834H75.3167L73.7167 20.5001L68.9001 13.9001L64.0834 7.2834L64.0334 13.9001L64.0001 20.5001H62.2501H60.5001L60.5334 10.8001Z" fill="white"/>
<path d="M92.6167 20.0167C92.7834 19.75 95.7 15.3667 99.0834 10.2667L105.25 1.01667L106.517 1C107.517 1 107.833 1.06667 108.033 1.3C108.333 1.63333 120.667 20.3167 120.667 20.4333C120.667 20.4667 119.717 20.5 118.55 20.4833H116.417L111.567 12.8667C108.9 8.68333 106.65 5.25 106.583 5.25C106.533 5.25 104.25 8.68333 101.533 12.8667L96.5834 20.4833L94.45 20.5H92.3L92.6167 20.0167Z" fill="white"/>
<path d="M123.167 10.75V1H125.083H127V10.75V20.5H125.083H123.167V10.75Z" fill="white"/>
<path d="M131.2 10.8001L131.25 1.0834L132.767 1.0334L134.3 0.983398L141.6 6.4334C145.633 9.4334 149.9 12.6334 151.117 13.5334C152.317 14.4334 153.35 15.1667 153.4 15.1667C153.45 15.1667 153.517 12.0001 153.533 8.1334L153.583 1.0834L155.217 1.0334L156.833 0.983398V10.7501V20.5001H155.883H154.917L144.75 13.0667L134.583 5.65006L134.533 13.0667L134.5 20.5001H132.833H131.167L131.2 10.8001Z" fill="white"/>
</svg>
