<svg width="125" height="50" viewBox="0 0 125 50" fill="none" xmlns="http://www.w3.org/2000/svg">
<path fill-rule="evenodd" clip-rule="evenodd" d="M10.5632 13.0013C19.6111 13.0013 21.1589 13.0108 21.8182 13.0729C22.2386 13.1158 22.8071 13.197 23.0841 13.259C23.3612 13.3211 23.7673 13.4452 23.9918 13.5311C24.2163 13.6171 24.5794 13.808 24.8039 13.9607C25.0284 14.1087 25.3151 14.3474 25.444 14.4858C25.573 14.629 25.7641 14.8725 25.8644 15.03C25.9648 15.1875 26.1129 15.4644 26.1893 15.6505C26.2657 15.8367 26.3708 16.1661 26.4234 16.3904C26.4759 16.6148 26.5428 17.0205 26.5715 17.2974C26.5953 17.5742 26.6192 18.4764 26.6192 19.3022C26.6192 20.128 26.5953 20.9872 26.5715 21.2116C26.5428 21.4359 26.4759 21.77 26.4234 21.9514C26.366 22.1328 26.2418 22.4479 26.1367 22.6436C26.0364 22.8393 25.8406 23.14 25.6972 23.3119C25.5587 23.4837 25.296 23.7415 25.1144 23.8894C24.9281 24.0374 24.6749 24.2188 24.5459 24.2952C24.417 24.3716 24.3071 24.4432 24.2975 24.4575C24.288 24.4718 24.4361 24.5816 24.6272 24.7057C24.8182 24.825 25.1096 25.0542 25.2816 25.2069C25.4536 25.3644 25.6972 25.627 25.8262 25.7988C25.9504 25.9659 26.132 26.2523 26.2275 26.4384C26.3183 26.6246 26.4425 26.911 26.4998 27.0829C26.5571 27.2547 26.6431 27.6079 26.6861 27.8705C26.7578 28.281 26.7673 28.6247 26.7482 30.3765C26.7339 32.0377 26.7148 32.4625 26.6479 32.7298C26.6049 32.9064 26.5046 33.2262 26.4186 33.4458C26.3374 33.6606 26.1654 33.9852 26.0412 34.1714C25.917 34.3575 25.659 34.6535 25.4679 34.8349C25.2721 35.021 24.9854 35.2502 24.8278 35.3552C24.6702 35.4554 24.3692 35.6225 24.159 35.718C23.9488 35.8182 23.6048 35.9566 23.3946 36.0235C23.1845 36.0903 22.8405 36.1905 22.6303 36.243C22.4201 36.2955 21.9472 36.3815 21.5793 36.434C21.2115 36.4865 20.514 36.5533 20.0268 36.5819C19.463 36.6106 15.6795 36.6297 0.0104696 36.6297L0.000915311 24.8489C-0.00386184 18.3666 0.0104696 13.049 0.0343554 13.0347C0.0582412 13.0156 4.7924 13.0013 10.5632 13.0013ZM6.74626 31.2835C16.0187 31.2835 18.5506 31.2644 18.8802 31.2357C19.3197 31.1975 19.4822 31.1593 19.6924 31.0543C19.8834 30.9589 19.9742 30.8777 20.0506 30.7345C20.1414 30.5531 20.1462 30.4624 20.1462 29.1354C20.1462 28.3621 20.1318 27.67 20.108 27.5936C20.0889 27.522 20.0029 27.3884 19.9169 27.2929C19.8261 27.1879 19.6732 27.0924 19.5252 27.0447C19.315 26.9731 18.8277 26.9635 15.1302 26.9397L10.974 26.9158L10.9502 21.9276C16.7448 21.9228 18.6509 21.9037 18.928 21.8798C19.2385 21.8512 19.5013 21.7987 19.6207 21.7414C19.7449 21.6793 19.8357 21.5934 19.8834 21.4884C19.9408 21.3595 19.9551 21.0731 19.9551 19.9466C19.9551 18.949 19.9408 18.5241 19.893 18.4191C19.8643 18.338 19.7783 18.2425 19.7019 18.1995C19.6302 18.1566 19.4583 18.0945 19.3197 18.0659C19.143 18.0277 17.2656 18.0134 12.9088 18.0134H6.74626V31.2835ZM36.0541 13.0252V36.6058H29.3183L29.304 24.8632C29.2992 18.4048 29.304 13.092 29.3183 13.0586C29.3374 13.0108 30.0397 13.0013 36.0541 13.0252ZM44.8202 13.0013L49.3203 20.7103C51.7996 24.9539 53.8347 28.4242 53.849 28.4194C53.8633 28.4194 53.9063 28.3621 53.9493 28.2858C53.9876 28.2142 55.8793 24.7821 58.1485 20.6626C60.4176 16.5384 62.3046 13.1302 62.3476 13.0824C62.4192 13.0013 62.6247 12.9965 65.9448 13.0013C67.8843 13.0013 69.4799 13.0156 69.4894 13.0347C69.499 13.0586 66.4416 18.3666 55.8698 36.6058H51.3888L44.2613 24.8394C40.344 18.3666 37.1481 13.0586 37.1576 13.0347C37.172 13.0156 38.9013 13.0013 44.8202 13.0013ZM74.2093 13.0013H80.1234L80.238 13.1779C80.3049 13.2781 83.5056 18.5766 87.356 24.9587C91.2016 31.3407 94.3402 36.5724 94.3306 36.5915C94.3211 36.6154 92.6061 36.6297 86.7397 36.6345L85.2302 33.9948C84.3989 32.5436 83.0613 30.1617 82.2635 28.7058C81.461 27.2499 79.9418 24.5195 78.8813 22.6436C77.8256 20.7676 76.9466 19.2115 76.9322 19.1924C76.9131 19.1733 76.0389 20.739 74.9927 22.677C73.9417 24.615 72.4847 27.2642 71.749 28.5626C71.0133 29.861 69.7044 32.1713 68.835 33.694C67.9703 35.2168 67.2251 36.5008 67.1821 36.5485C67.1104 36.6297 66.9193 36.6345 63.6661 36.6201C61.7743 36.6106 60.2265 36.5963 60.2265 36.5819C60.2265 36.5676 63.3747 31.2548 67.2203 24.7773L74.2093 13.0013ZM105.5 13.0013C114.199 13.0061 116.138 13.0156 116.712 13.0729C117.094 13.1063 117.576 13.1731 117.786 13.2161C117.997 13.259 118.374 13.3641 118.622 13.4452C118.876 13.5311 119.248 13.6982 119.454 13.8128C119.659 13.9321 119.97 14.1565 120.142 14.314C120.314 14.4715 120.548 14.7293 120.658 14.8868C120.772 15.0443 120.944 15.345 121.04 15.5551C121.135 15.7651 121.269 16.1422 121.331 16.3904C121.393 16.6386 121.465 17.1255 121.494 17.4644C121.517 17.8081 121.537 19.2354 121.537 20.6387C121.537 22.0421 121.513 23.4598 121.489 23.7892C121.465 24.1186 121.398 24.5673 121.345 24.7916C121.288 25.016 121.193 25.3358 121.121 25.5076C121.054 25.6795 120.925 25.9372 120.844 26.0804C120.758 26.2236 120.576 26.4719 120.433 26.6246C120.294 26.7821 120.06 26.9969 119.912 27.1067C119.769 27.2165 119.535 27.3693 119.387 27.4504C119.243 27.5316 118.966 27.6557 118.766 27.7273C118.57 27.7989 118.236 27.8943 118.025 27.9468C117.815 27.9946 117.486 28.0614 117.285 28.09C117.089 28.1187 116.387 28.1569 114.524 28.2046L119.774 32.3813C122.659 34.6774 125.01 36.5772 125 36.5963C124.986 36.6154 122.769 36.6297 115.159 36.6297L105.877 28.2523L105.867 23.0255H109.751C112.073 23.0255 113.807 23.0064 114.06 22.9777C114.323 22.9491 114.576 22.887 114.705 22.8202C114.834 22.7581 114.958 22.6484 115.016 22.5481C115.106 22.3906 115.116 22.2856 115.13 20.7581C115.135 19.8655 115.13 19.0444 115.116 18.9346C115.097 18.7962 115.04 18.6769 114.935 18.5575C114.839 18.4525 114.686 18.3571 114.538 18.3093C114.323 18.2377 113.731 18.2282 101.616 18.2043V36.6297L94.9517 36.6058L94.9421 24.8632C94.9326 18.4048 94.9373 13.0968 94.9517 13.0633C94.9708 13.0156 97.1253 13.0013 105.5 13.0013Z" fill="white"/>
</svg>
