<svg width="65" height="22" viewBox="0 0 65 22" fill="none" xmlns="http://www.w3.org/2000/svg">
<path d="M9.4769 18.9616C5.1333 18.9616 1.6001 15.4284 1.6001 11.0848C1.6001 6.74127 5.1333 3.20837 9.4769 3.20837C13.8204 3.20837 17.3536 6.74167 17.3536 11.0848C17.3536 15.428 13.8204 18.9616 9.4769 18.9616ZM9.4769 5.47907C6.3857 5.47907 3.8707 7.99367 3.8707 11.0848C3.8707 14.176 6.3857 16.691 9.4769 16.691C12.568 16.691 15.083 14.176 15.083 11.0848C15.083 7.99367 12.568 5.47907 9.4769 5.47907Z" fill="white"/>
<path d="M11.5711 14.3165H7.38321C6.75511 14.3165 6.24561 13.807 6.24561 13.1789V8.99112C6.24561 8.36302 6.75511 7.85352 7.38321 7.85352H11.5711C12.1992 7.85352 12.7087 8.36302 12.7087 8.99112V13.1789C12.7087 13.807 12.1992 14.3165 11.5711 14.3165ZM8.5212 12.041H10.4328V10.1294H8.5212V12.041Z" fill="white"/>
<path d="M20.7966 5.01575H23.4891V8.73045C23.7267 8.47095 23.9781 8.27395 24.2433 8.13835C24.5081 8.00345 24.7623 7.90325 25.0056 7.83825C25.2489 7.77325 25.4678 7.73555 25.6627 7.72455C25.8572 7.71395 26.0034 7.70835 26.1005 7.70835C26.5655 7.70835 27.0601 7.79765 27.5848 7.97595C28.1091 8.15425 28.5875 8.43285 29.0204 8.81135C29.4529 9.18985 29.8123 9.67915 30.099 10.2794C30.3854 10.8796 30.5287 11.6069 30.5287 12.461C30.5287 13.3151 30.3988 13.9831 30.1393 14.5939C29.8798 15.2051 29.5391 15.7132 29.1175 16.1185C28.6959 16.5242 28.2115 16.8268 27.6657 17.027C27.1194 17.2268 26.5598 17.3271 25.9868 17.3271C25.3488 17.3271 24.8026 17.1975 24.3485 16.9377C23.8945 16.6781 23.5806 16.3862 23.4076 16.0617H23.3751V17.0185H20.7959L20.7966 5.01575ZM23.392 12.4935C23.392 12.8074 23.4432 13.1047 23.546 13.3857C23.6487 13.6671 23.7945 13.9129 23.9838 14.1236C24.1727 14.3344 24.4029 14.5021 24.673 14.6264C24.9431 14.7507 25.246 14.8128 25.5815 14.8128C25.9169 14.8128 26.2385 14.7479 26.5143 14.6183C26.79 14.4884 27.0252 14.3182 27.2197 14.1074C27.4143 13.8966 27.5657 13.6509 27.6738 13.3695C27.7818 13.0884 27.8358 12.8017 27.8358 12.5097C27.8358 12.2177 27.7843 11.9339 27.6819 11.6581C27.5791 11.3824 27.4305 11.1391 27.236 10.9283C27.0414 10.7175 26.8087 10.547 26.5386 10.4174C26.2682 10.2878 25.9652 10.2229 25.6302 10.2229C25.2732 10.2229 24.9569 10.2878 24.6815 10.4174C24.4057 10.5473 24.1706 10.7204 23.9757 10.9364C23.7811 11.1529 23.6349 11.3961 23.5379 11.6662C23.4404 11.9367 23.392 12.2125 23.392 12.4935Z" fill="white"/>
<path d="M31.6084 5.01575H34.3009V17.0189H31.6084V5.01575Z" fill="white"/>
<path d="M44.1564 17.019H41.6096V16.0621H41.5772C41.4366 16.3541 41.2689 16.5812 41.0744 16.7436C40.8798 16.9056 40.6744 17.0299 40.4579 17.1168C40.2415 17.2033 40.0282 17.2573 39.8171 17.2788C39.6063 17.3004 39.4142 17.3113 39.2412 17.3113C39.1007 17.3113 38.922 17.3004 38.706 17.2788C38.4895 17.2569 38.2572 17.2057 38.0086 17.1249C37.7597 17.0437 37.5112 16.9275 37.2626 16.776C37.0137 16.6246 36.7923 16.4247 36.5974 16.1758C36.4134 15.9488 36.2701 15.7352 36.1677 15.535C36.065 15.3351 35.9837 15.1293 35.9244 14.9185C35.8648 14.7077 35.827 14.4804 35.8107 14.2371C35.7945 13.9938 35.7864 13.7156 35.7864 13.4017V8.01627H38.4789V12.996C38.4789 13.1475 38.487 13.3286 38.5033 13.5394C38.5195 13.7502 38.5707 13.9476 38.6572 14.1315C38.7437 14.3155 38.8867 14.4722 39.0869 14.6018C39.2868 14.7317 39.5653 14.7964 39.9223 14.7964C40.1168 14.7964 40.3061 14.7667 40.49 14.707C40.6736 14.6477 40.8389 14.5503 40.9847 14.415C41.1309 14.2798 41.2467 14.0934 41.3335 13.8554C41.42 13.6178 41.4635 13.3201 41.4635 12.9632V8.01587H44.156L44.1564 17.019Z" fill="white"/>
<path d="M54.3518 14.1968C54.1354 14.7053 53.8705 15.1512 53.557 15.535C53.2431 15.9191 52.8975 16.2408 52.519 16.4999C51.762 17.0405 50.9075 17.311 49.956 17.311C49.307 17.311 48.6962 17.1891 48.1232 16.9459C47.5498 16.7026 47.0445 16.3647 46.6064 15.9322C46.1686 15.5 45.8222 14.9941 45.5683 14.4157C45.3141 13.8374 45.187 13.2128 45.187 12.5423C45.187 11.9153 45.3032 11.3097 45.5359 10.7258C45.7682 10.1418 46.0955 9.62844 46.517 9.18494C46.9386 8.74154 47.4389 8.38494 48.0173 8.11444C48.5956 7.84434 49.2258 7.70874 49.9069 7.70874C50.588 7.70874 51.2207 7.83584 51.8047 8.09004C52.3887 8.34434 52.8915 8.69314 53.313 9.13624C53.735 9.57974 54.0644 10.1012 54.3027 10.7014C54.5403 11.3016 54.6597 11.9421 54.6597 12.6235C54.6597 12.8075 54.654 12.9455 54.6434 13.0373C54.6325 13.1295 54.6162 13.2294 54.5947 13.3374H47.8471C47.9336 13.8784 48.174 14.2971 48.5688 14.5944C48.9635 14.892 49.4257 15.0403 49.9556 15.0403C50.3666 15.0403 50.6964 14.9591 50.945 14.7971C51.1935 14.6346 51.41 14.4348 51.5939 14.1968H54.3518ZM51.9675 11.5205C51.935 11.3909 51.8781 11.2367 51.7973 11.0583C51.7161 10.88 51.5946 10.7095 51.4322 10.5474C51.2701 10.3854 51.0643 10.2502 50.8157 10.1418C50.5668 10.0337 50.2695 9.97974 49.9235 9.97974C49.5775 9.97974 49.2802 10.0341 49.0313 10.1418C48.7824 10.2502 48.5772 10.385 48.4148 10.5474C48.2524 10.7095 48.131 10.88 48.0497 11.0583C47.9685 11.2367 47.9117 11.3909 47.8796 11.5205H51.9675Z" fill="white"/>
<path d="M59.4801 10.5471C59.4801 10.504 59.472 10.4415 59.4557 10.3607C59.4395 10.2795 59.4042 10.2039 59.3502 10.1336C59.2958 10.0634 59.2121 10.0012 59.0988 9.94715C58.9851 9.89315 58.8311 9.86595 58.6366 9.86595C58.3552 9.86595 58.1582 9.93625 58.0445 10.0767C57.9308 10.2172 57.8743 10.3473 57.8743 10.4662C57.8743 10.7152 58.0148 10.9122 58.2959 11.0583C58.5769 11.2045 58.8961 11.3315 59.2527 11.4396C59.6312 11.548 60.0094 11.6642 60.3882 11.7885C60.7667 11.9131 61.1046 12.0779 61.4019 12.2831C61.6992 12.4886 61.9396 12.7482 62.1236 13.0617C62.3072 13.3756 62.3993 13.7752 62.3993 14.2621C62.3993 14.7489 62.3019 15.1653 62.1073 15.5435C61.9128 15.922 61.6476 16.2436 61.3126 16.5088C60.9771 16.7739 60.5881 16.9766 60.1446 17.1171C59.7011 17.2576 59.2305 17.3279 58.7333 17.3279C58.387 17.3279 58.0141 17.2844 57.6141 17.1982C57.2141 17.1117 56.8356 16.9551 56.4786 16.728C56.1217 16.501 55.8138 16.1955 55.5539 15.8113C55.2944 15.4276 55.1387 14.7925 55.0737 14.1975H57.6865C57.719 14.403 57.8408 14.7084 57.9382 14.8221C58.0357 14.9358 58.1409 15.0166 58.2546 15.0653C58.3683 15.114 58.4735 15.1437 58.5709 15.1546C58.6684 15.1656 58.7333 15.1709 58.7655 15.1709C58.9925 15.1709 59.2061 15.1088 59.4063 14.9845C59.6061 14.8603 59.7064 14.6901 59.7064 14.4736C59.7064 14.3006 59.663 14.16 59.5768 14.052C59.4903 13.9439 59.3523 13.8412 59.163 13.7437C58.9738 13.6463 58.7277 13.544 58.4251 13.4356C58.1222 13.3276 57.7546 13.1923 57.3221 13.0299C57.0301 12.9325 56.7544 12.8138 56.4948 12.673C56.2353 12.5324 56.0083 12.3647 55.8134 12.1702C55.6189 11.9756 55.4646 11.7539 55.3512 11.5053C55.2375 11.2568 55.1811 10.981 55.1811 10.6781C55.1811 10.2346 55.2757 9.82925 55.4649 9.46135C55.6538 9.09375 55.908 8.77995 56.2272 8.52035C56.546 8.26085 56.9164 8.06105 57.3383 7.92015C57.7599 7.77965 58.2034 7.70935 58.6684 7.70935C58.9604 7.70935 59.2954 7.74755 59.6739 7.82305C60.0524 7.89895 60.4119 8.03955 60.7526 8.24465C61.0933 8.45015 61.3934 8.73685 61.6529 9.10435C61.9124 9.47195 62.0692 9.95355 62.1232 10.5482H59.4794L59.4801 10.5471Z" fill="white"/>
</svg>
