<svg width="97" height="40" viewBox="0 0 97 40" fill="none" xmlns="http://www.w3.org/2000/svg">
<mask id="mask0_12_2519" style="mask-type:luminance" maskUnits="userSpaceOnUse" x="1" y="4" width="94" height="33">
<path d="M95 4.34656H1V36.2035H95V4.34656Z" fill="white"/>
</mask>
<g mask="url(#mask0_12_2519)">
<path d="M1 19.9582C1.1071 19.1708 1.2038 18.3811 1.3229 17.5954C2.2861 11.2448 7.5033 5.8885 13.8251 4.64879C22.4841 2.95103 30.8122 8.5886 32.4532 17.1861C34.2413 26.5541 27.8156 34.6377 19.4019 36.0013C11.0195 37.3593 2.9567 31.7513 1.4101 23.428C1.2598 22.6207 1.191 21.7974 1.0807 20.9829C1.0631 20.8526 1.0272 20.7247 1 20.596C1 20.3834 1 20.1708 1 19.9582ZM12.0674 15.7465C11.9267 15.5539 11.7732 15.3693 11.6477 15.1678C10.7413 13.7211 10.1426 12.2 10.607 10.4558C10.7053 10.0874 10.8444 9.7213 11.0203 9.3824C11.8052 7.8716 13.6636 6.6295 15.8809 8.2569C17.0751 9.1338 16.733 9.0962 17.9352 8.2753C18.5267 7.8716 19.1525 7.5431 19.8823 7.5271C21.3938 7.4952 22.3674 8.3361 22.9493 9.6174C23.8757 11.6564 23.4729 13.5252 22.0301 15.1998C21.7479 15.5275 21.4578 15.8481 21.1716 16.1718C21.2859 16.1758 21.3611 16.135 21.4298 16.0847C22.2923 15.4572 23.2443 15.0272 24.2922 14.8233C26.1922 14.4532 27.8132 14.944 29.0313 16.4763C29.8411 17.4955 29.8738 18.7296 29.176 19.8199C28.8979 20.2539 28.5597 20.6536 28.2176 21.0412C27.9523 21.3426 27.8859 21.6128 28.1273 21.9597C28.308 22.2202 28.4486 22.5096 28.5941 22.7925C29.5525 24.6566 28.9114 26.4862 26.9987 27.3567C25.1546 28.1959 23.0324 27.7907 21.5081 26.304C20.1461 24.9755 18.7889 23.643 17.4276 22.3138C17.3605 22.2482 17.2789 22.1963 17.223 22.1523C17.223 24.2697 17.1327 26.3711 17.2478 28.4605C17.3677 30.6379 18.7569 31.9272 20.9254 32.2661C22.6032 32.5283 24.0931 32.0671 25.5055 31.2541C27.591 30.0528 29.0833 28.2919 30.1016 26.1417C32 22.1331 31.8617 18.0758 30.164 14.0616C27.5694 7.9236 21.2244 4.38981 14.6987 5.4705C9.5871 6.3162 5.9126 9.1849 3.8112 13.8761C1.7745 18.4227 1.8313 22.9844 4.4163 27.3591C5.6209 29.3965 7.2595 30.996 9.5128 31.884C10.6718 32.3404 11.8612 32.4451 13.0825 32.2293C15.2031 31.8544 16.4892 30.4332 16.5795 28.2007C16.6603 26.224 16.6211 24.2417 16.6323 22.2626C16.6323 22.2274 16.6107 22.1923 16.5899 22.1315C16.5356 22.1699 16.4916 22.1923 16.4588 22.2258C15.1392 23.5399 13.8083 24.8436 12.503 26.1721C10.7357 27.9713 8.0676 28.315 6.1756 26.9634C5.0581 26.1657 4.557 24.9139 4.9478 23.647C5.1373 23.0347 5.4834 22.4664 5.7863 21.8933C5.9454 21.592 5.9286 21.357 5.7072 21.0996C5.3699 20.7071 5.0254 20.3147 4.736 19.887C4.0086 18.8119 4.0094 17.581 4.7904 16.5419C5.8854 15.0831 7.3994 14.538 9.1834 14.7482C10.2074 14.8689 11.157 15.2446 12.0658 15.7465H12.0674Z" fill="white"/>
<path d="M95 26.9745C94.815 27.4981 94.633 28.0224 94.444 28.5444C94.386 28.7058 94.324 28.8697 94.241 29.0192C93.976 29.4916 93.531 29.5076 93.237 29.0567C93.121 28.8793 93.034 28.6835 92.919 28.5052C92.47 27.8058 91.867 27.7235 91.259 28.2926C90.65 28.8617 90.422 29.6115 90.371 30.4076C90.326 31.1222 90.35 31.8408 90.351 32.5578C90.351 32.9686 90.549 33.2628 90.921 33.4402C91.077 33.5145 91.244 33.5745 91.381 33.6752C91.692 33.9038 91.628 34.3418 91.262 34.4593C91.091 34.5145 90.895 34.5073 90.711 34.5081C89.673 34.5129 88.636 34.5121 87.598 34.5105C87.453 34.5105 87.285 34.5361 87.168 34.4737C87.02 34.3946 86.848 34.2555 86.81 34.11C86.778 33.9853 86.882 33.728 86.992 33.68C87.785 33.3331 87.829 32.6753 87.81 31.9487C87.785 30.9663 87.793 29.9831 87.808 29.0008C87.815 28.5172 87.633 28.2031 87.173 28.0112C86.98 27.9305 86.701 27.7083 86.712 27.57C86.729 27.3542 86.913 27.0656 87.108 26.9657C87.887 26.5669 88.688 26.204 89.5 25.877C90.023 25.6668 90.306 25.8882 90.342 26.4621C90.357 26.7003 90.346 26.9401 90.346 27.1791C90.346 27.3989 90.346 27.6188 90.346 27.9417C90.566 27.598 90.709 27.3342 90.89 27.0984C91.461 26.3526 92.182 25.8331 93.147 25.7468C94.008 25.6692 94.644 26.0105 95.001 26.8162V26.9761L95 26.9745Z" fill="white"/>
<path d="M47.7353 11.7123C48.0567 11.8554 48.3564 11.9665 48.6346 12.1159C49.7456 12.7138 50.3627 13.6179 50.3459 14.908C50.3283 16.2164 49.7312 17.1604 48.5602 17.7391C47.6714 18.1788 46.7138 18.3434 45.7362 18.3498C44.419 18.3594 43.1009 18.3091 41.7828 18.3043C40.9843 18.3011 40.1858 18.3474 39.388 18.3418C39.193 18.3402 38.958 18.2699 38.8125 18.1468C38.5943 17.9638 38.6822 17.5601 38.9908 17.4202C39.647 17.1213 39.7669 16.6017 39.7621 15.9519C39.7437 13.4156 39.7477 10.8786 39.7597 8.34153C39.7621 7.77083 39.6094 7.32883 39.0523 7.08343C38.7949 6.96993 38.6622 6.76693 38.7246 6.47353C38.7869 6.17783 39.0251 6.11063 39.2705 6.10903C41.3983 6.09633 43.5269 6.06673 45.6539 6.09873C46.5244 6.11143 47.3604 6.37283 48.107 6.85003C49.9383 8.02183 49.8727 10.4845 47.9855 11.5564C47.9088 11.6004 47.8352 11.6491 47.7361 11.7107L47.7353 11.7123ZM42.5629 14.5746C42.5629 14.5746 42.5661 14.5746 42.5677 14.5746C42.5677 15.0918 42.5517 15.6098 42.5717 16.1261C42.5949 16.7232 42.8299 16.987 43.4206 17.0182C44.0153 17.0501 44.6188 17.0637 45.2095 17.0014C46.3109 16.8847 47.0719 16.1941 47.2214 15.2613C47.4244 13.9935 46.7881 12.9192 45.5308 12.6411C44.7643 12.4716 43.9513 12.4964 43.1576 12.4628C42.7116 12.4437 42.5701 12.6067 42.5645 13.0631C42.5581 13.5667 42.5629 14.0711 42.5629 14.5746ZM42.5645 9.45903C42.5645 9.45903 42.5637 9.45903 42.5629 9.45903C42.5629 9.88343 42.5653 10.3079 42.5621 10.7323C42.5597 11.0424 42.7068 11.2063 43.0185 11.2055C43.5901 11.2039 44.1648 11.2303 44.7323 11.1823C45.6963 11.1008 46.2814 10.5349 46.3917 9.64923C46.5084 8.71003 46.0528 7.90833 45.1975 7.57983C44.5333 7.32483 43.8434 7.31923 43.1544 7.44553C42.7604 7.51743 42.5709 7.79163 42.5653 8.18573C42.5597 8.61013 42.5645 9.03463 42.5645 9.45903Z" fill="white"/>
<path d="M38.5928 28.6499C38.6224 27.2783 38.9301 25.989 39.6431 24.81C41.0004 22.5663 43.3448 21.5751 45.9034 22.157C46.1368 22.2098 46.3718 22.2585 46.6028 22.3217C46.9625 22.4208 47.2646 22.3792 47.5524 22.1003C47.8737 21.7877 48.203 21.8517 48.4452 22.2393C48.5563 22.4176 48.6418 22.6158 48.7178 22.8125C49.0231 23.6046 49.3261 24.3975 49.617 25.1944C49.6938 25.4039 49.7817 25.6341 49.7633 25.8459C49.7473 26.0281 49.6266 26.2775 49.4787 26.3511C49.3269 26.427 49.0639 26.371 48.8904 26.2887C48.7354 26.2152 48.6355 26.0265 48.5116 25.8874C47.9992 25.3127 47.5324 24.6885 46.9657 24.1737C45.5685 22.9044 43.8076 23.1018 42.6645 24.6093C42.121 25.3255 41.8316 26.1496 41.7189 27.0297C41.5599 28.2726 41.6278 29.4972 42.1538 30.6602C43.3256 33.2524 46.5125 33.7256 48.3981 31.5898C48.5563 31.4107 48.6898 31.2085 48.8545 31.0367C49.0519 30.8304 49.2957 30.7313 49.5763 30.8696C49.8648 31.0119 49.9439 31.2821 49.8384 31.5442C49.677 31.9447 49.5147 32.3755 49.2381 32.6953C47.554 34.6448 45.3806 35.2043 42.9531 34.5976C40.5839 34.0053 39.2147 32.3699 38.7399 29.9943C38.652 29.5539 38.6408 29.0991 38.5936 28.6507L38.5928 28.6499Z" fill="white"/>
<path d="M63.5915 16.8438C63.4484 17.0213 63.3829 17.0996 63.3205 17.1803C62.4645 18.2826 61.0721 18.7542 59.7196 18.3985C58.511 18.0812 57.7333 17.0636 57.6813 15.668C57.647 14.7392 57.6422 13.808 57.6718 12.88C57.6909 12.2661 57.4815 11.8537 56.8884 11.6546C56.8013 11.6251 56.7166 11.5811 56.639 11.5307C56.3177 11.3229 56.2897 10.9752 56.5943 10.7402C56.7597 10.6123 56.9548 10.5092 57.153 10.4389C57.854 10.1887 58.5558 9.94014 59.2672 9.72354C59.921 9.52444 60.1992 9.73714 60.204 10.4253C60.2136 11.7529 60.2024 13.0814 60.2104 14.4091C60.212 14.7128 60.2312 15.0206 60.2823 15.3195C60.3854 15.9214 60.6668 16.3962 61.3143 16.5465C62.0105 16.7071 62.6092 16.5313 63.076 15.9853C63.4372 15.5625 63.5643 15.0445 63.5827 14.5058C63.6035 13.8687 63.5883 13.2309 63.5899 12.5938C63.5907 12.2365 63.4173 11.9872 63.1039 11.8353C62.9009 11.737 62.6819 11.6706 62.4805 11.5707C62.048 11.3565 62.0217 10.9752 62.4277 10.7114C62.6155 10.5899 62.825 10.4916 63.0368 10.4197C63.729 10.1855 64.4228 9.95374 65.1238 9.74834C65.9016 9.52044 66.1334 9.69954 66.135 10.4988C66.1382 12.159 66.1501 13.8192 66.1278 15.4786C66.1206 16.0445 66.3468 16.4154 66.8408 16.6504C66.8767 16.6672 66.9127 16.6856 66.9471 16.7047C67.1869 16.8398 67.4898 16.9357 67.469 17.2858C67.4474 17.6415 67.1565 17.7758 66.8719 17.8462C66.0206 18.0564 65.1662 18.257 64.3053 18.4209C63.8433 18.5088 63.6115 18.2794 63.5923 17.7998C63.5811 17.524 63.5899 17.2475 63.5899 16.8446L63.5915 16.8438Z" fill="white"/>
<path d="M61.3711 25.5477C61.9331 25.6405 62.5086 25.6852 63.0545 25.8355C64.825 26.3239 66.032 27.7115 66.2094 29.4468C66.4132 31.4403 65.7234 33.0358 63.9553 34.0541C62.4054 34.9461 60.7349 35.0436 59.0579 34.4737C57.3482 33.8918 56.361 32.6489 56.1803 30.8584C55.9821 28.8969 56.7375 27.355 58.4552 26.3335C59.3457 25.8035 60.3288 25.5965 61.3711 25.5477ZM63.5269 31.0654C63.4534 29.6418 63.1744 28.5252 62.3631 27.6028C61.8643 27.0361 61.236 26.7571 60.4743 26.9138C59.7173 27.0688 59.2425 27.5828 59.0987 28.3022C58.9684 28.9544 58.9028 29.645 58.9652 30.3045C59.0659 31.3676 59.46 32.3443 60.3048 33.0637C61.304 33.9142 62.7108 33.5937 63.2016 32.3827C63.3974 31.9007 63.4558 31.3636 63.5261 31.0662L63.5269 31.0654Z" fill="white"/>
<path d="M71.2299 15.0981C72.1339 16.9725 74.1586 17.5201 75.8196 16.3874C76.0282 16.2452 76.2113 16.0501 76.4383 15.9558C76.6045 15.8871 76.8947 15.8663 76.9986 15.9638C77.1097 16.0685 77.1353 16.3595 77.0761 16.5257C76.9954 16.7527 76.8204 16.9598 76.6477 17.1388C75.1098 18.7358 72.1507 19.1283 70.2532 17.9853C68.8807 17.1588 68.2485 15.8927 68.1885 14.3364C68.0366 10.4085 71.8614 8.63013 74.6238 9.77633C75.8987 10.3054 76.6701 11.2646 76.8092 12.6714C76.8659 13.2453 76.7604 13.3964 76.2025 13.5666C74.715 14.0215 73.2274 14.4747 71.7399 14.9295C71.5768 14.979 71.417 15.0366 71.2299 15.0981ZM70.8295 13.9727C71.8822 13.629 72.8717 13.3221 73.8453 12.9728C74.0036 12.916 74.1754 12.685 74.2026 12.5123C74.3009 11.8953 73.735 11.0776 73.0891 10.8226C72.4441 10.5684 71.7375 10.7554 71.3035 11.3262C70.7136 12.1031 70.7056 12.9903 70.8295 13.9727Z" fill="white"/>
<path d="M79.904 31.2542C80.7002 33.0175 82.6569 33.645 84.2723 32.685C84.5569 32.5155 84.7999 32.2717 85.094 32.1255C85.2539 32.0463 85.552 32.0207 85.6583 32.1159C85.7742 32.219 85.8054 32.5075 85.7558 32.6826C85.6983 32.8872 85.532 33.071 85.3826 33.2373C83.8007 34.9998 80.4476 35.3443 78.5692 33.9055C76.9865 32.693 76.5869 31.0192 76.9857 29.164C77.3902 27.284 78.6387 26.129 80.5059 25.7245C82.0622 25.3872 83.5058 25.659 84.6416 26.8851C85.1843 27.4702 85.4625 28.1736 85.4865 28.9793C85.4977 29.371 85.345 29.5876 84.9605 29.7019C83.4194 30.1607 81.8839 30.6395 80.3461 31.1111C80.2078 31.1535 80.0711 31.1998 79.9016 31.2542H79.904ZM79.5156 30.1304C80.5563 29.789 81.553 29.4653 82.5466 29.1344C82.8144 29.0449 82.8879 28.8299 82.8807 28.5645C82.8599 27.8291 82.2548 27.0746 81.5426 26.9091C80.8376 26.7444 80.1246 27.0961 79.7625 27.8131C79.4029 28.5269 79.3613 29.2847 79.5156 30.1304Z" fill="white"/>
<path d="M72.2131 32.3763C72.6983 31.123 73.1451 29.9776 73.5847 28.8297C73.7126 28.4956 73.8293 28.1575 73.938 27.8162C74.0555 27.4485 73.9228 27.1695 73.6031 26.9657C73.48 26.8874 73.3497 26.813 73.2474 26.7115C72.9493 26.4158 73.0564 26.0217 73.4648 25.9266C73.6303 25.8882 73.8077 25.8938 73.9796 25.893C74.6446 25.8898 75.3089 25.8898 75.9739 25.8946C76.145 25.8962 76.3248 25.8906 76.4855 25.9402C76.8036 26.0385 76.8923 26.3878 76.6733 26.6404C76.5966 26.7283 76.4959 26.8035 76.3919 26.8594C75.8988 27.1264 75.6022 27.5404 75.3904 28.052C74.6047 29.952 73.7766 31.8352 73.0116 33.7423C72.7383 34.4234 72.2571 34.6016 71.6072 34.6056C70.9446 34.6096 70.4426 34.4394 70.1596 33.7423C69.3971 31.8615 68.5746 30.0055 67.7945 28.1319C67.5611 27.5724 67.2477 27.1048 66.7034 26.8114C66.4724 26.6876 66.2837 26.4725 66.414 26.2351C66.5052 26.0689 66.7721 25.9058 66.9648 25.901C68.2021 25.8714 69.4403 25.8706 70.6776 25.901C70.8902 25.9058 71.19 26.0521 71.2875 26.2247C71.4434 26.4997 71.1964 26.7027 70.9622 26.8602C70.4234 27.2239 70.3379 27.4637 70.5905 28.1543C71.0197 29.3245 71.4793 30.4835 71.9269 31.6473C72.0069 31.8552 72.09 32.0622 72.2131 32.3763Z" fill="white"/>
<path d="M54.226 27.3558C54.226 29.0295 54.234 30.7033 54.2212 32.3771C54.2172 32.9214 54.3867 33.3339 54.899 33.5745C55.1316 33.6832 55.3107 33.8486 55.2419 34.1332C55.17 34.4289 54.927 34.5121 54.6568 34.5137C53.5258 34.5177 52.3948 34.5313 51.2645 34.4993C51.0751 34.4937 50.8177 34.3194 50.7234 34.15C50.5875 33.9062 50.7753 33.6968 51.0135 33.5825C51.5235 33.3371 51.6866 32.919 51.6842 32.3787C51.6746 29.8017 51.673 27.2247 51.6858 24.6477C51.6882 24.1409 51.5043 23.83 51.0263 23.6381C50.8377 23.5622 50.5979 23.3408 50.5867 23.1729C50.5747 22.9947 50.7657 22.7181 50.9416 22.6286C51.7097 22.2377 52.4947 21.8732 53.294 21.5503C53.9303 21.2929 54.2196 21.5175 54.2228 22.2169C54.2292 23.9307 54.2252 25.6444 54.2252 27.3574L54.226 27.3558Z" fill="white"/>
<path d="M54.7397 11.1871C54.7397 12.8209 54.7501 14.4547 54.7342 16.0885C54.7286 16.6968 54.8692 17.1868 55.4791 17.4506C55.7133 17.5521 55.8516 17.7743 55.7317 17.9997C55.6486 18.1556 55.4248 18.2403 55.2569 18.3458C55.2185 18.3698 55.153 18.3514 55.0994 18.3514C54.022 18.3514 52.9445 18.3506 51.867 18.3522C51.5856 18.3522 51.3155 18.3162 51.2235 18.0029C51.1292 17.6816 51.341 17.5129 51.5944 17.3842C52.0221 17.1676 52.1939 16.8087 52.1931 16.3427C52.1907 13.6858 52.1891 11.0297 52.1955 8.37269C52.1963 7.92509 51.9853 7.67409 51.5864 7.49349C51.3826 7.40149 51.0948 7.17529 51.1004 7.01949C51.1076 6.81319 51.3235 6.53589 51.5241 6.42879C52.1907 6.07309 52.8805 5.75409 53.5807 5.46799C54.496 5.09309 54.7374 5.26819 54.7397 6.24489C54.7421 7.40069 54.7397 8.55659 54.7397 9.71159C54.7397 10.2032 54.7397 10.6955 54.7397 11.1871Z" fill="white"/>
</g>
</svg>
