<svg width="113" height="30" viewBox="0 0 113 30" fill="none" xmlns="http://www.w3.org/2000/svg">
<mask id="mask0_12_2543" style="mask-type:luminance" maskUnits="userSpaceOnUse" x="2" y="3" width="109" height="25">
<path d="M111 3.29102H2V27.709H111V3.29102Z" fill="white"/>
</mask>
<g mask="url(#mask0_12_2543)">
<path fill-rule="evenodd" clip-rule="evenodd" d="M48.6208 15.0922C49.2794 14.8373 49.8445 14.3874 50.2404 13.8025C50.6363 13.2177 50.8441 12.5259 50.836 11.8197C50.836 8.87443 48.7467 7.41443 45.8769 7.41443H38.3501V23.4296H46.5314C49.0487 23.4296 51.5157 21.6674 51.5157 18.9739C51.5157 15.7719 48.6208 15.1224 48.6208 15.0922ZM42.2772 10.7372H45.1972C45.3842 10.7256 45.5717 10.751 45.7488 10.812C45.926 10.8729 46.0894 10.9682 46.2297 11.0923C46.3699 11.2165 46.4844 11.3671 46.5664 11.5355C46.6484 11.704 46.6964 11.8869 46.7076 12.0739C46.7076 12.131 46.7076 12.1889 46.7076 12.2476C46.6997 12.6413 46.5365 13.016 46.2536 13.2899C45.9707 13.5639 45.591 13.7149 45.1972 13.7102H42.252L42.2772 10.7372ZM45.2224 20.0765H42.3023V16.9298H45.1469C46.5818 16.9298 47.2614 17.5592 47.2614 18.4906C47.2614 19.6536 46.4056 20.0765 45.2224 20.0765Z" fill="#ED0007"/>
<path fill-rule="evenodd" clip-rule="evenodd" d="M60.1753 7.0116C55.5434 7.0116 52.8247 10.7121 52.8247 15.3943C52.8247 20.0765 55.5434 23.777 60.1753 23.777C64.8072 23.777 67.5259 20.1017 67.5259 15.3943C67.5259 10.6869 64.8323 7.0116 60.1753 7.0116ZM60.1753 19.9506C57.9097 19.9506 56.7769 17.9116 56.7769 15.3943C56.7769 12.877 57.9097 10.8631 60.1753 10.8631C62.4409 10.8631 63.5988 12.9021 63.5988 15.3943C63.5988 17.9368 62.4409 19.9506 60.1753 19.9506Z" fill="#ED0007"/>
<path fill-rule="evenodd" clip-rule="evenodd" d="M76.0596 13.7078L75.5058 13.5819C74.1464 13.305 73.064 12.9525 73.064 11.9707C73.064 10.9134 74.0961 10.4855 75.0023 10.4855C75.6206 10.4947 76.2304 10.6314 76.7934 10.8869C77.3565 11.1425 77.8608 11.5114 78.2749 11.9707L80.767 9.50375C79.6342 8.21995 77.7966 6.98645 74.9268 6.98645C71.5536 6.98645 68.9859 8.87445 68.9859 12.0211C68.9859 14.8908 71.0501 16.3005 73.5675 16.8291L74.1213 16.955C76.2106 17.383 76.991 17.7102 76.991 18.7171C76.991 19.6737 76.1351 20.303 74.8261 20.303C73.2654 20.303 71.8557 19.6234 70.7732 18.2388L68.2307 20.7563C69.6404 22.4429 71.4277 23.7519 74.8765 23.7519C77.8721 23.7519 81.0691 22.04 81.0691 18.5409C81.1194 14.8908 78.3504 14.1861 76.0596 13.7078Z" fill="#ED0007"/>
<path fill-rule="evenodd" clip-rule="evenodd" d="M90.0308 19.9508C88.2687 19.9508 86.431 18.4907 86.431 15.2937C86.431 12.4491 88.1428 10.8632 89.9301 10.8632C91.3398 10.8632 92.1705 11.5177 92.825 12.6505L96.0471 10.5108C94.4361 8.06896 92.523 7.03687 89.8798 7.03687C85.0465 7.03687 82.4285 10.7877 82.4285 15.3189C82.4285 20.0766 85.3234 23.8023 89.8294 23.8023C93.0013 23.8023 94.5121 22.6946 96.1481 20.3284L92.9006 18.1433C92.2461 19.1956 91.5412 19.9508 90.0308 19.9508Z" fill="#ED0007"/>
<path fill-rule="evenodd" clip-rule="evenodd" d="M106.796 7.41443V13.3049H101.938V7.41443H97.7339V23.4245H101.938V17.1061H106.796V23.4245H111V7.41443H106.796Z" fill="#ED0007"/>
<path d="M14.1335 3.3363C11.7337 3.3363 9.3878 4.048 7.3925 5.3812C5.3971 6.7144 3.84197 8.6094 2.92361 10.8265C2.00526 13.0436 1.76497 15.4833 2.23315 17.8369C2.70132 20.1906 3.85692 22.3526 5.5538 24.0495C7.2507 25.7464 9.4127 26.902 11.7664 27.3702C14.12 27.8383 16.5597 27.5981 18.7768 26.6797C20.9939 25.7613 22.8889 24.2062 24.2221 22.2108C25.5554 20.2155 26.267 17.8696 26.267 15.4698C26.267 12.2518 24.9886 9.1656 22.7132 6.8902C20.4377 4.6147 17.3515 3.3363 14.1335 3.3363ZM14.1335 26.4705C11.9578 26.4705 9.8309 25.8253 8.0218 24.6166C6.2128 23.4078 4.8028 21.6897 3.97018 19.6796C3.13756 17.6695 2.91971 15.4576 3.34418 13.3237C3.76864 11.1898 4.8164 9.2296 6.3548 7.6912C7.8933 6.1527 9.8534 5.105 11.9874 4.6805C14.1213 4.256 16.3332 4.4739 18.3433 5.3065C20.3534 6.1391 22.0715 7.5491 23.2802 9.3582C24.489 11.1672 25.1342 13.2941 25.1342 15.4698C25.1335 18.3872 23.9743 21.1849 21.9114 23.2478C19.8485 25.3106 17.0509 26.4698 14.1335 26.4705Z" fill="white"/>
<path d="M19.1431 7.89258H18.3123V12.0462H9.98001V7.89258H9.12411C7.87051 8.71968 6.84171 9.84478 6.12981 11.1672C5.41801 12.4896 5.04541 13.968 5.04541 15.4698C5.04541 16.9716 5.41801 18.45 6.12981 19.7724C6.84171 21.0948 7.87051 22.2199 9.12411 23.0469H9.98001V18.8984H18.3123V23.0519H19.1431C20.3972 22.2253 21.4265 21.1003 22.1388 19.7779C22.851 18.4554 23.2238 16.9769 23.2238 15.4748C23.2238 13.9728 22.851 12.4942 22.1388 11.1717C21.4265 9.84928 20.3972 8.72428 19.1431 7.89768V7.89258ZM8.82201 21.4157C8.04131 20.722 7.40491 19.8813 6.94911 18.9417C6.49331 18.002 6.22711 16.9818 6.16561 15.9392C6.10411 14.8966 6.24861 13.8522 6.59081 12.8654C6.93301 11.8787 7.46621 10.9691 8.16001 10.1884C8.36791 9.95618 8.58901 9.73598 8.82201 9.52888V21.4157ZM18.3123 17.7404H9.98001V13.179H18.3123V17.7404ZM19.4451 21.3905V18.8732V12.0462V9.52888C20.2239 10.2282 20.8573 11.0742 21.3091 12.0183C21.7608 12.9625 22.0221 13.9865 22.078 15.0317C22.1338 16.0769 21.9832 17.1229 21.6347 18.1099C21.2862 19.0968 20.7466 20.0055 20.0468 20.7838C19.8564 20.9943 19.6556 21.1951 19.4451 21.3855V21.3905Z" fill="white"/>
</g>
</svg>
