<svg width="174" height="21" viewBox="0 0 174 21" fill="none" xmlns="http://www.w3.org/2000/svg">
<g clip-path="url(#clip0_2216_3210)">
<path d="M163.539 0.866699C164.9 0.866699 165.967 1.96087 165.967 3.32191C165.967 4.68296 164.9 5.77713 163.539 5.77713C162.178 5.77713 161.084 4.68296 161.084 3.32191C161.084 1.96087 162.178 0.866699 163.539 0.866699ZM163.512 1.40044C162.498 1.40044 161.697 2.25443 161.697 3.32191C161.697 4.3894 162.525 5.24338 163.539 5.24338C164.553 5.24338 165.38 4.3894 165.38 3.32191C165.354 2.25443 164.553 1.40044 163.512 1.40044ZM163.112 4.73633H162.471V2.01425C162.685 1.98756 162.925 1.93418 163.379 1.93418C163.859 1.93418 164.153 2.01425 164.339 2.14768C164.5 2.28112 164.58 2.46793 164.58 2.7348C164.58 3.02836 164.366 3.26854 164.046 3.3486V3.37529C164.286 3.42866 164.446 3.64216 164.473 4.04246C164.526 4.46946 164.58 4.62958 164.606 4.70964H163.966C163.912 4.60289 163.859 4.36271 163.806 3.98909C163.779 3.72222 163.592 3.58878 163.325 3.58878H163.085V4.73633H163.112ZM163.112 3.1351H163.352C163.699 3.1351 163.939 3.02836 163.939 2.76149C163.939 2.54799 163.779 2.41455 163.432 2.41455C163.299 2.41455 163.192 2.41455 163.112 2.41455V3.1351Z" fill="#5FA9D5"/>
<path d="M28.2619 9.11308C28.7956 8.6594 29.9966 7.93885 29.9966 6.09744C29.9966 4.25603 28.4487 1.96094 23.8051 1.96094H5.97815V5.27014H9.95453L5.8714 20.9088L10.0346 19.0674L10.7818 16.3987H25.2196C28.0484 16.3987 30.2634 14.6106 30.2634 12.5023C30.2634 10.5809 28.9291 9.54008 28.2619 9.11308ZM13.7975 5.24345H24.2855C25.4331 5.24345 25.9401 5.88395 25.9401 6.391C25.9401 6.87137 25.86 7.85879 23.645 7.85879H13.0235L13.7975 5.24345ZM23.6984 13.1428H11.6358L12.4097 10.6343H24.3389C25.7266 10.6343 26.1536 11.2747 26.1536 11.7818C26.1536 12.2622 26.1269 13.1428 23.6984 13.1428Z" fill="#5FA9D5"/>
<path d="M43.6603 1.32031C36.0277 1.32031 31.3842 4.94976 31.3842 9.40651C31.3842 13.8633 37.1486 17.1458 43.6336 17.1458C50.1185 17.1458 55.3225 13.8366 55.3225 9.13964C55.3225 4.97645 50.6256 1.32031 43.6603 1.32031ZM43.5802 13.8099C39.4437 13.8099 35.7609 11.9151 35.7609 9.29976C35.7609 6.68443 38.7231 4.57614 43.5802 4.57614C48.0103 4.57614 50.9992 6.71111 50.9992 9.13964C51.0259 11.8884 47.7167 13.8099 43.5802 13.8099Z" fill="#5FA9D5"/>
<path d="M54.4154 5.24328V1.93408H66.051V5.24328H62.1546V10.7408C62.1546 12.8758 65.4638 13.4095 68.0258 13.4095C70.5878 13.4095 74.0037 12.6623 74.0037 10.7408V5.24328H70.2675V1.93408H81.6095V5.24328H77.7933V11.3546C77.7933 15.0908 72.4292 16.7454 68.2126 16.7454C63.996 16.7454 58.285 15.5178 58.285 11.2746V5.26997H54.4154V5.24328Z" fill="#5FA9D5"/>
<path d="M108.563 13.1427H105.334C105.441 14.5304 104.747 15.1976 104 15.1976C103.626 15.1976 102.799 15.2243 102.345 13.8098C101.812 12.1286 100.771 11.408 99.4098 10.5273H101.224C105.201 10.5273 106.535 7.67181 106.535 6.31077C106.535 4.28255 104.694 1.93408 100.584 1.93408H82.4634V5.24328H86.3064V13.1427H82.4634V16.3985H94.019V13.1427H90.2027V10.554H93.7254C94.9263 10.554 96.4475 11.1945 97.4349 12.9825C98.9294 15.6779 100.29 17.6795 103.626 17.6795C106.962 17.7062 108.964 15.758 108.563 13.1427ZM90.2027 7.85862V5.24328H100.611C101.545 5.24328 102.399 5.64359 102.399 6.39083C102.399 6.92458 102.212 7.88531 99.9435 7.88531H90.2027V7.85862Z" fill="#5FA9D5"/>
<path d="M109.577 1.93408H118.251L129.032 11.9684V5.24328H125.696V1.93408H135.918V5.24328H132.742V16.3985H128.232L116.543 5.67028V13.1427H120.146V16.3985H109.577V13.1427H113.02V5.24328H109.577V1.93408Z" fill="#5FA9D5"/>
<path d="M154.359 3.45494V1.93378H157.721V7.77826H154.465C154.465 5.91016 151.45 4.06875 146.299 4.06875C141.976 4.06875 141.015 5.4031 141.015 5.93685C141.015 6.36384 141.309 7.59145 145.792 7.51139C146.326 7.51139 146.993 7.4847 147.5 7.45802C155.186 7.24452 158.148 9.93991 158.148 12.5819C158.148 15.8645 152.277 17.0921 148.034 17.0921C143.791 17.0921 140.775 15.7844 139.734 14.8503V16.3982H136.078V10.2868H139.12C139.36 12.662 143.684 14.1298 148.194 14.1298C152.677 14.1298 153.691 12.8755 153.691 12.3151C153.691 11.4611 152.064 10.6872 148.381 10.6605C147.82 10.6605 147.073 10.6605 146.966 10.6605C142.59 10.8473 136.291 9.85985 136.291 5.93685C136.291 1.98715 142.403 1.2666 145.819 1.2666C149.235 1.2666 152.677 2.20065 154.359 3.45494Z" fill="#5FA9D5"/>
</g>
<defs>
<clipPath id="clip0_2216_3210">
<rect width="174" height="20.0153" fill="white" transform="translate(0 0.866699)"/>
</clipPath>
</defs>
</svg>
