<svg width="107" height="20" viewBox="0 0 107 20" fill="none" xmlns="http://www.w3.org/2000/svg">
<path d="M102.978 5.39429C102.415 5.39429 101.955 5.85439 101.955 6.41669C101.955 6.97899 102.415 7.43909 102.978 7.43909C103.54 7.43909 104 6.97899 104 6.41669C104 5.85439 103.54 5.39429 102.978 5.39429ZM102.978 7.23459C102.526 7.23459 102.155 6.86829 102.155 6.41669C102.155 5.96519 102.526 5.59459 102.978 5.59459C103.429 5.59459 103.8 5.96519 103.8 6.41669C103.8 6.86829 103.429 7.23459 102.978 7.23459Z" fill="white"/>
<path d="M103.399 6.23785C103.395 6.05895 103.272 5.93115 103.071 5.93115L102.615 5.93965L102.628 6.90245H102.837V6.55735H102.982L103.178 6.89815H103.412L103.191 6.52755C103.293 6.50195 103.399 6.40825 103.399 6.23785ZM103.046 6.37415H102.828V6.11435H103.041C103.122 6.11005 103.186 6.16115 103.186 6.24215C103.191 6.32305 103.127 6.37415 103.046 6.37415Z" fill="white"/>
<path d="M25.3998 10.1484C26.2816 9.96518 27.0058 9.18568 27.0058 8.00988C27.0058 6.76598 26.0984 5.63708 24.3263 5.63708H19.4231V14.9536H24.4796C26.2518 14.9536 27.189 13.8375 27.189 12.4403C27.189 11.2688 26.3923 10.3018 25.3998 10.1484ZM23.8918 7.34109C24.5606 7.34109 24.9823 7.77558 24.9823 8.35918C24.9823 8.94288 24.5648 9.36458 23.8918 9.36458H21.404V7.34109H23.8918ZM23.9599 13.2326H21.404V11.0686H23.9599C24.7437 11.0686 25.1612 11.5712 25.1612 12.1591C25.1612 12.8279 24.7139 13.2326 23.9599 13.2326Z" fill="white"/>
<path d="M36.4117 8.64038C36.4117 6.90658 35.2232 5.63708 33.2849 5.63708H28.927V14.9536H30.9079V11.6437H32.3605L34.188 14.9536H36.4628L34.3669 11.4051C35.3723 11.1665 36.4074 10.289 36.4074 8.64038H36.4117ZM32.991 9.89709H30.9079V7.38368H32.991C33.7876 7.38368 34.3882 7.85658 34.3882 8.64038C34.3882 9.42418 33.7876 9.89709 32.991 9.89709Z" fill="white"/>
<path d="M51.6964 5.64136L48.0925 14.9578H50.3545L50.9424 13.3817H54.9382L55.509 14.9578H57.771L54.1842 5.64136H51.6964ZM51.4876 11.6308L52.9403 7.62216L54.3929 11.6308H51.4876Z" fill="white"/>
<path d="M63.1599 5.64138H59.4878V14.9536H63.1599C66.0779 14.9536 68.1014 13.1091 68.1014 10.3018C68.1014 7.49448 66.0779 5.63708 63.1599 5.63708V5.64138ZM63.1599 13.2113H61.4687V7.38368H63.1599C65.0726 7.38368 66.0779 8.65318 66.0779 10.3018C66.0779 11.9504 65.0044 13.2071 63.1599 13.2071V13.2113Z" fill="white"/>
<path d="M95.7019 9.58608L93.2609 5.63708H91.0669V14.9536H93.0519V8.86618L95.1859 12.1123C95.4289 12.4829 95.9739 12.4829 96.2169 12.1123L98.3509 8.86618V14.9536H100.336V5.63708H98.1429L95.7019 9.58608Z" fill="white"/>
<path d="M42.6995 5.41138C39.9859 5.41138 37.7878 7.60948 37.7878 10.3231C37.7878 13.0367 39.9859 15.2348 42.6995 15.2348C45.4131 15.2348 47.6112 13.0367 47.6112 10.3231C47.6112 7.60948 45.4131 5.41138 42.6995 5.41138ZM42.6995 13.3093C41.0509 13.3093 39.7133 11.9717 39.7133 10.3231C39.7133 8.67448 41.0509 7.33688 42.6995 7.33688C44.3481 7.33688 45.6857 8.67448 45.6857 10.3231C45.6857 11.9717 44.3481 13.3093 42.6995 13.3093Z" fill="white"/>
<path d="M74.4146 13.3051C72.766 13.3051 71.4284 11.9675 71.4284 10.3189C71.4284 8.67033 72.766 7.33273 74.4146 7.33273C75.5307 7.33273 76.502 7.94613 77.0132 8.85353L78.4062 7.46053C77.5159 6.22083 76.059 5.40723 74.4146 5.40723C71.701 5.40723 69.5029 7.60533 69.5029 10.3189C69.5029 13.0325 71.701 15.2306 74.4146 15.2306C76.0675 15.2306 77.5329 14.4127 78.419 13.1603L77.026 11.7673C76.5148 12.6874 75.5393 13.3094 74.4146 13.3094V13.3051Z" fill="white"/>
<path d="M84.7535 5.41138C82.0399 5.41138 79.8418 7.60948 79.8418 10.3231C79.8418 13.0367 82.0399 15.2348 84.7535 15.2348C87.4671 15.2348 89.6652 13.0367 89.6652 10.3231C89.6652 7.60948 87.4671 5.41138 84.7535 5.41138ZM84.7535 13.3093C83.1049 13.3093 81.7673 11.9717 81.7673 10.3231C81.7673 8.67448 83.1049 7.33688 84.7535 7.33688C86.4021 7.33688 87.7397 8.67448 87.7397 10.3231C87.7397 11.9717 86.4021 13.3093 84.7535 13.3093Z" fill="white"/>
<path d="M8.9181 17.3094C12.7389 17.3094 15.8363 14.212 15.8363 10.3912C15.8363 6.57044 12.7389 3.47314 8.9181 3.47314C5.0974 3.47314 2 6.57044 2 10.3912C2 14.212 5.0974 17.3094 8.9181 17.3094Z" fill="#CC092F"/>
<path d="M15.01 12.2571C14.2176 11.9419 13.4934 12.0484 12.7692 12.4871C12.7692 12.4871 12.5051 12.649 12.4242 12.7001C12.0877 12.9131 11.7682 13.1133 11.4614 13.1133C11.1547 13.1133 10.8821 13.0367 10.7586 12.4701C10.5669 11.5883 10.1068 9.41567 9.90228 8.34217C9.78298 7.71167 9.71908 7.37087 9.65098 7.14087C9.53168 6.73617 9.31438 6.51467 9.00348 6.47637C9.00348 6.47637 8.95658 6.46777 8.91398 6.46777C8.87138 6.46777 8.82028 6.47637 8.82028 6.47637C8.51358 6.51467 8.29628 6.73617 8.17698 7.13657C8.10888 7.36667 8.04498 7.70747 7.92568 8.33787C7.72118 9.41147 7.26108 11.584 7.06938 12.4658C6.94588 13.0324 6.66048 13.1091 6.36658 13.1091C6.07258 13.1091 5.74028 12.9089 5.40378 12.6959C5.32288 12.6447 5.05878 12.4829 5.05878 12.4829C4.33458 12.0441 3.61038 11.9376 2.81798 12.2528C2.64758 12.321 2.47718 12.3977 2.31958 12.4743C2.43038 12.8194 2.56668 13.1559 2.72428 13.4712C2.89898 13.386 3.08208 13.3008 3.26958 13.2454C3.53798 13.1645 3.81488 13.1602 4.08318 13.2497C4.34308 13.3349 4.57738 13.4925 4.80738 13.6373C5.24188 13.9099 5.73608 14.2209 6.36658 14.2209C7.29948 14.2209 7.95128 13.6629 8.15998 12.6959C8.32188 11.9461 8.67968 10.2677 8.90968 9.10897C8.90968 9.10897 9.50188 11.9419 9.65948 12.6959C9.86818 13.6671 10.52 14.2209 11.4529 14.2209C12.0834 14.2209 12.5733 13.9099 13.0121 13.6373C13.2421 13.4925 13.4764 13.3391 13.7362 13.2497C14.0046 13.1602 14.2815 13.1645 14.5499 13.2454C14.7373 13.3008 14.9205 13.386 15.0952 13.4712C15.2528 13.1517 15.3891 12.8151 15.4999 12.4743C15.338 12.3977 15.1718 12.321 15.0015 12.2528" fill="white"/>
</svg>
