<svg width="90" height="29" viewBox="0 0 90 29" fill="none" xmlns="http://www.w3.org/2000/svg">
<mask id="mask0_2390_3131" style="mask-type:luminance" maskUnits="userSpaceOnUse" x="0" y="0" width="90" height="29">
<path d="M90 0H0V29H90V0Z" fill="white"/>
</mask>
<g mask="url(#mask0_2390_3131)">
<path fill-rule="evenodd" clip-rule="evenodd" d="M26.743 0.820801L16.7492 28.1792H18.4212L28.415 0.820801H26.743ZM54.9178 0.820801L44.9433 28.1792H46.6153L56.5899 0.820801H54.9178ZM87.494 0.820801L77.5192 28.1792H79.1913L89.166 0.820801H87.494ZM36.583 3.2566C32.5471 3.2566 29.818 5.8004 29.818 9.5578C29.818 10.9702 30.2823 12.1942 31.1441 13.1613C31.9775 14.0664 32.9976 14.5189 34.8533 15.114L36.9098 15.7783C39.3644 16.553 40.5037 17.8205 40.5037 19.6436C40.5037 20.8555 40.0347 21.8459 39.0815 22.6029C38.2435 23.2688 37.4487 23.5289 35.9104 23.5289C33.7594 23.5289 32.1012 22.9306 30.3561 21.6164L29.1454 23.8711C31.2971 25.2634 33.3781 25.9044 35.9104 25.9044C37.8169 25.9044 39.2099 25.4792 40.5806 24.5556C42.4409 23.3091 43.4826 21.3386 43.4826 19.2812C43.4826 17.9018 42.9583 16.425 42.0989 15.3958C41.2386 14.3667 40.2654 13.7805 38.428 13.1814L36.0642 12.3963C33.6572 11.587 32.7393 10.6618 32.7393 9.0343C32.7393 6.9407 34.1945 5.6321 36.7176 5.6321C38.7625 5.6321 40.0448 6.3392 41.7529 7.5044L42.9637 5.4107C40.9996 4.016 38.9716 3.2566 36.583 3.2566ZM60.0493 3.6995V25.4615H62.836V15.0536H71.6191V25.4615H74.4635V3.6995H71.6191V12.6177H62.836V3.6995H60.0493ZM0.835876 3.7398V25.5018H6.56318C9.71508 25.5018 10.5331 25.3174 11.6946 24.8576C13.8195 23.9943 15.1156 21.7549 15.1156 19.4825C15.1156 17.8398 14.5682 16.0868 13.136 14.953C12.4972 14.4287 11.8076 14.1107 10.7721 13.8659C12.9431 12.9825 14.2123 11.4517 14.2123 9.2357C14.2123 6.9133 12.7301 5.0153 10.5222 4.223C9.41828 3.8268 8.36668 3.7398 4.17998 3.7398H0.835876ZM3.56498 6.1556H6.56318C7.63868 6.1556 8.26358 6.2208 8.83098 6.377C10.2132 6.7458 11.1373 7.9078 11.1373 9.598C11.1373 10.1923 11.0173 10.5683 10.8106 11.0676C10.2224 12.4816 8.94088 12.9197 7.23588 12.9197H3.56498V6.1556ZM3.56498 15.3355H7.29348C8.33058 15.3355 9.15538 15.4498 9.73428 15.577C11.1649 15.8822 12.1943 17.3687 12.1943 19.2611C12.1943 21.8258 11.0235 23.0659 8.06218 23.0659H3.56498V15.3355Z" fill="white"/>
</g>
</svg>
