<svg width="124" height="26" viewBox="0 0 124 26" fill="none" xmlns="http://www.w3.org/2000/svg">
<g clip-path="url(#clip0_2390_3132)">
<path fill-rule="evenodd" clip-rule="evenodd" d="M17.2569 6.22721H8.64849V0H0V25.8251H17.2569C19.5276 25.8251 21.367 23.9926 21.367 21.7331V10.3247C21.367 8.06525 19.5276 6.22721 17.2569 6.22721ZM12.7302 11.9527H8.62369V20.1051H12.7302V11.9527Z" fill="#EC6707"/>
<path fill-rule="evenodd" clip-rule="evenodd" d="M106.72 6.56445H119.819C122.093 6.56445 123.931 8.4025 123.931 10.6627V22.0642C123.931 24.3237 122.092 26.1624 119.821 26.1624H106.72C104.452 26.1624 102.613 24.3237 102.613 22.0642V10.6627C102.613 8.40315 104.452 6.56445 106.72 6.56445ZM111.22 12.29H115.327V20.4362H111.22V12.29Z" fill="white"/>
<path d="M59.3508 20.1051H55.2409V11.9527H59.3508L59.3694 14.8937L67.9525 14.8806V10.3247C67.9525 8.06524 66.1138 6.2334 63.846 6.2334H50.7451C48.4745 6.2334 46.6351 8.06524 46.6351 10.3247V21.7332C46.6351 23.9926 48.4745 25.8252 50.7451 25.8252H63.8466C66.1145 25.8252 67.9531 23.9926 67.9531 21.7332V17.1587H59.3694L59.3508 20.1051Z" fill="white"/>
<path d="M69.5245 6.2334H78.1499V25.8252H69.5245V6.2334Z" fill="white"/>
<path d="M36.4332 6.22656H45.0575V25.8252H36.4332V6.22656Z" fill="white"/>
<path d="M35.1836 6.22724H31.5806V0.0185547H22.9294V21.7524C22.9294 24.0118 24.7681 25.8376 27.0394 25.8376H35.1836V20.2733H31.5806V11.6679H35.1836V6.22724Z" fill="white"/>
<path d="M88.304 25.8252V11.9527H92.4113V25.8252H101.016V10.3247C101.016 8.06524 99.1766 6.2334 96.9089 6.2334H79.6984V25.8252H88.3026" fill="white"/>
</g>
<defs>
<clipPath id="clip0_2390_3132">
<rect width="124" height="26" fill="white"/>
</clipPath>
</defs>
</svg>
