<svg width="152" height="31" viewBox="0 0 152 31" fill="none" xmlns="http://www.w3.org/2000/svg">
<mask id="mask0_2390_3148" style="mask-type:luminance" maskUnits="userSpaceOnUse" x="0" y="0" width="152" height="31">
<path d="M152 0H0V30.4H152V0Z" fill="white"/>
</mask>
<g mask="url(#mask0_2390_3148)">
<path d="M15.345 30.0194C15.4173 30.0194 15.4173 30.0194 15.4898 30.0194C16.6479 30.0194 17.7337 29.7154 18.6022 28.9554C19.1812 28.4994 19.6154 27.9674 20.0498 27.2834C20.2669 26.8274 20.4841 26.3714 20.5564 25.9154V25.8394C20.5564 25.7634 20.5564 25.7634 20.5564 25.6874C21.2079 23.1794 21.8592 20.6714 22.5107 18.1634C22.8003 16.2634 21.8592 15.3514 20.6288 15.0474C22.2211 14.8194 23.5241 13.6034 24.1031 12.0834C24.7545 9.65137 25.3337 7.21937 25.985 4.78737C26.0573 4.48337 26.1298 4.17937 26.2022 3.87537C26.2745 3.57137 26.2745 3.26737 26.2745 2.96337C26.2022 2.35537 25.985 1.74737 25.6231 1.21537C25.1888 0.759367 24.6822 0.379366 24.1031 0.227366C23.8137 0.151366 23.5241 0.151367 23.2345 0.151367C22.945 0.151367 22.6554 0.151367 22.366 0.151367C17.5888 0.151367 12.7392 0.151367 7.96218 0.151367L0.362183 29.8674C5.28409 29.8674 10.2784 29.8674 15.2003 29.8674C15.2003 30.0194 15.2726 30.0194 15.345 30.0194ZM14.1869 4.48337C14.9107 4.48337 15.5622 4.48337 16.286 4.48337C16.6479 4.48337 17.0098 4.48337 17.2992 4.48337C17.4441 4.48337 17.6612 4.48337 17.806 4.48337C17.8784 4.48337 17.9507 4.48337 18.0954 4.48337C18.1679 4.48337 18.2403 4.55937 18.3126 4.63537C18.4573 4.78737 18.5298 4.93937 18.5298 5.16737C18.5298 5.24337 18.4573 5.62337 18.385 5.69937C18.3126 6.15537 18.2403 6.45937 18.0954 6.83937C17.8784 7.52337 17.7337 8.28337 17.5888 8.96737C17.3717 9.65137 17.2269 10.4114 17.0098 11.0954C16.9373 11.4754 16.865 11.7794 16.7203 12.1594C16.6479 12.5394 16.3584 12.8434 16.0688 12.9954C15.7069 13.2234 15.4173 13.2234 15.0554 13.2234C14.6937 13.2234 14.3317 13.2234 14.0422 13.2234C13.3184 13.2234 12.6669 13.2234 11.9431 13.2234L14.1869 4.48337ZM14.3317 21.5834C14.1145 22.2674 13.9698 23.0274 13.7526 23.7114C13.6803 24.0914 13.6079 24.3954 13.4631 24.7754C13.3907 25.1554 13.1012 25.4594 12.8117 25.6114C12.4498 25.8394 12.1603 25.8394 11.7984 25.8394C11.4364 25.8394 11.0745 25.8394 10.785 25.8394C10.0611 25.8394 9.40983 25.8394 8.68601 25.8394L10.8573 17.1754C11.5811 17.1754 12.2326 17.1754 12.9564 17.1754C13.3184 17.1754 13.6803 17.1754 13.9698 17.1754C14.1145 17.1754 14.3317 17.1754 14.4764 17.1754C14.5488 17.1754 14.6212 17.1754 14.766 17.1754C14.8384 17.1754 14.9107 17.2514 14.9831 17.3274C15.1279 17.4794 15.2003 17.6314 15.2003 17.8594C15.2003 17.9354 15.0554 18.3154 15.0554 18.3914C14.9831 18.7714 14.9107 19.0754 14.766 19.4554C14.6937 20.2154 14.5488 20.8994 14.3317 21.5834Z" fill="#FF0000"/>
<path d="M123.048 25.8395C121.673 25.8395 120.298 25.8395 118.995 25.8395C118.343 25.8395 117.62 25.8395 116.968 25.8395C116.823 25.8395 116.606 25.8395 116.462 25.8395C116.317 25.8395 116.1 25.8395 115.955 25.8395C115.593 25.8395 115.376 25.4595 115.448 25.0795C116.172 22.3435 116.823 19.5315 117.547 16.7955C118.923 11.2475 120.37 5.77554 121.745 0.227539C121.239 0.227539 120.66 0.227539 120.153 0.227539C120.008 0.227539 118.705 0.227539 118.561 0.227539C117.475 0.227539 116.389 0.60754 115.521 1.29154C114.58 1.97554 113.928 2.88754 113.494 3.95154C113.277 4.48354 113.204 5.01554 113.06 5.54754C112.915 6.07954 112.77 6.61154 112.625 7.14354C111.54 11.4755 110.382 15.8835 109.296 20.2155C109.006 21.2795 108.717 22.4195 108.5 23.4835C108.355 24.0155 108.21 24.5475 108.065 25.0795C107.993 25.3835 107.921 25.6115 107.848 25.9155C107.776 26.2195 107.703 26.4475 107.703 26.7515C107.631 27.8155 107.993 28.8035 108.789 29.4115C109.151 29.7155 109.658 29.9435 110.092 30.0195C110.309 30.0195 110.599 30.0195 110.816 30.0195C111.105 30.0195 111.323 30.0195 111.612 30.0195C111.829 30.0195 111.974 30.0195 112.191 30.0195C116.462 30.0195 120.804 30.0195 125.075 30.0195C123.7 29.1075 123.048 27.9675 123.048 25.8395Z" fill="#FF0000"/>
<path d="M128.115 30.0204C128.332 30.0204 128.549 30.0964 128.839 30.0964C129.056 30.0964 129.273 30.0964 129.562 30.0964C129.997 30.0964 130.503 30.0964 130.938 30.0964C131.879 30.0964 132.819 30.0964 133.76 30.0964C134.701 30.0964 135.642 30.0964 136.583 30.0964C137.017 30.0964 137.525 30.0964 137.958 30.0964C138.176 30.0964 139.189 30.0964 139.334 30.0964C141.289 30.0204 143.026 28.8804 144.038 27.1324C144.256 26.6764 144.473 26.2964 144.546 25.8404C144.69 25.3844 144.762 24.9284 144.908 24.4724C145.125 23.5604 145.414 22.5724 145.631 21.6604C146.572 17.8604 147.586 14.0604 148.527 10.2604C149.033 8.36037 149.468 6.46037 149.974 4.56037C150.118 4.02837 150.191 3.72437 150.191 3.11637C150.191 2.58437 149.974 2.12837 149.756 1.74837C149.25 0.91237 148.309 0.380371 147.369 0.380371C143.605 0.380371 139.913 0.380371 136.149 0.380371C134.195 0.380371 132.386 1.44437 131.372 3.11637C131.155 3.49637 130.938 3.95237 130.793 4.40837C130.721 4.63637 130.503 5.54837 130.431 5.77637C130.214 6.68837 129.924 7.67637 129.707 8.58837C128.766 12.3884 127.753 16.1884 126.812 19.9884C126.595 20.9004 126.305 21.8884 126.088 22.8004C125.943 23.2564 125.871 23.7124 125.726 24.2444C125.581 24.7004 125.509 25.1564 125.364 25.6884C124.858 27.6644 126.161 29.6404 128.115 30.0204ZM132.892 25.0044C132.892 24.8524 132.965 24.7764 132.965 24.6244C133.109 24.0924 133.254 23.5604 133.398 23.0284C133.689 21.9644 133.906 20.9004 134.195 19.8364C134.701 17.7084 135.28 15.6564 135.788 13.5284C136.294 11.4004 136.873 9.34837 137.379 7.22037C137.525 6.68837 137.669 6.15637 137.814 5.62437C137.814 5.47237 137.887 5.39637 137.958 5.24437C138.031 5.09237 138.103 5.01637 138.176 4.86437C138.393 4.63637 138.61 4.48437 138.828 4.40837C139.116 4.33237 139.334 4.33237 139.623 4.33237C139.913 4.33237 140.13 4.33237 140.419 4.33237C140.927 4.33237 141.433 4.33237 141.939 4.33237C142.229 4.33237 142.447 4.56037 142.518 4.78837C142.518 4.94037 142.518 5.09237 142.447 5.16837C142.447 5.32037 142.374 5.39637 142.374 5.54837C142.229 6.08037 142.085 6.61237 141.939 7.14437C141.65 8.20837 141.433 9.27237 141.143 10.2604C140.636 12.3884 140.057 14.4404 139.551 16.5684C139.045 18.6964 138.466 20.7484 137.958 22.8764C137.814 23.4084 137.669 23.9404 137.525 24.4724C137.525 24.6244 137.452 24.7004 137.379 24.8524C137.308 25.0044 137.235 25.0804 137.162 25.2324C136.946 25.4604 136.729 25.6124 136.511 25.6884C136.221 25.7644 136.005 25.7644 135.715 25.7644C135.426 25.7644 135.209 25.7644 134.918 25.7644C134.412 25.7644 133.906 25.7644 133.398 25.7644C133.109 25.7644 132.892 25.5364 132.819 25.3084C132.819 25.3084 132.819 25.0804 132.892 25.0044Z" fill="#FF0000"/>
<path d="M80.7054 30.0192H85.4827L89.8254 22.8752H98.0769L97.4254 30.0192H104.519L107.342 0.303223C106.473 0.303223 105.605 0.303223 104.736 0.303223C104.302 0.303223 103.867 0.303223 103.433 0.303223C102.999 0.303223 102.565 0.303223 102.13 0.303223C100.393 0.379223 98.7282 1.21522 97.5701 2.58322C97.2807 2.88722 97.0635 3.26722 96.8465 3.64722C96.6293 4.02722 96.4121 4.40722 96.1226 4.78722C95.6882 5.54722 95.1816 6.30722 94.7474 7.06722C93.8063 8.58722 92.8654 10.1072 91.9246 11.6272C88.1607 17.7832 84.3969 23.9392 80.7054 30.0192ZM99.5969 6.91522L98.5112 18.6952H92.4312L99.5969 6.91522Z" fill="#FF0000"/>
<path d="M23.9592 23.8644C23.7422 24.6244 23.525 25.4604 23.3803 26.2204C23.3079 26.6004 23.2356 26.9804 23.3079 27.4364C23.3803 27.8924 23.4526 28.1964 23.6698 28.5764C24.1041 29.2604 24.7556 29.7924 25.5517 29.9444C25.9137 30.0204 26.3479 30.0204 26.7098 30.0204C27.0717 30.0204 27.506 30.0204 27.8679 30.0204C29.3879 30.0204 30.9803 30.0204 32.5003 30.0204C34.0203 30.0204 35.5403 30.0204 37.1326 30.0204C37.4945 30.0204 37.8565 30.0204 38.2184 29.9444C38.5803 29.8684 38.9422 29.7924 39.3765 29.6404C40.1003 29.3364 40.8241 28.8804 41.4031 28.2724C41.9822 27.6644 42.4165 26.9804 42.706 26.2204C42.8507 25.8404 42.9231 25.4604 42.9956 25.0804C43.0679 24.7004 43.2126 24.3204 43.285 23.9404C43.7192 22.3444 44.0812 20.8244 44.5156 19.2284C46.1079 12.9204 47.7003 6.61237 49.365 0.380371H41.9822C40.8241 4.94037 39.666 9.57637 38.5079 14.1364C37.9288 16.4164 37.3498 18.6964 36.7707 21.0524C36.4812 22.1924 36.1917 23.3324 35.9022 24.4724C35.8298 24.7764 35.7575 25.0044 35.6126 25.3084C35.4679 25.5364 35.2507 25.7644 34.9612 25.9164C34.6717 26.0684 34.4545 26.0684 34.165 26.0684C33.8756 26.0684 33.586 26.0684 33.2965 26.0684C33.0069 26.0684 32.7175 26.0684 32.4279 26.0684C32.2831 26.0684 32.1384 26.0684 31.9937 26.0684C31.9212 26.0684 31.6317 26.0684 31.5592 26.0684C31.2698 25.9924 31.0526 25.6884 31.125 25.3844C31.125 25.3084 31.1975 25.0044 31.1975 24.9284C31.2698 24.7764 31.2698 24.6244 31.3422 24.4724C31.6317 23.3324 31.9212 22.1924 32.2107 21.0524C32.7898 18.7724 33.3688 16.4924 33.9479 14.2124C35.106 9.65237 36.2641 5.01637 37.4945 0.456371H30.1117C28.5192 6.76437 26.9269 13.0724 25.2622 19.3044C24.7556 20.7484 24.3937 22.2684 23.9592 23.8644Z" fill="#FF0000"/>
<path d="M51.8262 30.0195L54.7214 18.6955H63.5519L65.5786 14.5155H55.8071C56.2414 12.7675 56.6756 11.0955 57.11 9.34754C57.3271 8.51154 57.5443 7.59954 57.7614 6.76354C57.8339 6.30754 57.9786 5.92754 58.1956 5.54754C58.4128 5.16754 58.7747 4.86354 59.1366 4.63554C59.5709 4.40754 59.9328 4.40754 60.3671 4.40754C60.8014 4.40754 61.2356 4.40754 61.67 4.40754C62.5386 4.40754 63.4071 4.40754 64.2033 4.40754C65.9405 4.40754 67.6052 4.40754 69.3424 4.40754C69.7766 2.65954 70.5728 1.21554 72.1652 0.227539C68.1843 0.227539 64.1309 0.227539 60.15 0.227539C58.9194 0.227539 57.689 0.227539 56.3862 0.227539H56.3139C56.2414 0.227539 56.2414 0.227539 56.169 0.227539C56.0966 0.227539 55.9519 0.227539 55.8794 0.227539C55.6624 0.227539 55.5175 0.303539 55.3005 0.303539C54.9386 0.379539 54.5043 0.531539 54.1424 0.683539C53.2014 1.13954 52.3328 1.82354 51.7537 2.65954C51.4643 3.11554 51.2471 3.57154 51.03 4.02754C50.8852 4.40754 50.7405 5.09154 50.5956 5.47154C48.4966 13.6795 46.47 21.7355 44.3709 29.9435H51.8262V30.0195Z" fill="#FF0000"/>
<path d="M65.7222 30.0195H73.105L76.0003 18.6955H84.7583L86.8573 14.5155H77.086C77.5203 12.6915 78.0269 10.8675 78.4611 9.04354C78.6783 8.13154 78.8954 7.21954 79.185 6.30754C79.2573 6.07954 79.3298 5.85154 79.4022 5.69954C79.5469 5.47154 79.6192 5.31954 79.8364 5.09154C80.126 4.71154 80.5602 4.48354 80.9945 4.40754C81.2117 4.33154 81.4288 4.40754 81.646 4.40754C81.863 4.40754 82.0803 4.40754 82.2973 4.40754C82.7317 4.40754 83.166 4.40754 83.6726 4.40754C84.5411 4.40754 85.4822 4.40754 86.3507 4.40754C88.1603 4.40754 89.9698 4.40754 91.7792 4.40754C92.2136 2.65954 93.0098 1.21554 94.6022 0.227539C90.4764 0.227539 86.423 0.227539 82.2973 0.227539C80.9945 0.227539 79.6192 0.227539 78.3164 0.227539C78.0992 0.227539 77.8822 0.227539 77.665 0.227539H77.5926C77.5203 0.227539 77.4479 0.227539 77.3754 0.227539C77.2307 0.227539 77.086 0.227539 76.9411 0.303539C76.6517 0.379539 76.3622 0.37954 76.145 0.45554C75.1317 0.75954 74.1907 1.36754 73.5392 2.20354C73.1773 2.58354 72.8879 3.03954 72.6707 3.57154C72.3811 4.17954 72.3088 4.55954 72.1641 5.01554C69.9926 13.3755 67.8936 21.7355 65.7222 30.0195Z" fill="#FF0000"/>
<path d="M146.934 29.867V26.9029H145.92V26.5229H148.454V26.9029H147.44V29.867H146.934Z" fill="#FF0000"/>
<path d="M148.814 29.867V26.5229H149.466L150.19 28.8789C150.263 29.1069 150.334 29.2589 150.334 29.3349C150.334 29.1829 150.407 29.0309 150.48 28.8029L151.275 26.5229H151.854V29.867H151.421V27.0549L150.48 29.867H150.117L149.176 27.0549V29.867H148.814Z" fill="#FF0000"/>
</g>
</svg>
