<svg width="174" height="50" viewBox="0 0 174 50" fill="none" xmlns="http://www.w3.org/2000/svg">
<path d="M157.022 22.1231H158.602C158.771 22.1231 158.876 22.1758 158.918 22.2811C158.981 22.3654 158.96 22.4813 158.855 22.6288L154.209 29.8346V29.961L159.329 37.7357C159.413 37.8832 159.424 38.0096 159.361 38.1149C159.297 38.1992 159.181 38.2414 159.013 38.2414H157.528C157.127 38.2414 156.832 38.0939 156.643 37.7989L151.776 30.277C151.649 30.0663 151.649 29.8451 151.776 29.6133L156.263 22.534C156.39 22.26 156.643 22.1231 157.022 22.1231ZM149.753 38.2414H148.331C148.036 38.2414 147.888 38.0939 147.888 37.7989V16.4659C147.888 16.1709 148.036 16.0234 148.331 16.0234H149.753C150.048 16.0234 150.195 16.1709 150.195 16.4659V37.7989C150.195 38.0939 150.048 38.2414 149.753 38.2414Z" fill="white"/>
<path d="M139.537 38.2413H138.115C137.82 38.2413 137.672 38.0938 137.672 37.7988V22.5655C137.672 22.2705 137.82 22.123 138.115 22.123H139.537C139.832 22.123 139.979 22.2705 139.979 22.5655V23.8297H140.106C140.317 23.3662 140.717 22.9658 141.307 22.6287C141.897 22.2916 142.592 22.123 143.393 22.123H144.625C144.899 22.123 145.036 22.2705 145.036 22.5655V23.7349C145.036 23.8824 145.005 23.9982 144.941 24.0825C144.878 24.1457 144.773 24.1668 144.625 24.1457H142.919C141.971 24.1457 141.244 24.4302 140.738 24.9991C140.232 25.5679 139.979 26.3475 139.979 27.3378V37.7988C139.979 38.0938 139.832 38.2413 139.537 38.2413Z" fill="white"/>
<path d="M128.95 38.2413H126.232C124.778 38.2413 123.63 37.8305 122.787 37.0087C121.965 36.187 121.554 35.0387 121.554 33.5639V26.8005C121.554 25.3256 121.965 24.1773 122.787 23.3556C123.63 22.5339 124.778 22.123 126.232 22.123H128.95C130.403 22.123 131.541 22.5339 132.363 23.3556C133.206 24.1773 133.627 25.3256 133.627 26.8005V33.5639C133.627 35.0387 133.206 36.187 132.363 37.0087C131.541 37.8305 130.403 38.2413 128.95 38.2413ZM126.484 36.2186H128.697C130.467 36.2186 131.352 35.3126 131.352 33.5006V26.8637C131.352 25.0517 130.467 24.1457 128.697 24.1457H126.484C124.715 24.1457 123.83 25.0517 123.83 26.8637V33.5006C123.83 35.3126 124.715 36.2186 126.484 36.2186Z" fill="white"/>
<path d="M105.197 38.2413H103.269C102.974 38.2413 102.795 38.0938 102.732 37.7988L98.6867 22.5655C98.6235 22.2705 98.7289 22.123 99.0028 22.123H100.615C100.888 22.123 101.057 22.2705 101.12 22.5655L104.186 35.4601H104.376L107.631 22.5655C107.694 22.2705 107.863 22.123 108.136 22.123H109.59C109.885 22.123 110.075 22.2705 110.159 22.5655L113.32 35.4601H113.509L116.606 22.5655C116.67 22.2705 116.838 22.123 117.112 22.123H118.724C118.998 22.123 119.103 22.2705 119.04 22.5655L114.995 37.7988C114.931 38.0938 114.752 38.2413 114.457 38.2413H112.498C112.224 38.2413 112.055 38.0938 111.992 37.7988L108.927 25.2203H108.769L105.735 37.7988C105.671 38.0938 105.492 38.2413 105.197 38.2413Z" fill="white"/>
<path d="M89.7862 24.1453H88.0479C87.753 24.1453 87.6055 24.0083 87.6055 23.7344V22.5651C87.6055 22.2701 87.753 22.1226 88.0479 22.1226H89.7862C89.9969 22.1226 90.1022 22.0278 90.1022 21.8382V19.1202C90.1022 18.8252 90.2497 18.6777 90.5447 18.6777H91.9669C92.2408 18.6777 92.3777 18.8252 92.3777 19.1202V21.8382C92.3777 22.0278 92.4936 22.1226 92.7254 22.1226H96.0755C96.3915 22.1226 96.5495 22.2701 96.5495 22.5651V23.7344C96.5495 24.0083 96.3915 24.1453 96.0755 24.1453H92.7254C92.4936 24.1453 92.3777 24.2401 92.3777 24.4297V33.5318C92.3777 35.3227 93.3048 36.2182 95.1589 36.2182H96.3915C96.7075 36.2182 96.8656 36.3657 96.8656 36.6607V37.83C96.8656 38.1039 96.7075 38.2409 96.3915 38.2409H94.8745C93.4207 38.2409 92.2619 37.8406 91.398 37.0399C90.5341 36.2182 90.1022 35.0804 90.1022 33.6266V24.4297C90.1022 24.2401 89.9969 24.1453 89.7862 24.1453Z" fill="#009BDD"/>
<path d="M79.172 38.2413H77.5285C76.0747 38.2413 74.9264 37.8305 74.0836 37.0087C73.2619 36.187 72.8511 35.0387 72.8511 33.5639V26.8005C72.8511 25.3256 73.2619 24.1773 74.0836 23.3556C74.9264 22.5339 76.0747 22.123 77.5285 22.123H84.3867C84.6817 22.123 84.8292 22.2705 84.8292 22.5655V37.7988C84.8292 38.0938 84.6817 38.2413 84.3867 38.2413H82.9645C82.6695 38.2413 82.522 38.0938 82.522 37.7988V36.5663H82.3956C81.8689 37.683 80.7943 38.2413 79.172 38.2413ZM82.522 33.311V24.4302C82.522 24.2405 82.4167 24.1457 82.206 24.1457H77.7814C76.0326 24.1457 75.1582 25.0623 75.1582 26.8953V33.469C75.1582 35.3021 76.0326 36.2186 77.7814 36.2186H79.5828C80.5309 36.2186 81.2579 35.9658 81.7635 35.4601C82.2692 34.9544 82.522 34.2381 82.522 33.311Z" fill="#009BDD"/>
<path d="M64.9621 38.2413H59.3365C59.0415 38.2413 58.894 38.0938 58.894 37.7988V36.6927C58.894 36.4188 59.0415 36.2818 59.3365 36.2818H64.646C66.2894 36.2818 67.1112 35.6708 67.1112 34.4488V33.8483C67.1112 32.7316 66.5739 31.9626 65.4993 31.5412L61.77 29.9609C60.6954 29.5185 59.9264 29.0023 59.4629 28.4123C58.9993 27.8013 58.7676 27.0007 58.7676 26.0104C58.7676 23.4188 60.1898 22.123 63.0342 22.123H68.2173C68.5123 22.123 68.6598 22.2705 68.6598 22.5655V23.6717C68.6598 23.9456 68.5123 24.0825 68.2173 24.0825H63.445C62.6865 24.0825 62.1071 24.2405 61.7068 24.5566C61.3275 24.8726 61.1379 25.2414 61.1379 25.6627V26.2C61.1379 27.0849 61.7384 27.7592 62.9394 28.2227L66.6687 29.8977C67.7643 30.3191 68.5017 30.8775 68.881 31.5728C69.2813 32.2681 69.4815 33.2267 69.4815 34.4488C69.4815 36.9771 67.975 38.2413 64.9621 38.2413Z" fill="white"/>
<path d="M55.0009 38.2413H48.3007C46.8469 38.2413 45.6987 37.8305 44.8559 37.0087C44.0342 36.187 43.6233 35.0387 43.6233 33.5639V26.8005C43.6233 25.3256 44.0342 24.1773 44.8559 23.3556C45.6987 22.5339 46.8469 22.123 48.3007 22.123H50.9555C52.4093 22.123 53.5471 22.5339 54.3688 23.3556C55.1905 24.1773 55.6014 25.3256 55.6014 26.8005V30.8143C55.6014 31.1303 55.4539 31.2883 55.1589 31.2883H46.2149C46.0042 31.2883 45.8988 31.3831 45.8988 31.5728V33.5006C45.8988 35.3337 46.7837 36.2502 48.5536 36.2502H55.0009C55.2959 36.2502 55.4434 36.3977 55.4434 36.6927V37.8305C55.4434 38.1044 55.2959 38.2413 55.0009 38.2413ZM46.2149 29.6133H53.0414C53.2521 29.6133 53.3575 29.508 53.3575 29.2973V26.8637C53.3575 25.0517 52.4725 24.1457 50.7027 24.1457H48.5536C46.7837 24.1457 45.8988 25.0517 45.8988 26.8637V29.2973C45.8988 29.508 46.0042 29.6133 46.2149 29.6133Z" fill="white"/>
<path d="M33.5213 24.1453H31.783C31.4881 24.1453 31.3406 24.0083 31.3406 23.7344V22.5651C31.3406 22.2701 31.4881 22.1226 31.783 22.1226H33.5213C33.732 22.1226 33.8373 22.0278 33.8373 21.8382V19.1202C33.8373 18.8252 33.9848 18.6777 34.2798 18.6777H35.702C35.9759 18.6777 36.1128 18.8252 36.1128 19.1202V21.8382C36.1128 22.0278 36.2287 22.1226 36.4605 22.1226H39.8106C40.1266 22.1226 40.2846 22.2701 40.2846 22.5651V23.7344C40.2846 24.0083 40.1266 24.1453 39.8106 24.1453H36.4605C36.2287 24.1453 36.1128 24.2401 36.1128 24.4297V33.5318C36.1128 35.3227 37.0399 36.2182 38.894 36.2182H40.1266C40.4427 36.2182 40.6007 36.3657 40.6007 36.6607V37.83C40.6007 38.1039 40.4427 38.2409 40.1266 38.2409H38.6096C37.1558 38.2409 35.997 37.8406 35.1331 37.0399C34.2693 36.2182 33.8373 35.0804 33.8373 33.6266V24.4297C33.8373 24.2401 33.732 24.1453 33.5213 24.1453Z" fill="white"/>
<path d="M19.5874 43.2032H18.1968C17.9018 43.2032 17.7543 43.0557 17.7543 42.7607V41.5914C17.7543 41.2964 17.9018 41.1489 18.1968 41.1489H18.9869C20.3354 41.1489 21.2835 40.7697 21.8313 40.0112C22.2738 39.4001 22.6741 38.5258 23.0323 37.388H22.1158C21.8629 37.388 21.6838 37.2405 21.5785 36.9455L16.9326 22.5655C16.8484 22.2705 16.9537 22.123 17.2487 22.123H18.7657C19.0396 22.123 19.2187 22.2705 19.303 22.5655L23.3799 35.5865H23.5064L27.5833 22.5655C27.6465 22.2705 27.8151 22.123 28.089 22.123H29.5428C29.901 22.123 30.0274 22.2811 29.9221 22.5971L25.213 37.6092C24.6863 39.4001 24.012 40.7802 23.1903 41.7494C22.3897 42.7186 21.1887 43.2032 19.5874 43.2032Z" fill="white"/>
<path d="M4.80383 36.2187H9.29166C11.0826 36.2187 11.978 35.3021 11.978 33.4691V26.7057C11.978 24.8727 11.0826 23.9562 9.29166 23.9562H7.427C6.47887 23.9562 5.75197 24.209 5.24629 24.7147C4.74062 25.2203 4.48779 25.9262 4.48779 26.8322V35.9342C4.48779 36.1239 4.59314 36.2187 4.80383 36.2187ZM2.18066 37.7989V16.4659C2.18066 16.1709 2.32815 16.0234 2.62313 16.0234H4.04533C4.3403 16.0234 4.48779 16.1709 4.48779 16.4659V23.6085H4.61421C5.14095 22.4918 6.2155 21.9335 7.83786 21.9335H9.60771C11.0404 21.9335 12.1677 22.3443 12.9894 23.166C13.8322 23.9878 14.2536 25.1255 14.2536 26.5793V33.5639C14.2536 35.0388 13.8322 36.1871 12.9894 37.0088C12.1677 37.8305 11.0404 38.2414 9.60771 38.2414H2.62313C2.32815 38.2414 2.18066 38.0939 2.18066 37.7989Z" fill="white"/>
<rect x="170.277" width="3.72279" height="3.72279" rx="0.16186" fill="#009BDD"/>
<rect x="154.901" y="12.625" width="4.37023" height="4.37023" rx="0.485581" fill="#009BDD"/>
<rect x="161.213" y="12.3018" width="7.44558" height="7.44558" rx="0.485581" fill="#009BDD"/>
<rect x="154.415" y="3.72363" width="6.31256" height="6.31256" rx="0.485581" fill="#009BDD"/>
<rect x="164.45" y="5.01758" width="4.69395" height="4.69395" rx="0.485581" fill="#009BDD"/>
</svg>
