<svg width="89" height="52" viewBox="0 0 89 52" fill="none" xmlns="http://www.w3.org/2000/svg">
<path d="M35.764 40.3191C34.5218 40.3191 33.812 39.2544 33.8393 38.3671C33.8666 37.5481 34.4672 36.5243 35.5319 35.5415L37.716 39.9096C36.9925 40.2645 36.4192 40.3191 35.764 40.3191ZM39.6407 23.9387C40.6645 24.007 41.1695 24.5121 41.1013 25.3311C41.0603 25.8634 40.1457 27.1875 38.7671 28.3887C38.4531 27.8564 37.7296 26.5459 37.7296 25.7815C37.716 24.8124 38.6169 23.8705 39.6407 23.9387ZM50.3698 32.8251H43.8723C43.8723 32.8251 43.4628 34.1082 42.5072 35.5961L40.8692 32.4292C43.5583 30.8048 46.575 28.2113 46.575 24.5121C46.575 20.1713 41.5381 20.0894 40.2276 20.0894C37.3747 20.0894 33.0066 21.7274 32.2695 25.5631C31.7099 28.4706 33.1158 30.8731 33.4434 31.3782C31.0956 32.5521 28.5703 34.3403 27.6011 37.9986C26.2907 42.94 28.9115 45.4926 32.9384 45.4926C34.9586 45.4926 37.3338 44.9466 39.7089 43.8409L40.2413 44.892H47.3258L44.9506 40.3328C47.1074 38.3944 49.0184 35.9101 50.3698 32.8251Z" fill="white"/>
<path d="M22.2365 5.3335C29.9762 5.3335 33.1158 8.55497 32.9656 12.8275C32.8155 17.1001 31.8736 20.3898 31.8736 20.3898H21.7997C21.7997 20.3898 22.2774 17.5232 22.6733 15.5985C22.96 14.1789 22.4958 12.459 20.8442 12.459C20.0661 12.459 18.8376 12.8275 18.2097 14.7795C16.5307 20.0212 14.8517 29.4672 14.2647 32.2382C14.0463 34.6407 12.8724 38.3263 15.698 38.3263C17.8547 38.3263 18.8103 36.2787 19.5201 32.0062C19.8067 30.259 20.2435 28.8666 20.2435 28.8666L30.2492 28.7847C29.5258 36.4971 24.7754 45.5746 13.8279 45.5746C5.93803 45.5746 3.01686 41.8344 3.09876 37.1797C3.16701 32.5386 3.97238 29.6856 5.21456 23.8433C6.45674 18.001 6.74339 16.5813 8.64079 12.3088C10.5655 8.02261 15.8891 5.3335 22.2365 5.3335ZM83.6219 7.68135V7.24454H83.8949C83.9359 7.24454 83.9632 7.24454 84.0041 7.25819C84.0451 7.25819 84.0724 7.27184 84.0997 7.28549C84.127 7.29914 84.1543 7.32644 84.1679 7.35374C84.1816 7.38104 84.1952 7.42199 84.1952 7.46294C84.1952 7.51754 84.1816 7.5585 84.1679 7.5858C84.1543 7.6131 84.127 7.6404 84.086 7.65405C84.0587 7.6677 84.0178 7.68135 83.9768 7.68135C83.9359 7.68135 83.8949 7.68135 83.8403 7.68135H83.6219ZM83.4172 7.06708V8.44576H83.6219V7.8588H83.8403L84.2089 8.44576H84.4273L84.0451 7.8315C84.1406 7.81785 84.2225 7.79055 84.2908 7.73595C84.359 7.68135 84.3863 7.5858 84.3863 7.46294C84.3863 7.32644 84.3454 7.23089 84.2771 7.16264C84.1952 7.09438 84.086 7.06708 83.9222 7.06708H83.4172ZM82.9804 8.15911C82.9394 8.03626 82.9121 7.89975 82.9121 7.76325C82.9121 7.62675 82.9394 7.49024 82.9804 7.36739C83.035 7.24454 83.0896 7.13534 83.1851 7.05343C83.267 6.95788 83.3762 6.88963 83.4854 6.84868C83.5946 6.79408 83.7311 6.76678 83.8676 6.76678C84.0041 6.76678 84.127 6.79408 84.2362 6.84868C84.3454 6.90328 84.4546 6.97153 84.5365 7.05343C84.6184 7.14899 84.6866 7.24454 84.7412 7.36739C84.7959 7.49024 84.8095 7.6131 84.8095 7.76325C84.8095 7.9134 84.7822 8.04991 84.7412 8.15911C84.7003 8.28196 84.632 8.39116 84.5365 8.47307C84.4546 8.56862 84.359 8.63687 84.2362 8.69147C84.127 8.74607 84.0041 8.77337 83.8676 8.77337C83.7311 8.77337 83.6083 8.74607 83.4854 8.69147C83.3762 8.63687 83.267 8.56862 83.1851 8.47307C83.1032 8.39116 83.035 8.28196 82.9804 8.15911ZM82.8029 7.28549C82.7483 7.43564 82.7074 7.5858 82.7074 7.7496C82.7074 7.92705 82.7347 8.07721 82.8029 8.22736C82.8575 8.37751 82.9531 8.50037 83.0486 8.59592C83.1578 8.70512 83.2807 8.78702 83.4172 8.84162C83.5537 8.89623 83.7038 8.92352 83.8676 8.92352C84.0314 8.92352 84.1679 8.89623 84.3181 8.84162C84.4546 8.78702 84.5775 8.70512 84.6867 8.59592C84.7959 8.48672 84.8778 8.36386 84.9324 8.22736C84.987 8.07721 85.0279 7.92705 85.0279 7.7496C85.0279 7.5858 85.0006 7.43564 84.9324 7.28549C84.8778 7.13533 84.7822 7.01248 84.6867 6.91693C84.5775 6.80773 84.4546 6.72583 84.3181 6.67122C84.1816 6.61662 84.0314 6.57567 83.8676 6.57567C83.7038 6.57567 83.5673 6.60297 83.4172 6.67122C83.2807 6.72583 83.1578 6.80773 83.0486 6.91693C82.9394 7.02613 82.8575 7.14899 82.8029 7.28549ZM82.3251 6.38457H70.9408L61.8224 20.9767L64.8118 6.38457H54.2328L46.4112 44.8921H56.9219L59.0241 34.5998L61.0034 32.1427L63.6379 44.8784H75.5409L69.5348 23.229L82.3251 6.38457Z" fill="#AC1F2D"/>
</svg>
