<svg width="85" height="24" viewBox="0 0 85 24" fill="none" xmlns="http://www.w3.org/2000/svg">
<path d="M13.9785 5.85069H20.0972V4.16699H13.9785V5.85069Z" fill="#D21C2E"/>
<path d="M8.87718 18.941C8.55118 19.1145 7.96818 19.289 7.18678 19.289C4.68098 19.289 3.01538 17.4333 3.01538 13.9625C3.01538 10.8011 4.76458 8.42761 7.56138 8.42761C8.18488 8.42761 8.58978 8.57911 8.87718 8.73421V10.5706C8.64858 10.477 8.11598 10.3347 7.60728 10.3347C6.10058 10.3347 5.32378 11.9746 5.32378 13.9166C5.32378 16.0753 6.19608 17.3901 7.60918 17.3901C8.03518 17.3901 8.54018 17.3066 8.87718 17.1395V18.941Z" fill="white"/>
<path d="M17.8161 17.436L17.817 13.7136C16.9172 13.7256 15.2837 13.9744 15.2837 15.8117C15.2837 17.0045 15.9191 17.4351 16.4278 17.4351L17.8161 17.436ZM20.0951 16.595C20.0951 17.414 20.1456 18.458 20.2576 19.1577H15.7299C14.2167 19.1577 13.0745 17.9016 13.0745 16.0505C13.0745 13.3372 15.3672 12.1922 17.7555 12.1701V11.9837C17.7555 10.8837 17.3249 10.1106 16.178 10.1106C15.4233 10.1106 14.5601 10.331 13.989 10.6964V9.11713C14.5078 8.78753 15.3948 8.36243 16.6812 8.36243C19.3991 8.36243 20.0951 10.129 20.0951 12.3758V16.595Z" fill="white"/>
<path d="M30.2747 17.4203H28.9268C27.9563 17.4203 27.3943 15.9558 27.3943 13.8476C27.3943 11.9598 27.813 10.2942 28.9837 10.2942C29.6669 10.2942 30.1416 11.0453 30.2407 11.8937C30.2747 12.1076 30.2747 12.3427 30.2747 12.5438V17.4203ZM32.5803 16.593L32.5757 5.24414H30.2747V9.48064H30.2306C29.8927 8.75164 29.2537 8.33384 28.3832 8.33384C26.6781 8.33384 25.0869 10.1114 25.0869 13.8164C25.0869 16.997 26.2328 19.1502 28.2749 19.1502L32.7428 19.1539C32.6317 18.4533 32.5803 17.4121 32.5803 16.593Z" fill="white"/>
<path d="M42.6846 12.8426C42.7021 11.1486 42.1466 10.1422 41.3257 10.1422C40.3203 10.1422 39.8676 11.6049 39.8217 12.8426H42.6846ZM39.8116 14.4899C39.8364 16.8497 40.9318 17.4906 42.164 17.4906C42.9353 17.4906 43.7525 17.317 44.2217 17.116V18.7807C43.5634 19.091 42.7094 19.2774 41.7444 19.2774C39.0229 19.2774 37.562 17.3033 37.562 14.0354C37.562 10.5435 39.2359 8.41785 41.4901 8.41785C43.7103 8.41785 44.8286 10.4241 44.8286 13.254C44.8286 13.8563 44.8048 14.1961 44.768 14.4853L39.8116 14.4899Z" fill="white"/>
<path d="M52.1379 10.3813V19.163H49.824V11.5814C49.824 10.3886 49.7644 9.45484 49.7295 8.52014H54.2911C56.0494 8.52014 57.0971 9.80004 57.0971 12.248V19.163H54.7832V12.4683C54.7832 11.4133 54.5592 10.3831 53.5519 10.3831L52.1379 10.3813Z" fill="white"/>
<path d="M67.8778 18.941C67.5519 19.1145 66.9679 19.289 66.1874 19.289C63.6816 19.289 62.0142 17.4333 62.0142 13.9625C62.0142 10.8011 63.7643 8.42761 66.5611 8.42761C67.1855 8.42761 67.5895 8.57911 67.8778 8.73421V10.5706C67.6483 10.477 67.1157 10.3347 66.607 10.3347C65.1003 10.3347 64.3235 11.9746 64.3235 13.9166C64.3235 16.0753 65.1948 17.3901 66.6098 17.3901C67.0368 17.3901 67.5399 17.3066 67.8778 17.1395V18.941Z" fill="white"/>
<path d="M74.2426 12.8426C74.2894 11.6049 74.7421 10.1422 75.7457 10.1422C76.5684 10.1422 77.1239 11.1486 77.1055 12.8426H74.2426ZM79.2486 13.254C79.2486 10.4232 78.1311 8.41785 75.9109 8.41785C73.6577 8.41785 71.9819 10.5435 71.9819 14.0354C71.9819 17.3033 73.4428 19.2774 76.1644 19.2774C77.1312 19.2774 77.9852 19.091 78.6426 18.7807V17.116C78.1715 17.317 77.3562 17.4906 76.5849 17.4906C75.3518 17.4906 74.2582 16.8497 74.2334 14.4899L79.1889 14.4853C79.2256 14.1961 79.2486 13.8563 79.2486 13.254Z" fill="white"/>
<path d="M81.6109 4.61218C82.3769 4.61218 82.9999 5.32378 82.9999 6.19888C82.9999 7.07208 82.3769 7.78368 81.6109 7.78368C80.8429 7.78368 80.2219 7.07208 80.2219 6.19888C80.2219 5.32378 80.8429 4.61218 81.6109 4.61218ZM81.6149 7.54678C82.2539 7.54678 82.7349 6.95818 82.7349 6.19888C82.7349 5.43768 82.2539 4.84998 81.6149 4.84998C80.9689 4.84998 80.4879 5.43768 80.4879 6.19888C80.4879 6.95818 80.9689 7.54678 81.6149 7.54678ZM81.0789 5.26688H81.7039C82.0759 5.26688 82.2619 5.43768 82.2619 5.78938C82.2619 6.08868 82.0959 6.30258 81.8399 6.30258L82.3029 7.12438H82.0229L81.5679 6.30258H81.3449V7.12438H81.0789V5.26688ZM81.3449 6.06568H81.6589C81.8649 6.06568 81.9959 6.01798 81.9959 5.77648C81.9959 5.56528 81.8299 5.50378 81.6589 5.50378H81.3449V6.06568Z" fill="white"/>
</svg>
