<svg width="71" height="22" viewBox="0 0 71 22" fill="none" xmlns="http://www.w3.org/2000/svg">
<path d="M30.0992 10.9455H24.7801C24.0563 10.9455 23.5599 11.3002 23.3408 11.995C23.0789 12.8254 22.8294 13.6598 22.5742 14.4922C22.4737 14.8202 22.3728 15.1479 22.2732 15.4726H17.5928C17.7431 14.9785 17.8894 14.4965 18.0364 14.0149C18.9149 11.1399 19.7834 8.26185 20.6762 5.39145C21.1275 3.94075 22.0251 2.84256 23.4069 2.16906C23.8268 1.96436 24.2748 1.87245 24.7457 1.87285C28.0059 1.87615 31.2663 1.88855 34.5262 1.86785C35.8028 1.85975 36.5744 2.72295 36.6646 3.90605C36.7057 4.44585 36.6132 4.96695 36.4558 5.48135C35.4544 8.75356 34.454 12.0264 33.4579 15.3002C33.4155 15.4392 33.3587 15.4863 33.2074 15.4856C31.7778 15.4783 30.3478 15.4813 28.9181 15.4813H28.7164C29.178 13.9674 29.6349 12.4683 30.0992 10.9455ZM24.404 8.49565C24.4632 8.49935 24.4962 8.50295 24.5293 8.50295C26.3371 8.50335 28.1448 8.50365 29.9526 8.50335C29.9967 8.50335 30.0418 8.49996 30.0849 8.49066C30.64 8.36976 30.9604 7.99455 31.1508 7.48915C31.2269 7.28715 31.2814 7.07705 31.3435 6.86995C31.5082 6.32305 31.6849 5.77925 31.8312 5.22745C31.9468 4.79195 31.7664 4.29685 31.1107 4.30655C29.6259 4.32795 28.1405 4.31555 26.6554 4.31125C26.3491 4.31025 26.0912 4.41415 25.8631 4.60785C25.6105 4.82265 25.4429 5.09185 25.347 5.40815C25.1459 6.07155 24.9432 6.73426 24.7407 7.39736C24.6308 7.75676 24.5203 8.11615 24.404 8.49565Z" fill="white"/>
<path d="M51.6057 9.90345C51.7386 9.46825 51.8626 9.06105 51.9872 8.65385C52.3326 7.52415 52.6505 6.38475 53.031 5.26675C53.5237 3.81875 54.4473 2.72815 55.8723 2.10385C56.2427 1.94155 56.6345 1.87275 57.041 1.87305C60.3239 1.87535 63.6067 1.87405 66.8896 1.87435C67.9989 1.87435 68.7902 2.55945 68.9459 3.65975C68.9753 3.86725 68.981 4.07835 69 4.31645H68.7685C65.5358 4.31645 62.303 4.32215 59.0703 4.31145C58.443 4.30945 57.996 4.59675 57.7803 5.13485C57.4823 5.87875 57.2782 6.65975 57.0243 7.45565H57.2679C59.9274 7.45565 62.5873 7.46835 65.2468 7.45005C66.4497 7.44165 67.2894 8.40535 67.4244 9.24945C67.4544 9.43785 67.4708 9.64795 67.419 9.82635C67.1635 10.7048 66.9367 11.597 66.5983 12.4444C66.0826 13.7358 65.1817 14.7021 63.8793 15.2559C63.5179 15.4096 63.1368 15.4814 62.7423 15.4811C58.5081 15.4784 54.2736 15.4771 50.0394 15.4754C50.0064 15.4754 49.973 15.4754 49.9292 15.4754C49.9342 15.4477 49.9319 15.4243 49.9419 15.4082C50.5538 14.4021 51.3548 13.6058 52.4875 13.2107C52.7965 13.1028 53.1382 13.0446 53.4656 13.0423C55.5466 13.0276 57.6276 13.0346 59.7086 13.035C60.0313 13.035 60.3543 13.0283 60.6763 13.044C61.341 13.0764 61.7746 12.7333 62.0144 12.1641C62.2048 11.7119 62.3294 11.2285 62.4423 10.7492C62.4821 10.5812 62.4283 10.3751 62.3672 10.204C62.2997 10.0147 62.125 9.92155 61.9199 9.90715C61.8477 9.90215 61.7753 9.90345 61.7031 9.90345C58.4203 9.90345 55.1374 9.90345 51.8546 9.90345H51.6057Z" fill="white"/>
<path d="M52.2771 4.31325H52.0426C49.2662 4.31325 46.4897 4.31325 43.7132 4.31325C43.0656 4.31325 42.5769 4.60915 42.3571 5.21715C42.0992 5.93095 41.8934 6.66385 41.6656 7.38865C41.661 7.40305 41.665 7.42005 41.665 7.45115H41.8654C43.8238 7.45115 45.7826 7.45115 47.741 7.45115C47.8021 7.45115 47.8636 7.44875 47.9244 7.45415C48.1929 7.47685 48.3058 7.62215 48.2407 7.88305C48.1021 8.43755 47.9578 8.99035 47.8098 9.54215C47.7477 9.77425 47.6094 9.88185 47.3605 9.88855C46.9934 9.89825 46.6263 9.89685 46.2589 9.89725C44.8346 9.89785 43.4099 9.89725 41.9856 9.89725C41.3333 9.89725 40.8479 10.2001 40.6291 10.8224C40.3789 11.5336 40.1789 12.2621 39.9577 12.9829C39.9547 12.9923 39.9594 13.004 39.9624 13.0341H49.5621C49.5655 13.0638 49.5711 13.0771 49.5668 13.0842C48.9495 14.1166 48.1291 14.9203 46.9697 15.3168C46.6854 15.414 46.3725 15.4725 46.0725 15.4731C42.2612 15.4828 38.4496 15.4788 34.6383 15.4782C34.6052 15.4782 34.5722 15.4751 34.5271 15.4731C34.5334 15.4314 34.5341 15.3943 34.5444 15.3602C35.5719 11.9969 36.5814 8.62795 37.6372 5.27355C38.0912 3.83185 39.0288 2.75965 40.4224 2.12165C40.8155 1.94165 41.2347 1.86845 41.6706 1.86915C44.5029 1.87345 47.3348 1.87215 50.167 1.87315C51.2713 1.87345 52.0573 2.54925 52.219 3.64255C52.2504 3.85525 52.2561 4.07175 52.2758 4.31325H52.2771Z" fill="white"/>
<path d="M19.873 4.31301H19.6332C16.8681 4.31301 14.1033 4.31301 11.3382 4.31301C10.604 4.31301 10.1047 4.68141 9.88588 5.39231C9.55278 6.47351 9.22248 7.55581 8.89178 8.63771C8.55938 9.72501 8.22808 10.8126 7.89568 11.8998C7.82858 12.1196 7.78148 12.3408 7.84358 12.5706C7.91778 12.8445 8.08678 12.9958 8.36868 13.0319C8.44548 13.0416 8.52398 13.0409 8.60188 13.0409C11.389 13.0412 14.1765 13.0412 16.9636 13.0412C17.0284 13.0412 17.0932 13.0412 17.1737 13.0412C17.1601 13.0813 17.1567 13.1027 17.146 13.1197C16.5281 14.1292 15.7197 14.9251 14.5767 15.3116C14.2617 15.4182 13.9136 15.4716 13.5806 15.473C10.7657 15.4853 7.95048 15.4696 5.13528 15.4847C3.85058 15.4913 3.10738 14.6215 3.01148 13.4668C2.96778 12.9397 3.05228 12.4279 3.20688 11.9236C3.88898 9.70191 4.54368 7.47191 5.25418 5.25961C5.70108 3.86811 6.59798 2.82061 7.92748 2.17151C8.35268 1.96411 8.80488 1.86991 9.28158 1.87061C12.1078 1.87461 14.9341 1.87221 17.7603 1.87261C18.908 1.87261 19.7174 2.60511 19.8356 3.75151C19.8543 3.93151 19.8596 4.11261 19.873 4.31301Z" fill="white"/>
<path d="M17.6044 19.3743H16.9621C16.928 19.0663 16.8949 18.7654 16.8599 18.448C16.7764 18.448 16.7019 18.4343 16.6357 18.4524C16.5846 18.4664 16.5185 18.5118 16.5038 18.5576C16.429 18.7894 16.3642 19.0252 16.3057 19.2617C16.2823 19.3559 16.2369 19.3883 16.1437 19.3853C15.9894 19.3803 15.8347 19.384 15.6577 19.384C15.6734 19.3095 15.6817 19.257 15.6954 19.2063C15.8741 18.5482 16.0538 17.8905 16.2336 17.2328C16.2539 17.1577 16.2663 17.0835 16.3775 17.0869C16.7663 17.0979 17.1571 17.0802 17.5436 17.1142C18.0557 17.159 18.2407 17.5558 17.9541 17.9817C17.8623 18.1183 17.7193 18.2349 17.575 18.3174C17.4631 18.3816 17.4431 18.4377 17.4665 18.5489C17.5109 18.7607 17.546 18.9741 17.5834 19.1872C17.5934 19.245 17.5968 19.3038 17.6044 19.3743ZM16.6451 18.0248C16.8201 18.0248 16.9644 18.0388 17.105 18.0211C17.2747 18.0001 17.3856 17.8919 17.4137 17.7202C17.4217 17.6724 17.3966 17.5759 17.3773 17.5735C17.1859 17.5485 16.9928 17.5375 16.7997 17.5264C16.7897 17.5258 16.773 17.5598 16.7673 17.5799C16.7272 17.7215 16.6892 17.8641 16.6451 18.0248Z" fill="white"/>
<path d="M18.9158 19.3639C18.981 19.1221 19.0418 18.8926 19.1042 18.6638C19.2362 18.1828 19.3714 17.7025 19.499 17.2201C19.5251 17.1219 19.5682 17.0872 19.6704 17.0858C20.0743 17.0802 20.0739 17.0768 20.2379 17.4469C20.3478 17.6955 20.4587 17.9433 20.5703 18.1912C20.5897 18.2342 20.6144 18.2753 20.6561 18.3535C20.6979 18.2135 20.7303 18.1113 20.759 18.0081C20.8312 17.7462 20.9053 17.4847 20.9711 17.2215C20.9952 17.1249 21.0379 17.0795 21.1421 17.0865C21.2564 17.0942 21.372 17.0882 21.5116 17.0882C21.4491 17.3213 21.3943 17.5281 21.3382 17.7342C21.2033 18.2316 21.065 18.7283 20.9344 19.227C20.905 19.3392 20.8589 19.378 20.7346 19.391C20.4978 19.4157 20.3752 19.3349 20.2917 19.1101C20.1781 18.8044 20.0245 18.5135 19.8875 18.2165C19.8651 18.1684 19.8394 18.1217 19.7933 18.0318C19.7175 18.3067 19.6537 18.5379 19.5902 18.7694C19.5682 18.8495 19.5468 18.93 19.5248 19.0102C19.4079 19.4344 19.4004 19.4377 18.9158 19.3639Z" fill="white"/>
<path d="M34.4804 18.0923C34.3762 18.4701 34.2646 18.8462 34.1711 19.227C34.137 19.3653 34.0832 19.4284 33.9359 19.41C33.8387 19.398 33.7385 19.4077 33.6162 19.4077C33.633 19.3325 33.6423 19.2801 33.6563 19.2287C33.8357 18.5706 34.0184 17.9132 34.1928 17.2539C34.2228 17.1406 34.2773 17.1223 34.3865 17.1062C34.6892 17.0621 34.8475 17.1764 34.9444 17.4663C35.0452 17.7686 35.1996 18.0529 35.3519 18.3926C35.4053 18.2079 35.4454 18.0722 35.4831 17.936C35.5439 17.7168 35.6124 17.499 35.6588 17.2769C35.6879 17.1383 35.7524 17.0945 35.887 17.1096C35.9852 17.1206 36.0854 17.1119 36.2083 17.1119C36.1549 17.3153 36.1074 17.501 36.057 17.6861C35.9154 18.2052 35.7681 18.7226 35.6335 19.2434C35.6011 19.3683 35.5476 19.3993 35.421 19.414C35.1849 19.4414 35.0766 19.3429 34.9928 19.1345C34.8505 18.7804 34.6791 18.4377 34.5198 18.0903C34.5068 18.0909 34.4934 18.092 34.4804 18.0923Z" fill="white"/>
<path d="M10.9521 18.3157C11.0389 18.0021 11.1234 17.6881 11.213 17.3755C11.3075 17.0448 11.2213 17.0932 11.5968 17.0885C11.6512 17.0879 11.7053 17.0885 11.7888 17.0885C11.7698 17.1667 11.7578 17.2231 11.7427 17.2786C11.568 17.9209 11.389 18.5619 11.221 19.2059C11.1856 19.3422 11.1285 19.382 10.9858 19.3917C10.769 19.4067 10.6605 19.3332 10.5803 19.1308C10.4377 18.7714 10.2623 18.4246 10.0833 18.0352C10.0549 18.1157 10.0352 18.1618 10.0218 18.2099C9.92602 18.5573 9.82842 18.9046 9.73862 19.2537C9.71352 19.3512 9.67182 19.394 9.56752 19.3863C9.45262 19.378 9.33642 19.3843 9.20142 19.3843C9.21582 19.3102 9.22282 19.256 9.23722 19.2043C9.41562 18.5516 9.59792 17.8999 9.77132 17.2459C9.80242 17.1289 9.84812 17.0838 9.97372 17.0852C10.3568 17.0895 10.3572 17.0838 10.5152 17.4379C10.6455 17.7305 10.7754 18.0235 10.9053 18.3161C10.921 18.3161 10.9364 18.3161 10.9521 18.3157Z" fill="white"/>
<path d="M55.0623 18.4861C54.9925 18.4861 54.9424 18.4918 54.8943 18.4851C54.7737 18.4681 54.7153 18.5138 54.6875 18.6364C54.6391 18.8525 54.5693 19.064 54.5155 19.2791C54.4905 19.3796 54.4464 19.4307 54.3338 19.4244C54.1852 19.4157 54.0359 19.4224 53.8618 19.4224C53.8769 19.3446 53.8842 19.2871 53.8992 19.2317C54.0756 18.5843 54.2553 17.938 54.4277 17.2896C54.4577 17.176 54.5022 17.1253 54.6294 17.1296C54.9848 17.1416 55.3412 17.1339 55.6967 17.1456C55.7995 17.149 55.9064 17.1784 56.002 17.2185C56.2562 17.326 56.3427 17.5542 56.2448 17.8438C56.1646 18.0813 56.011 18.2646 55.7795 18.3602C55.6552 18.4116 55.6459 18.4808 55.6673 18.5907C55.719 18.8562 55.7645 19.1234 55.8182 19.4207C55.6085 19.4207 55.4217 19.4261 55.2357 19.4154C55.2056 19.4137 55.1602 19.3449 55.1545 19.3025C55.1194 19.0389 55.0937 18.7737 55.0623 18.4861ZM54.8475 18.0649C55.0149 18.0649 55.1649 18.0796 55.3102 18.0609C55.4719 18.0398 55.5841 17.9336 55.6138 17.7706C55.6238 17.7155 55.5894 17.6026 55.563 17.5986C55.38 17.5715 55.1936 17.5652 55.0082 17.5562C54.9965 17.5555 54.9772 17.5876 54.9715 17.6073C54.9297 17.7552 54.8906 17.9039 54.8475 18.0649Z" fill="white"/>
<path d="M28.1491 17.0875C28.3849 17.1162 28.6271 17.1196 28.8546 17.1794C29.2587 17.2853 29.4595 17.6153 29.4087 18.0275C29.3072 18.8495 28.7283 19.3803 27.8979 19.4057C27.6537 19.4134 27.4089 19.4034 27.1647 19.4087C27.0284 19.4117 27.006 19.3619 27.0411 19.2367C27.2265 18.5696 27.4062 17.9009 27.5846 17.2318C27.6086 17.142 27.6497 17.1039 27.7462 17.1099C27.8792 17.1179 28.0128 17.1119 28.1461 17.1119C28.1471 17.1039 28.1481 17.0955 28.1491 17.0875ZM27.7482 18.9571C28.0422 18.9952 28.2914 18.9624 28.4764 18.7373C28.6822 18.4871 28.767 18.1918 28.7577 17.8718C28.7523 17.6931 28.6508 17.5859 28.4731 17.5562C28.3973 17.5435 28.3154 17.5358 28.2416 17.5512C28.1892 17.5622 28.116 17.6073 28.1033 17.6517C27.9811 18.0762 27.8698 18.5041 27.7482 18.9571Z" fill="white"/>
<path d="M41.4307 17.1259C41.597 17.1259 41.7664 17.1056 41.9294 17.1296C42.5333 17.2191 42.7889 17.6003 42.6613 18.1965C42.5069 18.918 41.9528 19.3763 41.1902 19.4054C40.9407 19.4147 40.6901 19.404 40.4403 19.409C40.3164 19.4114 40.284 19.3669 40.317 19.2477C40.5031 18.5753 40.6868 17.9022 40.8665 17.2278C40.8919 17.1323 40.9397 17.1062 41.0309 17.1106C41.1638 17.1169 41.2974 17.1122 41.4307 17.1122C41.4307 17.1169 41.4307 17.1216 41.4307 17.1259ZM41.0268 18.9618C41.3285 18.9915 41.5847 18.9598 41.7697 18.7216C41.9608 18.4761 42.0456 18.1915 42.039 17.8838C42.0333 17.6266 41.6568 17.4276 41.435 17.5592C41.41 17.5742 41.3896 17.6093 41.3816 17.639C41.2643 18.0709 41.1494 18.5031 41.0268 18.9618Z" fill="white"/>
<path d="M59.3876 18.1143C59.2934 18.4547 59.1985 18.7947 59.105 19.1355C59.0525 19.3267 58.9249 19.4222 58.7222 19.4217C58.6624 19.4217 58.6023 19.4217 58.5168 19.4217C58.5579 19.2704 58.5923 19.1435 58.627 19.0169C58.7847 18.439 58.9447 17.8615 59.0983 17.2826C59.1267 17.176 59.1671 17.1283 59.2884 17.1289C59.6832 17.1306 59.6829 17.1253 59.8429 17.4837C59.9735 17.7766 60.1054 18.0689 60.2567 18.4059C60.2988 18.2707 60.3296 18.1798 60.355 18.0876C60.4288 17.82 60.5063 17.5535 60.5697 17.2839C60.5985 17.1623 60.6562 17.1199 60.7768 17.1306C60.8804 17.1396 60.9853 17.1326 61.1182 17.1326C61.0771 17.2836 61.0427 17.4095 61.0083 17.5355C60.851 18.1137 60.69 18.6905 60.539 19.2704C60.5079 19.3897 60.4538 19.4147 60.3359 19.4284C60.0967 19.4561 59.9798 19.3646 59.8943 19.1431C59.759 18.7924 59.586 18.4564 59.4287 18.1143C59.415 18.1143 59.4013 18.114 59.3876 18.1143Z" fill="white"/>
<path d="M57.1335 19.4588C56.5289 19.4501 56.2179 19.0753 56.3134 18.4734C56.3716 18.107 56.5075 17.7786 56.7711 17.5131C57.1281 17.1537 57.5584 17.0224 58.0524 17.1453C58.34 17.2168 58.5117 17.4205 58.5558 17.7068C58.6557 18.3532 58.2558 19.2741 57.3984 19.4304C57.3112 19.4461 57.222 19.4494 57.1335 19.4588ZM56.9291 18.6561C56.9234 18.9427 57.0199 19.0476 57.2604 19.0119C57.3777 18.9945 57.52 18.9387 57.5908 18.8515C57.848 18.5352 57.9458 18.1561 57.9358 17.7512C57.9325 17.6129 57.8426 17.5451 57.7077 17.5348C57.4909 17.5181 57.3326 17.616 57.219 17.7913C57.0403 18.0676 56.9675 18.3789 56.9291 18.6561Z" fill="white"/>
<path d="M7.82133 19.4154C7.23343 19.4164 6.94052 19.1027 6.97922 18.5148C7.02402 17.8384 7.47823 17.2455 8.08683 17.1066C8.27123 17.0645 8.47633 17.0611 8.66343 17.0922C8.97043 17.1433 9.16112 17.3424 9.22592 17.654C9.40332 18.5092 8.68243 19.414 7.82133 19.4154ZM8.61833 17.8568C8.62333 17.5572 8.49103 17.4409 8.24123 17.5067C8.14403 17.5324 8.03443 17.5832 7.97263 17.6574C7.71073 17.9724 7.60993 18.3498 7.60723 18.7533C7.60623 18.8993 7.70173 18.9691 7.84373 18.9805C8.06713 18.9982 8.23223 18.901 8.34513 18.7163C8.51313 18.441 8.58393 18.134 8.61833 17.8568Z" fill="white"/>
<path d="M23.1226 17.8936C23.1032 17.7133 23.0962 17.5489 22.9005 17.5041C22.6974 17.4577 22.5407 17.5399 22.4178 17.6932C22.186 17.9825 22.1021 18.3262 22.0851 18.6856C22.0754 18.8944 22.1876 18.9869 22.3981 18.9822C22.6165 18.9772 22.8143 18.8256 22.8784 18.6008C22.7565 18.5951 22.6376 18.5894 22.523 18.5841C22.516 18.564 22.508 18.5537 22.5093 18.5443C22.5418 18.3279 22.6669 18.2198 22.8844 18.22C23.1109 18.22 23.337 18.22 23.5936 18.22C23.5271 18.4682 23.469 18.6853 23.4105 18.9021C23.3788 19.0196 23.3554 19.1409 23.31 19.2531C23.2886 19.3059 23.2312 19.3627 23.178 19.3797C23.0832 19.4101 23.0611 19.328 23.0448 19.2538C23.0354 19.2114 23.0217 19.1703 23.0043 19.1095C22.9442 19.1553 22.8968 19.1907 22.85 19.2264C22.6089 19.4115 22.3339 19.4536 22.0447 19.3958C21.6849 19.3236 21.4748 19.0911 21.4514 18.7113C21.4057 17.9675 21.9438 17.1197 22.8119 17.0626C23.2248 17.0355 23.5578 17.2206 23.6527 17.5419C23.7225 17.7794 23.6958 17.8205 23.4523 17.8512C23.3484 17.8642 23.2445 17.8775 23.1226 17.8936Z" fill="white"/>
<path d="M38.9808 18.9517H40.0904C40.054 19.097 40.0276 19.2256 39.9869 19.3492C39.9775 19.377 39.9177 19.4044 39.8813 19.4047C39.3589 19.408 38.8365 19.4067 38.3141 19.405C38.294 19.405 38.274 19.3917 38.2349 19.378C38.2676 19.2537 38.2984 19.1328 38.3311 19.0122C38.4894 18.4293 38.6514 17.8474 38.8044 17.2632C38.8355 17.145 38.8869 17.1069 39.0095 17.1092C39.4708 17.1169 39.9321 17.1119 40.3934 17.1126C40.4425 17.1126 40.4913 17.1172 40.5628 17.1206C40.528 17.2542 40.5063 17.3788 40.4595 17.4934C40.4442 17.5311 40.364 17.5608 40.3126 17.5622C40.0514 17.5692 39.7898 17.5729 39.5289 17.5622C39.394 17.5568 39.3218 17.5962 39.3018 17.7342C39.2884 17.8257 39.2574 17.9146 39.227 18.0318H39.9201C39.8776 18.3289 39.7216 18.4774 39.4521 18.4774C39.2098 18.4774 39.0601 18.5947 39.0028 18.8292C38.9952 18.8609 38.9911 18.8936 38.9808 18.9517Z" fill="white"/>
<path d="M3.56348 19.3843C3.57448 19.3155 3.57748 19.2661 3.59058 19.2196C3.77158 18.5573 3.95698 17.8962 4.13268 17.2325C4.16308 17.1176 4.21318 17.0822 4.32738 17.0862C4.67678 17.0982 5.02887 17.0768 5.37527 17.1119C5.88637 17.1633 6.08578 17.5538 5.85398 18.0124C5.66858 18.3792 5.33688 18.5108 4.95068 18.5379C4.82348 18.5469 4.69448 18.5502 4.56788 18.5379C4.43428 18.5252 4.38118 18.5823 4.35418 18.7046C4.31338 18.8883 4.25528 19.068 4.21018 19.2507C4.18748 19.3432 4.14838 19.3927 4.04178 19.3866C3.88788 19.378 3.73318 19.3843 3.56348 19.3843ZM4.52988 18.0823C4.69648 18.0823 4.84078 18.094 4.98208 18.0793C5.13678 18.0629 5.28438 17.9082 5.29078 17.7526C5.29348 17.6898 5.23968 17.5732 5.20188 17.5692C5.02988 17.5505 4.85448 17.5625 4.68048 17.5665C4.67148 17.5665 4.65948 17.5919 4.65548 17.6073C4.61438 17.7603 4.57428 17.9136 4.52988 18.0823Z" fill="white"/>
<path d="M24.4492 19.4078C24.4923 19.3246 24.5154 19.2708 24.5461 19.2217C24.9603 18.5637 25.3775 17.9077 25.788 17.2476C25.8522 17.1447 25.9253 17.0996 26.0449 17.1107C26.1331 17.119 26.2229 17.1123 26.3118 17.1123C26.559 17.1123 26.557 17.1123 26.577 17.3662C26.6265 17.9918 26.6746 18.6175 26.7307 19.2424C26.742 19.367 26.7136 19.4205 26.5834 19.4088C26.5062 19.4018 26.4277 19.4075 26.3499 19.4075C26.1027 19.4075 26.1017 19.4075 26.085 19.1533C26.0683 18.8997 26.1134 18.9184 25.8295 18.9178C25.8128 18.9178 25.7957 18.9204 25.7794 18.9174C25.4356 18.8513 25.1941 18.9662 25.0568 19.2996C25.0355 19.3517 24.9409 19.3944 24.8755 19.4031C24.7499 19.4195 24.6205 19.4078 24.4492 19.4078ZM26.0102 17.7821C25.9975 17.7757 25.9851 17.7694 25.9724 17.763C25.8365 17.9828 25.7002 18.2029 25.5559 18.4364H26.0643C26.0456 18.2096 26.0279 17.9958 26.0102 17.7821Z" fill="white"/>
<path d="M31.0725 19.3815C31.1016 19.3261 31.1233 19.2773 31.1513 19.2326C31.5679 18.5712 31.9871 17.9111 32.3999 17.2474C32.4637 17.1449 32.5359 17.0998 32.6558 17.1101C32.7607 17.1191 32.8683 17.1232 32.9718 17.1095C33.1375 17.0877 33.1762 17.1666 33.1869 17.3136C33.2337 17.9606 33.2871 18.6069 33.3446 19.2529C33.3553 19.3722 33.3209 19.4206 33.202 19.4079C33.1746 19.4049 33.1465 19.4076 33.1188 19.4076C32.735 19.4076 32.732 19.4083 32.6916 19.0281C32.6822 18.941 32.6485 18.9149 32.5666 18.9166C32.3836 18.9202 32.1999 18.9119 32.0171 18.9212C31.9657 18.9239 31.9149 18.968 31.8672 18.9984C31.8501 19.0091 31.8391 19.0335 31.8318 19.0539C31.7032 19.4126 31.4319 19.4674 31.0725 19.3815ZM32.6207 17.7775C32.6074 17.7742 32.594 17.7708 32.5807 17.7675C32.446 17.9846 32.3114 18.2017 32.1645 18.4392H32.6772C32.6578 18.2118 32.6394 17.9946 32.6207 17.7775Z" fill="white"/>
<path d="M15.9168 17.0972C15.9215 17.1329 15.9261 17.1443 15.9238 17.1543C15.8657 17.416 15.7029 17.5468 15.4354 17.5468C15.2407 17.5468 15.046 17.5504 14.8516 17.545C14.7604 17.5427 14.7066 17.5644 14.6885 17.6636C14.6688 17.7715 14.6328 17.8767 14.5964 18.0107C14.7256 18.0107 14.8395 18.0107 14.9531 18.0107C15.0667 18.0107 15.1739 18.0107 15.3065 18.0107C15.2698 18.1453 15.2457 18.2639 15.2026 18.3751C15.1886 18.4108 15.1255 18.4467 15.0827 18.449C14.922 18.4577 14.76 18.4579 14.599 18.4506C14.5018 18.4459 14.4567 18.4858 14.4367 18.5746C14.4116 18.6862 14.3819 18.7966 14.3475 18.9329H15.4374C15.4465 18.9593 15.4501 18.9647 15.4495 18.9693C15.4072 19.2459 15.2488 19.3843 14.9745 19.3843C14.5797 19.3843 14.1848 19.3842 13.79 19.3839C13.7359 19.3839 13.6821 19.3789 13.6133 19.3755C13.6233 19.3127 13.6263 19.264 13.639 19.2179C13.8184 18.5598 14.0021 17.9031 14.1768 17.2437C14.2079 17.1262 14.2556 17.0831 14.3802 17.0851C14.8419 17.0924 15.3035 17.0877 15.7651 17.0884C15.8139 17.0884 15.8624 17.0942 15.9168 17.0972Z" fill="white"/>
<path d="M13.8861 17.0885C13.847 17.2378 13.8293 17.3544 13.7832 17.4586C13.7641 17.5017 13.6853 17.5415 13.6322 17.5431C13.3653 17.5515 13.0981 17.5538 12.8312 17.5441C12.7093 17.5398 12.6461 17.5752 12.6254 17.6975C12.6091 17.7947 12.5777 17.8892 12.5466 18.0094H13.2534C13.2213 18.13 13.1886 18.2246 13.1722 18.3218C13.1552 18.4236 13.1071 18.4607 13.0032 18.4554C12.8536 18.4474 12.7026 18.459 12.5526 18.4514C12.4494 18.4464 12.4013 18.4838 12.3826 18.5853C12.3629 18.6925 12.3268 18.7971 12.2904 18.929H13.4101C13.3727 19.0787 13.3466 19.2009 13.3092 19.3198C13.3005 19.3472 13.2547 19.3806 13.2257 19.381C12.6759 19.3846 12.1261 19.3836 11.5515 19.3836C11.5692 19.3005 11.5796 19.2377 11.5963 19.1765C11.7716 18.5345 11.9514 17.8935 12.1214 17.2499C12.1544 17.1243 12.2086 17.0835 12.3378 17.0855C12.7884 17.0932 13.239 17.0885 13.69 17.0885H13.8861Z" fill="white"/>
<path d="M44.551 18.0476H45.2615C45.2224 18.1879 45.195 18.3102 45.1513 18.4261C45.1392 18.4575 45.0774 18.4865 45.0373 18.4882C44.8767 18.4952 44.715 18.4959 44.554 18.4899C44.4598 18.4862 44.41 18.5196 44.39 18.6121C44.3653 18.7244 44.3325 18.8349 44.2975 18.9682H45.4205C45.3817 19.1122 45.3543 19.2331 45.3143 19.3497C45.3036 19.3804 45.2541 19.4185 45.2221 19.4185C44.6833 19.4208 44.1445 19.4175 43.6057 19.4148C43.5963 19.4148 43.587 19.4038 43.5649 19.3901C43.5753 19.3423 43.5843 19.2885 43.5987 19.2364C43.7777 18.5791 43.9558 17.9214 44.1415 17.2657C44.1562 17.2132 44.227 17.1394 44.2728 17.1387C44.7838 17.13 45.2949 17.1337 45.8063 17.135C45.8273 17.135 45.848 17.1457 45.8848 17.1558C45.8517 17.2763 45.8293 17.3963 45.7829 17.5065C45.7669 17.5449 45.692 17.5786 45.6433 17.58C45.371 17.587 45.0988 17.589 44.8266 17.581C44.711 17.5776 44.6529 17.612 44.6338 17.729C44.6171 17.8312 44.5824 17.9307 44.5507 18.0486L44.551 18.0476Z" fill="white"/>
<path d="M48.3123 18.9718H49.435C49.3972 19.1174 49.3702 19.24 49.3314 19.3593C49.3227 19.3863 49.2756 19.418 49.2459 19.4184C48.6964 19.4221 48.1473 19.4211 47.5747 19.4211C47.5928 19.3369 47.6035 19.2737 47.6202 19.2126C47.7955 18.5709 47.9746 17.9303 48.1453 17.2873C48.176 17.171 48.2238 17.1276 48.3484 17.1296C48.8097 17.1373 49.2713 17.1323 49.7329 17.1329C49.7817 17.1329 49.8301 17.1393 49.9033 17.1443C49.8672 17.2809 49.8431 17.4052 49.7977 17.5211C49.7847 17.5542 49.7099 17.5792 49.6628 17.5802C49.3959 17.5859 49.1287 17.5896 48.8621 17.5802C48.7342 17.5759 48.6657 17.6119 48.646 17.7436C48.6316 17.8408 48.5986 17.935 48.5692 18.0489H49.273C49.2366 18.1898 49.2122 18.3131 49.1697 18.4303C49.1587 18.4611 49.0926 18.4868 49.0505 18.4888C48.8952 18.4958 48.7388 18.4978 48.5835 18.4898C48.4733 18.4841 48.4222 18.5252 48.4025 18.6327C48.3828 18.74 48.3474 18.8432 48.3123 18.9718Z" fill="white"/>
<path d="M66.4577 17.484C66.284 17.5869 66.1571 17.6621 66.0228 17.7415C65.8534 17.5498 65.644 17.502 65.4112 17.5445C65.3474 17.5562 65.2809 17.5802 65.2281 17.6166C65.0925 17.7112 65.1019 17.8625 65.2525 17.9293C65.4145 18.0011 65.5852 18.0525 65.7519 18.1133C66.2226 18.285 66.3328 18.6601 66.0081 19.0473C65.9052 19.1702 65.7593 19.2727 65.6126 19.3399C65.3056 19.4805 64.9766 19.4879 64.6496 19.4097C64.5597 19.3883 64.4599 19.3549 64.3951 19.2945C64.3022 19.2079 64.2371 19.0917 64.1602 18.9882C64.2798 18.9117 64.3967 18.8298 64.5213 18.7633C64.5427 18.752 64.6072 18.7974 64.6372 18.8302C64.8293 19.0383 65.0995 19.1154 65.3604 19.0032C65.4383 18.9698 65.5228 18.8732 65.5355 18.7944C65.5441 18.7413 65.4443 18.6441 65.3721 18.61C65.2228 18.5389 65.0581 18.5011 64.9028 18.442C64.5577 18.3111 64.4385 18.0288 64.5851 17.6911C64.6135 17.6256 64.6526 17.5628 64.697 17.5071C65.0241 17.0992 65.7205 16.9693 66.1691 17.2378C66.2646 17.295 66.3418 17.3834 66.4577 17.484Z" fill="white"/>
<path d="M38.1513 18.6748C38.1225 18.7383 38.1069 18.7844 38.0821 18.8251C37.8263 19.2464 37.2775 19.4989 36.7931 19.4207C36.4541 19.3659 36.2226 19.1515 36.1718 18.8151C36.0766 18.1835 36.4553 17.2311 37.3679 17.0939C37.592 17.0601 37.8129 17.0728 38.0173 17.1831C38.2248 17.2953 38.3367 17.4693 38.343 17.7075C38.3437 17.7295 38.3486 17.7549 38.3399 17.7736C38.237 17.9974 38.0277 17.8444 37.875 17.8999C37.7822 17.9336 37.7768 17.8478 37.7701 17.7773C37.7498 17.5588 37.6322 17.4593 37.4231 17.5251C37.2992 17.5642 37.1716 17.6517 37.0907 17.7532C36.8759 18.0221 36.7958 18.3475 36.7861 18.6865C36.7801 18.8976 36.8853 18.9875 37.0987 18.9801C37.3078 18.9731 37.4809 18.8826 37.5934 18.7132C37.682 18.58 37.7775 18.5586 37.9144 18.612C37.9809 18.6378 38.0531 18.649 38.1513 18.6748Z" fill="white"/>
<path d="M64.0417 18.6899C64.0387 18.7243 64.0411 18.7423 64.0354 18.7567C63.8233 19.2768 63.0056 19.6078 62.4925 19.3823C62.2594 19.2798 62.1254 19.0947 62.0833 18.8512C61.9788 18.2466 62.3322 17.31 63.1786 17.1393C63.383 17.0982 63.6138 17.1122 63.8179 17.1613C64.1089 17.2308 64.2769 17.501 64.2465 17.776C64.2415 17.8204 64.1887 17.8899 64.1506 17.8952C64.004 17.9152 63.8543 17.9139 63.7037 17.9209C63.6933 17.8845 63.6837 17.8645 63.682 17.8434C63.6563 17.5488 63.4582 17.4339 63.203 17.5889C63.0897 17.6574 62.9732 17.7676 62.9251 17.8862C62.8242 18.1347 62.7424 18.3969 62.6999 18.6611C62.6578 18.922 62.8095 19.0336 63.0771 18.9932C63.2584 18.9658 63.4091 18.8793 63.5036 18.7296C63.5911 18.591 63.6913 18.5853 63.824 18.6327C63.8911 18.6568 63.9626 18.6692 64.0417 18.6899Z" fill="white"/>
<path d="M51.2732 17.9032C51.2666 17.8939 51.2615 17.8899 51.2609 17.8852C51.2462 17.7499 51.2672 17.5916 51.0889 17.5458C50.9051 17.4987 50.7485 17.5622 50.6239 17.6998C50.4265 17.9172 50.3433 18.1865 50.2862 18.4661C50.2795 18.4985 50.2768 18.5319 50.2721 18.5649C50.2187 18.928 50.4038 19.094 50.7475 18.9661C50.8754 18.9187 50.9997 18.8195 51.0855 18.7119C51.1714 18.604 51.2478 18.5823 51.3664 18.6231C51.4446 18.6501 51.5261 18.6668 51.6166 18.6912C51.6083 18.7266 51.6066 18.759 51.5936 18.7857C51.3661 19.2524 50.697 19.556 50.1926 19.4254C49.9067 19.3512 49.7253 19.1695 49.6629 18.8863C49.5353 18.3091 49.868 17.3013 50.7779 17.1326C50.991 17.0932 51.2338 17.1249 51.4453 17.1861C51.7055 17.2612 51.8351 17.5131 51.8254 17.7703C51.822 17.8621 51.7863 17.9032 51.6975 17.9032C51.5592 17.9032 51.4205 17.9032 51.2732 17.9032Z" fill="white"/>
<path d="M31.8743 17.1122C31.8325 17.1901 31.8098 17.2385 31.7818 17.2839C31.3782 17.941 30.9714 18.5957 30.5729 19.2557C30.5034 19.371 30.4256 19.413 30.2923 19.4107C29.8761 19.4037 29.8751 19.409 29.8454 18.9978C29.8046 18.439 29.7649 17.8802 29.7258 17.3213C29.7214 17.2612 29.7251 17.2008 29.7251 17.1266H30.3521C30.3765 17.6223 30.4005 18.114 30.4263 18.6438C30.47 18.5813 30.4984 18.5466 30.5205 18.5082C30.7593 18.0953 31.0015 17.6844 31.2319 17.2672C31.2971 17.1493 31.3706 17.0962 31.5058 17.1102C31.6154 17.1216 31.7277 17.1122 31.8743 17.1122Z" fill="white"/>
<path d="M54.1852 17.1329C54.1481 17.2726 54.1264 17.3875 54.0846 17.4947C54.0699 17.5321 54.0075 17.5702 53.964 17.5735C53.8314 17.5839 53.6965 17.5866 53.5642 17.5749C53.4376 17.5635 53.3905 17.6166 53.3604 17.7319C53.2275 18.2416 53.0839 18.7483 52.9509 19.258C52.9195 19.378 52.8718 19.4371 52.7371 19.4251C52.5945 19.4124 52.4499 19.4221 52.2792 19.4221C52.4485 18.7991 52.6115 18.1985 52.7802 17.5785H52.1199C52.1566 17.4386 52.183 17.317 52.2231 17.2001C52.2334 17.17 52.2869 17.136 52.3206 17.136C52.9312 17.1319 53.5426 17.1329 54.1852 17.1329Z" fill="white"/>
<path d="M46.846 17.1323C46.6773 17.7546 46.5173 18.3461 46.3496 18.9651H47.4002C47.3604 19.1208 47.3323 19.247 47.2926 19.3699C47.2846 19.3943 47.2325 19.4194 47.2007 19.4194C46.6847 19.4194 46.1686 19.415 45.6525 19.411C45.6482 19.411 45.6438 19.4044 45.6194 19.385C45.6281 19.3406 45.6355 19.2831 45.6505 19.2276C45.8262 18.581 46.0052 17.9356 46.1773 17.2879C46.2077 17.173 46.2548 17.1203 46.3804 17.1299C46.523 17.141 46.667 17.1323 46.846 17.1323Z" fill="white"/>
<path d="M5.78516 19.3843C5.84326 19.1719 5.89266 18.9915 5.94216 18.8115C6.08676 18.2827 6.23506 17.7549 6.37336 17.2245C6.40176 17.1149 6.45156 17.0815 6.55736 17.0865C6.70536 17.0935 6.85406 17.0882 7.02336 17.0882C7.00836 17.1593 7.00066 17.2068 6.98826 17.2525C6.80856 17.9152 6.62586 18.577 6.45086 19.241C6.42116 19.3542 6.37006 19.3937 6.25576 19.3863C6.11276 19.3773 5.96886 19.3843 5.78516 19.3843Z" fill="white"/>
<path d="M17.9131 19.3842C17.9702 19.1688 18.0183 18.9827 18.069 18.797C18.212 18.2736 18.359 17.7515 18.4969 17.2267C18.5247 17.1208 18.5704 17.0801 18.6797 17.0861C18.8273 17.0941 18.9759 17.0881 19.1446 17.0881C19.1313 17.1592 19.1256 17.207 19.1129 17.2531C18.9329 17.9155 18.7491 18.5769 18.5744 19.2406C18.5444 19.3548 18.4943 19.3932 18.3804 19.3862C18.2374 19.3772 18.0934 19.3842 17.9131 19.3842Z" fill="white"/>
<path d="M60.8716 19.4222C60.9441 19.1519 61.0062 18.9174 61.0704 18.6833C61.2006 18.2076 61.3346 17.733 61.4602 17.256C61.4849 17.1624 61.5256 17.1277 61.6198 17.131C61.7742 17.1364 61.9288 17.1324 62.1042 17.1324C62.0912 17.1998 62.0851 17.2463 62.0728 17.2914C61.8934 17.9548 61.7114 18.6171 61.535 19.2812C61.5079 19.3824 61.4658 19.4307 61.3539 19.4241C61.2056 19.415 61.0563 19.4222 60.8716 19.4222Z" fill="white"/>
</svg>
