<svg width="125" height="50" viewBox="0 0 125 50" fill="none" xmlns="http://www.w3.org/2000/svg">
<g clip-path="url(#clip0_12_138)">
<path d="M81.5243 30.9262C81.2002 30.1629 80.5938 29.654 79.9873 29.1928C80.2853 28.7157 80.6094 28.297 80.8238 27.8305C81.2995 26.7863 81.3779 25.6996 81.012 24.5971C80.6251 23.4203 79.8828 22.5298 78.8634 21.8725C77.0076 20.6745 75.0106 20.4943 72.9195 21.0721L66.5052 23.7542L53.9901 17.4092C53.5823 17.0965 53.138 16.8632 52.6466 16.7095C52.4532 17.2449 52.4323 17.8121 52.3852 18.3634C52.3747 18.4853 52.3852 18.6125 52.3852 18.7397L51.7527 19.2645C51.7527 19.2645 51.7527 19.2274 51.7474 19.2115C51.6272 18.321 51.7945 17.4675 51.9618 16.6088C51.967 16.577 51.9618 16.5399 51.9618 16.5081C51.7004 16.4657 51.4338 16.3968 51.1724 16.3809C49.4002 16.2802 47.8319 16.7466 46.5877 18.093C45.9813 18.7503 45.6363 19.5348 45.584 20.4413C45.5265 21.4537 45.8454 22.3336 46.4779 23.1022C46.6661 23.3302 46.8857 23.5422 47.0948 23.7701C46.3995 23.8549 45.7774 24.0882 45.2181 24.4857C43.6288 25.6201 43.587 27.7616 45.1292 28.9543C45.3331 29.1133 45.5526 29.2405 45.7722 29.3889C45.3958 30.465 45.1501 31.557 45.0926 32.6966C45.0246 34.0271 45.1867 35.3152 45.5788 36.5821C45.9865 37.902 46.6243 39.1052 47.4555 40.1972C47.7326 40.5629 48.0619 40.881 48.3651 41.2255C48.3965 41.2043 48.454 41.1831 48.454 41.1566C48.4644 41.0559 48.4644 40.9552 48.4644 40.8492C48.4644 37.674 48.4644 34.5042 48.4644 31.329V30.958H54.6749C54.7167 30.624 54.722 30.3166 54.7952 30.0303C54.8474 29.8236 54.8893 29.5427 55.2029 29.5268H55.1872C55.1872 29.5268 55.2343 29.5162 55.2552 29.5056C55.3022 29.5056 55.3441 29.495 55.3911 29.4897L55.6734 29.5162C55.7623 29.5321 55.8512 29.5586 55.9453 29.5798C56.0028 29.5798 56.0603 29.5798 56.1178 29.5798C56.3007 29.601 56.4889 29.6222 56.6719 29.6434C56.6719 29.6328 57.0901 29.7017 57.0901 29.7017L57.1685 30.5392C57.1476 30.6664 57.1319 30.7936 57.1058 30.9421H57.4717L70.2273 30.9527C70.4416 30.9527 70.6612 30.9527 70.8755 30.9527H70.9069C74.399 30.9527 77.891 30.9527 81.3831 30.9527C81.4302 30.9527 81.472 30.9527 81.5191 30.9474L81.5243 30.9262Z" fill="url(#paint0_radial_12_138)"/>
<path d="M57.477 30.8784C57.477 30.8784 53.2059 25.5087 53.1171 20.5949C53.0282 15.6758 57.4351 14.7322 58.9878 14.7322C58.2768 13.1102 60.4097 7.42249 60.4097 7.42249C60.4097 7.42249 61.8316 4.44346 65.3028 3.45222C67.5716 2.73132 70.243 4.49117 70.243 4.49117C70.243 4.49117 74.2474 4.80922 76.8717 6.34114C79.4959 7.87306 80.7349 12.93 80.4526 13.6403C79.6476 13.2904 79.2293 13.0413 76.2966 12.4794C73.1391 11.8698 71.529 11.7797 69.9084 11.4193C70.4625 13.0678 68.7844 15.0874 66.6359 16.0203C70.4416 16.6988 71.8426 19.2909 71.8426 19.2909C71.8426 19.2909 76.2025 25.1111 70.1959 30.8837C64.1893 36.6562 57.4717 30.8837 57.4717 30.8837L57.477 30.8784Z" fill="url(#paint1_linear_12_138)"/>
<path d="M70.2325 30.9421C73.9494 30.9421 77.6715 30.9421 81.3884 30.9421C81.4354 30.9421 81.4772 30.9421 81.5243 30.9368C81.655 30.9421 81.7909 30.9474 81.9216 30.958C82 31.1966 82.0366 47.3109 81.9582 48.0106H48.4644C48.4644 47.9099 48.4644 47.788 48.4644 47.666C48.4644 45.6676 48.4644 43.6746 48.4644 41.6762C48.4644 41.5224 48.4069 41.374 48.3756 41.2203C48.4069 41.1991 48.4644 41.1779 48.4644 41.1514C48.4749 41.0507 48.4749 40.95 48.4749 40.844C48.4749 37.6688 48.4749 34.4989 48.4749 31.3238C48.4749 31.2125 48.4749 31.1012 48.4749 30.9527H54.6854C54.7272 30.6188 54.7324 30.3113 54.8056 30.0251C54.8579 29.8184 54.8997 29.5374 55.2134 29.5215C55.0461 29.9085 54.9206 30.3007 54.9363 30.7301C54.9572 31.186 55.2134 31.5517 55.642 31.6842C55.2656 30.9898 55.3963 30.3113 55.6264 29.6328C55.5323 29.5745 55.4695 29.5321 55.4016 29.4897C55.48 29.4897 55.5636 29.4897 55.642 29.5056C55.7466 29.5215 55.8511 29.5533 55.9557 29.5798C55.7414 29.9244 55.6577 30.3113 55.6316 30.7036C55.595 31.2178 55.8825 31.6524 56.3373 31.7903C55.9818 31.1065 56.1648 30.4174 56.3007 29.7813C56.2275 29.6912 56.1753 29.6328 56.1282 29.5745C56.3112 29.5957 56.4994 29.6169 56.6823 29.6381C56.6876 29.654 56.698 29.6699 56.7189 29.6752C56.468 30.0569 56.3896 30.4863 56.4105 30.9368C56.4314 31.3874 56.6719 31.6789 57.0378 31.8751C56.9908 31.5252 56.8967 31.186 56.9019 30.8467C56.9019 30.4916 57.0012 30.1364 57.0587 29.7813C57.0012 29.7442 56.9542 29.7124 56.9071 29.6859C56.9908 29.6699 57.0744 29.654 57.1528 29.6381C57.4038 29.8926 57.1528 30.1523 57.1999 30.4015C57.1737 30.5711 57.1476 30.7354 57.1215 30.9368H57.4874C59.2544 30.9368 61.0213 30.9474 62.7935 30.9527C64.1004 30.9527 65.4126 30.9527 66.7195 30.9527C66.8293 30.9527 66.9391 30.9527 67.0854 30.9527C67.6866 30.3007 68.3192 29.6699 68.889 28.9861C69.7725 27.926 70.5148 26.7704 70.9905 25.4505C71.3564 24.4381 71.5185 23.4044 71.4767 22.3231C71.4349 21.1728 71.048 20.1392 70.4939 19.1585C70.0077 18.2839 69.349 17.5524 68.6276 16.8792C68.5649 16.8209 68.4917 16.7732 68.4185 16.7149C68.0996 16.3279 67.7284 16.0046 67.2945 15.7555C67.0645 15.5964 66.8293 15.4427 66.5993 15.2837C66.5993 15.2572 66.5993 15.2307 66.6045 15.2095C66.9129 15.2837 67.2266 15.3632 67.535 15.4374C67.6187 15.4586 67.7023 15.4798 67.7912 15.5063C68.4603 15.888 69.0772 16.3438 69.6209 16.8951C69.8718 17.1496 70.0966 17.4305 70.3318 17.6955C70.4939 17.9394 70.6612 18.1779 70.818 18.4217C71.5237 19.519 71.9994 20.6958 72.1092 22.0103C72.2556 23.7861 71.8478 25.4505 71.0219 27.0037C70.3736 28.2228 69.5581 29.3307 68.6015 30.3219C68.4185 30.5128 68.2355 30.7089 68.0107 30.9474C68.7949 30.9474 69.5163 30.9474 70.2377 30.9474L70.2325 30.9421ZM61.4291 35.5909C61.4291 35.5909 61.4291 35.5432 61.4291 35.522C61.8316 35.1668 62.2394 34.8117 62.6576 34.4406V33.725C62.9137 33.725 63.149 33.7409 63.379 33.7197C63.5149 33.7091 63.6718 33.672 63.7763 33.5925C64.6702 32.8981 65.5589 32.1878 66.4424 31.4775C66.5783 31.3715 66.6934 31.239 66.8397 31.1012H57.1581C57.0535 31.4987 57.5083 31.7797 57.3201 32.2355C57.0901 32.1454 56.881 32.0606 56.6667 31.9758C56.6196 32.0288 56.5621 32.0924 56.4942 32.1613C56.306 32.0818 56.123 32.0023 55.94 31.9228C55.8564 32.05 55.7518 32.0394 55.6211 31.9917C55.182 31.8327 54.8997 31.5199 54.7429 31.0906H48.6108V47.8675H81.8379V31.0906H67.8696C66.594 32.3203 65.2348 33.4176 63.7972 34.4035V38.8085H66.1654V37.3561H67.2789V39.9057H62.6262V35.0873C62.208 35.2623 61.8212 35.4266 61.4343 35.5856L61.4291 35.5909Z" fill="white"/>
<path d="M79.0934 9.59612C79.1561 9.87176 79.2346 10.1421 79.2764 10.4177C79.3757 11.0167 79.4541 11.621 79.4803 12.2359C79.3339 11.8118 79.1875 11.3825 79.0411 10.9584C79.0254 10.9054 79.0045 10.8524 78.9889 10.7994C78.7902 10.3117 78.6281 9.80285 78.3877 9.33638C78.1158 8.8063 77.7969 8.29213 77.4676 7.79916C76.856 6.88743 76.0927 6.12942 75.1727 5.54104C74.4251 5.01096 73.6357 4.56039 72.7522 4.33246C71.6387 4.04622 70.5096 3.82889 69.3908 3.57445C69.1765 3.52675 68.9622 3.45254 68.7687 3.35182C68.0473 2.97017 67.2841 2.73163 66.4686 2.69983C64.8846 2.64152 63.4731 3.15039 62.2394 4.12573C60.7913 5.2601 59.7615 6.72841 59.1603 8.48296C58.7577 9.65973 58.4754 10.8736 58.2977 12.1034C58.167 13.0098 58.1043 13.9268 58.0154 14.8386C58.0834 15.305 57.8533 15.6284 57.5188 15.904C57.1058 16.238 56.8601 16.6832 56.6562 17.1762C56.4576 17.6639 56.421 18.178 56.3426 18.6869C56.238 19.376 56.2903 20.0598 56.3948 20.7436C56.4523 21.1412 56.4732 21.5493 56.5517 21.9469C56.6405 22.3922 56.7712 22.8321 56.881 23.2774C56.8967 23.3569 56.9124 23.4364 56.9281 23.5159V23.7651C56.9281 23.7651 56.8915 23.7651 56.8758 23.7651C56.6614 23.2297 56.4314 22.6996 56.238 22.1642C56.0812 21.7296 55.8511 21.3108 55.8511 20.8284C55.8511 20.7754 55.8302 20.7171 55.8093 20.6641C55.7309 20.4415 55.6995 20.2188 55.7152 19.9856C55.7257 19.8213 55.6891 19.6517 55.6734 19.482C55.663 19.3813 55.6473 19.2806 55.6525 19.1799C55.6786 18.7399 55.6682 18.2947 55.7466 17.8653C55.8668 17.1921 56.1021 16.556 56.5151 15.9888C56.7399 15.6814 56.9699 15.3952 57.2783 15.1725C57.3097 15.146 57.3097 15.0718 57.3254 15.0188C57.4038 13.4551 57.5867 11.9019 57.9579 10.3806C58.167 9.51661 58.3866 8.64728 58.7002 7.81506C59.3589 6.07641 60.4463 4.624 61.9205 3.51614C63.2588 2.4984 64.7748 1.89411 66.4999 2.01603C67.4461 2.08494 68.3348 2.34998 69.187 2.78464C69.5424 2.96487 69.9763 3.01257 70.3789 3.08678C71.5394 3.30411 72.7156 3.48964 73.8082 3.97731C76.0509 4.98446 77.7969 6.53228 78.8059 8.84871C78.9104 9.09255 79.0045 9.34698 79.0986 9.59612H79.0934Z" fill="white"/>
<path d="M70.1018 11.5678C69.7202 11.4246 69.3333 11.2815 68.9203 11.1225C69.0197 11.6155 68.9256 12.0713 68.7583 12.5166C68.2251 13.9266 66.892 14.6316 65.4544 14.3189C64.4298 14.0962 63.6718 13.4919 63.1647 12.5961C62.9503 12.2198 62.8249 11.7639 62.966 11.2921C62.9922 11.202 62.9922 11.1066 63.0026 11.0112L63.0706 11.0006C63.1751 11.2709 63.2901 11.5413 63.3738 11.8169C63.7659 13.1368 65.0153 14.0803 66.4581 13.9054C67.4095 13.7888 68.0107 13.2057 68.3453 12.3364C68.4864 11.9706 68.544 11.5731 68.6433 11.1914C68.7112 11.1013 68.7426 11.0112 68.6328 10.9264C68.2251 10.6772 67.8121 10.4281 67.5193 10.0358C67.2893 9.7284 67.0959 9.38915 66.892 9.06581C66.8763 9.0446 66.892 9.0022 66.9025 8.92269C67.2266 9.20363 67.535 9.45276 67.8173 9.7284C68.5283 10.4281 69.3699 10.8893 70.3266 11.1384C71.2205 11.3716 72.1301 11.4246 73.045 11.4724C73.7925 11.5148 74.5349 11.5784 75.2824 11.6526C75.915 11.7109 76.5475 11.7798 77.1748 11.8752C77.4781 11.9229 77.776 12.0395 78.074 12.119C78.142 12.1402 78.2152 12.1508 78.2936 12.1455C76.6834 11.0059 75.042 9.92983 73.2959 9.034C71.5342 8.12757 69.694 7.40137 67.7912 6.85539C67.7964 6.82889 67.8068 6.80238 67.8121 6.77588C68.1519 6.83419 68.4969 6.86599 68.8262 6.96141C70.7814 7.52859 72.6268 8.37141 74.399 9.37855C75.5752 10.0464 76.7357 10.7408 77.8231 11.5572C78.0165 11.7056 78.1942 11.8805 78.3824 12.0342C78.6856 12.2781 78.9941 12.5166 79.3443 12.7922C78.9418 12.718 78.5759 12.6597 78.2099 12.5855C77.729 12.4848 77.2585 12.3523 76.7775 12.2622C76.3855 12.188 75.9829 12.1349 75.5856 12.0978C74.9426 12.0395 74.2944 11.9971 73.6514 11.9494C73.5939 11.9494 73.5416 11.9547 73.4841 11.96C72.517 11.8964 71.5446 11.8752 70.588 11.6738C70.4259 11.6367 70.2639 11.6049 70.0966 11.5678H70.1018Z" fill="white"/>
<path d="M55.5898 28.0216C55.6839 28.2707 55.7727 28.5199 55.8668 28.769C55.8459 28.7849 55.8302 28.8008 55.8093 28.8114C55.5218 28.5146 55.2186 28.2336 54.9572 27.9156C54.2253 27.0303 53.7183 26.0073 53.2582 24.9577C53.0073 24.3853 52.7564 23.8075 52.5525 23.2191C52.3643 22.6731 52.2441 22.1006 52.0925 21.5441C51.8833 20.7807 51.852 19.9962 51.7474 19.217C51.6272 18.3265 51.7945 17.4731 51.9618 16.6143C51.967 16.5825 51.9618 16.5454 51.9618 16.5136C52.15 15.8404 52.4375 15.2308 52.8661 14.6796C53.9483 13.2961 55.3388 12.8296 57.0274 13.1954C57.1163 13.2166 57.1999 13.2378 57.3463 13.2802C56.9803 13.365 56.6667 13.4233 56.3582 13.5134C55.7936 13.6777 55.2238 13.8473 54.6697 14.0435C54.1731 14.2237 53.8071 14.6054 53.4778 15.0082C53.0648 15.5065 52.7459 16.0578 52.6466 16.7151C52.4532 17.2504 52.4323 17.8176 52.3852 18.3689C52.3538 18.7559 52.3957 19.1587 52.4427 19.551C52.5054 20.1075 52.5734 20.6641 52.6832 21.2154C52.8766 22.212 53.2164 23.1661 53.6085 24.099C53.8385 24.645 54.1208 25.1698 54.3822 25.7052V25.7158C54.4292 25.8006 54.471 25.8907 54.5129 25.9755C54.8736 26.6593 55.2343 27.3431 55.595 28.0269L55.5898 28.0216Z" fill="white"/>
<path d="M67.2893 5.22283C67.3207 5.56208 67.1848 5.84302 66.9756 6.08685C66.6202 6.50561 65.9981 6.35189 65.7994 5.83772C65.6374 5.41365 65.7367 5.0532 65.951 4.69275C66.1288 4.39061 66.4999 4.26339 66.7404 4.3164C67.007 4.37471 67.2475 4.68215 67.2841 5.0161C67.2893 5.08501 67.2841 5.15392 67.2841 5.21753L67.2893 5.22283ZM66.066 5.07441C66.0556 5.10091 66.0451 5.12741 66.0294 5.15922C66.0399 5.15922 66.0503 5.16452 66.0608 5.16982C66.0608 5.14332 66.066 5.11151 66.0713 5.08501C66.0974 5.0585 66.1235 5.0373 66.1549 5.0108C66.3326 4.93129 66.5261 4.84647 66.6881 4.98959C66.824 5.11151 66.9181 5.29174 67.0175 5.43486C67.0175 5.36595 67.0332 5.26523 67.0279 5.16452C67.0122 4.93129 66.9652 4.70865 66.7247 4.60794C66.5365 4.53373 66.3326 4.64504 66.1444 4.91008C66.134 4.92598 66.1288 4.95249 66.1183 4.97369C66.1026 5.0108 66.0869 5.0426 66.0713 5.07971L66.066 5.07441Z" fill="white"/>
<path d="M66.2595 3.64843C66.432 3.62193 66.5993 3.60072 66.7718 3.57422C66.824 3.59012 66.8763 3.60072 66.9338 3.61662C67.4357 3.71204 67.7441 4.01948 67.8748 4.50715C67.9219 4.67678 67.9375 4.8623 67.718 5.05313C67.6814 4.68208 67.7284 4.33223 67.4618 4.08309C67.19 3.82866 66.8659 3.71734 66.5104 3.78625C66.1706 3.84986 65.9353 4.08839 65.7576 4.40644C65.6374 4.1202 65.6844 4.03538 66.0922 3.74914C66.1497 3.71204 66.2072 3.68023 66.2647 3.64313L66.2595 3.64843Z" fill="white"/>
<path d="M73.1966 5.28125C73.3325 5.28125 73.4684 5.28125 73.6043 5.28125C73.6043 5.28125 73.6148 5.29715 73.6096 5.30775C73.6096 5.31836 73.5939 5.32366 73.5887 5.32896C73.4998 5.35016 73.4109 5.37136 73.3221 5.39787C72.4124 5.6152 71.5394 5.92264 70.7919 6.61174C70.818 6.3361 70.9748 6.24599 71.1264 6.15057C71.691 5.79012 72.3027 5.53569 72.9457 5.35016C73.0293 5.32896 73.1182 5.30775 73.2018 5.28655L73.1966 5.28125Z" fill="white"/>
<path d="M71.6701 4.56577C71.5028 4.61878 71.3355 4.66648 71.1683 4.71949C71.0794 4.74069 70.9853 4.7672 70.8964 4.7884C70.818 4.8096 70.7396 4.83081 70.6559 4.85201C70.0234 5.05344 69.4588 5.38209 68.936 5.79555C69.0458 5.56231 69.2131 5.39269 69.4327 5.28137C69.7254 5.12765 70.0286 4.99513 70.3266 4.84671C70.405 4.8096 70.4677 4.74069 70.5357 4.68769C70.8389 4.62408 71.1421 4.56047 71.4453 4.50216C71.5185 4.48626 71.5969 4.48626 71.6753 4.48096C71.6753 4.51276 71.6753 4.53927 71.6753 4.57107L71.6701 4.56577Z" fill="white"/>
<path d="M72.1197 4.89955C72.3183 4.88895 72.517 4.88365 72.7104 4.87305V4.90485L72.7 4.92605C71.6544 5.09038 70.7134 5.49324 69.8822 6.16113C70.0077 5.89079 70.2325 5.71057 70.473 5.56745C70.7082 5.42433 70.9644 5.32891 71.2101 5.2123C71.2676 5.19109 71.3251 5.16459 71.3826 5.14339C71.4558 5.11688 71.529 5.09568 71.6074 5.06917C71.6701 5.04797 71.7276 5.02677 71.7903 5.00557C71.9001 4.96846 72.0151 4.93136 72.1249 4.89425L72.1197 4.89955Z" fill="white"/>
<path d="M77.2062 33.5871C78.7797 33.5447 80.1076 34.6843 80.4108 36.0943C80.7976 37.886 79.6894 39.6353 77.912 39.9904C76.3959 40.2925 74.9217 39.614 74.263 38.2836C73.2018 36.1314 74.6603 33.6454 77.0755 33.5871C77.1226 33.5871 77.1644 33.5871 77.2114 33.5871H77.2062ZM77.1958 34.6843C76.0666 34.6843 75.0995 35.6597 75.1099 36.8152C75.1256 38.0768 76.1241 38.9462 77.1853 38.9621C78.3197 38.978 79.2816 37.9814 79.2868 36.8046C79.2868 35.6544 78.3302 34.679 77.1958 34.6843Z" fill="white"/>
<path d="M71.0271 33.7461C71.8792 35.7869 72.7365 37.833 73.5991 39.9056H72.3706C72.219 39.5398 72.0622 39.1582 71.9053 38.7712H69.3229C69.1713 39.1476 69.0144 39.5292 68.8628 39.9162H67.6396C68.3819 38.1934 69.1085 36.5025 69.8509 34.7691H68.4812V33.7461H71.0219H71.0271ZM70.6246 35.5218C70.3161 36.2852 70.0391 36.9796 69.7515 37.6952H71.4924C71.2048 36.9743 70.933 36.2905 70.6246 35.5218Z" fill="white"/>
<path d="M58.1409 34.7534H56.7712V33.7251C57.1842 33.7251 57.6076 33.7251 58.0259 33.7251C58.4441 33.7251 58.8518 33.7251 59.2962 33.7251C60.1535 35.7818 61.0109 37.8332 61.8839 39.9164H60.6502C60.5038 39.5506 60.3469 39.169 60.1901 38.7767H57.6076C57.456 39.1478 57.3044 39.5294 57.1424 39.9217H55.9243C56.2955 39.0524 56.6562 38.1989 57.0221 37.3508C57.3881 36.5027 57.754 35.6546 58.1409 34.7587V34.7534ZM58.9041 35.5274C58.6009 36.2854 58.3186 36.9851 58.0259 37.706H59.7719C59.4844 36.9851 59.2073 36.2854 58.9041 35.5274Z" fill="white"/>
<path d="M54.7167 35.5749C53.8646 34.4246 52.5211 34.4935 51.7422 35.1561C50.8012 35.9618 50.681 37.2817 51.4704 38.2094C51.9043 38.7182 52.4636 38.9833 53.1275 38.9621C53.7862 38.9409 54.3194 38.6228 54.7429 38.1034C55.0565 38.3366 55.3493 38.5539 55.642 38.7713C54.9677 39.7731 53.4726 40.3668 52.0297 39.9162C50.681 39.4975 49.7766 38.2677 49.7557 36.8895C49.7348 35.4477 50.6078 34.1861 51.9722 33.7514C53.3994 33.2956 54.8579 33.7726 55.6525 34.8752C55.3493 35.1031 55.0513 35.3364 54.7272 35.5802L54.7167 35.5749Z" fill="white"/>
<path d="M67.9062 43.245H69.7254V44.0878H67.9062V45.1798H70.5252V46.0385H67.0175V44.0984H66.4947V43.2556H67.007V41.395H70.5305V42.2219H67.901V43.2503L67.9062 43.245Z" fill="#E76D14"/>
<path d="M72.2295 46.0337H71.3564V41.3425C72.036 41.9945 72.7052 42.6412 73.3639 43.272C74.0069 42.6253 74.6708 41.9627 75.3504 41.2842C75.4393 41.5598 75.4549 45.6255 75.3818 46.0337H74.5401C74.5401 45.5672 74.5401 45.106 74.5401 44.6502C74.5401 44.1943 74.5401 43.749 74.5401 43.2773C74.148 43.6695 73.7769 44.0353 73.3952 44.4116C73.0084 44.0406 72.632 43.6748 72.2242 43.2826V46.0337H72.2295Z" fill="#E76D14"/>
<path d="M62.2028 41.989C61.9675 42.201 61.7636 42.3866 61.5493 42.5774C61.4343 42.482 61.3297 42.3972 61.22 42.3176C60.8436 42.0314 60.4201 41.989 59.9758 42.0526C59.8608 42.0685 59.7353 42.1268 59.6412 42.1957C59.4844 42.307 59.3432 42.4555 59.3746 42.6728C59.4007 42.8901 59.5576 43.012 59.751 43.0544C60.1012 43.1287 60.4515 43.1817 60.8018 43.2506C61.0318 43.293 61.267 43.3301 61.4866 43.4043C62.4589 43.7223 62.4537 44.7401 62.1087 45.2861C61.7898 45.7896 61.2932 46.0229 60.739 46.1077C59.8921 46.2349 59.1184 46.0176 58.465 45.4398C58.4179 45.3974 58.3709 45.3444 58.3082 45.2702C58.5225 45.0687 58.7316 44.8726 58.9512 44.6659C59.2753 44.9415 59.5942 45.1801 60.0019 45.2649C60.3574 45.3391 60.692 45.2861 61.0161 45.1483C61.0945 45.1164 61.1729 45.0581 61.2357 44.9945C61.4814 44.7401 61.4082 44.3372 61.0788 44.2259C60.7756 44.1252 60.4463 44.0881 60.1326 44.0192C59.8294 43.9503 59.5157 43.9079 59.223 43.8072C58.2716 43.4891 58.2663 42.3388 58.8152 41.8247C59.1341 41.5278 59.5053 41.3741 59.9235 41.3105C60.5613 41.2151 61.1729 41.2946 61.7375 41.6285C61.8996 41.724 62.0355 41.8565 62.2028 41.989Z" fill="#E76D14"/>
<path d="M76.1189 45.2541C76.3332 45.058 76.5371 44.8672 76.72 44.6976C77.018 44.8672 77.2846 45.0474 77.5722 45.1852C77.9799 45.3761 78.4034 45.3231 78.8111 45.1534C79.0568 45.0527 79.198 44.8354 79.1823 44.6022C79.1666 44.3371 78.9836 44.2258 78.7693 44.1781C78.3563 44.088 77.9329 44.0297 77.5199 43.9449C77.3108 43.9024 77.1017 43.8547 76.9135 43.7646C76.0405 43.3618 76.098 42.2327 76.6835 41.7609C77.2585 41.2945 77.9172 41.215 78.6177 41.3051C79.1405 41.374 79.6005 41.5807 79.9978 41.9995C79.7782 42.2009 79.5744 42.3864 79.36 42.5773C79.2293 42.4765 79.1143 42.3705 78.9836 42.2857C78.5288 41.9889 78.0479 41.9359 77.5513 42.1426C77.4415 42.185 77.3369 42.2751 77.269 42.3705C77.1017 42.5985 77.1644 42.8847 77.4258 42.9907C77.661 43.0861 77.9172 43.1285 78.1681 43.1762C78.5184 43.2505 78.8739 43.2823 79.2189 43.383C80.0971 43.6321 80.4108 44.6021 79.8723 45.3549C79.5482 45.8054 79.0777 46.0175 78.5602 46.097C77.6976 46.2295 76.9187 46.0122 76.26 45.4132C76.213 45.3708 76.1816 45.3125 76.1293 45.2435L76.1189 45.2541Z" fill="#E76D14"/>
<path d="M53.5719 41.9997C53.3523 42.2012 53.1432 42.3867 52.9289 42.5881C52.8348 42.5086 52.7459 42.4397 52.6623 42.3708C52.197 42.0156 51.6899 41.9308 51.1515 42.1375C51.026 42.1853 50.9058 42.2966 50.8274 42.4132C50.6862 42.6252 50.7489 42.8691 50.9737 42.991C51.0992 43.0599 51.2403 43.1023 51.3815 43.1288C51.852 43.2242 52.3277 43.2772 52.793 43.3938C53.8542 43.6589 53.8855 44.8038 53.3994 45.4187C53.0909 45.811 52.6623 46.0124 52.197 46.0972C51.3135 46.2562 50.5137 46.0389 49.8341 45.4293C49.787 45.3869 49.7505 45.3286 49.6929 45.265C49.9073 45.0689 50.1164 44.8833 50.2941 44.719C50.6287 44.8992 50.9267 45.0954 51.2508 45.2279C51.6167 45.3816 51.9984 45.3339 52.3591 45.1696C52.4741 45.1166 52.5891 45.0265 52.6675 44.9204C52.8557 44.6766 52.7877 44.3692 52.5054 44.2419C52.3225 44.1624 52.1238 44.1253 51.9252 44.0882C51.5017 43.9981 51.0678 43.9398 50.6496 43.8285C50.1739 43.7013 49.8864 43.3673 49.8289 42.8637C49.7661 42.339 49.9909 41.9361 50.4144 41.6499C50.9424 41.2947 51.5383 41.2311 52.15 41.3053C52.6832 41.3742 53.1589 41.5704 53.5719 41.9997Z" fill="#E76D14"/>
<path d="M53.9849 41.3846H54.9781C55.3231 41.9465 55.6734 42.5243 56.055 43.1392C56.421 42.5402 56.7712 41.9571 57.1215 41.3846H58.1304C57.9109 41.7345 57.7227 42.0472 57.5292 42.3547C57.2365 42.8211 56.9385 43.2876 56.6562 43.7594C56.5778 43.8972 56.5255 44.0721 56.5203 44.2311C56.5046 44.6817 56.5203 45.1376 56.5151 45.5881C56.5151 45.7313 56.4941 45.8744 56.4837 46.0228H55.6316C55.6264 45.8956 55.6159 45.7843 55.6159 45.6729C55.6159 45.1959 55.6107 44.7188 55.6159 44.247C55.6159 44.0615 55.5741 43.9025 55.4695 43.7382C55.0147 43.0438 54.5756 42.3335 54.1312 41.6338C54.0842 41.5595 54.0476 41.4853 53.9849 41.374V41.3846Z" fill="#E76D14"/>
<path d="M62.7308 41.3848H66.2438V42.2117H64.9421V46.0229H64.0691V42.2382H62.7308V41.3901V41.3848Z" fill="#E76D14"/>
</g>
<defs>
<radialGradient id="paint0_radial_12_138" cx="0" cy="0" r="1" gradientUnits="userSpaceOnUse" gradientTransform="translate(62.7621 28.79) scale(15.8451 16.0666)">
<stop stop-color="#91AD2A"/>
<stop offset="0.37" stop-color="#8EAA27"/>
<stop offset="0.62" stop-color="#85A120"/>
<stop offset="0.85" stop-color="#759213"/>
<stop offset="1" stop-color="#668306"/>
</radialGradient>
<linearGradient id="paint1_linear_12_138" x1="53.1171" y1="18.3633" x2="80.4997" y2="18.3633" gradientUnits="userSpaceOnUse">
<stop stop-color="#BA1616"/>
<stop offset="1" stop-color="#FFF000"/>
</linearGradient>
<clipPath id="clip0_12_138">
<rect width="38" height="46" fill="white" transform="translate(44 2)"/>
</clipPath>
</defs>
</svg>
