<svg width="98" height="21" viewBox="0 0 98 21" fill="none" xmlns="http://www.w3.org/2000/svg">
<g clip-path="url(#clip0_2752_32400)">
<path d="M27.4215 2.76673C27.1477 2.76673 26.88 2.68554 26.6524 2.53343C26.4247 2.38132 26.2473 2.16511 26.1425 1.91216C26.0377 1.6592 26.0103 1.38085 26.0637 1.11232C26.1171 0.843782 26.249 0.597116 26.4426 0.403512C26.6362 0.209908 26.8828 0.0780624 27.1514 0.0246473C27.4199 -0.0287679 27.6983 -0.00135331 27.9512 0.103424C28.2042 0.208202 28.4204 0.385637 28.5725 0.613291C28.7246 0.840945 28.8058 1.10859 28.8058 1.38239C28.8058 1.74954 28.6599 2.10165 28.4003 2.36127C28.1407 2.62088 27.7886 2.76673 27.4215 2.76673Z" fill="#00587E"/>
<path fill-rule="evenodd" clip-rule="evenodd" d="M12.8438 0.742188H26.3121V1.91567H14.0169V4.79173H12.8438V0.742188Z" fill="url(#paint0_linear_2752_32400)"/>
<path d="M20.9615 6.71791C20.6877 6.71791 20.42 6.63671 20.1924 6.4846C19.9647 6.33249 19.7873 6.11628 19.6825 5.86333C19.5777 5.61037 19.5503 5.33203 19.6037 5.06349C19.6572 4.79495 19.789 4.54829 19.9826 4.35468C20.1762 4.16108 20.4229 4.02923 20.6914 3.97582C20.96 3.9224 21.2383 3.94982 21.4913 4.0546C21.7442 4.15937 21.9604 4.33681 22.1125 4.56446C22.2646 4.79212 22.3458 5.05977 22.3458 5.33356C22.3458 5.51536 22.31 5.69537 22.2405 5.86333C22.1709 6.03128 22.0689 6.18389 21.9404 6.31244C21.8118 6.44099 21.6592 6.54296 21.4913 6.61253C21.3233 6.6821 21.1433 6.71791 20.9615 6.71791Z" fill="#CEE6BF"/>
<path fill-rule="evenodd" clip-rule="evenodd" d="M6.38281 4.69336H19.8511V5.86684H7.55613V9.66636H6.38281V4.69336Z" fill="url(#paint1_linear_2752_32400)"/>
<path d="M20.774 15.6202C20.5002 15.6202 20.2325 15.5391 20.0049 15.3869C19.7772 15.2348 19.5998 15.0186 19.495 14.7657C19.3902 14.5127 19.3628 14.2344 19.4162 13.9658C19.4697 13.6973 19.6015 13.4506 19.7951 13.257C19.9887 13.0634 20.2354 12.9316 20.5039 12.8782C20.7725 12.8247 21.0508 12.8522 21.3038 12.9569C21.5567 13.0617 21.7729 13.2392 21.925 13.4668C22.0771 13.6945 22.1583 13.9621 22.1583 14.2359C22.1583 14.4177 22.1225 14.5977 22.053 14.7657C21.9834 14.9336 21.8814 15.0862 21.7529 15.2148C21.6243 15.3433 21.4717 15.4453 21.3038 15.5149C21.1358 15.5844 20.9558 15.6202 20.774 15.6202Z" fill="#CEE6BF"/>
<path fill-rule="evenodd" clip-rule="evenodd" d="M6.38281 14.8229H19.8511V13.6494H7.55613V9.62891H6.38281V14.8229Z" fill="url(#paint2_linear_2752_32400)"/>
<path d="M27.2349 20.5695C26.9611 20.5695 26.6935 20.4883 26.4658 20.3362C26.2382 20.184 26.0607 19.9678 25.956 19.7149C25.8512 19.4619 25.8238 19.1836 25.8772 18.9151C25.9306 18.6465 26.0624 18.3999 26.2561 18.2062C26.4497 18.0126 26.6963 17.8808 26.9649 17.8274C27.2334 17.774 27.5117 17.8014 27.7647 17.9062C28.0176 18.0109 28.2339 18.1884 28.386 18.416C28.5381 18.6437 28.6193 18.9113 28.6193 19.1851C28.6193 19.5523 28.4734 19.9044 28.2138 20.164C27.9542 20.4236 27.6021 20.5695 27.2349 20.5695Z" fill="#00587E"/>
<path fill-rule="evenodd" clip-rule="evenodd" d="M12.8438 19.7721H26.3121V18.5986H14.0169V14.5781H12.8438V19.7721Z" fill="url(#paint3_linear_2752_32400)"/>
<path d="M14.5777 11.0695C14.3039 11.0695 14.0363 10.9883 13.8086 10.8362C13.5809 10.6841 13.4035 10.4678 13.2987 10.2149C13.194 9.96193 13.1665 9.68359 13.22 9.41505C13.2734 9.14652 13.4052 8.89985 13.5988 8.70625C13.7924 8.51264 14.0391 8.3808 14.3076 8.32738C14.5762 8.27397 14.8545 8.30138 15.1075 8.40616C15.3604 8.51094 15.5766 8.68837 15.7287 8.91602C15.8809 9.14368 15.962 9.41133 15.962 9.68512C15.962 10.0523 15.8162 10.4044 15.5566 10.664C15.297 10.9236 14.9449 11.0695 14.5777 11.0695Z" fill="#ECE190"/>
<path fill-rule="evenodd" clip-rule="evenodd" d="M0 9.04297H13.4685V10.2163H0V9.04297Z" fill="url(#paint4_linear_2752_32400)"/>
<path d="M62.1908 5.53002C62.7546 5.53002 63.2117 5.07296 63.2117 4.50915C63.2117 3.94534 62.7546 3.48828 62.1908 3.48828C61.627 3.48828 61.1699 3.94534 61.1699 4.50915C61.1699 5.07296 61.627 5.53002 62.1908 5.53002Z" fill="#00587E"/>
<path d="M32.9736 10.3161C32.9736 14.0266 35.2673 17.0286 39.3132 17.0286C43.3782 17.0286 45.0377 14.213 45.2051 11.9568H43.2848C43.0991 13.5046 41.8864 15.3878 39.3693 15.3878C36.5349 15.3878 34.9124 13.1315 34.9124 10.3161C34.9124 7.50061 36.5346 5.2443 39.3693 5.2443C41.8864 5.2443 43.0984 7.12751 43.2848 8.67528H45.2053C45.0377 6.41913 43.3782 3.60352 39.3134 3.60352C35.2669 3.60352 32.9736 6.60551 32.9736 10.3161Z" fill="#00587E"/>
<path d="M46.3936 14.2139C46.3936 15.8362 47.8665 17.0295 49.6751 17.0295C51.4093 17.0295 52.6771 16.0785 53.2179 14.6614C53.2552 14.5682 53.2925 14.419 53.4415 14.4757C53.5722 14.5316 53.4976 14.6807 53.4603 14.8485C53.2925 15.3333 53.2552 15.6131 53.2552 15.9673V16.8796H55.0447V11.4349C55.0447 7.92928 53.0495 7.18359 50.9053 7.18359C48.7051 7.18359 47.027 8.1344 46.6914 10.3161H48.4441C48.5746 9.38369 49.1531 8.74976 50.8307 8.74976C52.789 8.74976 53.2359 9.53309 53.2547 10.3161C53.2732 11.3042 51.5394 11.0993 49.8239 11.2298C47.997 11.3608 46.3936 12.0315 46.3936 14.2139ZM53.2552 11.734C53.2364 14.1394 51.8202 15.2023 50.3651 15.3887C48.8175 15.5938 48.1836 14.8851 48.1836 14.1207C48.1836 13.2443 48.7802 12.8341 49.9361 12.6664C51.3905 12.4605 52.6771 12.4412 53.2552 11.7332V11.734Z" fill="url(#paint5_radial_2752_32400)"/>
<path d="M57.2783 3.45508V16.8802H59.0678V3.45508H57.2783Z" fill="#00587E"/>
<path d="M61.3027 16.8789H63.0923V7.33203H61.3027V16.8789Z" fill="#00587E"/>
<path d="M81.5856 8.89905V7.33271H78.9013V4.64844H77.1118V7.33271H75.3223V8.89905H77.1118V14.0819C77.1118 16.1517 78.044 16.8789 80.0206 16.8789H81.5868V15.3133H80.1697C79.1255 15.3133 78.9018 14.9777 78.9018 13.8962V8.89905H81.5856Z" fill="#00587E"/>
<path d="M85.1764 9.55166C85.0272 9.51435 85.0832 9.36512 85.1205 9.21588C85.2883 8.65657 85.3256 8.35826 85.3256 7.96659V7.33266H83.5361V16.8796H85.3256V12.3111C85.3256 9.81249 86.1274 8.82438 88.9057 9.01093V7.18359C86.5001 7.18359 85.9596 7.85483 85.363 9.38369C85.3256 9.47705 85.2696 9.57024 85.1764 9.55166Z" fill="url(#paint6_radial_2752_32400)"/>
<path d="M89.3486 14.2139C89.3486 15.8362 90.8216 17.0295 92.6302 17.0295C94.3643 17.0295 95.6322 16.0785 96.1729 14.6614C96.2102 14.5682 96.2476 14.419 96.3966 14.4757C96.5273 14.5316 96.4527 14.6807 96.4154 14.8485C96.2476 15.3333 96.2102 15.6131 96.2102 15.9673V16.8796H97.9998V11.4349C97.9998 7.92928 96.0048 7.18359 93.8604 7.18359C91.6603 7.18359 89.9822 8.1344 89.6464 10.3161H91.3991C91.5296 9.38369 92.1082 8.74976 93.786 8.74976C95.7443 8.74976 96.1912 9.53309 96.2099 10.3161C96.2285 11.3042 94.4943 11.0993 92.7789 11.2298C90.9521 11.3608 89.3486 12.0315 89.3486 14.2139ZM96.2102 11.7332C96.1915 14.1386 94.7753 15.2015 93.3202 15.3879C91.7724 15.593 91.1385 14.8843 91.1385 14.1198C91.1385 13.2435 91.7351 12.8332 92.8912 12.6656C94.3456 12.4605 95.6322 12.4412 96.2102 11.7332Z" fill="url(#paint7_radial_2752_32400)"/>
<path d="M53.9536 14.337C53.9536 14.4226 53.9283 14.5063 53.8807 14.5775C53.8332 14.6487 53.7656 14.7042 53.6865 14.737C53.6074 14.7698 53.5204 14.7784 53.4364 14.7617C53.3524 14.745 53.2753 14.7038 53.2147 14.6433C53.1542 14.5828 53.1129 14.5056 53.0962 14.4217C53.0795 14.3377 53.0881 14.2507 53.1208 14.1715C53.1536 14.0924 53.2091 14.0248 53.2802 13.9773C53.3514 13.9297 53.4351 13.9043 53.5207 13.9043C53.5776 13.9043 53.6339 13.9155 53.6864 13.9372C53.7389 13.9589 53.7866 13.9908 53.8268 14.031C53.867 14.0712 53.8989 14.1189 53.9207 14.1714C53.9424 14.2239 53.9536 14.2802 53.9536 14.337Z" fill="white"/>
<path d="M67.3081 14.4989C67.3082 14.5846 67.2828 14.6683 67.2353 14.7395C67.1878 14.8108 67.1202 14.8663 67.0411 14.8991C66.962 14.9319 66.8749 14.9405 66.7909 14.9238C66.7069 14.9072 66.6298 14.8659 66.5692 14.8054C66.5087 14.7449 66.4674 14.6677 66.4507 14.5837C66.434 14.4997 66.4426 14.4127 66.4754 14.3336C66.5081 14.2545 66.5636 14.1869 66.6348 14.1393C66.7061 14.0917 66.7898 14.0664 66.8754 14.0664C66.9901 14.0664 67.1002 14.112 67.1813 14.1931C67.2625 14.2742 67.3081 14.3842 67.3081 14.4989Z" fill="white"/>
<path d="M67.3081 9.51082C67.3081 9.59644 67.2828 9.68016 67.2352 9.75136C67.1877 9.82257 67.1201 9.87808 67.041 9.91086C66.9619 9.94365 66.8748 9.95223 66.7908 9.93554C66.7069 9.91884 66.6297 9.87761 66.5692 9.81706C66.5086 9.75652 66.4674 9.67937 66.4507 9.59539C66.434 9.51141 66.4426 9.42436 66.4754 9.34526C66.5081 9.26616 66.5637 9.19856 66.6349 9.151C66.7061 9.10345 66.7898 9.07809 66.8754 9.07813C66.9901 9.07821 67.1001 9.12383 67.1813 9.20496C67.2624 9.28608 67.308 9.39609 67.3081 9.51082Z" fill="white"/>
<path d="M85.5815 9.51082C85.5816 9.59644 85.5562 9.68014 85.5087 9.75135C85.4611 9.82255 85.3935 9.87806 85.3145 9.91085C85.2354 9.94364 85.1483 9.95223 85.0643 9.93555C84.9804 9.91887 84.9032 9.87765 84.8427 9.81712C84.7821 9.75659 84.7409 9.67947 84.7241 9.59549C84.7074 9.51152 84.716 9.42448 84.7488 9.34538C84.7815 9.26627 84.837 9.19866 84.9082 9.15109C84.9794 9.10352 85.0631 9.07813 85.1487 9.07812C85.2634 9.07817 85.3735 9.12377 85.4547 9.2049C85.5358 9.28603 85.5815 9.39606 85.5815 9.51082Z" fill="white"/>
<path d="M96.9429 14.2742C96.943 14.3598 96.9177 14.4435 96.8702 14.5148C96.8227 14.586 96.7551 14.6416 96.676 14.6744C96.5969 14.7073 96.5099 14.7159 96.4259 14.6993C96.3419 14.6826 96.2647 14.6414 96.2041 14.5809C96.1435 14.5204 96.1022 14.4433 96.0855 14.3593C96.0688 14.2753 96.0773 14.1883 96.1101 14.1091C96.1428 14.03 96.1983 13.9624 96.2695 13.9148C96.3407 13.8672 96.4244 13.8418 96.51 13.8418C96.6247 13.8418 96.7347 13.8873 96.8159 13.9684C96.8971 14.0495 96.9427 14.1594 96.9429 14.2742Z" fill="white"/>
<path d="M72.785 12.127C72.785 13.8984 71.8526 15.4087 69.9882 15.4087C68.2913 15.4087 67.1167 13.8984 67.1167 12.127H65.3271V20.4803H67.1167V16.0985C67.1167 15.7629 67.0606 15.5019 66.931 15.0916C66.8749 14.9426 66.7817 14.7748 66.9683 14.7187C67.08 14.6814 67.1361 14.8305 67.154 14.8865C67.732 16.1731 68.8695 17.0495 70.3616 17.0495C72.8416 17.0495 74.5756 14.9611 74.5756 12.127H72.785Z" fill="url(#paint8_radial_2752_32400)"/>
<path d="M67.3081 14.5186C67.3081 14.6043 67.2828 14.688 67.2352 14.7592C67.1877 14.8304 67.1201 14.8859 67.041 14.9187C66.9619 14.9515 66.8748 14.96 66.7908 14.9433C66.7069 14.9267 66.6297 14.8854 66.5692 14.8249C66.5086 14.7643 66.4674 14.6872 66.4507 14.6032C66.434 14.5192 66.4426 14.4322 66.4754 14.3531C66.5081 14.274 66.5637 14.2064 66.6349 14.1588C66.7061 14.1113 66.7898 14.0859 66.8754 14.0859C66.9322 14.0859 66.9885 14.0971 67.041 14.1189C67.0935 14.1406 67.1412 14.1725 67.1814 14.2127C67.2216 14.2528 67.2534 14.3005 67.2752 14.353C67.2969 14.4055 67.3081 14.4618 67.3081 14.5186Z" fill="white"/>
<path d="M70.3613 7.20508C68.8323 7.20508 67.7135 8.09984 67.1537 9.33072C67.1351 9.3866 67.0791 9.57315 66.93 9.51642C66.7622 9.46038 66.8739 9.274 66.93 9.12476C67.0603 8.73326 67.1157 8.45352 67.1157 8.09933V7.35415H65.3262V12.1276H67.1157C67.1157 10.3563 68.2904 8.84586 69.9872 8.84586C71.8517 8.84586 72.7841 10.3563 72.7841 12.1276H74.5736C74.5753 9.29341 72.8413 7.20508 70.3613 7.20508Z" fill="url(#paint9_radial_2752_32400)"/>
<path d="M67.4005 9.34871C67.4005 9.43429 67.3752 9.51796 67.3276 9.58912C67.2801 9.66027 67.2125 9.71573 67.1334 9.74848C67.0543 9.78122 66.9673 9.78978 66.8834 9.77307C66.7994 9.75636 66.7223 9.71514 66.6618 9.65461C66.6013 9.59408 66.5601 9.51696 66.5435 9.43302C66.5268 9.34907 66.5354 9.26207 66.5681 9.18301C66.6009 9.10395 66.6564 9.03638 66.7276 8.98886C66.7988 8.94133 66.8824 8.91598 66.968 8.91602C67.0248 8.91602 67.0811 8.92721 67.1336 8.94896C67.1861 8.9707 67.2338 9.00258 67.2739 9.04276C67.3141 9.08294 67.3459 9.13064 67.3677 9.18314C67.3894 9.23563 67.4006 9.29189 67.4005 9.34871Z" fill="white"/>
</g>
<defs>
<linearGradient id="paint0_linear_2752_32400" x1="12.8438" y1="2.7667" x2="26.3121" y2="2.7667" gradientUnits="userSpaceOnUse">
<stop stop-color="#CEE6BF"/>
<stop offset="1" stop-color="#00587E"/>
</linearGradient>
<linearGradient id="paint1_linear_2752_32400" x1="6.38281" y1="7.17977" x2="19.8511" y2="7.17977" gradientUnits="userSpaceOnUse">
<stop stop-color="#ECE190"/>
<stop offset="0.36" stop-color="#DDE4A8"/>
<stop offset="0.73" stop-color="#D2E5B9"/>
<stop offset="1" stop-color="#CEE6BF"/>
</linearGradient>
<linearGradient id="paint2_linear_2752_32400" x1="6.38281" y1="12.2259" x2="19.8511" y2="12.2259" gradientUnits="userSpaceOnUse">
<stop stop-color="#ECE190"/>
<stop offset="0.36" stop-color="#DDE4A8"/>
<stop offset="0.73" stop-color="#D2E5B9"/>
<stop offset="1" stop-color="#CEE6BF"/>
</linearGradient>
<linearGradient id="paint3_linear_2752_32400" x1="12.8438" y1="17.1751" x2="26.3121" y2="17.1751" gradientUnits="userSpaceOnUse">
<stop stop-color="#CEE6BF"/>
<stop offset="1" stop-color="#00587E"/>
</linearGradient>
<linearGradient id="paint4_linear_2752_32400" x1="0" y1="9.62963" x2="13.4685" y2="9.62963" gradientUnits="userSpaceOnUse">
<stop stop-color="#E2C675"/>
<stop offset="1" stop-color="#ECE190"/>
</linearGradient>
<radialGradient id="paint5_radial_2752_32400" cx="0" cy="0" r="1" gradientUnits="userSpaceOnUse" gradientTransform="translate(51.309 13.6358) scale(3.60942)">
<stop stop-color="#CEE6BF"/>
<stop offset="0.01" stop-color="#CAE3BE"/>
<stop offset="0.2" stop-color="#8DB9AB"/>
<stop offset="0.38" stop-color="#5B979B"/>
<stop offset="0.54" stop-color="#337B8E"/>
<stop offset="0.7" stop-color="#176885"/>
<stop offset="0.83" stop-color="#065C80"/>
<stop offset="0.93" stop-color="#00587E"/>
</radialGradient>
<radialGradient id="paint6_radial_2752_32400" cx="0" cy="0" r="1" gradientUnits="userSpaceOnUse" gradientTransform="translate(85.0564 9.55166) scale(2.08344)">
<stop stop-color="#CEE6BF"/>
<stop offset="0.01" stop-color="#CAE3BE"/>
<stop offset="0.2" stop-color="#8DB9AB"/>
<stop offset="0.38" stop-color="#5B979B"/>
<stop offset="0.54" stop-color="#337B8E"/>
<stop offset="0.7" stop-color="#176885"/>
<stop offset="0.83" stop-color="#065C80"/>
<stop offset="0.93" stop-color="#00587E"/>
</radialGradient>
<radialGradient id="paint7_radial_2752_32400" cx="0" cy="0" r="1" gradientUnits="userSpaceOnUse" gradientTransform="translate(96.5457 14.237) scale(2.86846)">
<stop stop-color="#CEE6BF"/>
<stop offset="0.01" stop-color="#CAE3BE"/>
<stop offset="0.2" stop-color="#8DB9AB"/>
<stop offset="0.38" stop-color="#5B979B"/>
<stop offset="0.54" stop-color="#337B8E"/>
<stop offset="0.7" stop-color="#176885"/>
<stop offset="0.83" stop-color="#065C80"/>
<stop offset="0.93" stop-color="#00587E"/>
</radialGradient>
<radialGradient id="paint8_radial_2752_32400" cx="0" cy="0" r="1" gradientUnits="userSpaceOnUse" gradientTransform="translate(66.9988 14.7321) scale(1.93166)">
<stop stop-color="#CEE6BF"/>
<stop offset="0.01" stop-color="#CAE3BE"/>
<stop offset="0.2" stop-color="#8DB9AB"/>
<stop offset="0.38" stop-color="#5B979B"/>
<stop offset="0.54" stop-color="#337B8E"/>
<stop offset="0.7" stop-color="#176885"/>
<stop offset="0.83" stop-color="#065C80"/>
<stop offset="0.93" stop-color="#00587E"/>
</radialGradient>
<radialGradient id="paint9_radial_2752_32400" cx="0" cy="0" r="1" gradientUnits="userSpaceOnUse" gradientTransform="translate(67.2192 9.77962) scale(1.98079)">
<stop stop-color="#CEE6BF"/>
<stop offset="0.01" stop-color="#CAE3BE"/>
<stop offset="0.2" stop-color="#8DB9AB"/>
<stop offset="0.38" stop-color="#5B979B"/>
<stop offset="0.54" stop-color="#337B8E"/>
<stop offset="0.7" stop-color="#176885"/>
<stop offset="0.83" stop-color="#065C80"/>
<stop offset="0.93" stop-color="#00587E"/>
</radialGradient>
<clipPath id="clip0_2752_32400">
<rect width="98" height="20.5698" fill="white"/>
</clipPath>
</defs>
</svg>
