<svg width="125" height="50" viewBox="0 0 125 50" fill="none" xmlns="http://www.w3.org/2000/svg">
<g clip-path="url(#clip0_239_804)">
<g clip-path="url(#clip1_239_804)">
<path d="M116.61 47.6521C116.177 47.2148 115.96 46.6834 115.96 46.0628C115.96 45.4421 116.177 44.9155 116.61 44.4782C117.043 44.0409 117.567 43.8199 118.18 43.8199C118.794 43.8199 119.322 44.0409 119.755 44.4782C120.193 44.9202 120.409 45.4468 120.409 46.0628C120.409 46.6787 120.193 47.2148 119.755 47.6521C119.317 48.0941 118.794 48.3104 118.18 48.3104C117.567 48.3104 117.043 48.0894 116.61 47.6521ZM116.957 44.7979C116.628 45.1412 116.461 45.5644 116.461 46.0628C116.461 46.5612 116.628 46.9891 116.957 47.3323C117.287 47.6756 117.697 47.8496 118.18 47.8496C118.663 47.8496 119.069 47.6756 119.403 47.3323C119.737 46.9891 119.904 46.5659 119.904 46.0628C119.904 45.5597 119.737 45.1365 119.403 44.7979C119.069 44.4547 118.663 44.2854 118.18 44.2854C117.697 44.2854 117.287 44.4547 116.957 44.7979ZM118.564 47.2665L118.104 46.3919H117.928V47.2665H117.404V44.8308H118.307C118.541 44.8308 118.74 44.9061 118.898 45.0565C119.056 45.207 119.137 45.3904 119.137 45.6114C119.137 45.7759 119.092 45.9264 119.002 46.0534C118.911 46.1803 118.789 46.2744 118.641 46.3308L119.155 47.2712H118.559L118.564 47.2665ZM117.928 45.9452H118.225C118.347 45.9452 118.442 45.917 118.505 45.8559C118.573 45.7995 118.604 45.7148 118.604 45.6114C118.604 45.5079 118.573 45.4233 118.505 45.3622C118.437 45.301 118.343 45.2728 118.225 45.2728H117.928V45.9452Z" fill="white"/>
<path d="M39.3804 13.7549C36.1178 16.8065 31.3389 17.1874 29.1909 14.6953C27.0429 12.1985 27.3091 6.96509 30.5717 3.91344C33.8344 0.861792 38.505 0.744241 41.0095 3.65012C43.5095 6.55601 42.6476 10.7079 39.3849 13.7549H39.3804Z" fill="#E7371E"/>
<path d="M124.444 31.872C124.011 32.6525 122.346 35.0459 118.605 38.8781C117.517 39.9925 114.918 42.2071 113.47 43.2181C112.016 44.229 110.487 45.1412 108.876 45.9453C105.22 47.7979 102.86 48.4186 99.7962 48.4186C95.3242 48.4186 92.5986 47.2149 91.6148 44.8121C91.308 44.088 91.1545 43.2792 91.1545 42.3858C91.1545 41.4924 91.317 40.5285 91.6419 39.494C91.9668 38.4596 92.3955 37.4345 92.928 36.4142C93.9885 34.3923 95.2475 32.6055 96.6961 31.0491C97.9235 29.709 99.53 28.1103 99.5706 27.753C99.6157 27.3533 99.3495 27.0947 98.9118 26.9865C98.3657 26.8549 97.7836 26.6386 97.021 26.8031C96.2583 26.9677 95.3648 28.0069 93.9975 29.4974C93.9975 29.4974 87.6121 36.7715 85.5408 38.7558C81.9668 42.1742 78.2845 44.309 74.8955 45.635C71.9939 46.7635 69.9136 46.7117 68.6455 45.4751C67.6031 44.4359 66.7773 42.7526 66.1636 40.4298L65.428 37.6555L58.9027 41.8357L55.1347 44.0692C50.6401 46.6224 47.2737 47.9014 45.0264 47.9014C42.1473 47.9014 39.7466 46.7399 37.8287 44.4218C36.9443 43.3686 36.2764 42.2354 35.8206 41.0222C35.1211 41.5677 34.4082 42.099 33.6771 42.6209C32.1157 43.74 30.5589 44.7181 29.0065 45.5597C27.4542 46.4014 25.9425 47.0691 24.4713 47.5722C23.0002 48.0706 21.5562 48.3245 20.1392 48.3245C18.7222 48.3245 17.2466 47.9672 15.7258 47.2572C14.2051 46.5425 12.8513 45.5926 11.669 44.3983C11.3757 44.1021 11.0959 43.7964 10.8341 43.4908C10.7304 43.3686 10.5589 43.3544 10.4325 43.4579C9.34949 44.3513 8.18523 45.1412 6.92621 45.7478C4.79624 46.7776 1.05075 47.6898 0.495699 44.2196C0.247505 42.6632 1.05978 41.7934 2.08415 40.8718C3.33415 39.748 4.62025 38.6524 5.78902 37.4392C6.45238 36.748 7.07061 36.0192 7.66176 35.2622L7.72494 35.0788C7.80617 32.2199 8.65906 29.3282 10.2926 26.3941C11.863 23.6057 13.8666 21.2688 16.2989 19.3739C18.7313 17.4789 20.9876 16.5338 23.0679 16.5338C26.0508 16.5338 27.5174 17.3238 27.9686 19.0776C28.3793 20.6528 27.8378 22.3973 27.4632 23.4176C27.1338 24.3157 26.7367 25.2279 26.2358 26.1307C25.7349 27.0382 25.1843 27.9175 24.5796 28.7827C23.9749 29.6432 23.4018 30.4237 22.8468 31.1291C21.669 32.6196 20.8206 33.5318 20.4009 33.9456C20.3378 34.0067 20.3062 34.0867 20.3107 34.1713C20.3513 34.8578 20.6852 35.5772 21.66 36.2966C22.6392 37.0208 23.6816 37.3546 24.363 37.3546C25.0444 37.3546 25.8567 37.1853 26.7818 36.8421C27.7114 36.5035 28.6681 36.0427 29.6609 35.4691C30.6536 34.8954 31.6645 34.2371 32.6934 33.4895C33.7222 32.7419 34.7421 31.9801 35.7394 31.1902L39.0246 28.5147C42.576 25.3314 47.4406 21.4616 53.7087 18.9883C54.1058 18.8331 57.3594 17.7563 58.5192 17.4366C61.7276 16.5479 66.7186 16.0119 70.243 18.5651C71.3486 19.3645 73.3477 21.6403 72.549 23.1966C72.4542 23.38 72.373 23.5399 72.2331 23.6857C71.9758 23.9631 71.7908 24.1089 71.2583 24.3063C69.6609 24.8941 69.4804 22.0117 64.4623 22.9051C62.9551 23.1731 59.6518 24.6496 58.3522 25.3267C54.9903 27.0759 52.4858 28.637 50.1121 31.6322C49.8143 32.0083 49.4758 32.8265 49.3991 33.3061C49.3766 33.4566 49.363 33.6023 49.363 33.7434C49.363 34.5851 50.1257 35.3186 51.4253 35.3186C51.7457 35.3186 52.1067 35.2528 52.5444 35.1164C55.8612 33.7669 58.2394 32.0413 61.2674 30.2874C61.7006 30.0382 66.15 27.4144 67.3188 26.8549C69.1464 25.9756 72.0119 25.0775 73.9614 26.3988C74.2683 26.6386 74.5616 26.9301 74.8414 27.2781C75.049 27.5602 75.234 27.8611 75.3964 28.1809C75.5589 28.5006 75.7033 28.8344 75.8251 29.1777C76.0101 29.7325 76.1816 30.2921 76.3441 30.8563C76.5065 31.4206 76.669 31.9237 76.8314 32.3704C77.2015 33.4143 77.9912 33.9738 78.2845 33.9738C78.8035 33.9738 79.0065 33.8186 79.5571 33.5083C80.1076 33.2027 82.039 31.8109 82.6437 31.2513C84.7737 29.2905 87.4361 26.4881 90.7304 22.5196C92.9009 19.9052 95.5363 16.2423 97.4993 16.2423C99.2367 16.2423 100.41 16.7548 101.019 17.7752L101.448 18.4758C101.773 19.0071 102.238 19.2657 102.562 19.2657C102.887 19.2657 103.533 19.1952 104.277 19.0306C104.277 19.0306 106.89 18.2689 108.623 18.2689C109.011 18.2689 110.645 18.236 111.461 18.645C112.77 19.2986 113.51 20.2249 113.862 21.3017C113.961 21.5979 114.061 21.8895 114.101 22.1998C114.363 24.2123 113.614 25.2326 112.924 26.4317C112.743 26.695 112.549 26.9489 112.346 27.1887C111.331 28.4018 109.611 30.1087 109.372 30.3532C109.133 30.5977 108.185 31.5569 108.018 31.7121C107.797 31.9143 107.242 32.4409 107.021 32.6431C105.821 33.8327 105.527 34.1713 105.293 34.4299C104.169 35.6666 103.88 37.3687 105.148 37.7449C106.055 37.933 107.048 37.7543 108.118 37.1665C109.868 36.2026 111.701 34.9848 112.517 34.3641C115.053 32.4409 120.324 28.4771 121.61 27.8658C121.868 27.7436 122.743 27.1699 123.831 27.1417C124.729 27.1182 125.469 28.0398 125.414 28.9755C125.369 29.7137 125.053 30.7341 124.417 31.8814L124.444 31.872Z" fill="white"/>
</g>
</g>
<defs>
<clipPath id="clip0_239_804">
<rect width="125" height="50" fill="white"/>
</clipPath>
<clipPath id="clip1_239_804">
<rect width="125" height="46.875" fill="white" transform="translate(0.449997 1.54375)"/>
</clipPath>
</defs>
</svg>
