<svg width="156" height="31" viewBox="0 0 156 31" fill="none" xmlns="http://www.w3.org/2000/svg">
<g clip-path="url(#clip0_184_403)">
<path d="M0 14.5292C0.429312 5.65094 4.74365 1.32412 13.6494 0.97718C17.6018 0.823676 21.6079 1.10198 25.5628 0.982172V6.07776H13.4048C11.7275 6.07776 9.35002 7.59033 8.47642 8.99558C6.92515 11.4903 6.89395 19.1006 8.2081 21.6965C9.08794 23.4337 11.7025 25.0923 13.6544 25.0923H25.5628V30.0631H11.7849C3.91747 29.5352 0.354432 23.9666 0 16.6421V14.5292Z" fill="#ED6B1B"/>
<path d="M102.628 0.984375L109.738 23.3535L115.989 1.00185L123.566 0.995607L129.565 23.3535L136.983 0.984375H143.78L133.542 30.0515L125.509 29.9417L119.774 8.56348L113.96 30.0478L106.177 30.074L95.6455 0.984375H102.628Z" fill="#ED6B1B"/>
<path d="M37.1604 0.984375V12.7281L37.3476 12.914H51.6884L51.8756 12.7281V0.984375H58.3602V30.064H51.8756V17.8848H37.1604V30.064H30.6758V0.984375H37.1604Z" fill="#ED6B1B"/>
<path d="M69.9567 0.984375V20.0613C69.9567 23.1226 72.3204 24.9572 75.1471 25.3279C80.1391 25.9806 84.0254 24.5603 84.0466 18.9418V0.984375H90.5325L90.5374 20.0663C90.7134 27.6005 84.6881 30.0653 78.1311 30.3199C71.4643 30.5782 63.3285 28.7337 63.4671 20.563L63.4721 0.984375H69.9567Z" fill="#ED6B1B"/>
<path d="M155.75 0.984375H149.016V30.0653H155.75V0.984375Z" fill="#ED6B1B"/>
</g>
<defs>
<clipPath id="clip0_184_403">
<rect width="156" height="29.5776" fill="white" transform="translate(0 0.859375)"/>
</clipPath>
</defs>
</svg>
