<svg width="109" height="18" viewBox="0 0 109 18" fill="none" xmlns="http://www.w3.org/2000/svg">
<mask id="mask0_12_2622" style="mask-type:luminance" maskUnits="userSpaceOnUse" x="2" y="2" width="105" height="13">
<path d="M106.634 2.96997H2.77539V15H106.634V2.96997Z" fill="white"/>
</mask>
<g mask="url(#mask0_12_2622)">
<path d="M13.1884 14.9958V11.3759H5.74399V6.10287H13.1884V2.96997H2.77539V14.9958H13.1884Z" fill="white"/>
<path d="M17.0532 6.10278H14.7405V14.9957H17.0532V6.10278Z" fill="white"/>
<path d="M17.0532 2.96997H14.7405V4.98027H17.0532V2.96997Z" fill="white"/>
<path d="M52.1472 6.10278H49.8345V14.9957H52.1472V6.10278Z" fill="white"/>
<path d="M52.1472 2.96997H49.8345V4.98027H52.1472V2.96997Z" fill="white"/>
<path d="M22.6656 5.07861V5.09741H21.5765V5.07861H18.5017V14.9957H21.5765V7.10771H22.6656V8.98311H25.2854V7.10771V5.09741V5.07861H22.6656Z" fill="white"/>
<path d="M36.1954 7.71771V5.07861H26.3091V7.08731V7.71771V14.9957H28.4952H29.4206H36.1954V11.8926H29.4206V7.71771H36.1954Z" fill="white"/>
<path d="M44.7227 5.07861V12.4241H40.9025V5.07861H37.8103V14.9957H40.9025H44.7227H45.1365H48.2088V5.07861H44.7227Z" fill="white"/>
<path d="M56.0856 12.4242V8.68237H58.2125V6.10287H56.0856V2.96997H53.5061V14.9958H54.7072H56.0856H59.2169V12.4242H56.0856Z" fill="white"/>
<path d="M79.6147 5.07861V14.9957H88.6148V5.07861H79.6147ZM85.9857 12.4639H82.2439V7.14641H85.9857V12.4639Z" fill="white"/>
<path d="M97.6338 5.07861V14.9957H106.635V5.07861H97.6338ZM104.005 12.4639H100.264V7.14641H104.005V12.4639Z" fill="white"/>
<path d="M75.4293 2.96997H73.1407V2.97417H68.7884V2.96997H65.4802V14.9958H73.1412V15H75.4298L78.0647 12.3651V5.60487L75.4293 2.96997ZM74.9721 9.34667V10.1403L73.4755 11.4203H68.7879V6.55007H73.4755L74.9721 7.83017V9.34667Z" fill="white"/>
<path d="M92.1348 11.3313H90.0815V14.9957H92.1348V11.3313Z" fill="white"/>
<path d="M96.3588 12.9116H92.0608V14.9957H96.3588V12.9116Z" fill="white"/>
<path d="M96.359 6.13208H93.76V13.3102H96.359V6.13208Z" fill="white"/>
<path d="M96.359 2.96997H93.76V5.07857H96.359V2.96997Z" fill="white"/>
</g>
</svg>
