<svg width="155" height="34" viewBox="0 0 155 34" fill="none" xmlns="http://www.w3.org/2000/svg">
<path d="M33.278 6.30634C33.278 4.76252 32.5918 3.39023 31.3911 2.36101C30.1903 1.16026 28.818 0.474121 27.1027 0.474121C20.0697 0.474121 13.0367 0.474121 6.1753 0.474121C4.11686 0.474121 2.4015 1.50333 1.20075 3.21869C0.34307 4.24791 0 5.44866 0 6.82095C0 13.6824 0 20.3723 0 27.2337C0 27.5768 0 27.9199 0 28.2629C0.686144 31.5221 3.25918 33.5806 6.51837 33.5806C13.0367 33.5806 19.5551 33.5806 26.245 33.5806C30.5334 33.5806 33.278 30.836 33.278 26.7191C33.278 19.8577 33.4495 12.9962 33.278 6.30634ZM27.1027 20.0292C26.9311 21.0584 26.5881 22.0877 26.0735 22.9453C24.8727 25.0038 23.3289 26.5476 20.9274 27.4053C19.0405 28.0914 17.1536 27.9199 15.2667 27.9199C13.8944 27.9199 12.6937 27.5768 11.4929 27.2337C9.26294 26.376 7.54758 24.6607 6.6899 22.2592C5.83222 20.0292 5.83222 17.6277 5.83222 15.2262C5.83222 14.3685 5.83222 13.5109 5.83222 12.6532C5.83222 12.4816 5.83222 12.1386 5.83222 11.967C6.00376 10.9378 6.17529 9.9086 6.34683 8.87938C6.34683 8.36477 6.6899 8.0217 7.20451 8.0217C10.6352 6.99249 14.0659 6.47788 17.4967 6.64941C21.6135 6.82095 24.7012 8.53631 26.4165 12.4816C27.2742 15.0547 27.1027 17.6277 26.7596 20.3723L27.1027 20.0292Z" fill="white"/>
<path d="M154.382 10.7652C154.382 10.4221 154.382 10.0791 153.868 9.90754C151.466 9.56447 148.893 9.2214 146.492 9.56447C143.576 9.90754 141.689 11.4514 141.003 14.0244C140.66 15.2252 140.66 16.4259 140.831 17.4551C141.174 19.8566 142.032 22.2581 145.634 22.7727C147.349 23.1158 149.065 22.9443 150.78 22.2581C150.78 22.4297 150.78 22.6012 150.78 22.7727C150.609 24.3166 149.408 25.1742 147.692 25.3458C145.977 25.3458 144.433 25.3458 142.889 24.8312C142.718 24.8312 142.375 24.4881 142.375 24.8312C142.375 25.5173 142.375 26.375 142.375 27.0611C142.375 27.4042 142.718 27.4042 142.889 27.4042C145.806 28.0904 148.55 28.2619 151.466 27.2327C153.525 26.5465 154.382 25.0027 154.382 22.9443C154.382 21.7435 154.382 20.5428 154.382 19.5136C154.382 16.4259 154.382 13.3383 154.382 10.2506V10.7652ZM150.437 19.6851C149.236 20.0282 148.036 20.3712 146.663 20.1997C145.806 20.1997 145.119 19.5136 144.776 18.6559C144.09 17.1121 144.09 15.7398 144.776 14.1959C145.291 12.8237 146.492 12.4806 147.864 12.309C150.78 12.309 150.78 12.309 150.78 15.0536C150.78 15.3967 150.78 15.7398 150.78 16.0828C150.78 16.9405 150.78 17.9697 150.78 18.8274C150.78 19.1705 150.78 19.342 150.437 19.5136V19.6851Z" fill="white"/>
<path d="M47.687 9.73654C44.9424 9.22193 42.0263 9.56501 39.2817 9.90808C38.7671 9.90808 38.9386 10.2511 38.9386 10.5942C38.9386 12.3096 38.9386 14.0249 38.9386 15.7403C38.9386 19.6856 38.9386 23.6309 38.9386 27.7478C38.9386 28.2624 38.9386 28.6055 39.6248 28.434C40.3109 28.434 40.9971 28.434 41.8548 28.434C42.3694 28.434 42.5409 28.434 42.5409 27.7478C42.5409 26.0325 42.5409 24.4886 42.5409 22.7733C43.9132 23.2879 45.1139 23.4594 46.3147 23.4594C48.7162 23.4594 50.7746 22.4302 51.9754 20.0287C52.6615 18.4849 52.6615 16.941 52.6615 15.3972C52.6615 12.3096 50.9462 10.4227 47.8585 9.73654H47.687ZM48.5447 18.4849C48.03 19.6856 47.1724 20.3718 45.8001 20.3718C44.7709 20.3718 43.7417 20.2002 42.5409 19.8572C42.1978 19.8572 42.1978 19.5141 42.1978 19.3426C42.1978 18.3133 42.1978 17.2841 42.1978 16.2549C42.1978 15.2257 42.1978 14.1965 42.1978 13.1673C42.1978 12.8242 42.1978 12.6526 42.7124 12.6526C43.9132 12.6526 45.1139 12.4811 46.1432 12.6526C47.687 12.9957 48.7162 14.0249 48.7162 15.5688C48.7162 16.598 48.7162 17.6272 48.3731 18.6564L48.5447 18.4849Z" fill="white"/>
<path d="M111.327 9.73654C108.582 9.22193 105.838 9.56501 103.093 9.90808C102.75 9.90808 102.75 10.2511 102.75 10.5942C102.75 12.138 102.75 13.6819 102.75 15.2257C102.75 19.5141 102.75 23.8025 102.75 27.9194C102.75 28.434 102.922 28.434 103.265 28.434C103.951 28.434 104.808 28.434 105.495 28.434C106.009 28.434 106.181 28.434 106.181 27.7478C106.181 26.204 106.181 24.4886 106.181 22.7733C107.038 22.9448 107.725 23.2879 108.582 23.2879C112.184 23.631 114.929 22.2587 115.787 18.9995C115.958 18.1418 116.13 17.2841 116.13 16.4264C116.473 12.9957 114.758 10.4227 111.327 9.73654ZM112.699 17.1126C112.356 19.8572 110.984 20.7148 108.239 20.3718C106.981 20.1431 106.352 19.3997 106.352 18.1418C106.352 17.1126 106.352 16.0834 106.352 15.2257C106.352 14.5395 106.352 13.8534 106.352 12.9957C106.352 12.6527 106.352 12.4811 106.695 12.4811C107.896 12.4811 109.268 12.138 110.469 12.4811C112.013 12.9957 112.699 13.8534 112.699 15.7403C112.699 16.0834 112.699 16.4264 112.699 16.7695V17.1126Z" fill="white"/>
<path d="M94.8594 9.56543C94.1733 9.56543 93.4871 9.56543 92.6294 9.56543C88.341 9.56543 85.9395 12.1385 86.1111 15.9123C86.1111 16.5984 86.1111 17.2845 86.1111 17.9707C86.4542 21.2299 88.1695 23.1168 91.2572 23.6314C92.6294 23.8029 94.0017 23.8029 95.5456 23.6314C97.9471 23.1168 99.4909 21.5729 100.005 19.1714C100.177 18.1422 100.005 17.2845 100.005 16.2553C100.177 12.8246 98.1186 10.2516 94.6879 9.73697L94.8594 9.56543ZM96.2317 18.6568C95.7171 20.0291 94.6879 20.7153 93.1441 20.7153C91.6002 20.7153 90.3995 20.0291 89.8849 18.6568C89.5418 17.7992 89.5418 16.7699 89.5418 15.9123C89.5418 15.2261 89.5418 14.54 90.0564 13.8538C90.9141 12.31 92.2864 11.7954 94.1733 12.31C95.5456 12.6531 96.4032 13.6823 96.7463 15.3977C96.7463 15.7407 96.7463 15.9123 96.7463 16.2553C96.7463 17.113 96.7463 17.9707 96.4032 18.8284L96.2317 18.6568Z" fill="white"/>
<path d="M83.195 9.90754C80.6219 9.56447 78.0489 9.2214 75.4758 9.56447C71.8736 10.0791 69.9867 12.4806 69.9867 16.0828C69.9867 16.5974 69.9867 17.112 69.9867 17.7982C70.1582 20.3712 71.7021 22.2581 74.1036 22.7727C75.8189 23.2873 77.7058 23.2873 79.4212 22.7727C79.9358 22.7727 80.1073 22.7727 79.9358 23.2873C79.7642 24.6596 78.5635 25.5173 76.8481 25.6889C75.1328 25.6889 73.5889 25.6889 72.0451 25.1742C71.5305 25.1742 71.359 25.1742 71.359 25.6889C71.359 26.2035 71.359 26.7181 71.359 27.4042C71.359 27.7473 71.359 27.9188 71.8736 28.0904C74.7897 28.7765 77.7058 28.948 80.6219 28.0904C82.5088 27.4042 83.538 26.0319 83.538 23.9735C83.538 21.0574 83.538 18.3128 83.538 15.3967C83.538 13.8529 83.538 12.309 83.538 10.7652C83.538 10.4221 83.538 10.2506 83.195 10.2506V9.90754ZM80.1073 18.8274C80.1073 19.342 79.9358 19.5136 79.4212 19.6851C78.5635 20.0282 77.5343 20.1997 76.5051 20.1997C74.7897 20.1997 73.7605 19.1705 73.4174 17.4551C73.4174 17.1121 73.4174 16.769 73.4174 16.4259C73.4174 12.9952 75.1328 11.966 78.5635 12.309C80.1073 12.309 80.1073 12.309 80.1073 14.0244C80.1073 14.1959 80.1073 14.539 80.1073 14.7105C80.1073 16.0828 80.1073 17.4551 80.1073 18.8274Z" fill="white"/>
<path d="M63.2968 9.56521C60.8953 9.0506 58.4938 9.56521 56.0923 10.0798C54.72 10.4229 54.72 10.4229 54.5485 11.9667C54.2054 14.0251 54.0339 16.2551 54.5485 18.3135C55.0631 20.8866 56.6069 22.6019 59.0084 23.1165C59.8661 23.2881 60.7238 23.2881 61.5815 23.2881C65.0122 23.2881 66.7275 21.9158 67.9283 18.8282C68.2714 18.142 67.9283 17.4559 68.2714 16.7697C68.4429 15.912 68.4429 15.0544 68.2714 14.0251C67.9283 11.6236 66.0414 9.90828 63.4683 9.39367L63.2968 9.56521ZM64.4976 18.6566C63.983 20.2004 62.7822 20.8866 60.8953 20.8866C59.1799 20.8866 58.3223 20.2004 57.8077 18.4851C57.2931 16.5982 57.6361 14.8828 57.8077 12.9959C59.6946 12.3098 61.5814 11.9667 63.4683 12.9959C64.1545 13.339 64.326 13.8536 64.8406 14.3682C64.8406 14.3682 65.0122 14.3682 65.1837 14.1967C65.1837 14.1967 65.0122 14.1967 64.8406 14.3682C65.1837 15.912 65.1837 17.2843 64.8406 18.8282L64.4976 18.6566Z" fill="white"/>
<path d="M121.962 4.58998C121.448 4.2469 120.247 4.58998 119.389 4.58998C119.046 4.58998 118.874 4.58998 118.874 5.10458C118.874 8.19223 118.874 11.2799 118.874 14.3675C118.874 16.5975 118.874 18.6559 118.874 20.8859C118.874 21.7436 118.531 22.9443 119.046 23.4589C119.561 23.9735 120.761 23.4589 121.619 23.4589C121.962 23.4589 122.134 23.4589 122.134 22.9443C122.134 20.0282 122.134 16.9406 122.134 14.0245C122.134 11.7945 122.134 9.39298 122.134 7.16302C122.134 6.30534 122.477 5.10459 122.134 4.76151L121.962 4.58998Z" fill="white"/>
<path d="M137.743 9.39293H137.4C136.714 9.39293 135.513 9.04986 135.17 9.39293C134.827 9.90754 135.17 10.9368 135.17 11.7944C135.17 13.8529 135.17 15.9113 135.17 18.1413C135.17 18.4843 135.17 18.6559 134.827 18.9989C133.97 19.6851 132.94 20.1997 131.911 20.3712C130.196 20.7143 129.167 19.8566 129.167 17.9697C129.167 15.9113 129.167 13.6813 129.167 11.6229C129.167 11.1083 129.167 10.5937 129.167 10.0791C129.167 9.39293 129.167 9.2214 128.309 9.2214C127.451 9.2214 126.25 8.87833 125.736 9.39293C125.221 9.90754 125.736 11.1083 125.736 11.966C125.736 14.1959 125.736 16.5974 125.736 18.8274C125.736 21.0574 127.108 22.6012 129.338 22.9443C131.396 23.2873 133.283 22.6012 134.999 21.572C135.513 21.2289 135.685 21.4005 135.685 21.9151C135.685 22.9443 136.371 23.2873 137.229 23.1158C137.572 23.1158 137.743 23.1158 138.086 23.1158C138.429 23.1158 138.601 23.1158 138.601 22.6012C138.601 18.6559 138.601 14.7106 138.601 10.7652C138.601 10.4222 138.601 10.0791 138.601 9.90754C138.601 9.2214 138.601 9.04986 137.915 9.2214L137.743 9.39293Z" fill="white"/>
<path d="M21.9565 13.8529C21.4419 12.309 20.2412 11.2798 18.6973 10.9368C17.4966 10.7652 16.4674 10.7652 15.2666 10.9368C14.2374 10.9368 13.2082 11.2798 12.3505 11.4514C11.8359 11.4514 11.4928 11.966 11.4928 12.4806C11.4928 13.1667 11.1498 14.0244 11.3213 14.7106C11.3213 15.0536 11.4928 15.3967 11.4928 15.7398C11.4928 15.3967 11.4928 15.0536 11.3213 14.7106C10.9782 16.2544 11.3213 17.6267 11.3213 19.1705C11.6644 21.9151 13.0367 23.4589 15.4382 23.802C16.6389 23.9735 17.8397 23.802 19.0404 23.6304C20.4127 23.2874 21.4419 22.2581 21.9565 21.0574C22.4711 19.8566 22.6427 18.4843 22.6427 17.1121C22.6427 16.0828 22.6427 15.0536 22.2996 14.0244L21.9565 13.8529ZM19.555 20.8858C19.212 20.8858 19.0404 20.8858 18.6973 20.8858C17.4966 20.8858 16.1243 20.8858 14.9236 20.8858C13.0367 20.8858 12.3505 19.8566 13.2082 18.1413C13.7228 17.7982 14.0659 17.7982 14.752 17.7982C16.1243 17.7982 17.3251 17.7982 18.6973 17.7982C19.0404 17.7982 19.3835 17.7982 19.7266 17.7982C20.7558 18.8274 20.5842 20.1997 19.7266 20.7143L19.555 20.8858Z" fill="white"/>
<path d="M62.4392 16.7695C62.0961 16.7695 61.5815 16.7695 61.2384 16.7695C60.7238 16.7695 60.2092 16.7695 59.8661 16.7695C59.18 16.7695 58.8369 17.1126 58.8369 17.7987C58.8369 18.4849 59.18 18.828 59.8661 18.828C60.7238 18.828 61.753 18.828 62.6107 18.828C63.2968 18.828 63.6399 18.4849 63.6399 17.7987C63.6399 17.1126 63.2968 16.7695 62.6107 16.7695H62.4392Z" fill="white"/>
</svg>
