<svg width="108" height="34" viewBox="0 0 108 34" fill="none" xmlns="http://www.w3.org/2000/svg">
<g clip-path="url(#clip0_2216_3270)">
<path d="M0 0.635742H108V33.3024H0V0.635742Z" fill="#E81825"/>
<path fill-rule="evenodd" clip-rule="evenodd" d="M87.0667 29.169H87.3667C88.2334 28.469 88.4 27.1357 88.7 26.0024C88.7667 25.169 89.0667 24.2357 88.8 23.469C88.2334 22.969 87.6 22.6024 87.1 22.1357C86.9977 22.0818 86.8819 22.0586 86.7667 22.069C86.2667 24.1024 86 26.4024 86.5 28.5357C86.5189 28.6864 86.5832 28.8277 86.6845 28.9408C86.7857 29.054 86.9191 29.1336 87.0667 29.169ZM88.6667 21.5024H88.8667C89.1334 21.2024 88.9 20.7357 88.8667 20.3024C88.8 20.1024 88.7334 19.9357 88.6667 19.769C88.5642 19.5342 88.4133 19.3237 88.2237 19.1514C88.0341 18.979 87.8102 18.8487 87.5667 18.769C87.5205 18.7541 87.471 18.7525 87.4238 18.7642C87.3767 18.776 87.3338 18.8008 87.3 18.8357C87.1664 19.053 87.0823 19.297 87.0535 19.5505C87.0247 19.8039 87.0519 20.0606 87.1334 20.3024C87.4913 20.8667 88.0328 21.2905 88.6667 21.5024ZM88.2667 14.969C89.6667 14.0357 90.4667 12.469 91.4 11.2024C92.1667 9.73569 93.3667 7.83569 92.9667 5.96902C92.8796 5.8857 92.7724 5.82651 92.6555 5.79729C92.5386 5.76806 92.4161 5.76981 92.3 5.80236C90.3 7.03569 89.6 9.06902 88.8 11.269C88.5667 12.5024 88.1 13.769 88.2667 14.969ZM40.8 15.9024C42.5 14.569 43.7 12.7357 44.6667 11.069C44.9323 10.6654 45.1663 10.242 45.3667 9.80236C45.9334 8.46902 46.9 6.83569 46.3 5.36902C46.2232 5.24023 46.1079 5.13879 45.9703 5.07899C45.8328 5.01919 45.68 5.00404 45.5334 5.03569C44.3 5.60236 43.7334 6.80236 43.1 7.76902C41.8069 10.274 40.9929 12.9985 40.7 15.8024C40.7334 15.9024 40.7667 15.9357 40.8 15.9024ZM73.3334 22.1024C73.8591 22.1361 74.3825 22.0082 74.8334 21.7357C76.534 20.4108 77.7236 18.5382 78.2 16.4357C78.3143 16.0144 78.3025 15.5689 78.1663 15.1542C78.03 14.7395 77.7752 14.3738 77.4334 14.1024C77.2138 13.9644 76.9789 13.8525 76.7334 13.769C76.2911 13.7074 75.8407 13.7441 75.4144 13.8767C74.988 14.0092 74.5961 14.2342 74.2667 14.5357C72.9334 15.7024 72.2667 17.369 71.9667 19.2024C71.8663 19.6348 71.8651 20.0844 71.9632 20.5174C72.0614 20.9503 72.2563 21.3555 72.5334 21.7024C72.7707 21.8877 73.0427 22.0237 73.3334 22.1024ZM37.2667 7.36902C37.6 6.96902 37.9 6.26902 37.6667 5.70236C37.6081 5.56214 37.5115 5.44105 37.3879 5.35272C37.2642 5.26439 37.1183 5.21231 36.9667 5.20236C36.697 5.13332 36.4127 5.14729 36.151 5.24245C35.8893 5.3376 35.6624 5.50951 35.5 5.73569C35.32 5.96283 35.1935 6.22766 35.13 6.51045C35.0666 6.79325 35.0677 7.08673 35.1334 7.36902C35.1841 7.55091 35.2868 7.71402 35.4289 7.83837C35.5711 7.96271 35.7464 8.04287 35.9334 8.06902C36.4334 8.23569 37 7.73569 37.2667 7.36902ZM108 23.9024V22.269H99.6C98.7667 22.269 97.8334 22.1357 97.3667 21.469C96.6667 20.6357 96.7334 19.3357 96.8667 18.3024C96.9251 17.9318 97.003 17.5647 97.1 17.2024C97.5667 16.169 97.5 14.7357 98.3667 14.0357C100.033 13.869 101.7 14.0024 103.267 13.569C103.378 13.4578 103.455 13.3175 103.491 13.1643C103.526 13.0111 103.518 12.8511 103.467 12.7024C103.439 12.5563 103.375 12.4193 103.282 12.3031C103.189 12.187 103.07 12.0952 102.933 12.0357C101.667 11.8024 100.367 12.2024 99.1667 11.9357C99 11.8024 99.1 11.5357 99.1 11.3357C99.5334 9.33569 101.133 7.70236 100.933 5.83569C100.869 5.73895 100.778 5.66252 100.672 5.61531C100.566 5.56809 100.448 5.55204 100.333 5.56902C99.7372 5.72827 99.2173 6.09459 98.8667 6.60236C98.1 7.66902 97.6667 9.13569 97.1 10.4357C96.8334 11.0024 96.7667 11.769 96.3 12.1024C95.4667 12.369 94.2667 12.1357 93.8 12.9024C93.6886 13.1902 93.6768 13.5071 93.7667 13.8024C94.2667 14.2357 95.1 13.869 95.6 14.3024C95.6667 15.1024 95.3 15.869 95.2334 16.6357C94.9 17.969 94.5334 19.2357 93.5667 20.069C92.7667 20.7357 92.0334 21.3357 91.0334 21.5024C90.7 21.3357 90.7667 20.9024 90.6334 20.6024C90.4 19.1024 89.5667 18.1357 88.9 16.969C91.7 13.769 94.5667 10.669 94.7334 6.06902C94.7105 5.70913 94.6547 5.35208 94.5667 5.00236C94.4042 4.54195 94.1292 4.12945 93.7667 3.80236C93.4639 3.61728 93.1206 3.50845 92.7665 3.48523C92.4123 3.462 92.0578 3.52507 91.7334 3.66902C91.6 3.76902 91.4334 3.83569 91.2667 3.93569C89.6667 4.90236 89.1 6.50236 88.2667 7.96902C87.7801 8.96291 87.3895 10.0009 87.1 11.069C86.2334 15.269 85.6667 19.669 81.5667 21.569C81.1 21.869 80.5334 22.2024 79.9667 22.069C79.7802 21.9852 79.6147 21.8609 79.4821 21.7053C79.3495 21.5496 79.2532 21.3665 79.2 21.169C78.9334 20.4357 79.2 19.669 79.3667 18.9357C79.8334 16.6357 81.1667 14.6357 81.5 12.469C81.3761 12.3548 81.2271 12.2712 81.065 12.2249C80.903 12.1786 80.7323 12.1709 80.5667 12.2024C80.1666 12.241 79.7966 12.4319 79.5334 12.7357C79.4318 12.9372 79.2682 13.1008 79.0667 13.2024C78.9275 13.1965 78.796 13.1367 78.7 13.0357C78.4432 12.6955 78.1403 12.3926 77.8 12.1357C76.6334 11.469 75.1667 11.9024 74.1334 12.469C69.8667 14.5357 70.5334 20.8024 65.9334 22.4357C65.743 22.535 65.5314 22.5869 65.3167 22.5869C65.102 22.5869 64.8904 22.535 64.7 22.4357C64.5643 22.2632 64.4648 22.065 64.4075 21.853C64.3502 21.6411 64.3363 21.4198 64.3667 21.2024C64.7 18.869 66.6667 17.5357 66.3667 15.269C65.8667 14.0357 64.3667 13.869 63.7334 12.869C63.8334 12.0357 64.2 11.2024 63.7 10.5024C63.6178 10.3418 63.4854 10.2126 63.3229 10.1344C63.1604 10.0561 62.9768 10.0332 62.8 10.069C62.5539 10.0586 62.311 10.1274 62.1069 10.2655C61.9029 10.4035 61.7486 10.6034 61.6667 10.8357C61.2667 11.8357 61.5 12.7357 61.2334 13.7024C60.7 15.269 59.6334 16.369 58.8334 17.6357C57 19.769 55.0667 22.269 52.0667 22.4024C51.7325 22.3856 51.4079 22.2853 51.1226 22.1106C50.8372 21.9359 50.6002 21.6924 50.4334 21.4024C49.6667 19.9024 50 17.969 50.6667 16.469C51.1667 15.4024 52.1 14.3024 53.3 13.969C53.4671 13.9156 53.6456 13.9091 53.8161 13.9502C53.9866 13.9914 54.1424 14.0786 54.2667 14.2024C54.4667 15.0024 53.7334 16.069 54.5334 16.7024C54.6457 16.7881 54.7774 16.8451 54.9168 16.8684C55.0563 16.8916 55.1993 16.8804 55.3334 16.8357C55.6756 16.689 55.9763 16.4601 56.2088 16.1694C56.4414 15.8787 56.5987 15.5351 56.6667 15.169C56.7558 14.8144 56.7738 14.4457 56.7196 14.0841C56.6655 13.7225 56.5403 13.3752 56.3513 13.0622C56.1622 12.7492 55.9131 12.4767 55.6183 12.2605C55.3234 12.0443 54.9887 11.8886 54.6334 11.8024C54.3507 11.7293 54.0573 11.7067 53.7667 11.7357C53.0705 11.9064 52.3986 12.164 51.7667 12.5024C48.0667 14.9357 48.0667 21.0024 43.1667 22.269C42.8563 22.3859 42.5229 22.4287 42.193 22.394C41.8632 22.3593 41.546 22.248 41.2667 22.069C40.9364 21.7371 40.6773 21.3412 40.5053 20.9055C40.3334 20.4699 40.2522 20.0038 40.2667 19.5357C42.3667 16.469 45.0334 14.069 46.4334 10.8357C46.8029 10.2305 47.0941 9.58089 47.3 8.90236C47.9334 7.03569 48.3667 4.76902 47.2667 3.10236C46.9 2.66902 46.3 2.66902 45.8 2.70236C45.2074 2.80158 44.6473 3.04165 44.1667 3.40236C43.4956 3.98547 42.9217 4.67186 42.4667 5.43569C41.0889 7.51622 40.1059 9.83259 39.5667 12.269C38.8334 15.7357 38.6 19.269 35.2667 21.1357C34.7667 21.369 34.1667 21.9357 33.6 21.5357C32.8334 20.669 33.3334 19.4024 33.4334 18.369C33.8667 16.0357 35.5 14.1024 35.6667 11.9024C35.7334 11.069 34.4667 11.2357 34.1334 11.6357C33.8686 12.0048 33.6345 12.395 33.4334 12.8024C33.1577 13.5231 32.7332 14.1776 32.1876 14.7233C31.642 15.2689 30.9874 15.6934 30.2667 15.969C29.6667 16.2357 28.2 17.069 27.6 16.6024C27.1 16.169 27.4334 15.3357 27.2334 14.7024C27.0334 14.069 26.8667 13.6024 26.4 13.3357C26.2519 13.2853 26.0944 13.2682 25.9389 13.2854C25.7834 13.3027 25.6335 13.354 25.5 13.4357C25.322 13.6062 25.1847 13.8146 25.0981 14.0454C25.0116 14.2762 24.978 14.5235 25 14.769C25.5334 17.069 24.6334 19.4024 23.3334 20.9357C22.6334 21.6357 21.6667 22.2024 20.6667 21.9357C20.3928 21.8359 20.1469 21.6718 19.9497 21.4571C19.7525 21.2425 19.6097 20.9837 19.5334 20.7024C19.2345 19.8319 19.1997 18.8925 19.4334 18.0024C19.7 16.5024 20.9 15.269 22.1 14.569C22.6667 14.269 23.4667 14.1024 23.6 13.369C23.6299 13.1878 23.6152 13.002 23.5571 12.8278C23.499 12.6535 23.3994 12.4961 23.2667 12.369C22.9334 12.1024 22.3 12.169 21.8334 12.3024C21.5667 12.4024 21.1667 12.669 20.9 12.769C17.4334 14.269 18 19.2357 14.5 20.8357C13.6802 21.3901 12.7811 21.8172 11.8334 22.1024C10.9939 22.3022 10.1147 22.2578 9.29965 21.9743C8.48458 21.6908 7.76762 21.1801 7.23337 20.5024C5.90003 18.9024 5.33337 16.369 5.7667 14.2357C6.40003 10.769 7.6667 7.76902 10.3 5.73569C10.9334 5.33569 11.6 4.80236 12.5 4.80236C12.8887 4.79946 13.2724 4.88855 13.62 5.06235C13.9676 5.23615 14.2692 5.48973 14.5 5.80236C15.3 6.96902 15.2667 8.63569 14.7 10.0024C14.2 11.069 13.3334 12.0357 12.1 12.3357C11.9334 12.3357 11.7334 12.3024 11.6667 12.169C11.6334 11.3024 12.5667 10.3357 12 9.46902C11.9012 9.35036 11.7667 9.26678 11.6166 9.23074C11.4664 9.1947 11.3086 9.20813 11.1667 9.26902C10.5 9.43569 10.1334 9.96902 9.8667 10.5024C9.43337 11.6024 9.23337 12.869 9.80003 13.869C9.93322 14.1154 10.124 14.326 10.3562 14.4827C10.5884 14.6394 10.855 14.7377 11.1334 14.769C12.4667 15.0357 13.7 14.3357 14.5 13.6024C15.357 12.8225 16.0291 11.8612 16.4674 10.7886C16.9056 9.71605 17.099 8.55917 17.0334 7.40236C16.9 5.76902 16.7 4.20236 15.0334 3.30236L14.6334 3.10236C12.8 2.30236 10.9667 2.83569 9.63337 3.73569C8.10342 4.75336 6.81721 6.09648 5.8667 7.66902C5.8486 7.687 5.83689 7.71042 5.83337 7.73569C5.83337 7.76902 5.7667 7.76902 5.73337 7.80236C5.53337 8.13569 5.3667 8.50236 5.13337 8.86902C4.65782 9.84086 4.27824 10.8568 4.00003 11.9024C3.3667 14.569 3.20003 17.369 4.33337 19.9357C4.93337 21.2357 5.8667 22.6024 7.1667 23.4024C8.8667 24.4024 11.0667 24.4357 12.9334 23.8357C13.5 23.6357 13.9 23.4024 14.3667 23.2024C14.9334 22.8357 15.4667 22.3357 16 22.0024C16.4334 21.7357 16.9667 20.9024 17.3667 21.3024C18.2667 22.1024 18.6 23.7357 19.9334 24.0357C21.6667 24.4357 23.4667 23.6357 24.6334 22.469C25.8 21.3024 26.1667 19.7024 27.2667 18.469C28.7334 18.3024 30.0334 17.669 31.4 17.3357C31.4411 17.344 31.4788 17.3643 31.5085 17.3939C31.5381 17.4236 31.5584 17.4613 31.5667 17.5024C31.5334 18.2024 31.3 18.8357 31.2334 19.5357C31.0334 20.9357 30.9667 22.6024 32.1 23.6024C32.3651 23.7968 32.6726 23.9253 32.9972 23.9775C33.3217 24.0297 33.6541 24.0039 33.9667 23.9024C35.7667 23.4357 36.7667 21.669 38.4 21.0024C38.8667 22.0024 39 23.4024 40.1 23.8357C40.2667 23.9357 40.3667 24.0024 40.5667 24.1024C41.9334 24.7357 43.5667 24.1357 44.7 23.5024C45.8667 23.0024 46.6667 21.9024 47.8667 21.4357C48.5667 22.5357 49.1 23.969 50.5 24.4357C52.5334 25.169 54.6667 23.9357 56.0667 23.0024C59.0667 20.769 60.7334 17.7357 62.7667 15.2357C63.2791 15.2923 63.7589 15.5147 64.1334 15.869C64.5667 16.6357 64 17.5024 63.7334 18.1357C63.0667 19.569 62 21.4357 62.5334 23.1357C62.6091 23.309 62.6983 23.4762 62.8 23.6357C63.0224 23.956 63.3327 24.2052 63.6935 24.353C64.0543 24.5009 64.4502 24.5412 64.8334 24.469C66.9334 24.2024 68.2334 22.869 69.8 22.0357L70 22.1357C70.4 22.9024 70.7334 23.8357 71.6 24.1357C71.8 24.2357 72 24.2357 72.2 24.3357C72.8855 24.3808 73.573 24.2858 74.2206 24.0566C74.8681 23.8273 75.4622 23.4686 75.9667 23.0024C76.3 22.769 76.6 22.3024 77.0334 22.2357C77.5334 22.9357 77.7667 23.8024 78.7334 23.969C80.1 24.3024 81.5667 23.6357 82.5334 22.9024C83.2667 22.5024 83.8 21.6357 84.6 21.5024C84.8667 21.769 84.6667 22.269 84.6667 22.6024C84.5 25.2024 83.8 28.269 85.1667 30.5024C85.3483 30.7371 85.5805 30.9278 85.8459 31.0606C86.1114 31.1933 86.4033 31.2645 86.7 31.269C87.7667 31.269 88.5334 30.269 89 29.5357C89.4006 28.8232 89.7354 28.0757 90 27.3024C90.0334 26.869 90.2 26.4024 90.2667 25.969C90.3334 25.469 90.4 24.969 90.5 24.469C90.5667 24.1024 90.5667 23.669 90.9 23.5024C92.4 23.0024 93.3334 22.3024 94.5334 21.369C94.602 21.384 94.6657 21.4164 94.7182 21.4631C94.7708 21.5098 94.8104 21.5693 94.8334 21.6357C94.9334 22.5024 95.8667 23.9024 97.3667 23.9024H108Z" fill="white"/>
</g>
<defs>
<clipPath id="clip0_2216_3270">
<rect width="108" height="32.6667" fill="white" transform="translate(0 0.635742)"/>
</clipPath>
</defs>
</svg>
