<svg width="125" height="50" viewBox="0 0 125 50" fill="none" xmlns="http://www.w3.org/2000/svg">
<g clip-path="url(#clip0_60_10)">
<path d="M14.7596 28.2038C14.6663 29.1866 14.6353 47.0789 14.6353 47.0789H18.8316V41.8531H21.7068V38.8893L24.6986 38.8503L24.7375 35.9254H27.6127V32.9616H32.7027L32.6405 30.5281C32.6094 29.1866 32.5706 27.9464 32.5473 27.7748C32.5317 27.6032 32.4462 26.6907 32.3685 25.7469C32.283 24.8032 32.2131 23.9764 32.2131 23.914C32.2131 23.8516 32.1432 23.0405 32.0577 22.1201C31.9256 20.646 31.8246 20.0766 31.2573 17.4403C30.9076 15.7868 30.6045 14.4219 30.589 14.3985C30.5734 14.3751 30.5501 14.3751 30.5268 14.3985C30.5113 14.4219 30.4646 14.6793 30.4336 14.9757C30.3947 15.2642 30.3481 15.5216 30.317 15.5372C30.2781 15.5528 30.2393 15.4358 30.216 15.2798C30.1927 15.1161 30.0372 13.8603 29.8663 12.4876C29.6953 11.1149 29.5399 9.83572 29.5244 9.64073C29.501 9.44573 29.2213 7.22285 28.8949 4.68797C28.5763 2.1531 28.3121 0.0628036 28.3121 0.0238055C28.3121 -0.00739291 28.2732 -0.0229921 28.2266 -0.0151925C28.18 0.000406697 28.1256 0.148599 28.1101 0.320191C28.0945 0.491782 27.7837 2.82387 27.4184 5.50693C27.0532 8.19 26.7424 10.5221 26.7191 10.6937C26.6957 10.8653 26.5636 11.9182 26.4082 13.0336C26.2606 14.1489 26.1207 15.194 26.0974 15.35C26.0741 15.5138 26.0274 15.6464 25.9808 15.6464C25.9342 15.6464 25.8876 15.4592 25.8643 15.2408C25.8409 15.0147 25.7943 14.7261 25.7555 14.5935C25.7088 14.4375 25.6726 14.3985 25.6467 14.4765C25.6234 14.5389 25.4446 15.9272 25.2503 17.5573C25.0561 19.1875 24.854 21.1374 24.8074 21.8861C24.7608 22.6349 24.7219 23.3056 24.7219 23.368C24.7219 23.4304 24.652 24.733 24.5665 26.2539C24.4888 27.7748 24.4033 29.0384 24.3878 29.0618C24.3645 29.0852 24.3334 29.0462 24.3101 28.9838C24.2945 28.9214 24.1546 28.391 23.9992 27.8138C23.8516 27.2366 23.7039 26.7453 23.6884 26.7219C23.6651 26.6985 23.634 26.6985 23.6185 26.7219C23.6107 26.7453 23.4708 27.2366 23.3232 27.8138C23.1755 28.391 23.0123 28.8746 22.9579 28.8902C22.9035 28.898 22.8724 28.7888 22.8724 28.6172C22.8724 28.4534 22.8025 27.1119 22.7248 25.6299C22.6471 24.148 22.5771 22.8845 22.5771 22.8221C22.5771 22.7597 22.5538 22.2995 22.5228 21.8081C22.4994 21.3167 22.3207 19.632 22.1264 18.0643C21.9399 16.4966 21.7767 15.0615 21.7534 14.8665C21.7379 14.6715 21.6913 14.5077 21.6602 14.4921C21.6213 14.4843 21.5436 14.7105 21.4892 14.9991C21.4348 15.2954 21.3804 15.545 21.3571 15.5684C21.3338 15.5918 21.3027 15.5918 21.2872 15.5684C21.2716 15.545 21.1473 14.7261 21.0152 13.7355C20.8831 12.745 20.7587 11.8012 20.7354 11.6296C20.7121 11.458 20.3469 8.73597 19.9195 5.58493C19.4921 2.43389 19.1191 -0.163385 19.1035 -0.186784C19.0802 -0.210183 19.0491 -0.139986 19.0336 -0.0307917C19.0103 0.0784028 18.7305 2.27009 18.4042 4.84397C18.0778 7.41784 17.798 9.66412 17.7825 9.83572C17.7592 10.0073 17.6037 11.3254 17.425 12.7606C17.2541 14.1957 17.0909 15.428 17.0676 15.4904C17.0365 15.5762 17.0054 15.5528 16.9665 15.4124C16.9277 15.3032 16.9044 15.0537 16.8966 14.8431C16.8888 14.6403 16.8577 14.4609 16.8111 14.4375C16.7723 14.4141 16.7179 14.4609 16.7023 14.5311C16.679 14.6091 16.3837 15.974 15.4201 20.4432L15.1792 23.212C15.0471 24.733 14.9228 26.2227 14.8995 26.5269C14.8762 26.8311 14.814 27.5798 14.7596 28.2038Z" fill="white"/>
<path d="M28.3898 36.0815V34.9115V33.7416H30.7211V36.0815H28.3898Z" fill="#0066CC"/>
<path d="M31.3428 36.0815V34.9115V33.7416H33.7518V36.0815H31.3428Z" fill="#0066CC"/>
<path d="M25.4369 39.0453V37.8364V36.6274H27.7681V39.0453H25.4369Z" fill="#0066CC"/>
<path d="M28.3898 39.0453V37.8754V36.7054H30.7211V39.0453H28.3898Z" fill="#0066CC"/>
<path d="M31.3428 39.0453V37.8754V36.7054H33.7518V39.0453H31.3428Z" fill="#0066CC"/>
<path d="M22.4839 42.0092V40.8002L22.4917 39.5835L24.854 39.6303L24.8929 42.0092H22.4839Z" fill="#0066CC"/>
<path d="M25.4291 42.017V40.847V39.6771H27.7604V42.017H25.4291Z" fill="#0066CC"/>
<path d="M28.382 42.017V40.847V39.6771H30.7133V42.017H28.382Z" fill="#0066CC"/>
<path d="M31.335 42.017V40.847V39.6771H33.744V42.017H31.335Z" fill="#0066CC"/>
<path d="M19.5232 44.9808V43.7719V42.5629H21.9322V44.9808H19.5232Z" fill="#0066CC"/>
<path d="M22.4761 44.9808L22.4839 43.7641V42.5551L24.8463 42.6019V44.9418L22.4761 44.9808Z" fill="#0066CC"/>
<path d="M25.4369 44.973V43.7641V42.5551H27.7681V44.973H25.4369Z" fill="#0066CC"/>
<path d="M28.3898 44.973V43.7641V42.5551H30.7211V44.973H28.3898Z" fill="#0066CC"/>
<path d="M31.3428 44.973V43.7641V42.5551H33.7518V44.973H31.3428Z" fill="#0066CC"/>
<path d="M19.5154 46.7825C19.5076 46.1508 19.5309 45.6048 19.5698 45.5736C19.6009 45.5424 20.1526 45.519 21.9399 45.519V47.9369H19.5309L19.5154 46.7825Z" fill="#0066CC"/>
<path d="M22.4839 47.9369V46.7279V45.519H24.8929V47.9369H22.4839Z" fill="#0066CC"/>
<path d="M25.5534 47.8979L25.5301 46.7123L25.5068 45.519H27.8303L27.807 47.8979H25.5534Z" fill="#0066CC"/>
<path d="M28.3898 47.9447V46.7357V45.5268H30.7211V47.9447H28.3898Z" fill="#0066CC"/>
<path d="M31.3428 47.9447V46.7357V45.519L33.7129 45.5658L33.7518 47.9447H31.3428Z" fill="#0066CC"/>
<path fill-rule="evenodd" clip-rule="evenodd" d="M43.2712 15.4904C43.0147 15.5372 42.5251 15.6542 42.1832 15.7712C41.8413 15.8804 41.3051 16.0988 40.9865 16.2548C40.6757 16.4108 40.1472 16.7618 39.8209 17.0192C39.4945 17.2843 39.0438 17.7211 38.8262 17.9941C38.6008 18.2671 38.29 18.7039 38.1346 18.9613C37.9792 19.2186 37.746 19.6944 37.6217 20.0142C37.4896 20.334 37.3264 20.841 37.2487 21.1452C37.171 21.4493 37.07 22.0733 37.0233 22.5491C36.9612 23.1341 36.9612 23.5786 37.0078 23.953C37.0544 24.2572 37.1399 24.6628 37.2098 24.8656C37.272 25.0762 37.3109 25.2399 37.2875 25.2399C37.2642 25.2399 37.3342 25.3803 37.443 25.5519C37.5517 25.7235 37.6217 25.8639 37.5984 25.8639C37.5751 25.8639 37.645 25.9575 37.7538 26.0745C37.8626 26.1993 37.9481 26.3241 37.9558 26.3709C37.9558 26.4177 38.1501 26.6049 38.3832 26.7999C38.6164 26.9949 39.0282 27.2756 39.2924 27.4238C39.5644 27.572 39.8364 27.7124 39.8986 27.7202C39.932 27.7286 40.0372 27.7573 40.1769 27.7953L40.177 27.7953L40.1779 27.7956L40.178 27.7956C40.298 27.8283 40.4432 27.8678 40.5902 27.9074C41.0331 28.0244 41.4372 28.0712 42.2609 28.0712C43.0769 28.079 43.5043 28.0478 43.9705 27.9386C44.3125 27.8606 44.8176 27.6968 45.0973 27.5798C45.3771 27.4706 45.8123 27.2366 46.0687 27.0729C46.3251 26.9091 46.7137 26.6283 46.9235 26.4411C47.1411 26.2539 47.4908 25.8639 47.7161 25.5753C47.9415 25.2867 48.2523 24.7798 48.4233 24.46C48.5865 24.1402 48.7652 23.7502 48.8274 23.602C48.8818 23.4538 48.9362 23.2822 48.9517 23.2276C48.975 23.1575 48.5709 23.1341 47.1022 23.1341L45.2139 23.1263C44.7476 24.07 44.5145 24.382 44.2736 24.6004C44.0405 24.8032 43.7374 24.9826 43.5043 25.0528C43.2453 25.1308 42.9344 25.1568 42.5718 25.1308C42.191 25.0996 41.9346 25.0294 41.717 24.8968C41.5227 24.7876 41.3284 24.5692 41.1963 24.3352C41.0642 24.1012 40.9632 23.7736 40.9321 23.485C40.9088 23.2276 40.9243 22.6895 40.971 22.2995C41.0176 21.9017 41.1497 21.2855 41.2585 20.9268C41.3673 20.5758 41.5693 20.0766 41.7092 19.827C41.8413 19.5696 42.0822 19.2342 42.2454 19.0627C42.4008 18.8989 42.6806 18.6883 42.8671 18.6025C43.0458 18.5089 43.4033 18.4153 43.6597 18.3919C43.9939 18.3685 44.2503 18.3997 44.5534 18.5011C44.7865 18.5791 45.0896 18.7507 45.2139 18.8833C45.3538 19.0159 45.4936 19.2732 45.548 19.4916C45.6024 19.6944 45.6413 19.9674 45.6413 20.0922V20.3262H49.4102C49.3169 19.2654 49.2159 18.6805 49.1227 18.3373C49.0139 17.9473 48.8351 17.5417 48.6331 17.2453C48.4544 16.9802 48.1202 16.637 47.856 16.442C47.5996 16.247 47.2654 16.0442 47.1178 15.974C46.9701 15.9116 46.7758 15.8336 46.6904 15.8024C46.6567 15.7901 46.6207 15.7767 46.5865 15.7639L46.5864 15.7638L46.5864 15.7638L46.5863 15.7638L46.5863 15.7638C46.5337 15.7441 46.4855 15.7261 46.4572 15.7166C46.4312 15.7123 46.3446 15.6933 46.2286 15.6679L46.2285 15.6679L46.2285 15.6679C46.1367 15.6478 46.0265 15.6237 45.9133 15.5996C45.6568 15.5372 45.0662 15.4748 44.5922 15.4592C44.1182 15.4358 43.5276 15.4514 43.2712 15.4904ZM62.8228 16.2158C62.7762 16.481 62.7218 16.8242 62.6985 16.9724C62.6752 17.1206 62.2555 19.5306 61.766 22.3151C61.2764 25.1074 60.8568 27.4628 60.8335 27.5642L60.7946 27.7358H64.2527C65.869 18.5791 66.3508 15.8726 66.3664 15.818C66.3819 15.7478 66.0011 15.7244 64.649 15.7244H62.9083L62.8228 16.2158ZM54.1505 18.9535C54.1931 18.9459 54.2512 18.9359 54.3173 18.9245C54.4559 18.9007 54.6301 18.8707 54.7721 18.8443C54.9897 18.8131 55.5104 18.7897 55.9378 18.8053C56.3652 18.8209 56.9402 18.8911 57.22 18.9691C57.4997 19.0393 57.7639 19.1017 57.8028 19.1095C57.8494 19.1173 58.0748 19.2342 58.3079 19.3668C58.541 19.4994 58.9218 19.8036 59.1472 20.0454C59.3648 20.2872 59.6212 20.6538 59.7145 20.8566C59.7999 21.0594 59.9087 21.4571 59.9476 21.7379C60.002 22.0889 60.002 22.4633 59.9398 22.9859C59.9079 23.2633 59.8724 23.5298 59.8506 23.693C59.8406 23.7683 59.8335 23.8216 59.831 23.8438C59.8155 23.9062 59.7844 24.0232 59.7533 24.1168C59.7222 24.2026 59.6057 24.499 59.4891 24.7798C59.3725 25.0528 59.1627 25.4661 59.0073 25.6845C58.8596 25.9029 58.6187 26.2149 58.4866 26.3631C58.3468 26.5191 58.2147 26.6517 58.1913 26.6517C58.168 26.6517 57.9893 26.7687 57.7873 26.9169C57.5774 27.0651 57.1889 27.2912 56.9091 27.4238C56.6294 27.5486 56.1243 27.7358 55.7824 27.8294C55.3006 27.9542 54.9353 28.001 54.1505 28.001C53.4045 28.001 53.0081 27.9698 52.6351 27.8606C52.3554 27.7826 51.9357 27.6266 51.7026 27.5174C51.4695 27.4004 51.1043 27.1509 50.8867 26.9481C50.6769 26.7531 50.4049 26.4177 50.2883 26.2071C50.1717 26.0043 50.0241 25.5987 49.9464 25.3257C49.8454 24.928 49.8298 24.6628 49.8764 24.1168C49.9075 23.7268 50.0008 23.1653 50.0863 22.8689C50.164 22.5647 50.366 22.0577 50.5214 21.7379C50.7002 21.3791 51.011 20.9424 51.3218 20.607C51.6016 20.3028 52.0368 19.9206 52.2932 19.749C52.5419 19.5774 53.0159 19.3434 53.3345 19.2186C53.6531 19.0939 54.0261 18.9769 54.1505 18.9535ZM71.4019 18.8521C71.1455 18.8911 70.6948 19.0003 70.3917 19.0861C70.0964 19.1797 69.6224 19.3746 69.3426 19.515C69.0629 19.6632 68.6355 19.9674 68.379 20.1936C68.1304 20.4198 67.7574 20.8332 67.5631 21.114C67.3688 21.3869 67.1124 21.8471 67.0036 22.1279C66.887 22.4009 66.7316 22.9157 66.6617 23.2588C66.5917 23.5942 66.5373 24.1636 66.5373 24.5068C66.5373 24.9358 66.584 25.2711 66.6927 25.5987C66.7506 25.7585 66.8025 25.9122 66.8373 26.0152L66.8373 26.0152C66.8585 26.0782 66.8734 26.1221 66.8793 26.1369C66.887 26.1759 66.9803 26.3163 67.0891 26.4489C67.1979 26.5815 67.4232 26.8233 67.5942 26.9871C67.7651 27.1509 68.1148 27.3848 68.3713 27.5096C68.6277 27.6344 69.0629 27.7982 69.3426 27.8684C69.6923 27.962 70.143 28.0088 70.8191 28.0088C71.4952 28.0088 71.9537 27.962 72.3344 27.8684C72.6375 27.7904 73.2436 27.5486 73.6944 27.3302C74.3782 27.0027 74.6036 26.8467 75.1009 26.3475C75.5749 25.8717 75.7614 25.6065 76.0334 25.0528C76.2199 24.6628 76.3831 24.2962 76.3909 24.2338C76.3986 24.1636 76.453 23.9374 76.5074 23.7268C76.5618 23.5084 76.6085 22.9157 76.6007 22.4009C76.6007 21.8783 76.5851 21.3947 76.5618 21.3089C76.5385 21.2153 76.4375 20.9736 76.3287 20.763C76.2277 20.5446 75.9712 20.1936 75.7537 19.9752C75.5438 19.7568 75.1553 19.4682 74.8989 19.3356C74.6424 19.2108 74.2072 19.0471 73.9275 18.9691C73.6477 18.8989 73.0727 18.8287 72.6453 18.8131C72.2179 18.7897 71.6584 18.8131 71.4019 18.8521ZM80.6493 19.1563C80.8669 19.0627 81.2477 18.9379 81.5042 18.8833C81.7684 18.8209 82.2191 18.7897 82.5532 18.8053C82.8718 18.8209 83.1904 18.8521 83.2526 18.8599C83.3148 18.8755 83.5712 19.0003 83.8199 19.1407C84.0608 19.281 84.3949 19.554 84.5581 19.749C84.799 20.0376 84.8534 20.0766 84.8923 19.9596C84.9234 19.8816 84.9622 19.6398 85.0399 19.0081H88.0706L88.024 19.4526L88.0001 19.6462L88.0001 19.6465C87.9778 19.8281 87.9578 19.9917 87.9463 20.061C87.9307 20.1468 87.651 21.7067 87.3324 23.5318C87.006 25.3491 86.6874 27.0573 86.6252 27.3146C86.563 27.572 86.3765 28.0556 86.2211 28.3988C86.0424 28.781 85.7859 29.1866 85.545 29.4361C85.3197 29.6779 84.9389 29.9665 84.6514 30.1147C84.3716 30.2629 83.9209 30.4345 83.6412 30.5047C83.3614 30.5827 82.7553 30.6607 82.2812 30.6997C81.815 30.7309 81.1156 30.7309 80.7271 30.6919C80.3463 30.6529 79.7635 30.5515 79.4449 30.4657C79.1262 30.3721 78.8309 30.2941 78.7843 30.2863C78.7455 30.2785 78.5279 30.1615 78.3025 30.0367C78.0616 29.8963 77.8285 29.6857 77.7119 29.4985C77.6031 29.3269 77.4788 29.0462 77.4322 28.8746C77.3856 28.703 77.3467 28.4768 77.3467 28.2116H80.8436L80.8825 28.4066C80.9058 28.5158 81.0146 28.6484 81.1545 28.7186C81.2866 28.781 81.5352 28.8278 81.7217 28.8278C81.9005 28.8278 82.188 28.7732 82.359 28.7108C82.5299 28.6484 82.732 28.5392 82.8174 28.4612C82.8951 28.3832 83.0195 28.2038 83.0972 28.0556C83.1749 27.8996 83.2915 27.5174 83.3536 27.1977C83.4236 26.8701 83.4624 26.5815 83.4391 26.5503C83.4236 26.5191 83.2915 26.5659 83.1594 26.6673C83.0195 26.7609 82.8874 26.8701 82.8641 26.9013C82.8408 26.9403 82.8019 26.9715 82.7708 26.9637C82.732 26.9637 82.5066 27.0339 82.2657 27.1197C82.0015 27.2211 81.5275 27.3068 81.1156 27.3302C80.6727 27.3536 80.2608 27.338 79.9888 27.2756C79.7557 27.2211 79.3905 27.0807 79.1806 26.9715C78.9708 26.8545 78.6289 26.5737 78.4191 26.3397C78.2093 26.0979 77.9606 25.7157 77.8674 25.4817C77.7275 25.123 77.6964 24.8968 77.7042 24.1948C77.7119 23.5786 77.7586 23.1419 77.8751 22.6739C77.9684 22.3073 78.1704 21.7613 78.3181 21.4649C78.4657 21.1608 78.7688 20.685 78.9864 20.412C79.2117 20.1312 79.5847 19.7724 79.8256 19.6164C80.0665 19.4526 80.4395 19.2498 80.6493 19.1563ZM95.181 18.8833C94.9245 18.9379 94.4894 19.1017 94.2174 19.2498C93.9376 19.3902 93.5258 19.6866 93.3004 19.905C93.0673 20.1156 92.8653 20.2716 92.8419 20.256C92.8186 20.2326 92.8419 20.0064 92.8886 19.749C92.9352 19.4916 92.9896 19.2186 93.0129 19.1407C93.044 19.0159 92.9274 19.0081 91.4509 19.0081C89.8657 19.0081 89.8579 19.0081 89.819 19.1797C89.7957 19.2732 89.5704 20.5524 89.3139 22.0109C89.0575 23.4694 88.8321 24.7798 88.8088 24.9358C88.7855 25.084 88.6767 25.7157 88.5679 26.3397C88.4591 26.9559 88.3581 27.5252 88.3426 27.6032C88.3037 27.728 88.4281 27.7436 90.0522 27.7436H91.8006C91.8628 27.4706 91.9871 26.7921 92.1115 26.0667C92.2436 25.3335 92.3679 24.6004 92.3912 24.4288C92.4145 24.2572 92.5 23.7814 92.5855 23.3758C92.6632 22.9625 92.8109 22.4789 92.9119 22.2839C93.0051 22.0967 93.1683 21.8861 93.2771 21.8081C93.3859 21.7301 93.6268 21.6287 93.8211 21.5819C94.0154 21.5273 94.2951 21.5117 94.4428 21.5351C94.5904 21.5585 94.808 21.6677 94.9323 21.7691C95.0489 21.8783 95.1266 22.0031 95.1033 22.0499C95.08 22.0889 95.1033 22.1435 95.1421 22.1669C95.1888 22.1825 95.2198 22.3697 95.2198 22.5725C95.2198 22.7753 95.0411 23.9452 94.8313 25.1698C94.745 25.6523 94.6636 26.1139 94.5953 26.5012L94.5944 26.5066L94.5943 26.5069L94.5923 26.5182V26.5182L94.5921 26.5199L94.592 26.5202L94.5916 26.5222L94.5915 26.5232L94.5911 26.5254L94.5908 26.5269C94.4893 27.1027 94.4178 27.5086 94.4039 27.5642L94.365 27.7436H97.8231C98.7634 22.6271 98.8333 22.1279 98.8178 21.4259C98.8178 20.9736 98.7945 20.5524 98.7789 20.49C98.7634 20.4198 98.6779 20.2326 98.5847 20.061C98.4992 19.8894 98.3438 19.6554 98.2427 19.5462C98.1417 19.437 97.9319 19.2732 97.7843 19.1797C97.6366 19.0861 97.2714 18.9535 96.9683 18.8911C96.673 18.8287 96.2534 18.7741 96.0358 18.7741C95.826 18.7819 95.4374 18.8287 95.181 18.8833ZM104.118 18.9847C104.421 18.9145 104.77 18.8365 104.895 18.8209C105.027 18.7975 105.493 18.7975 105.944 18.8209C106.394 18.8443 106.83 18.8677 106.915 18.8833C107.001 18.8911 107.125 18.9223 107.187 18.9457C107.249 18.9691 107.444 19.0393 107.614 19.0939C107.785 19.1485 108.089 19.3044 108.298 19.4448C108.5 19.593 108.679 19.71 108.702 19.71C108.726 19.71 108.811 19.788 108.897 19.8816C108.982 19.9752 109.169 20.217 109.301 20.412C109.441 20.5992 109.619 20.9736 109.713 21.2309C109.798 21.4883 109.891 21.7301 109.915 21.7769C109.946 21.8159 109.969 22.2371 109.977 22.7129C109.992 23.1809 109.977 23.6956 109.907 24.1558L103.263 24.1948L103.294 24.5458C103.309 24.733 103.387 25.0216 103.465 25.1854C103.55 25.3491 103.706 25.5519 103.83 25.6377C103.947 25.7235 104.18 25.8327 104.351 25.8795C104.568 25.9341 104.778 25.9341 105.05 25.8795C105.314 25.8249 105.563 25.6923 106.177 25.1698H107.77C108.648 25.1698 109.363 25.1932 109.363 25.2243C109.363 25.2555 109.262 25.4583 109.138 25.6767C109.021 25.8873 108.687 26.2851 108.399 26.5503C108.057 26.8701 107.669 27.1431 107.249 27.3536C106.892 27.5252 106.325 27.7358 105.983 27.8294C105.493 27.962 105.12 27.9932 104.195 28.001C103.302 28.0088 102.929 27.9854 102.602 27.8762C102.369 27.806 102.043 27.6968 101.887 27.6266C101.724 27.5564 101.569 27.494 101.538 27.4862C101.499 27.4784 101.406 27.416 101.32 27.3536C101.235 27.2834 100.986 27.0573 100.776 26.8467C100.558 26.6283 100.286 26.2617 100.178 26.0277C100.069 25.7859 99.9368 25.3881 99.8824 25.1308C99.8202 24.8422 99.8047 24.4366 99.8358 24.0934C99.8591 23.7814 99.9213 23.3602 99.9679 23.1575C100.015 22.9547 100.232 22.4165 100.45 21.9719C100.729 21.4025 100.986 21.0048 101.281 20.6928C101.514 20.4432 101.918 20.0844 102.175 19.8972C102.431 19.7178 102.835 19.4682 103.068 19.3512C103.302 19.2264 103.511 19.1251 103.535 19.1251C103.555 19.1183 103.754 19.071 103.998 19.0132L103.998 19.013L104.118 18.9847ZM43.2168 34.5683C42.8826 34.6307 42.3231 34.7867 41.9734 34.9193C41.6159 35.0519 41.1341 35.2624 40.901 35.395C40.6679 35.5276 40.3337 35.746 40.1628 35.8786C39.9918 36.0034 39.7043 36.253 39.5178 36.4324C39.3313 36.604 38.9971 36.9784 38.7796 37.2591C38.562 37.5321 38.3599 37.7817 38.3366 37.8051C38.3133 37.8207 38.1501 38.1561 37.9714 38.5461C37.7926 38.9283 37.5517 39.56 37.443 39.95C37.3342 40.3322 37.2098 41.003 37.1632 41.4319C37.1166 41.8609 37.101 42.4693 37.1243 42.7969C37.1477 43.1167 37.2176 43.5378 37.272 43.7328C37.3342 43.92 37.3808 44.1072 37.3886 44.1384C37.3963 44.1696 37.5051 44.3958 37.6295 44.6454C37.746 44.895 38.0413 45.3083 38.2744 45.5657C38.5153 45.8153 38.9272 46.1585 39.1992 46.3223C39.4712 46.4861 39.9763 46.7045 40.3182 46.8137C40.6601 46.9229 41.3051 47.0477 41.7558 47.0945C42.3542 47.1491 42.7816 47.1491 43.3489 47.0789C43.7763 47.0321 44.3513 46.9151 44.6311 46.8293C44.9108 46.7435 45.346 46.5719 45.6024 46.4393C45.8589 46.3067 46.2241 46.0961 46.4184 45.9635C46.6127 45.8309 46.9546 45.5501 47.1877 45.3317C47.4208 45.1134 47.7472 44.7468 47.9182 44.5128C48.0891 44.271 48.2679 44.0604 48.3067 44.0448C48.3456 44.0214 48.3767 43.9668 48.3844 43.9278C48.3844 43.881 48.5165 43.5612 48.6797 43.2259C48.8429 42.8827 48.9983 42.5005 49.0216 42.3835L49.0605 42.1729H45.3305C45.0352 42.8047 44.8331 43.1479 44.6855 43.3428C44.5378 43.5378 44.2348 43.7952 44.0016 43.9278C43.6286 44.1306 43.5121 44.1618 42.9215 44.1618C42.362 44.1618 42.2065 44.1306 41.919 43.9668C41.7325 43.8576 41.5072 43.6782 41.4294 43.5768C41.3517 43.4676 41.274 43.3272 41.2585 43.2649C41.2518 43.2049 41.2055 43.0823 41.1631 42.9701L41.1419 42.9139C41.072 42.7423 41.0564 42.4147 41.0875 41.7829C41.1108 41.2837 41.173 40.7456 41.2274 40.574C41.274 40.3946 41.3207 40.2386 41.3284 40.223C41.3362 40.1996 41.3673 40.0592 41.3984 39.911C41.4372 39.755 41.5849 39.3884 41.7247 39.0921C41.8724 38.7879 42.1211 38.3901 42.2765 38.2029C42.4397 38.0079 42.7272 37.7661 42.9215 37.6569C43.1468 37.5321 43.4343 37.4463 43.7374 37.4229C44.0094 37.3995 44.3669 37.4307 44.5922 37.4931C44.8487 37.5633 45.0896 37.7037 45.2994 37.9143C45.548 38.1561 45.6413 38.3277 45.7112 38.6397C45.7579 38.8659 45.7967 39.1155 45.7967 39.2091C45.7967 39.3572 45.8511 39.365 47.685 39.365H49.5656C49.4646 38.3667 49.3636 37.8129 49.2859 37.4931C49.2004 37.1656 49.0372 36.7366 48.9206 36.526C48.8041 36.3154 48.5165 35.9644 48.2834 35.7382C48.0503 35.512 47.6384 35.2157 47.3742 35.0831C47.1022 34.9505 46.5971 34.7633 46.2474 34.6775C45.89 34.5917 45.2061 34.5059 44.7088 34.4903C44.1026 34.4591 43.6208 34.4903 43.2168 34.5683ZM62.8539 35.6212C62.9627 34.9973 63.0482 34.4747 63.0482 34.4669C63.0482 34.4591 63.833 34.4513 66.5451 34.4513L66.4985 34.7009C66.4921 34.7394 66.4798 34.809 66.4602 34.9209C66.4081 35.2172 66.3038 35.81 66.1177 36.9082L64.3926 36.9238C63.0482 36.9394 62.6596 36.9238 62.6596 36.8458C62.6596 36.7912 62.7451 36.2374 62.8539 35.6212ZM51.6638 34.8569C51.6482 34.9115 51.2597 37.0096 50.809 39.521C50.3582 42.0247 49.9775 44.2008 49.9542 44.3568C49.9308 44.505 49.8454 45.012 49.7599 45.4877C49.7241 45.6839 49.6882 45.8828 49.657 46.0563L49.6567 46.0577L49.6566 46.0581L49.6566 46.0584C49.6135 46.2978 49.5791 46.4885 49.5656 46.5563L49.5268 46.7747H53.0237C53.1301 46.1739 53.1796 45.8531 53.2062 45.6802L53.2063 45.6801L53.218 45.6047C53.2413 45.4487 53.3967 44.5362 53.5676 43.5768C53.7852 42.3445 53.9329 41.6971 54.0728 41.4085C54.2049 41.1278 54.368 40.9328 54.5934 40.7846C54.8576 40.6052 55.0053 40.574 55.4016 40.574C55.8134 40.574 55.9145 40.5974 56.0932 40.769C56.202 40.8704 56.3341 41.0966 56.3729 41.2759C56.4196 41.4475 56.4351 41.7751 56.404 42.0169C56.373 42.2509 56.1787 43.3974 55.9689 44.5674C55.759 45.7373 55.5881 46.7123 55.5881 46.7357C55.5881 46.7513 56.3652 46.7747 57.321 46.7747H59.0462C59.1938 46.0181 59.256 45.6749 59.2793 45.5267C59.3026 45.3707 59.4736 44.3568 59.6601 43.2649C59.8543 42.1651 60.0253 41.0576 60.0564 40.808C60.0875 40.535 60.0719 40.1138 60.0175 39.833C59.9709 39.5522 59.831 39.1545 59.7222 38.9439C59.6057 38.7333 59.3881 38.4759 59.2404 38.3589C59.0928 38.2497 58.7975 38.0937 58.5799 38.0157C58.3701 37.9299 57.9271 37.8519 57.6085 37.8207C57.2122 37.7895 56.847 37.8207 56.4429 37.9065C56.101 37.9845 55.6658 38.1483 55.3938 38.3121C55.1374 38.4603 54.9198 38.5851 54.912 38.5851C54.8965 38.5851 54.7877 38.6943 54.6711 38.8347C54.5468 38.9751 54.4302 39.0531 54.4069 39.0141C54.3836 38.9673 54.5157 38.1249 54.6944 37.1422L54.804 36.536L54.8041 36.5351C54.9381 35.7943 55.049 35.1814 55.0674 35.0519L55.1218 34.7633C52.1145 34.7633 51.6948 34.7867 51.6638 34.8569ZM62.3022 38.7801C62.3177 38.6475 62.3566 38.4291 62.3877 38.2887L62.442 38.0391H65.9234L65.8846 38.2107C65.8806 38.2344 65.8663 38.3143 65.844 38.4384L65.8438 38.4394L65.8438 38.4398L65.8438 38.4398L65.8436 38.4409C65.7776 38.8085 65.6428 39.5591 65.5038 40.379C65.3095 41.4709 65.1308 42.4849 65.1075 42.6409C65.095 42.7595 64.988 43.3528 64.8581 44.0729L64.8581 44.0731L64.7578 44.6298C64.6953 44.9748 64.6348 45.3095 64.5803 45.6116C64.4856 46.1357 64.4087 46.5619 64.3692 46.7747H62.6596C61.3463 46.7747 60.95 46.7513 60.95 46.6733C60.95 46.6187 61.2453 44.8716 61.6106 42.7969C61.9758 40.7144 62.2866 38.9049 62.3022 38.7801ZM104.506 21.1217C104.638 21.0515 104.864 20.9736 105.011 20.9424C105.159 20.9112 105.423 20.9034 105.594 20.9268C105.765 20.9502 105.959 20.997 106.021 21.0281C106.084 21.0671 106.231 21.1919 106.34 21.3167C106.457 21.4337 106.581 21.6599 106.635 21.8081C106.682 21.9563 106.721 22.1591 106.721 22.4321H105.167C103.978 22.4321 103.612 22.4087 103.612 22.3385C103.612 22.2839 103.659 22.1123 103.721 21.9641C103.783 21.8159 103.931 21.5897 104.055 21.4649C104.172 21.3479 104.374 21.1919 104.506 21.1217ZM54.3059 21.5351C54.4535 21.3869 54.6944 21.2309 54.8265 21.1919C54.9664 21.1529 55.2151 21.1139 55.3705 21.1139C55.5337 21.1061 55.7668 21.1607 55.8989 21.2231C56.0465 21.3011 56.1864 21.4727 56.2952 21.7145C56.4273 22.0031 56.4584 22.2293 56.4584 22.7441C56.4506 23.1106 56.3885 23.6176 56.3263 23.875C56.2564 24.1324 56.1087 24.5146 55.9922 24.7252C55.8756 24.9358 55.658 25.2087 55.5104 25.3257C55.3627 25.4505 55.083 25.5909 54.8887 25.6377C54.64 25.6923 54.4457 25.6923 54.2048 25.6377C54.0028 25.5831 53.8007 25.4661 53.6842 25.3179C53.5754 25.1931 53.4666 24.9514 53.4355 24.7954C53.4122 24.6316 53.3889 24.3898 53.3889 24.265C53.3889 24.156 53.4007 23.9935 53.4089 23.8813L53.4122 23.836C53.4277 23.7268 53.4821 23.3992 53.5521 23.095C53.6142 22.7909 53.7464 22.3853 53.8474 22.1825C53.9484 21.9719 54.1582 21.6833 54.3059 21.5351ZM71.6506 21.1607C71.6117 21.1919 71.5496 21.2309 71.5107 21.2465C71.4719 21.2543 71.4097 21.2621 71.3631 21.2621C71.3242 21.2621 71.1532 21.3947 70.9823 21.5585C70.8113 21.7145 70.586 22.0421 70.4772 22.2761C70.3684 22.5101 70.2285 23.0015 70.1508 23.368C70.0809 23.7424 70.0342 24.2182 70.0575 24.46C70.0809 24.694 70.1663 25.0138 70.2518 25.1619C70.3451 25.3101 70.516 25.4895 70.6326 25.5519C70.7492 25.6143 70.9823 25.6689 71.161 25.6689C71.3397 25.6611 71.5729 25.6377 71.6894 25.6065C71.8138 25.5753 72.0469 25.4193 72.2179 25.2633C72.3966 25.0995 72.5365 24.9202 72.5287 24.8734C72.5287 24.8188 72.552 24.772 72.5831 24.772C72.6219 24.7798 72.723 24.6082 72.8162 24.4054C72.9095 24.2026 73.026 23.7892 73.0804 23.485C73.1271 23.1886 73.1504 22.7129 73.1271 22.4321C73.1115 22.1513 73.0338 21.8237 72.9716 21.6911C72.9095 21.5663 72.7774 21.3869 72.6841 21.3011C72.5676 21.1997 72.3733 21.1373 72.1091 21.1217C71.8915 21.1061 71.6817 21.1217 71.6506 21.1607ZM81.7062 21.9563C81.846 21.7535 82.0869 21.5273 82.2734 21.4337C82.4522 21.3323 82.7319 21.2621 82.9184 21.2621C83.1049 21.2621 83.3769 21.3167 83.5246 21.3791C83.7188 21.4649 83.8432 21.5975 83.952 21.8315C84.0374 22.0187 84.1074 22.3307 84.1074 22.5491C84.1074 22.7675 84.053 23.1496 83.9908 23.407C83.9209 23.6644 83.7888 24.0154 83.6878 24.187C83.5867 24.3586 83.3691 24.5848 83.206 24.6862C83.0428 24.7954 82.7475 24.8968 82.5532 24.9124C82.3589 24.9358 82.0792 24.9124 81.9315 24.8656C81.7839 24.8188 81.5663 24.6862 81.4575 24.5614C81.3487 24.4366 81.2321 24.1948 81.2011 23.992C81.1544 23.7346 81.1855 23.4694 81.3021 22.9781C81.4031 22.5725 81.5585 22.1747 81.7062 21.9563ZM72.3344 38.0469C72.5908 37.9533 72.8861 37.8675 72.9949 37.8519C73.1037 37.8363 73.3524 37.8129 73.5622 37.8051C73.7642 37.8051 74.1139 37.8363 74.3393 37.8831C74.5569 37.9299 74.9221 38.0547 75.1319 38.1561C75.3495 38.2575 75.606 38.4212 75.7147 38.5226C75.8235 38.624 76.0178 38.8268 76.1421 38.975C76.2743 39.1232 76.3908 39.2636 76.3986 39.2948C76.4064 39.3338 76.4918 39.56 76.5851 39.8018C76.725 40.1684 76.7561 40.4257 76.7561 41.1901C76.7638 41.8609 76.7172 42.2977 76.6162 42.75C76.5736 42.921 76.5348 43.0804 76.5057 43.2002L76.5054 43.2015L76.5053 43.2021C76.4762 43.3217 76.4569 43.4013 76.453 43.413C76.453 43.4364 76.3209 43.7172 76.1655 44.037C76.01 44.3568 75.7225 44.8325 75.5282 45.0899C75.3262 45.3473 75.163 45.5813 75.1475 45.6047C75.1397 45.6281 74.9066 45.8231 74.6268 46.0337C74.3471 46.2521 74.044 46.4471 73.9507 46.4782C73.8497 46.5094 73.772 46.564 73.772 46.6108C73.772 46.6498 73.7487 46.681 73.7176 46.6732C73.6788 46.6654 73.3912 46.7434 73.0726 46.8448C72.653 46.9852 72.3033 47.032 71.8293 47.0398C71.2698 47.0398 71.0988 47.0086 70.7413 46.837C70.5082 46.72 70.2052 46.4938 70.0653 46.3301C69.9254 46.1585 69.7933 46.0415 69.7778 46.0649C69.7544 46.0883 69.599 46.8916 69.4281 47.8588C69.2493 48.8259 69.0939 49.6605 69.0706 49.7073C69.0395 49.7853 68.6199 49.8087 67.3221 49.8087C66.3819 49.8087 65.6125 49.7853 65.6125 49.7463C65.6125 49.7151 65.8223 48.5139 66.0788 47.0788C66.161 46.6044 66.2415 46.1444 66.313 45.7359L66.3131 45.7355C66.4579 44.9084 66.5657 44.2921 66.5761 44.193C66.5994 44.0448 66.8559 42.6018 67.6718 38.0703L69.2105 38.0469C70.3917 38.0391 70.7413 38.0547 70.7413 38.1249C70.7413 38.1795 70.7025 38.4369 70.6636 38.6942C70.617 38.9516 70.6015 39.1778 70.617 39.2012C70.6403 39.2246 70.7413 39.131 70.8424 39.0062C70.9434 38.8736 71.2154 38.6474 71.4485 38.4914C71.6816 38.3355 72.0779 38.1327 72.3344 38.0469ZM71.0678 40.7846C71.161 40.691 71.3708 40.5584 71.5185 40.4882C71.6894 40.4102 71.9303 40.379 72.179 40.3946C72.3966 40.418 72.6686 40.496 72.7851 40.574C72.9017 40.6598 73.0493 40.847 73.1115 40.9952C73.1737 41.159 73.2048 41.5021 73.197 41.8531C73.1814 42.1729 73.1581 42.5473 73.1348 42.6721C73.1115 42.7969 73.0338 43.0309 72.9716 43.179C72.9095 43.3272 72.7618 43.5768 72.653 43.725C72.5365 43.8732 72.3111 44.076 72.1557 44.1696C71.9536 44.2944 71.7438 44.349 71.4641 44.349C71.2387 44.349 70.959 44.3022 70.8346 44.2398C70.7181 44.1852 70.5704 44.0526 70.5005 43.9512C70.4305 43.8498 70.3295 43.6158 70.2829 43.4286C70.2207 43.1868 70.2207 42.9685 70.2829 42.6175C70.3295 42.3445 70.3995 42.0403 70.4461 41.9311C70.4849 41.8219 70.516 41.7283 70.516 41.7205C70.5082 41.7049 70.5937 41.5334 70.6947 41.3306L70.6947 41.3305C70.7958 41.12 70.9667 40.8782 71.0678 40.7846Z" fill="white"/>
</g>
<defs>
<clipPath id="clip0_60_10">
<rect width="125" height="50" fill="white"/>
</clipPath>
</defs>
</svg>
