<svg width="125" height="50" viewBox="0 0 125 50" fill="none" xmlns="http://www.w3.org/2000/svg">
<g clip-path="url(#clip0_61_12)">
<g clip-path="url(#clip1_61_12)">
<path d="M124.311 49.9159C124.432 50.027 124.555 50.1381 124.716 50.285H0.964294C1.25211 49.6296 1.52799 48.9936 1.8091 48.3613C2.59872 46.5852 3.38984 44.8098 4.18096 43.0345C4.83115 41.576 5.48358 40.1183 6.13229 38.6591C6.88165 36.974 7.62728 35.2866 8.3759 33.6007C8.54665 33.216 8.73157 32.8379 8.89635 32.451C8.98583 32.2399 9.11557 32.0707 9.28781 31.9223C10.7097 30.7039 12.1279 29.4803 13.5499 28.262C15.7159 26.4061 17.8857 24.5547 20.051 22.6981C21.2373 21.681 22.4125 20.6513 23.5988 19.6342C25.2362 18.2295 26.8796 16.8314 28.5185 15.4289C29.235 14.816 29.9478 14.1993 30.6629 13.5849C30.7181 13.5372 30.7762 13.4932 30.8575 13.4283C33.4136 16.255 35.9636 19.0743 38.545 21.9286C47.7715 14.7101 56.9763 7.50948 66.2103 0.285034C73.0888 8.47881 79.9568 16.6592 86.842 24.8611C89.6239 22.2112 92.3865 19.5791 95.1625 16.9343C95.3996 17.1983 95.6241 17.4436 95.8448 17.6919C96.8171 18.7865 97.7901 19.8803 98.7594 20.9771C99.778 22.1291 100.791 23.2849 101.809 24.4376C102.646 25.3861 103.488 26.3308 104.326 27.2777C105.56 28.6706 106.79 30.0657 108.024 31.4578C108.92 32.4696 109.821 33.4784 110.717 34.4903C111.531 35.4096 112.34 36.3327 113.155 37.2521C114.051 38.2639 114.951 39.2728 115.847 40.2846C117.064 41.6588 118.276 43.0367 119.493 44.4109C120.381 45.4138 121.275 46.4122 122.163 47.4151C122.845 48.1853 123.525 48.9585 124.203 49.7318C124.249 49.784 124.275 49.8533 124.309 49.9152C124.253 49.9025 124.182 49.907 124.144 49.8734C124.015 49.7579 123.89 49.6348 123.777 49.5036C123.341 49.0018 122.913 48.4933 122.474 47.9922C121.914 47.3517 121.348 46.7157 120.784 46.0789C120.179 45.3959 119.57 44.7151 118.964 44.0321C118.399 43.3954 117.838 42.7556 117.271 42.1203C116.786 41.5768 116.295 41.0392 115.806 40.4986C115.574 40.2421 115.341 39.9871 115.113 39.7268C114.49 39.0118 113.871 38.293 113.248 37.5772C112.883 37.1589 112.515 36.7436 112.147 36.3283C111.558 35.6631 110.968 35.0003 110.379 34.3359C109.797 33.6805 109.216 33.0258 108.636 32.3697C108.081 31.7419 107.527 31.1125 106.971 30.484C106.407 29.8465 105.844 29.2082 105.28 28.5714C104.699 27.916 104.118 27.2606 103.537 26.6052C102.948 25.9408 102.358 25.2772 101.769 24.6121C101.196 23.9664 100.627 23.3169 100.051 22.6735C99.5401 22.103 99.0219 21.5393 98.5082 20.9712C98.3016 20.7423 98.0973 20.5111 97.8938 20.2792C97.3897 19.7043 96.8872 19.1294 96.3846 18.5538C96.0849 18.2101 95.7888 17.8641 95.4898 17.5204C95.3937 17.4093 95.2945 17.3012 95.1819 17.1759C94.9783 17.3489 94.8046 17.4838 94.645 17.6337C94.1127 18.134 93.5862 18.6403 93.0568 19.1429C92.599 19.5776 92.1397 20.01 91.6826 20.4447C91.1174 20.9823 90.5515 21.5192 89.99 22.0605C89.0886 22.9292 88.1923 23.8031 87.2901 24.671C87.1425 24.8127 86.9747 24.9327 86.8166 25.0625C86.2499 24.3981 85.7064 23.7628 85.1643 23.126C84.8765 22.7883 84.5902 22.4505 84.3061 22.1098C83.9758 21.7131 83.6507 21.3112 83.3189 20.9152C83.0094 20.5469 82.691 20.1875 82.3816 19.8192C81.8902 19.2353 81.4041 18.6478 80.9142 18.0624C80.6293 17.7224 80.3415 17.3854 80.0574 17.0454C79.584 16.4787 79.1142 15.9091 78.6393 15.3439C78.3224 14.9666 77.995 14.5975 77.6781 14.2202C77.2032 13.655 76.7327 13.0861 76.2614 12.5172C75.9475 12.1384 75.6403 11.7544 75.3227 11.3793C75.0535 11.0617 74.7739 10.7522 74.5032 10.4443C73.9142 10.8447 73.3512 11.2183 72.8009 11.6082C72.6518 11.7141 72.5206 11.7469 72.3573 11.6739C72.2678 11.6343 72.1739 11.6053 72.0859 11.5642C71.6735 11.3741 71.2634 11.178 70.8496 10.9923C70.4708 10.8216 70.0876 10.6613 69.7051 10.4965C68.0304 11.26 66.3698 12.0176 64.7362 12.7625C63.1987 12.0795 61.6992 11.4129 60.1885 10.7418C59.2856 11.4136 58.3804 12.0862 57.4826 12.7543C56.1808 11.9505 54.899 11.1594 53.6031 10.3593C48.5678 14.294 43.5452 18.2175 38.5308 22.1358C38.3959 21.9904 38.2788 21.8652 38.1625 21.7399C37.8091 21.3596 37.4497 20.9846 37.103 20.5976C36.5765 20.01 36.0628 19.4113 35.5364 18.8237C35.1897 18.4368 34.8295 18.0624 34.4776 17.6807C34.2091 17.3899 33.9422 17.0983 33.6775 16.8053C32.999 16.0545 32.3212 15.3021 31.6434 14.5505C31.372 14.2485 31.1021 13.9451 30.8359 13.6483C30.6107 13.8354 30.4086 13.9972 30.2133 14.1673C29.7585 14.5654 29.3118 14.9733 28.8525 15.3662C28.2545 15.8785 27.6453 16.3788 27.0443 16.8881C26.3584 17.4697 25.6769 18.0557 24.9939 18.6411C24.2922 19.242 23.5906 19.8438 22.8904 20.4462C22.1709 21.0644 21.4506 21.6825 20.7333 22.3036C19.9504 22.9814 19.1697 23.6622 18.3883 24.3422C18.1646 24.5368 17.9454 24.7359 17.7202 24.9282C17.243 25.3361 16.7613 25.7395 16.2848 26.1481C15.8919 26.4851 15.5049 26.8289 15.1105 27.1644C14.6795 27.5313 14.2381 27.8862 13.8093 28.2553C13.3515 28.6497 12.9064 29.0591 12.4486 29.4535C11.8043 30.0083 11.1549 30.5556 10.5062 31.1036C10.234 31.334 9.94248 31.5443 9.68747 31.7926C9.47944 31.9954 9.20803 32.1415 9.08127 32.4249C8.86653 32.9058 8.64582 33.3845 8.43257 33.8662C8.07615 34.6722 7.7272 35.4812 7.3678 36.2865C7.00841 37.0925 6.63783 37.8933 6.27768 38.6986C5.7975 39.7716 5.32327 40.8475 4.84607 41.9213C4.62685 42.4141 4.40391 42.9047 4.18618 43.3976C3.80442 44.2596 3.42787 45.1238 3.04312 45.985C2.50925 47.1817 1.96941 48.3762 1.43479 49.573C1.35352 49.7549 1.2879 49.9435 1.21185 50.1367H124.28C124.291 50.0554 124.301 49.9853 124.311 49.9145V49.9159ZM66.1864 0.507979C62.0332 3.76044 57.8927 6.98605 53.7358 10.2437C55.0153 11.0334 56.2464 11.7932 57.4767 12.5515C58.3796 11.8759 59.2617 11.216 60.1595 10.545C61.694 11.225 63.2188 11.9005 64.7481 12.5776C66.4146 11.814 68.0677 11.0565 69.7177 10.3004C70.6654 10.7306 71.5997 11.1556 72.5407 11.5829C73.1678 11.1519 73.7844 10.7269 74.4123 10.2952C71.6549 7.01364 68.9289 3.76938 66.1879 0.507233L66.1864 0.507979Z" fill="#181410"/>
<path d="M124.311 49.916C124.301 49.9861 124.291 50.0569 124.28 50.1382H1.21185C1.28791 49.9451 1.35352 49.7564 1.4348 49.5745C1.96942 48.3777 2.50926 47.1832 3.04313 45.9865C3.42713 45.1253 3.80368 44.2611 4.18619 43.3991C4.40466 42.9063 4.6276 42.4157 4.84607 41.9228C5.32403 40.8483 5.79825 39.7731 6.27769 38.7002C6.63783 37.8949 7.00841 37.0941 7.36781 36.288C7.72646 35.4827 8.07542 34.6737 8.43258 33.8677C8.64583 33.386 8.86653 32.9073 9.08128 32.4264C9.20803 32.1431 9.47945 31.9977 9.68748 31.7941C9.94248 31.5458 10.234 31.3355 10.5062 31.1051C11.1549 30.5563 11.8051 30.009 12.4486 29.455C12.9064 29.0606 13.3515 28.6512 13.8093 28.2568C14.2381 27.8877 14.6795 27.5321 15.1105 27.1659C15.5049 26.8304 15.8919 26.4867 16.2849 26.1496C16.7621 25.741 17.243 25.3376 17.7202 24.9298C17.9454 24.7374 18.1646 24.5383 18.3883 24.3437C19.1697 23.6637 19.9504 22.9829 20.7333 22.3052C21.4506 21.684 22.1709 21.0667 22.8904 20.4478C23.5913 19.8453 24.2922 19.2443 24.9939 18.6426C25.6769 18.0573 26.3591 17.4712 27.0444 16.8896C27.6453 16.3803 28.2538 15.88 28.8525 15.3678C29.3118 14.9748 29.7585 14.567 30.2133 14.1688C30.4079 13.9988 30.6107 13.837 30.8359 13.6498C31.1013 13.9473 31.3713 14.2508 31.6434 14.552C32.3205 15.3044 32.9982 16.056 33.6775 16.8068C33.9422 17.0999 34.2092 17.3914 34.4776 17.6822C34.8295 18.064 35.1897 18.4383 35.5364 18.8253C36.0628 19.4128 36.5765 20.0116 37.103 20.5991C37.4497 20.9861 37.8091 21.3612 38.1625 21.7415C38.2788 21.8667 38.3959 21.992 38.5308 22.1374C43.5452 18.2191 48.5678 14.2948 53.6031 10.3608C54.899 11.1609 56.1808 11.952 57.4826 12.7558C58.3811 12.0877 59.2856 11.4144 60.1885 10.7433C61.6992 11.4144 63.1987 12.081 64.7362 12.764C66.3699 12.0191 68.0304 11.2616 69.7051 10.498C70.0876 10.6636 70.4708 10.8239 70.8496 10.9939C71.2635 11.1803 71.6735 11.3764 72.0859 11.5658C72.1746 11.6068 72.2686 11.6351 72.3573 11.6754C72.5206 11.7477 72.6518 11.7149 72.8009 11.6098C73.3512 11.2198 73.9142 10.8462 74.5032 10.4458C74.7739 10.7538 75.0535 11.0625 75.3227 11.3809C75.6403 11.7559 75.9475 12.1407 76.2614 12.5187C76.7327 13.0869 77.2032 13.6558 77.6781 14.2217C77.995 14.599 78.3224 14.9681 78.6393 15.3454C79.1142 15.9106 79.584 16.4803 80.0575 17.0469C80.3416 17.387 80.6301 17.724 80.9142 18.064C81.4041 18.6493 81.8902 19.2369 82.3816 19.8207C82.691 20.1883 83.0094 20.5484 83.3189 20.9168C83.6514 21.312 83.9758 21.7146 84.3061 22.1113C84.5902 22.452 84.8765 22.7906 85.1643 23.1276C85.7064 23.7644 86.25 24.3996 86.8166 25.064C86.9747 24.9343 87.1425 24.8142 87.2901 24.6725C88.1923 23.8046 89.0886 22.9307 89.9901 22.0621C90.5515 21.5207 91.1175 20.9839 91.6826 20.4463C92.1397 20.0116 92.5998 19.5791 93.0568 19.1444C93.5863 18.6411 94.1134 18.1356 94.6451 17.6352C94.8046 17.4854 94.9783 17.3504 95.1819 17.1774C95.2945 17.3027 95.3937 17.4108 95.4899 17.5219C95.7889 17.8656 96.0856 18.2116 96.3846 18.5554C96.8864 19.1317 97.3897 19.7066 97.8938 20.2808C98.0973 20.5127 98.3016 20.7438 98.5082 20.9727C99.0219 21.5409 99.5401 22.1046 100.051 22.675C100.627 23.3185 101.196 23.9672 101.769 24.6136C102.358 25.278 102.948 25.9424 103.537 26.6067C104.118 27.2621 104.7 27.9168 105.28 28.573C105.844 29.2105 106.408 29.848 106.971 30.4855C107.527 31.1141 108.081 31.7434 108.636 32.3712C109.216 33.0274 109.798 33.682 110.379 34.3375C110.968 35.0018 111.558 35.6654 112.147 36.3298C112.516 36.7451 112.884 37.1604 113.248 37.5787C113.871 38.2938 114.49 39.0133 115.113 39.7284C115.341 39.9886 115.574 40.2436 115.806 40.5001C116.295 41.0407 116.786 41.5791 117.271 42.1219C117.838 42.7564 118.399 43.3969 118.964 44.0337C119.57 44.7167 120.178 45.3974 120.784 46.0804C121.348 46.7172 121.914 47.3525 122.474 47.9937C122.912 48.4941 123.34 49.0033 123.777 49.5051C123.891 49.6364 124.015 49.7594 124.144 49.875C124.181 49.9085 124.253 49.9041 124.309 49.9167H124.31L124.311 49.916ZM50.7399 32.032C50.7399 31.6718 50.7339 31.3251 50.7414 30.9799C50.7593 30.1291 50.7071 29.2873 50.4461 28.4693C50.244 27.8348 49.9204 27.2905 49.3686 26.8878C49.0085 26.6254 48.6282 26.4114 48.2196 26.2399C47.2138 25.8163 46.1661 25.5367 45.0947 25.3473C44.5533 25.2512 44.006 25.1863 43.461 25.1162C42.8667 25.0394 42.2724 24.9581 41.6759 24.9059C41.148 24.8597 40.6171 24.8276 40.0877 24.8321C38.7016 24.8425 37.3147 24.8768 35.9286 24.9015C35.904 24.9015 35.8786 24.9015 35.854 24.9044C35.2836 24.9753 34.7139 25.0461 34.1435 25.1177C33.7066 25.1721 33.2652 25.2072 32.8335 25.2884C32.3197 25.3846 31.8119 25.5173 31.3034 25.6419C30.2006 25.911 29.1508 26.3114 28.2329 26.9907C27.8683 27.2606 27.5245 27.5664 27.3195 27.9966C27.06 28.5409 26.9899 29.1299 26.9817 29.7108C26.9541 31.6837 26.972 33.6574 26.9653 35.6311C26.9623 36.3626 27.098 37.0657 27.3426 37.7517C27.6528 38.6219 28.2642 39.2273 29.068 39.6337C29.6228 39.9148 30.2066 40.1385 30.8106 40.3033C31.885 40.5956 32.9729 40.8096 34.0816 40.9125C34.3628 40.9386 34.6439 40.9661 34.925 40.9907C35.4626 41.0385 36.0002 41.119 36.5378 41.1257C38.0402 41.1444 39.5427 41.1324 41.0451 41.1324C41.1443 41.1324 41.2442 41.1354 41.3426 41.1265C41.8184 41.0817 42.2941 41.0355 42.769 40.9855C43.244 40.9356 43.7287 40.9236 44.1917 40.8193C44.9157 40.656 45.6502 40.5456 46.366 40.3316C47.3181 40.0468 48.2547 39.7463 49.1151 39.2333C49.7012 38.8836 50.1091 38.3959 50.3372 37.7644C50.546 37.1873 50.6825 36.5915 50.672 35.9704C50.6705 35.8966 50.6638 35.8183 50.6832 35.7489C50.8032 35.3232 50.7085 34.8944 50.7406 34.45H40.5813C40.5664 34.5686 40.5403 34.6834 40.5396 34.799C40.5351 35.5312 40.5456 36.2634 40.5299 36.9956C40.5247 37.2372 40.4605 37.4773 40.4173 37.7174C40.3681 37.9903 40.1832 38.1558 39.9341 38.2222C39.6523 38.2968 39.36 38.3616 39.0707 38.3698C38.7038 38.3803 38.3333 38.3452 37.9679 38.2998C37.5854 38.252 37.2968 38.0485 37.1977 37.6593C37.141 37.4356 37.1097 37.1999 37.1089 36.9688C37.103 34.3375 37.103 31.7061 37.1089 29.0748C37.1089 28.8436 37.1328 28.6058 37.1939 28.3843C37.2924 28.0257 37.5369 27.8012 37.915 27.7267C38.4041 27.6305 38.8984 27.6432 39.3913 27.6573C39.5852 27.6625 39.7835 27.6946 39.9692 27.7505C40.1608 27.8079 40.3122 27.9332 40.3987 28.1308C40.4837 28.3254 40.5366 28.52 40.5359 28.734C40.5336 29.7145 40.5359 30.695 40.5373 31.6755C40.5373 31.7971 40.5373 31.9179 40.5373 32.0715C40.6604 32.0894 40.7528 32.1117 40.8453 32.1147C43.6795 32.1848 50.4498 32.1371 50.7384 32.032H50.7399ZM70.4082 25.2109H51.61C51.6734 25.3026 51.7077 25.3645 51.7539 25.4152C52.0544 25.7433 52.3571 26.0691 52.6591 26.3957C53.2549 27.0399 53.8492 27.6857 54.4457 28.3284C55.1182 29.0531 55.7915 29.7786 56.4678 30.4997C56.9846 31.0507 57.508 31.5943 58.0255 32.1445C58.1149 32.24 58.1888 32.3503 58.2618 32.4443C58.2178 32.5256 58.1955 32.5852 58.1582 32.6329C57.5453 33.4024 56.9264 34.1675 56.3157 34.9392C55.4918 35.9801 54.6738 37.0255 53.8536 38.0686C53.2154 38.8799 52.5779 39.6919 51.9374 40.5016C51.8628 40.5963 51.8002 40.6895 51.7994 40.8163H70.5462V37.6168H62.9936C63.4872 37.0001 63.9398 36.4394 64.3865 35.8735C64.8286 35.3142 65.27 34.755 65.701 34.1876C66.1357 33.6164 66.6144 33.0773 67.0066 32.492C66.648 32.1013 66.3288 31.7397 65.9948 31.3922C65.0747 30.4378 64.1479 29.4893 63.224 28.5372C63.1912 28.5036 63.1659 28.4619 63.1084 28.3851H70.409V25.2101L70.4082 25.2109ZM83.0639 40.8275V27.9727H73.0515V40.8275H83.0639ZM64.9904 19.9601C65.0165 19.9683 65.0434 19.9758 65.0695 19.984C65.2805 19.7476 65.4982 19.5172 65.701 19.2749C66.1342 18.7559 66.5577 18.2295 66.9887 17.7091C67.2795 17.3579 67.5778 17.0134 67.8686 16.6629C68.3085 16.1335 68.7425 15.5989 69.1831 15.0703C69.4747 14.7198 69.7759 14.3783 70.0645 14.0256C70.1032 13.9779 70.0935 13.8907 70.1062 13.8213C69.38 14.3395 68.7343 14.9055 68.061 15.4364C67.3854 15.968 66.7635 16.569 66.0313 17.0686C65.9948 16.6995 66.0544 16.3684 65.9769 15.9673C64.8189 17.0141 63.734 18.0498 62.6066 19.0833C62.5641 18.6486 62.6342 18.2355 62.5485 17.7635C61.0684 19.4941 59.6316 21.1733 58.1962 22.8532C58.0217 23.0582 57.8554 23.27 57.6862 23.4795C57.681 23.4862 57.6847 23.5041 57.6899 23.5138C57.6951 23.5243 57.7063 23.5325 57.7309 23.5593C58.9664 22.5952 60.2027 21.6304 61.4628 20.6476C61.5031 21.1017 61.4382 21.5058 61.515 21.9622C62.1212 21.4164 62.6879 20.9101 63.2501 20.3986C63.8131 19.8871 64.3716 19.3711 64.9904 18.8044V19.9601ZM59.4929 45.0858C59.9835 45.0783 60.4607 45.0992 60.9774 45.0701C60.9431 44.7495 60.9029 44.4714 60.8857 44.1925C60.8484 43.6005 60.3966 43.0278 59.8321 42.9361C59.4876 42.8802 59.1379 42.8086 58.7785 42.9197C58.2939 43.0696 57.8577 43.4506 57.7608 43.9345C57.6959 44.2566 57.6892 44.5937 57.6817 44.9247C57.6698 45.4578 57.6698 45.9917 57.6817 46.5248C57.6892 46.8559 57.7235 47.1862 57.7503 47.5158C57.8182 48.3375 58.956 49.0384 59.7285 48.4143C59.7755 48.3763 59.8254 48.3412 59.8776 48.3024C59.9067 48.3755 59.9328 48.4389 59.9529 48.4896H60.9297V45.4556C60.6359 45.4556 60.3645 45.4489 60.0931 45.4578C59.8135 45.4668 59.5294 45.4183 59.2468 45.4892V46.372C59.3199 46.4033 59.3944 46.4361 59.4668 46.4674C59.4668 46.7552 59.4668 47.0281 59.4668 47.3011C59.4668 47.4218 59.4414 47.5233 59.2476 47.5389C59.2215 47.389 59.1737 47.2384 59.1722 47.0878C59.164 46.331 59.1685 45.5742 59.1685 44.8173C59.1685 44.619 59.1715 44.4207 59.17 44.2216C59.1693 44.103 59.1872 44.0009 59.3445 43.9651C59.5786 44.2999 59.3989 44.6869 59.4951 45.0858H59.4929ZM83.0609 48.2845C83.125 48.3748 83.1735 48.4426 83.2048 48.4874H84.107C84.1644 47.8439 84.1443 45.7382 84.0809 45.475H82.4614C82.3794 45.7636 82.4271 46.0409 82.4189 46.3235C82.5263 46.3451 82.6068 46.3616 82.6978 46.3802V47.445C82.6329 47.4986 82.562 47.5583 82.445 47.6552C82.4062 47.4405 82.3525 47.2764 82.351 47.1124C82.3428 46.2065 82.3443 45.2998 82.3503 44.3938C82.351 44.2745 82.3824 44.1507 82.4256 44.0396C82.442 43.9979 82.5322 43.9845 82.6083 43.9494C82.691 44.3439 82.5904 44.7174 82.6799 45.0843C82.9356 45.0843 83.1712 45.0843 83.4069 45.0843C83.6425 45.0843 83.8714 45.0843 84.1271 45.0843C84.1271 44.7637 84.1517 44.4788 84.1219 44.1985C84.0585 43.5975 83.7394 43.1896 83.1563 42.9861C82.7485 42.8437 82.3406 42.8235 81.9342 42.9443C81.4287 43.0942 80.947 43.508 80.9336 44.1672C80.9112 45.2468 80.9053 46.328 80.9366 47.4069C80.9522 47.9535 81.2818 48.3449 81.7836 48.5582C82.2467 48.755 82.6724 48.6656 83.0609 48.2838V48.2845ZM56.1166 44.7398L56.0503 44.7584C55.8654 44.1716 55.6804 43.5841 55.5015 43.0174H54.2667V48.4888H55.5224V46.759C55.5373 46.7582 55.5514 46.7575 55.5664 46.7567C55.7334 47.3383 55.9004 47.9192 56.0704 48.5112C56.2986 48.5112 56.5081 48.5187 56.7176 48.509C56.9346 48.4985 57.1583 48.5567 57.3596 48.4732V43.0196H56.1166V44.7405V44.7398ZM64.4633 48.4933V46.756C64.4804 46.7545 64.4976 46.7523 64.5147 46.7508C64.684 47.3316 64.8532 47.9117 65.027 48.5097C65.2402 48.5097 65.4505 48.5164 65.6593 48.5075C65.877 48.4985 66.0999 48.55 66.305 48.4747V43.0174H65.0501V44.7502C65.0329 44.7517 65.0158 44.7532 64.9994 44.7547C64.8219 44.1768 64.6437 43.599 64.4595 42.9987C64.2351 42.9987 64.0256 42.992 63.8168 43.001C63.6117 43.0092 63.4007 42.9607 63.2099 43.0338V48.4933H64.4633ZM79.288 44.751C79.2701 44.748 79.2522 44.7443 79.2343 44.7413C79.0576 44.1634 78.8816 43.5856 78.7094 43.0241H77.4992C77.4134 43.294 77.3963 48.0855 77.4716 48.4859H78.6967V46.6822C78.7094 46.6799 78.722 46.6777 78.7355 46.6755C78.9174 47.2839 79.0986 47.8923 79.2775 48.4911H80.5362V43.0233H79.2887V44.751H79.288ZM91.6588 48.4971C91.6588 48.2324 91.6588 47.9982 91.6588 47.7648C91.6588 46.8104 91.6588 45.856 91.6558 44.9009C91.6543 44.5183 91.5119 44.1806 91.1764 44.0001C90.8349 43.816 90.4665 43.8376 90.1392 44.0896C90.1228 44.1023 90.093 44.0971 90.0676 44.1008C90.0296 44.0575 89.9908 44.0128 89.964 43.9822H88.5823C88.4861 44.2753 88.545 44.5728 88.5353 44.8613C88.5249 45.1708 88.5331 45.481 88.5331 45.7911V48.5097C88.8142 48.5097 89.0491 48.5172 89.2832 48.5075C89.5248 48.4978 89.7723 48.5507 90.0288 48.4613V44.8792H90.2473V48.4963H91.658L91.6588 48.4971ZM26.7439 45.4437C26.7439 45.0097 26.7722 44.5996 26.7357 44.1962C26.7036 43.8421 26.6014 43.4901 26.2905 43.259C25.6642 42.7922 24.9842 42.7601 24.2803 43.048C24.079 43.13 23.9105 43.2627 23.7762 43.4566C23.5548 43.7757 23.4802 44.1284 23.4728 44.4967C23.4593 45.2409 23.4608 45.985 23.4713 46.7292C23.4757 47.0222 23.4989 47.3189 23.5525 47.6075C23.6025 47.8752 23.7226 48.1272 23.9589 48.289C24.4242 48.6067 24.9297 48.7371 25.4934 48.6156C25.9744 48.5127 26.3822 48.2935 26.5858 47.8357C26.8162 47.3175 26.7528 46.7597 26.7364 46.1968C26.462 46.1968 26.2271 46.1893 25.9923 46.199C25.7507 46.2087 25.5031 46.1565 25.2556 46.2415C25.2556 46.6151 25.2556 46.9745 25.2556 47.3339C25.2556 47.4614 25.2556 47.5881 25.0349 47.606C25.0088 47.4554 24.9603 47.3048 24.9596 47.1527C24.9528 46.2221 24.9558 45.2923 24.9566 44.3618C24.9566 44.2872 24.9476 44.2104 24.9625 44.1388C24.9924 43.9957 25.0721 43.9241 25.26 44.0091V45.4452H26.7431L26.7439 45.4437ZM73.0403 27.2621H83.0646V25.2131H73.0403V27.2621ZM74.7553 45.639C75.0915 45.475 75.1959 45.1909 75.1922 44.8472C75.1892 44.5869 75.1997 44.326 75.187 44.0657C75.1698 43.719 75.0282 43.4454 74.7329 43.2329C74.5226 43.0815 74.2967 43.1002 74.07 43.0569C73.431 42.9354 72.795 43.0345 72.1493 43.0002V48.4888H73.5607V46.0462C73.7807 46.1088 73.8471 46.2273 73.8456 46.4093C73.8411 46.8678 73.8456 47.3271 73.8456 47.7857C73.8456 48.0176 73.8456 48.2502 73.8456 48.4888H75.1915C75.1915 47.7894 75.1788 47.1094 75.1967 46.4302C75.2064 46.0685 75.0722 45.8135 74.7553 45.6375V45.639ZM39.1848 45.6107C39.4353 45.5108 39.5576 45.3535 39.5777 45.1245C39.5993 44.8815 39.6143 44.6369 39.6418 44.3946C39.6739 44.1142 39.5919 43.8525 39.4808 43.6109C39.3607 43.3492 39.1505 43.1337 38.8545 43.0815C38.5413 43.0263 38.2199 43.0114 37.9015 43.0032C37.4467 42.9905 36.9919 43.0002 36.534 43.0002V48.5105C37.0329 48.509 37.5093 48.5157 38.0014 48.506C38.0014 48.0646 38 47.6687 38.0014 47.2735C38.0029 46.8723 37.994 46.4704 38.0104 45.9872C38.1237 46.0976 38.205 46.1386 38.2147 46.1923C38.2535 46.3959 38.2855 46.6031 38.2908 46.8097C38.3012 47.2809 38.293 47.7522 38.2952 48.2234C38.2952 48.3166 38.3116 48.4098 38.3213 48.5112C38.5614 48.5112 38.7724 48.5187 38.982 48.509C39.1989 48.4985 39.4219 48.5567 39.6381 48.4672C39.6381 47.7842 39.6299 47.1146 39.6411 46.4451C39.6471 46.0887 39.4703 45.8486 39.184 45.6122L39.1848 45.6107ZM94.9366 45.8113C94.9366 45.5839 94.953 45.3855 94.9336 45.1909C94.8837 44.7018 94.6823 44.3088 94.2104 44.0829C93.754 43.8644 93.3022 43.8428 92.8265 44.0136C92.2829 44.2082 91.9712 44.5892 91.9608 45.1588C91.9481 45.8523 91.9406 46.5472 91.9645 47.2407C91.9794 47.6828 92.1278 48.0959 92.5252 48.3457C92.9264 48.5977 93.3685 48.6313 93.8368 48.544C94.3856 48.4411 94.6883 48.0981 94.8605 47.6053C94.9851 47.2489 94.9418 46.8835 94.9209 46.5204H93.669C93.669 46.7277 93.6824 46.9133 93.6653 47.096C93.6481 47.2735 93.76 47.4964 93.4796 47.6493C93.4386 47.5449 93.3797 47.4629 93.379 47.3808C93.3715 46.6128 93.3723 45.8441 93.379 45.0761C93.379 45.0067 93.4334 44.9381 93.4826 44.8218C93.6951 45.1663 93.5221 45.5048 93.631 45.812H94.9359L94.9366 45.8113ZM51.5854 43.0122V48.4896C52.3363 48.5455 53.741 48.5246 54.0043 48.4568V47.2421H53.0707V46.2631H53.8477V45.0627H53.0677V44.2618H53.8581V43.0122H51.5862H51.5854ZM71.8234 47.2347H70.8906V46.2557H71.69C71.69 46.0365 71.6967 45.8508 71.6885 45.6659C71.6803 45.4735 71.7295 45.2752 71.64 45.0701H70.8869V44.2544H71.7347V43.0092C70.9533 43.0092 70.1979 43.0092 69.4419 43.0099C69.4322 43.0099 69.4225 43.0233 69.4135 43.0316C69.4046 43.0398 69.3964 43.0494 69.3956 43.0502V48.4918H71.8234V47.2347ZM66.7151 43.0174V48.4881C67.3929 48.5433 68.8625 48.5239 69.1518 48.4553C69.1518 48.2622 69.1593 48.0646 69.1496 47.8677C69.1399 47.6634 69.1928 47.4524 69.1026 47.2339H68.1981V46.2676H68.9803V45.0679H68.1855C68.1907 44.7793 68.1482 44.5243 68.219 44.2522H69.0377C69.1071 43.7302 69.0907 43.2649 68.9915 43.0174H66.7143H66.7151ZM42.4313 43.0233H40.4046C40.2823 43.9546 40.1519 44.8606 40.046 45.7695C39.9408 46.6732 39.7731 47.571 39.7142 48.4971H41.1644C41.3717 48.2152 41.2174 47.873 41.3083 47.5613H41.626C41.6677 47.8797 41.7065 48.1794 41.7475 48.4918H43.2254C42.9584 46.6538 42.6952 44.8397 42.4313 43.0241V43.0233ZM36.1389 45.7531C36.1389 45.2446 36.1538 44.7353 36.1344 44.2276C36.1172 43.775 35.9271 43.3954 35.5341 43.1449C35.0264 42.8213 34.4917 42.7997 33.9228 42.9823C33.4695 43.1285 33.1906 43.4431 33.04 43.8585C32.9505 44.1045 32.9453 44.3886 32.9408 44.6563C32.9289 45.4124 32.9311 46.1692 32.9408 46.926C32.9438 47.1571 32.946 47.4032 33.0243 47.615C33.1116 47.8506 33.2406 48.1078 33.4285 48.2614C33.9601 48.6961 34.5879 48.7782 35.2292 48.5433C35.7355 48.3584 36.1403 47.9192 36.1396 47.2421C36.1396 46.7463 36.1396 46.2497 36.1396 45.7539L36.1389 45.7531ZM30.2461 45.8038C30.2461 45.3206 30.2498 44.8367 30.2431 44.3536C30.2416 44.2589 30.1969 44.1649 30.1805 44.0695C30.0724 43.4387 29.6392 43.0293 29.0121 42.9145C28.728 42.8623 28.4633 42.8593 28.1807 42.9182C27.5134 43.0569 27.0734 43.5647 27.0555 44.1925C27.025 45.2327 27.028 46.2758 27.0555 47.316C27.069 47.8416 27.3478 48.2555 27.8302 48.4851C28.265 48.6917 28.7325 48.7289 29.191 48.5746C29.4803 48.4777 29.7778 48.3591 29.9456 48.075C30.1343 47.7551 30.2588 47.4136 30.2498 47.0311C30.2401 46.6225 30.2476 46.2132 30.2476 45.8038H30.2461ZM43.3096 48.5067C44.0679 48.5067 44.8128 48.5507 45.5503 48.4933C46.2027 48.4426 46.5121 48.1108 46.5024 47.4271C46.4875 46.3355 46.5002 45.2439 46.4957 44.1522C46.4935 43.5975 46.1199 43.1635 45.5756 43.0741C44.8285 42.9518 44.0776 43.0084 43.3096 43.0017V48.506V48.5067ZM50.0733 45.7837C50.0733 45.2871 50.0927 44.7898 50.068 44.2947C50.0397 43.7332 49.8101 43.2851 49.265 43.0338C49.0786 42.948 48.8795 42.9577 48.6991 42.8966C48.3769 42.787 48.0862 42.9026 47.8065 42.9943C47.181 43.1993 46.9058 43.7116 46.882 44.3222C46.8447 45.2767 46.8529 46.2333 46.879 47.1885C46.8961 47.8267 47.1862 48.3151 47.8267 48.5388C48.1093 48.638 48.4016 48.6924 48.6953 48.6507C49.4447 48.5448 50.0546 48.1004 50.0718 47.1982C50.0807 46.7269 50.0733 46.2549 50.0733 45.7837ZM32.0319 43.0166H30.6391V48.4896H32.8379V47.2697C32.5635 47.2026 32.2988 47.3011 32.0319 47.1996V43.0166ZM75.565 43.0144C75.565 44.8591 75.5643 46.6762 75.5658 48.5097C75.8491 48.5097 76.0847 48.5164 76.3188 48.5082C76.5612 48.4993 76.8087 48.5478 77.0369 48.4747V43.0144H75.5643H75.565ZM61.3405 48.4888H62.7998V43.0204H61.3405V48.4888ZM86.7592 43.0122V48.4881H88.2095V43.0122H86.7592ZM84.4314 49.1704C84.8646 49.1547 85.1748 48.9273 85.3149 48.5321C85.4536 48.1406 85.4052 47.7395 85.3813 47.3421H84.4485C84.3807 48.1377 84.4023 48.3897 84.5536 48.5589C84.3672 48.7237 84.4336 48.937 84.4321 49.1704H84.4314Z" fill="#442977"/>
<path d="M50.7399 32.0319C50.4513 32.1371 43.681 32.1848 40.8468 32.1147C40.7543 32.1125 40.6619 32.0893 40.5389 32.0714C40.5389 31.9178 40.5389 31.7963 40.5389 31.6755C40.5381 30.695 40.5351 29.7145 40.5374 28.734C40.5374 28.52 40.4852 28.3254 40.4002 28.1308C40.3137 27.9332 40.1631 27.8079 39.9707 27.7505C39.785 27.6946 39.5867 27.6633 39.3928 27.6573C38.9 27.6431 38.4056 27.6304 37.9165 27.7266C37.5392 27.8005 37.2939 28.0249 37.1954 28.3843C37.135 28.6057 37.1112 28.8443 37.1104 29.0747C37.1045 31.7061 37.1045 34.3374 37.1104 36.9688C37.1104 37.1992 37.1417 37.4355 37.1992 37.6592C37.2983 38.0477 37.5869 38.2513 37.9694 38.2997C38.3348 38.3452 38.7053 38.3803 39.0722 38.3698C39.3615 38.3616 39.6538 38.2967 39.9356 38.2222C40.1854 38.1558 40.3696 37.9903 40.4188 37.7174C40.4621 37.4773 40.5262 37.2372 40.5314 36.9956C40.5471 36.2634 40.5366 35.5312 40.5411 34.799C40.5411 34.6834 40.5679 34.5686 40.5829 34.45H50.7421C50.7101 34.8944 50.8048 35.3232 50.6847 35.7489C50.6653 35.8183 50.672 35.8966 50.6735 35.9704C50.684 36.5915 50.5475 37.1872 50.3387 37.7644C50.1106 38.3959 49.7027 38.8836 49.1166 39.2333C48.2562 39.7463 47.3204 40.0468 46.3675 40.3316C45.6517 40.5456 44.9172 40.6552 44.1932 40.8192C43.7302 40.9236 43.2455 40.9363 42.7705 40.9855C42.2956 41.0355 41.8199 41.0817 41.3441 41.1264C41.2457 41.1354 41.1458 41.1324 41.0466 41.1324C39.5442 41.1324 38.0417 41.1443 36.5393 41.1257C36.0009 41.119 35.4641 41.0384 34.9265 40.9907C34.6454 40.9654 34.3643 40.9378 34.0832 40.9124C32.9744 40.8095 31.8858 40.5955 30.8121 40.3033C30.2073 40.1385 29.6243 39.9148 29.0695 39.6337C28.2657 39.2266 27.6543 38.6218 27.3441 37.7517C27.0995 37.0657 26.9646 36.3626 26.9668 35.6311C26.9743 33.6574 26.9556 31.6837 26.9832 29.7108C26.9914 29.1299 27.0615 28.5416 27.321 27.9966C27.526 27.5671 27.8698 27.2606 28.2344 26.9907C29.1523 26.3107 30.2021 25.911 31.3049 25.6418C31.8134 25.5181 32.3212 25.3853 32.835 25.2884C33.2674 25.2071 33.7081 25.1728 34.145 25.1177C34.7147 25.0461 35.2851 24.9752 35.8555 24.9044C35.8801 24.9014 35.9047 24.9014 35.9301 24.9014C37.3162 24.8768 38.7024 24.8425 40.0892 24.8321C40.6186 24.8284 41.1495 24.8604 41.6774 24.9059C42.274 24.9581 42.8682 25.0394 43.4625 25.1162C44.0083 25.1863 44.5548 25.2519 45.0962 25.3473C46.1677 25.5367 47.2153 25.8171 48.2211 26.2398C48.6297 26.4113 49.01 26.6261 49.3702 26.8878C49.9219 27.2897 50.2455 27.8348 50.4476 28.4693C50.7086 29.2872 50.7608 30.1291 50.7429 30.9798C50.7354 31.3258 50.7414 31.6718 50.7414 32.0319H50.7399ZM40.7335 34.5999C40.7335 34.9116 40.7387 35.1845 40.7327 35.4574C40.7178 36.0762 40.7141 36.6966 40.6731 37.3147C40.6298 37.9746 40.3845 38.2938 39.8208 38.425C39.1356 38.5846 38.4466 38.5667 37.7599 38.4026C37.3625 38.3072 37.1343 38.0477 37.0538 37.6727C36.9889 37.3722 36.9583 37.0597 36.9576 36.7518C36.9501 34.2688 36.9501 31.7859 36.9576 29.3037C36.9583 29.0084 36.9949 28.7101 37.0441 28.4186C37.1142 28.007 37.3393 27.7207 37.7681 27.6193C38.504 27.4448 39.2407 27.4478 39.9781 27.6029C40.3278 27.6767 40.5538 27.8944 40.6104 28.2486C40.6671 28.6013 40.72 28.9584 40.7282 29.3141C40.7461 30.0836 40.7327 30.8531 40.735 31.6233C40.735 31.718 40.7499 31.8127 40.7573 31.9052H50.543C50.543 31.2647 50.5639 30.6458 50.5356 30.0299C50.5169 29.6123 50.4603 29.1903 50.3678 28.7825C50.1471 27.8101 49.608 27.0653 48.6834 26.6455C48.1779 26.4158 47.6656 26.1906 47.1377 26.0199C45.8985 25.618 44.622 25.3898 43.326 25.2407C41.7967 25.0647 40.263 25.0148 38.727 24.9857C38.3564 24.979 37.9851 25.0155 37.6137 25.02C36.5094 25.0327 35.4119 25.1184 34.3143 25.2452C33.1056 25.3846 31.9149 25.6068 30.7517 25.9558C29.8711 26.2197 29.0315 26.5866 28.2866 27.1398C27.7848 27.5126 27.3874 27.966 27.2822 28.605C27.2099 29.0434 27.1331 29.4878 27.1279 29.9307C27.1077 31.7926 27.1033 33.6544 27.1174 35.5163C27.1212 35.9957 27.1853 36.4804 27.274 36.9531C27.4992 38.1484 28.1397 39.0327 29.2671 39.5561C30.0918 39.9386 30.9515 40.1996 31.8351 40.395C33.4248 40.7476 35.0398 40.9102 36.6616 40.9706C38.6203 41.0437 40.5806 41.0541 42.5372 40.8558C43.8457 40.723 45.1394 40.5225 46.4048 40.1631C47.3107 39.9058 48.2003 39.6053 49.0167 39.1155C49.5841 38.7754 49.9838 38.3027 50.2038 37.6868C50.5602 36.6906 50.5833 35.6565 50.5415 34.6006H40.7342L40.7335 34.5999Z" fill="#181410"/>
<path d="M70.4082 25.2108V28.3857H63.1077C63.1658 28.4625 63.1904 28.5043 63.2233 28.5378C64.1471 29.4893 65.0739 30.4377 65.994 31.3929C66.3281 31.7396 66.6472 32.1012 67.0059 32.4927C66.6137 33.078 66.135 33.6171 65.7003 34.1883C65.2685 34.7557 64.8271 35.3149 64.3857 35.8741C63.9391 36.4401 63.4857 37.0008 62.9929 37.6174H70.5454V40.8169H51.7986C51.7986 40.6909 51.862 40.597 51.9366 40.5023C52.5763 39.6925 53.2146 38.8805 53.8529 38.0693C54.6738 37.0261 55.491 35.9808 56.315 34.9398C56.9256 34.1681 57.5438 33.4031 58.1574 32.6336C58.1954 32.5859 58.2171 32.5262 58.2611 32.445C58.188 32.351 58.1142 32.2407 58.0247 32.1452C57.5072 31.5949 56.9838 31.0506 56.4671 30.5003C55.7908 29.7786 55.1175 29.0538 54.4449 28.3291C53.8484 27.6856 53.2541 27.0406 52.6584 26.3964C52.3564 26.0698 52.0529 25.7439 51.7532 25.4159C51.7069 25.3652 51.6726 25.3033 51.6093 25.2116H70.4074L70.4082 25.2108ZM62.6976 37.7613C64.1061 35.9651 65.4631 34.2352 66.8277 32.4949C65.4713 31.0834 64.1426 29.701 62.7565 28.2582C63.3329 28.2582 63.8242 28.2582 64.3149 28.2582H67.2952C67.7918 28.2582 68.2883 28.2582 68.7849 28.2582C69.2763 28.2582 69.7677 28.2612 70.2531 28.256V25.3391H51.9127C54.1198 27.7206 56.2993 30.0723 58.4915 32.4375C56.3299 35.1859 54.1787 37.9209 52.0097 40.679C52.0991 40.6857 52.158 40.6932 52.2177 40.6932C58.2648 40.6909 64.3126 40.6879 70.3597 40.6842C70.3694 40.6842 70.3784 40.6701 70.3873 40.6626C70.397 40.6544 70.406 40.6462 70.3985 40.6522V37.7606H62.6961L62.6976 37.7613Z" fill="#181410"/>
<path d="M83.0639 40.8274H73.0515V27.9727H83.0639V40.8274ZM73.2036 28.1039V40.6708C73.9731 40.7394 82.6523 40.7096 82.9103 40.6417V28.1039H73.2036Z" fill="#181410"/>
<path d="M64.9904 19.9601V18.8044C64.3715 19.371 63.8131 19.887 63.2501 20.3985C62.6872 20.91 62.1205 21.4163 61.515 21.9621C61.4375 21.5058 61.5031 21.1017 61.4628 20.6476C60.2027 21.6303 58.9672 22.5952 57.7309 23.5593C57.7063 23.5324 57.6951 23.5242 57.6899 23.5138C57.6854 23.5034 57.681 23.4862 57.6862 23.4795C57.8554 23.27 58.0217 23.0582 58.1962 22.8532C59.6315 21.1725 61.0684 19.4941 62.5485 17.7635C62.6342 18.2354 62.5641 18.6485 62.6066 19.0832C63.7348 18.0498 64.8197 17.0141 65.9769 15.9672C66.0544 16.3684 65.9948 16.6994 66.0313 17.0685C66.7635 16.5682 67.3854 15.968 68.0609 15.4363C68.735 14.9062 69.3807 14.3395 70.1062 13.8213C70.0935 13.8906 70.1032 13.9779 70.0645 14.0256C69.7759 14.3783 69.4747 14.7198 69.1831 15.0702C68.7425 15.5996 68.3085 16.1335 67.8686 16.6629C67.5778 17.0133 67.2788 17.3578 66.9887 17.709C66.5577 18.2295 66.1342 18.7566 65.701 19.2749C65.4982 19.5179 65.2805 19.7483 65.0695 19.984C65.0434 19.9758 65.0165 19.9683 64.9904 19.9601ZM58.7204 22.5146C58.695 22.5392 58.6697 22.5639 58.6443 22.5885C58.6294 22.6011 58.6145 22.6138 58.6324 22.5989C58.6272 22.6168 58.6324 22.5989 58.6376 22.5803C58.663 22.5564 58.6891 22.5318 58.7144 22.5079C58.7405 22.4997 58.7674 22.4923 58.7935 22.4841C58.7875 22.4744 58.7815 22.4654 58.7756 22.4557C58.7569 22.4751 58.739 22.4953 58.7204 22.5146ZM69.1093 14.8741C69.1168 14.8458 69.1242 14.8167 69.1317 14.7884C69.1093 14.8011 69.0862 14.8137 69.0638 14.8264C69.0362 14.8488 69.0086 14.8711 68.9811 14.8935C68.9393 14.9189 68.8931 14.939 68.8558 14.9703C68.0542 15.6332 67.2549 16.2983 66.4534 16.9612C66.2759 17.108 66.0932 17.249 65.8606 17.4346V16.2953C65.7122 16.4213 65.6071 16.5048 65.5094 16.5958C64.5937 17.4481 63.6796 18.3018 62.7632 19.1533C62.6767 19.2338 62.5805 19.3032 62.4374 19.4195V18.1288C62.3375 18.2444 62.2897 18.2981 62.2428 18.3533C61.3122 19.4471 60.3794 20.5395 59.4519 21.6355C59.261 21.8607 59.085 22.0993 58.9023 22.3312C58.8949 22.3618 58.8874 22.3931 58.8799 22.4237L58.9605 22.3819C59.51 21.9599 60.0588 21.5379 60.6083 21.1151C60.9364 20.8623 61.263 20.6088 61.6395 20.318V21.646C62.8214 20.57 63.9607 19.5336 65.144 18.4569V19.6447C65.276 19.5015 65.3699 19.4083 65.455 19.3062C66.3445 18.2414 67.2355 17.1774 68.1206 16.1082C68.436 15.7271 68.7357 15.3342 69.0429 14.9465C69.0653 14.9218 69.0877 14.8972 69.1101 14.8726L69.1093 14.8741Z" fill="#181410"/>
<path d="M59.4929 45.0857C59.3967 44.6868 59.5764 44.2998 59.3423 43.965C59.1849 44.0008 59.167 44.1029 59.1678 44.2215C59.1693 44.4198 59.167 44.6182 59.1663 44.8173C59.1663 45.5741 59.1618 46.3309 59.17 47.0877C59.1715 47.2391 59.2192 47.3897 59.2453 47.5388C59.4392 47.5224 59.4646 47.421 59.4646 47.301C59.4646 47.0281 59.4646 46.7552 59.4646 46.4673C59.3922 46.436 59.3177 46.4032 59.2446 46.3719V45.4891C59.5272 45.4182 59.8113 45.4667 60.0909 45.4578C60.3623 45.4488 60.6337 45.4555 60.9275 45.4555V48.4895H59.9507C59.9306 48.4388 59.9045 48.3754 59.8754 48.3023C59.824 48.3411 59.774 48.3762 59.7263 48.4142C58.9538 49.0383 57.8167 48.3374 57.7481 47.5157C57.7205 47.1854 57.6862 46.8551 57.6795 46.5248C57.6683 45.9916 57.6676 45.4578 57.6795 44.9246C57.687 44.5936 57.6937 44.2573 57.7585 43.9344C57.8562 43.4513 58.2917 43.0695 58.7763 42.9196C59.1357 42.8085 59.4854 42.8801 59.8299 42.936C60.3951 43.0277 60.8462 43.6011 60.8835 44.1924C60.9014 44.472 60.9409 44.7494 60.9752 45.07C60.4585 45.0984 59.9813 45.0775 59.4907 45.0857H59.4929ZM59.1081 43.8591C59.4772 43.7898 59.5682 43.8412 59.5928 44.1507C59.6137 44.4057 59.5973 44.6636 59.5973 44.938C60.0223 44.9366 60.3996 44.9709 60.806 44.9134C60.7828 44.645 60.759 44.4004 60.7418 44.1559C60.706 43.6511 60.4145 43.3379 59.9723 43.1545C59.5846 42.9942 59.1745 42.9688 58.7726 43.0919C58.3655 43.2164 57.9166 43.587 57.8846 44.1678C57.8257 45.2333 57.8092 46.2966 57.8883 47.3614C57.9271 47.8863 58.2074 48.2352 58.6891 48.4231C59.1089 48.5864 59.4235 48.5022 59.724 48.1652C59.7837 48.098 59.8433 48.0309 59.9216 47.9429C59.9858 48.1077 60.0335 48.23 60.0849 48.3627C60.3295 48.3486 60.5606 48.3985 60.7754 48.3284V45.6255H59.4004V46.2198C59.4839 46.2489 59.5496 46.272 59.6114 46.2936C59.6114 46.6806 59.6219 47.0519 59.604 47.4218C59.5995 47.5157 59.5205 47.6275 59.4437 47.6924C59.3318 47.7864 59.2118 47.7334 59.0895 47.6156C59.0701 47.4948 59.0276 47.3494 59.0269 47.204C59.0209 46.2362 59.0209 45.2676 59.0284 44.2998C59.0298 44.1469 59.0828 43.9941 59.1081 43.8591Z" fill="#181410"/>
<path d="M83.0609 48.2845C82.6732 48.6662 82.2474 48.7557 81.7836 48.5588C81.2818 48.3456 80.9523 47.9541 80.9366 47.4076C80.9053 46.3287 80.912 45.2475 80.9336 44.1678C80.947 43.5087 81.4287 43.0941 81.9343 42.945C82.3414 42.8249 82.7492 42.8443 83.1563 42.9867C83.7394 43.1903 84.0593 43.5981 84.1219 44.1991C84.151 44.4787 84.1272 44.7643 84.1272 45.0849C83.8714 45.0849 83.6388 45.0849 83.4069 45.0849C83.175 45.0849 82.9356 45.0849 82.6799 45.0849C82.5904 44.7181 82.6903 44.3445 82.6083 43.9501C82.5322 43.9851 82.442 43.9985 82.4256 44.0403C82.3824 44.1521 82.3511 44.2752 82.3503 44.3945C82.3443 45.3004 82.3429 46.2071 82.3511 47.1131C82.3525 47.2771 82.4062 47.4404 82.445 47.6559C82.5621 47.5582 82.6329 47.4993 82.6978 47.4456V46.3809C82.6076 46.3622 82.5263 46.3458 82.4189 46.3242C82.4279 46.0416 82.3794 45.7642 82.4614 45.4756H84.0809C84.1443 45.7389 84.1644 47.8445 84.107 48.488H83.2048C83.1735 48.4433 83.125 48.3754 83.0609 48.2852V48.2845ZM83.2704 48.3434H83.9631V45.63H82.5807V46.181C82.6665 46.2168 82.753 46.2526 82.8469 46.2921C82.8469 46.5658 82.8514 46.8252 82.8447 47.0855C82.8417 47.2085 82.823 47.3315 82.7992 47.4523C82.7612 47.644 82.656 47.7461 82.5166 47.7409C82.3772 47.7364 82.2914 47.6402 82.2579 47.4307C82.2362 47.2972 82.2213 47.16 82.2206 47.0251C82.2176 46.1937 82.2161 45.3616 82.2206 44.5302C82.2213 44.3579 82.2437 44.185 82.2661 44.0135C82.2847 43.8681 82.3779 43.8024 82.5248 43.8039C82.6732 43.8054 82.7559 43.8815 82.7798 44.0217C82.7917 44.0947 82.7925 44.17 82.7932 44.2446C82.7947 44.4653 82.7932 44.686 82.7932 44.9254H83.9721C83.9721 44.7002 83.9847 44.4907 83.9698 44.2834C83.9243 43.6735 83.6089 43.2656 83.0154 43.1023C82.7425 43.027 82.4636 42.9994 82.1714 43.0546C81.4995 43.1828 81.0962 43.5862 81.082 44.2625C81.0611 45.2795 81.0633 46.2981 81.082 47.3151C81.0924 47.8796 81.4466 48.283 81.9872 48.4515C82.3652 48.5693 82.6679 48.4612 82.9237 48.1793C82.9938 48.1025 83.0534 48.016 83.1273 47.9221C83.1802 48.0772 83.2242 48.2047 83.2712 48.3434H83.2704Z" fill="#181410"/>
<path d="M56.1166 44.7398V43.0188H57.3596V48.4724C57.1583 48.5559 56.9346 48.4978 56.7176 48.5082C56.5081 48.5179 56.2978 48.5104 56.0704 48.5104C55.9004 47.9184 55.7334 47.3375 55.5664 46.756C55.5515 46.7567 55.5373 46.7574 55.5224 46.7582V48.4881H54.2667V43.0166H55.5015C55.6804 43.584 55.8654 44.1708 56.0503 44.7577L56.1166 44.739V44.7398ZM55.3732 48.3524V45.6561C55.3859 45.6547 55.3993 45.6524 55.412 45.6509C55.67 46.5494 55.9273 47.4479 56.1852 48.3464H57.2068V43.1717H56.2591V45.7881C56.2404 45.7919 56.2225 45.7963 56.2039 45.8001C55.9317 44.9217 55.6588 44.0441 55.3896 43.1747H54.4196V48.3524H55.3732Z" fill="#181410"/>
<path d="M64.4632 48.4933H63.2098V43.0337C63.4007 42.9607 63.6117 43.0091 63.8168 43.0009C64.0256 42.992 64.2343 42.9987 64.4595 42.9987C64.6444 43.5989 64.8219 44.1768 64.9994 44.7547C65.0165 44.7532 65.0337 44.7517 65.0501 44.7502V43.0173H66.305V48.4746C66.0992 48.5499 65.8762 48.4985 65.6593 48.5074C65.4497 48.5164 65.2402 48.5097 65.0269 48.5097C64.8532 47.9117 64.684 47.3316 64.5147 46.7507C64.4975 46.7522 64.4804 46.7544 64.4632 46.7559V48.4933ZM65.2059 45.7866C65.191 45.7888 65.1761 45.7903 65.1612 45.7926C64.8883 44.9135 64.6154 44.0344 64.3484 43.1747H63.3702V48.3389H64.3223V45.6576C64.3372 45.6546 64.3522 45.6524 64.3663 45.6494C64.6251 46.5472 64.8838 47.4449 65.1433 48.3456H66.1581V43.1724H65.2052V45.7866H65.2059Z" fill="#181410"/>
<path d="M79.288 44.7509V43.0233H80.5354V48.4911H79.2768C79.0978 47.8923 78.9166 47.2839 78.7347 46.6754C78.722 46.6777 78.7093 46.6799 78.6959 46.6821V48.4858H77.4709C77.3955 48.0854 77.4127 43.294 77.4984 43.0241H78.7086C78.8801 43.5863 79.0568 44.1641 79.2335 44.7413C79.2514 44.7442 79.2693 44.748 79.2872 44.7509H79.288ZM80.4034 48.3509C80.4646 47.0542 80.4377 43.4714 80.3609 43.1441C80.0642 43.1814 79.7577 43.1061 79.4393 43.1896V45.7255C79.4214 45.7292 79.4035 45.733 79.3856 45.7359C79.1209 44.8807 78.857 44.0262 78.5923 43.1717H77.6073V48.3427H78.552V45.6517C78.5707 45.6472 78.5893 45.6427 78.6087 45.6383C78.8697 46.5442 79.1314 47.4494 79.3909 48.3501H80.4042L80.4034 48.3509Z" fill="#181410"/>
<path d="M91.6588 48.4969H90.2481V44.8799H90.0296V48.4619C89.7731 48.5514 89.5255 48.4984 89.2839 48.5081C89.0498 48.5178 88.8149 48.5104 88.5338 48.5104V45.7918C88.5338 45.4816 88.5256 45.1714 88.5361 44.862C88.5458 44.5727 88.4869 44.2759 88.583 43.9829H89.9647C89.9916 44.0134 90.0303 44.0582 90.0684 44.1014C90.0937 44.0977 90.1235 44.1029 90.1399 44.0902C90.4673 43.8382 90.8356 43.8166 91.1771 44.0008C91.5119 44.1812 91.6551 44.519 91.6566 44.9015C91.6595 45.8559 91.6588 46.8103 91.6595 47.7655C91.6595 47.9996 91.6595 48.233 91.6595 48.4977L91.6588 48.4969ZM88.7538 44.129V48.3419H89.8573C89.8573 48.1994 89.8573 48.0772 89.8573 47.9556C89.8573 47.0877 89.8573 46.2198 89.8573 45.3519C89.8573 45.2154 89.8558 45.0782 89.8723 44.9432C89.8939 44.7643 89.9766 44.6987 90.1377 44.7024C90.2898 44.7061 90.3636 44.7889 90.3718 44.9336C90.3793 45.0573 90.3823 45.1811 90.3823 45.3049C90.383 46.2228 90.3823 47.1399 90.383 48.0578C90.383 48.1525 90.3912 48.2472 90.3957 48.3448H91.4895C91.4977 48.2934 91.5082 48.2583 91.5082 48.224C91.5089 47.1824 91.5119 46.1407 91.5059 45.0991C91.5052 44.9276 91.4739 44.7546 91.4418 44.5853C91.3993 44.3617 91.2576 44.2125 91.0489 44.126C90.7044 43.9829 90.3174 44.0783 90.0773 44.3691C90.0124 44.4474 89.9565 44.5317 89.8454 44.6815V44.1283H88.7523L88.7538 44.129Z" fill="#181410"/>
<path d="M26.7439 45.4437H25.2608V44.0076C25.0736 43.9226 24.9938 43.9941 24.9633 44.1373C24.9484 44.2089 24.9573 44.2857 24.9573 44.3602C24.9573 45.2908 24.9536 46.2206 24.9603 47.1512C24.9618 47.3025 25.0095 47.4539 25.0356 47.6045C25.2563 47.5866 25.2563 47.4606 25.2563 47.3323C25.2563 46.9729 25.2563 46.6136 25.2563 46.24C25.5039 46.155 25.7514 46.2072 25.993 46.1975C26.2279 46.1885 26.4627 46.1952 26.7371 46.1952C26.7535 46.7582 26.8169 47.3152 26.5865 47.8342C26.383 48.292 25.9751 48.5112 25.4942 48.6141C24.9305 48.7349 24.4242 48.6044 23.9597 48.2875C23.7233 48.1257 23.6032 47.8744 23.5533 47.606C23.4996 47.3182 23.4757 47.0214 23.472 46.7276C23.4616 45.9835 23.4601 45.2393 23.4735 44.4952C23.4802 44.1269 23.5548 43.7742 23.777 43.455C23.9112 43.2612 24.0797 43.1285 24.281 43.0464C24.9849 42.7586 25.6649 42.7907 26.2913 43.2575C26.6022 43.4893 26.7043 43.8413 26.7364 44.1947C26.7729 44.5988 26.7446 45.0082 26.7446 45.4422L26.7439 45.4437ZM26.5985 45.3147C26.5932 44.8867 26.6193 44.4736 26.5492 44.0545C26.4732 43.5997 26.2167 43.3149 25.8096 43.1553C25.3823 42.9875 24.9372 42.9674 24.5047 43.1255C24.029 43.2992 23.683 43.6213 23.6718 44.1559C23.651 45.1827 23.6636 46.2102 23.6659 47.2369C23.6659 47.3353 23.6815 47.4352 23.6994 47.5322C23.7643 47.8834 23.9515 48.1555 24.2743 48.3076C24.8999 48.6029 25.6284 48.5858 26.1585 48.1279C26.3024 48.0042 26.4359 47.8282 26.4911 47.65C26.6231 47.2242 26.6372 46.7798 26.5776 46.3414H25.4181C25.4181 46.5039 25.4196 46.6501 25.4181 46.7962C25.4151 47.0072 25.4181 47.2183 25.4025 47.4285C25.3868 47.6299 25.2653 47.7432 25.102 47.7372C24.9655 47.7327 24.8537 47.6157 24.8216 47.4382C24.8127 47.3898 24.8134 47.3391 24.8134 47.2898C24.8134 46.2601 24.8142 45.2304 24.8134 44.2007C24.8134 44.0441 24.8447 43.9054 24.9916 43.8219C25.3637 43.807 25.3943 43.8293 25.4129 44.1589C25.4226 44.3319 25.4181 44.5064 25.4189 44.6801C25.4196 44.8874 25.4189 45.0947 25.4189 45.3132H26.5992L26.5985 45.3147Z" fill="#181410"/>
<path d="M73.0403 27.2621V25.2131H83.0646V27.2621H73.0403ZM82.9162 25.3511C82.2481 25.2817 73.4578 25.3108 73.1827 25.3839C73.1827 25.6762 73.1767 25.9729 73.1842 26.269C73.1916 26.5605 73.1469 26.8558 73.2155 27.1384H82.9162V25.3511Z" fill="#181410"/>
<path d="M74.7553 45.639C75.0722 45.8149 75.2064 46.0699 75.1967 46.4316C75.1788 47.1108 75.1915 47.7909 75.1915 48.4903H73.8456C73.8456 48.2509 73.8456 48.019 73.8456 47.7871C73.8456 47.3286 73.8411 46.8693 73.8456 46.4107C73.8471 46.228 73.7807 46.1102 73.5608 46.0476V48.4903H72.1493V43.0017C72.795 43.036 73.4318 42.9368 74.07 43.0583C74.2967 43.1016 74.5226 43.0829 74.7329 43.2343C75.0282 43.4468 75.1699 43.7204 75.187 44.0672C75.1997 44.3274 75.1892 44.5884 75.1922 44.8486C75.196 45.1923 75.0908 45.4764 74.7553 45.6405V45.639ZM73.9194 45.9827C73.9463 46.1609 73.9813 46.2929 73.9836 46.4256C73.9925 46.9461 73.9918 47.4665 73.994 47.9877C73.994 48.107 73.994 48.2263 73.994 48.3389H75.0535C75.0535 47.682 75.0535 47.0505 75.0535 46.4182C75.0535 46.0625 74.8865 45.8358 74.545 45.7322C74.4197 45.6941 74.299 45.6427 74.1051 45.5711C74.3258 45.5383 74.4667 45.5212 74.6062 45.4965C74.8403 45.4548 74.9834 45.3139 75.0207 45.0797C75.0849 44.6734 75.0878 44.2685 74.9909 43.8629C74.9141 43.5415 74.5502 43.2067 74.1841 43.2067C73.6279 43.2067 73.0709 43.1717 72.5147 43.1553C72.4341 43.153 72.3521 43.1724 72.2738 43.1814V48.3374H73.4325V45.8984C73.5996 45.9283 73.739 45.9529 73.9187 45.9842L73.9194 45.9827Z" fill="#181410"/>
<path d="M39.1848 45.6107C39.4711 45.847 39.6478 46.0879 39.6418 46.4435C39.6307 47.1131 39.6389 47.7827 39.6389 48.4657C39.4226 48.5559 39.1989 48.4978 38.9827 48.5074C38.7724 48.5171 38.5614 48.5097 38.3221 48.5097C38.3124 48.409 38.296 48.3158 38.296 48.2219C38.293 47.7506 38.3019 47.2794 38.2915 46.8082C38.287 46.6016 38.2542 46.3943 38.2155 46.1908C38.205 46.1363 38.1245 46.0961 38.0111 45.9857C37.9947 46.4689 38.0037 46.8708 38.0022 47.2719C38.0007 47.6679 38.0022 48.0638 38.0022 48.5045C37.5101 48.5149 37.0336 48.5075 36.5348 48.5089V42.9987C36.9926 42.9987 37.4474 42.9898 37.9023 43.0017C38.2207 43.0106 38.5428 43.0255 38.8552 43.08C39.1512 43.1322 39.3615 43.3477 39.4815 43.6094C39.5926 43.851 39.6747 44.1134 39.6426 44.393C39.615 44.6361 39.6001 44.8799 39.5785 45.123C39.5583 45.3519 39.4361 45.5093 39.1855 45.6092L39.1848 45.6107ZM39.4875 48.3494C39.4875 47.7022 39.495 47.0945 39.4853 46.4868C39.4778 46.026 39.3078 45.8202 38.8642 45.683C38.7792 45.6569 38.6964 45.6241 38.6129 45.5943C38.7135 45.5391 38.8 45.5376 38.8858 45.5264C39.2616 45.4772 39.3883 45.3736 39.4577 45.0052C39.5345 44.5988 39.524 44.188 39.3958 43.7928C39.2974 43.4916 39.0826 43.2798 38.7627 43.2261C38.0768 43.1106 37.3848 43.1575 36.6824 43.1545V48.3419H37.8516C37.8516 47.9266 37.8516 47.5314 37.8516 47.1362C37.8516 46.7321 37.8486 46.3272 37.8546 45.8664C38.0596 45.9328 38.2043 45.9797 38.34 46.0237C38.4951 46.8171 38.3773 47.5851 38.4406 48.3486H39.486L39.4875 48.3494Z" fill="#181410"/>
<path d="M94.9366 45.8113H93.6318C93.5229 45.5041 93.6959 45.1656 93.4834 44.8211C93.4342 44.9374 93.3797 45.006 93.3797 45.0753C93.3738 45.8433 93.373 46.6121 93.3797 47.3801C93.3805 47.4621 93.4394 47.5441 93.4804 47.6485C93.76 47.4949 93.6489 47.2727 93.6661 47.0953C93.6832 46.9126 93.6698 46.7269 93.6698 46.5196H94.9217C94.9433 46.8835 94.9866 47.2489 94.8613 47.6045C94.6883 48.0974 94.3863 48.4404 93.8376 48.5433C93.3693 48.6313 92.9271 48.5977 92.526 48.3449C92.1286 48.0952 91.9802 47.6821 91.9653 47.2399C91.9421 46.5465 91.9489 45.8523 91.9615 45.1581C91.972 44.5884 92.2836 44.2082 92.8272 44.0128C93.3029 43.8421 93.7548 43.8637 94.2111 44.0822C94.6831 44.3081 94.8837 44.701 94.9344 45.1902C94.9545 45.3848 94.9374 45.5831 94.9374 45.8105L94.9366 45.8113ZM94.8113 45.654C94.7838 45.4273 94.7577 45.223 94.7345 45.0187C94.6823 44.5519 94.3744 44.3058 93.9733 44.1455C93.8599 44.1001 93.7347 44.0777 93.6131 44.059C92.8466 43.9405 92.1502 44.4408 92.1159 45.1768C92.0846 45.8575 92.0726 46.5435 92.1211 47.222C92.1718 47.9319 92.4104 48.2883 93.1217 48.4053C93.8711 48.5291 94.4534 48.2875 94.6995 47.6187C94.8106 47.316 94.8143 46.9931 94.7771 46.6434C94.449 46.6524 94.1343 46.6106 93.8144 46.6725C93.8144 46.8925 93.8182 47.0908 93.8129 47.2884C93.81 47.3868 93.801 47.4867 93.7764 47.5814C93.7458 47.697 93.6705 47.7753 93.5393 47.7813C93.4096 47.788 93.3178 47.7223 93.2806 47.6098C93.2463 47.5069 93.2321 47.3928 93.2321 47.2839C93.2284 46.5644 93.2299 45.8448 93.2306 45.126C93.2306 45.0515 93.2284 44.9762 93.241 44.9039C93.2619 44.7793 93.335 44.7085 93.4677 44.7033C93.6161 44.6973 93.7063 44.7652 93.7302 44.9076C93.7458 45.0045 93.7443 45.1052 93.7458 45.2043C93.7481 45.3497 93.7458 45.4959 93.7458 45.6547H94.8106L94.8113 45.654Z" fill="#181410"/>
<path d="M51.5854 43.0121H53.8573V44.2618H53.067V45.0626H53.8469V46.263H53.07V47.2421H54.0035V48.4567C53.741 48.5246 52.3355 48.5454 51.5847 48.4895V43.0121H51.5854ZM51.7196 43.1664V48.3419H53.8327V47.3904H52.8724V46.1109H53.6918V45.2124H52.8791V44.1134C53.0372 44.1134 53.1729 44.1141 53.3086 44.1134C53.4517 44.1126 53.5941 44.1097 53.7269 44.1074V43.1672H51.7196V43.1664Z" fill="#181410"/>
<path d="M71.8234 47.2347V48.4918H69.3956V43.0502C69.3956 43.0502 69.4046 43.0397 69.4135 43.0315C69.4225 43.0233 69.4322 43.0099 69.4419 43.0099C70.1972 43.0092 70.9525 43.0092 71.7347 43.0092V44.2544H70.8869V45.0701H71.64C71.7287 45.2751 71.6795 45.4742 71.6885 45.6659C71.6967 45.8508 71.6899 46.0364 71.6899 46.2556H70.8906V47.2347H71.8234ZM71.5967 43.1523C71.2351 43.1523 70.9018 43.1523 70.5685 43.1523C70.227 43.1523 69.8855 43.1538 69.5477 43.1546C69.4866 44.4699 69.5134 48.0593 69.5805 48.3389H71.6855V47.389H70.7452V46.105H71.5281V45.2103H70.7355V44.1149H71.5967V43.1523Z" fill="#181410"/>
<path d="M66.7151 43.0173H68.9923C69.0907 43.2649 69.1071 43.7294 69.0385 44.2521H68.2198C68.1489 44.5243 68.1914 44.78 68.1862 45.0678H68.9811V46.2676H68.1989V47.2339H69.1034C69.1943 47.4524 69.1406 47.6634 69.1503 47.8677C69.16 48.0645 69.1526 48.2621 69.1526 48.4552C68.8633 48.5238 67.3936 48.5425 66.7158 48.4881V43.0173H66.7151ZM68.8424 45.214H68.0498V44.106H68.8923V43.1754H66.8627V48.3382H69.0005C68.987 48.0123 69.0377 47.7081 68.9617 47.3786H68.046V46.108H68.8431V45.2125L68.8424 45.214Z" fill="#181410"/>
<path d="M42.4313 43.0233C42.6952 44.8397 42.9584 46.6538 43.2254 48.4911H41.7475C41.7065 48.1794 41.6677 47.8789 41.626 47.5605H41.3083C41.2174 47.8729 41.3717 48.2144 41.1644 48.4963H39.7142C39.7731 47.5702 39.9408 46.6732 40.046 45.7688C40.1519 44.8598 40.2816 43.9531 40.4046 43.0226H42.4313V43.0233ZM43.0472 48.3509C42.7929 46.5979 42.5439 44.88 42.2956 43.1672H40.5411C40.3166 44.8979 40.0944 46.6165 39.8693 48.3501H41.075C41.104 48.037 41.1316 47.7342 41.1607 47.4218H41.7773C41.8109 47.7484 41.8422 48.0497 41.8735 48.3516H43.0472V48.3509Z" fill="#181410"/>
<path d="M36.1388 45.7531C36.1388 46.249 36.1388 46.7456 36.1388 47.2414C36.1388 47.9177 35.7347 48.3569 35.2284 48.5425C34.5872 48.7767 33.9594 48.6946 33.4277 48.2607C33.2398 48.1071 33.1108 47.8498 33.0236 47.6142C32.9453 47.4025 32.9431 47.1564 32.9401 46.9253C32.9304 46.1684 32.9281 45.4116 32.9401 44.6555C32.9445 44.3879 32.9498 44.1038 33.0392 43.8577C33.1906 43.4431 33.4687 43.1277 33.9221 42.9816C34.491 42.7982 35.0256 42.8205 35.5334 43.1441C35.9263 43.3947 36.1165 43.7742 36.1336 44.2268C36.153 44.7346 36.1381 45.2438 36.1381 45.7524L36.1388 45.7531ZM35.9964 45.7606C35.9964 45.7606 35.9934 45.7606 35.992 45.7606C35.992 45.264 36.0076 44.7674 35.9875 44.2715C35.9636 43.681 35.6206 43.2388 35.0696 43.1009C34.834 43.042 34.576 43.0398 34.3314 43.0569C33.6149 43.1076 33.1682 43.5677 33.1384 44.2812C33.1123 44.912 33.0967 45.5443 33.0937 46.1759C33.0922 46.5718 33.122 46.967 33.1414 47.3629C33.1541 47.6209 33.2659 47.8372 33.4292 48.034C33.6768 48.3315 34.0138 48.459 34.3769 48.4866C35.1941 48.5485 35.9726 48.1869 35.9942 47.1758C36.0046 46.7045 35.9957 46.2326 35.9957 45.7613L35.9964 45.7606Z" fill="#181410"/>
<path d="M30.2461 45.8038C30.2461 46.2131 30.2386 46.6225 30.2483 47.0311C30.2573 47.4136 30.132 47.7551 29.9441 48.075C29.7771 48.3598 29.4788 48.4776 29.1895 48.5745C28.7302 48.7281 28.2627 48.6916 27.8288 48.4851C27.3463 48.2554 27.0675 47.8423 27.054 47.3159C27.0272 46.275 27.0242 45.2326 27.054 44.1924C27.0727 43.5646 27.5119 43.0561 28.1792 42.9182C28.4618 42.8593 28.7272 42.8622 29.0106 42.9144C29.6377 43.0293 30.0709 43.4386 30.179 44.0694C30.1954 44.1649 30.2409 44.2588 30.2416 44.3535C30.2483 44.8367 30.2446 45.3206 30.2446 45.8038H30.2461ZM30.1208 45.7531C30.0918 45.1961 30.0843 44.6264 30.0246 44.062C29.9777 43.6235 29.6958 43.323 29.2939 43.1523C28.9778 43.0181 28.6415 43.0196 28.306 43.0606C27.6871 43.1374 27.2196 43.593 27.2032 44.2171C27.1771 45.2438 27.1793 46.2728 27.2039 47.2995C27.2144 47.7253 27.4201 48.0876 27.8168 48.2957C28.3179 48.5581 28.8391 48.5716 29.3521 48.3389C29.7376 48.1644 29.9881 47.8535 30.0284 47.43C30.0806 46.8775 30.091 46.3205 30.1201 45.7531H30.1208Z" fill="#181410"/>
<path d="M43.3096 48.5067V43.0024C44.0776 43.0091 44.8285 42.9517 45.5756 43.0747C46.1199 43.1642 46.4935 43.5982 46.4957 44.1529C46.5002 45.2445 46.4875 46.3361 46.5024 47.4277C46.5114 48.1115 46.2027 48.4433 45.5503 48.494C44.8128 48.5514 44.0679 48.5074 43.3096 48.5074V48.5067ZM43.4498 48.3546C44.1395 48.3546 44.7949 48.3568 45.4503 48.3523C45.5473 48.3523 45.6465 48.3262 45.7411 48.3009C46.149 48.1913 46.322 47.9855 46.3436 47.5664C46.36 47.2346 46.3675 46.9021 46.3667 46.5703C46.3667 45.7896 46.3667 45.0089 46.3518 44.229C46.3391 43.6026 46.023 43.276 45.4049 43.2127C45.3191 43.2037 45.2341 43.1843 45.1484 43.1776C44.5832 43.1299 44.0195 43.162 43.4498 43.1508V48.3553V48.3546Z" fill="#181410"/>
<path d="M50.0733 45.7837C50.0733 46.2549 50.0807 46.7269 50.0718 47.1982C50.0546 48.1004 49.4447 48.5448 48.6953 48.6507C48.4015 48.6924 48.1093 48.638 47.8267 48.5388C47.1862 48.3151 46.8961 47.8267 46.879 47.1885C46.8529 46.2333 46.8454 45.2767 46.8819 44.3222C46.9058 43.7116 47.1809 43.1993 47.8065 42.9943C48.0861 42.9026 48.3769 42.7877 48.6991 42.8966C48.8795 42.9577 49.0786 42.9473 49.265 43.0338C49.8108 43.2851 50.0404 43.7332 50.068 44.2947C50.0926 44.7898 50.0733 45.2871 50.0733 45.7837ZM49.9241 45.7621C49.9241 45.7621 49.9241 45.7621 49.9234 45.7621C49.9234 45.2908 49.9368 44.8196 49.9197 44.3483C49.8988 43.766 49.649 43.3246 49.0681 43.127C48.9526 43.0875 48.8295 43.0629 48.7073 43.0487C47.7692 42.9391 47.0676 43.4051 47.0378 44.329C47.0072 45.2953 47.0221 46.2631 47.037 47.2295C47.0423 47.6001 47.1795 47.946 47.4844 48.172C48.0026 48.5552 48.5805 48.6037 49.171 48.3576C49.7221 48.1272 49.9107 47.659 49.9219 47.1005C49.9308 46.6546 49.9234 46.208 49.9234 45.7613L49.9241 45.7621Z" fill="#181410"/>
<path d="M32.0319 43.0166V47.1996C32.2988 47.3018 32.5635 47.2033 32.8379 47.2697V48.4896H30.639V43.0166H32.0319ZM30.7733 43.1657V48.3434H32.7067V47.4397C32.4315 47.427 32.1795 47.4158 31.9007 47.4032V43.1657H30.7725H30.7733Z" fill="#181410"/>
<path d="M75.565 43.0144H77.0376V48.4747C76.8095 48.5478 76.5619 48.4993 76.3196 48.5082C76.0847 48.5164 75.8498 48.5097 75.5665 48.5097C75.5643 46.6762 75.5665 44.8591 75.5657 43.0144H75.565ZM76.896 48.3509V43.1501C76.4948 43.1591 76.1175 43.1404 75.7477 43.1613C75.6851 43.8264 75.7082 48.0937 75.7708 48.3509H76.896Z" fill="#181410"/>
<path d="M61.3406 48.4887V43.0203H62.7998V48.4887H61.3406ZM61.5024 43.1634V48.3426H62.6566V43.1634H61.5024Z" fill="#181410"/>
<path d="M86.7592 43.0121H88.2095V48.488H86.7592V43.0121ZM88.0671 43.1694H86.9024V48.3456H88.0671V43.1694Z" fill="#181410"/>
<path d="M84.4314 49.1703C84.4329 48.937 84.3672 48.7237 84.5529 48.5589C84.4015 48.3889 84.3799 48.1376 84.4478 47.342H85.3806C85.4044 47.7395 85.4521 48.1414 85.3142 48.5321C85.1748 48.9273 84.8638 49.1547 84.4306 49.1703H84.4314ZM84.5715 47.483V48.3196C84.6334 48.3546 84.6841 48.3837 84.7169 48.4016C84.8325 48.6469 84.4239 48.7707 84.6051 49.0175C85.1531 48.84 85.3522 48.2532 85.2158 47.483H84.5715Z" fill="#181410"/>
<path d="M40.7335 34.5998H50.5408C50.5826 35.6556 50.5594 36.6898 50.203 37.686C49.9831 38.3019 49.5834 38.7746 49.016 39.1146C48.2002 39.6038 47.31 39.9043 46.404 40.1623C45.1387 40.5217 43.845 40.7222 42.5364 40.8549C40.5799 41.0533 38.6203 41.0429 36.6608 40.9698C35.0391 40.9094 33.424 40.7468 31.8343 40.3941C30.9515 40.198 30.0918 39.9378 29.2664 39.5553C28.1382 39.0319 27.4985 38.1476 27.2733 36.9523C27.1845 36.4796 27.1204 35.9956 27.1167 35.5155C27.1018 33.6536 27.1063 31.7918 27.1271 29.9299C27.1316 29.4878 27.2092 29.0434 27.2815 28.6042C27.3866 27.9644 27.784 27.5118 28.2858 27.139C29.0307 26.5857 29.8696 26.2189 30.7509 25.9549C31.9148 25.606 33.1056 25.3838 34.3136 25.2443C35.4104 25.1176 36.5087 25.0318 37.613 25.0192C37.9843 25.0147 38.3556 24.9774 38.7262 24.9849C40.2622 25.0139 41.796 25.0639 43.3253 25.2399C44.6205 25.389 45.897 25.6179 47.137 26.0191C47.6649 26.1898 48.1764 26.415 48.6827 26.6446C49.6073 27.0644 50.1464 27.8093 50.3671 28.7816C50.4595 29.1895 50.5162 29.6108 50.5348 30.0291C50.5624 30.6457 50.5423 31.2639 50.5423 31.9044H40.7566C40.7491 31.8119 40.7342 31.7172 40.7342 31.6225C40.732 30.853 40.7454 30.0828 40.7275 29.3133C40.7193 28.9569 40.6664 28.6004 40.6097 28.2478C40.5523 27.8943 40.3271 27.6759 39.9774 27.602C39.2407 27.447 38.5033 27.444 37.7673 27.6184C37.3386 27.7199 37.1134 28.0069 37.0433 28.4178C36.9934 28.7093 36.9576 29.0076 36.9568 29.3028C36.9501 31.7858 36.9501 34.2688 36.9568 36.751C36.9576 37.0582 36.9889 37.3713 37.053 37.6718C37.1335 38.0469 37.3617 38.3064 37.7591 38.4018C38.4459 38.5666 39.1348 38.5837 39.8201 38.4242C40.3838 38.2929 40.6283 37.9738 40.6723 37.3139C40.7133 36.6965 40.7163 36.0762 40.732 35.4566C40.7387 35.1837 40.7327 34.9108 40.7327 34.5991L40.7335 34.5998Z" fill="#F1E737"/>
<path d="M62.6976 37.7614H70.4V40.6529C70.4067 40.647 70.3978 40.6552 70.3888 40.6634C70.3799 40.6708 70.3702 40.685 70.3612 40.685C64.3141 40.6887 58.2663 40.6917 52.2192 40.6939C52.1603 40.6939 52.1014 40.6857 52.0112 40.6798C54.1802 37.9217 56.3314 35.1867 58.493 32.4383C56.3008 30.0731 54.1213 27.7207 51.9142 25.3398H70.2546V28.2568C69.7692 28.2612 69.2778 28.2583 68.7865 28.259C68.2899 28.259 67.7933 28.259 67.2967 28.259H64.3164C63.825 28.259 63.3344 28.259 62.758 28.259C64.1441 29.7018 65.4729 31.0842 66.8292 32.4957C65.4647 34.236 64.1083 35.9651 62.6991 37.7621L62.6976 37.7614Z" fill="#F1E737"/>
<path d="M73.2036 28.1039H82.9103V40.6417C82.6523 40.7096 73.9731 40.7394 73.2036 40.6708V28.1039Z" fill="#F1E737"/>
<path d="M69.0422 14.9472C68.735 15.335 68.4353 15.7287 68.1199 16.1089C67.2348 17.1782 66.3438 18.2422 65.4542 19.307C65.3692 19.4084 65.2753 19.5023 65.1433 19.6455V18.4577C63.96 19.5344 62.8207 20.5715 61.6388 21.6468V20.3188C61.2623 20.6096 60.9357 20.8631 60.6076 21.1159C60.0588 21.5386 59.5093 21.9599 58.9598 22.3827C58.9404 22.3655 58.921 22.3484 58.9016 22.332C59.0843 22.1001 59.2603 21.8615 59.4511 21.6363C60.3795 20.5402 61.3115 19.4479 62.2421 18.354C62.289 18.2996 62.336 18.2452 62.4367 18.1296V19.4203C62.5798 19.304 62.676 19.2339 62.7625 19.1541C63.6789 18.3026 64.5923 17.4488 65.5087 16.5966C65.6064 16.5056 65.7115 16.4228 65.8599 16.2961V17.4354C66.0925 17.2497 66.2752 17.1088 66.4526 16.9619C67.2542 16.2991 68.0535 15.634 68.8551 14.9711C68.8924 14.9398 68.9386 14.9196 68.9803 14.8943C69.0005 14.9122 69.0214 14.9308 69.0415 14.9487L69.0422 14.9472Z" fill="#F1E737"/>
<path d="M69.0639 14.8264C69.0862 14.8137 69.1093 14.801 69.1317 14.7883C69.1243 14.8167 69.1168 14.8457 69.1093 14.8741C69.0944 14.8577 69.0788 14.842 69.0631 14.8264H69.0639Z" fill="#F1E737"/>
<path d="M69.1093 14.8741C69.087 14.8987 69.0646 14.9233 69.0422 14.948C69.0221 14.9301 69.0012 14.9114 68.9811 14.8935C69.0087 14.8712 69.0363 14.8488 69.0638 14.8264C69.0795 14.8421 69.0952 14.8577 69.1101 14.8741H69.1093Z" fill="#F1E737"/>
<path d="M58.6376 22.5809C58.6324 22.5988 58.6272 22.6175 58.6324 22.5996C58.6145 22.6152 58.6294 22.6018 58.6443 22.5891L58.6376 22.5809Z" fill="#F1E737"/>
<path d="M58.6443 22.5885C58.6697 22.5639 58.6951 22.5393 58.7204 22.5146L58.7144 22.5079C58.6891 22.5318 58.663 22.5564 58.6376 22.5803L58.6443 22.5885Z" fill="#F1E737"/>
<path d="M58.9605 22.3826L58.8799 22.4244C58.8874 22.3938 58.8949 22.3625 58.9023 22.3319C58.9217 22.3491 58.9411 22.3662 58.9605 22.3826Z" fill="#F1E737"/>
<path d="M58.7204 22.5146C58.739 22.4952 58.7569 22.4751 58.7756 22.4557C58.7815 22.4654 58.7875 22.4743 58.7935 22.484C58.7674 22.4922 58.7405 22.4997 58.7144 22.5079L58.7204 22.5146Z" fill="#F1E737"/>
<path d="M59.1081 43.8591C59.0828 43.9941 59.0291 44.1462 59.0283 44.2998C59.0201 45.2676 59.0209 46.2362 59.0269 47.2041C59.0276 47.3495 59.0701 47.4949 59.0895 47.6156C59.211 47.7335 59.3318 47.7871 59.4437 47.6924C59.5205 47.6276 59.5995 47.5157 59.604 47.4218C59.6219 47.0519 59.6114 46.6799 59.6114 46.2936C59.5495 46.272 59.4832 46.2489 59.4004 46.2198V45.6256H60.7754V48.3285C60.5599 48.3986 60.3287 48.3486 60.0849 48.3628C60.0335 48.23 59.9857 48.107 59.9216 47.943C59.8433 48.031 59.7844 48.0981 59.724 48.1652C59.4235 48.5022 59.1089 48.5865 58.6891 48.4232C58.2074 48.2353 57.927 47.8863 57.8883 47.3614C57.8092 46.2974 57.8264 45.2333 57.8845 44.1678C57.9166 43.5877 58.3655 43.2164 58.7726 43.0919C59.1752 42.9689 59.5846 42.9935 59.9723 43.1545C60.4145 43.3379 60.7068 43.6511 60.7418 44.1559C60.759 44.4005 60.7828 44.645 60.8059 44.9135C60.3996 44.9709 60.0223 44.9358 59.5973 44.9381C59.5973 44.6637 59.6137 44.4057 59.5928 44.1507C59.5674 43.842 59.4772 43.7898 59.1081 43.8591Z" fill="#F1E737"/>
<path d="M83.2704 48.3434C83.2227 48.2047 83.1794 48.0772 83.1265 47.9221C83.0527 48.0161 82.993 48.1026 82.9229 48.1794C82.6679 48.4605 82.3652 48.5694 81.9864 48.4515C81.4458 48.283 81.0916 47.8796 81.0812 47.3152C81.0626 46.2982 81.0611 45.2796 81.0812 44.2626C81.0954 43.5863 81.4987 43.1829 82.1706 43.0546C82.4621 42.9987 82.741 43.0271 83.0146 43.1024C83.6082 43.2657 83.9236 43.6735 83.969 44.2835C83.9847 44.4907 83.9713 44.6995 83.9713 44.9254H82.7924C82.7924 44.6861 82.7932 44.4654 82.7924 44.2447C82.7924 44.1701 82.7917 44.0948 82.779 44.0217C82.7559 43.8808 82.6731 43.8055 82.524 43.804C82.3771 43.8025 82.2839 43.8681 82.2653 44.0135C82.2429 44.185 82.2205 44.358 82.2198 44.5303C82.2153 45.3616 82.2161 46.1938 82.2198 47.0251C82.2198 47.1609 82.2354 47.2973 82.2571 47.4308C82.2906 47.6403 82.3771 47.7365 82.5158 47.741C82.6552 47.7462 82.7604 47.644 82.7984 47.4524C82.8223 47.3316 82.8409 47.2078 82.8439 47.0855C82.8506 46.8261 82.8461 46.5658 82.8461 46.2922C82.7522 46.2527 82.6664 46.2169 82.5799 46.1811V45.6301H83.9623V48.3434H83.2696H83.2704Z" fill="#F1E737"/>
<path d="M55.3732 48.3523H54.4196V43.1746H55.3896C55.6588 44.0433 55.9317 44.9216 56.2039 45.8C56.2225 45.7963 56.2404 45.7918 56.259 45.7881V43.1716H57.2067V48.3463H56.1852C55.928 47.4486 55.67 46.5501 55.412 45.6509C55.3993 45.6524 55.3859 45.6546 55.3732 45.6561V48.3523Z" fill="#F1E737"/>
<path d="M65.2059 45.7866V43.1724H66.1588V48.3456H65.144C64.8845 47.4448 64.6258 46.5471 64.3671 45.6494C64.3522 45.6523 64.3372 45.6546 64.3231 45.6576V48.3389H63.3709V43.1746H64.3492C64.6161 44.0336 64.889 44.9127 65.1619 45.7925C65.1768 45.7903 65.1917 45.7888 65.2067 45.7866H65.2059Z" fill="#F1E737"/>
<path d="M80.4034 48.3508H79.3901C79.1299 47.4501 78.8689 46.5441 78.608 45.6389C78.5893 45.6434 78.5707 45.6479 78.5513 45.6523V48.3433H77.6066V43.1724H78.5915C78.8555 44.0269 79.1202 44.8814 79.3849 45.7366C79.4028 45.7329 79.4207 45.7291 79.4386 45.7262V43.1903C79.7577 43.1067 80.0634 43.1828 80.3602 43.1448C80.437 43.4714 80.4638 47.0549 80.4027 48.3515L80.4034 48.3508Z" fill="#F1E737"/>
<path d="M88.7538 44.1291H89.8469V44.6824C89.9572 44.5325 90.0139 44.4483 90.0788 44.37C90.3189 44.0799 90.7059 43.9837 91.0503 44.1269C91.2584 44.2134 91.4008 44.3625 91.4433 44.5862C91.4753 44.7555 91.5067 44.9285 91.5074 45.1C91.5134 46.1416 91.5104 47.1833 91.5096 48.2249C91.5096 48.2599 91.4992 48.295 91.491 48.3457H90.3972C90.3927 48.248 90.3845 48.1533 90.3845 48.0586C90.3837 47.1408 90.3845 46.2236 90.3837 45.3057C90.3837 45.182 90.3808 45.0574 90.3733 44.9344C90.3651 44.7898 90.292 44.7063 90.1392 44.7033C89.9781 44.6995 89.8954 44.7652 89.8737 44.9441C89.8573 45.0791 89.8588 45.2163 89.8588 45.3527C89.8573 46.2206 89.8588 47.0886 89.8588 47.9565C89.8588 48.078 89.8588 48.2003 89.8588 48.3427H88.7553V44.1299L88.7538 44.1291Z" fill="#F1E737"/>
<path d="M26.5985 45.3146H25.4181C25.4181 45.0961 25.4181 44.8888 25.4181 44.6816C25.4181 44.5078 25.4211 44.3341 25.4122 44.1604C25.3943 43.83 25.3637 43.8084 24.9909 43.8233C24.8448 43.9068 24.8127 44.0455 24.8127 44.2021C24.8127 45.2318 24.8127 46.2616 24.8127 47.2913C24.8127 47.3405 24.8119 47.3912 24.8209 47.4397C24.8537 47.6171 24.9648 47.7342 25.1013 47.7387C25.2645 47.7446 25.3861 47.6313 25.4017 47.43C25.4181 47.2205 25.4144 47.0087 25.4174 46.7977C25.4196 46.6515 25.4174 46.5054 25.4174 46.3428H26.5769C26.6365 46.7813 26.6223 47.2257 26.4904 47.6514C26.4352 47.8296 26.301 48.0049 26.1578 48.1294C25.6284 48.5864 24.8992 48.6043 24.2736 48.3091C23.9507 48.157 23.7636 47.8848 23.6987 47.5336C23.6808 47.4359 23.6659 47.3368 23.6652 47.2383C23.6629 46.2116 23.6495 45.1841 23.6711 44.1574C23.6823 43.6228 24.0283 43.3006 24.504 43.1269C24.9365 42.9688 25.3816 42.989 25.8089 43.1567C26.216 43.3163 26.4725 43.6004 26.5485 44.056C26.6186 44.475 26.5925 44.8881 26.5977 45.3161L26.5985 45.3146Z" fill="#F1E737"/>
<path d="M82.9162 25.3511V27.1384H73.2155C73.1462 26.8558 73.1917 26.5605 73.1842 26.2689C73.176 25.9729 73.1827 25.6762 73.1827 25.3839C73.4579 25.3101 82.2489 25.2817 82.9162 25.3511Z" fill="#F1E737"/>
<path d="M73.9194 45.9827C73.739 45.9506 73.6003 45.926 73.4333 45.8969V48.3359H72.2745V43.1798C72.3528 43.1709 72.4341 43.1515 72.5154 43.1537C73.0716 43.1701 73.6286 43.2052 74.1849 43.2052C74.551 43.2052 74.9148 43.5407 74.9916 43.8613C75.0886 44.267 75.0856 44.6711 75.0215 45.0782C74.9842 45.3124 74.841 45.4533 74.6069 45.495C74.4674 45.5196 74.3265 45.5368 74.1058 45.5696C74.2997 45.6412 74.4212 45.6926 74.5457 45.7307C74.8872 45.8343 75.0543 46.061 75.0543 46.4166C75.0535 47.0482 75.0543 47.6805 75.0543 48.3374H73.9947C73.9947 48.2248 73.9947 48.1055 73.9947 47.9862C73.9925 47.4657 73.9932 46.9453 73.9843 46.4241C73.982 46.2914 73.947 46.1601 73.9202 45.9812L73.9194 45.9827ZM73.428 45.196C73.8754 45.2326 73.9679 45.158 73.988 44.7598C73.9947 44.6249 73.9977 44.4884 73.9895 44.3535C73.9686 43.9829 73.8247 43.8815 73.428 43.9583V45.1953V45.196Z" fill="#F1E737"/>
<path d="M39.4875 48.3494H38.4421C38.378 47.5859 38.4965 46.8178 38.3414 46.0245C38.205 45.9805 38.0603 45.9335 37.856 45.8672C37.8501 46.328 37.8538 46.7321 37.8531 47.137C37.8531 47.5322 37.8531 47.9266 37.8531 48.3427H36.6839V43.1553C37.3863 43.1583 38.0782 43.1113 38.7642 43.2269C39.0841 43.2806 39.2988 43.4923 39.3973 43.7936C39.5263 44.1887 39.536 44.5996 39.4592 45.006C39.3898 45.3743 39.2638 45.4779 38.8872 45.5272C38.8015 45.5383 38.715 45.5398 38.6143 45.595C38.6979 45.6248 38.7806 45.6576 38.8656 45.6837C39.3093 45.8202 39.4793 46.0267 39.4867 46.4875C39.4964 47.0952 39.489 47.7029 39.489 48.3501L39.4875 48.3494ZM37.8605 45.1998C38.2863 45.2207 38.3892 45.1394 38.4168 44.7733C38.4279 44.6264 38.4317 44.4766 38.4175 44.3297C38.3862 43.9889 38.2251 43.8853 37.8605 43.9621V45.1998Z" fill="#F1E737"/>
<path d="M94.8113 45.6539H93.7466C93.7466 45.4944 93.7481 45.349 93.7466 45.2036C93.7451 45.1044 93.7466 45.0045 93.7309 44.9068C93.7078 44.7644 93.6168 44.6965 93.4685 44.7025C93.335 44.7077 93.2619 44.7786 93.2418 44.9031C93.2298 44.9762 93.2313 45.0515 93.2313 45.1253C93.2313 45.8448 93.2291 46.5644 93.2328 47.2831C93.2328 47.392 93.247 47.5061 93.2813 47.609C93.3186 47.7216 93.4103 47.7872 93.54 47.7805C93.6713 47.7738 93.7466 47.6962 93.7771 47.5807C93.8018 47.486 93.8107 47.386 93.8137 47.2876C93.8189 47.09 93.8152 46.8917 93.8152 46.6717C94.1351 46.6091 94.449 46.6516 94.7778 46.6426C94.8151 46.9923 94.8113 47.3152 94.7002 47.6179C94.4542 48.2868 93.8718 48.5284 93.1225 48.4046C92.4119 48.2875 92.1725 47.9311 92.1218 47.2213C92.0734 46.5427 92.0846 45.8567 92.1166 45.176C92.1509 44.44 92.8473 43.9397 93.6139 44.0583C93.7354 44.0769 93.8607 44.1 93.974 44.1448C94.3744 44.3043 94.6831 44.5504 94.7353 45.0179C94.7584 45.223 94.7845 45.4273 94.8121 45.6532L94.8113 45.6539Z" fill="#F1E737"/>
<path d="M51.7196 43.1665H53.7269V44.1068C53.5941 44.109 53.451 44.112 53.3086 44.1127C53.1728 44.1135 53.0371 44.1127 52.8791 44.1127V45.2118H53.6918V46.1103H52.8724V47.3898H53.8327V48.3412H51.7196V43.1658V43.1665Z" fill="#F1E737"/>
<path d="M71.5968 43.1523V44.115H70.7356V45.2103H71.5282V46.1051H70.7453V47.389H71.6855V48.339H69.5806C69.5135 48.0594 69.4866 44.4699 69.5478 43.1546C69.8855 43.1538 70.227 43.1531 70.5685 43.1523C70.9018 43.1523 71.2344 43.1523 71.5968 43.1523Z" fill="#F1E737"/>
<path d="M68.8424 45.214V46.1095H68.0453V47.38H68.961C69.0378 47.7088 68.9863 48.0138 68.9997 48.3397H66.862V43.1769H68.8916V44.1074H68.049V45.2154H68.8417L68.8424 45.214Z" fill="#F1E737"/>
<path d="M43.0472 48.3509H41.8735C41.8422 48.0489 41.8109 47.7477 41.7773 47.4211H41.1607C41.1316 47.7335 41.104 48.037 41.075 48.3494H39.8693C40.0937 46.6158 40.3166 44.8971 40.5411 43.1665H42.2956C42.5439 44.8792 42.7929 46.5972 43.0472 48.3502V48.3509ZM41.4977 43.7817C41.3404 44.7286 41.1689 45.6674 41.1324 46.6233H41.7848C41.6879 45.6621 41.5924 44.7219 41.4977 43.7817Z" fill="#F1E737"/>
<path d="M35.9964 45.7605C35.9964 46.2317 36.0046 46.7037 35.9949 47.1749C35.9733 48.1853 35.1941 48.5469 34.3777 48.4858C34.0145 48.4582 33.6775 48.3307 33.4299 48.0332C33.2667 47.8371 33.1548 47.6201 33.1421 47.3621C33.1227 46.9669 33.0929 46.571 33.0944 46.175C33.0967 45.5435 33.1123 44.9119 33.1392 44.2804C33.169 43.5676 33.6156 43.1068 34.3322 43.0561C34.5767 43.0389 34.8347 43.0411 35.0703 43.1001C35.6214 43.238 35.9644 43.6802 35.9882 44.2707C36.0084 44.7665 35.9927 45.2631 35.9927 45.7597C35.9942 45.7597 35.9957 45.7597 35.9972 45.7597L35.9964 45.7605ZM34.7967 47.6223C34.8146 47.4471 34.8467 47.2756 34.8474 47.1041C34.8526 46.1862 34.8526 45.2684 34.8467 44.3497C34.8459 44.2043 34.8042 44.0589 34.7743 43.915C34.7676 43.8837 34.7281 43.8599 34.6826 43.8084C34.5939 43.8144 34.4888 43.8218 34.3434 43.8315C34.3195 44.0321 34.2807 44.2118 34.2785 44.3915C34.271 45.0864 34.2748 45.7806 34.2762 46.4755C34.2762 46.7857 34.2703 47.0967 34.2874 47.4053C34.3053 47.726 34.4477 47.7923 34.7974 47.6216L34.7967 47.6223Z" fill="#F1E737"/>
<path d="M30.1208 45.7531C30.0917 46.3205 30.082 46.8775 30.0291 47.43C29.9888 47.8543 29.7383 48.1645 29.3528 48.3389C28.8398 48.5716 28.3186 48.5582 27.8176 48.2957C27.4209 48.0884 27.2143 47.7253 27.2046 47.2995C27.18 46.2728 27.1778 45.2438 27.2039 44.2171C27.2196 43.593 27.6871 43.1374 28.3067 43.0606C28.6422 43.0188 28.9785 43.0174 29.2947 43.1523C29.6966 43.3231 29.9784 43.6236 30.0254 44.062C30.0858 44.6257 30.0925 45.1953 30.1216 45.7531H30.1208ZM28.602 47.7395C28.8629 47.7126 28.9017 47.5202 28.9025 47.3115C28.9062 46.272 28.9092 45.2334 28.9025 44.194C28.9017 44.068 28.8406 43.9419 28.81 43.8279C28.4357 43.8115 28.4074 43.8279 28.3738 44.106C28.3529 44.2767 28.3395 44.4497 28.3388 44.622C28.335 45.3765 28.335 46.1311 28.3388 46.8864C28.3395 47.0706 28.3641 47.2548 28.3723 47.4397C28.379 47.5933 28.4446 47.6977 28.6027 47.7402L28.602 47.7395Z" fill="#F1E737"/>
<path d="M43.4498 48.3545V43.15C44.0195 43.1612 44.5832 43.1291 45.1484 43.1768C45.2341 43.1843 45.3191 43.2037 45.4049 43.2119C46.023 43.2753 46.3392 43.6019 46.3518 44.2282C46.3675 45.0081 46.3668 45.7888 46.3668 46.5695C46.3668 46.9013 46.36 47.2338 46.3436 47.5656C46.3228 47.9839 46.149 48.1897 45.7412 48.3001C45.6465 48.3255 45.548 48.3508 45.4504 48.3515C44.795 48.356 44.1395 48.3538 43.4498 48.3538V48.3545ZM44.6399 47.5992C45.082 47.5791 45.1618 47.5202 45.1648 47.1623C45.173 46.2228 45.1745 45.284 45.1655 44.3445C45.1626 43.9754 45.0559 43.9061 44.6399 43.9531V47.5992Z" fill="#F1E737"/>
<path d="M49.9241 45.7621C49.9241 46.2087 49.9316 46.6546 49.9226 47.1012C49.9115 47.6597 49.7236 48.128 49.1718 48.3584C48.5812 48.6052 48.0034 48.556 47.4852 48.1727C47.1802 47.9468 47.043 47.6008 47.0378 47.2302C47.0236 46.2631 47.008 45.2953 47.0385 44.3297C47.0684 43.4059 47.77 42.9398 48.708 43.0494C48.8295 43.0636 48.9526 43.0882 49.0689 43.1277C49.6497 43.3261 49.8995 43.7667 49.9204 44.3491C49.9376 44.8196 49.9241 45.2916 49.9241 45.7628C49.9241 45.7628 49.9241 45.7628 49.9249 45.7628L49.9241 45.7621ZM48.2904 43.8286C48.2621 43.9696 48.2144 44.0986 48.2136 44.2275C48.2077 45.2565 48.2077 46.2848 48.2151 47.3137C48.2159 47.4405 48.2688 47.5672 48.2942 47.6813C48.6737 47.7149 48.7326 47.6865 48.7356 47.3831C48.746 46.293 48.746 45.2021 48.7371 44.1112C48.7348 43.8324 48.6856 43.8115 48.2904 43.8286Z" fill="#F1E737"/>
<path d="M30.7733 43.1658H31.9014V47.4032C32.1803 47.4159 32.4323 47.4271 32.7074 47.4397V48.3435H30.774V43.1658H30.7733Z" fill="#F1E737"/>
<path d="M76.8959 48.3508H75.7708C75.7082 48.0936 75.685 43.8263 75.7477 43.1612C76.1175 43.1411 76.4941 43.159 76.8959 43.15V48.3508Z" fill="#F1E737"/>
<path d="M61.5024 43.1635H62.6566V48.3426H61.5024V43.1635Z" fill="#F1E737"/>
<path d="M88.0671 43.1694V48.3456H86.9024V43.1694H88.0671Z" fill="#F1E737"/>
<path d="M84.5716 47.4829H85.2158C85.3522 48.2524 85.1531 48.84 84.6051 49.0174C84.4239 48.7706 84.8318 48.6468 84.717 48.4015C84.6849 48.3829 84.6342 48.3546 84.5716 48.3195V47.4829Z" fill="#F1E737"/>
<path d="M73.428 45.196V43.959C73.8247 43.8815 73.9686 43.9829 73.9895 44.3542C73.997 44.4892 73.9947 44.6256 73.988 44.7606C73.9679 45.158 73.8754 45.2333 73.428 45.1968V45.196ZM73.8441 44.1544C73.7531 44.1119 73.6786 44.0776 73.5995 44.0403C73.5332 44.3915 73.5376 44.8061 73.6085 45.0715C73.7643 45.0894 73.8411 45.0149 73.8434 44.862C73.8463 44.6383 73.8441 44.4154 73.8441 44.1544Z" fill="#181410"/>
<path d="M37.8605 45.1999V43.9621C38.2251 43.8853 38.3862 43.9889 38.4175 44.3297C38.4309 44.4766 38.4272 44.6257 38.4168 44.7734C38.3899 45.1395 38.287 45.2207 37.8605 45.1999ZM38.0186 44.0411C37.9977 44.399 37.9776 44.7316 38.0328 45.1022C38.3437 44.9359 38.2937 44.6772 38.2908 44.443C38.2885 44.2708 38.2483 44.1068 38.0186 44.0404V44.0411Z" fill="#181410"/>
<path d="M41.4977 43.7816C41.5924 44.7219 41.6879 45.6621 41.7848 46.6232H41.1324C41.1689 45.6673 41.3404 44.7286 41.4977 43.7816ZM41.4769 45.0507C41.4605 45.0507 41.4441 45.0492 41.4277 45.0485C41.374 45.5167 41.3195 45.9857 41.2629 46.4771H41.6208C41.5723 45.9932 41.5246 45.5219 41.4769 45.0507Z" fill="#181410"/>
<path d="M34.7967 47.6224C34.447 47.7931 34.3046 47.7268 34.2867 47.4061C34.2696 47.0967 34.2763 46.7865 34.2755 46.4763C34.274 45.7814 34.271 45.0865 34.2778 44.3923C34.28 44.2126 34.318 44.0329 34.3426 43.8323C34.488 43.8226 34.5932 43.8152 34.6819 43.8092C34.7274 43.8607 34.7669 43.8845 34.7736 43.9158C34.8042 44.0597 34.8452 44.2051 34.8459 44.3505C34.8526 45.2684 34.8519 46.1863 34.8467 47.1049C34.8459 47.2764 34.8139 47.4472 34.796 47.6231L34.7967 47.6224ZM34.6424 43.9524C34.3933 44.0083 34.4246 44.1708 34.4239 44.3125C34.4224 45.0306 34.4232 45.7479 34.4232 46.4659C34.4232 46.7627 34.4261 47.0602 34.4246 47.3569C34.4246 47.4755 34.4411 47.5776 34.6252 47.609C34.6551 47.4837 34.7102 47.3592 34.711 47.2339C34.7184 46.2437 34.7169 45.2542 34.7125 44.264C34.7125 44.1634 34.6677 44.0627 34.6416 43.9524H34.6424Z" fill="#181410"/>
<path d="M28.602 47.7394C28.4439 47.6969 28.379 47.5918 28.3716 47.4389C28.3634 47.254 28.3387 47.0698 28.338 46.8856C28.3343 46.1311 28.3343 45.3765 28.338 44.6211C28.3387 44.4489 28.3522 44.2759 28.373 44.1052C28.4073 43.827 28.4357 43.8106 28.8092 43.827C28.8391 43.9411 28.901 44.0671 28.9017 44.1932C28.9084 45.2326 28.9054 46.2712 28.9017 47.3106C28.901 47.5194 28.8622 47.7118 28.6012 47.7386L28.602 47.7394ZM28.5736 47.6119C28.7608 47.5679 28.7578 47.4441 28.757 47.3189C28.7556 46.2407 28.7556 45.1625 28.7533 44.0835C28.7533 44.05 28.7324 44.0157 28.719 43.9769H28.5602C28.3902 44.5764 28.4745 45.1834 28.47 45.7828C28.4655 46.3831 28.4014 46.99 28.5729 47.6126L28.5736 47.6119Z" fill="#181410"/>
<path d="M44.6398 47.5992V43.9531C45.0559 43.9061 45.1625 43.9754 45.1655 44.3445C45.1737 45.284 45.1722 46.2228 45.1648 47.1623C45.1618 47.5202 45.0827 47.5791 44.6398 47.5992ZM44.8039 47.503C44.8971 47.4232 44.9769 47.3882 44.9933 47.3338C45.0358 47.1951 45.0701 47.0482 45.0716 46.9043C45.079 46.1616 45.0798 45.4182 45.0716 44.6748C45.0701 44.5063 45.0335 44.3348 44.991 44.1708C44.9776 44.1178 44.8933 44.0835 44.8046 44.0105V47.503H44.8039Z" fill="#181410"/>
<path d="M48.2905 43.8286C48.6856 43.8114 48.7349 43.8315 48.7371 44.1112C48.746 45.2013 48.7453 46.2921 48.7356 47.383C48.7326 47.6865 48.6737 47.7156 48.2942 47.6813C48.2688 47.5672 48.2159 47.4404 48.2151 47.3137C48.2077 46.2847 48.2077 45.2564 48.2137 44.2275C48.2137 44.0985 48.2621 43.9695 48.2905 43.8286ZM48.5641 43.971C48.3218 43.9971 48.3591 44.1671 48.3591 44.305C48.3576 45.3198 48.3591 46.3354 48.3613 47.3502C48.3613 47.4091 48.3755 47.4673 48.3844 47.5336H48.5641V43.9702V43.971Z" fill="#181410"/>
<path d="M73.8441 44.1544C73.8441 44.4153 73.8463 44.639 73.8433 44.862C73.8411 45.0141 73.7643 45.0886 73.6085 45.0715C73.5376 44.8068 73.5324 44.3922 73.5995 44.0403C73.6786 44.0768 73.7531 44.1119 73.8441 44.1544Z" fill="#442977"/>
<path d="M38.0186 44.0411C38.2483 44.1075 38.2885 44.2708 38.2908 44.4438C38.2938 44.6772 38.343 44.9366 38.0328 45.1029C37.9776 44.7323 37.9977 44.399 38.0186 44.0419V44.0411Z" fill="#442977"/>
<path d="M41.4769 45.0507C41.5246 45.5219 41.5716 45.9932 41.6208 46.4771H41.2629C41.3195 45.985 41.374 45.5167 41.4277 45.0485C41.4441 45.0485 41.4605 45.05 41.4769 45.0507Z" fill="#442977"/>
<path d="M34.6424 43.9524C34.6685 44.0627 34.7125 44.1634 34.7132 44.2641C34.7184 45.2543 34.7192 46.2437 34.7117 47.2339C34.711 47.3592 34.6558 47.4837 34.626 47.609C34.4418 47.5784 34.4247 47.4763 34.4254 47.357C34.4269 47.0602 34.4239 46.7627 34.4239 46.4659C34.4239 45.7479 34.4232 45.0306 34.4246 44.3125C34.4246 44.1709 34.3941 44.0076 34.6431 43.9524H34.6424Z" fill="#442977"/>
<path d="M28.5737 47.6119C28.4022 46.9893 28.4663 46.3831 28.4708 45.7821C28.4753 45.1834 28.391 44.5764 28.561 43.9762H28.7198C28.7325 44.0157 28.7534 44.0493 28.7541 44.0828C28.7564 45.161 28.7564 46.2392 28.7578 47.3181C28.7578 47.4434 28.7616 47.5672 28.5744 47.6112L28.5737 47.6119Z" fill="#442977"/>
<path d="M44.8038 47.5031V44.0105C44.8933 44.0843 44.9768 44.1186 44.9903 44.1708C45.0328 44.3349 45.0693 44.5063 45.0708 44.6749C45.079 45.4175 45.0782 46.1609 45.0708 46.9043C45.0693 47.0482 45.035 47.1951 44.9925 47.3338C44.9761 47.3882 44.8963 47.4233 44.8031 47.5031H44.8038Z" fill="#442977"/>
<path d="M48.5641 43.9709V47.5343H48.3844C48.3755 47.468 48.3613 47.4091 48.3613 47.3509C48.3591 46.3361 48.3576 45.3205 48.3591 44.3057C48.3591 44.1678 48.3218 43.9978 48.5641 43.9717V43.9709Z" fill="#442977"/>
<path d="M54.0199 10.419L53.7358 10.2437L66.1879 0.507202L74.4122 10.2951C73.7844 10.7269 73.1678 11.1519 72.5407 11.5829C71.5997 11.1556 70.6654 10.7306 69.7177 10.3004L64.7481 12.5775C63.2188 11.9005 61.6939 11.2249 60.1594 10.5449C59.2617 11.216 58.3796 11.8759 57.4766 12.5514C56.3376 11.8494 55.198 11.1461 54.0199 10.419Z" fill="white"/>
</g>
</g>
<defs>
<clipPath id="clip0_61_12">
<rect width="125" height="50" fill="white"/>
</clipPath>
<clipPath id="clip1_61_12">
<rect width="123.751" height="50" fill="white" transform="translate(0.964294 0.285034)"/>
</clipPath>
</defs>
</svg>
