<svg width="125" height="50" viewBox="0 0 125 50" fill="none" xmlns="http://www.w3.org/2000/svg">
<path fill-rule="evenodd" clip-rule="evenodd" d="M113.612 15.6636C113.822 15.6636 114.229 15.7618 114.524 15.8881C114.804 16.0003 115.197 16.2389 115.365 16.4073C115.547 16.5756 115.786 16.8843 115.898 17.0948C116.01 17.3193 116.094 17.7964 116.094 18.1893C116.094 18.5681 115.982 19.1294 115.856 19.41C115.716 19.6907 115.379 20.0976 115.113 20.294C114.846 20.4905 114.383 20.7009 114.103 20.7571C113.808 20.8132 113.318 20.7851 113.009 20.715C112.701 20.6448 112.224 20.3642 111.943 20.1256C111.677 19.8731 111.354 19.41 111.228 19.1013C111.088 18.7272 111.046 18.3156 111.102 17.8665C111.158 17.3895 111.312 17.0667 111.649 16.6879C111.887 16.4073 112.35 16.0705 112.658 15.9302C112.967 15.7899 113.388 15.6636 113.612 15.6636V15.6636ZM111.957 17.0527C111.817 17.2492 111.649 17.5719 111.593 17.7683C111.537 17.9648 111.551 18.3717 111.635 18.6804C111.705 18.9891 111.915 19.396 112.069 19.5644C112.238 19.7468 112.546 19.9853 112.771 20.0976C112.981 20.2098 113.388 20.294 113.682 20.294C113.991 20.294 114.397 20.1677 114.692 19.9853C114.958 19.8029 115.295 19.4381 115.421 19.1715C115.561 18.9049 115.674 18.4559 115.674 18.1893C115.674 17.9227 115.547 17.4877 115.393 17.2492C115.239 16.9966 114.902 16.6598 114.664 16.5055C114.397 16.3511 113.963 16.2248 113.64 16.2248C113.332 16.2248 112.883 16.3371 112.644 16.4493C112.406 16.5756 112.097 16.8422 111.957 17.0527V17.0527ZM27.2512 21.0096C27.714 21.0096 28.4993 21.0658 29.0042 21.1499C29.5091 21.2201 30.2383 21.4306 30.617 21.613C31.0097 21.7814 31.5706 22.1462 31.8792 22.4268C32.1877 22.6934 32.6084 23.2266 32.8188 23.6055C33.0292 23.9843 33.2956 24.7 33.4078 25.2051C33.534 25.7243 33.6322 26.7486 33.6322 27.5905C33.6322 28.4043 33.534 29.4567 33.4218 29.9478C33.3096 30.4249 33.0572 31.1124 32.8749 31.4913C32.6926 31.8561 32.2859 32.3893 31.9914 32.6699C31.6969 32.9506 31.1078 33.3435 30.6871 33.5399C30.2664 33.7363 29.481 33.9608 28.9341 34.0591C28.3731 34.1573 27.4475 34.1853 26.7603 34.1433C26.1012 34.1012 25.1616 33.9328 24.6567 33.7784C24.1518 33.6101 23.4927 33.2873 23.1842 33.0488C22.8756 32.8102 22.4129 32.3332 22.1604 31.9683C21.908 31.6035 21.5994 31.0002 21.4873 30.6073C21.3751 30.2284 21.2208 29.3304 21.1366 28.6428C21.0525 27.815 21.0525 26.9731 21.1507 26.2154C21.2208 25.5839 21.4171 24.728 21.5574 24.3351C21.7116 23.9142 22.1324 23.2547 22.525 22.8197C22.9878 22.3005 23.4787 21.9217 24.0397 21.6691C24.4884 21.4586 25.2177 21.2341 25.6384 21.164C26.0591 21.0798 26.7884 21.0237 27.2512 21.0096V21.0096ZM24.9372 24.3071C24.7409 24.5316 24.4884 24.9666 24.3762 25.2753C24.236 25.6494 24.1659 26.3978 24.1659 27.5203C24.1659 28.7551 24.236 29.3865 24.4043 29.9057C24.5445 30.2986 24.825 30.7757 25.0354 30.9721C25.2598 31.1826 25.6524 31.4632 25.9189 31.5895C26.2274 31.7438 26.7463 31.8421 27.3213 31.8421C28.0085 31.8421 28.4012 31.7719 28.9341 31.5053C29.3548 31.3089 29.7615 30.9721 29.9579 30.6774C30.1402 30.4108 30.3505 29.9338 30.4487 29.6251C30.5329 29.3164 30.603 28.4043 30.603 27.5905C30.603 26.7766 30.5329 25.8646 30.4487 25.5559C30.3505 25.2472 30.1402 24.7701 29.9579 24.5035C29.7755 24.2369 29.3548 23.8721 29.0042 23.6897C28.5274 23.4511 28.1347 23.381 27.3914 23.381C26.7463 23.381 26.2134 23.4792 25.8488 23.6476C25.5402 23.7739 25.1335 24.0826 24.9372 24.3071V24.3071ZM52.4947 21.0096C52.9575 21.0096 53.7429 21.0658 54.2477 21.1499C54.7526 21.2201 55.5239 21.4586 55.9867 21.6691C56.4776 21.8936 57.0526 22.3146 57.4172 22.7215C57.7538 23.0863 58.1465 23.6476 58.2867 23.9843C58.441 24.3071 58.6373 24.9245 58.7355 25.3454C58.8336 25.7664 58.9178 26.7766 58.9178 27.5905C58.9178 28.4043 58.8336 29.4146 58.7355 29.8355C58.6373 30.2565 58.441 30.8739 58.2867 31.2106C58.1465 31.5334 57.7678 32.0946 57.4453 32.4595C57.0806 32.8383 56.4916 33.2733 56.0008 33.4978C55.538 33.7223 54.7246 33.9749 54.1776 34.0591C53.6307 34.1573 52.663 34.1853 52.0039 34.1433C51.3447 34.1012 50.4051 33.9328 49.9002 33.7784C49.3954 33.6101 48.7362 33.2873 48.4277 33.0488C48.1192 32.8102 47.6984 32.3893 47.4881 32.1087C47.2777 31.814 46.9692 31.2106 46.8149 30.7476C46.6466 30.2846 46.4643 29.3304 46.4082 28.6428C46.3521 27.9553 46.3521 26.8749 46.4082 26.2575C46.4643 25.6401 46.6466 24.7841 46.8009 24.3632C46.9552 23.9142 47.3619 23.2687 47.7686 22.8197C48.2314 22.3005 48.7222 21.9217 49.2832 21.6691C49.732 21.4586 50.4612 21.2341 50.8819 21.164C51.3027 21.0798 52.0319 21.0237 52.4947 21.0096V21.0096ZM50.2929 24.1668C50.1667 24.3071 49.9143 24.7561 49.732 25.1349C49.4515 25.7523 49.4094 26.061 49.4094 27.5905C49.4234 29.0919 49.4655 29.4427 49.732 30.046C49.9002 30.4389 50.1807 30.8879 50.349 31.0563C50.5313 31.2247 50.924 31.4632 51.2325 31.6035C51.5411 31.7298 52.1722 31.8421 52.635 31.8421C53.1679 31.8421 53.7148 31.7438 54.1075 31.5614C54.4581 31.4211 54.9069 31.0703 55.1172 30.8037C55.3276 30.5512 55.5941 29.9478 55.7063 29.4847C55.8325 29.0217 55.9306 28.1658 55.9306 27.5905C55.9306 27.0152 55.8325 26.1592 55.7063 25.6962C55.5941 25.2332 55.3276 24.6438 55.1172 24.3772C54.9069 24.1106 54.4861 23.7739 54.1776 23.6336C53.813 23.4792 53.2801 23.381 52.635 23.381C51.9805 23.381 51.4663 23.4698 51.0923 23.6476C50.7838 23.7879 50.4191 24.0264 50.2929 24.1668V24.1668ZM18.3458 21.2762V23.5213L15.7233 23.5634C13.3673 23.5915 13.0307 23.6195 12.5258 23.8861C12.1051 24.1106 11.8667 24.3772 11.5441 24.9946C11.1374 25.7944 11.1234 25.8786 11.1234 27.7168C11.1234 29.4707 11.1514 29.6812 11.474 30.3126C11.7545 30.8739 11.9508 31.0703 12.4557 31.2948C13.0026 31.5334 13.4514 31.5755 18.3458 31.6597V33.9047L11.8106 33.8346L10.913 33.3996C10.3661 33.133 9.79109 32.712 9.46853 32.3472C9.17402 32.0104 8.79537 31.4772 8.64111 31.1685C8.48684 30.8598 8.26245 30.1302 8.15026 29.5549C8.01002 28.8393 7.96794 28.0816 8.02404 27.1695C8.06611 26.4399 8.19233 25.5278 8.2905 25.1349C8.40269 24.7561 8.66915 24.0966 8.89354 23.6756C9.11793 23.2687 9.49658 22.7636 9.72097 22.5671C9.95938 22.3707 10.4642 22.062 10.8429 21.8936C11.2356 21.7112 11.8246 21.5007 12.1752 21.4306C12.5258 21.3604 14.0544 21.3043 18.3458 21.2762V21.2762ZM36.423 21.2762H39.2419V25.7664C39.2419 29.4707 39.2839 30.3266 39.4522 30.6774C39.5784 30.93 39.901 31.2106 40.2656 31.379C40.7705 31.6176 41.1632 31.6597 45.132 31.6597V33.9047L42.3693 33.8626C39.7748 33.8205 39.5504 33.8065 38.8352 33.4838C38.4144 33.2873 37.8394 32.8664 37.5449 32.5436C37.2364 32.2069 36.8858 31.7017 36.7596 31.4211C36.5352 30.9581 36.5072 30.3126 36.4651 26.0891L36.423 21.2762ZM61.961 21.2762H65.6774C67.8933 21.2762 69.6884 21.3324 70.1371 21.4306C70.5298 21.5148 71.1048 21.6972 71.3993 21.8515C71.6798 21.9918 72.0725 22.3146 72.2548 22.5671C72.4371 22.8197 72.6615 23.2828 72.7597 23.5915C72.8718 23.8861 72.942 24.5877 72.942 25.1349C72.942 25.8646 72.8578 26.2996 72.6054 26.8889C72.395 27.3239 72.0444 27.815 71.778 28.0255C71.5115 28.2359 71.1188 28.4604 70.8944 28.5166C70.6841 28.5867 70.5298 28.699 70.5579 28.7832C70.5999 28.8533 71.2591 29.9759 72.0444 31.2668C72.8298 32.5577 73.4609 33.6802 73.4609 33.7644C73.4609 33.8486 72.8718 33.8907 70.4457 33.8907L67.711 28.9936H64.7659V33.9047H61.961V21.2762ZM64.7659 26.6083L69.4219 26.5381C70.0109 25.8506 70.0951 25.598 70.0951 25.0928C70.1091 24.5596 70.039 24.3632 69.7445 24.0826C69.3798 23.7318 69.3097 23.7177 67.0799 23.6756L64.7939 23.6336L64.7659 26.6083ZM86.6436 21.2762V23.6616H83.9089C81.7492 23.6616 81.062 23.7037 80.6412 23.8721C80.3608 23.9984 80.0102 24.2088 79.8559 24.3351C79.7156 24.4614 79.5193 24.728 79.4211 24.9245C79.323 25.1209 79.1968 25.5419 79.0705 26.4679H86.6436V28.8533H79.0705V33.9047H76.2657L76.3218 29.583C76.3639 25.6822 76.3919 25.1911 76.6584 24.3632C76.8267 23.8581 77.1633 23.1986 77.4297 22.8899C77.7102 22.5531 78.2291 22.1743 78.734 21.9498C79.1827 21.7393 79.912 21.5007 80.3327 21.4306C80.7534 21.3604 82.3522 21.3043 86.6436 21.2762V21.2762ZM89.3082 21.2762H91.9728L92.0149 25.7243C92.0429 29.611 92.085 30.2425 92.2953 30.6353C92.4216 30.9019 92.7862 31.2247 93.1228 31.4071C93.5996 31.6597 93.9642 31.7158 94.8477 31.7298C95.7874 31.7298 96.0678 31.6737 96.5727 31.379C96.9233 31.1685 97.2599 30.8318 97.3721 30.5652C97.5404 30.2004 97.5825 29.2743 97.5825 21.2762H100.387V25.5138C100.387 27.8571 100.317 30.1162 100.247 30.5371C100.163 30.9581 99.9245 31.5895 99.7141 31.9263C99.5038 32.277 99.055 32.7682 98.7044 33.0348C98.3538 33.2873 97.7227 33.6101 97.302 33.7363C96.741 33.9047 96.0258 33.9749 94.7075 33.9608C93.1508 33.9608 92.7581 33.9047 92.0429 33.6241C91.4539 33.3996 90.9771 33.0769 90.4582 32.5577C89.9253 31.9964 89.6728 31.6035 89.5186 31.0563C89.3503 30.467 89.3082 29.4146 89.3082 25.7944V21.2762ZM103.024 21.2762H105.857L105.927 30.5231L106.277 30.9019C106.474 31.1124 106.824 31.365 107.077 31.4772C107.399 31.6035 108.171 31.6597 111.747 31.6597V33.9047L108.97 33.8767C106.291 33.8346 106.179 33.8205 105.436 33.4697C105.015 33.2593 104.44 32.8523 104.174 32.5577C103.921 32.263 103.571 31.7298 103.417 31.379C103.136 30.7897 103.122 30.4529 103.066 26.0189L103.024 21.2762ZM112.588 16.7861H113.332C113.752 16.7861 114.201 16.8703 114.383 16.9966C114.589 17.1369 114.692 17.3474 114.692 17.628C114.692 17.8806 114.594 18.091 114.454 18.1752C114.229 18.2875 114.243 18.3577 114.664 18.9049C115.127 19.5082 115.127 19.5223 114.804 19.5644C114.608 19.5924 114.411 19.5082 114.299 19.3539C114.201 19.2136 113.991 18.961 113.851 18.7786C113.696 18.6102 113.472 18.4699 113.36 18.4699C113.205 18.4699 113.149 18.6243 113.149 19.0312C113.149 19.4942 113.107 19.5924 112.869 19.5924C112.602 19.5924 112.588 19.4942 112.588 18.1893V16.7861ZM113.472 18.049C113.64 18.049 113.879 17.9788 113.991 17.9086C114.159 17.8104 114.173 17.7122 114.047 17.5298C113.963 17.3895 113.724 17.2492 113.528 17.2351C113.219 17.193 113.163 17.2351 113.163 17.614C113.149 17.9788 113.205 18.049 113.472 18.049Z" fill="#E6022C"/>
</svg>
