<svg width="144" height="34" viewBox="0 0 144 34" fill="none" xmlns="http://www.w3.org/2000/svg">
<g clip-path="url(#clip0_2390_3271)">
<path d="M2.17612 4.41887L15.0172 29.1027C15.1048 29.2709 15.2431 29.3357 15.4322 29.2971L22.5779 27.7314C22.632 27.7198 22.6882 27.7204 22.7427 27.7331C22.7971 27.7458 22.8485 27.7703 22.8931 27.805L25.0736 29.5284C25.1022 29.5511 25.1237 29.5816 25.1358 29.6162C25.1478 29.6508 25.1498 29.6882 25.1416 29.7239C25.1334 29.7596 25.1152 29.7922 25.0892 29.8181C25.0633 29.844 25.0305 29.8619 24.9948 29.8699L14.208 32.2868C14.1621 32.2957 14.1147 32.2897 14.073 32.2698C14.0313 32.25 13.9976 32.2171 13.9769 32.1765L0.0534505 5.28057C-0.0271126 5.12294 -0.0166043 4.97056 0.0849753 4.82345L1.26715 3.13163C1.37223 2.981 1.51585 2.89693 1.69799 2.87943C9.77181 2.04577 17.8421 1.23839 25.909 0.457278C26.4764 0.404738 27.1595 0.105252 27.8635 0.00542361C28.0807 -0.0225984 28.2436 0.0579649 28.3521 0.247113L31.7779 6.22106C31.8655 6.37517 31.8234 6.48202 31.6518 6.54155C31.1334 6.71668 30.7532 6.59059 30.5116 6.16326C29.4782 4.32081 28.6184 2.83564 27.9318 1.70776C27.8302 1.54313 27.6831 1.47132 27.4905 1.49234L2.42306 3.96179C2.37222 3.96723 2.32346 3.98497 2.28101 4.01348C2.23855 4.04199 2.20367 4.08038 2.17936 4.12537C2.15506 4.17038 2.14206 4.22061 2.1415 4.27173C2.14093 4.32285 2.15281 4.37337 2.17612 4.41887Z" fill="#00AEF0"/>
<path d="M20.7261 3.37871C20.7555 3.361 20.7906 3.3555 20.824 3.36336C20.8574 3.37123 20.8864 3.39182 20.9048 3.42073L21.5878 4.49785C21.7219 4.7089 21.8176 4.93242 21.8541 5.1195C21.8905 5.30656 21.8647 5.44197 21.7822 5.49612L21.7192 5.53817C21.6353 5.58986 21.502 5.55591 21.3484 5.44367C21.1948 5.33144 21.0335 5.15009 20.8995 4.93918L20.2165 3.86209C20.2067 3.84766 20.1998 3.83142 20.1963 3.81428C20.1929 3.79718 20.1929 3.77955 20.1963 3.76242C20.1997 3.74531 20.2065 3.72904 20.2163 3.71458C20.2261 3.70012 20.2387 3.68774 20.2533 3.6782L20.7261 3.37871Z" fill="#00AEF0"/>
<path d="M19.2244 5.74343L17.9319 4.15142C17.6867 3.84669 17.7585 3.69434 18.1473 3.69434H18.4941C18.6762 3.69434 18.8111 3.77313 18.8987 3.93076L19.7341 5.39665C19.7701 5.46413 19.7799 5.54252 19.7616 5.61679C19.7433 5.69104 19.6982 5.75593 19.635 5.79895C19.5718 5.84198 19.4948 5.8601 19.4191 5.84984C19.3433 5.83962 19.274 5.80169 19.2244 5.74343Z" fill="#00AEF0"/>
<path d="M16.084 3.95775L16.0323 3.99384C15.8633 4.11172 15.8219 4.34425 15.9398 4.51322L16.8717 5.84905C16.9896 6.01802 17.2221 6.05946 17.3911 5.94158L17.4428 5.9055C17.6118 5.78762 17.6532 5.55509 17.5353 5.38612L16.6034 4.05026C16.4855 3.88129 16.253 3.83987 16.084 3.95775Z" fill="#00AEF0"/>
<path d="M13.8499 4.06629L13.762 4.12383C13.5993 4.23028 13.5537 4.44846 13.6602 4.61116L14.6268 6.08837C14.7333 6.25106 14.9515 6.29662 15.1142 6.19017L15.2021 6.13263C15.3647 6.02616 15.4103 5.808 15.3039 5.64531L14.3372 4.1681C14.2308 4.00541 14.0126 3.95984 13.8499 4.06629Z" fill="#00AEF0"/>
<path d="M12.8145 6.43662C12.8004 6.4467 12.7844 6.45387 12.7675 6.45776C12.7506 6.46162 12.7331 6.46211 12.716 6.45917C12.6989 6.45623 12.6825 6.44995 12.6679 6.44068C12.6532 6.43138 12.6406 6.41931 12.6306 6.40508L11.6954 5.06528C11.5879 4.91057 11.5182 4.73929 11.5015 4.58875C11.4847 4.43822 11.5223 4.32057 11.6061 4.26141L11.6481 4.22988C11.7328 4.17222 11.8565 4.17795 11.9923 4.24586C12.1281 4.31374 12.2649 4.4383 12.3731 4.59241L13.3136 5.93222C13.3324 5.96033 13.3395 5.9946 13.3337 6.02786C13.3278 6.06113 13.3093 6.09085 13.2821 6.11086L12.8145 6.43662Z" fill="#00AEF0"/>
<path d="M24.1231 7.75535L13.3153 8.79043C13.2591 8.7961 13.205 8.81545 13.1579 8.84682C13.1109 8.87815 13.0722 8.92054 13.0452 8.97028C13.0183 9.02005 13.0039 9.0756 13.0033 9.13217C13.0028 9.18876 13.0161 9.24457 13.0421 9.29483L18.4381 19.6822C18.5117 19.8188 18.6203 19.9204 18.7639 19.987L19.6833 20.402C19.7354 20.4249 19.7791 20.4634 19.8082 20.5122C19.8374 20.5611 19.8505 20.6178 19.8459 20.6745C19.8413 20.7312 19.8191 20.785 19.7824 20.8285C19.7457 20.8719 19.6964 20.9028 19.6413 20.9169L18.5957 21.1796C18.347 21.2427 18.1667 21.1621 18.0546 20.9379L12.2593 9.58381C12.2109 9.48877 12.1853 9.3837 12.1848 9.27703C12.1843 9.17035 12.2088 9.06506 12.2563 8.96956C12.3038 8.87403 12.373 8.79097 12.4584 8.72704C12.5437 8.66307 12.6429 8.62002 12.7479 8.60127C14.7725 8.22298 16.7148 7.98656 18.5747 7.89198C20.4294 7.7974 22.4207 7.22995 24.4751 7.40333C24.6642 7.41736 24.8096 7.50491 24.9112 7.66604L25.3946 8.40687C25.4128 8.43428 25.4201 8.46752 25.4149 8.50003C25.4098 8.53255 25.3927 8.56195 25.3669 8.58243C25.3412 8.60291 25.3086 8.61296 25.2758 8.6106C25.243 8.60826 25.2122 8.59369 25.1897 8.56976L24.5066 7.89198C24.4578 7.84141 24.3978 7.80276 24.3313 7.77908C24.2648 7.75538 24.1935 7.74726 24.1231 7.75535Z" fill="#00AEF0"/>
<path d="M24.5013 16.7243C23.3401 26.2343 31.6627 28.1047 38.698 25.6721C38.9186 25.595 39.0289 25.6721 39.0289 25.9033V27.4585C39.0289 27.6722 38.9272 27.8052 38.7242 27.8578C32.3772 29.518 23.5871 29.0768 21.8847 21.1273C19.368 9.38958 30.1599 6.97792 38.677 9.16888C38.88 9.21793 38.9886 9.34753 39.0027 9.55771L39.092 11.1129C39.1061 11.3476 39.001 11.4282 38.7766 11.3546C33.6329 9.69955 25.3577 9.72584 24.5013 16.7243Z" fill="white"/>
<path d="M113.281 8.54883H111.106C110.981 8.54883 110.88 8.64997 110.88 8.77474V28.2885C110.88 28.4133 110.981 28.5145 111.106 28.5145H113.281C113.406 28.5145 113.507 28.4133 113.507 28.2885V8.77474C113.507 8.64997 113.406 8.54883 113.281 8.54883Z" fill="white"/>
<path d="M133.388 14.4388C141.096 12.0587 146.471 17.9853 142.84 25.1572C140.728 29.3291 134.67 28.9086 130.861 27.8894C130.672 27.8403 130.577 27.7177 130.577 27.5216L130.572 8.89047C130.572 8.66629 130.682 8.5542 130.903 8.5542H132.705C132.759 8.5542 132.812 8.56483 132.861 8.58548C132.911 8.60615 132.956 8.63642 132.993 8.67453C133.031 8.71266 133.06 8.75787 133.08 8.80758C133.1 8.85726 133.11 8.91046 133.11 8.96402L133.062 14.1971C133.059 14.4283 133.167 14.5089 133.388 14.4388ZM133.078 17.4967L133.068 24.8945C133.068 25.2503 133.209 25.5916 133.46 25.8438C133.711 26.0958 134.052 26.2382 134.408 26.2396L137.04 26.2448C137.571 26.2462 138.097 26.1393 138.588 25.9303C139.079 25.7214 139.525 25.4144 139.902 25.0269C140.278 24.6395 140.577 24.1791 140.781 23.6723C140.985 23.1654 141.09 22.622 141.091 22.073V20.3392C141.092 19.2323 140.669 18.17 139.913 17.3859C139.157 16.6017 138.131 16.1596 137.061 16.1569L134.429 16.1516C134.252 16.1509 134.076 16.1852 133.912 16.2525C133.748 16.3198 133.599 16.4188 133.474 16.5438C133.349 16.6687 133.249 16.8172 133.181 16.9808C133.113 17.1443 133.078 17.3196 133.078 17.4967Z" fill="white"/>
<path d="M54.7287 22.362C54.7287 23.984 54.0844 25.5396 52.9373 26.6865C51.7905 27.8334 50.2347 28.4778 48.6127 28.4778H47.0051C45.3831 28.4778 43.8276 27.8334 42.6805 26.6865C41.5337 25.5396 40.8894 23.984 40.8894 22.362V19.9766C40.8894 18.3546 41.5337 16.799 42.6805 15.6521C43.8276 14.5052 45.3831 13.8608 47.0051 13.8608H48.6127C50.2347 13.8608 51.7905 14.5052 52.9373 15.6521C54.0844 16.799 54.7287 18.3546 54.7287 19.9766V22.362ZM52.1142 19.9685C52.1151 19.442 52.0122 18.9205 51.8118 18.4338C51.6111 17.9471 51.3164 17.5046 50.9449 17.1317C50.5734 16.7588 50.1319 16.4627 49.6458 16.2604C49.1599 16.0581 48.6386 15.9535 48.1122 15.9526L47.4186 15.9514C46.3556 15.9495 45.335 16.3701 44.5819 17.1206C43.8287 17.8711 43.4048 18.89 43.4028 19.9532L43.3987 22.3596C43.3976 22.8861 43.5004 23.4076 43.7011 23.8943C43.9019 24.381 44.1962 24.8235 44.5677 25.1964C44.9395 25.5693 45.381 25.8654 45.8669 26.0677C46.353 26.27 46.874 26.3746 47.4005 26.3755L48.094 26.3767C49.1573 26.3786 50.1777 25.958 50.9308 25.2075C51.6839 24.457 52.1082 23.4381 52.1099 22.3749L52.1142 19.9685Z" fill="white"/>
<path d="M65.9546 18.5423C65.9546 14.7488 61.0367 15.9572 59.4185 17.8435C59.2958 17.9871 59.2344 18.1535 59.2344 18.3426L59.2975 28.2361C59.2975 28.4253 59.203 28.5199 59.0138 28.5199H57.0908C56.8702 28.5199 56.7599 28.4095 56.7599 28.1888V14.5439C56.7547 14.3089 56.8394 14.0808 56.9964 13.9059C57.1533 13.7311 57.3714 13.6226 57.6055 13.6025C57.8396 13.5824 58.0726 13.6523 58.2572 13.7979C58.4416 13.9434 58.564 14.1538 58.5988 14.3863L58.7984 15.5527C58.8021 15.5758 58.8119 15.5974 58.8269 15.6155C58.8416 15.6335 58.8612 15.6473 58.8831 15.6553C58.905 15.6633 58.9286 15.6654 58.9516 15.6612C58.9746 15.657 58.9963 15.6468 59.0138 15.6315C61.4448 13.6069 64.1157 13.3162 67.0266 14.7593C67.0977 14.794 67.1605 14.8428 67.2112 14.9025C67.2618 14.9622 67.2993 15.0316 67.3206 15.1061C67.4082 15.3933 67.5833 15.6105 67.8462 15.7576C67.9793 15.8346 68.1034 15.8206 68.2192 15.7156C70.1735 13.9537 72.3436 13.4177 74.7288 14.1078C77.1932 14.8224 77.7344 16.9555 77.7554 19.446C77.773 22.3603 77.7975 25.2746 77.8289 28.1888C77.8323 28.4095 77.7237 28.5199 77.5031 28.5199H75.575C75.3999 28.5199 75.312 28.4323 75.312 28.2572C75.2737 25.1467 75.2334 22.0415 75.1914 18.9416C75.1335 14.7225 70.2421 15.6368 68.6394 17.9906C68.595 18.0555 68.5711 18.1343 68.5711 18.2165L68.5869 28.2519C68.5869 28.4305 68.4994 28.5199 68.3243 28.5199H66.3224C66.0773 28.5199 65.9546 28.399 65.9546 28.1573C65.9512 24.9383 65.9512 21.7333 65.9546 18.5423Z" fill="white"/>
<path d="M83.0266 28.1309L83.0318 33.4428C83.0318 33.6637 82.9232 33.774 82.7061 33.774H80.799C80.5363 33.774 80.405 33.6426 80.405 33.3797V14.7172C80.405 14.521 80.5012 14.4072 80.6938 14.3757C85.8954 13.4719 93.3405 12.7153 93.5718 20.4021C93.7607 26.5705 89.3315 30.2327 83.3734 27.8945C83.3348 27.8789 83.2933 27.8731 83.2519 27.8775C83.2107 27.882 83.1712 27.8965 83.1367 27.9199C83.1024 27.9433 83.0744 27.9748 83.0551 28.0116C83.0361 28.0484 83.0263 28.0894 83.0266 28.1309ZM90.7188 23.1921C91.8273 17.4861 88.9534 14.6646 83.2893 16.3512C83.1176 16.4002 83.0318 16.5141 83.0318 16.6927V25.3357C83.0318 25.4653 83.0932 25.5529 83.2159 25.5984C85.9847 26.581 90.0515 26.644 90.7188 23.1921Z" fill="white"/>
<path d="M105.686 26.7647C102.944 28.5931 98.1101 29.6911 96.2395 26.4126C94.8367 23.9485 95.4988 17.1496 95.5146 14.0865C95.5146 13.8973 95.6091 13.8027 95.7983 13.8027L97.8105 13.8132C97.8938 13.8146 97.9733 13.8482 98.032 13.9071C98.0908 13.9659 98.1245 14.0453 98.1259 14.1285C98.1504 17.0673 98.1521 19.9938 98.1311 22.9081C98.0997 27.7104 103.128 26.6596 105.461 24.642C105.569 24.5474 105.623 24.4283 105.623 24.2847V14.0707C105.623 13.8921 105.711 13.8027 105.886 13.8027L107.909 13.8132C108 13.8146 108.087 13.8512 108.151 13.9151C108.215 13.979 108.251 14.0651 108.251 14.1548V28.1307C108.251 28.3969 108.117 28.5283 107.851 28.5248L106.674 28.509C106.478 28.509 106.363 28.411 106.328 28.2148L106.091 26.9328C106.083 26.8902 106.064 26.8503 106.037 26.8166C106.009 26.783 105.974 26.7567 105.934 26.74C105.894 26.7234 105.85 26.7169 105.807 26.7212C105.764 26.7255 105.722 26.7404 105.686 26.7647Z" fill="white"/>
<path d="M125.26 19.6297C126.468 14.7801 119.275 15.8152 116.958 16.6348C116.924 16.6464 116.888 16.6499 116.853 16.6449C116.817 16.6399 116.784 16.6266 116.755 16.6061C116.726 16.5856 116.701 16.5585 116.685 16.527C116.668 16.4954 116.659 16.4603 116.658 16.4247V14.8589C116.658 14.6663 116.751 14.5437 116.937 14.4911C119.816 13.682 125.443 13.1513 127.314 16.0726C128.606 18.0955 127.96 25.5195 127.949 28.1466C127.949 28.3357 127.858 28.4531 127.676 28.4986C126.825 28.6983 126.256 28.4093 125.969 27.6317C125.936 27.5429 125.884 27.4625 125.816 27.3963C125.749 27.3302 125.667 27.2799 125.578 27.2492C125.489 27.2185 125.395 27.2081 125.301 27.2188C125.208 27.2296 125.118 27.2611 125.039 27.3112C120.762 29.9593 113.401 28.4303 116.117 21.6578C117.121 19.1568 122.89 19.4826 124.965 19.8241C125.123 19.8486 125.221 19.7838 125.26 19.6297ZM124.829 21.8995C123.263 21.6367 120.405 21.3635 119.054 22.2305C117.793 23.0501 117.725 25.0939 119.065 25.9293C120.704 26.9539 123.583 26.0922 125.065 25.2043C125.24 25.0992 125.328 24.9433 125.328 24.7367V22.4879C125.328 22.1517 125.161 21.9555 124.829 21.8995Z" fill="white"/>
</g>
<defs>
<clipPath id="clip0_2390_3271">
<rect width="144" height="33.984" fill="white"/>
</clipPath>
</defs>
</svg>
