<svg width="159" height="35" viewBox="0 0 159 35" fill="none" xmlns="http://www.w3.org/2000/svg">
<path d="M41.6933 4.03315V11.4532H47.1699V15.1632H41.6933C39.7499 15.1632 37.9833 13.3965 37.9833 11.4532V3.85649C37.9833 1.91315 39.7499 0.146484 41.6933 0.146484H47.1699V3.85649H41.6933V4.03315Z" fill="white"/>
<path d="M49.1133 4.03373V11.4537C49.1133 13.3971 50.88 15.1637 52.8233 15.1637H56.5333C58.4767 15.1637 60.2433 13.3971 60.2433 11.4537V4.03373C60.2433 2.0904 58.4767 0.32373 56.5333 0.32373H52.8233C50.88 0.32373 49.1133 1.91373 49.1133 4.03373ZM56.5333 11.4537H52.8233V4.03373H56.5333V11.4537Z" fill="white"/>
<path d="M73.3166 0.32373V15.1637H69.6066L65.8966 7.74374V15.1637H62.0099V0.32373H65.8966L69.6066 7.74374V0.32373H73.3166Z" fill="white"/>
<path d="M95.7533 11.4537V15.1637H86.5667V0.32373H90.2766V11.4537H95.7533Z" fill="white"/>
<path d="M108.827 0.32373V11.6304C108.827 13.5737 107.06 15.3404 105.117 15.3404H101.407C99.4633 15.3404 97.6967 13.5737 97.6967 11.6304V0.32373H101.407V11.6304H105.117V0.32373H108.827Z" fill="white"/>
<path d="M121.9 4.03373H114.303V7.74374H110.593V4.03373C110.593 2.0904 112.36 0.32373 114.303 0.32373H118.013C120.133 0.32373 121.9 1.91373 121.9 4.03373Z" fill="white"/>
<path d="M121.9 7.74365V11.4537C121.9 13.397 120.133 15.1637 118.19 15.1637H114.48C112.537 15.1637 110.77 13.397 110.77 11.4537H118.367V7.74365H121.9Z" fill="white"/>
<path d="M127.553 0.32373H123.843V15.1637H127.553V0.32373Z" fill="white"/>
<path d="M140.803 0.32373L133.383 15.3404H129.673V15.1637V0.32373H133.383V7.74374L137.093 0.32373H140.803Z" fill="white"/>
<path d="M60.42 19.0488V33.8888H56.71L53 26.4688V33.8888H49.29V19.0488H53L56.71 26.4688V19.0488H60.42Z" fill="white"/>
<path d="M65.72 22.7588V30.3555H69.43V26.6455H73.14V34.0655H65.5433C63.6 34.0655 61.8333 32.2988 61.8333 30.3555V22.7588C61.8333 20.8155 63.6 19.0488 65.5433 19.0488H73.14V22.7588H65.72Z" fill="white"/>
<path d="M78.97 19.0488H75.26V33.8888H78.97V19.0488Z" fill="white"/>
<path d="M92.2201 19.0488V33.8888H88.5101L84.8001 26.4688V33.8888H81.0901V19.0488H84.8001L88.5101 26.4688V19.0488H92.2201Z" fill="white"/>
<path d="M127.553 26.4688V22.7588C127.553 20.8155 125.787 19.0488 123.843 19.0488H116.247V33.8888H119.957V30.1788H121.9L123.843 33.8888H127.553L125.61 29.6488C126.847 28.9422 127.553 27.7055 127.553 26.2922V26.4688ZM119.957 26.4688V22.7588H123.667V26.4688H119.957Z" fill="white"/>
<path d="M133.383 19.0488H129.673V33.8888H133.383V19.0488Z" fill="white"/>
<path d="M146.103 19.0488V33.8888H142.217L138.507 26.4688V33.8888H134.797V19.0488H138.507L142.217 26.4688V19.0488H146.103Z" fill="white"/>
<path d="M151.58 22.7588V30.3555H155.29V26.6455H159V34.0655H151.403C149.46 34.0655 147.693 32.2988 147.693 30.3555V22.7588C147.693 20.8155 149.46 19.0488 151.403 19.0488H159V22.7588H151.58Z" fill="white"/>
<path d="M79.1466 4.03315V11.4532H84.6233V15.1632H79.1466C77.2033 15.1632 75.4366 13.3965 75.4366 11.4532V3.85649C75.4366 1.91315 77.2033 0.146484 79.1466 0.146484H84.6233V3.85649H79.1466V4.03315Z" fill="white"/>
<path d="M145.043 4.03315V5.79982H148.753V9.50983H145.043V11.4532H150.52V15.1632H145.043C143.1 15.1632 141.333 13.3965 141.333 11.4532V3.85649C141.333 1.91315 143.1 0.146484 145.043 0.146484H150.52V3.85649H145.043V4.03315Z" fill="white"/>
<path d="M41.6934 22.7588V24.7022H45.4034V28.4122H41.6934V30.3555H47.17V34.0655H41.5167C39.5734 34.0655 37.8067 32.2988 37.8067 30.3555V22.7588C37.8067 20.8155 39.5734 19.0488 41.5167 19.0488H46.9934V22.7588H41.6934Z" fill="white"/>
<path d="M97.6967 22.7597V24.703H101.583V28.2364H97.6967V30.1797H103.173V33.8897H97.6967C95.7534 33.8897 93.9867 32.1231 93.9867 30.1797V22.583C93.9867 20.6397 95.7534 18.873 97.6967 18.873H103.173V22.583H97.6967V22.7597Z" fill="white"/>
<path d="M108.827 22.7597V24.703H112.537V28.2364H108.827V30.1797H114.303V33.8897H108.827C106.883 33.8897 105.117 32.1231 105.117 30.1797V22.583C105.117 20.6397 106.883 18.873 108.827 18.873H114.303V22.583H108.827V22.7597Z" fill="white"/>
<path d="M112.713 24.5269V28.4135H108.827V28.2369H112.537V24.5269H112.713Z" fill="white"/>
<path d="M29.68 12.8657H13.4266V21.3457H29.68V12.8657Z" fill="white"/>
<path d="M20.67 33.8904V25.4104H8.30334V8.62707H20.67V0.32373H8.48C3.88667 0.32373 0 4.03373 0 8.62707V25.4104C0 30.0037 3.71 33.7137 8.30334 33.8904H20.67Z" fill="white"/>
</svg>
