<svg width="86" height="68" viewBox="0 0 86 68" fill="none" xmlns="http://www.w3.org/2000/svg">
<mask id="mask0_181_66" style="mask-type:luminance" maskUnits="userSpaceOnUse" x="0" y="0" width="86" height="68">
<path d="M86 0.455078H0.959961V67.4263H86V0.455078Z" fill="white"/>
</mask>
<g mask="url(#mask0_181_66)">
<mask id="mask1_181_66" style="mask-type:luminance" maskUnits="userSpaceOnUse" x="0" y="0" width="86" height="68">
<path d="M86 0.455078H0.959961V67.4263H86V0.455078Z" fill="white"/>
</mask>
<g mask="url(#mask1_181_66)">
<path d="M60.9829 10.1069L44.903 0.821603C44.903 0.821603 43.4797 0.00131715 42.0564 0.821603L25.9765 10.1069C25.9765 10.1069 24.5532 10.9272 24.5532 12.5715V31.1384C24.5532 31.1384 24.5532 32.7828 25.9765 33.6031L42.0564 42.8884C42.0564 42.8884 43.4797 43.7087 44.903 42.8884L60.9829 33.6031C60.9829 33.6031 62.4062 32.7828 62.4062 31.1384V12.5715C62.4062 12.5715 62.4062 10.9272 60.9829 10.1069ZM58.1737 22.9843L51.8062 34.0151C51.1544 35.1462 49.8472 35.1462 49.8472 35.1462H37.1085C35.805 35.1462 35.1495 34.0151 35.1495 34.0151L28.782 22.9843C28.1303 21.8531 28.782 20.7257 28.782 20.7257L35.1495 9.69492C35.8012 8.56375 37.1085 8.56375 37.1085 8.56375H49.8472C51.1507 8.56375 51.8062 9.69492 51.8062 9.69492L58.1737 20.7257C58.8254 21.8569 58.1737 22.9843 58.1737 22.9843Z" fill="#FC4C02"/>
<path d="M9.83702 53.9339C8.89313 52.9712 7.51101 52.6304 6.3686 52.6304C3.36089 52.6304 0.959961 54.6343 0.959961 57.7431C0.959961 60.852 3.36463 62.8559 6.3686 62.8559C7.51101 62.8559 8.89688 62.515 9.83702 61.5524L7.85186 59.4699C7.51101 59.8706 7.02783 60.2115 6.3686 60.2115C4.86662 60.2115 3.96393 59.2077 3.96393 57.7431C3.96393 56.2786 4.86662 55.2748 6.3686 55.2748C6.99037 55.2748 7.55221 55.5969 7.85186 56.0164L9.83702 53.9339ZM10.4625 57.7431C10.4625 60.852 12.8672 62.8559 15.8749 62.8559C18.8826 62.8559 21.2873 60.852 21.2873 57.7431C21.2873 54.6343 18.8826 52.6304 15.8749 52.6304C12.8672 52.6304 10.4625 54.6343 10.4625 57.7431ZM13.4665 57.7431C13.4665 56.2786 14.3692 55.2748 15.8749 55.2748C17.3806 55.2748 18.2833 56.2786 18.2833 57.7431C18.2833 59.2077 17.3806 60.2115 15.8749 60.2115C14.3692 60.2115 13.4665 59.2077 13.4665 57.7431ZM22.9504 62.6124H25.9543V57.7619C25.9543 56.4996 26.194 55.2748 27.7597 55.2748C29.3254 55.2748 29.3254 56.7168 29.3254 57.8405V62.6124H32.3293V57.2375C32.3293 54.6305 31.7675 52.6304 28.7223 52.6304C27.2578 52.6304 26.2727 53.432 25.8719 54.1923H25.8307V52.8701H22.9466V62.6124H22.9504ZM44.5812 52.8701H41.8169V54.1511H41.7757C41.315 53.4507 40.1501 52.6304 38.4459 52.6304C35.6816 52.6304 33.9961 55.1137 33.9961 57.7019C33.9961 60.6497 35.8989 62.7323 38.7867 62.7323C39.6894 62.7323 40.8506 62.3914 41.536 61.4513H41.5772V62.3914C41.5772 63.7773 40.7157 64.7774 38.8879 64.7774C37.663 64.7774 36.6405 64.2979 35.7191 63.5113L34.056 65.9984C35.4569 67.1184 37.2211 67.4218 38.9478 67.4218C42.7196 67.4218 44.5812 65.4591 44.5812 61.7884V52.8664V52.8701ZM37.0038 57.6795C37.0038 56.4172 38.0451 55.271 39.4085 55.271C40.7719 55.271 41.8169 56.4134 41.8169 57.6795C41.8169 58.9455 40.7719 60.0879 39.4085 60.0879C38.0451 60.0879 37.0038 58.9455 37.0038 57.6795ZM53.005 62.6087H55.7693V57.657C55.7693 54.4096 54.8291 52.6266 51.3195 52.6266C49.7351 52.6266 48.132 53.1473 47.0308 54.1886L48.6339 55.8329C49.2744 55.11 50.0947 54.668 51.0798 54.668C52.1211 54.668 53.005 55.3497 53.005 56.4134C50.4992 56.4134 46.409 56.4734 46.409 59.8407C46.409 61.8034 48.0533 62.8446 49.8774 62.8446C51.1022 62.8446 52.3046 62.4251 52.9675 61.3839H53.0088V62.6049L53.005 62.6087ZM53.005 58.3387V58.9829C53.005 60.1853 51.9001 60.8108 50.7165 60.8108C50.0535 60.8108 49.2931 60.4699 49.2931 59.747C49.2931 58.4211 51.3382 58.3424 52.2634 58.3424H53.005V58.3387ZM64.5901 52.8664H61.9457V49.9785H58.9418V52.8664H57.0165V55.271H58.9418V59.9043C58.9418 62.0281 60.485 62.8484 62.4889 62.8484C63.193 62.8484 63.9309 62.7885 64.5939 62.5487V60.0429C64.3354 60.2826 63.6912 60.3238 63.3728 60.3238C62.0693 60.3238 61.9495 59.5598 61.9495 58.5185V55.2673H64.5939V52.8626L64.5901 52.8664ZM73.1338 59.38C72.6319 60.0617 71.969 60.5636 70.9876 60.5636C69.8227 60.5636 68.9612 59.8219 68.7215 58.6758H75.6996V57.7356C75.6996 54.6268 73.9354 52.6229 71.1299 52.6229C68.1222 52.6229 65.7176 54.6268 65.7176 57.7356C65.7176 60.8445 68.1222 62.8484 71.1299 62.8484C72.6956 62.8484 74.2762 62.148 75.2389 60.9269L73.1376 59.38H73.1338ZM68.7215 56.6344C68.8039 55.6905 69.5231 54.7879 70.849 54.7879C71.9315 54.7879 72.7143 55.6306 72.6956 56.6344H68.7253H68.7215ZM86.0037 53.9264C85.0598 52.9638 83.6777 52.6229 82.5353 52.6229C79.5276 52.6229 77.1229 54.6268 77.1229 57.7356C77.1229 60.8445 79.5276 62.8484 82.5353 62.8484C83.6777 62.8484 85.0598 62.5075 86.0037 61.5449L84.0185 59.4624C83.6777 59.8631 83.1945 60.204 82.5353 60.204C81.0333 60.204 80.1306 59.2002 80.1306 57.7356C80.1306 56.2711 81.0333 55.2673 82.5353 55.2673C83.157 55.2673 83.7189 55.5894 84.0185 56.0089L86.0037 53.9264Z" fill="#FC4C02"/>
</g>
</g>
</svg>
