<svg width="110" height="33" viewBox="0 0 110 33" fill="none" xmlns="http://www.w3.org/2000/svg">
<g clip-path="url(#clip0_184_426)">
<path d="M0 16.6744C1.32525 14.5429 3.60899 13.2501 5.77106 12.0894C19.0332 4.96856 32.7847 3.32031 47.4946 6.67721C60.0346 9.53867 74.1949 16.7129 87.218 13.7665C89.7521 13.1932 91.4905 11.9808 93.7891 10.9847C94.1226 10.8403 94.5524 10.6057 94.8991 10.6083C92.6241 15.2082 87.3187 17.14 82.5096 17.7974C69.8821 19.5236 57.8025 14.4221 45.5855 12.1629C34.6342 10.1383 23.219 9.44851 12.4411 12.7231C8.26401 13.9924 4.28912 15.9251 0.000875332 16.8494V16.6752L0 16.6744Z" fill="#23584C"/>
<path d="M50.5538 33.0001H39.8835C38.2344 32.6631 36.7254 31.2285 36.4951 29.5295C36.3367 28.3591 36.3428 25.0731 36.482 23.8871C36.6693 22.2861 38.2642 20.6939 39.8494 20.4383C43.0663 20.5984 46.5404 20.1932 49.7275 20.4251C51.2672 20.5372 52.9689 21.6795 53.4459 23.1745C53.8188 24.3431 53.8486 28.6585 53.5956 29.8805C53.2857 31.3764 51.9561 32.5283 50.5556 33.0001H50.5538ZM41.8723 23.5045C41.3637 23.5895 40.5479 24.1961 40.3168 24.6582C40.0612 25.1686 40.0901 27.1582 40.1567 27.7945C40.2731 28.9097 40.7641 29.6721 41.9362 29.7728C43.5731 29.9137 46.6901 29.9137 48.327 29.7728C49.2295 29.6949 49.921 29.2949 50.0295 28.3294C50.1118 27.6002 50.1083 25.8312 50.0295 25.0985C49.9236 24.1155 49.0772 23.5606 48.1519 23.4809C46.1562 23.3094 43.8952 23.5982 41.8723 23.5045Z" fill="#23584C"/>
<path d="M31.6617 33.0001H20.9915C19.345 32.6754 17.8324 31.218 17.603 29.5295C17.4446 28.3591 17.4507 25.0731 17.5899 23.8871C17.7807 22.2555 19.3563 20.7149 20.9573 20.4383C24.1742 20.5984 27.6484 20.1932 30.8354 20.4251C32.6955 20.5608 34.539 22.0611 34.7228 23.965C34.8339 25.1125 34.8786 28.9885 34.6624 30.0135C34.3639 31.4228 32.9695 32.5546 31.6626 32.9993L31.6617 33.0001ZM22.9802 23.5045C22.2808 23.7006 21.3652 24.3466 21.2619 25.1064C21.1586 25.8662 21.1902 27.9048 21.4396 28.5806C21.7285 29.364 22.2152 29.701 23.0441 29.7728C24.6801 29.9137 27.7998 29.9137 29.4349 29.7728C30.3277 29.6958 31.0306 29.28 31.1374 28.3294C31.2127 27.6606 31.2118 25.0942 30.979 24.5584C30.705 23.9291 30.003 23.5509 29.3439 23.4844C27.349 23.2831 25.0119 23.6148 22.9811 23.5045H22.9802Z" fill="#23584C"/>
<path d="M77.6675 33.0001V25.2298H89.6061C89.6525 25.2298 90.0149 24.8166 90.0482 24.7107C90.1944 24.2451 90.0552 23.8678 89.6438 23.6209C89.5869 23.5868 89.1116 23.396 89.0818 23.396H77.6675V20.4277H91.7927C91.945 20.4277 92.6103 20.6632 92.7731 20.7586C93.4068 21.1306 93.7027 21.858 93.764 22.5635C93.8427 23.48 93.8629 26.0631 93.6116 26.8702C93.4191 27.489 92.7451 28.2847 92.0553 28.2847H81.2537V32.9992H77.6675V33.0001Z" fill="#FABE00"/>
<path d="M5.42286 33.0001L3.91729 32.5379C0.471106 30.8879 2.1001 26.3555 1.78848 23.3049C1.87689 22.3456 3.90503 20.4277 4.76636 20.4277H15.8305V23.396H7.04047C6.49339 23.396 5.48938 24.4394 5.42023 25.0092C5.34495 25.6368 5.33795 27.974 5.46137 28.5517C5.54978 28.9675 6.29731 29.8559 6.69121 29.8559H15.7877C15.9128 29.933 15.9085 30.0301 15.9233 30.157C16.0257 31.0315 15.8384 32.102 15.919 32.9992H5.42286V33.0001Z" fill="#FABE00"/>
<path d="M58.6007 32.9992C57.4733 32.6938 56.4316 31.8053 55.8749 30.7873C55.7673 30.5903 55.4521 29.8997 55.4521 29.7255V20.4277H58.9508V28.2409C58.9508 28.8423 60.0651 30.031 60.656 30.031H69.5336V32.9992H58.6007Z" fill="#23584C"/>
<path d="M99.2713 20.4277H95.6851V32.9992H99.2713V20.4277Z" fill="#23584C"/>
<path d="M107.667 7.0718L102.16 9.12533L99.7072 14.9279L98.8424 9.30915L93.8486 7.8561C93.9475 7.66878 94.2495 7.60401 94.4395 7.53048C96.0658 6.89586 97.7614 6.42493 99.3632 5.72292L101.809 0L102.674 5.55135L107.667 7.0718Z" fill="#FABE00"/>
<path d="M107.164 12.4628L109.854 13.7049L106.884 14.2764L105.482 17.0224L105.118 14.0681C104.288 13.6383 103.378 13.3477 102.545 12.9276C102.452 12.8812 102.38 12.9731 102.421 12.7455L105.337 12.2282L106.62 9.51551C106.739 9.49363 106.753 9.6722 106.77 9.75536C106.953 10.6228 106.953 11.5909 107.164 12.4619L107.164 12.4628Z" fill="#FABE00"/>
</g>
<defs>
<clipPath id="clip0_184_426">
<rect width="109.853" height="33" fill="white"/>
</clipPath>
</defs>
</svg>
