<svg width="125" height="50" viewBox="0 0 125 50" fill="none" xmlns="http://www.w3.org/2000/svg">
<path d="M20.743 29.5467C20.2691 31.111 19.5683 33.1785 16.0205 33.1785C12.6604 33.1785 10.431 30.3324 10.4037 26.3291C10.3775 22.0825 12.4775 19.3183 16.1666 19.3183C19.2845 19.3183 20.2085 21.2208 20.5423 23.248H21.3084V19.4191C20.4485 18.9242 18.1074 18.2596 16.1179 18.2596C11.2648 18.2596 7.93908 21.5436 8.00085 26.4205C8.06498 31.1406 10.9904 34.2419 15.8032 34.2419C18.5279 34.2419 20.0244 33.5215 21.445 32.7975C21.4557 32.7966 21.7954 28.7064 21.7954 28.7064H20.9925L20.743 29.5467Z" fill="#005ED1"/>
<path d="M31.9498 33.1785C28.4828 33.1785 26.3341 30.5152 26.3341 26.2246C26.3341 21.9626 28.4828 19.3183 31.9498 19.3183C35.5273 19.3183 37.6653 21.9139 37.6653 26.2697C37.6653 30.5971 35.5273 33.1785 31.9498 33.1785ZM40.0633 26.0086C40.0633 21.2267 37.1023 18.2596 32.3323 18.2596C27.2309 18.2596 23.9277 21.4321 23.9277 26.3445C23.9277 31.2854 26.8294 34.2395 31.6849 34.2395C36.8528 34.2395 40.0633 31.0825 40.0633 26.0086Z" fill="#005ED1"/>
<path d="M66.4262 19.2454L69.7436 19.8199L70.113 29.8881L60.8604 18.5927H56.1961V19.2383L58.6975 19.808L58.6013 32.6819L56.3672 33.2196C55.7365 33.0392 54.7364 32.7745 53.4061 31.1177C53.4061 31.1177 49.945 26.8378 49.5103 26.299C50.8821 25.9204 53.0985 24.9092 53.0985 22.3147C53.0985 20.6127 52.1756 18.5927 47.7738 18.5927H40.9038V19.2383L43.3993 19.808L43.3978 32.6784L40.9047 33.2576V33.9068H47.7212V33.2635L45.5144 32.6831V19.7285C46.1724 19.6205 46.8233 19.5493 47.2639 19.5493C49.7059 19.5493 50.8925 20.462 50.8925 22.3348C50.8925 25.2427 48.5467 25.6605 47.5858 25.7886C47.2592 25.8302 46.8743 25.8492 46.5311 25.8492V26.4936L47.3851 26.7654L50.9911 31.4441C52.1954 33.0072 53.0708 33.9068 57.1531 33.9068H63.1821V33.254L60.1795 32.6713L59.8089 20.5866L70.8408 34.2284H71.1365L71.3218 19.8044L73.3433 19.23V18.5927H66.4259V19.2454" fill="#005ED1"/>
<path d="M81.8741 33.2596L79.3774 32.6816L79.3743 19.8088L81.8769 19.2391V18.5923H74.7682V19.2391L77.2589 19.8088V32.6816L74.7682 33.2596V33.9064L81.8745 33.9025V33.2592" fill="#005ED1"/>
<path d="M90.2921 33.2564L87.2871 32.6772L86.9165 20.5902L97.946 34.2284H98.2381L98.4294 19.8056L100.449 19.23V18.5927H93.5358L93.5334 19.2454L96.8448 19.8199L97.2166 29.8881L87.9724 18.5927H83.3057V19.2383L85.7964 19.808L85.7038 32.6819L83.3057 33.2576V33.9032H90.292L90.2921 33.2564Z" fill="#005ED1"/>
<path d="M115.027 27.971L117 27.4001V26.7627L109.985 26.7618V27.4087L112.914 27.9819V31.9555C111.884 32.7697 110.739 33.2468 108.954 33.1887C105.757 33.0866 103.5 30.3485 103.5 26.344C103.502 21.9229 105.579 19.3273 109.356 19.3273C112.678 19.3273 113.605 21.4779 113.936 23.238H114.642V19.4543C113.652 18.8953 111.507 18.2698 109.034 18.2698C104.179 18.2698 101.075 21.4589 101.101 26.4402C101.121 31.0642 104.147 34.1762 108.818 34.2497C112.022 34.3032 113.702 33.4047 115.022 32.619C115.015 32.6332 115.027 27.971 115.027 27.971Z" fill="#005ED1"/>
</svg>
