<svg width="125" height="50" viewBox="0 0 125 50" fill="none" xmlns="http://www.w3.org/2000/svg">
<path d="M13.9574 26.3374V23.4764L5.53941 18.5682C5.16583 18.3493 4.7033 18.3529 4.33328 18.5719C3.96326 18.7945 3.73199 19.2032 3.73199 19.6447V30.3077C3.73199 30.7529 3.96682 31.1652 4.34395 31.3878L13.9574 36.982V34.1211L6.15137 29.5851V21.7795L13.9574 26.3337V26.3374Z" fill="#6400B9"/>
<path d="M17.2983 24.9398L22.5818 21.7869V32.4936L25.0011 31.0851V19.6303C25.0011 19.1887 24.7699 18.7763 24.3927 18.5537C24.0191 18.3348 23.5531 18.3348 23.183 18.5537L15.4802 23.1481C15.1102 23.3707 14.8789 23.7794 14.8789 24.2209V36.9676L17.2983 35.559V24.9325V24.9398Z" fill="#991DFF"/>
<path d="M33.451 27.9613C33.3656 27.9613 33.3229 27.9285 33.298 27.9029C33.2589 27.8628 33.2411 27.8153 33.2411 27.746V22.0314C33.2411 21.9438 33.266 21.9 33.2945 21.8708C33.3229 21.8416 33.3621 21.8124 33.4475 21.8124H41.1397V19.8236H33.2518C32.8924 19.8273 32.5616 19.9185 32.2663 20.1009C31.9745 20.2798 31.7361 20.5206 31.5653 20.8235C31.391 21.1264 31.3021 21.4657 31.3021 21.8343V27.9504C31.3056 28.3189 31.3946 28.6583 31.5689 28.9612C31.7432 29.2604 31.9781 29.5049 32.2734 29.6801C32.5687 29.8589 32.8996 29.9501 33.2589 29.9501H41.1468V27.9613H33.4546H33.451Z" fill="white"/>
<path d="M78.1383 20.8235C77.9639 20.5243 77.7291 20.2798 77.4338 20.1046C77.1385 19.9258 76.8076 19.8346 76.4483 19.8346H70.4852C70.1259 19.8382 69.795 19.9295 69.4997 20.1083C69.208 20.2871 68.9696 20.5279 68.7988 20.8308C68.6245 21.1337 68.5355 21.4731 68.5355 21.8416V29.9319H70.4746V22.0424C70.471 21.973 70.4888 21.9256 70.5279 21.8854C70.5564 21.8562 70.5955 21.8271 70.6809 21.8271H76.2526C76.338 21.8271 76.3807 21.8599 76.4056 21.8854C76.4341 21.9146 76.4625 21.9548 76.4625 22.0424V29.9319H78.4016V21.8416C78.398 21.4731 78.3091 21.1337 78.1312 20.8308L78.1383 20.8235Z" fill="white"/>
<path d="M53.3576 20.8053C53.1832 20.506 52.9484 20.2652 52.6566 20.0864C52.3613 19.9076 52.0305 19.8163 51.6747 19.8163H45.7116C45.3523 19.82 45.0214 19.9112 44.7261 20.09C44.4343 20.2688 44.196 20.5097 44.0252 20.8089C43.8509 21.1118 43.7619 21.4512 43.7619 21.8198V27.9358C43.7655 28.3044 43.8544 28.6437 44.0287 28.9466C44.2031 29.2459 44.4379 29.4904 44.7297 29.6655C45.025 29.8443 45.3558 29.9356 45.7152 29.9356H51.6782C52.0376 29.9319 52.3685 29.8407 52.6638 29.6619C52.9555 29.4831 53.1939 29.2422 53.3647 28.9393C53.539 28.6364 53.628 28.2971 53.628 27.9285V21.8125C53.628 21.4439 53.5354 21.1045 53.3611 20.8016L53.3576 20.8053ZM51.6604 27.9358C51.6604 27.9358 51.6426 27.9467 51.6355 27.9504C51.6249 27.9504 45.7508 27.9504 45.7508 27.9504C45.7401 27.9504 45.733 27.9504 45.7116 27.9285C45.6938 27.9103 45.6938 27.8993 45.6938 27.892V21.8562C45.6938 21.8562 45.6938 21.838 45.7081 21.8161C45.7259 21.7979 45.7365 21.7979 45.7472 21.7979L51.6569 21.8052C51.6569 21.8052 51.6747 21.8343 51.6747 21.8526V27.8884C51.6747 27.8884 51.6747 27.9175 51.6604 27.9358Z" fill="white"/>
<path d="M83.1087 27.9285V25.8448L88.8476 25.8411V23.8596L83.1051 23.8633V21.7759L90.2458 21.7723V19.7908L81.1589 19.7944L81.1625 29.9136L90.2494 29.9063V27.9248L83.1087 27.9285Z" fill="white"/>
<path d="M94.565 27.9212L94.5615 19.7725L92.626 19.7762L92.6331 29.9063L101.179 29.899V27.9175L94.565 27.9212Z" fill="white"/>
<path d="M104.844 19.7798H102.912V29.899H104.844V19.7798Z" fill="white"/>
<path d="M109.217 21.7613H117.112L117.062 21.4402C117.023 21.1957 116.944 20.9695 116.827 20.7651C116.653 20.4659 116.418 20.2214 116.122 20.0462C115.827 19.8674 115.496 19.7762 115.137 19.7762H109.174C108.815 19.7798 108.484 19.8711 108.188 20.0499C107.897 20.2287 107.658 20.4695 107.487 20.7724C107.313 21.0753 107.224 21.4147 107.224 21.7832V23.8304C107.224 24.199 107.313 24.5384 107.491 24.8413C107.665 25.1405 107.9 25.385 108.192 25.5602C108.487 25.739 108.818 25.8302 109.177 25.8302L115.133 25.8375C115.133 25.8375 115.148 25.8521 115.148 25.8849V27.8518C115.148 27.8518 115.148 27.881 115.105 27.9102H107.21L107.26 28.2277C107.299 28.4722 107.377 28.7021 107.495 28.9065C107.669 29.2057 107.904 29.4502 108.199 29.6254C108.494 29.8042 108.825 29.8954 109.181 29.8954H115.144C115.503 29.8917 115.834 29.8005 116.13 29.6217C116.421 29.4429 116.66 29.202 116.83 28.8992C117.005 28.5963 117.094 28.2569 117.094 27.8883V25.8411C117.094 25.4762 117.005 25.1332 116.827 24.8303C116.653 24.5311 116.418 24.2866 116.126 24.1114C115.831 23.9326 115.5 23.8414 115.14 23.8414H109.217C109.217 23.8414 109.188 23.8414 109.174 23.8268C109.167 23.8195 109.163 23.8158 109.163 23.7866V21.8197C109.163 21.8197 109.163 21.8015 109.181 21.7796C109.199 21.7613 109.209 21.7613 109.22 21.7613H109.217Z" fill="white"/>
<path d="M64.9421 26.2389C65.241 26.0601 65.4794 25.8192 65.6537 25.5163C65.828 25.2135 65.917 24.8741 65.917 24.5055V21.8197C65.917 21.4621 65.828 21.1264 65.6501 20.8235C65.4758 20.5242 65.2374 20.2797 64.9421 20.0973C64.6432 19.9148 64.3088 19.8199 63.9495 19.8199H56.0474L56.0545 29.9282H57.9864V26.5235L61.0604 26.5162L63.8427 29.9246H65.8672V29.2823L63.583 26.5089H63.953C64.3088 26.5089 64.6432 26.4177 64.9421 26.2389ZM63.8605 24.5128H58.0825C58.0184 24.5128 57.9686 24.4617 57.9686 24.396V21.9146C57.9686 21.8489 58.0184 21.7978 58.0825 21.7978H63.8605C63.9246 21.7978 63.9744 21.8489 63.9744 21.9146V24.396C63.9744 24.4617 63.9246 24.5128 63.8605 24.5128Z" fill="white"/>
<path d="M120.385 19.8967L119.976 20.9294L119.581 19.8967H119.111V21.3709H119.438V20.3528L119.84 21.3709H120.089L120.491 20.3747L120.499 21.3709H120.833V19.8967H120.385Z" fill="white"/>
<path d="M117.873 20.1813H118.197L118.19 21.3709H118.556L118.552 20.1813H118.873V19.8967H117.873V20.1813Z" fill="white"/>
<path d="M14.8291 13.1675V15.9336L20.7993 19.196L23.2542 17.7144L14.8291 13.1675Z" fill="#35343C"/>
<path d="M13.9609 13.131L5.37927 17.6743L7.88047 19.196L13.9609 15.9336V13.131Z" fill="#9D9CAA"/>
</svg>
