<svg width="144" height="34" viewBox="0 0 144 34" fill="none" xmlns="http://www.w3.org/2000/svg">
<g clip-path="url(#clip0_2390_3296)">
<path d="M16.8915 27.1487C14.9038 27.1487 13.1438 26.7173 11.6047 25.8581C10.0656 24.9988 8.85782 23.8151 7.9813 22.3071C7.10477 20.7991 6.6665 19.0667 6.6665 17.1031C6.6665 15.1396 7.10477 13.4072 7.9813 11.8992C8.85782 10.3911 10.0587 9.20749 11.5875 8.34822C13.1197 7.4924 14.8762 7.06104 16.8639 7.06104C18.265 7.06104 19.5694 7.2957 20.7772 7.76847C21.985 8.24124 23.041 8.89691 23.9451 9.73893C24.8493 10.5809 25.5464 11.5472 26.0329 12.6377L22.3232 13.9421C21.9919 13.2588 21.5537 12.6618 21.0084 12.1511C20.4632 11.6438 19.8386 11.2435 19.138 10.9571C18.4375 10.6707 17.6783 10.5257 16.8605 10.5257C15.6733 10.5257 14.6174 10.8087 13.6925 11.3712C12.7677 11.9372 12.0465 12.7067 11.5323 13.6868C11.0146 14.6668 10.7593 15.8056 10.7593 17.0997C10.7593 18.3938 11.0215 19.536 11.5495 20.5264C12.0741 21.5168 12.8056 22.2933 13.7408 22.8558C14.676 23.4217 15.7458 23.7013 16.9536 23.7013C17.7922 23.7013 18.5548 23.5494 19.245 23.2423C19.9352 22.9386 20.5495 22.5176 21.0843 21.9793C21.6192 21.4444 22.054 20.8232 22.3853 20.1192L26.095 21.3961C25.6085 22.5245 24.9114 23.5218 24.0073 24.3914C23.1031 25.2611 22.0437 25.9374 20.8393 26.4171C19.6315 26.8968 18.3167 27.1383 16.895 27.1383L16.8915 27.1487Z" fill="#004D95"/>
<path d="M38.3906 27.1484C36.327 27.1484 34.5015 26.7171 32.9141 25.8578C31.3266 24.9985 30.0843 23.8149 29.1905 22.3068C28.2933 20.7988 27.8481 19.0664 27.8481 17.1029C27.8481 15.1393 28.2968 13.407 29.1905 11.8989C30.0843 10.3909 31.3163 9.21068 32.8865 8.36176C34.4532 7.51284 36.258 7.08838 38.3044 7.08838C40.3507 7.08838 42.159 7.51974 43.7361 8.37901C45.3131 9.23829 46.5486 10.4219 47.4458 11.93C48.343 13.438 48.7882 15.1738 48.7882 17.1339C48.7882 19.094 48.3465 20.8022 47.4596 22.3103C46.5727 23.8183 45.3511 25.002 43.7947 25.8612C42.2349 26.7205 40.437 27.1519 38.3906 27.1519V27.1484ZM38.3906 23.6803C39.6191 23.6803 40.7062 23.3973 41.6621 22.8348C42.6145 22.2723 43.3599 21.4924 43.8948 20.5055C44.4297 19.5151 44.6989 18.3832 44.6989 17.1063C44.6989 15.8295 44.4262 14.7011 43.881 13.721C43.3358 12.7409 42.5869 11.9679 41.631 11.4054C40.6751 10.843 39.5674 10.56 38.3009 10.56C37.0344 10.56 35.9785 10.843 35.0157 11.4054C34.0529 11.9714 33.2971 12.7409 32.7519 13.721C32.2066 14.7011 31.934 15.8399 31.934 17.1339C31.934 18.428 32.2066 19.5392 32.7519 20.5193C33.2971 21.4993 34.0563 22.2723 35.0295 22.8348C36.0026 23.4008 37.1207 23.6803 38.3872 23.6803H38.3906Z" fill="#004D95"/>
<path d="M52.032 26.8172V7.39209H59.6274C61.0665 7.39209 62.3433 7.66126 63.4545 8.19615C64.5657 8.73449 65.4318 9.46953 66.053 10.4013C66.6776 11.3365 66.9882 12.4235 66.9882 13.6624C66.9882 14.9012 66.6604 15.971 66.0081 16.9235C65.3559 17.8759 64.4656 18.6144 63.3337 19.1424C62.2053 19.6704 60.9181 19.9326 59.479 19.9326H56.0316V26.8137H52.0286L52.032 26.8172ZM56.0316 16.4679H59.655C60.2589 16.4679 60.7973 16.3472 61.277 16.1056C61.7532 15.864 62.1328 15.5328 62.4158 15.1083C62.6987 14.6838 62.8402 14.2007 62.8402 13.6658C62.8402 12.8342 62.5227 12.1578 61.8912 11.6401C61.2597 11.1225 60.4453 10.8637 59.4514 10.8637H56.0351V16.4679H56.0316ZM63.2785 26.8172L58.5473 19.0216L61.6152 16.9407L67.8061 26.8172H63.2785Z" fill="#004D95"/>
<path d="M74.8425 26.8172V10.8637H68.7068V7.39209H84.9467V10.8602H78.8421V26.8137H74.839L74.8425 26.8172Z" fill="#004D95"/>
<path d="M87.5797 26.8172V7.39209H91.5827V26.8137H87.5797V26.8172Z" fill="#004D95"/>
<path d="M96.0206 26.8172V7.39209H100.196L110.187 20.433V7.39209H114.159V26.8137H110.187L100.02 13.5243V26.8137H96.0172L96.0206 26.8172Z" fill="#004D95"/>
<path d="M116.612 26.8172L124.677 7.39209H128.68L120.853 26.8137H116.619L116.612 26.8172ZM120.412 22.545V19.1873H133.235V22.545H120.412ZM132.766 26.8172L124.939 7.39209H128.942L137.003 26.8137H132.769L132.766 26.8172Z" fill="#004D95"/>
</g>
<defs>
<clipPath id="clip0_2390_3296">
<rect width="130.33" height="20.0877" fill="white" transform="translate(6.67004 7.06104)"/>
</clipPath>
</defs>
</svg>
