<svg width="138" height="31" viewBox="0 0 138 31" fill="none" xmlns="http://www.w3.org/2000/svg">
<path d="M45.0592 8.45385C46.0559 7.86586 47.2032 7.57186 48.4652 7.57186C49.7273 7.57186 50.9104 7.86586 51.8354 8.45385C52.6385 8.94862 53.2911 9.637 53.7715 10.5046C53.9651 10.856 54.3523 11.0711 54.7682 11.0711H55.4925C55.9155 11.0711 56.2956 10.8488 56.5107 10.476C56.7186 10.1031 56.7115 9.65851 56.4892 9.29281C55.8223 8.18853 54.9403 7.27786 53.8647 6.58231C52.3302 5.59276 50.516 5.09082 48.4581 5.09082C46.7084 5.09082 45.095 5.51389 43.6466 6.33851C42.2196 7.1703 41.0795 8.33912 40.2477 9.81627C39.4159 11.2791 39 12.9498 39 14.7855C39 16.6212 39.4231 18.292 40.2477 19.7548C41.0795 21.2176 42.2196 22.3792 43.6466 23.211C45.0879 24.0213 46.7084 24.4372 48.4581 24.4372C50.5089 24.4372 52.3302 23.9424 53.8647 22.9672C54.9331 22.2788 55.8151 21.3753 56.482 20.2926C56.7043 19.9269 56.7186 19.4823 56.5035 19.1094C56.2956 18.7365 55.9155 18.5142 55.4853 18.5142H54.7682C54.3452 18.5142 53.9651 18.7294 53.7715 19.0807C53.2911 19.9412 52.6385 20.6296 51.8354 21.1315C50.9104 21.698 49.7775 21.9848 48.4652 21.9848C47.153 21.9848 46.0631 21.6908 45.0592 21.1028C44.0625 20.522 43.2665 19.6831 42.7 18.6146C42.1264 17.5247 41.8396 16.2412 41.8396 14.807C41.8396 13.3729 42.1264 12.0678 42.7 10.9994C43.2665 9.91666 44.0625 9.07052 45.0592 8.48253V8.45385Z" fill="white"/>
<path d="M69.8912 16.1333C70.8449 15.7604 71.6122 15.1939 72.1643 14.4625C72.9316 13.4586 73.3188 12.2827 73.3188 10.9704C73.3188 9.89484 73.0678 8.91964 72.5731 8.08067C72.0783 7.23454 71.3182 6.5605 70.3143 6.06572C69.3319 5.57812 68.1129 5.32715 66.686 5.32715H61.6737C61.0283 5.32715 60.5049 5.8506 60.5049 6.49596V23.1103C60.5049 23.7557 61.0283 24.2791 61.6737 24.2791H62.1254C62.7708 24.2791 63.2943 23.7557 63.2943 23.1103V17.4814C63.2943 17.0368 63.6528 16.6711 64.1045 16.6711H65.4813C65.7681 16.6711 66.0334 16.8217 66.1769 17.0726L70.0347 23.6911C70.2426 24.0497 70.6298 24.272 71.0385 24.272H71.6337C72.0568 24.272 72.4368 24.0497 72.6519 23.6768C72.8599 23.3039 72.8599 22.8665 72.6376 22.5008L69.5184 17.2878C69.3965 17.0798 69.3678 16.836 69.4467 16.6066C69.5184 16.3914 69.6833 16.2193 69.8912 16.1333ZM70.4506 10.9633C70.4506 11.9958 70.135 12.8276 69.5184 13.4515C68.9017 14.0538 67.948 14.3621 66.686 14.3621H63.2943V7.67195H66.686C67.9623 7.67195 68.9232 7.95877 69.5255 8.53242C70.1422 9.0989 70.4506 9.91635 70.4506 10.9633Z" fill="white"/>
<path d="M90.1696 6.35316C88.7283 5.52137 87.1005 5.10547 85.3294 5.10547C83.5582 5.10547 81.9664 5.52854 80.5179 6.35316C79.0766 7.16344 77.915 8.32508 77.0617 9.8094C76.2299 11.2722 75.814 12.943 75.814 14.7787C75.814 16.6143 76.237 18.2923 77.0688 19.7766C77.915 21.2394 79.0766 22.401 80.5251 23.2328C81.9664 24.0431 83.5869 24.459 85.3366 24.459C87.0862 24.459 88.7283 24.0503 90.1767 23.2328C91.618 22.401 92.7725 21.2394 93.6043 19.7766C94.4361 18.3138 94.852 16.6358 94.852 14.7787C94.852 12.9215 94.4289 11.2435 93.6043 9.78789C92.7725 8.32508 91.618 7.17061 90.1767 6.36033L90.1696 6.35316ZM92.0053 14.7787C92.0053 16.2199 91.7041 17.4963 91.1161 18.5863C90.5496 19.669 89.7465 20.5152 88.7283 21.1031C87.7316 21.6911 86.5843 21.9851 85.3222 21.9851C84.0602 21.9851 82.9057 21.6911 81.8947 21.1031C80.8979 20.5223 80.0948 19.669 79.5068 18.5863C78.9404 17.4963 78.6464 16.2128 78.6464 14.7787C78.6464 13.3445 78.9332 12.0395 79.5068 10.971C80.0948 9.88828 80.8979 9.03498 81.8947 8.45415C82.8914 7.86616 84.0458 7.57217 85.3222 7.57217C86.5986 7.57217 87.7531 7.86616 88.7498 8.45415C89.7465 9.04215 90.5424 9.88828 91.1089 10.971C91.6969 12.0395 91.9909 13.323 91.9909 14.7787H92.0053Z" fill="white"/>
<path d="M110.283 7.32876C110.541 6.91286 110.548 6.41809 110.312 5.98785C110.075 5.56478 109.645 5.31381 109.136 5.31381C108.67 5.31381 108.232 5.56478 107.996 5.96634L104.21 12.4199L100.223 5.93766C99.9861 5.55044 99.5559 5.30664 99.0539 5.30664C98.552 5.30664 98.1361 5.55761 97.8995 5.98068C97.6628 6.40375 97.67 6.90569 97.9282 7.31442L102.252 14.3632C102.41 14.6213 102.41 14.944 102.252 15.2093L97.9497 22.2365C97.6987 22.6524 97.6843 23.1472 97.921 23.5702C98.1576 23.9933 98.5878 24.2443 99.0755 24.2443C99.5631 24.2443 99.979 23.9933 100.216 23.5918L103.973 17.1597L107.938 23.6133C108.175 24.0005 108.605 24.2443 109.064 24.2443H109.129C109.616 24.2443 110.047 23.9933 110.283 23.5702C110.52 23.1472 110.513 22.6452 110.254 22.2365L105.938 15.2165C105.78 14.9583 105.78 14.6285 105.938 14.3703L110.283 7.32159V7.32876Z" fill="white"/>
<path d="M117.848 7.65113H123.958C124.603 7.65113 125.127 7.12767 125.127 6.46081C125.127 5.79394 124.603 5.29199 123.958 5.29199H115.425C114.779 5.29199 114.256 5.81545 114.256 6.46081V23.1038C114.256 23.7492 114.779 24.2727 115.425 24.2727H123.958C124.603 24.2727 125.127 23.7492 125.127 23.0823C125.127 22.4155 124.603 21.9135 123.958 21.9135H117.848C117.404 21.9135 117.038 21.555 117.038 21.1032V16.679C117.038 16.2344 117.397 15.8687 117.848 15.8687H121.649C122.294 15.8687 122.818 15.3452 122.818 14.6784C122.818 14.0115 122.294 13.5095 121.649 13.5095H117.848C117.404 13.5095 117.038 13.151 117.038 12.6993V8.46141C117.038 8.01683 117.397 7.65113 117.848 7.65113Z" fill="white"/>
<path d="M136.671 21.9278H131.516C131.071 21.9278 130.705 21.5693 130.705 21.1176V6.48229C130.705 5.83693 130.182 5.31348 129.537 5.31348H129.085C128.439 5.31348 127.916 5.83693 127.916 6.48229V23.0966C127.916 23.742 128.439 24.2655 129.085 24.2655H136.671C137.317 24.2655 137.84 23.742 137.84 23.0966C137.84 22.4513 137.317 21.9278 136.671 21.9278Z" fill="white"/>
<path d="M16.9908 30.6044L0.873865 14.4813C0.592826 14.2003 0.592826 13.742 0.873865 13.4549L13.8261 0.502656C14.4004 -0.0716413 15.3413 -0.187723 15.9644 0.331589C16.6609 0.918105 16.6915 1.95673 16.0622 2.58601L5.19331 13.4549C4.91227 13.7359 4.91227 14.1941 5.19331 14.4813L16.9908 26.2788C16.9908 26.2788 17.0153 26.291 17.0275 26.2788L28.3179 14.9884C28.8922 14.4141 29.8331 14.298 30.4563 14.8173C31.1528 15.4038 31.1833 16.4425 30.554 17.0717L17.0275 30.5983C17.0275 30.5983 17.0031 30.6105 16.9908 30.5983V30.6044Z" fill="white"/>
<path d="M14.2414 13.4054L12.0786 11.2426L21.5606 1.76058C22.1594 1.16184 23.1247 1.16184 23.7234 1.76058C24.3221 2.35931 24.3221 3.32462 23.7234 3.92335L14.2414 13.4054Z" fill="white"/>
<path d="M19.4162 18.214L17.2534 16.0512L26.7354 6.56917C27.3342 5.97043 28.2995 5.97043 28.8982 6.56917C29.4969 7.1679 29.4969 8.13321 28.8982 8.73195L19.4162 18.214Z" fill="white"/>
</svg>
