<svg width="189" height="18" viewBox="0 0 189 18" fill="none" xmlns="http://www.w3.org/2000/svg">
<g clip-path="url(#clip0_46_186)">
<mask id="mask0_46_186" style="mask-type:luminance" maskUnits="userSpaceOnUse" x="0" y="0" width="189" height="18">
<path d="M189 0H0V18H189V0Z" fill="white"/>
</mask>
<g mask="url(#mask0_46_186)">
<mask id="mask1_46_186" style="mask-type:luminance" maskUnits="userSpaceOnUse" x="0" y="0" width="189" height="19">
<path d="M189 0.984375H0V18.6547H189V0.984375Z" fill="white"/>
</mask>
<g mask="url(#mask1_46_186)">
<path fill-rule="evenodd" clip-rule="evenodd" d="M1.69987 9.13554C1.69987 12.6512 4.35019 15.5186 7.64025 15.5186H16.2858C16.761 15.5186 17.1449 15.9311 17.1449 16.4417C17.1449 16.9524 16.761 17.3648 16.2858 17.3648H7.64025C3.41801 17.3648 0 13.6921 0 9.15518C0 4.61827 3.41801 0.92589 7.64025 0.92589H16.2858C16.761 0.92589 17.1449 1.33834 17.1449 1.84899C17.1449 2.35963 16.761 2.77208 16.2858 2.77208H7.64025C4.36847 2.75244 1.69987 5.60029 1.69987 9.13554ZM148.747 2.75244H157.393C157.868 2.75244 158.252 2.33999 158.252 1.82934C158.252 1.3187 157.868 0.90625 157.393 0.90625H148.747C144.525 0.90625 141.107 4.57899 141.107 9.1159C141.107 13.6528 144.525 17.3256 148.747 17.3256H157.393C157.868 17.3256 158.252 16.9131 158.252 16.4025C158.252 15.8918 157.868 15.4794 157.393 15.4794H148.747C145.476 15.4794 142.807 12.6315 142.807 9.09626C142.807 5.56101 145.457 2.75244 148.747 2.75244ZM109.047 8.21245H102.65C102.175 8.21245 101.791 8.6249 101.791 9.13554C101.791 9.64619 102.175 10.0586 102.65 10.0586H109.047C109.724 10.0586 110.254 10.6478 110.254 11.3549C110.254 13.6528 108.517 15.5186 106.379 15.5186H100.767C97.4955 15.5186 94.8269 12.6708 94.8269 9.13554C94.8269 5.60029 97.4772 2.75244 100.767 2.75244H110.217C110.692 2.75244 111.076 2.33999 111.076 1.82934C111.076 1.3187 110.692 0.90625 110.217 0.90625H100.767C96.545 0.90625 93.127 4.57899 93.127 9.1159C93.127 13.6528 96.545 17.3256 100.767 17.3256H106.379C109.449 17.3256 111.953 14.6348 111.953 11.3353C111.953 9.62655 110.656 8.21245 109.047 8.21245ZM181.538 9.13554C181.538 13.6725 178.12 17.3452 173.898 17.3452H167.994C163.772 17.3452 160.354 13.6725 160.354 9.13554C160.354 4.59863 163.772 0.92589 167.994 0.92589H173.898C178.12 0.92589 181.538 4.59863 181.538 9.13554ZM179.838 9.13554C179.838 5.61993 177.188 2.75244 173.898 2.75244H167.994C164.722 2.75244 162.054 5.60029 162.054 9.13554C162.054 12.6708 164.704 15.5186 167.994 15.5186H173.898C177.17 15.5186 179.838 12.6512 179.838 9.13554ZM131.438 8.21245H123.322H121.111C119.703 8.21245 118.57 6.99475 118.57 5.48244C118.57 3.97014 119.703 2.75244 121.111 2.75244H134.253C134.728 2.75244 135.112 2.33999 135.112 1.82934C135.112 1.3187 134.728 0.90625 134.253 0.90625H121.111C118.771 0.90625 116.87 2.94884 116.87 5.4628C116.87 7.97677 118.771 10.0194 121.111 10.0194H129.318H131.438C132.845 10.0194 133.979 11.2371 133.979 12.7494C133.979 14.2617 132.845 15.4794 131.438 15.4794H118.296C117.821 15.4794 117.437 15.8918 117.437 16.4025C117.437 16.9131 117.821 17.3256 118.296 17.3256H131.438C133.778 17.3256 135.678 15.283 135.678 12.769C135.678 10.255 133.778 8.21245 131.438 8.21245ZM64.869 0.92589C64.3938 0.92589 64.01 1.33834 64.01 1.84899V16.4417C64.01 16.9524 64.3938 17.3648 64.869 17.3648C65.3443 17.3648 65.7281 16.9524 65.7281 16.4417V1.82934C65.7281 1.33834 65.3443 0.92589 64.869 0.92589ZM37.196 0.92589H21.2757C20.8005 0.92589 20.4167 1.33834 20.4167 1.84899C20.4167 2.35963 20.8005 2.77208 21.2757 2.77208H28.1666V16.4417C28.1666 16.9524 28.5504 17.3648 29.0257 17.3648C29.5009 17.3648 29.8847 16.9524 29.8847 16.4417V2.75244H37.196C37.6712 2.75244 38.055 2.33999 38.055 1.82934C38.055 1.3187 37.6529 0.92589 37.196 0.92589ZM87.1318 0.92589C86.6566 0.92589 86.2727 1.33834 86.2727 1.84899V14.4384L73.9715 1.18121C73.935 1.14193 73.8802 1.10265 73.8436 1.06337C73.8253 1.04373 73.807 1.04373 73.7705 1.02409C73.7522 1.00445 73.7157 0.984811 73.6974 0.984811C73.6791 0.965171 73.6425 0.965171 73.606 0.965171C73.5877 0.965171 73.5512 0.945531 73.5329 0.945531C73.478 0.92589 73.4232 0.92589 73.3684 0.92589C73.3135 0.92589 73.2587 0.92589 73.2039 0.945531C73.1856 0.945531 73.149 0.965171 73.1308 0.965171C73.0942 0.965171 73.0759 0.984811 73.0394 0.984811C73.0028 1.00445 72.9845 1.02409 72.9663 1.02409C72.948 1.04373 72.9297 1.04373 72.8931 1.06337C72.8383 1.10265 72.8018 1.14193 72.7652 1.18121C72.7286 1.2205 72.6921 1.25978 72.6555 1.3187C72.6372 1.33834 72.6372 1.35798 72.619 1.39726C72.6007 1.4169 72.5824 1.45618 72.5824 1.47582C72.5641 1.5151 72.5641 1.53474 72.5641 1.57402C72.5641 1.59366 72.5459 1.63294 72.5459 1.65258C72.5276 1.7115 72.5276 1.77042 72.5276 1.82934V16.4221C72.5276 16.9328 72.9114 17.3452 73.3867 17.3452C73.8619 17.3452 74.2457 16.9328 74.2457 16.4221V4.0487L86.5652 17.2863C86.8942 17.6398 87.4425 17.6398 87.7715 17.2863C87.9543 17.0899 88.0457 16.7953 88.0091 16.5399C88.0091 16.5007 88.0274 16.481 88.0274 16.4417V1.82934C87.9909 1.33834 87.607 0.92589 87.1318 0.92589ZM55.9493 0.92589C55.4741 0.92589 55.0902 1.33834 55.0902 1.84899V8.21245H43.0084V1.82934C43.0084 1.3187 42.6246 0.90625 42.1493 0.90625C41.6741 0.90625 41.2903 1.3187 41.2903 1.82934V16.4221C41.2903 16.9328 41.6741 17.3452 42.1493 17.3452C42.6246 17.3452 43.0084 16.9328 43.0084 16.4221V10.039H55.0902V16.4221C55.0902 16.9328 55.4741 17.3452 55.9493 17.3452C56.4246 17.3452 56.8084 16.9328 56.8084 16.4221V1.82934C56.8084 1.33834 56.4246 0.92589 55.9493 0.92589ZM138.438 15.5186H138.347C137.872 15.5186 137.488 15.9311 137.488 16.4417C137.488 16.9524 137.872 17.3648 138.347 17.3648H138.438C138.914 17.3648 139.298 16.9524 139.298 16.4417C139.298 15.9311 138.914 15.5186 138.438 15.5186Z" fill="white"/>
<path d="M185.62 6.9812C187.416 6.9812 188.493 5.90468 188.493 4.10778C188.493 2.31088 187.416 1.23438 185.62 1.23438C183.823 1.23438 182.746 2.31088 182.746 4.10778C182.746 5.90468 183.823 6.9812 185.62 6.9812ZM185.62 1.92237C187.052 1.92237 187.805 2.67513 187.805 4.10778C187.805 5.54044 187.052 6.29319 185.62 6.29319C184.187 6.29319 183.434 5.54044 183.434 4.10778C183.434 2.68322 184.187 1.92237 185.62 1.92237ZM185.11 5.55663V4.56105H185.644L186.348 5.55663H187.149L186.364 4.44774C186.712 4.29395 186.898 3.98637 186.898 3.55738C186.898 3.17695 186.745 2.54561 185.717 2.54561H184.43V5.55663H185.11ZM185.7 3.18506C186.129 3.18506 186.218 3.32265 186.218 3.55738C186.218 3.79211 186.129 3.92971 185.7 3.92971H185.11V3.18506H185.7Z" fill="white"/>
</g>
</g>
</g>
<defs>
<clipPath id="clip0_46_186">
<rect width="189" height="18" fill="white"/>
</clipPath>
</defs>
</svg>
