<svg width="110" height="39" viewBox="0 0 110 39" fill="none" xmlns="http://www.w3.org/2000/svg">
<path d="M13.8803 9.89014C20.1489 9.89014 23.1229 13.4696 23.1229 13.4696L20.4872 17.5656C20.4872 17.5656 17.994 14.9655 14.2186 14.9655C9.78434 14.9655 6.91718 18.3135 6.91718 22.4095C6.91718 26.4698 9.83777 29.9603 14.4145 29.9603C18.4749 29.9603 21.4845 26.8972 21.4845 26.8972L23.7996 31.1356C23.7996 31.1356 20.3626 35.0535 13.8981 35.0535C5.93772 35.0535 0.844499 29.4438 0.844499 22.4629C0.82669 15.6423 5.9021 9.89014 13.8803 9.89014Z" fill="white"/>
<path d="M41.5725 27.3244C41.5725 27.3244 44.2082 29.96 48.126 29.96C49.8178 29.96 51.2781 29.212 51.2781 27.7874C51.2781 24.2079 39.578 24.6709 39.578 16.942C39.578 12.4543 43.5849 9.87207 48.7671 9.87207C54.1809 9.87207 56.8344 12.6146 56.8344 12.6146L54.6261 17.0489C54.6261 17.0489 52.4179 14.9653 48.7315 14.9653C47.1822 14.9653 45.6685 15.6242 45.6685 17.1379C45.6685 20.5393 57.3508 20.1119 57.3508 27.8408C57.3508 31.8477 53.8604 35.0532 48.1616 35.0532C42.178 35.0532 38.83 31.5093 38.83 31.5093L41.5725 27.3244Z" fill="white"/>
<path d="M31.3862 2.375H25.3848V9.30249H31.3862V2.375Z" fill="#78BE20"/>
<path d="M38.3137 9.30273H31.3862V15.3042H38.3137V9.30273Z" fill="#E57200"/>
<path d="M25.4023 15.3039V25.3835C25.4023 33.4508 32.0448 34.4302 35.3928 34.4302C36.5148 34.4302 37.2271 34.2877 37.2271 34.2877V29.0521C37.2271 29.0521 36.7997 29.1411 36.1408 29.1411C34.4846 29.1411 31.3859 28.5712 31.3859 24.6178V15.2861H25.4023V15.3039Z" fill="white"/>
<path d="M63.9042 26.8618V24.7248L62.1055 21.8398H62.8535C62.8535 21.8398 64.1179 23.9056 64.2603 24.2618H64.2781C64.4028 23.9412 65.6672 21.8398 65.6672 21.8398H66.3974L64.5631 24.7248V26.8618H63.9042Z" fill="white"/>
<path d="M69.407 25.0454C69.407 26.3811 68.481 26.9509 67.6084 26.9509C66.6467 26.9509 65.881 26.2386 65.881 25.0989C65.881 23.9057 66.6823 23.1934 67.6618 23.1934C68.6947 23.1934 69.407 23.9413 69.407 25.0454ZM66.5399 25.0811C66.5399 25.8646 66.9851 26.4701 67.6262 26.4701C68.2495 26.4701 68.7125 25.8824 68.7125 25.0632C68.7125 24.4578 68.4097 23.692 67.6262 23.692C66.8782 23.692 66.5399 24.4043 66.5399 25.0811Z" fill="white"/>
<path d="M73.0757 25.8825C73.0757 26.2565 73.0757 26.5948 73.1114 26.8798H72.5237L72.4881 26.2921H72.4702C72.31 26.577 71.9182 26.9688 71.2771 26.9688C70.7072 26.9688 70.0305 26.6483 70.0305 25.3839V23.2646H70.6894V25.2592C70.6894 25.9359 70.9031 26.4167 71.4908 26.4167C71.936 26.4167 72.2387 26.114 72.3456 25.8113C72.3812 25.7222 72.399 25.5976 72.399 25.4729V23.2646H73.0579V25.8825H73.0757Z" fill="white"/>
<path d="M73.8949 24.3865C73.8949 23.9591 73.8949 23.603 73.8593 23.2646H74.4291L74.4647 23.9769H74.4825C74.6428 23.4961 75.0524 23.1934 75.4798 23.1934C75.5511 23.1934 75.6045 23.1934 75.6579 23.2112V23.8345C75.5867 23.8167 75.5154 23.8167 75.4264 23.8167C74.9634 23.8167 74.6428 24.155 74.5538 24.6536C74.536 24.7427 74.536 24.8495 74.536 24.9564V26.8797H73.8771V24.3865H73.8949Z" fill="white"/>
<path d="M78.7029 21.9108C79.0235 21.8574 79.718 21.8218 80.2345 21.8218C80.8756 21.8218 81.3386 21.9642 81.6413 22.2314C81.9085 22.4629 82.0865 22.8369 82.0865 23.2821C82.0865 23.7273 81.9619 24.1013 81.6948 24.3506C81.3386 24.7067 80.7865 24.9026 80.1632 24.9026C79.9673 24.9026 79.5043 24.9026 79.344 24.8492V26.8616H78.7029V21.9108ZM79.344 24.3328C79.4865 24.3684 79.9495 24.3862 80.1632 24.3862C80.9468 24.3862 81.4276 23.9944 81.4276 23.3177C81.4276 22.641 80.9468 22.3204 80.2523 22.3204C79.9673 22.3204 79.4687 22.3382 79.344 22.3738V24.3328Z" fill="white"/>
<path d="M85.2388 26.0069C85.2388 26.3274 85.2566 26.6302 85.2922 26.8617H84.7045L84.6511 26.4165H84.6333C84.4374 26.7014 84.0456 26.9507 83.5291 26.9507C82.799 26.9507 82.425 26.4343 82.425 25.9178C82.425 25.0452 83.1908 24.5644 84.5977 24.5822V24.511C84.5977 24.226 84.5086 23.674 83.7785 23.6918C83.4401 23.6918 83.0839 23.7808 82.8346 23.9589L82.6921 23.5137C82.9949 23.3356 83.4223 23.2109 83.8853 23.2109C84.9894 23.2109 85.2566 23.9589 85.2566 24.6712V26.0069H85.2388ZM84.6155 25.0274C83.9031 25.0096 83.0839 25.1342 83.0839 25.8466C83.0839 26.274 83.3689 26.4699 83.6894 26.4699C84.1702 26.4699 84.473 26.1671 84.5798 25.8644C84.5977 25.7932 84.6155 25.7219 84.6155 25.6507V25.0274Z" fill="white"/>
<path d="M85.9865 24.3865C85.9865 23.9591 85.9865 23.603 85.9509 23.2646H86.5208L86.5564 23.9769H86.5742C86.7345 23.4961 87.1441 23.1934 87.5715 23.1934C87.6427 23.1934 87.6962 23.1934 87.7496 23.2112V23.8345C87.6783 23.8167 87.6249 23.8167 87.5181 23.8167C87.0551 23.8167 86.7345 24.155 86.6455 24.6536C86.6277 24.7427 86.6277 24.8495 86.6277 24.9564V26.8797H85.9865V24.3865Z" fill="white"/>
<path d="M89.5305 22.4097V23.2645H90.4744V23.7631H89.5305V25.7042C89.5305 26.1494 89.6552 26.3988 90.0291 26.3988C90.2072 26.3988 90.3141 26.3809 90.4031 26.3453L90.4387 26.844C90.3141 26.8796 90.1182 26.933 89.8511 26.933C89.5483 26.933 89.299 26.8262 89.1387 26.6659C88.9606 26.47 88.8894 26.1494 88.8894 25.722V23.7631H88.3373V23.2645H88.8894V22.5878L89.5305 22.4097Z" fill="white"/>
<path d="M91.1156 24.2438C91.1156 23.8698 91.1156 23.5671 91.08 23.2643H91.6676L91.7033 23.852H91.7211C91.8991 23.5137 92.3087 23.1753 92.9142 23.1753C93.4129 23.1753 94.1786 23.478 94.1786 24.7068V26.8438H93.5197V24.7602C93.5197 24.1726 93.306 23.6917 92.6827 23.6917C92.2553 23.6917 91.917 23.9945 91.8101 24.3685C91.7745 24.4575 91.7567 24.5644 91.7567 24.6712V26.8438H91.0978V24.2438H91.1156Z" fill="white"/>
<path d="M95.3895 25.1879C95.4073 26.0783 95.9594 26.4345 96.6183 26.4345C97.0813 26.4345 97.3841 26.3455 97.6156 26.2564L97.7402 26.7194C97.5087 26.8263 97.0991 26.9509 96.5293 26.9509C95.4252 26.9509 94.7662 26.2208 94.7662 25.1345C94.7662 24.0482 95.4073 23.1934 96.458 23.1934C97.6334 23.1934 97.9361 24.2262 97.9361 24.8852C97.9361 25.0098 97.9361 25.1167 97.9183 25.1879H95.3895ZM97.3128 24.7249C97.3128 24.3153 97.1348 23.6742 96.4046 23.6742C95.7279 23.6742 95.4608 24.2797 95.4073 24.7249H97.3128Z" fill="white"/>
<path d="M98.5415 24.3865C98.5415 23.9591 98.5415 23.603 98.5059 23.2646H99.0757L99.1114 23.9769H99.1292C99.2894 23.4961 99.699 23.1934 100.126 23.1934C100.198 23.1934 100.251 23.1934 100.305 23.2112V23.8345C100.233 23.8167 100.162 23.8167 100.073 23.8167C99.61 23.8167 99.2894 24.155 99.2004 24.6536C99.1826 24.7427 99.1826 24.8495 99.1826 24.9564V26.8797H98.5237V24.3865H98.5415Z" fill="white"/>
<path d="M103.599 22.267C103.599 22.4985 103.439 22.6766 103.19 22.6766C102.958 22.6766 102.798 22.4985 102.798 22.267C102.798 22.0355 102.958 21.8574 103.207 21.8574C103.421 21.8574 103.599 22.0355 103.599 22.267ZM102.869 23.2643H103.528V26.8616H102.869V23.2643Z" fill="white"/>
<path d="M104.258 24.2438C104.258 23.8698 104.258 23.5671 104.223 23.2643H104.81L104.846 23.852H104.864C105.042 23.5137 105.452 23.1753 106.057 23.1753C106.556 23.1753 107.321 23.478 107.321 24.7068V26.8438H106.662V24.7602C106.662 24.1726 106.449 23.6917 105.825 23.6917C105.398 23.6917 105.06 23.9945 104.953 24.3685C104.917 24.4575 104.899 24.5644 104.899 24.6712V26.8438H104.241V24.2438H104.258Z" fill="white"/>
<path d="M62.2479 33.5221C62.5328 33.7001 62.9602 33.8426 63.4054 33.8426C64.0643 33.8426 64.4561 33.4864 64.4561 32.9878C64.4561 32.5248 64.189 32.2576 63.5123 31.9905C62.6931 31.6878 62.1944 31.2604 62.1944 30.5658C62.1944 29.7823 62.8356 29.2124 63.815 29.2124C64.3137 29.2124 64.7054 29.3371 64.9191 29.4617L64.7411 29.996C64.5808 29.9069 64.2424 29.7645 63.7972 29.7645C63.1205 29.7645 62.8534 30.1741 62.8534 30.5124C62.8534 30.9754 63.1561 31.207 63.8506 31.4741C64.7054 31.7946 65.115 32.2042 65.115 32.9522C65.115 33.7179 64.5452 34.3947 63.3698 34.3947C62.889 34.3947 62.3547 34.2522 62.0876 34.0741L62.2479 33.5221Z" fill="white"/>
<path d="M73.877 33.4507C73.877 33.7713 73.8948 34.074 73.9304 34.3055H73.3428L73.2893 33.8603H73.2715C73.0756 34.1452 72.6839 34.3946 72.1674 34.3946C71.4373 34.3946 71.0633 33.8781 71.0633 33.3617C71.0633 32.4891 71.8469 32.0082 73.2359 32.026V31.9548C73.2359 31.6699 73.1469 31.1178 72.4167 31.1356C72.0784 31.1356 71.7222 31.2247 71.4729 31.4027L71.3304 30.9575C71.6332 30.7794 72.0606 30.6548 72.5236 30.6548C73.6277 30.6548 73.8948 31.4027 73.8948 32.1151V33.4507H73.877ZM73.2359 32.4712C72.5236 32.4534 71.7044 32.5781 71.7044 33.2904C71.7044 33.7178 71.9893 33.9137 72.3099 33.9137C72.7907 33.9137 73.0935 33.611 73.2003 33.3082C73.2181 33.237 73.2359 33.1658 73.2359 33.0945V32.4712Z" fill="white"/>
<path d="M74.5715 31.8304C74.5715 31.403 74.5715 31.0468 74.5359 30.7084H75.1057L75.1413 31.4208H75.1592C75.3194 30.9399 75.729 30.6372 76.1564 30.6372C76.2277 30.6372 76.2811 30.6372 76.3345 30.655V31.2783C76.2633 31.2605 76.2099 31.2605 76.103 31.2605C75.64 31.2605 75.3194 31.5989 75.2304 32.0975C75.2126 32.1865 75.2126 32.2934 75.2126 32.4002V34.3057H74.5537V31.8304H74.5715Z" fill="white"/>
<path d="M77.9909 29.8354V30.6903H78.9347V31.1889H77.9909V33.13C77.9909 33.5752 78.1155 33.8245 78.4895 33.8245C78.6676 33.8245 78.7744 33.8067 78.8635 33.7711L78.8991 34.2698C78.7744 34.3054 78.5785 34.3588 78.3114 34.3588C78.0087 34.3588 77.7594 34.2519 77.5991 34.0917C77.421 33.8958 77.3498 33.5752 77.3498 33.1478V31.1889H76.7977V30.6903H77.3498V30.0313L77.9909 29.8354Z" fill="white"/>
<path d="M81.2675 33.5221C81.5524 33.7001 81.9799 33.8426 82.4251 33.8426C83.084 33.8426 83.4758 33.4864 83.4758 32.9878C83.4758 32.5248 83.2086 32.2576 82.5319 31.9905C81.7127 31.6878 81.2141 31.2604 81.2141 30.5658C81.2141 29.7823 81.8552 29.2124 82.8347 29.2124C83.3333 29.2124 83.7251 29.3371 83.9388 29.4617L83.7607 29.996C83.6004 29.9069 83.2621 29.7645 82.8169 29.7645C82.1401 29.7645 81.873 30.1741 81.873 30.5124C81.873 30.9754 82.1757 31.207 82.8703 31.4741C83.7251 31.7946 84.1347 32.2042 84.1347 32.9522C84.1347 33.7179 83.5648 34.3947 82.3894 34.3947C81.9086 34.3947 81.3744 34.2522 81.1072 34.0741L81.2675 33.5221Z" fill="white"/>
<path d="M62.2479 33.5221C62.5328 33.7001 62.9602 33.8426 63.4054 33.8426C64.0643 33.8426 64.4561 33.4864 64.4561 32.9878C64.4561 32.5248 64.189 32.2576 63.5123 31.9905C62.6931 31.6878 62.1944 31.2604 62.1944 30.5658C62.1944 29.7823 62.8356 29.2124 63.815 29.2124C64.3137 29.2124 64.7054 29.3371 64.9191 29.4617L64.7411 29.996C64.5808 29.9069 64.2424 29.7645 63.7972 29.7645C63.1205 29.7645 62.8534 30.1741 62.8534 30.5124C62.8534 30.9754 63.1561 31.207 63.8506 31.4741C64.7054 31.7946 65.115 32.2042 65.115 32.9522C65.115 33.7179 64.5452 34.3947 63.3698 34.3947C62.889 34.3947 62.3547 34.2522 62.0876 34.0741L62.2479 33.5221Z" fill="white"/>
<path d="M88.088 32.4712C88.088 33.8069 87.1619 34.3767 86.2893 34.3767C85.3277 34.3767 84.5619 33.6644 84.5619 32.5246C84.5619 31.3315 85.3633 30.6191 86.3428 30.6191C87.3934 30.6369 88.088 31.3849 88.088 32.4712ZM85.2386 32.5068C85.2386 33.2904 85.6838 33.8959 86.3249 33.8959C86.9482 33.8959 87.4113 33.3082 87.4113 32.489C87.4113 31.8835 87.1085 31.1178 86.3249 31.1178C85.577 31.1178 85.2386 31.8301 85.2386 32.5068Z" fill="white"/>
<path d="M89.317 29.0166H88.6581V34.3057H89.317V29.0166Z" fill="white"/>
<path d="M93.0566 33.3085C93.0566 33.6825 93.0566 34.0209 93.0922 34.3058H92.5045L92.4689 33.7181H92.4511C92.2908 34.0031 91.899 34.3948 91.2579 34.3948C90.688 34.3948 90.0113 34.0743 90.0113 32.8099V30.7085H90.6702V32.703C90.6702 33.3798 90.8839 33.8606 91.4716 33.8606C91.9168 33.8606 92.2196 33.5579 92.3264 33.2551C92.362 33.1661 92.3798 33.0414 92.3798 32.9167V30.7085H93.0388V33.3085H93.0566Z" fill="white"/>
<path d="M94.8732 29.8354V30.6903H95.8171V31.1889H94.8732V33.13C94.8732 33.5752 94.9979 33.8245 95.3719 33.8245C95.55 33.8245 95.6568 33.8067 95.7459 33.7711L95.7815 34.2698C95.6568 34.3054 95.4609 34.3588 95.1938 34.3588C94.8911 34.3588 94.6417 34.2519 94.4815 34.0917C94.3034 33.8958 94.2321 33.5752 94.2321 33.1478V31.1889H93.6801V30.6903H94.2321V30.0313L94.8732 29.8354Z" fill="white"/>
<path d="M97.1704 29.6933C97.1704 29.9248 97.0101 30.1029 96.7608 30.1029C96.5293 30.1029 96.369 29.9248 96.369 29.6933C96.369 29.4618 96.5293 29.2837 96.7786 29.2837C97.0101 29.2837 97.1704 29.4618 97.1704 29.6933ZM96.4402 30.7084H97.0991V34.3057H96.4402V30.7084Z" fill="white"/>
<path d="M101.195 32.4712C101.195 33.8069 100.269 34.3767 99.3963 34.3767C98.4346 34.3767 97.6689 33.6644 97.6689 32.5246C97.6689 31.3315 98.4702 30.6191 99.4497 30.6191C100.5 30.6369 101.195 31.3849 101.195 32.4712ZM98.3456 32.5068C98.3456 33.2904 98.7908 33.8959 99.4319 33.8959C100.055 33.8959 100.518 33.3082 100.518 32.489C100.518 31.8835 100.215 31.1178 99.4319 31.1178C98.6839 31.1178 98.3456 31.8301 98.3456 32.5068Z" fill="white"/>
<path d="M101.712 31.6701C101.712 31.2961 101.712 30.9933 101.676 30.6906H102.264L102.299 31.2783H102.317C102.495 30.9399 102.905 30.6016 103.51 30.6016C104.009 30.6016 104.775 30.9043 104.775 32.1331V34.2701H104.116V32.1865C104.116 31.5988 103.902 31.118 103.279 31.118C102.851 31.118 102.513 31.4207 102.406 31.7947C102.37 31.8838 102.353 31.9906 102.353 32.0975V34.3057H101.694V31.6701H101.712Z" fill="white"/>
<path d="M105.469 33.6468C105.665 33.7715 106.021 33.8962 106.342 33.8962C106.805 33.8962 107.036 33.6646 107.036 33.3619C107.036 33.0414 106.858 32.8811 106.377 32.703C105.719 32.4715 105.416 32.1153 105.416 31.6879C105.416 31.1002 105.897 30.6372 106.662 30.6372C107.019 30.6372 107.339 30.7263 107.535 30.8687L107.375 31.3495C107.232 31.2605 106.965 31.1358 106.645 31.1358C106.253 31.1358 106.057 31.3674 106.057 31.6345C106.057 31.9372 106.271 32.0619 106.734 32.2578C107.357 32.4893 107.677 32.8098 107.677 33.3441C107.677 33.9852 107.179 34.4304 106.342 34.4304C105.95 34.4304 105.576 34.3236 105.327 34.1811L105.469 33.6468Z" fill="white"/>
<path d="M69.4247 30.637H69.4069C69.3891 30.637 69.3713 30.637 69.3713 30.637C69.0507 30.637 68.837 30.726 68.6411 30.8863C68.5165 30.9931 68.3918 31.1178 68.285 31.2959C68.1247 30.9041 67.7863 30.6191 67.3589 30.6191C67.3411 30.6191 67.3411 30.6191 67.3233 30.6191C67.3055 30.6191 67.3055 30.6191 67.2877 30.6191C66.7713 30.6191 66.4507 30.9041 66.2726 31.2068L66.2548 30.6904H66.1836H65.7206H65.6493C65.6671 30.9931 65.6849 31.2781 65.6849 31.6698V34.3055H65.7562H66.2904H66.3617V32.1329C66.3617 32.026 66.3795 31.9014 66.4151 31.8123C66.5041 31.4918 66.7891 31.189 67.1452 31.1712C67.5904 31.189 67.822 31.5986 67.822 32.1507V34.3055H67.8932H68.4274H68.4987V32.0794C68.4987 31.9548 68.5165 31.8479 68.5521 31.7589C68.659 31.4561 68.9083 31.189 69.2466 31.1712C69.7096 31.189 69.9412 31.5986 69.9412 32.2753V34.3055H70.0124H70.5466H70.6179V32.1863C70.5466 30.9397 69.8877 30.637 69.4247 30.637Z" fill="white"/>
</svg>
