<svg width="143" height="37" viewBox="0 0 143 37" fill="none" xmlns="http://www.w3.org/2000/svg">
<g clip-path="url(#clip0_2390_3342)">
<path d="M54.48 3.95002C53.95 2.69002 53.65 2.14002 52.94 1.01002L55.91 0.0200195C56.72 1.38002 57.34 2.74002 57.75 3.95002H63.84C65.22 3.95002 66.16 3.90002 67.01 3.77002V6.81002C66.23 6.71002 65.43 6.66002 63.94 6.66002H54.73C54.6433 7.92002 54.5667 8.82669 54.5 9.38002H61.47C62.8 9.38002 63.48 9.36002 64.09 9.25002C64.09 9.38002 64.06 9.45002 64.06 9.50002C64.01 9.90002 63.98 10.2 63.96 11.26C63.86 14.96 63.53 18.28 63.08 20.09C62.5 22.48 61.7 23.11 59.16 23.11C58.28 23.11 57.5 23.06 55.76 22.93C55.68 21.77 55.46 20.94 55.05 20.01C56.48 20.26 57.67 20.36 58.8 20.36C59.93 20.36 60.16 20.08 60.51 18.35C60.81 16.84 60.94 15.18 61.06 12.01H54.12C53.06 17.07 50.77 20.29 46.04 23.41C45.41 22.3 44.93 21.75 44 21.02C46.21 19.64 47.3 18.76 48.5 17.3C50.19 15.26 51.09 12.97 51.47 9.70002C51.57 8.77002 51.62 8.17002 51.65 6.66002H47.52C46.26 6.66002 45.23 6.71002 44.38 6.81002V3.77002C45.29 3.90002 46.22 3.95002 47.52 3.95002H54.47H54.48Z" fill="white"/>
<path d="M72.34 13.2602C72.06 15.6302 71.43 18.3202 70.58 20.1302C70 19.3002 69.5 18.8702 68.89 18.4402C69.69 16.7802 70.25 14.5702 70.45 12.3502L72.34 13.2602ZM71.1 1.99023C71.73 4.08023 72.01 5.16023 72.38 7.30023L70.47 8.08023C70.09 5.82023 69.82 4.63023 69.16 2.70023L71.1 2.00023V1.99023ZM76.36 17.9902C76.03 16.2302 75.63 14.7702 75.08 13.3602V20.8802C75.08 22.1402 75.11 23.0202 75.21 23.6702H72.49C72.59 22.9202 72.64 21.9802 72.64 20.8802V11.2902H71.46C70.53 11.2902 70.08 11.3402 69.42 11.4202V8.73023C70 8.81023 70.5 8.83023 71.48 8.83023H72.64V2.54023C72.64 1.43023 72.61 0.900234 72.51 0.300234H75.2C75.1 0.880234 75.07 1.38023 75.07 2.51023V7.22023C75.65 5.74023 76.08 4.25023 76.43 1.99023L78.19 2.74023C78.19 2.54023 78.19 2.36023 78.16 2.21023C78.87 2.29023 79.49 2.31023 80.6 2.31023H83.77C83.64 1.91023 83.49 1.53023 83.12 0.720234L85.61 -0.00976562C86.14 1.25023 86.29 1.63023 86.52 2.30023H89.64C90.75 2.30023 91.5 2.25023 92.26 2.15023V4.72023C91.53 4.62023 90.78 4.59023 89.64 4.59023H86.67V5.92023H89.16C90.02 5.92023 90.57 5.90023 91.1 5.84023C91.05 6.39023 91.02 6.87023 91.02 7.60023V9.21023C91.88 9.18023 92.1 9.16023 92.51 9.08023V11.4702C92.06 11.3902 91.91 11.3702 91.02 11.3402V13.0502C91.02 13.7802 91.05 14.3302 91.1 14.7902C90.5 14.7402 89.99 14.7102 89.24 14.7102H86.67V15.9702H89.36C90.19 15.9702 90.67 15.9402 91.25 15.8902C91.2 16.3702 91.17 16.9702 91.17 17.7302V21.2302C91.17 22.1902 91.2 22.9202 91.3 23.5402H88.58V22.4802H83.07V23.5602H80.48C80.56 22.8802 80.6 22.3002 80.6 21.4502V17.6502C80.6 16.9202 80.55 16.3402 80.5 15.8902C81.08 15.9402 81.58 15.9702 82.46 15.9702H84.35V14.7102H82.54C81.96 14.7102 81.46 14.7402 80.98 14.8102V12.5702C81.46 12.6502 81.86 12.6702 82.62 12.6702H84.36V11.3402H80.46C80.38 13.4002 80.06 16.2702 79.75 17.9802C79.35 20.1202 78.92 21.4502 78.01 23.1902C77.18 22.4102 76.78 22.1102 75.87 21.5802C76.65 20.3002 77.1 19.0602 77.48 17.2302L76.35 17.9602L76.36 17.9902ZM76.54 12.3302C76.99 13.2902 77.42 14.4702 77.75 15.6502C77.95 14.3202 78.08 12.9302 78.13 11.5202C78.21 9.71024 78.28 6.79023 78.28 5.48023C78.28 4.78023 78.28 3.97023 78.23 3.27023C77.85 4.91023 77.37 6.47023 76.72 8.05023L75.08 7.30023V8.83023H75.89C76.69 8.83023 77.15 8.81023 77.63 8.75023V11.3902C77.15 11.3102 76.7 11.2902 75.87 11.2902H75.09V13.2802L76.55 12.3202L76.54 12.3302ZM84.37 9.23023V7.95023H82.91C82.33 7.95023 81.83 7.97023 81.3 8.05023V5.84023C81.8 5.92023 82.26 5.94023 83.01 5.94023H84.37V4.61023H80.62C80.62 7.03023 80.57 8.38023 80.54 9.24023H84.37V9.23023ZM83.08 18.2202V20.2602H88.59V18.2202H83.08ZM88.79 9.23023V7.95023H86.68V9.23023H88.79ZM88.79 11.3702H86.68V12.7002H88.79V11.3702Z" fill="white"/>
<path d="M96.19 5.99039C96.19 5.01039 96.14 4.33039 96.01 3.80039C96.97 3.88039 98.12 3.90039 99.18 3.90039H104.21V2.34039C104.21 1.48039 104.18 1.01039 104.08 0.400391H107.17C107.04 1.13039 107.02 1.48039 107.02 2.31039V3.89039H112.93C113.61 3.89039 114.24 3.84039 115.37 3.74039C115.27 4.39039 115.19 5.45039 115.19 5.98039V14.9604C115.19 16.1204 115.19 16.4704 115.24 16.9204C115.97 17.2204 116.4 17.3704 117.53 17.6204C117.25 20.2904 116.8 21.5504 115.84 22.2804C114.91 22.9804 113.5 23.2104 110.2 23.2104C105.9 23.2104 104.19 22.5304 104.19 20.8204V17.0504H98.83V19.7904H96.01C96.11 18.9804 96.16 17.5504 96.16 16.2204V5.99039H96.19ZM98.85 6.29039V9.26039H104.21V6.29039H98.85ZM98.85 11.6204V14.6104H104.21V11.6204H98.85ZM112.54 9.26039V6.29039H107.03V9.26039H112.54ZM112.54 14.6204V11.6304H107.03V14.6204H112.54ZM107.03 19.5504C107.03 19.9804 107.11 20.1504 107.36 20.2804C107.74 20.5104 108.77 20.6304 110.3 20.6304C112.94 20.6304 113.6 20.5304 114.07 20.0304C114.45 19.6004 114.65 18.8204 114.75 17.1404C114.22 17.0904 113.69 17.0604 112.94 17.0604H107.03V19.5504Z" fill="white"/>
<path d="M139.06 10.1904C140.7 10.1904 141.63 10.1404 142.48 10.0404V13.0804C141.5 12.9804 140.59 12.9304 139.06 12.9304H132.89V20.2804C132.89 22.4904 132.06 23.0504 128.66 23.0504C128.08 23.0504 127.58 23.0204 125.87 22.9504C125.64 21.4704 125.54 21.0104 125.09 19.9304C126.63 20.1604 127.51 20.2304 128.74 20.2304C129.77 20.2304 129.95 20.1304 129.95 19.5804V12.9404H123.18C121.67 12.9404 120.81 12.9904 119.76 13.0904V10.0504C120.69 10.1504 121.62 10.2004 123.26 10.2004H129.95V9.09037C129.95 8.28037 129.92 7.76037 129.87 7.18037H131.18C132.89 6.17037 133.6 5.62037 135.46 3.96037H125.42C124.09 3.96037 123.26 4.01037 122.38 4.11037V1.13037C123.26 1.23037 124.09 1.28037 125.4 1.28037H136.8C138.08 1.28037 138.49 1.25037 138.99 1.15037L140.63 2.99037C140.21 3.39037 139.42 4.13704 138.26 5.23037C137.03 6.36037 135.06 7.82037 132.9 9.11037V10.1904H139.07H139.06Z" fill="white"/>
<path d="M48.04 36.87C47.38 36.87 46.77 36.71 46.21 36.38C45.65 36.05 45.22 35.61 44.9 35.05C44.58 34.49 44.42 33.88 44.42 33.21C44.42 32.54 44.58 31.92 44.91 31.36C45.24 30.8 45.67 30.35 46.22 30.03C46.77 29.7 47.38 29.54 48.04 29.54C48.77 29.54 49.43 29.74 50.02 30.15C50.61 30.56 51.04 31.1 51.32 31.78L50.46 32.02C50.24 31.53 49.92 31.14 49.5 30.85C49.08 30.56 48.6 30.41 48.05 30.41C47.54 30.41 47.07 30.52 46.66 30.77C46.25 31.02 45.92 31.36 45.68 31.79C45.44 32.22 45.33 32.7 45.33 33.22C45.33 33.74 45.45 34.2 45.68 34.63C45.91 35.06 46.24 35.4 46.65 35.65C47.06 35.9 47.53 36.02 48.05 36.02C48.6 36.02 49.09 35.88 49.51 35.59C49.93 35.31 50.24 34.92 50.45 34.42L51.32 34.66C51.04 35.32 50.61 35.86 50.03 36.27C49.45 36.68 48.79 36.88 48.05 36.88L48.04 36.87Z" fill="white"/>
<path d="M55.23 36.9101C54.7 36.9101 54.22 36.7901 53.77 36.5601C53.32 36.3301 52.96 35.9901 52.69 35.5301C52.42 35.0801 52.28 34.5401 52.28 33.9101V29.6401H53.18V33.9101C53.18 34.3701 53.28 34.7601 53.47 35.0901C53.66 35.4101 53.92 35.6601 54.23 35.8201C54.54 35.9801 54.88 36.0601 55.23 36.0601C55.58 36.0601 55.91 35.9801 56.23 35.8201C56.54 35.6601 56.8 35.4201 57 35.0901C57.2 34.7601 57.3 34.3701 57.3 33.9101V29.6401H58.19V33.9101C58.19 34.5301 58.05 35.0701 57.78 35.5201C57.51 35.9701 57.15 36.3201 56.7 36.5501C56.25 36.7901 55.76 36.9001 55.23 36.9001V36.9101Z" fill="white"/>
<path d="M59.4 29.6499H62.53C62.97 29.6499 63.35 29.7299 63.67 29.8799C63.99 30.0299 64.24 30.2499 64.41 30.5299C64.58 30.8099 64.67 31.1299 64.67 31.4899C64.67 31.8899 64.57 32.2299 64.38 32.5199C64.19 32.8099 63.93 33.0199 63.6 33.1499C64.03 33.2699 64.36 33.4799 64.59 33.7799C64.82 34.0699 64.93 34.4499 64.93 34.8999C64.93 35.2999 64.84 35.6399 64.66 35.9299C64.48 36.2199 64.22 36.4499 63.88 36.5999C63.54 36.7599 63.14 36.8399 62.66 36.8399H59.41V29.6499H59.4ZM62.44 32.8299C62.86 32.8299 63.19 32.7199 63.44 32.4999C63.69 32.2799 63.81 31.9799 63.81 31.6099C63.81 31.2599 63.69 30.9799 63.46 30.7699C63.23 30.5599 62.91 30.4599 62.5 30.4599H60.26V32.8299H62.45H62.44ZM62.6 36.0199C63.04 36.0199 63.39 35.9099 63.64 35.6899C63.89 35.4699 64.01 35.1599 64.01 34.7699C64.01 34.3799 63.88 34.0599 63.61 33.8599C63.34 33.6599 62.99 33.5699 62.54 33.5699H60.25V36.0199H62.59H62.6Z" fill="white"/>
<path d="M65.92 29.6499H66.82V36.8399H65.92V29.6499Z" fill="white"/>
<path d="M68.11 29.6501H73.14V30.4801H69V32.8301H72.73V33.6401H69V36.0001H73.14V36.8301H68.11V29.6401V29.6501Z" fill="white"/>
<path d="M76.5 30.4899H74.04V29.6499H79.77V30.4899H77.4V36.8299H76.51V30.4899H76.5Z" fill="white"/>
<path d="M80.72 29.6501H85.75V30.4801H81.61V32.8301H85.34V33.6401H81.61V36.0001H85.75V36.8301H80.72V29.6401V29.6501Z" fill="white"/>
<path d="M90.14 36.87C89.48 36.87 88.87 36.71 88.31 36.38C87.75 36.05 87.32 35.61 87 35.05C86.68 34.49 86.52 33.88 86.52 33.21C86.52 32.54 86.68 31.92 87.01 31.36C87.34 30.8 87.77 30.35 88.32 30.03C88.87 29.7 89.48 29.54 90.14 29.54C90.87 29.54 91.53 29.74 92.12 30.15C92.71 30.56 93.14 31.1 93.42 31.78L92.56 32.02C92.34 31.53 92.02 31.14 91.6 30.85C91.18 30.56 90.7 30.41 90.15 30.41C89.64 30.41 89.17 30.52 88.76 30.77C88.35 31.02 88.02 31.36 87.78 31.79C87.54 32.22 87.43 32.7 87.43 33.22C87.43 33.74 87.55 34.2 87.78 34.63C88.01 35.06 88.34 35.4 88.75 35.65C89.16 35.9 89.63 36.02 90.15 36.02C90.7 36.02 91.19 35.88 91.61 35.59C92.03 35.31 92.34 34.92 92.55 34.42L93.42 34.66C93.14 35.32 92.71 35.86 92.13 36.27C91.55 36.68 90.89 36.88 90.15 36.88L90.14 36.87Z" fill="white"/>
<path d="M94.42 29.6499H95.31V32.8299H99.39V29.6499H100.28V36.8399H99.39V33.6499H95.31V36.8399H94.42V29.6499Z" fill="white"/>
<path d="M104.31 29.6501H105.2V36.0001H108.92V36.8301H104.31V29.6401V29.6501Z" fill="white"/>
<path d="M109.96 29.6499H110.86V36.8399H109.96V29.6499Z" fill="white"/>
<path d="M112.15 29.6499H113.79L116.06 36.4999L118.33 29.6499H119.98V36.8399H119.11V30.0499L116.87 36.8399H115.24L113.02 30.0999V36.8399H112.15V29.6499Z" fill="white"/>
<path d="M121.26 29.6499H122.16V36.8399H121.26V29.6499Z" fill="white"/>
<path d="M125.63 30.4899H123.17V29.6499H128.9V30.4899H126.53V36.8299H125.64V30.4899H125.63Z" fill="white"/>
<path d="M129.84 29.6501H134.87V30.4801H130.73V32.8301H134.46V33.6401H130.73V36.0001H134.87V36.8301H129.84V29.6401V29.6501Z" fill="white"/>
<path d="M136 29.6499H138.39C139.07 29.6499 139.69 29.8099 140.25 30.1199C140.81 30.4299 141.25 30.8599 141.58 31.4099C141.91 31.9599 142.07 32.5699 142.07 33.2499C142.07 33.9299 141.91 34.5299 141.59 35.0799C141.27 35.6299 140.83 36.0599 140.27 36.3699C139.71 36.6799 139.09 36.8399 138.4 36.8399H136.01V29.6499H136ZM138.4 35.9999C138.94 35.9999 139.42 35.8799 139.85 35.6399C140.27 35.3999 140.6 35.0699 140.84 34.6499C141.08 34.2299 141.19 33.7599 141.19 33.2399C141.19 32.7199 141.07 32.2399 140.83 31.8199C140.59 31.3999 140.26 31.0699 139.83 30.8299C139.41 30.5899 138.93 30.4799 138.39 30.4799H136.9V35.9999H138.39H138.4Z" fill="white"/>
<path d="M31.91 9.24L21.89 15.06C18.25 17.17 13.76 17.18 10.11 15.08L0 9.24L15.9 0L31.9 9.24H31.91Z" fill="#C8FB24"/>
<path d="M9.59001 17.97L0.0600098 12.46L0.0100098 27.67L15.95 36.87L31.85 27.63L31.89 12.5L22.51 17.95C18.51 20.27 13.58 20.28 9.58001 17.97H9.59001Z" fill="#03E1E2"/>
</g>
<defs>
<clipPath id="clip0_2390_3342">
<rect width="142.48" height="36.91" fill="white"/>
</clipPath>
</defs>
</svg>
