<svg width="132" height="37" viewBox="0 0 132 37" fill="none" xmlns="http://www.w3.org/2000/svg">
<g clip-path="url(#clip0_2216_3785)">
<path d="M23.5915 10.0145C21.8844 8.91778 21.2095 8.93266 19.5372 10.0045C17.8599 11.0764 15.731 12.4659 15.731 12.4659L17.3388 13.4931L21.542 10.8333V10.0839C21.542 10.0839 21.5866 9.95492 22.589 10.5901C22.7429 10.6894 26.4151 13.0415 26.4151 13.0415L27.3579 12.4411C27.3579 12.4411 25.2985 11.1062 23.5915 10.0145Z" fill="white"/>
<path d="M23.5716 6.13849C21.8645 5.0418 21.1896 5.05669 19.5123 6.12857C17.8351 7.20045 12.7387 10.5352 12.7387 10.5352L14.3961 11.6021L21.542 7.00691V6.2427C21.542 6.2427 21.666 6.15338 22.6089 6.69428C22.9761 6.90766 23.3284 7.17067 29.4322 11.1059L30.3453 10.5153C30.3453 10.5203 25.2787 7.23518 23.5716 6.13849ZM2.12904 14.6639L18.9863 25.4671C18.9863 25.4671 20.6487 26.6233 21.4626 26.5538C21.4626 26.5538 22.2119 26.5538 23.3979 25.74L40.816 14.4952L42.5826 15.9541L24.5194 27.7349C24.5194 27.7349 22.1523 29.3973 21.5221 29.1839L21.5271 27.6654C21.5271 27.6654 21.542 27.6009 21.4229 27.6009C21.1896 27.6059 20.6487 27.5562 20.083 27.2684C19.299 26.8714 1.41942 15.2544 1.41942 15.2544L2.12904 14.6639Z" fill="white"/>
<path d="M5.23551 12.1382L18.9963 21.0011C18.9963 21.0011 20.6587 22.1573 21.4725 22.0878C21.4725 22.0878 22.2169 22.0878 23.4078 21.274L37.7988 12.0142L39.5704 13.4731L24.4003 23.3235C24.4003 23.3235 22.1524 24.9561 21.5519 24.7328L21.542 23.2093C21.542 23.2093 21.5519 23.1349 21.4675 23.1399C21.2591 23.1448 20.609 23.0853 20.0979 22.8074C19.3238 22.3906 4.49611 12.7337 4.49611 12.7337L5.23551 12.1382Z" fill="white"/>
<path d="M8.33688 9.60254L18.9465 16.401C18.9465 16.401 20.6039 17.5275 21.4376 17.5077C21.4376 17.5077 22.3954 17.6218 23.5814 16.808L34.7667 9.60254L36.5134 11.0516L24.6285 18.6937C24.6285 18.6937 22.4897 20.2568 21.5071 20.1179C21.5071 20.1179 21.5021 18.6341 21.5071 18.6043C21.5121 18.5696 21.4476 18.5597 21.4128 18.5597C21.0258 18.5646 20.4203 18.4108 20.0581 18.2272C19.2691 17.8302 7.60741 10.198 7.60741 10.198L8.33688 9.60254Z" fill="white"/>
<path d="M23.5863 2.2132C21.8792 1.11651 21.2043 1.13139 19.532 2.20327C17.8547 3.27515 9.65683 8.57004 9.65683 8.57004L11.3738 9.67666L21.5517 3.09154L21.5468 2.3323C21.5468 2.3323 21.6907 2.18342 22.8271 2.92282C23.5764 3.40914 32.5137 9.1159 32.5137 9.1159L33.4764 8.50057C33.4714 8.50057 25.2934 3.30989 23.5863 2.2132Z" fill="white"/>
<path d="M97.4769 21.7703H95.6458V8.83825H97.4769V21.7703ZM102.722 8.69434H103.571L104.985 10.1086L113.798 18.4703V8.91765H115.624V21.8745L114.915 21.8795L104.603 12.2077L104.608 21.7752L102.707 21.7802L102.722 8.69434ZM130.894 11.3443C129.842 10.5205 128.403 10.0739 127.018 10.0739C123.728 10.0739 121.857 12.5154 121.857 15.3837C121.857 18.2122 123.708 20.6091 126.978 20.6091C128.417 20.6091 129.802 20.1277 130.894 19.2692V21.1748C129.762 21.7554 128.323 22.0829 127.038 22.0829C122.855 22.0829 120.031 19.1749 120.031 15.4333C120.031 11.6073 122.874 8.60006 127.197 8.60006C128.482 8.60006 129.787 8.87299 130.899 9.47344V11.3443H130.894ZM60.4971 13.1704C59.718 12.2425 58.4525 11.7462 57.1474 11.7462C54.8101 11.7462 53.2321 13.3243 53.2321 15.3291C53.2321 17.3686 54.83 18.8474 57.202 18.8474C58.4476 18.8474 59.6931 18.3164 60.4921 17.4728V21.5023C59.2267 21.8447 58.3086 22.1028 57.1226 22.1028C55.0781 22.1028 53.1328 21.418 51.6143 20.1972C49.9966 18.9119 49.2572 17.2297 49.2572 15.3092C49.2572 13.5426 50.0165 11.8455 51.4208 10.5751C52.8599 9.26998 54.9441 8.48096 57.0085 8.48096C58.2342 8.48096 59.3656 8.71915 60.4921 9.13103V13.1704H60.4971ZM77.9201 8.83329V16.1082C77.9201 17.7706 77.8407 19.4181 76.3817 20.6736C75.156 21.7355 73.2256 22.1127 71.5136 22.1127C69.8016 22.1127 67.8712 21.7355 66.6455 20.6736C65.1865 19.4231 65.1071 17.7755 65.1071 16.1082V8.83329H68.9232V15.6417C68.9232 17.324 69.0572 19.1601 71.5136 19.1601C73.965 19.1601 74.104 17.324 74.104 15.6417V8.83329H77.9201ZM86.4852 21.7653H82.6691V8.83329H86.4852V21.7653Z" fill="white"/>
<path d="M52.4727 34.4443H52.0856V33.9133H52.0757C51.7432 34.4145 51.2122 34.5188 50.8946 34.5188C49.9418 34.5188 49.262 33.7893 49.262 32.9209C49.262 32.112 49.9021 31.3329 50.8946 31.3329C51.2221 31.3329 51.7531 31.4371 52.0757 31.9433H52.0856V31.4123H52.4727V34.4443ZM50.8897 34.1664C51.5447 34.1664 52.1054 33.6404 52.1054 32.9258C52.1054 32.2609 51.5893 31.6753 50.8897 31.6753C50.2247 31.6753 49.6441 32.1567 49.6441 32.9308C49.649 33.6106 50.1503 34.1664 50.8897 34.1664ZM54.7405 30.3354H55.1275V31.9383H55.1375C55.4799 31.447 55.991 31.3279 56.3185 31.3279C57.311 31.3279 57.9512 32.107 57.9512 32.9159C57.9512 33.7893 57.2763 34.5138 56.3185 34.5138C56.0009 34.5138 55.4749 34.4046 55.1375 33.9084H55.1275V34.4394H54.7405V30.3354ZM56.3235 31.6803C55.6238 31.6803 55.1077 32.2609 55.1077 32.9308C55.1077 33.6404 55.6684 34.1714 56.3235 34.1714C57.0678 34.1714 57.569 33.6156 57.569 32.9407C57.5641 32.1616 56.9884 31.6803 56.3235 31.6803ZM58.765 33.0697C58.7948 33.6652 59.3505 34.1714 59.9411 34.1714C60.4969 34.1615 60.8889 33.8339 61.0278 33.4568H61.4397C61.3317 33.7673 61.1301 34.0367 60.8625 34.2278C60.595 34.4189 60.2748 34.5223 59.946 34.5237C59.5257 34.5224 59.1231 34.3545 58.8264 34.0569C58.5297 33.7592 58.363 33.3561 58.363 32.9358C58.363 32.0773 59.0578 31.3527 59.9411 31.3379C60.606 31.3428 61.0775 31.7398 61.2958 32.117C61.4993 32.4445 61.5439 32.7819 61.5291 33.0747H58.765V33.0697ZM61.1321 32.7174C61.008 32.0028 60.4274 31.6803 59.946 31.6803C59.4697 31.6803 58.8742 32.0028 58.765 32.7174H61.1321ZM62.1245 30.3354H62.5116V34.4443H62.1245V30.3354ZM67.7817 33.9679C67.7817 34.2954 67.7817 34.7073 67.5038 35.0795C67.1217 35.6105 66.422 35.6403 66.2979 35.6403C65.8662 35.6403 65.0226 35.4765 64.7447 34.5237H65.1566C65.2558 34.7718 65.5585 35.2879 66.293 35.2879C66.8041 35.2879 67.3946 34.9952 67.3946 34.1565V33.8885H67.3847C67.1564 34.3203 66.6552 34.5138 66.2136 34.5138C65.4146 34.5138 64.6256 33.8935 64.6256 32.9358C64.6256 31.9681 65.4146 31.323 66.2136 31.323C66.4915 31.323 67.0373 31.4073 67.3847 31.9433H67.3946V31.3974H67.7817V33.9679ZM66.2086 34.1664C67.0125 34.1664 67.4145 33.4419 67.4145 32.9258C67.4145 32.2609 66.8934 31.6753 66.2086 31.6753C65.5188 31.6753 65.0077 32.2559 65.0077 32.9258C65.0127 33.5908 65.5188 34.1664 66.2086 34.1664ZM68.5161 31.4073H68.9032V31.844H68.9131C69.0967 31.4173 69.4391 31.3527 69.7666 31.3279V31.7398C69.4937 31.7597 69.2605 31.8589 69.1116 32.0376C68.9776 32.2063 68.9032 32.4197 68.9032 32.6628V34.4394H68.5161V31.4073ZM71.5333 31.3279C72.4315 31.3279 73.1262 32.0872 73.1262 32.9209C73.1262 33.7496 72.4414 34.5138 71.5333 34.5138C70.645 34.5138 69.9503 33.7645 69.9503 32.9407C69.9552 31.983 70.7343 31.3279 71.5333 31.3279ZM71.5382 34.1664C72.1287 34.1664 72.7391 33.7 72.7391 32.906C72.7391 32.107 72.0642 31.6803 71.5382 31.6803C70.9824 31.6803 70.3373 32.1368 70.3373 32.9407C70.3423 33.6454 70.913 34.1664 71.5382 34.1664ZM76.3617 34.4443H75.9945V33.9729H75.9845C75.8754 34.2012 75.5776 34.5188 75.0119 34.5188C74.4115 34.5188 74.0988 34.2309 73.9698 34.0622C73.7515 33.7942 73.7018 33.4072 73.7018 33.0846V31.4073H74.0889V33.0797C74.0889 33.4618 74.1733 33.7099 74.3072 33.8786C74.5157 34.1168 74.8035 34.1664 75.0119 34.1664C75.2303 34.1664 75.4635 34.1168 75.657 33.9233C75.8357 33.7446 75.9746 33.5461 75.9746 33.0151V31.4123H76.3617V34.4443ZM77.0961 31.4073H77.4832V31.9383H77.4931C77.8405 31.4371 78.3466 31.3279 78.6742 31.3279C79.6666 31.3279 80.3068 32.107 80.3068 32.9159C80.3068 33.7893 79.6319 34.5138 78.6742 34.5138C78.3566 34.5138 77.8306 34.4046 77.4931 33.9084H77.4832V35.5063H77.0961V31.4073ZM78.6742 31.6803C77.9745 31.6803 77.4584 32.2609 77.4584 32.9308C77.4584 33.6404 78.0191 34.1714 78.6742 34.1714C79.4185 34.1714 79.9197 33.6156 79.9197 32.9407C79.9197 32.1616 79.3441 31.6803 78.6742 31.6803Z" fill="white"/>
<path opacity="0.2" d="M49.262 27.0801H130.899V27.5813H49.262V27.0801Z" fill="white"/>
</g>
<defs>
<clipPath id="clip0_2216_3785">
<rect width="132" height="36.7218" fill="white"/>
</clipPath>
</defs>
</svg>
