<svg width="93" height="32" viewBox="0 0 93 32" fill="none" xmlns="http://www.w3.org/2000/svg">
<mask id="mask0_12_2692" style="mask-type:luminance" maskUnits="userSpaceOnUse" x="2" y="2" width="89" height="29">
<path d="M90.6938 2H2V30.5122H90.6938V2Z" fill="white"/>
</mask>
<g mask="url(#mask0_12_2692)">
<path d="M39.9992 19.7017C40.001 20.1397 39.916 20.5737 39.7492 20.9788C39.5824 21.3838 39.337 21.7518 39.0273 22.0615C38.7176 22.3713 38.3496 22.6166 37.9445 22.7834C37.5395 22.9502 37.1055 23.0352 36.6674 23.0335H36.3787C35.9406 23.0352 35.5066 22.9502 35.1016 22.7834C34.6965 22.6166 34.3286 22.3713 34.0188 22.0615C33.7091 21.7518 33.4637 21.3838 33.2969 20.9788C33.1301 20.5737 33.0451 20.1397 33.0469 19.7017V12.816C33.0451 12.3779 33.1301 11.9439 33.2969 11.5388C33.4637 11.1338 33.7091 10.7658 34.0188 10.4561C34.3286 10.1463 34.6965 9.90099 35.1016 9.73419C35.5066 9.56739 35.9406 9.48239 36.3787 9.48419H36.6674C37.1066 9.47819 37.5426 9.56029 37.9495 9.72559C38.3564 9.89089 38.7261 10.1361 39.0367 10.4467C39.3473 10.7573 39.5925 11.127 39.7578 11.5339C39.9231 11.9408 40.0052 12.3768 39.9992 12.816V13.9954C40.0048 14.0258 40.0028 14.0571 39.9936 14.0866C39.9844 14.116 39.9682 14.1428 39.9464 14.1647C39.9245 14.1865 39.8977 14.2027 39.8682 14.2119C39.8388 14.2211 39.8075 14.223 39.7771 14.2175H38.1223C38.0919 14.223 38.0607 14.2211 38.0312 14.2119C38.0017 14.2027 37.9749 14.1865 37.9531 14.1647C37.9312 14.1428 37.915 14.116 37.9058 14.0866C37.8966 14.0571 37.8947 14.0258 37.9002 13.9954V12.8115C37.902 12.648 37.8711 12.4857 37.8093 12.3343C37.7475 12.1828 37.6562 12.0452 37.5405 11.9296C37.4248 11.8139 37.2873 11.7225 37.1358 11.6607C36.9844 11.599 36.8221 11.5681 36.6585 11.5699H36.3698C36.2062 11.5681 36.044 11.599 35.8925 11.6607C35.7411 11.7225 35.6035 11.8139 35.4878 11.9296C35.3722 12.0452 35.2808 12.1828 35.219 12.3343C35.1573 12.4857 35.1264 12.648 35.1281 12.8115V19.6972C35.1327 20.0251 35.265 20.3382 35.4969 20.5701C35.7288 20.802 36.0419 20.9343 36.3698 20.9389H36.6585C36.822 20.9404 36.9841 20.9092 37.1355 20.8474C37.2868 20.7855 37.4242 20.6941 37.5398 20.5785C37.6554 20.4629 37.7468 20.3254 37.8087 20.1741C37.8706 20.0228 37.9017 19.8607 37.9002 19.6972V18.5155C37.9002 18.3601 37.9742 18.2823 38.1223 18.2823H39.7771C39.9252 18.2823 39.9992 18.3601 39.9992 18.5155V19.7017Z" fill="white"/>
<path d="M47.98 9.80395C47.98 9.81505 47.6113 10.9146 46.8338 12.9847L45.5367 16.8829C45.5135 16.9399 45.5037 17.0014 45.5078 17.0628V22.6891C45.5133 22.7195 45.5114 22.7508 45.5022 22.7802C45.493 22.8097 45.4767 22.8365 45.4549 22.8583C45.4331 22.8802 45.4063 22.8964 45.3768 22.9056C45.3473 22.9148 45.316 22.9168 45.2857 22.9112H43.6309C43.6005 22.9168 43.5692 22.9148 43.5397 22.9056C43.5103 22.8964 43.4835 22.8802 43.4616 22.8583C43.4398 22.8365 43.4236 22.8097 43.4144 22.7802C43.4051 22.7508 43.4032 22.7195 43.4088 22.6891V17.0717C43.4036 17.0048 43.3916 16.9386 43.3732 16.874C43.2666 16.5986 42.8313 15.0082 42.0716 12.9669L40.9277 9.80395C40.918 9.78145 40.9144 9.75685 40.9171 9.73245C40.9197 9.70815 40.9287 9.68485 40.943 9.66505C40.9573 9.64515 40.9765 9.62925 40.9987 9.61895C41.0209 9.60875 41.0454 9.60435 41.0698 9.60635H42.8468C42.9127 9.59975 42.9789 9.61575 43.0346 9.65165C43.0902 9.68755 43.1321 9.74125 43.1533 9.80395L44.3439 13.4534C44.3661 13.4911 44.3928 13.5289 44.4416 13.5289C44.4634 13.5276 44.4842 13.5196 44.5012 13.5061C44.5183 13.4926 44.5308 13.4742 44.5371 13.4534L45.7588 9.80395C45.7769 9.74335 45.8151 9.69065 45.8672 9.65465C45.9194 9.61875 45.9822 9.60165 46.0453 9.60635H47.8223C47.8479 9.60115 47.8745 9.60315 47.899 9.61205C47.9236 9.62105 47.9452 9.63655 47.9615 9.65705C47.9778 9.67745 47.9881 9.70195 47.9914 9.72785C47.9947 9.75385 47.9907 9.78015 47.98 9.80395Z" fill="white"/>
<path d="M56.2738 14.6373C56.2756 15.0754 56.1906 15.5094 56.0238 15.9144C55.857 16.3195 55.6116 16.6875 55.3019 16.9972C54.9922 17.307 54.6242 17.5523 54.2191 17.7191C53.8141 17.8859 53.3801 17.9709 52.942 17.9691H51.6293C51.5989 17.9636 51.5677 17.9655 51.5382 17.9747C51.5087 17.9839 51.4819 18.0002 51.46 18.022C51.4382 18.0438 51.422 18.0706 51.4128 18.1001C51.4036 18.1296 51.4017 18.1609 51.4072 18.1913V22.6892C51.4127 22.7196 51.4108 22.7508 51.4016 22.7803C51.3924 22.8098 51.3762 22.8366 51.3543 22.8584C51.3325 22.8803 51.3057 22.8965 51.2762 22.9057C51.2467 22.9149 51.2155 22.9168 51.1851 22.9113H49.5347C49.5043 22.9168 49.4731 22.9149 49.4436 22.9057C49.4141 22.8965 49.3873 22.8803 49.3655 22.8584C49.3436 22.8366 49.3274 22.8098 49.3182 22.7803C49.309 22.7508 49.3071 22.7196 49.3126 22.6892V9.80623C49.3071 9.77593 49.309 9.74463 49.3182 9.71513C49.3274 9.68563 49.3436 9.65883 49.3655 9.63703C49.3873 9.61523 49.4141 9.59893 49.4436 9.58973C49.4731 9.58053 49.5043 9.57863 49.5347 9.58413H52.9354C53.3746 9.57813 53.8105 9.66023 54.2174 9.82563C54.6244 9.99093 54.994 10.2361 55.3046 10.5467C55.6152 10.8572 55.8604 11.2269 56.0257 11.6338C56.1911 12.0408 56.2731 12.4767 56.2672 12.9159L56.2738 14.6373ZM54.1859 14.6373V12.9181C54.1874 12.7547 54.1563 12.5925 54.0944 12.4412C54.0325 12.2899 53.9411 12.1524 53.8255 12.0368C53.7099 11.9213 53.5725 11.8299 53.4212 11.768C53.2699 11.7061 53.1077 11.675 52.9443 11.6765H51.6315C51.4835 11.6765 51.4094 11.7542 51.4094 11.9097V15.6458C51.4094 15.8013 51.4835 15.879 51.6315 15.879H52.9443C53.1078 15.8808 53.2701 15.8499 53.4215 15.7881C53.573 15.7263 53.7106 15.6349 53.8262 15.5193C53.9419 15.4036 54.0333 15.266 54.095 15.1146C54.1568 14.9631 54.1877 14.8009 54.1859 14.6373Z" fill="white"/>
<path d="M64.8854 22.6893C64.9232 22.8359 64.8476 22.9114 64.741 22.9114H63.084C63.0209 22.9113 62.9598 22.889 62.9115 22.8484C62.8631 22.8078 62.8306 22.7515 62.8197 22.6893L61.487 17.7271C61.4724 17.6618 61.4352 17.6036 61.382 17.563C61.3287 17.5224 61.2629 17.5018 61.196 17.505H60.2875C60.1298 17.505 60.0521 17.5783 60.0521 17.7271V22.6893C60.0576 22.7197 60.0557 22.7509 60.0465 22.7804C60.0373 22.8099 60.021 22.8367 59.9992 22.8585C59.9774 22.8804 59.9506 22.8966 59.9211 22.9058C59.8916 22.915 59.8603 22.9169 59.83 22.9114H58.1752C58.1448 22.9169 58.1135 22.915 58.084 22.9058C58.0546 22.8966 58.0278 22.8804 58.0059 22.8585C57.9841 22.8367 57.9679 22.8099 57.9586 22.7804C57.9494 22.7509 57.9475 22.7197 57.953 22.6893V9.79077C57.9514 9.76207 57.9562 9.73327 57.9671 9.70667C57.9779 9.67997 57.9946 9.65607 58.0159 9.63677C58.0372 9.61737 58.0625 9.60297 58.0901 9.59467C58.1176 9.58637 58.1467 9.58427 58.1752 9.58867H61.5758C62.0149 9.58117 62.4508 9.66427 62.8562 9.83277C63.2617 10.0014 63.6281 10.2517 63.9325 10.5682C64.2463 10.8761 64.4941 11.2446 64.661 11.6512C64.8279 12.0579 64.9103 12.4943 64.9032 12.9338V14.3442C64.9032 15.3393 64.4656 16.2152 63.5904 16.9719C63.5479 16.9976 63.5134 17.0348 63.491 17.0792C63.4686 17.1236 63.4592 17.1734 63.4638 17.2229C63.4638 17.294 63.686 18.2602 64.148 19.8084L64.8854 22.6893ZM62.8441 14.342V12.8849C62.8459 12.7212 62.815 12.5587 62.7533 12.407C62.6916 12.2553 62.6003 12.1174 62.4847 12.0014C62.3691 11.8854 62.2315 11.7936 62.0801 11.7314C61.9286 11.6691 61.7662 11.6376 61.6025 11.6388H60.2698C60.1143 11.6388 60.0365 11.7129 60.0365 11.861V15.3704C60.0317 15.4023 60.0344 15.4348 60.0444 15.4654C60.0544 15.496 60.0714 15.5239 60.094 15.5467C60.1167 15.5696 60.1444 15.5869 60.1749 15.5972C60.2054 15.6074 60.2379 15.6104 60.2698 15.6059H61.6025C61.7663 15.6074 61.9288 15.5761 62.0804 15.514C62.232 15.4518 62.3697 15.36 62.4853 15.244C62.601 15.1279 62.6923 14.9899 62.7539 14.8381C62.8155 14.6862 62.8462 14.5236 62.8441 14.3598V14.342Z" fill="white"/>
<path d="M73.2594 22.6892C73.265 22.7196 73.263 22.7509 73.2538 22.7803C73.2446 22.8098 73.2284 22.8366 73.2066 22.8585C73.1847 22.8803 73.1579 22.8965 73.1285 22.9057C73.099 22.9149 73.0677 22.9169 73.0373 22.9113H66.8602C66.8298 22.9169 66.7985 22.9149 66.769 22.9057C66.7396 22.8965 66.7128 22.8803 66.6909 22.8585C66.6691 22.8366 66.6529 22.8098 66.6437 22.7803C66.6345 22.7509 66.6325 22.7196 66.6381 22.6892V9.82405C66.6325 9.79375 66.6345 9.76245 66.6437 9.73295C66.6529 9.70345 66.6691 9.67665 66.6909 9.65485C66.7128 9.63305 66.7396 9.61685 66.769 9.60755C66.7985 9.59835 66.8298 9.59645 66.8602 9.60195H73.0506C73.081 9.59645 73.1123 9.59835 73.1418 9.60755C73.1713 9.61685 73.1981 9.63305 73.2199 9.65485C73.2417 9.67665 73.258 9.70345 73.2672 9.73295C73.2764 9.76245 73.2783 9.79375 73.2728 9.82405V11.4788C73.2783 11.5092 73.2764 11.5405 73.2672 11.57C73.258 11.5994 73.2417 11.6262 73.2199 11.6481C73.1981 11.6699 73.1713 11.6861 73.1418 11.6954C73.1123 11.7046 73.081 11.7065 73.0506 11.701H68.9592C68.8037 11.701 68.726 11.775 68.726 11.9231V15.0039C68.726 15.152 68.8037 15.226 68.9592 15.226H72.1799C72.3243 15.226 72.4021 15.3037 72.4021 15.4481V17.0718C72.4021 17.2199 72.328 17.2939 72.1799 17.2939H68.9592C68.8037 17.2939 68.726 17.368 68.726 17.5161V20.6013C68.726 20.7494 68.8037 20.8234 68.9592 20.8234H73.044C73.0744 20.8179 73.1056 20.8198 73.1351 20.829C73.1646 20.8382 73.1914 20.8545 73.2132 20.8763C73.2351 20.8981 73.2513 20.9249 73.2605 20.9544C73.2697 20.9839 73.2716 21.0151 73.2661 21.0455L73.2594 22.6892Z" fill="white"/>
<path d="M81.831 19.7016C81.8328 20.1396 81.7478 20.5737 81.581 20.9787C81.4142 21.3837 81.1688 21.7517 80.8591 22.0615C80.5494 22.3712 80.1814 22.6166 79.7764 22.7834C79.3713 22.9502 78.9373 23.0352 78.4992 23.0334H78.2105C77.7724 23.0352 77.3384 22.9502 76.9334 22.7834C76.5284 22.6166 76.1604 22.3712 75.8506 22.0615C75.5409 21.7517 75.2955 21.3837 75.1287 20.9787C74.9619 20.5737 74.8769 20.1396 74.8787 19.7016V18.7843C74.8787 18.6288 74.9527 18.551 75.1008 18.551H76.7556C76.9037 18.551 76.9777 18.6288 76.9777 18.7843V19.7016C76.9823 20.0295 77.1146 20.3426 77.3465 20.5745C77.5783 20.8064 77.8915 20.9387 78.2194 20.9433H78.5081C78.6732 20.9476 78.8374 20.9176 78.9903 20.8553C79.1432 20.793 79.2815 20.6997 79.3966 20.5812C79.5139 20.4654 79.6063 20.3269 79.6682 20.1741C79.7301 20.0213 79.7601 19.8575 79.7564 19.6927C79.7728 19.4401 79.7326 19.187 79.6388 18.9519C79.5451 18.7167 79.4001 18.5054 79.2145 18.3334C78.6503 17.8551 77.6352 16.9814 76.1692 15.7123C75.7539 15.3527 75.4243 14.9048 75.2045 14.4013C74.9846 13.8979 74.8802 13.3516 74.8987 12.8026C74.8963 12.3644 74.9809 11.93 75.1475 11.5248C75.3141 11.1195 75.5594 10.7512 75.8693 10.4414C76.1791 10.1315 76.5474 9.88617 76.9527 9.71957C77.358 9.55297 77.7923 9.46837 78.2305 9.47077H78.5192C78.9584 9.46477 79.3944 9.54687 79.8013 9.71217C80.2082 9.87747 80.5779 10.1227 80.8885 10.4333C81.1991 10.7439 81.4443 11.1136 81.6096 11.5205C81.7749 11.9274 81.857 12.3634 81.851 12.8026V13.7732C81.851 13.9287 81.777 14.0065 81.6289 14.0065H79.9652C79.8171 14.0065 79.7431 13.9287 79.7431 13.7732V12.8115C79.7449 12.6479 79.714 12.4857 79.6522 12.3342C79.5905 12.1828 79.4991 12.0451 79.3834 11.9295C79.2677 11.8138 79.1302 11.7225 78.9787 11.6607C78.8273 11.5989 78.665 11.568 78.5015 11.5698H78.2127C78.0492 11.568 77.8869 11.5989 77.7354 11.6607C77.584 11.7225 77.4464 11.8138 77.3307 11.9295C77.2151 12.0451 77.1237 12.1828 77.0619 12.3342C77.0002 12.4857 76.9693 12.6479 76.971 12.8115C76.9585 13.0611 77.002 13.3105 77.0985 13.5411C77.195 13.7718 77.342 13.9778 77.5286 14.1442L80.5516 16.7719C80.97 17.1338 81.302 17.5848 81.5234 18.0917C81.7447 18.5987 81.8499 19.1487 81.831 19.7016Z" fill="white"/>
<path d="M90.4559 19.7016C90.4579 20.1396 90.3729 20.5737 90.2059 20.9787C90.0389 21.3837 89.7939 21.7517 89.4839 22.0615C89.1739 22.3712 88.8059 22.6166 88.4009 22.7834C87.9959 22.9502 87.5619 23.0352 87.1239 23.0334H86.8509C86.4129 23.0352 85.9789 22.9502 85.5739 22.7834C85.1689 22.6166 84.8009 22.3712 84.4909 22.0615C84.1809 21.7517 83.9359 21.3837 83.7689 20.9787C83.6024 20.5737 83.5174 20.1396 83.5191 19.7016V18.7843C83.5191 18.6288 83.5932 18.551 83.7409 18.551H85.3959C85.5439 18.551 85.6179 18.6288 85.6179 18.7843V19.7016C85.6229 20.028 85.7539 20.3398 85.9839 20.5715C86.2139 20.8031 86.5249 20.9364 86.8509 20.9433H87.1399C87.3049 20.9476 87.4689 20.9176 87.6219 20.8553C87.7749 20.793 87.9129 20.6997 88.0279 20.5812C88.1459 20.4654 88.2379 20.3269 88.2999 20.1741C88.3619 20.0213 88.3919 19.8575 88.3879 19.6927C88.4039 19.4401 88.3639 19.187 88.2709 18.9519C88.1769 18.7167 88.0319 18.5054 87.8459 18.3334C87.2819 17.8551 86.2669 16.9814 84.8009 15.7123C84.3839 15.3538 84.0519 14.9063 83.8299 14.4028C83.6082 13.8993 83.502 13.3525 83.5191 12.8026C83.5168 12.3644 83.6014 11.93 83.7679 11.5248C83.9349 11.1195 84.1799 10.7512 84.4899 10.4414C84.7999 10.1315 85.1679 9.88617 85.5729 9.71957C85.9789 9.55297 86.4129 9.46837 86.8509 9.47077H87.1399C87.5789 9.46477 88.0149 9.54687 88.4219 9.71217C88.8289 9.87747 89.1979 10.1227 89.5089 10.4333C89.8199 10.7439 90.0649 11.1136 90.2299 11.5205C90.3949 11.9274 90.4779 12.3634 90.4719 12.8026V13.7732C90.4719 13.9287 90.3979 14.0065 90.2489 14.0065H88.5949C88.4469 14.0065 88.3729 13.9287 88.3729 13.7732V12.8115C88.3739 12.6479 88.3429 12.4857 88.2819 12.3342C88.2199 12.1828 88.1289 12.0451 88.0129 11.9295C87.8969 11.8138 87.7599 11.7225 87.6079 11.6607C87.4569 11.5989 87.2939 11.568 87.1309 11.5698H86.8509C86.6869 11.568 86.5249 11.5989 86.3739 11.6607C86.2219 11.7225 86.0849 11.8138 85.9689 11.9295C85.8529 12.0451 85.7619 12.1828 85.6999 12.3342C85.6389 12.4857 85.6079 12.6479 85.6089 12.8115C85.5969 13.0611 85.6399 13.3105 85.7369 13.5411C85.8329 13.7717 85.9799 13.9778 86.1669 14.1442L89.1899 16.7719C89.6059 17.1351 89.9349 17.5866 90.1539 18.0935C90.3729 18.6004 90.4769 19.1498 90.4559 19.7016Z" fill="white"/>
<path d="M33.189 28.1401V24.9971H35.2592V25.5457H33.8021V26.2831H35.0415V26.8295H33.8021V27.5936H35.2592V28.1401H33.189Z" fill="white"/>
<path d="M38.2667 28.1401V26.3098L37.667 27.5003H37.2516L36.6519 26.3076V28.1378H36.0388V24.9971H36.643L37.4648 26.6963L38.28 24.9971H38.8731V28.1401H38.2667Z" fill="white"/>
<path d="M41.0943 28.1401H39.7793V24.9971H41.041C41.654 24.9971 42.0116 25.3413 42.0116 25.8855C42.0126 26.0189 41.9769 26.15 41.9083 26.2644C41.8398 26.3788 41.741 26.4721 41.6229 26.5341C41.7581 26.5942 41.8719 26.6939 41.9493 26.82C42.0266 26.9461 42.0638 27.0927 42.0561 27.2405C42.0586 27.8224 41.6562 28.1401 41.0943 28.1401ZM40.9943 25.5457H40.3946V26.2698H40.9943C41.0452 26.2754 41.0968 26.2703 41.1456 26.2547C41.1943 26.2391 41.2393 26.2133 41.2775 26.1791C41.3156 26.145 41.3462 26.1032 41.3671 26.0564C41.388 26.0096 41.3988 25.959 41.3988 25.9078C41.3988 25.8565 41.388 25.8059 41.3671 25.7591C41.3462 25.7123 41.3156 25.6705 41.2775 25.6363C41.2393 25.6022 41.1943 25.5764 41.1456 25.5608C41.0968 25.5452 41.0452 25.54 40.9943 25.5457ZM41.0343 26.8207H40.3946V27.5936H41.0343C41.1368 27.5936 41.2351 27.5529 41.3076 27.4804C41.38 27.4079 41.4208 27.3096 41.4208 27.2071C41.4208 27.1046 41.38 27.0063 41.3076 26.9339C41.2351 26.8614 41.1368 26.8207 41.0343 26.8207Z" fill="white"/>
<path d="M42.8489 28.1401V24.9971H44.9191V25.5457H43.462V26.2831H44.7014V26.8295H43.462V27.5936H44.9191V28.1401H42.8489Z" fill="white"/>
<path d="M47.6557 27.8401C47.5443 27.9423 47.4137 28.0215 47.2715 28.073C47.1293 28.1244 46.9782 28.1472 46.8272 28.1399H45.6921V24.9969H46.8272C46.9782 24.9897 47.1293 25.0124 47.2715 25.0639C47.4137 25.1154 47.5443 25.1945 47.6557 25.2968C48.0089 25.65 47.9733 26.0831 47.9733 26.554C47.9733 27.0249 48.0088 27.4869 47.6557 27.8401ZM47.227 25.7388C47.1712 25.6724 47.1004 25.6203 47.0204 25.5867C46.9405 25.5531 46.8537 25.539 46.7672 25.5456H46.303V27.5935H46.7672C46.8537 27.5999 46.9404 27.5858 47.0203 27.5522C47.1002 27.5186 47.1711 27.4665 47.227 27.4003C47.3425 27.2581 47.3603 27.0338 47.3603 26.5584C47.3603 26.0831 47.3425 25.881 47.227 25.7388Z" fill="white"/>
<path d="M50.7366 27.8402C50.6249 27.9427 50.4939 28.022 50.3513 28.0735C50.2087 28.125 50.0573 28.1476 49.9059 28.14H48.7708V24.997H49.9059C50.0573 24.9896 50.2087 25.0123 50.3513 25.0637C50.4939 25.1152 50.6248 25.1945 50.7366 25.2969C51.0898 25.6501 51.0542 26.0832 51.0542 26.5541C51.0542 27.025 51.0897 27.487 50.7366 27.8402ZM50.3079 25.7389C50.2521 25.6725 50.1813 25.6204 50.1013 25.5868C50.0214 25.5532 49.9346 25.5391 49.8481 25.5457H49.3839V27.5936H49.8481C49.9346 27.6 50.0213 27.5859 50.1012 27.5523C50.1811 27.5187 50.252 27.4666 50.3079 27.4004C50.4234 27.2582 50.4412 27.0339 50.4412 26.5585C50.4412 26.0832 50.4234 25.8811 50.3101 25.7389H50.3079Z" fill="white"/>
<path d="M51.856 28.1401V24.9971H53.9261V25.5457H52.469V26.2831H53.7085V26.8295H52.469V27.5936H53.9261V28.1401H51.856Z" fill="white"/>
<path d="M56.6625 27.8402C56.5509 27.9427 56.4199 28.022 56.2773 28.0735C56.1347 28.125 55.9832 28.1476 55.8318 28.14H54.6968V24.997H55.8318C55.9832 24.9896 56.1346 25.0123 56.2772 25.0637C56.4198 25.1152 56.5508 25.1945 56.6625 25.2969C57.0157 25.6501 56.9802 26.0832 56.9802 26.5541C56.9802 27.025 57.0157 27.487 56.6625 27.8402ZM56.2338 25.7389C56.178 25.6725 56.1072 25.6204 56.0273 25.5868C55.9473 25.5532 55.8605 25.5391 55.7741 25.5457H55.3098V27.5936H55.7741C55.8605 27.6 55.9473 27.5859 56.0272 27.5523C56.1071 27.5187 56.1779 27.4666 56.2338 27.4004C56.3494 27.2582 56.3671 27.0339 56.3671 26.5585C56.3671 26.0832 56.3493 25.8811 56.2338 25.7389Z" fill="white"/>
<path d="M59.0393 28.1401V24.9971H59.6524V28.1401H59.0393Z" fill="white"/>
<path d="M62.3999 28.1401L61.156 26.212V28.1401H60.543V24.9971H61.0849L62.3288 26.9206V24.9971H62.9419V28.1401H62.3999Z" fill="white"/>
<path d="M66.3114 25.5458V28.1401H65.6984V25.5458H64.8765V24.9993H67.1311V25.5458H66.3114Z" fill="white"/>
<path d="M69.7211 27.8224C69.4936 28.0434 69.1888 28.1671 68.8715 28.1671C68.5543 28.1671 68.2495 28.0434 68.0219 27.8224C67.7043 27.5048 67.7132 27.1116 67.7132 26.5697C67.7132 26.0277 67.7132 25.6345 68.0219 25.3169C68.2495 25.0959 68.5543 24.9722 68.8715 24.9722C69.1888 24.9722 69.4936 25.0959 69.7211 25.3169C70.0388 25.6345 70.0343 26.0277 70.0343 26.5697C70.0343 27.1116 70.0385 27.5048 69.7211 27.8224ZM69.2769 25.6856C69.2274 25.631 69.1666 25.5878 69.0987 25.5591C69.0308 25.5303 68.9574 25.5166 68.8838 25.519C68.8094 25.5167 68.7355 25.5304 68.6669 25.5592C68.5983 25.5879 68.5367 25.631 68.4862 25.6856C68.3662 25.8189 68.3351 25.9633 68.3351 26.5741C68.3351 27.1849 68.3662 27.3248 68.4862 27.4626C68.5367 27.5171 68.5983 27.5603 68.6669 27.589C68.7355 27.6177 68.8094 27.6314 68.8838 27.6292C68.9574 27.6315 69.0308 27.6179 69.0987 27.5891C69.1666 27.5603 69.2274 27.5172 69.2769 27.4626C69.3969 27.3293 69.4324 27.1849 69.4324 26.5741C69.4324 25.9633 69.3857 25.8189 69.268 25.6856H69.2769Z" fill="white"/>
<path d="M73.0793 28.1401V26.3098L72.4796 27.5003H72.0576L71.4534 26.3098V28.1401H70.8403V24.9971H71.4445L72.2663 26.6963L73.0815 24.9971H73.6857V28.1401H73.0793Z" fill="white"/>
<path d="M76.5046 27.8224C76.277 28.0434 75.9722 28.1671 75.655 28.1671C75.3377 28.1671 75.033 28.0434 74.8054 27.8224C74.4878 27.5048 74.4966 27.1116 74.4966 26.5697C74.4966 26.0277 74.4966 25.6345 74.8054 25.3169C75.033 25.0959 75.3377 24.9722 75.655 24.9722C75.9722 24.9722 76.277 25.0959 76.5046 25.3169C76.8222 25.6345 76.8178 26.0277 76.8178 26.5697C76.8178 27.1116 76.822 27.5048 76.5046 27.8224ZM76.0604 25.6856C76.0108 25.631 75.95 25.5878 75.8821 25.5591C75.8142 25.5303 75.7409 25.5166 75.6672 25.519C75.5929 25.5167 75.5189 25.5304 75.4503 25.5592C75.3817 25.5879 75.3201 25.631 75.2696 25.6856C75.1497 25.8189 75.1186 25.9633 75.1186 26.5741C75.1186 27.1849 75.1496 27.3248 75.2696 27.4626C75.3201 27.5171 75.3817 27.5603 75.4503 27.589C75.5189 27.6178 75.5929 27.6314 75.6672 27.6292C75.7409 27.6315 75.8142 27.6179 75.8821 27.5891C75.95 27.5603 76.0108 27.5172 76.0604 27.4626C76.1803 27.3293 76.2158 27.1849 76.2158 26.5741C76.2158 25.9633 76.1692 25.8189 76.0492 25.6856H76.0604Z" fill="white"/>
<path d="M79.2989 28.1399L78.6769 26.8783H78.2327V28.131H77.6196V24.9969H78.8546C78.9861 24.9873 79.1181 25.0052 79.2422 25.0494C79.3664 25.0936 79.48 25.1631 79.5759 25.2535C79.6718 25.344 79.7478 25.4534 79.7991 25.5747C79.8505 25.6961 79.876 25.8269 79.8741 25.9587C79.8795 26.1396 79.8268 26.3174 79.7236 26.4662C79.6205 26.6149 79.4724 26.7266 79.3011 26.7849L80.003 28.1399H79.2989ZM78.8146 25.5455H78.2371V26.374H78.8146C78.8716 26.3782 78.9288 26.3706 78.9826 26.3517C79.0365 26.3327 79.0859 26.3029 79.1277 26.264C79.1696 26.2251 79.2029 26.1781 79.2257 26.1257C79.2485 26.0734 79.2603 26.0169 79.2603 25.9598C79.2603 25.9027 79.2485 25.8462 79.2257 25.7938C79.2029 25.7415 79.1696 25.6944 79.1277 25.6556C79.0859 25.6167 79.0365 25.5868 78.9826 25.5679C78.9288 25.549 78.8716 25.5414 78.8146 25.5455Z" fill="white"/>
<path d="M82.3663 28.1399L81.7533 26.8783H81.3091V28.131H80.6982V24.9969H81.9288C82.0602 24.9873 82.1922 25.0052 82.3164 25.0494C82.4406 25.0936 82.5542 25.1631 82.6501 25.2535C82.7459 25.344 82.822 25.4534 82.8733 25.5747C82.9246 25.6961 82.9502 25.8269 82.9483 25.9587C82.9537 26.1396 82.9009 26.3174 82.7978 26.4662C82.6947 26.6149 82.5465 26.7266 82.3752 26.7849L83.0771 28.1399H82.3663ZM81.891 25.5455H81.3135V26.374H81.891C81.948 26.3782 82.0052 26.3706 82.059 26.3517C82.1129 26.3327 82.1623 26.3029 82.2041 26.264C82.2459 26.2251 82.2793 26.1781 82.3021 26.1257C82.3249 26.0734 82.3367 26.0169 82.3367 25.9598C82.3367 25.9027 82.3249 25.8462 82.3021 25.7938C82.2793 25.7415 82.2459 25.6944 82.2041 25.6556C82.1623 25.6167 82.1129 25.5868 82.059 25.5679C82.0052 25.549 81.948 25.5414 81.891 25.5455Z" fill="white"/>
<path d="M85.6629 27.8224C85.4349 28.0434 85.1299 28.1671 84.8129 28.1671C84.4959 28.1671 84.1909 28.0434 83.9629 27.8224C83.6458 27.5048 83.6546 27.1116 83.6546 26.5697C83.6546 26.0277 83.6546 25.6345 83.9629 25.3169C84.1909 25.0959 84.4959 24.9722 84.8129 24.9722C85.1299 24.9722 85.4349 25.0959 85.6629 25.3169C85.9799 25.6345 85.9759 26.0277 85.9759 26.5697C85.9759 27.1116 85.9799 27.5048 85.6629 27.8224ZM85.2179 25.6856C85.1689 25.631 85.1079 25.5878 85.0399 25.5591C84.9719 25.5303 84.8989 25.5166 84.8249 25.519C84.7509 25.5167 84.6769 25.5304 84.6079 25.5592C84.5399 25.5879 84.4779 25.631 84.4279 25.6856C84.3079 25.8189 84.2769 25.9633 84.2769 26.5741C84.2769 27.1849 84.3079 27.3248 84.4279 27.4626C84.4779 27.5171 84.5399 27.5603 84.6079 27.589C84.6769 27.6178 84.7509 27.6314 84.8249 27.6292C84.8989 27.6315 84.9719 27.6179 85.0399 27.5891C85.1079 27.5603 85.1689 27.5172 85.2179 27.4626C85.3379 27.3293 85.3739 27.1849 85.3739 26.5741C85.3739 25.9633 85.3269 25.8189 85.2069 25.6856H85.2179Z" fill="white"/>
<path d="M89.4627 28.1401H88.9517L88.3747 26.2343L87.7967 28.1401H87.2857L86.4487 24.9971H87.0727L87.5597 26.9784L88.1327 24.9971H88.5917L89.1657 26.9784L89.6557 24.9971H90.2957L89.4627 28.1401Z" fill="white"/>
<path d="M16.2568 30.2901C18.1387 30.2915 20.0014 29.9134 21.7338 29.1783C23.4661 28.4433 25.0323 27.3664 26.3389 26.012H6.1748C7.4813 27.3664 9.04761 28.4433 10.7799 29.1783C12.5122 29.9134 14.375 30.2915 16.2568 30.2901Z" fill="#00AAE9"/>
<path d="M20.2483 20.7256H19.6708L17.363 23.853H28.0536C29.309 21.9089 30.0608 19.6831 30.2415 17.376H22.7139L20.2483 20.7256Z" fill="#005697"/>
<path d="M4.50886 11.6188H7.99836V10.8991H6.10146V10.1794H9.28226V9.45976H10.966V8.74006H15.3151V9.45976H19.4265V10.1794H18.6735V10.8991H27.5983V11.6188H29.5018C28.5192 8.81176 26.6702 6.38956 24.2216 4.70166C21.7731 3.01366 18.8516 2.14716 15.8787 2.22726C12.9058 2.30736 10.0352 3.32976 7.68106 5.14706C5.32686 6.96436 3.61096 9.48256 2.78076 12.3384H4.50886V11.6188Z" fill="#005697"/>
<path d="M11.5834 24.5726H13.8513V23.853H15.1263L18.5847 19.1685L16.3923 16.6607H14.34V15.9366H16.2169V15.217H13.1738V15.9366H8.75806V15.217H7.75406V14.4973H5.24186V13.7732H2.44536C2.07886 15.8006 2.16456 17.884 2.69636 19.8744C3.22816 21.8649 4.19296 23.7134 5.52176 25.2879H11.5834V24.5726Z" fill="#005697"/>
<path d="M28.3801 13.7733H28.9377V14.4929H28.0492V15.217H25.6392V15.9367H24.3064V16.6608H26.6987V15.9367H30.2859C30.2655 14.9642 30.1442 13.9965 29.9239 13.0491H28.3824L28.3801 13.7733Z" fill="#005697"/>
<path d="M19.7529 18.7089L21.3011 16.6565H17.8271L19.6174 18.7089H19.7529Z" fill="#005697"/>
</g>
</svg>
