<svg width="104" height="32" viewBox="0 0 104 32" fill="none" xmlns="http://www.w3.org/2000/svg">
<path fill-rule="evenodd" clip-rule="evenodd" d="M93.1421 16.103H96.4102L100.664 23.5315V16.103H103.972V29.5563H100.664L96.4369 22.1692V29.5563H93.1421V16.103Z" fill="white"/>
<path fill-rule="evenodd" clip-rule="evenodd" d="M79.697 22.7717C79.697 20.5641 80.2121 18.8422 81.2432 17.6134C82.2752 16.3808 83.712 15.7664 85.5544 15.7664C87.44 15.7664 88.8961 16.3707 89.9161 17.5784C90.9371 18.7889 91.4467 20.485 91.4467 22.6613C91.4467 24.2434 91.226 25.5385 90.778 26.5503C90.3337 27.5621 89.6853 28.3495 88.8446 28.9133C87.9992 29.4772 86.9479 29.7577 85.6896 29.7577C84.412 29.7577 83.3532 29.5149 82.5144 29.0301C81.6783 28.5408 80.9976 27.7727 80.4761 26.7205C79.9573 25.671 79.697 24.3538 79.697 22.7717ZM83.2898 22.8416C83.2898 24.2057 83.5013 25.0565 83.9272 25.6516C84.354 26.2468 84.8415 26.6193 85.5765 26.6193C86.3279 26.6193 86.8237 26.347 87.2358 25.7639C87.6497 25.1779 87.8226 24.179 87.8226 22.665C87.8226 21.392 87.5853 20.5503 87.1539 19.9644C86.7225 19.3766 86.2829 19.0216 85.5443 19.0216C84.8369 19.0216 84.3926 19.372 83.964 19.9672C83.5344 20.5641 83.2898 21.4637 83.2898 22.8416Z" fill="white"/>
<path fill-rule="evenodd" clip-rule="evenodd" d="M68.2408 25.4025H71.7481C71.8621 26.4271 72.5649 26.8604 73.6843 26.8199C74.1837 26.8015 74.6345 26.7344 74.8773 26.4336C75.2535 25.9681 74.972 25.133 73.9271 24.8267C71.0527 23.9832 68.571 23.1967 68.571 19.7805C68.571 19.0916 68.7403 18.4404 69.0778 17.8259C69.4154 17.2096 69.9222 16.7277 70.601 16.3772C71.2799 16.0258 72.2392 15.7996 73.4185 15.7996C74.8672 15.7996 75.9388 16.1712 76.6985 16.8114C77.4583 17.4525 78.0415 18.5645 78.1877 19.9627L74.7963 19.9663C74.3935 18.628 72.9392 18.5636 72.3276 19.0419C72.1417 19.1863 72.093 19.419 72.0967 19.6094C72.1206 20.6249 75.431 21.3599 76.5495 22.0387C77.5981 22.6734 78.4876 23.8222 78.4462 25.2415C78.4223 26.1015 78.2824 26.8815 77.8805 27.6109C77.4785 28.3376 76.8549 28.8159 76.1319 29.1912C75.4108 29.5674 74.5029 29.755 73.4056 29.755C71.4795 29.755 70.143 29.3135 69.4007 28.4333C68.6612 27.553 68.3374 26.7583 68.2408 25.4025Z" fill="white"/>
<path fill-rule="evenodd" clip-rule="evenodd" d="M64.284 29.6124L64.2812 28.2658C63.6015 28.9133 63.0671 29.5783 61.2881 29.7641C59.9489 29.9039 58.8653 29.5848 58.0173 29.0402C57.1719 28.4966 56.5134 27.6863 56.0452 26.6101C55.5779 25.5357 55.3452 24.2986 55.3452 22.9051C55.3452 21.4361 55.6 20.1631 56.1114 19.0749C56.6201 17.9923 57.3927 17.2095 58.353 16.6052C60.7556 15.0921 64.0421 15.8418 65.3537 17.6924C65.798 18.3234 66.1944 19.1053 66.5936 20.7315H63.1029C62.4655 18.7116 60.636 18.707 59.6904 19.8384C59.1909 20.4363 58.938 21.4453 58.938 22.8131C58.938 24.8882 59.4696 26.2808 60.636 26.6138C61.3139 26.8069 62.712 26.7343 63.2529 25.4465V25.1522H61.6689V22.2419H66.7114V27.6872V29.6124H64.284Z" fill="white"/>
<path fill-rule="evenodd" clip-rule="evenodd" d="M44.6271 16.0754H53.726V19.2598H48.2972V21.0921H52.9184V24.2499H48.2972V26.4841H54.0028V29.5278H44.6271V16.0754Z" fill="white"/>
<path fill-rule="evenodd" clip-rule="evenodd" d="M36.043 19.1191V26.4666H36.9039C37.6379 26.4666 38.084 26.2762 38.394 26.0831C38.704 25.8899 38.9468 25.5542 39.1225 25.074C39.3 24.593 39.4647 23.9095 39.4647 22.8324C39.4647 21.4076 39.2697 20.4335 38.876 19.9074C38.4832 19.3813 37.8311 19.1182 36.9214 19.1182H36.043V19.1191ZM32.5431 16.0754H37.7501C38.7739 16.0754 39.6054 16.2419 40.2364 16.5694C41.4846 17.2271 42.5203 18.7926 42.8275 20.1502C43.2626 22.0653 43.2111 24.2407 42.5636 26.0996C42.2885 26.8907 41.9068 27.5566 41.4156 28.0919C40.9244 28.6264 40.4001 28.9842 39.8372 29.1626C39.0701 29.4073 38.3729 29.5278 37.7501 29.5278H32.5431V16.0754Z" fill="white"/>
<path fill-rule="evenodd" clip-rule="evenodd" d="M14.3722 16.1103H27.8255V29.4928H14.3722L27.8255 16.0413L14.3722 2.58716V16.1103ZM0.919861 16.1103V29.4928H14.3722L0.919861 16.0413L14.3722 2.58716V16.1103H0.919861Z" fill="#E50012"/>
</svg>
