<svg width="103" height="34" viewBox="0 0 103 34" fill="none" xmlns="http://www.w3.org/2000/svg">
<path d="M95.1515 15.8856C94.9255 15.8856 94.7045 15.9011 94.4855 15.9304C94.2455 14.0785 93.4195 12.3554 92.0995 10.99C90.5855 9.4243 88.5665 8.4854 86.4069 8.339C86.2152 7.584 85.7846 6.8917 85.1874 6.3835C84.5042 5.8024 83.6345 5.4829 82.7391 5.4829C81.4779 5.4829 80.3133 6.1011 79.6105 7.1392C76.7759 7.2058 74.1896 8.9076 73.0085 11.4888C72.7629 12.0272 72.8009 12.65 73.1105 13.155L74.3047 15.099C74.5311 15.4677 74.8831 15.7401 75.2963 15.8668L79.4296 17.1316V17.1522C78.3764 18.0951 77.7747 19.4395 77.7747 20.8507C77.7747 21.3328 77.8437 21.8087 77.9812 22.2682L73.0454 22.2687C72.3272 22.2687 71.7447 21.687 71.7447 20.9687V12.8122H66.0715L66.0708 19.4322C66.0708 20.2061 65.9123 20.6883 65.6367 21.0549C65.3531 21.4318 64.8621 21.5594 64.4161 21.5594C63.9706 21.5594 63.4788 21.4318 63.1946 21.0549C62.9196 20.6883 62.7609 20.2061 62.7609 19.4322V12.8122H54.0134C53.4174 12.8122 52.9067 12.9475 52.4369 13.2716C52.0255 13.5541 51.7748 13.9166 51.6547 14.1238C51.5218 14.0165 51.3821 13.9118 51.2348 13.8112C49.8795 12.889 48.1003 12.5757 45.9733 12.5757C43.8465 12.5757 42.0669 12.889 40.7123 13.8112C39.3995 14.705 38.644 15.8856 38.644 17.7768C38.644 19.5566 39.3128 20.7077 40.4861 21.5814C40.2686 21.6546 40.0675 21.7456 39.8825 21.8581C39.2474 22.2428 38.8819 22.7535 38.8819 23.5698C38.8819 24.989 39.6666 25.8736 41.0316 26.544C42.4406 27.2356 44.2905 27.4709 46.5014 27.4709C47.3776 27.4709 48.1097 27.5201 48.6682 27.6662C49.2093 27.808 49.5211 27.996 49.5211 28.2954C49.5211 28.5953 49.2093 28.7833 48.6682 28.9242C48.1099 29.0708 47.3776 29.1202 46.5014 29.1202C44.7637 29.1202 43.6892 29.0623 42.9381 28.9534C41.7895 28.7842 41.0094 28.4169 41.0094 28.4169L39.8272 30.5441C41.4446 31.2353 43.4353 31.4905 45.9735 31.4905C48.5125 31.4905 50.6356 31.2549 52.2526 30.5636C53.8202 29.8927 54.7231 29.0079 54.7231 27.5887C54.7231 26.2921 53.8204 25.482 52.2519 24.8702C50.6351 24.2376 48.5116 24.0229 45.9726 24.0229C44.9432 24.0229 44.0823 23.9577 43.4268 23.7667C42.8114 23.5856 42.4281 23.2908 42.4281 22.9784C42.4281 22.6655 42.5854 22.5902 42.6646 22.6108C43.6425 22.8738 44.7509 22.9777 45.9735 22.9777C48.1006 22.9777 49.8797 22.6655 51.235 21.7429C52.3605 20.9769 53.0762 19.9987 53.2584 18.545L53.2646 18.491C53.2964 18.228 53.384 17.7868 53.6379 17.4827C53.8831 17.1878 54.2497 17.0678 54.7224 17.0678H55.6681C56.1402 17.0678 56.5075 17.1881 56.7527 17.4827C57.0244 17.8086 57.0873 18.2514 57.0873 18.5452V21.0867C57.0873 22.9786 57.7636 24.2013 58.7422 24.9835C59.7845 25.8148 60.8697 26.0518 62.7591 26.0518C64.4159 26.0518 65.3424 25.7961 66.2378 25.0409C66.6236 24.7166 66.937 24.3451 67.1661 23.8959C67.6345 25.155 68.8478 25.8148 70.2688 25.8148H95.1515C97.8885 25.8148 100.117 23.5881 100.117 20.8509C100.117 18.1116 97.8885 15.8856 95.1515 15.8856ZM47.2468 19.6696C46.9195 20.1105 46.4888 20.2594 45.9745 20.2594C45.4601 20.2594 45.0294 20.1105 44.7019 19.6696C44.3842 19.244 44.2013 18.6802 44.2013 17.777C44.2013 16.8743 44.3842 16.311 44.7019 15.8842C45.0294 15.4437 45.4601 15.2946 45.9745 15.2946C46.4888 15.2946 46.9195 15.4437 47.2468 15.8842C47.5647 16.311 47.7477 16.8745 47.7477 17.777C47.7477 18.68 47.5647 19.2437 47.2468 19.6696ZM95.1515 24.5736L85.8127 24.5741C85.519 24.5741 85.2803 24.3364 85.2803 24.0421C85.2803 23.7491 85.519 23.5103 85.8127 23.5103C89.3655 23.5103 92.2545 20.6201 92.2545 17.0678C92.2545 13.515 89.3655 10.6252 85.8127 10.6252C85.1035 10.6252 84.4073 10.7391 83.7415 10.9649L83.2635 11.4426C83.1597 11.5471 83.0238 11.5986 82.887 11.5986C82.7512 11.5986 82.6153 11.5471 82.5113 11.4426C82.3034 11.2356 82.3034 10.8983 82.5113 10.6904L84.1934 9.0073C84.0708 8.3155 83.4648 7.789 82.7388 7.789C82.0033 7.789 81.3739 8.337 81.2751 9.0636C81.2556 9.207 81.1786 9.336 81.0626 9.4208C80.9457 9.5066 80.7996 9.5407 80.6576 9.5167C80.3712 9.4675 80.0775 9.4426 79.7834 9.4426C77.8707 9.4426 76.1112 10.5147 75.2277 12.1976L76.1636 13.7208L81.3576 15.3117C81.5815 15.3806 81.7341 15.5869 81.7341 15.8204V17.264C82.0538 17.1748 82.3912 17.1266 82.7391 17.1266C83.3202 17.1266 83.8771 17.2574 84.3947 17.514C84.657 17.6446 84.7647 17.9639 84.633 18.2271C84.5024 18.4899 84.1836 18.5974 83.9213 18.4673C83.5523 18.2834 83.1546 18.1903 82.7391 18.1903C81.2721 18.1903 80.0791 19.3839 80.0791 20.8509C80.0791 22.3174 81.2721 23.5103 82.7391 23.5103C83.0327 23.5103 83.2703 23.7491 83.2703 24.0421C83.2703 24.3364 83.0327 24.5741 82.7391 24.5741H77.8929C77.5985 24.5741 77.3616 24.3364 77.3616 24.0421C77.3616 23.7491 77.5985 23.5103 77.8929 23.5103H80.1354C79.4442 22.834 79.0159 21.8913 79.0159 20.8509C79.0159 19.5616 79.6734 18.4249 80.6704 17.7562V16.2138L75.6598 14.68C75.536 14.6416 75.4297 14.5595 75.3629 14.4499L74.1683 12.5048C74.0757 12.3545 74.0645 12.1665 74.1377 12.0059C75.1452 9.8021 77.3625 8.3786 79.7837 8.3786C79.9721 8.3786 80.1606 8.3877 80.3479 8.4037C80.7047 7.418 81.6554 6.7239 82.7391 6.7239C84.1404 6.7239 85.28 7.8642 85.28 9.2655C85.28 9.3726 85.2732 9.4778 85.2606 9.5816C85.4442 9.5679 85.6277 9.5608 85.8125 9.5608C89.9525 9.5608 93.3195 12.9286 93.3195 17.0675C93.3195 19.8004 91.8505 22.1978 89.6615 23.5101H95.1515C96.6185 23.5101 97.8115 22.3172 97.8115 20.8507C97.8115 19.3837 96.6185 18.1901 95.1515 18.1901C94.8575 18.1901 94.6185 17.9522 94.6185 17.6585C94.6185 17.364 94.8575 17.1266 95.1515 17.1266C97.2045 17.1266 98.8745 18.7964 98.8745 20.8507C98.8755 22.9033 97.2045 24.5736 95.1515 24.5736ZM79.8429 11.5712C79.8429 12.126 79.3935 12.5757 78.8384 12.5757C78.2835 12.5757 77.833 12.126 77.833 11.5712C77.833 11.0159 78.2835 10.5667 78.8384 10.5667C79.3937 10.5667 79.8429 11.0159 79.8429 11.5712ZM67.371 9.975H66.0711C66.0711 6.1292 69.1998 3 73.0454 3V4.3009C69.9171 4.3009 67.371 6.8467 67.371 9.975ZM69.5589 9.975H68.2582C68.2582 7.3348 70.4056 5.1874 73.0456 5.1874V6.4876C71.1231 6.4876 69.5589 8.0524 69.5589 9.975ZM71.7449 9.975H70.4447C70.4447 8.5414 71.612 7.3745 73.0454 7.3745V8.6752C72.3288 8.6752 71.7449 9.258 71.7449 9.975ZM37.6992 19.3139C37.6992 17.3017 36.8022 15.3854 35.2077 14.1503C33.8532 13.1024 32.2612 12.5757 30.0157 12.5757C27.5333 12.5757 25.6286 13.2179 24.2234 14.5668C22.9764 15.7655 22.3315 17.5645 22.3315 19.3139C22.3315 21.0643 22.9767 22.8638 24.2234 24.0608C25.6286 25.4102 27.533 26.0518 30.0157 26.0518C32.2612 26.0518 33.853 25.526 35.2077 24.4778C36.3885 23.5636 37.1862 22.2744 37.5213 20.8509H33.1991C32.9011 22.0852 32.0919 22.9788 30.8432 22.9788C29.255 22.9788 28.2423 21.602 28.2423 19.9047H37.6732C37.6906 19.7089 37.6992 19.5125 37.6992 19.3139ZM28.2423 18.013C28.2423 16.7078 28.8788 15.6493 30.1335 15.6493C31.3884 15.6493 32.0252 16.708 32.0252 18.013H28.2423ZM14.5896 21.1564C13.8506 21.8195 13.0062 22.1516 11.7803 22.1516H9.0919V13.6403H11.7803C13.006 13.6403 13.8504 13.9719 14.5896 14.6341C15.4601 15.414 15.9488 16.6245 15.9488 17.8957C15.9488 19.166 15.4601 20.3765 14.5896 21.1564ZM3.4191 20.7923C3.4191 21.0855 3.356 21.5286 3.0848 21.8547C2.8396 22.1488 2.4734 22.2691 2.0002 22.2691L2 25.8148H13.5851C15.8656 25.8148 17.4812 25.1982 18.8569 23.9657C20.4764 22.5134 21.3871 20.2606 21.3871 17.8957C21.3871 15.5304 20.4764 13.2764 18.8569 11.8255C17.4812 10.593 15.8654 9.9752 13.5851 9.9752H2L2.0002 13.5209C2.4734 13.5209 2.8396 13.6412 3.0848 13.9363C3.3562 14.2619 3.4191 14.7052 3.4191 14.9984V20.7923Z" fill="white"/>
</svg>
