<svg width="130" height="60" viewBox="0 0 130 60" fill="none" xmlns="http://www.w3.org/2000/svg">
<g clip-path="url(#clip0_2391_3402)">
<path d="M59.64 0H0V59.64H59.64V0Z" fill="#F35412"/>
<path d="M20.82 32.7803C20.82 29.2503 23.45 26.4303 27.73 26.4303C28.07 26.4303 28.36 26.4503 28.78 26.5003V21.5103C28.78 21.3903 28.83 21.3403 28.93 21.3403H31.58C31.7 21.3403 31.7 21.3903 31.7 21.4903V36.1803C31.7 36.6703 31.75 37.3003 31.8 37.7403C31.8 37.8603 31.78 37.9103 31.65 37.9603C30.07 38.6403 28.51 38.9103 27.05 38.9103C23.52 38.9103 20.82 36.8703 20.82 32.7803ZM28.78 29.0603C28.46 28.9403 28.07 28.8903 27.64 28.8903C25.47 28.8903 23.85 30.2803 23.85 32.6403C23.85 35.2903 25.43 36.3903 27.38 36.3903C27.87 36.3903 28.35 36.3403 28.79 36.2003V29.0703L28.78 29.0603Z" fill="white"/>
<path d="M36.99 33.3402C37.06 35.0402 38.18 36.4002 40.66 36.4002C41.75 36.4002 42.75 36.2102 43.68 35.8202C43.75 35.7702 43.83 35.8002 43.83 35.9202V37.9402C43.83 38.0902 43.78 38.1602 43.68 38.2102C42.76 38.6502 41.68 38.9202 40.03 38.9202C35.6 38.9202 34.02 35.8102 34.02 32.8202C34.02 29.4402 36.06 26.4502 39.74 26.4502C43.42 26.4502 44.73 29.2702 44.73 31.5802C44.73 32.2602 44.71 32.8202 44.63 33.0902C44.61 33.1902 44.56 33.2402 44.44 33.2602C44.1 33.3302 43.13 33.3602 41.94 33.3602H37L36.99 33.3402ZM40.62 31.2502C41.54 31.2502 41.86 31.2502 41.96 31.2302V31.0402C41.96 30.3302 41.47 28.7802 39.63 28.7802C37.95 28.7802 37.2 30.0702 37 31.2602H40.62V31.2502Z" fill="white"/>
<path d="M49.9 38.6702C49.75 38.6702 49.71 38.6002 49.66 38.5202C48.86 36.1902 46.5 29.2802 45.65 26.8502C45.63 26.7502 45.65 26.6802 45.8 26.6802H48.57C48.69 26.6802 48.74 26.7002 48.79 26.8302C50.54 32.5202 51.17 34.8602 51.42 35.9302H51.47C51.74 34.8602 52.47 32.5502 54.32 26.8302C54.34 26.7102 54.42 26.6802 54.51 26.6802H56.97C57.04 26.6802 57.14 26.7302 57.09 26.8702C56.17 29.4202 53.81 36.2302 52.98 38.5002C52.93 38.6202 52.86 38.6702 52.71 38.6702H49.91H49.9Z" fill="white"/>
<path d="M66.34 21.23C66.46 21.23 66.51 21.23 66.51 21.38V27.1C67.29 26.78 68.16 26.61 69.14 26.61C72.5 26.61 74.69 29.02 74.69 32.3C74.69 36.68 71.38 38.92 67.95 38.92C66.73 38.92 65.66 38.77 64.62 38.43C64.52 38.41 64.47 38.31 64.47 38.21V21.38C64.47 21.26 64.52 21.23 64.64 21.23H66.34ZM68.82 28.38C67.77 28.38 67.12 28.55 66.51 28.79V36.96C66.97 37.11 67.46 37.15 68.11 37.15C70.44 37.15 72.61 35.59 72.61 32.46C72.61 29.98 71.15 28.37 68.82 28.37V28.38Z" fill="white"/>
<path d="M87.72 32.7304C87.72 36.4304 85.43 38.9104 82.17 38.9104C78.25 38.9104 76.58 35.7503 76.58 32.7603C76.58 29.3303 78.77 26.6104 82.17 26.6104C85.57 26.6104 87.72 29.2404 87.72 32.7404V32.7304ZM78.62 32.7104C78.62 35.1904 79.91 37.1604 82.22 37.1604C83.95 37.1604 85.65 35.8003 85.65 32.7803C85.65 30.5203 84.6 28.3504 82.07 28.3504C80.03 28.3504 78.62 30.1004 78.62 32.7004V32.7104Z" fill="white"/>
<path d="M98.58 36.6004C98.58 37.0104 98.58 37.3804 98.63 37.7704C98.63 37.8204 98.63 37.8404 98.58 37.8704C96.83 38.7004 95.44 38.9204 94.03 38.9204C91.45 38.9204 89.51 37.6604 89.51 35.1004C89.51 32.5404 91.92 31.3804 94.93 31.3804C95.83 31.3804 96.34 31.4004 96.61 31.4304V30.8504C96.61 30.1004 96.24 28.4204 93.86 28.4204C92.69 28.4204 91.62 28.6904 90.77 29.1504C90.7 29.1704 90.6 29.1504 90.6 29.0304V27.5504C90.6 27.4504 90.65 27.4004 90.72 27.3604C91.67 26.9004 92.89 26.6304 94.17 26.6304C97.28 26.6304 98.57 28.6704 98.57 31.2004V36.6204L98.58 36.6004ZM96.62 33.0204C96.28 32.9704 95.74 32.9204 95.01 32.9204C92.65 32.9204 91.51 33.7204 91.51 35.0904C91.51 36.1804 92.26 37.2504 94.4 37.2504C95.18 37.2504 95.91 37.1304 96.61 36.8404V33.0204H96.62Z" fill="white"/>
<path d="M103.54 26.8504C103.69 26.8504 103.71 26.9004 103.76 27.0204C103.86 27.3104 103.93 28.1604 103.95 28.7004C104.8 27.5304 106.31 26.6104 107.87 26.6104C107.99 26.6104 108.04 26.6304 108.04 26.7804V28.5304C108.04 28.6504 108.02 28.6804 107.87 28.6804C106.19 28.6604 104.66 29.4804 104.05 30.4604L104.03 38.5404C104.03 38.6604 103.98 38.6903 103.88 38.6903H102.15C102.03 38.6903 101.98 38.6404 101.98 38.5204V30.1304C101.98 29.1104 101.93 27.7004 101.86 27.0204C101.86 26.9204 101.88 26.8704 101.98 26.8704H103.54V26.8504Z" fill="white"/>
<path d="M109.06 32.8502C109.06 29.2702 111.71 26.6002 115.68 26.6002C116.36 26.6002 116.75 26.6702 117.21 26.7502V21.3702C117.21 21.2502 117.26 21.2202 117.36 21.2202H119.11C119.23 21.2202 119.26 21.2702 119.26 21.3402V36.6602C119.26 37.0002 119.26 37.4102 119.31 37.8302C119.31 37.9302 119.29 37.9502 119.19 38.0002C117.8 38.6602 116.44 38.9002 115.08 38.9002C111.7 38.9002 109.07 36.8602 109.07 32.8402L109.06 32.8502ZM117.21 28.6002C116.82 28.4302 116.24 28.3602 115.63 28.3602C112.86 28.3602 111.13 30.2302 111.13 32.7602C111.13 35.9202 113.12 37.1402 115.26 37.1402C115.89 37.1402 116.65 37.0702 117.21 36.8202V28.6002Z" fill="white"/>
<path d="M126.11 28.2801C124.5 28.2801 123.97 29.0601 123.97 29.7901C123.97 30.5201 124.41 31.0301 126.23 31.7601C128.69 32.7101 129.68 33.7101 129.68 35.4301C129.68 37.6701 127.86 38.9101 125.33 38.9101C123.99 38.9101 122.78 38.6201 122.07 38.2001C122 38.1501 121.95 38.1001 121.95 37.9801V36.3501C121.95 36.2301 122.02 36.1801 122.1 36.2301C123.07 36.9101 124.31 37.2001 125.38 37.2001C126.94 37.2001 127.69 36.5201 127.69 35.6201C127.69 34.7201 127.15 34.1801 125.48 33.5301C123.05 32.6101 122.03 31.6101 122.03 29.8801C122.03 28.1501 123.51 26.6001 126.16 26.6001C127.5 26.6001 128.49 26.8401 129.01 27.1401C129.13 27.1901 129.13 27.2901 129.13 27.3801V28.8601C129.13 28.9801 129.06 29.0501 128.93 28.9801C128.25 28.5701 127.13 28.2701 126.11 28.2701V28.2801Z" fill="white"/>
<path d="M18.81 4.5498H4.77002V18.5898H18.81V4.5498Z" fill="white"/>
</g>
<defs>
<clipPath id="clip0_2391_3402">
<rect width="129.68" height="59.64" fill="white"/>
</clipPath>
</defs>
</svg>
