<svg width="183" height="44" viewBox="0 0 183 44" fill="none" xmlns="http://www.w3.org/2000/svg">
<path d="M56.8849 35.7749C57.3119 35.7749 57.6779 35.8054 57.9829 35.8664C58.2879 35.9274 58.5319 36.0189 58.7149 36.1409C59.0199 36.3239 59.2639 36.5984 59.4469 36.9339C59.6299 37.2694 59.6909 37.6354 59.6909 38.0319C59.6909 38.7943 59.4469 39.3738 58.9894 39.7398C58.5319 40.1058 57.8304 40.2888 56.8849 40.2888H54.2925V35.7749H56.8849ZM56.7934 36.4459H55.1465V39.6178H56.7934C57.5254 39.6178 58.0439 39.4958 58.3489 39.2518C58.6539 39.0078 58.8064 38.6113 58.8064 38.0319C58.8064 37.4829 58.6539 37.0864 58.3489 36.8424C58.0439 36.5679 57.5254 36.4459 56.7934 36.4459Z" fill="white"/>
<path d="M61.0633 40.2888V35.7749H64.6927C65.0282 35.7749 65.2722 35.8359 65.4247 35.9884C65.5772 36.1409 65.6382 36.3544 65.6382 36.6594V37.6659C65.6382 37.9709 65.5772 38.1844 65.4247 38.3369C65.2722 38.4588 65.0282 38.5503 64.6927 38.5503H64.0827L66.0652 40.3193H64.9367L63.1373 38.5503H61.9173V40.3193H61.0633V40.2888ZM64.3267 36.4459H61.9173V37.9099H64.3267C64.5097 37.9099 64.6317 37.8794 64.6927 37.8184C64.7537 37.7574 64.7842 37.6354 64.7842 37.4524V36.9034C64.7842 36.7509 64.7537 36.6289 64.6927 36.5374C64.6317 36.4764 64.5097 36.4459 64.3267 36.4459Z" fill="white"/>
<path d="M67.8037 35.8062H66.9497V40.3201H67.8037V35.8062Z" fill="white"/>
<path d="M71.0061 40.2888L68.4137 35.7749H69.3287L71.3416 39.4043L73.2936 35.7749H74.1171L71.6466 40.2888H71.0061Z" fill="white"/>
<path d="M74.7575 40.2888V35.7749H79.3019V36.4459H75.6115V37.6049H77.838V38.2758H75.6115V39.6483H79.3629V40.2888H74.7575Z" fill="white"/>
<path d="M85.8288 36.4459V40.2888H84.9748V36.4459H82.8398V35.7749H87.9638V36.4459H85.8288Z" fill="white"/>
<path d="M88.6043 40.2896V35.8062H89.4583V37.6056H93.0572V35.8062H93.9112V40.2896H93.0572V38.2766H89.4583V40.2896H88.6043Z" fill="white"/>
<path d="M95.3751 40.2888V35.7749H99.9195V36.4459H96.2291V37.6049H98.4556V38.2758H96.2291V39.6483H99.95V40.2888H95.3751Z" fill="white"/>
<path d="M104.25 40.2888V35.7749H108.764V36.4459H105.104V37.8489H107.178V38.5199H105.104V40.2888H104.25Z" fill="white"/>
<path d="M110.259 35.7749V39.6178H113.553V35.7749H114.407V39.2213C114.407 39.6483 114.315 39.9228 114.163 40.0753C114.01 40.2278 113.705 40.2888 113.278 40.2888H110.472C110.045 40.2888 109.74 40.2278 109.588 40.0753C109.435 39.9228 109.374 39.6483 109.374 39.2213V35.7749H110.259Z" fill="white"/>
<path d="M118.036 36.4459V40.2888H117.213V36.4459H115.078V35.7749H120.202V36.4459H118.036Z" fill="white"/>
<path d="M121.696 35.7749V39.6178H124.99V35.7749H125.844V39.2213C125.844 39.6483 125.753 39.9228 125.6 40.0753C125.448 40.2278 125.143 40.2888 124.716 40.2888H121.94C121.513 40.2888 121.208 40.2278 121.056 40.0753C120.903 39.9228 120.842 39.6483 120.842 39.2213V35.7749H121.696Z" fill="white"/>
<path d="M127.308 40.2888V35.7749H130.938C131.273 35.7749 131.517 35.8359 131.67 35.9884C131.822 36.1409 131.883 36.3544 131.883 36.6594V37.6659C131.883 37.9709 131.822 38.1844 131.67 38.3369C131.517 38.4588 131.273 38.5503 130.938 38.5503H130.328L132.31 40.3193H131.182L129.382 38.5503H128.162V40.3193H127.308V40.2888ZM130.541 36.4459H128.132V37.9099H130.541C130.724 37.9099 130.846 37.8794 130.938 37.8184C130.999 37.7574 131.029 37.6354 131.029 37.4524V36.9034C131.029 36.7509 130.999 36.6289 130.938 36.5374C130.877 36.4764 130.724 36.4459 130.541 36.4459Z" fill="white"/>
<path d="M133.194 40.2888V35.7749H137.739V36.4459H134.048V37.6049H136.275V38.2758H134.048V39.6483H137.769V40.2888H133.194Z" fill="white"/>
<path d="M45.0511 12.9013C44.3496 11.7118 42.8247 11.2848 41.6352 11.9863C40.7507 12.5048 40.2932 13.4807 40.4152 14.4567L37.0908 16.3782C37.0603 16.3477 37.0603 16.3477 37.0298 16.3172C36.9383 16.2562 36.8163 16.1647 36.6638 16.1037L23.8845 8.72284L23.854 8.69234C23.793 8.66184 23.732 8.63134 23.671 8.60084V4.78841C24.5555 4.42242 25.196 3.53794 25.196 2.50096C25.196 1.12848 24.0675 0 22.695 0C21.3226 0 20.1941 1.12848 20.1941 2.50096C20.1941 3.53794 20.8346 4.42242 21.7191 4.78841V8.60084C21.6581 8.63134 21.5971 8.66184 21.5056 8.69234L8.39081 16.2562L8.36031 16.2867C8.32981 16.3172 8.26881 16.3477 8.23831 16.3782L4.97487 14.5177C5.09687 13.5722 4.63938 12.5658 3.75489 12.0473C2.56542 11.3763 1.04045 11.7728 0.338959 12.9623C-0.362527 14.1517 0.0644646 15.6767 1.25394 16.3782C2.13843 16.8967 3.2364 16.8052 3.99889 16.1952L7.32333 18.1167C7.32333 18.1777 7.32333 18.2692 7.32333 18.3302V33.2749C7.32333 34.1594 7.81132 34.9828 8.5433 35.4098L21.5056 42.8822H21.5361C21.9021 43.0652 22.2985 43.1872 22.695 43.1872C23.0915 43.1872 23.5185 43.0957 23.8845 42.8822L36.8163 35.4098H36.8468C37.6398 34.9828 38.1277 34.1594 38.1277 33.2444V18.2997C38.1277 18.2082 38.1277 18.1167 38.0972 18.0252L41.4217 16.1037C42.1842 16.6832 43.2821 16.7747 44.1666 16.2562C45.3256 15.6157 45.7526 14.0907 45.0511 12.9013ZM36.1453 30.0724C36.1453 30.5909 35.7183 31.0484 34.9558 31.2619L23.6405 34.7998C23.3355 34.8913 23.0305 34.9218 22.695 34.9218C22.3595 34.9218 22.0545 34.8913 21.7496 34.7998H21.7191L10.4038 31.2619C9.67178 31.0484 9.24479 30.5909 9.24479 30.0724V24.5215H36.1453V30.0724Z" fill="#ED6A00"/>
<path d="M10.6173 30.5605L21.9326 34.0985C22.3901 34.251 23.0001 34.2205 23.4271 34.0985L34.7423 30.5605C35.1693 30.4385 35.4133 30.1945 35.4133 30.042V25.2231H9.97681V30.0726C9.97681 30.1945 10.1903 30.4385 10.6173 30.5605ZM11.1663 26.3516H34.2238V29.0661C34.2238 29.4016 33.8884 29.6761 33.4004 29.8286H33.3699L23.4271 32.9395H23.3966C23.1831 33.0005 22.9086 33.031 22.6341 33.031C22.3596 33.031 22.1156 33.0005 21.8716 32.9395L11.9593 29.8286H11.9288C11.4408 29.6761 11.1358 29.4016 11.1358 29.0966V26.3516H11.1663Z" fill="#ED6A00"/>
<path d="M73.6901 21.532C73.6901 24.4294 72.5006 26.5644 70.0912 27.9673C68.7492 28.7298 66.6142 29.1263 63.6253 29.1263H54.2925V14.1206H64.5403C67.2242 14.1206 69.3592 14.6696 70.9757 15.7676C72.7751 17.0485 73.6901 18.97 73.6901 21.532ZM68.9017 21.471C68.9017 18.9395 67.4377 17.689 64.5403 17.689H58.9284V25.4359H62.8628C64.7538 25.4359 66.1263 25.2224 66.9802 24.8259C68.2612 24.2464 68.9017 23.1179 68.9017 21.471Z" fill="#ED6A00"/>
<path d="M91.9897 17.628H80.3085V20.2205H89.4583V23.8194H80.3085V29.1263H75.6725V14.1206H91.9897V17.628Z" fill="#ED6A00"/>
<path d="M93.9722 29.1263V14.1206H106.05C107.178 14.1206 108.002 14.3646 108.49 14.8221C108.978 15.2796 109.222 16.0116 109.222 17.0485V20.4035C109.222 21.41 108.978 22.1419 108.49 22.5994C108.002 23.0569 107.178 23.3009 106.05 23.3009H103.854L110.716 29.1568H106.995L100.896 23.3009H96.4731V29.1568H93.9722V29.1263ZM105.074 16.0726H96.4731V21.349H105.074C105.684 21.349 106.111 21.227 106.355 21.0135C106.568 20.8 106.69 20.373 106.69 19.824V17.6585C106.69 17.079 106.568 16.6826 106.355 16.4691C106.111 16.1946 105.714 16.0726 105.074 16.0726Z" fill="white"/>
<path d="M111.265 17.6588C111.265 16.2863 111.509 15.3713 111.997 14.8528C112.485 14.3648 113.4 14.0903 114.773 14.0903H125.143C126.485 14.0903 127.43 14.3343 127.888 14.8223C128.375 15.3103 128.619 16.2558 128.619 17.6283V25.5276C128.619 26.9001 128.375 27.8456 127.888 28.3336C127.4 28.8215 126.485 29.0656 125.143 29.0656H114.773C113.4 29.0656 112.455 28.8216 111.997 28.3031C111.509 27.8151 111.265 26.8696 111.265 25.4971V17.6588ZM113.766 27.0221H126.18V16.1643H113.766V27.0221Z" fill="white"/>
<path d="M130.755 29.1263V14.1206H142.863C143.991 14.1206 144.815 14.3646 145.303 14.8221C145.791 15.2796 146.035 16.0116 146.035 17.0485V18.787C146.035 19.6105 145.821 20.19 145.425 20.5865C145.028 20.983 144.388 21.227 143.534 21.349C144.388 21.4405 145.028 21.7455 145.455 22.2639C145.882 22.7519 146.126 23.4534 146.126 24.3074V26.2289C146.126 27.2049 145.791 27.9673 145.089 28.4248C144.418 28.9128 143.351 29.1568 141.978 29.1568H130.755V29.1263ZM143.442 18.9395V17.445C143.442 16.957 143.351 16.6216 143.137 16.4386C142.924 16.2556 142.527 16.1641 141.917 16.1641H133.255V20.312H141.917C142.497 20.312 142.893 20.2205 143.107 20.007C143.351 19.7935 143.442 19.4275 143.442 18.9395ZM143.595 25.2834V24.0329C143.595 23.3619 143.473 22.8739 143.229 22.6299C142.985 22.3859 142.558 22.2334 141.917 22.2334H133.255V27.0524H141.917C142.558 27.0524 142.985 26.9304 143.229 26.6864C143.473 26.4119 143.595 25.9544 143.595 25.2834Z" fill="white"/>
<path d="M148.078 17.6588C148.078 16.2863 148.322 15.3713 148.81 14.8528C149.298 14.3648 150.213 14.0903 151.586 14.0903H161.955C163.297 14.0903 164.212 14.3343 164.731 14.8223C165.219 15.3103 165.463 16.2558 165.463 17.6283V25.5276C165.463 26.9001 165.219 27.8456 164.731 28.3336C164.243 28.8215 163.328 29.0656 161.955 29.0656H151.586C150.213 29.0656 149.298 28.8216 148.81 28.3031C148.322 27.8151 148.078 26.8696 148.078 25.4971V17.6588ZM150.579 27.0221H162.992V16.1643H150.579V27.0221Z" fill="white"/>
<path d="M176.107 16.1641V29.1263H173.606V16.1641H166.774V14.1206H183V16.1641H176.107Z" fill="white"/>
</svg>
