<svg width="73" height="26" viewBox="0 0 73 26" fill="none" xmlns="http://www.w3.org/2000/svg">
<path d="M14.2539 22.6863C14.2691 22.6971 14.2931 22.7149 14.314 22.7294C14.2938 22.715 14.2741 22.7016 14.2539 22.6863Z" fill="white"/>
<path d="M14.3041 19.469C12.1406 20.4846 10.7053 19.4469 11.1244 18.6301C11.4309 18.0336 12.361 16.7534 12.1406 15.6941C11.8791 14.4392 10.6831 13.4642 9.4029 12.824C8.1226 12.1839 7.0507 11.5229 7.3052 9.9761C7.5338 8.5927 9.0825 8.1266 10.4735 8.1266C10.4735 8.1266 11.5771 8.132 12.1071 8.2647C12.4426 8.3488 12.549 8.3977 12.2729 8.6294C12.045 8.8206 11.5094 9.2644 12.0077 9.8545C12.8466 10.848 14.7302 10.739 16.07 12.2497C16.6544 12.9082 17.0634 13.9719 17.0634 14.8767C17.0634 14.8767 17.3654 18.0317 14.3041 19.469ZM13.5988 22.4474C13.619 22.4617 13.6387 22.4759 13.6589 22.4904C13.638 22.4761 13.614 22.4589 13.5988 22.4474ZM15.9111 3C14.6429 3 13.6152 4.0282 13.6152 5.2964V7.4093C13.6133 7.5726 13.4804 7.7037 13.317 7.7037C13.279 7.7037 13.2429 7.6965 13.2094 7.6834L13.2056 7.6828C13.2088 7.684 13.2113 7.6846 13.2138 7.6864C12.2527 7.2843 11.1972 7.0621 10.0892 7.0621C5.621 7.0621 2 10.6698 2 15.1203C2 19.5707 5.621 23.1784 10.0892 23.1784C10.9288 23.1784 11.743 23.1171 12.5047 22.8802C12.8187 22.7828 13.1239 22.6656 13.4196 22.5313C13.4361 22.5242 13.5222 22.4845 13.5747 22.4845C13.6216 22.4845 13.6653 22.4989 13.702 22.5206C13.702 22.5206 13.6988 22.5188 13.6956 22.517C14.5131 23.0691 15.5407 23.09 15.6895 23.09H15.7477C15.7502 23.09 15.7547 23.09 15.7547 23.09C17.0457 23.09 18.1645 22.0763 18.2031 20.7942H18.2069V5.2964C18.2069 4.0282 17.1793 3 15.9111 3Z" fill="white"/>
<path d="M28.4894 12.5486C28.4894 12.2915 28.4679 11.9914 28.4033 11.7344C28.1254 10.5561 27.0971 9.57095 25.6833 9.57095C23.7338 9.57095 22.577 11.2848 22.577 13.5553C22.577 15.6758 23.6268 17.4113 25.6402 17.4113C26.904 17.4113 28.0608 16.5539 28.4033 15.1616C28.4679 14.9046 28.4894 14.6475 28.4894 14.348V12.5486ZM30.3743 3.48755V16.0189C30.3743 16.9402 30.3959 17.9893 30.4598 18.6965H28.768L28.6826 16.8971H28.6389C28.0608 18.0539 26.8185 18.9321 25.1261 18.9321C22.6201 18.9321 20.6706 16.811 20.6706 13.6624C20.6491 10.192 22.8126 8.09315 25.3192 8.09315C26.9255 8.09315 27.9968 8.84275 28.4464 9.65705H28.4894V3.48755H30.3743Z" fill="white"/>
<path d="M32.5304 8.32871H34.4153V18.6966H32.5304V8.32871ZM33.4307 6.42231C32.7235 6.42231 32.2524 5.86511 32.2524 5.20091C32.2524 4.53741 32.745 4.00171 33.4732 4.00171C34.2013 4.00171 34.673 4.53741 34.673 5.20091C34.673 5.86511 34.2013 6.42231 33.4516 6.42231H33.4307Z" fill="white"/>
<path d="M42.3085 13.4052C40.2526 13.3628 37.9176 13.7268 37.9176 15.7403C37.9176 16.9825 38.7312 17.5397 39.6739 17.5397C41.0447 17.5397 41.9229 16.683 42.223 15.8048C42.287 15.6117 42.3085 15.3977 42.3085 15.2046V13.4052ZM44.1504 16.2113C44.1504 17.1111 44.1934 17.9899 44.301 18.6965H42.6086L42.437 17.3896H42.3731C41.8159 18.2039 40.6807 18.932 39.2029 18.932C37.1033 18.932 36.032 17.4536 36.032 15.9543C36.032 13.4482 38.2601 12.0775 42.2661 12.099V11.885C42.2661 11.0277 42.0306 9.46442 39.9095 9.48532C38.9243 9.48532 37.9176 9.76392 37.1888 10.2565L36.7608 8.99272C37.6175 8.45772 38.8819 8.09302 40.1874 8.09302C43.3798 8.09302 44.1504 10.2565 44.1504 12.3345V16.2113Z" fill="white"/>
<path d="M46.0483 3.48755H47.9332V18.6965H46.0483V3.48755Z" fill="white"/>
<path d="M54.491 17.5182C56.2904 17.5182 57.6397 15.8264 57.6397 13.4698C57.6397 11.7134 56.7615 9.50682 54.5334 9.50682C52.3275 9.50682 51.3638 11.5633 51.3638 13.5337C51.3638 15.8048 52.6491 17.5182 54.4694 17.5182H54.491ZM54.427 18.932C51.6424 18.932 49.4568 16.8755 49.4568 13.5983C49.4568 10.128 51.7494 8.09302 54.598 8.09302C57.5757 8.09302 59.5891 10.2565 59.5891 13.4052C59.5891 17.2611 56.9115 18.932 54.4486 18.932H54.427Z" fill="white"/>
<path d="M68.3739 12.3989C68.3739 12.0988 68.353 11.8202 68.2675 11.5632C67.9243 10.4494 67.0246 9.54971 65.6323 9.54971C63.8329 9.54971 62.5476 11.0706 62.5476 13.4911C62.5476 15.5045 63.5974 17.2185 65.6108 17.2185C66.7891 17.2185 67.8389 16.4904 68.2245 15.269C68.3315 14.9695 68.3739 14.6049 68.3739 14.2623V12.3989ZM70.2588 17.1755C70.2588 19.5745 69.7662 21.0098 68.781 21.9311C67.7534 22.8523 66.2965 23.1733 64.9897 23.1733C63.7474 23.1733 62.376 22.8732 61.5409 22.3167L62.0126 20.8598C62.6976 21.31 63.7689 21.6956 65.0536 21.6956C66.9816 21.6956 68.3954 20.6888 68.3954 18.0537V16.9184H68.353C67.7958 17.8821 66.6606 18.6539 65.0536 18.6539C62.4836 18.6539 60.6411 16.4689 60.6411 13.5772C60.6411 10.0639 62.9332 8.09351 65.3322 8.09351C67.1316 8.09351 68.0959 9.01411 68.567 9.87141H68.6101L68.674 8.32901H70.3449C70.2803 9.05711 70.2588 9.89221 70.2588 11.1567V17.1755Z" fill="white"/>
<path d="M21.989 22.6797C22.16 22.7892 22.4057 22.8729 22.6684 22.8729C23.0584 22.8729 23.287 22.6709 23.287 22.3689C23.287 22.0966 23.1287 21.9345 22.7298 21.7857C22.2474 21.6104 21.9492 21.3558 21.9492 20.9436C21.9492 20.4833 22.3309 20.1414 22.9052 20.1414C23.2034 20.1414 23.4269 20.2118 23.5542 20.2864L23.4485 20.5973C23.3567 20.5404 23.1597 20.4573 22.8919 20.4573C22.4886 20.4573 22.3354 20.6985 22.3354 20.8999C22.3354 21.1759 22.5152 21.3121 22.9229 21.4697C23.4225 21.6667 23.6726 21.9041 23.6726 22.3378C23.6726 22.7937 23.3389 23.1925 22.6418 23.1925C22.3569 23.1925 22.046 23.1051 21.8877 23.0001L21.989 22.6797Z" fill="white"/>
<path d="M26.187 21.7591H25.0429V22.8247H26.3231V23.1445H24.6567V20.1902H26.2573V20.5099H25.0429V21.4438H26.187V21.7591Z" fill="white"/>
<path d="M29.7303 21.8469C29.7088 21.4347 29.6822 20.9345 29.6822 20.5711H29.6733C29.5682 20.913 29.4498 21.2853 29.301 21.693L28.7793 23.1265H28.49L28.0075 21.7196C27.8676 21.2986 27.753 20.9218 27.67 20.5711H27.6612C27.6523 20.9396 27.6301 21.4303 27.6042 21.8773L27.5257 23.1448H27.1616L27.3674 20.1899H27.8543L28.3583 21.6189C28.4811 21.9824 28.5774 22.3072 28.6565 22.6143H28.6654C28.7439 22.3161 28.8496 21.9912 28.9807 21.6189L29.5068 20.1899H29.9937L30.178 23.1448H29.8006L29.7303 21.8469Z" fill="white"/>
<path d="M31.6072 23.1447H31.2209V20.1897H31.6072V23.1447Z" fill="white"/>
<path d="M34.7927 23.0523C34.6566 23.1227 34.3717 23.1923 34.012 23.1923C33.1794 23.1923 32.5571 22.6668 32.5571 21.693C32.5571 20.7642 33.1839 20.1411 34.1001 20.1411C34.4641 20.1411 34.7003 20.2203 34.8016 20.2729L34.7047 20.5844C34.5648 20.514 34.3584 20.4616 34.1134 20.4616C33.4207 20.4616 32.9604 20.9042 32.9604 21.6805C32.9604 22.408 33.3764 22.8682 34.0912 22.8682C34.328 22.8682 34.5648 22.8201 34.718 22.746L34.7927 23.0523Z" fill="white"/>
<path d="M36.7357 22.8814C37.3404 22.8814 37.6824 22.3249 37.6824 21.6537C37.6824 21.0668 37.3758 20.4526 36.7401 20.4526C36.1044 20.4526 35.7885 21.0446 35.7885 21.6847C35.7885 22.3071 36.1304 22.8814 36.7313 22.8814H36.7357ZM36.7179 23.1923C35.9334 23.1923 35.3896 22.5876 35.3896 21.693C35.3896 20.7553 35.9683 20.1411 36.7578 20.1411C37.5689 20.1411 38.09 20.7597 38.09 21.6366C38.09 22.649 37.472 23.1923 36.7224 23.1923H36.7179Z" fill="white"/>
<path d="M38.9246 23.1446V20.1897H39.3457L40.2878 21.6846C40.5025 22.0309 40.6785 22.338 40.8146 22.6445L40.8273 22.6409C40.7919 22.2458 40.7837 21.8861 40.7837 21.4303V20.1899H41.1433V23.1449H40.7571L39.8187 21.6455C39.613 21.3169 39.4154 20.9788 39.2711 20.6591L39.2578 20.6627C39.2799 21.0356 39.2844 21.3902 39.2844 21.8815V23.144L38.9246 23.1446Z" fill="white"/>
<path d="M42.516 22.8462C42.6122 22.8641 42.7528 22.8641 42.9016 22.8641C43.7171 22.8677 44.1603 22.4083 44.1603 21.6105C44.1641 20.9045 43.7696 20.4702 42.963 20.4702C42.7661 20.4702 42.6167 20.4881 42.516 20.51V22.8462ZM42.1304 20.2294C42.3672 20.1938 42.6433 20.168 42.9459 20.168C43.4936 20.168 43.8836 20.2902 44.1426 20.5314C44.4098 20.7733 44.563 21.119 44.563 21.597C44.563 22.0795 44.4098 22.4739 44.1381 22.7456C43.857 23.0216 43.4011 23.171 42.8269 23.171C42.5515 23.171 42.3273 23.162 42.1304 23.1355V20.2294Z" fill="white"/>
<path d="M45.7513 20.1897V21.9429C45.7513 22.6008 46.0451 22.8813 46.4395 22.8813C46.8739 22.8813 47.1588 22.5919 47.1588 21.9429V20.1897H47.5444V21.917C47.5444 22.8243 47.0663 23.1921 46.4268 23.1921C45.8215 23.1921 45.3657 22.8509 45.3657 21.9303V20.1897H45.7513Z" fill="white"/>
<path d="M50.5191 23.0523C50.3829 23.1227 50.098 23.1923 49.7384 23.1923C48.9058 23.1923 48.2834 22.6668 48.2834 21.693C48.2834 20.7642 48.9102 20.1411 49.8264 20.1411C50.1898 20.1411 50.4266 20.2203 50.5279 20.2729L50.4311 20.5844C50.2912 20.514 50.0847 20.4616 49.8391 20.4616C49.147 20.4616 48.6861 20.9042 48.6861 21.6805C48.6861 22.408 49.1027 22.8682 49.8176 22.8682C50.0544 22.8682 50.2913 22.8201 50.4445 22.746L50.5191 23.0523Z" fill="white"/>
<path d="M52.0771 20.5141H51.1787V20.1899H53.3662V20.5141H52.4627V23.1449H52.0771V20.5141Z" fill="white"/>
<path d="M55.0956 22.8814C55.7003 22.8814 56.0422 22.3249 56.0422 21.6537C56.0422 21.0668 55.7351 20.4526 55.1 20.4526C54.4637 20.4526 54.1484 21.0446 54.1484 21.6847C54.1484 22.3071 54.4903 22.8814 55.0912 22.8814H55.0956ZM55.0778 23.1923C54.2933 23.1923 53.7495 22.5876 53.7495 21.693C53.7495 20.7553 54.3282 20.1411 55.1177 20.1411C55.9282 20.1411 56.4499 20.7597 56.4499 21.6366C56.4499 22.649 55.8319 23.1923 55.0823 23.1923H55.0778Z" fill="white"/>
<path d="M57.5387 21.5751H57.9287C58.3364 21.5751 58.596 21.3515 58.596 21.0141C58.596 20.6323 58.3193 20.4658 57.9154 20.4658C57.7318 20.4658 57.6045 20.4837 57.5387 20.5013V21.5751ZM57.1575 20.2334C57.35 20.1935 57.6311 20.1675 57.8894 20.1675C58.2972 20.1675 58.5644 20.2467 58.7486 20.4132C58.8936 20.5404 58.9816 20.7418 58.9816 20.9741C58.9816 21.3604 58.7315 21.6187 58.4245 21.7238V21.7364C58.648 21.8155 58.7841 22.0257 58.8588 22.3328C58.955 22.745 59.0247 23.0299 59.0817 23.1439H58.6872C58.6391 23.0603 58.5739 22.8058 58.4947 22.4379C58.4067 22.0301 58.2446 21.8769 57.8983 21.8636H57.5387V23.1439H57.1575V20.2334Z" fill="white"/>
</svg>
