<svg width="114" height="36" viewBox="0 0 114 36" fill="none" xmlns="http://www.w3.org/2000/svg">
<g clip-path="url(#clip0_2216_4019)">
<path fill-rule="evenodd" clip-rule="evenodd" d="M31.1227 34.4722H37.4172V0.552002H31.1227V34.4722Z" fill="white"/>
<path fill-rule="evenodd" clip-rule="evenodd" d="M50.8683 24.1611C50.8683 27.4744 52.3029 29.4111 56.8127 29.4111C58.5555 29.4111 60.3498 29.2584 62.0915 29.0037V18.7064H68.1902V33.6424C64.6032 34.662 60.3498 35.1717 56.7612 35.1717C48.4088 35.1717 44.411 31.6541 44.411 24.9256V10.4477C44.411 3.46451 48.5113 0.202393 57.377 0.202393C60.1436 0.202393 64.0903 0.507851 67.1652 1.32348L66.4473 6.93094C63.321 6.26844 60.1959 6.01295 56.8637 6.01295C52.3543 6.01295 50.8683 7.84852 50.8683 11.3149V24.1611Z" fill="white"/>
<path fill-rule="evenodd" clip-rule="evenodd" d="M75.5337 34.4722H81.8282V0.552002H75.5337V34.4722Z" fill="white"/>
<path fill-rule="evenodd" clip-rule="evenodd" d="M90.2209 24.3311V0.552002H114L90.2209 24.3311Z" fill="#84C361"/>
<path fill-rule="evenodd" clip-rule="evenodd" d="M12.5746 0.552002H0V6.22866L11.9148 6.20491C16.2247 6.20491 17.3907 7.93661 17.3907 11.1963V23.8272C17.3907 27.0868 16.2247 28.8189 11.9148 28.8189H6.38848V9.40701L0 15.8245V34.4722H12.5746C20.8897 34.4722 23.7791 30.1939 23.7791 25.3551V9.66832C23.7791 4.7788 20.8897 0.552002 12.5746 0.552002Z" fill="white"/>
<path fill-rule="evenodd" clip-rule="evenodd" d="M86.323 32.6974C86.5735 32.6974 86.7218 32.5908 86.7218 32.3953C86.7218 32.218 86.6201 32.1025 86.342 32.1025H86.0822V32.6974H86.323ZM85.7016 31.8011H86.4065C86.7964 31.8011 87.13 31.952 87.13 32.3778C87.13 32.5908 86.991 32.7948 86.7871 32.8658L87.2135 33.6023H86.7871L86.462 32.9813H86.0822V33.6023H85.7016V31.8011ZM87.7514 32.7238C87.7514 31.8895 87.1487 31.2949 86.3696 31.2949C85.5905 31.2949 84.9967 31.8895 84.9967 32.7238C84.9967 33.567 85.5905 34.1438 86.3696 34.1438C87.1487 34.1438 87.7514 33.567 87.7514 32.7238ZM84.6258 32.7238C84.6258 31.6855 85.4142 30.9753 86.3696 30.9753C87.3339 30.9753 88.1227 31.6855 88.1227 32.7238C88.1227 33.7621 87.3339 34.4723 86.3696 34.4723C85.4142 34.4723 84.6258 33.7621 84.6258 32.7238Z" fill="white"/>
</g>
<defs>
<clipPath id="clip0_2216_4019">
<rect width="114" height="34.9693" fill="white" transform="translate(0 0.202393)"/>
</clipPath>
</defs>
</svg>
