<svg width="99" height="20" viewBox="0 0 99 20" fill="none" xmlns="http://www.w3.org/2000/svg">
<path d="M22.1123 15.585V5.00195H26.4137C30.9542 5.00195 32.3367 8.07105 32.3367 10.2784C32.3367 12.4858 30.9542 15.585 26.4137 15.585H22.1123ZM26.4137 13.3323C29.1789 13.3323 29.5716 11.0644 29.5716 10.2781C29.5716 9.49185 29.1789 7.23915 26.4137 7.23915H24.8263V13.332L26.4137 13.3323Z" fill="white"/>
<path d="M36.5303 15.5851H33.7993V5.0022H36.5303V15.5851Z" fill="white"/>
<path d="M43.3697 11.9643V9.80065H48.3878V13.9956C47.2101 15.0113 45.8104 15.5852 43.9327 15.5852C39.3926 15.5852 37.9927 12.4941 37.9927 10.2862C37.9927 8.07815 39.3923 5.00195 43.9327 5.00195C45.8787 5.00195 47.2784 5.69385 48.4732 6.79765L46.7833 8.38735C46.0833 7.76925 44.8714 7.22455 43.9327 7.22455C41.1676 7.22455 40.7749 9.49115 40.7749 10.2567C40.7749 11.0222 41.1676 13.4064 43.9327 13.4064C44.5132 13.4064 45.247 13.2298 45.6397 12.9796V11.964L43.3697 11.9643Z" fill="white"/>
<path d="M52.6673 15.5851H49.9365V5.0022H52.6673V15.5851Z" fill="white"/>
<path d="M56.878 13.3325H61.1965V15.5851H54.1299V5.0022H56.878V13.3325Z" fill="white"/>
<path d="M65.3903 11.488V13.3325H70.9206V15.5851H62.6592V5.0022H70.9206V7.2549H65.3903V9.2353H69.7087V11.488H65.3903Z" fill="white"/>
<path d="M72.537 5.00225L79.5526 10.3753V5.13545H82.2838V15.5259L82.1472 15.5852L75.1315 10.1679V15.4965H72.3833V5.04635L72.537 5.00225Z" fill="white"/>
<path d="M86.87 7.2549H83.7466V5.0022H92.7761V7.2549H89.6181V15.5851H86.87V7.2549Z" fill="white"/>
<path d="M95.9999 6.12195C95.9999 6.74155 95.4999 7.24155 94.8809 7.24155C94.3109 7.24155 93.7629 6.76355 93.7629 6.11295C93.7629 5.54205 94.2489 5.00195 94.8809 5.00195C95.5139 5.00195 95.9999 5.50205 95.9999 6.12195ZM95.7219 6.12195C95.7219 5.65255 95.3499 5.27665 94.8809 5.27665C94.4129 5.27665 94.0409 5.65285 94.0409 6.12195C94.0409 6.59095 94.4119 6.96285 94.8809 6.96285C95.3499 6.96285 95.7219 6.59095 95.7219 6.12195ZM94.7489 6.67945H94.4969V5.55515H94.9389C95.2619 5.55515 95.3589 5.78105 95.3589 5.93565C95.3589 6.07725 95.2569 6.21005 95.1419 6.27655L95.3719 6.67945H95.0759L94.8899 6.32525H94.7489V6.67945ZM94.9569 6.08185C95.0759 6.07755 95.0979 5.98905 95.0979 5.93595C95.0979 5.88725 95.0759 5.79005 94.9479 5.79005H94.7489V6.08215L94.9569 6.08185Z" fill="white"/>
<path d="M19.4292 16.3781C19.5 16.2552 19.5127 16.1423 19.4649 16.0595C19.4171 15.9766 19.3128 15.9312 19.1712 15.9312H7.06411L7.10761 15.8557L11.1001 8.93415L10.1264 7.24585L4.38961 17.1911C4.31881 17.314 4.30611 17.4271 4.35391 17.51C4.40171 17.5929 4.50601 17.6382 4.64781 17.6382H18.1282C18.28 17.6382 18.4539 17.5861 18.6175 17.4914C18.7814 17.3967 18.9133 17.2721 18.9893 17.1405L19.4292 16.3781Z" fill="white"/>
<path d="M10.0833 6.71601L10.1268 6.64061L10.1702 6.71601L14.1628 13.6376H16.1106L10.3739 3.69201C10.3031 3.56911 10.2115 3.50171 10.1159 3.50171C10.0203 3.50171 9.9287 3.56941 9.8579 3.69201L3.1176 15.3772C3.0416 15.5088 3 15.6854 3 15.8748C3 16.0641 3.0419 16.2408 3.1176 16.3724L3.5575 17.1347C3.6283 17.2574 3.7198 17.325 3.8154 17.325C3.9111 17.325 4.0026 17.2574 4.0734 17.1347L10.0833 6.71601Z" fill="white"/>
<path d="M19.3164 15.1828L12.5758 3.4976C12.5001 3.366 12.3682 3.2415 12.2043 3.1468C12.0404 3.0522 11.8665 3 11.7148 3H10.8354C10.6935 3 10.5892 3.0456 10.5417 3.1285C10.4939 3.2114 10.5066 3.3247 10.5774 3.4473L16.5873 13.8663L16.6311 13.9418H8.55876L7.58496 15.6304H19.0588C19.2004 15.6304 19.305 15.5848 19.3528 15.5019C19.4006 15.419 19.3871 15.3054 19.3164 15.1828Z" fill="white"/>
</svg>
