<svg width="148" height="37" viewBox="0 0 148 37" fill="none" xmlns="http://www.w3.org/2000/svg">
<g clip-path="url(#clip0_2216_4028)">
<mask id="mask0_2216_4028" style="mask-type:luminance" maskUnits="userSpaceOnUse" x="0" y="0" width="148" height="37">
<path d="M148 0.387207H0V36.1741H148V0.387207Z" fill="white"/>
</mask>
<g mask="url(#mask0_2216_4028)">
<path d="M121.716 22.1222C123.94 23.1331 126.164 23.5375 129.702 23.5375C132.432 23.5375 134.959 23.032 134.959 20.808C134.959 15.6522 119.795 18.8872 119.795 8.87901C119.795 2.20688 127.377 0.387207 133.746 0.387207C136.779 0.387207 140.418 0.892672 142.642 1.49923L140.418 6.75606C138.093 6.04841 136.88 5.84622 134.454 5.84622C132.331 5.84622 128.691 6.04841 128.691 8.37355C128.691 12.8216 143.855 9.88994 143.855 19.797C143.855 26.9746 136.88 28.8954 129.702 28.8954C126.669 28.8954 123.03 28.491 120.098 27.6823" fill="#005A9C"/>
</g>
<mask id="mask1_2216_4028" style="mask-type:luminance" maskUnits="userSpaceOnUse" x="0" y="0" width="148" height="37">
<path d="M148 0.387207H0V36.1741H148V0.387207Z" fill="white"/>
</mask>
<g mask="url(#mask1_2216_4028)">
<path d="M106.45 23.3352V17.0674H119.694V11.8106H106.45V6.04832H119.694V0.892578H97.8575V9.78875C95.7346 2.91444 88.8603 0.892578 79.5597 0.892578H67.8329V5.94722L76.4258 14.7423V6.35159H79.7619C86.0297 6.35159 89.7701 9.1822 89.7701 14.7423C89.7701 20.2013 86.2319 23.133 79.7619 23.133H76.4258V14.7423L67.934 23.4363V28.592H79.5597C88.6581 28.592 95.7346 26.0647 97.8575 19.2915V28.592H119.694V23.3352" fill="#005A9C"/>
</g>
<mask id="mask2_2216_4028" style="mask-type:luminance" maskUnits="userSpaceOnUse" x="0" y="0" width="148" height="37">
<path d="M148 0.387207H0V36.1741H148V0.387207Z" fill="white"/>
</mask>
<g mask="url(#mask2_2216_4028)">
<path fill-rule="evenodd" clip-rule="evenodd" d="M46.7049 15.5513C46.9071 19.7972 49.0301 23.5376 53.9836 23.5376C58.8361 23.5376 60.959 19.7972 61.2623 15.5513H70.0574C69.653 23.8409 64.0929 28.9966 53.9836 28.9966C45.5929 28.9966 40.0328 25.1551 38.6175 19.0895V28.4912H30.0246V19.0895C27.9016 25.9638 20.8251 28.4912 11.7268 28.4912H0V15.5513H8.5929V23.0321H11.929C17.9945 23.0321 21.5328 20.5048 21.8361 15.5513" fill="#005A9C"/>
</g>
<mask id="mask3_2216_4028" style="mask-type:luminance" maskUnits="userSpaceOnUse" x="0" y="0" width="148" height="37">
<path d="M148 0.387207H0V36.1741H148V0.387207Z" fill="white"/>
</mask>
<g mask="url(#mask3_2216_4028)">
<path fill-rule="evenodd" clip-rule="evenodd" d="M46.7049 13.8326C46.9071 9.48557 49.0301 5.94732 53.9836 5.94732C58.8361 5.94732 60.959 9.48557 61.2623 13.8326H70.0574C69.653 5.44185 64.194 0.387207 53.9836 0.387207C45.4918 0.387207 40.3361 3.92546 38.5164 9.78885V0.892672H29.9235V9.88994C27.9016 3.01562 20.9262 0.892672 11.6257 0.892672H0V13.8326H8.5929V6.35169H11.929C17.7924 6.35169 21.4317 8.87901 21.8361 13.8326" fill="#005A9C"/>
</g>
<mask id="mask4_2216_4028" style="mask-type:luminance" maskUnits="userSpaceOnUse" x="0" y="0" width="148" height="37">
<path d="M148 0.387207H0V36.1741H148V0.387207Z" fill="white"/>
</mask>
<g mask="url(#mask4_2216_4028)">
<path d="M1.61749 32.5344H0V36.0727H1.61749V32.5344Z" fill="white"/>
</g>
<mask id="mask5_2216_4028" style="mask-type:luminance" maskUnits="userSpaceOnUse" x="0" y="0" width="148" height="37">
<path d="M148 0.387207H0V36.1741H148V0.387207Z" fill="white"/>
</mask>
<g mask="url(#mask5_2216_4028)">
<path d="M10.4124 32.5344H12.7375L13.5462 35.0617V32.5344H14.8605V36.0727H12.5353L11.7266 33.5454V36.0727H10.4124" fill="white"/>
</g>
<mask id="mask6_2216_4028" style="mask-type:luminance" maskUnits="userSpaceOnUse" x="0" y="0" width="148" height="37">
<path d="M148 0.387207H0V36.1741H148V0.387207Z" fill="white"/>
</mask>
<g mask="url(#mask6_2216_4028)">
<path d="M27.0927 35.9719C26.7894 36.073 26.385 36.073 25.9807 36.073C24.5654 36.073 23.5544 35.4664 23.5544 34.1522C23.5544 32.9391 24.6665 32.3325 25.9807 32.3325C26.385 32.3325 26.6883 32.3325 27.0927 32.4336V33.3434C26.7894 33.2424 26.5872 33.2424 26.284 33.2424C25.5763 33.2424 25.0708 33.5456 25.0708 34.1522C25.0708 34.7588 25.5763 35.062 26.1829 35.062C26.4861 35.062 26.7894 34.9609 26.9916 34.9609" fill="white"/>
</g>
<mask id="mask7_2216_4028" style="mask-type:luminance" maskUnits="userSpaceOnUse" x="0" y="0" width="148" height="37">
<path d="M148 0.387207H0V36.1741H148V0.387207Z" fill="white"/>
</mask>
<g mask="url(#mask7_2216_4028)">
<path d="M37.8084 36.1738C36.3931 36.1738 35.4832 35.5672 35.4832 34.3541C35.4832 33.141 36.292 32.5344 37.8084 32.5344C39.2237 32.5344 40.1335 33.141 40.1335 34.3541C40.0324 35.5672 39.2237 36.1738 37.8084 36.1738ZM37.8084 35.2639C38.4149 35.2639 38.4149 34.6574 38.4149 34.253C38.4149 33.9497 38.4149 33.2421 37.8084 33.2421C37.2018 33.2421 37.2018 33.8486 37.2018 34.253C37.1007 34.6574 37.2018 35.2639 37.8084 35.2639Z" fill="white"/>
</g>
<mask id="mask8_2216_4028" style="mask-type:luminance" maskUnits="userSpaceOnUse" x="0" y="0" width="148" height="37">
<path d="M148 0.387207H0V36.1741H148V0.387207Z" fill="white"/>
</mask>
<g mask="url(#mask8_2216_4028)">
<path d="M48.6253 32.5344H51.1526C52.1635 32.5344 52.7701 32.8377 52.7701 33.4443C52.7701 33.9497 52.3657 34.253 51.7592 34.3541C52.0625 34.3541 52.2646 34.5563 52.4668 34.7585C52.669 35.1628 52.669 35.6683 52.8712 36.0727H51.2537C51.1526 35.7694 51.1526 35.2639 51.0515 35.0617C50.9504 34.8596 50.7482 34.8596 50.6471 34.8596H50.2428V36.0727H48.6253M50.1417 34.0508H50.5461C50.8493 34.0508 51.1526 34.0508 51.1526 33.6464C51.1526 33.3432 50.8493 33.2421 50.5461 33.2421H50.1417V34.0508Z" fill="white"/>
</g>
<mask id="mask9_2216_4028" style="mask-type:luminance" maskUnits="userSpaceOnUse" x="0" y="0" width="148" height="37">
<path d="M148 0.387207H0V36.1741H148V0.387207Z" fill="white"/>
</mask>
<g mask="url(#mask9_2216_4028)">
<path d="M61.4643 32.5344H64.1938C64.8004 32.5344 65.7102 32.8377 65.7102 33.7475C65.7102 34.6574 65.0025 35.0617 64.1938 35.0617H63.0818V36.0727H61.4643M62.9807 34.253H63.284C63.6883 34.253 64.0927 34.1519 64.0927 33.7475C64.0927 33.3432 63.6883 33.3432 63.284 33.3432H62.9807V34.253Z" fill="white"/>
</g>
<mask id="mask10_2216_4028" style="mask-type:luminance" maskUnits="userSpaceOnUse" x="0" y="0" width="148" height="37">
<path d="M148 0.387207H0V36.1741H148V0.387207Z" fill="white"/>
</mask>
<g mask="url(#mask10_2216_4028)">
<path d="M76.426 36.1738C75.0107 36.1738 74.1009 35.5672 74.1009 34.3541C74.1009 33.141 74.9096 32.5344 76.426 32.5344C77.8413 32.5344 78.7512 33.141 78.7512 34.3541C78.7512 35.5672 77.9424 36.1738 76.426 36.1738ZM76.426 35.2639C77.0326 35.2639 77.0326 34.6574 77.0326 34.253C77.0326 33.9497 77.0326 33.2421 76.426 33.2421C75.8195 33.2421 75.8195 33.8486 75.8195 34.253C75.8195 34.6574 75.9206 35.2639 76.426 35.2639Z" fill="white"/>
</g>
<mask id="mask11_2216_4028" style="mask-type:luminance" maskUnits="userSpaceOnUse" x="0" y="0" width="148" height="37">
<path d="M148 0.387207H0V36.1741H148V0.387207Z" fill="white"/>
</mask>
<g mask="url(#mask11_2216_4028)">
<path d="M87.3447 32.5344H89.872C90.8829 32.5344 91.4895 32.8377 91.4895 33.4443C91.4895 33.9497 91.0851 34.253 90.4785 34.3541C90.7818 34.3541 90.984 34.5563 91.1862 34.7585C91.3884 35.1628 91.3884 35.6683 91.5906 36.0727H89.9731C89.872 35.7694 89.872 35.2639 89.7709 35.0617C89.6698 34.8596 89.5687 34.8596 89.3665 34.8596H88.9622V36.0727H87.3447M88.8611 34.0508H89.2654C89.5687 34.0508 89.872 34.0508 89.872 33.6464C89.872 33.3432 89.5687 33.2421 89.2654 33.2421H88.8611V34.0508Z" fill="white"/>
</g>
<mask id="mask12_2216_4028" style="mask-type:luminance" maskUnits="userSpaceOnUse" x="0" y="0" width="148" height="37">
<path d="M148 0.387207H0V36.1741H148V0.387207Z" fill="white"/>
</mask>
<g mask="url(#mask12_2216_4028)">
<path d="M101.194 32.5344H103.317L104.834 36.0727H103.216L102.913 35.2639H101.599L101.396 36.0727H99.7789M101.801 34.4552H102.711L102.306 33.2421L101.801 34.4552Z" fill="white"/>
</g>
<mask id="mask13_2216_4028" style="mask-type:luminance" maskUnits="userSpaceOnUse" x="0" y="0" width="148" height="37">
<path d="M148 0.387207H0V36.1741H148V0.387207Z" fill="white"/>
</mask>
<g mask="url(#mask13_2216_4028)">
<path d="M117.066 33.5454H115.651V36.0727H114.033V33.5454H112.618V32.5344H117.066" fill="white"/>
</g>
<mask id="mask14_2216_4028" style="mask-type:luminance" maskUnits="userSpaceOnUse" x="0" y="0" width="148" height="37">
<path d="M148 0.387207H0V36.1741H148V0.387207Z" fill="white"/>
</mask>
<g mask="url(#mask14_2216_4028)">
<path d="M125.558 32.5344H129.096V33.3432H127.074V33.8486H128.995V34.7585H127.074V35.2639H129.096V36.0727H125.558" fill="white"/>
</g>
<mask id="mask15_2216_4028" style="mask-type:luminance" maskUnits="userSpaceOnUse" x="0" y="0" width="148" height="37">
<path d="M148 0.387207H0V36.1741H148V0.387207Z" fill="white"/>
</mask>
<g mask="url(#mask15_2216_4028)">
<path d="M137.789 32.5344H140.115C141.328 32.5344 142.136 32.8377 142.136 34.3541C142.136 35.6683 141.227 36.1738 140.013 36.1738H137.789M139.407 35.1628H139.811C140.418 35.1628 140.519 34.8596 140.519 34.253C140.519 33.6464 140.418 33.3432 139.811 33.3432H139.407V35.1628Z" fill="white"/>
</g>
<mask id="mask16_2216_4028" style="mask-type:luminance" maskUnits="userSpaceOnUse" x="0" y="0" width="148" height="37">
<path d="M148 0.387207H0V36.1741H148V0.387207Z" fill="white"/>
</mask>
<g mask="url(#mask16_2216_4028)">
<path d="M148 27.7836C148 28.8956 147.09 29.7043 146.079 29.7043C144.967 29.7043 144.057 28.8956 144.057 27.7836C144.057 26.6715 144.967 25.8628 146.079 25.8628C147.191 25.8628 148 26.6715 148 27.7836ZM144.563 27.7836C144.563 28.5923 145.169 29.3 146.079 29.3C146.888 29.3 147.495 28.5923 147.495 27.7836C147.495 26.9748 146.888 26.2672 145.978 26.2672C145.27 26.2672 144.563 26.8737 144.563 27.7836ZM145.776 28.6934H145.372V26.7726C145.574 26.7726 145.776 26.6715 146.079 26.6715C146.484 26.6715 146.585 26.7726 146.686 26.8737C146.787 26.9748 146.888 27.0759 146.888 27.2781C146.888 27.4803 146.686 27.6825 146.484 27.6825C146.686 27.7836 146.787 27.8847 146.787 28.1879C146.888 28.4912 146.888 28.5923 146.888 28.6934H146.585C146.484 28.5923 146.484 28.4912 146.484 28.1879C146.484 27.9857 146.281 27.8847 146.079 27.8847H145.877V28.6934H145.776ZM145.776 27.6825H145.978C146.18 27.6825 146.383 27.5814 146.383 27.3792C146.383 27.177 146.281 27.0759 145.978 27.0759C145.877 27.0759 145.776 27.0759 145.776 27.0759V27.6825Z" fill="#005A9C"/>
</g>
</g>
<defs>
<clipPath id="clip0_2216_4028">
<rect width="148" height="35.7869" fill="white" transform="translate(0 0.387207)"/>
</clipPath>
</defs>
</svg>
