<svg width="108" height="33" viewBox="0 0 108 33" fill="none" xmlns="http://www.w3.org/2000/svg">
<g clip-path="url(#clip0_2216_4106)">
<path d="M31.9348 19.7881C35.8897 19.7881 40.6133 20.3331 44.0092 17.9154C46.357 16.2105 47.0976 13.3596 47.0976 10.5926C47.0976 7.79758 46.4129 4.94669 44.0092 3.24175C40.3897 0.949866 36.0155 1.41104 31.9348 1.41104V19.7881ZM35.4984 4.30385H37.4829C41.1024 4.30385 43.2964 7.16871 43.3523 10.6065C43.2964 14.0164 41.0744 16.9232 37.4829 16.9232H35.4984V4.30385ZM50.7171 19.7881H54.141V6.23239H50.7171V19.7881ZM50.7171 3.75883H54.141V0.390869H50.7171V3.75883ZM57.1176 13.1081C57.1037 17.1887 59.9126 20.1095 63.9793 20.1095C68.088 20.1095 70.8969 17.2167 70.869 13.1081C70.841 8.9575 68.2277 5.92494 63.9793 5.92494C59.7729 5.92494 57.1316 8.99942 57.1176 13.1081ZM63.9933 8.65005C68.5771 8.65005 68.4234 17.3984 63.9933 17.3984C59.6611 17.3844 59.4375 8.65005 63.9933 8.65005ZM75.1732 15.7214C75.1872 18.5722 76.5847 20.0536 79.3378 20.1095C80.344 20.1235 81.1825 19.9977 81.8672 19.7881L81.7694 17.0071C81.3781 17.2586 80.861 17.3844 80.2182 17.3844C78.8906 17.3425 78.5692 16.2245 78.6111 15.1484V8.80377H81.6576V6.23239H78.6111V2.38928L75.1872 3.52125V6.23239H72.6717V8.80377H75.1872V15.7214H75.1732ZM86.7165 11.6966C86.8423 9.89382 87.8625 8.55222 89.7631 8.49633C91.6357 8.55222 92.4882 9.96369 92.5441 11.6966H86.7165ZM94.836 16.1686C93.5503 16.9791 92.013 17.5521 90.4758 17.5521C88.3935 17.5521 86.8842 16.1965 86.7165 14.1142H95.8142C95.8282 11.6966 95.4089 9.72612 94.5285 8.21683C92.6419 5.10042 87.0939 5.21222 84.9976 8.02118C83.9774 9.39072 83.4604 11.0817 83.4604 13.0941C83.5023 17.7058 85.7942 20.0676 90.336 20.1235C92.1388 20.1514 93.6481 19.7601 94.8499 19.0474V16.1686H94.836ZM107.763 6.37214C105.163 5.49172 101.6 5.68737 99.7551 7.9513C98.6511 9.26495 98.0921 10.9419 98.0921 12.9683C98.0921 15.0506 98.6511 16.7555 99.7551 18.0691C100.831 19.4247 102.438 20.1095 104.576 20.1235C105.694 20.1235 106.938 20.0256 108 19.6763L107.861 16.7555C107.092 17.1328 106.072 17.3984 105.233 17.3984C104.045 17.3844 103.165 16.9512 102.578 16.0987C101.977 15.2742 101.684 14.226 101.684 12.9683C101.684 11.6407 102.005 10.5926 102.648 9.82394C103.766 8.4544 105.988 8.3426 107.469 9.16712L107.763 6.37214Z" fill="white"/>
<path d="M36.5745 24.4278C36.0295 24.2461 35.4425 24.1622 34.8137 24.1622C34.1429 24.1622 33.5559 24.3299 33.0528 24.6793C32.5218 25.0426 32.2563 25.6436 32.2423 26.496C32.2283 27.0131 32.396 27.5022 32.7594 27.8796C33.0528 28.187 33.4721 28.4246 33.8634 28.5783C34.3385 28.774 35.0373 28.9556 35.3447 29.4168C35.8897 30.2413 35.0093 30.8842 34.1569 30.8702C33.4861 30.8562 33.0109 30.7025 32.4938 30.395L32.3541 31.7646C32.983 31.9183 33.5979 32.0581 34.2407 32.0581C35.0233 32.0581 35.6522 31.8624 36.1972 31.513C37.1335 30.9261 37.3292 29.1373 36.5186 28.3268C35.9177 27.7258 35.0233 27.5302 34.2966 27.1249C34.0171 26.9712 33.7795 26.7616 33.7795 26.4262C33.7795 26.0908 33.9053 25.7693 34.1848 25.5737C34.8137 25.1544 35.8199 25.42 36.4487 25.6995L36.5745 24.4278ZM39.4114 28.5504C39.4394 28.173 39.5512 27.8516 39.7748 27.6001C40.194 27.1109 41.1443 27.069 41.5356 27.614C41.7173 27.8656 41.8151 28.173 41.8291 28.5504H39.4114ZM42.7654 30.395C42.2344 30.7304 41.5915 30.968 40.9626 30.968C40.0962 30.968 39.4673 30.409 39.4114 29.5565H43.1707C43.1847 28.5504 43.003 27.7398 42.6396 27.1109C42.2623 26.4821 41.5775 26.1606 40.5853 26.1606C39.7468 26.1606 39.118 26.4681 38.6987 27.0271C38.2795 27.5861 38.0559 28.2848 38.0698 29.1233C38.0838 31.0379 39.0341 32.0161 40.9207 32.0301C41.6614 32.0441 42.2903 31.8764 42.7934 31.5829V30.395H42.7654ZM44.3446 31.9043H45.756V29.1792C45.756 28.4386 45.8958 27.2926 46.874 27.2926C47.6566 27.2926 47.7405 27.9215 47.7405 28.5504V31.9043H49.152V29.1792C49.152 28.4246 49.2777 27.3066 50.2699 27.2926C51.2063 27.2786 51.1364 27.9215 51.1364 28.5504V31.9043H52.5479V28.3547C52.5479 27.7119 52.45 27.1808 52.1985 26.7755C51.9469 26.3703 51.4718 26.1606 50.787 26.1467C50.0743 26.1467 49.3756 26.496 49.0402 27.1389C48.7187 26.4681 48.1737 26.1467 47.3911 26.1467C46.6924 26.1467 46.1194 26.51 45.7281 27.055H45.7141V26.2724H44.3586V31.9043H44.3446ZM54.1969 31.9043H55.6084V26.2864H54.1969V31.9043ZM54.1969 25.2662H55.6084V23.8688H54.1969V25.2662ZM60.849 26.3423C60.4856 26.2165 60.0244 26.1606 59.4794 26.1606C57.7885 26.1746 56.8382 27.4603 56.8382 29.0674C56.8382 30.7165 57.7885 32.0161 59.5213 32.0301C59.9825 32.0301 60.4996 31.9882 60.9328 31.8484C60.9188 31.4432 60.8909 31.0379 60.8629 30.6466C60.1782 30.982 59.172 31.0938 58.6829 30.3671C58.4313 30.0317 58.3195 29.5985 58.3195 29.0674C58.3195 28.5224 58.4593 28.0892 58.7248 27.7678C59.1859 27.1948 60.1083 27.1529 60.7232 27.4883C60.7651 27.1109 60.807 26.7336 60.849 26.3423ZM61.6875 29.1373C61.6735 30.8003 62.8474 32.0301 64.5383 32.0301C66.2433 32.0301 67.4032 30.8143 67.3892 29.1373C67.3753 27.4184 66.2852 26.1606 64.5383 26.1606C62.7775 26.1606 61.6875 27.4324 61.6875 29.1373ZM64.5244 27.2926C66.4529 27.3066 66.3271 30.968 64.5244 30.9121C62.6937 30.8422 62.6937 27.2786 64.5244 27.2926ZM68.6889 31.9043H70.1143V29.1513C70.1143 28.3687 70.4078 27.2926 71.3441 27.2926C72.3224 27.2926 72.2665 28.173 72.2665 28.8997V31.9043H73.6779V28.3547C73.6779 27.7119 73.5382 27.1808 73.2447 26.7755C72.9373 26.3703 72.4761 26.1606 71.8333 26.1467C71.0926 26.1327 70.4917 26.4401 70.0445 27.0411H70.0305V26.2724H68.6889V31.9043ZM76.4869 29.0814C76.4869 28.3128 76.7245 27.3206 77.6608 27.2926C79.3518 27.2926 79.3657 30.9121 77.6748 30.9121C76.7804 30.9121 76.4729 29.8221 76.4869 29.0814ZM78.9744 31.9043H80.344V23.729H78.9325V26.9432H78.9046C78.4993 26.4262 77.9682 26.1467 77.2835 26.1606C75.6065 26.1746 74.9916 27.5861 75.0056 29.0814C74.9916 30.5627 75.6205 32.0022 77.2835 32.0301C77.9543 32.0441 78.5133 31.7786 78.9465 31.2615H78.9744V31.9043ZM87.01 26.2864H85.5986V29.0395C85.5986 29.6124 85.4868 30.3252 84.9976 30.7025C84.7042 30.9401 84.1312 31.0099 83.8377 30.7444C83.4324 30.395 83.4324 29.7801 83.4324 29.305V26.3004H82.021V29.85C82.021 30.4929 82.1747 31.0099 82.4822 31.4152C82.7616 31.8345 83.2368 32.0441 83.8796 32.0441C84.6203 32.0301 85.2212 31.7227 85.6684 31.1497H85.6824V31.9183H87.024V26.2864H87.01ZM92.3205 26.3423C91.2444 25.979 89.7631 26.0628 89.0084 26.9852C88.5473 27.5302 88.3097 28.215 88.3237 29.0674C88.3516 31.4571 90.1544 32.5192 92.4183 31.8484L92.3484 30.6466C91.6637 30.982 90.6715 31.0938 90.1684 30.3671C89.6792 29.6683 89.6513 28.4386 90.1963 27.7678C90.6575 27.1948 91.5798 27.1529 92.1947 27.4883L92.3205 26.3423ZM93.9695 30.2134C93.9835 31.3873 94.5565 32.0022 95.6885 32.0301C96.1077 32.0441 96.4571 31.9882 96.7366 31.9043L96.6947 30.7584C96.527 30.8562 96.3173 30.9121 96.0518 30.9121C95.5347 30.8981 95.367 30.437 95.381 29.9898V27.3625H96.6387V26.3004H95.381V24.7072L93.9695 25.1824V26.3004H92.9214V27.3625H93.9695V30.2134ZM97.4074 29.1373C97.4074 30.8003 98.5673 32.0301 100.258 32.0301C101.963 32.0301 103.123 30.8143 103.109 29.1373C103.095 27.4184 102.005 26.1606 100.258 26.1606C98.4974 26.1606 97.4074 27.4324 97.4074 29.1373ZM100.244 27.2926C102.145 27.2926 102.117 30.9121 100.244 30.9121C98.4555 30.9121 98.3577 27.2926 100.244 27.2926ZM104.451 31.9043H105.862V29.85C105.862 29.0395 105.876 27.5581 107.008 27.5581C107.288 27.5581 107.497 27.6001 107.637 27.6839V26.2165C107.092 26.1187 106.561 26.2165 106.184 26.6777C105.918 26.9852 105.764 27.2926 105.722 27.5861H105.708V26.3004H104.451V31.9043Z" fill="white"/>
<path d="M14.6337 21.8285C14.8154 22.8067 15.1648 25.0148 13.4039 26.4821C13.4039 26.4821 12.1741 27.4604 11.6571 27.7119C9.91021 28.4386 13.7673 32.3656 16.9116 29.6684C19.5389 27.4604 16.0312 16.6717 16.0312 12.0181C16.0312 -0.475488 26.177 0.99188 23.382 2.2077C14.6337 5.15641 25.3106 20.8502 20.2377 29.1793C14.2844 37.2708 6.41648 27.7119 1.86065 31.1358C1.3296 31.6249 -0.0678885 33.3438 0.113786 32.114C1.69295 25.979 6.58418 26.7197 9.04376 25.979C12.7192 24.7493 9.56083 18.3907 9.21146 14.9528C8.69439 11.2914 11.8387 5.15641 11.6571 4.91883C6.76585 5.17038 4.65564 3.45147 2.5594 6.14863C2.04233 6.63775 1.67898 6.14863 2.04233 5.17038C3.78919 1.481 6.0671 1.24343 9.21146 1.481C12.3558 1.71858 11.6571 1.71858 13.7673 1.71858C15.5142 1.71858 17.0933 0.99188 17.4427 1.481C17.7921 1.97012 15.8635 2.2077 14.6477 5.15641C13.949 6.62377 13.4179 9.32094 13.4179 11.2774C13.4179 15.2044 13.935 18.1531 14.6337 21.8285Z" fill="#D90000"/>
<path d="M25.4502 4.91876C25.4502 5.25416 25.3244 5.54763 25.0869 5.7852C24.8493 6.02278 24.5558 6.14855 24.2204 6.14855C23.885 6.14855 23.5916 6.02278 23.354 5.7852C23.1164 5.54763 22.9906 5.25416 22.9906 4.91876C22.9906 4.58336 23.1164 4.28989 23.354 4.05231C23.5916 3.81474 23.885 3.68896 24.2204 3.68896C24.5558 3.68896 24.8493 3.81474 25.0869 4.05231C25.3384 4.28989 25.4502 4.56939 25.4502 4.91876ZM25.3105 4.91876C25.3105 4.61131 25.1987 4.35976 24.989 4.15014C24.7794 3.94051 24.5139 3.82871 24.2204 3.82871C23.913 3.82871 23.6614 3.94051 23.4518 4.15014C23.2422 4.35976 23.1304 4.62528 23.1304 4.91876C23.1304 5.21223 23.2422 5.47776 23.4518 5.68738C23.6614 5.897 23.913 6.0088 24.2204 6.0088C24.5279 6.0088 24.7794 5.897 24.989 5.68738C25.2126 5.47776 25.3105 5.21223 25.3105 4.91876ZM23.6614 4.19206H24.2903C24.4999 4.19206 24.7375 4.27591 24.7375 4.52746C24.7375 4.73708 24.5698 4.83491 24.3881 4.86286L24.7375 5.31006C24.7794 5.36596 24.8213 5.40788 24.8493 5.42186C24.8633 5.43583 24.8912 5.44981 24.9331 5.44981V5.5057H24.6397L24.1506 4.89081H24.0248V5.22621C24.0248 5.32403 24.0387 5.37993 24.0527 5.40788C24.0667 5.43583 24.1226 5.44981 24.1785 5.44981V5.5057H23.6335V5.44981C23.7034 5.44981 23.7453 5.43583 23.7732 5.40788C23.8012 5.37993 23.8012 5.32403 23.8012 5.24018V4.44361C23.8012 4.37374 23.7872 4.31784 23.7732 4.28989C23.7593 4.26194 23.7173 4.24796 23.6475 4.23399V4.19206H23.6614ZM24.0248 4.82093C24.2204 4.83491 24.4999 4.80696 24.4999 4.54144C24.4999 4.45759 24.472 4.40169 24.4161 4.34579C24.3043 4.24796 24.1505 4.26194 24.0248 4.30386V4.82093Z" fill="#D90000"/>
</g>
<defs>
<clipPath id="clip0_2216_4106">
<rect width="107.9" height="32.1563" fill="white" transform="translate(0.0996094 0.390869)"/>
</clipPath>
</defs>
</svg>
