<svg width="92" height="70" viewBox="0 0 92 70" fill="none" xmlns="http://www.w3.org/2000/svg">
<g clip-path="url(#clip0_2216_4113)">
<path d="M23.6186 36.0447C17.2932 35.8696 11.1339 34.9462 5.52689 31.7755C3.05444 30.3776 0.825061 28.632 0.161549 25.6753C-0.55874 22.4633 1.23002 20.2616 3.56451 18.4715C7.58734 15.3871 12.3122 14.0141 17.2317 13.2981C18.4386 13.1226 18.8088 12.2882 19.4071 11.5783C24.398 5.6536 30.8984 2.36138 38.3904 1.04844C46.7936 -0.424522 55.0106 0.243682 62.8099 4.03142C63.8741 4.54806 64.3635 5.67612 63.9187 6.69485C63.4753 7.71029 62.2303 8.19408 61.1666 7.7469C55.866 5.51939 50.4007 4.01969 44.5947 4.26135C36.7204 4.58935 29.5344 6.77368 23.8232 12.5205C18.9703 17.4044 16.8582 24.9958 20.7618 31.9425C20.6286 31.9876 20.6211 31.9923 20.7403 32.1903C21.5708 33.5708 22.4469 34.918 23.6181 36.0442L23.6186 36.0447ZM15.8315 31.3677C16.0225 31.3959 15.9826 31.2992 15.9389 31.1899C14.1582 26.7198 14.1431 22.2311 15.7972 17.7249C15.8268 17.6447 15.8878 17.5485 15.7132 17.5855C12.4679 18.2716 9.27474 19.1125 6.57518 21.1654C3.9948 23.1278 3.9521 25.6209 6.46444 27.6466C9.19544 29.8488 12.5008 30.6545 15.831 31.3677H15.8315Z" fill="#1D89CA"/>
<path d="M70.9176 32.0092C73.1128 27.0643 74.1343 22.0959 71.0927 17.1022C70.5427 16.1999 69.6211 15.3942 70.3222 14.2516C71.057 13.0541 72.3268 13.0484 73.5355 13.216C78.8211 13.9475 83.9284 15.2727 88.3374 18.433C93.3231 22.0063 93.2025 26.9564 88.0802 30.7948C83.9964 33.8552 79.2387 35.1278 74.2699 35.7645C73.8396 35.8199 73.5374 35.9321 73.2526 36.3079C68.6329 42.4011 62.322 45.7937 55.0037 47.3816C46.707 49.1816 38.5506 48.5909 30.6372 45.3789C29.6321 44.9706 29.1526 43.875 29.5556 42.8637C29.9972 41.7573 31.0286 41.2782 32.0924 41.7056C42.1689 45.7529 52.1202 45.4488 61.9156 40.7826C64.2975 39.648 66.3739 38.0493 68.1369 36.0667C68.2016 36.0452 68.2889 36.0433 68.3283 35.9987C69.3785 34.8181 70.3311 33.5699 70.98 32.1152C70.9899 32.0932 70.9397 32.0448 70.9176 32.0087V32.0092ZM87.3571 24.5036C87.2239 23.2254 86.4567 22.3249 85.5168 21.5704C82.7581 19.3546 79.4818 18.3373 76.0971 17.5888C75.87 17.5386 76.008 17.6897 76.0286 17.7437C77.7667 22.2287 77.6222 26.7161 76.0507 31.2058C76.0169 31.303 75.9554 31.402 76.1511 31.3644C79.2247 30.7685 82.2259 29.9637 84.8514 28.1661C86.1446 27.2806 87.2098 26.2023 87.3571 24.5036Z" fill="#1D89CA"/>
<path d="M70.9176 32.0095C70.9397 32.0456 70.9899 32.094 70.98 32.116C70.3311 33.5707 69.3785 34.8189 68.3283 35.9995C68.2889 36.0436 68.2016 36.0459 68.1369 36.0675C61.5027 36.0328 55.0412 35.1877 49.1006 31.9546C48.0269 31.3704 47.0669 30.6168 46.2105 29.7374C46.1725 29.6985 46.0481 29.675 46.0228 29.7013C43.0323 32.8171 39.1503 34.1164 35.0913 35.007C31.3167 35.8357 27.4834 36.1407 23.6192 36.0445C22.448 34.9183 21.5719 33.5711 20.7413 32.1906C20.6222 31.9921 20.6297 31.9879 20.7629 31.9429C23.3438 32.2319 25.9265 32.1456 28.5022 31.9185C32.5832 31.5581 36.5896 30.8495 40.2389 28.8543C41.84 27.9792 43.3842 26.9257 43.6597 24.9338C43.8352 23.6668 43.6569 22.3548 43.7592 21.0728C43.8619 19.7824 44.8337 19.0401 46.1228 19.1053C47.424 19.171 48.4676 20.1306 48.4877 21.3422C48.507 22.4796 48.3901 23.6232 48.468 24.755C48.5605 26.1008 49.5618 26.898 50.5627 27.5963C53.9751 29.9772 57.8905 30.995 61.9231 31.6365C64.9028 32.1104 67.9051 32.2371 70.9176 32.01V32.0095Z" fill="#E32126"/>
<path d="M49.254 13.7343C49.2474 15.5108 47.8125 16.9181 46.0134 16.9129C44.295 16.9078 42.8596 15.4447 42.8648 13.7033C42.8699 11.9366 44.3208 10.5195 46.1138 10.5293C47.8496 10.5387 49.2606 11.9788 49.254 13.7343Z" fill="#E32126"/>
<path d="M79.082 38.9516C81.935 38.9502 84.2878 41.2946 84.2855 44.1358C84.2831 47.017 81.9636 49.3318 79.0806 49.3304C76.1905 49.3294 73.8795 47.0184 73.8842 44.134C73.8889 41.28 76.2234 38.9526 79.082 38.9512V38.9516ZM79.0914 39.7409C76.7029 39.7357 74.688 41.7329 74.6767 44.1152C74.6655 46.5407 76.634 48.5299 79.052 48.5364C81.4977 48.543 83.4863 46.5797 83.491 44.1546C83.4957 41.7573 81.4906 39.7461 79.0914 39.7409Z" fill="#1D89CA"/>
<path d="M80.082 44.5178C81.0716 45.1264 81.4639 46.1625 82.0687 47.0325C82.0931 47.0672 82.0781 47.1296 82.0814 47.1793C81.5319 47.0404 80.898 47.4984 80.4072 46.8091C79.8633 46.0447 79.5944 45.0091 78.5536 44.6792C78.128 44.5445 77.8221 44.5901 77.9061 45.1851C77.9591 45.5605 77.8681 45.957 77.9263 46.3305C78.0384 47.0494 77.7897 47.3028 77.0638 47.2005C76.7771 47.1601 76.6799 47.1334 76.6832 46.818C76.7011 44.9978 76.6954 43.1772 76.687 41.3565C76.686 41.1561 76.7442 41.1125 76.9352 41.1148C77.8104 41.1256 78.6855 41.12 79.5606 41.1219C80.5869 41.1242 81.4878 41.3556 81.6431 42.5648C81.7872 43.6863 81.1795 44.2972 80.082 44.5173V44.5178ZM78.8694 42.1336C78.6348 42.4175 77.9755 41.7488 77.9563 42.4517C77.946 42.8341 77.4908 43.6351 78.2294 43.6427C78.9586 43.6502 80.1979 44.2334 80.3569 42.8928C80.4743 41.9036 79.4987 42.2363 78.8694 42.1336Z" fill="#1D89CA"/>
<path d="M41.3108 63.1066C41.3028 63.1422 41.3169 63.1605 41.3356 63.1751C42.132 63.7926 42.681 64.6006 43.1103 65.4978C43.7147 66.761 44.3149 68.0266 44.9165 69.2917C44.9296 69.3189 44.9371 69.3494 44.9568 69.4071C44.878 69.4071 44.8127 69.4071 44.7471 69.4071C44.0277 69.4071 43.3083 69.4005 42.589 69.4118C42.428 69.4142 42.3577 69.3569 42.2896 69.2222C41.5065 67.6737 40.7496 66.1111 39.8969 64.5983C39.8097 64.4435 39.7092 64.2975 39.6116 64.1488C39.2912 63.6612 38.821 63.4904 38.2734 63.4641C38.0547 63.4538 37.8351 63.466 37.6169 63.4543C37.4827 63.4472 37.4663 63.5087 37.4672 63.6204C37.4714 64.1835 37.4691 64.7466 37.4691 65.3092C37.4691 66.5992 37.4691 67.8896 37.4691 69.1795C37.4691 69.4052 37.4681 69.4057 37.2406 69.4062C36.662 69.4062 36.0834 69.4005 35.5048 69.4099C35.3425 69.4127 35.2955 69.37 35.2965 69.2044C35.3035 68.0238 35.3002 66.8432 35.3002 65.6625C35.3002 62.2535 35.3002 58.8444 35.3002 55.4349C35.3002 55.38 35.3045 55.3251 35.2993 55.2707C35.2908 55.181 35.3232 55.1388 35.4166 55.1496C35.4476 55.1534 35.479 55.1501 35.5105 55.1501C37.0899 55.151 38.6694 55.1482 40.2489 55.1543C40.7646 55.1562 41.2756 55.2167 41.7819 55.3232C42.581 55.4912 43.1305 55.9708 43.5106 56.6714C43.8278 57.2551 44.0042 57.8844 44.0577 58.5418C44.1197 59.3001 44.092 60.0565 43.8653 60.7923C43.482 62.0348 42.6467 62.7898 41.3849 63.0812C41.3582 63.0873 41.3211 63.0742 41.3112 63.1056L41.3108 63.1066ZM37.4686 59.3531C37.4686 59.9002 37.4686 60.4469 37.4686 60.994C37.4686 61.0827 37.4573 61.1634 37.5939 61.1601C38.5934 61.1362 39.5943 61.2094 40.5924 61.1067C41.1203 61.0522 41.4957 60.7772 41.6834 60.2784C41.9142 59.6647 41.9194 59.0392 41.6918 58.4263C41.5135 57.9449 41.1672 57.6206 40.6351 57.5972C39.636 57.5526 38.6361 57.5305 37.6361 57.5409C37.5029 57.5423 37.4644 57.5798 37.4663 57.7121C37.4733 58.2593 37.4691 58.806 37.4691 59.3531H37.4686Z" fill="white"/>
<path d="M59.8492 60.2057V67.8502C59.8492 68.3115 59.8455 68.7727 59.8516 69.234C59.8534 69.3616 59.8229 69.4114 59.6836 69.4095C59.121 69.402 58.5579 69.4038 57.9948 69.4085C57.8756 69.4095 57.8164 69.3771 57.8324 69.2509C57.8371 69.2124 57.8333 69.173 57.8333 69.1336C57.8333 64.5603 57.8333 59.9866 57.8333 55.4133C57.8333 55.3664 57.8371 55.319 57.8329 55.2726C57.8249 55.182 57.8615 55.1487 57.9535 55.1492C58.587 55.152 59.22 55.1538 59.8534 55.1482C59.9886 55.1468 59.9947 55.2477 60.0308 55.3261C60.5911 56.5325 61.1504 57.7394 61.7088 58.9463C62.5516 60.7679 63.3934 62.5895 64.2362 64.4111C64.2606 64.4641 64.2695 64.5275 64.3493 64.5814V64.3158C64.3493 61.3451 64.3493 58.3743 64.3493 55.4035C64.3493 55.1126 64.3141 55.1529 64.5942 55.1515C65.1338 55.1492 65.673 55.1543 66.2126 55.1477C66.336 55.1463 66.3844 55.1825 66.367 55.3045C66.3614 55.343 66.3661 55.3824 66.3661 55.4218C66.3661 59.9875 66.3661 64.5528 66.3661 69.1185C66.3661 69.3103 66.2718 69.4062 66.0831 69.4062C65.528 69.4062 64.9729 69.3996 64.4178 69.4104C64.2531 69.4137 64.1742 69.3616 64.1039 69.2105C62.7942 66.388 61.478 63.5683 60.1613 60.7491C60.074 60.5628 60.0027 60.3671 59.8497 60.2053L59.8492 60.2057Z" fill="white"/>
<path d="M56.1366 62.1359C56.1422 63.5783 56.0061 64.8533 55.5674 66.0803C55.1755 67.1755 54.5702 68.1239 53.6177 68.8207C52.6637 69.5185 51.5821 69.7362 50.4268 69.6283C48.4921 69.4476 47.2735 68.3046 46.4814 66.6251C46.0553 65.7218 45.8545 64.7547 45.7592 63.7632C45.6654 62.7876 45.6663 61.8126 45.7644 60.8384C45.9028 59.4659 46.2449 58.16 47.0238 56.9939C47.5616 56.1887 48.2195 55.5261 49.1504 55.2028C51.1551 54.5064 53.4328 54.9283 54.8264 57.0319C55.4088 57.9108 55.7537 58.8774 55.9418 59.9055C56.0859 60.6911 56.1492 61.4846 56.1366 62.1359ZM53.8767 62.3902C53.8776 61.5948 53.8382 60.9707 53.7321 60.3541C53.6139 59.6658 53.4051 59.0102 52.987 58.4345C52.1489 57.2811 50.614 56.9995 49.4911 57.8033C48.9679 58.1783 48.6188 58.6869 48.3879 59.2819C48.1111 59.9947 48.0013 60.7385 47.9511 61.4972C47.8854 62.493 47.9299 63.4798 48.158 64.453C48.3424 65.2409 48.6718 65.9541 49.2729 66.521C50.2565 67.4482 51.6867 67.4271 52.6313 66.4637C53.0363 66.0508 53.322 65.5637 53.5046 65.0151C53.8063 64.1072 53.8626 63.1668 53.8771 62.3902H53.8767Z" fill="white"/>
<path d="M1.08813 62.2761C1.08813 59.9778 1.08813 57.679 1.08813 55.3806C1.08813 55.1174 1.05997 55.1516 1.30633 55.1516C2.6981 55.1507 4.08941 55.1502 5.48119 55.1516C5.98328 55.1521 6.48162 55.2135 6.95978 55.3599C7.68992 55.5833 8.238 56.0652 8.67064 56.6795C9.2999 57.5729 9.6753 58.5743 9.86581 59.6446C10.0953 60.9355 10.1459 62.2381 10.0469 63.5436C9.95637 64.7308 9.71893 65.8884 9.21027 66.9751C8.77341 67.9085 8.13477 68.6494 7.16906 69.0741C6.62239 69.3148 6.04288 69.396 5.45773 69.4021C4.06642 69.4171 2.67464 69.4035 1.28286 69.411C1.10596 69.4119 1.08531 69.3448 1.08531 69.1947C1.08907 66.8883 1.08813 64.582 1.08813 62.2757V62.2761ZM3.2551 62.2766C3.2551 63.7857 3.25744 65.2948 3.25181 66.8039C3.25134 66.9601 3.28325 67.0333 3.45453 67.015C3.58591 67.001 3.72012 67.0127 3.85291 67.0122C4.5244 67.0103 5.19917 67.0432 5.86409 66.9273C6.55247 66.8072 7.06489 66.4538 7.34597 65.7837C7.63127 65.1043 7.73966 64.391 7.79832 63.6674C7.88372 62.6135 7.87434 61.5596 7.75562 60.5076C7.68335 59.867 7.52569 59.2561 7.21223 58.6845C6.82604 57.9802 6.21321 57.6668 5.44318 57.594C4.78812 57.5321 4.13118 57.5452 3.4747 57.5452C3.21803 57.5452 3.25557 57.5185 3.2551 57.7733C3.25416 59.2744 3.25463 60.776 3.25463 62.2771L3.2551 62.2766Z" fill="white"/>
<path d="M87.3371 54.9063C87.9452 54.8974 88.4178 54.948 88.8795 55.0766C89.7987 55.3323 90.4834 55.8842 90.9385 56.7232C91.3289 57.4435 91.4965 58.221 91.5542 59.0305C91.5645 59.1759 91.5185 59.2196 91.3782 59.2261C90.7691 59.2548 90.1605 59.2895 89.5524 59.3303C89.4121 59.3397 89.3623 59.296 89.3469 59.1557C89.3121 58.8451 89.2169 58.5485 89.0949 58.26C88.8809 57.7541 88.5102 57.4425 87.9668 57.3482C87.46 57.2605 86.9565 57.2572 86.4685 57.4477C85.9645 57.6443 85.6356 57.9859 85.5859 58.5481C85.5357 59.1182 85.7581 59.5494 86.2522 59.839C86.6848 60.0924 87.1531 60.2594 87.6285 60.4096C88.3267 60.6296 89.0099 60.8858 89.6706 61.2049C90.7311 61.7169 91.3942 62.5554 91.6799 63.6811C92.0192 65.0175 91.9296 66.3244 91.3186 67.5796C90.7682 68.71 89.8748 69.3656 88.635 69.564C87.8232 69.694 87.0152 69.6968 86.2165 69.4941C84.9712 69.1783 84.1711 68.3576 83.6718 67.2066C83.3523 66.4694 83.2101 65.69 83.1205 64.8969C83.1073 64.7815 83.1594 64.7717 83.2472 64.7599C83.6728 64.7046 84.0974 64.6431 84.5226 64.5849C84.7004 64.5605 84.8834 64.5563 85.0547 64.5093C85.2189 64.4643 85.2447 64.5488 85.2588 64.6665C85.2949 64.9692 85.3644 65.2648 85.4578 65.5544C85.5882 65.9598 85.7801 66.33 86.0795 66.6402C86.4268 66.9996 86.8495 67.1892 87.3465 67.215C87.6989 67.2333 88.0485 67.2206 88.3901 67.1165C89.5073 66.7758 90.046 65.3399 89.4398 64.3897C89.2333 64.0659 88.925 63.8749 88.5801 63.7351C87.9236 63.4695 87.2353 63.2945 86.5746 63.0411C86.2034 62.8989 85.8458 62.729 85.4972 62.5376C84.4235 61.9477 83.8281 61.0135 83.5883 59.8427C83.3701 58.778 83.4963 57.7461 84.004 56.7743C84.5549 55.7204 85.4427 55.1479 86.6022 54.9598C86.8899 54.9133 87.178 54.9157 87.3371 54.9067V54.9063Z" fill="white"/>
<path d="M16.1044 62.2569C16.1044 59.9661 16.1044 57.6757 16.1049 55.3849C16.1049 55.1155 16.0692 55.1526 16.3423 55.1521C17.5854 55.1507 18.8284 55.1531 20.0719 55.1507C20.604 55.1498 21.1343 55.1878 21.6617 55.2521C22.4364 55.3464 23.0263 55.7457 23.4767 56.3726C23.9042 56.9676 24.1515 57.6363 24.2604 58.3528C24.4002 59.2707 24.4025 60.1923 24.174 61.0979C23.9525 61.9768 23.5584 62.76 22.8329 63.3465C22.4059 63.6914 21.9254 63.8683 21.383 63.9326C20.4163 64.0471 19.4473 64.0147 18.4788 64.0218C18.2447 64.0236 18.27 63.9964 18.27 64.2376C18.27 65.8795 18.27 67.5214 18.2691 69.1633C18.2691 69.4397 18.3066 69.4068 18.0152 69.4078C17.4521 69.4092 16.8895 69.4082 16.3264 69.4078C16.1058 69.4078 16.1049 69.4068 16.1049 69.1769C16.1049 66.8706 16.1049 64.5642 16.1049 62.2579L16.1044 62.2569ZM18.2695 59.5752C18.2695 60.1843 18.2723 60.7934 18.2672 61.4024C18.2662 61.5306 18.2766 61.5986 18.438 61.5948C19.14 61.577 19.8424 61.6131 20.5439 61.5362C21.2295 61.4611 21.7049 61.1195 21.9503 60.4743C22.1352 59.9881 22.1718 59.4832 22.0507 58.9797C21.8738 58.2454 21.458 57.7287 20.666 57.6213C19.9058 57.518 19.1386 57.5467 18.3737 57.5424C18.2409 57.542 18.27 57.6283 18.27 57.7006C18.2691 58.3251 18.2695 58.9502 18.2695 59.5747V59.5752Z" fill="white"/>
<path d="M79.7039 64.1509C80.3636 64.4381 81.0041 64.7196 81.6479 64.9937C81.7587 65.0406 81.7948 65.0772 81.7648 65.2114C81.5424 66.2067 81.2327 67.1667 80.625 68.0011C79.6879 69.2882 78.3979 69.7879 76.8433 69.6171C75.2779 69.4454 74.2484 68.4947 73.4854 67.1991C73.0049 66.3831 72.752 65.4845 72.6033 64.5563C72.4066 63.3302 72.4043 62.0961 72.515 60.8634C72.615 59.748 72.8468 58.6607 73.3587 57.6514C73.6393 57.0986 73.9941 56.5961 74.43 56.1531C75.2808 55.2888 76.3164 54.8937 77.5252 54.9002C79.45 54.9106 80.777 56.1301 81.3748 57.7246C81.5226 58.1188 81.6306 58.5242 81.7347 58.9315C81.7648 59.0488 81.7329 59.0986 81.6221 59.1323C81.0046 59.3191 80.3875 59.5091 79.7719 59.7025C79.6565 59.7386 79.6114 59.7208 79.587 59.5913C79.5011 59.1356 79.3336 58.711 79.0769 58.322C78.2286 57.0362 76.6134 57.1047 75.719 58.085C75.2596 58.588 75.0429 59.198 74.9026 59.8428C74.6984 60.7794 74.6609 61.7301 74.69 62.685C74.713 63.4348 74.7637 64.1809 74.9448 64.9134C75.0696 65.4183 75.2803 65.8801 75.5872 66.3019C76.4018 67.4206 78.0545 67.5956 78.9564 66.2437C79.2867 65.7487 79.4547 65.1931 79.5903 64.6225C79.626 64.4719 79.6335 64.3142 79.7043 64.1514L79.7039 64.1509Z" fill="white"/>
<path d="M30.703 63.4819C30.703 65.3739 30.7035 67.2664 30.7026 69.1584C30.7026 69.4414 30.7354 69.4057 30.4525 69.4066C29.8894 69.408 29.3267 69.4071 28.7637 69.4066C28.5394 69.4066 28.5384 69.4057 28.5384 69.1795C28.5384 66.967 28.5384 64.7541 28.5384 62.5416C28.5384 60.9546 28.5389 59.3671 28.538 57.7802C28.538 57.516 28.5741 57.5455 28.301 57.5451C27.386 57.5437 26.4714 57.5404 25.5564 57.5484C25.3945 57.5498 25.3462 57.5118 25.349 57.3447C25.3588 56.6723 25.3579 55.9999 25.349 55.3274C25.3471 55.1801 25.3884 55.1477 25.531 55.1482C28.2597 55.1524 30.9888 55.1529 33.7175 55.1477C33.8695 55.1477 33.8948 55.1946 33.8934 55.3326C33.8864 56.005 33.884 56.6774 33.8944 57.3499C33.8972 57.523 33.8367 57.5493 33.6818 57.5479C32.7593 57.5409 31.8367 57.5441 30.9137 57.5446C30.704 57.5446 30.703 57.5455 30.703 57.759C30.703 59.667 30.703 61.5745 30.703 63.4824V63.4819Z" fill="white"/>
<path d="M14.0252 62.2861C14.0252 64.561 14.0252 66.8359 14.0252 69.1113C14.0252 69.1582 14.0205 69.2056 14.0261 69.2521C14.0407 69.3783 13.9825 69.4107 13.8633 69.4093C13.3865 69.4036 12.9093 69.4069 12.4326 69.4069C12.2998 69.4069 12.1656 69.3966 12.0342 69.4097C11.8723 69.4257 11.823 69.3572 11.8451 69.2084C11.8498 69.1779 11.8456 69.146 11.8456 69.1146C11.8456 64.5568 11.8456 59.999 11.8456 55.4413C11.8456 55.3943 11.8498 55.3469 11.8446 55.3005C11.8329 55.1949 11.8634 55.1475 11.983 55.1485C12.6161 55.1536 13.2495 55.1531 13.883 55.1485C13.998 55.1475 14.0294 55.1855 14.0275 55.2967C14.0214 55.6721 14.0252 56.0471 14.0252 56.4225C14.0252 58.3769 14.0252 60.3313 14.0252 62.2857V62.2861Z" fill="white"/>
<path d="M68.5687 62.2674C68.5687 59.984 68.5687 57.7007 68.5687 55.4173C68.5687 55.2396 68.6612 55.1508 68.846 55.1508C69.4246 55.1508 70.0032 55.1546 70.5818 55.148C70.7141 55.1466 70.7718 55.1832 70.7507 55.3179C70.7493 55.3254 70.7507 55.3333 70.7507 55.3413C70.7507 59.9624 70.7498 64.584 70.7544 69.2051C70.7544 69.3745 70.701 69.4125 70.5414 69.4102C69.9549 69.4013 69.3683 69.4074 68.7822 69.4064C68.5701 69.4064 68.5687 69.4046 68.5687 69.1878C68.5687 66.881 68.5687 64.5742 68.5687 62.2674Z" fill="white"/>
</g>
<defs>
<clipPath id="clip0_2216_4113">
<rect width="92" height="69.3308" fill="white" transform="translate(0 0.324219)"/>
</clipPath>
</defs>
</svg>
