<svg width="144" height="30" viewBox="0 0 144 30" fill="none" xmlns="http://www.w3.org/2000/svg">
<g clip-path="url(#clip0_137_170)">
<path d="M40.2923 11.1296V19.215H42.602C45.0481 19.215 46.6977 17.5865 46.6977 15.2112V15.1722C46.6977 12.7963 45.0481 11.1296 42.602 11.1296H40.2923ZM37.3027 8.46698H42.602C46.8728 8.46698 49.8235 11.3602 49.8235 15.1344V15.1722C49.8235 18.9473 46.8728 21.8789 42.602 21.8789H37.3027V8.46698Z" fill="white"/>
<path d="M57.4548 15.2297C58.9495 15.2297 59.8234 14.3489 59.8234 13.1996V13.1606C59.8234 11.8388 58.8914 11.1296 57.3967 11.1296H55.0869V15.2297H57.4548ZM52.0972 8.46698H57.6489C60.8909 8.46698 62.8516 10.3637 62.8516 13.103V13.142C62.8516 16.2456 60.4056 17.8555 57.3579 17.8555H55.0869V21.8789H52.0972V8.46698Z" fill="white"/>
<path d="M67.8428 11.1869H63.7085V8.46698H74.9672V11.1869H70.8327V21.8789H67.8428V11.1869Z" fill="white"/>
<path d="M81.3554 15.9391C81.181 14.6364 80.4044 13.7556 79.162 13.7556C77.9386 13.7556 77.1429 14.6166 76.9103 15.9391H81.3554ZM74.0176 16.8016V16.7626C74.0176 13.8315 76.1337 11.418 79.162 11.418C82.6369 11.418 84.2283 14.0806 84.2283 16.9932C84.2283 17.2232 84.2092 17.4915 84.1894 17.7591H76.9486C77.2401 19.0817 78.1719 19.771 79.4917 19.771C80.4818 19.771 81.2001 19.4643 82.015 18.7174L83.7043 20.1926C82.7334 21.3809 81.3363 22.1084 79.4527 22.1084C76.3281 22.1084 74.0176 19.944 74.0176 16.8016Z" fill="white"/>
<path d="M85.5312 16.8016V16.7626C85.5312 13.8315 87.8021 11.418 90.9863 11.418C92.9465 11.418 94.1698 12.0691 95.1406 13.1422L93.3351 15.0575C92.6748 14.3682 92.0146 13.9273 90.9664 13.9273C89.4913 13.9273 88.4431 15.2114 88.4431 16.725V16.7626C88.4431 18.3341 89.4721 19.5985 91.0834 19.5985C92.0734 19.5985 92.7528 19.1775 93.4705 18.5065L95.1988 20.2311C94.1889 21.3233 93.0244 22.1084 90.9473 22.1084C87.8219 22.1084 85.5312 19.7333 85.5312 16.8016Z" fill="white"/>
<path d="M96.7349 7.89181H99.6857V13.0653C100.365 12.2028 101.238 11.4177 102.733 11.4177C104.966 11.4177 106.267 12.8737 106.267 15.2297V21.8789H103.316V16.1498C103.316 14.7705 102.656 14.0613 101.53 14.0613C100.404 14.0613 99.6857 14.7705 99.6857 16.1498V21.8789H96.7349V7.89181Z" fill="white"/>
<path d="M108.442 11.6088H111.393V13.0653C112.073 12.2028 112.946 11.4177 114.441 11.4177C116.673 11.4177 117.974 12.8737 117.974 15.2297V21.8789H115.024V16.1498C115.024 14.7705 114.363 14.0613 113.238 14.0613C112.112 14.0613 111.393 14.7705 111.393 16.1498V21.8789H108.442V11.6088Z" fill="white"/>
<path d="M120.286 11.6088H123.237V21.8789H120.286V11.6088ZM120.208 7.89181H123.314V10.4785H120.208V7.89181Z" fill="white"/>
<path d="M125.121 16.8016V16.7626C125.121 13.8315 127.392 11.418 130.576 11.418C132.536 11.418 133.759 12.0691 134.73 13.1422L132.925 15.0575C132.265 14.3682 131.605 13.9273 130.556 13.9273C129.081 13.9273 128.032 15.2114 128.032 16.725V16.7626C128.032 18.3341 129.061 19.5985 130.673 19.5985C131.663 19.5985 132.342 19.1775 133.061 18.5065L134.788 20.2311C133.779 21.3233 132.614 22.1084 130.537 22.1084C127.412 22.1084 125.121 19.7333 125.121 16.8016Z" fill="white"/>
<path d="M135.508 20.5187L136.77 18.6029C137.896 19.407 139.08 19.8286 140.051 19.8286C140.905 19.8286 141.293 19.5222 141.293 19.0626V19.0244C141.293 18.392 140.283 18.181 139.139 17.8362C137.683 17.415 136.032 16.7444 136.032 14.7511V14.7135C136.032 12.6252 137.741 11.4559 139.837 11.4559C141.158 11.4559 142.594 11.8966 143.72 12.6443L142.594 14.6558C141.565 14.0618 140.536 13.6975 139.779 13.6975C139.061 13.6975 138.692 14.0043 138.692 14.4067V14.4452C138.692 15.0201 139.682 15.2878 140.807 15.6712C142.264 16.1504 143.953 16.8401 143.953 18.7177V18.7562C143.953 21.0363 142.225 22.0713 139.973 22.0713C138.517 22.0713 136.887 21.5921 135.508 20.5187Z" fill="white"/>
<path d="M14.8685 0.873654C19.0789 0.873654 22.8624 2.72722 25.4529 5.65889C26.0527 5.87358 26.6078 6.18164 27.1024 6.56481C24.417 2.68251 19.9359 0.132522 14.8685 0.132522C6.66987 0.132522 0 6.80246 0 15.0009C0 15.9994 0.100647 16.975 0.289314 17.9189C0.40125 17.4031 0.58006 16.9122 0.815715 16.4552C0.766603 15.9769 0.741132 15.4917 0.741132 15.0009C0.741132 7.21107 7.07873 0.873654 14.8685 0.873654Z" fill="white"/>
<path d="M29.4052 11.8809C29.3439 12.5213 29.1809 13.1319 28.9336 13.6977C28.9729 14.1268 28.9958 14.5609 28.9958 15.0001C28.9958 22.7899 22.6584 29.127 14.8689 29.127C11.0185 29.127 7.52427 27.5771 4.97356 25.0701C4.45546 24.9668 3.96147 24.7961 3.50049 24.5684C6.23013 27.8061 10.3124 29.8682 14.8689 29.8682C23.067 29.8682 29.737 23.1984 29.737 15.0001C29.737 13.9301 29.6211 12.8874 29.4052 11.8809Z" fill="white"/>
<path d="M23.4378 6.302H11.6533V8.26773H23.4378C25.1123 8.26773 26.4742 9.62969 26.4742 11.3039C26.4742 12.9781 25.1123 14.3403 23.4378 14.3403H15.6031V21.2336V21.2383H17.5688V21.2336V16.306H23.4378C26.1961 16.306 28.44 14.0621 28.44 11.3039C28.44 11.2145 28.4313 11.127 28.4266 11.0386C28.3614 9.80212 27.8485 8.68425 27.0429 7.84529C26.1318 6.89614 24.8541 6.302 23.4378 6.302Z" fill="white"/>
<path d="M6.14814 22.2267C4.47385 22.2267 3.11173 20.8645 3.11173 19.1905C3.11173 17.5163 4.47385 16.1541 6.14814 16.1541H13.7648V9.55952H11.799V14.1884H6.14814C3.6092 14.1884 1.51095 16.0914 1.19261 18.5448C1.16502 18.7567 1.146 18.9712 1.146 19.1905C1.146 21.0043 2.11969 22.5908 3.56866 23.4681C4.32303 23.9246 5.20389 24.1924 6.14814 24.1924H17.6475V22.2267H6.14814Z" fill="white"/>
</g>
<defs>
<clipPath id="clip0_137_170">
<rect width="143.952" height="29.7364" fill="white" transform="translate(0 0.131836)"/>
</clipPath>
</defs>
</svg>
