<svg width="111" height="26" viewBox="0 0 111 26" fill="none" xmlns="http://www.w3.org/2000/svg">
<mask id="mask0_12_2770" style="mask-type:luminance" maskUnits="userSpaceOnUse" x="3" y="2" width="105" height="23">
<path d="M107.66 2H3V24.357H107.66V2Z" fill="white"/>
</mask>
<g mask="url(#mask0_12_2770)">
<path d="M8.12744 21.7519C8.12744 21.7519 22.4602 25.0666 22.4602 15.0691C22.4602 15.0691 22.5672 10.0874 17.7993 10.0874C17.7993 10.0874 15.374 10.345 13.8674 13.1785C13.8674 13.1785 12.7884 14.1554 11.5782 12.5661C10.368 10.9768 11.1408 9.84435 12.3072 9.84435C13.7361 9.84435 12.7932 5.42645 21.3861 5.42645L24.2585 5.64515C24.8855 5.69375 25.5124 5.37785 25.77 4.79945C25.8381 4.63905 25.8867 4.46405 25.8867 4.26965C25.8867 3.35595 28.2585 4.91605 28.2585 5.96585C28.2585 7.01565 28.2585 9.19795 26.6692 9.19795C25.0799 9.19795 26.6983 11.5941 26.6983 11.9197C26.6983 12.2453 27.5586 15.6912 25.945 18.3595C24.3266 21.0278 20.9876 24.3619 16.0059 24.3619C11.0241 24.3619 8.14204 21.7568 8.14204 21.7568L8.12744 21.7519Z" fill="#0087B1"/>
<path d="M23.1213 4.6051C23.1213 4.6051 8.7934 1.2953 8.7934 11.2879C8.7934 11.2879 8.6865 16.2696 13.4543 16.2696C13.4543 16.2696 15.8796 16.012 17.3863 13.1785C17.3863 13.1785 18.4652 12.2016 19.6754 13.7909C20.8856 15.3802 20.1128 16.5126 18.9464 16.5126C17.5175 16.5126 18.4604 20.9306 9.8675 20.9306L7.0097 20.7216C6.3827 20.673 5.7509 20.9889 5.4884 21.5575C5.4155 21.7131 5.3718 21.8929 5.3718 22.0873C5.3718 23.001 3 21.4409 3 20.3911C3 19.3413 3 17.159 4.5893 17.159C6.1786 17.159 4.5601 14.7629 4.5601 14.4373C4.5601 14.1117 3.6999 10.6658 5.3135 7.9975C6.9271 5.3293 10.2709 2 15.2575 2C20.2441 2 23.1213 4.6051 23.1213 4.6051Z" fill="#0087B1"/>
<path d="M54.2412 9.69385H44.895V18.4373H46.7273V11.0303H53.5365C53.9253 11.0303 54.2461 11.3463 54.2461 11.7399V12.9113C54.2461 13.2855 53.9399 13.5917 53.5656 13.5917H48.6714L52.7102 18.4422H55.4368L52.8123 15.3171H54.3773C55.3736 15.3171 56.1659 14.7776 56.1659 13.7861V11.8857C56.1659 10.6804 55.7236 9.70355 54.2461 9.70355L54.2412 9.69385Z" fill="white"/>
<path d="M67.2715 9.69385H59.6749C58.7029 9.69385 57.9155 10.4811 57.9155 11.4532V18.4373H59.3299V11.9295C59.3299 11.5066 59.6749 11.1616 60.0978 11.1616H66.4258C66.8486 11.1616 67.1937 11.5066 67.1937 11.9295V13.5868H61.4684V15.6184H67.1937V18.4373H69.026V11.4532C69.026 10.4811 68.2386 9.69385 67.2666 9.69385H67.2715Z" fill="white"/>
<path d="M78.8097 15.1129H75.8596V13.1786H80.7878V18.4373H71.8548C71.1646 18.4373 70.6057 17.8784 70.6057 17.1882V10.9429C70.6057 10.2527 71.1646 9.69385 71.8548 9.69385H80.7878V11.2685H72.8705V16.7654H78.8292L78.8097 15.1081V15.1129Z" fill="white"/>
<path d="M83.8013 9.69385H82.1245V18.4373H83.8013V9.69385Z" fill="white"/>
<path d="M93.1721 9.69385V15.9586L87.0528 9.69385H85.1719V18.4373H87.0528V12.1336L93.1721 18.4373H95.0531V9.69385H93.1721Z" fill="white"/>
<path d="M106.046 9.69385H98.0171C97.1231 9.69385 96.4041 10.418 96.4041 11.3074V16.8189C96.4041 17.7132 97.1281 18.4325 98.0171 18.4325H106.046C106.941 18.4325 107.66 17.7083 107.66 16.8189V11.3074C107.66 10.4131 106.936 9.69385 106.046 9.69385ZM106.061 15.5844C106.061 16.4787 105.337 17.198 104.447 17.198H99.6161C98.7221 17.198 98.0031 16.4738 98.0031 15.5844V12.5565C98.0031 11.6622 98.7271 10.9429 99.6161 10.9429H104.447C105.342 10.9429 106.061 11.667 106.061 12.5565V15.5844Z" fill="white"/>
<path d="M40.8951 9.69385H33.8867V11.633H40.8708C40.8708 11.633 41.4881 11.5796 41.4881 12.2503V15.9197C41.4881 16.2599 41.2111 16.537 40.8708 16.537H35.6364V13.1154H33.8867V18.4373H40.8951C42.0859 18.4373 43.0482 17.475 43.0482 16.2842V11.8517C43.0482 10.661 42.0859 9.69865 40.8951 9.69865V9.69385Z" fill="white"/>
</g>
</svg>
