<svg width="125" height="50" viewBox="0 0 125 50" fill="none" xmlns="http://www.w3.org/2000/svg">
<g clip-path="url(#clip0_61_191)">
<path d="M40.5231 14.6936L43.5431 25.559H37.2874L40.5231 14.6936ZM35.0318 33.17L32.2838 42.183H48.3497L45.7659 33.17H35.0318ZM76.9646 8.18005H46.1223V17.859H55.8528V42.183H71.5108C70.5447 41.5874 63.8998 36.3118 63.8998 26.4688C63.8998 18.2858 68.8659 10.2809 76.9646 8.18005ZM82.3105 33.4747C85.9495 33.4747 88.871 30.4548 88.871 26.6376C88.871 22.8438 86.1324 19.4112 82.4465 19.4112C78.7418 19.4112 75.8297 22.8438 75.8297 26.6376C75.8297 30.4548 78.5637 33.4747 82.3105 33.4747ZM114.658 29.5544L108.398 8.18005H92.3693V42.183H102.381V20.8696H102.452L108.656 42.183H124.82V8.18005H114.719V29.5544H114.658ZM19.5802 42.183L22.4735 32.6494H11.7488V29.7654H23.3505L26.1078 20.6258H11.7488V17.859H26.905L29.8312 8.18005H0.180054V42.183H19.5802Z" fill="#1175C7"/>
</g>
<defs>
<clipPath id="clip0_61_191">
<rect width="125" height="34.363" fill="white" transform="translate(0 8)"/>
</clipPath>
</defs>
</svg>
