<svg width="204" height="34" viewBox="0 0 204 34" fill="none" xmlns="http://www.w3.org/2000/svg">
<path d="M105.396 7.5918V9.19137H98.001V15.8416H105.002L104.969 17.4083H97.9682V24.7707H105.659L105.637 26.3374H96.1714V7.5918H105.396Z" fill="white"/>
<path d="M110.699 26.3374L108.979 26.3155V7.74512H110.699V26.3374Z" fill="white"/>
<path d="M115.618 19.8952C115.75 21.5934 115.969 22.2069 116.517 23.0505C116.681 23.3135 116.911 23.7079 117.601 24.2447C118.215 24.672 119.113 25.0883 120.516 25.0883C121.918 25.0883 122.849 24.6939 124.23 24.0804L124.284 25.8333C123.485 26.0963 122.301 26.5784 120.472 26.5784C120.044 26.5784 119.672 26.5564 119.278 26.5017C117.842 26.3373 116.385 25.7895 115.279 24.2995C114.61 23.423 113.876 21.8125 113.876 19.5556C113.876 19.1831 113.898 17.1672 114.753 15.5567C115.092 14.8993 115.498 14.472 115.739 14.2091C116.396 13.5188 117.273 12.8286 118.817 12.5876C119.157 12.5109 119.508 12.478 119.88 12.478C120.22 12.478 122.4 12.4999 123.912 14.3077C124.394 14.8664 124.734 15.6553 124.942 16.2907C125.238 17.2439 125.391 18.0108 125.281 19.8952H115.618ZM123.616 18.5148C123.561 17.9012 123.485 17.2987 123.32 16.6851C123.244 16.3893 122.926 15.1732 121.677 14.4063C121.151 14.0886 120.91 13.979 119.957 13.9023C118.817 13.979 118.39 14.1105 117.787 14.483C117.733 14.5377 117.36 14.7788 117.097 15.0417C116.911 15.228 116.758 15.4142 116.517 15.8415C115.772 17.0576 115.695 18.1532 115.64 18.5148H123.616Z" fill="white"/>
<path d="M130.179 18.1754L136.38 12.7412H138.472L131.789 18.6574L139.371 26.3485L137.092 26.3266C135.427 24.6613 133.827 23.0617 132.184 21.3964C131.493 20.6843 130.858 20.0927 130.168 19.3586V26.3266H128.448V7.81104H130.168V18.1754H130.179Z" fill="white"/>
<path d="M143.775 12.7411H146.985V14.1764H143.742C143.742 16.9373 143.72 19.6324 143.742 22.3933C143.742 22.5577 143.72 23.3794 143.983 24.0367C144.224 24.5188 144.914 25.0447 145.813 25.0447C146.152 25.0447 146.448 24.9899 147.139 24.7489L147.193 26.2279C146.262 26.469 145.999 26.5237 145.473 26.5237C144.673 26.5237 144.093 26.3375 143.808 26.206C143.567 26.1293 143.304 25.9431 143.096 25.7568C142.701 25.4391 142.537 25.1214 142.46 24.9899C141.989 24.0587 142.066 22.7658 142.066 21.8346C142.066 20.991 142.066 20.1364 142.044 19.2928V14.1545H139.656V12.7521H142.066V9.42149L143.786 8.84082V12.7411H143.775Z" fill="white"/>
<path d="M151.532 16.0498C151.609 15.6992 151.696 15.2281 152.189 14.4283C152.715 13.6286 153.646 12.6206 155.268 12.6206C155.531 12.6206 155.794 12.6425 156.09 12.6754V14.3955C155.827 14.3736 155.531 14.3188 155.246 14.3188C154.95 14.3188 153.997 14.3188 153.077 15.25C152.836 15.4911 152.627 15.7759 152.496 16.017C151.598 17.5837 151.751 19.9611 151.751 21.5059V26.3265H150.031C150.031 24.4202 150.031 22.5358 150.053 20.6294C150.053 18.7779 150.075 16.9153 150.031 15.0638C150.031 14.2969 150.009 13.4971 149.954 12.7302H151.543V16.0498H151.532Z" fill="white"/>
<path d="M167.341 13.9568C168.053 14.5703 168.371 15.0195 168.689 15.6549C169.138 16.4985 169.511 17.5394 169.511 19.369C169.511 19.9497 169.511 21.2534 168.875 22.8201C168.853 22.9297 168.612 23.4556 168.316 23.9048C168.108 24.2225 167.308 25.2852 166.191 25.8988C165.052 26.5342 163.463 26.589 163.222 26.589C162.773 26.589 161.743 26.5342 160.461 25.8988C160.088 25.7125 159.826 25.5482 159.508 25.3181C159.376 25.2085 158.982 24.8908 158.609 24.4197C158.401 24.1787 158.105 23.7843 157.843 23.2255C157.152 21.7684 157.13 19.9606 157.13 19.621C157.13 16.7615 158.456 14.636 159.858 13.661C160.527 13.2118 161.557 12.6311 163.145 12.5434C165.139 12.4448 166.52 13.2446 167.341 13.9568ZM160.954 14.8332C160.614 15.1291 160.242 15.5454 160.187 15.6002C159.606 16.3671 158.861 17.8242 158.861 19.7306C158.861 21.8012 159.683 23.2584 160.395 23.9705C160.899 24.4526 161.874 25.1647 163.2 25.1647C164.208 25.1647 164.953 24.8141 165.325 24.584C165.698 24.343 166.038 24.0034 166.147 23.8938C166.311 23.7076 166.574 23.4227 166.837 23.0173C167.265 22.3271 167.845 21.0014 167.845 19.2814C167.845 18.9417 167.823 17.5065 167.155 16.2575C166.991 15.9946 166.706 15.4906 166.038 14.9099C165.534 14.4826 164.58 13.8472 163.178 13.9239C162.86 13.9568 161.962 14.0115 160.954 14.8332Z" fill="white"/>
<path d="M181.507 26.3156V19.6325C181.507 18.493 181.584 16.5538 180.817 15.3158C180.467 14.757 179.678 14.0449 178.374 14.0449C177.87 14.0449 177.103 14.2312 176.566 14.5489C176.248 14.7351 175.613 15.1843 175.109 16.006C174.233 17.3536 174.287 19.0299 174.287 20.3775C174.287 22.3605 174.265 24.3545 174.265 26.3375H172.622C172.622 23.4451 172.6 20.5308 172.6 17.6385C172.6 16.6853 172.622 15.754 172.6 14.8228C172.6 14.1326 172.545 13.4204 172.523 12.7521H174.035V15.7212C174.244 15.1076 174.408 14.7132 174.934 14.1326C175.251 13.7601 175.646 13.4423 175.734 13.3656C176.238 12.9931 177.322 12.5439 178.681 12.5439C179.108 12.5439 181.014 12.5439 182.285 14.3188C182.811 15.0638 183.085 16.1485 183.162 16.9154C183.184 17.4413 183.184 17.9781 183.184 18.4821C183.184 18.9861 183.205 19.49 183.205 19.9611C183.205 21.0458 183.184 22.1304 183.184 23.1931C183.206 24.223 183.206 25.2857 183.184 26.3265L181.507 26.3156Z" fill="white"/>
<path d="M189.089 8.08447V10.3414H187.15V8.08447H189.089ZM188.957 12.7408V26.3152H187.237V12.7408H188.957Z" fill="white"/>
<path d="M194.808 18.1754L201.009 12.7412H203.102L196.418 18.6574L204 26.3485L201.721 26.3266C200.056 24.6613 198.456 23.0617 196.813 21.3964C196.123 20.6843 195.487 20.0927 194.797 19.3586V26.3266H193.077V7.81104H194.797V18.1754H194.808Z" fill="white"/>
<path d="M57.7161 25.9543V7.27441H64.9799C65.5606 7.27441 66.1413 7.27441 66.7 7.29633C67.7847 7.35111 72.3204 7.55927 72.3204 12.095C72.3204 12.6757 72.2985 14.1109 71.1043 15.2284C70.436 15.8639 69.8006 16.1049 69.0117 16.4226C69.198 16.4774 70.2059 16.6856 70.8633 17.08C72.2109 17.8469 72.9011 19.3041 72.9011 20.8927C72.9011 21.7363 72.6929 23.6536 70.6442 24.8478C68.946 25.8557 66.9849 25.9105 65.1333 25.9653H57.7161V25.9543ZM62.6463 10.7146V14.8231H64.4212C64.5855 14.8231 64.7608 14.8012 64.9251 14.8012C65.2429 14.7792 66.2727 14.7245 66.963 13.9247C67.2259 13.607 67.4122 13.1797 67.4122 12.7634C67.4122 12.4456 67.3026 12.0512 67.1163 11.7773C66.5905 10.9337 65.714 10.8241 64.7608 10.7146H62.6463ZM62.6463 18.1646V22.4813H65.4072C65.8016 22.4594 66.0207 22.4594 66.3932 22.3169C67.6641 21.8897 67.9052 20.7502 67.9052 20.2791C67.9052 19.567 67.4779 18.9535 66.8753 18.5591C66.2399 18.1646 65.5277 18.1646 64.7499 18.1646H62.6463Z" fill="#005595"/>
<path d="M92.8519 7.35107L86.7494 25.9543H80.4936L74.2487 7.35107L79.5733 7.37299C80.1539 9.27932 80.7127 11.1637 81.2933 13.0701C81.6658 14.2314 82.0383 15.4037 82.3561 16.5979C82.86 18.318 83.3092 20.0709 83.7584 21.8239C84.1528 20.0709 84.5582 18.3289 85.0622 16.576C85.5443 14.8011 86.1249 13.0482 86.6289 11.2952C87.0014 9.99146 87.341 8.67675 87.7135 7.35107H92.8519Z" fill="#005595"/>
<path d="M53.6296 7.35107V10.9337H45.4674V14.6916H53.1256V18.2194H45.4674V22.3498H53.9254V25.9324H40.4824V7.35107H53.6296Z" fill="#005595"/>
<path d="M16.6202 33.2404C25.7993 33.2404 33.2404 25.7993 33.2404 16.6202C33.2404 7.44111 25.7993 0 16.6202 0C7.44111 0 0 7.44111 0 16.6202C0 25.7993 7.44111 33.2404 16.6202 33.2404Z" fill="url(#paint0_radial_2392_3568)"/>
<path d="M6.21204 16.6199C6.21204 10.8351 10.693 6.146 16.6531 6.146C22.4159 6.146 27.0941 10.8351 27.0941 16.6199C27.0941 22.6019 22.4159 27.0938 16.6531 27.0938C10.6492 27.0938 6.21204 22.4046 6.21204 16.6199Z" fill="url(#paint1_radial_2392_3568)"/>
<path opacity="0.49" d="M6.21204 16.6199C6.21204 10.8351 10.693 6.146 16.6531 6.146C22.4159 6.146 27.0941 10.8351 27.0941 16.6199C27.0941 22.6019 22.4159 27.0938 16.6531 27.0938C10.6492 27.0938 6.21204 22.4046 6.21204 16.6199Z" fill="url(#paint2_radial_2392_3568)"/>
<path d="M16.6421 5.4668C10.4301 5.4668 5.45605 10.3312 5.45605 16.6528C5.45605 22.8649 10.3862 27.7512 16.5983 27.806C23.5772 27.8608 27.7733 22.3061 27.861 16.62C27.9596 10.7585 22.9856 5.4668 16.6421 5.4668ZM16.6202 26.9514C10.6382 26.9514 6.40922 22.591 6.40922 16.62C6.40922 10.638 10.6382 6.28849 16.6202 6.28849C22.6021 6.28849 26.9516 10.649 26.9516 16.62C26.9516 22.591 22.5912 26.9514 16.6202 26.9514Z" fill="url(#paint3_radial_2392_3568)"/>
<path d="M17.8254 17.978L18.4499 18.6135V24.0586L17.8254 23.4451V17.978Z" fill="#003D6E"/>
<path d="M17.8254 15.2505L18.4499 14.6479H26.7874L27.7625 15.2505H17.8254Z" fill="url(#paint4_linear_2392_3568)"/>
<path d="M6.96802 22.2837L7.35148 21.21L14.2756 16.6523L15.5465 16.6633L6.96802 22.2837Z" fill="url(#paint5_linear_2392_3568)"/>
<path d="M15.3712 23.4457L14.7577 24.0593V21.1559L15.3712 19.896V23.4457Z" fill="url(#paint6_radial_2392_3568)"/>
<path d="M15.3712 19.896L14.7577 21.1559L9.71791 24.4537L8.53467 24.377L15.3712 19.896Z" fill="#003461"/>
<path d="M17.8254 23.4453L18.4498 24.0588H14.7577L15.3712 23.4453H17.8254Z" fill="#003D6E"/>
<path d="M27.7735 17.978L26.7765 18.6135H18.4499L17.8254 17.978H27.7735Z" fill="url(#paint7_radial_2392_3568)"/>
<path d="M15.3712 13.6181L14.7577 12.4239V9.26855L15.3712 9.93687V13.6181Z" fill="url(#paint8_linear_2392_3568)"/>
<path d="M8.43616 9.02744L9.49889 8.97266L14.7687 12.4238L15.3713 13.618L8.43616 9.02744Z" fill="url(#paint9_linear_2392_3568)"/>
<path d="M15.3712 9.93687L14.7577 9.26855H18.4498L17.8254 9.93687H15.3712Z" fill="url(#paint10_linear_2392_3568)"/>
<path d="M17.8254 9.93687L18.4499 9.26855V14.6479L17.8254 15.2505V9.93687Z" fill="#003D6E"/>
<path d="M15.5466 16.664L14.2757 16.653L7.32959 12.0625L6.979 10.9888L15.5466 16.664Z" fill="url(#paint11_linear_2392_3568)"/>
<path d="M16.6092 2.68408C24.3003 2.68408 30.5452 8.91802 30.5452 16.6201C30.5452 24.3111 24.3003 30.556 16.6092 30.556C8.91812 30.556 2.67322 24.3111 2.67322 16.6201C2.67322 8.91802 8.90716 2.68408 16.6092 2.68408ZM16.6421 27.7513C22.3282 27.8718 26.8421 23.9277 27.7624 17.9896H17.8144V23.4456H15.3602V19.9069L8.51274 24.3878C10.9121 26.6667 13.6401 27.7513 16.6421 27.7513ZM16.6421 5.4669C13.5854 5.4669 10.4958 6.78161 8.43605 9.02758L15.3712 13.6181V9.93693H17.8253V15.2615H27.7624C27.0941 9.73972 22.1858 5.4669 16.6421 5.4669ZM5.45603 16.6529C5.45603 18.5483 5.92714 20.3232 6.957 22.2843L15.5465 16.6639L6.97891 10.9887C5.92714 12.9498 5.45603 14.7466 5.45603 16.6529Z" fill="url(#paint12_radial_2392_3568)"/>
<defs>
<radialGradient id="paint0_radial_2392_3568" cx="0" cy="0" r="1" gradientUnits="userSpaceOnUse" gradientTransform="translate(14.6614 15.9877) scale(15.9744)">
<stop stop-color="white"/>
<stop offset="0.0693694" stop-color="white"/>
<stop offset="0.4908" stop-color="white"/>
<stop offset="0.7325" stop-color="#FDFDFE"/>
<stop offset="0.8195" stop-color="#F7F8F8"/>
<stop offset="0.8816" stop-color="#EDEEF0"/>
<stop offset="0.9318" stop-color="#DFE0E3"/>
<stop offset="0.9742" stop-color="#CCCED2"/>
<stop offset="1" stop-color="#BDC0C5"/>
</radialGradient>
<radialGradient id="paint1_radial_2392_3568" cx="0" cy="0" r="1" gradientUnits="userSpaceOnUse" gradientTransform="translate(14.1364 16.4603) scale(12.4116 12.453)">
<stop stop-color="white"/>
<stop offset="0.2662" stop-color="#FDFDFD"/>
<stop offset="0.4349" stop-color="#F5F6F7"/>
<stop offset="0.5767" stop-color="#E8EBED"/>
<stop offset="0.7034" stop-color="#D5DADD"/>
<stop offset="0.8201" stop-color="#BEC5C9"/>
<stop offset="0.928" stop-color="#A1AAAF"/>
<stop offset="1" stop-color="#8A9399"/>
</radialGradient>
<radialGradient id="paint2_radial_2392_3568" cx="0" cy="0" r="1" gradientUnits="userSpaceOnUse" gradientTransform="translate(20.142 17.4464) scale(13.2273 13.2715)">
<stop stop-color="white"/>
<stop offset="0.4026" stop-color="#FDFEFE"/>
<stop offset="0.5476" stop-color="#F7F8F9"/>
<stop offset="0.651" stop-color="#EDEFF1"/>
<stop offset="0.7346" stop-color="#DFE2E4"/>
<stop offset="0.8062" stop-color="#CCD1D4"/>
<stop offset="0.8696" stop-color="#B5BBBF"/>
<stop offset="0.9269" stop-color="#99A0A5"/>
<stop offset="0.9778" stop-color="#798186"/>
<stop offset="0.9939" stop-color="#6E757A"/>
</radialGradient>
<radialGradient id="paint3_radial_2392_3568" cx="0" cy="0" r="1" gradientUnits="userSpaceOnUse" gradientTransform="translate(16.3857 16.5124) scale(12.8519 12.1862)">
<stop stop-color="#B4C1D7"/>
<stop offset="0.2563" stop-color="#B1BFD6"/>
<stop offset="0.407" stop-color="#A6B8D0"/>
<stop offset="0.5303" stop-color="#95ACC7"/>
<stop offset="0.6388" stop-color="#7D9CBA"/>
<stop offset="0.7377" stop-color="#5D88A9"/>
<stop offset="0.8295" stop-color="#337095"/>
<stop offset="0.9146" stop-color="#00587F"/>
<stop offset="0.9946" stop-color="#004066"/>
<stop offset="0.9995" stop-color="#003E64"/>
</radialGradient>
<linearGradient id="paint4_linear_2392_3568" x1="17.8248" y1="14.9502" x2="27.7634" y2="14.9502" gradientUnits="userSpaceOnUse">
<stop stop-color="#00457C"/>
<stop offset="0.1116" stop-color="#005287"/>
<stop offset="0.2855" stop-color="#2C6697"/>
<stop offset="0.4617" stop-color="#4E77A4"/>
<stop offset="0.6389" stop-color="#6385AE"/>
<stop offset="0.8175" stop-color="#708EB5"/>
<stop offset="1" stop-color="white"/>
</linearGradient>
<linearGradient id="paint5_linear_2392_3568" x1="6.96257" y1="19.468" x2="15.5486" y2="19.468" gradientUnits="userSpaceOnUse">
<stop stop-color="#00457C"/>
<stop offset="0.1116" stop-color="#005287"/>
<stop offset="0.2855" stop-color="#2C6697"/>
<stop offset="0.4617" stop-color="#4E77A4"/>
<stop offset="0.6389" stop-color="#6385AE"/>
<stop offset="0.8175" stop-color="#708EB5"/>
<stop offset="1" stop-color="white"/>
</linearGradient>
<radialGradient id="paint6_radial_2392_3568" cx="0" cy="0" r="1" gradientUnits="userSpaceOnUse" gradientTransform="translate(14.2767 20.8534) scale(2.47536 2.47536)">
<stop stop-color="#003461"/>
<stop offset="1" stop-color="#7491B7"/>
</radialGradient>
<radialGradient id="paint7_radial_2392_3568" cx="0" cy="0" r="1" gradientUnits="userSpaceOnUse" gradientTransform="translate(18.3678 16.3234) scale(28.1658 28.1657)">
<stop stop-color="#00325E"/>
<stop offset="0.1117" stop-color="#003F6C"/>
<stop offset="0.3969" stop-color="#2F618F"/>
<stop offset="0.6503" stop-color="#5A7FAB"/>
<stop offset="0.86" stop-color="#7594BD"/>
<stop offset="1" stop-color="white"/>
</radialGradient>
<linearGradient id="paint8_linear_2392_3568" x1="14.761" y1="11.4423" x2="15.3754" y2="11.4423" gradientUnits="userSpaceOnUse">
<stop offset="1" stop-color="#7491B7"/>
</linearGradient>
<linearGradient id="paint9_linear_2392_3568" x1="8.44001" y1="11.2962" x2="15.3755" y2="11.2962" gradientUnits="userSpaceOnUse">
<stop stop-color="#00457C"/>
<stop offset="0.1116" stop-color="#005287"/>
<stop offset="0.2855" stop-color="#2C6697"/>
<stop offset="0.4617" stop-color="#4E77A4"/>
<stop offset="0.6389" stop-color="#6385AE"/>
<stop offset="0.8175" stop-color="#708EB5"/>
<stop offset="1" stop-color="white"/>
</linearGradient>
<linearGradient id="paint10_linear_2392_3568" x1="14.761" y1="9.5993" x2="18.4455" y2="9.5993" gradientUnits="userSpaceOnUse">
<stop offset="1" stop-color="white"/>
</linearGradient>
<linearGradient id="paint11_linear_2392_3568" x1="6.98021" y1="13.8242" x2="15.5486" y2="13.8242" gradientUnits="userSpaceOnUse">
<stop stop-color="#00457C"/>
<stop offset="0.1116" stop-color="#005287"/>
<stop offset="0.2855" stop-color="#2C6697"/>
<stop offset="0.4617" stop-color="#4E77A4"/>
<stop offset="0.6389" stop-color="#6385AE"/>
<stop offset="0.8175" stop-color="#708EB5"/>
<stop offset="1" stop-color="white"/>
</linearGradient>
<radialGradient id="paint12_radial_2392_3568" cx="0" cy="0" r="1" gradientUnits="userSpaceOnUse" gradientTransform="translate(14.7311 15.1482) scale(15.0748)">
<stop offset="0.2393" stop-color="#7F9CC3"/>
<stop offset="0.3505" stop-color="#7796BE"/>
<stop offset="0.496" stop-color="#6285B0"/>
<stop offset="0.6603" stop-color="#3F6C99"/>
<stop offset="0.8372" stop-color="#004E7C"/>
<stop offset="1" stop-color="#00325E"/>
</radialGradient>
</defs>
</svg>
