<svg width="69" height="36" viewBox="0 0 69 36" fill="none" xmlns="http://www.w3.org/2000/svg">
<path d="M24.5977 28.1824C24.9378 28.5478 25.3756 28.6202 25.7482 28.8155C26.5875 29.2533 27.1519 29.8466 27.1374 30.8668C27.1229 31.6518 26.5296 32.4948 25.6795 32.8493C24.6412 33.2834 23.5558 33.515 22.4271 33.5186C20.1009 33.5186 17.7783 33.5113 15.4521 33.5258C15.1554 33.5258 15.141 33.4028 15.1482 33.1821C15.2242 30.7365 15.1844 28.2873 15.1699 25.8417C15.1663 25.1544 15.2531 24.4778 15.2386 23.7941C15.235 23.577 15.3038 23.5155 15.5172 23.5155C17.8579 23.5155 20.1986 23.4612 22.5356 23.5191C23.5667 23.5445 24.6303 23.6855 25.5456 24.2572C26.602 24.9192 27.0433 26.3193 26.0268 27.2418C25.6035 27.6253 25.0825 27.8568 24.6014 28.1824H24.5977ZM20.4844 31.7965C20.4844 31.7965 20.4844 31.7965 20.4844 31.8002C21.0668 31.8002 21.6529 31.811 22.2354 31.8002C22.7708 31.7893 23.2121 31.565 23.5703 31.167C23.7801 30.9355 23.8453 30.6678 23.7657 30.3784C23.6427 29.9262 22.9625 29.4305 22.485 29.3654C21.3707 29.2135 20.2492 29.3075 19.1349 29.2786C18.936 29.275 18.7587 29.3618 18.5706 29.3726C18.4295 29.3799 18.3861 29.4522 18.3969 29.5716C18.462 30.1685 18.3137 30.7582 18.3137 31.3516C18.3137 31.6663 18.4512 31.8074 18.7732 31.8002C19.3412 31.7857 19.9128 31.7965 20.4808 31.7965H20.4844ZM20.1841 27.4552C20.9257 27.4552 21.6746 27.5638 22.3945 27.2744C22.9263 27.0609 23.2411 26.587 23.1579 26.0986C23.0964 25.7223 22.6116 25.3787 22.1232 25.3172C21.0234 25.1797 19.9236 25.1652 18.8166 25.2376C18.5199 25.2556 18.4042 25.3497 18.4042 25.621C18.4042 26.1311 18.4114 26.6412 18.4078 27.1477C18.4078 27.3793 18.5236 27.4625 18.7442 27.4589C19.2218 27.4516 19.7029 27.4589 20.1805 27.4589L20.1841 27.4552Z" fill="#008ECD"/>
<path d="M8.47353 33.5224C6.80933 33.5224 5.14514 33.5079 3.48104 33.5333C3.07584 33.5369 2.99264 33.4139 2.99984 33.0232C3.06134 29.9806 3.06134 26.9381 2.99984 23.8956C2.99264 23.6098 3.05054 23.5121 3.35804 23.5121C6.58144 23.5121 9.80484 23.4904 13.0282 23.4795C13.806 23.4795 13.806 23.4868 13.806 24.2429C13.806 24.3333 13.806 24.4238 13.806 24.5142C13.806 25.4078 13.806 25.415 12.916 25.415C11.0421 25.415 9.16814 25.4078 7.29414 25.3897C7.01554 25.3897 6.73693 25.4838 6.45483 25.3608C6.33173 25.3065 6.24493 25.4367 6.24493 25.5778C6.24493 26.1313 6.25224 26.6885 6.25584 27.242C6.25584 27.4844 6.43674 27.4808 6.60674 27.4771C7.19284 27.4627 7.77524 27.4374 8.36134 27.4374C9.85904 27.4374 11.3604 27.4591 12.8582 27.4554C13.1621 27.4554 13.2959 27.5495 13.2851 27.8679C13.2706 28.2116 13.2742 28.5589 13.3068 28.9025C13.3393 29.2788 13.1946 29.4054 12.822 29.4018C11.5341 29.3873 10.2425 29.4018 8.95464 29.3982C8.17324 29.3982 7.39544 29.3982 6.61754 29.3692C6.34264 29.3584 6.24134 29.438 6.25224 29.7165C6.27024 30.1941 6.27754 30.6789 6.24854 31.1564C6.21964 31.5833 6.36074 31.728 6.80574 31.7208C8.99444 31.6954 11.1831 31.7027 13.3719 31.7063C13.9471 31.7063 13.976 31.7533 13.9833 32.3285C13.9905 33.1293 13.5962 33.5308 12.8003 33.5333C11.3604 33.5333 9.92064 33.5333 8.48074 33.5333C8.48074 33.5333 8.48074 33.5296 8.48074 33.526L8.47353 33.5224Z" fill="#008ECD"/>
<path d="M61.506 33.5113C59.8707 33.5113 58.2355 33.5005 56.6039 33.5186C56.1987 33.5222 56.0902 33.3811 56.0938 32.9976C56.1155 29.984 56.0649 26.9705 56.1191 23.9569C56.1264 23.5915 56.2241 23.5083 56.5714 23.5083C59.8382 23.5227 63.1086 23.5227 66.3754 23.5083C66.7047 23.5083 66.7915 23.6711 66.8204 23.9026C66.8783 24.3621 66.8421 24.8251 66.7372 25.2774C66.6866 25.5053 66.4948 25.4076 66.3682 25.4076C64.6281 25.4076 62.8879 25.3967 61.1514 25.3931C60.6558 25.3931 60.1602 25.4148 59.6681 25.4076C59.3823 25.404 59.263 25.5089 59.2774 25.8055C59.2955 26.2107 59.2919 26.6159 59.281 27.0211C59.2738 27.3286 59.3643 27.4733 59.7152 27.4697C61.7701 27.4589 63.8249 27.4806 65.8762 27.4697C66.1692 27.4697 66.2886 27.5348 66.3357 27.8351C66.3972 28.2403 66.3791 28.6419 66.3718 29.0434C66.3718 29.275 66.2452 29.3871 65.9703 29.3835C63.872 29.3654 61.7701 29.3763 59.6718 29.3618C59.3932 29.3618 59.2593 29.4124 59.2774 29.7308C59.3028 30.2228 59.2991 30.7221 59.2774 31.2141C59.263 31.5867 59.4149 31.7133 59.7803 31.7097C61.7013 31.6952 63.6187 31.6952 65.5397 31.6952C65.84 31.6952 66.1403 31.6989 66.4406 31.7025C66.8204 31.7025 67.1316 31.7097 66.9434 32.2741C66.8566 32.5346 67.0447 32.8457 66.9507 33.1749C66.8747 33.439 66.7951 33.5077 66.5455 33.5077C64.8668 33.5005 63.1846 33.5041 61.506 33.5041C61.506 33.5041 61.506 33.5041 61.506 33.5077V33.5113Z" fill="#008ECD"/>
<path d="M32.8209 31.5687C32.8209 31.3878 32.7919 31.2033 32.8245 31.0297C33.0415 29.9082 32.5387 29.134 31.7681 28.3562C30.3391 26.9163 29.0946 25.2955 27.6837 23.834C27.6185 23.7652 27.557 23.7001 27.5896 23.6024C27.6258 23.4867 27.7343 23.5156 27.8175 23.512C28.7617 23.4975 29.706 23.4903 30.6502 23.4758C30.8781 23.4758 31.0554 23.5699 31.2001 23.7363C32.2673 24.9772 33.3418 26.2144 34.4018 27.4626C34.561 27.6471 34.6442 27.6941 34.7998 27.4807C35.4835 26.5364 36.2867 25.6863 36.9198 24.7022C37.1513 24.3441 37.4552 24.0293 37.7157 23.6893C37.8423 23.5228 38.0087 23.5048 38.1932 23.5048C39.1809 23.5084 40.1721 23.5048 41.1598 23.5156C41.2502 23.5156 41.3877 23.4469 41.4311 23.588C41.4637 23.7001 41.3515 23.7689 41.2828 23.8448C39.7488 25.5271 38.2294 27.2238 36.6701 28.8807C36.2577 29.3185 36.0732 29.7779 36.0804 30.3532C36.0913 31.1925 36.0949 32.0318 36.0804 32.8711C36.0696 33.4536 36.0262 33.4934 35.4437 33.5006C34.6804 33.5114 33.9134 33.4861 33.1501 33.5006C32.8643 33.5042 32.8281 33.3631 32.8317 33.1388C32.8353 32.6142 32.8317 32.0897 32.8317 31.5651H32.8281L32.8209 31.5687Z" fill="#008ECD"/>
<path d="M48.6196 23.4757C50.4791 23.4757 52.3386 23.4685 54.1981 23.4793C54.7951 23.483 54.8349 23.5481 54.8602 24.1559C54.9072 25.3569 54.9072 25.3642 53.7061 25.375C52.7474 25.3823 51.7887 25.3823 50.83 25.3642C50.4791 25.3569 50.3488 25.4691 50.3561 25.8273C50.3742 26.6955 50.3561 27.5674 50.3561 28.4356C50.3561 29.9515 50.3452 31.4709 50.3633 32.9868C50.3705 33.3992 50.2439 33.5439 49.8243 33.5258C49.0609 33.4933 48.294 33.4933 47.5306 33.5113C47.1978 33.5186 47.1037 33.4426 47.111 33.0917C47.1363 30.7655 47.1399 28.4429 47.1399 26.1167C47.1399 25.4076 47.129 25.4112 46.4091 25.4112C45.4649 25.4112 44.5207 25.4112 43.5764 25.404C43.3268 25.404 43.0772 25.3461 42.8275 25.3244C42.6792 25.3135 42.6358 25.2412 42.6032 25.1037C42.5056 24.6913 42.5381 24.2752 42.5128 23.8592C42.4947 23.5842 42.5815 23.501 42.8601 23.501C44.5713 23.5155 46.2789 23.5083 47.9901 23.5119C48.1999 23.5119 48.4097 23.5119 48.6196 23.5119C48.6196 23.501 48.6196 23.4902 48.6196 23.4793V23.4757Z" fill="#008ECD"/>
<path d="M35.252 21.7502C28.8377 21.7502 22.4199 21.7502 16.0056 21.7502C15.7524 21.7502 15.5027 21.7936 15.2495 21.8117C15.1192 21.8189 14.9203 21.8442 14.913 21.6814C14.9058 21.5295 15.0939 21.5439 15.2278 21.5331C16.6025 21.4318 17.9809 21.4643 19.3592 21.4426C24.3336 21.3667 29.308 21.2545 34.2824 21.2328C37.3684 21.2183 40.4579 21.2473 43.5475 21.3377C44.9765 21.3811 46.4055 21.4065 47.8345 21.3956C50.0811 21.3775 52.3278 21.4282 54.5744 21.4499C54.6359 21.4499 54.6938 21.4607 54.7553 21.4571C54.9108 21.4463 55.0013 21.5801 55.0013 21.6706C55.0013 21.8514 54.8276 21.7755 54.7263 21.7755C53.2105 21.7791 51.6983 21.7791 50.1824 21.7791C45.2044 21.7791 40.23 21.7791 35.252 21.7791C35.252 21.7682 35.252 21.7574 35.252 21.7429V21.7502Z" fill="white"/>
<path d="M19.117 10.7703C19.0808 8.70091 19.7718 6.87761 20.9548 5.20981C21.4722 4.47901 22.0257 3.78801 22.6696 3.16581C22.865 2.97768 23.0821 2.83297 23.3136 2.70274C23.5849 2.55079 23.8056 2.60867 23.9793 2.84021C24.1602 3.08621 23.9793 3.27791 23.8129 3.40091C23.158 3.88571 22.6407 4.49351 22.1559 5.13751C21.1213 6.51581 20.3651 8.01001 20.1047 9.74291C19.8116 11.7037 20.3977 13.4402 21.3456 15.108C21.8918 16.0703 22.6262 16.8879 23.3064 17.7489C23.4475 17.9262 23.5343 18.0456 23.3028 18.2554C23.0821 18.4544 22.9229 18.4291 22.7384 18.2771C21.8918 17.568 21.2406 16.6889 20.6473 15.7736C19.8804 14.587 19.3847 13.281 19.1243 11.8918C19.0555 11.53 19.1134 11.1429 19.1134 10.7703H19.117Z" fill="white"/>
<path d="M50.9894 10.9331C50.9315 12.9301 50.2116 14.7607 49.0249 16.4248C48.5836 17.0435 48.1205 17.644 47.567 18.165C47.444 18.2807 47.3174 18.3748 47.1654 18.4399C46.9411 18.534 46.7928 18.411 46.6589 18.259C46.5215 18.1035 46.5793 17.9479 46.6915 17.814C47.075 17.3582 47.4765 16.9205 47.8456 16.4538C48.9381 15.0827 49.6978 13.5741 49.9221 11.7941C50.2007 9.57277 49.5604 7.63367 48.3737 5.80677C47.7985 4.92037 47.0279 4.21857 46.3044 3.46607C46.1525 3.31047 45.8522 3.16217 46.109 2.88358C46.3333 2.64119 46.5866 2.64119 46.8615 2.85464C48.2073 3.90737 49.1877 5.25317 49.9836 6.74737C50.6674 8.03167 50.9568 9.41357 50.9894 10.9259V10.9331Z" fill="white"/>
<path d="M34.7602 15.3684C35.1255 15.2924 35.5814 15.4443 36.0481 15.419C36.3845 15.4009 36.3809 15.6795 36.3954 15.8785C36.475 17.2026 36.6378 18.5158 36.8512 19.8218C36.9489 20.426 36.9163 20.4513 36.3049 20.4513C35.3752 20.4513 34.4418 20.4368 33.512 20.4621C33.1937 20.4694 33.1177 20.3464 33.1611 20.075C33.4071 18.6316 33.5663 17.1808 33.6097 15.7157C33.6169 15.4479 33.7834 15.3864 33.986 15.372C34.2103 15.3539 34.4346 15.3684 34.7602 15.3684Z" fill="white"/>
<path d="M37.032 10.3869C37.1767 11.3565 36.1024 12.3586 35.0062 12.4165C34.0005 12.4707 33.0092 11.4071 32.9875 10.3833C32.9658 9.39571 33.852 8.25241 35.0169 8.31761C36.1312 8.37911 37.032 8.92531 37.032 10.3905V10.3869Z" fill="white"/>
<path d="M45.8557 10.7486C45.9823 12.5575 45.1719 14.0299 44.1843 15.4408C43.8985 15.8496 43.4897 16.1463 43.175 16.5261C43.0411 16.6853 42.853 16.7468 42.6793 16.754C42.5274 16.7577 42.3573 16.6347 42.2922 16.4827C42.2162 16.2982 42.361 16.1571 42.4803 16.0341C43.2292 15.2491 43.8804 14.3953 44.329 13.4004C44.6474 12.6949 44.8463 11.9822 44.8789 11.19C44.9368 9.81884 44.6618 8.55624 43.9709 7.38054C43.4716 6.52674 42.7987 5.82124 42.1005 5.13024C41.9883 5.02174 41.6953 4.96024 41.8545 4.69254C42.0173 4.42124 42.2814 4.37054 42.5599 4.45374C42.6938 4.49354 42.8168 4.60204 42.9181 4.70334C44.282 6.07454 45.4397 7.56504 45.7978 9.54394C45.8702 9.94914 45.7978 10.347 45.8521 10.745L45.8557 10.7486Z" fill="white"/>
<path d="M24.1529 10.6727C24.142 8.67568 24.9741 7.02238 26.2584 5.55718C26.5949 5.17368 26.9422 4.80108 27.351 4.49358C27.5282 4.35978 27.7055 4.26928 27.9262 4.39588C28.2663 4.58768 28.2952 4.76488 27.9949 5.05068C27.2026 5.79958 26.4682 6.59548 25.9437 7.56148C25.5349 8.31758 25.2744 9.11708 25.1514 9.97088C24.8547 12.0402 25.7447 13.7008 26.9458 15.2564C27.152 15.5205 27.3908 15.7593 27.5934 16.0234C27.7127 16.1789 27.8502 16.3526 27.5934 16.5479C27.3691 16.7144 27.1737 16.7541 26.9602 16.5624C26.6166 16.2513 26.3199 15.8967 26.0341 15.5313C25.2563 14.5329 24.6232 13.4584 24.3084 12.2175C24.1782 11.7074 24.1565 11.1937 24.1529 10.6727Z" fill="white"/>
<path d="M28.2591 11.1032C28.3279 9.24731 28.809 8.09331 29.6049 7.04411C29.8763 6.68961 30.1693 6.37121 30.5383 6.11801C30.6251 6.06011 30.7083 6.00221 30.7952 5.94791C31.0339 5.79601 31.2546 5.84661 31.4355 6.04201C31.649 6.27721 31.4572 6.45801 31.3089 6.60281C30.882 7.01881 30.484 7.45291 30.144 7.94491C28.8163 9.86961 29.084 12.0113 30.4515 13.737C30.6468 13.983 30.8567 14.2145 31.0593 14.4496C31.2257 14.645 31.2763 14.8585 31.0593 15.0393C30.8603 15.2021 30.6324 15.2238 30.4153 15.0393C29.9016 14.6016 29.4855 14.0734 29.1527 13.4982C28.6354 12.601 28.2012 11.6567 28.2591 11.0996V11.1032Z" fill="white"/>
<path d="M41.7277 10.4518C41.7567 12.5176 40.8703 13.8417 39.7741 15.0645C39.5535 15.3105 39.246 15.3503 38.9927 15.1187C38.678 14.8329 38.8878 14.5869 39.1157 14.3735C40.4543 13.1326 40.9318 11.5589 40.6967 9.8079C40.5556 8.7551 39.9659 7.8543 39.1989 7.1018C39.0506 6.9535 38.8806 6.8196 38.7612 6.6532C38.6599 6.5085 38.2945 6.4289 38.6056 6.1395C38.8516 5.9043 39.1012 5.8899 39.3581 6.078C40.0744 6.6098 40.599 7.3116 41.0621 8.0605C41.5758 8.8926 41.7603 9.8079 41.7277 10.4518Z" fill="white"/>
</svg>
