<svg width="122" height="32" viewBox="0 0 122 32" fill="none" xmlns="http://www.w3.org/2000/svg">
<g clip-path="url(#clip0_184_472)">
<path d="M7.99433 25.7626C6.31893 25.7626 4.88138 25.3782 3.68253 24.6103C2.48369 23.8424 1.57008 22.755 0.941697 21.3464C0.314191 19.9387 0 18.2914 0 16.4062C0 14.5211 0.308048 12.8395 0.925022 11.4318C1.54112 10.0241 2.43718 8.93056 3.6132 8.15035C4.78835 7.37101 6.22503 6.98047 7.925 6.98047C9.62497 6.98047 11.1599 7.38769 12.3237 8.20213C13.4874 9.01745 14.3308 10.1461 14.8548 11.588C15.3787 13.0317 15.5814 14.7071 15.4656 16.6151H1.98959C2.0361 18.2905 2.30378 19.6815 2.79262 20.7865C3.28146 21.8923 3.97391 22.7181 4.86997 23.2649C5.76603 23.8117 6.80777 24.0855 7.99433 24.0855C9.48367 24.0855 10.6939 23.7134 11.6251 22.9683C12.5554 22.224 13.1495 21.2463 13.4058 20.0361H15.3954C15.2321 21.2463 14.8074 22.2819 14.1211 23.1429C13.4348 24.0039 12.5615 24.6559 11.5031 25.0983C10.4438 25.5397 9.27391 25.7617 7.99433 25.7617V25.7626ZM2.02469 15.3592L1.78071 14.9748H13.72L13.476 15.4285C13.4988 13.8225 13.2777 12.5253 12.8125 11.5362C12.3465 10.5472 11.6953 9.82048 10.8572 9.35446C10.019 8.88931 9.04222 8.65586 7.925 8.65586C6.80778 8.65586 5.78358 8.90599 4.92263 9.40624C4.06167 9.90736 3.38063 10.6516 2.88038 11.6407C2.37925 12.6298 2.0949 13.8699 2.02469 15.3583V15.3592Z" fill="white"/>
<path d="M26.2871 25.7286C25.1699 25.7286 24.1457 25.5188 23.2154 25.1002C22.2843 24.6816 21.4812 24.0708 20.8063 23.2677C20.1314 22.4647 19.6136 21.4817 19.2529 20.318C18.8922 19.1543 18.7114 17.8282 18.7114 16.338C18.7114 14.3598 19.0309 12.6721 19.6716 11.2758C20.3113 9.87948 21.2013 8.80877 22.3422 8.06366C23.4822 7.31943 24.7969 6.94644 26.2871 6.94644C27.3807 6.94644 28.3759 7.12723 29.2719 7.48794C30.168 7.84864 30.9298 8.34889 31.5582 8.98869C32.1866 9.62936 32.6403 10.3797 32.9194 11.2407H33.0589V0H35.1187V25.4495H33.1291L33.0589 21.4001H32.9194C32.4771 22.7034 31.674 23.7513 30.5103 24.542C29.3465 25.3337 27.9388 25.7286 26.2863 25.7286H26.2871ZM26.8804 23.9479C28.1837 23.9479 29.2948 23.6398 30.2145 23.0229C31.1334 22.4068 31.832 21.609 32.3094 20.6313C32.786 19.6536 33.0247 18.6066 33.0247 17.4894V15.1505C33.0247 14.3361 32.8904 13.5392 32.6236 12.759C32.3559 11.9796 31.9601 11.2872 31.4371 10.6816C30.9131 10.0769 30.2672 9.59425 29.4993 9.23267C28.7313 8.87196 27.8581 8.69117 26.8813 8.69117C25.671 8.69117 24.6117 8.98781 23.7043 9.58109C22.7968 10.1744 22.0921 11.0362 21.5918 12.1648C21.0907 13.2943 20.8414 14.6845 20.8414 16.3362C20.8414 17.9879 21.0916 19.3158 21.5918 20.4558C22.0921 21.5967 22.7959 22.4629 23.7043 23.0562C24.6117 23.6495 25.671 23.9461 26.8813 23.9461L26.8804 23.9479Z" fill="white"/>
<path d="M47.5117 31.6271C46.2084 31.6271 45.056 31.4288 44.0556 31.0338C43.0542 30.638 42.2459 30.079 41.6289 29.3584C41.0119 28.637 40.6223 27.7638 40.459 26.7405H42.4486C42.5882 27.3917 42.8786 27.9674 43.321 28.4685C43.7624 28.9688 44.339 29.347 45.049 29.6033C45.759 29.8587 46.5787 29.9877 47.5099 29.9877C48.743 29.9877 49.8023 29.8069 50.6869 29.4462C51.5707 29.0855 52.2631 28.4975 52.7643 27.683C53.2645 26.8677 53.5146 25.7514 53.5146 24.3314V20.282H53.34C52.8977 21.5159 52.106 22.5164 50.966 23.2843C49.8251 24.0523 48.4639 24.4367 46.8815 24.4367C45.7406 24.4367 44.7111 24.2392 43.7923 23.8434C42.8725 23.4476 42.087 22.8657 41.4358 22.0978C40.7837 21.3299 40.2835 20.4048 39.9351 19.3227C39.5858 18.2406 39.4111 17.0365 39.4111 15.7095C39.4111 13.9174 39.7253 12.364 40.3537 11.0493C40.9821 9.73462 41.8606 8.72271 42.9892 8.01183C44.1179 7.30183 45.4387 6.94727 46.9517 6.94727C48.4648 6.94727 49.8839 7.32026 51.0011 8.06449C52.1183 8.8096 52.8977 9.81009 53.34 11.0669H53.5146V7.26146H55.5393V24.2971C55.5393 25.6241 55.341 26.7519 54.9461 27.683C54.5502 28.6133 53.9973 29.3698 53.2882 29.9526C52.5782 30.5344 51.7287 30.9592 50.7396 31.2269C49.7505 31.4946 48.6736 31.628 47.5108 31.628L47.5117 31.6271ZM47.4414 22.7253C48.721 22.7253 49.8093 22.4348 50.7054 21.8529C51.6014 21.2711 52.2877 20.5207 52.7651 19.6009C53.2417 18.6821 53.4918 17.7456 53.5155 16.7908L53.4804 14.5563C53.4804 13.626 53.2531 12.7063 52.7994 11.7988C52.3456 10.8913 51.6699 10.1462 50.7747 9.56436C49.8786 8.98249 48.7904 8.69199 47.5108 8.69199C46.2312 8.69199 45.2123 8.97108 44.3162 9.53013C43.4201 10.0883 42.733 10.8975 42.2564 11.9568C41.779 13.0161 41.5411 14.2667 41.5411 15.7095C41.5411 17.1523 41.7851 18.4328 42.274 19.4798C42.7628 20.5268 43.4491 21.3299 44.3338 21.8889C45.2175 22.4471 46.254 22.7271 47.4406 22.7271L47.4414 22.7253Z" fill="white"/>
<path d="M67.5846 25.7626C65.9092 25.7626 64.4716 25.3782 63.2728 24.6103C62.0739 23.8424 61.1603 22.755 60.5319 21.3464C59.9035 19.9387 59.5894 18.2914 59.5894 16.4062C59.5894 14.5211 59.8974 12.8395 60.5144 11.4318C61.1305 10.0241 62.0265 8.93056 63.2026 8.15035C64.3777 7.37101 65.8144 6.98047 67.5144 6.98047C69.2143 6.98047 70.7493 7.38769 71.913 8.20213C73.0768 9.01745 73.9202 10.1461 74.4441 11.588C74.9681 13.0317 75.1708 14.7071 75.055 16.6151H61.5798C61.6263 18.2905 61.894 19.6815 62.3829 20.7865C62.8717 21.8923 63.5641 22.7181 64.4602 23.2649C65.3563 23.8117 66.398 24.0855 67.5846 24.0855C69.0739 24.0855 70.2842 23.7134 71.2153 22.9683C72.1456 22.224 72.7398 21.2463 72.996 20.0361H74.9856C74.8224 21.2463 74.3976 22.2819 73.7113 23.1429C73.025 24.0039 72.1518 24.6559 71.0933 25.0983C70.034 25.5397 68.8642 25.7617 67.5846 25.7617V25.7626ZM61.6149 15.3592L61.3709 14.9748H73.3102L73.0662 15.4285C73.0891 13.8225 72.8679 12.5253 72.4028 11.5362C71.9367 10.5472 71.2855 9.82048 70.4474 9.35446C69.6093 8.88931 68.6325 8.65586 67.5152 8.65586C66.398 8.65586 65.3738 8.90599 64.5129 9.40624C63.6519 9.90736 62.9709 10.6516 62.4706 11.6407C61.9695 12.6298 61.6851 13.8699 61.6149 15.3583V15.3592Z" fill="white"/>
<path d="M88.1459 25.7637C87.0515 25.7637 86.0572 25.5829 85.1611 25.2222C84.2651 24.8615 83.5085 24.3613 82.8916 23.7215C82.2746 23.0817 81.8147 22.3313 81.5128 21.4695H81.3733L81.2688 25.4495H79.3135V0H81.3733V11.2407H81.5128C81.9543 9.9611 82.7573 8.9255 83.9219 8.13387C85.0856 7.34313 86.4934 6.94732 88.1459 6.94732C89.2632 6.94732 90.2865 7.16322 91.2176 7.59325C92.1479 8.02417 92.951 8.64641 93.6268 9.46085C94.3016 10.2762 94.8194 11.2644 95.1802 12.4281C95.5409 13.5919 95.7217 14.9065 95.7217 16.3731C95.7217 18.3284 95.4013 20.01 94.7615 21.4177C94.1208 22.8263 93.2309 23.9023 92.0909 24.6465C90.95 25.3916 89.6353 25.7637 88.1459 25.7637ZM87.5527 23.983C88.7629 23.983 89.8222 23.6864 90.7297 23.0931C91.6372 22.4998 92.341 21.6388 92.8421 20.5093C93.3424 19.3807 93.5925 18.0019 93.5925 16.3722C93.5925 15.1391 93.4468 14.0456 93.1563 13.0907C92.865 12.1367 92.4577 11.3399 91.9347 10.6992C91.4107 10.0594 90.7771 9.57055 90.032 9.23267C89.2869 8.89566 88.461 8.72627 87.5535 8.72627C86.2503 8.72627 85.133 9.02906 84.2019 9.63374C83.2707 10.2393 82.5669 11.0362 82.0894 12.0253C81.612 13.0144 81.3742 14.0675 81.3742 15.1848V17.5236C81.3742 18.6409 81.6129 19.6879 82.0894 20.6656C82.566 21.6432 83.2707 22.4401 84.2019 23.0571C85.1322 23.6741 86.2494 23.9821 87.5535 23.9821L87.5527 23.983Z" fill="white"/>
<path d="M100.015 25.4495V0H102.074V25.4495H100.015Z" fill="white"/>
<path d="M114.327 25.7626C112.652 25.7626 111.214 25.3782 110.015 24.6103C108.817 23.8424 107.903 22.755 107.275 21.3464C106.646 19.9387 106.332 18.2914 106.332 16.4062C106.332 14.5211 106.64 12.8395 107.257 11.4318C107.873 10.0241 108.769 8.93056 109.945 8.15035C111.12 7.37101 112.557 6.98047 114.257 6.98047C115.957 6.98047 117.492 7.38769 118.656 8.20213C119.819 9.01745 120.663 10.1461 121.187 11.588C121.711 13.0317 121.913 14.7071 121.798 16.6151H108.323C108.369 18.2905 108.637 19.6815 109.126 20.7865C109.614 21.8923 110.307 22.7181 111.203 23.2649C112.099 23.8117 113.141 24.0855 114.327 24.0855C115.817 24.0855 117.027 23.7134 117.958 22.9683C118.888 22.224 119.482 21.2463 119.739 20.0361H121.728C121.565 21.2463 121.14 22.2819 120.454 23.1429C119.767 24.0039 118.894 24.6559 117.836 25.0983C116.777 25.5397 115.607 25.7617 114.327 25.7617V25.7626ZM108.358 15.3592L108.114 14.9748H120.053L119.809 15.4285C119.832 13.8225 119.611 12.5253 119.145 11.5362C118.679 10.5472 118.028 9.82048 117.19 9.35446C116.352 8.88931 115.375 8.65586 114.258 8.65586C113.141 8.65586 112.116 8.90599 111.256 9.40624C110.395 9.90736 109.714 10.6516 109.213 11.6407C108.712 12.6298 108.428 13.8699 108.358 15.3583V15.3592Z" fill="white"/>
</g>
<defs>
<clipPath id="clip0_184_472">
<rect width="121.83" height="31.628" fill="white"/>
</clipPath>
</defs>
</svg>
