<svg width="187" height="45" viewBox="0 0 187 45" fill="none" xmlns="http://www.w3.org/2000/svg">
<g clip-path="url(#clip0_2392_3639)">
<path d="M44.38 0H0V44.38H44.38V0Z" fill="#1F1A17"/>
<path d="M91.6 0H47.22V44.38H91.6V0Z" fill="#1F1A17"/>
<path d="M138.82 0H94.44V44.38H138.82V0Z" fill="#1F1A17"/>
<path d="M186.04 0H141.66V44.38H186.04V0Z" fill="#1F1A17"/>
<path d="M31.5001 10.1002C32.5715 10.1002 33.4401 9.23165 33.4401 8.16021C33.4401 7.08878 32.5715 6.22021 31.5001 6.22021C30.4286 6.22021 29.5601 7.08878 29.5601 8.16021C29.5601 9.23165 30.4286 10.1002 31.5001 10.1002Z" fill="white"/>
<path d="M26.82 10.1002C27.8914 10.1002 28.76 9.23165 28.76 8.16021C28.76 7.08878 27.8914 6.22021 26.82 6.22021C25.7486 6.22021 24.88 7.08878 24.88 8.16021C24.88 9.23165 25.7486 10.1002 26.82 10.1002Z" fill="white"/>
<path d="M22.1399 10.1002C23.2114 10.1002 24.08 9.23165 24.08 8.16021C24.08 7.08878 23.2114 6.22021 22.1399 6.22021C21.0685 6.22021 20.2 7.08878 20.2 8.16021C20.2 9.23165 21.0685 10.1002 22.1399 10.1002Z" fill="white"/>
<path d="M17.47 10.1002C18.5415 10.1002 19.41 9.23165 19.41 8.16021C19.41 7.08878 18.5415 6.22021 17.47 6.22021C16.3986 6.22021 15.53 7.08878 15.53 8.16021C15.53 9.23165 16.3986 10.1002 17.47 10.1002Z" fill="white"/>
<path d="M31.5001 38.1598C32.5715 38.1598 33.4401 37.2912 33.4401 36.2198C33.4401 35.1484 32.5715 34.2798 31.5001 34.2798C30.4286 34.2798 29.5601 35.1484 29.5601 36.2198C29.5601 37.2912 30.4286 38.1598 31.5001 38.1598Z" fill="white"/>
<path d="M26.82 38.1598C27.8914 38.1598 28.76 37.2912 28.76 36.2198C28.76 35.1484 27.8914 34.2798 26.82 34.2798C25.7486 34.2798 24.88 35.1484 24.88 36.2198C24.88 37.2912 25.7486 38.1598 26.82 38.1598Z" fill="white"/>
<path d="M22.1399 38.1598C23.2114 38.1598 24.08 37.2912 24.08 36.2198C24.08 35.1484 23.2114 34.2798 22.1399 34.2798C21.0685 34.2798 20.2 35.1484 20.2 36.2198C20.2 37.2912 21.0685 38.1598 22.1399 38.1598Z" fill="white"/>
<path d="M17.47 38.1598C18.5415 38.1598 19.41 37.2912 19.41 36.2198C19.41 35.1484 18.5415 34.2798 17.47 34.2798C16.3986 34.2798 15.53 35.1484 15.53 36.2198C15.53 37.2912 16.3986 38.1598 17.47 38.1598Z" fill="white"/>
<path d="M26.82 24.13C27.8914 24.13 28.76 23.2614 28.76 22.19C28.76 21.1186 27.8914 20.25 26.82 20.25C25.7486 20.25 24.88 21.1186 24.88 22.19C24.88 23.2614 25.7486 24.13 26.82 24.13Z" fill="white"/>
<path d="M22.1399 24.13C23.2114 24.13 24.08 23.2614 24.08 22.19C24.08 21.1186 23.2114 20.25 22.1399 20.25C21.0685 20.25 20.2 21.1186 20.2 22.19C20.2 23.2614 21.0685 24.13 22.1399 24.13Z" fill="white"/>
<path d="M17.47 24.13C18.5415 24.13 19.41 23.2614 19.41 22.19C19.41 21.1186 18.5415 20.25 17.47 20.25C16.3986 20.25 15.53 21.1186 15.53 22.19C15.53 23.2614 16.3986 24.13 17.47 24.13Z" fill="white"/>
<path d="M12.79 10.1002C13.8614 10.1002 14.73 9.23165 14.73 8.16021C14.73 7.08878 13.8614 6.22021 12.79 6.22021C11.7185 6.22021 10.85 7.08878 10.85 8.16021C10.85 9.23165 11.7185 10.1002 12.79 10.1002Z" fill="white"/>
<path d="M12.79 28.8102C13.8614 28.8102 14.73 27.9416 14.73 26.8702C14.73 25.7987 13.8614 24.9302 12.79 24.9302C11.7185 24.9302 10.85 25.7987 10.85 26.8702C10.85 27.9416 11.7185 28.8102 12.79 28.8102Z" fill="white"/>
<path d="M12.79 24.13C13.8614 24.13 14.73 23.2614 14.73 22.19C14.73 21.1186 13.8614 20.25 12.79 20.25C11.7185 20.25 10.85 21.1186 10.85 22.19C10.85 23.2614 11.7185 24.13 12.79 24.13Z" fill="white"/>
<path d="M12.79 38.1598C13.8614 38.1598 14.73 37.2912 14.73 36.2198C14.73 35.1484 13.8614 34.2798 12.79 34.2798C11.7185 34.2798 10.85 35.1484 10.85 36.2198C10.85 37.2912 11.7185 38.1598 12.79 38.1598Z" fill="white"/>
<path d="M12.79 33.4801C13.8614 33.4801 14.73 32.6115 14.73 31.5401C14.73 30.4687 13.8614 29.6001 12.79 29.6001C11.7185 29.6001 10.85 30.4687 10.85 31.5401C10.85 32.6115 11.7185 33.4801 12.79 33.4801Z" fill="white"/>
<path d="M12.79 19.4498C13.8614 19.4498 14.73 18.5813 14.73 17.5098C14.73 16.4384 13.8614 15.5698 12.79 15.5698C11.7185 15.5698 10.85 16.4384 10.85 17.5098C10.85 18.5813 11.7185 19.4498 12.79 19.4498Z" fill="white"/>
<path d="M12.79 14.7799C13.8614 14.7799 14.73 13.9113 14.73 12.8399C14.73 11.7685 13.8614 10.8999 12.79 10.8999C11.7185 10.8999 10.85 11.7685 10.85 12.8399C10.85 13.9113 11.7185 14.7799 12.79 14.7799Z" fill="white"/>
<path d="M78.76 10.1002C79.8314 10.1002 80.7 9.23165 80.7 8.16021C80.7 7.08878 79.8314 6.22021 78.76 6.22021C77.6886 6.22021 76.82 7.08878 76.82 8.16021C76.82 9.23165 77.6886 10.1002 78.76 10.1002Z" fill="white"/>
<path d="M74.09 10.1002C75.1615 10.1002 76.03 9.23165 76.03 8.16021C76.03 7.08878 75.1615 6.22021 74.09 6.22021C73.0186 6.22021 72.15 7.08878 72.15 8.16021C72.15 9.23165 73.0186 10.1002 74.09 10.1002Z" fill="white"/>
<path d="M69.41 10.1002C70.4814 10.1002 71.35 9.23165 71.35 8.16021C71.35 7.08878 70.4814 6.22021 69.41 6.22021C68.3385 6.22021 67.47 7.08878 67.47 8.16021C67.47 9.23165 68.3385 10.1002 69.41 10.1002Z" fill="white"/>
<path d="M64.74 10.1002C65.8114 10.1002 66.68 9.23165 66.68 8.16021C66.68 7.08878 65.8114 6.22021 64.74 6.22021C63.6686 6.22021 62.8 7.08878 62.8 8.16021C62.8 9.23165 63.6686 10.1002 64.74 10.1002Z" fill="white"/>
<path d="M78.76 38.1598C79.8314 38.1598 80.7 37.2912 80.7 36.2198C80.7 35.1484 79.8314 34.2798 78.76 34.2798C77.6886 34.2798 76.82 35.1484 76.82 36.2198C76.82 37.2912 77.6886 38.1598 78.76 38.1598Z" fill="white"/>
<path d="M74.09 38.1598C75.1615 38.1598 76.03 37.2912 76.03 36.2198C76.03 35.1484 75.1615 34.2798 74.09 34.2798C73.0186 34.2798 72.15 35.1484 72.15 36.2198C72.15 37.2912 73.0186 38.1598 74.09 38.1598Z" fill="white"/>
<path d="M69.41 38.1598C70.4814 38.1598 71.35 37.2912 71.35 36.2198C71.35 35.1484 70.4814 34.2798 69.41 34.2798C68.3385 34.2798 67.47 35.1484 67.47 36.2198C67.47 37.2912 68.3385 38.1598 69.41 38.1598Z" fill="white"/>
<path d="M64.74 38.1598C65.8114 38.1598 66.68 37.2912 66.68 36.2198C66.68 35.1484 65.8114 34.2798 64.74 34.2798C63.6686 34.2798 62.8 35.1484 62.8 36.2198C62.8 37.2912 63.6686 38.1598 64.74 38.1598Z" fill="white"/>
<path d="M74.09 24.13C75.1615 24.13 76.03 23.2614 76.03 22.19C76.03 21.1186 75.1615 20.25 74.09 20.25C73.0186 20.25 72.15 21.1186 72.15 22.19C72.15 23.2614 73.0186 24.13 74.09 24.13Z" fill="white"/>
<path d="M69.41 24.13C70.4814 24.13 71.35 23.2614 71.35 22.19C71.35 21.1186 70.4814 20.25 69.41 20.25C68.3385 20.25 67.47 21.1186 67.47 22.19C67.47 23.2614 68.3385 24.13 69.41 24.13Z" fill="white"/>
<path d="M64.74 24.13C65.8114 24.13 66.68 23.2614 66.68 22.19C66.68 21.1186 65.8114 20.25 64.74 20.25C63.6686 20.25 62.8 21.1186 62.8 22.19C62.8 23.2614 63.6686 24.13 64.74 24.13Z" fill="white"/>
<path d="M167.53 24.13C168.601 24.13 169.47 23.2614 169.47 22.19C169.47 21.1186 168.601 20.25 167.53 20.25C166.459 20.25 165.59 21.1186 165.59 22.19C165.59 23.2614 166.459 24.13 167.53 24.13Z" fill="white"/>
<path d="M162.85 24.13C163.921 24.13 164.79 23.2614 164.79 22.19C164.79 21.1186 163.921 20.25 162.85 20.25C161.779 20.25 160.91 21.1186 160.91 22.19C160.91 23.2614 161.779 24.13 162.85 24.13Z" fill="white"/>
<path d="M158.17 24.13C159.241 24.13 160.11 23.2614 160.11 22.19C160.11 21.1186 159.241 20.25 158.17 20.25C157.099 20.25 156.23 21.1186 156.23 22.19C156.23 23.2614 157.099 24.13 158.17 24.13Z" fill="white"/>
<path d="M60.06 10.1002C61.1314 10.1002 62 9.23165 62 8.16021C62 7.08878 61.1314 6.22021 60.06 6.22021C58.9886 6.22021 58.12 7.08878 58.12 8.16021C58.12 9.23165 58.9886 10.1002 60.06 10.1002Z" fill="white"/>
<path d="M125.99 10.1002C127.061 10.1002 127.93 9.23165 127.93 8.16021C127.93 7.08878 127.061 6.22021 125.99 6.22021C124.919 6.22021 124.05 7.08878 124.05 8.16021C124.05 9.23165 124.919 10.1002 125.99 10.1002Z" fill="white"/>
<path d="M121.31 10.1002C122.381 10.1002 123.25 9.23165 123.25 8.16021C123.25 7.08878 122.381 6.22021 121.31 6.22021C120.239 6.22021 119.37 7.08878 119.37 8.16021C119.37 9.23165 120.239 10.1002 121.31 10.1002Z" fill="white"/>
<path d="M116.63 10.1002C117.701 10.1002 118.57 9.23165 118.57 8.16021C118.57 7.08878 117.701 6.22021 116.63 6.22021C115.559 6.22021 114.69 7.08878 114.69 8.16021C114.69 9.23165 115.559 10.1002 116.63 10.1002Z" fill="white"/>
<path d="M111.96 10.1002C113.031 10.1002 113.9 9.23165 113.9 8.16021C113.9 7.08878 113.031 6.22021 111.96 6.22021C110.889 6.22021 110.02 7.08878 110.02 8.16021C110.02 9.23165 110.889 10.1002 111.96 10.1002Z" fill="white"/>
<path d="M172.6 10.1002C173.671 10.1002 174.54 9.23165 174.54 8.16021C174.54 7.08878 173.671 6.22021 172.6 6.22021C171.529 6.22021 170.66 7.08878 170.66 8.16021C170.66 9.23165 171.529 10.1002 172.6 10.1002Z" fill="white"/>
<path d="M167.92 10.1002C168.991 10.1002 169.86 9.23165 169.86 8.16021C169.86 7.08878 168.991 6.22021 167.92 6.22021C166.849 6.22021 165.98 7.08878 165.98 8.16021C165.98 9.23165 166.849 10.1002 167.92 10.1002Z" fill="white"/>
<path d="M163.25 10.1002C164.321 10.1002 165.19 9.23165 165.19 8.16021C165.19 7.08878 164.321 6.22021 163.25 6.22021C162.179 6.22021 161.31 7.08878 161.31 8.16021C161.31 9.23165 162.179 10.1002 163.25 10.1002Z" fill="white"/>
<path d="M158.57 10.1002C159.641 10.1002 160.51 9.23165 160.51 8.16021C160.51 7.08878 159.641 6.22021 158.57 6.22021C157.499 6.22021 156.63 7.08878 156.63 8.16021C156.63 9.23165 157.499 10.1002 158.57 10.1002Z" fill="white"/>
<path d="M107.28 10.1002C108.351 10.1002 109.22 9.23165 109.22 8.16021C109.22 7.08878 108.351 6.22021 107.28 6.22021C106.209 6.22021 105.34 7.08878 105.34 8.16021C105.34 9.23165 106.209 10.1002 107.28 10.1002Z" fill="white"/>
<path d="M60.06 28.8102C61.1314 28.8102 62 27.9416 62 26.8702C62 25.7987 61.1314 24.9302 60.06 24.9302C58.9886 24.9302 58.12 25.7987 58.12 26.8702C58.12 27.9416 58.9886 28.8102 60.06 28.8102Z" fill="white"/>
<path d="M60.06 24.13C61.1314 24.13 62 23.2614 62 22.19C62 21.1186 61.1314 20.25 60.06 20.25C58.9886 20.25 58.12 21.1186 58.12 22.19C58.12 23.2614 58.9886 24.13 60.06 24.13Z" fill="white"/>
<path d="M60.06 38.1598C61.1314 38.1598 62 37.2912 62 36.2198C62 35.1484 61.1314 34.2798 60.06 34.2798C58.9886 34.2798 58.12 35.1484 58.12 36.2198C58.12 37.2912 58.9886 38.1598 60.06 38.1598Z" fill="white"/>
<path d="M167.53 38.1598C168.601 38.1598 169.47 37.2912 169.47 36.2198C169.47 35.1484 168.601 34.2798 167.53 34.2798C166.459 34.2798 165.59 35.1484 165.59 36.2198C165.59 37.2912 166.459 38.1598 167.53 38.1598Z" fill="white"/>
<path d="M162.85 38.1598C163.921 38.1598 164.79 37.2912 164.79 36.2198C164.79 35.1484 163.921 34.2798 162.85 34.2798C161.779 34.2798 160.91 35.1484 160.91 36.2198C160.91 37.2912 161.779 38.1598 162.85 38.1598Z" fill="white"/>
<path d="M158.17 38.1598C159.241 38.1598 160.11 37.2912 160.11 36.2198C160.11 35.1484 159.241 34.2798 158.17 34.2798C157.099 34.2798 156.23 35.1484 156.23 36.2198C156.23 37.2912 157.099 38.1598 158.17 38.1598Z" fill="white"/>
<path d="M153.5 38.1598C154.571 38.1598 155.44 37.2912 155.44 36.2198C155.44 35.1484 154.571 34.2798 153.5 34.2798C152.429 34.2798 151.56 35.1484 151.56 36.2198C151.56 37.2912 152.429 38.1598 153.5 38.1598Z" fill="white"/>
<path d="M60.06 33.4801C61.1314 33.4801 62 32.6115 62 31.5401C62 30.4687 61.1314 29.6001 60.06 29.6001C58.9886 29.6001 58.12 30.4687 58.12 31.5401C58.12 32.6115 58.9886 33.4801 60.06 33.4801Z" fill="white"/>
<path d="M60.06 19.4498C61.1314 19.4498 62 18.5813 62 17.5098C62 16.4384 61.1314 15.5698 60.06 15.5698C58.9886 15.5698 58.12 16.4384 58.12 17.5098C58.12 18.5813 58.9886 19.4498 60.06 19.4498Z" fill="white"/>
<path d="M60.06 14.7799C61.1314 14.7799 62 13.9113 62 12.8399C62 11.7685 61.1314 10.8999 60.06 10.8999C58.9886 10.8999 58.12 11.7685 58.12 12.8399C58.12 13.9113 58.9886 14.7799 60.06 14.7799Z" fill="white"/>
<path d="M153.5 19.4498C154.571 19.4498 155.44 18.5813 155.44 17.5098C155.44 16.4384 154.571 15.5698 153.5 15.5698C152.429 15.5698 151.56 16.4384 151.56 17.5098C151.56 18.5813 152.429 19.4498 153.5 19.4498Z" fill="white"/>
<path d="M153.5 14.7799C154.571 14.7799 155.44 13.9113 155.44 12.8399C155.44 11.7685 154.571 10.8999 153.5 10.8999C152.429 10.8999 151.56 11.7685 151.56 12.8399C151.56 13.9113 152.429 14.7799 153.5 14.7799Z" fill="white"/>
<path d="M116.63 28.8102C117.701 28.8102 118.57 27.9416 118.57 26.8702C118.57 25.7987 117.701 24.9302 116.63 24.9302C115.559 24.9302 114.69 25.7987 114.69 26.8702C114.69 27.9416 115.559 28.8102 116.63 28.8102Z" fill="white"/>
<path d="M116.63 24.13C117.701 24.13 118.57 23.2614 118.57 22.19C118.57 21.1186 117.701 20.25 116.63 20.25C115.559 20.25 114.69 21.1186 114.69 22.19C114.69 23.2614 115.559 24.13 116.63 24.13Z" fill="white"/>
<path d="M116.63 38.1598C117.701 38.1598 118.57 37.2912 118.57 36.2198C118.57 35.1484 117.701 34.2798 116.63 34.2798C115.559 34.2798 114.69 35.1484 114.69 36.2198C114.69 37.2912 115.559 38.1598 116.63 38.1598Z" fill="white"/>
<path d="M116.63 33.4801C117.701 33.4801 118.57 32.6115 118.57 31.5401C118.57 30.4687 117.701 29.6001 116.63 29.6001C115.559 29.6001 114.69 30.4687 114.69 31.5401C114.69 32.6115 115.559 33.4801 116.63 33.4801Z" fill="white"/>
<path d="M172.67 28.8102C173.741 28.8102 174.61 27.9416 174.61 26.8702C174.61 25.7987 173.741 24.9302 172.67 24.9302C171.599 24.9302 170.73 25.7987 170.73 26.8702C170.73 27.9416 171.599 28.8102 172.67 28.8102Z" fill="white"/>
<path d="M172.67 33.4801C173.741 33.4801 174.61 32.6115 174.61 31.5401C174.61 30.4687 173.741 29.6001 172.67 29.6001C171.599 29.6001 170.73 30.4687 170.73 31.5401C170.73 32.6115 171.599 33.4801 172.67 33.4801Z" fill="white"/>
<path d="M116.63 19.4498C117.701 19.4498 118.57 18.5813 118.57 17.5098C118.57 16.4384 117.701 15.5698 116.63 15.5698C115.559 15.5698 114.69 16.4384 114.69 17.5098C114.69 18.5813 115.559 19.4498 116.63 19.4498Z" fill="white"/>
<path d="M116.63 14.7799C117.701 14.7799 118.57 13.9113 118.57 12.8399C118.57 11.7685 117.701 10.8999 116.63 10.8999C115.559 10.8999 114.69 11.7685 114.69 12.8399C114.69 13.9113 115.559 14.7799 116.63 14.7799Z" fill="white"/>
</g>
<defs>
<clipPath id="clip0_2392_3639">
<rect width="186.04" height="44.38" fill="white"/>
</clipPath>
</defs>
</svg>
