<svg width="131" height="28" viewBox="0 0 131 28" fill="none" xmlns="http://www.w3.org/2000/svg">
<path d="M107.139 19.3907C106.575 25.0276 111.414 25.9784 114.002 25.9784C120.754 25.9784 121.654 22.6361 121.242 19.4233C121.091 18.178 119.141 16.408 117.903 15.7857L113.927 13.4261C112.989 12.8689 112.089 12.3768 112.089 11.2958C112.089 10.2473 112.989 9.78777 114.152 9.78777C115.84 9.78777 116.515 10.5743 116.403 12.6395H121.279C121.392 8.67341 119.217 6.51057 114.491 6.51057C109.802 6.51057 107.214 8.14879 107.214 11.0005C107.214 13.6554 108.789 15.3588 111.228 16.8342L113.89 18.4399C114.828 18.9978 116.217 19.5875 116.291 20.636C116.629 21.8162 115.652 22.7012 114.265 22.7012C113.141 22.7012 111.64 22.7996 112.014 19.3915H107.139V19.3907V19.3907ZM90.4844 19.3907C89.9229 25.0276 94.7609 25.9784 97.3489 25.9784C104.102 25.9784 105.001 22.6361 104.588 19.4233C104.438 18.178 102.487 16.408 101.25 15.7857L97.2743 13.4261C96.336 12.8689 95.4358 12.3768 95.4358 11.2958C95.4358 10.2473 96.336 9.78777 97.4987 9.78777C99.1865 9.78777 99.8623 10.5743 99.7496 12.6395H104.626C104.739 8.67341 102.564 6.51057 97.8375 6.51057C93.1485 6.51057 90.5606 8.14879 90.5606 11.0005C90.5606 13.6554 92.1357 15.3588 94.5738 16.8342L97.2379 18.4399C98.1745 18.9978 99.5633 19.5875 99.6378 20.636C99.9741 21.8162 99.0002 22.7012 97.6122 22.7012C96.4876 22.7012 94.9862 22.7996 95.3613 19.3915H90.4844V19.3907V19.3907ZM77.5074 13.8515V13.0983C77.5074 11.4267 77.394 9.78777 79.8329 9.78777C81.7823 9.78777 82.3463 10.3775 82.3835 12.2459V13.8515H77.5074ZM72.6305 18.2113C72.5179 23.6521 74.806 25.9784 80.4333 25.9784C85.4212 25.9784 87.3722 23.3561 87.1843 19.2265H82.3073C82.3827 21.5543 81.8577 22.7012 80.0573 22.7012C78.5939 22.7012 77.5439 22.2417 77.5066 19.8177V17.1302H87.258V14.6388C87.258 9.59169 86.5466 6.51202 79.7567 6.51202C74.9551 6.51202 72.4044 9.00196 72.6297 13.3617V18.2113H72.6305V18.2113ZM69.4057 0.90625H64.5288V25.4871H69.4057V0.90625ZM46.9001 25.4864H51.5501V23.5203H51.6263C52.7128 25.3554 54.0636 25.88 56.09 25.9777C60.215 25.9777 61.0406 22.7005 61.1533 19.7511V13.065C61.0398 7.98527 59.2394 6.57568 56.09 6.51057C54.0271 6.47728 52.7137 7.09957 51.739 8.87026H51.6636C51.7009 7.98527 51.7762 7.39552 51.7762 6.80508V0.906971H46.9001V25.4864V25.4864ZM51.7754 13.8848C51.7 12.4101 51.7754 9.78778 54.0636 9.78778C56.3525 9.78778 56.1265 11.5252 56.2763 13.3609V19.5224C56.1637 21.2924 55.6387 22.702 54.1398 22.702C52.5629 22.702 51.7762 21.555 51.7762 19.4247V13.8848H51.7754V13.8848ZM38.4597 17.7525C38.3471 19.5217 38.8722 22.7012 35.9844 22.7012C34.184 22.7012 33.6963 21.7511 33.6963 20.3408C33.6963 19.5543 33.8089 18.6375 34.5211 18.1128C35.7964 17.1946 37.2598 16.4739 38.4597 15.7525V17.7525V17.7525ZM43.7482 25.4864C43.4857 24.6347 43.3366 23.783 43.3366 22.8973V11.9839C43.4112 9.5584 42.9988 6.51129 36.3596 6.51129C30.2454 6.51129 28.9328 8.96865 28.97 12.4759H33.6209C33.5836 10.8037 33.9588 9.78777 36.1715 9.78777C37.485 9.78777 38.2345 9.91947 38.4597 10.7386C38.8721 12.2459 38.1227 13.065 36.0589 13.819C32.2338 15.1953 28.8202 16.2112 28.8202 20.4392C28.8202 24.241 30.5452 25.9777 34.4838 25.9777C36.1343 25.9777 37.6349 25.1253 38.7603 23.5847H38.8349C38.7603 24.2403 38.7976 24.8959 39.1338 25.4856H43.7482V25.4864V25.4864ZM19.4804 10.1156V25.4864H24.3565V10.1156H26.4567V7.00188H24.3565V4.83904C24.3565 4.41283 24.6563 4.11759 25.3693 4.11759C25.6691 4.11759 26.0823 4.21672 26.4567 4.31442V0.906251H24.619C21.0555 0.906251 19.4804 1.82376 19.4804 5.16683V7.00188H17.6047V10.1156H19.4804V10.1156Z" fill="white"/>
<path d="M4.88893 13.8522V13.0975C4.88893 11.426 4.77632 9.78843 7.21437 9.78843C9.16462 9.78843 9.72775 10.3774 9.76503 12.2458V13.8522H4.88893V13.8522ZM0.013668 18.2112C-0.0989418 23.6527 2.18921 25.9784 7.81558 25.9784C12.8043 25.9784 14.7546 23.3567 14.5674 19.2271H9.69133C9.76587 21.5542 9.24082 22.7012 7.44046 22.7012C5.97794 22.7012 4.92705 22.2424 4.88977 19.8169V17.1294H14.642V14.6395C14.642 9.59163 13.9298 6.51123 7.14067 6.51123C2.3391 6.51123 -0.211589 9.0026 0.013668 13.3616V18.2112V18.2112Z" fill="#CE181E"/>
<path d="M125.099 11.6994V12.8564H130.845V11.6994H127.065C126.433 11.6994 125.975 11.6733 125.965 11.1292C125.954 10.5944 126.382 10.559 126.892 10.559H130.845V9.40195H127.065C126.393 9.40195 125.995 9.31293 125.965 8.81437C125.934 8.30641 126.443 8.26083 126.963 8.26083H130.846V7.10449H126.168C125.558 7.10449 124.947 7.47858 124.947 8.33245C124.947 8.90265 125.191 9.26808 125.69 9.49891C125.15 9.57923 124.936 10.1487 124.947 10.5756C124.967 10.9504 125.059 11.4223 125.69 11.6806V11.698H125.099V11.6994V11.6994ZM130.999 15.6532C131.028 14.1575 130.174 13.9086 128.177 13.9173C126.209 13.9259 124.947 13.9346 124.947 15.6532C124.947 17.3971 126.209 17.4151 128.177 17.4238C130.174 17.4332 131.029 17.1749 130.999 15.6532ZM127.056 16.2675C126.515 16.2675 125.966 16.2675 125.966 15.6532C125.966 15.0728 126.515 15.0728 127.056 15.0728H128.972C129.675 15.0728 129.981 15.1177 129.981 15.6532C129.981 16.214 129.675 16.2675 128.972 16.2675H127.056ZM127.097 18.2712H126.637C125.782 18.2625 124.947 18.6894 124.947 19.8559C124.947 20.7372 125.374 21.4311 126.985 21.4225H128.85C130.379 21.4666 131 20.8798 131 19.8559C131 18.7068 130.338 18.2712 129.135 18.2712H128.606V19.4282H129.135C129.594 19.4637 129.971 19.4731 129.981 19.8298C129.93 20.1771 129.726 20.2929 128.606 20.2669H127.249C126.544 20.2763 125.965 20.2763 125.965 19.8298C125.965 19.5802 126.138 19.4463 126.454 19.4282H127.096V18.2712H127.097Z" fill="#939598"/>
<path d="M127.906 27.1628C128.792 27.1628 129.51 26.4446 129.51 25.5586C129.51 24.6726 128.792 23.9543 127.906 23.9543C127.02 23.9543 126.302 24.6726 126.302 25.5586C126.302 26.4446 127.02 27.1628 127.906 27.1628Z" stroke="#CE181E" stroke-width="1.441"/>
</svg>
