<svg width="125" height="50" viewBox="0 0 125 50" fill="none" xmlns="http://www.w3.org/2000/svg">
<g clip-path="url(#clip0_48_4391)">
<g clip-path="url(#clip1_48_4391)">
<path d="M93.2834 14.0844C93.3078 14.237 93.3799 14.3995 93.3494 14.54C92.8791 16.7521 92.3893 18.9605 91.919 21.1726C91.5074 23.1074 91.1202 25.0483 90.7134 26.9844C90.5216 27.8944 90.303 28.7971 90.1076 29.7058C89.7411 31.4037 89.3844 33.1028 89.0192 34.8006C88.9484 35.1316 88.8568 35.459 88.7676 35.812H84.0808C82.2364 30.8162 80.4762 25.7825 78.5463 20.7707C77.4787 25.7666 76.4111 30.7624 75.3289 35.8291C73.8766 35.8706 72.4657 35.8401 70.989 35.8511C70.989 35.6569 70.9658 35.5213 70.9926 35.3967C71.2944 33.9737 71.6071 32.5543 71.91 31.1313C72.3644 28.9986 72.809 26.8635 73.2658 24.7308C73.642 22.9743 74.0317 21.2202 74.4079 19.4625C74.6021 18.555 74.7719 17.6413 74.9698 16.7337C75.164 15.8482 75.3802 14.9663 75.5879 14.0831C77.2149 14.0831 78.8419 14.0831 80.4689 14.0831C80.7437 14.8624 81.0124 15.6454 81.2946 16.4223C82.0116 18.3937 82.7408 20.3603 83.4542 22.3318C84.0099 23.8696 84.545 25.4148 85.0983 26.9526C85.3206 27.5707 85.5649 28.1802 85.8251 28.8618C85.8788 28.7299 85.9179 28.6639 85.9326 28.5931C86.3588 26.541 86.7803 24.4877 87.2102 22.4356C87.6903 20.1478 88.1691 17.8587 88.6699 15.5746C88.781 15.0676 88.9777 14.5791 89.134 14.0819C90.5168 14.0819 91.8995 14.0819 93.2834 14.0819V14.0844Z" fill="white"/>
<path d="M46.7903 14.0844C46.8306 14.1295 46.8709 14.1747 46.9246 14.2346C46.6461 15.4878 46.3652 16.7569 46.0757 18.0639C45.785 18.0774 45.5456 18.0981 45.3074 18.0981C41.9728 18.1006 38.6381 18.0981 35.3035 18.1018C35.0653 18.1018 34.8283 18.125 34.5413 18.1397C34.2384 19.5773 33.944 20.9723 33.6301 22.4564H44.0102C44.1409 22.9901 43.6853 25.3806 43.2687 26.4604H32.8276C32.2828 28.234 32.0592 30.0332 31.6207 31.8251C31.8015 31.8556 31.9163 31.8935 32.0311 31.8923C34.3275 31.8715 36.6227 31.8422 38.9191 31.8251C40.2615 31.8153 41.6027 31.819 42.9451 31.8275C43.1539 31.8275 43.3628 31.8837 43.6413 31.9228C43.3543 33.2542 43.0843 34.5075 42.8205 35.7338C42.3319 35.8719 26.9657 35.9061 26.2084 35.7754C26.2084 35.6557 26.1852 35.5201 26.212 35.3955C26.4881 34.0714 26.7715 32.7485 27.0512 31.4245C27.414 29.7071 27.7657 27.9872 28.1371 26.271C28.5805 24.219 29.0483 22.1705 29.4905 20.1172C29.8984 18.2227 30.2869 16.3233 30.6863 14.4276C30.7107 14.3103 30.7645 14.1992 30.806 14.0856C36.1341 14.0856 41.4634 14.0856 46.7915 14.0856L46.7903 14.0844Z" fill="white"/>
<path d="M121.716 14.0844C121.653 14.2468 121.629 14.4422 121.523 14.5681C120.309 16.0009 119.076 17.419 117.861 18.8506C116.658 20.2687 115.473 21.7003 114.273 23.1208C113.87 23.5972 113.448 24.0577 113.002 24.5634C113.521 25.835 114.025 27.0858 114.544 28.3317C115.057 29.5617 115.613 30.7734 116.101 32.0132C116.588 33.2555 117.193 34.4562 117.594 35.8083H111.944C111.482 34.6638 111.105 33.4558 110.692 32.2612C110.279 31.0629 109.865 29.8659 109.441 28.6383C107.492 31.0421 105.558 33.4252 103.648 35.7803C102.783 35.9244 98.6237 35.8767 98.1534 35.6972C101.263 32.034 104.356 28.3903 107.462 24.732C107.112 23.8598 106.786 23.0353 106.447 22.2157C105.856 20.7781 105.262 19.3404 104.66 17.9076C104.269 16.978 103.852 16.0595 103.469 15.1263C103.333 14.794 103.265 14.4337 103.166 14.0856C104.997 14.0856 106.827 14.0856 108.658 14.0856C108.722 14.2126 108.801 14.3335 108.846 14.4667C109.367 15.9947 109.877 17.5265 110.4 19.0545C110.605 19.6543 110.831 20.2467 111.072 20.9088C112.185 19.4992 113.235 18.169 114.286 16.84C115.012 15.9215 115.74 15.0041 116.468 14.0856C118.217 14.0856 119.967 14.0856 121.716 14.0856V14.0844Z" fill="white"/>
<path d="M65.827 14.0844C65.8319 14.2212 65.8637 14.3641 65.8368 14.4948C65.6279 15.5025 65.4117 16.509 65.1906 17.5143C65.1528 17.6889 65.0856 17.8575 65.016 18.081H54.1766C53.7454 19.6335 53.5133 21.1811 53.1346 22.7825C53.815 22.835 54.4379 22.8033 55.0597 22.8094C55.69 22.8155 56.3202 22.8106 56.9505 22.8106H62.6243C62.4423 24.1799 62.1443 25.4404 61.7839 26.7401H52.2881C51.9583 28.2999 51.6786 29.8255 51.3049 31.3267C50.936 32.8084 50.7821 34.3401 50.3069 35.8096H45.6995C45.7154 35.5543 45.7032 35.3381 45.7471 35.1329C46.2882 32.6093 46.8404 30.0882 47.3827 27.5658C47.7699 25.769 48.1473 23.971 48.5284 22.1742C49.05 19.7056 49.5679 17.237 50.0956 14.7696C50.1457 14.5351 50.2507 14.3128 50.3301 14.0844C55.4957 14.0844 60.6614 14.0844 65.8282 14.0844H65.827Z" fill="white"/>
<path d="M72.2935 14.0844C72.2434 14.5387 72.2325 15.0017 72.1384 15.4475C71.568 18.1336 70.9743 20.8147 70.3953 23.4983C69.8457 26.0451 69.3021 28.5919 68.7598 31.1399C68.4715 32.4994 68.1942 33.8625 67.9084 35.222C67.8681 35.4138 67.8046 35.6007 67.746 35.812H63.1459C63.1593 35.5641 63.1434 35.3479 63.1862 35.1439C63.9997 31.3536 64.8278 27.5658 65.6352 23.7743C66.1617 21.3057 66.6503 18.8298 67.1768 16.3624C67.3404 15.5953 67.575 14.8429 67.7777 14.0831C69.2826 14.0831 70.7874 14.0831 72.2923 14.0831L72.2935 14.0844Z" fill="white"/>
<path d="M101.214 14.0844C101.162 14.463 101.134 14.8453 101.053 15.2179C100.518 17.7036 99.971 20.1869 99.4311 22.6726C99.0635 24.368 98.6946 26.0622 98.3403 27.76C98.0643 29.0829 97.8139 30.4106 97.5427 31.7347C97.4377 32.249 97.3045 32.7559 97.1897 33.2677C97.004 34.0934 96.822 34.9191 96.64 35.7375C96.2027 35.8755 92.6886 35.9036 91.9874 35.768C91.9874 35.6471 91.963 35.5091 91.9911 35.3833C92.2733 34.1032 92.5725 32.8255 92.851 31.5442C93.0782 30.4986 93.2749 29.4481 93.4972 28.4025C93.9516 26.2698 94.4194 24.1408 94.8726 22.0081C95.4015 19.5224 95.9206 17.0342 96.4458 14.5473C96.4788 14.3909 96.5325 14.2395 96.5765 14.0844C98.1217 14.0844 99.6681 14.0844 101.213 14.0844H101.214Z" fill="white"/>
<path d="M122.01 35.8486C120.331 35.9207 118.866 34.5306 118.917 32.7485C118.964 31.152 120.277 29.7388 122.119 29.7656C123.831 29.7913 125.184 31.025 125.176 32.9061C125.169 34.6943 123.553 35.9915 122.01 35.8498V35.8486ZM122.033 30.6023C120.94 30.4521 119.841 31.7017 119.89 32.8169C119.954 34.279 120.867 35.0436 122.147 35.0778C123.349 35.1096 124.302 33.9419 124.269 32.8108C124.232 31.5502 123.289 30.5962 122.033 30.6011V30.6023Z" fill="white"/>
<path d="M120.816 31.2986C121.454 31.2253 122.069 31.1191 122.686 31.3011C123.491 31.5393 123.682 32.0877 123.202 32.7742C123.169 32.8218 123.135 32.8694 123.124 32.8841C123.278 33.3654 123.422 33.8149 123.591 34.3401H122.684C122.403 33.9871 122.578 33.2505 121.767 33.3128C121.734 33.6732 121.704 34.0042 121.671 34.3768H120.816V31.2986ZM122.507 32.2379C122.331 31.9399 122.093 31.8923 121.768 32.0169V32.5958C122.142 32.6752 122.392 32.6032 122.507 32.2379Z" fill="white"/>
<path d="M3.97134 28.1618C2.96362 28.2461 2.21852 28.4379 1.70672 28.6223L4.79828 14H20.1596C20.1596 14 15.5387 14.3823 13.3926 16.3721C11.4028 18.2153 8.79741 25.8312 7.819 29.255C7.819 29.255 6.17733 27.9798 3.97134 28.1618ZM10.3438 31.5917C9.65733 31.2204 8.13659 30.4008 8.13659 30.4008C8.13659 30.4008 6.90167 34.7395 4.11181 34.7395C2.60084 34.7395 1.28531 33.2835 1.28531 33.2835L0.84558 32.6947L0.174988 35.8645H23.1657L23.9242 32.299C23.1901 32.7815 22.1372 33.2981 20.6738 33.6707C17.0741 34.588 11.7522 32.3515 10.3438 31.5917ZM1.89239 32.2843C3.74048 33.4105 5.81089 32.5103 7.10199 30.7196C7.22536 30.5486 7.3585 30.3715 7.4892 30.1235L7.50264 30.0966C6.32513 29.5555 5.04869 29.1195 3.97134 29.1769C2.49824 29.255 0.121243 31.2057 1.89239 32.2843ZM17.6495 17.3371C13.6455 18.3802 10.0971 25.3903 9.00383 28.229C9.00383 28.229 14.0534 23.2209 15.7659 22.7079C17.4772 22.1949 18.3591 23.7669 18.3591 23.7669C15.4642 23.6081 13.8849 24.8284 12.2371 26.1329C10.9008 27.192 9.42036 28.9069 8.91833 29.5054L9.00383 29.5555C9.00383 29.5555 13.5832 32.2953 19.0187 31.6956C21.9454 31.3731 23.4796 28.9167 24.0256 27.352C24.6766 25.4892 25.3533 20.6326 25.5243 19.6054C24.7756 18.5561 21.8953 16.2292 17.6495 17.3371Z" fill="url(#paint0_angular_48_4391)"/>
</g>
</g>
<defs>
<radialGradient id="paint0_angular_48_4391" cx="0" cy="0" r="1" gradientUnits="userSpaceOnUse" gradientTransform="translate(12.9396 25.0344) rotate(92.5329) scale(18.3064 18.4642)">
<stop offset="0.0220627" stop-color="#FAF5AB"/>
<stop offset="0.128635" stop-color="#F6B419"/>
<stop offset="0.227067" stop-color="#F6B419"/>
<stop offset="0.382092" stop-color="#FDF9A8"/>
<stop offset="0.41424" stop-color="#FDF9A8"/>
<stop offset="0.524451" stop-color="#F6AC19"/>
<stop offset="0.55" stop-color="#F6AC19"/>
<stop offset="0.732302" stop-color="#FAF3A6"/>
<stop offset="0.778584" stop-color="#FAF3A6"/>
<stop offset="0.857522" stop-color="#FDA203"/>
<stop offset="0.880144" stop-color="#FDA203"/>
<stop offset="0.987209" stop-color="#FAF5AB"/>
</radialGradient>
<clipPath id="clip0_48_4391">
<rect width="125" height="50" fill="white"/>
</clipPath>
<clipPath id="clip1_48_4391">
<rect width="125" height="21.8645" fill="white" transform="translate(0.174988 14)"/>
</clipPath>
</defs>
</svg>
