<svg width="125" height="50" viewBox="0 0 125 50" fill="none" xmlns="http://www.w3.org/2000/svg">
<path d="M103.901 14.2826C104.62 14.2132 106.324 14.2626 107.104 14.2633L112.975 14.2635C112.608 15.8424 112.023 18.1213 111.768 19.668C110.186 19.6505 108.604 19.6466 107.023 19.6564C106.077 19.6572 103.644 19.4324 103.033 20.113C102.844 20.3274 102.747 20.6082 102.761 20.8947C102.814 21.8445 104.279 22.8062 104.99 23.3586C105.413 23.6817 105.823 24.0222 106.219 24.379C106.842 24.9377 107.333 25.4386 107.887 26.0614C111.609 30.2477 108.736 35.8029 104.008 37.4721C102.822 37.8908 101.936 37.9978 100.683 38.0629C97.6907 38.092 94.6691 38.026 91.679 38.074C92.1332 36.3184 92.4636 34.348 92.9543 32.6369C95.5548 32.7062 98.207 32.6005 100.812 32.6405C101.921 32.6576 103.139 31.5023 102.268 30.4128C101.364 29.2833 100.073 28.471 99.004 27.5098C97.4224 26.063 95.6796 24.3542 95.5597 22.0674C95.468 20.3289 96.1022 18.6498 97.2163 17.344C99.0582 15.1852 101.185 14.4739 103.901 14.2826Z" fill="#0067B3"/>
<path d="M85.1742 14.2625C87.7392 14.2316 90.4974 14.3384 93.0412 14.2435C92.6624 16.2917 92.0238 18.7817 91.5548 20.8405L89.0377 31.9069C88.5741 33.9421 88.0632 36.0452 87.6401 38.0787C85.0953 38.0244 82.2729 38.0441 79.7213 38.0713C80.2381 36.1516 80.7234 33.7336 81.1712 31.768L83.8817 19.874C84.2806 18.121 84.7028 15.9491 85.1742 14.2625Z" fill="#0067B3"/>
<path d="M89.5461 4.85709C93.9791 4.61255 94.2706 10.6974 89.8829 11.5664C89.0549 11.67 88.2224 11.5294 87.5379 11.0266C86.8904 10.5477 86.4554 9.83041 86.3272 9.02994C86.1931 8.09622 86.4263 7.14646 86.9777 6.38492C87.6356 5.47643 88.468 5.02696 89.5461 4.85709Z" fill="#0067B3"/>
<path d="M17.4165 32.0576C17.6567 32.0465 17.8539 32.0348 18.0606 32.1798C18.2054 32.2833 18.304 32.4402 18.3354 32.6165C18.3702 32.8144 18.322 33.0339 18.2031 33.1954C18.0957 33.3409 17.9337 33.4351 17.7553 33.4558C17.4319 33.4947 17.2387 33.3358 17.0047 33.1506C16.7036 33.144 16.4028 33.1305 16.1025 33.1099C16.1629 33.9549 16.11 35.2799 16.1265 36.1886C15.5221 36.1275 14.6777 36.1469 14.0511 36.1462C13.8241 36.5451 13.7552 36.589 13.3367 36.7268C12.8541 36.6395 12.4304 36.4185 12.48 35.8391C12.5003 35.599 12.6173 35.3778 12.8036 35.2273C12.9633 35.0977 13.1686 35.0397 13.3717 35.067C13.7053 35.1151 13.8706 35.294 14.0539 35.5508C14.5384 35.5446 15.0229 35.546 15.5073 35.5549C15.456 34.6102 15.5062 33.5016 15.4688 32.5076C15.905 32.5348 16.4686 32.5305 16.9143 32.5382C17.0899 32.2959 17.1544 32.2013 17.4165 32.0576ZM13.4085 36.3517C13.5831 36.3082 13.7196 36.1707 13.7633 35.9945C13.807 35.8183 13.7509 35.632 13.6173 35.5104C13.4838 35.3887 13.2946 35.3516 13.1257 35.4138C12.883 35.5031 12.7519 35.7685 12.8272 36.0182C12.9024 36.2678 13.1578 36.4143 13.4085 36.3517ZM17.7856 33.1149C17.9723 33.0368 18.0675 32.8262 18.0038 32.6324C17.94 32.4387 17.7389 32.3276 17.5431 32.378C17.4033 32.4139 17.295 32.5258 17.2626 32.6678C17.2302 32.8099 17.2791 32.9583 17.3892 33.0525C17.4994 33.1466 17.6523 33.1708 17.7856 33.1149Z" fill="#0067B3"/>
<path d="M13.1256 35.4138C13.2946 35.3516 13.4837 35.3887 13.6173 35.5104C13.7508 35.632 13.807 35.8183 13.7633 35.9945C13.7195 36.1707 13.583 36.3082 13.4085 36.3517C13.1577 36.4143 12.9024 36.2678 12.8271 36.0182C12.7518 35.7685 12.883 35.5031 13.1256 35.4138Z" fill="#0067B3"/>
<path d="M13.1885 35.576C13.3485 35.5238 13.5207 35.6084 13.579 35.7677C13.6373 35.9271 13.5608 36.1045 13.4057 36.17C13.2994 36.2148 13.1774 36.1972 13.0878 36.1241C12.9982 36.051 12.9554 35.9342 12.9765 35.8197C12.9975 35.7053 13.0789 35.6118 13.1885 35.576Z" fill="#0067B3"/>
<path d="M22.3646 10.4747C22.5956 10.4755 22.7906 10.4918 22.9791 10.6427C23.1189 10.7569 23.2067 10.9235 23.2224 11.1043C23.2416 11.3052 23.1814 11.5056 23.055 11.6619C22.6828 12.1172 22.2344 11.878 21.8841 11.5712L20.9739 11.5543L20.9746 14.6169C20.3134 14.5781 19.5956 14.5829 18.9289 14.576C18.7317 14.9974 18.5405 15.0633 18.1149 15.1557C17.6371 15.0454 17.2609 14.7193 17.3691 14.1818C17.4158 13.9535 17.5498 13.7531 17.742 13.6241C17.9153 13.507 18.1285 13.4671 18.3318 13.5136C18.6628 13.5916 18.7822 13.7671 18.9438 14.0346C19.4015 14.0136 19.9354 14.0228 20.3994 14.0207C20.368 13.0276 20.3864 11.9335 20.3861 10.932C20.741 10.979 21.4226 10.9654 21.8027 10.9687C22.0068 10.684 22.0605 10.6344 22.3646 10.4747ZM18.2917 14.7848C18.4624 14.7398 18.5956 14.6047 18.6395 14.4321C18.6835 14.2594 18.6313 14.0762 18.5031 13.9536C18.3751 13.8309 18.1912 13.7882 18.0229 13.8418C17.7716 13.922 17.6294 14.1899 17.7023 14.4457C17.7752 14.7015 18.0367 14.852 18.2917 14.7848ZM22.6281 11.5618C22.8235 11.5048 22.9403 11.3029 22.8937 11.1029C22.8471 10.9028 22.6534 10.7748 22.4533 10.8119C22.3146 10.8375 22.2013 10.9383 22.1585 11.074C22.1156 11.2096 22.1502 11.3581 22.2485 11.4602C22.3467 11.5623 22.4926 11.6013 22.6281 11.5618Z" fill="#0067B3"/>
<path d="M18.0229 13.8419C18.1912 13.7882 18.375 13.831 18.5031 13.9536C18.6312 14.0762 18.6835 14.2594 18.6395 14.4321C18.5956 14.6048 18.4624 14.7398 18.2917 14.7848C18.0367 14.852 17.7752 14.7015 17.7023 14.4457C17.6294 14.1899 17.7716 13.922 18.0229 13.8419Z" fill="#0067B3"/>
<path d="M18.0949 14.0013C18.2653 13.9627 18.4347 14.07 18.4747 14.2417C18.5147 14.4135 18.4103 14.5857 18.2407 14.628C18.1294 14.6557 18.0121 14.6208 17.9333 14.5367C17.8545 14.4526 17.8264 14.3323 17.8599 14.2215C17.8933 14.1108 17.983 14.0267 18.0949 14.0013Z" fill="#0067B3"/>
<path d="M25.3023 39.4291C25.8271 39.4582 26.1375 39.9599 25.8445 40.3916C25.7582 40.5196 25.6232 40.6055 25.4718 40.6288C25.1792 40.6745 24.9901 40.5257 24.7686 40.3638C24.2935 40.3611 23.2139 40.3895 22.8102 40.3189C22.7161 40.6728 22.6141 40.9608 22.4905 41.3061C22.5215 41.3383 22.5517 41.3712 22.5811 41.405C22.9326 41.812 22.7999 42.1851 22.4335 42.5075C22.0592 42.6976 21.5501 42.5904 21.3643 42.1737C21.0864 41.5504 21.7908 41.3708 21.9825 40.925C22.1369 40.5658 22.271 40.1272 22.4147 39.7339C23.1723 39.7822 23.9693 39.7643 24.7311 39.7573C24.9671 39.5865 25.0326 39.5458 25.3023 39.4291ZM25.3891 40.312C25.4828 40.2987 25.5621 40.2353 25.5966 40.1462C25.6311 40.0571 25.6153 39.9562 25.5555 39.8821C25.4956 39.8081 25.4009 39.7724 25.3076 39.7888C25.1665 39.8135 25.0712 39.9481 25.0935 40.0909C25.1158 40.2338 25.2473 40.3323 25.3891 40.312Z" fill="#0067B3"/>
<path d="M20.918 38.8862C21.7257 39.0295 21.6343 39.7472 20.9586 40.1356C20.7268 40.5512 20.4144 41.3181 20.213 41.7775C19.3727 41.76 18.5321 41.7569 17.6917 41.7682C17.3469 42.1288 17.0925 42.1615 16.6675 41.9232C16.5529 41.7554 16.4466 41.5793 16.4653 41.3661C16.4793 41.2041 16.5604 41.0557 16.6885 40.9573C17.0862 40.6476 17.4858 40.8636 17.7501 41.2161C18.4352 41.2025 19.1205 41.1998 19.8056 41.2083C19.9435 40.8176 20.2734 40.2497 20.3498 39.8708C20.4601 39.3236 20.04 39.0561 20.918 38.8862ZM17.2523 41.7891C17.3795 41.739 17.4696 41.6228 17.4873 41.4861C17.5051 41.3493 17.4478 41.2136 17.3377 41.132C17.2276 41.0504 17.0823 41.0359 16.9585 41.094C16.7754 41.1802 16.6929 41.3976 16.7722 41.5854C16.8516 41.7731 17.0641 41.8633 17.2523 41.7891ZM21.0059 39.7378C21.1379 39.6733 21.194 39.5135 21.1315 39.3794C21.0691 39.2454 20.9114 39.1871 20.7782 39.2489C20.6907 39.2894 20.6316 39.3742 20.6232 39.471C20.6149 39.5678 20.6586 39.6617 20.7378 39.7169C20.8169 39.7721 20.9193 39.78 21.0059 39.7378Z" fill="#0067B3"/>
<path d="M16.9585 41.094C17.0823 41.0359 17.2276 41.0504 17.3377 41.132C17.4477 41.2136 17.5051 41.3493 17.4873 41.4861C17.4695 41.6228 17.3794 41.739 17.2523 41.7891C17.0641 41.8633 16.8516 41.7731 16.7722 41.5854C16.6929 41.3976 16.7753 41.1801 16.9585 41.094Z" fill="#0067B3"/>
<path d="M38.4036 30.8063C38.6837 30.8577 38.9227 31.0081 38.9735 31.3103C38.9983 31.4611 38.9639 31.6159 38.8776 31.7415C38.7906 31.8647 38.6579 31.947 38.5098 31.9697C38.2337 32.0141 38.0647 31.8609 37.8479 31.7047C36.788 31.6766 35.521 31.6766 34.4641 31.7087C34.3181 31.8153 34.1286 31.9189 33.9702 32.0112C33.8514 31.9995 33.786 31.9864 33.6795 31.9297C33.5377 31.8557 33.4322 31.726 33.388 31.571C33.3441 31.4215 33.3649 31.243 33.4447 31.1096C33.5207 30.9826 33.6468 30.8944 33.7912 30.8672C34.077 30.8111 34.2584 30.9504 34.4799 31.1039C35.5578 31.065 36.8192 31.191 37.8845 31.0264C37.9343 31.0188 38.3338 30.8371 38.4036 30.8063ZM34.0207 31.6457C34.1515 31.5929 34.2194 31.4467 34.176 31.3114C34.1326 31.176 33.9928 31.0978 33.8562 31.1326C33.7594 31.1572 33.6843 31.2342 33.6612 31.3324C33.6382 31.4305 33.6712 31.5334 33.7468 31.5993C33.8224 31.6652 33.928 31.6831 34.0207 31.6457Z" fill="#0067B3"/>
<path d="M21.5208 20.5467C22.4276 19.8902 23.0008 20.7618 22.3396 21.3929C21.7195 21.4421 21.8677 21.2519 21.4102 21.2052C20.5778 21.1203 19.6472 21.1605 18.8097 21.1883C18.5906 21.2103 18.266 21.455 18.0477 21.3999C17.3522 21.2245 17.5321 20.6172 17.9792 20.2868C18.3584 20.274 18.427 20.3541 18.7317 20.5761C19.3481 20.5196 20.8159 20.5641 21.5208 20.5467ZM18.2902 21.1037C18.4195 21.038 18.4733 20.8799 18.4113 20.7477C18.3492 20.6155 18.1941 20.5575 18.0619 20.6171C17.9735 20.657 17.9135 20.742 17.9049 20.8393C17.8963 20.9367 17.9406 21.031 18.0207 21.0859C18.1007 21.1408 18.2038 21.1476 18.2902 21.1037Z" fill="#0067B3"/>
<path d="M15.4163 43.1102C16.4045 43.2712 15.9367 43.9392 15.8018 44.598C15.7736 44.7358 15.7928 45.1565 15.797 45.3135C16.1726 45.7918 16.1791 46.1049 15.642 46.4157C14.3245 46.4938 15.3935 45.0083 15.184 44.3891C14.9765 43.7754 14.6036 43.4909 15.4163 43.1102ZM15.5528 46.1137C15.6957 46.0767 15.7819 45.9298 15.7454 45.7854C15.7089 45.6411 15.5636 45.5539 15.4207 45.5905C15.2775 45.6273 15.191 45.7743 15.2276 45.919C15.2641 46.0636 15.4098 46.1508 15.5528 46.1137Z" fill="#0067B3"/>
<path d="M17.3864 43.118C18.3251 43.3097 17.7983 44.0192 17.7074 44.6214C17.6801 44.8021 17.7059 45.1076 17.7169 45.2981C18.0778 45.8209 18.1438 46.214 17.4613 46.441C16.4551 46.3329 17.0306 45.4711 17.1253 44.7888C17.2374 43.982 16.2751 43.5182 17.3864 43.118ZM17.5397 43.9568C17.626 43.9097 17.6801 43.8189 17.6808 43.7198C17.6815 43.6207 17.6288 43.5291 17.5432 43.4808C17.4576 43.4324 17.3527 43.435 17.2696 43.4875C17.1465 43.5652 17.1067 43.7276 17.1796 43.8543C17.2526 43.9811 17.412 44.0264 17.5397 43.9568Z" fill="#0067B3"/>
<path d="M47.2741 22.7592C47.6636 22.7153 48.0173 22.9916 48.0735 23.3835C48.1296 23.7754 47.868 24.1417 47.4821 24.2112C47.2211 24.2583 46.9554 24.1579 46.789 23.9492C46.6226 23.7406 46.5819 23.4569 46.6829 23.2091C46.7839 22.9614 47.0105 22.7889 47.2741 22.7592ZM47.4331 23.8869C47.5841 23.856 47.7048 23.7413 47.7447 23.5909C47.7846 23.4405 47.7367 23.2803 47.6212 23.1772C47.5056 23.0742 47.3423 23.0461 47.1996 23.1048C47.0055 23.1846 46.9033 23.4005 46.9638 23.6033C47.0243 23.8061 47.2277 23.9289 47.4331 23.8869Z" fill="#0067B3"/>
<path d="M48.3604 19.9126C48.7427 19.803 49.1411 20.0246 49.254 20.4097C49.3668 20.7946 49.1521 21.1998 48.7724 21.3182C48.5228 21.3961 48.2511 21.3324 48.061 21.1515C47.8708 20.9705 47.7916 20.7003 47.8535 20.4439C47.9155 20.1875 48.1091 19.9846 48.3604 19.9126ZM48.666 21.007C48.8818 20.9481 49.0092 20.7232 48.9502 20.5054C48.8913 20.2875 48.6683 20.1595 48.4529 20.2198C48.2384 20.2798 48.1123 20.5038 48.171 20.7207C48.2298 20.9377 48.4512 21.0657 48.666 21.007Z" fill="#0067B3"/>
<path d="M45.4279 25.7437C45.8276 25.7054 46.1821 26.0025 46.2186 26.4065C46.2551 26.8106 45.9596 27.1676 45.5596 27.203C45.1617 27.2382 44.8106 26.9416 44.7743 26.5397C44.738 26.1377 45.0302 25.7819 45.4279 25.7437ZM45.6572 26.8486C45.7932 26.79 45.8871 26.6614 45.9022 26.5127C45.9174 26.3641 45.8517 26.2188 45.7304 26.1333C45.6091 26.0477 45.4514 26.0354 45.3186 26.1011C45.1204 26.1991 45.0356 26.4388 45.1274 26.6416C45.2193 26.8443 45.4543 26.9362 45.6572 26.8486Z" fill="#0067B3"/>
<path d="M44.5302 14.5361C44.9185 14.498 45.2669 14.7776 45.3182 15.1683C45.3695 15.5591 45.1054 15.9207 44.7207 15.9864C44.4595 16.031 44.195 15.9279 44.031 15.7176C43.8671 15.5074 43.8298 15.2235 43.9338 14.9772C44.0378 14.7311 44.2665 14.5619 44.5302 14.5361ZM44.7213 15.6513C44.8635 15.6051 44.9689 15.4833 44.9951 15.3346C45.0213 15.186 44.9641 15.0349 44.8463 14.9419C44.7287 14.8489 44.5697 14.8293 44.4333 14.8909C44.2376 14.9791 44.1444 15.2066 44.221 15.4088C44.2976 15.611 44.5172 15.7175 44.7213 15.6513Z" fill="#0067B3"/>
<path d="M49.4359 22.7601C49.8291 22.7208 50.1811 23.0073 50.2266 23.404C50.2722 23.8006 49.9946 24.1609 49.6029 24.2137C49.3435 24.2486 49.0857 24.1394 48.9284 23.9282C48.7712 23.7168 48.739 23.4363 48.8441 23.1942C48.9493 22.9521 49.1755 22.7862 49.4359 22.7601ZM49.6021 23.8796C49.746 23.8447 49.8592 23.7327 49.8969 23.5881C49.9345 23.4435 49.8904 23.2897 49.7822 23.1878C49.6739 23.0859 49.5189 23.0524 49.3789 23.1006C49.1756 23.1705 49.0627 23.3895 49.1224 23.5978C49.1821 23.8061 49.3934 23.9303 49.6021 23.8796Z" fill="#0067B3"/>
<path d="M42.1478 14.5866C42.3913 14.4902 42.6671 14.534 42.8696 14.7012C43.072 14.8683 43.1695 15.1327 43.1246 15.393C43.0797 15.6532 42.8995 15.8687 42.653 15.9567C42.2806 16.0898 41.8715 15.8966 41.7336 15.5226C41.5957 15.1486 41.7801 14.7321 42.1478 14.5866ZM42.5505 15.6486C42.6884 15.5989 42.7888 15.4775 42.8128 15.3314C42.8368 15.1854 42.7806 15.0377 42.666 14.9456C42.5513 14.8534 42.3962 14.8313 42.2608 14.8878C42.0584 14.9722 41.9595 15.2045 42.0382 15.411C42.1168 15.6175 42.3442 15.723 42.5505 15.6486Z" fill="#0067B3"/>
<path d="M45.2581 17.2222C45.5046 17.1364 45.7778 17.1913 45.9731 17.3658C46.1684 17.5404 46.2557 17.8076 46.2015 18.0653C46.1474 18.323 45.9602 18.5314 45.7116 18.6107C45.3339 18.7312 44.9305 18.5226 44.8065 18.1426C44.6824 17.7626 44.8836 17.3524 45.2581 17.2222ZM45.61 18.3123C45.8269 18.2494 45.9516 18.0201 45.8882 17.8014C45.8247 17.5826 45.5972 17.4577 45.381 17.523C45.1665 17.5878 45.044 17.8155 45.107 18.0327C45.17 18.2499 45.3948 18.3748 45.61 18.3123Z" fill="#0067B3"/>
<path d="M43.0978 17.226C43.3462 17.1379 43.6223 17.1931 43.8188 17.37C44.0154 17.5469 44.1014 17.8177 44.0433 18.0771C43.9852 18.3365 43.7924 18.5436 43.5396 18.6179C43.1633 18.7284 42.7683 18.5161 42.6486 18.1391C42.529 17.7621 42.7281 17.3572 43.0978 17.226ZM43.4883 18.2957C43.6955 18.2116 43.7963 17.974 43.7137 17.7645C43.631 17.5549 43.3962 17.4524 43.1885 17.5353C42.9802 17.6186 42.8783 17.857 42.9612 18.0673C43.0441 18.2777 43.2804 18.38 43.4883 18.2957Z" fill="#0067B3"/>
<path d="M47.5398 14.584C47.7895 14.4905 48.0699 14.5432 48.2695 14.7213C48.4692 14.8994 48.5558 15.1739 48.4949 15.436C48.4341 15.6979 48.2356 15.9049 47.9784 15.9746C47.6053 16.0757 47.2194 15.8627 47.1022 15.4908C46.9849 15.119 47.1776 14.7196 47.5398 14.584ZM47.975 15.6298C48.1675 15.532 48.2499 15.2985 48.1619 15.0998C48.074 14.901 47.8468 14.8073 47.6464 14.887C47.5083 14.9419 47.4113 15.069 47.3938 15.2179C47.3762 15.3667 47.4411 15.5133 47.5625 15.5993C47.684 15.6855 47.8425 15.6972 47.975 15.6298Z" fill="#0067B3"/>
<path d="M42.1879 25.7482C42.445 25.7054 42.7051 25.8057 42.8686 26.0108C43.032 26.216 43.0736 26.4941 42.9773 26.7388C42.8811 26.9835 42.6619 27.157 42.4037 27.1928C42.0119 27.2472 41.6495 26.9733 41.5905 26.5781C41.5314 26.1829 41.7976 25.8132 42.1879 25.7482ZM42.4667 26.8457C42.602 26.7871 42.6952 26.6589 42.7102 26.511C42.7252 26.363 42.6597 26.2185 42.5391 26.1334C42.4183 26.0482 42.2615 26.0359 42.1292 26.1011C41.9315 26.1986 41.8468 26.4376 41.9384 26.6398C42.0301 26.8419 42.2645 26.9333 42.4667 26.8457Z" fill="#0067B3"/>
<path d="M40.0016 14.5839C40.2519 14.4907 40.5326 14.5445 40.7318 14.7237C40.931 14.9029 41.0163 15.1785 40.9537 15.4405C40.891 15.7024 40.6907 15.9082 40.4324 15.9758C40.0596 16.0733 39.6766 15.8583 39.5617 15.4869C39.4467 15.1155 39.6402 14.7183 40.0016 14.5839ZM40.4278 15.6335C40.624 15.5389 40.7105 15.304 40.6233 15.1028C40.5362 14.9015 40.3067 14.8064 40.1048 14.8879C39.9682 14.9429 39.8721 15.0689 39.8542 15.2165C39.8364 15.364 39.8994 15.5097 40.0188 15.5965C40.1382 15.6833 40.295 15.6975 40.4278 15.6335Z" fill="#0067B3"/>
<path d="M47.5747 25.7498C47.9705 25.7079 48.3253 25.9976 48.3679 26.3975C48.4105 26.7973 48.1247 27.1566 47.7291 27.2007C47.3319 27.245 46.9747 26.955 46.9319 26.5535C46.8892 26.152 47.1773 25.7919 47.5747 25.7498ZM47.7291 26.8684C47.9425 26.8267 48.0841 26.621 48.0487 26.4044C48.0132 26.1878 47.8135 26.0392 47.5982 26.0692C47.4537 26.0893 47.3315 26.1871 47.279 26.3246C47.2264 26.4621 47.2519 26.6175 47.3455 26.7305C47.439 26.8436 47.586 26.8964 47.7291 26.8684Z" fill="#0067B3"/>
<path d="M50.5054 19.9196C50.886 19.8044 51.2871 20.0221 51.4021 20.4063C51.5172 20.7905 51.303 21.1963 50.9231 21.3137C50.5416 21.4316 50.1379 21.214 50.0224 20.8283C49.9068 20.4425 50.1233 20.0353 50.5054 19.9196ZM50.8114 21.0077C50.9517 20.971 51.0614 20.8608 51.0988 20.7194C51.136 20.5779 51.0951 20.4272 50.9915 20.3248C50.8879 20.2225 50.7378 20.1844 50.5987 20.2253C50.3879 20.2871 50.2654 20.5085 50.3235 20.7224C50.3817 20.9362 50.5989 21.0632 50.8114 21.0077Z" fill="#0067B3"/>
<path d="M47.4155 17.2274C47.6653 17.1405 47.9421 17.1987 48.1368 17.3791C48.3316 17.5595 48.413 17.8331 48.349 18.0921C48.2851 18.3511 48.086 18.5539 47.8302 18.6207C47.4556 18.7186 47.0714 18.4999 46.9599 18.1255C46.8484 17.7511 47.0496 17.3546 47.4155 17.2274ZM47.73 18.3137C47.8753 18.2852 47.9933 18.1782 48.037 18.0353C48.0808 17.8924 48.0432 17.7368 47.9392 17.6304C47.8352 17.5239 47.6816 17.4839 47.5397 17.5263C47.3341 17.5877 47.2125 17.8013 47.2633 18.0117C47.3142 18.2221 47.5196 18.355 47.73 18.3137Z" fill="#0067B3"/>
<path d="M25.3844 12.9387C25.6356 12.8526 25.9133 12.9128 26.1072 13.0957C26.3013 13.2784 26.3801 13.5541 26.3125 13.8133C26.2449 14.0725 26.0418 14.2731 25.7839 14.3356C25.4096 14.4263 25.0309 14.2035 24.924 13.8299C24.8172 13.4563 25.02 13.0638 25.3844 12.9387Z" fill="#0067B3"/>
<path d="M19.2022 45.1874C19.5216 45.0495 19.8915 45.1957 20.0335 45.5161C20.1754 45.8365 20.0369 46.2127 19.7222 46.3614C19.5139 46.4599 19.2692 46.4372 19.0822 46.3021C18.8951 46.1669 18.7947 45.9403 18.8196 45.7093C18.8445 45.4783 18.9907 45.2788 19.2022 45.1874ZM19.6208 46.1223C19.8021 46.033 19.8807 45.8145 19.7985 45.6283C19.7163 45.4422 19.5029 45.3554 19.316 45.4319C19.1892 45.4839 19.1006 45.6016 19.0848 45.7389C19.0691 45.8762 19.1287 46.0113 19.2404 46.0911C19.352 46.171 19.4979 46.183 19.6208 46.1223Z" fill="#0067B3"/>
<path d="M19.316 45.4319C19.5029 45.3553 19.7163 45.4422 19.7985 45.6283C19.8806 45.8145 19.8021 46.0329 19.6208 46.1223C19.4979 46.183 19.352 46.1709 19.2404 46.0911C19.1287 46.0112 19.0691 45.8762 19.0848 45.7389C19.1006 45.6016 19.1892 45.4839 19.316 45.4319Z" fill="#0067B3"/>
<path d="M25.4222 15.084C25.6221 15.0119 25.8451 15.0579 26.001 15.2033C26.1569 15.3488 26.22 15.5698 26.1647 15.7768C26.1095 15.9838 25.945 16.1428 25.7379 16.1893C25.4438 16.2554 25.1496 16.0789 25.0661 15.7865C24.9825 15.494 25.1385 15.1864 25.4222 15.084ZM25.7366 15.8588C25.8223 15.814 25.8774 15.7262 25.881 15.6288C25.8846 15.5315 25.836 15.4397 25.7539 15.3887C25.6718 15.3376 25.5688 15.3352 25.4845 15.3822C25.3564 15.4537 25.3089 15.6159 25.3779 15.7462C25.4469 15.8766 25.6067 15.9267 25.7366 15.8588Z" fill="#0067B3"/>
<path d="M21.1139 43.6316C21.2755 43.5522 21.4673 43.569 21.6129 43.6755C21.7586 43.7819 21.8345 43.9606 21.8105 44.1406C21.7865 44.3206 21.6664 44.4726 21.4981 44.5363C21.2542 44.6286 20.9816 44.511 20.8789 44.2691C20.7762 44.0273 20.8797 43.7466 21.1139 43.6316Z" fill="#0067B3"/>
<path d="M21.1672 45.329C21.4118 45.2409 21.6814 45.3654 21.7754 45.61C21.8694 45.8545 21.7537 46.1303 21.5144 46.2321C21.3536 46.3004 21.1686 46.2752 21.0315 46.166C20.8945 46.0569 20.8269 45.8811 20.8551 45.7071C20.8833 45.5331 21.0028 45.3883 21.1672 45.329Z" fill="#0067B3"/>
<path d="M20.724 24.9507C20.9551 24.8262 21.2422 24.9124 21.3687 25.1442C21.4951 25.3759 21.4138 25.6672 21.1863 25.7982C21.0362 25.8846 20.8517 25.8826 20.7036 25.7931C20.5553 25.7035 20.4662 25.5403 20.4705 25.3658C20.4747 25.1914 20.5716 25.0328 20.724 24.9507Z" fill="#0067B3"/>
<path d="M19.0778 10.3919C19.2344 10.3497 19.4014 10.3974 19.5129 10.5162C19.6245 10.635 19.6629 10.806 19.6129 10.9618C19.5629 11.1177 19.4327 11.2334 19.2734 11.2636C19.0394 11.3079 18.8128 11.1574 18.7602 10.9229C18.7076 10.6884 18.8479 10.4538 19.0778 10.3919Z" fill="#0067B3"/>
<path d="M20.8479 29.7285C20.9971 29.6678 21.1671 29.6941 21.2914 29.7971C21.4158 29.9 21.4747 30.0633 21.4453 30.2229C21.4158 30.3826 21.3025 30.5134 21.1498 30.5641C20.924 30.6391 20.6801 30.5195 20.5985 30.2939C20.517 30.0684 20.6274 29.8181 20.8479 29.7285Z" fill="#0067B3"/>
<path d="M36.3555 29.292C36.5887 29.229 36.8283 29.3687 36.891 29.6043C36.9537 29.8398 36.8157 30.0822 36.5827 30.1458C36.3491 30.2096 36.1088 30.0698 36.046 29.8338C35.9832 29.5978 36.1218 29.3551 36.3555 29.292Z" fill="#0067B3"/>
<path d="M20.8933 28.3366C21.111 28.2728 21.3405 28.3895 21.4196 28.6042C21.4986 28.8189 21.4004 29.0587 21.1943 29.1542C21.0468 29.2226 20.8738 29.2018 20.7463 29.1005C20.6187 28.999 20.558 28.8341 20.589 28.6732C20.62 28.5122 20.7375 28.3822 20.8933 28.3366Z" fill="#0067B3"/>
<path d="M19.0428 11.791C19.261 11.7085 19.5047 11.8155 19.5939 12.033C19.6831 12.2504 19.5859 12.5002 19.3739 12.598C19.23 12.6643 19.0618 12.6461 18.9351 12.5503C18.8085 12.4545 18.7437 12.2966 18.7661 12.1384C18.7885 11.9802 18.8946 11.847 19.0428 11.791Z" fill="#0067B3"/>
<path d="M36.3086 27.9407C36.5261 27.8532 36.7728 27.9579 36.8631 28.1762C36.9534 28.3944 36.8538 28.6454 36.6394 28.7403C36.4975 28.8031 36.333 28.7836 36.2093 28.6894C36.0855 28.5952 36.0217 28.4408 36.0423 28.2857C36.0628 28.1305 36.1647 27.9986 36.3086 27.9407Z" fill="#0067B3"/>
<path d="M21.9503 24.9555C22.1781 24.9094 22.4003 25.0563 22.4499 25.2855C22.4995 25.5148 22.3582 25.7419 22.1322 25.7961C21.9824 25.8321 21.8251 25.7835 21.7207 25.6691C21.6163 25.5548 21.5812 25.3923 21.6288 25.2444C21.6764 25.0964 21.7993 24.986 21.9503 24.9555Z" fill="#0067B3"/>
<path d="M38.4732 14.4965C38.6008 14.4994 38.6345 14.4958 38.7532 14.551C38.9126 14.8104 38.8357 15.67 38.8356 16.0214C38.7137 16.0283 38.6592 16.045 38.5586 15.9785C38.4073 15.7233 38.4752 14.8326 38.4732 14.4965Z" fill="#0067B3"/>
<path d="M46.0143 14.4922C46.1379 14.4977 46.1801 14.4935 46.2941 14.5525C46.4526 14.8075 46.3777 15.6503 46.3771 16.0055C46.2554 16.018 46.2057 16.0357 46.0987 15.9779C45.9455 15.723 46.0154 14.8276 46.0143 14.4922Z" fill="#0067B3"/>
<path d="M50.1205 17.1189C50.2311 17.1238 50.2558 17.1349 50.3605 17.1726C50.5503 17.424 50.4728 18.2839 50.4681 18.6616C50.3561 18.6764 50.302 18.6933 50.1984 18.6419C50.0441 18.3718 50.1159 17.5 50.1205 17.1189Z" fill="#0067B3"/>
<path d="M50.9723 22.7117L51.2086 22.7279L51.2517 22.783C51.2749 23.0755 51.3036 24.068 51.2094 24.3122C51.1584 24.2926 51.012 24.2282 50.9921 24.1864C50.8618 23.9132 50.8765 22.9769 50.9723 22.7117Z" fill="#0067B3"/>
<path d="M50.1204 25.7007C50.2481 25.7076 50.2762 25.7038 50.3798 25.7766C50.5625 26.0837 50.4748 26.8636 50.4445 27.2345C50.3383 27.2479 50.3237 27.2474 50.2195 27.2225C50.0461 26.9498 50.1167 26.0868 50.1204 25.7007Z" fill="#0067B3"/>
<path d="M51.1768 17.1154C51.2631 17.1301 51.3241 17.1553 51.406 17.1849C51.5766 17.4229 51.5015 18.3476 51.4957 18.7042C51.3266 18.6724 51.3353 18.7015 51.2306 18.5977C51.0846 18.203 51.1548 17.5514 51.1768 17.1154Z" fill="#0067B3"/>
<path d="M46.8895 19.81L47.0595 19.8579C47.1971 20.0817 47.1746 21.1995 46.9959 21.4446L46.8777 21.363C46.742 21.1472 46.7288 20.0268 46.8895 19.81Z" fill="#0067B3"/>
<path d="M49.101 17.1135C49.1453 17.1203 49.3085 17.1378 49.3201 17.1579C49.4735 17.4244 49.3957 18.4129 49.3864 18.7233C49.2768 18.6951 49.248 18.6825 49.1467 18.6314C48.9957 18.3465 49.0491 17.4391 49.101 17.1135Z" fill="#0067B3"/>
<path d="M49.2445 14.4743C49.3319 14.4848 49.3849 14.5018 49.4698 14.5257C49.6102 14.7704 49.5839 15.8118 49.4697 16.0763L49.2879 15.9898C49.1432 15.7228 49.2004 14.7872 49.2445 14.4743Z" fill="#0067B3"/>
<path d="M49.0993 25.6888C49.1701 25.6985 49.2528 25.7205 49.3238 25.7374C49.479 25.9635 49.3901 26.9615 49.376 27.2745C49.2662 27.2553 49.2476 27.2463 49.1475 27.1961C48.989 26.8994 49.0587 26.0323 49.0993 25.6888Z" fill="#0067B3"/>
<path d="M40.5658 25.6868C40.7296 25.7175 40.7739 25.6924 40.8513 25.7982C40.8747 26.1031 40.9012 27.0321 40.7927 27.2976L40.6086 27.2053C40.4707 26.9401 40.5201 25.9954 40.5658 25.6868Z" fill="#0067B3"/>
<path d="M45.5846 22.6936C45.694 22.7032 45.7121 22.7133 45.8123 22.7599C46.0104 23.0947 45.9166 23.8438 45.8928 24.2392C45.7842 24.2595 45.7763 24.2658 45.6794 24.2228C45.5252 23.9422 45.5823 23.0783 45.5846 22.6936Z" fill="#0067B3"/>
<path d="M43.7396 25.6821C43.8573 25.7021 43.8721 25.7078 43.9751 25.7689C44.1484 26.0808 44.0701 26.8503 44.0542 27.2323C43.9474 27.2403 43.9298 27.2346 43.8262 27.2058C43.6801 26.9652 43.7388 26.0278 43.7396 25.6821Z" fill="#0067B3"/>
<path d="M41.7132 17.0696C41.9737 17.2384 41.9316 18.5303 41.7669 18.7292L41.6551 18.6532C41.528 18.4335 41.5193 17.3 41.7132 17.0696Z" fill="#0067B3"/>
<path d="M32.4271 3H33.3444C33.5461 3.08171 35.7372 3.14905 36.1651 3.1953C41.2234 3.74201 46.2578 5.49016 49.9577 9.13793C50.5792 9.75054 51.122 10.2261 51.6816 10.9166C50.37 12.8517 49.3597 13.9047 46.9051 13.8714C43.3958 13.8238 39.8467 13.9354 36.3356 13.8599C36.1993 14.6212 35.812 16.4391 35.5816 17.1448C36.0328 17.1535 36.524 17.1423 36.9783 17.1403C38.3576 15.6196 39.3646 18.3137 37.6378 18.3269C37.3568 18.329 37.0977 17.9684 36.9502 17.7437L35.4428 17.7451C35.351 18.3209 35.2225 18.8902 35.0581 19.4494C37.4079 19.4158 39.7824 19.469 42.1312 19.4449C42.9977 19.4361 44.6516 19.5004 45.447 19.4057C45.0166 20.9735 44.6567 22.8922 44.269 24.5139C43.6533 24.4429 42.2053 24.4801 41.5327 24.4805L36.3769 24.4838C35.8189 24.4841 34.4074 24.5163 33.9378 24.4376L33.2988 27.2898C33.1814 27.806 33.0371 28.5131 32.8737 28.9978C33.392 28.9554 34.1457 28.973 34.6826 28.9711C34.6314 28.0541 34.663 26.863 34.647 25.9168C35.0866 25.9869 36.1831 25.9554 36.6784 25.9503C37.005 25.5124 37.6091 25.1118 38.0752 25.6687C38.5937 26.2881 38.1463 27.2064 37.2944 27.0034C36.9621 26.9242 36.8929 26.7844 36.7028 26.5171L35.2764 26.5131C35.2826 27.2714 35.2428 28.907 35.3139 29.5981C34.5104 29.5402 33.5852 29.587 32.7571 29.5575C32.6376 30.2556 32.2248 32.139 32.0135 32.7896L46.2584 32.7822C45.931 34.4615 45.3079 36.5934 45.0517 38.224C41.6464 38.1649 38.1278 38.2083 34.7162 38.2083L17.2432 38.1998C16.8897 38.7596 16.2087 39.0261 15.8096 38.3685C15.6764 38.1495 15.6363 37.8854 15.6982 37.6361C15.886 36.8974 16.8243 36.8966 17.2376 37.6234C18.7145 37.5353 21.0337 37.6034 22.5521 37.6112C22.6722 37.1468 22.803 36.6855 22.9444 36.2273C21.5683 36.2082 20.1625 36.2216 18.7841 36.2202C18.5305 36.5455 18.0566 36.9993 17.7071 36.6447C16.9666 35.8932 17.6522 34.6348 18.7337 35.6386C20.1913 35.6299 21.649 35.6315 23.1066 35.6436C23.1662 35.3033 23.3365 34.7513 23.4327 34.4035C22.4472 34.377 21.4244 34.3911 20.4361 34.3918C20.0788 34.6507 19.4704 34.9101 19.3217 34.2735C19.2834 34.1051 19.3133 33.9281 19.4048 33.782C19.4841 33.6567 19.6119 33.5707 19.7569 33.5451C20.0269 33.498 20.2044 33.6423 20.4111 33.7905C21.4267 33.7961 22.5943 33.7594 23.5941 33.818C23.9214 32.4259 24.5064 30.3064 24.925 28.9378L22.94 28.911C22.9779 29.8458 22.949 31.0132 22.9513 31.9657C22.267 31.9579 21.5674 31.9574 20.8852 31.924C20.2889 32.9411 19.1479 32.4372 19.3221 31.543C19.3696 31.2987 19.513 31.0842 19.7196 30.9485C20.1699 30.6583 20.6119 30.9425 20.8617 31.3496C21.3553 31.3482 21.8489 31.3517 22.3424 31.3602C22.2795 30.7567 22.3132 29.0235 22.3069 28.3219C23.1987 28.3361 24.2065 28.2908 25.0854 28.3504C25.1741 27.9371 25.3206 27.4378 25.4306 27.0229L20.412 27.0163C19.4712 28.3866 18.1263 26.7772 19.3212 25.9662C19.7483 25.6762 20.2009 26.0287 20.4277 26.4425C21.5949 26.4028 22.7902 26.4507 23.96 26.4307C24.4857 26.4217 25.0673 26.4182 25.5877 26.4584C25.7507 25.702 25.9234 24.9477 26.106 24.1959C23.7398 24.0695 21.2245 24.2618 18.8436 24.1745C18.5804 24.1754 17.7269 24.5581 17.5227 24.3565C16.8657 23.7083 17.596 22.9245 18.4093 23.5809C21.0063 23.589 23.657 23.5545 26.2484 23.5945C26.3728 22.9173 26.7667 21.1708 26.9549 20.5457L23.7235 20.5495C23.7585 21.2336 23.7362 22.1322 23.7395 22.8329C23.0733 22.8045 22.3643 22.8272 21.6833 22.8031C21.4979 23.0771 21.1538 23.4957 20.7912 23.3851C19.234 22.9096 20.6102 20.6771 21.7023 22.281C22.1462 22.2552 22.6934 22.2756 23.1449 22.2809C23.0808 21.6513 23.1186 20.6541 23.0978 19.9622C24.3597 19.9965 25.8497 19.8982 27.0835 19.9849C27.1219 19.6908 27.1634 19.4807 27.2283 19.1913L23.1909 19.184C22.4248 19.1832 21.6568 19.1741 20.8913 19.1996C20.5514 19.2109 20.4189 19.8282 20.018 19.8131C19.276 19.7852 18.8241 18.9216 19.4184 18.3641C19.581 18.2102 19.7996 18.1313 20.0219 18.1464C20.3634 18.168 20.5333 18.3566 20.744 18.5905C22.9249 18.5883 25.2226 18.5507 27.3942 18.5985C27.4632 18.0704 27.8405 16.5641 27.9788 15.9784C28.2938 14.6451 28.5834 13.1544 28.9334 11.8449C28.7319 11.8531 28.5074 11.8545 28.3053 11.8499C26.9422 11.8188 25.5312 11.9072 24.1728 11.8342C23.9146 12.9062 23.5712 14.0502 23.2829 15.1253C24.1924 16.4739 22.419 17.0822 21.9301 16.0629C21.7046 15.5928 22.17 15.0921 22.6744 14.9199C23.0325 13.8609 23.4138 12.3391 23.7257 11.2268C24.1867 11.2739 24.9444 11.2428 25.4272 11.248C26.6412 11.2611 27.8684 11.2239 29.0825 11.2617C29.1143 10.9575 29.1452 10.8314 29.2271 10.5359C28.1091 10.4831 26.7181 10.5104 25.59 10.5272C24.0803 11.6328 24.1402 8.87044 25.5644 9.91861C26.8259 9.94408 28.1099 9.91537 29.3779 9.93142C29.4058 9.72801 29.4678 9.48051 29.513 9.2766C27.0164 9.21531 24.216 9.26679 21.71 9.27735C19.8733 10.6089 20.0877 7.06619 21.7135 8.48131L37.154 8.48694L40.9805 8.48655C41.8615 8.4863 42.921 8.54241 43.7707 8.37258C44.0259 8.32161 44.1787 8.17277 44.3137 7.95557C44.3491 7.49053 43.1877 7.0341 42.8152 6.85645C40.532 5.76737 38.127 4.91701 35.634 4.48195C32.2966 3.89952 28.8511 4.48063 25.5967 5.27274C24.848 5.45631 23.6602 5.77986 22.9616 6.07657C22.1153 6.43604 20.9922 7.13744 20.2512 7.68495C19.3111 8.37946 18.0815 9.35608 17.3058 10.2179C15.152 12.6106 14.3319 15.977 14.1946 19.137C14.1388 20.423 14.1185 22.2323 14.4227 23.5096C14.8167 25.1632 16.3208 27.1177 16.0799 28.8648C15.9494 29.6032 15.5836 30.1547 14.9699 30.5697C14.6869 30.7611 13.5368 31.3857 13.3028 31.0054C13.4729 30.8788 13.5998 30.8631 13.7406 30.7699C14.545 30.2376 15.1148 29.7251 15.3716 28.7878C15.0688 27.5202 14.2482 26.6879 13.7234 25.5673C11.7889 21.4367 11.3094 16.0587 13.6829 12.0257C17.0643 6.28046 23.8349 3.67313 30.1429 3.14024C30.7079 3.09252 31.9529 3.1437 32.4271 3ZM22.6119 15.2887C22.4412 15.3338 22.3079 15.4687 22.2635 15.6413C22.2192 15.8139 22.2706 15.9973 22.398 16.1207C22.5254 16.2441 22.7089 16.2882 22.8777 16.2361C23.1315 16.1578 23.2766 15.8888 23.2042 15.6308C23.1319 15.3729 22.8686 15.2208 22.6119 15.2887ZM16.5637 38.3867C16.8159 38.3351 16.9847 38.0939 16.9485 37.8364C16.9123 37.579 16.6837 37.3947 16.4273 37.4162C16.2475 37.4313 16.0908 37.5457 16.0203 37.7135C15.9497 37.8812 15.9769 38.0746 16.0909 38.2158C16.2049 38.357 16.3869 38.4228 16.5637 38.3867ZM37.6168 26.6987C37.8688 26.632 38.0236 26.3761 37.9673 26.1191C37.911 25.8622 37.6638 25.6961 37.4075 25.7431C37.2328 25.7752 37.0894 25.9012 37.0338 26.0715C36.9781 26.242 37.0192 26.4295 37.1408 26.5602C37.2624 26.691 37.445 26.7442 37.6168 26.6987ZM20.9506 23.034C21.2171 23.0013 21.4061 22.7553 21.3714 22.4863C21.3368 22.2172 21.0917 22.0284 20.8258 22.0657C20.563 22.1025 20.3788 22.3465 20.4131 22.6123C20.4473 22.8781 20.6872 23.0663 20.9506 23.034ZM20.1172 19.4159C20.3709 19.3387 20.5157 19.0694 20.4419 18.8122C20.3679 18.5551 20.1029 18.4061 19.8477 18.4782C19.5889 18.5513 19.4389 18.8238 19.5138 19.0845C19.5887 19.3453 19.8598 19.4942 20.1172 19.4159ZM18.0602 35.615C17.8518 35.624 17.69 35.8016 17.6982 36.0122C17.7065 36.2228 17.8819 36.3869 18.0903 36.3792C18.2997 36.3714 18.4629 36.1933 18.4546 35.9818C18.4462 35.7703 18.2695 35.6059 18.0602 35.615ZM37.6365 17.0333C37.3871 17.0981 37.2326 17.35 37.2862 17.6045C37.3397 17.859 37.5823 18.0257 37.8362 17.9824C38.0103 17.9527 38.1543 17.829 38.2113 17.6601C38.2682 17.4912 38.2289 17.3044 38.1089 17.1735C37.9888 17.0426 37.8075 16.9888 37.6365 17.0333ZM19.9497 31.222C19.7823 31.2821 19.6611 31.4301 19.634 31.6075C19.6069 31.7848 19.6783 31.9629 19.82 32.0711C19.9616 32.1794 20.1506 32.2004 20.3122 32.1258C20.5473 32.0171 20.656 31.7407 20.5589 31.4986C20.4618 31.2565 20.1933 31.1346 19.9497 31.222ZM20.9331 8.51161C20.8055 8.56518 20.7167 8.68457 20.7013 8.82335C20.686 8.96217 20.7464 9.09841 20.8592 9.17913C20.972 9.25986 21.1193 9.27232 21.2438 9.21162C21.429 9.12133 21.5094 8.89854 21.4253 8.70899C21.3411 8.51943 21.123 8.43193 20.9331 8.51161ZM19.5409 26.239C19.2841 26.3019 19.125 26.5616 19.1838 26.8218C19.2426 27.0821 19.4976 27.2462 19.7559 27.1902C19.9261 27.1533 20.0634 27.0267 20.1154 26.859C20.1674 26.6911 20.126 26.508 20.007 26.3797C19.8881 26.2513 19.71 26.1976 19.5409 26.239Z" fill="#0067B3"/>
<path d="M22.6119 15.2887C22.8686 15.2208 23.1319 15.3729 23.2042 15.6308C23.2766 15.8888 23.1315 16.1578 22.8777 16.2361C22.7089 16.2882 22.5254 16.2441 22.398 16.1207C22.2706 15.9973 22.2192 15.8139 22.2635 15.6413C22.3079 15.4687 22.4412 15.3338 22.6119 15.2887Z" fill="#0067B3"/>
<path d="M22.6228 15.4814C22.729 15.4428 22.8475 15.465 22.933 15.5394C23.0185 15.6139 23.0576 15.7291 23.0354 15.8409C23.0132 15.9527 22.9331 16.0438 22.8259 16.0792C22.6634 16.1329 22.4883 16.0448 22.4329 15.8814C22.3773 15.718 22.462 15.5399 22.6228 15.4814Z" fill="#0067B3"/>
<path d="M16.4273 37.4163C16.6837 37.3948 16.9123 37.579 16.9485 37.8365C16.9847 38.0939 16.8159 38.3352 16.5637 38.3867C16.3869 38.4228 16.2049 38.357 16.0909 38.2158C15.9769 38.0746 15.9497 37.8812 16.0203 37.7135C16.0908 37.5458 16.2475 37.4314 16.4273 37.4163Z" fill="#0067B3"/>
<path d="M16.2885 37.6568C16.3842 37.5914 16.5076 37.5841 16.6102 37.6377C16.7128 37.6914 16.7782 37.7973 16.7807 37.914C16.7831 38.0308 16.7223 38.1395 16.622 38.1975C16.4748 38.2827 16.2873 38.235 16.1975 38.0895C16.1078 37.944 16.1479 37.7529 16.2885 37.6568Z" fill="#0067B3"/>
<path d="M37.4075 25.7431C37.6638 25.6961 37.911 25.8622 37.9672 26.1191C38.0236 26.3761 37.8688 26.632 37.6168 26.6987C37.445 26.7442 37.2624 26.691 37.1408 26.5602C37.0192 26.4295 36.9781 26.242 37.0337 26.0715C37.0894 25.9012 37.2328 25.7752 37.4075 25.7431Z" fill="#0067B3"/>
<path d="M37.3376 25.9474C37.4903 25.868 37.6777 25.9286 37.7563 26.0828C37.8349 26.237 37.7749 26.4264 37.6223 26.5058C37.4696 26.5853 37.2822 26.5246 37.2036 26.3704C37.125 26.2162 37.185 26.0268 37.3376 25.9474Z" fill="#0067B3"/>
<path d="M20.8258 22.0657C21.0917 22.0284 21.3367 22.2172 21.3714 22.4862C21.4061 22.7552 21.217 23.0012 20.9505 23.034C20.6872 23.0663 20.4473 22.8781 20.413 22.6123C20.3788 22.3465 20.563 22.1025 20.8258 22.0657Z" fill="#0067B3"/>
<path d="M20.7542 22.2616C20.8999 22.1891 21.0761 22.2409 21.1605 22.3811C21.2449 22.5211 21.2094 22.7032 21.0788 22.8005C20.9834 22.8716 20.8563 22.8822 20.7506 22.8278C20.6449 22.7735 20.5787 22.6634 20.5794 22.5436C20.5802 22.4238 20.6479 22.3146 20.7542 22.2616Z" fill="#0067B3"/>
<path d="M19.8477 18.4782C20.1029 18.4061 20.3679 18.5551 20.4418 18.8122C20.5157 19.0693 20.3709 19.3386 20.1171 19.4159C19.8598 19.4941 19.5887 19.3453 19.5137 19.0845C19.4388 18.8237 19.5888 18.5513 19.8477 18.4782Z" fill="#0067B3"/>
<path d="M19.9173 18.6392C20.0707 18.6045 20.226 18.6887 20.2822 18.837C20.3384 18.9852 20.2785 19.1527 20.1414 19.2304C20.0331 19.2918 19.8993 19.2836 19.7992 19.2094C19.6991 19.1352 19.6512 19.0087 19.6766 18.8859C19.702 18.7631 19.7961 18.6666 19.9173 18.6392Z" fill="#0067B3"/>
<path d="M19.9496 31.222C20.1933 31.1346 20.4618 31.2565 20.5589 31.4986C20.656 31.7407 20.5472 32.0171 20.3121 32.1258C20.1506 32.2003 19.9616 32.1794 19.8199 32.0711C19.6783 31.9629 19.6069 31.7848 19.634 31.6075C19.661 31.4301 19.7822 31.2821 19.9496 31.222Z" fill="#0067B3"/>
<path d="M19.9957 31.3821C20.1501 31.3199 20.3257 31.3898 20.3966 31.5418C20.4674 31.6938 20.4089 31.8752 20.2632 31.9559C20.1606 32.0126 20.0354 32.0071 19.9381 31.9418C19.8407 31.8764 19.7873 31.7618 19.7994 31.6443C19.8115 31.5269 19.8871 31.4259 19.9957 31.3821Z" fill="#0067B3"/>
<path d="M19.5408 26.239C19.71 26.1975 19.8881 26.2513 20.007 26.3797C20.126 26.508 20.1674 26.6911 20.1154 26.8589C20.0634 27.0267 19.9261 27.1533 19.7559 27.1902C19.4975 27.2462 19.2426 27.0821 19.1838 26.8218C19.125 26.5616 19.2841 26.3018 19.5408 26.239Z" fill="#0067B3"/>
<path d="M19.5904 26.4016C19.7051 26.3817 19.8214 26.427 19.8931 26.5196C19.9648 26.6121 19.9804 26.7371 19.9337 26.8448C19.887 26.9525 19.7855 27.0255 19.6695 27.035C19.501 27.0488 19.3515 26.9261 19.3303 26.7565C19.3092 26.587 19.4237 26.4306 19.5904 26.4016Z" fill="#0067B3"/>
<path d="M37.6365 17.0332C37.8075 16.9887 37.9888 17.0426 38.1089 17.1735C38.2289 17.3044 38.2682 17.4912 38.2113 17.6601C38.1543 17.829 38.0103 17.9527 37.8362 17.9824C37.5823 18.0257 37.3397 17.859 37.2862 17.6045C37.2326 17.35 37.3871 17.0981 37.6365 17.0332Z" fill="#0067B3"/>
<path d="M37.686 17.1946C37.8516 17.1595 38.0142 17.2658 38.0504 17.4328C38.0865 17.5998 37.9826 17.7651 37.8177 17.803C37.6507 17.8414 37.4847 17.7349 37.4481 17.5659C37.4116 17.3969 37.5184 17.2301 37.686 17.1946Z" fill="#0067B3"/>
<path d="M61.2425 28.8592C59.5412 27.9802 58.7221 26.8972 58.1346 25.0876C56.6803 20.6078 59.5441 16.1265 63.8591 14.8005C66.5444 13.9753 69.098 14.2957 71.8583 14.238C74.8897 14.1853 78.0337 14.3117 81.0577 14.218C80.7101 15.8034 80.2302 17.6732 79.9348 19.2405C78.9026 19.2253 77.8704 19.225 76.8382 19.2396C78.0208 24.3933 75.5639 28.5665 70.3748 29.7682C69.533 29.9606 68.6754 30.0778 67.8128 30.1183C66.7141 30.1786 64.0017 29.8802 63.3645 30.9528C62.352 32.6579 65.2222 32.8301 66.1711 33.0986C68.2902 33.5301 70.0306 33.7629 72.0373 34.5993C75.7898 36.163 76.6513 39.5692 74.7211 43.0593C73.7589 44.7997 71.4652 45.8964 69.5793 46.3804C68.8149 46.5744 68.0387 46.7189 67.256 46.8128C66.901 46.8543 65.7785 46.913 65.5359 47H62.029L62.0113 46.9955C61.4599 46.8559 60.6204 46.8882 60.0473 46.824C58.0232 46.5972 54.9523 46.1116 53.8679 44.1538C52.4725 41.6344 53.6488 38.8222 56.074 37.5374C57.0149 37.0388 57.6051 36.7739 58.5833 36.4497C57.6763 35.8441 56.5381 35.0371 56.3274 33.8753C56.1558 32.9291 56.3035 31.8197 56.8456 31.0119C57.7344 29.6872 59.7234 29.0149 61.2425 28.8592ZM67.1993 25.8767C68.1339 25.7362 68.6537 25.4611 69.2583 24.6932C70.6559 22.9178 71.4184 18.1702 67.8478 18.5151C66.9942 18.5951 66.3037 18.8998 65.7588 19.6017C64.192 21.6194 63.4883 25.9683 67.1993 25.8767ZM66.0626 42.6536C67.1485 42.5413 70.0858 41.8771 68.3272 39.9402C67.8474 39.4122 63.5859 38.8314 62.6977 38.7805C62.029 38.9683 61.5802 39.2345 60.9823 39.5059C59.8442 40.0224 59.2681 41.5514 60.6473 42.16C62.1222 42.8108 64.4771 42.7888 66.0626 42.6536Z" fill="#0067B3"/>
<path d="M52.4545 11.8171C53.8548 13.1178 54.5293 15.111 54.6271 16.9766C54.7454 19.113 53.9004 21.0512 53.2196 23.0188C53.0083 23.6294 53.1669 23.9063 53.3845 24.447C53.8918 25.708 56.0945 27.6944 56.3982 28.8443C56.2139 29.4535 56.0052 29.6917 55.4501 30.0245C54.2761 30.7282 52.2611 30.0978 51.7585 31.642C51.3765 32.8156 52.2978 33.3556 52.164 34.3253C51.9778 35.3535 50.611 35.8591 50.3374 36.802C50.1189 37.6738 50.0891 38.6599 50.1542 39.5372C50.2155 40.3623 50.606 41.7532 49.9789 42.4216C46.512 46.1173 41.2953 40.1519 37.4396 40.6603C35.8785 40.8662 33.8118 43.8323 34.7966 45.268C35.3959 46.1784 35.8262 46.4087 36.6642 47H30.2064C30.9191 44.5661 32.6028 40.7963 34.8803 39.5366C37.2683 38.2158 41.0472 40.3903 43.2912 41.3471C44.526 41.8735 46.6543 43.2435 47.9582 42.5353C48.5568 42.2032 48.9984 41.6421 49.1838 40.978C49.6475 39.3616 48.8225 37.3225 49.7665 35.8239C50.1489 35.217 50.7774 34.9115 51.2021 34.34C51.211 33.4083 51.0276 32.114 51.1682 31.2497C51.4742 29.3695 54.4075 30.0711 55.5443 28.8621C54.5854 27.5684 52.2341 25.0301 52.5038 23.3375C53.0927 19.6424 55.0553 15.8719 51.2052 13.1483C51.7364 12.6624 52.0526 12.4147 52.4545 11.8171Z" fill="#0067B3"/>
</svg>
