<svg width="83" height="32" viewBox="0 0 83 32" fill="none" xmlns="http://www.w3.org/2000/svg">
<path d="M2.6599 25.4746V6.82975H15.985V9.33619H5.54998V14.7839H14.7062V17.1369H5.54998V22.9682H15.985V25.4746H2.6599ZM20.1434 25.4746V6.82975H23.0335V23.6843L22.2407 22.8914H32.5478V25.4746H20.1434ZM42.6087 25.7304C40.7843 25.7304 39.2497 25.3638 38.005 24.6306C36.7774 23.8804 35.8481 22.8062 35.2173 21.408C34.6034 20.0099 34.2965 18.3133 34.2965 16.3184V16.1905C34.2965 14.6048 34.5011 13.2152 34.9104 12.0217C35.3366 10.8111 35.9419 9.80509 36.7262 9.00371C37.5106 8.20233 38.4569 7.60555 39.5652 7.21339C40.6735 6.80418 41.9011 6.59957 43.2481 6.59957C44.7656 6.59957 46.1126 6.85533 47.2891 7.36685C48.4656 7.86131 49.4204 8.56892 50.1536 9.48965C50.8868 10.3933 51.3131 11.4675 51.4324 12.7122H48.4656C48.2951 11.9449 47.9626 11.297 47.4681 10.7684C46.9907 10.2228 46.3854 9.81361 45.6522 9.5408C44.9361 9.26799 44.1262 9.13159 43.2225 9.13159C41.9267 9.13159 40.844 9.37882 39.9744 9.87329C39.1048 10.3507 38.4484 11.0242 38.005 11.8938C37.5788 12.7463 37.3656 13.7267 37.3656 14.835V17.5461C37.3656 18.4839 37.4935 19.3108 37.7493 20.0269C38.0221 20.726 38.4057 21.3228 38.9002 21.8173C39.4117 22.2947 40.017 22.6527 40.7161 22.8914C41.4152 23.1301 42.1824 23.2495 43.0179 23.2495C44.1944 23.2495 45.1919 23.0364 46.0103 22.6101C46.8287 22.1838 47.4511 21.5785 47.8774 20.7942C48.3036 19.9928 48.5168 19.0465 48.5168 17.9553V16.8811L49.5398 17.9041H43.2993V15.7558H51.5603V25.4746H49.3863L49.1561 21.8173H49.0283C48.7725 22.6016 48.3377 23.2921 47.7239 23.8889C47.1101 24.4686 46.3598 24.9205 45.4732 25.2444C44.6036 25.5684 43.6488 25.7304 42.6087 25.7304ZM56.4093 25.4746V6.82975H59.2994V25.4746H56.4093ZM64.6266 25.4746V6.82975H68.3351L76.724 20.4617L77.1332 21.2546H77.2611V6.82975H80.0489V25.4746H76.5194L67.9003 11.7148L67.5422 11.0498H67.4144V25.4746H64.6266Z" fill="white"/>
</svg>
