<svg width="144" height="51" viewBox="0 0 144 51" fill="none" xmlns="http://www.w3.org/2000/svg">
<path fill-rule="evenodd" clip-rule="evenodd" d="M143.528 25.9828V10.686H140.398V15.6017H140.359C139.709 14.6021 138.902 14.235 138.074 14.235C136.007 14.235 135.396 16.3566 135.396 18.1515V22.1081C135.396 24.0459 135.849 26.2717 138.133 26.354C139.058 26.354 140.004 25.7594 140.574 24.6574H140.613V25.9833L143.528 25.9828ZM138.528 18.9059C138.528 18.172 138.488 16.8866 139.493 16.8866C140.26 16.8662 140.398 18.0491 140.398 19.0283V21.7209C140.398 22.822 140.279 23.6988 139.433 23.6988C138.528 23.6988 138.528 22.5367 138.528 21.8638V18.9059ZM133.919 20.8023V17.5395C133.919 15.0712 131.891 14.2145 129.706 14.235C127.285 14.2554 125.492 15.2141 125.492 18.1515V22.8011C125.492 25.4118 127.461 26.3736 129.706 26.3535C132.423 26.3126 133.96 24.9632 133.802 22.0258H130.69C130.631 22.9844 130.749 24.0655 129.587 24.0045C128.898 23.9631 128.623 23.4331 128.623 22.8006V20.8018L133.919 20.8023ZM128.623 18.6607V17.9063C128.623 17.1109 128.839 16.3761 129.725 16.3761C130.533 16.3761 130.789 17.1305 130.789 17.5391V18.6607H128.623ZM123.838 25.9828V10.686H120.707V15.6017H120.668C120.018 14.6021 119.211 14.235 118.383 14.235C116.316 14.235 115.705 16.3566 115.705 18.1515V22.1081C115.705 24.0459 116.159 26.2717 118.442 26.354C119.368 26.354 120.313 25.7594 120.884 24.6574H120.923V25.9833L123.838 25.9828ZM118.836 18.9059C118.836 18.172 118.797 16.8866 119.801 16.8866C120.57 16.8662 120.707 18.0491 120.707 19.0283V21.7209C120.707 22.822 120.589 23.6988 119.743 23.6988C118.836 23.6988 118.836 22.5367 118.836 21.8638V18.9059ZM113.992 25.9828V10.686H110.862V15.6017H110.822C110.172 14.6021 109.366 14.235 108.538 14.235C106.47 14.235 105.859 16.3566 105.859 18.1515V22.1081C105.859 24.0459 106.313 26.2717 108.597 26.354C109.522 26.354 110.468 25.7594 111.038 24.6574H111.078V25.9833L113.992 25.9828ZM108.991 18.9059C108.991 18.172 108.952 16.8866 109.956 16.8866C110.724 16.8662 110.862 18.0491 110.862 19.0283V21.7209C110.862 22.822 110.743 23.6988 109.896 23.6988C108.991 23.6988 108.991 22.5367 108.991 21.8638V18.9059ZM104.383 20.8023V17.5395C104.383 15.0712 102.354 14.2145 100.169 14.235C97.7476 14.2554 95.9549 15.2141 95.9549 18.1515V22.8011C95.9549 25.4118 97.9239 26.3736 100.169 26.3535C102.886 26.3126 104.423 24.9632 104.265 22.0258H101.154C101.095 22.9844 101.213 24.0655 100.051 24.0045C99.3614 23.9631 99.0859 23.4331 99.0859 22.8006V20.8018L104.383 20.8023ZM99.0864 18.6607V17.9063C99.0864 17.1109 99.3027 16.3761 100.189 16.3761C100.996 16.3761 101.253 17.1305 101.253 17.5391V18.6607H99.0864ZM89.4379 10.686H86.3069V25.9828H89.2216V24.6774H89.2603C89.7726 25.738 90.7575 26.3126 91.7611 26.3535C94.0456 26.2712 94.4982 24.045 94.4982 22.1077V18.1511C94.4982 16.3561 93.8876 14.2345 91.8199 14.2345C90.9142 14.2345 89.9684 14.5207 89.4766 15.4994H89.4374V10.686H89.4379ZM91.3677 21.7205C91.3677 22.4544 91.4073 23.6983 90.4028 23.6983C89.6342 23.7192 89.4379 22.5763 89.4379 21.5972V18.9054C89.4379 17.8035 89.615 16.9067 90.4615 16.9067C91.3677 16.9067 91.3677 18.0892 91.3677 18.763V21.7205ZM71.8931 14.5612V25.9828H75.0237V17.8248C75.0633 17.2129 75.3187 16.8866 75.949 16.8866C76.4804 16.8866 76.5983 17.3357 76.698 17.8248V25.9828H79.829V17.8248C79.829 17.2329 80.1236 16.9071 80.6746 16.8866C81.2657 16.8457 81.4628 17.2943 81.502 17.8248V25.9828H84.633V16.6214C84.633 15.0712 83.3134 14.235 81.8367 14.235C80.9506 14.235 80.1232 14.725 79.5522 15.7446H79.5135C79.1583 14.7859 78.1934 14.174 77.1893 14.235C76.3433 14.2968 75.3588 14.8465 74.8456 15.887H74.806V14.5612H71.8931ZM70.3768 25.9828V22.9235H65.6707V19.6193H70.0029V16.56H65.6707V13.7454H70.1409V10.686H62.2054V25.9828H70.3768Z" fill="white"/>
<path fill-rule="evenodd" clip-rule="evenodd" d="M37.7872 35.0406C36.7931 35.0406 32.1549 34.9169 31.1593 34.8754C28.8398 34.7538 25.7744 32.9064 25.7744 30.3645C25.7744 25.5217 33.6447 24.6205 36.9998 24.6205C37.248 24.6205 37.7872 24.5791 37.7872 25.0304V35.0406ZM16.7455 29.9454C16.7455 29.8223 16.7877 29.2473 16.7877 29.125C18.1645 28.9562 19.9754 28.7552 21.8786 28.4012C21.6934 28.9998 21.5925 29.6521 21.5925 30.3645C21.5925 32.2913 22.2777 33.7575 23.372 34.8704C20.0126 34.5149 16.7455 33.3798 16.7455 29.9454ZM16.3728 25.4295V15.4157C17.3677 15.4157 22.0066 15.5387 23.0022 15.5802C25.3224 15.7039 28.3885 17.5506 28.3885 20.0939C28.3885 24.9381 20.5161 25.8407 17.161 25.8407C16.9121 25.8407 16.3728 25.8822 16.3728 25.4295ZM37.4153 20.5166C37.4153 20.6403 37.3724 21.2147 37.3724 21.337C35.9963 21.5058 34.1861 21.7067 32.2836 22.0608C32.4703 21.4607 32.5718 20.8077 32.5718 20.0939C32.5718 18.1721 31.8902 16.7088 30.801 15.5952C34.1553 15.9521 37.4153 17.0886 37.4153 20.5166ZM29.0887 12.2701C28.5695 12.2701 22.0331 12.2694 20.2779 12.2694C19.9475 12.2594 19.6249 12.2544 19.3138 12.2544C18.2374 12.2544 15.3358 12.2966 15.1284 12.2966C14.3831 12.3388 12.6437 12.6256 12.6437 12.7057V30.7643C12.6437 37.129 20.4732 38.1961 25.0728 38.1961H34.2927C34.2934 38.1961 34.2934 38.1954 34.2941 38.1947C34.4815 38.1976 34.6653 38.1997 34.8462 38.1997C35.9219 38.1997 38.8229 38.1575 39.031 38.1575C39.7755 38.116 41.515 37.8285 41.515 37.7484V19.6977C41.515 13.3358 33.6883 12.2701 29.0887 12.2701Z" fill="white"/>
<path fill-rule="evenodd" clip-rule="evenodd" d="M45.2535 16.7179C52.2755 29.7771 42.1222 50.4692 42.1222 50.4692C55.4139 35.1763 55.8788 19.5044 51.9029 12.1906C48.2631 5.49541 39.1913 2.17822 32.401 2.17822C28.0767 2.17822 24.3912 2.78759 15.2493 5.31303C15.2493 5.31303 22.0682 4.81452 27.3222 5.57766C34.9192 6.68053 41.4049 9.56072 45.2535 16.7179Z" fill="#A4312A"/>
<path fill-rule="evenodd" clip-rule="evenodd" d="M8.83517 33.7515C1.81243 20.693 11.9664 -0.000488281 11.9664 -0.000488281C-1.32524 15.2931 -1.79013 30.965 2.18577 38.2788C5.82553 44.9733 14.8974 48.2912 21.6877 48.2912C26.0119 48.2912 29.6974 47.6811 38.8394 45.1564C38.8394 45.1564 32.0205 45.6541 26.7664 44.8917C19.1694 43.7896 12.6838 40.9087 8.83517 33.7515Z" fill="#A4312A"/>
<path fill-rule="evenodd" clip-rule="evenodd" d="M143.858 38.3642C144.496 35.8345 142.907 34.6515 140.623 34.6515C138.437 34.6515 136.327 35.713 135.821 38.1808C135.65 39.0167 135.769 39.6901 136.169 40.3225C136.914 41.4845 138.568 41.9741 139.684 42.668C139.9 42.8722 139.989 43.198 139.92 43.5452C139.769 44.2791 139.244 44.6262 138.575 44.6262C138.102 44.6262 137.852 44.4015 137.761 44.0757C137.656 43.729 137.705 43.3008 137.803 42.9136H134.81C134.128 45.6672 135.634 46.7714 138.115 46.7714C140.419 46.7714 142.513 45.6868 143.035 43.1379C143.593 40.4253 141.519 39.8743 139.687 38.9156C139.264 38.6713 138.834 38.3655 138.962 37.7536C139.101 37.0802 139.592 36.7954 140.203 36.7954C140.714 36.7954 140.908 36.9988 140.967 37.2845C141.043 37.5907 140.964 37.9783 140.924 38.366H143.858M130.644 37.3241L129.281 43.9457C128.93 45.6663 129.671 46.5676 131.365 46.5676C132.054 46.5676 132.721 46.4848 133.41 46.3802L133.88 44.0957C133.544 44.0957 133.43 44.0752 133.065 44.1367C132.651 44.1367 132.403 43.9938 132.537 43.3409L133.774 37.3241H135.27L135.749 34.9786H134.253L134.922 31.715H131.791L131.122 34.9786H129.881L129.403 37.3241H130.644ZM128.559 38.3642C129.196 35.8345 127.607 34.6515 125.323 34.6515C123.137 34.6515 121.027 35.713 120.521 38.1808C120.351 39.0167 120.469 39.6901 120.87 40.3225C121.614 41.4845 123.269 41.9741 124.384 42.668C124.6 42.8722 124.69 43.198 124.621 43.5452C124.469 44.2791 123.944 44.6262 123.274 44.6262C122.802 44.6262 122.553 44.4015 122.461 44.0757C122.356 43.729 122.405 43.3008 122.504 42.9136H119.51C118.828 45.6672 120.335 46.7714 122.815 46.7714C125.119 46.7714 127.213 45.6868 127.735 43.1379C128.293 40.4253 126.219 39.8743 124.387 38.9156C123.964 38.6713 123.535 38.3655 123.662 37.7536C123.801 37.0802 124.293 36.7954 124.903 36.7954C125.415 36.7954 125.609 36.9988 125.667 37.2845C125.743 37.5907 125.664 37.9783 125.625 38.366H128.559V38.3642ZM119.971 33.8566L120.538 31.103H117.407L116.84 33.8566H119.971ZM117.397 46.3998L119.741 34.9786H116.611L114.267 46.3998H117.397ZM109.868 37.3241L108.507 43.9457C108.156 45.6663 108.897 46.5676 110.59 46.5676C111.281 46.5676 111.947 46.4848 112.636 46.3802L113.105 44.0957C112.77 44.0957 112.656 44.0752 112.291 44.1367C111.877 44.1367 111.628 43.9938 111.763 43.3409L113 37.3241H114.496L114.976 34.9786H113.479L114.148 31.715H111.017L110.348 34.9786H109.107L108.629 37.3241H109.868ZM103.141 34.9786L100.798 46.3998H103.929L105.373 39.3634C105.626 38.4252 106.016 38.2414 106.903 38.2414C107.217 38.2414 107.529 38.2618 107.831 38.3233L108.586 34.6515C107.286 34.6515 106.344 35.4882 105.741 36.7117H105.701L106.055 34.9782L103.141 34.9786ZM96.6466 40.7302H94.638L97.0467 33.8775H97.0863L96.6466 40.7302ZM92.686 46.3998L93.7096 43.4228H96.4272L96.3088 46.3998H99.8137L99.7451 31.103H95.5695L89.2003 46.3998H92.686Z" fill="white"/>
</svg>
