<svg width="125" height="50" viewBox="0 0 125 50" fill="none" xmlns="http://www.w3.org/2000/svg">
<g clip-path="url(#clip0_245_2553)">
<path d="M19.8121 12.6294L22.4888 14.7882L24.6562 12.8884L36.1676 24.3543L24.6264 35.8093L22.2504 33.95C21.5623 34.3062 20.3594 36.3436 19.6441 35.9739L8 24.3543L19.8121 12.6294ZM19.8121 13.4389L8.81276 24.3543L20.0207 35.2696L31.0201 24.3543L29.0234 22.6137L19.8121 31.489L17.2113 28.939L26.4144 19.7642L24.6264 18.0236L15.4151 26.9016L12.6056 24.3516L21.8088 15.1795L19.8121 13.4389Z" fill="white"/>
<path d="M79.7044 19.4456C80.1433 19.9124 81.5629 22.7566 81.1457 23.1371L77.5181 23.1074C77.0792 22.9725 76.9275 21.3291 75.5322 21.0269C72.4871 20.363 71.9507 25.0665 73.0479 27.0202C73.5924 27.9916 75.3047 28.3208 76.2664 27.8594C77.025 27.4924 77.0467 26.2835 77.5181 26.1378L81.1457 26.1081C80.9317 32.5574 71.0756 33.0351 68.8974 27.6462C67.811 24.9558 68.3447 20.7192 70.8643 18.9706C73.1454 17.3866 77.7511 17.365 79.7044 19.4456Z" fill="white"/>
<path d="M101.465 30.9629C100.235 30.7093 97.6068 31.6645 97.3955 30.1534C94.7811 32.242 89.7339 31.5971 90.6821 27.3739C91.2646 24.7807 97.1246 25.5174 97.3982 24.349C97.3765 23.7067 96.4527 23.3748 95.9271 23.4072C94.884 23.4719 94.7432 24.4407 94.5102 24.4974C94.1499 24.5837 91.7007 24.5567 91.335 24.4569C90.6089 24.2572 91.3675 22.827 91.7007 22.4546C93.1529 20.8301 98.2868 20.8544 99.9828 22.0499C102.072 23.5232 99.9746 28.8581 101.465 30.9602V30.9629ZM97.3982 26.9179C96.2495 26.5536 93.0418 28.3967 95.1468 29.0335C96.5719 29.4626 97.4713 28.224 97.3982 26.9179Z" fill="white"/>
<path d="M114.469 18.5522V21.5206H116.094V23.682H114.469V27.8647C114.469 28.2883 115.699 28.3342 116.097 28.2694L116.075 30.9463C114.759 31.3403 112.534 31.1811 111.342 30.439C111.134 30.3095 110.679 29.9965 110.679 29.4811V23.6793H109.324V21.5206H110.681V18.5522H114.474H114.469Z" fill="white"/>
<path d="M103.632 23.6798H102.277V21.521H103.635C103.635 17.8322 105.916 17.6784 108.782 17.7432L108.774 20.1664C107.834 20.0638 107.092 20.107 107.092 21.575C107.092 21.575 108.183 21.5183 108.78 21.521V23.6825H107.422V30.9684H103.629V23.6825L103.632 23.6798Z" fill="white"/>
<path d="M89.5442 21.2507V25.0285C88.7016 24.8019 86.5641 25.212 86.5641 26.2428V30.9652H82.7712V21.5205H86.2932L86.5614 22.8671C86.8296 21.5124 88.3169 21.1751 89.5442 21.2507Z" fill="white"/>
<path d="M50.5317 21.5208H53.7828L53.9155 22.8701C55.3162 20.9703 58.7948 20.436 59.7457 22.8701C60.6587 22.7108 61.1111 21.68 62.1704 21.3778C63.2948 21.0567 65.0476 21.3049 65.8875 22.1469C66.0609 22.3223 66.7869 23.6823 66.7869 23.8145V30.9655H62.994V24.8939C62.994 24.4136 61.6801 23.9872 61.0895 24.3488C60.9892 24.4109 60.5558 25.1152 60.5558 25.1638V30.9655H56.7629V24.8939C56.7629 24.0385 54.3246 24.0385 54.3246 24.8939V30.9655H50.5317V21.5208ZM51.0736 22.0605V30.4258H53.7828V24.8939C53.7828 24.643 55.0832 23.7012 55.5356 23.7012C56.3186 23.7012 57.3047 24.365 57.3047 25.1638V30.4258H60.0139V25.1638C60.0139 24.6645 61.2006 23.7174 61.7912 23.6769C62.4197 23.6364 63.5359 24.3299 63.5359 24.8939V30.4258H66.2451V23.8145C66.2451 23.3126 65.3375 22.2116 64.82 21.9957C62.9128 21.197 61.0678 22.2008 59.8785 23.6796C58.6512 20.7895 55.2999 21.3859 53.6473 23.6796L53.5146 22.0605H51.0763H51.0736Z" fill="white"/>
<path d="M48.6353 18.2827V21.251H42.4041V22.8701H47.5516V25.8384H42.4041V27.7274H48.7707V30.9655H38.3403V18.2827H48.6353ZM48.0934 18.5526H38.6112V30.4258H48.3644V28.2671H41.8623V25.5686H47.0098V23.4098H41.8623L41.884 20.7113H48.0934V18.5526Z" fill="white"/>
<path d="M109.59 36.0928L108.354 35.8365L108.232 33.6642C106.864 33.5104 107.652 35.8365 107.42 36.0928L106.32 35.9741L106.279 33.7964C105.22 33.818 105.336 35.51 105.249 36.0955H104.168V32.8574C104.583 32.7494 105.06 33.0409 105.398 33.0166C105.761 32.9923 106.03 32.5848 106.431 32.6307C106.721 32.6631 107.016 33.0436 107.284 33.0436C107.783 33.0462 108.108 32.1935 109.153 32.8816C109.985 33.4294 109.441 35.1753 109.587 36.0928H109.59Z" fill="white"/>
<path d="M77.3311 32.8975L77.6237 34.4707L78.1845 32.8975H79.5148C79.5148 32.8975 78.7941 34.8619 78.1574 36.2301C77.9217 36.7374 77.5723 37.1664 77.4829 37.1664C77.3447 37.1664 76.2204 37.1988 76.2204 37.1988L76.2312 36.3947C76.2312 36.3947 76.5563 36.446 76.7405 36.2679C76.8326 36.1815 76.8435 36.025 76.8597 35.8037L75.9955 32.9002H77.3284L77.3311 32.8975Z" fill="white"/>
<path d="M71.6527 32.8703C71.7583 33.0376 71.8531 33.6178 71.8531 33.6178L70.7586 33.6313C70.7586 33.6313 70.8426 33.213 70.5419 33.0916C70.2412 32.9702 69.7616 33.1456 69.8158 33.518C69.8836 33.9848 71.379 34.0658 71.6012 34.2546C72.3896 34.9293 71.7231 35.9493 70.1789 35.9574C69.0491 35.9628 68.6698 34.9158 68.6698 34.9158L69.7752 34.932C69.7752 34.932 70.2845 35.1667 70.401 35.164C70.5229 35.164 70.8534 35.0102 70.7911 34.8672C70.5744 34.3815 68.8866 34.6459 68.7078 34.0469C68.2147 32.4008 71.0187 31.8395 71.6608 32.8703H71.6527Z" fill="white"/>
<path d="M100.11 34.4709H97.7856C97.7233 35.472 99.5168 34.8271 100.107 35.0132C99.021 36.7457 96.2143 36.1034 96.58 33.8043C96.8888 31.8587 100.546 32.2203 100.107 34.4709H100.11ZM99.0264 33.9312C98.8909 33.3969 98.2624 33.0272 97.9427 33.3942C97.8533 33.4967 97.7856 33.9312 97.7856 33.9312H99.0237H99.0264Z" fill="white"/>
<path d="M92.2317 31.8101V32.5818H93.0662V33.4939H92.2317C92.2317 33.4939 92.0881 34.8 92.3645 35.0617C92.6408 35.3235 93.0689 35.1022 93.077 35.1535C93.2775 36.4487 91.8687 36.3138 91.3783 35.6878C91.0343 35.2452 91.1751 33.4939 91.1751 33.4939H90.7417V32.5818H91.1751V31.8101H92.2317Z" fill="white"/>
<path d="M86.304 32.8703C86.4097 33.0376 86.5045 33.6178 86.5045 33.6178L85.41 33.6313C85.41 33.6313 85.494 33.213 85.1932 33.0916C84.8925 32.9702 84.413 33.1456 84.4672 33.518C84.5349 33.9848 86.0304 34.0658 86.2525 34.2546C87.0409 34.9293 86.3745 35.9493 84.8302 35.9574C83.7005 35.9628 83.3212 34.9158 83.3212 34.9158L84.4265 34.932C84.4265 34.932 84.9359 35.1667 85.0524 35.164C85.1743 35.164 85.5048 35.0102 85.4425 34.8672C85.2258 34.3815 83.5379 34.6459 83.3591 34.0469C82.866 32.4008 85.6701 31.8395 86.3121 32.8703H86.304Z" fill="white"/>
<path d="M115.786 32.9192C115.891 33.0865 115.986 33.6666 115.986 33.6666L114.891 33.6801C114.891 33.6801 114.975 33.2619 114.675 33.1404C114.374 33.019 113.895 33.1944 113.949 33.5668C114.016 34.0336 115.512 34.1146 115.734 34.3035C116.522 34.9781 115.856 35.9981 114.312 36.0062C113.182 36.0116 112.803 34.9646 112.803 34.9646L113.908 34.9808C113.908 34.9808 114.417 35.2156 114.534 35.2129C114.656 35.2129 114.986 35.059 114.924 34.916C114.707 34.4303 113.019 34.6948 112.841 34.0957C112.348 32.4496 115.152 31.8883 115.794 32.9192H115.786Z" fill="white"/>
</g>
<defs>
<clipPath id="clip0_245_2553">
<rect width="108.094" height="24.5669" fill="white" transform="translate(8 12.6294)"/>
</clipPath>
</defs>
</svg>
