<svg width="117" height="28" viewBox="0 0 117 28" fill="none" xmlns="http://www.w3.org/2000/svg">
<mask id="mask0_12_2845" style="mask-type:luminance" maskUnits="userSpaceOnUse" x="2" y="2" width="113" height="24">
<path d="M115 2H2V25.381H115V2Z" fill="white"/>
</mask>
<g mask="url(#mask0_12_2845)">
<path d="M23.2588 5.28174H23.2082C23.1922 5.27914 23.176 5.27914 23.16 5.28174C23.144 5.28374 23.1285 5.28893 23.1145 5.29693C23.1002 5.30303 23.0866 5.31064 23.0739 5.31974L20.7948 6.88224H14.6717L12.3926 5.31974C12.38 5.31064 12.3664 5.30303 12.3521 5.29693L12.3065 5.28174C12.2905 5.27944 12.2743 5.27944 12.2584 5.28174H12.2077H12.1546C12.1377 5.27964 12.1207 5.27964 12.1039 5.28174C12.0872 5.28454 12.071 5.28963 12.0558 5.29693L12.0102 5.31974L8.99674 7.11013C8.97064 7.12623 8.94754 7.14683 8.92844 7.17083C8.91194 7.19053 8.90064 7.21403 8.89544 7.23923C8.88934 7.26253 8.88934 7.28693 8.89544 7.31013C8.90534 7.33393 8.92214 7.35423 8.94364 7.36843L11.5519 9.31323C11.5651 9.32283 11.5796 9.33053 11.5949 9.33603L11.643 9.35623H11.6962H11.8051H11.8608L11.914 9.33603L11.9621 9.31323L14.6337 7.61653H20.8328L23.4968 9.32843C23.5121 9.33753 23.5282 9.34513 23.545 9.35123L23.5981 9.37143H23.6513H23.7627H23.8159L23.864 9.35123C23.8791 9.34513 23.8936 9.33753 23.9071 9.32843L26.5078 7.38364C26.53 7.36874 26.5482 7.34884 26.561 7.32534C26.566 7.30194 26.566 7.27783 26.561 7.25443C26.5598 7.22643 26.551 7.19933 26.5356 7.17593C26.516 7.15143 26.4919 7.13083 26.4647 7.11513L23.4513 5.32483L23.4057 5.30204C23.3905 5.29474 23.3742 5.28953 23.3576 5.28683C23.3399 5.28443 23.322 5.28443 23.3044 5.28683H23.2537" fill="white"/>
<path d="M24.1857 13.4714H24.125L24.0692 13.4866L24.0161 13.5069L23.9705 13.5347L21.3293 15.6619H14.183L11.5368 13.5347L11.4912 13.5069L11.438 13.4866L11.3823 13.4714H11.2633L11.205 13.4866L11.1493 13.5069C11.1308 13.5146 11.113 13.524 11.0961 13.5347L7.5433 15.9759C7.5099 15.9975 7.4808 16.025 7.4572 16.0569C7.438 16.0861 7.4251 16.1188 7.4192 16.1532C7.4104 16.1838 7.4104 16.2163 7.4192 16.2469C7.4311 16.2793 7.4511 16.3081 7.4774 16.3304L10.4808 19.0096C10.4957 19.0229 10.5118 19.0347 10.5289 19.0451L10.5871 19.0704L10.6479 19.0856H10.7138H10.7796L10.8353 19.078C10.8562 19.0711 10.8765 19.0626 10.8961 19.0527L10.9543 19.0172L14.1273 16.647H21.39L24.5605 19.0096C24.5781 19.0229 24.5967 19.0348 24.6162 19.0451L24.6795 19.0704L24.7454 19.0856H24.8112H24.8771L24.9378 19.0704C24.9573 19.064 24.9759 19.0555 24.9935 19.0451C25.0118 19.0354 25.0288 19.0235 25.0442 19.0096L28.0425 16.3304C28.0688 16.3081 28.0888 16.2793 28.1007 16.2469C28.1082 16.2161 28.1082 16.184 28.1007 16.1532C28.0932 16.1189 28.0794 16.0863 28.0602 16.0569C28.0382 16.0244 28.0098 15.9968 27.9766 15.9759L24.4086 13.5373L24.3554 13.5094L24.2997 13.4892L24.2414 13.474H24.1807" fill="white"/>
<path d="M17.7688 18.6626H17.7055C17.6838 18.6649 17.6626 18.6701 17.6422 18.6778L17.5839 18.7031C17.5651 18.7132 17.5473 18.7251 17.5308 18.7386L13.9298 21.6356C13.8965 21.6628 13.869 21.6964 13.8488 21.7343C13.829 21.7687 13.8175 21.8072 13.8153 21.8468C13.8131 21.8864 13.8202 21.9259 13.8361 21.9623C13.8524 21.9999 13.8766 22.0335 13.907 22.061L17.5156 25.2771C17.5333 25.2936 17.5528 25.3081 17.5738 25.3201C17.5945 25.3328 17.6166 25.343 17.6397 25.3505C17.6617 25.3591 17.6846 25.365 17.708 25.3682C17.7316 25.3707 17.7554 25.3707 17.7789 25.3682C17.8272 25.3664 17.8749 25.3579 17.9208 25.3429C17.943 25.3354 17.9643 25.3252 17.9841 25.3125C18.0051 25.3005 18.0246 25.286 18.0423 25.2695L21.6433 22.0534C21.6737 22.0259 21.6979 21.9923 21.7142 21.9546C21.7299 21.9187 21.7381 21.8799 21.7381 21.8407C21.7381 21.8015 21.7299 21.7627 21.7142 21.7267C21.6922 21.6893 21.6639 21.6558 21.6306 21.628L18.022 18.731C18.0064 18.7163 17.9884 18.7044 17.9689 18.6955L17.9106 18.6702C17.8903 18.6625 17.869 18.6573 17.8473 18.655H17.7815" fill="white"/>
<path d="M18.4322 8.78662C18.2004 8.78662 17.9688 8.79841 17.7383 8.82211C17.5209 8.84171 17.3051 8.87641 17.0926 8.92591C16.677 9.01781 16.2787 9.17511 15.9125 9.39181C15.7527 9.48591 15.5996 9.59091 15.4541 9.70581C15.309 9.82031 15.1711 9.94381 15.0414 10.0756C14.9145 10.2065 14.7969 10.3461 14.6894 10.4934C14.5819 10.6374 14.4862 10.7898 14.4032 10.9492L8.24213 10.9062L6.02883 9.13351L5.98834 9.10821L5.94276 9.09051H5.89211H5.8364H5.78069H5.72498L5.66927 9.10821L5.61862 9.13351L2.12654 11.21C2.09479 11.2297 2.06583 11.2536 2.04045 11.281C2.02075 11.3048 2.0061 11.3323 1.9974 11.362C1.9898 11.3885 1.9898 11.4165 1.9974 11.443C2.00378 11.4706 2.01998 11.4949 2.04298 11.5114L4.5753 13.7905C4.58825 13.8018 4.60275 13.8112 4.61835 13.8183C4.63439 13.827 4.65139 13.8338 4.669 13.8386C4.68748 13.8412 4.70623 13.8412 4.72471 13.8386H4.78296H4.84373C4.86391 13.841 4.88432 13.841 4.90451 13.8386L4.96275 13.8183L5.01846 13.7905L8.18643 11.7646L14.1171 11.7317L14.1019 11.8153C14.1019 11.8431 14.1019 11.871 14.0842 11.8988C14.0664 11.9267 14.0842 11.9545 14.0842 11.9849C14.0842 12.0153 14.0842 12.0407 14.0842 12.0685C14.0597 12.3518 14.1104 12.6365 14.231 12.894C14.3564 13.1444 14.5472 13.3561 14.7831 13.5069C15.0707 13.6865 15.3879 13.8134 15.72 13.8817C16.136 13.9717 16.5607 14.015 16.9862 14.0108C17.2662 14.011 17.5461 13.9958 17.8244 13.9652C18.0977 13.9349 18.3691 13.8892 18.6373 13.8285C18.9071 13.7669 19.1734 13.6909 19.435 13.6006C19.6882 13.5043 19.9592 13.398 20.22 13.2714C20.3795 13.1954 20.5239 13.1169 20.6606 13.0409C20.7974 12.965 20.9138 12.894 21.0278 12.8257L21.3342 12.6357C21.4279 12.5775 21.5115 12.5269 21.5874 12.4863C21.7242 12.4129 21.8685 12.3344 22.0306 12.2584C22.2065 12.1745 22.3875 12.1018 22.5725 12.0406C22.8004 11.9679 23.0331 11.9112 23.2689 11.871C23.5654 11.8206 23.8648 11.7893 24.1654 11.7773L27.2978 11.8127L30.4405 13.8259C30.4579 13.838 30.4766 13.8482 30.4962 13.8563L30.5569 13.8766C30.5766 13.8833 30.597 13.8875 30.6177 13.8893H30.6785H30.7367C30.7558 13.8877 30.7746 13.8834 30.7924 13.8766L30.8431 13.8563C30.859 13.8485 30.8735 13.8383 30.8861 13.8259L33.4185 11.5595C33.4394 11.5401 33.4551 11.5157 33.464 11.4886C33.4716 11.4613 33.4716 11.4324 33.464 11.405C33.4553 11.3756 33.4397 11.3487 33.4185 11.3265C33.3961 11.2971 33.3676 11.2729 33.3349 11.2556L29.8352 9.17661L29.7846 9.15132L29.7289 9.13351H29.6732H29.5744H29.5237L29.4782 9.15132C29.4642 9.15762 29.4514 9.16621 29.4402 9.17661L27.2041 10.9771L24.1198 11.0176H23.6285C23.4867 11.0176 23.3297 11.0303 23.1575 11.0454C22.9688 11.0612 22.7811 11.0874 22.5953 11.1239C22.3763 11.1661 22.1605 11.2237 21.9496 11.2961C21.6998 11.3804 21.4568 11.4836 21.2228 11.6051C21.1266 11.6532 21.0075 11.719 20.8657 11.795L20.3897 12.0482C20.2149 12.1394 20.0301 12.2331 19.8376 12.3268C19.6451 12.4205 19.4476 12.5091 19.2501 12.58C19.1032 12.6383 18.9564 12.6915 18.8095 12.737C18.6657 12.7838 18.5194 12.8227 18.3714 12.8535C18.2245 12.8865 18.0776 12.9092 17.9333 12.927C17.7896 12.9441 17.645 12.9525 17.5003 12.9523C17.3084 12.9549 17.1167 12.9388 16.928 12.9042C16.7834 12.8791 16.6445 12.8285 16.5177 12.7548C16.4102 12.6972 16.3221 12.6091 16.2645 12.5015C16.2085 12.3848 16.1824 12.256 16.1885 12.1267C16.1885 12.0964 16.1885 12.0558 16.2012 12.0179C16.2138 11.9799 16.2164 11.9343 16.224 11.8988C16.2316 11.8634 16.2392 11.8279 16.2468 11.8051C16.2544 11.7824 16.2468 11.7672 16.2468 11.7672H17.1989C17.7634 11.7721 18.3272 11.7247 18.8829 11.6254C19.3068 11.5524 19.7179 11.4184 20.1035 11.2278C20.3743 11.1033 20.612 10.9167 20.7974 10.6833C20.938 10.5003 21.0089 10.2732 20.9974 10.0426C20.9867 9.82811 20.9068 9.62291 20.7695 9.45771C20.6229 9.28771 20.438 9.15491 20.2301 9.07021C19.9764 8.96431 19.7099 8.89201 19.4375 8.85501C19.1081 8.80531 18.7754 8.78161 18.4423 8.78411M17.2546 10.9239H17.0217H16.7684H16.4823C16.5547 10.7246 16.6571 10.5376 16.7862 10.3693C16.9049 10.2182 17.0457 10.0859 17.204 9.97681C17.3552 9.87351 17.5219 9.79491 17.6978 9.74381C17.8727 9.69101 18.0545 9.66462 18.2372 9.66532C18.3605 9.66352 18.4836 9.67541 18.6044 9.70081C18.6946 9.71621 18.7807 9.74981 18.8576 9.79951C18.9161 9.83791 18.9633 9.89132 18.9943 9.95402C19.025 10.0154 19.0415 10.0829 19.0425 10.1515C19.0412 10.2128 19.027 10.2731 19.0008 10.3286C18.9746 10.384 18.937 10.4332 18.8905 10.4731C18.7706 10.5821 18.6315 10.668 18.4803 10.7264C18.2947 10.7987 18.102 10.8514 17.9054 10.8834C17.6931 10.9211 17.4779 10.9397 17.2622 10.9391" fill="white"/>
<path d="M17.7179 2H17.6724H17.6242L17.5812 2.0152L17.5432 2.0329L14.9172 3.5928C14.8944 3.6065 14.8746 3.6246 14.8589 3.646C14.8449 3.6632 14.8369 3.6846 14.8362 3.7068C14.8339 3.7282 14.8393 3.7497 14.8513 3.7676C14.865 3.7889 14.8832 3.8071 14.9045 3.8207L17.5331 5.5047L17.5736 5.525L17.6217 5.5427H17.6698H17.723H17.7737C17.7905 5.5439 17.8074 5.5439 17.8243 5.5427L17.8699 5.525L17.9129 5.5047L20.5364 3.8207C20.5585 3.8071 20.5774 3.789 20.5921 3.7676C20.6038 3.7494 20.61 3.7283 20.6099 3.7068C20.6069 3.6846 20.5982 3.6637 20.5845 3.646C20.5685 3.624 20.5477 3.6058 20.5238 3.5928L17.8952 2.0329C17.8833 2.0255 17.8705 2.0196 17.8572 2.0152L17.8142 2H17.7686H17.7205" fill="white"/>
<path d="M45.7813 12.9245C45.4249 12.9261 45.0695 12.8853 44.7228 12.8029C44.7228 12.8029 44.6367 13.3778 44.6367 13.6032C44.6367 14.6161 45.1558 15.0263 46.1282 15.0263C46.9259 15.0263 47.759 14.6794 48.5922 14.0894L49.1822 15.5455C48.1386 16.3229 46.8749 16.7486 45.5736 16.761C43.4566 16.761 42.2056 15.6493 42.2056 13.4993C42.2202 11.6773 42.9357 9.93066 44.2037 8.62206C44.6057 8.22796 45.0838 7.92006 45.609 7.71706C46.1341 7.51416 46.6951 7.42056 47.2576 7.44196C49.01 7.44196 50.2762 8.13586 50.2762 9.87046C50.2787 11.5545 48.734 12.9245 45.7813 12.9245ZM46.9968 9.14366C46.1105 9.14366 45.4521 9.66286 45.1052 11.2076C45.3211 11.259 45.5417 11.2879 45.7636 11.2937C46.7765 11.2937 47.9338 10.9468 47.9338 10.063C47.9363 9.52356 47.6932 9.14366 46.9993 9.14366H46.9968Z" fill="white"/>
<path d="M57.3263 16.5179H55.0801L54.214 12.9219C54.0216 12.104 53.7076 10.3517 53.7076 10.3517C53.7076 10.3517 53.4341 12.3597 53.272 13.1625L52.5984 16.5179H50.5447L52.406 7.72055H54.799L55.779 11.1089C55.9667 11.887 56.1112 12.6749 56.2121 13.469C56.2654 12.6198 56.3669 11.7743 56.5159 10.9366L57.1743 7.71045H59.2002L57.3263 16.5179Z" fill="white"/>
<path d="M66.3412 9.62994C65.9468 9.34984 65.4777 9.19374 64.994 9.18174C64.4358 9.19824 63.8967 9.38854 63.4518 9.72614C62.5377 10.4858 62.168 12.4889 62.168 13.4841C62.168 14.5426 62.7605 15.0567 63.8216 15.0567C64.4261 15.0574 65.0176 14.8814 65.5233 14.5502L66.2298 15.8164C65.3832 16.4049 64.3711 16.7082 63.3404 16.6824C60.5929 16.6824 59.7116 15.2694 59.7116 13.5677C59.694 12.0764 60.1803 10.6229 61.0917 9.44254C62.168 8.10804 63.7405 7.54834 65.2979 7.54834C66.245 7.54834 67.2098 7.86994 67.6277 8.23714L66.3412 9.62994Z" fill="white"/>
<path d="M72.4316 16.5178H67.3062L69.1674 7.72046H71.3984L69.9068 14.7527H73.2799L72.4316 16.5178Z" fill="white"/>
<path d="M81.2339 13.5651C80.9629 14.8642 80.6413 15.2972 80.0462 15.7783C79.4511 16.2595 78.4736 16.6798 77.0935 16.6798C75.1664 16.6798 73.9788 15.9581 73.9788 14.7679C73.9826 14.4124 74.0199 14.058 74.0902 13.7094L75.3564 7.72046H77.5873L76.3667 13.4511C76.3066 13.6936 76.2693 13.9411 76.2553 14.1906C76.2553 14.6059 76.6073 14.9503 77.3138 14.9503C78.4559 14.9503 78.8332 14.421 79.0662 13.2789L80.2539 7.72546H82.5L81.2339 13.5651Z" fill="white"/>
<path d="M89.8034 9.83999C89.1362 9.43159 88.3698 9.21439 87.5876 9.21199C86.8 9.21199 86.2226 9.58169 86.2226 10.1439C86.2226 10.4326 86.3999 10.6504 87.0887 10.8504L88.0206 11.1036C89.2868 11.4556 90.1072 12.1621 90.1072 13.1903C90.1072 15.2769 88.0358 16.7051 85.2426 16.7051C84.1748 16.7181 83.1206 16.4639 82.176 15.9657L83.237 14.345C84.007 14.7421 84.86 14.9512 85.7263 14.9553C86.8659 14.9553 87.4989 14.5071 87.4989 13.9297C87.4989 13.4233 87.1292 13.2384 86.4556 13.0282L85.5718 12.7572C84.2069 12.3394 83.6954 11.5848 83.6954 10.701C83.6954 8.87009 85.468 7.44189 87.932 7.44189C89.1196 7.44189 90.4061 7.79639 91.1126 8.34089L89.8034 9.83999Z" fill="white"/>
<path d="M98.489 9.45506H96.289L94.7692 16.5178H92.5231L94.0425 9.45506H91.7786L92.1306 7.72046H99.277L98.489 9.45506Z" fill="white"/>
<path d="M104.098 12.7775C104.605 13.4511 105.385 15.3453 105.818 16.5178H103.285C102.29 13.5651 102.002 12.9852 101.551 12.9852H101.406L100.647 16.5178H98.512L100.373 7.72046H103.772C104.719 7.72046 105.648 7.89516 106.099 8.48016C106.306 8.75046 106.449 9.06476 106.516 9.39886C106.582 9.73296 106.571 10.078 106.484 10.4073C106.251 11.6202 105.126 12.6484 104.098 12.7775ZM102.913 9.34106H102.154L101.72 11.4126H102.427C103.617 11.4126 104.065 11.1087 104.225 10.3997C104.384 9.69056 104.098 9.34106 102.913 9.34106Z" fill="white"/>
<path d="M112.739 16.5179L112.546 14.6566H109.849L108.836 16.5179H106.494L111.581 7.68262H113.815L115 16.5128L112.739 16.5179ZM112.288 9.61482C111.918 10.4985 111.181 12.104 110.715 13.0334H112.402C112.354 12.1192 112.255 10.4985 112.288 9.61482Z" fill="white"/>
<path d="M61.4818 19.901H60.2308L60.0156 20.9266H61.0463L60.9627 21.3166H59.932L59.5952 22.9069H59.1116L59.8333 19.511H61.6388L61.4818 19.901Z" fill="white"/>
<path d="M64.8954 21.357C64.6404 21.5137 64.3433 21.588 64.0445 21.5698H63.5077L63.224 22.8967H62.748L63.4697 19.5009H64.3585C64.6367 19.4776 64.9151 19.5432 65.1537 19.6882C65.246 19.7575 65.3202 19.848 65.37 19.952C65.4198 20.056 65.4438 20.1706 65.4398 20.2859C65.4463 20.4958 65.3998 20.7039 65.3046 20.8911C65.2095 21.0783 65.0687 21.2385 64.8954 21.357ZM64.2952 19.8959H63.8673L63.5963 21.1773H64.1028C64.2024 21.1878 64.3032 21.1775 64.3987 21.147C64.4942 21.1165 64.5823 21.0664 64.6573 21C64.7414 20.9219 64.8088 20.8275 64.8554 20.7226C64.902 20.6177 64.9268 20.5045 64.9283 20.3897C64.9283 20.0732 64.7586 19.906 64.2952 19.906V19.8959Z" fill="white"/>
<path d="M69.2204 20.091C69.012 19.9165 68.7443 19.8292 68.4731 19.8471C68.2019 19.865 67.948 19.9868 67.7643 20.1872C67.4229 20.6415 67.2373 21.194 67.2351 21.7623C67.2229 21.8685 67.2342 21.9761 67.2684 22.0774C67.3025 22.1787 67.3586 22.2712 67.4326 22.3484C67.5066 22.4255 67.5967 22.4854 67.6965 22.5237C67.7963 22.562 67.9033 22.5779 68.01 22.5701C68.1915 22.5742 68.3714 22.5342 68.5341 22.4536L68.7418 21.4837H68.1036V21.1039H69.2888L68.9494 22.7018C68.6252 22.8777 68.2623 22.9699 67.8935 22.9702C67.7339 22.9794 67.5743 22.9543 67.4252 22.8966C67.2762 22.8389 67.1412 22.75 67.0294 22.6358C66.9176 22.5216 66.8316 22.3848 66.7771 22.2345C66.7226 22.0843 66.7008 21.9241 66.7134 21.7648C66.707 21.0842 66.9669 20.4281 67.4376 19.9365C67.5886 19.7835 67.7696 19.6634 67.9692 19.5836C68.1687 19.5039 68.3826 19.4662 68.5975 19.4731C68.7604 19.4659 68.9231 19.4925 69.0752 19.5514C69.2273 19.6102 69.3655 19.7 69.4812 19.8149L69.2204 20.091Z" fill="white"/>
<path d="M72.9887 22.9068L72.9001 21.9243H71.6997L71.1933 22.9068H70.6868L72.543 19.5059H73.1254L73.5104 22.9068H72.9887ZM72.776 20.686C72.7583 20.4783 72.7177 19.9541 72.7177 19.9541C72.7177 19.9541 72.5785 20.2504 72.4822 20.4378L71.9074 21.5292H72.8595L72.776 20.686Z" fill="white"/>
<path d="M81.0034 20.0909C80.7886 19.9183 80.5191 19.8285 80.2437 19.8376C79.831 19.8376 79.5271 20.0681 79.5271 20.3694C79.5271 20.6226 79.6132 20.7341 79.9297 20.8632L80.2944 21.0126C80.4731 21.0635 80.6292 21.1738 80.7369 21.3252C80.8446 21.4766 80.8975 21.6602 80.887 21.8458C80.887 22.4788 80.3324 22.9929 79.4258 22.9929C79.0752 23.0027 78.7302 22.9036 78.4382 22.7093L78.6788 22.3396C78.9213 22.511 79.2125 22.5998 79.5094 22.5928C80.0158 22.5928 80.3476 22.3168 80.3476 21.942C80.3476 21.6888 80.2589 21.5368 79.9145 21.4026L79.5929 21.2811C79.4184 21.2383 79.2642 21.136 79.157 20.9918C79.0497 20.8475 78.9962 20.6704 79.0054 20.491C79.0054 19.8832 79.5727 19.44 80.3096 19.44C80.6503 19.4334 80.9835 19.5403 81.2567 19.7439L81.0034 20.0909Z" fill="white"/>
<path d="M85.0324 22.6993C84.7622 22.886 84.4388 22.9802 84.1106 22.9677C83.3686 22.9677 83.0217 22.4942 83.0217 21.7623C83.0091 21.0598 83.2697 20.3798 83.7485 19.8656C83.893 19.725 84.0649 19.6158 84.2536 19.5447C84.4423 19.4737 84.6436 19.4424 84.845 19.4529C85.5312 19.4529 85.9313 19.8808 85.9313 20.6203C85.9288 21.4357 85.6123 22.3043 85.0324 22.6993ZM84.7589 19.8378C84.6117 19.8342 84.4658 19.8662 84.3335 19.931C84.2013 19.9958 84.0866 20.0915 83.9992 20.21C83.6859 20.7037 83.5255 21.279 83.5383 21.8636C83.5383 22.3853 83.7915 22.6081 84.1992 22.6081C84.3227 22.6113 84.4454 22.5878 84.559 22.5393C84.6726 22.4908 84.7745 22.4184 84.8576 22.327C85.1818 21.9877 85.4046 21.1318 85.4046 20.5544C85.4046 20.1189 85.2122 19.8378 84.7589 19.8378Z" fill="white"/>
<path d="M89.464 22.9069H87.7446L88.4663 19.511H88.95L88.3245 22.5068H89.6337L89.464 22.9069Z" fill="white"/>
<path d="M93.8956 21.8636C93.7968 22.3371 93.7183 22.5346 93.4651 22.717C93.1909 22.9038 92.8617 22.993 92.5307 22.9702C91.9533 22.9702 91.5532 22.7322 91.5532 22.2358C91.5549 22.0937 91.5702 21.9521 91.5988 21.8129L92.0875 19.5136H92.5661L92.1027 21.7015C92.0659 21.8627 92.0464 22.0274 92.0445 22.1928C92.0445 22.4258 92.2521 22.565 92.5914 22.565C92.711 22.5697 92.8301 22.548 92.9403 22.5017C93.0506 22.4553 93.1493 22.3853 93.2296 22.2966C93.3443 22.1507 93.4146 21.9749 93.4322 21.7901L93.9133 19.511H94.3945L93.8956 21.8636Z" fill="white"/>
<path d="M98.469 19.9112H97.575L96.934 22.9069H96.466L97.102 19.9112H96.21L96.296 19.511H98.598L98.469 19.9112Z" fill="white"/>
<path d="M100.186 22.9069H99.72L100.442 19.511H100.92L100.186 22.9069Z" fill="white"/>
<path d="M104.731 22.6993C104.461 22.8866 104.136 22.9808 103.807 22.9677C103.068 22.9677 102.723 22.4942 102.723 21.7623C102.71 21.0601 102.969 20.3801 103.448 19.8656C103.592 19.725 103.764 19.6158 103.953 19.5447C104.141 19.4737 104.343 19.4424 104.544 19.4529C105.23 19.4529 105.63 19.8808 105.63 20.6203C105.63 21.4357 105.314 22.3043 104.731 22.6993ZM104.46 19.8378C104.313 19.8336 104.167 19.8653 104.035 19.9301C103.902 19.995 103.788 20.091 103.701 20.21C103.386 20.7032 103.226 21.2789 103.24 21.8636C103.24 22.3853 103.493 22.6081 103.901 22.6081C104.024 22.6114 104.147 22.588 104.261 22.5395C104.374 22.491 104.476 22.4185 104.559 22.327C104.883 21.9877 105.106 21.1318 105.106 20.5544C105.106 20.1189 104.914 19.8378 104.46 19.8378Z" fill="white"/>
<path d="M109.733 22.9069H109.226L108.669 21.0254C108.545 20.6101 108.451 20.1846 108.446 20.134C108.446 20.2024 108.37 20.6708 108.292 21.071L107.922 22.9069H107.438L108.16 19.511H108.702L109.295 21.4711C109.371 21.726 109.425 21.9869 109.457 22.251C109.457 22.1852 109.545 21.6635 109.631 21.2381L109.981 19.511H110.444L109.733 22.9069Z" fill="white"/>
<path d="M114.491 20.091C114.276 19.9185 114.007 19.8286 113.731 19.8378C113.316 19.8378 113.017 20.0682 113.017 20.3695C113.017 20.6228 113.101 20.7342 113.417 20.8633L113.782 21.0128C113.961 21.0632 114.117 21.1734 114.225 21.3249C114.333 21.4764 114.386 21.6603 114.375 21.8459C114.375 22.479 113.82 22.993 112.913 22.993C112.563 23.0028 112.218 22.9038 111.926 22.7094L112.166 22.3397C112.409 22.5111 112.7 22.5999 112.997 22.5929C113.503 22.5929 113.835 22.3169 113.835 21.9421C113.835 21.6889 113.747 21.5369 113.4 21.4027L113.081 21.2812C112.906 21.2384 112.752 21.1361 112.645 20.9919C112.537 20.8477 112.484 20.6706 112.493 20.4911C112.493 19.8833 113.06 19.4402 113.797 19.4402C114.138 19.4339 114.471 19.5408 114.744 19.7441L114.491 20.091Z" fill="white"/>
</g>
</svg>
