<svg width="109" height="16" viewBox="0 0 109 16" fill="none" xmlns="http://www.w3.org/2000/svg">
<path d="M38.4728 15.8529C38.0769 15.783 37.6773 15.7272 37.285 15.6406C36.1541 15.3907 35.1191 14.952 34.3346 14.0605C33.6538 13.2869 33.3899 12.3652 33.3967 11.3532C33.4045 10.181 33.7326 9.07829 34.1906 8.01831C35.6987 4.52643 38.1901 2.0215 41.7957 0.708521C44.1832 -0.161059 46.6245 -0.152191 49.0731 0.481606C49.191 0.512383 49.2233 0.54942 49.168 0.675657C48.8253 1.45969 48.4868 2.2458 48.1607 3.03714C48.0815 3.22962 47.9792 3.16129 47.8572 3.11851C46.0434 2.48263 44.2375 2.50089 42.4785 3.28179C40.31 4.24422 38.6063 5.73508 37.5265 7.87121C37.0769 8.76061 36.8228 9.70479 37.043 10.7069C37.3168 11.9531 38.1129 12.6834 39.3632 12.9338C40.1864 13.0986 41.0179 13.1137 41.853 13.1054C42.0137 13.1038 42.0288 12.9948 42.0711 12.8967C42.7497 11.3161 43.4305 9.73608 44.1003 8.15185C44.1785 7.96719 44.2615 7.89312 44.4748 7.89573C45.552 7.90929 46.6292 7.90511 47.7064 7.89938C47.8885 7.89833 47.9552 7.91294 47.866 8.12003C46.8081 10.5723 45.7554 13.0271 44.7116 15.4856C44.6282 15.6818 44.4852 15.676 44.3366 15.6833C43.4607 15.7261 42.5839 15.7611 41.708 15.8038C41.6209 15.808 41.5166 15.7548 41.4456 15.8539H38.4743L38.4728 15.8529Z" fill="white"/>
<path d="M60.0031 15.8518C59.6468 15.7162 59.2623 15.7313 58.8956 15.6479C57.8904 15.4189 56.9556 15.0501 56.1946 14.3323C55.1627 13.3584 54.8383 12.12 55.0318 10.7731C55.4663 7.74654 56.9494 5.26456 59.1904 3.22024C60.9686 1.59845 63.049 0.566637 65.4386 0.186359C67.196 -0.0932422 68.9336 0.029344 70.6519 0.475871C70.7797 0.509256 70.8204 0.548901 70.7594 0.687658C70.4161 1.47169 70.0823 2.25937 69.7479 3.04705C69.7051 3.14721 69.6681 3.19781 69.5387 3.15086C66.8987 2.19416 64.4892 2.71894 62.2555 4.30317C60.8372 5.3089 59.689 6.55197 58.9864 8.16072C58.6155 9.01048 58.4272 9.89936 58.663 10.8164C58.9749 12.0308 59.7923 12.7173 61.0213 12.9432C62.2816 13.1748 63.5461 13.1247 64.8116 13.0193C65.6504 12.9494 66.4845 12.8357 67.3134 12.6865C67.3703 12.6761 67.4318 12.6536 67.5027 12.7022C67.0865 13.6479 66.6676 14.5957 66.2518 15.5451C66.1767 15.7162 66.0187 15.6766 65.8914 15.6828C65.0156 15.7272 64.1392 15.7605 63.2628 15.8018C63.1841 15.8054 63.0881 15.7559 63.0265 15.8513H60.0031V15.8518Z" fill="white"/>
<path d="M0 15.5399C0.0938958 15.4904 0.103807 15.3866 0.142409 15.3052C0.525817 14.5019 0.908181 13.6975 1.28063 12.8889C1.35001 12.7392 1.42148 12.6704 1.60301 12.6709C5.66766 12.6777 9.7323 12.6772 13.7969 12.6725C14.0046 12.6725 14.0541 12.6985 13.954 12.9051C13.5502 13.7371 13.1585 14.5754 12.7693 15.4142C12.7078 15.5472 12.6394 15.6088 12.4798 15.6083C8.3802 15.6031 4.28113 15.6041 0.181532 15.6036C0.121021 15.6036 0.0605106 15.5958 0 15.5921C0 15.5749 0 15.5577 0 15.5399Z" fill="#0071B8"/>
<path d="M103.113 5.61349C102.796 5.92021 102.476 6.22329 102.163 6.53367C100.167 8.51174 98.1717 10.4903 96.1806 12.4731C96.0539 12.5993 95.9282 12.6525 95.7482 12.6505C94.888 12.6416 94.0278 12.6385 93.1681 12.652C92.9595 12.6552 92.8896 12.5868 92.8478 12.3922C92.3481 10.0422 91.84 7.69328 91.334 5.34484C91.3236 5.29529 91.3288 5.23895 91.2694 5.20348C91.1859 5.27025 91.1718 5.37614 91.1348 5.46586C89.7608 8.78873 88.3867 12.1116 87.0216 15.4381C86.9439 15.6275 86.8599 15.6984 86.6486 15.6953C85.6586 15.6823 84.668 15.6864 83.6779 15.6927C83.4943 15.6937 83.4311 15.6744 83.5167 15.4705C85.6549 10.3777 87.7884 5.28329 89.9178 0.186831C89.9778 0.0428569 90.0513 8.21462e-05 90.2026 0.00060379C91.5406 0.00634187 92.8781 0.0079068 94.2161 -0.000961139C94.4003 -0.00200443 94.4655 0.0496383 94.5025 0.22804C95.0231 2.7241 95.552 5.2186 96.0794 7.71362C96.0972 7.79813 96.1186 7.88159 96.1478 8.00574C96.3465 7.80074 96.5249 7.61556 96.7054 7.43194C99.0877 5.00682 101.471 2.58222 103.853 0.157097C103.939 0.0699824 104.017 -0.00096114 104.16 -0.000439496C105.715 0.00582023 107.27 0.00321201 108.825 0.00373365C108.858 0.00373365 108.891 0.010515 108.95 0.0167747C108.656 0.750206 108.367 1.4706 108.078 2.19046C106.307 6.61087 104.533 11.0313 102.768 15.4543C102.694 15.64 102.605 15.6953 102.411 15.6932C101.403 15.6833 100.395 15.6823 99.3877 15.6932C99.153 15.6958 99.1363 15.6395 99.2182 15.4366C100.496 12.2707 101.767 9.10172 103.039 5.93378C103.078 5.83779 103.11 5.73868 103.144 5.64113C103.148 5.62079 103.161 5.58741 103.154 5.58323C103.126 5.56497 103.12 5.59106 103.114 5.61244L103.113 5.61349Z" fill="white"/>
<path d="M23.7035 5.37291C23.6044 5.4209 23.5991 5.51688 23.5668 5.59252C22.1704 8.85958 20.7744 12.1266 19.3858 15.3968C19.3071 15.5825 19.2147 15.6488 19.0066 15.6467C17.8605 15.6342 16.7145 15.6409 15.5377 15.6409C15.6347 15.4083 15.7218 15.1944 15.8131 14.9826C17.9143 10.0802 20.017 5.17834 22.1119 0.273323C22.2011 0.0646661 22.3055 0.000503924 22.5303 0.00311214C23.5814 0.0166749 24.633 0.0187614 25.6836 0.00206886C25.9251 -0.00158265 26.006 0.080837 26.0649 0.297319C26.8057 3.02447 27.5553 5.74954 28.3023 8.47512C28.3179 8.53303 28.3179 8.59667 28.391 8.64935C28.7645 7.78342 29.1364 6.92271 29.5068 6.06096C30.3388 4.12253 31.1724 2.18515 31.996 0.243068C32.0722 0.0631011 32.1609 0.0025905 32.3565 0.00415543C33.5025 0.0140667 34.6491 0.00885022 35.7936 0.00885022C35.8296 0.115265 35.7654 0.186209 35.7331 0.261847C33.5688 5.31605 31.4019 10.3692 29.2418 15.425C29.1677 15.5982 29.078 15.6498 28.8964 15.6467C28.2016 15.6362 27.5062 15.6336 26.8114 15.6477C26.5944 15.6519 26.501 15.595 26.4411 15.3739C25.559 12.1209 24.6654 8.87105 23.7744 5.62017C23.752 5.53879 23.728 5.45794 23.7035 5.37291Z" fill="white"/>
<path d="M67.2581 15.6573C67.7317 15.0459 68.1647 14.4857 68.5987 13.9259C72.1407 9.35999 75.6837 4.79457 79.2225 0.226012C79.3164 0.104991 79.4082 0.05074 79.5652 0.0517832C80.8855 0.058043 82.2058 0.0590862 83.5261 0.0517832C83.717 0.05074 83.7655 0.0809953 83.7457 0.292261C83.5704 2.1441 83.4144 3.99749 83.2491 5.85037C83.0837 7.70325 82.9131 9.55509 82.7467 11.408C82.6268 12.7434 82.5052 14.0793 82.3962 15.4158C82.3795 15.6197 82.3054 15.6641 82.1129 15.662C81.0879 15.6526 80.0629 15.6526 79.0384 15.662C78.8448 15.6635 78.8088 15.6041 78.8297 15.4251C78.9299 14.5749 79.0144 13.7225 79.1156 12.8722C79.1333 12.7215 79.1051 12.6787 78.9502 12.6792C77.0478 12.6818 75.1459 12.6813 73.2434 12.6735C73.0932 12.6729 73.0285 12.7554 72.9544 12.8514C72.281 13.7215 71.6034 14.5884 70.9362 15.4632C70.824 15.6098 70.7077 15.6635 70.5241 15.662C69.4568 15.6531 68.3895 15.6578 67.2576 15.6578L67.2581 15.6573ZM75.3227 9.75748H75.6576C76.8031 9.75748 77.9487 9.74705 79.0942 9.76531C79.3602 9.76948 79.426 9.68341 79.4494 9.4398C79.5538 8.36469 79.6784 7.29115 79.7942 6.21709C79.8845 5.37829 79.9732 4.53948 80.0702 3.62817C78.4734 5.68971 76.9184 7.69699 75.3222 9.75748H75.3227Z" fill="white"/>
<path d="M49.0705 15.654C48.5405 15.654 48.0105 15.654 47.4805 15.654C47.1827 15.654 47.1816 15.6529 47.2979 15.3817C48.517 12.5371 49.7366 9.69314 50.9562 6.84914C51.8962 4.65667 52.8399 2.46525 53.7726 0.269127C53.8503 0.0865514 53.9421 0.0307355 54.1351 0.0323005C55.2123 0.04169 56.2895 0.04169 57.3667 0.0323005C57.5837 0.0302139 57.6082 0.0714237 57.5232 0.27017C55.3495 5.32907 53.181 10.3906 51.0157 15.4531C50.9526 15.6008 50.8806 15.6623 50.7121 15.6587C50.1649 15.6467 49.6177 15.6545 49.0705 15.6545V15.654Z" fill="white"/>
<path d="M16.8016 6.35822C16.4255 7.15529 16.0317 7.90646 15.7161 8.68893C15.5246 9.1631 15.2779 9.31594 14.7516 9.31177C10.8606 9.28308 6.96917 9.29612 3.07771 9.29612H2.79498C2.75586 9.21109 2.81115 9.15423 2.8388 9.09529C3.2389 8.2424 3.64474 7.3916 4.04171 6.53715C4.10326 6.40413 4.17108 6.3457 4.32914 6.3457C8.4376 6.35092 12.5461 6.34988 16.6545 6.34988C16.689 6.34988 16.7239 6.35353 16.8016 6.3577V6.35822Z" fill="#0071B8"/>
<path d="M5.41727 2.95462C5.86484 2.00367 6.30354 1.07514 6.73755 0.145051C6.79076 0.0313326 6.88048 0.0402005 6.97594 0.0402005C7.48819 0.0407221 8.00045 0.0402005 8.5127 0.0402005C12.0468 0.0402005 15.581 0.0402005 19.1151 0.0402005C19.2173 0.0402005 19.3201 0.0402005 19.4203 0.0402005C19.4349 0.136705 19.389 0.193042 19.3603 0.254074C18.9628 1.09862 18.5632 1.94211 18.1688 2.78822C18.113 2.90767 18.0583 2.97445 17.9049 2.97445C13.7714 2.96871 9.63841 2.96923 5.50491 2.96871C5.48769 2.96871 5.47048 2.96349 5.41675 2.95514L5.41727 2.95462Z" fill="#0071B8"/>
</svg>
