<svg width="81" height="38" viewBox="0 0 81 38" fill="none" xmlns="http://www.w3.org/2000/svg">
<path d="M45.4156 31.8625C42.6157 32.0327 40.108 32.4469 37.6409 32.2657C34.5821 32.0401 32.6736 29.2216 32.8585 25.8669C33.0619 22.1867 34.9261 19.7603 38.2475 19.4866C34.8484 21.066 34.3158 23.7032 34.5155 26.603C34.7152 29.5508 36.5017 31.3299 39.4311 31.6184C40.1634 31.6924 40.9106 31.6813 41.6429 31.6184C44.957 31.3336 45.2751 30.9526 45.3046 27.6608C45.349 22.7748 45.2196 23.9436 49.1994 24.4096C51.8551 24.7203 54.3628 25.5895 56.2158 27.7052C56.8483 27.4795 57.4253 27.2724 58.0393 27.0542C57.773 26.8286 57.5733 26.9839 57.3476 26.7916C58.4203 26.0592 59.3967 25.9668 60.7542 27.0209C61.2683 27.4204 62.1079 27.7015 62.733 27.6053C68.0998 26.7916 72.8046 24.5243 76.899 20.9513C77.3836 20.5297 78.0459 20.3077 78.6259 19.9934L78.9999 20.5704C78.6009 20.992 78.2269 21.4469 77.7941 21.8316C73.7958 25.4046 69.0837 27.5054 63.8833 28.6705C62.5665 28.9664 61.3423 29.6433 60.0588 30.1056C59.43 30.3313 58.7384 30.4015 58.1355 30.6715C57.4919 30.96 56.7189 31.2633 56.3453 31.7996C54.5773 34.3185 52.0622 35.6056 49.2105 36.3786C48.9035 36.46 48.5336 36.301 48.0713 35.8978C48.4375 35.7018 48.8147 35.5242 49.1698 35.3097C50.8416 34.3074 52.6688 33.4826 54.1335 32.2324C55.9384 30.6937 55.7202 29.0774 53.808 27.609C51.8477 26.1036 49.5693 25.4674 46.7065 25.3084C46.8803 28.1749 47.0393 30.9046 47.2095 33.6342C47.2354 34.0633 47.3981 34.5182 47.2946 34.914C47.2095 35.2468 46.8359 35.5057 46.5918 35.7979C46.3218 35.5427 45.8706 35.3171 45.8151 35.0212C45.6042 33.8857 45.5192 32.728 45.4156 31.8588V31.8625ZM56.9075 29.9244C57.7952 29.7358 58.6829 29.6914 59.3967 29.3141C59.663 29.1736 59.5114 28.2489 59.5632 27.4943C58.1873 28.0159 56.6671 27.7163 56.9075 29.9244Z" fill="white"/>
<path d="M15.2048 13.3617C15.0199 13.3617 14.8387 13.2692 14.7351 13.1028C14.7277 13.0954 14.1618 12.2003 12.8895 10.8577C12.7822 10.743 12.723 10.7282 12.723 10.7282C12.7341 10.7319 12.3457 10.8983 11.9093 12.7218C11.7835 13.247 11.4802 13.3099 11.2472 13.2729L10.7405 13.1915L10.7812 12.707C10.6998 12.4185 10.1302 11.3829 9.62352 10.5618C9.46442 10.2991 9.54212 9.95885 9.80472 9.79975C10.0673 9.64075 10.4076 9.72215 10.5667 9.98105C10.8441 10.4323 11.0623 10.8059 11.2361 11.1166C11.5727 10.2511 11.9685 9.78495 12.4641 9.65185C12.76 9.57045 13.2149 9.58525 13.6958 10.092C15.0532 11.5234 15.6524 12.4703 15.6783 12.511C15.841 12.7699 15.7633 13.1102 15.5044 13.2766C15.412 13.3358 15.3121 13.3617 15.2085 13.3617H15.2048Z" fill="white"/>
<path d="M18.0195 15.9212C17.1983 15.9212 16.3735 15.3183 16.0443 15.0816C15.7965 14.9003 15.7447 14.5526 15.9223 14.3048C16.1035 14.057 16.4512 14.0015 16.699 14.1828C17.5349 14.7931 18.0305 14.8781 18.2081 14.7561C18.8258 14.3344 18.6297 11.675 18.0601 9.45213C17.9825 9.15623 18.1637 8.85293 18.4596 8.77533C18.7555 8.69763 19.0588 8.87883 19.1365 9.17473C20.4162 14.1458 19.2289 15.407 18.8332 15.6734C18.5743 15.8472 18.2969 15.9175 18.0195 15.9175V15.9212Z" fill="white"/>
<path d="M21.6294 13.7094C21.3853 13.7094 21.1634 13.6502 20.9636 13.5282C20.4347 13.2101 20.1758 12.5443 20.1758 11.4865C20.1758 9.99587 20.5605 8.94547 21.3187 8.36107C22.2101 7.67307 23.2531 7.93937 23.2975 7.95047L23.3234 7.95787C24.1297 8.21307 24.6106 8.92327 24.6365 9.89967C24.6808 11.4865 24.0188 12.696 22.7205 13.3876C22.3211 13.6021 21.9549 13.7094 21.6294 13.7094ZM22.7464 9.00087C22.5393 9.00087 22.2434 9.04527 21.9845 9.25247C21.5258 9.61487 21.2854 10.388 21.2854 11.4902C21.2854 12.4038 21.5074 12.5628 21.5332 12.5776C21.6109 12.622 21.8291 12.6072 22.199 12.4112C23.1274 11.9155 23.5601 11.1055 23.5306 9.93297C23.5121 9.21917 23.157 9.07487 23.009 9.02677C22.9757 9.01937 22.8796 9.00087 22.7501 9.00087H22.7464Z" fill="white"/>
<path d="M31.235 17.3748C30.425 17.3748 29.5853 16.6461 28.9899 16.0469C28.7716 15.8287 28.7716 15.4773 28.9899 15.2628C29.2081 15.0483 29.5595 15.0446 29.774 15.2628C30.9058 16.3983 31.2868 16.2578 31.2905 16.2541C31.3829 16.2171 31.6196 15.8805 31.6196 14.8042C31.6196 14.0903 30.817 12.1781 30.0514 10.5728C29.5779 11.4272 28.7679 11.7786 28.2612 11.8452C28.239 11.8452 28.2131 11.8489 28.1872 11.8489C27.2071 11.8489 26.4192 11.5382 25.8459 10.9279C24.8066 9.82199 24.8991 8.14279 24.9028 8.07249C24.9213 7.76549 25.1839 7.53249 25.4909 7.55469C25.7979 7.57319 26.0272 7.83579 26.0087 8.14279C26.0087 8.16499 25.9495 9.42619 26.656 10.1734C27.011 10.5469 27.4956 10.7319 28.1428 10.743C28.35 10.7023 29.319 10.4323 29.319 8.97129C29.319 8.71609 29.4929 8.49419 29.7407 8.43129C29.9885 8.36839 30.2474 8.48679 30.3658 8.71239C30.6062 9.17839 32.7292 13.2951 32.7292 14.8005C32.7292 16.1653 32.389 16.9975 31.7158 17.2749C31.5568 17.3415 31.3977 17.3711 31.235 17.3711V17.3748Z" fill="white"/>
<path d="M8.41032 6.38598C7.40422 6.10118 6.36492 5.92738 5.31822 5.85708C4.81882 5.82378 4.31952 5.81268 3.82022 5.82748C3.28762 5.84228 2.76242 5.85338 2.27042 6.07528C2.00042 6.19738 1.93012 6.59308 2.07072 6.83358C2.23342 7.11468 2.55522 7.15538 2.82892 7.03328C3.16922 6.87788 3.66852 6.93708 4.03102 6.93338C4.49332 6.92598 4.95942 6.94078 5.42172 6.97778C6.33532 7.04808 7.23412 7.21078 8.11072 7.45858C8.79862 7.65468 9.09082 6.58208 8.40662 6.38968L8.41032 6.38598Z" fill="white"/>
<path d="M2.89898 6.45989C2.62528 7.97259 2.63638 9.49649 2.72508 11.0241C2.81388 12.5516 2.91378 14.0829 3.35388 15.5513C3.56098 16.2318 4.62998 15.9433 4.42278 15.2554C4.00858 13.8795 3.91978 12.4481 3.83468 11.0241C3.74968 9.60009 3.71268 8.16499 3.96788 6.75569C4.09358 6.05669 3.02468 5.75709 2.89898 6.45989Z" fill="white"/>
<path d="M3.82382 15.9766C4.72262 16.1837 5.64362 16.2133 6.56092 16.143C7.37092 16.0801 8.23642 15.9729 8.90592 15.4661C9.14262 15.2849 9.26832 14.989 9.10562 14.7079C8.96872 14.4749 8.58782 14.3269 8.34742 14.5082C7.80742 14.9224 7.13422 14.9927 6.47582 15.0408C5.68802 15.0963 4.89282 15.0889 4.11972 14.9076C3.82752 14.8411 3.52052 14.9964 3.43552 15.296C3.35782 15.5771 3.53162 15.91 3.82382 15.9803V15.9766Z" fill="white"/>
<path d="M4.06425 10.9944C4.00505 11.0758 4.07165 11.0018 4.12335 10.9722C4.20845 10.9242 4.10855 10.9722 4.20845 10.9353C4.37495 10.8798 4.53765 10.8206 4.70405 10.7725C5.01475 10.6837 5.32915 10.6135 5.64725 10.5543C6.28715 10.4396 6.93445 10.3804 7.58165 10.325C7.88125 10.2991 8.13645 10.0883 8.13645 9.77022C8.13645 9.49282 7.88125 9.18952 7.58165 9.21542C6.78645 9.28562 5.99125 9.35962 5.20715 9.51132C4.84095 9.58152 4.47845 9.67032 4.12335 9.78872C3.71655 9.92182 3.36145 10.0698 3.10625 10.4322C2.93245 10.6763 3.06185 11.0499 3.30595 11.1905C3.58335 11.3532 3.89035 11.2349 4.06425 10.9907V10.9944Z" fill="white"/>
<path d="M36.4946 14.6304C35.6882 12.7811 35.5292 10.6506 35.3221 8.66812C35.0928 6.48222 34.9818 4.27772 35.2333 2.08441C35.2851 1.63686 34.8154 1.2522 34.4011 1.2522C33.9092 1.2522 33.6207 1.63686 33.5689 2.08441C33.3026 4.39612 33.4394 6.72262 33.6946 9.02692C33.9499 11.3312 34.1644 13.432 35.0558 15.47C35.237 15.8806 35.8399 15.9767 36.195 15.7696C36.6203 15.5218 36.6758 15.0447 36.4946 14.6304Z" fill="#00AAE0"/>
<path d="M34.2233 2.83513C35.4291 3.14582 36.72 3.46391 37.726 4.24066C38.7838 5.05436 39.3387 6.44876 39.5273 7.73596C39.7159 9.02306 39.4459 10.3768 38.6174 11.4347C37.7445 12.5517 36.4943 13.284 35.2886 13.9794C34.3602 14.512 35.1961 15.9508 36.1282 15.4182C37.6188 14.5638 39.0797 13.6206 40.1043 12.2114C41.1288 10.8022 41.3951 9.12296 41.1547 7.45116C40.9291 5.87916 40.2374 4.20736 39.0095 3.15692C37.7815 2.10649 36.2132 1.62565 34.6672 1.22989C33.6278 0.963583 33.1877 2.56882 34.2233 2.83513Z" fill="#00AAE0"/>
<path d="M42.172 8.04675C42.4383 9.64455 42.9117 11.1832 43.5479 12.67C43.718 13.0732 44.3431 13.1916 44.6871 12.9696C45.1051 12.6996 45.1679 12.2595 44.9867 11.8304C44.946 11.738 44.9423 11.7306 44.9756 11.8008C44.9534 11.7491 44.9349 11.701 44.9127 11.6492C44.8831 11.5715 44.8498 11.4976 44.8203 11.4199C44.75 11.2423 44.6834 11.0611 44.6205 10.8799C44.4948 10.5285 44.3838 10.1771 44.2802 9.81835C44.0694 9.09345 43.903 8.35365 43.7809 7.60655C43.7106 7.17755 43.1558 6.89645 42.7564 7.02585C42.2903 7.17755 42.098 7.58805 42.1757 8.05045L42.172 8.04675Z" fill="#00AAE0"/>
<path d="M54.5626 8.04675C54.8289 9.64455 55.3024 11.1832 55.9386 12.67C56.1087 13.0732 56.7338 13.1916 57.0778 12.9696C57.4957 12.6996 57.5586 12.2595 57.3774 11.8304C57.3367 11.738 57.333 11.7306 57.3663 11.8008C57.3441 11.7491 57.3256 11.701 57.3034 11.6492C57.2738 11.5715 57.2405 11.4976 57.2109 11.4199C57.1406 11.2423 57.0741 11.0611 57.0112 10.8799C56.8854 10.5285 56.7745 10.1771 56.6709 9.81835C56.4601 9.09345 56.2936 8.35365 56.1716 7.60655C56.1013 7.17755 55.5465 6.89645 55.147 7.02585C54.681 7.17755 54.4887 7.58805 54.5663 8.05045L54.5626 8.04675Z" fill="#00AAE0"/>
<path d="M50.7716 5.50168C49.8358 4.82848 48.3452 4.74349 47.3872 5.42399C46.3479 6.16379 46.1001 7.49159 45.9595 8.67889C45.8893 9.25589 45.8079 9.93649 46.0002 10.4987C46.1926 11.0609 46.7104 11.5269 47.317 11.649C48.6078 11.9116 49.5806 10.9906 50.2463 9.99929C50.975 8.91189 51.3671 7.61739 51.4225 6.31539C51.441 5.87899 51.0268 5.46469 50.5903 5.48319C50.1243 5.50539 49.7766 5.84939 49.7581 6.31539C49.7544 6.43009 49.747 6.54099 49.7359 6.65569C49.7322 6.69639 49.7285 6.74079 49.7211 6.78149C49.7063 6.92199 49.7396 6.67049 49.7174 6.81099C49.6841 7.02189 49.6435 7.22899 49.588 7.43239C49.4733 7.87629 49.3587 8.16849 49.1922 8.50139C49.096 8.68999 48.9925 8.87489 48.8778 9.05249C48.826 9.13379 48.7706 9.21889 48.7114 9.29659C48.6781 9.34099 48.6448 9.38899 48.6115 9.43339C48.6781 9.34469 48.593 9.45189 48.5671 9.48519C48.4488 9.62579 48.3193 9.75889 48.1788 9.87729C48.0752 9.95869 48.2712 9.81809 48.1603 9.88839C48.127 9.90689 48.0937 9.92909 48.0604 9.95129C48.016 9.97709 47.9679 10.003 47.9236 10.0215C48.0271 9.97709 47.9273 10.0104 47.8718 10.0289C47.8422 10.04 47.8089 10.0437 47.7756 10.0511C47.9457 10.0104 47.8533 10.0437 47.8015 10.04C47.7608 10.0363 47.709 10.0363 47.6683 10.0363C47.6905 10.0363 47.8015 10.077 47.7275 10.04C47.6942 10.0252 47.6388 10.0104 47.6018 10.0067C47.5167 9.99559 47.6351 10.0178 47.6535 10.0289C47.6203 10.0067 47.5796 9.98449 47.5426 9.96599C47.6794 10.0511 47.5204 9.95129 47.5907 10.0104C47.6683 10.077 47.5796 10.003 47.5648 9.96599C47.5389 9.88839 47.5722 9.97709 47.5759 9.98819C47.5278 9.85509 47.5537 9.92539 47.5611 9.97339C47.5537 9.92169 47.5537 9.86619 47.5537 9.81439C47.5463 9.58509 47.5611 9.35209 47.5796 9.12269C47.5981 8.86749 47.6129 8.73439 47.6462 8.52719C47.6831 8.29789 47.7275 8.06858 47.783 7.84298C47.8311 7.65438 47.8866 7.46938 47.9531 7.28818C47.9014 7.42128 47.9938 7.21419 48.0123 7.17349C48.0382 7.12909 48.0604 7.08479 48.09 7.04409C48.1085 7.01449 48.2121 6.88869 48.1159 6.99969C48.1825 6.92569 48.2527 6.84799 48.3304 6.78519C48.2158 6.87389 48.4414 6.73339 48.4821 6.71119C48.3637 6.77779 48.4599 6.71859 48.4932 6.71119C48.556 6.69269 48.6152 6.67419 48.6781 6.65939C48.7151 6.65199 48.7521 6.64458 48.7928 6.63718C48.6374 6.67048 48.8038 6.63718 48.8408 6.63718C48.9592 6.62978 49.0702 6.63719 49.1885 6.64459C49.17 6.64459 49.0591 6.61869 49.1626 6.64089C49.2329 6.65569 49.2995 6.66679 49.3698 6.68529C49.4252 6.70009 49.477 6.71488 49.5325 6.73338C49.5732 6.74448 49.6509 6.77779 49.5695 6.74079C49.6989 6.79629 49.8173 6.87389 49.9283 6.95529C50.2833 7.21049 50.8714 7.02929 51.0675 6.65569C51.2968 6.22669 51.1488 5.79018 50.7679 5.51648L50.7716 5.50168Z" fill="#00AAE0"/>
<path d="M50.4386 7.83935C51.3115 7.82825 51.5409 9.05995 51.6925 9.70725C51.9366 10.7725 52.1326 11.9339 51.9884 13.025C51.9366 13.4245 51.8293 13.8683 51.5519 14.1716C51.2745 14.4749 50.8122 14.634 50.4201 14.7412C49.5879 14.9705 48.7298 14.9336 48.0086 14.4342C47.6387 14.179 47.0839 14.364 46.8694 14.7338C46.629 15.1481 46.7954 15.6178 47.169 15.873C48.2749 16.6387 49.7322 16.6941 50.9897 16.3132C51.6629 16.1098 52.3509 15.7917 52.8169 15.2554C53.2829 14.719 53.5049 14.0792 53.6047 13.406C53.8304 11.9043 53.5825 10.2991 53.1942 8.84175C52.8391 7.51385 51.981 6.16015 50.4423 6.17865C49.3734 6.18975 49.3697 7.85415 50.4423 7.84305L50.4386 7.83935Z" fill="#00AAE0"/>
<path d="M59.0196 8.26105C59.7076 7.92085 60.6914 7.67305 61.4275 7.58425C62.3485 7.47325 63.2805 7.45845 64.2089 7.45105C64.6602 7.45105 65.0411 7.07015 65.0411 6.61885C65.0411 6.16765 64.6602 5.78295 64.2089 5.78665C62.1487 5.80145 60.0627 5.89765 58.18 6.82225C57.7769 7.02205 57.6659 7.59165 57.8804 7.96155C58.1208 8.37205 58.6128 8.46085 59.0196 8.26105Z" fill="#00AAE0"/>
<path d="M60.4806 4.26286C60.7321 5.97536 61.0206 7.68046 61.3609 9.37816C61.5236 10.1993 61.6975 11.0204 61.8824 11.8341C61.9786 12.2595 62.0267 12.7773 62.3521 13.1028C62.7035 13.4542 63.177 13.4579 63.606 13.2581C64.0351 13.0584 64.1164 12.4814 63.9056 12.1189C63.6615 11.701 63.177 11.6307 62.7664 11.8193L62.6887 11.8563L63.3286 11.7713L63.3619 11.7935L63.6615 12.093C63.5209 11.8563 63.495 11.4125 63.4359 11.1462C63.3582 10.7911 63.2805 10.436 63.2065 10.0809C63.0623 9.39666 62.9254 8.71236 62.796 8.02816C62.5297 6.63006 62.2967 5.22446 62.0932 3.81529C62.0267 3.37145 61.4645 3.12733 61.0687 3.2346C60.5916 3.36405 60.4214 3.8116 60.488 4.25916L60.4806 4.26286Z" fill="#00AAE0"/>
<path d="M71.6803 8.31649C71.4103 6.90729 69.8864 5.50549 68.3773 5.94559C67.6043 6.17129 67.0754 6.911 66.6685 7.562C66.2617 8.2129 65.9658 8.9194 65.8067 9.6554C65.6366 10.4433 65.6218 11.2348 65.7549 12.03C65.877 12.755 66.1396 13.6537 66.6722 14.1901C67.2714 14.7966 68.3514 14.7597 69.1245 14.5821C69.8494 14.4157 70.4893 13.9718 70.9479 13.3948C71.5249 12.6699 71.8245 11.7933 71.9651 10.8871C72.1056 9.98089 72.2129 9.0341 71.7468 8.1944C71.2253 7.2587 69.7865 8.09829 70.308 9.03409C70.5189 9.41499 70.4264 9.9328 70.3709 10.3434C70.3043 10.8427 70.2045 11.3716 69.9826 11.8266C69.7976 12.2038 69.5461 12.5552 69.1836 12.7772C68.7694 13.0287 68.3773 12.9917 67.9113 13.0065C67.878 13.0065 67.8262 12.9769 67.7929 12.9806C67.8447 12.9732 67.8891 13.1507 67.8521 13.0176C67.8225 12.9214 67.7374 12.8141 67.6894 12.7217C67.5784 12.4923 67.5007 12.2482 67.4415 12.0041C67.3158 11.5011 67.2862 10.9796 67.3454 10.4655C67.4489 9.52969 67.878 8.57539 68.4846 7.85789C68.6103 7.70989 68.7361 7.5398 68.9284 7.5324C69.1318 7.525 69.3094 7.63959 69.461 7.74689C69.7939 7.97619 69.99 8.33499 70.0676 8.75669C70.1527 9.19679 70.6816 9.452 71.0922 9.3373C71.5545 9.2116 71.7579 8.75669 71.6729 8.31279L71.6803 8.31649Z" fill="#00AAE0"/>
<path d="M74.0661 12.4001C73.6333 11.4569 73.2634 10.4841 72.9564 9.48917C72.679 8.59777 72.2833 7.55097 72.4608 6.60417C72.5422 6.16397 72.3388 5.70537 71.8801 5.57957C71.477 5.46867 70.9369 5.71647 70.8556 6.16027C70.6226 7.40677 70.9517 8.62367 71.3142 9.81467C71.6767 11.0056 72.1168 12.1264 72.6273 13.236C72.8159 13.6428 73.404 13.7464 73.7665 13.5356C74.1844 13.2914 74.2547 12.8069 74.0661 12.3964V12.4001Z" fill="#00AAE0"/>
<path d="M74.4839 4.57339C74.5838 6.34509 74.7724 8.10939 75.0424 9.85889C75.1756 10.7133 75.3272 11.564 75.5011 12.411C75.6527 13.1582 75.8228 13.8905 76.385 14.4453C77.1433 15.2035 78.323 14.0274 77.5612 13.2691C77.1692 12.8808 77.1396 12.1299 77.036 11.6195C76.8807 10.8317 76.7401 10.0364 76.6218 9.24119C76.3887 7.69519 76.2371 6.13429 76.1483 4.57339C76.0892 3.50821 74.421 3.50081 74.4839 4.57339Z" fill="#00AAE0"/>
<path d="M18.1341 7.81725C18.4928 7.81725 18.4928 7.26245 18.1341 7.26245C17.7753 7.26245 17.7753 7.81725 18.1341 7.81725Z" fill="white"/>
<path d="M42.7711 5.72016C42.9264 5.72016 43.0522 5.59426 43.0522 5.43906C43.0522 5.28386 42.9264 5.15796 42.7711 5.15796C42.6159 5.15796 42.49 5.28386 42.49 5.43906C42.49 5.59426 42.6159 5.72016 42.7711 5.72016Z" fill="#00AAE0"/>
<path d="M55.3319 5.72016C55.4872 5.72016 55.613 5.59426 55.613 5.43906C55.613 5.28386 55.4872 5.15796 55.3319 5.15796C55.1767 5.15796 55.0508 5.28386 55.0508 5.43906C55.0508 5.59426 55.1767 5.72016 55.3319 5.72016Z" fill="#00AAE0"/>
</svg>
