<svg width="166" height="42" viewBox="0 0 166 42" fill="none" xmlns="http://www.w3.org/2000/svg">
<path d="M114.695 34.047C107.597 34.047 104.862 27.5131 104.862 20.873C104.862 14.2329 107.597 7.7034 114.695 7.7034C121.786 7.7034 124.529 14.2329 124.529 20.873C124.529 27.5131 121.786 34.047 114.695 34.047ZM114.695 1.02407C103.518 1.02407 97.0642 9.39905 97.0642 20.873C97.0642 32.3513 103.518 40.7249 114.695 40.7249C125.867 40.7249 132.319 32.3513 132.319 20.873C132.319 9.39905 125.867 1.02407 114.695 1.02407Z" fill="#003F98"/>
<path d="M0.552582 2.13748H28.5598V8.81826H8.34295V17.1278H27.1957V23.6399H8.34295V32.9339H28.5598V39.6118H0.552582V2.13748Z" fill="#003F98"/>
<path d="M46.7406 21.6914H39.6875V8.81704V8.80977H46.7406C51.6428 8.80977 54.9032 10.9431 54.9032 15.2521C54.9032 19.5595 51.6428 21.6914 46.7406 21.6914ZM31.9 39.6106H39.6875V28.3664H46.7406C56.2862 28.3664 62.6921 23.6779 62.6921 15.2521C62.6921 6.82473 56.2862 2.13771 46.7406 2.13771H31.9V39.6106Z" fill="#003F98"/>
<path d="M143.26 2.13748H135.262V39.6118H142.899V24.4324C142.899 20.2777 142.751 16.5926 142.61 13.3337C143.51 15.2097 146.246 20.8463 147.507 22.9637L157.448 39.6118H165.446V2.13748H157.808V16.9373C157.808 21.0877 157.961 25.1596 158.098 28.4113C157.198 26.5353 154.469 20.9016 153.19 18.7871L143.26 2.13748Z" fill="#003F98"/>
<path d="M71.5393 27.2134C71.5393 32.2494 75.7289 34.2068 80.1847 34.2068C83.0932 34.2068 87.8166 33.3634 87.8166 29.4951C87.8166 25.4101 82.0462 24.6379 76.4779 23.1561C70.6391 21.6102 65.0155 19.4201 65.0155 12.4761C65.0155 4.73518 72.3377 1.02396 79.1769 1.02396C87.0735 1.02396 94.336 4.47051 94.336 13.2163H86.5441C86.2795 8.65872 82.7806 7.48951 78.8047 7.48951C76.1521 7.48951 72.8117 8.60346 72.8117 11.7882C72.8117 14.7025 74.7182 15.1519 84.2013 17.5936C86.9615 18.2829 95.6099 19.9524 95.6099 28.5367C95.6099 35.4851 90.1492 40.6753 79.859 40.6753C71.4884 40.6753 63.6427 36.5438 63.746 27.2134H71.5393Z" fill="#003F98"/>
</svg>
