<svg width="117" height="22" viewBox="0 0 117 22" fill="none" xmlns="http://www.w3.org/2000/svg">
<mask id="mask0_12_2932" style="mask-type:luminance" maskUnits="userSpaceOnUse" x="0" y="0" width="117" height="22">
<path d="M116.84 0H0V21.04H116.84V0Z" fill="white"/>
</mask>
<g mask="url(#mask0_12_2932)">
<path d="M6.92997 15.6499C6.92997 15.9426 6.84317 16.2287 6.68057 16.4721C6.51797 16.7155 6.28677 16.9052 6.01637 17.0172C5.74591 17.1292 5.44833 17.1586 5.16124 17.1014C4.87415 17.0443 4.61044 16.9034 4.40345 16.6964C4.19647 16.4894 4.05552 16.2257 3.99841 15.9386C3.9413 15.6515 3.97061 15.3539 4.08263 15.0835C4.19465 14.8131 4.38434 14.5819 4.62773 14.4193C4.87111 14.2567 5.15726 14.1699 5.44997 14.1699C5.64433 14.1699 5.83678 14.2082 6.01637 14.2825C6.19587 14.3569 6.35907 14.4659 6.49647 14.6034C6.63397 14.7408 6.74297 14.9039 6.81727 15.0835C6.89167 15.2631 6.92997 15.4555 6.92997 15.6499Z" fill="#E7352C"/>
<path d="M19.8399 14.1099C19.3681 10.8295 17.8466 7.79006 15.5032 5.44656C13.1597 3.10316 10.1203 1.58166 6.83994 1.10986C6.05594 1.52606 5.33255 2.04756 4.68994 2.65986V4.08986C7.91504 4.09246 11.0075 5.37416 13.2889 7.65376C15.5704 9.93336 16.8546 13.0247 16.8599 16.2499H18.2899C18.8967 15.6064 19.4177 14.8871 19.8399 14.1099Z" fill="#E7352C"/>
<path d="M21.0001 9.61989C21.0001 8.35239 20.7496 7.09729 20.2631 5.92689C19.7765 4.75649 19.0634 3.69379 18.1648 2.79979C17.2662 1.90579 16.1998 1.19829 15.0269 0.717787C13.8539 0.237287 12.5976 -0.00671374 11.3301 -0.000113741C10.9901 -0.000113741 10.6601 -0.000113551 10.3301 0.0498865L10.1101 0.689886C12.4515 1.51039 14.5784 2.84679 16.3336 4.60029C18.0888 6.35369 19.4273 8.47929 20.2501 10.8199L20.8901 10.5899C20.8901 10.2699 20.9501 9.94989 20.9501 9.58989" fill="#E7352C"/>
<path d="M11.4401 20.9998C8.41466 20.9998 5.51236 19.8014 3.36838 17.6668C1.22439 15.5322 0.0132725 12.6352 5.25139e-05 9.60978C-0.00451749 8.10678 0.289233 6.61777 0.864273 5.22907C1.43932 3.84037 2.28423 2.57958 3.35005 1.51978L4.00005 2.12977C3.00955 3.11157 2.22334 4.27978 1.68679 5.56708C1.15025 6.85438 0.874003 8.23517 0.874003 9.62977C0.874003 11.0244 1.15025 12.4052 1.68679 13.6925C2.22334 14.9798 3.00955 16.148 4.00005 17.1298C4.98182 18.1203 6.15006 18.9065 7.43736 19.4431C8.72466 19.9796 10.1055 20.2559 11.5001 20.2559C12.8947 20.2559 14.2755 19.9796 15.5628 19.4431C16.8501 18.9065 18.0183 18.1203 19.0001 17.1298L19.6101 17.7398C18.5337 18.7995 17.2567 19.6337 15.8537 20.1935C14.4508 20.7533 12.9503 21.0274 11.4401 20.9998Z" fill="#E7352C"/>
<path d="M11.31 16.9098C11.4131 15.7841 11.2276 14.6506 10.7709 13.6165C10.3143 12.5825 9.60153 11.6819 8.70003 10.9998C7.73413 10.2393 6.57273 9.76769 5.35003 9.63979C5.19716 9.61979 5.05753 9.54269 4.9592 9.42399C4.86087 9.30529 4.81115 9.15369 4.82003 8.99979C4.82627 8.92129 4.84816 8.84479 4.88442 8.77489C4.92068 8.70499 4.97057 8.64309 5.03115 8.59269C5.09173 8.54239 5.16177 8.50469 5.23715 8.48189C5.31252 8.45909 5.3917 8.45149 5.47003 8.45979C7.53393 8.67439 9.42883 9.69749 10.7406 11.3053C12.0523 12.9131 12.6741 14.9749 12.47 17.0398C12.4288 17.4974 12.3417 17.9497 12.21 18.3898L13.95 18.8798C14.4649 18.7317 14.9667 18.5411 15.45 18.3098C15.5794 17.6342 15.6431 16.9477 15.64 16.2598C15.637 13.634 14.6948 11.0958 12.9837 9.10409C11.2726 7.11239 8.90543 5.79839 6.31003 5.39979C5.73154 5.29349 5.13852 5.29349 4.56003 5.39979C3.82774 5.59329 3.16973 6.00059 2.67003 6.56979C2.26715 7.03629 1.9858 7.59509 1.85101 8.19649C1.71623 8.79799 1.73218 9.42339 1.89746 10.0172C2.06273 10.611 2.3722 11.1548 2.79834 11.6001C3.22448 12.0454 3.75408 12.3786 4.34003 12.5698C4.65 12.6437 4.96381 12.7005 5.28003 12.7398C6.09683 12.8791 6.83803 13.3028 7.37243 13.9361C7.90683 14.5693 8.20003 15.3712 8.20003 16.1998C8.20003 16.8707 8.00543 17.5272 7.64003 18.0898L8.84003 18.8598C9.42813 19.0211 10.0313 19.1217 10.64 19.1598C10.9987 18.4399 11.2224 17.6604 11.3 16.8598" fill="#E7352C"/>
<path d="M106.39 3.16992H104.18V17.8699H106.39V3.16992Z" fill="white"/>
<path d="M68.3902 11.7299C68.8468 11.5204 69.2299 11.1787 69.4902 10.7491C69.7505 10.3194 69.876 9.82162 69.8502 9.31992V5.80992C69.8605 5.44882 69.7966 5.08942 69.6625 4.75402C69.5283 4.41862 69.3267 4.11422 69.0702 3.85992C68.5874 3.40882 67.9509 3.15862 67.2902 3.15992H60.9102V17.8899H63.1301V11.9999H65.4002C65.8885 11.9957 66.3615 12.1704 66.7299 12.4909C67.0983 12.8114 67.3367 13.2557 67.4002 13.7399L68.2701 17.9099H70.6902L69.7502 13.9999C69.7048 13.5514 69.559 13.119 69.3236 12.7347C69.0881 12.3503 68.7691 12.024 68.3902 11.7799M63.1301 5.23992H66.9302C67.0333 5.24462 67.1344 5.27062 67.227 5.31622C67.3197 5.36182 67.4019 5.42612 67.4685 5.50492C67.5352 5.58382 67.5847 5.67562 67.6143 5.77452C67.6438 5.87342 67.6527 5.97742 67.6402 6.07992V9.07992C67.6527 9.18242 67.6438 9.28632 67.6143 9.38532C67.5847 9.48422 67.5352 9.57602 67.4685 9.65482C67.4019 9.73372 67.3197 9.79792 67.227 9.84352C67.1344 9.88912 67.0333 9.91512 66.9302 9.91992H63.1301V5.23992Z" fill="white"/>
<path d="M29.09 3.86992C28.8287 4.13112 28.6244 4.44382 28.4901 4.78802C28.3559 5.13232 28.2945 5.50072 28.31 5.86992V15.2699C28.2997 15.631 28.3636 15.9904 28.4977 16.3258C28.6319 16.6612 28.8335 16.9655 29.09 17.2199C29.5739 17.6692 30.2096 17.9192 30.87 17.9199H36.87V15.8199H31.27C31.1665 15.815 31.0651 15.789 30.972 15.7435C30.8789 15.698 30.7961 15.634 30.7286 15.5553C30.6612 15.4767 30.6106 15.385 30.5799 15.2861C30.5491 15.1871 30.539 15.0829 30.55 14.9799V11.1999H36V9.13992H30.52V6.07992C30.509 5.97692 30.5191 5.87272 30.5499 5.77372C30.5806 5.67472 30.6312 5.58312 30.6986 5.50442C30.7661 5.42582 30.8489 5.36172 30.942 5.31622C31.0351 5.27072 31.1365 5.24472 31.24 5.23992H36.84V3.16992H30.84C30.1804 3.17442 29.546 3.42392 29.06 3.86992" fill="white"/>
<path d="M111.24 5.23992H116.84V3.16992H110.84C110.18 3.17442 109.546 3.42392 109.06 3.86992C108.801 4.13252 108.598 4.44542 108.464 4.78942C108.329 5.13332 108.267 5.50102 108.28 5.86992V17.8699H110.49V11.1999H116V9.13992H110.48V6.07992C110.469 5.97692 110.479 5.87272 110.51 5.77372C110.541 5.67472 110.591 5.58312 110.659 5.50442C110.726 5.42582 110.809 5.36172 110.902 5.31622C110.995 5.27072 111.097 5.24472 111.2 5.23992" fill="white"/>
<path d="M45.2002 9.13992H41.7702C41.5642 9.13472 41.3683 9.04912 41.2245 8.90152C41.0806 8.75402 41.0001 8.55602 41.0002 8.34992V6.07992C40.9877 5.97742 40.9965 5.87342 41.026 5.77452C41.0556 5.67562 41.1052 5.58382 41.1719 5.50492C41.2385 5.42612 41.3208 5.36182 41.4134 5.31622C41.506 5.27062 41.6071 5.24462 41.7102 5.23992H47.2002V3.16992H41.3302C40.6706 3.17442 40.0362 3.42392 39.5502 3.86992C39.2889 4.13112 39.0846 4.44382 38.9504 4.78802C38.8161 5.13232 38.7547 5.50072 38.7702 5.86992V8.87992C38.7702 9.56512 39.0417 10.2223 39.5253 10.7078C40.0088 11.1932 40.665 11.4672 41.3502 11.4699H44.7902C44.9997 11.4699 45.2007 11.5531 45.3488 11.7013C45.497 11.8494 45.5802 12.0504 45.5802 12.2599V14.9999C45.5912 15.1029 45.5811 15.2071 45.5503 15.3061C45.5196 15.405 45.469 15.4967 45.4016 15.5753C45.3341 15.654 45.2513 15.718 45.1582 15.7635C45.0651 15.809 44.9637 15.835 44.8602 15.8399H38.7702V17.9099H45.2302C45.5754 17.9116 45.9173 17.8431 46.2352 17.7088C46.5532 17.5744 46.8406 17.3769 47.0799 17.1282C47.3193 16.8795 47.5056 16.5847 47.6277 16.2619C47.7498 15.939 47.8051 15.5947 47.7902 15.2499V11.7499C47.7942 11.4077 47.7301 11.0682 47.6016 10.751C47.4731 10.4339 47.2828 10.1455 47.0417 9.90262C46.8007 9.65972 46.5137 9.46712 46.1976 9.33622C45.8814 9.20532 45.5424 9.13852 45.2002 9.13992Z" fill="white"/>
<path d="M72.65 3.86992C72.3887 4.13112 72.1844 4.44382 72.0502 4.78802C71.9159 5.13232 71.8546 5.50072 71.87 5.86992V15.2699C71.8597 15.631 71.9236 15.9904 72.0578 16.3258C72.1919 16.6612 72.3935 16.9655 72.65 17.2199C73.1339 17.6692 73.7697 17.9192 74.43 17.9199H80.43V15.8199H74.83C74.7269 15.8151 74.6258 15.7891 74.5332 15.7435C74.4406 15.6979 74.3583 15.6337 74.2917 15.5548C74.225 15.476 74.1754 15.3842 74.1459 15.2853C74.1163 15.1863 74.1075 15.0824 74.12 14.9799V11.1999H79.63V9.13992H74.08V6.07992C74.0675 5.97742 74.0763 5.87342 74.1059 5.77452C74.1354 5.67562 74.185 5.58382 74.2517 5.50492C74.3183 5.42612 74.4006 5.36182 74.4932 5.31622C74.5858 5.27062 74.6869 5.24462 74.79 5.23992H80.39V3.16992H74.39C73.7304 3.17442 73.096 3.42392 72.61 3.86992" fill="white"/>
<path d="M88.76 9.13992H85.33C85.2263 9.13992 85.1235 9.11942 85.0277 9.07972C84.9318 9.04002 84.8447 8.98192 84.7714 8.90852C84.698 8.83512 84.6398 8.74802 84.6001 8.65222C84.5604 8.55642 84.54 8.45362 84.54 8.34992V6.07992C84.5275 5.97742 84.5363 5.87342 84.5658 5.77452C84.5954 5.67562 84.645 5.58382 84.7117 5.50492C84.7783 5.42612 84.8606 5.36182 84.9532 5.31622C85.0458 5.27062 85.1469 5.24462 85.25 5.23992H90.76V3.16992H84.88C84.2235 3.17502 83.5924 3.42462 83.11 3.86992C82.8487 4.13112 82.6444 4.44382 82.5102 4.78802C82.3759 5.13232 82.3145 5.50072 82.33 5.86992V8.87992C82.3287 9.21952 82.3944 9.55612 82.5235 9.87032C82.6526 10.1845 82.8424 10.4701 83.0821 10.7107C83.3218 10.9513 83.6067 11.1423 83.9204 11.2725C84.234 11.4028 84.5704 11.4699 84.91 11.4699H88.34C88.5495 11.4699 88.7505 11.5531 88.8986 11.7013C89.0468 11.8494 89.13 12.0504 89.13 12.2599V14.9999C89.1425 15.1024 89.1337 15.2063 89.1042 15.3053C89.0746 15.4042 89.025 15.496 88.9583 15.5748C88.8917 15.6537 88.8095 15.7179 88.7168 15.7635C88.6242 15.8091 88.5231 15.8351 88.42 15.8399H82.33V17.9099H88.79C89.4486 17.906 90.0812 17.6522 90.56 17.1999C90.8252 16.941 91.0326 16.629 91.1688 16.2843C91.3049 15.9396 91.3667 15.5701 91.35 15.1999V11.6999C91.35 11.3602 91.2829 11.0239 91.1527 10.7102C91.0224 10.3966 90.8314 10.1117 90.5908 9.87202C90.3502 9.63232 90.0646 9.44252 89.7504 9.31342C89.4362 9.18432 89.0997 9.11862 88.76 9.11992" fill="white"/>
<path d="M99.6001 9.13992H96.1701C95.9606 9.13992 95.7596 9.05672 95.6115 8.90852C95.4633 8.76032 95.3801 8.55942 95.3801 8.34992V6.07992C95.3676 5.97742 95.3764 5.87342 95.4059 5.77452C95.4355 5.67562 95.4851 5.58382 95.5518 5.50492C95.6184 5.42612 95.7007 5.36182 95.7933 5.31622C95.8859 5.27062 95.987 5.24462 96.0901 5.23992H101.6V3.16992H95.7301C95.0705 3.17442 94.4361 3.42392 93.9501 3.86992C93.6888 4.13112 93.4845 4.44382 93.3502 4.78802C93.216 5.13232 93.1546 5.50072 93.1701 5.86992V8.87992C93.1701 9.56512 93.4416 10.2223 93.9252 10.7078C94.4087 11.1932 95.0649 11.4672 95.7501 11.4699H99.1901C99.4001 11.4699 99.6001 11.5531 99.7491 11.7013C99.8971 11.8494 99.9801 12.0504 99.9801 12.2599V14.9999C99.9911 15.1029 99.9811 15.2071 99.9501 15.3061C99.9191 15.405 99.8691 15.4967 99.8011 15.5753C99.7341 15.654 99.6511 15.718 99.5581 15.7635C99.4651 15.809 99.3641 15.835 99.2601 15.8399H93.1701V17.9099H99.6301C99.9751 17.9116 100.317 17.8431 100.635 17.7088C100.953 17.5744 101.24 17.3769 101.48 17.1282C101.719 16.8795 101.905 16.5847 102.028 16.2619C102.15 15.939 102.205 15.5947 102.19 15.2499V11.7499C102.194 11.4077 102.13 11.0682 102.001 10.751C101.873 10.4339 101.683 10.1455 101.442 9.90262C101.2 9.65972 100.914 9.46712 100.597 9.33622C100.281 9.20532 99.9421 9.13852 99.6001 9.13992Z" fill="white"/>
<path d="M56.48 3.15992H49.79V17.8899H52V12.1699H56.48C57.1379 12.1717 57.7713 11.9212 58.25 11.4699C58.5152 11.211 58.7226 10.899 58.8588 10.5543C58.9949 10.2096 59.0567 9.84012 59.04 9.46992V5.80992C59.0484 5.44812 58.9827 5.08852 58.8468 4.75312C58.711 4.41782 58.5078 4.11382 58.25 3.85992C57.7713 3.40862 57.1379 3.15812 56.48 3.15992ZM56.82 9.26992C56.8325 9.37242 56.8237 9.47632 56.7942 9.57532C56.7646 9.67422 56.715 9.76602 56.6483 9.84482C56.5817 9.92372 56.4995 9.98792 56.4068 10.0335C56.3142 10.0791 56.2131 10.1051 56.11 10.1099H52V5.21992H56.11C56.2131 5.22462 56.3142 5.25062 56.4068 5.29622C56.4995 5.34182 56.5817 5.40612 56.6483 5.48492C56.715 5.56382 56.7646 5.65562 56.7942 5.75452C56.8237 5.85342 56.8325 5.95742 56.82 6.05992V9.26992Z" fill="white"/>
</g>
</svg>
