<svg width="75" height="18" viewBox="0 0 75 18" fill="none" xmlns="http://www.w3.org/2000/svg">
<path d="M21.7924 17.4306C18.0005 17.4306 15.2812 15.1322 14.9355 11.6818H17.8051C18.0497 13.5717 19.6512 14.8438 21.7883 14.8438C23.9993 14.8438 25.4272 13.8873 25.4272 12.3459C25.4272 10.8688 24.1223 10.2962 22.6465 9.8863L19.1606 8.93797C16.8527 8.30803 15.5067 6.91423 15.5067 4.56527C15.5067 2.28873 17.7791 -0.00830078 21.5109 -0.00830078C26.4453 -0.00830078 27.8131 2.90501 28.0126 4.83993H25.143C24.8055 3.32315 23.6399 2.57706 21.515 2.57706C19.5446 2.57706 18.4487 3.53359 18.3845 4.54751C18.3079 5.73634 19.4776 6.20503 20.3891 6.45373L24.0007 7.43759C26.8962 8.22741 28.3037 9.83027 28.3037 12.3377C28.3112 12.9891 28.182 13.6347 27.9245 14.233C27.667 14.8314 27.2869 15.369 26.8087 15.8113C25.6705 16.8731 23.9351 17.4306 21.7924 17.4306ZM71.8325 0.575182V11.9073L63.4971 0.576548H60.6275V16.8553H63.4971V5.52453L71.8325 16.8553H74.7021V0.867606H74.9891V0.580647L71.8325 0.575182ZM54.0179 0.575182V16.8553H56.8875V0.575182M48.4154 0.575182L45.2561 11.9702L42.0968 0.575182H39.0837L35.9231 11.9702L32.7638 0.575182H29.7467L34.4145 16.8553H37.4317L40.5923 5.46031L43.7516 16.8553H46.7688L51.4366 0.575182H48.4154ZM3.16064 14.2699V9.74965H11.7803V7.16293H3.16064V3.16191H12.3556V0.573814H0.286957V14.2699L0 14.5569V16.8553H12.6371V14.2699H3.16064Z" fill="white"/>
</svg>
