<svg width="125" height="50" viewBox="0 0 125 50" fill="none" xmlns="http://www.w3.org/2000/svg">
<path d="M89.2224 15.6488C91.0908 15.6488 92.6055 14.1342 92.6055 12.2658C92.6055 10.3973 91.0908 8.88269 89.2224 8.88269C87.354 8.88269 85.8394 10.3973 85.8394 12.2658C85.8394 14.1342 87.354 15.6488 89.2224 15.6488Z" fill="white"/>
<path d="M73.3169 28.2485C73.3405 28.2488 73.3637 28.2418 73.3832 28.2284C73.4027 28.2151 73.4176 28.196 73.4259 28.1739C74.338 26.0053 76.0081 24.2428 78.1243 23.2153C80.2406 22.1878 82.6585 21.9655 84.9266 22.5899C84.956 22.5983 84.987 22.5998 85.017 22.5943C85.0471 22.5888 85.0755 22.5763 85.0999 22.558C85.1244 22.5396 85.1443 22.5159 85.158 22.4886C85.1718 22.4612 85.179 22.4311 85.1791 22.4005V17.3819C85.1793 17.335 85.163 17.2895 85.1331 17.2533C85.1033 17.2172 85.0617 17.1926 85.0156 17.1839C82.8754 16.7972 80.6765 16.8824 78.5726 17.4335C76.4688 17.9846 74.5106 18.9884 72.8348 20.3747C72.8172 20.3886 72.7961 20.3973 72.7739 20.3998C72.7516 20.4024 72.7291 20.3987 72.7089 20.3891C72.6886 20.3796 72.6714 20.3646 72.6592 20.3458C72.647 20.3271 72.6402 20.3053 72.6397 20.2829V17.4508C72.6397 17.3983 72.6188 17.3479 72.5817 17.3108C72.5446 17.2736 72.4942 17.2528 72.4417 17.2528H67.3398C67.2873 17.2528 67.237 17.2736 67.1998 17.3108C67.1627 17.3479 67.1418 17.3983 67.1418 17.4508V28.1279C67.1418 28.1599 67.1545 28.1906 67.1771 28.2132C67.1997 28.2358 67.2304 28.2485 67.2624 28.2485H73.3169Z" fill="white"/>
<path d="M67.2626 29.7722C67.2311 29.7722 67.2009 29.7845 67.1784 29.8064C67.1559 29.8284 67.1428 29.8583 67.1421 29.8898C67.1395 30.7442 66.982 31.5909 66.6772 32.3891C66.3862 33.1296 65.9466 33.8027 65.3855 34.3667C64.8244 34.9308 64.1537 35.374 63.4147 35.6689C61.8607 36.2732 60.1366 36.2732 58.5825 35.6689C57.8463 35.379 57.1766 34.9426 56.6141 34.3862C56.0432 33.8197 55.5932 33.1432 55.2913 32.3977C54.9775 31.5948 54.816 30.7404 54.815 29.8783C54.8135 29.8471 54.8003 29.8176 54.7779 29.7957C54.7555 29.7739 54.7257 29.7614 54.6945 29.7607H49.4463C49.414 29.7614 49.3834 29.7748 49.3609 29.7978C49.3383 29.8209 49.3257 29.8518 49.3257 29.8841C49.343 32.1308 49.8336 34.1882 50.7949 35.8582C51.7572 37.5367 53.1788 38.9055 54.8925 39.8037C56.772 40.7739 58.8638 41.2601 60.9785 41.2183C63.0729 41.2379 65.1423 40.763 67.0187 39.8324C67.0368 39.823 67.057 39.8184 67.0774 39.8191C67.0978 39.8198 67.1176 39.8258 67.135 39.8365C67.1523 39.8472 67.1666 39.8623 67.1764 39.8802C67.1862 39.898 67.1912 39.9182 67.1909 39.9386V40.5383C67.1909 40.5908 67.2117 40.6412 67.2489 40.6783C67.286 40.7154 67.3363 40.7363 67.3889 40.7363H72.4563C72.5088 40.7363 72.5592 40.7154 72.5963 40.6783C72.6334 40.6412 72.6543 40.5908 72.6543 40.5383V31.93C72.6556 31.2491 72.7277 30.5701 72.8695 29.9042C72.8739 29.8867 72.8742 29.8686 72.8705 29.851C72.8667 29.8335 72.859 29.817 72.848 29.8029C72.8369 29.7887 72.8227 29.7773 72.8066 29.7695C72.7904 29.7617 72.7727 29.7577 72.7547 29.7578L67.2626 29.7722Z" fill="white"/>
<path d="M32.6741 28.4034C32.6915 28.3829 32.7045 28.3591 32.7125 28.3334C32.7205 28.3077 32.7232 28.2807 32.7205 28.2539C32.7178 28.2271 32.7098 28.2012 32.6969 28.1776C32.684 28.154 32.6665 28.1332 32.6454 28.1165L28.6282 25.0089C28.5894 24.9788 28.5407 24.9644 28.4917 24.9687C28.4428 24.973 28.3973 24.9955 28.3642 25.0319C27.5537 25.9076 26.5295 26.5576 25.3921 26.9183C24.2547 27.279 23.0431 27.338 21.876 27.0895C20.7089 26.841 19.6264 26.2935 18.7347 25.5007C17.8429 24.7079 17.1724 23.697 16.7889 22.567C16.7831 22.5485 16.7816 22.5289 16.7848 22.5098C16.7879 22.4906 16.7955 22.4725 16.807 22.4568C16.8184 22.4412 16.8334 22.4284 16.8507 22.4197C16.868 22.4109 16.8872 22.4063 16.9066 22.4063H40.149C40.1707 22.4064 40.192 22.4123 40.2106 22.4235C40.2292 22.4346 40.2444 22.4506 40.2547 22.4697C40.265 22.4888 40.2699 22.5103 40.269 22.532C40.2681 22.5537 40.2613 22.5747 40.2494 22.5928L36.677 28.0677C36.6651 28.0859 36.6584 28.1069 36.6574 28.1286C36.6565 28.1502 36.6614 28.1718 36.6717 28.1909C36.682 28.21 36.6973 28.2259 36.7159 28.2371C36.7345 28.2482 36.7557 28.2542 36.7774 28.2542H42.7659C42.7857 28.2535 42.8051 28.2481 42.8225 28.2387C42.8399 28.2292 42.8549 28.2159 42.8664 28.1997L49.1045 18.6301C49.1188 18.6086 49.1396 18.5922 49.1639 18.5834C49.1882 18.5746 49.2147 18.5739 49.2395 18.5813C49.2642 18.5887 49.2859 18.6038 49.3014 18.6245C49.3169 18.6452 49.3253 18.6703 49.3255 18.6961V28.0849C49.3255 28.1278 49.3423 28.169 49.3724 28.1996C49.4024 28.2302 49.4433 28.2477 49.4862 28.2485H54.6511C54.694 28.2477 54.7349 28.2302 54.765 28.1996C54.795 28.169 54.8118 28.1278 54.8118 28.0849V17.4508C54.8118 17.3983 54.791 17.3479 54.7538 17.3108C54.7167 17.2737 54.6664 17.2528 54.6138 17.2528L49.5005 17.2872H35.2939C34.6112 14.6121 33.0509 12.2433 30.8628 10.5597C28.6747 8.8761 25.9852 7.97499 23.2245 8.00053C20.4637 8.02607 17.7913 8.97678 15.6347 10.7006C13.4782 12.4244 11.962 14.8217 11.3289 17.5089C10.6957 20.1962 10.9821 23.0182 12.1423 25.5235C13.3024 28.0287 15.2693 30.0725 17.7282 31.3279C20.1872 32.5832 22.9961 32.9776 25.7057 32.448C28.4153 31.9183 30.8689 30.4952 32.6741 28.4063V28.4034ZM23.3284 13.4336C24.5809 13.4344 25.8095 13.7769 26.8819 14.4241C27.9543 15.0713 28.8299 15.9987 29.4144 17.1065C29.4238 17.125 29.4283 17.1456 29.4274 17.1663C29.4265 17.187 29.4202 17.2071 29.4093 17.2247C29.3983 17.2423 29.383 17.2568 29.3648 17.2667C29.3466 17.2767 29.3261 17.2818 29.3054 17.2815H17.3628C17.3421 17.2818 17.3216 17.2767 17.3034 17.2667C17.2852 17.2568 17.2699 17.2423 17.259 17.2247C17.248 17.2071 17.2418 17.187 17.2408 17.1663C17.2399 17.1456 17.2444 17.125 17.2538 17.1065C17.8374 16.0004 18.7112 15.0741 19.7814 14.427C20.8516 13.78 22.0778 13.4365 23.3284 13.4336Z" fill="white"/>
<path d="M48.8637 35.6115H38.2468C38.2251 35.6114 38.2039 35.6055 38.1853 35.5943C38.1667 35.5832 38.1514 35.5672 38.1411 35.5481C38.1308 35.529 38.1259 35.5075 38.1268 35.4858C38.1278 35.4641 38.1345 35.4431 38.1464 35.4249L41.7102 29.9558C41.7221 29.9377 41.7289 29.9166 41.7298 29.895C41.7307 29.8733 41.7258 29.8518 41.7155 29.8327C41.7052 29.8136 41.69 29.7976 41.6714 29.7864C41.6528 29.7753 41.6315 29.7694 41.6098 29.7693H35.6242C35.6044 29.7701 35.585 29.7754 35.5676 29.7848C35.5502 29.7943 35.5352 29.8076 35.5237 29.8238L28.924 39.9127C28.8888 39.9676 28.8699 40.0313 28.8695 40.0964V40.5383C28.8695 40.5908 28.8904 40.6412 28.9275 40.6783C28.9646 40.7154 29.015 40.7363 29.0675 40.7363H48.8666C48.9191 40.7363 48.9695 40.7154 49.0066 40.6783C49.0437 40.6412 49.0646 40.5908 49.0646 40.5383V35.8152C49.0654 35.7885 49.0607 35.7619 49.051 35.737C49.0412 35.7121 49.0265 35.6895 49.0077 35.6704C48.9889 35.6514 48.9665 35.6363 48.9418 35.6262C48.917 35.6161 48.8905 35.6111 48.8637 35.6115Z" fill="white"/>
<path d="M91.4433 28.1825C91.6011 27.8867 91.8387 27.6411 92.1291 27.4737C92.1465 27.4627 92.1609 27.4474 92.171 27.4294C92.181 27.4114 92.1863 27.3911 92.1865 27.3704V17.4795C92.1869 17.4536 92.1821 17.4279 92.1725 17.4039C92.1628 17.3799 92.1485 17.3581 92.1304 17.3397C92.1122 17.3212 92.0906 17.3066 92.0667 17.2966C92.0428 17.2866 92.0172 17.2815 91.9914 17.2815H86.4792C86.4267 17.2815 86.3763 17.3024 86.3392 17.3395C86.3021 17.3766 86.2812 17.427 86.2812 17.4795V28.128C86.2812 28.1599 86.2939 28.1906 86.3165 28.2132C86.3391 28.2358 86.3697 28.2485 86.4017 28.2485H91.34C91.3616 28.248 91.3827 28.2416 91.4009 28.23C91.4192 28.2184 91.4338 28.2019 91.4433 28.1825Z" fill="white"/>
<path d="M91.34 29.7693H86.4017C86.3697 29.7693 86.3391 29.782 86.3165 29.8046C86.2939 29.8272 86.2812 29.8578 86.2812 29.8898V40.5383C86.2812 40.5908 86.3021 40.6412 86.3392 40.6783C86.3763 40.7154 86.4267 40.7363 86.4792 40.7363H91.9914C92.0172 40.7363 92.0428 40.7311 92.0667 40.7212C92.0906 40.7112 92.1122 40.6965 92.1304 40.6781C92.1485 40.6597 92.1628 40.6378 92.1725 40.6138C92.1821 40.5898 92.1869 40.5642 92.1865 40.5383V30.6502C92.1863 30.6296 92.181 30.6093 92.171 30.5912C92.1609 30.5732 92.1465 30.5579 92.1291 30.5469C91.8387 30.3795 91.6011 30.1339 91.4433 29.8382C91.4342 29.8182 91.4197 29.8012 91.4015 29.789C91.3832 29.7768 91.3619 29.77 91.34 29.7693Z" fill="white"/>
<path d="M102.872 16.5642C99.6736 16.5046 96.5768 17.6898 94.2353 19.8697C91.8937 22.0496 90.4904 25.0538 90.3213 28.2485H91.3428C91.3644 28.2481 91.3855 28.2417 91.4037 28.23C91.422 28.2184 91.4366 28.2019 91.4461 28.1825C91.6309 27.8294 91.9288 27.5484 92.2922 27.3846C92.6555 27.2207 93.0633 27.1834 93.4503 27.2785C93.8374 27.3737 94.1813 27.5959 94.4272 27.9096C94.6731 28.2233 94.8067 28.6103 94.8067 29.0089C94.8067 29.4075 94.6731 29.7945 94.4272 30.1082C94.1813 30.4219 93.8374 30.6441 93.4503 30.7393C93.0633 30.8344 92.6555 30.7971 92.2922 30.6332C91.9288 30.4694 91.6309 30.1884 91.4461 29.8353C91.4366 29.8159 91.422 29.7994 91.4037 29.7878C91.3855 29.7761 91.3644 29.7697 91.3428 29.7693H90.3328C90.5002 32.1573 91.3587 34.445 92.8035 36.3537C94.2484 38.2623 96.2173 39.7094 98.4703 40.5186C100.723 41.3278 103.163 41.4642 105.492 40.9111C107.821 40.358 109.939 39.1393 111.588 37.4035C113.236 35.6678 114.344 33.49 114.777 31.1355C115.209 28.781 114.947 26.3516 114.023 24.1433C113.099 21.935 111.553 20.0432 109.572 18.6985C107.592 17.3537 105.263 16.6142 102.869 16.5699L102.872 16.5642ZM103.211 35.7894C101.802 35.9051 100.393 35.5857 99.1715 34.8743C97.9506 34.1628 96.9774 33.0938 96.3836 31.8115C95.7898 30.5292 95.6039 29.0955 95.8512 27.7042C96.0984 26.3129 96.7668 25.031 97.766 24.0318C98.7652 23.0326 100.047 22.3642 101.438 22.117C102.83 21.8698 104.263 22.0556 105.546 22.6494C106.828 23.2432 107.897 24.2164 108.608 25.4374C109.32 26.6583 109.639 28.0683 109.524 29.4766C109.387 31.1058 108.678 32.6339 107.522 33.7897C106.366 34.9454 104.837 35.6539 103.208 35.7894H103.211Z" fill="#DA0000"/>
</svg>
