<svg width="125" height="50" viewBox="0 0 125 50" fill="none" xmlns="http://www.w3.org/2000/svg">
<path d="M58.5438 37.6855C56.4644 37.6855 54.824 37.8568 53.2536 37.6035C52.5975 37.4973 51.7677 36.5831 51.5747 35.8835C51.0415 33.9537 50.026 33.5194 48.5496 33.5194C47.0733 33.5194 45.0976 33.5725 43.6503 33.5653C40.1717 33.5484 39.6314 33.5773 38.8787 36.2381C38.6833 36.9304 38.4638 37.4467 37.4627 37.6638C36.3482 37.9074 33.825 37.7193 32.1436 37.7193C33.1157 35.2539 33.9166 33.1311 34.7875 31.0348C36.9658 25.8001 39.2261 20.6016 41.3344 15.3403C41.8917 13.9508 42.4996 13.1765 44.0217 13.1765C45.7562 13.1765 48.0889 12.7013 49.0852 14.9954C52.2718 22.3312 55.239 29.7587 58.5438 37.6831V37.6855ZM45.7345 20.8766C45.4547 20.8621 45.1772 20.8476 44.8974 20.8331C43.8963 23.5229 42.8976 26.2126 41.8024 29.1556H48.8801C47.7463 26.1667 46.7404 23.5229 45.7369 20.8766H45.7345Z" fill="#FFFC0C"/>
<path d="M117.726 13.4386C117.726 17.7036 118.592 17.9255 114.631 17.9521C111.912 17.9714 109.191 17.8918 106.48 17.9303C104.207 17.9617 103.686 18.5696 103.73 20.6924C103.771 22.7911 104.171 23.6909 106.595 23.6933C110.414 23.6982 114.001 23.6427 118.003 23.6427C118.013 24.9936 117.895 26.0477 117.989 27.7122C113.897 27.7122 110.293 27.7774 106.443 27.8184C104.142 27.8425 103.65 28.5686 103.722 30.6311C103.79 32.5923 103.838 33.702 106.501 33.7478C110.272 33.8129 114.049 33.6972 117.991 33.6972V37.7136C112.233 37.7136 106.636 37.7595 101.045 37.6389C100.516 37.6268 99.5709 36.5823 99.5612 36.0057C99.4454 29.0897 99.4165 22.1688 99.5492 15.2551C99.5612 14.6351 100.852 13.5375 101.573 13.5158C106.909 13.3663 112.252 13.4362 117.723 13.4362L117.726 13.4386Z" fill="#FFFC0C"/>
<path d="M66.6974 22.0144V37.7909C65.6914 37.8198 64.9364 37.7281 64.1403 37.7281C62.1912 37.7281 61.2311 37.4893 61.3252 35.1108C61.5592 29.2923 61.3903 23.457 61.4554 17.6288C61.4723 16.1332 61.3203 13.6341 62.9149 13.5183C65.7686 13.3084 68.4318 13.5279 69.5873 15.6242C72.0599 20.1063 74.4288 24.6462 76.8459 29.1596C78.2788 31.8349 79.7238 34.8961 81.1832 37.6051C76.7856 37.4845 76.6915 38.1286 74.9619 35.0674C72.4579 30.6336 69.9612 26.1949 67.4621 21.7563C67.2064 21.8431 66.9507 21.93 66.695 22.0192L66.6974 22.0144Z" fill="#FFFC0C"/>
<path d="M28.9908 27.8522C24.7138 27.8522 20.83 27.956 16.9558 27.8112C14.8644 27.7316 14.3409 28.4963 14.3409 30.4696C14.3409 32.7758 14.3699 35.0892 14.3699 37.569H9.00974C9.00974 33.2848 8.9615 29.0922 9.0797 24.9044C9.09176 24.4413 10.0567 23.6259 10.5922 23.6187C16.2008 23.5222 21.8118 23.6162 27.4156 23.6162C29.495 23.6162 28.9908 25.7753 28.9908 27.8522Z" fill="#FFFC0C"/>
<path d="M84.5332 29.3697C82.4441 27.0136 82.2616 24.6962 83.9856 22.4174C85.2907 20.7023 86.6005 18.9726 87.9201 17.2985C90.5688 13.9382 93.2923 12.7175 97.8298 13.8127C93.3043 19.1101 88.9332 24.2266 84.5356 29.3721L84.5332 29.3697Z" fill="#FFFC0C"/>
<path d="M80.2834 30.1127C77.4104 24.7356 74.5373 19.3586 71.4785 13.6318H81.2387V30.1127C81.0988 30.132 80.9613 30.091 80.8214 30.1103L80.2834 30.1127Z" fill="#FFFC0C"/>
<path d="M10.4546 16.7242C15.6531 11.8465 16.5046 13.1613 29.0534 13.1613C29.0534 14.751 29.1089 16.0029 29.1089 17.4793H10.4956C10.4305 17.2284 10.4787 16.9703 10.4546 16.7242Z" fill="#FFFC0C"/>
<path d="M89.3867 27.7178C92.2669 31.329 94.5755 34.2213 96.9806 37.2343C94.2074 37.2343 92.1068 37.7675 90.4963 37.2343C89.3867 36.0378 88.084 34.2286 86.3954 32.1082C85.9998 30.931 87.9634 29.5246 89.3891 27.7178H89.3867Z" fill="#FFFC0C"/>
</svg>
