<svg width="125" height="50" viewBox="0 0 125 50" fill="none" xmlns="http://www.w3.org/2000/svg">
<path d="M69.4667 28.0567V19.03C69.4667 17.8033 70.0933 16.6833 71.5467 16.6833C73.0267 16.6833 73.36 18.07 73.36 18.8033V28.07M23.76 28.0567V12.2433C23.8 8.37667 25.9467 5.45667 30.7333 5.45667H31.7867M26.2 28.0567V12.2433C26.2 9.56333 27.72 7.51 31.0533 7.51H31.7867M28.72 28.0567V17.0433H31.8M31.7867 9.67H31.3867C29.5333 9.67 28.7067 10.7633 28.7067 12.2433H31.7867M26.2 14.5633H31.7867" stroke="#E3007F" stroke-width="1.42244"/>
<path d="M32.5067 7.77666C32.5067 6.06999 33.88 4.69666 35.5733 4.69666C37.2667 4.69666 38.64 6.08332 38.64 7.77666C38.64 9.48332 37.2667 10.8567 35.5733 10.8567C33.88 10.8567 32.5067 9.48332 32.5067 7.77666Z" fill="#E3007F"/>
<path d="M33.1733 11.5233V28.07M35.6533 11.5233V28.07M38.1733 11.5233V28.07M49.9733 12.0833H48.0933C45.48 12.0833 42.1733 14.7233 42.1733 19.19V20.31C42.1733 22.6566 40.4933 22.5633 39.4 22.5633" stroke="#E3007F" stroke-width="1.42244"/>
<path d="M50 14.4833H48.6667C47.0533 14.5233 45.1467 15.6967 44.7733 18.3367C44.7333 18.6033 44.6933 19.2433 44.6933 19.55V20.31C44.6933 23.51 42.4667 24.9633 40.6667 24.9767C40.56 25.0033 39.5067 24.9767 39.4133 24.9767" stroke="#E3007F" stroke-width="1.43389"/>
<path d="M49.9734 16.8833C48.92 16.8833 47.2267 16.79 47.2267 19.1367V20.2567C47.2267 24.7233 43.92 27.4033 41.28 27.4033H39.4M63.16 12.95C61.9334 12.15 60.4534 11.6967 58.8934 11.6967C54.4 11.6967 50.76 15.3367 50.76 19.8033C50.76 24.2967 54.4 27.91 58.8934 27.91C60.44 27.91 61.8667 27.4833 63.12 26.7233" stroke="#E3007F" stroke-width="1.42244"/>
<path d="M61.8667 15.0967C61.0133 14.5633 59.9867 14.2567 58.9067 14.2567C55.84 14.2567 53.3467 16.75 53.3467 19.83C53.3467 22.8967 55.84 25.4033 58.9067 25.4033C59.9733 25.4033 60.9733 25.1233 61.8133 24.59" stroke="#E3007F" stroke-width="1.43389"/>
<path d="M60.48 17.31C60.0133 17.0167 59.4533 16.8434 58.8933 16.8434C57.2133 16.8434 55.8533 18.2034 55.8533 19.8834C55.8533 21.5367 57.2133 22.8967 58.8933 22.8967C59.4533 22.8967 60.0133 22.7367 60.44 22.47M64.4533 5.27002V28.0567M66.96 5.27002V19.2967M66.96 19.2967V28.0567M66.96 19.2967C66.96 16.55 68.3867 14.0434 71.72 14.0434C75.0267 14.0434 75.76 17.0834 75.76 18.8434V28.07M78.2667 28.0567V18.83C78.2667 16.1234 77.1467 11.35 71.9867 11.35C71.0667 11.35 70.2 11.59 69.44 11.8167V5.27002M93.1733 24.39C91.72 25.0567 90.76 25.35 88.88 25.4167C87.8267 25.4834 86.8267 25.31 86.04 24.99C84.2267 24.2567 82.8 22.5367 82.5067 20.4967C82.44 19.7367 82.4667 19.0434 82.64 18.35C83.2 16.0967 85.0133 14.4434 87.4 14.31C87.6933 14.31 88.0267 14.31 88.32 14.3767C89.3467 14.51 90.5067 15.0967 91.2267 15.8034L91.3867 15.9634M86.56 22.5767C85.64 21.95 84.9067 20.99 84.9067 19.8967C84.88 18.2167 86 16.8567 87.68 16.8567C88.24 16.8567 89.1333 17.2567 89.4667 17.5767L86 22.11M94.0267 26.71C92.1067 27.7367 89.4667 27.8967 87.9067 27.8967C83.44 27.8967 79.8133 24.2967 79.8133 19.79C79.8133 15.3234 83.1867 11.6567 87.68 11.7234C89.4667 11.7634 91.52 12.6167 93 14.0434C93.4 14.4034 93.8267 14.91 94.12 15.3367L88.4 22.9767M102.827 12.0834H101.173C98.56 12.0834 95.2533 14.3367 95.2533 19.19V28.0567M102.76 14.4967H101.733C100.12 14.5367 98.2267 15.6834 97.8267 18.3367V28.0567M102.827 16.8834C101.733 16.8834 100.32 16.79 100.32 19.1367V28.07" stroke="#E3007F" stroke-width="1.42244"/>
<path d="M88.04 22.2434L87.0533 23.5367C88.6 24.07 90.9867 23.8034 92.6133 22.6834L92.12 21.2967C91.0267 22.0034 89.3067 22.4967 88.04 22.2434Z" fill="#E3007F"/>
<path fill-rule="evenodd" clip-rule="evenodd" d="M27.0133 36.6567C25.1333 36.6567 23 38.1633 23 40.5633C23 43.1633 25.0133 44.6033 27.2533 44.6033C28.9067 44.6033 29.44 44.2167 29.9467 43.8833L29.1067 41.11C28.7867 41.3233 28.0667 41.67 27.6933 41.71L30.32 38.51C29.9733 37.95 29.0533 36.6567 27.0133 36.6567ZM26.28 41.2567C25.9733 41.0433 25.8533 40.39 26.2 39.9633C26.5467 39.51 27.2533 39.63 27.4667 39.79L26.28 41.2567Z" fill="white"/>
<path d="M33.2933 33.99H30.44V44.31H33.2933V33.99Z" fill="white"/>
<path d="M40.8666 33.87H43.84V38.07C44.3066 38.07 44.84 37.4833 44.8666 36.79H47.7466C47.7466 37.8167 46.7066 39.1767 46.24 39.1767C46.7733 39.39 47.9466 40.87 47.9466 41.9233V44.2967H45.08C45.08 44.2967 45.0933 43.3233 45.08 42.4833C45.0533 41.6433 44.2 40.9767 43.8666 40.9367V44.31H40.8666V33.87Z" fill="white"/>
<path d="M48.12 34.43H50.9733V36.7633H52.1067V39.6433H51.08V41.1367C51.0533 41.39 51.28 41.5367 52.0667 41.5367V44.3367C50.52 44.6967 48.12 43.8433 48.12 41.1367V34.43Z" fill="white"/>
<path d="M56.0666 36.7633V39.6433H55.6266C55.44 39.67 55.2266 39.7766 55.2266 40.0033V44.31H52.3333V40.1633C52.3333 37.8566 53.9466 36.7633 55.1733 36.7633H56.0666Z" fill="white"/>
<path d="M67.3733 36.43C69.44 36.43 70.9066 38.19 70.9066 40.0567V44.31H68.0267V40.15C68.0267 39.6433 67.6533 39.4433 67.4533 39.4433C67.24 39.4433 66.96 39.6967 66.96 40.11V44.3233H64.0667V39.8033C64.0667 38.3367 65.2533 36.43 67.3733 36.43Z" fill="white"/>
<path d="M74.1334 36.79H71.2534V44.31H74.1334V36.79Z" fill="white"/>
<path d="M71.2667 35.1366C71.2667 34.35 71.9067 33.71 72.6933 33.71C73.48 33.71 74.12 34.35 74.12 35.1366C74.12 35.9233 73.48 36.5633 72.6933 36.5633C71.9067 36.5633 71.2667 35.9233 71.2667 35.1366Z" fill="white"/>
<path d="M74.5067 33.87H77.48V38.07C77.9467 38.07 78.4667 37.4833 78.5067 36.79H81.3867C81.3867 37.8167 80.3333 39.1767 79.8667 39.1767C80.4133 39.39 81.5867 40.87 81.5867 41.9233V44.2967H78.7067C78.7067 44.2967 78.7333 43.3233 78.7067 42.4833C78.6933 41.6433 77.84 40.9767 77.5067 40.9367V44.31H74.52V33.87H74.5067Z" fill="white"/>
<path d="M83.0267 40.3633V44.31H93.24V34.0833H83.0267V37.95H87.9067V34.8833L92.2 39.2166L87.8267 43.47V40.3766L83.0267 40.3633Z" fill="white"/>
<path d="M83.0267 40.3633L87.8267 40.3766V43.47L92.2 39.2166L87.9067 34.8833V37.95H83.0267V40.3633Z" fill="#E3007F"/>
<path d="M93.4267 35.8833L103 34.0167V44.35L93.4 42.63L102.187 40.99L93.4267 39.27L102.307 37.5633L93.4267 35.8833Z" fill="white"/>
<path fill-rule="evenodd" clip-rule="evenodd" d="M37.4534 36.6567C35.56 36.6567 33.4267 38.1633 33.4267 40.5633C33.4267 43.1633 35.4534 44.6033 37.6934 44.6033C39.3334 44.6033 39.88 44.2167 40.3867 43.8833L39.5467 41.11C39.2267 41.3233 38.4934 41.67 38.1334 41.71L40.76 38.51C40.4 37.95 39.4934 36.6567 37.4534 36.6567ZM36.72 41.2567C36.4 41.0433 36.2934 40.39 36.64 39.9633C36.9867 39.51 37.6934 39.63 37.8934 39.79L36.72 41.2567Z" fill="white"/>
<path fill-rule="evenodd" clip-rule="evenodd" d="M56.0933 40.6833C56.0933 38.5233 57.84 36.7633 60 36.7633C62.16 36.7633 63.9067 38.51 63.9067 40.6833C63.9067 42.8433 62.16 44.6033 60 44.6033C57.84 44.59 56.0933 42.8433 56.0933 40.6833ZM58.9867 40.6833C58.9867 40.1233 59.44 39.67 60 39.67C60.56 39.67 61.0133 40.1233 61.0133 40.6833C61.0133 41.2433 60.56 41.6966 60 41.6966C59.44 41.6966 58.9867 41.2433 58.9867 40.6833Z" fill="white"/>
</svg>
