<svg width="74" height="17" viewBox="0 0 74 17" fill="none" xmlns="http://www.w3.org/2000/svg">
<mask id="mask0_12_2955" style="mask-type:luminance" maskUnits="userSpaceOnUse" x="0" y="0" width="74" height="17">
<path d="M73.8221 0.786865H0.407471V16.5953H73.8221V0.786865Z" fill="white"/>
</mask>
<g mask="url(#mask0_12_2955)">
<path fill-rule="evenodd" clip-rule="evenodd" d="M14.9216 5.81043C12.2902 5.14043 10.6088 11.4564 13.6361 11.3415C16.0029 11.2523 17.4938 6.46583 14.9216 5.81043ZM18.0732 8.83163C17.8402 10.1253 17.189 11.3069 16.2197 12.1948C15.3313 12.9753 14.1847 13.3981 13.0023 13.3813C11.7344 13.3813 10.8274 12.9736 10.2813 12.1582C9.73529 11.3429 9.61799 10.2342 9.92949 8.83213C10.1664 7.53823 10.8225 6.35833 11.7967 5.47453C12.6852 4.68943 13.834 4.26293 15.0196 4.27823C16.2481 4.27823 17.1446 4.67603 17.7092 5.47173C18.2737 6.26733 18.3946 7.38743 18.0718 8.83213" fill="#231815"/>
<path fill-rule="evenodd" clip-rule="evenodd" d="M21.3923 12.9775C19.8042 12.3841 19.2375 10.3462 19.5157 8.88706C19.6312 8.21976 19.8589 7.57686 20.1894 6.98566C20.994 5.59656 21.6142 4.98766 23.2496 4.41016C23.8044 4.21346 24.3887 4.11316 24.9774 4.11366C25.4402 4.11016 25.9009 4.17566 26.3444 4.30786C26.7313 4.42316 27.1068 4.57376 27.4662 4.75776L27.1659 6.39976H27.0791C26.9764 6.28586 26.8578 6.18756 26.7268 6.10796C24.854 5.10446 22.0176 6.30446 21.7014 8.69236C21.2792 11.8966 24.261 11.8694 26.1305 10.6825L26.1544 12.3897C24.7564 12.9663 22.8963 13.5349 21.3937 12.9761" fill="#231815"/>
<path fill-rule="evenodd" clip-rule="evenodd" d="M36.4424 12.6406L38.7697 0.896729H40.6369C39.6428 4.69443 38.8664 8.54373 39.1413 12.6406H36.4424Z" fill="#231815"/>
<path fill-rule="evenodd" clip-rule="evenodd" d="M42.9084 12.5467L44.6094 2.80375H41.356L41.6623 1.43335H50.9132L50.6064 2.80375H46.7445C45.5873 6.35135 45.1424 9.59895 45.4098 12.5467H42.9084Z" fill="#231815"/>
<path fill-rule="evenodd" clip-rule="evenodd" d="M65.5356 12.6209L67.9296 0.786865H70.0844L69.0551 5.48817C69.9933 4.64367 70.6501 4.26837 71.823 4.26837C74.3779 4.26837 73.7704 7.04007 73.6592 9.20417L73.4823 12.6228H70.7923C71.0799 11.2083 72.012 7.93837 71.7775 6.67837C71.6973 6.23637 71.6916 5.88497 71.0362 5.88497C70.5247 5.90127 70.0281 6.06167 69.6038 6.34777C69.1794 6.63387 68.8446 7.03397 68.6376 7.50217C68.0071 9.05027 67.9808 11.357 68.1285 12.452L65.5356 12.6209Z" fill="#231815"/>
<path fill-rule="evenodd" clip-rule="evenodd" d="M60.1153 12.6133C58.5273 12.0208 57.9601 10.346 58.2388 8.88698C58.3542 8.21968 58.5818 7.57678 58.912 6.98558C59.7165 5.59638 60.2256 5.00858 61.86 4.43158C63.3519 3.90468 64.9183 4.23168 65.5268 4.75998L65.2078 6.19078C64.0851 5.13108 60.8157 5.73478 60.4226 8.69648C60.0004 11.9002 62.378 12.0818 64.2479 10.8944L64.8761 12.3956C63.367 13.037 61.678 13.1157 60.1158 12.6175" fill="#231815"/>
<path fill-rule="evenodd" clip-rule="evenodd" d="M31.5961 10.5703C30.6268 11.2595 29.5506 11.419 29.1411 10.6674C28.7315 9.91588 28.7578 8.55628 29.6271 7.39468C30.218 6.52508 31.1285 5.92398 32.1604 5.72228C35.0498 5.23718 32.5672 9.88118 31.5975 10.5698M30.2056 12.8011C29.6926 12.9292 29.1531 12.9015 28.6561 12.7214C28.159 12.5413 27.7269 12.217 27.4151 11.7901C26.7551 10.9644 26.8287 9.23938 27.2228 8.06608C27.8796 6.11348 29.5009 4.48368 31.8804 4.39788C32.5175 4.37538 35.0236 4.32608 35.6804 4.42458C35.6855 4.51188 34.0905 7.49138 35.2417 12.7462H32.5015C32.3692 8.97988 33.2324 12.1091 30.2079 12.8011" fill="#231815"/>
<path fill-rule="evenodd" clip-rule="evenodd" d="M51.8796 7.84229L54.5537 7.78689C54.5537 7.78689 55.6407 7.06439 55.2884 6.34099C54.936 5.61759 53.7013 5.61859 52.908 6.28569C52.4263 6.69829 52.07 7.23729 51.8796 7.84229ZM56.9336 12.0701L55.9053 10.6796C55.9053 10.6796 53.7003 11.9031 52.4675 11.069C51.2346 10.2349 51.5859 9.17789 51.5859 9.17789L54.5241 9.14979C56.479 9.13099 57.6946 6.94479 57.1551 5.56739C56.5766 4.09429 53.3663 3.85599 51.8205 5.28599C47.0733 9.67239 51.1285 14.6476 56.9341 12.0715" fill="#231815"/>
<path fill-rule="evenodd" clip-rule="evenodd" d="M9.86477 2.92674H4.38097L3.75047 5.90014H9.00477L8.74017 7.80624H3.48587L2.40827 12.5843H0.842773L3.07777 1.43774H10.1289L9.86477 2.92674Z" fill="white"/>
<path fill-rule="evenodd" clip-rule="evenodd" d="M14.48 5.81043C11.8486 5.14043 10.1672 11.4564 13.1941 11.3415C15.5613 11.2523 17.0523 6.46573 14.48 5.81043ZM17.6316 8.83163C17.3986 10.1253 16.7474 11.3069 15.7781 12.1948C14.8897 12.9753 13.7432 13.3981 12.5608 13.3813C11.2928 13.3813 10.3858 12.9736 9.83976 12.1582C9.29366 11.3429 9.17656 10.2342 9.48836 8.83213C9.72506 7.53803 10.3813 6.35793 11.3555 5.47403C12.2442 4.68903 13.393 4.26263 14.5785 4.27773C15.807 4.27773 16.7035 4.67553 17.2681 5.47123C17.8326 6.26683 17.9544 7.38703 17.6316 8.83163Z" fill="white"/>
<path fill-rule="evenodd" clip-rule="evenodd" d="M20.9509 12.9775C19.3629 12.3841 18.7961 10.3462 19.0743 8.88706C19.1898 8.21976 19.4176 7.57686 19.748 6.98566C20.5526 5.59656 21.1728 4.98766 22.8082 4.41016C23.363 4.21346 23.9474 4.11316 24.536 4.11366C24.9988 4.11016 25.4596 4.17566 25.9031 4.30786C26.29 4.42316 26.6655 4.57376 27.0248 4.75776L26.7245 6.39976H26.6345C26.5318 6.28586 26.4131 6.18756 26.2821 6.10796C24.4094 5.10446 21.5725 6.30446 21.2568 8.69236C20.8345 11.8966 23.8164 11.8694 25.6859 10.6825L25.7098 12.3897C24.3118 12.9663 22.4516 13.5349 20.949 12.9761" fill="white"/>
<path fill-rule="evenodd" clip-rule="evenodd" d="M36.0007 12.6406L38.3281 0.896729H40.1952C39.2011 4.69443 38.4247 8.54373 38.6996 12.6406H36.0007Z" fill="white"/>
<path fill-rule="evenodd" clip-rule="evenodd" d="M42.4669 12.5467L44.168 2.80375H40.9141L41.2204 1.43335H50.4713L50.1645 2.80375H46.3011C45.1439 6.35135 44.6991 9.59895 44.9665 12.5467H42.4669Z" fill="white"/>
<path fill-rule="evenodd" clip-rule="evenodd" d="M65.0938 12.6209L67.4877 0.786865H69.642L68.6136 5.48817C69.5519 4.64367 70.2087 4.26837 71.3815 4.26837C73.9364 4.26837 73.3289 7.04007 73.2177 9.20417L73.0408 12.6228H70.3508C70.6384 11.2083 71.5706 7.93837 71.3388 6.67837C71.2581 6.23637 71.252 5.88497 70.5966 5.88497C70.0851 5.90127 69.5886 6.06177 69.1642 6.34787C68.7398 6.63387 68.4049 7.03407 68.198 7.50217C67.5674 9.05027 67.5412 11.357 67.6894 12.452L65.0938 12.6209Z" fill="white"/>
<path fill-rule="evenodd" clip-rule="evenodd" d="M59.6756 12.6133C58.0876 12.0208 57.5209 10.346 57.7991 8.88698C57.9146 8.21968 58.1424 7.57678 58.4728 6.98558C59.2773 5.59638 59.7863 5.00858 61.4208 4.43158C62.9127 3.90468 64.4786 4.23168 65.0876 4.75998L64.7686 6.19078C63.6459 5.13108 60.376 5.73478 59.9834 8.69648C59.5612 11.9002 61.9387 12.0818 63.8082 10.8944L64.4364 12.3956C62.9272 13.0369 61.238 13.1156 59.6756 12.6175" fill="white"/>
<path fill-rule="evenodd" clip-rule="evenodd" d="M31.1546 10.5703C30.1854 11.2595 29.1092 11.419 28.6996 10.6674C28.2901 9.91587 28.3163 8.55627 29.1856 7.39467C29.7766 6.52507 30.6871 5.92397 31.719 5.72227C34.6084 5.23717 32.1257 9.88117 31.156 10.5699M29.7674 12.8006C29.2541 12.9296 28.7139 12.9023 28.2162 12.7224C27.7185 12.5424 27.2858 12.2179 26.9737 11.7906C26.3136 10.9649 26.3868 9.23987 26.7813 8.06657C27.4381 6.11397 29.059 4.48417 31.4389 4.39837C32.076 4.37587 34.5821 4.32657 35.2389 4.42507C35.2441 4.51237 33.649 7.49187 34.8003 12.7467H32.0596C31.9273 8.98037 32.7905 12.1096 29.766 12.8015" fill="white"/>
<path fill-rule="evenodd" clip-rule="evenodd" d="M51.4383 7.84229L54.1123 7.78689C54.1123 7.78689 55.1993 7.06439 54.8465 6.34099C54.4938 5.61759 53.2599 5.61859 52.4666 6.28569C51.9849 6.69829 51.629 7.23739 51.4383 7.84229ZM56.4923 12.0701L55.4639 10.6796C55.4639 10.6796 53.259 11.9031 52.0261 11.069C50.7932 10.2349 51.1451 9.17789 51.1451 9.17789L54.0833 9.14979C56.0382 9.13099 57.2537 6.94479 56.7142 5.56739C56.1357 4.09429 52.9254 3.85599 51.3796 5.28599C46.6324 9.67239 50.6877 14.6476 56.4932 12.0715" fill="white"/>
<path fill-rule="evenodd" clip-rule="evenodd" d="M0.407471 15.47H23.8516L23.0198 16.3717H0.407471V15.47Z" fill="#ED1C24"/>
<path fill-rule="evenodd" clip-rule="evenodd" d="M47.2309 16.3716H24.8916L25.722 15.4695H48.0838L47.2309 16.3716Z" fill="#00A650"/>
<path fill-rule="evenodd" clip-rule="evenodd" d="M73.4508 16.3716H48.5266L49.357 15.4695H73.4499L73.4508 16.3716Z" fill="#006BA0"/>
</g>
</svg>
