<svg width="80" height="80" viewBox="0 0 80 80" fill="none" xmlns="http://www.w3.org/2000/svg">
<path fill-rule="evenodd" clip-rule="evenodd" d="M65.3988 8.84668H13.3252C10.589 8.84668 8.38037 11.0553 8.38037 13.7915V65.2516C8.38037 67.9878 10.589 70.1964 13.3252 70.1964H65.3988C68.135 70.1964 70.3436 67.9878 70.3436 65.2516V13.7915C70.3436 11.0553 68.135 8.84668 65.3988 8.84668Z" fill="#009CB6"/>
<path fill-rule="evenodd" clip-rule="evenodd" d="M68.8834 15.1289C68.8834 11.546 67.5092 10.1841 63.9386 10.1841H14.7853C11.411 10.1841 9.84049 11.6319 9.84049 15.1289V42.319H68.8834V15.1289Z" fill="#000018"/>
<path fill-rule="evenodd" clip-rule="evenodd" d="M56.0982 38.7485V39.4479C56.0982 40.3804 55.9018 40.7362 54.9939 40.7362H52.5153C51.5951 40.7362 51.411 40.3804 51.411 39.4479V38.7485C51.411 37.951 51.6074 37.4602 52.6258 37.4602H54.8957C55.9141 37.4602 56.0982 37.951 56.0982 38.7485ZM31.2761 39.7914H33.7423L32.4908 37.3743L31.2761 39.7914ZM24.3558 37.4724H21.3252V39.043H24.5276C25.0552 39.043 25.2393 38.8344 25.2393 38.3681V38.1595C25.2393 37.5829 24.9693 37.4724 24.3558 37.4724ZM18.2209 35.8773H11.6196V42.3068H13.5583V40.1227H18V38.6258H13.5583V37.4233H18.2209V35.8773ZM27.1288 37.7914C27.1288 36.6381 26.7239 35.8773 25.2393 35.8773H19.3865V42.3068H21.3252V40.6381H24.3681C24.9693 40.6381 25.1656 40.8589 25.1656 41.5338V42.3068H27.1043V41.2148C27.1043 40.1595 26.6258 39.9019 26.0491 39.7914V39.7792C26.9325 39.5706 27.1288 39.0552 27.1288 38.1963V37.7914ZM37.227 42.319L33.7546 35.8896H31.2393L27.816 42.319H29.9755L30.5399 41.1779H34.4663L35.0675 42.319H37.227ZM48.2454 35.8773H45.2761L43.0798 40.0246L40.8957 35.8773H37.9141V42.3068H39.7914V37.681H39.8037L42.3436 42.3068H43.8037L46.3436 37.681H46.3558V42.3068H48.2454V35.8773ZM58.0859 38.135C58.0859 36.2454 57.0552 35.8037 55.3006 35.8037H52.1963C50.454 35.8037 49.411 36.2454 49.411 38.135V40.0614C49.411 41.951 50.454 42.3927 52.1963 42.3927H55.3006C57.0429 42.3927 58.0859 41.951 58.0859 40.0614V38.135ZM67.1043 40.3681C67.1043 38.4908 66.4049 38.3068 63.3988 38.319C61.3252 38.3313 61.0798 38.3068 61.0798 37.7546C61.0798 37.4111 61.3742 37.2516 61.8159 37.2516H63.9632C64.8589 37.2516 64.908 37.4479 64.908 37.9141H66.8466V37.7056C66.8466 36.5767 66.638 35.8037 64.4049 35.8037H61.7055C59.2638 35.8037 59.1656 36.6994 59.1656 37.8651C59.1656 39.4479 59.4969 39.8037 62.4049 39.8037C64.8957 39.8037 65.1288 39.8405 65.1288 40.4049C65.1288 40.908 64.7117 40.9448 64.3067 40.9448H61.9386C61.3865 40.9448 61.1043 40.8957 61.1043 40.2086H59.1411V40.6503C59.1411 42.0491 59.8528 42.3804 61.6074 42.3804H63.9509C66.5276 42.3804 67.1043 42.0982 67.1043 40.3681Z" fill="white"/>
</svg>
