<svg width="182" height="42" viewBox="0 0 182 42" fill="none" xmlns="http://www.w3.org/2000/svg">
<path d="M34.6901 4.87795C34.6868 4.87709 34.6808 4.91015 34.6844 4.91979C34.6869 4.92693 34.6894 4.92692 34.6908 4.93407L34.6901 4.87795C34.6904 4.87795 34.6899 4.87677 34.6901 4.87795ZM9.46718 13.6256C9.446 13.647 9.41929 13.6627 9.39545 13.6812C9.39128 13.6824 9.38635 13.683 9.38292 13.6883C9.33074 13.7294 9.28328 13.7769 9.22285 13.8076C9.15162 13.8576 9.07843 13.9044 9.0027 13.948C8.9907 13.9551 8.98085 13.9729 8.96688 13.9694C8.96688 13.97 8.96433 13.9692 8.96688 13.9694C8.94246 13.9908 8.91874 14.0078 8.89892 14.0207C8.888 14.035 8.87921 14.0529 8.86746 14.0665C8.80306 14.1454 8.77531 14.1657 8.70174 14.2318C8.65154 14.2968 8.6892 14.2496 8.60986 14.326C8.72168 14.3439 8.80492 14.4178 8.91026 14.5249C9.13126 14.7506 10.1691 15.9014 11.2163 17.0829C12.7621 18.8269 13.0891 19.3161 12.9549 19.6833C12.591 20.6789 12.794 21.5903 13.5215 22.2279C14.565 23.1424 15.8485 22.9642 16.807 21.7712C17.1385 21.3586 17.1694 20.1443 16.8627 19.5823C16.51 18.9359 15.3615 18.4477 14.5118 18.5829C13.794 18.6972 13.6971 18.6186 11.5585 16.1831C10.53 15.0122 9.68543 13.9745 9.46718 13.6256ZM3.97125 17.6007C3.96632 17.6079 3.96161 17.6115 3.95632 17.6186C3.96125 17.6115 3.9685 17.6115 3.97343 17.6043C3.97343 17.6035 3.97088 17.6025 3.97088 17.5971L3.97125 17.6007ZM3.40773 18.1251C3.37216 18.1501 3.33781 18.173 3.30117 18.1944C3.26116 18.2194 3.21701 18.234 3.17642 18.2565C3.15071 18.2708 3.129 18.2954 3.1 18.3008C3.08836 18.3026 3.1225 18.2651 3.11132 18.2686C3.09604 18.2758 3.09207 18.2936 3.0824 18.3061C3.06204 18.3347 3.04321 18.3672 3.02152 18.3965C2.91991 18.5325 2.78875 18.6436 2.6543 18.7493L3.25802 19.491C3.63493 19.9539 5.15561 21.7682 6.63762 23.5231C8.99678 26.3167 9.42275 26.7227 10.0574 26.7829C10.5703 26.8315 10.8618 27.01 11.0547 27.3932C11.9327 29.138 14.3652 29.1343 15.1031 27.3861C15.5657 26.2906 14.9647 24.9814 13.7983 24.544C13.0625 24.268 11.9082 24.6818 11.2928 25.4416C10.3822 26.5664 9.94222 26.2551 6.49131 22.0464C4.8029 19.9872 3.42821 18.2394 3.40773 18.1251ZM14.8579 19.4338C14.8878 19.4335 14.918 19.4341 14.9483 19.4356C15.1721 19.4499 15.4062 19.522 15.6356 19.6691C16.3211 20.1097 16.4039 21.082 15.8013 21.6169C15.1862 22.1628 14.2908 22.0707 13.8539 21.4166C13.223 20.4722 13.9312 19.4451 14.8579 19.4338ZM18.6446 24.588C18.6412 24.6059 18.6356 24.6327 18.6356 24.6456C18.6482 24.6348 18.6593 24.6249 18.6731 24.6178C18.664 24.6106 18.6532 24.5987 18.6446 24.588ZM13.1909 25.2449C13.3351 25.252 13.4885 25.3225 13.7297 25.4542C14.4528 25.8505 14.653 26.9344 14.1025 27.4744C13.5512 28.015 12.5238 27.9229 12.1045 27.2954C11.6424 26.6037 11.7545 26.1348 12.5146 25.5788C12.7995 25.3699 12.9658 25.2634 13.1294 25.2466C13.1499 25.2449 13.1703 25.2449 13.1909 25.2449ZM25.9676 26.9806C25.6124 26.9699 25.238 27.0734 24.8177 27.2869C24.0252 27.6889 23.7172 28.2213 23.7172 29.1895C23.7172 29.9234 24.5208 31.0772 25.032 31.0772C25.4773 31.0772 25.2784 32.3677 24.7666 32.7985C23.8964 33.5311 17.7337 38.167 15.9921 39.4163C16.0571 39.5402 16.1205 39.6645 16.2019 39.7782C16.2532 39.8499 16.4269 40.0109 16.5897 40.1579C17.2474 39.6134 19.0599 38.2033 21.164 36.6051C23.7588 34.6341 25.9415 32.8685 26.0146 32.6817C26.0877 32.4949 26.1476 32.1038 26.1476 31.8126C26.1476 31.4634 26.3166 31.2196 26.6446 31.0966C27.5079 30.7727 28.0156 30.0289 28.0156 29.0875C28.0156 28.378 27.882 28.099 27.2988 27.5879C26.8491 27.1939 26.4243 26.9936 25.9676 26.9806ZM25.8886 27.8267C26.4899 27.8267 27.2522 28.5536 27.2522 29.1269C27.2522 29.3651 27.0534 29.7554 26.8103 29.9938C26.2589 30.5347 25.4463 30.551 24.9664 30.0308C24.2012 29.2015 24.7764 27.8267 25.8886 27.8267ZM18.4273 29.1133C17.3222 29.1204 16.3617 30.0057 16.3897 31.3718L16.4095 32.3435L14.3278 33.9858C13.6089 34.5529 12.9703 35.0291 12.549 35.3223C12.5886 35.3712 12.6282 35.4219 12.6655 35.463C12.8011 35.5955 12.9286 35.7347 13.0543 35.8758C13.1115 35.9043 13.1711 35.9301 13.2257 35.959C14.4438 34.9703 17.0025 33.0277 17.1119 33.0277C17.2093 33.0277 17.5351 33.1373 17.8357 33.2719C18.1362 33.4061 18.6464 33.4511 18.9696 33.3715C20.6777 32.951 21.2552 30.7702 19.9445 29.6884C19.4619 29.2901 18.9295 29.1105 18.4273 29.1133ZM18.5977 29.9938C19.1328 29.9938 19.9613 30.7 19.9613 31.1563C19.9613 31.3188 19.7552 31.709 19.5034 32.0231C18.9805 32.6751 18.505 32.7403 17.801 32.2566C16.8442 31.5993 17.4094 29.9938 18.5977 29.9938Z" fill="white"/>
<path d="M37.4372 0.808594L32.3589 5.86434C29.566 8.64495 27.1914 11.0826 27.0819 11.2814C26.9434 11.5328 26.9484 11.7088 27.0983 11.8586C27.2555 12.0157 26.9502 12.4432 25.9656 13.4439C24.7857 14.6431 24.5186 15.058 23.8216 16.7737C23.3838 17.8518 23.0255 18.8813 23.0255 19.0614C23.0255 19.5226 23.1946 19.4887 25.4225 18.5806C27.1459 17.8783 27.5846 17.5981 28.7688 16.4441C29.8259 15.4139 30.2244 15.1405 30.5453 15.2246C30.8842 15.3135 31.8965 14.4101 36.1426 10.2296C38.9936 7.42283 41.3261 5.02668 41.3261 4.90463C41.3261 4.78287 40.451 3.81091 39.3816 2.74557L37.4372 0.808594ZM37.4347 1.97143L38.8999 3.43645L40.3645 4.90125L39.9115 5.32755L39.4581 5.75352L38.0117 4.297L36.5651 2.84114L36.9998 2.40612L37.4347 1.97143ZM36.0648 3.3338L37.5283 4.78759L38.9916 6.24073L34.9518 10.2841C32.73 12.5078 30.8653 14.3272 30.8081 14.3272C30.7509 14.3272 30.0722 13.6904 29.2993 12.9124L27.8941 11.4979L31.9795 7.41578L36.0648 3.3338ZM36.509 4.47452C36.3432 4.48166 36.1075 4.6609 35.6863 5.07201C35.2625 5.48572 34.9613 5.89753 35.0167 5.98716C35.2139 6.30638 35.6115 6.14105 36.2632 5.46856C36.777 4.93847 36.8719 4.73448 36.6903 4.55287C36.645 4.50752 36.5971 4.4811 36.5413 4.47539C36.5305 4.4746 36.52 4.47416 36.509 4.47452ZM34.3244 6.73939C34.0814 6.7501 33.4267 7.33084 31.7303 8.98933C28.9424 11.7147 28.7841 11.8978 28.9629 12.1872C29.0286 12.2936 29.1441 12.38 29.2196 12.38C29.2951 12.38 30.5289 11.2052 31.9615 9.76968C33.9511 7.776 34.5352 7.07857 34.4347 6.81665C34.4147 6.76487 34.3805 6.73689 34.3244 6.73939ZM27.8066 12.5727L28.7669 13.5477L29.7272 14.523L28.5658 15.7117C27.927 16.3656 27.1152 17.0254 26.7619 17.1779C25.1846 17.8587 24.1922 18.2039 24.1912 18.0718C24.1912 17.9929 24.4567 17.2657 24.7827 16.4554C25.2524 15.2877 25.6274 14.7322 26.5909 13.7773L27.8066 12.5727ZM23.6424 23.2516C23.742 23.3169 23.8422 23.3805 23.9422 23.4448C23.9463 23.4376 23.9502 23.4305 23.9541 23.4269C23.8516 23.3587 23.7476 23.2991 23.6424 23.2516ZM28.5752 23.8648C28.5057 23.8933 28.4608 23.91 28.508 23.9004C28.5322 23.8932 28.5611 23.8862 28.5872 23.879C28.583 23.8719 28.5794 23.8683 28.5752 23.8648ZM28.276 24.0676C28.2352 24.0747 28.2048 24.0818 28.1656 24.0889C28.1714 24.0961 28.1775 24.1032 28.1836 24.1104C28.2187 24.0925 28.2404 24.0808 28.276 24.0676ZM19.73 28.0122V28.0491C19.7381 28.0419 19.7453 28.0348 19.7535 28.0312C19.7454 28.024 19.7379 28.0194 19.73 28.0122Z" fill="white"/>
<path d="M23.5961 12.1491L18.7072 6.51758L0.512939 20.8131L17.2838 41.5446L35.3543 27.8062L29.042 19.1422" stroke="white" stroke-width="0.742453" stroke-linecap="round" stroke-linejoin="round"/>
<path d="M52.7888 27.776C52.5407 27.776 52.3271 27.6934 52.148 27.528C51.9826 27.3488 51.8999 27.1352 51.8999 26.8872V12.5204C51.8999 12.2586 51.9826 12.045 52.148 11.8796C52.3133 11.7142 52.5269 11.6315 52.7888 11.6315H62.3597C62.6216 11.6315 62.8352 11.7142 63.0006 11.8796C63.1659 12.0312 63.2486 12.231 63.2486 12.4791C63.2486 12.7133 63.1659 12.9132 63.0006 13.0785C62.8352 13.2301 62.6216 13.3059 62.3597 13.3059H53.6777V18.8046H59.9825C60.2443 18.8046 60.4511 18.8873 60.6026 19.0526C60.768 19.218 60.8507 19.4178 60.8507 19.6521C60.8507 19.9002 60.768 20.1069 60.6026 20.2722C60.4511 20.4238 60.2443 20.4996 59.9825 20.4996H53.6777V26.8872C53.6777 27.1352 53.5881 27.3488 53.4089 27.528C53.2436 27.6934 53.0368 27.776 52.7888 27.776Z" fill="white"/>
<path d="M66.9902 27.776C66.7283 27.776 66.5147 27.6934 66.3494 27.528C66.184 27.3626 66.1013 27.149 66.1013 26.8872V12.5204C66.1013 12.2586 66.184 12.045 66.3494 11.8796C66.5147 11.7142 66.7283 11.6315 66.9902 11.6315H70.8144C71.8204 11.6315 72.7162 11.8451 73.5017 12.2723C74.301 12.6996 74.9212 13.2921 75.3622 14.0501C75.8169 14.7943 76.0443 15.6625 76.0443 16.6547C76.0443 17.5918 75.8169 18.4256 75.3622 19.156C74.9212 19.8864 74.301 20.4583 73.5017 20.8717C72.7162 21.2852 71.8204 21.4919 70.8144 21.4919H67.8791V26.8872C67.8791 27.149 67.7964 27.3626 67.631 27.528C67.4656 27.6934 67.252 27.776 66.9902 27.776ZM75.6102 27.776C75.4311 27.776 75.2795 27.7416 75.1555 27.6727C75.0314 27.59 74.9281 27.4729 74.8454 27.3213L70.9384 21.0991L72.6955 20.6443L76.3131 26.4117C76.5336 26.7562 76.568 27.0732 76.4164 27.3626C76.2786 27.6382 76.0099 27.776 75.6102 27.776ZM67.8791 19.7968H70.8144C71.4897 19.7968 72.0892 19.6659 72.6128 19.404C73.1503 19.1284 73.5706 18.7563 73.8738 18.2878C74.177 17.8054 74.3286 17.2611 74.3286 16.6547C74.3286 15.9932 74.177 15.4144 73.8738 14.9183C73.5706 14.4084 73.1503 14.0156 72.6128 13.74C72.0892 13.4506 71.4897 13.3059 70.8144 13.3059H67.8791V19.7968Z" fill="white"/>
<path d="M78.1543 27.776C77.8098 27.776 77.5548 27.6382 77.3894 27.3626C77.2379 27.0732 77.2241 26.7838 77.3481 26.4944L83.3429 12.231C83.522 11.8313 83.8114 11.6315 84.2111 11.6315C84.6107 11.6315 84.8863 11.8313 85.0379 12.231L91.0534 26.5151C91.1912 26.8183 91.1705 27.1077 90.9914 27.3833C90.826 27.6451 90.5848 27.776 90.2679 27.776C90.0887 27.776 89.9233 27.7278 89.7717 27.6313C89.6201 27.5349 89.503 27.404 89.4203 27.2386L83.9217 13.7607H84.5418L78.9605 27.2386C78.8916 27.4177 78.7813 27.5555 78.6297 27.652C78.4781 27.7347 78.3197 27.776 78.1543 27.776ZM79.4359 24.0138L80.1181 22.5048H88.4074L89.1102 24.0138H79.4359Z" fill="white"/>
<path d="M94.3841 27.776C94.1222 27.776 93.9086 27.6934 93.7433 27.528C93.5779 27.3626 93.4952 27.149 93.4952 26.8872V12.5204C93.4952 12.2586 93.5779 12.045 93.7433 11.8796C93.9086 11.7142 94.1222 11.6315 94.3841 11.6315C94.6597 11.6315 94.8871 11.7418 95.0662 11.9623L104.679 24.634V12.5204C104.679 12.2586 104.761 12.045 104.927 11.8796C105.092 11.7142 105.306 11.6315 105.567 11.6315C105.815 11.6315 106.022 11.7142 106.188 11.8796C106.367 12.045 106.456 12.2586 106.456 12.5204V26.8872C106.456 27.149 106.367 27.3626 106.188 27.528C106.022 27.6934 105.815 27.776 105.567 27.776C105.443 27.776 105.319 27.7554 105.195 27.714C105.071 27.6589 104.968 27.5762 104.885 27.466L95.273 14.7943V26.8872C95.273 27.149 95.1834 27.3626 95.0042 27.528C94.8389 27.6934 94.6321 27.776 94.3841 27.776Z" fill="white"/>
<path d="M110.47 27.776C110.208 27.776 109.994 27.6934 109.829 27.528C109.677 27.3626 109.595 27.1697 109.581 26.9492C109.567 26.7149 109.622 26.5151 109.746 26.3497L120.268 13.2232H110.573C110.297 13.2232 110.084 13.1543 109.932 13.0165C109.794 12.8787 109.725 12.6927 109.725 12.4584C109.725 12.2241 109.808 12.0312 109.974 11.8796C110.139 11.7142 110.353 11.6315 110.614 11.6315H121.653C121.915 11.6315 122.122 11.7142 122.273 11.8796C122.439 12.045 122.528 12.2379 122.542 12.4584C122.569 12.6789 122.514 12.8649 122.376 13.0165L111.813 26.1843H121.653C121.901 26.1843 122.108 26.2601 122.273 26.4117C122.439 26.5633 122.521 26.7494 122.521 26.9698C122.521 27.2041 122.439 27.3971 122.273 27.5487C122.108 27.7002 121.901 27.776 121.653 27.776H110.47Z" fill="white"/>
<path d="M126.583 27.776C126.321 27.776 126.107 27.6934 125.942 27.528C125.776 27.3626 125.694 27.149 125.694 26.8872V12.5204C125.694 12.2586 125.776 12.045 125.942 11.8796C126.107 11.7142 126.321 11.6315 126.583 11.6315C126.844 11.6315 127.058 11.7142 127.223 11.8796C127.389 12.045 127.471 12.2586 127.471 12.5204V26.8872C127.471 27.149 127.389 27.3626 127.223 27.528C127.058 27.6934 126.844 27.776 126.583 27.776Z" fill="white"/>
<path d="M132.497 27.776C132.236 27.776 132.022 27.6934 131.857 27.528C131.691 27.3626 131.608 27.149 131.608 26.8872V12.5204C131.608 12.2586 131.691 12.045 131.857 11.8796C132.022 11.7142 132.236 11.6315 132.497 11.6315C132.773 11.6315 133 11.7418 133.18 11.9623L142.792 24.634V12.5204C142.792 12.2586 142.874 12.045 143.04 11.8796C143.205 11.7142 143.419 11.6315 143.681 11.6315C143.929 11.6315 144.135 11.7142 144.301 11.8796C144.48 12.045 144.57 12.2586 144.57 12.5204V26.8872C144.57 27.149 144.48 27.3626 144.301 27.528C144.135 27.6934 143.929 27.776 143.681 27.776C143.557 27.776 143.433 27.7554 143.309 27.714C143.185 27.6589 143.081 27.5762 142.999 27.466L133.386 14.7943V26.8872C133.386 27.149 133.297 27.3626 133.117 27.528C132.952 27.6934 132.745 27.776 132.497 27.776Z" fill="white"/>
<path d="M149.596 27.776C149.334 27.776 149.12 27.6934 148.955 27.528C148.79 27.3626 148.707 27.149 148.707 26.8872V12.5204C148.707 12.2586 148.79 12.045 148.955 11.8796C149.12 11.7142 149.334 11.6315 149.596 11.6315C149.858 11.6315 150.071 11.7142 150.237 11.8796C150.402 12.045 150.485 12.2586 150.485 12.5204V18.8046H160.428V12.5204C160.428 12.2586 160.51 12.045 160.676 11.8796C160.841 11.7142 161.055 11.6315 161.317 11.6315C161.565 11.6315 161.771 11.7142 161.937 11.8796C162.102 12.045 162.185 12.2586 162.185 12.5204V26.8872C162.185 27.149 162.102 27.3626 161.937 27.528C161.771 27.6934 161.565 27.776 161.317 27.776C161.055 27.776 160.841 27.6934 160.676 27.528C160.51 27.3626 160.428 27.149 160.428 26.8872V20.3963H150.485V26.8872C150.485 27.149 150.402 27.3626 150.237 27.528C150.071 27.6934 149.858 27.776 149.596 27.776Z" fill="white"/>
<path d="M173.773 27.9828C172.574 27.9828 171.471 27.776 170.465 27.3626C169.459 26.9492 168.584 26.3773 167.84 25.6469C167.109 24.9027 166.544 24.0276 166.145 23.0216C165.745 22.0018 165.545 20.8924 165.545 19.6934C165.545 18.4945 165.745 17.392 166.145 16.386C166.544 15.38 167.109 14.5118 167.84 13.7814C168.584 13.0372 169.459 12.4584 170.465 12.045C171.471 11.6315 172.574 11.4248 173.773 11.4248C174.972 11.4248 176.067 11.6315 177.059 12.045C178.065 12.4584 178.94 13.0372 179.685 13.7814C180.429 14.5118 181.001 15.38 181.4 16.386C181.8 17.392 182 18.4945 182 19.6934C182 20.8924 181.8 22.0018 181.4 23.0216C181.001 24.0276 180.429 24.9027 179.685 25.6469C178.94 26.3773 178.065 26.9492 177.059 27.3626C176.067 27.776 174.972 27.9828 173.773 27.9828ZM173.773 26.329C174.71 26.329 175.571 26.1637 176.357 25.8329C177.156 25.4884 177.845 25.0198 178.424 24.4272C179.016 23.8209 179.471 23.118 179.788 22.3187C180.105 21.5057 180.263 20.6306 180.263 19.6934C180.263 18.7563 180.105 17.8881 179.788 17.0888C179.471 16.2757 179.016 15.5729 178.424 14.9803C177.845 14.374 177.156 13.9054 176.357 13.5747C175.571 13.2439 174.71 13.0785 173.773 13.0785C172.835 13.0785 171.967 13.2439 171.168 13.5747C170.369 13.9054 169.68 14.374 169.101 14.9803C168.522 15.5729 168.067 16.2757 167.736 17.0888C167.419 17.8881 167.261 18.7563 167.261 19.6934C167.261 20.6306 167.419 21.5057 167.736 22.3187C168.067 23.118 168.522 23.8209 169.101 24.4272C169.68 25.0198 170.369 25.4884 171.168 25.8329C171.967 26.1637 172.835 26.329 173.773 26.329Z" fill="white"/>
</svg>
