<svg width="85" height="28" viewBox="0 0 85 28" fill="none" xmlns="http://www.w3.org/2000/svg">
<mask id="mask0_12_2980" style="mask-type:luminance" maskUnits="userSpaceOnUse" x="0" y="0" width="85" height="28">
<path d="M85 0.966553H0V27.1336H85V0.966553Z" fill="white"/>
</mask>
<g mask="url(#mask0_12_2980)">
<path d="M45.9633 26.1074C45.8661 26.6149 46.2373 26.7688 46.6085 26.7688C46.8294 26.7688 47.2361 26.7012 47.3157 26.3011C47.4483 25.6213 45.5656 26.1288 45.7687 25.0611C45.8748 24.5074 46.4669 24.2676 46.9531 24.2676C47.3243 24.2676 48.0844 24.4552 47.9519 25.1569L47.4747 25.2215C47.5454 24.8216 47.2626 24.6306 46.9091 24.6306C46.6527 24.6306 46.3079 24.7075 46.2463 25.0367C46.1226 25.655 48.0229 25.2151 47.8198 26.295C47.7049 26.8735 47.0685 27.1348 46.4764 27.1348C45.8752 27.1348 45.3805 26.861 45.4511 26.1689L45.9633 26.1074Z" fill="white"/>
<path d="M50.4268 25.4361C50.4622 24.9931 50.2766 24.6301 49.7641 24.6301C49.3045 24.6301 48.9688 25.0208 48.8624 25.4361H50.4268ZM48.7918 25.8022C48.6858 26.3469 48.8891 26.7681 49.428 26.7681C49.8346 26.7681 50.1263 26.565 50.3118 26.1588L50.7625 26.2142C50.462 26.8264 49.9407 27.1343 49.3395 27.1343C48.4998 27.1527 48.1462 26.5006 48.2967 25.722C48.4735 24.8361 48.9949 24.2666 49.8877 24.2666C50.7449 24.2666 51.0365 24.8883 50.8865 25.6942L50.86 25.8019L48.7918 25.8022Z" fill="white"/>
<path d="M51.7012 24.3328H52.1343L52.0724 24.6743H52.0813C52.2934 24.4528 52.6115 24.2651 52.9296 24.2651C53.2213 24.2651 53.5483 24.3851 53.6278 24.7388C53.8753 24.4681 54.264 24.2651 54.556 24.2651C54.9981 24.2651 55.4043 24.4589 55.2542 25.2588L54.9007 27.0648H54.4321L54.7856 25.2344C54.8563 24.899 54.7414 24.6991 54.4144 24.6991C54.1227 24.6991 53.6987 24.8591 53.6191 25.2712L53.2744 27.0648H52.8058L53.1594 25.2344C53.2213 24.899 53.1152 24.6991 52.7793 24.6991C52.4876 24.6991 52.0721 24.8591 51.9926 25.2712L51.6391 27.0648H51.1704L51.7012 24.3328Z" fill="white"/>
<path d="M56.3957 22.9946H56.8643L56.767 23.5329H56.2984L56.3957 22.9946ZM56.1393 24.3329H56.6079L56.0778 27.065H55.6091L56.1393 24.3329Z" fill="white"/>
<path d="M59.0553 25.2351C59.0641 24.8659 58.8255 24.6288 58.4456 24.6288C57.7829 24.6288 57.4823 25.2073 57.3938 25.7054C57.2877 26.2377 57.4026 26.7671 58.0215 26.7671C58.4901 26.7671 58.8432 26.4933 58.9497 26.0317L59.4448 26.0717C59.2415 26.7331 58.6581 27.1333 57.9689 27.1333C57.0936 27.1333 56.7225 26.5642 56.8816 25.7275C57.0495 24.8813 57.6418 24.2661 58.5166 24.2661C59.0912 24.2661 59.5594 24.5614 59.5684 25.1862L59.0553 25.2351Z" fill="white"/>
<path d="M60.9793 26.7656C61.66 26.7656 61.9341 26.1504 62.0222 25.698C62.1105 25.2456 62.0664 24.6274 61.3945 24.6274C60.7228 24.6274 60.4397 25.2456 60.3517 25.698C60.2633 26.1504 60.3075 26.7656 60.9793 26.7656ZM61.4655 24.2644C62.3052 24.2644 62.6853 24.8672 62.5263 25.698C62.3672 26.5258 61.7485 27.1316 60.9088 27.1316C60.078 27.1316 59.6889 26.5253 59.848 25.698C60.0159 24.8672 60.6347 24.2644 61.4655 24.2644Z" fill="white"/>
<path d="M63.348 24.3329H63.8166L63.7459 24.6991H63.7547C63.9845 24.4252 64.2849 24.2651 64.6385 24.2651C65.1866 24.2651 65.5577 24.5051 65.4162 25.2651L65.0627 27.0648H64.594L64.9387 25.3109C65.0271 24.8401 64.8062 24.6986 64.4791 24.6986C64.037 24.6986 63.6924 24.9786 63.6039 25.4186L63.2857 27.0648H62.8171L63.348 24.3329Z" fill="white"/>
<path d="M67.0337 26.7315C67.6434 26.7315 67.9884 26.2393 68.0855 25.6976C68.1916 25.1529 67.9794 24.6638 67.4403 24.6638C66.8306 24.6638 66.4945 25.1529 66.3885 25.6976C66.2824 26.2389 66.4327 26.7315 67.0337 26.7315ZM68.28 27.0637H67.8114L67.8733 26.7376H67.8556H67.8644C67.6258 26.996 67.2812 27.1314 66.9452 27.1314C65.9374 27.1314 65.7433 26.4298 65.8844 25.6978C66.0258 24.9654 66.5296 24.2642 67.4664 24.2642C67.8287 24.2642 68.1116 24.3995 68.2616 24.6733H68.2705L68.5975 22.9934H69.0661L68.28 27.0637Z" fill="white"/>
<path d="M71.1894 27.0651H70.7208L70.7915 26.699H70.7827C70.5529 26.9728 70.2525 27.1329 69.8989 27.1329C69.3508 27.1329 68.9796 26.893 69.1301 26.1329L69.4748 24.3333H69.9434L69.5987 26.1329C69.5192 26.5205 69.7313 26.699 70.0674 26.699C70.5005 26.699 70.8541 26.419 70.9336 25.9789L71.2518 24.3328H71.7204L71.1894 27.0651Z" fill="white"/>
<path d="M74.1824 25.2351C74.1824 24.8659 73.9525 24.6288 73.5726 24.6288C72.9099 24.6288 72.6093 25.2073 72.5119 25.7054C72.4058 26.2377 72.5295 26.7671 73.1481 26.7671C73.6077 26.7671 73.9613 26.4933 74.0673 26.0317L74.571 26.0717C74.3589 26.7331 73.7757 27.1333 73.0951 27.1333C72.2113 27.1333 71.8402 26.5642 71.9992 25.7275C72.1672 24.8813 72.7594 24.2661 73.6432 24.2661C74.2178 24.2661 74.686 24.5614 74.695 25.1862L74.1824 25.2351Z" fill="white"/>
<path d="M75.123 24.3328H75.5736L75.7416 23.4807H76.2102L76.0422 24.3328H76.5549L76.4754 24.7328H75.9717L75.6358 26.4712C75.6093 26.6035 75.5828 26.7327 75.7684 26.7327C75.8745 26.7327 75.9717 26.7112 76.0689 26.6774L75.9982 27.0773C75.8303 27.1111 75.6712 27.1327 75.521 27.1327C75.0349 27.1327 75.0789 26.905 75.141 26.5974L75.5034 24.7328H75.0437L75.123 24.3328Z" fill="white"/>
<path d="M77.7311 26.7656C78.4028 26.7656 78.6859 26.1504 78.7654 25.698C78.8538 25.2456 78.8184 24.6274 78.1378 24.6274C77.4661 24.6274 77.183 25.2456 77.1035 25.698C77.0151 26.1504 77.0505 26.7656 77.7311 26.7656ZM78.2083 24.2644C79.048 24.2644 79.4281 24.8672 79.2691 25.698C79.11 26.5258 78.4914 27.1316 77.6606 27.1316C76.8209 27.1316 76.4322 26.5253 76.5998 25.698C76.7589 24.8672 77.3776 24.2644 78.2083 24.2644Z" fill="white"/>
<path d="M80.0828 24.3329H80.5518L80.4628 24.8007H80.4718C80.7638 24.4315 81.0638 24.2991 81.5328 24.2991L81.4358 24.8131C81.3468 24.8069 81.2058 24.8008 81.1258 24.8008C80.6758 24.8008 80.3838 25.2192 80.3218 25.5332L80.0208 27.0651H79.5527L80.0828 24.3329Z" fill="white"/>
<path d="M83.3319 13.8063H83.0049V13.6833H83.8009V13.8063H83.4739V14.7633H83.3319V13.8063Z" fill="white"/>
<path d="M83.9739 13.6865H84.1589L84.4949 14.5634L84.8219 13.6865H85.0079V14.7665H84.8659V13.896L84.5479 14.7665H84.4329L84.1239 13.896H84.1149V14.7665H83.9739V13.6865Z" fill="white"/>
<path d="M8.46996 4.88295L12.7303 2.32315L10.114 0.966553L5.85376 3.52635L8.46996 4.88295Z" fill="#F2511A"/>
<path d="M12.3951 6.92682L16.6553 4.36402L14.0391 3.00732L9.77881 5.56722L12.3951 6.92682Z" fill="#FBBC09"/>
<path d="M16.3202 8.96627L20.5805 6.40648L17.9642 5.04688L13.7039 7.60667L16.3202 8.96627Z" fill="#F2511A"/>
<path d="M10.441 12.4936L14.7012 9.93385L12.0939 8.57715L7.83374 11.137L10.441 12.4936Z" fill="#FBBC09"/>
<path d="M14.3661 14.5374L18.6264 11.9775L16.0191 10.6179L11.7588 13.1777L14.3661 14.5374Z" fill="#F2511A"/>
<path d="M4.57483 16.0255L8.83513 13.4657L6.21883 12.106L1.96753 14.6658L4.57483 16.0255Z" fill="#F2511A"/>
<path d="M8.49988 18.0647L12.7601 15.5049L10.1438 14.1482L5.89258 16.708L8.49988 18.0647Z" fill="#FBBC09"/>
<path d="M2.62948 21.5965L6.88078 19.0367L4.27348 17.677L0.0131836 20.2368L2.62948 21.5965Z" fill="#F2511A"/>
<path d="M21.7737 15.4225H20.5803L20.8543 14.032H22.0387L22.1889 13.2783C22.3569 12.4107 22.8696 11.1614 24.7962 11.1614C25.2913 11.1614 25.9716 11.2352 26.2371 11.3368L25.9189 12.9889H25.2827C24.8938 12.9889 24.4785 13.1058 24.3989 13.5396L24.3017 14.0317H25.6891L25.424 15.4221H24.0275L22.8342 21.5962H20.5805L21.7737 15.4225Z" fill="white"/>
<path d="M26.7319 13.8874H28.9945L28.8443 14.669C29.4275 14.2077 30.3027 13.9152 31.1159 13.8567L30.7447 15.8564L30.4884 15.8871C29.1095 16.0471 28.5353 16.2778 28.3673 17.1331L27.501 21.5968H25.2383L26.7319 13.8874Z" fill="white"/>
<path d="M68.0768 17.8468L66.4683 18.2807C65.8762 18.4407 65.3105 18.6561 65.1869 19.2808C65.072 19.8901 65.5316 20.1513 66.0797 20.1513C66.9635 20.1513 67.7412 19.5544 67.9712 18.3821L68.0768 17.8468ZM69.8358 19.991C69.7298 20.5263 69.6326 21.1202 69.7209 21.5999H67.6349C67.5995 21.3384 67.6083 21.0616 67.6437 20.7999H67.6172C67.1221 21.4092 65.9202 21.8 65.107 21.8C63.631 21.8 62.6852 20.9911 62.9678 19.5108C63.3302 17.6586 64.9475 17.0036 67.4744 16.6556L68.3227 16.5417L68.4464 15.9047C68.5613 15.3232 68.1459 15.0769 67.5361 15.0769C66.8114 15.0769 66.4138 15.3384 66.1487 16.1078H63.9745C64.4782 13.8896 66.5732 13.6865 67.6161 13.6865C69.7197 13.6865 70.9395 14.1786 70.621 15.9171L69.8343 19.9905" fill="white"/>
<path d="M71.1895 21.5965L73.1871 11.2793H75.4497L73.4522 21.5965H71.1895Z" fill="white"/>
<path d="M35.1629 15.3369C35.8081 15.3369 36.5593 15.6845 36.4093 16.8137H33.3423C33.634 15.8016 34.5092 15.3369 35.1629 15.3369ZM34.4027 20.147C33.678 20.147 32.8293 19.6822 33.0948 18.2024H38.3966C38.8472 15.8273 38.3082 13.6831 35.4977 13.6831C33.1465 13.6831 31.4055 15.2492 30.8843 17.9715C30.46 20.1466 31.5295 21.7957 33.9247 21.7957C35.6482 21.7957 37.0091 21.1159 38.0789 19.6668L36.4969 18.8455C35.7016 19.7284 35.2245 20.147 34.4027 20.147Z" fill="white"/>
<path d="M43.6029 15.3369C44.2571 15.3369 44.9994 15.6845 44.8578 16.8137H41.7819C42.0824 15.8016 42.9577 15.3369 43.6029 15.3369ZM42.8517 20.147C42.127 20.147 41.2697 19.6822 41.5438 18.2024H46.8456C47.2962 15.8273 46.7484 13.6831 43.9377 13.6831C41.5955 13.6831 39.8545 15.2492 39.3328 17.9715C38.9086 20.1466 39.978 21.7957 42.3733 21.7957C44.0968 21.7957 45.4577 21.1159 46.5185 19.6668L44.9365 18.8455C44.1412 19.7284 43.6726 20.147 42.8504 20.147" fill="white"/>
<path d="M79.4415 15.3369C80.0959 15.3369 80.8379 15.6845 80.6959 16.8137H77.6205C77.921 15.8016 78.7963 15.3369 79.4415 15.3369ZM78.6903 20.147C77.9655 20.147 77.1083 19.6822 77.3823 18.2024H82.6839C83.1259 15.8273 82.5869 13.6831 79.7763 13.6831C77.4341 13.6831 75.693 15.2492 75.1628 17.9715C74.7474 20.1466 75.817 21.7957 78.2122 21.7957C79.9358 21.7957 81.2969 21.1159 82.3579 19.6668L80.7759 18.8455C79.9802 19.7284 79.5125 20.147 78.6903 20.147Z" fill="white"/>
<path d="M60.7442 18.9839C60.2225 19.8117 59.6393 20.0605 58.9501 20.0605C57.7482 20.0605 57.3946 19.0604 57.6507 17.744C57.9071 16.4241 58.561 15.424 59.8514 15.424C60.1961 15.424 60.9296 15.6425 61.1242 16.587L62.9713 15.4732C62.4761 14.1995 61.3362 13.6855 59.9133 13.6855C57.7832 13.6855 55.7947 15.1931 55.3 17.7435C54.8049 20.3372 56.1131 21.7986 58.4108 21.7986C59.8958 21.7986 61.3097 20.9896 62.238 19.7617L60.7442 18.9839Z" fill="white"/>
<path d="M50.3329 15.9312C50.4124 15.5405 50.8545 15.3373 51.4202 15.3373C52.1184 15.3373 53.0022 15.6142 53.3647 16.1279L55.2648 14.9863C54.2395 14.091 52.9667 13.6848 51.8533 13.6848C50.2888 13.6848 48.4503 14.4386 48.0702 16.3797C47.5486 19.1178 52.295 18.161 52.0654 19.3641C51.9239 20.0593 51.0576 20.1487 50.6779 20.1487C49.6526 20.1487 49.025 19.7303 48.4683 19.0721L46.7183 20.1243C47.602 21.3057 48.6893 21.7978 50.2888 21.7978C51.9683 21.7978 53.9039 21.0748 54.2926 19.0473C54.8582 16.1612 50.0768 17.2511 50.3329 15.9312Z" fill="white"/>
</g>
</svg>
