<svg width="135" height="37" viewBox="0 0 135 37" fill="none" xmlns="http://www.w3.org/2000/svg">
<path d="M36.1884 0.441406H0V34.462H36.1884V0.441406Z" fill="#FDFEFD"/>
<path d="M0.00427246 36.1197C0.00596078 34.3807 0.00680495 32.6418 0.00849327 30.9028C0.00849327 30.4056 0.0101816 30.4022 0.44999 30.5829C3.34884 31.7765 6.36334 32.5143 9.48083 32.819C13.9498 33.2555 18.3243 32.7726 22.6059 31.4228C27.6995 29.8172 32.1077 27.0973 35.8752 23.329C35.925 23.2792 35.974 23.2294 36.028 23.1846C36.0475 23.1677 36.0795 23.166 36.1893 23.1289V36.1206H0.00427246V36.1197Z" fill="#79B856"/>
<path d="M18.1073 0.00929132C23.9675 0.00929132 29.8285 0.0135121 35.6887 5.53539e-06C36.0913 -0.000838626 36.2011 0.0945517 36.2002 0.504814C36.185 5.44232 36.1876 10.3798 36.1943 15.3173C36.1943 15.7462 36.1192 16.0847 35.8212 16.4485C35.1475 17.2716 34.5355 18.1461 33.8298 18.9472C31.505 21.5869 28.7885 23.7269 25.66 25.3417C22.6632 26.8891 19.4858 27.8717 16.1404 28.2769C11.235 28.8703 6.48487 28.2516 1.91543 26.3463C1.39795 26.1302 0.89399 25.8803 0.37483 25.6684C0.0844387 25.5494 2.24968e-05 25.3696 0.000866659 25.0589C0.0101524 19.8547 0.00677579 14.6513 0.00677579 9.44702C0.00761995 6.44434 0.0143732 3.4425 2.24968e-05 0.441502C-0.00166583 0.0903309 0.091192 5.53539e-06 0.441519 0.00169386C6.33039 0.012668 12.2184 0.00929132 18.1073 0.00929132ZM11.5667 12.0166C11.5819 10.7968 10.6221 9.78975 9.43184 9.7754C8.14281 9.7602 7.12137 10.7057 7.1104 11.9238C7.09942 13.1816 8.04742 14.2081 9.236 14.2258C10.5824 14.2461 11.5507 13.3276 11.5667 12.0166ZM25.2151 11.9863C25.2042 13.2289 26.1606 14.214 27.3922 14.2284C28.6509 14.2427 29.6681 13.2702 29.6824 12.0378C29.6968 10.8129 28.7108 9.78891 27.5053 9.77624C26.191 9.76274 25.227 10.693 25.216 11.9863H25.2151Z" fill="#79B856"/>
<path d="M95.8107 9.94036C95.8107 7.1065 95.8191 4.2735 95.8014 1.43965C95.7989 1.0336 95.8715 0.870681 96.3223 0.898538C97.0221 0.942435 97.7269 0.918798 98.4301 0.905292C98.6834 0.900227 98.7712 0.979578 98.7712 1.23958C98.7644 5.46208 98.7636 9.68458 98.7712 13.9071C98.7712 14.1797 98.664 14.2312 98.4225 14.2287C97.3682 14.2194 96.3138 14.211 95.2603 14.2338C94.953 14.2405 94.8146 14.1038 94.6702 13.8716C92.8688 10.9778 91.0589 8.08995 89.2507 5.20039C89.1933 5.10837 89.1275 5.02142 88.9823 4.9387C88.9823 5.09656 88.9823 5.25526 88.9823 5.41312C88.9823 8.20476 88.9755 10.9964 88.989 13.788C88.9907 14.135 88.9038 14.2464 88.5475 14.2329C87.8173 14.2051 87.0863 14.2152 86.3552 14.2295C86.0986 14.2346 86.0167 14.151 86.0176 13.8944C86.0235 9.67191 86.0226 5.44941 86.0167 1.22692C86.0167 0.994773 86.0826 0.904448 86.3257 0.906136C87.5202 0.915422 88.7155 0.919642 89.91 0.903603C90.1767 0.900227 90.2823 1.05049 90.392 1.23198C91.8347 3.60492 93.2774 5.97786 94.72 8.34996C95.0518 8.89528 95.3869 9.43724 95.7212 9.98172C95.7516 9.96821 95.7828 9.95386 95.8132 9.94036H95.8107Z" fill="#49AAE2"/>
<path d="M101.459 7.53159C101.459 5.47099 101.467 3.40954 101.451 1.34895C101.449 1.00199 101.54 0.896475 101.895 0.90154C103.313 0.920955 104.732 0.896475 106.151 0.913358C107.306 0.927709 108.449 1.08219 109.537 1.48654C111.743 2.30707 113.1 3.84935 113.481 6.1995C113.858 8.52854 113.4 10.6128 111.623 12.2741C110.457 13.3631 109.028 13.9337 107.459 14.1236C105.543 14.3558 103.615 14.1768 101.694 14.2258C101.502 14.2309 101.455 14.1329 101.459 13.9666C101.465 13.7286 101.459 13.4897 101.459 13.2516C101.459 11.3447 101.459 9.43855 101.459 7.53159ZM104.232 7.5434C104.232 8.74887 104.235 9.95433 104.229 11.159C104.229 11.3776 104.24 11.5338 104.534 11.5295C105.474 11.5169 106.412 11.5473 107.345 11.3675C109.28 10.9952 110.398 9.7129 110.522 7.83717C110.675 5.53008 109.262 4.24104 107.634 3.82234C106.637 3.56571 105.63 3.62565 104.621 3.59864C104.296 3.5902 104.22 3.70585 104.224 4.01059C104.24 5.18735 104.231 6.36495 104.231 7.54256L104.232 7.5434Z" fill="#49AAE2"/>
<path d="M56.3478 7.53726C56.3478 5.47582 56.3554 3.41438 56.3402 1.35293C56.3377 1.00936 56.4246 0.897088 56.7817 0.900464C58.5941 0.917347 60.4065 0.904685 62.2189 0.910594C63.2944 0.913971 64.3175 1.12163 65.1929 1.79105C66.3545 2.67827 66.6229 3.92172 66.5115 5.28335C66.3764 6.93622 65.5576 8.06487 63.898 8.48695C63.6042 8.56208 63.757 8.68195 63.8296 8.80435C64.8004 10.4454 65.7729 12.0856 66.7445 13.7258C66.7943 13.8102 66.8407 13.8972 66.8922 13.9808C66.9969 14.1479 66.9766 14.2281 66.7555 14.2272C65.7298 14.2222 64.7042 14.2171 63.6785 14.2298C63.4042 14.2332 63.3679 14.028 63.2851 13.8643C62.5102 12.3237 61.7352 10.7831 60.9763 9.23487C60.8396 8.95546 60.6682 8.85416 60.3584 8.85753C59.3176 8.86766 59.3176 8.85669 59.3176 9.89163C59.3176 11.1959 59.3091 12.5001 59.3235 13.8043C59.3268 14.1183 59.2618 14.25 58.9107 14.2365C58.1813 14.2078 57.4494 14.2137 56.7192 14.2332C56.4196 14.2408 56.3402 14.1403 56.3419 13.8508C56.3529 11.7471 56.3478 9.64345 56.3478 7.5398V7.53726ZM59.2897 4.8216C59.2897 5.22764 59.2922 5.63452 59.288 6.04057C59.2863 6.21109 59.2998 6.34109 59.5286 6.33687C60.3559 6.31998 61.1865 6.34868 62.0113 6.29466C62.8048 6.24232 63.3104 5.83628 63.4388 5.26394C63.6625 4.26445 63.1247 3.54185 62.0518 3.37808C61.2279 3.2523 60.3989 3.33249 59.5733 3.30379C59.348 3.2962 59.2813 3.39159 59.2872 3.60263C59.2981 4.00867 59.2905 4.41471 59.2897 4.8216Z" fill="#49AAE2"/>
<path d="M74.1427 7.5704C74.1427 5.49461 74.1511 3.41797 74.1343 1.34218C74.1317 0.98341 74.2432 0.900682 74.5859 0.902371C77.3547 0.915033 80.1227 0.915033 82.8916 0.902371C83.2335 0.900682 83.3618 0.977501 83.3432 1.34049C83.3128 1.92803 83.3154 2.51894 83.3432 3.10732C83.3593 3.4509 83.2681 3.55979 82.9068 3.55557C81.1366 3.53616 79.3655 3.55895 77.5945 3.537C77.1977 3.53193 77.0838 3.65349 77.1065 4.03421C77.1369 4.53733 77.1302 5.04467 77.1082 5.54864C77.0947 5.85 77.207 5.92767 77.4949 5.92598C79.195 5.915 80.896 5.9302 82.5961 5.91163C82.9498 5.90741 83.0697 6.02137 83.0579 6.36241C83.0351 6.993 83.0098 7.62443 83.0376 8.25418C83.0511 8.55638 82.9524 8.59775 82.6915 8.59606C81.0192 8.58678 79.347 8.591 77.6747 8.591C77.5759 8.591 77.4771 8.59775 77.3801 8.59015C77.1766 8.57327 77.1108 8.66866 77.1125 8.86366C77.1184 9.66308 77.1251 10.4625 77.1108 11.2619C77.1049 11.5675 77.2838 11.554 77.4923 11.5532C79.3613 11.5506 81.2311 11.5633 83.1001 11.5422C83.4952 11.538 83.6454 11.6241 83.6201 12.0445C83.583 12.659 83.5998 13.2786 83.615 13.8957C83.6209 14.1532 83.5332 14.2308 83.2765 14.23C80.3397 14.2224 77.402 14.2207 74.4652 14.2317C74.1444 14.2325 74.1427 14.0721 74.1427 13.84C74.1469 11.7498 74.1452 9.6597 74.1452 7.5704H74.1427Z" fill="#49AAE2"/>
<path d="M45.3855 7.54411C45.3855 5.48267 45.3922 3.42123 45.3779 1.35978C45.3753 1.02634 45.4446 0.898872 45.8118 0.901404C48.4954 0.916599 51.179 0.914911 53.8625 0.903092C54.1808 0.901404 54.2736 0.995106 54.2618 1.30745C54.239 1.92368 54.2365 2.54161 54.2618 3.15785C54.2753 3.47779 54.1724 3.55714 53.86 3.5546C52.1599 3.53941 50.4597 3.55714 48.7596 3.53857C48.4076 3.53434 48.3004 3.63142 48.3156 3.98175C48.3426 4.6115 48.3375 5.24377 48.3156 5.87436C48.3054 6.17742 48.4152 6.25086 48.7022 6.24832C50.3179 6.23397 51.9336 6.24664 53.5494 6.22553C53.9047 6.22131 54.0077 6.32936 53.9917 6.67631C53.9647 7.26385 53.9672 7.85476 53.9917 8.4423C54.0052 8.76899 53.9132 8.8762 53.5713 8.87198C51.9834 8.85425 50.3956 8.87451 48.8085 8.85594C48.4405 8.85172 48.3274 8.95133 48.3333 9.32698C48.3544 10.8271 48.3333 12.328 48.3485 13.8281C48.3519 14.1362 48.2776 14.2434 47.9534 14.2324C47.2376 14.2079 46.52 14.2088 45.8042 14.2324C45.4724 14.2434 45.3762 14.1471 45.3787 13.812C45.3939 11.7227 45.3863 9.63341 45.3855 7.54327V7.54411Z" fill="#49AAE2"/>
<path d="M126.944 11.3454C126.944 10.616 126.926 9.88584 126.952 9.15733C126.965 8.7707 126.848 8.46343 126.639 8.14518C125.123 5.85159 123.622 3.54872 122.121 1.24669C122.063 1.15889 121.932 1.06857 122.013 0.958828C122.052 0.904802 122.192 0.911555 122.286 0.911555C123.34 0.909022 124.394 0.920841 125.448 0.902269C125.749 0.897204 125.861 1.05844 125.982 1.27961C126.741 2.67079 127.517 4.05268 128.264 5.44892C128.447 5.78912 128.531 5.70049 128.681 5.44555C129.506 4.0434 130.344 2.64968 131.16 1.24247C131.307 0.988374 131.469 0.898048 131.758 0.903113C132.672 0.919996 133.585 0.90649 134.499 0.911555C134.615 0.911555 134.774 0.84571 134.84 0.980776C134.894 1.09136 134.764 1.18 134.705 1.26864C133.257 3.48794 131.815 5.71146 130.345 7.91725C130.029 8.39167 129.872 8.85681 129.886 9.43506C129.922 10.9064 129.89 12.3803 129.904 13.8526C129.906 14.1421 129.832 14.2392 129.531 14.2316C128.786 14.2105 128.041 14.2139 127.297 14.2316C127.016 14.2383 126.937 14.1421 126.941 13.8703C126.955 13.0287 126.946 12.187 126.946 11.3454H126.944Z" fill="#49AAE2"/>
<path d="M115.666 7.5423C115.666 5.46736 115.675 3.39241 115.658 1.3183C115.655 0.958687 115.77 0.864141 116.113 0.875959C116.8 0.898752 117.49 0.893687 118.178 0.878492C118.526 0.870894 118.657 0.970505 118.655 1.35375C118.638 4.57761 118.654 7.80231 118.635 11.027C118.633 11.4508 118.74 11.5715 119.171 11.5639C120.729 11.536 122.289 11.5622 123.848 11.5445C124.187 11.5403 124.281 11.6449 124.268 11.9725C124.244 12.6022 124.25 13.2345 124.265 13.8642C124.271 14.1259 124.209 14.234 123.919 14.2331C121.278 14.2222 118.638 14.2213 115.997 14.2331C115.686 14.2348 115.665 14.0947 115.665 13.8516C115.671 11.7488 115.669 9.64596 115.669 7.54315H115.667L115.666 7.5423Z" fill="#49AAE2"/>
<path d="M68.5062 7.58447C68.5062 5.49517 68.5113 3.40502 68.5003 1.31572C68.4986 1.01435 68.5636 0.892796 68.8946 0.902925C69.6248 0.927406 70.3558 0.91812 71.086 0.905458C71.3393 0.901237 71.46 0.945134 71.4591 1.24397C71.4498 5.46478 71.4498 9.68643 71.4574 13.9072C71.4574 14.1782 71.3595 14.2348 71.113 14.2306C70.3685 14.217 69.6231 14.2128 68.8794 14.2322C68.5822 14.2398 68.4995 14.1453 68.5012 13.8524C68.5122 11.7631 68.5071 9.67377 68.5071 7.58362L68.5062 7.58447Z" fill="#49AAE2"/>
<path d="M85.717 35.5447C82.3868 35.5338 79.6466 33.3997 78.7907 30.1455C77.9946 27.1217 79.4272 23.8126 82.2154 22.2314C85.0206 20.641 88.5787 21.1729 90.8554 23.5129C91.0572 23.7206 91.0394 23.8345 90.8233 24.0093C90.3228 24.4136 90.3396 24.4136 89.8601 23.9932C88.0528 22.4104 85.9854 21.9191 83.7079 22.7109C81.5519 23.4605 80.2215 25.0315 79.7361 27.2475C79.1596 29.8796 80.4705 32.5319 82.9195 33.8513C85.1675 35.0627 88.068 34.6313 89.9395 32.8139C90.0611 32.6957 90.1607 32.4365 90.3557 32.5243C90.6047 32.6366 90.8352 32.8291 90.9879 33.0654C91.0884 33.2199 90.9018 33.3128 90.8115 33.4039C89.4068 34.8128 87.7143 35.5422 85.717 35.5447Z" fill="#79B856"/>
<path d="M45.3948 28.4356C45.3948 26.3176 45.4007 24.2005 45.388 22.0825C45.3864 21.7524 45.4454 21.6207 45.8177 21.6241C48.1079 21.6418 50.399 21.641 52.6892 21.6266C53.0252 21.6241 53.1172 21.7212 53.1104 22.0495C53.0961 22.8093 53.113 22.8084 52.3549 22.8084C50.556 22.8084 48.7579 22.8169 46.959 22.8025C46.6416 22.8 46.5597 22.8895 46.5606 23.2027C46.5716 26.695 46.5732 30.1873 46.5589 33.6787C46.5572 34.0383 46.694 34.0915 47.0012 34.0898C48.8981 34.0797 50.7949 34.0924 52.6917 34.0755C53.0302 34.0721 53.1214 34.1734 53.1138 34.5009C53.0952 35.2666 53.1113 35.2683 52.3625 35.2691C50.1846 35.27 48.0066 35.2615 45.8287 35.2784C45.4725 35.2809 45.3847 35.1763 45.3872 34.831C45.4024 32.6995 45.3948 30.5671 45.3948 28.4356Z" fill="#79B856"/>
<path d="M67.0636 28.4238C67.0636 26.2914 67.0703 24.1591 67.0568 22.0276C67.0551 21.7203 67.1252 21.6215 67.4494 21.6241C69.7404 21.6393 72.0306 21.6393 74.3217 21.6283C74.6205 21.6266 74.7404 21.6806 74.7336 22.0141C74.7176 22.8084 74.7362 22.8076 73.9334 22.8076C72.1623 22.8076 70.3921 22.8118 68.6211 22.8042C68.3577 22.8034 68.2167 22.8321 68.2175 23.1579C68.2235 26.7068 68.2176 30.2556 68.2049 33.8036C68.204 34.1261 68.4016 34.0822 68.5957 34.0822C70.1836 34.0831 71.7723 34.0839 73.3602 34.0839C73.7257 34.0839 74.0912 34.0915 74.4559 34.0814C74.6534 34.0763 74.7176 34.1489 74.7311 34.3481C74.7927 35.264 74.7995 35.2666 73.8895 35.2674C71.7529 35.2691 69.6172 35.2623 67.4806 35.2759C67.1573 35.2775 67.0509 35.2049 67.0534 34.8614C67.0703 32.7155 67.0619 30.5688 67.0619 28.4229L67.0636 28.4238Z" fill="#79B856"/>
<path d="M86.1872 34.1106C82.4746 34.1156 79.9066 31.5088 79.9784 28.328C80.0493 25.1422 82.7413 22.6046 85.8985 22.765C87.3572 22.8393 88.6184 23.3889 89.6753 24.4078C89.8965 24.6205 89.9277 24.7437 89.6728 24.959C89.1215 25.425 89.1333 25.4402 88.599 24.9944C87.1462 23.7839 85.1953 23.5661 83.5517 24.4331C81.9208 25.2933 80.9475 27.05 81.156 28.9063C81.3476 30.614 82.2627 31.8727 83.8295 32.57C85.5195 33.3221 87.1234 33.0604 88.5661 31.9039C89.1333 31.4489 89.3207 31.4666 89.8087 32.0449C89.9826 32.2509 89.8044 32.3192 89.7116 32.4129C88.6015 33.5357 87.2525 34.0987 86.1864 34.1106H86.1872Z" fill="#79B856"/>
<path d="M57.2291 28.4637C57.2291 26.3465 57.2392 24.2302 57.2207 22.1131C57.2173 21.7307 57.3177 21.6091 57.7077 21.6243C58.4354 21.653 58.4379 21.6302 58.4379 22.368C58.4379 26.111 58.443 29.854 58.4287 33.597C58.427 33.9828 58.5333 34.0959 58.9216 34.0917C60.7754 34.0731 62.63 34.0926 64.4838 34.0782C64.835 34.0757 64.9819 34.1398 64.9658 34.5332C64.9346 35.2685 64.9599 35.2702 64.228 35.2702C62.051 35.2702 59.8739 35.26 57.6968 35.2769C57.3321 35.2795 57.2173 35.1925 57.2207 34.8152C57.2384 32.6989 57.2291 30.5817 57.2299 28.4645L57.2291 28.4637Z" fill="#79B856"/>
<path d="M58.768 27.7218C58.768 25.8562 58.7815 23.9906 58.7579 22.125C58.7528 21.7071 58.8811 21.5636 59.2796 21.6345C59.348 21.6463 59.4214 21.6463 59.4898 21.6345C59.83 21.5763 59.9119 21.7257 59.911 22.0507C59.9017 25.3893 59.9152 28.728 59.8967 32.0658C59.8941 32.5006 60.0149 32.6061 60.4386 32.5968C61.8011 32.5689 63.1653 32.5943 64.5277 32.5808C64.8401 32.5774 64.976 32.6373 64.9642 32.9927C64.9397 33.7482 64.9616 33.7491 64.207 33.7491C62.5203 33.7491 60.8337 33.7415 59.1479 33.7558C58.8347 33.7584 58.7545 33.6849 58.7579 33.3591C58.7782 31.48 58.768 29.6 58.768 27.7201V27.7218Z" fill="#79B856"/>
<path d="M49.9507 28.1602C49.0517 28.1602 48.1518 28.1501 47.2528 28.1661C46.9539 28.172 46.8324 28.1104 46.8366 27.7769C46.8552 26.3604 46.8518 24.9439 46.84 23.5283C46.8374 23.2438 46.9092 23.1391 47.2139 23.1416C49.0542 23.1543 50.8953 23.1543 52.7356 23.1416C53.037 23.1391 53.1188 23.237 53.1096 23.5257C53.0809 24.4712 53.2218 24.3041 52.3397 24.3108C51.0608 24.3209 49.7827 24.3269 48.5038 24.3049C48.1434 24.299 48.0505 24.4155 48.0648 24.7574C48.091 25.3736 48.0851 25.9915 48.0665 26.6078C48.0581 26.888 48.1552 26.9657 48.427 26.964C49.8317 26.953 51.2372 26.9725 52.6419 26.9505C53.0057 26.9446 53.1307 27.0248 53.1155 27.408C53.0859 28.1593 53.1087 28.1602 52.3532 28.161C51.5521 28.161 50.7518 28.161 49.9507 28.161V28.1602Z" fill="#79B856"/>
<path d="M49.9389 33.75C49.0255 33.75 48.1121 33.7399 47.1996 33.7567C46.9193 33.7618 46.8383 33.6757 46.8408 33.4005C46.8518 31.8582 46.8509 30.3159 46.8417 28.7728C46.84 28.5145 46.9244 28.4394 47.1802 28.4402C49.0348 28.4495 50.8894 28.452 52.744 28.4385C53.0547 28.436 53.1138 28.5491 53.1121 28.8277C53.1079 29.6271 53.1188 29.6271 52.3068 29.6271C51.0144 29.6271 49.7219 29.6339 48.4295 29.6229C48.1594 29.6203 48.0606 29.6938 48.0674 29.9757C48.0851 30.7186 48.0902 31.4623 48.0657 32.2052C48.0547 32.5403 48.1839 32.5952 48.481 32.5926C49.8857 32.5791 51.2912 32.5985 52.6959 32.5774C53.042 32.5724 53.118 32.6847 53.1121 33.0046C53.0986 33.7483 53.1138 33.7491 52.3844 33.7491C51.5698 33.7491 50.7544 33.7491 49.9397 33.7491L49.9389 33.75Z" fill="#79B856"/>
<path d="M71.6052 23.1459C72.5177 23.1459 73.4311 23.1552 74.3436 23.14C74.6256 23.135 74.7362 23.2008 74.7336 23.5081C74.7269 24.31 74.7421 24.3109 73.9452 24.3109C72.6528 24.3109 71.3612 24.3176 70.0688 24.305C69.7818 24.3024 69.6729 24.3767 69.6822 24.6789C69.7024 25.323 69.7024 25.9688 69.6822 26.6129C69.6729 26.9025 69.7852 26.9641 70.0486 26.9624C71.4532 26.9531 72.8579 26.97 74.2618 26.9497C74.6205 26.9447 74.7531 27.0181 74.737 27.4064C74.7058 28.1594 74.7303 28.1603 73.9781 28.1603C72.2788 28.1603 70.5795 28.1543 68.8811 28.1662C68.5865 28.1679 68.4987 28.0784 68.502 27.7846C68.5164 26.3689 68.5181 24.9533 68.502 23.5376C68.4987 23.216 68.5991 23.1333 68.9098 23.14C69.808 23.1594 70.707 23.1468 71.606 23.1468L71.6052 23.1459Z" fill="#79B856"/>
<path d="M71.6136 33.7493C70.7011 33.7493 69.7877 33.7408 68.8751 33.7543C68.6134 33.7585 68.5003 33.7045 68.5029 33.4124C68.5155 31.8702 68.5155 30.3287 68.5029 28.7864C68.5003 28.4994 68.6042 28.4378 68.8701 28.4395C70.696 28.4496 72.5219 28.4496 74.3478 28.4395C74.6289 28.4378 74.7387 28.4994 74.7361 28.8059C74.7294 29.6264 74.7437 29.6264 73.9182 29.6264C72.6401 29.6264 71.362 29.6365 70.084 29.6196C69.7674 29.6154 69.6729 29.7057 69.6821 30.0214C69.7049 30.75 69.7007 31.4793 69.6821 32.2078C69.6746 32.5007 69.7666 32.5945 70.0637 32.5911C71.4684 32.5776 72.8731 32.5944 74.2769 32.5767C74.6104 32.5725 74.7471 32.635 74.7353 33.0056C74.7108 33.7476 74.7328 33.7484 73.9722 33.7484C73.1854 33.7484 72.3995 33.7484 71.6127 33.7484L71.6136 33.7493Z" fill="#79B856"/>
<path d="M11.5667 12.0168C11.5506 13.3286 10.5824 14.2463 9.23592 14.226C8.04734 14.2083 7.09935 13.1818 7.11032 11.924C7.1213 10.705 8.14273 9.76038 9.43177 9.77557C10.622 9.78992 11.5818 10.797 11.5667 12.0168Z" fill="#FDFEFD"/>
<path d="M25.2151 11.9865C25.2269 10.6933 26.1901 9.76218 27.5045 9.77653C28.7099 9.78919 29.6959 10.814 29.6816 12.038C29.6672 13.2705 28.65 14.243 27.3914 14.2286C26.1597 14.2143 25.2033 13.23 25.2143 11.9865H25.2151Z" fill="#FDFEFD"/>
</svg>
