<svg width="200" height="22" viewBox="0 0 200 22" fill="none" xmlns="http://www.w3.org/2000/svg">
<g clip-path="url(#clip0_2392_3897)">
<mask id="mask0_2392_3897" style="mask-type:luminance" maskUnits="userSpaceOnUse" x="0" y="0" width="200" height="22">
<path d="M199.97 0.598633H0V21.1137H199.97V0.598633Z" fill="white"/>
</mask>
<g mask="url(#mask0_2392_3897)">
<path d="M13.2438 5.16674H0V0.994141H13.2438V5.16674ZM186.723 0.994141V5.16674H199.967V0.994141H186.723ZM78.0877 5.16674H97.5973V0.994141H78.0877V5.16674Z" fill="#E35530"/>
<path d="M78.0904 11.9548H85.5178V20.7192H90.1754V11.9548H97.6027V7.78493H78.0932V11.9548H78.0904ZM0 7.78219V20.7192H4.67671V11.9548H13.2438V7.78493H0V7.78219ZM186.723 20.7192H199.967V16.5438H191.4V11.9548H199.967V7.78493H186.723V20.7219V20.7192ZM29.2822 13.6452L34.0438 20.7192H28.6603L24.4603 14.237H21.0795V20.7192H16.4575V0.993152H26.3206C30.7178 0.993152 33.3096 4.37397 33.3096 7.64247C33.3096 10.1795 31.9014 12.574 29.2795 13.6452H29.2822ZM28.7753 7.64247C28.7753 6.28904 27.6192 5.16302 26.1836 5.16302H21.0822V10.1521H25.9863C27.6493 10.1521 28.7753 9.02603 28.7753 7.64521V7.64247ZM55.5507 10.8562C55.5507 16.689 51.126 21.1137 45.0959 21.1137C39.0658 21.1137 34.6411 16.689 34.6411 10.8562C34.6411 5.02329 39.063 0.598633 45.0959 0.598633C51.1288 0.598633 55.5507 5.02329 55.5507 10.8562ZM50.8164 10.8562C50.8164 7.50274 48.5616 4.91096 45.0959 4.91096C41.6301 4.91096 39.3753 7.50274 39.3753 10.8562C39.3753 14.2096 41.6301 16.8014 45.0959 16.8014C48.5616 16.8014 50.8164 14.237 50.8164 10.8562ZM70.5288 12.2945L61.6493 0.993152H57.8438V20.7192H62.5206V9.41781L71.3973 20.7192H75.2027V0.993152H70.526V12.2945H70.5288ZM136.496 13.6479L141.258 20.7219H135.874L131.674 14.2397H128.293V20.7219H123.671V0.993152H133.534C137.932 0.993152 140.523 4.37397 140.523 7.64247C140.523 10.1795 139.115 12.574 136.493 13.6452L136.496 13.6479ZM135.989 7.64521C135.989 6.29178 134.833 5.16575 133.397 5.16575H128.296V10.1548H133.2C134.863 10.1548 135.989 9.02877 135.989 7.64795V7.64521ZM155.973 0.993152L163.271 20.7192H158.452L157.071 16.9438H148.729L147.348 20.7192H142.529L149.83 0.993152H155.973ZM155.578 12.8562L152.901 5.4726L150.225 12.8562H155.578ZM183.8 10.8562C183.8 16.5767 180.11 20.7192 174.471 20.7192H165.37V0.993152H174.471C180.022 0.993152 183.8 4.99589 183.8 10.8562ZM179.066 10.7712C179.066 7.30548 177.008 5.19041 174.359 5.19041H169.992V16.5192H174.359C177.008 16.5192 179.066 14.237 179.066 10.7712ZM111.227 13.5055H116.414C116.047 15.1411 114.499 16.774 111.652 16.774C107.51 16.774 105.397 13.9 105.397 10.8288C105.397 7.75754 107.707 4.99589 111.118 4.99589C113.496 4.99589 114.953 5.87534 115.907 7.25343H120.849C120.811 7.09452 120.756 6.9137 120.671 6.71644C119.46 3.44795 116.107 0.601373 111.063 0.601373C105.173 0.601373 100.666 5.02603 100.666 10.8589C100.666 16.6918 105.145 21.1164 111.29 21.1164C117.436 21.1164 121.323 17.1712 121.323 11.8452V9.50548H111.236V13.5082L111.227 13.5055Z" fill="white"/>
</g>
</g>
<defs>
<clipPath id="clip0_2392_3897">
<rect width="200" height="20.8219" fill="white" transform="translate(0 0.356445)"/>
</clipPath>
</defs>
</svg>
