<svg width="116" height="55" viewBox="0 0 116 55" fill="none" xmlns="http://www.w3.org/2000/svg">
<g clip-path="url(#clip0_2216_4190)">
<path d="M6.57332 32.543H12.4237C13.5326 32.543 14.5685 33.3529 14.6247 34.4263H14.678V30.0154H6.57332L6.56937 22.2728H14.3889C15.5027 22.2728 16.5396 23.0798 16.5978 24.1502H16.6491L16.6412 19.7363L0.231659 19.7432V19.7916C1.33662 19.8518 2.16533 21.0218 2.16533 22.1149V42.3978C2.16533 43.487 1.33662 44.662 0.231659 44.7241V44.7715H8.51094V44.7241C7.405 44.662 6.56937 43.487 6.56937 42.3978L6.57332 32.543Z" fill="#E60012"/>
<path d="M23.5147 38.041C23.5147 40.6436 25.6852 42.894 28.3637 42.894C31.0393 42.894 33.2176 40.614 33.2176 38.0105V22.1149C33.2176 21.0218 32.3859 19.8517 31.278 19.7915V19.7442L39.5632 19.7363V19.7915C38.4573 19.8517 37.6197 21.0218 37.6197 22.1149V37.5606C37.6197 42.5319 33.4978 45.4285 28.3854 45.4285C23.2641 45.4285 19.0978 42.5319 19.0978 37.5606L19.1087 22.1149C19.1087 21.0218 18.2731 19.8517 17.173 19.7915V19.7363H25.4464V19.7915C24.3434 19.8576 23.5108 21.0287 23.5108 22.1149L23.5147 38.041Z" fill="#E60012"/>
<path d="M91.2102 23.7902C89.8221 21.5536 86.6542 21.823 86.6542 21.823C81.4727 21.823 81.7174 25.7643 81.7174 25.7643C81.7174 25.7643 81.3613 27.7414 83.9648 29.09L89.1453 31.8347C94.1462 34.5102 93.5533 38.3125 93.5533 38.3125C93.5533 38.3125 93.7792 45.4158 83.3206 45.4158C83.3206 45.4158 80.282 45.5085 78.5614 44.8653L77.0894 40.2649H77.1407C78.734 42.5557 83.363 42.8862 83.363 42.8862C89.24 42.6287 89.2804 38.6469 89.2804 38.6469C89.2804 38.6469 89.5448 36.9323 87.2442 35.6902L82.0884 32.9465C76.7056 30.0786 77.3222 26.2162 77.3222 26.2162C77.3222 26.2162 77.195 19.2283 86.448 19.2283C86.448 19.2283 90.6015 19.3348 91.2634 19.9811V23.7902H91.2102Z" fill="#E60012"/>
<path d="M50.8408 11.0327C51.7583 11.9305 53.0389 12.482 54.4369 12.482C57.2535 12.482 59.5335 10.2662 59.5335 7.52747C59.5335 4.79665 57.2535 2.57687 54.4369 2.57687C54.4369 2.57687 50.5133 2.2148 48.7473 7.09634L48.7533 3.43222C50.0674 1.75999 52.1017 0.544536 54.4369 0.544536C58.4108 0.544536 61.626 3.66801 61.626 7.52747C61.626 11.381 58.4108 14.5163 54.4369 14.5163C52.4519 14.5163 50.6563 13.7379 49.359 12.4682L46.8867 9.76599C46.2089 9.10795 45.2766 8.7074 44.2545 8.7074C42.1955 8.7074 40.5263 10.3254 40.5263 12.3242C40.5263 14.3308 42.1955 15.9528 44.2545 15.9528C44.2545 15.9528 47.008 16.3119 48.7473 12.994L48.7533 15.9281C47.6878 17.185 46.0609 17.9871 44.2545 17.9871C41.0403 17.9871 38.4298 15.4516 38.4298 12.3242C38.4298 9.20266 41.0403 6.6731 44.2545 6.6731C45.8557 6.6731 47.3099 7.29858 48.3655 8.33053L50.8408 11.0327Z" fill="#E60012"/>
<path d="M52.1656 22.0622C52.1656 20.9681 51.3329 19.8474 50.229 19.7912V19.7438H58.4954V19.7912C57.3983 19.8523 56.5617 20.974 56.5617 22.0622V42.3885C56.5617 43.4796 57.3983 44.6537 58.4954 44.7188V44.7651H50.229V44.7188C51.3329 44.6537 52.1656 43.4796 52.1656 42.3885V22.0622Z" fill="#E60012"/>
<path d="M46.9746 22.1152C46.9746 21.022 47.8053 19.852 48.9103 19.7918V19.7435H40.631V19.7918C41.7389 19.852 42.5657 21.022 42.5657 22.1152L42.5726 47.5262C42.5726 47.5262 42.4798 52.0131 38.865 54.595L38.8739 54.6443C39.5872 54.5279 46.9805 53.1634 46.9805 46.0217L46.9746 22.1152Z" fill="#E60012"/>
<path d="M58.4643 24.2465H58.5136C59.6344 22.296 61.3629 22.2734 61.3629 22.2734H65.8448L65.8478 42.3984C65.8478 43.4875 65.0141 44.6537 63.9102 44.7188V44.7651H72.2003V44.7188C71.0875 44.6537 70.2508 43.4796 70.2508 42.3984L70.2568 22.2734L74.0028 22.2645C75.1403 22.2645 76.041 23.1465 76.0736 24.2465H76.119L77.4952 19.7359H59.8445L58.4643 24.2465Z" fill="#E60012"/>
<path d="M99.7213 38.041C99.7213 40.6436 101.892 42.894 104.571 42.894C107.244 42.894 109.424 40.614 109.424 38.0105V22.1149C109.424 21.0218 108.592 19.8517 107.489 19.7915V19.7442L115.768 19.7363V19.7915C114.67 19.8517 113.833 21.0218 113.833 22.1149V37.5606C113.833 42.5319 109.709 45.4285 104.589 45.4285C99.4776 45.4285 95.3103 42.5319 95.3103 37.5606L95.3162 22.1149C95.3162 21.0218 94.4826 19.8517 93.3767 19.7915V19.7363H101.658V19.7915C100.549 19.8576 99.7154 21.0287 99.7154 22.1149L99.7213 38.041Z" fill="#E60012"/>
</g>
<defs>
<clipPath id="clip0_2216_4190">
<rect width="116" height="54.5638" fill="white" transform="translate(0 0.312256)"/>
</clipPath>
</defs>
</svg>
