<svg width="220" height="31" viewBox="0 0 220 31" fill="none" xmlns="http://www.w3.org/2000/svg">
<g clip-path="url(#clip0_2392_3876)">
<path d="M60 15.5C60 7.219 53.274 0.5 44.983 0.5H27.337V12.84H15.005V18.16H27.337V25.18H15.017C9.667 25.18 5.325 20.844 5.325 15.5C5.325 10.156 9.667 5.82 15.017 5.82H21.179V0.5H15.017C6.727 0.5 0 7.219 0 15.5C0 23.68 6.759 30.5 15.017 30.5H44.983C53.24 30.5 60 23.73 60 15.5ZM44.983 25.18H32.663V18.16H44.998V12.84H32.663V5.82H44.983C50.333 5.82 54.673 10.156 54.673 15.5C54.673 20.844 50.333 25.18 44.983 25.18Z" fill="white"/>
<path d="M202.213 10.897C201.367 11.382 200.418 11.799 199.317 11.799C197.91 11.799 196.929 10.983 196.827 9.543H202.857C202.857 6.419 201.943 4.144 198.707 4.144C195.997 4.144 194.659 6.279 194.659 8.866C194.659 11.799 196.336 13.5 199.216 13.5C200.436 13.5 201.383 13.257 202.213 12.788V10.897ZM97.206 10.897C96.359 11.382 95.411 11.799 94.31 11.799C92.904 11.799 91.922 10.983 91.82 9.543H97.85C97.85 6.419 96.935 4.144 93.7 4.144C90.99 4.144 89.651 6.279 89.651 8.866C89.651 11.799 91.328 13.5 94.209 13.5C95.428 13.5 96.376 13.257 97.206 12.788V10.897ZM172.451 10.897C171.604 11.382 170.656 11.799 169.555 11.799C168.148 11.799 167.165 10.983 167.065 9.543H173.095C173.095 6.419 172.181 4.144 168.945 4.144C166.233 4.144 164.897 6.279 164.897 8.866C164.897 11.799 166.572 13.5 169.452 13.5C170.672 13.5 171.621 13.257 172.451 12.788V10.897ZM104.965 4.475C104.253 4.318 103.559 4.145 102.492 4.145C100.713 4.145 99.07 4.995 99.07 6.922C99.07 10.15 103.017 8.952 103.017 10.705C103.017 11.574 102.102 11.799 101.526 11.799C100.746 11.799 100.002 11.574 99.29 11.209L99.154 13.119C99.984 13.344 100.865 13.5 101.729 13.5C103.576 13.5 105.389 12.667 105.389 10.584C105.389 7.356 101.441 8.258 101.441 6.835C101.441 6.071 102.17 5.845 102.78 5.845C103.61 5.845 104.118 5.985 104.813 6.227L104.965 4.475ZM139.69 10.897C138.843 11.382 137.894 11.799 136.793 11.799C135.387 11.799 134.406 10.983 134.304 9.543H140.334C140.334 6.419 139.419 4.144 136.184 4.144C133.474 4.144 132.135 6.279 132.135 8.866C132.135 11.799 133.812 13.5 136.693 13.5C137.911 13.5 138.859 13.257 139.69 12.788V10.897ZM114.078 10.897C113.231 11.382 112.283 11.799 111.182 11.799C109.776 11.799 108.793 10.983 108.692 9.543H114.722C114.722 6.419 113.807 4.144 110.572 4.144C107.861 4.144 106.522 6.279 106.522 8.866C106.522 11.799 108.2 13.5 111.079 13.5C112.299 13.5 113.249 13.257 114.078 12.788V10.897ZM142.5 9.613H146.387V13.5H147.612V9.613H151.5V8.387H147.612V4.5H146.387V8.387H142.5V9.613ZM215.562 10.601C215.562 12.371 216.544 13.5 218.322 13.5C219 13.5 219.525 13.431 220 13.292L219.932 11.452C219.694 11.608 219.306 11.695 218.899 11.695C218.035 11.695 217.831 10.983 217.831 10.22V6.054H219.847V4.354H217.831V1.818L215.562 2.564V4.352H213.885V6.052H215.562V10.601ZM82.961 1.472C81.944 1.159 80.86 0.968 79.488 0.968C75.473 0.968 73 3.294 73 7.442C73 11.539 75.66 13.5 79.488 13.5C80.758 13.5 82.063 13.222 83.316 12.875V6.349H78.54V8.259H81.047V11.417C80.536 11.54 80.012 11.598 79.487 11.591C76.964 11.591 75.473 9.734 75.473 7.269C75.473 4.787 76.998 2.877 79.759 2.877C80.708 2.877 81.894 3.086 82.808 3.52L82.961 1.472ZM122.394 4.44C121.769 4.25 121.108 4.144 120.193 4.144C117.466 4.144 115.974 6.194 115.974 8.779C115.974 11.504 117.414 13.5 120.277 13.5C121.209 13.5 121.887 13.413 122.547 13.205L122.447 11.278C122.057 11.452 121.345 11.695 120.701 11.695C119.108 11.695 118.346 10.428 118.346 8.779C118.346 7.096 119.244 5.949 120.651 5.949C121.345 5.949 121.786 6.089 122.192 6.279L122.395 4.439L122.394 4.44ZM177.009 13.292H179.566L182.784 4.353H180.514L178.414 10.862H178.38L176.211 4.353H173.771L177.008 13.293L177.009 13.292ZM204.602 13.292H206.872V8.918C206.872 7.772 207.227 5.95 208.872 5.95C210.328 5.95 210.344 7.425 210.344 8.519V13.292H212.614V7.651C212.614 5.637 211.716 4.144 209.65 4.144C208.464 4.144 207.498 4.544 206.787 5.568H206.754V4.353H204.602V13.292ZM190.661 13.292H192.931V4.353H190.661V13.292ZM184.139 13.292H186.409V10.012C186.409 8.727 186.409 6.366 188.255 6.366C188.662 6.366 189.068 6.436 189.271 6.558V4.214C189.035 4.144 188.798 4.144 188.577 4.144C187.222 4.144 186.29 5.55 186.189 6.384H186.155V4.354H184.139V13.292ZM153.495 13.292H156.73C160.356 13.292 163.558 12.042 163.558 7.235C163.558 2.426 160.356 1.177 156.73 1.177H153.495V13.292ZM126.275 7.929V0.505H124.005V13.292H126.274V8.952H126.307L129.222 13.292H132.102L128.442 8.345L131.695 4.353H129.018L126.308 7.929H126.275ZM85.654 13.292H87.924V4.353H85.654V13.292ZM155.867 3.086H157.189C159.17 3.086 161.085 4.596 161.085 7.235C161.085 9.873 159.17 11.382 157.189 11.382H155.867V3.086ZM134.304 7.946C134.406 6.748 135.048 5.846 136.319 5.846C137.59 5.846 138.097 6.817 138.165 7.946H134.304ZM108.691 7.946C108.793 6.748 109.437 5.846 110.707 5.846C111.977 5.846 112.486 6.817 112.554 7.946H108.691ZM167.064 7.946C167.164 6.748 167.81 5.846 169.08 5.846C170.35 5.846 170.859 6.817 170.927 7.946H167.064ZM196.828 7.946C196.928 6.748 197.571 5.846 198.842 5.846C200.113 5.846 200.62 6.817 200.689 7.946H196.828ZM91.82 7.946C91.922 6.748 92.565 5.846 93.836 5.846C95.107 5.846 95.614 6.817 95.682 7.946H91.82ZM190.661 2.722H192.931V0.5H190.661V2.722ZM85.654 2.722H87.924V0.5H85.654V2.722Z" fill="white"/>
</g>
<defs>
<clipPath id="clip0_2392_3876">
<rect width="220" height="31" fill="white"/>
</clipPath>
</defs>
</svg>
