<svg width="153" height="34" viewBox="0 0 153 34" fill="none" xmlns="http://www.w3.org/2000/svg">
<path d="M7.474 16.9225C7.474 11.9399 11.5184 7.89551 16.501 7.89551C21.4836 7.89551 25.5603 11.9399 25.5603 16.9225C25.5603 21.9051 21.516 25.9495 16.5333 25.9495C11.5507 25.9495 7.474 21.9375 7.474 16.9225Z" fill="#E84C0A"/>
<path d="M6.05031 13.9452C5.43557 16.1453 5.53264 18.4749 6.30915 20.6427C5.07967 20.3191 3.91489 19.7044 2.9766 18.7337C0.129381 15.8865 0.129381 11.2598 2.9766 8.38018L3.17073 8.18605C3.49428 7.86251 3.81783 7.89486 3.9796 8.05664C4.14138 8.21841 4.20609 8.31547 4.17373 8.67138C4.17373 8.70373 4.17373 11.6157 6.05031 13.9452Z" fill="#E84C0A"/>
<path d="M11.1301 7.40998C9.15644 8.5424 7.5387 10.2572 6.60041 12.3279C5.95332 11.2279 5.59741 9.96601 5.59741 8.60711C5.59741 4.56276 8.86525 1.29492 12.9096 1.29492H13.2008C13.6861 1.29492 13.8479 1.52141 13.8479 1.78024C13.8479 2.00673 13.8479 2.10379 13.5567 2.36263C13.5567 2.36263 11.4536 4.43334 11.1301 7.40998Z" fill="#E84C0A"/>
<path d="M19.6393 6.47154C17.4716 5.82445 15.1097 5.88916 12.9419 6.63332C13.2654 5.40383 13.9449 4.27141 14.9155 3.33312C17.8275 0.518255 22.4542 0.61532 25.2691 3.52725L25.4632 3.72138C25.7868 4.04493 25.7544 4.36848 25.5603 4.53025C25.3985 4.69203 25.3014 4.75674 24.9132 4.72438C24.9132 4.69203 21.9689 4.62732 19.6393 6.47154Z" fill="#E84C0A"/>
<path d="M26.1103 11.7458C25.0426 9.73977 23.3278 8.12203 21.2571 7.11903C22.3571 6.50429 23.619 6.14839 24.9779 6.18074C29.0222 6.24545 32.2254 9.578 32.1607 13.6224V13.9135C32.1607 14.3989 31.9018 14.5606 31.6753 14.5606C31.4488 14.5606 31.3518 14.5283 31.0929 14.2371C31.0929 14.2047 29.0869 12.1017 26.1103 11.7458Z" fill="#E84C0A"/>
<path d="M26.9839 19.9963C27.631 17.8285 27.5663 15.4666 26.8221 13.2988C28.0516 13.6224 29.184 14.3018 30.1223 15.2725C32.9372 18.1844 32.8401 22.8111 29.9282 25.5937L29.7664 25.8201C29.4429 26.1437 29.1193 26.1113 28.9576 25.9172C28.7958 25.7554 28.7311 25.6584 28.7634 25.2701C28.7634 25.2701 28.8281 22.3582 26.9839 19.9963Z" fill="#E84C0A"/>
<path d="M21.8072 26.4675C23.8132 25.3998 25.4309 23.685 26.4339 21.6143C27.0487 22.7143 27.4046 23.9762 27.3722 25.3351C27.3075 29.3794 23.975 32.5825 19.9306 32.5178H19.6394C19.1541 32.5178 18.9923 32.259 18.9923 32.0325C18.9923 31.806 19.0247 31.709 19.3159 31.4501C19.3159 31.4501 21.4513 29.4441 21.8072 26.4675Z" fill="#E84C0A"/>
<path d="M13.492 27.4059C15.6597 28.053 18.0216 27.9883 20.1894 27.2441C19.8659 28.4736 19.1864 29.606 18.2158 30.5443C15.3038 33.3592 10.6771 33.2621 7.86224 30.3502L7.66811 30.1561C7.34456 29.8325 7.37691 29.509 7.57104 29.3472C7.73282 29.1854 7.82988 29.1207 8.21814 29.1531C8.21814 29.1854 11.1301 29.2501 13.492 27.4059Z" fill="#E84C0A"/>
<path d="M6.95625 22.2285C8.08867 24.2022 9.80347 25.8199 11.8742 26.7582C10.7741 27.4053 9.51228 27.7612 8.15338 27.7612C4.10902 27.7612 0.841187 24.4934 0.841187 20.449V20.1578C0.841187 19.6725 1.06767 19.5107 1.32651 19.5107C1.55299 19.5107 1.65006 19.5107 1.9089 19.8019C1.94125 19.8343 3.9796 21.905 6.95625 22.2285Z" fill="#E84C0A"/>
<path fill-rule="evenodd" clip-rule="evenodd" d="M147.085 9.83667C147.085 10.9367 147.959 11.778 149.026 11.778C150.062 11.778 150.935 10.9691 150.935 9.83667C150.935 8.76896 150.062 7.92773 149.026 7.92773C147.959 7.92773 147.085 8.76896 147.085 9.83667ZM147.409 9.83667C147.409 8.93073 148.088 8.21893 148.994 8.21893C149.868 8.21893 150.579 8.93073 150.579 9.83667C150.579 10.775 149.9 11.4868 148.994 11.4868C148.12 11.4868 147.409 10.775 147.409 9.83667ZM148.25 10.9691H148.606V9.99844H148.962L149.576 10.9691H149.965L149.318 9.96609C149.641 9.93373 149.9 9.77196 149.9 9.35135C149.9 8.93073 149.641 8.70425 149.123 8.70425H148.25V10.9691ZM148.606 8.99544H149.059C149.285 8.99544 149.544 9.0278 149.544 9.35135C149.544 9.70725 149.253 9.70725 148.962 9.70725H148.606V8.99544Z" fill="white"/>
<path fill-rule="evenodd" clip-rule="evenodd" d="M52.5766 13.3307C51.6706 9.70696 49.1146 8.41277 47.7557 7.9598C47.2057 7.79803 46.2674 7.50684 44.8761 7.50684C41.123 7.50684 38.0493 9.51284 36.7874 13.0719C36.1403 14.819 36.1403 16.4368 36.1403 17.0839C36.1403 19.5428 36.658 21.8724 38.3728 23.749C39.9582 25.5285 41.7377 25.9491 42.6113 26.0461C43.0319 26.1109 43.7113 26.1432 44.1967 26.1432C45.8791 26.1432 47.5616 25.852 48.7911 24.6549C49.4382 24.0078 49.6323 23.4901 49.7293 23.1019C49.7617 24.1049 50.0529 24.752 50.247 25.755H52.6736V15.9191H44.9408V19.1869H49.3411C49.2764 19.5428 49.244 19.737 49.1793 19.9311C48.9852 20.4811 48.2734 22.0341 46.5262 22.6489C46.2674 22.7136 45.7173 22.8754 45.0055 22.8754C42.8701 22.8754 41.7377 21.8077 41.22 21.0959C40.7024 20.3517 40.0876 19.0252 40.0876 16.8574C40.0876 13.8484 41.1877 12.4248 42.3524 11.6483C43.4202 10.9688 44.5526 10.9041 44.9732 10.9041C46.7527 10.9041 48.241 11.713 48.694 13.5248L52.5766 13.3307Z" fill="white"/>
<path fill-rule="evenodd" clip-rule="evenodd" d="M59.1446 7.89551L53.1589 25.8201H57.4621L58.5945 22.1963H64.6449L65.745 25.8201H70.1452L64.2243 7.89551H59.1446ZM59.5005 18.9609L61.5712 11.584L63.6419 18.9609H59.5005Z" fill="white"/>
<path fill-rule="evenodd" clip-rule="evenodd" d="M70.7924 7.89493V25.8195H74.7396V18.6367H75.8721C77.8781 18.6367 78.8487 18.6044 79.6899 19.3162C80.2723 19.8015 80.5959 20.4486 80.6929 21.9369L80.7576 23.3929C80.8224 23.9753 80.79 25.1077 81.243 25.6254C81.3077 25.7224 81.4694 25.7871 81.5018 25.8195H85.5138C85.2873 25.593 85.1903 25.4636 85.0932 25.3018C84.7696 24.6547 84.7049 23.4576 84.6726 23.4252C84.6079 22.584 84.5755 20.4162 84.3814 19.575C83.9931 17.6337 82.6666 17.2131 81.8901 17.019C82.3107 16.9219 82.8931 16.7278 83.6696 16.0483C83.9931 15.7571 84.1873 15.466 84.3167 15.3042C84.9961 14.3012 85.0608 13.007 85.0608 12.6511C85.0608 12.1334 84.9961 10.8392 84.0255 9.67444C82.5048 7.79786 80.1429 7.86257 77.9751 7.86257L70.7924 7.89493ZM74.7396 15.466V11.2922H78.0722C79.0752 11.2922 79.6252 11.3245 80.0782 11.551C80.4988 11.7128 81.0812 12.2305 81.0812 13.3305C81.0812 13.6217 81.0165 14.8189 79.9164 15.2718C79.3987 15.4983 78.8811 15.466 77.7163 15.4336L74.7396 15.466Z" fill="white"/>
<path fill-rule="evenodd" clip-rule="evenodd" d="M87.0992 7.89551V25.8201H92.2113C94.6379 25.8201 95.738 25.7554 96.9027 25.4318C100.624 24.3641 101.756 21.0639 102.08 19.8668C102.371 18.8314 102.5 17.7961 102.5 16.696C102.5 12.587 100.688 10.4192 99.2646 9.38383C97.3234 7.96022 95.0262 7.89551 92.6966 7.89551H87.0992ZM91.1112 22.3581V11.3575H93.1819C94.6703 11.3575 95.4468 11.4545 96.0939 11.7781C96.3527 11.9075 96.838 12.1987 97.291 12.7487C98.2293 13.9459 98.4881 15.4665 98.4881 16.8901C98.4881 17.2461 98.5205 19.705 97.2263 21.161C96.288 22.2287 94.8968 22.3258 94.4761 22.3905C93.829 22.4228 93.1496 22.4228 92.5025 22.4228L91.1112 22.3581Z" fill="white"/>
<path fill-rule="evenodd" clip-rule="evenodd" d="M103.956 7.89551V25.8201H117.48V22.3905H107.936V17.9902H116.154V14.8194H107.936V11.2928H117.286V7.89551H103.956Z" fill="white"/>
<path fill-rule="evenodd" clip-rule="evenodd" d="M119.033 7.89551V25.8201H122.722V19.2197C122.722 17.0519 122.689 14.9489 122.625 12.8134C122.916 13.6547 123.045 13.9135 123.466 14.69C123.854 15.4989 124.275 16.2754 124.695 17.0843L129.581 25.8201H133.69V7.89551H129.969V15.693C129.969 16.4695 129.937 17.2784 129.969 18.0549C130.002 18.9932 130.034 19.8991 130.131 20.8374C129.969 20.4168 129.775 19.9962 129.581 19.5756C129.063 18.4432 128.449 17.3755 127.866 16.3401L123.207 7.92786H119.033V7.89551Z" fill="white"/>
<path fill-rule="evenodd" clip-rule="evenodd" d="M140.193 7.89551L134.208 25.8201H138.511L139.643 22.1963H145.694L146.794 25.8201H151.194L145.273 7.89551H140.193ZM140.582 18.9609L142.652 11.584L144.723 18.9609H140.582Z" fill="white"/>
</svg>
