<svg width="198" height="22" viewBox="0 0 198 22" fill="none" xmlns="http://www.w3.org/2000/svg">
<path d="M13.0801 21.1925C5.46903 21.1925 0 16.9084 0 10.5734C0 4.14734 5.65133 0 12.8978 0C16.635 0 20.281 1.09381 22.2407 2.73451V7.38318C21.1469 6.28937 17.4553 4.2385 13.0801 4.32965C9.0239 4.4208 6.10708 7.01858 6.10708 10.619C6.10708 14.3106 8.70487 16.954 13.3535 16.954C14.7208 16.954 15.9513 16.7717 16.954 16.4071V13.5358H12.3965L14.3562 9.61636H22.2407V19.4606C19.9619 20.4633 16.7717 21.1925 13.0801 21.1925Z" fill="#ED1D24"/>
<path d="M37.828 12.0517L36.4152 9.08928C35.8683 7.90433 35.6404 7.31184 35.2303 6.44591C34.8657 7.35741 34.8201 7.5853 34.1365 9.13486L32.9059 12.0517H37.828ZM33.1794 1.02246H37.828L46.8064 19.9818H41.4741L39.5599 15.88H31.1285L29.3511 19.9818H24.0643L33.1794 1.02246Z" fill="#ED1D24"/>
<path d="M49.4647 4.82636H42.9019V0.998047H60.7673V4.82636H54.2045V19.9573H49.4647V4.82636Z" fill="#ED1D24"/>
<path d="M120.768 16.9488C124.323 16.9488 127.148 14.1231 127.148 10.5682C127.148 6.87663 124.368 4.05097 120.722 4.05097C117.122 4.05097 114.342 6.87664 114.342 10.4771C114.387 14.1231 117.167 16.9488 120.768 16.9488ZM120.722 0.359375C127.467 0.359375 132.344 4.68902 132.344 10.6138C132.344 13.2116 131.068 15.9917 128.971 17.7691C126.875 19.5921 123.912 20.5948 120.722 20.5948C114.114 20.5948 109.101 16.2196 109.101 10.4315C109.146 4.68902 114.159 0.359375 120.722 0.359375Z" fill="#ED1D24"/>
<path d="M79.6811 1.00684H84.5121L86.4262 7.88868C86.9731 9.89399 87.1554 10.7143 87.8391 14.2692C88.386 12.036 88.7506 10.5776 89.6621 7.88868L92.032 1.00684H96.9085L99.3696 7.88868C100.327 10.6232 100.6 11.8993 101.193 14.2692C101.831 10.7599 101.967 9.89399 102.56 7.88868L104.52 1.00684H109.259L103.882 19.9661H99.0506L95.9059 11.0334C95.3134 9.3471 94.7665 7.52409 94.3563 5.92895C94.174 7.02276 93.4448 9.43825 92.8523 11.1701L89.7532 20.0117H85.0134L79.6811 1.00684Z" fill="#ED1D24"/>
<path d="M145.174 9.24227C146.223 9.24227 146.633 9.1967 147.089 8.96883C147.727 8.6498 148.182 7.87502 148.182 7.05466C148.182 6.27988 147.727 5.5051 147.089 5.1405C146.678 4.91262 146.223 4.86706 145.174 4.86706H138.839V9.24227H145.174ZM134.1 0.993164H146.496C148.684 0.993164 149.869 1.2666 151.008 1.95023C152.421 2.81616 153.332 4.45688 153.332 6.23431C153.332 8.4675 152.193 10.1538 150.051 11.0197C151.92 11.7033 152.466 12.7516 152.558 15.714C152.603 18.0839 152.785 18.7675 153.332 19.998H148.091C147.772 18.9498 147.681 18.5396 147.727 16.7166C147.772 13.9365 146.997 13.1162 144.536 13.1162H138.885V20.0436H134.145V0.993164H134.1Z" fill="#ED1D24"/>
<path d="M156.08 1.00684H160.82V8.48117L169.206 1.00684H175.86L166.927 8.70905L176.27 19.9661H169.935L163.327 11.7626L160.775 13.9502V19.9661H156.035V1.00684H156.08Z" fill="#ED1D24"/>
<path d="M176.221 13.5394H181.188C181.325 14.7699 181.69 15.4536 182.419 16.046C183.467 16.8208 184.789 17.1854 186.749 17.1854C189.848 17.1854 191.625 16.2739 191.625 14.7244C191.625 13.4938 190.668 12.8558 188.48 12.6279L183.148 12.081C179.046 11.6708 176.768 9.75666 176.768 6.7487C176.768 2.78365 180.414 0.368164 186.338 0.368164C189.346 0.368164 192.035 1.0518 193.722 2.23675C195.18 3.23941 195.864 4.46993 196.228 6.70312H191.215C190.85 5.56374 190.486 4.97127 189.62 4.56109C188.754 4.10534 187.706 3.92304 186.293 3.92304C183.513 3.92304 181.781 4.78897 181.781 6.2018C181.781 7.29561 182.51 7.75136 184.561 7.97923L189.164 8.38941C191.625 8.66286 192.901 8.93631 194.223 9.57436C195.955 10.4403 197.049 12.1722 197.049 14.1775C197.049 16.4107 195.727 18.3704 193.585 19.4186C191.762 20.2845 189.62 20.6491 186.566 20.6491C182.692 20.6491 179.958 19.9199 178.226 18.416C176.904 17.231 176.403 16.046 176.221 13.5394Z" fill="#ED1D24"/>
<path d="M79.6053 16.171H67.2088V12.3427H78.6938L77.5544 8.33207H67.2088V4.86835H76.4606L75.3668 1.04004H62.7424V19.9993H80.6991L79.6053 16.171Z" fill="#ED1D24"/>
</svg>
