<svg width="66" height="66" viewBox="0 0 66 66" fill="none" xmlns="http://www.w3.org/2000/svg">
<g clip-path="url(#clip0_2393_4063)">
<path d="M33.0023 66C14.8081 66 0 51.2804 0 32.9977C0 14.8081 14.8081 0 33.0023 0C51.1903 0 66.0015 14.8081 66.0015 32.9977C66.0015 51.2804 51.1903 66 33.0023 66ZM33.0023 1.55104C15.6325 1.55104 1.55256 15.631 1.55256 32.9977C1.55256 50.366 15.6325 64.4444 33.0023 64.4444C50.369 64.4444 64.4459 50.366 64.4459 32.9977C64.4459 15.7226 50.3705 1.55104 33.0023 1.55104ZM60.9668 42.4062L60.7958 42.4413L60.6996 42.3223C60.7057 42.2703 61.8079 39.0171 61.7988 35.283C61.785 31.2604 60.1516 28.7934 58.0494 28.7934C56.7701 28.7934 55.8572 29.7094 55.8572 31.0788C55.8572 33.5473 58.8738 33.7305 58.8738 39.124C58.8738 41.3193 58.4173 43.4168 57.6861 45.7052C54.3031 57.1289 43.5145 62.4308 33.0053 62.4308C28.1584 62.4308 24.7158 61.4354 23.69 60.9759C23.6487 60.9545 23.6136 60.8736 23.6457 60.7927L23.7785 60.6996C24.1937 60.8645 27.1508 61.7927 30.8085 61.7927C34.8312 61.7927 37.2081 60.1485 37.2081 58.1334C37.2081 56.8587 36.2021 55.8526 34.9212 55.8526C32.4527 55.8526 32.2695 58.9593 26.9691 58.9593C24.6838 58.9593 22.6748 58.5028 20.2948 57.7716C8.95816 54.3 3.55548 43.6016 3.56464 32.9977C3.56922 27.8347 5.01492 23.7235 5.03934 23.6823L5.20269 23.6548L5.29887 23.7739C5.16605 24.2014 4.20582 27.1508 4.20582 30.8055C4.20582 34.8281 5.84998 37.2035 7.95212 37.2035C9.14135 37.2035 10.1489 36.2906 10.1489 35.0098C10.1489 32.5413 7.1308 32.268 7.1308 26.9645C7.1308 24.6792 7.58726 22.6687 8.31851 20.2917C11.7931 8.95816 22.4885 3.64402 33.0023 3.56311C37.8874 3.52647 42.1635 4.98897 42.3238 5.1172L42.3528 5.28208L42.2322 5.37367C42.1818 5.36757 39.4018 4.20429 35.1945 4.20429C31.2635 4.20276 28.7965 5.84845 28.7965 7.95212C28.7965 9.14135 29.7109 10.1474 31.0818 10.1474C33.5503 10.1474 33.7335 7.12928 39.0339 7.12928C41.3193 7.12928 43.3298 7.58573 45.7083 8.31851C57.135 11.7915 62.3422 22.5801 62.4354 32.9992C62.4873 38.3378 60.982 42.3772 60.9668 42.4062ZM45.2503 34.5549C42.1436 34.5549 39.7652 36.8417 39.7652 39.582C39.7652 41.8673 41.1345 43.6932 42.965 43.6932C43.6061 43.6932 44.2443 43.3268 44.2443 42.5054C44.2443 41.3193 42.6688 41.0277 42.7909 39.2507C42.8688 38.0783 43.9725 37.2951 45.0671 37.2951C47.2624 37.2951 48.2883 39.4217 48.2883 41.6139C48.1951 44.9969 45.7083 47.3509 42.7833 47.3509C38.9408 47.3509 36.4769 43.6932 36.4769 39.7637C36.4769 33.9122 40.3148 31.6268 42.3253 31.0803C42.3467 31.0788 47.583 32.0146 47.4196 29.7063C47.3479 28.6927 45.838 28.3019 44.7419 28.2576C43.5298 28.2103 42.3085 28.6469 42.3085 28.6469C41.6689 28.3248 41.2277 27.6958 40.9559 26.9661C44.7038 24.1327 47.3524 21.3909 47.3524 18.2827C47.3524 16.637 46.2548 15.173 44.1527 15.173C40.4048 15.173 37.5699 19.9269 37.5699 24.2227C37.5699 24.954 37.5699 25.6852 37.7546 26.3279C35.3762 28.0637 33.6099 29.1415 30.4086 31.062C30.4086 30.6605 30.4925 29.63 30.7597 28.2896C31.8573 27.1004 33.3626 25.3219 33.3626 23.951C33.3626 23.3114 32.9992 22.7618 32.2649 22.7618C30.4376 22.7618 29.0652 25.5051 28.7018 27.4241C27.8775 28.4301 26.2333 29.7124 24.8609 29.7124C23.7632 29.7124 23.3999 28.7049 23.3053 28.3415C26.7798 27.1508 31.0772 22.3969 31.0772 18.101C31.0772 17.1866 30.7124 15.176 27.969 15.176C23.8548 15.176 20.3803 21.3008 20.3803 26.0532C18.9178 26.0532 18.3697 24.4991 18.3697 23.3129C18.3697 22.1237 18.8262 20.9344 18.8262 20.5711C18.8262 20.2032 18.643 19.7467 18.0949 19.7467C16.7225 19.7467 15.8997 21.5741 15.8997 23.6777C15.9928 26.6043 17.9117 28.4316 20.4719 28.6148C20.8352 30.3521 22.3908 31.9963 24.3098 31.9963C25.499 31.9963 26.9615 31.6314 27.9675 30.7185C27.8744 31.3581 27.7843 31.9062 27.6927 32.4542C23.6701 34.5579 20.7451 36.0204 18.0934 38.3958C15.9974 40.3132 14.8081 42.8718 14.8081 44.8839C14.8081 47.6257 16.5469 50.1843 20.1116 50.1843C24.3159 50.1843 27.5172 46.8013 29.0697 42.1406C29.804 39.9468 30.0956 36.7547 30.2788 33.8282C34.4831 31.4528 36.4769 30.0758 38.6691 28.5202C38.9423 28.9766 39.2202 29.3445 39.585 29.6178C37.6646 30.6238 33.0954 33.4572 33.0954 40.13C33.0954 44.8854 36.2967 50.1843 42.6016 50.1843C47.8135 50.1843 51.3781 45.8899 51.3781 41.7773C51.3751 38.0279 49.2714 34.5549 45.2503 34.5549ZM20.1116 47.3509C18.7407 47.4135 17.8278 46.5372 17.8278 45.0763C17.8278 41.1452 23.2762 37.3944 27.3905 35.3808C26.6592 40.8674 24.8074 47.1357 20.1116 47.3509ZM23.1282 25.7784C23.1282 22.7603 26.1051 17.0263 27.9263 17.6324C30.0742 18.3483 26.1447 24.1327 23.1282 25.7784ZM40.4064 24.4059C40.4064 20.6581 42.9436 17.0126 44.3297 17.7056C45.9083 18.4964 43.1497 22.029 40.4064 24.4059Z" fill="white"/>
</g>
<defs>
<clipPath id="clip0_2393_4063">
<rect width="66.0015" height="66" fill="white"/>
</clipPath>
</defs>
</svg>
