<svg width="55" height="44" viewBox="0 0 55 44" fill="none" xmlns="http://www.w3.org/2000/svg">
<path d="M38.1515 39.6565C38.1342 39.7216 38.067 39.7599 38.0027 39.7426C37.9607 39.731 37.9282 39.6985 37.9174 39.6565L36.5962 34.76H35.0134L36.4697 40.1581C36.6374 40.7782 37.1997 41.209 37.8415 41.209H38.2267C38.8692 41.209 39.4315 40.7782 39.5985 40.1581L41.0555 34.76H39.4727L38.1515 39.6565Z" fill="white"/>
<path d="M7.04102 41.2083H8.62301V35.1416L7.04102 34.76V41.2083Z" fill="white"/>
<path d="M8.62371 32.4712H7.04102V33.9933H8.62371V32.4712Z" fill="white"/>
<path d="M41.9553 41.2083H43.5374V35.1416L41.9553 34.76V41.2083Z" fill="white"/>
<path d="M43.5381 32.4712H41.9553V33.9933H43.5381V32.4712Z" fill="white"/>
<path d="M0 35.2804V38.579C0 40.031 1.1773 41.2083 2.6293 41.2083H5.9987V37.312L4.4159 36.9304V39.8669H2.9661C2.2022 39.8669 1.5821 39.2475 1.5821 38.4836V35.3773C1.5821 34.6134 2.2014 33.994 2.9661 33.994H5.9987V32.6526H2.6293C1.1773 32.6526 0 33.8299 0 35.2819" fill="white"/>
<path d="M32.3032 34.76H31.3817C30.1205 34.76 29.0986 35.782 29.0986 37.0431V38.9251C29.0986 40.1863 30.1205 41.2083 31.3817 41.2083H33.8282L34.2098 39.8669H31.4417C31.0211 39.8669 30.6807 39.5265 30.6807 39.1058V38.5724H34.5856V37.1581C34.5856 35.8969 33.5636 34.7608 32.3025 34.7608L32.3032 34.76ZM33.0028 37.2318H30.6799V36.8639C30.6799 36.4433 31.0203 36.1029 31.441 36.1029H32.2418C32.6624 36.1029 33.0028 36.4433 33.0028 36.8639V37.2318Z" fill="white"/>
<path d="M54.9999 38.5718V37.0425C54.9999 35.7813 53.978 34.7593 52.7168 34.7593H51.7953C50.5341 34.7593 49.5122 35.7813 49.5122 37.0425V38.9245C49.5122 40.1856 50.5341 41.2076 51.7953 41.2076H54.2418L54.6234 39.8662H51.8553C51.4347 39.8662 51.0943 39.5258 51.0943 39.1051V38.5718H54.9999ZM51.095 36.8618C51.095 36.4419 51.4354 36.1007 51.856 36.1007H52.6568C53.0774 36.1007 53.4178 36.4411 53.4178 36.8618V37.2296H51.095V36.8618Z" fill="white"/>
<path d="M25.6093 32.6518H22.2407V41.2083H25.6093C27.083 41.2083 28.2777 40.0136 28.2777 38.54V35.3195C28.2777 33.8458 27.083 32.6518 25.6093 32.6518ZM26.6949 38.4619C26.6949 39.2374 26.0661 39.8662 25.2906 39.8662H23.8235V33.9925H25.2906C26.0661 33.9925 26.6949 34.6213 26.6949 35.3968V38.4619Z" fill="white"/>
<path d="M9.54077 37.0432V38.9252C9.54077 40.1863 10.5627 41.2083 11.8239 41.2083H13.3178V41.6137C13.3178 42.0344 12.9774 42.3748 12.5568 42.3748H10.3076L10.6892 43.7162H12.6167C13.8779 43.7162 14.8999 42.6942 14.8999 41.4331V34.7593H11.8239C10.5627 34.7593 9.54077 35.782 9.54077 37.0432ZM13.3171 36.1015V39.8669H11.8839C11.4633 39.8669 11.1229 39.5265 11.1229 39.1059V36.8625C11.1229 36.4419 11.4633 36.1015 11.8839 36.1015H13.3171Z" fill="white"/>
<path d="M15.7158 37.0431V38.9251C15.7158 40.1863 16.7378 41.2083 17.9989 41.2083H21.0749V34.76H17.9989C16.7378 34.76 15.7158 35.782 15.7158 37.0431ZM19.4921 36.1014V39.8669H18.0589C17.6383 39.8669 17.2979 39.5265 17.2979 39.1058V36.8625C17.2979 36.4418 17.6383 36.1014 18.0589 36.1014H19.4921Z" fill="white"/>
<path d="M46.846 36.1014H48.59L48.9716 34.76H46.786C45.5249 34.76 44.5029 35.782 44.5029 37.0431V38.9251C44.5029 40.1863 45.5249 41.2083 46.786 41.2083H48.59L48.9716 39.8669H46.846C46.4254 39.8669 46.085 39.5265 46.085 39.1058V36.8625C46.085 36.4418 46.4261 36.1014 46.846 36.1014Z" fill="white"/>
<path d="M34.5755 20.2989C31.4042 20.0951 28.8472 17.6241 28.5342 14.4614C28.5183 14.2995 28.5089 14.1362 28.5053 13.9714C27.0252 14.3364 25.6035 14.9051 24.2809 15.6618C20.7981 17.3509 18.2758 20.5352 17.4287 24.3122C17.9816 24.8398 18.5771 25.3212 19.2081 25.7526C24.9762 27.8385 31.4136 25.5539 34.5763 20.2982" fill="#0095D8"/>
<path d="M38.7292 13.0073C37.51 13.0073 36.4801 13.9136 36.3254 15.1235C36.3233 15.1452 36.3211 15.1661 36.3182 15.1878C36.2821 15.5 36.2351 15.8079 36.1765 16.1129C35.894 17.5916 35.3519 19.0089 34.575 20.299C34.7123 20.3077 34.8511 20.3127 34.9913 20.3127C37.5483 20.3113 39.8668 18.8101 40.914 16.4772C40.9437 16.4157 40.9704 16.3536 40.9943 16.2893C41.0253 16.2141 41.055 16.1389 41.0832 16.0623C41.0897 16.0139 41.0962 15.9647 41.1027 15.9163C41.1316 15.7732 41.1482 15.6272 41.1511 15.4805C41.1511 15.4639 41.1511 15.4465 41.1511 15.4299C41.1511 14.0921 40.067 13.0073 38.7292 13.0073Z" fill="#0095D8"/>
<path d="M40.9147 16.4778C39.8675 18.8101 37.549 20.3119 34.9919 20.3133C34.8517 20.3133 34.713 20.3083 34.5757 20.2996C31.413 25.5553 24.9756 27.8399 19.2075 25.7541C25.6253 30.1375 34.382 28.4882 38.7653 22.0703C39.9918 20.2743 40.7861 18.2181 41.0839 16.0637C41.0557 16.1403 41.026 16.2154 40.995 16.2906C40.9704 16.3542 40.9437 16.4164 40.9147 16.4778Z" fill="#0068B7"/>
<path d="M24.2801 15.6625C25.6027 14.9058 27.0251 14.3363 28.5045 13.9713C28.503 13.9222 28.5023 13.873 28.5023 13.8239C28.5002 12.4731 28.9215 11.1548 29.7078 10.0563C29.6963 10.0331 29.6847 10.01 29.6739 9.98694C31.1432 6.71799 29.6847 2.87595 26.4158 1.40663C25.9301 1.18837 25.4192 1.03009 24.8944 0.936851C24.4579 0.892771 24.0192 0.870361 23.5805 0.870361C23.3738 0.870361 23.1678 0.875421 22.9633 0.885541C22.3475 0.960701 21.7448 1.12404 21.176 1.37049C20.965 1.46951 20.7561 1.57358 20.5508 1.68271C13.6805 5.32384 11.0621 13.8448 14.7032 20.7151C15.4122 22.0529 16.3322 23.2678 17.4279 24.3122C18.2749 20.5352 20.7973 17.3515 24.2801 15.6625Z" fill="#0068B7"/>
<path d="M35.1024 2.51532C34.9621 2.41342 34.8176 2.31801 34.668 2.2284C30.9358 -0.12988 26.3153 -0.604719 22.182 0.94554C21.8402 1.07419 21.5041 1.21585 21.1753 1.36979C21.7448 1.12261 22.3468 0.959281 22.9626 0.884841C23.1671 0.875441 23.3731 0.87038 23.5798 0.86966C24.0185 0.86966 24.4572 0.89206 24.8937 0.93615C28.4236 1.56782 30.7724 4.94226 30.1408 8.47204C30.0475 8.99394 29.89 9.50274 29.6732 9.98694C29.259 10.7826 28.4416 12.0402 28.5038 13.9713C29.856 13.6237 31.4894 13.5601 32.9949 13.0983C35.5649 12.3098 37.5568 10.1285 37.5568 7.32294C37.5582 5.41926 36.6455 3.6305 35.1024 2.51532Z" fill="#0095D8"/>
</svg>
