<svg width="206" height="43" viewBox="0 0 206 43" fill="none" xmlns="http://www.w3.org/2000/svg">
<path d="M160.446 11.5647C158.862 14.3297 154.797 27.6694 153.625 34.7603C152.715 40.2571 152.425 40.9789 153.533 41.6071C150.468 41.6362 146.682 41.617 143.617 41.6232C143.984 41.362 145.189 40.8759 145.562 40.2508C148.776 34.88 152.018 18.1695 152.484 14.5769C152.449 13.8005 152.63 13.24 151.553 12.2902L160.446 11.5647ZM162.417 1.46365C161.726 1.41837 153.821 1.45948 153.821 1.45948C154.59 3.41266 155.192 7.00259 156.217 9.08379C156.218 9.08848 161.348 2.57529 162.417 1.46365Z" fill="#D0121B"/>
<path d="M205.496 1.70919C199.658 6.43054 191.486 15.9133 187.054 21.0723C190.033 27.1057 195.119 37.0537 196.094 37.9863C197.07 38.9195 201.091 41.366 201.092 41.366C199.586 41.3364 193.754 41.4097 192.099 41.3946C189.738 41.4077 189.069 40.4391 187.99 38.0118L181.93 26.3578C177.941 30.9434 175.347 33.8734 171.497 38.4261C170.864 39.1745 171.196 41.3962 171.398 41.3962C168.94 41.4358 165.791 41.4248 163.338 41.4207C163.08 41.4207 160.471 41.4024 160.083 41.4014C161.221 40.5453 166.326 36.7071 167.554 35.3249L179.572 21.7177L171.208 5.01133C170.742 4.22808 167.276 1.91216 167.014 1.64258C169.021 1.65819 174.498 1.65923 176.617 1.65403C177.525 1.65143 178.313 2.64233 178.824 3.82474L184.773 16.4004L192.954 7.11647C196.127 3.65769 193.88 2.94366 193.7 1.717L205.496 1.70919Z" fill="white"/>
<path d="M126.054 6.78045C123.435 6.92409 124.081 6.85592 120.899 7.57984L116.349 35.6638C116.01 37.7601 122.78 36.4721 124.56 36.2119C131.474 35.1986 135.473 31.884 137.526 25.4504C138.772 21.5446 139.853 13.8656 137.269 10.4157C134.529 7.01621 132.238 6.44217 126.054 6.78045ZM114.697 4.39064C114.682 3.90872 114.246 2.08513 114.073 1.83949C114.515 1.92379 117.893 2.47181 118.44 2.47389C126.045 2.50616 137.911 -0.770476 143.328 6.02271C152.187 14.6296 142.301 35.6409 131.225 39.7206C126.132 41.5962 116.485 41.5759 109.819 41.0482C109.113 40.9941 106.775 40.6438 106.145 40.6366C107.797 39.5197 110.499 30.5928 112.5 20.4215C113.927 13.163 114.761 6.29437 114.697 4.39064Z" fill="white"/>
<path d="M26.6513 1.76074C30.7117 1.47451 35.3415 1.66082 39.3555 2.43678C39.0771 3.84559 37.8661 9.14357 37.7172 10.0163C35.0558 8.23178 32.8777 7.36006 30.8855 6.9713C28.923 6.5893 26.0034 6.15578 22.6154 7.06445C14.6897 9.39859 10.1516 15.8275 8.70166 23.05C7.34698 30.0503 11.5531 34.8372 18.0231 36.6577C21.2185 37.3946 23.802 37.2666 26.5186 36.7665C27.1946 34.8789 27.9602 28.793 28.1777 24.8585C28.2548 23.4596 27.0926 21.4481 26.9396 21.0859L37.7386 21.114C35.2488 23.7505 32.3932 36.0535 33.329 40.9939C29.8082 41.0496 24.3479 41.2396 20.8241 41.3437C19.5948 41.3801 18.3478 41.4301 17.1181 41.4368C6.64023 41.4139 0.105704 33.9634 1.26002 24.0144C2.9077 14.4572 8.54241 6.42068 18.7153 3.38657C21.472 2.48518 23.8051 1.93977 26.6513 1.76074Z" fill="white"/>
<path d="M67.2132 1.21795C72.0527 1.11282 76.1293 1.92573 78.7127 4.03504C84.2355 1.34805 91.2582 0.280649 97.3597 2.0319C101.977 3.35692 105.741 6.83912 107.126 11.2196C110.296 21.2545 102.32 36.4844 90.9839 40.1576C85.2514 42.0156 76.9906 42.6557 71.0499 38.7884C65.8669 41.3343 58.5705 42.3268 52.8629 40.996C45.211 39.2099 40.7035 30.7279 41.9286 23.7677C43.7819 11.2066 53.9532 1.25698 67.2132 1.21795ZM49.7689 22.5587C48.7364 29.0256 51.1569 35.0819 57.8158 36.4001C62.1047 37.2494 63.6816 36.3267 67.3813 34.857C61.7326 25.9134 65.0285 14.2703 73.2253 7.58333C71.6671 6.35356 71.3855 6.10947 68.85 5.67596C60.1052 4.46543 51.4109 12.2776 49.7689 22.5587ZM82.3552 7.93723C84.4796 12.4311 85.2722 15.4902 83.7125 20.9204C81.3273 29.6486 76.76 33.8302 76.76 34.3246C87.3295 39.8308 97.406 33.4196 99.8541 22.132C101.036 13.892 99.1287 7.65672 93.7391 6.08449C89.4461 4.83234 86.5072 5.98978 82.3552 7.93723ZM76.6528 13.4715C73.2685 18.6097 72.0064 21.7916 73.7769 29.4586C76.4899 25.4747 78.0148 18.4354 76.6528 13.4715Z" fill="white"/>
</svg>
