<svg width="75" height="25" viewBox="0 0 75 25" fill="none" xmlns="http://www.w3.org/2000/svg">
<path d="M32.1529 13.0975C32.1529 16.6426 29.3778 19.2549 25.9722 19.2549C22.5667 19.2549 19.7917 16.6426 19.7917 13.0975C19.7917 9.52748 22.5667 6.94019 25.9722 6.94019C29.3778 6.94019 32.1529 9.52748 32.1529 13.0975ZM29.4473 13.0975C29.4473 10.8822 27.8389 9.36649 25.9722 9.36649C24.1055 9.36649 22.4972 10.8822 22.4972 13.0975C22.4972 15.2906 24.1055 16.8286 25.9722 16.8286C27.8389 16.8286 29.4473 15.2878 29.4473 13.0975Z" fill="#EA4335"/>
<path d="M45.4861 13.0975C45.4861 16.6426 42.7111 19.2549 39.3055 19.2549C35.9 19.2549 33.125 16.6426 33.125 13.0975C33.125 9.53028 35.9 6.94019 39.3055 6.94019C42.7111 6.94019 45.4861 9.52748 45.4861 13.0975ZM42.7805 13.0975C42.7805 10.8822 41.1722 9.36649 39.3055 9.36649C37.4389 9.36649 35.8305 10.8822 35.8305 13.0975C35.8305 15.2906 37.4389 16.8286 39.3055 16.8286C41.1722 16.8286 42.7805 15.2878 42.7805 13.0975Z" fill="#FBBC05"/>
<path d="M58.1636 7.18172V18.2361C58.1636 22.7833 55.4803 24.6405 52.3081 24.6405C49.322 24.6405 47.5247 22.6445 46.847 21.0122L49.2025 20.0322C49.622 21.0344 50.6497 22.217 52.3053 22.217C54.3359 22.217 55.5942 20.965 55.5942 18.6081V17.7225H55.4997C54.8942 18.4693 53.7275 19.1216 52.2553 19.1216C49.1747 19.1216 46.3525 16.44 46.3525 12.9893C46.3525 9.51372 49.1747 6.80981 52.2553 6.80981C53.7247 6.80981 54.8914 7.46212 55.4997 8.18672H55.5942V7.18451H58.1636V7.18172ZM55.7859 12.9893C55.7859 10.8212 54.3386 9.23602 52.497 9.23602C50.6303 9.23602 49.0664 10.8212 49.0664 12.9893C49.0664 15.1352 50.6303 16.6981 52.497 16.6981C54.3386 16.6981 55.7859 15.1352 55.7859 12.9893Z" fill="#4285F4"/>
<path d="M62.5 0.832764V18.8773H59.8611V0.832764H62.5Z" fill="#34A853"/>
<path d="M72.7832 15.1241L74.8832 16.5233C74.2055 17.5254 72.5721 19.2521 69.7499 19.2521C66.2499 19.2521 63.636 16.5482 63.636 13.0948C63.636 9.4332 66.2721 6.9375 69.4471 6.9375C72.6443 6.9375 74.2082 9.4804 74.7193 10.8545L74.9999 11.5541L66.7638 14.9631C67.3943 16.1985 68.3749 16.8286 69.7499 16.8286C71.1277 16.8286 72.0832 16.1513 72.7832 15.1241ZM66.3193 12.9088L71.8249 10.6241C71.5221 9.8551 70.611 9.3194 69.5388 9.3194C68.1638 9.3194 66.2499 10.5325 66.3193 12.9088Z" fill="#EA4335"/>
<path d="M9.7028 11.3653V8.753H18.5111C18.5972 9.2082 18.6417 9.7468 18.6417 10.3298C18.6417 12.2897 18.1055 14.7132 16.3778 16.4399C14.6972 18.1888 12.55 19.1216 9.7056 19.1216C4.4333 19.1216 0 14.8298 0 9.5608C0 4.2918 4.4333 0 9.7056 0C12.6222 0 14.7 1.1437 16.2611 2.6345L14.4167 4.4778C13.2972 3.4285 11.7806 2.6123 9.7028 2.6123C5.8528 2.6123 2.8417 5.7132 2.8417 9.5608C2.8417 13.4084 5.8528 16.5093 9.7028 16.5093C12.2 16.5093 13.6222 15.5072 14.5333 14.5966C15.2722 13.8582 15.7583 12.8033 15.95 11.3625L9.7028 11.3653Z" fill="#4285F4"/>
</svg>
