<svg width="78" height="27" viewBox="0 0 78 27" fill="none" xmlns="http://www.w3.org/2000/svg">
<mask id="mask0_12_3057" style="mask-type:luminance" maskUnits="userSpaceOnUse" x="0" y="0" width="78" height="27">
<path d="M78 0.333252H0V26.3333H78V0.333252Z" fill="white"/>
</mask>
<g mask="url(#mask0_12_3057)">
<path d="M16.5697 0.333334C16.6786 0.484434 16.8472 0.519534 17.0124 0.547634C17.6343 0.649534 18.2315 0.835735 18.8078 1.07463C19.5843 1.39443 20.3045 1.83003 20.944 2.36763C21.4745 2.81733 21.9594 3.31983 22.3845 3.87493C22.6937 4.27893 23.0064 4.67603 23.2137 5.14333C23.5053 5.79683 23.7548 6.46794 23.8953 7.17064C23.948 7.43064 23.9726 7.69763 23.9937 7.96463C24.0183 8.27383 24.0218 8.58303 24.0359 8.89573C24.0675 9.61603 23.9761 10.3222 23.8461 11.0249C23.804 11.2533 23.7583 11.4781 23.7197 11.7065C23.7091 11.7698 23.7091 11.833 23.7056 11.9173C23.8286 11.9244 23.934 11.9384 24.0429 11.9384C25.2445 11.9314 26.4461 11.9173 27.6478 11.9138C28.0764 11.9138 28.5086 11.9279 28.9372 11.9349C29.0778 11.9349 29.2113 11.956 29.3167 12.0333C28.9794 12.8168 28.6526 13.5968 28.3083 14.3662C27.978 15.1041 27.6653 15.8525 27.2543 16.5516C26.9837 17.0119 26.6956 17.4652 26.4005 17.9114C26.1651 18.2662 25.9226 18.6211 25.6521 18.9514C25.118 19.6084 24.6367 20.3076 24.0148 20.8908C23.7232 21.1614 23.4597 21.4635 23.1575 21.7235C22.5215 22.2787 21.847 22.7811 21.1161 23.2062C20.5891 23.5119 20.0445 23.786 19.4999 24.0635C19.1064 24.2638 18.7059 24.4606 18.2948 24.6257C18.0559 24.7206 17.7888 24.7522 17.5359 24.8084C17.4024 24.84 17.2618 24.8576 17.1318 24.9033C16.2499 25.2054 15.3364 25.3952 14.4194 25.5533C14.1032 25.606 13.7905 25.6657 13.4743 25.7289C12.9367 25.8379 12.3851 25.8344 11.8405 25.8414C11.1202 25.8519 10.3964 25.8414 9.6761 25.8098C9.3599 25.7957 9.0402 25.736 8.7275 25.6657C7.9897 25.4971 7.2588 25.2968 6.5561 25.0157C6.0502 24.8154 5.5688 24.5589 5.1015 24.2708C4.7748 24.0706 4.427 23.8914 4.1248 23.6595C3.0707 22.8514 2.1959 21.8922 1.5845 20.7011C1.0399 19.6435 0.674498 18.5368 0.481298 17.3668C0.333698 16.4779 0.323197 15.5854 0.330197 14.6895C0.330197 14.3416 0.326697 13.9973 0.330197 13.6495C0.337197 12.9749 0.477799 12.3179 0.614799 11.6608C0.797499 10.7965 1.068 9.95684 1.4159 9.14524C1.8375 8.16144 2.3786 7.23733 3.018 6.36953C3.4643 5.76163 3.9245 5.16793 4.448 4.62333C4.9259 4.12443 5.4283 3.66063 5.9764 3.23543C6.5913 2.76463 7.2588 2.38873 7.9299 2.00923C7.9861 1.97763 8.0494 1.96003 8.1091 1.93193C8.2918 1.84413 8.4675 1.74923 8.6537 1.66843C8.8013 1.60523 8.9559 1.56303 9.107 1.51383C9.1807 1.48923 9.2686 1.48223 9.3318 1.44003C9.511 1.32063 9.7078 1.26083 9.9151 1.21163C10.4878 1.07463 11.0534 0.916534 11.6297 0.786534C12.0197 0.698734 12.4167 0.638934 12.8102 0.568734C13.0245 0.530034 13.0245 0.533534 13.0597 0.329834H16.5591L16.5697 0.333334ZM22.3599 13.1084C22.1878 12.8484 21.9313 12.8062 21.724 12.9925C21.6502 13.0592 21.5834 13.14 21.5237 13.2208C21.3234 13.5019 21.1267 13.79 20.9264 14.0746C20.807 14.2468 20.6945 14.4295 20.554 14.5806C20.1464 15.0233 19.7388 15.466 19.3032 15.8841C18.7937 16.376 18.2105 16.773 17.578 17.0892C16.9597 17.3984 16.3343 17.69 15.6983 17.9571C15.101 18.21 14.4826 18.4103 13.8397 18.4946C13.3934 18.5508 12.9402 18.5368 12.487 18.5403C12.2551 18.5403 12.0161 18.5403 11.7913 18.5016C11.0921 18.3787 10.4245 18.1644 9.8132 17.7884C9.1878 17.4054 8.7134 16.8925 8.4183 16.2249C8.1372 15.5925 7.9897 14.9249 7.937 14.2362C7.8807 13.4773 7.9264 12.736 8.2637 12.0368C8.5343 11.4676 8.8399 10.9195 9.2088 10.4065C9.3529 10.2062 9.504 10.013 9.6761 9.83733C10.154 9.35953 10.7197 9.02223 11.3451 8.75873C12.0407 8.46713 12.754 8.36163 13.4988 8.38623C13.7659 8.39333 14.0224 8.44953 14.2578 8.57253C14.697 8.80443 15.0448 9.12413 15.1467 9.63353C15.2345 10.0868 15.2872 10.5471 15.1959 11.0108C15.1537 11.2287 15.1326 11.4535 15.1045 11.6749C15.0799 11.8646 15.108 11.9033 15.3048 11.9314C15.3891 11.9454 15.4805 11.9454 15.5648 11.9454C16.6926 11.9384 17.824 11.9279 18.9518 11.9244C19.8126 11.9244 20.6699 11.9314 21.5307 11.9349C21.8294 11.9349 22.128 11.9454 22.4267 11.9384C22.6832 11.9349 22.7113 11.9103 22.7429 11.6608C22.8553 10.7649 22.9643 9.86893 22.9572 8.96603C22.9572 8.63573 22.9432 8.30193 22.908 7.97163C22.8518 7.45873 22.6937 6.97033 22.511 6.48893C22.3634 6.09543 22.1772 5.71953 21.9032 5.39273C21.6572 5.10113 21.4043 4.80953 21.1407 4.52843C21.0072 4.38793 20.8597 4.25443 20.698 4.14543C19.8794 3.57983 18.994 3.14063 18.0278 2.89113C17.4937 2.75413 16.9456 2.64523 16.3975 2.58893C15.8634 2.53273 15.3188 2.55383 14.7813 2.56083C14.2051 2.56793 13.6359 2.65923 13.0737 2.78223C12.1848 2.97893 11.3697 3.36543 10.5861 3.81523C9.634 4.36333 8.7521 5.00623 7.9615 5.77923C7.3326 6.39413 6.7353 7.03003 6.2188 7.74333C6.1099 7.89443 5.9834 8.03844 5.8921 8.20354C5.6145 8.70954 5.3299 9.21543 5.084 9.73543C4.7713 10.3889 4.5394 11.0741 4.4094 11.7873C4.3145 12.2968 4.2759 12.8168 4.2091 13.3333C4.0967 14.2116 4.2267 15.076 4.3953 15.9368C4.4972 16.4568 4.7151 16.9381 4.961 17.4054C5.2667 17.9852 5.6356 18.5192 6.1486 18.9408C6.3067 19.0708 6.4543 19.2079 6.6088 19.3379C6.9005 19.5873 7.1991 19.8298 7.561 19.9773C7.9088 20.1214 8.2497 20.2865 8.6045 20.4165C9.1948 20.6308 9.8026 20.7644 10.4386 20.7749C11.2994 20.7854 12.1567 20.7257 13.014 20.6449C13.3548 20.6133 13.6921 20.5535 14.0259 20.4868C14.2226 20.4481 14.4124 20.3498 14.6091 20.3111C15.0799 20.2233 15.4875 19.9738 15.9443 19.8438C16.004 19.8262 16.0567 19.7806 16.1164 19.7489C16.1797 19.7138 16.2429 19.6716 16.3097 19.6506C16.5556 19.5733 16.7699 19.4433 16.9878 19.3133C17.4797 19.0252 17.9364 18.6914 18.3686 18.326C19.2575 17.5776 20.0761 16.7589 20.7613 15.8138C21.211 15.1919 21.6397 14.556 21.9875 13.8708C22.114 13.6214 22.2334 13.3649 22.3564 13.1049L22.3599 13.1084Z" fill="white"/>
<path d="M64.5889 21.0349C64.5432 21.3441 64.5327 21.6603 64.4413 21.9519C64.3289 22.3173 64.0267 22.5317 63.6789 22.6757C63.4259 22.7811 63.1554 22.8022 62.8849 22.8057C62.2805 22.8163 61.6762 22.8163 61.0719 22.8127C60.7592 22.8127 60.4465 22.8057 60.1338 22.7741C59.7121 22.7354 59.3011 22.6441 58.9497 22.3771C58.7319 22.2119 58.5878 22.0046 58.5773 21.7236C58.5703 21.5303 58.5492 21.3336 58.5422 21.1403C58.5316 20.8417 58.4859 20.796 58.1767 20.7925C57.9273 20.7925 57.6813 20.7925 57.4319 20.7925C57.2667 20.7925 57.1157 20.7714 56.9821 20.666C56.9294 20.6238 56.8522 20.6063 56.7713 20.5711C56.5957 20.789 56.3497 20.796 56.0967 20.796C55.7243 20.796 55.3554 20.796 54.9865 20.796C54.9303 20.5957 54.9373 14.4576 54.997 14.2187C55.0673 14.2187 55.1446 14.2152 55.2219 14.2187C55.5276 14.2433 55.8297 14.2784 56.1354 14.2925C56.3427 14.303 56.5395 14.3276 56.7292 14.419C56.8522 14.4787 56.9681 14.4892 57.0946 14.3944C57.1684 14.3346 57.2808 14.3171 57.3792 14.2995C57.6216 14.2573 57.8676 14.2327 58.1135 14.1976C58.2365 14.18 58.3559 14.1554 58.5035 14.1308C58.507 13.9692 58.514 13.8041 58.514 13.6425C58.514 13.5125 58.5 13.3825 58.5 13.2525C58.5 13.0944 58.5246 13.0733 58.6792 13.0276C58.7354 13.01 58.7916 12.9995 58.8513 12.9995C59.2097 12.9995 59.5646 12.9995 59.923 12.9995C59.9581 12.9995 59.9967 13.0065 60.0319 13.01C60.2216 13.0381 60.2322 13.0452 60.2497 13.2384C60.2603 13.3473 60.2603 13.4563 60.2638 13.5617C60.2708 13.7127 60.2638 13.8638 60.2813 14.0149C60.2989 14.1836 60.3376 14.2081 60.5062 14.2046C60.703 14.2011 60.8997 14.1906 61.0965 14.1906C61.5181 14.1871 61.9397 14.2117 62.3543 14.296C62.4878 14.3241 62.6319 14.3065 62.7654 14.3311C62.9867 14.3663 63.2151 14.3979 63.4224 14.4717C63.7667 14.5911 64.0232 15.0373 64.0057 15.4308C63.9881 15.7963 63.9565 16.1652 63.9494 16.5306C63.9389 16.9136 63.9494 17.2965 63.9494 17.6795C63.9424 18.2557 63.9319 18.8354 63.9249 19.4117C63.9249 19.5206 63.9178 19.6295 63.9108 19.7349C63.8686 20.3744 63.433 20.7854 62.783 20.789C62.1259 20.7925 61.4724 20.789 60.8154 20.789C60.7732 20.789 60.7276 20.789 60.6854 20.789C60.3235 20.7995 60.2216 20.9154 60.2567 21.2773C60.2638 21.3546 60.2743 21.4354 60.2849 21.5127C60.334 21.843 60.5905 22.089 60.9278 22.1241C61.0297 22.1346 61.1316 22.1346 61.2335 22.1346C61.8097 22.1346 62.3859 22.1346 62.9586 22.1346C63.0254 22.1346 63.0886 22.1311 63.1554 22.1346C63.6649 22.1487 63.9881 21.8887 64.1954 21.4495C64.2551 21.3265 64.3254 21.2071 64.3851 21.0841C64.4203 21.0138 64.4694 20.9892 64.5819 21.0349H64.5889ZM60.2884 17.7181C60.2813 17.7919 60.2708 17.8481 60.2673 17.9044C60.2673 18.1503 60.2673 18.3927 60.2603 18.6387C60.2532 19.106 60.2427 19.5733 60.2392 20.0441C60.2392 20.2479 60.2743 20.2936 60.4746 20.3392C60.5027 20.3463 60.5308 20.3533 60.5589 20.3533C60.8786 20.3463 61.2019 20.3603 61.5146 20.3252C62.0065 20.269 62.1119 20.1284 62.1154 19.6295C62.1154 19.1095 62.1154 18.593 62.1154 18.073C62.1154 18.0027 62.1049 17.929 62.0943 17.8587C62.0767 17.7603 62.017 17.7181 61.9116 17.7181C61.4549 17.7076 60.9981 17.69 60.5378 17.6795C60.4535 17.6795 60.3692 17.7041 60.2813 17.7181H60.2884ZM56.7292 17.7006C56.7186 17.7884 56.7046 17.8446 56.7046 17.9008C56.7046 18.4911 56.7046 19.0849 56.7116 19.6752C56.7116 19.7806 56.7538 19.886 56.7784 19.9914C56.817 20.16 56.9294 20.2444 57.0946 20.276C57.453 20.3498 57.8149 20.3673 58.1803 20.3252C58.5527 20.283 58.5422 20.283 58.5351 19.9036C58.5246 19.3344 58.5281 18.7652 58.5281 18.196C58.5281 18.0449 58.5351 17.8938 58.4613 17.7427C57.8886 17.7322 57.3194 17.6127 56.7257 17.6971L56.7292 17.7006ZM60.2497 15.9684C60.2497 15.9684 60.2392 15.9684 60.2321 15.9684C60.2321 16.2776 60.2321 16.5868 60.2321 16.896C60.2321 17.149 60.2532 17.1771 60.5167 17.1911C60.6327 17.1981 60.7486 17.1946 60.8646 17.1946C61.1843 17.1946 61.504 17.1911 61.8238 17.1911C62.0697 17.1911 62.1084 17.163 62.1259 16.91C62.1259 16.8679 62.1259 16.8222 62.1259 16.78C62.1259 16.2987 62.1294 15.8138 62.1294 15.3325C62.1294 15.0233 61.8976 14.7352 61.5884 14.7C61.2159 14.6579 60.833 14.6754 60.464 14.5806C60.3657 14.556 60.2954 14.6052 60.2849 14.7141C60.2743 14.8195 60.2497 14.9284 60.2497 15.0338C60.2462 15.343 60.2497 15.6522 60.2497 15.9614V15.9684ZM58.5035 14.7211C58.4578 14.7036 58.4367 14.6895 58.4157 14.686C57.9976 14.6368 57.59 14.686 57.1824 14.7668C57.1016 14.7808 57.0032 14.8265 56.9611 14.8863C56.8838 15.0127 56.81 15.1533 56.7889 15.2973C56.7467 15.5608 56.7327 15.8279 56.7186 16.0914C56.7046 16.3795 56.6976 16.6676 56.7011 16.9557C56.7011 17.1525 56.7362 17.1841 56.9294 17.1876C57.2843 17.1876 57.6427 17.1876 57.9976 17.1771C58.1627 17.1736 58.3243 17.149 58.507 17.1314C58.514 16.9908 58.5281 16.8608 58.5316 16.7344C58.5316 16.2003 58.5316 15.6698 58.5316 15.1357C58.5316 14.9952 58.514 14.8511 58.507 14.7211H58.5035Z" fill="white"/>
<path d="M36.7723 18.6985C36.7969 19.7736 36.818 20.8101 36.8426 21.8466C36.3859 21.8326 36.0345 21.4847 35.9888 21.0209C35.9818 20.9436 35.9818 20.8628 35.9888 20.782C36.0661 20.0336 36.0205 19.2817 36.024 18.5298C36.024 18.0169 36.0169 17.5039 36.024 16.9909C36.024 16.7626 35.9432 16.5693 35.8378 16.3796C35.8096 16.3304 35.7534 16.2988 35.6937 16.2461C35.6199 16.4147 35.6059 16.5553 35.6059 16.6993C35.6059 17.9501 35.6023 19.1974 35.6059 20.4482C35.6059 21.0104 35.6234 21.5726 35.641 22.1382C35.6445 22.2963 35.6726 22.4544 35.6832 22.6126C35.6902 22.6969 35.6832 22.7812 35.6832 22.8936C35.2229 22.9253 34.7802 22.9744 34.3129 22.8901C34.3129 21.9836 34.3129 21.1053 34.3129 20.2269C34.3129 19.338 34.3129 18.449 34.3129 17.5636C34.3129 16.6853 34.3129 15.8069 34.3129 14.9074C34.1829 14.9039 34.0845 14.9004 33.9861 14.8969C33.6664 14.8969 33.3467 14.8969 33.0269 14.8899C32.8583 14.8899 32.7845 14.809 32.788 14.6509C32.788 14.4753 32.8653 14.3909 33.034 14.3944C33.3396 14.3944 33.6453 14.405 33.951 14.4085C34.0529 14.4085 34.1548 14.4085 34.2742 14.4085C34.3656 13.9342 34.2742 13.4704 34.334 12.9996C34.7837 12.9996 35.2229 12.9609 35.6761 13.0909C35.6375 13.5301 35.5953 13.9588 35.6586 14.4155C35.9326 14.4155 36.1996 14.4155 36.4667 14.4155C36.4878 14.4155 36.5088 14.4155 36.5334 14.4155C36.8953 14.4226 36.948 14.5034 36.8356 14.8723H35.6726C35.5778 15.2517 35.6656 15.6207 35.6761 16.0036C35.8869 16.0493 36.0907 16.0915 36.291 16.1407C36.4175 16.1723 36.558 16.1723 36.6388 16.2988C36.7478 16.4674 36.8707 16.6361 36.8637 16.8504C36.8496 17.2193 36.8321 17.5847 36.818 17.9536C36.8145 18.0942 36.818 18.2347 36.818 18.3753C37.3134 18.2804 37.6648 17.9677 38.0337 17.6866C38.2937 17.4898 38.5361 17.272 38.7821 17.0577C38.9472 16.9136 38.9542 16.752 38.8067 16.5904C38.7083 16.4815 38.6134 16.3726 38.5186 16.2671C38.364 16.095 38.1813 16.0247 37.9494 16.088C37.5699 16.1898 37.1869 16.1653 36.804 16.1582C36.7513 16.0493 36.8145 15.9861 36.8742 15.9228C37.1061 15.6628 37.345 15.4098 37.5137 15.1007C37.6437 14.8582 37.7772 14.6193 37.8932 14.3699C38.0478 14.0361 38.1918 13.6953 38.3359 13.358C38.3569 13.3123 38.371 13.2631 38.3921 13.2174C38.4448 13.0944 38.5291 13.0207 38.6732 13.0171C38.9121 13.0136 39.1545 12.9996 39.3934 12.9926C39.5761 12.989 39.7553 12.9926 39.9591 12.9926C39.9415 13.0523 39.9345 13.098 39.9169 13.1401C39.8467 13.2982 39.7659 13.4528 39.7026 13.6144C39.671 13.6882 39.6675 13.7726 39.6394 13.892C39.7483 13.8744 39.8186 13.8674 39.8853 13.8534C40.2577 13.7655 40.6337 13.755 41.0132 13.7866C41.238 13.8077 41.4629 13.8217 41.6878 13.8428C41.9759 13.8674 42.2394 13.9693 42.4853 14.1098C42.7102 14.2363 42.7664 14.3944 42.6926 14.6404C42.6118 14.9074 42.4572 15.1358 42.264 15.3361C41.8423 15.7753 41.4137 16.2109 40.9921 16.6466C40.9815 16.6571 40.978 16.6712 40.9605 16.6958C41.0026 16.8188 41.0799 16.9242 41.1853 17.019C41.3926 17.2088 41.5894 17.4126 41.7967 17.6023C42.0426 17.8271 42.2956 18.045 42.5415 18.2698C42.668 18.3858 42.7805 18.5193 42.9315 18.6774C42.798 18.688 42.7102 18.702 42.6188 18.702C42.2394 18.702 41.8599 18.702 41.484 18.702C41.2591 18.702 41.0518 18.6353 40.8761 18.4982C40.6302 18.305 40.3878 18.1117 40.1453 17.915C39.9767 17.7744 39.924 17.7604 39.7448 17.8939C39.4356 18.1258 39.0983 18.312 38.754 18.4807C38.241 18.7301 37.6999 18.7863 37.1378 18.7266C37.0253 18.7161 36.9094 18.7055 36.7653 18.6915L36.7723 18.6985ZM40.3842 14.282C40.1137 14.3066 39.8783 14.3171 39.6499 14.3558C39.534 14.3769 39.4005 14.4261 39.3232 14.5069C39.1686 14.6755 39.028 14.8653 38.9191 15.062C38.8067 15.2658 38.8594 15.3571 39.0913 15.3817C39.3864 15.4169 39.6288 15.5469 39.8467 15.7331C39.9732 15.842 40.0223 15.842 40.1523 15.7507C40.2121 15.7085 40.2648 15.6593 40.314 15.6066C40.5283 15.3712 40.7391 15.1323 40.9499 14.8969C40.9886 14.8547 41.0272 14.809 41.0553 14.7599C41.1853 14.549 41.1432 14.4226 40.9007 14.3593C40.718 14.3136 40.5283 14.3031 40.3807 14.2785L40.3842 14.282Z" fill="white"/>
<path d="M71.0396 7.08628C71.0396 5.90928 71.0396 4.73228 71.0396 3.55528C71.0396 3.21438 71.0291 3.23198 71.3558 3.21438C71.6229 3.20038 71.8934 3.21438 72.1639 3.22498C72.8983 3.25658 73.6326 3.28468 74.3669 3.33388C74.915 3.36898 75.4491 3.49898 75.9445 3.73438C76.4399 3.96988 76.8229 4.34228 77.1499 4.77798C77.4409 5.16438 77.5119 5.61768 77.6029 6.07088C77.7079 6.60148 77.6799 7.13198 77.6099 7.66258C77.5609 8.04198 77.5189 8.42148 77.3959 8.78688C77.1849 9.40528 76.8369 9.93578 76.2919 10.3082C76.0389 10.4804 75.7407 10.5963 75.4526 10.7193C74.9361 10.9407 74.3845 10.9934 73.8258 10.9934C73.0107 10.9934 72.1956 10.9793 71.3769 10.9723C71.3629 10.9723 71.3488 10.9723 71.3347 10.9723C71.0572 10.9582 71.0466 10.9372 71.0466 10.6666C71.0537 9.57738 71.0537 8.48468 71.0572 7.39548C71.0572 7.29358 71.0572 7.19168 71.0572 7.09338H71.0361L71.0396 7.08628ZM72.7964 9.62658C72.842 9.63718 72.8631 9.64768 72.8842 9.64768C73.3656 9.64068 73.8434 9.64068 74.3247 9.62658C74.5672 9.61958 74.8026 9.54578 74.9993 9.39818C75.435 9.07498 75.7196 8.66038 75.8356 8.12278C75.9339 7.67308 75.941 7.22338 75.941 6.76658C75.941 6.49608 75.8988 6.23608 75.8145 5.97958C75.5299 5.11528 74.8834 4.62338 73.9699 4.57768C73.7661 4.56718 73.5623 4.54258 73.362 4.51438C73.1758 4.48988 72.9896 4.50038 72.7999 4.50388V9.62658H72.7964Z" fill="white"/>
<path d="M33.4485 6.83675C33.5785 6.81915 33.6769 6.79455 33.7788 6.79455C34.6256 6.79455 35.4688 6.79455 36.3156 6.79455C36.3718 6.79455 36.4315 6.80165 36.4877 6.81565C36.5896 6.83675 36.6564 6.88945 36.6564 7.00535C36.6564 7.10025 36.6739 7.19165 36.6739 7.28645C36.6739 8.29135 36.6739 9.29265 36.6739 10.2976C36.6739 10.4065 36.6529 10.5119 36.6458 10.6208C36.6388 10.7227 36.5791 10.7754 36.4842 10.8035C36.442 10.8141 36.3999 10.8281 36.3577 10.8317C35.9396 10.8844 35.518 10.923 35.1034 10.9933C34.362 11.1198 33.6207 11.046 32.8793 11.0319C31.748 11.0108 30.8485 10.5154 30.1739 9.62995C30.0193 9.42615 29.9069 9.18025 29.8156 8.94135C29.545 8.20705 29.422 7.44105 29.4853 6.66455C29.5556 5.82135 29.798 5.02025 30.3566 4.34915C30.6342 4.01535 30.968 3.76245 31.365 3.57615C32.0818 3.23895 32.8372 3.14405 33.6172 3.14755C34.1829 3.14755 34.7345 3.23535 35.272 3.40405C36.0766 3.66055 36.6037 4.17705 36.7758 5.01675C36.811 5.19595 36.8847 5.37865 36.7899 5.58245C36.7161 5.59295 36.6388 5.61055 36.5615 5.61055C36.182 5.60705 35.8061 5.59995 35.4266 5.58595C35.0261 5.57185 35.0226 5.56835 34.9347 5.17135C34.8504 4.78835 34.5764 4.57405 34.2356 4.46165C33.8034 4.32105 33.3396 4.31055 32.8934 4.39485C32.2539 4.51785 31.7866 4.90785 31.5161 5.49105C31.221 6.13405 31.091 6.80865 31.221 7.51485C31.2842 7.85565 31.3474 8.19645 31.4388 8.53025C31.5758 9.02215 31.892 9.39805 32.3066 9.68975C32.5596 9.86535 32.8512 9.92165 33.1534 9.94615C33.6664 9.98485 34.1723 9.91105 34.6747 9.82675C34.9418 9.78105 35.0015 9.69675 34.998 9.42975C34.9945 9.08895 34.9874 8.75165 34.9839 8.41075C34.9839 8.17535 34.9312 8.12265 34.6888 8.12615C34.362 8.12975 34.0318 8.13675 33.705 8.14725C33.4696 8.15435 33.4064 8.10165 33.4099 7.86265C33.4169 7.53245 33.431 7.20215 33.445 6.84025L33.4485 6.83675Z" fill="white"/>
<path d="M39.8222 7.88392C39.8116 8.01392 39.7905 8.11932 39.7905 8.22822C39.787 9.01532 39.787 9.80231 39.7835 10.5893C39.7835 10.8353 39.7765 10.8599 39.6535 11.0145C39.3057 11.0039 38.9614 10.9969 38.6205 10.9863C38.4905 10.9828 38.357 10.9723 38.227 10.9582C38.0795 10.9407 38.0443 10.8985 38.0408 10.7474C38.0408 10.6842 38.0408 10.6174 38.0443 10.5542C38.0549 10.0061 38.0689 9.45801 38.0724 8.90991C38.0724 7.13201 38.0724 5.35772 38.0724 3.57992C38.0724 3.53772 38.0724 3.49201 38.0724 3.44991C38.0795 3.26011 38.1111 3.22852 38.3114 3.22852C39.0914 3.23552 39.8714 3.22502 40.6478 3.25312C41.2276 3.27772 41.8108 3.33392 42.387 3.41472C42.6646 3.45342 42.9387 3.55532 43.1951 3.66422C43.796 3.92072 44.1719 4.60931 44.0946 5.25231C44.0595 5.53341 44.0208 5.80742 43.9189 6.07452C43.7749 6.45392 43.5114 6.71391 43.16 6.90361C43.0019 6.98801 42.8543 7.08992 42.6787 7.19882C42.7911 7.24092 42.8684 7.29012 42.9492 7.30072C43.5008 7.37802 43.8803 7.88392 43.8978 8.48472C43.9049 8.67092 43.9224 8.86072 43.9224 9.04692C43.9295 9.52122 44.0208 9.97802 44.1403 10.4347C44.1719 10.5612 44.1965 10.6877 44.2141 10.8177C44.2211 10.8774 44.207 10.9442 44.2035 11.0109C43.8592 11.0004 43.536 10.9899 43.2127 10.9828C43.1038 10.9828 42.9949 10.9828 42.886 10.9758C42.64 10.9582 42.5451 10.8809 42.503 10.6455C42.4397 10.2766 42.3835 9.90422 42.3308 9.53532C42.2816 9.20152 42.2641 8.86072 42.1973 8.53042C42.12 8.15092 41.9373 8.00342 41.5543 7.96122C41.3505 7.94012 41.1468 7.93312 40.943 7.92262C40.69 7.90852 40.4335 7.89802 40.1805 7.88742C40.0716 7.88392 39.9627 7.88742 39.8222 7.88742V7.88392ZM39.8292 6.60502C40.0154 6.60502 40.1665 6.60502 40.3176 6.60502C40.6303 6.59802 40.943 6.59091 41.2522 6.58391C41.3751 6.58391 41.4981 6.58391 41.6211 6.57341C41.846 6.55581 42.0216 6.44342 42.1305 6.24662C42.2746 5.98312 42.3554 5.70202 42.3414 5.39632C42.3168 4.92552 42.0568 4.65501 41.5824 4.61281C41.1327 4.57071 40.6865 4.52851 40.2368 4.50741C39.8151 4.48631 39.8151 4.42662 39.7905 4.89392C39.7624 5.36122 39.78 5.82852 39.7835 6.29932C39.7835 6.39772 39.8116 6.49612 39.8257 6.60502H39.8292Z" fill="white"/>
<path d="M67.403 21.6077C67.5225 21.5585 67.6244 21.6077 67.7228 21.6534C68.1374 21.8361 68.5695 21.9028 69.0193 21.9134C69.4198 21.9239 69.736 21.7728 69.982 21.4566C70.2174 21.1545 70.3228 20.8101 70.3439 20.4307C70.379 19.7385 70.2771 19.0639 70.126 18.3928C70.1049 18.2945 70.0628 18.2031 70.0241 18.0977C69.9222 18.0977 69.8274 18.0872 69.736 18.0977C69.1844 18.1715 68.6293 18.1258 68.0776 18.1328C67.3503 18.1434 66.6195 18.1469 65.8922 18.1434C65.7798 18.1434 65.6603 18.1258 65.5514 18.0907C65.4039 18.0485 65.4601 17.915 65.4566 17.8131C65.453 17.7112 65.5022 17.648 65.6076 17.6374C65.6639 17.6304 65.7236 17.6304 65.7833 17.6304C66.6371 17.6304 67.4874 17.6304 68.3411 17.6304C68.7136 17.6304 69.0825 17.6515 69.4549 17.6585C69.606 17.6585 69.7571 17.6445 69.8976 17.6409C69.9574 17.525 69.9293 17.4372 69.8836 17.3528C69.8063 17.2123 69.736 17.0717 69.6517 16.9347C69.2898 16.3585 68.9139 15.7893 68.4114 15.322C68.3798 15.2939 68.3482 15.2623 68.3201 15.2307C68.2639 15.1745 68.2357 15.1007 68.2849 15.0374C68.313 15.0023 68.3833 14.9812 68.4325 14.9812C68.7312 14.9812 69.0298 14.9847 69.3284 14.9882C69.5252 14.9882 69.722 14.9882 69.9187 14.9882C70.1401 14.9882 70.3333 15.055 70.4879 15.2166C70.5617 15.2939 70.6355 15.3747 70.7198 15.445C70.8498 15.5539 70.9868 15.5785 71.1274 15.452C71.4541 15.1534 71.7949 14.8723 72.1287 14.5842C72.1709 14.5455 72.213 14.5034 72.2482 14.4577C72.4168 14.2363 72.336 14.029 72.0655 13.9799C71.9671 13.9623 71.8617 13.9553 71.7633 13.9482C71.3839 13.9236 71.0079 13.9026 70.6284 13.8815C70.4387 13.8709 70.249 13.8604 70.0628 13.8639C69.0439 13.8709 68.0249 13.885 67.0025 13.892C66.9147 13.892 66.8303 13.8745 66.7425 13.8604C66.5457 13.8253 66.5141 13.7866 66.5106 13.5899C66.5106 13.5407 66.5141 13.4915 66.5211 13.4212C66.6652 13.4072 66.8022 13.3826 66.9357 13.3826C68.5028 13.3826 70.0698 13.379 71.6333 13.3966C72.1041 13.4036 72.582 13.4458 73.0457 13.5266C73.3479 13.5793 73.6325 13.7304 73.9241 13.8393C73.9522 13.8499 73.9733 13.8709 73.9979 13.885C74.279 14.0923 74.3141 14.2012 74.1455 14.5069C74.0436 14.6896 73.9136 14.8547 73.7836 15.0163C73.3549 15.5363 72.8139 15.9299 72.2798 16.3304C72.2095 16.3831 72.1428 16.4358 72.0725 16.492C71.7212 16.7731 71.7001 16.8363 71.8511 17.265C71.9003 17.4055 71.9776 17.539 72.0339 17.6585C72.2798 17.6585 72.4976 17.6585 72.712 17.6585C73.4709 17.6585 74.2263 17.655 74.9852 17.655C75.0449 17.655 75.1011 17.6585 75.1609 17.669C75.3084 17.6901 75.4068 17.8061 75.4033 17.9536C75.4033 18.0661 75.3225 18.1293 75.1574 18.1434C75.1433 18.1434 75.1293 18.1434 75.1152 18.1434C74.2403 18.1363 73.3655 18.1293 72.4941 18.1258C72.3957 18.1258 72.2939 18.1363 72.1814 18.1434C72.1814 18.2488 72.1779 18.3331 72.1814 18.4174C72.213 18.9796 72.2693 19.5417 72.2728 20.1039C72.2763 20.7645 72.1111 21.3899 71.7071 21.9345C71.3101 22.472 70.7584 22.732 70.1049 22.7812C69.8168 22.8023 69.5217 22.7953 69.2301 22.7847C68.8963 22.7707 68.5871 22.6547 68.2955 22.5036C68.032 22.3666 67.793 22.1839 67.5471 22.0188C67.396 21.9169 67.3503 21.7799 67.4136 21.6077H67.403Z" fill="white"/>
<path d="M47.1935 18.1153C47.6081 18.1293 47.977 18.1329 48.3459 18.161C48.4443 18.168 48.5392 18.2488 48.634 18.298C48.6867 18.3261 48.743 18.3999 48.7851 18.3929C48.873 18.3788 48.9573 18.3226 49.0381 18.2804C49.0557 18.2734 49.0662 18.2453 49.0732 18.2277C49.1857 18.0099 49.3051 17.7956 49.4035 17.5707C49.5089 17.3388 49.4386 17.2158 49.1892 17.1631C49.1189 17.1491 49.0451 17.1491 48.9713 17.1491C48.4338 17.1561 47.8927 17.1702 47.3551 17.1772C47.2813 17.1772 47.2076 17.1737 47.1373 17.1561C47.0354 17.135 46.9686 17.0718 46.9616 16.9629C46.9546 16.8504 47.0038 16.7591 47.1092 16.7204C47.197 16.6888 47.2954 16.6818 47.3867 16.6818C48.223 16.6818 49.0592 16.6958 49.8989 16.7556C50.3662 16.7907 50.844 16.7345 51.3149 16.7204C52 16.7029 52.6816 16.6045 53.3667 16.6677C53.4897 16.6783 53.6232 16.731 53.7251 16.8012C53.8657 16.8961 53.8516 17.0226 53.7005 17.1034C53.6127 17.1491 53.5108 17.1807 53.4124 17.1807C52.9311 17.1807 52.4497 17.1631 51.9719 17.1596C51.8067 17.1596 51.6381 17.1596 51.473 17.1737C51.3992 17.1807 51.3149 17.2229 51.2657 17.2756C51.0689 17.5004 50.9003 17.7464 50.9073 18.0942C50.9951 18.1048 51.083 18.1329 51.1708 18.1258C51.6697 18.0766 52.1581 18.1575 52.65 18.2137C52.9346 18.2488 53.177 18.3753 53.3843 18.565C53.5389 18.7091 53.5986 18.8918 53.5951 19.0921C53.5951 19.345 53.567 19.598 53.56 19.8475C53.5494 20.5045 53.5424 21.1615 53.5389 21.8185C53.5389 22.1383 53.4511 22.4299 53.3035 22.7075C53.2403 22.8234 53.1524 22.8902 53.0154 22.9077C52.6254 22.9639 52.2494 22.9429 51.8876 22.7637C51.7646 22.7004 51.6065 22.6934 51.4659 22.6864C51.2551 22.6758 51.0443 22.6899 50.8335 22.6864C50.6894 22.6864 50.6894 22.6793 50.577 22.5985C50.5876 22.2542 50.6086 21.9239 50.6121 21.5937C50.6192 20.9015 50.6121 20.2058 50.6192 19.5137C50.6192 19.3134 50.6508 19.1096 50.6438 18.9093C50.6403 18.7934 50.5981 18.6704 50.5454 18.5615C50.4857 18.4456 50.4048 18.4315 50.2924 18.4948C50.1694 18.5615 50.0886 18.6599 50.0957 18.8075C50.1027 19.0077 50.1097 19.2115 50.1132 19.4118C50.1238 19.9739 50.1308 20.5361 50.1484 21.1018C50.1589 21.5269 50.18 21.9521 50.194 22.3772C50.2046 22.6583 50.194 22.6723 49.913 22.6829C49.79 22.6899 49.667 22.7004 49.5405 22.7004C49.4457 22.7004 49.3508 22.6969 49.2594 22.6758C49.0767 22.6372 49.0451 22.5915 49.0486 22.4088C49.0557 21.7869 49.0662 21.1685 49.0732 20.5466C49.0803 20.0407 49.0838 19.5348 49.0873 19.0288C49.0873 18.8672 49.0088 18.7559 48.8519 18.695C48.8132 18.681 48.7711 18.6599 48.7078 18.6318C48.6832 18.6985 48.6481 18.7618 48.6375 18.825C48.6094 19.0042 48.5778 19.1834 48.5778 19.3626C48.5743 20.2515 48.5743 21.1404 48.5778 22.0258C48.5778 22.205 48.6165 22.3842 48.6375 22.5634C48.6481 22.6548 48.6516 22.7496 48.6621 22.8656C48.5743 22.8831 48.5005 22.9148 48.4267 22.9148C48.093 22.9218 47.7557 22.9288 47.4219 22.9148C47.19 22.9042 47.1619 22.8621 47.1654 22.6337C47.1654 22.4475 47.183 22.2577 47.1865 22.0715C47.1865 22.0012 47.197 21.9134 47.1619 21.8607C47.074 21.7166 47.1057 21.5726 47.1197 21.418C47.1443 21.1615 47.1689 20.9015 47.1724 20.6415C47.1759 19.9037 47.1689 19.1693 47.1689 18.4315C47.1689 18.3261 47.183 18.2207 47.1935 18.0977V18.1153ZM51.6732 18.6388C51.6732 18.7934 51.6732 18.9339 51.6732 19.078C51.6732 19.8439 51.6767 20.6099 51.6767 21.3723C51.6767 21.5304 51.6557 21.6921 51.6662 21.8466C51.6732 21.9591 51.7013 22.0715 51.747 22.1734C51.7751 22.2366 51.8384 22.3104 51.9367 22.2858C52.0316 22.2612 52.0913 22.198 52.1089 22.1066C52.13 22.0012 52.1405 21.8923 52.1405 21.7834C52.1405 20.9015 52.137 20.0231 52.1335 19.1412C52.1335 19.0639 52.1265 18.9831 52.1089 18.9058C52.0632 18.7021 51.9367 18.6177 51.6697 18.6353L51.6732 18.6388Z" fill="white"/>
<path d="M57.0946 3.22488C57.1157 3.63948 57.1613 4.02598 57.0946 4.41248C57.07 4.56708 57.0454 4.58808 56.8732 4.58458C56.5816 4.57758 56.29 4.55647 55.9984 4.54947C55.2711 4.53187 54.5438 4.51787 53.813 4.50027C53.7357 4.50027 53.6584 4.50727 53.574 4.51077C53.5635 4.57057 53.553 4.61267 53.553 4.65137C53.553 5.15027 53.553 5.64918 53.5565 6.14458C53.5565 6.34838 53.5916 6.38708 53.7989 6.39058C54.0448 6.39758 54.2943 6.37297 54.5403 6.37297C55.2043 6.37297 55.8649 6.37297 56.5289 6.37297C56.5992 6.37297 56.673 6.39058 56.7503 6.40108C56.7643 6.45378 56.7854 6.50298 56.7854 6.55218C56.7924 6.85428 56.803 7.15998 56.7994 7.46218C56.7994 7.62378 56.7678 7.64487 56.6062 7.65887C56.5254 7.66597 56.4446 7.66248 56.3673 7.66248C55.9948 7.66248 55.6224 7.65887 55.2535 7.65187C54.8248 7.64487 54.3962 7.62378 53.964 7.62028C53.553 7.61678 53.553 7.62028 53.5494 8.02788C53.5494 8.45298 53.5494 8.88158 53.5494 9.30678C53.5494 9.41218 53.567 9.52108 53.5776 9.65458C53.7462 9.66518 53.9043 9.68617 54.0624 9.68267C54.8354 9.66867 55.6049 9.65107 56.3778 9.63347C56.5394 9.63347 56.6976 9.62647 56.8592 9.63347C56.9365 9.63347 57.0138 9.64758 57.1016 9.65458C57.1824 10.0692 57.2211 10.4698 57.1684 10.8738C57.1508 11.0214 57.1051 11.053 56.9646 11.0425C55.6049 10.9406 54.2416 11.0214 52.8784 10.9933C52.6746 10.9898 52.4708 10.9898 52.267 10.9862C52.2143 10.9862 52.1651 10.9862 52.1124 10.9827C51.87 10.9616 51.8313 10.916 51.8313 10.67C51.8384 9.51408 51.8489 8.35808 51.8524 7.20568C51.8524 6.14458 51.8524 5.08347 51.8489 4.02247C51.8489 3.87137 51.8278 3.72027 51.8208 3.56917C51.8138 3.29867 51.884 3.22138 52.1616 3.21078C52.3303 3.20378 52.4954 3.21078 52.664 3.21078C53.4511 3.21788 54.2381 3.23188 55.0251 3.23188C55.6294 3.23188 56.2338 3.21428 56.8381 3.20728C56.9084 3.20728 56.9821 3.21788 57.084 3.22838L57.0946 3.22488Z" fill="white"/>
<path d="M69.6659 4.54245C68.4888 4.57055 67.3329 4.48615 66.1629 4.50375C66.1559 4.55295 66.1453 4.59515 66.1453 4.63375C66.1453 5.13975 66.1453 5.64565 66.1453 6.15165C66.1453 6.36595 66.1664 6.39055 66.3842 6.38705C66.9394 6.37995 67.491 6.35885 68.0461 6.35885C68.4748 6.35885 68.9034 6.38345 69.3461 6.39755C69.3637 6.46435 69.3918 6.51705 69.3953 6.57325C69.4094 6.86135 69.4269 7.14945 69.4305 7.43755C69.4305 7.65185 69.4129 7.66245 69.1915 7.67645C69.1177 7.67995 69.0475 7.68345 68.9737 7.67995C68.668 7.67295 68.3623 7.65885 68.0567 7.65185C67.5121 7.64135 66.964 7.63075 66.4194 7.62025C66.3421 7.62025 66.2613 7.62025 66.1523 7.62025C66.1523 8.30185 66.1523 8.96245 66.1523 9.64055C66.314 9.65105 66.458 9.66865 66.5986 9.66865C67.4067 9.66165 68.2148 9.64755 69.0229 9.63345C69.1775 9.63345 69.3286 9.61595 69.4796 9.61595C69.6518 9.61595 69.715 9.65805 69.7256 9.81975C69.7502 10.1078 69.7748 10.3959 69.7642 10.684C69.7537 11.0283 69.694 11.0564 69.3567 11.0318C69.0299 11.0072 68.7032 10.9967 68.3764 10.9932C67.2767 10.9861 66.1769 10.9861 65.0772 10.9791C64.9261 10.9791 64.7715 10.9651 64.6205 10.9405C64.4764 10.9194 64.4483 10.8772 64.4483 10.7402C64.4764 8.53725 64.4483 6.33785 64.4553 4.13485C64.4553 3.91705 64.4448 3.70265 64.4448 3.48485C64.4448 3.30215 64.4834 3.24245 64.6626 3.22485C64.8875 3.20375 65.1123 3.20725 65.3372 3.20725C66.5775 3.21075 67.8142 3.21785 69.0545 3.22835C69.2583 3.22835 69.4586 3.24245 69.6764 3.24945C69.7537 3.68515 69.7537 4.09615 69.6659 4.54245Z" fill="white"/>
<path d="M50.4716 4.54263C49.2946 4.57423 48.1386 4.48993 46.9651 4.50393C46.9476 4.57423 46.923 4.63393 46.923 4.69373C46.9159 5.19963 46.9089 5.70563 46.9089 6.20803C46.9089 6.35563 46.9511 6.39423 47.1162 6.39773C47.3551 6.39773 47.5976 6.38013 47.8365 6.38013C48.4548 6.38013 49.0732 6.38013 49.6916 6.38013C49.8005 6.38013 49.9094 6.38013 50.0184 6.39073C50.173 6.40123 50.2362 6.45043 50.2467 6.59803C50.2713 6.90013 50.2784 7.20233 50.2959 7.50453C50.2994 7.58533 50.2573 7.63103 50.187 7.64153C50.1097 7.65563 50.0289 7.66263 49.9481 7.65913C49.6213 7.65913 49.2911 7.65203 48.9643 7.64503C48.3881 7.63453 47.8154 7.62393 47.2392 7.61343C47.1865 7.61343 47.1373 7.61343 47.0846 7.61343C46.944 7.62393 46.9124 7.63803 46.9124 7.77853C46.9054 8.34773 46.9089 8.92043 46.9089 9.48963C46.9089 9.53883 46.93 9.58453 46.9476 9.65833C47.1232 9.66183 47.2954 9.66883 47.4676 9.66883C48.4127 9.65833 49.3613 9.64773 50.3065 9.64073C50.5348 9.64073 50.5665 9.66883 50.5981 9.90073C50.6262 10.122 50.6543 10.3469 50.6578 10.5683C50.6578 10.7158 50.6192 10.8634 50.5981 10.9969C50.4224 11.0953 50.2713 11.025 50.1203 11.0215C49.9692 11.018 49.8146 10.9934 49.6635 10.9934C48.3951 10.9864 47.1267 10.9864 45.8619 10.9758C45.7038 10.9758 45.5421 10.9512 45.384 10.9266C45.2821 10.9091 45.2294 10.8493 45.2294 10.7299C45.24 9.25073 45.2505 7.77153 45.2505 6.28883C45.2505 5.37183 45.233 4.45473 45.2224 3.53773C45.2224 3.28473 45.2962 3.19693 45.5562 3.19343C45.883 3.18993 46.2132 3.20393 46.54 3.20743C47.6257 3.21453 48.7113 3.21453 49.797 3.22153C49.9797 3.22153 50.1624 3.23563 50.3416 3.24263C50.4119 3.24263 50.4716 3.27423 50.4786 3.35503C50.5103 3.74153 50.5103 4.13153 50.4646 4.53203L50.4716 4.54263Z" fill="white"/>
<path d="M60.1898 3.24265C60.2039 3.78025 60.1933 4.31425 60.1968 4.84485C60.1968 5.37885 60.1968 5.91295 60.1968 6.44695C60.1968 6.98105 60.1968 7.51505 60.1968 8.04915C60.1968 8.58315 60.1968 9.11725 60.1968 9.67235C60.2706 9.67935 60.3339 9.68645 60.3936 9.68645C61.0401 9.67585 61.6901 9.65835 62.3366 9.65125C62.6493 9.64775 62.962 9.65125 63.2747 9.65125C63.4539 9.65125 63.5417 9.70755 63.5593 9.88315C63.5874 10.1678 63.5944 10.4594 63.5979 10.7476C63.5979 10.8143 63.5698 10.8916 63.5277 10.9478C63.496 10.9935 63.4223 11.0392 63.3731 11.0357C62.1714 10.9443 60.9698 11.0181 59.7717 10.9935C59.5679 10.99 59.3641 10.9935 59.1604 10.9935C59.0514 10.9935 58.9425 10.9935 58.8336 10.9759C58.6333 10.9478 58.5877 10.8951 58.5912 10.6913C58.5912 9.10315 58.5912 7.51505 58.5982 5.92695C58.5982 5.30505 58.6193 4.68665 58.6228 4.06485C58.6228 3.87855 58.6017 3.69235 58.5982 3.50265C58.5982 3.43935 58.6087 3.37265 58.6298 3.31295C58.6579 3.23205 58.7177 3.18295 58.8125 3.18645C59.2623 3.20395 59.712 3.22155 60.1898 3.23915V3.24265Z" fill="white"/>
<path d="M44.4353 22.0187C44.4423 21.9484 44.4564 21.8711 44.4599 21.7938C44.4599 20.5957 44.4599 19.3975 44.4599 18.1959C44.4599 17.971 44.4037 17.9219 44.1788 17.9114C44.0804 17.9079 43.975 17.8938 43.8802 17.8657C43.7783 17.8341 43.7291 17.7498 43.7396 17.6444C43.7502 17.5284 43.845 17.5002 43.9469 17.4967C44.0277 17.4967 44.1085 17.4967 44.1858 17.4967C44.2561 17.4967 44.3299 17.4967 44.4212 17.4967C44.4353 17.3878 44.4529 17.2965 44.4529 17.2087C44.4529 16.2354 44.4529 15.2587 44.4529 14.2854C44.4529 14.2644 44.4529 14.2433 44.4529 14.2222C44.4388 13.9727 44.4002 13.934 44.1507 13.9375C44.0488 13.9375 43.9469 13.9516 43.845 13.941C43.7185 13.9305 43.6834 13.8744 43.701 13.7514C43.7256 13.5722 43.7818 13.5195 43.975 13.5195C44.4775 13.5195 44.9799 13.5265 45.4823 13.5265C45.8161 13.5265 46.1534 13.516 46.4872 13.5125C46.6172 13.5125 46.7472 13.5195 46.8561 13.5265C46.8772 13.5546 46.8842 13.5617 46.8842 13.5652C46.9264 13.9165 46.8631 13.9902 46.5012 13.9832C46.4275 13.9832 46.3572 13.9727 46.2834 13.9727C46.1218 13.9692 46.0796 14.0008 46.0515 14.166C46.041 14.2363 46.041 14.31 46.041 14.3803C46.0375 15.2481 46.0304 16.1125 46.0269 16.9803C46.0269 17.1525 46.0164 17.328 46.0972 17.4862C46.3642 17.4616 46.6242 17.4371 46.8772 17.4125C46.9861 17.5952 46.9967 17.7708 46.9931 17.9641C46.7331 18.059 46.4731 17.9395 46.2096 17.9641C46.1815 17.9114 46.1534 17.8657 46.1253 17.8165C46.1112 17.8271 46.0972 17.8306 46.0937 17.8411C46.0164 18.3225 46.0656 18.8073 46.055 19.2887C46.0375 19.9738 46.041 20.6589 46.041 21.3475C46.041 21.4494 46.041 21.5513 46.0656 21.6497C46.1042 21.8148 46.1885 21.864 46.3537 21.8218C46.4731 21.7902 46.5856 21.741 46.705 21.7024C46.7999 21.6672 46.8948 21.6357 47.0037 21.6954C46.9685 21.9203 46.8139 22.0292 46.6348 22.1171C46.2939 22.2822 45.9391 22.4121 45.5631 22.4753C45.0396 22.5597 44.5126 22.6406 43.9785 22.623C43.6869 22.6125 43.6272 22.5527 43.6658 22.2752C43.6869 22.1206 43.7326 22.0749 43.8977 22.089C44.0734 22.1065 44.2456 22.103 44.4318 22.0363L44.4353 22.0187Z" fill="white"/>
<path d="M39.2037 22.1698C39.4426 22.1944 39.6745 22.2225 39.9064 22.2401C40.1172 22.2542 40.328 22.2577 40.5388 22.2577C40.718 22.2577 40.8234 22.1523 40.8656 21.9907C40.8972 21.8677 40.9253 21.7342 40.9253 21.6077C40.9323 21.0877 40.9358 20.5677 40.9288 20.0477C40.9253 19.6963 40.8093 19.5593 40.4615 19.5101C40.2542 19.482 40.0399 19.489 39.8291 19.4961C39.6604 19.4996 39.4953 19.5277 39.3302 19.5417C39.0983 19.5628 38.9823 19.6507 38.9191 19.879C38.8945 19.9704 38.8804 20.0653 38.8804 20.1566C38.8804 20.5747 38.8804 20.9928 38.9015 21.4109C38.9085 21.5725 38.9402 21.7482 39.0139 21.8888C39.1299 22.1066 39.0702 22.2963 38.9788 22.4861C38.8348 22.7812 38.8137 22.7847 38.4764 22.7812C38.1918 22.7777 37.9072 22.7742 37.6226 22.7707C37.4012 22.7707 37.3415 22.7144 37.3239 22.4931C37.3169 22.3912 37.3169 22.2928 37.3169 22.1909C37.3239 21.3231 37.331 20.4588 37.3415 19.5909C37.3415 19.4188 37.352 19.2466 37.3661 19.0709C37.3802 18.9093 37.4048 18.8777 37.5664 18.8812C37.9002 18.8917 38.2339 18.9058 38.5677 18.9304C38.6942 18.9374 38.7996 18.9971 38.8875 19.0955C39.0456 19.2747 39.0526 19.2712 39.2458 19.1061C39.3477 19.0182 39.4637 18.9761 39.6007 18.9515C40.1066 18.8636 40.6126 18.8496 41.122 18.9409C41.2556 18.9655 41.3996 18.9515 41.5366 18.9585C42.0883 18.9796 42.538 19.4363 42.545 19.9844C42.552 20.5185 42.5556 21.0525 42.552 21.5866C42.552 21.7588 42.531 21.9344 42.4888 22.0996C42.3975 22.4439 42.162 22.6547 41.8107 22.7285C41.6561 22.7601 41.4945 22.7742 41.3364 22.7847C40.8585 22.8093 40.3772 22.8339 39.8958 22.8515C39.7869 22.855 39.6745 22.8444 39.5726 22.8093C39.2388 22.6934 39.0983 22.588 39.2002 22.1593L39.2037 22.1698Z" fill="white"/>
<path d="M52.0596 13.5053C52.5691 13.4245 53.054 13.5018 53.5564 13.5124C53.5705 13.6143 53.5915 13.7056 53.5915 13.797C53.581 14.2221 53.5705 14.6472 53.5529 15.0724C53.5353 15.5361 53.3034 15.8102 52.8502 15.9086C52.7518 15.9297 52.6499 15.9402 52.548 15.9402C51.8769 15.9402 51.2094 15.9402 50.5383 15.9367C50.2256 15.9367 49.9129 15.9367 49.6002 15.9402C49.4069 15.9402 49.2172 15.9261 49.0486 15.8348C48.9291 15.768 48.8202 15.7751 48.7218 15.8453C48.5496 15.9648 48.3599 15.9859 48.1632 15.9894C47.9805 15.9894 47.7978 16.0105 47.6186 16.0105C47.5061 16.0105 47.3937 15.9824 47.2742 15.9648V13.5088C47.3832 13.4983 47.485 13.4807 47.5834 13.4807C47.8821 13.4807 48.1807 13.4807 48.4794 13.4807C48.7675 13.4843 48.7921 13.5088 48.7921 13.7899C48.7921 14.1132 48.785 14.4399 48.7921 14.7632C48.7921 14.8791 48.7991 14.9951 48.8272 15.1075C48.8869 15.3394 49.1505 15.501 49.3859 15.4553C49.4948 15.4343 49.5334 15.3429 49.5475 15.248C49.5651 15.118 49.5756 14.988 49.5756 14.858C49.5756 14.3732 49.5756 13.8918 49.5651 13.407C49.5615 13.038 49.6002 12.9959 49.9726 12.9924C50.3134 12.9924 50.6578 12.9924 50.9986 12.9924C51.1883 12.9924 51.2269 13.0275 51.2445 13.2137C51.2586 13.3437 51.2551 13.4737 51.2551 13.6037C51.2551 13.9867 51.248 14.3697 51.2551 14.7526C51.2551 14.9248 51.2691 15.1005 51.2972 15.2691C51.3323 15.4659 51.4378 15.5221 51.624 15.4694C51.9226 15.3851 52.021 15.2797 52.0386 14.967C52.0561 14.6578 52.0491 14.3486 52.0526 14.0359C52.0526 13.8637 52.0596 13.6916 52.0632 13.5018L52.0596 13.5053Z" fill="white"/>
<path d="M33.0269 21.8711C33.0902 21.1087 33.041 20.3814 33.0375 19.6576C33.0304 18.5333 33.048 17.4089 33.0621 16.2846C33.0656 15.9649 33.1253 15.9227 33.4415 15.9473C33.5996 15.9614 33.7613 15.9754 33.9194 16C34.1337 16.0352 34.2004 16.123 34.1161 16.3127C33.9545 16.6711 33.9685 17.04 33.9685 17.416C33.9685 18.5122 33.9721 19.6084 33.965 20.7046C33.965 20.9049 33.9334 21.1087 33.8772 21.2984C33.7894 21.5865 33.5504 21.7481 33.2799 21.857C33.2131 21.8852 33.1253 21.8676 33.0304 21.8711H33.0269Z" fill="white"/>
</g>
</svg>
