<svg width="194" height="32" viewBox="0 0 194 32" fill="none" xmlns="http://www.w3.org/2000/svg">
<path d="M77.2227 26.8659C74.1933 30.1812 69.9063 31.7816 64.2475 31.7816C61.8468 31.7816 59.6747 31.4958 57.6741 30.8671C55.6735 30.2383 54.0731 29.4381 52.7012 28.4092C51.3866 27.3803 50.2434 26.18 49.3288 24.8082C48.4143 23.4363 47.7855 22.0073 47.3282 20.5212C46.9281 19.035 46.6995 17.4917 46.6995 15.9484C46.6995 14.2908 46.9281 12.6903 47.3854 11.2042C47.8427 9.66084 48.5286 8.23185 49.5003 6.91718C50.472 5.6025 51.6152 4.40215 52.9299 3.43043C54.3017 2.45872 55.9022 1.65848 57.8456 1.08689C59.7319 0.515291 61.8468 0.229492 64.076 0.229492C68.1915 0.229492 71.9069 1.14405 75.2222 2.97316L75.9652 3.43043L73.6788 7.77457L72.8786 7.37445C71.8497 6.86002 70.5351 6.40274 68.9917 5.94546C67.4484 5.54534 65.848 5.31671 64.3046 5.31671C62.7613 5.31671 61.2752 5.54534 59.8462 6.05978C58.4172 6.51706 57.1025 7.20297 55.9593 8.11753C54.8161 8.97493 53.9016 10.1181 53.2728 11.4328C52.5869 12.8046 52.244 14.2336 52.244 15.8341C52.244 17.949 52.8156 19.8353 53.9016 21.5501C54.9876 23.2648 56.5309 24.5795 58.5315 25.4941C60.4749 26.4086 62.7042 26.9231 65.162 26.9231C67.8485 26.9231 70.0206 26.2943 71.7354 25.094V18.9207H62.0183V14.0621H77.1656V26.8659H77.2227Z" fill="white"/>
<path d="M107.346 9.20304C107.346 10.1748 107.232 11.1465 107.003 12.0039C106.774 12.9184 106.374 13.7758 105.86 14.5761C105.345 15.4335 104.659 16.1765 103.745 16.8053C102.83 17.434 101.801 17.9485 100.544 18.3486L109.918 31.3238H102.716L94.0277 19.2632H88.769V31.3238H83.2817V0.286133H96.5427C97.1715 0.286133 97.8002 0.286133 98.3718 0.343293C98.9434 0.400452 99.5722 0.457612 100.372 0.629091C101.173 0.74341 101.859 0.972049 102.43 1.20069C103.059 1.42933 103.688 1.77228 104.316 2.22956C104.945 2.68684 105.517 3.20128 105.917 3.83003C106.374 4.45879 106.717 5.20187 107.003 6.11642C107.174 7.03098 107.346 8.05985 107.346 9.20304ZM88.769 5.37335V14.2903H93.8562C94.7136 14.2903 95.5139 14.2331 96.1998 14.1759C96.8857 14.1188 97.5716 14.0045 98.2575 13.833C98.9434 13.6615 99.5722 13.3757 100.029 13.0899C100.487 12.7469 100.887 12.3468 101.173 11.7752C101.458 11.2036 101.63 10.5177 101.63 9.77464C101.63 6.8595 99.4007 5.43051 94.9423 5.43051H88.769V5.37335Z" fill="white"/>
<path d="M115.348 0.286133H120.836V31.3238H115.348V0.286133Z" fill="white"/>
<path d="M128.838 0.286133H134.897L152.273 24.1217V0.286133H157.761V31.3238H151.588L134.382 7.43109V31.3238H128.895V0.286133H128.838Z" fill="white"/>
<path d="M165.134 0.286133H171.193L188.513 24.1217V0.286133H194V31.3238H187.827L170.679 7.43109V31.3238H165.192V0.286133H165.134Z" fill="white"/>
<path d="M11.3748 0.000976562H31.7808L0 9.8896L11.3748 0.000976562Z" fill="#60A6B4"/>
<path d="M31.7808 21.7783L20.2345 31.7813H0L31.7808 21.7783Z" fill="#344244"/>
<path d="M31.7808 0.000976562V21.7788L0 9.8896L31.7808 0.000976562Z" fill="#344244"/>
<path d="M31.7808 21.7789L0 31.7818V9.88965L31.7808 21.7789Z" fill="#B7BF44"/>
</svg>
