<svg width="133" height="32" viewBox="0 0 133 32" fill="none" xmlns="http://www.w3.org/2000/svg">
<path d="M9.53982 25.7304C7.71541 25.7304 6.18085 25.3638 4.93616 24.6306C3.70851 23.8804 2.77925 22.8062 2.14838 21.408C1.53456 20.0099 1.22764 18.3133 1.22764 16.3184V16.1905C1.22764 14.6048 1.43225 13.2152 1.84147 12.0217C2.26773 10.8111 2.87303 9.80509 3.65736 9.00371C4.44169 8.20233 5.388 7.60555 6.49629 7.21339C7.60458 6.80418 8.83222 6.59957 10.1792 6.59957C11.6967 6.59957 13.0437 6.85533 14.2202 7.36685C15.3967 7.86131 16.3515 8.56892 17.0847 9.48965C17.8179 10.3933 18.2442 11.4675 18.3635 12.7122H15.3967C15.2262 11.9449 14.8937 11.297 14.3993 10.7684C13.9218 10.2228 13.3165 9.81361 12.5834 9.5408C11.8672 9.26799 11.0573 9.13159 10.1536 9.13159C8.8578 9.13159 7.77508 9.37882 6.9055 9.87329C6.03592 10.3507 5.37947 11.0242 4.93616 11.8938C4.50989 12.7463 4.29676 13.7267 4.29676 14.835V17.5461C4.29676 18.4839 4.42464 19.3108 4.6804 20.0269C4.95321 20.726 5.33685 21.3228 5.83131 21.8173C6.34283 22.2947 6.94813 22.6527 7.64721 22.8914C8.34628 23.1301 9.11356 23.2495 9.94904 23.2495C11.1255 23.2495 12.123 23.0364 12.9414 22.6101C13.7599 22.1838 14.3822 21.5785 14.8085 20.7942C15.2347 19.9928 15.4479 19.0465 15.4479 17.9553V16.8811L16.4709 17.9041H10.2304V15.7558H18.4914V25.4746H16.3174L16.0873 21.8173H15.9594C15.7036 22.6016 15.2688 23.2921 14.655 23.8889C14.0412 24.4686 13.291 24.9205 12.4043 25.2444C11.5347 25.5684 10.5799 25.7304 9.53982 25.7304ZM22.9056 25.4746V14.3491C22.9056 13.5988 23.1273 13.0191 23.5706 12.6099C24.0139 12.1836 24.5937 11.9705 25.3098 11.9705H30.8342V14.2212H25.6423V25.4746H22.9056ZM38.7881 25.7304C37.3729 25.7304 36.1964 25.449 35.2586 24.8864C34.3379 24.3237 33.6473 23.5223 33.187 22.4822C32.7266 21.4421 32.4879 20.2145 32.4708 18.7993V18.697C32.4708 17.1113 32.7351 15.8069 33.2637 14.7839C33.7923 13.7438 34.5255 12.9765 35.4632 12.482C36.4181 11.9705 37.5264 11.7148 38.7881 11.7148C40.0499 11.7148 41.1496 11.9705 42.0874 12.482C43.0252 12.9765 43.7584 13.7438 44.2869 14.7839C44.8155 15.8069 45.0798 17.1113 45.0798 18.697V18.7993C45.0798 20.2145 44.8496 21.4421 44.3892 22.4822C43.9289 23.5223 43.2298 24.3237 42.292 24.8864C41.3713 25.449 40.2033 25.7304 38.7881 25.7304ZM38.7881 23.4797C39.5213 23.4797 40.1436 23.3433 40.6551 23.0705C41.1837 22.7977 41.5844 22.4055 41.8572 21.894C42.13 21.3654 42.2664 20.7345 42.2664 20.0014V17.4438C42.2664 16.7447 42.1215 16.1394 41.8316 15.6279C41.5588 15.0993 41.1581 14.6901 40.6296 14.4002C40.1181 14.1104 39.5042 13.9654 38.7881 13.9654C38.072 13.9654 37.4496 14.1104 36.9211 14.4002C36.3925 14.6901 35.9833 15.0993 35.6934 15.6279C35.4206 16.1394 35.2842 16.7447 35.2842 17.4438V20.0014C35.2842 20.7345 35.4206 21.3654 35.6934 21.894C35.9833 22.4055 36.384 22.7977 36.8955 23.0705C37.4241 23.3433 38.0549 23.4797 38.7881 23.4797ZM55.5156 25.7048C54.5607 25.7048 53.7082 25.4831 52.958 25.0398C52.2077 24.5795 51.6792 23.9571 51.3723 23.1728H51.1932L51.0398 25.4746H48.4566V6.82975H51.1932V14.2468H51.3723C51.6962 13.4624 52.2333 12.8486 52.9835 12.4053C53.7338 11.9449 54.5863 11.7148 55.5411 11.7148C56.7347 11.7148 57.7151 11.9876 58.4824 12.5332C59.2497 13.0618 59.8209 13.8376 60.196 14.8606C60.5881 15.8666 60.7842 17.0772 60.7842 18.4924V18.8504C60.7842 20.0099 60.6649 21.0244 60.4261 21.894C60.1874 22.7465 59.8379 23.4626 59.3775 24.0424C58.9172 24.605 58.363 25.0228 57.7151 25.2956C57.0842 25.5684 56.351 25.7048 55.5156 25.7048ZM54.5181 23.4797C55.2172 23.4797 55.814 23.3433 56.3084 23.0705C56.8029 22.7806 57.178 22.3799 57.4338 21.8684C57.7066 21.3398 57.843 20.709 57.843 19.9758V17.4438C57.843 16.6935 57.7066 16.0627 57.4338 15.5511C57.178 15.0396 56.8029 14.6475 56.3084 14.3747C55.814 14.1018 55.2172 13.9654 54.5181 13.9654C53.4951 13.9654 52.6852 14.2979 52.0884 14.9629C51.4916 15.6108 51.1932 16.4804 51.1932 17.5716V19.8479C51.1932 20.5811 51.3296 21.2205 51.6024 21.7661C51.8753 22.3117 52.2589 22.738 52.7534 23.0449C53.2478 23.3348 53.8361 23.4797 54.5181 23.4797ZM69.3843 25.7304C67.9691 25.7304 66.7926 25.449 65.8548 24.8864C64.9341 24.3237 64.2436 23.5223 63.7832 22.4822C63.3228 21.4421 63.0841 20.2145 63.0671 18.7993V18.697C63.0671 17.1113 63.3313 15.8069 63.8599 14.7839C64.3885 13.7438 65.1217 12.9765 66.0594 12.482C67.0143 11.9705 68.1226 11.7148 69.3843 11.7148C70.6461 11.7148 71.7458 11.9705 72.6836 12.482C73.6214 12.9765 74.3546 13.7438 74.8831 14.7839C75.4117 15.8069 75.676 17.1113 75.676 18.697V18.7993C75.676 20.2145 75.4458 21.4421 74.9854 22.4822C74.5251 23.5223 73.826 24.3237 72.8882 24.8864C71.9675 25.449 70.7995 25.7304 69.3843 25.7304ZM69.3843 23.4797C70.1175 23.4797 70.7398 23.3433 71.2514 23.0705C71.7799 22.7977 72.1806 22.4055 72.4534 21.894C72.7262 21.3654 72.8626 20.7345 72.8626 20.0014V17.4438C72.8626 16.7447 72.7177 16.1394 72.4279 15.6279C72.155 15.0993 71.7544 14.6901 71.2258 14.4002C70.7143 14.1104 70.1004 13.9654 69.3843 13.9654C68.6682 13.9654 68.0458 14.1104 67.5173 14.4002C66.9887 14.6901 66.5795 15.0993 66.2896 15.6279C66.0168 16.1394 65.8804 16.7447 65.8804 17.4438V20.0014C65.8804 20.7345 66.0168 21.3654 66.2896 21.894C66.5795 22.4055 66.9802 22.7977 67.4917 23.0705C68.0203 23.3433 68.6511 23.4797 69.3843 23.4797ZM83.2217 25.7304C82.0452 25.7304 81.0648 25.4576 80.2805 24.9119C79.4961 24.3663 78.9079 23.5905 78.5157 22.5845C78.1406 21.5785 77.9531 20.3679 77.9531 18.9527V18.5691C77.9531 17.4097 78.0724 16.4037 78.3111 15.5511C78.5498 14.6986 78.8994 13.991 79.3597 13.4283C79.8201 12.8486 80.3742 12.4224 81.0222 12.1495C81.6871 11.8597 82.4203 11.7148 83.2217 11.7148C84.1936 11.7148 85.0461 11.9449 85.7793 12.4053C86.5295 12.8486 87.0666 13.4624 87.3906 14.2468H87.5696L87.6975 11.9705H90.3062V25.4746H87.5696V23.2239H87.3906C87.0496 23.9742 86.5039 24.5795 85.7537 25.0398C85.0205 25.5002 84.1765 25.7304 83.2217 25.7304ZM84.2447 23.4797C85.2678 23.4797 86.0692 23.1557 86.6489 22.5078C87.2456 21.8428 87.544 20.9647 87.544 19.8735V17.5972C87.544 16.847 87.4076 16.2076 87.1348 15.679C86.8791 15.1334 86.5039 14.7157 86.0095 14.4258C85.515 14.1189 84.9268 13.9654 84.2447 13.9654C83.5457 13.9654 82.9489 14.1018 82.4544 14.3747C81.96 14.6475 81.5763 15.0482 81.3035 15.5767C81.0307 16.1053 80.8943 16.7362 80.8943 17.4693V20.0014C80.8943 20.7345 81.0307 21.3569 81.3035 21.8684C81.5763 22.3799 81.96 22.7806 82.4544 23.0705C82.9489 23.3433 83.5457 23.4797 84.2447 23.4797ZM94.7381 25.4746V14.3491C94.7381 13.5988 94.9597 13.0191 95.403 12.6099C95.8464 12.1836 96.4261 11.9705 97.1422 11.9705H102.667V14.2212H97.4747V25.4746H94.7381ZM109.572 25.7048C108.395 25.7048 107.415 25.432 106.631 24.8864C105.846 24.3407 105.258 23.5564 104.866 22.5334C104.491 21.5103 104.303 20.2827 104.303 18.8504V18.4924C104.303 17.3329 104.423 16.3269 104.661 15.4744C104.9 14.6219 105.25 13.9228 105.71 13.3772C106.17 12.8145 106.724 12.3968 107.372 12.124C108.02 11.8512 108.753 11.7148 109.572 11.7148C110.527 11.7148 111.371 11.9449 112.104 12.4053C112.854 12.8486 113.4 13.4624 113.741 14.2468H113.92V6.82975H116.656V25.4746H114.048L113.92 23.1728H113.741C113.417 23.9571 112.88 24.5795 112.129 25.0398C111.396 25.4831 110.544 25.7048 109.572 25.7048ZM110.595 23.4797C111.618 23.4797 112.419 23.1557 112.999 22.5078C113.596 21.8428 113.894 20.9562 113.894 19.8479V17.5716C113.894 16.8385 113.758 16.2076 113.485 15.679C113.229 15.1334 112.854 14.7157 112.36 14.4258C111.865 14.1189 111.277 13.9654 110.595 13.9654C109.896 13.9654 109.299 14.1018 108.805 14.3747C108.31 14.6475 107.927 15.0396 107.654 15.5511C107.381 16.0627 107.244 16.6935 107.244 17.4438V19.9758C107.244 20.709 107.381 21.3398 107.654 21.8684C107.927 22.3799 108.31 22.7806 108.805 23.0705C109.299 23.3433 109.896 23.4797 110.595 23.4797ZM125.563 25.7304C124.353 25.7304 123.33 25.5428 122.494 25.1677C121.659 24.7926 121.028 24.2725 120.602 23.6076C120.175 22.9255 119.962 22.1412 119.962 21.2546H122.597C122.614 22.1583 122.904 22.8147 123.466 23.2239C124.029 23.6161 124.762 23.8122 125.666 23.8122C126.586 23.8122 127.26 23.6246 127.686 23.2495C128.113 22.8744 128.326 22.414 128.326 21.8684C128.326 21.4421 128.257 21.1011 128.121 20.8454C127.985 20.5726 127.78 20.3594 127.507 20.206C127.234 20.0525 126.893 19.9332 126.484 19.8479C126.092 19.7456 125.623 19.6433 125.078 19.541C124.549 19.4728 124.003 19.3705 123.441 19.2341C122.895 19.0806 122.384 18.8675 121.906 18.5947C121.446 18.3048 121.071 17.9382 120.781 17.4949C120.508 17.0346 120.372 16.4548 120.372 15.7558C120.372 14.8862 120.585 14.153 121.011 13.5562C121.454 12.9424 122.068 12.482 122.852 12.1751C123.654 11.8682 124.557 11.7148 125.563 11.7148C126.621 11.7148 127.533 11.8853 128.3 12.2263C129.084 12.5502 129.698 13.0277 130.142 13.6585C130.585 14.2723 130.815 15.0055 130.832 15.8581L128.223 15.8325C128.223 15.338 128.113 14.9288 127.891 14.6048C127.669 14.2638 127.354 14.0081 126.945 13.8376C126.552 13.6671 126.084 13.5818 125.538 13.5818C124.702 13.5818 124.08 13.7523 123.671 14.0933C123.262 14.4343 123.057 14.8862 123.057 15.4488C123.057 15.9263 123.193 16.3014 123.466 16.5742C123.756 16.8299 124.131 17.0175 124.592 17.1369C125.069 17.2562 125.589 17.3585 126.152 17.4438C126.748 17.512 127.337 17.6228 127.916 17.7763C128.513 17.9127 129.05 18.1258 129.528 18.4157C130.022 18.6885 130.406 19.0806 130.679 19.5921C130.969 20.1037 131.113 20.7686 131.113 21.5871C131.113 22.4737 130.883 23.2239 130.423 23.8377C129.98 24.4516 129.34 24.9205 128.505 25.2444C127.686 25.5684 126.706 25.7304 125.563 25.7304Z" fill="white"/>
</svg>
