<svg width="125" height="50" viewBox="0 0 125 50" fill="none" xmlns="http://www.w3.org/2000/svg">
<g clip-path="url(#clip0_2278_2973)">
<path d="M97.5921 33.5909C97.4371 33.4548 97.2365 33.4895 97.0576 33.4584C95.5105 33.1861 94.7442 32.3821 94.548 30.8206C94.4726 30.2201 94.4661 29.6182 94.4668 29.0156C94.4705 25.9041 94.4726 22.7926 94.4799 19.6803C94.4813 19.1241 94.5516 18.5744 94.7059 18.0391C95.0347 16.8955 95.8625 16.3515 96.9794 16.1437C97.2322 16.0966 97.5016 16.1357 97.737 16.001H113.741C113.96 16.1386 114.217 16.0988 114.454 16.1379C115.856 16.3696 116.586 17.0729 116.875 18.473C116.909 18.6374 116.86 18.83 116.999 18.9691V30.696C116.86 30.8061 116.899 30.9777 116.87 31.1182C116.591 32.4734 115.863 33.1948 114.523 33.4425C114.262 33.491 113.987 33.4664 113.741 33.5917H97.5921V33.5909ZM105.722 30.2013V30.1991C107.954 30.1991 110.185 30.1955 112.417 30.2042C112.653 30.2049 112.746 30.1716 112.745 29.9007C112.735 26.464 112.736 23.0273 112.743 19.5905C112.743 19.3508 112.698 19.2617 112.431 19.2624C107.98 19.2718 103.529 19.2718 99.0776 19.2646C98.8198 19.2646 98.7293 19.311 98.73 19.5949C98.7408 23.0193 98.7423 26.4444 98.7293 29.8688C98.7278 30.1817 98.8451 30.2064 99.0994 30.2056C101.307 30.1977 103.515 30.2013 105.722 30.2013Z" fill="white"/>
<path d="M12.3603 33.5907H8.08776C8.08341 33.5067 8.07617 33.4227 8.07617 33.3386C8.07617 27.6429 8.07617 21.9478 8.07617 16.2521C8.07617 16.168 8.08414 16.084 8.08776 16H12.3603C12.3567 18.1084 12.3603 20.2175 12.34 22.3259C12.3371 22.633 12.4472 22.6649 12.7065 22.6649C16.8176 22.6576 20.9286 22.6598 25.0389 22.6598C25.3972 22.6598 25.5766 22.4741 25.5771 22.1028C25.5771 20.1987 25.5771 18.2945 25.5785 16.3904C25.5785 16.26 25.5459 16.1253 25.6118 16H29.8119C29.875 16.113 29.8453 16.2361 29.8453 16.3542C29.8467 21.9811 29.8467 27.6088 29.8453 33.2358C29.8453 33.3538 29.875 33.477 29.8119 33.59H25.6118C25.5459 33.4647 25.5792 33.3292 25.5785 33.1989C25.5763 30.9796 25.5778 28.7604 25.5756 26.5412C25.5756 26.3761 25.6459 26.1871 25.3315 26.1878C21.0843 26.1972 16.8378 26.195 12.5906 26.19C12.4067 26.19 12.3444 26.2298 12.3451 26.4268C12.3552 28.8148 12.3567 31.202 12.3596 33.59L12.3603 33.5907Z" fill="white"/>
<path d="M48.0609 16C50.9856 20.9751 53.9109 25.9502 56.8356 30.9261C57.3057 31.7257 57.7757 32.526 58.2443 33.3263C58.2921 33.4082 58.3566 33.4857 58.3436 33.5907H54.071C54.092 33.4705 54.0138 33.3857 53.9624 33.293C51.7055 29.1892 49.4472 25.0854 47.1881 20.9831C46.8716 20.408 46.5479 19.8358 46.198 19.2093C46.0959 19.3882 46.0235 19.5099 45.9554 19.6337C44.2063 22.8075 42.4557 25.9814 40.7094 29.1566C39.8975 30.6327 39.0928 32.1132 38.2845 33.5914H34.0844C34.0091 33.4661 34.1177 33.3908 34.1684 33.3046C36.9822 28.5164 39.7983 23.7296 42.6143 18.9428C43.1394 18.0497 43.663 17.156 44.1853 16.2615C44.2323 16.1803 44.3048 16.1072 44.2953 16.0007C45.5505 16.0007 46.8057 16.0007 48.0609 16.0007V16Z" fill="#0498C1"/>
<path d="M77.3157 16C77.252 16.113 77.2824 16.2361 77.2824 16.3542C77.2809 20.873 77.2845 25.3925 77.2737 29.9113C77.273 30.217 77.3526 30.28 77.6489 30.2793C81.9526 30.2684 86.2563 30.2764 90.5599 30.2633C90.8873 30.2626 90.9569 30.3502 90.9489 30.6624C90.9235 31.638 90.933 32.6136 90.9293 33.59H72.9707V16H77.3157Z" fill="white"/>
<path d="M66.8175 16V33.5907H62.5449C62.5485 33.23 62.5543 32.8686 62.5543 32.5079C62.5543 27.1496 62.5543 21.7914 62.5543 16.4338C62.5543 16.2897 62.5478 16.1449 62.5449 16.0007C63.9689 16.0007 65.3935 16.0007 66.8175 16.0007V16Z" fill="#0498C1"/>
<path d="M8.08793 16.0001C8.08358 16.0841 8.07634 16.1682 8.07634 16.2522C8.07634 21.9479 8.07634 27.643 8.07634 33.3388C8.07634 33.4228 8.08431 33.5068 8.08793 33.5908C7.94524 33.6017 8.01912 33.4916 8.01912 33.4467C8.0155 27.6792 8.0155 21.9125 8.01912 16.145C8.01912 16.0994 7.94524 15.9893 8.08793 16.0008V16.0001Z" fill="#0498C1"/>
</g>
<defs>
<clipPath id="clip0_2278_2973">
<rect width="120" height="32" fill="white" transform="translate(3 9)"/>
</clipPath>
</defs>
</svg>
