<svg width="128" height="33" viewBox="0 0 128 33" fill="none" xmlns="http://www.w3.org/2000/svg">
<g clip-path="url(#clip0_2216_4246)">
<path d="M23.8233 0.661865V12.6916H7.65219V0.661865H0.470001V31.8207H7.65219V17.3609H23.8233V31.8207H31.0054V0.661865H23.8233Z" fill="#193964"/>
<path d="M51.5153 0.00012207C44.0786 0.00012207 38.0479 1.41239 38.0479 3.14909C38.0479 4.88579 44.0786 6.29806 51.5153 6.29806C58.9519 6.29806 64.9827 4.88579 64.9827 3.14909C64.9827 1.41239 58.9519 0.00012207 51.5153 0.00012207ZM51.5153 4.70131C45.4782 4.70131 40.5861 3.79797 40.5861 2.67833C40.5861 1.5587 45.4782 0.655362 51.5153 0.655362C57.5524 0.655362 62.4444 1.5587 62.4444 2.67833C62.4444 3.79797 57.5524 4.70131 51.5153 4.70131Z" fill="#193964"/>
<path d="M55.612 8.65198H47.711L36.0375 31.8207H42.7744L45.3763 26.6106H57.6795L59.9251 31.8207H67.3809L55.6184 8.65198H55.612ZM47.3229 22.7492L51.5152 14.0084L55.8856 22.7492H47.3229Z" fill="#193964"/>
<path d="M78.4245 27.3931V8.65198H72.1393V31.8207H78.4245H95.13V27.3931H78.4245Z" fill="#193964"/>
<path d="M112.077 7.7804C103.279 7.7804 96.1542 13.3658 96.1542 20.249C96.1542 27.1322 103.285 32.7177 112.077 32.7177C120.869 32.7177 128 27.1322 128 20.249C128 13.3658 120.869 7.7804 112.077 7.7804ZM112.077 28.6526C106.95 28.6526 102.796 24.893 102.796 20.2554C102.796 15.6178 106.95 11.8581 112.077 11.8581C117.205 11.8581 121.359 15.6178 121.359 20.2554C121.359 24.893 117.205 28.6526 112.077 28.6526Z" fill="#193964"/>
</g>
<defs>
<clipPath id="clip0_2216_4246">
<rect width="127.53" height="32.7238" fill="white" transform="translate(0.469727)"/>
</clipPath>
</defs>
</svg>
