<svg width="116" height="9" viewBox="0 0 116 9" fill="none" xmlns="http://www.w3.org/2000/svg">
<path d="M6.9391 0.0255013V3.0869H4.48999V0.0255013H0V8.1892H4.48999V5.1278H6.9391V8.1892H11.4291V0.0255013H6.9391ZM21.0468 8.1892H25.5368L22.552 0.0255013H15.0262L12.0413 8.1892H16.5313L16.914 7.1687H20.6642L21.0468 8.1892ZM17.6538 5.1278L18.8018 2.0154L19.9243 5.1278H17.6538ZM50.0277 8.1892H54.5177L51.5584 0.0255013H44.0326L41.0477 8.1892H45.5377L45.9204 7.1687H49.6706L50.0277 8.1892ZM46.6602 5.1278L47.7827 2.0154L48.9307 5.1278H46.6602ZM79.0341 8.1892H83.5241L80.5648 0.0255013H73.0134L70.0541 8.1892H74.5441L74.9268 7.1687H78.6769L79.0341 8.1892ZM75.6666 5.1278L76.7891 2.0154L77.9371 5.1278H75.6666ZM92.1214 0.0255013H81.8914V2.0664H84.7486V8.1892H89.2386V2.0664H92.1214V0.0255013ZM35.4097 0.0255013L33.2923 4.5921L31.1493 0.0255013H26.1491V8.1892H30.6391V4.6941L32.2718 8.1892H34.3127L35.9455 4.7196V8.1892H40.4355V0.0255013H35.4097ZM64.4416 0.0255013L62.2987 4.5921L60.1557 0.0255013H55.1555V8.1892H59.6455V4.6941L61.2782 8.1892H63.3191L64.9518 4.7196V8.1892H69.4418V0.0255013H64.4416ZM101.51 2.8828H97.81C97.249 2.8828 97.02 2.6022 97.02 2.2705C97.02 1.9389 97.275 1.6583 97.836 1.6583C98.397 1.6583 98.627 1.9134 98.652 2.245H103.576C103.576 0.790901 102.76 0 101.127 0H95.387C93.3459 0 92.5296 1.4287 92.5296 2.6532C92.5296 3.8777 93.1419 5.3064 94.9787 5.3064H98.219C98.78 5.3064 99.035 5.587 99.035 5.9186C99.035 6.2503 98.78 6.5309 98.219 6.5309C97.657 6.5309 97.428 6.2758 97.402 5.9442H92.5296C92.5296 7.3728 93.3459 8.1892 94.9787 8.1892H101.101C103.601 8.1892 103.959 6.786 103.959 5.536C103.959 4.3114 103.55 2.8828 101.51 2.8828ZM111.51 0.0255013V5.3319C111.51 5.6567 111.381 5.9681 111.151 6.1978C110.922 6.4274 110.61 6.5564 110.285 6.5564C109.961 6.5564 109.649 6.4274 109.42 6.1978C109.19 5.9681 109.061 5.6567 109.061 5.3319V0.0255013H104.571V5.3319C104.571 7.3728 106.612 8.1892 109.061 8.1892H111.51C113.959 8.1892 116 7.3728 116 5.3319V0.0255013H111.51Z" fill="white"/>
</svg>
