<svg width="107" height="67" viewBox="0 0 107 67" fill="none" xmlns="http://www.w3.org/2000/svg">
<path d="M43.054 10.5112C43.054 8.83945 43.0859 7.40485 43.0403 5.97025C43.0198 5.36129 43.2045 5.01005 43.745 4.70671C46.393 3.2265 49.0273 1.71891 51.6433 0.186244C52.1109 -0.0874478 52.4302 -0.0441133 52.8749 0.215893C55.4978 1.74172 58.1321 3.24474 60.7801 4.72496C61.2773 5.00321 61.462 5.32708 61.4506 5.89271C61.4164 7.58503 61.4392 9.27736 61.4392 11.143C63.0699 10.2079 64.5524 9.38227 66.0076 8.5133C66.4797 8.23049 66.8446 8.19628 67.3532 8.47453C70.1129 9.98667 72.8863 11.4737 75.6803 12.9174C76.3508 13.2641 76.3234 13.515 75.9243 14.0715C73.7804 17.0639 71.7003 20.1018 69.5382 23.0805C69.0729 23.7237 69.0432 24.2255 69.3238 24.9325C72.0219 31.7269 74.6722 38.5418 77.3817 45.3316C77.6896 46.1002 77.5687 46.4127 76.8434 46.7776C74.102 48.1598 71.3833 49.5875 68.6852 51.0563C68.026 51.4144 67.5608 51.3711 66.929 51.0016C64.411 49.5259 61.868 48.0868 59.2998 46.6978C58.6088 46.3238 58.2074 45.8425 57.9656 45.1218C57.5801 43.9723 57.1057 42.8547 56.7294 41.7029C56.5127 41.0438 56.2368 40.9868 55.6894 41.3517C55.0576 41.7714 54.3301 42.0519 53.7325 42.5103C52.6811 43.32 51.7551 43.2721 50.6945 42.4875C49.8164 41.8375 48.7696 41.4201 47.8573 40.8112C46.9404 40.1976 46.8378 40.5625 46.8651 41.4361C46.913 42.8387 46.856 44.246 46.8902 45.6509C46.9016 46.1732 46.7351 46.4606 46.2699 46.7229C43.59 48.2259 40.926 49.7563 38.2758 51.3095C37.8128 51.5809 37.4866 51.5421 37.0465 51.2844C34.4259 49.7563 31.7939 48.2464 29.1482 46.7639C28.6487 46.4834 28.4799 46.1687 28.4822 45.603C28.4982 35.1594 28.5004 24.7181 28.4799 14.2745C28.4799 13.6519 28.6852 13.3417 29.2166 13.0452C32.0311 11.4737 34.8318 9.8772 37.603 8.23505C38.1914 7.88609 38.5974 7.94539 39.1334 8.27154C40.3581 9.01507 41.6171 9.6993 43.0585 10.5204L43.054 10.5112ZM37.1445 21.3745C37.1445 17.7663 37.1194 14.3885 37.1605 11.013C37.1719 10.0437 36.921 10.0095 36.1661 10.4565C34.2434 11.5992 32.2979 12.7008 30.3433 13.7864C29.8484 14.0601 29.6659 14.3817 29.6682 14.9519C29.6842 24.4034 29.6864 33.8571 29.6636 43.3086C29.6636 44.1616 29.8963 44.1912 30.5463 43.8081C32.4416 42.6951 34.3392 41.5843 36.2687 40.5329C36.8845 40.1976 37.1217 39.8145 37.1103 39.112C37.0715 36.683 37.327 34.2243 37.0328 31.8318C36.6861 28.9945 37.6531 27.3068 40.2851 26.2918C41.6308 25.7741 42.835 24.896 44.2856 24.0772V35.9189C46.5025 34.6485 48.5415 33.4283 50.6352 32.3108C51.4175 31.8934 51.6661 31.403 51.6639 30.5295C51.6319 21.3426 51.6433 12.1557 51.6388 2.96877C51.6388 2.57648 51.6046 2.18419 51.5795 1.64137C49.1892 3.01211 46.97 4.3053 44.7258 5.55515C44.1989 5.84937 44.2605 6.26903 44.2605 6.71834C44.2605 9.94562 44.2628 13.1706 44.2582 16.3979C44.2582 16.8335 44.3609 17.2669 43.8203 17.5679C41.6422 18.7767 39.4891 20.0311 37.1445 21.3722V21.3745ZM75.3724 44.3007C75.5936 43.7875 75.2674 43.4409 75.126 43.0805C72.7267 36.9111 70.3273 30.7416 67.8801 24.5904C67.6064 23.9016 67.652 23.434 68.0671 22.8433C70.0285 20.0494 71.917 17.2053 73.8944 14.425C74.4008 13.7134 74.2434 13.4511 73.5478 13.1045C71.6821 12.1762 69.821 11.232 68.0101 10.2033C67.1548 9.71754 66.7009 9.8407 66.0669 10.6025C64.2377 12.8011 62.2899 14.8994 60.2144 17.2326C60.2144 14.5687 60.2327 12.1876 60.2076 9.80421C60.1916 8.48137 60.6934 6.91221 60.016 5.90639C59.3477 4.91198 57.863 4.44899 56.7066 3.80581C55.4704 3.11702 54.3004 2.2891 52.9548 1.76225C52.9114 1.92646 52.8727 1.99945 52.8727 2.07243C52.8635 11.7178 52.8567 21.3654 52.8498 31.0107C52.8498 31.3551 52.8407 31.7178 53.1897 31.9185C55.4773 33.2322 57.7672 34.5413 60.2144 35.9394V22.0314C60.5178 22.3324 60.6683 22.6609 60.8006 22.9984C62.8898 28.3171 64.9721 33.6382 67.0681 38.9523C67.2688 39.4632 67.3532 40.0539 67.9325 40.3573C70.4117 41.6596 72.884 42.9779 75.3746 44.3007H75.3724ZM44.2765 37.3398C46.8971 38.8337 49.3877 40.2455 51.8691 41.6778C52.1861 41.8603 52.4165 41.8033 52.7039 41.6391C55.158 40.2273 57.6166 38.8269 60.2121 37.3421C57.5961 35.8368 55.1078 34.4068 52.6218 32.9745C52.3709 32.8308 52.1337 32.8171 51.8737 32.9676C49.3854 34.4022 46.8971 35.8345 44.2765 37.3398ZM29.7549 45.6555C32.3641 47.1494 34.7953 48.527 37.2084 49.9342C37.66 50.1965 37.9724 50.03 38.3465 49.8133C39.6534 49.0493 40.9716 48.3057 42.2854 47.5531C43.3505 46.9418 44.4179 46.3306 45.5993 45.6509C43.0152 44.1707 40.6158 42.8068 38.2279 41.4178C37.8652 41.208 37.5824 41.1419 37.1947 41.3699C34.7794 42.7794 32.3481 44.1639 29.7549 45.6555ZM60.5885 45.9839C62.9148 47.2885 65.0724 48.4791 67.205 49.713C67.7044 50.0026 68.0808 49.941 68.5552 49.6902C70.1289 48.8508 71.7231 48.0548 73.306 47.2383C74.086 46.8369 74.8592 46.4241 75.7966 45.9337C73.1509 44.5265 70.7105 43.2333 68.2769 41.9264C67.9394 41.744 67.6657 41.7235 67.3304 41.9264C65.1295 43.2607 62.9217 44.5835 60.5839 45.9885L60.5885 45.9839Z" fill="#1C1E1F"/>
<path d="M85.175 63.9793C85.175 61.4568 85.2366 59.2331 85.1477 57.0139C85.1066 55.9807 85.508 55.8667 86.3816 55.8712C87.2255 55.8758 87.5607 56.0263 87.5379 56.9774C87.4672 59.8238 87.4855 62.6724 87.5311 65.5211C87.5425 66.2806 87.2916 66.3855 86.5823 66.4859C84.6163 66.7687 83.4964 66.0776 82.7301 64.1983C81.8634 62.0726 80.6363 60.0952 79.553 58.0288C79.1789 58.2637 79.35 58.5945 79.3477 58.8522C79.3317 61.1307 79.2953 63.4114 79.3568 65.6876C79.3842 66.6775 78.7547 66.4745 78.2415 66.4334C77.7443 66.3946 76.978 66.8348 76.994 65.7104C77.0396 62.6724 77.0213 59.6345 76.9985 56.5965C76.994 56.0491 77.165 55.821 77.7101 55.8986C77.7466 55.9031 77.7854 55.8986 77.8242 55.8986C79.7111 55.8347 81.1039 56.6436 82.0025 58.3253C82.9308 60.0633 83.8636 61.8012 84.7964 63.5369C84.8284 63.5984 84.8877 63.6441 85.175 63.977V63.9793Z" fill="white"/>
<path d="M30.1038 61.295C31.3377 61.5231 31.6387 62.4012 31.7665 63.4526C31.8851 64.4265 32.0014 65.4095 32.3754 66.3355C29.7275 66.7346 29.6978 66.7118 29.4127 64.2076C29.2052 62.3807 27.6451 61.498 25.9163 62.2073C25.5035 62.3761 25.6267 62.6931 25.6221 62.9691C25.6084 63.8814 25.5788 64.7937 25.6289 65.7037C25.6632 66.3241 25.4282 66.4541 24.8512 66.4609C23.1315 66.486 23.1315 66.5134 23.1292 64.8188C23.1292 62.1594 23.152 59.5001 23.1133 56.843C23.1019 56.1177 23.2706 55.8417 24.0529 55.8805C25.4944 55.9512 26.9404 55.9056 28.3841 55.9079C29.1139 55.9079 29.8187 56.0379 30.4961 56.3024C31.5224 56.7016 32.0949 57.4519 32.1245 58.5513C32.1519 59.5959 31.641 60.3485 30.7287 60.8548C30.5417 60.9598 30.2566 60.8731 30.1038 61.2927V61.295ZM26.9769 60.4831C27.4079 60.4534 27.8299 60.4671 28.2336 60.3896C28.9794 60.2459 29.4583 59.8285 29.4583 59.0029C29.4583 58.1544 28.9611 57.7667 28.1948 57.6937C27.5197 57.6298 26.8377 57.6435 26.1581 57.6276C25.9665 57.623 25.686 57.6412 25.6746 57.8237C25.6312 58.6129 25.5081 59.4385 25.686 60.1866C25.8251 60.7636 26.5504 60.3234 26.9746 60.4831H26.9769Z" fill="white"/>
<path d="M33.9788 61.0758C33.9788 59.5955 33.9788 58.1176 33.9788 56.6374C33.9788 56.2656 33.8921 55.8619 34.5125 55.8916C36.328 55.9828 38.1594 55.7023 39.959 56.0969C42.559 56.667 43.8249 58.3708 43.8135 61.2149C43.802 63.9814 42.5203 65.6783 39.9863 66.2417C38.148 66.6499 36.2801 66.3694 34.4281 66.4492C33.8648 66.4743 33.9834 66.0592 33.9834 65.7422C33.9765 64.1867 33.9811 62.6312 33.9811 61.078L33.9788 61.0758ZM36.4762 61.0963C36.4762 62.0816 36.4717 63.0691 36.4808 64.0544C36.4808 64.3008 36.4033 64.5653 36.7591 64.7067C37.9268 65.1697 40.2213 64.3509 40.7823 63.2448C42.3013 60.2547 40.5793 57.52 37.2563 57.609C36.6861 57.625 36.4329 57.7413 36.4648 58.3662C36.5127 59.274 36.4762 60.1863 36.4762 61.0963Z" fill="white"/>
<path d="M73.0756 61.1486C75.5707 62.2867 74.4167 64.7408 75.4385 66.3601C73.6671 66.5426 72.6498 65.7686 72.3868 64.0383C72.145 62.444 70.3136 61.4975 68.8676 62.2045C68.5802 62.3437 68.6532 62.5718 68.6486 62.7747C68.635 63.4567 68.6441 64.1409 68.6441 64.8229C68.6441 66.424 68.0693 66.8436 66.4956 66.4582C66.1124 66.3647 66.1352 66.1457 66.1352 65.8834C66.1352 62.736 66.1444 59.5862 66.1261 56.4388C66.1238 55.9484 66.3451 55.8823 66.7442 55.8891C68.489 55.9142 70.2383 55.8503 71.9785 55.953C74.0404 56.0739 75.1465 57.1093 75.1123 58.6831C75.0849 59.9648 74.289 60.6468 73.0733 61.144L73.0756 61.1486ZM70.3546 57.6179C69.2143 57.6179 68.6441 58.0999 68.6441 59.0639C68.6441 59.3673 68.6509 59.6683 68.6441 59.9717C68.635 60.2864 68.7399 60.4735 69.0957 60.4621C69.8141 60.437 70.5394 60.4803 71.2464 60.3868C72.0059 60.2864 72.478 59.7983 72.4803 59.0001C72.4803 58.1767 71.9831 57.7753 71.2054 57.6864C70.8313 57.643 70.4527 57.6248 70.3569 57.6179H70.3546Z" fill="white"/>
<path d="M9.41505 61.0664C9.41505 62.5854 9.38996 64.1021 9.42874 65.6211C9.4447 66.2346 9.30786 66.4695 8.63047 66.4695C6.92902 66.4695 6.95411 66.506 6.9199 64.8114C6.89937 63.8421 7.35781 62.5534 6.71007 61.9969C6.15813 61.5202 4.89915 61.9171 3.96632 61.8122C2.82366 61.6822 2.28996 62.0129 2.49523 63.2445C2.57505 63.7235 2.50891 64.2298 2.50891 64.7224C2.50891 66.6656 2.50891 66.6451 0.55886 66.4695C0.0935848 66.4284 0.00235428 66.262 0.00463504 65.8514C0.0160388 62.7405 0.0228811 59.6272 7.35192e-05 56.5163C-0.004488 55.9894 0.203061 55.8662 0.666056 55.9005C1.04238 55.9278 1.42783 55.9324 1.80416 55.9005C2.35154 55.8503 2.57733 56.0624 2.51347 56.612C2.4861 56.8356 2.49523 57.0682 2.51347 57.294C2.57961 58.1903 2.16452 59.6956 2.67084 59.8621C3.86824 60.2567 5.27319 60.04 6.59375 60.0423C7.01341 60.0423 6.89025 59.6751 6.89481 59.4379C6.90622 58.5279 6.94271 57.6133 6.88569 56.7056C6.84236 56.0282 7.10692 55.8183 7.73185 55.9027C7.91887 55.9278 8.11502 55.9301 8.29976 55.9027C9.13908 55.7796 9.51085 56.0213 9.4447 56.9747C9.35119 58.334 9.4219 59.7048 9.4219 61.0709L9.41505 61.0664Z" fill="white"/>
<path d="M56.2756 61.1826C56.2756 59.7046 56.2984 58.2244 56.2641 56.7465C56.2505 56.1489 56.3577 55.8707 57.0556 55.8844C59.1402 55.93 61.2294 55.9323 63.314 55.8844C64.0347 55.8684 64.0894 56.1877 64.0872 56.7625C64.0849 57.3349 64.0279 57.677 63.3094 57.6451C62.0983 57.5881 60.8804 57.6588 59.6693 57.6155C59.0079 57.5904 58.7388 57.7523 58.7411 58.4821C58.7479 60.1106 58.7046 60.1106 60.3558 60.1129C61.1906 60.1129 62.0299 60.1676 62.8578 60.0969C63.6082 60.0331 63.7177 60.3501 63.7314 61.0047C63.745 61.698 63.5671 61.9352 62.8487 61.8896C61.7904 61.8257 60.7208 61.9284 59.6648 61.8554C58.8779 61.8007 58.7342 62.104 58.7433 62.8156C58.7684 64.7132 58.7365 64.7132 60.6683 64.7063C61.5783 64.7041 62.4929 64.752 63.3984 64.6904C64.151 64.6379 64.2673 64.9686 64.2673 65.6209C64.2673 66.2573 64.0963 66.4739 63.4371 66.4625C61.3138 66.4238 59.1881 66.4192 57.0647 66.4648C56.3805 66.4785 56.2505 66.2253 56.2641 65.6164C56.3006 64.1384 56.2756 62.6582 56.2756 61.1803V61.1826Z" fill="white"/>
<path d="M54.8364 56.0121C53.5751 57.4079 52.4096 58.7376 51.1963 60.024C50.7721 60.4733 50.7743 60.7721 51.1666 61.2487C52.5328 62.9046 53.8488 64.5992 55.3176 66.4489C54.2799 66.4489 53.4611 66.4261 52.6423 66.458C52.161 66.4762 51.99 66.141 51.7665 65.8422C50.6261 64.3278 49.488 62.8111 48.1401 61.0161C48.1401 62.7244 48.058 64.1407 48.1674 65.5457C48.2518 66.6382 47.5995 66.4922 46.9769 66.4397C46.4067 66.3919 45.5856 66.8434 45.6175 65.5936C45.6905 62.6332 45.6609 59.6682 45.6267 56.7055C45.6198 56.044 45.8297 55.8867 46.4637 55.8844C48.1446 55.8844 48.1446 55.8502 48.1446 57.5448C48.1446 58.343 48.1446 59.139 48.1446 59.9373C48.1446 60.008 48.1652 60.0787 48.2153 60.3957C49.1527 59.2987 50.122 58.4001 50.7971 57.3167C51.787 55.7293 53.1509 55.7293 54.8364 56.0121Z" fill="white"/>
<path d="M89.4058 61.146C89.4058 59.6658 89.4378 58.1833 89.3922 56.7053C89.3716 56.0508 89.5815 55.8751 90.2224 55.8865C92.3093 55.9253 94.4007 55.9299 96.4876 55.8843C97.1513 55.8706 97.2403 56.1534 97.206 56.6848C97.1764 57.1638 97.3269 57.6861 96.5058 57.6405C95.4453 57.5812 94.3733 57.6952 93.3196 57.6062C92.2363 57.5127 91.8029 57.7591 91.8645 58.9793C91.9124 59.9395 92.1428 60.2109 93.0756 60.131C94.0928 60.0444 95.1283 60.1584 96.1478 60.0968C96.9141 60.0512 96.8799 60.4777 96.9004 61.0114C96.9232 61.5953 96.8434 61.9237 96.125 61.8872C94.9504 61.8279 93.7712 61.8986 92.5943 61.8576C92.0378 61.8393 91.9124 62.0286 91.8942 62.5623C91.8212 64.7062 91.8006 64.7062 93.8921 64.704C94.8409 64.704 95.792 64.7405 96.7385 64.6926C97.4729 64.6561 97.3976 65.1122 97.3862 65.5729C97.3771 66.0063 97.5345 66.4738 96.7636 66.4601C94.5239 66.4191 92.2819 66.4259 90.0422 66.4601C89.4241 66.4693 89.3899 66.1773 89.3967 65.7007C89.4172 64.1817 89.4036 62.665 89.4036 61.146H89.4058Z" fill="white"/>
<path d="M21.9273 66.4102C21.5555 66.4262 21.2886 66.4102 21.0309 66.4559C19.8404 66.668 19.0923 66.278 18.9075 65.003C18.8186 64.3963 18.4628 64.109 17.7945 64.1888C17.2334 64.2549 16.6519 64.264 16.0908 64.1888C14.6722 64.004 13.5683 64.2481 13.3174 65.913C13.2581 66.3144 13.0095 66.4741 12.5989 66.4559C12.0402 66.4308 11.4814 66.449 10.7766 66.449C11.2031 65.3451 11.5703 64.3621 11.9603 63.3882C12.827 61.2101 13.7325 59.0479 14.5558 56.8561C14.8158 56.1673 15.1009 55.8503 15.9083 55.8754C17.9154 55.9393 17.9177 55.8891 18.6475 57.8004C19.7354 60.649 20.8188 63.5 21.9273 66.4102ZM16.3554 57.8984C15.7441 59.5315 15.215 60.941 14.6379 62.485C15.6346 62.485 16.4968 62.4645 17.3566 62.4919C17.8766 62.5079 17.9336 62.2889 17.7831 61.8738C17.3338 60.6308 16.8891 59.3855 16.3554 57.8984Z" fill="white"/>
<path d="M99.4321 61.0645C99.4321 59.6253 99.4777 58.1839 99.4139 56.747C99.3819 56.008 99.6488 55.7982 100.317 55.8962C100.465 55.9168 100.623 55.9236 100.771 55.8985C101.672 55.7457 102.005 56.024 101.966 57.0207C101.877 59.29 101.968 61.5662 101.923 63.8379C101.909 64.5381 102.098 64.7547 102.803 64.7205C103.975 64.6635 105.152 64.741 106.327 64.6954C107.064 64.6658 106.981 65.1151 106.975 65.5758C106.968 66.016 107.111 66.4767 106.35 66.4607C104.265 66.4197 102.18 66.4288 100.096 66.4607C99.5142 66.4699 99.4139 66.2327 99.423 65.724C99.4504 64.1708 99.4321 62.6176 99.4321 61.0645Z" fill="white"/>
<path d="M37.1445 21.3744C39.4891 20.0333 41.6421 18.7789 43.8203 17.5701C44.3608 17.2713 44.2559 16.8357 44.2582 16.4001C44.2627 13.1728 44.2605 9.94781 44.2605 6.72053C44.2605 6.2735 44.1989 5.85156 44.7257 5.55734C46.97 4.30748 49.1892 3.01201 51.5794 1.64355C51.6045 2.18409 51.6387 2.57639 51.6387 2.97096C51.6433 12.1579 51.6296 21.3448 51.6638 30.5317C51.6661 31.4029 51.4198 31.8933 50.6352 32.3129C48.5415 33.4328 46.5024 34.653 44.2855 35.9211V24.0794C42.835 24.8982 41.6285 25.7763 40.2851 26.294C37.6554 27.3067 36.6861 28.9967 37.0327 31.834C37.3247 34.2288 37.0692 36.6852 37.1103 39.1142C37.1217 39.8144 36.8822 40.1975 36.2687 40.5351C34.3392 41.5865 32.4416 42.6973 30.5462 43.8103C29.8962 44.1911 29.6613 44.1638 29.6636 43.3108C29.6864 33.8593 29.6841 24.4055 29.6682 14.9541C29.6682 14.3839 29.8506 14.0623 30.3433 13.7886C32.2979 12.703 34.2456 11.6014 36.166 10.4587C36.921 10.0094 37.1719 10.0436 37.1605 11.0152C37.1194 14.393 37.1445 17.7708 37.1445 21.3767V21.3744Z" fill="#7DCAD5"/>
<path d="M75.3724 44.3002C72.8795 42.9773 70.4094 41.6591 67.9302 40.3568C67.3509 40.0511 67.2665 39.4627 67.0658 38.9518C64.9698 33.6376 62.8875 28.3166 60.7983 22.9979C60.666 22.6603 60.5155 22.3319 60.2121 22.0308V35.9389C57.7672 34.5385 55.475 33.2317 53.1874 31.9179C52.8362 31.7172 52.8453 31.3546 52.8476 31.0102C52.8544 21.3649 52.8613 11.7172 52.8704 2.0719C52.8704 1.99892 52.9069 1.92593 52.9525 1.76172C54.2981 2.28629 55.4682 3.11421 56.7043 3.80528C57.8607 4.45074 59.3455 4.91373 60.0137 5.90586C60.6911 6.91168 60.1893 8.48084 60.2053 9.80368C60.2327 12.1848 60.2121 14.5682 60.2121 17.2321C62.2876 14.8989 64.2354 12.7983 66.0646 10.6019C66.6986 9.84017 67.1525 9.71701 68.0078 10.2028C69.8187 11.2314 71.6798 12.1757 73.5455 13.1039C74.2411 13.4506 74.4008 13.7129 73.8921 14.4245C71.9147 17.2048 70.024 20.0489 68.0648 22.8428C67.6497 23.4335 67.6041 23.9011 67.8778 24.5899C70.325 30.7411 72.7244 36.9105 75.1238 43.08C75.2652 43.4426 75.5913 43.787 75.3701 44.3002H75.3724Z" fill="#619AA5"/>
</svg>
