<svg width="134" height="17" viewBox="0 0 134 17" fill="none" xmlns="http://www.w3.org/2000/svg">
<g clip-path="url(#clip0_2216_4259)">
<path d="M132.356 0.246705C131.448 0.248332 130.578 0.610114 129.936 1.25261C129.295 1.89511 128.934 2.76583 128.934 3.67376V12.4625L119.007 0.240601H114.876C113.968 0.242228 113.097 0.604087 112.456 1.24677C111.814 1.88946 111.454 2.76043 111.454 3.66852V16.9109H116.543V4.78104L126.545 16.9109H134.003V0.246705H132.356ZM98.7091 0.246705C98.0014 0.247231 97.3113 0.466795 96.7333 0.875235C96.1554 1.28368 95.718 1.861 95.4813 2.52793L92.5201 12.0984L88.4841 0.246705H86.2082C85.5216 0.247482 84.8511 0.454416 84.2834 0.840641C83.7157 1.22687 83.277 1.77464 83.0242 2.41301L83.0137 2.43582L79.534 12.0984L76.0947 0.246705H75.5594C73.6696 0.246705 71.7788 2.46828 72.2745 4.08091L76.3508 16.9161H82.1758L86.0977 5.42853L89.9503 16.9161H95.676L101.247 0.245849L98.7091 0.246705ZM62.2715 8.47746H54.1776V4.39585H62.2715C63.5797 4.39585 64.1061 4.99247 64.1061 6.27608C64.1061 7.85537 63.6885 8.47746 62.2715 8.47746ZM66.5127 10.3349C68.5992 9.83039 69.287 8.45466 69.287 5.70319C69.287 1.3698 67.4989 0.243225 62.4549 0.243225H52.4843C51.5773 0.244848 50.7079 0.605896 50.0665 1.24725C49.4252 1.88861 49.0641 2.75802 49.0625 3.66503V16.9135H54.1759V12.652H61.7661C63.4402 12.652 64.0596 12.9503 64.0596 14.3708V16.9152H69.1484V13.5014C69.1906 12.7383 68.9421 11.9876 68.4529 11.4005C67.9636 10.8134 67.2701 10.4336 66.5119 10.3375L66.5127 10.3349ZM31.8439 10.1287L35.0077 4.23621L38.2409 10.1287H31.8439ZM38.3365 0.246705H33.8794C33.2628 0.247184 32.6578 0.414049 32.1282 0.729683C31.5985 1.04532 31.1638 1.49803 30.87 2.04008C30.87 2.05236 30.8577 2.05852 30.8516 2.06905L22.7411 16.9161H28.2896L29.9181 14.141H40.0755L41.6802 16.9161H47.2727L38.3365 0.246705ZM19.2859 0.246705C18.3857 0.246637 17.5217 0.601398 16.8811 1.23403C16.2406 1.86666 15.8752 2.72623 15.8641 3.62642V6.36824H5.43033V0.240601H3.75629C2.87952 0.24185 2.03656 0.57908 1.40087 1.18294C0.76519 1.7868 0.385115 2.61136 0.338875 3.48692V16.9109H5.4277V10.4007H15.8598V16.9109H20.9731V0.246705H19.2859Z" fill="white"/>
<path d="M106.16 0.246704C105.265 0.247633 104.406 0.59874 103.766 1.22492C103.127 1.8511 102.758 2.70267 102.738 3.59745V4.3967H107.827V0.251952L106.16 0.246704Z" fill="#E40040"/>
<path d="M102.741 5.80957H107.831V16.9216H102.741V5.80957Z" fill="white"/>
</g>
<defs>
<clipPath id="clip0_2216_4259">
<rect width="133.66" height="16.6808" fill="white" transform="translate(0.339691 0.241577)"/>
</clipPath>
</defs>
</svg>
