<svg width="72" height="72" viewBox="0 0 72 72" fill="none" xmlns="http://www.w3.org/2000/svg">
<g clip-path="url(#clip0_2393_4140)">
<path d="M71.928 35.9988C71.928 16.1555 55.8433 0.0707526 36 0.0707526C35.459 0.0707526 34.9207 0.0844149 34.3851 0.109007L27.0361 20.3075H33.437C37.2447 20.3075 39.2968 23.2394 37.9934 26.8204L28.9284 51.7324L21.3171 51.731L31.0447 25.0292H25.3215L15.5939 51.731H7.97982L19.418 20.3075L26.2997 1.39737C11.17 5.62998 0.0720215 19.5178 0.0720215 35.9988C0.0720215 52.9688 11.8394 67.19 27.6591 70.9513L34.3264 52.6286H34.3318L46.0938 20.3075H60.1128C63.9246 20.3075 65.9753 23.2394 64.6719 26.8204L56.7068 48.7007C56.1001 50.3675 54.1533 51.731 52.3799 51.731H42.2752L34.933 71.9104C35.2868 71.9199 35.6434 71.9268 36 71.9268C55.8433 71.9268 71.928 55.8407 71.928 35.9988Z" fill="#0096D6"/>
<path d="M57.7396 25.0108H52.0191L44.0075 46.9922H49.728L57.7396 25.0108Z" fill="#0096D6"/>
</g>
<defs>
<clipPath id="clip0_2393_4140">
<rect width="72" height="72" fill="white"/>
</clipPath>
</defs>
</svg>
