<svg width="105" height="18" viewBox="0 0 105 18" fill="none" xmlns="http://www.w3.org/2000/svg">
<path fill-rule="evenodd" clip-rule="evenodd" d="M25.8154 14.0823V6.38818H26.7792V9.43738H31.3135V6.38818H32.2772V14.0823H31.3135V10.3064H26.7792V14.0823H25.8154Z" fill="white"/>
<path fill-rule="evenodd" clip-rule="evenodd" d="M37.2065 14.0823V6.38818H43.2417V7.27298H38.1545V9.53218H41.2352V10.417H38.1545V13.1976H43.5577V14.0823H37.2065Z" fill="white"/>
<path fill-rule="evenodd" clip-rule="evenodd" d="M46.6387 14.0823L49.7669 10.2116L46.6703 6.38818H47.8394L50.3672 9.46898L52.8793 6.38818H54.0326L50.936 10.18L54.1116 14.0823H52.8951L50.3356 10.9067L47.7604 14.0823H46.6387Z" fill="white"/>
<path d="M58.9933 6.35645H58.0295V14.0821H58.9933V6.35645Z" fill="white"/>
<path fill-rule="evenodd" clip-rule="evenodd" d="M65.1867 14.0823L62.6746 6.38818H63.6068L65.5184 12.3286L67.4775 6.38818H68.3307L70.2739 12.3128L72.1856 6.38818H73.102L70.6057 14.0823H69.9106L67.8883 7.88908L65.8818 14.0823H65.1867Z" fill="white"/>
<path fill-rule="evenodd" clip-rule="evenodd" d="M76.783 14.0823V6.38818H82.8183V7.27298H77.731V9.53218H80.8118V10.417H77.731V13.1976H83.1343V14.0823H76.783Z" fill="white"/>
<path fill-rule="evenodd" clip-rule="evenodd" d="M88.4899 11.1119H91.8709L90.1809 7.71511L88.4899 11.1119ZM86.0095 14.0821L89.7697 6.40381H90.5599L94.3669 14.0821H93.3249L92.2819 12.0124H88.0318L87.0206 14.0821H86.0095Z" fill="white"/>
<path fill-rule="evenodd" clip-rule="evenodd" d="M99.0601 9.81641H102.456C102.946 9.81641 103.31 9.70581 103.547 9.50041C103.799 9.29501 103.926 8.97901 103.926 8.56831C103.926 8.17331 103.799 7.85731 103.547 7.62031C103.294 7.39911 102.946 7.28861 102.504 7.28861H99.0601V9.81641ZM98.1121 14.0821V6.40381H102.52C103.278 6.40381 103.863 6.59341 104.289 6.97261C104.716 7.35171 104.921 7.87311 104.921 8.53671C104.921 9.08961 104.747 9.56361 104.415 9.95861C104.084 10.3536 103.641 10.6063 103.088 10.7011L105 14.0821H103.942L102.014 10.7169H99.0281V14.0821H98.1121Z" fill="white"/>
<path fill-rule="evenodd" clip-rule="evenodd" d="M3.302 0.431885C5.0557 0.826885 6.7304 1.19028 8.3419 1.55368C9.1634 2.88078 9.985 4.19208 10.7907 5.50338C10.0639 6.54608 9.2898 7.65208 8.4998 8.78958C6.8252 8.58418 5.0557 8.36298 3.2072 8.12598C2.2751 6.65668 1.2955 5.17158 0.3318 3.68648C1.3587 2.54898 2.3698 1.45888 3.302 0.431885ZM11.7544 6.10378C11.0435 7.16228 10.3009 8.25238 9.5426 9.38988C10.3799 10.7487 11.2173 12.0916 12.0546 13.4345C13.5397 13.5451 14.9774 13.6399 16.3519 13.7347C16.9365 12.5971 17.5211 11.507 18.0582 10.4485C17.3315 9.24778 16.6047 8.04698 15.878 6.83048C14.5509 6.57768 13.1763 6.34068 11.7544 6.10378ZM3.1914 9.15298C5.0557 9.35828 6.8252 9.54788 8.5156 9.73748C9.3846 11.112 10.2377 12.4865 11.0751 13.8453C10.3009 15.1408 9.4952 16.4679 8.642 17.874C6.8726 17.874 5.0083 17.8582 3.0334 17.8582C2.0381 16.3257 1.0111 14.7616 0 13.2133C1.1217 11.7914 2.1803 10.4485 3.1914 9.15298ZM3.9023 2.29618C3.4284 2.81758 2.9544 3.33888 2.4646 3.86028C3.0492 4.76078 3.618 5.64558 4.2025 6.54608C5.3717 6.68828 6.5408 6.83048 7.7099 6.97268C8.0733 6.46708 8.4209 5.94578 8.7842 5.44018C8.2945 4.63448 7.7889 3.84448 7.2991 3.03878C6.1616 2.78598 5.0241 2.53318 3.9023 2.29618ZM12.5444 7.95218C13.3027 8.07858 14.0611 8.22078 14.8352 8.34718C15.2618 9.05818 15.7042 9.78488 16.1308 10.4959C15.878 10.9856 15.6252 11.4754 15.3724 11.9652C14.5983 11.9178 13.8241 11.8546 13.05 11.8072C12.5602 11.0172 12.0704 10.2273 11.5649 9.42148C11.8808 8.93178 12.2126 8.44198 12.5444 7.95218ZM9.1002 13.8611C8.5788 13.0237 8.0417 12.1706 7.5203 11.3332C6.3196 11.2068 5.1347 11.0646 3.9339 10.9382C3.3178 11.7282 2.7016 12.5181 2.0855 13.2923C2.7174 14.256 3.3336 15.204 3.9655 16.1677C5.2137 16.1677 6.4618 16.1677 7.6941 16.1835C8.1681 15.4094 8.642 14.6352 9.1002 13.8611Z" fill="white"/>
</svg>
