<svg width="104" height="22" viewBox="0 0 104 22" fill="none" xmlns="http://www.w3.org/2000/svg">
<mask id="mask0_12_3129" style="mask-type:luminance" maskUnits="userSpaceOnUse" x="0" y="0" width="104" height="22">
<path d="M104 0.467773H0V21.5311H104V0.467773Z" fill="white"/>
</mask>
<g mask="url(#mask0_12_3129)">
<path d="M7.93954 0.895982C10.308 0.290982 12.8095 0.478182 15.0615 1.42908C16.5005 2.04968 17.7847 2.98028 18.8224 4.15448C19.8601 5.32878 20.6257 6.71768 21.0645 8.22198C21.6139 10.2568 21.5682 12.4064 20.9329 14.416C17.7471 14.416 14.5612 14.416 11.382 14.416C11.0859 14.4553 10.7847 14.4297 10.4994 14.3411C10.2141 14.2524 9.95154 14.1028 9.72984 13.9025C9.56074 13.48 9.56074 13.0086 9.72984 12.5861C10.726 9.58458 11.7221 6.58518 12.7182 3.58808H8.99924C8.67674 4.62148 8.29494 5.63518 7.97904 6.67518H6.08984C6.71524 4.76628 7.34714 2.83768 7.93954 0.895982ZM14.3506 3.60128C14.2124 4.12128 14.0478 4.62808 13.8635 5.12838C15.1141 5.12838 16.3648 5.12838 17.6154 5.12838C17.78 4.61488 17.9577 4.10148 18.142 3.58808C16.8782 3.58808 15.6144 3.58148 14.3506 3.60128ZM13.3435 6.69488C12.6853 8.73548 11.981 10.7694 11.3688 12.8165C12.6129 12.8165 13.8569 12.8165 15.101 12.8165C15.7592 10.776 16.4174 8.72888 17.0757 6.68838C15.7987 6.68178 14.581 6.68838 13.3435 6.69488Z" fill="#E20004"/>
<path d="M0 9.75542C0.3843 7.30852 1.5696 5.05832 3.3701 3.35742C2.3696 6.52352 1.3165 9.68302 0.3028 12.8227H4.0547C4.5418 11.2759 5.0947 9.74882 5.5686 8.21512C6.2268 8.21512 6.8522 8.21512 7.4972 8.21512C6.5099 11.085 5.5884 13.9681 4.6076 16.8379C4.4745 17.1943 4.3861 17.5657 4.3443 17.9437C4.3976 18.2548 4.566 18.5345 4.816 18.7272C5.066 18.9198 5.3793 19.0114 5.6937 18.9837C9.7484 18.9837 13.803 18.9837 17.8577 18.9837C16.1786 20.4105 14.1109 21.302 11.9208 21.5437C9.7307 21.7853 7.5184 21.366 5.5686 20.3397C4.0511 19.529 2.7522 18.3633 1.7826 16.9421C0.813 15.5209 0.2014 13.8863 0 12.1777V9.75542Z" fill="#E20004"/>
<path d="M26.8298 6.4255H30.5422C30.1604 7.5116 29.7984 8.6043 29.3903 9.6772H32.5761C32.9579 8.6306 33.2936 7.5709 33.6885 6.5309C34.3468 6.2807 35.1827 6.4848 35.9134 6.419C34.9853 9.0255 34.0966 11.619 33.1949 14.219C32.4642 14.219 31.7336 14.219 31.0096 14.219C31.3847 13.1329 31.7534 12.0402 32.1417 10.9278H28.9625C28.5873 12.0139 28.1923 13.1 27.8303 14.219C26.5863 14.219 25.3488 14.219 24.1113 14.219C25.0131 11.6585 25.9083 9.0255 26.8298 6.4255Z" fill="white"/>
<path d="M34.6094 14.2116C35.5441 11.6577 36.4195 9.0248 37.3279 6.4248H41.0468C40.1319 8.9721 39.2696 11.5458 38.3547 14.0997L38.2099 14.1919C37.0119 14.238 35.8073 14.1985 34.6094 14.2116Z" fill="white"/>
<path d="M42.4159 7.8861C42.7725 7.4307 43.2281 7.0625 43.7481 6.8093C44.2682 6.5561 44.839 6.4246 45.4174 6.4248H51.6048L51.1111 7.8334C49.8473 7.8334 48.5835 7.8334 47.3263 7.8334C46.8309 7.8147 46.3452 7.9736 45.9566 8.2813C45.568 8.5891 45.3021 9.0255 45.2068 9.5119C46.6878 9.8542 48.2346 9.5119 49.7222 9.7225C50.2291 10.0911 50.0448 10.7823 49.9131 11.2891C49.6843 12.0496 49.2386 12.7268 48.6307 13.2378C48.0227 13.7487 47.2789 14.0711 46.4903 14.1656C44.2655 14.2511 42.0341 14.1656 39.8027 14.1985C39.9673 13.7509 40.1055 13.2901 40.303 12.882C40.5597 12.7109 40.902 12.8228 41.1916 12.7899C42.6068 12.7899 44.022 12.7899 45.4372 12.7899C45.761 12.8223 46.088 12.7895 46.3989 12.6934C46.7098 12.5973 46.9983 12.4398 47.2473 12.2304C47.5232 11.8685 47.7103 11.4469 47.7936 10.9995C45.8848 10.9008 43.9693 10.9995 42.0539 10.9468C41.9584 10.9539 41.8626 10.9402 41.773 10.9064C41.6834 10.8727 41.6023 10.8198 41.5352 10.7515C41.4682 10.6832 41.4168 10.6011 41.3848 10.5109C41.3527 10.4208 41.3407 10.3247 41.3496 10.2294C41.4219 9.3481 41.7989 8.5195 42.4159 7.8861Z" fill="white"/>
<path d="M53.0068 6.43164H56.7192C55.7977 9.01854 54.9091 11.6185 54.0205 14.2185C52.7764 14.2185 51.5324 14.2185 50.2949 14.2185C51.2164 11.658 52.0853 9.02514 53.0068 6.43164Z" fill="white"/>
<path d="M58.1955 6.39258C59.4395 6.39258 60.6836 6.39258 61.9276 6.39258C61.3089 8.09738 60.7231 9.82188 60.1241 11.5399C60.0687 11.6675 60.0449 11.8065 60.0549 11.9452C60.0649 12.084 60.1082 12.2182 60.1813 12.3365C60.2544 12.4548 60.355 12.5537 60.4745 12.6248C60.5941 12.6958 60.729 12.7369 60.8679 12.7445C62.2699 12.8235 63.6719 12.7445 65.074 12.7445C64.8897 13.2118 64.7317 13.6923 64.5737 14.1662C62.4871 14.1268 60.394 14.1662 58.3074 14.1662C57.5636 14.1662 56.6092 13.9622 56.3327 13.1592C56.1832 12.3194 56.3006 11.4538 56.6684 10.6842C57.2016 9.29538 57.7216 7.86698 58.1955 6.39258Z" fill="white"/>
<path d="M68.6936 6.4248H72.406C71.502 9.0358 70.6025 11.6314 69.7073 14.2116H65.9883C66.8901 11.6182 67.7984 9.0248 68.6936 6.4248Z" fill="white"/>
<path d="M72.7865 9.68334C73.4447 8.09704 74.8336 6.52384 76.6898 6.43164C78.7829 6.43164 80.8761 6.43164 82.9693 6.43164C82.8047 6.89244 82.6599 7.36634 82.5085 7.83374C81.192 7.83374 79.8756 7.83374 78.5986 7.83374C78.1367 7.85154 77.6915 8.01164 77.3239 8.29194C76.9563 8.57234 76.6843 8.95944 76.545 9.40024C76.2817 10.223 75.9262 11.0261 75.7419 11.8752C75.6564 12.4018 76.229 12.7638 76.7029 12.7704C78.0589 12.823 79.4082 12.7704 80.7642 12.7704C80.5865 13.2377 80.4285 13.7051 80.2705 14.1724C78.1642 14.1724 76.0513 14.1724 73.945 14.1724C73.188 14.1724 72.2204 13.9091 72.0164 13.0797C71.8057 11.9147 72.4047 10.7759 72.7865 9.68334Z" fill="white"/>
<path d="M86.4919 6.5301C87.5209 6.4125 88.5576 6.3773 89.592 6.4247C90.415 6.4247 91.429 6.2931 92.034 6.9776C92.692 7.807 92.528 8.9523 92.265 9.9265C91.83 11.2825 91.376 12.8095 90.079 13.6192C88.6772 14.5012 86.9395 14.1326 85.3729 14.2182C84.4514 14.2182 83.2468 14.3169 82.661 13.4612C82.1673 12.4014 82.7203 11.2627 83.0625 10.2425C83.5957 8.6364 84.7476 7.0106 86.4919 6.5301ZM88.3942 7.9716C87.2818 8.3204 86.9987 9.525 86.6762 10.486C86.538 11.1442 85.9456 11.8814 86.4656 12.4607C86.7291 12.6294 87.0273 12.7364 87.338 12.7739C87.6486 12.8113 87.9637 12.7782 88.2598 12.677C88.5559 12.5758 88.8253 12.4091 89.048 12.1893C89.271 11.9695 89.441 11.7022 89.546 11.4075C89.886 10.5494 90.17 9.6699 90.395 8.7746C90.454 7.7544 89.112 7.6556 88.3942 7.9716Z" fill="white"/>
<path d="M94.878 6.42531C95.865 6.42531 96.852 6.42531 97.84 6.42531C98.06 6.43011 98.274 6.50191 98.453 6.63121C98.632 6.76061 98.767 6.94131 98.84 7.14931C99.314 8.46581 99.716 9.78221 100.196 11.0987C100.795 9.55191 101.289 7.97211 101.848 6.41211H104.001C103.198 8.57771 102.467 10.7696 101.704 12.9483C101.586 13.382 101.415 13.7997 101.197 14.1924C100.282 14.1924 99.367 14.1924 98.458 14.1924C98.209 14.2137 97.959 14.1525 97.747 14.0181C97.536 13.8838 97.374 13.6837 97.287 13.4486C96.813 12.1321 96.372 10.8486 95.931 9.53871C95.385 11.046 94.897 12.5731 94.351 14.0805C93.693 14.3438 92.896 14.1265 92.186 14.1989C93.074 11.6187 93.996 9.02531 94.878 6.42531Z" fill="white"/>
</g>
</svg>
