<svg width="118" height="19" viewBox="0 0 118 19" fill="none" xmlns="http://www.w3.org/2000/svg">
<g clip-path="url(#clip0_2393_4159)">
<path d="M77.9213 0.000383212C73.0259 -0.0321474 67.0587 1.99787 67.0272 9.37024C66.9957 16.6686 73.0889 18.972 77.9213 18.8272C82.4131 18.6934 87.3725 17.4452 87.5991 11.9512L82.634 11.9622C82.4939 15.4146 79.7393 16.0994 77.9213 16.1051C76.056 16.1119 72.2599 15.7195 72.2001 9.44422C72.1434 3.52103 75.6279 2.68363 77.9213 2.70882C80.2147 2.734 82.4897 3.80384 82.5154 6.50073L87.448 6.49653C87.3976 3.19468 84.5433 0.0449816 77.9213 0.000383212ZM0 0.335134V18.4694H4.80089V10.4663H14.517V18.4694H19.3405V0.334609H14.517V7.5926H4.80089V0.334609L0 0.335134ZM23.3234 0.335134V18.4683H28.1573V0.335134H23.3234ZM29.9465 0.335134V3.33477H36.9873V18.4657H41.7693V3.33424H48.8116V0.334609L29.9465 0.335134ZM89.9534 0.335134V18.4694H94.7543V10.4663H104.47V18.4694H109.271V0.334609H104.47V7.5926H94.7548V0.334609L89.9534 0.335134ZM113.161 0.335134V18.4683H118V0.335134H113.161ZM53.2772 0.361893L44.6802 18.4688H50.0746L51.7509 14.4004L60.8348 14.3973L62.507 18.4688H67.9144L59.3568 0.361893H53.2772ZM56.301 3.42397L59.6233 11.5146L52.9509 11.5188L56.301 3.42397Z" fill="white"/>
</g>
<defs>
<clipPath id="clip0_2393_4159">
<rect width="118" height="18.8334" fill="white"/>
</clipPath>
</defs>
</svg>
