<svg width="93" height="29" viewBox="0 0 93 29" fill="none" xmlns="http://www.w3.org/2000/svg">
<path fill-rule="evenodd" clip-rule="evenodd" d="M92.989 15.1982C92.812 16.8582 90.381 18.3985 86.588 19.4067C84.3952 20.0579 81.8467 20.4733 79.0024 20.7102L72.9558 26.1035L69.7555 28.9488C69.1626 29.068 68.7483 28.8894 68.6889 28.5344V20.7107C67.3845 20.5915 66.1398 20.4739 64.9546 20.2953L59.0865 25.8084L57.427 27.3492C57.072 27.4684 56.716 27.2898 56.716 26.8156V18.3391C54.1075 17.3912 52.5672 16.1466 52.448 14.7833C52.4412 14.6847 52.4412 14.5857 52.448 14.4871C52.5672 12.8276 55.1158 11.2863 59.0865 10.2197C61.3389 9.6268 64.0067 9.1531 66.9701 8.9157L72.9558 3.4032L76.0379 0.499102C76.6902 0.202902 76.927 0.677103 76.927 1.0327V9.0344C78.2751 9.0914 79.6198 9.21 80.9571 9.39L88.07 2.5146C88.604 2.2185 89.018 2.8108 88.959 3.107V11.405C91.389 12.4122 92.871 13.598 92.989 14.8426C93.002 14.9608 93.005 15.0795 92.989 15.1982ZM86.588 18.1023C90.263 17.2725 92.516 16.1466 92.279 14.8426C91.863 13.7755 90.381 12.887 88.13 12.1754L80.8394 18.932C82.9726 18.7545 84.9288 18.4583 86.588 18.1023ZM79.5355 10.6939C78.2903 10.5752 76.927 10.5164 75.5642 10.4565L72.9558 12.9458L66.3173 19.0507C67.5625 19.11 68.8664 19.1689 70.2886 19.2282L72.9553 16.7983L79.5355 10.6939ZM59.0865 11.405C55.5428 12.1927 53.2604 13.2976 53.0593 14.5774C53.0315 14.7544 53.095 14.8925 53.2284 15.0748C53.9248 16.0232 55.3926 16.8692 57.5457 17.5692L59.0865 16.1471L65.1331 10.5758C62.8802 10.7527 60.8053 11.0494 59.0865 11.405Z" fill="#3382C3"/>
<path fill-rule="evenodd" clip-rule="evenodd" d="M27.8508 26.1034H23.1092C22.635 26.1034 22.2795 25.689 22.2795 25.2153V18.8736H20.3233V25.9264C20.3233 26.8155 21.0343 27.5859 21.9234 27.5859H27.8503L27.8508 26.1034ZM17.0636 27.5859C18.3082 27.5859 19.3754 26.5193 19.3754 25.2752V21.1254C19.3754 19.8813 18.3082 18.8741 17.0636 18.8741H12.5C11.1961 18.8741 10.1883 19.8813 10.1883 21.1254V25.2752C10.1883 26.5193 11.1961 27.5859 12.5 27.5859H17.0636ZM13.0336 20.533C12.5594 20.533 12.2038 20.888 12.2038 21.3628V25.0368C12.2038 25.5115 12.5594 25.9258 13.0336 25.9258H16.4713C16.9455 25.9258 17.3603 25.5115 17.3603 25.0368V21.3628C17.3603 20.888 16.9455 20.533 16.4713 20.533H13.0336ZM47.5882 23.1998L52.7442 27.526H50.1368L45.3353 23.4366V27.526H43.2016V18.8137H45.3353V22.9031L50.1368 18.8137H52.7442L47.5882 23.1998ZM42.0762 23.9702V22.1925H38.0456C37.5714 22.1925 37.0972 21.8365 37.0972 21.3034C37.0972 20.8298 37.5121 20.4144 38.0456 20.4144H42.6092V18.8142H35.1415V25.3928C35.1403 25.6733 35.1947 25.9513 35.3015 26.2107C35.4084 26.47 35.5655 26.7057 35.7639 26.904C35.9622 27.1023 36.1979 27.2594 36.4573 27.3662C36.7167 27.4729 36.9947 27.5272 37.2752 27.526H42.6097V25.8082H37.9275C37.4533 25.8082 37.0384 25.3928 37.0384 24.8593C37.0384 24.3856 37.4538 23.9702 37.9275 23.9702H42.0762ZM34.4299 20.5913H32.0589C31.5253 20.5913 31.1703 21.0067 31.1703 21.4804V27.526H29.2141V21.4804C29.2141 21.0067 28.7992 20.5913 28.325 20.5913H25.7171V18.8137H34.5486V20.5913H34.4299ZM3.31298 22.4294H7.40288V18.8137H9.53658V27.526H7.40288V24.1482H3.37228C2.95748 24.1482 2.66128 24.4433 2.66128 24.7994V27.5255H0.705078V18.8132H2.66128V21.7167C2.66128 22.1332 2.95748 22.4294 3.31298 22.4294Z" fill="white"/>
</svg>
