<svg width="71" height="10" viewBox="0 0 71 10" fill="none" xmlns="http://www.w3.org/2000/svg">
<mask id="mask0_12_3179" style="mask-type:luminance" maskUnits="userSpaceOnUse" x="0" y="0" width="71" height="10">
<path d="M71.0001 0.363037H0.459961V9.57081H71.0001V0.363037Z" fill="white"/>
</mask>
<g mask="url(#mask0_12_3179)">
<path d="M46.9905 0.363037C46.9905 1.03214 46.9905 1.67424 46.9905 2.31644C46.9905 2.44804 46.9664 2.46954 46.8347 2.47224C46.6547 2.47224 46.4774 2.47224 46.2973 2.47224C44.4031 2.47224 42.5089 2.47224 40.6147 2.47224C40.3272 2.47224 40.0451 2.52064 39.7845 2.63884C39.6125 2.71674 39.4808 2.86184 39.3841 3.02574C39.2363 3.27564 39.2014 3.55234 39.2122 3.84524H46.8804C46.9583 3.91774 46.9905 4.00374 46.9905 4.10854C46.9905 4.65664 46.9932 5.20474 46.9959 5.75284C46.9959 5.92754 46.9556 5.96244 46.7756 5.96244C45.5182 5.95704 44.2607 5.94904 43.006 5.94094C42.1005 5.93554 41.195 5.93284 40.2923 5.93024C40.0128 5.93024 39.7334 5.92214 39.454 5.92214C39.3787 5.92214 39.3035 5.93554 39.2229 5.94634C39.196 6.24454 39.2283 6.51054 39.3707 6.75774C39.3895 6.78994 39.4029 6.82764 39.4217 6.86254C39.5453 7.09624 39.728 7.24944 39.994 7.31934C40.3568 7.41604 40.7275 7.43214 41.0956 7.43214C42.1354 7.43754 43.1726 7.42944 44.2124 7.42404C44.8814 7.42404 45.5531 7.41874 46.2221 7.41604C46.4182 7.41604 46.6117 7.41064 46.8078 7.41604C46.8669 7.41604 46.9234 7.43484 46.9879 7.44824C46.9879 7.48854 46.9879 7.51544 46.9879 7.54234C46.9879 8.05814 46.9879 8.57404 46.9879 9.08994C46.9879 9.19734 46.9771 9.30754 46.9583 9.41504C46.9422 9.52254 46.8992 9.54394 46.7837 9.54394C45.0695 9.53324 43.3553 9.52254 41.6384 9.51714C40.878 9.51444 40.1176 9.51984 39.3599 9.52254C39.188 9.52254 39.0133 9.52784 38.8414 9.51444C38.7232 9.50634 38.6049 9.47414 38.4867 9.44454C38.0649 9.34784 37.6565 9.21624 37.3018 8.96364C37.0197 8.76214 36.7994 8.50684 36.6677 8.18714C36.6006 8.02594 36.528 7.86474 36.4797 7.69814C36.4474 7.59064 36.4474 7.47244 36.4394 7.35694C36.4205 7.04524 36.3964 6.73354 36.3937 6.42184C36.3883 5.27994 36.3883 4.14074 36.3937 2.99884C36.3937 2.78664 36.3964 2.57164 36.434 2.36474C36.5549 1.70914 36.8639 1.15834 37.4684 0.814438C37.6431 0.715038 37.8392 0.650537 38.03 0.583437C38.296 0.492037 38.5754 0.462538 38.8521 0.427538C39.1611 0.389938 39.4701 0.371138 39.7818 0.371138C42.1166 0.368438 44.4515 0.371138 46.7863 0.371138C46.8455 0.371138 46.9072 0.371138 46.9825 0.371138L46.9905 0.363037Z" fill="white"/>
<path d="M48.4468 0.363037C48.5301 0.363037 48.592 0.363037 48.6537 0.363037C51.0155 0.363037 53.3798 0.363037 55.7415 0.363037C56.0451 0.363037 56.3514 0.384537 56.655 0.414137C56.9452 0.441037 57.2327 0.492036 57.5068 0.591436C58.0683 0.790336 58.4874 1.13424 58.6997 1.70384C58.7803 1.91604 58.853 2.12564 58.8906 2.34864C58.9148 2.48304 58.92 2.61734 58.9227 2.75434C58.9281 3.12784 58.9335 3.49864 58.9254 3.87204C58.9227 4.02794 58.8824 4.18104 58.8609 4.33694C58.8475 4.42824 58.8367 4.51964 58.826 4.61094C58.7642 5.13224 58.4928 5.51914 58.0683 5.83344C57.7325 6.08334 57.3536 6.22034 56.9533 6.31174C56.7088 6.36814 56.4562 6.35474 56.2063 6.34664C56.1418 6.34664 56.0774 6.34664 55.9753 6.34664C56.2278 6.59654 56.4617 6.82494 56.6901 7.05864C57.0823 7.46434 57.4665 7.87544 57.8614 8.27844C58.165 8.59014 58.4794 8.89644 58.7857 9.20544C58.8824 9.30214 58.9657 9.40964 59.0786 9.53594C58.9576 9.53594 58.8744 9.53864 58.7884 9.53594C58.7185 9.53324 58.6487 9.51444 58.5788 9.51174C57.7701 9.50904 56.9587 9.50634 56.15 9.50634C56.0425 9.50634 55.9618 9.47144 55.892 9.39624C55.6528 9.13824 55.4164 8.87764 55.1692 8.62514C54.7554 8.20324 54.3336 7.78944 53.9198 7.36764C53.6565 7.10164 53.4013 6.82764 53.1487 6.55084C53.0332 6.42454 52.8935 6.37084 52.7269 6.36814C52.3292 6.36274 51.9343 6.35744 51.5366 6.35744C51.4211 6.35744 51.3056 6.36814 51.2035 6.37624C51.2035 6.70934 51.2035 7.03184 51.2035 7.35424C51.2035 8.00714 51.2088 8.66004 51.2088 9.31294C51.2088 9.49834 51.1981 9.50634 51.0073 9.50904C50.1932 9.51444 49.3764 9.51714 48.5623 9.52254C48.428 9.52254 48.4118 9.50904 48.4011 9.37474C48.3957 9.30484 48.393 9.23234 48.393 9.16244C48.393 7.01304 48.3903 4.86354 48.393 2.71404C48.393 1.99134 48.4145 1.26584 48.4253 0.543137C48.4253 0.489337 48.436 0.435638 48.4414 0.365738L48.4468 0.363037ZM51.2276 2.46954V4.27514C51.2733 4.27514 51.3056 4.27514 51.3378 4.27514C51.7677 4.27514 52.1977 4.27514 52.6276 4.26974C53.4793 4.25634 54.3337 4.32074 55.1827 4.21604C55.618 4.16224 55.9457 3.99304 56.1177 3.57384C56.1795 3.42334 56.1875 3.28904 56.1177 3.14934C55.8973 2.70604 55.5267 2.47764 55.0296 2.47494C53.8178 2.46684 52.6061 2.47224 51.3916 2.47224C51.3379 2.47224 51.2814 2.47224 51.2223 2.47224L51.2276 2.46954Z" fill="white"/>
<path d="M17.8249 9.50902C17.0994 9.50902 16.3713 9.51172 15.6459 9.50902C15.3664 9.50902 15.087 9.50362 14.8103 9.47142C14.598 9.44722 14.3938 9.36932 14.1869 9.32362C13.9666 9.27252 13.757 9.19192 13.5582 9.08722C13.2197 8.90452 12.9698 8.64112 12.7978 8.30532C12.6904 8.09572 12.5936 7.88082 12.556 7.64432C12.5399 7.54222 12.4969 7.44822 12.4781 7.34612C12.4244 7.05052 12.4405 6.75232 12.4405 6.45412C12.4405 5.94892 12.4459 5.44652 12.4459 4.94142C12.4459 4.32612 12.4378 3.71352 12.4459 3.09822C12.4485 2.73012 12.4888 2.36202 12.5829 2.00472C12.693 1.57212 12.9322 1.19862 13.2949 0.932616C13.569 0.731116 13.8941 0.602117 14.2353 0.526917C14.4986 0.467817 14.7646 0.443617 15.0333 0.419417C15.5465 0.373817 16.057 0.363016 16.5701 0.363016C17.7255 0.363016 18.8835 0.360316 20.0388 0.363016C20.3183 0.363016 20.5977 0.387217 20.8744 0.416817C21.2614 0.457117 21.6187 0.591416 21.9572 0.776816C22.3818 1.01052 22.6397 1.37602 22.7955 1.81662C22.9379 2.21962 22.997 2.63612 22.9944 3.06062C22.9917 4.35562 22.9997 5.65072 22.989 6.94312C22.9863 7.34072 22.9218 7.73572 22.7714 8.11182C22.543 8.68952 22.1211 9.07102 21.53 9.26452C21.2076 9.36932 20.8744 9.43642 20.5386 9.49822C20.3828 9.52782 20.2162 9.50362 20.055 9.50362C19.3107 9.50362 18.5691 9.50362 17.8249 9.50362V9.50902ZM17.8652 2.47222C17.8652 2.47222 17.8652 2.46412 17.8652 2.45872C17.3816 2.47222 16.8953 2.49102 16.4116 2.49642C16.0677 2.50172 15.7802 2.62532 15.5599 2.88332C15.4874 2.96922 15.4363 3.07672 15.3745 3.17082C15.2643 3.34002 15.2267 3.53622 15.224 3.72162C15.2106 4.52222 15.2187 5.32022 15.224 6.12092C15.224 6.23112 15.2428 6.34662 15.2832 6.44872C15.3503 6.62332 15.439 6.78722 15.525 6.95382C15.6701 7.23322 15.9414 7.32192 16.2289 7.35952C16.5003 7.39452 16.7743 7.40792 17.0484 7.41592C17.7174 7.44012 18.3864 7.46162 19.0501 7.37302C19.257 7.34612 19.4665 7.31922 19.6707 7.24402C19.8266 7.18492 19.9314 7.09352 19.9932 6.95652C20.1221 6.67712 20.2027 6.37882 20.2081 6.07252C20.2189 5.37662 20.2189 4.68082 20.2108 3.98492C20.2081 3.72962 20.1786 3.47442 20.1383 3.22182C20.1114 3.04452 20.0308 2.88602 19.8803 2.76242C19.6331 2.56352 19.351 2.46952 19.0367 2.46952C18.6471 2.46952 18.2548 2.46952 17.8625 2.46952L17.8652 2.47222Z" fill="white"/>
<path d="M3.25138 0.381802V3.8531C3.32128 3.8612 3.38838 3.8773 3.45828 3.8773C4.35298 3.8773 5.24498 3.8719 6.13968 3.8666C6.71468 3.8666 7.28968 3.8612 7.86468 3.8585C7.93718 3.8585 8.00978 3.8531 8.08228 3.8424C8.20858 3.8209 8.26768 3.743 8.25958 3.6274C8.24348 3.4044 8.21928 3.1814 8.21668 2.9557C8.21128 2.4506 8.20858 1.9455 8.21668 1.4431C8.21928 1.0938 8.23818 0.741802 8.24888 0.376402C8.43428 0.354902 8.61698 0.368303 8.79968 0.365603C8.98508 0.365603 9.16778 0.365603 9.35318 0.365603C9.53858 0.365603 9.72128 0.365603 9.90668 0.365603C10.0921 0.365603 10.2748 0.362903 10.4602 0.365603C10.6429 0.368303 10.8283 0.338802 11.0217 0.416702C11.0244 0.529502 11.0298 0.650402 11.0298 0.768702C11.0298 3.3185 11.0244 5.8709 11.0217 8.4208C11.0217 8.6572 11.0271 8.8936 11.0244 9.1274C11.0244 9.2295 11.011 9.3316 10.9868 9.431C10.9814 9.4606 10.9277 9.4955 10.8927 9.5009C10.7933 9.517 10.6939 9.525 10.5918 9.525C10.0007 9.5224 9.40688 9.5035 8.81578 9.517C8.60618 9.5224 8.42088 9.4579 8.22198 9.431C8.19788 9.4283 8.17368 9.4068 8.14408 9.388C8.23278 9.2214 8.21128 9.0468 8.21128 8.8748C8.21128 8.2004 8.21398 7.526 8.21128 6.8516C8.21128 6.6206 8.21128 6.3922 8.21928 6.1611C8.22468 6.0053 8.19788 5.9677 8.03928 5.9489C7.93448 5.9354 7.82708 5.9354 7.72228 5.9354C6.70668 5.9408 5.68838 5.9408 4.67268 5.9569C4.26968 5.9623 3.86668 5.9274 3.46628 5.9462C3.42598 5.9462 3.38838 5.9462 3.34808 5.9489C3.28088 5.9516 3.24598 5.9919 3.24328 6.0537C3.24328 6.1423 3.24868 6.2283 3.24868 6.317C3.24868 7.1848 3.24868 8.05 3.25408 8.9178C3.25408 9.0683 3.28088 9.2214 3.29708 9.3719C3.29708 9.3934 3.29438 9.4149 3.28898 9.4498C3.24598 9.4579 3.20568 9.4686 3.16268 9.474C2.48828 9.5304 1.81128 9.5143 1.13688 9.5089C0.980984 9.5089 0.825184 9.4955 0.669384 9.4794C0.604884 9.474 0.543084 9.4444 0.470484 9.4229C0.451684 6.4137 0.459783 3.4098 0.467783 0.389801C0.556483 0.379101 0.620983 0.365603 0.682783 0.365603C1.47538 0.365603 2.27068 0.365603 3.06328 0.365603C3.12238 0.365603 3.18418 0.376402 3.24868 0.381802H3.25138Z" fill="#F90100"/>
<path d="M24.4858 0.363037C24.5637 0.363037 24.6201 0.363037 24.6765 0.363037C27.0839 0.363037 29.4913 0.363037 31.8987 0.363037C32.2319 0.363037 32.5651 0.389937 32.8955 0.424837C33.2126 0.457137 33.5162 0.553837 33.801 0.693537C34.2497 0.913837 34.5641 1.26044 34.7387 1.72804C34.8489 2.02624 34.9214 2.32714 34.9617 2.64154C34.9805 2.79194 34.9993 2.93974 35.0343 3.08754C35.0826 3.28634 35.0262 3.47984 35.0155 3.67324C35.0074 3.80224 34.9752 3.92854 34.9644 4.05484C34.9241 4.54114 34.7925 4.99784 34.513 5.40624C34.3733 5.61044 34.1799 5.76364 33.973 5.88184C33.6076 6.09144 33.2126 6.22844 32.7854 6.28484C32.1862 6.36544 31.5871 6.36014 30.9852 6.36274C30.0851 6.36274 29.1877 6.37354 28.2876 6.37894C28.0807 6.37894 27.8739 6.36544 27.667 6.36274C27.5891 6.36274 27.5111 6.36274 27.4332 6.36814C27.2102 6.38424 27.1941 6.40044 27.1941 6.62344C27.1941 7.28704 27.1941 7.95074 27.1968 8.61434C27.1968 8.92064 27.1968 9.22694 27.1968 9.55474C27.1027 9.56014 27.0248 9.57624 26.9523 9.56544C26.2644 9.46074 25.5712 9.53054 24.8807 9.51714C24.7652 9.51714 24.6497 9.53594 24.5126 9.54664C24.4965 9.46074 24.4723 9.38544 24.4723 9.30754C24.4589 7.96954 24.4455 6.63144 24.4401 5.29344C24.4347 4.26704 24.4401 3.24334 24.4428 2.21704C24.4455 1.66354 24.4616 1.11004 24.4723 0.556538C24.4723 0.497438 24.4804 0.438337 24.4885 0.363037H24.4858ZM27.2129 4.26164C27.2532 4.26974 27.2693 4.27244 27.2854 4.27514C28.3682 4.27784 29.451 4.28314 30.5338 4.28584C30.8267 4.28584 31.1169 4.25894 31.4017 4.17834C31.716 4.08974 31.982 3.93924 32.1325 3.64104C32.1943 3.51744 32.2776 3.38574 32.2238 3.24064C32.1325 2.99884 31.9874 2.77584 31.7536 2.66304C31.5226 2.54744 31.2673 2.46954 30.996 2.47224C30.2383 2.47494 29.4779 2.47224 28.7202 2.47224C28.2742 2.47224 27.8282 2.47224 27.3795 2.47224C27.2263 2.47224 27.2075 2.48834 27.1941 2.63614C27.1941 2.65764 27.1941 2.67914 27.1941 2.70064C27.1914 3.15474 27.186 3.61144 27.186 4.06554C27.186 4.13274 27.2075 4.19984 27.2183 4.26164H27.2129Z" fill="white"/>
<path d="M63.1517 5.94902C63.1517 6.08602 63.1517 6.20692 63.1517 6.32782C63.1517 7.30312 63.1518 8.28112 63.1491 9.25652C63.1491 9.27792 63.1491 9.29942 63.1491 9.32092C63.141 9.51982 63.1061 9.55742 62.9099 9.54132C62.1361 9.48212 61.3596 9.51712 60.5858 9.51172C60.4166 9.51172 60.4058 9.50632 60.4031 9.33712C60.3977 9.06842 60.4031 8.79972 60.4031 8.53102C60.3951 7.53422 60.3763 6.53472 60.3789 5.53792C60.3789 4.57332 60.3951 3.60872 60.4085 2.64422C60.4085 2.51252 60.4488 2.38092 60.4784 2.24922C60.5455 1.93752 60.6449 1.63932 60.8276 1.37062C61.005 1.11272 61.228 0.905822 61.5101 0.768822C61.8137 0.623722 62.1334 0.529621 62.4612 0.457121C62.8213 0.379221 63.1867 0.365723 63.5521 0.365723C65.9649 0.365723 68.3776 0.365723 70.7931 0.365723C70.8522 0.365723 70.914 0.365723 70.9812 0.365723V2.47222C70.9167 2.47222 70.8522 2.47222 70.7877 2.47222C68.7027 2.47222 66.6204 2.47222 64.5355 2.47222C64.2963 2.47222 64.0653 2.50182 63.845 2.59852C63.6219 2.69792 63.4312 2.82422 63.3479 3.06872C63.2834 3.26212 63.2055 3.45022 63.1356 3.64372C63.1195 3.68672 63.1168 3.73502 63.1034 3.80492C63.2055 3.82102 63.2888 3.84522 63.3748 3.84792C65.0406 3.85322 66.7037 3.85592 68.3696 3.85592C69.0386 3.85592 69.7103 3.85592 70.3793 3.84792C70.5701 3.84792 70.7635 3.81832 70.957 3.80222C70.9946 3.90972 71.008 5.52442 70.9731 5.87642C70.7044 5.94362 70.4277 5.93552 70.1509 5.93552C69.1783 5.93552 68.2057 5.92752 67.2357 5.92752C65.9568 5.92752 64.6779 5.92752 63.3989 5.92752C63.3183 5.92752 63.2377 5.94092 63.1464 5.95172L63.1517 5.94902Z" fill="white"/>
</g>
</svg>
