<svg width="84" height="28" viewBox="0 0 84 28" fill="none" xmlns="http://www.w3.org/2000/svg">
<g clip-path="url(#clip0_2393_4172)">
<path d="M77 23.625C72.625 23.625 68.425 23.625 67.2 23.625C64.75 23.45 63.175 21.875 63 19.6C63 18.2 63 16.975 63 15.575C63.175 13.3 65.1 11.2 67.2 11.2C67.9 11.2 70 11.2 73.5 11.2H84V6.825C84 6.825 75.6 6.825 73.15 6.825C69.825 6.825 68.075 6.825 67.025 6.825C64.75 7 62.65 7.7 61.075 9.275C59.675 10.675 58.8 13.125 58.625 15.4C58.625 16.625 58.45 18.375 58.625 19.425C58.8 22.05 59.675 23.975 61.075 25.375C62.475 26.95 64.75 27.825 67.025 27.825C68.775 27.825 84 27.825 84 27.825V23.45C84 23.625 79.45 23.625 77 23.625ZM29.75 7V11.375H40.075V27.825H44.45V11.375H54.775V7H29.75ZM25.2 15.225C25.2 12.95 24.325 10.85 22.75 9.275C21 7.525 18.55 6.825 16.8 6.825C15.4 6.825 9.625 6.825 8.225 6.825C6.3 6.825 4.9 7.525 4.2 8.05V0H0V28H4.375C4.375 28 4.375 16.625 4.375 15.4C4.55 13.125 6.3 11.375 8.4 11.2C10.15 11.025 15.225 11.025 16.8 11.2C19.075 11.375 20.65 13.125 20.825 15.4C20.825 16.275 20.825 28 20.825 28H25.2C25.2 28 25.2 16.275 25.2 15.225Z" fill="#A5CF4C"/>
</g>
<defs>
<clipPath id="clip0_2393_4172">
<rect width="84" height="28" fill="white"/>
</clipPath>
</defs>
</svg>
