<svg width="24" height="35" viewBox="0 0 24 35" fill="none" xmlns="http://www.w3.org/2000/svg">
<path d="M7.38089 8.9738L0.534488 26.1258C0.534488 26.1258 -1.41061 32.5412 2.12039 32.5412C5.65129 32.5412 5.06009 32.5412 5.06009 32.5412C5.06009 32.5412 11.3871 18.2682 16.0342 9.6203C20.6814 0.97253 14.1942 0 11.597 0C8.99989 0 5.43579 1.18804 5.43579 1.18804C5.43579 1.18804 9.22099 4.3653 7.38089 8.9738Z" fill="white"/>
<path d="M14.5366 16.8645C14.5366 16.8645 17.1337 17.511 17.1337 21.1359C17.1337 24.7608 14.5366 27.5679 14.5366 30.3805C14.5366 33.1931 15.2936 34.3812 19.8855 34.3812C19.8855 34.3812 19.2887 30.165 23.1844 20.5944C23.1844 20.5944 24.9139 16.8645 20.101 16.8645H14.531H14.5366Z" fill="white"/>
</svg>
