<svg width="125" height="50" viewBox="0 0 125 50" fill="none" xmlns="http://www.w3.org/2000/svg">
<path fill-rule="evenodd" clip-rule="evenodd" d="M109.026 21.5042H104.602C103.859 21.5479 103.652 21.731 103.652 22.6276V25.0992H109.026V21.5042ZM111.382 19.525V30.3026H109.026V27.2046H103.652V30.3026H101.296V21.8534C101.296 20.3605 101.904 19.525 103.652 19.525H111.382ZM98.94 21.8514V27.684C98.94 29.5408 97.8912 30.3005 96.5837 30.3005H89.1525V19.5229H96.5837C98.5906 19.5229 98.94 20.7919 98.94 21.8514ZM96.5558 22.5C96.5558 21.9095 96.1939 21.5022 95.5602 21.5022H91.5088V28.2363L95.5602 28.236C96.4831 28.1894 96.5558 27.6391 96.5558 27.2026V22.5ZM41.1278 19.5229H43.4837V23.771H48.7548V19.5229H51.1107V30.3003H48.7548V25.9021H43.4837V30.3003H41.1278V19.5229ZM55.1485 19.5229L58.102 23.9289L61.02 19.5229H63.8807L59.2788 26.4133V30.3005H56.9226V26.4127L52.2887 19.5229H55.1485ZM77.1055 19.5229H84.6975C85.7795 19.5229 86.8271 19.674 86.7966 21.8514V30.3005H84.4407V22.6256C84.4407 21.6974 84.3286 21.5022 83.5964 21.5022H79.462V30.3005H77.1055V19.5229ZM116.095 19.525V30.3026H113.738V19.525H116.095ZM65.059 30.3005H72.6505C74.1598 30.3005 74.7804 29.8663 74.7498 27.7022V19.5229H72.3939V27.2167C72.3939 28.1391 72.2819 28.251 71.5496 28.251H67.4152L67.4149 19.5229H65.059V30.3005Z" fill="#003984"/>
<path fill-rule="evenodd" clip-rule="evenodd" d="M24.4978 26.5107C24.7055 27.5783 24.1428 28.4651 23.6753 29.3258C23.156 30.1266 22.2989 30.8149 21.2687 30.7119C18.957 30.6775 16.6977 30.3245 14.6024 29.6958C14.5073 29.6701 14.4121 29.6096 14.3601 29.5237C14.3167 29.403 14.3775 29.2911 14.4639 29.2138C16.3774 27.6726 18.6542 26.9583 20.9051 26.209C21.7447 25.968 22.6367 25.7096 23.5802 25.8303C23.9694 25.8821 24.359 26.1491 24.4978 26.5107ZM32.3846 21.9479C33.4581 22.826 34.4277 24.0229 34.0987 25.4692C33.5619 27.6044 31.2246 28.7408 29.3633 29.4638C28.3502 29.7997 27.3288 30.1443 26.2206 30.2476C26.1514 30.2389 26.0388 30.2559 26.0214 30.1527L26.0473 30.0323C27.6229 28.2672 28.8175 26.2874 29.8654 24.2813C30.3501 23.3772 30.8004 22.4476 31.2159 21.5348C31.2764 21.4659 31.3372 21.4315 31.4065 21.4058C31.7957 21.4399 32.073 21.7414 32.3846 21.9479ZM17.2772 19.6751L17.2426 19.8041C14.9658 22.3782 13.4681 25.3656 12.0483 28.3358C11.7714 28.5941 11.5029 28.2495 11.2518 28.1376C9.98769 27.3113 8.84492 25.9767 9.17397 24.3927C9.702 22.3267 11.8403 21.2247 13.624 20.4759C14.6801 20.0798 15.7798 19.7613 16.9397 19.5805C17.061 19.5802 17.2167 19.5631 17.2772 19.6751ZM28.5754 20.0882C28.7052 20.1571 28.8611 20.1828 28.9391 20.3119C29.0083 20.4583 28.8698 20.5529 28.7919 20.6478C26.9998 22.0423 24.9481 22.8173 22.8529 23.4975C21.7878 23.7559 20.7142 24.2208 19.5284 23.9625C19.2512 23.8936 19.0004 23.7128 18.8444 23.4457C18.55 22.6365 18.9483 21.7929 19.2945 21.0869C19.7533 20.2002 20.5673 19.1584 21.6926 19.1413C24.1167 19.1239 26.4022 19.4856 28.5754 20.0882ZM31.5708 20.1571C33.4063 21.1558 35.4841 22.9119 35.2677 25.2537C35.0166 27.4232 32.9821 28.9384 31.1641 29.8512C25.857 32.3737 18.4031 32.451 12.9229 30.2473C11.0699 29.4812 8.99213 28.1639 8.21274 26.1835C7.61546 24.5564 8.34249 22.8604 9.56352 21.7327C12.1173 19.4254 15.3725 18.6335 18.7231 18.177C22.3594 17.7378 26.1857 18.1252 29.4409 19.2359C30.1683 19.5029 30.8869 19.7957 31.5708 20.1571Z" fill="#003984"/>
</svg>
