<svg width="105" height="20" viewBox="0 0 105 20" fill="none" xmlns="http://www.w3.org/2000/svg">
<g clip-path="url(#clip0_2216_4263)">
<path d="M6.27551 0.0185547H0.566521V20.0077H6.27551V0.0185547Z" fill="#0097DD"/>
<path d="M17.0759 8.505H10.6725V11.2052H17.0759V8.505Z" fill="#0097DD"/>
<path d="M56.7305 2.71887H68.2256C69.3057 2.71887 69.7686 2.56458 70.1543 1.71594L71.1572 0.0186768H54.7246C49.4785 0.0186768 47.6269 1.56165 47.6269 6.1134V13.8282C47.6269 18.4572 49.4785 20.0001 54.7246 20.0001H68.2256C69.3057 20.0001 69.7686 19.7687 70.1543 18.92L71.1572 17.2228H56.7305C54.2617 17.2228 53.3359 16.4513 53.3359 14.2911V10.8966H67.2227C67.6198 10.9594 68.0267 10.8965 68.3863 10.7166C68.746 10.5368 69.0404 10.2491 69.2285 9.89368L70.2314 8.11926H53.3359V5.72766C53.3359 3.5675 54.2617 2.71887 56.7305 2.71887Z" fill="#0097DD"/>
<path d="M35.0521 0.0186768H21.7054V20.0001H27.4144V11.8224H35.0521C40.9153 11.8224 44.5413 10.2023 44.5413 5.88196C44.5413 1.56165 40.9153 0.0186768 35.0521 0.0186768ZM32.8919 9.04504H27.4144V2.71887H32.8919C36.3636 2.71887 38.5237 3.41321 38.5237 5.88196C38.5237 8.35071 36.3636 9.04504 32.8919 9.04504Z" fill="#0097DD"/>
<path d="M83.8869 1.40735C82.5753 0.250122 81.8039 0.0186768 79.5666 0.0186768H73.7804L84.8126 9.81653L72.4689 20.0001H76.5578C78.7951 20.0001 79.6437 19.6915 81.0324 18.5343L88.0529 12.7482L94.6105 18.5343C95.922 19.6915 96.6935 20.0001 98.9308 20.0001H104.717L83.8869 1.40735Z" fill="#0097DD"/>
<path d="M92.9132 0.0186768V8.73645L103.56 0.0186768H92.9132Z" fill="#E60012"/>
</g>
<defs>
<clipPath id="clip0_2216_4263">
<rect width="104.15" height="19.9814" fill="white" transform="translate(0.566521 0.0185547)"/>
</clipPath>
</defs>
</svg>
