<svg width="85" height="55" viewBox="0 0 85 55" fill="none" xmlns="http://www.w3.org/2000/svg">
<path d="M80.8 47.4002H80.7H80.6H80.5H80.4H80.3H80.2H80.1H80L79.9 47.5002L79.8 47.6002L79.7 47.7002L79.6 47.8002L79.5 47.9002L79.1 48.0002L79 48.1002L78.9 48.2002L78.8 48.3002L78.7 48.4002L78.6 48.5002L78.5 48.6002L78.4 48.7002L78.3 48.8002L78.2 48.9002L78.3 49.0002V49.1002V49.2002V49.3002V49.4002V49.5002V49.6002V49.7002V49.8002V49.9002V50.0002V50.1002V50.2002V50.3002V50.4002V50.5002V50.6002L78.4 50.7002L78.5 50.8002L78.6 50.9002L78.7 51.0002L78.8 51.1002L78.9 51.2002L79 51.3002L79.1 51.4002L79.2 51.5002L79.3 51.6002L79.4 51.7002L79.5 51.8002L79.6 51.9002L79.7 52.0002L79.8 52.1002L79.9 52.2002L80 52.3002H80.1H80.2H80.3H80.4H80.5H80.6H80.7H80.8H80.9H81H81.1H81.2H81.3H81.4L81.5 52.2002L81.6 52.1002L81.7 52.0002L81.8 51.9002L81.9 51.8002L82 51.7002L82.1 51.6002L82.2 51.5002L82.3 51.4002L82.4 51.3002L82.5 51.2002L82.6 51.1002L82.7 51.0002L82.8 50.9002L82.9 50.8002L83 50.7002L83.1 50.6002V50.5002V50.4002V50.3002V50.2002V50.1002V50.0002V49.9002V49.8002V49.7002V49.6002V49.5002V49.4002V49.3002V49.2002V49.1002V49.0002L83 48.9002L82.9 48.8002L82.8 48.7002L82.7 48.6002L83 48.5002L82.9 48.4002L82.8 48.3002L82.7 48.2002L82.6 48.1002L82.5 48.0002L82.4 47.9002L82.3 47.8002L82.2 47.7002L82.1 47.6002H82L81.9 47.5002H81.8H81.7H81.6H81.5H81.4H81.3H81.2L80.8 47.4002ZM80.8 46.7002H81H81.2H81.4H81.6H81.8H82L82.2 46.8002L82.4 46.9002L82.6 47.0002L82.7 47.1002L82.8 47.2002L82.9 47.3002L83 47.4002L83.1 47.5002L83.2 47.6002L83.3 47.7002L83.4 47.8002L83.5 47.9002L83.6 48.0002L83.7 48.1002L83.8 48.2002L83.9 48.3002L84 48.4002L84.1 48.6002L84.2 48.8002L84.3 49.0002L84.4 49.2002V49.4002V49.6002V49.8002V50.0002V50.2002V50.4002V50.6002V50.8002V51.0002V51.2002L84.3 51.4002L84 51.3002V51.4002L83.9 51.6002L83.8 51.7002L83.7 51.8002V52.0002L83.6 52.1002L83.5 52.2002L83.4 52.3002L83.3 52.4002L83.2 52.5002L83 52.7002L82.9 52.8002L82.8 52.9002L82.6 53.0002L82.5 53.1002L82.4 53.2002L82.2 53.3002H82L81.8 53.4002H81.6H81.4H81.2H81H80.8H80.6H80.4H80.2H80H79.8H79.6H79.4L79.2 53.3002L79.1 53.2002L78.9 53.1002L78.8 53.0002H79L78.9 52.9002L78.8 52.8002L78.7 52.7002L78.6 52.6002L78.5 52.5002L78.4 52.4002L78.3 52.3002L78 52.1002L77.9 52.0002L77.8 51.9002L77.7 51.8002L77.6 51.7002L77.5 51.5002L77.4 51.3002V51.1002V50.9002V50.7002V50.5002V50.3002V50.1002V49.9002V49.7002V49.5002V49.3002V49.1002V48.9002V48.7002V48.5002L77.5 48.3002L77.6 48.1002L77.7 48.0002L77.8 47.9002L77.9 47.8002L78 48.0002L78.1 47.9002L78.2 47.8002L78.3 47.7002L78.4 47.6002L78.5 47.5002L78.6 47.4002L78.7 47.3002L78.8 47.2002L78.9 47.1002L79 47.0002L79.2 46.9002L79.3 46.8002L79.5 46.7002H79.7H79.9H80.1H80.3H80.5H80.8ZM80.6 49.8002H80.7H80.8H80.9H81H80.8H80.6ZM79.2 51.9002V48.2002H80.8H80.9H81H81.1H81.2H81.3H81.4H81.5H81.6H81.7H81.8H81.9H82V48.3002H82.1V48.4002V48.5002V48.6002V48.7002V48.8002V48.9002V49.0002V49.1002V49.2002V49.3002V49.4002V49.5002V49.6002H82H81.9H81.8H81.7L81.8 49.7002L81.9 49.8002H82V49.9002L82.1 50.0002V50.1002L82 51.0002L82.1 51.2002L82.5 51.9002H81.6L81.1 51.1002L81 50.9002L80.9 50.7002L80.8 50.6002L80.7 50.5002L80.6 50.4002H80.5H80.4H80.3H80.2H80.1H80V51.9002H79.2Z" fill="#3B801C"/>
<path d="M12.4 17.0996H3.00001C1.70001 17.0996 0.700012 18.0996 0.700012 19.3996V51.2996C0.700012 52.5996 1.70001 53.5996 3.00001 53.5996H12.4C13.7 53.5996 14.7 52.5996 14.7 51.2996V19.3996C14.7 18.0996 13.7 17.0996 12.4 17.0996Z" fill="#3B801C"/>
<path d="M12.4 3H2.99999C1.79999 3 0.799988 4 0.799988 5.3V12.6C0.799988 13.9 1.79999 14.9 3.09999 14.9H12.5C13.8 14.9 14.8 13.9 14.8 12.6V5.3C14.7 4 13.7 3 12.4 3Z" fill="#B81C22"/>
<path d="M20.1 6.7V49.7C20.1 51.8 21.8 53.4 23.8 53.4H53V39.9H34V35.3H53V21.7H34V17H53.5V3H23.8C21.7 3 20.1 4.7 20.1 6.7Z" fill="#3B801C"/>
<path d="M71.3 21.7002H61.2C60.2 21.7002 59.3 22.5002 59.3 23.6002V51.6002C59.3 52.6002 60.1 53.5002 61.2 53.5002H71.4C72.4 53.5002 73.3 52.7002 73.3 51.6002V23.6002C73.2 22.6002 72.4 21.7002 71.3 21.7002Z" fill="#3B801C"/>
<path d="M66.3 1.5C61.8 1.5 58.2 4.9 58.2 9.1C58.2 13.3 61.8 16.7 66.3 16.7C70.8 16.7 74.4 13.3 74.4 9.1C74.4 4.9 70.8 1.5 66.3 1.5Z" fill="#19388F"/>
</svg>
