<svg width="69" height="16" viewBox="0 0 69 16" fill="none" xmlns="http://www.w3.org/2000/svg">
<mask id="mask0_12_3197" style="mask-type:luminance" maskUnits="userSpaceOnUse" x="0" y="0" width="69" height="16">
<path d="M69.0001 0.944824H0.620117V15.9263H69.0001V0.944824Z" fill="white"/>
</mask>
<g mask="url(#mask0_12_3197)">
<path d="M49.2348 9.75171C47.917 9.75171 46.6005 9.76231 45.2828 9.74581C44.8486 9.73991 44.6834 9.89561 44.7176 10.3345C44.8285 11.7525 45.6897 13.0479 47.8073 13.0738C49.5368 13.095 51.2676 13.0915 52.9983 13.0998C53.7745 13.1033 53.7969 13.1257 53.8016 13.8914C53.8039 14.3633 53.8005 14.8352 53.7993 15.3071C53.7993 15.6893 53.6258 15.8769 53.2235 15.8781C51.415 15.8828 49.603 15.9807 47.8003 15.8863C46.505 15.8179 45.1825 15.661 43.9851 15.0676C42.6178 14.3904 41.681 13.2638 41.2481 11.8457C40.5544 9.56881 40.6227 7.24351 41.3258 4.96901C41.8131 3.39171 42.8772 2.30042 44.4026 1.64452C45.6873 1.09242 47.0523 1.02631 48.409 0.974414C49.9603 0.915414 51.5152 0.974415 53.0678 0.947315C53.6376 0.937815 53.8488 1.15851 53.8063 1.71531C53.7733 2.14591 53.7863 2.58002 53.804 3.01182C53.8253 3.51682 53.5951 3.71612 53.0984 3.71262C51.6238 3.70082 50.1492 3.69372 48.6745 3.71612C47.6293 3.73262 46.5863 3.79521 45.7404 4.54901C45.1966 5.03271 44.8864 5.64261 44.7472 6.34101C44.6493 6.83421 44.937 6.93212 45.3653 6.92972C47.7247 6.91912 50.0842 6.92502 52.4437 6.92622C52.5416 6.92622 52.6408 6.92622 52.7387 6.92622C53.4537 6.92622 53.8083 7.29191 53.8028 8.02341C53.7898 10.0018 53.9999 9.72811 52.0663 9.74341C51.1225 9.75171 50.1786 9.74461 49.2348 9.74461V9.75171Z" fill="white"/>
<path d="M59.2448 7.5903C59.8122 7.2128 60.1697 6.6406 60.6027 6.1581C62.0207 4.5737 63.3904 2.9457 64.773 1.3294C64.9925 1.0723 65.2532 0.951897 65.5906 0.955497C66.5533 0.963697 67.5171 0.961396 68.4798 0.961396C68.6579 0.961396 68.8561 0.938895 68.9411 1.1371C69.026 1.3353 68.8691 1.4675 68.7558 1.5984C67.4817 3.053 66.2041 4.5041 64.9299 5.9587C64.3637 6.6052 63.8245 7.2789 63.2264 7.8935C62.9562 8.1707 63.0188 8.3796 63.2016 8.6002C63.8599 9.3953 64.5383 10.1751 65.2025 10.9655C66.407 12.4001 67.608 13.8394 68.8101 15.2763C68.908 15.3943 69.059 15.5052 68.98 15.6833C68.8939 15.878 68.7016 15.8721 68.5223 15.8721C67.4605 15.8721 66.3987 15.852 65.3393 15.8827C64.7648 15.8992 64.5772 15.4403 64.3106 15.1159C62.712 13.1693 61.1394 11.2015 59.5562 9.2419C59.4737 9.1393 59.3864 8.9812 59.2306 9.0638C59.0643 9.1523 59.128 9.3458 59.128 9.4932C59.1233 11.3218 59.1256 13.1492 59.1233 14.9778C59.1233 15.8249 59.0702 15.8768 58.2184 15.8815C57.6097 15.8851 56.9974 15.8473 56.391 15.8862C55.7964 15.924 55.6395 15.6503 55.6537 15.1147C55.6773 14.211 55.6607 13.3061 55.6607 12.4025C55.6607 8.8644 55.6607 5.3252 55.6607 1.7872C55.6607 0.976696 55.6761 0.961397 56.4842 0.955497C57.113 0.950697 57.743 0.975496 58.3706 0.951896C58.9145 0.931896 59.1445 1.1147 59.1339 1.6999C59.102 3.4494 59.1197 5.199 59.1245 6.9485C59.1245 7.155 59.0714 7.378 59.246 7.5903H59.2448Z" fill="white"/>
<path d="M32.7373 1.0016C34.7417 1.0016 36.7461 0.999195 38.7505 1.0028C39.4984 1.004 39.5609 1.07 39.5621 1.8015C39.5621 2.2144 39.5373 2.6285 39.5668 3.039C39.6058 3.5876 39.3498 3.77159 38.8342 3.76569C37.6356 3.75269 36.4358 3.7893 35.2384 3.7539C34.6532 3.7362 34.4586 3.9132 34.4633 4.5184C34.4904 7.9573 34.4798 11.3963 34.4774 14.8352C34.4774 15.8675 34.4456 15.8887 33.4086 15.8781C32.8187 15.8722 32.2289 15.8521 31.6402 15.884C31.101 15.9123 30.9076 15.6964 30.9146 15.1632C30.9347 13.4927 30.9229 11.8222 30.9217 10.1528C30.9217 8.24639 30.9076 6.3399 30.9276 4.4346C30.9323 3.9226 30.753 3.7421 30.241 3.7539C29.0424 3.7822 27.8438 3.7539 26.6452 3.774C26.0978 3.7834 25.8406 3.5958 25.8925 3.0154C25.9302 2.586 25.9326 2.1483 25.8937 1.7201C25.8441 1.1679 26.0753 0.990996 26.6039 0.995696C28.6472 1.0122 30.6917 1.0028 32.735 1.0016H32.7373Z" fill="white"/>
<path d="M10.5276 5.96121C10.5276 7.21881 10.5146 8.47751 10.5335 9.73511C10.5418 10.3392 10.5724 10.9479 10.6562 11.546C10.7824 12.4356 11.8867 13.2166 12.9355 13.2118C14.3264 13.2048 15.7173 13.1989 17.1094 13.1941C17.9788 13.1918 18.0473 13.2567 18.0402 14.1367C18.026 16.1576 18.249 15.8438 16.3237 15.8733C15.125 15.8922 13.9253 15.9382 12.729 15.891C11.7227 15.8509 10.7246 15.6692 9.78318 15.2846C8.18818 14.6311 7.49448 13.3168 7.22318 11.7077C7.05088 10.6872 7.05328 9.66911 7.09218 8.62971C7.17598 6.41181 7.11818 4.18801 7.11818 1.96541C7.11818 0.970909 7.11818 0.967308 8.08318 0.956708C8.65298 0.950808 9.22518 0.983808 9.79258 0.947308C10.3766 0.910708 10.5382 1.16431 10.5276 1.71411C10.5005 3.12861 10.5182 4.54551 10.5182 5.96001C10.5205 5.96001 10.5229 5.96001 10.5252 5.96001L10.5276 5.96121Z" fill="white"/>
<path d="M20.7006 8.42912C20.7006 6.21122 20.6971 3.99213 20.703 1.77423C20.7054 1.03803 20.7785 0.970826 21.5182 0.963726C22.2249 0.956626 22.9327 0.977926 23.6382 0.951926C24.175 0.931926 24.3602 1.15253 24.3578 1.68343C24.3437 5.47273 24.3519 9.26083 24.3531 13.0501C24.3531 13.7368 24.3472 14.4245 24.3566 15.1111C24.3637 15.6349 24.1879 15.9157 23.5981 15.8839C22.8938 15.8449 22.1848 15.8839 21.4781 15.878C20.7962 15.8733 20.7006 15.7777 20.6995 15.0852C20.6959 12.8673 20.6983 10.6482 20.6983 8.43033H20.7018L20.7006 8.42912Z" fill="white"/>
<path d="M4.27501 8.38907C4.27501 10.5716 4.27861 12.7541 4.27271 14.9366C4.27031 15.7141 4.11221 15.8698 3.34421 15.8781C2.75431 15.8852 2.16451 15.8804 1.57461 15.8722C0.643814 15.8604 0.629614 15.8474 0.629614 14.8883C0.628514 10.9362 0.629614 6.98397 0.629614 3.03307C0.629614 2.58117 0.649714 2.12697 0.622614 1.67637C0.590714 1.13017 0.837313 0.938975 1.35991 0.955575C2.04771 0.976775 2.73551 0.953175 3.42441 0.955575C4.22191 0.959075 4.27621 1.00867 4.27741 1.78257C4.28091 3.98507 4.27861 6.18647 4.27861 8.38907H4.27621H4.27501Z" fill="white"/>
</g>
</svg>
