<svg width="125" height="50" viewBox="0 0 125 50" fill="none" xmlns="http://www.w3.org/2000/svg">
<path d="M2.09438 32.0523V24.9951V17.938H9.15151L8.82661 18.6537C8.64819 19.0472 8.37988 19.7436 8.23142 20.2016C8.08295 20.659 7.88588 21.408 7.79334 21.866C7.70147 22.3234 7.59028 23.0424 7.54701 23.4639C7.49907 23.9319 7.48243 24.7215 7.50506 25.4945C7.5297 26.3413 7.58829 27.0237 7.68283 27.5583C7.76072 27.9977 7.88189 28.5816 7.95246 28.8566C8.02237 29.1309 8.17483 29.6409 8.29134 29.9884C8.40718 30.3359 8.64885 30.9431 9.15151 32.0523H2.09438Z" fill="#F09319"/>
<path d="M26.5947 27.3255V22.5985V17.8716H29.058V27.3255H26.5947Z" fill="#064F67"/>
<path d="M63.8776 27.2589V22.5653V17.8716H66.2744V27.2589H63.8776Z" fill="#064F67"/>
<path d="M8.90188 18.9368C9.04702 18.5886 9.20814 18.2218 9.26007 18.1212L9.35394 17.9382H22.0009V32.0525H9.35128L9.07831 31.4699C8.92852 31.1497 8.66021 30.4526 8.48179 29.922C8.30403 29.3914 8.08432 28.5825 7.99311 28.1244C7.9019 27.667 7.79538 26.9999 7.75676 26.6431C7.71815 26.2862 7.68686 25.5446 7.68686 24.9953C7.68686 24.446 7.71815 23.7044 7.75676 23.3475C7.79538 22.9907 7.90057 22.3316 7.98978 21.8828C8.07966 21.4341 8.26208 20.7304 8.39524 20.3183C8.52839 19.9062 8.75675 19.285 8.90188 18.9368Z" fill="#064F67"/>
<path d="M30.8562 27.3255V22.6318V17.9382L33.2863 17.9455L39.4779 23.9261L39.5065 17.9382H41.9719L41.9412 27.2922L39.5445 27.3262L33.2863 21.3422L33.253 27.3255H30.8562Z" fill="#064F67"/>
<path d="M53.7919 18.4069C54.0482 18.3003 54.5422 18.1539 54.8904 18.0806C55.4703 17.9588 55.7899 17.9475 62.0141 17.9382V20.3349L59.1347 20.3363C56.969 20.3369 56.1474 20.3596 55.8225 20.4275C55.5842 20.4774 55.2546 20.5853 55.0902 20.6678C54.925 20.7497 54.6707 20.9141 54.5243 21.032C54.3778 21.1505 54.1681 21.4095 54.0582 21.6065C53.8751 21.9354 53.8585 22.02 53.8585 22.5985C53.8585 23.1771 53.8751 23.2616 54.0582 23.5905C54.1681 23.7876 54.3778 24.0479 54.5243 24.1678C54.6707 24.2883 55.0003 24.486 55.7226 24.8289L62.0141 24.8622V27.3255L59.2013 27.3248C57.654 27.3248 56.1188 27.2942 55.7892 27.2569C55.4597 27.2196 54.965 27.1284 54.6907 27.0539C54.4157 26.98 53.9517 26.8042 53.6588 26.6631C53.3658 26.5226 52.9031 26.2316 52.6308 26.0173C52.3585 25.8029 52.003 25.4633 51.8405 25.2616C51.6788 25.0606 51.4757 24.7756 51.3898 24.6291C51.3039 24.4827 51.1701 24.1831 51.0922 23.9634C50.995 23.6911 50.9384 23.3309 50.9131 22.8316C50.8852 22.2643 50.9038 21.9787 50.9957 21.5666C51.0616 21.2737 51.228 20.8096 51.3652 20.5347C51.521 20.2224 51.7733 19.8702 52.0376 19.5946C52.27 19.3529 52.6548 19.0294 52.8931 18.8769C53.1308 18.7244 53.5356 18.5127 53.7919 18.4069Z" fill="#064F67"/>
<path d="M68.1392 20.3349V19.1365V17.9382H71.6012C73.693 17.9382 75.2669 17.9661 75.5791 18.0094C75.8628 18.0487 76.3647 18.1705 76.6943 18.2804C77.0239 18.3902 77.4433 18.5646 77.6264 18.6685C77.8095 18.7724 78.1091 18.9921 78.2921 19.1565C78.4752 19.3203 78.7209 19.6152 78.8381 19.8116C78.9559 20.008 79.0984 20.3482 79.155 20.5679C79.2116 20.7876 79.2582 21.1771 79.2588 21.4334C79.2595 21.7071 79.2062 22.0779 79.1297 22.3322C79.0518 22.5905 78.8767 22.9328 78.6956 23.1811C78.5285 23.4101 78.2196 23.725 78.0092 23.8808C77.7981 24.0366 77.3934 24.269 77.1084 24.3968C76.8241 24.5246 76.5911 24.6444 76.5918 24.6624C76.5918 24.6811 77.1763 25.2576 77.8913 25.944C78.6057 26.6304 79.1909 27.2223 79.1909 27.2589C79.1909 27.3015 78.5871 27.3248 75.8288 27.3215L73.3655 24.9347L70.536 24.9287L70.5027 27.2922L68.1392 27.3255V22.5985L71.3515 22.5979C73.2523 22.5979 74.7403 22.5692 74.9966 22.528C75.2343 22.49 75.5625 22.3928 75.7256 22.3123C75.8881 22.2317 76.0758 22.0759 76.141 21.9661C76.207 21.8562 76.2616 21.6465 76.2629 21.5C76.2642 21.3296 76.209 21.1498 76.1104 21.0007C76.0252 20.8729 75.8375 20.7018 75.6923 20.6212C75.5479 20.5406 75.2496 20.4434 75.0299 20.4055C74.7895 20.3636 73.3348 20.3356 68.1392 20.3349Z" fill="#064F67"/>
<path d="M84.1842 18.2058C84.4585 18.1326 84.8633 18.0453 85.083 18.0134C85.3027 17.9808 86.8979 17.9508 91.7739 17.9382V20.4015H88.7114C85.8393 20.4015 85.6229 20.4095 85.2328 20.534C85.0037 20.6066 84.6669 20.769 84.4838 20.8942C84.3007 21.0193 84.0697 21.237 83.9705 21.3775C83.8713 21.518 83.7441 21.7457 83.6875 21.8828C83.6303 22.0226 83.5843 22.3302 83.5837 22.5819C83.5837 22.8289 83.6269 23.1664 83.6809 23.3309C83.7348 23.496 83.9225 23.7909 84.0976 23.9873C84.3187 24.2337 84.5603 24.4128 84.8832 24.5685C85.1396 24.6917 85.5437 24.8229 85.782 24.8602C86.0224 24.8981 87.4478 24.9281 91.7739 24.9287V27.3255L88.7946 27.3248C86.5596 27.3248 85.6569 27.3009 85.1828 27.2296C84.8346 27.1777 84.2954 27.0425 83.9845 26.9287C83.6729 26.8155 83.2088 26.5985 82.9525 26.4473C82.6909 26.2929 82.2348 25.9214 81.9126 25.6005C81.4898 25.1797 81.2741 24.9008 81.097 24.5459C80.9639 24.2803 80.8101 23.8908 80.7548 23.6804C80.6962 23.4567 80.655 23.0073 80.655 22.5985C80.655 22.1851 80.6969 21.7364 80.7575 21.5C80.8141 21.2803 80.9512 20.9062 81.0617 20.6678C81.1729 20.4301 81.3886 20.0739 81.5417 19.8769C81.6949 19.6798 82.0005 19.3756 82.2202 19.2005C82.4399 19.0254 82.8593 18.7604 83.1522 18.6113C83.4452 18.4621 83.9092 18.2797 84.1842 18.2058Z" fill="#064F67"/>
<path d="M93.7426 24.1298C93.6581 23.7743 93.6394 23.1824 93.6387 20.8176L93.6381 17.9382H96.0355L96.0681 23.707L96.2346 23.9481C96.3258 24.0812 96.5209 24.267 96.6673 24.3615C96.8138 24.4567 97.1134 24.5905 97.3331 24.6591C97.5528 24.7283 98.0621 24.8182 98.4649 24.8602C98.9882 24.9141 99.3963 24.9161 99.8963 24.8668C100.28 24.8289 100.79 24.7397 101.028 24.6691C101.266 24.5978 101.593 24.4394 101.754 24.3182C101.916 24.1964 102.11 24.012 102.187 23.9088C102.323 23.725 102.326 23.6518 102.344 17.9382H104.823L104.804 20.9175C104.784 23.8196 104.78 23.9088 104.631 24.3628C104.547 24.6191 104.37 25.0239 104.237 25.2616C104.105 25.5 103.815 25.8741 103.594 26.0938C103.365 26.3222 102.991 26.5991 102.726 26.7383C102.469 26.8728 102.035 27.0479 101.76 27.1284C101.341 27.2503 101.035 27.2796 99.863 27.3082C98.9642 27.3302 98.2146 27.3135 97.7658 27.2609C97.381 27.2163 96.8717 27.1191 96.634 27.0452C96.3957 26.9713 95.9916 26.8049 95.7352 26.6757C95.447 26.5306 95.0961 26.2729 94.8165 26.0013C94.5096 25.703 94.2805 25.4008 94.1048 25.0619C93.9623 24.7876 93.7992 24.3682 93.7426 24.1298Z" fill="#064F67"/>
<path d="M106.62 27.3255V22.6318V17.9382H109.083V27.3255H106.62Z" fill="#064F67"/>
<path d="M110.914 20.3682L110.896 19.1532L110.878 17.9382H121.999V20.4015H117.605V27.3255L115.242 27.2922L115.208 20.4015L110.914 20.3682Z" fill="#064F67"/>
<path d="M43.7714 23.5306V22.5985V21.6665H49.031V23.5306H43.7714Z" fill="#064F67"/>
<path d="M10.3166 19.1261C10.4264 19.0975 10.7706 19.0469 11.0822 19.0142C11.3938 18.9816 11.7453 18.951 11.8645 18.9457C11.9837 18.941 12.0809 18.967 12.0809 19.0036C12.0809 19.0402 11.981 19.2726 11.8585 19.5196C11.736 19.7666 11.5636 20.1421 11.4757 20.3531C11.3405 20.676 11.2886 20.7372 11.1488 20.7366C11.0576 20.7366 10.6448 20.8032 9.48239 21.0342L9.52433 20.8345C9.54697 20.7246 9.69011 20.3072 9.84124 19.9064C10.0916 19.2446 10.1348 19.1734 10.3166 19.1261Z" fill="white"/>
<path d="M11.9218 20.2519C12.0176 20.0229 12.1974 19.6334 12.3219 19.3864L12.5482 18.937L12.997 18.941C13.244 18.9437 13.6601 18.9656 13.9224 18.9909C14.1847 19.0162 14.4171 19.0595 14.4384 19.0868C14.4603 19.1141 14.3918 19.2639 14.2866 19.4197C14.1814 19.5755 13.987 19.9197 13.6121 20.668H11.748L11.9218 20.2519Z" fill="white"/>
<path d="M14.22 20.2519C14.3352 20.0229 14.5329 19.6753 14.6607 19.4789L14.8924 19.1228L15.2007 19.168C15.3704 19.1927 15.7493 19.2719 16.0422 19.3438C16.3351 19.4157 16.6121 19.4889 16.658 19.5056C16.7153 19.5269 16.6813 19.6148 16.5502 19.7859C16.445 19.923 16.2126 20.2566 16.0342 20.5269C15.7446 20.9643 15.6913 21.0135 15.5429 20.9776C15.451 20.9563 15.0768 20.8877 14.7107 20.8258C14.3445 20.7639 14.0376 20.7033 14.0282 20.6906C14.0189 20.678 14.1055 20.4809 14.22 20.2519Z" fill="white"/>
<path d="M16.2865 20.8171C16.3658 20.68 16.5775 20.3658 16.7579 20.1181C16.9377 19.8711 17.1127 19.6687 17.146 19.6687C17.18 19.6687 17.4097 19.7426 17.6567 19.8325C17.9037 19.9217 18.2785 20.0715 18.4889 20.1654C18.7685 20.2892 18.8584 20.3598 18.8218 20.427C18.7945 20.4776 18.5395 20.7925 17.7399 21.7326L17.0908 21.4683C16.7339 21.3231 16.3891 21.2033 16.3251 21.202C16.2612 21.2013 16.1933 21.17 16.1753 21.1334C16.1567 21.0968 16.2066 20.955 16.2865 20.8171Z" fill="white"/>
<path d="M4.94452 21.2C4.99112 20.9816 5.04838 20.9396 5.85795 20.5195C6.33265 20.2739 6.77405 20.0715 6.83796 20.0701C6.91608 20.0684 6.94471 20.1065 6.92385 20.1847C6.90654 20.2492 6.8333 20.5262 6.76073 20.8005C6.68817 21.0755 6.58963 21.4902 6.45515 22.146L5.55636 22.7392C5.0617 23.0654 4.64959 23.3244 4.64027 23.3144C4.63028 23.3051 4.68354 22.8777 4.75877 22.3651C4.83334 21.8524 4.91722 21.3285 4.94452 21.2Z" fill="white"/>
<path d="M9.83392 21.3684C10.0996 21.3145 10.4664 21.2432 10.6495 21.2093C10.8326 21.176 11.0196 21.1454 11.0656 21.1414C11.1115 21.1374 11.1488 21.156 11.1488 21.1833C11.1481 21.2113 11.0569 21.5928 10.9444 22.0322C10.8326 22.4716 10.7314 22.8464 10.7194 22.8644C10.7081 22.883 10.5749 22.9203 10.4245 22.9476C10.2733 22.9756 9.90315 23.0741 9.6009 23.1673C9.29864 23.2612 9.04165 23.3284 9.03033 23.3171C9.01835 23.3065 9.0563 22.9975 9.11422 22.6314C9.17214 22.2652 9.24937 21.8537 9.28532 21.7159C9.3499 21.4703 9.35856 21.4649 9.83392 21.3684Z" fill="white"/>
<path d="M5.09032 23.4616C5.328 23.2878 5.7015 23.0375 5.91987 22.9057C6.13758 22.7738 6.32998 22.6946 6.34729 22.7306C6.36394 22.7658 6.34263 23.118 6.30002 23.5122C6.25675 23.907 6.22146 24.5741 6.22213 24.9948C6.22213 25.4163 6.25275 26.1053 6.2907 26.5261C6.32799 26.9475 6.3433 27.3071 6.32532 27.325C6.30735 27.3437 5.94717 27.1266 5.52507 26.8423C5.10297 26.5587 4.71217 26.2591 4.65691 26.1766C4.57835 26.0594 4.55638 25.8064 4.55704 25.0115C4.55704 24.4536 4.58035 23.9476 4.60764 23.8877C4.63494 23.8277 4.85198 23.636 5.09032 23.4616Z" fill="white"/>
<path d="M9.50702 23.636C9.79397 23.5481 10.1388 23.4469 10.2727 23.4103C10.4065 23.3737 10.5503 23.3411 10.5916 23.3377C10.6435 23.3331 10.6581 23.4802 10.6395 23.8131C10.6242 24.0787 10.5995 24.4456 10.5836 24.6287C10.5676 24.8118 10.5816 25.3364 10.6142 25.7938C10.6468 26.2518 10.6595 26.6413 10.6428 26.6593C10.6255 26.6779 10.3206 26.6133 9.96441 26.5155C9.60889 26.4183 9.24271 26.3097 9.1515 26.2744C8.99705 26.2152 8.98107 26.1666 8.93247 25.6193C8.90384 25.2944 8.90384 24.7512 8.98506 23.7951L9.50702 23.636Z" fill="white"/>
<path d="M4.75811 27.6246C4.6882 27.1486 4.64359 26.7385 4.66024 26.7125C4.67622 26.6859 4.89259 26.8111 5.13959 26.9901C5.38726 27.1686 5.78405 27.4335 6.45515 27.8403L6.63757 28.6646C6.7381 29.1179 6.84995 29.5787 6.88656 29.6885C6.92318 29.7984 6.93849 29.9036 6.92052 29.9215C6.90254 29.9402 6.70081 29.8696 6.47179 29.7644C6.24277 29.6599 5.81002 29.4355 5.50976 29.2651C5.01776 28.9875 4.95917 28.9329 4.92455 28.7231C4.90391 28.5953 4.82868 28.1006 4.75811 27.6246Z" fill="white"/>
<path d="M9.20144 27.8836C9.13752 27.558 9.06961 27.1453 9.05097 26.9655C9.01835 26.6499 9.02235 26.6406 9.16748 26.6886C9.25004 26.7159 9.63219 26.823 10.017 26.9256C10.6109 27.0847 10.7234 27.136 10.764 27.2691C10.7906 27.355 10.8878 27.7398 10.981 28.124C11.0736 28.5088 11.1421 28.8323 11.1322 28.8436C11.1228 28.8543 10.7706 28.799 10.3499 28.7205C9.92845 28.6419 9.52433 28.554 9.4511 28.5261C9.34591 28.4855 9.29331 28.3496 9.20144 27.8836Z" fill="white"/>
<path d="M16.6893 28.6992C16.9922 28.594 17.3151 28.4682 17.407 28.4189C17.4982 28.3696 17.6181 28.3277 17.6733 28.325C17.7279 28.323 18.0055 28.606 18.2892 28.9548C18.5728 29.3037 18.8051 29.604 18.8051 29.6219C18.8051 29.6406 18.6327 29.7318 18.4223 29.825C18.2119 29.9189 17.8298 30.0687 17.5735 30.1585C17.1953 30.2917 17.0894 30.3063 17.0129 30.2384C16.9603 30.1925 16.7419 29.8849 16.5275 29.5554C16.3125 29.2258 16.1374 28.9415 16.1381 28.9229C16.1381 28.9049 16.3864 28.8044 16.6893 28.6992Z" fill="white"/>
<path d="M9.72406 29.805C9.59224 29.4302 9.48439 29.0926 9.48439 29.056C9.48439 29.0194 9.52167 28.9901 9.56761 28.9901C9.61355 28.9901 9.75935 29.0214 9.89184 29.0587C10.0243 29.0966 10.3952 29.1639 11.2993 29.289L12.0809 30.9868H11.748C11.5649 30.9868 11.1268 30.9495 10.7746 30.9035C10.2001 30.829 10.1262 30.8037 10.0496 30.6539C10.0024 30.5627 9.85589 30.1805 9.72406 29.805Z" fill="white"/>
<path d="M14.2613 29.2504C14.3984 29.2471 14.7506 29.1918 15.0435 29.1266C15.3365 29.062 15.6208 29.0041 15.676 28.9981C15.7306 28.9921 15.8238 29.0847 15.8831 29.2045C15.9423 29.3243 16.1594 29.6472 16.3651 29.9215C16.7293 30.4062 16.7359 30.4229 16.5908 30.4768C16.5089 30.5081 16.1048 30.6053 15.6927 30.6932C15.2806 30.7817 14.9284 30.8536 14.9104 30.8536C14.8917 30.8536 14.7613 30.6665 14.6201 30.4375C14.479 30.2091 14.2839 29.8643 14.1874 29.6719C14.0908 29.4801 14.0116 29.3077 14.0116 29.289C14.0116 29.2711 14.1241 29.2538 14.2613 29.2504Z" fill="white"/>
<path d="M12.218 30.3709C12.0376 29.9961 11.8712 29.6139 11.8492 29.5221L11.8086 29.3556L13.5789 29.3456L13.8924 29.9169C14.0655 30.2304 14.2673 30.5853 14.4776 30.9202L14.0615 30.9515C13.8325 30.9688 13.3984 30.9987 12.5469 31.0533L12.218 30.3709Z" fill="white"/>
<path d="M109.782 29.5923C109.928 29.591 110.162 29.6128 110.3 29.6401C110.523 29.684 110.55 29.7113 110.549 30.0884L110.133 30.0396C109.841 30.0056 109.665 30.0161 109.549 30.0747C109.457 30.1214 109.375 30.2114 109.366 30.2739C109.357 30.3371 109.387 30.4354 109.432 30.4927C109.467 30.5361 109.572 30.5948 109.692 30.6411L110.076 30.769C110.16 30.8003 110.235 30.832 110.281 30.856C110.372 30.9039 110.484 30.9904 110.529 31.0483C110.574 31.1071 110.612 31.2894 110.614 31.4536C110.617 31.6559 110.575 31.8122 110.483 31.936C110.409 32.0365 110.236 32.1532 110.098 32.1938C109.953 32.2378 109.676 32.2517 109.432 32.2271C109.204 32.2045 109.004 32.1635 108.987 32.1362C108.97 32.1089 108.97 32.0186 108.987 31.936C109.014 31.7977 109.052 31.786 109.499 31.7847C109.764 31.7847 110.013 31.7621 110.053 31.7349C110.092 31.7082 110.145 31.6265 110.17 31.5532C110.2 31.4668 110.176 31.3791 110.099 31.3013C110.035 31.2361 109.832 31.1406 109.649 31.0894C109.466 31.0381 109.24 30.9386 109.149 30.8687C109.054 30.7959 108.962 30.6368 108.933 30.4985C108.899 30.3322 108.915 30.181 108.983 30.022C109.046 29.8756 109.164 29.7531 109.3 29.6919C109.419 29.6387 109.636 29.5936 109.782 29.5923ZM35.8152 29.5903C35.9617 29.5897 36.2241 29.6109 36.3992 29.6382C36.6887 29.6841 36.7156 29.7052 36.7137 30.0552L36.1834 30.0386C35.7081 30.0239 35.6366 30.0385 35.5008 30.1743C35.3673 30.3073 35.3494 30.392 35.3494 30.8755C35.3494 31.2862 35.3784 31.4715 35.4656 31.606C35.5688 31.7664 35.6235 31.7866 36.3142 31.7866V31.52C36.3142 31.2984 36.2926 31.2534 36.1814 31.2534C36.0776 31.2534 36.0486 31.2092 36.0486 31.0542C36.0486 30.8592 36.0556 30.854 36.7137 30.854V32.186L36.198 32.2251C35.8395 32.253 35.6139 32.2378 35.4568 32.1753C35.3323 32.126 35.1745 32.0106 35.1072 31.9194C35.0394 31.8274 34.9534 31.5887 34.9148 31.3872C34.8749 31.1769 34.8664 30.8373 34.8943 30.5884C34.9249 30.3161 34.9955 30.0817 35.0847 29.9565C35.1632 29.8474 35.2989 29.7203 35.3875 29.6743C35.476 29.6284 35.6688 29.591 35.8152 29.5903ZM66.4402 29.5903C66.5866 29.5897 66.8491 29.6109 67.0242 29.6382C67.3137 29.6841 67.3416 29.7052 67.3396 30.0552L66.8084 30.0386C66.3334 30.0239 66.2625 30.0385 66.1267 30.1743C65.9929 30.3074 65.9744 30.3916 65.9744 30.8755C65.9744 31.286 66.0035 31.4715 66.0906 31.606C66.1938 31.7664 66.2491 31.7866 66.9402 31.7866V31.52C66.9402 31.2984 66.9176 31.2534 66.8064 31.2534C66.7029 31.2533 66.6736 31.209 66.6736 31.0542C66.6736 30.8591 66.6812 30.854 67.3396 30.854V32.186L66.823 32.2251C66.4645 32.253 66.2389 32.2378 66.0818 32.1753C65.9573 32.126 65.8005 32.0106 65.7332 31.9194C65.6653 31.8276 65.5785 31.5889 65.5398 31.3872C65.4999 31.1769 65.4914 30.8373 65.5193 30.5884C65.5499 30.3162 65.6206 30.0817 65.7097 29.9565C65.7883 29.8474 65.9249 29.7203 66.0135 29.6743C66.1021 29.6285 66.294 29.5911 66.4402 29.5903ZM79.2234 29.6196C79.5163 29.6383 79.7604 29.6614 79.7664 29.6714C79.7724 29.6814 79.7651 29.7721 79.7498 29.8726C79.7225 30.0547 79.7211 30.0552 79.2263 30.0386C78.8316 30.0253 78.7053 30.0454 78.6101 30.1372C78.5083 30.2351 78.5028 30.2766 78.574 30.4204C78.6199 30.5123 78.6878 30.5884 78.7244 30.5884C78.762 30.5888 78.964 30.6546 79.1736 30.7349C79.3837 30.8147 79.6085 30.9339 79.6726 31.0005C79.7525 31.083 79.7898 31.2299 79.7918 31.4702C79.7938 31.7662 79.766 31.8475 79.6092 32.0024C79.5067 32.1029 79.318 32.2015 79.1902 32.2222C79.0625 32.2428 78.785 32.2358 78.574 32.2065C78.2126 32.156 78.1892 32.1419 78.1912 31.7866H78.7244C79.21 31.7866 79.2636 31.7727 79.3308 31.6362C79.3792 31.5373 79.3823 31.4417 79.3406 31.354C79.3 31.2701 79.1221 31.1713 78.8572 31.0874C78.6262 31.0142 78.3669 30.8868 78.281 30.8042C78.1627 30.6904 78.1248 30.5825 78.1248 30.355C78.1248 30.1907 78.1546 29.9957 78.1912 29.9224C78.2278 29.8491 78.3552 29.7429 78.4744 29.687C78.6355 29.6118 78.8274 29.5943 79.2234 29.6196ZM105.954 29.5942C106.118 29.5929 106.367 29.6128 106.505 29.6401C106.728 29.684 106.755 29.7113 106.754 30.0884L106.321 30.0386C106.062 30.0086 105.82 30.0152 105.72 30.0552C105.605 30.1011 105.554 30.1735 105.554 30.2886C105.555 30.3896 105.614 30.4914 105.704 30.5474C105.786 30.598 106.004 30.6867 106.187 30.7446C106.37 30.8026 106.572 30.9031 106.636 30.9683C106.699 31.0342 106.769 31.1923 106.792 31.3208C106.818 31.4698 106.795 31.6436 106.726 31.8032C106.65 31.9809 106.548 32.0831 106.37 32.1597C106.181 32.2402 106.004 32.2566 105.155 32.186V31.7866H105.675C106.002 31.7866 106.224 31.7562 106.275 31.7036C106.32 31.6577 106.357 31.56 106.357 31.4868C106.359 31.4136 106.321 31.3201 106.273 31.2788C106.226 31.2375 106.067 31.1675 105.921 31.1216C105.774 31.0763 105.565 30.998 105.455 30.9487C105.345 30.8995 105.218 30.7834 105.172 30.6909C105.126 30.5977 105.087 30.4243 105.087 30.3052C105.085 30.186 105.147 30.0038 105.222 29.8999C105.298 29.7961 105.427 29.686 105.508 29.6548C105.589 29.6235 105.79 29.5962 105.954 29.5942ZM116.656 29.5894C116.812 29.5894 117.036 29.6341 117.155 29.688C117.274 29.7426 117.431 29.8852 117.505 30.0044C117.614 30.1841 117.638 30.339 117.638 30.8872C117.638 31.3359 117.605 31.6261 117.538 31.7759C117.483 31.8982 117.363 32.0469 117.272 32.1069C117.161 32.1788 116.958 32.2159 116.662 32.2173C116.314 32.2186 116.176 32.1888 116.029 32.0796C115.925 32.0031 115.796 31.854 115.741 31.7476C115.673 31.6151 115.64 31.3518 115.64 30.9204C115.64 30.4055 115.666 30.2449 115.776 30.0552C115.851 29.9267 116.016 29.7694 116.142 29.7056C116.27 29.6417 116.5 29.5894 116.656 29.5894ZM32.5867 32.186L31.8875 32.1909L31.4949 31.2388C31.2789 30.717 31.0762 30.2601 31.0437 30.2222C31.0111 30.1842 30.9861 30.5915 30.9881 32.186H30.5222V29.6558L31.2879 29.6577L31.6472 30.5718C31.844 31.0744 32.0312 31.5155 32.0642 31.5532C32.0975 31.5918 32.1219 31.2063 32.1199 29.6558H32.5867V32.186ZM63.2117 32.186L62.5125 32.1909L62.1199 31.2388C61.9043 30.7164 61.7008 30.259 61.6687 30.2222C61.6361 30.1842 61.6127 30.5915 61.614 32.186H61.1482V29.6558L61.9138 29.6577L62.2722 30.5718C62.4695 31.0738 62.6566 31.5146 62.6892 31.5532C62.7232 31.5918 62.7479 31.2063 62.7459 29.6558H63.2117V32.186ZM101.991 29.6558C102.349 29.6558 102.431 29.6765 102.456 29.772C102.472 29.8359 102.593 30.3533 102.724 30.9204C102.856 31.4883 102.977 32.0059 102.994 32.0698C103.018 32.1627 102.981 32.1867 102.808 32.188C102.622 32.1893 102.583 32.1588 102.523 31.9712C102.455 31.7537 102.453 31.7535 101.494 31.7202L101.461 31.9526C101.43 32.1683 101.41 32.186 101.194 32.186C101.066 32.186 100.963 32.1713 100.962 32.1528C100.962 32.1349 101.083 31.6028 101.232 30.9712C101.381 30.3394 101.515 29.7847 101.53 29.7388C101.549 29.6836 101.703 29.6558 101.991 29.6558ZM28.2586 30.0552H27.0603V30.7212H27.993V31.1206H27.0603V31.7866H28.2586V32.186H26.6609V29.6558H28.2586V30.0552ZM39.5105 32.186H39.0447V29.6558H39.5105V32.186ZM42.6531 29.689L42.9959 30.5483C43.1836 31.021 43.3757 31.4185 43.4217 31.4312C43.4855 31.4484 43.5047 31.2407 43.5047 29.6558H43.9041V32.186L43.2234 32.1528L42.8484 31.2427C42.642 30.7427 42.4493 30.3075 42.4207 30.2769C42.3922 30.2502 42.3702 30.6695 42.3728 32.186H41.907L41.9099 30.9175L41.9138 29.6489L42.6531 29.689ZM47.9656 30.0552H46.7674L46.8006 30.688L47.7654 30.7212V31.1206L46.8006 31.1538V31.7534L47.9656 31.7866V32.186H46.368V29.6558H47.9656V30.0552ZM51.8933 30.0552H50.6951V30.7212H51.6277V31.1206H50.6951V31.7866H51.8933V32.186H50.2957V29.6558H51.8933V30.0552ZM54.9226 29.6558C55.5525 29.6558 55.6396 29.671 55.7947 29.8062C55.9143 29.9106 55.9774 30.0459 56.0027 30.2554C56.0227 30.4204 56.0211 30.6373 55.9978 30.7378C55.9745 30.8383 55.8821 30.988 55.6326 31.2202L55.8279 31.687C55.935 31.9431 56.0222 32.1601 56.0222 32.1694C56.0203 32.1786 55.9092 32.1787 55.7742 32.1694C55.5373 32.1535 55.5201 32.1347 55.1892 31.3159L54.6228 31.3208V32.186H54.2234V29.6558H54.9226ZM58.7508 32.186H58.3513V29.6558H58.7508V32.186ZM75.618 30.437C75.7218 30.8677 75.8643 31.4378 76.0613 32.186H75.8279C75.6189 32.186 75.5881 32.1619 75.4617 31.7202H74.5301L74.4754 31.936C74.4301 32.1184 74.3886 32.1554 74.2097 32.1694C74.0937 32.1787 73.9969 32.1633 73.9949 32.1362C73.9936 32.1089 74.1191 31.539 74.2742 30.8706L74.5564 29.6558L75.4285 29.6528L75.618 30.437ZM97.7654 29.6558C98.3986 29.6558 98.4418 29.6656 98.6336 29.8394C98.7897 29.981 98.8439 30.0976 98.8738 30.355C98.9011 30.5873 98.8797 30.7642 98.8045 30.938C98.7451 31.075 98.6301 31.2321 98.5476 31.2866C98.4648 31.3412 98.1948 31.4083 97.4978 31.4868L97.4988 31.8364C97.4995 32.1805 97.4955 32.186 97.0994 32.186V29.6558H97.7654ZM113.345 32.186H112.879V29.6558H113.345V32.186ZM121.067 30.561C121.267 31.0582 121.455 31.4767 121.483 31.4946C121.51 31.5086 121.534 31.1005 121.534 29.6558H122V32.186L121.301 32.1851L120.923 31.27C120.715 30.7667 120.512 30.3477 120.472 30.3384C120.425 30.3291 120.402 30.6298 120.402 32.186H120.003V29.6558L120.701 29.6528L121.067 30.561ZM89.0945 30.8706C89.2509 31.5389 89.3784 32.1089 89.3777 32.1362C89.3763 32.1633 89.2808 32.1787 89.1648 32.1694C88.9858 32.1555 88.9436 32.1186 88.8445 31.7202L87.8865 31.7534L87.8328 31.9692C87.7855 32.1583 87.7518 32.1855 87.3465 32.1821L87.6297 30.9692C87.7861 30.3015 87.9135 29.7329 87.9129 29.7056C87.9143 29.6784 88.1174 29.6561 88.8113 29.6548L89.0945 30.8706ZM116.689 29.9897C116.625 29.9905 116.507 30.0279 116.427 30.0737C116.347 30.1196 116.233 30.2313 116.175 30.3218C116.095 30.4449 116.074 30.6203 116.088 31.0024C116.103 31.4086 116.135 31.5444 116.24 31.6528C116.313 31.7281 116.463 31.7934 116.573 31.7974C116.683 31.8014 116.833 31.7871 116.906 31.7651C116.979 31.7432 117.076 31.6486 117.122 31.5562C117.168 31.463 117.206 31.1621 117.206 30.8872C117.206 30.4212 117.192 30.3744 117.006 30.188C116.896 30.0781 116.753 29.9891 116.689 29.9897ZM75.0349 30.0542C74.975 30.0542 74.9119 30.0929 74.8953 30.1382C74.8785 30.1849 74.8196 30.4167 74.7644 30.6538C74.71 30.8916 74.6647 31.1234 74.6638 31.1694C74.663 31.2254 74.7735 31.2539 74.9959 31.2534C75.179 31.2534 75.3289 31.2306 75.3289 31.2026C75.3291 31.1732 75.2871 30.9048 75.2361 30.604C75.1643 30.1793 75.1185 30.0546 75.0349 30.0542ZM101.993 30.0542C101.939 30.0547 101.876 30.1375 101.853 30.2378C101.831 30.339 101.771 30.5857 101.72 30.7866C101.67 30.9874 101.629 31.174 101.628 31.2026C101.627 31.2306 101.791 31.2534 101.993 31.2534C102.254 31.2534 102.352 31.2293 102.334 31.1694C102.32 31.1234 102.26 30.8545 102.2 30.5708C102.124 30.208 102.063 30.0542 101.993 30.0542ZM88.3709 30.0708C88.3037 30.0579 88.2401 30.2216 88.1443 30.6519L88.0115 31.2505C88.598 31.2525 88.7098 31.226 88.7078 31.1694C88.7055 31.1233 88.6505 30.8617 88.5847 30.5874C88.5122 30.2865 88.4275 30.0815 88.3709 30.0708ZM97.4988 30.9868C98.0987 30.9908 98.2304 30.9571 98.3123 30.8726C98.3754 30.8073 98.4287 30.6494 98.4314 30.521C98.4334 30.3812 98.3881 30.2426 98.3162 30.1733C98.235 30.0948 98.0874 30.0575 97.8484 30.0562L97.4988 30.0542V30.9868ZM54.6238 30.0542V30.9204C55.1135 30.9217 55.3235 30.876 55.406 30.8208C55.5136 30.749 55.5554 30.6551 55.5555 30.4878C55.5555 30.3602 55.5103 30.2103 55.4558 30.1548C55.3913 30.0902 55.2261 30.0542 54.99 30.0542H54.6238Z" fill="#4F4F53"/>
</svg>
