<svg width="202" height="44" viewBox="0 0 202 44" fill="none" xmlns="http://www.w3.org/2000/svg">
<path d="M12.5527 35H2.38533V31.9027H5.55V14.598H2.38533V11.5007H12.5527V14.598H9.35433V31.9027H12.5527V35ZM31.3408 35L23.6648 22.0383L21.0724 17.022H20.9714V22.1393V35H17.3354V11.5007H21.6111L29.2534 24.4623L31.8458 29.4787H31.9468V24.3613V11.5007H35.5828V35H31.3408ZM41.369 35V11.5007H49.6846C51.6822 11.5007 53.4216 11.9383 54.903 12.8137C56.4067 13.6666 57.5626 14.9683 58.3706 16.719C59.2011 18.4472 59.6163 20.6243 59.6163 23.2503C59.6163 25.8763 59.2011 28.0647 58.3706 29.8153C57.5626 31.5436 56.4067 32.8453 54.903 33.7207C53.4216 34.5736 51.6822 35 49.6846 35H41.369ZM45.1733 31.6333H49.6846C50.8517 31.6333 51.873 31.3864 52.7483 30.8927C53.6461 30.3989 54.3306 29.6694 54.802 28.7043C55.2957 27.7392 55.5426 26.5497 55.5426 25.1357V21.365C55.5426 19.951 55.2957 18.7614 54.802 17.7963C54.3306 16.8312 53.6461 16.1018 52.7483 15.608C51.873 15.1142 50.8517 14.8673 49.6846 14.8673H45.1733V31.6333ZM73.4749 35H63.3075V31.9027H66.4722V14.598H63.3075V11.5007H73.4749V14.598H70.2765V31.9027H73.4749V35ZM93.3066 35H78.2576V11.5007H93.3066V14.8673H82.062V21.4323H92.263V24.799H82.062V31.6333H93.3066V35ZM98.2143 35V11.5007H106.53C108.528 11.5007 110.267 11.9383 111.748 12.8137C113.252 13.6666 114.408 14.9683 115.216 16.719C116.046 18.4472 116.462 20.6243 116.462 23.2503C116.462 25.8763 116.046 28.0647 115.216 29.8153C114.408 31.5436 113.252 32.8453 111.748 33.7207C110.267 34.5736 108.528 35 106.53 35H98.2143ZM102.019 31.6333H106.53C107.697 31.6333 108.718 31.3864 109.594 30.8927C110.491 30.3989 111.176 29.6694 111.647 28.7043C112.141 27.7392 112.388 26.5497 112.388 25.1357V21.365C112.388 19.951 112.141 18.7614 111.647 17.7963C111.176 16.8312 110.491 16.1018 109.594 15.608C108.718 15.1142 107.697 14.8673 106.53 14.8673H102.019V31.6333ZM124.967 25.5397V35H121.163V11.5007H131.297C132.711 11.5007 133.911 11.7812 134.899 12.3423C135.909 12.9034 136.694 13.7114 137.256 14.7663C137.817 15.7988 138.097 17.0557 138.097 18.537C138.097 20.1754 137.704 21.5782 136.919 22.7453C136.156 23.89 135.034 24.6868 133.552 25.1357L138.602 35H134.36L129.681 25.5397H124.967ZM124.967 22.3077H131.027C131.656 22.3077 132.194 22.1954 132.643 21.971C133.115 21.7466 133.474 21.4211 133.721 20.9947C133.967 20.5458 134.091 20.0071 134.091 19.3787V17.7627C134.091 17.1118 133.967 16.5731 133.721 16.1467C133.474 15.7202 133.115 15.3948 132.643 15.1703C132.194 14.9459 131.656 14.8337 131.027 14.8337H124.967V22.3077ZM151.951 35.404C149.909 35.404 148.125 34.9439 146.598 34.0237C145.095 33.081 143.927 31.7119 143.097 29.9163C142.267 28.0983 141.851 25.8763 141.851 23.2503C141.851 20.6019 142.267 18.3799 143.097 16.5843C143.927 14.7888 145.095 13.4309 146.598 12.5107C148.125 11.568 149.909 11.0967 151.951 11.0967C154.016 11.0967 155.801 11.568 157.304 12.5107C158.831 13.4309 160.009 14.7888 160.839 16.5843C161.67 18.3799 162.085 20.6019 162.085 23.2503C162.085 25.8763 161.67 28.0983 160.839 29.9163C160.009 31.7119 158.831 33.081 157.304 34.0237C155.801 34.9439 154.016 35.404 151.951 35.404ZM151.951 32.0037C153.186 32.0037 154.252 31.7231 155.15 31.162C156.047 30.6009 156.754 29.8041 157.271 28.7717C157.787 27.7392 158.045 26.516 158.045 25.102V21.3987C158.045 19.9622 157.787 18.7278 157.271 17.6953C156.754 16.6629 156.047 15.8773 155.15 15.3387C154.252 14.7776 153.186 14.497 151.951 14.497C150.762 14.497 149.707 14.7776 148.787 15.3387C147.866 15.8773 147.148 16.6629 146.632 17.6953C146.138 18.7278 145.891 19.9622 145.891 21.3987V25.102C145.891 26.516 146.138 27.7392 146.632 28.7717C147.148 29.8041 147.866 30.6009 148.787 31.162C149.707 31.7231 150.762 32.0037 151.951 32.0037ZM175.987 35H165.82V31.9027H168.985V14.598H165.82V11.5007H175.987V14.598H172.789V31.9027H175.987V35ZM180.77 35V11.5007H189.086C191.083 11.5007 192.823 11.9383 194.304 12.8137C195.808 13.6666 196.964 14.9683 197.772 16.719C198.602 18.4472 199.017 20.6243 199.017 23.2503C199.017 25.8763 198.602 28.0647 197.772 29.8153C196.964 31.5436 195.808 32.8453 194.304 33.7207C192.823 34.5736 191.083 35 189.086 35H180.77ZM184.574 31.6333H189.086C190.253 31.6333 191.274 31.3864 192.149 30.8927C193.047 30.3989 193.732 29.6694 194.203 28.7043C194.697 27.7392 194.944 26.5497 194.944 25.1357V21.365C194.944 19.951 194.697 18.7614 194.203 17.7963C193.732 16.8312 193.047 16.1018 192.149 15.608C191.274 15.1142 190.253 14.8673 189.086 14.8673H184.574V31.6333Z" fill="white"/>
</svg>
