<svg width="71" height="32" viewBox="0 0 71 32" fill="none" xmlns="http://www.w3.org/2000/svg">
<path d="M21.4422 1.49492C21.4422 1.49492 19.7925 1.76452 18.0299 2.21972C16.6969 2.56202 15.7755 2.84982 15.4295 2.95912V2.94812C14.9233 3.10472 14.4314 3.27232 13.9473 3.43972C14.4389 3.92412 14.7487 4.59072 14.7739 5.32662C15.1672 5.15542 15.5642 4.98782 15.9722 4.82402V4.82032C16.4274 4.65642 17.6581 4.20852 18.7184 3.85152C20.0402 3.40352 21.8356 2.85332 21.8356 2.85332C27.0614 1.41082 32.8495 0.573832 38.2414 0.613592C32.025 0.242092 26.3695 0.602672 21.445 1.49522L21.4422 1.49492ZM70.9204 21.1585C65.3262 26.2385 52.5825 29.2009 38.0251 29.2009C18.2503 29.2009 5.47172 23.3996 4.57882 15.7247C4.24742 12.8405 6.52013 10.0511 10.2964 7.66832C9.63003 7.16582 9.19652 6.37582 9.17832 5.48302C3.72652 8.34212 0.640625 12.1039 0.640625 15.9249C0.640625 24.3789 15.7629 31.5495 38.2302 31.2356C53.513 31.0244 65.1267 26.6654 70.9999 21.3308L70.9125 21.1596" fill="#EC1840"/>
<path d="M9.91919 5.42871C9.91919 4.28901 10.8406 3.36401 11.9804 3.36401C13.1201 3.36401 14.0451 4.28901 14.0451 5.42871C14.0451 6.56851 13.1201 7.48991 11.9804 7.48991C10.8406 7.48991 9.91919 6.56851 9.91919 5.42871Z" fill="white"/>
<path d="M11.0701 20.9487V9.11861L13.0148 8.86011V20.9482L11.0701 20.9487Z" fill="white"/>
<path d="M19.5521 20.9487V14.1786C19.5521 13.4064 19.4829 13.0897 19.3299 12.8714C19.1915 12.6748 18.9512 12.6165 18.6926 12.6165C18.3175 12.6165 17.753 12.9333 17.2871 13.5051V20.9477H15.3536V13.5679C15.3536 12.3591 15.197 11.6853 15.095 11.1314L16.912 10.658C16.963 10.8364 17.1342 11.3281 17.1524 11.8452C17.6477 11.2297 18.5579 10.7159 19.4465 10.7159C20.1349 10.7159 20.6812 10.9927 21.0236 11.4295C21.4206 11.9248 21.4862 12.595 21.4862 13.2689V20.9486L19.5521 20.9487Z" fill="white"/>
<path d="M27.8107 8.43517C27.5885 8.25677 27.2279 8.14017 26.8857 8.14017C26.405 8.14017 26.1136 8.59537 26.1136 9.36787V10.9087H27.9306L27.5701 12.6127H26.1136V20.9482H24.125V12.6127H23.4585V10.9087H24.125C24.125 10.9087 24.0922 10.2167 24.0922 9.58337C24.0922 8.07947 24.5875 7.28917 25.0499 6.89227C25.5161 6.51717 26.0439 6.39697 26.5433 6.39697C27.2611 6.39697 27.847 6.55727 28.3604 6.93237L27.8105 8.43617" fill="white"/>
<path d="M29.422 20.9489V10.9743L31.3925 10.7157V20.9484L29.422 20.9489ZM30.3651 9.50949C29.662 9.50949 29.0977 8.9377 29.0977 8.2239C29.0977 7.5138 29.6804 6.94189 30.3979 6.94189C31.1009 6.94189 31.6687 7.5136 31.6687 8.2239C31.6687 8.9375 31.086 9.50949 30.3651 9.50949Z" fill="white"/>
<path d="M38.0713 20.9487V14.1786C38.0713 13.4064 38.0057 13.0897 37.8491 12.8714C37.7144 12.6748 37.474 12.6165 37.2154 12.6165C36.8367 12.6165 36.2724 12.9333 35.8099 13.5051V20.9477H33.8722V13.5679C33.8722 12.3591 33.7192 11.6853 33.6172 11.1314L35.4343 10.658C35.4853 10.8364 35.6565 11.3281 35.6747 11.8452C36.17 11.2297 37.0767 10.7159 37.9688 10.7159C38.6535 10.7159 39.2034 10.9927 39.5459 11.4295C39.9393 11.9248 40.0085 12.595 40.0085 13.2689V20.9486L38.0713 20.9487Z" fill="white"/>
<path d="M46.1905 13.011C46.0011 12.5558 45.6916 12.2793 45.1965 12.2793C44.3225 12.2793 43.9438 13.0912 43.911 14.872H46.413C46.413 14.0817 46.3434 13.4079 46.1905 13.011ZM43.911 16.4741V16.6744C43.911 17.3263 43.962 17.9203 44.2024 18.4372C44.4937 19.049 44.9892 19.3878 45.5897 19.3878C46.2928 19.3878 46.8934 19.031 47.4947 18.3974L48.2634 19.8398C47.4075 20.7724 46.4826 21.1875 45.4188 21.1875C43.1393 21.1875 41.835 19.2281 41.835 15.903C41.835 14.1801 42.1299 12.9128 42.7634 11.9627C43.3607 11.0741 44.1835 10.6375 45.1782 10.6375C46.1213 10.6375 46.8753 11.0162 47.4068 11.7082C48.1099 12.6184 48.3826 13.8461 48.3826 16.0419V16.4752H43.9101" fill="white"/>
<path d="M53.0751 12.418C51.7714 12.418 51.7714 14.7924 51.7714 15.8233C51.7714 16.9122 51.7386 19.4254 53.126 19.4254C54.4116 19.4254 54.4116 16.9122 54.4116 15.8638C54.4116 14.775 54.4625 12.418 53.0751 12.418ZM53.0751 21.2068C50.4022 21.2068 49.6991 18.3588 49.6809 15.9043C49.6627 13.428 50.5549 10.6379 53.0932 10.6379C55.0965 10.6379 56.5348 12.4403 56.5348 15.8638C56.5348 18.4167 55.6971 21.2068 53.0751 21.2068Z" fill="white"/>
<path d="M62.3661 20.9487V14.1786C62.3661 13.4064 62.2969 13.0897 62.1403 12.8714C62.0055 12.6748 61.7652 12.6165 61.5066 12.6165C61.1315 12.6165 60.5635 12.9333 60.1011 13.5051V20.9477H58.1675V13.5679C58.1675 12.3591 58.0109 11.6853 57.9089 11.1314L59.726 10.658C59.777 10.8364 59.9482 11.3281 59.9664 11.8452C60.4617 11.2297 61.3684 10.7159 62.2606 10.7159C62.9453 10.7159 63.4952 10.9927 63.8377 11.4295C64.231 11.9248 64.3002 12.595 64.3002 13.2689V20.9486L62.3661 20.9487Z" fill="white"/>
</svg>
