<svg width="97" height="87" viewBox="0 0 97 87" fill="none" xmlns="http://www.w3.org/2000/svg">
<g clip-path="url(#clip0_46_247)">
<path d="M89.9673 86.3601C89.8542 86.3423 89.742 86.3136 89.6284 86.3075C88.49 86.2507 87.4051 86.0029 86.417 85.4114C85.2058 84.687 84.4674 83.5923 84.0773 82.2713C83.8646 81.5502 83.7247 80.7967 83.6524 80.0485C83.5627 79.1194 83.5252 78.1782 83.5571 77.2454C83.6092 75.7409 83.8904 74.2762 84.627 72.9355C85.4968 71.3521 86.8409 70.3949 88.5985 70.0508C89.2956 69.9142 90.0194 69.8564 90.7302 69.8639C91.916 69.8766 93.0755 70.0813 94.1303 70.6728C95.4467 71.4107 96.2114 72.5712 96.6207 73.9903C96.8531 74.7973 96.9911 75.6221 96.9977 76.4643C97.0038 77.2041 96.9991 77.9444 96.9977 78.6847C96.9977 78.7298 96.9874 78.7749 96.9794 78.8415H87.3324C87.3324 79.072 87.3206 79.2809 87.3342 79.4879C87.3939 80.3775 87.4601 81.2667 87.838 82.0957C88.2952 83.098 89.0693 83.6181 90.1734 83.6472C90.6339 83.6594 91.0935 83.6524 91.5329 83.4974C92.4286 83.1815 92.9474 82.5304 93.1638 81.6206C93.1872 81.523 93.2046 81.4239 93.2271 81.3131H96.8864C96.7029 82.751 96.102 83.9678 94.9932 84.9076C94.2524 85.5358 93.3806 85.9207 92.4338 86.1113C91.9193 86.215 91.3897 86.2432 90.8673 86.3085C90.8006 86.3169 90.7358 86.3427 90.6706 86.3606H89.9669L89.9673 86.3601ZM93.2417 76.491C93.2483 76.4441 93.2572 76.4075 93.2581 76.3704C93.275 75.6996 93.2102 75.0367 93.0215 74.3917C92.7845 73.5814 92.3253 72.9491 91.4963 72.6707C90.8818 72.4646 90.2499 72.451 89.6138 72.6003C89.0064 72.7425 88.4853 73.0364 88.1572 73.5641C87.9201 73.9453 87.7248 74.3724 87.6112 74.8057C87.4699 75.3456 87.4319 75.9127 87.3455 76.4915H93.2417V76.491Z" fill="#3396A4"/>
<path d="M0.950684 70.125H4.7433V86.0311H0.950684V70.125Z" fill="#3396A4"/>
<path d="M51.0086 10.8898C51.746 10.3171 52.446 9.71855 53.1999 9.19888C54.8308 8.07409 56.6325 7.33097 58.5745 6.92772C59.5749 6.72023 60.5852 6.59864 61.6048 6.60615C64.7651 6.62962 67.6578 7.53799 70.2463 9.34816C73.2671 11.4606 75.2838 14.3181 76.3302 17.8446C76.5861 18.7065 76.7138 19.6087 76.864 20.4983C77.0358 21.518 77.0391 22.5507 76.9569 23.5788C76.7781 25.8199 76.1772 27.9437 75.127 29.9364C74.2656 31.571 73.1559 33.0174 71.7879 34.2548C69.7444 36.1035 67.3728 37.3245 64.6674 37.8883C63.5121 38.1291 62.3456 38.2582 61.1701 38.2024C60.3974 38.1658 59.6294 38.0324 58.859 37.9442C58.7999 37.9376 58.7398 37.9432 58.6572 37.9432C58.713 38.246 58.7797 38.5305 58.8163 38.8187C58.8975 39.4642 58.9834 40.1106 59.0299 40.7589C59.0637 41.2326 59.0435 41.711 59.0369 42.187C59.0186 43.5352 58.7787 44.8492 58.4018 46.1402C57.8216 48.1287 56.893 49.9436 55.6025 51.5603C53.4384 54.2718 50.6776 56.0778 47.3056 56.9368C46.1405 57.2335 44.9556 57.3884 43.759 57.3889C41.5934 57.3903 39.5143 56.9519 37.5356 56.0548C36.1592 55.4309 34.8983 54.6323 33.7608 53.6371C31.1747 51.3754 29.4941 48.5686 28.7387 45.2205C28.5538 44.4009 28.4679 43.5573 28.3646 42.7212C28.2397 41.7091 28.2904 40.6918 28.4162 39.6858C28.7786 36.7898 29.8321 34.1656 31.5943 31.833C31.8004 31.5602 32.0229 31.2997 32.2403 31.0307C31.692 30.8265 31.1488 30.6406 30.6179 30.4237C29.081 29.797 27.6956 28.9248 26.4441 27.8343C23.873 25.5946 22.2313 22.7944 21.4276 19.4965C21.2061 18.5863 21.0516 17.6587 21.0418 16.716C21.0338 15.9753 20.9929 15.2303 21.0516 14.4942C21.1986 12.661 21.6511 10.8983 22.4036 9.21531C23.0162 7.84454 23.7969 6.5747 24.771 5.4349C26.9342 2.9032 29.625 1.20476 32.8689 0.412344C33.7425 0.198748 34.6307 0.0771626 35.5325 0.026463C39.0702 -0.17258 42.269 0.797286 45.1438 2.82903C47.6183 4.5777 49.4096 6.88735 50.5607 9.69085C50.7269 10.0955 50.8677 10.511 51.0086 10.8898ZM22.7496 16.0696C22.7735 16.4147 22.7848 17.04 22.867 17.6554C23.028 18.8609 23.3331 20.0326 23.7918 21.1635C24.7217 23.4577 26.1554 25.3768 28.0975 26.9048C29.6893 28.1573 31.4765 29.0192 33.4599 29.4675C33.6801 29.5172 33.8251 29.4764 33.9843 29.3407C35.149 28.345 36.4437 27.5578 37.8567 26.9691C39.3955 26.3279 40.994 25.9363 42.6638 25.8307C43.5238 25.7763 44.3786 25.7702 45.2321 25.8824C45.779 25.9542 45.7776 25.9603 46.1592 25.5279C46.2315 25.4458 46.3217 25.3768 46.3803 25.2866C46.4254 25.2176 46.4634 25.1214 46.455 25.043C46.4076 24.6205 46.3085 24.2003 46.2944 23.7774C46.2677 22.9676 46.2428 22.1531 46.2977 21.3457C46.354 20.5218 46.4498 19.6918 46.6301 18.8872C47.1408 16.6076 48.0985 14.5247 49.5214 12.6619C49.5791 12.5864 49.5984 12.4441 49.5744 12.3479C48.797 9.20498 47.1375 6.62822 44.5866 4.63168C42.4136 2.9309 39.9349 1.99999 37.1906 1.81222C36.0108 1.73147 34.8321 1.82395 33.665 2.07464C30.3574 2.78537 27.6844 4.50071 25.647 7.17605C23.7166 9.71057 22.7656 12.5981 22.7491 16.0691L22.7496 16.0696ZM43.6623 55.5923C44.6091 55.6064 45.5438 55.4994 46.4615 55.2952C49.6772 54.5807 52.3216 52.9259 54.3256 50.3168C56.5193 47.4607 57.5075 44.215 57.2718 40.6059C57.2052 39.5886 57.023 38.5972 56.7569 37.616C56.7066 37.4301 56.6203 37.3377 56.4414 37.2715C53.859 36.3213 51.6925 34.7745 49.926 32.6719C48.9153 31.4692 48.0821 30.1463 47.5206 28.6769C47.3356 28.1925 47.0629 27.9549 46.5803 27.8995C46.5188 27.8925 46.4583 27.8686 46.3972 27.87C46.3423 27.8709 46.2728 27.8789 46.2348 27.9122C45.0593 28.9347 43.7505 29.744 42.3225 30.3594C41.1395 30.8692 39.9133 31.2368 38.6341 31.4072C38.0881 31.48 37.5393 31.5739 36.9915 31.5757C36.1756 31.5781 35.3597 31.5119 34.5443 31.464C34.3875 31.4546 34.2702 31.4673 34.149 31.5889C33.2364 32.5048 32.4769 33.5338 31.8492 34.6614C30.632 36.8485 30.0485 39.2032 30.0503 41.6969C30.0513 42.7118 30.1757 43.7216 30.4057 44.7173C31.162 47.993 32.8318 50.6881 35.4898 52.7546C37.8919 54.622 40.6273 55.5431 43.6623 55.5919V55.5923ZM61.6212 36.4251C62.1263 36.3903 62.6333 36.3758 63.1352 36.3157C63.6328 36.2565 64.1304 36.1758 64.6186 36.0631C66.8541 35.5477 68.8318 34.5177 70.5397 32.9906C72.0616 31.6293 73.2305 30.0031 74.0506 28.1291C74.7468 26.5386 75.1411 24.8726 75.2317 23.1432C75.3021 21.7954 75.1792 20.4584 74.867 19.1398C74.3088 16.7836 73.2366 14.6942 71.6152 12.899C70.3214 11.4667 68.7891 10.3481 67.0198 9.56082C65.5406 8.90266 63.9914 8.51631 62.3789 8.42477C60.865 8.33886 59.3698 8.50223 57.9103 8.93505C55.4288 9.67066 53.322 11.0001 51.5986 12.9323C51.5465 12.9906 51.5292 13.1037 51.5367 13.1873C51.6066 13.9679 51.7259 14.7463 51.7531 15.5284C51.793 16.6724 51.6634 17.8075 51.4395 18.9327C50.9729 21.2809 50.0321 23.4183 48.6078 25.3397C48.4309 25.5786 48.3839 25.7791 48.4548 26.0781C48.5496 26.4785 48.7346 26.6837 49.1303 26.8353C51.6296 27.7925 53.7149 29.3346 55.4232 31.3927C56.5034 32.6939 57.3432 34.1356 57.9535 35.711C58.014 35.8669 58.0967 35.9387 58.2581 35.9791C59.3618 36.2561 60.4772 36.4288 61.6207 36.4255L61.6212 36.4251ZM49.6369 29.029C51.0057 31.6551 53.0042 33.6413 55.6584 34.959C54.2895 32.3358 52.2868 30.3552 49.6369 29.029ZM49.9612 15.2073C48.5576 17.6103 47.8887 20.1955 48.0361 22.9821C49.4397 20.581 50.1039 17.9953 49.9612 15.2073ZM36.4521 29.7571C39.0707 29.7674 41.4639 29.0328 43.6491 27.6094C41.0343 27.6038 38.6378 28.3277 36.4521 29.7571Z" fill="#3396A4"/>
<path d="M42.877 64.0459H46.6879V71.8635C46.8358 71.6757 46.9367 71.5457 47.0395 71.4171C47.6831 70.6124 48.5534 70.1881 49.5374 70.0036C50.0913 69.8998 50.6664 69.8473 51.2293 69.8618C52.5676 69.8961 53.7849 70.289 54.7289 71.2941C55.4519 72.0635 55.865 73.0047 56.1255 74.015C56.3687 74.9567 56.4997 75.9157 56.503 76.8898C56.5053 77.5686 56.5377 78.2498 56.4964 78.9262C56.3936 80.5989 56.1382 82.241 55.2819 83.7239C54.5111 85.059 53.3662 85.8763 51.8484 86.1674C50.7321 86.3814 49.6256 86.3763 48.5337 86.0265C47.7643 85.7801 47.1625 85.3125 46.7193 84.6389C46.679 84.5774 46.6362 84.5173 46.5743 84.4262C46.5377 84.9783 46.5039 85.4933 46.4691 86.012H42.8774V64.0464L42.877 64.0459ZM46.5433 78.2188C46.5607 78.5624 46.5607 78.9774 46.6062 79.3877C46.6846 80.0942 46.7466 80.8073 46.8991 81.4993C47.0573 82.2161 47.3939 82.8616 48.0751 83.2423C48.6436 83.5601 49.2614 83.6099 49.9021 83.5578C50.7772 83.4869 51.4306 83.0752 51.8682 82.3278C52.4752 81.2922 52.5958 80.1313 52.6615 78.969C52.7019 78.254 52.6709 77.5348 52.6686 76.818C52.6662 76.1011 52.5714 75.3942 52.3789 74.706C52.2099 74.1023 51.9517 73.5418 51.4414 73.1319C50.7997 72.617 50.0514 72.5353 49.2825 72.6348C48.8924 72.6855 48.4891 72.8024 48.1436 72.9869C47.4052 73.3803 47.0911 74.099 46.8855 74.8661C46.5973 75.9411 46.5888 77.0466 46.5433 78.2188Z" fill="#3396A4"/>
<path d="M76.7175 86.0112C76.6687 85.4187 76.6199 84.8263 76.5696 84.2207C76.4443 84.3996 76.3241 84.5822 76.1927 84.7564C75.5303 85.6342 74.6093 86.0628 73.5521 86.2041C72.9681 86.282 72.371 86.3163 71.7823 86.2966C70.8425 86.2647 69.9383 86.0586 69.152 85.4995C68.3357 84.9193 67.8822 84.1001 67.6953 83.1396C67.5953 82.6251 67.5503 82.0928 67.5484 81.5679C67.5362 77.8307 67.5418 74.0935 67.5418 70.3567V70.1511H71.3405V70.4515C71.3405 73.8836 71.3359 77.3162 71.3452 80.7483C71.3466 81.2816 71.3706 81.8181 71.5593 82.3326C71.8147 83.0288 72.317 83.3959 73.0371 83.5076C73.5831 83.5921 74.1239 83.5743 74.6548 83.4349C75.6599 83.1711 76.1575 82.4378 76.3565 81.4806C76.4523 81.0205 76.4988 80.5417 76.5006 80.0713C76.5128 76.858 76.5067 73.6447 76.5067 70.4314V70.1445H80.3515V86.0107H76.7171L76.7175 86.0112Z" fill="#3396A4"/>
<path d="M12.7129 86.0114H8.88037V70.1481H12.5383C12.5772 70.7152 12.6162 71.2865 12.657 71.8836C12.758 71.7465 12.8514 71.6142 12.9509 71.486C13.5537 70.7114 14.3536 70.249 15.2981 70.0284C16.5323 69.7397 17.7669 69.7462 18.9757 70.1382C20.4512 70.6166 21.3093 71.6733 21.629 73.1661C21.729 73.6328 21.7712 74.1196 21.7726 74.5975C21.7839 78.3032 21.7787 82.0095 21.7787 85.7152C21.7787 85.8077 21.7787 85.9007 21.7787 86.0077H17.9669V85.6786C17.9669 82.301 17.9739 78.9234 17.9594 75.5457C17.957 75.0373 17.9129 74.5148 17.7899 74.0238C17.581 73.191 16.9857 72.7615 16.1384 72.645C15.5981 72.5704 15.0667 72.5868 14.5428 72.7183C13.5598 72.9647 13.087 73.6773 12.8641 74.6059C12.7195 75.2082 12.7124 75.8218 12.7124 76.4363C12.7124 79.5247 12.7124 82.6127 12.7124 85.7011C12.7124 85.8007 12.7124 85.9002 12.7124 86.011L12.7129 86.0114Z" fill="#3396A4"/>
<path d="M29.7088 86.0129H25.8716V70.1448H29.5351C29.5717 70.7227 29.6074 71.2931 29.645 71.8902C29.7651 71.7306 29.8708 71.5827 29.9839 71.4405C30.5852 70.6866 31.3791 70.242 32.3062 70.0265C33.5498 69.7374 34.7947 69.7463 36.0073 70.1514C37.448 70.633 38.3 71.6729 38.6164 73.1427C38.7117 73.5863 38.7596 74.0492 38.761 74.5031C38.7723 78.2643 38.7676 82.0254 38.7681 85.7866C38.7681 85.8556 38.7681 85.9246 38.7681 86.0087H34.9764V85.7129C34.9764 82.3348 34.9839 78.9567 34.9684 75.5786C34.9661 75.0707 34.9083 74.551 34.7891 74.0576C34.5854 73.2154 33.991 72.7606 33.1376 72.6455C32.5973 72.5728 32.0654 72.5869 31.5415 72.7183C30.5374 72.9704 30.0444 73.6966 29.8585 74.6524C29.7628 75.1444 29.7168 75.6532 29.7149 76.1546C29.7022 79.3449 29.7088 82.5353 29.7088 85.7256V86.0119V86.0129Z" fill="#3396A4"/>
<path d="M59.7197 64.042H63.4795V86.0071H59.7197V64.042Z" fill="#3396A4"/>
<path d="M4.77987 67.5283H1.01025V64.0488H4.77987V67.5283Z" fill="#3396A4"/>
<path d="M28.6108 15.7826C28.6376 13.8081 29.2732 12.0594 30.5388 10.5581C31.7547 9.11602 33.3132 8.21891 35.1783 7.92645C37.4119 7.57672 39.4268 8.13582 41.1844 9.55917C42.6917 10.7797 43.6208 12.3575 43.9724 14.2648C44.4132 16.6538 43.9066 18.8372 42.4279 20.7596C41.2379 22.3064 39.6638 23.2781 37.726 23.6227C35.444 24.0283 33.401 23.4786 31.5965 22.0463C30.0262 20.8004 29.116 19.1508 28.747 17.1974C28.6597 16.7336 28.654 16.2548 28.6113 15.7826H28.6108Z" fill="#3396A4"/>
<path d="M43.4597 33.6147C45.4886 33.6466 47.104 34.21 48.5048 35.3615C50.023 36.6098 50.9633 38.2059 51.2867 40.1428C51.3923 40.7751 51.4604 41.43 51.4205 42.0665C51.3083 43.8561 50.6816 45.4569 49.508 46.8337C48.3363 48.2092 46.8622 49.0847 45.0971 49.4124C42.8105 49.8367 40.7355 49.2978 38.9122 47.8491C37.364 46.6192 36.4228 45.0024 36.074 43.0721C35.6468 40.707 36.1684 38.5396 37.6349 36.622C38.7855 35.1174 40.3093 34.1846 42.1519 33.7818C42.6499 33.6729 43.1668 33.6504 43.4602 33.6143L43.4597 33.6147Z" fill="#3396A4"/>
<path d="M53.832 22.4035C53.8766 20.438 54.5043 18.694 55.7605 17.1979C56.9491 15.7816 58.4649 14.8925 60.2995 14.5737C62.6129 14.1719 64.6724 14.7483 66.4774 16.2229C67.9721 17.4439 68.8739 19.0292 69.2203 20.9262C69.6578 23.3218 69.1227 25.4995 67.6392 27.4129C66.46 28.9344 64.8986 29.8911 62.9871 30.2385C60.6488 30.6633 58.5626 30.0789 56.7412 28.5945C55.2817 27.4054 54.3883 25.8464 54.0344 23.9945C53.9344 23.4706 53.8978 22.9345 53.832 22.404V22.4035Z" fill="#3396A4"/>
<g opacity="0.15">
<path d="M43.5696 27.5747C51.3069 27.5747 57.5791 33.8469 57.5791 41.5842C57.5791 49.3216 51.3069 55.5938 43.5696 55.5938C35.8322 55.5938 29.56 49.3216 29.56 41.5842C29.56 33.8469 35.8322 27.5747 43.5696 27.5747ZM43.5696 25.9316C41.4571 25.9316 39.407 26.3457 37.4762 27.1625C35.6121 27.9512 33.9385 29.0792 32.5016 30.5162C31.0646 31.9532 29.9361 33.6267 29.1479 35.4909C28.331 37.4217 27.917 39.4717 27.917 41.5842C27.917 43.6967 28.331 45.7468 29.1479 47.6776C29.9365 49.5417 31.0646 51.2153 32.5016 52.6522C33.9385 54.0892 35.6121 55.2177 37.4762 56.0059C39.407 56.8228 41.4571 57.2368 43.5696 57.2368C45.6821 57.2368 47.7321 56.8228 49.6629 56.0059C51.5271 55.2173 53.2006 54.0892 54.6376 52.6522C56.0746 51.2153 57.2031 49.5417 57.9913 47.6776C58.8081 45.7468 59.2222 43.6967 59.2222 41.5842C59.2222 39.4717 58.8081 37.4217 57.9913 35.4909C57.2026 33.6267 56.0746 31.9532 54.6376 30.5162C53.2006 29.0792 51.5271 27.9507 49.6629 27.1625C47.7321 26.3457 45.6821 25.9316 43.5696 25.9316Z" fill="#3396A4"/>
</g>
<path opacity="0.15" d="M43.6496 49.3655C47.9479 49.3655 51.4324 45.881 51.4324 41.5827C51.4324 37.2843 47.9479 33.7998 43.6496 33.7998C39.3512 33.7998 35.8667 37.2843 35.8667 41.5827C35.8667 45.881 39.3512 49.3655 43.6496 49.3655Z" fill="#3396A4"/>
<g opacity="0.15">
<path d="M61.5989 8.40086C69.3362 8.40086 75.6084 14.6731 75.6084 22.4104C75.6084 30.1477 69.3362 36.4199 61.5989 36.4199C53.8615 36.4199 47.5893 30.1477 47.5893 22.4104C47.5893 14.6731 53.8615 8.40086 61.5989 8.40086ZM61.5989 6.75781C59.4864 6.75781 57.4363 7.17186 55.5055 7.98869C53.6414 8.77735 51.9678 9.90542 50.5309 11.3424C49.0939 12.7793 47.9654 14.4529 47.1772 16.317C46.3603 18.2479 45.9463 20.2979 45.9463 22.4104C45.9463 24.5229 46.3603 26.5729 47.1772 28.5037C47.9658 30.3679 49.0939 32.0415 50.5309 33.4784C51.9678 34.9154 53.6414 36.0439 55.5055 36.8321C57.4363 37.6489 59.4864 38.063 61.5989 38.063C63.7114 38.063 65.7614 37.6489 67.6922 36.8321C69.5564 36.0434 71.2299 34.9154 72.6669 33.4784C74.1038 32.0415 75.2324 30.3679 76.0206 28.5037C76.8374 26.5729 77.2515 24.5229 77.2515 22.4104C77.2515 20.2979 76.8374 18.2479 76.0206 16.317C75.2319 14.4529 74.1038 12.7793 72.6669 11.3424C71.2299 9.90542 69.5564 8.77688 67.6922 7.98869C65.7614 7.17186 63.7114 6.75781 61.5989 6.75781Z" fill="#3396A4"/>
</g>
<path opacity="0.15" d="M61.6784 30.1937C65.9767 30.1937 69.4612 26.7092 69.4612 22.4108C69.4612 18.1124 65.9767 14.6279 61.6784 14.6279C57.38 14.6279 53.8955 18.1124 53.8955 22.4108C53.8955 26.7092 57.38 30.1937 61.6784 30.1937Z" fill="#3396A4"/>
<g opacity="0.15">
<path d="M36.1677 1.77781C43.9051 1.77781 50.1773 8.05002 50.1773 15.7873C50.1773 23.5247 43.9051 29.7969 36.1677 29.7969C28.4304 29.7969 22.1582 23.5247 22.1582 15.7873C22.1582 8.05002 28.4304 1.77781 36.1677 1.77781ZM36.1677 0.134766C34.0552 0.134766 32.0052 0.548813 30.0744 1.36564C28.2102 2.1543 26.5367 3.28237 25.0997 4.71933C23.6627 6.15629 22.5342 7.82985 21.746 9.694C20.9292 11.6248 20.5151 13.6749 20.5151 15.7873C20.5151 17.8998 20.9292 19.9499 21.746 21.8807C22.5347 23.7448 23.6627 25.4184 25.0997 26.8554C26.5367 28.2923 28.2102 29.4209 30.0744 30.2091C32.0052 31.0259 34.0552 31.4399 36.1677 31.4399C38.2802 31.4399 40.3303 31.0259 42.2611 30.2091C44.1252 29.4204 45.7988 28.2923 47.2357 26.8554C48.6727 25.4184 49.8012 23.7448 50.5894 21.8807C51.4063 19.9499 51.8203 17.8998 51.8203 15.7873C51.8203 13.6749 51.4063 11.6248 50.5894 9.694C49.8008 7.82985 48.6727 6.15629 47.2357 4.71933C45.7988 3.28237 44.1252 2.15383 42.2611 1.36564C40.3303 0.548813 38.2802 0.134766 36.1677 0.134766Z" fill="#3396A4"/>
</g>
<path opacity="0.15" d="M36.2472 23.5716C40.5456 23.5716 44.0301 20.0871 44.0301 15.7887C44.0301 11.4904 40.5456 8.00586 36.2472 8.00586C31.9489 8.00586 28.4644 11.4904 28.4644 15.7887C28.4644 20.0871 31.9489 23.5716 36.2472 23.5716Z" fill="#3396A4"/>
</g>
<defs>
<clipPath id="clip0_46_247">
<rect width="96.05" height="86.358" fill="white" transform="translate(0.950195)"/>
</clipPath>
</defs>
</svg>
