<svg width="127" height="24" viewBox="0 0 127 24" fill="none" xmlns="http://www.w3.org/2000/svg">
<g clip-path="url(#clip0_137_274)">
<path d="M123.242 7.09766H127.002V8.45954C127.002 9.45181 127.002 10.4441 127.002 11.4351C127.002 12.4174 126.915 12.508 125.953 12.508C121.924 12.508 117.894 12.508 113.864 12.508C113.639 12.508 113.416 12.508 113.149 12.508C113.149 13.4109 113.094 14.2755 113.164 15.1288C113.246 16.1211 113.714 16.5515 114.747 16.5998C116.15 16.6656 117.556 16.6668 118.96 16.6743C119.994 16.6805 121.028 16.6879 122.059 16.6321C122.925 16.585 123.235 16.2513 123.279 15.3893C123.308 14.8485 123.581 14.6624 124.069 14.6637C124.792 14.6649 125.516 14.6662 126.24 14.6637C126.741 14.6624 127.049 14.8832 126.997 15.4091C126.931 16.0839 126.897 16.7772 126.713 17.4234C126.314 18.8126 125.25 19.4576 123.893 19.6994C123.69 19.7354 123.484 19.78 123.279 19.78C119.81 19.7627 116.337 19.8297 112.873 19.6808C110.804 19.5915 109.491 18.2147 109.412 16.1422C109.298 13.1542 109.384 10.16 109.384 7.11874H113.101V9.38731H123.246V7.0989L123.242 7.09766Z" fill="white"/>
<path d="M89.8037 7.11719H93.7256V10.894C93.903 10.9138 94.001 10.9337 94.1002 10.9337C96.5585 10.9337 99.0181 10.9448 101.476 10.9225C102.791 10.9101 103.069 10.6 103.078 9.29645C103.081 8.61551 103.083 7.93333 103.085 7.25238C103.085 7.23254 103.094 7.21269 103.111 7.13951H107.096C107.015 8.59938 107.044 10.0493 106.824 11.4608C106.6 12.8909 105.537 13.7021 104.053 13.8782C103.564 13.9365 103.072 13.9576 102.467 14.0047C102.672 14.228 102.816 14.3917 102.965 14.548C104.406 16.0575 105.851 17.5633 107.284 19.0802C107.428 19.2327 107.502 19.451 107.609 19.6383C107.388 19.7041 107.168 19.8219 106.948 19.8256C105.895 19.8455 104.838 19.8752 103.787 19.812C103.42 19.7897 102.974 19.5999 102.727 19.3345C101.263 17.7617 99.838 16.153 98.4215 14.5368C98.1499 14.228 97.8758 14.1065 97.469 14.1139C96.2547 14.1387 95.0391 14.1226 93.7455 14.1226C93.7455 14.6373 93.7455 15.1049 93.7455 15.5725C93.7455 16.7508 93.7418 17.9279 93.7467 19.1062C93.7492 19.5416 93.6103 19.8331 93.1179 19.8331C92.2087 19.8318 91.2995 19.8331 90.3904 19.8331C90.0133 19.8331 89.8062 19.6532 89.8062 19.2712C89.8049 15.2426 89.8062 11.2152 89.8062 7.11719H89.8037Z" fill="white"/>
<path d="M32.3705 14.115C32.3705 15.803 32.3718 17.3931 32.3705 18.982C32.3705 19.7051 32.2626 19.8168 31.5569 19.8217C30.7506 19.8267 29.9444 19.813 29.1382 19.8267C28.6768 19.8341 28.4424 19.6493 28.4424 19.1743C28.4473 15.2263 28.4473 11.2783 28.4511 7.33034C28.4511 7.27204 28.4808 7.21375 28.5081 7.11328H32.3569V10.8727C32.5826 10.8901 32.76 10.9149 32.9361 10.9161C35.2506 10.9186 37.5663 10.9186 39.8807 10.9161C40.1288 10.9161 40.3781 10.9161 40.6237 10.8851C41.353 10.7946 41.6569 10.5043 41.6891 9.76263C41.7263 8.89812 41.6978 8.03237 41.6978 7.11824H45.647C45.5577 8.73191 45.9211 10.3865 45.3134 11.9803C44.8383 13.2244 43.8113 13.7317 42.5623 13.8768C42.117 13.9289 41.6668 13.9351 41.126 13.9686C41.2997 14.1732 41.4063 14.3134 41.5266 14.4399C42.9791 15.968 44.4377 17.4899 45.8839 19.0242C46.0402 19.1904 46.1245 19.4248 46.2436 19.627C46.0228 19.6927 45.8021 19.8093 45.5788 19.813C44.5667 19.8329 43.5533 19.8044 42.5412 19.8292C42.024 19.8416 41.642 19.6729 41.2984 19.2822C39.8782 17.6685 38.4457 16.066 36.992 14.4833C36.8121 14.2874 36.481 14.1373 36.2143 14.1298C34.9591 14.0926 33.7014 14.1137 32.373 14.1137L32.3705 14.115Z" fill="white"/>
<path d="M11.3677 7.07036C12.6998 7.07036 13.9191 7.04803 15.1358 7.0902C15.3566 7.09765 15.6456 7.32339 15.7721 7.52804C17.4763 10.3076 19.1558 13.1021 20.8426 15.8928C20.9592 16.0863 21.0832 16.2749 21.2891 16.5986V7.11873H24.9419C24.9518 7.34323 24.9679 7.54541 24.9679 7.74634C24.9692 11.4649 24.9704 15.1821 24.9679 18.9006C24.9679 19.7651 24.9084 19.8247 24.0575 19.8247C22.5915 19.8259 21.1242 19.852 19.6581 19.8024C19.3468 19.7912 18.9127 19.5816 18.7564 19.3273C16.334 15.3893 13.9488 11.4301 11.5562 7.47471C11.4967 7.37548 11.457 7.26385 11.3652 7.06912L11.3677 7.07036Z" fill="white"/>
<path d="M52.2277 7.11523C52.2277 9.73357 52.2215 12.3159 52.2301 14.8983C52.2351 16.2391 52.5687 16.6125 53.9071 16.6335C56.0355 16.6683 58.1651 16.6596 60.2935 16.6447C61.1097 16.6397 61.3887 16.3173 61.4049 15.4937C61.4214 14.656 61.8406 14.2372 62.6626 14.2372C63.3038 14.2372 63.9438 14.2447 64.5851 14.2372C64.9597 14.2323 65.2052 14.3935 65.1941 14.7718C65.168 15.6996 65.1767 16.636 65.0403 17.5501C64.858 18.7731 64.0381 19.4565 62.8449 19.6823C62.4009 19.7666 61.9419 19.8162 61.4905 19.8175C58.4107 19.8286 55.331 19.8286 52.2512 19.8175C51.8196 19.8162 51.383 19.7666 50.9588 19.6835C49.4382 19.3821 48.4347 18.3576 48.3975 16.7638C48.3219 13.5637 48.3752 10.3612 48.3752 7.11523H52.2264H52.2277Z" fill="white"/>
<path d="M77.326 16.1289C75.0314 16.1289 73.1746 14.2697 73.1945 11.9887C73.2131 9.72635 75.0513 7.90678 77.3198 7.9043C79.6144 7.90182 81.4737 9.7648 81.4514 12.0445C81.4291 14.3143 79.5971 16.1289 77.3273 16.1289H77.326Z" fill="white"/>
<path d="M48.4573 5.11698C48.595 3.35819 49.8266 2.25554 51.7863 2.23073C55.1935 2.18732 58.6007 2.21833 62.0079 2.22453C62.2535 2.22453 62.5003 2.27414 62.7422 2.32128C64.2641 2.61523 65.0393 3.49215 65.1273 5.0376C65.1546 5.51141 65.1311 5.9877 65.141 6.4615C65.1497 6.86585 64.9847 7.08043 64.558 7.07671C63.691 7.06926 62.8228 7.06926 61.9558 7.07671C61.5291 7.08043 61.389 6.86585 61.3741 6.46026C61.3319 5.29683 61.1322 5.11698 59.9663 5.11698C56.3731 5.11698 52.7798 5.11698 49.1866 5.11698C48.9447 5.11698 48.7041 5.11698 48.4561 5.11698H48.4573Z" fill="white"/>
<path d="M106.884 5.10843H89.8061C89.8061 4.29849 89.7751 3.51832 89.8297 2.74435C89.8421 2.56203 90.1187 2.34001 90.3246 2.24698C90.5144 2.1614 90.7711 2.22466 90.9981 2.22466C94.9672 2.22466 98.935 2.21225 102.904 2.23582C103.578 2.23954 104.272 2.32016 104.92 2.50001C106.126 2.83614 106.852 3.84329 106.886 5.10843H106.884Z" fill="white"/>
<path d="M45.5685 5.08782H28.4557C28.4557 4.26672 28.4371 3.46919 28.4631 2.6729C28.4767 2.26607 28.7955 2.21273 29.1354 2.21397C30.3955 2.22017 31.6545 2.21645 32.9146 2.21645C35.8269 2.21645 38.738 2.20033 41.6491 2.22886C42.3015 2.23506 42.9762 2.3132 43.5976 2.50049C44.8107 2.86763 45.4159 3.77555 45.5673 5.08782H45.5685Z" fill="white"/>
<path d="M109.364 5.05961C109.528 3.34423 110.732 2.28746 112.657 2.22793C114.35 2.17584 116.047 2.20436 117.741 2.20188C119.499 2.1994 121.255 2.19444 123.012 2.2056C123.506 2.20932 124.008 2.22173 124.492 2.30731C126.111 2.59259 126.781 3.34299 126.968 5.05961H109.361H109.364Z" fill="white"/>
<path d="M7.11949 7.08691H10.6408C10.652 7.28909 10.6706 7.48506 10.6706 7.68103C10.6718 11.443 10.673 15.2036 10.6706 18.9656C10.6706 19.7457 10.5937 19.8226 9.82466 19.8264C9.10154 19.8301 8.37843 19.8264 7.65408 19.8264C7.24973 19.8264 7.05003 19.6366 7.05128 19.2198C7.05624 15.252 7.05624 11.2842 7.05872 7.31514C7.05872 7.25808 7.08724 7.19978 7.11825 7.08815L7.11949 7.08691Z" fill="white"/>
<path d="M0.114192 13.4426C0.114192 11.5833 0.131556 9.72284 0.104269 7.86359C0.0955866 7.26947 0.299001 7.03753 0.891879 7.06233C1.59267 7.09334 2.29718 7.08218 2.9992 7.06481C3.46681 7.05365 3.68014 7.24094 3.6789 7.71971C3.6727 11.5424 3.67394 15.3651 3.67766 19.1866C3.67766 19.6219 3.50154 19.834 3.04882 19.8266C2.28477 19.8129 1.51949 19.8142 0.755443 19.8266C0.275435 19.834 0.105509 19.6132 0.10923 19.1432C0.124114 17.243 0.115432 15.3415 0.115432 13.4401L0.114192 13.4426Z" fill="white"/>
<path d="M67.252 15.2563C67.252 14.8011 67.2545 14.3472 67.252 13.892C67.2495 13.5372 67.4008 13.3623 67.7742 13.3661C68.7044 13.3747 69.6359 13.3412 70.5637 13.3871C70.7336 13.3958 70.9258 13.6712 71.0362 13.8647C71.1082 13.9887 71.0648 14.1896 71.0486 14.3534C70.9581 15.2886 71.3525 15.9224 72.1823 16.359C73.0989 16.8427 73.084 16.8712 72.5606 17.7841C72.2121 18.3931 71.8524 18.9972 71.5187 19.6148C71.3165 19.9882 71.0784 20.0502 70.715 19.8319C69.9361 19.3643 69.1385 18.9289 68.3596 18.4601C67.6278 18.0185 67.2867 17.3364 67.2545 16.4966C67.2383 16.0836 67.252 15.6693 67.252 15.2563Z" fill="white"/>
<path d="M67.2521 8.82305C66.8589 6.83976 67.7953 5.6354 69.5355 4.87755C69.9485 4.69771 70.3281 4.43972 70.7151 4.20281C71.0165 4.01925 71.2472 4.03413 71.4332 4.36158C71.8921 5.16655 72.3808 5.9554 72.8038 6.77898C72.8794 6.92658 72.7455 7.24659 72.614 7.41527C72.485 7.58148 72.2407 7.6621 72.041 7.76753C71.3501 8.12722 71.0065 8.68289 71.0487 9.4705C71.0611 9.69624 71.0413 9.92446 71.0512 10.1502C71.0686 10.5459 70.8788 10.7084 70.4931 10.7059C69.5864 10.7009 68.6797 10.7046 67.7718 10.7108C67.4096 10.7133 67.2459 10.5409 67.2496 10.1825C67.2545 9.72849 67.2508 9.27577 67.2508 8.82181L67.2521 8.82305Z" fill="white"/>
<path d="M77.3135 0.668233C77.703 0.794746 78.0962 0.866686 78.4336 1.04405C79.2175 1.45584 79.9703 1.92965 80.7455 2.3588C81.1114 2.56222 81.1896 2.7892 80.9663 3.15758C80.5297 3.88193 80.113 4.61745 79.7012 5.35668C79.5139 5.69281 79.2894 5.80072 78.9508 5.57374C78.8478 5.50552 78.73 5.45963 78.6308 5.38645C77.8109 4.79233 77.0146 4.81714 76.1662 5.37157C75.3749 5.88879 75.3513 5.85406 74.8701 5.02428C74.5079 4.40039 74.1569 3.76906 73.7798 3.15386C73.5491 2.77804 73.5801 2.52873 73.9919 2.30547C74.7361 1.9036 75.4481 1.44468 76.196 1.05149C76.5346 0.874128 76.9253 0.797227 77.3135 0.666992V0.668233Z" fill="white"/>
<path d="M77.2404 23.3472C76.9216 23.2331 76.4974 23.1314 76.1228 22.9379C75.4282 22.5782 74.7696 22.1491 74.08 21.7794C73.667 21.5587 73.5566 21.3168 73.8133 20.8951C74.2524 20.1732 74.6692 19.4377 75.076 18.6972C75.2782 18.3301 75.5138 18.2395 75.8735 18.474C76.1141 18.6315 76.3684 18.7704 76.6239 18.9056C77.3086 19.269 77.9275 19.073 78.5464 18.7022C79.4382 18.1664 79.4469 18.1788 79.9728 19.0879C80.3139 19.6758 80.6811 20.2526 80.9775 20.8628C81.0656 21.0439 81.0395 21.4594 80.9204 21.5339C79.9939 22.1081 79.0376 22.6365 78.0751 23.1525C77.8667 23.2641 77.5988 23.2678 77.2416 23.346L77.2404 23.3472Z" fill="white"/>
<path d="M87.3879 15.2149C87.7799 17.1995 86.8496 18.41 85.102 19.1604C84.7448 19.3142 84.4124 19.5325 84.0824 19.7422C83.7277 19.9679 83.4858 19.9121 83.2775 19.5375C82.8669 18.7995 82.4452 18.0665 82.0049 17.3458C81.7729 16.9663 81.8833 16.7418 82.2467 16.5557C82.5209 16.4156 82.7913 16.2593 83.0443 16.0844C83.6124 15.6937 83.7575 15.1244 83.7463 14.4633C83.7252 13.3259 83.7438 13.3272 84.8949 13.3259C85.4927 13.3259 86.093 13.3433 86.6896 13.3086C87.2416 13.2763 87.4326 13.5132 87.3941 14.0391C87.3656 14.4286 87.3892 14.823 87.3892 15.2149H87.3879Z" fill="white"/>
<path d="M87.3836 8.76058C87.3836 9.23563 87.4295 9.71688 87.3613 10.1808C87.3352 10.3619 87.0611 10.6335 86.8875 10.6434C86.023 10.6918 85.1547 10.6571 84.289 10.6732C83.8846 10.6806 83.7259 10.497 83.7383 10.1138C83.7445 9.90789 83.7271 9.70076 83.7408 9.49486C83.7941 8.67748 83.4307 8.11313 82.7162 7.74723C82.5153 7.64429 82.2685 7.56242 82.142 7.39622C82.0142 7.2263 81.8951 6.90505 81.972 6.75125C82.3814 5.94379 82.8576 5.16983 83.3054 4.38098C83.4778 4.07585 83.6986 4.06717 83.9764 4.23089C84.7752 4.70098 85.5913 5.14626 86.3765 5.63867C87.0338 6.0517 87.3452 6.69419 87.3799 7.46196C87.3997 7.89483 87.3836 8.32895 87.3836 8.76182V8.76058Z" fill="white"/>
<path d="M14.704 5.07869H7.06359C7.06359 4.26007 7.03383 3.45881 7.08964 2.66252C7.1008 2.50252 7.43693 2.24081 7.6267 2.23709C9.25774 2.2036 10.89 2.20856 12.5223 2.22965C12.7232 2.23213 13.0035 2.34376 13.1065 2.4988C13.6485 3.31618 14.1459 4.16456 14.7053 5.07869H14.704Z" fill="white"/>
<path d="M3.76167 3.64205C3.77407 4.69261 2.95297 5.54472 1.91357 5.56085C0.886578 5.57573 0.0158654 4.72734 -0.000258889 3.69663C-0.0163832 2.66095 0.8196 1.80016 1.85776 1.78156C2.89964 1.76295 3.74926 2.59273 3.76167 3.64081V3.64205Z" fill="white"/>
<path d="M24.9236 5.07314H21.3626C21.3626 4.25205 21.3316 3.4694 21.3874 2.69295C21.3998 2.52426 21.7111 2.25139 21.8972 2.24023C22.7418 2.19061 23.5915 2.19434 24.4374 2.23775C24.6061 2.24643 24.8938 2.50318 24.9025 2.65946C24.9496 3.45699 24.9248 4.25825 24.9248 5.07314H24.9236Z" fill="white"/>
<path d="M68.8928 12.747C68.316 12.747 67.7392 12.7457 67.1625 12.747C66.6899 12.7482 66.3327 12.5733 66.3141 12.0598C66.2967 11.5414 66.6415 11.3392 67.1178 11.3355C68.2924 11.3255 69.4658 11.3218 70.6404 11.3193C71.108 11.3193 71.4826 11.493 71.49 12.0077C71.4987 12.5547 71.1204 12.742 70.6218 12.7408C70.045 12.7408 69.4683 12.7408 68.8915 12.7408V12.7482L68.8928 12.747Z" fill="white"/>
<path d="M72.2357 21.8301C71.6081 21.804 71.2645 21.3029 71.5088 20.849C72.1352 19.688 72.7888 18.5382 73.4971 17.4256C73.6112 17.2458 74.0937 17.1639 74.3467 17.2384C74.7324 17.3512 74.8466 17.7581 74.6543 18.1078C74.0205 19.2651 73.3594 20.4074 72.6797 21.5386C72.5805 21.7036 72.325 21.773 72.2357 21.8288V21.8301Z" fill="white"/>
<path d="M83.3742 21.274C83.2588 21.4006 83.1075 21.7057 82.8892 21.764C82.6659 21.8235 82.2479 21.7218 82.14 21.5494C81.4281 20.4157 80.7521 19.2573 80.1344 18.0703C80.0402 17.8879 80.2337 17.4104 80.4358 17.2641C80.6008 17.145 81.1329 17.2182 81.2334 17.3769C81.9726 18.5416 82.6449 19.7484 83.3332 20.9441C83.3618 20.9937 83.3506 21.0657 83.3742 21.2753V21.274Z" fill="white"/>
<path d="M74.7351 6.32678C74.6061 6.46818 74.4573 6.77082 74.239 6.8316C74.0182 6.89237 73.599 6.79687 73.4923 6.62818C72.7803 5.49576 72.1019 4.33853 71.4829 3.15153C71.3862 2.96672 71.5772 2.46067 71.7769 2.34284C71.9716 2.22749 72.5062 2.31679 72.6178 2.49168C73.3397 3.6179 73.9884 4.79125 74.6557 5.9522C74.6942 6.01918 74.6904 6.1122 74.7326 6.32678H74.7351Z" fill="white"/>
<path d="M83.4296 2.78154C83.3205 3.04822 83.2696 3.22682 83.1815 3.3831C82.6122 4.38777 82.0342 5.38624 81.4612 6.38843C81.233 6.78781 80.9254 7.05945 80.4565 6.81138C79.9641 6.55215 79.9889 6.1354 80.2358 5.70252C80.8286 4.66437 81.3992 3.61133 82.0404 2.60418C82.1769 2.39084 82.5837 2.242 82.8553 2.25688C83.0563 2.26805 83.2398 2.59425 83.4296 2.7803V2.78154Z" fill="white"/>
<path d="M85.8684 12.7027C85.2705 12.7027 84.6739 12.7114 84.0761 12.7002C83.6259 12.6915 83.3071 12.4906 83.3096 12.0019C83.3121 11.5219 83.6197 11.2999 84.0724 11.2961C85.2879 11.285 86.5034 11.285 87.719 11.2875C88.1791 11.2875 88.4867 11.5231 88.4905 11.9883C88.4942 12.4583 88.1853 12.6828 87.7227 12.6853C87.105 12.689 86.4861 12.6853 85.8684 12.6853C85.8684 12.6915 85.8684 12.6965 85.8684 12.7027Z" fill="white"/>
</g>
<defs>
<clipPath id="clip0_137_274">
<rect width="127" height="22.6795" fill="white" transform="translate(0 0.667969)"/>
</clipPath>
</defs>
</svg>
