<svg width="147" height="38" viewBox="0 0 147 38" fill="none" xmlns="http://www.w3.org/2000/svg">
<path d="M146.447 29.1169C144.986 29.1081 143.52 29.0172 142.066 29.1198C140.928 29.2019 140.705 28.8061 140.711 27.7476C140.755 19.0422 140.738 10.3396 140.729 1.63416C140.729 1.11518 140.873 0.572738 140.597 0.0713456C142.207 0.0713456 143.819 0.13292 145.423 0.0449566C146.303 -0.00195732 146.476 0.220884 146.473 1.08586C146.432 10.4276 146.449 19.7722 146.449 29.114L146.447 29.1169Z" fill="white"/>
<path d="M84.1596 26.3637C79.8933 31.621 71.5133 29.2313 69.5899 22.81C68.5578 19.3647 68.678 15.9605 69.9505 12.5739C72.0587 6.95893 79.952 4.59564 84.2944 10.1315C84.5212 8.45822 85.5553 7.62159 87.3966 7.62159C89.8508 7.62159 89.8596 7.62159 89.8479 10.023C89.8186 16.5059 89.9212 22.9918 89.7042 29.4688C89.5283 34.6762 86.1886 37.6787 80.9401 37.8019C78.7997 37.8517 76.6416 37.9866 74.5745 37.2418C72.1789 36.3798 70.2613 35.0633 69.6749 32.3628C69.4902 31.5154 69.7247 31.3512 70.49 31.3776C71.657 31.4187 72.8299 31.3835 73.9998 31.3893C74.9263 31.3952 75.6271 31.3542 76.3425 32.4302C77.3072 33.8846 79.2307 33.565 80.814 33.389C82.2478 33.2307 83.3855 32.4977 83.84 31.0228C84.3003 29.5274 84.1948 27.9939 84.1566 26.3637H84.1596ZM84.1889 18.4294C84.1889 16.0866 83.8458 14.8199 82.9281 13.6266C81.0838 11.231 77.4538 11.3894 75.9408 13.9901C74.4249 16.5968 74.4601 19.3266 75.633 22.0447C76.3367 23.6749 77.6737 24.4256 79.4359 24.4666C81.2187 24.5077 82.5088 23.6925 83.3591 22.1854C84.0393 20.9774 84.2739 19.655 84.1859 18.4294H84.1889Z" fill="white"/>
<path d="M37.6035 22.1442C37.9436 22.1442 38.2866 22.1677 38.6268 22.1413C39.6647 22.0592 40.3684 22.1471 40.908 23.3845C41.8169 25.4692 46.3089 26.082 48.0565 24.5632C49.1501 23.6132 48.983 22.4638 47.5961 21.8363C45.9483 21.0916 44.1479 20.8365 42.4063 20.4113C41.2217 20.124 40.0811 19.7281 38.9522 19.2766C36.8734 18.4439 35.6038 17.0335 35.4718 14.7318C35.334 12.3539 36.0436 10.3014 37.9876 8.86463C41.5266 6.25212 48.0858 6.43684 51.5926 9.15491C52.9238 10.187 53.6949 11.527 53.9412 13.1866C54.0292 13.7789 53.9266 14.0926 53.2258 14.075C51.8154 14.0428 50.3992 14.0486 48.9889 14.075C48.467 14.0838 48.2998 13.8932 48.121 13.386C47.3645 11.2602 42.9751 10.5887 41.5178 12.3304C40.82 13.1661 41.0106 14.0633 42.0691 14.5588C43.6641 15.3094 45.4175 15.544 47.0977 16.0307C48.4024 16.409 49.719 16.7726 50.9739 17.2827C54.9264 18.8837 55.8793 23.8595 52.8945 26.9529C51.1616 28.7473 48.9654 29.3895 46.5875 29.5742C43.6935 29.797 40.8317 29.583 38.2163 28.202C36.2547 27.1669 35.1463 25.4604 34.7241 23.2877C34.557 22.4345 34.7095 22.0035 35.7093 22.1325C36.3309 22.2116 36.973 22.1471 37.6064 22.1471L37.6035 22.1442Z" fill="white"/>
<path d="M100.26 10.4781C102.13 7.83337 104.505 6.96253 107.356 7.02996C111.229 7.12086 114.094 9.60143 114.231 13.4718C114.407 18.4007 114.299 23.3384 114.334 28.2732C114.34 28.8889 114.158 29.1323 113.507 29.1088C112.34 29.0648 111.164 29.0267 110 29.1176C108.889 29.2056 108.502 28.9065 108.528 27.7161C108.61 23.702 108.581 19.685 108.549 15.6709C108.537 14.2283 108.297 12.7769 106.781 12.1201C105.145 11.4105 103.488 11.6363 102.104 12.7593C100.902 13.7328 100.524 15.1519 100.521 16.662C100.518 20.3887 100.483 24.1125 100.544 27.8363C100.562 28.8391 100.321 29.1997 99.2717 29.1205C97.8232 29.0091 95.8763 29.5955 95.0347 28.8684C94.0671 28.0327 94.7415 26.0565 94.7298 24.5787C94.6917 19.3537 94.7415 14.1286 94.6917 8.90359C94.6829 7.9096 94.9057 7.47565 95.9613 7.61639C96.536 7.69262 97.1283 7.63105 97.7147 7.63105C99.3704 7.63105 100.218 8.58301 100.257 10.4869L100.26 10.4781Z" fill="white"/>
<path d="M16.8675 10.255C19.2601 7.32878 22.1776 6.5371 25.5173 7.24668C28.7983 7.94452 30.7863 10.3078 30.8655 13.7765C30.9739 18.5647 30.886 23.3587 30.9212 28.1468C30.927 28.959 30.5781 29.1232 29.8685 29.1027C28.6517 29.0675 27.429 29.0411 26.2151 29.1115C25.2827 29.1643 25.0687 28.7919 25.0775 27.9328C25.1126 23.9158 25.098 19.8988 25.0921 15.8818C25.0921 13.1168 24.0043 11.7885 21.7231 11.7328C19.2455 11.6712 17.2164 13.3895 17.1461 15.8495C17.0435 19.4765 17.1021 23.1065 17.0962 26.7365C17.0943 28.3081 16.2919 29.0939 14.689 29.0939C12.4351 29.0939 11.3082 27.9582 11.3082 25.6868C11.3082 20.1216 11.3346 14.5564 11.2848 8.99129C11.276 7.93279 11.5193 7.47245 12.6511 7.6044C13.4194 7.69236 14.2169 7.69822 14.9851 7.6044C16.3837 7.43727 17.149 7.80964 16.8353 9.36953C16.7972 9.55132 16.847 9.75364 16.8705 10.2521L16.8675 10.255Z" fill="#44C0EF"/>
<path d="M126.508 6.66866C133.976 5.73625 137.034 10.2458 134.668 18.6464C135.627 18.4294 135.554 17.4325 136.076 16.9281C138.187 18.3004 138.876 21.4847 137.545 23.7131C134.929 28.0907 127.663 28.293 124.872 24.0385C123.465 21.8922 123.599 19.6521 124.761 17.4383C125.514 16.0016 126.678 14.8962 127.833 13.779C128.669 12.9698 129.516 12.1576 130.226 11.2457C131.405 9.72979 131.073 8.51003 129.399 7.54537C128.502 7.02931 127.458 7.0557 126.505 6.66866H126.508Z" fill="#44C0EF"/>
<path d="M6.00104 18.4913C6.00104 21.5876 5.96878 24.681 6.02156 27.7744C6.03915 28.7361 5.8339 29.2111 4.74902 29.1114C3.30349 28.9766 1.4328 29.6891 0.509178 28.8505C-0.432032 27.9943 0.221831 26.1119 0.210102 24.6839C0.171985 19.5088 0.24822 14.3336 0.160256 9.16131C0.136799 7.82426 0.559024 7.48121 1.80224 7.60436C2.81382 7.70405 3.84886 7.67766 4.86631 7.61022C5.78113 7.54864 6.02742 7.9005 6.0157 8.77427C5.97171 12.0143 5.9981 15.2543 5.9981 18.4942L6.00104 18.4913Z" fill="#44C0EF"/>
<path d="M64.6962 18.3649C64.6962 21.5081 64.6404 24.6514 64.7255 27.7887C64.7577 28.9234 64.3853 29.1961 63.3239 29.114C61.9282 29.0055 60.0458 29.5685 59.2395 28.8648C58.31 28.0555 58.9551 26.1467 58.9433 24.7217C58.9082 19.4527 58.9521 14.1837 58.9081 8.91761C58.8994 7.97933 59.0254 7.48087 60.1338 7.60695C61.6116 7.77408 63.6054 6.98534 64.444 7.92948C65.18 8.75634 64.6786 10.6857 64.6903 12.1312C64.7079 14.2101 64.6932 16.289 64.6962 18.3678V18.3649Z" fill="white"/>
<path d="M130.329 30.1992C129.687 30.3986 129.537 30.1171 129.294 29.8591C128.27 28.7654 127.314 28.7419 126.42 29.9089C125.895 30.5921 125.385 30.2373 124.878 30.1405C124.462 30.0614 123.998 30.0819 123.904 29.343C123.743 28.0734 122.614 27.4342 121.453 28.0206C120.477 28.5132 120.178 27.8066 119.612 27.4518C118.835 26.9651 119.456 26.6103 119.653 26.1734C120.016 25.3671 119.336 24.2382 118.319 24.2441C117.375 24.2499 117.128 23.8629 116.841 23.0917C116.507 22.2004 117.178 22.1857 117.597 21.872C118.556 21.1595 118.503 20.1801 117.369 19.5908C116.815 19.3034 116.595 19.0865 116.876 18.5382C117.125 18.0544 116.908 17.3184 117.935 17.2949C119.615 17.2568 119.97 16.6118 119.28 15.002C119.058 14.4772 119.41 14.3599 119.615 14.225C120.093 13.9142 120.33 13.19 121.172 13.4656C123.095 14.0931 123.391 13.8995 123.837 12.0728C124.022 11.3163 124.781 11.6594 125.247 11.4278C126.127 10.9909 126.403 11.8647 126.845 12.2869C127.285 12.7062 126.737 12.9525 126.526 13.19C125.714 14.0901 124.764 14.8789 124.051 15.8465C122.216 18.3388 121.843 21.051 123.174 23.9069C124.573 26.9035 127.177 28.0558 130.267 28.5513C130.774 28.6334 131.856 27.8007 131.845 29.2316C131.833 30.551 130.56 29.73 130.332 30.1992H130.329Z" fill="white"/>
</svg>
