<svg width="108" height="18" viewBox="0 0 108 18" fill="none" xmlns="http://www.w3.org/2000/svg">
<path d="M16.7969 3.50898C15.9387 0.200978 6.567 -0.282322 0.613313 2.73008C0.418773 2.82808 0.137443 3.03228 0.0873134 3.28818C0.0873134 3.28818 0.00725355 3.79698 0.00350355 3.82098C-0.0241765 4.00358 0.162884 3.96608 0.236204 3.92118C1.0189 3.44908 1.8883 3.02258 2.6844 2.78318C6.457 1.64508 11.239 1.60618 12.0793 4.07308C12.6636 5.79178 10.2558 7.20298 8.912 7.84498C8.395 8.09268 8.2146 8.32088 8.1832 8.57298C8.1563 8.79598 8.2326 9.12368 8.5326 9.56668C10.4459 12.3943 16.0674 16.4729 21.5893 17.8975C21.8078 17.9544 21.9275 17.926 22.0226 17.8766C22.0712 17.8496 22.1296 17.8085 22.0368 17.7599C18.3555 15.8429 14.844 12.6015 13.1118 10.0964C12.7183 9.52778 12.5933 9.14838 12.6262 8.84238C12.6547 8.56548 12.9083 8.33578 13.4253 8.09338C15.3745 7.18128 17.3902 5.80528 16.7969 3.50898ZM0.762964 14.1055H5.8113V9.05858H0.762964V14.1055ZM104.072 8.66208L100.479 7.48358C99.002 6.99648 98.55 6.78168 98.55 6.21978C98.55 5.77308 98.844 5.36228 100.693 5.36228H106.067C106.331 5.36228 106.525 5.28448 106.655 5.03988L107.297 3.82248L99.28 3.82318C95.644 3.82318 94.283 4.95978 94.283 6.53858C94.283 7.45068 94.803 8.66878 98.212 9.78668L101.804 10.9666C103.281 11.4537 103.734 11.6602 103.734 12.2214C103.734 12.6696 103.442 13.0804 101.591 13.0804L94.276 13.0796L88.617 3.82248H86.4703C84.798 3.82248 83.9427 4.28488 83.1616 5.55908L77.6276 14.621H81.386L85.9555 6.54008C86.067 6.34398 86.1575 6.34698 86.251 6.34698L90.061 13.0796H85.9196C85.6562 13.0796 85.4639 13.1582 85.3315 13.4021L84.6902 14.6203L95.213 14.621L95.218 14.6218L103.005 14.621C106.64 14.621 108 13.4837 108 11.9049C108 10.9913 107.482 9.78068 104.072 8.66208ZM71.5991 10.9666C73.0769 11.4537 73.5281 11.6602 73.5281 12.2214C73.5281 12.7093 73.2355 13.0804 71.3859 13.0804L65.0326 13.0796C64.7685 13.0796 64.5769 13.1582 64.4467 13.4021L63.8055 14.6203L72.8 14.621C76.4349 14.621 77.7952 13.4837 77.7952 11.9049C77.7952 10.9913 77.2767 9.78068 73.8678 8.66208L70.2747 7.48358C68.7977 6.99648 68.3458 6.78168 68.3458 6.21978C68.3458 5.77308 68.6002 5.36228 70.488 5.36228H75.8633C76.1267 5.36228 76.3197 5.28448 76.4507 5.03988L77.0919 3.82248L69.0753 3.82318C65.4389 3.82318 64.0786 4.95978 64.0786 6.53858C64.0786 7.45068 64.5971 8.66878 68.0068 9.78668L71.5991 10.9666ZM55.8435 5.36228H61.3356C61.6004 5.36228 61.7935 5.28448 61.9252 5.03988L62.5664 3.82248H54.7212C51.2299 3.82248 49.5337 5.08848 49.5337 7.69088V10.6711C49.5337 13.4433 51.28 14.6195 54.7212 14.6195L61.5309 14.6203C61.795 14.6203 61.9888 14.5417 62.119 14.2978L62.7602 13.0796H55.842C54.0313 13.0796 53.3826 12.4631 53.3826 11.2442V9.77538L60.5537 9.77618C60.8185 9.77618 61.0116 9.69688 61.141 9.45368L61.783 8.23558L53.3826 8.23708V7.34218C53.3826 6.31258 53.6153 5.36228 55.8435 5.36228ZM24.6563 5.36228H30.1484C30.4125 5.36228 30.6056 5.28448 30.7372 5.03988L31.3785 3.82248H23.5332C20.0412 3.82248 18.3427 5.08848 18.3427 7.69088V10.6711C18.3427 13.4433 20.0906 14.6195 23.5355 14.6195L30.3437 14.6203C30.6086 14.6203 30.8001 14.5417 30.931 14.2978L31.5715 13.0796H24.6548C22.8426 13.0796 22.1954 12.4631 22.1954 11.2442V9.77538L29.3657 9.77618C29.6291 9.77618 29.8237 9.69688 29.9538 9.45368L30.5958 8.23558L22.1954 8.23708V7.34218C22.1954 6.31258 22.4288 5.36228 24.6563 5.36228ZM35.4047 3.82248C37.6958 3.82248 38.2054 4.17638 39.0801 5.19468L44.6978 11.7807C44.7779 11.8735 44.8235 11.8989 44.9141 11.8989V3.82248H47.0839L47.0832 14.6203H44.7592C43.2223 14.618 42.5855 14.4983 41.651 13.3999L35.8567 6.59988C35.7781 6.50338 35.7272 6.47718 35.6382 6.47718L35.6397 14.6203L33.4698 14.621V3.82398L35.4047 3.82248Z" fill="white"/>
</svg>
