<svg width="50" height="22" viewBox="0 0 50 22" fill="none" xmlns="http://www.w3.org/2000/svg">
<path d="M3.9356 0.293213H0V4.22141H3.9356V0.293213Z" fill="#00AAE8"/>
<path d="M3.83756 20.759V6.6121H0.112061V20.759H3.83756ZM28.5995 20.8988V17.432C28.0532 17.432 27.5911 17.404 27.2549 17.3481C26.8628 17.2922 26.5687 17.1524 26.3726 16.9567C26.1765 16.761 26.0505 16.4814 25.9804 16.118C25.9244 15.7685 25.8964 15.3072 25.8964 14.748V9.7994H28.5995V6.6121H25.8964V1.0904H22.1569V14.776C22.1569 15.9362 22.2549 16.9148 22.451 17.6976C22.6471 18.4665 22.9832 19.0955 23.4454 19.5708C23.9076 20.0461 24.5238 20.3816 25.2661 20.5913C26.0224 20.801 26.9748 20.8988 28.1093 20.8988H28.5995ZM50 20.759V0H46.2605V20.759H50ZM18.5575 7.9961C17.5211 6.8777 16.0645 6.3186 14.2157 6.3186C13.3194 6.3186 12.5071 6.5003 11.7648 6.8638C11.0365 7.2272 10.4062 7.7305 9.91596 8.3735L9.70586 8.6391V8.4015V6.6121H6.02246V20.759H9.73396V13.2243V13.7415C9.73396 13.6576 9.73396 13.5738 9.73396 13.4899C9.77596 12.1619 10.0981 11.1833 10.7143 10.5543C11.3726 9.8833 12.1709 9.5478 13.0813 9.5478C14.1597 9.5478 14.986 9.8833 15.5323 10.5263C16.0645 11.1693 16.3446 12.078 16.3446 13.2383V13.2662V20.7451H20.1121V12.721C20.1261 10.708 19.5939 9.1144 18.5575 7.9961ZM44.3277 13.6576C44.3277 12.6372 44.1457 11.6866 43.7955 10.7919C43.4314 9.9112 42.9272 9.1284 42.2969 8.4574C41.6527 7.7864 40.8824 7.2692 39.986 6.8917C39.0896 6.5143 38.0952 6.3326 37.0168 6.3326C35.9944 6.3326 35.028 6.5283 34.1317 6.9057C33.2353 7.2971 32.451 7.8143 31.7927 8.4714C31.1345 9.1284 30.6023 9.9112 30.2241 10.8059C29.832 11.7005 29.6499 12.6651 29.6499 13.6856C29.6499 14.7061 29.832 15.6706 30.1961 16.5653C30.5602 17.46 31.0785 18.2428 31.7227 18.8998C32.367 19.5568 33.1653 20.088 34.0897 20.4655C35.014 20.8569 36.0364 21.0526 37.1289 21.0526C40.2941 21.0526 42.2549 19.6127 43.4314 18.2707L40.7423 16.2298C40.1821 16.9008 38.8375 17.8094 37.1569 17.8094C36.1065 17.8094 35.2381 17.5718 34.5798 17.0825C33.9216 16.6072 33.4734 15.9362 33.2353 15.1115L33.1933 14.9857H44.3277V13.6576ZM33.2213 12.3576C33.2213 11.3231 34.4118 9.5198 36.9748 9.5058C39.5378 9.5058 40.7423 11.3091 40.7423 12.3436L33.2213 12.3576Z" fill="white"/>
</svg>
