<svg width="208" height="35" viewBox="0 0 208 35" fill="none" xmlns="http://www.w3.org/2000/svg">
<path fill-rule="evenodd" clip-rule="evenodd" d="M124.681 15.7453L124.678 15.6511L124.899 10.4414L125.005 10.3867C125.431 10.4323 125.857 10.477 126.284 10.5221C131.717 11.1633 135.916 14.0587 136.085 17.4547C136.141 17.559 136.146 17.8255 136.096 17.9853L136.151 18.09C135.957 18.9974 135.705 19.7979 135.083 20.6589C133.546 17.9804 129.469 15.9208 124.681 15.7453Z" fill="white" stroke="white" stroke-width="0.552077"/>
<path fill-rule="evenodd" clip-rule="evenodd" d="M123.69 33.7248C113.743 33.1685 106.016 26.3564 106.452 18.4883C106.89 10.6215 115.278 4.62151 125.171 5.07269L124.899 10.4414C118.675 10.0805 113.434 13.897 113.102 18.8948C112.876 23.8384 117.792 28.1007 124.016 28.4617L124.122 28.4066C134.07 28.9634 142.435 24.4511 142.851 18.3364L142.525 23.5996C142.268 29.7656 133.798 34.3325 123.85 33.7749L123.69 33.7248Z" fill="white" stroke="white" stroke-width="0.518522"/>
<path fill-rule="evenodd" clip-rule="evenodd" d="M2.85598 11.2725V26.3571H0V11.2725H2.85598Z" fill="white"/>
<path fill-rule="evenodd" clip-rule="evenodd" d="M21.8072 11.2725V26.3571H16.9591L12.642 18.0734C12.4288 17.6599 12.0927 16.938 11.6359 15.9048L11.1487 14.8232L10.6724 13.7437H10.562L10.6067 14.7342L10.6394 15.7169L10.6619 17.6963V26.3571H7.80505C7.80505 26.3571 7.80505 11.2725 7.80505 11.2725H12.6525L16.5817 18.9133C16.9288 19.5913 17.3304 20.4155 17.7881 21.3795L18.3634 22.6081L18.9396 23.8466H19.0381L19.0051 22.8717L18.9722 21.9002L18.9499 19.9523V11.2725H21.8072Z" fill="white"/>
<path fill-rule="evenodd" clip-rule="evenodd" d="M36.3803 11.2725H39.41L34.5454 26.3571H30.1452L25.325 11.2725H28.2984L31.1289 19.8095C31.3944 20.6282 31.7891 21.9992 32.313 23.9231H32.39L32.6771 22.8953C33.0308 21.6126 33.3331 20.5876 33.5837 19.821L36.3803 11.2725Z" fill="white"/>
<path fill-rule="evenodd" clip-rule="evenodd" d="M45.4856 13.6687V17.5808H52.5751V19.6956H45.4856V23.9596H53.0336V26.3571H42.6285V11.2725H52.9628V13.6687H45.4856Z" fill="white"/>
<path fill-rule="evenodd" clip-rule="evenodd" d="M57.443 26.3571V11.2725H64.873C66.7244 11.2725 68 11.5916 68.7 12.2311C69.4004 12.8707 69.7516 14.0284 69.7516 15.704C69.7516 17.2261 69.576 18.2655 69.2256 18.8251C68.8744 19.3823 68.157 19.7693 67.0702 19.9816V20.081C68.7398 20.1845 69.5743 21.1609 69.5743 23.0129V26.3571H66.719V23.5912C66.719 22.029 65.9523 21.247 64.4207 21.247H60.3V26.3571H57.443ZM60.3 18.85H64.4095C65.3969 18.85 66.0526 18.6765 66.3748 18.3255C66.6987 17.9753 66.859 17.2741 66.859 16.2194C66.859 15.1452 66.7198 14.4511 66.4415 14.1377C66.1627 13.8252 65.5518 13.6687 64.6079 13.6687H60.3V18.85Z" fill="white"/>
<path fill-rule="evenodd" clip-rule="evenodd" d="M85.4905 15.677H82.6923C82.6774 15.5362 82.6703 15.4303 82.6703 15.364C82.6028 14.5084 82.416 13.9699 82.105 13.7501C81.796 13.5319 81.0662 13.421 79.9156 13.421C78.5592 13.421 77.6728 13.5477 77.2561 13.7981C76.8386 14.0485 76.6299 14.5763 76.6299 15.381C76.6299 16.333 76.8001 16.9055 77.1402 17.0972C77.4802 17.2896 78.6035 17.4362 80.5091 17.5392C82.7614 17.6663 84.2181 17.9871 84.88 18.505C85.541 19.0207 85.8715 20.0945 85.8715 21.7274C85.8715 23.7342 85.4838 25.0315 84.7081 25.6176C83.9336 26.2046 82.2242 26.4984 79.5822 26.4984C77.206 26.4984 75.628 26.2108 74.8485 25.6375C74.0703 25.0621 73.6813 23.901 73.6813 22.1497L73.6702 21.5983H76.4568L76.4671 21.9203C76.4671 22.973 76.6523 23.6183 77.0225 23.8526C77.3916 24.0889 78.4022 24.2069 80.0527 24.2069C81.3395 24.2069 82.1617 24.0707 82.5166 23.7975C82.8716 23.5239 83.0497 22.8927 83.0497 21.9034C83.0497 21.1732 82.9155 20.6893 82.6446 20.4496C82.3758 20.2091 81.7943 20.0622 80.9013 20.0096L79.3196 19.9094C76.9269 19.7699 75.399 19.44 74.7354 18.9139C74.0703 18.3907 73.7385 17.264 73.7385 15.5379C73.7385 13.7729 74.1382 12.5981 74.9363 12.0107C75.734 11.4242 77.3295 11.1299 79.7205 11.1299C81.9882 11.1299 83.5148 11.3989 84.303 11.9391C85.0895 12.4789 85.4838 13.5328 85.4838 15.0995L85.4905 15.677Z" fill="white"/>
<path fill-rule="evenodd" clip-rule="evenodd" d="M92.6724 13.6687V17.5808H99.7631V19.6956H92.6724V23.9596H100.222V26.3571H89.8145C89.8145 26.3571 89.8145 11.2725 89.8145 11.2725H100.151V13.6687H92.6724Z" fill="white"/>
<path fill-rule="evenodd" clip-rule="evenodd" d="M125.468 1.0313L125.171 5.07296C115.278 4.62177 106.89 10.6218 106.452 18.4886L106.588 14.3973C107.024 6.52959 115.414 0.529238 125.468 1.0313Z" fill="#969696" stroke="#969696" stroke-width="0.552077"/>
<path fill-rule="evenodd" clip-rule="evenodd" d="M113.057 19.321C113.039 19.5316 113.089 19.0246 113.102 18.8951C113.248 18.1488 113.288 17.4579 113.489 16.8167C114.52 20.8336 118.885 24.044 124.151 24.3698C124.409 24.3839 124.305 24.3765 124.305 24.3765C130.635 24.6819 135.956 21.8113 136.096 17.9857C136.341 14.1046 131.391 10.7981 125.004 10.3871L124.899 10.4417L125.14 6.29492L125.301 6.34584C132.797 6.76432 139.103 9.86014 141.65 13.9962L142.22 15.0852C142.674 16.125 142.898 17.2137 142.851 18.3367C142.434 24.4513 134.025 29.0232 124.077 28.4665L124.016 28.462C117.897 28.0447 113.252 24.0436 113.057 19.321Z" fill="#969696" stroke="#969696" stroke-width="0.552077"/>
<path fill-rule="evenodd" clip-rule="evenodd" d="M147.794 26.3571V11.2725H153.867H154.619C156.661 11.2725 158.041 11.6268 158.752 12.3388C159.464 13.0503 159.819 14.4233 159.819 16.4595C159.819 18.4799 159.48 19.8239 158.8 20.4862C158.122 21.1506 156.751 21.483 154.685 21.483L154.022 21.4942H150.649V26.3571H147.794ZM150.649 19.0967H153.911C155.217 19.0967 156.046 18.9456 156.397 18.6446C156.751 18.345 156.928 17.6351 156.928 16.5149C156.928 15.233 156.78 14.4378 156.487 14.1286C156.194 13.8227 155.431 13.6687 154.199 13.6687H150.649V19.0967Z" fill="white"/>
<path fill-rule="evenodd" clip-rule="evenodd" d="M173.02 23.4678H166.508L165.568 26.3571H162.539L167.558 11.2725H171.859L176.956 26.3571H173.981L173.02 23.4678ZM172.357 21.3526L169.748 13.4891L167.183 21.3526H172.357Z" fill="white"/>
<path fill-rule="evenodd" clip-rule="evenodd" d="M186.552 13.8442V26.3571H183.695V13.8442H179.322C179.322 13.8442 179.322 11.2725 179.322 11.2725H191.066V13.8442H186.552Z" fill="white"/>
<path fill-rule="evenodd" clip-rule="evenodd" d="M207.6 11.2725V26.3571H204.743V19.8364H197.655V26.3571H194.798V11.2725H197.655V17.4393H204.743V11.2725H207.6Z" fill="white"/>
</svg>
