<svg width="75" height="42" viewBox="0 0 75 42" fill="none" xmlns="http://www.w3.org/2000/svg">
<path d="M37.3011 3.18147C37.3011 2.33768 36.4241 -0.472701 32.5963 0.0686993C28.7685 0.610089 25.4919 1.43731 21.6319 4.51984C17.7719 7.6014 18.7932 12.5481 18.7932 12.5481C18.7932 12.5481 19.9189 18.2362 26.4605 20.0798C33.0021 21.9225 29.466 16.0676 29.466 16.0676L24.8763 13.586L24.3252 12.2564L23.6599 10.4723L24.4062 9.4265C24.4062 9.4265 25.7514 7.8053 28.9256 6.7859C30.6395 6.2357 32.5583 6.6132 35.0887 6.0943C36.3529 5.8348 37.3011 4.79395 37.3011 4.35889C37.3011 2.55814 37.3011 3.40193 37.3011 3.18343V3.18147Z" fill="url(#paint0_linear_12_3276)"/>
<path d="M24.406 9.42651C24.406 9.42651 22.0922 14.7546 31.7368 15.5877C31.7368 15.5877 32.6343 15.5009 32.3319 13.6416C32.0295 11.7814 32.5699 11.9004 33.0567 12.2038C33.5434 12.5062 36.625 15.2424 37.0796 17.2753C37.5341 19.3082 37.2961 20.2379 36.344 20.9197C35.3929 21.6006 34.2243 22.0659 30.6453 21.2875C27.0662 20.509 24.8928 19.7413 23.6383 17.9572C22.3839 16.173 21.5079 14.6269 22.0268 12.832C22.5458 11.0371 23.6705 9.62551 24.406 9.42851V9.42651Z" fill="#116947"/>
<path d="M35.877 25.7113C35.877 26.5551 36.7538 29.3655 40.5816 28.8241C44.4094 28.2827 47.6862 27.4555 51.5462 24.3729C55.4062 21.2914 54.3849 16.3447 54.3849 16.3447C54.3849 16.3447 53.2592 10.6566 46.7175 8.81295C40.1759 6.96925 43.7121 12.8251 43.7121 12.8251L48.3017 15.3068L48.8529 16.6364L49.5182 18.4205L48.7719 19.4662C48.7719 19.4662 47.4267 21.0875 44.2525 22.1069C42.5386 22.6571 40.6198 22.2795 38.0894 22.7985C36.8251 23.058 35.877 24.0988 35.877 24.5339C35.877 26.3346 35.877 25.4908 35.877 25.7094V25.7113Z" fill="url(#paint1_linear_12_3276)"/>
<path d="M48.772 19.4663C48.772 19.4663 51.0858 14.1382 41.4412 13.3051C41.4412 13.3051 40.5437 13.3919 40.8461 15.2512C41.1485 17.1114 40.6081 16.9924 40.1214 16.6891C39.6346 16.3867 36.553 13.6504 36.0985 11.6175C35.6439 9.58457 35.8819 8.65487 36.834 7.97307C37.7851 7.29217 38.9537 6.82687 42.5328 7.60527C46.1118 8.38377 48.2852 9.15147 49.5397 10.9356C50.7942 12.7198 51.6701 14.2659 51.1512 16.0608C50.6322 17.8557 49.5075 19.2673 48.772 19.4643V19.4663Z" fill="#27316E"/>
<path d="M1.45842 39.9703H0.565918V33.2063H1.45842V39.9703Z" fill="white"/>
<path d="M3.76719 34.9431L3.79469 35.5742C4.17839 35.0916 4.68029 34.8496 5.30049 34.8496C6.36339 34.8496 6.89829 35.4491 6.90789 36.6482V39.9704H6.04849V36.644C6.04569 36.281 5.96319 36.0143 5.79959 35.841C5.63729 35.6677 5.38429 35.5811 5.04059 35.5811C4.76139 35.5811 4.51669 35.6554 4.30629 35.8039C4.09589 35.9524 3.93089 36.1476 3.81399 36.3897V39.9718H2.95459V34.9444H3.76719V34.9431Z" fill="white"/>
<path d="M9.86305 38.8043L11.1075 34.9431H11.9862L10.1835 39.9704H9.52885L7.70825 34.9431H8.58695L9.86445 38.8043H9.86305Z" fill="white"/>
<path d="M14.8986 40.0638C14.2166 40.0638 13.6624 39.8396 13.2348 39.3927C12.8071 38.9458 12.594 38.3463 12.594 37.5969V37.4387C12.594 36.9396 12.6889 36.4954 12.88 36.1035C13.0712 35.7116 13.3365 35.405 13.6789 35.1836C14.0213 34.9622 14.3926 34.8508 14.7914 34.8508C15.4446 34.8508 15.9533 35.0667 16.315 35.4971C16.6766 35.9275 16.8581 36.5436 16.8581 37.3466V37.7041H13.4521C13.4644 38.1992 13.6088 38.6007 13.8866 38.9046C14.1643 39.2098 14.5164 39.3625 14.944 39.3625C15.2479 39.3625 15.5051 39.3006 15.7154 39.1768C15.9258 39.0531 16.1101 38.8894 16.2682 38.6846L16.7935 39.093C16.3727 39.7406 15.7402 40.0638 14.8973 40.0638H14.8986ZM14.7914 35.5562C14.4449 35.5562 14.1533 35.6827 13.9182 35.9344C13.6831 36.1874 13.5373 36.5408 13.4809 36.996H15.9987V36.9313C15.974 36.494 15.8557 36.1558 15.6453 35.9165C15.4349 35.6772 15.1503 35.5562 14.79 35.5562H14.7914Z" fill="white"/>
<path d="M18.6662 34.9431L18.6937 35.5742C19.0773 35.0916 19.5792 34.8496 20.1994 34.8496C21.2623 34.8496 21.7972 35.4491 21.8069 36.6482V39.9704H20.9474V36.644C20.9447 36.281 20.8622 36.0143 20.6986 35.841C20.5363 35.6677 20.2833 35.5811 19.9395 35.5811C19.6604 35.5811 19.4156 35.6554 19.2052 35.8039C18.9948 35.9524 18.8298 36.1476 18.7129 36.3897V39.9718H17.8535V34.9444H18.6662V34.9431Z" fill="white"/>
<path d="M24.2698 33.7261V34.9431H25.209V35.6072H24.2698V38.7287C24.2698 38.9308 24.3111 39.0821 24.3949 39.1824C24.4788 39.2828 24.6205 39.3337 24.8226 39.3337C24.9216 39.3337 25.0577 39.3158 25.231 39.2773V39.9704C25.0055 40.0322 24.7855 40.0625 24.571 40.0625C24.1873 40.0625 23.8972 39.947 23.7019 39.7146C23.5066 39.4822 23.409 39.1522 23.409 38.7245V35.6072H22.4932V34.9431H23.409V33.7261H24.2684H24.2698Z" fill="white"/>
<path d="M28.2974 40.0638C27.6153 40.0638 27.0612 39.8396 26.6349 39.3927C26.2072 38.9458 25.9941 38.3463 25.9941 37.5969V37.4387C25.9941 36.9396 26.089 36.4954 26.2801 36.1035C26.4713 35.7116 26.7367 35.405 27.0791 35.1836C27.4214 34.9622 27.7927 34.8508 28.1915 34.8508C28.8447 34.8508 29.3534 35.0667 29.7151 35.4971C30.0781 35.9275 30.2582 36.5436 30.2582 37.3466V37.7041H26.8535C26.8659 38.1992 27.0103 38.6007 27.2881 38.9046C27.5658 39.2098 27.9179 39.3625 28.3455 39.3625C28.6494 39.3625 28.9065 39.3006 29.1169 39.1768C29.3273 39.0531 29.5116 38.8894 29.6697 38.6846L30.195 39.093C29.7742 39.7406 29.1417 40.0638 28.2988 40.0638H28.2974ZM28.1901 35.5562C27.8436 35.5562 27.5521 35.6827 27.3169 35.9344C27.0818 36.1874 26.936 36.5408 26.8797 36.996H29.3974V36.9313C29.3727 36.494 29.2544 36.1558 29.044 35.9165C28.8337 35.6759 28.549 35.5562 28.1887 35.5562H28.1901Z" fill="white"/>
<path d="M32.6551 37.6423L32.1161 38.2048V39.9704H31.2566V32.8337H32.1161V37.1501L32.5753 36.5973L34.1416 34.9431H35.1866L33.2313 37.0428L35.4149 39.9704H34.4069L32.6551 37.6423Z" fill="white"/>
<path d="M41.2038 36.9548C40.4393 36.7348 39.8824 36.4653 39.5331 36.1435C39.1852 35.8231 39.0105 35.4271 39.0105 34.9568C39.0105 34.4246 39.2237 33.9832 39.65 33.6353C40.0762 33.2874 40.629 33.1128 41.3111 33.1128C41.7758 33.1128 42.1897 33.2022 42.5541 33.3823C42.9185 33.5625 43.2004 33.81 43.3998 34.1262C43.5992 34.4425 43.6996 34.7877 43.6996 35.1617H42.803C42.803 34.7519 42.6724 34.4288 42.4125 34.1936C42.1526 33.9585 41.7855 33.8416 41.3111 33.8416C40.871 33.8416 40.5286 33.9392 40.2825 34.1331C40.0364 34.327 39.9126 34.5965 39.9126 34.9403C39.9126 35.2167 40.0295 35.4505 40.2633 35.6402C40.497 35.8314 40.8944 36.006 41.4568 36.1641C42.0192 36.3223 42.4593 36.4969 42.7769 36.6867C43.0946 36.8778 43.3297 37.0992 43.4837 37.3536C43.6363 37.608 43.7133 37.9064 43.7133 38.2501C43.7133 38.7988 43.5002 39.2374 43.0725 39.5675C42.6449 39.8975 42.0742 40.0625 41.3578 40.0625C40.893 40.0625 40.4599 39.9731 40.057 39.7957C39.6541 39.6183 39.3433 39.3736 39.1261 39.0642C38.9074 38.7548 38.7988 38.4028 38.7988 38.0095H39.6953C39.6953 38.4179 39.8466 38.741 40.1477 38.9775C40.4489 39.2141 40.8532 39.3323 41.3578 39.3323C41.8281 39.3323 42.1897 39.2361 42.44 39.0449C42.6903 38.8524 42.8168 38.5911 42.8168 38.2597C42.8168 37.9284 42.7013 37.6726 42.4689 37.4911C42.2365 37.3096 41.8157 37.1308 41.2052 36.9548H41.2038Z" fill="white"/>
<path d="M46.3661 38.7108L47.5363 34.9431H48.4562L46.4348 40.7459C46.1213 41.582 45.6249 42 44.9429 42L44.7806 41.9862L44.4602 41.9257V41.2286L44.6926 41.2478C44.9841 41.2478 45.211 41.1887 45.3733 41.0718C45.5355 40.9535 45.6703 40.739 45.7748 40.4255L45.9645 39.914L44.1714 34.9431H45.1106L46.3647 38.7108H46.3661Z" fill="white"/>
<path d="M52.1495 38.6365C52.1495 38.4042 52.0615 38.224 51.8868 38.0948C51.7122 37.9669 51.4069 37.8555 50.971 37.762C50.5351 37.6685 50.19 37.5571 49.9356 37.4278C49.6798 37.2972 49.4914 37.1432 49.369 36.9631C49.2467 36.7829 49.1862 36.5698 49.1862 36.3223C49.1862 35.9098 49.3608 35.5619 49.7087 35.2772C50.0566 34.9926 50.5021 34.8496 51.0439 34.8496C51.6132 34.8496 52.0766 34.9967 52.4314 35.291C52.7861 35.5852 52.9635 35.962 52.9635 36.4199H52.1C52.1 36.1848 51.9996 35.9813 51.8002 35.8107C51.6008 35.6402 51.3492 35.555 51.0453 35.555C50.7414 35.555 50.4884 35.6237 50.311 35.7599C50.1336 35.896 50.0456 36.0748 50.0456 36.2948C50.0456 36.5024 50.1281 36.6592 50.2917 36.7637C50.4554 36.8696 50.7524 36.9699 51.1814 37.0662C51.6104 37.1625 51.9583 37.2766 52.2237 37.41C52.4905 37.5434 52.6871 37.7029 52.8164 37.8912C52.9456 38.0796 53.0089 38.3065 53.0089 38.576C53.0089 39.0257 52.8288 39.3846 52.4699 39.6555C52.111 39.9264 51.6448 40.0625 51.0714 40.0625C50.6685 40.0625 50.3124 39.991 50.003 39.8494C49.6936 39.7064 49.4502 39.5083 49.2755 39.2526C49.1009 38.9968 49.0129 38.7204 49.0129 38.4234H49.8723C49.8875 38.7108 50.003 38.9404 50.2188 39.1082C50.4334 39.2773 50.718 39.3612 51.0714 39.3612C51.3973 39.3612 51.6572 39.2952 51.8538 39.1632C52.0505 39.0312 52.1481 38.8552 52.1481 38.6365H52.1495Z" fill="white"/>
<path d="M55.2944 33.7261V34.9431H56.2336V35.6072H55.2944V38.7287C55.2944 38.9308 55.3357 39.0821 55.4195 39.1824C55.5034 39.2828 55.645 39.3337 55.8472 39.3337C55.9462 39.3337 56.0823 39.3158 56.2556 39.2773V39.9704C56.0301 40.0322 55.8101 40.0625 55.5955 40.0625C55.2119 40.0625 54.9218 39.947 54.7265 39.7146C54.5312 39.4822 54.4336 39.1522 54.4336 38.7245V35.6072H53.5178V34.9431H54.4336V33.7261H55.293H55.2944Z" fill="white"/>
<path d="M59.3233 40.0638C58.6412 40.0638 58.0871 39.8396 57.6608 39.3927C57.2331 38.9458 57.02 38.3463 57.02 37.5969V37.4387C57.02 36.9396 57.1149 36.4954 57.306 36.1035C57.4972 35.7116 57.7626 35.405 58.105 35.1836C58.4474 34.9622 58.8186 34.8508 59.2174 34.8508C59.8706 34.8508 60.3793 35.0667 60.741 35.4971C61.104 35.9275 61.2841 36.5436 61.2841 37.3466V37.7041H57.8794C57.8918 38.1992 58.0362 38.6007 58.314 38.9046C58.5917 39.2098 58.9438 39.3625 59.3714 39.3625C59.6753 39.3625 59.9324 39.3006 60.1428 39.1768C60.3532 39.0531 60.5375 38.8894 60.6956 38.6846L61.2209 39.093C60.8001 39.7406 60.1676 40.0638 59.3247 40.0638H59.3233ZM59.216 35.5562C58.8695 35.5562 58.578 35.6827 58.3428 35.9344C58.1077 36.1874 57.9619 36.5408 57.9056 36.996H60.4233V36.9313C60.3986 36.494 60.2803 36.1558 60.07 35.9165C59.8596 35.6759 59.5749 35.5562 59.2146 35.5562H59.216Z" fill="white"/>
<path d="M63.0855 34.9431L63.1089 35.5C63.4774 35.0668 63.9752 34.8496 64.6009 34.8496C65.3035 34.8496 65.7821 35.1191 66.0365 35.6581C66.2042 35.4161 66.4215 35.2208 66.6896 35.0723C66.9578 34.9238 67.274 34.8496 67.6398 34.8496C68.7426 34.8496 69.3037 35.434 69.3215 36.6014V39.969H68.4621V36.6523C68.4621 36.2934 68.3796 36.0239 68.216 35.8465C68.0523 35.6691 67.7759 35.5797 67.3895 35.5797C67.0705 35.5797 66.8051 35.6746 66.5947 35.8657C66.3843 36.0569 66.262 36.3127 66.2276 36.6344V39.9704H65.364V36.677C65.364 35.9455 65.0065 35.5811 64.2915 35.5811C63.7277 35.5811 63.3427 35.8217 63.135 36.3017V39.9718H62.2756V34.9444H63.0883L63.0855 34.9431Z" fill="white"/>
<path d="M73.5445 38.6365C73.5445 38.4042 73.4565 38.224 73.2819 38.0948C73.1072 37.9669 72.802 37.8555 72.3661 37.762C71.9302 37.6685 71.585 37.5571 71.3306 37.4278C71.0749 37.2972 70.8865 37.1432 70.7641 36.9631C70.6417 36.7829 70.5812 36.5698 70.5812 36.3223C70.5812 35.9098 70.7559 35.5619 71.1037 35.2772C71.4516 34.9926 71.8972 34.8496 72.439 34.8496C73.0082 34.8496 73.4716 34.9967 73.8264 35.291C74.1812 35.5852 74.3586 35.962 74.3586 36.4199H73.495C73.495 36.1848 73.3946 35.9813 73.1953 35.8107C72.9959 35.6402 72.7442 35.555 72.4403 35.555C72.1364 35.555 71.8834 35.6237 71.706 35.7599C71.5286 35.896 71.4406 36.0748 71.4406 36.2948C71.4406 36.5024 71.5232 36.6592 71.6868 36.7637C71.8504 36.8696 72.1474 36.9699 72.5765 37.0662C73.0055 37.1625 73.3534 37.2766 73.6188 37.41C73.8855 37.5434 74.0822 37.7029 74.2114 37.8912C74.3407 38.0796 74.4039 38.3065 74.4039 38.576C74.4039 39.0257 74.2238 39.3846 73.8649 39.6555C73.506 39.9264 73.0399 40.0625 72.4665 40.0625C72.0636 40.0625 71.7074 39.991 71.398 39.8494C71.0886 39.7064 70.8452 39.5083 70.6706 39.2526C70.496 38.9968 70.408 38.7204 70.408 38.4234H71.2674C71.2825 38.7108 71.398 38.9404 71.6139 39.1082C71.8284 39.2773 72.1131 39.3612 72.4665 39.3612C72.7924 39.3612 73.0522 39.2952 73.2489 39.1632C73.4455 39.0312 73.5432 38.8552 73.5432 38.6365H73.5445Z" fill="white"/>
<defs>
<linearGradient id="paint0_linear_12_3276" x1="18.6713" y1="10.2196" x2="37.3011" y2="10.2196" gradientUnits="userSpaceOnUse">
<stop stop-color="#209C50"/>
<stop offset="0.48" stop-color="#35EE86"/>
<stop offset="1" stop-color="#1F984D"/>
</linearGradient>
<linearGradient id="paint1_linear_12_3276" x1="54.5068" y1="18.6722" x2="35.877" y2="18.6722" gradientUnits="userSpaceOnUse">
<stop stop-color="#3962A0"/>
<stop offset="0.48" stop-color="#61A8E9"/>
<stop offset="1" stop-color="#3B66A4"/>
</linearGradient>
</defs>
</svg>
