<svg width="72" height="30" viewBox="0 0 72 30" fill="none" xmlns="http://www.w3.org/2000/svg">
<mask id="mask0_12_3255" style="mask-type:luminance" maskUnits="userSpaceOnUse" x="0" y="0" width="72" height="16">
<path d="M72 0.600098H0V15.4967H72V0.600098Z" fill="white"/>
</mask>
<g mask="url(#mask0_12_3255)">
<path d="M70.269 0.600057C70.2642 0.697157 70.1946 0.751156 70.1298 0.807456C70.1095 0.825456 70.0795 0.835056 70.0591 0.853056C69.9104 0.988556 69.7677 1.13006 69.6142 1.26206C69.4331 1.41796 69.2544 1.57386 69.0769 1.73336C68.9366 1.85926 68.7879 1.97676 68.6476 2.10146C68.4737 2.25616 68.295 2.40846 68.1211 2.56316C67.9688 2.69866 67.8117 2.82826 67.6594 2.96256C67.4843 3.11726 67.308 3.26956 67.133 3.42426C66.989 3.55256 66.8379 3.67606 66.6928 3.80316C66.5249 3.95066 66.3558 4.09696 66.188 4.24456C66.0237 4.38846 65.857 4.52996 65.6939 4.67506C65.5344 4.81656 65.3701 4.95446 65.2106 5.09596C65.0439 5.24466 64.8724 5.38856 64.7057 5.53726C64.5534 5.67276 64.3975 5.80236 64.244 5.93786C64.0689 6.09256 63.8926 6.24606 63.7175 6.39956C63.5652 6.53386 63.4081 6.66456 63.2558 6.80006C63.0927 6.94516 62.926 7.08786 62.7605 7.22946C62.6754 7.30256 62.595 7.37936 62.5111 7.45366C62.4715 7.48846 62.4271 7.51726 62.3864 7.54836C62.3492 7.57716 62.3132 7.60836 62.2701 7.64436C62.2569 7.71986 62.3372 7.74626 62.3792 7.79426C62.3936 7.81106 62.4224 7.81346 62.4391 7.82906C62.5986 7.97536 62.7557 8.12286 62.914 8.27036C63.0544 8.39986 63.1875 8.54016 63.3386 8.65646C63.4525 8.74406 63.5424 8.85436 63.6528 8.94196C63.8075 9.06426 63.9358 9.21536 64.0869 9.33886C64.1852 9.42046 64.2716 9.51396 64.3687 9.59426C64.5798 9.76816 64.7753 9.95886 64.9815 10.1376C65.123 10.2599 65.2502 10.3954 65.3893 10.5202C65.454 10.5777 65.5224 10.6317 65.5883 10.6892C65.6507 10.7432 65.6963 10.8152 65.7766 10.8475C65.785 10.8511 65.791 10.8607 65.7982 10.8679C65.9385 10.9974 66.0728 11.1354 66.2215 11.2541C66.3642 11.368 66.4818 11.5083 66.6221 11.6211C66.73 11.7074 66.8188 11.8129 66.9267 11.8945C67.0298 11.9712 67.1102 12.0708 67.2097 12.1475C67.3236 12.2339 67.4136 12.3466 67.5263 12.4305C67.6702 12.5373 67.7745 12.6848 67.9161 12.7879C68.0636 12.8934 68.1643 13.0493 68.3226 13.1381C68.3262 13.1405 68.3298 13.1453 68.3334 13.1489C68.4629 13.2676 68.5888 13.3935 68.7243 13.5051C68.873 13.6262 69.0002 13.7713 69.1477 13.8924C69.2424 13.9704 69.3252 14.0591 69.4187 14.137C69.643 14.3253 69.8552 14.528 70.0747 14.7223C70.1766 14.8134 70.2678 14.9178 70.3781 14.9969C70.4704 15.0629 70.546 15.1456 70.6275 15.2212C70.6407 15.2331 70.6503 15.2499 70.6575 15.2607C70.6527 15.2739 70.6515 15.2787 70.6491 15.2823C70.6467 15.2859 70.6419 15.2919 70.6383 15.2919C68.7711 15.2919 66.9051 15.2919 65.0379 15.2919C64.3387 14.5976 63.6504 13.8936 62.938 13.2136C62.4032 12.704 61.8923 12.1715 61.3526 11.6678C60.9833 11.3236 60.6403 10.9543 60.2649 10.6185C59.9771 10.3607 59.7109 10.0824 59.4339 9.81496C59.1544 9.54516 58.8834 9.26816 58.6064 8.99706C58.5332 8.92636 58.4745 8.84116 58.3773 8.79326C58.3438 8.77646 58.3342 8.71166 58.3006 8.69606C58.2574 8.67566 58.2322 8.65646 58.2166 8.61096C58.2094 8.59056 58.1663 8.58696 58.1483 8.56656C58.0643 8.47186 57.9504 8.40346 57.8916 8.28596C57.8785 8.26076 57.8509 8.24276 57.8293 8.22236C57.7094 8.10366 57.5894 7.98376 57.4695 7.86496C57.4515 7.84706 57.4371 7.82066 57.4155 7.81466C57.3148 7.78466 57.3184 7.71026 57.3268 7.63116C57.3472 7.62036 57.3712 7.61436 57.388 7.59876C57.5259 7.47406 57.6638 7.34816 57.7993 7.22106C58.0332 7.00156 58.2586 6.77366 58.4985 6.56146C58.6699 6.41036 58.8402 6.25686 59.0153 6.11056C59.236 5.92586 59.4195 5.70636 59.6365 5.51926C59.7864 5.39096 59.916 5.24106 60.0695 5.12116C60.3765 4.87896 60.6571 4.60786 60.9449 4.34406C61.1524 4.15336 61.3418 3.94586 61.5553 3.76366C61.7592 3.58976 61.9535 3.40266 62.1561 3.22876C62.3864 3.03206 62.5854 2.80786 62.8073 2.60516C62.9584 2.46846 63.1119 2.33416 63.2678 2.20346C63.4405 2.05826 63.6 1.89646 63.7655 1.74286C63.8986 1.61936 64.0257 1.48866 64.1684 1.37716C64.274 1.29556 64.3543 1.18646 64.4635 1.11456C64.6241 1.00776 64.7237 0.838657 64.8892 0.739157C64.9252 0.717557 64.9432 0.652756 64.9336 0.597656H70.2654L70.269 0.600057Z" fill="white"/>
<path d="M34.8962 15.3819V4.56476C34.9562 3.29476 34.913 2.02476 34.9262 0.75476C34.9262 0.74516 34.9298 0.73676 34.9334 0.71756C35.0593 0.71756 35.1924 0.69716 35.316 0.72116C35.5666 0.77036 35.8184 0.74396 36.0679 0.74516C39.0384 0.74876 42.0077 0.74636 44.9782 0.74876C45.0933 0.74876 45.2097 0.771561 45.3248 0.776361C45.4447 0.781161 45.5658 0.76796 45.6834 0.77996C45.7949 0.79196 45.9028 0.83866 46.0179 0.83626C46.0611 0.89506 46.1331 0.84226 46.181 0.87586C46.2362 0.91426 46.2962 0.886661 46.3525 0.895061C46.4137 0.904661 46.4737 0.92146 46.5348 0.92266C46.6008 0.92386 46.6511 0.96106 46.7075 0.97546C46.825 1.00536 46.9402 1.04496 47.0577 1.06776C47.174 1.09056 47.2843 1.13016 47.3911 1.16846C47.5074 1.21046 47.6261 1.25006 47.7424 1.29446C47.9451 1.37236 48.143 1.46116 48.3361 1.55706C48.4596 1.61936 48.5831 1.68176 48.7066 1.74656C48.8973 1.84606 49.0808 1.95756 49.2547 2.08356C49.4202 2.20466 49.5929 2.31256 49.7476 2.44806C49.8939 2.57516 50.0462 2.69516 50.1865 2.82826C50.2704 2.90856 50.3724 2.97336 50.4467 3.06206C50.6062 3.25276 50.7849 3.42666 50.9228 3.63776C51.014 3.77926 51.1159 3.91596 51.2118 4.05506C51.2538 4.11746 51.3018 4.17616 51.3365 4.24216C51.4733 4.50236 51.6172 4.76136 51.7383 5.02886C51.8354 5.24106 51.917 5.46296 51.9805 5.68726C52.0177 5.82156 52.0657 5.94986 52.1161 6.07816C52.1436 6.14536 52.1568 6.21606 52.1448 6.28926C52.1364 6.34436 52.1472 6.40196 52.1784 6.43796C52.2324 6.50026 52.1712 6.58546 52.236 6.63936C52.2456 6.75936 52.248 6.88046 52.2684 6.99796C52.2839 7.08916 52.2875 7.18266 52.3199 7.27376C52.3403 7.33136 52.3283 7.40096 52.3247 7.46446C52.3139 7.65036 52.3691 7.83026 52.3583 8.01736C52.3475 8.20566 52.3559 8.39386 52.3559 8.58216C52.3559 8.71766 52.3055 8.84956 52.3259 8.98636C52.272 9.05466 52.3211 9.14346 52.2887 9.20936C52.2516 9.28736 52.2732 9.36286 52.2672 9.43846C52.2648 9.47796 52.254 9.51036 52.2372 9.54516C52.1988 9.63026 52.2168 9.72986 52.1652 9.81376C52.1532 9.83296 52.1436 9.85816 52.146 9.87976C52.1568 9.98766 52.1185 10.0837 52.0861 10.1832C52.0021 10.4506 51.9098 10.7157 51.8007 10.9735C51.7227 11.1594 51.622 11.3369 51.5272 11.5155C51.4613 11.6379 51.3905 11.7578 51.3162 11.8741C51.2358 12 51.1507 12.1236 51.0655 12.2471C50.99 12.3562 50.9096 12.4617 50.8341 12.5697C50.7261 12.7244 50.5954 12.8575 50.4767 12.999C50.3712 13.1249 50.2572 13.2484 50.1133 13.3408C50.0246 13.3983 49.9478 13.4763 49.8711 13.5494C49.6492 13.7593 49.3926 13.9284 49.1372 14.0915C48.9033 14.2402 48.6683 14.3913 48.408 14.4956C48.1514 14.5988 47.9067 14.7259 47.6453 14.8206C47.4378 14.8962 47.2292 14.9741 47.0169 15.0353C46.861 15.0809 46.7063 15.1528 46.536 15.142C46.5156 15.1408 46.4928 15.1576 46.4724 15.1672C46.3945 15.202 46.3082 15.1936 46.2278 15.226C46.1547 15.256 46.0707 15.2656 45.9868 15.262C45.9268 15.2596 45.8656 15.2799 45.8045 15.2895C45.7433 15.2979 45.6762 15.2691 45.6222 15.3183C45.6162 15.3231 45.603 15.3195 45.5934 15.3183C45.3668 15.3027 45.1437 15.3699 44.917 15.3483C44.4529 15.4107 43.9864 15.3687 43.5223 15.3759C43.0486 15.3831 42.5737 15.3771 42.1 15.3771H34.895L34.8962 15.3819ZM38.7026 12.2591H41.9957C42.5294 12.2591 43.0642 12.2651 43.5979 12.2579C44.1279 12.2507 44.658 12.289 45.1881 12.2315C45.284 12.2207 45.3764 12.1799 45.4747 12.1991C45.4819 12.2003 45.4903 12.1895 45.4987 12.1859C45.6138 12.1355 45.7397 12.1164 45.8608 12.0864C45.9376 12.0672 46.0119 12.0396 46.0887 12.0204C46.1607 12.0024 46.2338 11.9808 46.301 11.9557C46.3717 11.9293 46.4461 11.8969 46.5156 11.8597C46.6583 11.7842 46.8046 11.7122 46.9449 11.6331C47.1104 11.5395 47.2591 11.422 47.4055 11.3009C47.4666 11.2505 47.5134 11.181 47.5769 11.1354C47.6405 11.091 47.6825 11.031 47.7304 10.9759C47.8204 10.8716 47.9043 10.7624 47.9835 10.6497C48.1406 10.4254 48.2605 10.1808 48.3612 9.92896C48.4044 9.81976 48.4428 9.70466 48.4692 9.58596C48.4884 9.49356 48.5171 9.39886 48.5411 9.30526C48.5639 9.22016 48.6023 9.13866 48.6107 9.05106C48.6203 8.96596 48.6131 8.88076 48.6383 8.79446C48.6587 8.72126 48.6383 8.63736 48.6443 8.55816C48.6491 8.47786 48.6682 8.39746 48.6718 8.31716C48.6766 8.20326 48.673 8.08926 48.673 7.97536C48.673 7.86146 48.6766 7.73786 48.673 7.61916C48.6683 7.50886 48.6527 7.39976 48.6443 7.28936C48.6395 7.21866 48.6527 7.14666 48.6155 7.07716C48.5939 7.03756 48.5831 6.98716 48.5855 6.94166C48.5939 6.77256 48.5195 6.62026 48.4788 6.46436C48.4116 6.21246 48.3025 5.97386 48.1802 5.73996C48.0423 5.47496 47.8732 5.23386 47.6765 5.01206C47.553 4.87416 47.4139 4.74586 47.2663 4.63426C47.0433 4.46636 46.8082 4.31526 46.5468 4.20856C46.3717 4.13656 46.2038 4.05146 46.0155 4.00826C45.8393 3.96756 45.6798 3.86316 45.4891 3.87036C45.3787 3.81516 45.2468 3.84276 45.1365 3.78166C44.9986 3.80326 44.8667 3.75166 44.73 3.75166C42.7632 3.75166 40.7977 3.75166 38.8309 3.75166H38.7014V12.2579L38.7026 12.2591Z" fill="white"/>
<path d="M0.00219727 10.1003C0.0477973 10.1915 0.118597 10.2059 0.180897 10.2047C0.317597 10.2023 0.441196 10.2502 0.569496 10.2826C0.749396 10.327 0.924396 10.3881 1.1019 10.4397C1.1943 10.4661 1.2938 10.4817 1.3897 10.5033C1.5301 10.5356 1.6668 10.5884 1.8071 10.6124C1.9654 10.64 2.1093 10.7155 2.2748 10.7167C2.3491 10.7167 2.4307 10.7527 2.5014 10.7791C2.6477 10.8343 2.8036 10.8403 2.9488 10.893C3.0231 10.9194 3.1035 10.9206 3.1754 10.9614C3.2258 10.9902 3.2905 11.0045 3.3493 11.0081C3.4596 11.0141 3.5628 11.0369 3.6611 11.0897C3.6767 11.0981 3.6983 11.0993 3.7163 11.0993C3.841 11.0981 3.9537 11.1532 4.0748 11.1748C4.112 11.1808 4.1492 11.1892 4.1876 11.1976C4.2091 11.2972 4.1732 11.3895 4.154 11.4866C4.1264 11.6234 4.076 11.7529 4.0413 11.8872C4.0161 11.9831 4.0197 12.0827 3.9849 12.1762C3.9765 12.1978 3.9669 12.2182 3.9597 12.2398C3.9177 12.3717 3.8746 12.5024 3.835 12.6343C3.7918 12.7806 3.7618 12.9305 3.7211 13.0768C3.6911 13.1836 3.6575 13.2891 3.6323 13.397C3.6083 13.5014 3.5891 13.6069 3.5652 13.7112C3.558 13.7424 3.5508 13.7748 3.5352 13.8024C3.4584 13.9355 3.462 14.089 3.4165 14.2293C3.4093 14.2509 3.3973 14.2713 3.3889 14.2928C3.3697 14.3408 3.3505 14.3876 3.3553 14.4428C3.3625 14.5339 3.3013 14.6082 3.2821 14.6946C3.2522 14.8253 3.2126 14.9536 3.1778 15.0831C3.167 15.1239 3.1538 15.1635 3.149 15.2043C3.1442 15.2486 3.149 15.293 3.149 15.3446C3.2246 15.3566 3.2797 15.3386 3.3481 15.2966C3.4524 15.2342 3.5484 15.1599 3.6539 15.0999C3.7546 15.0424 3.8542 14.98 3.9537 14.9224C4.0341 14.8757 4.1156 14.8313 4.196 14.7857C4.3531 14.6946 4.509 14.6035 4.6661 14.5123C4.6745 14.5075 4.6793 14.4955 4.6876 14.4919C4.8579 14.426 5.0042 14.318 5.1625 14.2293C5.3328 14.1345 5.5019 14.0374 5.6686 13.9343C5.7466 13.8863 5.8329 13.8491 5.9133 13.8036C6.074 13.71 6.2347 13.6141 6.393 13.5157C6.5621 13.4102 6.7431 13.3263 6.917 13.2291C7.0705 13.1416 7.2204 13.0468 7.3727 12.9569C7.4483 12.9113 7.5274 12.873 7.603 12.8262C7.7685 12.723 7.946 12.6403 8.1079 12.5276C8.1822 12.4748 8.2734 12.4472 8.3561 12.4053C8.3825 12.3921 8.4053 12.3681 8.4389 12.3417C8.2973 12.2901 8.175 12.217 8.0491 12.2074C7.898 12.1966 7.7673 12.133 7.6246 12.1042C7.5023 12.0791 7.3835 12.0347 7.26 12.0095C7.1605 11.9891 7.0633 11.9555 6.9638 11.9304C6.8331 11.8968 6.7012 11.8668 6.5704 11.832C6.3906 11.784 6.2107 11.7361 6.0308 11.6881C5.8245 11.6329 5.6171 11.585 5.412 11.5238C5.2345 11.471 5.0546 11.4171 4.8663 11.3907C4.7212 11.3703 4.5773 11.3211 4.443 11.2612C4.3734 11.23 4.3087 11.218 4.2307 11.2168C4.2307 11.1676 4.2187 11.1269 4.2535 11.0789C4.2787 11.0453 4.2535 10.9902 4.2751 10.9398C4.3207 10.8247 4.3447 10.7011 4.377 10.58C4.4082 10.4637 4.4274 10.3438 4.4694 10.231C4.5078 10.1303 4.5138 10.0236 4.5557 9.92402C4.5725 9.88572 4.5749 9.84252 4.5881 9.80292C4.5917 9.78972 4.6169 9.78012 4.6157 9.77052C4.6073 9.61102 4.7164 9.47552 4.7068 9.31722C4.7488 9.24532 4.7428 9.15772 4.7932 9.08342C4.8328 9.02582 4.8543 8.94432 4.8531 8.87232C4.8519 8.75482 4.9155 8.65642 4.9287 8.54372C4.9407 8.44902 4.9875 8.35902 5.0042 8.26432C5.0222 8.16362 5.069 8.07002 5.0822 7.96932C5.0942 7.88052 5.129 7.80022 5.1541 7.71622C5.1805 7.63232 5.1913 7.54362 5.2165 7.45962C5.2333 7.40802 5.2393 7.35292 5.2705 7.30252C5.2957 7.26172 5.2537 7.19822 5.3017 7.15142C5.316 7.13702 5.3041 7.09502 5.3041 7.06512C5.2465 7.02192 5.1973 7.06752 5.1613 7.09262C4.9467 7.24132 4.7164 7.36492 4.4922 7.49922C4.2487 7.64552 4.0017 7.78822 3.7594 7.93692C3.5712 8.05322 3.3733 8.15882 3.1814 8.27152C3.0087 8.37222 2.8396 8.48022 2.6669 8.58212C2.5794 8.63372 2.4882 8.68042 2.3995 8.72962C2.2448 8.81472 2.0925 8.90592 1.9438 9.00182C1.8155 9.08342 1.6752 9.14692 1.5432 9.22492C1.3586 9.33402 1.1787 9.45032 0.993998 9.55952C0.858498 9.63982 0.713397 9.70462 0.583897 9.79452C0.444697 9.89052 0.281697 9.94082 0.147297 10.0428C0.112597 10.0691 0.0609978 10.0715 0.00819778 10.0871C-0.00620222 10.0116 0.0489972 9.96242 0.0765972 9.91082C0.154497 9.76812 0.246897 9.63382 0.331997 9.49472C0.448297 9.30522 0.562297 9.11342 0.677397 8.92272C0.722997 8.84712 0.761298 8.76802 0.808098 8.69362C0.900498 8.54612 0.966397 8.38182 1.0528 8.22952C1.1523 8.05202 1.2722 7.88412 1.3634 7.70192C1.4341 7.56032 1.5301 7.43562 1.602 7.29532C1.6824 7.13942 1.7843 6.99432 1.8742 6.84202C1.933 6.74252 1.9846 6.63932 2.0409 6.53862C2.1393 6.35992 2.2352 6.18002 2.3503 6.01092C2.4379 5.88142 2.5062 5.73872 2.5854 5.60322C2.6573 5.47852 2.7341 5.35732 2.8072 5.23262C2.8348 5.18472 2.8528 5.13192 2.8804 5.08512C3.0459 4.79612 3.191 4.49632 3.3781 4.21812C3.4608 4.09582 3.5232 3.96022 3.5999 3.83432C3.6563 3.74322 3.7067 3.64842 3.769 3.56092C3.8326 3.47092 3.8746 3.36662 3.9297 3.27072C3.9549 3.22632 3.9789 3.17352 4.0173 3.14482C4.0592 3.11362 4.0389 3.07282 4.0568 3.04042C4.1288 2.91212 4.1924 2.77782 4.2715 2.65312C4.3435 2.53912 4.3998 2.41682 4.473 2.30532C4.6097 2.09542 4.7092 1.86402 4.8495 1.65652C4.9143 1.56182 4.9539 1.45142 5.0114 1.35192C5.0858 1.22362 5.1661 1.09772 5.2441 0.971717C5.2609 0.944217 5.2813 0.917817 5.2969 0.889017C5.3472 0.793117 5.4228 0.745117 5.5343 0.745117C6.8619 0.745117 8.1894 0.745117 9.517 0.745117C10.1658 0.745117 10.8145 0.745117 11.4633 0.745117C11.5065 0.745117 11.5521 0.745117 11.5928 0.757117C11.7008 0.787117 11.7008 0.789517 11.7763 0.928617C11.8759 1.11212 11.9802 1.29312 12.0965 1.46582C12.1577 1.55702 12.2021 1.66012 12.256 1.75722C12.3436 1.91552 12.4263 2.07622 12.5318 2.22372C12.5606 2.26452 12.5822 2.31132 12.6062 2.35692C12.6973 2.52832 12.7993 2.69502 12.9024 2.85932C12.9516 2.93732 12.9888 3.02242 13.0355 3.10162C13.1423 3.28152 13.2562 3.45662 13.3533 3.64002C13.4445 3.81152 13.5536 3.97102 13.6375 4.14732C13.7251 4.33082 13.8558 4.49272 13.9469 4.67502C14.0177 4.81652 14.1124 4.94242 14.1856 5.08152C14.2671 5.23742 14.3691 5.38252 14.4578 5.53482C14.5178 5.63802 14.5657 5.74952 14.6293 5.85022C14.7552 6.05052 14.8656 6.26042 14.9963 6.45822C15.067 6.56622 15.1222 6.68372 15.187 6.79642C15.2817 6.96072 15.3776 7.12502 15.4748 7.28692C15.5227 7.36612 15.5635 7.44882 15.6103 7.52802C15.7182 7.71142 15.8249 7.89732 15.9353 8.07962C16.03 8.23672 16.1128 8.40342 16.2111 8.55932C16.3178 8.72842 16.4054 8.90832 16.5217 9.07142C16.5913 9.16852 16.6332 9.28242 16.6944 9.38682C16.7831 9.53912 16.8779 9.68782 16.9678 9.83892C16.9798 9.85812 16.9858 9.88212 16.987 9.90482C16.9894 9.94922 16.9846 9.99482 16.9882 10.038C16.9942 10.1039 16.9654 10.1555 16.9342 10.2095C16.8215 10.4013 16.6956 10.5836 16.5901 10.7803C16.4989 10.9506 16.4006 11.1197 16.3046 11.2888C16.1955 11.4806 16.0852 11.6737 15.9772 11.8668C15.8693 12.0611 15.7722 12.2613 15.6439 12.4448C15.5683 12.5528 15.5335 12.6895 15.4568 12.7974C15.3429 12.9581 15.2889 13.15 15.1666 13.3035C15.133 13.3455 15.1282 13.4078 15.0994 13.4534C14.9903 13.6261 14.9039 13.812 14.784 13.9786C14.76 14.0122 14.7492 14.053 14.73 14.0902C14.6041 14.3264 14.4842 14.5651 14.3499 14.7953C14.2456 14.9752 14.146 15.1563 14.0513 15.3422C14.0273 15.3889 13.9853 15.4249 13.9541 15.4633C10.3984 15.4633 6.8499 15.4633 3.3013 15.4633C3.2534 15.4633 3.2018 15.4633 3.1562 15.4513C3.0351 15.4177 3.0375 15.4117 2.9703 15.2846C2.89 15.1335 2.8096 14.9812 2.7137 14.8409C2.6394 14.733 2.5926 14.6118 2.5278 14.4991C2.4331 14.3348 2.3455 14.1669 2.24 14.0086C2.2124 13.9667 2.1884 13.9211 2.1657 13.8755C2.0817 13.7052 1.9762 13.5469 1.8802 13.3838C1.7999 13.2483 1.7267 13.1104 1.6464 12.9749C1.5564 12.8226 1.4629 12.6739 1.3718 12.5228C1.3238 12.4436 1.2818 12.3609 1.2338 12.2817C1.0947 12.0515 0.967597 11.8152 0.826097 11.5862C0.746997 11.4579 0.671397 11.3235 0.597097 11.1904C0.511897 11.0369 0.415997 10.8882 0.323597 10.7383C0.238497 10.5992 0.152098 10.4613 0.0657978 10.3234C0.0465978 10.2922 0.0177978 10.2622 0.00819778 10.2286C-0.00140222 10.1927 0.00579643 10.1531 0.00579643 10.0931L0.00219727 10.1003ZM5.394 0.845818C5.394 2.60752 5.394 4.36202 5.3928 6.11532C5.3928 6.27482 5.4048 6.43312 5.37 6.59502C5.3412 6.73172 5.364 6.87802 5.364 7.02312C5.4504 7.05072 5.4851 7.10942 5.5163 7.18262C5.5595 7.28332 5.623 7.37692 5.6806 7.47162C5.7718 7.62272 5.8665 7.77142 5.9552 7.92372C6.0428 8.07482 6.1147 8.23792 6.2131 8.38182C6.363 8.60132 6.4733 8.84232 6.6208 9.06302C6.6748 9.14332 6.712 9.23332 6.7611 9.31722C6.8511 9.46952 6.9458 9.61822 7.0357 9.76932C7.0849 9.85212 7.1209 9.94442 7.1761 10.0236C7.2768 10.1687 7.3547 10.3282 7.4483 10.4769C7.5023 10.562 7.543 10.6568 7.5982 10.7419C7.7517 10.9794 7.8908 11.2264 8.0311 11.471C8.151 11.6797 8.2806 11.8824 8.3921 12.0958C8.4233 12.1546 8.4688 12.2074 8.5132 12.2697C8.5456 12.2362 8.578 12.2122 8.5972 12.1798C8.6415 12.1042 8.6763 12.0239 8.7183 11.9471C8.7722 11.85 8.8238 11.7505 8.8874 11.6605C9.0049 11.4926 9.0984 11.3115 9.1968 11.1329C9.2531 11.0321 9.3047 10.929 9.3635 10.8295C9.4498 10.6808 9.5445 10.538 9.6261 10.3869C9.7124 10.2286 9.8348 10.0907 9.8923 9.91682C9.8947 9.90842 9.9079 9.90362 9.9127 9.89532C10.0123 9.73822 10.113 9.58232 10.2089 9.42162C10.2677 9.32322 10.3085 9.21292 10.3708 9.11692C10.4943 8.92632 10.5987 8.72362 10.7174 8.53052C10.7678 8.44782 10.8073 8.35902 10.8565 8.27632C10.9405 8.13242 11.0364 7.99452 11.1131 7.84582C11.2163 7.64432 11.3458 7.45722 11.4465 7.25452C11.4873 7.17062 11.5485 7.09742 11.5976 7.02432C11.6576 7.04232 11.7056 7.07702 11.7092 7.12502C11.714 7.19222 11.7356 7.25452 11.7439 7.32052C11.7511 7.37812 11.738 7.43322 11.7955 7.48002C11.8243 7.50522 11.8315 7.56512 11.8339 7.60952C11.8387 7.72342 11.8843 7.82782 11.907 7.93692C11.9358 8.07242 12.021 8.19232 12.015 8.33742C12.0773 8.37342 12.0126 8.45622 12.0737 8.49212C12.0653 8.60852 12.1577 8.70562 12.1361 8.82432C12.1337 8.83632 12.1397 8.85672 12.1481 8.86272C12.2212 8.90952 12.1757 9.00062 12.2248 9.05462C12.1985 9.16972 12.2812 9.26092 12.2992 9.36642C12.3208 9.49232 12.3699 9.61462 12.4035 9.73942C12.4179 9.79332 12.4203 9.85092 12.4359 9.90482C12.4503 9.95282 12.4791 9.99602 12.4935 10.044C12.5091 10.0979 12.5115 10.1555 12.5258 10.2095C12.5402 10.2622 12.5666 10.3126 12.581 10.3654C12.6158 10.4853 12.6482 10.6064 12.6734 10.7287C12.7021 10.8738 12.7477 11.0141 12.8053 11.1556C12.8436 11.1556 12.9012 11.1724 12.918 11.1521C12.9636 11.0993 13.0415 11.158 13.0775 11.0969C13.1387 11.1161 13.1938 11.0801 13.2418 11.0609C13.2994 11.0381 13.3581 11.0525 13.4097 11.0321C13.5788 10.9674 13.7539 10.9218 13.929 10.8762C14.0045 10.8558 14.0777 10.8163 14.152 10.8031C14.3367 10.7695 14.5118 10.7059 14.6905 10.6568C14.8428 10.6148 14.9963 10.58 15.1474 10.5332C15.2805 10.4925 15.4196 10.4685 15.5515 10.4241C15.687 10.3785 15.8261 10.3378 15.9629 10.3006C16.1823 10.2406 16.4018 10.1783 16.62 10.1147C16.6704 10.1003 16.7184 10.0775 16.7723 10.0859C16.8539 10.0979 16.8983 10.0559 16.9402 9.97802C16.9115 9.95522 16.8863 9.92882 16.8575 9.91202C16.7076 9.82932 16.5577 9.74772 16.4054 9.66862C16.2735 9.60022 16.1487 9.52112 16.0168 9.45392C15.9437 9.41682 15.8681 9.37722 15.7986 9.33042C15.6511 9.23212 15.4916 9.15292 15.3417 9.06062C15.2241 8.98862 15.0922 8.93712 14.9759 8.86152C14.9015 8.81232 14.82 8.77762 14.7444 8.73202C14.5657 8.62412 14.3871 8.51372 14.2012 8.41782C14.1688 8.40102 14.1352 8.38302 14.104 8.36502C13.9469 8.27392 13.7922 8.18032 13.6339 8.09162C13.5212 8.02802 13.3965 7.98252 13.2922 7.90932C13.2178 7.85662 13.1375 7.82302 13.0619 7.77622C12.942 7.70312 12.8281 7.62152 12.7033 7.55792C12.5091 7.45842 12.3208 7.35052 12.1325 7.24012C11.9886 7.15622 11.8423 7.07232 11.6996 6.98712C11.6696 6.96912 11.6564 6.94152 11.6552 6.90082C11.6492 6.61772 11.6804 6.33232 11.6264 6.05052C11.6264 4.38482 11.6264 2.72022 11.6264 1.05452C11.6264 1.01732 11.6156 0.980117 11.6468 0.943017C11.6756 0.908217 11.6576 0.867417 11.6204 0.843417C11.5821 0.819417 11.5473 0.830217 11.5185 0.865017C11.4633 0.932217 11.4106 1.00172 11.3482 1.06292C10.8409 1.56902 10.3324 2.07262 9.824 2.57752C9.4246 2.97332 9.0277 3.37142 8.6259 3.76482C8.5504 3.83792 8.5588 3.87152 8.6271 3.94222C8.7842 4.10412 8.9665 4.24332 9.0948 4.43152C9.162 4.44112 9.1524 4.53112 9.21 4.54432C9.2687 4.55872 9.2975 4.60422 9.3347 4.64142C10.0482 5.34902 10.7606 6.05652 11.4741 6.76522C11.4957 6.78682 11.5245 6.80362 11.5365 6.82882C11.5605 6.88162 11.618 6.91762 11.6288 6.98952C9.6621 6.98952 7.7073 6.98952 5.7514 6.99072C5.725 6.99072 5.6998 7.01112 5.6734 7.01832C5.659 7.02192 5.6434 7.01832 5.629 7.01832C5.5895 7.01832 5.5487 7.01832 5.5091 7.01832C5.5043 7.01832 5.4995 7.01592 5.4959 7.01352C5.4923 7.01112 5.4887 7.00632 5.4851 7.00272V6.91282C5.5271 6.87082 5.5691 6.83002 5.6123 6.78802C5.6542 6.74612 5.6986 6.70532 5.7394 6.66212C5.7813 6.61652 5.8401 6.58302 5.8557 6.51702C5.9217 6.50862 5.9504 6.45102 5.9912 6.41152C6.3006 6.09852 6.6232 5.79872 6.9146 5.46892C7.1605 5.19192 7.4435 4.95202 7.6893 4.67262C7.94 4.38842 8.2182 4.12932 8.4868 3.85592C8.446 3.81632 8.4125 3.78162 8.3777 3.74802C7.4567 2.83302 6.5357 1.91912 5.6147 1.00292C5.5739 0.963317 5.5259 0.929817 5.5055 0.869817C5.4923 0.831417 5.448 0.820617 5.3952 0.839817L5.394 0.845818ZM8.5732 12.3369C8.6079 12.3717 8.6223 12.3933 8.6415 12.4041C8.7806 12.476 8.9221 12.5432 9.0625 12.6163C9.1368 12.6547 9.2088 12.6979 9.2795 12.7422C9.3515 12.7866 9.4162 12.8454 9.4906 12.8825C9.6945 12.9833 9.8815 13.1128 10.0818 13.2207C10.2653 13.3191 10.4452 13.4294 10.6239 13.5385C10.703 13.5865 10.7894 13.6213 10.8685 13.668C11.0256 13.7604 11.1779 13.8587 11.335 13.9499C11.4345 14.0074 11.5473 14.0458 11.642 14.1106C11.8963 14.2845 12.1733 14.4188 12.4347 14.5795C12.533 14.6394 12.6434 14.685 12.7357 14.7522C12.8353 14.8241 12.9492 14.8649 13.0523 14.932C13.1638 15.0052 13.285 15.0664 13.4001 15.1359C13.514 15.2055 13.6387 15.2618 13.7479 15.3398C13.7898 15.3698 13.8498 15.3254 13.881 15.3806C13.8918 15.3722 13.9086 15.365 13.911 15.3542C13.9182 15.329 13.9314 15.2954 13.9218 15.275C13.8918 15.2103 13.8894 15.1359 13.8618 15.0771C13.8342 15.0196 13.8678 14.9332 13.7874 14.8973C13.7779 14.8937 13.7838 14.8613 13.779 14.8433C13.7647 14.7785 13.7491 14.715 13.7455 14.6478C13.7419 14.5855 13.7131 14.5243 13.6879 14.4643C13.6459 14.3612 13.6327 14.2497 13.6004 14.1441C13.556 14.0038 13.52 13.8599 13.4792 13.7184C13.4613 13.6573 13.4277 13.5973 13.4229 13.5349C13.4181 13.4774 13.4109 13.4198 13.3881 13.3694C13.3545 13.2975 13.3389 13.2207 13.3089 13.15C13.2922 13.1092 13.297 13.0672 13.285 13.0265C13.2598 12.9425 13.2274 12.8598 13.2118 12.7734C13.195 12.6763 13.1674 12.5851 13.1351 12.4928C13.0883 12.3633 13.0307 12.2326 13.0295 12.0899C13.0295 12.0635 13.0139 12.0371 13.0043 12.0119C12.9936 11.9819 12.9768 11.9519 12.972 11.922C12.948 11.7613 12.882 11.6102 12.8496 11.4519C12.8353 11.3859 12.8017 11.3235 12.7753 11.2552C12.7189 11.2552 12.6494 11.2372 12.5942 11.2588C12.4899 11.2984 12.3831 11.3283 12.2776 11.3595C12.1481 11.3967 12.015 11.4219 11.8855 11.4603C11.7787 11.4914 11.6684 11.5118 11.5617 11.5454C11.4633 11.5754 11.365 11.6162 11.2583 11.609C11.2379 11.6078 11.2151 11.6245 11.1947 11.6329C11.1647 11.6449 11.1347 11.6605 11.1036 11.6665C10.9417 11.6941 10.787 11.7469 10.6299 11.79C10.5483 11.8116 10.4716 11.8452 10.384 11.8488C10.3253 11.8512 10.2677 11.8788 10.2101 11.8968C10.0494 11.9435 9.8887 11.9903 9.7256 12.0263C9.5985 12.0539 9.4738 12.0935 9.3491 12.1282C9.2591 12.1534 9.1716 12.1954 9.0816 12.2002C8.9078 12.2098 8.7543 12.2709 8.5732 12.3417V12.3369Z" fill="white"/>
<path d="M23.3047 15.3817V15.2282C23.3047 11.4914 23.3047 7.75464 23.3047 4.01784C23.3047 3.83914 23.3059 3.84033 23.126 3.84033C20.9998 3.84033 18.8735 3.84033 16.7473 3.84033H16.5974V0.718735C16.7305 0.718735 16.8684 0.697135 16.9955 0.724735C17.1526 0.759535 17.3085 0.747535 17.4632 0.747535C22.7135 0.749935 27.9637 0.748735 33.214 0.749935C33.3363 0.749935 33.4514 0.705535 33.5761 0.716335C33.6997 0.727135 33.8256 0.718735 33.9551 0.718735C33.9995 1.06054 33.9311 1.39994 33.9347 1.74164C33.9383 2.09304 33.9347 2.44563 33.9347 2.79703V3.84154H33.78C31.6693 3.84154 29.5575 3.84154 27.4468 3.84154C27.3905 3.84154 27.3257 3.81993 27.2861 3.88833V10.7983C27.2274 11.2887 27.2634 11.7816 27.2574 12.2733C27.2514 12.7734 27.2562 13.2747 27.2562 13.7748V15.2618C27.2562 15.2822 27.2634 15.305 27.255 15.3206C27.2418 15.3434 27.2226 15.3697 27.1998 15.3781C27.1734 15.3877 27.141 15.3805 27.1111 15.3805H23.3035L23.3047 15.3817Z" fill="white"/>
<path d="M53.265 15.4119C53.2602 15.3591 53.2014 15.3243 53.253 15.2656C53.2758 15.2404 53.2566 15.1792 53.2566 15.1348V0.718781C53.3909 0.718781 53.5228 0.69838 53.6463 0.72238C53.897 0.77158 54.1476 0.743981 54.3983 0.746381C55.0818 0.752381 55.7654 0.749981 56.4501 0.746381C56.5557 0.746381 56.6612 0.723581 56.7667 0.718781C56.8711 0.713981 56.9766 0.718781 57.0809 0.718781H57.1793V0.867481C57.1793 5.65608 57.1793 10.4434 57.1793 15.232C57.1793 15.4059 57.1889 15.4131 57.0042 15.4119C55.7618 15.4107 54.5182 15.4119 53.2638 15.4119H53.265Z" fill="white"/>
</g>
<path d="M59.5606 26.9799C59.1804 27.0391 58.799 27.0033 58.4176 27.0095C58.0325 27.0157 57.6473 27.0107 57.2622 27.0107H56.1069C56.076 27.0107 56.0452 27.0107 56.0143 27.0107C55.9477 27.0132 55.9292 27.0342 55.923 27.0996C55.9082 27.2588 55.939 27.4107 55.997 27.5588C56.0217 27.6205 56.0427 27.6835 56.0625 27.7464C56.0884 27.8316 56.1489 27.897 56.2032 27.9637C56.3846 28.1895 56.6031 28.3586 56.8993 28.4228C57.1166 28.4697 57.3338 28.4352 57.5498 28.45C57.6893 28.4018 57.8313 28.3586 57.9572 28.2821C58.1349 28.1735 58.2559 28.013 58.3583 27.8378C58.3917 27.781 58.4077 27.7156 58.4299 27.6588H59.5063C59.4384 27.8118 59.3791 27.96 59.3088 28.1019C59.21 28.3019 59.0891 28.4858 58.9422 28.6561C58.7706 28.8561 58.562 28.998 58.3275 29.103C58.1238 29.1943 57.9029 29.2449 57.6906 29.3128C57.4857 29.3794 57.2857 29.3585 57.082 29.3646C57.0203 29.3671 56.9574 29.3424 56.8944 29.3375C56.8277 29.3325 56.7549 29.3535 56.6957 29.3325C56.5426 29.2807 56.3846 29.2474 56.2328 29.1881C56.0637 29.1215 55.923 29.0153 55.7736 28.9227C55.6181 28.8265 55.491 28.6932 55.3737 28.5549C55.2305 28.387 55.1194 28.1957 55.0306 27.9933C54.938 27.7847 54.854 27.5748 54.8096 27.349C54.796 27.2811 54.7837 27.2144 54.7837 27.1465C54.7837 26.9021 54.7862 26.6565 54.7825 26.4121C54.7812 26.3072 54.8034 26.2097 54.8368 26.1121C54.8491 26.0751 54.8405 26.0332 54.8466 25.9937C54.8528 25.9566 54.8627 25.9184 54.8775 25.8838C54.9528 25.6999 54.9886 25.5024 55.091 25.3283C55.1626 25.2074 55.2305 25.0852 55.328 24.9815C55.386 24.9198 55.4329 24.8482 55.4934 24.7902C55.7292 24.5618 56.0044 24.389 56.3056 24.2631C56.4402 24.2063 56.5858 24.152 56.7401 24.1594C56.75 24.1594 56.7623 24.1631 56.771 24.1594C56.9586 24.052 57.166 24.0928 57.361 24.1063C57.5202 24.1175 57.6831 24.1582 57.8399 24.2063C57.9917 24.2532 58.1312 24.3211 58.2707 24.3915C58.4151 24.4643 58.5509 24.547 58.6669 24.6618C58.7052 24.6988 58.7583 24.7223 58.7941 24.7605C59.0039 24.9852 59.1767 25.2358 59.3063 25.5135C59.3618 25.6332 59.3791 25.7678 59.4371 25.8887C59.4458 25.9048 59.4371 25.9295 59.4396 25.9492C59.4482 26.0072 59.4199 26.0689 59.4594 26.1245C59.4939 26.1739 59.4483 26.2393 59.4976 26.2936C59.5198 26.3183 59.5013 26.3788 59.5272 26.4232C59.5285 26.3751 59.5272 26.3269 59.5334 26.28C59.5347 26.2664 59.5532 26.2529 59.563 26.2405V26.975L59.5606 26.9799ZM58.4472 26.2455C58.4682 26.101 58.3892 25.9838 58.3805 25.8542C58.2645 25.6221 58.1386 25.3975 57.9337 25.2284C57.8745 25.179 57.8115 25.1296 57.7412 25.1C57.6313 25.0543 57.5165 25.0012 57.4017 24.9963C57.2375 24.9889 57.0734 24.9778 56.9055 25.0161C56.6525 25.0728 56.4537 25.2074 56.2674 25.3703C56.2562 25.3802 56.2427 25.3901 56.2353 25.4024C56.1933 25.4789 56.1328 25.5444 56.0847 25.6172C56.039 25.6875 56.0242 25.7752 55.9847 25.8505C55.9168 25.9788 55.9156 26.1097 55.9304 26.2467H58.4472V26.2455Z" fill="white"/>
<path d="M33.2925 26.9207H34.5577C34.5577 26.9886 34.5651 27.0539 34.5564 27.1181C34.5392 27.2501 34.5725 27.3749 34.628 27.4872C34.7095 27.6563 34.786 27.8341 34.9416 27.9551C35.1391 28.1106 35.3526 28.2266 35.5995 28.3007C35.9043 28.392 36.2105 28.3931 36.519 28.3833C36.6622 28.3783 36.8066 28.3439 36.9424 28.2933C37.135 28.2217 37.3177 28.1328 37.4571 27.9748C37.5263 27.897 37.5843 27.7662 37.646 27.6551C37.7176 27.5267 37.7139 27.3946 37.6991 27.265C37.6781 27.0675 37.609 26.8836 37.4695 26.7331C37.3991 26.6578 37.3078 26.6169 37.2115 26.5774C36.9696 26.4775 36.719 26.4035 36.4697 26.3245C36.3339 26.2813 36.1944 26.2429 36.0537 26.2108C35.8908 26.1738 35.7241 26.1505 35.5723 26.0727C35.5637 26.069 35.555 26.0602 35.5464 26.0602C35.3464 26.0627 35.1773 25.9615 34.9934 25.9072C34.8564 25.8665 34.7206 25.8258 34.5947 25.7542C34.4256 25.6567 34.254 25.564 34.117 25.4221C34.0232 25.3246 33.9109 25.2419 33.8455 25.1209C33.78 24.9999 33.7183 24.8778 33.6665 24.7507C33.6443 24.6939 33.6838 24.6211 33.6332 24.5656C33.6554 24.4545 33.5961 24.3519 33.6011 24.2408C33.606 24.1285 33.5838 24.0126 33.6072 23.9052C33.6369 23.7719 33.6702 23.6386 33.7159 23.5077C33.8245 23.2004 34.0467 22.9843 34.2775 22.7757C34.3947 22.6707 34.5318 22.5783 34.6749 22.5116C34.8675 22.4215 35.065 22.3363 35.2773 22.2919C35.402 22.2648 35.5279 22.2474 35.6513 22.2252C35.7932 22.1992 35.9315 22.2091 36.071 22.2029C36.2092 22.1968 36.3487 22.2017 36.4869 22.2029C36.5067 22.2029 36.5388 22.1968 36.5462 22.2066C36.5882 22.2659 36.6462 22.2634 36.7079 22.2659C36.761 22.2684 36.8128 22.293 36.8647 22.293C37.0338 22.2955 37.1831 22.366 37.3374 22.4178C37.488 22.4684 37.6238 22.5462 37.7571 22.6314C37.8102 22.6647 37.8669 22.6955 37.9138 22.7363C38.0397 22.8449 38.1706 22.9498 38.2817 23.0732C38.457 23.267 38.5717 23.499 38.6544 23.7459C38.6594 23.7594 38.6594 23.7756 38.6594 23.7904C38.6581 23.9286 38.6841 24.0607 38.7186 24.194C38.7347 24.2557 38.7211 24.326 38.7211 24.3927C38.5977 24.4149 37.8929 24.421 37.5176 24.4025C37.5435 24.2384 37.4744 24.0915 37.43 23.9384C37.4102 23.8693 37.3695 23.8175 37.3325 23.7644C37.2177 23.599 37.0794 23.4533 36.8918 23.3694C36.7573 23.3089 36.6215 23.2447 36.466 23.2435C36.4191 23.2435 36.3697 23.2312 36.3252 23.214C36.1722 23.1535 36.0105 23.1708 35.8611 23.1917C35.6797 23.2177 35.4982 23.2683 35.3279 23.351C35.2032 23.4115 35.0847 23.4731 34.9897 23.5718C34.8712 23.694 34.7934 23.8373 34.8058 24.0163C34.8095 24.0669 34.8095 24.1187 34.8058 24.1693C34.7922 24.3372 34.8712 24.4705 34.9749 24.589C35.0921 24.7236 35.2353 24.8186 35.4094 24.8754C35.4896 24.9013 35.5649 24.9469 35.6513 24.9604C35.7328 24.9728 35.8118 25.0012 35.8858 25.0271C36.0389 25.0814 36.2006 25.1036 36.3536 25.1604C36.4425 25.1937 36.5388 25.2073 36.6314 25.2332C36.8066 25.2826 36.9844 25.321 37.1572 25.3778C37.2893 25.421 37.4275 25.4443 37.5608 25.4813C37.6287 25.4999 37.6978 25.5233 37.762 25.5542C37.9731 25.6566 38.1743 25.7703 38.3422 25.9406C38.4718 26.0727 38.5964 26.2071 38.689 26.3651C38.7878 26.5342 38.8705 26.7132 38.8766 26.9156C38.9334 27.0082 38.9013 27.1107 38.9063 27.2094C38.9112 27.3106 38.9235 27.4169 38.9038 27.5144C38.8692 27.6823 38.8692 27.8562 38.7878 28.0167C38.71 28.1697 38.6211 28.3155 38.5372 28.4636C38.5273 28.4809 38.5088 28.4932 38.494 28.5068C38.436 28.5648 38.3656 28.6153 38.3249 28.6832C38.2878 28.7449 38.1916 28.7511 38.1903 28.8387C38.0336 28.9116 37.9114 29.0376 37.7423 29.0956C37.6164 29.1388 37.4942 29.1956 37.3658 29.2252C37.2251 29.256 37.0918 29.3104 36.9498 29.3412C36.8498 29.3634 36.7499 29.3498 36.6536 29.3695C36.3709 29.4275 36.0858 29.3819 35.8031 29.3968C35.7439 29.3992 35.6883 29.3917 35.6291 29.3707C35.534 29.3374 35.4316 29.3227 35.3316 29.3067C35.16 29.2783 34.9959 29.2351 34.8342 29.1696C34.5861 29.0697 34.3688 28.9227 34.1516 28.7696C33.9714 28.6425 33.8566 28.4673 33.727 28.3007C33.6418 28.192 33.5764 28.0648 33.5196 27.9426C33.4752 27.8463 33.411 27.7501 33.3962 27.6427C33.3813 27.5365 33.3381 27.4317 33.3554 27.3218C33.3579 27.307 33.3628 27.286 33.3554 27.2774C33.2666 27.175 33.3011 27.0515 33.2937 26.9219L33.2925 26.9207Z" fill="white"/>
<path d="M27.4679 27.6525C27.4642 27.7106 27.4629 27.7488 27.4407 27.7933C27.3679 27.9463 27.305 28.1043 27.2235 28.2549C27.1556 28.3783 27.0741 28.4907 26.9927 28.6042C26.8717 28.7721 26.7026 28.877 26.5384 28.9906C26.415 29.0757 26.2817 29.1387 26.1397 29.1807C26.0212 29.2152 25.9077 29.2695 25.7818 29.2868C25.7522 29.2905 25.7164 29.3004 25.683 29.3053C25.6633 29.3078 25.6337 29.3041 25.6263 29.3152C25.5744 29.3893 25.4991 29.3646 25.4312 29.3658C25.3078 29.3683 25.1844 29.3609 25.0609 29.3683C24.8758 29.3782 24.7042 29.3288 24.5265 29.2856C24.2389 29.2165 23.9945 29.072 23.7587 28.9103C23.4896 28.7252 23.2835 28.4808 23.1267 28.1957C23.0329 28.0253 22.949 27.8513 22.8971 27.6624C22.8613 27.5328 22.8107 27.4069 22.812 27.2687C22.812 27.2452 22.812 27.2144 22.7984 27.1983C22.7391 27.1304 22.7515 27.0502 22.7502 26.9724C22.7502 26.8095 22.7539 26.6453 22.7478 26.4824C22.7453 26.4009 22.7663 26.3269 22.7885 26.2528C22.812 26.175 22.8342 26.0973 22.8441 26.0146C22.8613 25.8677 22.9008 25.722 22.9687 25.5924C23.0625 25.411 23.1341 25.216 23.2736 25.0592C23.2958 25.0345 23.3094 25.0012 23.3329 24.9765C23.3859 24.921 23.4501 24.8741 23.4933 24.8123C23.5328 24.7543 23.5921 24.7247 23.6365 24.6766C23.7599 24.5408 23.9155 24.4457 24.0772 24.3655C24.2685 24.2705 24.4734 24.2087 24.6832 24.1544C24.8869 24.1026 25.0881 24.1051 25.2918 24.1014C25.3535 24.1014 25.4325 24.0779 25.472 24.1075C25.5263 24.147 25.5991 24.1001 25.6361 24.1631C25.7682 24.1507 25.8793 24.2211 25.9978 24.2556C26.0521 24.2717 26.1114 24.2865 26.1558 24.3174C26.278 24.4038 26.4187 24.4618 26.5323 24.563C26.6162 24.6383 26.7174 24.6938 26.7976 24.7716C26.8853 24.858 26.9569 24.9605 27.0359 25.0543C27.1766 25.2209 27.2543 25.4221 27.3432 25.6159C27.4074 25.7554 27.4494 25.901 27.4679 26.0541C27.4741 26.1109 27.4728 26.1787 27.5024 26.2219C27.5358 26.2713 27.5284 26.317 27.5284 26.3651C27.5308 26.5848 27.5284 26.8033 27.5284 27.0341C27.3259 27.044 27.1223 27.0329 26.9186 27.0403C26.7211 27.0477 26.5286 26.9959 26.3298 27.0058C26.1249 27.0169 25.9188 27.0082 25.7139 27.0082H23.8871C23.9031 27.0909 23.8599 27.1724 23.9216 27.2427C23.8982 27.381 23.971 27.4946 24.0117 27.618C24.0636 27.7723 24.1401 27.9081 24.2524 28.0241C24.3857 28.1636 24.524 28.2944 24.7128 28.3611C24.8276 28.4018 24.9387 28.4475 25.0622 28.4462C25.1757 28.4462 25.288 28.4401 25.4016 28.4462C25.6065 28.4586 25.7793 28.3709 25.9496 28.2808C26.1286 28.1858 26.2397 28.0167 26.3508 27.8537C26.3743 27.8204 26.3841 27.7735 26.3878 27.7315C26.3928 27.6649 26.4286 27.6488 26.4878 27.6488C26.6829 27.6501 26.8779 27.6488 27.0729 27.6488H27.4679V27.6525ZM26.415 26.2392C26.431 26.1096 26.3977 25.9961 26.3632 25.8763C26.2866 25.6122 26.1286 25.4073 25.9324 25.2295C25.8645 25.1678 25.7805 25.1147 25.6892 25.079C25.5115 25.0111 25.3312 24.9765 25.1412 24.9876C25.0473 24.9938 24.9548 24.9839 24.861 25.0172C24.7252 25.0641 24.5968 25.1246 24.4734 25.195C24.4141 25.2283 24.3611 25.2752 24.3117 25.3246C24.2598 25.3764 24.2117 25.4344 24.1697 25.4949C24.0932 25.6035 24.0241 25.7159 23.9809 25.8455C23.9636 25.8961 23.9722 25.9541 23.9401 25.9961C23.8846 26.0701 23.8883 26.1504 23.8969 26.2392H26.415Z" fill="white"/>
<path d="M43.0512 27.6524C43.3351 27.6524 43.6227 27.6537 43.9091 27.6512C43.9523 27.6512 43.9844 27.6648 44.0202 27.6833C44.093 27.7228 44.093 27.7252 44.0671 27.8079C43.9918 28.0449 43.8819 28.2659 43.7375 28.4683C43.603 28.6559 43.4425 28.825 43.2487 28.9522C43.1068 29.046 42.9574 29.1324 42.7908 29.1842C42.7278 29.204 42.6636 29.2262 42.6007 29.2447C42.5365 29.2645 42.4735 29.2879 42.4081 29.3003C42.3217 29.3175 42.2329 29.3373 42.1464 29.3336C42.0724 29.3299 42.0131 29.3706 41.9428 29.3682C41.8761 29.3657 41.8095 29.3719 41.7428 29.3669C41.67 29.362 41.5972 29.3435 41.5243 29.3385C41.4527 29.3336 41.375 29.3546 41.3096 29.3348C41.0405 29.2534 40.7726 29.1744 40.5332 29.0151C40.3246 28.8769 40.1481 28.7065 39.9851 28.5226C39.816 28.3325 39.7099 28.1017 39.6074 27.8684C39.5432 27.7228 39.5247 27.5673 39.4605 27.4228C39.4457 27.3883 39.4544 27.3414 39.4593 27.3019C39.4655 27.2451 39.4482 27.1957 39.426 27.1463C39.4161 27.1254 39.3988 27.1031 39.3988 27.0822C39.3963 26.9242 39.3803 26.7637 39.4037 26.6082C39.4223 26.4884 39.4173 26.3712 39.4309 26.2527C39.4519 26.0675 39.4889 25.8811 39.5593 25.7096C39.6062 25.5972 39.6469 25.4788 39.7099 25.3738C39.7975 25.2294 39.8802 25.0801 40.0012 24.9566C40.0641 24.8924 40.111 24.8134 40.1777 24.7554C40.3715 24.5851 40.5751 24.4234 40.8121 24.3209C40.9775 24.2493 41.1528 24.2012 41.3306 24.1568C41.5243 24.1074 41.7144 24.1123 41.9082 24.1012C42.1045 24.0889 42.2872 24.1506 42.4686 24.2012C42.7352 24.2753 42.9525 24.3987 43.1438 24.5369C43.3944 24.7184 43.6067 24.9418 43.7782 25.2047C43.8758 25.3541 43.935 25.5182 44.0165 25.6738C44.0189 25.6775 44.0226 25.6824 44.0226 25.6861C44.0017 25.8268 44.0831 25.9515 44.0881 26.0897C44.0905 26.1613 44.1239 26.2317 44.1152 26.307C44.1152 26.3119 44.1128 26.3206 44.1152 26.3218C44.2226 26.4033 44.1683 26.5181 44.1745 26.618C44.1819 26.7551 44.1769 26.8933 44.1769 27.0427H44.0412C43.8301 27.0427 43.6165 27.0649 43.4104 27.0377C43.1154 26.9995 42.8229 27.0192 42.5291 27.013C42.2267 27.0069 41.923 27.0118 41.6194 27.0118H40.7257C40.6899 27.0118 40.6541 27.0118 40.6183 27.0118C40.569 27.0118 40.5406 27.0414 40.543 27.0846C40.548 27.1476 40.527 27.2081 40.5653 27.2747C40.5961 27.3278 40.5714 27.4056 40.5986 27.4747C40.6726 27.6672 40.7516 27.8511 40.8813 28.0178C40.9565 28.1141 41.0368 28.1992 41.1368 28.2572C41.2293 28.3116 41.3355 28.3486 41.433 28.3955C41.5441 28.4498 41.6515 28.451 41.765 28.451C41.8169 28.451 41.8675 28.451 41.9193 28.451C42.0168 28.451 42.1205 28.4708 42.2106 28.4449C42.2958 28.4214 42.3748 28.3745 42.4661 28.3548C42.5192 28.3437 42.5649 28.298 42.613 28.2659C42.7377 28.1844 42.9019 28.0104 42.9747 27.8709C43.0068 27.8079 43.0241 27.7376 43.0537 27.6537L43.0512 27.6524ZM43.066 26.2416C43.066 26.1564 43.0549 26.0848 43.0413 26.012C43.0241 25.9206 42.9994 25.8355 42.9586 25.754C42.7969 25.4393 42.7735 25.4343 42.5476 25.222C42.3847 25.0689 42.1822 25.0122 41.9675 24.99C41.8909 24.9813 41.8132 24.9961 41.7366 24.9875C41.5564 24.9665 41.4021 25.0467 41.2503 25.1146C41.0874 25.1887 40.943 25.3047 40.838 25.4491C40.7813 25.5269 40.7171 25.6034 40.685 25.7071C40.6566 25.8009 40.6282 25.8997 40.5887 25.9873C40.5492 26.0737 40.5356 26.1502 40.543 26.2416H43.0673H43.066Z" fill="white"/>
<path d="M49.9105 27.592C50.2734 27.592 50.6265 27.592 50.9807 27.592C51.0585 27.592 51.0795 27.613 51.0819 27.6858C51.093 27.9487 51.2498 28.1511 51.4424 28.2672C51.5843 28.3536 51.7423 28.3881 51.8941 28.4424C51.9126 28.4486 51.9336 28.4486 51.9534 28.4486C52.1126 28.4486 52.2755 28.4684 52.4298 28.4437C52.6409 28.4091 52.8569 28.3832 53.0396 28.2412C53.1285 28.1721 53.1766 28.0845 53.2383 28.0005C53.2889 27.9326 53.2729 27.8475 53.2692 27.7697C53.2655 27.6957 53.226 27.6302 53.1778 27.5796C53.1001 27.4957 53.0198 27.413 52.9223 27.3476C52.8557 27.3031 52.7828 27.2822 52.7125 27.2587C52.673 27.2451 52.6286 27.2402 52.5878 27.2254C52.4965 27.1933 52.4076 27.1624 52.3064 27.1562C52.22 27.1501 52.1262 27.1217 52.0398 27.097C51.9435 27.0698 51.8373 27.0785 51.7485 27.0192C51.7201 26.9995 51.6695 27.0168 51.63 27.0106C51.5929 27.0044 51.5559 26.9921 51.5189 26.981C51.3411 26.9291 51.1609 26.8859 50.9869 26.8143C50.8178 26.744 50.6598 26.6588 50.5067 26.5576C50.4018 26.4885 50.3315 26.3984 50.2636 26.3033C50.208 26.2268 50.1772 26.133 50.1241 26.0552C50.0698 25.9762 50.0871 25.8775 50.0352 25.7997C50.0216 25.7787 50.0327 25.7405 50.0327 25.7096C50.0327 25.5825 50.0401 25.4541 50.0303 25.327C50.0241 25.2541 50.0451 25.185 50.071 25.1282C50.1364 24.985 50.2055 24.8382 50.3191 24.7258C50.4166 24.6308 50.5314 24.5506 50.6437 24.4703C50.7968 24.3617 50.9708 24.2913 51.1486 24.2395C51.2733 24.2037 51.3979 24.1519 51.5337 24.1617C51.5534 24.163 51.5855 24.1679 51.5929 24.158C51.6621 24.0618 51.762 24.1062 51.8472 24.1025C52.0064 24.0963 52.1657 24.1 52.3249 24.1013C52.4088 24.1013 52.4952 24.0864 52.5668 24.1506C52.5767 24.1593 52.594 24.163 52.6076 24.1617C52.7594 24.1482 52.8927 24.2161 53.031 24.2556C53.2383 24.3136 53.4321 24.4308 53.5876 24.5493C53.6753 24.6172 53.753 24.6937 53.8345 24.7678C53.9456 24.8678 54.0147 24.9999 54.0666 25.1319C54.1098 25.2406 54.1739 25.3479 54.1727 25.4714C54.2221 25.5195 54.1826 25.5751 54.1999 25.6294H53.0272C53.0149 25.5837 53.0075 25.5368 52.9902 25.4936C52.9248 25.3245 52.8149 25.1936 52.6495 25.1122C52.6113 25.0937 52.5742 25.0554 52.536 25.0542C52.4175 25.0505 52.32 24.9616 52.1904 24.9863C52.0916 25.006 51.9855 24.9875 51.883 24.9912C51.6868 24.9974 51.5004 25.0455 51.3313 25.1455C51.2152 25.2134 51.1387 25.3047 51.1399 25.4553C51.1399 25.5763 51.1819 25.6615 51.2658 25.7429C51.3769 25.8516 51.5004 25.9219 51.6473 25.9775C51.7534 26.0182 51.8633 26.0503 51.9694 26.0898C52.0768 26.1293 52.1904 26.1638 52.3015 26.1787C52.5051 26.2046 52.6964 26.2725 52.8964 26.3107C53.0347 26.3379 53.168 26.3971 53.3025 26.444C53.4013 26.4786 53.5025 26.5132 53.5938 26.5564C53.7814 26.6452 53.9518 26.7588 54.0851 26.9341C54.1986 27.0834 54.2542 27.2538 54.3393 27.413C54.3505 27.4327 54.3505 27.4611 54.3505 27.4846C54.3505 27.592 54.3468 27.6994 54.3517 27.8055C54.3616 28.0116 54.2887 28.1931 54.1974 28.3708C54.1369 28.4881 54.0752 28.6054 53.9678 28.6893C53.9098 28.7337 53.8777 28.8016 53.8197 28.8461C53.7654 28.888 53.7135 28.9349 53.6543 28.9683C53.5383 29.0337 53.4198 29.0954 53.2988 29.1509C53.2396 29.1793 53.1717 29.1904 53.11 29.2139C53.047 29.2373 52.9803 29.2546 52.9174 29.2657C52.8359 29.2805 52.7532 29.2904 52.6705 29.3052C52.6187 29.3139 52.5668 29.3287 52.5138 29.3349C52.4632 29.3398 52.4076 29.325 52.3607 29.3373C52.1459 29.3966 51.9262 29.3645 51.7102 29.3608C51.5892 29.3583 51.4658 29.3225 51.3461 29.2793C51.1671 29.2139 50.9881 29.1546 50.819 29.0633C50.6042 28.9473 50.4154 28.809 50.2685 28.6103C50.187 28.5004 50.1216 28.3856 50.0525 28.2696C49.9908 28.1672 49.9895 28.04 49.913 27.9438C49.9056 27.9339 49.9105 27.9141 49.9105 27.8993C49.9105 27.7981 49.9105 27.6981 49.9105 27.5907V27.592Z" fill="white"/>
<path d="M31.4448 29.2141V29.0561C31.4448 28.0662 31.4448 27.0763 31.4448 26.0876C31.4448 25.9481 31.3979 25.8135 31.4102 25.6716C31.4139 25.6308 31.3707 25.5876 31.3522 25.5444C31.2942 25.4087 31.2164 25.2877 31.1053 25.1852C31.0078 25.0951 30.8943 25.0556 30.7721 25.0198C30.5931 24.9668 30.4092 24.9791 30.2302 24.9964C30.1018 25.0075 29.9722 25.0606 29.8599 25.1383C29.6068 25.3136 29.4291 25.5457 29.339 25.8394C29.3094 25.937 29.2847 26.0357 29.2847 26.1382C29.2847 27.159 29.2847 28.1785 29.2847 29.2067H28.1787V24.2237C28.354 24.2237 28.5317 24.2188 28.7095 24.2249C28.8786 24.2311 29.0526 24.1916 29.2217 24.2607V24.9766C29.2637 24.9273 29.297 24.9001 29.3131 24.8656C29.3908 24.694 29.5217 24.5693 29.6747 24.4706C29.7784 24.4039 29.8809 24.3336 29.9957 24.2805C30.145 24.2114 30.3005 24.1731 30.4573 24.1299C30.6523 24.0743 30.8498 24.1114 31.0461 24.1015C31.0769 24.1003 31.109 24.1212 31.1411 24.1299C31.2843 24.1682 31.4287 24.1953 31.5694 24.2496C31.7052 24.3027 31.8311 24.3681 31.9447 24.4595C31.9903 24.4965 32.0397 24.5298 32.0842 24.5681C32.2557 24.7199 32.3495 24.9236 32.4532 25.1198C32.4705 25.1519 32.4754 25.1951 32.4754 25.2322C32.4754 25.3803 32.552 25.5136 32.552 25.6605C32.552 26.7936 32.552 27.9255 32.552 29.0586C32.552 29.0845 32.552 29.1092 32.552 29.1351C32.552 29.1845 32.5223 29.2067 32.4791 29.2117C32.4434 29.2154 32.4076 29.2117 32.3718 29.2117H31.4423L31.4448 29.2141Z" fill="white"/>
<path d="M48.0922 29.2139V29.0583C48.0922 28.0746 48.0898 27.0896 48.0947 26.1058C48.0947 25.9071 48.033 25.7256 47.9848 25.538C47.9392 25.3578 47.8182 25.2368 47.6849 25.1282C47.6182 25.0739 47.5244 25.048 47.438 25.022C47.2665 24.9714 47.0862 24.9739 46.9122 24.9949C46.7159 25.0183 46.532 25.0924 46.3802 25.2319C46.2234 25.3775 46.0975 25.5417 46.0198 25.7417C45.9741 25.8589 45.9321 25.9762 45.9321 26.1033C45.9321 27.092 45.9321 28.082 45.9321 29.0707V29.2089H44.8286V24.2222C45.136 24.2222 45.4433 24.221 45.7507 24.2234C45.7914 24.2234 45.8322 24.2481 45.8754 24.2617V24.9418C45.9037 24.9184 45.921 24.9085 45.9321 24.8937C46.0099 24.7937 46.0766 24.6826 46.1654 24.5937C46.2506 24.5086 46.3555 24.4419 46.4592 24.3765C46.6332 24.2666 46.8283 24.2024 47.0221 24.1395C47.0998 24.1136 47.185 24.1086 47.2677 24.1012C47.3442 24.0951 47.422 24.1062 47.4985 24.0988C47.6651 24.0827 47.817 24.137 47.9737 24.179C48.0749 24.2061 48.1811 24.2247 48.2749 24.2703C48.4057 24.3333 48.5317 24.4036 48.6427 24.5024C48.7008 24.5542 48.7773 24.5937 48.8205 24.6591C48.902 24.7826 49.0093 24.8912 49.0525 25.0369C49.0563 25.0504 49.0797 25.0615 49.0772 25.0714C49.055 25.1911 49.1266 25.285 49.1599 25.3899C49.1686 25.417 49.171 25.4479 49.171 25.4775C49.171 26.681 49.171 27.8845 49.171 29.088C49.171 29.0978 49.171 29.1089 49.171 29.1188C49.1686 29.1855 49.1464 29.2114 49.0834 29.2114C48.7551 29.2114 48.428 29.2114 48.091 29.2114L48.0922 29.2139Z" fill="white"/>
<path d="M13.3787 29.2141V24.3989C13.3787 24.373 13.3787 24.3483 13.3787 24.3224C13.3812 24.2471 13.4009 24.2249 13.4762 24.2249C13.7379 24.2249 13.9996 24.2224 14.2625 24.2249C14.3143 24.2249 14.3649 24.2471 14.4279 24.2619V24.9507C14.5205 24.8445 14.6106 24.768 14.6636 24.6705C14.7254 24.5569 14.8315 24.5075 14.9229 24.4384C15.092 24.3113 15.287 24.2261 15.4882 24.1706C15.6474 24.1261 15.8116 24.0805 15.9831 24.099C16.0547 24.1064 16.1276 24.1051 16.1992 24.099C16.2572 24.094 16.309 24.1076 16.3547 24.1348C16.3818 24.1508 16.4053 24.1619 16.4361 24.1632C16.5781 24.1693 16.9089 24.2854 17.0274 24.3705C17.1187 24.4372 17.215 24.4989 17.2952 24.5779C17.4582 24.7396 17.5903 24.9272 17.6532 25.1482C17.6902 25.2815 17.731 25.416 17.731 25.5617C17.7273 26.7244 17.7285 27.8872 17.731 29.0499C17.731 29.2141 17.7199 29.2165 17.5594 29.2141C17.2619 29.2104 16.9632 29.2141 16.6509 29.2141V29.098C16.6509 28.0674 16.6509 27.0379 16.6509 26.0073C16.6509 25.9332 16.6509 25.8616 16.6225 25.79C16.5793 25.6802 16.5596 25.5604 16.5127 25.453C16.4152 25.2309 16.2374 25.0914 16.0066 25.0223C15.9412 25.0025 15.8758 24.984 15.8042 24.9889C15.7178 24.9951 15.6289 24.9865 15.5425 24.9914C15.3117 25.0025 15.1068 25.084 14.9377 25.2407C14.8216 25.3494 14.7007 25.4555 14.6315 25.6036C14.5883 25.6974 14.5402 25.79 14.5032 25.8875C14.4884 25.927 14.4933 25.9764 14.4933 26.0208C14.4933 27.0305 14.4933 28.0402 14.4933 29.0499C14.4933 29.0808 14.4933 29.1116 14.4933 29.1412C14.4908 29.2313 14.4365 29.2807 14.3575 29.24C14.3057 29.2141 14.2612 29.2165 14.2131 29.2153C13.9416 29.2128 13.6688 29.2153 13.3836 29.2153L13.3787 29.2141Z" fill="white"/>
<path d="M19.8581 29.2141C19.7927 29.0376 19.7297 28.8697 19.6692 28.7006C19.6112 28.5401 19.5495 28.3822 19.494 28.2217C19.4199 28.0081 19.3323 27.7971 19.2681 27.5798C19.2224 27.4255 19.1508 27.2799 19.1014 27.1281C19.041 26.9441 18.9607 26.7676 18.899 26.5837C18.8237 26.3591 18.7509 26.1344 18.6719 25.9122C18.6225 25.774 18.5509 25.6444 18.5127 25.5037C18.4608 25.3161 18.3707 25.1432 18.3139 24.9581C18.2757 24.831 18.2115 24.7137 18.1707 24.5878C18.1448 24.5076 18.1127 24.4286 18.0843 24.3483C18.0522 24.2595 18.0732 24.2237 18.1596 24.2237C18.509 24.2224 18.8583 24.2237 19.2076 24.2237C19.2742 24.2237 19.3002 24.2471 19.2977 24.3125C19.2952 24.3804 19.2989 24.4421 19.3606 24.4866C19.3866 24.6026 19.4174 24.7174 19.4804 24.8198C19.4915 24.8384 19.4841 24.8692 19.4841 24.8951C19.4841 24.9692 19.5038 25.0371 19.5458 25.1C19.6223 25.2161 19.6544 25.3518 19.6976 25.4815C19.7445 25.6209 19.789 25.7604 19.8309 25.9011C19.9062 26.1554 20.0074 26.3998 20.0926 26.6504C20.0852 26.7874 20.1765 26.8911 20.2123 27.0145C20.2469 27.133 20.2716 27.2564 20.3259 27.3651C20.3555 27.4243 20.3296 27.4798 20.3617 27.5354C20.4432 27.6749 20.4876 27.8304 20.5394 27.9822C20.5444 27.9958 20.5604 28.0044 20.5814 28.0254C20.5962 27.9958 20.6234 27.9699 20.6221 27.944C20.616 27.7749 20.6851 27.6243 20.7357 27.4687C20.7974 27.2799 20.8493 27.0886 20.9307 26.9059C20.9295 26.7331 21.0307 26.5887 21.0628 26.4233C21.0937 26.269 21.1591 26.1171 21.2122 25.9653C21.3084 25.6876 21.3874 25.4062 21.4788 25.1272C21.5405 24.9383 21.6022 24.7483 21.659 24.5582C21.675 24.5039 21.6972 24.4483 21.6997 24.3928C21.7034 24.3286 21.733 24.2829 21.7676 24.2311H22.8983C22.9044 24.2718 22.9057 24.3088 22.8797 24.3607C22.7464 24.6273 22.6588 24.9124 22.5638 25.1951C22.5033 25.3741 22.4304 25.5481 22.365 25.7259C22.3268 25.8283 22.2922 25.9308 22.2564 26.0332C22.2243 26.127 22.2033 26.2258 22.1614 26.3159C22.1194 26.406 22.0947 26.5023 22.0515 26.5924C21.9935 26.7158 21.9589 26.8503 21.917 26.9812C21.891 27.0626 21.8491 27.1379 21.8269 27.2194C21.8046 27.2984 21.78 27.3737 21.7429 27.4453C21.7306 27.47 21.7269 27.4996 21.7207 27.528C21.6812 27.6798 21.6084 27.8193 21.5578 27.9662C21.4714 28.2167 21.3911 28.4686 21.2973 28.7167C21.2418 28.8623 21.1862 29.008 21.1443 29.1585C21.1344 29.1931 21.1122 29.219 21.069 29.2178C21.0171 29.2153 20.9665 29.2178 20.9147 29.2178H19.8544L19.8581 29.2141Z" fill="white"/>
<path d="M11.0081 22.3264C11.4018 22.3264 11.7869 22.3264 12.172 22.3264C12.1819 22.3264 12.1906 22.3314 12.2078 22.3351V22.4672C12.2078 24.6593 12.2078 26.8528 12.2078 29.0449C12.2078 29.2042 12.2066 29.2165 12.0412 29.2153C11.7487 29.2116 11.4561 29.2153 11.1636 29.2153C11.1327 29.2153 11.0982 29.2239 11.0723 29.2128C11.0451 29.2005 11.0204 29.1733 11.0068 29.1462C10.997 29.1264 11.0044 29.0968 11.0044 29.0709C11.0044 26.833 11.0044 24.5939 11.0044 22.3561C11.0044 22.3511 11.0044 22.3462 11.0068 22.3277L11.0081 22.3264Z" fill="white"/>
</svg>
