<svg width="112" height="46" viewBox="0 0 112 46" fill="none" xmlns="http://www.w3.org/2000/svg">
<path d="M92.4929 30.1348C92.4929 25.344 92.5014 20.5543 92.4807 15.7635C92.4782 15.2445 92.6293 15.1397 93.1228 15.1421C99.0906 15.1592 105.058 15.1616 111.027 15.1397C111.556 15.1372 111.653 15.2944 111.645 15.7818C111.617 17.7702 111.618 19.7599 111.645 21.7496C111.651 22.2163 111.54 22.3564 111.053 22.354C107.622 22.3308 104.192 22.3503 100.761 22.3308C100.314 22.3284 100.163 22.4246 100.181 22.8949C100.219 23.9087 100.218 24.9248 100.181 25.9386C100.165 26.3979 100.298 26.5173 100.755 26.5149C103.821 26.4941 106.886 26.5149 109.95 26.4917C110.461 26.4881 110.594 26.6343 110.586 27.135C110.558 29.0833 110.558 31.0328 110.586 32.981C110.594 33.4745 110.477 33.6365 109.955 33.6317C106.91 33.6061 103.866 33.6317 100.821 33.6073C100.315 33.6036 100.162 33.7401 100.18 34.2494C100.219 35.3241 100.214 36.4011 100.181 37.4758C100.168 37.9266 100.288 38.0582 100.753 38.0558C104.245 38.035 107.735 38.0558 111.227 38.0326C111.718 38.0289 111.876 38.1264 111.867 38.6516C111.832 40.6607 111.843 42.6711 111.862 44.6803C111.866 45.0982 111.813 45.2712 111.319 45.27C105.229 45.2505 99.1394 45.2518 93.0497 45.2688C92.5842 45.27 92.4831 45.1384 92.4843 44.6913C92.5002 39.8395 92.4941 34.989 92.4941 30.1372L92.4929 30.1348Z" fill="#0236BC"/>
<path d="M55.387 45.9001C52.5481 45.8989 50.0174 45.4359 47.7012 44.1127C45.586 42.904 44.0654 41.1653 43.1139 38.9186C42.9542 38.5409 43.0054 38.3654 43.3673 38.1595C45.2875 37.0678 47.1968 35.9554 49.0975 34.8283C49.4241 34.6346 49.5496 34.6565 49.7116 35.0111C51.2225 38.3337 54.2454 39.0148 57.2902 38.38C58.0225 38.2277 58.6585 37.8561 58.901 37.0556C59.13 36.3026 58.851 35.5496 58.1273 35.0476C57.3158 34.4847 56.3788 34.2057 55.4492 33.923C53.6861 33.3894 51.8902 32.9605 50.2014 32.2014C48.7466 31.5471 47.3856 30.7466 46.3122 29.5428C42.7483 25.5488 43.8035 19.0753 48.4627 16.1718C53.1378 13.2598 61.9312 13.7569 65.5694 20.7958C65.7984 21.238 65.8192 21.4488 65.3306 21.723C63.5102 22.744 61.7143 23.8101 59.9256 24.886C59.5333 25.1224 59.3713 25.1138 59.1483 24.6667C58.0152 22.3931 55.8439 21.3635 53.5618 21.9679C52.7138 22.1921 52.0754 22.6526 51.9389 23.5701C51.8049 24.473 52.2922 25.0749 53.0233 25.5111C54.3075 26.2774 55.744 26.6539 57.155 27.0889C58.7036 27.5665 60.2437 28.0576 61.7106 28.7618C65.2587 30.4639 66.9096 33.2748 66.6452 37.1884C66.3942 40.8973 64.4557 43.4182 61.0734 44.8535C59.197 45.6504 57.2122 45.9147 55.387 45.9001Z" fill="#0236BC"/>
<path d="M69.6949 30.2098C69.6949 25.3788 69.701 20.549 69.6852 15.7179C69.684 15.2829 69.762 15.1404 70.2371 15.1416C76.2452 15.1599 82.2532 15.1587 88.2613 15.144C88.6926 15.144 88.8485 15.2147 88.8412 15.6948C88.8108 17.7234 88.8132 19.7546 88.84 21.7832C88.8461 22.234 88.7389 22.3547 88.2771 22.3522C84.8874 22.3303 81.4978 22.362 78.1081 22.3218C77.4599 22.3145 77.3393 22.5118 77.3698 23.0955C77.4173 24.0263 77.4173 24.9633 77.3698 25.8954C77.3418 26.4279 77.5306 26.5192 78.018 26.5156C81.0421 26.4936 84.0662 26.518 87.0904 26.4912C87.6204 26.4863 87.7739 26.6082 87.7641 27.154C87.7276 29.1218 87.7337 31.092 87.7617 33.0597C87.7678 33.5276 87.6277 33.6312 87.1805 33.6287C84.1162 33.6092 81.0506 33.6287 77.9863 33.608C77.5196 33.6056 77.3552 33.7128 77.3734 34.2075C77.4124 35.3016 77.4112 36.3994 77.3734 37.4948C77.3564 37.97 77.5172 38.0577 77.9571 38.0553C81.4478 38.037 84.9398 38.0553 88.4306 38.0333C88.9204 38.0297 89.0825 38.1271 89.0727 38.6523C89.0386 40.6615 89.0398 42.6706 89.0727 44.6798C89.0813 45.183 88.9143 45.2671 88.4586 45.2659C82.3897 45.2513 76.3207 45.2513 70.2518 45.2671C69.7961 45.2683 69.6852 45.1562 69.6864 44.7005C69.7047 39.8707 69.6974 35.0397 69.6974 30.2086L69.6949 30.2098Z" fill="#0135BC"/>
<path d="M33.0534 30.2025C33.0534 25.3946 33.0607 20.5867 33.0412 15.7801C33.0387 15.2793 33.1581 15.1355 33.6687 15.1428C35.8387 15.1721 38.0099 15.166 40.1799 15.1465C40.5978 15.1428 40.7745 15.1977 40.7733 15.6911C40.7562 25.3678 40.7574 35.0433 40.7684 44.72C40.7684 45.1319 40.6782 45.2732 40.2384 45.2683C38.027 45.2452 35.8155 45.2427 33.6053 45.2695C33.1326 45.2756 33.0424 45.1282 33.0436 44.6871C33.0595 39.8598 33.0534 35.0311 33.0534 30.2038V30.2025Z" fill="#0236BC"/>
<path d="M22.0583 16.4536C13.2187 13.516 5.92156 15.6823 0.0706977 22.8734C-0.0547998 22.7723 0.0256161 22.5981 0.0256161 22.4531C0.0207424 18.3762 0.0317082 14.2982 0.00855818 10.2213C0.00612134 9.72057 0.165735 9.62919 0.622643 9.63284C3.03634 9.65356 5.45003 9.63041 7.86494 9.65356C8.31942 9.65843 8.44491 9.54146 8.43882 9.08212C8.41933 7.61148 8.43882 7.61148 9.90214 7.61148C10.9975 7.61148 12.0929 7.62854 13.1882 7.60295C13.572 7.59442 13.6914 7.71627 13.6598 8.08545C13.6305 8.42783 13.6829 8.77751 13.6464 9.11867C13.6001 9.55974 13.7792 9.65478 14.1934 9.65234C16.6071 9.63406 19.022 9.65843 21.4357 9.63163C21.9377 9.62553 22.0791 9.75347 22.0717 10.264C22.0413 12.3292 22.0596 14.3944 22.0596 16.4548L22.0583 16.4536Z" fill="#0236BC"/>
<path d="M15.6068 28.4294C15.5775 28.5171 15.5361 28.6317 15.502 28.7486C14.6077 31.8203 13.7072 34.8907 12.83 37.9672C12.724 38.3388 12.6448 38.4546 12.2305 38.3108C9.88262 37.4981 7.65534 36.4515 5.59134 35.0576C5.26724 34.8383 5.18804 34.6616 5.33181 34.2742C6.50881 31.1014 8.30964 28.3453 10.7477 25.9987C10.9816 25.7732 11.1303 25.7477 11.3983 25.9548C12.5619 26.854 13.8656 27.5034 15.2315 28.0346C15.4069 28.1029 15.6628 28.0943 15.608 28.4306L15.6068 28.4294Z" fill="#0236BC"/>
<path d="M22.0583 34.486C22.0583 36.0688 22.0388 37.6515 22.0705 39.233C22.0802 39.7192 21.9742 39.8958 21.4515 39.8885C19.1901 39.8568 16.9677 39.573 14.7697 39.0442C14.431 38.9625 14.3408 38.8663 14.4505 38.5166C15.4289 35.3877 16.3354 32.2381 17.1858 29.0714C17.2724 28.7485 17.3698 28.6669 17.7232 28.7436C19.0135 29.0263 20.3245 29.1822 21.6477 29.0872C22.0522 29.058 22.0632 29.2529 22.062 29.5539C22.0534 31.1975 22.0583 32.84 22.0583 34.4836V34.486Z" fill="#0236BC"/>
<path d="M0.00975027 27.0524C-0.0450787 26.7649 0.136466 26.4359 0.425232 26.1118C2.4076 23.8845 4.80911 22.2872 7.60417 21.2674C7.94777 21.1419 8.1415 21.0736 8.22801 21.5866C8.41686 22.7148 9.01998 23.6628 9.79124 24.4877C10.0727 24.7886 10.0361 24.9348 9.74982 25.1968C7.26058 27.4862 5.42442 30.2179 4.24255 33.3907C4.1865 33.5393 4.20965 34.0291 3.81123 33.6782C1.98481 32.0687 0.452037 30.2678 0.0597056 27.7494C0.0316819 27.5703 0.0329003 27.3863 0.00975027 27.0512V27.0524Z" fill="#0236BC"/>
<path d="M11.0389 0C13.4148 0.182763 15.7798 0.36309 18.1435 0.547071C18.5712 0.579969 18.8088 0.819998 18.838 1.24766C18.8539 1.46942 18.8478 1.69361 18.8453 1.91658C18.8368 2.74023 18.6674 2.91081 17.8621 2.96929C16.1636 3.09236 14.4663 3.23613 12.7666 3.34579C12.3719 3.37137 12.2427 3.51515 12.2598 3.90261C12.2866 4.50938 12.2598 5.11981 12.2695 5.7278C12.2744 6.01291 12.1684 6.12501 11.8772 6.11648C11.3094 6.10064 10.7416 6.10064 10.1738 6.11648C9.868 6.12501 9.79368 5.98002 9.79855 5.70953C9.8083 5.10153 9.78515 4.49232 9.80708 3.88433C9.81927 3.53708 9.7291 3.37503 9.34774 3.35066C7.64804 3.23857 5.952 3.09479 4.2523 2.97295C3.39453 2.91203 3.23613 2.75851 3.23126 1.89952C3.23126 1.67655 3.22395 1.45236 3.23857 1.23061C3.26537 0.829745 3.48713 0.586061 3.88677 0.554382C6.27122 0.364308 8.65689 0.183982 11.0353 0.00121842L11.0389 0Z" fill="#0236BC"/>
<path d="M4.63973 36.5625C6.55874 37.9503 8.5801 38.9957 10.7148 39.8327C11.1936 40.0204 11.9161 39.9997 12.0855 40.4529C12.2317 40.8453 11.9052 41.413 11.7833 41.9028C11.5384 42.8837 11.2826 43.8621 11.0511 44.8453C10.9804 45.1451 10.8671 45.2693 10.532 45.2657C8.5862 45.2474 6.64038 45.2572 4.69456 45.2559C4.50204 45.2559 4.30344 45.3108 4.25714 44.9952C3.84166 42.1806 3.92329 39.3941 4.64095 36.5625H4.63973Z" fill="#0236BC"/>
<path d="M0.0207641 31.4619C0.962604 33.1043 2.05918 34.4141 3.37752 35.5314C3.55906 35.685 3.49449 35.8409 3.4555 36.0225C2.83288 38.9138 2.78536 41.8185 3.30319 44.7293C3.37874 45.1558 3.27639 45.2873 2.8341 45.2666C2.08477 45.2313 1.33057 45.2289 0.581238 45.2666C0.130422 45.2898 0.00614305 45.1679 0.00857989 44.7037C0.0292931 40.8876 0.0207641 37.0703 0.0207641 33.2542V31.4619Z" fill="#0236BC"/>
<path d="M12.289 45.2554C12.763 43.814 13.2162 42.475 13.6366 41.125C13.734 40.8106 13.9022 40.8204 14.1361 40.8788C16.6095 41.4978 19.1183 41.7841 21.6684 41.6672C21.9511 41.6538 22.0681 41.7269 22.0632 42.0315C22.0486 42.9843 22.0522 43.9383 22.062 44.8923C22.0644 45.1336 22.0205 45.2615 21.7342 45.2615C18.6114 45.2542 15.4886 45.2566 12.289 45.2566V45.2554Z" fill="#0236BC"/>
<path d="M17.3589 20.6707C15.1804 21.4395 13.3015 22.4118 11.5811 23.6802C11.402 23.813 11.2814 23.8179 11.1169 23.6546C10.4029 22.9467 9.8059 22.1645 9.52566 21.1812C9.46718 20.9777 9.36117 20.7438 9.71695 20.6695C12.2062 20.1504 14.6942 20.109 17.3601 20.6707H17.3589Z" fill="#0236BC"/>
<path d="M17.4076 19.8953C14.788 19.4177 12.1721 19.3738 9.49884 19.8125C9.61946 19.0887 9.9923 18.6001 10.4858 18.2042C11.4824 17.4012 12.6667 17.0856 13.912 16.948C14.0886 16.9285 14.2202 16.9894 14.3579 17.0893C15.4715 17.9008 16.4926 18.8146 17.4076 19.8953Z" fill="#0236BC"/>
<path d="M17.8584 21.4629C17.3053 23.1504 16.7874 24.7197 16.2781 26.2927C16.2075 26.5096 16.1161 26.5754 15.887 26.4925C14.7417 26.0746 13.6585 25.5361 12.6314 24.8781C12.278 24.6515 12.4596 24.5272 12.6789 24.3615C14.2397 23.1857 15.9248 22.2329 17.8572 21.4641L17.8584 21.4629Z" fill="#0236BC"/>
<path d="M19.0622 21.8184C20.2916 23.4937 21.209 25.2373 21.9169 27.0966C22.0339 27.4036 21.923 27.4743 21.6245 27.4791C20.4439 27.4999 19.2803 27.389 18.1277 27.1295C17.912 27.0807 17.7292 27.0515 17.806 26.7554C18.2203 25.1386 18.6296 23.5205 19.0622 21.8184Z" fill="#0236BC"/>
<path d="M3.08508 22.0523C4.86154 20.221 6.91702 18.8295 9.48545 17.8828C8.85431 18.5724 8.40593 19.1768 8.23535 19.9359C8.19027 20.1381 8.01969 20.1539 7.86617 20.1966C6.33705 20.6194 4.87738 21.2128 3.49447 21.9925C3.36775 22.0632 3.24957 22.1375 3.08386 22.0523H3.08508Z" fill="#0236BC"/>
<path d="M15.0756 16.9495C16.4036 16.8947 17.694 17.0677 18.9733 17.3602C19.2487 17.4235 19.2706 17.5417 19.1731 17.7878C18.9635 18.313 18.782 18.8491 18.6029 19.3864C18.5152 19.6496 18.4408 19.7824 18.174 19.5192C17.2224 18.5786 16.1734 17.7549 15.0768 16.9508L15.0756 16.9495Z" fill="#0236BC"/>
<path d="M22.0437 19.0707C22.1399 19.5008 21.9974 19.6909 21.5405 19.7262C20.98 19.7701 20.4244 19.8956 19.87 20.004C19.5764 20.0613 19.4484 20.0101 19.5349 19.6799C19.6385 19.29 19.7177 18.894 19.8103 18.5017C19.9452 17.925 20.2989 17.7438 20.8716 17.9583C21.0787 18.0363 21.2773 18.1447 21.4893 18.2032C21.9486 18.3299 22.1728 18.5906 22.0437 19.0707Z" fill="#0236BC"/>
<path d="M19.948 21.46C20.6912 21.65 21.2627 21.979 21.8573 22.2483C22.0656 22.3433 22.0607 22.5188 22.0595 22.704C22.0559 23.2657 22.0583 23.8286 22.0059 24.4195C21.3748 23.4314 20.7363 22.4566 19.948 21.46Z" fill="#0236BC"/>
<path d="M20.1174 20.7106C20.5597 20.5985 20.885 20.5096 21.2115 20.434C22.1071 20.2281 22.0973 20.2306 22.0644 21.1395C22.0534 21.4417 22.0047 21.5452 21.6904 21.3954C21.2079 21.1639 20.7083 20.9665 20.1174 20.7106Z" fill="#0236BC"/>
</svg>
