<svg width="125" height="50" viewBox="0 0 125 50" fill="none" xmlns="http://www.w3.org/2000/svg">
<g clip-path="url(#clip0_1_1492)">
<path d="M87.91 10H38V39.3498H87.91V10Z" fill="#C41230"/>
<path d="M59.3314 32.6012H53.9794C54.881 31.8684 55.5256 31.4081 56.101 30.8709C57.582 29.4898 57.5935 28.2122 56.1586 26.7735C55.4373 26.0484 54.6393 25.4 53.9641 24.6365C52.4601 22.9407 52.4294 21.0263 53.7991 19.2384C55.6215 16.8636 58.4951 16.0963 61.8674 17.2549C61.0694 17.769 60.398 18.1795 59.7535 18.6246C57.4592 20.1976 56.3543 22.4113 59.2892 24.8283C59.5348 25.0317 59.765 25.2542 59.9952 25.4729C62.7575 28.1393 62.5465 30.3185 59.3314 32.5974V32.6012Z" fill="white"/>
<path d="M69.305 32.6282H63.9146C64.7894 31.9069 65.4186 31.4427 65.9864 30.9171C67.5747 29.44 67.5786 28.1739 66.0286 26.6854C65.292 25.9794 64.4901 25.3272 63.8341 24.5522C62.38 22.8411 62.4376 20.9151 63.8072 19.1465C65.8713 16.4839 68.6068 16.4954 71.9177 17.0325C71.2732 17.5313 70.9049 17.8152 70.5366 18.0991C69.8345 18.6439 69.0518 19.112 68.4418 19.7488C67.1105 21.1338 67.1182 22.5725 68.4034 23.9844C69.0019 24.6443 69.704 25.2121 70.3332 25.8451C72.4242 27.9399 72.3858 29.8774 70.2181 31.9223C69.9419 32.1832 69.6158 32.3903 69.305 32.6282Z" fill="white"/>
<path d="M46.8887 16.894H51.0168V32.5396H46.8887V16.894Z" fill="white"/>
<path d="M74.8965 16.894H79.0208V32.5396H74.8965V16.894Z" fill="white"/>
</g>
<defs>
<clipPath id="clip0_1_1492">
<rect width="49.91" height="29.3498" fill="white" transform="translate(38 10)"/>
</clipPath>
</defs>
</svg>
