<svg width="125" height="50" viewBox="0 0 125 50" fill="none" xmlns="http://www.w3.org/2000/svg">
<path fill-rule="evenodd" clip-rule="evenodd" d="M26.4648 16.3156C26.8141 16.3156 27.0936 16.3156 27.443 16.3855C27.5828 16.3855 27.6526 16.3855 27.8623 16.3855C28.002 16.3855 28.1418 16.3855 28.2815 16.3855L31.0765 16.5252L34.7798 16.3855C35.4087 16.3156 36.1074 15.9662 35.8978 16.9444C35.758 17.5034 35.8978 17.5733 35.4087 17.8528C33.5919 18.831 34.0112 18.7612 34.5003 20.2984C35.4087 22.6741 36.3869 25.0499 37.435 27.4256L38.2735 29.3122C38.6229 30.1507 38.9723 30.9892 39.3216 31.8975C39.5313 32.3168 39.7409 32.736 39.8806 33.1553L42.3961 38.8849C42.3961 39.0247 42.6057 39.3741 42.6057 39.5138H42.6756C42.7455 39.4439 46.1693 32.5963 46.1693 32.3866C46.2392 32.2469 45.4007 30.4302 45.2609 30.1507C45.1911 29.8712 45.1212 29.6616 44.9814 29.3821L40.5095 19.0407C40.23 18.6214 39.8107 18.3419 39.2518 18.2022C38.7626 18.0624 38.0639 17.7829 37.5748 17.7131C37.5748 17.2938 37.6446 16.8746 37.6446 16.3156L40.5794 16.4553C41.4877 16.5252 44.5622 16.5951 45.1911 16.5252L46.9379 16.3855C47.2873 16.3855 47.8463 16.3855 48.1957 16.3156H49.4534C49.4534 16.6649 49.5233 17.4336 49.3835 17.7131C48.8944 17.8528 47.6367 17.9227 47.3572 18.1323C46.6584 18.6913 47.427 20.0189 47.7065 20.508L49.8028 25.7486C50.0124 25.6088 50.1521 25.1896 50.222 24.98L52.6676 19.7394C52.8772 19.0407 53.1567 18.6214 52.3182 18.2721C52.0387 18.2022 51.8291 18.1323 51.5496 17.9926C50.6413 17.7829 50.5015 17.8528 50.4316 17.5034C50.4316 16.9444 50.4316 16.8746 50.5015 16.3156C52.9471 16.3156 55.2529 16.4553 57.6287 16.4553H59.0262C59.0262 16.8746 59.0262 17.4336 58.8864 17.7829L57.1396 18.3419C56.1613 18.6913 55.6722 18.9009 55.1132 19.7394C54.694 20.508 54.3446 21.2766 53.9253 21.9754L50.9207 28.1243C50.9207 28.4038 51.4797 29.4519 51.6195 29.8013C51.6894 29.941 51.7592 30.0109 51.7592 30.1507C51.899 30.4302 51.9689 30.5699 52.0387 30.7795C52.1785 31.059 52.2484 31.2687 52.3182 31.4783C52.458 31.6879 52.5279 31.8975 52.5977 32.1071L53.7856 34.7624C53.9253 35.2515 54.135 35.6707 54.3446 36.09C54.4843 36.5791 54.694 36.9983 54.9036 37.4176L55.3228 38.3958C55.3927 38.6055 55.3228 38.6055 55.4626 38.6753C55.6023 38.1862 57.4889 33.3649 57.8383 32.5264C57.978 32.1071 58.1178 31.6879 58.2575 31.2687C58.3973 31.059 58.4672 30.8494 58.537 30.6398L62.1006 21.4863C62.2404 21.1369 62.9391 19.2503 62.9391 18.9708C62.9391 18.9009 62.8692 18.6214 62.8692 18.5516C62.45 18.4118 61.332 18.1323 60.9826 17.9227C60.8429 17.8528 60.773 17.8528 60.773 17.7131C60.7264 17.6199 60.7031 17.5034 60.7031 17.3637C60.7031 16.3855 60.7031 16.8746 60.8429 16.3855C61.1224 16.3855 61.4019 16.3156 61.7513 16.3855C62.1006 16.3855 62.3801 16.3855 62.7295 16.3855C62.9391 16.3855 62.9391 16.4553 63.1487 16.4553L65.8738 16.3855C66.1533 16.3855 66.9918 16.3156 67.2713 16.3855C67.5508 16.5252 67.4111 17.5034 67.2713 17.7131C67.1316 18.1323 65.8738 18.3419 65.3847 19.1105C65.245 19.4599 65.1052 19.6695 65.0353 20.0189C64.8956 20.345 64.7558 20.6711 64.6161 20.9971C63.8475 23.1632 62.9391 25.3992 62.0308 27.5653C61.8211 28.1942 61.5416 28.7532 61.332 29.4519C61.0525 30.0808 60.773 30.6398 60.4935 31.2687C59.5851 33.4348 58.7467 35.6009 57.8383 37.8368L54.9036 45.3134C54.7638 45.6627 54.6241 45.9422 54.5542 46.2916C54.1815 46.2916 53.7856 46.2916 53.3663 46.2916C52.9471 46.2916 52.6676 46.3615 52.2484 46.3615C52.0387 45.523 51.6894 44.8243 51.34 44.0556C51.2468 43.8227 51.1537 43.5898 51.0605 43.3569L50.5015 41.8895C50.2686 41.4237 50.059 40.9579 49.8726 40.4921L49.2438 39.0247C48.8245 38.1862 47.6367 35.1117 47.2873 34.8322C47.2174 35.0419 47.0078 35.3912 46.9379 35.6009L45.4007 38.3958C44.9116 39.4439 44.3526 40.4222 43.8635 41.4703C43.7936 41.5402 43.7936 41.5402 43.7237 41.61C43.6538 41.7498 43.584 41.8197 43.584 41.9594C43.025 43.0075 42.2563 44.4749 41.7672 45.5929C41.6974 45.8025 41.5576 46.082 41.4877 46.2916H39.1819C39.0421 45.6627 38.6928 44.8941 38.4831 44.3351C38.3434 44.0556 38.2036 43.7761 38.0639 43.4268L36.876 40.7017C36.6664 40.0728 36.317 39.5138 36.1074 38.8849L31.0066 27.0063C30.5874 26.098 30.238 25.1197 29.8187 24.2114C29.5392 23.6524 29.3296 23.0235 29.0501 22.3946L28.002 20.1587C27.7225 19.5298 27.3033 18.5516 26.6744 18.2022C26.5346 18.1323 26.3949 18.0624 26.2552 17.9926C26.0455 17.9227 25.9058 17.9227 25.8359 17.7829C25.766 17.6432 25.6962 16.5252 25.6962 16.4553C26.1154 16.2457 26.0455 16.3156 26.4648 16.3156ZM10.6033 19.1804C10.8828 18.4817 10.6732 18.5516 11.6514 18.4118L13.8874 18.0624C14.4464 17.9926 14.9355 17.8528 15.4246 17.8528C16.2631 17.7131 18.1497 17.3637 19.128 17.2239C19.4075 17.1541 19.687 17.1541 19.8966 17.0842C20.1761 17.0842 20.3857 17.0143 20.6652 17.0143C21.7832 16.8047 21.923 16.8746 23.1108 16.8746C23.1108 17.0842 22.4819 19.2503 22.4121 19.5997L18.9882 31.3385C18.9416 31.5714 18.8718 31.8044 18.7786 32.0373L18.4292 33.2251C18.3827 33.3649 18.3594 33.4813 18.3594 33.5745C18.2196 34.0636 18.01 34.6226 17.9401 35.1117C17.6606 35.9502 16.892 38.5356 16.6125 39.6536C16.4728 40.1427 16.333 40.7017 16.333 41.2607C16.333 41.8197 16.9619 42.5883 18.01 41.8197C18.2196 41.6799 18.3594 41.5402 18.569 41.3305L18.7087 41.1908L19.128 40.7716C19.6171 40.2824 21.4338 37.8368 21.5037 37.5573C21.6435 37.6272 22.4819 38.1163 22.5518 38.1862C22.4819 38.6055 20.9447 40.8414 20.805 40.9812C20.1761 41.8197 19.7568 42.3787 18.9882 43.1473L18.7786 43.4268C18.2196 43.9159 17.8702 44.2653 17.2414 44.6845C17.1016 44.8243 17.0318 44.8243 16.892 44.964C16.6824 45.1038 16.4728 45.2435 16.1933 45.3833C15.215 45.9422 14.0272 46.2916 12.8393 46.3615H12.4201C11.4418 46.2916 10.4636 46.0121 9.62509 45.3134C8.71672 44.5448 8.36735 43.5665 8.29748 42.5883V42.0293C8.34406 41.5169 8.41393 41.0278 8.5071 40.5619C8.57697 40.3523 8.57697 40.1427 8.64685 39.9331C8.71672 39.7933 8.71672 39.7234 8.7866 39.5837L9.41547 37.4176C9.90458 35.6009 10.5335 33.6444 11.0226 31.7578C11.1623 31.3385 11.3021 30.9193 11.4418 30.5L13.1887 24.2114C13.538 23.0235 14.2368 21.1369 13.0489 20.2984C12.2803 19.7394 11.4418 19.8093 10.4636 19.8093C10.4636 19.5997 10.5335 19.39 10.6033 19.1804ZM66.5027 28.7532C67.4809 28.0544 68.8086 27.1461 69.9964 26.8666C71.883 26.3775 74.4684 26.1678 76.4248 26.657C78.0319 27.0762 79.1499 28.0544 79.4993 29.8712C79.8487 31.9674 79.7089 36.5791 79.7089 39.0247C79.7089 39.3741 79.7089 39.6536 79.7089 40.0728C79.7089 40.7017 79.7089 41.5402 79.8487 42.0293C80.0583 42.4485 80.4775 42.6582 80.8968 42.5184C81.0365 42.5184 81.0365 42.4485 81.1763 42.3088L81.5955 41.6799C81.6654 41.5402 81.6654 41.4004 81.8051 41.3305C82.2244 41.1209 82.2244 41.2607 82.2943 41.3305C83.0629 41.8197 83.0629 41.7498 82.7834 42.728C82.5738 43.3569 82.2943 43.9159 81.9449 44.405C80.9667 45.7326 78.9403 45.8724 77.6127 45.2435C76.0056 44.405 75.4466 42.5184 75.237 42.3088C75.1671 42.5883 74.4684 43.4268 74.2587 43.7063C74.119 43.7761 74.0491 43.846 73.9094 43.9858C73.0709 44.8243 71.4638 45.4531 70.2759 45.5929C68.1797 45.8724 65.3148 46.0121 64.127 43.9858C63.0789 42.3088 63.8475 40.2126 65.1751 38.9548C65.245 38.8849 65.245 38.8849 65.3148 38.8151C65.9437 38.326 66.5027 37.9067 67.2713 37.4875C67.5508 37.3477 67.7604 37.2778 68.0399 37.1381C69.2278 36.649 70.2759 36.2297 71.3939 35.7406C71.6734 35.6707 71.9529 35.531 72.2324 35.4611L74.7479 34.413C74.7479 32.6661 75.0274 30.3603 74.1889 28.6833C73.3504 27.1461 70.4157 28.0544 69.5772 28.8231C68.9483 29.3821 68.8086 29.8013 68.5989 30.6398C68.5989 30.7795 68.5989 30.9193 68.529 31.059C68.3893 31.7578 68.4592 32.3168 67.9701 32.6661C67.4809 33.0155 66.6424 33.3649 66.0835 33.5745C65.3847 33.854 64.686 34.2732 63.8475 34.2732C63.4981 34.2732 63.4981 33.5046 63.4981 33.295C63.4981 31.2687 65.0353 29.8712 66.5027 28.7532ZM72.8613 43.0075L73.9792 42.169C74.0491 42.0293 74.119 41.9594 74.1889 41.8197C74.4684 41.5402 74.6081 41.2607 74.678 40.8414L74.8177 39.4439C74.8177 38.8151 74.8177 37.2778 74.7479 36.7887V36.0201C74.3985 36.09 73.0709 36.7188 72.8613 36.8586C71.7433 37.4875 70.4855 38.1862 69.7868 39.1644C69.0182 40.2126 68.8086 41.8895 69.647 42.7979C70.206 43.4268 70.4855 43.4966 71.324 43.4966C71.8131 43.4966 72.442 43.287 72.8613 43.0075ZM117.511 34.2034V34.2732C117.441 34.4829 117.301 34.413 117.162 34.413C116.742 34.3431 116.113 34.3431 115.694 34.3431C114.926 34.3431 113.668 34.2732 112.899 34.2732L111.572 34.2034C111.082 34.2034 110.593 34.2034 110.174 34.1335C109.336 33.9938 105.283 34.0636 104.305 34.0636C104.235 34.0636 104.165 34.1335 104.165 34.2034C104.165 34.9021 104.165 35.1816 104.235 35.8804C104.305 36.1599 104.305 36.3695 104.375 36.5791C104.444 37.0682 104.514 37.4875 104.654 37.9067C105.003 38.8849 105.562 39.9331 106.191 40.5619C106.331 40.7017 106.471 40.8414 106.61 40.9812C106.68 41.1209 106.75 41.1209 106.82 41.1908L107.519 41.6799C107.938 41.9594 109.475 42.5883 109.964 42.5883C111.711 42.5883 112.2 42.6582 113.877 42.0293C114.716 41.7498 114.926 41.5402 115.624 41.1209C115.764 41.051 116.044 40.7716 116.113 40.7716C116.253 40.7716 117.371 41.7498 117.511 41.8197L117.162 42.2389C116.742 42.6582 116.672 42.6582 116.463 42.8678C115.974 43.3569 115.415 43.846 114.856 44.1954C113.808 44.8941 112.69 45.3832 111.502 45.6627C108.078 46.5012 104.235 46.0121 101.789 43.4966C100.997 42.7513 100.368 41.843 99.9026 40.7716C99.2737 39.5837 98.9243 38.1862 98.9243 36.649C98.9243 35.2515 99.0641 34.0636 99.4833 32.8059C99.5299 32.6196 99.5998 32.4332 99.693 32.2469C99.7395 32.0606 99.7861 31.8975 99.8327 31.7578C100.182 31.1289 100.531 30.5699 100.951 30.0109C101.719 29.0327 102.418 28.4038 103.466 27.7051C103.536 27.6352 103.606 27.6352 103.676 27.5653C103.816 27.4955 103.955 27.4256 104.095 27.2858C105.283 26.5871 107.239 26.098 108.707 26.2377C109.196 26.3076 109.615 26.2377 110.104 26.3076C111.781 26.5871 112.969 26.8666 114.297 27.9147C114.576 28.1942 115.205 28.6833 115.415 28.9628C115.834 29.4519 115.904 29.5917 116.323 30.2205C117.022 31.2687 117.231 32.2469 117.441 33.4348C117.441 33.6444 117.441 33.9239 117.511 34.1335C117.511 34.1335 117.511 34.1568 117.511 34.2034ZM112.41 32.5264C112.41 30.7097 111.641 29.1026 110.244 28.1942C109.545 27.7749 109.056 27.7051 108.218 27.7051C106.89 27.7051 105.562 28.8929 105.003 30.0109C104.584 30.8494 104.375 31.618 104.305 32.5963C105.982 32.5963 107.519 32.5963 109.196 32.5963C110.384 32.5963 111.222 32.5264 112.41 32.5264ZM93.8235 27.0063H97.0377C97.2474 27.0063 97.2474 27.0063 97.3871 27.0063C98.7846 27.1461 99.7628 27.0063 101.09 27.0063C101.37 27.0063 101.51 26.9365 101.51 27.1461C101.51 28.6134 101.719 28.2641 100.531 28.5436L98.9243 29.1026C98.7147 29.1724 98.3653 29.3122 98.2955 29.3821C98.1557 29.5218 97.6666 30.9892 97.5967 31.2687C97.3172 31.9674 96.8281 33.0854 96.6185 33.7841C96.0595 35.0419 95.5005 36.2996 95.0114 37.4176L91.3779 45.9422H89.4913C89.4214 45.8025 89.2118 45.523 89.1419 45.3833C88.2336 43.5665 86.906 40.7017 86.1374 38.8151L82.3641 30.3603C82.2244 30.1507 82.1545 30.0109 82.0846 29.7314C81.7353 29.0327 81.7353 29.1724 81.1064 28.9628C80.8968 28.8929 80.6872 28.8231 80.4775 28.7532C80.198 28.6833 79.7089 28.6134 79.6391 28.3339C79.4993 28.0544 79.5692 27.5653 79.6391 27.2858C79.6391 27.0762 79.6391 27.0762 79.8487 27.0063H81.5955C81.9449 27.0063 82.1545 27.0762 82.5039 27.0762C83.7616 27.0762 84.8796 27.1461 86.2072 27.1461C87.465 27.1461 88.5829 27.0063 89.8407 27.0063C89.9804 27.4256 90.0503 28.4737 89.7708 28.6134L88.024 28.8231C87.1855 29.0327 87.1156 29.3821 87.5348 30.1507C87.9541 30.9193 88.1637 31.7578 88.583 32.5963C88.6528 32.736 88.6528 32.736 88.7227 32.9456C88.8624 33.1786 88.9789 33.3882 89.0721 33.5745L90.3298 36.2996C90.8888 37.5573 91.308 38.6055 91.7972 39.8632L92.0767 40.4921L92.9152 38.3958C93.0549 38.1862 93.1248 37.9766 93.1946 37.6971C93.3344 37.4875 93.4043 37.208 93.4741 36.9983C93.9633 35.7406 95.9896 30.0808 95.9896 28.8929C95.5005 28.8929 95.0813 28.7532 94.5223 28.7532C94.2428 28.7532 94.0331 28.6833 93.6838 28.6833C93.1946 28.6833 93.1248 28.6833 92.9152 28.6833L92.8453 27.7051C92.8453 26.8666 93.1248 27.0762 93.8235 27.0063ZM16.8221 6.25369C16.9619 5.34533 17.451 4.57671 18.0799 3.94784L18.2196 3.87797C18.4991 3.59847 18.8485 3.31897 19.1979 3.17922C19.7568 2.89973 20.3857 2.75998 21.0146 2.75998H21.5037C22.3422 2.75998 23.1807 3.03948 23.8794 3.59847C24.089 3.73822 24.2288 3.87797 24.4384 4.08759C25.8359 5.48507 26.1154 7.5813 25.2769 9.32816C24.9974 9.88715 24.7179 10.2365 24.2987 10.5859C24.0891 10.7955 23.9493 10.9353 23.6698 11.075C23.3204 11.4244 22.5518 11.7039 22.0627 11.7738C21.8531 11.7738 21.2941 11.8436 21.0845 11.8436C20.3857 11.7738 19.8267 11.7039 19.2677 11.4244C18.2895 10.8654 17.5209 10.1666 17.1016 9.11853C16.8221 8.55954 16.6824 7.93067 16.6824 7.3018C16.6824 7.02231 16.7523 6.53319 16.8221 6.25369Z" fill="#199F9F"/>
</svg>
