<svg width="79" height="37" viewBox="0 0 79 37" fill="none" xmlns="http://www.w3.org/2000/svg">
<g clip-path="url(#clip0_2216_4272)">
<path d="M78.4723 0.292114H1.04884V5.76446H78.4723V0.292114Z" fill="#0E88D3"/>
<path d="M78.4723 31.2356H1.04884V36.7079H78.4723V31.2356Z" fill="#0E88D3"/>
<path d="M28.7865 10.8636H18.8319V20.7341C18.8319 22.8895 18.3357 24.072 16.072 24.072H10.5506C8.05863 24.072 7.92154 22.8093 7.92154 20.4755V17.6439H1.54011V22.1254C1.54011 25.6962 6.14156 26.3132 10.1035 26.3132H13.9251C24.5232 26.3132 25.2126 24.7521 25.2126 20.1444V13.4569C25.2126 12.191 25.5156 11.5944 26.9808 11.5944H28.7865V10.8636Z" fill="white"/>
<path d="M35.4685 21.6181L38.9116 16.1341L42.3531 21.6181H35.4685ZM45.064 14.2303C44.1697 12.8055 44.2094 11.394 46.0533 11.394H47.6814V10.6633L34.9894 10.6722L25.1774 26.3125H32.5247L33.9456 24.0488H43.8776L45.2969 26.3125H52.6458L45.064 14.2303Z" fill="white"/>
<path d="M75.2087 12.9367C75.2087 12.3665 75.6698 11.2292 77.7247 11.2292H78.4703V10.6566H53.3559V26.3133H76.9536V23.6843H59.7358V19.7465H75.4494V17.1151H59.7358V12.9367H75.2087Z" fill="white"/>
</g>
<defs>
<clipPath id="clip0_2216_4272">
<rect width="78.0078" height="37" fill="white" transform="translate(0.756721)"/>
</clipPath>
</defs>
</svg>
