<svg width="125" height="50" viewBox="0 0 125 50" fill="none" xmlns="http://www.w3.org/2000/svg">
<g clip-path="url(#clip0_71_112)">
<path d="M49.5491 14.4888H51.3699V26.8881C51.3699 28.5631 51.0183 29.8734 50.3149 30.8215C49.6116 31.7671 48.666 32.2412 47.4782 32.2412C46.2904 32.2412 45.3083 31.7932 44.6284 30.8945C43.9485 29.9958 43.6099 28.7532 43.6099 27.1669H45.4203C45.4203 28.1697 45.6027 28.9512 45.9647 29.5113C46.3268 30.0739 46.8322 30.3527 47.4782 30.3527C48.1242 30.3527 48.6061 30.0479 48.9838 29.4383C49.3589 28.8288 49.5491 27.9744 49.5491 26.8777V14.4888Z" fill="#606060"/>
<path d="M57.9603 32.2387C56.6266 32.2387 55.6055 31.7568 54.8918 30.7903C54.178 29.8239 53.8159 28.4068 53.8029 26.5391V24.9632C53.8029 23.0225 54.152 21.5012 54.8475 20.3994C55.543 19.2975 56.5146 18.7452 57.7624 18.7452C59.0101 18.7452 59.9531 19.2298 60.5731 20.2014C61.193 21.1704 61.5108 22.6839 61.5239 24.7339V26.1302H55.5456V26.4297C55.5456 27.826 55.7618 28.8393 56.1942 29.4723C56.6266 30.1052 57.2492 30.423 58.0593 30.423C58.5751 30.423 59.0284 30.3058 59.4191 30.0688C59.8124 29.8317 60.1797 29.4566 60.5236 28.9435L61.4353 30.2902C60.6773 31.59 59.5181 32.2387 57.9603 32.2387ZM57.765 20.5739C57.0382 20.5739 56.5016 20.8761 56.1525 21.483C55.8035 22.0873 55.6055 23.0277 55.5586 24.3041H59.776V24.015C59.7291 22.7802 59.5467 21.8998 59.2263 21.3684C58.9059 20.8396 58.4188 20.5739 57.7676 20.5739H57.765Z" fill="#606060"/>
<path d="M65.9183 15.8356V18.9875H67.5308V20.7068H65.9183V28.7872C65.9183 29.3003 65.9887 29.6911 66.1267 29.9542C66.2648 30.2199 66.5018 30.3527 66.8405 30.3527C67.0723 30.3527 67.3068 30.3032 67.5438 30.2095L67.523 32.0016C67.127 32.1605 66.7206 32.2413 66.3065 32.2413C65.6136 32.2413 65.0848 31.9417 64.7227 31.34C64.3606 30.7383 64.1783 29.8891 64.1783 28.7898V20.7094H62.545V18.9901H64.1783V15.8382H65.9209L65.9183 15.8356Z" fill="#606060"/>
<path d="M79.292 31.9964H77.4711V23.9029H71.67V31.9964H69.8596V14.4888H71.67V22.017H77.4711V14.4888H79.292V31.999V31.9964Z" fill="white"/>
<path d="M81.8135 24.8902C81.8135 22.9991 82.1912 21.5012 82.9466 20.3994C83.7021 19.2975 84.6997 18.7452 85.9397 18.7452C87.1796 18.7452 88.1773 19.2819 88.9327 20.3577C89.6881 21.4309 90.0763 22.8949 90.0945 24.7469V26.1171C90.0945 28.0005 89.7194 29.4931 88.9666 30.5898C88.2138 31.689 87.2109 32.2361 85.9579 32.2361C84.705 32.2361 83.7229 31.7021 82.9727 30.6366C82.2225 29.5712 81.8369 28.1281 81.8109 26.3073V24.8876L81.8135 24.8902ZM83.5666 26.1171C83.5666 27.4561 83.7828 28.5084 84.2152 29.2743C84.6476 30.0401 85.2285 30.423 85.9631 30.423C87.5078 30.423 88.3023 29.0685 88.3492 26.3594V24.8928C88.3492 23.5617 88.1304 22.5093 87.6954 21.7357C87.2604 20.962 86.6769 20.5765 85.9449 20.5765C85.2129 20.5765 84.6502 20.962 84.2178 21.7357C83.7854 22.5093 83.5692 23.5565 83.5692 24.8798V26.1171H83.5666Z" fill="white"/>
<path d="M94.0071 18.9849L94.0461 20.1884C94.7 19.2271 95.5596 18.7452 96.6302 18.7452C97.8233 18.7452 98.6594 19.3756 99.1335 20.6338C99.8056 19.3756 100.743 18.7452 101.944 18.7452C103.916 18.7452 104.927 20.2405 104.974 23.2309V31.9964H103.231V23.4341C103.231 22.4885 103.093 21.7852 102.814 21.3241C102.538 20.863 102.069 20.6338 101.408 20.6338C100.879 20.6338 100.452 20.8813 100.121 21.3788C99.79 21.8763 99.5998 22.5093 99.5477 23.2778V31.9964H97.7868V23.3377C97.766 21.5351 97.1642 20.6312 95.9764 20.6312C95.0933 20.6312 94.4681 21.1678 94.1061 22.2436V31.9964H92.3634V18.9849H94.0071Z" fill="white"/>
<path d="M111.439 32.2387C110.105 32.2387 109.084 31.7568 108.371 30.7903C107.657 29.8239 107.295 28.4068 107.282 26.5391V24.9632C107.282 23.0225 107.631 21.5012 108.326 20.3994C109.022 19.2975 109.993 18.7452 111.241 18.7452C112.489 18.7452 113.432 19.2298 114.052 20.2014C114.672 21.1704 114.99 22.6839 115.003 24.7339V26.1302H109.024V26.4297C109.024 27.826 109.241 28.8393 109.673 29.4723C110.105 30.1052 110.728 30.423 111.538 30.423C112.054 30.423 112.507 30.3058 112.898 30.0688C113.291 29.8317 113.659 29.4566 114.002 28.9435L114.914 30.2902C114.156 31.59 112.997 32.2387 111.439 32.2387ZM111.241 20.5739C110.514 20.5739 109.978 20.8761 109.629 21.483C109.28 22.0873 109.082 23.0277 109.035 24.3041H113.252V24.015C113.205 22.7802 113.023 21.8998 112.702 21.3684C112.382 20.8396 111.895 20.5739 111.244 20.5739H111.241Z" fill="white"/>
<path d="M49.5491 14.4888H51.3699V26.8881C51.3699 28.5631 51.0183 29.8734 50.3149 30.8215C49.6116 31.7671 48.666 32.2412 47.4782 32.2412C46.2904 32.2412 45.3083 31.7932 44.6284 30.8945C43.9485 29.9958 43.6099 28.7532 43.6099 27.1669H45.4203C45.4203 28.1697 45.6027 28.9512 45.9647 29.5113C46.3268 30.0713 46.8322 30.3527 47.4782 30.3527C48.1242 30.3527 48.6061 30.0479 48.9838 29.4383C49.3589 28.8288 49.5491 27.9744 49.5491 26.8777V14.4888Z" fill="#44B877"/>
<path d="M57.9629 32.2387C56.6292 32.2387 55.6081 31.7568 54.8944 30.7903C54.1806 29.8239 53.8185 28.4068 53.8055 26.5391V24.9632C53.8055 23.0225 54.1546 21.5012 54.8501 20.3994C55.5456 19.2975 56.5172 18.7452 57.765 18.7452C59.0127 18.7452 59.9557 19.2298 60.5757 20.2014C61.1956 21.1704 61.5134 22.6839 61.5265 24.7339V26.1276H55.5482V26.4271C55.5482 27.8207 55.7644 28.8367 56.1968 29.4696C56.6292 30.1026 57.2518 30.4204 58.0619 30.4204C58.5777 30.4204 59.0309 30.3032 59.4217 30.0662C59.815 29.8291 60.1823 29.454 60.5262 28.9409L61.4379 30.2876C60.6799 31.5874 59.5207 32.2361 57.9629 32.2361V32.2387ZM57.765 20.5739C57.0382 20.5739 56.5016 20.8761 56.1525 21.483C55.8035 22.0873 55.6055 23.0277 55.5586 24.3041H59.776V24.015C59.7291 22.7802 59.5467 21.8998 59.2263 21.3684C58.9059 20.8396 58.4188 20.5739 57.7676 20.5739H57.765Z" fill="#44B877"/>
<path d="M65.9183 15.8356V18.9875H67.5308V20.7068H65.9183V28.7872C65.9183 29.3003 65.9887 29.6911 66.1267 29.9542C66.2648 30.2199 66.5018 30.3501 66.8405 30.3501C67.0723 30.3501 67.3068 30.3032 67.5438 30.2069L67.523 31.999C67.127 32.1579 66.7206 32.2387 66.3065 32.2387C65.6136 32.2387 65.0848 31.9391 64.7227 31.3374C64.3606 30.7356 64.1783 29.8864 64.1783 28.7872V20.7068H62.545V18.9875H64.1783V15.8356H65.9209H65.9183Z" fill="#44B877"/>
<g clip-path="url(#clip1_71_112)">
<path d="M23.8677 33.5735H33.3888C36.5807 33.5735 39.167 30.8438 39.167 27.4743V22.6204C39.167 20.2503 33.3501 15.2826 29.9055 12.5483C28.4529 11.3963 26.3994 11.3963 24.9446 12.5483C21.4999 15.2826 15.683 20.2503 15.683 22.6204V27.4743C15.683 29.908 17.0331 32.0071 18.9865 32.9861C20.2159 33.6031 21.4521 33.4278 22.3264 31.8318L23.4465 28.9609" stroke="#54BC81" stroke-width="1.36601" stroke-miterlimit="10" stroke-linecap="round"/>
<path d="M25.0561 30.493L21.8346 38.8462" stroke="#54BC81" stroke-width="1.36601" stroke-miterlimit="10" stroke-linecap="round"/>
<path d="M24.7852 27.8132L26.8706 28.6533C27.1643 28.7717 27.5127 28.5896 27.6515 28.2504C27.8314 27.8041 28.3459 27.663 28.626 27.984C28.9197 28.3232 29.4661 28.1752 29.6573 27.7017L30.033 26.7751C30.4428 25.7665 30.2652 24.6464 29.589 23.9747C29.4843 23.87 29.4228 23.7175 29.4183 23.5513C29.4183 23.5513 30.1286 21.5273 29.9624 19.2301C29.7962 16.933 29.2771 16.7235 29.2771 16.7235" stroke="#54BC81" stroke-width="1.36601" stroke-miterlimit="10" stroke-linecap="round"/>
<path d="M24.7852 27.8133L22.6997 26.9732C22.4061 26.8548 22.2808 26.4814 22.4197 26.1422C22.5996 25.696 22.3287 25.2384 21.9052 25.2771C21.4567 25.3181 21.1698 24.8331 21.3611 24.3596L21.7367 23.433C22.1465 22.4244 23.0526 21.7414 24.0066 21.7255C24.1568 21.7232 24.3048 21.6572 24.4232 21.5388C24.4232 21.5388 25.3225 19.5899 27.0414 18.0532C28.7603 16.5164 29.2794 16.7236 29.2794 16.7236" stroke="#54BC81" stroke-width="1.36601" stroke-miterlimit="10" stroke-linecap="round"/>
<path d="M27.0915 22.9254C27.6196 22.9254 28.0477 22.4972 28.0477 21.9691C28.0477 21.441 27.6196 21.0129 27.0915 21.0129C26.5634 21.0129 26.1353 21.441 26.1353 21.9691C26.1353 22.4972 26.5634 22.9254 27.0915 22.9254Z" stroke="#54BC81" stroke-width="1.13834" stroke-miterlimit="10" stroke-linecap="round"/>
</g>
</g>
<defs>
<clipPath id="clip0_71_112">
<rect width="104.97" height="32.1472" fill="white" transform="translate(10.03 9.37793)"/>
</clipPath>
<clipPath id="clip1_71_112">
<rect width="24.85" height="28.5291" fill="white" transform="translate(15 11)"/>
</clipPath>
</defs>
</svg>
