<svg width="164" height="28" viewBox="0 0 164 28" fill="none" xmlns="http://www.w3.org/2000/svg">
<g clip-path="url(#clip0_2216_4280)">
<path d="M119.778 20.1627C119.778 18.8881 120.809 17.8575 122.084 17.8575C123.358 17.8575 124.389 18.8881 124.389 20.1627C124.389 21.4373 123.358 22.4678 122.084 22.4678C120.809 22.4678 119.778 21.4373 119.778 20.1627Z" fill="#00489A"/>
<path d="M131.006 20.1627C131.006 18.8881 132.036 17.8575 133.311 17.8575C134.585 17.8575 135.616 18.8881 135.616 20.1627C135.616 21.4373 134.585 22.4678 133.311 22.4678C132.036 22.4678 131.006 21.4373 131.006 20.1627Z" fill="#00489A"/>
<path d="M142.179 20.1627C142.179 18.8881 143.209 17.8575 144.484 17.8575C145.758 17.8575 146.789 18.8881 146.789 20.1627C146.789 21.4373 145.758 22.4678 144.484 22.4678C143.209 22.4678 142.179 21.4373 142.179 20.1627Z" fill="#00489A"/>
<path d="M116.578 16.5287C118.341 16.5287 119.29 17.9389 119.29 17.9389C121.812 14.4948 121.08 10.1829 120.321 8.12181C117.961 1.74885 112.538 0.962402 108.117 0.962402H105.351C109.392 1.99292 112.511 4.16244 114.544 8.12181C115.087 9.45064 116.28 12.7863 113.704 17.9389C113.731 17.9931 114.816 16.5287 116.578 16.5287Z" fill="#00489A"/>
<path d="M127.751 16.4473C129.514 16.4473 130.463 17.8575 130.463 17.8575C132.985 14.4134 132.253 10.1015 131.494 8.04046C129.134 1.6675 123.711 0.962402 119.317 0.962402H115.087C122.273 2.20988 123.955 4.46075 125.744 8.04046C126.287 9.36929 127.48 12.7049 124.877 17.8575C124.877 17.9118 125.989 16.4473 127.751 16.4473Z" fill="#00489A"/>
<path d="M138.924 16.5287C140.687 16.5287 141.636 17.9389 141.636 17.9389C144.158 14.4948 143.426 10.1829 142.667 8.12181C140.307 1.74885 134.884 0.962402 130.49 0.962402H126.314C133.501 2.20988 135.236 4.56923 136.918 8.12181C137.46 9.45064 138.653 12.7863 136.077 17.9389C136.05 17.9931 137.162 16.5287 138.924 16.5287Z" fill="#00489A"/>
<path d="M150.097 16.5287C151.86 16.5287 152.809 17.9389 152.809 17.9389C155.331 14.4948 154.599 10.1829 153.84 8.12181C151.481 1.74885 146.057 0.962402 141.663 0.962402H137.487C143.996 1.91157 146.355 4.51499 148.091 8.12181C148.633 9.45064 149.826 12.7863 147.223 17.9389C147.223 17.9931 148.335 16.5287 150.097 16.5287Z" fill="#00489A"/>
<path d="M114.219 20.1898C114.219 18.9152 115.25 17.8846 116.524 17.8846C117.799 17.8846 118.829 18.9152 118.829 20.1898C118.829 21.4643 117.799 22.4949 116.524 22.4949C115.25 22.4949 114.219 21.4643 114.219 20.1898Z" fill="white"/>
<path d="M125.338 20.1898C125.338 18.9152 126.368 17.8846 127.643 17.8846C128.918 17.8846 129.948 18.9152 129.948 20.1898C129.948 21.4643 128.918 22.4949 127.643 22.4949C126.368 22.4949 125.338 21.4643 125.338 20.1898Z" fill="white"/>
<path d="M136.565 20.1898C136.565 18.9152 137.596 17.8846 138.87 17.8846C140.145 17.8846 141.175 18.9152 141.175 20.1898C141.175 21.4643 140.145 22.4949 138.87 22.4949C137.596 22.4949 136.565 21.4643 136.565 20.1898Z" fill="white"/>
<path d="M147.738 20.1898C147.738 18.9152 148.769 17.8846 150.043 17.8846C151.318 17.8846 152.348 18.9152 152.348 20.1898C152.348 21.4643 151.318 22.4949 150.043 22.4949C148.769 22.4949 147.738 21.4643 147.738 20.1898Z" fill="white"/>
<path d="M110.938 27.9459C108.687 27.9459 106.707 26.9425 106.517 24.5018C106.354 22.3865 107.927 21.0034 108.144 19.0237C108.47 15.9322 106.978 14.4135 105.243 13.4914L105.297 12.1355C106.761 12.5423 107.9 13.6542 108.741 14.7932C109.582 15.9593 109.853 17.3152 109.853 18.5356C109.853 20.2983 109.338 21.4915 109.338 22.1695C109.338 22.5763 109.582 23.8238 110.965 23.9865C112.538 23.9865 113.731 22.8475 113.731 22.8475C113.731 22.8475 114.571 23.9865 116.551 23.9865C118.26 23.9865 119.317 22.8475 119.317 22.8475C119.317 22.8475 120.511 23.9865 122.056 23.9865C123.928 23.9865 124.904 22.8475 124.904 22.8475C124.904 22.8475 125.69 23.9865 127.67 23.9865C129.65 23.9865 130.545 22.8475 130.545 22.8475C130.545 22.8475 131.439 23.9865 133.256 23.9865C135.073 23.9865 136.077 22.8475 136.077 22.8475C136.077 22.8475 137.324 23.9865 138.843 23.9865C140.524 23.9865 141.663 22.8475 141.663 22.8475C141.663 22.8475 142.911 23.9865 144.429 23.9865C145.948 23.9865 147.25 22.8475 147.25 22.8475C147.25 22.8475 148.389 23.9865 150.016 23.9865C151.806 23.9865 152.836 22.8475 152.836 22.8475C153.948 23.6882 155.657 24.5018 156.931 23.6339C157.745 23.0644 158.342 22.3322 158.477 21.3831C158.803 19.1864 156.552 18.4542 155.603 16.8542C155.25 16.4203 155.06 15.905 155.033 15.1728C154.979 14.2779 155.413 13.166 155.792 12.5694C156.226 11.8914 157.175 11.2134 158.043 10.9965C160.891 10.2914 163.521 12.244 163.928 14.8745C164.118 16.1762 162.111 16.5559 160.999 15.9322C159.86 15.3084 160.457 13.8711 159.752 13.1118C159.074 12.3796 157.636 12.4609 156.986 13.383C156.443 14.1152 156.497 15.3627 157.203 15.8779C159.372 17.5051 162.247 18.1288 162.762 21.1661C163.142 23.3356 162.491 25.4238 160.728 26.7797C159.318 27.8645 157.338 28.1357 156.009 27.9187C154.68 27.6747 152.809 26.2645 152.809 26.2645C152.809 26.2645 152.484 27.973 149.989 27.973C147.901 27.973 147.223 26.2645 147.223 26.2645C147.223 26.2645 146.707 27.973 144.402 27.9459C142.368 27.9459 141.636 26.2645 141.636 26.2645C141.636 26.2645 141.175 27.973 138.816 27.973C136.673 27.973 136.05 26.2645 136.05 26.2645C136.05 26.2645 135.589 27.973 133.229 27.973C131.087 27.973 130.463 26.2916 130.463 26.2916C130.463 26.2916 129.975 27.973 127.643 27.973C125.5 27.973 124.877 26.2916 124.877 26.2916C124.877 26.2916 124.416 28.0001 122.056 28.0001C119.86 28.0001 119.29 26.2916 119.29 26.2916C119.29 26.2916 118.829 27.973 116.47 27.973C114.273 27.973 113.812 26.2374 113.812 26.2374C113.812 26.2374 113.188 27.9459 110.938 27.9459Z" fill="white"/>
<path d="M6.74651 17.8847H10.0008V15.8507H1.21423V17.8847H4.46851V27.3492H6.71939V17.8847H6.74651ZM19.3297 15.8507H11.3839V27.3492H19.5738V25.3153H13.5805V22.3322H18.8416V20.2983H13.5805V17.8847H19.3026V15.8507H19.3297ZM30.0146 19.6203C29.9061 17.9118 28.5773 15.5524 25.3501 15.5524C22.5569 15.5524 20.3874 17.6135 20.3874 21.6271C20.3874 25.6407 22.4484 27.6746 25.323 27.6746C28.0349 27.6746 29.5536 25.939 30.0146 23.4169H27.7637C27.4925 24.8271 26.6247 25.5865 25.3773 25.5865C23.4789 25.5865 22.6925 23.7424 22.6925 21.6542C22.6925 18.3999 24.2925 17.6406 25.3773 17.6406C27.2485 17.6406 27.601 18.9423 27.7637 19.6203H30.0146ZM37.7435 22.1966V27.3492H39.9944V15.8507H37.7435V20.2169H33.5401V15.8507H31.2892V27.3492H33.5401V22.1966H37.7435ZM48.0487 23.8508H48.0216L43.7368 15.8507H41.3503V27.3492H43.4656V19.1593H43.4927L47.9131 27.3492H50.164V15.8507H48.0487V23.8508ZM65.0794 15.8507H62.8286V27.3492H70.449V25.261H65.0794V15.8507ZM87.6696 23.0915H90.1916C89.7306 25.4237 88.0763 25.6136 87.5611 25.6136C86.0153 25.6136 84.4153 24.8 84.4153 21.6542C84.4153 18.6982 85.9068 17.5321 87.5069 17.5321C89.1069 17.5321 89.8662 18.9694 89.8662 19.4304H92.1171C92.0086 17.8304 90.6798 15.5524 87.3713 15.5524C83.7373 15.5253 82.0831 18.5084 82.0831 21.6271C82.0831 25.6678 84.4424 27.6475 87.0458 27.6475C89.0255 27.6475 89.8391 26.617 90.4086 25.9119L90.6255 27.3492H92.1171V21.1661H87.6153V23.0915H87.6696ZM97.8392 23.0373L101.446 15.8507H98.8968L96.7544 20.8406L94.5035 15.8507H91.8459L95.5883 23.0102V27.3492H97.8392V23.0373ZM51.4115 21.6C51.4115 26.9966 55.181 27.6475 56.5912 27.6475C58.0014 27.6475 61.7709 26.9966 61.7709 21.6C61.7709 16.2033 58.0014 15.5524 56.5912 15.5524C55.181 15.5524 51.4115 16.2033 51.4115 21.6ZM53.6624 21.6C53.6624 18.3728 55.3709 17.5864 56.5912 17.5864C57.8116 17.5864 59.5201 18.3728 59.5201 21.6C59.5201 24.8271 57.8116 25.6136 56.5912 25.6136C55.3709 25.6136 53.6624 24.8271 53.6624 21.6ZM70.7473 21.6542C70.7473 27.0509 74.5169 27.7017 75.927 27.7017C77.3372 27.7017 81.1068 27.0509 81.1068 21.6542C81.1068 16.2575 77.3372 15.6067 75.927 15.6067C74.5169 15.6067 70.7473 16.2575 70.7473 21.6542ZM72.9982 21.6542C72.9982 18.427 74.7067 17.6406 75.927 17.6406C77.1474 17.6406 78.8559 18.427 78.8559 21.6542C78.8559 24.8814 77.1474 25.6678 75.927 25.6678C74.7067 25.6678 72.9982 24.8814 72.9982 21.6542Z" stroke="white" stroke-width="0.47187" stroke-miterlimit="3.86"/>
<path d="M20.1433 0.935303H17.5128V9.04388C17.5128 9.88457 17.5128 11.0236 16.1297 11.0236C14.8823 11.0236 14.6111 10.1829 14.6111 9.01676V8.47438H12.2517V9.5049C12.2517 12.1354 14.1772 13.2202 16.184 13.2202C19.7366 13.2202 20.1433 10.6981 20.1433 9.15235V0.935303Z" fill="white"/>
<path fill-rule="evenodd" clip-rule="evenodd" d="M23.7772 7.01003C23.7772 4.89475 24.6722 2.88794 27.0044 2.88794C29.3366 2.88794 30.2315 4.89475 30.2315 7.01003C30.2315 9.12531 29.3366 11.0508 27.0044 11.0508C24.645 11.0236 23.7772 9.01683 23.7772 7.01003ZM21.1467 7.01003C21.1467 10.4813 23.3162 13.2474 27.0044 13.2474C30.6926 13.2474 32.8621 10.4813 32.8621 7.01003C32.8621 3.5388 30.6926 0.664185 27.0044 0.664185C23.3162 0.664185 21.1467 3.43032 21.1467 7.01003Z" fill="white"/>
<path d="M33.9196 12.9761H36.523V7.76929H41.3502V12.9761H43.9808V0.935303H41.3502V5.54553H36.523V0.935303H33.9196V12.9761Z" fill="white"/>
<path fill-rule="evenodd" clip-rule="evenodd" d="M50.0827 3.89127H50.1098L51.6014 8.31167H48.5369L50.0827 3.89127ZM44.2521 12.9761H46.9098L47.8318 10.2914H52.2793L53.1743 12.9761H55.8862L51.4386 0.935303H48.7539L44.2521 12.9761Z" fill="white"/>
<path d="M56.2115 12.9761H58.6522V4.92179H58.6793L63.6421 12.9761H66.2726V0.935303H63.8048V9.01676H63.7777L58.8149 0.935303H56.2115V12.9761Z" fill="white"/>
<path d="M67.0863 8.98969C67.0592 11.9457 69.527 13.2745 72.1576 13.2745C75.3847 13.2745 77.1203 11.6202 77.1203 9.4236C77.1203 6.68458 74.4627 6.1422 73.5949 5.92525C70.6118 5.1388 70.0423 5.03032 70.0423 4.10828C70.0423 3.10487 71.0186 2.75233 71.8321 2.75233C73.0796 2.75233 74.1101 3.13199 74.1915 4.5693H76.7135C76.7135 1.80316 74.4356 0.691284 71.9406 0.691284C69.7982 0.691284 67.4931 1.88452 67.4931 4.32523C67.4931 6.5761 69.2829 7.2812 71.0457 7.74222C72.8084 8.20324 74.5711 8.44731 74.5711 9.72191C74.5711 10.9965 73.161 11.2135 72.266 11.2135C70.8558 11.2135 69.6355 10.5897 69.6355 8.98969H67.0863Z" fill="white"/>
<path fill-rule="evenodd" clip-rule="evenodd" d="M80.3473 7.01003C80.3473 4.89475 81.2423 2.88794 83.5745 2.88794C85.9067 2.88794 86.8016 4.89475 86.8016 7.01003C86.8016 9.12531 85.9067 11.0508 83.5745 11.0508C81.2151 11.0236 80.3473 9.01683 80.3473 7.01003ZM77.7168 7.01003C77.7168 10.4813 79.8863 13.2474 83.5745 13.2474C87.2627 13.2474 89.4322 10.4813 89.4322 7.01003C89.4322 3.5388 87.2627 0.664185 83.5745 0.664185C79.8863 0.664185 77.7168 3.43032 77.7168 7.01003Z" fill="white"/>
<path d="M90.49 12.9761H92.9307V4.92179H92.9578L97.9206 12.9761H100.551V0.935303H98.0833V9.01676H98.0562L93.0934 0.935303H90.49V12.9761Z" fill="white"/>
</g>
<defs>
<clipPath id="clip0_2216_4280">
<rect width="162.963" height="27.3359" fill="white" transform="translate(0.978233 0.664062)"/>
</clipPath>
</defs>
</svg>
