<svg width="69" height="29" viewBox="0 0 69 29" fill="none" xmlns="http://www.w3.org/2000/svg">
<g clip-path="url(#clip0_2216_4320)">
<path fill-rule="evenodd" clip-rule="evenodd" d="M68.7447 0L67.7901 4.75598H61.9082L57.0256 29H48.1651L53.0518 4.75598H47.1489L48.1073 0H68.7447Z" fill="white"/>
<path fill-rule="evenodd" clip-rule="evenodd" d="M43.0887 0C45.3965 0 46.9048 1.8605 46.4515 4.16046L45.2234 9.89803H36.6683L37.5543 5.49526C37.6655 4.94902 37.5378 4.59581 36.5529 4.59581C35.2053 4.59581 34.8839 4.66973 34.5501 6.29203C34.1792 8.08271 34.9622 9.26965 35.5639 10.1732C36.1655 11.0768 37.7109 12.4444 39.5447 14.4979C40.8634 15.9761 43.3978 18.2395 42.8291 21.0816L42.2398 23.8087C41.6794 26.6795 38.8895 29 36.013 29H25.2903C22.9825 29 21.4784 27.1395 21.9317 24.8313L23.1556 19.0938H31.7107L30.8289 23.5006C30.7176 24.0469 30.8453 24.4042 31.8303 24.4042C33.1737 24.4042 33.4992 24.3303 33.833 22.7121C34.1998 20.9173 33.421 19.7262 32.8193 18.8268C32.2135 17.9191 30.6681 16.5556 28.8384 14.4979C27.5197 13.0194 24.9812 10.7605 25.5499 7.91843L26.1392 5.18723C26.6996 2.31639 29.4895 0 32.366 0H43.0887Z" fill="white"/>
<path fill-rule="evenodd" clip-rule="evenodd" d="M24.9362 0L20.0423 24.741C19.583 27.1518 16.9287 29 13.7217 29H3.54366C1.72674 29 0.255318 27.5132 0.255318 25.6692C0.255318 25.4515 0.271576 25.2256 0.320353 25.0161L1.48286 19.0773H10.1976L9.35211 23.4017C9.27488 23.7512 9.25863 24.5644 9.97401 24.5644C10.8723 24.5644 11.3967 24.3508 11.6243 23.1926L16.2174 0H24.9362Z" fill="white"/>
</g>
<defs>
<clipPath id="clip0_2216_4320">
<rect width="68.4894" height="29" fill="white" transform="translate(0.255318)"/>
</clipPath>
</defs>
</svg>
