<svg width="50" height="32" viewBox="0 0 50 32" fill="none" xmlns="http://www.w3.org/2000/svg">
<path d="M2.6599 25.4746V6.82975H5.54998V16.7788L14.2458 6.82975H17.8264L10.3838 15.1931V14.17L18.0822 25.4746H14.5527L8.74697 16.9578L5.54998 20.3594V25.4746H2.6599ZM22.9944 22.3288V10.1546H25.245V22.3288H22.9944ZM18.0326 17.3415V15.1675H30.2068V17.3415H18.0326ZM33.9055 25.4746V6.82975H42.0642C43.4965 6.82975 44.69 7.07699 45.6449 7.57145C46.6167 8.04887 47.3414 8.74795 47.8188 9.66868C48.3133 10.5724 48.5605 11.6636 48.5605 12.9424C48.5605 14.17 48.3133 15.2528 47.8188 16.1905C47.3414 17.1113 46.6167 17.8274 45.6449 18.3389C44.673 18.8334 43.4368 19.0806 41.9363 19.0806H36.4887V16.7021H41.655C42.4564 16.7021 43.1384 16.5827 43.7011 16.344C44.2808 16.1053 44.7156 15.7558 45.0055 15.2954C45.3124 14.818 45.4658 14.2468 45.4658 13.5818V12.482C45.4658 11.8 45.3124 11.2288 45.0055 10.7684C44.7156 10.3081 44.2808 9.95854 43.7011 9.71983C43.1384 9.48112 42.4564 9.36177 41.655 9.36177H36.7956V25.4746H33.9055Z" fill="white"/>
</svg>
