<svg width="90" height="31" viewBox="0 0 90 31" fill="none" xmlns="http://www.w3.org/2000/svg">
<g clip-path="url(#clip0_2216_4327)">
<path d="M24.7366 27.2119C24.7366 26.5816 24.3161 26.1862 23.7363 26.1862C23.1555 26.1862 22.7349 26.5816 22.7349 27.2119C22.7349 27.8423 23.1555 28.2376 23.7363 28.2376C24.3161 28.2376 24.7366 27.8423 24.7366 27.2119ZM25.9985 25.1099V29.314H24.7366V28.9189C24.4589 29.2382 24.0474 29.4316 23.4838 29.4316C22.382 29.4316 21.4739 28.4647 21.4739 27.2119C21.4739 25.9591 22.382 24.9911 23.4838 24.9911C24.0474 24.9911 24.4589 25.1848 24.7366 25.505V25.1099H25.9985Z" fill="white"/>
<path d="M55.0678 27.2119C55.0678 25.9591 56.0175 24.9911 57.2966 24.9911C58.1116 24.9911 58.8353 25.421 59.197 26.0674L58.0952 26.7071C57.9524 26.4133 57.6492 26.2357 57.2793 26.2357C56.7333 26.2357 56.3288 26.631 56.3288 27.2119C56.3288 27.7917 56.7333 28.187 57.2793 28.187C57.6492 28.187 57.9606 28.0105 58.0952 27.7164L59.197 28.3471C58.8353 29.0029 58.1207 29.4316 57.2966 29.4316C56.0175 29.4316 55.0678 28.4647 55.0678 27.2119Z" fill="white"/>
<path d="M62.412 27.2119C62.412 26.6149 61.9915 26.2196 61.4452 26.2196C60.8979 26.2196 60.4771 26.6149 60.4771 27.2119C60.4771 27.8089 60.8979 28.2043 61.4452 28.2043C61.9915 28.2043 62.412 27.8089 62.412 27.2119ZM59.2164 27.2119C59.2164 25.9591 60.2085 24.9911 61.4452 24.9911C62.6807 24.9911 63.673 25.9591 63.673 27.2119C63.673 28.4647 62.6807 29.4316 61.4452 29.4316C60.2085 29.4316 59.2164 28.4647 59.2164 27.2119Z" fill="white"/>
<path d="M70.4183 26.732V29.3134H69.1564V26.8414C69.1564 26.4206 68.9548 26.1511 68.5512 26.1511C68.1307 26.1511 67.8954 26.4461 67.8954 26.9418V29.3134H66.6338V26.8414C66.6338 26.4206 66.4319 26.1511 66.0287 26.1511C65.6078 26.1511 65.3729 26.4461 65.3729 26.9418V29.3134H64.111V25.1093H65.3729V25.4953C65.5663 25.2094 65.9362 24.9908 66.4998 24.9908C66.9955 24.9908 67.3654 25.1933 67.6016 25.5462C67.8369 25.2094 68.2229 24.9908 68.8207 24.9908C69.7879 24.9908 70.4183 25.6808 70.4183 26.732Z" fill="white"/>
<path d="M74.3174 27.2119C74.3174 26.5816 73.8966 26.1862 73.316 26.1862C72.7363 26.1862 72.3155 26.5816 72.3155 27.2119C72.3155 27.8423 72.7363 28.2376 73.316 28.2376C73.8966 28.2376 74.3174 27.8423 74.3174 27.2119ZM75.5784 27.2119C75.5784 28.4647 74.67 29.4316 73.5683 29.4316C73.0049 29.4316 72.5932 29.2382 72.3155 28.9189V30.9955H71.0536V25.1099H72.3155V25.505C72.5932 25.1848 73.0049 24.9911 73.5683 24.9911C74.67 24.9911 75.5784 25.9591 75.5784 27.2119Z" fill="white"/>
<path d="M79.0772 27.2119C79.0772 26.5816 78.6564 26.1862 78.077 26.1862C77.4961 26.1862 77.0755 26.5816 77.0755 27.2119C77.0755 27.8423 77.4961 28.2376 78.077 28.2376C78.6564 28.2376 79.0772 27.8423 79.0772 27.2119ZM80.3391 25.1099V29.314H79.0772V28.9189C78.7995 29.2382 78.3877 29.4316 77.8244 29.4316C76.7226 29.4316 75.8146 28.4647 75.8146 27.2119C75.8146 25.9591 76.7226 24.9911 77.8244 24.9911C78.3877 24.9911 78.7995 25.1848 79.0772 25.505V25.1099H80.3391Z" fill="white"/>
<path d="M85.043 26.732V29.3134H83.7811V26.9164C83.7811 26.3955 83.4536 26.1511 83.0492 26.1511C82.5871 26.1511 82.2679 26.4206 82.2679 27.0179V29.3134H81.006V25.1093H82.2679V25.5047C82.4949 25.1933 82.9155 24.9908 83.47 24.9908C84.3193 24.9908 85.043 25.5968 85.043 26.732Z" fill="white"/>
<path d="M89.4843 25.1078L88.0472 29.1864C87.5757 30.5232 86.8278 31.0522 85.6502 30.9934V29.8167C86.239 29.8167 86.5167 29.6315 86.701 29.1185L85.0277 25.1078H86.4154L87.3487 27.6802L88.1394 25.1078H89.4843Z" fill="white"/>
<path d="M27.1918 23.4573H28.967L30.2101 25.7742L31.5554 23.4573H33.2589L31.0266 27.3053V29.3215H29.3234V27.3053L27.1918 23.4573Z" fill="white"/>
<path d="M47.1566 24.9147V23.4576H42.6953V29.3204H47.144V27.8903H44.4114V27.0159H46.8716V25.7159H44.4114V24.9147H47.1566Z" fill="white"/>
<path d="M41.8663 24.9732V23.4576H39.6416C39.4815 23.4576 39.1924 23.4901 39.0004 23.5466C38.5521 23.6786 38.1217 23.9531 37.7921 24.277C37.4711 24.5928 37.2209 24.9779 37.079 25.4063C36.971 25.7315 36.9268 26.0747 36.9365 26.4168C36.9546 27.0559 37.1706 27.6989 37.5557 28.2107C38.0081 28.8115 38.8293 29.3219 39.5963 29.3219H41.8663V25.6896H39.6554V27.1042H40.1537V27.6895C40.1537 27.703 40.0223 27.7258 40.0124 27.7276C39.8831 27.7507 39.749 27.7489 39.62 27.7258C38.891 27.5964 38.3774 26.823 38.5141 26.1008C38.6259 25.5105 39.1251 25.0288 39.7268 24.9732H41.8663Z" fill="white"/>
<path d="M34.1713 27.1153L34.6026 26.0003L35.0445 27.1153H34.1713ZM35.4179 23.4553H33.8304L31.57 29.3195H33.2705L33.629 28.5027H35.5883L35.875 29.3195H37.4764L35.4179 23.4553Z" fill="white"/>
<path d="M50.3361 27.7943C49.5563 27.7943 48.923 27.1637 48.923 26.3826C48.923 25.6015 49.5563 24.97 50.3361 24.97C51.1166 24.97 51.7478 25.6015 51.7478 26.3826C51.7478 27.1637 51.1166 27.7943 50.3361 27.7943ZM50.3312 23.3342C48.647 23.3342 47.2798 24.7005 47.2798 26.3855C47.2798 28.0714 48.647 29.436 50.3312 29.436C52.0156 29.436 53.3837 28.0714 53.3837 26.3855C53.3837 24.7005 52.0156 23.3342 50.3312 23.3342Z" fill="white"/>
<path d="M27.663 3.30907C27.4666 3.30907 27.3882 3.3676 27.337 3.5546C27.1272 4.32014 26.5357 6.33292 26.4526 6.61854H34.0314C33.7133 7.73145 33.4081 8.79929 33.0979 9.88411H25.5174C25.1012 11.3438 24.6889 12.7894 24.269 14.2623H34.0794C35.4455 9.51392 36.8106 4.76876 38.1781 0.0162862H45.6797C45.6437 1.11076 44.9153 11.8667 44.8296 12.9723C45.0353 12.4195 51.2413 -0.00244141 51.2413 -0.00244141C51.2413 -0.00244141 58.8575 0.00282322 59.0203 0.00282322C57.3244 5.89425 55.6403 11.7453 53.9526 17.6092H49.4898C49.6057 17.1893 53.9187 2.14963 53.9187 2.14963C53.9187 2.14963 45.7048 17.5173 45.6536 17.6116H40.9714C41.1121 15.022 41.8104 2.14963 41.8104 2.14963C41.8104 2.14963 37.5036 16.9555 37.316 17.6092H18.3023C19.9903 11.7421 21.6741 5.88928 23.3621 0.0227252H36.3957C36.0837 1.11983 35.7735 2.20758 35.4601 3.3082C35.4601 3.3082 27.7186 3.30907 27.663 3.30907Z" fill="#2B4A7C"/>
<path d="M78.6941 3.35587C77.3246 8.11683 75.9568 12.8693 74.5928 17.6118H79.6063C80.9706 12.8678 82.3352 8.12473 83.7071 3.35587H88.5409C88.8514 2.22306 89.1987 1.13444 89.4846 0.0212402H61.1562C59.4692 5.88779 57.7862 11.7406 56.0985 17.6101H69.4253C69.7338 16.508 70.0668 15.4241 70.3574 14.2816H62.0599C62.4833 12.7947 62.8977 11.3426 63.3153 9.87765H70.8959C71.2078 8.78434 71.5095 7.72587 71.8247 6.62057H64.3018C64.2854 6.57404 64.2766 6.56262 64.279 6.55414C64.5722 5.522 64.8517 4.53872 65.1449 3.50629C65.1783 3.38835 65.2608 3.3547 65.374 3.35587C65.5525 3.35734 78.6941 3.35587 78.6941 3.35587Z" fill="#2B4A7C"/>
<path d="M10.5875 0.0166776C9.87935 2.48861 9.1817 4.92337 8.48434 7.35843C8.50365 7.36896 8.52325 7.37979 8.54257 7.39062C8.60578 7.33765 15.9428 -0.00292969 15.9428 -0.00292969H21.7556C21.7556 -0.00292969 14.1633 7.4114 13.7609 7.80207C13.516 8.03999 13.5169 8.0394 13.6433 8.34375C14.8785 11.3219 17.4259 17.4844 17.4731 17.6096H12.1309C10.8585 14.445 9.58671 11.2819 8.31519 8.11871C8.29236 8.12047 8.26983 8.12251 8.24729 8.12456C7.34187 11.281 6.43644 14.4374 5.52692 17.6081H0.516624C2.20457 11.7393 3.88959 5.88089 5.57608 0.0166776H10.5875Z" fill="#2B4A7C"/>
</g>
<defs>
<clipPath id="clip0_2216_4327">
<rect width="88.97" height="31" fill="white" transform="translate(0.514999)"/>
</clipPath>
</defs>
</svg>
