<svg width="122" height="17" viewBox="0 0 122 17" fill="none" xmlns="http://www.w3.org/2000/svg">
<g clip-path="url(#clip0_2216_4346)">
<path d="M16.6092 0.148719C15.2947 1.33968 14.0355 2.48146 12.7762 3.62262C12.1233 4.21411 11.4771 4.81298 10.8136 5.39155C10.6267 5.55448 10.6796 5.62027 10.8382 5.74816C13.2226 7.66895 15.6027 9.5959 17.984 11.5204C18.3818 11.8419 18.7378 12.2871 19.1934 12.4457C19.6601 12.608 20.2258 12.4925 20.7478 12.4925C39.8868 12.4943 59.0259 12.4955 78.165 12.4974C91.3615 12.4986 104.559 12.5023 117.755 12.4949C118.068 12.4949 118.142 12.5718 118.138 12.8792C118.119 14.1286 118.12 15.3779 118.137 16.6273C118.141 16.9138 118.085 17.0024 117.777 17.0005C115.328 16.9846 112.879 16.9889 110.43 16.9889C92.7664 16.9889 75.103 16.9889 57.439 16.9889C44.4164 16.9889 31.3939 16.9864 18.372 16.9889C18.1599 16.9889 17.9889 16.947 17.8131 16.8069C14.0361 13.8076 10.2498 10.8201 6.47464 7.81836C6.12418 7.53984 5.75342 7.67633 5.39005 7.66035C5.25355 7.6542 5.31381 7.82574 5.31381 7.91489C5.3095 9.0825 5.30335 10.2501 5.31688 11.4171C5.31995 11.6686 5.26031 11.743 4.99962 11.7405C3.6574 11.7264 2.31518 11.7282 0.972962 11.7393C0.743623 11.7411 0.680908 11.6815 0.680908 11.4491C0.688286 7.81283 0.688286 4.17722 0.680908 0.542223C0.680908 0.312884 0.737474 0.252014 0.968043 0.254473C2.27952 0.266156 3.591 0.268615 4.90247 0.253244C5.16194 0.250169 5.19637 0.342397 5.19453 0.565588C5.18469 1.70245 5.19821 2.8393 5.18346 3.97555C5.18038 4.22579 5.26462 4.25408 5.49027 4.27928C6.03503 4.33954 6.41869 4.14033 6.80359 3.75666C7.97795 2.58537 9.19474 1.45589 10.3919 0.306736C10.4988 0.204056 10.5984 0.135192 10.7614 0.135807C12.6465 0.141956 14.5316 0.140111 16.4168 0.140111C16.4549 0.140111 16.493 0.1438 16.6086 0.149334L16.6092 0.148719ZM98.8965 14.9801C99.349 14.8197 99.4579 14.4932 99.472 14.1114C99.4757 14.0093 99.4769 13.9066 99.472 13.8045C99.4431 13.1356 99.2261 12.8952 98.5608 12.8644C97.9367 12.8355 97.3114 12.8466 96.6867 12.8319C96.5281 12.8282 96.4758 12.8767 96.4764 13.0397C96.4826 14.1968 96.4832 15.354 96.4764 16.5111C96.4752 16.6913 96.5392 16.7343 96.7064 16.7312C96.8712 16.7282 96.9775 16.7208 96.9677 16.5056C96.9511 16.1379 96.9628 15.7684 96.9634 15.4001C96.9634 15.3011 96.9388 15.1892 97.1048 15.1917C97.5758 15.199 98.048 15.1843 98.5177 15.2089C98.7803 15.2224 98.9488 15.3767 98.95 15.6694C98.9512 15.9252 98.969 16.1809 98.9709 16.4367C98.9715 16.588 98.9174 16.7374 99.1787 16.7355C99.4025 16.7337 99.4609 16.6611 99.4431 16.4539C99.4265 16.2609 99.4296 16.0647 99.4419 15.8704C99.4671 15.4726 99.3404 15.1658 98.8965 14.9808V14.9801ZM79.8558 16.7583C80.1356 16.7355 80.4319 16.7472 80.7258 16.6845C81.0216 16.6212 81.1907 16.4601 81.2528 16.1643C81.3278 15.8083 81.3284 15.4511 81.2743 15.097C81.2152 14.7115 81.0376 14.5559 80.6305 14.5252C80.2844 14.4993 79.9351 14.5024 79.5877 14.4993C78.9692 14.4938 78.8788 14.4016 78.8954 13.7812C78.8973 13.7197 78.8973 13.6582 78.9059 13.5973C78.9323 13.419 79.0202 13.3041 79.2127 13.2672C79.5078 13.2106 79.8042 13.226 80.0999 13.2315C80.641 13.2413 80.6877 13.2764 80.8088 13.8052C80.8457 13.9675 80.9533 13.9251 81.0425 13.9226C81.1298 13.9195 81.2509 13.9829 81.289 13.823C81.3831 13.424 81.0874 12.9493 80.684 12.8638C80.3612 12.7956 80.0335 12.7907 79.7058 12.8011C78.6366 12.8349 78.315 12.8712 78.4552 14.2854C78.5056 14.7969 78.6655 14.9273 79.1912 14.958C79.5687 14.9801 79.948 14.9709 80.3262 14.9857C80.4664 14.9912 80.6385 14.9758 80.7246 15.1056C80.9213 15.4032 80.8685 15.7364 80.7848 16.0531C80.724 16.2824 80.5057 16.2959 80.3077 16.3064C80.1134 16.3162 79.9191 16.3273 79.7248 16.323C78.9993 16.3064 78.9956 16.3051 78.8376 15.595C78.8124 15.4825 78.7534 15.4616 78.6679 15.4726C78.5659 15.4855 78.4324 15.4093 78.3685 15.5483C78.216 15.8827 78.5388 16.564 78.8954 16.6654C79.2041 16.7534 79.5232 16.7435 79.8552 16.7583H79.8558ZM67.3208 16.1354L67.2588 16.1564C67.2034 16.0727 67.1462 15.9897 67.0927 15.9049C66.5252 15.006 65.9399 14.1175 65.4025 13.2014C65.2211 12.8921 65.0133 12.8171 64.6905 12.83C64.4821 12.838 64.439 12.9063 64.4403 13.0969C64.4477 14.222 64.4464 15.3478 64.4415 16.473C64.4409 16.6396 64.4557 16.7288 64.6659 16.7337C64.899 16.7386 64.9051 16.6267 64.9039 16.4539C64.8996 15.5028 64.9008 14.551 64.9039 13.5998C64.9039 13.5156 64.8768 13.424 64.9445 13.3219C65.0115 13.4209 65.0699 13.502 65.1228 13.5863C65.697 14.5049 66.2916 15.4118 66.8339 16.3494C67.0282 16.6857 67.2606 16.7546 67.5994 16.73C67.7506 16.7189 67.7875 16.6685 67.7869 16.5283C67.7832 15.362 67.7826 14.1956 67.7869 13.0292C67.7869 12.8835 67.739 12.8423 67.5938 12.8325C67.3799 12.8183 67.3147 12.8878 67.3172 13.1055C67.3282 14.115 67.3221 15.1246 67.3221 16.1342L67.3208 16.1354ZM62.0049 14.7754C62.0061 14.4065 61.9969 14.0394 61.9298 13.6748C61.8542 13.2653 61.6519 12.9776 61.224 12.8872C60.6454 12.7648 60.0669 12.7624 59.4883 12.889C59.1052 12.9727 58.8808 13.2155 58.8095 13.5924C58.6601 14.385 58.6595 15.1794 58.8107 15.9713C58.8802 16.3359 59.0935 16.5818 59.4637 16.6624C60.0613 16.7921 60.6633 16.7952 61.2597 16.6593C61.5972 16.5824 61.805 16.3703 61.893 16.0248C61.9975 15.6122 62.0024 15.1953 62.0055 14.7754H62.0049ZM94.0287 14.7858C94.0336 14.3659 94.0177 13.949 93.9156 13.5365C93.8307 13.1922 93.6272 12.9831 93.2854 12.9007C92.6877 12.7568 92.0901 12.7593 91.4918 12.8946C91.1359 12.9751 90.9151 13.1983 90.8432 13.5512C90.6747 14.3733 90.6723 15.1972 90.8463 16.0192C90.9219 16.3759 91.1518 16.5904 91.5054 16.6661C92.0833 16.7896 92.6638 16.789 93.2417 16.6685C93.6057 16.5929 93.8332 16.3777 93.9205 16.0045C94.0146 15.6018 94.0349 15.1953 94.0293 14.7858H94.0287ZM55.9055 14.9814C56.3581 14.8215 56.4878 14.4913 56.4749 14.0763C56.4724 13.9945 56.4755 13.9128 56.4749 13.831C56.4644 13.1331 56.2437 12.8915 55.5385 12.8614C54.9353 12.8355 54.3309 12.8485 53.7271 12.83C53.5304 12.8239 53.4886 12.8958 53.4898 13.0778C53.4972 14.2134 53.4972 15.3497 53.4898 16.4853C53.4886 16.6685 53.5335 16.7343 53.7284 16.7331C53.9171 16.7319 53.9786 16.6784 53.9725 16.4896C53.9602 16.1219 53.9743 15.753 53.9669 15.3847C53.9638 15.2396 54.0112 15.1867 54.16 15.1898C54.5898 15.1984 55.0202 15.1843 55.4499 15.1996C55.8189 15.2132 55.9535 15.3626 55.9701 15.7401C55.9799 15.975 55.9842 16.2105 55.9806 16.4459C55.9781 16.6052 55.9492 16.7392 56.2001 16.7355C56.4275 16.7325 56.4798 16.6538 56.4626 16.4502C56.4472 16.2676 56.4509 16.082 56.4614 15.8981C56.4847 15.4794 56.3562 15.1517 55.908 14.982L55.9055 14.9814ZM38.5495 14.7877C38.5495 15.3607 38.5551 15.9332 38.5465 16.5062C38.544 16.6808 38.6018 16.7312 38.774 16.7294C39.4595 16.7208 40.1451 16.7226 40.8313 16.7282C40.9868 16.7294 41.0723 16.7109 41.0772 16.5185C41.0827 16.3045 40.9813 16.2928 40.8159 16.2953C40.3043 16.3027 39.7922 16.2879 39.2812 16.3027C39.0722 16.3088 39.0168 16.2357 39.0261 16.0395C39.0402 15.7536 39.0414 15.4665 39.0261 15.1806C39.015 14.9851 39.0894 14.9402 39.272 14.9445C39.7633 14.9555 40.2545 14.942 40.7458 14.9519C40.9155 14.9555 40.9733 14.9094 40.9745 14.7317C40.9764 14.5479 40.9063 14.5141 40.7421 14.5172C40.241 14.5258 39.7393 14.5153 39.2376 14.5233C39.0789 14.5258 39.0205 14.4778 39.0267 14.3161C39.0377 14.0505 39.0408 13.7836 39.0261 13.5186C39.0144 13.3139 39.0912 13.2555 39.2892 13.2598C39.8106 13.2715 40.3332 13.2598 40.8552 13.2659C41.0089 13.2678 41.0741 13.2254 41.076 13.0593C41.0778 12.886 41.0225 12.8288 40.8472 12.8306C40.1617 12.8386 39.4755 12.8398 38.7906 12.83C38.6043 12.8276 38.5422 12.8767 38.5465 13.0698C38.5588 13.6422 38.5508 14.2153 38.5508 14.7883L38.5495 14.7877ZM101.7 14.7969C101.7 15.3281 101.697 15.86 101.702 16.3912C101.703 16.5474 101.625 16.7362 101.931 16.7362C102.215 16.7362 102.183 16.5812 102.181 16.406C102.179 16.1201 102.199 15.8323 102.175 15.5483C102.153 15.2925 102.256 15.2427 102.485 15.2531C102.832 15.2691 103.18 15.2667 103.528 15.2488C104.338 15.2076 104.602 14.9273 104.607 14.1261C104.607 14.024 104.607 13.922 104.604 13.8193C104.587 13.1528 104.351 12.894 103.677 12.862C103.095 12.8343 102.512 12.8497 101.93 12.8294C101.727 12.8226 101.694 12.9026 101.697 13.0796C101.707 13.6521 101.701 14.2245 101.701 14.7963L101.7 14.7969ZM29.2284 14.776C29.2284 15.3392 29.2352 15.9024 29.2247 16.4656C29.221 16.6562 29.2592 16.7349 29.4731 16.7306C30.1488 16.7165 30.8258 16.7208 31.5015 16.7288C31.6724 16.7306 31.7542 16.7085 31.7579 16.5019C31.7622 16.2639 31.6257 16.2978 31.4843 16.2978C30.9721 16.2978 30.4593 16.2885 29.9478 16.3027C29.7523 16.3082 29.7018 16.2437 29.7111 16.0592C29.7252 15.7628 29.7246 15.4653 29.7111 15.1683C29.7031 14.9937 29.7578 14.9402 29.9336 14.9445C30.4151 14.9562 30.8965 14.9469 31.3785 14.9494C31.5267 14.95 31.6503 14.9685 31.6509 14.7403C31.6509 14.5258 31.5556 14.5159 31.3915 14.5184C30.91 14.5252 30.428 14.511 29.9472 14.5258C29.7523 14.5319 29.7006 14.4692 29.7111 14.2835C29.7264 14.0179 29.7246 13.7504 29.7111 13.4848C29.7025 13.3084 29.7646 13.2573 29.9373 13.2604C30.4698 13.2702 31.0029 13.2567 31.5353 13.2678C31.7204 13.2715 31.7524 13.1983 31.7542 13.0341C31.7567 12.8651 31.6915 12.8294 31.5384 12.8312C30.8418 12.8374 30.1452 12.8392 29.4485 12.8306C29.2745 12.8288 29.2216 12.8817 29.2247 13.0563C29.2346 13.6293 29.2284 14.203 29.2284 14.7766V14.776ZM43.6577 14.8713C43.6577 14.6598 43.6553 14.5368 43.6577 14.4139C43.6799 13.3557 43.833 13.2081 44.8843 13.2284C45.5349 13.2413 45.6566 13.3366 45.7667 13.9761C45.7925 14.1273 45.8749 14.1347 45.9782 14.1206C46.0747 14.1071 46.21 14.1937 46.2561 14.0216C46.3809 13.5549 46.0255 12.9696 45.5385 12.8712C45.0325 12.7691 44.5228 12.7691 44.0131 12.8595C43.5913 12.9345 43.3257 13.1743 43.2575 13.5943C43.1296 14.3764 43.1308 15.1634 43.2544 15.9461C43.3177 16.3482 43.552 16.6009 43.9682 16.6845C44.3955 16.7706 44.8229 16.762 45.252 16.73C45.948 16.6784 46.2143 16.406 46.2487 15.7044C46.2549 15.5778 46.352 15.3872 46.0704 15.3835C45.8564 15.381 45.766 15.4198 45.7587 15.6614C45.7451 16.0856 45.5828 16.2504 45.2004 16.3002C44.8844 16.3414 44.5665 16.3396 44.2511 16.2928C43.9615 16.2498 43.7721 16.1016 43.7137 15.7905C43.6503 15.4548 43.67 15.1179 43.6583 14.8707L43.6577 14.8713ZM85.7781 14.7951C85.7781 14.6211 85.7731 14.4471 85.7787 14.2737C85.8063 13.3901 85.976 13.2272 86.8633 13.2266C87.6324 13.2266 87.7191 13.2856 87.8845 13.9915C87.93 14.1864 88.0684 14.1101 88.1754 14.1206C88.2608 14.1292 88.35 14.1452 88.3746 14.0013C88.468 13.4596 88.1409 12.961 87.6048 12.862C87.1074 12.7698 86.6081 12.7691 86.1101 12.8632C85.7203 12.937 85.4577 13.1534 85.3858 13.5537C85.2394 14.3659 85.2419 15.1812 85.3827 15.9928C85.4485 16.3728 85.6871 16.5984 86.072 16.6808C86.498 16.7724 86.926 16.7614 87.3545 16.7306C88.0647 16.6802 88.3389 16.3992 88.3647 15.6872C88.369 15.5686 88.4588 15.3859 88.1987 15.3847C88.0032 15.3841 87.8815 15.3909 87.8741 15.6491C87.8624 16.0918 87.6988 16.2523 87.298 16.3015C86.9918 16.339 86.6843 16.3359 86.3794 16.2935C86.075 16.251 85.8838 16.0955 85.8254 15.7715C85.7664 15.4456 85.7867 15.1197 85.7787 14.7932L85.7781 14.7951ZM73.5438 14.7975C73.5548 14.4403 73.5253 14.0818 73.6102 13.7277C73.6686 13.4811 73.8069 13.3348 74.0565 13.2838C74.4328 13.2069 74.8067 13.2057 75.1842 13.2752C75.4701 13.328 75.601 13.5094 75.6416 13.7775C75.6521 13.8482 75.6521 13.9208 75.6613 13.9915C75.6859 14.1894 75.8427 14.1095 75.9503 14.1206C76.0394 14.1298 76.1231 14.1353 76.1446 13.9945C76.2313 13.4215 75.9097 12.9567 75.3379 12.8564C74.87 12.7747 74.4027 12.7802 73.9323 12.8546C73.4798 12.9259 73.2087 13.178 73.1386 13.625C73.0174 14.3985 73.015 15.175 73.1423 15.9479C73.2111 16.366 73.4601 16.6132 73.8881 16.6919C74.2957 16.7669 74.7028 16.7607 75.1116 16.7325C75.863 16.6808 76.1698 16.3291 76.144 15.5778C76.139 15.4278 76.0892 15.3921 75.9472 15.3859C75.7505 15.3767 75.6576 15.4167 75.6453 15.6442C75.6183 16.1287 75.4615 16.267 74.9825 16.3119C74.7058 16.3377 74.4291 16.3328 74.1549 16.2965C73.8506 16.256 73.6581 16.1022 73.5979 15.7776C73.537 15.4511 73.5567 15.1252 73.5438 14.7981V14.7975ZM50.0503 14.9955C50.0503 14.5042 50.0577 14.013 50.0466 13.5223C50.0423 13.3287 50.0927 13.2463 50.3006 13.2592C50.5656 13.2758 50.833 13.2549 51.0986 13.2659C51.2849 13.2739 51.2831 13.1663 51.2868 13.0323C51.2905 12.8921 51.2517 12.83 51.0986 12.8312C50.2391 12.8362 49.3789 12.8386 48.5193 12.83C48.3373 12.8282 48.33 12.9155 48.3257 13.055C48.3207 13.2124 48.3681 13.2752 48.5341 13.2672C48.7794 13.2549 49.0266 13.2807 49.2707 13.2592C49.5191 13.2377 49.5775 13.3311 49.5744 13.5684C49.5615 14.5196 49.5689 15.4714 49.5689 16.4226C49.5689 16.5818 49.5252 16.7362 49.7995 16.7368C50.0804 16.7374 50.0522 16.5855 50.0516 16.4078C50.0485 15.9375 50.0503 15.4665 50.0503 14.9961V14.9955ZM33.9671 14.7434C33.9671 15.3158 33.9732 15.8889 33.9634 16.4613C33.9603 16.6458 33.9886 16.7362 34.2081 16.7312C34.8524 16.7165 35.4968 16.7226 36.1418 16.7282C36.298 16.7294 36.3804 16.7079 36.3871 16.5173C36.3951 16.3015 36.29 16.2935 36.127 16.2953C35.6567 16.3021 35.1857 16.2855 34.7153 16.3027C34.4958 16.3107 34.4442 16.2412 34.4466 16.0291C34.4577 15.0373 34.4473 14.0456 34.4553 13.0538C34.4565 12.8737 34.3944 12.8282 34.2265 12.8343C34.0691 12.8405 33.9566 12.8374 33.9621 13.0557C33.9763 13.6176 33.9671 14.1802 33.9671 14.7428V14.7434ZM70.2396 14.7656C70.2396 15.3386 70.2463 15.9123 70.2359 16.4853C70.2322 16.6704 70.2807 16.7392 70.475 16.7312C70.641 16.7245 70.732 16.7165 70.7302 16.505C70.7191 15.3589 70.7197 14.2122 70.7302 13.0655C70.732 12.8614 70.6546 12.8355 70.4806 12.8331C70.2943 12.8306 70.2322 12.8847 70.2359 13.0766C70.2475 13.6392 70.2402 14.2024 70.2402 14.7656H70.2396ZM104.267 16.7196C104.498 16.778 104.534 16.6599 104.538 16.4564C104.543 16.2437 104.483 16.1822 104.266 16.1773C104.03 16.1723 103.978 16.2467 103.979 16.4712C103.979 16.6986 104.059 16.7663 104.267 16.7196H104.267Z" fill="#DB2A35"/>
<path d="M46.5131 1.2572C46.365 1.29593 46.3189 1.40784 46.2506 1.49084C44.6987 3.38335 43.1511 5.27894 41.5956 7.16837C41.4505 7.34483 41.3853 7.51761 41.3878 7.74817C41.4 8.91578 41.3908 10.0834 41.4007 11.2504C41.4025 11.4477 41.3533 11.5104 41.1473 11.5092C39.7947 11.4994 38.4426 11.4981 37.0899 11.5074C36.8778 11.5086 36.8391 11.436 36.8403 11.2442C36.8483 10.0668 36.8415 8.88872 36.8471 7.71128C36.8477 7.54835 36.8083 7.42107 36.7014 7.29564C34.7781 5.04591 32.8585 2.7931 30.9378 0.542128C30.9002 0.498474 30.875 0.435144 30.7668 0.428995C30.7668 1.27564 30.7668 2.11983 30.7668 2.96402C30.7668 3.29194 30.5994 3.4559 30.2645 3.4559C27.8057 3.45529 25.3463 3.45836 22.8875 3.4473C22.6151 3.44607 22.4842 3.50202 22.5389 3.7953C22.5537 3.87462 22.5481 3.95947 22.5407 4.04063C22.5254 4.19741 22.5813 4.26689 22.7473 4.25459C22.9004 4.24291 23.0548 4.25214 23.2085 4.25214C25.4828 4.25275 27.7577 4.25705 30.0321 4.24968C30.2608 4.24906 30.3463 4.29087 30.3413 4.5448C30.3229 5.44556 30.3223 6.34693 30.337 7.2483C30.3407 7.48809 30.2651 7.53175 30.0431 7.53052C27.6661 7.52252 25.2891 7.52437 22.9121 7.52867C22.8014 7.52867 22.6262 7.45428 22.5899 7.60307C22.5469 7.77584 22.5518 7.97444 22.5924 8.14906C22.6164 8.25174 22.775 8.19886 22.8721 8.19886C25.4133 8.20132 27.9545 8.20685 30.4951 8.19333C30.8092 8.19148 30.9064 8.26219 30.8972 8.58868C30.8714 9.45869 30.8806 10.3293 30.8916 11.1999C30.8941 11.4028 30.8351 11.4526 30.6359 11.4526C26.5988 11.4471 22.5623 11.4465 18.5252 11.4526C18.3063 11.4526 18.2565 11.3887 18.2565 11.1778C18.2626 7.55265 18.2632 3.92749 18.2552 0.301721C18.2552 0.0594704 18.3364 0.0195051 18.5547 0.0201199C20.9317 0.0274981 23.3087 0.0256536 25.6857 0.0244239C28.8104 0.0225793 31.9357 0.0207348 35.0603 0.011512C35.2725 0.0108972 35.4194 0.0680783 35.5645 0.22425C36.6196 1.35558 37.6876 2.47399 38.7402 3.60716C38.9068 3.78608 38.9868 3.79592 39.1423 3.59486C40.0259 2.45247 40.9574 1.34943 41.8882 0.24577C42.0241 0.0846792 42.1588 0.00905263 42.3777 0.0108972C44.0464 0.0207348 45.7151 0.0164308 47.4379 0.0164308C47.3192 0.174447 47.2251 0.299877 47.1317 0.424077C47.1698 0.453589 47.2073 0.464657 47.246 0.440063C47.7754 0.103125 48.3645 0.0102823 48.9787 0.0108972C51.7554 0.0139714 54.532 0.0152011 57.3087 0.015816C57.8842 0.015816 58.4271 0.140631 58.9147 0.453589C59.4619 0.804669 59.7583 1.307 59.7662 1.96243C59.773 2.51518 59.7583 3.06855 59.7724 3.6213C59.7779 3.83281 59.6992 3.87708 59.5055 3.87523C58.3681 3.86785 57.2306 3.86109 56.0937 3.87954C55.8257 3.88384 55.7666 3.67418 55.691 3.53891C55.6191 3.41041 55.5736 3.35691 55.434 3.35691C53.9485 3.35937 52.4624 3.35937 50.977 3.35753C50.8146 3.35753 50.6898 3.39872 50.6775 3.58564C50.6652 3.76948 50.6345 3.95701 50.8817 4.03386C51.0046 4.07198 51.1239 4.06768 51.245 4.06768C53.4886 4.06952 55.7328 4.07075 57.9764 4.07014C58.357 4.07014 58.7339 4.1015 59.1022 4.20049C59.8339 4.39724 60.2458 4.87559 60.3399 5.63063C60.4284 6.34509 60.3688 7.06262 60.3811 7.7783C60.3903 8.32122 60.3842 8.86351 60.3823 9.40643C60.3786 10.3262 59.9513 10.9817 59.1379 11.3973C58.5279 11.7084 57.87 11.7871 57.1999 11.7877C54.5462 11.7914 51.8925 11.7877 49.2388 11.7884C48.6448 11.7884 48.0786 11.6709 47.5498 11.401C46.7413 10.9878 46.2943 10.3478 46.3109 9.41442C46.3195 8.93361 46.3133 8.45156 46.3023 7.97075C46.2986 7.81458 46.3391 7.7574 46.5052 7.75801C47.7349 7.76416 48.9639 7.76539 50.1936 7.75678C50.3732 7.75555 50.4015 7.83118 50.3892 7.97567C50.3633 8.27203 50.4783 8.37286 50.795 8.36856C52.3007 8.3495 53.8071 8.35811 55.3135 8.36241C55.5121 8.36241 55.6769 8.32736 55.7851 8.14414C55.8939 7.95968 55.8829 7.77646 55.8011 7.58647C55.7181 7.39464 55.5539 7.40324 55.3867 7.40324C53.2451 7.40447 51.1036 7.40324 48.9627 7.40447C48.1628 7.40447 47.4865 7.10996 46.9269 6.54676C46.5839 6.20183 46.3465 5.78065 46.3404 5.29554C46.3256 4.14946 46.2801 3.00214 46.3822 1.85791C46.4 1.66054 46.4664 1.46748 46.5144 1.25658L46.5131 1.2572Z" fill="#DB2A35"/>
<path d="M93.5775 5.50398V5.82923C93.5775 7.58033 93.5726 9.33203 93.583 11.0831C93.5849 11.3481 93.5381 11.4527 93.2375 11.4483C91.926 11.4299 90.6145 11.4361 89.303 11.4447C89.0805 11.4459 88.9839 11.4139 88.9845 11.1514C88.9944 7.53606 88.9931 3.92135 88.9864 0.30603C88.9864 0.0822243 89.0337 0.0127462 89.2704 0.0139759C91.115 0.0244283 92.9589 0.0238135 94.8035 0.0139759C95.0015 0.0127462 95.1226 0.0822243 95.2437 0.22487C96.7987 2.06081 98.3579 3.89307 99.916 5.72655C100 5.82554 100.087 5.92269 100.182 6.03029C100.263 5.91593 100.227 5.81202 100.227 5.71733C100.23 3.92504 100.234 2.13275 100.224 0.340461C100.223 0.0994401 100.26 0.00844222 100.533 0.0121313C101.864 0.0281174 103.197 0.0231986 104.529 0.0152056C104.722 0.0139759 104.787 0.0564006 104.787 0.264835C104.78 3.9109 104.781 7.55635 104.786 11.2024C104.786 11.3869 104.744 11.4459 104.549 11.4453C102.674 11.4379 100.799 11.4385 98.9236 11.4453C98.7557 11.4453 98.6684 11.3666 98.5688 11.2553C97.0176 9.52387 95.5764 7.69838 94.054 5.94236C93.9206 5.78804 93.7828 5.6374 93.647 5.48492C93.6242 5.49168 93.6008 5.49844 93.5781 5.50521L93.5775 5.50398Z" fill="#DB2A35"/>
<path d="M111.626 11.441C109.638 11.441 107.651 11.4336 105.663 11.449C105.366 11.4514 105.318 11.3555 105.319 11.0893C105.326 7.51575 105.326 3.94163 105.319 0.368117C105.319 0.105576 105.361 0.00781494 105.659 0.00904464C109.603 0.0207268 113.548 0.020112 117.493 0.00904464C117.782 0.00842979 117.842 0.0926643 117.838 0.363813C117.822 1.3156 117.823 2.26862 117.838 3.22041C117.842 3.46635 117.769 3.52291 117.531 3.52169C115.021 3.51308 112.51 3.51554 110.001 3.51861C109.884 3.51861 109.691 3.45405 109.664 3.56841C109.614 3.7707 109.63 3.99758 109.664 4.20663C109.678 4.29578 109.827 4.2509 109.915 4.25151C111.073 4.25397 112.231 4.25336 113.388 4.25336C114.638 4.25336 115.888 4.25705 117.138 4.24905C117.333 4.24782 117.4 4.29148 117.397 4.49991C117.384 5.41112 117.379 6.32294 117.395 7.23354C117.4 7.49239 117.303 7.52621 117.081 7.52498C114.714 7.51637 112.347 7.51637 109.981 7.51883C109.868 7.51883 109.691 7.44874 109.653 7.58216C109.605 7.75247 109.614 7.9523 109.65 8.12876C109.675 8.24989 109.827 8.18902 109.92 8.18902C111.846 8.1927 113.772 8.19147 115.698 8.19147C116.375 8.19147 117.051 8.20008 117.727 8.18656C117.933 8.18225 117.957 8.26526 117.956 8.43741C117.948 9.34862 117.94 10.2604 117.956 11.1717C117.96 11.4268 117.857 11.4446 117.651 11.4434C115.642 11.4373 113.634 11.4397 111.626 11.4397L111.626 11.441Z" fill="#DB2A35"/>
<path d="M81.1422 0.0933368C82.6068 0.0933368 84.072 0.0779655 85.5365 0.0988704C86.5443 0.113012 87.3768 0.538489 88.0211 1.31136C88.4276 1.79893 88.6317 2.36459 88.6299 3.00711C88.6243 4.81908 88.6372 6.63166 88.6255 8.44362C88.6151 10.0053 87.7648 11.0395 86.2356 11.3863C85.8753 11.4681 85.5095 11.508 85.1393 11.508C82.3528 11.5068 79.5669 11.5099 76.7804 11.5056C75.4456 11.5031 74.1083 10.4855 73.8384 9.27428C73.8052 9.1261 73.796 8.97055 73.796 8.81806C73.7923 6.90342 73.8298 4.98755 73.7806 3.07413C73.7382 1.44539 75.1972 0.108093 76.7479 0.0945665C78.2124 0.0816546 79.6776 0.0914922 81.1422 0.0914922V0.0933368ZM81.2664 3.46395C80.3859 3.46395 79.5055 3.46395 78.6256 3.46395C77.9622 3.46395 77.7531 3.67177 77.7519 4.34872C77.7501 5.36138 77.7519 6.37465 77.7562 7.38731C77.7581 7.89763 77.9991 8.13312 78.51 8.13312C80.2402 8.13312 81.9698 8.13312 83.7 8.13312C83.8328 8.13312 83.9674 8.13988 84.0984 8.12021C84.436 8.06856 84.6671 7.84845 84.6696 7.53733C84.6782 6.36051 84.6807 5.1843 84.6665 4.00747C84.6616 3.58999 84.5103 3.46702 84.0923 3.46518C83.1503 3.4621 82.209 3.46456 81.267 3.46333L81.2664 3.46395Z" fill="#DB2A35"/>
<path d="M69.0474 7.55885C69.0474 8.73629 69.0376 9.91434 69.0548 11.0918C69.0591 11.3734 68.9712 11.4287 68.7086 11.4263C67.4181 11.4133 66.1269 11.4133 64.8357 11.4263C64.5854 11.4287 64.5092 11.3709 64.5104 11.1084C64.5215 8.75289 64.5117 6.3974 64.524 4.04252C64.5252 3.7683 64.4545 3.70558 64.1858 3.70866C62.854 3.72341 61.5223 3.7105 60.1899 3.72034C59.9716 3.72218 59.8917 3.68345 59.8947 3.44058C59.9101 2.38611 59.9107 1.33103 59.8947 0.276561C59.8911 0.0269314 59.9814 0.00049278 60.1936 0.00049278C64.5682 0.00602643 68.9435 0.00602643 73.3182 -0.00012207C73.5407 -0.00012207 73.6164 0.044762 73.6133 0.283939C73.5991 1.29783 73.5979 2.31172 73.6133 3.32499C73.6176 3.58753 73.5616 3.67176 73.2813 3.66808C71.9802 3.65147 70.6786 3.66931 69.3776 3.65393C69.1027 3.65086 69.037 3.72649 69.04 3.99456C69.0554 5.18245 69.0468 6.37034 69.0468 7.55823L69.0474 7.55885Z" fill="#DB2A35"/>
<path d="M121.199 1.76389C121.199 2.41686 120.684 2.93088 120.034 2.92842C119.383 2.92596 118.865 2.40887 118.867 1.76205C118.868 1.1183 119.395 0.590142 120.036 0.591372C120.679 0.592601 121.199 1.11645 121.199 1.76451V1.76389ZM120.048 0.738321C119.47 0.732173 119.004 1.18593 119.001 1.75774C118.997 2.31172 119.453 2.77962 120.006 2.79008C120.583 2.80053 121.054 2.35538 121.068 1.7848C121.082 1.21667 120.622 0.745084 120.048 0.738936V0.738321Z" fill="#DB2A35"/>
<path d="M97.7899 13.256C98.0241 13.2677 98.2596 13.2708 98.4933 13.2929C98.837 13.3261 98.9575 13.4553 98.9919 13.7971C98.995 13.8272 98.9938 13.8586 98.995 13.8887C99.019 14.6001 98.8923 14.7397 98.1877 14.7594C97.8507 14.7686 97.5132 14.7569 97.1769 14.7661C97.0262 14.7704 96.9549 14.7384 96.9604 14.5669C96.9721 14.1998 96.9709 13.8315 96.9604 13.4645C96.9561 13.2972 97.025 13.2542 97.1769 13.261C97.381 13.2702 97.5851 13.2634 97.7899 13.2634C97.7899 13.261 97.7899 13.2585 97.7899 13.256Z" fill="#DB2A35"/>
<path d="M61.5333 14.8067C61.5099 15.1621 61.5302 15.5113 61.4441 15.8532C61.3919 16.0616 61.2756 16.1987 61.0641 16.2485C60.5882 16.3598 60.1117 16.361 59.6371 16.2442C59.4397 16.1956 59.3204 16.0678 59.2798 15.8667C59.136 15.1461 59.1415 14.4255 59.2768 13.7037C59.3198 13.4737 59.4631 13.3446 59.6807 13.2954C60.1259 13.1939 60.5735 13.1952 61.0199 13.2917C61.2658 13.3452 61.4011 13.4946 61.454 13.7461C61.529 14.1008 61.5087 14.4587 61.5327 14.8061L61.5333 14.8067Z" fill="#DB2A35"/>
<path d="M93.5516 14.7705C93.5337 15.1068 93.5491 15.4438 93.4845 15.7795C93.431 16.0574 93.2853 16.2228 93.0129 16.2714C92.5764 16.3494 92.1392 16.3568 91.7033 16.2591C91.482 16.2092 91.3412 16.0807 91.2981 15.8533C91.1616 15.132 91.1592 14.4114 91.303 13.6902C91.3467 13.4719 91.4869 13.3477 91.6886 13.3004C92.1436 13.1928 92.6016 13.1953 93.0578 13.2967C93.2915 13.349 93.4218 13.4971 93.4747 13.7326C93.5522 14.0763 93.5362 14.4243 93.5516 14.7711V14.7705Z" fill="#DB2A35"/>
<path d="M54.8031 13.2482C55.038 13.2629 55.2735 13.2752 55.5083 13.2918C55.8072 13.3127 55.9818 13.4621 55.9941 13.7739C55.9947 13.7942 55.999 13.8144 56.0002 13.8347C56.0568 14.583 55.9105 14.7459 55.156 14.7607C54.8283 14.7668 54.5 14.7564 54.1723 14.7668C54.0143 14.7718 53.9546 14.7232 53.9595 14.5596C53.9694 14.1913 53.9669 13.8224 53.9602 13.4535C53.9577 13.3078 54.0106 13.2506 54.1563 13.2555C54.3715 13.2629 54.5867 13.2574 54.8019 13.2574C54.8019 13.2543 54.8019 13.2512 54.8019 13.2482H54.8031Z" fill="#DB2A35"/>
<path d="M102.999 13.2549C103.234 13.2691 103.47 13.2728 103.703 13.3011C103.958 13.3312 104.092 13.4812 104.119 13.7474C104.211 14.6771 104.081 14.8302 103.138 14.8265C102.825 14.8253 102.406 14.9648 102.228 14.7638C102.074 14.5892 102.182 14.1803 102.18 13.8747C102.178 13.2642 102.18 13.2642 102.784 13.2642C102.855 13.2642 102.927 13.2642 102.999 13.2642C102.999 13.2611 102.999 13.258 102.999 13.2556L102.999 13.2549Z" fill="#DB2A35"/>
<path d="M120.605 2.32644C120.451 2.39223 120.403 2.29878 120.348 2.20901C120.29 2.11309 120.233 2.01656 120.163 1.92925C120.079 1.8235 119.953 1.78538 119.833 1.82411C119.721 1.85977 119.779 1.98151 119.768 2.06575C119.761 2.126 119.766 2.1881 119.765 2.24897C119.763 2.30615 119.738 2.34735 119.675 2.34735C119.604 2.34735 119.602 2.2914 119.602 2.24159C119.6 1.90527 119.6 1.56833 119.601 1.23201C119.601 1.18159 119.603 1.1324 119.656 1.10105C119.772 1.0328 120.389 1.10965 120.482 1.21541C120.644 1.39863 120.617 1.58924 120.423 1.71036C120.282 1.7989 120.288 1.83948 120.387 1.94831C120.482 2.05222 120.56 2.17396 120.604 2.32583L120.605 2.32644ZM119.995 1.66978C120.157 1.65011 120.386 1.69991 120.392 1.44905C120.397 1.21049 120.18 1.25169 120.023 1.23693C119.863 1.22156 119.749 1.2357 119.761 1.45397C119.77 1.62551 119.812 1.70667 119.995 1.66917V1.66978Z" fill="#DB2A35"/>
</g>
<defs>
<clipPath id="clip0_2216_4346">
<rect width="120.518" height="17" fill="white" transform="translate(0.680969)"/>
</clipPath>
</defs>
</svg>
