<svg width="131" height="11" viewBox="0 0 131 11" fill="none" xmlns="http://www.w3.org/2000/svg">
<g clip-path="url(#clip0_2393_4399)">
<path fill-rule="evenodd" clip-rule="evenodd" d="M10.6433 6.58921C11.5132 6.82248 12.4317 7.13352 13.2676 7.5369C14.1084 7.94027 14.9103 8.37767 15.6733 8.84908C16.4412 9.35938 17.1702 9.86967 17.8992 10.38C18.3754 10.7833 18.6622 10.6716 18.8809 10.4529C19.0267 10.3071 19.0655 10.1613 19.0655 9.97659C19.0655 9.86967 19.0315 9.75789 18.9926 9.68499C18.8809 9.53919 18.7739 9.42742 18.6281 9.3205C18.1519 8.956 17.7534 8.6644 17.3548 8.33393C16.9563 8.04233 16.553 7.75073 16.1544 7.53204C15.7511 7.27932 15.3137 7.02174 14.9152 6.80304C14.4778 6.58435 14.0404 6.33163 13.5301 6.11293L12.4366 5.60264L13.5301 5.09234C14.0063 4.83477 14.4778 4.61607 14.9152 4.39737C15.3525 4.17867 15.7559 3.92596 16.1544 3.66838C16.5578 3.41566 16.9563 3.15809 17.3548 2.86649C17.7582 2.57489 18.1956 2.24442 18.6281 1.9188C18.7739 1.80702 18.9197 1.7001 18.9926 1.5543C19.0655 1.4814 19.0655 1.36962 19.0655 1.26271C19.0655 1.07803 18.9926 0.93709 18.8809 0.791291C18.6281 0.533714 18.3366 0.499695 17.8992 0.830171C17.1702 1.34047 16.4412 1.85076 15.6733 2.36105C14.9103 2.87135 14.1035 3.30874 13.2676 3.71212C12.4317 4.11549 11.5569 4.44111 10.6433 4.65981C9.72959 4.91739 8.7819 5.0243 7.83907 5.0243H1.27814V1.26757C1.27814 1.08289 1.20524 0.94195 1.09346 0.791291C0.840748 0.538574 0.476252 0.499695 0.179795 0.791291C0.0339967 0.93709 -0.00488281 1.08289 -0.00488281 1.26757V10.0543C-0.00488281 10.239 0.0680164 10.38 0.179795 10.5258C0.432512 10.7833 0.797008 10.8174 1.09346 10.5258C1.23926 10.38 1.27814 10.2342 1.27814 10.0543V6.30247H7.83907C8.82564 6.30247 9.76847 6.35593 10.6433 6.59407V6.58921Z" fill="#0091D1"/>
<path fill-rule="evenodd" clip-rule="evenodd" d="M41.6983 10.415C41.8441 10.2692 41.883 10.1234 41.883 9.93871V1.15679C41.883 0.972107 41.8101 0.831169 41.6983 0.68537C41.4456 0.427793 41.0423 0.427793 40.7507 0.68537C40.6049 0.831169 40.566 0.976967 40.566 1.15679V4.91352H24.1248V1.15679C24.1248 0.972107 24.0519 0.831169 23.9401 0.68537C23.6874 0.427793 23.284 0.427793 22.9924 0.68537C22.8466 0.831169 22.8077 0.976967 22.8077 1.15679V9.94357C22.8077 10.1282 22.8806 10.2692 22.9924 10.4198C23.2451 10.6774 23.6485 10.6774 23.9401 10.4198C24.0859 10.274 24.1248 10.1282 24.1248 9.94357V6.19169H40.566V9.94357C40.566 10.1282 40.6389 10.2692 40.7507 10.4198C41.0423 10.6726 41.4408 10.6726 41.6983 10.4198V10.415Z" fill="#0091D1"/>
<path fill-rule="evenodd" clip-rule="evenodd" d="M62.7662 9.46715L56.458 1.04487C55.9477 0.364473 55.1896 -0.00488281 54.3488 -0.00488281C53.508 -0.00488281 52.6527 0.349893 52.0841 1.11776L45.8147 9.57407C45.6058 9.85595 45.6203 10.2253 45.8536 10.4489C46.0869 10.6724 46.5729 10.7648 46.8353 10.41L52.886 2.35219C53.2213 1.90508 53.7559 1.26356 54.3439 1.26356C55.0049 1.26356 55.4471 1.8419 55.8019 2.31817L61.8526 10.41C62.1004 10.7405 62.6399 10.7016 62.8391 10.4829C63.0335 10.2642 63.0675 9.86567 62.7662 9.46229V9.46715Z" fill="#0091D1"/>
<path fill-rule="evenodd" clip-rule="evenodd" d="M67.3977 10.5993H82.7454C83.3286 10.5604 84.1888 10.4146 84.6651 10.123C85.1365 9.7974 85.5739 9.4329 85.9044 8.95663C86.2689 8.48035 86.5216 7.93604 86.7063 7.35284C86.8909 6.76965 86.9979 6.15244 86.9979 5.60326C86.9979 5.02007 86.8909 4.398 86.7063 3.8148C86.5264 3.23161 86.2348 2.6873 85.8703 2.17214C85.5059 1.70073 85.0685 1.29735 84.5193 1.00575C84.009 0.714158 83.1148 0.568359 82.4927 0.568359H67.4414C67.2568 0.568359 67.1158 0.641259 66.97 0.753037C66.8242 0.898836 66.7853 1.04463 66.7853 1.22445C66.7853 1.40427 66.8582 1.55007 66.97 1.70073C67.1158 1.84653 67.2616 1.8854 67.4414 1.8854H81.9824C82.6725 1.8854 83.2557 2.0312 83.732 2.28392C84.1694 2.5415 84.5339 2.86711 84.8255 3.23161C85.0782 3.59611 85.2629 4.0335 85.3698 4.4709C85.4427 4.87427 85.5156 5.27279 85.5156 5.60326C85.5156 5.96776 85.4767 6.33226 85.3698 6.73077C85.258 7.16817 85.1122 7.60556 84.8255 7.97006C84.5679 8.33455 84.2034 8.66017 83.732 8.91775C83.2557 9.17532 82.6725 9.32112 81.9824 9.32112H68.0927V5.56924C68.0927 5.38457 68.0198 5.24363 67.9129 5.09783C67.7671 4.95203 67.6213 4.91315 67.4414 4.91315C67.2616 4.91315 67.1158 4.98605 66.97 5.09783C66.8242 5.24363 66.7853 5.38943 66.7853 5.56924V9.98207C66.7853 10.1668 66.8582 10.3077 66.97 10.4583C67.0769 10.5653 67.2227 10.6041 67.4074 10.6041L67.3977 10.5993Z" fill="#0091D1"/>
<path fill-rule="evenodd" clip-rule="evenodd" d="M129.07 10.3802C129.435 10.2344 129.727 10.0546 129.979 9.79701C130.232 9.53943 130.451 9.25269 130.596 8.88334C130.742 8.55772 130.815 8.15435 130.815 7.78985C130.815 7.38647 130.742 7.02198 130.596 6.65748C130.451 6.29299 130.232 6.00139 129.979 5.74381C129.727 5.48624 129.435 5.26754 129.07 5.12174C128.706 4.97594 128.341 4.90304 127.938 4.90304H113.65C113.251 4.90304 112.848 4.75724 112.556 4.46565C112.231 4.17405 112.085 3.77553 112.085 3.37216C112.085 2.93476 112.27 2.53625 112.556 2.23979C112.848 1.9482 113.246 1.8024 113.65 1.8024H129.396C129.581 1.8024 129.722 1.7295 129.872 1.61772C130.018 1.47192 130.052 1.32612 130.052 1.14144C130.052 0.956766 129.979 0.815828 129.872 0.670029C129.727 0.524231 129.581 0.485352 129.396 0.485352H113.723C113.319 0.485352 112.955 0.558251 112.629 0.704049C112.304 0.849848 111.973 1.06855 111.716 1.32126C111.458 1.57884 111.239 1.87044 111.094 2.23493C110.948 2.56055 110.875 2.92504 110.875 3.32842C110.875 3.7318 110.948 4.09629 111.094 4.42191C111.239 4.74752 111.458 5.078 111.716 5.33558C111.968 5.59315 112.26 5.81185 112.629 5.95765C112.955 6.10345 113.319 6.17635 113.723 6.17635H128.084C128.487 6.17635 128.886 6.32215 129.177 6.61374C129.469 6.90534 129.654 7.30872 129.654 7.70723C129.654 8.10575 129.508 8.50912 129.177 8.80072C128.886 9.09232 128.521 9.23811 128.123 9.23811H112.343C112.163 9.23811 112.012 9.31101 111.866 9.42279C111.72 9.56859 111.686 9.71439 111.686 9.89421C111.686 10.074 111.759 10.2247 111.866 10.3705C112.012 10.5163 112.158 10.5552 112.343 10.5552H127.646C128.079 10.5017 128.716 10.5309 129.07 10.3705V10.3802Z" fill="#0091D1"/>
<path fill-rule="evenodd" clip-rule="evenodd" d="M106.914 9.49156L100.611 1.06928C100.1 0.388887 99.3422 0.0195312 98.5014 0.0195312C97.6606 0.0195312 96.8053 0.374307 96.2367 1.14218L89.9673 9.59848C89.7583 9.88036 89.7729 10.2497 90.0062 10.4733C90.2395 10.6968 90.7255 10.7892 90.9928 10.4344L97.0434 2.3766C97.3787 1.92949 97.9133 1.28798 98.5014 1.28798C99.1623 1.28798 99.6046 1.86631 99.9594 2.34259L106.01 10.4344C106.258 10.7649 106.797 10.726 106.997 10.5073C107.191 10.2886 107.225 9.89008 106.924 9.4867L106.914 9.49156Z" fill="#0091D1"/>
</g>
<defs>
<clipPath id="clip0_2393_4399">
<rect width="130.82" height="10.7308" fill="white"/>
</clipPath>
</defs>
</svg>
