<svg width="129" height="20" viewBox="0 0 129 20" fill="none" xmlns="http://www.w3.org/2000/svg">
<g clip-path="url(#clip0_46_305)">
<path d="M23.2372 0H18.7134V19.2461H23.2372V0Z" fill="white"/>
<path d="M30.3644 19.2461H25.8809V5.00631C25.8758 2.24681 28.1226 0 30.8821 0C32.9882 0 34.8781 1.332 35.5919 3.31241L39.6382 14.5967C39.6683 14.6822 39.7487 14.7374 39.8392 14.7374C39.9599 14.7374 40.0554 14.6419 40.0554 14.5213V0.0955019H44.5389V14.5263C44.5389 17.12 42.4328 19.226 39.8392 19.226C37.8588 19.226 36.0845 17.9745 35.416 16.1147L31.3697 4.83038C31.2943 4.6243 31.0983 4.48859 30.8821 4.48859C30.5956 4.48859 30.3644 4.7198 30.3644 5.00631V19.2512V19.2461Z" fill="white"/>
<path d="M92.3351 19.2461H87.8516V5.00631C87.8516 2.24681 90.0933 0 92.8528 0C94.9589 0 96.8539 1.332 97.5626 3.31241L101.609 14.5967C101.639 14.6822 101.719 14.7374 101.81 14.7374C101.931 14.7374 102.026 14.6419 102.026 14.5213V0.0955019H106.51V14.5263C106.51 17.12 104.404 19.226 101.81 19.226C99.8295 19.226 98.0552 17.9745 97.3867 16.1147L93.3404 4.83038C93.265 4.6243 93.069 4.48859 92.8528 4.48859C92.5663 4.48859 92.3351 4.7198 92.3351 5.00631V19.2512V19.2461Z" fill="white"/>
<path d="M53.7475 14.5967L53.2801 14.1292C52.697 13.5462 52.3703 12.7671 52.3703 11.9377V9.5904H52.3904V7.25814C52.3904 6.43381 52.7121 5.65974 53.2901 5.0817L53.7525 4.61927H63.4837V0H53.6269C52.4758 0 51.3952 0.447351 50.5809 1.26163L50.028 1.81454C48.5753 3.26717 47.7711 5.20234 47.7711 7.25814V9.5904H47.7158V11.9377C47.7158 14.0086 48.52 15.9538 49.9878 17.4216L50.5457 17.9795C51.365 18.7988 52.4557 19.2512 53.6168 19.2512H63.544V14.6017H53.7475V14.5967Z" fill="white"/>
<path d="M83.1769 2.05078C81.8549 0.72883 80.0957 0 78.2208 0H72.3751C70.5003 0 68.741 0.72883 67.4191 2.0558C66.0971 3.37775 65.3633 5.14202 65.3633 7.01185V11.7115C65.3633 13.5864 66.0921 15.3456 67.4191 16.6676L67.9418 17.1903C69.2638 18.5123 71.0281 19.2461 72.8979 19.2461H77.6981C79.573 19.2461 81.3322 18.5173 82.6541 17.1954L83.1769 16.6726C84.4988 15.3507 85.2327 13.5864 85.2327 11.7166V7.01687C85.2327 5.14202 84.5039 3.38278 83.1769 2.06083V2.05078ZM80.5732 11.7115C80.5732 12.3398 80.3269 12.9279 79.8846 13.3703L79.3618 13.893C78.9195 14.3353 78.3264 14.5816 77.7031 14.5816H72.9029C72.2746 14.5816 71.6865 14.3353 71.2442 13.893L70.7214 13.3703C70.2791 12.9279 70.0328 12.3348 70.0328 11.7115V7.01185C70.0328 6.38354 70.2791 5.79545 70.7214 5.35313C71.1587 4.91583 71.7619 4.66451 72.3802 4.66451H78.2259C78.8542 4.66451 79.4423 4.91081 79.8846 5.35313C80.3269 5.79545 80.5732 6.38857 80.5732 7.01185V11.7115Z" fill="white"/>
<path d="M15.7327 14.466L4.08647 9.62558L15.7327 4.78012V0L4.41319 4.70472V0.437298H0V7.92163V11.3245V18.8088H4.41319V14.5414L15.7327 19.2461V14.466Z" fill="white"/>
<path d="M122.84 0.0957031L118.161 6.74062L113.476 0.0957031H107.917L107.882 0.120835L115.864 11.4504V19.2262H120.453V11.4504L128.45 0.0957031H122.84Z" fill="white"/>
</g>
<defs>
<clipPath id="clip0_46_305">
<rect width="128.45" height="19.2461" fill="white"/>
</clipPath>
</defs>
</svg>
