<svg width="125" height="50" viewBox="0 0 125 50" fill="none" xmlns="http://www.w3.org/2000/svg">
<path d="M78.2211 1.68884C78.6673 1.76969 79.1142 1.84684 79.5591 1.93263C82.0828 2.41836 83.8196 4.37793 84.0183 6.93494C84.1726 8.92166 83.7208 10.8029 83.0679 12.6532C82.8086 13.387 82.5 14.1005 82.1797 14.8096C82.052 14.7708 81.9248 14.7319 81.7971 14.693C82.447 13.2537 83.0247 11.7879 83.3592 10.2381C83.6715 8.7902 83.8134 7.33858 83.4159 5.8814C82.9413 4.14093 81.7934 3.04974 80.1091 2.49736C78.5926 1.99991 77.0355 2.0178 75.4758 2.21592C71.7764 2.6856 68.3683 4.0465 65.0515 5.66785C61.2719 7.51571 57.7453 9.77647 54.3581 12.2625C52.8596 13.3623 51.4111 14.5263 49.9706 15.7002C49.849 15.6391 49.7521 15.5509 49.6755 15.4392C54.202 11.6515 59.0105 8.28164 64.2819 5.60243C67.1166 4.1613 70.0433 2.94852 73.1521 2.22086C74.1211 1.99373 75.1012 1.82894 76.0936 1.74748C76.1362 1.74377 76.1733 1.73637 76.1874 1.68946C76.8645 1.68884 77.5428 1.68884 78.2211 1.68884Z" fill="white"/>
<path d="M31.3 41.6301C31.4556 41.208 31.4358 40.7537 31.5426 40.3217C31.6284 39.9755 31.6809 39.6206 31.8129 39.2823C31.9067 40.3445 31.7407 41.3937 31.7117 42.4473C31.6753 43.7891 31.9259 45.0611 32.7659 46.1572C33.5732 47.2107 34.6829 47.7644 35.9512 48.0396C37.4071 48.3556 38.8692 48.2883 40.3289 48.073C43.221 47.6465 45.9416 46.6645 48.598 45.4839C51.0445 44.3964 53.3935 43.1225 55.6586 41.6974C55.9943 41.4863 56.3221 41.4265 56.6986 41.4752C56.6868 41.5845 56.5887 41.5943 56.527 41.6338C53.641 43.4632 50.6476 45.0895 47.4864 46.3942C45.2565 47.3144 42.9742 48.0693 40.5813 48.4377C39.0013 48.6809 37.4232 48.7562 35.8364 48.4254C33.3448 47.9063 31.7043 46.1819 31.3661 43.6638C31.3574 43.5996 31.3951 43.5144 31.3007 43.4792V41.6301H31.3Z" fill="white"/>
<path d="M62.5384 31.7656C52.5313 31.7656 42.5242 31.7644 32.5177 31.773C32.2203 31.773 32.1215 31.7057 32.1524 31.4058C32.1808 31.1311 32.1678 30.8516 32.1548 30.5744C32.1468 30.3955 32.1863 30.2973 32.3881 30.3276C32.4585 30.3381 32.5319 30.3294 32.6035 30.3294C52.5763 30.3294 72.5492 30.3294 92.522 30.3294C92.9571 30.3294 92.9645 30.3294 92.9546 30.7682C92.9472 31.0929 93.0953 31.5261 92.8929 31.7113C92.717 31.8724 92.2893 31.765 91.9733 31.765C82.1618 31.7662 72.3498 31.7662 62.5384 31.7662V31.7656Z" fill="#017EA7"/>
<path d="M49.6743 15.4392C49.7509 15.5509 49.8478 15.6392 49.9694 15.7003C50.3637 16.202 50.7199 16.723 50.8575 17.3636C51.1679 18.8134 50.7692 20.0453 49.625 20.9692C48.4591 21.9104 47.1297 22.0585 45.7867 21.3901C44.4696 20.7347 43.7845 19.6188 43.8086 18.1363C43.8314 16.7199 44.5128 15.6577 45.7694 15.0251C47.0377 14.3863 48.2894 14.5103 49.4688 15.3077C49.5361 15.3534 49.6058 15.396 49.675 15.4398L49.6743 15.4392Z" fill="#017EA7"/>
<path d="M81.7966 14.6924C81.9243 14.7313 82.0515 14.7702 82.1792 14.809C83.3809 15.2658 84.2073 16.0835 84.511 17.3475C84.8572 18.788 84.4437 20.028 83.305 20.9568C82.1348 21.9116 80.7961 22.0616 79.4432 21.3876C78.1262 20.7316 77.4503 19.6126 77.4719 18.1314C77.5028 15.9576 79.4272 14.3579 81.5824 14.6813C81.6528 14.6918 81.7256 14.6899 81.7972 14.6936L81.7966 14.6924Z" fill="#017EA7"/>
<path d="M37.1251 25.3284C38.3953 24.6877 39.6667 24.0502 40.9338 23.4034C41.1411 23.2978 41.3454 23.2503 41.5781 23.2528C42.5317 23.262 43.4852 23.2565 44.4579 23.3071C42.968 24.0773 41.4787 24.8476 39.8796 25.674C40.9436 26.6769 41.9651 27.6391 43.0001 28.6149C42.8581 28.7328 42.7736 28.7056 42.6989 28.7056C41.8879 28.7081 41.0763 28.7032 40.2653 28.7106C40.0987 28.7124 39.979 28.6637 39.8623 28.5439C39.2822 27.9483 38.6884 27.3657 38.1138 26.7646C37.9719 26.6158 37.8639 26.5936 37.7046 26.709C37.6312 26.7621 37.546 26.8072 37.4596 26.8349C36.6406 27.0954 36.1413 27.6274 36.0271 28.4958C36.008 28.642 35.9321 28.7149 35.7593 28.7118C35.0507 28.7007 34.3422 28.7007 33.6337 28.7112C33.4281 28.7143 33.4207 28.639 33.4726 28.4785C34.2367 26.1128 34.9995 23.7465 35.7556 21.3778C35.8111 21.2043 35.9037 21.1728 36.0666 21.1747C36.7443 21.1827 37.422 21.1864 38.0996 21.1735C38.3329 21.1691 38.3718 21.2204 38.2971 21.4456C37.9015 22.6405 37.5226 23.8403 37.1381 25.0389C37.1134 25.1167 37.0955 25.1963 37.0751 25.2753C37.0683 25.2981 37.0615 25.3203 37.0541 25.3432C37.0776 25.3382 37.1016 25.3333 37.1251 25.3284Z" fill="white"/>
<path d="M48.8053 28.7069C49.1695 27.5651 49.5225 26.4554 49.8774 25.3463C50.0767 24.7223 50.2853 24.1014 50.4742 23.4744C50.5291 23.2917 50.6223 23.2491 50.7994 23.2522C51.4259 23.2627 52.053 23.2664 52.6788 23.2509C52.9195 23.2454 53.0022 23.2892 52.8862 23.5311C52.8504 23.6064 52.7856 23.6922 52.8374 23.799C54.1033 23.1583 55.4469 23.0775 56.8213 23.267C57.3114 23.3349 57.7792 23.4867 58.1915 23.7755C58.7735 24.1823 59.0198 24.7865 58.8173 25.4685C58.5118 26.4986 58.1662 27.5163 57.844 28.5408C57.8027 28.6729 57.7335 28.7093 57.6021 28.7087C56.8936 28.7032 56.1844 28.6982 55.4759 28.7106C55.2457 28.7149 55.2531 28.631 55.3099 28.4588C55.5802 27.6428 55.8443 26.8244 56.1054 26.0054C56.1579 25.8406 56.1961 25.6697 56.2251 25.4987C56.277 25.1932 56.1548 24.9581 55.9017 24.7896C55.0537 24.2218 53.0812 24.6044 52.4918 25.445C52.3233 25.6851 52.2319 25.9548 52.1449 26.2276C51.9079 26.9682 51.6697 27.7089 51.4426 28.4532C51.3876 28.6334 51.3166 28.7167 51.1074 28.7124C50.3495 28.6976 49.591 28.7062 48.8041 28.7062L48.8053 28.7069Z" fill="white"/>
<path d="M62.9822 26.7263C63.1408 27.0781 63.4272 27.2472 63.7586 27.3354C64.9344 27.6471 66.0971 27.5947 67.2254 27.1349C67.4562 27.0404 67.5833 27.0577 67.742 27.2373C67.9919 27.5206 68.2666 27.7829 68.5424 28.0662C67.9351 28.3779 67.2852 28.5495 66.6156 28.6531C65.2633 28.8624 63.9166 28.863 62.5841 28.5081C61.9928 28.3507 61.4448 28.1063 60.9899 27.6842C60.2672 27.012 60.195 25.8912 60.8134 25.0204C61.2893 24.3501 61.9453 23.9199 62.7051 23.6589C64.5468 23.0275 66.4057 22.9565 68.2462 23.6434C69.117 23.9681 69.7139 24.5674 69.7706 25.5721C69.7861 25.8449 69.7268 25.9554 69.4182 25.9881C67.3667 26.2017 65.3183 26.443 63.2686 26.6763C63.1791 26.6862 63.0908 26.7078 62.9822 26.7281V26.7263ZM62.9618 25.7746C64.4141 25.6104 65.8182 25.4493 67.2235 25.2956C67.3827 25.2784 67.3858 25.2197 67.3272 25.1006C67.192 24.8247 66.96 24.655 66.6829 24.5637C65.7305 24.2507 64.7844 24.2668 63.874 24.7062C63.4389 24.9161 63.1143 25.2512 62.9625 25.7746H62.9618Z" fill="white"/>
<path d="M91.5394 24.5538C90.8537 24.7661 90.189 24.9698 89.5267 25.1797C89.4231 25.2124 89.3583 25.1895 89.2867 25.1124C88.9565 24.7569 88.5288 24.5933 88.0615 24.5322C87.2092 24.4205 86.3791 24.481 85.6218 24.9371C85.2614 25.1543 84.9867 25.4506 84.8682 25.8709C84.7059 26.4455 84.8781 26.9572 85.4249 27.1818C86.592 27.662 87.7468 27.6249 88.8219 26.9035C88.9793 26.7979 89.0904 26.7732 89.2601 26.843C89.7884 27.0602 90.3229 27.2627 90.879 27.4799C90.3951 27.9663 89.8144 28.2483 89.1941 28.4285C87.466 28.9303 85.7335 28.9457 84.0153 28.3742C83.4116 28.1736 82.8735 27.8533 82.513 27.3071C81.9853 26.5072 82.1995 25.3846 83.0031 24.6353C83.7721 23.9181 84.7096 23.5509 85.7193 23.3589C87.1277 23.0911 88.5349 23.0757 89.9205 23.5077C90.5445 23.7021 91.1043 24.007 91.54 24.5544L91.5394 24.5538Z" fill="white"/>
<path d="M74.6142 23.3818H76.7793C76.6571 23.7669 76.5417 24.1255 76.4306 24.4853C76.3874 24.6254 76.2751 24.5946 76.1776 24.5952C75.6129 24.5971 75.0481 24.6026 74.4834 24.5921C74.2952 24.5884 74.1952 24.6267 74.1359 24.8322C73.9594 25.4414 73.7477 26.0394 73.5564 26.6443C73.3799 27.2041 73.5774 27.4756 74.1717 27.5145C74.534 27.5386 74.8895 27.5201 75.2339 27.3948C75.382 27.3411 75.4758 27.3565 75.516 27.5392C75.5548 27.7182 75.6308 27.8885 75.6894 28.0632C75.8283 28.4792 75.8313 28.4958 75.4061 28.5921C74.3427 28.8322 73.2719 28.8902 72.2066 28.6106C71.7443 28.4897 71.3197 28.2835 71.0481 27.8589C70.8167 27.4972 70.8642 27.1109 70.9839 26.7319C71.4598 25.2297 71.9461 23.7311 72.4189 22.2283C72.4714 22.0623 72.5559 22.0351 72.7065 22.0363C73.4046 22.0425 74.1032 22.0481 74.8013 22.0339C75.0296 22.0296 75.0259 22.1018 74.9636 22.2789C74.8389 22.6332 74.7358 22.9948 74.6149 23.3806L74.6142 23.3818Z" fill="white"/>
<path d="M77.4145 35.3243C77.5395 34.959 77.7897 34.7763 78.165 34.7763C78.6295 34.7763 78.8054 34.9977 78.6927 35.4404C78.4964 36.215 78.3075 36.9914 78.1057 37.7647C77.7755 39.0299 77.1269 39.6095 75.8234 39.7879C74.9025 39.9138 74.002 39.8341 73.1392 39.4601C72.9812 39.3916 72.9287 39.3293 73.067 39.1818C73.2287 39.0102 73.3404 38.767 73.5317 38.6553C73.7348 38.5362 73.9274 38.7862 74.1403 38.8361C74.6865 38.9645 75.2315 39.0343 75.7863 38.9164C76.3029 38.8071 76.6214 38.4615 76.6961 37.9091C76.1245 38.256 75.5178 38.3122 74.8834 38.2437C74.1125 38.1609 73.4675 37.6925 73.3256 37.0512C73.1849 36.4143 73.3892 35.8588 73.8669 35.441C74.7482 34.6695 75.769 34.5479 76.8621 34.9034C77.0818 34.975 77.2423 35.138 77.4145 35.3237V35.3243ZM75.69 37.3944C76.1745 37.3907 76.606 37.2636 76.8849 36.8328C77.1534 36.4174 77.0534 35.9551 76.6646 35.7434C76.1727 35.4762 75.3401 35.5891 74.9365 35.9798C74.6797 36.2279 74.5674 36.5359 74.6717 36.8735C74.7778 37.2179 75.0796 37.3364 75.4148 37.3728C75.5061 37.3827 75.5987 37.3864 75.6913 37.3938L75.69 37.3944Z" fill="white"/>
<path d="M81.4311 23.2565C81.07 24.3884 80.717 25.4975 80.3628 26.606C80.1634 27.2294 79.9566 27.8503 79.7641 28.4761C79.7116 28.647 79.6357 28.7155 79.4456 28.7118C78.7581 28.6989 78.0699 28.7026 77.3824 28.7094C77.2071 28.7112 77.1491 28.6909 77.2145 28.4897C77.7625 26.8072 78.2989 25.121 78.8371 23.4355C78.8698 23.3324 78.8957 23.2516 79.0358 23.2528C79.8252 23.259 80.6152 23.2559 81.4311 23.2559V23.2565Z" fill="white"/>
<path d="M48.1339 23.2566C48.1604 23.3707 48.1135 23.4528 48.0857 23.5398C47.5617 25.1766 47.0359 26.8134 46.5205 28.4533C46.4576 28.6545 46.3662 28.718 46.1546 28.7131C45.4979 28.6971 44.8399 28.702 44.1833 28.7106C43.9753 28.7131 43.8901 28.6983 43.9728 28.4459C44.5147 26.793 45.0393 25.1347 45.5701 23.4781C45.6059 23.3658 45.6164 23.2498 45.7978 23.2522C46.5773 23.2633 47.3568 23.2572 48.1339 23.2572V23.2566Z" fill="white"/>
<path d="M49.2288 35.0935C49.9799 34.6867 50.7261 34.6028 51.4945 34.8546C52.1228 35.0607 52.4302 35.5459 52.3055 36.1871C52.1672 36.8994 51.9679 37.6005 51.8006 38.3072C51.7716 38.4306 51.7099 38.4664 51.5865 38.4627C51.2785 38.454 50.9699 38.4485 50.6632 38.4639C50.4644 38.4744 50.4169 38.4244 50.4718 38.2275C50.6193 37.6949 50.7514 37.1586 50.8847 36.6222C51.0532 35.9452 50.8212 35.6471 50.1293 35.6471C49.43 35.6471 48.9992 35.9791 48.8227 36.6673C48.6882 37.1925 48.5573 37.719 48.4388 38.2485C48.3987 38.4269 48.3135 38.4732 48.1413 38.4639C47.8648 38.4491 47.5859 38.4442 47.3106 38.4645C47.0674 38.4824 47.0452 38.3942 47.0989 38.1862C47.4167 36.9475 47.7247 35.7057 48.0364 34.4652C48.1086 34.1776 48.1963 33.8924 48.2493 33.6011C48.2845 33.4055 48.3752 33.3573 48.5592 33.3678C48.8252 33.3826 49.0943 33.3906 49.359 33.3666C49.6423 33.3406 49.6479 33.4487 49.5831 33.6764C49.4547 34.1276 49.3535 34.5867 49.2288 35.0935Z" fill="white"/>
<path d="M61.3892 38.5065C60.9763 38.5072 60.5727 38.4578 60.1839 38.309C59.0279 37.8671 58.6995 36.6494 59.4883 35.6922C60.0024 35.0682 60.706 34.8096 61.483 34.7355C62.0163 34.6843 62.5477 34.7213 63.0593 34.9114C64.2338 35.3484 64.5628 36.5815 63.7611 37.5518C63.2562 38.1634 62.4063 38.5059 61.3898 38.5065H61.3892ZM61.4404 37.6233C61.6688 37.6301 61.8879 37.5869 62.099 37.5011C62.6236 37.287 62.9396 36.692 62.7976 36.1816C62.6859 35.7804 62.194 35.5366 61.6312 35.6163C61.4608 35.6403 61.2862 35.6749 61.1282 35.7403C60.6356 35.9446 60.3431 36.4939 60.4468 36.9839C60.5319 37.3857 60.8986 37.6221 61.4404 37.6233Z" fill="white"/>
<path d="M69.7503 38.5065C69.5281 38.5084 69.1244 38.4565 68.7356 38.3078C67.566 37.8591 67.25 36.6204 68.0684 35.6656C68.5943 35.0527 69.2985 34.8015 70.0761 34.733C70.5372 34.6923 71.0001 34.7133 71.4469 34.8552C72.0641 35.0515 72.5782 35.3842 72.7103 36.0637C72.8442 36.7506 72.6047 37.3388 72.0783 37.7967C71.4673 38.3281 70.7316 38.5071 69.7496 38.5065H69.7503ZM70.0058 37.6245C70.3823 37.6245 70.6945 37.527 70.9525 37.3277C71.2895 37.0678 71.4691 36.5506 71.3531 36.1754C71.2475 35.8335 70.9069 35.6193 70.4267 35.602C70.1687 35.5928 69.9163 35.6372 69.6793 35.7409C69.2059 35.9483 68.901 36.4969 68.9942 36.9611C69.0781 37.3777 69.4534 37.6239 70.0051 37.6239L70.0058 37.6245Z" fill="white"/>
<path d="M55.1618 34.7762C55.1396 34.8991 55.1217 34.996 55.0933 35.149C55.6235 34.8102 56.1722 34.6911 56.7529 34.7275C56.9362 34.7392 57.1226 34.7565 57.2991 34.8028C58.0793 35.0058 58.407 35.5619 58.2225 36.4013C58.0836 37.0302 57.9058 37.6511 57.7546 38.2776C57.7225 38.4109 57.6682 38.4664 57.5275 38.4627C57.2097 38.4547 56.8912 38.4522 56.5733 38.4633C56.3894 38.4701 56.3709 38.3967 56.411 38.243C56.561 37.669 56.7097 37.0944 56.848 36.5173C56.9813 35.9612 56.7579 35.678 56.1808 35.6508C55.4099 35.6144 54.9668 35.9347 54.7687 36.6834C54.6323 37.1975 54.4977 37.7128 54.3823 38.2319C54.344 38.4047 54.2842 38.4732 54.1015 38.4646C53.7941 38.4497 53.4855 38.4547 53.1782 38.4627C53.0208 38.467 52.9856 38.4207 53.0257 38.2652C53.3078 37.1654 53.5837 36.0637 53.8559 34.9608C53.883 34.8509 53.9015 34.7713 54.0416 34.7738C54.4095 34.7806 54.7779 34.7762 55.1618 34.7762Z" fill="white"/>
<path d="M86.1638 38.0306C85.0837 38.5762 83.9925 38.6873 82.8952 38.2676C81.6885 37.8066 81.483 36.371 82.4718 35.4582C83.2235 34.7639 84.1468 34.6466 85.1176 34.7558C85.4238 34.7904 85.7157 34.8848 85.9903 35.0348C86.5057 35.3175 86.7489 35.7569 86.789 36.3321C86.8026 36.5253 86.739 36.6018 86.5483 36.6284C85.5324 36.7691 84.5177 36.9191 83.5025 37.0672C83.4161 37.0802 83.2809 37.0431 83.2605 37.145C83.2414 37.2375 83.3278 37.3301 83.4154 37.3937C83.8623 37.7171 84.3665 37.6677 84.8664 37.6035C85.0454 37.5807 85.2294 37.5165 85.3867 37.4283C85.5491 37.3369 85.6441 37.3295 85.7521 37.498C85.8669 37.677 86.0119 37.8368 86.1632 38.0306H86.1638ZM83.2204 36.4747C83.9604 36.3642 84.6665 36.2556 85.3738 36.1568C85.504 36.1389 85.5293 36.0951 85.4799 35.9834C85.4336 35.8785 85.3725 35.7859 85.275 35.7223C84.7159 35.3576 83.4512 35.4279 83.2204 36.4747Z" fill="white"/>
<path d="M39.0779 38.5041C38.7199 38.4875 38.3613 38.4788 38.0138 38.3671C37.3936 38.1671 36.8905 37.8369 36.7603 37.1506C36.6313 36.4717 36.8603 35.8879 37.3676 35.4342C38.1194 34.7615 39.0322 34.6467 39.9913 34.7572C40.2974 34.7924 40.59 34.8862 40.8634 35.038C41.3769 35.3219 41.6182 35.7626 41.6577 36.3384C41.6713 36.5384 41.5954 36.6038 41.4108 36.6291C40.3949 36.7704 39.3803 36.9198 38.3656 37.0685C38.2811 37.0809 38.1471 37.0408 38.1299 37.1506C38.115 37.2451 38.1984 37.3376 38.2891 37.3969C38.8372 37.7549 39.4204 37.6746 40.0086 37.5364C40.0283 37.5321 40.0462 37.5197 40.0654 37.5123C40.203 37.4568 40.4097 37.3167 40.4659 37.3623C40.6603 37.5203 40.8078 37.7382 40.9627 37.9419C41.0522 38.0598 40.9152 38.0746 40.8584 38.1054C40.3036 38.4078 39.7012 38.5041 39.0779 38.5035V38.5041ZM40.3746 36.1384C40.2696 35.7046 39.974 35.5274 39.3729 35.5243C38.7051 35.5213 38.2459 35.8515 38.0934 36.4711C38.8612 36.3588 39.6173 36.2489 40.3746 36.1378V36.1384Z" fill="white"/>
<path d="M88.6139 38.5023C88.1683 38.5004 87.5913 38.4319 87.0358 38.2233C86.8815 38.1653 86.8185 38.1054 86.9445 37.9474C87.0778 37.7795 87.1494 37.5364 87.3148 37.4265C87.5005 37.3031 87.7036 37.5209 87.9066 37.5654C88.4325 37.6814 88.9559 37.7481 89.4904 37.6419C89.6595 37.6086 89.8378 37.5468 89.8372 37.3543C89.8366 37.163 89.6465 37.1488 89.4941 37.1185C89.1021 37.0414 88.7102 36.9611 88.3189 36.8803C87.7918 36.7717 87.4666 36.4859 87.4154 36.0891C87.3629 35.6854 87.6227 35.2744 88.0813 35.0417C88.1727 34.9954 88.2658 34.9497 88.3634 34.9207C89.3243 34.63 90.2822 34.6522 91.2395 34.9497C91.3944 34.9979 91.4493 35.0435 91.3394 35.196C91.2142 35.37 91.145 35.6095 90.9833 35.7268C90.7988 35.8613 90.597 35.636 90.3921 35.6039C89.9329 35.5323 89.4762 35.4712 89.0194 35.6002C88.8713 35.6422 88.7047 35.7082 88.7139 35.8965C88.7232 36.0779 88.9009 36.0977 89.0361 36.1273C89.4465 36.2187 89.86 36.2933 90.2705 36.3841C90.7901 36.4989 91.0666 36.7427 91.1142 37.1111C91.1722 37.5604 90.963 37.9289 90.4914 38.1702C89.9471 38.4492 89.3577 38.5097 88.6139 38.501V38.5023Z" fill="white"/>
<path d="M44.4011 38.5109C43.9876 38.5072 43.5834 38.456 43.1945 38.3072C42.0206 37.8592 41.7071 36.6279 42.523 35.6651C43.3741 34.6609 45.396 34.39 46.4841 35.1349C46.6724 35.2639 46.9186 35.4133 46.9217 35.6175C46.9242 35.7644 46.6051 35.7743 46.4372 35.8626C46.3743 35.8959 46.3058 35.9193 46.2397 35.9465C46.0157 36.0385 45.854 36.1008 45.609 35.8687C45.1998 35.4811 44.6573 35.5355 44.1604 35.7391C43.7315 35.915 43.4778 36.2514 43.4476 36.7297C43.4223 37.1327 43.6111 37.4358 44 37.5469C44.5517 37.7036 45.0757 37.6555 45.5256 37.2519C45.5744 37.208 45.6114 37.121 45.7009 37.1648C45.9861 37.3037 46.2755 37.4352 46.5502 37.5925C46.6761 37.6648 46.5366 37.7326 46.4928 37.7765C46.0503 38.2141 45.496 38.4066 44.893 38.4825C44.7307 38.5029 44.5653 38.5017 44.4011 38.5103V38.5109Z" fill="white"/>
<path d="M36.574 34.8516C36.4265 35.6725 36.4265 35.6848 35.6334 35.6657C35.3439 35.6589 35.1841 35.7145 35.139 36.0348C35.0921 36.3674 34.981 36.6908 34.9008 37.0192C34.7817 37.5074 34.9539 37.6938 35.4501 37.6506C35.5988 37.6376 35.7877 37.479 35.8753 37.6006C35.987 37.7555 35.9963 37.9839 36.0506 38.1807C36.087 38.3128 35.9864 38.3375 35.9 38.3647C35.3384 38.5406 34.7675 38.5776 34.2046 38.398C33.6275 38.2134 33.3881 37.7962 33.53 37.1698C33.7602 36.1514 34.0281 35.1417 34.2805 34.1283C34.3064 34.0246 34.3373 33.9462 34.4793 33.9511C34.8175 33.9629 35.1569 33.9604 35.4958 33.9524C35.6544 33.9487 35.6587 34.0166 35.6235 34.1394C35.5748 34.3067 35.5445 34.4788 35.4945 34.6455C35.4476 34.8016 35.4779 34.864 35.6575 34.8559C35.9537 34.8424 36.2518 34.8522 36.5746 34.8522L36.574 34.8516Z" fill="white"/>
<path d="M67.084 37.6376C67.0512 37.8592 67.0154 38.0684 66.9908 38.2795C66.9772 38.393 66.9142 38.4332 66.8124 38.4511C66.3933 38.5257 65.9743 38.5449 65.5651 38.4146C65.0009 38.2344 64.7652 37.8116 64.917 37.1759C65.2071 35.9626 65.5262 34.7566 65.8274 33.5456C65.8613 33.4086 65.9218 33.3648 66.0582 33.3691C66.3655 33.3784 66.6748 33.3864 66.9809 33.3673C67.2012 33.3531 67.2086 33.4358 67.1636 33.6123C66.8784 34.7214 66.5988 35.8323 66.3205 36.9433C66.1705 37.5426 66.323 37.7092 66.9463 37.6388C66.9852 37.6345 67.0253 37.6388 67.084 37.6388V37.6376Z" fill="white"/>
<path d="M81.4342 34.7763C81.1373 35.9699 80.8472 37.1302 80.5615 38.2918C80.5324 38.4097 80.4837 38.4652 80.3541 38.4621C80.0257 38.4547 79.6974 38.4535 79.3691 38.4621C79.1919 38.4671 79.1944 38.3874 79.2289 38.2535C79.5085 37.1531 79.785 36.0514 80.0591 34.9497C80.0825 34.8553 80.0918 34.7732 80.2208 34.7744C80.6189 34.7787 81.0163 34.7763 81.4335 34.7763H81.4342Z" fill="white"/>
<path d="M80.9924 34.248C80.9374 34.2437 80.8658 34.2413 80.7949 34.232C80.485 34.1894 80.2375 33.9685 80.2221 33.724C80.2061 33.4648 80.432 33.1951 80.735 33.1192C80.9658 33.0612 81.1997 33.0384 81.4312 33.1161C81.6521 33.1902 81.8546 33.2957 81.8737 33.563C81.8935 33.837 81.7651 34.0228 81.5127 34.1419C81.3485 34.219 81.1812 34.2363 80.9918 34.248H80.9924Z" fill="white"/>
</svg>
