<svg width="137" height="28" viewBox="0 0 137 28" fill="none" xmlns="http://www.w3.org/2000/svg">
<g clip-path="url(#clip0_2221_3028)">
<path d="M31.5898 16.3611V23.3222C31.5898 25.9396 31.8683 27.109 34.5413 27.109V27.3318H24.3503V27.109C27.3575 27.109 27.0233 23.8791 27.0233 21.2617V13.8551C27.0233 11.2378 27.5802 6.11441 24.5174 6.11441V5.83596H34.2629V6.11441C31.7569 6.11441 31.5898 7.618 31.5898 10.2354V15.6928H32.0353C36.1006 11.6276 36.5461 10.9036 36.8245 10.4581C38.885 7.17249 36.9359 6.17009 35.8222 6.17009V5.78027H44.1198V6.17009C42.7275 6.17009 40.0545 8.39764 38.4395 9.67848L32.3138 15.8042C40.6671 16.194 40.5 20.5378 41.391 23.7677C41.8922 25.6054 42.282 26.7192 44.2311 27.109V27.3318H36.8245C35.7665 21.0946 35.2096 15.8599 31.5898 16.3611Z" fill="white"/>
<path d="M51.3036 17.2521C51.3036 20.2593 51.8048 21.0946 53.5311 21.0946V21.3174H44.8994V21.0946C46.6814 21.0946 46.7928 19.0341 46.7928 17.2521V9.4557C46.7928 7.39522 46.3473 6.22576 44.5653 6.22576V5.83594H51.3036V17.2521Z" fill="white"/>
<path d="M48.9647 0.100098C50.3012 0.100098 51.3593 1.21387 51.3593 2.49471C51.3593 3.83124 50.2455 4.88932 48.9647 4.88932C47.6281 4.88932 46.5701 3.77555 46.5701 2.49471C46.5144 1.15818 47.6281 0.100098 48.9647 0.100098Z" fill="white"/>
<path d="M60.3252 7.78516C61.8287 5.61331 62.8868 5.55762 64.6132 5.55762C68.7341 5.55762 69.124 8.73187 69.124 11.4049V17.3079C69.124 20.2037 69.4024 21.1504 71.0174 21.1504V21.3732H62.7755V21.1504C64.2234 21.1504 64.2234 19.8696 64.2234 17.3079V11.2935C64.2234 9.12169 64.4461 6.44863 62.8311 6.44863C60.9377 6.44863 60.882 7.95223 60.3808 8.84325V17.3079C60.3808 19.8139 60.5479 21.1504 61.9958 21.1504V21.3732H53.921V21.1504C55.5359 21.1504 55.8144 19.8139 55.8144 17.3079V9.45582C55.8144 7.28396 55.4246 6.22588 53.6425 6.22588V5.83606H60.4365V7.78516H60.3252Z" fill="white"/>
<path d="M103.15 5.83605H106.324L105.767 6.89413H103.15V16.1941C103.15 20.872 105.823 20.4822 106.992 19.4798L107.048 19.7582C104.598 21.7073 102.983 21.3175 102.37 21.3175C100.031 21.3175 98.5276 19.6468 98.5276 17.4193V6.94982H95.9102V6.83844C97.9707 6.11449 101.312 3.38575 102.871 1.1582H103.15V5.83605Z" fill="white"/>
<path d="M105.377 13.7438C105.377 10.0127 108.719 5.55762 112.784 5.55762C116.515 5.55762 120.079 9.51151 120.079 13.4654C120.079 18.1432 116.069 21.5959 112.784 21.5959C108.774 21.5959 105.377 18.0319 105.377 13.7438ZM115.401 13.2983C115.401 8.62049 115.234 5.83606 112.784 5.83606C110.111 5.83606 110.278 9.40013 110.278 13.2983C110.278 17.9762 110.278 21.2618 112.784 21.2618C115.624 21.3175 115.401 18.0319 115.401 13.2983Z" fill="white"/>
<path d="M125.871 7.78516C127.374 5.61331 128.432 5.55762 130.159 5.55762C134.28 5.55762 134.669 8.73187 134.669 11.4049V17.3079C134.669 20.2037 134.948 21.1504 136.563 21.1504V21.3732H128.321V21.1504C129.769 21.1504 129.769 19.8696 129.769 17.3079V11.2935C129.769 9.12169 129.992 6.44863 128.377 6.44863C126.483 6.44863 126.428 7.95223 125.926 8.84325V17.3079C125.926 19.8139 126.093 21.1504 127.541 21.1504V21.3732H119.466V21.1504C121.081 21.1504 121.36 19.8139 121.36 17.3079V9.45582C121.36 7.28396 120.97 6.22588 119.188 6.22588V5.83606H125.982V7.78516H125.871Z" fill="white"/>
<path d="M78.9252 18.9229C78.4796 19.5355 77.8114 21.5403 75.3054 21.5403C72.4096 21.5403 70.2377 18.9229 70.2377 13.6325C70.2377 9.34444 72.9665 5.55762 76.1407 5.55762C78.3683 5.55762 79.2593 7.56241 79.2593 7.56241V5.94744H86.1647V6.28157C86.1647 6.28157 83.8814 5.83606 83.8814 9.066V20.9834C83.6587 24.2133 82.2665 26.4409 76.6419 28.0001L76.6976 27.6103C79.9275 25.3271 79.2036 21.9301 78.9252 18.9229ZM79.315 12.9642C79.315 9.45582 79.0365 6.05881 76.809 6.05881C75.2497 6.05881 74.8599 8.78756 74.8599 13.7995C74.8599 17.9762 75.194 20.7606 76.809 20.7606C78.2012 20.7606 79.3707 17.5864 79.3707 14.245V12.9642H79.315Z" fill="white"/>
<path d="M84.6611 16.3612H86.8886C86.6102 21.2061 89.9515 21.2061 90.7868 21.2061C92.2347 21.2061 93.5713 20.0367 93.5713 18.7558C93.5713 14.8019 85.385 16.5283 85.385 10.5139C85.385 7.78516 87.4455 5.55762 90.5641 5.55762C95.5761 5.55762 96.1329 8.5648 96.1329 9.62289H94.2395C94.4066 8.89894 94.1282 5.78037 90.8982 5.78037C88.2808 5.78037 88.3922 7.89654 88.3922 8.06361C88.3922 11.9061 97.2467 10.5139 97.2467 16.1385C97.2467 18.9786 94.8521 21.3175 91.6222 21.5403C86.109 21.8187 84.6611 17.8091 84.6611 16.3612Z" fill="white"/>
<path d="M133.055 4.55491C133.055 3.66389 133.778 2.93994 134.669 2.93994C135.56 2.93994 136.284 3.66389 136.284 4.55491C136.284 5.44593 135.56 6.16988 134.669 6.16988C133.778 6.16988 133.055 5.44593 133.055 4.55491ZM136.006 4.55491C136.006 3.77527 135.449 3.1627 134.669 3.1627C133.89 3.1627 133.333 3.77527 133.333 4.55491C133.333 5.33455 133.89 5.94713 134.669 5.94713C135.393 5.94713 136.006 5.33455 136.006 4.55491ZM135.449 5.44593H135.171L134.669 4.6106H134.28V5.44593H134.057V3.66389H134.837C135.338 3.66389 135.449 3.83096 135.449 4.1094C135.449 4.44353 135.226 4.6106 134.892 4.6106L135.449 5.44593ZM134.614 4.44353C134.892 4.44353 135.226 4.49922 135.226 4.1094C135.226 3.83096 135.004 3.77527 134.781 3.77527H134.28V4.38785L134.614 4.44353Z" fill="white"/>
<path d="M45.4006 22.5425H49.2988V23.0994H47.6838V27.3317H47.0156V23.0994H45.4006V22.5425Z" fill="white"/>
<path d="M54.2551 27.3317V22.4868H57.7635V23.0994H54.8677V24.5473H57.5407V25.1042H54.8677V26.7192H57.8192V27.276L54.2551 27.3317Z" fill="white"/>
<path d="M65.003 22.4312C65.6156 22.4312 66.0611 22.5982 66.4509 22.9324C66.785 23.2665 66.9521 23.6006 67.0078 24.0461H66.3952C66.3395 23.712 66.1725 23.4892 65.9497 23.3222C65.7269 23.1551 65.4485 23.0437 65.0587 23.0437C64.5575 23.0437 64.2234 23.2108 63.8892 23.5449C63.6108 23.8791 63.4437 24.3803 63.4437 25.1042C63.4437 25.6611 63.5551 26.1066 63.8335 26.4964C64.112 26.8306 64.5018 26.9976 65.003 26.9976C65.5042 26.9976 65.8383 26.8306 66.1168 26.4407C66.2281 26.2737 66.3395 25.9952 66.3952 25.6611H67.0078C66.9521 26.1623 66.785 26.6078 66.4509 26.9419C66.0611 27.3318 65.5599 27.5545 64.8916 27.5545C64.3347 27.5545 63.8335 27.3874 63.4994 27.0533C62.9982 26.6078 62.7755 25.8838 62.7755 24.9928C62.7755 24.2689 62.9425 23.712 63.3323 23.2665C63.7222 22.6539 64.279 22.4312 65.003 22.4312Z" fill="white"/>
<path d="M72.1311 27.3317V22.4868H72.7994V24.4916H75.3054V22.4868H75.9737V27.3317H75.3054V25.0485H72.7994V27.3317H72.1311Z" fill="white"/>
<path d="M84.1042 27.3317V22.4868H84.8838L87.3341 26.385V22.4868H87.9467V27.3317H87.2228L84.7725 23.4335V27.3317H84.1042Z" fill="white"/>
<path d="M94.6293 26.385C94.3509 25.9952 94.2395 25.5497 94.2395 25.0485C94.2395 24.3803 94.4066 23.8791 94.685 23.5449C95.0192 23.2108 95.409 23.0437 95.9102 23.0437C96.4114 23.0437 96.8569 23.2108 97.1353 23.5449C97.4138 23.8791 97.5808 24.3246 97.5808 24.9371C97.5808 25.494 97.4695 25.9395 97.191 26.385C96.9126 26.7749 96.5228 26.9976 95.9659 26.9976C95.2976 26.8862 94.8521 26.7192 94.6293 26.385ZM94.0168 23.3222C93.6826 23.7677 93.5156 24.3246 93.5156 24.9928C93.5156 25.7168 93.6826 26.3294 94.0725 26.7749C94.518 27.2761 95.0749 27.4988 95.7988 27.4988C96.5784 27.4988 97.191 27.2204 97.6365 26.6635C98.0263 26.1623 98.1934 25.6054 98.1934 24.8815C98.1934 24.2132 98.0264 23.6563 97.6922 23.2665C97.3024 22.7096 96.6341 22.4312 95.7988 22.4312C95.0192 22.4312 94.4066 22.7096 94.0168 23.3222Z" fill="white"/>
<path d="M103.818 27.3317V22.4868H104.486V26.7192H106.937V27.276L103.818 27.3317Z" fill="white"/>
<path d="M113.118 26.385C112.84 25.9952 112.728 25.5497 112.728 25.0485C112.728 24.3803 112.895 23.8791 113.174 23.5449C113.508 23.2108 113.898 23.0437 114.399 23.0437C114.9 23.0437 115.29 23.2108 115.624 23.5449C115.902 23.8791 116.069 24.3246 116.069 24.9371C116.069 25.494 115.958 25.9395 115.68 26.385C115.401 26.7749 115.011 26.9976 114.455 26.9976C113.786 26.8862 113.396 26.7192 113.118 26.385ZM112.505 23.3222C112.171 23.7677 112.004 24.3246 112.004 24.9928C112.004 25.7168 112.171 26.3294 112.561 26.7749C113.007 27.2761 113.563 27.4988 114.287 27.4988C115.067 27.4988 115.68 27.2204 116.125 26.6635C116.515 26.1623 116.682 25.6054 116.682 24.8815C116.682 24.2132 116.515 23.6563 116.181 23.2665C115.791 22.7096 115.123 22.4312 114.287 22.4312C113.563 22.4312 112.951 22.7096 112.505 23.3222Z" fill="white"/>
<path d="M124.423 22.4312C124.868 22.4312 125.258 22.5425 125.592 22.7096C126.093 22.988 126.372 23.3779 126.483 24.0461H125.815C125.759 23.712 125.592 23.4335 125.314 23.2665C125.091 23.0994 124.757 23.0437 124.367 23.0437C123.922 23.0437 123.532 23.2108 123.253 23.5449C122.919 23.8791 122.808 24.3803 122.808 25.0485C122.808 25.6054 122.919 26.1066 123.198 26.4407C123.476 26.7749 123.866 26.9976 124.423 26.9976C124.868 26.9976 125.202 26.8862 125.481 26.6078C125.759 26.3294 125.926 25.9395 125.926 25.3827H124.423V24.8258H126.539V27.3874H126.093L125.926 26.7749C125.704 26.9976 125.537 27.1647 125.314 27.2761C125.035 27.4431 124.646 27.4988 124.2 27.4988C123.643 27.4988 123.142 27.3318 122.752 26.9419C122.307 26.4964 122.084 25.8282 122.084 25.0485C122.084 24.2689 122.307 23.6006 122.752 23.0994C123.198 22.6539 123.754 22.4312 124.423 22.4312Z" fill="white"/>
<path d="M133.723 25.4383L131.885 22.5425H132.665L134.057 24.8814L135.449 22.5425H136.229L134.391 25.4383V27.3874H133.723V25.4383Z" fill="white"/>
<path d="M1.2952 4.4436C1.18383 4.05378 1.07245 3.16276 1.07245 3.16276C0.905384 2.43881 1.23952 2.21606 1.23952 2.21606C1.23952 2.21606 4.58083 0.48971 10.7623 0.322644C12.6 0.266956 15.8299 0.211267 19.0599 1.32504C19.2826 1.43642 19.3383 1.60348 19.394 1.88193C19.5054 2.27175 19.5611 2.66157 19.6168 2.9957C19.7281 3.83103 19.7838 4.27654 19.7281 4.77773C19.7281 5.11187 19.3383 5.66875 19.3383 5.83582C19.2826 6.39271 19.5054 8.62025 19.394 9.67834C19.3383 10.7364 18.8928 14.3562 18.0575 16.7508C17.1665 19.2568 15.5515 18.867 14.7719 18.867L18.6144 27.2759H0.237121L2.96586 12.5185C2.96586 12.5185 3.02155 12.1286 2.68742 11.9616C1.90778 11.4604 1.35089 10.7364 1.35089 10.7364C1.35089 10.7364 0.961073 10.2909 0.571252 7.8963C0.571252 7.8963 0.237121 5.61306 0.626941 5.11187C0.794007 4.88911 1.23952 4.66636 1.35089 4.55498L1.2952 4.4436Z" fill="#010101"/>
<path d="M16.0527 8.28654L14.8832 8.00809C14.8832 8.00809 14.6048 8.00809 14.4934 8.17516C14.4377 8.34222 14.1593 9.23324 14.1593 9.23324C14.1593 9.23324 14.1593 9.28893 14.215 9.34462C14.2707 9.40031 17.1108 11.4608 17.1108 11.4608C17.1108 11.4608 14.7162 11.238 13.9922 11.4051C13.2683 11.5722 11.7647 12.3518 10.818 12.5189C9.87125 12.6859 6.36287 13.0758 6.14012 13.0758L4.7479 7.06139C4.7479 7.06139 4.58083 5.55779 3.02155 5.61348C1.85209 5.66917 1.68503 5.94761 1.62934 6.05899C1.51796 6.28175 1.62934 6.5045 1.62934 6.5045L5.41616 12.9644C5.41616 12.9644 2.85449 11.7392 1.85209 10.347C1.29521 9.62306 0.794007 6.0033 1.12814 5.39073C1.46227 4.83384 3.52275 4.38833 4.41377 4.49971C4.85928 4.5554 5.2491 5.00091 5.47185 5.27935C5.52754 5.39073 5.58323 5.33504 5.63892 5.39073C5.63892 5.39073 5.41616 3.99851 4.52515 3.94282C3.24431 3.83145 1.85209 4.33264 1.85209 4.33264C1.85209 4.33264 1.74071 4.33264 1.68503 4.16558C1.62934 3.94282 1.46227 2.77336 1.46227 2.77336C1.46227 2.77336 1.51796 2.55061 1.74071 2.43923C1.74071 2.43923 5.36048 0.768572 10.7623 0.768572C11.3748 0.768572 16.4982 0.712883 18.8928 1.77097C19.1156 1.93803 18.9485 2.77336 18.8371 3.21887C18.7814 3.553 18.3916 3.66438 18.3916 3.66438C18.0018 3.77576 17.8904 4.0542 17.8904 4.0542C17.8904 4.0542 18.3916 8.89911 18.4473 9.06618C18.503 9.28893 18.2802 9.28893 17.8347 9.34462C17.612 9.34462 15.0503 9.40031 15.0503 9.40031C15.0503 9.40031 14.4934 9.34462 14.5491 9.01049C14.5491 8.78773 14.6605 8.34222 14.7719 8.34222C14.9389 8.34222 15.2731 8.34222 15.2731 8.34222C15.2731 8.34222 16.3868 8.39791 16.0527 8.28654Z" fill="#E21D38"/>
<path d="M12.2102 12.5185C12.2102 12.5185 14.6605 12.073 17.2778 12.7413C17.2778 12.7413 17.8347 13.1868 17.779 13.5766C17.779 13.5766 13.7695 13.7994 12.2102 12.5185Z" fill="#E21D38"/>
<path d="M12.3216 16.8622C12.3216 16.8622 13.0455 13.855 17.6677 14.2448C17.6677 14.2448 18.0018 14.5233 17.1108 15.4143C15.997 16.4724 14.0479 17.3077 12.3216 16.8622Z" fill="#E21D38"/>
<path d="M11.3748 2.38298C11.3748 2.38298 11.876 2.2716 13.9365 2.71711C14.9946 2.93987 15.5515 3.21831 15.8299 3.274C15.9413 3.32969 15.9413 3.60813 15.8856 3.60813C15.7186 3.66382 13.1569 2.7728 11.6533 2.7728C11.6533 2.7728 9.87125 3.49675 7.81077 5.27879C7.81077 5.27879 7.36526 5.33448 7.14251 5.27879C7.14251 5.39017 9.03592 3.32969 11.3748 2.38298Z" fill="#010101"/>
<path d="M9.53712 5.33455C9.53712 5.33455 11.2078 4.49922 12.0431 4.27647C12.8784 4.05371 13.6024 3.99802 13.9922 4.1094C14.382 4.22078 14.7719 5.22317 14.8275 5.39024C14.8275 5.39024 13.5467 6.00281 12.3772 5.89144C11.3192 5.72437 10.2054 5.61299 9.53712 5.33455Z" fill="#010101"/>
<path d="M19.1156 3.94226C19.3383 3.99795 19.3383 3.99795 19.4497 4.10933C19.6168 4.2207 19.5611 4.55484 19.4497 4.61053C19.3383 4.7219 19.2826 4.49915 18.5587 4.55484C18.5587 4.55484 18.8928 3.88657 19.1156 3.94226Z" fill="#E21D38"/>
<path d="M3.57844 12.5742L5.30479 13.7437L8.14491 26.7191H0.905385L3.57844 12.5742Z" fill="#E21D38"/>
<path d="M7.75508 18.9229C7.75508 18.9229 11.2635 21.0947 11.8204 21.93L12.2102 26.7749H9.6485L7.75508 18.9229Z" fill="#E21D38"/>
<path d="M13.7138 23.3779C13.7138 23.3779 15.7742 25.2713 16.3868 26.7749H12.9341L13.7138 23.3779Z" fill="#E21D38"/>
<path d="M16.6096 4.33236C16.6096 4.33236 16.8323 4.27667 16.888 4.49943C17.1665 5.66889 17.5006 8.23056 17.5006 8.39763C17.5006 8.78745 17.1108 8.45332 17.1108 8.45332L16.6096 4.33236Z" fill="white"/>
<path d="M9.20299 0.935547C9.20299 0.935547 9.25868 0.935547 9.42574 0.935547C9.48143 0.935547 10.5395 2.77327 10.5395 2.77327C10.5395 2.77327 10.1497 2.99603 10.094 3.05171L9.20299 0.935547Z" fill="white"/>
<path d="M4.7479 7.06116C4.7479 7.06116 4.35808 5.8917 5.13772 5.72464C5.91736 5.55757 6.97544 5.39051 8.20059 5.50188C8.20059 5.50188 6.1958 5.8917 5.58323 6.11446C4.97065 6.33721 4.7479 7.06116 4.7479 7.06116Z" fill="white"/>
</g>
<defs>
<clipPath id="clip0_2221_3028">
<rect width="136.326" height="27.9" fill="white" transform="translate(0.237121 0.100098)"/>
</clipPath>
</defs>
</svg>
