<svg width="120" height="23" viewBox="0 0 120 23" fill="none" xmlns="http://www.w3.org/2000/svg">
<path fill-rule="evenodd" clip-rule="evenodd" d="M119.084 21.7157H3.41545V20.5007H0.91555V23H3.41545V22.1185H119.084V21.7157Z" fill="#C23C40"/>
<path fill-rule="evenodd" clip-rule="evenodd" d="M108.585 4.83365H109.584V1.50001H113.584V4.83365H114.917V6.8333H113.584V14.6672H109.584V6.8333H108.585V4.83365ZM68.3011 4.96208H72.4679L72.4423 5.75212C72.7926 5.32651 73.194 5.05285 73.7985 4.93048L76.168 4.92039L76.2184 8.52837C74.2604 8.61645 72.8599 9.23033 72.4679 10.9799V14.6665H68.3011V4.96208ZM55.1158 14.9792H59.2294V14.6013C59.9902 14.8195 60.7779 14.9293 61.5693 14.9274C65.0952 14.9274 67.971 12.8134 67.971 10.2221C67.971 7.63074 65.0952 5.51679 61.5693 5.51679C60.7779 5.51487 59.9902 5.62465 59.2294 5.84289L59.2355 1.42269L55.1158 1.4274V14.9792ZM61.2607 12.4598C59.7169 12.4598 58.4582 11.466 58.4582 10.2483C58.4582 9.02996 59.7169 8.03686 61.2607 8.03686C62.8045 8.03686 64.0631 9.02996 64.0631 10.2483C64.0631 11.466 62.8045 12.4598 61.2607 12.4598ZM94.4775 5.04142H90.3632V5.41862C89.6027 5.20039 88.8152 5.0906 88.024 5.09252C84.498 5.09252 81.6223 7.20647 81.6223 9.79782C81.6223 12.3892 84.498 14.5031 88.024 14.5031C88.849 14.5031 89.6383 14.3868 90.3632 14.177L90.3121 15.4458C90.1319 15.8116 89.6437 16.254 89.3795 16.2022L85.0669 16.2002L83.948 18.9959L91.0833 19.0027C91.9742 19.0282 93.9456 18.0768 94.4775 16.3548V5.04142ZM88.3326 7.56149C89.8764 7.56149 91.1351 8.55526 91.1351 9.77294C91.1351 10.9913 89.8764 11.9844 88.3326 11.9844C86.7888 11.9844 85.5301 10.9913 85.5301 9.77294C85.5301 8.55459 86.7888 7.56149 88.3326 7.56149ZM53.8222 5.04142H49.7086V5.41862C48.9478 5.20039 48.1601 5.0906 47.3687 5.09252C43.8428 5.09252 40.967 7.20647 40.967 9.79782C40.967 12.3892 43.8428 14.5031 47.3687 14.5031C48.1937 14.5031 48.9831 14.3868 49.7086 14.177L49.6568 15.4458C49.4766 15.8116 48.9885 16.254 48.7249 16.2022L44.4116 16.2002L43.2928 18.9959L50.428 19.0027C51.3189 19.0282 53.2903 18.0768 53.8215 16.3548L53.8222 5.04142ZM47.6773 7.56149C49.2211 7.56149 50.4798 8.55526 50.4798 9.77294C50.4798 10.9913 49.2211 11.9844 47.6773 11.9844C46.1335 11.9844 44.8749 10.9913 44.8749 9.77294C44.8749 8.55459 46.1335 7.56149 47.6773 7.56149ZM76.9177 4.96208H81.0844V14.6672H76.9177V4.96208ZM79.2811 -6.10352e-05H83.281V3.66641H79.2811V-6.10352e-05ZM28.6343 5.00915H32.7667L32.7976 6.12664C36.0963 4.3166 37.8902 5.00578 40.3202 7.28917L40.3565 14.6665H36.1044V8.81547C35.0871 8.01602 33.7786 7.97971 32.8339 8.81547L32.8702 14.6665H28.5825L28.6343 5.00915ZM96.155 1.58406H100.443L100.371 6.12664C103.67 4.3166 105.463 5.00578 107.893 7.28917L107.93 14.6665H103.678V8.81547C102.66 8.01602 101.353 7.97971 100.408 8.81547L100.444 14.6665H96.1557V1.58406H96.155ZM17.7492 1.50001H22.9157L16.9161 7.66705L22.8861 14.6376L17.9159 14.6672L12.2491 8.41944V14.608H8.08239V1.50001H12.2491V6.71093L17.7492 1.50001ZM23.2196 4.96208H27.3863V14.6672H23.2196V4.96208ZM25.5823 -6.10352e-05H29.5823V3.66641H25.5823V-6.10352e-05Z" fill="#377BBF"/>
</svg>
