<svg width="227" height="45" viewBox="0 0 227 45" fill="none" xmlns="http://www.w3.org/2000/svg">
<g clip-path="url(#clip0_257_2)">
<path d="M28.4924 1.16171H41.4546C42.0049 1.16171 42.3106 1.77313 41.9438 2.20113L26.169 22.0725C26.0467 22.1947 26.0467 22.3782 26.169 22.5616L41.9438 42.4329C42.2495 42.8609 42.0049 43.4723 41.4546 43.4723H28.4924C28.309 43.4723 28.1256 43.4112 28.0033 43.2278L16.0805 27.7587C16.0193 27.6364 15.8971 27.6364 15.7748 27.6364H12.0451C11.9228 27.6364 11.8617 27.6976 11.8617 27.8199V42.7998C11.8617 43.1666 11.5559 43.4112 11.2502 43.4112H0.611425C0.24457 43.4112 0 43.1055 0 42.7998V1.83428C0 1.46742 0.305713 1.22285 0.611425 1.22285H11.1891C11.5559 1.22285 11.8005 1.52856 11.8005 1.83428V16.8753C11.8005 16.9976 11.8617 17.0588 11.9839 17.0588H15.7136C15.8359 17.0588 15.9582 16.9976 16.0193 16.9365L28.0033 1.40628C28.1256 1.28399 28.309 1.16171 28.4924 1.16171ZM112.808 22.317C112.808 34.6067 102.903 44.6341 89.2681 44.6341C75.6333 44.6341 65.7282 34.6678 65.7282 22.317C65.7894 9.96623 75.6333 0 89.2681 0C102.903 0 112.808 9.96623 112.808 22.317ZM101.007 22.317C101.007 15.7136 96.1161 10.3942 89.3293 10.3942C82.5424 10.3942 77.651 15.7136 77.651 22.317C77.651 28.9204 82.5424 34.2398 89.3293 34.2398C96.1161 34.2398 101.007 28.8593 101.007 22.317ZM47.8135 43.4112H59.2471C59.614 43.4112 59.8586 43.1055 59.8586 42.7998V1.83428C59.8586 1.46742 59.5528 1.22285 59.2471 1.22285H47.8135C47.4466 1.22285 47.202 1.52856 47.202 1.83428V42.7998C47.202 43.1666 47.4466 43.4112 47.8135 43.4112ZM156.953 1.16171H143.991C143.807 1.16171 143.624 1.22285 143.502 1.40628L134.086 13.5736C134.024 13.6959 133.841 13.6959 133.78 13.5736L124.364 1.40628C124.242 1.22285 124.058 1.16171 123.875 1.16171H110.913C110.362 1.16171 110.057 1.77313 110.423 2.20113L126.198 22.0725C126.32 22.1947 126.32 22.3782 126.198 22.5616L110.423 42.4329C110.118 42.8609 110.362 43.4723 110.913 43.4723H123.875C124.058 43.4723 124.242 43.4112 124.364 43.2278L133.78 31.0604C133.841 30.9381 134.024 30.9381 134.086 31.0604L143.502 43.2278C143.624 43.4112 143.807 43.4723 143.991 43.4723H156.953C157.503 43.4723 157.809 42.8609 157.442 42.4329L141.667 22.5616C141.545 22.4393 141.545 22.2559 141.667 22.0725L157.442 2.20113C157.809 1.77313 157.503 1.16171 156.953 1.16171ZM214.733 42.9832L212.715 37.1135C212.654 36.9912 212.531 36.869 212.348 36.869H195.045C194.861 36.869 194.739 36.9912 194.678 37.1135L192.66 42.9832C192.599 43.2278 192.354 43.4112 192.049 43.4112H181.104C180.676 43.4112 180.371 42.9832 180.493 42.5552L194.8 1.58971C194.861 1.34514 195.106 1.16171 195.412 1.16171H212.042C212.287 1.16171 212.531 1.34514 212.654 1.58971L226.961 42.5552C227.083 42.9832 226.778 43.4112 226.35 43.4112H215.405C215.038 43.4112 214.794 43.2889 214.733 42.9832ZM203.482 10.2108L198.041 26.2913C197.98 26.5359 198.163 26.7804 198.408 26.7804H208.985C209.23 26.7804 209.413 26.5359 209.352 26.2913L203.91 10.2108C203.788 10.0274 203.544 10.0274 203.482 10.2108ZM163.312 43.4112H174.745C175.112 43.4112 175.357 43.1055 175.357 42.7998V1.83428C175.357 1.46742 175.051 1.22285 174.745 1.22285H163.312C162.945 1.22285 162.7 1.52856 162.7 1.83428V42.7998C162.639 43.1666 162.945 43.4112 163.312 43.4112Z" fill="white"/>
</g>
<defs>
<clipPath id="clip0_257_2">
<rect width="226.9" height="44.6341" fill="white"/>
</clipPath>
</defs>
</svg>
