<svg width="98" height="30" viewBox="0 0 98 30" fill="none" xmlns="http://www.w3.org/2000/svg">
<path d="M12.344 25.98V2.03998L1.24404 15.2L12.344 25.98ZM18.324 9.59998L13.984 14.94C13.664 15.32 13.664 15.86 13.984 16.24L21.124 24.9H30.864L23.304 16.08C22.924 15.64 22.924 15.04 23.244 14.62L27.004 9.61998H18.324V9.59998Z" fill="#3F98CC"/>
<path d="M48.5288 14.8458C47.3621 14.8458 46.4663 15.2958 45.8579 15.8749L45.8079 15.0541H43.5121L43.5454 15.4999C43.5954 16.1874 43.6204 16.9083 43.6204 17.9124V24.9124H46.0954V19.0666C46.0954 18.8249 46.1288 18.5916 46.1871 18.4249C46.3996 17.7374 47.0371 17.0416 47.9913 17.0416C49.0996 17.0416 49.6621 17.7999 49.6621 19.2916V24.9124H52.1371V19.1041C52.1371 15.9624 50.1954 14.8458 48.5288 14.8458Z" fill="#3F98CC"/>
<path d="M58.2121 14.8458C55.3288 14.8458 53.3205 16.9874 53.3205 20.0583C53.3205 23.1291 55.2705 25.1208 58.0663 25.1208C60.433 25.1208 62.9788 23.4916 62.9788 19.9083C62.9788 16.9291 61.0205 14.8458 58.2163 14.8458H58.2121ZM58.1371 23.0499C56.7913 23.0499 55.8121 21.7666 55.8121 19.9958C55.8121 18.4583 56.5413 16.9041 58.1746 16.9041C59.983 16.9041 60.4621 18.8999 60.4621 19.9583C60.4621 21.7499 59.483 23.0499 58.1371 23.0499Z" fill="#3F98CC"/>
<path d="M73.2745 19.8875C73.1579 20.3 73.037 20.7459 72.9245 21.2042C72.8079 20.7792 72.6745 20.3375 72.5245 19.8584L71.0329 15.05H69.0412L67.4745 19.95C67.3412 20.3834 67.2079 20.8209 67.0787 21.2584C66.9745 20.8334 66.862 20.4 66.7454 19.95L65.4704 15.05H62.9079L65.8829 24.9126H67.9829L69.537 20.3334C69.6829 19.8792 69.837 19.4042 69.9787 18.8917C70.1079 19.3542 70.2495 19.8209 70.4037 20.3125L71.8745 24.9126H73.9745L77.1537 15.05H74.6454L73.2704 19.8875H73.2745Z" fill="#3F98CC"/>
<path d="M80.2828 10.8333H77.8078V24.9125H80.2828V10.8333Z" fill="#3F98CC"/>
<path d="M86.2078 14.8459C83.4703 14.8459 81.5578 17.0209 81.5578 20.1292C81.5578 23.2376 83.4661 25.0959 86.4161 25.0959C87.9494 25.0959 88.9869 24.7709 89.5911 24.5001L89.9036 24.3584L89.4286 22.3709L88.9744 22.5626C88.4453 22.7876 87.7953 22.9959 86.6369 22.9959C85.8911 22.9959 84.2203 22.7626 83.9828 20.6959H90.2536L90.3036 20.2459C90.3244 20.0792 90.3536 19.8251 90.3536 19.5126C90.3536 17.1876 89.0703 14.8417 86.2078 14.8417V14.8459ZM84.0619 18.6876C84.2786 17.8584 84.8661 16.8542 86.0786 16.8542C86.6119 16.8542 87.0369 17.0126 87.3453 17.3251C87.7369 17.7251 87.8744 18.2876 87.9161 18.6876H84.0619Z" fill="#3F98CC"/>
<path d="M95.0288 18.8626C93.783 18.3876 93.583 18.1376 93.583 17.7209C93.583 17.2251 94.0121 16.9084 94.6788 16.9084C95.4913 16.9084 96.0871 17.2292 96.3038 17.3667L96.7496 17.6459L97.4413 15.6334L97.1496 15.4584C96.4871 15.0667 95.5996 14.8417 94.7163 14.8417C92.6705 14.8417 91.183 16.1292 91.183 17.9084C91.183 18.8209 91.6455 20.0709 93.8413 20.8542C95.0288 21.2917 95.2496 21.6251 95.2496 22.1251C95.2496 22.7126 94.7621 23.0501 93.9121 23.0501C93.1913 23.0501 92.4205 22.7542 91.9746 22.4667L91.5205 22.1709L90.8371 24.2542L91.1246 24.4251C91.8538 24.8542 92.8538 25.1001 93.8746 25.1001C96.1788 25.1001 97.6663 23.8751 97.6663 21.9792C97.6663 20.0834 96.258 19.3334 95.0288 18.8667V18.8626Z" fill="#3F98CC"/>
<path d="M43.4121 14.9125H40.9121L37.0121 19.5625V10.8333H34.5538V24.9125H37.0121V19.5875L41.1954 24.9125H43.5121L39.5871 20.025L43.4121 14.9125Z" fill="#3F98CC"/>
</svg>
