<svg width="139" height="26" viewBox="0 0 139 26" fill="none" xmlns="http://www.w3.org/2000/svg">
<path d="M6.91567 0H0V25.2594L6.91567 16.2346V0ZM21.5808 6.91567L14.3218 16.2346L21.4337 25.2594H13.2428L6.91567 16.2346L14.0275 6.96471L21.5808 6.91567ZM32.175 6.37615C26.4365 6.37615 21.5318 9.31898 21.5318 16.0875C21.5318 22.856 26.4365 25.7989 32.175 25.7989C37.9135 25.7989 42.8183 22.856 42.8183 16.0875C42.8673 9.36803 37.9135 6.37615 32.175 6.37615ZM28.6436 16.0875C28.6436 13.488 29.2812 10.398 32.175 10.398C35.0688 10.398 35.7064 13.488 35.7064 16.0875C35.7064 18.687 35.0688 21.777 32.175 21.777C29.2812 21.777 28.6436 18.687 28.6436 16.0875ZM57.9248 6.37615C55.5706 6.37615 53.7558 7.11186 52.1863 8.92661L52.0882 6.91567H45.2706V25.2103H52.1863V14.7142C52.1863 14.518 51.7449 10.7414 55.1782 10.7414C57.3363 10.7414 57.7777 12.6542 57.8267 14.4689V25.2103H64.7424V12.9485C64.7424 8.92661 61.8486 6.37615 57.9248 6.37615ZM67.7833 19.4718C67.44 25.1122 70.2848 25.7498 74.9933 25.7498C76.0233 25.7498 77.1514 25.7008 78.7209 25.4065V21.2865C77.9361 21.3846 76.9552 21.3846 76.0723 21.3846C74.4538 21.3846 74.7481 19.0303 74.7481 18.5399V11.2809H78.7699V6.96471H74.7481V0L67.8324 9.0247L67.7833 19.4718ZM88.8246 6.91567H82.0071V25.2103H88.9227V17.8532C88.8246 14.3709 90.0508 12.2128 93.6803 12.1637C94.1708 12.1637 94.6122 12.1637 95.1517 12.2128V6.37615C92.1108 6.3271 89.8056 7.30805 89.0208 10.349H88.9718L88.8246 6.91567ZM106.776 6.37615C101.037 6.37615 96.1327 9.31898 96.1327 16.0875C96.1327 22.856 101.037 25.7989 106.776 25.7989C112.514 25.7989 117.419 22.856 117.419 16.0875C117.419 9.31898 112.465 6.37615 106.776 6.37615ZM103.245 16.0875C103.245 13.488 103.882 10.398 106.776 10.398C109.67 10.398 110.307 13.488 110.307 16.0875C110.307 18.687 109.67 21.777 106.776 21.777C103.882 21.777 103.245 18.687 103.245 16.0875ZM132.182 6.37615C129.828 6.37615 128.013 7.11186 126.444 8.92661L126.346 6.91567H119.528V25.2103H126.444V14.7632C126.444 14.567 126.002 10.7904 129.436 10.7904C131.594 10.7904 132.035 12.7032 132.084 14.518V25.2594H139V12.9975C139.049 8.92661 136.106 6.37615 132.182 6.37615Z" fill="white"/>
</svg>
