<svg width="125" height="50" viewBox="0 0 125 50" fill="none" xmlns="http://www.w3.org/2000/svg">
<path d="M21.3584 0.798838C21.6209 0.594632 22.0557 0.330693 22.3225 0.214004C22.5892 0.0973144 23.1518 0.0014626 23.5727 7.3447e-05C23.9936 -0.00270487 24.5812 0.0736987 24.8813 0.168161C25.18 0.261235 25.6801 0.562682 25.9926 0.836346C26.3038 1.11001 26.7164 1.67262 27.254 2.83951L27.3929 20.6957L28.7181 19.408C29.4461 18.6995 30.6963 17.4812 31.4965 16.6991C32.2952 15.9184 33.0273 15.2766 33.1232 15.2752C33.219 15.2738 33.2662 15.2099 33.2273 15.1335C33.1884 15.0571 33.7677 14.4292 34.5123 13.7388C35.3194 12.9915 36.2029 12.3163 36.7002 12.0691C37.3379 11.7523 37.7213 11.6551 38.3325 11.6579C38.7715 11.6593 39.2882 11.7232 39.4785 11.7996C39.6702 11.876 40.0523 12.1413 40.3301 12.39C40.6065 12.6386 40.9511 13.0762 41.0941 13.3624C41.2372 13.6485 41.3928 14.1486 41.4414 14.4737C41.49 14.7988 41.4581 15.3766 41.372 15.7587C41.2706 16.2032 41.0261 16.6755 40.6941 17.0673C40.4079 17.4048 38.7201 18.9843 36.9433 20.5749C35.1666 22.1668 33.7135 23.5004 33.7135 23.5379C33.7135 23.5754 33.8302 23.7171 33.9719 23.8505C34.115 23.9839 35.35 25.4077 36.7155 27.015C38.0824 28.6223 39.8564 30.7088 40.6593 31.652C41.4623 32.5966 42.2485 33.5635 42.4083 33.801C42.568 34.04 42.7722 34.4525 42.8611 34.7207C42.9514 34.9888 43.0237 35.5194 43.0195 35.9014C43.0167 36.2835 42.9 36.8461 42.7583 37.1517C42.618 37.4573 42.3221 37.906 42.1027 38.1491C41.8818 38.3922 41.4192 38.7339 41.0761 38.9076C40.6329 39.1312 40.2079 39.2229 39.6175 39.2243C38.9673 39.2243 38.6464 39.1437 38.1588 38.859C37.8157 38.6575 37.2114 38.1602 36.8169 37.7532C36.4224 37.3462 34.7151 35.2944 33.0217 33.1926C31.3298 31.0922 29.403 28.7014 28.739 27.8804C28.075 27.0595 27.4846 26.3871 27.4276 26.3871C27.3707 26.3857 27.3081 28.5584 27.254 36.0404L26.8928 36.8044C26.6941 37.2239 26.3496 37.749 26.1288 37.9699C25.9065 38.1908 25.4758 38.4867 25.1702 38.627C24.8299 38.7825 24.2909 38.8826 23.7811 38.884C23.3227 38.8853 22.6975 38.8159 22.3919 38.7284C22.0516 38.6311 21.5904 38.3213 21.2028 37.9296C20.8041 37.5281 20.4804 37.0322 20.3332 36.596C20.1151 35.957 20.097 34.5637 20.0998 2.83951L20.4902 2.00602C20.7138 1.52815 21.0833 1.01277 21.3584 0.798838Z" fill="#434655"/>
<path d="M89.4882 11.8065C90.023 11.644 90.8982 11.4551 91.433 11.3884C91.9678 11.3217 92.9375 11.2981 93.5862 11.3356C94.2349 11.3731 95.2365 11.4981 95.8088 11.6134C96.3826 11.7287 97.2883 11.9774 97.8231 12.1635C98.3579 12.3511 99.0761 12.6664 99.4206 12.8637C99.7652 13.0623 100.347 13.5124 100.717 13.8666C101.086 14.2195 101.521 14.7585 101.684 15.0641C101.899 15.4669 101.981 15.867 101.979 16.5227C101.979 17.2187 101.898 17.5854 101.624 18.1202C101.381 18.5925 101.05 18.9593 100.586 19.2691C100.212 19.5191 99.7513 19.7317 99.5596 19.7414C99.3692 19.7511 99.0247 19.7455 98.7955 19.7289C98.5663 19.7122 97.6606 19.3816 96.7812 18.994C95.9019 18.6064 94.8392 18.1689 94.4197 18.0202C93.9654 17.8605 93.2611 17.7465 92.6832 17.741C92.0317 17.7327 91.5622 17.8049 91.2594 17.9591C91.0107 18.0855 90.6829 18.3772 90.5301 18.6064C90.3675 18.8495 90.2522 19.2552 90.2522 19.5788C90.2522 20.0039 90.3578 20.2595 90.7037 20.6652C90.9524 20.9583 91.4052 21.307 91.7108 21.4417C92.0164 21.5765 93.3611 22.1224 94.6975 22.6572C96.0353 23.1907 97.5981 23.8797 98.1704 24.1881C98.7441 24.4965 99.5568 25.0132 99.9763 25.3369C100.396 25.6592 100.932 26.169 101.165 26.4677C101.4 26.7663 101.728 27.2456 101.895 27.5318C102.063 27.8179 102.288 28.3805 102.396 28.782C102.503 29.1835 102.63 29.8239 102.675 30.2059C102.721 30.5976 102.669 31.4158 102.552 32.0813C102.425 32.8078 102.163 33.6357 101.868 34.2344C101.582 34.8151 101.035 35.5805 100.508 36.1362C100.025 36.6474 99.2234 37.3225 98.7261 37.6365C98.2288 37.9491 97.2605 38.3853 96.5729 38.6047C95.8852 38.8256 94.6656 39.0757 93.864 39.1632C92.7846 39.2799 92.0804 39.2813 91.1552 39.1673C90.4675 39.0826 89.6243 38.952 89.2798 38.877C88.9353 38.802 88.2491 38.6089 87.7517 38.4478C87.2544 38.2866 86.3806 37.9213 85.8069 37.6351C85.2346 37.3489 84.4372 36.8586 84.0357 36.5432C83.6343 36.2279 83.1189 35.6736 82.8897 35.311C82.6605 34.9485 82.434 34.4011 82.3868 34.0955C82.3299 33.7288 82.3854 33.2815 82.5507 32.7758C82.723 32.2507 82.9994 31.8145 83.4356 31.3811C83.7843 31.0338 84.3205 30.6657 84.6261 30.5629C84.9859 30.4421 85.4749 30.4059 86.0153 30.4601C86.6793 30.5268 87.2725 30.756 88.9325 31.5895C90.537 32.3966 91.2316 32.6689 91.9539 32.7758C92.4693 32.8522 93.2195 32.8759 93.6209 32.8286C94.0224 32.7814 94.5614 32.6397 94.8212 32.5161C95.0795 32.391 95.3768 32.1174 95.481 31.9076C95.5852 31.6978 95.6727 31.2603 95.6741 30.9352C95.6783 30.5657 95.581 30.2156 95.4171 29.9975C95.2726 29.8072 94.7864 29.453 94.3363 29.2113C93.8849 28.9695 92.454 28.3528 91.1552 27.8416C89.8563 27.329 88.481 26.7524 88.099 26.5594C87.717 26.3663 87.0599 25.9759 86.6404 25.6911C86.2209 25.405 85.5471 24.8354 85.1429 24.4242C84.74 24.013 84.2288 23.3323 84.0066 22.9128C83.7843 22.4933 83.5315 21.8362 83.4454 21.4542C83.3578 21.0722 83.2912 20.2443 83.2967 19.6136C83.3023 18.9829 83.4051 18.0772 83.5259 17.5993C83.6482 17.1214 83.9427 16.356 84.1816 15.8976C84.4275 15.428 85.0443 14.6376 85.5944 14.0861C86.2223 13.4568 86.9182 12.929 87.5434 12.6053C88.0782 12.3288 88.9534 11.969 89.4882 11.8065Z" fill="#434655"/>
<path d="M44.8699 12.108C45.0838 11.9913 45.4269 11.8482 45.6339 11.7898C45.8395 11.7329 46.4146 11.6787 46.9105 11.6704C47.6398 11.6607 47.958 11.7315 48.5664 12.0413C49.0401 12.283 49.4596 12.6303 49.6986 12.9804C49.9542 13.354 50.521 14.996 51.4239 17.9813C52.1643 20.4262 53.1548 23.6935 53.6257 25.2424C54.0966 26.7913 54.5134 28.0583 54.5509 28.0569C54.5884 28.0569 55.5511 25.0702 56.6874 21.4209C57.8237 17.7716 58.8837 14.4417 59.0406 14.0222C59.1976 13.6027 59.5491 13.0137 59.8214 12.715C60.0936 12.4177 60.5659 12.0593 60.8716 11.9204C61.2327 11.7551 61.7676 11.6648 62.3996 11.6607C62.9345 11.6565 63.5901 11.7426 63.8582 11.8496C64.1264 11.9579 64.5556 12.2247 64.8154 12.4441C65.0738 12.6622 65.4127 13.0915 65.5683 13.3971C65.7225 13.7027 66.8241 17.0784 68.0146 20.8985C69.2051 24.7187 70.2386 27.8763 70.3095 27.9138C70.3817 27.9513 71.3236 25.0452 72.4029 21.4542C73.4823 17.8632 74.4853 14.5557 74.6339 14.1042C74.7812 13.6541 75.0937 13.0595 75.3299 12.7845C75.5647 12.5108 76.0481 12.1455 76.4065 11.9732C76.883 11.744 77.3039 11.6607 77.9929 11.662C78.6805 11.6634 79.1154 11.7496 79.6252 11.9871C80.0072 12.1649 80.5226 12.5386 80.7712 12.8192C81.0199 13.0984 81.2852 13.5624 81.3602 13.8486C81.4366 14.1347 81.4991 14.714 81.5005 15.1335C81.5019 15.685 81.313 16.4588 80.8212 17.9119C80.4462 19.0204 79.8488 20.7388 79.4918 21.732C79.1348 22.7253 78.7458 23.8186 78.6278 24.1631C78.5097 24.5076 77.5525 27.2262 76.5023 30.2059C75.4508 33.1856 74.4269 35.9514 74.2255 36.3529C74.0241 36.7544 73.6254 37.3364 73.3392 37.649C73.0531 37.9602 72.5057 38.3672 72.1237 38.5533C71.5625 38.827 71.2166 38.8909 70.3178 38.8881C69.4413 38.8867 69.0592 38.8159 68.5119 38.5561C68.1299 38.3755 67.6242 38.0171 67.3881 37.7587C67.1519 37.5017 66.8297 37.0725 66.6713 36.8044C66.5143 36.5363 65.5266 33.5996 64.4778 30.2754C63.429 26.9511 62.5316 24.1867 62.4844 24.1311C62.4385 24.0755 62.0051 25.2633 61.5217 26.7705C61.0396 28.2777 60.2409 30.7935 59.7463 32.3591C59.2518 33.9247 58.6781 35.6431 58.4711 36.1751C58.2349 36.7794 57.8849 37.3573 57.5376 37.7129C57.232 38.0268 56.7638 38.3991 56.4957 38.5408C56.1859 38.7048 55.6067 38.8214 54.8982 38.8617C54.2078 38.902 53.5757 38.8589 53.2312 38.7492C52.9256 38.652 52.3949 38.3686 52.0504 38.1199C51.6712 37.8449 51.2211 37.3198 50.9057 36.7836C50.621 36.2987 49.8778 34.4637 49.2554 32.7064C48.6331 30.9491 47.7315 28.3861 47.2509 27.0108C46.7716 25.6356 45.7478 22.7128 44.9782 20.5165C44.2072 18.3203 43.5029 16.0698 43.4112 15.5156C43.2848 14.739 43.2848 14.3737 43.4112 13.918C43.5029 13.593 43.7794 13.1012 44.028 12.8234C44.2767 12.5469 44.6545 12.2247 44.8699 12.108Z" fill="#434655"/>
<path d="M99.4637 42.1235C99.6777 42.0012 100.021 41.854 100.228 41.7956C100.433 41.7387 101.039 41.6859 101.574 41.6803C102.324 41.672 102.705 41.7442 103.241 41.9984C103.623 42.179 104.147 42.5374 104.404 42.7958C104.661 43.0528 105.03 43.5765 105.223 43.9585C105.452 44.4114 105.595 44.9671 105.637 45.5561C105.686 46.2673 105.633 46.6354 105.383 47.2925C105.177 47.8343 104.845 48.3483 104.431 48.7609C104.027 49.1651 103.506 49.5068 102.998 49.6985C102.559 49.8652 102.027 50.0014 101.817 50C101.607 50 101.06 49.9333 100.601 49.8527C100.032 49.7527 99.5596 49.5554 99.1081 49.229C98.7455 48.9664 98.2593 48.4538 98.0274 48.0913C97.7954 47.7287 97.5384 47.1814 97.455 46.8758C97.3689 46.5576 97.3411 45.9047 97.3911 45.3477C97.4495 44.6767 97.5842 44.1919 97.8232 43.7849C98.0149 43.4598 98.3733 43.0028 98.6219 42.7694C98.8706 42.536 99.2484 42.2457 99.4637 42.1235Z" fill="#F9AF1B"/>
<path d="M20.5444 44.2114C20.7208 44.0447 21.0514 43.8099 21.2806 43.6904C21.6557 43.4959 25.3133 43.4737 57.2945 43.4737C92.6152 43.4723 92.8958 43.4751 93.4473 43.7502C93.8404 43.946 94.0835 44.2003 94.2794 44.6184C94.4308 44.9434 94.5558 45.4283 94.5572 45.695C94.56 45.9617 94.4197 46.4618 94.2475 46.8049C94.0752 47.148 93.714 47.5717 92.9611 48.0649L57.364 48.0607C27.5277 48.0565 21.6932 48.026 21.3153 47.8662C21.0667 47.7607 20.7305 47.5273 20.568 47.3453C20.4054 47.1633 20.1957 46.7021 20.1012 46.3201C19.9734 45.8061 19.9679 45.4811 20.0776 45.0699C20.1596 44.7642 20.3693 44.3781 20.5444 44.2114Z" fill="#F9AF1B"/>
</svg>
