<svg width="51" height="31" viewBox="0 0 51 31" fill="none" xmlns="http://www.w3.org/2000/svg">
<path d="M2.6599 25V6.35514H5.54998V23.2097L4.75712 22.4168H15.0642V25H2.6599ZM21.3459 21.8542V9.68001H23.5966V21.8542H21.3459ZM16.3842 16.8669V14.6929H28.5583V16.8669H16.3842ZM39.6365 25.2558C37.8121 25.2558 36.2775 24.8892 35.0328 24.156C33.8052 23.4058 32.8759 22.3316 32.2451 20.9334C31.6312 19.5353 31.3243 17.8387 31.3243 15.8438V15.7159C31.3243 14.1302 31.5289 12.7406 31.9381 11.5471C32.3644 10.3365 32.9697 9.33048 33.754 8.5291C34.5384 7.72772 35.4847 7.13095 36.593 6.73878C37.7013 6.32957 38.9289 6.12496 40.2759 6.12496C41.7934 6.12496 43.1404 6.38072 44.3169 6.89224C45.4934 7.38671 46.4482 8.09431 47.1814 9.01504C47.9146 9.91872 48.3408 10.9929 48.4602 12.2376H45.4934C45.3229 11.4703 44.9904 10.8224 44.4959 10.2938C44.0185 9.74822 43.4132 9.339 42.68 9.06619C41.9639 8.79338 41.154 8.65698 40.2503 8.65698C38.9545 8.65698 37.8718 8.90421 37.0022 9.39868C36.1326 9.8761 35.4762 10.5496 35.0328 11.4192C34.6066 12.2717 34.3934 13.2521 34.3934 14.3604V17.0715C34.3934 18.0092 34.5213 18.8362 34.7771 19.5523C35.0499 20.2514 35.4335 20.8482 35.928 21.3426C36.4395 21.8201 37.0448 22.1781 37.7439 22.4168C38.443 22.6555 39.2102 22.7749 40.0457 22.7749C41.2222 22.7749 42.2197 22.5618 43.0381 22.1355C43.8565 21.7092 44.4789 21.1039 44.9051 20.3196C45.3314 19.5182 45.5445 18.5719 45.5445 17.4807V16.4065L46.5676 17.4295H40.3271V15.2811H48.5881V25H46.4141L46.1839 21.3426H46.0561C45.8003 22.127 45.3655 22.8175 44.7517 23.4143C44.1379 23.994 43.3876 24.4459 42.501 24.7698C41.6314 25.0938 40.6766 25.2558 39.6365 25.2558Z" fill="white"/>
</svg>
