<svg width="114" height="49" viewBox="0 0 114 49" fill="none" xmlns="http://www.w3.org/2000/svg">
<g clip-path="url(#clip0_2394_4466)">
<path d="M59.826 45.6437C88.3907 45.6437 111.547 36.5018 111.547 25.2247C111.547 13.9476 88.3907 4.80566 59.826 4.80566C31.2613 4.80566 8.10498 13.9476 8.10498 25.2247C8.10498 36.5018 31.2613 45.6437 59.826 45.6437Z" fill="white"/>
<path d="M36.011 27.473H43.16L39.669 19.47L36.011 27.473ZM57 0C25.521 0 0 10.764 0 24.033C0 37.311 25.521 48.065 57 48.065C88.482 48.065 114 37.309 114 24.033C114 10.764 88.48 0 57 0ZM47.076 36.516L44.607 30.797H34.532L31.912 36.516H18.906V13.009H22.443V33.193H29.638L39.732 11.503L50.96 36.516H47.076ZM72.624 14.834C70.09 12.72 67.264 12.285 64.56 12.285C61.576 12.285 59.067 13.357 57.025 15.499C54.969 17.629 53.943 20.238 53.943 23.324C53.943 26.372 54.97 28.943 57.025 31.035C59.078 33.129 61.597 34.176 64.58 34.176C66.119 34.176 67.639 34.135 68.716 33.636C69.316 33.384 69.941 33.047 70.587 32.623C71.23 32.195 71.912 31.887 72.625 31.287V36.361C70.116 37.783 67.281 38.286 64.522 38.286C60.373 38.286 56.835 36.841 53.904 33.942C50.984 31.024 49.521 27.504 49.521 23.379C49.521 19.682 50.746 16.385 53.191 13.492C56.197 9.946 60.089 8.171 64.862 8.171C67.469 8.171 70.193 8.46 72.626 9.867L72.624 14.834ZM79.683 36.516H76.147V13.009H79.683V36.516ZM95.821 16.343H86.386V22.01H95.542V25.339H86.386V33.193H95.821V36.519H82.854V13.009H95.822L95.821 16.343Z" fill="#013A81"/>
</g>
<defs>
<clipPath id="clip0_2394_4466">
<rect width="114" height="49" fill="white"/>
</clipPath>
</defs>
</svg>
