<svg width="66" height="19" viewBox="0 0 66 19" fill="none" xmlns="http://www.w3.org/2000/svg">
<path d="M47.9555 1.86403V0.324234H47.3726V0.115234H48.7805V0.324234H48.1975V1.86403H47.9555ZM49.2424 1.86403V0.379135L49.7594 1.86403H49.9684L50.4853 0.412134V1.86403H50.7163V0.126234H50.3973L49.9684 1.33613C49.9244 1.45703 49.8914 1.55603 49.8694 1.61103C49.8474 1.55603 49.8254 1.46804 49.7814 1.35814L49.3634 0.126234H49.0114V1.86403H49.2424ZM14.2327 10.3882H8.6452V0.676134H5.5325V12.72H14.2327V10.3882ZM20.6671 10.3552C20.4801 10.5092 20.2821 10.6412 20.0731 10.7402C19.4022 11.0812 18.5883 11.0482 18.1043 10.9052C17.9393 10.8502 17.8183 10.7842 17.7194 10.6852C17.5874 10.5752 17.5214 10.4762 17.4774 10.3442C17.4554 10.2672 17.4334 10.1682 17.4334 10.0582C17.4224 9.83834 17.4444 9.60734 17.4994 9.44234C17.5544 9.29934 17.6204 9.17834 17.7963 9.04634C17.8733 8.99134 17.9613 8.93643 18.0603 8.88143C18.1703 8.82643 18.2913 8.78243 18.4563 8.73843C18.6213 8.69443 18.8413 8.65043 19.2152 8.59543C19.5892 8.54043 20.1281 8.48543 20.6671 8.44143V10.3552ZM20.6671 12.72H23.5928V6.50563C23.5928 6.14263 23.5488 5.79063 23.4608 5.47174C23.3728 5.16374 23.2518 4.91074 23.0869 4.67974C22.9219 4.44884 22.7129 4.25083 22.4489 4.07483C22.1849 3.89883 21.877 3.74483 21.47 3.63483C21.052 3.51393 20.5241 3.42594 19.9082 3.38194C19.2922 3.32694 18.5773 3.31594 17.7963 3.38194C17.0154 3.44794 16.1575 3.57993 15.3216 3.78883V5.96663H15.5856C16.1025 5.76863 16.6305 5.59273 17.0374 5.49373C17.4444 5.38373 17.7304 5.35073 18.0383 5.32873C18.6433 5.29573 19.3142 5.36173 19.7322 5.48273C19.9411 5.53773 20.0841 5.60373 20.1941 5.68073C20.3151 5.75763 20.4031 5.83463 20.4691 5.93363C20.5461 6.03263 20.5901 6.14263 20.6341 6.26363C20.6781 6.40663 20.6891 6.59364 20.6891 6.73664C19.7542 6.78064 18.8303 6.86854 18.1483 6.96754C17.4774 7.06654 17.0484 7.16554 16.6965 7.28654C16.3445 7.40754 16.0475 7.53953 15.8055 7.69353C15.5636 7.83653 15.3656 8.00143 15.2006 8.17743C15.0356 8.35343 14.9036 8.54043 14.7936 8.74943C14.6836 8.95843 14.6066 9.17833 14.5626 9.42033C14.5187 9.66233 14.4967 9.92633 14.5077 10.2012C14.5407 10.7182 14.6726 11.2571 14.9476 11.6751C15.0796 11.8731 15.2336 12.0601 15.3986 12.214C15.5746 12.368 15.7725 12.511 16.0035 12.621C16.2345 12.731 16.4985 12.819 16.7844 12.885C17.0704 12.951 17.3894 12.984 17.7084 12.984C18.0273 12.984 18.3353 12.929 18.6433 12.863C18.9512 12.797 19.2372 12.698 19.5782 12.522C19.9192 12.346 20.3151 12.0711 20.6781 11.7631V12.72H20.6671ZM28.4324 3.62383H25.5066V12.72H28.4324V3.62383ZM28.5204 0.126234H25.4076V2.32603H28.5204V0.126234ZM37.0336 3.65683C36.9346 3.64583 36.8466 3.64583 36.7696 3.63483C36.6926 3.63483 36.6486 3.62383 36.5276 3.62383C36.4176 3.62383 36.2306 3.62383 35.9887 3.64583C35.7467 3.67883 35.4387 3.73383 35.1417 3.83283C34.5588 4.01983 33.9319 4.42683 33.3269 4.95473V3.62383H30.4012V12.72H33.3269V6.65963C33.8989 6.50563 34.4818 6.35163 35.0537 6.31863C35.6257 6.28563 36.1976 6.36263 36.7696 6.43963H37.0336V3.65683ZM43.8309 10.2562C43.6549 10.3772 43.457 10.4872 43.248 10.5752C42.808 10.7622 42.3791 10.8282 41.9941 10.7952C41.6311 10.7622 41.2572 10.6742 41.0042 10.4762C40.8832 10.3882 40.7842 10.2892 40.6962 10.1572C40.6082 10.0253 40.5202 9.87133 40.4542 9.67333C40.3883 9.47533 40.3333 9.23334 40.3003 8.95844C40.2673 8.68344 40.2563 8.36443 40.2673 8.06743C40.2783 7.77053 40.3223 7.48453 40.3773 7.23153C40.4322 6.98953 40.5092 6.78064 40.5972 6.60464C40.6852 6.42864 40.7842 6.27463 40.9052 6.14263C41.0152 6.01063 41.1472 5.91164 41.2902 5.82364C41.4332 5.73564 41.6091 5.66973 41.8071 5.61473C42.0161 5.55973 42.2581 5.51573 42.4891 5.50473C42.951 5.49373 43.413 5.58173 43.8309 5.74663V10.2562ZM46.7457 0.126234H43.8199V3.97583C43.369 3.73383 42.874 3.54694 42.4231 3.44794C41.9611 3.34894 41.5321 3.33793 41.1252 3.37093C40.7072 3.41493 40.3003 3.50293 39.9263 3.65683C39.5523 3.81083 39.2004 4.00884 38.8924 4.26184C38.5844 4.51484 38.3094 4.82273 38.0785 5.18573C37.8475 5.54873 37.6495 5.96664 37.5065 6.40664C37.3635 6.85754 37.2755 7.33053 37.2535 7.86953C37.2315 8.40843 37.2755 9.00233 37.3635 9.54133C37.4515 10.0802 37.5945 10.5532 37.7705 10.9492C37.9465 11.3451 38.1665 11.6751 38.4084 11.9391C38.6504 12.203 38.9254 12.423 39.2444 12.588C39.5633 12.753 39.9483 12.874 40.3223 12.94C41.0922 13.083 41.7961 13.028 42.588 12.599C42.984 12.39 43.424 12.1041 43.8309 11.7631V12.709H46.7567V0.126234H46.7457ZM57.8106 10.8722C57.8546 11.3341 57.6896 11.7851 57.2607 12.247C56.8317 12.709 56.1278 13.193 54.9509 13.6769C53.763 14.1609 52.1022 14.6448 49.7484 15.1068C47.3946 15.5687 44.3589 15.9977 40.7952 16.3497C37.2315 16.7016 33.1509 16.9656 28.5753 17.0866C23.9998 17.2076 18.9182 17.1966 15.1786 17.1086C11.4389 17.0206 9.0302 16.8776 6.7204 16.7126C4.4106 16.5476 2.1998 16.3717 0 16.1517L0.7479 16.6356C2.0238 16.8226 3.2997 16.9656 5.6205 17.1856C7.9523 17.3946 11.3289 17.6805 15.4536 17.8565C19.5892 18.0325 24.4727 18.1095 29.3453 18.0435C34.2178 17.9775 39.0684 17.7685 43.413 17.4276C47.7576 17.0866 51.5962 16.6136 54.6209 16.1187C57.6457 15.6237 59.8455 15.1068 61.4733 14.6338C63.0901 14.1609 64.135 13.7209 64.817 13.3139C65.4989 12.907 65.8289 12.511 65.9499 12.1041C66.0709 11.6971 65.9829 11.2681 65.5759 10.8282C65.158 10.3882 64.421 9.92634 63.1121 9.44234C61.8033 8.95844 59.9444 8.44143 57.8986 8.01243C55.8528 7.59453 53.642 7.25353 51.9262 7.04453C50.2103 6.82453 49.0005 6.73663 47.7796 6.69263C48.5275 6.76963 49.2754 6.90153 50.4633 7.17653C51.6512 7.45153 53.2791 7.85853 54.4779 8.26543C55.6878 8.67243 56.4688 9.05733 56.9967 9.49733C57.5027 9.92633 57.7556 10.4102 57.8106 10.8722Z" fill="white"/>
</svg>
