<svg width="116" height="20" viewBox="0 0 116 20" fill="none" xmlns="http://www.w3.org/2000/svg">
<g clip-path="url(#clip0_2216_4397)">
<path d="M37.9243 11.1398H30.078L32.5569 1.63125C32.5909 1.49975 32.5623 1.3582 32.4779 1.25013C32.3951 1.14138 32.2662 1.07886 32.1284 1.07886H30.0186C29.8183 1.07886 29.6425 1.21486 29.5907 1.40817L26.615 12.8267C26.5796 12.9588 26.6097 13.0998 26.6928 13.2072C26.7768 13.316 26.9052 13.3792 27.0423 13.3792H37.571C37.7719 13.3792 37.947 13.2432 37.9982 13.0499L38.3509 11.6942C38.3864 11.5609 38.3581 11.4212 38.2739 11.3124C38.1904 11.2044 38.0608 11.1399 37.9243 11.1399" fill="white"/>
<path d="M49.8928 8.11481H46.0973L47.735 6.04994C48.2052 5.47034 48.6641 4.83323 49.0161 4.32252C49.0939 4.80035 49.1981 5.36288 49.3258 5.88052L49.8928 8.11481ZM51.239 1.40817C51.1878 1.21477 51.0121 1.07886 50.8111 1.07886H48.7007C48.5674 1.07886 48.4409 1.13889 48.3569 1.24442L39.1739 12.6611C39.0671 12.7926 39.0461 12.9752 39.1196 13.1294C39.1929 13.2817 39.3484 13.3791 39.5184 13.3791H41.6787C41.8128 13.3791 41.9404 13.3183 42.0232 13.2135L44.3877 10.2619H50.4408L51.1519 13.0467C51.2011 13.2432 51.3775 13.3791 51.5791 13.3791H53.8159C53.9525 13.3791 54.082 13.3166 54.1661 13.2066C54.2489 13.0998 54.2779 12.9582 54.2431 12.8268L51.239 1.4082" fill="white"/>
<path d="M67.8664 1.07886H55.5744C55.3734 1.07886 55.199 1.21486 55.1471 1.4088L54.7945 2.76518C54.7604 2.89669 54.7891 3.03821 54.8722 3.1463C54.9557 3.25434 55.0846 3.31757 55.2217 3.31757H59.751L57.2721 12.8267C57.2379 12.9588 57.2667 13.0998 57.3504 13.2072C57.4332 13.3165 57.5634 13.3792 57.6993 13.3792H59.8097C60.0113 13.3792 60.1864 13.2432 60.237 13.0499L62.774 3.31766H67.5004C67.7077 3.31766 67.8904 3.18168 67.9422 2.98711L68.3082 1.63136C68.3442 1.49985 68.3154 1.3583 68.2279 1.25021C68.1407 1.14218 68.008 1.07894 67.8664 1.07894" fill="white"/>
<path d="M81.7816 2.987L82.1349 1.63125C82.1704 1.49975 82.1421 1.35883 82.0584 1.25013C81.9737 1.1421 81.8435 1.07886 81.7076 1.07886H69.4307C69.2209 1.07886 69.0401 1.21486 68.9864 1.4088L68.6198 2.76518C68.5851 2.89669 68.6126 3.03821 68.7013 3.14693C68.7879 3.25443 68.9226 3.31749 69.0622 3.31749H73.5725L71.0917 12.8266C71.0589 12.9587 71.0864 13.0997 71.17 13.2071C71.2528 13.3164 71.3818 13.3797 71.5189 13.3797H73.6306C73.8322 13.3797 74.0073 13.2439 74.0572 13.0497L76.5943 3.31749H81.3542C81.5565 3.31749 81.7315 3.18167 81.7815 2.98692" fill="white"/>
<path d="M86.6832 1.25013C86.5984 1.1421 86.4689 1.07886 86.333 1.07886H84.172C83.971 1.07886 83.7947 1.21468 83.7441 1.4088L80.7678 12.8267C80.7343 12.9588 80.7606 13.0998 80.8461 13.2072C80.9296 13.3165 81.0585 13.3792 81.1956 13.3792H83.3579C83.5576 13.3792 83.732 13.2432 83.7845 13.0499L86.7589 1.63133C86.7944 1.49983 86.7643 1.35828 86.6831 1.25021" fill="white"/>
<path d="M97.9315 11.1398H93.2341C91.6805 11.1398 90.6383 10.8105 90.1364 10.1595C89.6719 9.55838 89.6061 8.63938 89.9449 7.35C90.6617 4.5987 92.4282 3.31755 95.5031 3.31755H100.202C100.404 3.31755 100.579 3.18175 100.629 2.98637L100.982 1.63125C101.018 1.49975 100.989 1.3582 100.905 1.25013C100.821 1.14138 100.692 1.07886 100.555 1.07886H95.6814C91.2027 1.07886 87.9401 3.33909 86.9534 7.12758C86.4983 8.86571 86.7031 10.358 87.5425 11.4413C88.5215 12.7092 90.3058 13.3791 92.7051 13.3791H97.5788C97.7804 13.3791 97.9548 13.2431 98.0054 13.0498L98.3581 11.6941C98.3948 11.5608 98.3652 11.4211 98.2816 11.3124C98.1975 11.2043 98.0679 11.1398 97.9314 11.1398" fill="white"/>
<path d="M114.952 1.25013C114.869 1.1421 114.74 1.07886 114.604 1.07886H103.371C103.17 1.07886 102.993 1.21468 102.943 1.4088L99.9662 12.8267C99.9334 12.9588 99.9591 13.0998 100.045 13.2072C100.127 13.3165 100.257 13.3792 100.394 13.3792H111.802C112.004 13.3792 112.178 13.2432 112.229 13.0499L112.582 11.6942C112.617 11.5609 112.587 11.4217 112.505 11.313C112.42 11.205 112.293 11.1398 112.155 11.1398H103.43L104.211 8.1445H112.237C112.438 8.1445 112.615 8.00853 112.666 7.81396L112.994 6.55176C113.027 6.419 113.001 6.2787 112.916 6.17061C112.833 6.06186 112.703 5.99933 112.567 5.99933H104.77L105.469 3.31758H114.251C114.45 3.31758 114.625 3.18159 114.677 2.987L115.031 1.63125C115.063 1.49975 115.038 1.3582 114.952 1.25013" fill="white"/>
<path d="M4.60663 6.35003H9.49109C9.67565 6.35003 9.83745 6.22356 9.88106 6.04477L10.9713 1.64317C11.0016 1.52242 10.9731 1.39605 10.8973 1.29871C10.8221 1.20071 10.7052 1.14447 10.5813 1.14447H5.69622C5.51167 1.14447 5.35049 1.27094 5.30624 1.44973L4.21533 5.85133C4.18631 5.97208 4.21408 6.09909 4.28933 6.19579C4.36637 6.29379 4.48273 6.35003 4.60661 6.35003" fill="#FFC221"/>
<path d="M8.25654 12.6049L9.34619 8.20204C9.37593 8.08254 9.34798 7.95618 9.27219 7.85821C9.19641 7.76146 9.07943 7.70468 8.95554 7.70468H4.07172C3.88716 7.70468 3.72599 7.82972 3.68111 8.00931L2.59146 12.4109C2.56118 12.5317 2.58787 12.6593 2.6642 12.7547C2.74124 12.8527 2.8576 12.9083 2.98085 12.9083H7.86659C8.05114 12.9083 8.21168 12.783 8.25656 12.6049" fill="#FFC221"/>
<path d="M7.33224 14.2635H2.44715C2.26259 14.2635 2.10142 14.3887 2.05781 14.5681L0.96753 18.9697C0.937789 19.091 0.96574 19.2162 1.04027 19.3154C1.11731 19.4127 1.2343 19.4697 1.35755 19.4697H6.24139C6.4272 19.4697 6.58775 19.3439 6.63263 19.1644L7.72226 14.7609C7.752 14.6421 7.72405 14.5157 7.64827 14.4184C7.57248 14.3204 7.45549 14.2636 7.33224 14.2636" fill="#FFC221"/>
<path d="M11.6901 6.35003H16.5752C16.7598 6.35003 16.9203 6.22356 16.9652 6.04477L18.0548 1.64317C18.0851 1.52242 18.0584 1.39605 17.9808 1.29871C17.905 1.20071 17.7887 1.14447 17.6648 1.14447H12.7803C12.5958 1.14447 12.4346 1.27094 12.3904 1.44973L11.3001 5.85133C11.2704 5.97208 11.2983 6.09909 11.3741 6.19579C11.4506 6.29379 11.5669 6.35003 11.6901 6.35003Z" fill="white"/>
<path d="M15.3403 12.6049L16.4306 8.20204C16.4603 8.08254 16.4324 7.95618 16.3561 7.85821C16.2808 7.76146 16.1639 7.70468 16.04 7.70468H11.1556C10.971 7.70468 10.8098 7.82972 10.765 8.00931L9.67531 12.4109C9.64557 12.5317 9.67352 12.6593 9.74859 12.7547C9.82563 12.8527 9.942 12.9083 10.0659 12.9083H14.9503C15.1349 12.9083 15.2961 12.783 15.3403 12.6049" fill="white"/>
<path d="M14.4154 14.2635H9.53155C9.34635 14.2635 9.18518 14.3887 9.14094 14.5681L8.05003 18.9697C8.02029 19.091 8.04824 19.2162 8.12403 19.3154C8.20053 19.4127 8.31681 19.4697 8.44068 19.4697H13.3251C13.511 19.4697 13.6709 19.3439 13.7158 19.1644L14.8054 14.7609C14.8351 14.6421 14.8072 14.5157 14.7314 14.4184C14.6549 14.3204 14.5386 14.2636 14.4154 14.2636" fill="#FFC221"/>
<path d="M25.0657 1.29871C24.9887 1.20071 24.8729 1.14447 24.749 1.14447H19.8652C19.68 1.14447 19.5188 1.27094 19.4752 1.44973L18.3837 5.85133C18.3547 5.97208 18.3819 6.09909 18.4582 6.19579C18.5347 6.29379 18.6504 6.35003 18.7736 6.35003H23.6574C23.8433 6.35003 24.0038 6.22356 24.0481 6.04477L25.1396 1.64317C25.1693 1.52242 25.1414 1.39605 25.0656 1.29871" fill="white"/>
<path d="M23.1236 7.70471H18.2391C18.054 7.70471 17.8934 7.82974 17.8492 8.00934L16.7583 12.4109C16.7292 12.5317 16.7547 12.6593 16.8323 12.7547C16.908 12.852 17.025 12.9083 17.1483 12.9083H22.0334C22.2179 12.9083 22.3791 12.7831 22.424 12.6049L23.5136 8.20207C23.5434 8.08257 23.5172 7.9562 23.4403 7.85821C23.3633 7.76093 23.2476 7.70468 23.1237 7.70468" fill="white"/>
<path d="M21.4991 14.2635H16.6153C16.4301 14.2635 16.2689 14.3887 16.2253 14.5681L15.1344 18.9697C15.1054 19.091 15.1308 19.2162 15.2077 19.3154C15.2847 19.4127 15.4005 19.4697 15.5237 19.4697H20.4094C20.5934 19.4697 20.7545 19.3439 20.7994 19.1644L21.889 14.7609C21.9181 14.6421 21.8926 14.5157 21.8151 14.4184C21.7385 14.3204 21.6229 14.2636 21.499 14.2636" fill="#FFC221"/>
<path d="M29.8229 15.7746H27.8389C26.7853 15.7746 26.1052 16.1545 25.9257 16.8428C25.853 17.124 25.8859 17.3579 26.0255 17.538C26.2227 17.7928 26.6215 17.923 27.2106 17.923H28.1637C28.4437 17.923 28.6119 17.966 28.6801 18.0537C28.7294 18.1188 28.7357 18.2206 28.6991 18.3603C28.5929 18.7692 28.1536 18.8558 27.8048 18.8558H25.5819C25.5351 18.8558 25.4921 18.8873 25.4808 18.9329L25.3721 19.35C25.3649 19.381 25.3714 19.4132 25.391 19.4392C25.4113 19.4645 25.4423 19.481 25.4738 19.481H27.667C28.6903 19.481 29.3799 19.0866 29.5587 18.4008C29.6358 18.1088 29.601 17.868 29.457 17.6821C29.2579 17.4249 28.8565 17.2916 28.2662 17.2916H27.3206C27.0343 17.2916 26.8624 17.2493 26.7948 17.1613C26.7493 17.1045 26.743 17.014 26.7769 16.8889C26.8654 16.5469 27.1327 16.3997 27.6687 16.3997H29.7159C29.7627 16.3997 29.8044 16.3687 29.8157 16.3207L29.9237 15.9061C29.9327 15.8745 29.9255 15.8416 29.9054 15.8163C29.8859 15.7916 29.8555 15.7746 29.8227 15.7746" fill="#FFC221"/>
<path d="M36.67 15.7744H33.2317C33.1836 15.7744 33.1426 15.8071 33.1304 15.8539L32.2184 19.3498C32.2112 19.3808 32.2177 19.413 32.2374 19.439C32.2569 19.4643 32.2879 19.4807 32.3196 19.4807H35.813C35.8604 19.4807 35.9007 19.4465 35.9135 19.4023L36.0215 18.987C36.0305 18.9542 36.0233 18.9232 36.0032 18.8953C35.9837 18.8693 35.9532 18.8555 35.921 18.8555H33.2101L33.4648 17.8771H35.9463C35.9937 17.8771 36.0353 17.8456 36.0473 17.7981L36.1478 17.4132C36.1568 17.3822 36.1484 17.3462 36.1296 17.3214C36.11 17.2962 36.079 17.2822 36.0461 17.2822H33.6203L33.8503 16.3992H36.5618C36.6091 16.3992 36.6503 16.3682 36.6623 16.3202L36.7704 15.9056C36.7793 15.8741 36.7722 15.8411 36.7521 15.8159C36.7326 15.7911 36.7021 15.7741 36.6699 15.7741" fill="#FFC221"/>
<path d="M44.5464 15.7747H43.6685C43.6363 15.7747 43.6053 15.7926 43.585 15.8177L41.8791 18.1139C41.7629 18.2695 41.6219 18.4729 41.5189 18.6272C41.4923 18.4786 41.4588 18.2979 41.4266 18.1519L40.8792 15.8557C40.8667 15.8101 40.8255 15.7747 40.7768 15.7747H39.8995C39.852 15.7747 39.811 15.8074 39.799 15.8542L38.8869 19.3501C38.8798 19.3811 38.8869 19.4133 38.9065 19.4393C38.926 19.4646 38.957 19.481 38.9887 19.481H39.5973C39.6441 19.481 39.6864 19.4468 39.6991 19.4026L40.2256 17.3781C40.2534 17.2726 40.2824 17.1481 40.3103 17.0261C40.3293 17.1341 40.3508 17.2397 40.3723 17.3326L40.871 19.4007C40.8835 19.4462 40.9253 19.4809 40.9728 19.4809H41.6194C41.6529 19.4809 41.6832 19.463 41.7029 19.4392L43.2722 17.3699C43.3385 17.2846 43.4107 17.1847 43.4814 17.081C43.458 17.1675 43.434 17.2518 43.4144 17.3269L42.8873 19.3501C42.8784 19.3811 42.886 19.4133 42.9063 19.4393C42.9258 19.4646 42.9563 19.481 42.9885 19.481H43.6351C43.6831 19.481 43.7243 19.4468 43.7363 19.4026L44.6471 15.9061C44.6561 15.8746 44.6489 15.8416 44.6292 15.8163C44.609 15.7916 44.578 15.7746 44.5464 15.7746" fill="#FFC221"/>
<path d="M48.6769 15.7747H48.0158C47.9671 15.7747 47.926 15.8074 47.914 15.8542L47.0033 19.3501C46.9943 19.3811 47.0015 19.4133 47.0215 19.4393C47.0411 19.4646 47.072 19.481 47.1038 19.481H47.7661C47.8149 19.481 47.8546 19.4468 47.8672 19.4026L48.778 15.9061C48.7869 15.8746 48.7799 15.8416 48.7597 15.8163C48.7401 15.7916 48.7091 15.7746 48.6769 15.7746" fill="#FFC221"/>
<path d="M55.4928 15.7747H54C52.6436 15.7747 51.6563 16.4605 51.3586 17.6058C51.2221 18.1272 51.2821 18.5741 51.5331 18.8996C51.8264 19.2782 52.3655 19.481 53.0886 19.481H54.5815C54.6295 19.481 54.6705 19.4468 54.6825 19.4026L54.7906 18.9873C54.7995 18.9545 54.792 18.9235 54.7723 18.8956C54.7533 18.8696 54.7223 18.8558 54.6888 18.8558H53.2502C52.7655 18.8558 52.4387 18.7503 52.2781 18.5423C52.1303 18.3502 52.1081 18.0626 52.2149 17.6568C52.438 16.8004 52.9873 16.3997 53.9461 16.3997H55.384C55.432 16.3997 55.4725 16.3687 55.4845 16.3207L55.5932 15.9061C55.6022 15.8745 55.5952 15.8416 55.5742 15.8163C55.5552 15.7916 55.525 15.7746 55.4927 15.7746" fill="#FFC221"/>
<path d="M59.7817 18.9122C59.1965 18.9122 58.8469 18.8124 58.6801 18.5955C58.5308 18.404 58.5133 18.1031 58.6238 17.6809C58.9102 16.5793 59.5789 16.3549 60.4947 16.3549C61.0718 16.3549 61.4181 16.4541 61.5843 16.6703C61.7341 16.8643 61.7519 17.1791 61.6356 17.6266C61.3979 18.5399 60.8607 18.9122 59.7818 18.9122H59.7817ZM60.611 15.731C59.0644 15.731 58.0765 16.3821 57.7548 17.6146C57.6087 18.172 57.66 18.6157 57.9078 18.9362C58.2099 19.3274 58.8028 19.5259 59.6699 19.5259C61.2323 19.5259 62.1893 18.9001 62.5116 17.6689C62.6601 17.1007 62.6059 16.6488 62.3536 16.3239C62.0502 15.9295 61.4643 15.731 60.611 15.731" fill="#FFC221"/>
<path d="M69.7533 15.7744H69.1472C69.0985 15.7744 69.0562 15.8071 69.0435 15.8539L68.3697 18.4421C68.3304 18.3612 68.2837 18.2696 68.2377 18.1874L66.8592 15.8286C66.8409 15.7946 66.8074 15.7744 66.7707 15.7744H66.0299C65.9837 15.7744 65.9414 15.8071 65.9287 15.8539L65.0185 19.3497C65.0096 19.3807 65.0181 19.413 65.0368 19.439C65.0571 19.4642 65.0873 19.4807 65.1196 19.4807H65.7263C65.7751 19.4807 65.8174 19.4465 65.8294 19.4022L66.5101 16.79C66.5531 16.876 66.6049 16.9764 66.6649 17.0801L68.0358 19.4275C68.0548 19.4585 68.0895 19.4806 68.1275 19.4806H68.843C68.8892 19.4806 68.9315 19.4463 68.9435 19.4021L69.8536 15.9056C69.8626 15.8741 69.8556 15.8411 69.8354 15.8159C69.8164 15.7911 69.7861 15.7741 69.7531 15.7741" fill="#FFC221"/>
<path d="M74.1362 18.856H73.1647L73.8031 16.3999H74.8295C75.3939 16.3999 75.7264 16.4916 75.8768 16.6836C76.0171 16.8644 76.0253 17.1678 75.9033 17.6317C75.6657 18.5476 75.2194 18.856 74.1361 18.856H74.1362ZM75.0299 15.7748H73.1843C73.1368 15.7748 73.0958 15.8076 73.0838 15.8543L72.173 19.3502C72.164 19.3812 72.1692 19.4134 72.192 19.4392C72.211 19.4645 72.2425 19.4802 72.2735 19.4802H74.1122C75.5678 19.4802 76.4691 18.8627 76.7864 17.6448C76.9342 17.0791 76.8856 16.6323 76.6448 16.3194C76.361 15.9534 75.8333 15.7746 75.0299 15.7746" fill="#FFC221"/>
<path d="M84.0908 15.7744H83.4455C83.3967 15.7744 83.3552 15.8071 83.345 15.8539L82.7951 17.9612C82.5991 18.7082 82.2831 18.9118 81.3281 18.9118C80.8073 18.9118 80.5235 18.8448 80.4066 18.6943C80.3098 18.5705 80.3073 18.36 80.3958 18.0149L80.9451 15.9057C80.9558 15.8742 80.9471 15.8413 80.9268 15.816C80.9078 15.7913 80.8775 15.7742 80.8453 15.7742H80.1981C80.1513 15.7742 80.1095 15.807 80.097 15.8538L79.5339 18.0198C79.4221 18.4471 79.4618 18.7884 79.6514 19.0343C79.9074 19.3642 80.42 19.5254 81.2227 19.5254C82.5854 19.5254 83.3723 19.0488 83.627 18.071L84.1933 15.9056C84.2005 15.8741 84.1933 15.8411 84.175 15.8159C84.153 15.7911 84.125 15.7741 84.0903 15.7741" fill="#FFC221"/>
<path d="M90.7298 15.7747H89.2382C87.8818 15.7747 86.8939 16.4605 86.5956 17.6058C86.4591 18.1272 86.5203 18.5741 86.7701 18.8996C87.0652 19.2782 87.6031 19.481 88.3256 19.481H89.8166C89.8658 19.481 89.9076 19.4468 89.9196 19.4026L90.0264 18.9873C90.0371 18.9545 90.0301 18.9235 90.0084 18.8956C89.9889 18.8696 89.9585 18.8558 89.9257 18.8558H88.4884C88.0023 18.8558 87.675 18.7503 87.5169 18.5423C87.3652 18.3502 87.3457 18.0626 87.4506 17.6568C87.675 16.8004 88.2249 16.3997 89.1831 16.3997H90.6204C90.6691 16.3997 90.7108 16.3687 90.7234 16.3207L90.8302 15.9061C90.8391 15.8745 90.8316 15.8416 90.8119 15.8163C90.7923 15.7916 90.7619 15.7746 90.7296 15.7746" fill="#FFC221"/>
<path d="M97.1849 15.7748H93.4142C93.3674 15.7748 93.3257 15.8075 93.3137 15.8543L93.2069 16.2689C93.1961 16.2999 93.2031 16.3327 93.2251 16.3607C93.2434 16.3866 93.2744 16.3999 93.3074 16.3999H94.7314L93.9634 19.3503C93.9545 19.3813 93.962 19.4135 93.9817 19.4395C94.0012 19.4648 94.0317 19.4813 94.0657 19.4813H94.7117C94.7604 19.4813 94.7995 19.447 94.8122 19.4028L95.5953 16.3999H97.0756C97.1243 16.3999 97.1634 16.369 97.1761 16.3209L97.2854 15.9063C97.2925 15.8748 97.2868 15.8418 97.2671 15.8166C97.2468 15.7918 97.2158 15.7748 97.1848 15.7748" fill="#FFC221"/>
<path d="M101.403 18.9122C100.82 18.9122 100.468 18.8124 100.301 18.5955C100.152 18.404 100.135 18.1031 100.245 17.6809C100.532 16.5793 101.202 16.3549 102.119 16.3549C102.694 16.3549 103.041 16.4541 103.207 16.6703C103.359 16.8643 103.376 17.1791 103.258 17.6266C103.019 18.5399 102.484 18.9122 101.403 18.9122H101.403ZM102.233 15.731C100.686 15.731 99.6991 16.3821 99.3768 17.6146C99.2307 18.172 99.2845 18.6157 99.5316 18.9362C99.8337 19.3274 100.425 19.5259 101.291 19.5259C102.855 19.5259 103.811 18.9001 104.132 17.6689C104.281 17.1007 104.229 16.6488 103.977 16.3239C103.673 15.9295 103.086 15.731 102.233 15.731" fill="#FFC221"/>
<path d="M108.272 16.3999H109.536C110.015 16.3999 110.279 16.4554 110.374 16.5774C110.409 16.6222 110.451 16.7134 110.389 16.9446C110.268 17.4098 110.01 17.5375 109.185 17.5375H107.974L108.272 16.3999ZM111.164 16.2077C110.939 15.917 110.472 15.7748 109.738 15.7748H107.653C107.605 15.7748 107.565 15.807 107.553 15.8543L106.64 19.3502C106.632 19.3812 106.64 19.4134 106.658 19.4392C106.68 19.4645 106.708 19.4802 106.743 19.4802H107.388C107.437 19.4802 107.478 19.446 107.49 19.4018L107.813 18.1624H108.701C109.056 18.1624 109.121 18.2206 109.302 18.5232L109.835 19.4271C109.855 19.4611 109.889 19.4801 109.926 19.4801H110.656C110.658 19.4801 110.661 19.4801 110.661 19.4801C110.719 19.4801 110.766 19.4326 110.766 19.3751C110.766 19.3441 110.753 19.3151 110.733 19.2966L110.181 18.3676C110.111 18.245 110.05 18.1514 109.98 18.0749C110.694 17.9144 111.118 17.5497 111.269 16.9688C111.35 16.6585 111.314 16.4044 111.164 16.2072" fill="#FFC221"/>
<path d="M112.339 18.4531H111.528C111.504 18.4531 111.485 18.4714 111.485 18.4954V18.6084C111.485 18.6138 111.486 18.621 111.489 18.6228C111.495 18.6407 111.51 18.6518 111.528 18.6518H111.82V19.4481C111.82 19.4517 111.821 19.4571 111.824 19.4625C111.829 19.4807 111.844 19.4935 111.863 19.4935H112.004C112.026 19.4935 112.044 19.4745 112.044 19.4505V18.6516H112.339C112.363 18.6516 112.382 18.6333 112.382 18.6093V18.4975C112.382 18.4957 112.382 18.4921 112.382 18.4903C112.378 18.4701 112.361 18.4523 112.339 18.4523" fill="#FFC221"/>
<path d="M113.557 18.4532H113.367C113.349 18.4532 113.335 18.464 113.329 18.4792L113.089 19.105C113.08 19.1309 113.069 19.1612 113.058 19.1897C113.049 19.1607 113.039 19.1309 113.029 19.105L112.783 18.4792C112.778 18.4631 112.761 18.4532 112.743 18.4532H112.555C112.531 18.4532 112.513 18.474 112.513 18.4981V19.4512C112.513 19.4752 112.531 19.4942 112.555 19.4942H112.685C112.699 19.4942 112.712 19.487 112.718 19.4739C112.725 19.4686 112.729 19.4578 112.729 19.4487V18.9241L112.945 19.4683C112.952 19.4826 112.966 19.4943 112.983 19.4943H113.121C113.139 19.4943 113.155 19.4817 113.162 19.4683L113.375 18.9235V19.4512C113.375 19.4752 113.393 19.4942 113.416 19.4942H113.556C113.568 19.4942 113.579 19.487 113.589 19.4759C113.596 19.4688 113.598 19.458 113.598 19.4487V18.4956C113.598 18.4716 113.579 18.4533 113.558 18.4533" fill="#FFC221"/>
</g>
<defs>
<clipPath id="clip0_2216_4397">
<rect width="115.037" height="19.395" fill="white" transform="translate(0.481506 0.60498)"/>
</clipPath>
</defs>
</svg>
