<svg width="88" height="88" viewBox="0 0 88 88" fill="none" xmlns="http://www.w3.org/2000/svg">
<g clip-path="url(#clip0_2394_4479)">
<path d="M0.597961 0.588867V87.4136H87.4232L87.4227 0.588867H0.597961Z" fill="white"/>
<path fill-rule="evenodd" clip-rule="evenodd" d="M0.597961 87.4136V0.588867H87.4222L87.4227 87.4136H0.597961ZM79.8816 45.0059C80.6418 42.7541 81.5027 39.3837 81.6445 36.6786C81.7525 34.638 81.4778 31.78 79.553 29.7491C78.0174 28.1265 75.6712 27.3076 72.5795 27.3076C68.6738 27.3076 65.5268 28.6863 63.2241 31.4128L62.6164 32.1295L62.2126 31.2818C61.8831 30.591 61.6475 30.3079 61.2886 29.9031C59.7149 28.1226 57.0759 27.2201 53.4449 27.2206C50.1185 27.2206 47.1138 28.2174 44.9832 30.0278L44.444 30.4859L44.0724 29.8811C43.0663 28.2458 40.5583 27.1874 37.6851 27.1874C33.551 27.1883 29.3798 27.7496 26.8635 31.8059L25.8207 33.4798L25.7391 31.5082C25.6755 29.9828 25.5362 29.3492 24.8268 28.5983C24.0465 27.7706 22.7334 27.3682 20.813 27.3697C17.9931 27.3697 15.8738 28.5993 14.3323 31.1312C11.9597 34.9211 6.22507 47.3868 6.35169 53.3116C6.43481 57.1567 9.00049 59.5102 13.2172 59.6075C16.6922 59.6916 19.4544 58.7999 21.209 57.0291L21.6569 56.5764L22.0871 57.0418C23.6642 58.7539 26.0617 59.6975 28.8391 59.6975C32.3757 59.6975 35.4 58.5985 37.137 56.6806L37.6113 56.1579L38.0571 56.706C39.6832 58.7036 42.1961 59.7508 45.3235 59.7381C49.4023 59.72 53.2117 57.8456 55.774 54.5989L56.4457 53.7477L56.8207 54.7661C58.3998 59.06 62.6795 59.6999 65.0932 59.7014C73.2894 59.7014 76.8289 54.0777 79.8816 45.0059Z" fill="#FFED00"/>
<path fill-rule="evenodd" clip-rule="evenodd" d="M0.597961 87.4136V0.588867H87.4222L87.4227 87.4136H0.597961ZM80.4252 51.3619C81.5599 49.0231 83.6949 43.1696 84.0894 40.009L84.0938 39.9742C84.5749 36.1159 85.03 32.4649 82.4267 28.8369C80.5758 26.2585 77.422 24.5283 72.6235 24.5278C68.9964 24.5278 65.7571 25.5105 63.1669 27.6645C60.9489 25.4694 57.7677 24.473 53.486 24.474C50.1356 24.474 47.3235 25.2401 44.8747 26.7102C43.0971 25.2978 41.0105 24.4154 37.6861 24.4154C34.6725 24.4149 30.4417 24.5718 27.2497 27.2817C26.512 25.7764 25.0121 24.5943 20.8746 24.5943C17.0633 24.5943 13.9539 26.3973 11.9148 29.7447C9.19214 34.0934 3.41298 46.6515 3.56063 53.5116C3.67063 58.6757 7.54312 62.2334 13.1526 62.3668C16.5235 62.4455 19.3943 61.7239 21.585 60.27C23.566 61.6975 26.0974 62.4685 28.9105 62.4685C32.277 62.469 35.314 61.5851 37.5658 59.9982C39.6059 61.6154 42.2826 62.4895 45.3108 62.4895C49.2395 62.491 52.89 61.1343 55.839 58.5535C57.8503 61.1182 61.296 62.4514 65.4804 62.4519C73.3138 62.4524 77.3828 57.6344 80.4252 51.3619Z" fill="#E3000B"/>
<path fill-rule="evenodd" clip-rule="evenodd" d="M0 88V0H88L87.9985 87.9985L0 88ZM86.7876 86.788L86.7885 1.21147H1.21049L1.21244 86.7876L86.7876 86.788Z" fill="black"/>
<path fill-rule="evenodd" clip-rule="evenodd" d="M81.9451 26.5471C81.9446 26.2702 81.9987 25.9959 82.1044 25.74C82.2101 25.4841 82.3652 25.2515 82.5609 25.0556C82.7566 24.8597 82.989 24.7044 83.2448 24.5985C83.5007 24.4926 83.7749 24.4382 84.0517 24.4385C84.3288 24.438 84.6033 24.4921 84.8594 24.5979C85.1155 24.7037 85.3483 24.859 85.5442 25.0549C85.7402 25.2508 85.8956 25.4834 86.0015 25.7395C86.1074 25.9955 86.1617 26.27 86.1613 26.5471C86.1618 26.8242 86.1076 27.0986 86.0017 27.3547C85.8959 27.6108 85.7405 27.8435 85.5445 28.0394C85.3485 28.2352 85.1157 28.3905 84.8595 28.4962C84.6034 28.6018 84.3289 28.6559 84.0517 28.6551C83.7748 28.6556 83.5006 28.6014 83.2447 28.4956C82.9888 28.3898 82.7563 28.2345 82.5606 28.0386C82.3649 27.8428 82.2098 27.6102 82.1041 27.3542C81.9985 27.0983 81.9445 26.824 81.9451 26.5471ZM84.0527 24.857C84.9904 24.8575 85.7526 25.6123 85.7501 26.55C85.7526 27.4877 84.9875 28.245 84.0527 28.245C83.8305 28.2446 83.6106 28.2005 83.4055 28.1152C83.2004 28.0298 83.0141 27.9048 82.8573 27.7474C82.7005 27.59 82.5763 27.4032 82.4918 27.1977C82.4072 26.9923 82.364 26.7722 82.3646 26.55C82.3636 26.3278 82.4066 26.1076 82.491 25.9021C82.5755 25.6966 82.6997 25.5098 82.8566 25.3524C83.0135 25.1951 83.1999 25.0703 83.4052 24.9853C83.6105 24.9003 83.8305 24.8566 84.0527 24.857ZM84.8736 27.2085L85.1253 27.6485L84.5793 27.6519L84.4047 27.2951C84.327 27.1388 84.2266 26.9948 84.107 26.8678C84.0209 26.7783 83.9422 26.7558 83.7481 26.7558L83.668 26.7563L83.667 27.651H83.2167V25.4671H84.3045C84.7733 25.4671 84.9934 25.7287 84.9934 26.0748C84.9943 26.4048 84.7714 26.6419 84.4028 26.6859L84.4037 26.6981C84.591 26.7631 84.6531 26.8243 84.8736 27.2085ZM83.6665 25.8064V26.4063H84.1226C84.4277 26.4063 84.5284 26.2576 84.524 26.1031C84.524 25.9105 84.371 25.8049 84.0737 25.8049L83.6665 25.8064ZM62.7567 31.0199C64.8824 28.5021 68.0279 26.6986 72.5765 26.6986C80.4501 26.6986 82.5098 31.8466 82.2517 36.7111C82.0986 39.6346 81.1605 43.1175 80.4594 45.2006C77.3452 54.4558 73.6052 60.3083 65.0936 60.3073C61.2094 60.3083 57.6547 58.7927 56.254 54.9745C53.6957 58.2119 49.7855 60.3249 45.3273 60.3469C41.9198 60.3635 39.27 59.1594 37.5858 57.0909C35.5862 59.2977 32.2026 60.3083 28.8396 60.3092C25.8182 60.3073 23.2956 59.2547 21.6397 57.4566C19.7946 59.3173 16.8955 60.3048 13.2029 60.2183C8.47295 60.1049 5.8305 57.2669 5.74348 53.3274C5.61344 47.229 11.4214 34.6391 13.8155 30.8165C15.468 28.1047 17.7633 26.7734 20.8115 26.7719C22.485 26.7734 24.2034 27.0643 25.2658 28.1897C26.1394 29.1137 26.2797 29.9351 26.3443 31.4897C29.0234 27.1728 33.5388 26.5862 37.6816 26.5871C40.8516 26.5871 43.4828 27.7737 44.5867 29.5674C46.7114 27.7615 49.7713 26.6155 53.4419 26.6155C57.199 26.616 59.9979 27.5327 61.7403 29.5039C62.1246 29.9365 62.3979 30.267 62.7567 31.0199ZM21.3107 52.2695C21.4505 50.795 20.3461 49.2027 15.9397 49.9673C16.3773 48.9871 17.028 47.6436 17.7667 46.1183C20.1339 41.2303 23.4051 34.4759 23.4667 31.8334C23.4999 30.5305 22.9749 29.4442 20.8619 29.4452C18.6296 29.4442 17.2294 30.378 16.0825 32.2622C13.595 36.2344 8.31259 48.2171 8.42357 53.3963C8.48615 56.3571 10.7815 57.5255 13.332 57.5851C16.8471 57.6668 20.8961 56.6797 21.3112 52.269L21.3107 52.2695ZM30.2818 45.8992C29.9885 46.6883 29.437 48.3407 28.9916 50.0895C30.4377 49.7287 31.5206 49.4789 33.3769 49.5219C35.4933 49.5737 36.8476 50.4498 36.8466 52.201C36.8466 56.4416 32.1567 57.6873 28.907 57.6883C25.3352 57.6883 22.1975 55.657 22.1975 51.7512C22.1975 47.1723 24.6791 40.2291 27.0082 35.6067C29.8672 29.9277 32.7903 29.1734 37.8224 29.1734C40.0351 29.1734 42.5822 30.1179 42.5822 32.2064C42.5822 35.1016 40.1339 36.2055 37.7017 36.3454C36.6618 36.405 35.0646 36.4622 34.1093 36.3938C34.1093 36.3938 33.2973 37.6282 32.4393 39.8233C36.9409 39.1897 38.8515 40.212 38.0918 42.8153C37.0632 46.3348 34.0135 46.5671 30.2813 45.8987L30.2818 45.8992ZM49.8197 36.5546C50.4137 35.722 51.2082 34.9511 52.427 34.9511C53.9205 34.9511 53.7758 35.7411 53.4214 36.7507C52.4148 39.6253 55.4547 39.7011 56.1968 39.6424C58.8505 39.4356 60.3128 37.7211 60.6726 34.8005C61.1654 30.8239 57.815 29.2971 53.5681 29.2971C46.4889 29.2971 43.7101 33.6267 41.0593 39.816C39.8141 42.7234 38.2458 47.692 38.2463 50.8561C38.2458 55.3001 40.9498 57.7098 45.3078 57.7098C51.6717 57.7098 56.1685 52.6351 57.4533 46.3123C57.8488 44.3666 58.3362 40.7151 53.3935 40.9184C50.8845 41.0221 49.3709 41.5755 48.5731 44.1392C47.7517 46.7802 50.7305 46.8521 50.7305 46.8521C50.1312 49.5825 48.3765 51.2379 46.8131 51.2394C45.8373 51.2394 44.9494 50.816 45.2467 48.7509C45.6881 45.7315 48.5159 38.3875 49.8197 36.5546ZM79.1614 40.1758C78.4105 43.9011 76.7287 48.3109 74.9012 51.5967C71.919 56.9569 68.3017 57.7079 65.1391 57.6678C61.9784 57.6301 58.4149 56.4646 58.388 51.5865C58.3689 48.086 59.8781 43.1424 61.1605 39.9055C63.3972 34.0339 65.6783 29.2452 72.8987 29.3308C81.3164 29.4291 79.815 36.9164 79.1614 40.1758ZM68.6024 49.7272C69.7728 47.7448 73.0674 38.7527 73.1573 36.5043C73.1837 35.8491 73.0757 35.0865 72.0197 35.0743C71.2957 35.064 70.666 35.2043 70.0998 36.0789C68.8277 37.7323 65.1039 47.9027 65.167 49.9316C65.1899 50.661 65.5972 51.298 66.4928 51.298C67.5244 51.299 68.0959 50.5891 68.6024 49.7272Z" fill="black"/>
</g>
<defs>
<clipPath id="clip0_2394_4479">
<rect width="88" height="88" fill="white"/>
</clipPath>
</defs>
</svg>
