<svg width="197" height="41" viewBox="0 0 197 41" fill="none" xmlns="http://www.w3.org/2000/svg">
<path d="M82.5688 8.71875C79.0116 8.71875 74.966 10.3677 72.4942 13.6691L72.4959 13.6624L72.4942 13.6641L72.4959 9.2372H64.0117V40.1333H72.4942V22.5529C72.4942 19.3887 74.9476 16.0255 79.4899 16.0255C83.0003 16.0255 86.6328 18.4672 86.6328 22.5529V40.1333H95.1169V20.9809C95.1169 13.8748 90.0328 8.71875 82.5688 8.71875Z" fill="#E60012"/>
<path d="M155.415 9.24023L147.746 30.2859L140.076 9.24023H130.384L143.096 40.1263H152.393L165.105 9.24023H155.415Z" fill="#E60012"/>
<path d="M38.6839 18.5475C40.1288 16.6075 42.4301 15.4686 45.2096 15.4686C48.2668 15.4686 50.5864 17.2146 51.7855 19.7918L36.9629 25.9413C36.5582 22.7854 37.366 20.3169 38.6839 18.5475ZM54.9832 30.6357C51.4126 33.2781 49.3722 33.9086 46.1161 33.9086C43.186 33.9086 40.8914 32.9988 39.2742 31.4034L60.9637 22.4058C60.4904 19.0526 59.2177 16.0573 57.2593 13.7795C54.4096 10.4698 50.1917 8.71875 45.0558 8.71875C35.727 8.71875 28.6929 15.6007 28.6929 24.6903C28.6929 34.0157 35.7438 40.6602 45.9906 40.6602C51.732 40.6602 57.6022 37.9391 60.3483 34.7599L54.9832 30.6357Z" fill="#E60012"/>
<path d="M27.8839 32.3461H8.60101V0H0.00146484V40.1362H27.8839V32.3461Z" fill="#E60012"/>
<path d="M180.339 15.9887C175.601 15.9887 172.16 19.5794 172.16 24.6869C172.16 29.5637 175.805 33.3852 180.452 33.3852C185.192 33.3852 188.63 29.6958 188.63 24.6869C188.63 19.8102 184.988 15.9887 180.339 15.9887ZM180.339 40.6551C171.06 40.6551 163.79 33.7431 163.79 24.6869C163.79 15.7328 171.11 8.71875 180.452 8.71875C189.731 8.71875 196.999 15.6308 196.999 24.6869C196.999 33.6394 189.681 40.6551 180.339 40.6551Z" fill="#E60012"/>
<path d="M115.02 15.9887C110.282 15.9887 106.844 19.5794 106.844 24.6869C106.844 29.5637 110.486 33.3852 115.135 33.3852C119.873 33.3852 123.312 29.6958 123.312 24.6869C123.312 19.8102 119.669 15.9887 115.02 15.9887ZM115.02 40.6551C105.741 40.6551 98.4731 33.7431 98.4731 24.6869C98.4731 15.7328 105.792 8.71875 115.135 8.71875C124.412 8.71875 131.682 15.6308 131.682 24.6869C131.682 33.6394 124.362 40.6551 115.02 40.6551Z" fill="#E60012"/>
</svg>
