<svg width="108" height="50" viewBox="0 0 108 50" fill="none" xmlns="http://www.w3.org/2000/svg">
<path d="M94.2768 28.1615H99.8696V33.364C98.8432 33.7554 96.8287 34.147 94.9189 34.147C88.7326 34.147 86.6754 31.0067 86.6754 24.6296C86.6754 18.5437 88.634 14.9622 94.8143 14.9622C98.2586 14.9622 100.213 16.0429 101.832 18.1037L106.106 14.1778C103.496 10.4568 98.9419 9.3291 94.6656 9.3291C85.0513 9.32528 79.996 14.5694 79.996 24.5789C79.996 34.5386 84.5638 39.9377 94.6141 39.9377C99.2291 39.9377 103.74 38.7631 106.196 37.0415V22.6167H94.277L94.2768 28.1615ZM64.9404 33.7062H79.1732V39.4961H58.0718V9.76546H64.9409L64.9404 33.7062Z" fill="white"/>
<path d="M41.0472 41.0093C50.0258 32.0307 50.0253 17.4725 41.0463 8.4959C32.0674 -0.48232 17.5095 -0.483401 8.53294 8.49502C-0.445642 17.4734 -0.445101 32.0318 8.53382 41.0084C17.5126 49.9874 32.0706 49.9876 41.0472 41.0093Z" fill="#A50034"/>
<path d="M17.8148 20.2679C18.339 20.2654 18.8507 20.1075 19.2854 19.8143C19.72 19.5213 20.0581 19.106 20.2569 18.621C20.4558 18.1359 20.5065 17.6027 20.4027 17.0889C20.2987 16.575 20.045 16.1035 19.6734 15.7337C19.3018 15.3639 18.8289 15.1124 18.3146 15.0111C17.8003 14.9098 17.2674 14.9631 16.7834 15.1643C16.2992 15.3655 15.8856 15.7056 15.5946 16.1417C15.3036 16.5778 15.1484 17.0902 15.1484 17.6144C15.1492 17.9637 15.2188 18.3095 15.3533 18.6318C15.4879 18.9543 15.6844 19.2471 15.932 19.4934C16.1797 19.7398 16.4734 19.935 16.7964 20.0679C17.1195 20.2009 17.4655 20.2687 17.8148 20.2679ZM42.1328 25.4807H30.4409V23.7488H43.8464C43.8646 24.0842 43.8738 24.4195 43.8738 24.759C43.8738 35.1874 35.3745 43.641 24.8928 43.641C14.4107 43.641 5.90997 35.1927 5.90997 24.759C5.90997 14.3262 14.408 5.87695 24.891 5.87695C25.1677 5.87695 25.443 5.88255 25.7171 5.89389V7.61282C25.443 7.60059 25.1686 7.59456 24.8935 7.59456C15.3659 7.59456 7.63939 15.2795 7.63939 24.7572C7.63939 34.2351 15.3648 41.9215 24.8935 41.9215C34.1602 41.9215 41.7307 34.6504 42.1314 25.5289L42.1328 25.4807ZM30.4142 32.696H25.7155V15.0428H23.9783V34.4396H25.7195V34.428H30.4182L30.4142 32.696Z" fill="white"/>
</svg>
