<svg width="173" height="52" viewBox="0 0 173 52" fill="none" xmlns="http://www.w3.org/2000/svg">
<g clip-path="url(#clip0_2394_4495)">
<path d="M28.7932 7.11135L12.8243 43.8768H38.6065C42.9281 43.8768 44.2913 52 44.2913 52H0L22.1457 0H38.9157L37.2292 4.81351C36.7478 6.1873 35.4478 7.11135 33.9897 7.11135H28.7897H28.7932Z" fill="white"/>
<path d="M20.4978 42.826H15.1396L16.8156 38.9893H21.9945L20.4978 42.826Z" fill="#0091D1"/>
<path d="M26.4356 42.826H21.0811L22.757 38.9893H27.9359L26.4356 42.826Z" fill="#0091D1"/>
<path d="M32.4543 42.826H27.0962L28.7721 38.9893H33.9511L32.4543 42.826Z" fill="#0091D1"/>
<path d="M28.7933 7.11135H33.9933C35.4514 7.11135 36.7479 6.19081 37.2328 4.81351L38.9193 0H22.1493L19.1206 7.11135H28.7933Z" fill="#0091D1"/>
<path d="M66.0366 5.20996H69.3639V16.8819H76.5771V19.5943H66.0366V5.20996Z" fill="white"/>
<path d="M77.8315 5.21025C77.8315 4.20188 78.6326 3.42188 79.8236 3.42188C81.0147 3.42188 81.8158 4.16323 81.8158 5.14701C81.8158 6.21512 81.0147 6.99512 79.8236 6.99512C78.6326 6.99512 77.8315 6.21512 77.8315 5.20674V5.21025ZM78.2215 8.54106H81.4258V19.5981H78.2215V8.54106Z" fill="white"/>
<path d="M96.446 14.067C96.446 17.5384 94.0427 19.7589 90.9403 19.7589C89.4611 19.7589 88.27 19.2846 87.469 18.3219V19.5973H84.4087V4.34863H87.613V9.71377C88.4352 8.81079 89.5665 8.37863 90.9438 8.37863C94.0463 8.37863 96.4495 10.5992 96.4495 14.0705L96.446 14.067ZM93.1995 14.067C93.1995 12.1557 91.9873 11.0067 90.3852 11.0067C88.783 11.0067 87.5709 12.1592 87.5709 14.067C87.5709 15.9748 88.783 17.1273 90.3852 17.1273C91.9873 17.1273 93.1995 15.9784 93.1995 14.067Z" fill="white"/>
<path d="M105.448 8.37558V11.334C105.181 11.3129 104.973 11.2918 104.727 11.2918C102.96 11.2918 101.79 12.258 101.79 14.3732V19.5942H98.5858V8.53721H101.646V9.99531C102.426 8.92721 103.744 8.37207 105.448 8.37207V8.37558Z" fill="white"/>
<path d="M118.023 14.9708H109.66C109.97 16.3481 111.14 17.1914 112.826 17.1914C113.996 17.1914 114.839 16.8435 115.602 16.1233L117.306 17.9714C116.28 19.1414 114.737 19.7598 112.745 19.7598C108.923 19.7598 106.435 17.3565 106.435 14.0679C106.435 10.7792 108.961 8.37598 112.334 8.37598C115.707 8.37598 118.089 10.5544 118.089 14.11C118.089 14.356 118.047 14.7073 118.026 14.9744L118.023 14.9708ZM109.618 13.1017H115.064C114.839 11.7033 113.789 10.8003 112.352 10.8003C110.915 10.8003 109.843 11.6822 109.618 13.1017Z" fill="white"/>
<path d="M65.1336 37.0602C65.1336 32.7245 68.4644 29.6221 72.9441 29.6221C75.4317 29.6221 77.5047 30.525 78.8609 32.1694L76.7247 34.1404C75.7585 33.0302 74.5463 32.454 73.1093 32.454C70.4179 32.454 68.5066 34.3442 68.5066 37.0567C68.5066 39.7691 70.4179 41.6594 73.1093 41.6594C74.5463 41.6594 75.7585 41.0832 76.7247 39.9553L78.8609 41.9264C77.5047 43.5918 75.4282 44.4948 72.9231 44.4948C68.4644 44.4948 65.1336 41.3923 65.1336 37.0567V37.0602Z" fill="white"/>
<path d="M79.6584 38.7251C79.6584 35.3943 82.2268 33.0332 85.7403 33.0332C89.2538 33.0332 91.8011 35.3978 91.8011 38.7251C91.8011 42.0524 89.2538 44.417 85.7403 44.417C82.2268 44.417 79.6584 42.0524 79.6584 38.7251ZM88.5581 38.7251C88.5581 36.8137 87.346 35.6648 85.7438 35.6648C84.1416 35.6648 82.9084 36.8173 82.9084 38.7251C82.9084 40.6329 84.1416 41.7854 85.7438 41.7854C87.346 41.7854 88.5581 40.6364 88.5581 38.7251Z" fill="white"/>
<path d="M112.619 37.924V44.2519H109.414V38.4159C109.414 36.6275 108.613 35.8054 107.317 35.8054C105.88 35.8054 104.871 36.7294 104.871 38.704V44.2519H101.667V38.4159C101.667 36.6275 100.908 35.8054 99.5695 35.8054C98.1501 35.8054 97.1452 36.7294 97.1452 38.704V44.2519H93.9409V33.1948H97.0011V34.4702C97.8233 33.5251 99.0565 33.0332 100.472 33.0332C102.015 33.0332 103.329 33.6305 104.109 34.8427C104.994 33.7113 106.431 33.0332 108.097 33.0332C110.728 33.0332 112.619 34.5546 112.619 37.924Z" fill="white"/>
<path d="M127.537 38.7255C127.537 42.1968 125.134 44.4174 122.031 44.4174C120.654 44.4174 119.523 43.9852 118.701 43.0822V48.2401H115.496V33.1987H118.557V34.4741C119.358 33.5079 120.549 33.0371 122.028 33.0371C125.13 33.0371 127.534 35.2577 127.534 38.729L127.537 38.7255ZM124.291 38.7255C124.291 36.8141 123.078 35.6652 121.476 35.6652C119.874 35.6652 118.662 36.8177 118.662 38.7255C118.662 40.6333 119.874 41.7858 121.476 41.7858C123.078 41.7858 124.291 40.6368 124.291 38.7255Z" fill="white"/>
<path d="M140.808 33.1953V44.2523H137.765V42.9383C136.922 43.9045 135.688 44.4175 134.332 44.4175C131.557 44.4175 129.607 42.8575 129.607 39.4459V33.1988H132.811V38.9715C132.811 40.8196 133.633 41.6418 135.053 41.6418C136.472 41.6418 137.6 40.6967 137.6 38.6623V33.1953H140.804H140.808Z" fill="white"/>
<path d="M150.916 43.7184C150.259 44.1927 149.293 44.4176 148.305 44.4176C145.695 44.4176 144.174 43.0824 144.174 40.4508V35.9078H142.469V33.4414H144.174V30.75H147.378V33.4414H150.132V35.9078H147.378V40.4087C147.378 41.3538 147.891 41.8668 148.755 41.8668C149.229 41.8668 149.7 41.7227 150.052 41.4557L150.916 43.7149V43.7184Z" fill="white"/>
<path d="M163.143 39.6281H154.781C155.09 41.0054 156.26 41.8486 157.947 41.8486C159.117 41.8486 159.96 41.5008 160.722 40.7805L162.426 42.6286C161.4 43.7986 159.858 44.417 157.866 44.417C154.043 44.417 151.555 42.0137 151.555 38.7251C151.555 35.4364 154.082 33.0332 157.455 33.0332C160.828 33.0332 163.21 35.2116 163.21 38.7673C163.21 39.0132 163.168 39.3646 163.147 39.6316L163.143 39.6281ZM154.739 37.7589H160.185C159.96 36.3605 158.909 35.4575 157.472 35.4575C156.035 35.4575 154.964 36.3394 154.739 37.7589Z" fill="white"/>
<path d="M172.204 33.0328V35.9912C171.937 35.9701 171.734 35.949 171.484 35.949C169.717 35.949 168.547 36.9152 168.547 39.0304V44.2515H165.343V33.1944H168.403V34.6525C169.183 33.5844 170.5 33.0293 172.204 33.0293V33.0328Z" fill="white"/>
</g>
<defs>
<clipPath id="clip0_2394_4495">
<rect width="172.204" height="52" fill="white"/>
</clipPath>
</defs>
</svg>
