<svg width="110" height="14" viewBox="0 0 110 14" fill="none" xmlns="http://www.w3.org/2000/svg">
<g clip-path="url(#clip0_2387_3166)">
<path d="M26.279 10.472H29.733V13.64H19.844V0H29.634V3.168H26.268V5.346H29.337V8.217H26.268V10.472H26.279ZM11.143 13.64H17.666V0H11.143V13.64ZM6.424 0H0V13.64H9.394V9.988H6.424V0ZM71.951 8.206H75.02V5.335H71.951V3.168H75.317V0H65.527V13.64H75.416V10.472H71.951V8.206ZM46.574 9.977C46.574 11.759 45.529 12.925 43.747 13.354C42.966 13.541 41.701 13.64 40.557 13.64H31.702V0H40.502C41.624 0 42.856 0.099 43.626 0.286C45.364 0.715 46.387 1.881 46.387 3.663C46.387 5.302 45.419 6.424 44.187 6.787C45.507 7.084 46.574 8.25 46.574 9.977ZM37.917 5.533H38.808C39.996 5.533 40.392 4.939 40.392 4.103C40.392 3.267 39.996 2.673 38.808 2.673H37.917V5.533ZM40.59 9.493C40.59 8.602 40.183 8.008 38.907 8.008H37.917V10.978H38.907C40.194 10.967 40.59 10.373 40.59 9.493ZM56.87 5.038H54.692V0H48.268V13.64H54.692V8.404H56.87V13.64H63.294V0H56.87V5.038ZM106.469 7.953C108.152 7.183 108.9 5.907 108.9 4.169C108.9 2.145 107.69 0.825 105.666 0.33C104.775 0.121 103.334 0 102.036 0H94.127V13.64H100.254V9.295H100.804L103.125 13.64H110L106.469 7.953ZM101.145 6.424H100.254V3.168H101.145C102.333 3.168 102.729 3.762 102.729 4.796C102.729 5.83 102.333 6.424 101.145 6.424ZM89.694 7.953C91.377 7.183 92.125 5.907 92.125 4.169C92.125 2.145 90.915 0.825 88.891 0.33C88 0.121 86.559 0 85.261 0H77.352V13.64H83.479V9.295H84.029L86.35 13.64H93.225L89.694 7.953ZM84.359 6.424H83.468V3.168H84.359C85.547 3.168 85.943 3.762 85.943 4.796C85.943 5.83 85.547 6.424 84.359 6.424Z" fill="white"/>
</g>
<defs>
<clipPath id="clip0_2387_3166">
<rect width="110" height="13.64" fill="white"/>
</clipPath>
</defs>
</svg>
