<svg width="99" height="19" viewBox="0 0 99 19" fill="none" xmlns="http://www.w3.org/2000/svg">
<path d="M86.0898 14.6719V4.20703H89.1484C90.4219 4.20703 91.3633 4.46484 91.9727 4.98047C92.582 5.48828 92.8867 6.25781 92.8867 7.28906C92.8867 8.04688 92.6914 8.64844 92.3008 9.09375C91.918 9.53125 91.4766 9.84766 90.9766 10.043L93.7539 14.6719H91.832L89.4062 10.5H87.7891V14.6719H86.0898ZM87.7891 9.11719H89.0898C89.7383 9.11719 90.2461 8.95703 90.6133 8.63672C90.9883 8.31641 91.1758 7.88281 91.1758 7.33594C91.1758 6.73438 91.0039 6.30078 90.6602 6.03516C90.3164 5.76953 89.7852 5.63672 89.0664 5.63672H87.7891V9.11719ZM89.3359 18.2344C88.0625 18.2344 86.8867 18.0156 85.8086 17.5781C84.7383 17.1406 83.8047 16.5273 83.0078 15.7383C82.2188 14.9492 81.6055 14.0195 81.168 12.9492C80.7383 11.8711 80.5234 10.6992 80.5234 9.43359C80.5234 8.16016 80.7422 6.98828 81.1797 5.91797C81.6172 4.83984 82.2305 3.90625 83.0195 3.11719C83.8164 2.32812 84.75 1.71484 85.8203 1.27734C86.8984 0.839844 88.0703 0.621094 89.3359 0.621094C90.5625 0.621094 91.707 0.84375 92.7695 1.28906C93.8398 1.72656 94.7773 2.34375 95.582 3.14062C96.3867 3.92969 97.0156 4.85938 97.4688 5.92969C97.9219 7 98.1484 8.16797 98.1484 9.43359C98.1484 10.6992 97.9297 11.8711 97.4922 12.9492C97.0547 14.0195 96.4375 14.9492 95.6406 15.7383C94.8516 16.5273 93.918 17.1406 92.8398 17.5781C91.7695 18.0156 90.6016 18.2344 89.3359 18.2344ZM89.3359 17.0391C90.375 17.0391 91.3477 16.8516 92.2539 16.4766C93.168 16.1016 93.9688 15.5742 94.6562 14.8945C95.3438 14.207 95.8828 13.4023 96.2734 12.4805C96.6641 11.5508 96.8594 10.5352 96.8594 9.43359C96.8594 8.38672 96.6719 7.40625 96.2969 6.49219C95.9297 5.57812 95.4102 4.76953 94.7383 4.06641C94.0664 3.36328 93.2695 2.81641 92.3477 2.42578C91.4336 2.02734 90.4297 1.82812 89.3359 1.82812C88.2422 1.82812 87.2344 2.01562 86.3125 2.39062C85.3984 2.76562 84.6016 3.29688 83.9219 3.98438C83.25 4.66406 82.7266 5.46875 82.3516 6.39844C81.9844 7.32031 81.8008 8.33203 81.8008 9.43359C81.8008 10.4805 81.9844 11.4648 82.3516 12.3867C82.7188 13.3008 83.2383 14.1094 83.9102 14.8125C84.5898 15.5078 85.3867 16.0547 86.3008 16.4531C87.2227 16.8438 88.2344 17.0391 89.3359 17.0391Z" fill="white"/>
<path d="M77.875 9.41016C77.875 10.7305 77.707 11.9336 77.3711 13.0195C77.0352 14.0977 76.5352 15.0273 75.8711 15.8086C75.2148 16.582 74.3984 17.1797 73.4219 17.6016C72.4453 18.0234 71.3125 18.2344 70.0234 18.2344C68.6953 18.2344 67.5352 18.0234 66.543 17.6016C65.5586 17.1797 64.7383 16.5781 64.082 15.7969C63.4336 15.0156 62.9453 14.082 62.6172 12.9961C62.2969 11.9102 62.1367 10.707 62.1367 9.38672C62.1367 7.63672 62.4258 6.10156 63.0039 4.78125C63.582 3.46094 64.457 2.43359 65.6289 1.69922C66.8086 0.964844 68.2852 0.597656 70.0586 0.597656C71.7539 0.597656 73.1797 0.960938 74.3359 1.6875C75.5 2.41406 76.3789 3.4375 76.9727 4.75781C77.5742 6.07031 77.875 7.62109 77.875 9.41016ZM64.2344 9.41016C64.2344 10.8633 64.4414 12.1211 64.8555 13.1836C65.2695 14.2461 65.9023 15.0664 66.7539 15.6445C67.6133 16.2227 68.7031 16.5117 70.0234 16.5117C71.3516 16.5117 72.4375 16.2227 73.2812 15.6445C74.1328 15.0664 74.7617 14.2461 75.168 13.1836C75.5742 12.1211 75.7773 10.8633 75.7773 9.41016C75.7773 7.19922 75.3125 5.47266 74.3828 4.23047C73.4609 2.98047 72.0195 2.35547 70.0586 2.35547C68.7305 2.35547 67.6367 2.64062 66.7773 3.21094C65.918 3.78125 65.2773 4.59375 64.8555 5.64844C64.4414 6.69531 64.2344 7.94922 64.2344 9.41016Z" fill="white"/>
<path d="M52.8789 9.02344H58.8672V17.332C57.9688 17.6367 57.043 17.8633 56.0898 18.0117C55.1445 18.1602 54.0859 18.2344 52.9141 18.2344C51.1328 18.2344 49.6289 17.8789 48.4023 17.168C47.1836 16.457 46.2578 15.4453 45.625 14.1328C44.9922 12.8125 44.6758 11.2461 44.6758 9.43359C44.6758 7.66016 45.0234 6.11328 45.7188 4.79297C46.4219 3.47266 47.4336 2.44922 48.7539 1.72266C50.082 0.988281 51.6758 0.621094 53.5352 0.621094C54.4883 0.621094 55.3906 0.710938 56.2422 0.890625C57.1016 1.0625 57.8984 1.30859 58.6328 1.62891L57.8711 3.36328C57.2383 3.08984 56.5391 2.85547 55.7734 2.66016C55.0156 2.46484 54.2305 2.36719 53.418 2.36719C52.0195 2.36719 50.8203 2.65625 49.8203 3.23438C48.8281 3.8125 48.0664 4.62891 47.5352 5.68359C47.0117 6.73828 46.75 7.98828 46.75 9.43359C46.75 10.8633 46.9805 12.1094 47.4414 13.1719C47.9023 14.2266 48.6211 15.0469 49.5977 15.6328C50.5742 16.2188 51.832 16.5117 53.3711 16.5117C54.1445 16.5117 54.8086 16.4688 55.3633 16.3828C55.918 16.2891 56.4219 16.1797 56.875 16.0547V10.8047H52.8789V9.02344Z" fill="white"/>
<path d="M36.4961 9.45703L41.0547 0.867188H43.1992L37.4922 11.3555V18H35.5V11.4492L29.7812 0.867188H31.9609L36.4961 9.45703Z" fill="white"/>
<path d="M19.5859 18V0.867188H21.5781V16.2188H29.1836V18H19.5859Z" fill="white"/>
<path d="M12.8828 18V0.867188H14.875V18H12.8828Z" fill="white"/>
<path d="M0.34375 18V0.867188H2.33594V16.2188H9.94141V18H0.34375Z" fill="white"/>
</svg>
