<svg width="125" height="50" viewBox="0 0 125 50" fill="none" xmlns="http://www.w3.org/2000/svg">
<g clip-path="url(#clip0_244_2391)">
<path d="M114.95 22.886C115.31 23.2871 115.609 23.7444 115.824 24.2469C116.12 24.9397 116.092 27.0992 116.092 27.0992C116.092 27.0992 110.042 27.1634 107.705 27.2051C108.059 29.4389 111.349 30.2129 112.822 29.0852C112.966 28.9748 113.174 28.8273 113.174 28.8273L115.107 29.5099C114.616 30.5745 113.656 31.318 112.514 31.5962C111.832 31.7618 111.122 31.7787 110.42 31.746C109.739 31.7156 109.045 31.6368 108.405 31.3912C107.883 31.1907 107.421 30.8324 106.999 30.4708C106.328 29.8952 105.764 29.1877 105.424 28.3699C104.833 26.9482 105.002 25.3407 105.741 24.0058C106.481 22.6709 107.737 21.6345 109.202 21.1997C111.228 20.5981 113.555 21.3292 114.95 22.8849V22.886ZM110.911 23.1947C110.482 23.1542 109.563 23.1891 109.203 23.4256C108.151 24.1162 108.003 25.0512 108.003 25.0512L113.353 24.9881C113.353 24.9881 113.372 24.3989 113.131 24.1624C112.615 23.5856 111.514 23.251 110.911 23.1947Z" fill="#EDB746"/>
<path d="M82.9725 24.3447C83.711 27.7772 80.9846 30.8818 77.284 30.0786C76.9612 30.0088 76.0357 29.6483 76.0357 29.6483L76.1343 33.1101H73.7522L73.6547 21.5453L75.9632 21.4665L76.0153 21.8371C76.0153 21.8371 77.4675 21.2896 77.9761 21.293C78.7089 21.2986 80.0716 21.2614 81.0922 21.8123C82.1128 22.3632 82.7924 23.5032 82.9736 24.3436L82.9725 24.3447ZM77.7903 23.1912C75.8069 23.6722 75.5305 26.36 76.7312 27.7051C80.9087 30.4335 82.6406 22.513 77.7903 23.1912Z" fill="#EDB746"/>
<path d="M70.1818 18.6029C71.1729 19.1673 71.7381 20.1011 71.7381 20.1011L70.2169 21.4654C70.2169 21.4654 69.262 20.2724 68.3581 20.055C67.3194 19.806 66.3962 20.6374 67.8676 22.5614C69.7026 24.9609 73.6819 26.8366 71.5648 30.1676C69.6211 31.9791 66.6647 32.237 64.9089 30.5338C64.1942 29.8398 63.8884 28.8688 63.8884 28.8688L65.6769 27.6893C65.6769 27.6893 66.2637 28.1895 66.4981 28.3923C67.222 29.1966 68.8519 29.5312 69.4421 28.3112C70.3075 26.5234 66.4064 24.8347 65.5433 23.6328C63.0037 20.0944 67.1189 16.3014 70.1818 18.6029Z" fill="#EDB746"/>
<path d="M55.2117 18.1094V25.1636L58.8942 21.6984H61.359L57.1566 25.9555L61.6456 31.463H59.4175L55.9276 27.0775L55.2117 27.0212V31.463H53.2193V18.1094H55.2117Z" fill="#2AA9E5"/>
<path d="M47.4492 21.338C49.2933 21.0958 50.8712 22.1897 50.8032 24.1036L50.7749 31.4631H49.0464V24.8403C49.0464 24.8403 49.0181 23.7521 48.7757 23.5156C47.6713 22.4319 46.1138 23.2903 45.4364 23.7803C45.3095 23.8727 44.9878 24.2196 44.9878 24.2196V31.4631H43.0418L43.0701 21.489H44.7681L44.8825 22.1142C44.8825 22.1142 46.6881 21.3662 47.4481 21.338H47.4492Z" fill="#2AA9E5"/>
<path d="M32.2719 18.2337L32.2084 29.1597H35.5669V31.4634H30.1084L29.9351 18.2168L32.2719 18.2337Z" fill="#2AA9E5"/>
<path d="M101.941 18.6592V22.1784H103.312V23.8806H101.941V31.4631H99.5419V23.8806H98.2982V22.1784H99.5419V18.6592H101.941Z" fill="#EDB746"/>
<path d="M88.2635 21.3067C89.1345 20.6004 90.82 21.6176 90.82 21.6176L90.2843 22.9244C90.2843 22.9244 89.7621 22.8895 89.4019 22.8433C88.8332 22.77 87.406 23.4471 87.406 23.4471V31.4633H85.3184L85.3071 21.3732H86.9303L86.9937 21.6638C86.9937 21.6638 87.9474 21.5264 88.2646 21.3067H88.2635Z" fill="#EDB746"/>
<path d="M40.3742 21.6177L40.4184 31.4634H38.0601L38.1518 21.6177H40.3742Z" fill="#2AA9E5"/>
<path d="M95.7234 21.6177H93.3651V31.4634H95.7234V21.6177Z" fill="#EDB746"/>
<path d="M94.2679 18.0209C95.6861 17.6075 96.4665 19.0303 95.7631 20.1816C93.7741 21.7001 92.0331 18.5808 94.2679 18.0209Z" fill="#EDB746"/>
<path d="M38.1496 19.7814C38.0771 19.6586 38.025 19.5257 37.9978 19.3883C37.9129 18.9512 38.2561 18.4735 38.6117 18.2516C38.8643 18.0939 39.1588 18.0105 39.4556 17.9869C39.7433 17.9632 40.0514 18.0004 40.2814 18.175C40.7673 18.5423 40.8194 19.2711 40.5906 19.7961C40.2916 20.4799 39.4658 20.695 38.8054 20.3852C38.5415 20.2613 38.3025 20.0439 38.1496 19.7825V19.7814Z" fill="#2AA9E5"/>
<path d="M9.52689 31.7661H7.99998V30.2476C8.84273 30.2476 9.52689 30.928 9.52689 31.7661Z" fill="#EDB746"/>
<path d="M12.1106 31.7663H10.9779C10.9779 30.134 9.64243 28.8047 7.99998 28.8047V27.6782C10.2666 27.6782 12.1106 29.5122 12.1106 31.7663Z" fill="#EDB746"/>
<path d="M15.0432 31.7662H13.9105C13.9105 28.5252 11.26 25.8892 7.99998 25.8892V24.7627C11.8829 24.7627 15.0421 27.9045 15.0421 31.7662H15.0432Z" fill="#EDB746"/>
<path d="M23.2113 31.7663H21.3989V30.8583C21.3989 27.7289 18.839 25.1818 15.6911 25.1818H15.6186C11.4729 25.183 8.09965 21.8282 8.09965 17.7041V17H9.912V17.7041C9.912 20.8335 12.4719 23.3806 15.6198 23.3806H15.6923C19.838 23.3806 23.2124 26.7353 23.2124 30.8595V31.7674L23.2113 31.7663Z" fill="#2AA9E5"/>
<path d="M21.724 17H23.2509V18.5185C22.4082 18.5185 21.724 17.8381 21.724 17Z" fill="#EDB746"/>
<path d="M23.2509 21.0881C20.9843 21.0881 19.1402 19.2541 19.1402 17H20.273C20.273 18.6334 21.6084 19.9616 23.2509 19.9616V21.0881Z" fill="#EDB746"/>
<path d="M23.2509 24.0035C19.3679 24.0035 16.2088 20.8617 16.2088 17H17.3415C17.3415 20.241 19.9921 22.877 23.2509 22.877V24.0035Z" fill="#EDB746"/>
</g>
<defs>
<clipPath id="clip0_244_2391">
<rect width="108.094" height="16.1102" fill="white" transform="translate(8 17)"/>
</clipPath>
</defs>
</svg>
