<svg width="101" height="21" viewBox="0 0 101 21" fill="none" xmlns="http://www.w3.org/2000/svg">
<g clip-path="url(#clip0_2216_4531)">
<path d="M97.0093 1.58932H97.9283C98.145 1.58932 98.3034 1.63367 98.401 1.7224C98.5024 1.80859 98.5532 1.92393 98.5532 2.06082L98.4746 2.32194L98.2477 2.49559C98.1513 2.5336 98.0145 2.55136 97.837 2.55136H97.0093V1.58932ZM97.0093 4.20168V2.89612H97.4555L97.6697 2.91007L97.8446 2.98739L98.0461 3.18386C98.1146 3.27892 98.2097 3.41328 98.3237 3.58946L98.7065 4.20168H99.1933L98.6837 3.39934C98.5861 3.24217 98.4771 3.11541 98.3668 3.00768L98.1323 2.86443C98.4125 2.82387 98.6178 2.73262 98.756 2.59066C98.884 2.44616 98.9524 2.27252 98.9524 2.06211C98.9524 1.90114 98.9144 1.7541 98.8333 1.61975C98.7534 1.48539 98.6431 1.39412 98.5063 1.33835C98.3719 1.28638 98.1729 1.26229 97.9143 1.26229H96.6227V4.20168H97.0093Z" fill="white"/>
<path d="M95.4337 2.71099C95.4337 1.46375 96.4478 0.451004 97.695 0.451004C98.9435 0.451004 99.9575 1.46375 99.9575 2.71099C99.9575 3.95823 98.9435 4.97605 97.695 4.97605C96.4478 4.97605 95.4337 3.95823 95.4337 2.71099ZM95.0231 2.71099C95.0231 4.18512 96.2221 5.38419 97.695 5.38419C99.1704 5.38419 100.368 4.18512 100.368 2.71099C100.368 1.23814 99.1704 0.0390592 97.695 0.0390592C96.2221 0.0390592 95.0231 1.23814 95.0231 2.71099Z" fill="white"/>
<path d="M65.6572 11.0856C65.6572 14.9781 63.8713 18.1266 61.6658 18.1266C59.4641 18.1266 57.6757 14.9781 57.6757 11.0856C57.6757 7.19809 59.4641 4.04577 61.6658 4.04577C63.8713 4.04577 65.6572 7.19809 65.6572 11.0856Z" fill="#0079C2"/>
<path d="M63.4785 1.2445C67.8223 2.1457 71.1026 6.21697 71.1026 11.1058C71.1026 16.0554 67.7399 20.166 63.3162 21H71.9607V1.2445H63.4785Z" fill="#0079C2"/>
<path d="M52.2319 11.1058C52.2319 6.21697 55.5097 2.1457 59.8573 1.2445H51.3649V21H60.0157C55.5946 20.166 52.2319 16.0554 52.2319 11.1058Z" fill="#0079C2"/>
<path d="M77.7088 1.27108L83.2327 12.5304V1.27108H77.7088Z" fill="#0079C2"/>
<path d="M77.2717 21H83.0642L77.2717 8.91552V21Z" fill="#0079C2"/>
<path d="M88.5335 21H92.2727V1.2445H88.5335V21Z" fill="#0079C2"/>
<path d="M13.49 21H18.9847V1.2445H13.49V21Z" fill="#0079C2"/>
<path d="M34.4611 1.24703H19.9214V4.84425H24.4135V21H29.9614V4.84678H34.4611V1.24703Z" fill="#0079C2"/>
<path d="M12.556 20.9947V17.3988H5.97629V1.24428H0.425827V20.9947H12.556Z" fill="#0079C2"/>
<path d="M50.4433 20.995V17.3876H40.9014V12.9462H49.3532V9.33889H40.9014V4.84934H50.4433V1.24579H35.3965V20.995H50.4433Z" fill="#0079C2"/>
</g>
<defs>
<clipPath id="clip0_2216_4531">
<rect width="99.9425" height="20.9609" fill="white" transform="translate(0.425545 0.0390625)"/>
</clipPath>
</defs>
</svg>
