<svg width="125" height="50" viewBox="0 0 125 50" fill="none" xmlns="http://www.w3.org/2000/svg">
<path d="M88.5142 30.1911C86.9194 30.2402 85.17 29.591 83.6281 28.4306C82.2343 27.3814 81.2702 25.9857 80.7285 24.3141C80.5923 23.8937 80.4229 23.4834 80.4062 23.0305C80.3988 22.8194 80.2562 22.7573 80.0561 22.7583C78.2197 22.762 76.3841 22.7648 74.5477 22.7546C74.306 22.7536 74.2467 22.8805 74.1671 23.063C73.2697 25.1263 71.523 25.894 69.5347 25.6949C68.102 25.5514 66.9666 24.7596 66.3119 23.3723C65.4469 21.5395 65.8127 19.4438 67.0991 18.1426C68.9263 16.2941 72.6797 16.521 73.9818 19.2474C74.2235 19.7531 74.4727 19.9244 75.0302 19.9096C76.6796 19.8651 78.3317 19.8855 79.9829 19.9003C80.2978 19.9031 80.3877 19.8142 80.4256 19.4956C80.5599 18.3676 81.0387 17.3563 81.6379 16.4117C82.9539 14.3345 84.8561 13.0991 87.2612 12.6397C91.9407 11.7451 96.6342 14.3826 97.6751 19.4234C98.2206 22.0628 97.7187 24.5419 96.1128 26.7433C95.2293 27.9546 94.0773 28.8381 92.6974 29.4428C91.4768 29.9781 90.2071 30.2013 88.5132 30.193L88.5142 30.1911ZM94.3254 21.6145C94.3338 18.401 92.4288 16.1737 89.6292 15.8459C86.9268 15.5301 84.5023 17.2711 83.9513 20.0355C83.5003 22.2971 84.0031 24.3382 85.9155 25.7857C87.6279 27.0804 89.5523 27.2026 91.462 26.258C93.4651 25.2671 94.2597 23.4954 94.3254 21.6145Z" fill="white"/>
<path d="M7.53878 27.0424C7.53878 27.9074 7.52303 28.6418 7.54618 29.3752C7.55637 29.7114 7.49895 29.855 7.10999 29.8401C6.21631 29.8059 5.31984 29.8105 4.42616 29.8392C4.06868 29.8503 3.99923 29.741 4.00015 29.4021C4.01127 23.1083 4.00849 16.8155 4.00849 10.5217C4.00849 9.14924 4.0196 7.77583 4.00015 6.40335C3.99552 6.07181 4.09462 5.99309 4.41319 6.0005C5.32262 6.0218 6.2339 6.02365 7.14333 6.0005C7.47024 5.99216 7.54804 6.08663 7.54711 6.40798C7.53415 9.36965 7.53878 12.3313 7.53878 15.293C7.53878 15.3634 7.53878 15.4347 7.53878 15.6236C8.17038 14.6141 8.92978 13.877 9.86421 13.3537C11.1543 12.6304 12.548 12.3665 14.0354 12.4776C16.0496 12.6277 17.7129 13.4491 19.0585 14.9309C20.1559 16.1394 20.8033 17.5851 21.0996 19.1715C21.5442 21.5553 21.3488 23.8853 20.1948 26.0533C18.7687 28.7334 16.5201 30.1161 13.4621 30.1846C12.0007 30.2171 10.6662 29.8633 9.46136 29.0474C8.72048 28.5464 8.09258 27.9222 7.5397 27.0424H7.53878ZM17.7546 21.3061C17.7546 21.2293 17.7592 21.1515 17.7546 21.0746C17.7398 20.8588 17.7324 20.6421 17.7018 20.4291C17.424 18.4806 16.5349 16.9303 14.6438 16.183C12.7462 15.4328 10.9135 15.6847 9.353 17.0285C7.67862 18.4704 7.23872 20.3967 7.6175 22.4952C8.43339 27.0109 13.3899 27.8703 15.919 25.6829C17.2499 24.5317 17.7296 23.0102 17.7546 21.3061Z" fill="white"/>
<path d="M33.7808 22.76C31.6202 22.76 29.4596 22.7702 27.2999 22.7508C26.9091 22.7471 26.8804 22.8489 26.9851 23.1833C27.6167 25.2059 29.3077 26.6274 31.4526 26.7987C33.6641 26.9756 35.3922 26.1199 36.5202 24.1705C36.6517 23.9436 36.7739 23.8389 37.0471 23.8436C38.0501 23.8621 39.0531 23.8547 40.056 23.8482C40.3098 23.8463 40.4413 23.8241 40.3227 24.1881C39.3716 27.0923 37.3676 28.9251 34.5198 29.8521C33.6104 30.1485 32.6352 30.2114 31.66 30.192C29.8708 30.1549 28.2529 29.6567 26.8008 28.5991C25.344 27.5378 24.3133 26.1746 23.6752 24.4872C23.4372 23.8593 23.2686 23.2129 23.189 22.5674C23.0566 21.4922 23.1047 20.4133 23.3464 19.3344C23.6233 18.0971 24.1003 16.9654 24.8467 15.956C26.1173 14.239 27.8037 13.1184 29.9014 12.6952C33.2464 12.021 36.1803 12.8147 38.5382 15.342C39.7699 16.6626 40.4533 18.2666 40.6747 20.0688C40.771 20.8523 40.7978 21.6265 40.6978 22.4127C40.6571 22.7313 40.5311 22.7656 40.2625 22.7647C38.102 22.7554 35.9423 22.76 33.7817 22.7591L33.7808 22.76ZM37.0277 19.8928C37.0221 19.8039 37.0258 19.7576 37.0147 19.7141C36.3016 16.9673 33.6196 15.3179 30.8089 15.9486C28.8576 16.3866 27.5991 17.6267 26.9804 19.5187C26.9239 19.6909 26.8063 19.8993 27.1842 19.8984C30.4515 19.8882 33.7197 19.8919 37.0277 19.8919V19.8928Z" fill="white"/>
<path d="M56.1942 15.6513C56.1942 14.7271 56.2044 13.9436 56.1887 13.1611C56.1831 12.9018 56.2563 12.8221 56.5202 12.8258C57.4769 12.8416 58.4345 12.8416 59.3902 12.8258C59.6588 12.8212 59.7273 12.9055 59.7273 13.1666C59.7208 18.6139 59.7199 24.0612 59.7273 29.5086C59.7273 29.7855 59.631 29.8382 59.3809 29.8345C58.4243 29.8225 57.4667 29.8188 56.511 29.8364C56.2359 29.841 56.1831 29.7438 56.1878 29.4947C56.2026 28.726 56.1933 27.9573 56.1933 27.1424C55.9534 27.2489 55.8896 27.4702 55.7645 27.623C54.5486 29.1122 52.9825 29.9262 51.0794 30.1652C49.1216 30.4115 47.3907 29.9031 45.8034 28.7686C44.7365 28.0064 43.9308 27.0174 43.3844 25.8569C42.9705 24.9772 42.7019 24.0353 42.5417 23.0453C42.3935 22.1313 42.4519 21.2302 42.4509 20.3337C42.45 19.5493 42.6352 18.7427 42.9075 17.9814C43.2372 17.0609 43.6623 16.1959 44.2661 15.4143C45.3987 13.9482 46.836 12.9666 48.6613 12.6165C50.5839 12.247 52.4139 12.498 54.0948 13.5648C54.9097 14.0816 55.5404 14.7873 56.1924 15.6513H56.1942ZM46.0173 21.3154C46.0173 21.5006 46.0034 21.6867 46.0192 21.8701C46.1979 23.9001 47.0305 25.5449 48.967 26.3867C50.8784 27.2183 52.7436 26.984 54.3485 25.6402C56.0609 24.2066 56.4795 22.2618 56.1164 20.1429C55.4784 16.4117 51.2683 14.5641 48.2159 16.67C46.6054 17.7804 46.0155 19.4196 46.0173 21.3144V21.3154Z" fill="white"/>
<path d="M103.062 15.4061C103.757 14.4106 104.573 13.5993 105.662 13.0955C107.966 12.0305 111.433 12.2185 113.243 14.2744C114.135 15.2876 114.643 16.4813 114.734 17.8103C114.977 21.3665 114.788 24.9301 114.834 28.49C114.839 28.9299 115.037 29.5199 114.745 29.769C114.492 29.9838 113.92 29.8273 113.488 29.8292C112.902 29.832 112.314 29.8042 111.73 29.8394C111.363 29.8616 111.309 29.7282 111.311 29.3995C111.323 26.1442 111.342 22.8899 111.305 19.6347C111.292 18.4734 111.032 17.3685 110.064 16.548C109.586 16.1424 109.017 15.9877 108.452 15.8951C106.763 15.6182 104.895 16.0664 103.894 17.6389C103.373 18.4567 103.092 19.3643 103.084 20.3256C103.058 23.3335 103.06 26.3415 103.073 29.3495C103.075 29.7218 103.005 29.8542 102.607 29.8394C101.713 29.8079 100.817 29.8208 99.9228 29.8347C99.6505 29.8384 99.5246 29.807 99.5255 29.4736C99.5375 24.0438 99.5366 18.6141 99.5273 13.1844C99.5273 12.9029 99.5912 12.8186 99.883 12.8251C100.824 12.8455 101.765 12.8436 102.706 12.826C102.988 12.8204 103.079 12.8964 103.071 13.1863C103.05 13.9262 103.064 14.6662 103.064 15.4061H103.062Z" fill="white"/>
<path d="M78.5938 18.7658C78.5493 18.775 78.504 18.7926 78.4595 18.7926C78.1354 18.7926 77.7872 18.8621 77.4945 18.7639C77.1713 18.6565 77.2324 18.2333 77.0991 17.9601C76.2526 16.2301 74.9783 14.9762 73.1817 14.2372C71.7907 13.6648 70.3561 13.4453 68.8892 13.7065C65.8692 14.2455 63.4271 16.1736 62.7158 19.5956C62.2324 21.9201 62.6065 24.1223 64.0642 26.0644C65.3608 27.7915 67.112 28.7167 69.2439 28.9881C70.445 29.1409 71.6175 29.0334 72.7353 28.6111C74.8885 27.7971 76.4915 26.3857 77.2787 24.164C77.3611 23.9306 77.4649 23.8195 77.7242 23.8473C77.9687 23.8723 78.2178 23.8528 78.4641 23.8565C78.5086 23.8565 78.5521 23.8769 78.5966 23.888C77.4445 28.299 73.3715 30.455 69.769 30.2309C64.5476 29.9067 61.8647 26.1699 61.435 22.5776C61.1313 20.0299 61.661 17.6517 63.328 15.6087C64.8533 13.7389 66.8527 12.7443 69.2198 12.5146C73.9003 12.059 77.6473 14.9678 78.5938 18.7667V18.7658Z" fill="#DC972E"/>
<path d="M70.6646 14.7133C72.8724 14.7966 74.8811 15.9654 76.1146 18.3917C76.2693 18.6955 76.261 18.8483 75.8692 18.7964C75.8544 18.7946 75.8378 18.7946 75.8229 18.7964C75.2812 18.8752 74.9422 18.7112 74.6181 18.1963C73.8902 17.0396 72.7788 16.2923 71.4434 16.0311C69.2319 15.5977 66.9778 16.0996 65.5923 18.3556C63.541 21.6942 65.3932 26.3784 69.631 26.7711C71.4934 26.9433 72.9881 26.2478 74.2708 24.9726C74.419 24.8253 74.5366 24.6429 74.6505 24.4651C75.0311 23.8705 75.3784 23.7224 76.0665 23.852C76.3758 23.9104 76.1924 24.0678 76.1406 24.1808C75.559 25.4495 74.6699 26.4414 73.4429 27.1147C72.5621 27.5972 71.6277 27.8731 70.6145 27.9519C68.8855 28.0852 67.3306 27.6324 66.0072 26.5553C64.8162 25.5866 64.0522 24.3262 63.7596 22.7694C63.5975 21.9054 63.504 21.0441 63.6549 20.2023C63.8994 18.8418 64.4439 17.5796 65.4423 16.5849C66.7472 15.2856 68.3586 14.7096 70.6655 14.7133H70.6646Z" fill="#DC972E"/>
<path d="M74.1013 35.0419C74.2106 35.0568 74.2828 35.0697 74.356 35.0753C75.2626 35.142 75.2376 35.1484 75.4895 36.0403C76.0572 38.0481 76.6027 40.0614 77.0796 42.0933C77.088 42.1303 77.1361 42.1581 77.1991 42.2266C77.6501 40.4559 78.0715 38.713 78.5475 36.9849C78.7049 36.4126 78.8837 35.8458 79.017 35.267C79.0485 35.1281 79.1532 35.054 79.2782 35.0494C79.6171 35.0364 79.957 35.0494 80.296 35.0419C80.5016 35.0373 80.5043 35.2133 80.5358 35.3263C80.9553 36.8376 81.3665 38.3518 81.774 39.866C81.9555 40.5411 82.1195 41.22 82.2973 41.896C82.3176 41.9738 82.2973 42.1053 82.4297 42.1007C82.5677 42.096 82.5177 41.971 82.538 41.8904C83.0131 40.0197 83.4577 38.1416 84.0096 36.2922C84.0967 36.0005 84.1671 35.7013 84.2819 35.4198C84.3273 35.3077 84.1828 35.1003 84.4023 35.0873C84.7236 35.0679 85.0506 35.0688 85.3701 35.1077C85.4534 35.1179 85.3821 35.2938 85.3552 35.3902C84.6847 37.811 84.018 40.2327 83.3391 42.6517C83.0622 43.638 83.0502 43.6315 82.0065 43.575C81.8175 43.5648 81.7453 43.5259 81.6805 43.3064C81.2147 41.7488 80.8025 40.1762 80.4034 38.6009C80.2413 37.9619 80.0932 37.3192 79.9542 36.6747C79.9265 36.5459 79.8987 36.4079 79.7709 36.4052C79.6366 36.4024 79.6616 36.5626 79.6357 36.6626C79.1782 38.4315 78.7225 40.1994 78.2623 41.9673C78.1437 42.423 78.0029 42.8721 77.8937 43.3296C77.8538 43.4944 77.7844 43.5722 77.6186 43.5713C77.2945 43.5704 76.9703 43.5769 76.6471 43.5704C76.5166 43.5676 76.461 43.513 76.4212 43.3537C75.9433 41.457 75.3534 39.5909 74.882 37.6915C74.6662 36.821 74.3699 35.9634 74.1031 35.041L74.1013 35.0419Z" fill="white"/>
<path d="M15.2959 37.9472C15.6228 37.6388 15.783 37.3443 16.0664 37.1405C17.1508 36.3626 18.7604 36.6849 19.4077 37.8666C19.5337 38.0972 19.6004 38.0879 19.7393 37.8962C20.4922 36.8553 21.4507 36.5136 22.6611 36.8488C23.427 37.0609 24.0475 37.8731 24.0753 38.8603C24.1179 40.3402 24.091 41.822 24.1012 43.3037C24.1021 43.5 24.0429 43.5899 23.8382 43.5741C23.7002 43.563 23.5585 43.5575 23.4224 43.5741C23.1371 43.6102 23.0547 43.4982 23.0584 43.213C23.0732 41.9322 23.0649 40.6514 23.064 39.3706C23.064 38.7834 22.9186 38.2342 22.3611 37.9564C21.46 37.5073 20.5126 37.6851 20.0097 38.6862C19.831 39.0427 19.7198 39.4224 19.7217 39.8318C19.7272 40.9431 19.7004 42.0544 19.7328 43.1639C19.7504 43.7584 19.3438 43.5223 19.0734 43.5695C18.7734 43.6223 18.6493 43.5399 18.6567 43.1898C18.6826 41.9868 18.6409 40.7819 18.6733 39.5799C18.7104 38.1944 18.0001 37.8212 17.3323 37.7453C16.1979 37.6175 15.5144 38.4509 15.3894 39.4511C15.2394 40.6477 15.3579 41.8553 15.3199 43.0574C15.3144 43.2268 15.4394 43.4954 15.2144 43.5501C14.9393 43.6167 14.6318 43.5871 14.3448 43.5519C14.2336 43.538 14.292 43.3621 14.292 43.2611C14.2892 41.2246 14.2947 39.1872 14.2827 37.1507C14.2809 36.8979 14.3549 36.8219 14.592 36.8534C14.6985 36.8682 14.8097 36.8673 14.9152 36.8534C15.2032 36.8155 15.3468 36.8997 15.3033 37.2229C15.2755 37.4258 15.2977 37.636 15.2977 37.9462L15.2959 37.9472Z" fill="white"/>
<path d="M55.608 38.014C55.608 36.8749 55.6182 35.7358 55.6006 34.5976C55.596 34.2984 55.6303 34.1651 55.984 34.1827C56.7573 34.2225 56.649 34.1021 56.6508 34.8495C56.6545 37.5805 56.6545 40.3116 56.648 43.0427C56.648 43.2131 56.7582 43.4807 56.5388 43.5363C56.2637 43.6057 55.9414 43.6187 55.6728 43.5409C55.5108 43.4946 55.6386 43.2057 55.6089 43.0288C55.5793 42.8537 55.7025 42.5907 55.5367 42.5204C55.3432 42.4379 55.2839 42.7287 55.1663 42.8473C53.9753 44.0558 51.3998 44.1049 50.395 42.1944C49.631 40.7413 49.6523 39.2966 50.5673 37.9584C51.748 36.2321 54.3143 36.4396 55.358 37.8306C55.4108 37.901 55.4636 37.9704 55.5173 38.0399C55.5478 38.0316 55.5784 38.0232 55.6089 38.0149L55.608 38.014ZM53.265 42.7009C54.6301 42.6935 55.6293 41.6378 55.6247 40.2088C55.6191 38.7511 54.6236 37.7371 53.2048 37.7445C51.8897 37.7509 50.9646 38.778 50.9692 40.2246C50.9738 41.6887 51.9184 42.7084 53.265 42.7009Z" fill="white"/>
<path d="M47.3333 37.9981C47.3333 36.9026 47.3287 35.7838 47.3389 34.666C47.3398 34.5132 47.2268 34.2669 47.438 34.2187C47.7158 34.1548 48.0223 34.1446 48.3039 34.2335C48.4243 34.2715 48.3668 34.4252 48.3668 34.5262C48.3696 37.4258 48.3641 40.3254 48.3761 43.225C48.377 43.5251 48.2724 43.6122 48.002 43.5723C47.9714 43.5677 47.9399 43.5723 47.9094 43.5723C47.1657 43.5686 47.2444 43.6464 47.2426 42.9037C47.2426 42.8027 47.2805 42.6916 47.1796 42.574C46.9388 42.649 46.836 42.8954 46.6573 43.0417C45.2227 44.2178 42.8149 43.8585 41.9851 41.9433C41.3174 40.4041 41.4591 38.9307 42.5343 37.6434C43.453 36.5432 45.5478 36.3914 46.6739 37.4277C46.8842 37.6212 47.1064 37.8018 47.3342 37.9991L47.3333 37.9981ZM44.9875 37.7444C43.6271 37.7425 42.6982 38.7437 42.6963 40.2124C42.6945 41.6803 43.6354 42.7074 44.9764 42.7018C46.3535 42.6953 47.3407 41.6609 47.3426 40.2217C47.3454 38.7733 46.3683 37.7462 44.9875 37.7453V37.7444Z" fill="white"/>
<path d="M71.837 42.3212C71.4212 42.8297 71.0183 43.1779 70.5191 43.4353C69.0476 44.1938 67.2787 43.44 66.6091 42.2018C66.1859 41.4183 66.1331 40.6089 66.1637 39.7457C66.1924 38.941 66.498 38.2677 66.9953 37.6991C68.1909 36.334 70.4228 36.4211 71.5943 37.8371C71.6518 37.9065 71.7027 37.9806 71.7573 38.0547C71.9194 37.9871 71.8323 37.8621 71.8323 37.7759C71.8398 36.697 71.8574 35.6163 71.8268 34.5383C71.8148 34.1151 72.0676 34.179 72.2982 34.2021C72.5269 34.2253 72.8825 34.0197 72.8807 34.5281C72.8705 37.4268 72.8696 40.3255 72.8816 43.2242C72.8835 43.7252 72.5417 43.5465 72.3047 43.565C72.0713 43.5835 71.7851 43.6502 71.8314 43.2288C71.8601 42.963 71.837 42.6907 71.837 42.3212ZM69.4939 37.7435C68.1317 37.7407 67.2009 38.7382 67.1944 40.2051C67.188 41.6665 68.1326 42.7056 69.4699 42.7065C70.8331 42.7083 71.8407 41.6581 71.849 40.2282C71.8574 38.7946 70.8636 37.7463 69.4939 37.7435Z" fill="white"/>
<path d="M26.8304 38.0371C26.9943 37.6009 27.3342 37.3388 27.7241 37.1221C29.6106 36.0747 31.9684 37.2258 32.3259 39.3679C32.5537 40.7348 32.3296 41.9748 31.2637 42.9472C30.0588 44.0465 27.9954 44.0762 26.948 42.6037C26.9082 42.5481 26.8276 42.4879 26.7674 42.4888C26.6646 42.4907 26.6878 42.5963 26.685 42.6685C26.6813 42.7454 26.685 42.8231 26.6841 42.9C26.6813 43.5594 26.4544 43.7317 25.8145 43.5779C25.5617 43.5168 25.6858 43.3288 25.6858 43.2066C25.6765 41.5099 25.6793 39.8124 25.6793 38.1158C25.6793 36.8063 25.6793 35.4959 25.6793 34.1854C26.3763 34.2083 26.7248 34.5571 26.7248 35.2319C26.7248 36.0339 26.7193 36.8368 26.7304 37.6388C26.7323 37.7722 26.6295 37.9528 26.835 38.0398L26.8313 38.0371H26.8304ZM29.0892 37.7435C27.7102 37.7435 26.7184 38.7678 26.71 40.2041C26.7017 41.6276 27.7065 42.6953 29.0651 42.7065C30.4005 42.7176 31.36 41.685 31.3683 40.2282C31.3766 38.7705 30.4348 37.7435 29.0882 37.7435H29.0892Z" fill="white"/>
<path d="M64.7551 41.6081C64.1355 42.9074 63.1742 43.6251 61.7462 43.6918C60.1552 43.7659 59.0318 43.1075 58.377 41.6433C57.8279 40.4162 58.1816 38.7955 59.0216 37.7666C60.0023 36.5664 62.5121 36.4581 63.6188 37.3916C64.5338 38.1639 64.881 39.1521 64.9227 40.2986C64.9347 40.6209 64.7051 40.532 64.5412 40.532C62.9223 40.5357 61.3035 40.5347 59.6847 40.5347C59.3266 40.5347 59.1926 40.7045 59.2828 41.0441C59.7292 42.7222 61.9953 43.3649 63.1937 42.0869C63.6521 41.5979 64.0966 41.5192 64.6653 41.572C64.6791 41.5729 64.6912 41.5822 64.7551 41.6072V41.6081ZM61.5026 39.5531C62.15 39.5531 62.7973 39.5373 63.4437 39.5596C63.7836 39.5707 63.7892 39.442 63.6966 39.1799C63.3808 38.2797 62.5547 37.7037 61.5628 37.7083C60.5339 37.7138 59.6717 38.3232 59.3522 39.2308C59.2467 39.5309 59.3504 39.5623 59.6069 39.5577C60.2385 39.5466 60.8701 39.554 61.5026 39.554V39.5531Z" fill="white"/>
<path d="M40.2422 41.5962C39.9245 42.3945 39.4068 42.9641 38.6474 43.353C37.3065 44.0393 35.407 43.7355 34.518 42.6899C33.953 42.0259 33.6697 41.2665 33.6335 40.3849C33.5891 39.3152 33.8854 38.3789 34.643 37.6353C35.6163 36.6796 36.8369 36.5601 38.0797 36.8814C39.2772 37.1908 39.9912 38.0604 40.2848 39.2448C40.6024 40.5303 40.5839 40.5349 39.292 40.5349C37.9038 40.5349 36.5165 40.5516 35.1292 40.5247C34.705 40.5164 34.6828 40.6784 34.7671 41.0091C35.2357 42.84 37.5787 43.2252 38.6993 42.1111C39.3161 41.498 39.3318 41.5129 40.2422 41.5953V41.5962ZM37.024 39.5532C37.6704 39.5532 38.3178 39.5421 38.9642 39.5579C39.2531 39.5643 39.2985 39.4893 39.2068 39.2152C38.8956 38.2919 38.0649 37.6955 37.0564 37.7057C36.0377 37.7159 35.1366 38.3475 34.8504 39.2347C34.7717 39.4791 34.8152 39.5634 35.0838 39.5569C35.7302 39.543 36.3776 39.5523 37.024 39.5523V39.5532Z" fill="white"/>
<path d="M7.47681 39.2948C7.47681 37.9992 7.4833 36.7036 7.47126 35.4089C7.46848 35.1403 7.51941 35.0357 7.82132 35.0394C9.37902 35.0561 10.9367 35.0598 12.4944 35.0394C12.9991 35.0329 12.8519 35.3682 12.8889 35.6349C12.9352 35.9674 12.8019 36.0414 12.4833 36.0368C11.2803 36.0174 10.0773 36.0368 8.8743 36.0229C8.59461 36.0192 8.4983 36.0942 8.50663 36.3832C8.52608 37.0453 8.52608 37.7093 8.50663 38.3724C8.4983 38.6475 8.60017 38.703 8.85207 38.7003C9.97821 38.6882 11.1043 38.7179 12.2296 38.6836C12.6611 38.6706 12.612 38.9049 12.6009 39.167C12.5898 39.4198 12.7158 39.7162 12.2305 39.7014C11.121 39.6662 10.0097 39.6986 8.8993 39.6847C8.61314 39.681 8.49367 39.7375 8.50478 40.0579C8.52979 40.7821 8.52701 41.5082 8.50478 42.2315C8.49552 42.5297 8.60017 42.588 8.87522 42.5843C10.0319 42.5695 11.1895 42.6019 12.3453 42.5658C12.7991 42.5519 12.8908 42.6825 12.9056 43.1215C12.9213 43.5873 12.7232 43.5808 12.3796 43.578C10.9145 43.5623 9.44848 43.5512 7.98432 43.5836C7.53794 43.5938 7.45922 43.4456 7.46755 43.0427C7.49256 41.7944 7.47681 40.5451 7.47681 39.2957V39.2948Z" fill="white"/>
<path d="M105.034 36.8563C104.164 37.6453 103.396 38.3463 102.623 39.0428C102.304 39.3308 101.982 39.617 101.651 39.8892C101.364 40.1245 101.673 40.1995 101.767 40.2865C102.908 41.3423 104.059 42.386 105.207 43.4334C105.228 43.4529 105.24 43.4825 105.256 43.5084C104.26 43.8233 103.578 43.3297 102.91 42.6694C102.155 41.9211 101.333 41.2395 100.461 40.4578C100.461 41.4423 100.447 42.3017 100.468 43.1602C100.477 43.488 100.375 43.5862 100.048 43.5779C99.393 43.5621 99.393 43.5807 99.393 42.937C99.393 40.1448 99.393 37.3517 99.393 34.5595V34.2002C99.5792 34.215 99.7551 34.2715 99.9089 34.2345C100.455 34.1002 100.476 34.3836 100.47 34.8142C100.448 36.433 100.461 38.0528 100.461 39.6623C100.54 39.7133 100.588 39.6771 100.633 39.6345C101.565 38.7575 102.501 37.8851 103.423 36.9979C103.582 36.8461 103.748 36.8563 103.928 36.8563C104.249 36.8563 104.568 36.8563 105.033 36.8563H105.034Z" fill="white"/>
<path d="M85.8628 40.1911C85.784 38.2565 87.3621 36.6812 89.3662 36.7377C91.2758 36.7914 92.7798 38.2833 92.777 40.2217C92.7742 42.2322 91.2508 43.6649 89.1819 43.6973C87.3677 43.726 85.7488 42.1294 85.8628 40.1911ZM91.7185 40.2819C91.7518 38.8844 90.7627 37.7712 89.4634 37.7443C87.9678 37.7129 86.9454 38.689 86.9185 40.1735C86.8935 41.5867 87.89 42.6721 89.2402 42.7018C90.6405 42.7323 91.6842 41.7127 91.7185 40.2819Z" fill="white"/>
<path d="M105.394 41.4637C105.583 41.4637 105.738 41.4767 105.89 41.4609C106.264 41.4211 106.574 41.4683 106.683 41.9082C106.707 42.0036 106.797 42.087 106.869 42.1638C107.529 42.8584 109.388 42.9038 110.106 42.2685C110.381 42.0249 110.342 41.7193 110.281 41.4646C110.205 41.1507 109.853 41.0442 109.571 40.9784C108.614 40.7562 107.665 40.5163 106.742 40.1774C106.249 39.9968 105.789 39.4652 105.785 39.0438C105.773 37.6593 106.21 37.1073 107.59 36.8304C108.515 36.6443 109.425 36.6961 110.274 37.162C110.782 37.4407 111.095 37.8834 111.275 38.428C111.3 38.5039 111.335 38.5789 111.288 38.6456C111.217 38.7447 110.282 38.6687 110.205 38.5641C109.696 37.8704 108.726 37.5435 107.846 37.7936C107.635 37.8538 107.401 37.8519 107.217 38.0131C106.988 38.2122 106.794 38.4159 106.835 38.753C106.875 39.0809 107.117 39.2337 107.378 39.3179C107.943 39.5004 108.523 39.6393 109.094 39.8023C109.534 39.9282 109.983 40.0329 110.404 40.2061C110.916 40.4154 111.342 40.7413 111.408 41.3544C111.493 42.1361 111.283 42.8167 110.569 43.2085C109.808 43.6261 109.001 43.8382 108.093 43.6975C107.508 43.6067 106.969 43.4539 106.48 43.1538C105.879 42.7834 105.56 42.1953 105.392 41.4646L105.394 41.4637Z" fill="white"/>
<path d="M95.2988 38.0759C95.8377 37.0701 96.687 36.7238 97.7548 36.7414C98.0113 36.746 98.1261 36.8043 98.0909 37.0748C98.0734 37.2109 98.0752 37.3535 98.0909 37.4906C98.1178 37.7277 98.0409 37.7962 97.79 37.8008C96.1517 37.8304 95.3303 38.6612 95.3034 40.3115C95.2876 41.2681 95.2886 42.2248 95.3062 43.1815C95.3117 43.4769 95.246 43.5871 94.9274 43.5806C94.2652 43.5667 94.2652 43.5862 94.2652 42.9203C94.2652 41.0533 94.2856 39.1863 94.2513 37.3202C94.243 36.846 94.4523 36.8627 94.7922 36.8488C95.1747 36.833 95.3793 36.8969 95.3071 37.3415C95.2682 37.5813 95.2997 37.8332 95.2997 38.0786L95.2988 38.0759Z" fill="white"/>
<path d="M119.271 28.5446C119.486 28.2584 119.668 28.0232 119.842 27.7815C119.993 27.5722 120.207 27.6815 120.384 27.6879C120.604 27.6963 120.503 27.9028 120.505 28.0186C120.517 28.527 120.508 29.0354 120.512 29.5438C120.513 29.7078 120.522 29.8365 120.284 29.8374C120.052 29.8383 119.998 29.7541 120.007 29.5411C120.023 29.203 120.011 28.8641 120.011 28.4816C119.788 28.6085 119.674 28.7993 119.555 28.9771C119.387 29.2308 119.265 29.3929 119.012 29.0225C118.893 28.8502 118.795 28.6381 118.571 28.4427C118.571 28.865 118.559 29.2253 118.575 29.5837C118.585 29.8041 118.483 29.8328 118.3 29.8337C118.114 29.8346 118.067 29.7587 118.071 29.5855C118.079 29.0771 118.066 28.5687 118.079 28.0602C118.083 27.9297 117.968 27.7185 118.206 27.6833C118.394 27.6555 118.602 27.6259 118.744 27.8361C118.903 28.0732 119.085 28.2964 119.27 28.5446H119.271Z" fill="white"/>
<path d="M116.522 29.7939C116.522 29.4531 116.505 29.0586 116.528 28.6669C116.546 28.3557 116.503 28.1594 116.121 28.226C115.906 28.264 115.77 28.1723 115.764 27.926C115.759 27.7583 115.799 27.6694 115.987 27.6713C116.493 27.6778 117.001 27.6769 117.508 27.6713C117.678 27.6694 117.71 27.7537 117.707 27.9C117.703 28.0353 117.696 28.1621 117.518 28.1362C117.059 28.0677 117.007 28.3325 117.036 28.6891C117.052 28.8873 117.03 29.0892 117.041 29.2873C117.062 29.6439 117.07 29.9764 116.522 29.7948V29.7939Z" fill="white"/>
<path d="M26.8304 38.0371C26.8304 38.0371 26.8344 38.0391 26.8344 38.0401L26.8304 38.0371Z" fill="#DC972E"/>
</svg>
