<svg width="111" height="24" viewBox="0 0 111 24" fill="none" xmlns="http://www.w3.org/2000/svg">
<g clip-path="url(#clip0_2216_4549)">
<path d="M33.8916 4.5309H35.8864V18.3151H42.4892V19.9907H33.8916V4.5309Z" fill="white"/>
<path d="M54.3719 14.3454C54.3719 18.448 51.5259 20.2367 48.8462 20.2367C45.8407 20.2367 43.5267 18.0358 43.5267 14.5249C43.5267 10.8079 45.9604 8.63353 49.0324 8.63353C52.1044 8.63353 54.3719 10.9475 54.3719 14.3454ZM45.5681 14.4584C45.5681 16.8921 46.9644 18.7207 48.9393 18.7207C50.9142 18.7207 52.3105 16.912 52.3105 14.4119C52.3105 12.5301 51.373 10.1496 48.9858 10.1496C46.5987 10.1496 45.5681 12.3505 45.5681 14.4584Z" fill="white"/>
<path d="M56.9186 11.8917C56.9186 10.748 56.8986 9.80382 56.8255 8.88621H58.6142L58.7272 10.7214H58.7738C59.3257 9.66419 60.609 8.63353 62.4442 8.63353C63.9802 8.63353 66.3674 9.55115 66.3674 13.3546V19.984H64.3526V13.5873C64.3526 11.7986 63.6877 10.3092 61.7859 10.3092C60.456 10.3092 59.4254 11.2467 59.0796 12.3705C58.9865 12.6232 58.94 12.9689 58.94 13.3081V19.984H56.9252V11.8917H56.9186Z" fill="white"/>
<path d="M71.9861 5.7012V8.88626H74.8786V10.4223H71.9861V16.4067C71.9861 17.7831 72.3784 18.5611 73.5021 18.5611C74.0274 18.5611 74.4198 18.4946 74.6724 18.4215L74.7655 19.9375C74.3732 20.0971 73.7548 20.2102 72.9768 20.2102C72.0393 20.2102 71.2813 19.9109 70.7958 19.359C70.224 18.7606 70.0179 17.7765 70.0179 16.4666V10.4156H68.2957V8.87961H70.0179V6.21985L71.9927 5.69455L71.9861 5.7012Z" fill="white"/>
<path d="M79.394 5.76767C79.4139 6.45256 78.9152 7.00446 78.1106 7.00446C77.3991 7.00446 76.8938 6.45256 76.8938 5.76767C76.8938 5.08278 77.4191 4.50429 78.1572 4.50429C78.8952 4.50429 79.394 5.05619 79.394 5.76767ZM77.1465 19.9841V8.88624H79.1612V19.9841H77.1465Z" fill="white"/>
<path d="M91.8015 16.9585C91.8015 18.1022 91.8214 19.1129 91.8945 19.984H90.1059L89.9928 18.1753H89.9463C89.421 19.0663 88.2507 20.2366 86.2758 20.2366C84.5337 20.2366 82.4458 19.2725 82.4458 15.3759V8.88612H84.4605V15.0302C84.4605 17.138 85.1055 18.561 86.9341 18.561C88.2839 18.561 89.2281 17.6234 89.5939 16.7258C89.7069 16.4265 89.78 16.0608 89.78 15.6951V8.88612H91.7948V16.9585H91.8015Z" fill="white"/>
<path d="M95.1526 11.8917C95.1526 10.748 95.1326 9.80382 95.0595 8.88621H96.8282L96.9213 10.6749H96.9878C97.6062 9.61764 98.6369 8.63353 100.472 8.63353C101.988 8.63353 103.132 9.55115 103.611 10.8544H103.657C104.003 10.236 104.435 9.75063 104.894 9.41151C105.559 8.90615 106.29 8.63353 107.348 8.63353C108.817 8.63353 110.991 9.59769 110.991 13.4477V19.984H109.017V13.7004C109.017 11.5659 108.239 10.2826 106.609 10.2826C105.466 10.2826 104.568 11.1337 104.222 12.1178C104.129 12.3904 104.063 12.7628 104.063 13.1285V19.984H102.088V13.3346C102.088 11.5659 101.31 10.2826 99.7739 10.2826C98.5105 10.2826 97.5929 11.2933 97.2737 12.2973C97.1607 12.5966 97.1141 12.9423 97.1141 13.2815V19.9774H95.1393V11.8851L95.1526 11.8917Z" fill="white"/>
<path d="M8.63753 6.45885V7.53605H18.4121V17.3107H19.4893V6.45885H8.63753Z" fill="#007D3D"/>
<path d="M8.63753 3.76596V5.11579H20.8392V17.3108H22.1823V3.76596H8.63753Z" fill="#007D3D"/>
<path d="M8.63753 0.886734V2.51583H23.3992V17.2775H25.0283V0.886734H8.63753Z" fill="#007D3D"/>
<path d="M7.19427 1.33868H5.63167V19.1258H23.8643V18.0154H7.19427V1.33868Z" fill="#007D3D"/>
<path d="M4.53452 3.69974H2.97191V21.4869H14.748V20.3698H4.53452V3.69974Z" fill="#007D3D"/>
<path d="M2.33385 6.21274H0.771248V23.9999H11.3238V22.8894H2.33385V6.21274Z" fill="#007D3D"/>
</g>
<defs>
<clipPath id="clip0_2216_4549">
<rect width="110.227" height="23.1133" fill="white" transform="translate(0.771049 0.886719)"/>
</clipPath>
</defs>
</svg>
