<svg width="86" height="22" viewBox="0 0 86 22" fill="none" xmlns="http://www.w3.org/2000/svg">
<path d="M13.3898 0.755821C16.3378 1.34772 18.9696 3.26062 20.4625 5.86812C20.9287 6.66512 21.309 7.52912 21.5345 8.42592C18.8224 11.1478 16.1033 13.8627 13.3842 16.5769C13.0408 16.4262 12.7289 16.2656 12.3464 16.2349C11.6743 16.184 10.968 16.4701 10.5618 17.018C9.9728 17.7466 10.0063 18.9107 10.6295 19.6087C11.2451 20.3429 12.4001 20.502 13.2174 20.0232C13.7534 19.721 14.11 19.1662 14.1931 18.559C14.2852 18.0251 14.1177 17.54 13.8525 17.0836C14.7437 16.1651 15.6615 15.2718 16.5611 14.3617C18.2829 12.6497 19.9886 10.9217 21.718 9.21742C22.2959 12.0614 21.6133 15.0959 19.9314 17.4514C18.6521 19.2381 16.834 20.6248 14.7549 21.3458C13.3005 21.8664 11.7204 22.043 10.1843 21.9013C8.3313 21.731 6.5146 21.0596 5.0071 19.9667C5.2786 19.6596 5.5752 19.3797 5.8628 19.088C8.5037 16.4485 11.1446 13.8083 13.7848 11.1674C13.9872 10.9594 14.2301 10.7563 14.3843 10.5085C14.5637 10.2398 14.4883 9.83082 14.5023 9.51892C14.5134 8.46432 14.4743 7.40632 14.5274 6.35312C15.0571 6.21632 15.5415 5.94692 15.8499 5.48422C16.3483 4.78492 16.3238 3.74642 15.785 3.07642C15.5101 2.70372 15.0871 2.45462 14.6432 2.34012C13.9565 2.16912 13.1993 2.39452 12.7114 2.90542C12.4364 3.18392 12.2515 3.53912 12.1642 3.91952C12.0358 4.53712 12.2124 5.20162 12.6367 5.66922C12.9501 6.03772 13.3709 6.23382 13.8288 6.36012C13.8281 7.52772 13.8295 8.70302 13.8288 9.86992C13.8434 10.228 13.5971 10.3885 13.3772 10.6209C10.6414 13.3518 7.9097 16.087 5.1753 18.8193C4.9352 19.0622 4.693 19.303 4.4439 19.5368C3.5987 18.8612 2.8729 18.0502 2.2706 17.152C2.1135 16.9266 1.9761 16.6928 1.8658 16.4408C2.5616 15.7576 3.2477 15.0624 3.9372 14.3722C4.0084 14.3094 4.0831 14.2165 4.1787 14.1977C4.5165 14.294 4.7894 14.4832 5.1565 14.488C5.7595 14.5474 6.3478 14.3631 6.7819 13.936C7.3486 13.3916 7.5545 12.5234 7.283 11.785C7.0583 11.1136 6.4637 10.6062 5.7713 10.4722C5.2939 10.3843 4.7935 10.4436 4.3671 10.683C3.6594 11.0571 3.2518 11.8688 3.3307 12.6609C3.3412 13.0392 3.5261 13.3176 3.6664 13.6512C3.5673 13.8069 3.4138 13.936 3.2853 14.0679C2.6949 14.6458 2.1261 15.246 1.5231 15.8113C0.832202 14.3589 0.453902 12.7342 0.487402 11.1234C0.500002 10.9796 0.474102 10.8533 0.588602 10.7451C1.4184 9.90552 2.2685 9.06872 3.0997 8.22912C3.2274 8.10282 3.3523 7.96252 3.4982 7.85782C3.6266 7.76572 3.8192 7.76782 3.9707 7.76152C4.7984 7.76222 5.6269 7.76922 6.4546 7.75872C6.5886 8.12232 6.6996 8.46292 6.9606 8.75952C7.4714 9.35702 8.3145 9.60402 9.069 9.38562C9.8123 9.17552 10.3846 8.53272 10.5186 7.77412C10.6142 7.13832 10.4467 6.47462 9.9972 6.00422C9.307 5.27132 8.0856 5.17852 7.2844 5.78502C6.8531 6.10192 6.6137 6.55762 6.4748 7.06502C5.5934 7.08032 4.7119 7.06852 3.8304 7.07132C3.6259 7.07272 3.4298 7.09222 3.2463 7.18992C3.0348 7.30232 2.8603 7.51312 2.6907 7.67992C1.9998 8.36872 1.3158 9.06242 0.617203 9.74222C0.647203 9.46792 0.675104 9.19432 0.737204 8.92422C1.1016 7.33932 1.8162 5.81712 2.8387 4.55042C3.8186 3.32282 5.0671 2.31782 6.4762 1.62542C8.5951 0.575821 11.0769 0.263821 13.3898 0.755821Z" fill="#E0384F"/>
<path d="M25.6062 4.74496C26.0829 4.73166 26.5784 4.72336 27.0481 4.80776C27.0809 6.30756 27.0579 7.81096 27.0397 9.31146C27 11.0681 26.9944 12.8241 26.9246 14.5794C26.9134 15.449 26.8792 16.3172 26.8422 17.1868C26.0682 17.1763 25.2824 17.2154 24.5133 17.133C24.4889 16.8985 24.4714 16.664 24.4686 16.4281C24.4037 13.358 24.4233 10.2851 24.4805 7.21486C24.5175 6.52256 24.5049 5.80996 24.5817 5.12116C24.611 5.00736 24.5705 4.89016 24.708 4.84826C24.99 4.76036 25.3131 4.75616 25.6062 4.74496Z" fill="white"/>
<path d="M70.9011 5.50437C71.7973 5.55817 72.7408 5.71657 73.5644 6.08577C73.7856 6.19747 74.0634 6.30907 74.2197 6.50657C74.2023 6.81507 74.0711 7.12777 73.9608 7.41457C73.7731 7.86127 73.57 8.32327 73.2894 8.72107C72.3361 8.26817 71.3394 7.96667 70.2737 8.00087C69.9394 8.01897 69.5437 8.09297 69.2848 8.32047C69.0077 8.55147 68.9295 8.97927 69.0998 9.29547C69.2192 9.49647 69.4634 9.61577 69.6714 9.70237C70.2995 9.95357 70.9688 10.0444 71.6353 10.2503C72.4421 10.4966 73.2985 10.8609 73.8631 11.5107C74.2197 11.8911 74.4165 12.3656 74.5254 12.8702C74.6832 13.6889 74.5694 14.548 74.136 15.2669C73.7598 15.8629 73.2182 16.3438 72.5768 16.6376C71.5307 17.1331 70.2933 17.2078 69.157 17.0884C68.0662 16.9475 66.9488 16.6048 66.0276 15.992C66.0569 15.6319 66.1707 15.2969 66.2914 14.9591C66.4589 14.5055 66.6299 14.0372 66.9104 13.6428C67.4744 13.9995 68.0788 14.3645 68.7187 14.562C69.3546 14.7735 70.0462 14.837 70.7008 14.6806C70.957 14.6157 71.2333 14.4838 71.3771 14.2514C71.5418 13.9771 71.5621 13.58 71.3604 13.319C71.1922 13.1061 70.9402 12.9652 70.6911 12.8681C70.019 12.6106 69.3518 12.531 68.6573 12.321C68.1583 12.1765 67.6796 11.9364 67.2608 11.6293C66.7632 11.2378 66.3926 10.6809 66.2481 10.0618C66.0653 9.33457 66.0513 8.50967 66.3256 7.80337C66.6082 7.01607 67.265 6.36357 68.0076 5.99777C68.8974 5.55047 69.9185 5.44647 70.9011 5.50437Z" fill="white"/>
<path d="M83.7061 5.78572C84.2451 5.95872 84.8241 6.18422 85.2521 6.56312C85.1111 7.17732 84.8621 7.76982 84.5841 8.33382C84.4701 8.57242 84.3271 8.78602 84.1601 8.98982C83.1991 8.45942 82.1151 8.08042 81.0051 8.25492C80.0013 8.42452 79.1645 9.14752 78.8015 10.0911C78.4749 10.9481 78.4952 11.8959 78.7673 12.7648C78.9272 13.2945 79.2678 13.7768 79.704 14.1146C80.263 14.5396 80.956 14.6932 81.6501 14.6415C82.5231 14.5857 83.2721 14.2039 83.9631 13.6917C84.5441 14.287 84.9281 15.098 85.3081 15.8308C84.8961 16.2614 84.3921 16.5817 83.8491 16.8218C82.6531 17.3613 81.3401 17.496 80.0452 17.3313C79.0793 17.1847 78.1678 16.8309 77.4253 16.1853C76.557 15.4476 76.0127 14.4189 75.7433 13.3225C75.522 12.4047 75.4362 11.4374 75.5472 10.4973C75.6881 9.35902 76.1229 8.27232 76.8872 7.40902C77.761 6.40682 78.983 5.79962 80.2874 5.58882C81.4101 5.41022 82.6111 5.47722 83.7061 5.78572Z" fill="white"/>
<path d="M54.6395 5.62569C53.3819 5.63959 52.1102 5.6599 50.8595 5.8044C50.7457 7.3202 50.7751 8.83819 50.7214 10.3561C50.7074 12.0779 50.6948 13.799 50.6983 15.5208C50.7122 16.047 50.6836 16.5906 50.7472 17.1119C51.0591 17.1713 51.3921 17.1511 51.7083 17.1504C52.3071 17.1322 52.9163 17.1399 53.5109 17.0638C53.6121 16.0518 53.5605 15.0678 53.5898 14.0544C53.6009 13.7892 53.603 13.5247 53.6023 13.2602C53.959 13.2769 54.3135 13.2811 54.6702 13.2728C55.5921 14.4739 56.4338 15.7504 57.2595 17.0185C57.3327 17.1232 57.4033 17.2509 57.5066 17.3269C57.8025 17.329 58.1151 17.2069 58.3935 17.1148C58.9575 16.9103 59.5361 16.6779 60.0393 16.3477C59.9604 16.1712 59.8718 16.0002 59.7685 15.8369C59.1006 14.776 58.367 13.7571 57.5756 12.7849C58.1995 12.5127 58.7516 12.1387 59.1222 11.5545C59.5507 10.8985 59.668 10.079 59.6401 9.30919C59.5975 8.53529 59.379 7.7027 58.88 7.0927C58.4228 6.5141 57.7466 6.13719 57.0494 5.92439C56.2607 5.68009 55.461 5.62149 54.6395 5.62569ZM54.7598 8.1445C55.1964 8.1407 55.6313 8.1784 56.0102 8.3539C56.4533 8.543 56.69 8.9777 56.7165 9.446C56.7667 9.9639 56.6174 10.4727 56.154 10.7553C55.4742 11.165 54.5208 11.0303 53.7636 10.9857C53.7698 10.0512 53.7698 9.11739 53.7636 8.18349C54.0796 8.17559 54.4203 8.1475 54.7598 8.1445Z" fill="white"/>
<path d="M63.6428 5.65431C63.8975 5.65701 64.1488 5.68361 64.4 5.72061C64.5068 6.87561 64.4426 8.01321 64.4866 9.16901C64.4929 10.1928 64.488 11.2167 64.4887 12.2405C64.4454 13.8632 64.4949 15.4837 64.3875 17.105C63.9338 17.2543 63.4216 17.2432 62.9456 17.2439C62.4508 17.2236 61.9824 17.2362 61.496 17.1448C61.4074 13.9462 61.4143 10.7421 61.4492 7.54281C61.4534 6.94401 61.4806 6.34731 61.5107 5.74851C62.2176 5.62151 62.9232 5.64031 63.6428 5.65431Z" fill="white"/>
<path d="M47.2375 8.83276C48.0289 8.94656 48.8364 9.13566 49.6006 9.37506C49.4541 9.93546 49.2803 10.4876 49.096 11.0368C48.4867 12.8772 47.8502 14.7093 47.1942 16.5336C47.1118 16.7451 47.0455 16.974 46.9304 17.1701C46.8096 17.2476 46.6142 17.2308 46.4739 17.2434C45.7739 17.2392 45.0662 17.2064 44.3739 17.1017C43.9503 15.8587 43.5936 14.5955 43.2677 13.3232C43.1274 13.6512 43.0248 13.9848 42.9013 14.3177C42.5712 15.2285 42.2125 16.1281 41.8349 17.0208C41.7874 17.1038 41.7756 17.2022 41.6625 17.2113C41.479 17.2441 41.287 17.2455 41.1007 17.2441C40.4614 17.2267 39.8263 17.2071 39.1933 17.1094C38.6733 15.3507 38.1618 13.5898 37.6753 11.822C37.4576 10.9894 37.1965 10.1581 37.0549 9.30946C37.8316 9.07986 38.6454 8.95206 39.4487 8.85856C39.5792 9.18866 39.6769 9.52786 39.7656 9.87126C40.148 11.3055 40.453 12.7565 40.7957 14.1991C41.1754 13.0231 41.6765 11.8981 42.1022 10.7402C42.1545 10.5748 42.239 10.4268 42.1783 10.2524C42.0673 9.86916 41.8935 9.52576 41.8621 9.12026C42.4051 8.97166 42.9816 8.91236 43.542 8.88026C43.7151 8.87816 43.9133 8.85506 44.0794 8.90886C44.1897 9.03376 44.2287 9.23896 44.2839 9.39456C44.755 10.9796 45.1695 12.5827 45.5855 14.183C46.1166 12.4997 46.5835 10.796 47.1216 9.11406C47.1537 9.01906 47.1893 8.92136 47.2375 8.83276Z" fill="white"/>
<path d="M32.4458 8.97508C33.365 8.98408 34.2604 9.26258 34.9974 9.81748C34.4544 10.3744 33.9003 10.9202 33.3517 11.4708C33.0781 11.355 32.8171 11.2468 32.5156 11.2307C31.8979 11.1889 31.2719 11.4492 30.8776 11.928C30.6026 12.249 30.4477 12.6559 30.4135 13.0753C30.373 13.753 30.7003 14.4342 31.2621 14.8173C31.884 15.2549 32.7669 15.2821 33.4131 14.8808C34.0971 14.4795 34.4719 13.6462 34.3337 12.8667C34.289 12.5882 34.1683 12.3551 34.0433 12.1073C34.5842 11.5713 35.1153 11.0262 35.6576 10.4923C36.3911 11.4666 36.6242 12.7096 36.456 13.9024C36.3493 14.5207 36.1294 15.1119 35.7491 15.6158C35.2438 16.3248 34.4837 16.8434 33.6462 17.0744C32.584 17.3787 31.3892 17.3033 30.3988 16.8001C29.6486 16.426 29.0379 15.7763 28.6764 15.0232C28.2548 14.0552 28.118 12.9309 28.4146 11.907C28.6603 11.0067 29.2424 10.1943 30.0129 9.66808C30.7268 9.18028 31.586 8.95758 32.4458 8.97508Z" fill="white"/>
</svg>
