<svg width="125" height="50" viewBox="0 0 125 50" fill="none" xmlns="http://www.w3.org/2000/svg">
<path d="M61.7804 37.0822C61.0955 37.0822 60.0264 36.3977 60.0264 35.4959C60.0264 35.0783 60.1934 34.8612 60.7113 34.5439C61.6968 34.0095 62.3149 33.5252 62.7993 32.7069C63.05 32.306 63.1669 32.0388 63.2671 31.755C63.384 31.354 63.3339 30.97 63.1835 30.5859C61.9308 27.0956 60.5108 23.605 60.0766 22.553C59.6423 21.551 59.3249 21.2671 58.1054 21.0498V20.265H64.2861V21.0498C63.2671 21.2837 63.0165 21.384 63.2838 22.1186L65.1881 27.5464C65.7226 26.2939 66.6247 23.7052 67.059 22.3858C67.3262 21.6343 67.0756 21.2837 65.8897 21.0498V20.265H70.3664V21.0498C69.1802 21.2671 68.9298 21.4842 68.2784 22.8203C67.6603 24.0392 66.8083 26.1602 65.3551 29.5337C63.6346 33.4751 63.1334 34.9781 62.6825 36.4143C62.482 36.9488 62.1646 37.0822 61.7804 37.0822ZM87.1156 37.0822C83.925 37.0822 82.4884 35.4458 82.4884 34.0931C82.4884 33.5086 82.8058 33.091 83.2902 32.7069C83.9084 32.1891 84.4928 31.9219 85.1445 31.5044C84.092 31.1369 83.6411 30.7362 83.2736 30.1683C83.0063 29.7843 82.856 29.1496 82.9061 28.8323C84.1422 28.3145 84.9273 27.6632 85.4117 27.2291C83.9084 26.7113 83.0063 25.4755 83.0063 23.9891C83.0063 21.217 85.6289 19.981 87.8171 19.981H87.8504C88.8192 19.981 89.5041 20.1648 90.4397 20.6156C91.7926 20.5655 93.1456 20.4154 94.1144 20.3151L94.2482 20.4821C94.0978 20.8997 93.6134 21.7346 93.129 22.0186L91.709 21.9015C92.11 22.3526 92.3773 22.9202 92.3773 23.7387C92.3773 26.2937 90.0387 27.563 87.6166 27.563C87.0821 27.563 86.6811 27.4963 86.3637 27.4461C86.1634 27.6466 86.013 27.8302 86.013 28.0974C86.013 28.515 86.4307 29.0494 87.6668 29.0494C88.4351 29.0494 89.1366 28.9993 89.9051 28.9993C91.3417 28.9993 93.7638 29.3166 93.7638 32.0222C93.7638 34.8444 90.3727 37.0822 87.1156 37.0822ZM88.3849 35.6963C90.2558 35.6963 91.375 34.6942 91.375 33.3748C91.375 32.5231 90.7571 31.9721 89.9553 31.7716C89.287 31.6046 88.7691 31.588 87.8673 31.588H87.8504C86.6811 31.588 86.1133 31.7048 85.7458 32.0889C85.3782 32.4563 85.1946 32.8238 85.1946 33.3247C85.1946 34.4938 86.3637 35.6963 88.3849 35.6963ZM29.1544 31.3039C27.0997 31.3039 25.8805 30.0014 25.8805 27.7801V22.8704C25.8805 21.7346 25.7135 21.6011 25.0787 21.4172L24.494 21.2336V20.5154C25.0787 20.4821 25.8304 20.432 26.6488 20.3653C27.5007 20.2983 28.4028 20.1983 29.1043 20.0981C29.0376 21.0999 29.0376 22.3526 29.0376 23.7387V27.2792C29.0376 28.8489 29.8895 29.4335 30.7414 29.4335C31.4261 29.4335 32.0107 29.2665 32.5621 28.7321V22.8704C32.5621 21.7346 32.4284 21.551 31.7603 21.4172L30.9417 21.2336V20.5154C31.6601 20.4821 32.5453 20.432 33.4473 20.3653C34.3159 20.2983 35.1512 20.1983 35.7358 20.0981V27.9806C35.7358 29.2665 35.8696 29.4836 36.8049 29.6173L37.3394 29.6506V30.4355C36.6545 30.5358 35.953 30.6526 35.1512 30.8196C34.3494 30.97 33.5476 31.1369 32.7793 31.3039L32.5621 31.1369V29.6506C32.1279 30.0014 31.8606 30.2351 31.3092 30.5859C30.5742 31.0201 29.8895 31.3039 29.1544 31.3039ZM42.6026 31.3039C39.1951 31.3039 37.1739 28.7822 37.1739 26.1267C37.1739 24.3233 38.126 22.6198 39.6626 21.5008C41.3665 20.265 43.0202 19.981 43.9389 19.981H43.9724C44.841 19.981 45.6762 20.2149 46.1105 20.5824C46.4445 20.7994 46.5448 21.0999 46.5448 21.4842C46.5282 22.1355 45.91 22.8034 45.4757 22.8034C45.3087 22.8034 45.1583 22.7032 44.9412 22.5362C43.8721 21.6512 43.0703 21.2837 42.3854 21.2837C41.4667 21.2837 40.2642 22.0854 40.2642 24.7741C40.2642 27.9806 42.7197 29.066 43.7719 29.066C44.8243 29.066 45.5425 28.7988 46.4446 28.0473L46.9123 28.6318C45.743 30.2351 44.0893 31.3039 42.6026 31.3039ZM111.237 31.3039C109.316 31.3039 108.164 30.4189 108.164 28.2145V21.4673H106.593L106.46 21.15L107.161 20.265H108.164V18.4613L110.987 16.5241L111.338 16.6911V20.265H113.743C114.027 20.5154 113.977 21.2336 113.593 21.4673H111.338V27.4129C111.338 29.3332 112.273 29.5171 112.724 29.5171C113.108 29.5171 113.492 29.4168 113.977 29.2164L114.194 30.1016L112.206 31.0367C111.772 31.2372 111.371 31.3039 111.237 31.3039ZM54.5808 31.0702C53.8292 30.185 52.3593 27.9304 51.2401 26.227C51.0731 25.9766 50.9227 25.893 50.789 25.8595C50.7056 25.8429 50.622 25.8097 50.5386 25.8097V28.3981C50.5386 29.9679 50.7557 30.0014 52.1755 30.2185V31.0201H45.7946V30.2185C47.2979 30.0014 47.4483 29.9679 47.4483 28.3981V17.0752C47.4483 15.7225 47.2311 15.5555 45.9449 15.4052V14.7038C47.0306 14.5701 48.7846 14.3029 50.5386 13.8521V25.108C51.1233 24.9579 51.5908 24.5235 51.9251 24.1563C52.4596 23.605 53.1443 22.553 53.4115 22.0519C53.6788 21.5343 53.5619 21.2336 52.6266 21.0667V20.3151L58.0888 20.1147V20.8496C56.552 21.0999 55.6333 21.4172 54.9151 22.0854C54.2133 22.7701 53.846 23.1875 53.1443 24.1062C53.7959 25.175 56.0676 28.0473 56.786 28.9325C57.621 29.8845 58.0553 30.0681 58.9407 30.2185V31.0201L54.5808 31.0702ZM12.1482 31.0201V30.1517C14.3697 29.9679 14.6372 29.8344 14.6372 27.7134V18.4112C14.6372 16.3237 14.3697 16.1733 12.4321 16.0063V15.138H20.0995V16.0063C18.1785 16.1733 17.9445 16.3237 17.9445 18.4112V27.9473C17.9445 29.0995 18.0281 29.5171 18.546 29.7342C19.0135 29.9011 19.6652 29.9178 20.4501 29.9178C21.5192 29.9178 22.4379 29.7508 23.0225 29.0995C23.4903 28.5817 23.9414 27.8136 24.4425 26.5443L25.311 26.8115C25.1105 27.8803 24.576 30.3353 24.3923 31.0201H12.1482ZM69.3233 31.0201V30.2185C70.7931 29.9679 70.9435 29.8845 70.9435 28.2979V17.1588C70.9435 15.6724 70.7931 15.6223 69.4401 15.4553V14.7038C70.8767 14.5534 72.7141 14.2026 74.1174 13.8521V28.2979C74.1174 29.9512 74.2509 30.0515 75.7878 30.2185V31.0201H69.3233ZM76.2795 31.0201V30.4968C77.7344 30.3332 77.8831 30.279 77.8831 29.2434V21.9725C77.8831 21.0025 77.7342 20.9697 76.3952 20.8607V20.3698C77.8169 20.2717 79.6355 20.043 81.0241 19.814V29.2434C81.0241 30.3225 81.1564 30.3878 82.6773 30.4968V31.0201H76.2795ZM94.1976 31.0201V30.2185C95.6006 30.0681 95.751 30.0014 95.751 28.4482V17.0752C95.751 15.5722 95.6508 15.5722 94.3646 15.4218V14.7038C95.6508 14.5534 97.4382 14.2026 98.925 13.8521V21.551C99.7935 20.6992 101.03 19.981 102.232 19.981C104.37 19.981 105.707 21.3339 105.707 24.0561V28.4482C105.707 30.0014 105.857 30.0014 107.143 30.2185V31.0201H101.28V30.2185C102.499 30.0515 102.566 29.851 102.566 28.5316V24.3064C102.566 22.4027 101.715 21.768 100.712 21.768C100.128 21.768 99.4595 21.9516 98.925 22.4861V28.5316C98.925 29.851 99.0083 30.0515 100.077 30.2185V31.0201H94.1976ZM87.9005 26.6612C88.8693 26.6946 89.4039 25.6759 89.4039 23.839C89.4039 22.3526 88.8862 20.8828 87.6668 20.8828H87.6501C86.9151 20.8828 86.1634 21.8015 86.1634 23.605C86.1634 25.2251 86.6979 26.6612 87.9005 26.6612Z" fill="#011993"/>
<path d="M81.8843 15.9636C81.8843 14.7974 80.9801 13.8521 79.8649 13.8521C78.7498 13.8521 77.8456 14.7974 77.8456 15.9636C77.8456 17.13 78.7498 18.0754 79.8649 18.0754C80.9801 18.0754 81.8843 17.13 81.8843 15.9636Z" fill="#FF2600"/>
</svg>
