<svg width="125" height="50" viewBox="0 0 125 50" fill="none" xmlns="http://www.w3.org/2000/svg">
<path d="M42.5974 17.0215V29.9932H49.9378V33.0345H39.1571V17.0215H42.5974Z" fill="white"/>
<path d="M62.1048 20.8926V33.0363H58.896V31.884C58.0413 32.7603 56.7952 33.3356 55.3408 33.3356C52.247 33.3356 50.631 31.2155 50.631 28.4502V20.8926H54.048V28.0129C54.048 29.3498 54.9242 30.2943 56.3571 30.2943C57.7648 30.2943 58.6896 29.3498 58.6896 28.0828V20.8944H62.1048V20.8926Z" fill="white"/>
<path d="M67.3928 26.7673L62.9595 20.8926H66.7464L69.4703 24.5092L72.1709 20.8926H75.7961L71.2928 26.9286L75.8877 33.0345H72.1242L69.2153 29.1867L66.2616 33.0345H62.6363L67.3928 26.7673Z" fill="white"/>
<path d="M84.4059 26.9519C84.4059 25.0163 83.1598 23.6561 81.2654 23.6561C79.3729 23.6561 78.1034 25.0145 78.1034 26.9734C78.1034 28.9089 79.3729 30.2907 81.2654 30.2907C83.1131 30.2925 84.4059 28.9107 84.4059 26.9519ZM74.6649 26.9752C74.6649 23.3353 77.3888 20.6147 81.2439 20.6147C85.0757 20.6147 87.8229 23.3335 87.8229 26.9752C87.8229 30.5936 85.0757 33.3338 81.2439 33.3338C77.3888 33.3338 74.6649 30.5918 74.6649 26.9752Z" fill="white"/>
<path d="M100.428 25.3854V33.0361H97.0342V26.0538C97.0342 24.509 96.0179 23.6344 94.6335 23.6344C93.2707 23.6344 92.2095 24.6022 92.1861 25.846V33.0344H88.7709V20.8906H92.003V22.0197C92.8343 21.1666 94.1038 20.5913 95.6732 20.5913C98.582 20.5913 100.428 22.5502 100.428 25.3854Z" fill="white"/>
<path d="M101.606 20.8924H105.023V33.0362H101.606V20.8924ZM101.606 18.6809C101.606 17.7274 102.367 17.0195 103.322 17.0195C104.278 17.0195 105.021 17.7256 105.021 18.6809C105.021 19.6522 104.278 20.3422 103.322 20.3422C102.367 20.3422 101.606 19.654 101.606 18.6809Z" fill="white"/>
<path d="M105.571 30.1313L108.456 29.0256C108.779 30.0847 109.657 30.7084 111.018 30.7084C112.035 30.7084 112.634 30.2926 112.634 29.6026C112.634 27.4825 106.147 28.4969 106.147 24.3265C106.147 22.0218 108.039 20.6167 110.995 20.6167C113.419 20.6167 115.173 21.6078 115.681 23.2888L112.796 24.3946C112.496 23.5648 111.85 23.1508 110.948 23.1508C110.025 23.1508 109.517 23.52 109.517 24.1419C109.517 26.1007 116.028 24.9251 116.028 29.3948C116.028 31.8375 114.019 33.3339 110.903 33.3339C108.203 33.3339 106.262 32.2282 105.571 30.1313Z" fill="white"/>
<path d="M22.855 31.4002C19.4183 31.4002 16.6225 28.6098 16.6225 25.1778C16.6225 21.7476 19.4183 18.9572 22.855 18.9572C26.2918 18.9572 29.0875 21.7476 29.0875 25.1778C29.0893 28.608 26.2918 31.4002 22.855 31.4002ZM22.855 15.0771C17.9315 15.0771 13.8304 18.588 12.9236 23.2387H9.90884V27.1187H12.9236C13.8304 31.7694 17.9315 35.2803 22.855 35.2803C28.4447 35.2803 32.975 30.7586 32.975 25.1796C32.975 19.6006 28.4447 15.0771 22.855 15.0771Z" fill="#5724E8"/>
<path d="M22.855 25.6727C22.5821 25.6727 22.3594 25.4505 22.3594 25.1781C22.3594 24.9056 22.5821 24.6834 22.855 24.6834C23.1279 24.6834 23.3506 24.9056 23.3506 25.1781C23.3506 25.4505 23.1279 25.6727 22.855 25.6727ZM22.855 23.2407C21.7831 23.2407 20.914 24.1081 20.914 25.1781C20.914 26.248 21.7831 27.1154 22.855 27.1154C23.927 27.1154 24.796 26.248 24.796 25.1781C24.796 24.1081 23.927 23.2407 22.855 23.2407Z" fill="#5724E8"/>
</svg>
