<svg width="110" height="32" viewBox="0 0 110 32" fill="none" xmlns="http://www.w3.org/2000/svg">
<path fill-rule="evenodd" clip-rule="evenodd" d="M68.7255 5.32114H76.39V26.2202H68.7907L68.7255 5.32114Z" fill="#AEB3B6"/>
<path fill-rule="evenodd" clip-rule="evenodd" d="M31.0545 26.4166V17.376L26.272 26.4166H19.1966L14.2831 17.376V26.6139H5.1768V5.64907H17.4276L22.5379 15.8032L27.91 5.32135H40.0299V26.4166H31.0545ZM80.6487 5.12461C80.6487 5.12461 78.159 5.45232 78.159 7.61423V23.9269C78.159 23.9269 78.3552 26.2204 80.9764 26.2204H102.726C102.726 26.2204 104.823 26.0889 104.823 23.6644V16.7863H95.5859V19.8651H87.7235V11.2174H95.5195V13.838H104.757V7.54847C104.757 7.54847 105.02 5.05884 101.94 5.05884C98.9277 5.0594 80.6487 5.12461 80.6487 5.12461Z" fill="#AEB3B6"/>
<path fill-rule="evenodd" clip-rule="evenodd" d="M49.071 15.2791H59.685L61.9115 12.6585H46.7782L49.071 15.2791ZM46.1885 19.2106H62.5675L59.8806 16.1307H48.8743L46.1885 19.2106ZM49.7265 26.4816L52.2155 23.6642H42.3234L39.8989 26.4816H49.7265ZM68.7908 4.53475L70.9527 1.97992H61.3224L59.029 4.53475H68.7908ZM43.044 22.8132H65.6457L63.2218 19.9958H45.4679L43.044 22.8132ZM39.1783 27.3332L36.8854 30.0196H46.7124L49.0053 27.3332H39.1783ZM56.8024 23.6642L58.8986 26.2202H68.5282L66.3669 23.6642H56.8024ZM52.5433 7.94176L50.3161 5.32116H40.4886L42.7163 7.94176H52.5433ZM58.3084 5.32116L56.016 7.94176H65.9082L68.0701 5.32116H58.3084ZM46.0575 11.8069H62.6327L65.1876 8.7276H43.4369L46.0575 11.8069Z" fill="#8C2745"/>
</svg>
