<svg width="224" height="44" viewBox="0 0 224 44" fill="none" xmlns="http://www.w3.org/2000/svg">
<g clip-path="url(#clip0_114_329)">
<mask id="mask0_114_329" style="mask-type:luminance" maskUnits="userSpaceOnUse" x="0" y="0" width="224" height="44">
<path d="M224 0.686523H0V43.3134H224V0.686523Z" fill="white"/>
</mask>
<g mask="url(#mask0_114_329)">
<path d="M78.3371 27.6611H78.2531L71.4596 11.5928H66.8467V32.9062H70.2853V16.5881L76.8272 31.6574H79.8466L86.305 16.6713H86.4726V32.9062H89.7436V11.5928H85.2147L78.3371 27.6611Z" fill="white"/>
<path d="M136.712 16.7549C133.189 16.7549 131.68 19.4191 131.596 19.7521L131.009 17.0046H128.409V32.8232H131.68V24.0814C131.68 21.667 133.105 19.5023 135.789 19.5023C137.886 19.5023 139.312 20.8344 139.312 23.4986V32.8232H142.583V23.4153C142.751 18.6697 139.983 16.7549 136.712 16.7549Z" fill="white"/>
<path d="M188.126 16.7546C185.274 16.7546 183.848 18.3365 183.261 19.2523V10.5938H179.99V32.9062H183.261V24.0811C183.261 21.6667 184.519 19.5021 187.287 19.5021C189.384 19.5021 190.81 20.8342 190.81 23.4984V32.823H194.081V23.4151C194.081 18.6695 191.313 16.7546 188.126 16.7546Z" fill="white"/>
<path d="M212.784 16.7549C210.855 16.7549 208.59 17.5042 207.416 19.4191L206.997 17.0879H204.397V38.0683H207.668V30.9083C209.01 32.9065 211.191 33.1562 212.784 33.1562C217.648 33.1562 220.416 29.3265 220.416 24.9972C220.416 20.2516 217.313 16.7549 212.784 16.7549ZM212.197 30.4088C209.261 30.4088 207.248 28.1609 207.248 24.9972C207.248 21.667 209.429 19.5856 212.197 19.5856C214.881 19.5856 216.978 21.7502 216.978 24.9972C216.978 28.0776 214.881 30.4088 212.197 30.4088Z" fill="white"/>
<path d="M104.589 19.0028C103.163 17.0879 101.066 16.7549 99.5562 16.7549C94.6082 16.7549 91.8403 20.5014 91.8403 24.9972C91.8403 29.5763 94.7757 33.2395 99.5562 33.2395C101.737 33.2395 103.75 32.5734 104.756 30.5753L105.176 32.9065H107.776V17.0879H104.505V19.0028H104.589ZM100.059 30.4088C97.292 30.4088 95.3629 28.2442 95.3629 24.9972C95.3629 21.7502 97.292 19.5856 100.059 19.5856C102.995 19.5856 105.008 21.9167 105.008 24.9972C105.008 28.1609 102.911 30.4088 100.059 30.4088Z" fill="white"/>
<path d="M157.345 19.0028C155.919 17.0879 153.822 16.7549 152.312 16.7549C147.364 16.7549 144.596 20.5014 144.596 24.9972C144.596 29.5763 147.532 33.2395 152.312 33.2395C154.493 33.2395 156.506 32.5734 157.512 30.5753L157.932 32.9065H160.532V17.0879H157.261V19.0028H157.345ZM152.732 30.4088C149.964 30.4088 148.035 28.2442 148.035 24.9972C148.035 21.7502 149.964 19.5856 152.732 19.5856C155.667 19.5856 157.68 21.9167 157.68 24.9972C157.68 28.1609 155.667 30.4088 152.732 30.4088Z" fill="white"/>
<path d="M200.874 17.0879H197.604V32.9064H200.874V17.0879Z" fill="white"/>
<path d="M122.789 19.4191C121.615 17.5042 119.35 16.7549 117.421 16.7549C113.228 16.7549 109.789 19.8353 109.789 24.3311C109.789 28.8269 113.228 31.9074 117.421 31.9074C119.266 31.9074 121.279 31.2413 122.537 29.5762V30.159C122.537 33.3227 121.196 35.5706 117.925 35.5706C116.247 35.5706 114.486 34.7381 113.312 33.073L111.131 34.9046C112.473 36.986 114.989 38.3181 117.841 38.3181C123.628 38.3181 125.808 35.0711 125.808 29.493V17.0046H123.209L122.789 19.4191ZM118.009 29.0767C115.409 29.0767 113.228 27.4948 113.228 24.3311C113.228 21.1674 115.325 19.5856 118.009 19.5856C120.776 19.5856 122.957 21.0009 122.957 24.3311C122.873 27.5781 120.692 29.0767 118.009 29.0767Z" fill="white"/>
<path d="M200.874 10.5938H197.604V13.8407H200.874V10.5938Z" fill="white"/>
<path d="M177.893 29.4932C176.551 31.6579 173.783 33.1565 170.848 33.1565C165.984 33.1565 162.377 29.5765 162.377 24.9142C162.377 20.2519 165.9 16.6719 170.68 16.6719C173.448 16.6719 175.964 18.004 177.39 20.0854L175.041 22.0835C174.203 20.9179 172.693 19.6691 170.68 19.6691C167.829 19.6691 165.648 21.917 165.648 24.8309C165.648 27.9114 167.913 29.9928 170.932 29.9928C173.029 29.9928 174.538 28.9105 175.544 27.5784L177.893 29.4932Z" fill="white"/>
<path d="M57.5362 27.4116V17.7539L27.7617 0.686523V10.3442L22.2262 13.5911L13.7551 8.67906V18.42L7.96788 21.6669L0 26.246L29.7747 43.3134L37.7426 38.7343L14.5099 25.4134V18.8362L15.2648 19.2525L43.53 35.4873V25.7464L28.5166 17.1711V10.7605L29.2714 11.26L57.5362 27.4116Z" fill="white"/>
</g>
</g>
<defs>
<clipPath id="clip0_114_329">
<rect width="224" height="42.6269" fill="white" transform="translate(0 0.686523)"/>
</clipPath>
</defs>
</svg>
