<svg width="107" height="27" viewBox="0 0 107 27" fill="none" xmlns="http://www.w3.org/2000/svg">
<path d="M34.8475 10.8078C35.3435 10.0421 36.0433 9.67464 36.9406 9.73244C37.8796 9.79344 38.3964 10.3953 38.7528 11.2299C38.8266 11.0951 38.8732 11.0004 38.9277 10.9137C39.7865 9.56543 41.5794 9.31823 42.7897 10.4001C43.4574 10.9972 43.7158 11.7837 43.7351 12.6408C43.764 13.8639 43.7399 15.0887 43.7463 16.3134C43.7463 16.4771 43.6869 16.5911 43.5714 16.6922C43.1941 17.026 42.4285 17.0597 42.0176 16.7644C41.8298 16.6296 41.7736 16.453 41.7752 16.2315C41.7816 15.1063 41.7832 13.9811 41.7816 12.8559C41.7816 12.49 41.6901 12.1465 41.4413 11.864C41.1123 11.4916 40.6934 11.3503 40.2166 11.4884C39.7367 11.628 39.4799 11.9908 39.3852 12.4659C39.3515 12.6328 39.3402 12.8078 39.3402 12.9779C39.337 14.0903 39.3402 15.201 39.3402 16.3134C39.3402 16.6408 39.2263 16.7949 38.9053 16.888C38.5377 16.9939 38.1701 16.9955 37.8041 16.8752C37.5232 16.7821 37.3595 16.5766 37.3595 16.2861C37.3563 15.1818 37.3531 14.0758 37.3627 12.9715C37.3659 12.5638 37.3242 12.1818 37.0257 11.8672C36.695 11.5189 36.2953 11.368 35.833 11.506C35.3435 11.6521 35.0674 12.0181 34.9807 12.5124C34.9454 12.7131 34.939 12.9201 34.9374 13.124C34.9342 14.1898 34.9326 15.2556 34.9406 16.3198C34.9406 16.4996 34.8748 16.6199 34.7367 16.7227C34.3547 17.0084 33.7303 17.0405 33.3162 16.7981C33.0658 16.6569 33 16.4338 33 16.1641C33.0048 15.2315 33 14.2989 33.0032 13.3648C33.0032 12.4514 33.0144 11.5381 33.008 10.6264C33.0048 10.2091 33.0112 9.97633 33.6709 9.83833C33.9663 9.77733 34.2536 9.80304 34.5249 9.94744C34.7416 10.063 34.8507 10.2316 34.8154 10.482C34.8026 10.5718 34.8026 10.6633 34.7961 10.7548C34.8138 10.7725 34.8314 10.7901 34.8475 10.8078Z" fill="white"/>
<path d="M79.3238 15.9924C79.2435 16.0887 79.2002 16.1353 79.1633 16.1883C78.4602 17.1658 76.9017 17.4114 75.9273 16.7003C75.4185 16.3295 75.0253 15.8608 74.8327 15.2685C74.4266 14.0278 74.3945 12.7597 74.8375 11.5334C75.1729 10.604 75.8407 9.93633 76.8728 9.76133C77.7684 9.61053 78.5132 9.90423 79.0734 10.6265C79.1119 10.6763 79.1569 10.7244 79.213 10.7918C79.2371 10.7373 79.2596 10.71 79.2596 10.6827C79.2516 9.23493 79.2403 7.78543 79.2355 6.33763C79.2355 6.02303 79.3687 5.84643 79.6673 5.74213C80.0541 5.60573 80.4394 5.61213 80.8198 5.76463C81.1023 5.87863 81.2243 6.05673 81.2243 6.35853C81.2227 9.61373 81.2194 12.8689 81.2146 16.1241C81.2146 16.7854 80.632 17.1449 79.9161 16.9363C79.5084 16.8175 79.3398 16.5895 79.3479 16.1722C79.3479 16.1353 79.3398 16.0984 79.3254 15.994L79.3238 15.9924ZM79.2339 13.4692C79.2339 13.2236 79.2403 12.9796 79.2339 12.734C79.2163 12.1225 78.6368 11.5077 78.0557 11.474C77.3158 11.4323 76.6689 11.8849 76.5855 12.5527C76.5309 12.9973 76.5517 13.4499 76.5389 13.8994C76.5229 14.4612 76.7877 14.8769 77.2403 15.1802C77.5437 15.3841 77.876 15.4387 78.2307 15.3087C78.6015 15.1738 78.892 14.9331 79.0991 14.6088C79.1793 14.482 79.2162 14.3151 79.2307 14.1642C79.2516 13.9347 79.2355 13.7019 79.2355 13.4692H79.2339Z" fill="white"/>
<path d="M56.0464 13.856C55.8249 14.0599 55.6226 14.2701 55.3947 14.4483C55.1764 14.6201 55.0913 14.8159 55.109 15.0936C55.1331 15.49 55.1074 15.8881 55.1186 16.2846C55.125 16.4804 55.04 16.612 54.8987 16.7244C54.5103 17.031 53.7992 17.0598 53.3867 16.7886C53.17 16.6473 53.1267 16.4355 53.1267 16.1995C53.1283 15.0149 53.1315 13.8303 53.1315 12.6442C53.1315 10.6121 53.1588 8.57843 53.1154 6.54793C53.0978 5.72123 53.6644 5.57683 54.2839 5.62493C54.414 5.63463 54.5424 5.68753 54.666 5.73413C54.987 5.85613 55.1122 6.04073 55.1122 6.38423C55.1122 8.27823 55.1122 10.1707 55.1122 12.0647C55.1122 12.1995 55.0961 12.336 55.0849 12.5254C55.1732 12.4564 55.2245 12.4226 55.2679 12.3809C56.1218 11.5816 56.9725 10.779 57.8297 9.98293C58.1443 9.69073 58.3706 9.66343 58.7141 9.84323C59.109 10.0487 59.3401 10.4066 59.2775 10.7646C59.2582 10.8785 59.1828 11.0005 59.0977 11.0808C58.5857 11.5543 58.064 12.0182 57.5407 12.4804C57.3385 12.6602 57.3353 12.6522 57.5006 12.8817C58.1667 13.8159 58.8248 14.7565 59.5006 15.6843C59.8457 16.1578 59.6467 16.5318 59.324 16.7902C59.2325 16.864 59.1282 16.9282 59.0207 16.978C58.5536 17.1931 58.2839 17.1176 57.995 16.6955C57.3802 15.7982 56.7671 14.901 56.1523 14.0021C56.1234 13.9587 56.0897 13.9186 56.0448 13.8576L56.0464 13.856Z" fill="white"/>
<path d="M103.67 14.4819C103.717 14.3712 103.754 14.3021 103.778 14.2283C104.221 12.8575 104.662 11.4868 105.107 10.1176C105.208 9.80464 105.367 9.69383 105.685 9.70993C106.086 9.73073 106.436 9.88973 106.73 10.1545C107.035 10.4274 107.059 10.5863 106.911 10.9619C106.112 12.9924 105.316 15.0228 104.513 17.0501C104.292 17.6087 104.07 18.1689 103.805 18.7082C103.492 19.347 103.003 19.819 102.312 20.0645C101.765 20.2588 101.205 20.3567 100.626 20.2973C100.197 20.2539 99.98 20.0084 99.975 19.5862C99.974 19.3759 99.98 19.1609 100.024 18.957C100.08 18.6857 100.189 18.6103 100.467 18.5846C101.239 18.514 101.874 18.1994 102.317 17.5541C102.537 17.2331 102.611 16.8607 102.643 16.4835C102.651 16.3808 102.593 16.2668 102.547 16.1673C101.751 14.4883 100.955 12.8062 100.147 11.132C99.892 10.6023 99.844 10.3054 100.574 9.90093C100.76 9.79823 100.985 9.74683 101.2 9.71313C101.545 9.65853 101.733 9.78213 101.868 10.1112C102.247 11.0421 102.624 11.9731 103.001 12.9057C103.179 13.3471 103.351 13.7901 103.529 14.2315C103.56 14.307 103.609 14.376 103.67 14.4819Z" fill="white"/>
<path d="M64.4204 13.8978C63.9132 13.8978 63.406 13.8978 62.8988 13.8978C62.6484 13.8978 62.6179 13.925 62.6467 14.1754C62.7174 14.7838 63.0528 15.1947 63.6211 15.4226C64.2326 15.6682 64.8297 15.6313 65.4204 15.3488C65.6483 15.2396 65.8811 15.1401 66.1106 15.0342C66.308 14.9427 66.4862 14.9908 66.6547 15.108C67.1764 15.4708 67.1716 16.1369 66.6467 16.4836C65.8506 17.0101 64.9613 17.1401 64.0304 17.1C63.3723 17.0711 62.7511 16.9106 62.1829 16.5815C61.2471 16.0374 60.7463 15.2284 60.7318 14.1417C60.7254 13.6779 60.7366 13.2156 60.7302 12.7517C60.7126 11.6827 61.215 10.8801 62.0641 10.291C63.1813 9.51424 64.8731 9.53344 65.9902 10.3087C66.7061 10.8063 67.0833 11.5045 67.1315 12.3713C67.1411 12.5366 67.1331 12.7019 67.1283 12.8673C67.1106 13.4355 66.8137 13.7918 66.239 13.856C65.8169 13.9026 65.3867 13.8849 64.9613 13.8945C64.7816 13.8978 64.6002 13.8945 64.4204 13.8945V13.8961V13.8978ZM63.8715 12.7549C64.2117 12.7549 64.5504 12.7581 64.8907 12.7549C65.2133 12.7517 65.3578 12.5735 65.308 12.2525C65.2438 11.8416 64.9902 11.5767 64.6291 11.4066C63.8121 11.023 62.6002 11.4596 62.6484 12.5511C62.6548 12.7003 62.6885 12.7645 62.8522 12.7597C63.1925 12.7485 63.5312 12.7565 63.8715 12.7565V12.7549Z" fill="white"/>
<path d="M90.8424 15.9009C90.7011 16.0342 90.592 16.1385 90.4812 16.2428C89.8472 16.8383 89.1137 17.185 88.2212 17.0887C87.2758 16.9876 86.6305 16.3167 86.5615 15.3745C86.5438 15.1321 86.5406 14.8817 86.576 14.6425C86.6851 13.925 87.1281 13.4772 87.8007 13.2348C88.3817 13.0246 88.9852 12.9315 89.6032 12.917C89.9628 12.909 90.3223 12.917 90.6803 12.917C90.7878 12.2653 90.4202 11.336 89.5358 11.2782C89.1153 11.2509 88.7108 11.2862 88.3255 11.466C88.1634 11.5414 87.9965 11.6088 87.8312 11.6811C87.5663 11.795 87.4202 11.7629 87.2341 11.5446C87.0125 11.2846 86.9291 10.97 87.0158 10.6538C87.0591 10.4981 87.226 10.352 87.3705 10.2509C87.73 10.0021 88.1474 9.87209 88.5775 9.80309C89.3223 9.68269 90.0639 9.68749 90.791 9.91859C91.8201 10.2445 92.5571 11.1482 92.6271 12.2605C92.6801 13.0904 92.6641 13.9266 92.6751 14.7597C92.6801 15.2236 92.6751 15.6859 92.6771 16.1497C92.6771 16.6473 92.5241 16.8592 92.0321 16.9411C91.8151 16.9764 91.5761 16.9651 91.3621 16.909C90.99 16.8111 90.8408 16.5751 90.8408 16.1899C90.8408 16.1048 90.8408 16.0213 90.8408 15.9042L90.8424 15.9009ZM90.2934 13.8978C90.2902 13.8817 90.287 13.8657 90.2838 13.8496C89.8632 13.9347 89.4331 13.9892 89.0222 14.1112C88.6064 14.2348 88.4347 14.6361 88.5535 15.0711C88.6385 15.3873 89.0398 15.6201 89.409 15.5703C90.0077 15.49 90.6321 14.8721 90.7108 14.2798C90.7621 13.8994 90.7589 13.8961 90.3721 13.8978C90.3448 13.8978 90.3191 13.8978 90.2918 13.8978H90.2934Z" fill="white"/>
<path d="M49.3513 15.8864C49.3096 15.9522 49.2743 16.026 49.2229 16.0854C48.4749 16.9394 47.5423 17.2668 46.4252 17.026C45.8216 16.896 45.2502 16.1946 45.2004 15.5269C45.1764 15.1994 45.1651 14.8607 45.2165 14.5381C45.3144 13.9089 45.7141 13.5028 46.3032 13.2717C46.9051 13.0357 47.5359 12.9394 48.178 12.9169C48.4974 12.9057 48.8184 12.9089 49.1378 12.9169C49.2775 12.9201 49.3352 12.8672 49.3256 12.7323C49.2967 12.2973 49.1763 11.8929 48.8569 11.5831C48.7301 11.4611 48.5487 11.368 48.3754 11.323C47.7719 11.1689 47.2004 11.299 46.6563 11.5782C46.5792 11.6168 46.4926 11.6392 46.4187 11.681C46.186 11.8142 45.9998 11.7709 45.8136 11.5173C45.5151 11.1112 45.3818 10.5413 46.0351 10.1962C46.4829 9.96033 46.9548 9.80623 47.4573 9.75803C48.1442 9.69063 48.8264 9.72113 49.4925 9.94263C50.3946 10.2428 50.8874 10.9041 51.1362 11.7677C51.2229 12.0678 51.2614 12.392 51.2662 12.7066C51.2807 13.8784 51.263 15.0485 51.2774 16.2203C51.2823 16.5541 51.1234 16.7435 50.8473 16.8639C50.5439 16.9955 50.2261 17.0116 49.9083 16.9137C49.5632 16.8077 49.4267 16.6087 49.4364 16.2508C49.4396 16.148 49.4364 16.0469 49.4364 15.9442C49.4075 15.9249 49.3786 15.9057 49.3497 15.8864H49.3513ZM48.8778 13.8977C48.8746 13.8816 48.8714 13.8656 48.8682 13.8495C48.4588 13.9298 48.0415 13.9843 47.6418 14.0967C47.2149 14.2171 47.0239 14.6119 47.1378 15.0373C47.2357 15.4017 47.6483 15.6408 48.0479 15.567C48.6226 15.461 49.2004 14.888 49.3096 14.3166C49.3818 13.9362 49.3481 13.8944 48.958 13.8993C48.9308 13.8993 48.9051 13.8993 48.8778 13.8993V13.8977Z" fill="white"/>
<path d="M96.3909 10.9346C96.4439 10.8624 96.4989 10.7917 96.5469 10.7179C97.0519 9.92981 97.9259 9.55421 98.8439 9.74201C99.0769 9.79011 99.2179 9.96991 99.3209 10.1657C99.6529 10.7933 99.2309 11.4739 98.5209 11.4627C97.5129 11.4466 96.8249 11.9651 96.5919 12.9442C96.5179 13.2572 96.4779 13.583 96.4729 13.9041C96.4589 14.697 96.4669 15.4915 96.4759 16.2845C96.4789 16.4835 96.4069 16.6248 96.2529 16.7419C95.8439 17.0485 95.1309 17.0485 94.7559 16.7387C94.6029 16.6135 94.5229 16.4642 94.5239 16.2588C94.5289 14.3342 94.5289 12.4081 94.5239 10.4836C94.5239 10.2043 94.6559 10.0341 94.8939 9.92981C95.2519 9.77251 95.6189 9.76771 95.9849 9.89931C96.2519 9.99401 96.3689 10.1802 96.3569 10.4659C96.3509 10.6136 96.3379 10.7612 96.3269 10.9105C96.3479 10.9185 96.3699 10.9282 96.3909 10.9362V10.9346Z" fill="white"/>
<path d="M70.5887 10.9107C70.6353 10.8545 70.6882 10.8016 70.7284 10.739C71.0462 10.2446 71.4683 9.87537 72.059 9.77107C72.3832 9.71487 72.7235 9.71647 73.0526 9.73897C73.3527 9.75817 73.6304 10.174 73.6288 10.5512C73.6256 11.0504 73.3158 11.5223 72.7155 11.4629C71.5967 11.3521 70.9178 12.2044 70.7348 13.1146C70.7043 13.2703 70.677 13.4292 70.677 13.5865C70.6722 14.3938 70.6465 15.2028 70.6882 16.007C70.7187 16.6025 70.5245 16.8128 69.9081 16.9412C69.5887 17.0086 69.2693 16.9636 68.9916 16.7662C68.8231 16.6474 68.738 16.4901 68.738 16.2783C68.7412 14.3393 68.7412 12.4003 68.738 10.4629C68.738 10.1932 68.8632 10.0263 69.0992 9.92677C69.4234 9.79027 69.7573 9.76627 70.0959 9.86737C70.4442 9.97167 70.5935 10.1916 70.5646 10.5512C70.5566 10.6619 70.5438 10.7727 70.5341 10.8818C70.5518 10.8915 70.5711 10.9011 70.5887 10.9107Z" fill="white"/>
<path d="M83.1987 13.3905C83.1987 12.4708 83.1987 11.5527 83.1987 10.6329C83.1987 10.1321 83.3624 9.92031 83.8568 9.83041C84.1634 9.77581 84.4683 9.79831 84.754 9.93791C84.9467 10.031 85.0735 10.1723 85.0815 10.397C85.0847 10.4756 85.0927 10.5559 85.0927 10.6345C85.0959 12.4852 85.0975 14.3376 85.0991 16.1883C85.0991 16.5366 84.9755 16.7533 84.6224 16.8592C84.3752 16.933 84.0959 16.9668 83.8407 16.9363C83.3736 16.8785 83.1987 16.6361 83.1987 16.1658C83.1987 15.2396 83.1987 14.3151 83.1987 13.3889V13.3905Z" fill="white"/>
<path d="M84.1841 8.21729C83.725 8.19319 83.3703 8.09369 83.1344 7.74539C82.9401 7.46129 82.9482 7.19159 83.16 6.92359C83.5244 6.46449 84.2788 6.34729 84.7684 6.67319C85.0541 6.86419 85.1921 7.12579 85.1472 7.46769C85.1038 7.80319 84.8952 8.01669 84.5886 8.13059C84.4409 8.18519 84.2788 8.19809 84.1841 8.21729Z" fill="white"/>
<mask id="mask0_12_3367" style="mask-type:luminance" maskUnits="userSpaceOnUse" x="0" y="0" width="27" height="27">
<path d="M26.06 0H0V26.06H26.06V0Z" fill="white"/>
</mask>
<g mask="url(#mask0_12_3367)">
<path d="M23.0073 0H3.0454C1.3632 0 0 1.3632 0 3.0454V23.0073C0 24.6896 1.3632 26.0528 3.0454 26.0528H23.0073C24.6896 26.0528 26.0528 24.6896 26.0528 23.0073V3.0454C26.0528 1.3632 24.6896 0 23.0073 0ZM19.7807 19.9619H15.7999V12.1236H13.8711V16.1044H12.1816V12.1236H10.2529V19.9619H6.2721V6.0981H10.2529V8.2661H12.1816V10.1949H13.8711V8.2661H15.7999V6.0981H19.7807V19.9619Z" fill="#AD2B45"/>
</g>
</svg>
