<svg width="112" height="32" viewBox="0 0 112 32" fill="none" xmlns="http://www.w3.org/2000/svg">
<mask id="mask0_12_3369" style="mask-type:luminance" maskUnits="userSpaceOnUse" x="0" y="0" width="112" height="32">
<path d="M111.556 0H0.0449219V32H111.556V0Z" fill="white"/>
</mask>
<g mask="url(#mask0_12_3369)">
<path d="M47.3671 10.9333L43.6227 16.9222L39.9227 10.9333H38.2671V21.0444H39.9227V14.5333C39.9227 14.4111 39.9227 14.2889 39.9116 14.1667C39.9005 14.0444 39.9005 13.9222 39.8783 13.7778C39.956 13.9889 40.0783 14.2222 40.2227 14.4444L42.9116 18.7667H44.2449L46.9116 14.4444C46.9783 14.3333 47.0449 14.2333 47.1227 14.1222C47.2005 14.0111 47.2671 13.9 47.3338 13.7778C47.3227 13.9111 47.3116 14.0444 47.3005 14.1667C47.2894 14.2889 47.2894 14.4111 47.2894 14.5333V21.0444H48.9227V10.9333H47.3671ZM52.4671 21.0444L55.7227 13.1C55.7449 13.0222 55.7783 12.9333 55.8116 12.8444C55.8449 12.7556 55.8783 12.6556 55.9005 12.5333C55.9227 12.6556 55.956 12.7556 55.9894 12.8444C56.0227 12.9333 56.056 13.0222 56.0783 13.1L57.856 17.4222H54.0449L55.0338 18.9H58.456L59.3449 21.0444H61.0894L56.8227 10.9333H55.0449L50.7783 21.0444H52.4671ZM77.9449 21.0444L82.056 10.9333H80.2783L77.3783 18.5556C77.2894 18.8111 77.1894 19.1111 77.1005 19.4444C77.0116 19.1111 76.9116 18.8111 76.8227 18.5556L73.9338 10.9333H72.0783L76.1894 21.0444H77.9449ZM93.612 10.9333V21.0444H100.2V19.5444H95.267V10.9333H93.612ZM102.212 10.9333V21.0444H108.867V19.5444H103.867V10.9333H102.212ZM85.5894 12.4333H90.8894V10.9333H83.956V21.0444H90.9894V19.5444H85.5894V12.4333ZM70.8449 13.9667C70.8449 13.0222 70.556 12.2778 69.9671 11.7444C69.3783 11.2111 68.4005 10.9333 67.0227 10.9333H62.9005V21.0444H64.556V12.4333H67.0894C68.4449 12.4333 69.1338 12.9889 69.1338 14.1111C69.1338 15.3111 68.4005 15.9111 66.9338 15.9111H65.6005L64.656 17.3667H66.9005L69.6894 21.0444H71.6894L68.6227 17C70.1005 16.4667 70.8449 15.4556 70.8449 13.9667ZM90.1783 15.2222H85.6894L86.7005 16.7222H90.1783V15.2222ZM12.4783 12.3444L15.8227 15.7667C15.9005 15.8444 15.9783 15.8889 16.0449 15.8889C16.1116 15.8889 16.1894 15.8444 16.2671 15.7667L19.6116 12.3444C19.6894 12.2667 19.7338 12.1889 19.7338 12.1222C19.7338 12.0111 19.6783 11.9667 19.556 11.9667H12.5449C12.4227 11.9667 12.3671 12.0222 12.3671 12.1222C12.356 12.1889 12.4005 12.2667 12.4783 12.3444ZM32.0449 0.17778C32.0449 0.0555601 31.9894 0 31.8783 0C31.8116 0 31.7449 0.0333304 31.6783 0.1L28.9338 2.8778V29.1L31.6783 31.9C31.7449 31.9667 31.8116 32 31.8783 32C31.9894 32 32.0449 31.9444 32.0449 31.8222V0.17778ZM0.0449219 31.8222C0.0449219 31.9444 0.100482 32 0.211592 32C0.278262 32 0.344922 31.9667 0.411592 31.9L3.156 29.1V2.8778L0.411592 0.1C0.344922 0.0333304 0.267142 0 0.211592 0C0.100482 0 0.0449219 0.0555601 0.0449219 0.17778V31.8222ZM7.1783 6.9778H24.9227L27.4116 4.4444C27.4783 4.3778 27.5116 4.3111 27.5116 4.2444C27.5116 4.1333 27.456 4.0778 27.3338 4.0778H4.756C4.6338 4.0778 4.5783 4.1333 4.5783 4.2444C4.5783 4.3111 4.6116 4.3778 4.6783 4.4444L7.1783 6.9778ZM4.6783 27.5556C4.6116 27.6222 4.5783 27.6889 4.5783 27.7556C4.5783 27.8667 4.6338 27.9111 4.756 27.9111H27.3227C27.4449 27.9111 27.5005 27.8556 27.5005 27.7556C27.5005 27.6889 27.4671 27.6222 27.4005 27.5556L24.9116 25.0222H7.1783L4.6783 27.5556ZM23.5783 23.6667C23.6449 23.7333 23.7116 23.7667 23.7783 23.7667C23.8894 23.7667 23.9338 23.7111 23.9338 23.5889V8.4111C23.9338 8.2889 23.8783 8.2333 23.7783 8.2333C23.7116 8.2333 23.6449 8.2667 23.5783 8.3333L20.9783 10.9778V21.0333L23.5783 23.6667ZM11.1116 21.0222V10.9778L8.5116 8.3333C8.4449 8.2667 8.3783 8.2333 8.3116 8.2333C8.2005 8.2333 8.156 8.3 8.156 8.4111V23.5889C8.156 23.7111 8.2116 23.7667 8.3116 23.7667C8.3783 23.7667 8.4449 23.7333 8.5116 23.6667L11.1116 21.0222ZM108.8 10.9333V11.1222H109.267V12.2111H109.478V11.1222H109.945V10.9333H108.8ZM111.356 10.9333L110.878 11.6889L110.412 10.9333H110.2V12.2111H110.412V11.3889C110.412 11.3778 110.412 11.3556 110.412 11.3444C110.412 11.3333 110.412 11.3111 110.412 11.3C110.423 11.3222 110.434 11.3556 110.456 11.3889L110.8 11.9333H110.967L111.3 11.3889C111.312 11.3778 111.323 11.3667 111.323 11.3444C111.323 11.3222 111.345 11.3222 111.345 11.3C111.345 11.3222 111.345 11.3333 111.345 11.3444C111.345 11.3556 111.345 11.3778 111.345 11.3889V12.2111H111.556V10.9333H111.356Z" fill="white"/>
</g>
</svg>
