<svg width="87" height="38" viewBox="0 0 87 38" fill="none" xmlns="http://www.w3.org/2000/svg">
<path fill-rule="evenodd" clip-rule="evenodd" d="M1.15211 24.3486V23.7053L1.60478 23.6815C1.97406 23.6576 2.2123 23.5981 2.3076 23.4909C2.4029 23.3837 2.46246 23.0263 2.47437 22.395C2.51011 21.1323 2.53393 19.7624 2.53393 18.2852C2.53393 17.499 2.53393 16.6056 2.52202 15.6169C2.51011 15.0094 2.47437 14.6401 2.41481 14.5091C2.37907 14.4376 2.33143 14.3899 2.24804 14.3423C2.16465 14.2946 1.80729 14.2589 1.15211 14.2113V13.568C1.77155 13.5799 2.37907 13.5918 2.97469 13.5918C3.66559 13.5918 4.33268 13.5799 4.97594 13.568C5.24992 14.2232 5.53581 14.8664 5.83362 15.4978C6.04804 15.9504 6.96528 17.8921 8.62108 21.299C10.3603 17.7968 11.5753 15.2238 12.2781 13.568C12.8857 13.5918 13.4813 13.6037 14.0292 13.6037C14.6844 13.6037 15.3038 13.5918 15.9114 13.568V14.2113C15.2443 14.2589 14.8631 14.3066 14.7797 14.3899C14.6963 14.4614 14.6368 14.6997 14.6129 15.0928C14.5772 15.736 14.5534 16.963 14.5534 18.7736C14.5534 19.6909 14.5653 20.6439 14.5891 21.6564C14.6129 22.6689 14.6487 23.2407 14.6963 23.3718C14.7321 23.4551 14.7797 23.5028 14.8512 23.5504C14.9226 23.5862 15.28 23.6338 15.9233 23.6934V24.3366C15.0894 24.3009 14.3509 24.2771 13.7076 24.2771C13.0524 24.2771 12.159 24.3009 11.0393 24.3366V23.7053L11.4919 23.6934C11.8493 23.6815 12.0756 23.6338 12.159 23.5385C12.2543 23.4551 12.3139 23.2288 12.3377 22.8714C12.3615 22.5141 12.3734 21.6564 12.3734 20.3222V15.6884C11.5872 17.2727 10.5747 19.3454 9.35964 21.9066C8.85933 22.9548 8.46622 23.8244 8.18033 24.4796H7.65619C7.275 23.5981 6.76277 22.4903 6.1076 21.1442L3.45117 15.6884V16.7366C3.45117 19.6194 3.46309 21.6087 3.49882 22.7047C3.51074 23.1454 3.5703 23.4194 3.67751 23.5147C3.78472 23.6219 4.154 23.6815 4.82108 23.7172V24.3605C4.29694 24.3247 3.7728 24.3009 3.26058 24.3009C2.45055 24.289 1.75964 24.3128 1.15211 24.3486Z" fill="white"/>
<path fill-rule="evenodd" clip-rule="evenodd" d="M16.7809 23.7768C17.1621 23.753 17.4003 23.7172 17.4956 23.6577C17.5552 23.6219 17.6505 23.4552 17.7815 23.1931C18.0317 22.657 18.3533 21.9185 18.7345 20.9774L20.9145 15.6526H21.8198L24.5953 22.252C24.9527 23.1097 25.179 23.5743 25.2624 23.6577C25.3458 23.7411 25.6079 23.8006 26.0367 23.8244V24.3367C25.3696 24.3128 24.7383 24.289 24.1427 24.289C23.4398 24.289 22.7608 24.3009 22.1176 24.3367V23.8244C22.606 23.8006 22.8919 23.7768 22.9634 23.7411C23.0348 23.7053 23.0825 23.6458 23.0825 23.5505C23.0825 23.4671 22.9991 23.205 22.8204 22.7523L22.4154 21.7041C21.9032 21.6921 21.3433 21.6921 20.7119 21.6921C20.164 21.6921 19.6756 21.6921 19.2229 21.7041L18.9489 22.4069C18.8775 22.5975 18.7822 22.8834 18.675 23.2646C18.6511 23.3479 18.6392 23.4313 18.6392 23.5028C18.6392 23.5981 18.675 23.6696 18.7583 23.7053C18.8417 23.7411 19.1276 23.7887 19.6279 23.8244V24.3367C19.2229 24.3128 18.7226 24.289 18.127 24.289C17.5552 24.289 17.1025 24.3009 16.769 24.3367V23.7768H16.7809ZM20.8072 17.8207L19.5088 20.9655C19.89 20.9893 20.3069 21.0012 20.7596 21.0012C21.2361 21.0012 21.6887 20.9893 22.1176 20.9655L20.8072 17.8207Z" fill="white"/>
<path fill-rule="evenodd" clip-rule="evenodd" d="M26.3703 24.3366V23.8243C26.7396 23.8005 26.9659 23.7648 27.0493 23.7171C27.1327 23.6695 27.3233 23.4432 27.633 23.062L29.7057 20.3102C29.0625 19.1786 28.5383 18.309 28.1571 17.7015C27.764 17.0939 27.4782 16.7247 27.2876 16.6055C27.1923 16.5341 27.0612 16.4983 26.9183 16.4983C26.823 16.4983 26.6919 16.5102 26.5133 16.546L26.4537 16.0457L28.7528 15.5811C29.0029 15.7598 29.2054 15.9504 29.3603 16.1529C29.5151 16.3554 29.801 16.8438 30.2299 17.6181L30.8851 18.8093L32.386 16.6174C32.6481 16.2482 32.8387 15.9504 32.9697 15.724C33.196 15.7598 33.3985 15.7717 33.5891 15.7717C33.8274 15.7717 34.1014 15.7598 34.4111 15.724V16.2243C34.0656 16.2482 33.8512 16.2839 33.7678 16.3316C33.6606 16.3911 33.4581 16.6055 33.1841 16.9748L31.2782 19.4645L31.6832 20.203C32.386 21.4776 32.8863 22.3353 33.1603 22.7761C33.5415 23.3598 33.7678 23.6695 33.8274 23.729C33.8988 23.7767 34.0894 23.8124 34.3992 23.8243V24.3366C33.9346 24.3127 33.4819 24.2889 33.065 24.2889C32.6838 24.2889 32.3264 24.3008 31.9572 24.3366C31.8023 24.0864 31.5879 23.7052 31.3139 23.2049L30.075 20.9654L28.8719 22.6927C28.7289 22.9071 28.3954 23.4551 27.8593 24.3247C27.5377 24.3008 27.2995 24.277 27.1446 24.277C26.9898 24.2889 26.7277 24.3008 26.3703 24.3366Z" fill="white"/>
<path fill-rule="evenodd" clip-rule="evenodd" d="M35.6142 24.3366V23.9435C35.9001 23.8125 36.1622 23.6576 36.4123 23.4789C36.4838 22.0971 36.5076 20.6438 36.5076 19.1429C36.5076 17.9636 36.4957 16.8438 36.4719 15.7955C36.46 15.0451 36.4243 14.6162 36.3647 14.509C36.3409 14.4375 36.2813 14.3899 36.2098 14.3542C36.1265 14.3184 35.7572 14.2708 35.0901 14.2231V13.5799C36.0788 13.6037 36.996 13.6156 37.8418 13.6156C38.6638 13.6156 39.4381 13.6037 40.1647 13.5799V14.2231C39.4619 14.2708 39.0449 14.3303 38.9377 14.4137C38.8663 14.4614 38.8186 14.5567 38.7948 14.6877C38.771 14.8306 38.7471 15.6526 38.7233 17.1774L38.6757 20.9178C38.6757 21.6206 38.6995 22.4306 38.7352 23.3479C39.4023 23.3836 39.9026 23.3955 40.2243 23.3955C41.1891 23.3955 42.0111 23.3241 42.6663 23.1692C42.7973 22.7046 42.9283 22.1448 43.0594 21.5015H43.7384C43.6312 22.2281 43.5239 23.1454 43.4406 24.2294C42.9522 24.3009 42.4995 24.3366 42.0945 24.3366L39.3189 24.3009L38.0801 24.289C37.5083 24.277 36.6863 24.3009 35.6142 24.3366Z" fill="white"/>
<path fill-rule="evenodd" clip-rule="evenodd" d="M44.6197 24.3366V23.8244C45.1796 23.8005 45.5012 23.7529 45.5727 23.6814C45.6442 23.6219 45.6918 23.4551 45.7037 23.193C45.7276 22.657 45.7514 21.6444 45.7514 20.1673C45.7514 19.6074 45.7395 18.7855 45.7276 17.7134C45.7156 16.9868 45.7037 16.5817 45.6799 16.5103C45.6561 16.4388 45.6084 16.3911 45.5489 16.3554C45.4536 16.3078 45.1439 16.272 44.6197 16.2363V15.7241C45.4655 15.7598 46.1088 15.7717 46.5495 15.7717C47.3238 15.7717 48.0147 15.7598 48.6341 15.7241V16.2363C48.0743 16.272 47.7646 16.3197 47.6931 16.3673C47.6216 16.4269 47.574 16.546 47.5501 16.7485C47.5144 17.1416 47.4906 17.9397 47.4906 19.1429C47.4906 20.7391 47.5025 21.8469 47.5144 22.4783C47.5263 23.1096 47.562 23.4789 47.6216 23.598C47.6454 23.6457 47.705 23.6933 47.7765 23.7291C47.8598 23.7648 48.1338 23.7886 48.6222 23.8244V24.3366L47.8956 24.3128C47.431 24.3009 47.026 24.289 46.6686 24.289L44.6197 24.3366Z" fill="white"/>
<path fill-rule="evenodd" clip-rule="evenodd" d="M49.4799 24.3366V23.8244C49.9802 23.8005 50.278 23.7767 50.3614 23.7291C50.421 23.6933 50.4567 23.6457 50.4924 23.5623C50.5401 23.467 50.5639 23.1216 50.5758 22.5259C50.5996 21.5372 50.6115 20.7987 50.6115 20.2984L50.5996 17.7015C50.5996 17.0106 50.5758 16.6175 50.5282 16.5103C50.5043 16.4507 50.4686 16.4031 50.409 16.3792C50.3257 16.3316 50.0159 16.2839 49.4799 16.2363V15.7241C50.1231 15.7479 50.6115 15.7598 50.9213 15.7598C51.2667 15.7598 51.6598 15.7479 52.0887 15.7241C53.0297 16.9272 54.0899 18.2375 55.2811 19.6432C56.0673 20.5842 56.7583 21.3585 57.33 21.978V19.536C57.33 18.6187 57.3181 17.8206 57.2943 17.1535C57.2824 16.7604 57.2467 16.5103 57.199 16.4269C57.1752 16.3792 57.1275 16.3435 57.068 16.3197C57.0084 16.2958 56.7106 16.272 56.2103 16.2363V15.7241C56.651 15.7479 57.1037 15.7598 57.5445 15.7598C58.152 15.7598 58.6999 15.7479 59.1883 15.7241V16.2363C58.7238 16.2601 58.4498 16.2958 58.3545 16.3316C58.2949 16.3554 58.2592 16.3792 58.2235 16.415C58.1877 16.4507 58.1639 16.4984 58.152 16.5579C58.1282 16.6532 58.1043 16.9748 58.1043 17.499L58.0805 19.9529L58.0686 22.4306C58.0686 23.0977 58.0805 23.7529 58.1162 24.42L58.0329 24.5034C57.5325 24.4081 57.1871 24.3604 56.9846 24.3247C55.9363 23.1573 54.6617 21.6921 53.1727 19.9291C52.4222 19.0357 51.8147 18.2852 51.3501 17.6777V20.0601C51.3501 20.7153 51.362 21.5015 51.3858 22.4068C51.3978 23.0858 51.4216 23.467 51.4692 23.5742C51.4811 23.6219 51.5169 23.6576 51.5645 23.6814C51.6479 23.7291 51.9338 23.7648 52.446 23.8005V24.3128C51.7789 24.289 51.3025 24.2651 51.0166 24.2651C50.7783 24.289 50.2661 24.3009 49.4799 24.3366Z" fill="white"/>
<path fill-rule="evenodd" clip-rule="evenodd" d="M60.3914 24.3366V24.0031C60.6058 23.9078 60.8083 23.7886 60.987 23.6576C61.0704 23.0143 61.1061 21.6802 61.1061 19.6313C61.1061 18.2375 61.0942 17.3084 61.0585 16.8557C61.0466 16.6175 60.9989 16.4626 60.9275 16.4031C60.856 16.3435 60.5463 16.2839 60.0102 16.2363V15.7241C60.9751 15.7598 61.7375 15.7836 62.2974 15.7836L65.6804 15.7479C66.0378 15.7479 66.3594 15.7598 66.6453 15.7955L66.693 15.867C66.5977 16.3078 66.5381 16.9034 66.4905 17.6419H66.0021C65.9783 17.0463 65.9544 16.7247 65.9306 16.689C65.9068 16.6532 65.8115 16.6056 65.6566 16.5698C65.3112 16.4984 64.7989 16.4626 64.0961 16.4626C63.7507 16.4626 63.3456 16.4745 62.893 16.5103C62.8453 17.773 62.8096 18.7855 62.7977 19.536C63.2384 19.5598 63.6435 19.5836 64.0366 19.5836C64.6083 19.5836 64.9538 19.5598 65.061 19.5241C65.1325 19.5002 65.1801 19.4407 65.204 19.3454C65.2278 19.2739 65.2516 19.0118 65.2873 18.5711H65.8115C65.7877 19.262 65.7757 19.7147 65.7757 19.9172L65.8115 21.299H65.2873C65.2635 20.7629 65.2278 20.4532 65.1801 20.3698C65.1563 20.3222 65.0967 20.2864 65.0134 20.2626C64.8108 20.215 64.3463 20.1911 63.6315 20.1911C63.4052 20.1911 63.1431 20.2031 62.8334 20.2269C62.8215 20.4413 62.8215 20.6676 62.8215 20.894C62.8215 22.0614 62.8453 22.9667 62.8811 23.598L64.0961 23.6219C64.787 23.6219 65.4184 23.5861 65.9902 23.5147C66.0974 23.1335 66.1927 22.7046 66.288 22.2281H66.8002C66.7049 22.9548 66.6453 23.6457 66.6334 24.3009C66.2641 24.3485 65.9068 24.3604 65.5613 24.3604C65.335 24.3604 64.8942 24.3485 64.2272 24.3366C63.6077 24.3247 63.0359 24.3128 62.5237 24.3128C61.8685 24.289 61.1538 24.3009 60.3914 24.3366Z" fill="white"/>
<path fill-rule="evenodd" clip-rule="evenodd" d="M67.6222 23.7768C68.0034 23.753 68.2417 23.7172 68.337 23.6577C68.3965 23.6219 68.4918 23.4552 68.6229 23.1931C68.873 22.657 69.1946 21.9185 69.5758 20.9774L71.7558 15.6526H72.6611L75.4366 22.252C75.794 23.1097 76.0204 23.5743 76.1037 23.6577C76.1871 23.7411 76.4492 23.8006 76.878 23.8244V24.3367C76.2109 24.3128 75.5796 24.289 74.984 24.289C74.2812 24.289 73.6022 24.3009 72.9589 24.3367V23.8244C73.4473 23.8006 73.7332 23.7768 73.8047 23.7411C73.8762 23.7053 73.9238 23.6458 73.9238 23.5505C73.9238 23.4671 73.8404 23.205 73.6617 22.7523L73.2567 21.7041C72.7445 21.6921 72.1846 21.6921 71.5533 21.6921C71.0053 21.6921 70.5169 21.6921 70.0642 21.7041L69.7903 22.4069C69.7188 22.5975 69.6235 22.8834 69.5163 23.2646C69.4925 23.3479 69.4805 23.4313 69.4805 23.5028C69.4805 23.5981 69.5163 23.6696 69.5997 23.7053C69.683 23.7411 69.9689 23.7887 70.4693 23.8244V24.3367C70.0642 24.3128 69.5639 24.289 68.9683 24.289C68.3965 24.289 67.9439 24.3009 67.6103 24.3367V23.7768H67.6222ZM71.6486 17.8207L70.3501 20.9655C70.7313 20.9893 71.1483 21.0012 71.6009 21.0012C72.0774 21.0012 72.5301 20.9893 72.9589 20.9655L71.6486 17.8207Z" fill="white"/>
<path fill-rule="evenodd" clip-rule="evenodd" d="M77.4616 24.3366V23.8244C77.9381 23.7886 78.2121 23.741 78.2836 23.7052C78.3312 23.6814 78.367 23.6457 78.3789 23.5861C78.4265 23.4908 78.4503 23.1573 78.4623 22.5855C78.4861 21.704 78.498 21.025 78.498 20.5128C78.498 19.8338 78.4861 18.9642 78.4742 17.9159C78.4623 17.1297 78.4146 16.6532 78.355 16.4745C78.3431 16.4269 78.3074 16.3792 78.2598 16.3554C78.2002 16.3077 77.9262 16.272 77.4616 16.2244V15.7121C78.3074 15.7479 78.8554 15.7598 79.1055 15.7598L82.1789 15.7002C82.846 15.7002 83.3344 15.7598 83.6322 15.8908C83.9419 16.0219 84.1801 16.2244 84.3588 16.5103C84.5375 16.7962 84.6328 17.1297 84.6328 17.5109C84.6328 17.9993 84.4898 18.4281 84.204 18.8093C83.9181 19.1786 83.4297 19.5121 82.7268 19.798L84.0372 21.7755L85.0616 23.2883C85.2522 23.5385 85.3952 23.6814 85.4905 23.7291C85.5858 23.7767 85.7406 23.8125 85.9551 23.8125V24.2889L85.5977 24.3009C84.5613 24.3128 83.8942 24.3247 83.5845 24.3366C83.2272 23.7648 82.6911 22.9429 81.9883 21.8588L80.7256 19.941C80.7613 19.8695 80.7971 19.798 80.8209 19.7146C80.9877 19.7385 81.1068 19.7504 81.1782 19.7504C81.5594 19.7504 81.9287 19.5955 82.298 19.2858C82.6673 18.9761 82.846 18.5472 82.846 17.9755C82.846 17.4751 82.703 17.094 82.4052 16.82C82.1193 16.546 81.6786 16.403 81.0949 16.403C80.9162 16.403 80.666 16.415 80.3444 16.4507L80.2967 18.2614L80.2372 20.5604C80.2372 21.0846 80.261 21.7397 80.2967 22.5617C80.3325 23.1692 80.3682 23.5146 80.392 23.5861C80.4159 23.6457 80.4635 23.6814 80.5231 23.7172C80.6065 23.7648 80.8924 23.8005 81.3569 23.8244V24.3366C80.6184 24.3128 79.9632 24.2889 79.4033 24.2889C78.8077 24.2889 78.1525 24.3009 77.4616 24.3366Z" fill="white"/>
<path d="M81.5953 26.588C79.7131 29.3874 77.6285 31.6627 75.4486 33.4018C71.8272 36.2727 67.8962 37.7141 63.9414 37.7141C59.9984 37.7141 56.0555 36.2727 52.4341 33.4018C50.2423 31.6627 48.1696 29.3874 46.2874 26.588H48.7056C50.2661 28.7084 51.9338 30.4714 53.673 31.8532C56.9251 34.4382 60.4392 35.7366 63.9414 35.7366C67.4435 35.7366 70.9577 34.4382 74.2097 31.8532C75.9489 30.4714 77.6166 28.7084 79.1771 26.588H81.5953Z" fill="#ED1C24"/>
<path d="M4.91633 11.6144C6.82228 8.75542 8.93075 6.43254 11.1583 4.66953C14.7797 1.79868 18.7107 0.3573 22.6655 0.3573C26.6085 0.3573 30.5514 1.79868 34.1728 4.66953C36.4003 6.43254 38.4969 8.75542 40.4148 11.6144H38.0085C36.4242 9.43442 34.7207 7.63567 32.9458 6.21812C29.6938 3.63316 26.1797 2.33473 22.6775 2.33473C19.1753 2.33473 15.6612 3.63316 12.4091 6.21812C10.6342 7.63567 8.93075 9.43442 7.34642 11.6144H4.91633Z" fill="#ED1C24"/>
</svg>
