<svg width="78" height="46" viewBox="0 0 78 46" fill="none" xmlns="http://www.w3.org/2000/svg">
<g clip-path="url(#clip0_2216_4581)">
<path d="M71.7171 33.3213V31.3534H76.2136V28.8411H71.7171V26.9987H77.0157V24.2497H68.315V32.2485C68.2412 31.8013 68.0519 31.3811 67.7659 31.0295C67.3257 30.5187 66.7384 30.1564 66.0845 29.9921C66.6409 29.7683 67.1091 29.3691 67.418 28.855C67.7076 28.3771 67.8613 27.8292 67.8627 27.2704C67.8621 26.893 67.7939 26.5188 67.6614 26.1654C67.5324 25.8117 67.3403 25.4843 67.0946 25.199C66.8465 24.9135 66.5451 24.6792 66.2072 24.5094C65.8445 24.3298 65.4441 24.2392 65.0394 24.2454H57.8596V36.0281H63.945C64.5222 36.0332 65.0983 35.976 65.6633 35.8575C66.1636 35.7572 66.6441 35.5755 67.0855 35.3194C67.477 35.0896 67.8061 34.7671 68.0438 34.3803C68.1774 34.1575 68.2717 33.9134 68.3227 33.6586V36.0324H77.0196V33.3204L71.7171 33.3213ZM61.2593 27.0064H63.6753C63.7913 26.9998 63.9074 27.0192 64.015 27.0632C64.1227 27.1071 64.2192 27.1745 64.2975 27.2604C64.3758 27.3463 64.434 27.4486 64.4679 27.5598C64.5017 27.671 64.5104 27.7884 64.4932 27.9034C64.5118 28.0395 64.4952 28.1781 64.4448 28.3058C64.3945 28.4336 64.3121 28.5464 64.2057 28.6331C64.0156 28.754 63.7946 28.8172 63.5694 28.8152H61.2583L61.2593 27.0064ZM64.6494 33.0635C64.4525 33.231 64.2005 33.3194 63.9421 33.3117H61.2588V31.3371H64.0643C64.1841 31.3342 64.3029 31.359 64.4115 31.4096C64.5201 31.4601 64.6156 31.535 64.6906 31.6284C64.8569 31.8314 64.9439 32.0878 64.9354 32.35C64.9435 32.4828 64.9219 32.6158 64.8722 32.7392C64.8224 32.8626 64.7458 32.9734 64.648 33.0635H64.6494Z" fill="#0A72B9"/>
<path d="M57.5052 24.2493V30.2791C57.5103 31.053 57.3991 31.8234 57.1751 32.5642C56.9715 33.2429 56.6231 33.8694 56.1539 34.4004C55.6723 34.9336 55.0766 35.3515 54.4112 35.6228C53.6272 35.9359 52.788 36.0876 51.944 36.0689C51.0798 36.0896 50.2209 35.9276 49.4236 35.5935C48.7613 35.3078 48.1717 34.8768 47.6986 34.3324C47.2437 33.7957 46.9073 33.169 46.7115 32.4933C46.5014 31.7739 46.3962 31.028 46.3991 30.2786V27.0768L44.2088 28.5359C44.1192 28.2763 43.9797 28.0367 43.7982 27.8305C43.6382 27.6522 43.4499 27.5015 43.2409 27.3844C43.0453 27.2742 42.8332 27.1964 42.6127 27.154C42.4096 27.1131 42.2031 27.0916 41.996 27.0898C41.6068 27.0789 41.2216 27.1717 40.88 27.3586C40.5741 27.5363 40.3098 27.7776 40.1052 28.0663C39.8975 28.3652 39.7468 28.6998 39.6606 29.0534C39.5672 29.4111 39.5189 29.7791 39.5168 30.1488C39.5136 30.5426 39.5678 30.9349 39.6778 31.3131C39.7781 31.6691 39.9417 32.0042 40.1608 32.3021C40.3715 32.5844 40.6422 32.8164 40.9533 32.9816C41.2793 33.1565 41.6448 33.2446 42.0147 33.2375C42.2218 33.2356 42.4281 33.2113 42.6299 33.1651C42.8425 33.1132 43.0461 33.0295 43.2337 32.9169C43.659 32.6684 43.9808 32.2752 44.1403 31.8091L46.9348 33.3711C46.7497 33.8066 46.4753 34.1984 46.1293 34.5211C45.7655 34.8628 45.355 35.1513 44.9103 35.3779C44.4448 35.6067 43.9555 35.7835 43.4512 35.905C42.9562 36.0229 42.4493 36.0834 41.9404 36.0852C41.1212 36.0897 40.3111 35.9132 39.5681 35.5681C38.948 35.2727 38.3823 34.8747 37.8948 34.3908L38.6021 38.2289C38.7235 38.8814 38.5808 39.5553 38.2053 40.1025C37.8299 40.6498 37.2525 41.0255 36.6001 41.1471L15.8115 45.001C15.4889 45.061 15.1578 45.0568 14.8369 44.9887C14.5159 44.9207 14.2116 44.7901 13.9411 44.6044C13.6707 44.4188 13.4395 44.1816 13.2607 43.9066C13.0819 43.6315 12.959 43.324 12.8991 43.0014V42.9943L9.0533 22.2056C8.93238 21.5534 9.07546 20.8799 9.45107 20.3332C9.82668 19.7865 10.4041 19.4114 11.0562 19.2904H11.0629L18.6338 17.8811H18.6467L28.5338 16.0498L31.8501 15.4331C32.5025 15.3132 33.1759 15.4572 33.7221 15.8335C34.2684 16.2098 34.6429 16.7875 34.7635 17.4398L36.0275 24.2526H31.5713L28.323 29.763L25.102 24.2526H20.6046V35.9678H24.7163V29.7961L27.2238 34.1349H29.4236L31.9297 29.7961V35.9644H36.0414V24.3523L36.5503 27.1032L36.6308 27.5315C36.8863 26.9998 37.2226 26.5108 37.6279 26.0821C38.2006 25.4859 38.8904 25.0148 39.6541 24.6983C40.4177 24.3818 41.2386 24.2268 42.065 24.243C43.0817 24.2187 44.0873 24.4589 44.9831 24.9402C45.5299 25.2396 46.0112 25.6455 46.3986 26.1338V24.2493H49.7806V30.2791C49.7781 30.6537 49.8198 31.0273 49.9047 31.3922C49.9743 31.7258 50.102 32.0447 50.2818 32.3342C50.4506 32.5987 50.6797 32.8193 50.9502 32.9782C51.2554 33.1453 51.5996 33.228 51.9473 33.2178C52.2991 33.2282 52.647 33.1424 52.9536 32.9696C53.2265 32.811 53.4583 32.5904 53.6302 32.3256C53.809 32.0387 53.9375 31.7233 54.0102 31.3931C54.0923 31.0306 54.1324 30.6599 54.1295 30.2882V24.2651L57.5052 24.2493Z" fill="#0A72B9"/>
<path d="M26.7952 6.72181L19.3677 8.10038C19.2191 8.12782 19.0731 8.16774 18.9312 8.21969C18.9292 8.22083 18.927 8.22142 18.9247 8.22142C18.9224 8.22142 18.9202 8.22083 18.9182 8.21969C18.5838 8.35244 18.281 8.55388 18.0294 8.81098C17.9305 8.90943 17.8414 9.01727 17.7634 9.13298C17.5748 9.40258 17.4421 9.70718 17.373 10.0289C17.3038 10.3505 17.2997 10.6828 17.3609 11.006L17.4429 11.4426L18.6441 17.8797H18.6312L11.0604 19.2841C10.4082 19.4054 9.83088 19.7807 9.45544 20.3276C9.08 20.8745 8.93719 21.5481 9.05841 22.2003L10.3042 28.992L6.99656 29.6025C6.6734 29.6625 6.34159 29.6583 6.02007 29.5901C5.69855 29.5218 5.39362 29.391 5.12269 29.2049C4.85176 29.0188 4.62013 28.7812 4.44104 28.5056C4.26195 28.23 4.1389 27.9218 4.07891 27.5986V27.5958L0.231203 6.82004C0.170358 6.49691 0.173783 6.16496 0.241284 5.84315C0.308785 5.52135 0.439039 5.21599 0.624601 4.94455C0.810163 4.6731 1.0474 4.44088 1.32274 4.26116C1.59809 4.08144 1.90615 3.95774 2.22933 3.89713H2.23795L23.0266 0.0427111C23.3495 -0.0173889 23.6811 -0.0132926 24.0025 0.0547661C24.3238 0.122825 24.6286 0.253513 24.8995 0.439368C25.1703 0.625224 25.4019 0.862607 25.581 1.13796C25.7601 1.41332 25.8832 1.72126 25.9433 2.04419L26.7952 6.72181Z" fill="#76B947"/>
<path d="M36.0413 24.3524V35.9645H31.932V29.7943L29.4212 34.1332H27.2261L24.7186 29.7943V35.9641H20.6045V24.2494H25.0928L28.3234 29.7598L31.5702 24.2494H36.0231L36.0413 24.3524Z" fill="white"/>
<path d="M46.4037 24.2491V26.1351C46.0158 25.6472 45.5346 25.2415 44.9883 24.9415C44.092 24.4614 43.0867 24.2212 42.0702 24.2443C41.2423 24.2285 40.4202 24.3844 39.6556 24.7024C38.8911 25.0203 38.2008 25.4933 37.6283 26.0915C37.2234 26.5205 36.8871 27.0094 36.6311 27.541L36.5506 27.114L36.0403 24.3631L36.024 24.2601L34.7614 17.4492C34.6404 16.7972 34.2658 16.2198 33.7196 15.8436C33.1735 15.4674 32.5004 15.3231 31.8481 15.4425L28.5318 16.0577L26.7953 6.71974L40.164 4.24293C40.816 4.12297 41.4888 4.26655 42.035 4.64214C42.5812 5.01773 42.9561 5.59466 43.0774 6.24633L46.4037 24.2491Z" fill="#F39222"/>
<path d="M28.5311 16.0483L18.644 17.8777L17.4427 11.4469L17.3608 11.0103C17.2996 10.6871 17.3037 10.3548 17.3728 10.0331C17.4419 9.71146 17.5747 9.40687 17.7633 9.13727C17.8412 9.02155 17.9303 8.91371 18.0292 8.81527C18.2809 8.55818 18.5837 8.35674 18.918 8.22398C18.92 8.22511 18.9222 8.22571 18.9245 8.22571C18.9268 8.22571 18.929 8.22511 18.931 8.22398C19.0729 8.17202 19.2189 8.13211 19.3675 8.10466L26.7946 6.72754L28.5311 16.0483Z" fill="#7D953F"/>
</g>
<defs>
<clipPath id="clip0_2216_4581">
<rect width="77.625" height="46" fill="white" transform="translate(0.1875)"/>
</clipPath>
</defs>
</svg>
