<svg width="100" height="35" viewBox="0 0 100 35" fill="none" xmlns="http://www.w3.org/2000/svg">
<mask id="mask0_12_3414" style="mask-type:luminance" maskUnits="userSpaceOnUse" x="0" y="0" width="100" height="35">
<path d="M100 0.663086H0V34.0104H100V0.663086Z" fill="white"/>
</mask>
<g mask="url(#mask0_12_3414)">
<path d="M67.7032 13.7358H65.612V13.3169C65.612 11.593 65.612 9.86908 65.6088 8.14838C65.6088 7.90668 65.583 7.66187 65.5347 7.42337C65.3478 6.50827 64.4036 6.17317 63.669 6.75957C63.1534 7.17207 62.9987 7.74887 62.9955 8.37077C62.9858 10.0044 62.9955 11.6381 62.9955 13.2718C62.9955 13.4136 62.9955 13.5522 62.9955 13.7229H60.8946C60.8946 13.5908 60.8946 13.4555 60.8946 13.3202C60.8946 11.7251 60.8978 10.1301 60.8946 8.53507C60.8946 8.21607 60.8656 7.89387 60.8269 7.57477C60.7657 7.08827 60.582 6.68227 60.06 6.53077C59.567 6.38577 58.958 6.54687 58.697 7.00447C58.4779 7.39117 58.2974 7.85518 58.2845 8.29338C58.2362 9.94968 58.2652 11.6124 58.2652 13.2686C58.2652 13.4104 58.2652 13.5489 58.2652 13.7197H56.1353V4.90038H58.1685C58.204 5.31928 58.2394 5.73818 58.2845 6.26978C58.813 5.32568 59.5121 4.73917 60.5368 4.73277C61.5389 4.72957 62.3317 5.14527 62.7732 6.14087C62.9923 5.89277 63.1631 5.67687 63.3596 5.48037C64.1233 4.72307 65.3961 4.50397 66.3628 4.96797C67.1458 5.34497 67.468 6.04747 67.613 6.84657C67.6807 7.22357 67.7226 7.61027 67.7258 7.99367C67.7387 9.80787 67.7323 11.622 67.729 13.4329C67.729 13.5199 67.7161 13.6102 67.7065 13.7358H67.7032Z" fill="white"/>
<path d="M2.1203 13.7328H0V4.90057H2.0558C2.0816 5.31297 2.1074 5.74157 2.1331 6.16687C2.6842 5.30007 3.4027 4.73947 4.4338 4.73617C5.4392 4.73297 6.2125 5.18087 6.6508 6.14757C6.8602 5.90587 7.0213 5.70287 7.1986 5.52247C8.0073 4.69757 8.9998 4.56867 10.0438 4.90377C11.0073 5.20987 11.3843 6.03157 11.5003 6.94987C11.597 7.72327 11.5905 8.51267 11.597 9.29247C11.6098 10.7587 11.6002 12.2216 11.6002 13.7199H9.5025V13.3268C9.5025 11.6673 9.5025 10.0111 9.5025 8.35157C9.5025 8.07127 9.4735 7.78767 9.4348 7.51057C9.3671 7.03367 9.148 6.64057 8.6486 6.52457C8.133 6.40537 7.6787 6.55357 7.3339 6.96607C7.0084 7.35917 6.8828 7.82318 6.8828 8.32578C6.8828 9.98528 6.8828 11.6416 6.8828 13.301C6.8828 13.4396 6.8828 13.5782 6.8828 13.736H4.7657C4.7657 13.5685 4.7657 13.4203 4.7657 13.272C4.7657 11.6899 4.7657 10.111 4.7657 8.52887C4.7657 8.23557 4.7464 7.93917 4.7206 7.64597C4.6723 7.06267 4.3758 6.65347 3.9279 6.52777C3.4092 6.38277 2.8356 6.60517 2.5069 7.07237C2.2008 7.51377 2.1267 8.01968 2.1235 8.53848C2.1203 10.1078 2.1235 11.6738 2.1235 13.243C2.1235 13.3945 2.1235 13.5492 2.1235 13.7425L2.1203 13.7328Z" fill="white"/>
<path d="M34.6298 4.89087H36.7791C36.7791 5.04227 36.7791 5.17767 36.7791 5.31617C36.7791 6.96277 36.7759 8.60937 36.7823 10.256C36.7823 10.5621 36.8049 10.8746 36.8661 11.1711C36.9886 11.7608 37.3076 12.0637 37.8199 12.1313C38.4805 12.2183 39.025 12.0121 39.228 11.4579C39.4149 10.9391 39.5309 10.3655 39.5438 9.81447C39.5857 8.32257 39.5567 6.83067 39.5567 5.33877C39.5567 5.20017 39.5567 5.06167 39.5567 4.90047H41.6673V13.7263H39.7436C39.721 13.3171 39.7017 12.924 39.6791 12.5309C39.6501 12.518 39.6244 12.5051 39.5954 12.489C39.5116 12.6018 39.4278 12.7113 39.344 12.8241C38.3967 14.113 36.4343 14.2902 35.3967 13.1786C34.9682 12.7178 34.7845 12.1442 34.7072 11.5384C34.6524 11.0809 34.6298 10.6169 34.6298 10.1561C34.6202 8.54817 34.6266 6.94017 34.6266 5.33227V4.89087H34.6298Z" fill="white"/>
<path d="M83.8274 13.7328H81.6943C81.6943 13.5942 81.6943 13.4621 81.6943 13.3268C81.6943 11.6028 81.6943 9.87885 81.6878 8.15495C81.6878 7.95195 81.6588 7.74576 81.6201 7.54596C81.4977 6.90156 81.2109 6.57926 80.7082 6.49546C80.0767 6.39236 79.458 6.64376 79.2292 7.22056C79.0488 7.67486 78.9392 8.18395 78.9295 8.67055C78.8941 10.3429 78.9167 12.0121 78.9167 13.7167H76.8157V4.89725H78.7265C78.7523 5.31615 78.7749 5.73185 78.8039 6.22805C79.0294 5.94445 79.1873 5.71896 79.371 5.51916C80.1089 4.72646 81.0305 4.61046 82.0261 4.84566C82.9767 5.07126 83.4568 5.75756 83.6727 6.64696C83.7791 7.07876 83.8338 7.53625 83.8371 7.98095C83.8564 9.82085 83.8435 11.6608 83.8435 13.4975C83.8435 13.562 83.8371 13.6232 83.8306 13.7295L83.8274 13.7328Z" fill="white"/>
<path d="M25.0791 8.2451C25.2498 6.8305 24.3122 5.9798 22.8847 6.2924C22.2563 6.4309 21.6602 6.7113 20.9997 6.9465C20.9642 6.5051 20.9127 5.9959 20.8901 5.4836C20.8901 5.4224 21.0158 5.3354 21.1028 5.2967C22.3852 4.7199 23.7225 4.5878 25.0887 4.9004C26.3035 5.1807 26.9899 6.099 27.0446 7.475C27.0801 8.3611 27.0736 9.2472 27.0801 10.1333C27.0833 10.7391 27.0704 11.3417 27.0833 11.9475C27.0962 12.5339 27.1381 13.1204 27.1671 13.7294H25.2627C25.2273 13.3782 25.1886 13.0173 25.1435 12.5661C24.9824 12.7466 24.8696 12.8755 24.7536 12.9979C23.7031 14.1257 21.8632 14.1902 20.7515 13.2009C19.6689 12.2375 19.5786 9.5984 21.4347 8.8348C22.0533 8.5802 22.7365 8.4642 23.4035 8.3546C23.9448 8.2644 24.5023 8.2805 25.0791 8.2451ZM25.1048 9.3761C24.5152 9.4277 23.977 9.4341 23.4518 9.5308C22.8299 9.6435 22.2596 9.8917 22.0405 10.5651C21.7891 11.3481 22.1081 12.1054 22.7784 12.3664C23.5581 12.6693 24.4314 12.3631 24.7858 11.6381C25.1242 10.9518 25.1306 10.2107 25.1048 9.3761Z" fill="white"/>
<path d="M55.1492 9.8789H50.0612C49.7261 11.1356 50.6251 12.2731 52.0011 12.3472C52.8904 12.3955 53.7411 12.2473 54.5724 11.6769C54.6047 12.2376 54.6369 12.7403 54.6498 13.2397C54.6498 13.2977 54.5531 13.388 54.479 13.4138C53.1482 13.9229 51.7948 14.1098 50.4157 13.6393C49.4232 13.301 48.7143 12.6179 48.3373 11.6479C47.651 9.8757 47.738 8.1228 48.666 6.4536C49.9001 4.2271 52.797 4.3721 54.0118 5.69C54.5918 6.3183 54.8753 7.0852 54.9978 7.9069C55.0912 8.5385 55.0977 9.1829 55.146 9.8757L55.1492 9.8789ZM53.1772 8.54809C53.029 7.9552 52.9677 7.3978 52.7486 6.9112C52.3523 6.0315 51.1987 5.9026 50.5671 6.6341C50.1031 7.1754 49.9549 7.82309 50.0065 8.54809H53.1772Z" fill="white"/>
<path d="M14.5131 9.87548C14.2908 11.2257 15.1447 12.2729 16.4948 12.3438C17.1779 12.3792 17.9126 12.3792 19.0694 11.709C19.1016 12.2052 19.1435 12.6821 19.1564 13.1622C19.1564 13.246 19.0662 13.3781 18.9856 13.4104C17.6452 13.9259 16.2757 14.116 14.8869 13.6262C13.9686 13.304 13.2822 12.6853 12.9084 11.7928C12.1286 9.92708 12.2092 8.07428 13.2468 6.32778C14.4165 4.35578 17.0491 4.35578 18.3476 5.53188C19.1242 6.23438 19.4078 7.18168 19.5399 8.17738C19.614 8.72188 19.6172 9.27618 19.6591 9.87868H14.5099L14.5131 9.87548ZM17.5163 8.55118C17.6001 7.93568 17.5002 7.33638 17.2521 6.87878C17.0104 6.43738 16.6527 6.18598 16.1404 6.17638C15.1157 6.15698 14.2231 7.46528 14.5357 8.54788H17.5195L17.5163 8.55118Z" fill="white"/>
<path d="M70.6259 9.87226C70.497 11.6253 71.6216 12.5887 73.4164 12.3245C73.7193 12.2794 74.0254 12.2214 74.3154 12.1215C74.6022 12.0248 74.8728 11.8734 75.2015 11.7187C75.2273 12.2085 75.2627 12.6854 75.2724 13.1655C75.2724 13.2428 75.1983 13.3717 75.1306 13.3975C73.5775 13.984 72.0147 14.1902 70.4776 13.3717C69.4014 12.7982 68.8601 11.8057 68.6538 10.6521C68.3864 9.16016 68.5346 7.71016 69.3273 6.37616C70.5002 4.40416 73.0426 4.34606 74.3895 5.45776C75.1918 6.11836 75.4979 7.04956 75.6429 8.02916C75.7332 8.62206 75.73 9.22786 75.7751 9.87226H70.6259ZM70.6033 8.54796H73.7483C73.6548 8.04206 73.6129 7.55876 73.4711 7.10756C73.3068 6.58556 72.9362 6.23756 72.3562 6.18276C71.7569 6.12806 71.309 6.38256 70.9997 6.88526C70.6935 7.38146 70.6098 7.93246 70.6033 8.54796Z" fill="white"/>
<path d="M87.8649 6.41815C87.8649 8.12595 87.8489 9.76936 87.8709 11.4128C87.8809 12.1184 88.4449 12.4439 89.2409 12.2538C89.3629 12.2248 89.4829 12.1797 89.6369 12.1313C89.6369 12.5792 89.6499 12.9981 89.6279 13.4202C89.6209 13.5137 89.5149 13.6522 89.4209 13.6845C88.5549 13.9906 87.6749 14.0196 86.8337 13.6297C85.9379 13.2172 85.7349 12.3794 85.7188 11.5062C85.6898 9.96595 85.7059 8.42245 85.7059 6.87895C85.7059 6.74045 85.7059 6.60505 85.7059 6.43105H84.3364V4.89085H85.6834V3.05735C86.4116 2.83505 87.1039 2.61915 87.8419 2.39355V4.86505H89.6149V6.41815H87.8619H87.8649Z" fill="white"/>
<path d="M28.1175 13.4846C28.1562 12.8788 28.1949 12.3213 28.2303 11.7478C28.6556 11.8895 29.0455 12.0861 29.4516 12.1441C30.0154 12.2214 30.6083 12.2827 31.1594 12.1892C31.9005 12.0668 32.0938 11.2709 31.5331 10.7585C31.2141 10.4685 30.821 10.2559 30.4569 10.0238C30.0896 9.7886 29.7061 9.5792 29.3388 9.3407C28.4688 8.7768 27.9725 7.9938 28.1498 6.9401C28.3238 5.909 29.0198 5.2807 29.9832 4.9455C31.0627 4.5685 32.1357 4.7522 33.1958 5.0422C33.2796 5.0648 33.3795 5.2452 33.3763 5.3516C33.3666 5.7995 33.3215 6.2441 33.2925 6.6405C32.6513 6.5374 32.0261 6.431 31.3978 6.344C31.2399 6.3215 31.0659 6.3698 30.9048 6.3988C30.5697 6.4632 30.3055 6.6211 30.2088 6.9788C30.1057 7.3623 30.2378 7.678 30.5342 7.9004C30.9982 8.2419 31.488 8.548 31.9681 8.8703C32.2549 9.0636 32.5449 9.2569 32.8349 9.4471C33.6566 9.9916 34.0143 10.7392 33.85 11.722C33.6921 12.6629 33.1185 13.259 32.2581 13.5909C30.879 14.1258 29.5128 13.9067 28.1111 13.4813L28.1175 13.4846Z" fill="white"/>
<path d="M98.2081 31.091C98.2021 32.6828 96.8711 34.0103 95.2791 34.0136C93.6681 34.0136 92.2891 32.6924 92.3151 31.0845C92.3441 29.3606 93.6201 28.1522 95.2861 28.1232C96.8811 28.0975 98.2151 29.4766 98.2081 31.091Z" fill="#004E7C"/>
<path d="M82.8445 26.8667C82.851 25.2556 84.1624 23.9441 85.7607 23.9473C87.4429 23.9506 88.7119 25.2652 88.7059 26.9892C88.6999 28.5165 87.3559 29.8538 85.7929 29.8344C83.9949 29.8119 82.7865 28.3393 82.8478 26.8635L82.8445 26.8667Z" fill="#004E7C"/>
<path d="M45.2858 13.7293H43.1753V4.90683H45.0152C45.041 5.37403 45.0667 5.85093 45.0925 6.32783C45.5436 5.65113 45.9947 5.02923 46.8035 4.82623C47.1 4.75213 47.419 4.76823 47.7477 4.74243V6.69833C47.3674 6.71773 46.9872 6.68223 46.636 6.76923C45.7982 6.97553 45.3149 7.69083 45.2987 8.74453C45.2762 10.2622 45.2891 11.7766 45.2858 13.2943C45.2858 13.4329 45.2858 13.5714 45.2858 13.7293Z" fill="white"/>
<path d="M92.605 21.9365C93.845 21.9365 94.954 22.9869 94.941 24.2211C94.925 25.568 93.839 26.5572 92.615 26.5508C91.342 26.5411 90.298 25.5229 90.291 24.2662C90.288 22.9773 91.319 21.9397 92.605 21.9397V21.9365Z" fill="#376B96"/>
<path d="M32.2743 16.8647C32.5772 18.2793 32.8801 19.6874 33.1894 21.1277H32.6448C32.5868 20.8635 32.5256 20.5961 32.4644 20.3351C31.9252 20.2728 31.5708 20.5413 31.4011 21.1406C31.3334 21.1439 31.256 21.1503 31.1819 21.1503C31.1078 21.1503 31.0305 21.1503 30.8984 21.1503C31.0176 20.5703 31.1272 20.0289 31.2464 19.4844C31.4139 18.711 31.6105 17.9409 31.7523 17.1611C31.8167 16.8163 31.9811 16.7873 32.2743 16.8615V16.8647ZM32.0745 17.8765C32.0487 17.8765 32.023 17.8765 31.9972 17.8765C31.8941 18.5338 31.7909 19.1879 31.6846 19.8517H32.3774C32.2743 19.1686 32.1744 18.5209 32.0745 17.8732V17.8765Z" fill="white"/>
<path d="M6.76025 16.8582C7.99115 16.7487 8.41655 16.9421 8.50995 17.6285C8.65815 18.7176 8.41005 19.0655 7.30805 19.2749V21.1245H6.76025V16.8582ZM7.32735 17.319V18.7337C7.77205 18.7434 7.94605 18.566 7.96215 18.1085C7.98475 17.5865 7.81075 17.3577 7.32735 17.319Z" fill="white"/>
<path d="M13.208 21.1312V16.8616H14.6838V17.2934H13.7784V18.679H14.5839C14.5936 18.8401 14.6 18.9722 14.6097 19.1591H13.7784V20.68H14.6838V21.1312H13.2048H13.208Z" fill="white"/>
<path d="M55.1814 16.8455H56.6346C56.6411 16.9841 56.6475 17.1162 56.654 17.2934H55.7388V18.6726H56.5509C56.5573 18.8466 56.5638 18.9819 56.5734 19.1527C56.2899 19.1688 56.0256 19.1817 55.7421 19.1978V20.6671H56.6282V21.1312H55.1846V16.8455H55.1814Z" fill="white"/>
<path d="M61.294 20.5511C61.3327 20.5479 61.3488 20.5382 61.3585 20.5446C61.6517 20.6735 61.9449 20.7863 62.1963 20.477C62.4025 20.2256 62.3509 19.7584 62.0803 19.4458C61.8869 19.2235 61.6614 19.0269 61.468 18.8046C61.0814 18.3664 61.0201 17.8605 61.2199 17.3288C61.4036 16.8358 62.1125 16.5845 62.5443 16.8745C62.6603 16.9518 62.6635 17.1967 62.7441 17.4351C62.6119 17.4029 62.5668 17.3997 62.5314 17.3836C62.2446 17.2483 61.9675 17.2386 61.7774 17.5221C61.5808 17.8121 61.6324 18.1118 61.8612 18.3696C62.0803 18.6209 62.309 18.8626 62.5314 19.1139C62.8955 19.5264 62.9535 20.0097 62.8149 20.5189C62.6925 20.9635 62.2253 21.2696 61.7806 21.2213C61.3166 21.1698 61.2264 21.0473 61.2973 20.5511H61.294Z" fill="white"/>
<path d="M1.91073 17.435C1.72063 17.3899 1.66903 17.3834 1.62713 17.3641C1.35973 17.2384 1.11163 17.2674 0.937631 17.5026C0.750731 17.754 0.766831 18.044 0.953731 18.2889C1.15023 18.5434 1.37903 18.769 1.59813 19.0042C2.02033 19.4586 2.13303 19.9838 1.93653 20.5702C1.79793 20.9827 1.47573 21.1792 1.06323 21.2179C0.560631 21.263 0.367231 21.0439 0.415631 20.5026C0.467131 20.5187 0.515532 20.5316 0.560632 20.5541C0.831232 20.6895 1.10513 20.7636 1.33073 20.4929C1.55623 20.2222 1.53693 19.9 1.35323 19.6326C1.15993 19.349 0.902131 19.1105 0.666931 18.856C0.312531 18.4693 0.170732 18.0343 0.309232 17.5123C0.467132 16.913 1.05683 16.5875 1.62073 16.8517C1.74963 16.913 1.78833 17.174 1.91073 17.435Z" fill="white"/>
<path d="M20.9996 17.3354C20.4002 17.2387 20.0361 17.4417 19.9652 18.0475C19.8944 18.663 19.8976 19.301 19.9652 19.9164C20.0297 20.5093 20.3777 20.7156 20.9964 20.6704C21.18 21.0668 20.9964 21.2247 20.5678 21.2118C20.0394 21.1957 19.6559 20.9218 19.4948 20.4191C19.1887 19.4653 19.208 18.4986 19.5077 17.5481C19.6527 17.0841 20.0039 16.8069 20.5034 16.7618C20.9609 16.7199 21.0995 16.8811 21.0028 17.3322L20.9996 17.3354Z" fill="white"/>
<path d="M44.4545 21.1341H43.9035V17.3222C43.6715 17.3093 43.4685 17.2964 43.2397 17.2835V16.855H45.057V17.2739C44.8669 17.29 44.68 17.3093 44.4545 17.3286V21.1341Z" fill="white"/>
<path d="M38.3547 20.6833H39.3182C39.3246 20.8379 39.3311 20.97 39.3375 21.1279H37.8198V16.8616H38.3547V20.68V20.6833Z" fill="white"/>
<path d="M25.7654 16.8486H26.2551V21.131H25.7654V16.8486Z" fill="white"/>
<path d="M50.1966 21.1344H49.6907V16.8616H50.1966V21.1344Z" fill="white"/>
<path d="M88.2189 21.9976C89.3159 21.9976 90.2039 21.109 90.2039 20.0127C90.2039 18.9165 89.3159 18.0278 88.2189 18.0278C87.1229 18.0278 86.2344 18.9165 86.2344 20.0127C86.2344 21.109 87.1229 21.9976 88.2189 21.9976Z" fill="#748CB0"/>
<path d="M96.6261 21.6658C97.7231 21.6658 98.6111 20.7771 98.6111 19.6809C98.6111 18.5847 97.7231 17.696 96.6261 17.696C95.5301 17.696 94.6411 18.5847 94.6411 19.6809C94.6411 20.7771 95.5301 21.6658 96.6261 21.6658Z" fill="#748CB0"/>
<path d="M83.1442 20.1225C84.075 20.1225 84.8295 19.368 84.8295 18.4373C84.8295 17.5065 84.075 16.752 83.1442 16.752C82.2135 16.752 81.459 17.5065 81.459 18.4373C81.459 19.368 82.2135 20.1225 83.1442 20.1225Z" fill="#95A2C2"/>
<path d="M98.312 16.507C99.242 16.507 99.997 15.7525 99.997 14.8218C99.997 13.891 99.242 13.1365 98.312 13.1365C97.381 13.1365 96.626 13.891 96.626 14.8218C96.626 15.7525 97.381 16.507 98.312 16.507Z" fill="#95A2C2"/>
<path d="M79.11 19.681C79.7969 19.681 80.3538 19.1241 80.3538 18.4372C80.3538 17.7503 79.7969 17.1934 79.11 17.1934C78.4231 17.1934 77.8662 17.7503 77.8662 18.4372C77.8662 19.1241 78.4231 19.681 79.11 19.681Z" fill="#9CA9C6"/>
<path d="M98.3121 11.9476C98.9981 11.9476 99.5551 11.3907 99.5551 10.7038C99.5551 10.0168 98.9981 9.45996 98.3121 9.45996C97.6251 9.45996 97.0681 10.0168 97.0681 10.7038C97.0681 11.3907 97.6251 11.9476 98.3121 11.9476Z" fill="#9CA9C6"/>
<path d="M75.4849 20.4993C76.0935 20.4993 76.5869 20.0059 76.5869 19.3973C76.5869 18.7886 76.0935 18.2952 75.4849 18.2952C74.8762 18.2952 74.3828 18.7886 74.3828 19.3973C74.3828 20.0059 74.8762 20.4993 75.4849 20.4993Z" fill="#A8B3CE"/>
<path d="M97.384 8.26758C97.992 8.26758 98.486 7.77418 98.486 7.16548C98.486 6.55688 97.992 6.06348 97.384 6.06348C96.775 6.06348 96.282 6.55688 96.282 7.16548C96.282 7.77418 96.775 8.26758 97.384 8.26758Z" fill="#A8B3CE"/>
<path d="M72.7268 21.611C73.1842 21.611 73.5549 21.2403 73.5549 20.7829C73.5549 20.3255 73.1842 19.9548 72.7268 19.9548C72.2695 19.9548 71.8987 20.3255 71.8987 20.7829C71.8987 21.2403 72.2695 21.611 72.7268 21.611Z" fill="#AFB9D2"/>
<path d="M96.0531 5.17744C96.5101 5.17744 96.8811 4.80674 96.8811 4.34934C96.8811 3.89194 96.5101 3.52124 96.0531 3.52124C95.5951 3.52124 95.2251 3.89194 95.2251 4.34934C95.2251 4.80674 95.5951 5.17744 96.0531 5.17744Z" fill="#AFB9D2"/>
<path d="M70.8673 22.9902C71.2161 22.9902 71.4989 22.7075 71.4989 22.3587C71.4989 22.0099 71.2161 21.7271 70.8673 21.7271C70.5185 21.7271 70.2358 22.0099 70.2358 22.3587C70.2358 22.7075 70.5185 22.9902 70.8673 22.9902Z" fill="#CACFE2"/>
<path d="M94.4191 3.17013C94.7681 3.17013 95.0511 2.88733 95.0511 2.53853C95.0511 2.18973 94.7681 1.90698 94.4191 1.90698C94.0701 1.90698 93.7881 2.18973 93.7881 2.53853C93.7881 2.88733 94.0701 3.17013 94.4191 3.17013Z" fill="#CACFE2"/>
<path d="M69.4947 24.2855C69.7402 24.2855 69.9393 24.0864 69.9393 23.8409C69.9393 23.5953 69.7402 23.3962 69.4947 23.3962C69.2491 23.3962 69.05 23.5953 69.05 23.8409C69.05 24.0864 69.2491 24.2855 69.4947 24.2855Z" fill="#E2E7F1"/>
<path d="M92.9499 1.55243C93.1949 1.55243 93.3939 1.35335 93.3939 1.10776C93.3939 0.862166 93.1949 0.663086 92.9499 0.663086C92.7039 0.663086 92.5049 0.862166 92.5049 1.10776C92.5049 1.35335 92.7039 1.55243 92.9499 1.55243Z" fill="#E2E7F1"/>
</g>
</svg>
