<svg width="118" height="30" viewBox="0 0 118 30" fill="none" xmlns="http://www.w3.org/2000/svg">
<mask id="mask0_12_3458" style="mask-type:luminance" maskUnits="userSpaceOnUse" x="0" y="0" width="118" height="30">
<path d="M118 0.25H0V29.75H118V0.25Z" fill="white"/>
</mask>
<g mask="url(#mask0_12_3458)">
<path fill-rule="evenodd" clip-rule="evenodd" d="M102.43 27.4187C101.691 28.6577 99.898 29.6718 98.442 29.6718H1.69239C0.23755 29.6718 -0.35096 28.6577 0.38692 27.4187L14.9562 2.93593C15.6941 1.69693 17.488 0.682129 18.9443 0.682129H115.694C117.149 0.682129 117.737 1.69623 117 2.93593L102.43 27.4187Z" fill="#EC9430"/>
<path fill-rule="evenodd" clip-rule="evenodd" d="M87.4634 19.5975H90.1303V10.2305H87.4634V19.5975ZM93.9653 14.9247H93.9594L93.9653 14.9033L96.702 10.2305H94.0363L91.2976 14.9033L91.3133 14.9247H91.2976L94.0363 19.5975H96.702L93.9653 14.9247ZM64.5452 10.2312H62.4041L56.9268 19.5975H59.6243L63.5243 12.9282V19.5975H66.2211V10.2312H64.5452ZM35.332 15.6931H39.5292L40.4389 14.1569H36.1804L35.332 15.6931Z" fill="#FFFFFE"/>
<path fill-rule="evenodd" clip-rule="evenodd" d="M34.474 13.7831H34.477C34.477 12.6002 34.8355 12.1555 36.0006 12.1555H39.796L40.9304 10.2136H35.6018C33.3336 10.2136 31.834 10.9991 31.834 13.8377V19.6153H40.0313L41.1664 17.6742H34.474V13.7831ZM80.5516 15.6932H84.751L85.6599 14.157H81.4007L80.5516 15.6932Z" fill="#FFFFFE"/>
<path fill-rule="evenodd" clip-rule="evenodd" d="M79.7868 13.7831H79.7898C79.7898 12.6002 80.1482 12.1555 81.3148 12.1555H85.1087L86.2439 10.2136H80.9167C78.6479 10.2136 77.149 10.9991 77.149 13.8377V19.6153H85.3455L86.4807 17.6742H79.7868V13.7831ZM67.3998 12.1798H70.7172V19.5976H73.3274V12.1798H75.7822L76.9204 10.2313H68.5394L67.3998 12.1798ZM46.6631 17.6771H45.2158V12.151H46.6631C48.7714 12.151 49.4324 12.5176 49.4324 14.8429C49.4324 17.169 48.7714 17.6771 46.6631 17.6771ZM47.2307 10.2136H42.6586V19.6153H47.3532C50.6512 19.6153 52.1344 18.3593 52.1344 14.8407C52.1344 11.5131 50.6647 10.2136 47.2307 10.2136ZM53.6229 19.5976H56.2898V10.2313H53.6229V19.5976ZM24.4104 14.9911V10.2313L21.2394 10.2409L15.7695 19.5872H18.3849L21.7435 13.8502V19.5489L21.7203 19.5872H21.7435V19.5976H24.4104L27.6943 13.8502V19.5976H30.3612V10.2313L27.1901 10.2409L24.4104 14.9911Z" fill="#FFFFFE"/>
</g>
</svg>
