<svg width="125" height="50" viewBox="0 0 125 50" fill="none" xmlns="http://www.w3.org/2000/svg">
<path d="M42.9255 13.6392C42.9459 20.3495 42.9829 20.6526 43.6257 19.6782C43.9942 19.1173 45.0468 17.9134 45.9557 17.0044C46.8689 16.0954 48.6253 14.8547 49.8659 14.2446C51.1065 13.6346 53.2237 12.9301 54.5749 12.6763C56.3885 12.3406 57.7278 12.3404 59.693 12.6802C61.3881 12.975 63.3126 13.7001 64.9831 14.6704C66.6413 15.6326 68.2342 16.9922 70.9528 20.4888L71.1569 6.57568H78.1178V28.2769H92.8581V6.57568H117.016V13.5366H100.228V17.2212H117.016V24.1821H100.228V28.2769H117.016V35.2368H71.1569V31.5522H49.4567C49.4618 31.5675 49.9023 32.8765 50.3942 33.5991C51.6458 35.4375 54.165 36.9165 56.0075 36.9165C59.8737 36.9165 62.122 35.6622 62.1491 35.647H70.7477L70.0309 36.9204C69.6377 37.6206 68.4835 38.9225 67.4723 39.8149C66.461 40.7034 64.6182 41.9028 63.3776 42.4761C62.0388 43.0943 60.0491 43.6069 58.4645 43.7339C56.9291 43.8608 54.8484 43.7291 53.5505 43.4302C52.3099 43.1395 50.6068 42.5628 49.7634 42.1411C48.9199 41.7235 47.3803 40.5973 46.3444 39.6392C45.3126 38.681 44.1128 37.3005 42.905 35.2368H35.944L35.9196 31.4497C35.9073 29.3656 35.9073 25.4961 35.9196 22.8511C35.936 20.2066 35.8052 18.0412 35.6374 18.0405C35.4695 18.0405 34.0409 21.8648 29.5983 35.0327L22.2282 35.2661L16.36 17.8354L16.2907 35.2368H8.92058V6.57568L20.1803 6.5835L22.944 14.769C24.4615 19.2644 25.7505 22.9549 25.8102 22.9663C25.8675 22.9745 27.2026 19.2892 31.6452 6.57568H42.905L42.9255 13.6392ZM56.8268 19.7026C55.4674 19.7108 54.0052 20.0101 53.1413 20.4604C52.3512 20.8699 51.2009 21.7825 50.5827 22.4907C49.9666 23.1925 49.4603 24.1752 49.4567 24.1821L64.5934 24.2847C64.5893 24.1168 64.1599 23.4241 63.6481 22.7485C63.1321 22.0729 61.8912 21.1066 60.8923 20.603C59.6559 19.9808 58.362 19.6945 56.8268 19.7026Z" fill="#E50B1A"/>
</svg>
