<svg width="300" height="85" viewBox="0 0 300 85" fill="none" xmlns="http://www.w3.org/2000/svg">
<path d="M220 7.09961H211.6V15.4996H220V7.09961Z" fill="#65BBA9"/>
<path d="M242.2 0H233.8V8.4H242.2V0Z" fill="#65BBA9"/>
<path d="M235.9 20.9004H227.5V29.3004H235.9V20.9004Z" fill="#65BBA9"/>
<path d="M250.3 16H243.3V23H250.3V16Z" fill="#65BBA9"/>
<path d="M265.2 10.0996H259.1V16.1996H265.2V10.0996Z" fill="#65BBA9"/>
<path d="M249.8 36.1992H245.6V40.3992H249.8V36.1992Z" fill="#65BBA9"/>
<path d="M259.7 48.0996H257.6V50.1996H259.7V48.0996Z" fill="#65BBA9"/>
<path d="M264.5 29.5996H259.2V34.8996H264.5V29.5996Z" fill="#65BBA9"/>
<path d="M277.7 23.8008H272.9V28.6008H277.7V23.8008Z" fill="#65BBA9"/>
<path d="M273.8 43.3008H269V48.1008H273.8V43.3008Z" fill="#65BBA9"/>
<path d="M287.1 36.8008H283.5V40.4008H287.1V36.8008Z" fill="#65BBA9"/>
<path d="M299.3 28.1992H296.5V30.9992H299.3V28.1992Z" fill="#65BBA9"/>
<path d="M201.4 17.0996H196.1V22.3996H201.4V17.0996Z" fill="#65BBA9"/>
<path d="M186.3 28.4004H182.7V32.0004H186.3V28.4004Z" fill="#65BBA9"/>
<path d="M30.6 64.5004L14.6 26.4004L0 82.0004H8.2L16.3 50.9004L30.6 85.0004L44.9 51.2004L52.9 82.0004H61.1L46.5 26.4004L30.6 64.5004Z" fill="white"/>
<path d="M212.5 30.5996H204.3V38.7996H212.5V30.5996Z" fill="white"/>
<path d="M82.4 46.9004C77.4 46.9004 73.2 48.7004 69.7 52.2004C66.3 55.7004 64.5 59.9004 64.5 64.7004C64.5 69.8004 66.2 74.2004 69.6 77.6004C73 81.1004 77.3 82.8004 82.3 82.8004C88.9 82.8004 94.2 80.2004 98.1 75.2004L98.5 74.7004L92.4 70.1004L92 70.6004C89.5 73.7004 86.4 75.2004 82.7 75.2004C80.3 75.2004 78.1 74.5004 76 73.0004C74.2 71.7004 72.9 69.6004 72.3 66.9004H100.1V66.2004C100.2 60.5004 98.4 55.8004 94.9 52.3004C91.5 48.7004 87.2 46.9004 82.4 46.9004ZM73.3 60.0004C75.3 56.4004 78.2 54.6004 82.4 54.6004C86.2 54.6004 89 56.4004 91.1 60.0004H73.3Z" fill="white"/>
<path d="M116 30.5996H107.7V81.9996H116V30.5996Z" fill="white"/>
<path d="M140.9 46.9004C135.9 46.9004 131.7 48.7004 128.2 52.2004C124.8 55.7004 123 59.9004 123 64.7004C123 69.8004 124.7 74.2004 128.1 77.6004C131.5 81.1004 135.8 82.8004 140.8 82.8004C147.4 82.8004 152.7 80.2004 156.6 75.2004L157 74.7004L150.9 70.1004L150.5 70.6004C148 73.7004 144.9 75.2004 141.2 75.2004C138.8 75.2004 136.6 74.5004 134.5 73.0004C132.7 71.7004 131.4 69.6004 130.8 66.9004H158.6V66.2004C158.7 60.5004 156.9 55.8004 153.4 52.3004C150.1 48.7004 145.8 46.9004 140.9 46.9004ZM131.9 60.0004C133.9 56.4004 136.8 54.6004 141 54.6004C144.8 54.6004 147.6 56.4004 149.7 60.0004H131.9Z" fill="white"/>
<path d="M196.2 47.8008H186.1L179.3 56.7008L172.3 47.8008H162.2L174.3 63.3008L159.9 82.0008H169.8L179.2 69.9008L188.6 82.0008H198.6L184.2 63.3008L196.2 47.8008Z" fill="white"/>
<path d="M212.5 47.8008H204.3V82.0008H212.5V47.8008Z" fill="white"/>
<path d="M232.5 60.7C228.2 59 227.6 57.7 227.6 57C227.6 55.9 228 54.6 231.1 54.6C232.2 54.6 233.1 54.8 233.9 55.2C234.7 55.6 235.7 56.2 236.9 57.1L237.3 57.4L242.9 52.5L242.3 52C238.3 48.7 234.7 47 231.4 47C228.1 47 225.4 48 223.2 49.9C221 51.8 219.9 54.3 219.9 57.2C219.9 59.6 220.7 61.6 222.3 63.2C223.8 64.8 226.5 66.3 230.4 67.8C233.8 69.1 235.6 70.6 235.6 72.1C235.6 72.9 235.2 73.6 234.3 74.3C233.3 75 232.2 75.3 230.9 75.3C229 75.3 227.2 74.4 225.4 72.7L225.1 72.4L218.5 75.6L219 76.3C222.1 80.8 226.1 83 231 83C234.2 83 237 81.9 239.4 79.7C241.8 77.5 243 74.9 243 72C243 69.5 242.1 67.3 240.5 65.5C238.8 63.7 236.2 62.1 232.5 60.7Z" fill="white"/>
</svg>
