<svg width="125" height="50" viewBox="0 0 125 50" fill="none" xmlns="http://www.w3.org/2000/svg">
<g clip-path="url(#clip0_56_354)">
<path d="M96.9529 20.2836L92.0317 15.3621C91.7906 15.1143 91.5033 14.9169 91.1859 14.7811C90.8685 14.6455 90.5276 14.5743 90.1818 14.5717C89.8369 14.5691 89.4943 14.6352 89.1754 14.7661C88.8555 14.8971 88.5658 15.0902 88.3215 15.3344C88.0771 15.5785 87.884 15.8687 87.7533 16.1882C87.6226 16.5076 87.556 16.8499 87.5585 17.1952C87.5617 17.5404 87.6323 17.8816 87.7679 18.1992C87.9042 18.5166 88.1015 18.804 88.3491 19.0444L93.2703 23.9659C93.9976 24.6934 94.4919 25.6203 94.6916 26.6291C94.8913 27.638 94.7866 28.6833 94.3913 29.6328C93.9968 30.5822 93.3288 31.3931 92.4724 31.9626C91.6161 32.5321 90.6104 32.8347 89.582 32.832H77.6042V38.0402H89.582C91.6396 38.0427 93.6526 37.4345 95.3653 36.2927C97.0779 35.1509 98.4132 33.5268 99.2021 31.6257C99.9919 29.7247 100.199 27.6323 99.7987 25.6133C99.3986 23.5943 98.4075 21.7395 96.9529 20.2836Z" fill="#00A19B"/>
<path d="M85.5706 28.4243C86.0584 28.9129 86.7215 29.1875 87.4123 29.1877C88.103 29.1879 88.7654 28.9137 89.254 28.4254C89.7426 27.937 90.017 27.2746 90.017 26.5839C90.0178 25.8931 89.7434 25.2306 89.2548 24.742L84.3425 19.8205C83.616 19.0931 83.1209 18.1663 82.922 17.1577C82.7223 16.1491 82.8262 15.1039 83.2207 14.1546C83.616 13.2052 84.2832 12.3943 85.1395 11.8246C85.9951 11.2549 87.0008 10.952 88.0292 10.9543H90.1128V5.7461H88.0292C85.9707 5.74359 83.9577 6.35174 82.2451 7.49356C80.5328 8.6354 79.1974 10.2596 78.4083 12.1606C77.6191 14.0616 77.4116 16.154 77.812 18.173C78.2124 20.192 79.2029 22.0468 80.6578 23.5028L85.5706 28.4243Z" fill="#00A19B"/>
<path d="M109.375 14.5994H104.167V38.0382H109.375V14.5994Z" fill="#00A19B"/>
<path d="M121.355 19.8091H125V14.601H121.355C119.283 14.601 117.296 15.424 115.83 16.889C114.365 18.354 113.541 20.341 113.541 22.4132V30.221C113.541 32.2932 114.365 34.2802 115.83 35.7452C117.296 37.2102 119.283 38.0333 121.355 38.0333H125V32.8317H121.355C121.012 32.8317 120.673 32.7641 120.357 32.6328C120.041 32.5016 119.753 32.3091 119.511 32.0666C119.27 31.8242 119.078 31.5363 118.947 31.2196C118.817 30.9029 118.75 30.5635 118.751 30.221V22.4132C118.751 21.7225 119.025 21.0602 119.514 20.5718C120.002 20.0835 120.664 19.8091 121.355 19.8091Z" fill="#00A19B"/>
<path d="M38.0181 19.8091H43.2263V14.601H38.0181C35.9459 14.601 33.9586 15.424 32.4932 16.889C31.0278 18.354 30.2043 20.341 30.2036 22.4132V30.221C30.2043 32.2932 31.0278 34.2802 32.4932 35.7452C33.9586 37.2102 35.9459 38.0333 38.0181 38.0333H43.2263V32.8317H38.0181C37.6754 32.8317 37.3362 32.7642 37.0197 32.6328C36.7032 32.5016 36.4157 32.3092 36.1736 32.0668C35.9315 31.8243 35.7397 31.5365 35.6089 31.2198C35.4782 30.9031 35.4112 30.5636 35.4118 30.221V28.9178H40.6221V23.7164H35.4118V22.4132C35.4124 21.7224 35.6872 21.06 36.1759 20.5717C36.6647 20.0834 37.3272 19.8091 38.0181 19.8091Z" fill="#00A19B"/>
<path d="M65.6246 14.601C63.6993 14.598 61.8413 15.3089 60.4099 16.5965C59.2871 15.5911 57.8973 14.9322 56.4082 14.6996C54.9191 14.467 53.3946 14.6706 52.0187 15.2858C50.6429 15.901 49.4746 16.9014 48.6551 18.1662C47.8355 19.431 47.3998 20.9061 47.4005 22.4132V38.0398H52.6086V22.4132C52.6086 21.7226 52.883 21.0602 53.3714 20.5718C53.8597 20.0835 54.522 19.8092 55.2127 19.8092C55.9034 19.8092 56.5657 20.0835 57.0541 20.5718C57.5424 21.0602 57.8167 21.7226 57.8167 22.4132V38.0398H63.0249V22.4132C63.0447 21.7354 63.3278 21.092 63.8142 20.6195C64.3006 20.147 64.952 19.8827 65.6301 19.8827C66.3082 19.8827 66.9596 20.147 67.446 20.6195C67.9324 21.092 68.2155 21.7354 68.2353 22.4132V38.0398H73.4434V22.4132C73.4434 21.3868 73.2412 20.3704 72.8482 19.4221C72.4551 18.4739 71.8791 17.6123 71.1529 16.8868C70.4268 16.1613 69.5648 15.5859 68.6163 15.1937C67.6676 14.8015 66.6511 14.6001 65.6246 14.601Z" fill="#00A19B"/>
<path d="M18.2241 14.601C16.2989 14.5981 14.4409 15.3091 13.0093 16.5965C11.8866 15.5911 10.4968 14.9322 9.00771 14.6996C7.51866 14.467 5.9941 14.6706 4.61824 15.2858C3.24239 15.901 2.07411 16.9014 1.25457 18.1662C0.435024 19.431 -0.00071336 20.9061 8.76645e-07 22.4132V38.0398H5.20153V22.4132C5.22126 21.7354 5.50437 21.092 5.9908 20.6195C6.47721 20.147 7.12861 19.8827 7.80671 19.8827C8.48482 19.8827 9.1362 20.147 9.62265 20.6195C10.109 21.092 10.3922 21.7354 10.4118 22.4132V38.0398H15.62V22.4132C15.62 21.7226 15.8944 21.0602 16.3828 20.5718C16.8711 20.0835 17.5334 19.8092 18.2241 19.8092C18.9148 19.8092 19.5771 20.0835 20.0655 20.5718C20.5538 21.0602 20.8282 21.7226 20.8282 22.4132V38.0398H26.0386V22.4132C26.038 20.3411 25.2144 18.354 23.7489 16.889C22.2835 15.424 20.2963 14.601 18.2241 14.601Z" fill="#00A19B"/>
</g>
<defs>
<clipPath id="clip0_56_354">
<rect width="125" height="50" fill="white"/>
</clipPath>
</defs>
</svg>
