<svg width="99" height="38" viewBox="0 0 99 38" fill="none" xmlns="http://www.w3.org/2000/svg">
<g clip-path="url(#clip0_2394_4538)">
<mask id="mask0_2394_4538" style="mask-type:luminance" maskUnits="userSpaceOnUse" x="0" y="0" width="99" height="38">
<path d="M98.8527 0H0V38H98.8527V0Z" fill="white"/>
</mask>
<g mask="url(#mask0_2394_4538)">
<path d="M20.5477 16.912C20.765 17.1294 20.8835 17.485 20.8835 17.8999V36.5904C20.8835 37.0053 20.765 37.3214 20.5477 37.5387C20.3303 37.7561 19.9945 37.8746 19.5795 37.8746H17.7224C17.2877 37.8746 16.9518 37.7561 16.7345 37.5387C16.5172 37.3214 16.3986 36.9855 16.3986 36.5904V24.0445L11.5976 32.3821C11.4593 32.6192 11.2815 32.797 11.0839 32.955C10.8666 33.1131 10.669 33.1724 10.4516 33.1724C10.3726 33.1724 10.2738 33.1526 10.1553 33.1131C9.99723 33.0736 9.83917 32.9945 9.66135 32.8365C9.48354 32.6982 9.36499 32.5401 9.2662 32.3623L4.46516 24.0247V36.5706C4.46516 36.9855 4.34662 37.3016 4.12929 37.519C3.91196 37.7363 3.55633 37.8549 3.14142 37.8549H1.30399C0.889081 37.8549 0.572964 37.7363 0.335875 37.519C0.118544 37.3016 0 36.9658 0 36.5706V17.8999C0 17.4653 0.118544 17.1294 0.335875 16.912C0.553206 16.6947 0.889081 16.5762 1.30399 16.5762H3.91196C4.62322 16.5762 5.13692 16.8923 5.45303 17.485L10.4714 26.5141L15.47 17.485C15.7861 16.8725 16.2998 16.5762 17.0111 16.5762H19.6191C20.034 16.5762 20.3501 16.6947 20.5872 16.912H20.5477Z" fill="white"/>
<path d="M35.3854 22.4039C36.5709 23.0954 37.4995 24.0438 38.1712 25.2687C38.843 26.4739 39.1788 27.8372 39.1788 29.3388V29.5759C39.1591 30.0303 39.0208 30.3859 38.7837 30.6032C38.5268 30.8403 38.1712 30.9589 37.697 30.9589H27.7196C28.0159 31.8677 28.5889 32.5987 29.3989 33.1519C30.209 33.7051 31.1771 34.0015 32.2835 34.0213C32.7379 34.0213 33.1923 34.041 33.7851 33.8632C33.9036 33.8434 34.9705 33.4878 35.5237 33.231C35.5237 33.231 35.5632 33.2112 35.6027 33.2112C35.8201 33.1124 36.0176 33.1322 36.0769 33.1322C36.0967 33.1322 36.2152 33.1322 36.314 33.1717C36.5313 33.2507 36.6894 33.4088 36.8475 33.6656L37.4995 34.9103C37.6378 35.1869 37.7168 35.4635 37.7168 35.7204C37.7168 36.1155 37.539 36.4119 37.2031 36.6095C36.4721 37.0441 35.662 37.38 34.7927 37.5973C33.9234 37.8147 33.0145 37.9332 32.0859 37.9332C30.4658 37.9332 29.0038 37.5578 27.68 36.8466C26.3563 36.1353 25.3289 35.1474 24.5781 33.883C23.8274 32.6382 23.452 31.2157 23.452 29.6746C23.452 28.1336 23.8076 26.711 24.4991 25.4663C25.1906 24.2216 26.139 23.2337 27.3639 22.5027C28.5691 21.7914 29.9324 21.4161 31.4339 21.4161C32.9553 21.3765 34.2197 21.7322 35.3854 22.4039ZM29.1421 26.0393C28.4703 26.5727 28.0357 27.284 27.7591 28.1336H35.2076C34.9903 27.2642 34.5358 26.5727 33.8641 26.0393C33.1923 25.5058 32.3625 25.2292 31.4339 25.2292C30.5449 25.249 29.7743 25.5058 29.1421 26.0393Z" fill="white"/>
<path d="M55.123 23.1946C56.2294 24.3998 56.8024 26.0199 56.8024 28.0747V36.5704C56.8024 36.9853 56.6839 37.3212 56.4665 37.5385C56.2492 37.7558 55.9133 37.8941 55.4984 37.8941H53.8388C53.4041 37.8941 53.0683 37.7756 52.8509 37.5385C52.6336 37.3212 52.5151 36.9853 52.5151 36.5704V28.5884C52.5151 27.6005 52.2385 26.83 51.6457 26.2373C51.0728 25.6446 50.322 25.3284 49.3539 25.3284C48.4648 25.3284 47.714 25.6446 47.1213 26.2768C46.5088 26.909 46.2125 27.6796 46.2125 28.6082V36.5901C46.2125 37.005 46.0939 37.3409 45.8766 37.5582C45.6593 37.7756 45.3036 37.9139 44.8887 37.9139H43.2291C42.8142 37.9139 42.4981 37.7953 42.261 37.5582C42.0437 37.3409 41.9251 37.005 41.9251 36.5901V22.9971C41.9251 22.5624 42.0437 22.2265 42.261 21.9894C42.4783 21.7721 42.8142 21.6536 43.2291 21.6536H44.8887C45.3234 21.6536 45.6593 21.7721 45.8766 21.9894C46.0939 22.2068 46.2125 22.5624 46.2125 22.9971V23.3725C46.7854 22.76 47.4374 22.266 48.1882 21.9302C48.9192 21.5943 49.7293 21.4165 50.5986 21.4165C52.5151 21.3967 54.0166 22.0092 55.123 23.1946Z" fill="white"/>
<path d="M61.5639 37.8936C61.149 37.8936 60.8329 37.7751 60.5958 37.5577C60.3785 37.3404 60.2599 37.0243 60.2599 36.6094V17.8597C60.2599 17.4447 60.3785 17.1089 60.5958 16.8915C60.8132 16.6742 61.149 16.5557 61.5639 16.5557H63.2236C63.6582 16.5557 63.9941 16.6742 64.2114 16.8915C64.4288 17.1089 64.5473 17.4447 64.5473 17.8597V36.6094C64.5473 37.0243 64.4288 37.3207 64.2114 37.5577C63.9941 37.7751 63.6385 37.8936 63.2236 37.8936H61.5639Z" fill="white"/>
<path d="M79.721 22.4626C80.9855 23.1739 81.9536 24.1618 82.6846 25.4262C83.3959 26.671 83.7712 28.0935 83.7712 29.6346C83.7712 31.1756 83.3959 32.5982 82.6846 33.8429C81.9733 35.0876 80.9855 36.0755 79.721 36.8065C78.4565 37.5177 77.0735 37.8931 75.5324 37.8931C73.9914 37.8931 72.5886 37.5177 71.3241 36.8065C70.0596 36.0952 69.0718 35.1073 68.3407 33.8429C67.6295 32.5982 67.2541 31.1756 67.2541 29.6346C67.2541 28.0935 67.6295 26.671 68.3407 25.4262C69.052 24.1815 70.0399 23.1937 71.3241 22.4626C72.6083 21.7316 73.9914 21.376 75.5324 21.376C77.0735 21.376 78.4763 21.7316 79.721 22.4626ZM78.3577 32.5982C79.1283 31.7881 79.5037 30.8002 79.5037 29.6346C79.5037 28.4491 79.1283 27.4612 78.3577 26.671C77.5872 25.8609 76.6586 25.4658 75.5324 25.4658C74.4063 25.4658 73.4381 25.8609 72.6874 26.671C71.9366 27.481 71.5612 28.4689 71.5612 29.6346C71.5612 30.82 71.9366 31.8276 72.6874 32.6377C73.4381 33.4477 74.3865 33.8429 75.5324 33.8429C76.6586 33.8034 77.5872 33.4082 78.3577 32.5982Z" fill="white"/>
<path d="M95.3774 37.6835C94.7649 37.6638 94.3105 37.1501 94.3105 36.5376C94.4883 22.4506 85.1826 9.5688 71.8463 5.65683C59.281 1.96221 45.7472 6.60519 37.785 17.2149C37.4096 17.7088 36.7378 17.8274 36.2439 17.4915L34.4065 16.2073C33.8928 15.8319 33.7545 15.1009 34.1299 14.6069C43.2182 2.45614 58.7475 -2.85859 73.1503 1.36948C88.6796 5.93344 99.1115 20.3761 98.8547 36.7352C98.8547 37.3674 98.2817 37.8811 97.6495 37.8416L95.3774 37.6835Z" fill="#F7941D"/>
</g>
</g>
<defs>
<clipPath id="clip0_2394_4538">
<rect width="98.8527" height="38" fill="white"/>
</clipPath>
</defs>
</svg>
