<svg width="138" height="26" viewBox="0 0 138 26" fill="none" xmlns="http://www.w3.org/2000/svg">
<path d="M43.3812 6.36536V6.29812H49.1639V6.36536C48.5811 6.90329 48.2225 7.12743 48.3122 7.97915L49.4553 18.2447C49.5898 19.5895 49.7243 20.9119 50.8001 21.8309V21.8981H44.3898V21.8309C44.7932 21.4274 45.2415 20.7998 45.1518 20.1498L44.2777 11.8343H44.2105L41.0501 22.1671C40.2208 21.9878 39.4363 21.5171 38.7415 21.0688C37.5984 20.3292 37.307 19.3429 36.8587 18.1326L34.4829 11.8119H34.4156L33.5863 20.0154C33.5191 20.8223 33.9449 21.4723 34.6622 21.8309V21.8981H29.8656V21.8309C30.9415 20.9792 30.9863 19.7912 31.1208 18.5136L32.2863 8.56191C32.3984 7.66536 32.0174 6.94811 31.3674 6.36536V6.29812H36.9708V6.36536L40.557 15.4429L43.3812 6.36536ZM58.5553 19.2757V14.8154H59.3622C60.2587 14.8154 61.3794 14.7257 61.7156 15.6671H61.8277V12.3498H61.7156C61.4915 12.4395 61.1553 12.4619 60.8191 12.4619H58.5553V8.58432H59.3398C60.5277 8.58432 61.9174 8.47225 62.5898 9.59294H62.657V6.16363H62.5898C62.3208 6.2757 61.9174 6.2757 61.5587 6.2757H53.0191V6.34294C54.207 7.03777 54.0501 8.3826 54.0501 9.63777V18.5136C54.0501 19.7464 54.207 21.0688 53.0191 21.8085V21.8757H63.8001L64.7863 18.2895H64.6743C63.7329 19.3878 62.4777 19.5895 61.1105 19.5895C60.2587 19.6343 59.3622 19.5895 58.5553 19.2757ZM81.8656 22.3912V9.74984C81.8656 8.3826 81.9105 7.32915 82.9415 6.36536V6.29812H78.2794V6.36536C79.3329 7.32915 79.3553 8.3826 79.3553 9.74984V15.8912L71.8691 6.36536V6.29812H66.8036V6.36536C68.1036 7.79984 68.2156 8.42742 68.2156 10.2654V18.4464C68.2156 19.8136 68.1932 20.8671 67.1174 21.8309V21.8981H71.8018V21.8309C70.7484 20.8671 70.726 19.8136 70.726 18.4464V12.1929H70.7932L75.4777 18.2447C76.6656 19.7688 77.1363 20.5757 78.9518 21.4498C79.6691 21.8085 81.0139 22.3912 81.8656 22.3912ZM93.2518 18.4688V8.98777C93.6553 8.8757 94.0363 8.85329 94.4846 8.85329C95.3587 8.85329 96.1208 9.09984 96.4794 9.88432L97.3087 6.29812H86.0346L85.5639 6.23088L84.6225 9.88432L84.8018 9.77226C85.7208 9.14467 86.438 8.89812 87.5363 8.89812C87.9846 8.89812 88.3432 8.89812 88.7467 8.98777V18.5136C88.7467 19.7464 88.9036 21.1136 87.738 21.8309V21.8981H94.3277V21.8309C93.2742 20.8895 93.2518 19.8136 93.2518 18.4688ZM102.755 13.4033C102.755 14.7705 103.226 16.6085 103.898 17.7516C104.571 18.8947 105.804 19.7912 107.193 19.7912C108.471 19.7912 109.659 19.1636 110.443 18.1326C111.183 17.1912 111.34 16.0033 111.34 14.8154C111.34 12.1257 110.241 8.29294 106.902 8.29294C104.033 8.31536 102.755 10.9826 102.755 13.4033ZM98.0484 14.0533C98.0484 9.01019 102.262 5.9395 107.193 5.9395C112.304 5.9395 116.047 8.83088 116.047 14.0309C116.047 19.186 111.833 22.1895 106.879 22.1895C101.904 22.1895 98.0484 19.0292 98.0484 14.0533ZM123.802 8.60674V13.9636C125.304 13.6947 126.424 12.4395 126.424 10.9378C126.424 10.1757 126.11 9.3688 125.46 8.92053C125.035 8.65156 124.519 8.60674 124.048 8.60674H123.802ZM123.802 18.5136C123.802 19.7464 123.645 21.0912 124.833 21.8309V21.8981H118.288V21.8309C119.476 21.0912 119.297 19.7464 119.297 18.5136V9.6826C119.297 8.44984 119.476 7.0826 118.288 6.36536V6.29812H125.483C126.671 6.29812 127.657 6.2757 128.733 6.83605C130.167 7.59812 130.907 8.85329 130.907 10.4447C130.907 12.2154 129.629 13.5154 128.016 14.1878L130.907 18.9171C131.557 19.9705 132.274 20.9792 133.238 21.7636L129.876 21.9878C128.24 22.0774 127.478 21.8533 126.604 20.3964L123.802 15.2412V18.5136ZM136.376 8.78605C136.376 7.64295 135.479 6.88087 134.471 6.88087C133.44 6.88087 132.543 7.64295 132.543 8.78605C132.543 9.86191 133.328 10.6912 134.471 10.6912C135.479 10.6912 136.376 9.92915 136.376 8.78605ZM135.95 8.78605C135.95 9.72743 135.3 10.355 134.471 10.355C133.529 10.355 132.969 9.63777 132.969 8.78605C132.969 7.86708 133.619 7.21708 134.471 7.21708C135.3 7.19467 135.95 7.84467 135.95 8.78605ZM134.067 8.96536H134.404L134.964 9.86191H135.367L134.762 8.94294C135.076 8.89811 135.323 8.74122 135.323 8.36018C135.323 7.93432 135.054 7.75501 134.538 7.75501H133.731V9.86191H134.09V8.96536H134.067ZM134.067 8.67398V8.06881H134.493C134.717 8.06881 134.964 8.09122 134.964 8.36018C134.964 8.67398 134.74 8.69639 134.471 8.69639H134.067V8.67398ZM18.8605 9.41363L18.5243 9.12226L17.0674 10.5567L17.3139 10.8033C17.8294 11.2292 18.3674 11.6102 18.9277 11.9688H14.6018V7.75501C14.9605 8.31536 15.3639 8.83088 15.8122 9.32398C15.8794 9.39122 16.0587 9.57053 16.0587 9.57053L17.538 8.15846L17.2691 7.86708C15.7898 6.14122 14.826 3.9895 14.6018 1.63605H12.4949C12.2708 4.01191 11.2846 6.16364 9.80529 7.8895L9.55874 8.13604L11.0605 9.59294C11.0605 9.59294 12.1363 8.42743 12.4949 7.75501V11.9688H8.1915C8.75184 11.6102 9.51391 11.005 10.0294 10.5792L8.55012 9.12226C6.82426 10.6688 4.33632 11.7223 1.91563 11.9464V14.0085C4.35874 14.2102 6.5777 15.174 8.34839 16.6085L8.59494 16.855L10.0743 15.3981L9.8277 15.1964V15.174C9.31219 14.7481 8.77426 14.3671 8.21391 14.0085H12.5174V18.1998C12.1587 17.6395 11.7553 17.124 11.307 16.6309L11.0829 16.3843L9.62598 17.8188L9.85012 18.0654C11.3294 19.8136 12.2932 21.9654 12.5174 24.3412H14.6243C14.8484 21.9654 15.8794 19.5895 17.538 17.7964L16.1036 16.3843C15.6105 16.8774 15.0053 17.6843 14.6467 18.2223V14.0309H18.9725C18.9725 14.0309 18.5018 14.2998 18.0536 14.636C17.6053 14.9498 17.1122 15.4429 17.1122 15.4429L18.5915 16.8774L18.8156 16.6533C18.9725 16.5188 19.1294 16.3843 19.2863 16.2723C21.0122 15.0395 23.0294 14.2326 25.2484 14.0533V11.9912C22.8053 11.7447 20.6312 10.8257 18.8605 9.41363Z" fill="#004277"/>
</svg>
