<svg width="153" height="42" viewBox="0 0 153 42" fill="none" xmlns="http://www.w3.org/2000/svg">
<g clip-path="url(#clip0_2394_4527)">
<path d="M19.3781 -0.000976562H39.2189C41.0121 0.0857909 42.7474 1.02095 43.8176 2.46708C44.6081 3.53721 45.0516 4.87728 45.013 6.20772C45.013 8.07161 45.013 9.93229 45.013 11.7898C43.7212 11.7898 42.4261 11.7898 41.1278 11.7898C41.1278 10.0737 41.1278 8.36084 41.1278 6.6512C41.1278 6.28485 41.1567 5.90885 41.0507 5.55214C40.8578 4.80016 40.2408 4.18314 39.4985 3.97105C39.1129 3.85536 38.7079 3.89392 38.3223 3.88428C32.12 3.88428 25.9178 3.88428 19.7155 3.88428C18.8382 3.88428 17.9705 4.37596 17.5367 5.13759C13.179 12.6446 8.82457 20.1516 4.47335 27.6586C4.27089 27.9864 4.09735 28.3238 4.01059 28.6901C3.78885 29.5096 3.90454 30.3966 4.30945 31.1293C4.6758 31.8427 5.33138 32.3922 6.08336 32.6622C6.52684 32.8261 6.99924 32.8935 7.462 32.8935C19.7187 32.8935 31.9722 32.8935 44.2225 32.8935C44.2418 33.8191 43.9043 34.7349 43.3066 35.4387C42.6028 36.2678 41.5423 36.7692 40.4626 36.7788C29.4463 36.7788 18.4301 36.7788 7.4138 36.7788C5.5242 36.7499 3.62495 36.0557 2.23667 34.7542C0.877316 33.4816 0.0771267 31.6595 0 29.8085V29.2686C0.0482042 28.131 0.366352 26.9934 0.935161 25.9907C5.35066 18.3648 9.78544 10.7389 14.2106 3.11301C15.2711 1.30054 17.2764 0.0954318 19.3781 -0.000976562ZM20.3904 6.58371C22.3667 6.57407 24.3431 6.58371 26.3195 6.58371C26.3259 9.19959 26.3259 11.8155 26.3195 14.4313C27.8813 11.8187 29.4335 9.19638 30.9953 6.58371C33.2319 6.58371 35.4718 6.58371 37.7149 6.58371C37.7149 14.3864 37.7149 22.189 37.7149 29.9917C35.6132 29.9917 33.5083 29.9917 31.4002 29.9917C31.4002 27.003 31.4002 24.0111 31.4002 21.016C29.5491 24.0047 27.6885 27.003 25.8374 29.9917C23.9543 29.9917 22.0711 29.9917 20.1879 29.9917C20.1879 26.9966 20.1879 24.0047 20.1879 21.016C18.4718 24.0047 16.7654 26.9934 15.0493 29.9917C12.3306 30.0013 9.61191 29.9917 6.89319 29.9917C11.3955 22.1922 15.8977 14.3928 20.3904 6.58371Z" fill="#3A7894"/>
<path fill-rule="evenodd" clip-rule="evenodd" d="M105.085 15.0767C106.502 15.0671 107.929 15.1828 109.308 15.5202C110.33 15.7805 111.323 16.1758 112.2 16.7735C113.048 17.352 113.752 18.1329 114.215 19.0487C114.707 20.0032 114.928 21.083 114.986 22.1531C115.034 23.2618 114.938 24.3994 114.581 25.4599C114.273 26.3469 113.771 27.1663 113.097 27.8219C112.402 28.5257 111.525 29.027 110.609 29.3934C109.472 29.8272 108.267 30.0586 107.052 30.1646C105.895 30.2707 104.728 30.2707 103.571 30.1839C102.28 30.0779 100.997 29.8465 99.7923 29.3644C98.8667 28.9981 97.9894 28.4678 97.2857 27.7448C96.5915 27.041 96.0998 26.154 95.8106 25.2092C95.5021 24.2066 95.425 23.1365 95.4828 22.0856C95.5503 21.0348 95.772 19.9839 96.2637 19.0487C96.7265 18.1425 97.4303 17.3712 98.2594 16.8024C99.0788 16.224 100.024 15.8383 100.988 15.578C102.328 15.2213 103.706 15.0864 105.085 15.0767ZM104.169 18.2871C103.437 18.3835 102.675 18.6245 102.164 19.1837C101.566 19.82 101.364 20.7166 101.267 21.5554C101.19 22.4712 101.181 23.3968 101.335 24.303C101.47 25.1514 101.836 26.0384 102.578 26.5204C103.475 27.0988 104.593 27.1278 105.625 27.1085C106.541 27.0796 107.543 26.906 108.238 26.2408C108.662 25.8263 108.912 25.2574 109.057 24.6886C109.211 24.0331 109.26 23.3678 109.25 22.7026C109.26 22.0181 109.202 21.3336 109.038 20.6684C108.874 19.9935 108.546 19.3283 107.977 18.9041C107.447 18.5089 106.772 18.345 106.117 18.2775C105.471 18.21 104.815 18.21 104.169 18.2871ZM41.1182 15.3563C46.2214 15.3563 51.3214 15.3563 56.4182 15.3563C56.4182 16.4232 56.4182 17.4901 56.4182 18.5571C53.211 18.5571 50.0038 18.5603 46.7966 18.5667C46.7966 19.4472 46.7966 20.331 46.7966 21.2179C49.6053 21.2179 52.4108 21.2179 55.2131 21.2179C55.2131 22.1306 55.2131 23.0465 55.2131 23.9656C52.4108 23.9656 49.6053 23.9656 46.7966 23.9656C46.7966 24.9104 46.7966 25.8584 46.7966 26.8096C50.1034 26.8096 53.4102 26.8096 56.7267 26.8096C56.7267 27.8765 56.7267 28.9435 56.7267 30.0104C51.5206 30.0104 46.3178 30.0104 41.1182 30.0104C41.1182 25.1257 41.1182 20.241 41.1182 15.3563ZM76.6061 15.3563C78.5021 15.3563 80.3981 15.3563 82.2942 15.3563C82.2942 17.2266 82.2942 19.0873 82.2942 20.948C84.2994 20.948 86.308 20.948 88.3197 20.948C88.3197 19.0841 88.3197 17.2202 88.3197 15.3563C90.2093 15.3563 92.1021 15.3563 93.9981 15.3563C93.9981 20.241 93.9981 25.1257 93.9981 30.0104C92.1021 30.0104 90.2093 30.0104 88.3197 30.0104C88.3197 28.0565 88.3197 26.1058 88.3197 24.1584C86.308 24.1584 84.2994 24.1584 82.2942 24.1584C82.2942 26.1058 82.2942 28.0565 82.2942 30.0104C80.3981 30.0104 78.5021 30.0104 76.6061 30.0104C76.6061 25.1257 76.6061 20.241 76.6061 15.3563ZM116.77 15.3563C119.09 15.3563 121.413 15.3563 123.74 15.3563C125.099 15.3659 126.468 15.3274 127.828 15.4913C129.39 15.6745 130.98 16.0794 132.292 16.9952C133.082 17.5351 133.728 18.2678 134.162 19.1259C134.837 20.4659 134.972 21.9988 134.866 23.4739C134.76 24.9682 134.21 26.4722 133.15 27.5616C131.973 28.786 130.325 29.4319 128.676 29.7308C127.702 29.9236 126.709 29.9911 125.716 30.0104C122.734 30.0104 119.752 30.0104 116.77 30.0104C116.77 25.1257 116.77 20.241 116.77 15.3563ZM122.448 18.5185C122.448 21.2951 122.448 24.0716 122.448 26.8482C123.557 26.8385 124.666 26.8675 125.774 26.8289C126.69 26.7711 127.722 26.6264 128.358 25.8937C128.956 25.1996 129.062 24.2452 129.11 23.3582C129.139 22.3748 129.129 21.3625 128.821 20.4081C128.609 19.7911 128.175 19.2416 127.577 18.962C126.652 18.5185 125.61 18.5185 124.617 18.5185C123.898 18.5185 123.174 18.5185 122.448 18.5185ZM136.967 15.3563C142.071 15.3563 147.171 15.3563 152.267 15.3563C152.274 16.4232 152.277 17.4901 152.277 18.5571C149.07 18.5571 145.863 18.5603 142.655 18.5667C142.655 19.4472 142.655 20.331 142.655 21.2179C145.451 21.2179 148.25 21.2179 151.053 21.2179C151.053 22.1306 151.053 23.0465 151.053 23.9656C148.25 23.9656 145.451 23.9656 142.655 23.9656C142.655 24.9104 142.655 25.8584 142.655 26.8096C145.959 26.8096 149.266 26.8096 152.576 26.8096C152.576 27.8765 152.576 28.9435 152.576 30.0104C147.376 30.0104 142.173 30.0104 136.967 30.0104C136.967 25.1257 136.967 20.241 136.967 15.3563ZM58.0378 15.3563C63.6102 15.3563 69.1826 15.3563 74.755 15.3563C74.755 16.4232 74.755 17.4901 74.755 18.5571C72.9104 18.5635 71.069 18.5635 69.2308 18.5571C69.2244 22.3748 69.2244 26.1926 69.2308 30.0104C67.3412 30.0104 65.4548 30.0104 63.5717 30.0104C63.5717 26.1926 63.5717 22.3748 63.5717 18.5571C61.7271 18.5635 59.8824 18.5635 58.0378 18.5571C58.0378 17.4901 58.0378 16.4232 58.0378 15.3563ZM108.691 33.5196C109.645 32.9219 110.773 32.7194 111.882 32.652C113.039 32.6134 114.215 32.6712 115.314 33.0569C116.085 33.3268 116.799 33.7799 117.271 34.4452C117.782 35.1682 117.975 36.0648 117.965 36.9325C117.975 37.6266 117.84 38.3401 117.522 38.9571C117.184 39.6223 116.625 40.1429 115.97 40.4803C115.034 40.9624 113.964 41.1166 112.923 41.1648H112.026C110.735 41.107 109.375 40.8756 108.334 40.0561C107.582 39.468 107.139 38.5618 107.033 37.6363C106.946 36.8457 106.984 36.0263 107.254 35.2743C107.524 34.5512 108.035 33.9246 108.691 33.5196ZM111.911 34.4452C111.438 34.4934 110.937 34.6765 110.648 35.0911C110.281 35.6021 110.243 36.2673 110.224 36.8843C110.224 37.4531 110.262 38.0508 110.532 38.5618C110.725 38.9185 111.072 39.1788 111.458 39.2849C111.998 39.4295 112.566 39.4295 113.116 39.362C113.579 39.3041 114.061 39.1113 114.331 38.716C114.687 38.1954 114.726 37.5399 114.736 36.9325C114.716 36.3348 114.687 35.6985 114.36 35.1682C114.157 34.8308 113.8 34.6187 113.415 34.5223C112.923 34.397 112.412 34.3969 111.911 34.4452ZM47.9535 32.7966C50.8201 32.7966 53.6866 32.7966 56.5531 32.7966C56.5596 33.4007 56.5628 34.0049 56.5628 34.609C54.7632 34.609 52.9635 34.609 51.1639 34.609C51.1639 35.1039 51.1639 35.5988 51.1639 36.0937C52.7386 36.0937 54.3133 36.0937 55.8879 36.0937C55.8879 36.6079 55.8879 37.1221 55.8879 37.6363C54.3133 37.6363 52.7386 37.6363 51.1639 37.6363C51.1639 38.1633 51.1639 38.6935 51.1639 39.227C53.0214 39.227 54.8788 39.227 56.7363 39.227C56.7363 39.8247 56.7363 40.4257 56.7363 41.0298C53.8119 41.0298 50.8843 41.0298 47.9535 41.0298C47.9535 38.2854 47.9535 35.541 47.9535 32.7966ZM58.086 32.7966C59.1465 32.7966 60.207 32.7966 61.2675 32.7966C61.2675 34.9433 61.2675 37.0867 61.2675 39.227C62.8486 39.227 64.4297 39.227 66.0108 39.227C66.0108 39.8247 66.0108 40.4257 66.0108 41.0298C63.3692 41.0298 60.7276 41.0298 58.086 41.0298C58.086 38.2854 58.086 35.541 58.086 32.7966ZM67.293 32.7966C70.1596 32.7966 73.0261 32.7966 75.8926 32.7966C75.8926 33.4007 75.8926 34.0049 75.8926 34.609C74.0995 34.609 72.303 34.609 70.5034 34.609C70.5034 35.1039 70.5034 35.5988 70.5034 36.0937C72.0781 36.0937 73.6528 36.0937 75.2274 36.0937C75.2274 36.6079 75.2274 37.1221 75.2274 37.6363C73.6528 37.6363 72.0781 37.6363 70.5034 37.6363C70.5034 38.1633 70.5034 38.6935 70.5034 39.227C72.3609 39.227 74.2184 39.227 76.0758 39.227C76.0758 39.8247 76.0758 40.4257 76.0758 41.0298C73.145 41.0298 70.2174 41.0298 67.293 41.0298C67.293 38.2854 67.293 35.541 67.293 32.7966ZM79.7586 33.0087C80.8191 32.7387 81.9182 32.8062 83.0076 32.7966C83.766 32.7966 84.5244 32.7966 85.2828 32.7966C85.2828 33.3943 85.2828 33.9952 85.2828 34.5994C84.3573 34.5994 83.435 34.5994 82.5159 34.5994C81.976 34.5898 81.4168 34.6283 80.9155 34.8501C80.5106 35.0236 80.1925 35.3803 80.0575 35.8045C79.884 36.354 79.8743 36.9518 79.9418 37.5109C79.9996 37.993 80.1828 38.5039 80.5877 38.7932C81.0601 39.1499 81.6675 39.2174 82.2363 39.2366C83.2486 39.2463 84.2705 39.2366 85.2828 39.2366C85.2828 39.8344 85.2828 40.4321 85.2828 41.0298C84.3573 41.0298 83.435 41.0298 82.5159 41.0298C81.8121 41.0202 81.0987 41.0588 80.4046 40.9527C79.4501 40.8177 78.4764 40.4803 77.763 39.8055C77.0785 39.1692 76.7218 38.234 76.6639 37.3085C76.5964 36.3155 76.7796 35.2646 77.387 34.4548C77.9558 33.6932 78.8427 33.2208 79.7586 33.0087ZM86.1216 32.7966C89.2516 32.7966 92.3817 32.7966 95.5117 32.7966C95.5117 33.4007 95.5117 34.0049 95.5117 34.609C94.477 34.609 93.4422 34.609 92.4074 34.609C92.4074 36.7493 92.4074 38.8896 92.4074 41.0298C91.3469 41.0298 90.2864 41.0298 89.2259 41.0298C89.2259 38.8896 89.2259 36.7493 89.2259 34.609C88.1911 34.609 87.1564 34.609 86.1216 34.609C86.1216 34.0049 86.1216 33.4007 86.1216 32.7966ZM96.2541 32.7966C97.8609 32.7966 99.4645 32.7966 101.065 32.7966C102.135 32.7966 103.215 32.7773 104.256 33.0376C104.786 33.1822 105.326 33.4136 105.712 33.8185C106.078 34.1945 106.261 34.7151 106.29 35.2357C106.348 35.8238 106.223 36.4601 105.837 36.9228C105.394 37.4435 104.738 37.7327 104.092 37.8966C104.487 38.0605 104.815 38.3593 105.047 38.716C105.538 39.4873 106.02 40.2586 106.512 41.0298C105.413 41.0298 104.314 41.0298 103.215 41.0298C102.861 40.4514 102.508 39.8762 102.154 39.3041C101.952 38.9763 101.769 38.6004 101.45 38.3593C101.152 38.1376 100.766 38.1472 100.409 38.1376C100.081 38.1376 99.7569 38.1408 99.4356 38.1472C99.4356 39.1049 99.4356 40.0658 99.4356 41.0298C98.3751 41.0298 97.3146 41.0298 96.2541 41.0298C96.2477 38.2854 96.2477 35.541 96.2541 32.7966ZM99.4356 36.6722C100.139 36.6722 100.853 36.6722 101.557 36.6722C101.961 36.6625 102.376 36.6433 102.733 36.4601C102.983 36.3444 103.147 36.1034 103.195 35.8431C103.273 35.4382 103.215 34.9561 102.868 34.6862C102.511 34.4259 102.048 34.397 101.624 34.3777C100.891 34.3777 100.159 34.3777 99.4356 34.3777C99.4356 35.1425 99.4356 35.9073 99.4356 36.6722ZM118.949 32.7966C120.054 32.7966 121.16 32.7966 122.265 32.7966C123.248 34.1463 124.222 35.496 125.196 36.8457C125.447 37.1928 125.659 37.5591 125.871 37.9351C125.861 36.2191 125.871 34.5126 125.871 32.7966C126.777 32.7966 127.686 32.7966 128.599 32.7966C128.599 35.541 128.599 38.2854 128.599 41.0298C127.506 41.0298 126.414 41.0298 125.321 41.0298C124.325 39.6416 123.326 38.2533 122.323 36.865C122.082 36.5469 121.879 36.1998 121.677 35.8527C121.687 37.5784 121.677 39.3041 121.677 41.0298C120.771 41.0298 119.861 41.0298 118.949 41.0298C118.949 38.2854 118.949 35.541 118.949 32.7966ZM130.016 32.7966C131.077 32.7966 132.14 32.7966 133.207 32.7966C133.207 35.541 133.207 38.2854 133.207 41.0298C132.14 41.0298 131.077 41.0298 130.016 41.0298C130.01 38.2854 130.01 35.541 130.016 32.7966ZM137.758 32.9412C138.635 32.7677 139.532 32.7966 140.428 32.7966C141.27 32.7966 142.112 32.7966 142.954 32.7966C142.954 33.3943 142.954 33.9952 142.954 34.5994C142.074 34.5994 141.196 34.5994 140.322 34.5994C139.696 34.5898 139.03 34.609 138.471 34.9176C138.047 35.1393 137.768 35.5731 137.671 36.0359C137.565 36.5469 137.565 37.0771 137.633 37.5977C137.7 38.0315 137.874 38.475 138.221 38.7642C138.703 39.1499 139.339 39.2174 139.927 39.2366C140.936 39.2366 141.945 39.2366 142.954 39.2366C142.954 39.8344 142.954 40.4321 142.954 41.0298C142.074 41.0298 141.196 41.0298 140.322 41.0298C139.619 41.0106 138.915 41.0684 138.221 40.972C137.411 40.8659 136.601 40.6442 135.916 40.1814C135.319 39.7862 134.856 39.2077 134.605 38.5329C134.316 37.7423 134.268 36.8746 134.403 36.0455C134.538 35.2357 134.933 34.4644 135.56 33.9245C136.177 33.3943 136.967 33.0858 137.758 32.9412ZM145.779 32.9508C146.357 32.8062 146.965 32.7966 147.563 32.7966C149.169 32.7966 150.776 32.7966 152.383 32.7966C152.383 33.4007 152.383 34.0049 152.383 34.609C150.866 34.609 149.353 34.609 147.842 34.609C147.563 34.6187 147.254 34.6765 147.052 34.879C146.868 35.1104 146.849 35.4478 146.965 35.7081C147.1 35.9684 147.389 36.0745 147.659 36.1034C148.102 36.1419 148.546 36.113 148.989 36.1227C149.597 36.1323 150.214 36.0841 150.812 36.1901C151.39 36.2962 151.978 36.5083 152.383 36.9518C152.981 37.5977 153.087 38.5907 152.826 39.4102C152.692 39.8344 152.402 40.22 152.026 40.4707C151.448 40.8659 150.734 41.0009 150.04 41.0298C148.08 41.0298 146.12 41.0298 144.159 41.0298C144.159 40.4257 144.159 39.8247 144.159 39.227C145.734 39.227 147.309 39.227 148.883 39.227C149.153 39.2174 149.423 39.1692 149.635 39.0053C150.011 38.716 149.954 38.0412 149.529 37.8194C149.202 37.6459 148.806 37.6845 148.45 37.6748C147.833 37.6748 147.225 37.6845 146.618 37.6652C145.933 37.6266 145.21 37.4627 144.661 37.0385C144.246 36.7204 143.976 36.2384 143.899 35.7274C143.774 35.014 143.928 34.2234 144.439 33.6932C144.796 33.3172 145.278 33.0858 145.779 32.9508Z" fill="#3A7894"/>
</g>
<defs>
<clipPath id="clip0_2394_4527">
<rect width="153" height="41.1664" fill="white"/>
</clipPath>
</defs>
</svg>
