<svg width="99" height="39" viewBox="0 0 99 39" fill="none" xmlns="http://www.w3.org/2000/svg">
<g clip-path="url(#clip0_2216_4601)">
<path d="M38.0597 33.3514H13.5467C9.72354 33.3514 6.59422 30.2221 6.59422 26.3989V12.6057C6.59422 8.78257 9.72354 5.65325 13.5467 5.65325H38.0597C39.6197 5.65325 40.8863 4.38663 40.8863 2.82663C40.8863 1.26663 39.6197 0 38.0597 0H14.0962C6.62217 0 0.507896 6.11427 0.507896 13.5883V25.407C0.507896 32.8811 6.62217 38.9953 14.0962 38.9953H38.055C39.615 38.9953 40.8816 37.7287 40.8816 36.1687C40.8816 34.6087 39.615 33.3421 38.055 33.3421L38.0597 33.3514Z" fill="#1C296B"/>
<path d="M27.1676 26.3943C27.0419 25.8169 26.7625 25.2115 26.0733 23.9635L23.7309 19.5908C23.7077 19.507 22.944 17.9796 22.8648 17.8492C22.6785 17.4549 22.5435 17.1818 22.4597 17.0296C22.6133 18.0634 22.7158 19.4139 22.7158 20.2847V23.8517C22.7158 24.988 22.767 25.7098 22.9207 26.3989H17.91C18.0637 25.6585 18.1149 24.9693 18.1149 23.8517V15.288C18.1149 14.3008 18.0404 13.43 17.91 12.7222H24.6297C24.8066 13.43 25.0115 13.9562 25.5983 15.0412L29.4168 22.1241L33.2074 15.0412C33.7941 13.9422 33.9943 13.416 34.148 12.7222H40.8909C40.7373 13.5092 40.686 14.1844 40.686 15.288V23.8517C40.686 25.0997 40.7373 25.7423 40.8909 26.3989H35.8803C36.034 25.6446 36.0852 25.0206 36.0852 23.8517V20.2707C36.0852 19.8749 36.1597 18.6455 36.2109 18.1333C36.2606 17.5527 36.2948 17.1802 36.3134 17.0157C35.7546 18.2963 35.4985 18.8877 35.1678 19.4791L32.6998 23.9821C32.0618 25.1509 31.7312 25.8727 31.6054 26.3989H27.1769L27.1676 26.3943Z" fill="white"/>
<path d="M60.0207 26.5107C58.9264 26.4268 58.009 26.3942 55.8204 26.3942H47.8062C45.8736 26.3942 45.1611 26.4129 44.0668 26.4455C44.2205 25.7889 44.2717 25.1788 44.2717 24.0472V15.0738C44.2717 14.0539 44.2205 13.4812 44.0668 12.6755C45.1099 12.7081 45.8224 12.7268 47.8062 12.7268H55.9228C57.6551 12.7268 58.5166 12.6942 59.7134 12.6104V15.6838C58.5445 15.6 57.6272 15.5674 55.9228 15.5674H49.3056V17.9842H54.8005C56.4816 17.9842 57.0917 17.9656 58.6191 17.8678V20.9086C57.4223 20.8248 56.5561 20.7922 54.8005 20.7922H49.3056V23.5536H55.8716C57.8041 23.5536 58.9264 23.521 60.0207 23.4372V26.5107Z" fill="white"/>
<path d="M73.4786 23.9122C73.4786 24.8994 73.5299 25.6212 73.6835 26.3943H68.0582C68.2119 25.6212 68.2631 24.946 68.2631 23.9122V15.6279H65.2595C63.6576 15.6279 63.2246 15.6465 61.4177 15.7443V12.6057C62.256 12.6709 63.6576 12.7221 65.2083 12.7221H76.3518C78.1307 12.7221 79.1505 12.6895 80.3194 12.6057V15.7443C79.1738 15.6605 78.1819 15.6279 76.3518 15.6279H73.4786V23.9122Z" fill="white"/>
<path d="M99.0021 26.5107C97.9357 26.4268 96.9159 26.3942 95.0579 26.3942H85.2089C83.5278 26.3942 82.5872 26.4129 81.4183 26.4455V23.6002C82.0284 23.2044 82.6663 22.7806 83.7327 21.9238L91.1648 16.1727C91.3418 16.0424 91.421 15.9772 91.9518 15.5813C91.4955 15.6 90.96 15.6 90.6806 15.6H86.0983C84.4173 15.6 83.1739 15.6326 82.2053 15.7164V12.6104C83.5791 12.6942 84.5989 12.7268 86.0983 12.7268H94.7226C96.1475 12.7268 96.86 12.7081 98.5411 12.6755V15.4184C97.9311 15.8142 97.1161 16.4056 96.0497 17.2578L88.8225 22.897C88.6176 23.06 88.4174 23.209 87.9564 23.5397C88.1845 23.521 88.6176 23.521 89.2556 23.521H95.0579C96.6085 23.521 97.6796 23.4884 99.0021 23.4046V26.5107Z" fill="white"/>
</g>
<defs>
<clipPath id="clip0_2216_4601">
<rect width="98.4942" height="39" fill="white" transform="translate(0.507896)"/>
</clipPath>
</defs>
</svg>
