<svg width="222" height="49" viewBox="0 0 222 49" fill="none" xmlns="http://www.w3.org/2000/svg">
<g clip-path="url(#clip0_184_776)">
<path d="M92.5586 10.3505V38.7069H87.6356V16.455H87.57L78.7742 38.7069H75.4922L66.4996 16.455H66.4339V38.7069H61.9048V10.3505H68.9939L77.1332 31.3552H77.2645L85.8633 10.3505H92.5586ZM96.6283 12.5166C96.6283 11.7289 96.8908 11.0725 97.4816 10.5474C98.0723 10.0223 98.7287 9.75972 99.5164 9.75972C100.37 9.75972 101.092 10.0223 101.617 10.5474C102.142 11.0725 102.47 11.7289 102.47 12.5166C102.47 13.3043 102.208 13.9607 101.617 14.4858C101.026 15.0109 100.37 15.2735 99.5164 15.2735C98.6631 15.2735 98.0067 15.0109 97.4816 14.4858C96.9564 13.895 96.6283 13.2386 96.6283 12.5166ZM101.945 18.3585V38.7069H97.1534V18.3585H101.945ZM116.451 35.228C117.174 35.228 117.961 35.0967 118.814 34.7028C119.668 34.3746 120.455 33.9152 121.178 33.39V37.8536C120.39 38.313 119.537 38.6412 118.552 38.8382C117.567 39.0351 116.517 39.1664 115.336 39.1664C112.316 39.1664 109.887 38.2474 108.05 36.3438C106.146 34.4403 105.227 32.0116 105.227 29.1235C105.227 25.8415 106.212 23.1502 108.115 21.0498C110.019 18.9493 112.71 17.8991 116.255 17.8991C117.174 17.8991 118.092 18.0303 118.946 18.2273C119.865 18.4242 120.587 18.7524 121.112 19.0149V23.6097C120.39 23.0846 119.602 22.6251 118.88 22.3626C118.092 22.1 117.305 21.9031 116.517 21.9031C114.614 21.9031 113.104 22.4938 111.922 23.741C110.741 24.9882 110.216 26.6291 110.216 28.7296C110.216 30.7645 110.806 32.4055 111.922 33.5213C113.038 34.6372 114.548 35.228 116.451 35.228ZM134.765 18.0303C135.159 18.0303 135.487 18.0303 135.815 18.096C136.143 18.1616 136.406 18.2273 136.603 18.2929V23.1502C136.34 22.9533 136.012 22.7564 135.487 22.6251C134.962 22.4938 134.437 22.3626 133.715 22.3626C132.533 22.3626 131.549 22.8877 130.761 23.8723C129.973 24.8569 129.514 26.3666 129.514 28.4671V38.7069H124.722V18.3585H129.514V21.5749H129.579C130.039 20.459 130.695 19.6057 131.549 18.9493C132.468 18.3585 133.518 18.0303 134.765 18.0303ZM136.865 28.8609C136.865 25.5133 137.85 22.822 139.688 20.8528C141.592 18.8837 144.217 17.8991 147.565 17.8991C150.715 17.8991 153.21 18.818 154.982 20.7216C156.754 22.6251 157.673 25.1851 157.673 28.4014C157.673 31.6834 156.689 34.309 154.851 36.2782C152.947 38.2474 150.387 39.232 147.105 39.232C143.955 39.232 141.46 38.313 139.622 36.4751C137.784 34.5716 136.865 32.0116 136.865 28.8609ZM141.854 28.664C141.854 30.7645 142.314 32.4055 143.298 33.5213C144.283 34.6372 145.661 35.228 147.433 35.228C149.14 35.228 150.519 34.7028 151.437 33.5213C152.356 32.4055 152.816 30.7645 152.816 28.5327C152.816 26.3666 152.356 24.7256 151.437 23.5441C150.519 22.4282 149.14 21.8374 147.499 21.8374C145.727 21.8374 144.414 22.4282 143.429 23.6097C142.314 24.8569 141.854 26.4979 141.854 28.664ZM164.828 23.741C164.828 24.3974 165.025 24.9882 165.484 25.382C165.944 25.7758 166.863 26.2353 168.373 26.8261C170.276 27.6137 171.655 28.4671 172.377 29.386C173.164 30.3706 173.558 31.4865 173.558 32.8649C173.558 34.7685 172.836 36.2782 171.326 37.4597C169.882 38.6412 167.847 39.1664 165.353 39.1664C164.5 39.1664 163.581 39.0351 162.531 38.8382C161.48 38.6412 160.627 38.3787 159.905 38.0505V33.3244C160.758 33.9152 161.743 34.4403 162.728 34.7685C163.712 35.0967 164.631 35.2936 165.484 35.2936C166.535 35.2936 167.388 35.1623 167.847 34.8341C168.373 34.5059 168.635 34.0464 168.635 33.3244C168.635 32.668 168.373 32.1429 167.847 31.6178C167.322 31.1583 166.272 30.6332 164.828 30.0424C163.056 29.3204 161.809 28.4671 161.087 27.5481C160.365 26.6291 159.971 25.4476 159.971 24.0036C159.971 22.1656 160.693 20.6559 162.137 19.4744C163.581 18.2929 165.484 17.7021 167.782 17.7021C168.504 17.7021 169.292 17.7678 170.145 17.9647C170.998 18.1616 171.786 18.3585 172.377 18.5555V23.2159C171.72 22.822 170.998 22.4282 170.145 22.1C169.292 21.7718 168.438 21.6405 167.651 21.6405C166.732 21.6405 166.01 21.8374 165.55 22.1656C165.091 22.6251 164.828 23.0846 164.828 23.741ZM175.593 28.8609C175.593 25.5133 176.578 22.822 178.415 20.8528C180.319 18.8837 182.945 17.8991 186.292 17.8991C189.443 17.8991 191.937 18.818 193.71 20.7216C195.482 22.6251 196.401 25.1851 196.401 28.4014C196.401 31.6834 195.416 34.309 193.578 36.2782C191.675 38.2474 189.115 39.232 185.833 39.232C182.682 39.232 180.188 38.313 178.35 36.4751C176.578 34.5716 175.593 32.0116 175.593 28.8609ZM180.582 28.664C180.582 30.7645 181.041 32.4055 182.026 33.5213C183.01 34.6372 184.389 35.228 186.161 35.228C187.868 35.228 189.246 34.7028 190.165 33.5213C191.084 32.4055 191.543 30.7645 191.543 28.5327C191.543 26.3666 191.084 24.7256 190.165 23.5441C189.246 22.4282 187.868 21.8374 186.227 21.8374C184.454 21.8374 183.142 22.4282 182.157 23.6097C181.107 24.8569 180.582 26.4979 180.582 28.664ZM212.351 22.2969H205.196V38.7069H200.339V22.2969H196.926V18.3585H200.339V15.536C200.339 13.4355 201.061 11.6633 202.44 10.2848C203.818 8.9064 205.59 8.25 207.756 8.25C208.347 8.25 208.872 8.31564 209.332 8.31564C209.791 8.31564 210.185 8.44692 210.513 8.5782V12.7135C210.382 12.6479 210.054 12.5166 209.66 12.3853C209.266 12.254 208.807 12.1884 208.282 12.1884C207.297 12.1884 206.509 12.5166 205.984 13.1073C205.459 13.6981 205.196 14.6827 205.196 15.8642V18.2929H212.351V13.6981L217.143 12.254V18.2929H222V22.2313H217.143V31.7491C217.143 32.9962 217.406 33.8495 217.799 34.3746C218.259 34.8998 218.981 35.1623 219.965 35.1623C220.228 35.1623 220.556 35.0967 220.95 34.9654C221.344 34.8341 221.672 34.7028 221.935 34.5059V38.4443C221.606 38.6412 221.147 38.7725 220.425 38.9038C219.703 39.0351 219.046 39.1007 218.324 39.1007C216.29 39.1007 214.78 38.5756 213.795 37.5254C212.811 36.4751 212.286 34.8341 212.286 32.668L212.351 22.2969Z" fill="#F3F3F3"/>
<path d="M22.8487 0.900391H0.399902V23.3492H22.8487V0.900391Z" fill="#F25022"/>
<path d="M47.6607 0.900391H25.2119V23.3492H47.6607V0.900391Z" fill="#7FBA00"/>
<path d="M22.8487 25.7129H0.399902V48.1617H22.8487V25.7129Z" fill="#00A4EF"/>
<path d="M47.6607 25.7129H25.2119V48.1617H47.6607V25.7129Z" fill="#FFB900"/>
</g>
<defs>
<clipPath id="clip0_184_776">
<rect width="221.6" height="47.2607" fill="white" transform="translate(0.399902 0.900391)"/>
</clipPath>
</defs>
</svg>
