<svg width="84" height="20" viewBox="0 0 84 20" fill="none" xmlns="http://www.w3.org/2000/svg">
<path d="M32.0185 13.2127L31.5265 7.04946H31.5062L29.6059 11.9705C29.4298 12.429 29.0407 12.8047 28.4955 12.8047C27.951 12.8047 27.5194 12.3515 27.3856 11.9705L25.527 7.11126H25.5071L24.9729 13.2127L23.1599 13.2114L24.0858 4.52346C24.1466 4.04376 24.54 3.49756 25.0749 3.49756C25.8948 3.49756 26.2231 3.97726 26.3865 4.45706L28.4856 9.73216H28.5058L30.6045 4.45706C30.7893 3.97726 31.1072 3.49756 31.9168 3.49756C32.4517 3.49756 32.8451 4.04376 32.9056 4.63546L33.8232 13.2114L32.0185 13.2127Z" fill="white"/>
<path d="M34.7822 5.86426H36.472V13.2116H34.7822V5.86426Z" fill="white"/>
<path d="M74.75 5.86426H76.4397V13.2116H74.75V5.86426Z" fill="white"/>
<path d="M37.4075 8.44186C37.4075 6.29036 38.2311 5.78306 39.6148 5.78306H41.4205C43.6069 5.78306 43.891 5.64086 43.8767 7.72126L39.9168 7.71466C39.1072 7.71466 38.9853 8.22856 38.9853 9.14226V9.93366C38.9853 10.9991 39.1374 11.4051 39.864 11.4051L43.9388 11.4018C43.9388 12.6397 43.9226 13.2928 42.38 13.2928H39.6148C38.2311 13.2928 37.4075 12.7852 37.4075 10.6337V8.44186Z" fill="white"/>
<path d="M51.2757 8.51281V8.04611C51.2757 6.72681 50.9578 5.86401 49.7747 5.86401H44.8647V13.2113H46.4009V11.3033H49.0896C49.5671 11.3033 49.7189 11.5574 49.7189 12.3285V13.2113H51.2555V11.9634C51.2555 10.7557 50.8747 10.4614 50.4179 10.3391V10.3192C51.1239 10.0753 51.2757 9.49691 51.2757 8.51281ZM49.7813 8.70591C49.7813 9.23311 49.6292 9.47701 49.2139 9.47701H46.4009V7.69061H49.0757C49.5601 7.69061 49.7813 7.81281 49.7813 8.46201V8.70591Z" fill="white"/>
<path d="M52.2024 8.442C52.2024 6.2905 53.0257 5.7832 54.4094 5.7832H56.8726C58.2563 5.7832 59.0796 6.2905 59.0796 8.442V10.6338C59.0796 12.7853 58.2563 13.2929 56.8726 13.2929H54.4094C53.0257 13.2929 52.2024 12.7853 52.2024 10.6338V8.442ZM53.7798 9.9338C53.7798 10.9992 53.9323 11.4052 54.6586 11.4052H56.6237C57.35 11.4052 57.5022 10.9992 57.5022 9.9338V9.1424C57.5022 8.2287 57.35 7.6706 56.5404 7.6706H54.7417C53.9323 7.6706 53.7798 8.2287 53.7798 9.1424V9.9338Z" fill="white"/>
<path d="M67.3528 5.86426H68.8884V8.48256H72.127V5.86426H73.6629V13.2116H72.127V10.4308H68.8884V13.2116H67.3528V5.86426Z" fill="white"/>
<path d="M82.187 5.86426H77.4395V13.2116H78.9754V11.3647H82.588C83.675 11.3647 84 10.1059 84 9.01046V8.38086C84 6.93996 83.647 5.86426 82.187 5.86426ZM82.423 8.75626C82.423 9.19286 82.284 9.53776 81.924 9.53776H78.9754V7.69086H81.793C82.256 7.69086 82.423 7.97486 82.423 8.47226V8.75626Z" fill="white"/>
<path d="M59.9136 8.4532C59.9136 6.3017 60.7369 5.7943 62.1206 5.7943H63.9266C66.1131 5.7943 66.3875 5.6518 66.3735 7.7326L62.423 7.7256C61.613 7.7256 61.4911 8.2399 61.4911 9.1532V9.9446C61.4911 11.0104 61.6435 11.416 62.3698 11.416L66.445 11.4127C66.445 12.6509 66.429 13.3041 64.8861 13.3041H62.1206C60.7369 13.3041 59.9136 12.7964 59.9136 10.6446V8.4532Z" fill="white"/>
<path d="M13.206 0.559502C12.2621 0.288402 11.2618 0.141602 10.2242 0.141602C4.58422 0.141602 0.0117188 4.4519 0.0117188 9.7696C0.0117188 15.087 4.58422 19.3973 10.2242 19.3973C15.407 19.3973 19.6848 15.7567 20.3449 11.0411L13.206 0.559502Z" fill="white"/>
<path d="M14.474 1.0304C13.1597 0.410099 11.9444 0.102499 10.3803 0.0748986C4.742 -0.0231014 0.0951019 4.2398 0.00140186 9.5963C-0.0145981 10.5239 0.106702 11.4232 0.347902 12.2774L3.2626 8.1913L5.236 11.2801C5.236 11.2801 5.8291 11.9525 5.3792 12.6326C5.3513 12.6751 2.7018 16.335 2.7018 16.335C4.5317 18.2523 7.1062 19.4227 10.0421 19.4739C12.8903 19.524 15.4329 18.4852 17.3156 16.7306L11.1162 6.9451C11.1162 6.9451 12.0939 5.573 12.8584 4.4856C13.7003 3.2889 14.4581 4.1245 14.7109 4.5202C16.5286 7.37 19.9392 12.7751 19.9392 12.7751L19.9409 12.7439C20.2904 11.9402 20.4695 11.6967 20.507 10.5392L14.474 1.0304ZM13.0033 12.7479C13.0033 12.7479 11.3531 15.1545 11.184 15.3841C10.1743 16.7559 9.4318 15.1721 9.4318 15.1721L4.1805 6.9175C4.1805 6.9175 5.158 5.5457 5.9231 4.4584C6.7646 3.2613 7.5224 4.0972 7.7753 4.4929C9.5929 7.3425 13.0033 12.7479 13.0033 12.7479Z" fill="#EE2223"/>
<path d="M16.0862 1.54709C16.0862 1.09489 16.4527 0.762695 16.8852 0.762695C17.3142 0.762695 17.6799 1.09489 17.6799 1.54709C17.6799 2.00219 17.3142 2.33509 16.8852 2.33509C16.4527 2.33509 16.0862 2.00219 16.0862 1.54709ZM16.8852 2.2039C17.2411 2.2039 17.5218 1.92479 17.5218 1.54709C17.5218 1.17469 17.2411 0.893595 16.8852 0.893595C16.5254 0.893595 16.2444 1.17469 16.2444 1.54709C16.2444 1.92479 16.5254 2.2039 16.8852 2.2039ZM16.7191 2.0022H16.5816V1.09489H16.9268C17.1411 1.09489 17.2477 1.1747 17.2477 1.3534C17.2477 1.5159 17.1454 1.5866 17.0125 1.6032L17.2703 2.0022H17.1162L16.8769 1.60889H16.7191V2.0022ZM16.8836 1.4929C16.9999 1.4929 17.1035 1.4843 17.1035 1.3448C17.1035 1.2331 17.0019 1.21149 16.9058 1.21149H16.7191V1.4929H16.8836Z" fill="white"/>
</svg>
