<svg width="62" height="23" viewBox="0 0 62 23" fill="none" xmlns="http://www.w3.org/2000/svg">
<path d="M27.2923 11.3072H26.3596H21.2854V6.76474C22.6286 6.55024 23.6546 5.39364 23.6546 3.98514C23.6546 2.42744 22.3954 1.16823 20.8377 1.16823C19.28 1.16823 18.0208 2.42744 18.0208 3.98514C18.0208 5.37494 19.0281 6.52223 20.3433 6.75543V11.2979H15.2971H14.355H9.2809V6.75543C10.624 6.54093 11.6501 5.38423 11.6501 3.97583C11.6501 2.41813 10.3909 1.15894 8.8332 1.15894C7.2755 1.15894 6.0162 2.41813 6.0162 3.97583C6.0162 5.36563 7.0236 6.51293 8.3388 6.74613V11.2886H2.3226L2.3132 14.9823L2.3226 16.7731C1.0074 17.0063 0 18.1536 0 19.5434C0 21.1011 1.2592 22.3603 2.8169 22.3603C4.3746 22.3603 5.6338 21.1011 5.6338 19.5434C5.6338 18.135 4.6078 16.9783 3.2646 16.7638V12.2213H8.3388H9.2809H14.355V16.7638C13.0305 16.997 12.0325 18.1443 12.0325 19.5341C12.0325 21.0918 13.2917 22.351 14.8494 22.351C16.4071 22.351 17.6663 21.0918 17.6663 19.5341C17.6663 18.1256 16.6403 16.969 15.2971 16.7545V12.212H20.3433H21.2854H26.3596V16.7545C25.0351 16.9877 24.037 18.135 24.037 19.5248C24.037 21.0825 25.2962 22.3417 26.8539 22.3417C28.4116 22.3417 29.6708 21.0825 29.6708 19.5248C29.6708 18.1163 28.6448 16.9597 27.3016 16.7452V12.2027V11.3072H27.2923Z" fill="white"/>
<path d="M32.9354 3.52808H38.5879C38.9796 3.53738 39.3061 3.57468 39.5859 3.63998C39.8657 3.70528 40.1082 3.81718 40.3041 3.97578C40.5 4.12498 40.6492 4.33958 40.7518 4.60068C40.8544 4.86188 40.9104 5.18838 40.9104 5.58948V9.13388H39.4367V5.77598C39.4367 5.35628 39.362 5.07638 39.2221 4.95518C39.0822 4.82458 38.8397 4.76858 38.4946 4.76858C38.4293 4.76858 38.308 4.76858 38.1401 4.76858C37.9722 4.77798 37.8137 4.77798 37.6551 4.77798V9.13388H36.144V4.77798H34.3998V9.13388H32.926V3.52808H32.9354Z" fill="white"/>
<path d="M43.7741 9.12458H42.2444V3.52808H43.7741V9.12458ZM43.7741 2.31558H42.2444V0.925781H43.7741V2.31558Z" fill="white"/>
<path d="M45.0984 0.925781H46.5722V6.22378L48.9507 3.52808H50.8255L48.2232 6.26108L50.8255 9.12458H48.8294L46.5722 6.40098V9.12458H45.0984V0.925781Z" fill="white"/>
<path d="M51.4412 3.52808H53.9317C54.3887 3.52808 54.7338 3.59338 54.9577 3.72398C55.1816 3.85448 55.3308 4.03178 55.3868 4.25558C55.4521 4.48878 55.4894 4.78728 55.4894 5.16968V5.54278C55.4894 5.63608 55.4894 5.74798 55.4894 5.86928H54.0809V5.39358C54.0809 5.12308 54.0623 4.93648 54.0343 4.84328C53.997 4.74998 53.9317 4.68468 53.8197 4.65668C53.7078 4.62868 53.5119 4.61938 53.2228 4.61938H52.915V9.13388H51.4412V3.52808Z" fill="white"/>
<path d="M58.5207 7.93979C58.6793 7.99579 58.8379 8.02379 59.0058 8.02379C59.3043 8.02379 59.5747 7.93049 59.8266 7.76259C60.0691 7.58539 60.2463 7.35219 60.3396 7.05369C60.4049 6.82049 60.4329 6.57799 60.4329 6.34479C60.4329 5.98109 60.3583 5.65459 60.2183 5.36539C60.0784 5.07629 59.8639 4.87109 59.5654 4.75919C59.3882 4.68449 59.2017 4.64719 59.0244 4.64719C58.7166 4.64719 58.4368 4.73119 58.185 4.90839C57.9331 5.08559 57.7652 5.32809 57.6813 5.61729C57.6066 5.84109 57.5787 6.08369 57.5787 6.32619C57.5787 6.68989 57.6533 7.01639 57.8025 7.31489C57.9797 7.61339 58.2129 7.81859 58.5207 7.93979ZM61.1604 8.46219C60.8993 8.71399 60.5728 8.90989 60.1997 9.04049C59.8266 9.17109 59.4348 9.23639 59.0244 9.23639C58.6233 9.23639 58.2316 9.17109 57.8492 9.04049C57.4667 8.90059 57.1496 8.71399 56.8884 8.46219C56.6273 8.20099 56.4128 7.87449 56.2729 7.50139C56.1237 7.12829 56.0583 6.73659 56.0583 6.32619C56.0583 5.93439 56.133 5.55199 56.2729 5.17889C56.4128 4.80579 56.618 4.48869 56.8979 4.21819C57.159 3.96629 57.4761 3.77039 57.8585 3.63049C58.2409 3.49059 58.6327 3.42529 59.0338 3.42529C59.4442 3.42529 59.8266 3.49059 60.209 3.63049C60.5915 3.77039 60.9086 3.96629 61.1698 4.21819C61.4403 4.47929 61.6455 4.79649 61.7854 5.16019C61.9253 5.53329 61.9999 5.92509 61.9999 6.32619C61.9999 6.72729 61.9253 7.11899 61.7854 7.50139C61.6268 7.87449 61.4216 8.19169 61.1604 8.46219Z" fill="white"/>
<path d="M37.907 20.2616C38.3268 20.2616 38.6532 20.1777 38.8864 20.0098C39.1196 19.8419 39.2315 19.5527 39.2315 19.1423C39.2315 18.3775 38.7931 17.995 37.907 17.995H34.9409V20.2616H37.907ZM34.9409 14.0961V16.3068H37.879C38.3081 16.3068 38.6346 16.2228 38.8678 16.0643C39.0916 15.9057 39.2035 15.6165 39.2035 15.2155C39.2035 14.4692 38.7652 14.0961 37.879 14.0961H34.9409ZM38.1868 21.9499H32.9355V12.3799H37.8417C38.4294 12.3892 38.9517 12.4358 39.3994 12.5291C39.8471 12.6131 40.2482 12.7903 40.5933 13.0608C40.9291 13.3313 41.1623 13.7324 41.2836 14.2547C41.3489 14.5345 41.3769 14.7864 41.3769 15.0009C41.3769 15.9057 40.9012 16.6332 39.9591 17.1649C40.2855 17.3141 40.556 17.4914 40.7799 17.7059C40.9944 17.9111 41.153 18.1443 41.2649 18.4148C41.3769 18.676 41.4235 18.9651 41.4235 19.2822C41.4235 19.5248 41.3862 19.8139 41.3209 20.1311C41.2183 20.6161 41.0038 20.9892 40.696 21.2597C40.3788 21.5302 40.015 21.7074 39.5953 21.81C39.1569 21.9033 38.6999 21.9499 38.1868 21.9499Z" fill="white"/>
<path d="M44.9773 12.38V18.1257C44.9773 18.6854 45.0426 19.1331 45.1545 19.4782C45.2758 19.8233 45.4996 20.0845 45.8168 20.2617C46.1339 20.4389 46.5723 20.5229 47.1319 20.5229C47.6916 20.5229 48.13 20.4389 48.4378 20.2617C48.7549 20.0845 48.9695 19.8233 49.0814 19.4782C49.1933 19.1331 49.2586 18.6854 49.2586 18.135V12.3893H51.264V18.1817C51.264 18.7693 51.236 19.2637 51.1707 19.6554C51.1055 20.0472 50.9655 20.411 50.723 20.7281C50.0701 21.6049 48.8762 22.0526 47.1319 22.0526C45.3784 22.0526 44.1751 21.6142 43.5222 20.7281C43.345 20.4949 43.2237 20.2431 43.1491 19.9632C43.0651 19.6834 43.0185 19.4129 42.9998 19.1517C42.9812 18.8906 42.9719 18.5641 42.9719 18.1724V12.3706H44.9773V12.38Z" fill="white"/>
<path d="M61.3005 14.0961H56.3383C55.2936 14.0961 54.7806 14.5159 54.7806 15.346C54.7806 15.7005 54.9019 15.9617 55.135 16.1295C55.3682 16.2974 55.676 16.3814 56.0491 16.3814H58.7075C59.0806 16.3814 59.3884 16.3907 59.6309 16.4187C59.8734 16.4374 60.1253 16.5026 60.3771 16.5959C60.629 16.6985 60.8528 16.8291 61.0394 17.0063C61.5244 17.4447 61.7669 18.1443 61.7669 19.0864C61.7576 19.618 61.6736 20.0751 61.5151 20.4482C61.3565 20.8213 61.142 21.1104 60.8528 21.3343C60.573 21.5488 60.2279 21.7074 59.8268 21.8007C59.4257 21.8939 58.9593 21.9406 58.4183 21.9406H53.0643V20.2337H58.1105C58.5956 20.2337 58.978 20.159 59.2485 20.0191C59.519 19.8699 59.6589 19.6087 59.6589 19.2076C59.6589 19.161 59.6589 19.0957 59.6402 18.9838C59.6123 18.6107 59.4723 18.3682 59.2485 18.2469C59.0153 18.135 58.6888 18.0603 58.2411 18.051H55.8719C54.8366 18.051 54.0437 17.8365 53.4934 17.4167C52.9431 16.997 52.6726 16.2788 52.6726 15.2714C52.6912 14.7304 52.7752 14.264 52.9338 13.8909C53.0923 13.5178 53.3162 13.2194 53.596 13.0048C53.8852 12.781 54.2209 12.6317 54.622 12.5291C55.0231 12.4358 55.4895 12.3799 56.0212 12.3799H61.3005V14.0961Z" fill="white"/>
</svg>
