<svg width="195" height="34" viewBox="0 0 195 34" fill="none" xmlns="http://www.w3.org/2000/svg">
<g clip-path="url(#clip0_2394_4549)">
<path d="M120.6 10.0554V11.9278C120.6 12.2765 120.313 12.5562 119.964 12.5432C119.432 12.5227 118.69 12.4966 118.235 12.4891C115.693 12.4891 114.291 14.0052 114.291 16.7597V23.5851C114.291 23.9245 114.015 24.2005 113.676 24.2005H111.445C111.106 24.2005 110.832 23.9245 110.832 23.5851V9.88013C110.832 9.54072 111.108 9.26472 111.445 9.26472H113.569C113.909 9.26472 114.185 9.53886 114.185 9.88013V10.7529C115.201 9.69924 116.822 9.13231 118.824 9.13231C119.156 9.13231 119.576 9.17893 119.869 9.21996C120.287 9.27777 120.6 9.63583 120.6 10.0554ZM97.7831 15.8272C97.6619 15.6743 97.6768 15.4524 97.8166 15.3144L103.303 9.92489C103.549 9.68245 103.378 9.26658 103.033 9.26658H99.84C99.6852 9.26658 99.5379 9.3244 99.4242 9.42883L93.2458 15.0999C92.9997 15.3274 92.6006 15.1521 92.6006 14.8165V9.88013C92.6006 9.54072 92.3246 9.26472 91.9852 9.26472H89.7566C89.4172 9.26472 89.1412 9.53886 89.1412 9.88013V23.5833C89.1412 23.9227 89.4172 24.1987 89.7566 24.1987H91.9814C92.3227 24.1987 92.5987 23.9208 92.5968 23.5795L92.5763 20.3999C92.5745 20.2283 92.6472 20.0624 92.774 19.9449L94.6967 18.1621C94.8589 18.011 95.1182 18.0296 95.258 18.2031L99.9016 23.9693C100.019 24.1148 100.194 24.1987 100.381 24.1987H103.585C103.905 24.1987 104.084 23.8294 103.887 23.5758L97.7831 15.8272ZM79.5819 9.26658H77.3514C77.012 9.26658 76.736 9.54072 76.736 9.88199V23.5851C76.736 23.9245 77.012 24.2005 77.3514 24.2005H79.5819C79.9213 24.2005 80.1973 23.9245 80.1973 23.5851V9.88013C80.1973 9.54072 79.9213 9.26658 79.5819 9.26658ZM159.479 9.26658H146.014C145.677 9.26658 145.399 9.54259 145.399 9.88199V11.8755C145.399 12.215 145.675 12.491 146.014 12.491H150.593C150.805 12.491 150.977 12.6625 150.977 12.8751V23.5851C150.977 23.9245 151.253 24.2005 151.592 24.2005H153.901C154.24 24.2005 154.516 23.9245 154.516 23.5851V12.8733C154.516 12.6607 154.688 12.4891 154.901 12.4891H159.479C159.818 12.4891 160.094 12.2131 160.094 11.8737V9.88013C160.094 9.54072 159.818 9.26658 159.479 9.26658ZM140.742 16.7317C140.742 21.1496 137.492 24.3572 133.012 24.3572C128.518 24.3572 125.256 21.1496 125.256 16.7317C125.256 12.3287 128.518 9.13418 133.012 9.13418C137.492 9.13418 140.742 12.3287 140.742 16.7317ZM137.257 16.7317C137.257 14.0668 135.551 12.2765 133.012 12.2765C130.499 12.2765 128.744 14.1078 128.744 16.7317C128.744 19.3705 130.499 21.213 133.012 21.213C135.511 21.2149 137.257 19.3705 137.257 16.7317ZM169.881 9.26658H167.651C167.313 9.26658 167.035 9.54259 167.035 9.88199V23.5851C167.035 23.9245 167.311 24.2005 167.651 24.2005H169.881C170.221 24.2005 170.497 23.9245 170.497 23.5851V9.88013C170.497 9.54072 170.221 9.26658 169.881 9.26658ZM61.5932 9.13418C59.5829 9.13418 57.774 9.82791 56.5394 11.0531C56.3734 11.2172 56.1179 11.2042 55.9669 11.0289C54.9114 9.80367 53.2889 9.13418 51.3364 9.13418C49.5461 9.13418 48.015 9.66567 46.9595 10.6485V9.88013C46.9595 9.54072 46.6835 9.26472 46.3441 9.26472H44.22C43.8806 9.26472 43.6046 9.53886 43.6046 9.88013V23.5833C43.6046 23.9227 43.8806 24.1987 44.22 24.1987H46.4504C46.7898 24.1987 47.064 23.9227 47.064 23.5833V16.521C47.064 13.856 48.429 12.3287 50.8068 12.3287C52.9029 12.3287 53.9659 13.5521 53.9659 15.9652V23.5833C53.9659 23.9227 54.2419 24.1987 54.5813 24.1987H56.8117C57.1511 24.1987 57.4271 23.9227 57.4271 23.5833V16.521C57.4271 13.856 58.7903 12.3287 61.168 12.3287C63.266 12.3287 64.329 13.5521 64.329 15.9652V23.5833C64.329 23.9227 64.605 24.1987 64.9444 24.1987H67.1748C67.5142 24.1987 67.7902 23.9227 67.7902 23.5833V15.6762C67.7921 11.5194 65.5319 9.13418 61.5932 9.13418ZM194.188 23.5758L188.082 15.8272C187.961 15.6724 187.976 15.4524 188.116 15.3144L193.602 9.92302C193.849 9.68245 193.677 9.26472 193.332 9.26472H190.139C189.986 9.26472 189.837 9.32253 189.723 9.42696L183.545 15.0981C183.299 15.3237 182.9 15.1503 182.9 14.8146V9.88013C182.9 9.54072 182.624 9.26472 182.284 9.26472H180.054C179.715 9.26472 179.439 9.54072 179.439 9.88013V23.5833C179.439 23.9227 179.715 24.1987 180.054 24.1987H182.279C182.62 24.1987 182.896 23.9208 182.894 23.5795L182.874 20.4018C182.874 20.2283 182.945 20.0642 183.071 19.9467L184.996 18.1621C185.158 18.011 185.417 18.0296 185.557 18.2031L190.201 23.9674C190.318 24.1129 190.494 24.1968 190.68 24.1968H193.884C194.207 24.1987 194.386 23.8294 194.188 23.5758ZM31.1192 8.63626C31.0782 8.54301 31.0353 8.4535 30.9868 8.37331C30.9383 8.29312 30.8805 8.21293 30.8153 8.1346C30.4777 7.7206 29.9276 7.31406 29.2245 6.92803L23.5683 3.8286L17.9122 0.725438C17.2091 0.339408 16.5639 0.0913791 16.0174 0.0205137C15.913 0.00745952 15.8104 0 15.7135 0C15.1093 0 14.3521 0.266678 13.5129 0.725438L7.85674 3.82673L2.20056 6.92616C1.4975 7.31219 0.947359 7.71687 0.609815 8.13274C0.544545 8.21293 0.486733 8.29312 0.438247 8.37144C0.38976 8.45163 0.346868 8.54115 0.30584 8.63439C0.0969737 9.12112 0 9.77383 0 10.544V22.9455C0 23.8649 0.136136 24.6201 0.438247 25.1181C0.740357 25.616 1.36136 26.1046 2.20056 26.5633L7.85674 29.6646L13.5129 32.7641C14.216 33.1482 14.8612 33.3981 15.4076 33.469C15.5121 33.482 15.6146 33.4914 15.7116 33.4914C15.8086 33.4914 15.9111 33.4839 16.0156 33.469C16.562 33.3981 17.2072 33.1501 17.9103 32.7641L29.2227 26.5633C30.06 26.1046 30.6829 25.616 30.985 25.1181C31.0335 25.0379 31.0763 24.9484 31.1174 24.8551C31.3262 24.3702 31.4232 23.7157 31.4232 22.9455V10.544C31.4251 9.77383 31.3281 9.12112 31.1192 8.63626ZM9.05958 23.186C9.05958 23.4676 8.75747 23.6485 8.50944 23.5124L6.48605 22.4028C6.0105 22.1417 5.71399 21.6419 5.71399 21.0992V15.1055C5.71399 14.8239 6.0161 14.6449 6.26413 14.7792L8.67542 16.0995C8.91412 16.23 9.06145 16.4799 9.06145 16.7522V23.186H9.05958ZM25.7111 21.0992C25.7111 21.6419 25.4146 22.1436 24.939 22.4047L22.9156 23.5124C22.6676 23.6485 22.3655 23.4695 22.3655 23.186V15.2454C22.3655 14.9638 22.0634 14.7829 21.8154 14.919L18.1602 16.9219C17.6846 17.183 17.3881 17.6828 17.3881 18.2255V26.1027C17.3881 26.375 17.2408 26.6249 17.0021 26.7554L16.4277 27.0687C15.982 27.313 15.4431 27.313 14.9974 27.0687L14.4267 26.7554C14.188 26.6249 14.0407 26.375 14.0407 26.1027V18.2273C14.0407 17.6846 13.7442 17.1849 13.2686 16.9238L5.71399 12.7837V12.3921C5.71399 11.8494 6.0105 11.3497 6.48605 11.0886L7.31965 10.6298C7.76536 10.3855 8.30431 10.3855 8.74815 10.6298L14.9974 14.0537C15.4431 14.298 15.982 14.298 16.4259 14.0537L19.3127 12.4704C19.57 12.3287 19.57 11.9595 19.3127 11.8177L12.8266 8.26328C12.5693 8.12155 12.5693 7.7523 12.8266 7.61057L14.9974 6.42078C15.4431 6.17648 15.982 6.17648 16.4277 6.42078L24.939 11.0848C25.4164 11.3459 25.713 11.8457 25.713 12.3903V21.0992H25.7111Z" fill="white"/>
</g>
<defs>
<clipPath id="clip0_2394_4549">
<rect width="194.27" height="33.4914" fill="white"/>
</clipPath>
</defs>
</svg>
