<svg width="125" height="50" viewBox="0 0 125 50" fill="none" xmlns="http://www.w3.org/2000/svg">
<path fill-rule="evenodd" clip-rule="evenodd" d="M112.001 29.5452V29.324C112.001 29.1027 111.912 28.8963 111.735 28.7193C111.558 28.5423 111.352 28.4538 111.131 28.4538H96.9138C96.604 28.4538 96.3533 28.3211 96.1321 28.1441C95.9109 27.9229 95.8224 27.6722 95.8224 27.3625V26.7136C95.8224 26.4924 95.9109 26.2859 96.0879 26.1089C96.2648 25.9319 96.4713 25.8434 96.6925 25.8434H111.116C111.588 25.8434 111.986 25.46 111.986 24.9733V24.7521C111.986 24.5309 111.898 24.3244 111.721 24.1474C111.544 23.9705 111.337 23.882 111.116 23.882H96.6925C96.4713 23.882 96.2648 23.7935 96.0879 23.6165C95.9109 23.4395 95.8224 23.2331 95.8224 23.0118V22.186C95.8224 21.8763 95.9551 21.6255 96.1321 21.4043C96.3533 21.1831 96.604 21.0946 96.9138 21.0946H111.131C111.603 21.0946 112.001 20.7112 112.001 20.2245V20.136C112.001 19.9148 111.912 19.7083 111.735 19.5313C111.558 19.3544 111.352 19.2659 111.131 19.2659H96.9138C96.1321 19.2659 95.3652 19.5756 94.79 20.136C94.2149 20.6964 93.9199 21.4338 93.9199 22.2155V27.274C93.9199 28.0556 94.2296 28.8225 94.79 29.3977C95.3505 29.9581 96.0879 30.2678 96.9138 30.2678H111.131C111.617 30.3711 112.001 30.0319 112.001 29.5452Z" fill="#FBCA12"/>
<path fill-rule="evenodd" clip-rule="evenodd" d="M31.5205 30.3711C31.9925 30.3711 32.3907 29.9876 32.3907 29.5009V20.3425C32.3907 19.959 32.1694 19.6051 31.786 19.4723C31.4468 19.2954 31.0044 19.3838 30.7536 19.6936L23.3649 27.2592C23.2764 27.3477 23.0995 27.3477 23.0257 27.2592L15.637 19.6936C15.3273 19.3838 14.9439 19.3101 14.6047 19.4723C14.2212 19.6051 14 19.9443 14 20.3425V29.5452C14 29.7664 14.0885 29.9729 14.2655 30.1498C14.4424 30.3268 14.6489 30.4153 14.8701 30.4153H15.0913C15.5633 30.4153 15.9615 30.0318 15.9615 29.5452V23.587C15.9615 23.41 16.05 23.2773 16.1827 23.2478C16.3154 23.2036 16.4924 23.2036 16.6104 23.3363L22.5685 29.4714C22.7455 29.6484 22.9962 29.7811 23.2617 29.7811C23.5272 29.7811 23.7779 29.6926 23.9549 29.4714L29.913 23.3363C30.0015 23.2036 30.1785 23.2036 30.3407 23.2478C30.4734 23.292 30.5619 23.469 30.5619 23.587V29.5452C30.5619 29.7664 30.6504 29.9729 30.8274 30.1498C31.0044 30.3268 31.2108 30.4153 31.4321 30.4153H31.5648V30.3711H31.5205ZM90.3648 28.1736C90.586 27.9524 90.6745 27.7017 90.6745 27.392V22.3334C90.6745 22.0237 90.5418 21.773 90.3648 21.5518C90.1436 21.3306 89.8929 21.2421 89.5831 21.2421H77.9618C77.6521 21.2421 77.4014 21.3306 77.2244 21.5518C77.0032 21.773 76.8852 22.0237 76.8852 22.3334V27.392C76.8852 27.7017 77.0179 27.9524 77.1949 28.1736C77.4161 28.3948 77.6668 28.4833 77.9765 28.4833H89.5979C89.8486 28.5128 90.1436 28.3801 90.3648 28.1736ZM92.5622 27.4362C92.5622 28.2179 92.2525 28.9848 91.6921 29.5599C91.1317 30.1351 90.3943 30.43 89.5684 30.43H77.947C77.1654 30.43 76.3985 30.1203 75.8233 29.5599C75.2482 28.9995 74.9532 28.2621 74.9532 27.4362V22.3334C74.9532 21.5518 75.2629 20.7849 75.8233 20.254C76.3838 19.6936 77.1212 19.3396 77.947 19.3838H89.5684C90.35 19.3838 91.1169 19.6936 91.6921 20.254C92.2525 20.8144 92.5622 21.5518 92.5622 22.3334V27.4362ZM35.7532 20.2687C35.7532 20.0475 35.6647 19.841 35.4877 19.6641C35.3108 19.4871 35.1043 19.3986 34.8831 19.3986H34.6766C34.4554 19.3986 34.2489 19.4871 34.0719 19.6641C33.895 19.841 33.8065 20.0475 33.8065 20.2687V29.5599C33.8065 29.7811 33.895 29.9876 34.0719 30.1646C34.2489 30.3416 34.4554 30.43 34.6766 30.43H34.8978C35.3698 30.43 35.7679 30.0466 35.7679 29.5599V20.2687H35.7532ZM53.6424 29.7664C53.7752 29.5894 53.8637 29.3829 53.8194 29.1617C53.8194 28.9405 53.6867 28.734 53.5097 28.6013L48.9231 24.7963C48.7019 24.6194 48.5839 24.3244 48.6134 24.0147C48.6576 23.705 48.8346 23.4985 49.0853 23.3658L53.3622 21.3306C53.5835 21.2421 53.7014 21.0651 53.7899 20.8586C53.8784 20.6522 53.8342 20.4309 53.7457 20.2097L53.6572 20.0328C53.436 19.6051 52.964 19.4281 52.5363 19.6493L40.3103 25.4452C40.0448 25.578 39.7499 25.5337 39.4844 25.401C39.219 25.224 39.101 24.9733 39.101 24.6636V20.2097C39.101 19.9885 39.0125 19.782 38.8355 19.6051C38.6585 19.4723 38.4521 19.3838 38.2309 19.3838H38.0096C37.7884 19.3838 37.5819 19.4723 37.405 19.6493C37.228 19.8263 37.1395 20.0328 37.1395 20.254V29.5452C37.1395 29.7664 37.228 29.9729 37.405 30.1498C37.5819 30.3268 37.7884 30.4153 38.0096 30.4153H38.2309C38.7028 30.4153 39.101 30.0318 39.101 29.5452V28.675C39.101 28.3358 39.278 28.0704 39.5729 27.8934L45.4868 25.0913C45.7965 24.9586 46.1357 25.0028 46.4012 25.224L52.2709 30.0613C52.4479 30.1941 52.6543 30.2826 52.8755 30.2383C53.0968 30.2383 53.3032 30.1056 53.436 29.9286L53.6424 29.7664ZM71.7824 27.5247C71.6054 27.3477 71.5169 27.097 71.5612 26.8758C71.6054 26.6103 71.7382 26.4039 71.9004 26.2711C72.0626 26.1384 72.2101 26.0057 72.3723 25.8877C73.1097 25.1945 73.5374 24.2507 73.5374 23.1593C73.5374 22.4219 73.3162 21.7288 72.977 21.1683C72.8 20.9029 72.6378 20.6522 72.3723 20.4309C71.6792 19.782 70.7795 19.3986 69.7767 19.3986C69.7767 19.3986 60.9279 19.3986 57.9783 19.3986C57.4179 19.3986 56.9017 19.5756 56.4593 19.9148C55.8989 20.3425 55.6334 21.0356 55.6334 21.7288C55.6334 23.6755 55.6334 27.5984 55.6334 29.5452C55.6334 29.7664 55.7219 29.9729 55.8989 30.1498C56.0758 30.3268 56.2823 30.4153 56.5035 30.4153C56.5478 30.4153 56.6805 30.4153 56.7248 30.4153C57.1967 30.4153 57.5949 30.0318 57.5949 29.5452C57.5949 29.1175 57.5949 28.2031 57.5949 27.7312C57.5949 27.51 57.6834 27.3035 57.8604 27.1265C58.0373 26.9495 58.2438 26.8611 58.465 26.8611C60.9279 26.8611 65.8537 26.8611 68.2724 26.8611C68.4936 26.8611 68.7443 26.9495 68.8771 27.1265C69.526 27.8197 70.868 29.2502 71.5612 29.9286C71.7381 30.1056 71.9446 30.1941 72.1658 30.1941C72.3871 30.1941 72.5935 30.1056 72.7705 29.9729C72.8148 29.9286 72.859 29.8844 72.9032 29.8401C73.0802 29.6632 73.1687 29.4567 73.1687 29.2355C73.1687 29.0142 73.1392 28.8078 72.9475 28.6308C72.6378 28.3358 71.7824 27.5247 71.7824 27.5247ZM58.3913 24.9733C58.1701 24.9733 57.9636 24.8848 57.7866 24.7078C57.6096 24.5309 57.5211 24.3244 57.5211 24.1032C57.5211 23.4985 57.5211 21.6403 57.5211 21.6403C57.5211 21.5518 57.5506 21.4633 57.5949 21.4043C57.6981 21.2863 57.7866 21.2421 57.9193 21.2421C60.8542 21.2421 66.7386 21.2421 69.6734 21.2421C70.75 21.2421 71.4432 22.0237 71.5317 22.7906C71.5759 22.9676 71.5759 23.1741 71.4874 23.4838C71.3105 24.2212 70.5436 24.9143 69.6734 24.9143C66.9008 24.9733 61.2376 24.9733 58.3913 24.9733Z" fill="white"/>
</svg>
