<svg width="98" height="43" viewBox="0 0 98 43" fill="none" xmlns="http://www.w3.org/2000/svg">
<path d="M79.7703 1.93799H71.8055L64.9646 24.0569L58.2214 1.93799H50.2729L38.6271 39.563H47.0968L54.1657 16.6785L61.2021 39.563H68.6293L75.7146 16.6785L82.7509 39.563H91.2206L79.7703 1.93799Z" fill="black"/>
<path d="M79.7702 1.9379V1.88904H71.8054L71.7566 1.92161L64.9645 23.8614L58.2702 1.92161L58.2213 1.88904H50.2728L50.2077 1.92161L38.5619 39.5466L38.5781 39.5955L38.627 39.6281H47.0967L47.1456 39.5792L54.1656 16.8739L61.1531 39.5792L61.202 39.6281H68.6293L68.6944 39.5792L75.7145 16.8739L82.702 39.5792L82.7509 39.6281H91.2206L91.2694 39.5955V39.5466L79.8191 1.92161L79.7702 1.88904V1.9379L79.7213 1.95419L91.1391 39.514H82.7834L75.7634 16.6621L75.7145 16.6296L75.6656 16.6621L68.5967 39.514H61.2509L54.2145 16.6621L54.1656 16.6296L54.1168 16.6621L47.0478 39.514H38.6922L50.3054 2.00305H58.1887L64.8994 24.0731L64.9645 24.1057L65.0134 24.0731L71.8543 2.00305H79.7702V1.9379L79.7213 1.95419L79.7702 1.9379Z" fill="black"/>
<path d="M50.2729 1.93805L51.9994 0.0649414H59.9479L58.2214 1.93805H50.2729Z" fill="black"/>
<path d="M50.2729 1.93789L50.3055 1.98675L52.0157 0.113648H59.8176L58.2051 1.88903H50.2729V1.93789L50.3055 1.98675L50.2729 1.93789V2.00304H58.2214L58.2703 1.98675L59.9968 0.0973621V0.0322091L59.9479 -0.000366211H51.9995L51.9506 0.0159227L50.2241 1.90532V1.97047L50.2729 2.00304V1.93789Z" fill="black"/>
<path d="M73.532 0.0649414L71.8055 1.93805H79.7703L81.4968 0.0649414H73.532Z" fill="black"/>
<path d="M73.5321 0.0647868L73.4995 0.0159227L71.773 1.90532L71.7567 1.97047L71.8055 2.00304H79.7703L79.8192 1.98675L81.5457 0.0973621V0.0322091L81.4968 -0.000366211H73.5321L73.4995 0.0159227L73.5321 0.0647868V0.113648H81.3665L79.7377 1.88903H71.9359L73.5809 0.0973621L73.5321 0.0647868V0.113648V0.0647868Z" fill="black"/>
<path d="M64.9645 24.057L66.1047 20.3433L59.9479 0.0649414L58.2214 1.93805L64.9645 24.057Z" fill="black"/>
<path d="M64.9646 24.0568L65.0134 24.0731L66.1536 20.3595L66.1699 20.3269L60.0131 0.0484979L59.9642 -0.000366211L59.9153 0.0159227L58.1888 1.90532L58.1725 1.95418L64.8994 24.0731L64.9646 24.1057L65.0134 24.0731L64.9646 24.0568L65.0134 24.0405L58.2865 1.95418L59.9316 0.178801L66.0559 20.3432L64.8994 24.0405L64.9646 24.0568L65.0134 24.0405L64.9646 24.0568Z" fill="black"/>
<path d="M47.0968 39.5631L50.1263 36.4521L55.1593 19.9199L54.1657 16.6786L47.0968 39.5631Z" fill="black"/>
<path d="M47.0967 39.5628L47.1293 39.6117L50.1588 36.5007L50.1751 36.4682L55.2244 19.936V19.9034L54.2145 16.6621L54.1656 16.6295L54.1168 16.6621L47.0316 39.5466L47.0641 39.6117H47.1293L47.0967 39.5628L47.1456 39.5791L54.1656 16.8738L55.1103 19.9197L50.0774 36.4356L47.0478 39.5303L47.0967 39.5628L47.1456 39.5791L47.0967 39.5628Z" fill="black"/>
<path d="M91.2206 39.563L79.7702 1.93805L81.4967 0.0649414L92.9471 37.7551L91.2206 39.563Z" fill="black"/>
<path d="M91.2206 39.5629L91.2695 39.5466L79.8354 1.95418L81.4642 0.178801L92.882 37.7386L91.188 39.5303L91.2206 39.5629L91.2695 39.5466L91.2206 39.5629L91.2695 39.6118L92.9797 37.8038L92.996 37.7386L81.5456 0.0484979L81.513 -0.000366211L81.4479 0.0159227L79.7214 1.90532V1.95418L91.1717 39.5792L91.2043 39.6118H91.2695L91.2206 39.5629Z" fill="black"/>
<path d="M68.6294 39.5631L71.6752 36.4521L76.7082 19.9199L75.7146 16.6786L68.6294 39.5631Z" fill="black"/>
<path d="M68.6294 39.5628L68.6783 39.6117L71.7078 36.5007L71.7241 36.4682L76.7571 19.936V19.9034L75.7635 16.6621L75.7146 16.6295L75.6658 16.6621L68.5805 39.5466L68.6131 39.6117H68.6783L68.6294 39.5628L68.6946 39.5791L75.7146 16.8738L76.643 19.9197L71.6101 36.4356L68.5968 39.5303L68.6294 39.5628L68.6946 39.5791L68.6294 39.5628Z" fill="black"/>
<path d="M47.4388 1.93799H38.7736L31.3301 26.0766L24.0005 1.93799H15.3517L2.67969 42.9509H11.8986L19.5865 18.063L27.2418 42.9509H35.3206L43.0248 18.063L50.6801 42.9509H59.8827L47.4388 1.93799Z" fill="black"/>
<path d="M47.4388 1.9379V1.88904H38.7737L38.7248 1.92161L31.3301 25.8811L24.0494 1.92161L24.0006 1.88904H15.3517L15.3028 1.92161L2.63086 42.9345L2.64715 42.9834L2.67972 42.9996H11.8987L11.9475 42.9671L19.5865 18.2584L27.193 42.9671L27.2418 42.9996H35.3206L35.3858 42.9671L43.0248 18.2584L50.6149 42.9671L50.6801 42.9996H59.8828L59.9316 42.9834V42.9345L47.4877 1.92161L47.4388 1.88904V1.9379L47.3737 1.95419L59.8013 42.8856H50.7127L43.0737 18.0466L43.0248 18.014L42.9759 18.0466L35.2881 42.8856H27.2907L19.6517 18.0466L19.5865 18.014L19.5377 18.0466L11.8498 42.8856H2.76116L15.3843 2.00305H23.968L31.2812 26.0928L31.3301 26.1417L31.379 26.0928L38.8225 2.00305H47.4388V1.9379L47.3737 1.95419L47.4388 1.9379Z" fill="black"/>
<path d="M15.3516 1.93805L17.2247 0.0649414H25.8899L24.0005 1.93805H15.3516Z" fill="black"/>
<path d="M15.3517 1.93789L15.3842 1.98675L17.2573 0.113648H25.7433L23.9842 1.88903H15.3517V1.93789L15.3842 1.98675L15.3517 1.93789V2.00304H24.0005L24.0494 1.98675L25.9225 0.0973621L25.9388 0.0322091L25.8899 -0.000366211H17.2248L17.1922 0.0159227L15.3028 1.90532V1.97047L15.3517 2.00304V1.93789Z" fill="black"/>
<path d="M40.6631 0.0649414L38.7737 1.93805H47.4389L49.312 0.0649414H40.6631Z" fill="black"/>
<path d="M40.663 0.0647868L40.6141 0.0159227L38.741 1.90532L38.7247 1.97047L38.7736 2.00304H47.4388L47.4713 1.98675L49.3444 0.0973621L49.3607 0.0322091L49.3119 -0.000366211H40.663L40.6141 0.0159227L40.663 0.0647868V0.113648H49.1816L47.4062 1.88903H38.9202L40.6956 0.0973621L40.663 0.0647868V0.113648V0.0647868Z" fill="black"/>
<path d="M31.3301 26.0767L32.5843 22.0373L25.8737 0.0649414L24.0006 1.93805L31.3301 26.0767Z" fill="black"/>
<path d="M31.3302 26.0765L31.379 26.0928L32.6332 22.0534V22.0208L25.9389 0.0484979L25.89 -0.000366211L25.8411 0.0159227L23.968 1.90532L23.9518 1.97047L31.2813 26.0928L31.3302 26.1417L31.379 26.0928L31.3302 26.0765L31.379 26.0602L24.0658 1.95418L25.8574 0.162513L32.5192 22.0371L31.2813 26.0602L31.3302 26.0765L31.379 26.0602L31.3302 26.0765Z" fill="black"/>
<path d="M11.8987 42.9509L15.1889 39.563L20.6779 21.5812L19.5866 18.063L11.8987 42.9509Z" fill="black"/>
<path d="M11.8986 42.9508L11.9312 42.9834L15.2376 39.6118L15.2539 39.5792L20.7266 21.5974V21.5648L19.6516 18.0466L19.5865 18.014L19.5376 18.0466L11.8497 42.9345L11.866 42.9996L11.9312 42.9834L11.8986 42.9508L11.9475 42.9671L19.5865 18.2584L20.6126 21.5811L15.1399 39.5303L11.8497 42.9019L11.8986 42.9508L11.9475 42.9671L11.8986 42.9508Z" fill="black"/>
<path d="M59.8827 42.9509L47.4387 1.93805L49.3119 0.0649414L61.7558 40.9801L59.8827 42.9509Z" fill="black"/>
<path d="M59.8828 42.9508L59.9316 42.9345L47.504 1.95418L49.2794 0.162513L61.6907 40.9636L59.8502 42.9019L59.8828 42.9508L59.9316 42.9345L59.8828 42.9508L59.9316 42.9833L61.8048 41.0288L61.821 40.9636L49.3608 0.0484979L49.3282 -0.000366211L49.2631 0.0159227L47.39 1.90532L47.3737 1.95418L59.8339 42.9671L59.8665 42.9996L59.9316 42.9833L59.8828 42.9508Z" fill="black"/>
<path d="M35.3207 42.9509L38.6271 39.563L44.0998 21.5812L43.0248 18.063L35.3207 42.9509Z" fill="black"/>
<path d="M35.3207 42.9508L35.3696 42.9834L38.6597 39.6118L38.676 39.5792L44.1487 21.5974V21.5648L43.0737 18.0466L43.0249 18.014L42.9597 18.0466L35.2718 42.9345L35.3044 42.9996L35.3696 42.9834L35.3207 42.9508L35.3858 42.9671L43.0249 18.2584L44.0347 21.5811L38.5783 39.5303L35.2881 42.9019L35.3207 42.9508L35.3858 42.9671L35.3207 42.9508Z" fill="black"/>
<mask id="mask0_2216_4643" style="mask-type:luminance" maskUnits="userSpaceOnUse" x="38" y="1" width="54" height="39">
<path d="M71.8056 1.93762L64.9647 24.0566L58.2215 1.93762H50.273L38.6272 39.5626H47.0969L54.1658 16.6782L61.2022 39.5626H68.6457L75.7147 16.6782L82.751 39.5626H91.2207L79.7703 1.93762H71.8056Z" fill="white"/>
</mask>
<g mask="url(#mask0_2216_4643)">
<path d="M91.2205 1.93774H38.6269V39.5627H91.2205V1.93774Z" fill="url(#paint0_linear_2216_4643)"/>
</g>
<path d="M79.7704 1.9379V1.88904H71.8056L71.7568 1.92161L64.9647 23.8614L58.2704 1.92161L58.2215 1.88904H50.273L50.2079 1.92161L38.5621 39.5466L38.5784 39.5955L38.6272 39.6281H47.0969L47.1458 39.5792L54.1658 16.8739L61.1533 39.5792L61.2022 39.6281H68.6295L68.6946 39.5792L75.7147 16.8739L82.7022 39.5792L82.7511 39.6281H91.2208L91.2696 39.5955V39.5466L79.8193 1.92161L79.7704 1.88904V1.9379L79.7215 1.95419L91.1393 39.514H82.7837L75.7636 16.6621L75.7147 16.6296L75.6658 16.6621L68.5969 39.514H61.2511L54.2147 16.6621L54.1658 16.6296L54.117 16.6621L47.048 39.514H38.6924L50.3056 2.00305H58.189L64.8996 24.0731L64.9647 24.1057L65.0136 24.0731L71.8545 2.00305H79.7704V1.9379L79.7215 1.95419L79.7704 1.9379Z" fill="black"/>
<mask id="mask1_2216_4643" style="mask-type:luminance" maskUnits="userSpaceOnUse" x="50" y="0" width="10" height="2">
<path d="M51.9997 0.0645752L50.2732 1.93768H58.2217L59.9482 0.0645752H51.9997Z" fill="white"/>
</mask>
<g mask="url(#mask1_2216_4643)">
<path d="M59.9481 0.0646973H50.2731V1.95409H59.9481V0.0646973Z" fill="url(#paint1_linear_2216_4643)"/>
</g>
<path d="M50.273 1.93789L50.3056 1.98675L52.0158 0.113648H59.8177L58.2052 1.88903H50.273V1.93789L50.3056 1.98675L50.273 1.93789V2.00304H58.2215L58.2703 1.98675L59.9969 0.0973621V0.0322091L59.948 -0.000366211H51.9995L51.9506 0.0159227L50.2241 1.90532V1.97047L50.273 2.00304V1.93789Z" fill="black"/>
<mask id="mask2_2216_4643" style="mask-type:luminance" maskUnits="userSpaceOnUse" x="71" y="0" width="11" height="2">
<path d="M73.5315 0.0645752L71.805 1.93768H79.7698L81.4963 0.0645752H73.5315Z" fill="white"/>
</mask>
<g mask="url(#mask2_2216_4643)">
<path d="M81.4964 0.0646973H71.8052V1.95409H81.4964V0.0646973Z" fill="url(#paint2_linear_2216_4643)"/>
</g>
<path d="M73.5318 0.0647868L73.4993 0.0159227L71.7728 1.90532L71.7565 1.97047L71.8053 2.00304H79.7701L79.819 1.98675L81.5455 0.0973621V0.0322091L81.4966 -0.000366211H73.5318L73.4993 0.0159227L73.5318 0.0647868V0.113648H81.3663L79.7375 1.88903H71.9356L73.5807 0.0973621L73.5318 0.0647868V0.113648V0.0647868Z" fill="black"/>
<mask id="mask3_2216_4643" style="mask-type:luminance" maskUnits="userSpaceOnUse" x="58" y="0" width="9" height="25">
<path d="M58.221 1.93768L64.9642 24.0566L66.1043 20.343L59.9475 0.0645752L58.221 1.93768Z" fill="white"/>
</mask>
<g mask="url(#mask3_2216_4643)">
<path d="M66.1045 0.0646973H58.2211V24.0567H66.1045V0.0646973Z" fill="url(#paint3_linear_2216_4643)"/>
</g>
<path d="M64.9646 24.0568L65.0134 24.0731L66.1536 20.3595L66.1699 20.3269L60.013 0.0484979L59.9642 -0.000366211L59.9153 0.0159227L58.1888 1.90532L58.1725 1.95418L64.8994 24.0731L64.9646 24.1057L65.0134 24.0731L64.9646 24.0568L65.0134 24.0405L58.2865 1.95418L59.9316 0.178801L66.0558 20.3432L64.8994 24.0405L64.9646 24.0568L65.0134 24.0405L64.9646 24.0568Z" fill="black"/>
<mask id="mask4_2216_4643" style="mask-type:luminance" maskUnits="userSpaceOnUse" x="47" y="16" width="9" height="24">
<path d="M47.0965 39.5627L50.126 36.4517L55.159 19.9195L54.1654 16.6782L47.0965 39.5627Z" fill="white"/>
</mask>
<g mask="url(#mask4_2216_4643)">
<path d="M55.1755 16.6783H47.0967V39.5465H55.1755V16.6783Z" fill="url(#paint4_linear_2216_4643)"/>
</g>
<path d="M47.0969 39.563L47.1295 39.6118L50.159 36.5008L50.1753 36.4683L55.2246 19.9361V19.9035L54.2147 16.6622L54.1658 16.6296L54.117 16.6622L47.0318 39.5467L47.0643 39.6118H47.1295L47.0969 39.563L47.1458 39.5793L54.1658 16.874L55.1105 19.9198L50.0776 36.4357L47.048 39.5304L47.0969 39.563L47.1458 39.5793L47.0969 39.563Z" fill="black"/>
<mask id="mask5_2216_4643" style="mask-type:luminance" maskUnits="userSpaceOnUse" x="79" y="0" width="14" height="40">
<path d="M79.7703 1.93768L91.2207 39.5627L92.9472 37.7547L81.4968 0.0645752L79.7703 1.93768Z" fill="white"/>
</mask>
<g mask="url(#mask5_2216_4643)">
<path d="M92.9472 0.0646973H79.7703V39.5628H92.9472V0.0646973Z" fill="url(#paint5_linear_2216_4643)"/>
</g>
<path d="M91.2207 39.5629L91.2696 39.5466L79.8355 1.95418L81.4643 0.178801L92.8821 37.7386L91.1881 39.5303L91.2207 39.5629L91.2696 39.5466L91.2207 39.5629L91.2696 39.6118L92.9798 37.8038L92.9961 37.7386L81.5457 0.0484979L81.5131 -0.000366211L81.448 0.0159227L79.7215 1.90532V1.95418L91.1718 39.5792L91.2044 39.6118H91.2696L91.2207 39.5629Z" fill="black"/>
<mask id="mask6_2216_4643" style="mask-type:luminance" maskUnits="userSpaceOnUse" x="68" y="16" width="9" height="24">
<path d="M68.6461 39.5627L71.6756 36.4517L76.7086 19.9195L75.715 16.6782L68.6461 39.5627Z" fill="white"/>
</mask>
<g mask="url(#mask6_2216_4643)">
<path d="M76.7084 16.6782H68.6459V39.5464H76.7084V16.6782Z" fill="url(#paint6_linear_2216_4643)"/>
</g>
<path d="M68.6292 39.563L68.6781 39.6118L71.7077 36.5008L71.7239 36.4683L76.7569 19.9361V19.9035L75.7633 16.6622L75.7145 16.6296L75.6656 16.6622L68.5804 39.5467L68.613 39.6118H68.6781L68.6292 39.563L68.6944 39.5793L75.7145 16.874L76.6429 19.9198L71.6099 36.4357L68.5967 39.5304L68.6292 39.563L68.6944 39.5793L68.6292 39.563Z" fill="black"/>
<mask id="mask7_2216_4643" style="mask-type:luminance" maskUnits="userSpaceOnUse" x="2" y="1" width="58" height="42">
<path d="M38.7733 1.93762L31.3298 26.0763L24.0002 1.93762H15.3513L2.67937 42.9505H11.8983L19.5862 18.0626L27.2415 42.9505H35.3203L43.0245 18.0626L50.6635 42.9505H59.8824L47.4385 1.93762H38.7733Z" fill="white"/>
</mask>
<g mask="url(#mask7_2216_4643)">
<path d="M59.8825 1.93762H2.67949V42.9342H59.8825V1.93762Z" fill="url(#paint7_linear_2216_4643)"/>
</g>
<path d="M47.4388 1.9379V1.88904H38.7737L38.7248 1.92161L31.3301 25.8811L24.0494 1.92161L24.0006 1.88904H15.3517L15.3028 1.92161L2.63086 42.9345L2.64715 42.9834L2.67972 42.9996H11.8987L11.9475 42.9671L19.5865 18.2584L27.193 42.9671L27.2418 42.9996H35.3206L35.3858 42.9671L43.0248 18.2584L50.6149 42.9671L50.6801 42.9996H59.8828L59.9316 42.9834V42.9345L47.4877 1.92161L47.4388 1.88904V1.9379L47.3737 1.95419L59.8013 42.8856H50.7127L43.0737 18.0466L43.0248 18.014L42.9759 18.0466L35.2881 42.8856H27.2907L19.6517 18.0466L19.5865 18.014L19.5377 18.0466L11.8498 42.8856H2.76116L15.3843 2.00305H23.968L31.2812 26.0928L31.3301 26.1417L31.379 26.0928L38.8225 2.00305H47.4388V1.9379L47.3737 1.95419L47.4388 1.9379Z" fill="black"/>
<mask id="mask8_2216_4643" style="mask-type:luminance" maskUnits="userSpaceOnUse" x="15" y="0" width="11" height="2">
<path d="M17.2252 0.0645752L15.3521 1.93768H24.0009L25.8903 0.0645752H17.2252Z" fill="white"/>
</mask>
<g mask="url(#mask8_2216_4643)">
<path d="M25.8902 0.0646973H15.352V1.95409H25.8902V0.0646973Z" fill="url(#paint8_linear_2216_4643)"/>
</g>
<path d="M15.3519 1.93789L15.3845 1.98675L17.2576 0.113648H25.7435L23.9845 1.88903H15.3519V1.93789L15.3845 1.98675L15.3519 1.93789V2.00304H24.0007L24.0496 1.98675L25.9227 0.0973621L25.939 0.0322091L25.8901 -0.000366211H17.225L17.1924 0.0159227L15.303 1.90532V1.97047L15.3519 2.00304V1.93789Z" fill="black"/>
<mask id="mask9_2216_4643" style="mask-type:luminance" maskUnits="userSpaceOnUse" x="38" y="0" width="12" height="2">
<path d="M40.6628 0.0645752L38.7734 1.93768H47.4386L49.3117 0.0645752H40.6628Z" fill="white"/>
</mask>
<g mask="url(#mask9_2216_4643)">
<path d="M49.2955 0.0646973H38.7735V1.95409H49.2955V0.0646973Z" fill="url(#paint9_linear_2216_4643)"/>
</g>
<path d="M40.663 0.0647868L40.6141 0.0159227L38.741 1.90532L38.7248 1.97047L38.7736 2.00304H47.4388L47.4713 1.98675L49.3444 0.0973621L49.3607 0.0322091L49.3119 -0.000366211H40.663L40.6141 0.0159227L40.663 0.0647868V0.113648H49.1816L47.4062 1.88903H38.9202L40.6956 0.0973621L40.663 0.0647868V0.113648V0.0647868Z" fill="black"/>
<mask id="mask10_2216_4643" style="mask-type:luminance" maskUnits="userSpaceOnUse" x="24" y="0" width="9" height="27">
<path d="M24.0005 1.93768L31.3301 26.0763L32.5679 22.0369L25.8899 0.0645752L24.0005 1.93768Z" fill="white"/>
</mask>
<g mask="url(#mask10_2216_4643)">
<path d="M32.5679 0.0646973H24.0005V26.0764H32.5679V0.0646973Z" fill="url(#paint10_linear_2216_4643)"/>
</g>
<path d="M31.3301 26.0765L31.379 26.0928L32.6331 22.0534V22.0208L25.9388 0.0484979L25.8899 -0.000366211L25.8411 0.0159227L23.968 1.90532L23.9517 1.97047L31.2812 26.0928L31.3301 26.1417L31.379 26.0928L31.3301 26.0765L31.379 26.0602L24.0657 1.95418L25.8574 0.162513L32.5191 22.0371L31.2812 26.0602L31.3301 26.0765L31.379 26.0602L31.3301 26.0765Z" fill="black"/>
<mask id="mask11_2216_4643" style="mask-type:luminance" maskUnits="userSpaceOnUse" x="11" y="18" width="10" height="25">
<path d="M11.8992 42.9511L15.1893 39.5632L20.6783 21.5814L19.587 18.0632L11.8992 42.9511Z" fill="white"/>
</mask>
<g mask="url(#mask11_2216_4643)">
<path d="M20.6781 18.0632H11.8989V42.9511H20.6781V18.0632Z" fill="url(#paint11_linear_2216_4643)"/>
</g>
<path d="M11.8985 42.951L11.9311 42.9836L15.2375 39.612L15.2538 39.5794L20.7265 21.5976V21.565L19.6515 18.0469L19.5864 18.0143L19.5375 18.0469L11.8496 42.9347L11.8659 42.9999L11.9311 42.9836L11.8985 42.951L11.9474 42.9673L19.5864 18.2586L20.6125 21.5813L15.1398 39.5306L11.8496 42.9022L11.8985 42.951L11.9474 42.9673L11.8985 42.951Z" fill="black"/>
<mask id="mask12_2216_4643" style="mask-type:luminance" maskUnits="userSpaceOnUse" x="47" y="0" width="15" height="43">
<path d="M47.4389 1.93768L59.8828 42.9506L61.756 40.9797L49.312 0.0645752L47.4389 1.93768Z" fill="white"/>
</mask>
<g mask="url(#mask12_2216_4643)">
<path d="M61.7722 0.0646973H47.4389V42.9507H61.7722V0.0646973Z" fill="url(#paint12_linear_2216_4643)"/>
</g>
<path d="M59.8825 42.9508L59.9314 42.9345L47.5037 1.95418L49.2791 0.162513L61.6905 40.9636L59.8499 42.9019L59.8825 42.9508L59.9314 42.9345L59.8825 42.9508L59.9314 42.9833L61.8045 41.0288L61.8208 40.9636L49.3605 0.0484979L49.328 -0.000366211L49.2628 0.0159227L47.3897 1.90532L47.3734 1.95418L59.8337 42.9671L59.8662 42.9996L59.9314 42.9833L59.8825 42.9508Z" fill="black"/>
<mask id="mask13_2216_4643" style="mask-type:luminance" maskUnits="userSpaceOnUse" x="35" y="18" width="10" height="25">
<path d="M35.3205 42.9511L38.6269 39.5632L44.0997 21.5814L43.0247 18.0632L35.3205 42.9511Z" fill="white"/>
</mask>
<g mask="url(#mask13_2216_4643)">
<path d="M44.0997 18.0632H35.3205V42.9511H44.0997V18.0632Z" fill="url(#paint13_linear_2216_4643)"/>
</g>
<path d="M35.3205 42.9509L35.3694 42.9835L38.6596 39.6119L38.6758 39.5793L44.1486 21.5975V21.5649L43.0736 18.0467L43.0247 18.0142L42.9596 18.0467L35.2717 42.9346L35.3043 42.9998L35.3694 42.9835L35.3205 42.9509L35.3857 42.9672L43.0247 18.2585L44.0346 21.5812L38.5781 39.5304L35.288 42.902L35.3205 42.9509L35.3857 42.9672L35.3205 42.9509Z" fill="black"/>
<path d="M25.2871 30.3767L24.4564 30.9305L21.492 30.3767V15.7991H25.2871V30.3767Z" fill="#646363"/>
<path d="M25.2872 30.3768L25.2546 30.3279L24.4402 30.8654L21.5573 30.3279V15.848H25.2383V30.3605H25.2872L25.2546 30.3116L25.2872 30.3768H25.3524V15.7991L25.3361 15.7665L25.2872 15.7502H21.4921L21.4433 15.7665L21.427 15.7991V30.3768C21.427 30.4093 21.4433 30.4256 21.4758 30.4256L24.4402 30.9794L24.4891 30.9631L25.3198 30.4093L25.3524 30.3605H25.2872V30.3768Z" fill="white"/>
<path d="M30.9064 27.168H35.4507V30.3767L34.6201 30.9305L27.1114 30.3767V15.7991H30.9064V27.168Z" fill="#646363"/>
<path d="M30.9065 27.168V27.2332H35.3857V30.3605L34.5876 30.8817L27.1603 30.3442V15.8805H30.8414V27.168L30.8577 27.2169L30.9065 27.2332V27.168H30.9554V15.7991L30.9391 15.7665L30.8902 15.7502H27.1114L27.0626 15.7665L27.0463 15.7991V30.3768C27.0463 30.4093 27.0626 30.4256 27.0952 30.4419L34.5876 30.9957L34.6202 30.9794L35.4508 30.4256L35.4671 30.3768V27.168L35.4508 27.1192L35.4183 27.1029H30.9065V27.168Z" fill="white"/>
<path d="M40.0766 27.168H44.6209V30.3767L43.774 30.9305L36.2816 30.3767V15.7991H40.0766V27.168Z" fill="#646363"/>
<path d="M40.0766 27.168V27.2332H44.5557V30.3605L43.7576 30.8817L36.3304 30.3442V15.8805H40.0114V27.168L40.0277 27.2169L40.0766 27.2332V27.168H40.1417V15.7991L40.1254 15.7665L40.0766 15.7502H36.2815L36.2326 15.7665L36.2163 15.7991V30.3768C36.2163 30.4093 36.2326 30.4256 36.2652 30.4419L43.7576 30.9957L43.7902 30.9794L44.6209 30.4256L44.6372 30.3768V27.168L44.6209 27.1192L44.572 27.1029H40.0766V27.168Z" fill="white"/>
<path d="M47.6179 21.516V24.4152L46.7872 24.9527L42.08 24.4152V21.516H47.6179Z" fill="#646363"/>
<path d="M47.6179 21.5161H47.5527V24.3827L46.7709 24.904L42.1452 24.3665V21.5812H47.6179V21.5161V21.4509H42.08L42.0474 21.4672L42.0311 21.5161V24.4153C42.0311 24.4479 42.0474 24.4642 42.08 24.4805L46.7709 25.0343L46.8035 25.018L47.6342 24.4642L47.6668 24.4153V21.5161L47.6505 21.4672L47.6016 21.4509V21.5161H47.6179Z" fill="white"/>
<path d="M70.9421 27.8356L69.9322 30.3602L69.1015 30.914L65.9091 30.3602L71.5121 15.7826H75.6493L81.1383 30.3602H77.0989L76.1542 27.8356H70.9421ZM73.597 20.2943H73.5644L72.0008 24.9364H75.1443L73.597 20.2943Z" fill="#646363"/>
<path d="M70.942 27.8357L70.8932 27.8194L69.8996 30.3277L69.1015 30.8489L66.0068 30.3114L71.5773 15.8315H75.6329L81.0731 30.2951H77.1477L76.2193 27.8031L76.1704 27.7705H70.942L70.8932 27.8031L70.942 27.8357V27.9008H76.1216L77.05 30.3929L77.0989 30.4254H81.1382L81.1871 30.3929V30.344L75.7144 15.7663L75.6655 15.7338H71.5284L71.4795 15.7663L65.8765 30.344V30.3929L65.9254 30.4254L69.1178 30.9792L69.1667 30.9629L69.9973 30.4091L70.0136 30.3766L71.0235 27.8519L70.942 27.8357ZM73.597 20.2944V20.2292H73.5644L73.5155 20.2781L71.9519 24.9201V24.969L72.0007 24.9853H75.1443L75.1932 24.969V24.9201L73.6458 20.2781L73.597 20.2292V20.2944L73.5481 20.3107L75.0792 24.8713H72.0822L73.6295 20.3107L73.5807 20.2944V20.3595H73.6132V20.2944L73.5644 20.3107L73.597 20.2944Z" fill="white"/>
<path d="M79.9656 15.7991H84.6239L86.8554 19.5616L89.0705 15.7991H93.7289L89.0705 22.5748L94.4618 30.3767L93.6311 30.9142L89.9012 30.3767L86.8554 25.6207L83.5001 30.3767L82.6694 30.9142L78.9232 30.3767L84.6239 22.5748L79.9656 15.7991Z" fill="#646363"/>
<path d="M79.9656 15.7989V15.8478H84.5914L86.8066 19.594L86.8554 19.6266L86.9043 19.594L89.1031 15.8478H93.6312L89.0217 22.5421V22.6072L94.3967 30.3603L93.6149 30.8652L89.9338 30.3114L86.9043 25.5879L86.8554 25.5554L86.8066 25.5879L83.4675 30.3277L82.6531 30.8652L79.0209 30.3277L84.6728 22.6072V22.5421L80.0145 15.7663L79.9656 15.7989V15.8478V15.7989L79.9168 15.8315L84.5588 22.5747L78.8744 30.344V30.3929L78.9232 30.4254L82.6694 30.9792L82.702 30.9629L83.5327 30.4254L83.549 30.4091L86.8554 25.7182L89.8524 30.4091L89.9013 30.4254L93.6312 30.9792L93.6638 30.9629L94.4944 30.4254L94.527 30.3766L94.5107 30.344L89.1357 22.5747L93.7778 15.8315V15.7663L93.7289 15.7338H89.0706L89.0217 15.7663L86.8554 19.4474L84.6728 15.7663L84.624 15.7338H79.9656L79.9168 15.7663V15.8315L79.9656 15.7989Z" fill="white"/>
<path d="M17.2572 15.8153H13.9019L11.3447 24.3827L8.82013 15.8153H5.46482L1.11596 30.3767L4.17808 30.9305L5.02505 30.3767L7.30535 22.2653L9.56937 30.3767L12.2406 30.9305L13.0876 30.3767L15.3679 22.2653L17.6319 30.3767L20.7103 30.9305L21.541 30.3767L17.2572 15.8153Z" fill="#646363"/>
<path d="M17.2572 15.8154V15.7502H13.9019L13.853 15.7828L11.3447 24.1874L8.86893 15.7828L8.82007 15.7502H5.46477L5.4159 15.7828L1.05075 30.3605L1.06704 30.4093L1.09961 30.4256L4.17802 30.9794L4.2106 30.9631L5.04128 30.4256L5.07386 30.393L7.3053 22.4771L9.52045 30.393L9.55302 30.4256L12.2405 30.9794L12.2894 30.9631L13.1201 30.4256L13.1364 30.393L15.3678 22.4771L17.5829 30.393L17.6318 30.4256L20.6939 30.9794L20.7428 30.9631L21.5735 30.4256L21.5898 30.3605L17.3061 15.7828L17.2572 15.7502V15.8154L17.192 15.8317L21.4758 30.3442L20.6939 30.8654L17.6807 30.3279L15.4167 22.2491L15.3678 22.2165L15.3189 22.2491L13.0386 30.3442L12.2405 30.8654L9.61817 30.3279L7.35416 22.2491L7.3053 22.2165L7.24014 22.2491L4.95984 30.3442L4.17802 30.8654L1.18105 30.3279L5.51363 15.8643H8.77121L11.2958 24.3991L11.3447 24.4317L11.3936 24.3991L13.9507 15.8643H17.2572V15.8154L17.192 15.8317L17.2572 15.8154Z" fill="white"/>
<path d="M63.2053 15.8153H59.8663L57.2928 24.3827L54.7845 15.8153H51.4292L47.064 30.3767L50.1424 30.9305L50.9731 30.3767L53.2534 22.2653L55.5174 30.3767L58.2049 30.9305L59.0356 30.3767L61.3159 22.2653L63.5962 30.3767H67.5053L63.2053 15.8153Z" fill="#646363"/>
<path d="M63.2053 15.8154V15.7502H59.8663L59.8012 15.7828L57.2928 24.1874L54.8334 15.7828L54.7845 15.7502H51.4292L51.3803 15.7828L47.0152 30.3605V30.4093L47.064 30.4256L50.1262 30.9794L50.175 30.9631L51.0057 30.4256L51.022 30.393L53.2534 22.4771L55.4686 30.393L55.5174 30.4256L58.1887 30.9794L58.2375 30.9631L59.0682 30.4256L59.1008 30.393L61.3159 22.4771L63.5311 30.393L63.5962 30.4256H67.5053L67.5379 30.4093L67.5542 30.3605L63.2705 15.7828L63.2053 15.7502V15.8154L63.1565 15.8317L67.4239 30.3116H63.6288L61.3811 22.2491L61.3159 22.2165L61.2671 22.2491L58.9868 30.3442L58.1887 30.8654L55.5663 30.3279L53.3186 22.2491L53.2534 22.2165L53.2046 22.2491L50.9243 30.3442L50.1262 30.8654L47.1455 30.3279L51.478 15.8643H54.7356L57.244 24.3991L57.2928 24.4317L57.3417 24.3991L59.8989 15.8643H63.2053V15.8154L63.1565 15.8317L63.2053 15.8154Z" fill="white"/>
<path d="M24.4565 16.3365H20.6614V30.9142H24.4565V16.3365Z" fill="black"/>
<path d="M24.4564 30.9142V30.8654H20.7102V16.4017H24.3913V30.9142H24.4564V30.8654V30.9142H24.5053V16.3366L24.489 16.304L24.4564 16.2877H20.6614L20.6288 16.304L20.5962 16.3366V30.9142L20.6288 30.9631L20.6614 30.9794H24.4564L24.489 30.9631L24.5053 30.9142H24.4564Z" fill="white"/>
<path d="M24.4564 30.9142V30.8654H20.7102V16.4017H24.3913V30.9142H24.4564ZM24.4564 30.9142V30.8654V30.9142ZM24.4564 30.9142H24.5053V16.3366L24.489 16.304L24.4564 16.2877H20.6614L20.6288 16.304L20.5962 16.3366V30.9142L20.6288 30.9631L20.6614 30.9794H24.4564L24.489 30.9631L24.5053 30.9142H24.4564Z" stroke="white" stroke-width="0.25"/>
<path d="M30.0758 27.7054H34.6201V30.9304H26.2807V16.3528H30.0758V27.7054Z" fill="black"/>
<path d="M30.0758 27.7055V27.7707H34.555V30.8654H26.3296V16.4017H30.0107V27.7055L30.027 27.7544L30.0758 27.7707V27.7055H30.1247V16.3529L30.1084 16.304L30.0758 16.2877H26.2808L26.2482 16.304L26.2319 16.3529V30.9305L26.2482 30.9631L26.2808 30.9794H34.6202L34.6527 30.9631L34.669 30.9305V27.7055L34.6527 27.6729L34.6202 27.6567H30.0758V27.7055H30.1247H30.0758Z" fill="white"/>
<path d="M30.0758 27.7055V27.7707H34.555V30.8654H26.3296V16.4017H30.0107V27.7055L30.027 27.7544L30.0758 27.7707V27.7055ZM30.0758 27.7055H30.1247V16.3529L30.1084 16.304L30.0758 16.2877H26.2808L26.2482 16.304L26.2319 16.3529V30.9305L26.2482 30.9631L26.2808 30.9794H34.6202L34.6527 30.9631L34.669 30.9305V27.7055L34.6527 27.6729L34.6202 27.6567H30.0758V27.7055ZM30.0758 27.7055H30.1247H30.0758Z" stroke="white" stroke-width="0.25"/>
<path d="M39.2296 27.7054H43.7739V30.9304H35.4508V16.3528H39.2296V27.7054Z" fill="black"/>
<path d="M39.2297 27.7055V27.7707H43.7251V30.8654H35.4997V16.4017H39.1808V27.7055L39.1971 27.7544L39.2297 27.7707V27.7055H39.2948V16.3529L39.2785 16.304L39.2297 16.2877H35.4509L35.402 16.304L35.3857 16.3529V30.9305L35.402 30.9631L35.4509 30.9794H43.774L43.8228 30.9631L43.8391 30.9305V27.7055L43.8228 27.6729L43.774 27.6567H39.2297V27.7055H39.2948H39.2297Z" fill="white"/>
<path d="M39.2297 27.7055V27.7707H43.7251V30.8654H35.4997V16.4017H39.1808V27.7055L39.1971 27.7544L39.2297 27.7707V27.7055ZM39.2297 27.7055H39.2948V16.3529L39.2785 16.304L39.2297 16.2877H35.4509L35.402 16.304L35.3857 16.3529V30.9305L35.402 30.9631L35.4509 30.9794H43.774L43.8228 30.9631L43.8391 30.9305V27.7055L43.8228 27.6729L43.774 27.6567H39.2297V27.7055ZM39.2297 27.7055H39.2948H39.2297Z" stroke="white" stroke-width="0.25"/>
<path d="M46.771 22.0535H41.2494V24.9527H46.771V22.0535Z" fill="black"/>
<path d="M46.7871 22.0535H46.722V24.9039H41.3144V22.1187H46.7871V22.0535H46.722H46.7871V22.0046H41.2492L41.2167 22.0209L41.2004 22.0535V24.9527L41.2167 25.0016L41.2492 25.0179H46.7871L46.8197 25.0016L46.836 24.9527V22.0535L46.8197 22.0209L46.7871 22.0046V22.0535Z" fill="white"/>
<path d="M46.7871 22.0535H46.722V24.9039H41.3144V22.1187H46.7871V22.0535ZM46.7871 22.0535H46.722H46.7871ZM46.7871 22.0535V22.0046H41.2492L41.2167 22.0209L41.2004 22.0535V24.9527L41.2167 25.0016L41.2492 25.0179H46.7871L46.8197 25.0016L46.836 24.9527V22.0535L46.8197 22.0209L46.7871 22.0046V22.0535Z" stroke="white" stroke-width="0.25"/>
<path d="M70.1114 28.3895L69.1016 30.9304H65.0785L70.6815 16.3528H74.8186L80.3077 30.9304H76.2683L75.3236 28.3895H70.1114ZM72.7501 20.8482H72.7175L71.1539 25.4903H74.3137L72.7501 20.8482Z" fill="black"/>
<path d="M70.1115 28.3894L70.0626 28.3731L69.0691 30.8652H65.16L70.7304 16.4016H74.7861L80.2263 30.8652H76.3009L75.3725 28.3731L75.3236 28.3406H70.1115L70.0626 28.3731L70.1115 28.3894V28.4546H75.291L76.2194 30.9466L76.2683 30.9792H80.3077L80.3566 30.9629V30.9141L74.8675 16.3364L74.8187 16.3038H70.6816L70.6327 16.3364L65.0297 30.9141V30.9629L65.0785 30.9792H69.1016L69.1505 30.9466L70.1603 28.4057L70.1115 28.3894ZM72.7501 20.8482V20.783H72.7175L72.6687 20.8319L71.105 25.4739V25.5228L71.1539 25.5391H74.3138L74.3626 25.5228V25.4739L72.8153 20.8319L72.7664 20.783V20.8482L72.7175 20.8644L74.2486 25.425H71.2516L72.799 20.8644L72.7501 20.8482V20.9133H72.7827V20.8482L72.7338 20.8644L72.7501 20.8482Z" fill="white"/>
<path d="M79.1348 16.3365H83.7932L86.0083 20.1153L88.2398 16.3365H92.8981L88.2398 23.1286L93.631 30.9305H89.0704L86.0083 26.1744L82.6693 30.9305H78.0924L83.7932 23.1286L79.1348 16.3365Z" fill="black"/>
<path d="M79.1349 16.3366V16.4017H83.7606L85.9758 20.1479L86.0084 20.1642L86.0735 20.1479L88.2724 16.4017H92.8004L88.1909 23.0961V23.1612L93.5171 30.8654H89.1031L86.0735 26.1419L86.0246 26.1093L85.9758 26.1256L82.6368 30.8654H78.2065L83.8421 23.1612V23.0961L79.1837 16.3203L79.1349 16.3366V16.4017V16.3366L79.086 16.3692L83.7281 23.1286L78.0436 30.8817V30.9468L78.0924 30.9794H82.6693L82.7182 30.9468L86.0084 26.2722L89.0216 30.9468L89.0705 30.9794H93.6311L93.6799 30.9468V30.8817L88.3049 23.1286L92.947 16.3692V16.3203L92.8981 16.2877H88.2398L88.1909 16.3203L86.0084 20.0014L83.8421 16.3203L83.7932 16.2877H79.1349L79.086 16.3203V16.3692L79.1349 16.3366Z" fill="white"/>
<path d="M16.4266 16.3528H13.0713L10.5141 24.9365L7.98951 16.3528H4.63421L0.285347 30.9141H4.17815L6.47474 22.8191L8.73876 30.9141H12.2569L14.5372 22.8191L16.8013 30.9141H20.7103L16.4266 16.3528Z" fill="black"/>
<path d="M16.4266 16.3527V16.3038H13.0713L13.0224 16.3364L10.5141 24.7247L8.03831 16.3364L7.98945 16.3038H4.63415L4.58528 16.3364L0.220131 30.8978L0.236417 30.9629L0.285281 30.9792H4.17808L4.24324 30.9303L6.45839 23.0307L8.67354 30.9303L8.73869 30.9792H12.2569L12.3057 30.9303L14.5372 23.0307L16.7523 30.9303L16.8012 30.9792H20.7103L20.7591 30.9629V30.9141L16.4754 16.3364L16.4266 16.3038V16.3527L16.3614 16.369L20.6288 30.8652H16.8501L14.586 22.8027L14.5372 22.7538L14.472 22.8027L12.208 30.8652H8.77127L6.52354 22.8027L6.47468 22.7538L6.40952 22.8027L4.14551 30.8652H0.350434L4.68301 16.4178H7.94058L10.4489 24.9364L10.5141 24.9853L10.5629 24.9527L13.1201 16.4178H16.4266V16.3527L16.3614 16.369L16.4266 16.3527Z" fill="white"/>
<path d="M16.4266 16.3527V16.3038H13.0713L13.0224 16.3364L10.5141 24.7247L8.03831 16.3364L7.98945 16.3038H4.63415L4.58528 16.3364L0.220131 30.8978L0.236417 30.9629L0.285281 30.9792H4.17808L4.24324 30.9303L6.45839 23.0307L8.67354 30.9303L8.73869 30.9792H12.2569L12.3057 30.9303L14.5372 23.0307L16.7523 30.9303L16.8012 30.9792H20.7103L20.7591 30.9629V30.9141L16.4754 16.3364L16.4266 16.3038V16.3527ZM16.4266 16.3527L16.3614 16.369L20.6288 30.8652H16.8501L14.586 22.8027L14.5372 22.7538L14.472 22.8027L12.208 30.8652H8.77127L6.52354 22.8027L6.47468 22.7538L6.40952 22.8027L4.14551 30.8652H0.350434L4.68301 16.4178H7.94058L10.4489 24.9364L10.5141 24.9853L10.5629 24.9527L13.1201 16.4178H16.4266V16.3527ZM16.4266 16.3527L16.3614 16.369L16.4266 16.3527Z" stroke="white" stroke-width="0.25"/>
<path d="M62.3747 16.3528H59.0357L56.4622 24.9365L53.9376 16.3528H50.5985L46.2334 30.9141H50.1425L52.4228 22.8191L54.6868 30.9141H58.205L60.4853 22.8191L62.7656 30.9141H66.6584L62.3747 16.3528Z" fill="black"/>
<path d="M62.3747 16.3527V16.3038H59.0357L58.9705 16.3364L56.4622 24.7247L54.0027 16.3364L53.9376 16.3038H50.5986L50.5334 16.3364L46.1846 30.8978V30.9629L46.2334 30.9792H50.1425L50.1914 30.9303L52.4228 23.0307L54.638 30.9303L54.6868 30.9792H58.205L58.2702 30.9303L60.4853 23.0307L62.7005 30.9303L62.7656 30.9792H66.6584L66.7073 30.9629L66.7236 30.9141L62.4236 16.3364L62.3747 16.3038V16.3527L62.3258 16.369L66.5933 30.8652H62.7982L60.5505 22.8027L60.4853 22.7538L60.4364 22.8027L58.1561 30.8652H54.7357L52.4717 22.8027L52.4228 22.7538L52.3739 22.8027L50.0936 30.8652H46.3149L50.6311 16.4178H53.905L56.4133 24.9364L56.4622 24.9853L56.5111 24.9527L59.0683 16.4178H62.3747V16.3527L62.3258 16.369L62.3747 16.3527Z" fill="white"/>
<path d="M4.63409 16.3529L5.46477 15.7991H8.82007L7.98939 16.3529H4.63409Z" fill="#878787"/>
<path d="M4.63411 16.3529L4.66669 16.4018L5.48108 15.8643H8.62465L7.97313 16.304H4.63411V16.3529L4.66669 16.4018L4.63411 16.3529V16.418H7.98942L8.02199 16.4018L8.85268 15.848L8.86896 15.7991L8.8201 15.7502H5.4648L5.44851 15.7665L4.60154 16.304L4.58525 16.3692L4.63411 16.418V16.3529Z" fill="white"/>
<path d="M13.0713 16.3529L13.902 15.7991H17.2573L16.4266 16.3529H13.0713Z" fill="#878787"/>
<path d="M13.0712 16.3529L13.1038 16.4018L13.9182 15.8643H17.0617L16.4102 16.304H13.0712V16.3529L13.1038 16.4018L13.0712 16.3529V16.418H16.4265L16.4428 16.4018L17.2898 15.848L17.3061 15.7991L17.2572 15.7502H13.9019L13.8693 15.7665L13.0386 16.304L13.0223 16.3692L13.0712 16.418V16.3529Z" fill="white"/>
<path d="M20.6614 16.3366L21.4921 15.7991H25.2872L24.4565 16.3366H20.6614Z" fill="#878787"/>
<path d="M20.6615 16.3364L20.694 16.3853L21.5084 15.8478H25.0918L24.4402 16.2876H20.6615V16.3364L20.694 16.3853L20.6615 16.3364V16.4016H24.4565L24.4728 16.3853L25.3198 15.8478L25.3361 15.7826L25.2872 15.7338H21.4921L21.4596 15.7501L20.6289 16.3038L20.6126 16.369L20.6615 16.4016V16.3364Z" fill="white"/>
<path d="M26.2807 16.3366L27.1114 15.7991H30.9065L30.0595 16.3366H26.2807Z" fill="#878787"/>
<path d="M26.2808 16.3364L26.3133 16.3853L27.1277 15.8478H30.7111L30.0433 16.2876H26.2808V16.3364L26.3133 16.3853L26.2808 16.3364V16.4016H30.0596L30.1084 16.3853L30.9391 15.8478L30.9554 15.7826L30.9065 15.7338H27.1114L27.0789 15.7501L26.2482 16.3038L26.2319 16.369L26.2808 16.4016V16.3364Z" fill="white"/>
<path d="M35.4508 16.3366L36.2815 15.7991H40.0765L39.2296 16.3366H35.4508Z" fill="#878787"/>
<path d="M35.4509 16.3364L35.4835 16.3853L36.2978 15.8478H39.8812L39.2134 16.2876H35.4509V16.3364L35.4835 16.3853L35.4509 16.3364V16.4016H39.2297L39.2622 16.3853L40.1092 15.8478L40.1255 15.7826L40.0766 15.7338H36.2816L36.249 15.7501L35.4183 16.3038L35.3857 16.369L35.4509 16.4016V16.3364Z" fill="white"/>
<path d="M41.2494 22.0535L42.08 21.516H47.6179L46.7872 22.0535H41.2494Z" fill="#878787"/>
<path d="M41.2492 22.0536L41.2818 22.1024L42.0962 21.5649H47.4223L46.7708 22.0047H41.2492V22.0536L41.2818 22.1024L41.2492 22.0536V22.1187H46.7871L46.8197 22.1024L47.6504 21.5649L47.6667 21.4998L47.6178 21.4509H42.0799L42.0473 21.4672L41.2167 22.0047L41.2004 22.0699L41.2492 22.1187V22.0536Z" fill="white"/>
<path d="M50.5985 16.3529L51.4292 15.7991H54.7845L53.9375 16.3529H50.5985Z" fill="#878787"/>
<path d="M50.5986 16.3529L50.6312 16.4018L51.4456 15.8643H54.5891L53.9213 16.304H50.5986V16.3529L50.6312 16.4018L50.5986 16.3529V16.418H53.9376L53.9702 16.4018L54.8009 15.848L54.8335 15.7991L54.7846 15.7502H51.4293L51.3967 15.7665L50.566 16.304L50.5335 16.3692L50.5986 16.418V16.3529Z" fill="white"/>
<path d="M59.0356 16.3529L59.8663 15.7991H63.2053L62.3746 16.3529H59.0356Z" fill="#878787"/>
<path d="M59.0357 16.3529L59.0683 16.4018L59.8827 15.8643H63.0262L62.3584 16.304H59.0357V16.3529L59.0683 16.4018L59.0357 16.3529V16.418H62.3747L62.4073 16.4018L63.238 15.848L63.2705 15.7991L63.2054 15.7502H59.8664L59.8338 15.7665L59.0031 16.304L58.9705 16.3692L59.0357 16.418V16.3529Z" fill="white"/>
<path d="M70.6978 16.3366L71.5285 15.7991H75.6656L74.8349 16.3366H70.6978Z" fill="#878787"/>
<path d="M70.6977 16.3364L70.714 16.3853L71.5447 15.8478H75.4701L74.8023 16.2876H70.6977V16.3364L70.714 16.3853L70.6977 16.3364V16.4016H74.8349L74.8512 16.3853L75.6981 15.8478L75.7144 15.7826L75.6656 15.7338H71.5284L71.4959 15.7501L70.6652 16.3038L70.6326 16.369L70.6977 16.4016V16.3364Z" fill="white"/>
<path d="M79.1349 16.3366L79.9656 15.7991H84.6239L83.7932 16.3366H79.1349Z" fill="#878787"/>
<path d="M79.1349 16.3364L79.1675 16.3853L79.9819 15.8478H84.4448L83.777 16.2876H79.1349V16.3364L79.1675 16.3853L79.1349 16.3364V16.4016H83.7933L83.8258 16.3853L84.6565 15.8478L84.6891 15.7826L84.6239 15.7338H79.9656L79.933 15.7501L79.1024 16.3038L79.0861 16.369L79.1349 16.4016V16.3364Z" fill="white"/>
<path d="M88.2399 16.3366L89.0706 15.7991H93.7289L92.8982 16.3366H88.2399Z" fill="#878787"/>
<path d="M88.2398 16.3364L88.2723 16.3853L89.0867 15.8478H93.5496L92.8818 16.2876H88.2398V16.3364L88.2723 16.3853L88.2398 16.3364V16.4016H92.8981L92.9307 16.3853L93.7614 15.8478L93.7939 15.7826L93.7288 15.7338H89.0704L89.0379 15.7501L88.2072 16.3038L88.1909 16.369L88.2398 16.4016V16.3364Z" fill="white"/>
<path d="M88.2398 23.1286L92.8982 16.3365H88.2398L86.0247 20.099L83.8095 16.3365H79.1512L83.8095 23.1286L79.5095 28.9922L74.8349 16.3365H70.6978L65.9743 28.585L62.3747 16.3528H59.0194L56.4622 24.9203L53.9376 16.3528H50.5822L46.2334 30.9142H50.1425L52.4228 22.8028L54.6868 30.9142H58.205L60.4853 22.8028L62.7493 30.9142H69.1016L70.1114 28.3896H75.3398L76.2845 30.9142H82.6857L86.0247 26.1581L89.0868 30.9142H93.6474L88.2398 23.1286ZM71.1538 25.4903L72.7175 20.8483L74.2974 25.4903H71.1538Z" fill="black"/>
<path d="M88.2399 23.1286L88.2887 23.1612L92.9471 16.3854V16.3203L92.8982 16.2877H88.2399L88.191 16.3203L86.0247 20.0014L83.8584 16.3203L83.8096 16.2877H79.1512L79.1024 16.3203V16.3854L83.7444 23.1286L79.5421 28.8783L74.9001 16.3203L74.8512 16.2877H70.6978L70.649 16.3203L65.9906 28.4059L62.4399 16.3366L62.391 16.2877H59.0357L58.9868 16.3366L56.4622 24.7248L54.0027 16.3366L53.9539 16.2877H50.5986L50.5497 16.3366L46.1846 30.8979V30.9468L46.2334 30.9631H50.1425L50.2077 30.9142L52.4391 22.9983L54.6543 30.9142L54.7031 30.9631H58.2213L58.2702 30.9142L60.5016 22.9983L62.7168 30.9142L62.7656 30.9631H69.1179L69.1668 30.9305L70.1603 28.4385H75.3073L76.2357 30.9305L76.2846 30.9631H82.6857L82.7346 30.9468L86.0247 26.2559L89.038 30.9468L89.0868 30.9794H93.6474L93.6963 30.9468V30.8817L88.2887 23.0961L88.2399 23.1286L88.191 23.1612L93.5171 30.8654H89.1031L86.0573 26.1256L86.0084 26.093L85.9596 26.1093L82.6368 30.8491H76.3171L75.3887 28.357L75.3399 28.3245H70.1114L70.0626 28.357L69.069 30.8491H62.8145L60.5505 22.7866L60.5016 22.7377L60.4527 22.7866L58.1724 30.8491H54.7357L52.488 22.7866L52.4391 22.7377L52.3902 22.7866L50.1099 30.8491H46.3311L50.6637 16.4017H53.9213L56.4296 24.9366L56.4785 24.9854L56.5274 24.9366L59.0846 16.4017H62.3421L65.9255 28.6014L65.9743 28.6339L66.0232 28.6014L70.7141 16.3854H74.7698L79.4281 29.0086L79.477 29.0411L79.5258 29.0248L83.8258 23.1612V23.0961L79.2164 16.4017H83.7444L85.9596 20.1479L86.0084 20.1805L86.0573 20.1479L88.2724 16.4017H92.7842L88.191 23.0961V23.1612L88.2399 23.1286ZM71.1539 25.4904L71.2027 25.5067L72.7175 21.0275L74.216 25.4252H71.1376V25.4904L71.1864 25.5067L71.1539 25.4904V25.5555H74.2974L74.3463 25.5392V25.4904L72.7664 20.8483L72.7175 20.8158L72.6686 20.8483L71.105 25.4904V25.5392L71.1539 25.5555V25.4904Z" fill="white"/>
<path d="M88.2399 23.1286L88.2887 23.1612L92.9471 16.3854V16.3203L92.8982 16.2877H88.2399L88.191 16.3203L86.0247 20.0014L83.8584 16.3203L83.8096 16.2877H79.1512L79.1024 16.3203V16.3854L83.7444 23.1286L79.5421 28.8783L74.9001 16.3203L74.8512 16.2877H70.6978L70.649 16.3203L65.9906 28.4059L62.4399 16.3366L62.391 16.2877H59.0357L58.9868 16.3366L56.4622 24.7248L54.0027 16.3366L53.9539 16.2877H50.5986L50.5497 16.3366L46.1846 30.8979V30.9468L46.2334 30.9631H50.1425L50.2077 30.9142L52.4391 22.9983L54.6543 30.9142L54.7031 30.9631H58.2213L58.2702 30.9142L60.5016 22.9983L62.7168 30.9142L62.7656 30.9631H69.1179L69.1668 30.9305L70.1603 28.4385H75.3073L76.2357 30.9305L76.2846 30.9631H82.6857L82.7346 30.9468L86.0247 26.2559L89.038 30.9468L89.0868 30.9794H93.6474L93.6963 30.9468V30.8817L88.2887 23.0961L88.2399 23.1286ZM88.2399 23.1286L88.191 23.1612M88.191 23.1612L93.5171 30.8654H89.1031L86.0573 26.1256L86.0084 26.093L85.9596 26.1093L82.6368 30.8491H76.3171L75.3887 28.357L75.3399 28.3245H70.1114L70.0626 28.357L69.069 30.8491H62.8145L60.5505 22.7866L60.5016 22.7377L60.4527 22.7866L58.1724 30.8491H54.7357L52.488 22.7866L52.4391 22.7377L52.3902 22.7866L50.1099 30.8491H46.3311L50.6637 16.4017H53.9213L56.4296 24.9366L56.4785 24.9854L56.5274 24.9366L59.0846 16.4017H62.3421L65.9255 28.6014L65.9743 28.6339L66.0232 28.6014L70.7141 16.3854H74.7698L79.4281 29.0086L79.477 29.0411L79.5258 29.0248L83.8258 23.1612V23.0961L79.2164 16.4017H83.7444L85.9596 20.1479L86.0084 20.1805L86.0573 20.1479L88.2724 16.4017H92.7842L88.191 23.0961V23.1612ZM71.1539 25.4904L71.2027 25.5067L72.7175 21.0275L74.216 25.4252H71.1376V25.4904L71.1864 25.5067L71.1539 25.4904ZM71.1539 25.4904V25.5555M71.1539 25.5555H74.2974L74.3463 25.5392V25.4904L72.7664 20.8483L72.7175 20.8158L72.6686 20.8483L71.105 25.4904V25.5392L71.1539 25.5555Z" stroke="white" stroke-width="0.25"/>
<path d="M97.3773 18.9914C96.9864 19.3823 96.514 19.5778 95.9765 19.5778C95.4227 19.5778 94.9504 19.3823 94.5758 18.9914C94.1849 18.6005 94.0057 18.1281 94.0057 17.5906C94.0057 17.0368 94.2012 16.5808 94.5921 16.1899C94.983 15.799 95.439 15.6035 95.9928 15.6035C96.5466 15.6035 97.0027 15.799 97.3936 16.1899C97.7845 16.5808 97.9799 17.0368 97.9799 17.5906C97.9474 18.1281 97.7519 18.6168 97.3773 18.9914ZM94.7549 16.3853C94.4292 16.7111 94.25 17.1183 94.25 17.5906C94.25 18.063 94.4129 18.4702 94.7549 18.8122C95.0807 19.1543 95.4879 19.3171 95.9602 19.3171C96.4326 19.3171 96.8398 19.1543 97.1655 18.8122C97.4913 18.4865 97.6705 18.063 97.6705 17.5906C97.6705 17.1183 97.5076 16.7111 97.1655 16.3853C96.8398 16.0433 96.4326 15.8804 95.9602 15.8804C95.4879 15.8804 95.097 16.0433 94.7549 16.3853ZM95.9277 16.4831C96.1883 16.4831 96.4 16.5156 96.5303 16.5645C96.7584 16.6622 96.8724 16.8414 96.8724 17.1183C96.8724 17.3137 96.8072 17.4603 96.6606 17.5418C96.5792 17.5906 96.4815 17.6232 96.3512 17.6558C96.514 17.6884 96.6443 17.7535 96.7258 17.8675C96.8072 17.9815 96.8398 18.0956 96.8398 18.2096V18.3725C96.8398 18.4213 96.8398 18.4702 96.8398 18.5353C96.8398 18.6005 96.8561 18.6331 96.8561 18.6494L96.8724 18.6819H96.514V18.6656V18.6494L96.4977 18.5842V18.405C96.4977 18.1444 96.4326 17.9815 96.286 17.9001C96.2046 17.8512 96.058 17.835 95.8625 17.835H95.553V18.6982H95.1621V16.5156H95.9277V16.4831ZM96.3349 16.8251C96.2371 16.7762 96.0905 16.7437 95.8625 16.7437H95.5368V17.5418H95.8788C96.0417 17.5418 96.172 17.5255 96.2534 17.4929C96.4 17.4278 96.4815 17.3137 96.4815 17.1509C96.4815 16.988 96.4326 16.8903 96.3349 16.8251Z" fill="black"/>
<defs>
<linearGradient id="paint0_linear_2216_4643" x1="64.9197" y1="39.5622" x2="64.9197" y2="1.94506" gradientUnits="userSpaceOnUse">
<stop stop-color="#CFA828"/>
<stop offset="0.3517" stop-color="#EEE3BE"/>
<stop offset="0.5165" stop-color="#FBFDFF"/>
<stop offset="0.7253" stop-color="#E1D8C2"/>
<stop offset="0.7472" stop-color="#DBD0B2"/>
<stop offset="1" stop-color="#9C7300"/>
</linearGradient>
<linearGradient id="paint1_linear_2216_4643" x1="50.2685" y1="0.997232" x2="59.951" y2="0.997232" gradientUnits="userSpaceOnUse">
<stop stop-color="#9C7300"/>
<stop offset="0.1978" stop-color="#9C7300"/>
<stop offset="0.7248" stop-color="#CDBF97"/>
<stop offset="1" stop-color="#E7E7E7"/>
</linearGradient>
<linearGradient id="paint2_linear_2216_4643" x1="71.8105" y1="0.997357" x2="81.4966" y2="0.997357" gradientUnits="userSpaceOnUse">
<stop stop-color="#9C7300"/>
<stop offset="0.1978" stop-color="#9C7300"/>
<stop offset="0.7248" stop-color="#CDBF97"/>
<stop offset="1" stop-color="#E7E7E7"/>
</linearGradient>
<linearGradient id="paint3_linear_2216_4643" x1="62.1734" y1="24.0544" x2="62.1734" y2="0.0592208" gradientUnits="userSpaceOnUse">
<stop stop-color="#CCC694"/>
<stop offset="0.1978" stop-color="#CCC694"/>
<stop offset="0.2342" stop-color="#C8BF89"/>
<stop offset="0.6978" stop-color="#9A6700"/>
<stop offset="0.8471" stop-color="#BFA570"/>
<stop offset="1" stop-color="#E7E7E7"/>
</linearGradient>
<linearGradient id="paint4_linear_2216_4643" x1="51.1332" y1="39.5612" x2="51.1332" y2="16.6853" gradientUnits="userSpaceOnUse">
<stop stop-color="#CCC694"/>
<stop offset="0.1978" stop-color="#CCC694"/>
<stop offset="0.2197" stop-color="#C5BE8D"/>
<stop offset="0.4519" stop-color="#7A6E41"/>
<stop offset="0.6168" stop-color="#4C3C12"/>
<stop offset="0.6978" stop-color="#3A2900"/>
<stop offset="0.7328" stop-color="#483913"/>
<stop offset="0.804" stop-color="#6E6245"/>
<stop offset="0.9039" stop-color="#A9A395"/>
<stop offset="1" stop-color="#E7E7E7"/>
</linearGradient>
<linearGradient id="paint5_linear_2216_4643" x1="86.3526" y1="39.5631" x2="86.3526" y2="0.060958" gradientUnits="userSpaceOnUse">
<stop stop-color="#CCC694"/>
<stop offset="0.1978" stop-color="#CCC694"/>
<stop offset="0.2342" stop-color="#C8BF89"/>
<stop offset="0.6978" stop-color="#9A6700"/>
<stop offset="0.8471" stop-color="#BFA570"/>
<stop offset="1" stop-color="#E7E7E7"/>
</linearGradient>
<linearGradient id="paint6_linear_2216_4643" x1="72.6776" y1="39.5611" x2="72.6776" y2="16.6852" gradientUnits="userSpaceOnUse">
<stop stop-color="#CCC694"/>
<stop offset="0.1978" stop-color="#CCC694"/>
<stop offset="0.2197" stop-color="#C5BE8D"/>
<stop offset="0.4519" stop-color="#7A6E41"/>
<stop offset="0.6168" stop-color="#4C3C12"/>
<stop offset="0.6978" stop-color="#3A2900"/>
<stop offset="0.7328" stop-color="#483913"/>
<stop offset="0.804" stop-color="#6E6245"/>
<stop offset="0.9039" stop-color="#A9A395"/>
<stop offset="1" stop-color="#E7E7E7"/>
</linearGradient>
<linearGradient id="paint7_linear_2216_4643" x1="31.2882" y1="42.9464" x2="31.2882" y2="1.94398" gradientUnits="userSpaceOnUse">
<stop stop-color="#D1C99C"/>
<stop offset="0.0644885" stop-color="#D8D3B1"/>
<stop offset="0.1921" stop-color="#E5E4D5"/>
<stop offset="0.296" stop-color="#ECEEEB"/>
<stop offset="0.3626" stop-color="#EFF2F3"/>
<stop offset="0.6209" stop-color="#E9EAEB"/>
<stop offset="0.6639" stop-color="#DEDFE0"/>
<stop offset="0.7397" stop-color="#C1C2C3"/>
<stop offset="0.8392" stop-color="#939393"/>
<stop offset="0.9574" stop-color="#535251"/>
<stop offset="1" stop-color="#3A3938"/>
</linearGradient>
<linearGradient id="paint8_linear_2216_4643" x1="15.3492" y1="0.999473" x2="25.8822" y2="0.999473" gradientUnits="userSpaceOnUse">
<stop stop-color="#4B5256"/>
<stop offset="0.1978" stop-color="#4B5256"/>
<stop offset="0.7352" stop-color="#B7B9BA"/>
<stop offset="1" stop-color="#E7E7E7"/>
</linearGradient>
<linearGradient id="paint9_linear_2216_4643" x1="38.7802" y1="1.00224" x2="49.3098" y2="1.00224" gradientUnits="userSpaceOnUse">
<stop stop-color="#4B5256"/>
<stop offset="0.1978" stop-color="#4B5256"/>
<stop offset="0.7352" stop-color="#B7B9BA"/>
<stop offset="1" stop-color="#E7E7E7"/>
</linearGradient>
<linearGradient id="paint10_linear_2216_4643" x1="28.2882" y1="26.0762" x2="28.2882" y2="0.0600838" gradientUnits="userSpaceOnUse">
<stop stop-color="#CCCCCC"/>
<stop offset="0.1978" stop-color="#CCCCCC"/>
<stop offset="0.4597" stop-color="#8A8E90"/>
<stop offset="0.6978" stop-color="#4B5256"/>
<stop offset="0.9002" stop-color="#B7B9BA"/>
<stop offset="1" stop-color="#E7E7E7"/>
</linearGradient>
<linearGradient id="paint11_linear_2216_4643" x1="16.2912" y1="42.947" x2="16.2912" y2="18.0674" gradientUnits="userSpaceOnUse">
<stop stop-color="#CCCCCC"/>
<stop offset="0.1978" stop-color="#CCCCCC"/>
<stop offset="0.3036" stop-color="#B3B3B2"/>
<stop offset="0.5275" stop-color="#727271"/>
<stop offset="0.6978" stop-color="#3D3D3C"/>
<stop offset="0.7234" stop-color="#4D4D4C"/>
<stop offset="0.8581" stop-color="#A0A09F"/>
<stop offset="0.9535" stop-color="#D3D3D3"/>
<stop offset="1" stop-color="#E7E7E7"/>
</linearGradient>
<linearGradient id="paint12_linear_2216_4643" x1="54.5975" y1="42.9472" x2="54.5975" y2="0.0599857" gradientUnits="userSpaceOnUse">
<stop stop-color="#CCCCCC"/>
<stop offset="0.1978" stop-color="#CCCCCC"/>
<stop offset="0.4597" stop-color="#8A8E90"/>
<stop offset="0.6978" stop-color="#4B5256"/>
<stop offset="0.9002" stop-color="#B7B9BA"/>
<stop offset="1" stop-color="#E7E7E7"/>
</linearGradient>
<linearGradient id="paint13_linear_2216_4643" x1="39.7177" y1="42.947" x2="39.7177" y2="18.0674" gradientUnits="userSpaceOnUse">
<stop stop-color="#CCCCCC"/>
<stop offset="0.1978" stop-color="#CCCCCC"/>
<stop offset="0.3036" stop-color="#B3B3B2"/>
<stop offset="0.5275" stop-color="#727271"/>
<stop offset="0.6978" stop-color="#3D3D3C"/>
<stop offset="0.7234" stop-color="#4D4D4C"/>
<stop offset="0.8581" stop-color="#A0A09F"/>
<stop offset="0.9535" stop-color="#D3D3D3"/>
<stop offset="1" stop-color="#E7E7E7"/>
</linearGradient>
</defs>
</svg>
