<svg width="145" height="44" viewBox="0 0 145 44" fill="none" xmlns="http://www.w3.org/2000/svg">
<g clip-path="url(#clip0_158_2)">
<path d="M71.1175 42.3896L71.0694 10.0107H63.5318L52.4069 25.0155L41.0488 10.0107H33.5112V42.3896H41.9299V25.6893L50.2078 35.4962H54.2802L62.6174 25.2117L62.6988 42.3896H71.1175Z" fill="white"/>
<path d="M74.5273 42.3896V10.0107H83.6864V42.3933H74.5273V42.3896Z" fill="white"/>
<path d="M114.525 15.5825C113.37 13.7795 111.711 12.3986 109.553 11.4435C107.395 10.4883 104.837 10.0107 101.875 10.0107H87.1182V42.3933H96.2772V33.9265H101.875C104.837 33.9265 107.395 33.4415 109.553 32.4679C111.711 31.4979 113.37 30.1244 114.525 28.3511C115.68 26.5778 116.258 24.4417 116.258 21.9427C116.258 19.4438 115.68 17.3854 114.525 15.5825ZM105.621 25.4338C104.666 26.252 103.23 26.6592 101.32 26.6592H96.2772V17.2225H101.32C103.23 17.2225 104.666 17.6482 105.621 18.496C106.577 19.3438 107.054 20.4915 107.054 21.9427C107.054 23.394 106.577 24.6194 105.621 25.4338Z" fill="white"/>
<path d="M130.433 43.0371C127.749 43.0371 125.184 42.7039 122.733 42.0412C120.282 41.3785 118.298 40.5382 116.787 39.5201L119.793 32.7193C121.241 33.6448 122.914 34.4074 124.813 35.0109C126.709 35.6106 128.597 35.9142 130.481 35.9142C131.777 35.9142 132.803 35.8068 133.558 35.5921C134.313 35.3774 134.868 35.0664 135.224 34.6666C135.579 34.2668 135.757 33.7892 135.757 33.2339C135.757 32.5268 135.416 31.9603 134.739 31.5457C134.061 31.131 133.173 30.7756 132.081 30.4832C130.985 30.1907 129.8 29.913 128.519 29.6502C127.238 29.3873 125.935 29.043 124.61 28.6099C123.284 28.1767 122.081 27.6103 121 26.8995C119.919 26.1924 119.049 25.2669 118.386 24.1229C117.724 22.9827 117.391 21.5499 117.391 19.821C117.391 17.9107 117.916 16.167 118.964 14.5936C120.012 13.0202 121.6 11.7578 123.729 10.7989C125.857 9.84379 128.508 9.36621 131.684 9.36621C133.813 9.36621 135.901 9.60685 137.952 10.0844C140.003 10.562 141.814 11.2802 143.387 12.2354L140.61 18.9881C139.07 18.1255 137.541 17.4924 136.031 17.0926C134.52 16.6927 133.054 16.4928 131.636 16.4928C130.37 16.4928 129.356 16.6298 128.586 16.9075C127.816 17.1851 127.26 17.5405 126.92 17.97C126.579 18.4031 126.413 18.8659 126.413 19.3583C126.413 20.0987 126.75 20.6762 127.431 21.0946C128.108 21.5092 128.989 21.8498 130.067 22.1127C131.144 22.3755 132.34 22.6458 133.65 22.9234C134.961 23.2011 136.264 23.5491 137.56 23.9637C138.856 24.3784 140.051 24.9337 141.143 25.6297C142.239 26.322 143.124 27.2327 143.805 28.3581C144.483 29.4836 144.823 30.8941 144.823 32.5897C144.823 34.4704 144.29 36.2067 143.228 37.7949C142.165 39.3831 140.57 40.6566 138.441 41.6118C136.312 42.5669 133.647 43.0445 130.437 43.0445L130.433 43.0371Z" fill="white"/>
<path d="M39.4939 7.91109H33.5112V0.0107422L39.4939 7.91109Z" fill="#E60A95"/>
<path d="M31.6601 21.539L20.8906 10.7695L31.6601 0V21.539Z" fill="white"/>
<path d="M13.5383 40.3162L20.8908 32.9638L13.5383 25.6113V40.3162Z" fill="white"/>
<path d="M1.41361 8.23971L0 9.65332L22.0655 31.7188L23.4791 30.3052L1.41361 8.23971Z" fill="#E60A95"/>
<path d="M3.82743 5.82564L2.41382 7.23926L24.4793 29.3047L25.8929 27.8911L3.82743 5.82564Z" fill="#E60A95"/>
<path d="M6.24125 3.4067L4.82764 4.82031L26.8931 26.8858L28.3067 25.4722L6.24125 3.4067Z" fill="#E60A95"/>
<path d="M8.65873 0.992637L7.24512 2.40625L29.3106 24.4717L30.7242 23.0581L8.65873 0.992637Z" fill="#E60A95"/>
</g>
<defs>
<clipPath id="clip0_158_2">
<rect width="144.82" height="43.0373" fill="white"/>
</clipPath>
</defs>
</svg>
