<svg width="112" height="28" viewBox="0 0 112 28" fill="none" xmlns="http://www.w3.org/2000/svg">
<path d="M67.0766 0.536133H60.4068V26.9007H67.0766V0.536133Z" fill="#EA0437"/>
<path d="M47.3672 11.7225C49.8153 11.5876 51.3591 14.2205 51.3591 17.7278C51.3591 22.2293 49.8153 24.1878 47.2723 24.1878C44.8691 24.1878 43.1904 22.2293 43.1904 17.7278C43.1904 15.0449 44.1447 11.7225 47.3672 11.7225ZM36.7454 18.2524C36.7454 24.6974 41.4168 27.9999 47.4571 27.9999C53.4975 27.9999 58.1688 24.7674 58.1688 17.8577C58.1688 11.9873 54.072 8.07032 47.4272 8.07032C41.0571 8.06532 36.7454 11.6975 36.7454 18.2524Z" fill="#EA0437"/>
<path d="M80.5162 23.3985C78.6127 23.3985 76.954 21.9247 76.954 19.7014H90.6833C90.7882 12.9067 86.7414 8.06543 80.0266 8.06543C74.2261 8.06543 69.7745 12.0423 69.7745 18.1876C69.7745 24.5377 74.261 28 80.0615 28C84.2833 28 88.8447 26.4512 90.0938 21.7698H83.2141C82.6945 22.864 81.6553 23.3985 80.5162 23.3985ZM83.4889 15.8794H76.949C76.934 11.0032 83.5488 10.9532 83.4889 15.8794Z" fill="#EA0437"/>
<path d="M20.398 26.9057L20.403 15.3297C20.403 13.526 21.8669 12.0622 23.6705 12.0622C25.4741 12.0622 26.9429 13.526 26.9429 15.3297L26.9379 26.9007H33.343L33.348 13.1064C33.243 11.8024 31.964 9.88887 30.4352 9.04452C28.3668 8.0453 23.7554 6.91617 19.9334 11.1129C18.7043 9.80893 17.1755 8.8147 15.4868 8.35006C12.649 7.73554 9.67631 8.36005 7.60791 10.5034C7.32313 10.7432 7.0983 11.3178 7.11829 10.8381V8.49994H0.528397V26.8957H7.1083V15.3197C7.1083 13.5161 8.57216 12.0522 10.3808 12.0522C12.1844 12.0522 13.6432 13.5161 13.6432 15.3197V26.9057H20.398Z" fill="#EA0437"/>
<path d="M104.947 8.50989L101.805 12.9714C100.821 11.6075 99.9213 9.94877 99.022 8.50989H91.6078L97.3983 17.0483C97.3983 17.0483 93.0866 23.4683 90.7984 26.9056H97.2684L100.881 21.0801C101.48 21.9445 102.879 24.6624 104.278 26.9056H111.412C109.619 23.9529 105.327 17.0183 105.327 17.0183C107.091 14.1105 109.464 11.4226 111.303 8.50989H104.947Z" fill="#EA0437"/>
</svg>
