<svg width="125" height="50" viewBox="0 0 125 50" fill="none" xmlns="http://www.w3.org/2000/svg">
<g clip-path="url(#clip0_56_309)">
<g clip-path="url(#clip1_56_309)">
<path d="M101.554 15.8346V19.4218C101.554 20.324 102.247 21.0621 103.093 21.0621H118.624C120.661 21.0621 122.506 21.9436 123.839 23.3665C125.094 24.7065 125.901 26.5297 125.99 28.5522C125.996 28.6787 126 28.8053 126 28.9339V35.6545C126 40.0083 122.69 43.5408 118.611 43.5408H69.0818V34.9035H113.38C114.227 34.9035 114.92 34.1654 114.92 33.2632V30.5767C114.92 29.6731 114.226 28.9339 113.378 28.9339H98.0504C94.0058 28.9339 90.696 25.4014 90.696 21.0849V14.3104C90.696 9.99188 94.0058 6.45935 98.0504 6.45935H118.797C122.661 6.45935 125.586 9.59733 125.586 13.4681V14.1942H103.093C102.247 14.1942 101.554 14.9324 101.554 15.8346Z" fill="#1C4EFF"/>
<path d="M50.1288 13.528V43.5222H38.7228V16.6368H30.2142V43.5222H18.8102V16.6368H10.0002V43.5222H-1V14.3571C-1 10.4696 2.08801 6.45923 5.86155 6.45923H43.267C47.0406 6.45923 50.1288 9.6405 50.1288 13.528Z" fill="#1C4EFF"/>
<path d="M76.9152 19.4659C76.9152 20.3681 76.1786 21.1062 75.2779 21.1062H64.7158V20.0226V14.2373H75.2779C76.1786 14.2373 76.9152 14.9754 76.9152 15.8776V19.4659ZM82.0086 6.45935H58.0913C55.4879 6.45935 53.3776 8.57357 53.3776 11.1815V20.0226V28.5973V43.5408H64.7158V28.9289H82.0086C86.3475 28.9289 88.0355 25.367 88.0355 21.0134V14.3746C88.0355 10.0213 86.3475 6.45935 82.0086 6.45935Z" fill="#1C4EFF"/>
</g>
</g>
<defs>
<clipPath id="clip0_56_309">
<rect width="125" height="50" fill="white"/>
</clipPath>
<clipPath id="clip1_56_309">
<rect width="127" height="37.0815" fill="white" transform="translate(-1 6.45923)"/>
</clipPath>
</defs>
</svg>
