<svg width="86" height="23" viewBox="0 0 86 23" fill="none" xmlns="http://www.w3.org/2000/svg">
<mask id="mask0_12_3564" style="mask-type:luminance" maskUnits="userSpaceOnUse" x="0" y="0" width="86" height="23">
<path d="M86 0.434082H0V22.2489H86V0.434082Z" fill="white"/>
</mask>
<g mask="url(#mask0_12_3564)">
<path d="M54.6566 12.766C53.1591 12.766 51.9406 11.5475 51.9406 10.0501C51.9406 8.55274 53.1591 7.33414 54.6566 7.33414C56.154 7.33414 57.3725 8.55274 57.3725 10.0501C57.3725 11.5622 56.1393 12.766 54.6566 12.766ZM54.6566 5.71924C52.2636 5.71924 50.3257 7.65714 50.3257 10.0501C50.3257 12.443 52.2636 14.3809 54.6566 14.3809C57.0495 14.3809 58.9874 12.443 58.9874 10.0501C58.9874 7.67184 57.0495 5.71924 54.6566 5.71924Z" fill="white"/>
<path d="M49.3569 12.9864H49.7092V14.6159H49.3569C47.4924 14.6159 45.9656 13.0891 45.9656 11.2247V3.78149H47.5951V5.95429H49.6945V7.58379H47.5951V11.2393C47.5952 12.1936 48.3879 12.9864 49.3569 12.9864Z" fill="white"/>
<path d="M69.2053 12.766C67.7079 12.766 66.4893 11.5475 66.4893 10.0501C66.4893 8.55274 67.7078 7.33414 69.2053 7.33414C70.7028 7.33414 71.9212 8.55274 71.9212 10.0501C71.9065 11.5622 70.688 12.766 69.2053 12.766ZM69.2053 5.71924C66.8123 5.71924 64.8745 7.65714 64.8745 10.0501C64.8745 12.443 66.8123 14.3809 69.2053 14.3809C71.5983 14.3809 73.5361 12.443 73.5361 10.0501C73.5361 7.67184 71.5983 5.71924 69.2053 5.71924Z" fill="white"/>
<path d="M81.6691 12.766C80.1718 12.766 78.9533 11.5475 78.9533 10.0501C78.9533 8.55274 80.1717 7.33414 81.6691 7.33414C83.1671 7.33414 84.3851 8.55274 84.3851 10.0501C84.3851 11.5622 83.1521 12.766 81.6691 12.766ZM81.6691 5.71924C79.2762 5.71924 77.3384 7.65714 77.3384 10.0501C77.3384 12.443 79.2762 14.3809 81.6691 14.3809C82.7261 14.3809 83.6951 13.9992 84.4441 13.3679V14.2194H86.0001V10.1822C86.0001 10.1382 86.0001 10.0941 86.0001 10.0501C86.0001 7.67184 84.0621 5.71924 81.6691 5.71924Z" fill="white"/>
<path d="M63.465 5.71924H64.243V7.34884H63.465C62.4961 7.34884 61.7033 8.14164 61.7033 9.11054V10.1675V12.1788V14.2782H60.0737V9.11054C60.0737 7.24614 61.6005 5.71934 63.465 5.71924Z" fill="white"/>
<path d="M76.2519 3.56128H74.6223V14.2489H76.2519V3.56128Z" fill="white"/>
<path d="M35.1311 9.33075V14.4837H33.5015V9.33075C33.5015 8.36185 32.7087 7.56905 31.7398 7.56905C30.7709 7.56905 29.9781 8.36175 29.9781 9.33075V14.4837H28.3486V9.33075C28.3486 8.36185 27.5558 7.56905 26.5869 7.56905C25.618 7.56905 24.8252 8.36175 24.8252 9.33075V14.4837H23.1956V9.33075C23.1956 7.46625 24.7224 5.93945 26.5722 5.93945C27.6145 5.93945 28.5248 6.39455 29.156 7.12865C29.7873 6.39455 30.6975 5.93945 31.7398 5.93945C33.6043 5.93945 35.1311 7.46625 35.1311 9.33075Z" fill="white"/>
<path d="M40.563 12.9863C39.0656 12.9863 37.8471 11.7678 37.8471 10.2703C37.8471 8.77285 39.0656 7.55435 40.563 7.55435C42.0605 7.55435 43.279 8.77285 43.279 10.2703C43.279 11.7678 42.0458 12.9863 40.563 12.9863ZM40.563 5.93945C38.1554 5.93945 36.2175 7.87735 36.2175 10.2703C36.2175 12.6633 38.1554 14.6012 40.5484 14.6012C42.9413 14.6012 44.8792 12.6633 44.8792 10.2703C44.8939 7.89195 42.956 5.93945 40.563 5.93945Z" fill="white"/>
<path d="M9.8508 0.434082C4.4042 0.434082 0 4.83828 0 10.2849C0 15.7315 4.4042 20.1357 9.8508 20.1357C15.2973 20.1357 19.7016 15.7314 19.7016 10.2849C19.7016 4.86768 15.3561 0.434082 9.8508 0.434082Z" fill="white"/>
<path d="M12.7869 2.85645L9.86545 12.5458L9.85065 12.5604L9.82135 12.5458L6.89985 2.85645L3.12695 15.2617H3.83155C3.83155 15.2617 4.30135 13.1036 5.07945 11.8117C5.50515 11.1071 6.15115 10.5345 7.01725 10.5492C7.63385 10.5639 8.16235 10.9015 8.82305 11.8264C8.96985 12.0319 9.14595 12.3696 9.32215 12.6926C9.60105 13.2358 9.83595 13.7936 9.83595 13.7936C9.83595 13.7936 10.4526 12.3843 10.849 11.8264C11.5096 10.9015 12.0381 10.5639 12.6547 10.5492C13.5209 10.5345 14.1815 11.1071 14.5926 11.8117C15.3707 13.1036 15.8404 15.2617 15.8404 15.2617H16.5451L12.7869 2.85645Z" fill="black"/>
</g>
</svg>
