<svg width="101" height="26" viewBox="0 0 101 26" fill="none" xmlns="http://www.w3.org/2000/svg">
<path fill-rule="evenodd" clip-rule="evenodd" d="M91.4821 25.1562L98.3653 6.169C98.3653 6.169 93.2183 6.169 88.0713 7.20332L81.5637 25.1562H91.4821ZM90.3062 1.04048L88.9825 4.68524C94.1603 3.65091 99.2765 3.65091 99.2765 3.65091L100.6 0.00615565C100.6 0.00615565 95.4532 0.00615587 90.3062 1.04048ZM54.4066 20.6495C57.5034 21.2159 60.6926 21.5114 63.9556 21.5114C67.2987 21.5114 69.7306 20.7665 69.9892 18.4947C70.1185 17.4111 69.0964 16.6354 67.2248 15.601C65.0823 14.419 63.2784 13.8279 61.4191 12.5843C59.5597 11.3406 58.7532 9.37663 59.3812 7.30183C60.1138 4.87609 61.8131 3.47237 64.4112 2.14253C67.4526 0.591041 69.866 0.00615565 75.7334 0.00615565C79.4274 0.00615565 83.0413 0.363243 86.5383 1.04048L85.2762 4.51285C82.1794 3.94643 78.9902 3.65707 75.7272 3.65707C72.4642 3.65707 69.9522 4.40203 69.6875 6.67384C69.5644 7.75742 70.5802 8.53932 72.458 9.56748C74.6005 10.7496 76.4044 11.3406 78.2637 12.5843C80.1292 13.8279 80.9296 15.7919 80.3016 17.8667C79.569 20.2863 77.8636 21.6962 75.2716 23.0198C72.2302 24.5713 69.8168 25.1562 63.9556 25.1562C60.2616 25.1562 56.6476 24.7991 53.1506 24.1219L54.4066 20.6495ZM39.4582 25.1562L45.2024 9.31506C47.1171 4.03263 40.0862 5.96583 38.5162 7.17869C37.2849 8.13298 35.0315 10.3063 34.2065 12.5843L29.6444 25.1624H19.726L25.4702 9.32122C27.3849 4.03878 20.3601 5.97198 18.784 7.18485C17.5527 8.13913 15.2994 10.3124 14.4744 12.5904L9.91842 25.1624H0L9.11805 0.0123136C12.2764 0.0123136 13.9818 0.738803 15.4225 2.14868C15.9458 2.66584 16.2721 3.33076 16.4507 4.04494C18.31 2.91827 19.9538 2.0748 21.062 1.64383C23.1245 0.837308 25.6857 0.00615565 28.8441 0.00615565C32.0024 0.00615565 33.7078 0.732645 35.1423 2.14253C35.6718 2.65969 35.9981 3.32461 36.1767 4.03878C38.036 2.91211 39.6798 2.06865 40.788 1.63768C42.8505 0.831152 45.4117 0 48.5701 0C51.7284 0 53.44 0.726489 54.8745 2.13637C56.309 3.54009 56.2721 6.11359 55.7549 7.54194L49.3704 25.15H39.452L39.4582 25.1562Z" fill="white"/>
</svg>
