<svg width="124" height="28" viewBox="0 0 124 28" fill="none" xmlns="http://www.w3.org/2000/svg">
<path d="M118.256 7.67415C119.542 7.67415 120.662 8.62823 120.662 10.6193C120.662 12.6105 119.542 13.5645 118.256 13.5645C116.97 13.5645 115.85 12.6105 115.85 10.6193C115.85 8.58675 116.97 7.67415 118.256 7.67415ZM118.256 6.47119C116.265 6.47119 114.564 7.84008 114.564 10.6193C114.564 13.3986 116.307 14.7675 118.256 14.7675C120.247 14.7675 121.948 13.3986 121.948 10.6193C121.948 7.84008 120.247 6.47119 118.256 6.47119ZM111.619 9.83119H110.001V7.75712H111.578C112.2 7.75712 112.656 8.08897 112.656 8.79415C112.656 9.49934 112.2 9.83119 111.619 9.83119ZM113.942 8.79415C113.942 7.42527 113.071 6.55415 111.536 6.55415H108.757V14.643H110.043V11.0342H110.997L113.279 14.643H114.772L112.449 10.9097C113.403 10.6608 113.942 9.91415 113.942 8.79415ZM105.397 10.1216H103.696V7.75712H105.397C106.144 7.75712 106.559 8.21341 106.559 8.96008C106.559 9.70675 106.102 10.1216 105.397 10.1216ZM105.314 11.3245C106.932 11.3245 107.803 10.2875 107.803 8.9186C107.803 7.54971 106.89 6.51267 105.314 6.51267H102.41V14.6016H103.696V11.283H105.314V11.3245Z" fill="white"/>
<path d="M33.8 2.11548H30.6474V17.837H33.8V2.11548Z" fill="white"/>
<path d="M41.5156 15.0164C41.1837 15.1823 40.9348 15.2652 40.603 15.2652C39.8978 15.2652 39.4415 15.0164 39.4415 13.7304V9.25043H42.3037V6.47117H39.4415V1.9082L36.2889 3.89931V6.51265H34.6296V9.29191H36.2889V13.7719C36.2889 16.4682 37.8237 18.003 40.52 18.003C41.1837 18.003 41.8059 17.8786 42.3867 17.5882L42.5941 17.5052L41.8474 14.8504L41.5156 15.0164Z" fill="white"/>
<path d="M26.2089 11.0754C26.2089 13.8132 25.0889 15.2236 23.9689 15.2236C23.0978 15.2236 22.683 14.7258 22.683 13.6887V6.51245H19.5304V14.5184C19.5304 16.6754 20.8993 18.0443 23.0978 18.0443C24.2593 18.0443 25.3378 17.5465 26.2089 16.5925V17.8369H29.3615V6.51245H26.2089V11.0754Z" fill="white"/>
<path d="M14.9674 6.30518C13.6815 6.30518 12.52 7.01036 11.6904 8.21332C11.1511 6.96888 10.0311 6.30518 8.62074 6.30518C7.45926 6.30518 6.54667 6.76147 5.75852 7.71555V6.4711H2.56445V17.837H5.71704V13.6059C5.71704 10.8267 6.50519 9.08444 7.83259 9.08444C8.57926 9.08444 8.91111 9.45777 8.91111 10.3289V17.7955H12.0637V13.357C12.0637 10.7437 12.8933 9.08444 14.1793 9.08444C14.9259 9.08444 15.2578 9.45777 15.2578 10.3289V17.7955H18.4104V9.91406C18.4104 7.71555 17.083 6.30518 14.9674 6.30518Z" fill="white"/>
<path d="M46.6178 6.51245H43.4652V17.8369H46.6178V6.51245Z" fill="white"/>
<path d="M94.4044 6.30518C93.4089 6.30518 92.5793 6.67851 92.04 7.17629V6.4711H88.8459V22.1926H91.9985V17.1733C92.5793 17.6296 93.4089 18.003 94.363 18.003C97.5985 18.003 99.5481 15.8044 99.5481 12.1541C99.5896 8.50369 97.64 6.30518 94.4044 6.30518ZM96.3126 12.1541C96.3126 14.0207 95.4415 15.2237 94.0311 15.2237C92.6622 15.2237 91.7911 14.0207 91.7911 12.1541C91.7911 10.2874 92.6622 9.08444 94.0311 9.08444C95.4 9.08444 96.3126 10.2874 96.3126 12.1541Z" fill="white"/>
<path d="M84.0756 6.30518C82.7896 6.30518 81.6282 7.01036 80.7985 8.21332C80.2593 6.96888 79.1393 6.30518 77.7289 6.30518C76.5674 6.30518 75.6548 6.76147 74.8667 7.71555V6.4711H71.7141V17.837H74.8667V13.6059C74.8667 10.8267 75.6548 9.08444 76.9822 9.08444C77.7289 9.08444 78.0607 9.45777 78.0607 10.3289V17.7955H81.2133V13.357C81.2133 10.7437 82.043 9.08444 83.3289 9.08444C84.0756 9.08444 84.4074 9.45777 84.4074 10.3289V17.7955H87.56V9.91406C87.56 7.71555 86.2326 6.30518 84.0756 6.30518Z" fill="white"/>
<path d="M64.7452 6.30518C61.3022 6.30518 58.9793 8.66962 58.9793 12.1541C58.9793 15.6385 61.3022 18.003 64.7452 18.003C68.1881 18.003 70.5111 15.6385 70.5111 12.1541C70.5111 8.66962 68.1881 6.30518 64.7452 6.30518ZM67.2341 12.1541C67.2341 13.6474 66.4459 15.2237 64.7867 15.2237C63.0859 15.2237 62.3393 13.6474 62.3393 12.1541C62.3393 10.6607 63.1274 9.08443 64.7867 9.08443C66.4459 9.08443 67.2341 10.7022 67.2341 12.1541Z" fill="white"/>
<path d="M45.0415 1.65918C43.9215 1.65918 43.0919 2.48881 43.0919 3.60881C43.0919 4.72881 43.9215 5.55844 45.0415 5.55844C46.1615 5.55844 46.9911 4.72881 46.9911 3.60881C46.9911 2.48881 46.1615 1.65918 45.0415 1.65918Z" fill="white"/>
<path d="M53.3793 9.08446C54.4163 9.08446 55.1215 9.58223 55.7022 10.7437L55.7852 10.9511L58.6059 9.78964L58.523 9.58224C57.6519 7.46668 55.9096 6.34668 53.3793 6.34668C50.0193 6.34668 47.8622 8.62816 47.8622 12.1956C47.8622 15.7215 50.0193 18.0445 53.3793 18.0445C55.9096 18.0445 57.6933 16.9245 58.523 14.8089L58.6059 14.6015L55.7852 13.44L55.7022 13.6474C55.163 14.7674 54.4163 15.3067 53.3793 15.3067C51.3467 15.3067 51.1393 13.1496 51.1393 12.237C51.1393 11.2415 51.3467 9.08446 53.3793 9.08446Z" fill="white"/>
<path d="M102.203 16.0532L101.622 17.9614H121.948V16.0532H102.203Z" fill="#4FBA74"/>
<mask id="mask0_2216_4856" style="mask-type:luminance" maskUnits="userSpaceOnUse" x="2" y="21" width="57" height="5">
<path d="M58.7719 21.28H2.56445V25.6771H58.7719V21.28Z" fill="white"/>
</mask>
<g mask="url(#mask0_2216_4856)">
<path d="M57.6519 22.5659C58.0252 22.5659 58.3156 22.7733 58.357 23.1882H56.9052C57.0296 22.8148 57.2785 22.5659 57.6519 22.5659ZM58.8133 23.3541C58.8133 22.7319 58.3985 22.1926 57.6519 22.1926C56.9467 22.1926 56.4904 22.7733 56.4904 23.437C56.4904 24.1422 56.9467 24.6815 57.6519 24.6815C58.1081 24.6815 58.4815 24.5156 58.7304 24.0178L58.3985 23.8519C58.2326 24.1422 57.9837 24.3496 57.6104 24.3496C57.1956 24.3496 56.9052 24.0178 56.8637 23.5615H58.7719V23.3541H58.8133ZM55.5363 23.8933C55.4118 24.1837 55.2044 24.3496 54.8726 24.3496C54.3748 24.3496 54.1259 23.9763 54.1259 23.4785C54.1259 22.9807 54.3748 22.6074 54.8726 22.6074C55.2044 22.6074 55.4118 22.7733 55.5363 23.0637L55.8681 22.9393C55.6607 22.483 55.3289 22.2756 54.8311 22.2756C54.0844 22.2756 53.6696 22.8563 53.6696 23.52C53.6696 24.1837 54.0844 24.7645 54.8311 24.7645C55.3289 24.7645 55.6607 24.557 55.8681 24.1007L55.5363 23.8933ZM51.6785 21.6119C51.6785 21.7778 51.8444 21.9437 52.0104 21.9437C52.2178 21.9437 52.3422 21.8193 52.3422 21.6119C52.3422 21.4045 52.2178 21.28 52.0104 21.28C51.8444 21.28 51.6785 21.4045 51.6785 21.6119ZM51.0978 22.6074H51.8444V24.3082H51.0148V24.6815H53.1304V24.3082H52.2593V22.2341H51.0978V22.6074ZM48.36 23.437C48.36 22.9807 48.6504 22.5659 49.1481 22.5659C49.6459 22.5659 49.9363 22.9807 49.9363 23.437C49.9363 23.8933 49.6459 24.3082 49.1481 24.3082C48.6504 24.3496 48.36 23.9348 48.36 23.437ZM47.9452 23.437C47.9452 24.1007 48.4015 24.6815 49.1481 24.6815C49.8948 24.6815 50.3511 24.1007 50.3511 23.437C50.3511 22.7733 49.8948 22.1926 49.1481 22.1926C48.4015 22.1926 47.9452 22.7733 47.9452 23.437ZM47.3644 22.9807C47.3644 22.483 47.157 22.1926 46.6178 22.1926C46.2444 22.1926 45.9126 22.4 45.7467 22.6904V21.28H45.3319V24.6815H45.7467V23.6445C45.7467 22.9393 46.12 22.5659 46.4933 22.5659C46.7837 22.5659 46.9496 22.7319 46.9496 23.0637V24.64H47.3644V22.9807ZM44.2119 23.5615C44.0459 24.0593 43.8385 24.3082 43.4237 24.3082C42.843 24.3082 42.4696 23.8933 42.4696 22.9807C42.4696 22.0682 42.843 21.6533 43.4237 21.6533C43.8385 21.6533 44.0874 21.9022 44.2119 22.4L44.6267 22.2756C44.4607 21.6948 44.0874 21.2385 43.4237 21.2385C42.677 21.2385 42.0548 21.7778 42.0548 22.9393C42.0548 24.1007 42.677 24.64 43.4237 24.64C44.0874 24.64 44.4607 24.2252 44.6267 23.603L44.2119 23.5615ZM38.1556 22.1926C37.6993 22.1926 37.3259 22.4415 37.3259 22.8978C37.3259 23.3541 37.6993 23.52 38.1141 23.603C38.4874 23.6859 38.7363 23.7689 38.7363 23.9763C38.7363 24.2252 38.4874 24.3496 38.2385 24.3496C37.9067 24.3496 37.6578 24.1837 37.5748 23.8519L37.2015 23.9763C37.3674 24.4326 37.7822 24.6815 38.2385 24.6815C38.7363 24.6815 39.1511 24.3911 39.1511 23.8933C39.1511 23.437 38.7363 23.3126 38.28 23.2296C37.9067 23.1467 37.6993 23.0637 37.6993 22.8563C37.6993 22.6074 37.9067 22.5245 38.1141 22.5245C38.363 22.5245 38.5289 22.6489 38.6948 22.8978L39.0267 22.6904C38.8607 22.4 38.6119 22.1926 38.1556 22.1926ZM36.2059 22.4415H36.4963L37.243 21.2385H36.6207L36.2059 22.4415ZM35.5837 23.0222C35.5422 22.5245 35.2519 22.2341 34.7956 22.2341C34.3807 22.2341 34.0904 22.4415 33.9244 22.7319V22.2756H33.5096V24.6815H33.9244V23.8104C33.9244 22.9807 34.3393 22.6074 34.7541 22.6074C35.0444 22.6074 35.1689 22.7733 35.2104 23.0637H35.5837V23.0222ZM31.6015 22.5659C31.9748 22.5659 32.2652 22.7733 32.3067 23.1882H30.8548C30.9793 22.8148 31.2281 22.5659 31.6015 22.5659ZM32.763 23.3541C32.763 22.7319 32.3481 22.1926 31.6015 22.1926C30.8963 22.1926 30.44 22.7733 30.44 23.437C30.44 24.1422 30.8963 24.6815 31.6015 24.6815C32.0578 24.6815 32.4311 24.5156 32.68 24.0178L32.3481 23.8519C32.1822 24.1422 31.9333 24.3496 31.56 24.3496C31.1452 24.3496 30.8548 24.0178 30.8133 23.5615H32.7215V23.3541H32.763ZM28.7807 22.5659C29.1541 22.5659 29.4444 22.7733 29.4859 23.1882H28.0341C28.1585 22.8148 28.3659 22.5659 28.7807 22.5659ZM29.9007 23.3541C29.9007 22.7319 29.4859 22.1926 28.7393 22.1926C28.0341 22.1926 27.5778 22.7733 27.5778 23.437C27.5778 24.1422 28.0341 24.6815 28.7393 24.6815C29.1956 24.6815 29.5689 24.5156 29.8178 24.0178L29.5274 23.8519C29.3615 24.1422 29.1126 24.3496 28.7393 24.3496C28.3244 24.3496 28.0341 24.0178 27.9926 23.5615H29.9007V23.3541ZM26.9141 22.9807C26.9141 22.5245 26.6652 22.1926 26.1674 22.1926C25.8356 22.1926 25.5037 22.4 25.3378 22.6904V22.2341H24.923V24.64H25.3378V23.6859C25.3378 22.9807 25.6696 22.5659 26.043 22.5659C26.3333 22.5659 26.4993 22.7319 26.4993 23.0637V24.64H26.9141V22.9807ZM22.8074 21.6119C22.8074 21.7778 22.9733 21.9437 23.1393 21.9437C23.3467 21.9437 23.4711 21.8193 23.4711 21.6119C23.4711 21.4045 23.3467 21.28 23.1393 21.28C22.9319 21.28 22.8074 21.4045 22.8074 21.6119ZM22.2267 22.6074H22.9733V24.3082H22.1437V24.6815H24.2593V24.3082H23.3881V22.2341H22.2681V22.6074H22.2267ZM19.8622 23.0222C19.8622 22.7319 20.0696 22.5659 20.3185 22.5659C20.5674 22.5659 20.7748 22.7319 20.7748 23.0222C20.7748 23.3126 20.5674 23.4785 20.3185 23.4785C20.0696 23.4785 19.8622 23.3126 19.8622 23.0222ZM20.6089 24.5156C20.8578 24.5156 21.0237 24.5985 21.0237 24.8889C21.0237 25.1793 20.7748 25.3452 20.3185 25.3452C19.9037 25.3452 19.6133 25.1793 19.6133 24.8889C19.6133 24.723 19.6548 24.5985 19.8207 24.5156C19.9037 24.5156 19.9867 24.5156 20.0696 24.5156H20.6089ZM19.4474 23.0222C19.4474 23.2296 19.4889 23.3956 19.6133 23.52C19.4059 23.603 19.24 23.8104 19.24 24.0178C19.24 24.1837 19.323 24.3082 19.4059 24.3911C19.2815 24.4741 19.157 24.64 19.157 24.8889C19.157 25.4282 19.5719 25.677 20.277 25.677C20.8163 25.677 21.397 25.4696 21.397 24.8474C21.397 24.3911 21.1067 24.1837 20.5674 24.1837H19.9867C19.7793 24.1837 19.6548 24.1007 19.6548 23.9763C19.6548 23.8519 19.7378 23.7689 19.8622 23.7274C19.9867 23.8104 20.1526 23.8104 20.3185 23.8104C20.8163 23.8104 21.1896 23.52 21.1896 22.9807C21.1896 22.8148 21.1481 22.6904 21.1067 22.5659L21.5215 22.3585L21.3556 22.0267L20.8578 22.2756C20.7333 22.1926 20.5674 22.1511 20.4015 22.1511C19.8207 22.1926 19.4474 22.5245 19.4474 23.0222ZM18.4519 22.9807C18.4519 22.5245 18.203 22.1926 17.7052 22.1926C17.3733 22.1926 17.0415 22.4 16.8756 22.6904V22.2341H16.4607V24.64H16.8756V23.6859C16.8756 22.9807 17.2074 22.5659 17.5807 22.5659C17.8711 22.5659 18.037 22.7319 18.037 23.0637V24.64H18.4519V22.9807ZM13.557 21.3215V24.6815H15.7141V24.2667H13.9719V23.0637H15.4237V22.6489H13.9719V21.6948H15.6726V21.28H13.557V21.3215ZM9.53333 22.5659C9.90667 22.5659 10.197 22.7733 10.2385 23.1882H8.78667C8.86963 22.8148 9.11852 22.5659 9.53333 22.5659ZM10.6533 23.3541C10.6533 22.7319 10.2385 22.1926 9.49185 22.1926C8.78667 22.1926 8.33037 22.7733 8.33037 23.437C8.33037 24.1422 8.78667 24.6815 9.49185 24.6815C9.94815 24.6815 10.3215 24.5156 10.5704 24.0178L10.2385 23.8519C10.0726 24.1422 9.8237 24.3496 9.45037 24.3496C9.03556 24.3496 8.74519 24.0178 8.7037 23.5615H10.6119V23.3541H10.6533ZM7.70815 22.9807C7.70815 22.483 7.50074 22.1926 6.96148 22.1926C6.58815 22.1926 6.2563 22.4 6.09037 22.6904V21.28H5.67556V24.6815H6.09037V23.6445C6.09037 22.9393 6.4637 22.5659 6.83704 22.5659C7.12741 22.5659 7.29333 22.7319 7.29333 23.0637V24.64H7.70815V22.9807ZM2.56445 21.6948H3.60148V24.64H4.0163V21.6948H5.05333V21.28H2.56445V21.6948Z" fill="white"/>
</g>
</svg>
