<svg width="108" height="37" viewBox="0 0 108 37" fill="none" xmlns="http://www.w3.org/2000/svg">
<g clip-path="url(#clip0_2216_4876)">
<path d="M107.625 13.0031C107.651 12.9419 107.664 12.8759 107.664 12.8093C107.663 12.6786 107.61 12.5536 107.518 12.4616C107.425 12.3695 107.299 12.318 107.169 12.3184L106.756 12.3213L98.8804 12.3073C97.1134 12.3074 95.4188 13.0094 94.1694 14.2589C92.9199 15.5083 92.2179 17.2029 92.2178 18.9698C92.2099 20.1321 92.5135 21.2752 93.0969 22.2804C93.1438 22.3576 93.1692 22.4458 93.1705 22.5361C93.1707 22.6011 93.158 22.6654 93.1332 22.7255C93.1084 22.7856 93.072 22.8401 93.026 22.8861C92.9801 22.932 92.9255 22.9684 92.8654 22.9932C92.8054 23.018 92.741 23.0307 92.676 23.0306H89.9084C89.3867 22.984 88.9013 22.7439 88.5478 22.3574C88.1943 21.971 87.9983 21.4662 87.9983 20.9424C87.9991 20.8239 88.009 20.7056 88.0281 20.5886C88.7222 18.1228 90.0765 13.3896 90.0765 13.3896L90.2721 12.6891C90.2836 12.588 90.3327 12.4951 90.4096 12.4286C90.4864 12.3621 90.5855 12.3269 90.6871 12.33L93.1028 12.3248C93.1998 12.3248 93.2947 12.2966 93.3759 12.2435C93.4571 12.1904 93.521 12.1148 93.5599 12.0259C93.5599 12.0259 93.7934 11.2349 93.7934 11.1777C93.7928 11.047 93.7404 10.922 93.6477 10.83C93.555 10.7379 93.4295 10.6864 93.2989 10.6867L91.5056 10.6931C91.4406 10.6934 91.3761 10.6809 91.316 10.6561C91.2559 10.6314 91.2012 10.595 91.1553 10.549C91.1093 10.503 91.0729 10.4484 91.0481 10.3883C91.0234 10.3281 91.0108 10.2637 91.0111 10.1987C91.0111 10.1345 92.1203 6.26932 92.1203 6.26932C92.1203 6.26932 92.2586 5.80639 92.2586 5.73926C92.2586 5.67471 92.2459 5.61081 92.2211 5.5512C92.1964 5.49159 92.1601 5.43745 92.1144 5.39189C92.0687 5.34634 92.0144 5.31025 91.9547 5.28571C91.895 5.26117 91.8311 5.24866 91.7665 5.24889L87.6422 5.25823C87.5403 5.25861 87.4409 5.29013 87.3575 5.34856C87.274 5.40699 87.2104 5.48954 87.1752 5.58514H87.1781L85.8121 10.3224C85.7854 10.4291 85.7236 10.5237 85.6367 10.591C85.5498 10.6584 85.4427 10.6945 85.3328 10.6937L83.0281 10.6873C82.9222 10.6871 82.8191 10.7211 82.7341 10.7842C82.6491 10.8473 82.5868 10.9362 82.5564 11.0376C82.5564 11.0376 82.3398 11.8093 82.3398 11.8297C82.3394 11.8948 82.3519 11.9593 82.3766 12.0194C82.4013 12.0796 82.4377 12.1342 82.4837 12.1802C82.5297 12.2262 82.5844 12.2626 82.6446 12.2873C82.7047 12.3121 82.7692 12.3246 82.8342 12.3242L84.6007 12.3213C84.6649 12.321 84.7285 12.3335 84.7879 12.3579C84.8472 12.3824 84.9011 12.4183 84.9465 12.4637C84.992 12.509 85.0279 12.5629 85.0525 12.6222C85.077 12.6815 85.0895 12.7451 85.0894 12.8093C85.0894 12.8408 83.7467 17.5431 82.9919 20.1882C82.9298 20.4463 82.8832 20.7079 82.8523 20.9716C82.8297 21.4367 82.9667 21.8956 83.2405 22.2722C83.3003 22.3547 83.3324 22.4541 83.3322 22.556C83.3316 22.6758 83.2868 22.7912 83.2065 22.8802C83.1262 22.9691 83.0159 23.0254 82.8967 23.0382H79.1664C78.8998 23.0399 78.6429 22.9382 78.4498 22.7544C78.2566 22.5706 78.1423 22.3191 78.1308 22.0527C78.1376 21.9708 78.1561 21.8902 78.1857 21.8134L79.5143 17.1677L80.6147 13.3195C80.6147 13.3195 80.7315 12.8817 80.7315 12.8198C80.731 12.6897 80.6792 12.5651 80.5872 12.4732C80.4952 12.3812 80.3706 12.3293 80.2405 12.3289L79.54 12.3318L71.9568 12.3166C70.7877 12.3176 69.6394 12.6259 68.627 13.2107C67.6147 13.7955 66.7739 14.6362 66.189 15.6485C65.604 16.6608 65.2956 17.8091 65.2945 18.9782C65.2934 20.1474 65.5997 21.2962 66.1827 22.3096C66.205 22.3839 66.2204 22.4601 66.2289 22.5373C66.2326 22.5998 66.2235 22.6625 66.202 22.7214C66.1805 22.7802 66.1471 22.8341 66.1039 22.8795C66.0607 22.9249 66.0086 22.9609 65.9508 22.9853C65.8931 23.0097 65.8309 23.0219 65.7683 23.0212L62.505 23.0288C62.2433 23.0276 61.9927 22.923 61.8077 22.7379C61.6227 22.5528 61.5183 22.3022 61.5173 22.0405C61.5172 21.9562 61.5288 21.8723 61.5517 21.7912L61.5949 21.6161H61.6083L63.0199 16.7498C63.1082 16.4828 63.1581 16.2047 63.1682 15.9237C63.1682 14.0948 61.9335 14.2425 61.568 13.7515C61.568 13.7515 61.317 13.532 61.857 13.3429C62.8395 13.0056 63.7393 12.4637 64.4969 11.753C65.2544 11.0422 65.8525 10.1788 66.2516 9.2197C66.6362 8.33246 66.8349 7.37583 66.8354 6.40884C66.8348 4.80827 66.2342 3.26608 65.1522 2.08667C64.0701 0.907255 62.5853 0.176323 60.9907 0.0381471C60.7638 0.0142229 60.5358 0.00214177 60.3077 0.00195312H58.2732V0.0107104L49.1588 0.00195312H49.1524H47.6147C47.4994 0.00236185 47.3878 0.0428976 47.2991 0.116607C47.2103 0.190316 47.15 0.292603 47.1285 0.405922L46.8366 1.49874C46.8372 1.62947 46.8897 1.75461 46.9825 1.84666C47.0753 1.93871 47.2009 1.99016 47.3316 1.98969L49.6025 1.98211C49.7324 1.98179 49.8572 2.03286 49.9496 2.12418C50.042 2.21549 50.0945 2.33964 50.0958 2.46955C50.0958 2.49524 48.6883 7.41526 47.2902 12.2962H47.2943C45.9078 17.1316 44.5289 21.9395 44.5289 21.9395C44.4418 22.2504 44.2553 22.5241 43.9978 22.719C43.7404 22.9138 43.4262 23.0189 43.1034 23.0183L41.9171 23.0259C41.7867 23.0286 41.657 23.0049 41.5359 22.9562C41.4148 22.9074 41.3049 22.8347 41.2127 22.7424C41.1204 22.65 41.0478 22.54 40.9993 22.4189C40.9507 22.2977 40.9271 22.168 40.93 22.0376C40.958 21.5881 43.5243 12.8449 43.5243 12.8081C43.5235 12.6776 43.471 12.5526 43.3784 12.4606C43.2857 12.3686 43.1604 12.317 43.0298 12.3172H38.9154C38.7992 12.3168 38.6866 12.3576 38.5976 12.4325C38.5087 12.5073 38.4492 12.6112 38.4297 12.7258L35.8027 21.8327C35.7203 22.0642 35.5708 22.2659 35.3732 22.4121C35.1757 22.5583 34.9391 22.6423 34.6936 22.6534L34.1524 22.6505C33.9136 22.6259 33.6943 22.5076 33.5425 22.3216C33.3907 22.1356 33.3189 21.897 33.3427 21.6581C33.3426 21.5702 33.3508 21.4824 33.3672 21.396L33.4203 21.1707L33.9936 19.2816L35.2639 14.8607C35.2953 14.7169 35.3112 14.5701 35.3112 14.4229C35.3113 14.0682 35.2215 13.7194 35.0502 13.4089C34.8789 13.0984 34.6316 12.8364 34.3315 12.6475C34.0314 12.4585 33.6883 12.3488 33.3343 12.3285C32.9802 12.3082 32.6268 12.378 32.3071 12.5314L27.7951 14.6132C27.7044 14.641 27.6267 14.7007 27.5765 14.7813C27.5263 14.8618 27.5069 14.9578 27.5219 15.0516C27.5626 15.2373 27.6225 15.4182 27.7006 15.5916C27.7899 15.7147 27.9452 15.8473 28.1016 15.7988C28.3591 15.7124 29.1419 15.3446 29.3421 15.3213C29.4077 15.3192 29.4731 15.3305 29.5341 15.3547C29.5951 15.3789 29.6505 15.4153 29.6969 15.4618C29.7432 15.5083 29.7796 15.5638 29.8036 15.6249C29.8276 15.6859 29.8388 15.7513 29.8366 15.8169C29.8366 15.8694 29.6433 16.5758 29.6433 16.5758L28.5435 20.424C28.5076 20.5986 28.4845 20.7756 28.4746 20.9535C28.4526 21.4189 28.59 21.8779 28.864 22.2547C28.9236 22.3371 28.9554 22.4362 28.9551 22.5379C28.9554 22.6027 28.9429 22.667 28.9182 22.727C28.8936 22.787 28.8574 22.8416 28.8116 22.8876C28.7658 22.9335 28.7114 22.97 28.6514 22.9948C28.5915 23.0196 28.5272 23.0324 28.4624 23.0323H24.9872C24.8352 23.0321 24.6854 22.9968 24.5493 22.9293C24.4132 22.8617 24.2945 22.7636 24.2025 22.6427C24.1105 22.5217 24.0476 22.3812 24.0188 22.232C23.9899 22.0828 23.9959 21.929 24.0362 21.7825L25.9685 15.0901C26.0348 14.8763 26.071 14.6543 26.0759 14.4304C26.0761 14.1549 26.0219 13.882 25.9166 13.6274C25.8113 13.3728 25.6568 13.1414 25.462 12.9465C25.2672 12.7516 25.0359 12.597 24.7814 12.4916C24.5268 12.3861 24.254 12.3318 23.9784 12.3318C23.667 12.3305 23.3593 12.4002 23.0788 12.5355L19.7093 14.1111L19.0777 14.4083C19.0028 14.4435 18.9216 14.4633 18.8389 14.4666C18.723 14.4646 18.6114 14.4229 18.5225 14.3486C18.4336 14.2742 18.3728 14.1717 18.3503 14.058C18.2571 13.5755 18.0005 13.1398 17.6236 12.8243C17.2468 12.5089 16.7728 12.3329 16.2814 12.3259C15.9687 12.3248 15.6597 12.3945 15.3777 12.5297L11.7881 14.215L11.3871 14.4042C11.3119 14.4392 11.2306 14.459 11.1477 14.4625C11.0333 14.4631 10.9222 14.4241 10.8334 14.352C10.7445 14.28 10.6833 14.1794 10.6603 14.0673C10.5693 13.5825 10.3135 13.1441 9.93624 12.8263C9.55897 12.5085 9.08344 12.3309 8.59022 12.3236C8.27645 12.3218 7.96654 12.3928 7.68479 12.5308L7.66144 12.5373L2.51141 14.9243C2.42309 14.9609 2.34791 15.0233 2.2958 15.1035C2.2437 15.1836 2.2171 15.2777 2.21953 15.3732C2.25207 15.5308 2.30816 15.6825 2.3859 15.8233C2.42602 15.9079 2.48925 15.9793 2.56828 16.0294C2.64731 16.0795 2.73891 16.1062 2.83249 16.1064C2.90596 16.1056 2.97841 16.0891 3.04498 16.058L4.49974 15.3645C4.56705 15.3311 4.6412 15.314 4.71632 15.3143C4.84716 15.3153 4.9723 15.368 5.06455 15.4608C5.1568 15.5536 5.20872 15.679 5.20902 15.8099C5.20902 15.9681 3.46529 21.9395 3.46529 21.9395C3.37919 22.2517 3.19307 22.527 2.93546 22.7232C2.67785 22.9195 2.36298 23.0258 2.03914 23.0259L0.973177 23.0171C0.867344 23.017 0.764298 23.0511 0.67933 23.1142C0.594361 23.1772 0.531996 23.2661 0.501489 23.3674C0.501489 23.3674 0.319353 23.9874 0.295418 24.1526C0.289004 24.2189 0.297338 24.2858 0.319822 24.3485C0.342306 24.4113 0.378383 24.4682 0.425471 24.5154C0.472558 24.5625 0.52949 24.5987 0.592186 24.6212C0.654882 24.6438 0.721792 24.6522 0.788121 24.6459H6.55987L6.56278 24.6418H7.44194C7.54399 24.6414 7.64347 24.6097 7.72697 24.5511C7.81048 24.4924 7.87399 24.4096 7.90896 24.3137H7.90604L10.1355 16.5968C10.1491 16.5215 10.1788 16.4501 10.2226 16.3874C10.2665 16.3247 10.3234 16.2723 10.3894 16.2337L11.5645 15.6785L12.2067 15.3767C12.2724 15.3479 12.3433 15.333 12.4151 15.333C12.5457 15.3328 12.6711 15.3843 12.7639 15.4763C12.8566 15.5683 12.9092 15.6933 12.9101 15.8239C12.9099 15.8635 12.9038 15.9028 12.892 15.9407C12.2458 18.3341 10.5447 24.1356 10.5447 24.1654C10.5456 24.296 10.5982 24.421 10.691 24.513C10.7837 24.605 10.9091 24.6565 11.0397 24.6564H15.1512C15.2675 24.6568 15.3801 24.6159 15.469 24.5411C15.5579 24.4663 15.6174 24.3623 15.6369 24.2477L17.8879 16.438C17.9335 16.3517 18.0022 16.2797 18.0864 16.2302L19.3929 15.6126L19.8996 15.3726C19.9661 15.3437 20.0378 15.3288 20.1104 15.3289C20.3801 15.3289 20.6504 15.5542 20.6013 15.8198C20.5517 16.1035 18.4174 23.6342 18.4174 23.6342C18.4174 23.6342 18.2791 24.0971 18.2791 24.1654C18.2791 24.23 18.2918 24.2939 18.3166 24.3535C18.3414 24.4131 18.3778 24.4673 18.4236 24.5128C18.4693 24.5583 18.5237 24.5943 18.5834 24.6188C18.6432 24.6432 18.7072 24.6556 18.7718 24.6552L21.2639 24.6499H47.2143C47.8405 24.661 48.4534 24.4683 48.9607 24.1008C49.468 23.7334 49.8421 23.2111 50.0269 22.6126L52.1676 15.1158C52.1963 15.0117 52.2583 14.92 52.3441 14.8545C52.4299 14.789 52.5348 14.7535 52.6428 14.7533H56.6007C56.7304 14.753 56.8588 14.7784 56.9787 14.8278C57.0985 14.8772 57.2075 14.9498 57.2993 15.0414C57.3911 15.133 57.4639 15.2417 57.5136 15.3615C57.5633 15.4812 57.589 15.6096 57.5891 15.7393C57.5882 15.8026 57.5816 15.8657 57.5692 15.9278L56.1366 20.8537C56.0586 21.1248 56.0193 21.4057 56.0199 21.6879C56.0199 22.473 56.3316 23.226 56.8867 23.7813C57.4417 24.3367 58.1945 24.6489 58.9796 24.6494H61.3847H60.5972H106.239C107.263 24.6494 107.465 24.4789 107.509 24.2571C107.509 24.2571 107.705 23.5472 107.705 23.5157C107.705 23.4508 107.692 23.3865 107.668 23.3264C107.643 23.2664 107.607 23.2118 107.561 23.1658C107.515 23.1198 107.461 23.0833 107.401 23.0584C107.341 23.0335 107.277 23.0206 107.212 23.0206L106.088 23.0271C105.822 23.0273 105.567 22.9251 105.374 22.7416C105.182 22.5581 105.069 22.3076 105.057 22.0422C105.064 21.96 105.082 21.879 105.11 21.8011L106.709 16.2115L107.506 13.4299L107.625 13.0031ZM61.2662 4.97335V5.85601C61.2658 6.77369 61.0617 7.67983 60.6685 8.50905C60.2754 9.33826 59.7032 10.0699 58.993 10.6511C57.9167 11.4899 56.5911 11.9452 55.2265 11.9447V11.9383L54.7659 11.9447L53.7058 11.9477C53.575 11.9472 53.4497 11.8949 53.3573 11.8022C53.265 11.7095 53.2131 11.584 53.2131 11.4532L55.7934 2.38316C55.8163 2.27228 55.8768 2.17272 55.9646 2.10133C56.0525 2.02995 56.1624 1.99113 56.2756 1.99144H58.2715V2.00721H58.2767C58.6683 2.00505 59.0565 2.08029 59.4189 2.22861C59.7813 2.37692 60.1109 2.59538 60.3886 2.87143C60.6664 3.14749 60.8868 3.4757 61.0373 3.83722C61.1878 4.19873 61.2654 4.58642 61.2656 4.97802M75.1413 14.4579C75.1004 14.6091 74.4892 16.769 74.4892 16.769L73.115 21.5811C73.0275 21.8916 72.8408 22.165 72.5835 22.3596C72.3261 22.5542 72.0121 22.6592 71.6895 22.6587L71.0421 22.6558C70.9132 22.655 70.7858 22.6287 70.6673 22.5782C70.5488 22.5277 70.4415 22.4541 70.3516 22.3618C70.2618 22.2694 70.1913 22.1601 70.1442 22.0402C70.097 21.9203 70.0742 21.7922 70.0771 21.6634C70.0773 21.5901 70.0842 21.5171 70.0975 21.445L71.7817 15.5238C71.9008 15.0764 72.1643 14.6808 72.5314 14.3985C72.8984 14.1162 73.3484 13.9631 73.8115 13.9628H74.6504C74.9236 13.9628 75.2166 14.1917 75.1436 14.4532M102.051 14.4596C102.051 14.5069 101.554 16.2372 101.554 16.2372L100.017 21.6079C99.9247 21.9111 99.7374 22.1766 99.4827 22.3651C99.228 22.5537 98.9194 22.6554 98.6025 22.6552L97.9563 22.6523C97.8273 22.6517 97.6997 22.6254 97.581 22.575C97.4623 22.5246 97.3549 22.4511 97.2649 22.3587C97.1749 22.2663 97.1042 22.157 97.0569 22.037C97.0096 21.917 96.9867 21.7888 96.9895 21.6599C96.99 21.5814 96.9982 21.5032 97.014 21.4264L98.6918 15.5268C98.8109 15.0801 99.0742 14.6853 99.4409 14.4039C99.8076 14.1224 100.257 13.97 100.719 13.9704L101.554 13.9652C101.685 13.9652 101.811 14.0173 101.904 14.11C101.996 14.2027 102.048 14.3285 102.048 14.4596" fill="#F5002F"/>
<path d="M3.94513 32.5593H3.14186V36.9335H3.94513V32.5593ZM9.54933 36.9335V32.5593H8.7519V34.9954C8.7519 35.1886 8.7519 35.4408 8.76533 35.6334H8.7519C8.62113 35.4207 8.47683 35.2165 8.31991 35.0222L6.41506 32.5599H5.59778V36.9341H6.40106V34.3579C6.40106 34.1518 6.39463 33.92 6.38121 33.7741H6.39463C6.51139 33.9597 6.6404 34.1244 6.82604 34.3719L8.80386 36.9341L9.54933 36.9335ZM15.1535 36.9335V32.5593H14.3538V34.9954C14.3538 35.1886 14.3538 35.4408 14.3672 35.6334H14.3538C14.2235 35.4206 14.0796 35.2164 13.9229 35.0222L12.0175 32.5599H11.2002V36.9341H12.0035V34.3579C12.0035 34.1518 11.9965 33.92 11.9831 33.7741H11.9965C12.1133 33.9597 12.2429 34.1244 12.4279 34.3719L14.4063 36.9341L15.1535 36.9335ZM21.0677 34.7496C21.0868 34.1809 20.8901 33.626 20.5172 33.1962C20.0793 32.7691 19.4939 32.5267 18.8823 32.5192C18.2706 32.5117 17.6794 32.7397 17.2312 33.1559C17.024 33.3736 16.8617 33.6301 16.7536 33.9105C16.6456 34.191 16.5938 34.49 16.6013 34.7905C16.5901 35.1019 16.6453 35.4121 16.7634 35.7005C16.8815 35.9889 17.0596 36.2488 17.2861 36.463C17.6109 36.7641 18.0175 36.9625 18.4547 37.0335C18.892 37.1044 19.3404 37.0446 19.7438 36.8615C20.1472 36.6785 20.4875 36.3805 20.7221 36.0047C20.9567 35.629 21.0751 35.1924 21.0625 34.7496M20.2067 34.763C20.2067 35.7525 19.6357 36.3433 18.826 36.3433C18.0163 36.3433 17.4384 35.7525 17.4384 34.763C17.4128 34.5662 17.4295 34.3661 17.4873 34.1762C17.5451 33.9863 17.6428 33.8109 17.7738 33.6618C17.9048 33.5126 18.0661 33.3931 18.2469 33.3113C18.4278 33.2294 18.624 33.1871 18.8225 33.1871C19.0211 33.1871 19.2173 33.2294 19.3981 33.3113C19.579 33.3931 19.7403 33.5126 19.8713 33.6618C20.0023 33.8109 20.1 33.9863 20.1578 34.1762C20.2156 34.3661 20.2323 34.5662 20.2067 34.763ZM26.1804 32.5657H25.3573L24.3152 35.0549C24.195 35.3334 24.1092 35.5803 24.0298 35.8138H24.0164C23.937 35.575 23.8366 35.3024 23.7379 35.0374L22.7887 32.568H21.913L23.6854 36.9627H24.2627L26.1804 32.5657ZM30.4349 36.9341L28.6789 32.5365H28.0952L26.3929 36.9335H27.1827L27.5873 35.8383H29.1477L29.5791 36.9335L30.4349 36.9341ZM28.8955 35.1827H27.833L28.2113 34.1676C28.2784 33.9948 28.3317 33.8169 28.3707 33.6358H28.3777C28.4215 33.8207 28.4771 34.0026 28.5441 34.1804L28.8955 35.1827ZM34.3386 32.561H30.8762V33.2312H32.1442V36.9358H32.9539V33.2289H34.1495L34.3386 32.561ZM39.502 34.7513C39.5211 34.1826 39.3245 33.6277 38.9516 33.1979C38.5136 32.7708 37.9283 32.5284 37.3166 32.5209C36.7049 32.5134 36.1138 32.7414 35.6655 33.1576C35.4583 33.3754 35.296 33.6318 35.188 33.9123C35.0799 34.1927 35.0281 34.4917 35.0356 34.7922C35.025 35.1042 35.0812 35.4148 35.2003 35.7033C35.3194 35.9918 35.4987 36.2516 35.7262 36.4653C36.0511 36.7664 36.4576 36.9649 36.8949 37.0358C37.3321 37.1067 37.7806 37.0469 38.1839 36.8639C38.5873 36.6809 38.9277 36.3828 39.1623 36.0071C39.3969 35.6313 39.5153 35.1947 39.5026 34.7519M38.6468 34.7654C38.6468 35.7548 38.0759 36.3456 37.2662 36.3456C36.4565 36.3456 35.8786 35.7548 35.8786 34.7654C35.853 34.5685 35.8696 34.3684 35.9275 34.1785C35.9853 33.9886 36.083 33.8133 36.214 33.6641C36.345 33.515 36.5063 33.3955 36.6871 33.3136C36.868 33.2317 37.0642 33.1894 37.2627 33.1894C37.4612 33.1894 37.6574 33.2317 37.8383 33.3136C38.0191 33.3955 38.1804 33.515 38.3114 33.6641C38.4424 33.8133 38.5401 33.9886 38.5979 34.1785C38.6558 34.3684 38.6724 34.5685 38.6468 34.7654ZM44.1891 36.9358C43.8299 36.2269 43.3914 35.561 42.8821 34.951V34.9446C43.1164 34.8558 43.3188 34.6988 43.4631 34.4939C43.6074 34.2891 43.6871 34.0457 43.6918 33.7951C43.6918 33.125 43.2674 32.561 42.1319 32.561H40.9521V36.9352H41.7554V35.2073H42.1273C42.2936 35.2604 42.599 35.805 43.2755 36.9329L44.1891 36.9358ZM42.8821 33.8885C42.8827 33.9832 42.8644 34.077 42.8281 34.1644C42.7917 34.2518 42.7382 34.331 42.6707 34.3973C42.6032 34.4637 42.523 34.5157 42.435 34.5505C42.3469 34.5852 42.2528 34.6019 42.1582 34.5996H41.7537V33.237H42.1547C42.2468 33.2242 42.3406 33.2316 42.4296 33.2586C42.5186 33.2857 42.6006 33.3317 42.6701 33.3935C42.7395 33.4554 42.7947 33.5315 42.8318 33.6168C42.8689 33.7021 42.8871 33.7944 42.885 33.8874M48.8681 32.5593H48.0625V36.9335H48.8681V32.5593ZM54.4723 36.9335V32.5593H53.6754V34.9954C53.6754 35.1886 53.6754 35.4408 53.6889 35.6334H53.6754C53.5452 35.4204 53.4011 35.2163 53.244 35.0222L51.3392 32.5599H50.5219V36.9341H51.3199V34.3579C51.3199 34.1518 51.3135 33.92 51.3001 33.7741H51.3135C51.4302 33.9597 51.5593 34.1244 51.7449 34.3719L53.7233 36.9341L54.4723 36.9335ZM61.1705 36.9335V36.2627H59.5359V35.0368H60.9498V34.3643H59.5359V33.2289H60.9498L61.1693 32.5587H58.7326V36.9329L61.1705 36.9335ZM65.0234 36.9335V36.2563H63.4565V32.5593H62.6451V36.9335H65.0234ZM68.721 36.9335V36.2627H67.0864V35.0368H68.5003V34.3643H67.0817V33.2289H68.4956L68.7151 32.5587H66.2785V36.9329L68.721 36.9335ZM73.6194 36.5885L73.4005 36.0111C73.0729 36.1989 72.7027 36.2994 72.3252 36.303C71.9238 36.2764 71.5482 36.0963 71.2761 35.8001C71.004 35.5038 70.8564 35.1143 70.8639 34.7121C70.8715 34.31 71.0335 33.9262 71.3164 33.6403C71.5994 33.3545 71.9815 33.1885 72.3835 33.1769C72.7754 33.1735 73.1602 33.2818 73.4927 33.4892L73.4991 32.7583C73.1455 32.5881 72.7559 32.5061 72.3637 32.5196C72.0563 32.5019 71.7485 32.5478 71.4596 32.6543C71.1706 32.7608 70.9068 32.9257 70.6844 33.1387C70.462 33.3517 70.2859 33.6083 70.167 33.8924C70.0482 34.1764 69.9891 34.482 69.9936 34.7899C69.9759 35.0843 70.0207 35.3791 70.1251 35.6549C70.2296 35.9307 70.3912 36.1813 70.5994 36.3901C70.8077 36.5989 71.0578 36.7613 71.3333 36.8665C71.6088 36.9718 71.9035 37.0175 72.1979 37.0006C72.7004 36.9991 73.1924 36.8563 73.6176 36.5885M78.1191 32.5604H74.6538V33.2306H75.9218V36.9352H76.7315V33.2289H77.9264L78.1191 32.5604ZM82.5797 36.9346C82.2204 36.2256 81.7817 35.5598 81.272 34.9498V34.9434C81.5064 34.8546 81.7087 34.6976 81.853 34.4928C81.9974 34.2879 82.077 34.0445 82.0817 33.794C82.0817 33.1238 81.6573 32.5599 80.5213 32.5599H79.3398V36.9341H80.1436V35.2073H80.5155C80.6813 35.2604 80.986 35.805 81.6632 36.9329L82.5797 36.9346ZM81.2674 33.8862C81.268 33.9808 81.2497 34.0746 81.2134 34.1619C81.1771 34.2493 81.1237 34.3285 81.0562 34.3948C80.9888 34.4611 80.9087 34.5132 80.8207 34.548C80.7327 34.5827 80.6386 34.5995 80.5441 34.5972H80.1395V33.237H80.5371C80.6291 33.2243 80.7228 33.2316 80.8117 33.2586C80.9006 33.2855 80.9825 33.3314 81.052 33.3931C81.1214 33.4549 81.1766 33.5309 81.2138 33.616C81.251 33.7011 81.2693 33.7933 81.2674 33.8862ZM87.899 34.749C87.9177 34.1803 87.7211 33.6256 87.3485 33.1956C86.9106 32.7685 86.3252 32.5261 85.7135 32.5186C85.1019 32.5111 84.5107 32.7391 84.0625 33.1553C83.8552 33.373 83.6928 33.6294 83.5847 33.9099C83.4765 34.1903 83.4246 34.4894 83.432 34.7899C83.4216 35.1018 83.4778 35.4124 83.5969 35.7009C83.7159 35.9894 83.8952 36.2492 84.1226 36.463C84.4474 36.7645 84.8541 36.9633 85.2915 37.0344C85.729 37.1055 86.1777 37.0458 86.5813 36.8628C86.9849 36.6797 87.3254 36.3815 87.5601 36.0055C87.7947 35.6295 87.913 35.1926 87.9002 34.7496M87.0444 34.763C87.0444 35.7525 86.4734 36.3433 85.6626 36.3433C84.8517 36.3433 84.2755 35.7525 84.2755 34.763C84.2499 34.5662 84.2666 34.3661 84.3244 34.1762C84.3823 33.9863 84.4799 33.8109 84.6109 33.6618C84.7419 33.5126 84.9032 33.3931 85.0841 33.3113C85.2649 33.2294 85.4612 33.1871 85.6597 33.1871C85.8582 33.1871 86.0544 33.2294 86.2353 33.3113C86.4161 33.3931 86.5774 33.5126 86.7084 33.6618C86.8394 33.8109 86.9371 33.9863 86.9949 34.1762C87.0527 34.3661 87.07 34.5662 87.0444 34.763ZM93.2931 36.9335V32.5593H92.4962V34.9954C92.4962 35.1886 92.4962 35.4408 92.5096 35.6334H92.4962C92.366 35.4204 92.2219 35.2163 92.0648 35.0222L90.16 32.5599H89.3427V36.9341H90.1459V34.3579C90.1459 34.1518 90.1389 33.92 90.1255 33.7741H90.1389C90.2592 33.9597 90.3853 34.1244 90.5709 34.3719L92.5487 36.9341L93.2931 36.9335ZM95.7496 32.5593H94.9463V36.9335H95.7496V32.5593ZM100.821 36.5873L100.602 36.0099C100.274 36.1977 99.9041 36.2982 99.5266 36.3018C99.1252 36.2752 98.7496 36.0951 98.4775 35.7989C98.2054 35.5027 98.0578 35.1131 98.0653 34.711C98.0729 34.3088 98.2349 33.925 98.5178 33.6392C98.8008 33.3533 99.1829 33.1874 99.5849 33.1757C99.9768 33.1724 100.362 33.2807 100.694 33.4881L100.701 32.7572C100.347 32.587 99.9573 32.5051 99.5651 32.5184C99.2577 32.5007 98.9499 32.5466 98.661 32.6531C98.372 32.7596 98.1082 32.9246 97.8858 33.1376C97.6634 33.3506 97.4873 33.6071 97.3684 33.8912C97.2496 34.1753 97.1905 34.4808 97.195 34.7887C97.1772 35.0831 97.2219 35.378 97.3263 35.6538C97.4307 35.9297 97.5924 36.1803 97.8006 36.3891C98.0089 36.598 98.259 36.7604 98.5346 36.8656C98.8101 36.9708 99.1048 37.0164 99.3993 36.9994C99.9018 36.9978 100.394 36.855 100.819 36.5873M104.869 35.7437C104.869 34.3824 102.977 34.4297 102.977 33.62C102.977 33.3281 103.256 33.1752 103.608 33.1752C103.97 33.1871 104.322 33.2923 104.63 33.4805L104.643 32.7636C104.31 32.5935 103.941 32.509 103.567 32.5178C103.393 32.4947 103.217 32.5081 103.048 32.5573C102.88 32.6064 102.723 32.6902 102.589 32.8032C102.455 32.9162 102.345 33.056 102.268 33.2136C102.191 33.3713 102.148 33.5433 102.141 33.7187C102.132 34.0067 102.234 34.287 102.426 34.5021C102.957 35.0999 104.019 35.2119 104.019 35.8366C104.019 36.2014 103.634 36.3409 103.296 36.3409C102.94 36.3342 102.595 36.2185 102.306 36.0094L101.981 36.6001C102.378 36.8683 102.849 37.0076 103.329 36.9989C104.191 36.9989 104.869 36.5143 104.869 35.7437Z" fill="white"/>
</g>
<defs>
<clipPath id="clip0_2216_4876">
<rect width="107.414" height="37" fill="white" transform="translate(0.293053)"/>
</clipPath>
</defs>
</svg>
