<svg width="152" height="18" viewBox="0 0 152 18" fill="none" xmlns="http://www.w3.org/2000/svg">
<g clip-path="url(#clip0_46_394)">
<path d="M26.2518 5.34415C25.0842 7.70152 23.9973 9.88997 22.9177 12.0809C22.3988 13.1335 21.9312 14.2155 21.3682 15.2436C20.673 16.5116 19.5543 17.2705 18.1296 17.4761C16.1761 17.7576 14.3475 17.5324 12.9644 15.8923C12.4577 15.2926 12.1884 14.5606 11.8457 13.8728C10.5018 11.158 9.18237 8.43345 7.85069 5.71379C7.81886 5.65015 7.77725 5.5914 7.63527 5.55713V6.19604C7.63527 9.67945 7.62548 13.1604 7.64506 16.6438C7.64751 17.1016 7.53001 17.2264 7.0698 17.2215C5.21426 17.1946 3.36117 17.1995 1.50563 17.2191C1.10417 17.2215 0.949951 17.1383 0.949951 16.6879C0.967087 12.1666 0.962191 7.64766 0.959743 3.12632C0.959743 1.7922 1.9585 1.27813 2.93523 0.837501C5.57166 -0.359541 8.29376 -0.117195 10.9889 0.592707C12.0562 0.87422 12.7637 1.65266 13.1872 2.70773C14.3989 5.73093 15.6498 8.73944 16.9399 11.8899C17.3218 10.9818 17.662 10.1935 17.9876 9.39794C18.9325 7.08953 19.8603 4.77134 20.815 2.46783C21.3192 1.2512 22.3229 0.639218 23.5616 0.396872C25.5689 0.00765007 27.5884 -0.178393 29.608 0.333226C30.521 0.563332 31.3656 0.94521 32.1269 1.51803C32.6728 1.92683 32.9567 2.45069 32.9567 3.12632C32.9567 7.64766 32.9494 12.169 32.9665 16.6903C32.9665 17.1408 32.8074 17.2215 32.4059 17.2167C30.5308 17.1971 28.6557 17.1946 26.7806 17.2167C26.3473 17.2215 26.242 17.0967 26.2445 16.6732C26.2616 13.0894 26.2543 9.50565 26.2543 5.91942C26.2543 5.78723 26.2543 5.65749 26.2543 5.33926L26.2518 5.34415Z" fill="#0C66FE"/>
<path d="M89.8448 8.59236C89.8448 5.92411 89.8546 3.2583 89.835 0.590051C89.8325 0.159214 89.9525 0.0490569 90.3784 0.0539527C92.3539 0.0759842 94.3319 0.08088 96.3073 0.0539527C96.7871 0.0466089 96.8753 0.205725 96.8704 0.643906C96.8483 2.51658 96.8753 4.38925 96.8508 6.26192C96.8434 6.72458 96.9756 6.84208 97.4309 6.83719C100.244 6.81516 103.056 6.81271 105.867 6.83719C106.373 6.84208 106.466 6.67073 106.461 6.21296C106.437 4.34029 106.464 2.46762 106.442 0.594947C106.437 0.16411 106.559 0.0490569 106.985 0.0539527C108.961 0.0759842 110.939 0.0735362 112.914 0.0539527C113.321 0.0490569 113.472 0.127391 113.47 0.577811C113.453 5.95348 113.455 11.3292 113.47 16.7024C113.47 17.121 113.33 17.1993 112.951 17.1969C110.953 17.1797 108.956 17.1773 106.961 17.1969C106.55 17.2018 106.456 17.0696 106.461 16.6828C106.481 14.8101 106.459 12.9374 106.479 11.0648C106.483 10.6486 106.378 10.5042 105.94 10.5091C103.088 10.5262 100.234 10.5262 97.382 10.5091C96.9609 10.5091 96.8239 10.6217 96.8288 11.055C96.8508 12.9081 96.8263 14.7612 96.8483 16.6143C96.8532 17.0426 96.7847 17.2115 96.2951 17.2042C94.3196 17.1724 92.3417 17.1773 90.3662 17.2042C89.9256 17.2091 89.8325 17.0745 89.8374 16.6583C89.857 13.9705 89.8472 11.2826 89.8472 8.59481L89.8448 8.59236Z" fill="#0C66FE"/>
<path d="M137.984 0.0650043C140.571 0.0650043 143.159 0.0552126 145.746 0.0699002C147.178 0.077244 148.588 0.241256 149.927 0.804281C151.386 1.41871 151.979 2.29018 151.979 3.85441C151.979 4.97312 151.925 6.09672 151.993 7.21298C152.091 8.82617 151.181 9.67071 149.966 10.2142C148.62 10.8139 147.183 10.9681 145.731 10.9755C142.635 10.9902 139.538 10.9901 136.442 10.9681C135.959 10.9657 135.825 11.0905 135.834 11.5752C135.864 13.2643 135.827 14.9534 135.859 16.6424C135.869 17.1149 135.722 17.2079 135.279 17.203C133.323 17.1785 131.367 17.1785 129.411 17.203C128.973 17.2079 128.875 17.0733 128.875 16.6547C128.89 11.301 128.89 5.9474 128.875 0.593759C128.875 0.155578 129.012 0.0552126 129.428 0.0576605C132.28 0.0747961 135.132 0.0674523 137.984 0.0674523V0.0650043ZM139.746 7.15178C139.746 7.15178 139.746 7.15913 139.746 7.16402C140.826 7.16402 141.903 7.17137 142.982 7.15913C143.244 7.15668 143.511 7.11996 143.766 7.05876C144.691 6.8311 145.166 6.02573 144.936 5.10531C144.745 4.34645 144.15 3.89113 143.181 3.87889C140.86 3.85441 138.539 3.874 136.219 3.8642C135.925 3.8642 135.832 3.95723 135.839 4.24853C135.857 5.06125 135.866 5.87641 135.837 6.68912C135.822 7.08324 135.969 7.16402 136.329 7.15913C137.467 7.13954 138.608 7.15178 139.749 7.15178H139.746Z" fill="#0C66FE"/>
<path d="M78.4148 17.207C76.1113 17.207 73.8102 17.2291 71.5067 17.1997C69.9694 17.1801 68.4615 16.9426 67.0857 16.1911C65.8814 15.5326 65.2326 14.5681 65.2522 13.1337C65.2914 10.2426 65.3379 7.34918 65.24 4.46061C65.1666 2.28195 66.3734 1.21954 68.0576 0.617349C69.1959 0.210991 70.388 0.027396 71.5948 0.0249481C76.3634 0.0127084 81.132 0.0249481 85.8981 0.0078125C86.3877 0.0078125 86.5297 0.144897 86.5077 0.624693C86.471 1.43741 86.4661 2.25502 86.5077 3.06773C86.5371 3.60873 86.3975 3.78743 85.8174 3.78253C81.9472 3.75316 78.0745 3.77029 74.2019 3.7654C73.8739 3.7654 73.5507 3.78253 73.235 3.87555C72.5642 4.07628 72.2631 4.4704 72.2631 5.17296C72.2607 7.45444 72.2607 9.73347 72.2631 12.0149C72.2631 12.8668 72.6303 13.3001 73.4602 13.4323C73.7808 13.4837 74.1089 13.5033 74.432 13.5033C78.2434 13.5082 82.0524 13.5155 85.8639 13.4959C86.3706 13.4935 86.5297 13.6232 86.5028 14.1373C86.4587 14.9696 86.4661 15.8068 86.5028 16.6415C86.5224 17.0944 86.3951 17.2266 85.93 17.2242C83.4233 17.1997 80.9166 17.2119 78.4099 17.2119L78.4148 17.207Z" fill="#0C66FE"/>
<path d="M124.713 8.58797C124.713 11.2513 124.698 13.9171 124.725 16.5805C124.73 17.0774 124.575 17.1827 124.108 17.1778C122.154 17.1533 120.199 17.1558 118.245 17.1778C117.824 17.1827 117.694 17.0701 117.694 16.6368C117.709 11.288 117.709 5.93685 117.694 0.58811C117.694 0.11321 117.844 0.0177403 118.282 0.0226362C120.235 0.0446676 122.191 0.0471156 124.145 0.0226362C124.598 0.0177403 124.727 0.130345 124.722 0.593006C124.7 3.25636 124.71 5.92217 124.71 8.58552L124.713 8.58797Z" fill="#0C66FE"/>
<path d="M64.1344 0.091061C63.2115 0.85237 62.3572 1.56227 61.4955 2.26728C58.9913 4.3211 56.4944 6.38471 53.9755 8.41894C53.574 8.74207 53.6401 8.87426 54 9.15577C57.1749 11.6429 60.3352 14.1447 63.5004 16.644C63.6889 16.7933 63.8749 16.9476 64.0879 17.1189C63.8994 17.2609 63.7134 17.2021 63.5469 17.2021C61.1822 17.207 58.8175 17.1972 56.4552 17.2144C56.0832 17.2168 55.8016 17.1116 55.5201 16.8766C53.7013 15.3686 51.8776 13.8656 50.0392 12.3822C49.694 12.1055 49.6745 11.9587 50.0319 11.6771C51.0698 10.8571 52.0636 9.97583 53.1114 9.16801C53.5471 8.83265 53.4443 8.67598 53.082 8.40181C52.0734 7.6405 51.0967 6.84003 50.0882 6.07872C49.7381 5.81434 49.6279 5.66991 50.0514 5.34189C52.1934 3.68463 54.3133 1.99556 56.4381 0.316271C56.6486 0.149812 56.8494 0.0102791 57.1431 0.012727C59.3658 0.0225188 61.5861 0.0176229 63.8088 0.0225188C63.8847 0.0225188 63.9606 0.054342 64.1344 0.091061Z" fill="#0C66FE"/>
<path d="M35.0303 17.2075C37.1428 15.538 39.1159 13.9762 41.0914 12.4169C42.494 11.3104 43.9065 10.2113 45.3018 9.09501C45.5833 8.8698 45.7498 8.83308 46.0582 9.10235C47.0545 9.96647 48.0925 10.7841 49.1206 11.6115C49.4364 11.8661 49.6689 12.0081 49.1745 12.3997C47.2626 13.915 45.3997 15.489 43.5222 17.0459C43.3875 17.1585 43.2578 17.2124 43.084 17.2124C40.4574 17.2099 37.8283 17.2124 35.0278 17.2124L35.0303 17.2075Z" fill="#0C66FE"/>
<path d="M35.2242 0.0351562C37.562 0.0351562 39.9022 0.0351562 42.24 0.0351562C42.6072 0.0351562 42.8104 0.336253 43.0527 0.524744C45.131 2.14283 47.1873 3.78784 49.2631 5.40838C49.5642 5.64338 49.5593 5.74619 49.2607 5.9763C48.1493 6.83063 47.0576 7.70944 45.9609 8.58335C45.8018 8.71065 45.6965 8.83304 45.4615 8.63721C42.0442 5.80495 38.6122 2.98492 35.1851 0.162449C35.1973 0.120834 35.2095 0.0792191 35.2218 0.0351562H35.2242Z" fill="#0C66FE"/>
</g>
<defs>
<clipPath id="clip0_46_394">
<rect width="151.05" height="17.5786" fill="white" transform="translate(0.949951)"/>
</clipPath>
</defs>
</svg>
