<svg width="116" height="30" viewBox="0 0 116 30" fill="none" xmlns="http://www.w3.org/2000/svg">
<path fill-rule="evenodd" clip-rule="evenodd" d="M79.7994 12.5802V29.3869H72.8393V12.5802C73.7735 9.91558 78.9801 9.93855 79.7994 12.5802ZM2.6952 0.130166H3.46088H9.32601H9.41023C9.8237 9.08865 13.6521 14.8542 17.4805 14.8619C21.3089 14.8619 25.1373 9.08865 25.5508 0.130166H25.7499H31.5002H32.3807L35.0836 29.3869H27.8402L26.8908 16.064C24.2874 19.8924 20.8878 22.0134 17.4805 22.0134C14.1268 22.0134 10.7655 19.946 8.17749 16.2171L7.24335 29.3869H0L2.6952 0.130166ZM52.1353 9.96152C55.466 4.20359 61.7599 0.535977 68.5668 0.428782L68.5515 7.88653C62.74 8.05498 55.6115 12.1361 55.6115 18.629V29.3869H48.6514V18.629C48.6514 12.1361 41.5459 8.05498 35.742 7.88653L35.7038 0.428782C42.5183 0.528321 48.8046 4.19594 52.1353 9.96152ZM91.7517 18.2156V29.3869H84.8988V0H101.56C106.078 0 109.232 0.528321 111.032 1.57731C112.249 2.28173 113.191 3.20821 113.857 4.36439C114.531 5.52822 114.868 6.79926 114.868 8.18514C114.868 10.9799 114.094 13.1468 112.532 14.6552C111.575 15.5816 110.297 16.2707 108.704 16.7608C109.967 17.1436 110.917 17.5724 111.568 18.0318C112.211 18.4912 112.8 19.1574 113.321 20.0532C113.711 20.7347 113.995 21.4085 114.156 22.067C114.324 22.7178 114.454 23.6825 114.569 24.9612C114.753 27.0669 115.021 28.5446 115.35 29.3945H107.647C107.402 28.7054 107.173 27.3119 106.935 25.2216C106.744 23.4988 106.399 22.1818 105.901 21.2706C105.404 20.3595 104.653 19.6397 103.643 19.1344C102.402 18.5142 100.58 18.2309 98.214 18.2309H91.7517V18.2156ZM91.7517 12.9783H102.31C103.926 12.9783 105.059 12.7716 105.741 12.3351C106.767 11.6767 107.28 10.5434 107.28 8.92785C107.28 7.13616 106.506 5.98763 104.967 5.48228C104.431 5.30618 103.551 5.22961 102.318 5.22961H91.7593V12.9783H91.7517Z" fill="#224E90"/>
<path d="M76.3155 9.58634C78.9627 9.58634 81.1087 7.44037 81.1087 4.79317C81.1087 2.14598 78.9627 0 76.3155 0C73.6683 0 71.5223 2.14598 71.5223 4.79317C71.5223 7.44037 73.6683 9.58634 76.3155 9.58634Z" fill="url(#paint0_radial_2394_4561)"/>
<defs>
<radialGradient id="paint0_radial_2394_4561" cx="0" cy="0" r="1" gradientUnits="userSpaceOnUse" gradientTransform="translate(79.2785 1.96474) scale(11.2363 11.2363)">
<stop stop-color="#E9DE37"/>
<stop offset="1" stop-color="#C91E1D"/>
</radialGradient>
</defs>
</svg>
