<svg width="125" height="50" viewBox="0 0 125 50" fill="none" xmlns="http://www.w3.org/2000/svg">
<g clip-path="url(#clip0_209_62)">
<path d="M47.2 18.99V42.99H35V18.99H47.2ZM59.4 6.98998C60.989 6.97679 62.5651 7.27673 64.0381 7.87266C65.5112 8.46859 66.8525 9.34884 67.9854 10.4632C69.1183 11.5775 70.0206 12.904 70.6408 14.3671C71.261 15.8301 71.5869 17.401 71.6 18.99V42.99H59.4V18.99H47.2V6.98998H59.4ZM89.9 6.98998V42.99C88.3106 43.0045 86.734 42.7055 85.2603 42.11C83.7866 41.5145 82.4448 40.6343 81.3117 39.5198C80.1785 38.4052 79.2763 37.0781 78.6566 35.6145C78.0368 34.1508 77.7118 32.5794 77.7 30.99V6.98998H89.9Z" fill="#03B584"/>
</g>
<defs>
<clipPath id="clip0_209_62">
<rect width="54.9" height="35.96" fill="white" transform="translate(35 7)"/>
</clipPath>
</defs>
</svg>
