<svg width="94" height="20" viewBox="0 0 94 20" fill="none" xmlns="http://www.w3.org/2000/svg">
<path d="M0.000244141 5.82079C0.0173441 5.80239 0.0443439 5.78769 0.0492439 5.76559C0.135044 5.44819 0.322543 5.27659 0.655943 5.24229C1.18414 5.18829 1.71364 5.19819 2.24064 5.24839C2.66954 5.28879 2.98094 5.53639 3.18924 5.90529C3.48834 6.43599 3.75544 6.98389 4.04354 7.51949C4.37444 8.13469 4.69794 8.75369 5.02404 9.37139C5.44074 10.1582 5.86234 10.9426 6.24224 11.7478C6.41874 12.1216 6.59644 12.4955 6.77664 12.8766C6.84894 12.8288 6.81214 12.7688 6.80724 12.7148C6.72634 10.4401 6.78884 8.16539 6.77054 5.89059C6.77054 5.76069 6.72394 5.63449 6.77414 5.49719C6.81214 5.39299 6.86244 5.31579 6.95924 5.28149C7.27424 5.16749 7.60394 5.16259 7.93234 5.19199C8.09414 5.20669 8.25844 5.21529 8.41774 5.26919C8.60284 5.33299 8.67634 5.40649 8.68854 5.60019C8.69104 5.63079 8.68854 5.66139 8.68854 5.69079C8.68854 8.79039 8.68854 11.8888 8.68854 14.9884C8.68854 15.1685 8.65794 15.3462 8.56844 15.5068C8.42144 15.7691 8.16524 15.8512 7.89434 15.8549C7.46544 15.861 7.03034 15.9014 6.60624 15.8255C6.32804 15.7764 6.09274 15.6269 5.92114 15.3879C5.55344 14.8744 5.30714 14.2934 5.00074 13.7468C4.84754 13.4735 4.72374 13.1843 4.56074 12.9171C4.36214 12.5923 4.20404 12.2467 4.02394 11.9133C3.79344 11.4868 3.58024 11.0492 3.34734 10.6239C3.12554 10.217 2.92334 9.79909 2.70754 9.38979C2.47474 8.94979 2.27244 8.49379 2.08004 8.03419C2.02364 7.90059 1.96364 7.76829 1.89014 7.63829C1.87294 7.85899 1.86194 8.07709 1.88154 8.29529C1.89744 8.47049 1.91584 8.64699 1.91704 8.82229C1.92444 11.0088 1.92934 13.1941 1.93304 15.3806C1.93304 15.698 1.83614 15.8144 1.49174 15.8598C1.10694 15.91 0.719644 15.9333 0.337244 15.8328C0.217144 15.8022 0.106844 15.7458 0.000244141 15.6821C0.000244141 12.395 0.000244141 9.10789 0.000244141 5.82079Z" fill="white"/>
<path d="M70.6507 0.555643C70.6483 0.613243 70.7034 0.618143 70.7353 0.642643C70.8199 0.710043 70.8652 0.793443 70.8652 0.901243C70.8652 0.931943 70.8652 0.962543 70.8652 0.991943C70.8652 7.00734 70.8652 13.0213 70.8676 19.0367C70.8676 19.1384 70.8517 19.2364 70.8333 19.3333C70.799 19.511 70.6446 19.5294 70.5061 19.5416C70.3541 19.5551 70.2009 19.549 70.0477 19.5441C69.908 19.5392 69.7769 19.3933 69.7683 19.2377C69.7634 19.1568 69.7658 19.0759 69.7658 18.995C69.7658 13.1574 69.7646 7.31984 69.7695 1.48344C69.7695 1.16974 69.6727 0.832643 69.919 0.554443H70.6532L70.6507 0.555643Z" fill="white"/>
<path d="M78.8206 10.0798C78.8206 8.40073 78.8034 6.72283 78.8304 5.04373C78.8402 4.43953 79.203 3.96402 79.9102 3.86962C80.1185 3.84142 80.3232 3.84393 80.5291 3.84393C83.6654 3.84143 86.8009 3.83893 89.9369 3.84753C90.3109 3.84753 90.6879 3.89412 90.9959 4.15882C91.2499 4.37582 91.3559 4.66013 91.3949 4.97513C91.4449 5.37713 91.4269 5.78153 91.4269 6.18483C91.4269 9.08093 91.4269 11.977 91.4269 14.8732C91.4269 15.1122 91.4019 15.3511 91.3269 15.5779C91.1719 16.0424 90.7809 16.2998 90.3059 16.3537C89.8549 16.4052 89.4029 16.3807 88.9499 16.3819C86.0639 16.3843 83.1789 16.3819 80.2925 16.3831C79.9923 16.3831 79.7006 16.35 79.4358 16.1956C79.0951 15.9958 78.9199 15.6906 78.85 15.3083C78.8095 15.0864 78.823 14.8658 78.823 14.6452C78.8206 13.1242 78.8218 11.602 78.8218 10.081L78.8206 10.0798ZM89.4689 10.1116C89.4689 8.72183 89.4659 7.33322 89.4729 5.94332C89.4729 5.81592 89.4409 5.78653 89.3139 5.78653C86.5209 5.79013 83.7267 5.79013 80.9335 5.78653C80.8061 5.78653 80.7767 5.81832 80.7767 5.94332C80.7803 8.72182 80.7803 11.5003 80.7767 14.28C80.7767 14.4074 80.8085 14.4368 80.9348 14.4356C83.7279 14.4319 86.5219 14.4319 89.3159 14.4356C89.4429 14.4356 89.4739 14.405 89.4729 14.2787C89.4679 12.8889 89.4689 11.5003 89.4689 10.1104V10.1116Z" fill="white"/>
<path d="M23.3762 5.0561C23.7831 5.0867 24.1508 5.1027 24.5197 5.1394C24.7428 5.1615 24.9634 5.2142 25.1864 5.235C25.3445 5.2497 25.5174 5.3441 25.6865 5.398C26.2037 5.5623 26.6621 5.8319 27.0567 6.1971C27.4073 6.5207 27.6928 6.8945 27.8914 7.3357C27.9992 7.5759 28.1206 7.81 28.188 8.0662C28.2897 8.4474 28.3816 8.831 28.4331 9.2244C28.4503 9.358 28.4184 9.5038 28.4968 9.6338C28.5201 9.673 28.4858 9.7453 28.487 9.8017C28.4944 10.0027 28.5226 10.2037 28.514 10.4047C28.4821 11.1364 28.4319 11.8668 28.2321 12.5765C28.0176 13.3376 27.6634 14.0276 27.1192 14.6085C26.7111 15.0436 26.2123 15.3512 25.6669 15.5902C25.3151 15.7447 24.9487 15.8538 24.5736 15.9212C23.9902 16.0266 23.397 16.0535 22.8088 16.0106C22.2425 15.969 21.6812 15.877 21.137 15.6883C20.4421 15.4468 19.8685 15.0375 19.4138 14.4774C19.0633 14.046 18.8181 13.5435 18.6674 13.0042C18.573 12.6647 18.4921 12.3228 18.448 11.9698C18.3769 11.4109 18.3463 10.8508 18.361 10.2882C18.372 9.8838 18.4284 9.4842 18.5019 9.0835C18.5755 8.6851 18.6821 8.3003 18.8292 7.9277C18.9689 7.5723 19.1564 7.2365 19.3807 6.9239C19.4984 6.7585 19.605 6.5734 19.7594 6.4484C20.0229 6.2351 20.273 6.0047 20.5634 5.8209C21.1199 5.4703 21.7351 5.2914 22.3663 5.1578C22.5894 5.11 22.8235 5.083 23.0551 5.0904C23.1764 5.0941 23.2916 5.0291 23.3762 5.0549V5.0561ZM26.1964 10.9954C26.1964 10.9954 26.2062 10.9917 26.2111 10.9905C26.2062 10.9905 26.2013 10.9917 26.1964 10.993C26.2613 10.8876 26.2209 10.7687 26.2417 10.6571C26.2417 10.6424 26.2417 10.6277 26.2417 10.613C26.2294 10.2208 26.2184 9.8299 26.1682 9.4401C26.1204 9.0687 26.0542 8.7047 25.9181 8.3554C25.6583 7.685 25.2122 7.1985 24.5124 6.9705C23.978 6.7965 23.4265 6.7989 22.8811 6.8675C22.0832 6.968 21.5194 7.4362 21.1235 8.103C20.7987 8.652 20.6799 9.2697 20.659 9.8973C20.6321 10.6743 20.6075 11.455 20.8049 12.221C20.963 12.8375 21.1946 13.3915 21.7449 13.7935C22.1616 14.0974 22.6078 14.22 23.1029 14.2519C23.3064 14.2654 23.5074 14.2188 23.7084 14.2261C24.2562 14.2457 24.7268 14.0313 25.1362 13.7077C25.624 13.3229 25.8887 12.7873 26.0456 12.1904C26.1179 11.9158 26.1449 11.6364 26.189 11.3594C26.2074 11.2454 26.2307 11.118 26.1976 10.9966L26.1964 10.9954Z" fill="white"/>
<path d="M30.355 10.6755C30.355 9.07735 30.3402 7.48035 30.3648 5.88215C30.3709 5.45325 30.4469 5.27305 30.9383 5.19955C31.0241 5.18725 31.1112 5.18235 31.197 5.18235C32.0083 5.18235 32.8184 5.19335 33.6298 5.17625C34.033 5.16765 34.4375 5.18845 34.8334 5.22525C35.3211 5.27065 35.8004 5.40665 36.2502 5.62355C36.722 5.85155 37.1007 6.17875 37.379 6.62495C37.5751 6.93865 37.6363 7.28675 37.7001 7.63975C37.7748 8.05395 37.7417 8.46335 37.6658 8.87265C37.5836 9.31635 37.3728 9.69385 37.0689 10.0272C36.8323 10.287 36.5529 10.4782 36.244 10.64C36.1031 10.7135 35.9646 10.7846 35.8102 10.8238C35.7783 10.8312 35.7268 10.863 35.7281 10.879C35.7317 10.9133 35.7575 10.9537 35.7869 10.9733C35.8567 11.0211 35.9376 11.053 36.0087 11.1008C36.4463 11.395 36.7331 11.8166 36.9524 12.2786C37.3888 13.1991 37.7748 14.1416 38.1658 15.0828C38.2283 15.2348 38.27 15.3966 38.3043 15.5571C38.33 15.676 38.2651 15.7618 38.1523 15.8059C37.9844 15.8709 37.8067 15.8868 37.6302 15.893C37.2944 15.904 36.9573 15.9052 36.6203 15.893C36.3899 15.8844 36.1742 15.8145 36.0038 15.6466C35.9867 15.6295 35.9707 15.6049 35.967 15.5817C35.9254 15.2875 35.766 15.0363 35.6631 14.7654C35.5025 14.3413 35.3175 13.9246 35.1594 13.4993C35 13.0704 34.8052 12.6598 34.576 12.2639C34.3014 11.7896 33.8737 11.5531 33.332 11.5126C33.1236 11.4979 32.914 11.5126 32.7057 11.4967C32.5696 11.4869 32.528 11.5273 32.5292 11.6634C32.5341 12.6267 32.5316 13.5913 32.5316 14.5546C32.5316 14.8634 32.5316 15.1735 32.5316 15.4824C32.5316 15.6809 32.387 15.8035 32.1897 15.8366C31.8649 15.8917 31.5414 15.8954 31.2153 15.8917C30.9923 15.8893 30.7729 15.8623 30.5621 15.7851C30.4003 15.7263 30.3513 15.6025 30.3513 15.437C30.355 13.8499 30.3525 12.2615 30.3525 10.6743L30.355 10.6755ZM32.5316 8.33095H32.5353C32.5353 8.78685 32.5378 9.24285 32.5341 9.69875C32.5341 9.82375 32.566 9.87765 32.7081 9.86915C32.9569 9.85445 33.207 9.86055 33.457 9.86425C33.7303 9.86785 33.9999 9.86425 34.2696 9.80535C34.6924 9.71225 35.0687 9.54185 35.2954 9.15825C35.4976 8.81635 35.5271 8.43885 35.4694 8.04545C35.3959 7.54415 35.1361 7.20215 34.6654 7.00735C34.3223 6.86515 33.9595 6.88355 33.6028 6.85775C33.294 6.83575 32.9814 6.85775 32.6714 6.84555C32.5488 6.84065 32.5292 6.88475 32.5304 6.99135C32.5353 7.43745 32.5329 7.88365 32.5329 8.32855L32.5316 8.33095Z" fill="#FFBE01"/>
<path d="M43.5708 15.8955C43.2509 15.8918 42.9322 15.9016 42.6123 15.8673C42.3697 15.8416 42.1858 15.7141 42.1062 15.4813C42.0142 15.2092 41.9407 14.9285 41.8255 14.6662C41.7262 14.4395 41.6944 14.1944 41.6 13.9689C41.5742 13.9088 41.5681 13.8438 41.486 13.8046C41.4149 13.7715 41.5056 13.6735 41.4664 13.6012C41.437 13.5485 41.459 13.4713 41.3708 13.4492C41.3303 13.4394 41.3389 13.3928 41.3426 13.3573C41.3549 13.2506 41.3671 13.1465 41.2446 13.0827C41.2053 13.0631 41.2249 13.0153 41.2262 12.9749C41.2262 12.8817 41.2433 12.7751 41.1318 12.7224C41.0877 12.7016 41.0938 12.6648 41.0963 12.6329C41.1024 12.5226 41.1244 12.4111 40.9945 12.3474C40.9639 12.3327 40.981 12.2849 40.9786 12.2505C40.9749 12.1549 41.0043 12.0446 40.8805 11.9883C40.8389 11.9699 40.8573 11.9221 40.8585 11.8816C40.8609 11.7885 40.8769 11.6819 40.7678 11.6279C40.7237 11.6071 40.7273 11.5716 40.7298 11.5397C40.7371 11.4294 40.7629 11.3154 40.6293 11.2541C40.6158 11.248 40.6085 11.2198 40.6072 11.2014C40.5962 10.8288 40.4246 10.5065 40.2923 10.1694C40.2273 10.0052 40.1807 9.83119 40.1207 9.66329C40.0471 9.45489 39.9846 9.24289 39.905 9.03579C39.8474 8.88499 39.7996 8.72439 39.7554 8.56629C39.7027 8.37879 39.6378 8.19619 39.5789 8.01109C39.4748 7.68639 39.3681 7.36029 39.2542 7.03919C39.188 6.85169 39.1402 6.65319 39.0409 6.46929C38.9759 6.34799 38.9919 6.16779 38.9245 6.02689C38.8546 5.87979 38.8166 5.73029 38.8203 5.56729C38.8252 5.35399 38.862 5.29269 39.0789 5.24619C39.5005 5.15669 39.9282 5.17379 40.3548 5.19349C40.4307 5.19709 40.5067 5.21179 40.5827 5.21549C40.8487 5.22649 41.0141 5.34909 41.0889 5.61259C41.2139 6.05139 41.3561 6.48519 41.4921 6.92029C41.6233 7.33829 41.7458 7.75869 41.8892 8.17289C42.013 8.52829 42.1037 8.89359 42.2422 9.24409C42.3354 9.47819 42.3893 9.72699 42.4653 9.96839C42.817 11.0862 43.1712 12.2027 43.523 13.3193C43.5512 13.4112 43.5671 13.5068 43.5953 13.5987C43.6088 13.6441 43.6161 13.7115 43.6823 13.7041C43.7313 13.698 43.7424 13.6428 43.7558 13.5975C43.8612 13.2494 43.9679 12.9001 44.077 12.552C44.3368 11.7223 44.5978 10.8926 44.8577 10.064C45.0035 9.59829 45.1298 9.12519 45.2817 8.66069C45.4411 8.17409 45.5808 7.67899 45.7254 7.18879C45.8198 6.86639 45.9252 6.53799 46.049 6.22169C46.1053 6.07959 46.1286 5.92999 46.1409 5.77319C46.1507 5.65059 46.2475 5.53539 46.3076 5.41769C46.3774 5.28169 46.4939 5.25109 46.6434 5.23879C46.9204 5.21549 47.1974 5.16039 47.4744 5.18849C47.6901 5.21059 47.9107 5.18239 48.1227 5.24739C48.3053 5.30249 48.3605 5.39809 48.3213 5.58689C48.195 6.19359 47.9732 6.77199 47.7808 7.35909C47.5074 8.19499 47.2219 9.02839 46.9388 9.86059C46.6826 10.6107 46.4179 11.3583 46.1642 12.1084C45.8627 12.9969 45.5697 13.888 45.267 14.7765C45.1849 15.0192 45.0942 15.2594 45.0231 15.5058C44.9692 15.6933 44.8466 15.8011 44.6518 15.8416C44.2939 15.9164 43.9323 15.8894 43.5732 15.8955H43.5708Z" fill="#FFBE01"/>
<path d="M11.0159 10.4524C11.0159 8.92521 11.0208 7.39941 11.0134 5.87221C11.011 5.33541 11.2659 5.19941 11.7047 5.18591C12.1888 5.17001 12.6729 5.18221 13.1583 5.18221C14.4023 5.18221 15.6463 5.18221 16.8915 5.18221C17.1366 5.18221 17.1905 5.23741 17.2604 5.48001C17.3682 5.85261 17.3462 6.22521 17.2837 6.59781C17.2506 6.79511 17.1182 6.87601 16.8535 6.87601C15.9257 6.87851 14.9967 6.87851 14.0689 6.87851C13.8189 6.87851 13.5688 6.88461 13.3188 6.87851C13.2146 6.87601 13.1926 6.91031 13.1926 7.00841C13.1962 7.77441 13.1963 8.54041 13.1889 9.30641C13.1889 9.42901 13.2306 9.44741 13.3384 9.44611C14.1437 9.44251 14.9501 9.44611 15.7553 9.44491C15.9882 9.44491 16.2186 9.49271 16.4527 9.47311C16.5397 9.46571 16.6035 9.52701 16.6353 9.60671C16.6647 9.68021 16.6978 9.75501 16.7064 9.83221C16.7469 10.2023 16.7824 10.5749 16.6696 10.9389C16.6304 11.0652 16.5152 11.1056 16.3902 11.1056C15.3705 11.1056 14.3508 11.1081 13.3311 11.0995C13.2024 11.0995 13.1889 11.1314 13.1901 11.2466C13.195 12.1388 13.195 13.0323 13.1877 13.9245C13.1877 14.0557 13.2159 14.0986 13.3556 14.0973C14.5187 14.0912 15.6806 14.0961 16.8437 14.0924C17.2702 14.0912 17.2898 14.1856 17.3376 14.5214C17.3817 14.8352 17.3646 15.1599 17.3106 15.4762C17.2739 15.687 17.1746 15.7544 16.9307 15.7728C16.9099 15.774 16.8903 15.7728 16.8694 15.7728C15.1511 15.7728 13.4328 15.7715 11.7133 15.774C11.4167 15.774 11.196 15.671 11.071 15.394C11.0269 15.2972 11.0122 15.1967 11.0122 15.0913C11.0122 13.5446 11.0122 11.9966 11.0122 10.4499L11.0159 10.4524Z" fill="white"/>
<path d="M54.0142 10.2502C54.0436 10.3017 54.1012 10.3054 54.1478 10.314C54.4726 10.3752 54.7692 10.5174 55.0682 10.6473C55.219 10.7135 55.3403 10.8471 55.4752 10.9513C55.6578 11.0922 55.7595 11.2932 55.8906 11.4758C56.36 12.1217 56.3257 12.8142 56.1885 13.5447C56.0929 14.057 55.8196 14.4676 55.5107 14.8536C55.3342 15.0755 55.0609 15.2152 54.8231 15.3819C54.5229 15.5927 54.1699 15.6809 53.8414 15.8182C53.6882 15.8819 53.4982 15.8868 53.3279 15.9261C52.8192 16.0437 52.302 16.0204 51.7873 16.0143C51.5115 16.0106 51.2394 15.9457 50.9673 15.8954C50.4857 15.8059 50.0261 15.6601 49.5971 15.4211C49.3434 15.2802 49.2515 15.0522 49.2331 14.7813C49.2233 14.6343 49.2135 14.4884 49.2012 14.3426C49.1865 14.1747 49.2208 14.0116 49.2613 13.8499C49.3128 13.6391 49.4267 13.5729 49.6228 13.6709C49.8692 13.7935 50.1155 13.9111 50.3729 14.008C50.6646 14.1158 50.9563 14.2151 51.2725 14.2421C51.4343 14.2555 51.5973 14.3046 51.7615 14.3095C51.992 14.3168 52.2211 14.2678 52.4479 14.247C52.693 14.2237 52.9038 14.155 53.1085 14.0435C53.5436 13.8045 53.7948 13.4552 53.7948 12.9392C53.7948 12.5544 53.7274 12.2051 53.4713 11.8975C53.2176 11.5935 52.8756 11.4526 52.5128 11.3606C51.889 11.2001 51.248 11.2479 50.6119 11.243C50.4759 11.243 50.3496 11.2025 50.3018 11.0726C50.1633 10.7025 50.1719 10.314 50.2467 9.93766C50.3006 9.67296 50.3754 9.64356 50.6462 9.63866C51.074 9.63006 51.5054 9.66436 51.9295 9.62026C52.5067 9.56016 53.0423 9.36406 53.3119 8.79666C53.5546 8.28556 53.5522 7.75606 53.1967 7.29276C53.0068 7.04396 52.7384 6.89326 52.394 6.84416C52.014 6.79026 51.65 6.78166 51.2848 6.88706C50.9306 6.98886 50.6033 7.14816 50.2822 7.32956C50.1352 7.41286 49.9893 7.50726 49.8324 7.56606C49.6326 7.63966 49.5321 7.59676 49.4942 7.39206C49.4218 7.00356 49.4035 6.61016 49.5089 6.22156C49.5567 6.04386 49.689 5.92626 49.8287 5.83916C50.5813 5.37226 51.4073 5.14676 52.2935 5.08546C52.6832 5.05846 53.0607 5.11606 53.4443 5.13326C53.6588 5.14306 53.8684 5.21786 54.0755 5.28526C54.5817 5.45196 55.007 5.73626 55.3367 6.15296C55.4653 6.31596 55.5634 6.49736 55.6308 6.69836C55.7999 7.20456 55.8269 7.70946 55.7632 8.24266C55.6958 8.80766 55.4494 9.25746 55.0658 9.64476C54.817 9.89596 54.5167 10.0848 54.165 10.1755C54.1368 10.1828 54.1098 10.1963 54.0816 10.2049C54.0571 10.2122 54.0314 10.2147 54.0154 10.2539L54.0142 10.2502Z" fill="#FFBE01"/>
<path d="M61.5321 15.7729C60.5333 15.7729 59.5332 15.7667 58.5343 15.7765C58.1396 15.7802 57.9852 15.5706 57.9362 15.2863C57.9056 15.111 57.9092 14.9333 57.8994 14.7568C57.8896 14.5767 57.9411 14.4149 57.9705 14.2457C58.0036 14.057 58.0869 13.8891 58.212 13.7469C58.435 13.492 58.6642 13.2432 58.8971 12.9968C59.0625 12.8228 59.228 12.6512 59.3824 12.4662C59.5467 12.2676 59.7526 12.1034 59.9266 11.9122C60.1864 11.6242 60.4463 11.3361 60.7012 11.0444C60.9083 10.8067 61.1142 10.5652 61.287 10.3054C61.4513 10.0578 61.6302 9.81274 61.7307 9.52224C61.7908 9.34704 61.8692 9.18034 61.9207 8.99894C62.0383 8.59084 62.031 8.19124 61.906 7.79664C61.7638 7.34804 61.3042 7.05024 60.8286 7.03064C60.6056 7.02074 60.385 6.98404 60.1656 7.03914C59.9205 7.10044 59.6655 7.13354 59.4498 7.29044C59.353 7.36024 59.2084 7.33574 59.0968 7.40194C58.9081 7.51594 58.7157 7.62374 58.5233 7.73044C58.3762 7.81134 58.3112 7.79174 58.2181 7.65444C58.1176 7.50614 58.1262 7.33334 58.1164 7.17034C58.1004 6.91294 58.0931 6.65184 58.1188 6.39574C58.1396 6.18244 58.2573 6.00234 58.4448 5.88214C59.1226 5.44464 59.8727 5.22034 60.6705 5.11614C61.1069 5.05984 61.542 5.04634 61.9734 5.09904C62.243 5.13214 62.5139 5.20444 62.7749 5.29754C63.4711 5.54634 64.014 5.96794 64.3192 6.64944C64.4638 6.97294 64.5263 7.31734 64.5423 7.67774C64.5668 8.20714 64.5043 8.72564 64.3413 9.22074C64.1954 9.66564 63.965 10.0787 63.6978 10.4684C63.1941 11.205 62.5849 11.8497 61.9574 12.4821C61.4905 12.9527 61.0358 13.4368 60.5786 13.9173C60.5529 13.9442 60.4818 13.9553 60.521 14.0178C60.5468 14.0582 60.5896 14.0742 60.6399 14.0693C61.2539 14.0055 61.8704 14.0509 62.4857 14.0423C63.1279 14.0349 63.7701 14.046 64.4123 14.0423C64.8045 14.0386 64.9271 14.2225 64.9688 14.6073C65.0019 14.9113 64.9823 15.2091 64.9296 15.5069C64.8977 15.692 64.7972 15.7741 64.6084 15.7741C63.5838 15.7741 62.5592 15.7741 61.5334 15.7741L61.5321 15.7729Z" fill="#FFBE01"/>
<path d="M89.346 2.21388C89.346 2.47738 89.343 2.74088 89.349 3.00438C89.35 3.09018 89.325 3.11468 89.24 3.11348C88.985 3.10738 88.73 3.10738 88.475 3.11348C88.388 3.11588 88.365 3.09018 88.366 3.00438C88.369 2.46638 88.369 1.92948 88.366 1.39148C88.366 1.30568 88.389 1.28118 88.475 1.28238C88.73 1.28848 88.985 1.28848 89.24 1.28238C89.327 1.27998 89.351 1.30568 89.349 1.39148C89.344 1.66478 89.346 1.93928 89.346 2.21268V2.21388Z" fill="white"/>
<path d="M77.1684 6.88598C76.8988 6.88598 76.628 6.88228 76.3583 6.88848C76.2725 6.88968 76.2468 6.86638 76.2492 6.77938C76.2554 6.52568 76.2554 6.27198 76.2492 6.01828C76.2468 5.93248 76.2725 5.90918 76.3583 5.90918C76.8988 5.91288 77.4393 5.91288 77.9798 5.90918C78.0656 5.90918 78.0913 5.93128 78.0889 6.01828C78.0828 6.27198 78.0828 6.52568 78.0889 6.77938C78.0913 6.86518 78.0668 6.88968 77.9798 6.88848C77.7102 6.88228 77.4393 6.88598 77.1697 6.88598H77.1684Z" fill="white"/>
<path d="M93.065 6.88598C92.8 6.88598 92.534 6.88228 92.269 6.88848C92.182 6.88968 92.158 6.86518 92.16 6.77938C92.166 6.52568 92.166 6.27198 92.16 6.01828C92.158 5.93248 92.184 5.90918 92.269 5.90918C92.81 5.91288 93.35 5.91288 93.891 5.90918C93.977 5.90918 94.002 5.93128 94 6.01828C93.994 6.27198 93.994 6.52568 94 6.77938C94.002 6.86518 93.977 6.88968 93.891 6.88848C93.615 6.88358 93.341 6.88598 93.065 6.88598Z" fill="white"/>
<path d="M77.1844 7.73779C77.4491 7.73779 77.7151 7.74149 77.9798 7.73539C78.0668 7.73419 78.0913 7.75869 78.0889 7.84449C78.0828 8.09819 78.0828 8.35189 78.0889 8.60559C78.0913 8.69139 78.0656 8.71459 77.9798 8.71459C77.4393 8.71099 76.8988 8.71099 76.3583 8.71459C76.2713 8.71459 76.2468 8.69259 76.2492 8.60559C76.2554 8.35189 76.2554 8.09819 76.2492 7.84449C76.2468 7.75869 76.2725 7.73419 76.3583 7.73539C76.6341 7.74029 76.9086 7.73779 77.1844 7.73779Z" fill="white"/>
<path d="M93.065 8.71215C92.8 8.71215 92.534 8.70845 92.269 8.71455C92.182 8.71585 92.158 8.69255 92.16 8.60555C92.166 8.35185 92.166 8.09815 92.16 7.84445C92.158 7.75865 92.184 7.73535 92.269 7.73535C92.81 7.73895 93.35 7.73895 93.891 7.73535C93.977 7.73535 94.002 7.75735 94 7.84445C93.994 8.09815 93.994 8.35185 94 8.60555C94.002 8.69135 93.977 8.71585 93.891 8.71455C93.615 8.70965 93.341 8.71215 93.065 8.71215Z" fill="white"/>
<path d="M77.1612 10.5382C76.8916 10.5382 76.6207 10.5346 76.3511 10.5407C76.2702 10.5419 76.2481 10.5186 76.2493 10.439C76.2542 10.1804 76.2542 9.92184 76.2493 9.66324C76.2481 9.58234 76.2714 9.56274 76.3511 9.56274C76.8965 9.56634 77.4419 9.56634 77.9873 9.56274C78.0681 9.56274 78.0902 9.58474 78.089 9.66444C78.0841 9.92304 78.0841 10.1816 78.089 10.4402C78.0902 10.5211 78.0669 10.5419 77.9873 10.5407C77.7115 10.5358 77.437 10.5395 77.1612 10.5395V10.5382Z" fill="white"/>
<path d="M93.0719 10.5382C92.8019 10.5382 92.5319 10.5357 92.2619 10.5394C92.1819 10.5406 92.1589 10.5198 92.1599 10.4389C92.1649 10.1803 92.1649 9.92168 92.1599 9.66308C92.1589 9.58338 92.1809 9.56128 92.2619 9.56128C92.8069 9.56498 93.3529 9.56498 93.8979 9.56128C93.9779 9.56128 94.0009 9.58088 93.9999 9.66178C93.9949 9.92038 93.9949 10.179 93.9999 10.4377C94.0009 10.5173 93.9789 10.5406 93.8979 10.5394C93.6219 10.5345 93.3479 10.5369 93.0719 10.5369V10.5382Z" fill="white"/>
<path d="M80.9018 2.18443C80.9018 1.92093 80.9054 1.65743 80.8993 1.39383C80.8981 1.30813 80.9214 1.28353 81.0084 1.28483C81.2633 1.29093 81.5182 1.29093 81.7732 1.28483C81.8602 1.28233 81.8835 1.30813 81.8822 1.39383C81.8786 1.93193 81.8786 2.46873 81.8822 3.00683C81.8822 3.09253 81.8602 3.11713 81.7732 3.11583C81.5182 3.10973 81.2633 3.10973 81.0084 3.11583C80.9214 3.11833 80.8969 3.09253 80.8993 3.00683C80.9042 2.73343 80.9018 2.45893 80.9018 2.18563V2.18443Z" fill="white"/>
<path d="M80.9018 17.8919C80.9018 17.6284 80.9042 17.3648 80.9005 17.1013C80.8993 17.0204 80.914 16.9862 81.0059 16.9887C81.2609 16.9948 81.5158 16.9936 81.7707 16.9887C81.8516 16.9874 81.8847 17.0022 81.8835 17.0941C81.8786 17.6321 81.8798 18.1689 81.8835 18.707C81.8835 18.7879 81.87 18.8221 81.7781 18.8196C81.5232 18.8135 81.2682 18.8111 81.0133 18.8196C80.9103 18.8233 80.8993 18.7842 80.9005 18.6984C80.9054 18.43 80.903 18.1604 80.903 17.8919H80.9018Z" fill="white"/>
<path d="M88.368 17.9042C88.368 17.6358 88.372 17.3662 88.366 17.0977C88.365 17.012 88.388 16.9874 88.475 16.9887C88.73 16.9948 88.985 16.9948 89.24 16.9887C89.327 16.9862 89.35 17.012 89.349 17.0977C89.345 17.6358 89.345 18.1726 89.349 18.7107C89.349 18.7964 89.327 18.821 89.24 18.8197C88.985 18.8136 88.73 18.8136 88.475 18.8197C88.388 18.8222 88.363 18.7964 88.366 18.7107C88.372 18.4422 88.368 18.1726 88.368 17.9042Z" fill="white"/>
<path d="M87.389 2.21391C87.389 2.47741 87.385 2.74091 87.391 3.00441C87.393 3.09021 87.369 3.11591 87.282 3.11351C87.063 3.10741 86.844 3.10861 86.624 3.11351C86.551 3.11471 86.53 3.09391 86.531 3.02031C86.533 2.47251 86.533 1.92461 86.531 1.37681C86.531 1.30451 86.551 1.28121 86.624 1.28361C86.844 1.28851 87.063 1.28981 87.282 1.28361C87.369 1.28121 87.394 1.30571 87.391 1.39271C87.385 1.66601 87.389 1.94061 87.389 2.21391Z" fill="white"/>
<path d="M85.5531 2.2139C85.5531 2.4774 85.5491 2.7409 85.5551 3.0044C85.5571 3.0902 85.5331 3.1159 85.4461 3.1135C85.2271 3.1074 85.0081 3.1086 84.7881 3.1135C84.7151 3.1147 84.6941 3.0926 84.6951 3.0203C84.6971 2.4725 84.6971 1.9246 84.6951 1.3768C84.6951 1.3032 84.7151 1.2824 84.7881 1.2836C85.0081 1.2885 85.2271 1.2898 85.4461 1.2836C85.5331 1.2812 85.5581 1.3069 85.5551 1.3927C85.5511 1.666 85.5531 1.9406 85.5531 2.2139Z" fill="white"/>
<path d="M83.7171 2.19914C83.7171 2.46754 83.7134 2.73714 83.7196 3.00554C83.7208 3.09134 83.6975 3.11714 83.6105 3.11464C83.3911 3.10854 83.1717 3.10974 82.9523 3.11464C82.8788 3.11584 82.8579 3.09504 82.8592 3.02154C82.8616 2.47364 82.8616 1.92584 82.8592 1.37794C82.8592 1.30564 82.8788 1.28354 82.9523 1.28484C83.1717 1.28974 83.3911 1.29094 83.6105 1.28484C83.6975 1.28234 83.722 1.30684 83.7196 1.39384C83.7134 1.66234 83.7171 1.93194 83.7171 2.20034V2.19914Z" fill="white"/>
<path d="M77.1662 12.3643C76.9015 12.3643 76.6355 12.3619 76.3708 12.3656C76.285 12.3668 76.2433 12.357 76.2482 12.254C76.258 12.042 76.2531 11.8287 76.2494 11.6155C76.2494 11.5444 76.2568 11.5088 76.345 11.5088C76.8953 11.5137 77.4456 11.5125 77.9972 11.5088C78.0744 11.5088 78.0891 11.5358 78.0879 11.6044C78.0842 11.8275 78.083 12.0506 78.0879 12.2736C78.0903 12.3508 78.0609 12.3643 77.991 12.3631C77.7153 12.3594 77.4407 12.3619 77.165 12.3619L77.1662 12.3643Z" fill="white"/>
<path d="M93.0769 12.3643C92.8119 12.3643 92.5459 12.3594 92.2819 12.3668C92.1769 12.3704 92.1549 12.3349 92.1589 12.2393C92.1659 12.0322 92.1629 11.8238 92.1589 11.6155C92.1589 11.5456 92.1639 11.5076 92.2549 11.5088C92.8049 11.5137 93.3549 11.5125 93.9069 11.5088C93.9839 11.5088 93.9989 11.5346 93.9969 11.6044C93.9939 11.8275 93.9929 12.0506 93.9969 12.2736C93.9989 12.3508 93.9719 12.3655 93.9019 12.3643C93.6259 12.3606 93.3519 12.3631 93.0759 12.3631L93.0769 12.3643Z" fill="white"/>
<path d="M77.1684 14.1905C76.8988 14.1905 76.628 14.1868 76.3583 14.1929C76.2725 14.1942 76.2468 14.1709 76.2492 14.0839C76.2554 13.8657 76.2541 13.6475 76.2492 13.4294C76.248 13.3558 76.2688 13.3362 76.3424 13.3362C76.8927 13.3387 77.443 13.3387 77.9945 13.3362C78.068 13.3362 78.0901 13.3558 78.0889 13.4294C78.084 13.6475 78.0828 13.8657 78.0889 14.0839C78.0913 14.1697 78.0656 14.1942 77.9798 14.1929C77.7102 14.1868 77.4393 14.1905 77.1697 14.1905H77.1684Z" fill="white"/>
<path d="M93.079 13.3387C93.349 13.3387 93.62 13.3424 93.89 13.3362C93.977 13.335 94.001 13.3583 93.999 13.4453C93.993 13.6635 93.994 13.8816 93.999 14.0998C94 14.1733 93.978 14.1929 93.906 14.1929C93.355 14.1905 92.805 14.1905 92.253 14.1929C92.18 14.1929 92.158 14.1733 92.16 14.0998C92.165 13.8816 92.166 13.6635 92.16 13.4453C92.158 13.3595 92.184 13.335 92.269 13.3362C92.539 13.3411 92.81 13.3387 93.079 13.3387Z" fill="white"/>
<path d="M82.8602 17.8883C82.8602 17.6248 82.8639 17.3613 82.8577 17.0977C82.8565 17.012 82.881 16.9862 82.9668 16.9887C83.1862 16.9948 83.4056 16.9936 83.625 16.9887C83.6985 16.9874 83.7194 17.0095 83.7181 17.0818C83.7157 17.6297 83.7157 18.1775 83.7181 18.7254C83.7181 18.7989 83.6985 18.8197 83.625 18.8185C83.4056 18.8136 83.1862 18.8124 82.9668 18.8185C82.8798 18.821 82.8565 18.7952 82.8577 18.7094C82.8626 18.4361 82.8602 18.1616 82.8602 17.8883Z" fill="white"/>
<path d="M85.5531 17.9042C85.5531 18.1726 85.5491 18.4422 85.5551 18.7107C85.5571 18.7977 85.5321 18.821 85.4451 18.8185C85.2261 18.8124 85.0061 18.8136 84.7871 18.8185C84.7121 18.8197 84.6941 18.7964 84.6941 18.7241C84.6961 18.1763 84.6961 17.6284 84.6941 17.0806C84.6941 17.007 84.7151 16.9862 84.7881 16.9874C85.0121 16.9923 85.2371 16.9923 85.4611 16.9874C85.5361 16.9862 85.5551 17.0095 85.5541 17.0818C85.5511 17.3551 85.5531 17.6297 85.5531 17.903V17.9042Z" fill="white"/>
<path d="M87.3891 17.8932C87.3891 18.1616 87.3851 18.4312 87.3911 18.6996C87.3931 18.7879 87.3791 18.8246 87.2771 18.8197C87.0691 18.8112 86.8591 18.8124 86.6501 18.8197C86.5621 18.8222 86.5291 18.8063 86.5291 18.707C86.5351 18.1751 86.5331 17.6419 86.5291 17.11C86.5291 17.0218 86.5411 16.985 86.6431 16.9899C86.8511 16.9985 87.0601 16.9997 87.2691 16.9899C87.3781 16.985 87.3901 17.0279 87.3891 17.1198C87.3841 17.3784 87.3871 17.637 87.3871 17.8956L87.3891 17.8932Z" fill="white"/>
<path d="M6.80737 12.7158V12.7148H6.80347L6.80737 12.7158Z" fill="#FFBE01"/>
<path d="M89.4691 10.1118C89.4691 11.5017 89.4661 12.8903 89.4731 14.2802C89.4731 14.4064 89.4431 14.437 89.3161 14.437C86.5221 14.4334 83.7281 14.4334 80.935 14.437C80.8087 14.437 80.7769 14.4088 80.7769 14.2814C80.7805 11.5029 80.7805 8.72438 80.7769 5.94468C80.7769 5.81848 80.8063 5.78658 80.9337 5.78788C83.7269 5.79148 86.5211 5.79148 89.3141 5.78788C89.4411 5.78788 89.4731 5.81728 89.4731 5.94468C89.4681 7.33458 89.4691 8.72318 89.4691 10.1131V10.1118ZM87.5101 10.1792C87.5101 9.40828 87.5081 8.63858 87.5131 7.86768C87.5131 7.75988 87.4831 7.73538 87.3781 7.73538C85.8741 7.73898 84.3711 7.73898 82.8678 7.73538C82.7599 7.73538 82.7342 7.76228 82.7342 7.86898C82.7379 9.40468 82.7379 10.9404 82.7342 12.476C82.7342 12.5815 82.7587 12.6096 82.8678 12.6096C84.3651 12.606 85.8641 12.606 87.3621 12.6096C87.4831 12.6096 87.5141 12.5778 87.5131 12.4589C87.5071 11.699 87.5101 10.9379 87.5101 10.178V10.1792Z" fill="#FFBE01"/>
<path d="M26.2418 10.6559C26.1854 10.678 26.2087 10.6302 26.2099 10.6142C26.2124 10.5873 26.2283 10.5873 26.243 10.6106C26.243 10.6253 26.243 10.6412 26.243 10.6559H26.2418Z" fill="#FFBE01"/>
<path d="M26.1963 10.9958V10.9918C26.2017 10.9918 26.207 10.9918 26.2123 10.9905C26.207 10.9918 26.2017 10.9945 26.1963 10.9958Z" fill="#FFBE01"/>
<path d="M87.51 10.1792C87.51 10.9391 87.508 11.7002 87.513 12.4601C87.513 12.579 87.483 12.6109 87.362 12.6109C85.864 12.606 84.365 12.6072 82.8677 12.6109C82.7598 12.6109 82.7341 12.5827 82.7341 12.4773C82.7377 10.9416 82.7377 9.40587 82.7341 7.87017C82.7341 7.76357 82.7598 7.73657 82.8677 7.73657C84.371 7.74027 85.874 7.74027 87.378 7.73657C87.483 7.73657 87.514 7.75987 87.513 7.86897C87.508 8.63987 87.51 9.40957 87.51 10.1805V10.1792Z" fill="white"/>
</svg>
