<svg width="108" height="26" viewBox="0 0 108 26" fill="none" xmlns="http://www.w3.org/2000/svg">
<g clip-path="url(#clip0_2216_4880)">
<path d="M11.0476 19.0192H13.2073V8.82001C13.2088 8.26461 13.1005 7.71439 12.8886 7.20098C12.6767 6.68757 12.3655 6.2211 11.9727 5.82837C11.58 5.43563 11.1135 5.12439 10.6001 4.91252C10.0867 4.70065 9.53651 4.59233 8.98111 4.59379H2.82541C1.76839 4.59379 0.941605 5.42104 0.941605 6.47667V19.0192H3.10039C3.28494 19.0192 3.46811 18.8803 3.46811 18.6501V6.93574H8.98111C9.20451 6.93532 9.4258 6.97902 9.63227 7.06435C9.83875 7.14967 10.0263 7.27494 10.1843 7.43296C10.3422 7.59097 10.4674 7.77863 10.5526 7.98514C10.6378 8.19166 10.6814 8.41298 10.6808 8.63638V18.6501C10.6808 18.8803 10.864 19.0192 11.0476 19.0192ZM55.6084 4.59379H48.4865C47.9818 4.59379 47.5684 5.00719 47.5684 5.46626V25.9994H49.7272C49.9117 25.9994 50.0949 25.8624 50.0949 25.6321V18.9735H55.6084C56.1638 18.9747 56.714 18.8661 57.2274 18.654C57.7408 18.4419 58.2072 18.1305 58.5998 17.7376C58.9925 17.3447 59.3037 16.8782 59.5155 16.3647C59.7273 15.8512 59.8356 15.3009 59.8341 14.7455V8.82001C59.7866 6.47667 57.9508 4.59379 55.6084 4.59379ZM57.3081 14.9752C57.3084 15.1986 57.2647 15.4197 57.1794 15.6261C57.0941 15.8325 56.969 16.02 56.8111 16.1779C56.6532 16.3358 56.4656 16.461 56.2593 16.5463C56.0529 16.6316 55.8317 16.6753 55.6084 16.675H50.0949V6.98234H55.6084C55.8317 6.98186 56.053 7.02549 56.2594 7.11074C56.4658 7.19598 56.6534 7.32116 56.8113 7.47909C56.9693 7.63702 57.0944 7.82459 57.1797 8.03103C57.2649 8.23747 57.3086 8.45871 57.3081 8.68206V14.9752ZM83.2629 6.98234C83.0394 6.98186 82.8181 7.02548 82.6116 7.1107C82.405 7.19593 82.2173 7.32108 82.0592 7.47898C81.9012 7.63689 81.7758 7.82444 81.6904 8.03089C81.6049 8.23734 81.5611 8.45863 81.5613 8.68206V18.6958C81.5613 18.8803 81.4243 19.0649 81.1964 19.0649H79.0366V8.82001C79.035 8.26459 79.1432 7.71433 79.355 7.20087C79.5667 6.68741 79.8779 6.22088 80.2706 5.82812C80.6634 5.43536 81.1299 5.12411 81.6433 4.91228C82.1567 4.70045 82.707 4.59221 83.2624 4.59379H86.1557V6.61463C86.1563 6.66299 86.1472 6.71098 86.1289 6.75579C86.1107 6.80059 86.0837 6.8413 86.0496 6.87555C86.0154 6.90979 85.9748 6.93688 85.93 6.95522C85.8852 6.97355 85.8373 6.98278 85.7889 6.98234H83.2629ZM92.0816 4.96059C92.0824 4.91221 92.0734 4.86418 92.0552 4.81934C92.0371 4.7745 92.0101 4.73377 91.9759 4.69956C91.9417 4.66535 91.9009 4.63836 91.8561 4.62019C91.8112 4.60202 91.7632 4.59305 91.7148 4.59379H89.5574V18.6501C89.5574 18.8342 89.694 19.0192 89.9219 19.0192H92.0816V4.96059ZM102.833 4.59379H96.7678V6.6603C96.7678 6.84485 96.9067 6.98281 97.089 6.98281H102.832C103.056 6.98232 103.277 7.02595 103.483 7.1112C103.69 7.19644 103.877 7.32162 104.035 7.47955C104.193 7.63748 104.318 7.82505 104.404 8.03149C104.489 8.23793 104.532 8.45917 104.532 8.68252V9.73861H99.3857C98.8303 9.73733 98.2801 9.84585 97.7668 10.0579C97.2535 10.27 96.7872 10.5815 96.3946 10.9744C96.0021 11.3673 95.6911 11.8339 95.4795 12.3475C95.2679 12.861 95.16 13.4113 95.1618 13.9667V14.8825C95.16 15.4379 95.2679 15.9882 95.4795 16.5017C95.6911 17.0152 96.0021 17.4819 96.3946 17.8748C96.7872 18.2677 97.2535 18.5792 97.7668 18.7913C98.2801 19.0033 98.8303 19.1119 99.3857 19.1106H106.138C106.644 19.1106 107.058 18.6963 107.058 18.2358V8.91182C107.058 6.47667 105.175 4.59379 102.833 4.59379ZM99.3857 16.675C99.1624 16.6754 98.9412 16.6317 98.7347 16.5464C98.5283 16.4612 98.3408 16.336 98.1829 16.1781C98.0249 16.0202 97.8998 15.8326 97.8145 15.6262C97.7292 15.4198 97.6856 15.1986 97.686 14.9752V13.7794C97.6858 13.5561 97.7296 13.3351 97.815 13.1288C97.9004 12.9226 98.0256 12.7352 98.1835 12.5774C98.3414 12.4196 98.5288 12.2945 98.7351 12.2092C98.9414 12.124 99.1625 12.0803 99.3857 12.0806H104.532V16.6745L99.3857 16.675Z" fill="#00717D"/>
<path d="M90.8428 2.48036C91.5278 2.48036 92.083 1.92512 92.083 1.24018C92.083 0.555249 91.5278 0 90.8428 0C90.1579 0 89.6026 0.555249 89.6026 1.24018C89.6026 1.92512 90.1579 2.48036 90.8428 2.48036Z" fill="#F05128"/>
<path d="M26.4378 10.5195H19.2251V8.63611C19.2245 8.41269 19.268 8.19135 19.3532 7.9848C19.4384 7.77826 19.5635 7.59058 19.7215 7.43255C19.8794 7.27452 20.067 7.14926 20.2735 7.06395C20.48 6.97865 20.7014 6.93499 20.9248 6.93547H24.7371C24.9606 6.93499 25.182 6.97864 25.3885 7.06394C25.5951 7.14923 25.7827 7.27448 25.9408 7.43249C26.0988 7.59051 26.224 7.77818 26.3093 7.98473C26.3946 8.19128 26.4383 8.41264 26.4378 8.63611V10.5195ZM20.9248 19.0194H28.3659V16.9963C28.3668 16.9538 28.3592 16.9117 28.3434 16.8723C28.3275 16.8329 28.3039 16.7971 28.2739 16.7671C28.2439 16.7371 28.2081 16.7135 28.1687 16.6977C28.1294 16.6819 28.0872 16.6742 28.0448 16.6752H20.9248C20.7014 16.6756 20.4802 16.632 20.2737 16.5468C20.0673 16.4615 19.8797 16.3363 19.7218 16.1784C19.5639 16.0205 19.4387 15.8329 19.3535 15.6265C19.2682 15.42 19.2246 15.1988 19.2251 14.9754V12.9089H28.2284C28.9177 12.9089 28.9643 12.4946 28.9643 12.0351V8.81974C28.9657 8.26426 28.8574 7.71396 28.6455 7.2005C28.4335 6.68703 28.1222 6.22051 27.7294 5.82777C27.3366 5.43502 26.87 5.1238 26.3565 4.91198C25.8429 4.70017 25.2926 4.59194 24.7371 4.59352H20.9248C20.3693 4.59194 19.8191 4.70017 19.3056 4.912C18.7921 5.12383 18.3256 5.43507 17.9329 5.82782C17.5401 6.22058 17.2289 6.6871 17.017 7.20057C16.8052 7.71403 16.697 8.2643 16.6986 8.81974V14.8361C16.6986 17.1351 18.5814 19.0194 20.9248 19.0194ZM73.0637 10.5195H65.8509V8.63611C65.8505 8.41272 65.8941 8.19143 65.9793 7.98494C66.0646 7.77845 66.1897 7.59083 66.3476 7.43282C66.5055 7.27482 66.6931 7.14955 66.8996 7.0642C67.106 6.97886 67.3273 6.93511 67.5507 6.93547H71.3644C71.5878 6.93493 71.8092 6.97855 72.0157 7.06383C72.2222 7.14911 72.4099 7.27437 72.5678 7.43241C72.7258 7.59045 72.8509 7.77816 72.9361 7.98473C73.0213 8.1913 73.0648 8.41267 73.0641 8.63611V10.5195H73.0637ZM67.505 19.0194H74.9475V16.9963C74.9483 16.9539 74.9405 16.9118 74.9247 16.8724C74.9088 16.8331 74.8852 16.7974 74.8552 16.7674C74.8252 16.7374 74.7895 16.7138 74.7502 16.6979C74.7109 16.6821 74.6687 16.6743 74.6263 16.6752H67.505C67.2816 16.6756 67.0604 16.6319 66.854 16.5466C66.6476 16.4614 66.4601 16.3362 66.3021 16.1783C66.1442 16.0203 66.019 15.8328 65.9338 15.6264C65.8485 15.42 65.8048 15.1988 65.8053 14.9754V12.9089H74.8086C75.4988 12.9089 75.5445 12.4946 75.5445 12.0351V8.81974C75.546 8.26436 75.4377 7.71415 75.2259 7.20074C75.0141 6.68734 74.7029 6.22086 74.3102 5.82812C73.9175 5.43539 73.4511 5.12413 72.9377 4.91226C72.4243 4.70038 71.8741 4.59206 71.3187 4.59352H67.505C66.9496 4.59206 66.3994 4.70038 65.8859 4.91225C65.3725 5.12412 64.9061 5.43536 64.5133 5.8281C64.1206 6.22083 63.8094 6.6873 63.5975 7.20071C63.3856 7.71412 63.2773 8.26433 63.2788 8.81974V14.8361C63.3267 17.1351 65.2087 19.0194 67.505 19.0194Z" fill="#00717D"/>
<path d="M37.6008 10.9329C37.4163 10.5651 34.7975 5.42078 34.6609 5.19056C34.522 4.91511 34.4307 4.63921 33.8793 4.63921H31.9042C31.7196 4.63921 31.4908 4.77716 31.6283 5.0526C31.6283 5.09828 35.1195 11.8515 35.1195 11.8515C35.1195 11.8515 31.674 18.6042 31.6283 18.6494C31.4903 18.9253 31.7196 19.0637 31.9042 19.0637H33.8793C34.4307 19.0637 34.522 18.7407 34.6609 18.5128C34.7975 18.2826 37.4163 13.0907 37.6008 12.7696C37.6922 12.6307 37.8753 12.2183 37.8753 11.8971C37.8753 11.4842 37.6917 11.0708 37.6008 10.9329ZM41.4132 11.8053C41.4132 11.8053 44.8578 5.05306 44.9044 5.00739C45.0424 4.73195 44.8121 4.59399 44.6285 4.59399H42.6533C42.102 4.59399 42.0097 4.91511 41.8718 5.14534C41.7338 5.37464 39.115 10.5651 38.9319 10.8876C38.8396 11.0708 38.6108 11.4842 38.6108 11.8058C38.6108 12.1283 38.7939 12.5403 38.8867 12.6792C39.0698 13.0464 41.6886 18.1903 41.8266 18.4224C41.9645 18.696 42.0554 18.9737 42.6067 18.9737H44.5828C44.766 18.9737 44.9962 18.8344 44.8573 18.5594C44.8578 18.6046 41.4132 11.8053 41.4132 11.8053Z" fill="#F05128"/>
</g>
<defs>
<clipPath id="clip0_2216_4880">
<rect width="106.117" height="26" fill="white" transform="translate(0.941605)"/>
</clipPath>
</defs>
</svg>
