<svg width="110" height="20" viewBox="0 0 110 20" fill="none" xmlns="http://www.w3.org/2000/svg">
<g clip-path="url(#clip0_2216_4885)">
<path d="M15.2519 12.4565V16.3796L15.2558 16.3912C15.2557 16.4645 15.2701 16.5371 15.2981 16.6049C15.3261 16.6727 15.3672 16.7343 15.4191 16.7861C15.4709 16.838 15.5325 16.8791 15.6003 16.9071C15.668 16.9351 15.7407 16.9495 15.814 16.9494V16.9571H16.8919V19.3174H10.3673V16.9584H10.3635V13.7621C10.3374 13.3832 10.1685 13.0283 9.89087 12.7692C9.61326 12.51 9.24763 12.3658 8.86785 12.3658C8.48807 12.3658 8.12244 12.51 7.84483 12.7692C7.56722 13.0283 7.39832 13.3832 7.37225 13.7621L7.35424 13.7865V16.3796L7.3626 16.4041C7.36252 16.4772 7.37686 16.5497 7.40481 16.6174C7.43276 16.685 7.47377 16.7465 7.5255 16.7983C7.57723 16.8501 7.63865 16.8912 7.70627 16.9192C7.77388 16.9472 7.84636 16.9616 7.91955 16.9616V16.9584H8.92412V19.3187H0.333817V16.9584H1.91978L1.932 16.9629C2.07994 16.9629 2.22183 16.9042 2.32651 16.7997C2.43118 16.6951 2.49007 16.5533 2.49024 16.4053H2.49795V12.9967H2.49024C2.49024 12.8487 2.43142 12.7067 2.32673 12.602C2.22204 12.4973 2.08005 12.4385 1.932 12.4385L1.91978 12.4301H0.333817V10.0705H7.34909V10.6609C7.34909 10.6609 7.1941 11.5954 8.67009 10.8326C9.68913 10.2642 10.8497 9.99977 12.0144 10.0705C12.0144 10.0705 15.2519 9.92321 15.2519 12.4565ZM108.027 12.4565V16.3796L108.03 16.3912C108.03 16.4646 108.045 16.5372 108.073 16.605C108.101 16.6728 108.142 16.7344 108.194 16.7862C108.246 16.838 108.308 16.8791 108.376 16.9071C108.443 16.9351 108.516 16.9495 108.59 16.9494V16.9571H109.667V19.3174H103.142V16.9584H103.138V13.7621C103.112 13.3832 102.943 13.0283 102.665 12.7692C102.388 12.51 102.022 12.3658 101.642 12.3658C101.262 12.3658 100.897 12.51 100.619 12.7692C100.342 13.0283 100.173 13.3832 100.147 13.7621L100.13 13.7865V16.3796L100.138 16.4041C100.138 16.5519 100.196 16.6938 100.301 16.7983C100.405 16.9029 100.547 16.9616 100.695 16.9616V16.9584H101.7V19.3187H93.1088V16.9584H94.6954L94.7076 16.9629C94.7809 16.963 94.8534 16.9487 94.9212 16.9207C94.9889 16.8927 95.0504 16.8516 95.1023 16.7998C95.1541 16.7481 95.1952 16.6866 95.2233 16.6189C95.2514 16.5512 95.2658 16.4786 95.2658 16.4053H95.2748V12.9967H95.2658C95.2658 12.8487 95.207 12.7067 95.1023 12.602C94.9976 12.4973 94.8556 12.4385 94.7076 12.4385L94.6954 12.4301H93.1088V10.0705H100.127V10.6609C100.127 10.6609 99.9703 11.5954 101.444 10.8326C102.463 10.2643 103.624 9.9998 104.789 10.0705C104.789 10.0705 108.027 9.92321 108.027 12.4565ZM54.4508 12.4578V16.3809L54.4546 16.3925C54.4548 16.5402 54.5135 16.6818 54.6179 16.7863C54.7223 16.8909 54.8638 16.9497 55.0116 16.9501V16.9578H56.2052V19.3181H49.5649V16.9578H49.5604V13.7608C49.5322 13.3836 49.3624 13.031 49.0852 12.7738C48.8079 12.5165 48.4437 12.3735 48.0654 12.3735C47.6872 12.3735 47.3229 12.5165 47.0457 12.7738C46.7684 13.031 46.5987 13.3836 46.5705 13.7608L46.5544 13.7852V16.3809L46.5615 16.4053C46.5615 16.5531 46.6201 16.6948 46.7246 16.7994C46.829 16.9039 46.9706 16.9628 47.1184 16.9629V16.9584H47.9429V19.3187H39.844V16.9584H40.4871L40.4999 16.9629C40.6479 16.9629 40.7898 16.9042 40.8945 16.7997C40.9991 16.6951 41.058 16.5533 41.0582 16.4053H41.0659V3.94145H41.0582C41.0581 3.86822 41.0436 3.79573 41.0155 3.72811C40.9874 3.66049 40.9463 3.59907 40.8944 3.54736C40.8426 3.49564 40.7811 3.45464 40.7134 3.42669C40.6457 3.39875 40.5732 3.38441 40.4999 3.38449L40.4871 3.37613H39.844V1.61395H46.546V10.6641C46.546 10.6641 46.391 11.5986 47.8657 10.8358C48.8847 10.2673 50.0453 10.0028 51.21 10.0737C51.21 10.0737 54.4508 9.92386 54.4508 12.4578ZM25.4288 16.961C25.281 16.9608 25.1394 16.902 25.0349 16.7975C24.9305 16.6929 24.8719 16.5512 24.8719 16.4034L24.8635 16.379V12.4192L24.859 12.4314V10.0718H18.072V12.4327H19.4284L19.4406 12.4404C19.5139 12.4404 19.5864 12.4549 19.654 12.4829C19.7217 12.511 19.7832 12.5522 19.8349 12.604C19.8866 12.6559 19.9276 12.7174 19.9555 12.7851C19.9834 12.8529 19.9977 12.9254 19.9976 12.9987H20.0066V16.4073H19.9976C19.9976 16.4805 19.9833 16.553 19.9554 16.6206C19.9274 16.6882 19.8864 16.7497 19.8347 16.8015C19.7829 16.8533 19.7215 16.8944 19.6539 16.9224C19.5863 16.9504 19.5138 16.9649 19.4406 16.9649L19.4284 16.9604H18.072V19.3207H26.1047V16.9604L25.4288 16.961ZM21.8768 1.50977C21.3265 1.50951 20.7884 1.67247 20.3307 1.97802C19.873 2.28358 19.5162 2.71801 19.3055 3.22636C19.0947 3.73472 19.0394 4.29417 19.1466 4.83394C19.2538 5.37372 19.5187 5.86958 19.9077 6.2588C20.2968 6.64803 20.7925 6.91313 21.3323 7.02059C21.872 7.12804 22.4315 7.07302 22.9399 6.86248C23.4484 6.65194 23.883 6.29534 24.1887 5.83779C24.4945 5.38023 24.6577 4.84227 24.6577 4.29195C24.6578 3.92668 24.5859 3.56496 24.4462 3.22745C24.3065 2.88995 24.1017 2.58327 23.8435 2.32492C23.5852 2.06657 23.2786 1.86161 22.9412 1.72174C22.6038 1.58188 22.2421 1.50985 21.8768 1.50977ZM64.8579 16.961C64.7846 16.9612 64.7119 16.9469 64.644 16.9189C64.5762 16.891 64.5145 16.85 64.4626 16.7982C64.4106 16.7464 64.3694 16.6849 64.3412 16.6171C64.313 16.5494 64.2985 16.4768 64.2984 16.4034L64.2907 16.379V12.4192L64.2868 12.4314V10.0718H57.5005V12.4327H58.8569L58.8691 12.4404C58.9423 12.4404 59.0149 12.4549 59.0825 12.4829C59.1502 12.511 59.2116 12.5522 59.2634 12.604C59.3151 12.6559 59.3561 12.7174 59.384 12.7851C59.4119 12.8529 59.4262 12.9254 59.426 12.9987H59.4344V16.4073H59.426C59.4261 16.4805 59.4118 16.553 59.3838 16.6206C59.3559 16.6882 59.3148 16.7497 59.2631 16.8015C59.2114 16.8533 59.15 16.8944 59.0824 16.9224C59.0147 16.9504 58.9423 16.9649 58.8691 16.9649L58.8569 16.9604H57.5005V19.3207H65.5345V16.9604L64.8579 16.961ZM61.3027 1.50977C60.7525 1.51015 60.2148 1.67364 59.7575 1.97959C59.3002 2.28553 58.9439 2.72018 58.7337 3.22859C58.5234 3.737 58.4685 4.29635 58.5761 4.83591C58.6837 5.37548 58.9488 5.87103 59.338 6.25994C59.7272 6.64884 60.2229 6.91363 60.7625 7.02082C61.3022 7.12802 61.8615 7.07281 62.3698 6.86217C62.878 6.65154 63.3124 6.29494 63.618 5.83745C63.9237 5.37997 64.0868 4.84214 64.0868 4.29195C64.0868 3.92643 64.0148 3.56449 63.8748 3.22681C63.7349 2.88913 63.5298 2.58234 63.2712 2.32397C63.0127 2.06559 62.7057 1.8607 62.368 1.72099C62.0302 1.58129 61.6682 1.50951 61.3027 1.50977ZM35.5716 13.9807H38.9159V10.0949H35.5716V10.8744C35.5716 10.8744 35.6289 11.4809 34.4661 10.7927C33.7228 10.4432 32.912 10.2606 32.0906 10.2577C31.2692 10.2548 30.4572 10.4317 29.7114 10.776C29.007 11.2136 28.4293 11.8279 28.0358 12.5579C27.6422 13.2878 27.4466 14.1081 27.4682 14.9371C27.4682 14.9371 27.3203 19.3142 33.1072 19.3142C33.1072 19.3142 38.9275 19.4911 38.9275 15.3763H35.7311C35.7311 15.3763 35.6668 16.8555 34.2879 16.8555C34.2879 16.8555 32.5676 17.0356 32.5676 14.5602C32.5676 14.5602 32.4036 12.4449 34.1111 12.4449C34.3113 12.4377 34.5108 12.4731 34.6963 12.5488C34.8819 12.6245 35.0492 12.7387 35.1873 12.8839C35.3254 13.0291 35.431 13.2019 35.4973 13.391C35.5635 13.5801 35.5889 13.7811 35.5716 13.9807ZM74.9847 13.9807H78.3289V10.0949H74.9847V10.8744C74.9847 10.8744 75.0425 11.4809 73.8778 10.7927C73.1345 10.443 72.3235 10.2603 71.502 10.2575C70.6805 10.2546 69.8683 10.4316 69.1225 10.776C68.4173 11.2136 67.839 11.8282 67.4451 12.5587C67.0512 13.2891 66.8555 14.11 66.8773 14.9396C66.8773 14.9396 66.7307 19.3168 72.5176 19.3168C72.5176 19.3168 78.3367 19.4937 78.3367 15.3789H75.139C75.139 15.3789 75.0747 16.8581 73.6978 16.8581C73.6978 16.8581 71.9761 17.0382 71.9761 14.5628C71.9761 14.5628 71.8114 12.4475 73.5196 12.4475C73.72 12.4397 73.9197 12.4745 74.1056 12.5498C74.2915 12.625 74.4592 12.7389 74.5978 12.8838C74.7363 13.0288 74.8424 13.2016 74.9091 13.3907C74.9758 13.5798 75.0016 13.7809 74.9847 13.9807ZM88.8461 10.4313C86.9477 10.2619 85.038 10.2619 83.1396 10.4313C83.1396 10.4313 79.5882 10.6885 79.5882 14.8174C79.5882 18.9463 82.0752 19.0512 83.1396 19.1978C85.0386 19.3511 86.947 19.3511 88.8461 19.1978C89.9111 19.0512 92.3987 18.9406 92.3987 14.8174C92.3987 10.6943 88.8461 10.4313 88.8461 10.4313ZM85.9931 17.0221C85.9931 17.0221 84.3043 17.2273 84.3043 14.8174C84.3043 12.4076 85.9931 12.6121 85.9931 12.6121C85.9931 12.6121 87.682 12.407 87.682 14.8174C87.682 17.2279 85.9931 17.0221 85.9931 17.0221Z" fill="#003288"/>
</g>
<defs>
<clipPath id="clip0_2216_4885">
<rect width="109.332" height="19.2939" fill="white" transform="translate(0.333817 0.706055)"/>
</clipPath>
</defs>
</svg>
