<svg width="125" height="50" viewBox="0 0 125 50" fill="none" xmlns="http://www.w3.org/2000/svg">
<path d="M28.9126 36.5406C21.6806 36.5381 16.8482 31.413 16.8482 25.1988C16.8482 18.9847 21.6916 13.8008 28.9016 13.8167H97.0353C104.245 13.8008 109.089 18.9847 109.089 25.1988C109.089 31.413 104.256 36.5381 97.0243 36.5406H28.9126ZM28.9347 16.612C23.2093 16.623 19.6949 20.4497 19.6949 25.1841C19.6949 29.9173 23.1873 33.7759 28.9347 33.7551H97.0022C102.75 33.7747 106.243 29.9173 106.243 25.1841C106.243 20.451 102.729 16.6243 97.0034 16.6132L28.9347 16.612ZM100.664 20.6078C101.184 20.6078 101.443 20.7842 101.443 21.1333C101.443 21.3734 101.293 21.5546 101.045 21.6171L101.452 22.4317H100.959L100.61 21.6845H100.393V22.4317H99.9482V20.6078H100.664ZM100.623 19.8949C99.7142 19.8949 98.9768 20.6323 98.9768 21.5412C98.9768 22.4501 99.7142 23.1875 100.623 23.1875C101.532 23.1875 102.269 22.4501 102.269 21.5412C102.269 20.6323 101.532 19.8949 100.623 19.8949ZM101.955 21.5424C101.955 22.2774 101.358 22.8739 100.623 22.8739C99.8882 22.8739 99.2916 22.2774 99.2916 21.5424C99.2916 20.8074 99.8882 20.2109 100.623 20.2109C101.358 20.2109 101.955 20.8062 101.955 21.5424ZM100.393 21.4174H100.61C100.863 21.4174 100.986 21.3403 100.986 21.159C100.986 20.9691 100.855 20.887 100.588 20.887H100.393V21.4174ZM63.184 25.875C63.1791 25.2515 63.1926 24.835 63.3972 24.4798C63.6483 24.0413 64.1101 23.833 64.529 23.8306H64.5278C64.9467 23.833 65.4085 24.0413 65.6596 24.4798C65.8642 24.8363 65.8728 25.2527 65.8679 25.8762L63.184 25.875ZM65.8569 28.0199C65.8569 28.0199 65.8593 28.0517 65.8593 28.4511C65.8593 29.752 65.0031 30.041 64.5278 30.041C64.0525 30.041 63.1816 29.752 63.1816 28.4511C63.1816 28.0615 63.184 26.9824 63.184 26.9824C63.184 26.9824 69.2438 26.9848 69.2438 26.9811C69.2438 24.775 67.1137 22.9474 64.4972 22.9474C61.8807 22.9474 59.7603 24.7358 59.7603 26.9419C59.7603 29.148 61.8807 30.9352 64.4972 30.9352C66.6678 30.9352 68.5015 29.6968 69.0613 28.0174L65.8569 28.0199ZM75.9786 23.0662C77.1814 23.0319 79.6215 23.8196 79.6044 26.6357C79.6019 27.1355 79.6031 30.5065 79.6031 30.5065H76.4072C76.4072 30.5065 76.4072 26.2792 76.4072 25.8346C76.4072 25.2148 75.8144 24.5251 74.9373 24.5251C74.0615 24.5251 73.4098 25.2148 73.4098 25.8346C73.4098 26.1384 73.4135 30.5065 73.4135 30.5065H70.2201L70.2225 23.3933L73.4147 23.3908C73.4147 23.3908 73.411 23.9629 73.4147 24.1393C74.0296 23.5525 74.9165 23.0968 75.9786 23.0662ZM49.8359 23.0662C51.0387 23.0319 53.4788 23.8196 53.4617 26.6357C53.4592 27.1355 53.4604 30.5065 53.4604 30.5065H50.2645C50.2645 30.5065 50.2645 26.2792 50.2645 25.8346C50.2645 25.2148 49.6717 24.5251 48.7946 24.5251C47.9188 24.5251 47.2671 25.2148 47.2671 25.8346C47.2671 26.1384 47.2708 30.5065 47.2708 30.5065H44.0774L44.0761 23.3933L47.272 23.3908C47.272 23.3908 47.2683 23.9629 47.272 24.1393C47.8869 23.5525 48.7726 23.0968 49.8359 23.0662ZM86.5376 19.8116H89.7126V30.509H86.5327C86.5327 30.509 86.5314 30.1635 86.5314 30.0974C85.3003 30.8703 83.9112 30.8691 82.8296 30.3644C82.5393 30.2297 80.6296 29.3134 80.6296 26.8378C80.6296 24.96 82.4009 22.9094 84.7197 23.1128C85.4828 23.1801 86.0255 23.4582 86.54 23.7473C86.5375 22.101 86.5376 19.8116 86.5376 19.8116ZM86.5608 26.9162C86.5608 26.9162 86.5608 26.0245 86.5608 25.6447C86.5608 24.5447 85.8014 24.2642 85.3016 24.2642C84.7896 24.2642 84.0399 24.5447 84.0399 25.6447C84.0399 26.0098 84.0412 26.9125 84.0412 26.9125C84.0412 26.9125 84.0399 27.7994 84.0399 28.1779C84.0399 29.2767 84.7896 29.5645 85.3004 29.5645C85.8014 29.5645 86.562 29.2767 86.562 28.1779C86.562 27.721 86.5608 26.9162 86.5608 26.9162ZM96.7536 26.8954C96.7536 26.8954 96.7523 27.9709 96.7523 28.4021C96.7523 29.5364 96.0823 30.0043 95.4379 30.0043C94.7924 30.0043 94.1199 29.5364 94.1199 28.4021C94.1199 27.9709 94.1212 26.8684 94.1212 26.8684C94.1212 26.8684 94.1236 25.8162 94.1236 25.385C94.1236 24.2556 94.7973 23.7914 95.438 23.7914C96.0798 23.7914 96.7523 24.2556 96.7523 25.385C96.7523 25.8162 96.7511 26.6136 96.7548 26.8991L96.7536 26.8954ZM95.4612 22.9094C92.8644 22.9094 90.7599 24.6978 90.7599 26.904C90.7599 29.1101 92.8656 30.8985 95.4612 30.8985C98.0581 30.8985 100.163 29.1101 100.163 26.904C100.163 24.6978 98.0581 22.9094 95.4612 22.9094ZM39.0809 21.9956V19.8091H42.3049V21.9956H39.0809ZM39.0882 30.509V23.3945L42.3049 23.3958V30.509L39.0882 30.509ZM55.2268 30.509L55.2281 23.4092H53.4789V22.3533L55.2293 22.352L55.2269 20.9115H58.446V22.3508H60.1879V23.4092H58.446L58.4485 30.5089L55.2268 30.509ZM25.9973 30.509L25.9985 19.8116H29.3316L33.9422 27.2714L33.9398 19.8116H37.2471V30.509H33.9447L29.3095 23.0491V30.509H25.9973Z" fill="white"/>
</svg>
