<svg width="125" height="50" viewBox="0 0 125 50" fill="none" xmlns="http://www.w3.org/2000/svg">
<g clip-path="url(#clip0_244_2060)">
<g clip-path="url(#clip1_244_2060)">
<path d="M117.016 13.9892C115.285 14.5189 114.58 15.1821 113.849 15.9115C113.283 16.4759 112.161 18.0752 112.161 20.2742V37.2852C112.161 41.3838 108.779 43.8264 105.645 43.8264H69.5163C66.0936 43.8264 62.9687 46.544 62.9687 50.3292C62.9687 46.544 59.8436 43.8264 56.4212 43.8264H20.2925C17.1585 43.8264 13.7762 41.3838 13.7762 37.2852V20.2742C13.7762 18.0752 12.654 16.4759 12.088 15.9115C11.3569 15.1821 10.6515 14.5191 8.92126 13.9892L13.8282 4.39182H58.2604L62.9684 0.027832L67.6763 4.39182H112.109L117.016 13.9892ZM109.449 8.72756H65.8918L62.9685 6.0092L60.0453 8.72756H16.4884L14.6462 12.3319C15.9339 13.497 16.7687 14.9394 17.1407 15.7696C17.4671 16.4984 18.1194 18.0735 18.1194 20.2725V37.3225C18.1194 38.2842 18.8366 39.5036 20.2925 39.5036H56.4208C60.4929 39.5036 62.9684 41.6608 62.9684 41.6608C62.9684 41.6608 65.4438 39.5036 69.5159 39.5036H105.644C107.1 39.5036 107.817 38.2842 107.817 37.3225V20.2727C107.817 18.0737 108.47 16.4986 108.796 15.7698C109.168 14.9396 110.003 13.4971 111.291 12.3321L109.448 8.72774L109.449 8.72756Z" fill="#004A9B"/>
<path d="M30.3819 26.5625C29.7827 27.1576 29.0806 27.4215 28.1668 27.4215C26.3384 27.4215 24.8565 25.9504 24.8565 24.1349C24.8565 22.3193 26.3386 20.8482 28.1668 20.8482C28.9901 20.8482 29.8596 21.2287 30.4389 21.7226L32.0204 19.9497C30.9681 18.9894 29.5929 18.458 28.1668 18.4605C25.018 18.4605 22.4655 20.9947 22.4655 24.1212C22.4655 27.2477 25.018 29.7816 28.1668 29.7816C29.6461 29.7816 30.9477 29.2458 31.961 28.3278L30.3817 26.5627L30.3819 26.5625Z" fill="#004A9B"/>
<path d="M38.805 18.5444V23.0739H36.3642V18.5444H33.8919V29.7732L33.9439 29.7747H36.3782L36.3831 29.8655V25.4901H38.8237V29.7738H41.2998V18.5444H38.805Z" fill="#004A9B"/>
<path d="M48.657 21.0334V18.5446H45.3708L43.025 18.5444V29.7732L44.4273 29.7782H45.3708L48.657 29.7732V27.333H45.5199V25.4002H47.5537V22.9612H45.4825V21.0334H48.657Z" fill="#004A9B"/>
<path d="M52.4227 18.4602L49.6746 29.7693H52.1572L53.526 24.1607L54.5514 29.7693H57.0179L58.0427 24.1607L59.4169 29.7693H61.8886L59.1371 18.4602H56.6813L55.825 23.9784L54.8824 18.4602H52.4227Z" fill="#004A9B"/>
<path d="M63.4562 18.4602H65.9331V29.7749H63.4562V18.4602Z" fill="#004A9B"/>
<path d="M67.847 22.9553H71.3657V25.4007H67.847V22.9553Z" fill="#004A9B"/>
<path d="M80.8605 26.5618C80.2613 27.1567 79.5589 27.4209 78.645 27.4209C76.817 27.4209 75.3349 25.9498 75.3349 24.1342C75.3349 22.3186 76.817 20.8475 78.645 20.8475C79.4685 20.8475 80.3383 21.228 80.9171 21.7219L82.4988 19.949C81.4465 18.9887 80.0712 18.4574 78.645 18.46C75.4966 18.46 72.9441 20.9942 72.9441 24.1205C72.9441 27.2469 75.4964 29.7809 78.645 29.7809C80.1245 29.7809 81.4263 29.2449 82.4396 28.327L80.8605 26.5618Z" fill="#004A9B"/>
<path d="M87.6264 18.4773C84.4922 18.4773 81.952 21.0117 81.952 24.1379C81.952 27.264 84.4922 29.7984 87.6264 29.7984C90.7606 29.7984 93.3004 27.264 93.3004 24.1379C93.3004 21.0117 90.7598 18.4773 87.6264 18.4773ZM87.6493 27.3209C85.8715 27.3209 84.4376 25.9176 84.4376 24.1382C84.4376 22.3589 85.8569 20.9524 87.6493 20.9524C89.4019 20.9524 90.8168 22.3986 90.8168 24.1382C90.8168 25.8566 89.4158 27.3209 87.6493 27.3209Z" fill="#004A9B"/>
<path d="M97.0201 23.4227V29.766H94.5876V18.4534H97.0201L100.972 24.5497V18.4414H103.467V29.7745H100.972L97.0201 23.4227Z" fill="#004A9B"/>
</g>
</g>
<defs>
<clipPath id="clip0_244_2060">
<rect width="125" height="50" fill="white"/>
</clipPath>
<clipPath id="clip1_244_2060">
<rect width="108.094" height="50.3013" fill="white" transform="translate(8.92126 0.027832)"/>
</clipPath>
</defs>
</svg>
