<svg width="97" height="26" viewBox="0 0 97 26" fill="none" xmlns="http://www.w3.org/2000/svg">
<mask id="mask0_12_3615" style="mask-type:luminance" maskUnits="userSpaceOnUse" x="0" y="0" width="97" height="26">
<path d="M97 0.0231934H0V25.7885H97V0.0231934Z" fill="white"/>
</mask>
<g mask="url(#mask0_12_3615)">
<path d="M48.9659 21.3322H48.2672L47.9003 18.8869H47.8901L47.1695 20.7695H46.6667L45.9461 18.8869H45.9359L45.5646 21.3322H44.866L45.5456 17.5452H46.0558L46.9108 19.6879H46.921L47.7805 17.5452H48.2877L48.9659 21.3322Z" fill="white"/>
<path d="M45.8277 14.8473H44.0884L39.1189 7.83147H39.1043V14.8473H37.2334V4.61597H38.9728L43.9422 11.6463H43.9569V4.61597H45.8277V14.8473Z" fill="white"/>
<path d="M58.418 9.72992C58.418 12.9016 56.094 15.0647 53.0538 15.0647C50.0137 15.0647 47.7043 12.9016 47.7043 9.72992C47.7043 6.55822 50.0137 4.39502 53.0538 4.39502C56.094 4.39502 58.418 6.55822 58.418 9.72992ZM49.7506 9.72992C49.7506 11.7615 51.1391 13.15 53.0538 13.15C54.9832 13.15 56.3571 11.7615 56.3571 9.72992C56.3571 7.69822 54.9832 6.30972 53.0538 6.30972C51.1391 6.30972 49.7506 7.69822 49.7506 9.72992Z" fill="white"/>
<path d="M63.0149 10.7677H62.3133V14.8456H60.4424V4.61426H64.2134C66.2451 4.61426 67.5167 5.87126 67.5167 7.71286C67.5167 9.23296 66.6251 10.373 65.1196 10.68L68.1452 14.8456H65.792L63.0149 10.7677ZM62.3133 9.11606H63.9211C65.0027 9.11606 65.5143 8.60446 65.5143 7.74206C65.5143 6.90896 65.0027 6.33896 63.9211 6.33896H62.3133V9.11606Z" fill="white"/>
<path d="M78.3499 9.72986C78.3499 12.9162 76.1136 14.8456 73.0296 14.8456H69.7556V4.61426H73.0296C76.1136 4.61426 78.3499 6.54356 78.3499 9.72986ZM71.6265 6.33896V13.1209H73.1173C74.9589 13.1209 76.3328 11.937 76.3328 9.72986C76.3328 7.52286 74.9589 6.33896 73.1173 6.33896H71.6265Z" fill="white"/>
<path d="M82.2187 14.8473H80.3333V4.61597H82.2187V14.8473Z" fill="white"/>
<path d="M84.239 9.72992C84.239 6.49972 86.5342 4.39502 89.7642 4.39502C91.3422 4.39502 92.4972 4.87732 93.4182 5.52042L92.3362 7.15742C91.7082 6.71892 90.8452 6.30972 89.7492 6.30972C87.7612 6.30972 86.2852 7.63982 86.2852 9.72992C86.2852 11.82 87.7612 13.15 89.7492 13.15C90.8452 13.15 91.7082 12.7408 92.3362 12.3023L93.4182 13.9393C92.4972 14.5824 91.3422 15.0647 89.7642 15.0647C86.5342 15.0662 84.239 12.96 84.239 9.72992Z" fill="white"/>
<path d="M36.9951 21.0499L37.3035 20.4171C37.606 20.5954 37.9641 20.7474 38.3266 20.7474C38.6832 20.7474 38.8615 20.591 38.8615 20.363C38.8615 20.1686 38.7212 20.0385 38.4771 19.866L37.8662 19.4275C37.4657 19.1513 37.2655 18.8385 37.2655 18.4322C37.2655 17.8432 37.666 17.469 38.3909 17.469C38.7695 17.469 39.148 17.5713 39.5003 17.7335L39.2021 18.3664C38.9156 18.2203 38.6452 18.134 38.3953 18.134C38.1088 18.134 38.0007 18.2422 38.0007 18.4103C38.0007 18.5564 38.0869 18.6544 38.293 18.8005L38.9478 19.2609C39.3702 19.5474 39.5967 19.85 39.5967 20.3264C39.5967 21.0412 39.0998 21.4197 38.3032 21.4197C37.8121 21.4168 37.3517 21.2706 36.9951 21.0499Z" fill="white"/>
<path d="M43.3839 20.6877V21.3366H41.1125V17.5496H43.3575V18.1985H41.8054V18.9557H43.2231V19.5944H41.8054V20.6877H43.3839Z" fill="white"/>
<path d="M51.2109 21.3366H50.5122V17.5496H51.2109V21.3366Z" fill="white"/>
<path d="M51.2081 21.3366H50.489V17.5496H51.2081V21.3366Z" fill="white"/>
<path d="M52.6096 19.442C52.6096 18.2464 53.4587 17.4673 54.6543 17.4673C55.239 17.4673 55.6658 17.6457 56.0063 17.8839L55.6059 18.489C55.3735 18.3268 55.0548 18.1748 54.6485 18.1748C53.9133 18.1748 53.3667 18.6673 53.3667 19.4405C53.3667 20.2137 53.9133 20.7063 54.6485 20.7063C55.0548 20.7063 55.3735 20.5543 55.6059 20.392L56.0063 20.9986C55.6658 21.2369 55.239 21.4152 54.6543 21.4152C53.4587 21.4166 52.6096 20.6376 52.6096 19.442Z" fill="white"/>
<path d="M61.1368 19.442C61.1368 20.6157 60.2773 21.4166 59.1519 21.4166C58.0264 21.4166 57.1714 20.6157 57.1714 19.442C57.1714 18.2683 58.0264 17.4673 59.1519 17.4673C60.2759 17.4673 61.1368 18.2683 61.1368 19.442ZM57.9285 19.442C57.9285 20.1947 58.443 20.7077 59.1504 20.7077C59.8652 20.7077 60.3738 20.1932 60.3738 19.442C60.3738 18.6907 59.8652 18.1762 59.1504 18.1762C58.4415 18.1762 57.9285 18.6907 57.9285 19.442Z" fill="white"/>
<path d="M65.7684 21.3366H65.1253L63.2866 18.7393H63.2808V21.3366H62.5879V17.5496H63.2311L65.0698 20.1513H65.0756V17.5496H65.7684V21.3366Z" fill="white"/>
<path d="M70.6637 19.4303C70.6637 20.6098 69.8364 21.3231 68.6949 21.3231H67.4832V17.5361H68.6949C69.8364 17.5375 70.6637 18.2508 70.6637 19.4303ZM68.1746 18.1748V20.6844H68.7256C69.4067 20.6844 69.9154 20.2459 69.9154 19.4289C69.9154 18.6118 69.4067 18.1733 68.7256 18.1733H68.1746V18.1748Z" fill="white"/>
<path d="M75.2266 19.8311C75.2266 20.7885 74.6581 21.3994 73.6686 21.3994C72.6732 21.3994 72.1047 20.7885 72.1047 19.8311V17.5378H72.8355V19.7887C72.8355 20.3354 73.1599 20.6861 73.6686 20.6861C74.1713 20.6861 74.4958 20.3339 74.4958 19.7887V17.5378H75.2266V19.8311Z" fill="white"/>
<path d="M76.6648 19.4303C76.6648 18.2347 77.514 17.4556 78.7096 17.4556C79.2942 17.4556 79.721 17.6339 80.0616 17.8722L79.6611 18.4773C79.4287 18.315 79.1101 18.163 78.7037 18.163C77.9685 18.163 77.4219 18.6556 77.4219 19.4288C77.4219 20.202 77.9685 20.6945 78.7037 20.6945C79.1101 20.6945 79.4287 20.5425 79.6611 20.3803L80.0616 20.9869C79.721 21.2251 79.2942 21.4034 78.7096 21.4034C77.514 21.4049 76.6648 20.6259 76.6648 19.4303Z" fill="white"/>
<path d="M83.9511 18.1868H82.9178V21.3249H82.225V18.1868H81.1917V17.5378H83.9511V18.1868Z" fill="white"/>
<path d="M88.98 19.4303C88.98 20.6039 88.121 21.4049 86.995 21.4049C85.87 21.4049 85.0149 20.6039 85.0149 19.4303C85.0149 18.2566 85.87 17.4556 86.995 17.4556C88.119 17.4556 88.98 18.2566 88.98 19.4303ZM85.7721 19.4303C85.7721 20.183 86.287 20.696 86.994 20.696C87.709 20.696 88.217 20.1815 88.217 19.4303C88.217 18.679 87.709 18.1645 86.994 18.1645C86.287 18.1645 85.7721 18.679 85.7721 19.4303Z" fill="white"/>
<path d="M91.3502 19.815H91.0902V21.3249H90.3972V17.5378H91.7932C92.5452 17.5378 93.0142 18.0026 93.0142 18.6852C93.0142 19.2479 92.6842 19.6703 92.1272 19.7829L93.2472 21.3249H92.3762L91.3502 19.815ZM91.0902 19.2041H91.6842C92.0852 19.2041 92.2732 19.0155 92.2732 18.6954C92.2732 18.387 92.0852 18.1766 91.6842 18.1766H91.0902V19.2041Z" fill="white"/>
<path d="M95.5041 5.86502V6.40292H95.4011V5.22192H95.9221C96.1481 5.22192 96.3131 5.32132 96.3131 5.53472C96.3131 5.67212 96.2501 5.77732 96.0911 5.81532C96.1831 5.83872 96.2811 5.90452 96.2811 6.10762V6.15582C96.2811 6.25232 96.2811 6.35612 96.2941 6.40292H96.1891C96.1731 6.35172 96.1771 6.25092 96.1771 6.16612V6.12662C96.1771 5.92352 96.0981 5.86502 95.8721 5.86502H95.5041ZM95.5041 5.77142H95.8921C96.1011 5.77142 96.2071 5.69842 96.2071 5.53612C96.2071 5.38852 96.1011 5.31842 95.9011 5.31842H95.5051L95.5041 5.77142Z" fill="white"/>
<path d="M96.3511 6.44689H96.1801L96.1731 6.42499C96.1581 6.37819 96.1581 6.30219 96.1601 6.22769V6.13999C96.1601 5.96019 96.1011 5.91049 95.8851 5.91049H95.5491V6.44839H95.3821V5.20459H95.9351C96.1991 5.20459 96.3581 5.33319 96.3581 5.54949C96.3581 5.68399 96.3031 5.78039 96.1951 5.83309C96.2821 5.88569 96.3281 5.98359 96.3281 6.12389V6.17219C96.3281 6.26419 96.3281 6.36799 96.3391 6.40889L96.3511 6.44689ZM96.2281 6.38259H96.2711C96.2631 6.32709 96.2631 6.24669 96.2631 6.16779V6.11949C96.2631 5.92219 96.1681 5.87549 96.0971 5.85789L95.9701 5.82579L96.0971 5.79509C96.2301 5.76289 96.2941 5.68109 96.2941 5.54509C96.2941 5.29229 96.0431 5.26449 95.9351 5.26449H95.4461V6.38119H95.4841V5.84329H95.8851C96.0981 5.84329 96.2221 5.89149 96.2221 6.13709V6.22619C96.2221 6.28179 96.2211 6.34169 96.2281 6.38259ZM95.9051 5.81409H95.4841V5.29669H95.9131C96.1921 5.29669 96.2501 5.43259 96.2501 5.54659C96.2521 5.72489 96.1351 5.81409 95.9051 5.81409ZM95.5491 5.75119H95.9051C96.1551 5.75119 96.1871 5.64309 96.1871 5.54809C96.1871 5.50269 96.1871 5.36239 95.9141 5.36239H95.5491V5.75119Z" fill="white"/>
<path d="M95.837 6.91132C95.22 6.91132 94.717 6.41002 94.717 5.79172C94.717 5.17492 95.22 4.67212 95.837 4.67212C96.454 4.67212 96.956 5.17352 96.956 5.79172C96.955 6.41002 96.454 6.91132 95.837 6.91132ZM95.837 4.77742C95.277 4.77742 94.821 5.23342 94.821 5.79322C94.821 6.35302 95.277 6.80902 95.837 6.80902C96.397 6.80902 96.853 6.35302 96.853 5.79322C96.853 5.23192 96.397 4.77742 95.837 4.77742Z" fill="white"/>
<path d="M95.85 6.95539C95.216 6.95539 94.7 6.43949 94.698 5.80509C94.698 5.17079 95.214 4.65479 95.85 4.65479C96.484 4.65479 97 5.17079 97 5.80509C97 6.43949 96.484 6.95539 95.85 6.95539ZM95.85 4.71769C95.251 4.71769 94.763 5.20589 94.763 5.80509C94.763 6.40439 95.251 6.89258 95.85 6.89258C96.449 6.89258 96.937 6.40439 96.937 5.80509C96.937 5.20589 96.449 4.71769 95.85 4.71769ZM95.85 6.85159C95.273 6.85159 94.802 6.38099 94.802 5.80369C94.802 5.22629 95.273 4.75569 95.85 4.75569C96.427 4.75569 96.898 5.22629 96.898 5.80369C96.898 6.38099 96.427 6.85159 95.85 6.85159ZM95.85 4.81999C95.308 4.81999 94.866 5.26139 94.866 5.80369C94.866 6.34589 95.308 6.78729 95.85 6.78729C96.392 6.78729 96.834 6.34589 96.834 5.80369C96.834 5.26139 96.392 4.81999 95.85 4.81999Z" fill="white"/>
<path d="M21.0489 0.191293C21.0328 0.198593 21.0167 0.208793 21.0006 0.216093C20.9349 0.245293 20.8706 0.277493 20.8077 0.313993L14.5432 3.93009L21.8352 8.16139V0.0231934C21.5678 0.0289934 21.3003 0.0845928 21.0489 0.191293Z" fill="#81CADF"/>
<path d="M8.20135 25.5984L14.8342 21.7675L7.52905 17.561L7.53335 25.7898C7.77455 25.7928 7.99525 25.7197 8.20135 25.5984Z" fill="#60BDD8"/>
<path d="M29.2924 21.2782L14.3343 12.6416L14.3328 12.6401L13.6313 12.2352L0.152308 4.45801C0.0558085 4.69621 0.00320898 4.95201 0.00170898 5.21801C0.00170898 5.27651 0.00170898 5.33641 0.00170898 5.39341V20.8485C0.00170898 21.3382 0.269209 21.7898 0.697409 22.0251L6.85231 25.6207C7.06421 25.7376 7.29961 25.7932 7.53341 25.7888L7.52761 17.8727L7.52901 17.5614L21.4933 25.6017C21.5342 25.6236 21.5766 25.6426 21.619 25.6616C21.6321 25.6675 21.6438 25.6748 21.657 25.6792C22.0575 25.8356 22.3936 25.7113 22.7634 25.476L25.1005 24.1474L28.8277 21.9243C29.0469 21.7606 29.2062 21.534 29.2924 21.2782Z" fill="#94D1E3"/>
<path d="M29.3671 11.0878V5.22668C29.3671 4.47548 28.9579 3.78408 28.3001 3.42308L22.8863 0.282076C22.5589 0.102276 22.1964 0.0160767 21.8354 0.0233767V8.16168L9.62798 1.07868L8.26868 0.314276C7.67678 -0.0175241 7.15058 -0.0424236 6.54398 0.235276C6.52938 0.242576 6.51478 0.251376 6.49868 0.258676C6.42848 0.292276 6.35978 0.328876 6.29258 0.371276L4.14838 1.62088L1.06438 3.40998C0.64198 3.64238 0.326279 4.02528 0.150879 4.45788C0.168479 4.46668 13.6299 12.2352 13.6299 12.2352L14.3315 12.64L14.3329 12.6415L29.2911 21.2782C29.3642 21.0005 29.3642 20.4904 29.3642 20.4904V11.0878H29.3671Z" fill="#00A9CE"/>
</g>
</svg>
