<svg width="125" height="50" viewBox="0 0 125 50" fill="none" xmlns="http://www.w3.org/2000/svg">
<path d="M43.6711 33.1279V18.0647V3.00154L51.1605 3L52.6969 8.60041C53.5416 11.6826 54.323 14.533 54.4342 14.9362C54.5438 15.3394 54.7044 15.67 54.7893 15.67C54.8897 15.67 54.9438 13.4562 54.9438 3.00154H60.5029V33.1279H53.6312L51.5589 25.6735C50.4192 21.5733 49.4309 18.1157 49.363 17.9875C49.2951 17.8592 49.2379 21.2148 49.2302 33.1279H43.6711Z" fill="white"/>
<path d="M92.3135 7.32738V5.16446V3.00154H98.3359V7.32738H92.3135Z" fill="white"/>
<path d="M99.4169 33.1279V18.0647V3.00154H105.439L105.436 9.52891C105.435 13.1194 105.493 15.9868 105.564 15.9018C105.637 15.8168 106.315 14.1653 108.45 8.71937L111.577 8.71782C113.298 8.71782 114.675 8.77035 114.64 8.83369C114.604 8.89703 113.63 11.2778 112.475 14.1251C111.32 16.9724 110.378 19.3702 110.382 19.4552C110.385 19.5401 111.474 22.182 112.8 25.3259L113.118 26.0776C114.328 28.9473 115.465 31.6411 116.094 33.1279L109.068 33.1387L107.394 29.1558C106.474 26.9636 105.657 25.1019 105.578 25.0169C105.489 24.9211 105.435 26.4398 105.439 33.1279H99.4169Z" fill="white"/>
<path d="M85.133 46.2537C85.3955 46.4174 85.4634 46.4051 85.5854 46.161C85.7012 45.9277 85.7398 45.9169 85.7939 46.1054C85.8294 46.232 85.7229 46.5101 85.5576 46.7233C85.3924 46.935 85.0897 47.1327 84.8859 47.159C84.6805 47.1868 84.4288 47.1018 84.3223 46.9659C84.2157 46.833 84.1648 46.6183 84.2064 46.4916C84.2481 46.3634 84.4056 46.215 84.5539 46.1594C84.7021 46.1038 84.9631 46.1471 85.133 46.2537Z" fill="white"/>
<path d="M30.9314 3.84289C31.7808 3.63741 33.1011 3.37323 33.8654 3.25427C34.6298 3.13531 35.8976 3.03025 38.112 3.00244V16.5979L37.4557 16.5964C37.0944 16.5948 36.191 16.6999 35.4482 16.8281C34.7055 16.9563 33.5798 17.2174 31.8008 17.7566L28.5086 11.9739C26.6988 8.79287 25.2009 6.13403 25.1793 6.06451C25.1577 5.99499 25.4356 5.78951 25.797 5.60721C26.1583 5.42491 27.1142 5.03713 27.9202 4.74513C28.7263 4.45314 30.0821 4.04682 30.9314 3.84289Z" fill="#1E59AE"/>
<path d="M9.223 24.5543C9.38051 24.0445 9.73877 23.0496 10.0167 22.342C10.4151 21.3316 10.5742 21.0782 10.7672 21.157C10.9016 21.2111 13.5483 22.6108 16.6475 24.267C19.7483 25.9232 22.3379 27.326 22.4043 27.3847C22.4692 27.4418 22.3735 28.0459 22.1912 28.7257C22.009 29.4055 21.7789 30.6908 21.5025 33.206L7.99999 33.2833V32.1632C7.99999 31.5467 8.07257 30.4529 8.16213 29.7299C8.2517 29.0069 8.46171 27.7555 8.63003 26.949C8.79835 26.1425 9.06395 25.0642 9.223 24.5543Z" fill="#1E59AE"/>
<path fill-rule="evenodd" clip-rule="evenodd" d="M68.803 8.58183C69.4192 8.57102 70.4615 8.67453 71.1194 8.80894C71.7772 8.94489 72.6636 9.21835 73.0882 9.41919C73.5129 9.62003 74.1383 10.0186 74.478 10.306C74.8254 10.5995 75.264 11.1943 75.8678 12.5029V29.8062L75.4817 30.6405C75.2686 31.1009 74.8702 31.674 74.5938 31.9151C74.3174 32.1576 73.797 32.5037 73.4357 32.6829C73.0743 32.8636 72.3269 33.1062 71.7756 33.2221C71.2244 33.3364 69.972 33.4322 68.9961 33.4322C68.0201 33.4322 66.7678 33.3364 66.2165 33.2205C65.6652 33.1062 64.8653 32.8389 64.4407 32.6273C64.016 32.4156 63.3721 31.9042 63.0107 31.4887C62.5413 30.9495 62.285 30.4674 62.1135 29.8062C61.9082 29.0121 61.8804 27.6896 61.9699 12.3252L62.4332 11.4183C62.7034 10.89 63.1543 10.3106 63.5141 10.031C63.8539 9.76834 64.5488 9.39447 65.0583 9.20135C65.5679 9.00823 66.3678 8.79349 66.8342 8.72551C67.3005 8.65753 68.1869 8.59265 68.803 8.58183V8.58183ZM67.8827 21.0897C67.9028 28.6382 67.9244 29.2068 68.1807 29.454C68.3321 29.6007 68.6286 29.7243 68.8417 29.7274C69.0532 29.7305 69.3667 29.6347 69.5365 29.5127C69.8377 29.2964 69.8469 29.0909 69.884 21.2055C69.9164 14.244 69.8886 13.073 69.691 12.7733C69.5273 12.5276 69.3065 12.4256 68.942 12.4256C68.6455 12.4256 68.3027 12.5461 68.1421 12.7084C67.875 12.9756 67.8611 13.4345 67.8827 21.0897V21.0897ZM86.8316 8.61891C87.7257 8.6529 88.2971 8.76877 88.904 9.03913C89.3935 9.25851 89.9571 9.66947 90.2613 10.031C90.547 10.3709 90.8466 10.8931 90.9284 11.1897C91.0103 11.4879 91.0767 13.0343 91.0782 17.5239H85.0558V15.2838C85.0558 13.2491 85.028 13.0158 84.747 12.7346C84.5771 12.5647 84.2822 12.4256 84.0907 12.4241C83.8992 12.4241 83.5873 12.5276 83.0483 12.8891V33.1278H77.0259V8.71779H83.0483V9.10402C83.0483 9.49026 83.0483 9.49026 83.5502 9.23071C83.8266 9.08857 84.3995 8.88155 84.8242 8.77186C85.2488 8.66217 86.1522 8.59265 86.8316 8.61891V8.61891ZM92.3136 8.71779H98.336V33.1278H92.3136V8.71779ZM79.4581 35.6028C79.5646 35.6013 79.6511 35.6693 79.6511 35.7542C79.6511 35.8392 79.5646 35.9056 79.4581 35.9041C79.3515 35.901 79.0736 36.04 78.8404 36.2131C78.5573 36.4222 78.3854 36.7198 78.3246 37.1061C78.269 37.4568 78.3154 37.8584 78.4404 38.1242C78.5547 38.3667 78.7863 38.6525 78.9562 38.7607C79.1261 38.8673 79.787 39.1438 80.4232 39.374C81.0609 39.6042 81.7898 39.9194 82.0446 40.0723C82.2994 40.2268 82.6299 40.6038 82.7781 40.9112C82.9263 41.2187 83.0483 41.6791 83.0483 41.934C83.0483 42.1889 82.9263 42.6508 82.7781 42.9614C82.6299 43.2704 82.3349 43.6489 82.1218 43.8018C81.9103 43.9532 81.4933 44.1293 80.6548 44.3055L81.2277 43.7756C81.7311 43.3121 81.8006 43.1576 81.8068 42.5133C81.8114 41.9386 81.7342 41.7038 81.4485 41.4319C81.2493 41.2403 80.5019 40.8772 79.7885 40.6254C79.0442 40.3628 78.2737 39.9673 77.9787 39.6985C77.6961 39.4405 77.3935 38.9878 77.3039 38.6896C77.2159 38.3914 77.1834 37.9063 77.2329 37.6082C77.2823 37.31 77.4521 36.8681 77.6112 36.6225C77.7687 36.3784 78.2057 36.0509 78.581 35.8933C78.9577 35.7357 79.3515 35.6044 79.4581 35.6028V35.6028ZM79.7283 35.6198L80.3074 35.6106C80.6255 35.6044 81.1644 35.7048 81.5041 35.8315C82.0014 36.0184 82.1681 36.0261 82.3596 35.8701C82.5712 35.7002 82.5974 35.799 82.5913 36.7198C82.5882 37.293 82.5326 37.7657 82.4693 37.7688C82.4059 37.7719 82.267 37.5803 82.162 37.344C82.057 37.1076 81.779 36.7214 81.5443 36.4881C81.3096 36.2548 80.8062 35.9628 80.4232 35.8423L79.7283 35.6198ZM94.9773 37.7673C95.0406 37.7642 95.0931 37.9697 95.0931 38.6881H97.255L97.062 39.0789C96.8891 39.4296 96.7794 39.4698 95.0931 39.4605L95.0916 41.1986C95.0916 42.6153 95.141 43.0046 95.3618 43.3043C95.5827 43.6025 95.7433 43.6612 96.2127 43.6133C96.5308 43.5809 96.7933 43.5902 96.7964 43.6319C96.7995 43.6751 96.6528 43.8482 96.4706 44.0181C96.2467 44.2282 95.927 44.3271 95.4792 44.3271C95.0298 44.3271 94.7102 44.2282 94.4863 44.0181C94.1805 43.7308 94.1574 43.5593 94.162 41.5848C94.1666 39.4822 94.1635 39.4605 93.8192 39.4652C93.6277 39.4667 93.4192 39.4327 93.3559 39.3879C93.2926 39.3431 93.6045 38.9615 94.0508 38.5398C94.4971 38.118 94.914 37.7704 94.9773 37.7673ZM91.8905 38.7066C92.1653 38.7869 92.3985 38.8673 92.4078 38.8858C92.4155 38.9044 92.468 39.1454 92.5236 39.4219C92.5776 39.6985 92.5699 39.9225 92.5066 39.9194C92.4433 39.9163 92.1468 39.6382 91.8503 39.303C91.5538 38.9662 91.3284 38.6618 91.35 38.6263C91.3716 38.5907 91.6156 38.6278 91.8905 38.7066ZM99.2841 38.6216C99.3567 38.6587 99.1668 38.9492 98.861 39.2674C98.4842 39.6598 98.3221 39.958 98.3591 40.1913C98.3885 40.3813 98.3607 40.5374 98.2974 40.5389C98.2341 40.5405 98.1816 40.7336 98.1831 40.9669C98.1831 41.2001 98.248 41.6358 98.3267 41.9324C98.4055 42.2306 98.7174 42.6987 99.0201 42.9753C99.4787 43.394 99.6949 43.4774 100.305 43.4789C100.708 43.4789 101.194 43.3754 101.386 43.2472C101.577 43.119 101.786 43.0556 101.849 43.1066C101.912 43.1576 101.687 43.4341 101.347 43.7215C101.007 44.0088 100.521 44.2699 100.266 44.3008C100.011 44.3333 99.559 44.3024 99.2625 44.2329C98.966 44.1633 98.5491 43.9749 98.336 43.8157C98.1244 43.6566 97.794 43.2549 97.6056 42.9227C97.3539 42.4824 97.2597 42.0684 97.2597 41.3917C97.2597 40.7181 97.3539 40.2979 97.6056 39.853C97.794 39.5162 98.2202 39.0867 98.5506 38.8982C98.8795 38.7082 99.21 38.5846 99.2841 38.6216V38.6216ZM100.607 38.7051C100.845 38.7947 101.142 38.9229 101.27 38.9893C101.398 39.0558 101.624 39.3632 101.772 39.6722C101.92 39.9812 102.042 40.3025 102.042 40.3875C102.042 40.4725 101.73 40.542 101.347 40.542C100.964 40.542 100.617 40.4725 100.575 40.3875C100.533 40.3025 100.567 40.233 100.652 40.233C100.737 40.233 100.808 40.0414 100.811 39.8082C100.814 39.5749 100.674 39.2442 100.498 39.0743C100.322 38.9044 100.178 38.7159 100.178 38.6541C100.178 38.5923 100.371 38.6155 100.607 38.7051V38.7051ZM104.088 38.5444C104.151 38.5382 104.209 38.7947 104.215 39.1129C104.221 39.4312 104.219 40.6656 104.21 41.8552C104.198 43.4697 104.244 44.0475 104.392 44.1324C104.5 44.1942 104.173 44.2406 103.663 44.2359C103.154 44.2298 102.823 44.1958 102.93 44.1602C103.074 44.1124 103.123 43.4944 103.123 41.7779C103.123 39.5038 103.117 39.459 102.776 39.3709C102.558 39.3153 102.485 39.2319 102.583 39.1454C102.667 39.0712 103.015 38.9075 103.355 38.7823C103.694 38.6572 104.025 38.5506 104.088 38.5444V38.5444ZM106.018 38.5351C106.21 38.5336 106.505 38.6031 106.675 38.6881C106.845 38.773 107.096 39.0681 107.234 39.3447C107.433 39.7417 107.481 40.2917 107.465 41.9711C107.451 43.5469 107.496 44.1124 107.64 44.1602C107.746 44.1958 107.455 44.2313 106.991 44.2375C106.321 44.2483 106.188 44.2112 106.338 44.0567C106.46 43.9316 106.525 43.3275 106.522 42.3187C106.52 41.469 106.449 40.5126 106.364 40.1944C106.273 39.8499 106.071 39.5455 105.864 39.442C105.672 39.3478 105.325 39.3138 105.092 39.3648C104.849 39.4204 104.658 39.3941 104.647 39.3045C104.635 39.218 104.862 39.0094 105.149 38.841C105.436 38.6726 105.827 38.5351 106.018 38.5351V38.5351ZM109.338 38.5444C109.487 38.5382 109.782 38.6201 109.995 38.7267C110.206 38.8333 110.461 39.0944 110.563 39.306C110.663 39.5192 110.785 40.7181 110.921 44.2514L110.149 44.2375C109.724 44.2313 109.464 44.1958 109.57 44.1602C109.711 44.1139 109.765 43.5608 109.768 42.1256C109.774 40.3829 109.738 40.1079 109.459 39.7309C109.247 39.4435 109.005 39.306 108.713 39.306C108.475 39.306 108.183 39.3895 108.064 39.4914C107.893 39.6382 107.853 39.6305 107.871 39.4513C107.885 39.3277 108.055 39.1222 108.25 38.9955C108.446 38.8688 108.708 38.719 108.837 38.6603C108.965 38.6031 109.19 38.5506 109.338 38.5444V38.5444ZM114.823 38.6294C115.055 38.685 115.335 38.8086 115.444 38.9028C115.555 38.9971 115.637 39.3524 115.63 39.6923C115.616 40.2346 115.591 40.2747 115.429 40.0167C115.328 39.8545 115.057 39.5069 114.827 39.2442C114.596 38.9801 114.408 38.7128 114.407 38.6464C114.405 38.5815 114.593 38.5737 114.823 38.6294V38.6294ZM84.4767 38.685C85.4341 38.6881 85.5052 38.7097 85.3399 38.9584C85.1963 39.1763 85.2828 39.5733 85.7862 41.0055C86.2587 42.3511 86.4703 42.7729 86.6602 42.7435C86.8872 42.708 86.8888 42.7698 86.6757 43.4388C86.5491 43.842 86.3576 44.4352 86.251 44.7566C86.146 45.0764 86.024 45.3359 85.9823 45.3329C85.9406 45.3313 85.9252 45.1382 85.9484 44.9049C85.9731 44.6685 85.5484 43.2889 84.9863 41.7779C84.4335 40.2917 83.8575 38.9862 83.7077 38.8781C83.4761 38.7128 83.595 38.6834 84.4767 38.685V38.685ZM88.4531 38.6881L88.1535 39.1129C87.9883 39.3462 87.7443 39.9379 87.613 40.4261C87.4802 40.9143 87.3026 41.3145 87.2177 41.3145C87.1328 41.3145 87.1127 41.228 87.1745 41.1213C87.2362 41.0147 87.3011 40.8247 87.3212 40.6965C87.3397 40.5698 87.4462 40.1743 87.5559 39.819C87.7288 39.2659 87.7242 39.1361 87.5296 38.9306C87.3242 38.7128 87.3598 38.6881 88.4531 38.6881V38.6881ZM90.0359 38.6927C90.0992 38.6912 90.1548 38.7406 90.1579 38.8039C90.1625 38.8673 90.0544 39.0249 89.9201 39.1516C89.7857 39.2798 89.6761 39.5579 89.6761 39.7695C89.6776 39.9827 89.8027 40.2732 89.954 40.4169C90.1054 40.559 90.5594 40.7506 90.9624 40.8417C91.3654 40.9313 91.8874 41.1013 92.1205 41.2187C92.3537 41.3361 92.6317 41.6142 92.7382 41.8367C92.8448 42.0591 92.9313 42.45 92.9313 42.7049C92.9313 43.0232 92.766 43.3383 92.4062 43.7091C92.1175 44.0073 91.77 44.2499 91.6341 44.2499C91.4982 44.2499 91.387 44.1803 91.387 44.0954C91.387 44.0104 91.4396 43.9424 91.5029 43.9455C91.5662 43.9486 91.7052 43.774 91.8117 43.5593C91.9183 43.3445 92.0047 43.0293 92.0047 42.8594C92.0047 42.6895 91.8827 42.4268 91.7345 42.277C91.5862 42.1256 91.0643 41.917 90.5763 41.8135C89.9139 41.6713 89.5911 41.506 89.3024 41.16C89.0908 40.9051 88.9163 40.5235 88.9163 40.3103C88.9163 40.0986 89.0306 39.7185 89.1711 39.4683C89.3101 39.218 89.5371 38.9414 89.673 38.8549C89.8089 38.7684 89.9726 38.6958 90.0359 38.6927V38.6927ZM113.295 38.6989C113.327 38.6927 113.245 38.8101 113.114 38.9584C112.983 39.1067 112.833 39.4034 112.779 39.615C112.725 39.836 112.768 40.1202 112.884 40.2794C112.994 40.4338 113.57 40.6934 114.164 40.8572C114.908 41.0626 115.344 41.2789 115.563 41.5524C115.744 41.7779 115.894 42.2136 115.911 42.5597C115.926 42.8949 115.87 43.3074 115.785 43.4774C115.701 43.6473 115.423 43.8914 115.168 44.0181C114.913 44.1463 114.604 44.2499 114.481 44.2499C114.325 44.2499 114.373 44.1309 114.635 43.8636C114.891 43.6025 115.013 43.3028 115.013 42.9367C115.013 42.5427 114.919 42.3372 114.666 42.1796C114.474 42.0607 114.075 41.9124 113.778 41.8521C113.482 41.7903 113.046 41.6451 112.813 41.5277C112.58 41.4103 112.309 41.1584 112.214 40.9669C112.118 40.7753 112.045 40.3767 112.053 40.0785C112.061 39.7819 112.18 39.4065 112.319 39.2473C112.456 39.0867 112.72 38.8997 112.904 38.8317C113.088 38.7638 113.264 38.7035 113.295 38.6989V38.6989ZM77.1912 42.1642L77.4877 42.5504C77.6513 42.7636 77.9262 43.1282 78.1007 43.3615C78.2737 43.5948 78.6597 43.8729 78.9577 43.9795C79.2573 44.0861 79.4998 44.2251 79.4982 44.2885C79.4982 44.3518 79.3932 44.4043 79.265 44.4043C79.1384 44.4043 78.7215 44.3008 78.3385 44.1726C77.7795 43.9857 77.5973 43.9795 77.4058 44.134C77.1943 44.3055 77.168 44.202 77.1788 43.2456L77.1912 42.1642ZM89.1186 42.9227C89.2205 43.0834 89.4939 43.4496 89.727 43.7338C90.0822 44.1664 90.1084 44.2499 89.8814 44.2483C89.7332 44.2468 89.4552 44.2128 89.2638 44.1711C88.9611 44.1046 88.9179 44.0011 88.9256 43.3615C88.9333 42.7312 88.9611 42.6694 89.1186 42.9227ZM112.079 42.8594C112.164 42.8594 112.309 43.0154 112.404 43.207C112.496 43.3986 112.757 43.7107 112.983 43.9022C113.386 44.2437 113.387 44.2483 113.045 44.2499C112.853 44.2499 112.524 44.1803 112.311 44.0954C112.002 43.9718 111.925 43.8327 111.925 43.4001C111.925 43.1035 111.994 42.8594 112.079 42.8594Z" fill="white"/>
<path d="M17.2096 11.488C18.0465 10.6754 19.3576 9.546 20.122 8.97901C20.8848 8.41202 21.5704 7.96399 21.643 7.98561C21.7156 8.0057 23.4868 10.5178 25.5807 13.5659C29.1216 18.7214 29.3656 19.12 29.0783 19.276C28.9085 19.3687 28.2831 19.8368 27.6886 20.3158C27.094 20.7963 26.254 21.5981 25.8201 22.0986C25.3877 22.5992 24.7438 23.4427 23.7508 24.9398L23.3262 24.6524C23.093 24.4933 20.7134 22.9545 18.0373 21.2304C15.3612 19.5078 12.9815 17.9675 12.3237 17.5241L12.9661 16.5585C13.3197 16.027 14.0764 15.0027 14.6477 14.2797C15.2206 13.5582 16.3726 12.3006 17.2096 11.488Z" fill="#1E59AE"/>
<path d="M33.9426 22.8464C34.4939 22.6193 35.3988 22.3443 35.9501 22.233C36.5013 22.1234 37.2148 22.0276 38.1119 22.0044V33.2825H32.63C27.5511 33.2825 27.1404 33.2624 27.0446 33.0121C26.9875 32.8638 27.023 32.2381 27.1218 31.6216C27.2207 31.0052 27.4461 30.0674 27.6222 29.536C27.7967 29.0045 28.2043 28.1177 28.5271 27.5662C28.8498 27.0146 29.5231 26.1201 30.0219 25.5778C30.5222 25.0371 31.3838 24.294 31.9351 23.9263C32.4864 23.5586 33.3913 23.072 33.9426 22.8464Z" fill="#1E59AE"/>
</svg>
