<svg width="79" height="25" viewBox="0 0 79 25" fill="none" xmlns="http://www.w3.org/2000/svg">
<path d="M19.2022 24.3481C17.5928 23.9137 16.329 22.877 15.6576 21.4354C15.5194 21.1392 15.4009 20.8332 15.4009 20.7739C15.4009 20.6752 14.8282 20.6456 12.8436 20.6456H10.2864L9.93086 21.3861C9.30886 22.719 8.16356 23.7162 6.76146 24.1605C3.96726 25.0492 1.12366 23.42 0.205462 20.4086C-0.0809377 19.4706 -0.0710385 18.5918 0.254762 17.5749C0.817562 15.7976 1.97276 14.5832 3.67106 13.9809C4.37206 13.734 4.51026 13.7143 5.44826 13.7735C6.01106 13.8032 6.59366 13.8427 6.75156 13.8525C7.02806 13.8822 7.07746 13.813 8.01546 12.1641C8.54856 11.2163 8.98306 10.4264 8.98306 10.4067C8.98306 10.3869 8.82506 10.1401 8.63746 9.85372C8.44986 9.57732 8.17336 9.05402 8.02526 8.69852C7.77846 8.11602 7.74886 7.94812 7.75866 6.82252C7.75866 5.36132 7.91666 4.80832 8.65716 3.72222C9.62476 2.30042 11.1947 1.46122 12.8831 1.46122C15.5589 1.45132 17.81 3.51492 18.1161 6.27952C18.2445 7.48412 17.7409 9.22182 17.0103 10.071L16.6548 10.4856L16.8819 10.9003C18.3037 13.4378 18.6493 13.9809 18.8172 13.971C18.9258 13.9611 19.2713 13.9019 19.5972 13.8328C20.703 13.6156 22.0557 13.9216 23.1714 14.6424C24.6228 15.5804 25.4423 17.0417 25.5411 18.8683C25.6299 20.4974 25.1461 21.7613 23.981 22.9263C22.6876 24.2297 20.8116 24.7826 19.2022 24.3481ZM21.6904 21.8699C22.8456 21.317 23.517 19.9643 23.2998 18.6412C23.043 17.0614 21.7694 16.0247 20.1896 16.1235C19.0541 16.2024 18.1852 16.7652 17.7014 17.7625C17.4645 18.2561 17.425 18.4339 17.4348 19.1645C17.4447 20.1519 17.5928 20.5567 18.1852 21.2083C19.1134 22.2056 20.4562 22.4524 21.6904 21.8699ZM6.56396 21.8008C7.65006 21.2478 8.23266 20.2901 8.23266 19.0658C8.23266 18.0883 7.95616 17.4564 7.25516 16.8047C5.74446 15.4323 3.46366 15.9062 2.57506 17.7822C2.20976 18.5622 2.20976 19.5891 2.58496 20.3493C2.88116 20.9615 3.05886 21.1787 3.55256 21.5539C4.39186 22.1858 5.62606 22.2846 6.56396 21.8008ZM15.3515 17.6341C15.5292 16.9627 16.0328 16.0445 16.4475 15.6002L16.6943 15.3434L15.7168 13.6254C14.9566 12.2728 14.7097 11.9074 14.5616 11.9173C14.453 11.9272 14.0976 11.9864 13.7718 12.0555C13.0806 12.1938 12.0834 12.1345 11.4515 11.9173C11.1059 11.7988 10.9874 11.789 10.8985 11.8877C10.6122 12.1839 8.98306 15.2348 9.05216 15.3434C9.09166 15.4126 9.26936 15.6495 9.43726 15.8766C9.82226 16.3802 10.237 17.2589 10.3259 17.7625C10.3654 17.9599 10.4147 18.1574 10.4345 18.2068C10.4542 18.2463 11.5304 18.2759 12.8239 18.2759H15.1738L15.3515 17.6341ZM14.3444 9.46872C15.6576 8.76762 16.2303 7.13852 15.6872 5.67722C15.4108 4.94662 14.9368 4.43312 14.1963 4.05792C13.1003 3.51492 11.876 3.69262 10.938 4.53192C9.72356 5.63772 9.58536 7.41502 10.6221 8.76762C11.4515 9.85372 13.051 10.1499 14.3444 9.46872Z" fill="white"/>
<path d="M31.0996 19.4114V15.0078L32.3042 15.0374L33.5088 15.067L35.1972 18.2266L36.8757 21.3861L36.9053 18.2068L36.925 15.0177H37.8137H38.7023V19.4114V23.815L37.5569 23.7854L36.4116 23.7558L34.6739 20.6357L32.9262 17.5157L32.8966 20.6555L32.8769 23.8052H31.9882H31.0996V19.4114Z" fill="white"/>
<path d="M43.3431 23.6767C42.6223 23.4694 42.1878 23.2225 41.8027 22.798C41.1214 22.0377 41.1215 22.0476 41.0919 18.3549L41.0623 15.0176H42.0003H42.9383L42.9678 18.108C42.9974 21.5638 43.0074 21.6033 43.7084 22.0476C44.2021 22.3438 45.4659 22.3734 46.0287 22.0969C46.7495 21.7316 46.7495 21.7612 46.7791 18.2067L46.8087 15.0176H47.7467H48.6847L48.6551 18.3055C48.6254 21.5243 48.6254 21.5934 48.3885 22.1068C48.1021 22.7387 47.5492 23.2324 46.8087 23.5187C46.1176 23.7853 44.054 23.8841 43.3431 23.6767Z" fill="white"/>
<path d="M53.4042 23.7063C51.5875 23.4002 50.5606 21.86 50.5508 19.4508C50.5508 17.0318 51.5381 15.5211 53.3944 15.1262C53.6807 15.0669 54.7569 15.0176 55.7838 15.0176H57.6598V15.7976V16.5776L55.9121 16.6171C54.3126 16.6467 54.1151 16.6665 53.6906 16.8738C53.4339 17.0022 53.1377 17.249 53.029 17.4169C52.4465 18.3647 52.5749 20.9812 53.2364 21.6131C53.7103 22.0574 54.0855 22.1266 55.9319 22.1266H57.6598V22.9658V23.8051L55.764 23.7952C54.7174 23.7853 53.6511 23.7458 53.4042 23.7063Z" fill="white"/>
<path d="M61.9943 23.7063C60.9378 23.5681 60.2269 23.0547 59.7925 22.1266C59.595 21.7119 59.5851 21.4848 59.5555 18.3549L59.5259 15.0176H60.4639H61.4019L61.4315 18.1574C61.471 22.2747 61.3229 22.0476 63.8801 22.1266L65.5093 22.1759V22.9658V23.7557L64.0282 23.7656C63.2186 23.7754 62.3004 23.7458 61.9943 23.7063Z" fill="white"/>
<path d="M69.9128 23.6965C67.9282 23.4398 66.8125 21.8897 66.8125 19.362C66.8125 17.4466 67.5629 15.9952 68.8958 15.3435C69.4586 15.067 69.4783 15.067 71.6604 15.0374L73.8523 15.0078V15.7878V16.5777L72.0553 16.6172C70.051 16.6666 69.6955 16.7554 69.3204 17.2688C69.113 17.5651 68.8859 18.4438 68.9748 18.5919C69.0044 18.6413 70.1102 18.6709 71.4432 18.6709H73.8523V19.4608V20.2507H71.3839H68.9254L68.9847 20.5765C69.0834 21.1294 69.429 21.6527 69.8535 21.8699C70.1991 22.0477 70.4756 22.0871 72.0257 22.1266L73.803 22.176L73.8326 22.9955L73.8622 23.8052L72.2034 23.7953C71.2951 23.7854 70.2583 23.7459 69.9128 23.6965Z" fill="white"/>
<path d="M76.3208 19.4113V15.0176H77.2588H78.1968V19.4113V23.8051H77.2588H76.3208V19.4113Z" fill="white"/>
<path d="M42.8494 9.52802C42.8494 9.48852 43.2148 8.67882 43.6591 7.74092L44.4687 6.03271H45.4264H46.394L45.9399 7.00031C45.693 7.52361 45.3376 8.29381 45.15 8.69861C44.9525 9.10341 44.7945 9.44901 44.7846 9.44901C44.7254 9.51811 42.8494 9.58722 42.8494 9.52802Z" fill="white"/>
<path d="M47.6576 9.5181C47.6181 9.4885 47.5885 8.5703 47.5885 7.4941V5.5391H45.1695H42.7505V4.8973V4.2555H43.5404C43.9748 4.2555 44.3302 4.216 44.3302 4.1667C44.3302 4.1272 44.2019 3.7915 44.034 3.436C43.8761 3.0707 43.7378 2.7547 43.7378 2.7251C43.7378 2.6955 44.1525 2.6758 44.6561 2.6758H45.5644L45.91 3.4656L46.2457 4.2555H46.9171H47.5885V3.2682V2.2808H45.3176H43.0467V1.639V0.9972H45.3077H47.5787L47.6083 0.5332L47.6379 0.0593004L48.5561 0.0296001L49.4645 0V0.5036V0.9972H51.7354H54.0064V1.639V2.2808H51.7354H49.4645V3.2682V4.2555H50.1458H50.8172L51.1726 3.4656L51.5281 2.6758H52.4759H53.4139L53.1276 3.2484C52.6043 4.295 52.5846 4.2555 53.5028 4.2555H54.3026V4.8973V5.5391H51.8835H49.4645V7.5632V9.5873H48.5956C48.1118 9.5873 47.6873 9.5576 47.6576 9.5181Z" fill="white"/>
<path d="M68.0268 9.53777C68.0268 9.51807 68.1453 9.25147 68.2934 8.95527C68.4909 8.54057 68.6094 8.41217 68.8365 8.36277C69.0932 8.31347 69.1129 8.27397 69.1129 7.80987V7.31617H68.323C67.8886 7.31617 67.5332 7.27677 67.5332 7.22737C67.5332 7.18787 67.8886 6.69417 68.323 6.15117L69.1129 5.15387V3.66297V2.18197H68.4218H67.7208L67.7504 1.52047L67.78 0.849066L68.4514 0.819366L69.1129 0.789766V0.404666V0.00976562H70.0016H70.8902V0.404666V0.789766L71.6109 0.819366L72.3218 0.849066V1.49077V2.13257L71.6109 2.16217L70.8902 2.19187V2.72497V3.26807H72.8155H74.7409V2.82377V2.38927L73.6844 2.35967L72.6181 2.33007L72.5884 1.71787L72.5588 1.09587H73.6548H74.7409V0.602166V0.108466H75.5801H76.4194V0.602166V1.09587H77.5546H78.7006L78.6706 1.71787L78.6406 2.33007L77.5056 2.37947L76.37 2.42877V2.85337V3.26807H77.5446H78.7096L78.6806 4.03817C78.6406 4.70957 78.5916 4.87747 78.2956 5.38097C78.1076 5.69697 77.6736 6.25977 77.3376 6.62507L76.7256 7.28657L77.4366 7.69137C77.8316 7.90867 78.3346 8.14557 78.5716 8.21467L78.9866 8.33317V8.96507C78.9866 9.44887 78.9566 9.58717 78.8386 9.58717C78.3346 9.58717 76.6066 8.84667 75.8171 8.28387C75.6986 8.20487 75.5011 8.27397 74.8791 8.63927C74.1781 9.05397 72.7859 9.58717 72.4107 9.58717C72.3021 9.58717 72.2725 9.43907 72.2725 8.96507V8.33317L72.697 8.21467C72.9241 8.14557 73.4277 7.90867 73.8226 7.69137L74.5335 7.28657L73.9312 6.63497C73.4079 6.05237 72.7662 5.12427 72.7662 4.92677C72.7662 4.87747 73.0821 4.84787 73.4672 4.84787H74.1781L74.8988 5.61797L75.6097 6.37827L76.1133 5.89447C76.3799 5.62787 76.7456 5.21317 76.9126 4.97617L77.2196 4.55157H74.8988H72.5786L72.5489 3.99867L72.5193 3.43587L71.7097 4.47267L70.9 5.50937L70.8704 7.04967C70.8408 8.74787 70.7914 8.89597 70.1003 9.36997C69.8238 9.55757 69.6461 9.58717 68.9056 9.58717C68.4218 9.58717 68.0268 9.56737 68.0268 9.53777Z" fill="white"/>
<path d="M30.5468 9.22172C30.5764 9.06382 30.7344 7.89872 30.9022 6.62502C31.0701 5.35132 31.2281 4.18622 31.2577 4.03812L31.3169 3.76172H32.1957C32.8276 3.76172 33.0744 3.79132 33.0744 3.89002C33.0744 3.94932 32.9164 5.18342 32.7288 6.62502C32.5412 8.06652 32.3834 9.30072 32.3834 9.36982C32.3834 9.45872 32.1265 9.48832 31.4354 9.48832H30.4875L30.5468 9.22172Z" fill="white"/>
<path d="M34.4073 9.34035C33.9037 9.16265 33.489 8.67885 33.4199 8.16545C33.3903 7.93835 33.3705 6.87195 33.3903 5.78585L33.4199 3.81115L34.3382 3.78155L35.2465 3.75195V5.87475C35.2465 7.87905 35.2564 8.00745 35.4341 8.10615C35.5526 8.16545 36.4314 8.20485 37.6162 8.20485H39.6008L39.5415 8.43195C39.502 8.55045 39.3934 8.83685 39.2848 9.07375L39.1071 9.48845H36.9547C35.365 9.47855 34.7035 9.43905 34.4073 9.34035Z" fill="white"/>
<path d="M40.1836 9.41922C40.1836 9.30072 39.5023 4.35412 39.4431 4.03812L39.4036 3.76172H40.2823C41.1216 3.76172 41.171 3.77152 41.2105 3.98872C41.2401 4.10722 41.3981 5.27232 41.5659 6.57562C41.7239 7.87892 41.8819 9.06382 41.9115 9.22172L41.9609 9.48832H41.0722C40.5786 9.48832 40.1836 9.45872 40.1836 9.41922Z" fill="white"/>
<path d="M51.5777 7.84951C51.1531 6.95101 50.7878 6.17101 50.768 6.12161C50.7483 6.07221 51.1728 6.03271 51.7159 6.03271H52.6934L52.8415 6.40792C52.9303 6.60542 53.2858 7.38541 53.6412 8.13581L54.2929 9.48851H53.3253H52.3577L51.5777 7.84951Z" fill="white"/>
<path d="M55.2307 8.03685C55.2603 7.22725 55.3196 5.96345 55.3591 5.22295L55.4183 3.86035H56.0008H56.5834L56.534 4.38365C56.5044 4.66015 56.455 5.56845 56.4254 6.37815C56.3958 7.19765 56.3464 8.22445 56.3168 8.67865L56.2576 9.48835H55.7046H55.1616L55.2307 8.03685Z" fill="white"/>
<path d="M56.771 6.47681V3.46541H55.9811H55.1912V2.92231V2.37931H55.9811H56.771V1.92511V1.46111L56.0304 1.51041L55.2899 1.55981V0.947615V0.325615L56.6031 0.266315C57.314 0.236715 58.3408 0.197214 58.874 0.177514L59.8318 0.157715V0.779815V1.39191H59.3677C59.1011 1.39191 58.7358 1.42161 58.5482 1.45121C58.2125 1.51041 58.2026 1.52031 58.2125 1.91521L58.2224 2.32991L59.032 2.35951L59.8318 2.38921V2.92231V3.45551L59.0419 3.48511L58.2421 3.51481L58.2224 6.47681L58.2026 9.43892L57.4917 9.46852L56.771 9.49811V6.47681Z" fill="white"/>
<path d="M58.7061 8.48125C58.6765 7.91845 58.6271 6.80265 58.5975 5.98315C58.5679 5.17355 58.5185 4.35405 58.4889 4.18615L58.4395 3.86035H59.022H59.6046L59.6638 4.97605C59.7033 5.57835 59.7626 6.85205 59.7922 7.79005L59.8613 9.48835H59.3182H58.7752L58.7061 8.48125Z" fill="white"/>
<path d="M63.7518 9.42923C63.7123 9.38973 63.6827 8.85653 63.6827 8.23453V7.11883H61.9055H60.1282V6.52633V5.93393H61.9055H63.6827V3.02123V0.0986328L64.6009 0.128333L65.5093 0.157932L65.5389 3.05083L65.5587 5.93393H66.1017H66.6448V6.52633V7.11883H66.1017H65.5685L65.5389 8.28383L65.5093 9.43903L64.6701 9.46873C64.206 9.47853 63.7913 9.46873 63.7518 9.42923Z" fill="white"/>
<path d="M36.8857 7.34582C36.7672 6.76322 36.3328 4.06772 36.3328 3.91962C36.3328 3.78142 36.471 3.76172 37.2115 3.76172H38.0903L38.1495 4.03812C38.268 4.61082 38.7024 7.30632 38.7024 7.45442C38.7024 7.59262 38.5642 7.61232 37.8237 7.61232H36.9449L36.8857 7.34582Z" fill="white"/>
<path d="M61.5104 5.22304C61.4512 5.09474 61.1945 4.46284 60.9279 3.81114L60.4342 2.62634L60.8785 2.59674C61.1155 2.57694 61.313 2.54734 61.313 2.51774C61.313 2.49794 61.2044 2.20174 61.0661 1.87594C60.9279 1.55014 60.7205 1.05644 60.6218 0.789843L60.4243 0.296143L61.3228 0.325743L62.2213 0.355442L62.7446 1.63894C63.0408 2.34984 63.2778 2.98174 63.2877 3.05084C63.2877 3.12004 63.1494 3.16934 62.8927 3.16934C62.6755 3.16934 62.4978 3.20884 62.4978 3.24834C62.4978 3.29774 62.6755 3.75194 62.8927 4.25544C63.11 4.75904 63.2877 5.24284 63.2877 5.31194C63.2877 5.41064 63.0803 5.44034 62.4484 5.44034C61.6684 5.44034 61.5993 5.42054 61.5104 5.22304Z" fill="white"/>
<path d="M32.5314 2.9323C32.4525 2.7348 32.3833 2.5373 32.3833 2.4781C32.3833 2.4188 32.0378 2.3793 31.4947 2.3793H30.5962L30.6258 1.7178L30.6555 1.0464L31.317 1.0168L31.9785 0.987198L31.8304 0.582398C31.7514 0.365098 31.6922 0.167699 31.6922 0.147899C31.6922 0.128199 32.1168 0.108398 32.6302 0.108398H33.5682L33.6768 0.552698L33.7854 0.996998H36.1945H38.6037L38.7222 0.552698L38.8407 0.108398H39.7688C40.687 0.108398 40.6969 0.108398 40.6377 0.335498C40.4303 1.0662 40.3809 0.996998 41.2103 0.996998H41.9607V1.6882V2.3695L41.003 2.3991L40.0452 2.4287L39.9268 2.8237L39.8181 3.2186L38.9197 3.2482C37.9323 3.2778 37.9323 3.2778 38.1001 2.6953L38.1989 2.3793H36.2143H34.2396L34.2889 2.6558C34.3186 2.8138 34.3581 3.0014 34.3778 3.0804C34.3976 3.189 34.2297 3.2285 33.5386 3.2482L32.6697 3.2778L32.5314 2.9323Z" fill="white"/>
</svg>
