<svg width="97" height="12" viewBox="0 0 97 12" fill="none" xmlns="http://www.w3.org/2000/svg">
<path d="M62.3577 0.267578C61.3762 0.267578 60.4752 0.301378 59.652 0.379978C58.8919 0.442978 58.1984 0.539278 57.5688 0.668678C56.7689 0.836878 56.0949 1.03228 55.5461 1.26688V2.63958H60.5459V5.99868V11.2163H64.1781V5.99868V2.63958H69.1745V1.25828C69.0694 1.21508 68.9575 1.17158 68.8391 1.12508C68.1277 0.859578 67.2251 0.654077 66.1231 0.495777C65.779 0.449377 65.4188 0.412078 65.0426 0.379978C64.2205 0.301378 63.3258 0.267578 62.3577 0.267578ZM7.00727 1.82698C6.27257 1.82698 5.54217 1.89638 4.80647 2.04138C4.06957 2.18078 3.38367 2.41298 2.74736 2.74158C2.11006 3.06688 1.60017 3.50898 1.21397 4.07108C0.827865 4.63198 0.634766 5.30628 0.634766 6.10068V11.2146H4.26877V6.80608C4.26877 6.19088 4.38427 5.69558 4.61107 5.29508C4.84127 4.89898 5.16147 4.60978 5.57757 4.42718C5.99137 4.24348 6.46437 4.15058 7.00207 4.15058C7.56087 4.15058 8.04397 4.24588 8.45777 4.43068C8.86817 4.61538 9.18937 4.90818 9.41727 5.30548C9.64747 5.70158 9.75957 6.20958 9.75957 6.81818V11.2146H13.3971V6.10068C13.3971 5.07058 13.0698 4.23168 12.4203 3.59218C11.7686 2.94928 10.9594 2.49368 9.99127 2.22808C9.02537 1.96038 8.02957 1.82698 7.00727 1.82698ZM90.6071 1.82878C89.8751 1.82878 89.1451 1.89698 88.4061 2.03968C87.6751 2.18358 86.9871 2.41518 86.3521 2.74158C85.7182 3.06578 85.208 3.50728 84.8153 4.06938C84.4303 4.62918 84.2344 5.30518 84.2344 6.10078V11.2112H87.8731V6.80438C87.8731 6.19468 87.9861 5.69248 88.2161 5.29858C88.4471 4.89798 88.7691 4.60978 89.1801 4.42728C89.5941 4.24248 90.0711 4.15238 90.6051 4.15238C91.1651 4.15238 91.6521 4.24468 92.0571 4.42728C92.4731 4.61198 92.7911 4.91048 93.0221 5.30548C93.2511 5.70598 93.3661 6.21088 93.3661 6.82168V11.2112H97.0001V6.10078C97.0001 5.06948 96.6701 4.23288 96.0231 3.59218C95.3711 2.94828 94.5621 2.49698 93.5941 2.22818C92.6321 1.95928 91.6311 1.82878 90.6071 1.82878ZM49.1287 1.85818C47.6338 1.85818 46.3698 2.08228 45.3287 2.53588C44.2908 2.98618 43.5203 3.57858 43.0224 4.31658C42.5234 5.05568 42.2721 5.84898 42.2721 6.69548C42.2721 7.53528 42.524 8.32938 43.0241 9.06738C43.5275 9.80988 44.2983 10.4054 45.3339 10.8568C46.3684 11.3115 47.6338 11.5362 49.1287 11.5362C50.6013 11.5362 51.8564 11.3169 52.8854 10.881C53.9133 10.4484 54.6879 9.86518 55.209 9.12278C55.7312 8.38248 55.9904 7.57178 55.9904 6.69548C55.9904 6.04598 55.8429 5.42748 55.553 4.84218C55.262 4.25458 54.8362 3.74028 54.2719 3.29658C53.7121 2.85398 52.9862 2.50598 52.1143 2.24368C51.2347 1.98698 50.2428 1.85818 49.1287 1.85818ZM75.5539 1.85818C74.0613 1.85818 72.7957 2.08228 71.7557 2.53588C70.7189 2.98618 69.9506 3.57858 69.4494 4.31658C68.9515 5.05568 68.7008 5.84898 68.7008 6.69548C68.7008 7.53528 68.9511 8.32938 69.4546 9.06738C69.9569 9.80988 70.728 10.4054 71.7626 10.8568C72.796 11.3115 74.0613 11.5362 75.5539 11.5362C77.0299 11.5362 78.2862 11.3169 79.3141 10.881C80.342 10.4484 81.1166 9.86518 81.6377 9.12278C82.1566 8.38248 82.4191 7.57178 82.4191 6.69548C82.4191 6.04598 82.2722 5.42748 81.9835 4.84218C81.6924 4.25458 81.2643 3.74028 80.6989 3.29658C80.1346 2.85398 79.4153 2.50598 78.5379 2.24368C77.6671 1.98698 76.6692 1.85818 75.5539 1.85818ZM15.2054 2.12098V7.26248C15.2054 8.29258 15.5288 9.12948 16.1805 9.77448C16.8322 10.4119 17.6398 10.8691 18.6112 11.1369C19.5761 11.4035 20.5722 11.5362 21.5934 11.5362C22.3249 11.5362 23.0625 11.4663 23.796 11.3236C24.5329 11.1819 25.2178 10.9463 25.8551 10.6199C26.4902 10.2957 27.0002 9.85028 27.3885 9.29048C27.7747 8.73278 27.966 8.05588 27.966 7.26248V2.12098H24.332V6.55718C24.332 7.16898 24.2182 7.66858 23.9914 8.06468C23.7579 8.46528 23.4355 8.75458 23.0249 8.93608C22.6078 9.11968 22.1344 9.21268 21.6021 9.21268C21.0378 9.21268 20.5563 9.12078 20.1447 8.93608C19.7342 8.75018 19.413 8.45658 19.1817 8.05608C18.955 7.65548 18.8378 7.15348 18.8378 6.54158V2.12098H15.2054ZM29.0638 2.12098L33.9494 10.3986L34.437 11.2164H36.7917L42.1701 2.12098H38.8109L35.616 7.57028L32.416 2.12098H29.0638ZM49.1287 4.28548C49.6343 4.28548 50.0826 4.34748 50.4754 4.46698C50.8582 4.59088 51.1904 4.75368 51.4626 4.96838C51.7259 5.18188 51.9264 5.43738 52.0625 5.72728C52.1975 6.02168 52.2665 6.34358 52.2665 6.69548C52.2665 7.16128 52.1484 7.58408 51.9017 7.94368C51.6561 8.31098 51.2983 8.58988 50.8281 8.80118C50.3622 9.00478 49.7948 9.10548 49.1287 9.10548C48.1605 9.10548 47.395 8.88528 46.8362 8.44158C46.2763 7.99018 45.996 7.41138 45.996 6.69548C45.996 5.97628 46.2769 5.39588 46.8345 4.95108C47.39 4.50958 48.155 4.28548 49.1287 4.28548ZM75.5539 4.28548C76.064 4.28548 76.5118 4.34748 76.9024 4.46698C77.2908 4.59088 77.6185 4.75368 77.8896 4.96838C78.1606 5.18188 78.359 5.43738 78.4929 5.72728C78.6257 6.02168 78.6935 6.34358 78.6935 6.69548C78.6935 7.16128 78.5737 7.58408 78.327 7.94368C78.0824 8.31098 77.7272 8.58988 77.2602 8.80118C76.7889 9.00478 76.2211 9.10548 75.5539 9.10548C74.5869 9.10548 73.8249 8.88528 73.2683 8.44158C72.7063 7.99018 72.423 7.41138 72.423 6.69548C72.423 5.97628 72.7027 5.39588 73.2614 4.95108C73.8158 4.50958 74.5835 4.28548 75.5539 4.28548Z" fill="white"/>
</svg>
