<svg width="53" height="39" viewBox="0 0 53 39" fill="none" xmlns="http://www.w3.org/2000/svg">
<mask id="mask0_12_3673" style="mask-type:luminance" maskUnits="userSpaceOnUse" x="0" y="0" width="53" height="39">
<path d="M53.0001 0.0493164H0.458984V38.7361H53.0001V0.0493164Z" fill="white"/>
</mask>
<g mask="url(#mask0_12_3673)">
<path d="M52.6344 37.512C52.6344 38.0758 52.2205 38.4541 51.7304 38.4541V38.4507C51.2265 38.4541 50.8201 38.0758 50.8201 37.5122C50.8201 36.9487 51.2265 36.5714 51.7304 36.5714C52.2206 36.5713 52.6344 36.9486 52.6344 37.512ZM53.0011 37.512C53.0011 36.7384 52.4001 36.2893 51.7304 36.2893C51.056 36.2893 50.4551 36.7384 50.4551 37.512C50.4551 38.2852 51.0562 38.7361 51.7304 38.7361C52.4003 38.7361 53.0011 38.2852 53.0011 37.512ZM51.5196 37.6155H51.6557L51.9709 38.169H52.3172L51.968 37.5921C52.1484 37.5793 52.2968 37.4933 52.2968 37.2504C52.2968 36.9486 52.0887 36.8516 51.7362 36.8516H51.2263V38.169H51.5195L51.5196 37.6155ZM51.5196 37.3924V37.0752H51.7235C51.8345 37.0752 51.9856 37.0842 51.9856 37.2195C51.9856 37.3667 51.9074 37.3924 51.7766 37.3924H51.5196Z" fill="white"/>
<path d="M44.4428 30.773L46.0271 35.1073H42.8094L44.4428 30.773ZM42.746 29.0854L39.095 38.3361H41.6731L42.2506 36.7015H46.5714L47.118 38.3361H49.9168L46.2385 29.0842L42.746 29.0854ZM35.4159 38.3395H38.0316V29.0825L35.4155 29.0819L35.4159 38.3395ZM17.2573 29.0819L15.075 36.4188L12.9845 29.0825L10.1622 29.0819L13.1479 38.3395H16.9162L19.9259 29.0819H17.2573ZM27.8303 31.0977H28.9545C30.5855 31.0977 31.6403 31.8299 31.6403 33.7302C31.6403 35.6308 30.5855 36.3632 28.9545 36.3632H27.8303V31.0977ZM25.2366 29.0819V38.3395H29.4771C31.7364 38.3395 32.4742 37.964 33.2719 37.1214C33.8353 36.5299 34.1998 35.2317 34.1998 33.8125C34.1998 32.5109 33.8914 31.3507 33.3536 30.6277C32.3848 29.3347 30.9891 29.0819 28.9062 29.0819H25.2366ZM0.458984 29.0691V38.3395H3.09679V31.3004L5.14069 31.301C5.81739 31.301 6.29989 31.4697 6.62579 31.8178C7.03909 32.2581 7.20789 32.9688 7.20789 34.2688V38.3395H9.76389V33.2175C9.76389 29.562 7.43388 29.0691 5.15408 29.0691H0.458984ZM21.0268 29.0819L21.0279 38.3395H23.6424V29.0819H21.0268Z" fill="white"/>
<path d="M7.49008 10.6492C7.49008 10.6492 10.8543 5.6856 17.5715 5.1721V3.37126C10.1314 3.96879 3.68848 10.2703 3.68848 10.2703C3.68848 10.2703 7.33758 20.8193 17.5715 21.7852V19.8711C10.0614 18.9263 7.49008 10.6492 7.49008 10.6492ZM17.5715 16.0643V17.8173C11.8955 16.8054 10.32 10.9052 10.32 10.9052C10.32 10.9052 13.0453 7.8861 17.5715 7.3965V9.3201C17.5681 9.3201 17.5657 9.31901 17.5629 9.31901C15.1873 9.0339 13.3314 11.2532 13.3314 11.2532C13.3314 11.2532 14.3716 14.9892 17.5715 16.0643ZM17.5715 0.0498047V3.37126C17.7899 3.35452 18.0084 3.34032 18.228 3.33284C26.6866 3.04776 32.198 10.2703 32.198 10.2703C32.198 10.2703 25.868 17.9674 19.2732 17.9674C18.6688 17.9674 18.103 17.9114 17.5715 17.8173V19.8711C18.026 19.9288 18.4972 19.9627 18.9889 19.9627C25.1258 19.9627 29.5638 16.8286 33.8611 13.1192C34.5736 13.6898 37.4906 15.078 38.0902 15.6857C34.0042 19.1065 24.4816 21.8641 19.0829 21.8641C18.5625 21.8641 18.0628 21.8326 17.5715 21.7852V24.6713H40.8974V0.0498047H17.5715ZM17.5715 7.3965V5.1721C17.7877 5.157 18.0055 5.1455 18.228 5.1384C24.3106 4.9474 28.3012 10.3655 28.3012 10.3655C28.3012 10.3655 23.991 16.3517 19.3695 16.3517C18.7044 16.3517 18.1082 16.2448 17.5715 16.0643V9.3201C19.9395 9.6062 20.416 10.6522 21.8396 13.0254L25.0059 10.3556C25.0059 10.3556 22.6945 7.3243 18.7983 7.3243C18.3748 7.3242 17.9695 7.3539 17.5715 7.3965Z" fill="#77B900"/>
</g>
</svg>
