<svg width="68" height="26" viewBox="0 0 68 26" fill="none" xmlns="http://www.w3.org/2000/svg">
<path d="M40.7821 0.742188H39.4016L34.3193 8.92189L29.2301 0.742188H27.8496V25.357H29.2301L34.3193 17.1772L39.4016 25.357H40.7958L40.7821 25.3364V0.742188Z" fill="#6DACDE"/>
<path d="M27.8497 0.742188H20.3086L27.836 13.0496L20.3086 25.357H27.8497V0.742188Z" fill="#938647"/>
<path d="M48.3301 0.742188H40.7822V25.3364L40.796 25.357H48.3233L40.796 13.0496L48.3233 0.742188H48.3301Z" fill="#6D9A45"/>
<path d="M59.0786 0.742188H48.3302L40.7754 13.0496L48.3302 25.357V19.9176H61.0566C66.3999 19.9176 68.0001 15.7075 68.0001 12.0469V9.15539C68.0001 4.34779 66.2625 0.742188 59.0717 0.742188H59.0786ZM60.9604 10.6458C60.9604 12.1087 60.2736 13.7845 58.5086 13.7845H48.3371V6.84779H57.863C60.1431 6.84779 60.9604 7.79559 60.9604 9.45759V10.6458Z" fill="#BFD730"/>
<path d="M27.836 13.0496L20.3086 0.742188H20.3018V15.6182L7.5411 0.742188H0V25.357H7.5479V10.481L20.3086 25.357L27.836 13.0496Z" fill="#FCB316"/>
</svg>
