<svg width="125" height="50" viewBox="0 0 125 50" fill="none" xmlns="http://www.w3.org/2000/svg">
<g clip-path="url(#clip0_251_35)">
<path d="M57.1923 21.552C57.1923 19.1646 58.0572 17.8845 60.5622 17.8845H65.4821C67.9594 17.8845 68.8555 19.1646 68.8555 21.552V25.9668C68.8555 28.3506 67.9906 29.6343 65.4821 29.6343H60.5622C58.0572 29.6343 57.1923 28.3506 57.1923 25.9668V21.552ZM64.8871 26.9528C65.579 26.9528 66.0807 26.8006 66.0807 26.029V21.4931C66.0807 20.7181 65.5756 20.5693 64.8871 20.5693H61.1919C60.4999 20.5693 59.9982 20.7181 59.9982 21.4931V26.029C59.9982 26.8006 60.5034 26.9528 61.1919 26.9528H64.8871ZM73.6233 18.4519C73.6313 18.2937 73.7018 18.1451 73.8192 18.0388C73.9365 17.9324 74.0913 17.8769 74.2495 17.8845H81.7644C84.2728 17.8845 85.1343 19.1646 85.1343 21.552C85.1343 23.8493 84.1517 25.1018 81.7644 25.1018H76.3912V29.008C76.3922 29.1691 76.3308 29.3243 76.2199 29.4411C76.1089 29.5579 75.957 29.6271 75.7961 29.6343H74.2149C74.054 29.6271 73.9021 29.5579 73.7911 29.4411C73.6802 29.3243 73.6188 29.1691 73.6198 29.008L73.6233 18.4519ZM81.0793 22.4169C81.7955 22.4169 82.3595 22.2993 82.3595 21.4931C82.3595 20.687 81.8232 20.5693 81.1381 20.5693H76.3912V22.4169H81.0793ZM89.0855 18.4519C89.0945 18.294 89.1652 18.146 89.2824 18.0398C89.3995 17.9337 89.5538 17.8779 89.7118 17.8845H99.14C99.2982 17.8769 99.4529 17.9324 99.5703 18.0388C99.6877 18.1451 99.7581 18.2937 99.7662 18.4519V19.9708C99.7591 20.132 99.6899 20.2843 99.5733 20.3958C99.4566 20.5073 99.3014 20.5695 99.14 20.5693H91.8742V22.4169H96.5589C96.7197 22.4167 96.8745 22.4784 96.991 22.5892C97.1076 22.7 97.1771 22.8514 97.1851 23.012V24.5344C97.1771 24.6926 97.1066 24.8411 96.9892 24.9475C96.8719 25.0538 96.7171 25.1093 96.5589 25.1018H91.8604V26.9528H99.1088C99.2702 26.9517 99.4259 27.013 99.5432 27.1239C99.6605 27.2348 99.7305 27.3867 99.7385 27.5479V29.0668C99.7296 29.2253 99.6584 29.3739 99.5405 29.4801C99.4225 29.5864 99.2674 29.6418 99.1088 29.6343H89.6841C89.5228 29.6271 89.3706 29.558 89.259 29.4413C89.1475 29.3246 89.0854 29.1694 89.0855 29.008V18.4519ZM104.337 18.4519C104.345 18.2943 104.415 18.1463 104.531 18.0401C104.648 17.9338 104.802 17.8779 104.959 17.8845H112.63C115.135 17.8845 116 19.1646 116 21.552V29.008C115.999 29.1738 115.933 29.3326 115.816 29.4498C115.698 29.5671 115.54 29.6333 115.374 29.6343H113.824C113.743 29.6334 113.663 29.6164 113.589 29.5842C113.515 29.5521 113.448 29.5055 113.393 29.4472C113.337 29.3888 113.293 29.3199 113.265 29.2445C113.236 29.1691 113.222 29.0887 113.225 29.008V21.4931C113.225 20.7181 112.689 20.5693 112.032 20.5693H107.112V29.008C107.112 29.1694 107.05 29.3246 106.938 29.4413C106.826 29.558 106.674 29.6271 106.513 29.6343H104.932C104.771 29.6271 104.619 29.5579 104.508 29.4411C104.397 29.3243 104.336 29.1691 104.337 29.008V18.4519Z" fill="#5F6062"/>
<path d="M43.7713 25.3952V24.7551L43.2108 25.3606V23.9316H42.7887V25.3537L42.2351 24.7551V25.3952L43.0032 26.2255L43.7713 25.3952ZM39.2596 35.6226L39.7129 35.1694L38.8894 35.197L39.8997 34.1902L39.5987 33.8892L38.5953 34.8926L38.623 34.076L38.1698 34.5327L38.1283 35.6641L39.2596 35.6226ZM28.835 39.6603H29.4785L28.8731 39.0998H30.302V38.6742H28.88L29.4785 38.1206H28.835L28.0081 38.8922L28.835 39.6603ZM18.611 35.1451L19.0643 35.5984L19.0331 34.7749L20.0434 35.7852L20.341 35.4842L19.3411 34.4808L20.1541 34.5085L19.7009 34.0553L18.5695 34.0138L18.611 35.1451ZM14.5733 24.724V25.364L15.1338 24.7586V26.1875H15.5594V24.7689L16.113 25.364V24.724L15.3414 23.8936L14.5733 24.724ZM19.0885 14.4965L18.6318 14.9498L19.4587 14.9221L18.4484 15.9289L18.7494 16.2299L19.7528 15.2266L19.7216 16.0431L20.1749 15.5864L20.2164 14.455L19.0885 14.4965ZM29.5097 10.4588H28.8696L29.4751 11.0228H28.0461V11.4449H29.4647L28.8696 11.9985H29.5097L30.34 11.2304L29.5097 10.4588ZM39.7371 14.974L39.2804 14.5207L39.3115 15.3442L38.3013 14.3339L38.0037 14.6349L39.0071 15.6383L38.1905 15.6106L38.6472 16.0638L39.7786 16.1054L39.7371 14.974ZM43.3631 21.6066L43.197 20.9873L42.8095 21.7173L42.4427 20.3368L42.031 20.4475L42.4012 21.8211L41.7092 21.3852L41.8753 22.0045L42.8337 22.61L43.3631 21.6066ZM41.6504 32.6506L41.9687 32.097L41.1799 32.3392L41.8961 31.104L41.5293 30.8929L40.8166 32.1212L40.6367 31.3254L40.3149 31.8825L40.5675 32.9862L41.6504 32.6506ZM32.627 39.2486L33.2464 39.086L32.5163 38.6984L33.8968 38.3282L33.7861 37.92L32.4125 38.2867L32.8485 37.5947L32.2291 37.7608L31.6271 38.7227L32.627 39.2486ZM21.5796 37.5359L22.1366 37.8542L21.8945 37.0688L23.1296 37.7816L23.3407 37.4148L22.1124 36.7056L22.9082 36.5222L22.3512 36.2004L21.2475 36.453L21.5796 37.5359ZM14.9816 28.5125L15.1477 29.1319L15.5352 28.4018L15.9019 29.7823L16.3137 29.6716L15.9469 28.3015L16.6354 28.734L16.4693 28.1146L15.511 27.5126L14.9816 28.5125ZM16.6977 17.4686L16.3759 18.0256L17.1648 17.78L16.452 19.0186L16.8188 19.2262L17.5281 18.0014L17.7114 18.7937L18.0298 18.2367L17.7806 17.133L16.6977 17.4686ZM25.7211 10.8706L25.0983 11.0366L25.8284 11.4207L24.4513 11.7909L24.562 12.1992L25.9321 11.8324L25.4997 12.5244L26.119 12.3583L26.721 11.3999L25.7211 10.8706ZM36.7651 12.5832L36.208 12.2614L36.4537 13.0537L35.215 12.3375L35.0074 12.7043L36.2322 13.417L35.4399 13.5969L35.9935 13.9187L37.0972 13.6661L36.7651 12.5832ZM41.986 18.0498L41.6643 17.4962L41.4809 18.2989L40.7682 17.0638L40.4014 17.2748L41.1107 18.5065L40.3322 18.2678L40.6505 18.8214L41.7335 19.157L41.986 18.0498ZM43.1901 29.1665L43.3562 28.5437L42.6573 28.9831L43.024 27.606L42.6157 27.4953L42.249 28.8654L41.8649 28.1458L41.7023 28.7686L42.2317 29.765L43.1901 29.1665ZM36.1803 37.8715L36.7374 37.5498L35.9312 37.3699L37.1699 36.6537L36.9588 36.2904L35.7271 36.9962L35.9658 36.2177L35.4122 36.5395L35.0766 37.619L36.1803 37.8715ZM25.0672 39.079L25.6865 39.2417L25.2505 38.5428L26.6276 38.913L26.7383 38.5047L25.3682 38.1345L26.0878 37.7539L25.4685 37.5878L24.4652 38.1172L25.0672 39.079ZM16.3586 32.0693L16.6804 32.6229L16.8638 31.8202L17.5765 33.0554L17.9467 32.8443L17.234 31.6161L18.0159 31.8548L17.6941 31.2977L16.6112 30.9656L16.3586 32.0693ZM15.1581 20.9561L14.992 21.5755L15.6909 21.136L15.3207 22.5165L15.7289 22.6238L16.0991 21.2537L16.4797 21.9733L16.6423 21.354L16.1164 20.3541L15.1581 20.9561ZM22.1643 12.2476L21.6107 12.5694L22.4134 12.7527L21.1783 13.4655L21.3893 13.8322L22.6176 13.1229L22.3788 13.9049L22.9359 13.5831L23.268 12.5002L22.1643 12.2476ZM49.1169 26.2463H50.0891L49.1722 25.3952H51.3347V24.7551H49.1826L50.0891 23.9109H49.1169L47.8575 25.0769L49.1169 26.2463ZM42.4358 39.9994L43.1243 40.6879L43.0794 39.4354L44.6086 40.9681L45.0619 40.5149L43.5395 38.9925L44.7747 39.0375L44.0862 38.349L42.3701 38.2867L42.4358 39.9994ZM27.9873 44.9989V45.9746L28.8385 45.0577V47.2236H29.4785V45.0681L30.3227 45.9746V44.9989L29.1533 43.743L27.9873 44.9989ZM14.2343 38.3213L13.5457 39.0098L14.7948 38.9649L13.2655 40.4941L13.7187 40.9474L15.2411 39.425L15.1961 40.6602L15.8846 39.9751L15.9469 38.2556L14.2343 38.3213ZM9.23126 23.8728H8.25557L9.17244 24.724H7.01001V25.364H9.16206L8.25557 26.2082H9.23126L10.4872 25.0388L9.23126 23.8728ZM15.9123 10.1198L15.2238 9.43124L15.2688 10.6803L13.7395 9.15099L13.2862 9.60423L14.8086 11.1266L13.57 11.0816L14.2585 11.7701L15.9746 11.8324L15.9123 10.1198ZM30.3608 5.11676V4.14453L29.5097 5.0614V2.89551H28.8661V5.05102L28.0254 4.14453V5.11676L29.1948 6.3727L30.3608 5.11676ZM44.1139 11.7978L44.8024 11.1058L43.5534 11.1543L45.0826 9.62499L44.6259 9.17175L43.1036 10.6941L43.1486 9.45546L42.4635 10.144L42.4012 11.8601L44.1139 11.7978ZM48.7432 21.0426L49.6843 20.7935L48.5806 20.2088L50.6669 19.6448L50.5008 19.029L48.4214 19.586L49.0788 18.5377L48.1412 18.7902L47.2278 20.2434L48.7432 21.0426ZM45.8507 36.0586L46.6949 36.5464L46.3282 35.3493L48.2 36.4322L48.5183 35.8752L46.6569 34.7992L47.8609 34.5224L47.0167 34.0345L45.3456 34.4186L45.8507 36.0586ZM33.1875 44.6287L33.4401 45.5698L34.0248 44.4661L34.5853 46.5559L35.2047 46.3898L34.6476 44.3069L35.696 44.9643L35.4468 44.0267L33.9902 43.1133L33.1875 44.6287ZM18.1751 41.7362L17.6872 42.577L18.8809 42.2102L17.8014 44.0855L18.355 44.4073L19.4345 42.5424L19.7113 43.7464L20.1957 42.9057L19.8151 41.2311L18.1751 41.7362ZM9.60147 29.073L8.66384 29.3256L9.76754 29.9103L7.67777 30.4708L7.84384 31.0901L9.9267 30.5331L9.26586 31.5815L10.2069 31.3323L11.1204 29.8757L9.60147 29.073ZM12.4939 14.0606L11.6532 13.5727L12.0199 14.7664L10.1481 13.6869L9.82636 14.2439L11.6912 15.32L10.4872 15.5968L11.328 16.0846L12.9991 15.7006L12.4939 14.0606ZM25.1571 5.48697L24.9046 4.54934L24.3198 5.65304L23.7628 3.56327L23.14 3.7328L23.6971 5.8122L22.6487 5.15482L22.9013 6.09245L24.3544 7.00586L25.1571 5.48697ZM40.1731 8.38289L40.6609 7.53868L39.4638 7.90889L40.5467 6.03363L39.9897 5.71186L38.9137 7.57674L38.6369 6.36924L38.149 7.21345L38.5331 8.88804L40.1731 8.38289ZM47.0375 16.1157L47.8817 15.6279L46.6638 15.3511L48.5356 14.2682L48.2138 13.7111L46.349 14.7906L46.7122 13.6073L45.868 14.0917L45.3663 15.7317L47.0375 16.1157ZM48.1273 31.3669L49.0684 31.6195L48.4041 30.5608L50.4939 31.1178L50.66 30.4985L48.5806 29.9415L49.6739 29.3637L48.7328 29.1111L47.2174 29.9138L48.1273 31.3669ZM38.1179 42.923L38.6023 43.7672L38.8825 42.5458L39.9655 44.4211L40.519 44.0993L39.443 42.2345L40.6263 42.5977L40.1385 41.7535L38.4985 41.2518L38.1179 42.923ZM22.8667 44.0128L22.6141 44.9539L23.6728 44.2931L23.1123 46.3794L23.7317 46.5455L24.2887 44.4661L24.87 45.5594L25.1225 44.6218L24.3164 43.1029L22.8667 44.0128ZM11.3107 34.0034L10.4664 34.4912L11.6843 34.7715L9.81252 35.851L10.1308 36.4045L11.9957 35.3285L11.6324 36.5083L12.4766 36.0274L12.9818 34.384L11.3107 34.0034ZM10.2173 18.7487L9.27624 18.4996L9.94054 19.5583L7.85422 18.9978L7.68815 19.6206L9.76754 20.1777L8.67076 20.7555L9.61185 21.008L11.1273 20.2053L10.2173 18.7487ZM20.2302 7.19615L19.7424 6.35194L19.4622 7.56982L18.3827 5.69802L17.8256 6.01979L18.9051 7.88467L17.7184 7.52138L18.2062 8.36213L19.8462 8.86728L20.2302 7.19615ZM35.4814 6.10283L35.734 5.1652L34.6753 5.82949L35.2358 3.73626L34.613 3.57365L34.056 5.65304L33.4747 4.55971L33.2256 5.49735L34.0283 7.01624L35.4814 6.10283ZM40.0312 23.0286L39.5226 23.0943L40.0623 23.4784L38.9275 23.6272L38.9725 23.9628L40.1004 23.814L39.6818 24.3157L40.1938 24.2499L40.7716 23.5545L40.0312 23.0286ZM44.9546 22.603L45.0584 23.3954L45.6535 22.5546L45.8888 24.3261L46.4147 24.2569L46.1829 22.4958L46.9683 23.1462L46.8645 22.3505L45.7712 21.4474L44.9546 22.603ZM38.2874 31.3012L37.8791 30.9864L37.9899 31.6403L37.0834 30.9448L36.8758 31.2147L37.7788 31.9067L37.1284 31.969L37.5366 32.2804L38.4396 32.1939L38.2874 31.3012ZM42.0691 34.4808L41.5812 35.114L42.5984 34.9445L41.512 36.3596L41.9307 36.6813L43.0136 35.2732L43.1105 36.2904L43.5983 35.6537L43.4634 34.2456L42.0691 34.4808ZM31.205 35.9202L31.1358 35.4081L30.7552 35.9478L30.6065 34.813L30.2709 34.858L30.4196 35.9859L29.9145 35.5707L29.9837 36.0793L30.6791 36.6537L31.205 35.9202ZM31.6306 40.8401L30.8348 40.9439L31.679 41.539L29.9076 41.7743L29.9768 42.2967L31.7378 42.0684L31.0874 42.8538L31.8832 42.7465L32.7862 41.6601L31.6306 40.8401ZM22.9324 34.1729L23.2438 33.7646L22.5934 33.8788L23.2888 32.9723L23.0189 32.7647L22.3269 33.6678L22.2647 33.0173L21.9533 33.4221L22.0398 34.3251L22.9324 34.1729ZM19.7528 37.958L19.1162 37.4667L19.2892 38.4839L17.8741 37.3975L17.5523 37.8196L18.9605 38.8991L17.9433 38.996L18.5799 39.4838L19.9915 39.3524L19.7528 37.958ZM18.3169 27.094L18.8255 27.0248L18.2858 26.6442L19.4172 26.492L19.3722 26.1563L18.2477 26.3051L18.6629 25.8034L18.1543 25.8692L17.5765 26.5681L18.3169 27.094ZM13.3935 27.5195L13.2897 26.7238L12.6911 27.5645L12.4559 25.7965L11.9334 25.8657L12.1652 27.6233L11.3799 26.9729L11.4836 27.7687L12.5735 28.6751L13.3935 27.5195ZM20.0573 18.8179L20.4655 19.1293L20.3548 18.4823L21.2613 19.1743L21.4689 18.9044L20.5659 18.2124L21.2163 18.1536L20.8081 17.8422L19.9085 17.9253L20.0573 18.8179ZM16.2756 15.6383L16.7669 15.0017L15.7462 15.1781L16.8326 13.7596L16.414 13.4413L15.3345 14.8494L15.2376 13.8288L14.7498 14.4688L14.8813 15.877L16.2756 15.6383ZM27.1396 14.2024L27.2088 14.711L27.5894 14.1713L27.7417 15.3027L28.0773 15.2612L27.9285 14.1332L28.4302 14.5484L28.3645 14.0398L27.6656 13.4655L27.1396 14.2024ZM26.7141 9.279L27.5099 9.17521L26.6691 8.57665L28.4371 8.34483L28.3679 7.82239L26.6103 8.05074L27.2607 7.26535L26.465 7.37261L25.5619 8.45901L26.7141 9.279ZM35.4157 15.9462L35.1009 16.3545L35.7513 16.2438L35.0593 17.1468L35.3257 17.3544L36.0212 16.4548L36.08 17.1018L36.3914 16.6935L36.3084 15.794L35.4157 15.9462ZM38.5953 12.1646L39.2285 12.6524L39.0555 11.6352L40.4741 12.7216L40.7924 12.3029L39.3842 11.22L40.4049 11.1231L39.7648 10.6387L38.3566 10.7668L38.5953 12.1646ZM39.1351 20.2884L38.6611 20.4821L39.2804 20.7105L38.2251 21.1499L38.3532 21.4647L39.405 21.0288L39.1316 21.6239L39.6056 21.4267L39.9862 20.6032L39.1351 20.2884ZM43.7817 18.6034L44.0862 19.3438L44.446 18.3751L45.1276 20.022L45.6155 19.8213L44.9373 18.1813L45.8646 18.6034L45.5601 17.863L44.273 17.2748L43.7817 18.6034ZM39.5918 28.7305L39.1178 28.5333L39.3911 29.1319L38.3359 28.6959L38.2078 29.0108L39.2596 29.4432L38.6472 29.6716L39.1212 29.8688L39.9724 29.554L39.5918 28.7305ZM44.0689 30.8203L43.761 31.5607L44.6986 31.1317L44.017 32.782L44.5048 32.9827L45.183 31.3427L45.5393 32.2977L45.8473 31.5607L45.356 30.2321L44.0689 30.8203ZM33.9453 35.024L33.748 34.5466L33.5197 35.1659L33.0837 34.1106L32.7689 34.2421L33.2048 35.2905L32.6097 35.0206L32.8069 35.4946L33.6304 35.8717L33.9453 35.024ZM35.6302 39.6672L34.8898 39.9717L35.8586 40.3315L34.2082 41.0131L34.4089 41.5044L36.0523 40.8228L35.6268 41.7535L36.3672 41.4456L36.9588 40.1585L35.6302 39.6672ZM25.5031 35.4773L25.7003 35.0033L25.0983 35.2801L25.5377 34.2248L25.2229 34.0968L24.7869 35.1451L24.562 34.5327L24.3648 35.0067L24.6797 35.8544L25.5031 35.4773ZM23.4099 39.9544L22.6729 39.6465L23.102 40.5875L21.4516 39.9025L21.2509 40.3938L22.8909 41.0719L21.9325 41.4248L22.6729 41.7328L24.0015 41.2415L23.4099 39.9544ZM19.2096 29.8308L19.687 29.6335L19.0677 29.4052L20.1195 28.9692L19.9915 28.6544L18.9432 29.0903L19.213 28.4987L18.739 28.6924L18.3619 29.5159L19.2096 29.8308ZM14.5664 31.5192L14.2585 30.7753L13.9021 31.7441L13.2171 30.0937L12.7292 30.2978L13.4073 31.9378L12.4801 31.5123L12.788 32.2561L14.0751 32.8443L14.5664 31.5192ZM18.7529 21.3886L19.2303 21.5858L18.9535 20.9873L20.0088 21.4232L20.1368 21.1084L19.0885 20.6759L19.7009 20.4475L19.2269 20.2503L18.3792 20.5652L18.7529 21.3886ZM14.2792 19.2988L14.5837 18.555L13.6461 18.9875L14.3311 17.3371L13.8433 17.1364L13.1617 18.7764L12.8053 17.8215L12.5009 18.5619L12.9922 19.887L14.2792 19.2988ZM24.3994 15.0951L24.5966 15.5725L24.8284 14.9532L25.2644 16.0085L25.5758 15.877L25.1433 14.8287L25.7349 15.0985L25.5377 14.628L24.7177 14.2474L24.3994 15.0951ZM22.7144 10.4554L23.4549 10.1474L22.4896 9.78761L24.1365 9.10601L23.9358 8.61817L22.2958 9.2963L22.7179 8.36559L21.9775 8.67352L21.3859 9.9606L22.7144 10.4554ZM32.8415 14.6418L32.6478 15.1158L33.2464 14.839L32.8104 15.8943L33.1218 16.0258L33.5577 14.974L33.7861 15.5864L33.9799 15.1124L33.6685 14.2647L32.8415 14.6418ZM34.9348 10.1647L35.6752 10.4727L35.2462 9.53504L36.8931 10.2166L37.0972 9.72879L35.4572 9.05065L36.4122 8.69082L35.6717 8.38635L34.3466 8.87766L34.9348 10.1647ZM37.5608 17.8699L37.1526 18.1848L37.8134 18.247L36.9035 18.9425L37.1111 19.2123L38.0141 18.5169L37.9034 19.1604L38.3116 18.8491L38.4639 17.9564L37.5608 17.8699ZM41.6089 15.0397L42.1002 15.6763L42.1936 14.6522L43.28 16.0638L43.7021 15.7455L42.6192 14.3374L43.626 14.5034L43.1382 13.8703L41.7438 13.6315L41.6089 15.0397ZM40.1869 25.9072L39.6783 25.8415L40.1004 26.3501L38.9656 26.1979L38.9206 26.5369L40.0485 26.6857L39.5191 27.0628L40.0277 27.1286L40.7647 26.6061L40.1869 25.9072ZM45.0515 26.7687L44.9477 27.5645L45.7435 26.9071L45.5082 28.6751L46.0341 28.7443L46.2659 26.9833L46.8576 27.8171L46.9614 27.0213L46.1414 25.8657L45.0515 26.7687ZM36.3603 33.4498L36.0489 33.0415L35.9866 33.6989L35.2911 32.7924L35.0213 32.9965L35.7167 33.8996L35.0697 33.7923L35.3846 34.1971L36.2772 34.3494L36.3603 33.4498ZM39.1904 37.4979L38.5573 37.9857L39.5814 38.0826L38.1663 39.169L38.4881 39.5876L39.8963 38.5082L39.7267 39.5115L40.3633 39.0237L40.6021 37.6293L39.1904 37.4979ZM28.3264 36.0724L28.3921 35.5638L27.8835 35.9859L28.0323 34.8545L27.6967 34.8095L27.5479 35.9375L27.1708 35.4046L27.1016 35.9132L27.6275 36.6502L28.3264 36.0724ZM27.4614 40.937L26.6691 40.8332L27.3265 41.6255L25.555 41.3972L25.4893 41.9196L27.2469 42.1514L26.4165 42.7431L27.2123 42.8469L28.3679 42.0303L27.4614 40.937ZM20.7838 32.2492L21.1921 31.9344L20.5347 31.8755L21.4412 31.1766L21.2336 30.9102L20.334 31.6022L20.4413 30.9587L20.0365 31.2701L19.8843 32.1627L20.7838 32.2492ZM16.7358 35.0794L16.2479 34.4428L16.151 35.4704L15.0646 34.0518L14.646 34.377L15.7255 35.7852L14.7186 35.6122L15.2099 36.2488L16.6043 36.4876L16.7358 35.0794ZM18.1578 24.2119L18.6698 24.2776L18.2477 23.769L19.3791 23.9178L19.4241 23.5856L18.2962 23.4369L18.829 23.0563L18.3204 22.9905L17.5834 23.513L18.1578 24.2119ZM13.2966 23.3504L13.4004 22.5546L12.6047 23.2154L12.8365 21.444L12.314 21.3748L12.0822 23.1359L11.4871 22.302L11.3868 23.0978L12.2033 24.2534L13.2966 23.3504ZM21.9844 16.6728L22.2993 17.0776L22.3581 16.4202L23.0535 17.3267L23.3234 17.1191L22.6314 16.2195L23.275 16.3268L22.9636 15.922L22.0709 15.7698L21.9844 16.6728ZM19.1542 12.6213L19.7908 12.1369L18.7633 12.04L20.1784 10.9536L19.8566 10.5349L18.4484 11.611L18.6179 10.6041L17.9848 11.0954L17.7426 12.4898L19.1542 12.6213ZM30.0217 14.0467L29.9525 14.5553L30.4611 14.1332L30.3124 15.2646L30.6514 15.3096L30.7968 14.1851L31.1773 14.7145L31.2431 14.2059L30.7206 13.4689L30.0217 14.0467ZM30.8832 9.18213L31.679 9.28592L31.0216 8.49361L32.7897 8.72196L32.8554 8.19952L31.0978 7.96771L31.9281 7.37607L31.1358 7.27227L29.9802 8.09226L30.8832 9.18213ZM33.2775 11.0435L32.6582 10.8775L33.0976 11.5764L31.7171 11.2062L31.6098 11.6179L32.9799 11.9846L32.2568 12.3687L32.8796 12.5348L33.8795 12.0019L33.2775 11.0435Z" fill="#8DC141"/>
<path d="M59.2751 38.2557C57.8912 38.2557 57.1992 37.37 57.1992 35.685C57.1992 33.9066 58.0261 33.1316 59.3132 33.1316C59.716 33.122 60.1154 33.2073 60.4791 33.3807C60.4528 33.5132 60.411 33.6421 60.3546 33.7648C60.0366 33.5907 59.6791 33.5014 59.3166 33.5053C58.2025 33.5053 57.6628 34.09 57.6628 35.7162C57.6628 37.1728 58.1506 37.882 59.2889 37.882C59.7043 37.8902 60.1131 37.7772 60.4653 37.5568C60.5181 37.6809 60.5598 37.8094 60.5899 37.9409C60.1876 38.1612 59.7336 38.27 59.2751 38.2557ZM62.9322 38.2557C61.9876 38.2557 61.3822 37.6883 61.3822 36.2559C61.3822 34.955 62.0257 34.2526 62.9633 34.2526C63.901 34.2526 64.5307 34.7785 64.5307 36.2559C64.5307 37.6433 63.8422 38.2557 62.9322 38.2557ZM62.9633 34.6159C62.3267 34.6159 61.8043 34.9238 61.8043 36.2559C61.8043 37.5326 62.2402 37.8959 62.9391 37.8959C63.638 37.8959 64.1086 37.5499 64.1086 36.2559C64.1086 34.9619 63.6484 34.6159 62.9633 34.6159ZM70.198 38.1831V35.3702C70.2096 35.2701 70.1985 35.1687 70.1654 35.0736C70.1323 34.9785 70.0781 34.8921 70.0069 34.8209C69.9356 34.7496 69.8492 34.6955 69.7541 34.6624C69.659 34.6293 69.5576 34.6181 69.4576 34.6298C69.072 34.6241 68.6995 34.7693 68.4196 35.0346V38.1831H68.0286V35.3702C68.0363 35.2692 68.0216 35.1678 67.9858 35.0731C67.9499 34.9783 67.8937 34.8927 67.8211 34.822C67.7485 34.7514 67.6613 34.6976 67.5656 34.6644C67.47 34.6312 67.3682 34.6193 67.2675 34.6298C66.8938 34.6353 66.5344 34.774 66.2537 35.0207V38.1831H65.8627V34.3495C65.9915 34.3242 66.1225 34.3114 66.2537 34.3114V34.6886H66.2779C66.4123 34.5492 66.5736 34.4387 66.752 34.3638C66.9305 34.2888 67.1223 34.251 67.3159 34.2526C67.5094 34.2367 67.7032 34.2798 67.8718 34.3761C68.0404 34.4725 68.1759 34.6176 68.2604 34.7924C68.5894 34.4549 69.0383 34.261 69.5095 34.2526C70.0803 34.2526 70.582 34.5052 70.582 35.3979V38.1831H70.198ZM73.3811 38.2557C73.1021 38.254 72.8262 38.1988 72.568 38.0931V39.7054H72.177V34.3495C72.3058 34.3243 72.4368 34.3116 72.568 34.3114V34.6574H72.5853C72.9041 34.386 73.3119 34.2418 73.7305 34.2526C74.5055 34.2526 75.073 34.7612 75.073 36.1383C75.0799 37.6433 74.4467 38.2557 73.3811 38.2557ZM73.6406 34.6228C73.2528 34.629 72.8771 34.7587 72.568 34.993V37.7194C72.8342 37.8359 73.1216 37.896 73.4122 37.8959C74.2322 37.8959 74.6612 37.453 74.6612 36.1971C74.6612 34.9411 74.2703 34.6228 73.6406 34.6228ZM78.6643 38.1831V37.8371H78.6436C78.2865 38.097 77.857 38.2386 77.4153 38.2419C76.8479 38.2419 76.3773 37.9928 76.3773 37.107V34.3391C76.5073 34.3141 76.6394 34.3014 76.7718 34.3011V37.1313C76.7718 37.5672 76.9621 37.8717 77.4637 37.8717C77.8888 37.8713 78.3037 37.7423 78.6539 37.5015V34.3391C78.7839 34.3139 78.916 34.3011 79.0484 34.3011V38.1727L78.6643 38.1831ZM81.7748 38.2557C81.0828 38.2557 80.8302 37.889 80.8302 37.1209V34.6574H80.3493V34.3114H80.8302V33.4568C80.9561 33.4123 81.0878 33.3867 81.2212 33.3807V34.3114H82.1761C82.1737 34.4273 82.1633 34.543 82.145 34.6574H81.235V37.1693C81.235 37.716 81.37 37.8959 81.7748 37.8959C81.9711 37.8927 82.165 37.8516 82.3457 37.7748C82.3854 37.8943 82.4076 38.0191 82.4114 38.145C82.2098 38.2279 81.9925 38.2657 81.7748 38.2557ZM85.9439 36.2386H83.5497V36.2836C83.5497 37.3492 83.8542 37.889 84.8126 37.889C85.1422 37.8912 85.4663 37.804 85.7502 37.6364C85.8054 37.7467 85.8483 37.8627 85.8782 37.9824C85.5454 38.1639 85.1707 38.2546 84.7918 38.2453C83.6985 38.2453 83.138 37.626 83.138 36.2974C83.138 34.8097 83.7953 34.2422 84.6292 34.2422C85.463 34.2422 85.9578 34.7301 85.9578 35.6919C85.9578 35.8649 85.9508 36.0621 85.9439 36.2386ZM83.5566 35.9307H85.5668V35.6781C85.5668 34.8892 85.1897 34.5848 84.6084 34.5848C84.0272 34.5848 83.5947 34.9688 83.5566 35.9307ZM89.9643 36.159H89.1651V38.1831H88.7534V33.2562C89.1641 33.1893 89.5794 33.1546 89.9955 33.1524C90.8501 33.1524 91.6424 33.5434 91.6424 34.6436C91.6424 35.685 90.8431 36.159 89.9643 36.159ZM90.0024 33.4984C89.8225 33.4984 89.5215 33.5226 89.1651 33.5572V35.8027H89.8847C90.6632 35.8027 91.2168 35.4947 91.2168 34.6436C91.2168 33.7925 90.6356 33.4984 90.0024 33.4984ZM94.5764 34.6955C94.47 34.6692 94.3607 34.6564 94.2511 34.6574C93.9916 34.6574 93.7114 34.6955 93.2893 35.1903V38.1831H92.8983V34.3495C93.0271 34.324 93.158 34.3113 93.2893 34.3114V34.7993H93.31C93.7771 34.2976 94.0643 34.2526 94.303 34.2526C94.4093 34.2499 94.5153 34.2627 94.6179 34.2907C94.614 34.4265 94.6001 34.5618 94.5764 34.6955ZM96.9118 38.2557C95.9638 38.2557 95.3583 37.6883 95.3583 36.2559C95.3583 34.955 96.0018 34.2526 96.9395 34.2526C97.8771 34.2526 98.5068 34.7785 98.5068 36.2559C98.5068 37.6433 97.8183 38.2557 96.9118 38.2557ZM96.9395 34.6159C96.3028 34.6159 95.7804 34.9238 95.7804 36.2559C95.7804 37.5326 96.2164 37.8959 96.9187 37.8959C97.6211 37.8959 98.0847 37.5499 98.0847 36.2559C98.0847 34.9619 97.628 34.6159 96.9395 34.6159ZM99.1572 39.7781C99.117 39.6563 99.0949 39.5292 99.0915 39.4009C99.6451 39.3594 99.8354 39.055 99.8354 38.5533V34.3253H100.226V38.5533C100.241 38.7048 100.225 38.8577 100.178 39.0027C100.132 39.1476 100.056 39.2816 99.956 39.3963C99.8559 39.5109 99.7334 39.604 99.596 39.6696C99.4587 39.7353 99.3094 39.7722 99.1572 39.7781ZM100.029 33.4776C99.9938 33.4788 99.9587 33.4724 99.9261 33.4588C99.8935 33.4452 99.8642 33.4248 99.8402 33.3988C99.8163 33.3729 99.7981 33.3421 99.7872 33.3085C99.7762 33.2749 99.7726 33.2394 99.7766 33.2043C99.7766 33.1364 99.8036 33.0713 99.8516 33.0232C99.8996 32.9752 99.9647 32.9482 100.033 32.9482C100.101 32.9482 100.166 32.9752 100.214 33.0232C100.262 33.0713 100.289 33.1364 100.289 33.2043C100.293 33.24 100.289 33.2762 100.278 33.3102C100.266 33.3443 100.247 33.3755 100.223 33.4016C100.198 33.4276 100.168 33.448 100.134 33.4611C100.101 33.4742 100.065 33.4799 100.029 33.4776ZM104.357 36.2386H101.963V36.2836C101.963 37.3492 102.268 37.889 103.23 37.889C103.559 37.8902 103.883 37.803 104.167 37.6364C104.223 37.7462 104.265 37.8624 104.292 37.9824C103.959 38.1639 103.584 38.2546 103.205 38.2453C102.112 38.2453 101.551 37.626 101.551 36.2974C101.551 34.8097 102.209 34.2422 103.043 34.2422C103.877 34.2422 104.375 34.7301 104.375 35.6919C104.375 35.8649 104.364 36.0621 104.357 36.2386ZM101.974 35.9307H103.98C103.985 35.8466 103.985 35.7622 103.98 35.6781C103.98 34.8892 103.603 34.5848 103.018 34.5848C102.434 34.5848 101.994 34.9688 101.974 35.9307ZM107.004 38.2557C105.897 38.2557 105.364 37.5914 105.364 36.3216C105.364 34.8304 106.056 34.2457 106.921 34.2457C107.254 34.2453 107.584 34.3027 107.897 34.4152C107.889 34.5441 107.862 34.6712 107.817 34.7924C107.537 34.6739 107.236 34.6138 106.932 34.6159C106.24 34.6159 105.786 34.993 105.786 36.1659C105.786 37.5049 106.191 37.8959 106.997 37.8959C107.319 37.9016 107.636 37.819 107.914 37.6572C107.963 37.7735 107.997 37.8956 108.015 38.0204C107.702 38.1803 107.355 38.2611 107.004 38.2557ZM110.298 38.2557C109.589 38.2557 109.354 37.889 109.354 37.1209V34.6574H108.873V34.3114H109.354V33.4568C109.479 33.4117 109.611 33.386 109.745 33.3807V34.3114H110.699C110.697 34.4273 110.687 34.543 110.668 34.6574H109.745V37.1693C109.745 37.716 109.879 37.8959 110.284 37.8959C110.48 37.8931 110.672 37.8519 110.852 37.7748C110.894 37.8937 110.918 38.0187 110.921 38.145C110.724 38.2259 110.511 38.2637 110.298 38.2557ZM112.879 34.7059C112.877 34.4937 112.92 34.2836 113.007 34.09C113.089 33.905 113.206 33.738 113.353 33.5987C113.498 33.4558 113.669 33.3427 113.857 33.2662C114.045 33.1896 114.247 33.1509 114.45 33.1524C114.753 33.1514 115.051 33.2385 115.305 33.403C115.56 33.5676 115.762 33.8027 115.886 34.0796C115.969 34.2717 116.012 34.4791 116.01 34.6886C116.013 34.9014 115.97 35.1124 115.886 35.3079C115.804 35.4928 115.686 35.6597 115.54 35.7992C115.397 35.9393 115.229 36.0509 115.045 36.1279C114.854 36.2053 114.649 36.2453 114.443 36.2455C114.237 36.246 114.032 36.206 113.841 36.1279C113.469 35.9757 113.171 35.6839 113.011 35.3148C112.922 35.124 112.877 34.9161 112.879 34.7059ZM113.132 34.7059C113.129 34.8839 113.163 35.0607 113.232 35.2249C113.298 35.3797 113.393 35.5206 113.512 35.64C113.633 35.7574 113.774 35.8523 113.928 35.9203C114.26 36.0579 114.633 36.0579 114.965 35.9203C115.121 35.854 115.262 35.7576 115.381 35.6366C115.502 35.5177 115.597 35.3752 115.661 35.2179C115.731 35.0503 115.766 34.8702 115.765 34.6886C115.766 34.5103 115.73 34.3337 115.661 34.1696C115.53 33.8572 115.281 33.6088 114.969 33.4776C114.806 33.4032 114.629 33.3643 114.45 33.3634C114.274 33.3626 114.1 33.3967 113.938 33.4638C113.784 33.5318 113.643 33.6267 113.523 33.744C113.403 33.8641 113.308 34.0063 113.242 34.1627C113.168 34.334 113.13 34.5191 113.132 34.7059ZM113.862 33.8132H114.519C114.687 33.8006 114.855 33.8431 114.997 33.9343C115.051 33.9835 115.094 34.0447 115.121 34.1131C115.148 34.1816 115.159 34.2554 115.152 34.3287C115.157 34.3931 115.146 34.4575 115.122 34.5174C115.098 34.5773 115.061 34.631 115.014 34.6747C114.915 34.7546 114.795 34.8018 114.668 34.8097L115.183 35.5985H114.914L114.45 34.8373H114.104V35.6054H113.855L113.862 33.8132ZM114.111 34.6124H114.599C114.652 34.6091 114.705 34.5974 114.754 34.5779C114.798 34.5589 114.835 34.5277 114.862 34.4879C114.891 34.4378 114.905 34.3798 114.9 34.3218C114.902 34.2711 114.89 34.2207 114.865 34.1765C114.842 34.1401 114.81 34.1103 114.772 34.09C114.731 34.0696 114.686 34.0567 114.64 34.0519H114.104L114.111 34.6124Z" fill="#5F6062"/>
</g>
<defs>
<clipPath id="clip0_251_35">
<rect width="108.99" height="44.3281" fill="white" transform="translate(7.01001 2.89551)"/>
</clipPath>
</defs>
</svg>
