<svg width="125" height="50" viewBox="0 0 125 50" fill="none" xmlns="http://www.w3.org/2000/svg">
<g clip-path="url(#clip0_133_209)">
<path d="M53.9338 42.4337C54.2543 42.7543 54.8953 42.9679 55.8034 42.9679C56.2842 42.9679 56.7115 42.9145 57.0855 42.7542C57.406 42.594 57.6731 42.3803 57.8867 42.1132C58.1004 41.8461 58.1538 41.5256 58.1538 41.2051C58.1538 40.938 58.1004 40.6709 57.9402 40.4038C57.7799 40.1901 57.5662 39.9765 57.2457 39.8162C56.9252 39.656 56.4444 39.4957 55.75 39.3354C55.4829 39.282 55.2692 39.2286 55.2158 39.1218C55.1624 39.0684 55.109 38.9615 55.109 38.9081C55.109 38.8013 55.1624 38.6944 55.2692 38.641C55.3761 38.5876 55.4829 38.5342 55.6966 38.5342C55.9102 38.5342 56.1239 38.5876 56.2308 38.6944C56.3376 38.8013 56.4444 38.9615 56.4979 39.2286L58.047 39.1218C57.9936 38.5876 57.7799 38.1602 57.406 37.9466C57.032 37.6795 56.5513 37.5726 55.8568 37.5726C55.3226 37.5726 54.8953 37.626 54.5748 37.7863C54.2543 37.9466 54.0406 38.1068 53.8803 38.3739C53.7201 38.5876 53.6667 38.8547 53.6667 39.1218C53.6667 39.5491 53.8269 39.8696 54.1474 40.1367C54.4679 40.4038 54.9487 40.6175 55.6432 40.7778C56.0705 40.8846 56.3376 40.9914 56.4979 41.0983C56.6047 41.2051 56.6581 41.3119 56.6581 41.4722C56.6581 41.6325 56.6047 41.7393 56.4444 41.8461C56.3376 41.953 56.1239 42.0064 55.9103 42.0064C55.5897 42.0064 55.3761 41.8995 55.2158 41.6859C55.109 41.579 55.0556 41.3654 55.0021 41.0983L53.453 41.2051C53.3996 41.6325 53.5598 42.1132 53.9338 42.4337ZM65.6859 40.6709V42.8611H67.2885V40.6709L69.3184 37.6261H67.5556L66.4872 39.3889L65.4188 37.6261H63.6026L65.6859 40.6709ZM75.141 42.4337C75.4615 42.7543 76.1026 42.9679 77.0107 42.9679C77.4914 42.9679 77.9188 42.9145 78.2927 42.7542C78.6132 42.594 78.8803 42.3803 79.094 42.1132C79.2543 41.8461 79.3611 41.5256 79.3611 41.2051C79.3611 40.938 79.3077 40.6709 79.1474 40.4038C78.9872 40.1901 78.7735 39.9765 78.453 39.8162C78.1325 39.656 77.6517 39.4957 76.9573 39.3354C76.6902 39.282 76.4765 39.2286 76.4231 39.1218C76.3697 39.0684 76.3162 38.9615 76.3162 38.9081C76.3162 38.8013 76.3697 38.6944 76.4765 38.641C76.5833 38.5876 76.6902 38.5342 76.9038 38.5342C77.1175 38.5342 77.3312 38.5876 77.438 38.6944C77.5449 38.8013 77.6517 38.9615 77.7051 39.2286L79.2543 39.1218C79.2008 38.5876 78.9872 38.1602 78.6132 37.9466C78.2393 37.6795 77.7585 37.5726 77.0641 37.5726C76.5299 37.5726 76.1026 37.626 75.782 37.7863C75.4615 37.9466 75.2479 38.1068 75.0876 38.3739C74.9273 38.5876 74.8739 38.8547 74.8739 39.1218C74.8739 39.5491 75.0342 39.8696 75.3547 40.1367C75.6752 40.4038 76.156 40.6175 76.8504 40.7778C77.2778 40.8846 77.5449 40.9914 77.7051 41.0983C77.812 41.2051 77.8654 41.3119 77.8654 41.4722C77.8654 41.6325 77.812 41.7393 77.6517 41.8461C77.5449 41.953 77.3312 42.0064 77.1175 42.0064C76.797 42.0064 76.5833 41.8995 76.4231 41.6859C76.3162 41.579 76.2628 41.3654 76.2094 41.0983L74.6603 41.2051C74.6068 41.6325 74.7671 42.1132 75.141 42.4337ZM85.0235 38.9081H86.6795V42.8611H88.282V38.9081H89.938V37.6261H85.0235V38.9081ZM95.9209 42.8611H100.355V41.6859H97.5769V40.6709H100.088V39.6025H97.5769V38.7478H100.301V37.6261H95.9744V42.8611H95.9209ZM106.498 42.8611H107.833V38.8547L108.848 42.8611H110.023L111.038 38.8547V42.8611H112.374V37.6261H110.237L109.436 40.8312L108.635 37.6261H106.498V42.8611ZM118.944 42.4337C119.265 42.7543 119.906 42.9679 120.814 42.9679C121.295 42.9679 121.722 42.9145 122.096 42.7542C122.417 42.594 122.684 42.3803 122.897 42.1132C123.058 41.8461 123.165 41.5256 123.165 41.2051C123.165 40.938 123.111 40.6709 122.951 40.4038C122.791 40.1901 122.577 39.9765 122.256 39.8162C121.936 39.656 121.455 39.4957 120.761 39.3354C120.494 39.282 120.28 39.2286 120.226 39.1218C120.173 39.0684 120.12 38.9615 120.12 38.9081C120.12 38.8013 120.173 38.6944 120.28 38.641C120.387 38.5876 120.494 38.5342 120.707 38.5342C120.921 38.5342 121.135 38.5876 121.241 38.6944C121.348 38.8013 121.455 38.9615 121.509 39.2286L123.058 39.1218C123.004 38.5876 122.791 38.1602 122.417 37.9466C122.043 37.7329 121.562 37.5726 120.868 37.5726C120.333 37.5726 119.906 37.626 119.585 37.7863C119.265 37.9466 119.051 38.1068 118.891 38.3739C118.731 38.5876 118.677 38.8547 118.677 39.1218C118.677 39.5491 118.838 39.8696 119.158 40.1367C119.479 40.4038 119.959 40.6175 120.654 40.7778C121.081 40.8846 121.348 40.9914 121.509 41.0983C121.615 41.2051 121.669 41.3119 121.669 41.4722C121.669 41.6325 121.615 41.7393 121.455 41.8461C121.348 41.953 121.135 42.0064 120.921 42.0064C120.6 42.0064 120.387 41.8995 120.226 41.6859C120.12 41.579 120.066 41.3654 120.013 41.0983L118.464 41.2051C118.41 41.6325 118.624 42.1132 118.944 42.4337Z" fill="white"/>
<path d="M53.2393 33.3526C53.7735 34.2607 54.4679 34.9017 55.2692 35.3291C56.1239 35.7564 57.1923 35.9701 58.4744 35.9701C59.7564 35.9701 60.8248 35.7564 61.6795 35.2757C62.5342 34.7949 63.1752 34.1539 63.656 33.2992C64.0833 32.4445 64.3504 31.3227 64.3504 29.9872C64.3504 28.171 63.8162 26.7287 62.8013 25.7137C61.7863 24.6987 60.2906 24.1646 58.4209 24.1646C56.5513 24.1646 55.109 24.6987 54.094 25.7137C53.0791 26.7287 52.5449 28.2244 52.5449 30.094C52.4914 31.3761 52.7585 32.4445 53.2393 33.3526ZM56.6581 27.5299C57.0855 27.0492 57.6731 26.7821 58.3675 26.7821C59.1154 26.7821 59.703 27.0492 60.1303 27.5299C60.5577 28.0107 60.7714 28.812 60.7714 29.8804C60.7714 31.1624 60.5577 32.0705 60.1303 32.5513C59.703 33.0321 59.1154 33.2992 58.3675 33.2992C57.6197 33.2992 57.032 33.0321 56.6047 32.5513C56.1773 32.0705 55.9637 31.2158 55.9637 30.0406C56.0171 28.8654 56.2308 28.0107 56.6581 27.5299ZM73.1111 32.7116C72.7906 33.0855 72.2564 33.2992 71.562 33.2992C70.8675 33.2992 70.3333 33.0855 69.9594 32.6047C69.5855 32.1239 69.3718 31.2692 69.3718 29.9872C69.3718 28.9722 69.532 28.2244 69.8526 27.7436C70.2799 27.1026 70.8675 26.7821 71.6688 26.7821C72.0427 26.7821 72.3632 26.8355 72.6303 26.9957C72.8974 27.156 73.1645 27.3697 73.3782 27.6368C73.485 27.797 73.5919 28.0641 73.6987 28.3846L76.797 27.6902C76.3697 26.4616 75.782 25.6069 74.9808 25.0193C74.1795 24.4316 73.0043 24.1646 71.562 24.1646C69.7457 24.1646 68.3034 24.6987 67.2885 25.7137C66.2735 26.7287 65.7927 28.171 65.7927 30.094C65.7927 31.5363 66.0598 32.6581 66.6474 33.5663C67.235 34.4744 67.8761 35.1154 68.6773 35.4893C69.4786 35.8633 70.4936 36.0235 71.7222 36.0235C72.7372 36.0235 73.5919 35.8633 74.2329 35.5962C74.8739 35.2757 75.4615 34.8483 75.8889 34.2607C76.3162 33.6731 76.6902 32.9786 76.8504 32.0705L73.7521 31.109C73.6987 31.75 73.4316 32.3376 73.1111 32.7116ZM77.8654 27.1026H81.4979V35.703H85.0235V27.1026H88.656V24.2714H77.9188V27.1026H77.8654ZM96.7222 35.7564H100.462L96.1346 24.3248H92.2885L87.9615 35.7564H91.594L92.1282 33.8868H96.188L96.7222 35.7564ZM92.9295 31.3761L94.1581 27.2628L95.4402 31.3761H92.9295ZM103.88 35.7564H107.726L112 24.3248H108.421L105.857 32.5513L103.293 24.3248H99.6068L103.88 35.7564ZM112.908 33.3526C113.442 34.2607 114.137 34.9017 114.991 35.3291C115.846 35.7564 116.915 35.9701 118.197 35.9701C119.479 35.9701 120.547 35.7564 121.402 35.2757C122.256 34.7949 122.897 34.1539 123.378 33.2992C123.806 32.4445 124.073 31.3227 124.073 29.9872C124.073 28.171 123.538 26.7287 122.524 25.7137C121.509 24.6987 120.013 24.1646 118.143 24.1646C116.273 24.1646 114.831 24.6987 113.816 25.7137C112.801 26.7287 112.267 28.2244 112.267 30.094C112.16 31.3761 112.374 32.4445 112.908 33.3526ZM116.327 27.5299C116.754 27.0492 117.342 26.7821 118.036 26.7821C118.784 26.7821 119.372 27.0492 119.799 27.5299C120.226 28.0107 120.44 28.812 120.44 29.8804C120.44 31.1624 120.226 32.0705 119.799 32.5513C119.372 33.0321 118.784 33.2992 118.036 33.2992C117.288 33.2992 116.701 33.0321 116.273 32.5513C115.846 32.0705 115.632 31.2158 115.632 30.0406C115.686 28.8654 115.9 28.0107 116.327 27.5299Z" fill="white"/>
<path d="M6.12392 11.2372H7.77991V7.76495H6.12392V11.2372Z" fill="#BD342F"/>
<path d="M14.6709 11.2372H16.3269V7.76495H14.6709V11.2372Z" fill="#BD342F"/>
<path d="M23.2179 11.2372H24.8739V7.76495H23.2179V11.2372Z" fill="#BD342F"/>
<path d="M10.3974 11.2372H12.0534V7.76495H10.3974V11.2372Z" fill="#BD342F"/>
<path d="M18.9444 11.2372H20.6004V7.76495H18.9444V11.2372Z" fill="#BD342F"/>
<path d="M27.4914 11.2372H29.1474V7.76495H27.4914V11.2372Z" fill="#BD342F"/>
<path d="M27.4914 11.2372H29.1474V7.76495H27.4914V11.2372Z" fill="#BD342F"/>
<path d="M36.0385 11.2372H37.6944V7.76495H36.0385V11.2372Z" fill="#BD342F"/>
<path d="M31.765 11.2372H33.4209V7.76495H31.765V11.2372Z" fill="#BD342F"/>
<path d="M40.312 11.2372H41.9679V7.76495H40.312V11.2372Z" fill="#BD342F"/>
<path d="M-0.23291 37.0385H3.23931V35.3825H-0.23291V37.0385Z" fill="#BD342F"/>
<path d="M-0.23291 28.4914H3.23931V26.8354H-0.23291V28.4914Z" fill="#BD342F"/>
<path d="M-0.23291 19.9444H3.23931V18.2885H-0.23291V19.9444Z" fill="#BD342F"/>
<path d="M-0.23291 32.7649H3.23931V31.1089H-0.23291V32.7649Z" fill="#BD342F"/>
<path d="M-0.23291 24.2179H3.23931V22.562H-0.23291V24.2179Z" fill="#BD342F"/>
<path d="M-0.23291 15.6709H3.23931V14.015H-0.23291V15.6709Z" fill="#BD342F"/>
<path d="M-0.23291 15.6709H3.23931V14.015H-0.23291V15.6709Z" fill="#BD342F"/>
<path d="M44.7991 37.0385H48.2714V35.3825H44.7991V37.0385Z" fill="#BD342F"/>
<path d="M44.7991 28.4914H48.2714V26.8354H44.7991V28.4914Z" fill="#BD342F"/>
<path d="M44.7991 19.9444H48.2714V18.2885H44.7991V19.9444Z" fill="#BD342F"/>
<path d="M44.7991 32.7649H48.2714V31.1089H44.7991V32.7649Z" fill="#BD342F"/>
<path d="M44.7991 24.2179H48.2714V22.562H44.7991V24.2179Z" fill="#BD342F"/>
<path d="M44.7991 15.6709H48.2714V14.015H44.7991V15.6709Z" fill="#BD342F"/>
<path d="M44.7991 15.6709H48.2714V14.015H44.7991V15.6709Z" fill="#BD342F"/>
<path d="M6.12392 42.9679H7.77991V39.4957H6.12392V42.9679Z" fill="#BD342F"/>
<path d="M14.6709 42.9679H16.3269V39.4957H14.6709V42.9679Z" fill="#BD342F"/>
<path d="M23.2179 42.9679H24.8739V39.4957H23.2179V42.9679Z" fill="#BD342F"/>
<path d="M10.3974 42.9679H12.0534V39.4957H10.3974V42.9679Z" fill="#BD342F"/>
<path d="M18.9444 42.9679H20.6004V39.4957H18.9444V42.9679Z" fill="#BD342F"/>
<path d="M27.4914 42.9679H29.1474V39.4957H27.4914V42.9679Z" fill="#BD342F"/>
<path d="M27.4914 42.9679H29.1474V39.4957H27.4914V42.9679Z" fill="#BD342F"/>
<path d="M36.0385 42.9679H37.6944V39.4957H36.0385V42.9679Z" fill="#BD342F"/>
<path d="M31.765 42.9679H33.4209V39.4957H31.765V42.9679Z" fill="#BD342F"/>
<path d="M40.312 42.9679H41.9679V39.4957H40.312V42.9679Z" fill="#BD342F"/>
<path d="M15.0449 22.9893C16.1132 22.9893 17.0214 22.6688 17.7158 21.9743C18.4103 21.2799 18.7842 20.4786 18.7842 19.5171C18.7842 18.5021 18.4103 17.6474 17.6624 17.0598C16.9145 16.4188 16.0598 16.0983 15.0449 16.0983C14.0833 16.0983 13.2286 16.4188 12.4808 17.0598C11.7329 17.7008 11.359 18.5021 11.359 19.5171C11.359 20.4786 11.7329 21.2799 12.4273 21.9743C13.1218 22.6154 13.9765 22.9893 15.0449 22.9893Z" fill="#BD342F"/>
<path d="M33.9017 24.2714C32.7265 24.2714 31.765 24.7521 31.0171 25.7137C30.3226 26.6752 29.9487 27.9038 29.9487 29.453C29.9487 31.0021 30.3226 32.2842 31.0171 33.1923C31.7115 34.1538 32.6731 34.6346 33.9017 34.6346C35.1303 34.6346 36.0385 34.1538 36.7863 33.1923C37.4808 32.2308 37.8547 31.0021 37.8547 29.453C37.8547 27.9038 37.4808 26.6752 36.7863 25.7137C36.0919 24.7521 35.1303 24.2714 33.9017 24.2714Z" fill="#BD342F"/>
<path d="M3.29273 39.4423H44.8526V11.2372H3.29273V39.4423ZM15.0449 36.1303C13.4957 36.1303 12.2137 35.8633 11.1987 35.3291C10.1838 34.7949 9.38247 33.9936 8.79486 32.9786C8.20726 31.9637 7.88674 30.8953 7.88674 29.7735C7.88674 28.5983 8.20726 27.5299 8.90171 26.4615C9.59615 25.3932 10.6111 24.5919 11.9466 23.9509C10.8782 23.4167 10.0769 22.7756 9.54273 21.9744C9.00854 21.2265 8.74145 20.3184 8.74145 19.3034C8.74145 18.3419 9.00854 17.3804 9.54273 16.5257C10.0769 15.671 10.8782 15.0299 11.8932 14.6026C12.9081 14.1752 13.9765 13.9615 15.0449 13.9615C16.1667 13.9615 17.235 14.1752 18.25 14.656C19.265 15.0833 20.0662 15.7778 20.6004 16.5791C21.1346 17.4338 21.4017 18.3419 21.4017 19.3034C21.4017 20.3184 21.1346 21.2265 20.6004 21.9744C20.0662 22.7222 18.25 23.7906 18.25 23.7906C16.7543 24.7521 14.6709 24.9658 14.6709 24.9658C14.0299 25.0192 13.3889 25.1795 12.8013 25.5534C12.1068 25.9274 11.5192 26.515 11.1453 27.2628C10.7179 28.0107 10.5043 28.7586 10.5043 29.5598C10.5043 30.3077 10.7179 31.0556 11.0919 31.8034C11.4658 32.4979 12.0534 33.0855 12.7479 33.406C13.4957 33.7799 14.2436 33.9402 15.0449 33.9402C15.8462 33.9402 16.594 33.7799 17.3419 33.406C17.5555 33.2991 17.7692 33.1389 17.9295 33.0321L18.8376 35.3291C17.8761 35.8633 16.6474 36.1303 15.0449 36.1303ZM20.7607 36.1303L16.4338 25.6069C16.4338 25.6069 17.1816 25.4466 18.5171 24.859L21.9359 33.2457L26.3162 22.8291H28.5064L22.9508 36.1303H20.7607ZM38.3355 34.7415C37.1068 35.9167 35.6111 36.5043 33.9017 36.5043C32.1923 36.5043 30.6966 35.9167 29.4679 34.7415C28.2393 33.5662 27.6517 31.8034 27.6517 29.5064C27.6517 27.2094 28.2393 25.4466 29.4679 24.2714C30.6966 23.0962 32.1923 22.5086 33.9017 22.5086C35.6111 22.5086 37.1068 23.0962 38.3355 24.2714C39.5641 25.4466 40.1517 27.2094 40.1517 29.5064C40.2051 31.8034 39.5641 33.5662 38.3355 34.7415Z" fill="#BD342F"/>
</g>
<defs>
<clipPath id="clip0_133_209">
<rect width="125" height="50" fill="white"/>
</clipPath>
</defs>
</svg>
