<svg width="68" height="20" viewBox="0 0 68 20" fill="none" xmlns="http://www.w3.org/2000/svg">
<path d="M43.1047 15.2519V1.81848H37.3971L35.3225 3.89308L33.2667 1.83728H30.1876V1.80908H27.6155V15.2519C27.0241 15.6555 26.6392 16.3408 26.6392 17.1106C26.6392 18.3591 27.653 19.373 28.9015 19.373C30.1501 19.373 31.1639 18.3591 31.1639 17.1106C31.1639 16.3408 30.779 15.6649 30.1876 15.2519V4.66288H32.1026L33.8581 6.41828V9.11248C33.323 9.52558 32.9757 10.1639 32.9757 10.8867C32.9757 12.1353 33.9895 13.1491 35.238 13.1491C36.4866 13.1491 37.5004 12.1353 37.5004 10.8867C37.5004 10.0794 37.0686 9.37538 36.4302 8.97168V6.75628L38.5612 4.62528H40.5232V15.2519C39.9317 15.6555 39.5469 16.3408 39.5469 17.1106C39.5469 18.3591 40.5607 19.373 41.8092 19.373C43.0577 19.373 44.0716 18.3591 44.0716 17.1106C44.0716 16.3408 43.6867 15.6649 43.0953 15.2519H43.1047ZM28.9015 17.7959C28.573 17.7959 28.3101 17.533 28.3101 17.2045C28.3101 16.8759 28.573 16.6131 28.9015 16.6131C29.2301 16.6131 29.4929 16.8759 29.4929 17.2045C29.4929 17.533 29.2301 17.7959 28.9015 17.7959ZM35.238 11.5814C34.9095 11.5814 34.6466 11.3186 34.6466 10.99C34.6466 10.6614 34.9095 10.3986 35.238 10.3986C35.5666 10.3986 35.8294 10.6614 35.8294 10.99C35.8294 11.3186 35.5666 11.5814 35.238 11.5814ZM41.8092 17.7959C41.4807 17.7959 41.2178 17.533 41.2178 17.2045C41.2178 16.8759 41.4807 16.6131 41.8092 16.6131C42.1378 16.6131 42.4006 16.8759 42.4006 17.2045C42.4006 17.533 42.1378 17.7959 41.8092 17.7959Z" fill="white"/>
<path d="M23.9919 14.8483C23.2878 14.8483 22.6682 15.1769 22.2552 15.6838H18.6129L17.0546 14.1161V1.8186H14.4824V15.036L17.8243 18.378H22.1238C22.5274 18.9788 23.2127 19.373 23.9919 19.373C25.2404 19.373 26.2542 18.3592 26.2542 17.1107C26.2542 15.8621 25.2404 14.8483 23.9919 14.8483ZM23.9919 17.7959C23.6633 17.7959 23.4005 17.5331 23.4005 17.2045C23.4005 16.876 23.6633 16.6131 23.9919 16.6131C24.3204 16.6131 24.5833 16.876 24.5833 17.2045C24.5833 17.5331 24.3204 17.7959 23.9919 17.7959Z" fill="white"/>
<path d="M23.9919 0.513794C22.7434 0.513794 21.7295 1.52769 21.7295 2.77619C21.7295 3.54599 22.1144 4.22179 22.7058 4.63489V13.4497H25.278V4.62549C25.8694 4.22179 26.2543 3.5366 26.2543 2.7668C26.2543 1.5183 25.2404 0.504395 23.9919 0.504395V0.513794ZM23.9919 2.288C24.3205 2.288 24.5833 2.55089 24.5833 2.87939C24.5833 3.20799 24.3205 3.47089 23.9919 3.47089C23.6633 3.47089 23.4005 3.20799 23.4005 2.87939C23.4005 2.55089 23.6633 2.288 23.9919 2.288Z" fill="white"/>
<path d="M65.7283 14.6886C65.3715 14.6886 65.043 14.7731 64.7426 14.9233L60.9782 11.159H58.3591L53.8156 15.7025H49.5631L48.0048 14.1442V11.3749H51.8818C52.2855 11.9663 52.9708 12.3512 53.7405 12.3512C54.9891 12.3512 56.0029 11.3373 56.0029 10.0888C56.0029 8.8403 54.9891 7.8264 53.7405 7.8264C52.9708 7.8264 52.2949 8.2113 51.8818 8.8027H48.0048V6.0804L49.5631 4.5221H53.8156L58.3591 9.06561H60.9782L64.7144 5.3294C65.0242 5.489 65.3621 5.5828 65.7283 5.5828C66.9768 5.5828 67.9906 4.56901 67.9906 3.32051C67.9906 2.07191 66.9768 1.05811 65.7283 1.05811C64.4797 1.05811 63.494 2.0438 63.4753 3.2735L59.6734 7.07541L54.407 1.8091H48.7652L45.4233 5.151V15.1392L48.6619 18.3779H54.407L59.6734 13.1115L63.4753 16.9134C63.4753 16.9134 63.4753 16.9416 63.4753 16.9604C63.4753 18.2089 64.4891 19.2227 65.7376 19.2227C66.9862 19.2227 68 18.2089 68 16.9604C68 15.7118 66.9862 14.698 65.7376 14.698L65.7283 14.6886ZM53.7311 9.61C54.0597 9.61 54.3225 9.8729 54.3225 10.2014C54.3225 10.53 54.0597 10.7928 53.7311 10.7928C53.4026 10.7928 53.1397 10.53 53.1397 10.2014C53.1397 9.8729 53.4026 9.61 53.7311 9.61ZM65.7283 2.8511C66.0568 2.8511 66.3197 3.1139 66.3197 3.4425C66.3197 3.7711 66.0568 4.03391 65.7283 4.03391C65.4372 4.03391 65.2026 3.81801 65.1556 3.53641V3.35801C65.2026 3.07641 65.4372 2.8605 65.7283 2.8605V2.8511ZM65.7283 17.6457C65.4372 17.6457 65.2026 17.4297 65.1556 17.1481V16.9698C65.2026 16.6881 65.4372 16.4722 65.7283 16.4722C66.0568 16.4722 66.3197 16.7351 66.3197 17.0636C66.3197 17.3922 66.0568 17.655 65.7283 17.655V17.6457Z" fill="white"/>
<path d="M4.20303 1.8186L0.861135 5.1605V6.869C0.344835 7.282 0.00683594 7.911 0.00683594 8.6244C0.00683594 9.3379 0.344835 9.9668 0.861135 10.3799V15.1299L4.09974 18.3686H9.07513L12.417 15.0267V5.1605L9.07513 1.8186H4.20303ZM2.26924 8.1457C2.59784 8.1457 2.86064 8.4085 2.86064 8.7371C2.86064 9.0657 2.59784 9.3285 2.26924 9.3285C1.94064 9.3285 1.67784 9.0657 1.67784 8.7371C1.67784 8.4085 1.94064 8.1457 2.26924 8.1457ZM10.0514 14.1536L8.49303 15.7119H5.01033L3.45204 14.1536V10.5583C4.09974 10.164 4.53164 9.4505 4.53164 8.6338C4.53164 7.8171 4.09974 7.1131 3.45204 6.7094V6.0805L5.01033 4.5221H8.49303L10.0514 6.0805V14.1536Z" fill="white"/>
</svg>
