<svg width="125" height="50" viewBox="0 0 125 50" fill="none" xmlns="http://www.w3.org/2000/svg">
<g clip-path="url(#clip0_48_2836)">
<path d="M96.5839 18.7121C96.5839 19.6548 96.5839 23.1853 96.5839 23.4441C97.0645 21.8914 98.8575 18.6012 98.9499 18.4164H96.8982C96.7318 18.3979 96.5839 18.5458 96.5839 18.7121Z" fill="#DA7F3A"/>
<path d="M73.4232 20.5053C72.1293 19.1374 70.5766 18.472 68.7652 18.472C66.9167 18.472 65.3641 19.1559 64.0702 20.5053C62.7763 21.8731 62.1478 23.4997 62.1478 25.4221C62.1478 27.3444 62.7947 28.9526 64.0702 30.2834C65.3456 31.6513 66.8983 32.3167 68.7652 32.3167C70.1515 32.3167 71.4084 31.9101 72.5175 31.0968C73.6265 30.2834 74.4214 29.2298 74.9019 27.9359L75.0498 27.5293C75.1053 27.3814 74.9944 27.2335 74.8465 27.2335H72.8317C72.7393 27.2335 72.6653 27.289 72.6284 27.3629L72.5544 27.5293C72.1848 28.3056 71.6487 28.9156 70.9833 29.3407C70.3178 29.7844 69.5785 30.0062 68.7652 30.0062C67.5637 30.0062 66.5655 29.5626 65.7337 28.6568C65.0498 27.9175 64.6247 27.0672 64.4953 26.0875C64.4768 25.9581 64.5877 25.8472 64.7171 25.8472H75.1422C75.2531 25.8472 75.3641 25.7548 75.3641 25.6254V25.3297C75.3641 23.4812 74.7171 21.8546 73.4232 20.5053ZM72.4066 23.5921H65.1053C64.9389 23.5921 64.8465 23.4258 64.9204 23.2779C65.2162 22.6864 65.6228 22.1688 66.1219 21.7252C66.8983 21.0783 67.767 20.764 68.7467 20.764C69.7263 20.764 70.6136 21.0783 71.3899 21.7252C71.9075 22.1688 72.2957 22.6864 72.5914 23.2779C72.6653 23.4258 72.5544 23.5921 72.4066 23.5921ZM60.4472 26.716C60.2069 26.2539 59.8188 25.8287 59.2827 25.4406C59.1533 25.3481 59.0239 25.2557 58.8761 25.1818C58.7282 25.0894 58.5803 25.0154 58.3955 24.9415C58.0628 24.7936 57.7855 24.6827 57.5822 24.6088L56.5101 24.2576C55.3825 23.9433 54.5508 23.5736 54.0332 23.1485C53.4602 22.6864 53.3308 22.1504 53.6635 21.5219C53.8114 21.2446 54.0886 21.0228 54.4583 20.8565C54.8835 20.6901 55.3271 20.5977 55.8077 20.5977C56.4361 20.5977 57.0092 20.7825 57.4898 21.1337C57.9149 21.4664 58.1182 21.8731 58.1182 22.3907V22.7419C58.1182 22.8528 58.2106 22.9267 58.3031 22.9267H60.3178C60.4288 22.9267 60.5027 22.8343 60.5027 22.7419V22.3907C60.5027 21.2446 60.0406 20.3019 59.1164 19.5256C58.2476 18.7677 57.157 18.3981 55.8077 18.3981C54.828 18.3981 53.9408 18.6199 53.1459 19.0635C52.3142 19.5256 51.7411 20.1356 51.4084 20.9119C51.0387 21.7992 51.0387 22.6679 51.4084 23.4812C51.8336 24.4424 52.6654 25.2003 53.9223 25.7918L54.6801 26.0875C54.9574 26.1799 55.2716 26.2724 55.6044 26.3833C56.2513 26.5681 56.6949 26.716 56.9167 26.8084C57.9334 27.252 58.4509 27.7881 58.4509 28.398C58.4509 28.8602 58.2106 29.2483 57.7116 29.581C57.157 29.9507 56.5101 30.1356 55.7892 30.1356C55.1053 30.1356 54.4768 29.9507 53.9223 29.5626C53.4047 29.1929 53.1644 28.7677 53.1644 28.2871V27.9729C53.1644 27.862 53.072 27.7881 52.9796 27.7881H51.0203C50.9093 27.7881 50.8354 27.8805 50.8354 27.9729V28.2871C50.8354 28.8971 50.9833 29.4516 51.2606 29.9507C51.5193 30.4498 51.9075 30.8749 52.4435 31.2446C53.4417 31.947 54.5877 32.3167 55.8447 32.3167C57.1201 32.3167 58.2661 31.9655 59.2642 31.2446C59.8003 30.8565 60.1885 30.4313 60.4472 29.9507C60.7245 29.4332 60.8724 28.8786 60.8724 28.2871C60.8539 27.7326 60.7245 27.1966 60.4472 26.716ZM49.4861 24.387C49.5045 23.2964 49.3197 21.5773 47.6561 19.9877C46.5655 18.9341 45.1053 18.3981 43.3123 18.3981C41.5193 18.3981 40.0591 18.9341 38.9685 19.9692C37.3419 21.5404 37.1201 23.2964 37.1386 24.3685C37.1386 24.4424 37.1386 30.9119 37.1201 32.1319C37.1201 32.2428 37.2125 32.3352 37.3234 32.3352H39.5045C39.6155 32.3352 39.7079 32.2428 39.7079 32.1319C39.7079 30.8934 39.6894 26.2539 39.7079 24.7197C39.7079 23.5367 40.096 22.4461 40.743 21.7992C40.743 21.7992 41.7781 20.6716 43.3123 20.7086C44.4583 20.7456 45.2162 21.1522 45.9001 21.8176C46.4731 22.3537 46.9167 23.6106 46.9352 24.7751C46.9352 25.9396 46.9352 32.0949 46.9352 32.0949C46.9352 32.2058 47.0277 32.2982 47.1386 32.2982L49.3197 32.3167C49.4306 32.3167 49.523 32.2243 49.523 32.1134L49.4861 24.387ZM35.0129 21.7622C34.4029 20.7271 33.5896 19.8953 32.536 19.3038C31.5009 18.7123 30.2994 18.4165 28.95 18.4165C27.5822 18.4165 26.3807 18.7123 25.3456 19.3038C24.3105 19.8953 23.4972 20.7271 22.8872 21.7622C22.2957 22.8158 21.9999 24.0173 21.9999 25.4036C21.9999 26.7529 22.2957 27.9544 22.8872 29.008C23.4787 30.0616 24.3105 30.8749 25.3456 31.4664C26.3807 32.0579 27.5822 32.3537 28.95 32.3537C30.3179 32.3537 31.5193 32.0579 32.5545 31.4664C33.5896 30.8749 34.4214 30.0616 34.9944 29.008C35.5859 27.9544 35.8816 26.7714 35.8816 25.4036C35.9001 24.0173 35.6044 22.8158 35.0129 21.7622ZM32.8687 27.825C32.499 28.5274 31.963 29.082 31.2975 29.4886C30.6321 29.8953 29.8558 30.0986 28.9685 30.0986C28.0998 30.0986 27.3234 29.8953 26.6395 29.4886C25.9741 29.082 25.438 28.5274 25.0498 27.825C24.6617 27.1226 24.4768 26.3093 24.4768 25.3851C24.4768 24.4609 24.6617 23.6476 25.0498 22.9452C25.438 22.2428 25.9741 21.6698 26.6395 21.2816C27.3049 20.8749 28.0813 20.6716 28.9685 20.6716C29.8373 20.6716 30.6136 20.8749 31.2975 21.2816C31.963 21.6883 32.499 22.2428 32.8687 22.9452C33.2384 23.6476 33.4417 24.4794 33.4417 25.3851C33.4232 26.3093 33.2384 27.1226 32.8687 27.825ZM98.8206 32.2428H96.8613C96.7134 32.2428 96.6025 32.1319 96.621 31.984C96.8243 28.472 97.4528 23.2964 99.1163 19.7474C99.1348 19.7289 99.1718 19.7289 99.1718 19.7659V31.8916C99.1533 32.0949 99.0054 32.2428 98.8206 32.2428ZM95.2901 23.6291V31.947C95.2901 32.1319 95.1422 32.2982 94.9389 32.2982H93.1644C92.9796 32.2982 92.8132 32.1504 92.8132 31.947V23.6291C92.8132 22.8528 92.5359 22.1873 91.9814 21.6328C91.4454 21.0968 90.7799 20.8195 90.0036 20.8195C89.2273 20.8195 88.5618 21.0968 88.0258 21.6513C87.4713 22.1873 87.194 22.8528 87.194 23.6291V31.947C87.194 32.1319 87.0461 32.2982 86.8428 32.2982H85.1053C84.9204 32.2982 84.7541 32.1504 84.7541 31.947V23.6291C84.7541 22.8897 84.4768 22.2058 83.9223 21.6328C83.3493 21.0968 82.6838 20.8195 81.9075 20.8195C81.1311 20.8195 80.4657 21.0968 79.9297 21.6328C79.3751 22.2243 79.0979 22.8897 79.0979 23.6291V31.947C79.0979 32.1319 78.95 32.2982 78.7467 32.2982H76.9907C76.8058 32.2982 76.6395 32.1504 76.6395 31.947V23.6291C76.6395 22.1873 77.157 20.9489 78.1921 19.9138C79.2273 18.8786 80.4472 18.3796 81.9075 18.3796C82.8317 18.3796 83.7189 18.6383 84.5322 19.1559C84.9574 19.4332 85.364 19.7659 85.7152 20.1356C85.8446 20.2834 86.0849 20.2834 86.2143 20.1356C86.3437 19.9877 86.4916 19.8583 86.621 19.7289C86.8428 19.5256 87.1016 19.3223 87.3788 19.1374C88.1921 18.6199 89.0794 18.3611 90.0036 18.3611C91.4823 18.3611 92.7208 18.8786 93.7559 19.8953C94.7725 20.9674 95.2901 22.2058 95.2901 23.6291ZM100.188 32.2982V31.3925H99.8742V31.1892H100.743V31.3925H100.429V32.2982H100.188ZM100.891 32.2982V31.1707H101.242L101.445 31.8546L101.649 31.1707H102V32.2982H101.778V31.411L101.556 32.1504H101.334L101.094 31.3925V32.2982H100.891Z" fill="white"/>
</g>
<defs>
<clipPath id="clip0_48_2836">
<rect width="80" height="13.9741" fill="white" transform="translate(22.0001 18.3799)"/>
</clipPath>
</defs>
</svg>
