<svg width="65" height="25" viewBox="0 0 65 25" fill="none" xmlns="http://www.w3.org/2000/svg">
<path d="M17.344 20.269C18.1602 19.2767 19.0644 18.3885 19.7206 17.3443C21.7011 14.1975 22.1532 10.8387 20.5648 7.40182C18.8164 3.61889 14.6494 1.87246 10.4143 3.01474C4.12677 4.71316 0.495876 12.157 3.21254 17.7804C4.93897 21.3532 8.79191 23.1737 12.7849 22.3315C13.397 22.2034 14.0332 22.1374 14.6574 22.1354C20.1427 22.1214 25.628 22.1394 31.1134 22.1134C31.9336 22.1094 32.7838 22.0234 33.564 21.7893C35.9346 21.0752 37.2229 19.1807 37.2129 16.5981C37.2049 14.2175 36.0846 12.7791 33.608 11.9789C32.5057 11.6229 31.3695 11.3468 30.3012 10.9027C28.6968 10.2365 28.0786 9.22426 28.1707 7.67988C28.2607 6.14151 29.2289 5.3053 30.5733 4.83919C31.1594 4.63514 31.7996 4.4811 32.4157 4.4771C38.0671 4.44909 43.7185 4.45909 49.3719 4.46109C49.4979 4.46109 49.6219 4.4891 49.836 4.51311C49.692 4.82718 49.5879 5.09525 49.4519 5.34731C46.3251 11.1147 43.1123 16.8401 40.1156 22.6736C39.2914 24.278 38.2852 24.7421 36.7008 24.472C36.4307 24.426 36.1966 24.1639 35.7185 23.8559C33.3159 25.0862 30.4252 24.616 27.5945 24.648C23.5075 24.6941 19.4185 24.6601 15.2895 24.6601V23.9119C14.9914 23.9939 14.7094 24.0619 14.4353 24.1519C11.2905 25.1862 8.22177 25.0962 5.30306 23.4398C1.48612 21.2692 -0.518373 16.8801 0.115782 12.211C0.917979 6.29555 5.50511 1.47636 11.3465 0.410101C15.9457 -0.428105 20.3828 1.73243 22.5373 5.85744C22.6573 6.08749 22.7813 6.31755 22.9514 6.63363C23.0734 6.47759 23.1774 6.39957 23.2075 6.29955C24.3057 2.56063 28.6868 0.182045 31.8676 0.24406C34.8263 0.302074 37.785 0.260064 40.7438 0.264065C40.8358 0.264065 40.9298 0.302074 41.0878 0.338083C40.9758 0.688169 40.8698 1.02025 40.7638 1.35233C43.0583 -0.0480117 45.643 0.0120029 48.6377 0.0120029C53.5569 0.0120029 58.4781 0 63.3993 0C63.7574 0 64.1135 0 64.6816 0C64.1535 0.97824 63.7714 1.82045 63.2533 2.56863C63.0892 2.80469 62.5631 2.87271 62.201 2.87471C56.9157 2.89271 51.6284 2.88671 46.3431 2.88871C41.788 2.88871 37.2329 2.88671 32.6798 2.88871C31.2694 2.88871 29.9011 3.05875 28.6608 3.82294C25.392 5.83543 25.336 10.2345 28.6388 12.171C29.701 12.7931 30.9574 13.1252 32.1596 13.4673C34.1481 14.0314 35.1604 15.1377 35.1404 16.9041C35.1204 18.6986 33.8541 20.187 31.8576 20.233C27.0184 20.345 22.1752 20.269 17.346 20.269H17.344ZM40.2956 16.23C41.904 13.2232 43.4704 10.3005 45.0348 7.37781C44.8468 7.27179 44.7928 7.21377 44.7387 7.21377C40.4897 7.20177 36.2406 7.17976 31.9936 7.21777C31.6675 7.21977 31.1014 7.62787 31.0814 7.88193C31.0514 8.25003 31.3294 8.75815 31.6375 9.00621C31.9736 9.27628 32.4917 9.32429 32.9338 9.45432C36.3607 10.4706 39.3054 12.0089 40.0456 15.9519C40.0556 16.0059 40.1296 16.0479 40.2956 16.228V16.23ZM24.0217 11.3888C23.4855 13.4553 22.9614 15.4718 22.4093 17.6023C23.1174 17.6023 23.8676 17.6043 24.6198 17.6023C26.7763 17.5923 28.9349 17.6283 31.0874 17.5323C31.5355 17.5123 31.9616 17.0042 32.3977 16.7201C32.0336 16.396 31.7215 15.9039 31.2974 15.7739C28.4847 14.9117 25.9921 13.5533 24.0217 11.3888Z" fill="white"/>
<path d="M4.06694 13.4371C4.05894 8.818 7.84387 4.63898 12.2129 4.44093C16.596 4.24088 19.7768 7.29163 19.7588 11.6767C19.7408 15.8957 16.464 19.8367 12.415 20.5049C7.74785 21.2751 4.07294 18.1643 4.06494 13.4391L4.06694 13.4371ZM17.2542 12.0008C17.2542 9.17409 15.2357 7.04157 12.529 7.01156C9.34224 6.97555 6.53355 9.89427 6.54555 13.2291C6.55355 16.0278 8.63806 18.1923 11.3147 18.1823C14.4535 18.1703 17.2522 15.2596 17.2542 12.0028V12.0008Z" fill="white"/>
<path d="M40.9419 24.4839C41.5821 23.2696 42.1082 22.2494 42.6524 21.2391C45.5291 15.9098 48.4218 10.5905 51.2705 5.24718C51.6026 4.62703 51.9687 4.41898 52.6508 4.42698C55.8036 4.46099 58.9564 4.44098 62.2892 4.44098C61.8251 5.3292 61.457 6.1294 60.9889 6.86758C60.8608 7.06963 60.4367 7.16565 60.1467 7.16965C58.2542 7.19566 56.3597 7.21766 54.4693 7.16565C53.7651 7.14565 53.415 7.40771 53.0889 7.99786C50.2942 13.0711 47.4395 18.1103 44.6829 23.2036C44.1507 24.1878 43.5746 24.6719 42.4583 24.4959C42.0402 24.4299 41.6041 24.4859 40.9399 24.4859L40.9419 24.4839Z" fill="white"/>
</svg>
