<svg width="100" height="30" viewBox="0 0 100 30" fill="none" xmlns="http://www.w3.org/2000/svg">
<path d="M10.9404 10.2222C11.1448 10.4208 11.3642 10.6018 11.5969 10.7677V10.2222H10.9404Z" fill="white"/>
<path d="M11.5969 1.72021C11.5551 1.74971 11.5145 1.78072 11.4746 1.81172H11.5969V1.72021Z" fill="white"/>
<path d="M11.5971 3.80789V2.23779H10.9714C10.6038 2.58909 10.2873 2.98949 10.0273 3.42959V3.80789H11.5971Z" fill="white"/>
<path d="M9.60111 4.32544C9.42841 4.79284 9.31561 5.28804 9.27441 5.80434H9.60111V4.32544Z" fill="white"/>
<path d="M11.5967 6.22998H10.0269V7.80018H11.5967V6.22998Z" fill="white"/>
<path d="M9.60113 6.22998H9.25293C9.25293 6.23488 9.25293 6.23888 9.25293 6.24418C9.25293 6.78468 9.33403 7.30568 9.47883 7.80018H9.60113V6.22998Z" fill="white"/>
<path d="M13.5938 0.829346C13.0332 0.954446 12.5057 1.16585 12.0229 1.44705V1.81215H13.5938V0.829346Z" fill="white"/>
<path d="M11.5971 9.79627V8.22607H10.0273V9.05837C10.1813 9.31807 10.3509 9.56607 10.5433 9.79627H11.5971Z" fill="white"/>
<path d="M15.5898 4.23389H14.02V5.80409H15.5898V4.23389Z" fill="white"/>
<path d="M15.5898 8.22607H14.02V9.79627H15.5898V8.22607Z" fill="white"/>
<path d="M13.5936 2.23779H12.0229V3.80789H13.5936V2.23779Z" fill="white"/>
<path d="M15.5898 2.23779H14.02V3.80789H15.5898V2.23779Z" fill="white"/>
<path d="M15.5898 6.22998H14.02V7.80018H15.5898V6.22998Z" fill="white"/>
<path d="M13.5936 4.23389H12.0229V5.80409H13.5936V4.23389Z" fill="white"/>
<path d="M13.5936 6.22998H12.0229V7.80018H13.5936V6.22998Z" fill="white"/>
<path d="M13.5936 8.22607H12.0229V9.79627H13.5936V8.22607Z" fill="white"/>
<path d="M11.5967 4.23389H10.0269V5.80409H11.5967V4.23389Z" fill="white"/>
<path d="M17.5856 2.23779H16.0151V3.80789H17.5856V2.23779Z" fill="white"/>
<path d="M17.5856 1.4468C17.1021 1.1656 16.5754 0.954202 16.0151 0.829102V1.8116H17.5856V1.4468Z" fill="white"/>
<path d="M12.0229 10.2222V11.0413C12.5057 11.3225 13.033 11.5339 13.5936 11.659V10.2222H12.0229Z" fill="white"/>
<path d="M18.0112 10.2222V10.7677C18.2436 10.6018 18.4636 10.4208 18.668 10.2222H18.0112Z" fill="white"/>
<path d="M18.0112 8.22607V9.79627H19.0657C19.2581 9.56607 19.428 9.31707 19.582 9.05777V8.22607H18.0112Z" fill="white"/>
<path d="M14.02 1.81174H15.5898V0.754539C15.3326 0.717339 15.0714 0.692139 14.8043 0.692139C14.5369 0.692139 14.2769 0.717339 14.02 0.754539V1.81174Z" fill="white"/>
<path d="M20.3554 6.22998H20.0078V7.80018H20.1295C20.2743 7.30568 20.356 6.78438 20.356 6.24418C20.356 6.23888 20.3554 6.23458 20.3554 6.22998Z" fill="white"/>
<path d="M17.5856 8.22607H16.0151V9.79627H17.5856V8.22607Z" fill="white"/>
<path d="M17.5856 4.23389H16.0151V5.80409H17.5856V4.23389Z" fill="white"/>
<path d="M17.5856 6.22998H16.0151V7.80018H17.5856V6.22998Z" fill="white"/>
<path d="M20.3334 5.80406C20.2922 5.28836 20.1794 4.79356 20.0073 4.32666V5.80406H20.3334Z" fill="white"/>
<path d="M14.02 10.2222V11.7337C14.2554 11.7678 14.4945 11.7905 14.7388 11.7924H14.8695C15.1138 11.7902 15.3538 11.7678 15.5895 11.7337V10.2222H14.02Z" fill="white"/>
<path d="M19.5817 4.23389H18.0112V5.80409H19.5817V4.23389Z" fill="white"/>
<path d="M16.0151 10.2222V11.659C16.5757 11.5339 17.1025 11.3225 17.5856 11.0413V10.2222H16.0151Z" fill="white"/>
<path d="M19.5817 6.22998H18.0112V7.80018H19.5817V6.22998Z" fill="white"/>
<path d="M18.0112 1.81172H18.1338C18.0933 1.78072 18.0527 1.74971 18.0112 1.72021V1.81172Z" fill="white"/>
<path d="M19.582 3.43025C19.3217 2.99015 19.0045 2.58885 18.6375 2.23755H18.0112V3.80765H19.5817L19.582 3.43025Z" fill="white"/>
<path d="M6.03399 9.79627H7.21449C6.97879 9.29837 6.79379 8.77227 6.65979 8.22607H6.03369L6.03399 9.79627Z" fill="white"/>
<path d="M7.60488 16.2107H6.03418V17.7814H7.60488V16.2107Z" fill="white"/>
<path d="M7.60488 12.2185H6.03418V13.7886H7.60488V12.2185Z" fill="white"/>
<path d="M7.60479 10.5293C7.54459 10.4294 7.49079 10.3252 7.43479 10.2222H6.03369V11.7924H7.60449L7.60479 10.5293Z" fill="white"/>
<path d="M6.03418 7.80018H6.56858C6.47268 7.29488 6.41368 6.77708 6.41368 6.24418C6.41368 6.23888 6.41398 6.23488 6.41398 6.22998H6.03418V7.80018Z" fill="white"/>
<path d="M6.79309 3.80807C6.91879 3.40387 7.06209 3.00747 7.24279 2.63037C6.82479 2.88847 6.42219 3.16817 6.03369 3.46597V3.80807H6.79309Z" fill="white"/>
<path d="M6.03418 5.80409H6.43918C6.46778 5.26619 6.54188 4.74009 6.66848 4.23389H6.03418V5.80409Z" fill="white"/>
<path d="M7.60488 14.2146H6.03418V15.7847H7.60488V14.2146Z" fill="white"/>
<path d="M8.84856 16.2107H8.03076V17.7814H8.84856V16.2107Z" fill="white"/>
<path d="M0.651199 12.2185C0.637899 12.2898 0.620398 12.3598 0.608398 12.4308H1.6162V12.2185H0.651199Z" fill="white"/>
<path d="M8.84856 14.2146H8.03076V15.7847H8.84856V14.2146Z" fill="white"/>
<path d="M8.81626 12.2185H8.03076V13.7889H8.84856V12.4311" fill="white"/>
<path d="M8.52956 11.7925C8.35406 11.5952 8.18746 11.3896 8.03076 11.1763V11.7925H8.52956Z" fill="white"/>
<path d="M5.60849 12.2185H4.03809V13.7886H5.60849V12.2185Z" fill="white"/>
<path d="M3.61208 10.2222H2.04248V11.7924H3.61208V10.2222Z" fill="white"/>
<path d="M1.61672 11.7924V10.2222H1.17472C1.00022 10.7336 0.854516 11.2579 0.736816 11.7924H1.61672Z" fill="white"/>
<path d="M3.61208 8.22607H2.04248V9.79627H3.61208V8.22607Z" fill="white"/>
<path d="M3.61223 6.22998H3.29693C2.92133 6.72878 2.57903 7.25468 2.26953 7.80018H3.61253L3.61223 6.22998Z" fill="white"/>
<path d="M1.61652 9.10205C1.51662 9.33075 1.42132 9.56215 1.33252 9.79665H1.61652V9.10205Z" fill="white"/>
<path d="M3.61208 12.2185H2.04248V12.4308H3.61208V12.2185Z" fill="white"/>
<path d="M5.60849 16.2107H4.03809V17.7814H5.60849V16.2107Z" fill="white"/>
<path d="M5.60849 14.2146H4.03809V15.7847H5.60849V14.2146Z" fill="white"/>
<path d="M5.60849 6.22998H4.03809V7.80018H5.60849V6.22998Z" fill="white"/>
<path d="M5.60849 5.80409V4.23389H5.12169C4.74119 4.57939 4.37949 4.94509 4.03809 5.32989V5.80409H5.60849Z" fill="white"/>
<path d="M5.60849 10.2222H4.03809V11.7924H5.60849V10.2222Z" fill="white"/>
<path d="M5.60849 8.22607H4.03809V9.79627H5.60849V8.22607Z" fill="white"/>
<path d="M25.5702 18.2073H24.4819L24.8575 19.7771H25.5702V18.2073Z" fill="white"/>
<path d="M25.5702 12.2185H24V13.7886H25.5702V12.2185Z" fill="white"/>
<path d="M24 5.80409H25.5702V5.32919C25.2291 4.94509 24.8673 4.57939 24.4869 4.23389H24V5.80409Z" fill="white"/>
<path d="M25.5702 8.22607H24V9.79627H25.5702V8.22607Z" fill="white"/>
<path d="M25.5702 10.2222H24V11.7924H25.5702V10.2222Z" fill="white"/>
<path d="M25.5702 6.22998H24V7.80018H25.5702V6.22998Z" fill="white"/>
<path d="M24.9595 20.2031L25.194 21.1801C25.2478 21.3955 25.2893 21.595 25.3212 21.7736H25.5422C25.5499 21.7158 25.5603 21.6522 25.5702 21.5907V20.2031H24.9595Z" fill="white"/>
<path d="M25.4931 22.1992H25.3867C25.4218 22.4795 25.4279 22.6476 25.4279 22.6476H25.4679C25.4679 22.6476 25.4682 22.4795 25.4931 22.1992Z" fill="white"/>
<path d="M25.9961 15.785H26.8262L27.171 14.2146H25.9961V15.785Z" fill="white"/>
<path d="M27.9922 12.431H28.9999C28.9879 12.36 28.9704 12.29 28.9572 12.2188H27.9922V12.431Z" fill="white"/>
<path d="M27.5662 10.2222H25.9961V11.7924H27.5662V10.2222Z" fill="white"/>
<path d="M27.5662 8.22607H25.9961V9.79627H27.5662V8.22607Z" fill="white"/>
<path d="M25.9961 17.7817H26.3891L26.7333 16.2107H25.9961V17.7817Z" fill="white"/>
<path d="M25.9961 7.80018H27.3397C27.0299 7.25468 26.6879 6.72878 26.3123 6.22998H25.9964L25.9961 7.80018Z" fill="white"/>
<path d="M23.4244 13.7889H23.5741V12.2185H22.0039V12.4311H23.0993L23.4244 13.7889Z" fill="white"/>
<path d="M25.5703 17.7817V16.2107H24.0044L24.3806 17.7817H25.5703Z" fill="white"/>
<path d="M23.5264 14.2146L23.5741 14.414V14.2146H23.5264Z" fill="white"/>
<path d="M20.6622 12.2185C20.5918 12.2885 20.5261 12.3641 20.4517 12.4308H21.5778V12.2185H20.6622Z" fill="white"/>
<path d="M25.9961 18.2073V19.5734L26.2954 18.2073H25.9961Z" fill="white"/>
<path d="M27.9922 9.7963H28.2761C28.1873 9.5618 28.093 9.33039 27.9922 9.10229V9.7963Z" fill="white"/>
<path d="M25.9961 12.2185V13.7889H27.2641L27.5619 12.4311H27.5662V12.2185H25.9961Z" fill="white"/>
<path d="M27.9922 10.2222V11.7924H28.8721C28.7546 11.2579 28.609 10.7336 28.4335 10.2222H27.9922Z" fill="white"/>
<path d="M23.574 3.46597C23.1858 3.16817 22.7838 2.88847 22.3652 2.63037C22.5456 3.00747 22.6892 3.40387 22.8148 3.80807H23.5736L23.574 3.46597Z" fill="white"/>
<path d="M23.5743 4.23389H22.9399C23.0665 4.74009 23.1406 5.26619 23.1695 5.80409H23.5743V4.23389Z" fill="white"/>
<path d="M23.5739 6.22998H23.194C23.194 6.23488 23.1946 6.23888 23.1946 6.24418C23.1946 6.77708 23.1359 7.29518 23.04 7.80018H23.5736L23.5739 6.22998Z" fill="white"/>
<path d="M23.5739 8.22607H22.9478C22.8142 8.77227 22.6288 9.29837 22.3931 9.79627H23.5736L23.5739 8.22607Z" fill="white"/>
<path d="M23.5741 11.7924V10.2222H22.1733C22.1173 10.3252 22.0636 10.4288 22.0039 10.5287V11.7924H23.5741Z" fill="white"/>
<path d="M25.5702 14.2146H24V15.7847H25.5702V14.2146Z" fill="white"/>
<path d="M21.5779 11.1765C21.4211 11.3898 21.2539 11.5954 21.0791 11.7927H21.5779V11.1765Z" fill="white"/>
<path d="M18.0112 17.7817H19.0223L19.4093 16.2107H18.0112V17.7817Z" fill="white"/>
<path d="M17.586 19.7771V18.2073H17.1382L17.4544 19.7771H17.586Z" fill="white"/>
<path d="M17.5856 16.2107H16.7358L17.0527 17.7817H17.5856V16.2107Z" fill="white"/>
<path d="M20.0078 12.8081V13.7793L20.3072 12.5632C20.2097 12.648 20.1083 12.7276 20.0078 12.8081Z" fill="white"/>
<path d="M19.5818 13.1248C19.2256 13.374 18.8516 13.5968 18.4585 13.7886H19.5818V13.1248Z" fill="white"/>
<path d="M18.0112 19.7771H18.5318L18.9178 18.2073H18.0112V19.7771Z" fill="white"/>
<path d="M18.427 20.2031H18.0112V21.7733H18.0592C18.0911 21.5947 18.1326 21.3955 18.1864 21.1798L18.427 20.2031Z" fill="white"/>
<path d="M18.0112 14.2146V15.785H19.5138L19.5817 15.5106V14.2146H18.0112Z" fill="white"/>
<path d="M17.5405 20.2031L17.586 20.4281V20.2031H17.5405Z" fill="white"/>
<path d="M16.6507 15.7849H17.5859V14.2148H17.4064C17.0757 14.3239 16.7361 14.4139 16.3882 14.4806L16.6507 15.7849Z" fill="white"/>
<path d="M5.60849 22.1992H4.03809V23.7694H5.60849V22.1992Z" fill="white"/>
<path d="M5.60849 24.1953H4.03809V24.4652C4.44679 24.9246 4.88169 25.3613 5.34549 25.7652H5.60849V24.1953Z" fill="white"/>
<path d="M13.294 16.2107H12.2734V17.7817H13.5937V17.4424L13.294 16.2107Z" fill="white"/>
<path d="M7.60488 22.1992H6.03418V23.7694H7.60488V22.1992Z" fill="white"/>
<path d="M7.60488 24.1953H6.03418V25.7652H7.60488V24.1953Z" fill="white"/>
<path d="M6.03418 26.1914V26.3282C6.53298 26.7117 7.05848 27.0599 7.60488 27.3759V26.1914H6.03418Z" fill="white"/>
<path d="M7.60488 20.9451H6.03418V21.7733H7.60488V20.9451Z" fill="white"/>
<path d="M13.5938 28.1875H12.0229V29.0345C12.5374 29.1344 13.0612 29.2079 13.5938 29.2521V28.1875Z" fill="white"/>
<path d="M11.5972 28.1875H10.0273V28.4958C10.5384 28.6756 11.0624 28.8274 11.5972 28.9491V28.1875Z" fill="white"/>
<path d="M9.60116 27.7614V26.4248H8.84856V26.1912H8.03076V27.616C8.12536 27.6655 8.22096 27.7131 8.31656 27.7614H9.60116Z" fill="white"/>
<path d="M5.60849 20.9451H4.03809V21.7733H5.60849V20.9451Z" fill="white"/>
<path d="M13.5934 18.2073H12.2734V19.7768H13.5934V18.2073Z" fill="white"/>
<path d="M8.84856 20.9451H8.03076V21.7733H8.84856V20.9451Z" fill="white"/>
<path d="M13.5934 24.1953H12.2734V25.7652H13.5934V24.1953Z" fill="white"/>
<path d="M12.8526 14.3959C12.6571 14.3498 12.4626 14.3034 12.2739 14.2434V15.785H13.1904L12.8526 14.3959Z" fill="white"/>
<path d="M13.5934 22.1992H12.2734V23.7694H13.5934V22.1992Z" fill="white"/>
<path d="M13.5934 20.2031H12.2734V21.7732H13.5934V20.2031Z" fill="white"/>
<path d="M8.84856 22.1992H8.03076V23.7694H8.84856V22.1992Z" fill="white"/>
<path d="M13.594 27.7613V26.1914H12.2737V26.425H12.0229V27.7613H13.594Z" fill="white"/>
<path d="M8.84856 24.1953H8.03076V25.7652H8.84856V24.1953Z" fill="white"/>
<path d="M11.5968 26.425H10.0269V27.7617H11.5968V26.425Z" fill="white"/>
<path d="M9.60114 28.1875H9.23193C9.35373 28.2386 9.47813 28.2859 9.60143 28.3344L9.60114 28.1875Z" fill="white"/>
<path d="M14.02 23.7694H15.1338L14.7512 22.1992H14.02V23.7694Z" fill="white"/>
<path d="M15.5899 26.1914H14.02V27.7613H15.5899V26.1914Z" fill="white"/>
<path d="M14.02 25.7652H15.5899V25.6431L15.2374 24.1953H14.02V25.7652Z" fill="white"/>
<path d="M14.1614 19.7772L14.02 19.1924V19.7772H14.1614Z" fill="white"/>
<path d="M19.5821 28.1875H18.0117V28.9371C18.5455 28.8148 19.0726 28.6743 19.5821 28.4952V28.1875Z" fill="white"/>
<path d="M17.586 28.1875H16.0156V29.2561C16.5488 29.2122 17.0706 29.1304 17.586 29.029V28.1875Z" fill="white"/>
<path d="M20.0078 28.1875V28.3252C20.123 28.2803 20.238 28.2349 20.352 28.1875H20.0078Z" fill="white"/>
<path d="M15.5899 28.1875H14.02V29.2862C14.2797 29.3001 14.5413 29.3078 14.8043 29.3078C15.0686 29.3078 15.3283 29.2887 15.5899 29.2743V28.1875Z" fill="white"/>
<path d="M23.574 26.1914H22.0039V27.3691C22.55 27.0523 23.0761 26.7047 23.574 26.3214V26.1914Z" fill="white"/>
<path d="M20.0078 26.1914V27.7613H21.2724C21.3739 27.7102 21.4774 27.662 21.5779 27.6088V26.1914H20.0078Z" fill="white"/>
<path d="M22.0878 19.7772L22.0039 19.4392V19.7772H22.0878Z" fill="white"/>
<path d="M23.574 25.7387L23.1892 24.1953H22.0039V25.7652H23.574V25.7387Z" fill="white"/>
<path d="M14.02 21.7732H14.6479L14.2653 20.2031H14.02V21.7732Z" fill="white"/>
<path d="M22.0039 23.7694H23.0829L22.692 22.1992H22.0039V23.7694Z" fill="white"/>
<path d="M21.5782 22.1992H20.6885L20.2969 23.7694H21.5782V22.1992Z" fill="white"/>
<path d="M22.0039 20.2031V21.7732H22.585L22.1941 20.2031H22.0039Z" fill="white"/>
<path d="M21.5779 24.1953H20.1909L20.0078 24.9301V25.7652H21.5779V24.1953Z" fill="white"/>
<path d="M17.586 26.425H16.0156V27.7617H17.586V26.425Z" fill="white"/>
<path d="M21.5781 20.2031H21.1863L20.7954 21.7732H21.5781V20.2031Z" fill="white"/>
<path d="M19.5821 26.425H18.0117V27.7617H19.5821V26.425Z" fill="white"/>
<path d="M21.5782 18.4424C21.5371 18.7052 21.4774 19.0217 21.3972 19.3592L21.293 19.7768H21.5782V18.4424Z" fill="white"/>
<path d="M36.3129 21.6428C36.0112 21.6428 35.7347 21.5715 35.4832 21.429C35.2402 21.2782 35.0432 21.0812 34.8924 20.8382C34.7499 20.5868 34.6787 20.3102 34.6787 20.0085V14.2256C34.6787 13.9239 34.7499 13.6515 34.8924 13.4085C35.0432 13.157 35.2402 12.9601 35.4832 12.8176C35.7347 12.6668 36.0112 12.5913 36.3129 12.5913H42.0958C42.3891 12.5913 42.6615 12.6668 42.9129 12.8176C43.1644 12.9601 43.3613 13.157 43.5038 13.4085C43.6547 13.6515 43.7301 13.9239 43.7301 14.2256V20.0085C43.7301 20.3102 43.6547 20.5868 43.5038 20.8382C43.3613 21.0812 43.1644 21.2782 42.9129 21.429C42.6615 21.5715 42.3891 21.6428 42.0958 21.6428H36.3129ZM36.3507 20.285H42.0581C42.1419 20.285 42.2131 20.2557 42.2718 20.197C42.3305 20.13 42.3598 20.0546 42.3598 19.9708V14.2633C42.3598 14.1795 42.3305 14.1083 42.2718 14.0496C42.2131 13.9826 42.1419 13.949 42.0581 13.949H36.3507C36.2668 13.949 36.1914 13.9826 36.1244 14.0496C36.0657 14.1083 36.0364 14.1795 36.0364 14.2633V19.9708C36.0364 20.0546 36.0657 20.13 36.1244 20.197C36.1914 20.2557 36.2668 20.285 36.3507 20.285ZM45.1145 21.6428V12.6039H52.5191C52.8208 12.6039 53.0974 12.6793 53.3488 12.8302C53.6002 12.981 53.7972 13.1822 53.9397 13.4336C54.0905 13.6767 54.1659 13.9449 54.1659 14.2382V16.7776C54.1659 17.0793 54.0905 17.3559 53.9397 17.6073C53.7972 17.8504 53.6002 18.0473 53.3488 18.1982C53.0974 18.3407 52.8208 18.4119 52.5191 18.4119L46.4722 18.4245V21.6428H45.1145ZM46.7865 17.0416H52.4939C52.5778 17.0416 52.649 17.0123 52.7077 16.9536C52.7663 16.8949 52.7957 16.8237 52.7957 16.7399V14.2759C52.7957 14.1921 52.7663 14.1209 52.7077 14.0622C52.649 13.9951 52.5778 13.9616 52.4939 13.9616H46.7865C46.7027 13.9616 46.6273 13.9951 46.5602 14.0622C46.5016 14.1209 46.4722 14.1921 46.4722 14.2759V16.7399C46.4722 16.8237 46.5016 16.8949 46.5602 16.9536C46.6273 17.0123 46.7027 17.0416 46.7865 17.0416ZM55.0839 21.6428V12.5913H63.381V13.949H56.4541V16.4382H62.0233V17.7959H56.4541V20.285H63.381V21.6428H55.0839ZM64.6837 21.6428V12.5913H66.3054L72.3649 19.8073V12.5913H73.7351V21.6428H72.1134L66.0414 14.4142V21.6428H64.6837ZM75.1561 21.6428V12.5913H76.5138V16.4382H83.051V12.5913H84.4213V21.6428H83.051V17.7959H76.5138V21.6428H75.1561ZM88.8663 21.6428L85.5726 12.5913H87.0183L89.4195 19.1788L91.8208 12.5913H93.2538L95.6678 19.1788L98.0558 12.5913H99.5148L96.2208 21.6428H95.1018L92.5368 14.6028L89.9726 21.6428H88.8663Z" fill="white"/>
<path d="M72.2843 8.99996C72.1186 8.99996 71.9667 8.96087 71.8286 8.88257C71.6951 8.79977 71.5869 8.69156 71.504 8.55806C71.4258 8.41996 71.3867 8.26806 71.3867 8.10236V4.92616C71.3867 4.76046 71.4258 4.61086 71.504 4.47736C71.5869 4.33926 71.6951 4.23106 71.8286 4.15286C71.9667 4.06996 72.1186 4.02856 72.2843 4.02856H75.4536C75.6193 4.02856 75.7712 4.06996 75.9093 4.15286C76.0474 4.23106 76.1556 4.33926 76.2338 4.47736C76.3167 4.61086 76.3581 4.76046 76.3581 4.92616V5.22306H75.6055V4.94687C75.6055 4.90087 75.5894 4.86166 75.5571 4.82946C75.5249 4.79266 75.4858 4.77426 75.4398 4.77426H72.305C72.259 4.77426 72.2175 4.79266 72.1807 4.82946C72.1485 4.86166 72.1324 4.90087 72.1324 4.94687V8.08166C72.1324 8.12766 72.1485 8.16906 72.1807 8.20596C72.2175 8.23816 72.259 8.25426 72.305 8.25426H75.4398C75.4858 8.25426 75.5249 8.23816 75.5571 8.20596C75.5894 8.16906 75.6055 8.12766 75.6055 8.08166V7.02516H74.4317V6.27256H76.3581V8.10236C76.3581 8.26806 76.3167 8.41996 76.2338 8.55806C76.1556 8.69156 76.0474 8.79977 75.9093 8.88257C75.7712 8.96087 75.6193 8.99996 75.4536 8.99996H72.2843ZM81.192 8.99996L79.6384 7.14256H80.612L82.062 8.86187V8.99996H81.192ZM77.1182 8.99996V4.03546H81.1851C81.3508 4.03546 81.5027 4.07686 81.6408 4.15976C81.7789 4.24256 81.887 4.35307 81.9653 4.49117C82.0482 4.62467 82.0896 4.77196 82.0896 4.93306V6.32786C82.0896 6.49356 82.0482 6.64546 81.9653 6.78356C81.887 6.91706 81.7789 7.02517 81.6408 7.10807C81.5027 7.18627 81.3508 7.22546 81.1851 7.22546L77.8639 7.23237V8.99996H77.1182ZM78.0365 6.47287H81.1713C81.2173 6.47287 81.2564 6.45666 81.2886 6.42446C81.3209 6.39226 81.337 6.35317 81.337 6.30707V4.95376C81.337 4.90776 81.3209 4.86866 81.2886 4.83636C81.2564 4.79956 81.2173 4.78117 81.1713 4.78117H78.0365C77.9905 4.78117 77.949 4.79956 77.9122 4.83636C77.88 4.86866 77.8639 4.90776 77.8639 4.95376V6.30707C77.8639 6.35317 77.88 6.39226 77.9122 6.42446C77.949 6.45666 77.9905 6.47287 78.0365 6.47287ZM83.6997 8.99996C83.534 8.99996 83.3821 8.96087 83.244 8.88257C83.1105 8.79977 83.0024 8.69156 82.9195 8.55806C82.8413 8.41996 82.8021 8.26806 82.8021 8.10236V4.92616C82.8021 4.76046 82.8413 4.61086 82.9195 4.47736C83.0024 4.33926 83.1105 4.23106 83.244 4.15286C83.3821 4.06996 83.534 4.02856 83.6997 4.02856H86.8759C87.037 4.02856 87.1867 4.06996 87.3247 4.15286C87.4628 4.23106 87.571 4.33926 87.6493 4.47736C87.7321 4.61086 87.7736 4.76046 87.7736 4.92616V8.10236C87.7736 8.26806 87.7321 8.41996 87.6493 8.55806C87.571 8.69156 87.4628 8.79977 87.3247 8.88257C87.1867 8.96087 87.037 8.99996 86.8759 8.99996H83.6997ZM83.7205 8.25426H86.8552C86.9013 8.25426 86.9404 8.23816 86.9726 8.20596C87.0048 8.16906 87.0209 8.12766 87.0209 8.08166V4.94687C87.0209 4.90087 87.0048 4.86166 86.9726 4.82946C86.9404 4.79266 86.9013 4.77426 86.8552 4.77426H83.7205C83.6744 4.77426 83.633 4.79266 83.5962 4.82946C83.564 4.86166 83.5478 4.90087 83.5478 4.94687V8.08166C83.5478 8.12766 83.564 8.16906 83.5962 8.20596C83.633 8.23816 83.6744 8.25426 83.7205 8.25426ZM89.4178 8.99996C89.252 8.99996 89.1001 8.96087 88.962 8.88257C88.8285 8.79977 88.7204 8.69156 88.6375 8.55806C88.5593 8.41996 88.5201 8.26806 88.5201 8.10236V4.02856H89.2658V8.08166C89.2658 8.12766 89.282 8.16906 89.3142 8.20596C89.351 8.23816 89.3924 8.25426 89.4385 8.25426H92.573C92.619 8.25426 92.658 8.23816 92.691 8.20596C92.723 8.16906 92.739 8.12766 92.739 8.08166V4.02856H93.492V8.10236C93.492 8.26806 93.45 8.41996 93.367 8.55806C93.289 8.69156 93.181 8.79977 93.043 8.88257C92.905 8.96087 92.755 8.99996 92.594 8.99996H89.4178ZM94.252 8.99996V4.03546H98.319C98.485 4.03546 98.636 4.07686 98.775 4.15976C98.913 4.24256 99.021 4.35307 99.099 4.49117C99.182 4.62467 99.223 4.77196 99.223 4.93306V6.32786C99.223 6.49356 99.182 6.64546 99.099 6.78356C99.021 6.91706 98.913 7.02517 98.775 7.10807C98.636 7.18627 98.485 7.22546 98.319 7.22546L94.998 7.23237V8.99996H94.252ZM95.17 6.47287H98.305C98.351 6.47287 98.39 6.45666 98.422 6.42446C98.455 6.39226 98.471 6.35317 98.471 6.30707V4.95376C98.471 4.90776 98.455 4.86866 98.422 4.83636C98.39 4.79956 98.351 4.78117 98.305 4.78117H95.17C95.124 4.78117 95.083 4.79956 95.046 4.83636C95.014 4.86866 94.998 4.90776 94.998 4.95376V6.30707C94.998 6.35317 95.014 6.39226 95.046 6.42446C95.083 6.45666 95.124 6.47287 95.17 6.47287Z" fill="white"/>
</svg>
