<svg width="50" height="27" viewBox="0 0 50 27" fill="none" xmlns="http://www.w3.org/2000/svg">
<path d="M44.1719 0C44.2817 0.63917 44.2085 1.28231 44.2655 1.92148C44.2817 2.1041 44.2451 2.28672 44.2451 2.46934C44.2451 2.72739 44.3712 2.75518 44.5583 2.64799C44.8959 2.45743 45.2294 2.25893 45.571 2.08028C45.8516 1.93339 46.1078 1.74283 46.3966 1.61182C46.4535 1.58403 46.5105 1.56021 46.5674 1.53639C46.665 1.49669 46.7423 1.52051 46.8114 1.59991C47.0798 1.89766 47.2669 2.24305 47.4418 2.59638C47.5476 2.80282 47.4377 3.0053 47.2385 3.1085C46.787 3.3388 46.3356 3.573 45.8963 3.8311C45.8272 3.8747 45.7499 3.9144 45.6686 3.9343C45.5018 3.974 45.3961 4.0931 45.2863 4.2003C45.2212 4.2598 45.27 4.3273 45.3229 4.3789C45.4571 4.506 45.6117 4.6052 45.7825 4.6687C45.9248 4.7203 46.055 4.7918 46.1851 4.8672C46.5755 5.0816 46.966 5.296 47.3564 5.5104C47.4947 5.5858 47.5598 5.7565 47.4866 5.8994C47.3239 6.225 47.1449 6.5426 46.9456 6.8522C46.7708 7.1222 46.6365 7.1142 46.3925 6.9674C45.8435 6.6299 45.2822 6.3123 44.725 5.9868C44.603 5.9153 44.481 5.8319 44.3224 5.8637C44.2492 5.8756 44.237 5.8994 44.2411 5.9629C44.2899 6.745 44.2533 7.5271 44.2655 8.3092C44.2655 8.5157 44.2126 8.5474 44.0011 8.5673C43.6269 8.607 43.2568 8.5395 42.8867 8.5593C42.8339 8.5593 42.7769 8.5474 42.7241 8.5434C42.598 8.5315 42.5573 8.4561 42.5492 8.3449C42.5411 8.1901 42.5858 8.0353 42.5736 7.8844C42.5288 7.3882 42.5777 6.8919 42.5614 6.3957C42.5573 6.2448 42.5614 6.094 42.5817 5.9431C42.5939 5.8438 42.5451 5.8161 42.4597 5.824C42.3336 5.8359 42.2035 5.8716 42.1059 5.9471C41.8212 6.1614 41.4999 6.3083 41.1989 6.4989C40.9305 6.6696 40.654 6.8205 40.3815 6.9793C40.2717 7.0428 40.1496 7.0507 40.0276 7.0507C39.9788 7.0507 39.9585 7.0229 39.9341 6.9872C39.6901 6.6378 39.5355 6.2369 39.2956 5.8835C39.2224 5.7764 39.3037 5.5818 39.4664 5.5183C39.6941 5.431 39.9097 5.3238 40.1171 5.2007C40.5604 4.9427 41.0037 4.6886 41.443 4.4266C41.6219 4.3233 41.6097 4.1963 41.4104 4.0772C41.2152 3.9581 41.0159 3.8469 40.8085 3.7437C40.5157 3.5968 40.2269 3.438 39.9422 3.2753C39.8446 3.2197 39.7429 3.172 39.6331 3.1363C39.5274 3.1045 39.4501 3.041 39.381 2.96162C39.2752 2.83855 39.2671 2.73136 39.3525 2.59241C39.5233 2.30657 39.6982 2.0247 39.8609 1.73489C40.0032 1.48478 40.1008 1.45302 40.3652 1.59197C40.7719 1.80635 41.1664 2.03661 41.5568 2.27878C41.8253 2.44552 42.0977 2.60432 42.3702 2.76709C42.4841 2.83458 42.6021 2.76709 42.6021 2.61623C42.6021 2.38994 42.6021 2.15968 42.5939 1.93339C42.5858 1.50066 42.6102 1.06793 42.5939 0.63917C42.5858 0.48037 42.5492 0.32554 42.5655 0.16277C42.5655 0.12307 42.5451 0.0913098 42.5288 0.0595498C42.5533 0.0516098 42.5817 0.0436698 42.5573 0.00793982H42.6834C42.7159 0.0595498 42.7525 0.0357298 42.7851 0.00793982H44.1719V0Z" fill="#01F2FE"/>
<path d="M0.1423 11.2628C0.0812997 11.2191 0.0366 11.2509 0 11.2946V10.9531C0.0203 11.0087 0.0772008 10.9809 0.117901 11.0008C0.0691008 11.0961 0.1545 11.1755 0.1464 11.2628H0.1423Z" fill="#01F2FE"/>
<path d="M31.0678 21.4896C31.0678 21.4499 31.0638 21.4142 31.0638 21.3745C31.0638 20.5487 31.0638 19.719 31.0638 18.8932C31.0638 18.8019 31.0841 18.7781 31.1817 18.7781C32.7028 18.7781 34.2238 18.7781 35.7449 18.7781C35.8547 18.7781 35.8873 18.8218 35.8751 18.921C35.8385 19.2228 35.8547 19.5284 35.8629 19.8341C35.8629 19.9096 35.8507 19.981 35.8507 20.0565C35.8507 20.7512 35.8507 21.442 35.8507 22.1367C35.8507 22.5298 35.8507 22.9188 35.8019 23.3079C35.7327 23.8756 35.5944 24.4195 35.2975 24.9197C35.1999 25.0825 35.1145 25.2651 34.9803 25.3961C34.5248 25.8487 34.0449 26.2775 33.443 26.5554C32.959 26.7816 32.4466 26.8809 31.926 26.9722C31.808 26.9921 31.6942 26.996 31.5762 26.996C30.8279 26.996 30.0796 27 29.3312 26.996C29.1848 26.996 29.0343 26.9444 28.8879 26.9285C28.6195 26.8928 28.3511 26.8531 28.0908 26.7697C27.3465 26.5315 26.7202 26.1187 26.1752 25.5748C25.858 25.2611 25.5855 24.9197 25.3903 24.5307C25.1991 24.1614 25.0283 23.7803 24.9348 23.3714C24.9144 23.2722 24.9226 23.1689 24.9063 23.0697C24.8087 22.5456 24.829 22.0176 24.8087 21.4896C24.7558 19.8977 24.7924 18.3017 24.7884 16.7097C24.7884 16.3207 24.7884 15.9277 24.8168 15.5386C24.8412 15.2051 24.9388 14.8796 25.0568 14.562C25.1422 14.3277 25.2317 14.0975 25.3455 13.8752C25.6384 13.3074 26.0369 12.8231 26.5006 12.3785C26.9601 11.9338 27.5173 11.64 28.107 11.3939C28.652 11.1636 29.2295 11.0803 29.8152 11.0207C30.4863 10.9532 31.1451 11.0207 31.8121 11.0763C32.3164 11.116 32.7963 11.2391 33.2193 11.513C33.4511 11.6639 33.6829 11.8187 33.9107 11.9815C34.2401 12.2157 34.5085 12.4976 34.7688 12.7953C34.899 12.9422 34.9966 13.105 35.1023 13.2677C35.3341 13.629 35.509 14.0141 35.627 14.423C35.7246 14.7724 35.7856 15.1336 35.81 15.4949C35.8303 15.7688 35.8425 16.0428 35.8629 16.3167C35.871 16.4041 35.8385 16.4318 35.7531 16.4557C35.5375 16.5152 35.3219 16.4398 35.1105 16.4438C35.0657 16.4438 35.0129 16.4318 34.964 16.4318C34.4069 16.4318 33.8456 16.4318 33.2884 16.4318C33.1095 16.4318 33.1054 16.4318 33.1136 16.2611C33.1339 15.9157 33.142 15.5664 33.0566 15.2289C32.8451 14.4071 32.2432 13.8315 31.3566 13.7005C30.8848 13.629 30.4008 13.6409 29.925 13.6608C29.2499 13.6925 28.6886 13.9585 28.2169 14.4071C27.9362 14.6731 27.7573 15.0026 27.6353 15.3599C27.5539 15.5942 27.5255 15.8403 27.497 16.0865C27.4604 16.3683 27.4441 16.6502 27.4441 16.9321C27.4441 18.5121 27.4441 20.0962 27.4523 21.6762C27.4523 22.1288 27.4848 22.5814 27.6271 23.0141C27.7288 23.3158 27.92 23.5699 28.1599 23.7883C28.5503 24.1456 29.0181 24.3282 29.5468 24.348C30.1609 24.3679 30.775 24.3639 31.3851 24.352C31.5966 24.348 31.8202 24.3401 32.0277 24.2686C32.5808 24.0741 33.0932 23.5342 33.0973 22.9188C33.0973 22.4821 33.1095 22.0494 33.1217 21.6127C33.1217 21.5254 33.0891 21.4857 32.9956 21.4658C32.6743 21.3943 32.353 21.434 32.0317 21.438C31.7186 21.442 31.4013 21.4261 31.0841 21.4857L31.0678 21.4896Z" fill="#016DFE"/>
<path d="M18.4442 10.9573C19.8351 10.9573 21.226 10.9573 22.617 10.9573C22.7105 10.9573 22.7959 10.9772 22.8813 11.0089C22.9098 11.0208 22.9179 11.0248 22.9057 11.0605C22.8732 11.1518 22.8935 11.2471 22.8935 11.3384C22.9017 12.0094 22.8732 12.6843 22.9098 13.3552C22.922 13.5458 22.8 13.649 22.6088 13.6212C22.3445 13.5855 22.0801 13.5934 21.8117 13.6212C21.6449 13.6371 21.4782 13.6212 21.3074 13.6212C20.2337 13.6212 19.1559 13.6172 18.0822 13.6212C17.7731 13.6212 17.464 13.5775 17.155 13.5974C17.0248 13.6053 16.8906 13.6291 16.7605 13.645C16.7157 13.649 16.6872 13.6688 16.6913 13.7165C16.732 14.1611 16.7035 14.6097 16.7157 15.0544C16.732 15.6935 16.7279 16.3327 16.7157 16.9719C16.7157 17.1505 16.6994 17.3292 16.6954 17.5118C16.6954 17.6825 16.7401 17.7182 16.9191 17.7301C17.0329 17.7381 17.1428 17.7024 17.2566 17.7024C17.7284 17.7024 18.2002 17.7182 18.6679 17.7024C19.2779 17.6785 19.8921 17.6746 20.5021 17.6627C21.1122 17.6547 21.7141 17.7301 22.3241 17.7024C22.4828 17.6944 22.5153 17.746 22.5112 17.9009C22.4828 18.6353 22.4909 19.3658 22.4868 20.1002C22.4868 20.3146 22.4543 20.3464 22.2306 20.3424C21.2789 20.3265 20.3232 20.3106 19.3715 20.3146C18.5581 20.3186 17.7406 20.3226 16.9272 20.3265C16.7157 20.3265 16.6994 20.3543 16.7035 20.5528C16.7238 21.6922 16.7523 22.8356 16.7035 23.975C16.7035 24.0663 16.7035 24.1536 16.6994 24.2449C16.6954 24.3362 16.7442 24.368 16.8255 24.3799C16.8743 24.3839 16.9272 24.3839 16.976 24.3839C18.5418 24.3839 20.1117 24.3997 21.6775 24.3839C21.9906 24.3839 22.3079 24.3997 22.621 24.3839C22.7024 24.3799 22.7674 24.4117 22.8366 24.4394C22.8773 24.4553 22.8976 24.4831 22.8976 24.5308C22.8976 24.9833 22.8976 25.4359 22.8935 25.8885C22.8935 26.1743 22.8569 26.4642 22.8935 26.75C22.9139 26.9247 22.8325 26.9922 22.621 27.0001C22.5072 27.0001 22.3933 27.0001 22.2794 27.0001C19.6033 27.0001 16.9272 27.0001 14.2511 27.0001C14.0559 27.0001 14.0071 26.9525 13.9989 26.754C13.9908 26.5991 14.0233 26.4483 14.0233 26.2934C14.0233 21.5771 14.0233 16.8647 14.0233 12.1483C14.0233 11.8029 14.0111 11.4575 13.9989 11.1121C13.9989 11.0208 14.0315 10.9772 14.1169 10.9653C14.1657 10.9573 14.2186 10.9573 14.2674 10.9573C15.6624 10.9573 17.0573 10.9573 18.4523 10.9573H18.4442Z" fill="#016DFE"/>
<path d="M48.6174 26.9959C48.2107 26.9959 47.804 26.9959 47.3932 26.9959C47.2834 26.9959 47.2143 26.9602 47.1655 26.861C47.0068 26.5513 46.9214 26.2138 46.8076 25.8843C46.6245 25.3643 46.4578 24.8402 46.287 24.3202C46.0511 23.6055 45.8152 22.887 45.5753 22.1724C45.319 21.4022 45.0547 20.636 44.7944 19.8658C44.6154 19.3338 44.4202 18.8018 44.2657 18.2659C44.0705 17.587 43.8671 16.9121 43.6678 16.2372C43.6271 16.1062 43.5621 15.9792 43.5295 15.8442C43.5092 15.7569 43.3913 15.737 43.314 15.8005C43.2692 15.8402 43.2286 15.8839 43.2245 15.9434C43.1676 16.4238 42.9764 16.8724 42.8381 17.3329C42.4233 18.7304 41.9353 20.1 41.4716 21.4816C41.1341 22.486 40.8046 23.4944 40.4549 24.4948C40.3125 24.9037 40.1295 25.2968 39.979 25.7017C39.8692 25.9955 39.7879 26.2972 39.6984 26.6029C39.6089 26.9245 39.491 26.9959 39.2104 26.992C38.4376 26.984 37.6649 26.992 36.8922 26.992C36.7132 26.992 36.7173 26.992 36.7579 26.8252C36.8393 26.4878 37.002 26.1741 37.1036 25.8407C37.2419 25.3921 37.4087 24.9554 37.5632 24.5107C37.7584 23.947 37.9536 23.3832 38.1448 22.8195C38.2871 22.4066 38.4376 21.9937 38.5515 21.5729C38.641 21.2474 38.7508 20.9298 38.8606 20.6161C39.0477 20.0802 39.2266 19.5442 39.4096 19.0083C39.4788 18.8058 39.5235 18.5954 39.6049 18.3969C39.6659 18.25 39.7147 18.0952 39.7716 17.9483C39.8245 17.8173 39.857 17.6783 39.8936 17.5434C39.9546 17.2893 40.0766 17.055 40.1498 16.8089C40.219 16.5747 40.2759 16.3404 40.3573 16.1102C40.4101 15.9593 40.4874 15.8124 40.5321 15.6576C40.6135 15.3916 40.6826 15.1177 40.7843 14.8557C41.0365 14.2125 41.2317 13.5535 41.4594 12.9064C41.6465 12.3704 41.8214 11.8345 42.0003 11.2946C42.0125 11.2509 42.0247 11.2072 42.0329 11.1636C42.0613 10.9968 42.1142 10.9531 42.2891 10.9531C42.83 10.9611 43.3709 10.969 43.9159 10.9809C44.103 10.9849 44.2901 10.9571 44.4772 10.9968C44.709 11.0445 44.713 11.0365 44.7578 11.2469C44.8391 11.6161 44.9611 11.9734 45.0709 12.3387C45.1523 12.6047 45.2621 12.8667 45.3394 13.1327C45.4044 13.359 45.4817 13.5813 45.559 13.8076C45.8559 14.673 46.1568 15.5385 46.4497 16.4079C46.6449 16.9836 46.832 17.5632 47.0231 18.1389C47.4624 19.4529 47.8894 20.7749 48.349 22.0811C48.6987 23.0736 48.9875 24.082 49.3413 25.0745C49.5365 25.6263 49.7033 26.194 49.9392 26.7339C49.9432 26.7458 49.9473 26.7577 49.9514 26.7696C49.9866 26.9232 49.9229 26.9999 49.7602 26.9999C49.3739 26.9999 48.9875 26.9999 48.6011 26.9999L48.6174 26.9959Z" fill="#016DFE"/>
<path d="M0.142305 11.2628C0.154505 11.1715 0.0650052 11.0921 0.113805 11.0008C0.174905 10.9651 0.239906 10.9571 0.309106 10.9571C1.11031 10.9571 1.91551 10.9571 2.71671 10.9531C2.79811 10.9531 2.83471 10.973 2.82251 11.0564C2.81441 11.1119 2.83061 11.1675 2.84691 11.2231C3.00551 11.7908 3.17631 12.3506 3.33901 12.9183C3.63181 13.9307 3.96131 14.9311 4.26631 15.9395C4.57941 16.9796 4.90481 18.0198 5.22611 19.0599C5.33591 19.4132 5.4376 19.7666 5.5393 20.1239C5.6653 20.5566 5.80771 20.9893 5.95821 21.4141C6.01511 21.5769 6.05171 21.7516 6.18181 21.8826C6.27951 21.9818 6.37301 21.962 6.38521 21.8349C6.44211 21.2474 6.69841 20.7074 6.84881 20.1437C7.08071 19.2703 7.3369 18.4009 7.6134 17.5394C8.0079 16.3127 8.3862 15.082 8.7603 13.8473C8.8742 13.4662 9.00441 13.089 9.11821 12.7079C9.25251 12.2513 9.39481 11.7988 9.53711 11.3462C9.56971 11.243 9.5697 11.1358 9.6144 11.0325C9.6388 10.973 9.6714 10.9531 9.7324 10.9531C10.6312 10.9531 11.53 10.9531 12.4288 10.9531C12.5183 10.9531 12.5305 10.9889 12.5142 11.0564C12.4654 11.231 12.4166 11.4097 12.3556 11.5804C12.1278 12.2315 11.9489 12.8945 11.7293 13.5495C11.6398 13.8195 11.5463 14.0934 11.4608 14.3674C11.0379 15.7449 10.6149 17.1225 10.1919 18.4962C9.87471 19.5284 9.5493 20.5606 9.224 21.5888C8.8864 22.6647 8.5529 23.7445 8.2113 24.8164C8.0405 25.3563 7.85751 25.8923 7.67851 26.4322C7.63781 26.5513 7.62561 26.6783 7.56871 26.7895C7.52401 26.8729 7.46301 26.9245 7.36131 26.9483C7.20671 26.984 7.0481 26.9959 6.8895 26.9959C6.3527 26.9959 5.81581 26.9959 5.27491 26.9959C4.98611 26.9959 4.89261 26.9443 4.79501 26.6783C4.66481 26.3171 4.55501 25.9518 4.44121 25.5866C4.37201 25.3722 4.31101 25.1578 4.25001 24.9434C3.97751 24.0184 3.68061 23.0974 3.40001 22.1763C3.17631 21.4459 2.96481 20.7154 2.72081 19.9889C2.54191 19.449 2.38731 18.9051 2.22461 18.3612C1.99691 17.6069 1.75691 16.8605 1.52101 16.1102C1.31361 15.4512 1.12251 14.7921 0.963907 14.1212C0.845907 13.6289 0.691406 13.1406 0.553106 12.6523C0.512406 12.5054 0.467707 12.3625 0.443307 12.2156C0.394507 11.9377 0.280605 11.6836 0.187105 11.4176C0.170805 11.37 0.162704 11.3144 0.154504 11.2628H0.142305Z" fill="#016DFE"/>
</svg>
