<svg width="125" height="50" viewBox="0 0 125 50" fill="none" xmlns="http://www.w3.org/2000/svg">
<g clip-path="url(#clip0_244_1857)">
<path d="M41.6594 24.0359C41.6594 28.8095 44.7374 32.1378 49.0025 32.1378C53.2677 32.1378 56.3456 28.8095 56.3456 24.0359C56.3456 19.2624 53.2677 15.9341 49.0025 15.9341C44.7374 15.9341 41.6594 19.2624 41.6594 24.0359ZM53.5315 24.0359C53.5315 27.4519 51.6627 29.6635 49.0025 29.6635C46.3423 29.6635 44.4736 27.4519 44.4736 24.0359C44.4736 20.62 46.3423 18.4084 49.0025 18.4084C51.6627 18.4084 53.5315 20.62 53.5315 24.0359Z" fill="white"/>
<path d="M64.2704 32.1379C67.5023 32.1379 69.349 29.4226 69.349 26.16C69.349 22.8973 67.5023 20.1821 64.2704 20.1821C62.7754 20.1821 61.6762 20.7733 60.9507 21.6273V20.4011H58.3124V35.8384H60.9507V30.6927C61.6762 31.5466 62.7754 32.1379 64.2704 32.1379ZM60.8847 25.8315C60.8847 23.6637 62.1159 22.4813 63.7428 22.4813C65.6555 22.4813 66.6888 23.9703 66.6888 26.16C66.6888 28.3497 65.6555 29.8387 63.7428 29.8387C62.1159 29.8387 60.8847 28.6343 60.8847 26.5103V25.8315Z" fill="white"/>
<path d="M76.4888 32.1379C78.7972 32.1379 80.622 30.9335 81.4355 28.919L79.171 28.065C78.8192 29.2475 77.7859 29.9044 76.4888 29.9044C74.7959 29.9044 73.6087 28.7 73.4108 26.7293H81.5014V25.8534C81.5014 22.7003 79.7206 20.1821 76.3789 20.1821C73.0371 20.1821 70.8825 22.7879 70.8825 26.16C70.8825 29.7073 73.191 32.1379 76.4888 32.1379ZM76.3569 22.3937C78.0278 22.3937 78.8192 23.4886 78.8412 24.7586H73.5428C73.9385 23.2039 74.9938 22.3937 76.3569 22.3937Z" fill="white"/>
<path d="M83.481 31.897H86.1192V25.1527C86.1192 23.5105 87.3284 22.6346 88.5156 22.6346C89.9666 22.6346 90.5382 23.6637 90.5382 25.087V31.897H93.1765V24.3206C93.1765 21.8463 91.7255 20.1821 89.3071 20.1821C87.8121 20.1821 86.7788 20.8609 86.1192 21.6273V20.4011H83.481V31.897Z" fill="white"/>
<path d="M100.903 16.1748L94.9234 31.8968H97.7155L99.0566 28.3057H105.872L107.235 31.8968H110.071L104.091 16.1748H100.903ZM102.442 19.2842L104.949 25.8532H99.98L102.442 19.2842Z" fill="white"/>
<path d="M114.6 16.2205H111.786V31.9425H114.6V16.2205Z" fill="white"/>
<path d="M35.2123 21.9492C35.8773 19.9612 35.6483 17.7833 34.5848 15.975C32.9853 13.2014 29.77 11.7745 26.6298 12.446C25.2328 10.8785 23.2257 9.98712 21.1215 9.99989C17.9117 9.99259 15.0637 12.0509 14.0762 15.0928C12.0141 15.5134 10.2342 16.7989 9.19268 18.6209C7.58134 21.3872 7.94868 24.8743 10.1014 27.2465C9.43635 29.2345 9.66536 31.4123 10.7289 33.2207C12.3283 35.9943 15.5437 37.4212 18.6839 36.7497C20.08 38.3172 22.088 39.2086 24.1921 39.1949C27.4038 39.2031 30.2528 37.143 31.2403 34.0984C33.3023 33.6778 35.0822 32.3922 36.1237 30.5702C37.7333 27.8039 37.365 24.3196 35.2132 21.9474L35.2123 21.9492ZM24.194 37.2871C22.9088 37.2889 21.6638 36.841 20.6772 36.0207C20.7221 35.997 20.8 35.9541 20.8504 35.9231L26.6875 32.5656C26.9861 32.3968 27.1693 32.0802 27.1675 31.7381V23.5422L29.6344 24.961C29.661 24.9737 29.6784 24.9993 29.6821 25.0285V31.8156C29.6784 34.8337 27.2243 37.2807 24.194 37.2871ZM12.3915 32.2663C11.7476 31.1587 11.5158 29.8604 11.7366 28.6004C11.7796 28.626 11.8556 28.6725 11.9097 28.7035L17.7468 32.061C18.0427 32.2335 18.4091 32.2335 18.7059 32.061L25.8319 27.9627V30.8001C25.8337 30.8293 25.82 30.8576 25.7971 30.8759L19.8968 34.269C17.2686 35.7762 13.9122 34.8803 12.3925 32.2663H12.3915ZM10.8553 19.5761C11.4966 18.4667 12.5088 17.6182 13.7143 17.1775C13.7143 17.2277 13.7116 17.3162 13.7116 17.3782V24.0942C13.7097 24.4354 13.893 24.752 14.1907 24.9208L21.3167 29.0183L18.8497 30.437C18.825 30.4534 18.7938 30.4562 18.7664 30.4443L12.8651 27.0485C10.2425 25.5358 9.34291 22.1937 10.8544 19.5771L10.8553 19.5761ZM31.1239 24.274L23.9979 20.1756L26.4649 18.7578C26.4896 18.7413 26.5208 18.7386 26.5482 18.7505L32.4495 22.1436C35.0767 23.6554 35.9772 27.0029 34.4593 29.6195C33.8171 30.7272 32.8058 31.5757 31.6012 32.0173V25.1006C31.6039 24.7593 31.4216 24.4437 31.1248 24.274H31.1239ZM33.579 20.5934C33.5359 20.567 33.4599 20.5214 33.4058 20.4903L27.5687 17.1328C27.2728 16.9604 26.9064 16.9604 26.6096 17.1328L19.4836 21.2312V18.3937C19.4818 18.3645 19.4955 18.3362 19.5184 18.318L25.4187 14.9276C28.0469 13.4176 31.407 14.3163 32.9221 16.9348C33.5625 18.0406 33.7942 19.3353 33.5771 20.5934H33.579ZM18.1425 25.6507L15.6747 24.232C15.6481 24.2192 15.6307 24.1937 15.627 24.1645V17.3773C15.6289 14.3556 18.0903 11.9067 21.1243 11.9086C22.4077 11.9086 23.6498 12.3575 24.6364 13.1749C24.5915 13.1987 24.5146 13.2415 24.4633 13.2726L18.6262 16.6301C18.3276 16.7989 18.1444 17.1146 18.1462 17.4567L18.1425 25.6489V25.6507ZM19.4827 22.7731L22.6568 20.9474L25.831 22.7722V26.4226L22.6568 28.2473L19.4827 26.4226V22.7731Z" fill="white"/>
</g>
<defs>
<clipPath id="clip0_244_1857">
<rect width="108.094" height="29.1959" fill="white" transform="translate(8 10)"/>
</clipPath>
</defs>
</svg>
