<svg width="125" height="50" viewBox="0 0 125 50" fill="none" xmlns="http://www.w3.org/2000/svg">
<path fill-rule="evenodd" clip-rule="evenodd" d="M113.539 15.8979H116.094V18.6488H113.539V15.8979ZM77.0772 21.4055C77.5096 21.3996 78.2782 21.5057 78.7873 21.6432C79.5244 21.8417 79.7308 21.8417 79.8192 21.6452C79.89 21.486 80.3716 21.3996 82.4826 21.3996L82.4787 41.5394L82.0246 42.5218C81.775 43.0622 81.2462 43.8363 80.8472 44.2411C80.4502 44.6458 79.6816 45.198 79.1411 45.4691C78.6005 45.7383 78.0698 45.9603 77.9617 45.9603C77.8477 45.9603 77.7671 45.3551 77.7671 44.5358C77.7691 43.1447 77.7848 43.1015 78.406 42.7046C78.7558 42.4806 79.1981 41.9736 79.3868 41.5748C79.6836 40.9519 79.7308 40.2308 79.7308 31.8133L78.7971 32.1218C78.1603 32.334 77.5037 32.3949 76.7332 32.3183C76.1121 32.2574 75.1824 31.9941 74.6693 31.7328C74.1563 31.4734 73.4978 31.0097 73.205 30.7012C72.9141 30.3947 72.4974 29.7443 72.2792 29.259C72.061 28.7737 71.8251 27.976 71.7544 27.4906C71.6698 26.9149 71.7308 26.2312 71.9313 25.5258C72.1003 24.9304 72.517 24.0816 72.8571 23.6375C73.1971 23.1935 73.7986 22.6217 74.1956 22.3663C74.5907 22.1128 75.2236 21.7945 75.603 21.6609C75.9824 21.5253 76.6448 21.4114 77.0772 21.4055ZM74.9917 25.7223C74.7873 26.0995 74.6182 26.63 74.6182 26.9012C74.6182 27.1704 74.7873 27.7028 74.9917 28.0801C75.1961 28.4573 75.66 28.923 76.0236 29.1116C76.3873 29.3022 76.9278 29.4575 77.2246 29.4555C77.5214 29.4555 78.0305 29.3219 78.3548 29.1608C78.6792 28.9996 79.1214 28.5792 79.3376 28.2275C79.5519 27.8757 79.7288 27.2784 79.7288 26.9012C79.7288 26.5239 79.5519 25.9266 79.3376 25.5749C79.1214 25.2232 78.6792 24.8047 78.3548 24.6416C78.0305 24.4785 77.5214 24.3469 77.2246 24.3469C76.9278 24.3449 76.3873 24.5001 76.0236 24.6907C75.66 24.8793 75.1961 25.345 74.9917 25.7223ZM113.539 21.3996H116.094V32.7958H113.539V21.3996Z" fill="white" fill-opacity="0.99"/>
<path fill-rule="evenodd" clip-rule="evenodd" d="M38.6497 21.3994H41.4015V22.5784L42.2369 22.1088C42.6969 21.8514 43.4045 21.5861 43.8094 21.5193C44.2143 21.4545 44.9219 21.4938 45.3819 21.6097C45.8418 21.7276 46.5494 22.0361 46.9544 22.2974C47.4005 22.5862 47.9391 23.2209 48.9435 25.0344L49.2423 24.5432C49.4055 24.274 49.8988 23.6944 50.3352 23.2582C50.805 22.7906 51.5362 22.3249 52.1141 22.1264C52.6546 21.9398 53.5607 21.7885 54.1288 21.7904C54.6969 21.7904 55.4693 21.9241 55.8487 22.0871C56.515 22.372 56.5386 22.3681 56.5858 21.9398C56.631 21.535 56.749 21.4938 59.2885 21.3994V32.7956H58.0109C57.0851 32.7956 56.692 32.717 56.5858 32.5068C56.4561 32.2553 56.3165 32.2553 55.4556 32.5206C54.8069 32.719 54.1386 32.7779 53.49 32.6974C52.9494 32.6286 52.1534 32.4164 51.7209 32.2239C51.2885 32.0313 50.5593 31.4635 50.0993 30.9585C49.6394 30.4555 49.1637 29.8012 49.0418 29.5045C48.918 29.2078 48.7509 28.5653 48.6664 28.08C48.5838 27.5946 48.572 26.8166 48.7725 25.508L46.6104 25.7437L46.2703 24.8989C46.062 24.3821 45.6983 23.9184 45.3367 23.7081C45.0104 23.5195 44.3676 23.3663 43.9077 23.3702C43.4399 23.3741 42.8128 23.5392 42.4826 23.7455C42.1583 23.9479 41.7829 24.3212 41.6472 24.5747C41.4782 24.8871 41.3858 26.2566 41.3033 32.6974L38.6497 32.7956V21.3994ZM51.7033 26.2625C51.5126 26.7124 51.4359 27.2488 51.5067 27.6379C51.5696 27.9896 51.8448 28.5417 52.1141 28.8659C52.3892 29.196 52.9298 29.5399 53.3426 29.646C53.7475 29.7521 54.3018 29.7815 54.5711 29.7128C54.8423 29.646 55.2728 29.4495 55.5303 29.2766C55.7878 29.1056 56.12 28.7205 56.2674 28.4238C56.4148 28.1271 56.5386 27.5966 56.5426 27.2449C56.5445 26.8932 56.3421 26.2959 56.0905 25.9186C55.8408 25.5394 55.4182 25.1209 55.1529 24.9873C54.8875 24.8556 54.3607 24.7436 53.9814 24.7436C53.602 24.7417 53.0064 24.9185 52.6546 25.1327C52.3028 25.3488 51.8762 25.8577 51.7033 26.2625V26.2625ZM61.2482 21.3994H64.2025V22.7748L64.7431 22.4428C65.0399 22.2581 65.549 21.9791 65.8733 21.8199C66.1976 21.6608 66.9052 21.5311 67.4458 21.533C67.9863 21.535 68.6507 21.647 68.92 21.7865C69.1912 21.9241 69.7003 22.3131 70.0521 22.6511C70.5003 23.0833 70.7499 23.5588 70.8915 24.2485C71.0015 24.7888 71.0664 26.9109 70.9838 32.6974L68.3303 32.7956L68.232 24.9008L67.6915 24.4273C67.3947 24.1679 66.9308 23.9538 66.6595 23.9538C66.3902 23.9538 65.9028 24.0854 65.5784 24.2485C65.2541 24.4096 64.8335 24.8301 64.6448 25.1818C64.3617 25.7084 64.2929 26.4275 64.2025 32.7956L61.3524 32.6974L61.2482 21.3994ZM100.959 21.3994H102.335C103.428 21.3994 103.711 21.4603 103.711 21.6942C103.711 21.9555 103.815 21.9555 104.645 21.6922C105.158 21.5272 105.889 21.3955 106.266 21.3955C106.646 21.3955 107.397 21.5252 107.937 21.6843C108.482 21.8435 109.305 22.3033 109.783 22.7179C110.259 23.1266 110.876 23.9046 111.155 24.445C111.566 25.2407 111.662 25.7064 111.666 26.901C111.67 28.0937 111.577 28.5555 111.18 29.3218C110.909 29.8444 110.424 30.5203 110.099 30.8249C109.775 31.1314 109.156 31.5656 108.723 31.7896C108.291 32.0156 107.495 32.2514 106.954 32.3142C106.414 32.3791 105.618 32.3457 105.185 32.2435C104.753 32.1394 104.244 31.9999 104.055 31.935C103.733 31.8211 103.711 32.2199 103.711 45.3707H100.959V21.3994ZM104.083 25.7221C103.878 26.0994 103.709 26.6319 103.709 26.901C103.709 27.1722 103.872 27.7027 104.071 28.08C104.269 28.4572 104.735 28.9229 105.105 29.1115C105.472 29.3001 106.019 29.4554 106.316 29.4554C106.612 29.4554 107.121 29.3218 107.446 29.1606C107.77 28.9995 108.212 28.579 108.429 28.2273C108.643 27.8756 108.82 27.2783 108.82 26.901C108.82 26.5238 108.643 25.9265 108.429 25.5748C108.212 25.2231 107.77 24.8045 107.446 24.6415C107.121 24.4784 106.612 24.3467 106.316 24.3467C106.019 24.3448 105.478 24.5 105.115 24.6906C104.753 24.8792 104.287 25.3449 104.083 25.7221ZM88.9691 21.5979C89.9322 21.592 90.4885 21.7079 91.2295 22.0695C91.7701 22.3327 92.5583 22.932 92.9789 23.3977C93.7239 24.2229 93.7337 24.2563 93.3622 24.5432C93.1519 24.7063 91.7111 25.899 87.3416 29.5536L88.0079 29.8405C88.3755 29.9977 89.1165 30.1274 89.6571 30.1293C90.3686 30.1293 90.8974 29.9839 91.5735 29.5968C92.0865 29.3021 92.5524 28.9288 92.6055 28.7677C92.6605 28.6046 92.7922 28.5162 92.9003 28.5712C93.0084 28.6262 93.0969 29.2451 93.0969 29.9466C93.0969 31.1196 93.0536 31.2532 92.5563 31.5912C92.2595 31.7916 91.7072 32.1178 91.3278 32.3162C90.8482 32.5677 90.1956 32.6797 89.1657 32.6856C87.9608 32.6954 87.4949 32.6031 86.6104 32.1767C86.0168 31.8918 85.2404 31.3161 84.8885 30.8995C84.5347 30.483 84.059 29.7442 83.8291 29.2589C83.546 28.6596 83.4065 27.9621 83.3947 27.0975C83.3829 26.1014 83.4929 25.5826 83.8939 24.7397C84.177 24.1443 84.749 23.38 85.1657 23.0362C85.5824 22.6943 86.3214 22.2325 86.8069 22.0105C87.4045 21.7374 88.1082 21.6018 88.9691 21.5979V21.5979ZM86.3706 25.6239C86.1721 25.9501 86.0364 26.4904 86.0659 26.8323L86.119 27.4512C88.916 25.1209 89.6905 24.3782 89.6433 24.2976C89.5961 24.217 89.2207 24.1502 88.8079 24.1502C88.3578 24.1502 87.7937 24.3271 87.3947 24.5923C87.0291 24.836 86.5691 25.2997 86.3706 25.6239V25.6239Z" fill="white" fill-opacity="0.99"/>
<path d="M17.4094 11.4946C17.4035 11.3413 17.6767 10.9876 18.0148 10.7086C18.3981 10.3923 18.8698 10.2017 19.2551 10.2056C19.599 10.2096 20.1868 10.4001 20.5661 10.632C20.9494 10.8658 21.7317 11.0957 22.3352 11.1507C23.1627 11.2254 23.658 11.1488 24.4482 10.8226C25.3602 10.4453 25.5666 10.4257 26.2172 10.6418C26.7637 10.8246 27.0565 11.0898 27.3474 11.6636C27.5912 12.143 28.114 12.6794 28.7234 13.0743C29.3268 13.4653 30.0659 13.7542 30.6398 13.8229C31.1528 13.8838 31.8388 14.1098 32.1632 14.3259C32.4875 14.5421 32.7568 14.8741 32.7607 15.0628C32.7666 15.2514 32.7981 15.8035 32.8334 16.2908C32.8688 16.7761 33.1224 17.6171 33.3976 18.1574C33.6727 18.6978 34.0914 19.2715 34.3312 19.4346C34.5691 19.5957 34.974 19.8845 35.2334 20.0732C35.599 20.3423 35.7013 20.5997 35.7032 21.2521C35.7032 21.7295 35.5578 22.2974 35.3612 22.5784C35.1725 22.8475 34.9622 23.6001 34.8914 24.2485C34.8148 24.9499 34.8541 25.728 34.9858 26.1682C35.1096 26.5768 35.2767 26.9089 35.3573 26.905C35.4379 26.903 35.5047 27.1663 35.5047 27.4905C35.5047 27.8147 35.4005 28.2784 35.2747 28.5221C35.147 28.7657 34.9445 29.0526 34.8246 29.1606C34.7047 29.2687 34.343 29.4927 34.0226 29.6578C33.7022 29.8248 33.1519 30.4437 32.8 31.0332C32.4482 31.6246 32.1592 32.3516 32.1612 32.6483C32.1612 32.945 32.0334 33.4755 31.8762 33.8272C31.717 34.1789 31.3632 34.5758 31.0899 34.7114C30.8148 34.8469 30.1917 34.957 29.7062 34.957C29.0516 34.957 28.515 35.1358 27.6423 35.6447C26.9936 36.0239 26.4629 36.3992 26.4649 36.4797C26.4649 36.5603 26.1995 36.914 25.8752 37.2657C25.4605 37.7137 25.1067 37.9043 24.6939 37.9043C24.3696 37.9043 23.8172 37.7255 23.4654 37.5093C23.0605 37.2578 22.2762 37.0613 21.3209 36.969C20.0708 36.8491 19.7524 36.8786 19.4536 37.1419C19.2551 37.3148 18.8266 37.5192 18.5022 37.5938C18.0934 37.6881 17.7199 37.6213 17.2855 37.3757C16.9396 37.1792 16.5248 36.7116 16.3637 36.3324C16.171 35.8765 15.7209 35.4227 15.027 34.9825C14.3568 34.5581 13.5941 34.2673 12.9003 34.1691C12.0944 34.0571 11.7071 33.8881 11.3769 33.5049C11.0447 33.1218 10.9347 32.7445 10.9347 32.0097C10.9347 31.4124 10.7735 30.7011 10.5258 30.1922C10.2998 29.7324 9.63933 28.915 9.05751 28.3747C8.23196 27.6084 8.00002 27.2626 8.00002 26.8028C7.99806 26.4786 8.21624 25.8597 8.48356 25.4274C8.87471 24.7908 8.9671 24.3801 8.97103 23.2661C8.97365 22.3504 8.87799 21.761 8.68405 21.4977C8.52287 21.2815 8.38921 20.8178 8.38528 20.4661C8.38135 20.1144 8.46783 19.6507 8.57594 19.4346C8.68405 19.2184 9.12631 18.8196 9.55874 18.5504C9.99118 18.2792 10.6555 17.5955 11.0329 17.0276C11.4693 16.3753 11.7229 15.7603 11.7209 15.3575C11.7209 15.0058 11.8526 14.4537 12.0157 14.1295C12.1769 13.8053 12.4875 13.4516 12.7037 13.3435C12.9199 13.2354 13.4939 13.147 13.9813 13.147C14.6182 13.147 15.2236 12.9545 16.1435 12.4593C16.8452 12.0801 17.4153 11.6478 17.4094 11.4946Z" fill="#F6AB2C"/>
<path d="M26.9544 4.58817C27.4949 4.41723 28.5111 4.2011 29.2148 4.10875C29.9185 4.01443 31.6423 3.97317 33.0477 4.01836C34.4531 4.06356 35.8291 4.15787 36.1062 4.2286C36.5642 4.34846 36.4757 4.42902 35.1234 5.13833C34.3057 5.56471 33.3288 6.15024 32.9494 6.43514C32.572 6.72201 31.6875 7.50206 30.9838 8.16815C30.2802 8.8362 29.3072 9.5632 28.8217 9.78523C28.3322 10.0112 27.5205 10.1939 27.0035 10.1959C26.3234 10.1979 26.1091 10.2647 26.2173 10.4376C26.3254 10.6124 26.2349 10.636 25.8733 10.524C25.604 10.4415 24.8079 10.243 24.1042 10.0839C23.4005 9.9267 22.805 9.77541 22.7794 9.75183C22.7519 9.72825 23.0625 9.3176 23.4674 8.84013C23.8723 8.36267 24.6448 7.6455 25.1853 7.2486C25.7259 6.85169 26.5219 6.33297 26.9544 6.09719C27.4497 5.82604 27.5578 5.716 27.2492 5.7946C26.9799 5.86533 26.2723 6.17578 25.6767 6.48623C25.0811 6.79668 24.0433 7.4942 23.3671 8.03651C22.1622 9.00125 22.1445 9.00911 22.4649 8.38232C22.6438 8.03061 23.1077 7.36256 23.4969 6.89885C23.8841 6.43318 24.6015 5.79263 25.087 5.47629C25.5725 5.15798 26.4138 4.75912 26.9544 4.58817Z" fill="#89B327" fill-opacity="0.97"/>
<path d="M20.5091 18.4522C19.6678 15.5088 19.4575 14.5165 19.599 14.1727C19.7798 13.7385 19.8585 13.7247 21.8752 13.7797C23.5951 13.8249 24.002 13.8937 24.1808 14.1727C24.344 14.4262 24.3204 14.8191 24.0826 15.7446C23.9076 16.4225 23.3769 18.2851 22.9032 19.8806C22.4275 21.4761 21.9735 22.7807 21.8929 22.7788C21.8123 22.7768 21.7887 22.6864 21.8437 22.5784C21.8988 22.4703 21.8654 22.3603 21.773 22.3328C21.6806 22.3053 21.1125 20.5585 20.5091 18.4522Z" fill="#F8F6E3"/>
<path d="M15.198 16.0825C15.713 15.7112 16.4285 15.218 16.7843 14.9861C17.1951 14.7209 17.5823 14.6128 17.8437 14.6914C18.0717 14.7602 18.3174 14.9056 18.3902 15.0136C18.4649 15.1217 18.799 15.9627 19.1332 16.8803C19.4673 17.7979 20.0098 19.3029 20.34 20.2205C20.6683 21.1381 20.9867 22.1343 21.0457 22.431C21.1066 22.7277 21.0889 22.9674 21.0083 22.9635C20.9278 22.9595 20.5405 22.7159 20.1474 22.4231C19.7563 22.1304 18.7381 21.3523 17.887 20.6941C17.0359 20.0358 16.2084 19.3737 16.0452 19.2204C15.884 19.0672 15.4182 18.6997 15.0133 18.403C14.4727 18.0061 14.2742 17.7153 14.2663 17.3106C14.2604 16.8724 14.4511 16.6209 15.198 16.0825Z" fill="#F8F6E3"/>
<path d="M24.5228 17.3715C24.9828 16.0747 25.4545 14.9488 25.5685 14.8702C25.6826 14.7897 25.9735 14.7229 26.2172 14.7229C26.4609 14.7209 27.2118 15.106 27.888 15.5815C28.5641 16.055 29.2265 16.5855 29.3622 16.7604C29.4978 16.9333 29.5666 17.2752 29.5174 17.5188C29.4585 17.8057 28.2752 18.8569 26.1445 20.5153C24.34 21.9201 22.7892 23.0912 22.6968 23.1187C22.6064 23.1462 22.5317 23.0578 22.5297 22.9222C22.5297 22.7866 22.7892 22.0145 23.1076 21.203C23.426 20.3934 24.0629 18.6683 24.5228 17.3715Z" fill="#F8F6E3"/>
<path d="M11.9096 21.2737C12.1749 20.4249 12.515 19.5309 12.6644 19.2872C12.8255 19.0279 13.1322 18.8451 13.4113 18.8451C13.6865 18.8451 15.2943 19.7902 17.2737 21.1126C19.1391 22.3603 20.7017 23.4881 20.7469 23.6178C20.8098 23.8005 20.1749 23.8221 17.9951 23.7082C16.4364 23.6276 14.5415 23.5647 13.7848 23.5706C12.7155 23.5765 12.2988 23.492 11.426 22.8161L11.9096 21.2737Z" fill="#F8F6E3"/>
<path d="M23.0231 23.5844C23.1312 23.4684 24.7233 22.3583 26.5612 21.1145C28.7843 19.6114 30.0835 18.853 30.4432 18.8491C30.7617 18.8471 31.0585 18.9866 31.1666 19.189C31.2668 19.3776 31.5302 20.1066 31.7523 20.81C31.9764 21.5134 32.1592 22.3308 32.1612 22.6275C32.1612 22.9478 32.0236 23.2386 31.8192 23.3407C31.6305 23.435 29.5292 23.5746 27.1509 23.6531C24.1101 23.7494 22.8855 23.7298 23.0231 23.5844Z" fill="#F8F6E3"/>
<path d="M11.8192 24.9401C12.1376 24.6159 12.5091 24.5295 13.7848 24.4843C14.6496 24.4528 16.574 24.4096 18.0599 24.386C19.5459 24.3644 20.7607 24.4135 20.7568 24.4941C20.7548 24.5747 19.2275 25.6534 17.3661 26.8893C15.5047 28.1271 13.8044 29.1705 13.5882 29.2098C13.372 29.2491 13.0516 29.1665 12.8786 29.0251C12.7037 28.8836 12.3066 27.9975 11.426 25.341L11.8192 24.9401Z" fill="#F8F6E3"/>
<path d="M25.087 25.952C23.9528 25.1582 22.9838 24.4587 22.9386 24.3978C22.8914 24.3369 24.7489 24.331 27.0663 24.386C29.6314 24.4489 31.4516 24.5747 31.7209 24.7122C32.0177 24.8635 32.1631 25.113 32.1612 25.4765C32.1612 25.7732 32.0354 26.3705 31.8801 26.8028C31.7268 27.2351 31.5499 27.8324 31.4889 28.1291C31.428 28.4258 31.2373 28.8011 31.0683 28.9642C30.8973 29.1253 30.5887 29.2589 30.3803 29.2589C30.172 29.2589 29.3602 28.8384 28.5759 28.3256C27.7916 27.8128 26.2231 26.7439 25.087 25.952Z" fill="#F8F6E3"/>
<path d="M17.9125 27.3942C18.8855 26.6476 19.9725 25.7889 20.3283 25.4864C20.684 25.1838 21.0595 24.9362 21.1636 24.9362C21.2678 24.9362 21.3523 24.9794 21.3523 25.0344C21.3523 25.0895 21.0968 25.8184 20.7823 26.6555C20.4698 27.4925 19.9784 28.8404 19.6894 29.6519C19.4005 30.4614 19.0388 31.4124 18.8835 31.7641C18.7283 32.1158 18.6005 32.4911 18.6005 32.5992C18.6005 32.7072 18.4688 32.9293 18.3056 33.0904C18.1445 33.2515 17.7789 33.3635 17.4939 33.336C17.2088 33.3085 16.9435 33.1768 16.9042 33.0413C16.8649 32.9057 16.743 32.8389 16.6349 32.8939C16.5268 32.9489 16.3283 32.8153 16.1926 32.5992C16.057 32.3811 15.8152 32.2082 15.6521 32.2101C15.4909 32.214 15.1587 32.0156 14.9169 31.77C14.6732 31.5224 14.4334 31.1019 14.3803 30.8308C14.3017 30.4319 14.457 30.1902 15.2138 29.5458C15.7248 29.1076 16.9396 28.1389 17.9125 27.3942Z" fill="#F8F6E3"/>
<path d="M22.7617 25.5257C22.6359 25.5257 22.5317 25.394 22.5317 25.2309C22.5317 25.0678 22.5769 24.9362 22.63 24.9362C22.685 24.9362 23.3258 25.3901 24.055 25.9442C24.7843 26.5002 26.3351 27.7145 27.5007 28.6459C28.6663 29.5772 29.6157 30.4496 29.6138 30.5852C29.6098 30.7208 29.5312 30.986 29.4349 31.1746C29.3405 31.3633 28.745 31.8722 28.1081 32.3044C27.4732 32.7367 26.9327 33.1572 26.9052 33.2377C26.8776 33.3183 26.6123 33.389 26.3155 33.393C26.0187 33.3989 25.6767 33.2888 25.5548 33.1474C25.4329 33.0078 25.0516 32.0981 24.7056 31.1255C24.3597 30.1529 24 29.1803 23.9056 28.9642C23.8113 28.748 23.5106 27.9523 23.2393 27.1958C22.9661 26.4393 22.799 25.7536 22.8678 25.673C22.9346 25.5925 22.8875 25.5257 22.7617 25.5257Z" fill="#F8F6E3"/>
<path d="M21.769 25.7713C21.8634 25.7438 21.883 25.5905 21.8123 25.4274C21.7356 25.2506 21.7867 25.1327 21.942 25.1327C22.1032 25.1327 22.3803 25.8459 22.685 27.0484C22.9523 28.1016 23.3455 29.5831 23.5577 30.3396C23.772 31.096 24.0255 32.0903 24.1238 32.55C24.2201 33.0098 24.2516 33.5836 24.1926 33.8272C24.1337 34.0708 23.9351 34.2929 23.7504 34.3223C23.5676 34.3518 22.6654 34.3754 21.7455 34.3774C20.3106 34.3793 20.0255 34.3223 19.7307 33.9805C19.4595 33.6661 19.4241 33.446 19.5617 32.943C19.658 32.5913 19.8742 31.8191 20.0413 31.2238C20.2103 30.6284 20.627 29.1705 20.971 27.9817C21.315 26.793 21.6747 25.7988 21.769 25.7713Z" fill="#F8F6E3"/>
<path d="M17.5057 7.35069C17.256 6.91842 16.9671 6.19535 16.8669 5.74343L16.6841 4.92212L17.199 5.11861C17.4841 5.22667 17.9813 5.48014 18.3057 5.68252C18.63 5.88294 19.1745 6.34075 19.5145 6.69835C19.8546 7.05792 20.3656 7.70436 20.6506 8.13663C20.9356 8.5689 21.1656 9.12103 21.1617 9.36467C21.1578 9.60831 21.0673 9.80676 20.9592 9.80676C20.8511 9.80676 20.4757 9.69084 20.1239 9.54937C19.772 9.4079 19.143 9.03261 18.7224 8.7143C18.3037 8.39599 17.7553 7.78296 17.5057 7.35069Z" fill="#89B327" fill-opacity="0.97"/>
<path d="M21.4349 20.5644C21.2639 19.8884 21.1754 19.1379 21.2403 18.8942C21.317 18.6074 21.5116 18.4482 21.7985 18.4443C22.0383 18.4384 22.3686 18.5779 22.5317 18.7528C22.7951 19.0377 22.7853 19.2165 22.457 20.3836C22.2526 21.1047 22.0088 21.7826 21.9125 21.8906C21.8162 21.9987 21.7396 22.0203 21.7415 21.9398C21.7435 21.8592 21.6059 21.2403 21.4349 20.5644Z" fill="#F6AB2C"/>
<path d="M23.77 20.4209C23.9843 19.9376 24.2575 19.4739 24.3774 19.3933C24.4973 19.3108 24.6172 19.242 24.6447 19.242C24.6722 19.24 24.8708 19.3265 25.087 19.4346C25.3032 19.5426 25.4821 19.8295 25.486 20.0731C25.4899 20.3639 25.1695 20.7903 24.5523 21.313C24.0354 21.7531 23.5027 22.1736 23.3671 22.2463C23.1843 22.3465 23.1548 22.2423 23.2511 21.8415C23.3219 21.5448 23.5558 20.9043 23.77 20.4209Z" fill="#F6AB2C"/>
<path d="M19.3081 21.3562C18.2487 20.4072 18.1681 20.2814 18.3803 19.8767C18.5258 19.5996 18.7931 19.4346 19.0978 19.4346C19.4713 19.4346 19.658 19.6055 19.9057 20.1714C20.0826 20.5761 20.2948 21.085 20.3794 21.3012C20.4619 21.5173 20.5818 21.8494 20.6467 22.038C20.7096 22.2266 20.6958 22.3838 20.6152 22.3877C20.5346 22.3897 19.9469 21.926 19.3081 21.3562Z" fill="#F6AB2C"/>
<path d="M16.6015 22.6117C16.5838 22.3052 16.6428 21.9948 16.7332 21.924C16.8236 21.8513 17.0811 21.7944 17.3071 21.7963C17.5312 21.8003 18.113 22.0557 18.6005 22.3681C19.086 22.6805 19.6167 23.0754 19.7799 23.2464C20.0472 23.5293 19.9587 23.549 18.7971 23.4488C18.0934 23.3898 17.3209 23.3014 17.0772 23.2543C16.7528 23.1914 16.627 23.0185 16.6015 22.6117Z" fill="#F6AB2C"/>
<path d="M23.9116 23.3643C23.9116 23.3093 24.4206 22.9359 25.0398 22.5312C25.6609 22.1284 26.2781 21.7963 26.4138 21.7944C26.5494 21.7944 26.7912 21.8356 26.9543 21.8906C27.1174 21.9457 27.2531 22.1873 27.257 22.431C27.2629 22.6746 27.1528 22.9733 27.0113 23.0971C26.8717 23.2189 26.117 23.3525 25.3327 23.3918C24.5504 23.4311 23.9096 23.4193 23.9116 23.3643Z" fill="#F6AB2C"/>
<path d="M25.826 26.066C25.4742 25.8773 24.8747 25.4667 24.4973 25.1543L23.8093 24.5884L25.2835 24.6886C26.0934 24.7436 26.8737 24.889 27.0172 25.0108C27.1607 25.1307 27.2491 25.3979 27.2138 25.6042C27.1784 25.8086 26.9975 26.0738 26.8088 26.1937C26.5474 26.3587 26.3174 26.3293 25.826 26.066Z" fill="#F6AB2C"/>
<path d="M16.6722 25.7202C16.6388 25.451 16.6585 25.1189 16.7174 24.9833C16.7882 24.8183 17.3052 24.7377 18.3017 24.7377C19.1135 24.7377 19.7838 24.7613 19.7877 24.7868C19.7917 24.8144 19.312 25.1739 18.7224 25.5846C18.056 26.0502 17.4762 26.3116 17.1912 26.2723C16.8708 26.231 16.7155 26.064 16.6722 25.7202Z" fill="#F6AB2C"/>
<path d="M23.546 27.0956C23.4339 26.8264 23.2924 26.3941 23.2315 26.1387C23.1509 25.7948 23.1862 25.7123 23.3671 25.8282C23.5027 25.9127 24.0413 26.345 24.5622 26.7851C25.3091 27.4139 25.4998 27.6929 25.4467 28.078C25.3936 28.4769 25.2717 28.5692 24.8 28.5692C24.3715 28.5692 24.1553 28.4395 23.9823 28.078C23.8545 27.8088 23.658 27.3667 23.546 27.0956Z" fill="#F6AB2C"/>
<path d="M18.9248 27.0464C19.3199 26.6967 19.7405 26.3018 19.8585 26.1701C19.9784 26.0385 20.23 25.9284 20.4187 25.9245C20.7371 25.9186 20.7332 25.9933 20.3518 26.9482C20.1258 27.516 19.8604 28.135 19.7622 28.3236C19.6639 28.5142 19.3848 28.6694 19.141 28.6714C18.8973 28.6733 18.5867 28.5633 18.4491 28.4258C18.3135 28.2882 18.2015 28.0662 18.2034 27.9306C18.2054 27.797 18.5297 27.3981 18.9248 27.0464Z" fill="#F6AB2C"/>
<path d="M21.2324 29.1095C21.1656 28.805 21.2717 28.0367 21.4781 27.3412C21.6786 26.6653 21.8929 26.1799 21.9518 26.2605C22.0108 26.341 22.1582 26.7183 22.2781 27.0956C22.4 27.4748 22.5514 28.0721 22.6143 28.4218C22.6831 28.805 22.63 29.1822 22.4826 29.365C22.3469 29.532 22.0383 29.6636 21.7946 29.6597C21.4762 29.6538 21.3189 29.5005 21.2324 29.1095Z" fill="#F6AB2C"/>
</svg>
