<svg width="125" height="50" viewBox="0 0 125 50" fill="none" xmlns="http://www.w3.org/2000/svg">
<path d="M27.6372 36.2407C21.1988 36.2407 15.9596 31.0026 15.9596 24.5631C15.9596 18.1236 21.1988 12.8848 27.6372 12.8848C34.0755 12.8848 39.3138 18.1236 39.3138 24.5631C39.3138 31.0026 34.0755 36.2407 27.6372 36.2407ZM27.6372 14.8634C22.2878 14.8634 17.9369 19.2142 17.9369 24.5633C17.9369 29.9127 22.2878 34.2642 27.6372 34.2642C32.9859 34.2642 37.3371 29.9127 37.3371 24.5633C37.3371 19.2142 32.9861 14.8634 27.6372 14.8634Z" fill="#E72A0F"/>
<path d="M51.652 36.2406C45.9499 36.2406 41.3096 31.6014 41.3096 25.9001V14.5423C41.3096 13.9969 41.7536 13.5532 42.2995 13.5532C42.8441 13.5532 43.2871 13.9969 43.2871 14.5423V25.9001C43.2871 30.5116 47.0396 34.2641 51.6518 34.2641C56.2639 34.2641 60.0158 30.5116 60.0158 25.9001V14.5423C60.0158 13.9969 60.4585 13.5532 61.0047 13.5532C61.549 13.5532 61.9932 13.9969 61.9932 14.5423V25.9001C61.9932 31.6014 57.3545 36.2406 51.652 36.2406Z" fill="#E72A0F"/>
<path d="M75.2065 35.7672C74.6622 35.7672 74.2178 35.3241 74.2178 34.7795V29.6683L74.2072 29.6679C68.9694 29.1602 64.866 24.6444 64.866 19.3855V14.5423C64.866 13.9969 65.3083 13.5532 65.8536 13.5532C66.3988 13.5532 66.8423 13.9969 66.8423 14.5423V19.3855C66.8423 23.998 70.5936 27.75 75.2063 27.75C79.8182 27.75 83.5699 23.998 83.5699 19.3855V14.5423C83.5699 13.9969 84.0142 13.5532 84.5586 13.5532C85.1036 13.5532 85.5466 13.9969 85.5466 14.5423V19.3855C85.5466 24.6442 81.4439 29.1615 76.2049 29.6679L76.1941 29.6683V34.7795C76.1945 35.3241 75.7515 35.7672 75.2065 35.7672Z" fill="#E72A0F"/>
<path d="M107.345 35.7672C106.8 35.7672 106.356 35.3241 106.356 34.7795V28.7243H89.6277V34.7795C89.6277 35.3241 89.1842 35.7672 88.6399 35.7672C88.095 35.7672 87.6512 35.3241 87.6512 34.7795V23.8952C87.6512 18.1934 92.2899 13.5532 97.9915 13.5532C103.694 13.5532 108.333 18.1932 108.333 23.8952V34.7797C108.333 35.3241 107.89 35.7672 107.345 35.7672ZM106.356 26.747V23.8952C106.356 19.2831 102.604 15.531 97.9912 15.531C93.3793 15.531 89.6276 19.2831 89.6276 23.8952V26.7472L106.356 26.747Z" fill="#E72A0F"/>
</svg>
