<svg width="92" height="15" viewBox="0 0 92 15" fill="none" xmlns="http://www.w3.org/2000/svg">
<path d="M6.68497 10.2909H4.16737V7.07407H5.80337C6.11307 7.07407 6.37677 7.06647 6.68647 7.04957C6.89197 7.04177 7.09286 6.98697 7.27386 6.88947C7.45486 6.79187 7.61117 6.65417 7.73067 6.48687C7.86307 6.31227 7.94767 6.10617 7.97597 5.88887C8.00357 5.69877 8.00667 5.53627 7.98827 5.34307C7.95607 4.99917 7.79616 4.67977 7.54016 4.44797C7.28416 4.21607 6.95067 4.08847 6.60527 4.09037H4.16737V14.5197H0.00146484V0.790771H6.80917C7.08057 0.790771 7.30897 0.795372 7.58037 0.810772C9.38807 0.907372 10.8769 1.91167 11.642 3.55067C12.0329 4.36127 12.1825 5.26707 12.0729 6.16027C11.9804 7.10627 11.5879 7.99797 10.9526 8.70497C10.3173 9.41197 9.47247 9.89727 8.54177 10.0901C7.93297 10.2272 7.31057 10.2946 6.68647 10.2909" fill="white"/>
<path d="M22.1543 13.7515C22.0991 12.9434 22.0684 12.2596 22.0515 11.4485C22.0301 10.3829 22.0178 9.48594 22.0101 8.42034C22.0101 7.87474 21.939 7.33154 21.7985 6.80434C21.7143 6.45514 21.5574 6.12764 21.3381 5.84304C21.1189 5.55854 20.8421 5.32344 20.5259 5.15294C20.1502 4.94034 19.7436 4.78774 19.3208 4.70064C17.9771 4.39874 16.5862 4.37104 15.2316 4.61944C14.8329 4.68844 14.5002 4.78504 14.1246 4.94144C13.7076 5.10614 13.3336 5.36384 13.0313 5.69484C12.7289 6.02594 12.5061 6.42164 12.3797 6.85184C12.275 7.17824 12.243 7.52374 12.2862 7.86384C12.2923 7.92814 12.3092 7.98334 12.3383 8.04314L15.6394 8.12444C15.6293 7.92524 15.6595 7.72594 15.7284 7.53874C15.7777 7.39414 15.8595 7.26284 15.9674 7.15464C16.0752 7.04654 16.2064 6.96444 16.3509 6.91474C16.7736 6.75254 17.2398 6.74444 17.6679 6.89174C17.8098 6.93564 17.9386 7.01384 18.0429 7.11954C18.1472 7.22514 18.2238 7.35494 18.2659 7.49734C18.3211 7.68134 18.2935 7.86534 18.1816 8.02324C18.0895 8.15824 17.9577 8.26114 17.8044 8.31764C17.7063 8.35594 17.6204 8.38204 17.5207 8.40964C17.0865 8.52804 16.6463 8.62374 16.2021 8.69634C15.8311 8.75764 15.5183 8.81444 15.1503 8.88954C14.6767 8.98244 14.2092 9.10434 13.7504 9.25444C13.3271 9.38674 12.9392 9.61314 12.6158 9.91684C12.1825 10.3016 11.9036 10.8306 11.8308 11.4056C11.7741 11.8058 11.7879 12.1538 11.8768 12.5479C11.9797 13.0387 12.2159 13.4917 12.5594 13.8572C12.9029 14.2226 13.3405 14.4863 13.824 14.6193C14.8914 14.946 16.0395 14.888 17.0684 14.4552C17.5711 14.2597 18.014 13.9362 18.3533 13.5169L18.1202 11.8303C17.9648 12.0785 17.7368 12.2728 17.4671 12.3869C17.2064 12.5019 16.9688 12.5632 16.6851 12.5923C16.4475 12.6153 16.242 12.5985 16.012 12.5341C15.8335 12.4879 15.6721 12.3909 15.5474 12.255C15.438 12.1408 15.3635 11.9977 15.3328 11.8426C15.3066 11.7243 15.3137 11.6012 15.3532 11.4867C15.3927 11.3722 15.4631 11.2709 15.5566 11.194C15.6782 11.088 15.8186 11.0058 15.9706 10.9517C16.3337 10.8174 16.7019 10.6978 17.0746 10.593C17.5483 10.4596 17.9393 10.3154 18.3886 10.1084C18.4315 10.4672 18.43 10.7739 18.3794 11.1311C18.3441 11.3933 18.2628 11.6095 18.1202 11.8303L18.3533 13.5169C18.4254 13.7561 18.4913 13.9554 18.5741 14.1915C18.6201 14.3219 18.6814 14.423 18.7734 14.5258H22.4072C22.2568 14.2947 22.1695 14.0283 22.1543 13.753" fill="white"/>
<path d="M26.5009 5.74944C26.956 5.34544 27.4693 5.01214 28.0234 4.76054C28.9278 4.32634 29.9628 4.24964 30.9213 4.54584C31.437 4.68794 31.9083 4.95854 32.2909 5.33234C32.6736 5.70614 32.9551 6.17094 33.1092 6.68324C33.2679 7.16974 33.3466 7.67874 33.3423 8.19044V14.5197H29.4478V8.82824C29.4478 8.63814 29.4233 8.47564 29.3681 8.29464C29.3225 8.13754 29.2419 7.99274 29.1322 7.87134C29.0225 7.75004 28.8866 7.65514 28.7348 7.59394C28.4046 7.45174 28.0336 7.43564 27.6922 7.54864C27.3508 7.66174 27.0628 7.89604 26.8827 8.20724C26.7282 8.46284 26.6485 8.75654 26.6527 9.05514V14.5197H22.8809V4.71294H26.4181L26.5009 5.74944Z" fill="white"/>
<path d="M44.1718 13.7515C44.1166 12.9434 44.0859 12.2596 44.0691 11.4485C44.0476 10.3829 44.0353 9.48594 44.0277 8.42034C44.0277 7.87474 43.9566 7.33154 43.8161 6.80434C43.7318 6.45514 43.575 6.12764 43.3557 5.84304C43.1364 5.55854 42.8597 5.32344 42.5435 5.15294C42.1678 4.94034 41.7612 4.78774 41.3383 4.70064C39.9946 4.39874 38.6038 4.37104 37.2491 4.61944C36.8505 4.68844 36.5178 4.78504 36.1421 4.94144C35.7251 5.10614 35.3512 5.36384 35.0488 5.69484C34.7464 6.02594 34.5236 6.42164 34.3973 6.85184C34.2925 7.17824 34.2606 7.52374 34.3037 7.86384C34.3099 7.92814 34.3267 7.98334 34.3559 8.04314L37.657 8.12444C37.6468 7.92524 37.6771 7.72594 37.7459 7.53874C37.7953 7.39414 37.877 7.26284 37.9849 7.15464C38.0928 7.04654 38.224 6.96444 38.3684 6.91474C38.7911 6.75254 39.2574 6.74444 39.6855 6.89174C39.8273 6.93564 39.9561 7.01384 40.0604 7.11954C40.1648 7.22514 40.2414 7.35494 40.2835 7.49734C40.3387 7.68134 40.3111 7.86534 40.1991 8.02324C40.1071 8.15824 39.9752 8.26114 39.8219 8.31764C39.7238 8.35594 39.638 8.38204 39.5383 8.40964C39.104 8.52804 38.6639 8.62374 38.2197 8.69634C37.8486 8.75764 37.5359 8.81444 37.1679 8.88954C36.6942 8.98244 36.2267 9.10434 35.768 9.25444C35.3446 9.38674 34.9567 9.61314 34.6334 9.91684C34.2001 10.3016 33.9212 10.8306 33.8484 11.4056C33.7916 11.8058 33.8054 12.1538 33.8944 12.5479C33.9973 13.0387 34.2334 13.4917 34.577 13.8572C34.9205 14.2226 35.358 14.4863 35.8416 14.6193C36.9089 14.946 38.0571 14.888 39.086 14.4552C39.5887 14.2597 40.0316 13.9362 40.3709 13.5169L40.1378 11.8303C39.9824 12.0785 39.7543 12.2728 39.4846 12.3869C39.224 12.5019 38.9863 12.5632 38.7027 12.5923C38.465 12.6153 38.2596 12.5985 38.0296 12.5341C37.851 12.4879 37.6897 12.3909 37.565 12.255C37.4556 12.1408 37.3811 11.9977 37.3503 11.8426C37.3242 11.7243 37.3312 11.6012 37.3707 11.4867C37.4103 11.3722 37.4807 11.2709 37.5742 11.194C37.6958 11.088 37.8362 11.0058 37.9882 10.9517C38.3512 10.8174 38.7195 10.6978 39.0921 10.593C39.5659 10.4596 39.9569 10.3154 40.4061 10.1084C40.449 10.4672 40.4475 10.7739 40.3969 11.1311C40.3617 11.3933 40.2804 11.6095 40.1378 11.8303L40.3709 13.5169C40.4429 13.7561 40.5088 13.9554 40.5916 14.1915C40.6376 14.3219 40.699 14.423 40.791 14.5258H44.4248C44.2743 14.2947 44.1871 14.0283 44.1718 13.753" fill="white"/>
<path d="M49.6145 10.9151C49.8951 10.9626 50.1297 11.0224 50.3996 11.1113C50.5078 11.1452 50.6048 11.2076 50.6803 11.2921C50.7559 11.3766 50.8072 11.48 50.8289 11.5912C50.8567 11.7112 50.8531 11.8363 50.8185 11.9545C50.7838 12.0727 50.7193 12.1799 50.6311 12.2659C50.4571 12.4463 50.2277 12.5635 49.9795 12.5986C49.6329 12.6538 49.3263 12.6262 48.9982 12.5066C48.8453 12.4536 48.7034 12.373 48.5796 12.2689C48.4168 12.1351 48.2977 11.9557 48.2377 11.7538C48.1843 11.5848 48.1594 11.4081 48.1641 11.2309H44.5732V11.4394C44.5732 11.7768 44.6253 12.0635 44.7434 12.3809C44.9243 12.8562 45.1712 13.2241 45.5437 13.5707C46.003 14.0084 46.5643 14.3246 47.1767 14.4906C48.4376 14.8651 49.767 14.949 51.065 14.7359C51.6743 14.6481 52.264 14.4563 52.8083 14.1686C53.0499 14.0444 53.2763 13.8926 53.483 13.7163C53.9538 13.3326 54.2965 12.8144 54.4652 12.2309C54.634 11.6474 54.6208 11.0263 54.4275 10.4505C54.2931 10.0149 54.0366 9.6269 53.6884 9.3327C53.2205 8.9188 52.6648 8.6163 52.0632 8.448L51.6707 8.3361C50.9416 8.1307 50.2 7.973 49.4505 7.8639C49.2389 7.8332 49.061 7.7995 48.8525 7.7504C48.7612 7.7288 48.6723 7.698 48.5873 7.6584C48.5347 7.6349 48.4873 7.6012 48.4478 7.5593C48.4082 7.5174 48.3773 7.4682 48.3568 7.4144C48.3363 7.3605 48.3266 7.3032 48.3283 7.2456C48.3299 7.1881 48.3429 7.1314 48.3665 7.0788L48.3833 7.0451C48.4384 6.9437 48.5133 6.8545 48.6037 6.7829C48.6941 6.7112 48.798 6.6585 48.9093 6.6281C49.3202 6.51 49.6973 6.5207 50.1006 6.6557C50.2863 6.717 50.4467 6.8377 50.557 6.9993C50.6673 7.1609 50.7214 7.3542 50.7108 7.5495H54.1729C54.1729 7.1456 54.1013 6.7448 53.9613 6.3659C53.8264 5.9765 53.5801 5.6353 53.253 5.3846C52.9747 5.1608 52.6626 4.9828 52.3284 4.8571C52.0047 4.7297 51.6687 4.6362 51.3257 4.5781C50.5129 4.4327 49.6856 4.3864 48.8617 4.4401C48.3649 4.4677 47.9464 4.529 47.4603 4.6425C46.8071 4.7958 46.2797 5.0488 45.7523 5.4628C45.3187 5.7937 44.9944 6.2472 44.8216 6.7645C44.6121 7.3893 44.635 8.0687 44.886 8.678C45.0168 9.0221 45.219 9.3346 45.4793 9.595C45.7396 9.8553 46.0521 10.0575 46.3962 10.1883C46.7596 10.3324 47.077 10.4275 47.4603 10.5057C48.2162 10.6621 48.8556 10.7832 49.6161 10.9135M61.3777 4.526C60.9898 4.4646 60.6586 4.4386 60.2661 4.4386C59.8736 4.4386 59.544 4.4646 59.1545 4.526C58.074 4.6801 57.0716 5.1773 56.295 5.9442C55.4372 6.7431 54.9117 7.8358 54.823 9.0046C54.7524 9.7137 54.8174 10.4297 55.0147 11.1144C55.3213 12.2214 55.9009 13.077 56.8132 13.7746C57.3803 14.2202 58.0433 14.5278 58.7497 14.6731C59.2479 14.7848 59.7571 14.8393 60.2677 14.8356C60.8043 14.8356 61.2581 14.7896 61.7841 14.6731C62.4905 14.5277 63.1534 14.2201 63.7206 13.7746L61.6139 11.4778C61.5343 11.6547 61.4206 11.8142 61.2794 11.9472C61.1381 12.0802 60.9721 12.1841 60.7906 12.2529C60.6092 12.3216 60.416 12.354 60.2221 12.3481C60.0282 12.3421 59.8374 12.2981 59.6605 12.2183C59.3285 12.0746 59.0636 11.8098 58.9199 11.4778C58.7822 11.1775 58.6887 10.8588 58.6424 10.5317C58.5381 9.8418 58.5504 9.2438 58.6838 8.56C58.7528 8.2058 58.8724 7.916 59.0702 7.6124C59.2006 7.4144 59.3781 7.2519 59.5869 7.1394C59.7956 7.027 60.029 6.9681 60.2661 6.9681C60.5032 6.9681 60.7366 7.027 60.9454 7.1394C61.1541 7.2519 61.3316 7.4144 61.4621 7.6124C61.6543 7.8985 61.7858 8.221 61.8484 8.56C61.9818 9.2453 61.9956 9.8433 61.8914 10.5317C61.8392 10.8767 61.7565 11.1604 61.6139 11.4778L63.7206 13.7746C64.6046 13.118 65.2385 12.1797 65.5175 11.1144C65.7184 10.3937 65.7767 9.7498 65.7092 9.0046C65.6209 7.8357 65.0953 6.743 64.2373 5.9442C63.4609 5.177 62.4583 4.6798 61.3777 4.526Z" fill="white"/>
<path d="M69.8754 5.74944C70.3306 5.34544 70.8438 5.01214 71.3979 4.76054C72.3023 4.32634 73.3373 4.24964 74.2958 4.54584C74.8115 4.68794 75.2828 4.95854 75.6654 5.33234C76.0481 5.70614 76.3297 6.17094 76.4838 6.68324C76.6424 7.16974 76.7211 7.67874 76.7168 8.19044V14.5197H72.8223V8.82824C72.8223 8.63814 72.7978 8.47564 72.7426 8.29464C72.6971 8.13754 72.6164 7.99274 72.5067 7.87134C72.397 7.75004 72.2611 7.65514 72.1094 7.59394C71.7791 7.45174 71.4081 7.43564 71.0667 7.54864C70.7254 7.66174 70.4373 7.89604 70.2572 8.20724C70.1027 8.46284 70.023 8.75654 70.0272 9.05514V14.5197H66.2554V4.71294H69.7926L69.8754 5.74944Z" fill="white"/>
<path d="M77.4712 0.790771V3.38197H81.1372V0.790771H77.4712ZM77.4712 4.71447V14.5212H81.1372V4.71447H77.4712ZM90.9851 13.2486C90.2871 14.0043 89.3631 14.5146 88.3511 14.7037C87.6401 14.8478 87.0171 14.8784 86.2951 14.8033C85.3781 14.7213 84.5041 14.3799 83.7741 13.819C83.1691 13.3776 82.6661 12.8119 82.2979 12.16C82.0035 11.6609 81.8069 11.1104 81.7183 10.5378C81.5803 9.70367 81.6171 8.97077 81.8364 8.15507C82.3377 6.29977 83.7311 4.98577 85.6131 4.59487C86.6861 4.37247 87.6401 4.39547 88.7021 4.66997C89.4261 4.84787 90.0901 5.21207 90.6301 5.72637C90.9751 6.04117 91.2601 6.41567 91.4731 6.83187C91.7361 7.32007 91.8571 7.87277 91.8211 8.42647H88.4681C88.4361 8.21197 88.3631 8.00587 88.2511 7.82007C88.1401 7.63417 87.9921 7.47237 87.8181 7.34397C87.5951 7.16987 87.3241 7.06897 87.0421 7.05527C86.7601 7.04147 86.4811 7.11557 86.2431 7.26727C85.9101 7.46687 85.6641 7.78347 85.5531 8.15507C85.2661 9.02747 85.2511 9.96637 85.5101 10.8475C85.6091 11.2207 85.8131 11.5579 86.0971 11.8196C86.2551 11.9745 86.4461 12.09 86.6571 12.1566C86.8671 12.2232 87.0911 12.2391 87.3081 12.2029C87.5831 12.1676 87.8351 12.0322 88.0171 11.8227C88.2111 11.6123 88.3391 11.3494 88.3851 11.0668C88.4221 10.8598 88.4421 10.6834 88.4541 10.4734H91.9881C92.0301 10.9808 91.9621 11.4914 91.7891 11.9702C91.6161 12.4491 91.3421 12.8851 90.9851 13.2486Z" fill="white"/>
</svg>
