<svg width="96" height="22" viewBox="0 0 96 22" fill="none" xmlns="http://www.w3.org/2000/svg">
<g clip-path="url(#clip0_2216_4912)">
<path d="M95.6472 4.48022H53.4022V22H95.6472V4.48022Z" fill="#0075C1"/>
<path d="M16.3506 10.4618C16.3506 8.07253 14.3967 6.11865 12.0075 6.11865H0.35276V20.1523H3.15675V14.8048H12.0109C14.4001 14.8048 16.354 12.851 16.354 10.4618H16.3506ZM11.9629 12.2785H3.15675V8.92264H11.9629C12.885 8.92264 13.6391 9.67677 13.6391 10.5989C13.6391 11.521 12.885 12.2751 11.9629 12.2751V12.2785Z" fill="white"/>
<path d="M21.6432 6.11865L14.8355 20.1523H17.7046L23.0623 9.44025L28.7731 20.1523H31.6114L24.5466 6.11865H21.6432Z" fill="white"/>
<path d="M47.3556 6.11865V17.41L37.192 6.11865H35.9648H33.2877V20.1523H35.9648V9.03576L46.2244 20.1523H47.3556H50.0327V6.11865H47.3556Z" fill="white"/>
<path d="M64.937 6.11865V14.9317C64.937 16.3028 63.8161 17.4237 62.4449 17.4237H61.8108C60.6453 17.4237 59.6615 16.6113 59.3941 15.5247H56.4016C56.9706 18.1607 59.3256 20.1557 62.1261 20.1557C65.3483 20.1557 67.9843 17.5197 67.9843 14.2975V6.12208H64.9335L64.937 6.11865Z" fill="white"/>
<path d="M74.8264 6.11865H71.8099V20.1523H74.8264V6.11865Z" fill="white"/>
<path d="M86.4744 6.11865H83.4579V20.1523H86.4744V6.11865Z" fill="white"/>
<path d="M91.9794 9.13517V6.11865L77.9457 6.11865V9.13517H91.9794Z" fill="white"/>
<path d="M67.7616 0H64.7108V3.05079H67.7616V0Z" fill="#0075C1"/>
<path d="M74.8436 0H71.7928V3.05079H74.8436V0Z" fill="#0075C1"/>
</g>
<defs>
<clipPath id="clip0_2216_4912">
<rect width="95.2945" height="22" fill="white" transform="translate(0.35276)"/>
</clipPath>
</defs>
</svg>
