<svg width="105" height="26" viewBox="0 0 105 26" fill="none" xmlns="http://www.w3.org/2000/svg">
<mask id="mask0_12_3931" style="mask-type:luminance" maskUnits="userSpaceOnUse" x="0" y="0" width="105" height="26">
<path d="M105 0.919922H0.5V25.0802H105V0.919922Z" fill="white"/>
</mask>
<g mask="url(#mask0_12_3931)">
<path d="M31.2239 13.2195H29.3594V9.55707H31.3529C33.6124 9.55707 33.9347 10.4785 33.9347 11.3138C33.9347 12.1491 33.5647 13.2195 31.2239 13.2195ZM31.3818 7.72437H27.2817V18.2758H29.3594V15.0522H31.1524C34.2409 15.0522 36.0123 13.6976 36.0123 11.2651C36.0123 9.64977 35.2089 7.72437 31.3818 7.72437Z" fill="white"/>
<path d="M59.8633 9.55707H63.7235L63.7309 18.2759H65.8088V9.55707H69.6757V7.72437H59.8633V9.55707Z" fill="white"/>
<path d="M73.5997 7.72437H71.522V18.2759H73.5997V7.72437Z" fill="white"/>
<path d="M84.5486 15.8588C83.5037 16.3444 82.6542 16.601 81.5846 16.601C79.3977 16.601 77.8418 15.0716 77.8418 12.9859C77.8418 10.95 79.4023 9.39935 81.513 9.39935C82.7178 9.39935 83.4996 9.67875 84.4963 10.139L85.0734 8.32015C83.9364 7.81315 82.7531 7.56665 81.4556 7.56665C78.2109 7.56665 75.7642 9.90875 75.7642 13.0146C75.7642 16.2053 78.1163 18.4337 81.4843 18.4337C82.7555 18.4337 83.9893 18.1503 85.1518 17.5909L84.5486 15.8588Z" fill="white"/>
<path d="M89.2747 7.72437H87.1968V18.2759H94.9561V16.4431H89.2747V7.72437Z" fill="white"/>
<path d="M98.8822 16.4431V13.7997H104.211V11.9669H98.8822V9.55707H104.914V7.72437H96.8052V18.2758H105V16.4431H98.8822Z" fill="white"/>
<path d="M39.8462 14.2358L41.7761 9.79636L43.7067 14.2358H39.8462ZM42.8358 7.62036H40.7315L35.9072 18.2758H38.0868L39.0453 16.0686H44.5076L45.466 18.2758H47.6449L42.8358 7.62036Z" fill="white"/>
<path d="M56.2931 11.0644C56.2931 12.1528 55.2902 12.8575 53.4768 12.8575H51.4418V9.55717H54.1241C55.6375 9.55717 56.2931 10.1125 56.2931 11.0644ZM55.4583 14.1193C57.4095 13.5713 58.3673 12.3847 58.3673 10.8638C58.3673 9.43157 57.6212 7.72437 54.0666 7.72437H49.3643V18.2759H51.4418V14.6902H52.6326C53.5911 14.6902 54.1088 14.9568 54.7649 15.6967L57.1069 18.2759H59.7393L56.7268 15.0108C56.3297 14.554 55.9158 14.2943 55.4583 14.1193Z" fill="white"/>
<path d="M8.8528 7.7243H10.9316V11.9607H19.2842L9.8922 2.5686L0.5 11.9607H8.8528V7.7243Z" fill="#00E1FF"/>
<path d="M10.9315 18.2759H8.8526V14.0396H0.5L9.8921 23.4317L19.2842 14.0396H10.9315V18.2759Z" fill="#00E1FF"/>
</g>
</svg>
