<svg width="125" height="50" viewBox="0 0 125 50" fill="none" xmlns="http://www.w3.org/2000/svg">
<g clip-path="url(#clip0_56_181)">
<path d="M87.5 0H37.5V50H87.5V0Z" fill="#0099D8"/>
<path d="M52.2422 26.0654H73.1223L62.6823 38.4997L52.2422 26.0654ZM50.0672 22.4037V26.0654L62.6823 40.9909L75.2972 26.0654V22.4037H50.0672Z" fill="white"/>
<path d="M50.0694 21.3683V8.86536H53.1971C55.6766 9.00043 58.1322 10.2203 58.1996 13.629C58.2692 17.1535 54.6239 18.5363 53.5734 18.5363V21.3683H50.0694ZM54.0301 12.1498L53.4624 12.0618L53.4342 15.4298C54.3759 15.4813 54.9415 14.27 54.7653 13.3589C54.5478 12.2698 54.2215 12.2526 54.0301 12.1498Z" fill="white"/>
<path d="M58.6911 8.86536H64.4287V12.0404H62.1298V13.5583H64.3765V16.5103H62.1298V18.4162H64.4287V21.3683H58.6911V8.86536Z" fill="white"/>
<path d="M65.0705 8.93176V21.3683L68.6135 21.3725L68.5961 17.8502L70.1164 20.8837L71.7999 17.8437V21.3683H75.3039V8.93176H71.7999L70.1861 12.3855L68.5744 8.93176H65.0705Z" fill="white"/>
<path d="M76.7847 10.9517H76.495V9.58362H77.0032C77.3532 9.58362 77.5606 9.68625 77.5606 10.0009C77.5649 10.048 77.5592 10.0955 77.5443 10.1402C77.5294 10.1848 77.5057 10.2255 77.4745 10.2595C77.4433 10.2935 77.4053 10.32 77.3635 10.3372C77.3216 10.3543 77.2769 10.3617 77.2323 10.3589L77.5801 10.9609H77.2365L76.923 10.3817H76.7847V10.9517ZM77.0418 10.14C77.1738 10.14 77.2582 10.1126 77.2582 9.95986C77.2582 9.8071 77.1089 9.80937 76.9986 9.80937H76.7933V10.14H77.0418ZM76.9965 11.5423C76.3245 11.5423 75.7277 11.0726 75.7277 10.2654C75.7163 9.99841 75.7805 9.73383 75.9128 9.50578C76.0447 9.2777 76.2386 9.0966 76.4691 8.98578C76.6996 8.875 76.9564 8.83954 77.2064 8.88401C77.456 8.92852 77.6876 9.05089 77.8709 9.23539C78.0543 9.4199 78.1812 9.65805 78.2351 9.91922C78.2887 10.1804 78.2674 10.4526 78.1734 10.7008C78.0791 10.949 77.917 11.1618 77.7071 11.3117C77.4975 11.4617 77.25 11.542 76.9965 11.5423ZM76.9965 9.28493C76.75 9.28493 76.5138 9.38823 76.3394 9.5721C76.1649 9.75596 76.067 10.0054 76.067 10.2654C76.067 10.5255 76.1649 10.7748 76.3394 10.9587C76.5138 11.1426 76.75 11.2459 76.9965 11.2459C77.2355 11.2337 77.461 11.125 77.6262 10.9422C77.7911 10.7595 77.8833 10.5167 77.8833 10.2643C77.8833 10.0118 77.7911 9.76905 77.6262 9.58628C77.461 9.40352 77.2355 9.29479 76.9965 9.28263" fill="white"/>
</g>
<defs>
<clipPath id="clip0_56_181">
<rect width="50" height="50" fill="white" transform="translate(37.5)"/>
</clipPath>
</defs>
</svg>
