<svg width="178" height="31" viewBox="0 0 178 31" fill="none" xmlns="http://www.w3.org/2000/svg">
<g clip-path="url(#clip0_2394_4592)">
<path d="M0 0.860352H5.45471V25.4242C5.37252 25.4326 5.28902 25.4489 5.20552 25.4489C3.56559 25.4502 1.9263 25.4509 0.286369 25.4489C0.19113 25.4489 0.0952389 25.4229 0 25.4085C0 17.2258 0 9.04372 0 0.861004L0 0.860352Z" fill="#E60021"/>
<path d="M111.199 25.408H106.368V25.0153C106.368 21.4882 106.375 17.9617 106.36 14.4346C106.358 13.931 106.294 13.4144 106.171 12.9265C105.9 11.8593 105.169 11.2696 104.143 11.2096C102.922 11.1378 102.02 11.6538 101.591 12.6688C101.328 13.2911 101.274 13.9493 101.273 14.6127C101.27 18.0635 101.272 21.5143 101.272 24.9651C101.272 25.1034 101.272 25.2423 101.272 25.4008H96.4757V7.21018H101.253V8.67856C101.274 8.70009 101.294 8.72161 101.315 8.74314C102.602 7.4385 104.168 6.83901 105.97 6.85402C107.771 6.86967 109.379 7.33869 110.544 8.87099C110.703 8.71966 110.853 8.56701 111.013 8.42546C112.007 7.54678 113.191 7.09603 114.488 6.93099C115.662 6.78161 116.841 6.764 117.951 7.24541C119.82 8.05625 120.899 9.47635 121.084 11.524C121.137 12.1169 121.148 12.7151 121.15 13.3107C121.155 17.2064 121.152 21.102 121.152 24.9983C121.152 25.1255 121.152 25.2534 121.152 25.4015H116.322V24.9833C116.322 21.4347 116.334 17.8861 116.31 14.3381C116.306 13.7954 116.206 13.2311 116.032 12.7171C115.7 11.7334 114.899 11.2161 113.865 11.205C112.746 11.1933 111.871 11.6955 111.524 12.6747C111.329 13.2252 111.216 13.8345 111.212 14.419C111.184 17.935 111.198 21.451 111.198 24.967V25.4093L111.199 25.408Z" fill="#E60021"/>
<path d="M171.759 0.0376789C171.464 0.693262 171.172 1.33971 170.863 2.02595H173.221V0.350141H176.126V2.05074H177.025V4.61371C176.887 4.61371 176.759 4.61371 176.632 4.61371C174.426 4.61371 172.22 4.61893 170.014 4.60719C169.754 4.60588 169.628 4.68612 169.532 4.92291C169.341 5.39258 169.117 5.84856 168.879 6.37041H177.756V8.91055H175.776C176.511 10.4755 177.221 11.9869 177.951 13.5414H176.148V15.8147H177.047C177.047 15.9758 177.047 16.092 177.047 16.2074C177.047 18.3992 177.048 20.591 177.047 22.7828C177.046 24.2447 175.868 25.441 174.404 25.4469C172.057 25.456 169.709 25.4469 167.362 25.4541C167.118 25.4547 167.014 25.4045 167.023 25.1325C167.043 24.4932 167.042 23.852 167.023 23.212C167.015 22.9479 167.105 22.8839 167.357 22.8852C169.248 22.8944 171.138 22.8911 173.03 22.8898C173.757 22.8898 173.941 22.7071 173.941 21.9935C173.941 20.8011 173.941 19.608 173.941 18.3653C173.795 18.3653 173.67 18.3653 173.544 18.3653C171.056 18.3653 168.567 18.3653 166.078 18.3653C164.782 18.3653 164.08 17.6673 164.08 16.3803C164.08 15.7188 164.08 15.0574 164.08 14.3672H167.02C167.02 14.6882 167.015 15.0091 167.022 15.33C167.028 15.6784 167.144 15.8141 167.492 15.8154C169.296 15.8206 171.099 15.8141 172.903 15.8108C172.923 15.8108 172.943 15.7971 172.988 15.7808V13.5636H162.031C162.742 12.0012 163.429 10.4892 164.138 8.93077H162.095V6.40368C162.21 6.3952 162.324 6.38085 162.438 6.3802C163.296 6.37824 164.155 6.37107 165.013 6.38411C165.232 6.38737 165.345 6.31692 165.428 6.11731C165.632 5.63068 165.859 5.15318 166.104 4.61241C165.933 4.61241 165.819 4.61241 165.705 4.61241C164.835 4.61241 163.966 4.60393 163.097 4.61763C162.851 4.62154 162.779 4.54391 162.784 4.30255C162.799 3.6411 162.795 2.979 162.786 2.31689C162.784 2.12315 162.842 2.03835 163.046 2.05074C163.261 2.06379 163.478 2.054 163.731 2.054V0.356012H166.473V2.05466C166.684 2.05466 166.871 2.08271 167.044 2.04487C167.166 2.01813 167.32 1.92745 167.373 1.82243C167.634 1.29927 167.859 0.757841 168.117 0.233375C168.166 0.132265 168.308 0.011586 168.408 0.0102814C169.484 -0.00472203 170.56 0.00245351 171.635 0.00441047C171.666 0.00441047 171.696 0.0200662 171.76 0.0376789H171.759ZM166.781 10.9751H173.354C173.04 10.3098 172.75 9.68225 172.443 9.06385C172.408 8.9934 172.276 8.93208 172.189 8.93143C170.765 8.92295 169.342 8.9236 167.919 8.93012C167.834 8.93012 167.703 8.96991 167.674 9.02993C167.372 9.66137 167.087 10.3013 166.78 10.9758L166.781 10.9751Z" fill="#E60021"/>
<path d="M21.4679 0.87207H26.2677V8.53424C26.8255 8.17089 27.3323 7.74819 27.9103 7.48008C29.8966 6.55901 31.8986 6.61511 33.8353 7.62359C35.1393 8.30201 35.804 9.50032 36.1028 10.8832C36.2711 11.6608 36.348 12.4716 36.3533 13.2681C36.378 17.1964 36.3604 21.1247 36.3715 25.0523C36.3722 25.3622 36.2763 25.4307 35.986 25.4274C34.6168 25.4137 33.2476 25.4215 31.8783 25.4215H31.5196C31.5196 25.2441 31.5196 25.1065 31.5196 24.9682C31.5196 21.4959 31.5267 18.0236 31.5117 14.5506C31.5098 14.0353 31.4589 13.5062 31.333 13.0079C31.044 11.8643 30.1914 11.2231 29.0427 11.2035C27.7668 11.1814 26.8124 11.8056 26.4804 12.9433C26.3512 13.3842 26.2814 13.8585 26.2795 14.3184C26.2631 17.8774 26.2703 21.4365 26.2703 24.9962V25.4H21.4673V0.87207H21.4679Z" fill="#E60021"/>
<path d="M92.7001 25.5121H87.9147V23.6556C87.8175 23.7594 87.7738 23.7991 87.7379 23.8455C86.8044 25.062 85.5467 25.6628 84.0353 25.7248C82.7209 25.7789 81.4573 25.5565 80.3301 24.8252C79.0483 23.9935 78.3803 22.7522 78.0822 21.3034C77.9433 20.6282 77.8611 19.9296 77.8578 19.2407C77.8369 15.3353 77.848 11.4292 77.848 7.52308C77.848 7.42654 77.848 7.32999 77.848 7.20931H82.6785C82.6785 7.34173 82.6785 7.46894 82.6785 7.59549C82.6785 11.1761 82.6719 14.756 82.6869 18.3366C82.6889 18.7971 82.7581 19.2688 82.8742 19.7143C83.1305 20.7 83.8722 21.3321 84.8135 21.439C85.9753 21.5715 86.8833 21.1357 87.3954 20.197C87.7972 19.4612 87.9023 18.6575 87.9036 17.8382C87.9094 14.4318 87.9062 11.0247 87.9062 7.61767C87.9062 7.48851 87.9062 7.36 87.9062 7.20801H92.7001V25.5108V25.5121Z" fill="#E60021"/>
<path d="M42.4257 30.6966C42.5822 30.242 42.7192 29.8343 42.8627 29.4285C43.3507 28.0502 43.836 26.6712 44.3344 25.2961C44.4179 25.0658 44.4068 24.8714 44.32 24.6431C42.1615 18.9275 40.0095 13.2092 37.8581 7.49161C37.8249 7.4029 37.8001 7.31027 37.7609 7.18567H38.5607C39.789 7.18567 41.0173 7.19611 42.245 7.17785C42.5261 7.17393 42.6305 7.27308 42.7205 7.52423C43.9912 11.0618 45.2731 14.5954 46.5529 18.129C46.596 18.2477 46.6468 18.3632 46.7186 18.5413C47.2926 16.9209 47.8432 15.3703 48.3918 13.8191C49.1394 11.7056 49.8895 9.59209 50.6286 7.47596C50.7043 7.25873 50.8008 7.17785 51.0396 7.1798C52.506 7.1922 53.9731 7.18633 55.4819 7.18633C55.2125 7.95541 54.9542 8.69841 54.6919 9.43944C52.2222 16.4128 49.7499 23.3854 47.2881 30.3613C47.1961 30.621 47.0793 30.7058 46.8073 30.7032C45.4818 30.6895 44.1556 30.6966 42.8295 30.6966C42.712 30.6966 42.5946 30.6966 42.4263 30.6966H42.4257Z" fill="#E60021"/>
<path d="M152.935 0.362305C153.08 0.362305 153.197 0.362305 153.314 0.362305C155.444 0.362305 157.574 0.362305 159.704 0.362305C160.683 0.362305 161.266 0.941566 161.266 1.91613C161.266 9.08775 161.266 16.26 161.266 23.4316C161.266 24.643 160.457 25.448 159.243 25.4493C158.562 25.4499 157.88 25.4493 157.184 25.4493V22.885C157.406 22.885 157.63 22.8954 157.851 22.8824C158.194 22.8622 158.428 22.6776 158.432 22.3423C158.449 20.9235 158.439 19.5047 158.439 18.063H155.726V25.4297H152.935V0.362305H152.935ZM155.765 10.7518C155.744 10.8079 155.731 10.8275 155.731 10.8471C155.727 12.1484 155.728 13.4498 155.72 14.7512C155.719 14.9567 155.828 14.9769 155.987 14.9763C156.693 14.9736 157.399 14.9639 158.105 14.9808C158.378 14.9873 158.457 14.8986 158.454 14.6299C158.442 13.4479 158.449 12.2652 158.448 11.0832C158.448 10.9775 158.438 10.8719 158.431 10.7512H155.765L155.765 10.7518ZM155.744 3.44322V7.6533C156.598 7.6533 157.431 7.65786 158.264 7.64482C158.326 7.64351 158.439 7.51827 158.44 7.44977C158.45 6.18231 158.45 4.9142 158.44 3.64674C158.44 3.5789 158.326 3.45365 158.264 3.45235C157.431 3.4393 156.598 3.44387 155.745 3.44387L155.744 3.44322Z" fill="#E60021"/>
<path d="M150.286 22.0237V25.4503H149.887C146.126 25.4503 142.366 25.4503 138.606 25.4503C136.196 25.4503 134.425 23.6936 134.424 21.2846C134.42 15.7608 134.423 10.2376 134.423 4.71371V4.25904H124.934C124.921 4.14358 124.904 4.06139 124.903 3.97854C124.901 3.02354 124.905 2.06855 124.899 1.11355C124.898 0.925026 124.92 0.812827 125.158 0.813479C129.483 0.81935 133.809 0.818046 138.134 0.81935C138.176 0.81935 138.218 0.829787 138.311 0.842182V1.25053C138.311 7.54478 138.311 13.8384 138.311 20.1326C138.311 21.147 138.855 21.845 139.767 22.0009C139.905 22.0244 140.048 22.0224 140.189 22.0224C143.417 22.0237 146.644 22.0231 149.873 22.0231H150.286V22.0237Z" fill="#E60021"/>
<path d="M65.8218 25.4146C64.7768 25.4146 63.7572 25.4264 62.739 25.4081C62.3952 25.4022 62.0462 25.3481 61.7096 25.2718C59.1877 24.6958 57.3951 22.4374 57.3951 19.851C57.3951 13.6787 57.3951 7.50712 57.3951 1.33486V0.888672H62.2243V7.18618H65.8212V11.2717H62.2256V11.7198C62.2256 14.1282 62.2256 16.5359 62.2256 18.9443C62.2256 20.3742 63.0429 21.2039 64.4794 21.2261C64.921 21.2333 65.3626 21.2274 65.8218 21.2274V25.4153V25.4146Z" fill="#E60021"/>
<path d="M13.2441 9.36642C10.959 6.54187 8.69679 3.74471 6.3941 0.898638C6.54609 0.891462 6.62828 0.883634 6.71048 0.883634C8.64396 0.883634 10.5781 0.879068 12.5116 0.891462C12.661 0.892115 12.8606 0.968436 12.9512 1.07933C15.1724 3.80408 17.3818 6.53861 19.5932 9.27183C19.6134 9.29662 19.6264 9.32728 19.6571 9.37881C19.0968 10.0722 18.5325 10.7715 17.9663 11.4702C16.2787 13.5524 14.5925 15.6352 12.8984 17.7122C12.8214 17.8062 12.6779 17.9014 12.5651 17.902C10.5122 17.9131 8.45935 17.9105 6.323 17.9105C8.64983 15.0384 10.9382 12.2131 13.2441 9.36642Z" fill="#E60021"/>
<path d="M73.9954 25.4009H69.2087V7.20898H73.9954V25.4003V25.4009Z" fill="#E60021"/>
<path d="M150.213 18.3009H148.884C147.841 18.3009 146.797 18.2963 145.754 18.3048C145.562 18.3061 145.438 18.2578 145.322 18.096C143.425 15.4365 141.524 12.7809 139.616 10.1292C139.492 9.95638 139.501 9.84483 139.622 9.67784C141.564 6.98375 143.498 4.28445 145.441 1.59167C145.51 1.49577 145.657 1.39858 145.768 1.39793C147.257 1.38488 148.746 1.38945 150.307 1.38945C150.215 1.52774 150.151 1.62885 150.081 1.72604C148.189 4.36207 146.299 7.00006 144.398 9.62957C144.242 9.84614 144.252 9.98117 144.403 10.1899C146.255 12.7607 148.097 15.3393 149.942 17.9153C150.018 18.021 150.092 18.1274 150.214 18.3002L150.213 18.3009Z" fill="#E60021"/>
<path d="M172.589 19.3643C172.589 20.1751 172.593 20.954 172.581 21.7328C172.581 21.7909 172.477 21.8666 172.406 21.8985C172.342 21.9272 172.257 21.9064 172.18 21.9064C169.063 21.9064 165.947 21.9064 162.83 21.9064H162.453V19.3643H172.589Z" fill="#E60021"/>
<path d="M74.0926 5.2201H69.1043V0.878906H74.0926V5.21945V5.2201Z" fill="#E60021"/>
</g>
<defs>
<clipPath id="clip0_2394_4592">
<rect width="177.95" height="30.7015" fill="white"/>
</clipPath>
</defs>
</svg>
