<svg width="125" height="50" viewBox="0 0 125 50" fill="none" xmlns="http://www.w3.org/2000/svg">
<path fill-rule="evenodd" clip-rule="evenodd" d="M20.7158 14.0004C21.2394 13.9899 22.1873 14.1708 22.827 14.4C23.4667 14.6292 24.3682 15.1318 24.8327 15.5145C25.3457 15.9372 25.8841 16.6732 26.205 17.3924C26.7222 18.5469 26.7518 18.5742 27.6828 18.6457C28.2297 18.6878 28.9918 18.9443 29.4774 19.2513C29.9883 19.5731 30.5077 20.1514 30.7948 20.717C31.0819 21.2869 31.2677 22.0398 31.2698 22.6496C31.2698 23.1984 31.141 23.9555 30.9806 24.3319C30.8201 24.7083 30.3683 25.316 29.9777 25.6861C29.5872 26.0542 29.0045 26.4558 28.6857 26.5799C28.2677 26.7397 28.1051 26.95 28.1051 27.3285C28.1051 27.6187 28.0101 28.0435 27.894 28.2748C27.7779 28.5061 27.5646 28.6596 27.4189 28.6155C27.2437 28.5629 27.1318 28.8321 27.0833 29.404C27.0453 29.8814 26.9249 30.5102 26.8151 30.7983C26.6589 31.2104 26.5597 31.2693 26.357 31.0716C26.1543 30.8719 26.0087 31.0085 25.6772 31.7025C25.4344 32.2114 24.915 32.8086 24.4485 33.1114C23.8045 33.532 23.6673 33.7318 23.7623 34.1103C23.8594 34.4909 23.7792 34.6045 23.3548 34.6886C23.0656 34.7475 22.3985 34.6991 21.877 34.5834C21.3534 34.4678 20.6419 34.2323 20.2936 34.0577C19.9452 33.8832 19.5652 33.7885 19.4491 33.8474C19.333 33.9063 19.238 34.2365 19.238 34.5834C19.238 35.0902 19.1662 35.1912 18.8685 35.0902C18.6658 35.0229 17.9881 34.6213 17.3653 34.1965C16.7425 33.7738 16.0521 33.1198 15.8347 32.7434C15.6172 32.367 15.3428 32.06 15.2267 32.06C15.1105 32.06 14.8973 32.2997 14.7516 32.592C14.606 32.8843 14.416 33.1198 14.3294 33.1177C14.2428 33.1135 13.8839 32.8044 13.5356 32.428C13.1851 32.0516 12.7439 31.4123 12.5539 31.0085C12.3638 30.6048 12.2161 29.7994 12.2224 29.2211C12.2308 28.6007 12.5032 27.4357 12.8895 26.3822C13.2484 25.4002 13.5377 24.4539 13.5314 24.2793C13.525 24.1048 13.2168 23.7746 12.8431 23.5433C12.442 23.2931 11.9268 22.6517 11.5806 21.9662C11.2597 21.3311 11 20.5025 11 20.1261C11.0021 19.7497 11.1795 19.041 11.3948 18.549C11.6101 18.0569 12.1084 17.3671 12.5032 17.0118C12.898 16.6585 13.601 16.2463 14.0655 16.0949C14.53 15.9414 15.2034 15.8615 15.5602 15.912C16.0458 15.9835 16.4195 15.851 17.0381 15.3883C17.4941 15.0498 18.2921 14.6019 18.8157 14.3958C19.3393 14.1876 20.1922 14.011 20.7158 14.0004ZM18.991 17.6552C18.7988 18.1662 18.82 18.4165 19.1007 18.9695C19.2929 19.346 19.4449 19.8654 19.4406 20.1261C19.4322 20.5509 19.4639 20.5677 19.7658 20.2838C20.0677 20 20.0994 20.0168 20.0909 20.4416C20.0867 20.7023 20.1775 20.9147 20.2936 20.9147C20.4097 20.9147 20.5659 20.7023 20.6398 20.4416C20.7686 19.9958 20.7792 20 20.8509 20.5467C20.8932 20.8642 21.022 21.125 21.1381 21.125C21.2542 21.125 21.4442 20.8895 21.5603 20.5993C21.6764 20.3112 21.8707 20.0736 21.9931 20.0736C22.1135 20.0736 22.447 19.838 22.732 19.5478C23.0171 19.2597 23.2493 18.7866 23.2493 18.4964C23.2493 18.2083 22.9875 17.6784 22.6687 17.323C22.219 16.8204 21.8728 16.6543 21.1381 16.5891C20.6145 16.5428 19.9727 16.6206 19.7088 16.7636C19.4449 16.9066 19.1219 17.3083 18.991 17.6552ZM15.3871 22.9272C15.4146 23.3246 15.2499 24.2394 15.0176 24.9628C14.7875 25.6861 14.5975 26.3002 14.5954 26.3296C14.5954 26.3591 15.2414 26.3591 16.031 26.3296C17.2957 26.2834 17.5786 26.3465 18.3534 26.8554C18.915 27.2213 19.5272 27.4357 20.0297 27.4378C20.5364 27.4421 21.1824 27.6692 21.8242 28.0687C22.4998 28.4914 23.0002 28.6617 23.3548 28.5902C23.7306 28.5145 24.0347 28.1823 24.4105 27.4336C24.6997 26.8554 24.9615 25.9406 24.991 25.3981C25.0438 24.4307 25.029 24.4055 24.0051 23.7683C23.1142 23.2153 22.7637 23.1227 21.5561 23.1227C20.7813 23.1227 20.0149 23.0155 19.8502 22.8851C19.6877 22.7568 19.2464 22.4961 18.8685 22.3068C18.4906 22.1197 17.7306 21.9767 17.1795 21.9914C16.6285 22.004 15.9867 22.0587 15.7566 22.1112C15.423 22.187 15.347 22.3573 15.3871 22.9272ZM16.3097 28.9057C16.4786 29.1959 16.9452 29.648 17.3463 29.9108C17.7475 30.1737 18.29 30.3861 18.5518 30.384C18.8474 30.3798 19.067 30.22 19.1324 29.9571C19.1936 29.7111 19.4132 29.5365 19.6602 29.5365C19.8925 29.5365 20.131 29.6774 20.188 29.852C20.245 30.0265 20.3886 30.1674 20.5047 30.1674C20.6208 30.1674 20.8045 30.0013 20.9122 29.7994C21.0198 29.5975 21.0452 29.3094 20.9649 29.1622C20.8868 29.0129 20.2514 28.7669 19.5547 28.6176C18.7017 28.4325 18.1845 28.4115 17.9712 28.5503C17.796 28.6659 17.4878 28.6975 17.2851 28.6218C17.0444 28.5334 16.9515 28.34 17.0212 28.0645C17.1014 27.747 17.0212 27.6439 16.7003 27.6439C16.4638 27.6439 16.2105 27.8101 16.1366 28.0119C16.0627 28.2138 16.1408 28.6176 16.3097 28.9057ZM110.25 18.5826L113.293 18.7067V30.6931L110.231 30.7983L110.25 18.5826ZM68.746 18.5216C69.3266 18.5805 70.2302 18.816 70.7517 19.0452C71.2753 19.2745 72.1071 19.8591 72.6011 20.3469C73.0951 20.8327 73.7053 21.7033 73.9565 22.2816C74.269 23.0008 74.4147 23.7641 74.4168 24.6999C74.4189 25.663 74.2795 26.3759 73.9481 27.1182C73.6884 27.6965 73.0761 28.5713 72.5885 29.0634C72.1008 29.5554 71.2267 30.1632 70.6461 30.4155C69.922 30.7289 69.1598 30.8697 68.2182 30.8697C67.2196 30.8697 66.5356 30.731 65.7059 30.3609C65.0472 30.0664 64.2069 29.4524 63.7108 28.9057C63.2421 28.3841 62.6742 27.5325 62.4504 27.0131C62.1907 26.4032 62.045 25.5789 62.045 24.6999C62.045 23.7599 62.1886 23.0029 62.5032 22.2816C62.7544 21.7033 63.3118 20.8663 63.7424 20.4226C64.1731 19.9789 64.8804 19.4364 65.3153 19.2135C65.7502 18.9927 66.4638 18.7214 66.8987 18.6121C67.3336 18.5027 68.1655 18.4606 68.746 18.5216ZM65.6109 23.2699C65.3005 23.7662 65.0514 24.4097 65.0535 24.6999C65.0577 24.988 65.2477 25.6273 65.4779 26.1193C65.7734 26.7523 66.1429 27.135 66.7404 27.4336C67.2048 27.665 67.8931 27.8542 68.271 27.8542C68.6489 27.8542 69.2907 27.6797 69.6961 27.4652C70.1035 27.2507 70.6525 26.706 70.9185 26.2539C71.2774 25.6483 71.3851 25.1899 71.3302 24.4896C71.2922 23.9681 71.0642 23.2594 70.8256 22.9124C70.587 22.5655 70.0465 22.1155 69.6222 21.9136C69.1978 21.7117 68.5434 21.5456 68.1655 21.5435C67.7875 21.5435 67.1858 21.7285 66.8248 21.9535C66.4659 22.1806 65.9191 22.7716 65.6109 23.2699ZM91.8639 18.4039C92.1552 18.3934 92.9153 18.5406 93.5528 18.7277C94.1925 18.917 95.1236 19.367 95.624 19.7287C96.1243 20.0925 96.745 20.7191 97.0026 21.125C97.2601 21.5288 97.5874 22.1218 97.7288 22.4393C97.8703 22.7568 98.0455 23.4676 98.1173 24.0165C98.2046 24.6824 98.1272 25.4359 97.8851 26.2771C97.6866 26.971 97.2707 27.8837 96.9625 28.3042C96.6542 28.7248 96.1665 29.261 95.8752 29.4945C95.586 29.73 94.8724 30.1358 94.2918 30.3987C93.5528 30.7331 92.8266 30.8782 91.8639 30.8824C90.8083 30.8887 90.2235 30.7646 89.3304 30.3398C88.6485 30.0139 87.7977 29.3662 87.2656 28.769C86.7674 28.2075 86.2206 27.3222 86.0496 26.8028C85.8765 26.2813 85.7371 25.335 85.7371 24.6999C85.7371 24.0627 85.8786 23.1164 86.0517 22.597C86.2248 22.0755 86.6851 21.2722 87.0714 20.8096C87.4599 20.3469 88.1502 19.7329 88.6063 19.4469C89.0623 19.1609 89.8646 18.8118 90.386 18.673C90.9096 18.5342 91.5746 18.4123 91.8639 18.4039ZM89.0792 23.4382C88.7625 24.1111 88.6738 24.5948 88.7688 25.1205C88.8406 25.5242 89.0771 26.092 89.2945 26.3822C89.5099 26.6703 90.0102 27.1224 90.405 27.3874C90.8188 27.6629 91.4395 27.8626 91.8639 27.8605C92.2713 27.8584 92.9364 27.6797 93.3417 27.4652C93.7492 27.2507 94.2981 26.7544 94.562 26.3612C94.885 25.8796 95.0434 25.335 95.0434 24.6999C95.0434 24.0669 94.8829 23.5097 94.5578 23.0176C94.2897 22.6117 93.7407 22.1155 93.3375 21.9136C92.9343 21.7117 92.2713 21.5477 91.8639 21.5498C91.4585 21.5519 90.7639 21.7664 90.3227 22.0229C89.7991 22.3299 89.3684 22.8178 89.0792 23.4382ZM34.861 18.6015L37.975 18.5973C40.8378 18.5931 41.1651 18.631 42.0391 19.0852C42.6767 19.4175 43.1982 19.9158 43.6225 20.6014C44.0701 21.3227 44.2812 21.9683 44.3425 22.7926C44.4143 23.7389 44.3235 24.1952 43.8674 25.173C43.4621 26.0457 43.061 26.542 42.4234 26.9605C41.6507 27.4652 41.3044 27.5451 37.8167 27.6439V30.7983H34.861V18.6015ZM37.8167 24.4896C40.0926 24.4896 40.6394 24.3866 40.8632 24.1742C41.0447 23.9996 41.1946 23.5265 41.1946 23.1227C41.1946 22.7169 41.0532 22.2437 40.878 22.0713C40.6605 21.8547 40.1285 21.7559 39.189 21.7559H37.8167V24.4896ZM44.9948 18.6015H48.1617V30.7983H44.9948V18.6015ZM49.4284 18.6015H52.173L55.2828 24.805L58.4011 18.7067L61.0401 18.6015V30.7983H58.0844V28.9057C58.0844 27.7827 57.9978 27.0131 57.8733 27.0131C57.7571 27.0131 57.3771 27.5808 56.3954 29.5365L54.1786 29.4314L52.7008 26.6976L52.5952 30.7983H49.4284V18.6015ZM75.3964 18.6015H78.4049C80.0601 18.6015 81.7469 18.6962 82.1523 18.8139C82.5597 18.9317 83.2522 19.3817 83.6935 19.8128C84.2424 20.3532 84.5971 20.961 84.8251 21.7559C85.0235 22.4582 85.1038 23.2426 85.0256 23.7536C84.956 24.2162 84.6118 25.0448 83.6301 26.5925L84.3374 28.2222C84.728 29.1181 85.108 30.0643 85.1819 30.3251C85.317 30.7898 85.2895 30.7961 82.0615 30.6931L80.78 27.6481L78.3521 27.6439V30.7983H75.3964V18.6015ZM78.3521 24.4896C80.8729 24.5022 81.2867 24.416 81.5675 24.1279C81.7659 23.9218 81.9369 23.4697 81.9433 23.1227C81.9496 22.7758 81.7849 22.3278 81.578 22.1281C81.2993 21.8589 80.8349 21.7643 79.7772 21.7601L78.3521 21.7559V24.4896ZM99.042 18.6015H101.787L105.692 24.5842L105.768 18.6015H108.754V30.7983L106.115 30.7898L104.215 27.9467C103.169 26.3822 102.243 25.1079 102.156 25.1121C102.07 25.1163 101.998 26.3969 101.998 30.7983H99.042V18.6015ZM20.2112 17.7604C20.3738 17.7604 20.587 17.9265 20.6884 18.1284C20.7876 18.3303 20.8362 18.6142 20.7939 18.7593C20.7496 18.9044 20.4794 19.0221 20.188 19.0221C19.8671 19.0221 19.618 18.877 19.5547 18.6541C19.4955 18.4522 19.5525 18.1683 19.6834 18.0232C19.8122 17.8781 20.0508 17.7604 20.2112 17.7604ZM21.6849 18.181C21.9889 18.181 22.2359 18.3282 22.2992 18.549C22.3584 18.7508 22.2866 19.0389 22.1409 19.1882C21.9952 19.3375 21.782 19.4616 21.6659 19.4616C21.5498 19.4616 21.3365 19.3375 21.1908 19.1882C21.0452 19.0389 20.9818 18.7508 21.0494 18.549C21.1233 18.3345 21.3872 18.181 21.6849 18.181ZM17.4667 23.6485C17.6292 23.6485 17.9037 23.7893 18.0768 23.9639C18.252 24.1363 18.3956 24.3508 18.3977 24.437C18.3998 24.5233 18.2795 24.7672 18.1338 24.9796C17.9649 25.2214 17.6714 25.3392 17.3379 25.295C16.9557 25.2445 16.7932 25.0805 16.751 24.6999C16.7172 24.4097 16.7995 24.0564 16.9325 23.9113C17.0655 23.7662 17.3062 23.6485 17.4667 23.6485ZM21.4505 24.6999C21.7925 24.6999 22.0649 24.8681 22.2127 25.173C22.4027 25.5642 22.3668 25.7177 21.9994 26.0668C21.6469 26.399 21.478 26.4369 21.1887 26.2539C20.9861 26.1257 20.7918 25.8418 20.7538 25.6231C20.7179 25.4044 20.739 25.1079 20.8024 24.9628C20.8657 24.8177 21.1571 24.6999 21.4505 24.6999Z" fill="white"/>
</svg>
