<svg width="95" height="30" viewBox="0 0 95 30" fill="none" xmlns="http://www.w3.org/2000/svg">
<mask id="mask0_12_3953" style="mask-type:luminance" maskUnits="userSpaceOnUse" x="0" y="0" width="95" height="30">
<path d="M94.9999 0H0.859863V29.1397H94.9999V0Z" fill="white"/>
</mask>
<g mask="url(#mask0_12_3953)">
<path d="M37.0834 13.1946C37.0834 15.0873 36.6508 16.6015 35.7933 17.7294C34.9358 18.8573 33.777 19.4212 32.3324 19.4212C30.9882 19.4212 29.9144 18.9809 29.111 18.1002V23.9019H26.3608V6.94495H28.8947L29.0105 8.18875C29.814 7.20765 30.9187 6.72095 32.3015 6.72095C33.7925 6.72095 34.9667 7.27715 35.8165 8.38955C36.6663 9.50205 37.0912 11.047 37.0912 13.0247V13.1946H37.0834ZM34.3487 12.9552C34.3487 11.7346 34.1092 10.7612 33.6225 10.0505C33.1358 9.33975 32.4406 8.97675 31.5367 8.97675C30.4088 8.97675 29.6054 9.44025 29.1187 10.3672V15.7981C29.6131 16.7483 30.432 17.2272 31.5599 17.2272C32.4328 17.2272 33.1204 16.8719 33.6148 16.1689C34.1092 15.4659 34.3564 14.3921 34.3564 12.9629L34.3487 12.9552Z" fill="white"/>
<path d="M39.4165 3.7698C39.4165 3.3449 39.5478 2.9973 39.8182 2.7192C40.0886 2.4411 40.4671 2.302 40.9693 2.302C41.4714 2.302 41.8499 2.4411 42.1203 2.7192C42.3907 2.9973 42.5298 3.3527 42.5298 3.7698C42.5298 4.187 42.3907 4.5269 42.1203 4.805C41.8499 5.0831 41.4637 5.2144 40.9693 5.2144C40.4748 5.2144 40.0886 5.0754 39.8182 4.805C39.5478 4.5346 39.4165 4.187 39.4165 3.7698ZM42.3366 19.1894H39.5864V6.9449H42.3366V19.1894Z" fill="white"/>
<path d="M47.876 6.94495L47.9533 8.35865C48.8571 7.26165 50.0468 6.72095 51.5146 6.72095C54.064 6.72095 55.3618 8.18105 55.4082 11.1011V19.1894H52.658V11.2556C52.658 10.4754 52.488 9.90375 52.1558 9.53295C51.8236 9.16215 51.2674 8.96895 50.5103 8.96895C49.3979 8.96895 48.579 9.47115 48.0305 10.4754V19.1894H45.2803V6.94495H47.8683H47.876Z" fill="white"/>
<path d="M63.612 19.4212C61.8661 19.4212 60.4601 18.8727 59.3708 17.7757C58.2816 16.6787 57.7485 15.2187 57.7485 13.3878V13.0479C57.7485 11.8273 57.988 10.7303 58.4592 9.77245C58.9305 8.81445 59.5948 8.06515 60.4446 7.52435C61.2944 6.98355 62.2446 6.72095 63.2952 6.72095C64.9639 6.72095 66.254 7.25395 67.1579 8.32005C68.0617 9.38615 68.5252 10.8925 68.5252 12.8316V13.944H60.5219C60.6069 14.956 60.939 15.7517 61.5339 16.3466C62.1287 16.9414 62.8704 17.2272 63.7665 17.2272C65.0257 17.2272 66.0532 16.7174 66.8411 15.6976L68.3244 17.1114C67.8377 17.8453 67.1811 18.4092 66.3622 18.8109C65.5433 19.2126 64.624 19.4135 63.6043 19.4135L63.612 19.4212ZM63.2798 8.93035C62.5227 8.93035 61.9124 9.19305 61.4489 9.72605C60.9854 10.259 60.6918 10.9929 60.5605 11.9354H65.7982V11.7346C65.7364 10.8153 65.4892 10.12 65.0643 9.64885C64.6394 9.17755 64.0369 8.93805 63.2798 8.93805V8.93035Z" fill="white"/>
<path d="M79.0318 2.63441V4.90571H78.6919C77.1545 4.92881 75.9262 5.35371 74.9992 6.17261C74.0722 6.99151 73.5314 8.15801 73.3614 9.67221C74.2421 8.74511 75.37 8.28161 76.7451 8.28161C78.1975 8.28161 79.3485 8.79151 80.1906 9.81891C81.0326 10.8464 81.4498 12.1674 81.4498 13.7897C81.4498 15.412 80.9554 16.818 79.9743 17.8609C78.9932 18.9038 77.6953 19.4137 76.0962 19.4137C74.4971 19.4137 73.122 18.8034 72.0945 17.5905C71.067 16.3777 70.5649 14.7863 70.5649 12.8163V11.8739C70.5649 8.98461 71.2679 6.72111 72.6739 5.08331C74.0799 3.44561 76.1039 2.62671 78.7459 2.62671H79.0318V2.63441ZM76.0807 10.4988C75.4782 10.4988 74.9219 10.6687 74.4198 11.0086C73.9177 11.3485 73.5469 11.8043 73.3151 12.3683V13.2026C73.3151 14.4232 73.57 15.3966 74.0876 16.115C74.6052 16.8335 75.2619 17.1966 76.0807 17.1966C76.8996 17.1966 77.5408 16.8875 78.0121 16.2772C78.4833 15.667 78.7228 14.8635 78.7228 13.867C78.7228 12.8704 78.4833 12.0593 77.9966 11.4335C77.5099 10.8078 76.8687 10.491 76.073 10.491L76.0807 10.4988Z" fill="white"/>
<path d="M92.9529 13.3183H94.9999V15.5277H92.9529V19.1972H90.2029V15.5277H83.0876L83.0103 13.8513L90.1179 2.71924H92.9609V13.326L92.9529 13.3183ZM85.8919 13.3183H90.2029V6.43504L90.0019 6.79814L85.8919 13.3183Z" fill="white"/>
<path d="M16.6812 3.3374L18.1645 7.061L13.3516 4.9365L16.6812 3.3374Z" fill="#4D90E6"/>
<path d="M13.2744 11.7038L20.822 8.38965V15.0488L13.2744 11.7038Z" fill="#0069B5"/>
<path d="M13.1973 19.398L19.4934 22.1714L22.3827 15.5586L13.1973 19.398Z" fill="#003F85"/>
<path d="M11.1113 4.1098L8.81689 3.0978L11.6212 0L14.4332 3.0978L12.1233 4.1176C12.077 4.1407 12.0306 4.1562 11.9765 4.1794C11.9456 4.1871 11.9147 4.2025 11.8838 4.2103C11.7448 4.2489 11.598 4.2489 11.4512 4.218C11.4281 4.218 11.4049 4.2103 11.3817 4.2025C11.3044 4.1794 11.2195 4.1562 11.1422 4.133C11.1345 4.133 11.119 4.1253 11.1113 4.1176V4.1098Z" fill="#4D90E6"/>
<path d="M6.56084 3.3374L5.07764 7.061L9.89044 4.9365L6.56084 3.3374Z" fill="#4D90E6"/>
<path d="M11.4048 11.1708C11.4048 11.1708 11.343 11.1554 11.3121 11.1399L4.83057 8.31251L11.3275 5.48501C11.3275 5.48501 11.3816 5.46181 11.4125 5.45411C11.482 5.43871 11.5593 5.43091 11.6288 5.43091C11.6983 5.43091 11.7679 5.43871 11.8374 5.45411C11.8683 5.45411 11.8915 5.46961 11.9224 5.48501L18.4193 8.31251C16.2562 9.25501 14.1009 10.1974 11.9378 11.1399C11.9069 11.1554 11.8837 11.1631 11.8528 11.1708C11.7215 11.2094 11.5825 11.2094 11.4434 11.1785H11.4125L11.4048 11.1708Z" fill="#4D90E6"/>
<path d="M9.96801 11.7038L2.42041 8.38965V15.0488L9.96801 11.7038Z" fill="#0069B5"/>
<path d="M10.0452 19.398L3.74906 22.1714L0.859863 15.5586L10.0452 19.398Z" fill="#003F85"/>
<path d="M11.6136 19.9465C11.6136 19.9465 11.5363 19.9543 11.5054 19.962C11.4282 19.9774 11.3586 20.0006 11.2891 20.0315L4.854 22.9053L10.7483 25.5087C10.841 25.5473 10.8951 25.64 10.8951 25.7405V29.1473H12.3552V25.7405C12.3552 25.64 12.417 25.5473 12.502 25.5087L18.3964 22.9053L11.9535 20.0315C11.884 20.0006 11.8067 19.9774 11.7372 19.962C11.6986 19.9543 11.6599 19.9465 11.629 19.9465" fill="#003F85"/>
<path d="M11.3891 18.8032C11.2115 18.7259 8.14453 17.3972 3.91113 15.5817C3.91113 15.5817 11.0647 12.4762 11.2733 12.3835C11.4896 12.2908 11.7368 12.2908 11.9608 12.3835C12.1771 12.4762 19.323 15.5817 19.323 15.5817L11.8449 18.8032C11.7831 18.8263 11.7213 18.8418 11.6518 18.8495C11.6286 18.8495 11.6055 18.8495 11.5746 18.8495C11.505 18.8495 11.4432 18.8263 11.3737 18.8032H11.3891Z" fill="#0069B5"/>
</g>
</svg>
