<svg width="100" height="30" viewBox="0 0 100 30" fill="none" xmlns="http://www.w3.org/2000/svg">
<path d="M5.88225 0.754135H18.3443C20.8078 0.754135 22.6429 1.45171 23.8495 2.84686C25.0687 4.22944 25.4081 6.17762 24.8676 8.6914C24.4151 10.8533 23.3405 12.7386 21.6437 14.3474C19.9594 15.9437 17.7222 16.7418 14.9319 16.7418H6.22161L3.75182 28.4497H0L5.88225 0.754135ZM19.7018 4.56252C18.9476 4.17288 17.8479 3.97806 16.4024 3.97806H8.9365L6.90033 13.5744H14.3663C16.0505 13.5744 17.4896 13.2162 18.6837 12.4998C19.8903 11.7834 20.6884 10.5202 21.0781 8.71026C21.5054 6.67409 21.0466 5.29151 19.7018 4.56252Z" fill="white"/>
<path d="M40.7421 20.192C40.2394 22.5298 39.5041 24.346 38.5363 25.6406C36.7515 28.0035 34.0618 29.185 30.467 29.185C28.3932 29.185 26.7404 28.6257 25.5086 27.5071C24.2769 26.3759 23.9689 24.3711 24.5848 21.4928L24.9996 19.5132H28.5251L28.1104 21.4928C27.7836 23.0011 27.8778 24.1386 28.3932 24.9053C28.9085 25.6594 29.8763 26.0365 31.2966 26.0365C33.2951 26.0365 34.7468 25.3515 35.6517 23.9815C36.2048 23.1394 36.7326 21.5494 37.2354 19.2116L41.1569 0.754135H44.871L40.7421 20.192Z" fill="white"/>
<path d="M60.7644 13.4425C62.5241 13.4425 63.9883 13.0905 65.1572 12.3867C66.3387 11.6828 67.1243 10.4133 67.5139 8.57828C67.9287 6.60496 67.4951 5.26009 66.213 4.54366C65.5217 4.1666 64.5351 3.97806 63.2531 3.97806H54.0903L52.0919 13.4425H60.7644ZM51.0361 0.754135H63.8564C65.9679 0.754135 67.6396 1.06207 68.8714 1.67795C71.2217 2.85943 72.0639 5.04013 71.3977 8.22007C71.0458 9.87917 70.4111 11.2366 69.4935 12.2924C68.5886 13.3482 67.4511 14.1966 66.0811 14.8376C67.074 15.2775 67.7653 15.8557 68.1549 16.5721C68.5446 17.2885 68.6011 18.4512 68.3246 20.06L67.6647 23.7741C67.4762 24.8299 67.4008 25.6154 67.4385 26.1308C67.4762 27.0106 67.759 27.5762 68.2869 27.8276L68.1549 28.4497H63.5547C63.4793 28.2109 63.4416 27.903 63.4416 27.5259C63.4416 27.1489 63.5359 26.4199 63.7244 25.3389L64.4785 20.7199C64.7676 18.9099 64.3528 17.697 63.2342 17.0812C62.5806 16.7418 61.4871 16.5721 59.9537 16.5721H51.4131L48.9056 28.4497H45.1538L51.0361 0.754135Z" fill="white"/>
<path d="M99.772 9.06847H96.1145C96.0768 7.28369 95.5489 5.86968 94.5308 4.82646C93.5127 3.78324 91.885 3.26163 89.6478 3.26163C86.9203 3.26163 84.5134 4.22316 82.4269 6.1462C80.3531 8.05667 78.8951 10.9915 78.053 14.9507C77.3617 18.1935 77.5565 20.8267 78.6374 22.8503C79.7309 24.8613 81.7796 25.8668 84.7836 25.8668C87.5488 25.8668 89.8803 24.8048 91.7782 22.6806C92.7711 21.562 93.651 20.0914 94.4177 18.2689H98.0752C97.1326 21.1849 95.5363 23.6296 93.2865 25.6029C90.5716 27.9784 87.3477 29.1662 83.6147 29.1662C80.3971 29.1662 77.9021 28.1921 76.1299 26.2439C73.8047 23.6673 73.2139 19.6892 74.3577 14.3097C75.2249 10.2248 77.016 6.8752 79.7309 4.26086C82.672 1.42029 86.1976 0 90.3076 0C93.8144 0 96.3407 0.923815 97.8867 2.77145C99.4327 4.61908 100.061 6.71808 99.772 9.06847Z" fill="white"/>
</svg>
