<svg width="125" height="50" viewBox="0 0 125 50" fill="none" xmlns="http://www.w3.org/2000/svg">
<path d="M97.3619 19.4332H100.255V16.9431H97.3619V19.4332ZM110.628 29.4969C109.738 30.4259 108.241 30.7872 106.975 30.284C106.724 30.1937 106.484 30.0517 106.255 29.9098C105.861 29.6131 105.49 29.2389 105.24 28.8002C104.693 27.8842 104.636 26.5939 104.901 25.5102C105.235 24.2457 106.362 23.2007 107.673 23.02C109.029 22.8265 110.307 23.4329 111.023 24.5038C111.63 25.3682 111.723 26.581 111.554 27.7035C111.441 28.4003 111.1 29.0067 110.628 29.4969ZM40.2089 25.2263C40.4425 25.136 40.6876 24.9941 40.9185 24.8005C41.7972 24.0909 42.2552 22.8523 41.9107 21.6653C41.6591 20.8137 41.0218 20.0912 40.1909 19.7816C39.5199 19.5235 38.6878 19.5493 37.9549 19.5235H35.7848H35.7525V25.4715H38.32C38.9613 25.4585 39.7019 25.4069 40.2089 25.2263ZM92.2719 29.4969C91.4242 30.3356 90.0798 30.7226 88.8503 30.3485C87.5691 29.9872 86.5575 28.8131 86.3588 27.4584C86.2027 26.3359 86.4105 25.2005 87.0685 24.3877C87.9303 23.2652 89.4115 22.7362 90.8295 23.1749C92.1223 23.5361 93.1777 24.7876 93.3196 26.194C93.4744 27.4713 93.1454 28.6583 92.2719 29.4969ZM96.1645 27.8584C96.2768 27.2649 96.2793 26.5939 96.2135 25.9746C95.9271 23.8071 94.5363 21.9104 92.6203 21.0718C91.4333 20.517 89.9083 20.3493 88.5522 20.6073C86.5317 20.9686 84.9396 22.2975 84.1526 23.8458C83.3204 25.4715 83.3875 26.9939 83.5333 27.8842C83.9822 30.6065 86.2234 32.7741 89.1289 32.9934C90.3108 33.0838 91.3352 32.9934 92.4693 32.529C94.3621 31.7548 95.8329 29.9356 96.1645 27.8584ZM54.3497 29.4969C53.4879 30.3356 52.1241 30.7226 50.8739 30.3485C49.5746 29.9872 48.545 28.8131 48.345 27.4584C48.1877 26.3359 48.3954 25.2005 49.065 24.3877C49.9398 23.2652 51.4416 22.7362 52.884 23.1749C54.1962 23.5361 55.2697 24.7876 55.4129 26.194C55.5703 27.4713 55.2361 28.6583 54.3497 29.4969ZM58.3017 27.8584C58.4152 27.2649 58.4178 26.5939 58.352 25.9746C58.0604 23.8071 56.6476 21.9104 54.7033 21.0718C53.4969 20.517 51.9486 20.3493 50.572 20.6073C48.5205 20.9686 46.9039 22.2975 46.1039 23.8458C45.2588 25.4715 45.3272 26.9939 45.4756 27.8842C45.9311 30.6065 48.207 32.7741 51.1564 32.9934C52.3576 33.0838 53.3963 32.9934 54.551 32.529C56.4709 31.7548 57.965 29.9356 58.3017 27.8584ZM71.4168 29.4969C70.8981 30.2711 69.9782 30.5807 69.0583 30.6582C68.1396 30.7356 67.1707 30.4775 66.7578 29.6647C66.492 29.1486 66.5514 28.4003 66.8881 27.9358C67.399 27.2391 68.3061 27.1358 69.1447 27.0713L70.1575 27.0326L71.8722 27.0197V27.0584C71.8697 27.9358 71.8851 28.826 71.4168 29.4969ZM71.9639 32.8386H74.8281L74.8294 32.4644L74.8178 26.8133L74.8036 25.4585L74.7688 24.736C74.7172 23.8329 74.3791 23.02 73.8424 22.3491C73.2669 21.6137 72.5186 21.1492 71.5071 20.8008C71.062 20.6589 69.995 20.388 68.9525 20.4525C67.2171 20.5686 65.3257 21.2137 64.8354 21.4589L64.8496 24.2844C64.8496 24.2844 66.2185 23.3813 67.7138 23.0329C69.0131 22.7233 70.4465 22.9684 70.6839 23.0716C71.6335 23.4587 71.9303 24.3232 71.88 25.136H70.4749L68.8222 25.1618C67.63 25.2134 66.4495 25.3553 65.4599 25.8843C64.6199 26.3617 64.0264 27.2004 63.8226 28.1551C63.4497 29.6776 64.0264 31.2645 65.1528 32.1419C66.1682 32.9805 67.6145 33.1354 68.9938 32.9934C70.1433 32.8902 71.1897 32.3483 71.8697 31.4581H71.8826L71.9639 32.8386ZM97.3619 32.8386H100.267V20.4654H97.3619V32.8386ZM62.5362 16.9431H59.6306V32.8386H62.5362V16.9431ZM111.597 16.9431V18.6462L111.592 22.0137L111.58 22.0653L111.509 22.0007C110.774 21.2266 109.827 20.6976 108.751 20.5299C106.304 20.1686 104.004 21.2911 102.768 23.3426C101.849 24.7876 101.667 26.8391 102.101 28.5809C102.67 30.7226 104.434 32.4257 106.53 32.8902C108.195 33.2902 109.96 32.9289 111.153 31.8452C111.292 31.729 111.445 31.5613 111.576 31.4452C111.623 31.8968 111.632 32.3612 111.658 32.8128V32.8386H114.425C114.408 27.5358 114.442 22.233 114.424 16.9431H111.597ZM79.6832 32.8386V27.5745C79.6832 26.9552 79.6716 26.2327 79.7581 25.6521C79.8987 24.7102 80.5928 23.9232 81.456 23.5748C82.1204 23.291 82.9101 23.291 83.6674 23.2652L83.6778 21.1105C83.6713 20.9041 83.6894 20.7105 83.6597 20.517C82.7036 20.4912 81.7347 20.6073 80.9373 21.0202C80.3722 21.3298 79.9619 21.7943 79.6136 22.3104L79.6071 22.2975L79.522 20.7363L79.5155 20.6976H76.7635L76.7545 23.2007L76.7596 32.658L76.7518 32.8386H79.6832ZM37.2905 16.9431L38.9497 16.956C40.1225 16.9689 41.2901 17.0721 42.2642 17.6011C43.9686 18.4914 45.0989 20.2848 45.1285 22.2717C45.1685 23.5877 44.7982 24.7618 44.1118 25.7424C43.7093 26.323 43.3945 26.5681 43.1377 26.7746C42.9158 26.9423 42.5249 27.2133 42.3481 27.3165C41.4088 27.8455 40.285 28.0519 39.2258 28.039H35.7422L35.7447 32.8386H32.7592V16.9431H37.2905Z" fill="white"/>
<path d="M24.4051 24.9813L21.2208 21.8073L18.0378 24.9813L21.2208 28.1681L24.4051 24.9813Z" fill="#8F807C"/>
<path d="M27.588 21.8072L24.4051 18.6204L21.2208 21.8072L24.4051 24.9812L27.588 21.8072Z" fill="#A153A0"/>
<path d="M27.588 28.1681L24.4051 24.9812L21.2208 28.1681L24.4051 31.3549L27.588 28.1681Z" fill="#00AAAB"/>
<path d="M30.7711 24.9813L27.5881 21.8073L24.4052 24.9813L27.5881 28.1681L30.7711 24.9813Z" fill="#0070BB"/>
<path d="M14.9542 21.8976L14.7543 21.7041L11.57 24.8909L11.4706 24.9813L14.7543 28.2713L18.0379 24.9813L14.9542 21.8976Z" fill="#FFD100"/>
<path d="M18.1385 18.7236L18.0378 18.6204L17.9372 18.5172L14.7542 21.7041L18.0378 24.9812L21.2208 21.8073L18.1385 18.7236Z" fill="#F6931C"/>
<path d="M21.3216 15.5368L21.1203 15.3304L17.9373 18.5172L18.038 18.6204L21.2209 21.8073L24.4052 18.6204L21.3216 15.5368Z" fill="#EC1B24"/>
<path d="M18.0378 24.9812L14.9555 28.0649H14.9542L14.7542 28.2713L17.9372 31.4582L18.0378 31.3549L21.2208 28.1681L18.0378 24.9812Z" fill="#8BC63F"/>
<path d="M21.2209 28.1681L18.1386 31.2517L17.9373 31.4581L21.1203 34.6321L24.4052 31.3549L21.2209 28.1681Z" fill="#0CB04A"/>
</svg>
