<svg width="109" height="36" viewBox="0 0 109 36" fill="none" xmlns="http://www.w3.org/2000/svg">
<path d="M0 0.75293H0.353694C7.41297 0.75293 14.4739 0.75293 21.5331 0.75293C21.7819 0.75293 21.9063 0.876236 21.9063 1.12285C21.9063 8.95441 21.9063 16.786 21.9063 24.6191V24.9745C21.8025 24.9809 21.7148 24.9907 21.6272 24.9907C20.3585 24.9907 19.0897 24.9858 17.821 24.9939C17.3326 24.9972 16.9238 24.8349 16.5879 24.4829C16.4419 24.3303 16.2959 24.1778 16.1547 24.0188C15.5755 23.3715 14.86 22.9756 14.0034 22.8328C13.9141 22.8182 13.8265 22.7906 13.7064 22.7614C14.1688 19.794 13.6042 16.9725 12.4393 14.1836C14.1672 14.2631 15.8075 14.3539 17.3926 15.037C16.8751 13.3707 15.8091 12.1263 14.5647 10.9289C14.86 10.6482 15.1147 10.34 15.4311 10.1209C16.1174 9.64557 16.8345 9.214 17.5387 8.76782C17.7772 8.61694 18.0205 8.47254 18.3093 8.29569C18.173 8.22593 18.0822 8.17401 17.9881 8.1302C16.4386 7.38712 14.7984 7.1762 13.1029 7.31249C12.9196 7.32709 12.8238 7.28004 12.72 7.13564C11.7433 5.7955 10.5784 4.64356 9.24633 3.65549C9.16521 3.59546 9.08084 3.5403 8.99648 3.48351C8.98187 3.47378 8.9624 3.47378 8.89913 3.45593C8.86181 3.92319 8.84072 4.38397 8.78718 4.8415C8.66712 5.87175 8.52759 6.89876 8.40428 7.9274C8.38157 8.11073 8.26475 8.13669 8.1236 8.16914C6.54171 8.51959 5.11396 9.21724 3.77706 10.1128C3.73974 10.1372 3.70892 10.1696 3.61644 10.2491C5.1318 10.5006 6.52549 10.9322 7.77639 11.8407C6.81428 13.1858 6.25941 14.68 6.08418 16.3755C6.20262 16.3025 6.28374 16.2554 6.36324 16.2035C7.52978 15.4426 8.74175 14.7822 10.1095 14.4496C10.3301 14.3961 10.4177 14.4415 10.4826 14.6557C10.8623 15.9228 10.958 17.2127 10.8509 18.5252C10.7357 19.9238 10.4031 21.2737 9.97319 22.6057C9.90018 22.8328 9.78823 22.9188 9.55946 22.9561C9.13438 23.0227 8.71255 23.1119 8.29558 23.2222C7.67418 23.3861 7.1193 23.6781 6.6423 24.1194C6.41354 24.3303 6.17342 24.5461 5.90247 24.6889C5.62665 24.8349 5.30541 24.9712 5.00201 24.9761C3.39416 25.0037 1.78469 24.9891 0.176847 24.9891C0.123306 24.9891 0.0697653 24.9826 0.00162245 24.9777V0.75293H0Z" fill="white"/>
<path d="M24.5169 0.867547C24.6028 0.861057 24.6661 0.854567 24.7278 0.852945C26.8045 0.833475 28.8829 0.794536 30.9596 0.804271C32.4636 0.810761 33.9465 1.01194 35.3564 1.56844C37.8939 2.56949 39.3493 4.40773 39.63 7.1448C39.7695 8.50766 39.6575 9.84131 39.1465 11.123C38.3125 13.2079 36.7177 14.4539 34.6523 15.1727C33.5328 15.5621 32.3711 15.7194 31.1932 15.7746C30.6789 15.7989 30.1646 15.8281 29.6503 15.8265C29.402 15.8265 29.3469 15.9109 29.3485 16.1461C29.3582 18.8118 29.3582 21.4775 29.3599 24.1432C29.3599 24.4271 29.3599 24.711 29.3599 25.0177C29.2512 25.0242 29.1619 25.0323 29.0727 25.0323C27.6482 25.0323 26.2237 25.0274 24.7992 25.0388C24.5477 25.0404 24.4941 24.9544 24.4941 24.7224C24.499 16.873 24.4974 9.02359 24.499 1.17257C24.499 1.07522 24.512 0.976251 24.5185 0.867547H24.5169ZM29.3745 11.7623C30.1597 11.9472 32.2527 11.7947 33.0639 11.5076C33.9222 11.2025 34.4803 10.6185 34.735 9.74558C34.9524 9.0025 34.9995 8.24482 34.8794 7.48389C34.6701 6.15835 33.9222 5.2871 32.6259 4.9188C32.2673 4.81659 31.8909 4.74357 31.5193 4.72897C30.8087 4.69977 30.0948 4.72086 29.3745 4.72086V11.7623Z" fill="white"/>
<path d="M40.1621 17.1367C40.1702 13.5543 42.0961 10.5528 45.341 9.39597C48.4934 8.27161 51.5387 8.53282 54.219 10.7215C56.0151 12.1882 56.9707 14.1238 57.1199 16.4471C57.3309 19.7439 56.1351 22.3739 53.3786 24.2316C51.7529 25.3284 49.9147 25.6432 47.9888 25.5215C46.329 25.4176 44.8023 24.9147 43.4719 23.8958C41.2508 22.1938 40.1589 19.9321 40.1621 17.1367ZM44.8559 16.7992C44.8559 17.9268 44.9792 18.6731 45.302 19.3773C45.9835 20.8683 47.2473 21.6422 48.9104 21.5887C50.3673 21.5416 51.6052 20.6347 52.1293 19.155C52.311 18.6439 52.4116 18.089 52.4538 17.5455C52.5657 16.0886 52.1893 14.7792 51.112 13.7311C49.707 12.3667 47.4453 12.3991 46.0808 13.8058C45.1771 14.7387 44.8624 15.8922 44.8575 16.7992H44.8559Z" fill="white"/>
<path d="M83.3306 17.1659C83.3647 21.4313 80.5124 24.131 77.996 25.0104C74.5954 26.1997 70.3316 25.5409 67.8265 22.0478C66.6632 20.4254 66.2446 18.5969 66.3371 16.6337C66.4393 14.4596 67.2375 12.5857 68.8275 11.0736C70.2391 9.73181 71.9264 9.01144 73.8588 8.83946C75.6824 8.67722 77.4476 8.88327 79.0571 9.80158C81.4843 11.1855 82.9266 13.2606 83.2511 16.0675C83.2933 16.4309 83.3047 16.7992 83.329 17.1659H83.3306ZM78.6353 17.0231C78.6353 16.3838 78.533 15.7332 78.2426 15.1167C77.5904 13.7328 76.5731 12.8161 74.9734 12.7512C73.3201 12.6847 72.1422 13.4716 71.4803 14.948C70.8069 16.4455 70.8232 17.9982 71.5322 19.4811C72.2104 20.8991 73.372 21.639 74.9766 21.5903C76.4823 21.5449 77.5401 20.8018 78.181 19.4568C78.5217 18.7396 78.6417 17.9722 78.6353 17.0247V17.0231Z" fill="white"/>
<path d="M93.5 9.30273H98.1239C98.1239 9.43091 98.1239 9.54772 98.1239 9.66454C98.1272 12.7342 98.1288 15.8055 98.1418 18.8752C98.1418 19.1834 98.197 19.4982 98.2732 19.7984C98.5555 20.9114 99.3035 21.523 100.467 21.5782C100.83 21.596 101.207 21.5814 101.56 21.5019C102.608 21.2683 103.28 20.4181 103.395 19.224C103.429 18.8768 103.447 18.528 103.449 18.1791C103.454 15.3382 103.45 12.499 103.45 9.65805V9.31085H108.048C108.055 9.38386 108.065 9.45362 108.065 9.52501C108.065 12.4568 108.074 15.3902 108.058 18.3219C108.052 19.4268 107.911 20.5187 107.562 21.5766C106.966 23.384 105.774 24.5959 103.94 25.1184C101.75 25.743 99.5452 25.7138 97.3646 25.0746C95.4534 24.5148 94.3566 23.1649 93.8634 21.2748C93.5876 20.2186 93.4935 19.1396 93.4902 18.0542C93.4805 15.2328 93.487 12.4097 93.487 9.58828C93.487 9.49905 93.4951 9.40819 93.5016 9.30273H93.5Z" fill="white"/>
<path d="M64.0477 0.708008V25.0155H59.4546V0.708008H64.0477Z" fill="white"/>
<path d="M85.6411 0.704102H90.2294V25.0116H85.6411V0.704102Z" fill="white"/>
<path d="M46.5073 30.8931C45.9556 30.3983 45.6214 29.8304 45.7674 29.0825C45.8534 28.6412 46.0887 28.2859 46.4521 28.0198C47.2017 27.4714 48.2433 27.6077 48.8225 28.328C49.4796 29.1474 49.2525 30.0284 48.1086 30.9921C48.4445 31.3004 48.7771 31.6054 49.147 31.9445C49.3368 31.4561 49.5267 31.0132 49.6775 30.5573C49.77 30.2782 49.9079 30.163 50.2081 30.1955C50.4758 30.2247 50.75 30.202 51.0712 30.202C50.9512 30.5037 50.8522 30.7569 50.7484 31.0067C50.5472 31.4983 50.3525 31.9932 50.1367 32.4799C50.0621 32.647 50.0896 32.7395 50.2259 32.8514C50.7127 33.257 51.188 33.6724 51.6975 34.1105C51.4136 34.4236 51.1394 34.7237 50.8603 35.032C50.6056 34.8032 50.3671 34.5891 50.127 34.3749C49.895 34.1672 49.6629 33.9612 49.4082 33.7357C48.9653 34.4982 48.3731 35.0271 47.471 35.0774C46.8772 35.1099 46.345 34.9347 45.907 34.5226C45.344 33.9904 45.1331 33.3365 45.2596 32.574C45.3862 31.8179 45.9118 31.349 46.5089 30.8948L46.5073 30.8931ZM46.4505 32.9244C46.4505 33.4388 46.7766 33.8135 47.2633 33.859C47.7241 33.9012 48.378 33.4306 48.4461 32.9975C48.4542 32.9423 48.4055 32.8628 48.3601 32.8174C48.0437 32.5123 47.7241 32.2106 47.3964 31.9185C47.3428 31.8715 47.2179 31.8374 47.1676 31.8666C46.7669 32.1035 46.4554 32.4117 46.4521 32.9228L46.4505 32.9244ZM48.0794 29.4264C48.0778 29.0906 47.8036 28.8067 47.4791 28.8034C47.1303 28.8002 46.8675 29.0792 46.874 29.4443C46.8804 29.7234 47.2374 30.2231 47.4369 30.2312C47.6803 30.2409 48.0811 29.7396 48.0794 29.4264Z" fill="white"/>
<path d="M0.0258789 27.7773C1.07885 27.8276 2.13019 27.8098 3.16045 27.9445C4.18746 28.0791 4.82833 28.9179 4.86564 29.9482C4.90296 31.0044 4.33997 31.8059 3.34865 32.1093C3.28862 32.1271 3.23184 32.1563 3.15234 32.1888C3.74291 33.0925 4.32374 33.9816 4.93703 34.9194C4.37729 34.9194 3.86784 34.9275 3.36001 34.9096C3.29187 34.908 3.21237 34.7896 3.16694 34.7084C2.63964 33.7836 2.11722 32.8556 1.59154 31.9308C1.54936 31.8546 1.49906 31.7832 1.40172 31.7199V34.9064H0.0258789V27.779V27.7773ZM1.40658 31.2818C1.93875 31.3127 2.43035 31.2883 2.8895 31.0644C3.30485 30.8616 3.48656 30.5079 3.48169 30.0569C3.47683 29.6415 3.32594 29.3024 2.92033 29.1256C2.43359 28.9131 1.92252 28.952 1.40658 28.9715V31.2818Z" fill="white"/>
<path d="M12.196 27.8385H13.4128V29.985C14.2532 29.401 15.1277 29.3117 16.0428 29.5843C16.6382 29.7611 17.0958 30.1375 17.4446 30.6438C18.1779 31.7097 18.066 33.1569 17.2223 34.1434C16.5149 34.9708 14.9428 35.5241 13.4388 34.5279C13.4274 34.6544 13.416 34.7664 13.4031 34.8994H12.1943V27.8369L12.196 27.8385ZM15.006 33.8448C15.9617 33.84 16.6431 33.178 16.6431 32.2532C16.6431 31.3544 15.9243 30.6389 15.0352 30.647C14.1283 30.6567 13.4663 31.3479 13.4696 32.2824C13.4728 33.1764 14.1348 33.8481 15.006 33.8432V33.8448Z" fill="white"/>
<path d="M64.5571 32.6241C64.6545 33.2731 64.9692 33.6771 65.5387 33.828C66.2104 34.0064 66.8334 33.9237 67.3218 33.3591C67.3704 33.3023 67.4516 33.2423 67.5197 33.2406C67.9123 33.2293 68.3066 33.2358 68.7414 33.2358C68.4526 33.9724 68.0016 34.5208 67.3023 34.8128C66.225 35.2638 65.185 35.1665 64.2813 34.4007C63.3711 33.6284 63.0709 32.6063 63.3889 31.4657C63.7053 30.3283 64.5133 29.6323 65.6669 29.4425C67.2958 29.1748 69.0237 30.4127 68.9572 32.4099C68.9491 32.6387 68.816 32.6241 68.6635 32.6241C67.4223 32.6241 66.1828 32.6241 64.9416 32.6241C64.8248 32.6241 64.708 32.6241 64.5555 32.6241H64.5571ZM67.5732 31.6571C67.4256 30.9433 66.7912 30.4938 66.027 30.5328C65.3229 30.5685 64.7112 31.0584 64.6431 31.6571H67.5732Z" fill="white"/>
<path d="M55.6904 27.8379H59.5356C59.5356 28.1948 59.5356 28.5404 59.5356 28.886C59.5356 29.0774 59.3912 29.0434 59.2793 29.045C58.6546 29.0482 58.03 29.0466 57.4054 29.0466C57.2967 29.0466 57.188 29.0466 57.0614 29.0466V30.695H59.5194V31.8908H57.0663V33.7047H59.5145V34.8988H55.6904V27.8395V27.8379Z" fill="white"/>
<path d="M21.6158 29.4138C23.222 29.4268 24.4632 30.6761 24.4518 32.2677C24.4404 33.8561 23.1668 35.094 21.5638 35.0729C19.9917 35.0535 18.7375 33.7782 18.7456 32.2109C18.7538 30.6501 20.0355 29.3992 21.6158 29.4122V29.4138ZM23.1538 32.2174C23.1603 31.2878 22.5308 30.6226 21.6352 30.6144C20.7007 30.6063 20.0468 31.2407 20.0371 32.1687C20.0258 33.2071 20.6082 33.8382 21.5833 33.8447C22.5454 33.8512 23.1457 33.2282 23.1538 32.2174Z" fill="white"/>
<path d="M8.35917 29.4138C9.94917 29.4251 11.2244 30.6907 11.2049 32.2385C11.1855 33.8561 9.92321 35.0924 8.31212 35.0729C6.70914 35.0534 5.48419 33.7847 5.49717 32.159C5.51015 30.6404 6.8 29.4024 8.35917 29.4122V29.4138ZM6.78702 32.2174C6.7854 33.2217 7.36786 33.8398 8.32185 33.8463C9.28883 33.8528 9.90699 33.2119 9.90861 32.1995C9.90861 31.2845 9.26125 30.6209 8.36242 30.616C7.41977 30.6112 6.78864 31.2536 6.78702 32.2174Z" fill="white"/>
<path d="M82.769 32.2215C82.769 30.6689 84.0362 29.4131 85.6002 29.4131C87.1983 29.4131 88.4817 30.6543 88.4833 32.2021C88.4849 33.818 87.2438 35.0641 85.6229 35.0722C84.0459 35.0803 82.7674 33.8034 82.769 32.2215ZM84.0638 32.2183C84.0621 33.221 84.6462 33.8375 85.6002 33.844C86.5688 33.8505 87.1805 33.2129 87.1805 32.194C87.1805 31.2757 86.5364 30.6169 85.6343 30.6137C84.6949 30.6105 84.0638 31.2529 84.0621 32.2183H84.0638Z" fill="white"/>
<path d="M94.3095 34.9097H93.1381C93.13 34.7945 93.1186 34.689 93.117 34.5819C93.1056 33.7366 93.0991 32.8913 93.0862 32.046C93.0845 31.9 93.0602 31.754 93.0342 31.6096C92.9061 30.8925 92.5832 30.6345 91.858 30.6653C91.3939 30.6848 91.0532 30.9038 90.9315 31.35C90.8293 31.7264 90.7758 32.1239 90.7596 32.5149C90.732 33.2028 90.7514 33.8924 90.7514 34.5819C90.7514 34.6809 90.7514 34.7799 90.7514 34.8999H89.5703V29.5945H90.745C90.7563 29.76 90.7661 29.9206 90.779 30.1056C90.8277 30.0845 90.865 30.0796 90.8845 30.0585C91.5205 29.369 92.3041 29.3252 93.1137 29.6156C93.8974 29.8963 94.2835 30.5404 94.3143 31.3403C94.3598 32.4971 94.3338 33.6555 94.3371 34.8139C94.3371 34.8399 94.3208 34.8642 94.3062 34.9097H94.3095Z" fill="white"/>
<path d="M75.2379 31.4463C74.8339 31.4463 74.4332 31.456 74.0341 31.4382C73.9594 31.4349 73.8767 31.3311 73.8215 31.2565C73.3981 30.6919 72.668 30.4615 72.0044 30.6935C71.3668 30.9158 70.9482 31.568 70.979 32.2948C71.0098 33.046 71.443 33.6317 72.1293 33.794C72.8237 33.9595 73.5668 33.7778 73.8816 33.1126C73.9075 33.0574 73.9854 32.9957 74.0422 32.9941C74.4348 32.9844 74.8291 32.9892 75.2249 32.9892C75.1016 34.1769 73.8118 35.139 72.4619 35.0725C70.919 34.9962 69.7346 33.8037 69.694 32.3289C69.6486 30.6967 70.9644 29.5269 72.264 29.4264C73.7696 29.3095 75.0741 30.1954 75.2379 31.4463Z" fill="white"/>
<path d="M103.587 32.9869C103.356 34.2752 102.086 35.1886 100.741 35.0653C99.1362 34.9193 98.0329 33.7349 98.0475 32.1725C98.0605 30.7901 99.24 29.5214 100.604 29.4224C102.105 29.3137 103.39 30.1655 103.596 31.4456C103.184 31.4456 102.777 31.4537 102.37 31.4375C102.303 31.4342 102.232 31.3337 102.18 31.2655C101.745 30.6831 101.017 30.4575 100.342 30.7009C99.7138 30.928 99.3033 31.5705 99.3292 32.2844C99.3568 33.0437 99.7997 33.6424 100.497 33.7998C101.219 33.962 101.911 33.7657 102.229 33.1248C102.259 33.0648 102.347 32.9967 102.41 32.995C102.795 32.9837 103.179 32.9886 103.588 32.9886L103.587 32.9869Z" fill="white"/>
<path d="M36.7466 32.9858C36.4676 34.4168 35.1518 35.2394 33.5569 35.0268C32.1665 34.8419 31.1038 33.4822 31.2043 32.0204C31.3049 30.5618 32.5948 29.4034 34.1085 29.4131C35.4324 29.4213 36.672 30.3704 36.7369 31.4477C36.3426 31.4477 35.9484 31.4574 35.5541 31.4396C35.4779 31.4363 35.3919 31.3406 35.3367 31.2676C34.9052 30.6884 34.1669 30.4564 33.4969 30.6997C32.8365 30.9399 32.4585 31.5694 32.4958 32.3676C32.5283 33.0685 32.9793 33.6494 33.6559 33.7986C34.3535 33.9528 35.0577 33.7792 35.387 33.1188C35.4162 33.0588 35.5071 32.9939 35.5704 32.9923C35.9549 32.9809 36.3394 32.9858 36.7466 32.9858Z" fill="white"/>
<path d="M37.626 33.1864H38.7098C38.7438 33.3324 38.7617 33.4687 38.8071 33.5968C38.9093 33.8889 39.1754 34.0657 39.4626 34.0479C39.7562 34.03 39.9737 33.8581 40.0467 33.5871C40.1213 33.3113 40.0272 33.0452 39.7449 32.8846C39.4675 32.7272 39.1689 32.6039 38.8736 32.4806C38.0462 32.135 37.6844 31.426 37.918 30.5969C38.137 29.8165 38.9353 29.3168 39.753 29.4434C40.5934 29.5748 41.0883 30.1378 41.085 30.9912C40.767 30.9912 40.449 30.9993 40.131 30.9831C40.0743 30.9798 39.9947 30.8809 39.9769 30.8127C39.9104 30.5548 39.7514 30.4152 39.4918 30.4039C39.2452 30.3925 39.0635 30.5109 38.9807 30.7446C38.8964 30.9863 38.9921 31.1826 39.1965 31.3141C39.3815 31.4325 39.5794 31.5282 39.7757 31.6256C39.9315 31.7034 40.0937 31.7683 40.2511 31.8414C41.1743 32.2664 41.3511 33.0598 41.1191 33.884C40.9017 34.6612 40.0889 35.1576 39.25 35.0652C38.2571 34.9565 37.6698 34.288 37.626 33.188V33.1864Z" fill="white"/>
<path d="M104.463 33.1843H105.557C105.588 33.3222 105.605 33.4585 105.648 33.5851C105.75 33.8836 106.005 34.0604 106.295 34.0475C106.587 34.0345 106.811 33.8641 106.886 33.5964C106.965 33.3076 106.869 33.0432 106.572 32.8744C106.311 32.7252 106.032 32.6035 105.75 32.4948C105.149 32.2644 104.768 31.8701 104.71 31.2065C104.65 30.5121 104.921 29.9784 105.523 29.6441C106.115 29.3164 106.728 29.3391 107.301 29.7009C107.75 29.9832 107.896 30.4424 107.947 30.9908C107.599 30.9908 107.273 30.9973 106.947 30.9826C106.9 30.981 106.835 30.8821 106.819 30.8172C106.754 30.5608 106.597 30.4197 106.337 30.4034C106.089 30.3888 105.906 30.5089 105.823 30.7393C105.732 30.9924 105.841 31.1936 106.055 31.3282C106.232 31.4402 106.425 31.531 106.613 31.6235C106.769 31.6998 106.931 31.7647 107.09 31.8377C107.989 32.2563 108.196 32.9896 107.96 33.8787C107.752 34.6575 106.934 35.154 106.094 35.0631C105.102 34.9544 104.522 34.2973 104.46 33.1843H104.463Z" fill="white"/>
<path d="M78.067 30.6597V34.9007H76.8258V30.671H76.0049V29.5856H76.8112V27.8398H78.0638C78.0638 28.2876 78.0638 28.7338 78.0638 29.18C78.0638 29.5742 78.0638 29.571 78.445 29.5759C78.9659 29.5824 78.8993 29.5045 78.9058 30.0529C78.9074 30.2427 78.9058 30.4341 78.9058 30.6613C78.7452 30.6613 78.6186 30.6613 78.4937 30.6613C78.3688 30.6613 78.239 30.6613 78.067 30.6613V30.6597Z" fill="white"/>
<path d="M27.1645 30.682V34.9053H25.9233V30.6593C25.6816 30.6593 25.4707 30.6739 25.2646 30.6512C25.1997 30.6447 25.0975 30.5441 25.0943 30.4809C25.0764 30.1986 25.0861 29.913 25.0861 29.5739C25.2873 29.5739 25.4755 29.5626 25.6605 29.5772C25.8714 29.5934 25.9298 29.5074 25.9233 29.3062C25.9104 28.9119 25.9185 28.5161 25.9201 28.1218C25.9201 28.0326 25.9282 27.9417 25.9347 27.8379H27.1613C27.1613 28.3133 27.1775 28.7789 27.1548 29.2429C27.1418 29.5155 27.2359 29.5836 27.4971 29.5804C28.0633 29.5707 27.9984 29.4879 28.0033 30.0639C28.0066 30.6496 28.0033 30.6496 27.4127 30.6609C27.3414 30.6609 27.27 30.6723 27.1645 30.682Z" fill="white"/>
<path d="M61.0039 27.8379H62.1558V34.9053H61.0039V27.8379Z" fill="white"/>
<path d="M80.9876 34.9054H79.7627V29.5935H80.9049C80.9146 29.7687 80.9227 29.931 80.9341 30.163C81.3186 29.7541 81.7307 29.4913 82.2888 29.4962V30.6124C82.1542 30.6432 82.0065 30.6773 81.8589 30.7114C81.3705 30.8233 81.0834 31.1332 81.0444 31.6264C81.0022 32.1732 80.999 32.7248 80.9909 33.2748C80.9828 33.8135 80.9893 34.3521 80.9893 34.907L80.9876 34.9054Z" fill="white"/>
<path d="M28.9204 29.585H30.0951V34.9033H28.9204V29.585Z" fill="white"/>
<path d="M96.9656 34.9136H95.7617V29.579C96.1251 29.579 96.4805 29.5709 96.8342 29.5887C96.8812 29.592 96.9558 29.7266 96.9591 29.8045C96.9721 30.1614 96.9656 30.52 96.9656 30.8786C96.9656 32.1084 96.9656 33.3382 96.9656 34.568V34.9152V34.9136Z" fill="white"/>
<path d="M95.7568 27.8369H96.9623C96.9623 28.176 96.9688 28.5037 96.9558 28.8299C96.9542 28.8818 96.8633 28.9726 96.8114 28.9759C96.4658 28.9889 96.1203 28.9824 95.7568 28.9824V27.8369Z" fill="white"/>
<path d="M28.8962 27.8369H30.1195C30.1195 28.1728 30.1243 28.5086 30.113 28.8445C30.113 28.8915 30.0286 28.9726 29.9816 28.9743C29.6701 28.9856 29.3586 28.9872 29.047 28.9743C28.9951 28.9726 28.9043 28.8834 28.9026 28.8315C28.8897 28.5054 28.8962 28.1776 28.8962 27.8369Z" fill="white"/>
</svg>
