<svg width="125" height="50" viewBox="0 0 125 50" fill="none" xmlns="http://www.w3.org/2000/svg">
<g clip-path="url(#clip0_243_1622)">
<path d="M48.681 16.6525C49.8077 16.5669 51.3446 16.5979 52.4697 16.6811C54.0133 16.7953 55.4295 17.0362 56.4288 18.321C57.0213 19.0826 57.1723 20.2539 57.1293 21.1902C57.0246 23.4456 55.4675 25.5473 53.4276 26.4811C51.64 27.2998 49.4473 27.021 47.5306 26.953C45.9186 26.8959 44.2999 26.319 43.5799 24.7597C43.2846 24.1199 43.1639 23.3146 43.1639 22.6143C43.1639 19.7451 45.787 16.8717 48.6818 16.6525H48.681ZM49.4406 19.2513C48.3991 19.3597 47.1762 20.5881 46.9297 21.5764C46.6335 22.7629 47.5568 24.3617 48.8388 24.4801C49.2448 24.5179 50.2086 24.5246 50.6011 24.4692C51.543 24.3357 53.2267 22.8973 53.3643 21.9333C53.4385 21.4144 53.3972 20.6016 53.1845 20.1204C52.9322 19.5503 52.354 19.2816 51.7514 19.2388C51.1311 19.1951 50.0516 19.1875 49.4414 19.2505L49.4406 19.2513Z" fill="white"/>
<path d="M86.3068 20.5697C86.3523 20.5235 86.4064 20.3984 86.4266 20.332C86.7659 19.2178 87.0107 18.0716 87.3845 16.9674C87.4605 16.7415 87.5736 16.6651 87.8158 16.6416C88.7872 16.5467 89.9097 16.7163 90.898 16.6416C90.9858 16.6399 91.1394 16.7121 91.1647 16.7961C91.2145 16.9632 90.9521 17.572 90.8947 17.7727C90.211 20.1767 89.5299 22.5832 88.8294 24.9831C88.6708 25.5272 88.5248 26.1964 88.3332 26.7111C88.2842 26.8421 88.1753 26.9832 88.0293 26.9958C87.4428 27.0462 84.834 27.0353 84.6601 26.9866C84.6019 26.9706 84.5555 26.9059 84.5462 26.8463C84.5175 26.6532 84.7218 26.1981 84.78 25.9882C84.872 25.6565 84.937 25.3114 85.0307 24.9797C85.1421 24.585 85.3851 24.0577 85.4299 23.658C85.4645 23.349 85.3784 23.2835 85.0762 23.2609C83.9343 23.3423 82.6557 23.1584 81.5298 23.2617C81.0259 23.3079 81.0926 23.4985 80.9736 23.8822C80.7576 24.5783 80.5457 25.277 80.3398 25.9764C80.2596 26.2468 80.2233 26.5264 80.1085 26.7943C80.0478 26.9362 80.0089 26.9773 79.8452 26.9941C79.1033 27.0705 76.2726 27.0991 76.3283 26.7716C76.9436 24.6212 77.5825 22.4749 78.1986 20.3295C78.4982 19.2849 78.7472 18.2244 79.0941 17.1958C79.2012 16.8775 79.1439 16.6827 79.5886 16.6391C80.5786 16.7113 81.6952 16.5467 82.67 16.6391C82.7941 16.6508 82.9266 16.6811 82.968 16.807C83.0034 16.9136 82.8405 17.4519 82.7966 17.6047C82.4101 18.9398 81.9729 20.2791 81.6041 21.6167C81.5686 21.7461 81.4842 22.0433 81.4766 22.1592C81.4606 22.3943 81.6623 22.3498 81.8058 22.2356C82.1662 21.9493 82.5468 21.3858 82.8793 21.039C83.0574 20.8535 83.1941 20.6889 83.4701 20.662C84.2922 20.5823 85.2763 20.7552 86.089 20.6654C86.1565 20.6578 86.2595 20.615 86.3068 20.5671V20.5697Z" fill="white"/>
<path d="M89.1121 26.9429C89.0168 26.8481 89.1299 26.5365 89.1661 26.4064C89.9359 23.6312 90.7858 20.8737 91.5816 18.1187C91.6635 17.834 91.8424 16.8768 92.0332 16.7231C92.083 16.6828 92.1539 16.671 92.2138 16.6509H103.078C103.343 16.6954 103.302 16.8104 103.211 17.0153C103.075 17.3201 102.613 17.9297 102.392 18.2135C102.028 18.6821 101.585 19.269 100.939 19.2841L95.2403 19.2808C95.0994 19.2951 95.0496 19.3253 94.988 19.4496C94.8048 19.8199 94.685 20.4622 94.5685 20.8762C94.4934 21.1424 94.3499 21.4791 94.3018 21.7428C94.2782 21.8729 94.2756 21.9753 94.4031 22.0442C94.7137 21.9711 94.8723 21.6638 95.0715 21.4606C95.2336 21.2952 95.7763 20.7099 95.9366 20.6436C95.9974 20.6184 96.0742 20.6176 96.1375 20.5915L100.009 20.5806C100.154 20.6008 100.372 20.6411 100.242 20.8141L97.9495 23.1047L97.7318 23.182L94.1549 23.1912C93.8596 23.2072 93.8089 23.4532 93.7321 23.6934C93.6072 24.0872 93.4764 24.3911 94.0165 24.439L101.042 24.4583C101.221 24.5473 101.063 24.7875 100.992 24.9126C100.684 25.4542 99.7666 26.4668 99.267 26.8447C99.2028 26.8934 99.1294 26.9329 99.061 26.9757C96.1923 27.0706 89.8219 27.0462 89.5451 27.0395C89.4717 27.0378 89.1484 26.9807 89.1121 26.9438V26.9429Z" fill="white"/>
<path d="M31.8907 16.6508L40.8682 16.6399C41.5501 16.7163 42.0228 16.9774 42.4237 17.5249C42.849 18.106 43.1799 19.2614 43.125 19.9751C42.9925 21.7049 41.3163 22.9695 39.6858 23.2222L33.7137 23.2398C33.4335 23.3314 32.7642 25.9143 32.5372 26.7657L32.3659 26.9731C32.0789 26.9832 29.5461 27.031 29.1359 26.9966C28.849 26.9723 28.6844 27.0453 28.7477 26.6465C29.5216 24.0376 31.3143 17.6744 31.4907 17.1345C31.5607 16.9212 31.6409 16.6894 31.8907 16.6516V16.6508ZM39.2655 20.0809C39.3026 19.6938 39.1152 19.4058 38.7802 19.3009L34.8843 19.29C34.7712 19.3286 34.6885 19.4 34.6421 19.5099C34.4547 19.9516 34.3551 20.5419 34.2125 21.0105C33.885 22.087 33.8091 21.9207 34.5586 21.6898L35.5089 20.7905L35.7283 20.6738C36.6415 20.5999 37.645 20.7443 38.5472 20.6662C38.6688 20.6561 39.2216 20.547 39.2655 20.0809Z" fill="white"/>
<path d="M101.348 26.6708C101.55 26.4659 101.845 26.2535 102.055 26.0519C103.294 24.8621 104.563 23.7117 105.807 22.5295C105.973 22.3716 106.212 22.2179 106.357 22.0282C106.589 21.7242 106.421 21.5327 106.281 21.2237C105.635 19.7963 104.815 18.4368 104.14 17.0219C104.06 16.718 104.15 16.6617 104.436 16.6407C105.552 16.5584 106.77 16.7079 107.898 16.6407C108.045 16.6432 108.19 16.6877 108.274 16.812L109.315 18.8793C109.385 18.9801 109.537 19.0246 109.647 18.9683C109.979 18.6979 110.26 18.3747 110.574 18.0867C110.938 17.7525 111.303 17.409 111.671 17.0807C111.777 16.9858 112.054 16.739 112.168 16.6945C112.248 16.6634 114.65 16.566 115.703 16.6399C115.958 16.6575 116.234 16.6701 116.018 16.9564C115.851 17.1764 115.577 17.3544 115.384 17.5417C114.063 18.8163 112.692 20.0356 111.378 21.3161C111.198 21.4908 110.906 21.636 110.914 21.94C111.638 23.5639 112.485 25.1367 113.257 26.7397C113.378 27.1049 112.987 26.9764 112.748 26.9924C111.771 27.0554 109.619 27.0386 109.547 27.0344C109.501 27.0319 109.299 26.9983 109.255 26.9857C109.138 26.9529 108.868 26.4424 108.796 26.3097C108.562 25.8706 108.349 25.2374 108.081 24.8411C107.904 24.58 107.725 24.69 107.518 24.8554C106.818 25.4163 106.184 26.1695 105.493 26.7413C105.408 26.8119 105.204 26.9647 105.106 26.9848C104.999 27.0067 104.768 27.0302 104.652 27.0369C104.488 27.0461 102.544 27.0655 101.698 26.9924C101.53 26.9781 101.185 27.0755 101.261 26.8127C101.267 26.7934 101.333 26.6876 101.351 26.67L101.348 26.6708Z" fill="white"/>
<path d="M70.574 16.7785L71.6037 18.8365C71.7598 19.0666 71.8873 19.0196 72.0822 18.8634C72.7245 18.3495 73.3339 17.6391 73.9584 17.0816C74.0648 16.9867 74.3416 16.7398 74.4555 16.6953C74.5357 16.6643 74.6505 16.6475 74.7383 16.6408C75.8287 16.561 77.0153 16.7046 78.1159 16.6408C78.2315 16.655 78.3581 16.6844 78.4256 16.7877C78.3623 16.8851 78.305 17.0027 78.2214 17.0833C76.4836 18.7744 74.5965 20.3219 72.8849 22.05C72.365 23.4557 72.0384 24.9369 71.5733 26.3635C71.5227 26.5205 71.5328 26.6507 71.4357 26.8136C71.294 27.0529 71.2442 26.9656 71.0247 26.9924C70.2871 27.0831 68.362 27.0495 68.1552 27.0378C68.0691 27.0327 67.7745 26.9933 67.734 26.953C67.5694 26.7901 67.7779 26.3904 67.8294 26.2082C68.1898 24.9411 68.5569 23.6656 68.9283 22.396L68.935 21.9879C68.2902 20.5655 67.5332 19.1859 66.8335 17.7894C66.7238 17.5711 66.571 17.3083 66.4824 17.09C66.3676 16.8062 66.3685 16.6743 66.7204 16.6408C67.8361 16.7197 69.0827 16.5417 70.1824 16.6408C70.3217 16.6533 70.4567 16.7021 70.5715 16.7776L70.574 16.7785Z" fill="white"/>
<path d="M59.478 16.6507L62.6759 16.6406L62.9308 16.7229C63.0084 16.9202 62.8877 17.0899 62.8422 17.2687C62.3451 19.2353 61.7104 21.1943 61.1677 23.1491C61.0875 23.4379 60.9381 23.8032 60.89 24.0895C60.8445 24.3607 61.0554 24.4036 61.2816 24.438L66.9566 24.4573C67.0157 24.5026 67.0503 24.5404 67.0359 24.6177C67.0224 24.6882 65.2703 26.8714 65.0467 26.9612C64.8931 27.0225 64.4905 27.0477 64.3191 27.0368C62.2024 26.905 56.6338 27.0175 56.4735 26.9948C56.2143 26.9579 56.427 26.4129 56.4735 26.2391C56.8862 24.6932 58.6627 18.545 59.1295 17.0176C59.1886 16.8245 59.2645 16.691 59.478 16.6515V16.6507Z" fill="white"/>
<path d="M21.1873 24.9403C21.2768 24.9386 21.53 24.8714 21.5849 24.8513C22.4052 24.5448 23.0053 24.0989 23.5986 23.5808C23.9016 23.3155 24.2603 22.8419 24.4249 22.5581C24.484 22.4565 24.5937 22.2063 24.6257 22.1332C24.6637 22.0484 24.6916 21.9174 24.6916 21.9174C24.6916 21.9174 24.8916 22.3524 24.9532 22.7159C25.2258 24.3332 25.0342 25.8824 24.4131 27.3947C24.3624 27.5173 24.0004 27.8381 24.0004 27.8381C24.0004 27.8381 23.9126 27.4736 23.8535 27.341C23.5758 26.7171 23.0686 26.2494 22.4635 25.937C21.8583 25.6246 21.2422 25.4827 20.5999 25.366C19.1314 25.099 17.6671 25.073 16.1901 25.2778C15.39 25.3895 14.5967 25.56 13.8219 25.7875C13.0505 26.0134 12.2808 26.293 11.5701 26.67C11.3768 26.7725 11.1886 26.885 11.0106 27.0118C10.8553 27.1218 10.6831 27.2519 10.5751 27.4107C10.5953 27.3813 10.7582 27.3502 10.7979 27.3384C10.9245 27.3023 11.057 27.2813 11.1861 27.2536C11.4351 27.2007 11.6849 27.1512 11.9347 27.105C12.4352 27.0126 12.9382 26.9345 13.4438 26.8741C14.4515 26.7532 15.4685 26.702 16.483 26.7507C17.895 26.8178 19.6319 27.147 20.6607 28.2084C21.1046 28.666 21.2903 29.2202 21.2262 29.8617C21.1705 30.4151 20.6236 31.1263 20.259 31.5411C20.0421 31.7879 20.0083 31.7493 19.7298 31.8534C16.5463 33.045 12.7973 32.3371 10.4071 29.8886C9.32428 28.7793 8.55203 27.3813 8.20346 25.874C8.04479 25.1855 7.94773 24.2425 8.02876 23.5388C8.05239 23.3365 8.13426 22.8881 8.13426 22.8881C8.13426 22.8881 9.32765 22.1265 9.93279 21.8561C10.8316 21.4547 12.2613 20.9232 15.5613 20.4757C16.4475 20.3556 18.9044 20.2338 20.0665 20.458C21.4313 20.7217 22.9336 21.6773 22.3571 23.2676C22.1697 23.784 21.9233 24.2358 21.557 24.6405C21.5148 24.6875 21.2456 24.9378 21.1873 24.9394V24.9403Z" fill="white"/>
<path d="M15.8618 16.0235C17.3016 15.9235 18.7128 16.1402 20.0496 16.6608C21.0295 17.0428 22.3706 18.0362 23.0433 18.8415C23.1369 18.9531 23.4425 19.4418 23.4425 19.4418C23.445 19.4502 23.0222 19.2705 22.9082 19.2176C22.5858 19.069 21.6262 18.8809 21.5055 18.8608C20.1982 18.6483 18.9482 18.697 17.624 18.7373C17.4476 18.7424 15.8432 18.8818 14.4819 19.2227C13.2876 19.5224 12.128 19.9826 11.0266 20.5276C10.0838 20.9936 8.91071 21.7224 8.13424 22.7334C8.13424 22.7334 8.52078 21.4495 8.58408 21.2816C9.65679 18.4216 12.8411 16.2342 15.8618 16.0235Z" fill="white"/>
<path d="M28.9376 28.3443C29.2347 28.2931 30.2357 28.3091 30.5218 28.3863C30.6366 28.4174 30.8931 28.5249 30.997 28.5853C31.3312 28.7793 31.478 29.2713 31.321 29.6223C31.2426 29.797 30.9902 29.9381 31.0147 30.1161C31.0299 30.221 31.2704 30.3856 31.3472 30.4998C31.3911 30.5653 31.5244 30.8206 31.5447 30.8894C31.6325 31.1892 31.3286 31.777 31.0543 31.9147C30.5353 32.1758 29.5875 32.2044 29.0111 32.1498C28.5452 32.1053 28.7148 31.6493 28.6971 31.2883C28.6583 30.5048 28.5967 29.6458 28.6524 28.8574C28.6566 28.7944 28.7005 28.4896 28.7157 28.4594C28.7452 28.4006 28.871 28.3552 28.9368 28.3443H28.9376ZM29.3157 28.7205C29.2035 28.7449 29.1351 28.8339 29.1191 28.9439C29.0954 29.1034 29.0963 29.577 29.1191 29.7374C29.1444 29.9145 29.2702 29.9548 29.433 29.9708C29.7554 30.001 30.5471 29.9952 30.7817 29.7584C31.0484 29.4897 30.9429 28.9665 30.6045 28.8062C30.5395 28.7751 30.3859 28.723 30.3175 28.7146C30.1369 28.6911 29.4795 28.6852 29.3157 28.7205ZM29.1706 31.677C29.1891 31.698 29.3166 31.7652 29.3503 31.7711C29.5453 31.8038 30.1065 31.7896 30.3218 31.7728C30.5859 31.7526 30.991 31.5603 31.0501 31.2807C31.0763 31.1581 31.0754 30.8004 31.0256 30.6921C30.8493 30.3067 29.9285 30.2756 29.5588 30.3016C29.3993 30.3134 29.1486 30.3529 29.1174 30.5334C29.1545 30.7584 29.0465 31.536 29.1706 31.6762V31.677Z" fill="white"/>
<path d="M86.0949 28.3425C87.0815 28.3299 88.4454 28.1678 88.9129 29.2561C89.2775 30.105 89.1273 31.5929 88.1441 31.9708C88.0411 32.0103 87.8622 32.0648 87.755 32.0875C87.387 32.1664 86.5 32.2 86.1303 32.1463C85.9826 32.1253 85.9016 32.0237 85.8957 31.8768C85.9792 30.8313 85.7893 29.6306 85.8957 28.6045C85.91 28.4685 85.9573 28.3786 86.0949 28.3417V28.3425ZM86.6012 28.7204C86.4502 28.7523 86.4156 28.8866 86.4021 29.0252C86.3278 29.7952 86.4603 30.676 86.4021 31.4586C86.4232 31.6223 86.4535 31.7441 86.6367 31.7701C86.8333 31.7978 87.2722 31.7886 87.4807 31.7735C87.9187 31.7407 88.2909 31.5266 88.4783 31.1303C88.5914 30.8918 88.6606 30.2998 88.6403 30.0303C88.5914 29.3711 88.2909 28.7783 87.5634 28.7111C87.3667 28.6927 86.776 28.6834 86.6004 28.7204H86.6012Z" fill="white"/>
<path d="M58.5836 30.3882C58.5177 30.4016 58.4063 30.5024 58.3937 30.5763C58.3667 30.7375 58.3709 31.3715 58.3953 31.5386C58.4181 31.6947 58.516 31.7569 58.6663 31.772C59.2064 31.8274 59.8588 31.7065 60.3948 31.7728C60.7442 31.8157 60.7298 32.1137 60.3559 32.149C59.7002 32.2103 58.9524 32.1003 58.2865 32.149C58.1059 32.1314 57.9632 32.0659 57.9303 31.8744L57.9278 28.6055C57.9193 28.4225 58.0789 28.3503 58.2443 28.3326C58.7448 28.2797 59.7601 28.294 60.2724 28.3326C60.4032 28.3427 60.5534 28.3637 60.626 28.4871C60.6581 28.598 60.5197 28.6735 60.4319 28.7038C59.8656 28.7617 59.2233 28.6534 58.6663 28.7105C58.516 28.7256 58.4181 28.7877 58.3953 28.9439C58.37 29.1169 58.3742 29.5611 58.3928 29.7399C58.408 29.8894 58.4705 29.9868 58.6274 30.0095C59.1018 30.0775 59.8217 29.9222 60.2631 30.0187C60.3804 30.0448 60.4935 30.1489 60.4555 30.2765C60.4471 30.3034 60.3644 30.3882 60.3551 30.3882H58.5836Z" fill="white"/>
<path d="M63.8019 29.8524C63.7454 29.9078 63.596 30.3956 63.585 30.4956C63.5352 30.9288 63.6517 31.5124 63.5825 31.918C63.5462 32.1313 63.2381 32.1909 63.2052 31.9163C63.1453 31.4201 63.2508 30.8272 63.2035 30.3243C63.1613 29.8759 62.9267 29.6601 62.4667 29.7197C62.2363 29.7499 62.0177 30.0052 61.9561 30.2185C61.8371 30.6316 62.0093 31.4024 61.9274 31.8668C61.8945 32.054 61.7206 32.211 61.5662 32.0557C61.5257 32.0146 61.4767 31.7064 61.4708 31.6258C61.4328 31.0892 61.4742 30.4804 61.5164 29.9489C61.5333 29.7356 61.4295 29.4905 61.6818 29.3998C61.8954 29.3234 61.8852 29.634 62.0844 29.6324C62.2017 29.6315 62.384 29.4224 62.5579 29.3914C62.671 29.3712 62.8989 29.367 63.0111 29.383C63.2601 29.4191 63.4137 29.7331 63.6812 29.7508C63.8694 29.6819 63.9479 29.4812 64.142 29.414C64.651 29.2385 65.2072 29.4888 65.3025 30.0404C65.3599 30.3738 65.3506 31.4797 65.3135 31.8349C65.3008 31.9516 65.2485 32.0801 65.1228 32.1069C65.0097 32.0868 64.9269 32.0221 64.8983 31.9096C64.8468 31.3965 64.9379 30.8306 64.8907 30.3243C64.8493 29.8775 64.5269 29.6282 64.0754 29.7256C64.0492 29.7314 63.8129 29.8414 63.8019 29.8524Z" fill="white"/>
<path d="M104.153 29.3493C104.217 29.346 104.441 29.3813 104.502 29.4014C104.669 29.456 104.817 29.6978 104.992 29.7079C105.21 29.7205 105.41 29.4106 105.701 29.3813C106.273 29.3242 106.639 29.5752 106.694 30.1571C106.732 30.5644 106.733 31.3873 106.694 31.7937C106.678 31.9625 106.622 32.1111 106.426 32.1027L106.278 31.9532C106.228 31.3982 106.321 30.7886 106.272 30.2411C106.235 29.8296 105.896 29.6432 105.499 29.7264C104.745 29.8842 105.085 31.3335 105.004 31.8751C104.966 32.1396 104.67 32.2186 104.627 31.9171C104.554 31.4024 104.767 30.3351 104.476 29.9296C104.297 29.681 103.884 29.6315 103.633 29.8011C103.134 30.137 103.313 31.4259 103.268 31.9541C103.11 32.2211 102.882 32.1203 102.852 31.8365C102.909 31.1387 102.781 30.3393 102.852 29.6542C102.871 29.4728 102.935 29.3947 103.128 29.4249C103.244 29.4426 103.282 29.5752 103.359 29.6147C103.57 29.7222 103.721 29.4669 103.907 29.4039C103.958 29.3863 104.103 29.3535 104.152 29.351L104.153 29.3493Z" fill="white"/>
<path d="M77.4094 32.0558C77.2187 32.2447 77.0136 31.913 76.849 31.9139C76.7199 31.9139 76.6119 32.0516 76.5005 32.0961C76.0219 32.2875 75.4716 31.9962 75.2328 31.5755C75.0201 31.2018 74.9298 30.8483 75.0336 30.4293C75.2016 29.7534 75.5991 29.3083 76.3443 29.3822C76.5418 29.4015 76.8271 29.661 76.9571 29.5737C77.1318 29.4561 76.9824 28.7457 77.0465 28.5308C77.1073 28.3276 77.4685 28.3091 77.4634 28.5635C77.3866 29.6324 77.558 30.824 77.4634 31.8778C77.4592 31.9265 77.4424 32.0247 77.4111 32.0566L77.4094 32.0558ZM76.0565 29.7273C75.5037 29.8264 75.3856 30.5317 75.4387 30.9936C75.4818 31.3656 75.7282 31.7107 76.108 31.7946C76.7748 31.9424 77.087 31.2161 77.0347 30.6644C76.9824 30.1127 76.7072 29.6114 76.0557 29.7273H76.0565Z" fill="white"/>
<path d="M83.4836 28.4274C83.5266 28.4694 83.5325 28.5853 83.5367 28.6474C83.6093 29.6802 83.4777 30.7945 83.5367 31.8357C83.4279 32.3614 83.1856 31.9474 82.9662 31.9356C82.7746 31.9247 82.5814 32.1187 82.3729 32.1464C82.0209 32.1926 81.6175 32.007 81.4082 31.7266C81.3162 31.604 81.1238 31.1766 81.0976 31.0288C81.0073 30.509 81.2419 29.7936 81.7061 29.5148C81.9644 29.3595 82.2336 29.3057 82.524 29.4023C82.7037 29.4619 82.9569 29.7348 83.092 29.467C83.1958 29.2612 82.9763 28.4618 83.2675 28.3821C83.3224 28.367 83.4456 28.3905 83.4836 28.4283V28.4274ZM82.1298 29.7256C81.3432 29.8927 81.2934 31.4327 82.0285 31.7375C82.7518 32.0381 83.1688 31.2958 83.1097 30.6635C83.0599 30.1337 82.7502 29.5938 82.1298 29.7256Z" fill="white"/>
<path d="M46.3204 28.4274C46.3617 28.4677 46.3719 28.587 46.3736 28.6474L46.3651 31.9533C46.1575 32.3043 46.0149 31.9474 45.803 31.9356C45.619 31.9256 45.5481 32.0431 45.4123 32.096C45.0814 32.2237 44.6451 32.1103 44.3885 31.8769C44.1961 31.7022 43.9724 31.2387 43.9361 30.986C43.8171 30.1589 44.4856 29.0723 45.4258 29.4225C45.5583 29.472 45.7549 29.6844 45.9001 29.5417C46.0613 29.383 45.7988 28.4669 46.1052 28.3821C46.16 28.367 46.2832 28.3905 46.3212 28.4283L46.3204 28.4274ZM44.9658 29.7264C44.7582 29.7701 44.5033 30.0069 44.44 30.2101C44.3269 30.5753 44.3176 30.949 44.451 31.3109C44.6653 31.8895 45.5304 31.9953 45.8157 31.4092C46.1305 30.7618 45.9035 29.5299 44.9658 29.7264Z" fill="white"/>
<path d="M66.1827 28.382C66.2351 28.3669 66.2773 28.372 66.3254 28.3972C66.5406 28.5097 66.4131 29.22 66.4503 29.4459C66.5102 29.8028 66.917 29.4056 67.063 29.3838C68.9907 29.0975 68.8404 32.3714 67.1483 32.1464C66.9373 32.1187 66.7558 31.8852 66.5997 31.8961C66.4309 31.9087 66.365 32.1229 66.2182 32.1094C66.1068 32.0993 66.0266 31.9381 66.0258 31.8357C66.1085 30.8188 65.9211 29.6449 66.0258 28.6474C66.035 28.5584 66.0882 28.4089 66.181 28.3812L66.1827 28.382ZM67.0706 29.7264C66.484 29.849 66.338 30.781 66.5271 31.2555C66.7009 31.6929 67.0276 31.9272 67.5053 31.7509C68.0184 31.5611 68.096 31.0161 68.0547 30.5342C68.0108 30.0186 67.6167 29.6113 67.0706 29.7264Z" fill="white"/>
<path d="M74.2876 28.4274C74.3289 28.4677 74.3391 28.587 74.3407 28.6474L74.3323 31.9533C74.253 32.0742 74.1905 32.138 74.0411 32.0885C73.9323 32.0524 73.9069 31.9348 73.7702 31.9356C73.6335 31.9365 73.5845 32.0263 73.4833 32.0734C73.1398 32.2329 72.7338 32.1414 72.4443 31.9155C71.8181 31.4276 71.7691 30.2613 72.3135 29.6962C72.5937 29.4057 73.0537 29.2797 73.4343 29.4225C73.5609 29.4703 73.8664 29.7088 73.9171 29.404C73.9534 29.1857 73.8124 28.4535 74.0715 28.3821C74.1264 28.367 74.2496 28.3905 74.2876 28.4283V28.4274ZM72.976 29.7256C72.1751 29.896 72.1185 31.4579 72.9043 31.7501C73.3499 31.9163 73.7381 31.6888 73.8833 31.2563C73.9373 31.0943 73.9382 30.5938 73.9145 30.4116C73.8546 29.9498 73.4478 29.6257 72.976 29.7256Z" fill="white"/>
<path d="M92.9084 33.1036C92.8662 33.0616 92.8603 32.9449 92.8561 32.8836C92.7827 31.8373 92.916 30.7088 92.8561 29.6533C92.8764 29.4685 92.9489 29.3661 93.1422 29.4568C93.2401 29.503 93.2477 29.5886 93.3844 29.5953C93.5954 29.6071 93.7035 29.4106 93.8925 29.3837C94.2208 29.3359 94.4926 29.3728 94.7534 29.5744C95.6792 30.2881 95.2826 32.2622 93.9752 32.1497C93.7904 32.1337 93.4688 31.9456 93.3211 32.0422C93.1557 32.1505 93.2899 32.7752 93.2199 32.9885C93.1794 33.1111 93.0106 33.2026 92.9101 33.1036H92.9084ZM93.8562 29.7255C93.5558 29.7927 93.2764 30.2965 93.2393 30.5795C93.149 31.2537 93.6292 32.0808 94.3871 31.7198C94.5508 31.6417 94.7669 31.383 94.7964 31.205C94.8445 30.9212 94.8606 30.4334 94.745 30.1689C94.5939 29.8229 94.2284 29.6424 93.8562 29.7263V29.7255Z" fill="white"/>
<path d="M54.2496 29.351C54.702 29.3133 55.2388 29.5727 55.4354 29.9951C55.5426 30.2252 55.7139 30.7651 55.3696 30.8407C54.9662 30.9297 54.2665 30.8054 53.8158 30.8474C53.7559 30.8533 53.5913 30.8877 53.5609 30.9297C53.3744 31.6392 54.3315 32.0187 54.8649 31.6803C55.0506 31.5628 55.1493 31.2664 55.4219 31.4326C55.5612 31.6342 55.048 32.0045 54.8801 32.0725C54.81 32.101 54.6893 32.1363 54.6151 32.1447C52.5912 32.3739 52.5676 29.4904 54.2496 29.3502V29.351ZM54.1213 29.7272C53.7027 29.8011 53.1828 30.4502 53.858 30.5157C54.091 30.5384 54.5552 30.5384 54.7881 30.5157C55.1949 30.4762 55.2076 30.1395 54.9316 29.9103C54.7071 29.723 54.4083 29.6777 54.1213 29.7281V29.7272Z" fill="white"/>
<path d="M90.8651 29.3502C91.4357 29.304 92.0704 29.7961 92.137 30.3704C92.1598 30.5677 92.1759 30.7902 91.9421 30.8415C91.4998 30.9389 90.7799 30.7818 90.3064 30.8507C89.9781 30.8986 90.0414 31.2084 90.1992 31.4158C90.4989 31.8105 91.0702 31.9583 91.4872 31.6459C91.591 31.5678 91.8518 31.2244 91.9944 31.4343C92.191 31.7231 91.461 32.117 91.2306 32.1463C89.1637 32.4108 89.0877 29.4946 90.8643 29.3502H90.8651ZM91.6678 30.4216C91.7758 30.3175 91.6863 30.1168 91.6112 30.0127C91.2956 29.5744 90.4837 29.6348 90.1807 30.0547C89.9697 30.3469 90.1022 30.4863 90.4305 30.5148C90.6702 30.5358 91.1242 30.5383 91.3606 30.5148C91.4222 30.5089 91.6332 30.4544 91.6669 30.4216H91.6678Z" fill="white"/>
<path d="M70.1536 29.3493C70.395 29.3283 70.7486 29.4476 70.9436 29.592C71.0601 29.6785 71.2567 29.9262 71.3192 30.0563C71.4095 30.2444 71.5395 30.7642 71.2736 30.8423C70.7588 30.8927 70.1832 30.7995 69.6768 30.8482C69.0058 30.9128 69.5333 31.6358 69.9409 31.7618C70.2482 31.8566 70.5368 31.8147 70.7925 31.6224C70.909 31.5342 71.1132 31.2277 71.2618 31.4133C71.4019 31.5888 71.1267 31.834 70.9858 31.9398C70.86 32.0338 70.6313 32.1287 70.476 32.1455C68.4538 32.3739 68.3855 29.5055 70.1536 29.3485V29.3493ZM70.9571 30.4233C71.039 30.3175 70.9217 30.037 70.839 29.9472C70.4997 29.5769 69.7249 29.6609 69.4438 30.0731C69.3831 30.163 69.3172 30.3687 69.4295 30.4334C69.6118 30.5392 70.4127 30.5392 70.6482 30.5157C70.7022 30.5106 70.9377 30.4476 70.9563 30.4233H70.9571Z" fill="white"/>
<path d="M80.2325 29.6878C80.4587 29.9129 80.8318 30.7979 80.3093 30.8508C79.8342 30.8995 79.2628 30.7928 78.7919 30.8516C78.5074 30.8869 78.4602 31.0783 78.5674 31.321C78.7421 31.714 79.348 31.913 79.7388 31.7518C79.922 31.6762 80.2393 31.2396 80.4039 31.4033C80.5988 31.5973 80.1448 31.9466 79.9777 32.0305C79.4156 32.3144 78.5555 32.1321 78.2526 31.5494C77.9496 30.9667 77.9833 30.5149 78.272 29.959C78.629 29.273 79.6924 29.1521 80.2317 29.6878H80.2325ZM79.1362 29.7273C78.867 29.7726 78.2576 30.2512 78.6433 30.4503C78.818 30.5401 79.5793 30.5367 79.803 30.5157C80.4554 30.4528 79.9827 29.7777 79.5464 29.7206C79.4333 29.7054 79.2485 29.7088 79.1362 29.7273Z" fill="white"/>
<path d="M34.4253 31.4024C34.5662 31.5384 34.2531 31.8751 34.1358 31.9583C33.7188 32.253 32.9888 32.206 32.5786 31.9163C31.8815 31.4234 31.9017 30.1605 32.5558 29.634C33.0394 29.2444 33.8826 29.2687 34.2826 29.7625C34.3729 29.8742 34.5822 30.2377 34.6 30.3696C34.632 30.6148 34.6574 30.8222 34.3721 30.8507C33.8767 30.9003 33.2479 30.781 32.7685 30.8507C32.2891 30.9204 32.5693 31.4234 32.809 31.6039C33.1559 31.8659 33.6125 31.876 33.9678 31.6224C34.0809 31.5418 34.2649 31.2462 34.4261 31.4016L34.4253 31.4024ZM33.1129 29.7255C33.0015 29.749 32.7128 29.9187 32.6428 30.0127C32.4132 30.3226 32.539 30.4829 32.8926 30.5148C33.1323 30.5358 33.5846 30.5384 33.8227 30.5148C34.0303 30.4947 34.167 30.4368 34.129 30.2084C34.0598 29.7868 33.4808 29.6474 33.112 29.7255H33.1129Z" fill="white"/>
<path d="M109.423 29.6877C109.548 29.8061 109.776 30.2066 109.806 30.3762C109.843 30.5878 109.839 30.8229 109.585 30.8515C109.088 30.906 108.48 30.7902 107.983 30.8515C107.486 30.9128 107.776 31.4317 108.045 31.6223C108.42 31.8876 108.866 31.8633 109.223 31.5803C109.265 31.5467 109.277 31.4854 109.336 31.4409C109.605 31.2344 109.794 31.4518 109.564 31.7508C109.261 32.1429 108.614 32.242 108.161 32.0959C107.41 31.8541 107.223 31.2193 107.284 30.4921C107.368 29.4887 108.687 28.9874 109.424 29.6877H109.423ZM108.325 29.7254C108.19 29.754 107.897 29.9396 107.813 30.0546C107.6 30.3493 107.795 30.487 108.106 30.5148C108.346 30.5357 108.798 30.5383 109.036 30.5148C109.291 30.4904 109.406 30.4039 109.322 30.1444C109.201 29.7699 108.677 29.6516 108.326 29.7254H108.325Z" fill="white"/>
<path d="M50.6391 29.5424C50.6509 29.5567 50.7555 29.592 50.7817 29.5928C50.926 29.5979 51.0307 29.4694 51.1564 29.4224C51.4797 29.3023 51.9473 29.3476 52.1861 29.6188C52.2891 29.7364 52.4309 30.0429 52.4461 30.1982C52.4857 30.5979 52.4874 31.4796 52.4461 31.8776C52.4114 32.2135 52.0882 32.1673 52.0308 31.9104C51.9439 31.5199 52.0646 30.8448 52.0241 30.409C51.9937 30.0874 51.8561 29.7549 51.4974 29.7171C50.2939 29.5886 50.6458 31.1807 50.5808 31.9104C50.4652 32.2026 50.1994 32.153 50.1656 31.8365L50.169 28.5676C50.1715 28.3257 50.5192 28.3215 50.5817 28.5306C50.6441 28.7397 50.5159 29.3879 50.6382 29.5424H50.6391Z" fill="white"/>
<path d="M39.0637 29.3503C39.5212 29.3134 40.0866 29.6333 40.263 30.0657C40.4749 30.5838 40.4217 31.5763 39.9043 31.9055C39.219 32.3413 38.3733 32.2271 38.0104 31.4655C37.8492 31.1279 37.769 30.7954 37.8686 30.4285C38.0349 29.8138 38.4012 29.4041 39.0637 29.3503ZM38.9346 29.7273C38.5312 29.7995 38.3126 30.2051 38.2746 30.5805C38.2299 31.028 38.3421 31.5419 38.7894 31.7392C39.3152 31.971 39.8858 31.5789 39.9567 31.0364C40.0461 30.3479 39.7659 29.5796 38.9346 29.7282V29.7273Z" fill="white"/>
<path d="M98.2052 29.3502C98.3436 29.3385 98.5242 29.378 98.6593 29.4225C99.4011 29.6676 99.5421 30.3293 99.4771 31.0347C99.4054 31.8164 98.758 32.2455 97.9925 32.138C96.6818 31.9541 96.5493 29.4913 98.2044 29.3502H98.2052ZM98.0761 29.7273C97.3941 29.8431 97.2886 30.7945 97.5064 31.3227C97.7655 31.9491 98.6947 31.9482 98.9817 31.3403C99.1007 31.0892 99.0973 30.6165 99.0391 30.3444C98.9429 29.9002 98.5183 29.6517 98.0761 29.7273Z" fill="white"/>
<path d="M100.054 29.4284C100.174 29.3931 100.281 29.4485 100.342 29.5518C100.595 29.975 100.678 30.6107 100.892 31.0591C100.984 31.2505 101.133 31.358 101.261 31.1304C101.502 30.7039 101.603 29.991 101.848 29.5753C101.939 29.4208 102.196 29.3285 102.223 29.5275C102.257 29.7701 101.88 30.567 101.779 30.8475C101.594 31.3605 101.432 31.9307 101.217 32.4269C101.089 32.7233 100.878 33.1591 100.51 33.1935C100.388 33.2053 100.16 33.1121 100.2 32.9693C100.278 32.8249 100.454 32.8342 100.575 32.7527C100.773 32.6192 100.87 32.2716 100.827 32.044L99.9953 29.6862C99.9818 29.6114 99.9573 29.4552 100.054 29.4267V29.4284Z" fill="white"/>
<path d="M42.3545 29.3485C42.5638 29.3292 42.8777 29.4333 43.0364 29.5727C43.174 29.6936 43.3166 29.9757 43.3352 30.1563C43.3757 30.5652 43.3774 31.4696 43.3352 31.8776C43.3006 32.2135 42.9773 32.1665 42.9199 31.9104C42.833 31.5199 42.9537 30.8448 42.9132 30.409C42.887 30.1353 42.7638 29.7893 42.4608 29.7264C41.2117 29.4661 41.5198 31.1815 41.4691 31.9104C41.351 32.2051 41.0868 32.1505 41.0539 31.8365C41.1104 31.1387 40.983 30.3393 41.0539 29.6541C41.0725 29.4728 41.1366 29.3947 41.3299 29.4249C41.4227 29.4392 41.4666 29.5441 41.5594 29.5744C41.7839 29.6491 41.8717 29.4879 42.0447 29.4232C42.1182 29.3955 42.2785 29.3569 42.3545 29.3502V29.3485Z" fill="white"/>
<path d="M37.2973 29.4284C37.3808 29.6047 37.277 29.8138 37.218 29.991C37.0027 30.6417 36.7377 31.3496 36.4904 31.992C36.3681 32.3085 36.1495 33.0013 35.8237 33.1314C35.6878 33.186 35.3316 33.2229 35.3316 33.0071C35.3316 32.8493 35.5705 32.8308 35.6718 32.7712C35.8549 32.6637 35.9655 32.3312 35.9537 32.1271C35.9418 31.9231 35.7747 31.4999 35.7005 31.2875C35.5401 30.829 35.3283 30.3814 35.1806 29.9179C35.1502 29.823 35.0337 29.4855 35.1122 29.4275C35.4481 29.3436 35.5064 29.6694 35.6051 29.9154C35.7106 30.1808 35.9275 31.0104 36.0777 31.1649C36.152 31.2413 36.2263 31.2572 36.314 31.1867C36.4246 31.0985 36.5681 30.6031 36.6263 30.4495C36.7166 30.2085 36.8474 29.7206 36.9724 29.5359C37.0635 29.4007 37.142 29.4108 37.299 29.4284H37.2973Z" fill="white"/>
<path d="M111.788 29.3494C111.963 29.3334 112.257 29.4166 112.403 29.5148C112.557 29.6181 112.641 29.7617 112.696 29.9363C112.809 30.2966 112.807 31.3923 112.768 31.7937C112.755 31.9314 112.702 32.1061 112.535 32.1061C112.342 32.1061 112.316 31.8685 112.302 31.7098C112.26 31.2152 112.356 30.6433 112.305 30.1563C112.263 29.7592 111.746 29.6441 111.416 29.7373C111.086 29.8305 110.933 30.3595 110.911 30.6601C110.881 31.0414 110.971 31.5687 110.912 31.9188C110.869 32.1724 110.564 32.1514 110.531 31.8365C110.46 31.1514 110.587 30.352 110.531 29.6542C110.622 29.1831 110.85 29.5333 111.025 29.5845C111.245 29.6492 111.502 29.3746 111.788 29.3494Z" fill="white"/>
<path d="M48.93 28.6332C49.228 28.5467 49.1621 29.0774 49.2178 29.2571C49.282 29.3856 49.5579 29.352 49.5799 29.5292C49.5985 29.729 49.3073 29.7198 49.2296 29.8953C49.1984 29.9658 49.1604 30.1959 49.1545 30.2815C49.13 30.6057 49.1292 31.2262 49.206 31.5318C49.2617 31.7527 49.7301 31.8971 49.5352 32.086C49.314 32.3002 48.8946 32.0331 48.7967 31.7712C48.6186 31.2942 48.8085 30.5074 48.7325 29.991C48.703 29.7912 48.4565 29.7038 48.4371 29.5703C48.4025 29.3319 48.6262 29.4032 48.7013 29.2454C48.7764 29.0875 48.6743 28.7071 48.93 28.6332Z" fill="white"/>
<path d="M114.168 29.3326C114.241 29.4048 114.479 29.3578 114.488 29.5358C114.499 29.7407 114.216 29.7021 114.14 29.844C114.111 29.896 114.081 30.0497 114.075 30.1152C114.046 30.4393 114.042 31.1321 114.086 31.447C114.143 31.8542 114.319 31.714 114.534 31.9659C114.535 32.1246 114.362 32.1515 114.222 32.1523C114.1 32.1523 113.91 32.0851 113.823 32.0003C113.513 31.698 113.709 30.4947 113.65 30.0346C113.618 29.7827 113.367 29.6903 113.355 29.5702C113.337 29.3914 113.585 29.3654 113.634 29.2167C113.708 28.9909 113.591 28.7029 113.934 28.5903C114.151 28.6424 114.055 28.8968 114.076 29.0656C114.082 29.1109 114.145 29.3108 114.167 29.3326H114.168Z" fill="white"/>
<path d="M95.9459 32.0559C95.9139 32.0248 95.8978 31.9257 95.8936 31.8779C95.7974 30.8241 95.9696 29.6325 95.8936 28.5636C95.9232 28.2832 96.2067 28.3403 96.2759 28.5653V31.8359C96.2818 32.0072 96.097 32.2037 95.9468 32.0559H95.9459Z" fill="white"/>
</g>
<defs>
<clipPath id="clip0_243_1622">
<rect width="108.094" height="17.1968" fill="white" transform="translate(8 16)"/>
</clipPath>
</defs>
</svg>
