<svg width="125" height="50" viewBox="0 0 125 50" fill="none" xmlns="http://www.w3.org/2000/svg">
<path d="M40.9623 40.0928C41.2867 40.1326 41.8177 40.243 42.142 40.3389C42.4663 40.4362 43.0012 40.7815 43.3315 41.1074C43.7207 41.4924 44.0247 41.9851 44.1987 42.5117C44.3932 43.0987 44.4494 43.6077 44.4037 44.3555C44.3551 45.1223 44.2357 45.5682 43.9409 46.0889C43.7211 46.4738 43.2933 46.9542 42.9897 47.1562C42.686 47.3568 42.0551 47.6057 41.5893 47.709C40.9111 47.858 40.5721 47.8579 39.894 47.7119C39.4282 47.6102 38.7809 47.3423 38.4565 47.1152C38.1322 46.8882 37.7049 46.4072 37.5073 46.0459C37.2434 45.5665 37.1277 45.0881 37.0805 44.2812C37.0422 43.6249 37.0896 42.936 37.1987 42.585C37.3004 42.2605 37.5373 41.7631 37.726 41.4785C37.9147 41.194 38.3232 40.8173 38.6313 40.6387C38.9409 40.4617 39.4593 40.2491 39.7836 40.168C40.1079 40.0869 40.6381 40.053 40.9623 40.0928ZM59.3178 41.8477C59.3178 42.7799 59.3687 43.5454 59.4291 43.5469C59.4916 43.5444 60.2064 42.7831 62.4877 40.1621L64.6039 40.1514L64.0639 40.7783C63.766 41.1235 63.1038 41.8371 61.6577 43.3223L64.9203 47.6738L62.9301 47.6787L60.5717 44.5576L59.9438 45.1943C59.3379 45.8064 59.3134 45.8642 59.3178 47.6738H57.6967V40.1514H59.3178V41.8477ZM31.1215 40.1543C32.8268 40.1572 33.2472 40.2045 33.7748 40.4492C34.1242 40.6129 34.5316 40.9537 34.6967 41.2207C34.9105 41.5703 34.9897 41.96 34.9897 42.6592C34.9897 43.358 34.9103 43.7472 34.6967 44.0967C34.5346 44.3606 34.1692 44.6768 33.8862 44.7979C33.5545 44.9394 32.8951 45.0185 30.7162 45.0186V47.6738H29.0942V40.1514L31.1215 40.1543ZM51.9467 40.1514L52.0854 40.7041C52.162 41.0079 52.4319 42.1866 52.684 43.3223C52.9361 44.458 53.1808 45.4884 53.228 45.6094C53.274 45.7276 53.504 44.6335 53.7397 43.1748C53.9739 41.7159 54.1957 40.4394 54.2358 40.3359C54.28 40.2194 54.6036 40.1514 55.1166 40.1514C55.8816 40.1514 55.9232 40.1707 55.8539 40.4834C55.8127 40.6663 55.4469 42.3421 55.0414 44.208C54.6367 46.0641 54.3061 47.6004 54.3041 47.6367C54.3056 47.6574 53.8585 47.6581 52.3207 47.6006L51.728 45.1396C51.4022 43.7857 51.1032 42.6438 51.062 42.6025C51.0201 42.564 50.7708 43.4398 50.5073 44.5488C50.2434 45.6593 49.9618 46.817 49.7348 47.6738H48.7026C48.1351 47.6738 47.6713 47.6574 47.6713 47.6367C47.6679 47.6007 47.3029 45.9316 46.8598 43.9131C46.414 41.8891 46.0493 40.2159 46.0493 40.1885C46.0493 40.1678 46.431 40.1499 47.7446 40.1455L48.2602 42.9463C48.5447 44.4877 48.8165 45.6662 48.8637 45.5674C48.9128 45.4665 49.2128 44.204 50.1039 40.1455L51.9467 40.1514ZM68.312 47.6738H66.6899V40.1514H68.312V47.6738ZM72.2924 40.1514C73.1844 40.1514 74.2299 40.2167 74.6147 40.2979C74.9995 40.3775 75.5804 40.6298 75.9047 40.8584C76.229 41.0871 76.6274 41.5355 76.7895 41.8555C77.0311 42.3332 77.0844 42.7301 77.0844 44.0703C77.0844 45.6058 77.0595 45.7421 76.6791 46.3203C76.4506 46.6684 76.0007 47.0797 75.6469 47.2656C75.094 47.5562 74.7631 47.5986 70.6703 47.6738V40.1514H72.2924ZM81.267 40.1807C82.7364 40.2279 83.4351 40.3138 83.8657 40.501C84.19 40.6426 84.64 40.936 84.8657 41.1543C85.0912 41.3741 85.3902 41.851 85.5287 42.2168C85.7012 42.6666 85.7802 43.2829 85.7729 44.1338C85.7655 45.1176 85.693 45.522 85.4409 46.0146C85.264 46.3597 84.904 46.8004 84.6401 46.9951C84.3763 47.1897 83.8961 47.4231 83.5717 47.5117C83.2474 47.6002 82.1353 47.6724 79.2221 47.6738L79.2563 40.1172L81.267 40.1807ZM89.3198 40.2256L90.1723 41.627C90.6419 42.3958 91.0837 43.0923 91.1567 43.1748C91.2392 43.2663 91.6268 42.7223 93.0805 40.1514H94.0395C94.5657 40.1514 94.999 40.1678 95.0004 40.1885C95.0003 40.2122 94.3327 41.2289 92.0453 44.6504L92.0483 47.6738H90.2797V44.6504L89.0512 42.8066C88.376 41.7918 87.7021 40.777 87.5532 40.5498L87.2836 40.1367L89.3198 40.2256ZM40.7534 41.1836C40.2005 41.1836 39.9216 41.271 39.5737 41.5527C39.27 41.8005 39.0458 42.1771 38.8969 42.6963C38.7746 43.1226 38.6757 43.7362 38.6772 44.0605C38.6772 44.385 38.7456 44.8993 38.8266 45.2031C38.9062 45.5069 39.1548 45.9631 39.3774 46.2168C39.7106 46.5959 39.9306 46.6928 40.6118 46.7695C41.4153 46.8595 41.4582 46.8467 41.9565 46.3467C42.3516 45.9514 42.5137 45.6238 42.6508 44.9453C42.7495 44.4588 42.7868 43.7954 42.7338 43.4707C42.6807 43.1462 42.58 42.6809 42.5092 42.4375C42.4399 42.1942 42.1791 41.8125 41.9301 41.5898C41.5674 41.2639 41.3372 41.1836 40.7534 41.1836ZM72.9438 41.1855C72.6933 41.1841 72.4345 41.2287 72.3666 41.2832C72.2988 41.3363 72.2538 42.5647 72.267 44.0117L72.2924 46.6416C73.7284 46.6401 74.1355 46.5502 74.4672 46.3467C74.7311 46.1845 75.0537 45.8363 75.185 45.5723C75.3663 45.205 75.4108 44.7742 75.3696 43.7373C75.318 42.4658 75.2868 42.355 74.8725 41.9258C74.6293 41.6737 74.199 41.4054 73.9145 41.3271C73.6299 41.249 73.193 41.1855 72.9438 41.1855ZM80.9916 46.6416C82.7663 46.5723 82.9447 46.5114 83.3442 46.125C83.5961 45.8818 83.8655 45.4502 83.9438 45.167C84.0205 44.8823 84.0839 44.2843 84.0825 43.8389C84.081 43.3448 83.9659 42.7824 83.7875 42.4004C83.6032 42.0024 83.3216 41.6851 83.018 41.5332C82.754 41.402 82.2001 41.2606 81.7875 41.2178L81.0366 41.1426L80.9916 46.6416ZM30.7162 43.9863C32.5154 43.9863 32.6945 43.9364 33.0082 43.6182C33.253 43.3689 33.3696 43.082 33.3696 42.7324C33.3695 42.4478 33.3032 42.0676 33.2221 41.8848C33.1396 41.7019 32.9085 41.47 32.7065 41.3682C32.503 41.2664 31.972 41.1836 31.5268 41.1836H30.7162V43.9863ZM61.8246 1.375C62.8021 1.36762 63.8622 1.46317 64.6996 1.63574C65.4294 1.78619 66.5248 2.11691 67.1323 2.36914C67.7412 2.62137 68.7188 3.14333 69.3041 3.53125C69.8909 3.91772 70.7537 4.61125 72.0717 5.90625L75.3149 5.95508C78.2751 6.0008 78.6098 6.03179 79.1479 6.31641C79.4722 6.48751 79.9698 6.89327 80.2543 7.21777C80.5387 7.54079 80.8528 8.06386 80.9516 8.38086C81.0519 8.69651 81.1323 9.28675 81.1323 9.69238C81.1323 10.0978 81.012 10.6949 80.8647 11.0195C80.7188 11.3439 80.3708 11.8369 80.0952 12.1143C79.818 12.3901 79.3248 12.7387 79.0004 12.8848C78.5597 13.0852 78.0386 13.1523 75.4623 13.1582L75.4428 15.1133C75.4266 16.6352 75.3501 17.3284 75.0952 18.2471C74.9153 18.8961 74.7389 19.5604 74.7036 19.7227C74.6535 19.9572 74.9085 20.2003 75.933 20.9023C76.6434 21.3889 77.4845 22.0189 77.8032 22.3037C78.1216 22.5884 78.5044 23.0857 78.6518 23.4102C78.8124 23.7627 78.9227 24.3569 78.9272 24.8848C78.9316 25.3714 78.8405 26.0013 78.727 26.2861C78.612 26.5708 78.3281 27.0293 78.0952 27.3066C77.8637 27.5839 77.3423 27.9659 76.937 28.1533C76.4387 28.3849 75.9254 28.4956 75.352 28.4971C74.8861 28.4985 74.2887 28.407 74.0248 28.2949C73.7607 28.1826 72.7987 27.553 70.228 25.6963L69.4545 26.2334C69.0284 26.5299 68.2155 26.9889 67.6479 27.2559C67.0802 27.5213 66.1174 27.8826 65.5102 28.0596C64.7348 28.2837 63.8306 28.4025 62.4877 28.4541C60.9738 28.5146 60.369 28.4779 59.6127 28.2803C59.0863 28.143 58.1565 27.7978 57.5493 27.5146C56.9422 27.2331 56.2451 26.868 56.0014 26.7041C55.7552 26.5389 55.917 26.7582 56.3696 27.1992C56.8531 27.6712 57.6566 28.2319 58.3598 28.5859C59.0085 28.9149 59.6809 29.2117 60.1674 29.3105L59.893 30.8584C59.7411 31.7095 59.5222 32.6735 59.4028 32.998C59.2848 33.3225 58.9024 33.8484 58.5532 34.167C58.2039 34.4854 57.7029 34.835 57.4389 34.9414C57.175 35.0491 56.5776 35.1352 56.1118 35.1338C55.5795 35.1308 55.0158 35.0189 54.6 34.8301C54.236 34.6634 53.7805 34.383 53.5903 34.2061C53.4001 34.0276 53.0847 33.5666 52.8901 33.1816C52.644 32.695 52.5366 32.2333 52.5366 31.6699C52.5366 31.2242 52.7359 29.696 53.4213 25.6963L52.1313 24.3242C51.3189 23.4613 50.5794 22.4908 50.1371 21.7061C49.7509 21.0201 49.2363 19.8463 48.9946 19.0957C48.7528 18.3449 48.4849 17.0836 48.3979 16.293C48.3109 15.5026 48.2795 14.6238 48.3295 14.3389C48.4195 13.8315 48.3771 13.7782 45.9916 11.3887C44.4672 9.86351 43.4735 8.748 43.3305 8.40137C43.2038 8.09744 43.1001 7.45043 43.1 6.96387C43.1 6.47737 43.1888 5.86387 43.2963 5.59961C43.4039 5.3356 43.7194 4.86592 43.9965 4.55469C44.2737 4.24494 44.8003 3.84982 45.1645 3.67871C45.5921 3.47958 46.1157 3.3706 46.6391 3.37207C47.1359 3.37505 47.7083 3.49338 48.1137 3.67773C48.4781 3.84477 49.2424 4.44678 50.8412 6.05371L50.5209 6.4707C50.344 6.70081 49.9676 7.38839 49.686 7.99609C49.4029 8.60525 49.0701 9.50057 48.9477 9.9873C48.8253 10.4741 48.6824 11.2711 48.6323 11.7578C48.5424 12.6173 48.563 12.5829 49.3325 10.5771C49.7674 9.44142 50.3517 8.08172 50.6303 7.55664C50.909 7.03005 51.5679 6.14153 52.0942 5.58105C52.6205 5.02206 53.4505 4.28015 53.937 3.93359C54.4235 3.58549 55.2864 3.0698 55.8539 2.78516C56.4215 2.50053 57.2171 2.15623 57.6225 2.02051C58.0278 1.88485 58.7915 1.6863 59.3178 1.58008C59.8441 1.47388 60.9725 1.3809 61.8246 1.375ZM53.893 30.416C53.8282 30.416 53.6823 30.4956 53.5688 30.5928C53.4553 30.6901 53.3768 30.94 53.393 31.1465C53.4107 31.3528 53.4917 31.6206 53.5727 31.7432C53.7009 31.9334 53.7512 31.925 53.9428 31.6699C54.0637 31.5077 54.163 31.2578 54.1616 31.1162C54.16 30.9747 54.1241 30.7586 54.0844 30.6377C54.0432 30.5154 53.9578 30.4162 53.893 30.416ZM77.308 24.6631C77.1298 24.6632 76.9793 24.7932 76.9233 24.9951C76.8717 25.1779 76.8718 25.5097 76.9203 25.7324C76.9822 26.0096 77.1033 26.1386 77.3051 26.1387C77.4864 26.1387 77.6338 26.0101 77.6899 25.8066C77.7385 25.6238 77.7385 25.2921 77.6899 25.0693C77.628 24.7935 77.5071 24.6631 77.308 24.6631ZM77.2143 23.2295C77.1229 23.1985 76.9984 23.259 76.9379 23.3652C76.8775 23.4699 76.8693 23.7058 76.9194 23.8887C76.9695 24.0716 77.093 24.1984 77.1948 24.1719C77.2964 24.1438 77.3792 23.935 77.3793 23.7051C77.3793 23.4751 77.3041 23.2607 77.2143 23.2295ZM73.6362 13.3057L73.9116 13.7852C74.0634 14.0491 74.2591 14.6627 74.3461 15.1494C74.4331 15.6362 74.5484 16.4995 74.603 17.0674C74.6988 18.0656 74.7043 18.0804 74.8149 17.5098C74.8783 17.1853 74.9335 16.1065 74.9379 15.1123L74.9467 13.3057H73.6362ZM62.6352 6.88965C61.7433 6.8587 60.5494 6.89695 59.9819 6.97363C59.4143 7.0518 58.5195 7.25566 57.9916 7.42676C57.4653 7.59786 56.5758 7.97796 56.017 8.27148C55.4583 8.56651 54.7223 9.10493 54.3803 9.4707C54.0383 9.83504 53.6831 10.4002 53.5903 10.7246C53.4974 11.0491 53.4208 11.4801 53.4194 11.6836C53.418 11.8858 53.4935 12.2838 53.5893 12.5684C53.6837 12.853 53.8838 13.2675 54.0327 13.4902C54.183 13.7129 54.5207 14.0035 54.7846 14.1348C55.0485 14.2675 55.6294 14.3779 56.0746 14.3809C56.7838 14.3853 57.0067 14.3075 57.8442 13.7617C58.372 13.4195 59.1685 12.9682 59.6137 12.7588C60.2741 12.4477 60.7536 12.3561 62.1938 12.2646C63.1667 12.2027 64.2608 12.0724 64.6264 11.9736C65.0317 11.8659 65.4994 11.5886 65.8266 11.2598C66.2156 10.8705 66.392 10.5427 66.4702 10.0605C66.5291 9.69474 66.5291 9.13108 66.4702 8.80664C66.4023 8.42477 66.1991 8.06046 65.894 7.77441C65.636 7.53107 65.1612 7.24539 64.8412 7.1377C64.5198 7.03149 63.5272 6.91915 62.6352 6.88965ZM78.4467 7.06641C78.3038 7.01629 78.1444 7.05611 78.0912 7.15332C78.0397 7.25212 78.172 7.48118 78.3871 7.66406C78.6021 7.84673 78.8793 7.99572 79.0004 7.99609C79.1227 7.99609 79.223 7.91324 79.226 7.81152C79.229 7.70975 79.1127 7.52043 78.9682 7.39062C78.8237 7.26094 78.5896 7.11509 78.4467 7.06641ZM46.0668 4.60352C45.9959 4.60365 45.7804 4.7261 45.5873 4.875C45.396 5.02535 45.3051 5.18332 45.3862 5.22754C45.4675 5.26998 45.6823 5.24783 45.8647 5.17578C46.0475 5.10498 46.1967 4.94517 46.1967 4.82422C46.1966 4.70193 46.139 4.60352 46.0668 4.60352ZM47.4721 4.16113C47.2805 4.16113 47.0034 4.28173 46.8559 4.43066C46.707 4.57812 46.5981 4.77713 46.6127 4.87305C46.6275 4.96743 46.7554 5.04537 46.8969 5.04688C47.0384 5.04688 47.3039 4.94857 47.4868 4.82617C47.6696 4.70375 47.8188 4.50279 47.8188 4.38184C47.8187 4.24773 47.6813 4.16116 47.4721 4.16113ZM67.3901 3.5752C67.0451 3.57819 66.6371 3.64789 66.4809 3.73047C66.3247 3.81306 66.2099 4.01018 66.2231 4.16797C66.2388 4.35972 66.4191 4.50518 66.7641 4.60352C67.0957 4.69782 67.4512 4.7003 67.7592 4.61035C68.023 4.53362 68.2886 4.36995 68.3491 4.24609C68.4152 4.1119 68.3703 3.931 68.2377 3.79688C68.1065 3.66265 67.7631 3.57225 67.3901 3.5752ZM63.2993 2.40137C63.1784 2.40579 62.941 2.47023 62.7729 2.54395C62.6063 2.6177 62.4236 2.7804 62.3676 2.9043C62.3132 3.02674 62.3669 3.2936 62.4877 3.49707C62.6086 3.69915 62.9914 3.99743 63.3364 4.1582C63.6814 4.31888 64.2314 4.45165 64.56 4.45312C64.8885 4.45454 65.2374 4.37313 65.3364 4.27148C65.4351 4.16971 65.5146 3.93778 65.5131 3.75488C65.5115 3.5691 65.3162 3.2611 65.0688 3.05469C64.8255 2.85114 64.3764 2.61969 64.0727 2.54004C63.7692 2.45899 63.4202 2.397 63.2993 2.40137Z" fill="white" fill-opacity="0.98"/>
<path d="M56.231 10.2085C56.5156 10.2085 56.8166 10.3603 57.107 10.6509C57.4017 10.9458 57.5493 11.2407 57.5494 11.5356C57.5494 11.841 57.4001 12.1243 57.0699 12.4458C56.6541 12.8514 56.523 12.9 56.0748 12.8159C55.7902 12.7613 55.4264 12.5827 55.2642 12.4175C55.0677 12.2179 54.9694 11.919 54.9693 11.52C54.9693 11.0466 55.0561 10.8457 55.3834 10.564C55.6178 10.3634 55.9863 10.2085 56.231 10.2085ZM56.2955 10.7163C56.2144 10.6943 56.0529 10.7084 55.9351 10.7495C55.8142 10.7908 55.7343 10.9786 55.7506 11.1792C55.7668 11.3753 55.8962 11.5719 56.0377 11.6147C56.1792 11.6575 56.3963 11.5888 56.5172 11.4634C56.6761 11.2998 56.6965 11.1676 56.5904 10.9966C56.5093 10.8638 56.3766 10.7384 56.2955 10.7163ZM63.2916 8.14307C63.539 8.14307 63.8734 8.20951 64.0357 8.29053C64.1979 8.37165 64.4314 8.66991 64.5523 8.95459C64.7174 9.34246 64.7361 9.58172 64.6256 9.91357C64.5356 10.1832 64.2912 10.4468 63.9996 10.5913C63.7063 10.7343 63.3775 10.7874 63.1519 10.7271C62.9485 10.6725 62.6326 10.4836 62.4469 10.3081C62.2082 10.0781 62.1153 9.82587 62.1226 9.42627C62.1301 9.04437 62.2447 8.75214 62.4879 8.50439C62.7105 8.27726 63.01 8.14309 63.2916 8.14307ZM63.2047 8.5835C63.1133 8.58501 62.9626 8.6862 62.8726 8.80713C62.7828 8.92798 62.7262 9.13727 62.7467 9.27002C62.7673 9.40425 62.8937 9.58629 63.0279 9.67627C63.215 9.80151 63.33 9.78668 63.5142 9.61865C63.6454 9.49777 63.7534 9.29724 63.7506 9.17627C63.7491 9.05532 63.6619 8.87034 63.5601 8.76709C63.4569 8.66538 63.2975 8.58202 63.2047 8.5835Z" fill="white" fill-opacity="0.98"/>
</svg>
