<svg width="194" height="55" viewBox="0 0 194 55" fill="none" xmlns="http://www.w3.org/2000/svg">
<g clip-path="url(#clip0_2394_4609)">
<path d="M193.689 9.90044C193.692 9.80505 193.671 9.71044 193.63 9.62444H193.182C192.207 9.62444 191.582 9.66644 189.825 9.66644C189.225 9.66644 188.325 9.62444 188.108 9.62444H187.6C187.541 9.66644 187.52 9.87944 187.52 9.95644C187.514 10.0753 187.549 10.1926 187.62 10.2884C188.311 10.3924 188.986 10.5825 189.63 10.8544C189.999 11.4538 190.195 12.1436 190.196 12.8474C190.214 13.1374 190.234 13.4314 190.234 14.2324V18.3094C190.237 18.5896 190.224 18.8697 190.196 19.1484C189.864 18.7774 189.396 18.0784 188.616 17.1974L182.095 9.97744C182.011 9.87902 181.913 9.79315 181.805 9.72244C181.648 9.72244 181.375 9.70444 181.221 9.70444C179.969 9.70444 177.707 9.64544 177.375 9.64544C177.331 9.73038 177.304 9.82311 177.295 9.91844C177.308 10.0431 177.327 10.167 177.354 10.2894C177.907 10.3784 178.419 10.6374 178.819 11.0304C179.211 11.3977 179.557 11.811 179.85 12.2614C179.916 12.4632 179.943 12.6755 179.931 12.8874C179.931 13.9014 179.872 15.3244 179.872 16.6874V20.6494C179.876 21.1458 179.838 21.6417 179.757 22.1314C179.183 22.6523 178.472 22.9991 177.708 23.1314C177.663 23.2429 177.637 23.3613 177.631 23.4814C177.631 23.5404 177.649 23.7364 177.687 23.7574H178.058C178.45 23.7574 179.348 23.6984 179.932 23.6984C180.792 23.6984 181.376 23.7574 182.177 23.7574H183.348C183.425 23.7364 183.448 23.5024 183.448 23.4254C183.447 23.3178 183.427 23.2111 183.389 23.1104C182.487 23.0051 181.654 22.575 181.046 21.9004C180.873 21.1058 180.789 20.2946 180.794 19.4814C180.794 18.8594 180.773 17.9984 180.773 16.8484C180.773 15.3034 180.794 13.9564 180.811 13.2754C180.93 13.4114 181.066 13.5864 181.164 13.7054L190.181 23.8344C190.275 23.9344 190.629 23.9494 190.726 23.9494C190.806 23.9568 190.886 23.9437 190.96 23.9114C191.077 23.6337 191.137 23.335 191.135 23.0334C191.135 22.4704 191.114 21.8834 191.114 21.5894V13.4494C191.114 11.0084 192.268 10.3234 193.614 10.2674C193.668 10.1512 193.694 10.0244 193.691 9.89644M171.324 16.0964C171.324 19.0474 170.506 21.6424 169.394 22.5584C168.809 23.0301 168.075 23.2782 167.324 23.2584C166.815 23.286 166.308 23.1797 165.853 22.9502C165.398 22.7207 165.01 22.376 164.73 21.9504C163.921 20.3849 163.524 18.639 163.576 16.8774C163.576 14.1644 164.276 12.0384 165.527 11.0034C166.091 10.5142 166.812 10.2437 167.559 10.2414C168.077 10.2382 168.587 10.3586 169.049 10.5927C169.511 10.8269 169.91 11.1679 170.213 11.5874C171.049 12.935 171.439 14.5124 171.325 16.0944M174.856 16.4684C174.911 15.2318 174.614 14.0049 174 12.9303C173.385 11.8558 172.478 10.9778 171.384 10.3984C170.254 9.7506 168.976 9.4061 167.674 9.39844C166.363 9.41374 165.077 9.75312 163.929 10.3863C162.782 11.0195 161.809 11.9269 161.097 13.0274C160.36 14.2108 159.968 15.5771 159.968 16.9714C159.969 18.0736 160.22 19.1612 160.703 20.1518C161.187 21.1423 161.889 22.0098 162.758 22.6884C164.049 23.6296 165.612 24.123 167.209 24.0934C168.224 24.0927 169.23 23.9007 170.174 23.5274C171.212 23.1335 172.142 22.4984 172.887 21.6744C174.184 20.2528 174.889 18.3888 174.856 16.4644M157.7 14.0124V10.0334C157.7 9.73944 157.585 9.66244 157.291 9.66244C156.704 9.66244 153.623 9.73944 150.501 9.73944C148.078 9.73944 146.068 9.70144 144.977 9.70144H143.529C143.277 9.70144 143.2 9.75744 143.2 10.0334V13.7604C143.294 13.816 143.402 13.8427 143.511 13.8374C143.655 13.8439 143.8 13.8311 143.941 13.7994C144.466 12.4399 145.427 11.2934 146.675 10.5404C147.259 10.4814 148.409 10.4634 148.72 10.4634C148.741 10.6764 148.762 11.3634 148.779 12.1804C148.8 13.5804 148.8 14.1904 148.8 17.5054C148.8 20.3764 148.779 21.6664 148.741 21.9774C148.664 22.5224 148.762 22.9324 146.419 23.0294C146.369 23.1732 146.349 23.3256 146.36 23.4774C146.357 23.5829 146.364 23.6884 146.381 23.7924H147.14C147.864 23.7924 149.559 23.7124 150.266 23.7124C150.829 23.7124 152.647 23.7714 153.836 23.7714H154.381C154.43 23.6409 154.45 23.5014 154.44 23.3624C154.444 23.2412 154.417 23.1209 154.363 23.0124C153.672 23.0629 152.98 22.9352 152.353 22.6414C152.233 22.1623 152.174 21.6702 152.175 21.1764C152.157 19.0674 152.137 18.2674 152.137 16.8614C152.137 15.0464 152.158 13.8194 152.158 10.4414C152.431 10.4414 153.058 10.4204 153.64 10.4414C154.572 10.6276 155.401 11.1564 155.962 11.9234C156.394 12.5885 156.743 13.3042 157 14.0544C157.108 14.0831 157.22 14.0949 157.332 14.0894C157.459 14.0881 157.585 14.062 157.703 14.0124M140.881 20.3554C140.886 20.1675 140.879 19.9794 140.86 19.7924C140.772 19.7385 140.668 19.7176 140.566 19.7334C140.422 19.7271 140.277 19.7399 140.136 19.7714C139.682 20.9308 138.943 21.9576 137.989 22.7574C137.526 22.9489 137.022 23.0221 136.524 22.9704H134.924C134.493 22.9777 134.062 22.9443 133.637 22.8704C133.343 22.8144 133.037 22.3464 132.896 22.0354C132.697 21.6577 132.621 21.2274 132.679 20.8044V16.5304H133.403C133.814 16.5427 134.218 16.6365 134.592 16.8064C134.971 16.9686 135.281 17.2579 135.47 17.6244C135.647 18.1483 135.759 18.6921 135.802 19.2434C135.965 19.3024 136.139 19.3286 136.312 19.3204C136.448 19.3278 136.583 19.2948 136.7 19.2254C136.7 18.6974 136.581 17.2744 136.581 16.4914C136.581 15.5164 136.717 14.1694 136.781 13.4664C136.66 13.4105 136.527 13.3841 136.393 13.3894C136.222 13.3784 136.05 13.3984 135.886 13.4484C135.827 13.7174 135.61 14.5394 135.571 14.5984C135.268 15.0874 134.797 15.4482 134.246 15.6124C133.875 15.7072 133.495 15.7599 133.113 15.7694H132.7V13.9534C132.7 12.0824 132.738 11.4774 132.756 11.1244C132.777 10.8904 132.815 10.6384 132.836 10.4634C133.225 10.4198 133.616 10.4057 134.007 10.4214C135.136 10.4214 135.664 10.4424 135.839 10.4424C136.287 10.4414 136.724 10.5783 137.091 10.8344C137.861 11.5166 138.496 12.3376 138.962 13.2544C139.097 13.2852 139.236 13.298 139.375 13.2924C139.49 13.2924 139.511 13.2544 139.669 13.1734C139.669 11.9844 139.589 10.4424 139.55 9.95344C139.529 9.75344 139.491 9.70144 139.102 9.70144C138.945 9.70144 138.202 9.66344 137.424 9.66344C136.312 9.66344 135.861 9.68144 134.162 9.68144C133.246 9.68144 131.351 9.70244 130.55 9.70244C129.382 9.70244 128.386 9.66444 127.879 9.66444H127.215C127.155 9.75763 127.121 9.86483 127.115 9.97544C127.117 10.1108 127.152 10.2437 127.215 10.3634C127.695 10.4011 128.172 10.4736 128.642 10.5804C128.85 10.7219 129.022 10.9106 129.144 11.1311C129.266 11.3516 129.333 11.5978 129.342 11.8494C129.384 12.2584 129.401 13.3914 129.401 14.2904V18.3084C129.401 19.1304 129.383 20.3184 129.363 20.8084C129.327 21.4459 129.183 22.0725 128.936 22.6614C128.371 22.8612 127.776 22.9607 127.177 22.9554C127.116 23.0908 127.082 23.2369 127.077 23.3854C127.08 23.5087 127.114 23.6292 127.177 23.7354H127.82C128.446 23.7354 130.747 23.6764 131.275 23.6764C131.764 23.6764 132.702 23.7144 133.831 23.7144C134.457 23.7144 136.293 23.8334 140.231 23.8334C140.408 23.8491 140.586 23.8363 140.759 23.7954C140.814 23.6999 140.841 23.5906 140.836 23.4804C140.878 23.0924 140.878 21.9384 140.878 20.3584M124.368 21.0434C124.327 20.9017 124.239 20.7782 124.118 20.6932C123.997 20.6081 123.851 20.5666 123.704 20.5754C123.662 20.5754 123.604 20.5934 123.568 20.5934C123.166 21.2807 122.593 21.8522 121.905 22.2523C121.217 22.6524 120.437 22.8674 119.641 22.8764C118.804 22.8806 117.984 22.6387 117.283 22.1807C116.583 21.7227 116.032 21.0688 115.7 20.3004C115.3 19.16 115.097 17.9599 115.1 16.7514C115.061 15.5849 115.26 14.4227 115.684 13.3354C116.544 11.0734 117.793 10.3664 119.317 10.3664C119.938 10.3962 120.544 10.5708 121.086 10.8762C121.628 11.1815 122.092 11.6093 122.439 12.1254C122.885 12.8602 123.219 13.6568 123.432 14.4894C123.573 14.5231 123.717 14.5419 123.862 14.5454C124.03 14.5281 124.192 14.4679 124.33 14.3704C124.313 14.1534 124.117 12.6534 124.117 12.1854C124.117 11.5984 124.271 10.6434 124.271 10.2724C124.04 10.1374 123.779 10.0627 123.512 10.0554C123.257 10.2922 123.034 10.5612 122.848 10.8554C121.621 9.88195 120.08 9.38951 118.516 9.47044C117.611 9.44308 116.71 9.60006 115.868 9.93185C115.025 10.2636 114.259 10.7633 113.616 11.4004C112.912 12.1266 112.363 12.989 112.004 13.9348C111.645 14.8807 111.484 15.8898 111.529 16.9004C111.497 18.021 111.73 19.1332 112.208 20.1471C112.686 21.161 113.396 22.0481 114.281 22.7364C115.624 23.6365 117.214 24.0948 118.83 24.0474C119.769 24.1117 120.709 23.9562 121.577 23.5932C122.445 23.2302 123.217 22.6698 123.83 21.9564C124.052 21.6766 124.237 21.3686 124.379 21.0404M109.182 9.90044C109.183 9.80519 109.163 9.7109 109.123 9.62444H108.672C107.697 9.62444 107.072 9.66644 105.315 9.66644C104.715 9.66644 103.815 9.62444 103.598 9.62444H103.091C103.032 9.66644 103.011 9.87944 103.011 9.95644C103.004 10.0755 103.039 10.1932 103.111 10.2884C103.802 10.3932 104.478 10.5833 105.122 10.8544C105.488 11.4548 105.683 12.1441 105.685 12.8474C105.706 13.1374 105.727 13.4314 105.727 14.2324V18.3094C105.731 18.5897 105.717 18.8699 105.685 19.1484C105.356 18.7774 104.885 18.0784 104.105 17.1974L97.591 9.97744C97.5057 9.87876 97.4067 9.79288 97.297 9.72244C97.14 9.72244 96.867 9.70444 96.713 9.70444C95.461 9.70444 93.199 9.64544 92.867 9.64544C92.8237 9.73053 92.7975 9.82328 92.79 9.91844C92.8016 10.0431 92.8203 10.1669 92.846 10.2894C93.3994 10.3784 93.9114 10.6374 94.311 11.0304C94.7052 11.3967 95.0529 11.8101 95.346 12.2614C95.4101 12.4635 95.4362 12.6758 95.423 12.8874C95.423 13.9014 95.367 15.3244 95.367 16.6874V20.6494C95.3704 21.146 95.3306 21.6418 95.248 22.1314C94.6736 22.6523 93.963 22.9991 93.199 23.1314C93.1554 23.2434 93.1295 23.3615 93.122 23.4814C93.122 23.5404 93.14 23.7364 93.178 23.7574H93.549C93.941 23.7574 94.839 23.6984 95.423 23.6984C96.283 23.6984 96.867 23.7574 97.668 23.7574H98.836C98.913 23.7364 98.936 23.5024 98.936 23.4254C98.9351 23.3178 98.9151 23.2111 98.877 23.1104C97.9761 23.0048 97.1446 22.5747 96.538 21.9004C96.367 21.1055 96.2825 20.2945 96.286 19.4814C96.286 18.8594 96.265 17.9984 96.265 16.8484C96.265 15.3034 96.286 13.9564 96.303 13.2754C96.422 13.4114 96.558 13.5864 96.656 13.7054L105.67 23.8344C105.839 23.9189 106.026 23.9585 106.215 23.9494C106.295 23.9574 106.376 23.9443 106.449 23.9114C106.566 23.6337 106.626 23.335 106.624 23.0334C106.624 22.4704 106.603 21.8834 106.603 21.5894V13.4494C106.603 11.0084 107.757 10.3234 109.103 10.2674C109.157 10.1514 109.185 10.0246 109.183 9.89644M89.883 23.4204C89.8838 23.2875 89.8639 23.1552 89.824 23.0284C89.3398 22.996 88.8578 22.9376 88.38 22.8534C88.0273 22.4226 87.7978 21.9042 87.716 21.3534C87.699 20.4164 87.678 18.4824 87.678 16.6714V11.8714C87.6596 11.4889 87.7855 11.1134 88.031 10.8194C88.5523 10.4929 89.1539 10.3174 89.769 10.3124C89.8061 10.1923 89.825 10.0672 89.825 9.94144C89.8231 9.82893 89.7883 9.71944 89.725 9.62644H89.159C88.341 9.62644 86.428 9.72644 85.759 9.72644C85.35 9.72644 83.437 9.67044 82.577 9.64944H82.15C82.0761 9.7436 82.0404 9.86213 82.05 9.98144C82.0533 10.1059 82.066 10.2299 82.088 10.3524C82.6076 10.3467 83.1237 10.4393 83.609 10.6254C83.829 10.8402 84.0006 11.0995 84.1122 11.3859C84.2238 11.6724 84.2728 11.9795 84.256 12.2864C84.274 12.6574 84.291 13.4574 84.312 15.2514C84.333 16.2274 84.35 17.5944 84.35 18.7234C84.35 19.2894 84.312 20.5594 84.291 21.2444C84.2723 21.6478 84.1812 22.0444 84.022 22.4154C83.788 22.6074 83.55 22.9604 82.122 23.0584C82.0835 23.1914 82.0637 23.329 82.063 23.4674C82.063 23.6244 82.101 23.7014 82.101 23.7994H82.433C83.216 23.7994 85.167 23.6994 86.181 23.6994C86.475 23.6994 88.503 23.7584 89.146 23.7584H89.8C89.8497 23.6548 89.876 23.5414 89.877 23.4264M74.227 13.2334C74.2402 13.827 74.0793 14.4115 73.7643 14.9148C73.4492 15.418 72.9937 15.818 72.454 16.0654C71.9287 16.1803 71.3915 16.232 70.854 16.2194C70.612 16.225 70.37 16.2123 70.13 16.1814L70.109 14.5204V10.9284C70.0945 10.7754 70.1368 10.6223 70.228 10.4984C70.4909 10.403 70.7709 10.3639 71.05 10.3834C72.571 10.3834 73.235 10.5194 73.781 11.4394C74.0906 11.9856 74.2455 12.6058 74.229 13.2334M79.89 23.4434C79.888 23.3 79.8538 23.1589 79.79 23.0304C79.3477 23.0416 78.9084 22.9556 78.503 22.7784C78.3812 22.6233 78.2703 22.4599 78.171 22.2894C77.9343 21.5257 77.6542 20.7762 77.332 20.0444C76.9995 19.1873 76.5097 18.3997 75.888 17.7224C75.4305 17.4437 74.9378 17.2274 74.423 17.0794C74.112 16.9604 73.857 16.8624 73.623 16.7644C73.8871 16.7104 74.1543 16.672 74.423 16.6494C75.1995 16.6555 75.9557 16.4006 76.57 15.9254C76.9586 15.6295 77.2711 15.2451 77.4816 14.8043C77.692 14.3634 77.7943 13.8787 77.78 13.3904C77.7882 12.6191 77.5581 11.8641 77.1213 11.2284C76.6844 10.5926 76.062 10.1072 75.339 9.83844C74.5713 9.66975 73.7856 9.59686 73 9.62144C71.535 9.62144 69.486 9.75744 68.511 9.75744C68.217 9.75744 66.518 9.71944 65.836 9.71944C65.542 9.71944 64.801 9.68144 64.686 9.68144C64.632 9.79858 64.5981 9.92402 64.586 10.0524C64.5884 10.171 64.6011 10.2891 64.624 10.4054C64.956 10.4434 65.561 10.5204 65.872 10.5804C66.2435 10.8416 66.5284 11.208 66.69 11.6324C66.8143 13.289 66.854 14.9508 66.809 16.6114C66.809 18.6004 66.83 20.9054 66.732 21.6464C66.7286 21.9163 66.6525 22.1802 66.5117 22.4104C66.3709 22.6406 66.1706 22.8285 65.932 22.9544C65.5638 23.0185 65.1927 23.0639 64.82 23.0904C64.7594 23.2112 64.7253 23.3435 64.72 23.4784C64.7316 23.5864 64.7575 23.6923 64.797 23.7934C65.073 23.7934 68.059 23.7344 68.682 23.7344C69.93 23.7344 70.982 23.7934 72.098 23.7934C72.1411 23.7009 72.1672 23.6013 72.175 23.4994C72.1737 23.3596 72.1476 23.2211 72.098 23.0904C71.706 23.0524 71.22 22.9334 71.004 22.8904C70.7436 22.7674 70.5253 22.5705 70.3761 22.3242C70.2269 22.0779 70.1535 21.7932 70.165 21.5054L70.151 17.0004C70.3195 16.9856 70.4888 16.9796 70.658 16.9824C71.0243 16.9871 71.382 17.0949 71.69 17.2934C72.3305 17.6103 72.8667 18.1041 73.235 18.7164C73.9001 20.0286 74.3161 21.4526 74.462 22.9164C74.521 23.3254 74.675 23.6754 75.049 23.7164C75.203 23.7374 76.238 23.7754 76.979 23.7754H79.773C79.8472 23.6818 79.8877 23.5659 79.888 23.4464M58.692 13.3304C58.7087 13.7844 58.6289 14.2368 58.4577 14.6576C58.2865 15.0784 58.0279 15.4581 57.699 15.7714C57.1001 16.1693 56.3846 16.3539 55.668 16.2954C55.3878 16.3013 55.1075 16.2886 54.829 16.2574C54.672 16.2404 54.574 16.2194 54.574 16.1214L54.595 10.4044C54.9699 10.3453 55.3485 10.3119 55.728 10.3044C57.053 10.3044 57.875 10.6364 58.263 11.4544C58.5508 12.0369 58.6981 12.6788 58.693 13.3284M62.186 13.4054C62.1935 12.7008 62.0016 12.0083 61.6325 11.408C61.2634 10.8076 60.7322 10.3238 60.1 10.0124C58.9725 9.65235 57.7888 9.50054 56.607 9.56444C55.107 9.56444 52.761 9.67944 51.729 9.67944C51 9.68044 49.909 9.60044 49.3 9.60044C49.2429 9.69491 49.2086 9.8014 49.2 9.91144C49.1918 10.0448 49.2119 10.1784 49.259 10.3034C49.63 10.4184 50.234 10.5164 50.626 10.6144C50.9354 10.9052 51.1227 11.3027 51.15 11.7264C51.209 12.4114 51.25 13.2684 51.25 14.7514C51.25 18.8704 51.232 21.0384 51.173 21.5064C51.1375 21.8188 51.0142 22.1147 50.8174 22.3598C50.6205 22.605 50.3583 22.7893 50.061 22.8914C49.6871 22.9781 49.3089 23.0449 48.928 23.0914C48.9029 23.2263 48.8902 23.3632 48.89 23.5004C48.8853 23.5947 48.9046 23.6886 48.946 23.7734C49.572 23.7734 51.408 23.6964 52.11 23.6964C53.848 23.6964 55.624 23.7734 56.344 23.7734H56.834C56.8838 23.6778 56.9043 23.5697 56.893 23.4624C56.9022 23.3432 56.8879 23.2232 56.851 23.1094C56.1904 23.0981 55.5499 22.8807 55.019 22.4874C54.7475 22.1659 54.6075 21.7538 54.627 21.3334L54.568 17.0434C55.739 17.1204 56.988 17.1584 57.668 17.1584C58.4355 17.1591 59.1985 17.041 59.93 16.8084C60.6051 16.5367 61.1816 16.0658 61.5826 15.4585C61.9836 14.8511 62.1902 14.1361 62.175 13.4084" fill="white"/>
<path d="M194 31.6651C194 31.5501 193.923 31.5111 193.885 31.4311C193.085 31.4311 192.032 31.4901 191.619 31.4901C190.626 31.4901 189.419 31.4101 188.888 31.4101C188.829 31.5291 188.808 31.5501 188.808 31.6481C188.808 31.7279 188.823 31.8071 188.85 31.8821C189.416 31.9971 190.235 32.1341 190.392 32.4061C190.52 32.6389 190.581 32.9028 190.567 33.1681C190.575 33.4149 190.535 33.661 190.448 33.8921C190.273 34.3781 189.903 35.1401 189.378 36.2141C188.478 38.0291 187.913 39.1581 187.598 39.6141C187.091 38.7541 185.962 36.4921 185.689 35.9081L184.594 33.5271C184.543 33.3558 184.517 33.1779 184.517 32.9991C184.508 32.8266 184.535 32.6542 184.594 32.4921C184.769 32.1391 185.374 32.1001 186.194 32.0021C186.229 31.908 186.248 31.8086 186.25 31.7081C186.25 31.5721 186.194 31.6081 186.135 31.5161H185.785C184.474 31.5161 184.865 31.5721 182.621 31.5721C181.666 31.5721 180.512 31.5161 180.359 31.5161C180.279 31.6521 180.24 31.6701 180.24 31.8061C180.241 31.8906 180.269 31.9725 180.32 32.0401C181.62 32.3551 182.02 32.5851 182.152 32.8401L185.568 39.5401C185.827 40.0043 186.037 40.4943 186.194 41.0021C186.331 41.7751 186.383 42.5607 186.351 43.3451C186.384 43.6278 186.344 43.9144 186.235 44.1771C186.125 44.4398 185.949 44.6699 185.725 44.8451C185.212 44.9744 184.689 45.0597 184.162 45.1001C184.101 45.1783 184.066 45.2738 184.062 45.3731C184.069 45.4537 184.089 45.5327 184.121 45.6071C185.121 45.6071 186.153 45.5861 186.736 45.5861C187.145 45.5861 187.771 45.6071 188.921 45.6241C189.585 45.6451 190.092 45.6661 190.442 45.6661C190.496 45.5906 190.53 45.503 190.542 45.4111C190.543 45.3198 190.515 45.2305 190.462 45.1561C189.876 45.1337 189.299 45.0007 188.762 44.7641C188.586 44.6106 188.448 44.4181 188.36 44.202C188.271 43.9858 188.234 43.752 188.252 43.5191L188.098 40.5891C188.091 40.4294 188.117 40.27 188.175 40.1211C188.229 39.9332 188.3 39.7507 188.388 39.5761L191.395 33.6211C191.708 33.0993 192.134 32.6549 192.643 32.3211C193.048 32.1384 193.474 32.0067 193.912 31.9291C193.954 31.85 193.98 31.7634 193.989 31.6741M178.223 35.6951V31.9001C178.223 31.6061 178.104 31.5291 177.81 31.5291C177.226 31.5291 174.53 31.6061 171.41 31.6061C168.99 31.6061 167.371 31.5681 166.277 31.5681H164.833C164.581 31.5681 164.501 31.6271 164.501 31.9001V35.4321C164.567 35.4865 164.65 35.515 164.735 35.5121C164.815 35.5184 164.895 35.5053 164.969 35.4741C165.731 33.7741 166.119 32.8741 167.431 32.2121C168.015 32.1561 170.064 32.1351 170.375 32.1351C170.396 32.3521 170.417 33.0351 170.434 33.8521C170.455 35.2571 170.455 36.0201 170.455 39.3381C170.455 42.2051 170.434 43.6911 170.396 44.0021C170.319 44.5471 170.417 44.9571 168.074 45.0541C168.024 45.1573 168.004 45.2721 168.015 45.3861C168.011 45.4647 168.019 45.5434 168.036 45.6201H168.795C169.519 45.6201 170.473 45.5431 171.176 45.5431C171.742 45.5431 172.816 45.6021 174.008 45.6021H174.553C174.601 45.5119 174.621 45.4097 174.612 45.3081C174.617 45.2107 174.589 45.1145 174.532 45.0351C173.841 45.085 173.149 44.9573 172.522 44.6641C172.404 44.1848 172.345 43.6928 172.347 43.1991C172.329 41.0911 172.309 40.0991 172.309 38.6921C172.309 36.8771 172.33 35.4921 172.33 32.1151C172.603 32.1151 174.047 32.0941 174.63 32.1151C175.529 32.3021 176.319 32.8342 176.83 33.5971C177.252 34.2449 177.55 34.9659 177.708 35.7231C177.803 35.7546 177.902 35.7675 178.002 35.7611C178.081 35.7587 178.156 35.7318 178.219 35.6841M161.999 45.3241C162 45.2298 161.98 45.1366 161.94 45.0511C161.456 45.0184 160.974 44.9599 160.496 44.8761C160.143 44.4452 159.914 43.9269 159.832 43.3761C159.815 42.4391 159.794 40.3131 159.794 38.4981V33.5391C159.778 33.1574 159.903 32.7832 160.144 32.4871C160.665 32.1597 161.267 31.9828 161.882 31.9761C161.92 31.8975 161.941 31.8115 161.942 31.7241C161.942 31.6804 161.933 31.6372 161.916 31.597C161.899 31.5568 161.873 31.5204 161.842 31.4901H161.279C160.457 31.4901 159.286 31.5901 158.622 31.5901C158.213 31.5901 157.042 31.5311 156.182 31.5131H155.752C155.717 31.5441 155.69 31.5833 155.673 31.6273C155.657 31.6713 155.652 31.7186 155.658 31.7651C155.662 31.8512 155.675 31.9366 155.696 32.0201C156.216 32.0142 156.732 32.1068 157.217 32.2931C157.437 32.5078 157.609 32.7671 157.72 33.0536C157.832 33.34 157.881 33.6471 157.864 33.9541C157.882 34.3211 157.899 35.3181 157.92 37.1151C157.941 38.0911 157.958 39.4151 157.958 40.5491C157.958 41.1151 157.92 42.5771 157.899 43.2621C157.881 43.6655 157.79 44.0622 157.63 44.4331C157.392 44.6331 157.158 44.9781 155.735 45.0761C155.697 45.1695 155.677 45.2692 155.676 45.3701C155.676 45.5271 155.714 45.5271 155.714 45.6221H156.046C156.829 45.6221 158.039 45.5281 159.053 45.5281C159.347 45.5281 160.633 45.5841 161.28 45.5841H161.92C161.971 45.5087 161.999 45.4201 162.001 45.3291M152.358 41.7381C152.378 41.0103 152.178 40.2933 151.785 39.6807C151.391 39.0681 150.822 38.5883 150.152 38.3041C149.461 37.9667 148.735 37.7052 147.988 37.5241C147.009 37.2667 146.06 36.9067 145.156 36.4501C144.789 36.233 144.488 35.9202 144.286 35.5451C144.083 35.1701 143.986 34.7469 144.006 34.3211C144.082 33.6592 144.411 33.0521 144.923 32.6267C145.436 32.2013 146.093 31.9904 146.758 32.0381C147.281 32.0362 147.796 32.1593 148.261 32.3971C148.727 32.6349 149.128 32.9805 149.433 33.4051C149.93 34.0917 150.336 34.8391 150.643 35.6291C150.75 35.674 150.869 35.6832 150.981 35.6555C151.094 35.6278 151.195 35.5645 151.269 35.4751C151.183 34.8923 151.13 34.305 151.112 33.7161C151.133 33.2053 151.192 32.6969 151.29 32.1951C151.228 32.0982 151.141 32.021 151.036 31.9726C150.932 31.9242 150.817 31.9067 150.703 31.9221C150.421 32.1232 150.165 32.3583 149.941 32.6221C149.025 31.8182 147.842 31.3855 146.623 31.4091C146.104 31.3685 145.583 31.4343 145.091 31.6025C144.598 31.7706 144.146 32.0376 143.76 32.3869C143.375 32.7363 143.065 33.1607 142.849 33.6341C142.634 34.1075 142.517 34.62 142.507 35.1401C142.531 35.9109 142.782 36.6575 143.227 37.2871C143.712 37.9329 144.371 38.4266 145.127 38.7101C145.69 38.9441 148.227 39.7101 148.578 39.8431C150.141 40.4431 150.728 40.9761 150.728 42.3611C150.69 43.101 150.385 43.8019 149.868 44.3331C149.598 44.6379 149.263 44.8783 148.888 45.0368C148.513 45.1953 148.107 45.2678 147.7 45.2491C147.082 45.2538 146.471 45.1275 145.905 44.8786C145.34 44.6297 144.834 44.2638 144.42 43.8051C143.84 43.003 143.393 42.113 143.095 41.1691C143.007 41.1402 142.914 41.1284 142.822 41.1341C142.69 41.1343 142.56 41.1744 142.451 41.2491C142.451 41.5041 142.528 42.7911 142.528 43.1791C142.519 43.7654 142.448 44.349 142.315 44.9201C142.377 45.0335 142.467 45.1289 142.577 45.197C142.686 45.265 142.812 45.3033 142.941 45.3081C143.218 45.0322 143.55 44.8187 143.916 44.6821C144.084 44.6976 144.245 44.7591 144.381 44.8601C145.343 45.5121 146.481 45.8525 147.643 45.8351C150.395 45.8351 152.363 44.4471 152.363 41.7351M135.1 35.0001C135.084 35.6461 134.869 36.2715 134.486 36.7917C134.103 37.312 133.569 37.702 132.957 37.9091C132.286 38.0238 131.606 38.0754 130.926 38.0631C130.692 38.0631 130.026 38.0631 129.734 38.0251L129.716 36.3081V32.6231C129.716 32.3681 129.775 32.2311 129.852 32.1721C130.301 32.0865 130.759 32.048 131.216 32.0571C133.052 32.0571 133.891 32.2321 134.555 33.1861C134.923 33.7184 135.114 34.3531 135.1 35.0001ZM139.2 45.3431C139.199 45.2377 139.166 45.1351 139.105 45.0491C138.662 45.0601 138.221 44.9741 137.815 44.7971C137.694 44.6408 137.583 44.4771 137.483 44.3071C137.253 43.481 136.98 42.6675 136.665 41.8701C136.334 41.0114 135.844 40.2228 135.221 39.5451C134.785 39.2653 134.312 39.0488 133.815 38.9021C133.504 38.7831 133.249 38.6891 133.015 38.5911C133.279 38.5372 133.546 38.4975 133.815 38.4721C134.563 38.4542 135.287 38.2024 135.885 37.7521C136.283 37.464 136.607 37.0858 136.831 36.6483C137.055 36.2108 137.172 35.7265 137.172 35.2351C137.18 34.4661 136.949 33.7136 136.512 33.0807C136.076 32.4479 135.454 31.9656 134.732 31.7001C133.963 31.5331 133.176 31.4616 132.389 31.4871C130.927 31.4871 129.833 31.6231 128.857 31.6231C128.567 31.6231 127.609 31.5851 126.927 31.5851C126.633 31.5851 125.892 31.5471 125.773 31.5471C125.717 31.6831 125.673 31.7221 125.673 31.7991C125.676 31.8914 125.691 31.983 125.715 32.0721C126.044 32.1141 126.649 32.1911 126.963 32.2501C127.335 32.5105 127.62 32.8771 127.781 33.3021C127.881 33.9281 127.9 35.6831 127.9 38.4351C127.9 40.4241 127.918 42.9241 127.82 43.6661C127.819 43.9364 127.743 44.2011 127.602 44.4317C127.461 44.6622 127.26 44.8498 127.02 44.9741C126.652 45.0383 126.281 45.0837 125.908 45.1101C125.849 45.1897 125.815 45.2844 125.808 45.3831C125.821 45.4652 125.849 45.5444 125.889 45.6171C126.162 45.6171 128.406 45.5581 129.029 45.5581C130.281 45.5581 130.592 45.6171 131.704 45.6171C131.747 45.5534 131.775 45.4804 131.784 45.4041C131.784 45.3008 131.756 45.1994 131.704 45.1101C131.316 45.0721 130.826 44.9531 130.61 44.9181C130.35 44.7938 130.133 44.5961 129.984 44.3494C129.835 44.1027 129.762 43.8178 129.774 43.5301L129.753 38.6521C129.91 38.6311 130.473 38.6311 130.631 38.6311C131.164 38.6053 131.697 38.6986 132.19 38.9041C132.967 39.2355 133.633 39.7841 134.106 40.4841C134.77 41.8163 135.187 43.258 135.337 44.7391C135.393 45.1481 135.55 45.5011 135.921 45.5391C136.297 45.5871 136.675 45.6068 137.054 45.5981H139.082C139.118 45.5664 139.148 45.5272 139.167 45.4832C139.187 45.4392 139.197 45.3914 139.197 45.3431M122.823 42.3781C122.827 42.1892 122.821 42.0003 122.805 41.8121C122.717 41.7582 122.613 41.7373 122.511 41.7531C122.424 41.7471 122.337 41.7601 122.256 41.7911C121.967 42.9959 121.253 44.0561 120.245 44.7771C119.717 44.9766 119.15 45.0509 118.588 44.9941H116.4C115.968 44.991 115.537 44.9576 115.11 44.8941C114.82 44.8351 114.51 44.3661 114.372 44.0551C114.178 43.6346 114.103 43.1691 114.155 42.7091V38.2631H114.781C115.347 38.2313 115.912 38.3245 116.438 38.5361C116.863 38.7065 117.229 38.9983 117.49 39.3751C117.65 39.901 117.742 40.445 117.766 40.9941C117.857 41.0558 117.967 41.0841 118.077 41.0741C118.189 41.0794 118.3 41.0439 118.388 40.9741C118.388 40.4461 118.273 39.0231 118.273 38.2401C118.273 37.2651 118.409 36.0761 118.465 35.3731C118.373 35.314 118.263 35.2869 118.154 35.2961C118.047 35.2858 117.94 35.3052 117.843 35.3521C117.784 35.6251 117.626 36.4461 117.591 36.5061C117.218 37.0064 116.691 37.3702 116.091 37.5411C115.566 37.6594 115.029 37.7111 114.491 37.6951H114.18V35.7841C114.18 33.9101 114.218 33.1511 114.236 32.7981C114.257 32.5641 114.295 32.3121 114.316 32.1341C114.491 32.1161 115.057 32.0961 115.956 32.0961C117.085 32.0961 117.925 32.1171 118.103 32.1171C118.549 32.117 118.984 32.2523 119.351 32.5051C120.165 33.116 120.771 33.9617 121.089 34.9281C121.164 34.9558 121.243 34.9677 121.323 34.9631C121.438 34.9631 121.459 34.9281 121.613 34.8481C121.613 33.6591 121.536 32.3131 121.498 31.8241C121.477 31.6241 121.439 31.5691 121.047 31.5691C120.893 31.5691 120.147 31.5311 119.372 31.5311C118.257 31.5311 117.809 31.5521 116.11 31.5521C115.194 31.5521 113.575 31.5701 112.774 31.5701C111.603 31.5701 111.347 31.5321 110.84 31.5321H110.176C110.118 31.5971 110.083 31.6793 110.076 31.7661C110.079 31.8656 110.114 31.9614 110.176 32.0391C110.656 32.0765 111.133 32.149 111.603 32.2561C111.876 32.4901 112.128 32.5501 112.303 33.4831C112.341 33.8961 112.362 35.2211 112.362 36.1191V40.1401C112.362 40.9581 112.341 42.3081 112.32 42.7941C112.284 43.4444 112.139 44.084 111.89 44.6861C111.327 44.8862 110.733 44.9857 110.135 44.9801C110.075 45.0747 110.041 45.1832 110.035 45.2951C110.038 45.3933 110.073 45.4879 110.135 45.5641H110.778C111.404 45.5641 112.967 45.5081 113.491 45.5081C113.981 45.5081 114.641 45.5461 115.774 45.5461C116.4 45.5461 118.232 45.6651 122.174 45.6651C122.351 45.6793 122.529 45.6651 122.702 45.6231C122.757 45.529 122.784 45.421 122.779 45.3121C122.817 44.9241 122.817 43.9661 122.817 42.3851M108.381 31.7251C108.381 31.6481 108.36 31.5251 108.281 31.5121H107.617C107.149 31.5121 106.407 31.5501 106.075 31.5501C104.494 31.5501 103.928 31.4501 103.694 31.4501H103.344C103.302 31.5501 103.244 31.6041 103.244 31.7021C103.244 31.7791 103.286 31.8381 103.286 31.9191C103.743 31.9713 104.194 32.0685 104.632 32.2091C104.942 32.5444 105.117 32.9832 105.122 33.4401C105.039 34.0495 104.881 34.6461 104.65 35.2161L101.51 42.9431L97.65 33.1671C97.6679 32.9484 97.7347 32.7366 97.8455 32.5472C97.9562 32.3579 98.1082 32.1958 98.29 32.0731C98.7087 31.9908 99.1328 31.9393 99.559 31.9191C99.6019 31.8338 99.628 31.7412 99.636 31.6461C99.636 31.5661 99.618 31.4461 99.536 31.4291H99.047C98.447 31.4291 97.53 31.5091 96.495 31.5091C96.047 31.5091 95.17 31.4671 94.31 31.4671H93.548C93.5008 31.536 93.474 31.617 93.4708 31.7005C93.4677 31.784 93.4882 31.8667 93.53 31.9391C94.1037 32.0853 94.6553 32.3076 95.17 32.6001C95.7698 33.753 96.3039 34.9389 96.77 36.1521L98.385 40.0521C99.731 43.2931 100.532 45.4611 100.63 45.8321C100.73 45.8911 100.63 45.9471 100.805 45.9471C100.98 45.9471 100.962 45.9091 101.005 45.8111L106.04 33.7111C106.208 33.3031 106.445 32.927 106.74 32.5991C107.193 32.2522 107.732 32.0357 108.299 31.9731C108.339 31.8936 108.366 31.8087 108.38 31.7211M91.285 45.3211C91.2876 45.2267 91.2673 45.133 91.226 45.0481C90.7419 45.0156 90.2599 44.9571 89.782 44.8731C89.4306 44.4414 89.2013 43.9234 89.118 43.3731C89.1 42.4361 89.08 40.3101 89.08 38.4951V33.5391C89.0615 33.1565 89.1875 32.781 89.433 32.4871C89.9526 32.1597 90.5529 31.9828 91.167 31.9761C91.2064 31.8979 91.2266 31.8116 91.226 31.7241C91.2258 31.6804 91.2169 31.6372 91.1997 31.597C91.1825 31.5568 91.1575 31.5204 91.126 31.4901H90.559C89.741 31.4901 88.57 31.5901 87.905 31.5901C87.496 31.5901 86.325 31.5311 85.468 31.5131H85.038C85.0011 31.5429 84.9724 31.5818 84.9549 31.626C84.9374 31.6701 84.9316 31.718 84.938 31.7651C84.9418 31.8512 84.9546 31.9366 84.976 32.0201C85.4956 32.0147 86.0117 32.1073 86.497 32.2931C86.7171 32.5078 86.8887 32.7671 87.0003 33.0536C87.1119 33.34 87.1609 33.6471 87.144 33.9541C87.162 34.3211 87.182 35.3181 87.2 37.1151C87.221 38.0911 87.242 39.4151 87.242 40.5491C87.242 41.1151 87.2 42.5771 87.183 43.2621C87.1646 43.6662 87.071 44.0633 86.907 44.4331C86.676 44.6331 86.442 44.9781 85.015 45.0761C84.977 45.1695 84.957 45.2692 84.956 45.3701C84.956 45.5271 84.998 45.5271 84.998 45.6221H85.327C86.11 45.6221 87.32 45.5281 88.334 45.5281C88.628 45.5281 89.914 45.5841 90.558 45.5841H91.205C91.2551 45.5085 91.2819 45.4198 91.282 45.3291M82.46 31.6891C82.4622 31.6178 82.4416 31.5477 82.401 31.4891H81.953C80.978 31.4891 80.547 31.5271 78.792 31.5271C78.184 31.5271 77.292 31.4891 77.075 31.4891H76.57C76.514 31.5271 76.493 31.6641 76.493 31.7441C76.491 31.7851 76.4991 31.8259 76.5165 31.863C76.5339 31.9002 76.5602 31.9325 76.593 31.9571C77.2839 32.0614 77.9591 32.2516 78.603 32.5231C78.9705 33.122 79.1663 33.8104 79.169 34.5131C79.187 34.8071 79.207 35.1001 79.207 35.9011V41.7001C79.2097 41.9802 79.197 42.2603 79.169 42.5391C78.837 42.1681 78.269 41.4481 77.508 40.5501L70.053 31.8401C69.9682 31.7418 69.8691 31.6568 69.759 31.5881C69.602 31.5881 69.409 31.5671 69.252 31.5671C68.004 31.5671 66.91 31.5111 66.577 31.5111C66.541 31.5687 66.5216 31.6351 66.521 31.7031C66.5252 31.7889 66.5369 31.8743 66.556 31.9581C67.0948 32.0162 67.6117 32.2031 68.063 32.5031C68.4299 32.8448 68.751 33.2327 69.018 33.6571C69.0834 33.8576 69.1106 34.0686 69.098 34.2791C69.098 35.2971 69.039 37.1461 69.039 38.5171V42.6711C69.0427 43.1676 69.0028 43.6635 68.92 44.1531C68.3465 44.6753 67.6355 45.0223 66.871 45.1531C66.8288 45.2246 66.8025 45.3045 66.794 45.3871C66.794 45.4461 66.812 45.5621 66.85 45.5871H67.221C67.613 45.5871 68.511 45.5311 69.099 45.5311C69.956 45.5311 70.344 45.5871 71.144 45.5871H72.319C72.396 45.5661 72.414 45.4121 72.414 45.3321C72.4143 45.2611 72.3938 45.1915 72.355 45.1321C71.455 45.0265 70.6239 44.598 70.016 43.9261C69.8428 43.117 69.7573 42.2915 69.761 41.4641C69.761 40.8421 69.74 39.8241 69.74 38.6741C69.74 37.1321 69.761 35.0061 69.782 34.3211C69.897 34.4571 70.076 34.6741 70.209 34.8281L79.461 45.6641C79.561 45.7591 79.597 45.7791 79.699 45.7791C79.801 45.7791 79.734 45.7791 79.814 45.7411C79.8905 45.455 79.9242 45.1591 79.914 44.8631C79.914 44.2971 79.893 43.7091 79.893 43.4151V35.1201C79.893 32.6831 81.047 31.9981 82.393 31.9421C82.4429 31.8664 82.4696 31.7778 82.47 31.6871M64.397 31.7811C64.3935 31.6881 64.3582 31.5991 64.297 31.5291H63.734C63.126 31.5291 62.307 31.5671 61.605 31.5671C60.825 31.5671 59.948 31.5291 59.378 31.5291H58.678C58.6281 31.6038 58.6003 31.6912 58.598 31.7811C58.6007 31.8691 58.6208 31.9558 58.657 32.0361C58.737 32.0361 60.157 32.0571 60.412 32.4071C60.747 32.8411 61.0047 33.3296 61.174 33.8511C61.2862 34.5618 61.3381 35.2807 61.329 36.0001C61.329 37.6611 61.329 38.7731 61.308 39.3571C61.3 40.2351 61.1814 41.1087 60.955 41.9571C60.7187 42.7624 60.2059 43.4586 59.5067 43.9229C58.8075 44.3871 57.9669 44.5898 57.133 44.4951C56.3437 44.4991 55.563 44.3301 54.846 44.0001C54.3524 43.777 53.9215 43.4356 53.5915 43.0062C53.2615 42.5767 53.0425 42.0724 52.954 41.5381L52.854 35.6851L52.837 33.3041C52.837 32.8561 53.4 32.4441 53.596 32.2101C54.09 32.1055 54.5916 32.0413 55.096 32.0181C55.1517 31.9369 55.186 31.843 55.196 31.7451C55.1934 31.6952 55.1798 31.6465 55.1563 31.6025C55.1328 31.5584 55.1 31.52 55.06 31.4901L54.319 31.5111C53.595 31.5291 52.641 31.5491 52.036 31.5491C51.099 31.5491 50.375 31.5281 49.791 31.5281H48.973C48.9369 31.5632 48.9092 31.6059 48.8918 31.6532C48.8745 31.7004 48.8681 31.751 48.873 31.8011C48.8697 31.8436 48.8752 31.8863 48.8891 31.9265C48.9031 31.9668 48.9251 32.0037 48.954 32.0351C49.576 32.1151 49.985 32.1711 50.262 32.2351C50.5812 32.435 50.822 32.7387 50.944 33.0951C50.965 33.3471 51.003 33.9731 51.003 35.1951V39.8801C50.9736 40.7565 51.0407 41.6334 51.203 42.4951C51.4304 43.4882 52.0416 44.351 52.903 44.8951C53.9759 45.5521 55.2188 45.8781 56.476 45.8321C57.6454 45.8607 58.8022 45.585 59.833 45.0321C60.3182 44.7572 60.7405 44.3839 61.0728 43.9361C61.4052 43.4884 61.6403 42.9761 61.763 42.4321C61.9703 41.6754 62.0762 40.8946 62.078 40.1101V36.3681C62.078 35.6681 62.116 34.7881 62.116 34.4381C62.1003 33.6808 62.3042 32.9351 62.703 32.2911C63.2316 32.1435 63.7742 32.052 64.322 32.0181C64.3683 31.947 64.3949 31.8648 64.399 31.7801" fill="white"/>
<path d="M16.65 12.1171C16.5924 12.1182 16.5363 12.1354 16.488 12.1669C16.4397 12.1984 16.4013 12.2428 16.3771 12.2951L15.8001 13.5731C15.7866 13.5827 15.7713 13.5892 15.7551 13.5921C15.7371 13.5921 15.717 13.5731 15.703 13.5331C15.689 13.4931 15.619 13.3091 15.469 12.9611L15.2841 12.5431C15.2181 12.3891 15.165 12.2881 15.148 12.2561C15.1236 12.2138 15.0885 12.1786 15.0462 12.154C15.0039 12.1295 14.9559 12.1164 14.907 12.1161C14.8989 12.1052 14.895 12.0917 14.896 12.0781C14.8952 12.0654 14.8976 12.0527 14.903 12.0411H15C15.108 12.0411 15.2 12.0461 15.28 12.0461C15.36 12.0461 15.532 12.0371 15.637 12.0371H15.7C15.71 12.0371 15.714 12.0621 15.714 12.0701C15.7148 12.0845 15.7124 12.0988 15.707 12.1121C15.637 12.1191 15.48 12.1121 15.48 12.2121C15.4799 12.2414 15.4847 12.2704 15.4941 12.2981L15.872 13.1981L16.1871 12.4551C16.2158 12.3924 16.2302 12.3241 16.2291 12.2551C16.2291 12.1711 16.17 12.1341 16.012 12.1151C16.0071 12.104 16.0038 12.0922 16.0021 12.0801C16.0031 12.065 16.0065 12.0502 16.012 12.0361H16.057C16.127 12.0361 16.1971 12.0451 16.3571 12.0451C16.3851 12.0451 16.493 12.0401 16.546 12.0401H16.654C16.6615 12.0497 16.6664 12.0611 16.668 12.0731C16.6661 12.0891 16.6598 12.1043 16.65 12.1171Z" fill="white"/>
<path d="M18.248 13.5491C17.79 13.5491 17.542 13.5371 17.479 13.5371H17.262C17.199 13.5371 17.052 13.5471 16.891 13.5471H16.8C16.7945 13.537 16.7921 13.5256 16.793 13.5141C16.7913 13.4995 16.7913 13.4847 16.793 13.4701C16.8727 13.471 16.9516 13.4542 17.024 13.4211C17.0614 13.3501 17.0783 13.2702 17.073 13.1901C17.073 13.1201 17.073 13.0431 17.073 12.9651C17.073 12.8501 17.073 12.7101 17.073 12.5401V12.3001C17.073 12.1341 16.989 12.1341 16.818 12.1151C16.8145 12.102 16.8122 12.0886 16.811 12.0751C16.811 12.0661 16.811 12.0421 16.825 12.0371H16.909C16.965 12.0371 17.115 12.0371 17.402 12.0371C17.664 12.0371 17.92 12.0421 17.975 12.0421H18.132C18.167 12.0421 18.181 12.0421 18.181 12.0771L18.202 12.4201C18.181 12.4301 18.177 12.4341 18.16 12.4341C18.1485 12.4361 18.1366 12.4361 18.125 12.4341C18.0725 12.3291 17.9945 12.239 17.898 12.1721C17.858 12.1476 17.812 12.1344 17.765 12.1341C17.744 12.1341 17.692 12.1341 17.565 12.1341C17.465 12.1341 17.408 12.1341 17.394 12.1391C17.38 12.1441 17.38 12.1391 17.373 12.1971C17.373 12.2341 17.366 12.2971 17.366 12.4971V12.6971H17.418C17.4755 12.6981 17.5329 12.6924 17.589 12.6801C17.6513 12.6629 17.7056 12.6247 17.743 12.5721C17.7591 12.5315 17.7708 12.4892 17.778 12.4461C17.7932 12.4384 17.8101 12.4349 17.827 12.4361C17.8407 12.4356 17.8541 12.4398 17.865 12.4481C17.865 12.5091 17.851 12.6251 17.851 12.7711C17.851 12.8441 17.858 13.0051 17.858 13.0711C17.8522 13.0759 17.8455 13.0794 17.8383 13.0815C17.8311 13.0835 17.8235 13.0841 17.816 13.0831C17.8019 13.0832 17.7878 13.0815 17.774 13.0781C17.76 12.9491 17.739 12.8611 17.631 12.8161C17.5779 12.7937 17.5207 12.7828 17.463 12.7841C17.4296 12.7847 17.3962 12.787 17.363 12.7911V13.1911C17.3591 13.2512 17.3662 13.3116 17.384 13.3691C17.395 13.3951 17.429 13.4481 17.475 13.4531C17.5213 13.4608 17.5682 13.4641 17.615 13.4631H17.832C17.8898 13.4628 17.947 13.4509 18 13.4281C18.1055 13.3417 18.1882 13.2308 18.241 13.1051C18.2551 13.0987 18.2705 13.0956 18.286 13.0961C18.3016 13.0968 18.3169 13.1006 18.331 13.1071V13.5071C18.329 13.5441 18.3 13.5491 18.248 13.5491Z" fill="white"/>
<path d="M20.0669 12.5142C20.0569 12.5142 20.043 12.5142 20.025 12.5092C19.9974 12.43 19.9598 12.3547 19.913 12.2852C19.8804 12.2411 19.8384 12.205 19.7899 12.1795C19.7414 12.154 19.6877 12.1399 19.6329 12.1382C19.5979 12.1382 19.514 12.1382 19.486 12.1382V12.8042C19.486 12.9042 19.486 13.0332 19.486 13.2622C19.486 13.4392 19.5659 13.4392 19.7479 13.4622C19.7564 13.4754 19.7613 13.4906 19.7619 13.5062C19.7619 13.5192 19.7585 13.532 19.752 13.5432H19.6849C19.5849 13.5432 19.37 13.5362 19.304 13.5362C19.259 13.5362 19.028 13.5462 18.919 13.5462C18.9138 13.541 18.9099 13.5347 18.9075 13.5278C18.9051 13.5208 18.9042 13.5135 18.905 13.5062C18.9058 13.4922 18.9095 13.4786 18.916 13.4662C19.157 13.4482 19.1819 13.4032 19.1889 13.3262C19.1959 13.2772 19.1959 13.0782 19.1959 12.8752V12.3202C19.1974 12.2589 19.1927 12.1976 19.1819 12.1372C19.1036 12.1346 19.0252 12.14 18.948 12.1532C18.8092 12.2215 18.7018 12.3403 18.648 12.4852C18.6357 12.4893 18.6228 12.491 18.61 12.4902C18.6033 12.4905 18.5966 12.4892 18.5905 12.4864C18.5844 12.4837 18.5791 12.4795 18.575 12.4742V12.0862C18.575 12.0512 18.575 12.0422 18.62 12.0422H18.784C18.836 12.0422 19.057 12.0422 19.333 12.0422C19.697 12.0422 19.966 12.0332 20.033 12.0332C20.068 12.0332 20.092 12.0332 20.106 12.0452C20.1078 12.0638 20.1078 12.0826 20.106 12.1012V12.4892C20.1026 12.4967 20.0971 12.5031 20.0902 12.5076C20.0833 12.512 20.0752 12.5143 20.0669 12.5142Z" fill="white"/>
<path d="M16.577 14.8813C16.563 14.8813 16.552 14.8813 16.532 14.8763C16.5075 14.7959 16.4696 14.7202 16.42 14.6523C16.3878 14.6079 16.3458 14.5715 16.2972 14.546C16.2486 14.5205 16.1948 14.5066 16.14 14.5053C16.105 14.5053 16.021 14.5053 15.993 14.5053V15.1713C15.993 15.2713 15.993 15.4003 15.993 15.6293C15.993 15.8063 16.077 15.8063 16.259 15.8293C16.2665 15.8427 16.27 15.858 16.269 15.8733C16.2701 15.8861 16.2677 15.8989 16.262 15.9103H16.2C16.092 15.9103 15.882 15.9033 15.819 15.9033C15.774 15.9033 15.543 15.9143 15.431 15.9143C15.4234 15.9024 15.4199 15.8884 15.421 15.8743C15.4219 15.8608 15.4242 15.8474 15.428 15.8343C15.669 15.8163 15.694 15.7713 15.704 15.6943C15.704 15.6453 15.704 15.4463 15.704 15.2433V14.6913C15.7065 14.6298 15.7032 14.5682 15.694 14.5073C15.6143 14.5047 15.5346 14.51 15.456 14.5233C15.3169 14.5912 15.2094 14.7101 15.156 14.8553C15.1424 14.8593 15.1282 14.861 15.114 14.8603C15.1073 14.8603 15.1008 14.8589 15.0947 14.8562C15.0887 14.8534 15.0833 14.8494 15.079 14.8443V14.4563C15.079 14.4213 15.086 14.4123 15.124 14.4123H15.288C15.344 14.4123 15.564 14.4123 15.84 14.4123C16.2 14.4123 16.473 14.4033 16.54 14.4033C16.578 14.4033 16.603 14.4033 16.614 14.4153C16.625 14.4273 16.614 14.4503 16.614 14.4713V14.8593C16.6101 14.8657 16.6047 14.8711 16.5982 14.8749C16.5918 14.8787 16.5845 14.8809 16.577 14.8813Z" fill="white"/>
<path d="M18.3 15.9162C17.845 15.9162 17.594 15.9042 17.534 15.9042H17.314C17.255 15.9042 17.104 15.9152 16.947 15.9152H16.856C16.8496 15.9054 16.8461 15.8939 16.846 15.8822C16.845 15.8672 16.8474 15.8522 16.853 15.8382C16.9315 15.8399 17.0093 15.8231 17.08 15.7892C17.108 15.7592 17.122 15.6952 17.129 15.5582C17.129 15.4882 17.136 15.4112 17.136 15.3322C17.136 15.2172 17.136 15.0772 17.136 14.9072C17.136 14.7902 17.136 14.7202 17.136 14.6712C17.136 14.5052 17.055 14.5052 16.884 14.4862C16.8781 14.4737 16.8747 14.4601 16.874 14.4462C16.874 14.4372 16.881 14.4132 16.891 14.4082H16.972C17.031 14.4082 17.178 14.4082 17.465 14.4082C17.731 14.4082 17.982 14.4132 18.042 14.4132H18.196C18.234 14.4132 18.248 14.4132 18.248 14.4482L18.265 14.7912C18.2531 14.8006 18.2382 14.8055 18.223 14.8052C18.2114 14.8067 18.1997 14.8067 18.188 14.8052C18.1379 14.6987 18.0594 14.608 17.961 14.5432C17.9225 14.5186 17.8778 14.5054 17.832 14.5052C17.811 14.5052 17.759 14.5052 17.626 14.5052C17.526 14.5052 17.469 14.5052 17.458 14.5102C17.447 14.5152 17.44 14.5102 17.433 14.5682C17.433 14.6052 17.433 14.6682 17.433 14.8682V15.0682H17.482C17.5396 15.0693 17.597 15.0633 17.653 15.0502C17.7161 15.0329 17.7714 14.9949 17.81 14.9422C17.8247 14.9014 17.8351 14.8592 17.841 14.8162C17.8563 14.8089 17.8731 14.8051 17.89 14.8052C17.905 14.8041 17.9199 14.8083 17.932 14.8172C17.932 14.8782 17.915 14.9942 17.915 15.1402C17.915 15.2132 17.925 15.3742 17.925 15.4402C17.9131 15.4494 17.8981 15.4537 17.883 15.4522C17.8679 15.4522 17.8528 15.4506 17.838 15.4472C17.824 15.3182 17.806 15.2302 17.695 15.1852C17.6432 15.1631 17.5874 15.1522 17.531 15.1532C17.4976 15.1539 17.4642 15.1562 17.431 15.1602V15.5602C17.4282 15.62 17.4339 15.68 17.448 15.7382C17.462 15.7642 17.497 15.8172 17.539 15.8222C17.5853 15.8301 17.6321 15.8338 17.679 15.8332H17.899C17.9538 15.8358 18.0086 15.8273 18.06 15.8082C18.1681 15.7234 18.2525 15.6121 18.305 15.4852C18.319 15.4784 18.3345 15.4753 18.35 15.4762C18.3646 15.4766 18.3789 15.48 18.392 15.4862V15.8862C18.385 15.9112 18.36 15.9162 18.3 15.9162Z" fill="white"/>
<path d="M19.367 15.9488C19.2452 15.9437 19.1259 15.9126 19.017 15.8578C18.9992 15.8505 18.9802 15.8464 18.961 15.8458C18.92 15.857 18.8818 15.8767 18.849 15.9038C18.8317 15.9045 18.8145 15.9008 18.799 15.8929C18.7836 15.885 18.7705 15.8733 18.761 15.8588C18.761 15.8268 18.789 15.7328 18.789 15.6738C18.789 15.6388 18.779 15.4738 18.775 15.4288C18.7828 15.4188 18.7928 15.4108 18.8043 15.4054C18.8158 15.4001 18.8283 15.3974 18.841 15.3978C18.8493 15.3968 18.8577 15.3968 18.866 15.3978C18.898 15.4588 18.961 15.6238 19.006 15.6898C19.048 15.738 19.0996 15.777 19.1574 15.8043C19.2152 15.8317 19.2781 15.8468 19.342 15.8488C19.3856 15.8533 19.4297 15.8492 19.4717 15.8366C19.5138 15.8241 19.5529 15.8034 19.587 15.7758C19.6149 15.7543 19.6372 15.7263 19.6519 15.6942C19.6665 15.6621 19.6731 15.627 19.671 15.5918C19.6741 15.5428 19.6592 15.4944 19.629 15.4558C19.5877 15.405 19.5335 15.3663 19.472 15.3438C19.406 15.3118 19.172 15.2548 19.087 15.2088C19.0069 15.1752 18.9352 15.1243 18.877 15.0598C18.8189 14.9799 18.788 14.8835 18.789 14.7848C18.7897 14.7258 18.8026 14.6677 18.8268 14.6139C18.851 14.5602 18.886 14.5119 18.9296 14.4723C18.9732 14.4326 19.0245 14.4023 19.0803 14.3833C19.1361 14.3643 19.1952 14.357 19.254 14.3618C19.3819 14.3527 19.5091 14.388 19.614 14.4618C19.6412 14.4314 19.6703 14.4027 19.701 14.3758C19.7167 14.3742 19.7326 14.3772 19.7468 14.3842C19.7609 14.3913 19.7728 14.4023 19.781 14.4158C19.769 14.4839 19.761 14.5527 19.757 14.6218C19.757 14.6618 19.781 14.8218 19.781 14.8458C19.763 14.8569 19.7429 14.864 19.722 14.8668C19.7124 14.8657 19.703 14.8633 19.694 14.8598C19.652 14.7868 19.614 14.6598 19.568 14.5978C19.5328 14.5529 19.4868 14.5176 19.4344 14.495C19.382 14.4725 19.3248 14.4635 19.268 14.4688C19.2352 14.4661 19.2021 14.4699 19.1708 14.4801C19.1395 14.4903 19.1105 14.5066 19.0855 14.5281C19.0606 14.5496 19.0402 14.5758 19.0255 14.6053C19.0108 14.6348 19.0021 14.6669 19 14.6998C19.0045 14.7515 19.0246 14.8006 19.0576 14.8406C19.0907 14.8806 19.1351 14.9096 19.185 14.9238C19.248 14.9488 19.325 14.9778 19.412 15.0048C19.4943 15.0305 19.5748 15.0616 19.653 15.0978C19.7303 15.131 19.7956 15.1872 19.8399 15.2588C19.8843 15.3303 19.9056 15.4137 19.901 15.4978C19.8962 15.5627 19.8785 15.626 19.849 15.684C19.8194 15.742 19.7786 15.7936 19.7288 15.8356C19.6791 15.8776 19.6215 15.9092 19.5593 15.9287C19.4972 15.9481 19.4318 15.9549 19.367 15.9488Z" fill="white"/>
<path d="M17.186 18.2873C16.728 18.2873 16.4799 18.2753 16.4169 18.2753H16.2C16.137 18.2753 15.99 18.2863 15.829 18.2863H15.7379C15.7323 18.2763 15.7299 18.2648 15.731 18.2533C15.7293 18.2387 15.7293 18.2239 15.731 18.2093C15.8106 18.2102 15.8895 18.1934 15.9619 18.1603C15.9994 18.0893 16.0164 18.0094 16.0109 17.9293C16.0109 17.8593 16.0109 17.7823 16.0109 17.7033C16.0109 17.5883 16.0109 17.4483 16.0109 17.2783V17.0423C16.0109 16.8763 15.9269 16.8763 15.7559 16.8573C15.7523 16.8442 15.75 16.8308 15.7489 16.8173C15.7489 16.8083 15.7489 16.7843 15.7629 16.7793H15.847C15.903 16.7793 16.053 16.7793 16.34 16.7793C16.602 16.7793 16.857 16.7843 16.913 16.7843H17.0699C17.1049 16.7843 17.1189 16.7843 17.1189 16.8193L17.1399 17.1623C17.1189 17.1733 17.1159 17.1763 17.0979 17.1763C17.0864 17.1784 17.0745 17.1784 17.0629 17.1763C17.0104 17.0713 16.9324 16.9812 16.836 16.9143C16.7959 16.8897 16.7499 16.8766 16.7029 16.8763C16.6819 16.8763 16.63 16.8763 16.503 16.8763C16.403 16.8763 16.346 16.8763 16.332 16.8813C16.318 16.8863 16.318 16.8813 16.311 16.9393C16.311 16.9763 16.304 17.0393 16.304 17.2393V17.4393H16.356C16.4134 17.4403 16.4708 17.4346 16.527 17.4223C16.5892 17.4051 16.6435 17.3669 16.6809 17.3143C16.697 17.2736 16.7087 17.2314 16.7159 17.1883C16.731 17.1802 16.7479 17.1764 16.7649 17.1773C16.7786 17.1769 16.792 17.1811 16.8029 17.1893C16.8029 17.2503 16.7889 17.3663 16.7889 17.5123C16.7889 17.5863 16.7959 17.7463 16.7959 17.8123C16.7901 17.8171 16.7834 17.8206 16.7762 17.8226C16.769 17.8247 16.7614 17.8253 16.7539 17.8243C16.7398 17.8244 16.7257 17.8227 16.7119 17.8193C16.6979 17.6903 16.677 17.6023 16.569 17.5573C16.5157 17.5353 16.4585 17.5247 16.4009 17.5263C16.3675 17.5269 16.3341 17.5292 16.301 17.5333V17.9333C16.297 17.9934 16.3041 18.0538 16.322 18.1113C16.333 18.1373 16.367 18.1903 16.413 18.1953C16.4592 18.2029 16.5061 18.2063 16.5529 18.2053H16.77C16.8257 18.2078 16.8814 18.1993 16.934 18.1803C17.0395 18.094 17.1222 17.983 17.1749 17.8573C17.189 17.8509 17.2045 17.8478 17.2199 17.8483C17.2355 17.849 17.2508 17.8527 17.2649 17.8593V18.2593C17.2659 18.2813 17.241 18.2873 17.186 18.2873Z" fill="white"/>
<path d="M19.388 16.8505C19.234 16.8555 19.101 16.9395 19.101 17.1845V17.9625C19.101 17.9925 19.115 18.2125 19.115 18.2965C19.0965 18.31 19.0748 18.3186 19.052 18.3215C19.0373 18.3168 19.0242 18.3081 19.014 18.2965L17.948 17.1495L17.959 17.3835V17.8065C17.959 17.8395 17.966 17.9185 17.973 17.9775C17.9718 18.0086 17.9782 18.0395 17.9916 18.0675C18.005 18.0956 18.0251 18.1199 18.05 18.1385C18.1093 18.1785 18.1786 18.2013 18.25 18.2045C18.2563 18.2151 18.2597 18.2272 18.26 18.2395C18.2588 18.2532 18.254 18.2663 18.246 18.2775H18.131C18.031 18.2775 17.956 18.2775 17.855 18.2775C17.789 18.2775 17.694 18.2845 17.628 18.2845H17.579C17.5774 18.2729 17.5774 18.2611 17.579 18.2495C17.5789 18.2365 17.5813 18.2236 17.586 18.2115C17.6758 18.2082 17.7613 18.1727 17.827 18.1115C17.8465 18.0529 17.855 17.9912 17.852 17.9295V17.3875C17.852 17.3005 17.852 17.2565 17.845 17.1705C17.847 17.1091 17.8276 17.049 17.79 17.0005C17.768 16.9718 17.7432 16.9454 17.716 16.9215C17.6623 16.8897 17.6049 16.8645 17.545 16.8465C17.5398 16.8354 17.5365 16.8236 17.535 16.8115C17.5354 16.7982 17.5388 16.7852 17.545 16.7735H17.583C17.615 16.7735 17.783 16.7825 17.905 16.7825H17.978C17.9948 16.7896 18.01 16.7998 18.023 16.8125L18.813 17.6765C18.872 17.7425 18.949 17.8305 18.991 17.8865V17.2605C18.9917 17.2027 18.9894 17.145 18.984 17.0875C18.9801 17.0307 18.9648 16.9752 18.939 16.9245C18.915 16.8865 18.768 16.8655 18.691 16.8495C18.6856 16.8351 18.6833 16.8198 18.684 16.8045C18.6826 16.7935 18.6826 16.7824 18.684 16.7715H18.729C18.802 16.7715 18.921 16.7825 18.995 16.7825C19.177 16.7825 19.233 16.7775 19.324 16.7775H19.383C19.3885 16.789 19.3909 16.8018 19.39 16.8145C19.3922 16.8265 19.3915 16.8388 19.388 16.8505Z" fill="white"/>
<path d="M24.371 12.112C24.221 12.117 24.084 12.201 24.084 12.446V13.224C24.084 13.254 24.094 13.474 24.094 13.558C24.0768 13.5712 24.0565 13.5798 24.035 13.583C24.025 13.583 24.014 13.574 23.993 13.558L22.927 12.411L22.941 12.645V13.068C22.941 13.101 22.948 13.18 22.951 13.239C22.9514 13.2698 22.9585 13.3002 22.9718 13.328C22.9851 13.3558 23.0043 13.3804 23.028 13.4C23.0878 13.4391 23.1567 13.4618 23.228 13.466C23.2343 13.4766 23.2377 13.4887 23.238 13.501C23.2369 13.5142 23.2335 13.527 23.228 13.539H23.109C23.014 13.539 22.938 13.539 22.833 13.539C22.767 13.539 22.676 13.546 22.609 13.546H22.56C22.5564 13.5346 22.554 13.5229 22.553 13.511C22.5529 13.4975 22.5567 13.4843 22.564 13.473C22.6527 13.4692 22.7372 13.4337 22.802 13.373C22.8231 13.3148 22.8316 13.2528 22.827 13.191V12.649C22.827 12.562 22.827 12.518 22.827 12.432C22.8269 12.3733 22.8088 12.316 22.775 12.268C22.7515 12.2397 22.7258 12.2132 22.698 12.189C22.6446 12.1566 22.5871 12.1313 22.527 12.114C22.524 12.1025 22.5217 12.0908 22.52 12.079C22.5209 12.0661 22.5232 12.0534 22.527 12.041H22.569C22.597 12.041 22.761 12.05 22.887 12.05H22.96C22.9775 12.058 22.9939 12.0681 23.009 12.08L23.799 12.944C23.858 13.01 23.935 13.098 23.977 13.154V12.532C23.977 12.4742 23.9733 12.4164 23.966 12.359C23.9638 12.3019 23.9484 12.2461 23.921 12.196C23.897 12.158 23.75 12.137 23.676 12.121C23.6698 12.1068 23.6664 12.0915 23.666 12.076C23.6655 12.0646 23.6679 12.0532 23.673 12.043H23.718C23.791 12.043 23.91 12.053 23.984 12.053C24.162 12.053 24.222 12.048 24.313 12.048H24.369C24.3755 12.0593 24.3793 12.072 24.38 12.085C24.3784 12.0944 24.3754 12.1035 24.371 12.112Z" fill="white"/>
<path d="M25.941 13.358C25.8718 13.4289 25.7893 13.4855 25.6983 13.5245C25.6072 13.5634 25.5093 13.584 25.4103 13.585C25.3112 13.5861 25.2129 13.5675 25.1211 13.5304C25.0292 13.4933 24.9456 13.4385 24.875 13.369C24.7995 13.294 24.7404 13.2042 24.7013 13.1052C24.6623 13.0063 24.6441 12.9003 24.648 12.794C24.645 12.6882 24.6636 12.583 24.7026 12.4846C24.7416 12.3863 24.8003 12.2969 24.875 12.222C25.0158 12.081 25.2066 12.0012 25.406 12C25.5469 12.0012 25.6849 12.0398 25.806 12.112C25.9198 12.1828 26.0137 12.2815 26.0786 12.3988C26.1435 12.516 26.1774 12.648 26.177 12.782C26.1752 12.9972 26.0907 13.2034 25.941 13.358ZM25.696 12.258C25.6636 12.2082 25.619 12.1675 25.5665 12.1397C25.5141 12.1119 25.4554 12.0979 25.396 12.099C25.3394 12.0984 25.2837 12.1128 25.2345 12.1407C25.1853 12.1686 25.1444 12.2091 25.116 12.258C25.0126 12.4157 24.9634 12.6028 24.976 12.791C24.9656 12.9771 25.012 13.1619 25.109 13.321C25.1395 13.3731 25.1834 13.4159 25.2362 13.4451C25.289 13.4744 25.3487 13.4888 25.409 13.487C25.4781 13.4892 25.5463 13.4708 25.6049 13.4341C25.6635 13.3974 25.7098 13.3441 25.738 13.281C25.8122 13.1309 25.8466 12.9642 25.838 12.797C25.8526 12.6061 25.8041 12.4157 25.7 12.255L25.696 12.258Z" fill="white"/>
<path d="M28.088 12.1171C28.0311 12.1189 27.9758 12.1365 27.9283 12.168C27.8807 12.1994 27.8429 12.2434 27.819 12.2951L27.246 13.5731C27.2326 13.5827 27.2172 13.5892 27.201 13.5921C27.183 13.5921 27.159 13.5731 27.149 13.5331C27.139 13.4931 27.065 13.3091 26.911 12.9611L26.729 12.5431C26.663 12.3891 26.61 12.2881 26.593 12.2561C26.5682 12.2141 26.533 12.1792 26.4908 12.1547C26.4486 12.1301 26.4008 12.1169 26.352 12.1161C26.3469 12.1113 26.343 12.1053 26.3406 12.0988C26.3382 12.0922 26.3373 12.0851 26.338 12.0781C26.337 12.0649 26.3409 12.0517 26.349 12.0411H26.443C26.543 12.0411 26.643 12.0461 26.719 12.0461C26.795 12.0461 26.971 12.0371 27.079 12.0371H27.138C27.152 12.0371 27.155 12.0621 27.155 12.0701C27.1557 12.0845 27.1533 12.0988 27.148 12.1121C27.075 12.1191 26.921 12.1121 26.921 12.2121C26.9193 12.2415 26.9241 12.2708 26.935 12.2981L27.309 13.1981L27.627 12.4551C27.6531 12.3917 27.666 12.3237 27.665 12.2551C27.665 12.1711 27.606 12.1341 27.448 12.1151C27.4439 12.1039 27.4416 12.0921 27.441 12.0801C27.4411 12.0652 27.4435 12.0504 27.448 12.0361H27.493C27.563 12.0361 27.633 12.0451 27.793 12.0451C27.818 12.0451 27.929 12.0401 27.982 12.0401H28.09C28.0979 12.051 28.1021 12.0642 28.1021 12.0776C28.1021 12.0911 28.0979 12.1042 28.09 12.1151L28.088 12.1171Z" fill="white"/>
<path d="M23.878 14.8813C23.864 14.8813 23.854 14.8813 23.833 14.8763C23.8083 14.796 23.7704 14.7203 23.721 14.6523C23.6887 14.608 23.6467 14.5716 23.5981 14.5461C23.5496 14.5206 23.4958 14.5067 23.441 14.5053C23.406 14.5053 23.322 14.5053 23.294 14.5053V15.1713C23.294 15.2713 23.294 15.4003 23.294 15.6293C23.294 15.8063 23.378 15.8063 23.56 15.8293C23.5679 15.8426 23.5717 15.8579 23.571 15.8733C23.5721 15.8861 23.5697 15.8989 23.564 15.9103H23.5C23.392 15.9103 23.182 15.9033 23.119 15.9033C23.074 15.9033 22.843 15.9143 22.731 15.9143C22.723 15.9025 22.7192 15.8885 22.72 15.8743C22.7209 15.8608 22.7233 15.8474 22.727 15.8343C22.968 15.8163 22.993 15.7713 23.003 15.6943C23.003 15.6453 23.003 15.4463 23.003 15.2433V14.6913C23.0053 14.6298 23.0016 14.5682 22.992 14.5073C22.9123 14.5047 22.8325 14.51 22.754 14.5233C22.6149 14.5912 22.5074 14.7101 22.454 14.8553C22.4403 14.8593 22.4261 14.861 22.412 14.8603C22.4053 14.8603 22.3987 14.8589 22.3927 14.8562C22.3867 14.8534 22.3813 14.8494 22.377 14.8443V14.4563C22.377 14.4213 22.384 14.4123 22.422 14.4123H22.586C22.642 14.4123 22.862 14.4123 23.138 14.4123C23.498 14.4123 23.771 14.4033 23.838 14.4033C23.876 14.4033 23.901 14.4033 23.911 14.4153C23.921 14.4273 23.911 14.4503 23.911 14.4713V14.8593C23.9074 14.8652 23.9027 14.8703 23.8969 14.8741C23.8912 14.8779 23.8847 14.8803 23.878 14.8813Z" fill="white"/>
<path d="M25.689 15.9138H25.57C25.493 15.9138 25.406 15.9038 25.315 15.9038C25.172 15.9038 24.99 15.9138 24.915 15.9138C24.9069 15.9029 24.903 15.8894 24.904 15.8758C24.9047 15.8639 24.9071 15.8521 24.911 15.8408C25.058 15.8338 25.117 15.8088 25.117 15.7498C25.1155 15.6808 25.1002 15.6128 25.072 15.5498C25.027 15.4398 25.002 15.3888 24.991 15.3608C24.984 15.3498 24.981 15.3448 24.949 15.3448H24.474C24.4223 15.4345 24.3845 15.5317 24.362 15.6328C24.3544 15.6615 24.3507 15.6911 24.351 15.7208C24.351 15.7698 24.396 15.8208 24.564 15.8288C24.5715 15.8415 24.575 15.8561 24.574 15.8708C24.5756 15.8824 24.5756 15.8942 24.574 15.9058H24.532C24.42 15.9058 24.389 15.8988 24.27 15.8988C24.193 15.8988 24.008 15.9058 23.945 15.9058C23.941 15.8956 23.9386 15.8848 23.938 15.8738C23.9376 15.8608 23.94 15.8478 23.945 15.8358C24.0289 15.8287 24.1067 15.7893 24.162 15.7258C24.2373 15.6006 24.3015 15.4691 24.354 15.3328C24.438 15.1328 24.539 14.8768 24.585 14.7698C24.648 14.6388 24.669 14.5948 24.685 14.5498C24.717 14.4838 24.751 14.4168 24.765 14.3928C24.7727 14.3836 24.7824 14.3761 24.7933 14.371C24.8041 14.3659 24.816 14.3633 24.828 14.3633C24.8401 14.3633 24.8519 14.3659 24.8628 14.371C24.8737 14.3761 24.8833 14.3836 24.891 14.3928C24.9049 14.4167 24.9166 14.4418 24.926 14.4678C25.013 14.6758 25.083 14.8608 25.192 15.1198C25.248 15.2508 25.276 15.3328 25.335 15.4698C25.377 15.5558 25.401 15.6198 25.443 15.6988C25.499 15.8128 25.59 15.8138 25.681 15.8368C25.681 15.8468 25.695 15.8578 25.695 15.8718C25.695 15.8858 25.7 15.8998 25.689 15.9138ZM24.734 14.7138C24.702 14.7718 24.647 14.9028 24.626 14.9568C24.545 15.1568 24.518 15.2188 24.504 15.2468H24.955C24.916 15.1608 24.8 14.8828 24.735 14.7168L24.734 14.7138Z" fill="white"/>
<path d="M28.025 15.9145L27.413 15.9075H27.245C27.2388 15.8957 27.2351 15.8827 27.234 15.8695C27.2336 15.8625 27.2347 15.8556 27.2371 15.849C27.2395 15.8425 27.2432 15.8365 27.248 15.8315C27.2983 15.8317 27.3485 15.827 27.398 15.8175C27.461 15.7895 27.486 15.7285 27.486 15.6375V14.5495L27.164 15.2495C27.129 15.3265 27.087 15.4105 27.052 15.4945C27.0013 15.6062 26.9569 15.7208 26.919 15.8375C26.9152 15.847 26.9083 15.855 26.8994 15.8601C26.8905 15.8652 26.8801 15.8671 26.87 15.8655C26.849 15.8655 26.835 15.8585 26.825 15.8235C26.783 15.7325 26.755 15.6735 26.741 15.6345L26.241 14.5265H26.23V14.8095L26.241 15.5175C26.241 15.7325 26.353 15.8345 26.524 15.8345C26.5306 15.8459 26.5353 15.8584 26.538 15.8715C26.5372 15.8845 26.5334 15.8971 26.527 15.9085C26.516 15.9085 26.482 15.9085 26.45 15.9085C26.418 15.9085 26.317 15.8985 26.156 15.8985C26.111 15.8985 26.016 15.8985 25.943 15.8985H25.843C25.8389 15.8865 25.8365 15.8741 25.836 15.8615C25.8373 15.8503 25.8396 15.8392 25.843 15.8285C25.9197 15.8139 25.9939 15.7879 26.063 15.7515C26.095 15.7215 26.122 15.6575 26.122 15.5085V14.7325C26.122 14.6085 26.105 14.5615 26.045 14.5195C25.9807 14.4961 25.9133 14.4826 25.845 14.4795C25.8386 14.4664 25.8352 14.452 25.835 14.4375C25.8355 14.4236 25.8389 14.41 25.845 14.3975C25.905 14.3975 26.009 14.4025 26.114 14.4025H26.481C26.495 14.4119 26.5061 14.425 26.513 14.4405L26.964 15.4635L27.045 15.2635C27.115 15.0995 27.216 14.8525 27.36 14.5855L27.451 14.4105L28.024 14.4015C28.032 14.4122 28.0368 14.4251 28.038 14.4385C28.0378 14.4519 28.034 14.465 28.027 14.4765C27.964 14.4875 27.856 14.4875 27.803 14.5765C27.785 14.6045 27.775 14.6325 27.775 14.7565V15.4855C27.775 15.7655 27.845 15.7935 27.875 15.8145C27.925 15.8289 27.9769 15.836 28.029 15.8355C28.0354 15.8471 28.0389 15.8602 28.039 15.8735C28.035 15.9005 28.028 15.9005 28.025 15.9145Z" fill="white"/>
<path d="M23.8429 17.2524C23.8289 17.2524 23.8179 17.2524 23.7979 17.2474C23.7733 17.167 23.7355 17.0913 23.6859 17.0234C23.6538 16.979 23.6117 16.9426 23.5632 16.9171C23.5146 16.8916 23.4608 16.8777 23.4059 16.8764C23.3709 16.8764 23.2869 16.8764 23.2589 16.8764V17.5424C23.2589 17.6424 23.2589 17.7714 23.2589 18.0004C23.2589 18.1774 23.3429 18.1774 23.5249 18.2004C23.5325 18.2138 23.536 18.2291 23.5349 18.2444C23.5361 18.2571 23.5337 18.2699 23.5279 18.2814H23.4619C23.3539 18.2814 23.1439 18.2744 23.0809 18.2744C23.0359 18.2744 22.8049 18.2854 22.6929 18.2854C22.6854 18.2735 22.6818 18.2595 22.6829 18.2454C22.6838 18.2318 22.6862 18.2184 22.6899 18.2054C22.9309 18.1874 22.9559 18.1424 22.9659 18.0654C22.9659 18.0164 22.9659 17.8174 22.9659 17.6144V17.0624C22.9684 17.0012 22.9651 16.9399 22.9559 16.8794C22.8763 16.8767 22.7965 16.8821 22.7179 16.8954C22.5789 16.9632 22.4714 17.0822 22.4179 17.2274C22.4043 17.2314 22.3901 17.2331 22.3759 17.2324C22.3693 17.2324 22.3627 17.231 22.3567 17.2282C22.3506 17.2255 22.3453 17.2214 22.3409 17.2164V16.8284C22.3409 16.7934 22.3479 16.7844 22.3859 16.7844H22.5499C22.6059 16.7844 22.8259 16.7844 23.1019 16.7844C23.4619 16.7844 23.7349 16.7754 23.8019 16.7754C23.8399 16.7754 23.8649 16.7754 23.8749 16.7874C23.8849 16.7994 23.8749 16.8224 23.8749 16.8434V17.2314C23.8714 17.237 23.8668 17.2418 23.8612 17.2454C23.8557 17.249 23.8495 17.2514 23.8429 17.2524Z" fill="white"/>
<path d="M25.72 16.8554C25.663 16.8571 25.6077 16.8746 25.5601 16.9061C25.5126 16.9375 25.4748 16.9816 25.451 17.0334L24.877 18.3114C24.8636 18.321 24.8482 18.3274 24.832 18.3304C24.815 18.3304 24.79 18.3114 24.78 18.2714C24.77 18.2314 24.696 18.0474 24.542 17.6994L24.36 17.2814C24.294 17.1274 24.241 17.0264 24.224 16.9944C24.1992 16.9524 24.164 16.9175 24.1218 16.8929C24.0796 16.8684 24.0318 16.8552 23.983 16.8544C23.9779 16.8496 23.974 16.8436 23.9716 16.837C23.9692 16.8305 23.9683 16.8234 23.969 16.8164C23.968 16.8031 23.9719 16.79 23.98 16.7794H24.074C24.174 16.7794 24.274 16.7844 24.35 16.7844C24.426 16.7844 24.602 16.7754 24.71 16.7754H24.769C24.783 16.7754 24.787 16.7994 24.787 16.8084C24.7877 16.8228 24.7853 16.8371 24.78 16.8504C24.706 16.8574 24.553 16.8504 24.553 16.9504C24.5513 16.9798 24.5561 17.0091 24.567 17.0364L24.941 17.9364L25.259 17.1934C25.2852 17.1301 25.2982 17.062 25.297 16.9934C25.297 16.9094 25.238 16.8734 25.08 16.8534C25.076 16.8421 25.0737 16.8304 25.073 16.8184C25.0732 16.8035 25.0756 16.7887 25.08 16.7744H25.125C25.195 16.7744 25.265 16.7834 25.425 16.7834C25.45 16.7834 25.561 16.7784 25.614 16.7784H25.722C25.7287 16.7881 25.7326 16.7996 25.733 16.8114C25.7342 16.8272 25.7296 16.8429 25.72 16.8554Z" fill="white"/>
<path d="M28.056 18.2845L27.448 18.2775H27.277C27.2718 18.2656 27.2694 18.2526 27.27 18.2395C27.269 18.2328 27.2694 18.226 27.2711 18.2195C27.2729 18.213 27.2759 18.2069 27.28 18.2015C27.3317 18.2017 27.3833 18.197 27.434 18.1875C27.493 18.1595 27.518 18.0985 27.518 18.0075V17.1245C27.518 17.1245 27.518 16.9655 27.518 16.9245H27.511L27.193 17.6245C27.155 17.7015 27.116 17.7855 27.078 17.8695C27.008 18.0335 26.966 18.1475 26.945 18.2125C26.938 18.2405 26.913 18.2405 26.896 18.2405C26.879 18.2405 26.865 18.2335 26.851 18.1985C26.813 18.1075 26.784 18.0485 26.77 18.0095L26.266 16.8995H26.256V17.1825L26.266 17.8905C26.266 18.1055 26.378 18.2075 26.553 18.2075C26.5587 18.2191 26.5621 18.2317 26.563 18.2445C26.5639 18.2573 26.5615 18.27 26.556 18.2815C26.542 18.2815 26.511 18.2815 26.476 18.2815C26.441 18.2815 26.347 18.2715 26.186 18.2715C26.137 18.2715 26.043 18.2715 25.973 18.2715H25.873C25.8665 18.2603 25.863 18.2475 25.863 18.2345C25.8641 18.223 25.8675 18.2117 25.873 18.2015C25.9496 18.1864 26.0237 18.1605 26.093 18.1245C26.1405 18.053 26.1604 17.9666 26.149 17.8815V17.5245V17.1045C26.149 16.9805 26.135 16.9335 26.072 16.8915C26.0078 16.8682 25.9403 16.8547 25.872 16.8515C25.8629 16.8394 25.858 16.8247 25.858 16.8095C25.8586 16.7951 25.8635 16.7812 25.872 16.7695C25.928 16.7695 26.036 16.7745 26.138 16.7745H26.509C26.5218 16.7843 26.5315 16.7975 26.537 16.8125L26.988 17.8355L27.072 17.6355C27.1648 17.404 27.2699 17.1777 27.387 16.9575C27.415 16.8985 27.457 16.8225 27.478 16.7825L28.048 16.7735C28.055 16.7855 28.066 16.7965 28.066 16.8105C28.0647 16.8242 28.0599 16.8373 28.052 16.8485C27.993 16.8585 27.884 16.8585 27.832 16.9485C27.815 16.9765 27.801 17.0045 27.801 17.1285V17.8575C27.801 18.1375 27.871 18.1655 27.901 18.1865C27.9497 18.2011 28.0003 18.2082 28.051 18.2075C28.0601 18.2181 28.0651 18.2316 28.065 18.2455C28.07 18.2685 28.063 18.2705 28.056 18.2845Z" fill="white"/>
<path d="M42.5392 8.818L42.4762 8.1L41.7912 8.308C40.1263 8.81452 38.3954 9.07132 36.6552 9.07C33.6896 9.0783 30.7715 8.32463 28.1809 6.88125C25.5902 5.43786 23.4137 3.35315 21.8602 0.827L21.3642 0L20.8642 0.827C19.3112 3.3537 17.1351 5.43901 14.5446 6.88295C11.9541 8.32689 9.03596 9.08101 6.07019 9.073C4.33344 9.07521 2.60597 8.81977 0.944191 8.315L0.25719 8.107L0.194191 8.822C-0.240847 13.7675 0.056015 18.7501 1.07519 23.609C2.15181 28.73 4.00666 33.6558 6.57519 38.215C7.92368 40.6167 9.45979 42.9082 11.1692 45.068C14.0186 48.6685 17.3232 51.884 21.0002 54.634L21.3482 54.893L21.6962 54.634C25.3802 51.8961 28.6929 48.6913 31.5512 45.1C33.2616 42.9447 34.7974 40.6564 36.1442 38.257C38.5962 33.8968 40.3963 29.201 41.4872 24.319L41.6302 23.613C42.6549 18.7523 42.9612 13.7676 42.5392 8.818ZM30.2552 12.713H31.1122V14.388H30.2552V12.713ZM30.2552 17.098H31.1122V18.775H30.2552V17.098ZM21.5842 10.939C21.752 10.7198 21.9741 10.5481 22.2286 10.4412C22.4831 10.3342 22.7612 10.2955 23.0352 10.329L24.6892 10.563L26.8672 10.85C27.513 10.8899 28.1596 10.7843 28.7592 10.541V19.641C28.1512 19.8505 27.5098 19.9457 26.8672 19.922L24.7672 19.642L23.0352 19.4C22.512 19.3721 21.9965 19.5348 21.5842 19.858V10.939ZM14.1292 10.558C14.7033 10.7953 15.3242 10.8979 15.9442 10.858L18.1262 10.569L19.7762 10.333C20.0502 10.2997 20.3282 10.3385 20.5826 10.4454C20.8371 10.5524 21.0593 10.7239 21.2272 10.943V19.868C20.8113 19.5409 20.2905 19.3767 19.7622 19.406L18.0312 19.649L15.9442 19.927C14.4162 19.927 14.0982 19.558 14.0942 19.555C14.0902 19.552 14.1262 11.168 14.1302 10.558H14.1292ZM12.8842 11.665C13.0482 11.632 13.5342 11.529 13.7722 11.478V19.658C13.8592 19.845 14.2342 20.28 15.9432 20.28L18.1072 19.995L19.7612 19.759C20.038 19.7259 20.3187 19.7648 20.5761 19.8721C20.8334 19.9793 21.0588 20.1511 21.2302 20.371L21.2792 20.343H21.5342L21.5832 20.369C21.7509 20.1497 21.973 19.978 22.2276 19.871C22.4821 19.764 22.7601 19.7254 23.0342 19.759L24.6882 19.993L26.8662 20.28C28.6002 20.28 29.0302 19.824 29.0762 19.773L29.1082 11.436L29.8982 11.656V20.693C28.8602 20.8418 27.8137 20.9237 26.7652 20.938C25.367 20.9131 23.9711 20.815 22.5832 20.644L22.3832 20.616V21.228C22.0581 21.3466 21.7152 21.4091 21.3692 21.413C21.0368 21.4111 20.7075 21.3491 20.3972 21.23V20.616L20.1972 20.644C18.8129 20.8147 17.4207 20.9128 16.0262 20.938C14.9753 20.9241 13.9265 20.8422 12.8862 20.693L12.8842 11.665ZM11.6842 12.714H12.5232V14.389H11.6842V12.714ZM11.6842 17.099H12.5232V18.776H11.6842V17.099ZM21.3482 53.399C17.8931 50.7785 14.7793 47.7362 12.0792 44.343C12.0682 44.329 12.0582 44.311 12.0472 44.298L21.3472 35.249L30.6692 44.315C30.6552 44.329 30.6442 44.35 30.6312 44.367C27.927 47.7528 24.8101 50.7873 21.3532 53.4L21.3482 53.399ZM40.3482 24.059C39.2911 28.7783 37.5572 33.32 35.2002 37.543L21.3572 24.224L7.52519 37.515C5.07288 33.1305 3.29239 28.4029 2.24319 23.49H40.4652L40.3482 24.059Z" fill="white"/>
</g>
<defs>
<clipPath id="clip0_2394_4609">
<rect width="194" height="54.892" fill="white"/>
</clipPath>
</defs>
</svg>
