<svg width="132" height="40" viewBox="0 0 132 40" fill="none" xmlns="http://www.w3.org/2000/svg">
<g clip-path="url(#clip0_2216_4924)">
<mask id="mask0_2216_4924" style="mask-type:luminance" maskUnits="userSpaceOnUse" x="0" y="0" width="132" height="40">
<path d="M0.724464 39.9995H131.272V0.455367H0.724464V39.9995Z" fill="white"/>
</mask>
<g mask="url(#mask0_2216_4924)">
<path d="M50.8025 14.2312C53.3349 14.2312 54.6537 12.7043 54.6537 10.2404C54.6537 7.74246 53.1629 6.38863 50.7329 6.38863H48.0625V14.2312H50.8025ZM42.995 6.38863H40.6017V2.84907H50.6283C56.4938 2.84907 59.512 5.27851 59.512 10.0322C59.512 14.5779 56.2863 17.7702 51.4619 17.7702H48.0625V23.605H50.4547V27.1462H40.6017V23.605H42.995V6.38863Z" fill="white"/>
<path d="M73.0598 8.99074H80.2085V23.6052H82.3231V27.1458H75.5243C75.5243 25.9311 75.5243 24.264 75.9745 23.3949H75.905C74.7598 26.2783 72.7466 27.5615 69.6216 27.5615C65.4928 27.5615 63.5157 25.062 63.5157 21.2081V12.5303H61.0873V8.99074H68.3718V19.1576C68.3718 21.73 68.6506 23.6052 71.5653 23.6052C73.6486 23.6052 75.3502 21.9392 75.3502 19.0541V12.5303H73.0598V8.99074Z" fill="white"/>
<path d="M86.4566 3.99351H83.6805V0.455047H91.315V23.6049H93.3956V27.1455H84.4779V23.6049H86.4566V3.99351Z" fill="white"/>
<path d="M106.274 12.4262C105.302 12.079 104.367 11.9049 103.465 11.9049C101.244 11.9049 100.203 12.8074 100.203 13.814C100.203 14.681 100.444 15.0282 101.832 15.2369L105.65 15.7917C109.814 16.3815 111.55 17.9779 111.55 21.2776C111.55 24.5066 109.292 27.5615 102.978 27.5615C100.792 27.5615 97.7731 27.1108 95.8305 26.4164V21.3121H100.203V23.4305C100.999 23.7087 102.387 24.0209 103.429 24.0209C104.436 24.0209 106.969 23.7087 106.969 21.8001C106.969 20.7896 106.343 20.2677 104.227 19.9555L100.132 19.3307C96.9751 18.8449 95.6213 17.1099 95.6213 14.5079C95.6213 10.0313 99.8558 8.57397 103.603 8.57397C105.545 8.57397 107.974 8.88614 110.647 9.78869V14.2642H106.274V12.4262Z" fill="white"/>
<path d="M126.001 15.8262C126.001 13.3277 124.577 11.9054 122.321 11.9054C120.102 11.9054 118.819 13.3633 118.61 15.8262H126.001ZM118.645 19.1576C118.783 22.0427 121.004 23.8139 124.404 23.8139C126.729 23.8139 128.222 23.4305 130.269 22.5635L130.026 26.4169C127.77 27.2504 125.793 27.5615 123.33 27.5615C116.319 27.5615 113.37 23.1895 113.37 18.1515C113.37 12.4947 116.805 8.57397 122.496 8.57397C128.741 8.57397 131.273 13.2932 131.273 19.1576H118.645Z" fill="white"/>
<path d="M41.2566 38.8149H42.1318L42.1822 32.1077H41.1684V31.0819H47.3258L47.3751 33.3837H46.2124L46.1363 32.1077H43.5962L43.5716 34.8093H46.0739V35.9123H43.5716L43.5464 38.8149H46.2124L46.3127 37.3888H47.4885L47.3872 39.8396H41.2566V38.8149Z" fill="#0AABBA"/>
<path d="M51.1529 38.8149H51.9405L51.9914 31.2429H50.8517V30.2188H53.3912L53.3419 38.8149H54.2171V39.8396H51.1529V38.8149Z" fill="#0AABBA"/>
<path d="M61.7992 35.8717V35.7463C61.7992 35.2096 61.4503 34.2194 60.2603 34.2194C59.0724 34.2194 58.6726 35.0814 58.6206 35.8717H61.7992ZM62.8622 39.5498C62.4137 39.7377 61.5489 40 60.5741 40C58.4207 39.988 57.1462 38.6621 57.1462 36.6215C57.1462 34.6953 58.2328 33.1936 60.3369 33.1936C62.2883 33.1936 63.2768 34.6203 63.2768 36.6346V36.8224H58.6206C58.6353 38.0854 59.5598 38.8997 60.8496 38.8997C61.6623 38.8997 62.377 38.6867 62.9389 38.3997L62.8622 39.5498Z" fill="#0AABBA"/>
<path d="M70.3223 34.4071C70.1219 34.3435 69.8097 34.2937 69.4953 34.2937C68.2072 34.2937 67.544 35.2581 67.544 36.4953C67.544 37.6229 68.0955 38.8245 69.8223 38.8245C70.4477 38.8245 71.1635 38.6361 71.4878 38.4488L71.4116 39.6608C71.1482 39.7742 70.4477 39.9993 69.6345 39.9993C67.0325 39.9993 66.1425 38.2604 66.1425 36.6344C66.1425 34.6453 67.3693 33.1934 69.6465 33.1934C70.6361 33.1934 71.2238 33.4037 71.5003 33.5319V35.3715H70.3223V34.4071Z" fill="#0AABBA"/>
<path d="M74.8381 33.3442H75.8277L75.8524 31.8803L77.267 31.779L77.2172 33.3442H79.0814V34.3689H77.2172C77.2046 35.4078 77.1925 36.4336 77.1925 37.4101C77.1925 38.5985 77.4548 38.8992 78.1049 38.8992C78.4806 38.8992 78.8815 38.7754 79.1937 38.6495L79.1438 39.6763C78.7933 39.8494 78.2555 40 77.7046 40C76.3294 40 75.7905 39.4633 75.7905 37.9988C75.7905 37.1587 75.8162 35.496 75.8277 34.3689H74.8381V33.3442Z" fill="#0AABBA"/>
<path d="M82.8273 38.8149H83.6159L83.6411 34.3591H82.6515V33.3344H84.967C84.967 33.8219 84.967 34.4829 84.8925 35.1352L84.9177 35.1609C85.1664 33.9336 85.8794 33.209 86.8187 33.209C87.1555 33.209 87.4819 33.2709 87.6079 33.3207L87.4567 34.5612C87.282 34.4977 87.1062 34.4582 86.8187 34.4582C85.5798 34.4582 85.0535 35.6352 85.0426 36.7875L85.0163 38.8149H85.9681V39.8396H82.8273V38.8149Z" fill="#0AABBA"/>
<path d="M93.4738 38.8247C94.7499 38.8247 95.314 37.759 95.314 36.4856C95.314 35.0212 94.55 34.3684 93.573 34.3684C92.1852 34.3684 91.6709 35.5327 91.6709 36.6839C91.6709 37.7721 92.2082 38.8247 93.4738 38.8247ZM93.5379 33.1936C95.9416 33.1936 96.7314 35.0316 96.7314 36.6346C96.7314 38.4863 95.6032 40 93.3769 40C91.0499 40 90.1353 38.3849 90.1353 36.7343C90.1353 34.606 91.5499 33.1936 93.5379 33.1936Z" fill="#0AABBA"/>
<path d="M99.7426 38.8169H100.48L100.505 34.3611H99.5914V33.3364H101.907C101.907 33.7729 101.87 34.2225 101.781 34.774H101.808C102.07 33.9355 102.797 33.1858 104.098 33.1858C105.622 33.1858 106.362 34.1486 106.362 35.7012C106.362 36.7401 106.326 37.778 106.311 38.8169H107.162V39.8416H104.172V38.8169H104.911C104.923 37.8656 104.96 36.9028 104.96 35.9509C104.96 35.038 104.536 34.3611 103.647 34.3611C102.684 34.3611 101.956 35.1251 101.934 36.3392L101.882 38.8169H102.757V39.8416H99.7426V38.8169Z" fill="#0AABBA"/>
<path d="M111.998 30.0646C112.537 30.0646 112.962 30.4912 112.962 31.029C112.962 31.5674 112.537 31.9923 111.998 31.9923C111.461 31.9923 111.034 31.5674 111.034 31.029C111.034 30.4912 111.461 30.0646 111.998 30.0646ZM110.422 38.8135H111.271L111.298 34.3572H110.309V33.3325H112.698L112.675 38.8135H113.55V39.8376H110.422V38.8135Z" fill="#0AABBA"/>
<path d="M120.378 34.4071C120.178 34.3435 119.863 34.2937 119.552 34.2937C118.264 34.2937 117.599 35.2581 117.599 36.4953C117.599 37.6229 118.15 38.8245 119.876 38.8245C120.502 38.8245 121.217 38.6361 121.541 38.4488L121.466 39.6608C121.204 39.7742 120.502 39.9993 119.691 39.9993C117.086 39.9993 116.199 38.2604 116.199 36.6344C116.199 34.6453 117.425 33.1934 119.702 33.1934C120.69 33.1934 121.279 33.4037 121.553 33.5319V35.3715H120.378V34.4071Z" fill="#0AABBA"/>
<path d="M128.681 35.2088L128.656 34.4317C128.456 34.3189 128.154 34.2192 127.593 34.2192C126.942 34.2192 126.28 34.3682 126.28 35.0062C126.28 35.5084 126.705 35.6442 127.106 35.7335L128.694 36.0457C129.433 36.1957 130.271 36.5095 130.271 37.836C130.271 39.5491 128.795 39.9993 127.354 39.9993C126.253 39.9993 125.402 39.7621 124.99 39.6115L124.965 37.848H126.216L126.24 38.7112C126.491 38.7856 126.928 38.974 127.63 38.974C128.293 38.974 128.943 38.7232 128.943 38.0611C128.943 37.5096 128.532 37.3354 128.006 37.2352L126.967 37.0484C125.965 36.859 124.877 36.4854 124.877 35.2433C124.877 33.7181 126.216 33.1934 127.642 33.1934C128.705 33.1934 129.52 33.493 129.908 33.6162L129.933 35.2088H128.681Z" fill="#0AABBA"/>
<path d="M14.8183 35.1943C11.0235 35.1943 7.34264 33.4856 5.28233 30.9719C3.35564 28.6185 2.66503 25.4848 3.33647 22.144C4.85405 14.606 12.6117 8.47596 20.6323 8.47596C24.4271 8.47596 27.2738 9.82376 29.3336 12.3386C30.6502 13.9477 31.3808 15.9927 31.1842 18.2835C28.9595 18.6242 26.5986 19.0174 23.7326 19.6094L24.0607 11.5215L12.8472 14.0994L11.7858 23.5937C8.25505 25.5237 5.50742 27.7039 5.50742 27.7039C5.68322 28.1842 5.96636 28.8809 6.4494 29.3201C6.54634 29.2708 10.6193 27.222 14.3046 25.9618L14.5614 25.8742L15.5439 16.3695L20.8875 15.118L20.2708 24.5034L20.8097 24.3971C24.7803 23.6167 29.0198 23.1156 31.1929 22.9124C31.1913 22.9168 31.1891 22.9212 31.1891 22.9256C32.751 22.7848 33.8217 22.6917 34.5359 22.6298C34.6525 22.2213 34.7566 21.8078 34.8426 21.3888C35.6843 17.2079 34.7878 13.2472 32.3184 10.2312C29.7186 7.05586 25.7228 5.30662 21.0737 5.30662C11.7897 5.30662 2.79921 12.4438 1.03244 21.2223C0.191778 25.401 1.08885 29.3628 3.55663 32.3793C6.15695 35.5536 10.1516 37.304 14.8007 37.304C22.6669 37.304 30.321 32.1778 33.5506 25.275L31.9695 25.591C28.8851 30.9286 21.0715 35.1943 14.8183 35.1943Z" fill="#0AABBA"/>
</g>
</g>
<defs>
<clipPath id="clip0_2216_4924">
<rect width="130.548" height="39.5439" fill="white" transform="translate(0.726105 0.456055)"/>
</clipPath>
</defs>
</svg>
