<svg width="125" height="50" viewBox="0 0 125 50" fill="none" xmlns="http://www.w3.org/2000/svg">
<path d="M41.2931 34.7881H10V15H41.2931V34.7881ZM13.6815 31.1071H37.6115V18.6821H13.6815V31.1071Z" fill="white"/>
<path d="M50.0377 17.8818L55.3359 17.8602C58.9568 17.846 61.1329 19.5886 61.145 22.5425C61.1577 25.72 58.6293 27.8286 54.7838 27.8444L53.6175 27.8492L53.6343 32.0053L50.0946 32.0195L50.0377 17.8818ZM53.5895 20.9633L53.6048 24.7529L55.4044 24.7455C56.6731 24.7403 57.4677 24.0448 57.463 22.9042C57.4588 21.7226 56.4938 20.9522 55.0617 20.9585L53.5895 20.9633Z" fill="white"/>
<path d="M65.9512 27.3709C65.9539 28.1054 66.1221 29.0203 67.2874 29.0155C67.82 29.0134 68.2887 28.8088 68.6763 28.5014L68.6504 21.9625L72.1901 21.9482L72.2297 31.9298L69.6718 31.9409L69.1145 30.6385C68.2998 31.5597 67.1761 32.0727 65.9491 32.0775C63.8215 32.0854 62.4242 30.5842 62.4152 28.1803L62.3905 21.9873L65.9291 21.973L65.9512 27.3709Z" fill="white"/>
<path d="M74.4205 21.9393L77.183 21.9282L77.4957 23.4747C78.2276 22.4328 79.3507 21.838 80.5376 21.8333C81.1514 21.8306 81.8263 21.9915 82.3183 22.2741L81.5326 25.2928C81.1029 25.0703 80.4886 24.9301 79.9566 24.9327C79.1994 24.9353 78.5055 25.2644 77.9761 25.8365L78.0003 31.9072L74.4611 31.9214L74.4205 21.9393Z" fill="white"/>
<path d="M83.1019 18.5224C83.0977 17.3007 83.9123 16.4823 85.1193 16.4776C86.3263 16.4723 87.1478 17.2843 87.1531 18.5066C87.1573 19.7083 86.3426 20.5261 85.1356 20.5314C83.9287 20.5366 83.1072 19.7241 83.1019 18.5224ZM83.3618 21.9034L86.901 21.8891L86.9406 31.8713L83.4014 31.8855L83.3618 21.9034Z" fill="white"/>
<path d="M88.5747 31.314L89.3218 28.8056C90.3675 29.1684 91.6366 29.4073 92.5167 29.4041C93.3962 29.4004 93.9467 29.1331 93.9446 28.7466C93.9398 27.5238 88.7086 28.89 88.6933 25.0397C88.6838 22.8599 90.3574 21.6714 93.4658 21.6593C94.6733 21.654 96.0037 21.8328 96.9876 22.1344L96.3221 24.6822C95.3187 24.4429 94.3358 24.3037 93.5381 24.3073C92.5568 24.311 92.0669 24.5161 92.068 24.8626C92.0738 26.0031 97.4279 24.8209 97.4432 28.6306C97.4521 30.7893 95.739 32.0395 92.7107 32.0516C91.2581 32.058 89.7226 31.7785 88.5747 31.314Z" fill="white"/>
<path d="M98.9301 21.8405L101.487 21.83L102.003 23.0296C102.839 22.1712 103.983 21.6982 105.231 21.6929C106.602 21.6871 107.646 22.2329 108.285 23.2284C109.099 22.2677 110.283 21.6723 111.716 21.6665C114.006 21.6576 115.424 23.2205 115.434 25.7662L115.458 31.7552L111.919 31.7694L111.898 26.3705C111.895 25.5152 111.625 24.7222 110.399 24.7275C109.845 24.7296 109.355 24.8946 108.926 25.201C108.948 25.385 108.948 25.5885 108.949 25.7921L108.974 31.781L105.455 31.7942L105.433 26.3958C105.431 25.6423 105.222 24.7475 103.913 24.7528C103.401 24.7549 102.911 24.8994 102.483 25.2068L102.51 31.8068L98.9701 31.8206L98.9301 21.8405Z" fill="white"/>
</svg>
