<svg width="125" height="50" viewBox="0 0 125 50" fill="none" xmlns="http://www.w3.org/2000/svg">
<path d="M118.697 19.2906V16.6614H119.861C120.041 16.6614 120.221 16.6786 120.401 16.7299C120.521 16.7813 120.624 16.867 120.692 16.9783C120.769 17.0982 120.803 17.2352 120.803 17.3722C120.803 17.5435 120.744 17.7148 120.624 17.8433C120.469 17.9888 120.273 18.0745 120.058 18.083C120.136 18.1173 120.204 18.1601 120.273 18.2115C120.384 18.3143 120.478 18.4342 120.564 18.5626L121.026 19.282H120.589L120.238 18.7339C120.136 18.5798 120.05 18.4513 119.99 18.3742C119.939 18.3057 119.879 18.2458 119.81 18.2029C119.759 18.1687 119.707 18.143 119.656 18.1344C119.587 18.1259 119.527 18.1173 119.459 18.1259H119.056V19.2906H118.705H118.697ZM119.048 17.8176H119.793C119.921 17.8176 120.041 17.809 120.17 17.7662C120.255 17.7405 120.324 17.6805 120.375 17.612C120.418 17.5435 120.444 17.4579 120.444 17.3722C120.444 17.2523 120.401 17.141 120.307 17.0639C120.187 16.9697 120.033 16.9269 119.879 16.944H119.048V17.8176Z" fill="#F8F8F8"/>
<path d="M117.412 17.9374C117.412 16.6614 118.448 15.6251 119.724 15.6251C121 15.6251 122.037 16.6614 122.037 17.9374C122.037 19.2134 121 20.2496 119.724 20.2496C118.448 20.2496 117.412 19.2134 117.412 17.9374ZM117.755 17.9374C117.755 19.025 118.637 19.9071 119.733 19.9156C120.82 19.9156 121.703 19.0336 121.711 17.9374C121.711 16.8498 120.829 15.9591 119.733 15.9591C118.645 15.9591 117.763 16.8498 117.755 17.9374Z" fill="#F8F8F8"/>
<path d="M87.0872 34.7911H79.5424V29.5928H68.9832V34.7911H61.4384V19.5045C61.3956 18.2885 61.9522 17.1238 62.9285 16.3873C64.1531 15.5651 65.6176 15.1626 67.0991 15.2654H81.4522C82.9252 15.1712 84.3896 15.5651 85.6228 16.3873C86.5905 17.1238 87.1386 18.2885 87.0872 19.5045V34.7825V34.7911ZM79.5424 25.996V20.3438H68.9832V25.996H79.5424Z" fill="#F8F8F8"/>
<path d="M114.132 16.2417C113.096 15.5651 111.863 15.2226 110.621 15.2739H110.647H110.356H96.3022C94.8292 15.1797 93.3562 15.5737 92.1315 16.4044C91.181 17.1152 90.6243 18.237 90.6414 19.4189V19.5131V34.7911H98.1777V29.6955H110.373C113.687 29.6955 115.34 28.3767 115.34 25.7476V19.4874C115.46 18.2799 115.006 17.0809 114.124 16.2502L114.132 16.2417ZM107.666 25.3965H98.0749V20.3438H107.666V25.3965Z" fill="#F8F8F8"/>
<path d="M51.9666 15.2665H50.8448V26.6222C50.7934 26.7421 50.6906 26.8278 50.4594 26.7935C50.3652 26.7678 50.271 26.725 50.2025 26.6565C48.9265 24.7125 44.0279 18.0498 42.4607 15.9259C42.4607 15.9174 42.4522 15.9088 42.4436 15.9002C42.4436 15.9002 42.3922 15.8574 42.3665 15.8317C42.3665 15.8146 42.3494 15.7975 42.3323 15.7975C41.8784 15.4207 41.3046 15.2323 40.7137 15.2665H34.6248C33.9739 15.2237 33.3316 15.4549 32.8606 15.9002C32.4324 16.3713 32.2097 16.9879 32.2269 17.613H32.2183V34.7836H39.3435C39.3435 34.7836 39.3006 25.7145 39.2835 23.0425C39.3092 22.8713 39.4462 22.6058 39.9858 22.6743C40.1057 22.6829 40.217 22.7428 40.2855 22.8456C41.6643 25.0122 50.6649 34.7836 50.6649 34.7836H58.0641V15.2665H51.9752H51.9666Z" fill="#F8F8F8"/>
<path d="M20.0577 30.2694L19.7237 30.0296H11.8278V19.7273H22.3357V28.471C24.8021 29.1647 27.1144 30.3294 29.144 31.888C29.4095 31.1943 29.538 30.4578 29.5208 29.7128V20.1897C29.5208 16.9183 27.5854 15.197 23.7231 15.0171V15H10.3634C6.03006 15.0086 3.8634 16.7299 3.8634 20.1897V29.7128C3.8634 33.1469 6.03006 34.8682 10.3634 34.8682H23.038C23.6631 34.8682 24.2883 34.8254 24.9049 34.7312C23.5261 33.0099 21.8904 31.5026 20.0577 30.2694Z" fill="#F8F8F8"/>
<path d="M17.6085 27.7687C19.9721 29.2674 24.2798 32.2477 25.7014 34.9624H31.071C30.1546 33.3267 27.0545 29.3873 17.6085 27.7687Z" fill="#F8F8F8"/>
</svg>
