<svg width="86" height="21" viewBox="0 0 86 21" fill="none" xmlns="http://www.w3.org/2000/svg">
<path d="M69.8316 10.0369C69.8316 10.8533 69.9774 11.691 70.2107 12.4294C70.2119 12.4365 70.221 12.4642 70.221 12.4642C70.4492 13.1664 71.1088 13.6744 71.8862 13.6744C72.8542 13.6744 73.6382 12.8889 73.6382 11.9224C73.6382 11.742 73.5609 11.4056 73.5609 11.4056C73.4269 10.9919 73.3356 10.4965 73.3356 10.0378V8.48092C73.3356 6.11492 75.2533 4.19802 77.6193 4.19802C79.9838 4.19802 81.9019 6.11492 81.9019 8.48092V10.0371C81.9019 12.4046 79.9838 14.3207 77.6193 14.3215C76.8743 14.3215 76.1742 14.1316 75.564 13.7966C75.3092 13.6523 75.0141 13.5684 74.7005 13.5684C73.7317 13.5684 72.9492 14.3531 72.9484 15.3204C72.9484 15.9852 73.3172 16.563 73.8613 16.8604C74.9758 17.4751 76.2559 17.8262 77.6193 17.8262C81.9189 17.8262 85.4059 14.3384 85.4059 10.0378L85.4069 8.48092C85.4059 4.18042 81.9189 0.693218 77.6191 0.694018C73.3178 0.694018 69.8315 4.18042 69.8315 8.48012L69.8316 10.0369ZM15.6013 17.9659C14.1504 15.653 11.6033 14.3022 8.94508 14.322H8.04848H8.05148C5.71118 14.2926 3.82158 12.3875 3.82158 10.0407V8.48372C3.82158 6.11702 5.73998 4.20012 8.10518 4.20012C10.4704 4.20012 12.3873 6.11702 12.3873 8.48372V13.0669C12.3873 14.035 13.1719 14.8189 14.14 14.8189C15.108 14.8189 15.892 14.032 15.892 13.0647V8.48372C15.892 4.18172 12.4056 0.694618 8.10498 0.694618C3.80378 0.694618 0.317383 4.18172 0.317383 8.48372V10.0407C0.317383 14.3221 3.77358 17.7959 8.04838 17.8276H8.94498C10.4232 17.8058 11.8432 18.5571 12.6441 19.8476H12.6453C13.0877 20.5705 14.0028 20.8855 14.8096 20.5499C15.704 20.1803 16.128 19.1541 15.7585 18.2612C15.715 18.1544 15.6613 18.0573 15.6009 17.9645L15.6013 17.9659ZM52.2918 7.16892C51.6698 3.49192 48.4698 0.690918 44.6146 0.690918C40.3148 0.690918 36.8284 4.17792 36.8284 8.47932V16.0711C36.8284 17.0384 37.6124 17.8231 38.5797 17.8231C39.5477 17.8231 40.3324 17.0384 40.3324 16.0711V8.47932C40.3324 6.11332 42.2501 4.19562 44.6146 4.19562C46.7457 4.19562 48.5117 5.75112 48.8415 7.78802H48.8427C48.9774 8.62132 49.701 9.25732 50.5719 9.25732C51.5392 9.25732 52.3239 8.47262 52.3239 7.50532C52.3239 7.39122 52.3131 7.27712 52.2918 7.16892ZM61.8342 9.94052C61.433 10.8489 61.8276 11.9053 62.719 12.2984C63.609 12.6907 64.658 12.2754 65.0585 11.3664L68.6715 3.19892C69.0727 2.29052 68.6762 1.23482 67.7859 0.841018C66.8959 0.447218 65.8476 0.868118 65.4457 1.77662C65.4457 1.77662 61.8356 9.93682 61.8342 9.94052ZM56.6259 1.77302C56.2255 0.864618 55.1772 0.447218 54.2865 0.841018C53.3957 1.23482 52.9997 2.29052 53.4016 3.19892L59.3872 16.7359C59.7884 17.6435 60.8455 18.0705 61.737 17.6774C62.627 17.2836 63.0149 16.2183 62.613 15.3092C62.6106 15.3033 56.6259 1.77302 56.6259 1.77302ZM33.9645 10.0384C33.9645 14.3382 30.4766 17.8246 26.1761 17.8246C21.8755 17.8246 18.3884 14.3382 18.3877 10.0377L18.3889 8.48072C18.3883 4.17942 21.8752 0.692318 26.1758 0.692318C27.5384 0.692318 28.8193 1.04272 29.9338 1.65822C30.4778 1.95482 30.8466 2.53342 30.8466 3.19742C30.846 4.16552 30.0626 4.94942 29.0946 4.94942C28.7803 4.94942 28.4858 4.86632 28.2311 4.72122C27.6208 4.38702 26.9208 4.19782 26.1758 4.19712C23.812 4.19712 21.8936 6.11402 21.8936 8.48142V10.0377C21.8936 12.4036 23.812 14.3198 26.1758 14.3205C28.5418 14.3205 30.4594 12.4036 30.4594 10.0377V8.48072C30.4594 8.02212 30.3674 7.52672 30.2334 7.11222C30.2334 7.11222 30.1569 6.77582 30.1569 6.59622C30.1569 5.62892 30.9409 4.84342 31.9089 4.84342C32.687 4.84342 33.3458 5.35142 33.574 6.05362C33.574 6.05362 33.5829 6.08192 33.5851 6.08842C33.817 6.82672 33.9642 7.66522 33.9642 8.48162L33.9645 10.0384Z" fill="white"/>
</svg>
