<svg width="155" height="29" viewBox="0 0 155 29" fill="none" xmlns="http://www.w3.org/2000/svg">
<g clip-path="url(#clip0_2394_4655)">
<path d="M41.6738 8.13772C42.0876 8.13772 42.4423 8.47269 42.4423 8.90618V23.5856C42.4423 23.9994 42.0679 24.3344 41.6738 24.3344H39.6837C39.3093 24.3344 38.935 24.0388 38.935 23.625V22.2654C37.9301 23.7432 36.1961 24.7678 33.674 24.7678C29.4574 24.7678 26.8565 21.9699 26.8565 17.8124V8.86677C26.8565 8.45299 27.2308 8.11802 27.6249 8.11802H29.615C30.0288 8.11802 30.3638 8.45299 30.3638 8.86677V17.2409C30.3638 19.9404 31.7824 21.7334 34.5804 21.7334C37.3193 21.7334 38.935 19.8813 38.935 17.2803V8.86677C38.935 8.45299 39.3093 8.11802 39.6837 8.11802H41.6738M12.315 0C5.4974 0 0 5.30036 0 12.3741C0 19.4675 5.4974 24.7481 12.315 24.7481C13.4775 24.7481 14.6006 24.5905 15.6646 24.295L17.0045 27.7431C17.1424 28.1175 17.4183 28.354 17.9109 28.354H20.0389C20.5512 28.354 20.9256 28.019 20.6891 27.3688L18.9552 22.8566C22.364 20.7088 24.6299 16.906 24.6299 12.3544C24.6299 5.30036 19.1325 0 12.315 0ZM17.6744 19.566L16.1178 15.5267C15.9799 15.1917 15.704 14.8765 15.1129 14.8765H13.0834C12.5711 14.8765 12.177 15.2114 12.4135 15.8617L14.4627 21.162C13.7928 21.3394 13.0637 21.4182 12.315 21.4182C7.32986 21.4182 3.78316 17.4971 3.78316 12.3741C3.78316 7.25105 7.32986 3.32996 12.315 3.32996C17.3001 3.32996 20.8468 7.25105 20.8468 12.3741C20.8468 15.3691 19.6448 17.9306 17.6744 19.566ZM154.341 23.5068C154.518 23.9206 154.302 24.3147 153.809 24.3147H151.582C151.169 24.3147 150.834 24.1176 150.696 23.7038L146.578 12.6302L142.4 23.7038C142.223 24.1373 141.927 24.3147 141.514 24.3147H139.524C139.11 24.3147 138.814 24.1373 138.637 23.7038L134.42 12.5711L130.263 23.7038C130.085 24.1176 129.79 24.3147 129.376 24.3147H127.287C126.874 24.3147 126.578 24.1176 126.401 23.7038L122.283 12.5711L118.027 23.7038C117.849 24.1373 117.554 24.3147 117.14 24.3147H115.15C114.736 24.3147 114.44 24.1373 114.263 23.7038L110.106 12.5711L105.948 23.7038C105.81 24.1176 105.475 24.3147 105.061 24.3147H102.894C102.382 24.3147 102.185 23.9009 102.362 23.5068L107.997 8.76825C108.175 8.33476 108.47 8.11802 108.884 8.11802H111.308C111.721 8.11802 112.017 8.31506 112.194 8.76825L116.253 19.5266L120.273 8.76825C120.45 8.33476 120.746 8.11802 121.16 8.11802H123.544C123.957 8.11802 124.253 8.31506 124.43 8.76825L128.411 19.5266L132.391 8.76825C132.568 8.33476 132.864 8.11802 133.277 8.11802H135.681C136.095 8.11802 136.391 8.31506 136.568 8.76825L140.607 19.5266L144.548 8.76825C144.725 8.33476 145.021 8.11802 145.435 8.11802H147.858C148.272 8.11802 148.568 8.31506 148.745 8.76825L154.341 23.5068ZM60.964 8.13772H58.9739C58.5601 8.13772 58.2054 8.47269 58.2054 8.90618V10.246C57.2005 8.72884 55.2301 7.64513 52.9051 7.64513C48.5111 7.64513 44.7476 11.113 44.7476 16.1769C44.7476 21.3 48.5308 24.7481 52.8854 24.7481C55.2498 24.7481 57.1611 23.6644 58.2251 22.1472V23.5659C58.2251 23.9797 58.5995 24.3147 58.9936 24.3147H60.9837C61.3975 24.3147 61.7324 23.9797 61.7324 23.5659V8.90618C61.7127 8.47269 61.3778 8.13772 60.964 8.13772ZM53.2794 21.5167C50.383 21.5167 48.314 19.1522 48.314 16.2163C48.314 13.241 50.3633 10.9554 53.2794 10.9554C56.1562 10.9554 58.2448 13.241 58.2448 16.2163C58.2251 19.1719 56.1365 21.5167 53.2794 21.5167ZM84.7072 22.029C85.1407 22.561 84.7663 22.9748 84.5299 23.1521C83.1506 24.1964 81.3181 24.7678 79.328 24.7678C74.3035 24.7678 70.9539 21.0832 70.9539 16.236C70.9539 11.3889 74.3035 7.66483 79.328 7.66483C81.3181 7.66483 83.1309 8.23624 84.5299 9.28055C84.7663 9.45789 85.1013 9.81256 84.7072 10.4037L83.7614 11.7238C83.3871 12.2361 82.9536 12.0982 82.5792 11.8618C81.6925 11.3298 80.6482 10.8766 79.4463 10.8766C76.5104 10.8766 74.5597 13.241 74.5597 16.236C74.5597 19.231 76.5104 21.5758 79.4463 21.5758C80.6679 21.5758 81.6334 21.1029 82.5201 20.5906C82.8945 20.3936 83.2885 20.2162 83.7023 20.7679L84.7072 22.029ZM94.0863 7.68453C89.3573 7.68453 85.5939 11.3889 85.5939 16.2163C85.5939 21.0832 89.377 24.7481 94.0863 24.7481C98.8152 24.7481 102.579 21.0635 102.579 16.2163C102.598 11.4086 98.8152 7.68453 94.0863 7.68453ZM94.0863 21.497C91.1898 21.497 89.1209 19.1719 89.1209 16.236C89.1209 13.2607 91.1701 10.9751 94.0863 10.9751C96.9828 10.9751 99.0517 13.2607 99.0517 16.236C99.0517 19.1719 97.0025 21.497 94.0863 21.497ZM67.9392 0.433487C68.3726 0.433487 68.6879 0.807861 68.6879 1.20194V23.5462C68.6879 23.96 68.3924 24.3147 67.9392 24.3147H65.9491C65.5353 24.3147 65.1806 23.9403 65.1806 23.5462V1.22164C65.1806 0.807861 65.555 0.45319 65.9491 0.45319H67.9392" fill="#3253DC"/>
</g>
<defs>
<clipPath id="clip0_2394_4655">
<rect width="154.4" height="28.3737" fill="white"/>
</clipPath>
</defs>
</svg>
