<svg width="161" height="19" viewBox="0 0 161 19" fill="none" xmlns="http://www.w3.org/2000/svg">
<g clip-path="url(#clip0_2216_4968)">
<mask id="mask0_2216_4968" style="mask-type:luminance" maskUnits="userSpaceOnUse" x="0" y="0" width="161" height="19">
<path d="M160.464 0.951172H0.0650024V19H160.464V0.951172Z" fill="white"/>
</mask>
<g mask="url(#mask0_2216_4968)">
<path d="M29.6492 17.5094C14.4254 22.3747 12.7775 12.4086 3.20378 14.8413C17.4859 6.20924 17.9567 19.8636 29.6492 17.5094Z" fill="#ED000C"/>
<path d="M113.773 2.913H108.515L102.629 14.0562H93.5265L99.412 2.913H93.8404L94.7036 1.26506H115.342L114.714 2.44216C114.636 2.59911 114.479 2.67758 114.322 2.83453C114.165 2.913 114.008 2.913 113.773 2.913ZM143.749 12.4867C142.965 12.4867 142.651 12.2513 142.965 11.545L148.379 1.26506H138.884L134.725 9.11238C133.391 11.702 135.196 14.0562 137.785 14.0562H153.088C153.245 14.0562 153.402 13.9777 153.558 13.8992C153.715 13.8208 153.794 13.6638 153.872 13.5069L154.422 12.4083L143.749 12.4867ZM44.5593 1.26506L39.3016 11.1527C39.0661 11.545 38.7522 11.8589 38.3599 12.0944C37.9675 12.3298 37.4967 12.4867 37.0258 12.4867H33.1806C32.3959 12.4867 32.1605 12.1728 32.4744 11.545L37.889 1.26506H29.257L25.0979 9.11238C23.6854 11.7805 24.5486 14.0562 28.1584 14.0562H39.9293C41.4988 14.0562 42.9898 13.1145 43.7745 11.6235L49.2676 1.26506H44.5593ZM8.93243 10.7603L12.3068 4.32552L12.3853 4.0901C12.9346 2.99147 13.7193 2.36369 15.0533 2.36369H17.643C18.8201 2.36369 19.0555 3.06995 18.5846 3.93315L14.9749 10.9957C16.6228 11.5451 18.0353 12.4083 19.3694 13.2715C19.7617 12.9576 20.0756 12.5652 20.311 12.0944L23.6854 5.73804C25.0979 3.22689 23.6069 0.951172 20.311 0.951172H9.79564C8.46159 0.951172 7.12755 1.26506 5.95045 1.97132C4.77335 2.59911 3.91015 3.54079 3.28236 4.71788L0.928169 9.19085C-0.170455 11.2312 0.143438 13.1145 1.94832 13.8992L2.41916 13.5854C4.77335 12.1728 6.89213 11.2312 8.93243 10.7603ZM125.151 4.0901C125.622 3.22689 126.171 2.913 127.427 2.913H134.019C134.176 2.913 134.333 2.83453 134.49 2.75605C134.646 2.67758 134.725 2.52064 134.803 2.44216L135.353 1.26506H121.306C119.972 1.26506 118.716 1.57896 117.618 2.28522C116.519 2.913 115.577 3.85468 115.028 4.9533L112.831 9.19085C111.261 12.1728 112.752 14.1347 115.891 14.1347H128.839C128.996 14.1347 129.153 14.0562 129.31 13.9777C129.467 13.8992 129.546 13.7423 129.624 13.5854L130.173 12.4867H121.62C121.071 12.4867 120.757 12.1728 121.071 11.545L123.189 7.54292H131.351C131.508 7.54292 131.664 7.46444 131.821 7.38597C131.978 7.3075 132.057 7.15055 132.135 6.99361L132.685 5.89498H123.974L125.151 4.0901ZM60.4893 4.0901C60.9601 3.22689 61.5095 2.913 62.765 2.913H69.2783C69.4352 2.913 69.5922 2.83453 69.7491 2.75605C69.9061 2.67758 69.9846 2.52064 70.063 2.44216L70.6123 1.26506H56.7226C55.3885 1.26506 54.133 1.65743 53.0344 2.28522C51.9357 2.913 51.0725 3.85468 50.4447 4.9533L48.2475 9.19085C46.678 12.1728 48.169 14.1347 51.3079 14.1347H64.256C64.413 14.1347 64.5699 14.0562 64.7269 13.9777C64.8838 13.8992 64.9623 13.7423 65.1192 13.5854L65.6685 12.4867H57.2719C56.5656 12.4867 56.2518 12.1728 56.5656 11.545L58.6844 7.54292H66.8456C67.0026 7.54292 67.1595 7.46444 67.3165 7.38597C67.5519 7.3075 67.6304 7.22903 67.7088 7.07208L68.3366 5.97345H59.5476L60.4893 4.0901ZM72.0249 4.9533L69.8276 9.19085C68.4151 11.8589 69.7491 14.1347 72.8881 14.1347H85.9146C86.0716 14.1347 86.2285 14.0562 86.3854 13.9777C86.5424 13.8992 86.6209 13.7423 86.6993 13.5854L87.2487 12.4867H78.7736C77.9888 12.4867 77.6749 12.1728 78.0673 11.545L81.991 4.16857C82.1479 3.77621 82.4618 3.46231 82.8542 3.22689C83.2465 2.99147 83.7174 2.913 84.1097 2.913H90.623C90.7799 2.913 90.9369 2.83453 91.0938 2.75605C91.2508 2.67758 91.3293 2.52064 91.4077 2.36369L92.0355 1.18659H78.3027C76.9687 1.18659 75.7131 1.50048 74.6145 2.12827C73.4374 2.913 72.5742 3.85468 72.0249 4.9533Z" fill="white"/>
</g>
<path d="M157.718 1.97116H157.169V1.81421H158.503V2.04963H157.953V3.69756H157.718V1.97116Z" fill="white"/>
<path d="M160.307 2.83436C160.307 2.59894 160.307 2.28505 160.307 2.04963C160.229 2.28505 160.151 2.52047 160.072 2.75589L159.758 3.61909H159.601L159.287 2.75589C159.209 2.52047 159.13 2.28505 159.052 2.04963C159.052 2.28505 159.052 2.59894 159.052 2.83436L158.973 3.61909H158.738L158.895 1.81421H159.209L159.523 2.67741C159.601 2.91283 159.68 3.06978 159.68 3.3052C159.758 3.14825 159.758 2.91283 159.837 2.67741L160.151 1.81421H160.464L160.543 3.61909H160.307V2.83436Z" fill="white"/>
</g>
<defs>
<clipPath id="clip0_2216_4968">
<rect width="160.87" height="18.0488" fill="white" transform="translate(0.0650024 0.951172)"/>
</clipPath>
</defs>
</svg>
