<svg width="112" height="22" viewBox="0 0 112 22" fill="none" xmlns="http://www.w3.org/2000/svg">
<path d="M47.8552 0.133286C48.3599 -0.0381143 48.9807 0.0989862 49.2944 0.551486C49.4991 0.880586 49.4581 1.36729 49.158 1.63469C48.6942 2.02549 47.9643 2.04609 47.48 1.67589C47.1526 1.42219 47.0639 0.928586 47.2618 0.571986C47.3982 0.352686 47.6233 0.215486 47.8552 0.133286Z" fill="white"/>
<path d="M99.9678 0.132875C100.472 -0.0316254 101.093 0.0985754 101.407 0.544275C101.625 0.893875 101.564 1.40807 101.229 1.66177C100.752 2.02517 100.022 2.03198 99.5648 1.64118C99.2508 1.37378 99.1828 0.866475 99.4078 0.523675C99.5448 0.331675 99.7488 0.208275 99.9678 0.132875Z" fill="white"/>
<path d="M60.999 0.633789C61.6061 0.633789 62.2132 0.633789 62.8202 0.633789C62.8202 2.01189 62.8202 3.38999 62.8202 4.76799C63.666 3.89729 64.5255 3.04029 65.3781 2.16959C66.108 2.16959 66.8378 2.16959 67.5677 2.16959C66.4081 3.32829 65.269 4.50059 64.0958 5.63869C65.2963 6.86599 66.524 8.05889 67.7314 9.27929C66.947 9.28619 66.1557 9.27929 65.3713 9.27929C64.5255 8.40859 63.6592 7.55839 62.8202 6.68089C62.8134 7.54469 62.8202 8.40859 62.8202 9.27929C62.2132 9.27929 61.6061 9.27929 60.9922 9.27929C60.999 6.39979 60.999 3.51339 60.999 0.633789Z" fill="white"/>
<path d="M68.6389 0.633789C69.2664 0.633789 69.9008 0.633789 70.5283 0.633789C70.5283 2.69749 70.5283 4.76119 70.5283 6.81799C70.5146 7.01679 70.617 7.21559 70.7943 7.31159C71.1695 7.53099 71.6128 7.57219 72.0425 7.58589C73.8706 7.62699 75.7054 7.59269 77.5334 7.60639C77.5334 8.15489 77.5334 8.70339 77.5334 9.25189C76.3398 9.25189 75.1461 9.25189 73.9524 9.25189C72.8815 9.24499 71.797 9.28619 70.7466 9.08049C70.0713 8.95709 69.3551 8.66909 68.9595 8.07259C68.6798 7.66809 68.6184 7.16079 68.6321 6.67399C68.6389 4.66519 68.6389 2.64949 68.6389 0.633789Z" fill="white"/>
<path d="M26.6416 0.94219C27.2964 0.75019 27.9854 0.70909 28.6675 0.68159C29.6702 0.68159 30.6728 0.68159 31.6687 0.68159C32.3986 0.67479 33.1352 0.70219 33.8446 0.87359C34.4108 1.01069 34.9701 1.31239 35.2634 1.83339C35.5362 2.27909 35.5499 2.81389 35.5567 3.32119C35.5567 4.34959 35.5567 5.37799 35.5567 6.40639C35.5567 6.93429 35.5567 7.49649 35.2702 7.96279C35.086 8.28499 34.7927 8.51119 34.4858 8.70319C35.0656 9.25169 35.6385 9.81389 36.2183 10.3692C35.3452 10.3692 34.4721 10.3692 33.5991 10.3692C33.2103 9.98529 32.8146 9.60129 32.4258 9.21739C31.4027 9.21739 30.3795 9.21739 29.3564 9.21739C28.4901 9.23109 27.6034 9.18309 26.7712 8.92259C26.2528 8.75809 25.7344 8.48379 25.4207 8.02449C25.1888 7.69539 25.0864 7.28399 25.0864 6.87949C25.0864 5.57679 25.0864 4.28109 25.0864 2.97839C25.0864 2.62189 25.1546 2.26539 25.3184 1.94309C25.5844 1.43579 26.1028 1.09989 26.6416 0.94219ZM27.9513 2.34769C27.5761 2.40939 27.0304 2.51909 26.9827 2.97159C26.969 4.25359 26.9827 5.53569 26.9759 6.81779C26.9622 7.03029 27.085 7.22919 27.2692 7.32509C27.6307 7.52399 28.0536 7.55139 28.456 7.56509C29.411 7.56509 30.3727 7.56509 31.3277 7.56509C31.9211 7.56509 32.535 7.55819 33.1079 7.38679C33.3399 7.31139 33.6468 7.17429 33.64 6.87949C33.64 5.57679 33.64 4.26729 33.64 2.96469C33.6127 2.64929 33.2785 2.51219 33.0193 2.43679C32.1735 2.23109 31.3004 2.29279 30.4409 2.27909C29.6156 2.30649 28.7766 2.25169 27.9513 2.34769Z" fill="white"/>
<path d="M36.7028 2.37506C37.3098 2.37506 37.9101 2.38186 38.5171 2.36816C38.5376 3.91766 38.5171 5.46706 38.524 7.01656C38.5103 7.24966 38.7286 7.39366 38.9196 7.46906C39.3288 7.61306 39.7654 7.62676 40.1951 7.63356C41.0341 7.63356 41.8799 7.63356 42.7189 7.63356C43.1009 7.61986 43.4897 7.60616 43.8512 7.46906C44.0149 7.40736 44.199 7.29076 44.199 7.09196C44.2059 5.52196 44.199 3.94506 44.199 2.37506C44.8129 2.37506 45.4268 2.37506 46.0407 2.37506C46.0407 3.94506 46.0407 5.52196 46.0407 7.09196C46.0475 7.62676 45.8702 8.18896 45.4473 8.54546C44.8811 9.03226 44.1104 9.14196 43.3942 9.21046C42.3506 9.28586 41.3001 9.23796 40.2565 9.25166C39.3288 9.22416 38.3466 9.16936 37.5281 8.66886C37.0029 8.36036 36.6891 7.76386 36.6959 7.15366C36.6959 5.56306 36.7028 3.97246 36.7028 2.37506Z" fill="white"/>
<path d="M51.2726 2.86171C52.0093 2.44351 52.8756 2.40921 53.7009 2.39551C55.7608 2.39551 57.8276 2.39551 59.8876 2.39551C59.8944 2.93021 59.8876 3.47191 59.8876 4.00661C57.8276 4.00661 55.7608 4.00661 53.6941 4.00661C53.3121 4.00661 52.9301 4.00661 52.5618 4.11631C52.364 4.17801 52.1389 4.32201 52.1594 4.55511C52.1594 5.37781 52.1594 6.20061 52.1594 7.02331C52.1594 7.24951 52.364 7.40721 52.555 7.46891C52.9642 7.61291 53.4008 7.62661 53.8305 7.63351C55.8495 7.63351 57.8685 7.63351 59.8807 7.63351C59.8807 8.16821 59.8807 8.70991 59.8807 9.24461C58.0254 9.24461 56.1633 9.24461 54.308 9.24461C53.5304 9.25151 52.7528 9.23781 51.9957 9.05271C51.5386 8.93611 51.0816 8.73731 50.7747 8.37391C50.4814 8.04481 50.345 7.59231 50.3518 7.15361C50.3586 6.21431 50.345 5.27501 50.3586 4.33571C50.3791 3.73241 50.7406 3.15651 51.2726 2.86171Z" fill="white"/>
<path d="M81.1007 2.48483C81.9192 2.35463 82.7514 2.40943 83.5767 2.39573C84.4839 2.40263 85.4184 2.36143 86.2983 2.64943C86.7826 2.81393 87.2464 3.09503 87.5125 3.55443C87.7171 3.89723 87.7921 4.30173 87.7785 4.69253C87.7717 5.51523 87.7785 6.33793 87.7717 7.15383C87.7648 7.72973 87.4647 8.27823 86.9941 8.60043C86.2574 9.10783 85.3366 9.23803 84.4635 9.25183C83.6449 9.25183 82.8264 9.25183 82.0079 9.25183C81.0734 9.23123 80.098 9.05293 79.3409 8.47703C78.9112 8.15483 78.6451 7.63373 78.652 7.09213C78.652 6.26943 78.652 5.44673 78.652 4.62393C78.652 4.12343 78.8771 3.62983 79.2454 3.30073C79.757 2.84143 80.4322 2.60143 81.1007 2.48483ZM81.6941 4.04123C81.4008 4.08923 81.1143 4.16463 80.8483 4.28803C80.6642 4.37713 80.4732 4.53483 80.4732 4.76103C80.4663 5.49463 80.4732 6.22823 80.4732 6.95503C80.4732 7.22923 80.7597 7.37323 80.9847 7.44863C81.7282 7.72293 82.5263 7.62693 83.2971 7.64063C84.0406 7.62693 84.825 7.72293 85.5275 7.40753C85.7117 7.31843 85.9368 7.18813 85.93 6.95503C85.93 6.18023 85.93 5.40553 85.93 4.63083C85.93 4.43883 85.7663 4.30853 85.6094 4.23313C85.0364 3.98633 84.4021 4.00693 83.7882 4.01373C83.0856 4.02063 82.3899 3.96573 81.6941 4.04123Z" fill="white"/>
<path d="M91.3393 2.49141C92.1783 2.37491 93.0312 2.40231 93.8772 2.39551C94.7912 2.39551 95.7182 2.42291 96.5912 2.73141C97.1512 2.92341 97.7172 3.22501 98.0102 3.75301C98.2282 4.11631 98.2422 4.54831 98.2352 4.95961C98.2352 6.19371 98.2352 7.42781 98.2352 8.66191C98.2282 9.38861 98.1532 10.1291 97.8332 10.7941C97.6492 11.1781 97.3552 11.5277 96.9602 11.6991C96.3532 11.9459 95.6772 11.9665 95.0292 11.9939C94.3542 11.9939 93.6792 11.9939 92.9968 11.9939C92.9968 11.4797 92.9968 10.9655 92.9968 10.4513C93.7612 10.4513 94.5312 10.4513 95.3022 10.4513C95.6232 10.4513 95.9642 10.3485 96.1622 10.0811C96.3462 9.82741 96.3732 9.50521 96.3532 9.19671C95.2542 9.19671 94.1562 9.19671 93.0582 9.19671C92.2601 9.19671 91.4484 9.16241 90.6777 8.92241C90.2002 8.77161 89.7227 8.55221 89.3885 8.16831C89.1157 7.85291 88.9792 7.43471 88.9792 7.01641C88.9792 6.21431 88.9792 5.41901 88.9792 4.61681C88.9724 4.13001 89.1293 3.62271 89.484 3.27991C89.9683 2.78631 90.6777 2.59431 91.3393 2.49141ZM91.3461 4.08891C91.0869 4.13691 90.7936 4.31521 90.8073 4.61681C90.8004 5.39841 90.8004 6.18001 90.8073 6.96161C90.8073 7.26331 91.1006 7.42781 91.3598 7.48951C92.1578 7.68151 92.99 7.57181 93.8012 7.59231C94.6612 7.58551 95.5202 7.59921 96.3872 7.58551C96.3802 6.61881 96.3872 5.65891 96.3802 4.69221C96.3872 4.45231 96.1482 4.32201 95.9572 4.24661C95.1182 3.91751 94.2042 4.02721 93.3242 4.00661C92.6694 4.02721 92.0009 3.95181 91.3461 4.08891Z" fill="white"/>
<path d="M103.378 2.86851C104.115 2.45031 104.988 2.41601 105.813 2.39551C107.873 2.39551 109.94 2.39551 112 2.39551C112 2.93021 112 3.47191 112 4.00661C109.96 4.00661 107.921 4.00661 105.881 4.00661C105.479 4.00661 105.07 3.99981 104.681 4.11631C104.483 4.17801 104.258 4.32201 104.279 4.55511C104.279 5.37781 104.279 6.20061 104.279 7.02331C104.272 7.25641 104.483 7.40721 104.674 7.47581C105.104 7.62661 105.568 7.64031 106.018 7.64031C108.01 7.64031 110.008 7.64031 112 7.64031C112 8.17511 112 8.71671 112 9.25151C109.96 9.25151 107.921 9.25151 105.881 9.25151C105.152 9.23091 104.401 9.18981 103.712 8.92931C103.235 8.75101 102.798 8.40141 102.607 7.91461C102.403 7.38671 102.464 6.81761 102.457 6.26231C102.471 5.59721 102.43 4.93221 102.478 4.26721C102.519 3.69131 102.867 3.14281 103.378 2.86851Z" fill="white"/>
<path d="M47.3574 2.56689C47.9576 2.56689 48.551 2.56689 49.1445 2.56689C49.1445 4.79509 49.1445 7.02329 49.1445 9.25149C48.5442 9.25149 47.9508 9.25149 47.3574 9.25149C47.3574 7.02329 47.3574 4.79509 47.3574 2.56689Z" fill="white"/>
<path d="M99.4702 2.56689C100.07 2.56689 100.663 2.56689 101.257 2.56689C101.257 4.79509 101.257 7.02329 101.257 9.25149C100.657 9.25149 100.063 9.25149 99.4702 9.25149C99.4702 7.02329 99.4702 4.79509 99.4702 2.56689Z" fill="white"/>
<path d="M16.4581 1.87444C18.443 1.62074 20.4279 1.42194 22.4197 1.22314C22.3174 1.24374 22.2082 1.27114 22.1059 1.28484C18.8182 1.69624 15.5305 2.21044 12.2973 2.97824C10.592 3.39654 8.8868 3.86954 7.2839 4.58944C6.5949 4.91164 5.9128 5.27505 5.3535 5.80295C5.0602 6.09775 4.801 6.46804 4.7669 6.89304C4.7533 7.17414 4.8488 7.45524 5.0056 7.69524C5.3126 8.15464 5.7628 8.49054 6.2266 8.77164C7.2157 9.36814 8.3002 9.77264 9.3916 10.136C9.4939 10.1634 9.5962 10.2182 9.7053 10.1977C13.9002 9.38865 18.1429 8.88134 22.3924 8.49054C21.874 8.59334 21.3556 8.63454 20.8304 8.70994C17.5017 9.16934 14.1799 9.71094 10.9331 10.5885C13.375 11.2603 15.8715 11.7128 18.368 12.1105C23.095 12.8441 27.8628 13.2966 32.6375 13.6188C37.5828 13.9479 42.5348 14.1193 47.4937 14.1605C49.3354 14.1947 51.177 14.133 53.0119 14.1947C51.6272 14.2016 50.2357 14.2222 48.8511 14.2496C47.8757 14.2701 46.8934 14.2359 45.918 14.2701C44.3015 14.2496 42.6849 14.2564 41.0683 14.229C33.2651 14.0987 25.4482 13.708 17.6927 12.7961C14.6164 12.4327 11.5538 11.9734 8.5253 11.3426C7.7204 11.61 6.9496 11.9665 6.213 12.3916C5.7491 12.1105 5.3058 11.7677 4.9988 11.3152C5.524 11.1575 6.0493 11.0135 6.5813 10.8833C5.9742 10.7256 5.374 10.5679 4.7737 10.3828C3.6619 10.0331 2.55008 9.64235 1.53375 9.06645C0.98125 8.73735 0.40147 8.34654 0.10816 7.75004C-0.11011 7.29764 0.01949 6.74914 0.34008 6.37884C0.89258 5.72754 1.67017 5.32995 2.4273 4.98715C3.6073 4.45915 4.8488 4.08215 6.0902 3.75305C9.4939 2.86855 12.9726 2.32694 16.4581 1.87444Z" fill="#DE3A33"/>
<path d="M1.53383 12.7073C2.55016 13.2832 3.66194 13.674 4.77384 14.0168C4.69874 14.5378 4.99204 15.0246 5.35354 15.3743C5.96064 15.9502 6.71784 16.3341 7.46814 16.6701C8.79134 17.246 10.1828 17.6573 11.5743 18.0139C14.5346 18.768 17.5563 19.2685 20.5849 19.6867C27.7947 20.6603 35.059 21.1128 42.3302 21.3185C44.779 21.387 47.2277 21.4076 49.6765 21.4282C50.7883 21.4213 51.9069 21.4145 53.0187 21.4487C51.8796 21.483 50.7474 21.4419 49.6151 21.4899C44.8608 21.5516 40.1066 21.5036 35.3592 21.339C29.0293 21.1059 22.6994 20.6877 16.4104 19.8924C12.9726 19.4468 9.54164 18.9051 6.18574 18.0344C4.90344 17.6916 3.62104 17.3077 2.40691 16.7592C1.69071 16.4301 0.967681 16.053 0.422001 15.4634C0.0809513 15.1 -0.110039 14.5516 0.0877713 14.0785C0.353791 13.4546 0.960861 13.0501 1.53383 12.7073Z" fill="#DE3A33"/>
<path d="M20.8164 5.0146C21.3416 4.9598 21.8668 4.9323 22.392 4.8501C22.0851 4.9392 21.7645 4.9529 21.4439 5.0009C18.3472 5.4054 15.2641 5.899 12.2219 6.6258C10.96 6.9343 9.70504 7.2771 8.48404 7.7296C7.70644 8.0176 6.92883 8.3398 6.21943 8.7786C5.75563 8.4906 5.30544 8.1615 4.99854 7.7022C8.15664 6.7766 11.417 6.2213 14.6707 5.7482C16.717 5.4534 18.7633 5.2203 20.8164 5.0146Z" fill="#A7A9AC"/>
<path d="M1.53377 9.08008C2.5501 9.65598 3.66191 10.0468 4.77371 10.3965C4.72601 10.7256 4.82151 11.0546 4.99881 11.3289C5.30581 11.7814 5.74911 12.1173 6.21301 12.4053C7.35211 13.0909 8.61401 13.5297 9.87581 13.9205C12.6929 14.7706 15.5919 15.3054 18.4976 15.7647C22.8903 16.4435 27.3103 16.8754 31.7372 17.1908C37.1667 17.5747 42.603 17.7599 48.0462 17.801C49.7037 17.8284 51.3612 17.7736 53.0187 17.8284C51.9546 17.8627 50.8837 17.8147 49.8197 17.8696C45.7475 17.9107 41.6754 17.9038 37.6032 17.7873C31.2938 17.609 24.9912 17.2457 18.7159 16.5532C15.3463 16.1693 11.9767 15.703 8.65491 15.0037C7.35211 14.7295 6.05611 14.4141 4.78061 14.0233C3.66871 13.6737 2.56374 13.2829 1.54059 12.7138C0.994912 12.3916 0.428763 12.0145 0.135463 11.4317C-0.0759873 11.0409 -0.0145976 10.5404 0.237782 10.1839C0.551542 9.69708 1.04265 9.36808 1.53377 9.08008Z" fill="#A7A9AC"/>
</svg>
