<svg width="125" height="37" viewBox="0 0 125 37" fill="none" xmlns="http://www.w3.org/2000/svg">
<g clip-path="url(#clip0_2394_4700)">
<path d="M3.85387 36.0041H0V19.2301C0 14.8724 3.5414 11.3389 7.90978 11.3389H14.332C16.0495 11.3389 17.4421 12.7288 17.4421 14.4421V17.7469H7.90978C7.08909 17.7469 6.42359 18.4107 6.42359 19.2301V33.4407C6.42359 34.8563 5.27295 36.0041 3.85387 36.0041Z" fill="#74BC1F"/>
<path d="M62.077 36.0037H54.3441C49.975 36.0037 46.4336 32.4709 46.4336 28.1132V19.2297C46.4336 14.872 49.975 11.3385 54.3441 11.3385H57.8505C59.5681 11.3385 60.9613 12.7284 60.9613 14.4417V17.7465H54.3441C53.5227 17.7465 52.8572 18.4103 52.8572 19.2297V28.1132C52.8572 28.9319 53.5227 29.5958 54.3441 29.5958H62.077C62.8977 29.5958 63.5632 28.9319 63.5632 28.1132V0.00390625H66.8767C68.5942 0.00390625 69.9868 1.39302 69.9868 3.1071V28.1132C69.9868 32.4709 66.4454 36.0037 62.077 36.0037Z" fill="#74BC1F"/>
<path d="M80.2719 12.0952C81.2289 13.301 85.3394 18.4836 86.2111 19.582L82.2565 23.5275C79.8937 21.6621 75.0766 17.8595 72.6893 15.9746C72.6613 15.953 72.6613 15.9167 72.6865 15.8916L76.906 11.6824C77.8092 10.7814 79.2981 10.8679 80.0909 11.8672L80.2719 12.0952Z" fill="#74BC1F"/>
<path d="M74.7504 29.4559C75.959 28.5012 81.1544 24.4008 82.2554 23.5312L86.2106 27.4762C84.7419 29.327 82.0764 32.6875 80.0841 35.1993C79.2935 36.1958 77.8101 36.2794 76.9097 35.3805L72.6406 31.1218L74.7504 29.4559Z" fill="#74BC1F"/>
<path d="M92.1501 34.9596C91.1931 33.7539 87.082 28.5712 86.2109 27.4729L90.1655 23.5273C92.5283 25.3927 97.3454 29.1954 99.7327 31.0803C99.7607 31.1019 99.7607 31.1382 99.7355 31.1633L95.516 35.3725C94.6128 36.2734 93.1239 36.187 92.3311 35.1877L92.1501 34.9596Z" fill="#74BC1F"/>
<path d="M97.6673 17.6023C96.4586 18.557 91.2633 22.6574 90.1623 23.5269L86.207 19.5821C87.6653 17.7445 90.3028 14.4189 92.2902 11.914C93.1304 10.8541 94.5998 10.7718 95.5582 11.7271L99.777 15.9363L97.6673 17.6023Z" fill="#74BC1F"/>
<path d="M117.089 11.3389H106.051C104.333 11.3389 102.941 12.7281 102.941 14.4421V17.7469H117.089C117.91 17.7469 118.576 18.4107 118.576 19.2301V28.1129C118.576 28.9316 117.91 29.5962 117.089 29.5962H109.653C108.668 29.5962 107.869 28.7991 107.869 27.8166C107.869 26.834 108.668 26.0376 109.653 26.0376H115.973V23.6283C115.973 22.3459 114.93 21.3054 113.644 21.3054H108.812C104.743 21.3054 101.445 24.5955 101.445 28.6541C101.445 32.7119 104.743 36.002 108.811 36.0027L117.089 36.0041C121.458 36.0041 124.999 32.4707 124.999 28.1129V19.2301C124.999 14.8717 121.458 11.3389 117.089 11.3389Z" fill="#74BC1F"/>
<path d="M34.5887 11.3389H23.5514C21.8331 11.3389 20.4406 12.7281 20.4406 14.4421V17.7469H34.5887C35.4101 17.7469 36.0756 18.4107 36.0756 19.2301V28.1129C36.0756 28.9316 35.4101 29.5962 34.5887 29.5962H27.1529C26.1679 29.5962 25.3689 28.7991 25.3689 27.8166C25.3689 26.834 26.1679 26.0376 27.1529 26.0376H33.473V23.6283C33.473 22.3459 32.43 21.3054 31.1445 21.3054H26.3119C22.2434 21.3054 18.9453 24.5955 18.9453 28.6541C18.9453 32.7119 22.2427 36.002 26.3105 36.0027L34.5887 36.0041C38.9578 36.0041 42.4992 32.4707 42.4992 28.1129V19.2301C42.4992 14.8717 38.9578 11.3389 34.5887 11.3389Z" fill="#74BC1F"/>
</g>
<defs>
<clipPath id="clip0_2394_4700">
<rect width="125" height="37" fill="white"/>
</clipPath>
</defs>
</svg>
