<svg width="138" height="41" viewBox="0 0 138 41" fill="none" xmlns="http://www.w3.org/2000/svg">
<g clip-path="url(#clip0_2394_4672)">
<path d="M90.0992 26.1171V13.8097C90.1976 13.7872 90.2935 13.7449 90.3894 13.7461C93.5622 13.8022 96.7363 13.8196 99.9065 13.9504C100.772 13.9865 101.668 14.2643 102.471 14.6131C103.761 15.1737 104.253 16.4256 103.877 17.7772C103.669 18.5234 103.149 18.9718 102.444 19.2097C101.979 19.3667 101.497 19.4701 100.993 19.7093C101.251 19.7815 101.51 19.85 101.765 19.9273C103.432 20.4318 104.204 21.3461 104.208 22.8061C104.21 23.8848 103.707 24.6696 102.803 25.2053C101.698 25.8593 100.46 26.0548 99.2127 26.0798C96.2878 26.1383 93.3629 26.1346 90.438 26.1545C90.357 26.1545 90.2748 26.1358 90.1004 26.1146L90.0992 26.1171ZM94.9163 20.3682C94.9163 21.8195 94.9051 23.2657 94.9362 24.7107C94.9387 24.8253 95.229 25.0234 95.3897 25.0284C96.1346 25.0471 96.8808 25.0321 97.6257 24.9898C98.4379 24.9437 98.9262 24.56 99.0308 23.7603C99.1218 23.0702 99.118 22.3526 99.0395 21.66C98.9685 21.031 98.5874 20.4579 97.9296 20.3932C96.9518 20.2972 95.9589 20.3682 94.915 20.3682H94.9163ZM94.854 14.9258C94.854 16.2624 94.844 17.6028 94.8727 18.9407C94.8752 19.0478 95.133 19.2347 95.2788 19.2409C96.0225 19.272 96.7699 19.2695 97.5148 19.2521C98.4678 19.2297 98.9835 18.6392 99.0595 17.5268C99.1641 15.9909 98.7119 15.0304 97.7353 14.9432C96.8147 14.861 95.8817 14.9258 94.854 14.9258Z" fill="white"/>
<path d="M114.064 26.1809C112.093 26.2806 110.165 26.1273 108.437 25.0249C107.36 24.3385 106.597 23.413 106.262 22.176C105.687 20.0508 105.662 17.9867 107.083 16.1306C107.743 15.2674 108.602 14.6296 109.621 14.2932C112.327 13.4001 115.088 13.2493 117.817 14.1226C121.224 15.2138 122.845 18.4788 121.787 21.9069C120.986 24.503 118.805 26.0813 115.868 26.1759C115.267 26.1959 114.666 26.1784 114.064 26.1784V26.1809ZM116.897 19.9175C116.817 18.9521 116.788 17.9518 116.64 16.9715C116.371 15.2063 115.718 14.6844 113.924 14.6632C112.376 14.6445 111.474 15.3309 111.25 16.8556C110.956 18.8537 110.914 20.8693 111.237 22.8686C111.54 24.7421 112.068 25.1669 113.966 25.2342C114.007 25.2354 114.049 25.2354 114.09 25.2367C115.643 25.2653 116.401 24.6624 116.619 23.1065C116.766 22.0614 116.807 21.0025 116.898 19.9163L116.897 19.9175Z" fill="white"/>
<path d="M137.692 13.845C136.723 14.8615 135.786 15.8456 134.848 16.8297C134.262 17.4451 133.69 18.0767 133.079 18.6696C132.771 18.9698 132.803 19.1803 133.048 19.5042C134.561 21.5086 136.052 23.5278 137.548 25.5434C137.679 25.719 137.802 25.9009 138 26.1812C136.452 26.1812 135.025 26.1114 133.609 26.2048C132.585 26.2721 131.927 25.9744 131.368 25.0924C130.648 23.9588 129.768 22.9274 128.923 21.805C128.783 21.9221 128.652 22.0081 128.549 22.1214C127.509 23.2513 126.441 24.3575 125.45 25.5284C124.996 26.0628 124.524 26.2958 123.845 26.1812C123.564 26.1338 123.272 26.1488 122.809 26.1276C124.594 24.1881 126.28 22.3556 128.006 20.4796C126.353 18.2735 124.716 16.0885 123.032 13.84C123.224 13.8027 123.349 13.7566 123.476 13.7566C125.075 13.7516 126.674 13.7317 128.271 13.7703C128.545 13.7765 128.895 13.9708 129.07 14.1901C130.01 15.3723 130.907 16.5893 131.871 17.8636C132.81 16.8733 133.704 15.9303 134.595 14.9873C134.71 14.8665 134.821 14.7432 134.934 14.6223C135.811 13.6843 136.226 13.561 137.691 13.8438L137.692 13.845Z" fill="white"/>
<path d="M67.4686 13.7501C69.3621 13.7501 71.121 13.7352 72.8787 13.7713C73.0718 13.775 73.3134 14.0429 73.4417 14.2459C74.5429 15.9774 75.623 17.7239 76.7105 19.4641C76.8275 19.651 76.9571 19.8304 77.129 20.0857C77.9088 18.8699 78.6463 17.7252 79.3775 16.5779C79.8571 15.8267 80.3541 15.0843 80.7963 14.3119C81.033 13.8984 81.3108 13.7165 81.7892 13.7688C82.1703 13.8099 82.559 13.7775 83.0336 13.7775C82.8854 14.0329 82.7932 14.211 82.6848 14.378C81.195 16.6738 79.6951 18.9621 78.2252 21.2717C78.0384 21.5644 77.9375 21.958 77.9275 22.3093C77.8926 23.5687 77.9138 24.8294 77.9138 26.1822C77.0181 26.1822 76.1337 26.1809 75.2492 26.1822C74.6264 26.1834 74.0035 26.1697 73.3832 26.2021C72.9671 26.2233 72.8475 26.0676 72.8575 25.6652C72.8837 24.6288 72.8986 23.5899 72.8575 22.5547C72.8426 22.186 72.7342 21.7737 72.5349 21.4672C70.9603 19.0543 69.3521 16.6626 67.7564 14.2634C67.6792 14.1475 67.6181 14.0192 67.4686 13.7501Z" fill="white"/>
<path d="M66.0324 25.0001V25.9767C65.4157 26.0415 64.8253 26.1262 64.2311 26.1598C61.9091 26.2956 59.5722 26.4214 57.32 25.7039C54.8472 24.9166 53.5455 23.1402 53.2764 20.5728C53.0248 18.1674 54.1335 15.8317 56.0842 14.7517C57.3087 14.074 58.6504 13.785 60.0293 13.7664C62.0125 13.7402 63.9956 13.7987 66.0324 13.8224V14.8414C64.8303 14.8414 63.6543 14.8364 62.4796 14.8439C62.1072 14.8464 61.7322 14.8626 61.3622 14.9074C60.1415 15.0557 59.2458 15.6486 58.9207 16.8818C58.3888 18.8986 58.2542 20.9316 58.9331 22.9459C59.3704 24.2427 60.3096 24.954 61.6811 24.9926C63.1075 25.0324 64.535 25.0013 66.0324 25.0013V25.0001Z" fill="white"/>
<path d="M51.4328 26.1986H46.4238V13.8076H51.4328V26.1986Z" fill="white"/>
<path d="M17.5441 3.64647C17.7346 3.53614 17.9687 3.53726 18.1581 3.64647L32.0458 11.717L35.0436 9.98632L17.8572 -0.000976562L0.551636 9.98966L3.54381 11.7281L17.5441 3.64535V3.64647Z" fill="#FFE005"/>
<path d="M30.7675 12.3924L17.8494 4.88574L4.84204 12.3957L17.7591 19.9023L30.7675 12.3924Z" fill="black"/>
<path d="M18.4144 35.9049L31.4229 28.3949L31.3805 13.4541L18.3721 20.9641L18.4144 35.9049Z" fill="black"/>
<path d="M35.6008 10.9531L32.603 12.6838L32.6487 28.7468C32.6487 28.9664 32.5328 29.1692 32.3422 29.2795L18.342 37.3623L18.352 40.8236L35.6576 30.833L35.6008 10.9542V10.9531Z" fill="#039EE7"/>
<path d="M3.3577 29.2776C3.16937 29.1684 3.05347 28.9666 3.05235 28.7493L3.00666 12.7064L0.741079 11.3903L0 10.959L0.0568346 30.831L17.2387 40.8161L17.2287 37.3381L3.35881 29.2776H3.3577Z" fill="#E80080"/>
<path d="M17.1886 35.8972L17.1462 20.9642L13.9613 19.1132L4.23474 13.4609L4.27709 28.394L17.1886 35.8972Z" fill="black"/>
<path d="M4.23474 13.46L4.27709 28.393L17.1886 35.8963L17.1462 20.9632L13.9613 19.1122L4.23474 13.46Z" fill="#E6007D"/>
<path d="M30.7675 12.3924L17.8494 4.88574L4.84204 12.3957L17.7591 19.9023L30.7675 12.3924Z" fill="#FFEF03"/>
<path d="M31.4229 28.3939L31.3805 13.4531L18.3721 20.9631L18.4144 35.9039L31.4229 28.3939Z" fill="#5BC6F2"/>
</g>
<defs>
<clipPath id="clip0_2394_4672">
<rect width="138" height="40.8367" fill="white"/>
</clipPath>
</defs>
</svg>
