<svg width="87" height="31" viewBox="0 0 87 31" fill="none" xmlns="http://www.w3.org/2000/svg">
<path d="M11.0506 8.48736C11.1692 8.77296 11.2338 9.07805 11.2414 9.38715C11.2572 9.78985 11.2834 11.0048 11.2904 11.3585C11.6948 11.3357 12.2165 11.3094 12.5684 11.3094C12.9203 11.3094 14.0775 11.2884 15.7738 11.2499H15.8841C16.085 11.2601 16.2859 11.2305 16.4753 11.1629C16.6647 11.0954 16.8389 10.9911 16.988 10.8562C17.1371 10.7212 17.2582 10.5582 17.3442 10.3765C17.4302 10.1947 17.4796 9.99766 17.4895 9.79686C17.6085 8.67296 16.994 8.39635 16.9643 8.39635C16.1677 8.07675 15.3135 7.92535 14.4556 7.95165C14.3226 7.95165 14.1843 7.95165 14.0442 7.96215C13.0315 8.04285 12.0286 8.21866 11.0488 8.48736" fill="#006AC6"/>
<path d="M9.14062 7.19355C9.37483 7.21885 9.60422 7.27785 9.82162 7.36865C10.1316 7.48365 10.4172 7.65595 10.6637 7.87635C11.7105 7.55855 12.7878 7.35135 13.8779 7.25835C14.0862 7.24255 14.3015 7.23555 14.5169 7.23555C15.2817 7.22945 16.0434 7.33315 16.7787 7.54365C16.9026 7.44565 17.0195 7.33915 17.1288 7.22505C17.3476 6.99205 17.4947 6.70095 17.5525 6.38655C17.6597 5.94575 17.5972 5.48085 17.3774 5.08405C17.1813 4.70585 16.6754 4.53085 15.8736 4.53085C15.7651 4.53085 15.6443 4.53085 15.513 4.52035C15.3817 4.50985 15.1769 4.50635 14.9878 4.50635C14.0513 4.50875 13.1228 4.67885 12.2463 5.00875C11.0713 5.51465 10.0138 6.25855 9.14062 7.19355Z" fill="#006AC6"/>
<path d="M5.32959 7.14106C5.70229 7.13546 6.07239 7.20396 6.41849 7.34246C6.71829 7.49526 6.98719 7.70246 7.21149 7.95336C7.29069 7.84346 7.37979 7.74086 7.47759 7.64706C7.65969 7.49236 7.86939 7.37356 8.09559 7.29686C8.36869 6.99226 8.88689 6.43206 9.41379 5.95416C10.3836 5.08746 11.5289 4.44016 12.7716 4.05646C13.5531 3.82876 14.3649 3.72186 15.1787 3.73956C15.588 3.73916 15.9971 3.76016 16.4042 3.80256C16.6542 3.63436 16.8642 3.41316 17.0193 3.15486C17.1745 2.89656 17.2711 2.60726 17.3022 2.30756C17.2847 1.08206 16.8348 0.791477 14.7708 0.689947C12.361 0.656147 10.0204 1.49566 8.18139 3.05336C6.92649 4.17626 5.95019 5.57576 5.32959 7.14106Z" fill="#006AC6"/>
<path d="M14.1006 11.9816C14.1199 12.3317 14.1479 12.8919 14.1479 13.2578C14.1479 13.748 14.1864 15.4829 14.2039 16.2234V16.5735C14.1938 16.7754 14.2236 16.9774 14.2916 17.1677C14.3596 17.3581 14.4645 17.5332 14.6003 17.683C14.7361 17.8327 14.9001 17.9542 15.0829 18.0405C15.2657 18.1268 15.4638 18.1762 15.6657 18.1859C15.755 18.1946 15.8407 18.1999 15.937 18.1999C16.8421 18.1999 17.0662 17.6747 17.0697 17.6642C17.4321 16.7328 17.5788 15.7315 17.4986 14.7353C17.4179 13.7232 17.242 12.7209 16.9734 11.7417C16.6865 11.86 16.3803 11.9247 16.0701 11.9326C15.9073 11.9326 15.4311 11.9536 14.1024 11.9816" fill="#006AC6"/>
<path d="M17.9169 17.4701C18.0139 17.5943 18.1198 17.7114 18.2338 17.8202C18.4667 18.0395 18.7578 18.1871 19.0723 18.2456C19.2155 18.2773 19.3616 18.2937 19.5082 18.2946C19.8146 18.2927 20.1156 18.2138 20.3836 18.0653C20.7547 17.8692 20.9438 17.365 20.9438 16.5615C20.9438 16.4635 20.9438 16.3567 20.9438 16.2376V16.2009C21.0123 15.0893 20.8441 13.9758 20.4501 12.9341C19.9433 11.7606 19.1995 10.7045 18.2653 9.83203C18.239 10.0661 18.1801 10.2953 18.0902 10.513C17.977 10.8239 17.8046 11.1098 17.5825 11.3551C17.8999 12.4007 18.1064 13.4769 18.1988 14.5657C18.274 15.543 18.1781 16.5259 17.9152 17.4701" fill="#006AC6"/>
<path d="M21.6564 17.1076C21.8228 17.3528 22.0412 17.5583 22.2959 17.7096C22.5507 17.8609 22.8356 17.9542 23.1305 17.983C24.3752 17.9655 24.6676 17.5155 24.7691 15.4515C24.7952 13.0447 23.9545 10.7089 22.4005 8.87084C21.2783 7.61754 19.8809 6.64134 18.3179 6.01904C18.323 6.39234 18.2546 6.76284 18.1166 7.10974C17.9628 7.40894 17.7551 7.67724 17.5039 7.90104C17.6138 7.98094 17.7163 8.07064 17.8103 8.16884C17.965 8.35084 18.0838 8.56054 18.1604 8.78684C18.4072 9.00914 19.0007 9.55184 19.5031 10.1033C20.3702 11.0724 21.0181 12.2171 21.4026 13.4593C21.7084 14.6475 21.7945 15.8815 21.6564 17.1006" fill="#006AC6"/>
<path d="M13.4949 14.814C13.1885 14.8315 12.5986 14.863 12.2169 14.863C11.8353 14.863 10.8024 14.8823 9.07451 14.9208H8.89941C8.49371 14.9013 8.09691 15.0435 7.79591 15.3162C7.49501 15.589 7.31451 15.97 7.29411 16.3756C7.17501 17.4925 7.78951 17.7761 7.81931 17.7761C8.74761 18.1409 9.74681 18.2894 10.7411 18.2103C11.7537 18.1285 12.7565 17.9526 13.7365 17.6851C13.6175 17.3996 13.5528 17.0944 13.5457 16.7852C13.5351 16.5227 13.5176 15.8627 13.4966 14.8245L13.4949 14.814Z" fill="#006AC6"/>
<path d="M8.00628 18.6306C7.88158 18.7277 7.76448 18.8342 7.65608 18.9492C7.43788 19.1822 7.29028 19.4724 7.23068 19.786C7.12378 20.2267 7.18628 20.6916 7.40578 21.0885C7.60008 21.4596 8.10598 21.6469 8.90608 21.6469C9.01108 21.6469 9.12668 21.6469 9.25618 21.6469C9.43128 21.6469 9.60638 21.6627 9.80238 21.6627C10.7388 21.6608 11.6673 21.4913 12.5439 21.162C13.717 20.6552 14.7731 19.9121 15.6461 18.9789C15.4113 18.9536 15.1814 18.8946 14.9633 18.8039C14.6529 18.6891 14.3671 18.5162 14.1213 18.2944C13.0754 18.6139 11.9985 18.821 10.9088 18.9124C10.7005 18.9282 10.4852 18.9369 10.2698 18.9369C9.50458 18.941 8.74258 18.8372 8.00628 18.6288" fill="#006AC6"/>
<path d="M8.36856 22.3699C8.12256 22.5403 7.91686 22.7624 7.76566 23.0207C7.61446 23.2789 7.52146 23.567 7.49316 23.8649C7.51066 25.0904 7.96066 25.381 10.0247 25.4825C10.1437 25.4825 10.2645 25.4913 10.3871 25.4913C12.6695 25.421 14.862 24.5856 16.6124 23.1192C17.8678 21.9964 18.8448 20.5969 19.4659 19.0314C19.0927 19.0369 18.722 18.9684 18.3753 18.8301C18.0763 18.6758 17.8081 18.4682 17.584 18.2173C17.5047 18.3273 17.4157 18.4298 17.3179 18.5237C17.1354 18.6808 16.9252 18.8025 16.6982 18.8826C16.5231 19.0822 15.9594 19.7001 15.3817 20.2253C14.4099 21.0903 13.2627 21.7353 12.0187 22.116C11.2365 22.3438 10.4242 22.4506 9.60976 22.4329C9.02506 22.4329 8.54886 22.3874 8.38426 22.3699" fill="#006AC6"/>
<path d="M8.83266 7.99528C7.93636 7.99528 7.70876 8.51178 7.69996 8.53448C7.33616 9.46188 7.18776 10.4598 7.26586 11.4529C7.34586 12.4657 7.52166 13.4686 7.79096 14.4482C8.07776 14.3315 8.38316 14.2675 8.69256 14.2592C8.88166 14.2592 9.38056 14.2364 10.6604 14.2102C10.6446 13.9248 10.6131 13.3173 10.6131 12.9322C10.6131 12.547 10.6008 11.4634 10.5623 9.72668V9.60768C10.5804 9.20248 10.4377 8.80658 10.1652 8.50628C9.89266 8.20588 9.51246 8.02538 9.10746 8.00408C9.01686 7.99358 8.92566 7.98838 8.83436 7.98828" fill="#006AC6"/>
<path d="M5.26142 7.89404C4.95802 7.89744 4.66022 7.97624 4.39482 8.12344C4.02372 8.32124 3.83642 8.82364 3.83642 9.62724C3.83642 9.73574 3.83642 9.85654 3.82582 9.98964C3.75752 11.1013 3.92642 12.2148 4.32132 13.2563C4.82822 14.4293 5.57142 15.4852 6.50432 16.3584C6.53062 16.1249 6.58952 15.8963 6.67942 15.6792C6.79412 15.3685 6.96632 15.0822 7.18712 14.8354C6.86832 13.79 6.66122 12.7137 6.56912 11.6247C6.49402 10.6479 6.59062 9.66554 6.85452 8.72214C6.75632 8.59834 6.64992 8.48134 6.53592 8.37204C6.30362 8.15274 6.01302 8.00514 5.69902 7.94654C5.55532 7.91494 5.40862 7.89854 5.26142 7.89754" fill="#006AC6"/>
<path d="M1.61821 8.20703C0.392708 8.22453 0.103909 8.67443 0.000608803 10.7384C-0.0258912 13.1446 0.81351 15.4802 2.36571 17.3191C3.48881 18.5729 4.88751 19.5491 6.45171 20.1709C6.44701 19.7983 6.51541 19.4283 6.65301 19.082C6.80791 18.783 7.01551 18.5143 7.26581 18.2889C7.15581 18.209 7.05331 18.1194 6.95941 18.0211C6.80501 17.8389 6.68621 17.6292 6.60931 17.4031C6.36071 17.1825 5.76721 16.6381 5.26481 16.0866C4.39871 15.1145 3.75151 13.9676 3.36711 12.7236C3.06151 11.5354 2.97601 10.3013 3.11501 9.08233C2.94871 8.83713 2.73041 8.63153 2.47561 8.48023C2.22081 8.32893 1.93581 8.23563 1.64091 8.20703H1.61821Z" fill="#006AC6"/>
<path d="M42.4748 4.4416C43.187 4.4304 43.8945 4.5577 44.5581 4.8162C45.1505 5.0484 45.6908 5.3959 46.1477 5.8386C46.5844 6.266 46.9288 6.7784 47.1596 7.3442C47.3956 7.9299 47.5145 8.5562 47.5097 9.1876C47.5335 10.1041 47.313 11.0105 46.8707 11.8136C46.3903 12.5984 45.6548 13.1942 44.7875 13.5012V13.5467C45.2118 13.6547 45.6066 13.8562 45.9429 14.1367C46.2477 14.4015 46.5011 14.7202 46.6904 15.0768C46.8878 15.4518 47.0299 15.8533 47.1123 16.269C47.1974 16.6986 47.2558 17.133 47.2874 17.5697C47.3031 17.8428 47.3189 18.1632 47.3347 18.5326C47.3504 18.902 47.3802 19.2801 47.4204 19.6653C47.4565 20.035 47.5208 20.4013 47.613 20.7612C47.6881 21.0757 47.823 21.3729 48.0104 21.6365H44.229C44.0029 21.0089 43.8725 20.3509 43.8421 19.6845C43.7948 18.9317 43.7213 18.207 43.625 17.5172C43.5704 16.7885 43.2839 16.0965 42.8075 15.5425C42.2336 15.0725 41.4978 14.8474 40.7592 14.9157H36.9831V21.6365H33.2017V4.4416H42.4748ZM41.1321 12.2215C41.831 12.2743 42.525 12.0688 43.0823 11.6438C43.3187 11.3954 43.4989 11.0991 43.611 10.7751C43.723 10.451 43.7642 10.1067 43.7318 9.7653C43.7625 9.4331 43.7202 9.0983 43.6081 8.7841C43.4959 8.4699 43.3165 8.184 43.0823 7.9464C42.5213 7.5297 41.829 7.329 41.1321 7.3809H36.9831V12.2215H41.1321Z" fill="white"/>
<path d="M58.7436 4.44141L65.1738 21.6398H61.2488L59.9481 17.8094H53.5162L52.1682 21.6398H48.3623L54.8642 4.44141H58.7436ZM58.9607 14.9926L56.7916 8.68151H56.7444L54.5036 14.9926H58.9607Z" fill="white"/>
<path d="M69.7711 4.44141V11.5718L76.4918 4.44141H81.212L74.4926 11.234L81.863 21.6398H77.1186L71.9401 13.9089L69.7711 16.1008V21.6398H65.9897V4.44141H69.7711Z" fill="white"/>
<path d="M34.1403 25.2271H33.2632V29.2133H34.1403V25.2271Z" fill="white"/>
<path d="M34.8769 27.1789C34.932 27.0012 35.0239 26.8372 35.1465 26.6974C35.2679 26.5599 35.4179 26.4505 35.586 26.3771C35.974 26.2206 36.4076 26.2206 36.7957 26.3771C36.9624 26.4519 37.1116 26.5611 37.2333 26.6974C37.3548 26.8378 37.446 27.0017 37.5012 27.1789C37.5619 27.3714 37.5921 27.5722 37.5904 27.7741C37.5922 27.9742 37.562 28.1734 37.5012 28.3641C37.4455 28.54 37.3544 28.7027 37.2333 28.842C37.1125 28.9789 36.9631 29.0876 36.7957 29.1606C36.4067 29.3123 35.9749 29.3123 35.586 29.1606C35.4173 29.089 35.267 28.9801 35.1465 28.842C35.0243 28.7032 34.9325 28.5404 34.8769 28.3641C34.816 28.1734 34.7859 27.9742 34.7877 27.7741C34.786 27.5722 34.8162 27.3714 34.8769 27.1789ZM35.3601 28.2398C35.401 28.3647 35.4665 28.4802 35.5527 28.5794C35.6328 28.6686 35.7305 28.7401 35.8398 28.7895C35.9504 28.837 36.0695 28.8616 36.1899 28.8616C36.3103 28.8616 36.4295 28.837 36.5401 28.7895C36.6496 28.7406 36.7474 28.669 36.8272 28.5794C36.914 28.4806 36.9795 28.365 37.0197 28.2398C37.1131 27.9357 37.1131 27.6107 37.0197 27.3067C36.9804 27.1779 36.9149 27.0587 36.8272 26.9565C36.7485 26.8654 36.6504 26.793 36.5401 26.7447C36.4298 26.696 36.3105 26.6708 36.1899 26.6708C36.0693 26.6708 35.9501 26.696 35.8398 26.7447C35.7297 26.7935 35.6317 26.8658 35.5527 26.9565C35.4656 27.0591 35.4001 27.1782 35.3601 27.3067C35.2668 27.6107 35.2668 27.9357 35.3601 28.2398Z" fill="white"/>
<path d="M37.4839 25.9641V25.2271H40.7488V25.9641H39.5549V29.2133H38.6778V25.9641H37.4839Z" fill="white"/>
<path d="M43.3223 25.2271L44.5775 28.576L45.8397 25.2271H46.5645V29.2133H46.0638V25.8975H46.0515L44.8068 29.2133H44.3551L43.1104 25.8975H43.0982V29.2133H42.5957V25.2271H43.3223Z" fill="white"/>
<path d="M49.9433 29.2027C49.8383 29.2557 49.7212 29.2805 49.6037 29.2744C49.5505 29.2775 49.4973 29.2699 49.4471 29.2522C49.3969 29.2345 49.3508 29.2069 49.3113 29.1711C49.2706 29.1255 49.2398 29.0719 49.2208 29.0138C49.2018 28.9556 49.1951 28.8941 49.201 28.8333C49.0814 28.9837 48.9245 29.1002 48.7459 29.1711C48.5676 29.2416 48.3773 29.2767 48.1856 29.2744C48.0606 29.2754 47.9359 29.2607 47.8145 29.2307C47.7047 29.2045 47.6012 29.1569 47.5099 29.0906C47.4223 29.0257 47.352 28.9404 47.3051 28.842C47.253 28.7254 47.2279 28.5985 47.2315 28.4709C47.2266 28.332 47.2548 28.194 47.3138 28.0682C47.3669 27.9678 47.4423 27.8809 47.5344 27.8144C47.6298 27.7481 47.7358 27.6984 47.8478 27.6673C47.9651 27.6341 48.0841 27.6061 48.2084 27.5833C48.3327 27.5605 48.4623 27.5378 48.5795 27.5238C48.684 27.5132 48.7876 27.4951 48.8894 27.4695C48.9674 27.451 49.0399 27.4144 49.1012 27.3627C49.128 27.3363 49.1488 27.3046 49.1624 27.2696C49.1759 27.2346 49.182 27.1971 49.18 27.1596C49.1837 27.0717 49.1631 26.9845 49.1205 26.9076C49.0841 26.8466 49.0322 26.7964 48.9699 26.7622C48.9057 26.7276 48.8357 26.7051 48.7634 26.6957C48.6881 26.6839 48.612 26.678 48.5358 26.6782C48.3616 26.672 48.1889 26.7119 48.0351 26.7938C47.964 26.8403 47.9064 26.9048 47.8683 26.9807C47.8302 27.0567 47.8128 27.1413 47.818 27.2262H47.3418C47.3442 27.0685 47.3825 26.9134 47.4539 26.7727C47.518 26.6535 47.6099 26.5514 47.7217 26.4751C47.8384 26.3973 47.9683 26.3415 48.1051 26.3106C48.2561 26.2761 48.4106 26.2591 48.5655 26.2598C48.695 26.2604 48.8243 26.2697 48.9524 26.2878C49.0748 26.3052 49.1933 26.3437 49.3026 26.4016C49.4061 26.4591 49.4925 26.5431 49.5529 26.645C49.6209 26.7692 49.6536 26.9096 49.6474 27.0511V28.5339C49.6451 28.6155 49.6516 28.6971 49.6667 28.7772C49.6807 28.8298 49.7245 28.856 49.798 28.856C49.8472 28.8551 49.8961 28.8475 49.9433 28.8333V29.2027ZM49.173 27.7234C49.1031 27.7727 49.0229 27.8057 48.9384 27.8196C48.8378 27.8417 48.7361 27.8586 48.6338 27.8704C48.5288 27.8827 48.422 27.8984 48.3134 27.9142C48.2137 27.9295 48.1162 27.9565 48.0228 27.9947C47.9405 28.0284 47.8686 28.0833 47.8145 28.154C47.7565 28.2354 47.728 28.3343 47.734 28.4341C47.7317 28.5025 47.748 28.5703 47.7813 28.6302C47.8111 28.683 47.8531 28.728 47.9038 28.7615C47.9569 28.7966 48.0164 28.821 48.0789 28.8333C48.1477 28.8491 48.2183 28.8567 48.2889 28.856C48.4258 28.8593 48.5622 28.838 48.6916 28.793C48.7923 28.7569 48.8851 28.7016 48.9647 28.6302C49.031 28.572 49.0841 28.5004 49.1205 28.4201C49.1528 28.3535 49.1702 28.2806 49.1713 28.2065L49.173 27.7234Z" fill="white"/>
<path d="M52.5113 29.2151V28.8247H52.4991C52.4246 28.9833 52.2935 29.1082 52.1314 29.1748C51.9559 29.2464 51.7678 29.2821 51.5782 29.2799C51.377 29.2847 51.1775 29.2428 50.9953 29.1573C50.8347 29.0798 50.6936 28.9673 50.5821 28.8282C50.4696 28.6855 50.3853 28.5227 50.3335 28.3485C50.2766 28.1601 50.2483 27.9642 50.2495 27.7673C50.2486 27.5706 50.2763 27.3748 50.3318 27.1861C50.3802 27.0123 50.4636 26.8503 50.5769 26.7099C50.6877 26.5715 50.8291 26.4607 50.99 26.386C51.1708 26.302 51.3684 26.2607 51.5677 26.2653C51.6482 26.2656 51.7285 26.2732 51.8076 26.288C51.8959 26.3033 51.9822 26.3286 52.0649 26.3633C52.1511 26.3994 52.2323 26.4464 52.3065 26.5033C52.3843 26.5617 52.4497 26.6349 52.4991 26.7187H52.5113V25.2324H52.9857V29.2151H52.5113ZM50.8062 28.191C50.8382 28.3165 50.8928 28.4351 50.9672 28.5411C51.0398 28.6419 51.1352 28.724 51.2456 28.7809C51.37 28.8429 51.5076 28.8736 51.6465 28.8702C51.7804 28.8748 51.9133 28.845 52.0325 28.7837C52.1517 28.7224 52.2533 28.6317 52.3275 28.5201C52.3989 28.4133 52.451 28.2948 52.4816 28.17C52.5116 28.0396 52.5268 27.9063 52.5271 27.7726C52.5276 27.6345 52.5111 27.4969 52.4781 27.3629C52.4475 27.2372 52.3935 27.1184 52.3187 27.0128C52.245 26.9108 52.1485 26.8275 52.0369 26.7694C51.907 26.7053 51.7633 26.674 51.6185 26.6784C51.4765 26.6731 51.3357 26.7057 51.2106 26.7729C51.102 26.833 51.01 26.919 50.9427 27.0233C50.874 27.1305 50.8248 27.2491 50.7974 27.3734C50.7672 27.5091 50.752 27.6476 50.7519 27.7866C50.7523 27.9197 50.7705 28.0522 50.8062 28.1805" fill="white"/>
<path d="M55.7748 29.0295C55.5375 29.1991 55.2506 29.2853 54.959 29.2746C54.7538 29.2799 54.5498 29.2417 54.3603 29.1626C54.1959 29.0928 54.0498 28.9862 53.9332 28.8509C53.8135 28.7111 53.7246 28.5477 53.6723 28.3713C53.6133 28.1733 53.5803 27.9685 53.5743 27.762C53.5726 27.5569 53.6069 27.3531 53.6758 27.1598C53.7376 26.9847 53.8334 26.8234 53.9577 26.6854C54.0768 26.5517 54.223 26.4449 54.3866 26.372C54.5579 26.2959 54.7436 26.2577 54.931 26.26C55.1548 26.252 55.3762 26.3072 55.57 26.4193C55.7351 26.5211 55.8747 26.6594 55.9779 26.8237C56.0809 26.9877 56.1527 27.1693 56.1898 27.3594C56.229 27.541 56.2449 27.7269 56.237 27.9126H54.0767C54.0728 28.0344 54.0882 28.1562 54.1222 28.2732C54.1538 28.3863 54.2103 28.4909 54.2876 28.5794C54.3648 28.6678 54.4608 28.7379 54.5686 28.7844C54.6972 28.8381 54.8355 28.8643 54.9748 28.8614C55.1507 28.8696 55.3246 28.8204 55.4702 28.7214C55.6058 28.6177 55.6966 28.4662 55.7241 28.2977H56.188C56.1455 28.5856 55.9961 28.8469 55.7696 29.0295H55.7748ZM55.6628 27.1756C55.6233 27.0788 55.565 26.9908 55.4914 26.9166C55.4178 26.8424 55.3303 26.7835 55.2339 26.7432C55.0228 26.6575 54.7867 26.6575 54.5757 26.7432C54.4795 26.7827 54.393 26.8424 54.3218 26.9182C54.2471 26.9923 54.1876 27.0804 54.1467 27.1773C54.1051 27.2776 54.0802 27.3841 54.0732 27.4924H55.7328C55.7251 27.3827 55.6991 27.275 55.6558 27.1738" fill="white"/>
<path d="M60.8882 25.2271V25.6735H58.6666V26.9409H60.7376V27.3873H58.6666V28.7668H60.9057V29.2133H58.1362V25.2271H60.8882Z" fill="white"/>
<path d="M64.0517 29.2027C63.9467 29.2557 63.8296 29.2805 63.7121 29.2744C63.6589 29.2775 63.6057 29.2699 63.5555 29.2522C63.5053 29.2345 63.4591 29.2069 63.4197 29.1711C63.379 29.1255 63.3482 29.0719 63.3292 29.0138C63.3102 28.9556 63.3035 28.8941 63.3094 28.8333C63.1898 28.9837 63.0329 29.1002 62.8542 29.1711C62.676 29.2416 62.4857 29.2767 62.294 29.2744C62.169 29.2754 62.0443 29.2607 61.9229 29.2307C61.8131 29.2045 61.7096 29.1569 61.6183 29.0906C61.5307 29.0257 61.4604 28.9404 61.4135 28.842C61.3614 28.7254 61.3363 28.5985 61.3399 28.4709C61.335 28.332 61.3632 28.194 61.4222 28.0682C61.4753 27.9678 61.5507 27.8809 61.6428 27.8144C61.7382 27.7481 61.8442 27.6984 61.9562 27.6673C62.0735 27.6341 62.1925 27.6061 62.3168 27.5833C62.4411 27.5605 62.5706 27.5378 62.6879 27.5238C62.7924 27.5132 62.896 27.4951 62.9978 27.4695C63.0758 27.451 63.1483 27.4144 63.2096 27.3627C63.2363 27.3363 63.2572 27.3046 63.2707 27.2696C63.2843 27.2346 63.2903 27.1971 63.2884 27.1596C63.2921 27.0717 63.2715 26.9845 63.2289 26.9076C63.1925 26.8466 63.1405 26.7964 63.0783 26.7622C63.0141 26.7276 62.9441 26.7051 62.8718 26.6957C62.7965 26.6839 62.7204 26.678 62.6442 26.6782C62.47 26.672 62.2973 26.7119 62.1435 26.7938C62.0724 26.8403 62.0148 26.9048 61.9767 26.9807C61.9385 27.0567 61.9212 27.1413 61.9264 27.2262H61.4502C61.4526 27.0685 61.4909 26.9134 61.5623 26.7727C61.6264 26.6535 61.7183 26.5514 61.8301 26.4751C61.9468 26.3973 62.0767 26.3415 62.2135 26.3106C62.3645 26.2761 62.519 26.2591 62.6739 26.2598C62.8034 26.2604 62.9326 26.2697 63.0608 26.2878C63.1832 26.3052 63.3017 26.3437 63.411 26.4016C63.5145 26.4591 63.6009 26.5431 63.6613 26.645C63.7293 26.7692 63.762 26.9096 63.7558 27.0511V28.5339C63.7535 28.6155 63.76 28.6971 63.7751 28.7772C63.7891 28.8298 63.8329 28.856 63.9064 28.856C63.9556 28.8553 64.0046 28.8476 64.0517 28.8333V29.2027ZM63.2814 27.7234C63.2115 27.7727 63.1313 27.8057 63.0468 27.8196C62.9462 27.8417 62.8445 27.8586 62.7422 27.8704C62.6372 27.8827 62.5304 27.8984 62.4218 27.9142C62.3221 27.9295 62.2246 27.9565 62.1312 27.9947C62.0491 28.0288 61.9773 28.0837 61.9229 28.154C61.8648 28.2354 61.8364 28.3343 61.8424 28.4341C61.8401 28.5025 61.8564 28.5703 61.8896 28.6302C61.9195 28.683 61.9615 28.728 62.0122 28.7615C62.0653 28.7966 62.1248 28.821 62.1873 28.8333C62.2561 28.8491 62.3266 28.8567 62.3973 28.856C62.5342 28.8593 62.6706 28.838 62.8 28.793C62.9007 28.7569 62.9934 28.7016 63.0731 28.6302C63.1394 28.5716 63.193 28.5001 63.2306 28.4201C63.2618 28.3532 63.2785 28.2804 63.2797 28.2065L63.2814 27.7234Z" fill="white"/>
<path d="M64.9007 28.5689C64.9442 28.6404 65.0043 28.7004 65.0757 28.744C65.1517 28.788 65.2346 28.8188 65.3208 28.835C65.4136 28.854 65.508 28.8634 65.6027 28.863C65.6811 28.8628 65.7595 28.8575 65.8373 28.8473C65.9154 28.8366 65.9919 28.816 66.0649 28.786C66.1335 28.758 66.1938 28.7128 66.2399 28.6547C66.287 28.591 66.311 28.5132 66.3082 28.4341C66.3111 28.3793 66.2997 28.3246 66.2752 28.2755C66.2506 28.2264 66.2137 28.1846 66.1681 28.154C66.0606 28.0844 65.9423 28.0329 65.818 28.0017C65.678 27.9614 65.5257 27.9264 65.3628 27.8949C65.207 27.8653 65.0545 27.8201 64.9077 27.7601C64.774 27.7075 64.6542 27.6248 64.5575 27.5185C64.4583 27.3957 64.4084 27.2403 64.4175 27.0826C64.4143 26.951 64.4483 26.8211 64.5155 26.708C64.5789 26.6052 64.6644 26.5179 64.7659 26.4524C64.8737 26.3849 64.9921 26.3358 65.116 26.3071C65.2408 26.276 65.369 26.2601 65.4976 26.2598C65.6498 26.2586 65.8017 26.2727 65.9511 26.3018C66.0809 26.3273 66.205 26.3766 66.317 26.4471C66.4243 26.517 66.5118 26.6135 66.5708 26.7272C66.6389 26.8635 66.6771 27.0127 66.6828 27.1649H66.2014C66.1959 27.0847 66.1706 27.0071 66.1279 26.939C66.0881 26.8785 66.0348 26.8282 65.9721 26.792C65.9069 26.7538 65.836 26.7266 65.762 26.7115C65.6862 26.6939 65.6087 26.6851 65.5309 26.6852C65.4588 26.685 65.3867 26.6909 65.3156 26.7027C65.2473 26.713 65.1808 26.7324 65.1178 26.7605C65.0615 26.7864 65.0118 26.8247 64.9724 26.8725C64.935 26.9231 64.9153 26.9847 64.9164 27.0476C64.9156 27.0857 64.923 27.1236 64.9381 27.1586C64.9532 27.1937 64.9757 27.2251 65.004 27.2507C65.0679 27.3096 65.1429 27.3554 65.2245 27.3855C65.3224 27.4231 65.4231 27.453 65.5257 27.4747L65.86 27.55C65.9784 27.5749 66.0953 27.6064 66.2102 27.6446C66.3184 27.6777 66.4206 27.7279 66.513 27.7934C66.5997 27.854 66.672 27.9329 66.7248 28.0245C66.7827 28.1318 66.8105 28.2528 66.8054 28.3746C66.8107 28.5266 66.773 28.6771 66.6968 28.8087C66.6246 28.9229 66.5269 29.0187 66.4115 29.0888C66.2894 29.1614 66.1555 29.2118 66.0158 29.2377C65.8714 29.2639 65.725 29.2774 65.5782 29.2779C65.4238 29.2792 65.2698 29.2622 65.1195 29.2271C64.9818 29.1973 64.8511 29.1415 64.7344 29.0626C64.6212 28.9863 64.5291 28.8828 64.4665 28.7615C64.3954 28.6201 64.3571 28.4645 64.3545 28.3063H64.8289C64.8292 28.4 64.8546 28.4918 64.9024 28.5724" fill="white"/>
<path d="M68.4213 29.5983C68.375 29.7188 68.32 29.8358 68.2568 29.9484C68.2115 30.0361 68.1524 30.1159 68.0817 30.1847C68.0203 30.2453 67.9461 30.2913 67.8646 30.3195C67.7755 30.349 67.6819 30.3632 67.588 30.3615C67.5295 30.3618 67.471 30.3583 67.413 30.351C67.3581 30.3436 67.3042 30.3307 67.2519 30.3125V29.8766C67.2976 29.8968 67.3451 29.9127 67.3937 29.9239C67.4384 29.9351 67.4842 29.9416 67.5303 29.9431C67.6168 29.9465 67.7021 29.9219 67.7736 29.8731C67.8413 29.8234 67.8925 29.7545 67.9207 29.6753L68.1167 29.1904L66.9736 26.3193H67.5093L68.3548 28.6897H68.3671L69.1759 26.3281H69.6783L68.4213 29.5983Z" fill="white"/>
<path d="M86.999 6.69133C87.011 7.15113 86.886 7.60403 86.639 7.99223C86.393 8.38033 86.036 8.68603 85.614 8.87023C85.193 9.05433 84.726 9.10853 84.274 9.02583C83.821 8.94313 83.404 8.72733 83.075 8.40603C82.746 8.08473 82.52 7.67253 82.427 7.22223C82.333 6.77183 82.376 6.30393 82.55 5.87823C82.724 5.45243 83.021 5.08833 83.403 4.83243C83.786 4.57663 84.235 4.44053 84.695 4.44183C84.995 4.43603 85.293 4.48983 85.571 4.60013C85.85 4.71043 86.104 4.87503 86.318 5.08443C86.532 5.29373 86.703 5.54363 86.82 5.81953C86.937 6.09533 86.998 6.39173 86.999 6.69133ZM82.953 6.69133C82.947 6.92523 82.988 7.15793 83.073 7.37583C83.158 7.59373 83.286 7.79233 83.449 7.95993C83.612 8.12753 83.808 8.26073 84.023 8.35163C84.239 8.44253 84.47 8.48933 84.704 8.48933C84.935 8.48823 85.163 8.44093 85.375 8.35003C85.587 8.25913 85.779 8.12653 85.939 7.96013C86.099 7.79373 86.223 7.59693 86.306 7.38143C86.388 7.16583 86.426 6.93593 86.418 6.70533C86.429 6.47103 86.393 6.23683 86.312 6.01693C86.23 5.79693 86.105 5.59583 85.943 5.42553C85.782 5.25533 85.588 5.11963 85.372 5.02653C85.157 4.93353 84.925 4.88503 84.69 4.88413C84.456 4.88313 84.223 4.92973 84.007 5.02103C83.791 5.11243 83.596 5.24653 83.433 5.41543C83.27 5.58433 83.143 5.78443 83.06 6.00373C82.977 6.22303 82.939 6.45693 82.948 6.69133H82.953ZM84.333 7.87133H83.808V5.62173C84.093 5.57203 84.382 5.54913 84.671 5.55343C84.942 5.53113 85.214 5.58823 85.453 5.71803C85.524 5.77883 85.581 5.85463 85.619 5.94003C85.657 6.02553 85.675 6.11833 85.672 6.21173C85.663 6.33823 85.612 6.45823 85.528 6.55313C85.444 6.64803 85.331 6.71263 85.207 6.73693V6.76313C85.318 6.80903 85.416 6.88433 85.488 6.98113C85.561 7.07793 85.605 7.19263 85.618 7.31283C85.639 7.50843 85.695 7.69863 85.783 7.87483H85.219C85.133 7.70193 85.074 7.51723 85.044 7.32683C85.002 7.08003 84.869 6.97673 84.576 6.97673H84.329L84.333 7.87133ZM84.347 6.59683H84.594C84.881 6.59683 85.119 6.50053 85.119 6.26593C85.119 6.06113 84.968 5.91583 84.638 5.91583C84.541 5.91463 84.445 5.92403 84.35 5.94383L84.347 6.59683Z" fill="white"/>
</svg>
