<svg width="118" height="26" viewBox="0 0 118 26" fill="none" xmlns="http://www.w3.org/2000/svg">
<mask id="mask0_12_4024" style="mask-type:luminance" maskUnits="userSpaceOnUse" x="0" y="0" width="118" height="26">
<path d="M118 0.789062H0V25.7002H118V0.789062Z" fill="white"/>
</mask>
<g mask="url(#mask0_12_4024)">
<path d="M28.5278 15.35H26.5712V19.4843C26.5712 19.6111 26.4685 19.7142 26.3417 19.7142H24.3445C24.3143 19.7143 24.2844 19.7084 24.2565 19.6969C24.2286 19.6854 24.2033 19.6685 24.1819 19.6472C24.1606 19.6258 24.1437 19.6005 24.1321 19.5727C24.1205 19.5448 24.1146 19.5149 24.1146 19.4848V8.02224C24.1146 7.96134 24.1388 7.90294 24.1818 7.85994C24.2248 7.81694 24.2832 7.79274 24.344 7.79274H28.544C29.9525 7.79274 31.039 8.10654 31.8029 8.73414C32.1869 9.05884 32.4902 9.46824 32.6892 9.93004C32.8881 10.3919 32.9771 10.8936 32.9493 11.3956C32.9756 12.1108 32.7921 12.8179 32.4213 13.43C32.0256 14.0094 31.4692 14.4606 30.8205 14.728L33.2832 19.3773C33.3016 19.4122 33.3107 19.4513 33.3096 19.4908C33.3085 19.5303 33.2972 19.5689 33.2768 19.6027C33.2564 19.6366 33.2276 19.6646 33.1932 19.6841C33.1588 19.7035 33.1199 19.7137 33.0804 19.7138H30.9315C30.8809 19.7137 30.8313 19.6998 30.7881 19.6734C30.7449 19.647 30.7099 19.6093 30.6867 19.5643L28.5278 15.35ZM26.5712 13.3606H28.5527C29.073 13.3935 29.5861 13.2248 29.9853 12.8894C30.1578 12.7219 30.2923 12.5194 30.3799 12.2955C30.4675 12.0716 30.5061 11.8315 30.4931 11.5914C30.5066 11.3496 30.471 11.1075 30.3887 10.8796C30.3064 10.6518 30.179 10.4429 30.0141 10.2655C29.8138 10.0909 29.5806 9.95824 29.3281 9.87524C29.0757 9.79224 28.8092 9.76054 28.5444 9.78214H26.5712V13.3606ZM39.5197 19.5805C39.435 19.3681 39.376 19.1464 39.344 18.9201C39.0646 19.234 38.7195 19.4826 38.3333 19.6482C37.947 19.8137 37.529 19.8922 37.109 19.8781C36.3207 19.9064 35.5506 19.6375 34.9514 19.1246C34.6763 18.8916 34.4568 18.6001 34.3088 18.2715C34.1607 17.9428 34.0879 17.5852 34.0956 17.2248C34.0747 16.8059 34.1594 16.3885 34.3418 16.0108C34.5242 15.6331 34.7986 15.3073 35.1397 15.0633C35.8355 14.5615 36.8415 14.3072 38.157 14.3019H39.2457V13.7941C39.2638 13.4392 39.1519 13.09 38.931 12.8116C38.8027 12.6804 38.6469 12.5793 38.4748 12.5156C38.3028 12.4519 38.1187 12.4272 37.9359 12.4432C37.5992 12.4236 37.2666 12.5253 36.9984 12.7299C36.8176 12.8809 36.7008 13.0949 36.6715 13.3287C36.6627 13.3815 36.6352 13.4294 36.5941 13.4637C36.5529 13.498 36.5009 13.5164 36.4473 13.5157H34.5353C34.5026 13.5154 34.4703 13.5082 34.4405 13.4945C34.4108 13.4809 34.3843 13.4612 34.3626 13.4366C34.341 13.412 34.3249 13.3832 34.3151 13.3519C34.3054 13.3207 34.3024 13.2877 34.3063 13.2552C34.3542 12.8334 34.5132 12.4318 34.7669 12.0914C35.1121 11.6324 35.5767 11.2768 36.1099 11.0635C36.7273 10.8077 37.3905 10.6809 38.0587 10.6911C38.9964 10.6407 39.9203 10.9332 40.6582 11.5141C40.9825 11.8022 41.2375 12.1598 41.4041 12.5603C41.5708 12.9608 41.6447 13.3938 41.6205 13.8269V17.6671C41.5955 18.2523 41.689 18.8365 41.8954 19.3847C41.9124 19.4196 41.9201 19.4582 41.9181 19.4969C41.916 19.5356 41.9042 19.5732 41.8837 19.6061C41.8632 19.639 41.8346 19.6662 41.8008 19.6851C41.7669 19.704 41.7288 19.714 41.69 19.7142H39.7299C39.6857 19.715 39.6422 19.7027 39.6049 19.679C39.5676 19.6552 39.5377 19.6209 39.5197 19.5805ZM37.6247 18.0683C37.9612 18.0714 38.2929 17.9914 38.5906 17.8349C38.8672 17.697 39.0957 17.4787 39.2461 17.2087V15.6856H38.3616C37.1772 15.6856 36.5465 16.0951 36.4701 16.9137L36.4618 17.0531C36.4579 17.1898 36.4837 17.3257 36.5375 17.4515C36.5912 17.5772 36.6715 17.6899 36.7729 17.7816C37.0094 17.9832 37.3145 18.0859 37.6247 18.0683ZM48.0581 17.2659C48.0576 17.1232 48.0171 16.9835 47.9412 16.8627C47.8652 16.7418 47.7569 16.6447 47.6285 16.5824C47.1933 16.3659 46.7283 16.2155 46.2488 16.1362C44.1414 15.6939 43.0881 14.7988 43.0881 13.4506C43.0853 13.0685 43.1725 12.6912 43.3425 12.3491C43.5126 12.007 43.7608 11.7097 44.0671 11.4813C44.8018 10.9278 45.7067 10.6484 46.6255 10.6911C47.5888 10.642 48.5402 10.922 49.3233 11.4852C49.612 11.6991 49.851 11.9729 50.0239 12.2879C50.1968 12.6028 50.2995 12.9515 50.325 13.3099C50.3266 13.3408 50.3218 13.3718 50.3109 13.4008C50.3 13.4299 50.2833 13.4564 50.2618 13.4788C50.2404 13.5011 50.2145 13.5188 50.1859 13.5308C50.1573 13.5428 50.1266 13.5488 50.0956 13.5485H48.1805C48.1264 13.5491 48.0739 13.5303 48.0327 13.4953C47.9914 13.4604 47.9641 13.4118 47.9558 13.3584C47.926 13.113 47.8151 12.8846 47.6407 12.7094C47.5008 12.5887 47.3382 12.4971 47.1625 12.4402C46.9867 12.3832 46.8013 12.362 46.6172 12.3777C46.2866 12.3569 45.9592 12.4526 45.692 12.6482C45.4809 12.813 45.3598 13.0677 45.3642 13.3357C45.3646 13.5992 45.5071 13.8417 45.737 13.9702C46.1285 14.1815 46.5538 14.3228 46.9939 14.388C47.4999 14.4828 47.9981 14.6155 48.4842 14.7849C49.7341 15.2438 50.3591 16.0379 50.3591 17.1676C50.3642 17.5555 50.2717 17.9384 50.0899 18.2811C49.9081 18.6238 49.643 18.9153 49.3189 19.1286C48.5261 19.6574 47.5854 19.9199 46.6334 19.8781C45.9533 19.8908 45.2785 19.7553 44.6562 19.4804C44.1159 19.2446 43.6482 18.8689 43.3014 18.3922C43.0365 18.0298 42.8716 17.6042 42.8233 17.158C42.8194 17.1255 42.8224 17.0926 42.8321 17.0614C42.8418 17.0302 42.8579 17.0014 42.8795 16.9768C42.901 16.9522 42.9275 16.9325 42.9572 16.9188C42.9869 16.9051 43.0192 16.8979 43.0518 16.8975H44.8481C44.901 16.8966 44.9525 16.9144 44.9935 16.9479C45.0346 16.9813 45.0625 17.0282 45.0723 17.0802C45.112 17.3905 45.2733 17.6719 45.5198 17.8638C45.8587 18.1028 46.2681 18.221 46.6823 18.1994C47.0437 18.2243 47.4034 18.1339 47.7102 17.9416C47.9322 17.7886 48.0629 17.5351 48.0581 17.2659ZM59.7515 15.3666C59.81 16.532 59.4834 17.6843 58.8219 18.6457C58.5363 19.0407 58.1582 19.3596 57.7207 19.5745C57.2832 19.7894 56.7996 19.8936 56.3124 19.8781C55.9042 19.8928 55.4978 19.8167 55.1225 19.6552C54.7473 19.4938 54.4126 19.2511 54.1425 18.9446V22.891C54.1425 23.0178 54.0398 23.1205 53.9131 23.1205H52.0058C51.9757 23.1205 51.9459 23.1145 51.918 23.103C51.8902 23.0915 51.8649 23.0746 51.8436 23.0533C51.8223 23.032 51.8054 23.0067 51.7939 22.9788C51.7823 22.951 51.7764 22.9212 51.7764 22.891V11.0845C51.7764 11.0543 51.7823 11.0245 51.7939 10.9967C51.8054 10.9688 51.8223 10.9435 51.8436 10.9222C51.8649 10.9009 51.8902 10.884 51.918 10.8725C51.9459 10.861 51.9757 10.855 52.0058 10.855H53.7619C53.8799 10.855 53.9791 10.9451 53.9904 11.0626L54.0525 11.7225C54.3218 11.3894 54.6644 11.123 55.0536 10.9441C55.4428 10.7652 55.8681 10.6786 56.2962 10.6911C56.7875 10.669 57.2766 10.768 57.7206 10.9793C58.1646 11.1906 58.5498 11.5079 58.8424 11.903C59.4486 12.7107 59.7515 13.8243 59.7515 15.2438V15.3666ZM57.3849 15.1944C57.424 14.5297 57.272 13.8678 56.947 13.2867C56.8133 13.0721 56.6249 12.8968 56.4013 12.7789C56.1776 12.6609 55.9265 12.6045 55.6739 12.6154C55.3626 12.5862 55.0497 12.652 54.7763 12.8039C54.503 12.9558 54.2821 13.1869 54.1425 13.4668V17.0942C54.2823 17.379 54.5048 17.615 54.7809 17.7713C55.0571 17.9275 55.3739 17.9968 55.6901 17.97C56.8202 17.97 57.3849 17.0443 57.3849 15.1944ZM69.1215 15.3666C69.1215 16.7856 68.8182 17.8926 68.2125 18.6867C67.9178 19.0763 67.5327 19.3884 67.0905 19.5959C66.6483 19.8035 66.1622 19.9003 65.6742 19.8781C65.2301 19.8921 64.7892 19.7989 64.3887 19.6065C63.9883 19.414 63.6401 19.1279 63.3736 18.7724L63.2901 19.5105C63.2838 19.5666 63.257 19.6184 63.215 19.6559C63.1729 19.6935 63.1184 19.7142 63.062 19.7142H61.3676C61.3068 19.7142 61.2484 19.69 61.2054 19.647C61.1624 19.604 61.1382 19.5456 61.1382 19.4848V7.36664C61.1382 7.23994 61.2409 7.13724 61.3676 7.13724H63.2749C63.305 7.13724 63.3348 7.14314 63.3627 7.15464C63.3905 7.16624 63.4158 7.18314 63.4371 7.20444C63.4584 7.22574 63.4753 7.25104 63.4868 7.27884C63.4984 7.30664 63.5043 7.33654 63.5043 7.36664V11.6487C63.7672 11.3363 64.0978 11.0877 64.4709 10.9217C64.844 10.7558 65.2499 10.6768 65.658 10.6907C66.1464 10.6699 66.6325 10.7674 67.0751 10.9748C67.5177 11.1822 67.9038 11.4935 68.2003 11.8821C68.8143 12.6762 69.1215 13.7937 69.1215 15.235V15.3666ZM66.755 15.1944C66.806 14.5133 66.6581 13.832 66.3293 13.2334C66.1886 13.0301 65.9979 12.8665 65.7756 12.7582C65.5534 12.65 65.3069 12.6008 65.0601 12.6154C64.7368 12.5889 64.4133 12.6637 64.1344 12.8295C63.8556 12.9953 63.6354 13.2439 63.5043 13.5406V17.0369C63.6376 17.336 63.8603 17.5864 64.1419 17.7535C64.4235 17.9206 64.7499 17.9963 65.0763 17.97C65.7869 18.0106 66.4228 17.5334 66.5832 16.8403C66.7187 16.3027 66.7764 15.7485 66.755 15.1944ZM74.539 19.8781C73.957 19.9014 73.3763 19.8076 72.8312 19.6022C72.2862 19.3968 71.7879 19.084 71.3661 18.6824C70.953 18.2649 70.6312 17.7663 70.4205 17.218C70.2099 16.6698 70.1152 16.0839 70.1425 15.4972V15.2682C70.1282 14.4436 70.3046 13.6268 70.6581 12.8816C70.9755 12.2094 71.4839 11.6455 72.1196 11.2602C72.7723 10.8749 73.519 10.6779 74.2768 10.6911C74.8084 10.6637 75.3394 10.752 75.8335 10.9499C76.3276 11.1478 76.7729 11.4507 77.1385 11.8375C77.8347 12.6019 78.1831 13.6853 78.1831 15.0882V15.8246C78.1831 15.8547 78.1771 15.8846 78.1655 15.9125C78.154 15.9403 78.1371 15.9657 78.1157 15.987C78.0944 16.0083 78.069 16.0252 78.0411 16.0367C78.0132 16.0482 77.9834 16.0541 77.9532 16.054H72.5413C72.5947 16.5868 72.8407 17.0818 73.2332 17.446C73.635 17.8019 74.1581 17.9896 74.6945 17.9704C75.0623 17.9859 75.4293 17.9222 75.7704 17.7837C76.1115 17.6452 76.4189 17.4351 76.6718 17.1676C76.6941 17.145 76.7209 17.1273 76.7504 17.1156C76.7799 17.1039 76.8115 17.0984 76.8432 17.0995C76.8749 17.1005 76.9061 17.1081 76.9347 17.1218C76.9633 17.1355 76.9888 17.155 77.0096 17.179L77.868 18.1396C77.9423 18.2217 77.9474 18.345 77.8801 18.4333C77.5246 18.874 77.0701 19.2244 76.5533 19.4559C75.9211 19.7428 75.2333 19.887 74.539 19.8781ZM74.269 12.5988C74.0554 12.591 73.8426 12.6297 73.6454 12.712C73.4481 12.7944 73.271 12.9186 73.1264 13.0761C72.8047 13.4633 72.6092 13.9397 72.5658 14.4414H75.8571V14.2521C75.8752 13.8057 75.7229 13.3691 75.4314 13.0306C75.2786 12.8813 75.0963 12.7657 74.896 12.6913C74.6958 12.6169 74.4822 12.5854 74.269 12.5988ZM84.4939 12.8186C84.4935 12.8504 84.4865 12.8817 84.4734 12.9106C84.4603 12.9395 84.4415 12.9654 84.4178 12.9865C84.3942 13.0077 84.3664 13.0237 84.3362 13.0336C84.306 13.0434 84.2741 13.0469 84.2426 13.0437C84.042 13.0214 83.8404 13.0096 83.6385 13.0083C82.743 13.0083 82.1566 13.3112 81.8782 13.9173V19.4848C81.8782 19.5456 81.854 19.604 81.811 19.647C81.768 19.69 81.7096 19.7142 81.6488 19.7142H79.7415C79.6807 19.7142 79.6223 19.69 79.5793 19.647C79.5363 19.604 79.5121 19.5456 79.5121 19.4848V11.0845C79.5121 11.0236 79.5363 10.9653 79.5793 10.9222C79.6223 10.8792 79.6807 10.855 79.7415 10.855H81.5316C81.6527 10.855 81.7532 10.949 81.7606 11.07L81.813 11.9109C81.9949 11.5435 82.2763 11.2344 82.625 11.0188C82.9737 10.8032 83.3759 10.6897 83.7859 10.6911C83.9755 10.6903 84.1648 10.7104 84.3496 10.7515C84.3995 10.7639 84.4435 10.793 84.4744 10.8339C84.5055 10.8749 84.5216 10.9252 84.5201 10.9765L84.4939 12.8186ZM90.4743 12.8186C90.474 12.8504 90.4669 12.8817 90.4538 12.9106C90.4407 12.9395 90.4219 12.9654 90.3982 12.9865C90.3746 13.0077 90.3468 13.0237 90.3166 13.0336C90.2865 13.0434 90.2546 13.0469 90.223 13.0437C90.0224 13.0214 89.8208 13.0096 89.6189 13.0083C88.7239 13.0083 88.1375 13.3112 87.8586 13.9173V19.4848C87.8586 19.5456 87.8345 19.604 87.7914 19.647C87.7484 19.69 87.69 19.7142 87.6292 19.7142H85.7219C85.6611 19.7142 85.6027 19.69 85.5597 19.647C85.5167 19.604 85.4925 19.5456 85.4925 19.4848V11.0845C85.4925 11.0236 85.5167 10.9653 85.5597 10.9222C85.6027 10.8792 85.6611 10.855 85.7219 10.855H87.512C87.6331 10.855 87.7336 10.949 87.7411 11.07L87.7934 11.9109C87.9753 11.5435 88.2567 11.2345 88.6054 11.0189C88.9541 10.8033 89.3563 10.6897 89.7663 10.6911C89.956 10.6903 90.1452 10.7104 90.3301 10.7515C90.3799 10.7639 90.424 10.793 90.455 10.8339C90.486 10.8749 90.502 10.9252 90.5005 10.9765L90.4743 12.8186ZM95.2454 16.3652L96.834 11.0189C96.8482 10.9715 96.8773 10.9299 96.917 10.9004C96.9567 10.8709 97.0052 10.8549 97.0542 10.855H99.0982C99.1352 10.855 99.1712 10.8638 99.2032 10.8806C99.2362 10.8973 99.2642 10.9216 99.2852 10.9514C99.3062 10.9813 99.3201 11.0157 99.3251 11.0519C99.3301 11.0881 99.3272 11.1251 99.3152 11.1596L95.8595 21.0896L95.6628 21.5563C95.4618 22.0829 95.1011 22.5333 94.6313 22.8446C94.1614 23.1559 93.606 23.3124 93.0427 23.2922C92.7476 23.2913 92.4537 23.2546 92.1674 23.183C92.1178 23.17 92.074 23.1409 92.0427 23.1004C92.0115 23.0598 91.9946 23.01 91.9947 22.9588V21.5821C91.9948 21.5512 92.001 21.5207 92.0132 21.4923C92.0253 21.4639 92.043 21.4382 92.0653 21.4168C92.0876 21.3954 92.114 21.3788 92.1428 21.3678C92.1717 21.3569 92.2025 21.3519 92.2334 21.3531L92.4685 21.3618C92.7801 21.3842 93.0908 21.3091 93.3578 21.1468C93.6004 20.9829 93.7831 20.7443 93.8779 20.4672L94.1562 19.7387L91.1596 11.1596C91.1476 11.1251 91.144 11.0881 91.1492 11.0519C91.1544 11.0157 91.1682 10.9813 91.1894 10.9514C91.2106 10.9216 91.2387 10.8973 91.2712 10.8806C91.3037 10.8638 91.3397 10.855 91.3763 10.855H93.4286C93.5299 10.855 93.6196 10.9215 93.6485 11.0185L95.2454 16.3652ZM107.142 15.5138V19.4848C107.142 19.6115 107.04 19.7142 106.913 19.7142H104.916C104.885 19.7143 104.855 19.7084 104.828 19.6969C104.8 19.6854 104.774 19.6685 104.753 19.6472C104.732 19.6258 104.715 19.6005 104.703 19.5727C104.692 19.5448 104.686 19.5149 104.686 19.4848V8.02224C104.686 7.96134 104.71 7.90294 104.753 7.85994C104.796 7.81694 104.854 7.79274 104.915 7.79274H109.337C110.151 7.77554 110.959 7.94354 111.699 8.28394C112.348 8.58424 112.893 9.06994 113.266 9.67984C113.637 10.3019 113.827 11.015 113.815 11.7392C113.839 12.2608 113.744 12.7809 113.536 13.2599C113.328 13.7389 113.013 14.1639 112.616 14.5025C111.816 15.1769 110.709 15.5138 109.296 15.5138H107.142ZM107.142 13.524H109.336C109.871 13.5614 110.401 13.398 110.823 13.0656C110.998 12.8976 111.135 12.6934 111.223 12.467C111.312 12.2407 111.35 11.9978 111.334 11.7553C111.346 11.497 111.306 11.2389 111.217 10.996C111.129 10.753 110.993 10.5299 110.819 10.3393C110.632 10.1541 110.409 10.0091 110.164 9.91334C109.919 9.81754 109.657 9.77284 109.394 9.78214H107.142V13.524ZM114.976 8.56234C114.971 8.39954 115 8.23744 115.061 8.08644C115.123 7.93554 115.215 7.79914 115.332 7.68614C115.606 7.46364 115.948 7.34214 116.301 7.34214C116.653 7.34214 116.995 7.46364 117.269 7.68614C117.5 7.92084 117.63 8.23744 117.629 8.56724C117.628 8.89694 117.497 9.21294 117.264 9.44654C116.993 9.66874 116.653 9.79024 116.303 9.79024C115.952 9.79024 115.612 9.66874 115.341 9.44654C115.221 9.33344 115.126 9.19604 115.063 9.04364C115 8.89124 114.971 8.72714 114.976 8.56234ZM117.261 19.7142H115.345C115.284 19.7142 115.226 19.69 115.183 19.647C115.14 19.604 115.116 19.5456 115.116 19.4848V11.0845C115.116 11.0236 115.14 10.9653 115.183 10.9222C115.226 10.8792 115.284 10.855 115.345 10.855H117.261C117.321 10.855 117.38 10.8792 117.423 10.9222C117.466 10.9653 117.49 11.0236 117.49 11.0845V19.4843C117.49 19.5145 117.484 19.5444 117.473 19.5723C117.461 19.6001 117.444 19.6255 117.423 19.6468C117.402 19.6682 117.376 19.6851 117.348 19.6967C117.321 19.7083 117.291 19.7142 117.261 19.7142ZM19.6704 15.1891C19.64 14.6702 19.504 14.1629 19.2707 13.6983C19.0375 13.2338 18.7119 12.8217 18.3138 12.4874C18.191 12.0401 17.9767 11.6233 17.6845 11.2632C17.5889 10.2785 17.1086 9.37124 16.348 8.73854C16.4721 8.63184 16.577 8.50424 16.6574 8.36174C17.0481 8.19924 17.3951 7.94734 17.6707 7.62624C17.9462 7.30514 18.1425 6.92394 18.2439 6.51314C18.6901 6.09784 18.9639 5.53004 19.0109 4.92224C19.0244 4.67624 18.9779 4.43054 18.8754 4.20644C19.0607 4.02934 19.1923 3.80354 19.2549 3.55494C19.3176 3.30634 19.3087 3.04514 19.2294 2.80134C18.9645 2.03394 18.0363 1.53564 16.789 1.48284C16.4109 1.16174 15.9254 0.995436 15.4298 1.01734C15.1826 1.01854 14.9365 1.04894 14.6964 1.10784C14.4699 1.00614 14.2236 0.956336 13.9753 0.961836C13.4922 0.967036 13.0185 1.09614 12.5995 1.33684C12.5445 1.32954 12.489 1.32594 12.4335 1.32594C11.8572 1.38334 11.314 1.62174 10.8815 2.00684C10.5752 2.25474 10.3012 2.54014 10.066 2.85644C9.83066 2.54014 9.55656 2.25474 9.25006 2.00684C8.81766 1.62184 8.27456 1.38354 7.69856 1.32594C7.64306 1.32594 7.58756 1.32944 7.53246 1.33684C7.11356 1.09614 6.63982 0.967036 6.15669 0.961836C5.90846 0.956336 5.66212 1.00614 5.43558 1.10784C5.19526 1.04884 4.94881 1.01854 4.70136 1.01734C4.20595 0.995536 3.72061 1.16184 3.34261 1.48284C2.09531 1.53524 1.16704 2.03394 0.901756 2.80174C0.822636 3.04554 0.813966 3.30674 0.876756 3.55524C0.939536 3.80374 1.07122 4.02944 1.25664 4.20644C1.15411 4.43064 1.10761 4.67654 1.12115 4.92274C1.16813 5.53044 1.44191 6.09834 1.88815 6.51354C1.98955 6.92424 2.18591 7.30544 2.46144 7.62644C2.73698 7.94744 3.084 8.19934 3.4746 8.36174C3.55458 8.50424 3.65946 8.63184 3.78358 8.73854C3.02311 9.37124 2.54301 10.2785 2.44756 11.2632C2.15529 11.6233 1.94098 12.0401 1.81823 12.4874C1.42016 12.8217 1.09453 13.2338 0.861266 13.6983C0.628006 14.1629 0.492036 14.6702 0.461656 15.1891C0.392286 15.7004 0.431136 16.2205 0.575696 16.7157C0.720246 17.211 0.967286 17.6703 1.30078 18.064C1.41441 18.6365 1.65041 19.178 1.99173 19.6513C2.06798 20.5466 2.43407 21.3926 3.0345 22.0611C3.63492 22.7511 4.44107 23.23 5.33419 23.4273C5.86689 23.9233 6.4917 24.3101 7.17326 24.5658C7.96136 25.2928 8.99426 25.6965 10.0665 25.6965C11.1387 25.6965 12.1716 25.2928 12.9597 24.5658C13.641 24.3101 14.2655 23.9233 14.7983 23.4273C15.6914 23.23 16.4975 22.7511 17.098 22.0611C17.6984 21.3926 18.0645 20.5466 18.1407 19.6513C18.4824 19.1779 18.7182 18.6365 18.8321 18.064C19.1655 17.6703 19.4125 17.2109 19.557 16.7157C19.7014 16.2204 19.7398 15.7003 19.6704 15.1891Z" fill="white"/>
<path d="M12.397 2.62129C12.4125 2.61679 12.4288 2.61619 12.4446 2.61959C12.4603 2.62289 12.475 2.63009 12.4874 2.64039C12.4997 2.65079 12.5094 2.66399 12.5154 2.67899C12.5214 2.69389 12.5237 2.71009 12.522 2.72609C12.4905 3.01979 12.6684 2.98269 12.7108 2.93069C12.8636 2.70639 13.0729 2.52649 13.3175 2.40909C13.5622 2.29159 13.8335 2.24089 14.104 2.26199C14.1216 2.26379 14.1383 2.27019 14.1524 2.28069C14.1666 2.29119 14.1777 2.30519 14.1846 2.32139C14.1915 2.33759 14.1939 2.35539 14.1915 2.37289C14.1892 2.39029 14.1822 2.40679 14.1713 2.42069C13.9965 2.67979 14.1845 2.72919 14.2544 2.68289C14.9672 2.23709 15.6472 2.23579 15.9086 2.42329C15.9203 2.43209 15.9298 2.44339 15.9366 2.45629C15.9434 2.46929 15.9472 2.48359 15.9477 2.49819C15.9483 2.51279 15.9455 2.52729 15.9397 2.54079C15.934 2.55419 15.9252 2.56619 15.9143 2.57579C15.6503 2.80039 15.798 2.91229 15.8915 2.87819C16.2359 2.77279 16.5987 2.74199 16.9559 2.78769C17.3131 2.83339 17.6564 2.95469 17.9631 3.14349C17.974 3.15259 17.9828 3.16399 17.9889 3.17679C17.9951 3.18969 17.9984 3.20359 17.9986 3.21789C17.9989 3.23209 17.996 3.24619 17.9904 3.25919C17.9847 3.27229 17.9763 3.28389 17.9657 3.29339C17.7583 3.45199 17.5847 3.65029 17.4548 3.87679C17.325 4.10319 17.2417 4.35329 17.2096 4.61239C17.19 4.78549 17.478 4.74919 17.599 4.71769C17.6132 4.71409 17.6281 4.71379 17.6425 4.71659C17.6568 4.71949 17.6704 4.72559 17.6821 4.73439C17.6939 4.74319 17.7035 4.75449 17.7103 4.76749C17.7171 4.78049 17.7209 4.79479 17.7214 4.80949C17.7328 5.22639 17.3386 5.68439 16.752 6.07599C16.6734 6.12849 16.6847 6.25429 16.8639 6.25959C16.881 6.25959 16.8977 6.26419 16.9124 6.27279C16.9272 6.28129 16.9394 6.29359 16.9479 6.30839C16.9563 6.32319 16.9607 6.33999 16.9607 6.35709C16.9606 6.37409 16.956 6.39079 16.9474 6.40559C16.7385 6.79359 16.4536 7.15899 15.4855 7.40989C15.4654 7.41499 15.4474 7.42639 15.4341 7.44229C15.4208 7.45819 15.4128 7.47789 15.4112 7.49859C15.4097 7.51929 15.4147 7.53999 15.4255 7.55769C15.4363 7.57539 15.4524 7.58929 15.4715 7.59739C15.4887 7.60209 15.5042 7.61149 15.5162 7.62469C15.5283 7.63779 15.5364 7.65399 15.5396 7.67149C15.5428 7.68909 15.5411 7.70709 15.5345 7.72369C15.528 7.74019 15.5169 7.75459 15.5026 7.76519C14.538 8.59379 12.0937 8.26689 11.7834 6.87229C11.7804 6.85859 11.7804 6.84439 11.7835 6.83059C11.7865 6.81689 11.7924 6.80399 11.8009 6.79279C12.8385 5.40699 14.2425 4.33869 15.8548 3.70819C15.8732 3.70189 15.8885 3.68899 15.8977 3.67199C15.9069 3.65489 15.9094 3.63499 15.9046 3.61629C15.8998 3.59749 15.8881 3.58119 15.8718 3.57069C15.8555 3.56019 15.8359 3.55619 15.8168 3.55959C14.9431 3.68659 14.1037 3.98679 13.3476 4.44269C12.5916 4.89849 11.9342 5.50079 11.4141 6.21409C11.3999 6.23319 11.3794 6.24659 11.3562 6.25179C11.333 6.25699 11.3087 6.25369 11.2878 6.24249C9.721 5.43359 11.0081 3.04469 12.397 2.62129ZM3.1838 6.40509C3.1752 6.39039 3.17063 6.37369 3.17055 6.35659C3.17047 6.33959 3.17488 6.32279 3.18334 6.30799C3.19181 6.29319 3.20402 6.28089 3.21876 6.27229C3.23349 6.26369 3.25022 6.25919 3.26727 6.25909C3.44646 6.25479 3.45782 6.12849 3.37915 6.07599C2.79265 5.68439 2.39932 5.22639 2.40981 4.80989C2.41034 4.79529 2.41414 4.78089 2.42093 4.76789C2.42773 4.75489 2.43734 4.74359 2.44907 4.73479C2.46081 4.72599 2.47436 4.71999 2.48874 4.71709C2.50312 4.71419 2.51796 4.71459 2.53218 4.71819C2.65367 4.74959 2.94124 4.78589 2.92158 4.61279C2.88949 4.35379 2.80611 4.10379 2.67629 3.87739C2.54647 3.65099 2.37282 3.45279 2.1655 3.29429C2.15485 3.28479 2.14637 3.27309 2.14065 3.25999C2.13492 3.24689 2.13209 3.23279 2.13234 3.21849C2.13259 3.20419 2.13591 3.19019 2.14209 3.17729C2.14827 3.16449 2.15715 3.15309 2.16812 3.14389C2.47478 2.95519 2.81813 2.83389 3.17532 2.78809C3.53251 2.74239 3.89535 2.77329 4.23968 2.87869C4.33321 2.91319 4.48092 2.80089 4.21695 2.57619C4.2059 2.56659 4.19716 2.55459 4.19136 2.54109C4.18556 2.52759 4.18285 2.51299 4.18344 2.49829C4.18403 2.48359 4.18789 2.46929 4.19475 2.45629C4.20161 2.44329 4.21128 2.43199 4.22307 2.42329C4.48398 2.23619 5.16401 2.23709 5.87726 2.68289C5.94675 2.72959 6.13467 2.68029 5.96029 2.42109C5.94941 2.40729 5.94244 2.39079 5.94008 2.37339C5.93773 2.35599 5.94009 2.33819 5.94692 2.32199C5.95375 2.30579 5.96479 2.29179 5.9789 2.28129C5.99302 2.27079 6.00968 2.26429 6.02716 2.26239C6.29774 2.24119 6.56912 2.29179 6.81385 2.40919C7.0586 2.52649 7.268 2.70639 7.4209 2.93069C7.4628 2.98309 7.6407 3.01979 7.6097 2.72569C7.608 2.70969 7.6104 2.69359 7.6164 2.67869C7.6225 2.66379 7.6321 2.65059 7.6444 2.64029C7.6568 2.62999 7.6715 2.62289 7.6872 2.61949C7.7029 2.61619 7.7192 2.61679 7.7347 2.62129C9.1236 3.04519 10.4102 5.43359 8.8434 6.24249C8.8225 6.25369 8.7982 6.25699 8.775 6.25179C8.7518 6.24659 8.7313 6.23319 8.7171 6.21409C8.197 5.50089 7.5397 4.89869 6.78373 4.44299C6.02777 3.98719 5.18839 3.68699 4.31485 3.55999C4.29568 3.55639 4.27586 3.56019 4.25939 3.57069C4.24293 3.58109 4.23105 3.59739 4.22616 3.61629C4.22127 3.63519 4.22374 3.65519 4.23307 3.67239C4.24239 3.68949 4.25788 3.70249 4.27639 3.70859C5.88861 4.33899 7.2927 5.40719 8.3303 6.79279C8.3478 6.81549 8.3539 6.84479 8.3478 6.87269C8.0375 8.26689 5.59318 8.59379 4.62864 7.76519C4.6143 7.75459 4.60322 7.74019 4.59666 7.72369C4.59011 7.70709 4.58835 7.68909 4.59159 7.67149C4.59483 7.65399 4.60293 7.63779 4.61497 7.62469C4.62701 7.61149 4.6425 7.60209 4.65967 7.59739C4.6788 7.58929 4.69493 7.57549 4.70579 7.55779C4.71664 7.54009 4.72167 7.51939 4.72018 7.49869C4.71868 7.47799 4.71073 7.45829 4.69745 7.44239C4.68416 7.42649 4.66621 7.41509 4.64612 7.40989C3.67765 7.15899 3.39314 6.79319 3.1838 6.40509Z" fill="#46AF4B"/>
<path d="M16.2396 10.6687C16.6417 11.7377 16.3283 12.2517 15.3751 11.7076C14.6062 11.2821 13.9266 10.7123 13.3735 10.0293C12.655 9.17615 13.1218 8.79635 14.2528 9.00135C14.6861 9.11635 15.0887 9.32535 15.4321 9.61355C15.7755 9.90165 16.0512 10.262 16.2396 10.6687ZM11.9641 9.46595C13.3276 10.5992 11.7657 11.4012 10.066 11.4012C8.36588 11.4012 6.80439 10.5992 8.16748 9.46595C8.70568 9.03355 9.37538 8.79785 10.0658 8.79785C10.7562 8.79785 11.4259 9.03355 11.9641 9.46595ZM3.89242 10.6687C4.08081 10.262 4.35644 9.90175 4.69973 9.61365C5.04303 9.32545 5.44556 9.11645 5.87875 9.00135C7.00978 8.79595 7.47658 9.17615 6.7585 10.0293C6.20544 10.7123 5.52581 11.2821 4.75687 11.7076C3.80326 12.2517 3.49034 11.7377 3.89242 10.6687ZM1.9205 16.6085C1.76414 16.1858 1.70334 15.7337 1.74249 15.2847C1.78163 14.8357 1.91974 14.4009 2.14689 14.0116C2.65079 13.155 3.15776 13.1887 3.35879 13.9146C3.61446 14.9154 3.52181 15.9739 3.09657 16.9157C2.72334 17.6569 2.25702 17.4065 1.9205 16.6085ZM5.55228 22.1588C4.93623 22.0032 4.38456 21.6582 3.97509 21.1723C3.56562 20.6865 3.31902 20.0845 3.27007 19.451C3.45931 15.0518 9.79938 22.9078 5.55228 22.1588ZM5.68121 16.6793C4.6179 16.0657 4.33645 14.5623 5.05275 13.322C5.76905 12.0812 7.21168 11.5738 8.27458 12.1874C9.33788 12.801 9.61938 14.3044 8.90308 15.5447C8.18678 16.7855 6.74408 17.2929 5.68121 16.6793ZM11.84 23.8375C11.3232 24.2096 10.7026 24.4097 10.0658 24.4097C9.42898 24.4097 8.80838 24.2096 8.29168 23.8375C7.23838 23.1103 8.29818 22.2729 10.066 22.2729C11.8338 22.2729 12.8932 23.1103 11.84 23.8375Z" fill="#CD2355"/>
<path d="M10.066 21.1704C11.4291 21.1704 12.534 20.2234 12.534 19.0552C12.534 17.8869 11.4291 16.9399 10.066 16.9399C8.70304 16.9399 7.59814 17.8869 7.59814 19.0552C7.59814 20.2234 8.70304 21.1704 10.066 21.1704Z" fill="#CD2355"/>
<path d="M11.2283 15.5442C10.512 14.3039 10.7934 12.8005 11.8567 12.1869C12.92 11.5729 14.3627 12.0807 15.0786 13.3215C15.7953 14.5618 15.5134 16.0652 14.4501 16.6788C13.3872 17.2928 11.9446 16.785 11.2283 15.5442ZM14.5795 22.1584C10.3315 22.9074 16.6724 15.0513 16.8608 19.4505C16.8119 20.0839 16.5654 20.6861 16.156 21.1719C15.7466 21.6578 15.1955 22.0028 14.5795 22.1584ZM18.2112 16.608C17.8747 17.406 17.408 17.6564 17.0352 16.9152C16.6097 15.9736 16.5173 14.9152 16.773 13.9141C16.974 13.1886 17.481 13.1541 17.9844 14.0111C18.2116 14.4004 18.3497 14.8352 18.3888 15.2842C18.428 15.7332 18.3676 16.1853 18.2112 16.608Z" fill="#CD2355"/>
</g>
</svg>
