<svg width="125" height="50" viewBox="0 0 125 50" fill="none" xmlns="http://www.w3.org/2000/svg">
<g clip-path="url(#clip0_22_3)">
<path d="M10.663 14C9.38898 14 8.35593 15.0331 8.35593 16.3071V35.2763H18.5775C17.0959 33.8536 16.1743 31.8528 16.1743 29.6368C16.1743 25.3187 19.6746 21.8184 23.9927 21.8184C26.2088 21.8184 28.2095 22.7399 29.6322 24.2216V16.3071C29.6322 15.0331 28.5991 14 27.3251 14H10.663Z" fill="#254632"/>
<path d="M31.0421 29.5906C31.0421 33.4844 27.8865 36.64 23.9927 36.64C20.0989 36.64 16.9433 33.4844 16.9433 29.5906C16.9433 25.6968 20.0989 22.5413 23.9927 22.5413C27.8865 22.5413 31.0421 25.6968 31.0421 29.5906Z" fill="#254632"/>
<path d="M55.6213 14.6409H52.8259L46.0713 30.8826L41.7404 25.0816C44.9473 24.2972 46.0841 22.5541 46.0841 20.0189V19.2422C46.0841 16.7083 42.8632 14.6409 40.328 14.6409H33.6978V33.2025L36.3035 33.1512V25.5712L38.9566 25.6225L44.5243 33.4601H48.031L50.0664 28.3935H58.4L60.2508 33.2025H63.241L55.6213 14.6409ZM36.3035 23.6102V16.9159H39.9871C41.8353 16.9159 43.3336 18.4142 43.3336 20.2624C43.3336 21.1878 42.9593 22.0235 42.3531 22.6297C41.7481 23.236 40.9112 23.6102 39.9871 23.6102H36.3035ZM50.9828 26.1121L54.3216 17.7977L57.522 26.1121H50.9828Z" fill="white"/>
<path d="M93.2546 14.6409H90.4593L82.4704 33.4601H85.6644L87.6997 28.3935H96.0334L97.8842 33.2025H100.874L93.2546 14.6409ZM88.6162 26.1121L91.955 17.7977L95.1554 26.1121H88.6162Z" fill="white"/>
<path d="M58.2693 14.6409H61.139L66.485 23.5782L72.1258 14.5114H87.1114V16.7621H80.9067V33.2486H78.2818V16.7134H73.4011L67.7847 25.6353V33.3473H65.038V25.6353L58.2693 14.6409Z" fill="white"/>
<path d="M115.483 16.8749C113.723 15.2753 111.779 14.5435 109.214 14.5435C103.742 14.5435 99.5068 18.5783 99.5068 24.0498C99.5068 29.5214 103.497 33.4601 108.97 33.4601C111.614 33.4601 113.654 32.1707 115.432 30.4827L113.705 29.078C112.457 30.2315 110.646 31.1133 108.812 31.1133C104.941 31.1133 102.242 27.8001 102.242 23.9294C102.242 20.0586 105.378 16.9236 109.249 16.9236C110.942 16.9236 112.494 17.5234 113.705 18.5231L115.483 16.8762V16.8749Z" fill="white"/>
</g>
<defs>
<clipPath id="clip0_22_3">
<rect width="107.718" height="22.64" fill="white" transform="translate(8.35593 14)"/>
</clipPath>
</defs>
</svg>
