<svg width="156" height="39" viewBox="0 0 156 39" fill="none" xmlns="http://www.w3.org/2000/svg">
<path d="M9.78339 23.1619H14.2098V22.0352H8.81764L5.75938 25.5763V30.0027H6.88611V26.2201H7.04707L9.46147 23.3228L9.78339 23.1619Z" fill="#19519D"/>
<path d="M11.3126 25.4153H14.0489V24.2886H10.2663L7.69096 27.1859V31.2904H8.97864V27.9907L11.1516 25.5763L11.3126 25.4153Z" fill="#19519D"/>
<path d="M12.2783 27.8296H14.2098V26.7029H11.4735L9.78343 28.6344V32.7389H10.6687V29.2782L12.1174 27.9906L12.2783 27.8296Z" fill="#19519D"/>
<path d="M12.6002 28.7957L11.9564 29.6005L11.7954 29.8419V34.1878H12.9221V30.6467L13.0831 30.4857L13.405 30.0029H14.2098V28.7957H12.7612H12.6002Z" fill="#19519D"/>
<path d="M42.9413 25.5763L39.8831 22.0352H34.6519V23.1619H39.1588L39.3197 23.3228L41.8146 26.2201V30.0027H43.1023V25.7372L42.9413 25.5763Z" fill="#19519D"/>
<path d="M38.5149 24.2886H34.6519V25.4153H37.3882L37.7101 25.5763L39.7221 27.9907L39.8831 28.1516V31.2904H41.0098V27.5078V27.1859L38.5149 24.2886Z" fill="#19519D"/>
<path d="M37.3882 26.7029H34.6519V27.8296H36.5834L36.7443 27.9906L38.032 29.2782V32.7389H39.1588V28.7954V28.6344L37.3882 26.7029Z" fill="#19519D"/>
<path d="M36.2615 28.7957H34.6519V30.0029H35.2957L35.7786 30.4857V34.1878H36.9053V29.8419V29.6005L36.2615 28.7957Z" fill="#19519D"/>
<path d="M21.7888 12.7168C20.9152 12.7168 20.2029 13.4248 20.2029 14.2984C20.2029 15.0296 20.7022 15.6477 21.3764 15.829L21.3721 15.8375V19.6215H28.2938V15.8375L28.2895 15.8077C28.9271 15.6034 29.3907 15.0036 29.3907 14.2984C29.3907 13.4248 28.6827 12.7168 27.8091 12.7168C26.9355 12.7168 26.2232 13.4248 26.2232 14.2984C26.2232 15.0114 26.6971 15.6185 27.3457 15.8162L27.3287 15.8375V18.7371H22.1757V15.8375L22.1714 15.8333C22.8593 15.6613 23.3704 15.0393 23.3704 14.2984C23.3704 13.4248 22.6623 12.7168 21.7888 12.7168Z" fill="#19519D"/>
<path d="M35.2957 20.9083V18.5744L35.4566 18.2525L38.9977 14.8723V10.5264H40.5269V4.81226H38.6758V6.58282H37.5491V8.35339H36.5833V6.58282H35.2957V4.81226H33.3641V10.5264H34.9737V13.4236L31.5936 16.8038L31.4326 16.9648L31.2716 17.2867V21.0693H28.2939L27.811 21.2302L24.9137 24.4494V24.6104L24.7527 24.4494L21.8554 21.3912L21.6945 21.2302L21.5335 21.0693H18.2338V17.2867L18.0729 16.9648L17.9119 16.8038L14.5317 13.4236V10.5264H16.1414V4.81226H14.2098V6.58282H12.9221V8.35339H11.9564V6.58282H10.8297V4.81226H8.81765V10.5264H10.5882V14.8723L13.8879 18.2525L14.2098 18.5744V21.2302L14.3708 21.3912L15.0146 22.035V31.2903H16.6242V27.0248H17.9119V29.1173H19.0386V31.2903H22.1774V25.5762L24.5918 28.3125H24.9137L27.3281 25.5762V31.2903H33.686V29.6002H29.4206V24.1275H33.847V21.0693H35.2957V20.9083ZM19.0386 25.0933H16.6242V24.1275H19.0386V25.0933Z" fill="#19519D"/>
<path d="M57.6692 20.2645H57.3472V21.3912L57.5082 25.5762L57.6692 29.1173L55.2547 28.9564L52.6794 29.1173L52.8403 25.5762L53.0013 21.3912V17.6087L52.8403 13.5847L52.6794 9.88257L55.2547 10.0435H57.0253L59.5202 9.88257H61.4517L62.9004 10.0435L63.8661 10.3655C64.1344 10.5264 64.4027 10.6874 64.6709 10.8483C64.9929 11.0629 65.3148 11.2776 65.6367 11.4922C65.7977 11.8141 65.9586 12.136 66.1196 12.4579C66.2805 12.7799 66.4415 13.1018 66.6025 13.4237C66.6561 13.7993 66.7098 14.1748 66.7634 14.5504C66.7098 14.8723 66.6561 15.1943 66.6025 15.5162C66.5488 15.8381 66.4952 16.16 66.4415 16.4819C66.2805 16.6966 66.1196 16.9112 65.9586 17.1258C65.7977 17.3941 65.6367 17.6623 65.4757 17.9306C65.2611 18.0916 65.0465 18.2525 64.8319 18.4135C64.5636 18.6281 64.2954 18.8427 64.0271 19.0573L63.0613 19.3792L62.0956 19.6207L65.1538 24.4495L68.373 29.1173L65.7977 28.9564L63.0613 29.1173L57.6692 20.2645ZM57.5082 11.4922L57.3472 19.0573L57.9911 19.2183L58.9568 19.0573L59.6812 18.8964L60.486 18.5744L60.9688 18.0916L61.4517 17.6087L61.7736 16.9648L62.0956 16.16V14.0675L61.7736 13.2627L61.4517 12.6189L60.9688 12.136L60.325 11.8141L59.5202 11.6531L57.5082 11.4922Z" fill="#19519D"/>
<path d="M70.5459 19.5403V15.9992L70.385 12.9409L74.8919 13.1019L79.9621 12.9409V15.0334L74.409 14.7115L74.248 17.2868V19.7817L79.9621 19.6208L79.8012 20.5865L79.9621 21.5523L77.1453 21.3913H74.248V24.4496L74.409 27.3469H77.1453L79.9621 27.025V29.1174L75.6967 28.9565L71.6727 29.1174H70.385L70.5459 26.0592V19.5403Z" fill="#19519D"/>
<path d="M97.5874 29.1174L95.3339 28.9565L93.0805 29.1174L91.3099 24.2886H85.5958L84.63 26.703L83.8252 29.1174L82.6985 28.9565L81.4108 29.1174L84.63 22.0352L88.5736 12.9409H90.5051L94.0462 21.5523L95.9777 25.7373L97.5874 29.1174ZM90.827 22.84L89.7003 20.1037L88.5736 17.4478L87.3664 20.1037L86.2396 22.84H90.827Z" fill="#19519D"/>
<path d="M100.082 19.5403L99.9212 15.9992L99.7603 12.9409L101.853 13.1019L103.945 12.9409L103.784 15.9992V27.3469H106.682L109.498 27.025V29.1174L105.233 28.9565L101.209 29.1174H99.7603L99.9212 26.0592L100.082 22.679V19.5403Z" fill="#19519D"/>
<path d="M113.683 16.804V14.7115L111.591 14.8724L109.016 15.0334L109.177 14.0676L109.016 12.9409L115.615 13.1019L121.973 12.9409L121.812 14.0676L121.973 15.0334L119.559 14.8724L117.466 14.7115L117.305 16.804V22.679L117.466 26.0592L117.627 29.1174L115.615 28.9565L113.522 29.1174L113.683 26.0592V16.804Z" fill="#19519D"/>
<path d="M124.548 19.5403L124.387 15.9992L124.226 12.9409L128.653 13.1019L133.964 12.9409L133.803 13.9067L133.964 15.0334L128.331 14.7115L128.17 17.2868V19.7817L133.803 19.6208V21.5523L131.067 21.3913H128.17V24.4496V27.3469H131.067L133.964 27.025L133.803 28.1517L133.964 29.1174L129.618 28.9565L125.675 29.1174H124.226L124.387 26.0592L124.548 22.679V19.5403Z" fill="#19519D"/>
<path d="M140.644 21.7133L140.805 26.2202L140.966 29.1174L138.874 28.9565L136.781 29.1174L136.942 26.0592V15.9992L136.781 12.9409L138.874 13.1019L140.966 12.9409L140.805 14.2286V15.9992L140.644 20.4256L144.507 16.3211L147.002 12.9409L148.451 13.1019L150.06 12.9409L146.841 16.1601L143.542 19.6208L147.163 24.9325L150.382 29.1174L147.968 28.9565L145.795 29.1174L140.805 21.7133H140.644Z" fill="#19519D"/>
</svg>
