<svg width="225" height="48" viewBox="0 0 225 48" fill="none" xmlns="http://www.w3.org/2000/svg">
<path d="M201.704 0.311523H204.334L218.912 22.217V0.311523H221.618V26.6132H218.988L204.409 4.85795V26.6132H201.704V0.311523Z" fill="white"/>
<path d="M182.831 26.9136C181.102 26.9136 179.574 26.5253 178.247 25.7488C176.919 24.9722 175.88 23.8701 175.128 22.4423C174.402 21.0145 174.039 19.3612 174.039 17.4825V9.44175C174.039 7.56307 174.402 5.90982 175.128 4.48202C175.88 3.05421 176.919 1.95205 178.247 1.17553C179.574 0.399004 181.115 0.0107422 182.868 0.0107422H186.851C188.605 0.0107422 190.145 0.399004 191.473 1.17553C192.8 1.95205 193.827 3.05421 194.554 4.48202C195.305 5.90982 195.681 7.56307 195.681 9.44175V17.4825C195.681 19.3612 195.305 21.0145 194.554 22.4423C193.827 23.845 192.788 24.9472 191.435 25.7488C190.108 26.5253 188.58 26.9136 186.851 26.9136H182.831ZM186.776 24.4337C188.605 24.4337 190.083 23.7949 191.21 22.5174C192.337 21.2399 192.901 19.5616 192.901 17.4825V9.44175C192.901 7.36267 192.337 5.68438 191.21 4.40687C190.083 3.12936 188.605 2.49061 186.776 2.49061H182.944C181.115 2.49061 179.637 3.12936 178.51 4.40687C177.383 5.68438 176.819 7.36267 176.819 9.44175V17.4825C176.819 19.5616 177.37 21.2399 178.472 22.5174C179.599 23.7949 181.077 24.4337 182.906 24.4337H186.776Z" fill="white"/>
<path d="M149.748 0.311523H162.523C164.451 0.311523 165.992 0.862606 167.144 1.96477C168.322 3.04188 168.91 4.46969 168.91 6.24818V8.99106C168.91 10.3187 168.484 11.496 167.633 12.523C166.781 13.525 165.641 14.2389 164.213 14.6647V14.7023C164.965 15.1031 165.641 15.7418 166.242 16.6185C166.869 17.4953 167.345 18.4847 167.67 19.5869L169.737 26.6132H166.881L164.815 19.5869C164.464 18.3594 163.85 17.37 162.974 16.6185C162.122 15.8671 161.183 15.4913 160.155 15.4913H152.528V26.6132H149.748V0.311523ZM161.546 13.0115C162.923 13.0115 164.026 12.6482 164.852 11.9218C165.704 11.1703 166.13 10.1934 166.13 8.99106V6.09788C166.13 5.09592 165.792 4.29434 165.115 3.69316C164.439 3.09198 163.55 2.79139 162.447 2.79139H152.528V13.0115H161.546Z" fill="white"/>
<path d="M133.736 2.71624H125.395V0.311523H144.858V2.71624H136.517V26.6132H133.736V2.71624Z" fill="white"/>
<path d="M109.936 26.9136C108.258 26.9136 106.767 26.5128 105.465 25.7112C104.187 24.9096 103.185 23.7949 102.459 22.3671C101.757 20.9143 101.407 19.2485 101.407 17.3698V9.55447C101.407 7.67579 101.757 6.01002 102.459 4.55717C103.185 3.10431 104.2 1.98962 105.502 1.2131C106.83 0.411528 108.358 0.0107422 110.086 0.0107422H114.069C115.697 0.0107422 117.125 0.361431 118.353 1.06281C119.605 1.76418 120.569 2.75363 121.246 4.03113C121.947 5.30864 122.298 6.77402 122.298 8.42726H119.592C119.592 6.64877 119.079 5.22097 118.052 4.14385C117.05 3.04169 115.722 2.49061 114.069 2.49061H110.086C108.308 2.49061 106.88 3.14189 105.803 4.44444C104.726 5.72195 104.187 7.42529 104.187 9.55447V17.3698C104.187 19.499 104.713 21.2149 105.765 22.5174C106.817 23.7949 108.208 24.4337 109.936 24.4337H113.994C115.697 24.4337 117.062 23.8325 118.089 22.6301C119.142 21.4278 119.668 19.8497 119.668 17.8958H122.373C122.373 19.6743 122.022 21.2524 121.321 22.6301C120.619 23.9828 119.63 25.0349 118.353 25.7863C117.1 26.5378 115.647 26.9136 113.994 26.9136H109.936Z" fill="white"/>
<path d="M81.5395 26.6132C80.7629 26.6132 80.1618 26.4002 79.7359 25.9744C79.3101 25.5235 79.0972 24.9098 79.0972 24.1333V0.311523H96.7568V2.71624H81.8776V11.9594H95.6296V14.3641H81.8776V24.2084H96.7568V26.6132H81.5395Z" fill="white"/>
<path d="M53.9082 0.311523H66.6833C68.6121 0.311523 70.1526 0.862606 71.3049 1.96477C72.4822 3.04188 73.0708 4.46969 73.0708 6.24818V8.99106C73.0708 10.3187 72.645 11.496 71.7933 12.523C70.9416 13.525 69.8019 14.2389 68.3741 14.6647V14.7023C69.1256 15.1031 69.8019 15.7418 70.4031 16.6185C71.0293 17.4953 71.5052 18.4847 71.8309 19.5869L73.8974 26.6132H71.0418L68.9753 19.5869C68.6246 18.3594 68.0109 17.37 67.1342 16.6185C66.2825 15.8671 65.3432 15.4913 64.3161 15.4913H56.6887V26.6132H53.9082V0.311523ZM65.7064 13.0115C67.0841 13.0115 68.1862 12.6482 69.0129 11.9218C69.8645 11.1703 70.2904 10.1934 70.2904 8.99106V6.09788C70.2904 5.09592 69.9522 4.29434 69.2759 3.69316C68.5995 3.09198 67.7103 2.79139 66.6081 2.79139H56.6887V13.0115H65.7064Z" fill="white"/>
<path d="M214.505 32.7744H221.292C222.277 32.7744 223.049 33.0137 223.61 33.4921C224.184 33.9569 224.471 34.5858 224.471 35.3787C224.471 35.5701 224.45 35.782 224.409 36.0144L224.143 37.5114C224.006 38.277 223.678 38.9332 223.158 39.48C222.653 40.0132 221.942 40.3891 221.026 40.6078V40.6283C221.409 40.8471 221.723 41.1957 221.969 41.6742C222.215 42.139 222.372 42.679 222.441 43.2942L222.892 47.1289H221.333L220.882 43.2942C220.8 42.6243 220.561 42.0843 220.164 41.6742C219.768 41.264 219.29 41.059 218.729 41.059H214.566L213.5 47.1289H211.982L214.505 32.7744ZM219.734 39.7056C220.486 39.7056 221.128 39.5073 221.661 39.1109C222.195 38.7007 222.516 38.1676 222.625 37.5114L222.892 35.9324C222.905 35.8504 222.912 35.7342 222.912 35.5838C222.912 35.1326 222.762 34.7772 222.461 34.5175C222.16 34.2577 221.743 34.1278 221.21 34.1278H215.797L214.812 39.7056H219.734Z" fill="white"/>
<path d="M201.887 47.2929C200.588 47.2929 199.556 46.9306 198.79 46.2061C198.039 45.4678 197.663 44.4767 197.663 43.2326C197.663 42.9456 197.697 42.5833 197.765 42.1458L198.544 37.7574C198.818 36.1443 199.433 34.8866 200.39 33.9843C201.361 33.0683 202.57 32.6104 204.02 32.6104H206.193C207.519 32.6104 208.558 32.9726 209.31 33.6972C210.076 34.4217 210.459 35.3992 210.459 36.6296C210.459 36.944 210.424 37.32 210.356 37.7574L209.577 42.1458C209.29 43.7863 208.668 45.0577 207.711 45.96C206.754 46.8486 205.544 47.2929 204.081 47.2929H201.887ZM204.04 45.9395C205.079 45.9395 205.954 45.6045 206.665 44.9347C207.376 44.2648 207.841 43.3352 208.059 42.1458L208.839 37.7574C208.893 37.4704 208.921 37.1628 208.921 36.8347C208.921 35.9461 208.675 35.2488 208.182 34.743C207.69 34.2235 207.013 33.9638 206.152 33.9638H204.061C203.022 33.9638 202.147 34.2987 201.436 34.9686C200.739 35.6385 200.281 36.5681 200.062 37.7574L199.283 42.1458C199.228 42.4329 199.201 42.7405 199.201 43.0686C199.201 43.9572 199.44 44.6613 199.918 45.1807C200.41 45.6866 201.08 45.9395 201.928 45.9395H204.04Z" fill="white"/>
<path d="M191.513 34.0868H186.96L187.186 32.7744H197.808L197.583 34.0868H193.03L190.734 47.1289H189.216L191.513 34.0868Z" fill="white"/>
<path d="M176.411 47.2929C175.154 47.2929 174.162 46.9306 173.438 46.2061C172.713 45.4815 172.351 44.504 172.351 43.2737C172.351 42.8225 172.385 42.4261 172.454 42.0843L173.212 37.819C173.499 36.1785 174.121 34.9002 175.078 33.9843C176.035 33.0683 177.225 32.6104 178.647 32.6104H180.82C182.051 32.6104 183.021 32.9385 183.732 33.5947C184.443 34.2509 184.798 35.1326 184.798 36.24C184.798 36.5954 184.771 36.9167 184.716 37.2038H183.24C183.281 36.9304 183.301 36.6843 183.301 36.4655C183.301 35.7 183.076 35.0916 182.625 34.6405C182.187 34.1893 181.579 33.9638 180.8 33.9638H178.626C177.614 33.9638 176.767 34.3055 176.083 34.9891C175.4 35.659 174.949 36.6023 174.73 37.819L173.971 42.0843C173.916 42.3987 173.889 42.7268 173.889 43.0686C173.889 43.9572 174.115 44.6613 174.566 45.1807C175.017 45.6866 175.639 45.9395 176.432 45.9395H178.647C179.562 45.9395 180.362 45.6114 181.046 44.9552C181.743 44.299 182.187 43.4377 182.379 42.3714H183.855C183.677 43.342 183.342 44.2033 182.85 44.9552C182.358 45.6934 181.743 46.2676 181.005 46.6777C180.28 47.0878 179.487 47.2929 178.626 47.2929H176.411Z" fill="white"/>
<path d="M161.926 47.2929C160.709 47.2929 159.752 46.958 159.055 46.2881C158.358 45.6182 158.009 44.7159 158.009 43.5813C158.009 43.2258 158.037 42.8909 158.091 42.5765L159.814 32.7744H161.331L159.609 42.6175C159.554 43.0002 159.527 43.2668 159.527 43.4172C159.527 44.1965 159.739 44.8116 160.162 45.2628C160.6 45.7139 161.188 45.9395 161.926 45.9395H164.141C165.057 45.9395 165.822 45.6524 166.437 45.0782C167.053 44.4904 167.456 43.6701 167.647 42.6175L169.37 32.7744H170.887L169.165 42.5765C168.891 44.0802 168.317 45.2423 167.442 46.0625C166.581 46.8828 165.48 47.2929 164.141 47.2929H161.926Z" fill="white"/>
<path d="M144.478 47.1289C144.109 47.1289 143.829 47.04 143.638 46.8623C143.446 46.6846 143.351 46.4316 143.351 46.1035C143.351 45.9668 143.357 45.8643 143.371 45.7959L145.668 32.7744H151.615C152.954 32.7744 154.014 33.1162 154.793 33.7997C155.572 34.4833 155.962 35.3992 155.962 36.5476C155.962 36.8894 155.935 37.2038 155.88 37.4909L155.08 42.0023C154.479 45.42 152.572 47.1289 149.359 47.1289H144.478ZM149.359 45.7754C150.521 45.7754 151.457 45.461 152.168 44.8321C152.879 44.1896 153.344 43.2463 153.563 42.0023L154.342 37.4909C154.397 37.1081 154.424 36.8415 154.424 36.6911C154.424 35.8845 154.171 35.2557 153.665 34.8045C153.159 34.3534 152.449 34.1278 151.533 34.1278H146.939L144.889 45.7754H149.359Z" fill="white"/>
<path d="M131.1 32.7744H132.453L138.4 44.7501L140.492 32.7744H141.968L139.446 47.1289H138.093L132.146 35.2352L130.054 47.1289H128.578L131.1 32.7744Z" fill="white"/>
<path d="M118.482 47.2929C117.183 47.2929 116.151 46.9306 115.386 46.2061C114.634 45.4678 114.258 44.4767 114.258 43.2326C114.258 42.9456 114.292 42.5833 114.36 42.1458L115.14 37.7574C115.413 36.1443 116.028 34.8866 116.985 33.9843C117.956 33.0683 119.166 32.6104 120.615 32.6104H122.788C124.115 32.6104 125.154 32.9726 125.905 33.6972C126.671 34.4217 127.054 35.3992 127.054 36.6296C127.054 36.944 127.02 37.32 126.951 37.7574L126.172 42.1458C125.885 43.7863 125.263 45.0577 124.306 45.96C123.349 46.8486 122.139 47.2929 120.676 47.2929H118.482ZM120.635 45.9395C121.674 45.9395 122.549 45.6045 123.26 44.9347C123.971 44.2648 124.436 43.3352 124.655 42.1458L125.434 37.7574C125.488 37.4704 125.516 37.1628 125.516 36.8347C125.516 35.9461 125.27 35.2488 124.778 34.743C124.285 34.2235 123.609 33.9638 122.747 33.9638H120.656C119.617 33.9638 118.742 34.2987 118.031 34.9686C117.334 35.6385 116.876 36.5681 116.657 37.7574L115.878 42.1458C115.823 42.4329 115.796 42.7405 115.796 43.0686C115.796 43.9572 116.035 44.6613 116.514 45.1807C117.006 45.6866 117.676 45.9395 118.523 45.9395H120.635Z" fill="white"/>
<path d="M104.371 47.2929C103.113 47.2929 102.122 46.9306 101.397 46.2061C100.673 45.4815 100.311 44.504 100.311 43.2737C100.311 42.8225 100.345 42.4261 100.413 42.0843L101.172 37.819C101.459 36.1785 102.081 34.9002 103.038 33.9843C103.995 33.0683 105.184 32.6104 106.606 32.6104H108.78C110.01 32.6104 110.981 32.9385 111.692 33.5947C112.402 34.2509 112.758 35.1326 112.758 36.24C112.758 36.5954 112.731 36.9167 112.676 37.2038H111.199C111.24 36.9304 111.261 36.6843 111.261 36.4655C111.261 35.7 111.035 35.0916 110.584 34.6405C110.147 34.1893 109.538 33.9638 108.759 33.9638H106.585C105.574 33.9638 104.726 34.3055 104.043 34.9891C103.359 35.659 102.908 36.6023 102.689 37.819L101.931 42.0843C101.876 42.3987 101.849 42.7268 101.849 43.0686C101.849 43.9572 102.074 44.6613 102.525 45.1807C102.976 45.6866 103.598 45.9395 104.391 45.9395H106.606C107.522 45.9395 108.322 45.6114 109.005 44.9552C109.702 44.299 110.147 43.4377 110.338 42.3714H111.815C111.637 43.342 111.302 44.2033 110.81 44.9552C110.318 45.6934 109.702 46.2676 108.964 46.6777C108.24 47.0878 107.447 47.2929 106.585 47.2929H104.371Z" fill="white"/>
<path d="M97.0516 32.7744H98.569L96.0468 47.1289H94.5293L97.0516 32.7744Z" fill="white"/>
<path d="M80.1361 32.7744H81.4895L84.9345 42.3099L91.5991 32.7744H93.1576L90.6353 47.1289H89.1383L91.1685 35.6043L85.6318 43.4787C85.454 43.7385 85.2968 43.923 85.1601 44.0324C85.0371 44.1418 84.9004 44.1965 84.75 44.1965H84.2988L81.1409 35.6043L79.1107 47.1289H77.6138L80.1361 32.7744Z" fill="white"/>
<path d="M66.2406 47.1289C65.8852 47.1289 65.6118 47.04 65.4204 46.8623C65.229 46.6709 65.1333 46.4111 65.1333 46.083C65.1333 45.9463 65.1401 45.8438 65.1538 45.7754L67.4505 32.7744H77.068L76.8424 34.0868H68.7424L67.8401 39.1314H75.325L75.0994 40.4438H67.6146L66.6713 45.8165H74.7713L74.5252 47.1289H66.2406Z" fill="white"/>
<path d="M55.5578 47.2929C54.3958 47.2929 53.473 46.9921 52.7895 46.3906C52.1196 45.7891 51.7847 44.9757 51.7847 43.9504C51.7847 43.6496 51.812 43.3625 51.8667 43.0891H53.3432C53.3021 43.3078 53.2816 43.5266 53.2816 43.7453C53.2816 44.4152 53.4867 44.9483 53.8968 45.3448C54.3069 45.7413 54.8606 45.9395 55.5578 45.9395H57.834C58.668 45.9395 59.3515 45.7686 59.8847 45.4268C60.4178 45.0714 60.7391 44.5861 60.8485 43.9709L61.0946 42.6585C61.1082 42.6038 61.1151 42.5149 61.1151 42.3919C61.1151 42.0091 60.9578 41.681 60.6434 41.4076C60.3427 41.1205 59.9325 40.9291 59.413 40.8334L55.8244 40.2182C54.9632 40.0815 54.2864 39.7671 53.7943 39.2749C53.3021 38.7828 53.0561 38.1881 53.0561 37.4909C53.0561 37.3815 53.0697 37.2174 53.0971 36.9987L53.3021 35.8914C53.4935 34.8524 53.9788 34.0458 54.7581 33.4716C55.5373 32.8974 56.5216 32.6104 57.711 32.6104H60.0282C61.1219 32.6104 61.9832 32.8838 62.612 33.4306C63.2409 33.9774 63.5553 34.7225 63.5553 35.6658C63.5553 35.8298 63.528 36.0896 63.4733 36.445H61.9968C62.0378 36.24 62.0584 36.0554 62.0584 35.8914C62.0584 35.2898 61.8738 34.8182 61.5047 34.4764C61.1492 34.1347 60.6571 33.9638 60.0282 33.9638H57.711C56.9181 33.9638 56.2687 34.1347 55.7629 34.4764C55.2571 34.8182 54.9426 35.2898 54.8196 35.8914L54.6145 36.9987C54.6009 37.0671 54.594 37.1559 54.594 37.2653C54.594 37.6617 54.7444 38.0035 55.0452 38.2906C55.3459 38.5777 55.7492 38.7691 56.2551 38.8648L59.8232 39.5005C60.6981 39.6509 61.3885 39.9721 61.8943 40.4643C62.4001 40.9428 62.653 41.5169 62.653 42.1868C62.653 42.2825 62.6394 42.4397 62.612 42.6585L62.3659 43.9709C62.1609 45.0645 61.6756 45.8916 60.91 46.4521C60.1581 47.0126 59.1601 47.2929 57.9161 47.2929H55.5578Z" fill="white"/>
<path fill-rule="evenodd" clip-rule="evenodd" d="M6.21414 0.0107422C2.78217 0.0107422 0 2.79291 0 6.22488V40.9205C0 44.3525 2.78217 47.1346 6.21415 47.1346H41.4276C44.8596 47.1346 47.6417 44.3525 47.6417 40.9205V26.9387H40.3919V41.4384H33.6599V27.1624L12.4283 39.8846V26.9387H8.28552V20.2067H12.4283V7.61356L33.4445 20.2067H33.6599V6.22488L40.3919 6.22488V20.2067H47.6417V6.22488C47.6417 2.79291 44.8596 0.0107422 41.4276 0.0107422H6.21414Z" fill="#2D09F3"/>
</svg>
