<svg width="38" height="38" viewBox="0 0 38 38" fill="none" xmlns="http://www.w3.org/2000/svg">
<mask id="mask0_12_4034" style="mask-type:luminance" maskUnits="userSpaceOnUse" x="0" y="0" width="38" height="38">
<path d="M38 0H0V38H38V0Z" fill="white"/>
</mask>
<g mask="url(#mask0_12_4034)">
<path d="M38 0V38H0V0H38ZM18.7173 34.7392C28.907 34.7759 36.3432 25.3657 33.9979 15.4128C33.8226 14.6632 33.4195 13.9948 34.3722 13.2425C36.8981 11.2503 37.152 7.7405 35.1261 5.3159C33.1237 2.92005 29.6294 2.60026 27.1821 4.6894C26.5251 5.2503 26.0776 5.2267 25.3578 4.8991C21.1725 2.98296 16.9191 2.91743 12.6867 4.7051C11.8204 5.0721 11.2707 5.0852 10.4933 4.4744C8.1272 2.61337 4.7925 3.01704 2.8478 5.2844C0.955401 7.4915 1.0417 10.8309 3.1828 12.8781C3.9026 13.5675 3.9576 14.118 3.7168 15.0118C1.0129 24.9489 8.4465 34.7051 18.7173 34.7418V34.7392Z" fill="#FF0000"/>
<path d="M18.7699 26.5503C17.1026 26.5425 14.6631 24.7941 14.1239 23.2057C13.8151 22.2987 13.9983 21.494 14.9406 21.1532C17.5214 20.2201 20.1362 20.2017 22.7013 21.203C23.5179 21.5228 23.8294 22.2175 23.5022 23.1375C22.9054 24.8125 20.5209 26.5582 18.7699 26.5503Z" fill="#FF0000"/>
</g>
</svg>
