<svg width="108" height="18" viewBox="0 0 108 18" fill="none" xmlns="http://www.w3.org/2000/svg">
<path d="M16.7971 3.5087C15.9389 0.200801 6.56723 -0.282599 0.613558 2.7298C0.419018 2.8278 0.137678 3.0321 0.0875481 3.288C0.0875481 3.288 0.00748782 3.7968 0.00374782 3.8208C-0.0239322 4.0033 0.163118 3.9659 0.236448 3.921C1.01913 3.4489 1.88853 3.0224 2.68463 2.7829C6.45723 1.6449 11.2392 1.606 12.0795 4.0729C12.6639 5.7916 10.256 7.2028 8.91223 7.8448C8.39523 8.0924 8.21483 8.3206 8.18343 8.5728C8.15653 8.7958 8.23283 9.1235 8.53283 9.5664C10.4461 12.394 16.0676 16.4727 21.5895 17.8973C21.808 17.9542 21.9277 17.9257 22.0228 17.8763C22.0714 17.8494 22.1298 17.8083 22.037 17.7596C18.3557 15.8426 14.8442 12.6013 13.112 10.0962C12.7185 9.5275 12.5935 9.1482 12.6264 8.8422C12.6549 8.5653 12.9085 8.3356 13.4256 8.0932C15.3747 7.1811 17.3905 5.8051 16.7971 3.5087ZM0.763208 14.1052H5.81153V9.0584H0.763208V14.1052ZM104.072 8.6618L100.479 7.4834C99.0022 6.9963 98.5502 6.7815 98.5502 6.2196C98.5502 5.7729 98.8442 5.3621 100.693 5.3621H106.067C106.331 5.3621 106.525 5.2843 106.655 5.0396L107.297 3.8222L99.2802 3.823C95.6442 3.823 94.2832 4.9596 94.2832 6.5383C94.2832 7.4504 94.8032 8.6686 98.2122 9.7864L101.804 10.9664C103.281 11.4535 103.734 11.66 103.734 12.2212C103.734 12.6694 103.442 13.0802 101.591 13.0802L94.2762 13.0794L88.6172 3.8222H86.4705C84.7982 3.8222 83.9429 4.2847 83.1618 5.5589L77.6278 14.6208H81.3862L85.9557 6.5398C86.0672 6.3438 86.1577 6.3468 86.2513 6.3468L90.0613 13.0794H85.9198C85.6564 13.0794 85.4641 13.158 85.3317 13.4019L84.6904 14.62L95.2132 14.6208L95.2182 14.6215L103.005 14.6208C106.64 14.6208 108 13.4835 108 11.9047C108 10.9911 107.482 9.7804 104.072 8.6618ZM71.5993 10.9664C73.0771 11.4535 73.5283 11.66 73.5283 12.2212C73.5283 12.709 73.2357 13.0802 71.3861 13.0802L65.0328 13.0794C64.7687 13.0794 64.5771 13.158 64.4469 13.4019L63.8057 14.62L72.8002 14.6208C76.4352 14.6208 77.7954 13.4835 77.7954 11.9047C77.7954 10.9911 77.2769 9.7804 73.868 8.6618L70.2749 7.4834C68.7979 6.9963 68.346 6.7815 68.346 6.2196C68.346 5.7729 68.6004 5.3621 70.4882 5.3621H75.8635C76.1269 5.3621 76.3199 5.2843 76.4509 5.0396L77.0921 3.8222L69.0755 3.823C65.4391 3.823 64.0788 4.9596 64.0788 6.5383C64.0788 7.4504 64.5973 8.6686 68.007 9.7864L71.5993 10.9664ZM55.8437 5.3621H61.3358C61.6007 5.3621 61.7937 5.2843 61.9254 5.0396L62.5666 3.8222H54.7214C51.2301 3.8222 49.5339 5.0883 49.5339 7.6906V10.6708C49.5339 13.4431 51.2803 14.6193 54.7214 14.6193L61.5311 14.62C61.7952 14.62 61.989 14.5415 62.1192 14.2975L62.7604 13.0794H55.8422C54.0315 13.0794 53.3828 12.4629 53.3828 11.244V9.7752L60.5539 9.776C60.8188 9.776 61.0118 9.6966 61.1412 9.4535L61.7832 8.2353L53.3828 8.2368V7.3419C53.3828 6.3124 53.6155 5.3621 55.8437 5.3621ZM24.6566 5.3621H30.1486C30.4127 5.3621 30.6058 5.2843 30.7375 5.0396L31.3787 3.8222H23.5335C20.0414 3.8222 18.343 5.0883 18.343 7.6906V10.6708C18.343 13.4431 20.0908 14.6193 23.5357 14.6193L30.3439 14.62C30.6088 14.62 30.8003 14.5415 30.9313 14.2975L31.5717 13.0794H24.6551C22.8428 13.0794 22.1956 12.4629 22.1956 11.244V9.7752L29.3659 9.776C29.6293 9.776 29.8239 9.6966 29.9541 9.4535L30.596 8.2353L22.1956 8.2368V7.3419C22.1956 6.3124 22.4291 5.3621 24.6566 5.3621ZM35.405 3.8222C37.696 3.8222 38.2056 4.1762 39.0803 5.1945L44.698 11.7805C44.7781 11.8733 44.8237 11.8987 44.9143 11.8987V3.8222H47.0842L47.0834 14.62H44.7594C43.2225 14.6178 42.5858 14.4981 41.6512 13.3997L35.8569 6.5997C35.7783 6.5032 35.7274 6.477 35.6384 6.477L35.6399 14.62L33.47 14.6208V3.8237L35.405 3.8222Z" fill="white"/>
</svg>
