<svg width="125" height="50" viewBox="0 0 125 50" fill="none" xmlns="http://www.w3.org/2000/svg">
<path d="M48.5804 25.2678C48.5804 29.6587 51.8308 32.898 57.2655 32.898C59.5575 32.898 61.7147 32.5388 63.9528 31.4949L65.9889 34.2673C63.1716 35.7511 60.4689 36.5345 56.3137 36.5345C47.6443 36.5345 41.2735 32.3592 41.2735 25.2701C41.2735 18.1832 47.6443 14.0101 56.3137 14.0101C60.4689 14.0101 62.8618 14.614 65.7846 15.8688L63.7014 19.0587C61.4835 17.8824 59.5575 17.64 57.2655 17.64C51.8308 17.64 48.5804 20.877 48.5804 25.2678Z" fill="#DA1745"/>
<path d="M81.653 33.0292C77.0377 33.0292 74.4898 29.5609 74.4898 25.2666C74.4898 20.9723 77.0377 17.5018 81.653 17.5018C86.2683 17.5018 88.8207 20.9723 88.8207 25.2666C88.8207 29.5609 86.2683 33.0292 81.653 33.0292ZM81.653 13.9999C73.2619 13.9999 67.2099 18.1798 67.2099 25.2666C67.2099 32.358 73.2619 36.5333 81.653 36.5333C90.0464 36.5333 96.1006 32.358 96.1006 25.2666C96.1006 18.1798 90.0464 13.9999 81.653 13.9999Z" fill="#DA1745"/>
<path d="M117.915 26.8988V35.9634H124.852V14.5681H117.915V22.7302H107.315V14.5681H100.394V35.9634H107.315V26.8988H117.915Z" fill="#DA1745"/>
<path d="M37.0921 14.5684H29.7898V35.9637H37.0921V14.5684Z" fill="#DA1745"/>
<path d="M8.84231 24.3624V26.4097C12.2746 29.0631 15.772 32.5987 18.3423 35.9636H26.5202C23.6738 32.6233 19.3099 28.6523 16.0953 26.6544C19.8688 26.4995 24.0733 24.9708 24.0733 20.6383C24.0733 15.0869 18.1358 14.0655 12.1332 14.0655C7.22829 14.0655 2.71173 14.2922 0 14.5145V35.9636H6.81973V17.7425C8.07683 17.6101 9.43494 17.4574 12.1624 17.4574C15.6733 17.4574 17.4534 18.6157 17.4534 20.6383C17.4534 22.3691 16.7171 24.4388 8.84231 24.3624Z" fill="#DA1745"/>
</svg>
