<svg width="150" height="19" viewBox="0 0 150 19" fill="none" xmlns="http://www.w3.org/2000/svg">
<g clip-path="url(#clip0_2216_5007)">
<path d="M132.156 19.0001C132.15 18.9868 132.147 18.9635 132.139 18.9616C132.109 18.9549 132.077 18.9511 132.047 18.9535C131.623 18.9887 131.205 18.8825 130.782 18.9054C130.594 18.8378 130.395 18.8854 130.208 18.8511C130.023 18.8168 129.829 18.8511 129.659 18.8002C129.472 18.7435 129.273 18.8197 129.101 18.7154C128.741 18.7264 128.408 18.5854 128.063 18.5193C127.849 18.4783 127.649 18.3684 127.438 18.3084C127.087 18.2093 126.777 18.0246 126.459 17.858C126.3 17.7747 126.146 17.679 126.015 17.5519C125.938 17.4781 125.846 17.4205 125.767 17.3486C125.398 17.0129 125.134 16.6026 124.921 16.1555C124.764 15.8237 124.657 15.4728 124.54 15.1262C124.449 14.8577 124.376 14.5859 124.351 14.3026C124.267 14.2226 124.335 14.1055 124.284 14.0217C124.229 13.9317 124.275 13.8375 124.254 13.7484C124.192 13.488 124.187 13.22 124.149 12.9581C124.117 12.7406 124.15 12.5216 124.107 12.3126C124.03 11.9388 124.113 11.5608 124.057 11.1928C124.001 10.8253 124.027 10.4611 124.019 10.0955C124.01 9.73173 124.015 9.36753 124.017 9.0038C124.018 8.84193 123.949 8.69054 123.966 8.52486C123.982 8.36823 123.964 8.20826 123.97 8.05068C123.986 7.67743 124.04 7.30561 124.017 6.93093C124.086 6.76049 124.042 6.57815 124.069 6.40534C124.108 6.15777 124.126 5.90783 124.166 5.66169C124.199 5.46126 124.218 5.25845 124.258 5.05993C124.304 4.82617 124.347 4.59098 124.404 4.36056C124.436 4.23106 124.431 4.08586 124.498 3.97446C124.565 3.86305 124.584 3.73832 124.626 3.62311C124.664 3.51837 124.723 3.42506 124.759 3.32175C124.795 3.2151 124.818 3.10418 124.912 3.02895C125.009 2.73045 125.24 2.51574 125.405 2.26056C125.489 2.13059 125.619 2.02728 125.738 1.92349C125.855 1.82208 125.927 1.67069 126.087 1.61975C126.244 1.43741 126.456 1.33124 126.651 1.2008C126.835 1.07749 127.039 0.992747 127.241 0.904672C127.431 0.82231 127.626 0.760895 127.822 0.698052C127.913 0.668535 128.006 0.6314 128.1 0.626163C128.283 0.616166 128.446 0.528566 128.625 0.512856C128.701 0.428113 128.81 0.500954 128.907 0.442871C129.009 0.382409 129.158 0.403357 129.286 0.384789C129.367 0.372887 129.447 0.352892 129.528 0.338133C129.602 0.324803 129.686 0.370031 129.749 0.295762C129.756 0.287192 129.778 0.291477 129.794 0.290525C130.033 0.274814 130.272 0.261008 130.511 0.241964C130.655 0.230538 130.799 0.20483 130.943 0.197213C131.094 0.189119 131.25 0.220065 131.394 0.191024C131.847 0.100568 132.305 0.19626 132.754 0.142939C133.407 0.0658137 134.058 0.114374 134.71 0.102948C135.36 0.0915221 136.013 0.134846 136.66 0.0891417C137.146 0.0548637 137.634 0.101044 138.115 0.044866C138.649 -0.0175009 139.181 0.0191575 139.714 0.00773152C140.245 -0.00369448 140.776 0.0053511 141.308 0.0053511C141.728 0.0053511 142.149 0.00963585 142.568 0.00392285C142.896 -0.00083798 143.218 0.0786679 143.548 0.0586724C143.631 0.0539116 143.721 0.0996156 143.813 0.103424C143.902 0.106757 143.989 0.0810483 144.084 0.139607C144.153 0.181978 144.275 0.128657 144.364 0.151985C144.532 0.19626 144.707 0.197213 144.872 0.245773C145.035 0.293857 145.201 0.344322 145.363 0.374792C145.657 0.430493 145.921 0.575699 146.214 0.622831C146.61 0.823738 147.01 1.01274 147.367 1.28601C147.613 1.47359 147.833 1.6864 148.028 1.91635C148.34 2.28388 148.603 2.68665 148.772 3.14988C148.855 3.37697 148.932 3.60597 149.014 3.83306C149.07 3.98683 149.092 4.14727 149.142 4.30152C149.216 4.52814 149.236 4.76856 149.284 5.00184C149.325 5.2037 149.313 5.41604 149.338 5.6217C149.367 5.85213 149.398 6.0816 149.384 6.3144C149.471 6.45866 149.432 6.61815 149.428 6.76954C149.422 7.05757 149.501 7.33846 149.483 7.62839C149.465 7.92023 149.479 8.2135 149.479 8.50629V10.263C149.479 10.5558 149.485 10.8486 149.478 11.1414C149.467 11.5623 149.464 11.9846 149.424 12.403C149.407 12.5706 149.409 12.7415 149.379 12.9053C149.336 13.1372 149.326 13.3723 149.284 13.6018C149.247 13.8003 149.225 14.0017 149.176 14.1969C149.129 14.3835 149.095 14.5754 149.038 14.7573C148.897 15.2043 148.737 15.6442 148.508 16.0574C148.395 16.2622 148.252 16.4431 148.119 16.6326C147.928 16.9039 147.678 17.1205 147.442 17.3476C147.269 17.5133 147.064 17.6433 146.857 17.7666C146.723 17.8461 146.597 17.9442 146.454 18.0008C145.983 18.1874 145.513 18.3769 145.013 18.4855C144.714 18.5502 144.417 18.6183 144.115 18.6726C143.899 18.7111 143.68 18.733 143.466 18.7725C143.312 18.8011 143.151 18.7764 143.011 18.8206C142.855 18.8701 142.697 18.8206 142.554 18.8654C142.376 18.9211 142.196 18.8725 142.026 18.912C141.739 18.9782 141.452 18.9406 141.164 18.9563C141.143 18.9573 141.124 18.9858 141.103 19.002C138.12 19.002 135.138 19.002 132.156 19.002L132.156 19.0001ZM140.404 14.2479C140.549 14.244 140.691 14.2517 140.838 14.2112C140.99 14.1698 141.156 14.1941 141.318 14.1674C141.458 14.1441 141.602 14.115 141.748 14.1041C141.895 14.0931 142.044 14.0593 142.183 14.0103C142.383 13.9398 142.583 13.8698 142.77 13.7603C142.987 13.6337 143.154 13.4695 143.301 13.2719C143.474 13.0372 143.592 12.7739 143.666 12.4982C143.705 12.3568 143.717 12.204 143.754 12.0588C143.792 11.9112 143.778 11.7589 143.806 11.608C143.849 11.3756 143.837 11.1324 143.856 10.8934C143.888 10.4844 143.865 10.0712 143.865 9.65984C143.865 9.2485 143.873 8.83669 143.862 8.42583C143.851 8.02116 143.887 7.61697 143.827 7.20992C143.787 6.94093 143.771 6.66671 143.73 6.39534C143.706 6.23728 143.643 6.09636 143.605 5.94592C143.566 5.795 143.496 5.66027 143.393 5.53363C143.249 5.35414 143.042 5.1242 142.904 5.05374C142.799 5.00041 142.697 4.93805 142.587 4.89901C142.358 4.81712 142.126 4.74761 141.884 4.69715C141.611 4.64002 141.333 4.62479 141.06 4.57051C140.874 4.53338 140.678 4.54433 140.486 4.52576C140.051 4.48434 139.612 4.51814 139.173 4.4791C138.702 4.43673 138.223 4.46958 137.747 4.46958C137.272 4.46958 136.78 4.46101 136.296 4.47196C135.827 4.48291 135.359 4.44721 134.887 4.5091C134.447 4.5667 133.997 4.47958 133.551 4.56051C133.348 4.59717 133.138 4.57432 132.928 4.60098C132.657 4.63526 132.384 4.65763 132.112 4.70477C131.884 4.74476 131.656 4.78618 131.435 4.85188C131.156 4.93472 130.901 5.08135 130.682 5.26464C130.518 5.40175 130.406 5.59933 130.3 5.79071C130.192 5.98495 130.122 6.19396 130.067 6.40581C130.028 6.55625 130.007 6.71193 129.971 6.86476C129.943 6.9814 129.976 7.1028 129.928 7.22706C129.888 7.33084 129.926 7.46177 129.918 7.57983C129.91 7.70028 129.876 7.81978 129.874 7.94023C129.869 8.4544 129.863 8.96904 129.874 9.48274C129.886 9.99024 129.827 10.4997 129.915 11.0067C129.942 11.16 129.88 11.3376 129.934 11.4747C129.996 11.6313 129.906 11.8017 130.014 11.9398C130.007 12.1769 130.098 12.394 130.158 12.6163C130.279 13.0605 130.525 13.4338 130.885 13.7127C131.204 13.9598 131.591 14.0746 131.984 14.1564C132.221 14.206 132.465 14.2069 132.706 14.2459C132.925 14.2817 133.152 14.2736 133.376 14.2931C133.914 14.3397 134.456 14.2764 134.998 14.3393C135.389 14.385 135.789 14.3483 136.186 14.3483C136.583 14.3483 136.979 14.3564 137.375 14.3459C137.765 14.3359 138.154 14.3673 138.546 14.3097C138.849 14.265 139.164 14.2897 139.472 14.304C139.786 14.3188 140.093 14.2583 140.404 14.2502L140.404 14.2479Z" fill="#2275B8"/>
<path d="M0.989441 0.0993652C6.77956 0.0993652 12.5697 0.0993652 18.3603 0.10127C18.5122 0.10127 18.664 0.137452 18.8164 0.145069C18.9744 0.153163 19.1411 0.11698 19.2901 0.155067C19.4529 0.196486 19.6119 0.182204 19.7719 0.19601C19.8614 0.203627 19.949 0.230288 20.038 0.240762C20.128 0.251712 20.2142 0.245999 20.3065 0.281705C20.3998 0.317887 20.5141 0.315507 20.6179 0.329313C20.9673 0.375969 21.3006 0.477851 21.631 0.588303C21.938 0.69066 22.2318 0.827772 22.5055 1.00249C22.5693 1.04344 22.6274 1.09438 22.6845 1.14437C22.854 1.29338 23.0702 1.3886 23.1825 1.60474C23.2344 1.70424 23.3196 1.78851 23.3987 1.87135C23.5253 2.00322 23.6158 2.16319 23.6829 2.3241C23.7505 2.48502 23.8271 2.64403 23.8881 2.80971C23.9485 2.97395 24.0128 3.14296 24.058 3.30721C24.1023 3.4686 24.1518 3.63666 24.1718 3.80948C24.1971 4.0261 24.268 4.23748 24.2618 4.45933C24.3423 4.58788 24.2823 4.73403 24.3127 4.86638C24.3904 5.20678 24.3399 5.55052 24.3589 5.89187C24.3623 5.94947 24.3956 6.0047 24.4027 6.06231C24.4108 6.12467 24.4132 6.19037 24.4027 6.25179C24.3385 6.63932 24.3804 7.03161 24.3489 7.41914C24.328 7.68289 24.3037 7.95045 24.2547 8.21039C24.2132 8.42844 24.1737 8.64886 24.1171 8.86453C24.0633 9.07067 23.9628 9.26254 23.9281 9.47487C23.7553 9.74195 23.6462 10.0419 23.4491 10.2999C23.1211 10.7289 22.6969 11.0217 22.2266 11.2545C22.0114 11.3611 21.7752 11.4292 21.5419 11.4963C21.4496 11.523 21.3553 11.5425 21.2463 11.5692C21.591 11.6291 21.9138 11.7087 22.2261 11.8286C22.5317 11.9457 22.8121 12.1024 23.0849 12.2847C23.3763 12.4799 23.5458 12.7689 23.7253 13.0431C23.8538 13.2397 23.9086 13.4892 23.9714 13.722C24.0223 13.9096 24.0838 14.0991 24.0709 14.299C24.1528 14.4104 24.0957 14.5409 24.1204 14.6589C24.2118 15.0936 24.1528 15.5325 24.1637 15.9696C24.1742 16.4047 24.1661 16.8403 24.1661 17.2755V18.6114H18.3679C18.3655 18.5614 18.3598 18.5019 18.3598 18.4419C18.3593 17.8087 18.3584 17.1755 18.3598 16.5423C18.3603 16.2157 18.287 15.8934 18.307 15.5644C18.3132 15.4588 18.2565 15.3497 18.2341 15.2412C18.1951 15.0517 18.128 14.8656 18.0204 14.7142C17.8518 14.4775 17.6285 14.289 17.3367 14.2038C17.1291 14.1433 16.9244 14.0829 16.7073 14.0505C16.5535 14.0277 16.3998 14.0381 16.2498 14.0115C15.7266 13.9186 15.1996 13.98 14.6749 13.9691C14.136 13.9577 13.5961 13.9667 13.0567 13.9667H8.25018C7.71887 13.9667 7.18709 13.9667 6.65578 13.9672C6.64197 13.9672 6.62817 13.9758 6.60579 13.9834V18.6204H0.989441V0.0993652ZM6.70529 9.50248H14.2703C14.6192 9.50248 14.9687 9.48867 15.3172 9.50629C15.6628 9.52343 16.0013 9.45249 16.3445 9.45487C16.4555 9.45583 16.5669 9.45011 16.6778 9.4563C16.7944 9.46297 16.9035 9.43488 17.0158 9.41155C17.1182 9.39013 17.2258 9.38203 17.3296 9.36823C17.6 9.33157 17.8452 9.23968 18.0865 9.12304C18.3969 8.97308 18.5488 8.69314 18.6397 8.39083C18.7154 8.1385 18.754 7.8719 18.745 7.60148C18.734 7.28536 18.7478 6.96829 18.7402 6.65217C18.7359 6.4765 18.7107 6.3013 18.6945 6.12562C18.694 6.11801 18.6931 6.11039 18.6907 6.10372C18.5998 5.87901 18.5812 5.6186 18.3712 5.45244C18.226 5.1687 17.9513 5.05063 17.68 4.9497C17.3815 4.8383 17.0577 4.8064 16.7416 4.80592C13.4742 4.79926 10.2064 4.80211 6.93905 4.80211H6.70577V9.50343L6.70529 9.50248Z" fill="#2275B8"/>
<path d="M95.2796 0.0993652H95.5215C101.311 0.0993652 107.101 0.0993652 112.891 0.10127C113.059 0.10127 113.227 0.136976 113.395 0.145069C113.561 0.153163 113.734 0.117456 113.893 0.154591C114.079 0.198391 114.261 0.190297 114.446 0.192678C114.539 0.194106 114.612 0.260281 114.712 0.246475C114.79 0.236001 114.885 0.20458 114.956 0.287418C114.966 0.29932 115.001 0.287418 115.025 0.289322C115.192 0.305985 115.367 0.298844 115.525 0.348357C115.681 0.396917 115.842 0.430243 115.997 0.465949C116.287 0.532125 116.569 0.617344 116.846 0.718273C117.109 0.813966 117.358 0.934891 117.604 1.07343C118.107 1.35622 118.494 1.76661 118.879 2.17652C119.103 2.41503 119.292 2.69402 119.444 2.98538C119.583 3.25008 119.686 3.53335 119.785 3.81757C119.879 4.08989 119.914 4.37792 120.021 4.64596C119.994 4.77165 120.052 4.88638 120.068 5.00635C120.105 5.26963 120.174 5.52909 120.164 5.79808C120.244 5.90948 120.198 6.03755 120.212 6.158C120.225 6.27845 120.249 6.39795 120.257 6.51839C120.265 6.63646 120.228 6.76643 120.265 6.87212C120.33 7.0578 120.304 7.24109 120.303 7.42438C120.303 7.77525 120.375 8.12089 120.358 8.47319C120.341 8.82073 120.354 9.16922 120.354 9.51772C120.354 9.86621 120.359 10.2299 120.352 10.586C120.349 10.7617 120.316 10.9369 120.308 11.1126C120.3 11.2945 120.34 11.4844 120.298 11.6563C120.249 11.8586 120.278 12.0571 120.257 12.2557C120.246 12.3599 120.199 12.458 120.209 12.5689C120.218 12.6741 120.229 12.7846 120.164 12.8822C120.157 12.8931 120.164 12.9131 120.164 12.9289C120.148 13.1359 120.144 13.345 120.113 13.5497C120.075 13.7972 120.044 14.0453 120.012 14.2933C119.988 14.4795 119.939 14.6694 119.881 14.8537C119.826 15.0293 119.758 15.1993 119.699 15.3716C119.643 15.5335 119.555 15.6768 119.493 15.8334C119.431 15.9896 119.346 16.1405 119.247 16.2767C119.108 16.4685 118.951 16.648 118.794 16.8261C118.695 16.9389 118.577 17.0346 118.477 17.1474C118.257 17.3978 117.977 17.5759 117.707 17.7616C117.526 17.8854 117.32 17.972 117.122 18.0691C116.898 18.1791 116.658 18.2619 116.421 18.3253C116.236 18.3743 116.039 18.4114 115.846 18.4433C115.62 18.4805 115.383 18.4819 115.166 18.5733C115.159 18.5762 115.15 18.5733 115.142 18.5733C114.934 18.589 114.723 18.5857 114.52 18.6261C114.311 18.6676 114.097 18.6323 113.899 18.678C113.711 18.7214 113.529 18.7137 113.345 18.7137C107.404 18.7161 101.464 18.7156 95.5234 18.7156H95.2801V0.0993652H95.2796ZM111.693 14.2495C111.869 14.2457 112.049 14.2395 112.219 14.1995C112.455 14.1433 112.695 14.0962 112.926 14.0143C113.316 13.8763 113.679 13.6906 113.937 13.3592C114.181 13.0464 114.314 12.6765 114.398 12.2938C114.429 12.1562 114.443 12.0119 114.481 11.8753C114.521 11.7272 114.455 11.5663 114.547 11.4282C114.512 11.155 114.597 10.8888 114.595 10.617C114.592 9.84955 114.596 9.0821 114.592 8.31466C114.591 8.17088 114.59 8.02901 114.557 7.88094C114.515 7.69003 114.548 7.48389 114.503 7.28489C114.469 7.1373 114.496 6.9721 114.445 6.83309C114.362 6.60552 114.328 6.36605 114.225 6.14086C114.128 5.92995 114.02 5.72714 113.883 5.54861C113.648 5.24202 113.308 5.0711 112.949 4.94351C112.768 4.87876 112.582 4.82973 112.391 4.7945C112.19 4.75736 111.987 4.74736 111.786 4.71261C111.586 4.67833 111.375 4.70023 111.169 4.70642C110.967 4.71261 110.774 4.65262 110.57 4.6531C107.502 4.65977 104.433 4.65786 101.365 4.65786H101.137V14.1081C101.137 14.1081 111.352 14.2557 111.693 14.2486L111.693 14.2495Z" fill="#2275B8"/>
<path d="M56.8159 11.6862H49.6885V8.27411H62.4318V8.47501C62.4318 9.89945 62.4332 11.3239 62.4299 12.7483C62.4299 12.924 62.3942 13.0992 62.3861 13.2749C62.378 13.4487 62.4146 13.63 62.3761 13.7952C62.3361 13.9657 62.3646 14.1352 62.3332 14.2989C62.2618 14.6712 62.2209 15.0478 62.1114 15.4158C62.0314 15.6848 61.9319 15.9433 61.8338 16.2042C61.7215 16.5037 61.5739 16.7808 61.3877 17.0417C61.1897 17.3192 60.9626 17.5601 60.695 17.7748C60.4475 17.9738 60.1785 18.1281 59.9004 18.2728C59.7462 18.3533 59.1597 18.5308 59.0025 18.5761C58.824 18.6275 58.6383 18.6422 58.4627 18.7065C58.3651 18.7422 58.2575 18.7208 58.1499 18.7532C57.9842 18.8032 57.8009 18.7922 57.6252 18.8098C57.4886 18.8236 57.3534 18.8474 57.2168 18.8551C57.0744 18.8631 56.9221 18.8251 56.7907 18.8641C56.5807 18.926 56.3731 18.9017 56.166 18.9022C54.0246 18.906 51.8832 18.9046 49.7418 18.9046C49.0205 18.9931 48.2954 18.9374 47.5723 18.9517C47.0072 18.9626 46.4449 18.8698 45.8788 18.9046C45.6279 18.8213 45.3642 18.8941 45.1147 18.8493C44.8972 18.8103 44.6777 18.8432 44.4687 18.8008C44.3059 18.7679 44.1473 18.7732 43.9874 18.7603C43.8979 18.7532 43.8107 18.7241 43.7212 18.716C43.6346 18.7079 43.537 18.7389 43.4618 18.7089C43.3247 18.6541 43.1828 18.6946 43.0528 18.6603C42.9309 18.6284 42.811 18.6318 42.6905 18.6156C42.5782 18.6008 42.4587 18.5932 42.3558 18.5623C42.2339 18.5256 42.1059 18.5299 41.9864 18.4799C41.8716 18.4318 41.7422 18.4194 41.6236 18.3794C41.506 18.3399 41.3927 18.2866 41.278 18.238C41.0052 18.1224 40.7467 17.9791 40.5043 17.8096C40.3182 17.6796 40.1354 17.543 39.9626 17.3963C39.824 17.2787 39.7007 17.1431 39.5741 17.0121C39.3741 16.8041 39.2099 16.5713 39.0599 16.3237C38.9561 16.1528 38.8304 15.9909 38.7538 15.8081C38.6352 15.5249 38.5481 15.2283 38.4462 14.9383C38.3677 14.7155 38.3496 14.476 38.2563 14.257C38.292 14.1152 38.2049 13.9885 38.2058 13.8495C38.2058 13.761 38.1777 13.6724 38.1611 13.5843C38.1444 13.4963 38.202 13.3953 38.1149 13.3177C38.1068 13.3106 38.113 13.2873 38.1139 13.2716C38.1373 12.9754 38.0325 12.686 38.0663 12.3889C37.9778 11.8914 38.0663 11.3853 38.0082 10.8902C37.963 10.5065 37.9844 10.1265 37.9735 9.7452C37.9625 9.36576 37.9359 8.98157 37.9797 8.60641C38.0425 8.06558 37.9982 7.52618 38.0187 6.98678C38.1025 6.73636 38.032 6.47451 38.0735 6.22409C38.1025 6.04699 38.1111 5.87322 38.1144 5.69659C38.1158 5.60614 38.1787 5.52901 38.1649 5.43094C38.1539 5.35048 38.1796 5.26955 38.1991 5.18766C38.2306 5.05816 38.2244 4.9182 38.2529 4.78156C38.3139 4.49067 38.3734 4.19979 38.4562 3.91461C38.5195 3.69704 38.5995 3.48328 38.6876 3.27476C38.7728 3.07242 38.869 2.87342 38.978 2.68299C39.0704 2.52112 39.1784 2.36592 39.297 2.22166C39.5208 1.94934 39.7807 1.71701 40.0573 1.49373C40.4163 1.2038 40.8419 1.04431 41.2289 0.812932C41.4008 0.795793 41.5417 0.687246 41.7126 0.656301C41.8688 0.627736 42.0121 0.530615 42.1682 0.498717C42.4015 0.451109 42.6243 0.367318 42.8609 0.324471C43.0471 0.290669 43.248 0.288764 43.4227 0.193548C43.4351 0.186883 43.4541 0.193072 43.4699 0.192596C43.6155 0.190691 43.7584 0.1726 43.9031 0.153081C44.2183 0.111186 44.5396 0.115946 44.8576 0.0964269C45.0181 0.0864292 45.1776 0.0592925 45.3375 0.0516751C45.5037 0.0435817 45.6784 0.0816684 45.8355 0.0431056C46.1159 -0.0259264 46.3954 0.00549506 46.6739 0.00501898C49.18 0.000734231 51.6866 0.00121031 54.1927 0.0045429C54.4636 0.0045429 54.7345 0.0402491 55.0058 0.0483425C55.2753 0.056436 55.5505 0.0173971 55.8133 0.0592925C56.0708 0.100236 56.3251 0.079764 56.5802 0.0997595C56.685 0.107853 56.783 0.157366 56.894 0.147368C56.9997 0.138322 57.1106 0.125944 57.2072 0.192596C57.3953 0.156889 57.5733 0.234015 57.7581 0.245441C57.9347 0.256391 58.1099 0.309236 58.2837 0.350179C58.4417 0.38779 58.5988 0.430637 58.754 0.478246C58.9859 0.549182 59.2173 0.622975 59.4458 0.702481C59.7029 0.791984 59.9428 0.919575 60.1842 1.04478C60.3784 1.14571 60.5608 1.26045 60.7245 1.40566C60.7926 1.46612 60.874 1.5123 60.9388 1.57514C61.272 1.89935 61.5215 2.28212 61.72 2.69965C61.85 2.9734 61.9366 3.2619 62.0033 3.55565C62.0461 3.7456 62.1142 3.93318 62.1009 4.13314C62.2094 4.26453 62.1214 4.42783 62.1756 4.57684C62.2237 4.70967 62.1714 4.87535 62.2004 5.01913C62.2861 5.44712 62.2223 5.8775 62.2437 6.30598C62.2456 6.34549 62.2461 6.38501 62.2437 6.42452C62.2385 6.51069 62.2013 6.54926 62.1195 6.55497C62.0799 6.55783 62.04 6.55497 62.0004 6.55497C60.3589 6.55497 58.7169 6.55354 57.0754 6.5564C56.8216 6.5564 56.8145 6.54212 56.8159 6.2936C56.8164 6.16553 56.7873 6.03747 56.7711 5.90988C56.7559 5.7899 56.7597 5.66231 56.7188 5.55139C56.6635 5.40094 56.5826 5.25812 56.4974 5.12101C56.3293 4.85059 56.0266 4.69396 55.7657 4.60398C55.4876 4.50781 55.2063 4.45402 54.9158 4.41355C54.3274 4.33119 53.7385 4.38403 53.1505 4.37308C52.5478 4.36166 51.9451 4.3707 51.3424 4.3707H49.558C48.6382 4.3707 47.7179 4.35832 46.7982 4.37689C46.4159 4.38451 46.0302 4.41593 45.6598 4.55114C45.5313 4.59779 45.3847 4.60874 45.2509 4.6554C45.0538 4.72348 44.87 4.81155 44.7024 4.94152C44.4344 5.15005 44.2735 5.41904 44.1426 5.72849C44.0631 5.91607 44.0488 6.11507 43.9717 6.29884C43.9436 6.36644 43.9312 6.44261 43.924 6.51593C43.9159 6.59449 43.9374 6.6778 43.9198 6.75254C43.8522 7.03724 43.9164 7.33146 43.8655 7.61045C43.8126 7.89991 43.8331 8.1846 43.8303 8.4712C43.8222 9.24674 43.8293 10.0223 43.8264 10.7978C43.825 11.1168 43.9079 11.431 43.8755 11.7514C43.8679 11.8276 43.9321 11.8861 43.9274 11.9695C43.9226 12.0499 43.9007 12.1328 43.9502 12.2199C43.9845 12.2803 43.9483 12.3775 43.974 12.447C44.0235 12.5808 44.044 12.7193 44.0769 12.8559C44.1092 12.9902 44.1873 13.1102 44.2283 13.2444C44.2511 13.3201 44.3035 13.3887 44.3516 13.4539C44.513 13.6734 44.7039 13.8505 44.9529 13.9823C45.2138 14.1209 45.4994 14.1994 45.7551 14.3442C45.9084 14.3404 46.0464 14.4065 46.1916 14.4394C46.4997 14.5089 46.8105 14.5375 47.1276 14.5365C49.2214 14.5313 51.3152 14.5351 53.409 14.5317C53.569 14.5317 53.7285 14.496 53.8889 14.4879C54.047 14.4798 54.2112 14.5108 54.3631 14.4789C54.4931 14.4513 54.6202 14.4475 54.7492 14.437C54.8778 14.4265 55.0073 14.4061 55.1329 14.3846C55.4672 14.3275 55.809 14.2437 56.0818 14.0447C56.3308 13.8628 56.5274 13.6191 56.6383 13.3068C56.7102 13.104 56.7345 12.8902 56.8183 12.6931C56.8268 12.6731 56.8192 12.646 56.8192 12.6222V11.6843L56.8159 11.6862Z" fill="#2275B8"/>
<path d="M92.6045 18.7074H86.3902C86.2031 18.4175 86.0541 18.0947 85.8627 17.7947C85.7613 17.6357 85.6865 17.4562 85.587 17.2929C85.4485 17.0659 85.3395 16.8231 85.1885 16.6017C85.0695 16.4274 84.9976 16.2218 84.8938 16.0366C84.7743 15.8233 84.6425 15.6171 84.5116 15.401H72.5762C72.5619 15.4277 72.5404 15.4738 72.5133 15.5162C72.3176 15.8204 72.1691 16.1494 71.9977 16.4665C71.8754 16.6926 71.7682 16.9273 71.6364 17.1477C71.474 17.4201 71.3445 17.7086 71.1888 17.9842C71.0732 18.1889 70.9565 18.3941 70.8589 18.6074C70.818 18.6969 70.7704 18.7231 70.6847 18.7155C70.669 18.7141 70.6528 18.7155 70.6371 18.7155H64.3818C64.3918 18.6631 64.3861 18.6046 64.4123 18.5712C64.5194 18.436 64.5808 18.2756 64.666 18.129C64.8612 17.7909 65.0417 17.4448 65.2407 17.1087C65.414 16.8164 65.5677 16.5136 65.7486 16.2251C65.8567 16.0528 65.9415 15.8618 66.0476 15.6852C66.1728 15.4767 66.2719 15.2534 66.409 15.0506C66.4909 14.9297 66.548 14.7916 66.6194 14.6635C66.7446 14.4384 66.8708 14.2132 67.0003 13.9899C67.174 13.69 67.3388 13.3843 67.513 13.0848C67.6154 12.9092 67.7144 12.7264 67.8129 12.5459C67.9891 12.2222 68.1557 11.8923 68.3604 11.5842C68.4542 11.4433 68.5252 11.2872 68.6066 11.1391C68.7761 10.8296 68.9489 10.5216 69.1217 10.2141C69.3131 9.87319 69.503 9.53137 69.7006 9.19335C69.7958 9.03005 69.8896 8.86104 69.9805 8.69346C70.1676 8.3502 70.3509 8.00504 70.5595 7.67274C70.6594 7.51325 70.7375 7.33567 70.8346 7.17047C71.0336 6.83388 71.2031 6.4811 71.4197 6.15308C71.5526 5.95217 71.6435 5.72365 71.7601 5.51132C71.8558 5.3366 71.962 5.16711 72.0625 4.99525C72.081 4.96382 72.0958 4.92955 72.1134 4.89765C72.241 4.66437 72.3767 4.43537 72.509 4.20542C72.6104 4.02832 72.7128 3.84789 72.8061 3.66507C72.917 3.44798 73.0451 3.24088 73.1679 3.03045C73.2679 2.85954 73.3536 2.67958 73.4574 2.50962C73.5921 2.28966 73.7064 2.05781 73.8392 1.83548C73.9363 1.67314 74.0139 1.49603 74.1148 1.33369C74.2553 1.10755 74.3567 0.860939 74.5138 0.642893C74.6157 0.501973 74.6762 0.331535 74.758 0.17538C74.7718 0.148719 74.799 0.128724 74.8228 0.102539H82.3982C82.5577 0.433417 82.7315 0.74906 82.9243 1.05471C82.959 1.10993 82.98 1.1742 83.0095 1.23276C83.2157 1.63934 83.4494 2.03115 83.6636 2.43344C83.826 2.73861 84.0021 3.03759 84.1692 3.34086C84.3502 3.66935 84.5158 4.00642 84.7072 4.32873C84.8877 4.63342 85.0538 4.94526 85.2266 5.25423C85.4061 5.57511 85.5708 5.90409 85.7527 6.22306C85.9312 6.5368 86.1031 6.8534 86.2773 7.16904C86.4516 7.48468 86.6277 7.79937 86.7991 8.11645C86.9739 8.43971 87.1443 8.7663 87.3271 9.08432C87.4999 9.38473 87.6599 9.69228 87.8337 9.99221C88.0212 10.3164 88.1788 10.6583 88.3716 10.9796C88.554 11.2834 88.7116 11.6004 88.8896 11.9061C89.0743 12.2236 89.2395 12.5526 89.4157 12.8749C89.5885 13.191 89.7642 13.5057 89.9389 13.8209C90.1136 14.1365 90.2879 14.4522 90.4626 14.7678C90.6373 15.0834 90.8116 15.3991 90.9863 15.7147C91.161 16.0304 91.3352 16.346 91.51 16.6617C91.6875 16.9835 91.8585 17.3091 92.0384 17.6295C92.2265 17.9633 92.405 18.3022 92.5945 18.635C92.604 18.6522 92.5997 18.6769 92.6031 18.7069L92.6045 18.7074ZM74.6485 11.4495C77.2775 11.4495 79.8835 11.4495 82.4901 11.449C82.4958 11.449 82.503 11.4405 82.5072 11.4347C82.5115 11.429 82.5134 11.4214 82.523 11.4009C82.3492 11.0877 82.1697 10.7673 81.9935 10.4445C81.7855 10.0641 81.5808 9.68181 81.3746 9.29999C81.1685 8.91865 80.9624 8.53683 80.7557 8.15549C80.5496 7.77414 80.3444 7.39185 80.1368 7.01098C79.9321 6.6363 79.7169 6.26734 79.5208 5.88885C79.3175 5.49751 79.1013 5.11331 78.8938 4.72435C78.78 4.51107 78.6638 4.29921 78.551 4.09164C78.4505 4.26827 78.3487 4.43918 78.2558 4.61438C78.1011 4.90622 77.9606 5.2052 77.7988 5.49275C77.6436 5.7684 77.516 6.05786 77.3513 6.32971C77.1808 6.61155 77.0461 6.91481 76.8923 7.20713C76.749 7.4804 76.6033 7.75272 76.4553 8.02313C76.2896 8.32592 76.1496 8.64204 75.972 8.93959C75.8259 9.18478 75.7126 9.44948 75.5712 9.69942C75.3836 10.0313 75.2194 10.3764 75.0427 10.7144C74.9199 10.9491 74.7928 11.181 74.649 11.4495H74.6485Z" fill="#2275B8"/>
<path d="M34.2029 0.0991089V18.7149H34.0344C32.2581 18.7149 30.4818 18.7135 28.7056 18.7163C28.4509 18.7163 28.4494 18.6992 28.4494 18.4526C28.4513 12.4235 28.4513 6.39436 28.4494 0.365239C28.4494 0.101013 28.4537 0.0972045 28.7251 0.0976806C30.4776 0.100061 32.23 0.0991089 33.9825 0.0991089H34.2029Z" fill="#2275B8"/>
</g>
<defs>
<clipPath id="clip0_2216_5007">
<rect width="148.497" height="19" fill="white" transform="translate(0.988983)"/>
</clipPath>
</defs>
</svg>
