<svg width="50" height="39" viewBox="0 0 50 39" fill="none" xmlns="http://www.w3.org/2000/svg">
<mask id="mask0_12_4073" style="mask-type:luminance" maskUnits="userSpaceOnUse" x="0" y="9" width="50" height="11">
<path d="M50 9H0V19.3448H50V9Z" fill="white"/>
</mask>
<g mask="url(#mask0_12_4073)">
<path d="M48.7979 8.99999C48.7946 9.06739 48.7463 9.10489 48.7013 9.14409C48.6872 9.15659 48.6663 9.16319 48.6522 9.17569C48.5489 9.26979 48.4498 9.36809 48.3432 9.45969C48.2175 9.56799 48.0934 9.67619 47.9701 9.78699C47.8727 9.87439 47.7694 9.95599 47.672 10.0427C47.5512 10.1501 47.4271 10.2559 47.3064 10.3633C47.2006 10.4574 47.0915 10.5473 46.9857 10.6406C46.8642 10.748 46.7417 10.8538 46.6201 10.9612C46.5202 11.0503 46.4153 11.1361 46.3145 11.2244C46.1979 11.3268 46.0805 11.4284 45.9639 11.5309C45.8498 11.6308 45.734 11.7291 45.6208 11.8298C45.51 11.9281 45.3959 12.0239 45.2852 12.1222C45.1694 12.2254 45.0503 12.3254 44.9346 12.4286C44.8288 12.5227 44.7205 12.6127 44.6139 12.7068C44.4923 12.8142 44.3699 12.9208 44.2483 13.0274C44.1426 13.1207 44.0335 13.2115 43.9277 13.3056C43.8144 13.4063 43.6987 13.5054 43.5838 13.6037C43.5246 13.6545 43.4688 13.7078 43.4105 13.7595C43.383 13.7836 43.3522 13.8036 43.3239 13.8252C43.2981 13.8452 43.2731 13.8669 43.2431 13.8919C43.234 13.9443 43.2898 13.9627 43.3189 13.996C43.3289 14.0076 43.3489 14.0093 43.3606 14.0201C43.4713 14.1217 43.5804 14.2242 43.6903 14.3266C43.7878 14.4165 43.8802 14.514 43.9852 14.5948C44.0643 14.6555 44.1267 14.7322 44.2034 14.793C44.3108 14.8779 44.3999 14.9828 44.5048 15.0686C44.5731 15.1252 44.6331 15.1902 44.7005 15.246C44.8471 15.3668 44.9829 15.4992 45.1261 15.6233C45.2244 15.7082 45.3126 15.8023 45.4093 15.8889C45.4542 15.9289 45.5017 15.9664 45.5475 16.0064C45.5908 16.0438 45.6225 16.0938 45.6782 16.1163C45.6841 16.1188 45.6882 16.1254 45.6932 16.1304C45.7907 16.2204 45.884 16.3162 45.9872 16.3986C46.0863 16.4777 46.1679 16.5752 46.2654 16.6534C46.3403 16.7134 46.402 16.7867 46.4769 16.8433C46.5485 16.8966 46.6043 16.9657 46.6734 17.019C46.7526 17.079 46.815 17.1573 46.8933 17.2156C46.9932 17.2897 47.0657 17.3921 47.164 17.4638C47.2664 17.537 47.3364 17.6453 47.4463 17.7069C47.4488 17.7086 47.4513 17.7119 47.4538 17.7144C47.5437 17.7969 47.6312 17.8843 47.7253 17.9618C47.8285 18.0459 47.9168 18.1467 48.0193 18.2308C48.085 18.2849 48.1425 18.3465 48.2075 18.4007C48.3632 18.5314 48.5106 18.6722 48.663 18.8071C48.7338 18.8704 48.7971 18.9428 48.8737 18.9978C48.9378 19.0436 48.9903 19.101 49.0469 19.1535C49.0561 19.1618 49.0628 19.1735 49.0678 19.181C49.0644 19.1902 49.0636 19.1935 49.0619 19.196C49.0603 19.1985 49.0569 19.2026 49.0544 19.2026C47.7578 19.2026 46.4619 19.2026 45.1652 19.2026C44.6797 18.7205 44.2017 18.2316 43.707 17.7594C43.3356 17.4055 42.9808 17.0357 42.606 16.6859C42.3495 16.4469 42.1114 16.1904 41.8507 15.9572C41.6508 15.7782 41.4659 15.585 41.2736 15.3992C41.0795 15.2119 40.8913 15.0195 40.6989 14.8313C40.6481 14.7821 40.6073 14.723 40.5399 14.6897C40.5165 14.678 40.5099 14.6331 40.4866 14.6222C40.4566 14.6081 40.4391 14.5948 40.4283 14.5631C40.4233 14.5489 40.3933 14.5465 40.3808 14.5323C40.3225 14.4665 40.2434 14.419 40.2026 14.3374C40.1934 14.3199 40.1743 14.3074 40.1593 14.2933C40.076 14.2108 39.9927 14.1276 39.9094 14.0451C39.8969 14.0326 39.8869 14.0143 39.8719 14.0101C39.802 13.9893 39.8045 13.9377 39.8103 13.8827C39.8245 13.8752 39.8411 13.871 39.8528 13.8602C39.9486 13.7736 40.0443 13.6862 40.1384 13.5979C40.3008 13.4455 40.4574 13.2873 40.624 13.1398C40.7431 13.0349 40.8613 12.9283 40.9829 12.8267C41.1361 12.6985 41.2636 12.5461 41.4143 12.4161C41.5184 12.327 41.6083 12.2229 41.7149 12.1397C41.9281 11.9714 42.123 11.7832 42.3229 11.6C42.467 11.4676 42.5985 11.3235 42.7468 11.1969C42.8884 11.0762 43.0233 10.9462 43.164 10.8255C43.3239 10.6889 43.4622 10.5332 43.6162 10.3924C43.7212 10.2975 43.8278 10.2042 43.936 10.1134C44.056 10.0127 44.1667 9.90019 44.2816 9.79359C44.3741 9.70789 44.4624 9.61709 44.5615 9.53959C44.6347 9.48299 44.6905 9.40719 44.7663 9.35729C44.8779 9.28309 44.9471 9.16569 45.062 9.09659C45.087 9.08159 45.0995 9.03659 45.0928 8.99829H48.7954L48.7979 8.99999Z" fill="#084BA7"/>
<path d="M24.2332 19.265V11.7531C24.2749 10.8712 24.2449 9.98931 24.2541 9.10731C24.2541 9.10071 24.2566 9.09481 24.2591 9.08151C24.3465 9.08151 24.4389 9.06741 24.5247 9.08401C24.6988 9.11821 24.8737 9.09981 25.0469 9.10071C27.1097 9.10321 29.1718 9.10151 31.2346 9.10321C31.3146 9.10321 31.3953 9.11901 31.4753 9.12231C31.5586 9.12571 31.6427 9.11651 31.7243 9.12481C31.8017 9.13321 31.8767 9.16561 31.9566 9.16401C31.9866 9.20481 32.0366 9.16811 32.0699 9.19141C32.1082 9.21811 32.1499 9.19891 32.189 9.20481C32.2315 9.21141 32.2731 9.22311 32.3156 9.22391C32.3614 9.22481 32.3964 9.25061 32.4355 9.26061C32.5171 9.28141 32.5971 9.30891 32.6787 9.32471C32.7595 9.34051 32.8361 9.36801 32.9102 9.39471C32.991 9.42381 33.0734 9.45131 33.1542 9.48211C33.295 9.53621 33.4324 9.59791 33.5665 9.66451C33.6522 9.70781 33.738 9.75111 33.8238 9.79611C33.9562 9.86521 34.0836 9.94261 34.2044 10.0301C34.3193 10.1142 34.4392 10.1891 34.5467 10.2833C34.6483 10.3715 34.754 10.4548 34.8515 10.5472C34.9098 10.603 34.9806 10.648 35.0322 10.7096C35.1429 10.8421 35.267 10.9628 35.3628 11.1094C35.4261 11.2077 35.4969 11.3026 35.5635 11.3992C35.5927 11.4425 35.626 11.4833 35.6501 11.5291C35.7451 11.7098 35.845 11.8897 35.9291 12.0754C35.9966 12.2228 36.0532 12.3769 36.0973 12.5326C36.1232 12.6259 36.1565 12.715 36.1914 12.8041C36.2106 12.8508 36.2198 12.8999 36.2114 12.9507C36.2056 12.989 36.2131 13.029 36.2348 13.054C36.2722 13.0973 36.2298 13.1564 36.2747 13.1939C36.2814 13.2772 36.2831 13.3613 36.2972 13.4429C36.308 13.5062 36.3105 13.5712 36.333 13.6344C36.3472 13.6744 36.3389 13.7227 36.3364 13.7669C36.3289 13.8959 36.3672 14.0209 36.3597 14.1508C36.3522 14.2815 36.358 14.4123 36.358 14.543C36.358 14.6371 36.323 14.7287 36.3372 14.8237C36.2997 14.8712 36.3339 14.9328 36.3114 14.9786C36.2856 15.0327 36.3005 15.0852 36.2964 15.1377C36.2947 15.1651 36.2872 15.1876 36.2756 15.2118C36.2489 15.2709 36.2614 15.34 36.2256 15.3983C36.2173 15.4116 36.2106 15.4291 36.2123 15.4441C36.2198 15.5191 36.1931 15.5857 36.1706 15.6548C36.1123 15.8405 36.0482 16.0246 35.9724 16.2036C35.9183 16.3327 35.8483 16.456 35.7825 16.5801C35.7367 16.665 35.6876 16.7483 35.636 16.8291C35.5802 16.9165 35.521 17.0023 35.4619 17.0881C35.4094 17.1639 35.3536 17.2372 35.3012 17.3121C35.2262 17.4195 35.1355 17.512 35.053 17.6102C34.9797 17.6977 34.9006 17.7835 34.8007 17.8476C34.739 17.8876 34.6857 17.9417 34.6324 17.9925C34.4784 18.1382 34.3002 18.2557 34.1228 18.3689C33.9604 18.4722 33.7971 18.5771 33.6164 18.6496C33.4382 18.7212 33.2683 18.8095 33.0868 18.8753C32.9427 18.9277 32.7978 18.9819 32.6504 19.0243C32.5421 19.056 32.4347 19.106 32.3164 19.0985C32.3023 19.0976 32.2864 19.1093 32.2723 19.116C32.2181 19.1401 32.1582 19.1343 32.1024 19.1568C32.0516 19.1776 31.9933 19.1842 31.935 19.1817C31.8934 19.1801 31.8509 19.1942 31.8084 19.2009C31.7659 19.2067 31.7193 19.1867 31.6818 19.2209C31.6777 19.2242 31.6685 19.2217 31.6618 19.2209C31.5044 19.2101 31.3495 19.2567 31.1921 19.2417C30.8698 19.285 30.5459 19.2559 30.2236 19.2609C29.8946 19.2659 29.5648 19.2617 29.2359 19.2617H24.2324L24.2332 19.265ZM26.8766 17.0964H29.1634C29.534 17.0964 29.9055 17.1006 30.276 17.0956C30.6441 17.0906 31.0122 17.1172 31.3803 17.0773C31.447 17.0698 31.5111 17.0414 31.5794 17.0548C31.5844 17.0556 31.5902 17.0481 31.596 17.0456C31.676 17.0106 31.7634 16.9973 31.8475 16.9765C31.9008 16.9632 31.9525 16.944 32.0058 16.9307C32.0557 16.9182 32.1065 16.9032 32.1532 16.8857C32.2023 16.8674 32.254 16.8449 32.3023 16.8191C32.4014 16.7666 32.503 16.7166 32.6004 16.6617C32.7153 16.5967 32.8186 16.5151 32.9202 16.431C32.9627 16.396 32.9952 16.3477 33.0393 16.3161C33.0834 16.2853 33.1126 16.2436 33.1459 16.2053C33.2083 16.1329 33.2666 16.0571 33.3216 15.9788C33.4307 15.8231 33.514 15.6532 33.5839 15.4783C33.6139 15.4025 33.6406 15.3225 33.6589 15.2401C33.6722 15.176 33.6922 15.1102 33.7089 15.0452C33.7247 14.9861 33.7513 14.9295 33.7572 14.8687C33.7638 14.8095 33.7588 14.7504 33.7763 14.6904C33.7905 14.6396 33.7763 14.5813 33.7805 14.5264C33.7838 14.4706 33.7971 14.4148 33.7996 14.359C33.803 14.2799 33.8005 14.2008 33.8005 14.1216C33.8005 14.0425 33.803 13.9567 33.8005 13.8743C33.7971 13.7977 33.7863 13.7219 33.7805 13.6453C33.7772 13.5961 33.7863 13.5462 33.7605 13.4979C33.7455 13.4704 33.738 13.4354 33.7397 13.4038C33.7455 13.2863 33.6939 13.1806 33.6656 13.0723C33.6189 12.8974 33.5431 12.7317 33.4582 12.5693C33.3624 12.3852 33.245 12.2179 33.1084 12.0638C33.0226 11.968 32.926 11.8789 32.8236 11.8014C32.6687 11.6849 32.5055 11.5799 32.3239 11.5058C32.2023 11.4558 32.0857 11.3967 31.955 11.3667C31.8326 11.3384 31.7218 11.266 31.5894 11.271C31.5128 11.2326 31.4212 11.2518 31.3445 11.2093C31.2488 11.2243 31.1572 11.1885 31.0622 11.1885C29.6964 11.1885 28.3315 11.1885 26.9657 11.1885H26.8757V17.0956L26.8766 17.0964Z" fill="#084BA7"/>
<path d="M0.00146484 15.5974C0.0331648 15.6607 0.0822684 15.6707 0.125568 15.6699C0.220468 15.6682 0.306267 15.7015 0.395367 15.724C0.520367 15.7548 0.641867 15.7973 0.765167 15.8331C0.829267 15.8514 0.898365 15.8623 0.965065 15.8773C1.06247 15.8998 1.15737 15.9364 1.25487 15.9531C1.36477 15.9722 1.46477 16.0247 1.57967 16.0255C1.63127 16.0255 1.68787 16.0505 1.73707 16.0688C1.83867 16.1071 1.94686 16.1113 2.04766 16.1479C2.09926 16.1662 2.15507 16.1671 2.20507 16.1954C2.24007 16.2154 2.28507 16.2254 2.32587 16.2279C2.40247 16.232 2.47407 16.2479 2.54237 16.2845C2.55317 16.2903 2.56817 16.2912 2.58067 16.2912C2.66727 16.2903 2.74557 16.3286 2.82967 16.3436C2.85547 16.3478 2.88127 16.3536 2.90797 16.3595C2.92297 16.4286 2.89797 16.4927 2.88467 16.5602C2.86547 16.6551 2.83047 16.745 2.80637 16.8383C2.78887 16.9049 2.79137 16.9741 2.76727 17.039C2.76137 17.054 2.75477 17.0682 2.74977 17.0832C2.72057 17.1748 2.69057 17.2655 2.66317 17.3572C2.63317 17.4588 2.61237 17.5629 2.58397 17.6645C2.56317 17.7386 2.53987 17.8119 2.52237 17.8868C2.50577 17.9593 2.49237 18.0326 2.47577 18.105C2.47077 18.1267 2.46577 18.1492 2.45497 18.1683C2.40167 18.2607 2.40417 18.3673 2.37247 18.4648C2.36747 18.4798 2.35917 18.4939 2.35337 18.5089C2.33997 18.5422 2.32667 18.5747 2.32997 18.613C2.33497 18.6763 2.29257 18.7279 2.27917 18.7879C2.25837 18.8787 2.23087 18.9678 2.20677 19.0577C2.19927 19.0861 2.19007 19.1135 2.18677 19.1419C2.18347 19.1727 2.18677 19.2035 2.18677 19.2393C2.23927 19.2476 2.27757 19.2351 2.32497 19.206C2.39747 19.1627 2.46406 19.111 2.53736 19.0694C2.60736 19.0294 2.67647 18.9861 2.74557 18.9461C2.80137 18.9137 2.85796 18.8829 2.91376 18.8512C3.02286 18.7879 3.13116 18.7246 3.24026 18.6613C3.24606 18.658 3.24937 18.6497 3.25527 18.6472C3.37347 18.6014 3.47507 18.5264 3.58507 18.4648C3.70327 18.399 3.82067 18.3315 3.93647 18.2599C3.99057 18.2266 4.05057 18.2008 4.10637 18.1691C4.21797 18.1042 4.32957 18.0376 4.43947 17.9693C4.55687 17.896 4.68267 17.8377 4.80347 17.7702C4.91007 17.7094 5.01417 17.6436 5.11987 17.5812C5.17237 17.5495 5.22737 17.5229 5.27977 17.4904C5.39467 17.4188 5.51797 17.3613 5.63037 17.283C5.68207 17.2464 5.74536 17.2272 5.80276 17.1981C5.82106 17.1889 5.83697 17.1723 5.86027 17.154C5.76197 17.1181 5.67707 17.0673 5.58957 17.0607C5.48467 17.0532 5.39387 17.009 5.29477 16.9891C5.20987 16.9716 5.12736 16.9408 5.04156 16.9233C4.97246 16.9091 4.90507 16.8858 4.83587 16.8683C4.74517 16.845 4.65357 16.8242 4.56277 16.8C4.43787 16.7667 4.31287 16.7334 4.18797 16.7001C4.04477 16.6618 3.90067 16.6285 3.75827 16.586C3.63497 16.5493 3.51007 16.5119 3.37937 16.4935C3.27857 16.4794 3.17867 16.4452 3.08537 16.4036C3.03707 16.3819 2.99207 16.3736 2.93797 16.3728C2.93797 16.3386 2.92967 16.3103 2.95377 16.277C2.97127 16.2537 2.95377 16.2154 2.96877 16.1804C3.00037 16.1005 3.01707 16.0147 3.03957 15.9306C3.06117 15.8498 3.07457 15.7665 3.10367 15.6882C3.13037 15.6183 3.13447 15.5441 3.16367 15.475C3.17527 15.4484 3.17696 15.4184 3.18616 15.3909C3.18866 15.3817 3.20607 15.3751 3.20527 15.3684C3.19947 15.2577 3.27527 15.1636 3.26857 15.0536C3.29767 15.0037 3.29357 14.9429 3.32857 14.8912C3.35597 14.8513 3.37097 14.7946 3.37017 14.7447C3.36937 14.663 3.41346 14.5948 3.42266 14.5165C3.43096 14.4507 3.46347 14.3882 3.47507 14.3224C3.48757 14.2525 3.52007 14.1875 3.52927 14.1176C3.53757 14.0559 3.56167 14.0001 3.57917 13.9418C3.59757 13.8835 3.60507 13.8219 3.62247 13.7636C3.63417 13.7278 3.63837 13.6895 3.65997 13.6545C3.67747 13.6262 3.64837 13.5821 3.68167 13.5496C3.69167 13.5396 3.68327 13.5104 3.68327 13.4896C3.64337 13.4596 3.60917 13.4913 3.58417 13.5088C3.43517 13.612 3.27526 13.6978 3.11946 13.7911C2.95046 13.8927 2.77887 13.9918 2.61067 14.0951C2.47987 14.1759 2.34247 14.2491 2.20927 14.3274C2.08937 14.3974 1.97187 14.4723 1.85197 14.5431C1.79117 14.5789 1.72787 14.6114 1.66627 14.6456C1.55887 14.7047 1.45307 14.768 1.34977 14.8346C1.26067 14.8912 1.16327 14.9354 1.07167 14.9895C0.943367 15.0653 0.818466 15.1461 0.690166 15.2219C0.596066 15.2776 0.495365 15.3226 0.405365 15.3851C0.308765 15.4517 0.195568 15.4867 0.102268 15.5575C0.0780682 15.5758 0.0422648 15.5775 0.00566483 15.5883C-0.00433517 15.5358 0.0339654 15.5017 0.0531654 15.4659C0.107265 15.3668 0.171365 15.2735 0.230465 15.1769C0.311265 15.0453 0.390367 14.912 0.470367 14.7796C0.501967 14.7272 0.528665 14.6722 0.561165 14.6206C0.625265 14.5181 0.671068 14.404 0.731068 14.2983C0.800168 14.175 0.883467 14.0584 0.946667 13.9318C0.995867 13.8336 1.06246 13.747 1.11246 13.6495C1.16826 13.5413 1.23907 13.4405 1.30147 13.3347C1.34227 13.2656 1.37807 13.194 1.41727 13.124C1.48557 12.9999 1.55216 12.875 1.63206 12.7576C1.69286 12.6676 1.74037 12.5685 1.79537 12.4744C1.84527 12.3878 1.89857 12.3037 1.94937 12.2171C1.96857 12.1838 1.98107 12.1471 2.00017 12.1147C2.11517 11.914 2.21587 11.7058 2.34587 11.5125C2.40327 11.4276 2.44657 11.3335 2.49987 11.2461C2.53907 11.1828 2.57397 11.117 2.61727 11.0562C2.66147 10.9937 2.69057 10.9213 2.72887 10.8546C2.74637 10.8238 2.76307 10.7872 2.78967 10.7672C2.81887 10.7455 2.80467 10.7172 2.81717 10.6947C2.86717 10.6056 2.91127 10.5124 2.96627 10.4257C3.01627 10.3466 3.05537 10.2617 3.10617 10.1842C3.20107 10.0385 3.27027 9.87783 3.36767 9.73373C3.41267 9.66793 3.44017 9.59133 3.48007 9.52223C3.53177 9.43303 3.58757 9.34563 3.64167 9.25823C3.65337 9.23903 3.66746 9.22073 3.67826 9.20073C3.71326 9.13413 3.76577 9.10083 3.84317 9.10083C4.76507 9.10083 5.68707 9.10083 6.60897 9.10083C7.05947 9.10083 7.51007 9.10083 7.96057 9.10083C7.99057 9.10083 8.02217 9.10083 8.05057 9.10913C8.12547 9.12993 8.12547 9.13163 8.17797 9.22823C8.24707 9.35563 8.31946 9.48133 8.40026 9.60133C8.44276 9.66463 8.47357 9.73623 8.51107 9.80363C8.57187 9.91363 8.62927 10.0252 8.70257 10.1276C8.72257 10.1559 8.73756 10.1884 8.75426 10.22C8.81756 10.3391 8.88836 10.4549 8.95996 10.569C8.99406 10.6231 9.01987 10.6822 9.05237 10.7372C9.12647 10.8621 9.20557 10.9837 9.27307 11.1111C9.33637 11.2302 9.41217 11.341 9.47047 11.4634C9.53127 11.5908 9.62206 11.7033 9.68526 11.8298C9.73446 11.9281 9.80027 12.0156 9.85107 12.1122C9.90767 12.2204 9.97847 12.3212 10.0401 12.427C10.0818 12.4986 10.1151 12.576 10.1592 12.646C10.2467 12.7851 10.3233 12.9308 10.414 13.0682C10.4632 13.1432 10.5015 13.2248 10.5465 13.3031C10.6123 13.4172 10.6789 13.5313 10.7463 13.6437C10.7796 13.6987 10.808 13.7561 10.8404 13.8111C10.9154 13.9385 10.9895 14.0676 11.0661 14.1942C11.1319 14.3033 11.1894 14.419 11.2577 14.5273C11.3318 14.6447 11.3926 14.7696 11.4734 14.8829C11.5217 14.9504 11.5508 15.0295 11.5933 15.1019C11.6549 15.2077 11.7207 15.311 11.7832 15.4159C11.7915 15.4292 11.7957 15.4459 11.7965 15.4617C11.7982 15.4925 11.7948 15.5242 11.7973 15.5541C11.8015 15.5999 11.7815 15.6358 11.7599 15.6732C11.6816 15.8065 11.5941 15.9331 11.5208 16.0696C11.4575 16.1879 11.3893 16.3053 11.3226 16.4228C11.2468 16.556 11.1702 16.6901 11.0953 16.8242C11.0203 16.9591 10.9529 17.0982 10.8638 17.2256C10.8113 17.3005 10.7871 17.3955 10.7338 17.4704C10.6547 17.582 10.6172 17.7153 10.5323 17.8219C10.509 17.851 10.5057 17.8943 10.4857 17.926C10.4099 18.0459 10.3499 18.175 10.2666 18.2907C10.25 18.314 10.2425 18.3424 10.2292 18.3682C10.1417 18.5322 10.0584 18.698 9.96517 18.8579C9.89267 18.9828 9.82357 19.1085 9.75777 19.2376C9.74107 19.2701 9.71197 19.2951 9.69027 19.3217C7.22107 19.3217 4.75677 19.3217 2.29257 19.3217C2.25917 19.3217 2.22336 19.3217 2.19176 19.3134C2.10766 19.2901 2.10927 19.2859 2.06267 19.1976C2.00687 19.0927 1.95107 18.987 1.88447 18.8895C1.83277 18.8146 1.80037 18.7304 1.75537 18.6522C1.68957 18.5381 1.62877 18.4215 1.55547 18.3115C1.53637 18.2824 1.51967 18.2508 1.50387 18.2191C1.44557 18.1008 1.37227 17.9909 1.30567 17.8777C1.24987 17.7836 1.19906 17.6878 1.14326 17.5937C1.08076 17.4879 1.01587 17.3846 0.952568 17.2797C0.919268 17.2247 0.890066 17.1673 0.856766 17.1123C0.760166 16.9524 0.671866 16.7884 0.573666 16.6293C0.518666 16.5402 0.466166 16.4469 0.414566 16.3545C0.355466 16.2479 0.288767 16.1446 0.224667 16.0405C0.165567 15.9439 0.105566 15.8481 0.0456657 15.7523C0.0322657 15.7307 0.0122648 15.7099 0.00566483 15.6866C-0.00103517 15.6616 0.00396729 15.6341 0.00396729 15.5924L0.00146484 15.5974ZM3.74577 9.17073C3.74577 10.3941 3.74576 11.6125 3.74496 12.83C3.74496 12.9408 3.75326 13.0507 3.72906 13.1632C3.70916 13.2581 3.72497 13.3597 3.72497 13.4605C3.78487 13.4796 3.80907 13.5204 3.83067 13.5712C3.86067 13.6412 3.90487 13.7062 3.94477 13.7719C4.00807 13.8769 4.07387 13.9801 4.13547 14.0859C4.19627 14.1908 4.24627 14.3041 4.31457 14.404C4.41867 14.5564 4.49527 14.7238 4.59777 14.8771C4.63517 14.9329 4.66097 14.9953 4.69517 15.0536C4.75767 15.1594 4.82337 15.2627 4.88587 15.3676C4.91997 15.4251 4.94496 15.4892 4.98326 15.5441C5.05326 15.6449 5.10737 15.7557 5.17237 15.8589C5.20987 15.9181 5.23817 15.9839 5.27647 16.043C5.38307 16.2079 5.47967 16.3794 5.57707 16.5493C5.66037 16.6942 5.75037 16.835 5.82777 16.9832C5.84947 17.024 5.88107 17.0607 5.91187 17.104C5.93437 17.0807 5.95687 17.064 5.97017 17.0415C6.00097 16.9891 6.02517 16.9333 6.05427 16.88C6.09177 16.8125 6.12757 16.7434 6.17177 16.6809C6.25337 16.5643 6.31827 16.4386 6.38657 16.3145C6.42577 16.2445 6.46157 16.1729 6.50237 16.1038C6.56227 16.0005 6.62806 15.9014 6.68476 15.7965C6.74466 15.6866 6.82967 15.5908 6.86957 15.47C6.87127 15.4642 6.88047 15.4609 6.88377 15.455C6.95287 15.3459 7.02287 15.2377 7.08947 15.1261C7.13027 15.0578 7.15857 14.9812 7.20187 14.9145C7.28767 14.7821 7.36017 14.6414 7.44257 14.5073C7.47757 14.4498 7.50507 14.3882 7.53917 14.3308C7.59747 14.2308 7.66407 14.135 7.71737 14.0318C7.78907 13.8919 7.87897 13.7619 7.94897 13.6212C7.97727 13.5629 8.01967 13.5121 8.05387 13.4613C8.09547 13.4738 8.12877 13.498 8.13127 13.5313C8.13467 13.5779 8.14967 13.6212 8.15547 13.667C8.16047 13.707 8.15127 13.7453 8.19127 13.7778C8.21127 13.7953 8.21626 13.8369 8.21786 13.8677C8.22126 13.9468 8.25287 14.0193 8.26867 14.0951C8.28867 14.1892 8.34787 14.2725 8.34367 14.3732C8.38697 14.3982 8.34197 14.4557 8.38447 14.4807C8.37867 14.5614 8.44276 14.6289 8.42776 14.7113C8.42606 14.7197 8.43027 14.7338 8.43607 14.738C8.48687 14.7705 8.45526 14.8338 8.48936 14.8712C8.47106 14.9512 8.52857 15.0145 8.54107 15.0878C8.55607 15.1752 8.59017 15.2602 8.61347 15.3468C8.62347 15.3842 8.62517 15.4242 8.63597 15.4617C8.64597 15.495 8.66597 15.525 8.67597 15.5583C8.68677 15.5958 8.68847 15.6358 8.69847 15.6732C8.70847 15.7099 8.72677 15.7449 8.73677 15.7815C8.76087 15.8648 8.78337 15.9489 8.80087 16.0338C8.82087 16.1346 8.85247 16.232 8.89247 16.3303C8.91917 16.3303 8.95907 16.342 8.97077 16.3278C9.00237 16.2912 9.05657 16.332 9.08157 16.2895C9.12397 16.3028 9.16227 16.2778 9.19567 16.2645C9.23557 16.2487 9.27637 16.2587 9.31217 16.2445C9.42967 16.1996 9.55127 16.1679 9.67287 16.1363C9.72527 16.1221 9.77607 16.0946 9.82777 16.0855C9.95597 16.0621 10.0776 16.018 10.2017 15.9839C10.3074 15.9547 10.414 15.9306 10.519 15.8981C10.6114 15.8698 10.708 15.8531 10.7996 15.8223C10.8937 15.7907 10.9903 15.7623 11.0853 15.7365C11.2377 15.6949 11.3901 15.6516 11.5417 15.6074C11.5766 15.5974 11.6099 15.5816 11.6474 15.5875C11.7041 15.5958 11.7349 15.5666 11.764 15.5125C11.744 15.4967 11.7265 15.4784 11.7066 15.4667C11.6025 15.4092 11.4984 15.3526 11.3926 15.2976C11.301 15.2502 11.2144 15.1952 11.1228 15.1486C11.072 15.1227 11.0195 15.0953 10.9712 15.0628C10.8688 14.9945 10.758 14.9395 10.6539 14.8754C10.5723 14.8254 10.4807 14.7896 10.3999 14.7372C10.3483 14.703 10.2916 14.6789 10.2392 14.6472C10.1151 14.5723 9.99097 14.4956 9.86187 14.429C9.83937 14.4174 9.81606 14.4049 9.79436 14.3924C9.68526 14.3291 9.57787 14.2641 9.46797 14.2025C9.38967 14.1584 9.30307 14.1267 9.23057 14.0759C9.17897 14.0393 9.12317 14.016 9.07067 13.9835C8.98747 13.9327 8.90827 13.876 8.82167 13.8319C8.68677 13.7628 8.55607 13.6878 8.42527 13.6112C8.32537 13.5529 8.22377 13.4946 8.12467 13.4355C8.10387 13.423 8.09467 13.4038 8.09387 13.3755C8.08967 13.179 8.11127 12.9808 8.07387 12.7851C8.07387 11.6283 8.07387 10.4724 8.07387 9.31563C8.07387 9.28983 8.06637 9.26403 8.08797 9.23823C8.10797 9.21403 8.09547 9.18573 8.06967 9.16903C8.04307 9.15243 8.01887 9.15993 7.99887 9.18403C7.96057 9.23073 7.92396 9.27903 7.88066 9.32143C7.52836 9.67293 7.17527 10.0227 6.82217 10.3733C6.54477 10.6481 6.26917 10.9246 5.99017 11.1978C5.93767 11.2486 5.94357 11.2719 5.99097 11.321C6.10007 11.4334 6.22667 11.53 6.31577 11.6608C6.36247 11.6675 6.35577 11.7299 6.39577 11.7391C6.43657 11.7491 6.45656 11.7807 6.48236 11.8065C6.97786 12.2979 7.47257 12.7892 7.96807 13.2814C7.98307 13.2964 8.00307 13.3081 8.01137 13.3256C8.02807 13.3622 8.06797 13.3872 8.07547 13.4372C6.70967 13.4372 5.35227 13.4372 3.99397 13.438C3.97567 13.438 3.95817 13.4521 3.93977 13.4571C3.92977 13.4596 3.91897 13.4571 3.90897 13.4571C3.88147 13.4571 3.85317 13.4571 3.82567 13.4571C3.82237 13.4571 3.81907 13.4555 3.81657 13.4538C3.81407 13.4521 3.81157 13.4488 3.80907 13.4463V13.3839C3.83817 13.3547 3.86737 13.3264 3.89737 13.2972C3.92647 13.2681 3.95727 13.2398 3.98557 13.2098C4.01477 13.1782 4.05557 13.1548 4.06637 13.109C4.11217 13.1032 4.13217 13.0632 4.16047 13.0357C4.37537 12.8184 4.59937 12.6102 4.80177 12.3812C4.97247 12.1888 5.16907 12.0222 5.33977 11.8282C5.51377 11.6308 5.70697 11.4509 5.89357 11.261C5.86527 11.2336 5.84197 11.2094 5.81777 11.1861C5.17817 10.5507 4.53857 9.91613 3.89897 9.27983C3.87067 9.25233 3.83737 9.22903 3.82317 9.18743C3.81407 9.16073 3.78327 9.15323 3.74657 9.16653L3.74577 9.17073ZM5.95357 17.1506C5.97767 17.1748 5.98767 17.1898 6.00097 17.1973C6.09757 17.2472 6.19587 17.2939 6.29327 17.3447C6.34497 17.3713 6.39487 17.4013 6.44407 17.4321C6.49397 17.4629 6.53896 17.5037 6.59056 17.5295C6.73216 17.5995 6.86207 17.6894 7.00117 17.7644C7.12857 17.8327 7.25357 17.9093 7.37757 17.9851C7.43257 18.0184 7.49257 18.0426 7.54747 18.075C7.65657 18.1392 7.76237 18.2074 7.87147 18.2707C7.94057 18.3107 8.01887 18.3374 8.08467 18.3823C8.26127 18.5031 8.45357 18.5964 8.63517 18.708C8.70347 18.7496 8.78007 18.7812 8.84417 18.8279C8.91327 18.8779 8.99247 18.9062 9.06407 18.9528C9.14147 19.0036 9.22556 19.0461 9.30556 19.0944C9.38466 19.1427 9.47127 19.1818 9.54707 19.236C9.57617 19.2568 9.61787 19.226 9.63947 19.2643C9.64697 19.2584 9.65867 19.2534 9.66037 19.246C9.66537 19.2285 9.67447 19.2051 9.66787 19.191C9.64697 19.146 9.64537 19.0944 9.62617 19.0536C9.60707 19.0136 9.63037 18.9536 9.57457 18.9287C9.56787 18.9262 9.57207 18.9037 9.56877 18.8912C9.55877 18.8462 9.54787 18.8021 9.54537 18.7554C9.54287 18.7121 9.52287 18.6697 9.50547 18.628C9.47627 18.5564 9.46707 18.4789 9.44467 18.4057C9.41377 18.3082 9.38887 18.2083 9.36057 18.11C9.34807 18.0675 9.32467 18.0259 9.32137 17.9826C9.31807 17.9426 9.31307 17.9026 9.29727 17.8677C9.27387 17.8177 9.26307 17.7644 9.24227 17.7153C9.23057 17.6869 9.23397 17.6578 9.22557 17.6295C9.20807 17.5712 9.18567 17.5137 9.17477 17.4538C9.16317 17.3863 9.14397 17.323 9.12147 17.2589C9.08907 17.1689 9.04907 17.0782 9.04817 16.9791C9.04817 16.9607 9.03737 16.9424 9.03077 16.9249C9.02327 16.9041 9.01157 16.8833 9.00827 16.8625C8.99157 16.7509 8.94577 16.6459 8.92327 16.536C8.91327 16.4902 8.88997 16.4469 8.87167 16.3994C8.83257 16.3994 8.78426 16.3869 8.74586 16.4019C8.67346 16.4294 8.59937 16.4502 8.52607 16.4719C8.43607 16.4977 8.34367 16.5152 8.25377 16.5418C8.17957 16.5635 8.10297 16.5777 8.02887 16.601C7.96057 16.6218 7.89226 16.6501 7.81816 16.6451C7.80396 16.6443 7.78817 16.6559 7.77407 16.6618C7.75317 16.6701 7.73237 16.6809 7.71077 16.6851C7.59827 16.7042 7.49087 16.7409 7.38177 16.7709C7.32517 16.7859 7.27187 16.8092 7.21107 16.8117C7.17027 16.8133 7.13027 16.8325 7.09027 16.845C6.97867 16.8775 6.86707 16.9099 6.75387 16.9349C6.66557 16.9541 6.57897 16.9816 6.49237 17.0057C6.42987 17.0232 6.36907 17.0524 6.30667 17.0557C6.18587 17.0623 6.07927 17.1048 5.95357 17.154V17.1506Z" fill="#084BA7"/>
<path d="M16.1838 19.2652V19.1586C16.1838 16.5636 16.1838 13.9686 16.1838 11.3736C16.1838 11.2495 16.1846 11.2503 16.0597 11.2503C14.5832 11.2503 13.1066 11.2503 11.63 11.2503H11.5259V9.08248C11.6184 9.08248 11.7142 9.06748 11.8024 9.08668C11.9115 9.11078 12.0198 9.10248 12.1272 9.10248C15.7732 9.10418 19.4192 9.10328 23.0653 9.10418C23.1502 9.10418 23.2301 9.07338 23.3168 9.08088C23.4025 9.08838 23.49 9.08248 23.5799 9.08248C23.6107 9.31988 23.5633 9.55558 23.5658 9.79288C23.5683 10.0369 23.5658 10.2818 23.5658 10.5258V11.2511H23.4583C21.9926 11.2511 20.526 11.2511 19.0603 11.2511C19.0212 11.2511 18.9762 11.2362 18.9487 11.2836V16.0822C18.9079 16.4228 18.9329 16.7651 18.9287 17.1066C18.9246 17.4539 18.9279 17.802 18.9279 18.1492V19.1819C18.9279 19.1961 18.9329 19.2119 18.9271 19.2227C18.9179 19.2386 18.9046 19.2569 18.8887 19.2627C18.8704 19.2694 18.8479 19.2644 18.8271 19.2644H16.183L16.1838 19.2652Z" fill="#084BA7"/>
<path d="M36.9893 19.286C36.9859 19.2493 36.9451 19.2252 36.9809 19.1843C36.9968 19.1669 36.9834 19.1244 36.9834 19.0936V9.08254C37.0767 9.08254 37.1683 9.06833 37.2541 9.08503C37.4282 9.11913 37.6022 9.09993 37.7763 9.10163C38.251 9.10583 38.7257 9.10413 39.2012 9.10163C39.2745 9.10163 39.3478 9.08584 39.421 9.08254C39.4935 9.07914 39.5668 9.08254 39.6392 9.08254H39.7075V9.18574C39.7075 12.5111 39.7075 15.8356 39.7075 19.161C39.7075 19.2818 39.7142 19.2868 39.5859 19.286C38.7232 19.2851 37.8604 19.286 36.9893 19.286Z" fill="#084BA7"/>
</g>
<path d="M41.3616 27.3195C41.0976 27.3606 40.8327 27.3358 40.5679 27.34C40.3004 27.3443 40.033 27.3409 39.7655 27.3409H38.9632C38.9418 27.3409 38.9204 27.3409 38.8989 27.3409C38.8526 27.3426 38.8398 27.3572 38.8355 27.4026C38.8252 27.5132 38.8466 27.6186 38.8869 27.7215C38.9041 27.7643 38.9186 27.8081 38.9324 27.8518C38.9504 27.9109 38.9924 27.9564 39.0301 28.0026C39.1561 28.1595 39.3078 28.2769 39.5135 28.3215C39.6644 28.3541 39.8153 28.3301 39.9653 28.3404C40.0621 28.3069 40.1607 28.2769 40.2481 28.2238C40.3716 28.1484 40.4556 28.0369 40.5267 27.9152C40.5499 27.8758 40.561 27.8303 40.5764 27.7909H41.3239C41.2768 27.8972 41.2356 28.0001 41.1867 28.0986C41.1182 28.2375 41.0342 28.3652 40.9322 28.4835C40.813 28.6224 40.6682 28.721 40.5053 28.7938C40.3639 28.8573 40.2104 28.8924 40.063 28.9395C39.9207 28.9858 39.7818 28.9713 39.6404 28.9755C39.5975 28.9773 39.5538 28.9601 39.5101 28.9567C39.4638 28.9533 39.4132 28.9678 39.3721 28.9533C39.2658 28.9173 39.1561 28.8941 39.0507 28.853C38.9332 28.8067 38.8355 28.733 38.7318 28.6687C38.6238 28.6018 38.5355 28.5092 38.4541 28.4132C38.3546 28.2967 38.2775 28.1638 38.2158 28.0232C38.1515 27.8784 38.0932 27.7326 38.0623 27.5758C38.0529 27.5286 38.0443 27.4823 38.0443 27.4352C38.0443 27.2655 38.046 27.0949 38.0435 26.9252C38.0426 26.8523 38.058 26.7846 38.0812 26.7169C38.0898 26.6912 38.0838 26.662 38.088 26.6346C38.0923 26.6089 38.0992 26.5823 38.1095 26.5583C38.1618 26.4306 38.1866 26.2934 38.2578 26.1726C38.3075 26.0886 38.3546 26.0037 38.4223 25.9317C38.4626 25.8888 38.4952 25.8391 38.5372 25.7988C38.7009 25.6403 38.8921 25.5203 39.1012 25.4328C39.1947 25.3934 39.2958 25.3557 39.403 25.3608C39.4098 25.3608 39.4184 25.3634 39.4244 25.3608C39.5547 25.2862 39.6987 25.3145 39.8341 25.324C39.9447 25.3317 40.0578 25.36 40.1667 25.3934C40.2721 25.426 40.369 25.4731 40.4659 25.522C40.5661 25.5725 40.6604 25.63 40.741 25.7097C40.7676 25.7354 40.8044 25.7517 40.8293 25.7783C40.975 25.9343 41.095 26.1083 41.185 26.3011C41.2236 26.3843 41.2356 26.4777 41.2759 26.5617C41.2819 26.5729 41.2759 26.59 41.2776 26.6037C41.2836 26.644 41.2639 26.6869 41.2913 26.7254C41.3153 26.7597 41.2836 26.8052 41.3179 26.8429C41.3333 26.86 41.3205 26.902 41.3385 26.9329C41.3393 26.8995 41.3385 26.866 41.3428 26.8334C41.3436 26.824 41.3565 26.8146 41.3633 26.806V27.316L41.3616 27.3195ZM40.5884 26.8094C40.603 26.7092 40.5481 26.6277 40.5421 26.5377C40.4616 26.3766 40.3741 26.2206 40.2318 26.1031C40.1907 26.0688 40.147 26.0346 40.0981 26.014C40.0218 25.9823 39.9421 25.9454 39.8624 25.942C39.7484 25.9368 39.6344 25.9291 39.5178 25.9557C39.3421 25.9951 39.2041 26.0886 39.0747 26.2017C39.0669 26.2086 39.0575 26.2154 39.0524 26.224C39.0232 26.2771 38.9812 26.3226 38.9478 26.3731C38.9161 26.422 38.9058 26.4829 38.8784 26.5352C38.8312 26.6243 38.8304 26.7152 38.8406 26.8103L40.5884 26.8094Z" fill="#084BA7"/>
<path d="M23.1196 27.2783H23.9982C23.9982 27.3254 24.0034 27.3708 23.9974 27.4154C23.9854 27.5071 24.0085 27.5937 24.0471 27.6717C24.1036 27.7891 24.1568 27.9126 24.2648 27.9966C24.402 28.1046 24.5502 28.1851 24.7217 28.2366C24.9334 28.3 25.146 28.3009 25.3603 28.294C25.4597 28.2906 25.56 28.2666 25.6543 28.2314C25.788 28.1817 25.9149 28.12 26.0117 28.0103C26.0597 27.9563 26.1 27.8654 26.1429 27.7883C26.1926 27.6991 26.19 27.6074 26.1797 27.5174C26.1652 27.3803 26.1172 27.2525 26.0203 27.148C25.9714 27.0957 25.908 27.0674 25.8412 27.04C25.6731 26.9705 25.4991 26.9191 25.326 26.8642C25.2317 26.8342 25.1348 26.8077 25.0371 26.7854C24.924 26.7597 24.8083 26.7434 24.7028 26.6894C24.6968 26.6868 24.6908 26.6808 24.6848 26.6808C24.546 26.6825 24.4285 26.6122 24.3008 26.5745C24.2057 26.5462 24.1114 26.5179 24.0239 26.4682C23.9065 26.4005 23.7874 26.3362 23.6922 26.2376C23.6271 26.1699 23.5491 26.1125 23.5036 26.0285C23.4582 25.9445 23.4153 25.8596 23.3793 25.7713C23.3639 25.7319 23.3913 25.6813 23.3562 25.6428C23.3716 25.5656 23.3305 25.4945 23.3339 25.4173C23.3373 25.3393 23.3219 25.2587 23.3382 25.1842C23.3588 25.0916 23.3819 24.999 23.4136 24.9081C23.4891 24.6947 23.6433 24.5447 23.8036 24.3998C23.8851 24.327 23.9802 24.2627 24.0796 24.2164C24.2134 24.1538 24.3505 24.0947 24.498 24.0638C24.5845 24.045 24.672 24.033 24.7577 24.0175C24.8563 23.9995 24.9523 24.0064 25.0491 24.0021C25.1451 23.9978 25.242 24.0013 25.338 24.0021C25.3517 24.0021 25.374 23.9978 25.3791 24.0047C25.4083 24.0458 25.4486 24.0441 25.4914 24.0458C25.5283 24.0475 25.5643 24.0647 25.6003 24.0647C25.7177 24.0664 25.8214 24.1153 25.9286 24.1513C26.0332 24.1864 26.1275 24.2404 26.22 24.2996C26.2569 24.3227 26.2963 24.3441 26.3289 24.3724C26.4163 24.4478 26.5072 24.5207 26.5843 24.6064C26.706 24.741 26.7858 24.9021 26.8432 25.0736C26.8466 25.083 26.8466 25.0942 26.8466 25.1044C26.8458 25.2004 26.8638 25.2922 26.8878 25.3847C26.8989 25.4276 26.8895 25.4765 26.8895 25.5227C26.8038 25.5382 26.3143 25.5425 26.0537 25.5296C26.0717 25.4156 26.0237 25.3136 25.9929 25.2073C25.9792 25.1593 25.9509 25.1233 25.9252 25.0864C25.8454 24.9716 25.7494 24.8704 25.6191 24.8121C25.5257 24.7701 25.4314 24.7256 25.3234 24.7247C25.2908 24.7247 25.2566 24.7161 25.2257 24.7041C25.1194 24.6621 25.0071 24.6741 24.9034 24.6887C24.7774 24.7067 24.6514 24.7419 24.5331 24.7993C24.4465 24.8413 24.3642 24.8841 24.2982 24.9527C24.2159 25.0376 24.1619 25.137 24.1705 25.2613C24.1731 25.2965 24.1731 25.3325 24.1705 25.3676C24.1611 25.4842 24.2159 25.5767 24.2879 25.659C24.3694 25.7525 24.4688 25.8185 24.5897 25.8579C24.6454 25.8759 24.6977 25.9076 24.7577 25.917C24.8143 25.9256 24.8691 25.9453 24.9205 25.9633C25.0268 26.0011 25.1391 26.0165 25.2454 26.0559C25.3071 26.0791 25.374 26.0885 25.4383 26.1065C25.56 26.1408 25.6834 26.1673 25.8034 26.2068C25.8952 26.2368 25.9912 26.2531 26.0837 26.2788C26.1309 26.2916 26.1789 26.3079 26.2235 26.3294C26.37 26.4005 26.5098 26.4794 26.6263 26.5977C26.7163 26.6894 26.8029 26.7828 26.8672 26.8925C26.9358 27.01 26.9932 27.1342 26.9975 27.2748C27.0369 27.3391 27.0146 27.4103 27.0181 27.4788C27.0215 27.5491 27.0301 27.6228 27.0163 27.6906C26.9923 27.8071 26.9923 27.928 26.9358 28.0394C26.8818 28.1457 26.8201 28.2469 26.7618 28.3497C26.7549 28.3617 26.742 28.3703 26.7318 28.3797C26.6915 28.42 26.6426 28.4552 26.6143 28.5023C26.5886 28.5452 26.5218 28.5494 26.5209 28.6103C26.412 28.6609 26.3272 28.7483 26.2097 28.7886C26.1223 28.8186 26.0374 28.858 25.9483 28.8786C25.8506 28.9 25.758 28.9378 25.6594 28.9592C25.59 28.9746 25.5206 28.9652 25.4537 28.9789C25.2574 29.0192 25.0594 28.9875 24.8631 28.9978C24.822 28.9995 24.7834 28.9943 24.7423 28.9798C24.6762 28.9566 24.6051 28.9463 24.5357 28.9352C24.4165 28.9155 24.3025 28.8855 24.1902 28.84C24.0179 28.7706 23.8671 28.6686 23.7162 28.5623C23.5911 28.474 23.5113 28.3523 23.4213 28.2366C23.3622 28.1611 23.3168 28.0729 23.2773 27.988C23.2465 27.9211 23.2019 27.8543 23.1916 27.7797C23.1813 27.706 23.1513 27.6331 23.1633 27.5568C23.165 27.5465 23.1685 27.532 23.1633 27.526C23.1016 27.4548 23.1256 27.3691 23.1205 27.2791L23.1196 27.2783Z" fill="#084BA7"/>
<path d="M19.0749 27.7864C19.0723 27.8267 19.0714 27.8533 19.056 27.8841C19.0054 27.9904 18.9617 28.1001 18.9051 28.2047C18.858 28.2904 18.8014 28.3684 18.7448 28.4473C18.6608 28.5639 18.5434 28.6367 18.4294 28.7156C18.3437 28.7747 18.2511 28.8184 18.1525 28.8476C18.0702 28.8716 17.9914 28.9093 17.9039 28.9213C17.8834 28.9239 17.8585 28.9307 17.8354 28.9342C17.8217 28.9359 17.8011 28.9333 17.7959 28.941C17.7599 28.9924 17.7077 28.9753 17.6605 28.9762C17.5748 28.9779 17.4891 28.9727 17.4034 28.9779C17.2748 28.9847 17.1556 28.9504 17.0322 28.9204C16.8325 28.8724 16.6627 28.7722 16.499 28.6599C16.3122 28.5313 16.169 28.3616 16.0602 28.1636C15.995 28.0453 15.9367 27.9244 15.9007 27.7933C15.8759 27.7032 15.8407 27.6158 15.8416 27.5198C15.8416 27.5035 15.8416 27.4821 15.8321 27.471C15.791 27.4238 15.7996 27.3681 15.7987 27.3141C15.7987 27.2009 15.8013 27.0869 15.797 26.9738C15.7953 26.9172 15.8099 26.8658 15.8253 26.8144C15.8416 26.7603 15.857 26.7063 15.8639 26.6489C15.8759 26.5469 15.9033 26.4458 15.9504 26.3558C16.0156 26.2298 16.0653 26.0943 16.1622 25.9855C16.1776 25.9683 16.187 25.9452 16.2033 25.928C16.2402 25.8895 16.2847 25.8569 16.3147 25.814C16.3422 25.7737 16.3833 25.7532 16.4142 25.7197C16.4999 25.6254 16.6079 25.5594 16.7202 25.5037C16.853 25.4377 16.9953 25.3949 17.1411 25.3571C17.2825 25.3211 17.4222 25.3229 17.5636 25.3203C17.6065 25.3203 17.6614 25.304 17.6888 25.3246C17.7265 25.352 17.7771 25.3194 17.8028 25.3631C17.8945 25.3546 17.9717 25.4034 18.054 25.4274C18.0917 25.4386 18.1328 25.4489 18.1637 25.4703C18.2485 25.5303 18.3463 25.5706 18.4251 25.6409C18.4834 25.6932 18.5537 25.7317 18.6094 25.7857C18.6703 25.8457 18.72 25.9169 18.7748 25.982C18.8726 26.0977 18.9266 26.2375 18.9883 26.372C19.0329 26.4689 19.062 26.5701 19.0749 26.6763C19.0791 26.7158 19.0783 26.7629 19.0989 26.7929C19.122 26.8272 19.1169 26.8589 19.1169 26.8924C19.1186 27.0449 19.1169 27.1967 19.1169 27.3569C18.9763 27.3638 18.8348 27.3561 18.6934 27.3612C18.5563 27.3664 18.4225 27.3304 18.2845 27.3372C18.1422 27.3449 17.9991 27.3389 17.8568 27.3389H16.5882C16.5993 27.3964 16.5693 27.453 16.6122 27.5018C16.5959 27.5978 16.6465 27.6767 16.6748 27.7624C16.7108 27.8695 16.7639 27.9638 16.8419 28.0444C16.9345 28.1413 17.0305 28.2321 17.1616 28.2784C17.2413 28.3067 17.3185 28.3384 17.4042 28.3376C17.4831 28.3376 17.5611 28.3333 17.6399 28.3376C17.7822 28.3461 17.9022 28.2853 18.0205 28.2227C18.1448 28.1567 18.222 28.0393 18.2991 27.9261C18.3154 27.903 18.3223 27.8704 18.3248 27.8413C18.3283 27.795 18.3531 27.7838 18.3943 27.7838C18.5297 27.7847 18.6651 27.7838 18.8006 27.7838H19.0749V27.7864ZM18.3437 26.8049C18.3548 26.7149 18.3317 26.6361 18.3077 26.5529C18.2545 26.3695 18.1448 26.2272 18.0085 26.1038C17.9614 26.0609 17.9031 26.024 17.8397 25.9992C17.7162 25.952 17.5911 25.928 17.4591 25.9357C17.3939 25.94 17.3296 25.9332 17.2645 25.9563C17.1702 25.9889 17.0811 26.0309 16.9953 26.0797C16.9542 26.1029 16.9173 26.1355 16.883 26.1698C16.847 26.2058 16.8136 26.246 16.7845 26.288C16.7313 26.3635 16.6833 26.4415 16.6533 26.5315C16.6413 26.5666 16.6473 26.6069 16.625 26.6361C16.5865 26.6875 16.589 26.7432 16.595 26.8049H18.3437Z" fill="#084BA7"/>
<path d="M29.8967 27.7865C30.0938 27.7865 30.2936 27.7873 30.4924 27.7856C30.5224 27.7856 30.5447 27.795 30.5696 27.8079C30.6201 27.8353 30.6201 27.8371 30.6021 27.8946C30.5499 28.0592 30.4736 28.2125 30.3733 28.3531C30.2798 28.4834 30.1684 28.6008 30.0338 28.6891C29.9353 28.7542 29.8315 28.8143 29.7158 28.8503C29.6721 28.864 29.6275 28.8795 29.5838 28.8923C29.5392 28.9061 29.4955 28.9223 29.4501 28.9309C29.3901 28.9429 29.3284 28.9565 29.2684 28.954C29.2169 28.9514 29.1758 28.9798 29.1269 28.9781C29.0807 28.9763 29.0344 28.9806 28.9881 28.9772C28.9375 28.9738 28.8869 28.9609 28.8364 28.9575C28.7866 28.9541 28.7326 28.9685 28.6872 28.9548C28.5003 28.8982 28.3143 28.8434 28.148 28.7328C28.0032 28.6368 27.8806 28.5186 27.7675 28.3909C27.65 28.2589 27.5763 28.0986 27.5052 27.9366C27.4606 27.8354 27.4477 27.7273 27.4032 27.627C27.3929 27.603 27.3989 27.5705 27.4023 27.543C27.4066 27.5036 27.3946 27.4694 27.3791 27.4351C27.3723 27.4206 27.3603 27.405 27.3603 27.3905C27.3586 27.2807 27.3474 27.1693 27.3637 27.0613C27.3766 26.9782 27.3732 26.8967 27.3826 26.8144C27.3972 26.6859 27.4229 26.5565 27.4717 26.4374C27.5043 26.3594 27.5326 26.2771 27.5763 26.2042C27.6372 26.1039 27.6946 26.0002 27.7786 25.9145C27.8223 25.8699 27.8549 25.8151 27.9012 25.7748C28.0358 25.6565 28.1772 25.5442 28.3418 25.473C28.4566 25.4233 28.5783 25.3899 28.7018 25.359C28.8364 25.3248 28.9684 25.3282 29.1029 25.3205C29.2392 25.3119 29.3661 25.3547 29.4921 25.3898C29.6772 25.4412 29.8281 25.5269 29.961 25.623C30.135 25.749 30.2824 25.9042 30.4016 26.0868C30.4693 26.1905 30.5104 26.3044 30.567 26.4124C30.5687 26.415 30.5713 26.4185 30.5713 26.4211C30.5567 26.5188 30.6133 26.6054 30.6167 26.7014C30.6184 26.7511 30.6416 26.8 30.6356 26.8522C30.6356 26.8557 30.6339 26.8617 30.6356 26.8625C30.7102 26.9191 30.6724 26.9987 30.6767 27.0682C30.6819 27.1633 30.6784 27.2593 30.6784 27.363H30.5841C30.4376 27.363 30.2893 27.3786 30.1461 27.3597C29.9413 27.3331 29.7381 27.3467 29.5341 27.3425C29.3241 27.3382 29.1132 27.3416 28.9024 27.3416H28.2818C28.2569 27.3416 28.232 27.3416 28.2072 27.3416C28.1729 27.3416 28.1532 27.3623 28.1549 27.3923C28.1583 27.436 28.1438 27.478 28.1703 27.5243C28.1918 27.5611 28.1746 27.615 28.1935 27.663C28.2449 27.7968 28.2998 27.9245 28.3898 28.0402C28.4421 28.1071 28.4978 28.1663 28.5672 28.2066C28.6315 28.2443 28.7052 28.27 28.7729 28.3026C28.8501 28.3403 28.9246 28.3411 29.0035 28.3411C29.0395 28.3411 29.0747 28.3411 29.1107 28.3411C29.1784 28.3411 29.2504 28.3548 29.3129 28.3368C29.3721 28.3205 29.427 28.288 29.4904 28.2743C29.5272 28.2666 29.559 28.2349 29.5924 28.2126C29.679 28.156 29.793 28.0352 29.8435 27.9383C29.8658 27.8946 29.8778 27.8457 29.8984 27.7874L29.8967 27.7865ZM29.907 26.8068C29.907 26.7477 29.8993 26.698 29.8898 26.6474C29.8778 26.584 29.8607 26.5248 29.8324 26.4682C29.7201 26.2497 29.7038 26.2462 29.547 26.0988C29.4338 25.9925 29.2932 25.9531 29.1441 25.9376C29.0909 25.9316 29.0369 25.9419 28.9838 25.9359C28.8586 25.9214 28.7515 25.9771 28.6461 26.0242C28.5329 26.0756 28.4326 26.1562 28.3598 26.2565C28.3203 26.3105 28.2758 26.3637 28.2535 26.4357C28.2338 26.5008 28.214 26.5694 28.1866 26.6302C28.1592 26.6902 28.1498 26.7434 28.1549 26.8068H29.907Z" fill="#084BA7"/>
<path d="M34.6603 27.7446C34.9123 27.7446 35.1575 27.7446 35.4035 27.7446C35.4575 27.7446 35.4721 27.7592 35.4738 27.8097C35.4815 27.9923 35.5903 28.1329 35.7241 28.2135C35.8226 28.2735 35.9324 28.2975 36.0378 28.3352C36.0506 28.3395 36.0652 28.3395 36.0789 28.3395C36.1895 28.3395 36.3027 28.3532 36.4098 28.336C36.5564 28.312 36.7064 28.294 36.8333 28.1955C36.895 28.1475 36.9284 28.0866 36.9713 28.0283C37.0064 27.9812 36.9953 27.922 36.9927 27.868C36.9901 27.8166 36.9627 27.7712 36.9293 27.736C36.8753 27.6777 36.8195 27.6203 36.7518 27.5749C36.7055 27.544 36.655 27.5294 36.6061 27.5132C36.5787 27.5037 36.5478 27.5003 36.5195 27.49C36.4561 27.4677 36.3944 27.4463 36.3241 27.442C36.2641 27.4377 36.1989 27.418 36.1389 27.4009C36.0721 27.382 35.9984 27.388 35.9366 27.3469C35.9169 27.3331 35.8818 27.3451 35.8544 27.3409C35.8286 27.3366 35.8029 27.328 35.7772 27.3203C35.6538 27.2843 35.5286 27.2543 35.4078 27.2046C35.2903 27.1557 35.1806 27.0966 35.0743 27.0263C35.0015 26.9783 34.9526 26.9157 34.9055 26.8497C34.8669 26.7965 34.8455 26.7314 34.8086 26.6774C34.7709 26.6225 34.7829 26.554 34.7469 26.5C34.7374 26.4854 34.7452 26.4588 34.7452 26.4374C34.7452 26.3491 34.7503 26.26 34.7434 26.1717C34.7392 26.1211 34.7537 26.0731 34.7717 26.0337C34.8172 25.9342 34.8652 25.8322 34.944 25.7542C35.0117 25.6882 35.0915 25.6325 35.1695 25.5768C35.2758 25.5013 35.3966 25.4525 35.5201 25.4165C35.6066 25.3916 35.6932 25.3556 35.7875 25.3625C35.8012 25.3633 35.8235 25.3668 35.8286 25.3599C35.8766 25.2931 35.9461 25.3239 36.0052 25.3213C36.1158 25.3171 36.2264 25.3196 36.3369 25.3205C36.3952 25.3205 36.4552 25.3102 36.505 25.3548C36.5118 25.3608 36.5238 25.3633 36.5332 25.3625C36.6387 25.3531 36.7312 25.4002 36.8273 25.4276C36.9713 25.4679 37.1058 25.5494 37.2138 25.6316C37.2747 25.6788 37.3287 25.7319 37.3853 25.7834C37.4624 25.8528 37.5104 25.9445 37.5464 26.0362C37.5764 26.1117 37.621 26.1862 37.6201 26.272C37.6544 26.3054 37.627 26.344 37.639 26.3817H36.8247C36.8161 26.35 36.811 26.3174 36.799 26.2874C36.7535 26.17 36.6772 26.0791 36.5624 26.0225C36.5358 26.0097 36.5101 25.9831 36.4835 25.9822C36.4012 25.9797 36.3335 25.9179 36.2435 25.9351C36.1749 25.9488 36.1012 25.9359 36.0301 25.9385C35.8938 25.9428 35.7643 25.9762 35.6469 26.0457C35.5663 26.0928 35.5132 26.1562 35.5141 26.2608C35.5141 26.3448 35.5432 26.404 35.6015 26.4605C35.6786 26.536 35.7643 26.5848 35.8664 26.6234C35.9401 26.6517 36.0164 26.674 36.0901 26.7014C36.1647 26.7288 36.2435 26.7528 36.3207 26.7631C36.4621 26.7811 36.595 26.8283 36.7338 26.8548C36.8298 26.8737 36.9224 26.9148 37.0158 26.9474C37.0844 26.9714 37.1547 26.9954 37.2181 27.0254C37.3484 27.0871 37.4667 27.166 37.5593 27.2877C37.6381 27.3914 37.6767 27.5097 37.7359 27.6203C37.7436 27.634 37.7436 27.6537 37.7436 27.67C37.7436 27.7446 37.741 27.8192 37.7444 27.8929C37.7513 28.036 37.7007 28.162 37.6373 28.2855C37.5953 28.3669 37.5524 28.4483 37.4778 28.5066C37.4376 28.5375 37.4153 28.5846 37.375 28.6155C37.3373 28.6446 37.3013 28.6772 37.2601 28.7003C37.1796 28.7458 37.0973 28.7886 37.0133 28.8272C36.9721 28.8469 36.925 28.8546 36.8821 28.8709C36.8384 28.8872 36.7921 28.8992 36.7484 28.9069C36.6918 28.9172 36.6344 28.9241 36.577 28.9344C36.541 28.9404 36.505 28.9506 36.4681 28.9549C36.4329 28.9584 36.3944 28.9481 36.3618 28.9566C36.2127 28.9978 36.0601 28.9755 35.9101 28.9729C35.8261 28.9712 35.7403 28.9464 35.6572 28.9164C35.5329 28.8709 35.4086 28.8298 35.2912 28.7663C35.142 28.6858 35.0109 28.5898 34.9089 28.4518C34.8523 28.3755 34.8069 28.2958 34.7589 28.2152C34.716 28.144 34.7152 28.0557 34.662 27.9889C34.6569 27.982 34.6603 27.9683 34.6603 27.958C34.6603 27.8877 34.6603 27.8192 34.6603 27.7446Z" fill="#084BA7"/>
<path d="M21.8365 28.871V28.7612C21.8365 28.0738 21.8365 27.3863 21.8365 26.6997C21.8365 26.6029 21.804 26.5094 21.8125 26.4108C21.8151 26.3826 21.7851 26.3526 21.7723 26.3226C21.732 26.2283 21.678 26.1443 21.6008 26.0731C21.5331 26.0105 21.4542 25.9831 21.3694 25.9583C21.2451 25.9214 21.1174 25.93 20.9931 25.942C20.9039 25.9497 20.8139 25.9865 20.7359 26.0405C20.5602 26.1623 20.4368 26.3234 20.3742 26.5274C20.3536 26.5951 20.3365 26.6637 20.3365 26.7349C20.3365 27.4438 20.3365 28.1518 20.3365 28.8658H19.5684V25.4054C19.6902 25.4054 19.8136 25.4019 19.937 25.4062C20.0545 25.4105 20.1753 25.3831 20.2928 25.4311V25.9283C20.3219 25.894 20.345 25.8751 20.3562 25.8511C20.4102 25.732 20.5011 25.6454 20.6073 25.5768C20.6793 25.5305 20.7505 25.4817 20.8302 25.4448C20.9339 25.3968 21.0419 25.3702 21.1508 25.3402C21.2862 25.3017 21.4234 25.3274 21.5597 25.3205C21.5811 25.3197 21.6034 25.3342 21.6257 25.3402C21.7251 25.3668 21.8254 25.3857 21.9231 25.4234C22.0174 25.4602 22.1048 25.5057 22.1837 25.5691C22.2154 25.5948 22.2497 25.618 22.2806 25.6445C22.3997 25.75 22.4649 25.8914 22.5369 26.0277C22.5489 26.05 22.5523 26.08 22.5523 26.1057C22.5523 26.2086 22.6054 26.3011 22.6054 26.4031C22.6054 27.19 22.6054 27.9761 22.6054 28.763C22.6054 28.781 22.6054 28.7981 22.6054 28.8161C22.6054 28.8504 22.5849 28.8658 22.5549 28.8692C22.53 28.8718 22.5051 28.8692 22.4803 28.8692H21.8348L21.8365 28.871Z" fill="#084BA7"/>
<path d="M33.3973 28.8708V28.7628C33.3973 28.0796 33.3956 27.3956 33.399 26.7124C33.399 26.5744 33.3561 26.4484 33.3227 26.3181C33.291 26.193 33.207 26.109 33.1144 26.0335C33.0681 25.9958 33.003 25.9778 32.943 25.9598C32.8238 25.9247 32.6987 25.9264 32.5778 25.941C32.4415 25.9572 32.3138 26.0087 32.2084 26.1055C32.0995 26.2067 32.0121 26.3207 31.9581 26.4596C31.9264 26.541 31.8972 26.6224 31.8972 26.7107C31.8972 27.3973 31.8972 28.0848 31.8972 28.7714V28.8674H31.1309V25.4044C31.3443 25.4044 31.5578 25.4035 31.7712 25.4052C31.7995 25.4052 31.8278 25.4224 31.8578 25.4318V25.9041C31.8775 25.8878 31.8895 25.881 31.8972 25.8707C31.9512 25.8012 31.9975 25.7241 32.0592 25.6624C32.1184 25.6032 32.1912 25.5569 32.2632 25.5115C32.3841 25.4352 32.5195 25.3907 32.6541 25.3469C32.7081 25.3289 32.7673 25.3255 32.8247 25.3204C32.8778 25.3161 32.9318 25.3238 32.985 25.3187C33.1007 25.3075 33.2061 25.3452 33.315 25.3744C33.3853 25.3932 33.459 25.4061 33.5241 25.4378C33.615 25.4815 33.7024 25.5304 33.7796 25.5989C33.8199 25.635 33.873 25.6624 33.903 25.7078C33.9596 25.7935 34.0342 25.869 34.0642 25.9701C34.0667 25.9795 34.083 25.9873 34.0813 25.9941C34.0659 26.0773 34.1156 26.1424 34.1387 26.2153C34.1447 26.2341 34.1465 26.2555 34.1465 26.2761C34.1465 27.1119 34.1465 27.9476 34.1465 28.7834C34.1465 28.7902 34.1465 28.7979 34.1465 28.8048C34.1447 28.8511 34.1293 28.8691 34.0856 28.8691C33.8576 28.8691 33.6304 28.8691 33.3964 28.8691L33.3973 28.8708Z" fill="#084BA7"/>
<path d="M9.29053 28.8708V25.5269C9.29053 25.5089 9.29053 25.4918 9.29053 25.4738C9.29223 25.4215 9.30593 25.4061 9.35823 25.4061C9.53993 25.4061 9.72173 25.4043 9.90423 25.4061C9.94023 25.4061 9.97543 25.4215 10.0191 25.4318V25.9101C10.0834 25.8364 10.146 25.7832 10.1828 25.7155C10.2257 25.6366 10.2994 25.6024 10.3628 25.5544C10.4803 25.4661 10.6157 25.4069 10.7554 25.3683C10.866 25.3375 10.98 25.3058 11.0991 25.3186C11.1489 25.3238 11.1994 25.3229 11.2491 25.3186C11.2894 25.3152 11.3254 25.3246 11.3572 25.3435C11.376 25.3546 11.3923 25.3623 11.4137 25.3632C11.5123 25.3675 11.742 25.4481 11.8243 25.5072C11.8877 25.5535 11.9546 25.5964 12.0103 25.6512C12.1235 25.7635 12.2152 25.8938 12.2589 26.0472C12.2846 26.1398 12.3129 26.2332 12.3129 26.3344C12.3103 27.1419 12.3112 27.9493 12.3129 28.7568C12.3129 28.8708 12.3052 28.8725 12.1938 28.8708C11.9872 28.8682 11.7797 28.8708 11.5629 28.8708V28.7902C11.5629 28.0745 11.5629 27.3596 11.5629 26.6438C11.5629 26.5924 11.5629 26.5427 11.5432 26.493C11.5132 26.4167 11.4994 26.3335 11.4669 26.259C11.3992 26.1047 11.2757 26.0078 11.1154 25.9598C11.07 25.9461 11.0246 25.9332 10.9749 25.9367C10.9148 25.9409 10.8531 25.9349 10.7931 25.9384C10.6328 25.9461 10.4905 26.0027 10.3731 26.1115C10.2925 26.187 10.2085 26.2607 10.1605 26.3635C10.1305 26.4287 10.0971 26.493 10.0714 26.5607C10.0611 26.5881 10.0645 26.6224 10.0645 26.6533C10.0645 27.3544 10.0645 28.0556 10.0645 28.7568C10.0645 28.7782 10.0645 28.7996 10.0645 28.8202C10.0628 28.8828 10.0251 28.9171 9.97023 28.8888C9.93423 28.8708 9.90343 28.8725 9.86993 28.8716C9.68143 28.8699 9.49193 28.8716 9.29393 28.8716L9.29053 28.8708Z" fill="#084BA7"/>
<path d="M13.7905 28.871C13.7451 28.7484 13.7014 28.6318 13.6593 28.5144C13.6191 28.403 13.5762 28.2933 13.5376 28.1818C13.4862 28.0335 13.4253 27.887 13.3808 27.7361C13.3491 27.6289 13.2993 27.5278 13.265 27.4224C13.223 27.2946 13.1673 27.1721 13.1245 27.0443C13.0722 26.8883 13.0216 26.7323 12.9668 26.578C12.9325 26.482 12.8827 26.392 12.8562 26.2943C12.8202 26.164 12.7576 26.044 12.7182 25.9154C12.6916 25.8272 12.647 25.7457 12.6187 25.6583C12.6007 25.6026 12.5784 25.5477 12.5587 25.492C12.5364 25.4303 12.551 25.4054 12.611 25.4054C12.8536 25.4046 13.0962 25.4054 13.3388 25.4054C13.3851 25.4054 13.4031 25.4217 13.4013 25.4671C13.3996 25.5143 13.4022 25.5571 13.4451 25.588C13.4631 25.6686 13.4845 25.7483 13.5282 25.8194C13.5359 25.8323 13.5308 25.8537 13.5308 25.8717C13.5308 25.9232 13.5445 25.9703 13.5736 26.014C13.6268 26.0946 13.6491 26.1889 13.6791 26.2789C13.7116 26.3757 13.7425 26.4726 13.7716 26.5703C13.8239 26.7469 13.8942 26.9166 13.9534 27.0906C13.9482 27.1858 14.0117 27.2578 14.0365 27.3435C14.0605 27.4258 14.0777 27.5115 14.1154 27.5869C14.1359 27.6281 14.1179 27.6667 14.1402 27.7052C14.1968 27.8021 14.2277 27.9101 14.2637 28.0155C14.2671 28.025 14.2782 28.031 14.2928 28.0455C14.3031 28.025 14.322 28.007 14.3211 27.989C14.3168 27.8715 14.3648 27.7669 14.4 27.6589C14.4428 27.5278 14.4788 27.3949 14.5354 27.2681C14.5345 27.1481 14.6048 27.0478 14.6271 26.9329C14.6485 26.8258 14.694 26.7203 14.7308 26.6149C14.7977 26.422 14.8525 26.2266 14.916 26.0329C14.9588 25.9017 15.0017 25.7697 15.0411 25.6377C15.0523 25.6 15.0677 25.5614 15.0694 25.5229C15.072 25.4783 15.0926 25.4466 15.1166 25.4106H15.9017C15.906 25.4388 15.9069 25.4646 15.8889 25.5006C15.7963 25.6857 15.7354 25.8837 15.6694 26.08C15.6274 26.2043 15.5769 26.3252 15.5314 26.4486C15.5049 26.5198 15.4809 26.5909 15.456 26.662C15.4337 26.7272 15.4191 26.7958 15.39 26.8583C15.3609 26.9209 15.3437 26.9878 15.3137 27.0503C15.2734 27.1361 15.2494 27.2295 15.2203 27.3204C15.2023 27.3769 15.1731 27.4292 15.1577 27.4858C15.1423 27.5407 15.1251 27.5929 15.0994 27.6427C15.0908 27.6598 15.0883 27.6804 15.084 27.7001C15.0566 27.8055 15.006 27.9024 14.9708 28.0044C14.9108 28.1784 14.8551 28.3533 14.79 28.5256C14.7514 28.6267 14.7128 28.7278 14.6837 28.8324C14.6768 28.8564 14.6614 28.8744 14.6314 28.8736C14.5954 28.8719 14.5602 28.8736 14.5242 28.8736H13.7879L13.7905 28.871Z" fill="#084BA7"/>
<path d="M7.64452 24.0876C7.91802 24.0876 8.18542 24.0876 8.45282 24.0876C8.45972 24.0876 8.46572 24.0911 8.47772 24.0936V24.1854C8.47772 25.7077 8.47772 27.2309 8.47772 28.7533C8.47772 28.8638 8.47682 28.8724 8.36202 28.8716C8.15882 28.869 7.95572 28.8716 7.75252 28.8716C7.73112 28.8716 7.70712 28.8776 7.68912 28.8698C7.67022 28.8613 7.65312 28.8424 7.64372 28.8236C7.63682 28.8098 7.64202 28.7893 7.64202 28.7713C7.64202 27.2172 7.64202 25.6623 7.64202 24.1082C7.64202 24.1048 7.64192 24.1014 7.64372 24.0885L7.64452 24.0876Z" fill="#084BA7"/>
<path d="M0 38.4469H49.9999V0H0V38.4469Z" fill="#D90013"/>
<path d="M4.29252 24.5759C4.10372 24.5759 3.98302 24.7126 3.98302 24.8874C3.98302 25.0628 4.15422 25.1794 4.33012 25.1794H5.21361C5.74021 25.1794 6.03162 25.48 6.04452 25.9102C6.04712 26.3718 5.74431 26.722 5.21361 26.722H3.43992V26.2552H4.97951C5.18991 26.2501 5.34981 26.1588 5.34981 25.9339C5.34981 25.7101 5.18992 25.6265 4.88972 25.6265H4.08412C3.84122 25.6265 3.60032 25.545 3.45132 25.3846C3.33682 25.2603 3.28112 25.0808 3.27282 24.9091C3.25942 24.4351 3.62772 24.1195 4.14142 24.1159H5.86142V24.5759M6.89502 25.4274C6.89502 24.9204 7.00641 24.1159 8.11941 24.1159H9.27422V24.5759H8.21122C7.73672 24.5759 7.61092 24.9204 7.61092 25.1948H9.29282V25.6549H7.61092C7.61092 25.9442 7.73672 26.2578 8.21122 26.2578H9.29282V26.7143H8.11941C7.00641 26.7143 6.89502 25.9442 6.89502 25.4274ZM11.2769 24.1153L11.9324 26.1696L12.5782 24.1153H13.4591V26.7137H12.916V24.7327L12.2811 26.7137H11.5972L10.9669 24.7327V26.7137H10.4207V24.1153M14.7 26.6926H15.3758V24.1053H14.7V26.6926ZM16.4495 25.4429C16.4495 24.6755 16.7538 24.1195 17.5816 24.1195H18.7152V24.58H17.7332C17.2964 24.58 17.1251 24.9282 17.1251 25.4429C17.1251 25.9545 17.2964 26.2619 17.7332 26.2619H18.7152V26.7246H17.5816C16.7538 26.7246 16.4495 26.2026 16.4495 25.4429ZM34.137 25.4429C34.137 24.6755 34.4454 24.1195 35.2779 24.1195H36.4069V24.58H35.4207C34.9906 24.58 34.8214 24.9282 34.8214 25.4429C34.8214 25.9545 34.9906 26.2619 35.4207 26.2619H36.4069V26.7246H35.2779C34.4454 26.7246 34.137 26.2026 34.137 25.4429ZM20.2408 25.4388C20.2408 26.02 20.4544 26.3713 21.0031 26.3713C21.5529 26.3713 21.7438 26.02 21.7438 25.4388C21.7438 24.8467 21.5529 24.4717 21.0031 24.4717C20.4471 24.4717 20.2408 24.8467 20.2408 25.4388ZM19.5863 25.4388C19.5863 24.6677 19.8979 24.0612 21.0031 24.0612C22.1094 24.0612 22.3988 24.5986 22.3988 25.4388C22.3988 26.2733 22.1136 26.7792 21.0031 26.7792C19.8979 26.7792 19.5863 26.2733 19.5863 25.4388ZM24.2055 24.1195L25.4191 26.0618V24.1195H26.0432V26.7246H25.2288L23.9894 24.8178V26.7137H23.3844V24.1195M31.3044 24.1489V25.79C31.3044 26.2733 31.7232 26.3532 31.9533 26.3532C32.2761 26.3496 32.6088 26.2733 32.6088 25.79V24.1447H33.2349V25.9442C33.2349 26.6302 32.5918 26.8164 31.9533 26.8164C31.3127 26.8164 30.6752 26.6302 30.6752 25.9442V24.1489M39.7634 24.1153V24.5754H38.8103V26.7137H38.2146V24.5754H37.28V24.1153M44.6544 25.2861H45.4677C45.7947 25.2861 45.968 25.1897 45.968 24.9158C45.968 24.6167 45.7947 24.5393 45.4677 24.5393H44.6544V25.2861ZM46.6545 24.9158C46.6545 25.2887 46.4492 25.5739 46.0165 25.6549L46.7293 26.7137H46.0165L45.3409 25.7023H44.6565V26.7137H44.051V24.1153H45.8494C46.3626 24.1153 46.6545 24.4454 46.6545 24.9158ZM28.4543 26.2315H27.7766V24.545H28.4543C28.886 24.545 29.0583 24.8941 29.0583 25.4068C29.0583 25.9179 28.886 26.2315 28.4543 26.2315ZM28.606 24.0901H27.1778V26.688H28.606C29.4338 26.688 29.736 26.1701 29.736 25.4068C29.736 24.6491 29.4338 24.0901 28.606 24.0901ZM41.0172 25.3985C41.0172 25.9881 41.2359 26.3388 41.7754 26.3388C42.3309 26.3388 42.5248 25.9881 42.5248 25.3985C42.5248 24.8101 42.3309 24.4346 41.7754 24.4346C41.2256 24.4346 41.0172 24.8101 41.0172 25.3985ZM40.3674 25.3985C40.3674 24.6352 40.6737 24.0277 41.7754 24.0277C42.8889 24.0277 43.1742 24.5682 43.1742 25.3985C43.1742 26.2367 42.8889 26.7504 41.7754 26.7504C40.6737 26.7504 40.3674 26.2367 40.3674 25.3985ZM16.3762 19.6669C16.2287 19.3533 16.2081 18.9077 16.2081 18.3295L16.2097 16.0411C16.2097 15.4526 16.2256 15.0276 16.3711 14.7182C16.6692 14.0719 17.3392 13.9203 18.2577 13.9203C19.2831 13.9203 19.9159 14.0662 20.1851 14.7182C20.3048 15.0276 20.3002 15.4526 20.3048 16.0411V18.3295C20.3048 18.9025 20.3203 19.3533 20.1728 19.6669C19.8623 20.2987 19.1681 20.4503 18.2577 20.4503C17.3392 20.4503 16.6769 20.3064 16.3762 19.6669ZM13.7422 15.6646V18.6333C13.7422 20.7639 15.0904 21.6665 18.2577 21.6665C21.4302 21.6665 22.7794 20.7639 22.7794 18.6333V15.6646C22.7794 13.5407 21.4302 12.6335 18.2577 12.6335C15.0904 12.6335 13.7422 13.5407 13.7422 15.6646ZM3.42142 12.8325V21.4251H5.92902V14.4515C5.92902 14.2215 5.95582 14.0126 6.30142 13.9626C6.40452 13.944 6.90892 13.8857 7.62942 13.8857C8.48662 13.8857 8.95962 13.9626 9.32782 14.205C9.62702 14.4072 9.78382 14.6774 9.78582 15.3391C9.79722 15.8822 9.72192 16.3485 9.37322 16.6157C8.87972 16.9922 7.68102 16.937 6.94502 16.937V17.6312C6.94502 18.098 7.04462 18.2052 7.27002 18.5013C7.36432 18.623 9.71052 21.4251 9.71052 21.4251H12.6483L9.81782 18.0959C10.1974 18.0201 11.018 17.8653 11.5276 17.4538C12.0418 17.0427 12.1547 16.3304 12.1547 15.3835C12.1547 14.4407 11.9283 13.7671 11.4672 13.3803C10.8272 12.8356 9.91072 12.6335 7.40352 12.6335C5.89182 12.6335 3.42142 12.8325 3.42142 12.8325ZM31.4452 12.8243V15.8265C31.4452 16.1571 31.2565 16.2716 31.0017 16.2716L27.4816 16.2758C27.2175 16.2758 27.037 16.1752 27.037 15.8265V12.8243H24.5067V21.4251H27.037V18.2052C27.037 17.8612 27.2309 17.7596 27.4816 17.7596H30.9939C31.2565 17.7596 31.4452 17.855 31.4452 18.2052V21.4251H33.975V12.8243M44.9241 12.9424C43.9246 12.6154 42.3314 12.634 41.2261 12.634C39.3188 12.634 36.9788 12.7779 35.9587 12.832V21.4246H38.3667V14.3453C38.3667 14.2184 38.3946 14.0776 38.603 14.0662C38.7917 14.0585 39.5778 14.042 39.7732 14.042C39.9929 14.042 40.0383 14.1818 40.0383 14.3154V21.422H42.4449V14.2968C42.4449 14.1849 42.482 14.042 42.6986 14.042C42.9875 14.042 43.3578 14.0456 43.5445 14.0853C43.8787 14.1503 44.0319 14.3019 44.1154 14.5609C44.1912 14.8095 44.1887 15.1493 44.1887 15.5155V21.4246H46.5854V15.5264C46.5854 14.6748 46.5318 13.4747 44.9241 12.9424Z" fill="white"/>
</svg>
