<svg width="130" height="19" viewBox="0 0 130 19" fill="none" xmlns="http://www.w3.org/2000/svg">
<g clip-path="url(#clip0_2216_5015)">
<path d="M104.714 14.1255C104.714 15.457 104.563 16.7577 102.772 16.7577C102.163 16.7577 101.738 16.6816 101.432 16.5175C101.132 16.3667 100.943 16.1196 100.838 15.7418C100.764 15.7418 97.4478 15.7418 97.3271 15.7418C97.5631 16.9881 98.1831 17.8504 99.2206 18.3747C100.063 18.8006 101.15 18.9989 102.644 18.9989C104.868 18.9989 106.429 18.3566 107.286 17.0887C108.008 16.0211 108.091 14.7169 108.091 13.8267C108.091 13.8267 108.091 4.25932 108.091 4.15669C107.992 4.15669 104.832 4.15669 104.734 4.15669C104.734 4.24187 104.734 5.54191 104.734 5.54191C104.734 5.54191 103.949 3.83691 101.688 3.83691C100.226 3.83691 98.9985 4.3843 98.1356 5.42252C97.3375 6.38184 96.8984 7.72377 96.8984 9.20115C96.8984 10.8 97.2984 12.144 98.0581 13.0852C98.891 14.1234 100.114 14.6499 101.688 14.6499C102.853 14.6499 104.053 14.0529 104.696 13.0524L104.713 13.0287V14.1255H104.714ZM104.245 11.1917C103.856 11.7084 103.264 11.9828 102.538 11.9828C101.839 11.9828 101.272 11.6923 100.897 11.1477C100.579 10.6834 100.405 10.0383 100.405 9.32962C100.405 8.78782 100.484 8.01492 100.867 7.404C101.238 6.80774 101.809 6.50542 102.559 6.50542C103.322 6.50542 103.905 6.80564 104.289 7.39771C104.693 8.01631 104.777 8.80039 104.777 9.34987C104.777 10.0941 104.594 10.7309 104.245 11.1917Z" fill="#E62F35"/>
<mask id="mask0_2216_5015" style="mask-type:luminance" maskUnits="userSpaceOnUse" x="96" y="3" width="13" height="16">
<path d="M104.714 14.1253C104.714 15.4567 104.563 16.7575 102.771 16.7575C102.163 16.7575 101.738 16.6814 101.431 16.5173C101.131 16.3665 100.943 16.1193 100.838 15.7416C100.764 15.7416 97.4475 15.7416 97.3267 15.7416C97.5627 16.9879 98.1827 17.8502 99.2203 18.3745C100.062 18.8004 101.149 18.9987 102.644 18.9987C104.867 18.9987 106.429 18.3563 107.286 17.0884C108.008 16.0209 108.091 14.7167 108.091 13.8265C108.091 13.8265 108.091 4.25908 108.091 4.15644C107.992 4.15644 104.832 4.15644 104.733 4.15644C104.733 4.24162 104.733 5.54166 104.733 5.54166C104.733 5.54166 103.948 3.83667 101.688 3.83667C100.226 3.83667 98.9982 4.38406 98.1353 5.42227C97.3372 6.38159 96.898 7.72353 96.898 9.20091C96.898 10.7998 97.2981 12.1438 98.0578 13.085C98.8907 14.1232 100.113 14.6496 101.688 14.6496C102.852 14.6496 104.052 14.0527 104.695 13.0522L104.713 13.0284V14.1253H104.714ZM104.245 11.1915C103.856 11.7081 103.264 11.9825 102.537 11.9825C101.838 11.9825 101.272 11.6921 100.897 11.1475C100.579 10.6832 100.405 10.038 100.405 9.32938C100.405 8.78758 100.484 8.01467 100.867 7.40375C101.238 6.80749 101.808 6.50517 102.558 6.50517C103.322 6.50517 103.904 6.8054 104.289 7.39747C104.693 8.01607 104.776 8.80014 104.776 9.34962C104.776 10.0939 104.594 10.7307 104.245 11.1915Z" fill="white"/>
</mask>
<g mask="url(#mask0_2216_5015)">
<path d="M102.559 6.50562C101.809 6.50562 101.238 6.80793 100.867 7.40419C100.484 8.01511 100.406 8.78802 100.406 9.32982C100.406 10.0385 100.579 10.6836 100.897 11.1479C101.271 11.6925 101.839 11.983 102.538 11.983C103.264 11.983 103.857 11.7086 104.246 11.1919C104.594 10.7311 104.777 10.0943 104.777 9.35076C104.777 8.80128 104.693 8.01651 104.29 7.39861C103.904 6.80584 103.322 6.50562 102.559 6.50562Z" fill="#E62F35"/>
</g>
<path d="M11.3613 8.07324C11.3613 8.07324 12.433 7.73671 13.155 6.49881C13.5369 5.84948 13.7393 5.06541 13.7393 4.23246C13.7393 1.11223 11.0227 0 8.48193 0C8.48193 0 0.905808 0 0.803871 0C0.803871 0.102635 0.803871 15.1194 0.803871 15.1194H4.65023V9.57575H7.69646C8.55315 9.57575 9.14312 9.9067 9.4992 10.5846C9.81129 11.1795 9.90276 11.9699 9.95582 12.7358L9.97746 12.9927C10.0208 13.5443 10.1094 14.6796 10.3803 15.1194C10.4376 15.1194 13.9509 15.1194 14.152 15.1194C13.724 14.5162 13.6304 12.83 13.585 11.9971L13.5704 11.7437C13.4915 10.8548 13.3093 10.1134 13.0286 9.53875C12.3464 8.17866 11.3913 8.09837 11.3613 8.07324ZM9.90974 4.76658C9.90974 5.96608 9.23668 6.62797 8.01414 6.62797H4.63347V3.05461H7.84517C7.84517 3.05461 9.90974 2.95616 9.90974 4.76658Z" fill="#E62F35"/>
<path d="M54.4661 5.6709L54.4815 5.64576C55.0917 4.59847 56.6515 3.83813 58.0213 3.83813C59.6069 3.83813 60.7241 4.34782 61.3406 5.35601C61.8789 6.23434 61.941 7.32772 61.941 8.0713C61.941 8.0713 61.941 15.0176 61.941 15.1196C61.8412 15.1196 58.4347 15.1196 58.4347 15.1196C58.4347 15.1196 58.4347 9.26312 58.4347 9.1528C58.4347 8.23747 58.5045 6.71889 56.5782 6.71889C55.0987 6.71889 54.5716 8.02242 54.5716 9.13814C54.5716 9.13814 54.5716 15.0169 54.5716 15.1196C54.4731 15.1196 51.1651 15.1196 51.0659 15.1196C51.0659 15.0176 51.0659 4.25984 51.0659 4.15791C51.1651 4.15791 54.367 4.15791 54.4654 4.15791C54.4661 4.24518 54.4661 5.6709 54.4661 5.6709Z" fill="#E62F35"/>
<path d="M67.1602 13.8396C67.1602 13.8396 68.2096 15.4399 70.2909 15.4399C71.8688 15.4399 73.1549 14.7969 74.0102 13.5792C74.7545 12.5214 75.1657 11.0336 75.1657 9.39353C75.1657 7.90497 74.7594 6.53721 74.0207 5.54018C73.1947 4.42656 71.9994 3.83798 70.5674 3.83798C68.2731 3.83798 67.3292 5.37262 67.3292 5.37262V0H63.8235V15.1194H67.1595L67.1602 13.8396ZM69.4412 12.7714C68.6446 12.7714 68.056 12.4691 67.6894 11.8756C67.3613 11.3408 67.2028 10.5714 67.2028 9.52129C67.2028 7.29824 68.3688 6.50649 69.4615 6.50649C71.082 6.50649 71.6587 8.06346 71.6587 9.52129C71.6594 11.0922 71.0771 12.7714 69.4412 12.7714Z" fill="#E62F35"/>
<path d="M96.4282 4.02026C96.4282 4.10195 96.4282 7.08673 96.4282 7.2152C95.4542 6.95338 93.9942 6.81025 93.0342 7.82543C92.5811 8.30509 92.3297 8.96767 92.3297 9.691C92.3297 9.691 92.3297 15.0168 92.3297 15.1188C92.2306 15.1188 88.9219 15.1188 88.8241 15.1188C88.8241 15.0168 88.8241 4.25904 88.8241 4.15711C88.9225 4.15711 92.1259 4.15711 92.2236 4.15711C92.2236 4.24997 92.2236 6.09739 92.2236 6.09739C93.0566 3.96929 95.2028 3.83035 96.4282 4.02026Z" fill="#E62F35"/>
<path d="M129.447 4.02026C129.447 4.10195 129.447 7.08673 129.447 7.2152C128.473 6.95338 127.013 6.81025 126.054 7.82543C125.6 8.30509 125.349 8.96767 125.349 9.691C125.349 9.691 125.349 15.0168 125.349 15.1188C125.249 15.1188 121.94 15.1188 121.843 15.1188C121.843 15.0168 121.843 4.25904 121.843 4.15711C121.941 4.15711 125.144 4.15711 125.243 4.15711C125.243 4.24997 125.243 6.09739 125.243 6.09739C126.076 3.96929 128.221 3.83035 129.447 4.02026Z" fill="#E62F35"/>
<path d="M41.8097 10.471H49.9032C49.9032 10.471 50.1085 7.27116 48.2862 5.4398C47.2647 4.41554 45.8746 3.83813 44.1989 3.83813C42.6168 3.83813 41.1408 4.41484 40.0433 5.46214C38.9234 6.53317 38.3055 8.00427 38.3055 9.60593C38.3055 11.3877 38.8766 12.8735 39.9588 13.9026C41.0166 14.9073 42.5121 15.4401 44.2848 15.4401C45.5451 15.4401 46.6999 15.1489 47.6208 14.6022C48.6332 13.9997 49.316 13.1255 49.6532 12.0049C49.5192 12.0049 46.4059 12.0049 46.3487 12.0049C45.9856 12.6759 45.2148 13.0906 44.3274 13.0906C41.7657 13.0906 41.8097 10.471 41.8097 10.471ZM41.8034 8.55026L41.8132 8.49021C42.038 7.06869 42.9527 6.18547 44.1996 6.18547C45.3845 6.18547 46.3284 7.1783 46.3962 8.4958L46.3996 8.55026H41.8034Z" fill="#E62F35"/>
<path d="M79.566 10.471H87.6609C87.6609 10.471 87.8654 7.27116 86.0424 5.4398C85.0217 4.41554 83.6309 3.83813 81.9552 3.83813C80.3731 3.83813 78.8971 4.41484 77.7995 5.46214C76.6789 6.53317 76.0617 8.00427 76.0617 9.60593C76.0617 11.3877 76.6335 12.8735 77.7151 13.9026C78.7728 14.9073 80.2684 15.4401 82.0404 15.4401C83.3034 15.4401 84.4568 15.1489 85.3778 14.6022C86.3894 13.9997 87.0723 13.1255 87.4095 12.0049C87.2761 12.0049 84.1622 12.0049 84.1049 12.0049C83.7412 12.6759 82.9718 13.0906 82.0837 13.0906C79.5227 13.0906 79.566 10.471 79.566 10.471ZM79.559 8.55026L79.5681 8.49021C79.7929 7.06869 80.7075 6.18547 81.9552 6.18547C83.14 6.18547 84.084 7.1783 84.1517 8.4958L84.1545 8.55026H79.559Z" fill="#E62F35"/>
<path d="M112.54 10.471H120.634C120.634 10.471 120.84 7.27116 119.017 5.4398C117.995 4.41554 116.607 3.83813 114.931 3.83813C113.349 3.83813 111.872 4.41484 110.774 5.46214C109.654 6.53317 109.036 8.00427 109.036 9.60593C109.036 11.3877 109.608 12.8735 110.69 13.9026C111.747 14.9073 113.243 15.4401 115.016 15.4401C116.277 15.4401 117.431 15.1489 118.352 14.6022C119.364 13.9997 120.048 13.1255 120.384 12.0049C120.25 12.0049 117.136 12.0049 117.08 12.0049C116.717 12.6759 115.947 13.0906 115.058 13.0906C112.496 13.0906 112.54 10.471 112.54 10.471ZM112.534 8.55026L112.543 8.49021C112.768 7.06869 113.682 6.18547 114.931 6.18547C116.115 6.18547 117.059 7.1783 117.126 8.4958L117.13 8.55026H112.534Z" fill="#E62F35"/>
<path d="M33.8197 7.15854C33.7045 6.01141 32.1657 6.07983 32.1657 6.07983C31.7698 6.07983 30.5634 6.07983 30.5634 6.96305C30.5634 7.84976 32.1378 8.13672 33.6613 8.4146C34.0215 8.48162 34.3622 8.54307 34.6813 8.61358C37.3652 9.15189 37.4427 11.3037 37.4427 11.5467C37.4427 12.8817 36.8757 13.9052 35.7558 14.5866C34.8524 15.1361 33.5921 15.4398 32.2076 15.4398C30.8182 15.4398 29.6215 15.1843 28.7467 14.7053C27.6903 14.1244 27.0738 13.2168 26.9125 12.0047C27.0263 12.0047 30.1961 12.0047 30.2694 12.0047C30.2694 12.0047 30.5215 13.1979 32.1881 13.1979C33.0308 13.1979 33.9377 12.8139 33.9377 11.9733C33.9377 11.1522 32.9568 10.933 32.3081 10.7892C32.3081 10.7892 31.4228 10.5853 31.0688 10.5106C30.0809 10.3011 29.0608 10.0868 28.3068 9.6141C27.4543 9.08068 27.0577 8.30568 27.0577 7.176C27.0577 5.99814 27.6226 5.10724 28.7341 4.52774C29.8868 3.92799 31.2993 3.83862 32.0393 3.83862C33.4162 3.83862 34.5333 4.06623 35.3572 4.51727C36.3696 5.06954 36.9351 5.96184 37.0419 7.16692C36.933 7.16692 33.9056 7.16692 33.8183 7.16692" fill="#E62F35"/>
<path d="M24.6088 5.50682C23.5567 4.4302 22.0807 3.83813 20.4546 3.83813C17.1263 3.83813 14.7098 6.28112 14.7098 9.64852C14.7098 13.004 17.1263 15.4394 20.4546 15.4394C23.7968 15.4394 26.2217 13.0033 26.2217 9.64852C26.221 8.04127 25.6492 6.56948 24.6088 5.50682ZM20.4546 12.7715C19.6719 12.7715 19.0777 12.4231 18.6868 11.7382C18.383 11.2048 18.2162 10.4626 18.2162 9.64922C18.2162 8.83442 18.383 8.08945 18.6868 7.54974C19.0784 6.85713 19.6733 6.50594 20.4546 6.50594C22.1219 6.50594 22.7146 8.12925 22.7146 9.64852C22.7146 11.1594 22.1212 12.7715 20.4546 12.7715Z" fill="#E62F35"/>
</g>
<defs>
<clipPath id="clip0_2216_5015">
<rect width="128.643" height="19" fill="white" transform="translate(0.803841)"/>
</clipPath>
</defs>
</svg>
