<svg width="107" height="20" viewBox="0 0 107 20" fill="none" xmlns="http://www.w3.org/2000/svg">
<g clip-path="url(#clip0_12_4087)">
<mask id="mask0_12_4087" style="mask-type:luminance" maskUnits="userSpaceOnUse" x="-6" y="-6" width="120" height="32">
<path d="M114 -6H-6V26H114V-6Z" fill="white"/>
</mask>
<g mask="url(#mask0_12_4087)">
<path d="M2 13.651V12.511H5.994V13.961C5.9909 14.1515 6.0287 14.3405 6.1047 14.5152C6.1808 14.6898 6.2934 14.8462 6.4349 14.9737C6.5765 15.1013 6.7437 15.197 6.9253 15.2545C7.107 15.312 7.2988 15.3299 7.488 15.307C7.8111 15.3508 8.1389 15.2716 8.4064 15.0851C8.6739 14.8986 8.8615 14.6184 8.932 14.3C9.0389 13.9353 9.0298 13.5463 8.906 13.187C8.133 11.243 2.851 10.363 2.18 7.333C2.0434 6.6674 2.0349 5.9818 2.155 5.313C2.567 2.88 4.705 2 7.359 2C9.472 2 12.384 2.492 12.384 5.754V6.816H8.674V5.884C8.6852 5.7003 8.6565 5.5163 8.5899 5.3448C8.5232 5.1732 8.4203 5.0181 8.288 4.8902C8.1557 4.7622 7.9973 4.6643 7.8237 4.6034C7.65 4.5424 7.4652 4.5198 7.282 4.537C6.9691 4.5025 6.6547 4.5874 6.4017 4.7747C6.1486 4.9619 5.9755 5.2377 5.917 5.547C5.8753 5.8052 5.8841 6.0691 5.943 6.324C6.38 8.058 12.024 8.991 12.643 12.124C12.7977 12.936 12.8062 13.769 12.668 14.584C12.307 17.068 10.091 18 7.412 18C4.6 18 2 16.99 2 13.651ZM50.392 13.6V12.46H54.335V13.884C54.3288 14.0728 54.3634 14.2607 54.4366 14.4349C54.5097 14.609 54.6195 14.7654 54.7586 14.8932C54.8977 15.021 55.0628 15.1172 55.2425 15.1754C55.4222 15.2335 55.6124 15.2521 55.8 15.23C56.1202 15.2777 56.4467 15.2029 56.7142 15.0205C56.9817 14.8381 57.1705 14.5615 57.243 14.246C57.3499 13.8898 57.3411 13.5089 57.218 13.158C56.47 11.243 51.239 10.358 50.57 7.333C50.4331 6.6762 50.4243 5.9992 50.544 5.339C50.959 2.932 53.1 2.052 55.7 2.052C57.788 2.052 60.673 2.57 60.673 5.78V6.816H56.989V5.91C57.0007 5.7286 56.9733 5.5467 56.9086 5.3768C56.8439 5.2069 56.7434 5.0529 56.614 4.9252C56.4845 4.7975 56.3291 4.6992 56.1583 4.6369C55.9875 4.5746 55.8053 4.5497 55.624 4.564C55.3168 4.5233 55.0058 4.6029 54.756 4.7864C54.5062 4.9698 54.3371 5.2427 54.284 5.548C54.2419 5.8062 54.2504 6.0701 54.309 6.325C54.721 8.059 60.309 8.966 60.932 12.072C61.0865 12.8752 61.095 13.6998 60.957 14.506C60.596 16.992 58.406 17.898 55.757 17.898C52.97 17.9 50.392 16.887 50.392 13.6ZM64.513 14.145C64.4771 13.8179 64.4687 13.4885 64.488 13.16V2.44H68.25V13.495C68.2451 13.6853 68.2535 13.8758 68.275 14.065C68.359 14.3767 68.5433 14.6521 68.7996 14.8485C69.0558 15.0448 69.3697 15.1513 69.6925 15.1513C70.0153 15.1513 70.3292 15.0448 70.5854 14.8485C70.8417 14.6521 71.0261 14.3767 71.11 14.065C71.1323 13.8759 71.141 13.6854 71.136 13.495V2.44H74.9V13.158C74.9 13.443 74.874 13.987 74.874 14.143C74.617 16.943 72.426 17.843 69.695 17.843C66.964 17.843 64.771 16.938 64.513 14.143V14.145ZM95.487 13.989C95.449 13.6608 95.431 13.3304 95.435 13V6.712C95.435 6.453 95.46 5.987 95.486 5.727C95.821 2.932 98.063 2.052 100.717 2.052C103.346 2.052 105.664 2.932 105.923 5.728C105.954 6.0554 105.962 6.3845 105.948 6.713V7.2H102.186V6.376C102.187 6.1848 102.17 5.994 102.135 5.806C102.036 5.4903 101.839 5.2145 101.572 5.0187C101.306 4.8228 100.984 4.7172 100.653 4.7172C100.322 4.7172 100 4.8228 99.734 5.0187C99.467 5.2145 99.27 5.4903 99.171 5.806C99.127 6.0366 99.11 6.2715 99.12 6.506V13.34C99.116 13.5304 99.124 13.7208 99.146 13.91C99.235 14.249 99.442 14.545 99.73 14.7448C100.018 14.9446 100.368 15.0351 100.717 15C101.06 15.0365 101.404 14.9459 101.684 14.7456C101.964 14.5452 102.161 14.2489 102.237 13.913C102.272 13.7251 102.28 13.5333 102.263 13.343V11.165H100.743V8.99H106V13C106.004 13.3288 105.986 13.6575 105.948 13.984C105.691 16.702 103.348 17.66 100.717 17.66C98.086 17.66 95.744 16.705 95.487 13.987V13.989ZM43.049 17.378L42.949 3.553L40.369 17.378H36.607L34.055 3.553L33.955 17.378H30.242L30.551 2.466H36.607L38.488 14.117L40.369 2.466H46.424L46.759 17.378H43.049ZM23.259 17.378L21.249 3.553L19.187 17.378H15.168L17.9 2.466H24.523L27.255 17.378H23.259ZM86.236 17.223L82.5 4.822L82.706 17.222H79.046V2.466H84.56L88.06 14.479L87.859 2.466H91.544V17.224L86.236 17.223Z" fill="white"/>
</g>
</g>
<defs>
<clipPath id="clip0_12_4087">
<rect width="107" height="20" fill="white"/>
</clipPath>
</defs>
</svg>
