<svg width="125" height="50" viewBox="0 0 125 50" fill="none" xmlns="http://www.w3.org/2000/svg">
<g clip-path="url(#clip0_54_16)">
<path d="M17.8223 20.6371C20.445 20.6371 22.5676 22.7638 22.5676 25.3824C22.5676 25.85 22.4985 26.3014 22.3724 26.7283C24.1006 26.7771 25.4953 28.2003 25.4953 29.9366V30.4733C25.4953 32.2421 24.0477 33.6897 22.2789 33.6897H7.08744C5.31863 33.6897 3.87105 32.2421 3.87105 30.4733V29.9366C3.87105 28.2532 5.18444 26.8625 6.8394 26.7324C6.77434 26.4437 6.74181 26.1469 6.74181 25.8378C6.74181 23.5567 8.59195 21.7065 10.8731 21.7065C12.0076 21.7065 13.0323 22.1619 13.7764 22.902C14.61 21.5439 16.1063 20.6371 17.8182 20.6371M17.8223 19.0106C16.1836 19.0106 14.6547 19.6246 13.4918 20.7103C12.6907 20.2996 11.8002 20.0841 10.8772 20.0841C7.81123 20.0841 5.29423 22.4954 5.12752 25.5207C3.42783 26.281 2.24863 27.9929 2.24863 29.9406V30.4774C2.24863 33.1448 4.41999 35.3203 7.09151 35.3203H22.2829C24.9504 35.3203 27.1258 33.1489 27.1258 30.4774V29.9406C27.1258 27.9767 25.9141 26.2526 24.1981 25.5044C24.1981 25.4637 24.1981 25.4271 24.1981 25.3865C24.1981 21.8732 21.3396 19.0147 17.8264 19.0147L17.8223 19.0106Z" fill="#009CE2"/>
<path d="M3.72467 24.8661C3.72467 21.361 6.5751 18.5065 10.0843 18.5065H10.2754V19.3197H10.0843C7.02645 19.3197 4.53792 21.8082 4.53792 24.862H3.72467V24.8661Z" fill="#009CE2"/>
<path d="M1.74847 24.8661C1.74847 20.3078 5.46094 16.5953 10.0233 16.5953H10.2754V17.4086H10.0233C5.90823 17.4086 2.56172 20.7551 2.56172 24.8661H1.74847Z" fill="#009CE2"/>
<path d="M0 24.866C0 19.3725 4.47285 14.8997 9.96633 14.8997H10.2754V15.7129H9.96633C4.92014 15.7129 0.813246 19.8198 0.813246 24.866H0Z" fill="#009CE2"/>
<path d="M30.8464 29.9813L32.8145 29.8105C32.908 30.5994 33.1235 31.2459 33.4651 31.7501C33.8067 32.2543 34.3353 32.665 35.0509 32.9741C35.7666 33.2872 36.5758 33.4417 37.4703 33.4417C38.2673 33.4417 38.9667 33.3238 39.5766 33.0879C40.1866 32.8521 40.6379 32.5268 40.9388 32.1161C41.2357 31.7054 41.3861 31.254 41.3861 30.7661C41.3861 30.2781 41.2438 29.839 40.9551 29.469C40.6664 29.0989 40.1947 28.7899 39.536 28.5378C39.1131 28.3711 38.1778 28.1149 36.7303 27.7693C35.2827 27.4237 34.2661 27.0943 33.6887 26.7853C32.9365 26.3908 32.3753 25.9029 32.0053 25.3173C31.6353 24.7318 31.4523 24.0771 31.4523 23.3534C31.4523 22.5564 31.68 21.8123 32.1314 21.121C32.5827 20.4297 33.2414 19.9052 34.1116 19.5474C34.9777 19.1895 35.9414 19.0106 37.0027 19.0106C38.1697 19.0106 39.2025 19.1977 40.093 19.5758C40.9835 19.954 41.6707 20.507 42.1506 21.2389C42.6304 21.9708 42.8906 22.7963 42.9231 23.7234L40.9226 23.8738C40.8168 22.8776 40.4509 22.1254 39.8328 21.6171C39.2107 21.1088 38.2958 20.8526 37.084 20.8526C35.8723 20.8526 34.9005 21.0844 34.3271 21.5479C33.7497 22.0115 33.461 22.5686 33.461 23.2192C33.461 23.7844 33.6643 24.252 34.075 24.618C34.4776 24.9839 35.5267 25.358 37.2223 25.7402C38.9179 26.1225 40.0808 26.46 40.7111 26.7446C41.6301 27.1675 42.3051 27.7042 42.7442 28.3508C43.1834 29.0014 43.3989 29.7455 43.3989 30.5912C43.3989 31.437 43.159 32.2218 42.6792 32.9619C42.1994 33.706 41.5081 34.2793 40.6095 34.6941C39.7108 35.1048 38.6983 35.3121 37.572 35.3121C36.1447 35.3121 34.9493 35.1048 33.9856 34.69C33.0219 34.2753 32.2655 33.6491 31.7166 32.8114C31.1677 31.9778 30.879 31.0304 30.8505 29.9772L30.8464 29.9813Z" fill="#009CE2"/>
<path d="M53.4506 33.6368C52.7349 34.2468 52.0437 34.6778 51.3809 34.9258C50.7181 35.1779 50.0065 35.304 49.2461 35.304C47.9896 35.304 47.0259 34.999 46.355 34.385C45.68 33.771 45.3425 32.9903 45.3425 32.0347C45.3425 31.4736 45.4686 30.9653 45.7248 30.5018C45.9809 30.0382 46.3144 29.6682 46.725 29.3876C47.1357 29.107 47.6034 28.8956 48.1157 28.7533C48.4939 28.6516 49.0672 28.5581 49.8357 28.4646C51.3971 28.2775 52.5479 28.058 53.2879 27.7977C53.2961 27.5334 53.3001 27.3626 53.3001 27.2935C53.3001 26.5047 53.1172 25.9476 52.7512 25.6263C52.2551 25.1872 51.5232 24.9717 50.5473 24.9717C49.6365 24.9717 48.9655 25.1303 48.5305 25.4515C48.0954 25.7687 47.7741 26.3339 47.5668 27.1471L45.676 26.8909C45.8467 26.0818 46.1314 25.4271 46.5258 24.927C46.9202 24.4268 47.4895 24.0446 48.2377 23.7762C48.9818 23.5078 49.8479 23.3737 50.8279 23.3737C51.8078 23.3737 52.5967 23.4875 53.2026 23.7193C53.8125 23.947 54.2598 24.2357 54.5485 24.5854C54.8331 24.9351 55.0364 25.3702 55.1503 25.9029C55.2153 26.2322 55.2479 26.8259 55.2479 27.6879V30.27C55.2479 32.0713 55.2885 33.2058 55.3699 33.6856C55.4512 34.1614 55.6138 34.6209 55.8578 35.0559H53.8369C53.6376 34.6534 53.5075 34.1858 53.4506 33.649V33.6368ZM53.2879 29.3144C52.5845 29.6031 51.5313 29.8471 50.1244 30.0463C49.3274 30.1602 48.7663 30.2903 48.4369 30.4326C48.1076 30.575 47.8514 30.7864 47.6725 31.0629C47.4936 31.3394 47.4041 31.6444 47.4041 31.9819C47.4041 32.4983 47.5993 32.9293 47.9896 33.2709C48.38 33.6165 48.9533 33.7873 49.7056 33.7873C50.4578 33.7873 51.1125 33.6246 51.694 33.2993C52.2755 32.974 52.7024 32.5267 52.9748 31.9615C53.1822 31.5224 53.2879 30.8799 53.2879 30.026V29.3144Z" fill="#009CE2"/>
<path d="M58.2488 35.0479V23.6258H59.9891V25.2483C60.8267 23.9959 62.0385 23.3656 63.6243 23.3656C64.3115 23.3656 64.9458 23.4876 65.5232 23.7356C66.1006 23.9837 66.5317 24.309 66.8204 24.7075C67.105 25.11 67.3083 25.5858 67.4222 26.1388C67.4954 26.4966 67.5279 27.1228 67.5279 28.0214V35.0438H65.5924V28.0946C65.5924 27.3058 65.5151 26.7162 65.3647 26.3258C65.2142 25.9355 64.9458 25.6224 64.5636 25.3906C64.1814 25.1588 63.73 25.0409 63.2136 25.0409C62.3882 25.0409 61.6766 25.3011 61.0789 25.8257C60.4811 26.3502 60.1802 27.3424 60.1802 28.8062V35.0438H58.2447L58.2488 35.0479Z" fill="#009CE2"/>
<path d="M81.9915 29.5178L84.0774 30.0465C83.6383 31.7583 82.8535 33.0677 81.715 33.9663C80.5805 34.8649 79.1898 35.3163 77.5471 35.3163C75.9043 35.3163 74.4649 34.9707 73.3995 34.2794C72.3342 33.5881 71.525 32.5838 70.9679 31.2745C70.4108 29.9611 70.1343 28.5541 70.1343 27.0496C70.1343 25.4069 70.4474 23.9756 71.0736 22.7516C71.6998 21.5277 72.5944 20.6006 73.7533 19.9663C74.9122 19.3319 76.1849 19.0148 77.5755 19.0148C79.1532 19.0148 80.4788 19.4173 81.5564 20.2184C82.6299 21.0194 83.3821 22.1498 83.805 23.6055L81.7516 24.0894C81.3856 22.9427 80.857 22.1092 80.1617 21.5846C79.4663 21.0601 78.5921 20.7998 77.5389 20.7998C76.3272 20.7998 75.3147 21.0885 74.5015 21.67C73.6882 22.2515 73.1149 23.0322 72.7855 24.0081C72.4562 24.9881 72.2894 25.9965 72.2894 27.0374C72.2894 28.3793 72.4846 29.5504 72.875 30.5466C73.2653 31.5469 73.8712 32.2951 74.6966 32.7871C75.5221 33.2832 76.4126 33.5312 77.3763 33.5312C78.5433 33.5312 79.5355 33.1937 80.3446 32.5187C81.1538 31.8437 81.7028 30.8434 81.9915 29.5178Z" fill="#009CE2"/>
<path d="M86.3586 35.0479V19.2831H88.2942V35.0479H86.3586Z" fill="#009CE2"/>
<path d="M90.5753 29.3348C90.5753 27.2204 91.1649 25.6549 92.3401 24.6343C93.32 23.7885 94.5196 23.3656 95.9305 23.3656C97.5001 23.3656 98.785 23.882 99.7813 24.9108C100.777 25.9395 101.278 27.3627 101.278 29.1762C101.278 30.6442 101.058 31.803 100.615 32.6447C100.176 33.4864 99.5332 34.1411 98.6915 34.6087C97.8498 35.0763 96.9308 35.3081 95.9346 35.3081C94.3366 35.3081 93.0435 34.7958 92.0595 33.7711C91.0755 32.7464 90.5794 31.2704 90.5794 29.3389L90.5753 29.3348ZM92.5637 29.3348C92.5637 30.7987 92.8809 31.8925 93.5193 32.6203C94.1577 33.3482 94.9587 33.7101 95.9265 33.7101C96.8942 33.7101 97.6872 33.3441 98.3256 32.6122C98.964 31.8803 99.2811 30.7661 99.2811 29.2657C99.2811 27.8547 98.9599 26.7853 98.3174 26.0574C97.675 25.3296 96.878 24.9677 95.9265 24.9677C94.975 24.9677 94.1536 25.3296 93.5193 26.0534C92.8809 26.7772 92.5637 27.871 92.5637 29.3348Z" fill="#009CE2"/>
<path d="M111.028 35.0479V33.3685C110.138 34.6575 108.93 35.304 107.405 35.304C106.73 35.304 106.104 35.1739 105.519 34.9177C104.933 34.6616 104.502 34.3363 104.217 33.9459C103.933 33.5556 103.734 33.0757 103.62 32.5105C103.542 32.1324 103.502 31.5265 103.502 30.7051V23.6299H105.437V29.9651C105.437 30.9776 105.478 31.6566 105.555 32.0104C105.677 32.5187 105.933 32.9172 106.328 33.2099C106.722 33.5027 107.21 33.645 107.792 33.645C108.373 33.645 108.918 33.4946 109.426 33.1977C109.935 32.9009 110.297 32.4943 110.508 31.9819C110.719 31.4696 110.825 30.7255 110.825 29.7496V23.6299H112.761V35.0519H111.028V35.0479Z" fill="#009CE2"/>
<path d="M123.203 35.0479V33.6084C122.479 34.7429 121.414 35.3081 120.011 35.3081C119.1 35.3081 118.262 35.056 117.498 34.5558C116.733 34.0557 116.144 33.3522 115.725 32.4536C115.306 31.555 115.095 30.5181 115.095 29.3511C115.095 28.1841 115.286 27.1756 115.664 26.2485C116.042 25.3214 116.615 24.6098 117.376 24.1138C118.136 23.6177 118.986 23.3696 119.925 23.3696C120.613 23.3696 121.227 23.516 121.763 23.8047C122.3 24.0934 122.739 24.4716 123.077 24.9392V19.2831H125V35.0479H123.203ZM117.083 29.347C117.083 30.8108 117.392 31.9047 118.006 32.6285C118.624 33.3522 119.352 33.7141 120.19 33.7141C121.027 33.7141 121.755 33.3685 122.345 32.6772C122.934 31.986 123.231 30.9288 123.231 29.5097C123.231 27.9482 122.93 26.8015 122.328 26.0696C121.727 25.3377 120.983 24.9717 120.1 24.9717C119.218 24.9717 118.523 25.3214 117.945 26.0249C117.368 26.7284 117.079 27.8344 117.079 29.347H117.083Z" fill="#009CE2"/>
</g>
<defs>
<clipPath id="clip0_54_16">
<rect width="125" height="50" fill="white"/>
</clipPath>
</defs>
</svg>
