<svg width="189" height="57" viewBox="0 0 189 57" fill="none" xmlns="http://www.w3.org/2000/svg">
<path d="M22.852 9.16789C18.6283 7.29289 16.1095 6.56539 13.6082 6.56539C10.9832 6.56539 9.30198 7.50539 9.30198 8.95789C9.30198 13.3416 24.1732 12.1079 24.1732 22.2479C24.1732 27.8391 19.482 31.0879 12.9645 31.0879C7.85201 31.0879 5.33449 29.7654 2.43449 28.2679V21.9954C6.61699 24.7666 9.177 25.7454 12.4033 25.7454C15.2008 25.7454 16.7095 24.7666 16.7095 23.0604C16.7095 18.2866 1.83826 20.0354 1.83826 9.59414C1.83826 4.55914 6.18951 1.22539 12.9645 1.22539C16.2345 1.22539 19.1845 1.91164 22.852 3.48914V9.16789Z" fill="#009E4D"/>
<path d="M43.6733 29.7555C41.1945 30.6543 39.0983 31.083 37.007 31.083C30.0808 31.083 25.6033 27.0493 25.6033 20.9118C25.6033 14.8868 30.2545 10.6305 36.7495 10.6305C38.7558 10.6305 41.3208 11.1443 43.372 11.908V16.5205C41.7483 15.658 39.8683 15.1855 38.3295 15.1855C34.612 15.1855 32.2208 17.4193 32.2208 20.8668C32.2208 24.363 34.572 26.6643 38.1145 26.6643C39.6095 26.6643 40.9383 26.3218 43.6733 25.298V29.7555Z" fill="#009E4D"/>
<path d="M97.6732 18.6518C97.927 15.9143 99.517 14.3318 101.952 14.3318C104.346 14.3318 105.968 15.9593 106.224 18.6518H97.6732ZM101.524 10.6368C95.447 10.6368 91.1207 14.9293 91.1207 20.9693C91.1207 27.0543 95.6195 31.083 102.553 31.083C104.089 31.083 107.804 31.083 111.343 28.4643V24.613C108.444 26.678 106.527 27.3893 104.052 27.3893C100.146 27.3893 97.757 25.368 97.5407 21.918H111.692C111.986 14.7168 107.258 10.6368 101.524 10.6368Z" fill="#009E4D"/>
<path d="M114.086 30.7236H120.273V10.9999H114.086V30.7236Z" fill="#009E4D"/>
<path d="M137.492 25.3329C136.203 26.4929 135.132 26.9579 133.811 26.9579C130.897 26.9579 129.053 24.5604 129.053 20.9666C129.053 17.0291 130.897 14.7591 134.016 14.7591C135.132 14.7591 136.59 15.2729 137.492 15.9166V25.3329ZM137.492 1.58914V11.8654C135.821 11.0566 134.155 10.6304 132.353 10.6304C126.71 10.6304 122.805 14.8016 122.805 20.8379C122.805 26.7441 126.709 31.0879 132.004 31.0879C134.104 31.0879 135.727 30.5379 137.492 29.1304V30.7179H143.678V1.58914H137.492Z" fill="#009E4D"/>
<path d="M152.837 18.6518C153.094 15.9143 154.676 14.3318 157.107 14.3318C159.504 14.3318 161.143 15.9593 161.4 18.6518H152.837ZM156.684 10.6368C150.608 10.6368 146.289 14.9293 146.289 20.9693C146.289 27.0543 150.788 31.083 157.715 31.083C159.248 31.083 162.971 31.083 166.518 28.4643V24.613C163.616 26.678 161.694 27.3893 159.208 27.3893C155.323 27.3893 152.925 25.368 152.708 21.918H166.853C167.147 14.7168 162.416 10.6368 156.684 10.6368Z" fill="#009E4D"/>
<mask id="mask0_2394_4709" style="mask-type:luminance" maskUnits="userSpaceOnUse" x="1" y="1" width="186" height="55">
<path d="M1.83826 1.2252V55.7627H186.583V1.2252" fill="white"/>
</mask>
<g mask="url(#mask0_2394_4709)">
<path d="M176.116 16.6473H176.207C178.043 12.5423 180.099 10.6173 182.486 10.6173C183.722 10.6173 184.788 11.0885 186.583 12.416L184.881 17.8848C183.256 16.8598 182.188 16.431 181.207 16.431C178.937 16.431 177.484 18.571 176.116 22.1885V30.6973H169.921V10.9785H176.116V16.6473Z" fill="#009E4D"/>
<path d="M120.563 2.70254C121.144 4.23504 120.098 6.37254 118.234 7.47254C116.363 8.57129 114.386 8.22254 113.809 6.69004C113.222 5.15504 114.263 3.01504 116.132 1.92129C117.998 0.816286 119.977 1.16629 120.563 2.70254Z" fill="#009E4D"/>
</g>
<path d="M65.9595 18.1698C65.9595 12.8248 62.327 10.636 58.742 10.636C56.3045 10.636 54.3007 11.6648 52.5082 13.9335H52.4232V1.58851H46.2295V30.666H52.4232V18.1698C53.872 16.0735 55.1095 15.1773 56.5607 15.1773C58.487 15.1773 59.767 16.5473 59.767 19.4935V26.4223C61.8445 25.3548 63.9557 24.6998 65.9595 24.456V18.1698Z" fill="#009E4D"/>
<path d="M81.4945 10.6304C78.972 10.6304 77.0457 11.5678 75.0745 13.8228V11.0004H68.8832V24.4041C71.0282 24.6179 73.7645 25.6016 75.0745 27.2266V18.0154C76.702 15.5729 77.857 14.7591 79.397 14.7591C81.1508 14.7591 82.4832 15.9166 82.4832 18.6978V30.6729H88.6758V18.1854C88.6758 12.3766 84.5732 10.6304 81.4945 10.6304Z" fill="#009E4D"/>
<path d="M92.0957 36.3362H84.9007V41.4487H91.842V43.6424H84.9007V48.9162H92.3107V51.1074H82.4882V34.1474H92.0957V36.3362Z" fill="#009E4D"/>
<path d="M97.972 51.1182H100.176V34.1432H97.972V51.1182Z" fill="#009E4D"/>
<path d="M111.087 41.6099C112.649 41.6099 113.618 42.6862 113.691 44.3774H108.078C108.382 42.6112 109.398 41.6099 111.087 41.6099ZM108.038 45.8487H115.889C115.889 41.7099 113.998 39.7124 111.037 39.7124C107.964 39.7124 105.831 41.9837 105.831 45.3712C105.831 48.4674 107.758 51.3262 111.228 51.3262C113.119 51.3262 114.342 50.9062 115.696 50.0074V47.8624C114.388 48.7187 113.12 49.2124 111.785 49.2124C109.65 49.2124 108.382 48.0674 108.038 45.8487Z" fill="#009E4D"/>
<path d="M130.281 42.8624C129.013 41.9949 128.167 41.7399 127.202 41.7399C125.185 41.7399 123.787 43.2874 123.787 45.5537C123.787 47.8624 125.275 49.2537 127.571 49.2537C128.516 49.2537 129.416 49.0087 130.527 48.5112V50.6849C129.785 51.0349 128.37 51.3262 127.202 51.3262C123.865 51.3262 121.548 49.0312 121.548 45.7512C121.548 42.0499 123.665 39.7124 127.051 39.7124C128.345 39.7124 129.215 40.0137 130.281 40.4824V42.8624Z" fill="#009E4D"/>
<path d="M140.322 39.9262H143.859V41.9124H140.322V47.6524C140.322 48.9662 141.273 49.3462 141.916 49.3462C142.713 49.3462 143.536 49.0674 144.428 48.5162V50.5837C143.654 51.0099 142.467 51.3262 141.739 51.3262C139.339 51.3262 138.126 49.8362 138.126 47.8187V41.9124H136.182V41.6662L140.322 37.6149V39.9262Z" fill="#009E4D"/>
<path d="M152.287 39.9269V42.5157H152.332C153.456 40.5344 154.524 39.7132 155.564 39.7132C156.462 39.7132 157.302 40.1344 158.226 41.0082L157.058 42.9507C156.387 42.2869 155.519 41.8294 154.996 41.8294C153.478 41.8294 152.287 43.3719 152.287 45.2832V51.1182H150.086V39.9269H152.287Z" fill="#009E4D"/>
<path d="M180.809 42.8624C179.536 41.9949 178.691 41.7399 177.719 41.7399C175.707 41.7399 174.321 43.2874 174.321 45.5537C174.321 47.8624 175.809 49.2537 178.092 49.2537C179.038 49.2537 179.933 49.0087 181.059 48.5112V50.6849C180.301 51.0349 178.884 51.3262 177.719 51.3262C174.387 51.3262 172.061 49.0312 172.061 45.7512C172.061 42.0499 174.187 39.7124 177.573 39.7124C178.869 39.7124 179.731 40.0137 180.809 40.4824V42.8624Z" fill="#009E4D"/>
<path d="M164.068 51.1182H166.272V39.9273H164.068V51.1182Z" fill="#009E4D"/>
<mask id="mask1_2394_4709" style="mask-type:luminance" maskUnits="userSpaceOnUse" x="1" y="1" width="186" height="55">
<path d="M1.83826 1.2252V55.7627H186.583V1.2252" fill="white"/>
</mask>
<g mask="url(#mask1_2394_4709)">
<path d="M166.346 35.9055C166.561 36.4455 166.184 37.2093 165.522 37.598C164.854 37.988 164.148 37.863 163.947 37.3218C163.746 36.7755 164.111 36.018 164.781 35.628C165.442 35.233 166.144 35.3593 166.346 35.9055Z" fill="#009E4D"/>
<path d="M67.6995 36.811C67.3108 36.811 67.147 36.8747 66.9883 37.0522C66.9258 37.121 66.9008 37.191 66.8783 37.331L64.902 44.826C64.4383 47.4547 61.2095 50.0797 57.0008 50.0797H51.1495L52.1645 46.2285H55.9233C56.307 46.2285 56.607 46.086 56.8583 45.806C56.9508 45.6972 57.0708 45.5272 57.087 45.3522L58.647 38.8035C59.107 36.1735 61.8858 33.2685 66.0933 33.2685H72.0858L71.3195 36.811H67.6995ZM69.0495 41.3785L69.7183 38.9535H75.8058C76.557 35.4372 75.9658 32.1797 73.832 30.046C69.5133 25.7272 60.4783 27.1947 53.747 33.6347C52.6958 34.6347 51.8083 35.716 50.9995 36.821H54.6645L53.812 39.251H49.4333C49.0145 40.0172 48.622 40.7772 48.322 41.5485H53.5145L52.6833 43.9785H47.5808C46.7083 47.691 47.2645 51.1535 49.4595 53.3522C53.7245 57.616 62.732 56.1172 69.4595 49.6785C70.637 48.5585 71.6095 47.3497 72.4883 46.1085H67.7795L68.497 43.6835H74.002C74.4058 42.9122 74.777 42.1497 75.067 41.3785H69.0495Z" fill="#009E4D"/>
</g>
</svg>
