<svg width="125" height="50" viewBox="0 0 125 50" fill="none" xmlns="http://www.w3.org/2000/svg">
<path d="M17.2395 30.7201C17.8326 30.4829 18.4258 30.1863 18.9003 29.7711C19.3748 29.4152 19.7307 28.8813 19.968 28.3475C20.2053 27.8137 20.3239 27.2205 20.3239 26.6273C20.3239 26.1528 20.2646 25.619 20.0866 25.2038C19.968 24.7886 19.7307 24.4327 19.4342 24.0768C19.1376 23.7209 18.841 23.4836 18.4851 23.2464C18.1292 23.0091 17.714 22.7718 17.2988 22.5939L15.3414 21.8228C15.0448 21.7041 14.7482 21.5855 14.4517 21.4669C14.1551 21.3483 13.9178 21.2296 13.6805 21.0517C13.5026 20.933 13.3247 20.6958 13.1467 20.5178C13.0281 20.2806 12.9688 20.0433 12.9688 19.806C12.9688 19.2722 13.206 18.7977 13.6212 18.5011C14.0958 18.1452 14.7482 18.0266 15.3414 18.0266C15.9345 18.0266 16.5277 18.1452 17.0615 18.3825C17.5954 18.6197 18.1292 18.9163 18.5444 19.3315L19.8494 17.6707C19.2562 17.0775 18.5444 16.603 17.7733 16.3064C17.0022 15.9505 16.1125 15.7726 15.2821 15.7726C14.5703 15.7726 13.9178 15.8912 13.2653 16.0692C12.6722 16.2471 12.1383 16.5437 11.6638 16.9589C11.2486 17.3148 10.8927 17.7893 10.6554 18.2638C10.4182 18.7977 10.2996 19.3315 10.2996 19.9247C10.2996 20.3992 10.3589 20.933 10.5368 21.4076C10.7148 21.8228 10.952 22.1787 11.2486 22.5346C11.5452 22.8311 11.8418 23.1277 12.1977 23.365C12.5535 23.6022 12.9094 23.7802 13.2653 23.9581L15.3414 24.8479C15.6973 24.9665 15.9939 25.1445 16.2311 25.2631C16.4684 25.3817 16.7056 25.5597 16.9429 25.7376C17.1209 25.9156 17.2988 26.0935 17.4174 26.2715C17.5361 26.5087 17.5954 26.8053 17.5954 27.0426C17.5954 27.5764 17.3581 28.1102 16.9429 28.4068C16.3497 28.822 15.6973 29 15.0448 28.9407C14.333 28.9407 13.6212 28.7627 12.9688 28.4661C12.3163 28.1695 11.6638 27.7543 11.13 27.2798L9.58777 29.0593C10.2996 29.7711 11.13 30.3049 12.0197 30.6608C12.9094 31.0167 13.9178 31.254 14.9262 31.254C15.7566 31.1353 16.5277 31.0167 17.2395 30.7201ZM29.8144 30.7201C30.4669 30.4829 31.06 30.127 31.5345 29.7118L30.4669 27.9916C30.1703 28.2289 29.8144 28.4661 29.3992 28.6441C29.0433 28.822 28.6281 28.9407 28.2129 28.9407C27.3825 28.9407 26.6114 28.5848 26.0775 27.9323C24.9505 26.3308 24.9505 24.1361 26.0775 22.5346C26.6114 21.8821 27.4418 21.5262 28.2722 21.5262C28.6281 21.5262 28.9247 21.5855 29.2212 21.7635C29.5178 21.9414 29.8737 22.1194 30.111 22.3566L31.3566 20.6365C30.9414 20.2806 30.4669 19.984 29.9923 19.7467C29.3992 19.5095 28.7467 19.3908 28.0942 19.3908C27.3825 19.3908 26.6707 19.5095 25.9589 19.806C25.3064 20.0433 24.7133 20.4585 24.1794 20.933C23.6456 21.4669 23.2304 22.06 22.9338 22.7718C22.6372 23.5429 22.4593 24.3733 22.4593 25.2631C22.4593 26.0935 22.5779 26.9239 22.8745 27.7543C23.1117 28.4661 23.5269 29.0593 24.0015 29.5931C24.476 30.0676 25.0691 30.4829 25.7216 30.7201C26.3741 30.9574 27.1452 31.1353 27.857 31.076C28.5688 31.076 29.2212 30.9574 29.8144 30.7201ZM36.8136 30.7794V19.6281H34.2038V30.7794H36.8136ZM60.8958 30.7201C61.4889 30.4829 62.0821 30.1863 62.5566 29.7711C63.0311 29.4152 63.387 28.9407 63.6243 28.3475C63.8616 27.8137 63.9802 27.2205 63.9802 26.6273C63.9802 26.1528 63.9209 25.619 63.7429 25.2038C63.6243 24.7886 63.387 24.4327 63.1498 24.0768C62.8532 23.7802 62.5566 23.4836 62.2007 23.2464C61.8448 23.0091 61.4296 22.7718 61.0144 22.5939L59.057 21.8228C58.7604 21.7041 58.4638 21.5855 58.1673 21.4669C57.93 21.3483 57.6334 21.2296 57.3962 21.0517C57.2182 20.933 57.0403 20.6958 56.8623 20.5178C56.7437 20.2806 56.6844 20.0433 56.6844 19.806C56.6844 19.2722 56.9216 18.7977 57.3368 18.5011C57.8114 18.1452 58.4638 18.0266 59.057 18.0266C59.6502 18.0266 60.2433 18.1452 60.7771 18.3825C61.311 18.6197 61.8448 18.9163 62.26 19.3315L63.6243 17.6707C62.438 16.4844 60.7772 15.7726 59.057 15.7726C58.3452 15.7726 57.6927 15.8912 57.0403 16.0692C56.4471 16.2471 55.9133 16.5437 55.4387 16.9589C55.0235 17.3148 54.6676 17.7893 54.4304 18.2638C54.1931 18.7977 54.0745 19.3315 54.0745 19.9247C54.0745 20.3992 54.1338 20.933 54.3117 21.4076C54.4897 21.8228 54.727 22.1787 55.0235 22.5346C55.3201 22.8311 55.6167 23.1277 55.9726 23.365C56.3285 23.6022 56.6844 23.7802 57.0403 23.9581L59.057 24.8479C59.4129 24.9665 59.7095 25.1445 59.9467 25.2631C60.184 25.3817 60.4213 25.5597 60.6585 25.7376C60.8365 25.9156 61.0144 26.0935 61.133 26.2715C61.2517 26.5087 61.311 26.746 61.311 27.0426C61.311 27.5764 61.0737 28.1102 60.6585 28.4068C60.0654 28.822 59.4129 29 58.7604 28.9407C58.0486 28.9407 57.3368 28.7627 56.6844 28.4661C56.0319 28.1695 55.3794 27.7543 54.8456 27.2798L53.3034 29.0593C54.0152 29.7711 54.8456 30.3049 55.7946 30.6608C56.6844 31.0167 57.6927 31.254 58.7011 31.254C59.4722 31.1353 60.2433 31.0167 60.8958 30.7201ZM73.7673 30.7201C74.4197 30.4829 75.0129 30.1863 75.5467 29.8304L74.657 28.1695C74.2418 28.4068 73.8266 28.5848 73.4114 28.7627C72.9962 28.8813 72.5216 29 72.0471 29C71.2167 29.0593 70.4456 28.7627 69.7931 28.1695C69.2 27.5764 68.7848 26.746 68.7254 25.8562H75.8433C75.9026 25.6783 75.9026 25.5003 75.9026 25.3224C75.9026 25.0851 75.962 24.8479 75.962 24.6106C75.962 23.8988 75.8433 23.187 75.6654 22.4752C75.4874 21.8821 75.1908 21.2889 74.7756 20.8144C74.3604 20.3399 73.8859 19.984 73.3521 19.7467C72.6996 19.5095 72.0471 19.3315 71.3353 19.3908C70.6829 19.3908 70.0304 19.5095 69.4372 19.806C68.8441 20.1026 68.2509 20.4585 67.7764 20.9924C67.3019 21.5262 66.8867 22.1787 66.6494 22.8311C66.3528 23.6022 66.2342 24.4327 66.2342 25.2631C66.2342 26.0935 66.3528 26.9239 66.6494 27.7543C66.8867 28.4661 67.3019 29.0593 67.8357 29.5931C68.3102 30.0676 68.9034 30.4829 69.5559 30.7201C70.2677 31.0167 70.9794 31.1353 71.6912 31.1353C72.4623 31.076 73.1148 30.9574 73.7673 30.7201ZM69.6745 22.06C70.149 21.5855 70.8015 21.3483 71.454 21.3483C72.1064 21.2889 72.7589 21.5855 73.1741 22.06C73.5893 22.6532 73.7673 23.365 73.708 24.0768H68.7848C68.7848 23.365 69.1407 22.6532 69.6745 22.06ZM81.5376 30.7794V23.0091C81.9528 22.6532 82.368 22.2973 82.7832 22.0007C83.1391 21.7635 83.6137 21.6448 84.0882 21.6448C84.622 21.5855 85.0966 21.8228 85.4525 22.238C85.749 22.8311 85.927 23.5429 85.8677 24.1954V30.8388H88.4775V23.7802C88.5369 22.6532 88.2403 21.4669 87.6471 20.5178C87.054 19.6874 86.0456 19.2722 85.0372 19.3908C84.3254 19.3908 83.6137 19.5688 83.0205 19.9247C82.4274 20.2806 81.8935 20.6958 81.419 21.1703H81.3004L81.1224 19.6874H78.987V30.8388L81.5376 30.7794ZM97.0783 30.7794C97.5528 30.6015 98.0274 30.3642 98.4426 30.0677C98.7985 29.7711 99.0357 29.4152 99.273 29C99.4509 28.5848 99.5696 28.1102 99.5696 27.6357C99.5696 27.1612 99.5103 26.746 99.273 26.3308C99.095 25.9749 98.8578 25.6783 98.5019 25.3817C98.2053 25.1445 97.8494 24.9072 97.4342 24.7292C97.0783 24.5513 96.6631 24.4327 96.3072 24.2547L95.4175 23.9581C95.1802 23.8395 94.8836 23.7802 94.7057 23.6022C94.5277 23.4836 94.3498 23.365 94.1719 23.187C94.0532 23.0091 93.9939 22.8311 93.9939 22.5939C93.9939 22.238 94.1125 21.9414 94.4091 21.7041C94.765 21.4669 95.1802 21.2889 95.6547 21.3483C96.0699 21.3483 96.5445 21.4076 96.9004 21.5855C97.3156 21.7635 97.7308 22.0007 98.0867 22.2973L99.273 20.6958C98.7985 20.3399 98.2646 19.984 97.6715 19.7467C97.019 19.4502 96.3072 19.3315 95.5954 19.3315C94.5277 19.2722 93.4601 19.6281 92.6296 20.2806C91.9179 20.8737 91.5026 21.7635 91.562 22.7125C91.562 23.1277 91.6806 23.5429 91.8585 23.8988C92.0365 24.2547 92.2738 24.5513 92.5703 24.7886C92.8669 25.0258 93.2228 25.2631 93.5787 25.441C93.9346 25.619 94.3498 25.7969 94.7057 25.9156L95.5954 26.2715C95.892 26.3901 96.1293 26.5087 96.3665 26.6273C96.6038 26.746 96.7817 26.9239 96.9004 27.1019C97.019 27.2798 97.1376 27.4578 97.0783 27.695C97.0783 28.0509 96.9004 28.4068 96.6631 28.6441C96.2479 28.9407 95.7734 29.0593 95.2988 29C94.765 29 94.2312 28.8813 93.6973 28.7034C93.1635 28.4661 92.689 28.1695 92.2144 27.8137L90.9095 29.5338C91.5026 30.0083 92.1551 30.3642 92.8669 30.6608C93.5787 30.9574 94.3498 31.076 95.1209 31.1353C95.7734 31.076 96.4258 30.9574 97.0783 30.7794ZM109.119 30.7201C109.772 30.4829 110.365 30.1863 110.899 29.8304L110.009 28.1695C109.594 28.4068 109.179 28.5848 108.763 28.7627C108.348 28.8813 107.874 29 107.399 29C106.569 29.0593 105.798 28.7627 105.145 28.1695C104.552 27.5764 104.137 26.746 104.078 25.8562H111.136C111.195 25.6783 111.195 25.5003 111.195 25.3224C111.195 25.0851 111.255 24.8479 111.255 24.6106C111.255 23.8988 111.136 23.187 110.958 22.4752C110.78 21.8821 110.484 21.2889 110.068 20.8144C109.653 20.3399 109.179 19.984 108.645 19.7467C107.992 19.4502 107.34 19.3315 106.628 19.3908C105.976 19.3908 105.323 19.5095 104.73 19.806C104.137 20.1026 103.544 20.4585 103.069 20.9924C102.595 21.5262 102.179 22.1787 101.942 22.8311C101.646 23.6022 101.468 24.4327 101.527 25.2631C101.527 26.0935 101.646 26.9239 101.942 27.7543C102.179 28.4661 102.595 29.0593 103.129 29.5931C103.662 30.0676 104.256 30.4829 104.908 30.7201C105.62 31.0167 106.332 31.1353 107.043 31.1353C107.814 31.076 108.526 30.9574 109.119 30.7201ZM105.027 22.06C105.501 21.5855 106.154 21.3483 106.806 21.3483C107.459 21.2889 108.111 21.5855 108.526 22.06C108.941 22.6532 109.119 23.365 109.06 24.0768H104.137C104.196 23.365 104.552 22.6532 105.027 22.06Z" fill="white"/>
<path d="M53.6593 14.1711C52.1171 13.0441 50.3969 12.273 48.5581 11.9171C46.7194 11.5019 44.8213 11.5019 42.9825 11.9171L53.6593 14.1711ZM37.822 36.0586C40.9064 38.3126 44.762 39.143 48.4988 38.3126L37.822 36.0586Z" fill="#00AF66"/>
<path d="M56.981 10.1376C52.5916 6.81589 46.9566 5.62958 41.6182 6.87521L56.981 10.1376ZM34.5596 40.092C38.949 43.4136 44.584 44.5999 49.9224 43.3543L34.5596 40.092Z" fill="#00AF66"/>
<path d="M51.1087 17.1963C49.0327 15.7727 46.4821 15.2388 44.0501 15.7134L51.1087 17.1963ZM40.3726 33.0335C42.4486 34.4571 44.9399 34.9909 47.4311 34.5164L40.3726 33.0335Z" fill="#00AF66"/>
<path d="M51.7612 26.39C52.473 23.0683 50.3376 19.8653 47.0753 19.1535C43.7536 18.4417 40.5505 20.5771 39.8387 23.8394C39.127 27.1611 41.2623 30.3642 44.5247 31.0759C47.787 31.7877 51.0494 29.6524 51.7612 26.39ZM49.2106 25.7969C48.7954 27.695 46.9566 28.8813 45.0585 28.4661C43.1604 28.0508 41.9741 26.2121 42.3893 24.314C42.8045 22.4159 44.6433 21.2296 46.5414 21.6448C48.3802 22.06 49.5665 23.8988 49.2106 25.7969Z" fill="#00AF66"/>
<path d="M35.5087 17.908C36.3984 17.908 37.1102 17.1962 37.1102 16.3065C37.1102 15.4167 36.3984 14.705 35.5087 14.705C34.619 14.705 33.9072 15.4167 33.9072 16.3065C33.9072 17.1962 34.619 17.908 35.5087 17.908Z" fill="white"/>
<path d="M115.051 22.4753C115.229 22.4159 115.407 22.2973 115.525 22.1194C115.644 22.0007 115.763 21.8228 115.881 21.5855C115.941 21.4076 116 21.1703 116 20.9331C116 20.6958 115.941 20.4585 115.881 20.2806C115.822 20.1026 115.703 19.9247 115.525 19.7467C115.407 19.6281 115.229 19.5095 115.051 19.3908C114.873 19.3315 114.636 19.2722 114.458 19.2722C114.28 19.2722 114.043 19.3315 113.865 19.3908C113.687 19.4502 113.509 19.5688 113.39 19.7467C113.271 19.8654 113.153 20.0433 113.034 20.2806C112.975 20.4585 112.916 20.6958 112.916 20.9331C112.916 21.1703 112.975 21.4076 113.034 21.5855C113.094 21.7635 113.212 21.9414 113.39 22.1194C113.687 22.4159 114.043 22.5939 114.458 22.5939C114.695 22.5939 114.873 22.5346 115.051 22.4753ZM113.983 22.1787C113.865 22.1194 113.687 22.0007 113.627 21.8821C113.509 21.7635 113.449 21.6448 113.39 21.4669C113.271 21.111 113.271 20.7551 113.39 20.3992C113.449 20.2213 113.509 20.1026 113.627 19.984C113.746 19.8654 113.865 19.7467 113.983 19.6874C114.28 19.5688 114.636 19.5688 114.932 19.6874C115.051 19.7467 115.229 19.8654 115.348 19.984C115.466 20.1026 115.525 20.2213 115.585 20.3992C115.644 20.5772 115.703 20.7551 115.703 20.9331C115.703 21.111 115.644 21.2889 115.585 21.4669C115.466 21.7635 115.229 22.0007 114.932 22.1194C114.636 22.3566 114.28 22.3566 113.983 22.1787ZM114.221 21.8228V21.2296H114.576L114.873 21.8228H115.288L114.932 21.1703C115.051 21.111 115.11 21.0517 115.17 20.9924C115.229 20.9331 115.229 20.8144 115.229 20.6958C115.229 20.5178 115.17 20.3992 115.051 20.2806C114.932 20.2213 114.754 20.162 114.576 20.162H113.983V21.8228H114.221ZM114.221 20.3992H114.458C114.576 20.3992 114.636 20.3992 114.695 20.4585C114.754 20.5178 114.754 20.5772 114.754 20.6365C114.754 20.8144 114.636 20.9331 114.398 20.9331H114.221V20.3992Z" fill="white"/>
</svg>
