<svg width="125" height="50" viewBox="0 0 125 50" fill="none" xmlns="http://www.w3.org/2000/svg">
<path d="M38.2485 32.7782C38.2485 34.5707 39.5818 36.0294 41.2212 36.0294H60.9414V31.7554H38.2464V32.776L38.2485 32.7782ZM55.0661 27.1517V22.8777H38.2847V27.1517H55.0661ZM32.705 22.8777H13.1401V18.274H60.9307V14H11.1817C10.1015 14 9.22327 14.959 9.22327 16.137V25.0147C9.22327 26.1927 10.1015 27.1517 11.1817 27.1517H30.7487V31.7554H9V36.0294H32.7071C33.7873 36.0294 34.6655 35.0704 34.6655 33.8924V25.0147C34.6655 23.8367 33.7873 22.8777 32.7071 22.8777H32.705ZM114.048 14H95.5781C94.8998 14 94.2789 14.3742 93.9195 15.0015L84.2785 31.7575H68.1647V18.274H84.1998L84.2509 18.1847L86.3283 14.5422L86.4006 14.4146L86.2901 14.319L85.9711 14.0447L85.9201 14.0021H66.2042C65.124 14.0021 64.2458 14.9611 64.2458 16.1391V33.8945C64.2458 35.0725 65.124 36.0315 66.2042 36.0315H85.3587C86.037 36.0315 86.6579 35.6573 87.0173 35.03L96.6583 18.274H112.085V31.7575H96.35L94.3789 28.3361L94.2236 28.0682L94.0684 28.3361L91.9611 31.9978L91.9101 32.0871L91.9611 32.1764L93.6049 35.03C93.9663 35.6573 94.5851 36.0315 95.2634 36.0315H114.042C115.122 36.0315 116 35.0725 116 33.8945V16.137C116 14.959 115.122 14 114.042 14H114.048Z" fill="white"/>
</svg>
