<svg width="77" height="32" viewBox="0 0 77 32" fill="none" xmlns="http://www.w3.org/2000/svg">
<path d="M0.669434 8.40674L6.01643 15.5693L0.669434 22.6891V8.40674Z" fill="#005CA8"/>
<path d="M8.58968 2.0444L17.5252 13.6534V13.7249C17.754 14.0251 18.1257 14.2825 18.5117 14.2825H75.6844C76.3708 14.2825 76.9428 13.6534 76.9428 12.9672C76.9428 12.2809 76.3848 11.6519 75.6844 11.6519H19.1407L10.5913 0.50039C10.3625 0.20015 9.99078 0 9.60478 0C8.91858 0 8.34668 0.55757 8.34668 1.2581C8.36098 1.544 8.44678 1.8157 8.58968 2.0444Z" fill="#005CA8"/>
<path d="M13.5937 16.3557C13.7653 16.1269 13.8939 15.8553 13.8939 15.5694C13.8939 15.2834 13.7939 15.0118 13.5937 14.7831L2.89966 0.529199C2.67096 0.228969 2.29926 0.0288086 1.91316 0.0288086C1.22696 0.0288086 0.655064 0.586389 0.655064 1.28692C0.655064 1.58712 0.783764 1.88742 0.955364 2.11612L11.0489 15.5837L0.926765 29.0798C0.726565 29.3086 0.626465 29.5802 0.626465 29.909C0.626465 30.5953 1.18406 31.1671 1.88466 31.1671C2.28496 31.1671 2.64237 30.967 2.87107 30.6668L13.5937 16.3557Z" fill="#005CA8"/>
<path d="M75.7274 16.8843H18.5118C18.1115 16.8843 17.7541 17.113 17.5253 17.4418V17.4704L8.58982 29.0794C8.41832 29.2795 8.33252 29.5369 8.33252 29.8371C8.33252 30.5234 8.89012 31.0952 9.59062 31.0952C9.99092 31.0952 10.3483 30.8951 10.5771 30.5949V30.6234L19.1551 19.5006H75.7417C76.4279 19.5006 76.9999 18.8715 76.9999 18.1853C76.9859 17.5133 76.3849 16.8843 75.7274 16.8843Z" fill="#005CA8"/>
<path d="M26.561 24.6045C26.561 24.8333 26.4896 25.0334 26.3323 25.1621C26.1607 25.2907 25.932 25.3622 25.6746 25.3622C25.3458 25.3622 24.9884 25.1621 24.6453 24.8047C24.5452 24.7046 24.4737 24.6331 24.4451 24.6045C24.2736 24.4329 24.0448 24.3043 23.7875 24.2042C23.5301 24.1327 23.187 24.0755 22.8296 24.0755C22.3006 24.0755 21.9003 24.1756 21.6144 24.3329C21.3141 24.533 21.1855 24.7618 21.1855 25.0906C21.1855 25.5195 21.743 25.8483 22.8725 26.0771C23.1298 26.1486 23.3729 26.1771 23.5015 26.2057C24.1878 26.3344 24.7168 26.4631 25.0456 26.5632C25.3744 26.6632 25.646 26.7633 25.9034 26.8634C26.3037 27.0635 26.5896 27.3209 26.8327 27.6211C27.0328 27.9499 27.1329 28.3074 27.1329 28.7792C27.1329 29.6084 26.8041 30.266 26.1035 30.7235C25.4173 31.2239 24.488 31.4526 23.3014 31.4526C22.6437 31.4526 22.1147 31.3812 21.6572 31.2811C21.1998 31.1524 20.728 30.9809 20.2991 30.7235C19.9988 30.552 19.7701 30.3232 19.6128 30.0659C19.4555 29.8085 19.3555 29.5655 19.3555 29.3367C19.3555 29.108 19.427 28.9078 19.5842 28.7363C19.7558 28.5647 19.9845 28.5075 20.2419 28.5075C20.5993 28.5075 20.9281 28.7077 21.2283 29.108C21.357 29.2795 21.4285 29.3653 21.5286 29.4368C21.7287 29.637 21.9575 29.7942 22.2577 29.8943C22.5579 29.9944 22.8868 30.023 23.2871 30.023C23.9161 30.023 24.3736 29.9229 24.7025 29.7656C25.0313 29.5655 25.2028 29.3081 25.2028 28.9793C25.2028 28.4789 24.3736 28.05 22.7295 27.7641C22.658 27.7641 22.6294 27.7355 22.6008 27.7355C21.3141 27.5067 20.4563 27.1779 20.0274 26.8062C19.5699 26.4488 19.3698 25.9198 19.3698 25.2193C19.3698 24.4329 19.6986 23.8039 20.3562 23.375C21.0139 22.9461 21.9432 22.7173 23.1012 22.7173C23.6588 22.7173 24.1306 22.7888 24.5881 22.8889C25.017 22.989 25.4459 23.1462 25.7747 23.3893C26.0749 23.5608 26.2751 23.7467 26.461 23.9897C26.461 24.1756 26.561 24.4043 26.561 24.6045Z" fill="white"/>
<path d="M35.0819 29.7227C35.4393 29.7227 35.7396 29.7942 35.9111 29.9229C36.1113 30.0515 36.1685 30.2517 36.1685 30.4804C36.1685 30.7092 36.0684 30.9094 35.8682 31.038C35.6681 31.1667 35.4107 31.2382 35.039 31.2382H29.8636C29.4061 31.2382 29.0773 31.1381 28.9057 30.9379C28.7056 30.7378 28.6484 30.409 28.6484 29.9086V24.2328C28.6484 23.7038 28.7198 23.375 28.9057 23.1748C29.1059 22.9747 29.4061 22.9175 29.8636 22.9175H34.8103C35.1677 22.9175 35.4393 22.9889 35.6395 23.1176C35.8396 23.2463 35.8968 23.4179 35.8968 23.6752C35.8968 23.9039 35.7967 24.0755 35.6395 24.2042C35.4393 24.3328 35.182 24.3757 34.8103 24.3757H30.6499V26.1628H34.3814C34.7388 26.1628 35.0104 26.2343 35.2106 26.3344C35.3821 26.4631 35.4679 26.6346 35.4679 26.892C35.4679 27.1207 35.3678 27.2923 35.2106 27.4209C35.0104 27.5496 34.7531 27.6211 34.4243 27.6211H30.6928V29.7656H35.0819V29.7227Z" fill="white"/>
<path d="M44.4465 28.1789H42.931C42.6737 28.1789 42.4735 28.1074 42.302 27.9787C42.1304 27.8501 42.0732 27.6785 42.0732 27.4498C42.0732 27.2496 42.1447 27.0494 42.302 26.9494C42.4735 26.8207 42.6594 26.7492 42.931 26.7492H45.1041C45.5331 26.7492 45.8619 26.8207 46.0334 26.9494C46.205 27.078 46.2908 27.2782 46.2908 27.5498V30.7523C46.2908 31.0097 46.2193 31.1812 46.1192 31.3099C45.9905 31.4386 45.819 31.51 45.5902 31.51C45.3901 31.51 45.2328 31.4386 45.0899 31.3814C44.9612 31.2813 44.8611 31.1526 44.8325 30.9525L44.6609 30.3234C44.3035 30.7523 43.8746 31.0525 43.4028 31.2527C42.9453 31.4529 42.4164 31.5529 41.7873 31.5529C40.4005 31.5529 39.2854 31.1526 38.4562 30.3377C37.5983 29.5514 37.1694 28.4505 37.1694 27.1352C37.1694 25.8199 37.5983 24.7334 38.4562 23.9328C39.314 23.1464 40.4291 22.7461 41.8588 22.7461C42.3163 22.7461 42.7452 22.7747 43.1455 22.8748C43.5458 22.9463 43.9318 23.0749 44.2606 23.2036C44.761 23.4324 45.1184 23.6611 45.3758 23.9328C45.6331 24.1901 45.7761 24.4903 45.7761 24.762C45.7761 24.9907 45.676 25.1909 45.5188 25.3624C45.3615 25.534 45.1613 25.5912 44.8897 25.5912C44.6609 25.5912 44.4894 25.5626 44.3321 25.4625C44.1606 25.391 44.0033 25.2338 43.7745 25.005C43.5172 24.7048 43.217 24.5046 42.9453 24.376C42.6451 24.2473 42.3163 24.1758 41.916 24.1758C41.0868 24.1758 40.4291 24.4331 39.9716 24.9335C39.5141 25.4625 39.2854 26.1488 39.2854 27.078C39.2854 27.9644 39.5141 28.6936 40.0145 29.194C40.5149 29.7229 41.2011 29.9517 42.0303 29.9517C42.688 29.9517 43.217 29.7801 43.6459 29.4513C44.0462 29.194 44.3178 28.7365 44.4465 28.1789Z" fill="white"/>
<path d="M55.04 28.1789H53.5245C53.2672 28.1789 53.067 28.1074 52.8955 27.9787C52.7239 27.8501 52.6667 27.6785 52.6667 27.4498C52.6667 27.2496 52.7382 27.0494 52.8955 26.9494C53.067 26.8207 53.2529 26.7492 53.5245 26.7492H55.6976C56.1266 26.7492 56.4268 26.8207 56.6269 26.9494C56.7985 27.078 56.8843 27.2782 56.8843 27.5498V30.7523C56.8843 31.0097 56.8128 31.1812 56.7127 31.3099C56.584 31.4386 56.4125 31.51 56.1551 31.51C55.955 31.51 55.7977 31.4386 55.6548 31.3814C55.5261 31.2813 55.4546 31.1526 55.3974 30.9525L55.2259 30.3234C54.8684 30.7523 54.4396 31.0525 53.9678 31.2527C53.5103 31.4529 52.9384 31.5529 52.3236 31.5529C50.9368 31.5529 49.8218 31.1526 48.964 30.3377C48.1062 29.5514 47.6772 28.4505 47.6772 27.1352C47.6772 25.8199 48.1062 24.7334 48.964 23.9328C49.8218 23.1464 50.9368 22.7461 52.3665 22.7461C52.824 22.7461 53.2529 22.7747 53.6532 22.8748C54.0535 22.9463 54.4395 23.0749 54.7684 23.2036C55.2687 23.4324 55.6262 23.6611 55.8835 23.9328C56.1409 24.1901 56.2838 24.4903 56.2838 24.762C56.2838 24.9907 56.2124 25.1909 56.0266 25.3624C55.855 25.534 55.6262 25.5912 55.3974 25.5912C55.1973 25.5912 54.9971 25.5626 54.8398 25.4625C54.6683 25.391 54.511 25.2338 54.2394 25.005C53.982 24.7048 53.7104 24.5046 53.4102 24.376C53.1099 24.2473 52.7811 24.1758 52.3808 24.1758C51.5516 24.1758 50.8939 24.4331 50.4364 24.9335C49.9789 25.4625 49.7502 26.1488 49.7502 27.078C49.7502 27.9644 49.9789 28.6936 50.4793 29.194C50.9797 29.7229 51.6374 29.9517 52.4952 29.9517C53.1242 29.9517 53.6818 29.7801 54.1107 29.4513C54.6826 29.194 54.9399 28.7365 55.04 28.1789Z" fill="white"/>
<path d="M65.2622 29.7227C65.6196 29.7227 65.9198 29.7942 66.0914 29.9229C66.2915 30.0515 66.3487 30.2517 66.3487 30.4804C66.3487 30.7092 66.2487 30.9094 66.0485 31.038C65.8483 31.1667 65.591 31.2382 65.2193 31.2382H60.0439C59.5864 31.2382 59.2575 31.1381 59.086 30.9379C58.9144 30.7378 58.8286 30.409 58.8286 29.9086V24.2328C58.8286 23.7038 58.9287 23.375 59.086 23.1748C59.2575 22.9747 59.5864 22.9175 60.0439 22.9175H64.9619C65.3194 22.9175 65.591 22.9889 65.7912 23.1176C65.9913 23.2463 66.0485 23.4179 66.0485 23.6752C66.0485 23.9039 65.9484 24.0755 65.7912 24.2042C65.591 24.3328 65.3337 24.3757 64.9619 24.3757H60.8445V26.1628H64.6045C64.9619 26.1628 65.2336 26.2343 65.3909 26.3344C65.591 26.4631 65.6482 26.6346 65.6482 26.892C65.6482 27.1207 65.5481 27.2923 65.3909 27.4209C65.1907 27.5496 64.9334 27.6211 64.6045 27.6211H60.8445V29.7656H65.2622V29.7227Z" fill="white"/>
<path d="M69.7801 24.376V26.592H72.1534C72.6824 26.592 73.0398 26.492 73.2685 26.3347C73.4973 26.1631 73.626 25.8772 73.626 25.5055C73.626 25.1338 73.4973 24.8764 73.2685 24.6763C73.0398 24.4761 72.6681 24.376 72.2106 24.376H69.7801ZM69.7801 30.4522C69.7801 30.7524 69.7086 30.9811 69.5228 31.1384C69.3512 31.31 69.0939 31.3671 68.7651 31.3671C68.4362 31.3671 68.1646 31.2957 68.0073 31.1384C67.8501 30.9811 67.75 30.7381 67.75 30.4522V24.2474C67.75 23.7184 67.8501 23.3896 68.0073 23.1894C68.2075 22.9892 68.5077 22.9321 68.9652 22.9321H72.4965C73.5831 22.9321 74.3837 23.1322 74.8698 23.5325C75.3988 23.9328 75.6561 24.519 75.6561 25.3196C75.6561 25.82 75.5274 26.2489 75.2558 26.6063C74.9984 26.9352 74.6267 27.1639 74.1692 27.2926C74.5267 27.3926 74.8269 27.5499 75.027 27.793C75.2272 28.0217 75.3273 28.3219 75.3559 28.7222C75.3845 28.8938 75.3845 29.0797 75.3845 29.3227C75.3845 29.5801 75.4131 29.7516 75.4131 29.8231C75.4416 29.9232 75.4845 30.0518 75.5131 30.252C75.5417 30.4522 75.5846 30.5808 75.5846 30.6523C75.5846 30.8811 75.4845 31.0812 75.3273 31.2099C75.1271 31.3386 74.8984 31.41 74.5981 31.41C74.1692 31.41 73.869 31.31 73.6688 31.1098C73.4973 30.9097 73.3686 30.3807 73.3114 29.5229C73.2828 28.8652 73.1113 28.4363 72.9111 28.2648C72.711 28.0932 72.3535 28.036 71.8246 28.036H69.6801V30.4807H69.7801V30.4522Z" fill="white"/>
</svg>
