<svg width="88" height="81" viewBox="0 0 88 81" fill="none" xmlns="http://www.w3.org/2000/svg">
<path d="M87.7704 5.04086C87.2184 6.4466 86.2334 7.53748 85.2425 8.64754C82.6772 11.5226 79.9667 14.2533 77.2107 16.9397C75.6183 18.4917 73.93 19.9439 72.2174 21.3668C70.0215 23.1913 67.7378 24.8938 65.3653 26.4771C63.5741 27.6719 61.7243 28.7729 59.8312 29.8043C56.4455 31.648 52.9196 33.1637 49.2776 34.4171C49.1948 34.4453 49.1242 34.4675 48.9829 34.4312C49.1756 34.1981 49.432 34.1042 49.652 33.968C49.876 33.8297 50.102 33.6945 50.3362 33.5754C52.4675 32.4926 54.6119 31.4371 56.7271 30.324C57.7443 29.7891 58.7938 29.3037 59.7384 28.6336C59.9049 28.5156 60.0391 28.3733 60.1854 28.2401C60.7889 27.6931 60.6304 27.3773 59.9412 27.0695C58.9179 26.6133 57.7988 26.4589 56.6917 26.3056C55.6624 26.1633 54.6301 26.0452 53.6007 25.9039C53.2203 25.8514 52.8005 26.0412 52.4039 25.6991C53.4605 25.696 54.4605 25.6314 55.4566 25.6203C56.8623 25.6052 58.266 25.5346 59.6677 25.472C60.913 25.4165 62.1754 25.3448 63.3904 24.9916C63.4843 24.9644 63.5781 24.9361 63.6659 24.8948C64.007 24.7343 64.4904 24.6082 64.4511 24.1793C64.4188 23.8291 63.9889 23.6354 63.6437 23.5122C62.6366 23.152 61.5962 22.9199 60.5356 22.7735C59.3932 22.6161 58.2559 22.4203 57.1116 22.2892C56.6857 22.2407 56.2598 22.2205 55.8299 22.0238C56.3002 21.9723 56.7705 21.9057 57.2427 21.8704C60.4498 21.6282 63.6639 21.6857 66.876 21.6463C67.5592 21.6383 68.2888 21.608 68.9125 21.1751C69.2374 20.949 69.2425 20.7886 68.9609 20.5373C68.4957 20.1205 67.9003 20.0105 67.3372 19.8733C65.6883 19.4726 64.0141 19.2183 62.3248 19.0367C60.8424 18.8772 59.3619 18.6996 57.8714 18.634C57.8321 18.632 57.7947 18.5937 57.7614 18.5745C57.7685 18.4342 57.8654 18.4443 57.9421 18.4443C59.2257 18.4524 60.4982 18.2707 61.7809 18.2213C63.0272 18.1739 64.2714 18.075 65.5197 18.0275C66.979 17.972 68.4402 17.8812 69.8924 17.7228C71.3102 17.5684 72.7493 17.4826 74.0955 16.9326C74.1257 16.9205 74.1721 16.9356 74.1923 16.9165C74.4264 16.7005 74.8836 16.6299 74.8473 16.2434C74.815 15.8932 74.4103 15.8246 74.1227 15.7267C73.1973 15.4128 72.2356 15.3049 71.2658 15.205C69.743 15.0475 68.2172 14.988 66.6914 14.8921C64.663 14.764 62.6386 14.8679 60.6133 14.8124C60.5497 14.8104 60.4861 14.8023 60.4135 14.7973C60.5426 14.6096 60.7233 14.6197 60.908 14.6086C62.7799 14.4955 64.6428 14.2614 66.5198 14.1908C67.53 14.1524 68.5441 14.0767 69.5523 13.9879C70.953 13.8648 72.3577 13.7821 73.7574 13.6216C75.2156 13.4541 76.6708 13.2947 78.0856 12.893C78.5892 12.7507 79.0968 12.5983 79.4722 12.1826C79.789 11.8314 79.783 11.6659 79.3551 11.4086C78.8546 11.1078 78.2804 10.9948 77.7213 10.8929C76.4185 10.6557 75.1006 10.5558 73.7776 10.4579C71.8673 10.3167 69.96 10.3954 68.0527 10.3984C67.3261 10.3994 66.5753 10.4327 65.8528 10.6335C66.1424 10.3389 66.5551 10.3752 66.9043 10.2985C69.3716 9.75255 71.836 9.19248 74.3276 8.75249C76.7364 8.32663 79.1371 7.85133 81.5268 7.3296C82.2665 7.16813 83.0365 6.98649 83.6652 6.48595C84.1607 6.09239 84.1385 5.8623 83.5592 5.60497C83.0718 5.38901 82.546 5.31434 82.0304 5.24975C80.3844 5.04388 78.7254 5.08324 77.0855 5.2548C74.2388 5.5535 71.4273 6.06615 68.637 6.72613C65.987 7.3518 63.3672 8.07435 60.7606 8.85643C55.951 10.2995 51.2555 12.0584 46.6043 13.9355C45.0069 14.5803 43.4447 15.315 41.8644 16.0042C41.6737 16.087 41.4738 16.1475 41.2367 16.1414C41.6444 15.8972 42.047 15.6439 42.4598 15.4098C44.5679 14.217 46.6992 13.0646 48.8921 12.0373C50.9275 11.0836 52.9841 10.1744 55.0721 9.33174C57.6131 8.30544 60.1844 7.36996 62.7951 6.54146C66.0485 5.5091 69.3454 4.6483 72.7028 4.02566C74.5173 3.68961 76.3418 3.43329 78.1744 3.20421C80.6034 2.90147 83.0365 2.90147 85.4715 2.93174C86.3777 2.94285 87.2325 3.18504 87.7714 4.02869V5.03581L87.7704 5.04086Z" fill="#1E71B8"/>
<path d="M43.5304 80.3098C43.1974 80.1221 42.8139 80.1867 42.4587 80.0898C40.2215 79.4772 38.9408 77.9746 38.3919 75.7787C38.1507 74.813 38.0205 73.828 38.0952 72.835C38.2365 70.95 38.7077 69.1941 40.1962 67.869C41.1478 67.0224 42.269 66.5672 43.5224 66.5178C44.6546 66.4734 45.7859 66.4361 46.898 66.867C48.4571 67.4714 49.4228 68.6057 50.0778 70.071C50.5258 71.0741 50.6651 72.166 50.6611 73.2306C50.653 75.3559 50.2241 77.3782 48.5267 78.8869C47.6619 79.6559 46.6436 80.0908 45.4902 80.2089C45.3994 80.2179 45.2823 80.1675 45.244 80.3088H43.5304V80.3098ZM49.2755 73.2871C49.3078 72.5343 49.1877 71.7361 48.9637 70.9621C48.673 69.961 48.227 69.0467 47.3369 68.415C46.1623 67.5814 44.8766 67.4048 43.4699 67.5996C41.5606 67.864 40.3617 68.9862 39.838 70.7229C39.2587 72.6423 39.2607 74.6303 40.0338 76.5245C40.5181 77.7112 41.3688 78.6063 42.6353 78.9898C43.4325 79.231 44.2419 79.3016 45.0966 79.2249C46.4459 79.1038 48.2008 77.9474 48.666 76.7041C49.0716 75.6223 49.2977 74.5072 49.2755 73.2871Z" fill="white"/>
<path d="M17.6307 80.3095C17.0182 80.136 16.3804 80.0643 15.788 79.806C14.237 79.1309 13.2046 77.9572 12.7122 76.3789C12.0239 74.1709 12.0159 71.9225 12.9382 69.7811C13.682 68.0525 15.0483 66.9384 16.9425 66.6165C18.2191 66.3995 19.5189 66.3581 20.7662 66.7759C22.5372 67.3683 23.6846 68.5924 24.2951 70.3664C25.049 72.5563 25.0046 74.737 24.1327 76.8441C23.3132 78.8221 21.7662 79.9806 19.5905 80.2106C19.5199 80.2177 19.4613 80.2308 19.4462 80.3116H17.6318L17.6307 80.3095ZM23.3647 73.3121C23.4182 72.6421 23.3556 71.9246 23.177 71.2111C22.8036 69.7266 22.0649 68.5318 20.5986 67.9112C19.5057 67.449 18.3745 67.4096 17.2261 67.6619C16.3431 67.8557 15.5469 68.2452 14.9646 68.9345C13.9746 70.1061 13.6577 71.528 13.5972 73.0255C13.5649 73.8238 13.6214 74.619 13.8111 75.3879C14.1048 76.5777 14.6033 77.6565 15.6548 78.4033C16.997 79.3559 18.4794 79.4508 19.9972 79.0653C21.3272 78.7272 22.2738 77.8825 22.8218 76.5929C23.2618 75.5565 23.4283 74.4878 23.3637 73.3131L23.3647 73.3121Z" fill="white"/>
<path d="M81.6227 80.3098C81.105 80.1211 80.5469 80.1685 80.0161 80.0182C79.3138 79.8194 78.6195 79.6115 77.9565 79.3017C77.7122 79.1877 77.6729 79.0524 77.8142 78.8344C77.8848 78.7255 77.9494 78.6094 77.9928 78.4883C78.0816 78.2391 78.1825 78.2411 78.4267 78.3511C79.5489 78.8556 80.7175 79.1533 81.9628 79.223C82.7418 79.2664 83.4755 79.2512 84.2253 79.0141C85.3232 78.6679 85.8732 77.682 85.9459 76.687C85.9893 76.1027 86.0377 75.4992 85.6946 74.9543C85.2667 74.2731 84.5724 74.0471 83.863 73.8664C82.651 73.5576 81.3976 73.4325 80.2008 73.0561C79.2381 72.7533 78.35 72.3033 77.9444 71.3244C77.3197 69.8188 77.6477 67.6007 79.7194 66.9225C82.0193 66.1707 84.3121 66.3422 86.5483 67.2535C86.6684 67.3019 86.846 67.3322 86.6946 67.5583C86.5998 67.6985 86.6068 67.9024 86.5392 68.0659C86.4615 68.2526 86.3969 68.3787 86.1083 68.2445C84.8519 67.6622 83.5098 67.4251 82.1353 67.526C81.3331 67.5845 80.551 67.7328 79.8224 68.195C78.8183 68.8318 78.5952 71.0812 79.9414 71.6726C80.8376 72.0661 81.767 72.2296 82.6944 72.4415C83.533 72.6333 84.3908 72.7584 85.191 73.0763C86.3273 73.5274 87.1235 74.3296 87.2477 75.584C87.3405 76.5265 87.3102 77.4711 86.7845 78.3521C86.2163 79.3047 85.3838 79.8133 84.3635 80.113C84.09 80.1928 83.7863 80.1312 83.5391 80.3088H81.6247L81.6227 80.3098Z" fill="white"/>
<path d="M71.7471 80.3098C71.4 80.1191 71.0014 80.1766 70.632 80.0666C68.4089 79.4026 67.1283 77.8515 66.6277 75.6708C66.1787 73.714 66.2211 71.7301 67.0556 69.8682C67.754 68.3121 68.9478 67.2091 70.633 66.7701C72.5635 66.2676 74.4658 66.3281 76.2843 67.2596C76.4962 67.3675 76.5719 67.4604 76.3902 67.6622C76.3044 67.7571 76.2358 67.8761 76.1874 67.9952C76.0491 68.3403 75.8311 68.3767 75.5254 68.2071C74.6171 67.7036 73.6322 67.4755 72.6039 67.5209C70.4514 67.6148 68.9952 68.6915 68.2232 70.6886C67.872 71.5979 67.7015 72.5545 67.7277 73.5213C67.7681 75.029 68.1102 76.4791 69.08 77.6739C69.8177 78.5832 70.8571 79.0635 72.0105 79.1907C73.2205 79.3239 74.4012 79.1271 75.5203 78.6185C75.7 78.5367 75.9926 78.348 76.0421 78.6669C76.0875 78.9616 76.476 79.337 75.9502 79.6165C75.3064 79.9586 74.6353 80.1746 73.9067 80.2119C73.8159 80.217 73.6988 80.1705 73.6605 80.3118H71.7461L71.7471 80.3098Z" fill="white"/>
<path d="M39.2921 40.9224C38.5867 40.6045 38.0155 40.0908 37.4393 39.5984C35.1697 37.6578 33.5087 35.2409 32.0444 32.6686C30.3551 29.6997 29.0089 26.5764 27.8019 23.3875C26.5405 20.0553 25.275 16.7231 23.9965 13.3525C24.5253 13.2082 24.9804 13.4373 25.3901 13.6755C26.487 14.3143 27.2994 15.2548 28.0371 16.275C30.1734 19.2318 31.6993 22.5287 33.3381 25.761C34.6328 28.3151 36.0709 30.7835 37.845 33.0329C38.9389 34.4194 40.0802 35.7767 41.4698 36.8949C41.6767 37.0614 41.8402 37.2804 42.0238 37.4751C41.1408 38.6457 40.1357 39.7205 39.2931 40.9224H39.2921Z" fill="#DCE183"/>
<path d="M46.2551 40.4961C47.5065 41.1985 48.7558 41.9059 50.0102 42.6022C50.9527 43.1249 51.9074 43.6285 52.8509 44.1502C54.296 44.9494 55.6795 45.8496 57.0711 46.7377C59.4063 48.2272 61.6406 49.8599 63.8465 51.5291C64.8981 52.3243 65.9042 53.1841 66.9093 54.0408C67.9013 54.8865 68.8428 55.7796 69.7521 56.708C69.9882 56.9482 70.4009 57.2489 70.189 57.5597C70.0013 57.8352 69.5775 57.5476 69.2899 57.4205C67.0001 56.4032 64.8224 55.1721 62.6436 53.9409C61.363 53.2174 60.0693 52.517 58.7857 51.7985C56.947 50.7692 55.1144 49.7288 53.2737 48.7025C51.975 47.9779 50.6651 47.2755 49.3663 46.551C47.5145 45.5176 45.6688 44.4741 43.8201 43.4347C44.6314 42.4548 45.4428 41.476 46.2531 40.4961H46.2551Z" fill="#3BA949"/>
<path d="M40.4203 12.3131C40.2619 11.2475 40.0873 10.2373 39.7987 9.25342C39.3728 7.80429 38.7169 6.47121 37.7774 5.2784C36.411 3.5457 34.5875 2.59004 32.4561 2.23583C30.6589 1.93712 28.8858 2.1228 27.1692 2.79086C26.1298 3.19552 25.2014 3.78184 24.4324 4.5609C23.2871 5.72141 22.5524 7.13523 22.1972 8.89618C21.8399 8.15446 21.2839 7.73769 20.6976 7.37338C19.3342 6.52671 17.8397 5.98278 16.3038 5.53775C14.9737 5.15226 13.6265 4.84144 12.2692 4.57906C11.1612 4.36512 10.043 4.20265 8.92693 4.03311C7.75935 3.85551 6.59177 3.68092 5.42015 3.53561C4.63403 3.43772 3.83983 3.39735 3.05068 3.3247C2.12731 3.23993 1.20697 3.11177 0.276542 3.12287C0.121134 3.12488 0.0182011 3.05223 0.0020548 2.89379C-0.0211555 2.66371 0.157463 2.73334 0.275533 2.72123C2.24538 2.51536 4.22533 2.57995 6.19417 2.64756C7.70788 2.70003 9.22766 2.8171 10.7383 3.00782C11.806 3.14305 12.8949 3.10167 13.9626 3.2369C15.5913 3.44377 17.2241 3.47708 18.8529 3.41047C20.6794 3.3358 22.4101 2.90287 24.0298 1.96033C25.5637 1.06623 27.2338 0.483953 29.0119 0.179191C31.224 -0.199238 33.3452 0.00359994 35.3544 0.961278C37.8036 2.12886 39.388 4.08559 40.2054 6.66597C40.6343 8.01823 40.7876 9.41186 40.6898 10.8166C40.6565 11.2889 40.712 11.8035 40.4233 12.3111L40.4203 12.3131Z" fill="#E32026"/>
<path d="M33.882 73.0043C35.427 73.303 36.5482 74.6159 36.4947 76.2255C36.4594 77.3042 36.2899 78.272 35.4755 79.047C34.8559 79.6354 34.0879 79.8937 33.2755 79.9997C31.4429 80.2378 29.5982 80.0521 27.7606 80.1137C27.475 80.1228 27.3993 80.039 27.3993 79.7544C27.4084 75.5231 27.4084 71.2917 27.3993 67.0604C27.3993 66.7748 27.477 66.6981 27.7606 66.7001C29.1713 66.7143 30.5842 66.6517 31.9919 66.7244C33.0283 66.7778 34.0536 66.9585 34.9043 67.6901C35.8145 68.4732 35.9548 69.4995 35.8549 70.5692C35.7419 71.7741 35.0385 72.5855 33.882 73.0033V73.0043ZM28.6153 76.3324C28.6153 77.1377 28.6214 77.943 28.6113 78.7493C28.6082 78.9804 28.6214 79.1227 28.9221 79.1066C30.1704 79.0369 31.4217 79.1792 32.6741 79.0117C34.1172 78.819 35.2161 77.9188 35.1859 76.2507C35.1586 74.7218 34.2857 73.9983 32.993 73.7611C31.6589 73.5159 30.3117 73.5684 28.9655 73.5532C28.6759 73.5502 28.6022 73.638 28.6082 73.9175C28.6264 74.7228 28.6143 75.5281 28.6143 76.3334L28.6153 76.3324ZM28.6153 70.1322C28.6153 70.8709 28.6244 71.6096 28.6103 72.3483C28.6052 72.5915 28.6779 72.6692 28.9201 72.6551C30.0523 72.5905 31.1866 72.7338 32.3209 72.5613C33.7519 72.3423 34.2302 71.9992 34.5208 70.5904C34.7045 69.7003 34.3785 68.4096 33.216 68.0352C31.7709 67.57 30.2885 67.7577 28.8192 67.7123C28.5699 67.7042 28.6163 67.8738 28.6163 68.0171C28.6143 68.7225 28.6163 69.4269 28.6163 70.1322H28.6153Z" fill="white"/>
<path d="M7.77546 73.4148C8.75635 75.4936 9.66761 77.6067 10.5859 79.7169C10.7212 80.0277 10.6969 80.1104 10.3437 80.1145C9.31138 80.1266 9.31441 80.1377 8.90066 79.184C8.14077 77.4322 7.47978 75.6389 6.68054 73.9022C6.57761 73.6781 6.48577 73.657 6.29908 73.658C5.62699 73.662 4.9549 73.6721 4.28382 73.6549C3.80448 73.6428 3.32412 73.6075 2.8468 73.553C2.49562 73.5137 2.40076 73.6277 2.40479 73.9849C2.42498 75.866 2.40176 77.747 2.42397 79.6271C2.42901 80.0206 2.3281 80.176 1.93352 80.1104C1.81949 80.0913 1.69637 80.0913 1.58133 80.1104C1.26345 80.1629 1.19483 80.0307 1.19685 79.7249C1.21097 77.6088 1.20391 75.4926 1.20391 73.3774C1.20391 71.2945 1.214 69.2127 1.19483 67.1308C1.1918 66.7685 1.29473 66.6939 1.63986 66.6979C3.23532 66.7171 4.83179 66.6676 6.42623 66.7211C7.43538 66.7554 8.47682 66.8765 9.27202 67.587C10.1651 68.3852 10.2378 69.4862 10.1399 70.5922C10.0955 71.0887 9.93301 71.56 9.68577 72.0151C9.26899 72.783 8.607 73.1584 7.77647 73.4148H7.77546ZM2.41387 70.0816C2.41387 70.7849 2.42598 71.4893 2.40782 72.1927C2.40076 72.4712 2.4714 72.5691 2.76304 72.558C3.3322 72.5348 3.90337 72.5681 4.47152 72.5469C5.36663 72.5136 6.26679 72.6468 7.15786 72.453C8.01463 72.2664 8.62819 71.787 8.81084 70.9262C8.99451 70.0604 8.98946 69.1905 8.34664 68.4538C7.79262 67.818 7.0075 67.7817 6.28193 67.7343C5.09719 67.6576 3.90337 67.7202 2.71359 67.708C2.46736 67.705 2.40378 67.7827 2.40883 68.0199C2.42296 68.7061 2.41387 69.3933 2.41387 70.0805V70.0816Z" fill="white"/>
<path d="M5.28189 62.0714C3.73286 62.1249 2.25749 61.8121 0.859823 61.1481C0.680195 61.0633 0.312866 60.9624 0.567171 60.6728C0.747808 60.4669 0.681204 59.8443 1.32907 60.2005C2.20199 60.6798 3.18388 60.8534 4.1789 60.9775C5.10832 61.0936 6.01857 61.1289 6.91772 60.8584C8.73418 60.3115 9.21655 57.8835 8.34869 56.612C7.90567 55.9631 7.15789 55.8036 6.44544 55.623C5.1719 55.3001 3.85597 55.177 2.60665 54.7279C1.44109 54.3091 0.398644 53.3494 0.479375 51.8387C0.516714 51.1333 0.569189 50.4673 0.963765 49.8689C1.52586 49.0151 2.42299 48.7104 3.34131 48.4762C4.22936 48.2492 5.14566 48.2189 6.05692 48.2734C7.11955 48.337 8.14585 48.5893 9.12674 49.004C9.26297 49.0615 9.50416 49.1009 9.45673 49.3148C9.39517 49.5934 9.27912 49.8628 9.15701 50.1232C9.10756 50.2281 9.01472 50.1 8.95821 50.0747C7.99548 49.6428 6.99643 49.4117 5.93481 49.3623C4.84695 49.3118 3.80047 49.3602 2.81151 49.8769C1.97493 50.3129 1.71356 51.0637 1.7186 51.9174C1.72466 52.7641 2.26354 53.2757 2.99618 53.6098C4.04569 54.0891 5.19713 54.1527 6.30012 54.413C7.33046 54.6562 8.35979 54.8732 9.16206 55.6624C9.97946 56.4656 10.151 57.4738 10.0501 58.5223C9.97139 59.3417 9.72819 60.1399 9.11261 60.7747C8.2508 61.6617 7.19523 62.0442 5.98628 62.0724C5.75115 62.0775 5.51602 62.0724 5.28089 62.0724L5.28189 62.0714Z" fill="white"/>
<path d="M12.3903 55.1267C12.3903 53.0438 12.3964 50.9619 12.3832 48.8801C12.3812 48.5642 12.4458 48.4572 12.7879 48.4603C15.005 48.4774 17.2221 48.4875 19.4382 48.4552C19.9589 48.4481 19.8459 48.7418 19.8449 49.0203C19.8449 49.2958 19.968 49.6006 19.4432 49.5905C17.6298 49.5562 15.8153 49.5865 14.0019 49.5693C13.6699 49.5663 13.5861 49.6571 13.5912 49.9841C13.6104 51.3272 13.6114 52.6714 13.5912 54.0146C13.5861 54.3526 13.6881 54.4253 14.009 54.4223C15.7053 54.4061 17.4017 54.4293 19.0981 54.4041C19.4906 54.3981 19.5714 54.5141 19.5542 54.8774C19.525 55.5222 19.5482 55.5233 18.8791 55.5233C17.2836 55.5233 15.6882 55.5333 14.0927 55.5152C13.7244 55.5111 13.5791 55.5707 13.5882 55.9915C13.6184 57.4517 13.6124 58.913 13.5912 60.3742C13.5861 60.7486 13.6568 60.8808 14.0705 60.8747C15.9011 60.8485 17.7317 60.8647 19.5623 60.8626C19.8701 60.8626 20.0497 60.789 19.9962 61.3107C19.9377 61.8879 19.7177 61.8788 19.304 61.8768C17.1706 61.8657 15.0383 61.8607 12.905 61.8819C12.5023 61.8859 12.3721 61.8133 12.3782 61.3763C12.4054 59.2944 12.3903 57.2115 12.3903 55.1297V55.1267Z" fill="white"/>
<path d="M56.5302 73.9978C56.5302 75.8778 56.5151 77.7578 56.5413 79.6379C56.5474 80.0526 56.4132 80.1303 56.0398 80.1162C55.3213 80.09 55.3203 80.1092 55.3203 79.4139C55.3203 75.7214 55.3102 72.0279 55.3334 68.3355C55.3364 67.8723 55.2022 67.7925 54.7804 67.8036C53.6905 67.8339 52.5986 67.8036 51.5067 67.8198C51.206 67.8238 51.0647 67.7835 51.0768 67.4242C51.101 66.7057 51.0768 66.7057 51.7812 66.7057C54.6018 66.7057 57.4223 66.7228 60.2419 66.6906C60.7697 66.6845 60.7525 66.9015 60.7787 67.295C60.81 67.7693 60.6324 67.8349 60.2187 67.8238C59.1782 67.7946 58.1368 67.8349 57.0964 67.8047C56.6635 67.7925 56.506 67.8743 56.5151 68.3577C56.5484 70.2367 56.5282 72.1177 56.5282 73.9968L56.5302 73.9978Z" fill="white"/>
<path d="M22.6694 55.1693C22.6694 53.0875 22.6795 51.0056 22.6604 48.9248C22.6563 48.5524 22.7411 48.402 23.1235 48.4636C23.287 48.4898 23.4596 48.4787 23.6261 48.4656C23.8239 48.4494 23.8966 48.5261 23.8814 48.7219C23.8683 48.9056 23.8784 49.0913 23.8784 49.2759C23.8784 53.3044 23.8713 57.334 23.8885 61.3625C23.8905 61.7772 23.7977 61.9488 23.3738 61.8721C23.2759 61.8539 23.171 61.8559 23.0721 61.8721C22.7411 61.9246 22.6573 61.7924 22.6604 61.4644C22.6755 59.3664 22.6684 57.2674 22.6684 55.1693H22.6694Z" fill="white"/>
<path d="M62.4761 73.4076C62.4761 71.3258 62.4862 69.2439 62.4671 67.163C62.463 66.7907 62.5478 66.6403 62.9302 66.7019C63.0937 66.7281 63.2663 66.717 63.4328 66.7039C63.6306 66.6877 63.7053 66.7644 63.6881 66.9602C63.675 67.1106 63.6861 67.2619 63.6861 67.4133C63.6861 71.4761 63.679 75.5379 63.6962 79.6007C63.6982 80.0155 63.6054 80.1881 63.1825 80.1104C63.0846 80.0922 62.9797 80.0942 62.8808 80.1104C62.5508 80.1628 62.466 80.0306 62.4681 79.7027C62.4832 77.6047 62.4761 75.5056 62.4761 73.4076Z" fill="white"/>
<path d="M27.0763 5.64455C27.8019 5.64656 28.3136 6.15315 28.3136 6.86359C28.3136 7.62852 27.7464 8.12603 27.0501 8.15631C26.3417 8.18658 25.7857 7.56697 25.7937 6.81818C25.8018 6.13499 26.3397 5.64152 27.0763 5.64455Z" fill="#E32026"/>
<path d="M46.2551 40.4964C45.4438 41.4763 44.6324 42.4551 43.8221 43.435C43.6203 43.3977 43.4326 43.3351 43.3246 43.1404C43.371 42.881 43.5466 42.6973 43.703 42.5046C44.3519 41.7003 45.0018 40.897 45.6517 40.0938C45.8535 40.228 46.0543 40.3622 46.2562 40.4964H46.2551Z" fill="#52B148"/>
<path d="M41.1004 41.924C40.941 41.9139 40.8138 41.8372 40.7018 41.7302C40.6837 41.5284 40.7967 41.3962 40.9178 41.2478C41.6948 40.2972 42.4608 39.3375 43.2307 38.3809C43.3791 38.5443 43.6293 38.5807 43.7414 38.7896C43.6637 38.8511 43.5728 38.9006 43.5113 38.9752C42.705 39.9561 41.9027 40.9401 41.0994 41.924H41.1004Z" fill="#A5CF6A"/>
<path d="M42.7191 42.837C42.4991 42.8229 42.3861 42.6301 42.2156 42.5342C42.5668 42.0973 42.9331 41.6704 43.2661 41.2193C43.7152 40.6118 44.2974 40.1052 44.6395 39.417C44.8131 39.5361 45.0331 39.5916 45.1471 39.7924C45.0704 39.9599 44.9705 40.1093 44.8494 40.2536C44.133 41.1103 43.4276 41.9752 42.7191 42.837Z" fill="#76BE53"/>
<path d="M43.2318 38.3807C42.4618 39.3373 41.6958 40.297 40.9188 41.2477C40.7977 41.396 40.6847 41.5282 40.7028 41.73C40.4869 41.7098 40.3678 41.5262 40.1993 41.4273C40.2901 40.9903 40.6524 40.7411 40.9087 40.4222C41.5404 39.634 42.1913 38.863 42.8352 38.084C42.9674 38.1829 43.0996 38.2818 43.2318 38.3807Z" fill="#B4D571"/>
<path d="M42.8352 38.084C42.1913 38.862 41.5404 39.634 40.9087 40.4222C40.6524 40.7411 40.2901 40.9903 40.1993 41.4273C39.9682 41.3789 39.7724 41.2608 39.5887 41.1165C39.7724 41.0206 39.8844 40.8571 40.0126 40.7007C40.8128 39.7228 41.6242 38.7531 42.4315 37.7812C42.5657 37.8822 42.6999 37.9831 42.8342 38.084H42.8352Z" fill="#C3D978"/>
<path d="M41.1004 41.9235C41.9037 40.9406 42.706 39.9556 43.5123 38.9747C43.5738 38.9001 43.6646 38.8506 43.7423 38.7891C43.8725 38.896 44.0754 38.9051 44.146 39.0918C43.2721 40.1151 42.3931 41.1343 41.611 42.2323C41.4415 42.1293 41.2709 42.0264 41.1014 41.9235H41.1004Z" fill="#91C961"/>
<path d="M42.7191 42.8366C43.4286 41.9748 44.134 41.1089 44.8495 40.2532C44.9695 40.1089 45.0694 39.9605 45.1472 39.792C45.3611 39.8162 45.4852 39.9888 45.6507 40.0937C45.0008 40.897 44.3509 41.7003 43.7021 42.5046C43.5456 42.6983 43.37 42.881 43.3236 43.1403C43.0946 43.0939 42.8988 42.9809 42.7181 42.8366H42.7191Z" fill="#5FB648"/>
<path d="M42.4315 37.7814C41.6242 38.7532 40.8128 39.723 40.0126 40.7008C39.8844 40.8573 39.7734 41.0218 39.5887 41.1166C39.4898 41.052 39.3909 40.9864 39.2921 40.9218C40.1357 39.72 41.1398 38.6452 42.0228 37.4746C42.2256 37.4877 42.3316 37.631 42.4315 37.7814Z" fill="#D3DF7F"/>
<path d="M41.61 42.2323C42.3921 41.1353 43.2711 40.1161 44.145 39.0918C44.2459 39.1594 44.3468 39.226 44.4478 39.2936C44.0088 39.8164 43.5345 40.3139 43.1399 40.8679C42.7665 41.3916 42.1913 41.7731 42.0137 42.4361C41.8573 42.4129 41.7211 42.3483 41.61 42.2333V42.2323Z" fill="#88C55C"/>
<path d="M42.0137 42.4364C42.1913 41.7734 42.7666 41.392 43.1399 40.8682C43.5345 40.3142 44.0088 39.8167 44.4478 39.2939C44.5114 39.3353 44.5749 39.3757 44.6395 39.4171C44.2974 40.1053 43.7152 40.6119 43.2661 41.2194C42.9331 41.6705 42.5667 42.0963 42.2156 42.5343C42.1409 42.5172 42.048 42.5373 42.0147 42.4364H42.0137Z" fill="#7EC157"/>
</svg>
