<svg width="86" height="39" viewBox="0 0 86 39" fill="none" xmlns="http://www.w3.org/2000/svg">
<path fill-rule="evenodd" clip-rule="evenodd" d="M13.3304 10.7933C12.7549 5.89999 7.14244 4.89307 4.26438 7.19561C3.54475 7.77113 3.11288 8.77852 3.25699 9.93002C3.40064 11.0815 4.55214 12.0884 5.9914 12.5203C10.3087 13.5277 13.0431 13.8155 14.7697 16.118C16.0648 17.845 16.209 21.0113 15.2016 22.7383C12.6113 27.0552 6.27916 26.4792 3.25699 25.1841C3.25699 25.1841 2.10549 24.4644 1.67408 25.9037H0.378465V19.2838H1.67361C1.96137 21.4427 3.40017 23.457 5.41495 24.1767C6.99786 24.7522 9.44451 24.7522 10.8838 23.8889C11.8912 23.3134 12.8986 22.3065 12.6108 20.2917C11.8912 16.5499 5.70271 17.7009 2.10502 15.1106C0.377998 13.6714 -0.773038 10.2178 1.09763 7.62748C3.40017 4.17344 9.01264 4.17344 11.6029 5.32494C11.7471 5.46859 12.8981 6.18822 13.33 5.03718H14.481V10.7938L13.3304 10.7933ZM20.5258 24.6085H20.9577C22.1092 24.6085 22.9725 24.1767 22.9725 22.7383V7.91477C22.9725 6.33186 21.821 6.18775 21.1013 6.18775H20.5258V5.03672H29.3046V6.18775C28.0094 6.18775 26.8579 6.18775 26.8579 7.91477V22.7383C26.8579 24.4644 28.2972 24.6085 28.8727 24.6085H29.3046V25.6159H20.5258V24.6085ZM42.6884 6.18822H42.2565C41.2487 6.18822 40.2417 6.33233 40.2417 7.91524V22.7388C40.2417 24.609 41.681 24.609 42.2565 24.609H42.6884V25.6164H34.0533V24.609H34.4852C35.2043 24.609 36.4999 24.3212 36.4999 22.7388V7.91477C36.4999 6.47598 35.3484 6.18775 34.6288 6.18775H34.0533V5.03672H42.6884V6.18822Z" fill="white"/>
<path fill-rule="evenodd" clip-rule="evenodd" d="M69.8869 27.3432C71.4566 27.3471 73.0116 27.0409 74.4625 26.442C75.9135 25.8431 77.2318 24.9634 78.3417 23.8535C79.4517 22.7436 80.3314 21.4252 80.9302 19.9743C81.5291 18.5233 81.8354 16.9683 81.8314 15.3986C81.8354 13.8289 81.5291 12.274 80.9302 10.823C80.3314 9.37203 79.4517 8.05371 78.3417 6.94377C77.2318 5.83383 75.9135 4.95415 74.4625 4.35527C73.0116 3.7564 71.4566 3.45013 69.8869 3.45406C63.4111 3.45406 58.0859 8.77878 58.0859 15.3986C58.0864 22.019 63.4116 27.3432 69.8869 27.3432ZM82.2633 6.18848C83.9903 6.18848 85.2855 4.74968 85.2855 3.16631C85.2855 1.43928 83.9903 0.000488281 82.2633 0.000488281C80.5363 0.000488281 79.097 1.43928 79.097 3.16631C79.097 4.74921 80.5363 6.18848 82.2633 6.18848Z" fill="#2F7CBD"/>
<path fill-rule="evenodd" clip-rule="evenodd" d="M4.11996 34.3946C3.97585 33.5318 3.40033 33.244 2.53705 33.244C1.81742 33.244 1.2419 33.3872 1.2419 34.2505C1.2419 34.9701 2.24929 35.1142 3.11257 35.402C4.11996 35.5461 5.12735 35.9775 5.12735 37.129C5.12735 38.4242 3.8322 39.0002 2.6807 39.0002C1.38555 39.0002 0.234047 38.2805 0.234047 36.8413H0.953678C0.953678 37.8487 1.81696 38.2805 2.82435 38.2805C3.54398 38.2805 4.40725 38.1364 4.40725 37.129C4.40725 36.2653 3.39987 36.1216 2.39247 35.9775C1.38508 35.6898 0.377693 35.402 0.377693 34.2505C0.377693 33.0999 1.5292 32.5244 2.68023 32.5244C3.83127 32.5244 4.83866 33.0999 4.83866 34.3946H4.11996ZM9.87655 37.4173C9.73243 38.4246 9.01327 39.0006 8.00588 39.0006C6.56708 39.0006 5.84745 37.9932 5.84745 36.554C5.84745 35.2588 6.71119 34.251 7.86223 34.251C9.44561 34.251 10.0207 35.6902 9.87701 36.8417H6.56708C6.56708 37.5614 6.99849 38.281 8.00588 38.281C8.5814 38.281 9.01327 37.9932 9.15738 37.4173H9.87655ZM9.15692 36.1216C9.15692 35.402 8.58093 34.9701 7.86177 34.9701C7.1426 34.9701 6.56662 35.5457 6.56662 36.1216H9.15692ZM10.4521 34.3946H11.1717V38.8561H10.4521V34.3946ZM10.4521 32.6685H11.1717V33.5323H10.4521V32.6685ZM12.1791 32.6685H12.8987V36.2658L14.9135 34.3946H15.9209L14.1939 35.978L16.0645 38.8565H15.0571L13.6184 36.5535L12.8987 37.1295V38.8565H12.1791V32.6685Z" fill="white"/>
<path fill-rule="evenodd" clip-rule="evenodd" d="M18.0793 34.2504C19.3744 34.2504 20.2382 35.2578 20.2382 36.5534C20.2382 37.849 19.3744 39.0001 18.0793 39.0001C16.6405 39.0001 15.7767 37.8486 15.7767 36.5534C15.7767 35.2583 16.6405 34.2504 18.0793 34.2504ZM18.0793 38.28C18.7989 38.28 19.3744 37.7045 19.3744 36.553C19.3744 35.5456 18.7989 34.9696 18.0793 34.9696C17.216 34.9696 16.6405 35.5451 16.6405 36.553C16.6405 37.7045 17.216 38.28 18.0793 38.28ZM23.6917 32.668H24.4114V38.856H23.6917V32.668ZM25.4192 34.3941H26.1384V35.1137C26.4261 34.5382 27.0021 34.2499 27.5776 34.2499C28.8728 34.2499 29.1606 34.9696 29.1606 35.8333V38.8555H28.4409V35.8333C28.4409 35.2578 28.1532 34.9696 27.5776 34.9696C26.5703 34.9696 26.1384 35.5451 26.1384 36.2647V38.8555H25.4192V34.3941ZM30.4557 37.4167C30.4557 38.1363 31.0312 38.2804 31.7509 38.2804C32.1827 38.2804 32.7582 38.1363 32.7582 37.7049C32.7582 37.1294 32.0386 36.9853 31.319 36.8412C30.5998 36.6971 29.8802 36.4093 29.8802 35.546C29.8802 34.6827 30.7435 34.2509 31.4631 34.2509C32.4705 34.2509 33.3342 34.5386 33.3342 35.6901H32.6146C32.6146 35.1146 32.0391 34.9705 31.6072 34.9705C31.1753 34.9705 30.5998 34.9705 30.5998 35.546C30.5998 35.9779 31.4631 36.1215 32.0386 36.2657C32.9024 36.4098 33.622 36.6975 33.622 37.5608C33.622 38.5682 32.6146 39.0001 31.6072 39.0001C30.5998 39.0001 29.7365 38.5682 29.7365 37.4167H30.4557ZM35.2049 34.3941H36.0686V34.9696H35.2049V37.8481C35.2049 38.1359 35.2049 38.1359 35.6368 38.1359H36.0686V38.8555H35.4931C34.7735 38.8555 34.3416 38.7114 34.3416 37.8481V34.9696H33.6225V34.3941H34.3416V32.9557H35.2054L35.2049 34.3941ZM36.7878 34.3941H37.5074V35.2578C37.9393 34.5382 38.3712 34.2504 39.2345 34.2504V34.97C37.9393 34.97 37.5074 35.6897 37.5074 36.8412V38.856H36.7878V34.3941ZM43.264 38.856H42.5444V38.1363C42.1125 38.7118 41.6806 39.0001 40.961 39.0001C39.81 39.0001 39.5218 38.2804 39.5218 37.273V34.3945H40.2414V37.4167C40.2414 37.9922 40.5291 38.2804 41.1051 38.2804C41.9689 38.2804 42.4003 37.7049 42.4003 36.8412V34.3945H43.264V38.856ZM43.9837 34.3941H44.7033V34.9696C45.1352 34.5377 45.567 34.2499 46.2867 34.2499C46.7176 34.2499 47.2931 34.5377 47.4372 34.9696C47.725 34.5377 48.301 34.2499 48.8765 34.2499C49.7402 34.2499 50.3158 34.6818 50.3158 35.5451V38.8555H49.5961V35.8333C49.5961 35.4014 49.452 34.9696 48.7324 34.9696C48.0127 34.9696 47.5809 35.4014 47.5809 36.1211V38.8555H46.8612V35.8333C46.8612 35.2578 46.7171 34.9696 45.9984 34.9696C45.1347 34.9696 44.8469 35.6892 44.8469 36.1211V38.8555H43.9832L43.9837 34.3941ZM55.0649 37.4167C54.7772 38.4241 54.0576 39.0001 53.0502 39.0001C51.6109 39.0001 51.0354 37.9927 50.8913 36.5534C50.8913 35.2583 51.8987 34.2504 53.0502 34.2504C54.6335 34.2504 55.2091 35.6897 55.0649 36.8412H51.7545C51.7545 37.5608 52.1864 38.2804 53.1938 38.2804C53.7693 38.2804 54.2012 37.9927 54.3453 37.4167H55.0649ZM54.3453 36.1211C54.3453 35.4014 53.7698 34.9696 53.0502 34.9696C52.1864 34.9696 51.755 35.5451 51.755 36.1211H54.3453ZM55.6405 34.3941H56.3601V35.1137C56.6479 34.5382 57.0797 34.2499 57.7984 34.2499C58.9499 34.2499 59.3818 34.9696 59.3818 35.8333V38.8555H58.5181V35.8333C58.5181 35.2578 58.2303 34.9696 57.6543 34.9696C56.7906 34.9696 56.3601 35.5451 56.3601 36.2647V38.8555H55.6405V34.3941ZM61.2529 34.3941H62.1167V34.9696H61.2529V37.8481C61.2529 38.1359 61.2529 38.1359 61.6848 38.1359H62.1167V38.8555H61.5412C60.8215 38.8555 60.3897 38.7114 60.3897 37.8481V34.9696H59.67V34.3941H60.3897V32.9557H61.2534L61.2529 34.3941ZM63.4118 37.4167C63.4118 38.1363 63.9873 38.2804 64.5633 38.2804C64.9952 38.2804 65.7148 38.1363 65.7148 37.7049C65.7148 37.1294 64.9952 36.9853 64.1315 36.8412C63.4118 36.6971 62.6922 36.4093 62.6922 35.546C62.6922 34.6827 63.5559 34.2509 64.4192 34.2509C65.4266 34.2509 66.1462 34.5386 66.2904 35.6901H65.5707C65.4266 35.1146 64.9952 34.9705 64.4192 34.9705C63.9873 34.9705 63.5555 34.9705 63.5555 35.546C63.5555 35.9779 64.2751 36.1215 64.9947 36.2657C65.7144 36.4098 66.434 36.6975 66.434 37.5608C66.434 38.5682 65.4266 39.0001 64.5629 39.0001C63.5555 39.0001 62.6917 38.5682 62.6917 37.4167H63.4118ZM69.8871 32.668H70.6067V38.856H69.8871V32.668ZM71.6141 34.3941H72.3338V35.1137C72.6215 34.5382 73.1975 34.2499 73.773 34.2499C75.0682 34.2499 75.3564 34.9696 75.3564 35.8333V38.8555H74.6368V35.8333C74.6368 35.2578 74.349 34.9696 73.773 34.9696C72.7656 34.9696 72.3338 35.5451 72.3338 36.2647V38.8555H71.6141V34.3941ZM79.2423 35.8333C79.0973 35.2578 78.8104 34.9696 78.0908 34.9696C77.0834 34.9696 76.7957 35.6892 76.7957 36.6966C76.7957 37.4162 77.0834 38.28 78.0908 38.28C78.8104 38.28 79.2423 37.8481 79.2423 37.2726H80.1051C79.961 38.28 79.2423 38.9996 78.0913 38.9996C76.652 38.9996 75.9324 37.9922 75.9324 36.6966C75.9324 35.2573 76.652 34.2499 78.0913 34.2499C79.0977 34.2499 79.9615 34.6818 80.1051 35.8333H79.2423ZM80.8243 37.8486H81.688V38.856H80.8243V37.8486Z" fill="white"/>
</svg>
