<svg width="144" height="31" viewBox="0 0 144 31" fill="none" xmlns="http://www.w3.org/2000/svg">
<path d="M39.5263 16.668V21.4568C39.3762 21.4695 39.2419 21.4917 39.1065 21.4917C36.1639 21.4938 33.2213 21.5065 30.2797 21.4896C27.1298 21.4716 24.4018 19.3992 23.6649 16.4777C23.5581 16.0537 23.4798 15.6107 23.4777 15.1761C23.4671 12.3403 23.3677 9.49912 23.5147 6.67069C23.6955 3.2036 26.3632 0.585582 29.8282 0.476674C33.3291 0.365651 36.8427 0.359307 40.3415 0.50628C43.6141 0.643737 46.1274 3.19832 46.5007 6.43807C46.894 9.85334 45.0034 13.0529 41.9572 14.0035C41.18 14.2456 40.3341 14.3556 39.5168 14.3672C36.6461 14.4106 33.7732 14.3862 30.9014 14.3852C30.765 14.3852 30.6286 14.3619 30.4605 14.3471V9.57314C30.6688 9.57314 30.857 9.57314 31.0452 9.57314C33.8462 9.57314 36.6482 9.57631 39.4491 9.57208C41.0182 9.56997 41.9233 8.51261 41.7013 6.95829C41.5596 5.96754 40.756 5.23479 39.6796 5.22739C36.5435 5.20624 33.4074 5.20413 30.2712 5.22951C29.1124 5.23902 28.2707 6.06693 28.2517 7.25223C28.2126 9.73597 28.2126 12.2208 28.2517 14.7045C28.2707 15.8919 29.1663 16.6596 30.4351 16.6649C33.2361 16.6765 36.0381 16.6691 38.839 16.6691C39.0484 16.6691 39.2577 16.6691 39.5284 16.6691L39.5263 16.668Z" fill="#7FFFA6"/>
<path d="M0.258685 21.4703V16.4425H0.893101C5.06967 16.4425 9.24624 16.4425 13.4218 16.4425C13.5983 16.4425 13.7739 16.4436 13.9504 16.4404C15.3017 16.4161 16.0133 15.7256 16.0144 14.441C16.0155 13.0949 15.3366 12.3632 13.9832 12.3495C11.6042 12.3252 9.22509 12.3484 6.84604 12.3368C6.17778 12.3336 5.4979 12.3484 4.8434 12.2353C1.96526 11.7405 0.0408688 9.45973 0.000689099 6.55939C-0.0405479 3.50891 1.77177 1.18695 4.69114 0.593771C5.25682 0.478518 5.84366 0.423536 6.42098 0.421421C10.2624 0.406618 14.1038 0.423536 17.9451 0.402389C18.4654 0.399216 18.5986 0.564165 18.5859 1.06218C18.5531 2.34793 18.5563 3.63474 18.5859 4.92049C18.5954 5.37304 18.4368 5.47877 18.0107 5.47772C14.2222 5.46397 10.4337 5.46926 6.64514 5.47031C6.43367 5.47031 6.22219 5.4682 6.01178 5.48512C5.2896 5.54221 5.05064 5.77589 5.05698 6.4029C5.06438 7.04684 5.29066 7.27205 6.03081 7.27523C8.62134 7.28791 11.2119 7.28263 13.8013 7.28791C15.0459 7.29003 16.265 7.43489 17.3795 8.04393C19.8833 9.41109 21.0178 11.6125 21.0612 14.3786C21.1373 19.2435 17.4207 21.4534 14.0403 21.483C9.60046 21.5221 5.15955 21.4925 0.718636 21.4914C0.580122 21.4914 0.442665 21.4798 0.259742 21.4713L0.258685 21.4703Z" fill="#7FFFA6"/>
<path d="M94.0712 5.46935C93.7794 5.46935 93.5553 5.46935 93.3311 5.46935C89.5954 5.46935 85.8598 5.46935 82.1241 5.46935C81.8958 5.46935 81.6652 5.46935 81.4379 5.49155C80.7675 5.55499 80.5402 5.79818 80.5518 6.4178C80.5635 7.04164 80.7876 7.26791 81.4897 7.27214C84.0623 7.28589 86.6348 7.28378 89.2074 7.28483C90.5439 7.28483 91.8466 7.43815 93.0298 8.12438C95.4754 9.54441 96.5508 11.7554 96.5571 14.4992C96.5677 19.252 92.9251 21.4439 89.5722 21.4788C85.0964 21.5264 80.6206 21.4905 76.1448 21.4894C76.0253 21.4894 75.9069 21.4767 75.762 21.4693V16.4426H76.4049C80.5635 16.4426 84.7221 16.4426 88.8807 16.4426C89.0573 16.4426 89.2328 16.4437 89.4094 16.4426C91.209 16.4162 92.1268 14.7783 91.2217 13.2071C90.9584 12.7493 90.5534 12.4849 90.0406 12.4046C89.7466 12.358 89.4442 12.3464 89.1461 12.3454C86.749 12.3411 84.3531 12.3422 81.956 12.3432C80.8204 12.3432 79.706 12.2502 78.6697 11.7173C76.3816 10.5394 75.1847 8.16456 75.5389 5.48732C75.8677 3.00147 77.6674 1.09505 80.2029 0.592803C80.7866 0.47755 81.3903 0.423625 81.9856 0.42151C85.7921 0.406707 89.5986 0.424682 93.4041 0.40142C93.9359 0.398248 94.1009 0.535705 94.0839 1.07813C94.0427 2.32793 94.0712 3.57984 94.0712 4.8307V5.46935Z" fill="#7FFFA6"/>
<path d="M72.4711 21.4642H67.4793C67.4708 21.2675 67.4539 21.0656 67.4539 20.8636C67.4518 17.2866 67.4687 13.7095 67.4391 10.1325C67.4338 9.4568 67.3535 8.74309 67.1209 8.11607C66.5668 6.62308 65.4185 5.62388 63.8483 5.56466C60.6657 5.44412 57.4756 5.52871 54.2073 5.52871V21.461H49.1764C49.1648 21.2686 49.1426 21.0835 49.1426 20.8974C49.1405 14.9762 49.1383 9.05607 49.1426 3.13485C49.1436 1.50546 50.0794 0.442812 51.6728 0.431181C55.6718 0.400518 59.677 0.3117 63.6707 0.477705C68.8348 0.691292 72.3368 4.29795 72.4785 9.45152C72.5864 13.3606 72.5049 17.2749 72.506 21.1861C72.506 21.2707 72.4859 21.3542 72.4711 21.4631V21.4642Z" fill="#7FFFA6"/>
<path d="M127.45 30.6152V25.6351C127.653 25.6245 127.855 25.6055 128.057 25.6055C130.735 25.6033 133.413 25.6055 136.092 25.6033C136.32 25.6033 136.55 25.6023 136.778 25.5801C137.942 25.4691 138.475 24.9287 138.57 23.7635C138.591 23.5003 138.592 23.2359 138.592 22.9716C138.593 15.6938 138.592 8.41701 138.593 1.13921C138.593 0.657049 138.831 0.415618 139.306 0.414914C140.575 0.414914 141.844 0.428659 143.112 0.407512C143.528 0.400111 143.657 0.535453 143.656 0.950995C143.645 8.49314 143.682 16.0353 143.635 23.5764C143.608 27.7699 140.882 30.501 136.611 30.6364C133.653 30.7294 130.691 30.6586 127.73 30.6586C127.645 30.6586 127.561 30.6332 127.449 30.6152H127.45Z" fill="#7FFFA6"/>
<path d="M117.765 0.461448V5.4691C117.508 5.4691 117.284 5.4691 117.061 5.4691C113.714 5.4691 110.368 5.4691 107.022 5.4691C106.845 5.4691 106.67 5.46699 106.493 5.47122C104.92 5.50823 104.296 6.13207 104.294 7.71705C104.287 12.067 104.292 16.417 104.292 20.767C104.292 20.9901 104.292 21.2142 104.292 21.4659H99.262C99.2535 21.2692 99.2355 21.0673 99.2355 20.8653C99.2345 16.4974 99.2313 12.1305 99.2355 7.76252C99.2387 3.41254 101.96 0.538635 106.327 0.436071C110.024 0.349368 113.723 0.415981 117.422 0.417039C117.525 0.417039 117.627 0.443473 117.767 0.462505L117.765 0.461448Z" fill="#7FFFA6"/>
<path d="M136.508 16.4431V21.4529C136.365 21.4677 136.231 21.4931 136.096 21.4931C133.137 21.4941 130.175 21.5533 127.218 21.473C124.515 21.4 122.376 20.238 121.038 17.7997C120.445 16.718 120.282 15.5348 120.279 14.3284C120.269 9.87056 120.279 5.41379 120.268 0.955958C120.267 0.550989 120.372 0.397672 120.798 0.405073C122.119 0.428335 123.442 0.434679 124.762 0.401901C125.25 0.39027 125.343 0.567906 125.342 1.01306C125.327 5.25941 125.333 9.50471 125.333 13.7511C125.333 13.9276 125.33 14.1032 125.334 14.2797C125.37 15.778 126.027 16.4378 127.519 16.441C130.303 16.4473 133.086 16.4431 135.87 16.4431C136.061 16.4431 136.253 16.4431 136.509 16.4431H136.508Z" fill="#7FFFA6"/>
</svg>
