<svg width="81" height="9" viewBox="0 0 81 9" fill="none" xmlns="http://www.w3.org/2000/svg">
<path d="M3.8408 1.95068C2.7322 1.95068 2.2172 2.23628 2.2172 2.91178C2.2172 3.44108 2.6678 3.71268 3.5476 3.71268H6.3513C8.5971 3.71268 9.5627 4.25588 9.5627 5.79488C9.5627 7.34098 8.4254 7.99558 6.0437 7.99558H0.4077V6.68628H5.7075C6.8305 6.68628 7.3526 6.49128 7.3526 5.85758C7.3526 5.20298 6.8734 5.00798 5.8506 5.00798H3.3544C1.0514 5.00798 0 4.37428 0 2.89788C0 1.30308 1.1372 0.641481 3.5332 0.641481H9.0763V1.95068H3.8408ZM12.9171 3.62908H18.782V4.91048H12.9028C12.9171 6.23368 13.6323 6.71418 15.2988 6.71418H18.7748V7.99558H15.1987C13.9756 7.99558 13.0387 7.92588 12.0588 7.34788C11.0217 6.74208 10.5139 5.78098 10.5139 4.45088C10.5139 1.84628 12.0159 0.641481 15.2559 0.641481H18.7748V1.92288H15.2988C13.7682 1.91588 13.0029 2.47308 12.9171 3.62908ZM23.3094 0.634481L27.4363 5.92028L27.3362 0.634481H29.4962V7.98858H27.0429L22.7086 2.42428L22.8088 7.98858H20.6345V0.634481H23.3094ZM34.8246 1.95068C33.716 1.95068 33.2011 2.23628 33.2011 2.91178C33.2011 3.44108 33.6517 3.71268 34.5314 3.71268H37.3351C39.5809 3.71268 40.5465 4.25588 40.5465 5.79488C40.5465 7.34098 39.4092 7.99558 37.0275 7.99558H31.3915V6.68628H36.6914C37.8143 6.68628 38.3293 6.49128 38.3293 5.85758C38.3293 5.20298 37.8501 5.00798 36.8273 5.00798H34.3311C32.0281 5.00798 30.9767 4.37428 30.9767 2.89788C30.9767 1.30308 32.1139 0.641481 34.51 0.641481H40.053V1.95068H34.8246ZM42.1486 7.99558V0.634481H44.3658V7.98858H42.1486V7.99558ZM51.1677 1.95068C52.4337 1.95068 53.0488 2.11788 53.0488 2.87698C53.0488 3.62208 52.4337 3.81018 51.1677 3.81018H48.5714V1.95068H51.1677ZM46.4543 0.634481V7.98858H48.5714V5.09848H51.0676L53.2847 7.98858H55.6665L53.156 4.91748C54.4578 4.71548 55.1873 3.98428 55.1873 2.84908C55.1873 1.30308 54.0501 0.634481 51.6684 0.634481H46.4543ZM56.9825 7.99558V0.634481H59.1997V7.98858H56.9825V7.99558ZM65.6655 1.75578C67.5323 1.75578 68.3831 2.58448 68.3831 4.31848C68.3831 6.05258 67.5253 6.88138 65.6655 6.88138C63.7701 6.88138 62.9547 6.05258 62.9547 4.26278C62.9619 2.58448 63.8414 1.75578 65.6655 1.75578ZM60.6445 4.24188C60.6445 6.91618 62.2037 8.14178 65.6655 8.14178C69.0911 8.14178 70.6862 6.90918 70.6862 4.31158C70.6862 1.71398 69.0841 0.488281 65.6655 0.488281C62.2895 0.495281 60.6445 1.71398 60.6445 4.24188ZM74.8134 0.634481L78.94 5.92028L78.84 0.634481H81V7.98858H78.547L74.2126 2.42428L74.3127 7.98858H72.1385V0.634481H74.8134Z" fill="white"/>
</svg>
