<svg width="125" height="50" viewBox="0 0 125 50" fill="none" xmlns="http://www.w3.org/2000/svg">
<path d="M44.2827 23.2198H34.4156V17.4803H29.3164V32.4914H34.4156V26.4603H44.2827V32.4914H49.3813V17.4803H44.2827V23.2198Z" fill="#E6000D"/>
<path d="M57.8964 26.4598L61.4471 20.6308L64.8891 26.4598H57.8964ZM59.4692 17.4799L50.3243 32.4909H54.2225L56.0928 29.4196H66.6357L68.4503 32.4909H74.675L65.5324 17.4799H59.4692Z" fill="#E6000D"/>
<path d="M94.9008 23.9856C96.1152 22.3947 95.9508 20.0642 93.6185 18.7296C91.4454 17.4821 87.2974 17.0231 84.7054 17.0231C80.5591 17.0231 77.8898 17.3049 75.6191 17.693V32.4914H80.7166V19.9387C82.5527 19.575 84.4172 19.5668 85.1139 19.5994C87.1376 19.6889 88.277 20.0038 89.1869 20.6493C90.1276 21.3204 90.3833 22.8038 89.1631 23.8334C88.2485 24.6009 86.3945 25.2041 82.2476 24.5713L81.6619 25.5329L89.5024 32.4914H96.4441L89.4699 26.4603C91.1456 26.2429 93.6865 25.573 94.9008 23.9856Z" fill="#E6000D"/>
<path d="M18.1419 22.6672C15.1978 22.0949 12.6959 21.7393 12.6959 20.7841C12.6959 19.7266 14.719 19.4541 17.5859 19.758C20.297 20.045 22.8535 20.7544 25.2381 21.7689L27.0492 18.7981C25.1219 18.0642 21.1499 17.1241 17.5434 17.0172C13.5924 16.9028 6.92152 17.2572 6.63333 21.2524C6.37012 24.9094 11.5814 25.7833 14.9985 26.5782C18.3313 27.3538 21.4556 27.6345 21.4556 28.7884C21.4556 29.5996 20.3545 30.2329 17.4418 30.0144C13.9358 29.7524 10.9527 28.7942 7.97727 27.3155L6 30.5623C9.30028 31.8522 13.6284 32.8882 17.5278 32.9527C22.1638 33.03 27.3984 32.2822 27.5169 28.3114C27.614 24.9977 24.1812 23.8403 18.1419 22.6672Z" fill="#E6000D"/>
<path d="M111.376 23.8624C110.495 24.5841 109.208 24.8397 107.176 24.8339C105.678 24.8287 104.128 24.5533 102.865 24.2668V19.9387C104.7 19.575 106.598 19.5698 107.294 19.5988C109.329 19.6848 110.516 20.0294 111.398 20.6493C112.316 21.2937 112.622 22.8404 111.376 23.8624ZM115.832 18.7296C113.756 17.5007 109.869 17.0231 106.886 17.0231C102.738 17.0231 100.037 17.3049 97.7665 17.6924V32.4914H102.865V27.0698C104.441 27.333 106.416 27.4858 108.125 27.473C112.297 27.4376 115.397 26.4574 116.809 24.9211C118.82 22.7352 118.145 20.0956 115.832 18.7296Z" fill="#E6000D"/>
</svg>
