<svg width="171" height="41" viewBox="0 0 171 41" fill="none" xmlns="http://www.w3.org/2000/svg">
<path fill-rule="evenodd" clip-rule="evenodd" d="M162.288 8.39003V13.117C159.839 12.1925 157.659 11.7251 155.75 11.7251C154.62 11.7251 153.72 11.9344 153.043 12.339C152.366 12.7472 152.021 13.2496 152.021 13.8426C152.021 14.631 152.785 15.3322 154.324 15.9602L158.768 18.123C162.361 19.8359 164.144 22.1104 164.144 24.9675C164.144 27.3432 163.198 29.2375 161.29 30.6399C159.396 32.0563 156.846 32.7574 153.671 32.7574C152.206 32.7574 150.891 32.6946 149.722 32.5621C148.554 32.4365 147.21 32.1783 145.721 31.8085V26.8618C148.452 27.7863 150.94 28.2537 153.179 28.2537C155.852 28.2537 157.181 27.4793 157.181 25.9164C157.181 25.1385 156.636 24.5106 155.531 24.0186L150.594 21.915C148.773 21.0918 147.42 20.094 146.534 18.9114C145.662 17.7184 145.218 16.3509 145.218 14.788C145.218 12.6006 146.139 10.8389 147.96 9.49933C149.795 8.17018 152.23 7.50391 155.258 7.50391C156.242 7.50391 157.376 7.59108 158.632 7.75157C159.898 7.92252 161.116 8.13182 162.288 8.39003Z" fill="#009999"/>
<path fill-rule="evenodd" clip-rule="evenodd" d="M22.4813 8.39003V13.117C20.0323 12.1925 17.8555 11.7251 15.9473 11.7251C14.8135 11.7251 13.917 11.9344 13.2402 12.339C12.5634 12.7472 12.218 13.2496 12.218 13.8426C12.218 14.631 12.9925 15.3322 14.5309 15.9602L18.9753 18.123C22.5545 19.8359 24.3407 22.1104 24.3407 24.9675C24.3407 27.3432 23.3918 29.2375 21.4976 30.6399C19.5893 32.0563 17.0532 32.7574 13.8682 32.7574C12.4029 32.7574 11.0842 32.6946 9.91559 32.5621C8.74693 32.4365 7.41778 32.1783 5.91777 31.8085V26.8618C8.65975 27.7863 11.1471 28.2537 13.3727 28.2537C16.045 28.2537 17.3741 27.4793 17.3741 25.9164C17.3741 25.1385 16.8334 24.5106 15.738 24.0186L10.8017 21.915C8.9667 21.0918 7.61314 20.094 6.74105 18.9114C5.85492 17.7184 5.42236 16.3509 5.42236 14.788C5.42236 12.6006 6.33638 10.8389 8.16783 9.49933C9.9889 8.17018 12.4273 7.50391 15.4554 7.50391C16.4496 7.50391 17.5695 7.59108 18.8393 7.75157C20.0952 7.92252 21.3127 8.13182 22.4813 8.39003Z" fill="#009999"/>
<path fill-rule="evenodd" clip-rule="evenodd" d="M27.5746 7.94727H34.8134V32.3147H27.5746V7.94727Z" fill="#009999"/>
<path fill-rule="evenodd" clip-rule="evenodd" d="M58.1342 7.94727V12.451H47.3789V17.8547H56.7074V21.9154H47.3789V27.5878H58.3539V32.3147H40.4124V7.94727H58.1342Z" fill="#009999"/>
<path fill-rule="evenodd" clip-rule="evenodd" d="M91.9276 7.94727V32.3147H85.1699V16.243L78.1584 32.538H73.9861L67.2428 16.243V32.3147H62.3553V7.94727H71.1918L77.2234 22.8643L83.5342 7.94727H91.9276Z" fill="#009999"/>
<path fill-rule="evenodd" clip-rule="evenodd" d="M115.238 7.94727V12.451H104.542V17.8547H113.87V21.9154H104.542V27.5878H115.458V32.3147H97.5166V7.94727H115.238Z" fill="#009999"/>
<path fill-rule="evenodd" clip-rule="evenodd" d="M140.638 7.94727V32.3147H132.96L124.344 16.686V32.3147H119.459V7.94727H127.361L135.754 23.3074V7.94727H140.638Z" fill="#009999"/>
</svg>
