<svg width="90" height="31" viewBox="0 0 90 31" fill="none" xmlns="http://www.w3.org/2000/svg">
<path d="M7.89948 24.586C3.56768 21.4538 0.0130778 18.8805 0.000377769 18.8674C-0.0177222 18.8489 0.610076 16.9055 2.85968 10.0159C4.44508 5.16061 5.80328 0.999409 5.87808 0.768809L6.01398 0.349609L15.7902 0.354409L25.5664 0.359309L28.581 9.59181C30.2391 14.6697 31.5953 18.8331 31.5948 18.8437C31.5939 18.8619 15.8322 30.2656 15.7936 30.276C15.7836 30.2787 12.2313 27.7182 7.89948 24.586ZM22.1692 22.7661C25.6606 20.2377 28.5176 18.1576 28.518 18.1436C28.5188 18.1178 26.2134 11.0746 26.1778 10.9941L26.1587 10.9507H18.311C13.9948 10.9507 10.4635 10.9485 10.4638 10.9459C10.4641 10.9432 10.6629 10.3252 10.9056 9.57261L11.3468 8.20411L18.2975 8.19921C23.8387 8.19541 25.2482 8.18951 25.248 8.17031C25.2478 8.15711 24.8919 7.06201 24.4571 5.73691L23.6666 3.32761L15.7914 3.32271L7.91618 3.31791L7.88618 3.40951C7.48838 4.62361 3.81738 15.8054 3.81108 15.8223C3.80388 15.8416 5.78118 15.8474 13.6284 15.8513L23.4546 15.8561L19.6634 18.6015C17.5783 20.1114 15.8454 21.3668 15.8126 21.3912L15.7531 21.4356L13.8 20.0194L11.847 18.6032L7.76468 18.603C5.27668 18.6029 3.68948 18.6097 3.70068 18.6205C3.77478 18.692 15.7783 27.373 15.7971 27.3686C15.8103 27.3656 18.6778 25.2944 22.1692 22.7661ZM41.9878 21.3574C40.498 21.2634 39.0107 20.7543 37.75 19.9066C37.4877 19.7301 37.1082 19.4377 36.9273 19.2726L36.8305 19.1843L37.333 18.1813L37.8355 17.1783L37.9136 17.2451C38.6189 17.8489 39.3424 18.3124 40.072 18.6279C40.9214 18.9953 41.7506 19.181 42.542 19.181C44.1695 19.181 45.1262 18.5556 45.122 17.4945C45.1199 16.9396 44.8577 16.4954 44.3218 16.1387C43.8592 15.8308 43.4087 15.6571 42.0072 15.2468C40.8427 14.9058 40.3127 14.7194 39.7914 14.4677C38.912 14.043 38.3276 13.5171 37.9928 12.8493C37.5908 12.0475 37.5273 10.9768 37.8282 10.0765C38.2614 8.78041 39.4427 7.87971 41.1557 7.53921C41.6946 7.43201 41.9127 7.41391 42.6651 7.41391C43.4085 7.41381 43.5873 7.42681 44.1649 7.52291C45.037 7.66791 45.8901 7.94161 46.6807 8.33001C47.0364 8.50471 47.5349 8.79511 47.5288 8.82411C47.5232 8.85121 46.5887 10.8243 46.5731 10.8419C46.5651 10.851 46.4511 10.7973 46.3197 10.7225C45.3266 10.1579 44.2215 9.77201 43.1841 9.62781C42.8514 9.58151 42.1539 9.58061 41.862 9.62621C41.4164 9.69571 41.1006 9.80661 40.8242 9.99071C40.4333 10.2511 40.2572 10.5812 40.2603 11.0471C40.2649 11.7146 40.6275 12.1915 41.4374 12.5953C41.8381 12.7952 42.2683 12.9492 43.3038 13.2637C44.6141 13.6617 45.2241 13.8915 45.7711 14.1929C46.9662 14.8515 47.575 15.7248 47.6954 16.9533C47.8791 18.8274 46.8452 20.3293 44.9138 20.9942C44.0473 21.2925 43.0069 21.4216 41.9878 21.3574ZM84.654 21.3593C83.673 21.2646 82.78 20.9352 82.069 20.4055C80.7309 19.4093 79.9993 17.7983 80.0596 15.9814C80.1062 14.5769 80.5909 13.3612 81.4695 12.4447C81.8634 12.0337 82.286 11.7267 82.811 11.4703C83.192 11.2842 83.422 11.199 83.798 11.1051C85.025 10.7986 86.34 10.9179 87.397 11.4315C88.9 12.161 89.81 13.6527 89.98 15.6634C90.008 15.9896 90.006 16.3919 89.977 16.4208C89.959 16.4387 88.933 16.444 85.475 16.444H80.9966L81.0095 16.603C81.0661 17.2988 81.2882 18.0147 81.6193 18.5682C82.262 19.6435 83.283 20.2922 84.601 20.464C84.906 20.5037 85.686 20.4929 85.981 20.445C86.991 20.2809 87.792 19.9031 88.425 19.2923C88.568 19.1546 88.633 19.1039 88.669 19.1039C88.741 19.1039 89.188 19.6006 89.188 19.6802C89.188 19.7246 89.151 19.77 88.998 19.9159C88.181 20.6962 87.163 21.1666 85.936 21.3308C85.676 21.3656 84.899 21.3829 84.654 21.3593ZM89.101 15.4562C89.094 15.3793 89.071 15.221 89.051 15.1044C88.696 13.0792 87.196 11.8181 85.143 11.8181C83.418 11.8181 81.994 12.7288 81.3588 14.2376C81.2059 14.6009 81.0774 15.0902 81.0311 15.4851L81.0182 15.5959H85.067H89.115L89.101 15.4562ZM56.592 21.3238C56.5623 21.2911 56.5599 20.7826 56.5599 14.3975C56.5599 7.74611 56.5612 7.50541 56.5953 7.47461C56.628 7.44511 56.947 7.44271 60.7917 7.44271C64.7983 7.44271 64.9539 7.44401 64.9847 7.47801C65.0124 7.50841 65.0168 7.56841 65.0168 7.91831C65.0168 8.28621 65.0135 8.32631 64.9814 8.35531C64.9487 8.38471 64.6611 8.38721 61.2368 8.38721H57.5275V11.2976V14.2081H60.8144C63.9741 14.2081 64.1025 14.2095 64.1333 14.2434C64.161 14.2739 64.1653 14.3345 64.1653 14.6933C64.1653 15.0706 64.1621 15.1109 64.1299 15.14C64.0973 15.1694 63.8392 15.1719 60.811 15.1719H57.5275V18.2335C57.5275 21.1752 57.5261 21.2965 57.4921 21.3271C57.4615 21.3547 57.4007 21.359 57.0404 21.359C56.6616 21.359 56.6211 21.3558 56.592 21.3238ZM67.1969 21.3238C67.1673 21.2912 67.1649 20.9045 67.1649 16.1515C67.1649 11.1993 67.1661 11.0134 67.2002 10.9826C67.2308 10.955 67.2911 10.9507 67.6423 10.9507C68.0118 10.9507 68.052 10.9539 68.0811 10.9859C68.1107 11.0186 68.1131 11.4052 68.1131 16.1582C68.1131 21.1104 68.1118 21.2964 68.0777 21.3271C68.0471 21.3547 67.9869 21.359 67.6356 21.359C67.2662 21.359 67.226 21.3558 67.1969 21.3238ZM74.4182 21.3333C74.404 21.3192 73.4534 18.9985 72.3059 16.1762C70.2799 11.1937 70.2204 11.0435 70.2504 10.9978L70.2814 10.9507H70.7239C71.1179 10.9507 71.1706 10.9544 71.2046 10.9844C71.2274 11.0046 71.9666 12.8461 73.0479 15.5766C74.0408 18.0838 74.8629 20.1543 74.8748 20.1778C74.8936 20.215 75.1354 19.6147 76.713 15.6153C77.7121 13.0824 78.5443 10.9966 78.5624 10.9803C78.5899 10.9555 78.666 10.9507 79.0299 10.9507H79.4644L79.4942 11.0037C79.5235 11.0556 79.4809 11.1633 77.4498 16.1785C76.309 18.9955 75.3646 21.3135 75.3511 21.3297C75.3172 21.3704 74.4588 21.3737 74.4182 21.3333ZM50.3092 16.0489V10.7962L51.4365 10.8012L52.5637 10.8061V16.0489V21.2916L51.4365 21.2965L50.3092 21.3015V16.0489ZM51.2502 9.15631C50.9598 9.11761 50.708 8.99451 50.5036 8.79151C50.2526 8.54221 50.1365 8.26151 50.1209 7.86681C50.1129 7.66441 50.1181 7.59801 50.153 7.45241C50.3036 6.82421 50.7968 6.43471 51.4413 6.43481C51.6761 6.43491 51.8302 6.47101 52.0467 6.57671C52.6954 6.89341 52.9527 7.75521 52.6095 8.46221C52.498 8.69171 52.2806 8.90901 52.0509 9.02041C51.7882 9.14781 51.5234 9.19271 51.2502 9.15631ZM67.5422 8.84861C67.0597 8.78321 66.7677 8.24451 66.9526 7.76071C67.0139 7.60041 67.2057 7.40891 67.368 7.34601C67.5286 7.28381 67.7671 7.28301 67.9244 7.34431C68.0527 7.39431 68.2227 7.53981 68.2933 7.66011C68.6237 8.22271 68.1741 8.93421 67.5422 8.84861Z" fill="white"/>
</svg>
