<svg width="125" height="50" viewBox="0 0 125 50" fill="none" xmlns="http://www.w3.org/2000/svg">
<path d="M13.6887 13.6266V14.5692H24.3725C24.558 14.5692 25.6404 15.2219 25.887 15.4057C29.5547 18.1721 28.5239 24.4779 23.9122 25.4181L9.84718 25.378C9.70159 25.3356 9.40574 25.0741 9.33999 24.9445C9.15449 24.5722 9.14275 21.8364 9.22258 21.2826C9.25781 21.0328 9.67342 20.4626 9.8143 20.4626H22.7288L23.081 20.1091L22.7288 19.52H12.1624C12.0755 19.52 10.8263 18.8178 10.6432 18.6882C6.9825 16.0891 8.0908 9.53351 12.6226 8.6687L26.69 8.71112C26.8356 8.75353 27.1315 9.01509 27.1972 9.1447C27.3827 9.51701 27.3945 12.2528 27.3146 12.8066C27.2794 13.0563 26.8638 13.6266 26.7229 13.6266H13.6887Z" fill="#2D81B7"/>
<path d="M84.3662 24.8195L83.9012 25.2955C83.5091 25.4958 80.304 25.5005 79.8977 25.2955C79.7686 25.2295 79.5056 24.9326 79.4657 24.7865V9.30017C79.508 9.15642 79.7709 8.85716 79.8977 8.79118C80.3016 8.58853 83.7345 8.58617 84.1337 8.79118L91.3658 16.8525L91.8777 17.1612C91.7556 14.3075 92.0186 11.5034 92.1125 8.67807H96.4565L96.9308 9.14464L97.0458 24.5886C97.0271 24.8478 96.7899 25.1895 96.5762 25.2955C96.1771 25.4958 92.7418 25.5029 92.3403 25.2955C91.0934 23.9618 89.8043 22.6422 88.5857 21.2873C87.4304 20.003 86.3902 18.3841 85.0682 17.2766C84.8311 17.0787 84.7677 16.8266 84.3638 16.9232V24.8172L84.3662 24.8195Z" fill="#868789"/>
<path d="M48.6751 17.3968V8.6781H53.0191L53.4934 9.14467L53.6084 24.5886C53.5897 24.8478 53.3525 25.1895 53.1388 25.2955C52.7397 25.4958 49.3044 25.5029 48.9029 25.2955L40.9241 16.6899V24.8196L40.4591 25.2955C40.067 25.4958 36.8619 25.5006 36.4556 25.2955C36.3265 25.2296 36.0635 24.9327 36.0236 24.7866V9.3002C36.195 8.98208 36.4369 8.72759 36.8102 8.67575C37.3855 8.59327 40.3276 8.60505 40.6939 8.79357C41.4571 9.37324 41.969 10.264 42.563 10.9238C44.3898 12.9479 46.2707 14.892 48.0036 17.0104C48.2125 17.2649 48.2384 17.4982 48.6704 17.4016L48.6751 17.3968Z" fill="#2D81B7"/>
<path d="M110.688 8.70399L115.929 8.66864L116.514 9.7738L110.928 16.8454C110.839 17.4251 113.642 20.373 114.189 21.0469C114.668 21.636 115.117 22.3453 115.591 22.9391C115.974 23.4174 116.603 23.6248 116.544 24.3435C116.509 24.7865 116.188 25.3521 115.718 25.4157C114.323 25.6089 112.496 25.2884 111.048 25.378L107.849 21.5182L107.26 21.1694L103.705 25.378C102.761 25.2649 99.2319 25.682 98.6754 25.3026C98.4172 25.1259 98.0602 24.2987 98.3326 23.9971L103.867 17.0433L103.743 16.4472L98.5651 10.3346C98.2575 9.77144 98.6214 8.7629 99.2695 8.67335C100.664 8.48013 102.491 8.8006 103.94 8.71106C104.318 8.82181 106.189 11.5505 106.668 12.0996C106.835 12.2905 107.215 12.7594 107.476 12.6793L110.688 8.70399Z" fill="#87888A"/>
<path d="M70.8646 20.4602C70.9468 20.4838 71.6136 21.1742 71.6559 21.3156C71.7804 21.7374 71.7498 24.3577 71.5761 24.7064C71.508 24.8408 70.9844 25.3333 70.8341 25.3757H55.6349C55.2404 25.1636 54.9563 24.8361 55.0056 24.3577L55.0479 9.29784C55.0901 9.15175 55.3508 8.85484 55.4799 8.78886C55.8509 8.6027 58.577 8.59092 59.1288 8.67104C59.3777 8.70638 59.946 9.12347 59.946 9.26485V20.1044L60.2982 20.4578H70.8646V20.4602Z" fill="#868789"/>
<path d="M30.2731 8.71108C30.7169 8.58148 33.7741 8.61682 34.1216 8.7912C34.2508 8.85482 34.5138 9.15409 34.5537 9.30018L34.4739 24.9444C34.3236 25.0929 34.171 25.3191 33.9667 25.378C33.5229 25.5076 30.4657 25.4723 30.1181 25.2979C29.989 25.2343 29.726 24.935 29.6861 24.7889L29.7659 9.14466C29.9162 8.99621 30.0688 8.76999 30.2731 8.71108Z" fill="#2D81B7"/>
<path d="M73.713 8.71108C74.1568 8.58148 77.214 8.61682 77.5615 8.7912C77.6907 8.85482 77.9536 9.15409 77.9936 9.30018L77.9137 24.9444C77.7634 25.0929 77.6108 25.3191 77.4065 25.378C76.9627 25.5076 73.9055 25.4723 73.558 25.2979C73.4289 25.2343 73.1659 24.935 73.126 24.7889L73.2058 9.14466C73.3561 8.99621 73.5087 8.76999 73.713 8.71108Z" fill="#868789"/>
<path d="M115.596 27.2938V31.771H108.552V27.2938H115.596ZM111.604 28.0031H109.726V28.9457H111.604V28.0031ZM114.422 28.0031H112.543V28.9457H114.422V28.0031ZM111.604 29.8882H109.726V30.8308H111.604V29.8882ZM114.422 29.8882H112.543V30.8308H114.422V29.8882Z" fill="#3E85B6"/>
<path d="M105.029 27.0582V30.8284H97.9852V30.1215H103.855V29.4146H98.4548V28.472H103.855V27.7651H97.9852V26.8225C98.3468 26.6552 98.7459 27.0582 98.807 27.0582H105.029Z" fill="#3681B3"/>
<path d="M90.2364 26.8225V28.0007H92.1149V26.8225H93.2889V28.0007H95.8718V28.9433H93.2889V30.2322C93.2889 30.4443 92.8498 30.3901 92.6948 30.3618C91.9106 30.2205 92.1172 29.5819 92.1149 28.9409H90.2364V30.3571H89.0623V28.9433H86.7142V28.0007H89.06L89.2854 26.9285L90.2364 26.8225Z" fill="#3681B3"/>
<path d="M103.151 33.4205C103.186 33.4606 103.022 33.7221 103.297 33.9012C103.644 34.1274 104.527 34.4243 104.961 34.5469C105.802 34.7849 106.525 34.3701 105.955 35.7628C104.356 35.9065 102.674 35.07 101.622 33.8918C100.772 34.8532 99.3259 35.7557 98.0556 35.9772C97.4897 36.0762 97.2432 35.6709 97.0459 35.1855C96.8487 34.7 97.3981 34.8768 97.6377 34.8414C98.4407 34.7283 99.8613 34.2217 100.34 33.5477C100.819 32.8738 100.744 31.87 101.049 31.0782L102.209 31.0641C102.205 31.7333 102.08 32.8667 102.684 33.3074C102.853 33.4299 103.132 33.4017 103.149 33.4205H103.151Z" fill="#3681B3"/>
<path d="M90.2365 31.0641V34.4809C90.2365 34.9545 92.5846 35.0017 92.9485 34.6105C93.3219 34.0402 92.601 32.9068 94.2235 34.2617L93.4064 35.5436H89.6494L89.2972 35.1902V31.0664H90.2365V31.0641Z" fill="#2D81B7"/>
<path d="M115.126 34.1274C115.117 36.3377 111.36 35.9159 109.974 35.5271L109.726 32.4779H110.9L110.921 34.4573L111.273 34.8108H113.342L114.07 33.6538C114.387 33.8258 114.835 33.979 115.124 34.1251C115.124 33.6349 113.757 32.518 114.772 32.2399C115.525 32.0326 116.115 33.338 116.504 33.7999L116.542 34.0002C116.211 35.1312 115.718 34.4267 115.124 34.1227L115.126 34.1274Z" fill="#3681B3"/>
<path d="M88.8275 31.302L88.116 34.5916L86.949 34.5986L87.6652 31.3138L88.8275 31.302Z" fill="#3681B3"/>
<path d="M94.6978 34.1274L93.3124 31.6508C94.5851 29.9754 95.0195 32.518 95.8625 33.3168C96.0057 33.7645 94.8035 34.2523 94.6978 34.1274Z" fill="#3681B3"/>
<path d="M107.377 34.8343L108.307 32.3813C108.448 32.0491 109.669 32.1174 109.387 32.961C109.277 33.2956 108.392 35.0111 108.176 35.0582L107.38 34.8343H107.377Z" fill="#3E85B6"/>
<path d="M91.6452 32.7159C91.6006 31.8182 90.5722 31.3162 90.706 30.3595C91.8683 30.1239 92.1877 31.1843 92.8099 31.9053C92.9555 32.3507 91.7509 32.8408 91.6452 32.7159Z" fill="#3681B3"/>
<path d="M103.151 33.4205L103.855 31.2997L104.921 31.7686L104.097 33.5524L103.151 33.4205Z" fill="#3E85B6"/>
<path d="M99.6264 31.5378L99.1451 33.4088L97.9851 33.4229C97.8325 33.2697 98.5486 31.3823 98.8234 31.3092L99.6264 31.5401V31.5378Z" fill="#3681B3"/>
<path d="M113.248 33.656L112.456 33.8728L111.369 32.2422L112.555 32.1102C112.82 32.631 113.365 33.0104 113.248 33.6537V33.656Z" fill="#3681B3"/>
</svg>
