<svg width="125" height="50" viewBox="0 0 125 50" fill="none" xmlns="http://www.w3.org/2000/svg">
<g clip-path="url(#clip0_53_375)">
<path d="M100.071 23.4944C100.064 28.8016 96.0365 32.7499 90.6519 32.7263C85.6259 32.7069 81.5681 28.5397 81.5767 23.4106C81.5853 18.142 85.6967 14.0113 90.931 14.0134C96.0171 14.0134 100.077 18.2257 100.073 23.4944H100.071ZM96.8287 23.533C96.8781 20.0163 94.3146 17.2532 90.9589 17.2081C87.4572 17.1587 84.9152 19.7243 84.8444 23.3806C84.7778 26.805 87.4594 29.6024 90.8194 29.6153C94.1579 29.6282 96.7793 26.9767 96.8287 23.533Z" fill="#F0EFF0"/>
<path d="M35.6857 20.553C35.6857 24.2994 35.6449 27.6916 35.7093 31.0838C35.7286 32.0993 35.3787 32.3526 34.4383 32.3204C31.9264 32.2346 32.4245 32.5394 32.4137 30.2637C32.388 25.3686 32.4245 20.4714 32.388 15.5764C32.3815 14.7068 32.622 14.49 33.5087 14.4127C35.0652 14.2796 35.9669 14.8679 36.7635 16.1775C38.6742 19.3163 40.7332 22.3629 42.7363 25.4437C42.8694 25.6477 43.0283 25.8323 43.3868 26.3047C43.3868 25.3944 43.3868 24.7782 43.3868 24.162C43.3868 21.2679 43.4083 18.3717 43.3761 15.4776C43.3675 14.7154 43.5478 14.4106 44.3916 14.4299C46.633 14.4836 46.633 14.4428 46.633 16.6885C46.6351 21.5492 46.6223 26.4099 46.6609 31.2684C46.6673 32.0671 46.4183 32.2367 45.6454 32.3333C44.0094 32.5351 43.0776 31.8996 42.2403 30.4977C40.4197 27.4447 38.3994 24.5141 36.4543 21.5363C36.2868 21.2787 36.0743 21.0489 35.6814 20.5508L35.6857 20.553Z" fill="#34AAB0"/>
<path d="M59.3601 32.7241C54.1001 32.7369 50.0488 28.6577 50.0381 23.3376C50.0252 18.1828 54.2031 14.0112 59.3773 14.0112C64.4742 14.0112 68.5405 18.2064 68.5491 23.4686C68.5555 28.6835 64.5579 32.7112 59.3601 32.7241ZM65.2921 23.4664C65.3329 20.0141 62.7716 17.2596 59.4718 17.2037C55.9572 17.1458 53.3637 19.7329 53.3293 23.3311C53.295 26.8929 55.8756 29.5809 59.3601 29.611C62.6299 29.6389 65.2514 26.923 65.2921 23.4643V23.4664Z" fill="#F0EFF0"/>
<path d="M103.452 23.3462C103.452 20.7355 103.48 18.1248 103.435 15.5141C103.42 14.6746 103.673 14.3676 104.53 14.4299C106.69 14.5866 108.871 14.2453 111.005 14.958C112.894 15.5893 113.723 16.9654 113.942 18.7775C114.178 20.7269 113.742 22.4616 111.99 23.6682C110.741 24.527 109.32 24.6666 107.892 24.6644C106.977 24.6644 106.645 24.8877 106.692 25.8689C106.78 27.7238 106.694 29.5874 106.728 31.4466C106.741 32.1057 106.514 32.3204 105.865 32.3097C102.879 32.2603 103.51 32.6876 103.465 29.9996C103.428 27.7839 103.456 25.5661 103.456 23.3483H103.45L103.452 23.3462ZM106.715 19.3915C106.756 21.6694 106.445 21.4762 107.903 21.4955C109.957 21.5234 110.838 20.9309 110.84 19.6169C110.842 18.2515 109.906 17.7276 107.75 17.6439C106.022 17.5752 106.997 18.8419 106.718 19.3915H106.715Z" fill="#34AAB0"/>
<path d="M11 31.2339C11.5496 30.6607 11.8631 29.9801 12.1937 29.321C12.4599 28.7886 12.6703 28.5889 13.3037 28.8959C14.2333 29.3468 15.251 29.5765 16.3008 29.6345C17.2691 29.686 18.1343 29.4584 18.5702 28.5545C19.0468 27.5669 18.5401 26.7425 17.8166 26.0834C16.8419 25.1946 15.8306 24.3422 14.8194 23.4942C14.0852 22.878 13.4239 22.1931 12.8313 21.4438C11.7021 20.0183 11.3242 18.4317 12.0821 16.7399C12.8893 14.9321 14.4265 14.1227 16.3459 14.0132C18.173 13.9102 19.8734 14.419 21.5115 15.1812C21.6081 15.2263 21.7841 15.2628 21.7906 15.3186C21.8915 16.2675 21.1744 16.9052 20.8524 17.6953C20.687 18.0989 20.4101 18.1397 19.9893 17.9443C19.1498 17.5514 18.2674 17.2702 17.3335 17.1499C16.9299 17.0984 16.5456 17.1371 16.1677 17.2186C14.8602 17.4977 14.5317 18.4875 15.4313 19.4708C16.713 20.8706 18.2717 21.9634 19.6694 23.2365C20.8287 24.2928 21.7433 25.4801 21.9731 27.0968C22.366 29.8577 20.2684 32.4706 17.4881 32.6939C15.1823 32.8807 13.0439 32.3954 11 31.2339Z" fill="#34AAB0"/>
<path d="M76.6688 24.9414C76.6688 27.0476 76.6452 29.1559 76.6795 31.262C76.6924 32.0049 76.5336 32.3291 75.6855 32.3269C73.3689 32.3162 73.3689 32.3591 73.3689 30.0147C73.3689 26.2661 73.3367 22.5154 73.3883 18.7668C73.4011 17.8522 73.1049 17.543 72.2461 17.674C72.1409 17.689 72.0314 17.674 71.924 17.674C69.5323 17.6654 69.4293 17.5344 69.5388 15.1256C69.5624 14.591 69.7664 14.4428 70.2408 14.445C73.4183 14.4536 76.5958 14.46 79.7754 14.4536C80.28 14.4536 80.5119 14.6425 80.4367 15.1556C80.4324 15.19 80.4346 15.2265 80.4346 15.263C80.4389 16.866 79.6438 17.6704 78.0493 17.6761C77.1304 17.679 76.6702 18.137 76.6688 19.0502C76.6688 21.0146 76.6688 22.9791 76.6688 24.9414Z" fill="#34AAB0"/>
<path d="M25.1269 23.3161C25.1269 20.744 25.1506 18.172 25.1119 15.5999C25.099 14.7691 25.2729 14.4019 26.2219 14.432C28.4032 14.5028 28.3989 14.4513 28.3946 16.6842C28.386 21.5062 28.3624 26.3304 28.3989 31.1525C28.4053 32.0198 28.2057 32.3526 27.2911 32.3225C24.6675 32.2345 25.1763 32.6145 25.1398 30.1756C25.1055 27.8891 25.1334 25.6026 25.1334 23.3161H25.1269Z" fill="#34AAB0"/>
<path d="M90.8988 26.4764C89.7695 26.4571 88.8613 26.2209 88.0455 25.6326C86.3064 24.381 86.2893 22.3542 88.0218 21.1026C89.5913 19.969 92.2492 20.0033 93.7649 21.1777C95.4031 22.4466 95.2764 24.6493 93.5009 25.7357C92.6593 26.251 91.7511 26.5279 90.8988 26.4764ZM90.7227 24.5291C91.603 24.5033 91.9851 24.0289 91.9894 23.3783C91.9937 22.6548 91.5214 22.1782 90.7699 22.219C90.0786 22.2555 89.6707 22.7106 89.7029 23.4191C89.7351 24.119 90.1516 24.4948 90.7227 24.5313V24.5291Z" fill="#F0EFF0"/>
<path d="M59.461 26.4657C58.4433 26.5065 57.5931 26.2811 56.8009 25.8259C54.6861 24.6151 54.6582 22.1847 56.7558 20.9545C58.1341 20.1472 59.5876 20.0549 61.0798 20.5895C62.5719 21.1241 63.435 22.2062 63.4006 23.4621C63.3684 24.673 62.3765 25.8109 60.9381 26.2381C60.4271 26.3884 59.9054 26.5387 59.461 26.4657ZM58.1513 23.4299C58.2308 24.089 58.5872 24.5313 59.3171 24.5184C60.0449 24.5056 60.4593 24.0375 60.4464 23.3569C60.4357 22.6742 59.9805 22.1868 59.2785 22.2191C58.6194 22.2491 58.1578 22.6441 58.1492 23.4299H58.1513Z" fill="#F0EFF0"/>
</g>
<defs>
<clipPath id="clip0_53_375">
<rect width="103" height="18.7322" fill="white" transform="translate(11 14.0005)"/>
</clipPath>
</defs>
</svg>
