<svg width="97" height="20" viewBox="0 0 97 20" fill="none" xmlns="http://www.w3.org/2000/svg">
<mask id="mask0_12_4179" style="mask-type:luminance" maskUnits="userSpaceOnUse" x="0" y="0" width="97" height="20">
<path d="M97 0.177246H0V19.8228H97V0.177246Z" fill="white"/>
</mask>
<g mask="url(#mask0_12_4179)">
<path d="M56.3573 6.49823L52.9056 3.41033C52.6541 3.18513 52.3282 3.06103 51.9906 3.06203H49.3342C48.9965 3.06043 48.6703 3.18463 48.4193 3.41033L44.9155 6.55543C44.7722 6.68273 44.6573 6.83873 44.5785 7.01343C44.4997 7.18813 44.4586 7.37753 44.458 7.56913V15.9127C44.4575 15.9579 44.4661 16.0027 44.4831 16.0446C44.5002 16.0864 44.5255 16.1244 44.5574 16.1564C44.5894 16.1884 44.6274 16.2136 44.6692 16.2307C44.7111 16.2477 44.7559 16.2563 44.8011 16.2558H47.0209C47.066 16.2563 47.1109 16.2477 47.1527 16.2307C47.1946 16.2136 47.2326 16.1884 47.2646 16.1564C47.2965 16.1244 47.3218 16.0864 47.3388 16.0446C47.3559 16.0027 47.3644 15.9579 47.364 15.9127V7.01813C47.3637 6.83913 47.3987 6.66193 47.4671 6.49653C47.5354 6.33123 47.6357 6.18093 47.7623 6.05443C47.8888 5.92793 48.0391 5.82763 48.2044 5.75923C48.3698 5.69093 48.547 5.65583 48.726 5.65613H52.9419C53.1232 5.65703 53.2966 5.72983 53.4243 5.85843C53.5519 5.98713 53.6234 6.16113 53.6229 6.34233V7.67313C53.6224 7.85353 53.5505 8.02643 53.4229 8.15403C53.2953 8.28163 53.1224 8.35363 52.9419 8.35413H48.4348C48.3897 8.35363 48.3448 8.36223 48.303 8.37923C48.2611 8.39633 48.2231 8.42153 48.1912 8.45353C48.1592 8.48553 48.1339 8.52353 48.1169 8.56533C48.0998 8.60723 48.0913 8.65203 48.0917 8.69723V10.6102C48.0913 10.6554 48.0998 10.7003 48.1169 10.7421C48.1339 10.784 48.1592 10.822 48.1912 10.8539C48.2231 10.8859 48.2611 10.9111 48.303 10.9282C48.3448 10.9453 48.3897 10.9538 48.4348 10.9533H51.9906C52.3283 10.955 52.6545 10.8308 52.9056 10.605L56.3573 7.51193C56.4243 7.45303 56.4788 7.38133 56.5178 7.30113C56.5567 7.22083 56.5792 7.13363 56.5841 7.04463C56.5889 6.95553 56.5759 6.86643 56.5459 6.78243C56.5159 6.69843 56.4695 6.62133 56.4093 6.55543C56.3906 6.53773 56.3732 6.51863 56.3573 6.49823Z" fill="white"/>
<path d="M67.5133 8.3594H62.5643C62.5192 8.3589 62.4743 8.3674 62.4325 8.3845C62.3906 8.4016 62.3526 8.4268 62.3207 8.4588C62.2887 8.4907 62.2634 8.5288 62.2464 8.5706C62.2293 8.6125 62.2208 8.6573 62.2212 8.7025V10.6259C62.2208 10.6711 62.2293 10.7159 62.2464 10.7578C62.2634 10.7996 62.2887 10.8377 62.3207 10.8696C62.3526 10.9016 62.3906 10.9268 62.4325 10.9439C62.4743 10.961 62.5192 10.9695 62.5643 10.969H69.3848C69.4299 10.9677 69.4727 10.9492 69.5046 10.9173C69.5365 10.8854 69.555 10.8426 69.5563 10.7975V10.4128C69.5578 10.1436 69.506 9.8768 69.4039 9.6277C69.3019 9.3786 69.1516 9.1521 68.9618 8.9613C68.7719 8.7705 68.5462 8.619 68.2976 8.5157C68.049 8.4124 67.7825 8.3593 67.5133 8.3594Z" fill="white"/>
<path d="M69.2133 3.06203H63.5054C63.1677 3.06043 62.8415 3.18463 62.5904 3.41033L59.0451 6.58663C58.9024 6.71413 58.7884 6.87043 58.7105 7.04513C58.6325 7.21983 58.5924 7.40903 58.5928 7.60033V11.7175C58.5936 11.9086 58.6342 12.0975 58.7121 12.272C58.79 12.4466 58.9034 12.603 59.0451 12.7312L62.5956 15.9075C62.847 16.1328 63.173 16.2569 63.5106 16.2558H69.2133C69.2585 16.2563 69.3033 16.2477 69.3452 16.2307C69.387 16.2136 69.425 16.1884 69.457 16.1564C69.489 16.1244 69.5142 16.0864 69.5313 16.0446C69.5484 16.0027 69.5569 15.9579 69.5564 15.9127V13.9893C69.5569 13.9441 69.5484 13.8992 69.5313 13.8574C69.5142 13.8155 69.489 13.7775 69.457 13.7456C69.425 13.7136 69.387 13.6884 69.3452 13.6713C69.3033 13.6542 69.2585 13.6457 69.2133 13.6462H62.8556C62.6766 13.6464 62.4994 13.6114 62.334 13.543C62.1686 13.4747 62.0184 13.3744 61.8919 13.2479C61.7653 13.1213 61.665 12.9711 61.5967 12.8057C61.5283 12.6403 61.4933 12.4631 61.4935 12.2842V7.01813C61.4933 6.83913 61.5283 6.66193 61.5967 6.49653C61.665 6.33123 61.7653 6.18093 61.8919 6.05443C62.0184 5.92793 62.1686 5.82763 62.334 5.75923C62.4994 5.69093 62.6766 5.65583 62.8556 5.65613H69.2133C69.2585 5.65663 69.3033 5.64803 69.3452 5.63103C69.387 5.61393 69.425 5.58863 69.457 5.55673C69.489 5.52473 69.5142 5.48673 69.5313 5.44493C69.5484 5.40303 69.5569 5.35823 69.5564 5.31303V3.39993C69.5554 3.30973 69.5188 3.22353 69.4545 3.16023C69.3903 3.09693 69.3035 3.06163 69.2133 3.06203Z" fill="white"/>
<path d="M81.0192 8.3594H76.0702C76.025 8.3589 75.9802 8.3674 75.9383 8.3845C75.8965 8.4016 75.8585 8.4268 75.8265 8.4588C75.7945 8.4907 75.7693 8.5288 75.7522 8.5706C75.7351 8.6125 75.7266 8.6573 75.7271 8.7025V10.6259C75.7266 10.6711 75.7351 10.7159 75.7522 10.7578C75.7693 10.7996 75.7945 10.8377 75.8265 10.8696C75.8585 10.9016 75.8965 10.9268 75.9383 10.9439C75.9802 10.961 76.025 10.9695 76.0702 10.969H82.8906C82.9357 10.9677 82.9786 10.9492 83.0105 10.9173C83.0424 10.8854 83.0609 10.8426 83.0622 10.7975V10.4128C83.0645 10.1434 83.0133 9.8761 82.9116 9.6266C82.8099 9.3771 82.6597 9.1503 82.4696 8.9593C82.2796 8.7683 82.0535 8.6169 81.8045 8.5139C81.5555 8.4109 81.2886 8.3584 81.0192 8.3594Z" fill="white"/>
<path d="M82.7245 3.06203H77.0165C76.6789 3.06043 76.3527 3.18463 76.1016 3.41033L72.5562 6.58663C72.4136 6.71413 72.2996 6.87043 72.2216 7.04513C72.1437 7.21983 72.1036 7.40903 72.104 7.60033V11.7175C72.1047 11.9086 72.1454 12.0975 72.2232 12.272C72.3011 12.4466 72.4145 12.603 72.5562 12.7312L76.1068 15.9075C76.3582 16.1328 76.6842 16.2569 77.0217 16.2558H82.7297C82.7749 16.2563 82.8197 16.2477 82.8615 16.2307C82.9034 16.2136 82.9414 16.1884 82.9734 16.1564C83.0053 16.1244 83.0306 16.0864 83.0476 16.0446C83.0647 16.0027 83.0733 15.9579 83.0728 15.9127V13.9893C83.0733 13.9441 83.0647 13.8992 83.0476 13.8574C83.0306 13.8155 83.0053 13.7775 82.9734 13.7456C82.9414 13.7136 82.9034 13.6884 82.8615 13.6713C82.8197 13.6542 82.7749 13.6457 82.7297 13.6462H76.3719C76.193 13.6464 76.0157 13.6114 75.8504 13.543C75.685 13.4747 75.5348 13.3744 75.4082 13.2479C75.2817 13.1213 75.1814 12.9711 75.113 12.8057C75.0447 12.6403 75.0096 12.4631 75.0099 12.2842V7.01813C75.0096 6.83913 75.0447 6.66193 75.113 6.49653C75.1814 6.33123 75.2817 6.18093 75.4082 6.05443C75.5348 5.92793 75.685 5.82763 75.8504 5.75923C76.0157 5.69093 76.193 5.65583 76.3719 5.65613H82.7297C82.7749 5.65663 82.8197 5.64803 82.8615 5.63103C82.9034 5.61393 82.9414 5.58863 82.9734 5.55673C83.0053 5.52473 83.0306 5.48673 83.0476 5.44493C83.0647 5.40303 83.0733 5.35823 83.0728 5.31303V3.39993C83.0706 3.30923 83.0329 3.22303 82.9677 3.15983C82.9026 3.09663 82.8152 3.06153 82.7245 3.06203Z" fill="white"/>
<path d="M88.0739 3.06203H85.807C85.7618 3.06163 85.717 3.07013 85.6751 3.08723C85.6333 3.10423 85.5952 3.12953 85.5633 3.16143C85.5313 3.19343 85.5061 3.23143 85.489 3.27333C85.4719 3.31513 85.4634 3.35993 85.4639 3.40513V15.9595C85.464 16.0408 85.4964 16.1187 85.5539 16.1762C85.6114 16.2337 85.6893 16.2661 85.7706 16.2662H88.0679C88.1499 16.2661 88.2279 16.2337 88.2849 16.1762C88.3429 16.1187 88.3749 16.0408 88.3749 15.9595V3.35843C88.3719 3.27983 88.3389 3.20533 88.2829 3.15023C88.2269 3.09513 88.1519 3.06363 88.0739 3.06203Z" fill="white"/>
<path d="M96.9531 6.48263L93.5271 3.41033C93.2751 3.18513 92.9491 3.06103 92.6121 3.06203H89.3841C89.3381 3.06163 89.2941 3.07013 89.2521 3.08723C89.2101 3.10423 89.1721 3.12953 89.1401 3.16143C89.1081 3.19343 89.0831 3.23143 89.0661 3.27333C89.0491 3.31513 89.0401 3.35993 89.0411 3.40513V5.32863C89.0401 5.37383 89.0491 5.41863 89.0661 5.46053C89.0831 5.50233 89.1081 5.54033 89.1401 5.57233C89.1721 5.60423 89.2101 5.62953 89.2521 5.64663C89.2941 5.66363 89.3381 5.67223 89.3841 5.67173H93.7921C93.8371 5.67123 93.8821 5.67973 93.9241 5.69683C93.9661 5.71393 94.0041 5.73913 94.0361 5.77113C94.0681 5.80303 94.0931 5.84113 94.1101 5.88293C94.1271 5.92483 94.1361 5.96963 94.1351 6.01483V13.3291C94.1361 13.3742 94.1271 13.4191 94.1101 13.4609C94.0931 13.5028 94.0681 13.5408 94.0361 13.5728C94.0041 13.6047 93.9661 13.63 93.9241 13.647C93.8821 13.6641 93.8371 13.6726 93.7921 13.6722H89.3841C89.3381 13.6717 89.2941 13.6802 89.2521 13.6973C89.2101 13.7144 89.1721 13.7396 89.1401 13.7716C89.1081 13.8035 89.0831 13.8415 89.0661 13.8834C89.0491 13.9252 89.0401 13.9701 89.0411 14.0153V15.9387C89.0401 15.9839 89.0491 16.0287 89.0661 16.0706C89.0831 16.1124 89.1081 16.1504 89.1401 16.1824C89.1721 16.2143 89.2101 16.2396 89.2521 16.2567C89.2941 16.2737 89.3381 16.2823 89.3841 16.2818H92.6121C92.9471 16.2852 93.2701 16.1607 93.5161 15.9335L96.9471 12.8612C97.0901 12.7337 97.2041 12.5774 97.2821 12.4027C97.3601 12.228 97.4001 12.0388 97.4001 11.8475V7.51713C97.4081 7.32223 97.3721 7.12803 97.2941 6.94893C97.2171 6.76983 97.1001 6.61053 96.9531 6.48263Z" fill="white"/>
<path d="M39.1815 3.06203H41.4013C41.4465 3.06163 41.4913 3.07013 41.5332 3.08723C41.575 3.10423 41.613 3.12953 41.645 3.16143C41.6769 3.19343 41.7022 3.23143 41.7193 3.27333C41.7363 3.31513 41.7449 3.35993 41.7444 3.40513V5.33383C41.7449 5.37903 41.7363 5.42383 41.7193 5.46573C41.7022 5.50753 41.6769 5.54553 41.645 5.57753C41.613 5.60943 41.575 5.63473 41.5332 5.65183C41.4913 5.66883 41.4465 5.67743 41.4013 5.67693H39.1815C39.1363 5.67743 39.0915 5.66883 39.0497 5.65183C39.0078 5.63473 38.9698 5.60943 38.9378 5.57753C38.9059 5.54553 38.8806 5.50753 38.8636 5.46573C38.8465 5.42383 38.8379 5.37903 38.8384 5.33383V3.39993C38.8394 3.30973 38.876 3.22353 38.9403 3.16023C39.0046 3.09693 39.0913 3.06163 39.1815 3.06203Z" fill="white"/>
<path d="M41.5676 8.3594H40.6631C40.4234 8.3592 40.1861 8.4063 39.9647 8.498C39.7432 8.5896 39.542 8.724 39.3726 8.8935C39.2031 9.063 39.0687 9.2642 38.977 9.4856C38.8854 9.7071 38.8383 9.9444 38.8384 10.1841V15.9128C38.8379 15.958 38.8465 16.0028 38.8636 16.0447C38.8806 16.0865 38.9059 16.1245 38.9378 16.1565C38.9698 16.1884 39.0078 16.2137 39.0497 16.2308C39.0915 16.2478 39.1363 16.2564 39.1815 16.2559H41.4013C41.4465 16.2564 41.4913 16.2478 41.5332 16.2308C41.575 16.2137 41.613 16.1884 41.645 16.1565C41.6769 16.1245 41.7022 16.0865 41.7193 16.0447C41.7363 16.0028 41.7449 15.958 41.7444 15.9128V8.5309C41.744 8.5081 41.7392 8.4855 41.7301 8.4645C41.7211 8.4435 41.708 8.4245 41.6915 8.4085C41.6751 8.3926 41.6557 8.3801 41.6345 8.3716C41.6132 8.3632 41.5905 8.359 41.5676 8.3594Z" fill="white"/>
<path d="M32.8758 8.65569C32.7808 8.56119 32.6681 8.48629 32.5441 8.43549C32.4201 8.38459 32.2873 8.35878 32.1533 8.35938H29.1485C28.9681 8.35878 28.7952 8.28688 28.6676 8.15928C28.54 8.03168 28.4681 7.85878 28.4675 7.67838V6.34748C28.4689 6.16688 28.5409 5.99389 28.6682 5.86559C28.7954 5.73739 28.9679 5.66409 29.1485 5.66129H33.0422C33.3331 5.66159 33.6211 5.60439 33.8899 5.49319C34.1587 5.38199 34.4029 5.21889 34.6086 5.01319C34.8143 4.80749 34.9774 4.56329 35.0886 4.29449C35.1998 4.02569 35.257 3.73768 35.2568 3.44678V3.22849C35.2554 3.18339 35.237 3.14049 35.2051 3.10859C35.1732 3.07669 35.1303 3.05818 35.0852 3.05688H29.8243C29.5541 3.05798 29.295 3.16429 29.1017 3.35319L25.9307 6.52428C25.8034 6.65198 25.7319 6.82488 25.7319 7.00518C25.7319 7.18538 25.8034 7.35838 25.9307 7.48598L29.1017 10.6571C29.1968 10.7516 29.3095 10.8264 29.4335 10.8773C29.5575 10.9281 29.6903 10.954 29.8243 10.9534H32.8447C33.0251 10.954 33.198 11.0259 33.3256 11.1535C33.4532 11.2811 33.5251 11.454 33.5257 11.6344V12.9652C33.5251 13.1457 33.4532 13.3186 33.3256 13.4462C33.198 13.5738 33.0251 13.6457 32.8447 13.6462H28.7846C28.2428 13.6464 27.7233 13.8617 27.3402 14.2448C26.9571 14.6279 26.7418 15.1474 26.7416 15.6892V16.0843C26.7429 16.1294 26.7614 16.1723 26.7933 16.2042C26.8252 16.2361 26.8681 16.2546 26.9132 16.2559H32.1689C32.3037 16.2557 32.4371 16.2285 32.5613 16.1758C32.6854 16.1231 32.7977 16.046 32.8914 15.9492L36.0521 12.7781C36.1794 12.6504 36.2509 12.4775 36.2509 12.2972C36.2509 12.1169 36.1794 11.944 36.0521 11.8164L32.8758 8.65569Z" fill="white"/>
<path d="M17.9069 -0.154297H2.25422C1.15842 -0.154297 0.27002 0.734104 0.27002 1.83V17.4826C0.27002 18.5785 1.15842 19.4669 2.25422 19.4669H17.9069C19.0028 19.4669 19.8912 18.5785 19.8912 17.4826V1.83C19.8912 0.734104 19.0028 -0.154297 17.9069 -0.154297Z" fill="#E34548"/>
<path d="M16.2326 12.6891L11.989 16.9498H5.67345V14.141H12.9909V11.2377H8.54195L4.28125 6.97701L8.54305 2.71631H14.8545V5.52561H7.53655V8.42841H11.972L16.2326 12.6891Z" fill="#FFF7F0"/>
<path d="M5.13528 3.24655C5.11458 2.99175 5.02128 2.74825 4.86648 2.54465C4.71178 2.34115 4.50198 2.18615 4.26198 2.09805C4.02198 2.00985 3.76178 1.99225 3.51208 2.04715C3.26238 2.10215 3.03358 2.22745 2.85288 2.40825C2.67208 2.58905 2.54678 2.81775 2.49178 3.06745C2.43678 3.31715 2.45448 3.57735 2.54258 3.81735C2.63078 4.05735 2.78578 4.26715 2.98928 4.42195C3.19278 4.57665 3.43638 4.66995 3.69118 4.69075C3.88468 4.70575 4.07908 4.67865 4.26108 4.61135C4.44308 4.54405 4.60838 4.43825 4.74558 4.30105C4.88278 4.16375 4.98868 3.99855 5.05598 3.81645C5.12328 3.63445 5.15028 3.44005 5.13528 3.24655ZM3.72918 3.89645C3.62818 3.88315 3.53308 3.84185 3.45438 3.77725C3.37568 3.71275 3.31668 3.62745 3.28398 3.53105C3.25128 3.43465 3.24618 3.33105 3.26928 3.23195C3.29238 3.13275 3.34278 3.04215 3.41478 2.97015C3.48668 2.89815 3.57738 2.84775 3.67648 2.82465C3.77558 2.80155 3.87928 2.80665 3.97558 2.83935C4.07198 2.87205 4.15728 2.93115 4.22188 3.00975C4.28648 3.08845 4.32768 3.18365 4.34098 3.28455C4.35178 3.36745 4.34348 3.45175 4.31648 3.53095C4.28958 3.61005 4.24488 3.68195 4.18568 3.74115C4.12658 3.80025 4.05468 3.84495 3.97548 3.87195C3.89638 3.89885 3.81208 3.90725 3.72918 3.89645Z" fill="#FFF7F0"/>
</g>
</svg>
