<svg width="108" height="57" viewBox="0 0 108 57" fill="none" xmlns="http://www.w3.org/2000/svg">
<g clip-path="url(#clip0_115_416)">
<path d="M9.95069 37.3852C8.16402 36.5492 6.69735 35.8745 6.69735 34.5105C6.69735 33.4665 7.53335 32.7079 9.18135 32.7079C9.78801 32.7079 10.284 32.7797 10.7974 32.873C11.0654 32.9195 11.3507 32.9584 11.5867 32.9584C13.028 32.9584 13.8414 32.0998 14.3827 30.4691L14.6053 29.8038C14.3747 29.7104 12.0213 28.6758 8.95334 28.6758C4.07067 28.6758 1.49334 31.8078 1.49467 35.0558C1.49467 36.6944 2.008 37.8824 2.812 38.8184C3.84667 40.0198 5.32134 40.8064 6.70134 41.4811C8.71333 42.4678 10.528 43.1971 10.528 44.6598C10.5293 45.9584 9.188 46.6958 7.39467 46.6958C4.93734 46.6958 2.79067 45.2931 2.51734 45.1238L0.5 48.9038C0.857354 49.1079 3.456 50.7558 7.732 50.7558C12.288 50.7531 15.7387 48.1411 15.7387 44.1211C15.7387 40.1224 12.5414 38.6398 9.95069 37.3852Z" fill="#E31837"/>
<path d="M27.7724 39.2515L36.0364 29.1182H30.1484L23.5564 37.8635H23.4577V29.1182H18.603L18.6057 50.5848H18.8937C20.9924 50.5848 23.4897 49.6128 23.4897 46.1088V41.1795H23.5884L30.3084 50.3168H36.4857L27.7724 39.2515Z" fill="#E31837"/>
<path d="M36.3118 6.12305C34.6025 6.44582 32.0692 7.99774 32.0785 10.7404C32.0838 13.2311 34.1212 14.7417 34.1278 18.0044C34.1373 20.4604 32.7838 22.1151 31.3198 23.031C31.9118 22.9789 32.5598 22.9445 33.2718 22.943C34.7678 22.9392 35.6692 23.0817 35.7252 23.0911L43.3918 13.6831C41.2625 10.4951 38.7758 8.02173 36.3118 6.12305Z" fill="#E31837"/>
<path d="M42.7516 31.5292C43.7182 30.0266 43.8396 27.6319 43.9209 25.1946C44.0129 22.9186 44.4862 21.2065 47.5302 21.1959C48.2036 21.1946 48.8462 21.2866 50.0089 21.2839C54.4676 21.265 57.3783 19.7293 59.1889 18.7213C55.4903 16.3626 50.0903 13.9533 43.3916 13.6826C42.9542 14.9146 39.5596 24.3546 39.3022 25.1173C39.3409 25.1626 39.9356 25.8279 40.6782 27.128C41.7742 28.9133 42.3622 30.4252 42.7516 31.5292Z" fill="#E31837"/>
<path d="M26.5592 23.8187C26.1712 23.82 25.9778 23.5628 25.9258 23.116C25.8765 22.6733 23.9578 5.13068 23.6738 2.47602C23.6325 2.08801 23.5365 1.37599 23.5352 1.12268C23.5338 0.714683 23.8005 0.501332 24.1138 0.500009C25.0218 0.49623 29.9738 1.65601 35.2272 5.33999C33.7125 5.76534 30.9752 7.34003 30.9872 10.6C30.9977 13.4867 33.0632 15.0747 33.0738 17.9693C33.0912 22.6773 27.6792 23.816 26.5592 23.8187Z" fill="#F58025"/>
<path d="M43.1919 32.781C43.2746 32.9999 43.3519 33.1837 43.4306 33.3117C43.5519 33.5158 43.7079 33.6092 43.9026 33.6092C44.0239 33.6078 44.1732 33.5665 44.3399 33.492C44.7439 33.3053 60.7532 25.8534 63.1679 24.74C63.5173 24.5722 64.1826 24.2747 64.3999 24.1467C64.6266 24.0174 64.7306 23.8292 64.7306 23.6374C64.7292 23.5293 64.6985 23.4211 64.6373 23.3225C64.3346 22.8345 62.7866 21.1905 60.1973 19.3945C58.1413 20.5265 54.9306 22.2772 50.1546 22.2959C48.9839 22.2985 48.7199 22.2199 47.9199 22.2225C45.5893 22.2301 45.0066 23.2279 44.9213 25.2719C44.908 25.6586 44.9001 26.1772 44.8773 26.7479C44.8039 28.5746 44.5879 31.0944 43.1919 32.781Z" fill="#F58025"/>
<path d="M68.204 50.8752C66.4267 55.6792 64.1374 56.3004 62.1733 56.3004C60.7853 56.3004 59.7654 55.8044 59.6587 55.7498L60.4 53.5018C60.4587 53.532 61.2094 53.9365 62.044 53.9365C63.604 53.9365 64.5827 53.0698 65.448 50.3551C65.448 50.3551 60.1454 38.8125 60.0827 38.6685C60.18 38.6382 60.8147 38.4443 61.5387 38.4443C63.2547 38.4443 63.6334 39.5164 64.0747 40.587C64.448 41.4857 66.892 47.379 66.892 47.379H66.9734L69.804 38.6684H72.74L68.204 50.8752Z" fill="#F58025"/>
<path d="M107.037 50.2982L102.933 44.3355L106.951 38.4996H103.487L100.69 42.7782C99.9367 41.5955 99.226 40.4795 99.006 40.1329C98.446 39.2729 97.9421 38.4049 96.6634 38.4302C96.4941 38.434 96.3154 38.4491 96.1234 38.4888C95.4101 38.6196 94.8221 38.9261 94.7327 38.9714C94.778 39.0436 96.7007 41.7688 98.5407 44.4195L94.498 50.2981H97.958L100.769 46.0048L103.579 50.2981L107.037 50.2982Z" fill="#F58025"/>
<path d="M75.124 42.5008V50.3168H78.0587V42.1928C78.2187 42.0462 79.2627 41.0501 80.4187 41.0501C81.928 41.0501 82.7107 42.1435 82.7107 43.5675V50.3168H85.6427V42.8328C85.6427 39.2808 82.908 38.4941 81.3827 38.4941C79.548 38.4941 78.2427 39.6502 77.8547 40.0342C77.7293 39.5582 77.1707 38.7528 75.8893 38.7528C75.4373 38.7528 74.8467 38.8862 74.792 38.901C74.8813 39.3423 75.124 40.3888 75.124 42.5008Z" fill="#F58025"/>
<path d="M92.1862 35.1338C92.1862 36.1031 91.3782 36.8884 90.3768 36.8884C89.3768 36.8884 88.5688 36.1031 88.5688 35.1338C88.5688 34.1604 89.3768 33.3711 90.3768 33.3711C91.3782 33.3711 92.1862 34.1604 92.1862 35.1338Z" fill="#F58025"/>
<path d="M91.8303 50.2998H88.9209V38.6611H91.8303V50.2998Z" fill="#F58025"/>
<path d="M50.7159 40.0052C50.9213 39.8332 52.4173 38.4439 54.4986 38.4439C56.7759 38.4439 58.4559 39.6319 58.4559 42.5265V50.3172H55.4159V43.3599C55.4159 42.0785 54.7093 41.0852 53.3719 41.0852C52.0999 41.0852 51.0213 42.0892 50.7159 42.3412V50.3172H47.6973V32.5479H48.3373C49.7839 32.5479 50.7159 33.5999 50.7159 35.0012V40.0052Z" fill="#F58025"/>
</g>
<defs>
<clipPath id="clip0_115_416">
<rect width="107.537" height="56.8005" fill="white"/>
</clipPath>
</defs>
</svg>
