<svg width="176" height="25" viewBox="0 0 176 25" fill="none" xmlns="http://www.w3.org/2000/svg">
<path d="M17.1181 17.3679C17.1181 22.5087 12.5128 24.4544 7.53266 24.4544C5.81907 24.4544 2.80243 24.4008 0 23.3477V19.1886C1.92779 19.9026 4.71237 20.5274 6.58661 20.5274C9.514 20.5274 11.2276 19.2957 11.2276 17.9391C11.2276 16.4041 10.1209 15.7793 5.89047 13.7087C4.31968 12.9412 0.214199 11.5489 0.214199 6.64016C0.214199 2.57038 3.49858 0.0178455 9.0856 0.0178455C12.0844 0.0178455 13.7444 0.356996 15.4937 1.03529V4.90872C14.1193 4.24828 12.4771 3.39148 10.0673 3.39148C7.40771 3.39148 5.58702 4.44462 5.58702 6.31886C5.58702 7.05071 5.71197 7.99675 8.63935 9.40689C12.2272 11.1026 17.1181 12.2272 17.1181 17.3679ZM170.627 0.499795V10.2101H161.827V0.499795H156.454V23.9724H161.827V14.2621H170.627V23.9724H176V0.499795H170.627ZM112.686 12.245C112.686 16.1006 112.204 19.2243 109.313 21.7947C107.296 23.5976 104.529 24.4544 101.673 24.4544C98.8349 24.4544 96.0682 23.5976 94.0333 21.7947C91.1594 19.2422 90.6596 16.1006 90.6596 12.245C90.6596 8.38945 91.1416 5.23002 94.0333 2.65963C96.0503 0.856794 98.817 0 101.673 0C104.511 0 107.278 0.856794 109.313 2.65963C112.204 5.23002 112.686 8.38945 112.686 12.245ZM107.064 12.245C107.064 10.0852 106.992 7.17566 105.386 5.47992C104.458 4.48032 103.047 3.92698 101.691 3.92698C100.334 3.92698 98.9241 4.49817 97.9959 5.47992C96.3716 7.17566 96.318 10.0852 96.318 12.245C96.318 14.4049 96.3895 17.2965 97.9959 18.9744C98.9241 19.974 100.334 20.5274 101.691 20.5274C103.047 20.5274 104.458 19.9562 105.386 18.9744C106.992 17.2965 107.064 14.4049 107.064 12.245ZM80.8957 15.4759L76.8795 0.499795H72.4706L68.4544 15.4759L65.1343 0.499795H59.9935L65.2057 23.9724H70.4714L74.684 8.2645L78.8966 23.9724H84.1623L89.3566 0.499795H84.2158L80.8957 15.4759ZM49.3907 10.3886L44.4819 0.499795H39.0734L46.1955 14.4763V23.9724H51.8183V14.2621L59.7615 0.499795H54.6207L49.3907 10.3886ZM19.7955 23.9724H25.1684V0.499795H19.7955V23.9724ZM33.5757 0.499795L26.6677 10.817L32.9509 23.9724H38.8057L32.5582 10.103L38.9663 0.517646H33.5757V0.499795ZM134.071 7.58621C134.071 3.30223 130.501 0.499795 126.217 0.499795H115.971V23.9724H121.112V3.92698H125.146C127.538 3.92698 128.573 5.89047 128.573 7.58621C128.573 9.4069 127.181 11.3347 123.129 12.5663L128.93 23.9724H134.802L129.751 14.0479C132.839 12.5128 134.071 10.0138 134.071 7.58621ZM154.491 4.40892L152.724 0.499795H134.445L136.213 4.40892H141.907V23.9724H147.28V4.40892H154.491Z" fill="#0063B2"/>
</svg>
