<svg width="159" height="52" viewBox="0 0 159 52" fill="none" xmlns="http://www.w3.org/2000/svg">
<g clip-path="url(#clip0_2216_5129)">
<path d="M59.9846 40.1329L57.064 51.7066H53.9372L51.9286 44.4703L49.7192 51.7066H46.6412L43.7967 40.1329H46.4892L48.4055 48.9543L51.2392 40.1329H53.1555L55.6526 48.9543L57.6992 40.1329H59.99H59.9846ZM69.6474 51.9997C64.892 51.9997 62.8943 48.8348 62.8943 45.9197C62.8943 42.3749 65.5543 39.8398 69.6474 39.8398C73.3985 39.8398 76.4005 42.0383 76.4005 45.9197C76.4005 49.2854 74.0011 51.9997 69.6474 51.9997ZM69.6474 41.8212C67.3403 41.8212 65.69 43.5095 65.69 45.9197C65.69 48.482 67.4868 50.0183 69.6474 50.0183C71.9165 50.0183 73.6211 48.3897 73.6211 45.9197C73.6211 43.9329 72.3671 41.8212 69.6474 41.8212ZM88.6961 51.7066H91.7361L88.6527 47.0706C89.1467 46.9131 91.3778 46.2617 91.3778 43.8134C91.3778 41.9569 89.8904 40.1329 86.4162 40.1329H80.9605V51.7066H83.5716V42.0003H86.1013C87.909 42.0003 88.6961 42.8635 88.6961 43.8134C88.6961 44.8612 87.757 45.6212 86.1013 45.6212H84.7604L88.6853 51.7066H88.6961ZM2.82205 48.2323C3.12062 48.634 4.08147 49.9857 6.55688 49.9857C8.3863 49.9857 9.09744 49.3071 9.09744 48.5309C9.09744 47.7546 8.22887 47.3529 6.93145 47.0923C6.66545 47.038 5.88374 46.8806 5.65574 46.8371C4.03804 46.5169 1.49748 45.936 1.49748 43.2597C1.49748 41.072 3.43004 39.8072 6.37231 39.8072C10.0746 39.8072 11.486 41.8972 11.6109 42.0492L9.80858 43.4226C9.56429 43.1077 8.64687 41.794 6.33974 41.794C5.14546 41.794 4.16832 42.2012 4.16832 42.9883C4.16832 44.0035 5.45489 44.226 6.36688 44.4052C6.71974 44.4757 7.37659 44.6006 7.86516 44.6983C9.94972 45.1 11.8334 46.1857 11.8334 48.3246C11.8334 50.686 9.56429 51.9725 6.5786 51.9725C2.66462 51.9725 1.2152 50.0291 0.960056 49.7251L2.81662 48.2377L2.82205 48.2323ZM112.147 48.2323C112.446 48.634 113.407 49.9857 115.882 49.9857C117.712 49.9857 118.423 49.3071 118.423 48.5254C118.423 47.7437 117.554 47.3474 116.257 47.0869C115.991 47.0326 115.209 46.8806 114.981 46.8317C113.363 46.5114 110.823 45.9306 110.823 43.2543C110.823 41.0666 112.755 39.8018 115.698 39.8018C119.4 39.8018 120.811 41.8972 120.936 42.0437L119.134 43.4172C118.884 43.1023 117.972 41.7886 115.665 41.7886C114.471 41.7886 113.494 42.1957 113.494 42.9829C113.494 43.998 114.78 44.2206 115.692 44.3997C116.045 44.4703 116.702 44.5952 117.191 44.6929C119.275 45.0946 121.159 46.1803 121.159 48.3191C121.159 50.6806 118.89 51.9671 115.904 51.9671C111.99 51.9671 110.541 50.0237 110.285 49.7197L112.142 48.2323H112.147ZM102.897 45.5234L107.446 40.1275H104.477L99.8844 45.6157L104.803 51.7011H107.891L102.897 45.518V45.5234ZM98.8366 40.1275H96.2255V51.7011H98.8366V40.1275ZM22.8262 45.5234L27.3753 40.1275H24.4059L19.8134 45.6157L24.7316 51.7011H27.8205L22.8262 45.518V45.5234ZM18.7657 40.1275H16.1491V51.7011H18.7657V40.1275ZM36.6093 47.1249V51.7011H34.0199V47.1249L29.3133 40.1275H32.3642L35.4476 44.986L38.5907 40.1275H41.2398L36.6147 47.1249H36.6093ZM122.999 42.5866V40.844H123.77C123.927 40.844 124.041 40.8603 124.123 40.8929C124.204 40.9255 124.269 40.9798 124.318 41.0612C124.367 41.1426 124.389 41.2295 124.389 41.3218C124.389 41.4466 124.351 41.5497 124.269 41.6366C124.188 41.7235 124.069 41.7777 123.9 41.7995C123.96 41.832 124.009 41.8592 124.041 41.8863C124.107 41.946 124.172 42.0275 124.231 42.1197L124.53 42.592H124.242L124.009 42.2283C123.944 42.1252 123.884 42.0437 123.841 41.9895C123.797 41.9352 123.759 41.8972 123.727 41.8755C123.695 41.8542 123.66 41.8394 123.623 41.832C123.596 41.8266 123.553 41.8212 123.493 41.8212H123.227V42.5975H122.999V42.5866ZM123.227 41.6149H123.721C123.824 41.6149 123.911 41.604 123.971 41.5823C124.031 41.5606 124.074 41.528 124.107 41.4792C124.139 41.4303 124.155 41.3815 124.155 41.3218C124.157 41.2834 124.149 41.2452 124.133 41.2103C124.117 41.1754 124.093 41.1448 124.063 41.1209C124.003 41.0666 123.911 41.0395 123.781 41.0395H123.227V41.6149ZM123.651 43.4389C122.711 43.4389 121.946 42.6735 121.946 41.7343C121.946 40.7952 122.711 40.0298 123.651 40.0298C124.59 40.0298 125.355 40.7952 125.355 41.7343C125.355 42.6735 124.59 43.4389 123.651 43.4389ZM123.651 40.2849C122.853 40.2849 122.207 40.9363 122.207 41.7289C122.207 42.5215 122.853 43.1729 123.651 43.1729C124.449 43.1729 125.095 42.5215 125.095 41.7289C125.095 40.9363 124.449 40.2849 123.651 40.2849Z" fill="white"/>
<path d="M157.573 2.07381C157.573 2.07381 144.17 8.73463 132.803 14.6463H127.021C125.029 13.1969 122.944 11.6932 121.05 10.3632C114.715 5.91179 105.883 0.124966 105.883 0.124966C105.546 -0.0921761 105.492 -0.0107479 105.812 0.233536C105.812 0.233536 114.248 6.5795 120.588 11.0309C122.434 12.3283 124.497 13.7452 126.489 15.0969L125.594 18.468C124.264 19.1791 122.934 19.9011 121.538 20.6611H118.471C113.146 17.0294 107.859 13.566 107.859 13.566C107.473 13.3109 107.403 13.3923 107.783 13.6746C107.783 13.6746 112.467 17.1977 117.467 20.824L116.816 23.2506C107.327 28.4782 98.3532 33.5702 98.3532 33.5702C97.9189 33.8199 97.9569 33.9014 98.4074 33.6734C98.4074 33.6734 108.016 28.9017 117.858 23.8477H121.674C121.973 24.0594 122.266 24.2657 122.554 24.472C123.976 25.4708 125.528 26.5348 127.076 27.588L126.69 29.0428C125.338 29.7811 123.976 30.5465 122.733 31.2522H120.333L119.904 32.8754C118.45 33.7114 117.51 34.2651 117.51 34.2651C116.962 34.5691 117.027 34.6885 117.592 34.4171C117.592 34.4171 118.748 33.8634 120.464 33.0274H122.706L123.048 31.7517C124.388 31.0839 125.843 30.3511 127.276 29.6182H130.067C134.236 32.4248 137.726 34.7156 137.726 34.7156C138.166 35.0088 138.226 34.9165 137.802 34.6071C137.802 34.6071 134.572 32.1751 130.604 29.2708L131.044 27.6151C135.799 25.0257 140.929 22.0128 140.929 22.0128C141.494 21.6817 141.434 21.5786 140.848 21.8608C140.848 21.8608 135.159 24.5751 130.251 27.1428H127.684C126.109 25.9974 124.513 24.852 123.031 23.8151C122.684 23.5708 122.331 23.3266 121.973 23.0768L122.385 21.5243C123.856 20.7643 125.3 20.0097 126.674 19.2823H132.716C134.551 20.4983 135.761 21.2909 135.761 21.2909C136.082 21.4971 136.147 21.4103 135.832 21.1823C135.832 21.1823 134.665 20.3029 132.879 18.9729L133.823 15.4443C144.973 9.38606 157.633 2.19324 157.633 2.19324C158.208 1.8621 158.165 1.79696 157.584 2.0901" fill="#5487B2"/>
</g>
<defs>
<clipPath id="clip0_2216_5129">
<rect width="157.07" height="52" fill="white" transform="translate(0.965225)"/>
</clipPath>
</defs>
</svg>
