<svg width="109" height="13" viewBox="0 0 109 13" fill="none" xmlns="http://www.w3.org/2000/svg">
<mask id="mask0_12_4206" style="mask-type:luminance" maskUnits="userSpaceOnUse" x="0" y="-1" width="109" height="14">
<path d="M109 -0.000244141H0V12.5978H109V-0.000244141Z" fill="white"/>
</mask>
<g mask="url(#mask0_12_4206)">
<path d="M9.0571 4.53492H3.0928C0.839942 4.61762 0.816391 7.56002 3.1163 7.53982H6.0873C7.7168 7.56002 9.0571 8.67362 9.0571 10.0248C9.0571 11.3969 7.7168 12.4902 6.0873 12.5105H0.110352V11.4933H6.0637C8.4108 11.5361 8.3872 8.59362 6.0873 8.53392H3.1163C1.48737 8.51422 0.110352 7.38262 0.110352 6.02252C0.110352 4.60772 1.55912 3.62342 3.1163 3.56372H9.0571V4.53492Z" fill="white"/>
<path d="M21.3953 6.04859C21.3503 5.23359 20.652 4.57739 19.6825 4.53469H16.3243C15.4463 4.57739 14.68 5.23359 14.68 6.04859V10.0252C14.68 10.8205 15.4463 11.5162 16.3467 11.4959H19.7049C20.652 11.5162 21.3503 10.8205 21.3953 10.0252V6.04859ZM22.4995 10.0252C22.477 11.377 21.2605 12.4906 19.7049 12.5103H16.3467C14.8147 12.4906 13.5752 11.377 13.5527 10.0252V6.04859C13.5976 4.69679 14.8147 3.58329 16.3467 3.56299H19.7049C21.2605 3.58329 22.477 4.69679 22.4995 6.04859V10.0252Z" fill="white"/>
<path d="M35.1671 11.4959V12.5103H30.5606C28.9634 12.49 27.714 11.3765 27.6904 10.0247V6.04859C27.714 4.69629 28.9634 3.58329 30.5606 3.56299H35.1671V4.53739L30.5606 4.52809C29.6113 4.55769 28.8478 5.25329 28.8478 6.04859V10.0247C28.8703 10.8797 29.6574 11.4959 30.5381 11.4931L35.1671 11.4959Z" fill="white"/>
<path d="M53.8669 6.04859C53.822 5.23359 53.1237 4.57739 52.1542 4.53469H48.796C47.9179 4.57739 47.1517 5.23359 47.1517 6.04859V10.0252C47.1517 10.8205 47.9179 11.5162 48.8184 11.4959H52.1766C53.1237 11.5162 53.822 10.8205 53.8669 10.0252V6.04859ZM54.9712 10.0252C54.9487 11.377 53.7322 12.4906 52.1766 12.5103H48.8184C47.2864 12.4906 46.0469 11.377 46.0244 10.0252V6.04859C46.0693 4.69679 47.2864 3.58329 48.8184 3.56299H52.1766C53.7322 3.58329 54.9487 4.69679 54.9712 6.04859V10.0252Z" fill="white"/>
<path d="M68.3911 12.5105H67.2869V6.04942C67.2644 5.21352 66.5211 4.57762 65.5741 4.53492H62.2164C61.3154 4.57762 60.5935 5.23382 60.5721 6.04942V12.5105H59.4443V6.04942C59.4668 4.67672 60.6844 3.58342 62.2389 3.56372H65.5965C67.1061 3.58342 68.4136 4.67672 68.3911 6.04942V12.5105Z" fill="white"/>
<path d="M93.856 3.56299H95.233L91.9548 7.44039C91.6672 7.77779 91.6672 8.29489 91.9548 8.65309L95.233 12.5098H93.838L90.7591 8.85139L87.6589 12.5098H86.2852L89.5628 8.65309C89.8509 8.27519 89.8509 7.79809 89.5628 7.44039L86.2852 3.56299H87.6813L90.7591 7.22129L93.856 3.56299Z" fill="white"/>
<path d="M100.827 3.56329V2.04929V0.0900879H99.6692V10.1247C99.6462 11.5176 100.971 12.5101 102.539 12.5101H104.276V11.4962H102.539C101.591 11.4962 100.827 10.9523 100.827 10.1247V6.08669C100.827 5.25959 101.591 4.59299 102.539 4.57279H104.276V3.56329H102.539H100.827Z" fill="white"/>
<path d="M74.1157 5.95879V5.92589C74.199 5.24349 74.7894 4.58509 75.8477 4.53799H78.829C81.1377 4.59709 81.1624 7.55929 78.829 7.53959H78.2035H75.8477H74.1157V5.95879ZM74.1168 10.1474C74.1168 10.1474 74.1179 8.76979 74.1168 8.83989C74.1168 8.67169 74.2625 8.53369 74.4493 8.53369H75.8477H77.0149H78.829C80.4169 8.55399 81.812 7.42069 81.812 6.10829C81.812 4.73679 80.5369 3.58329 78.829 3.56299H75.8477C74.2121 3.58329 72.8888 4.69679 72.8652 6.04859V10.0252C72.8888 11.3967 74.2121 12.4906 75.8477 12.5103H81.812V11.4931H75.8241C74.7341 11.5162 74.1552 10.8589 74.1168 10.1474Z" fill="white"/>
<path d="M41.5509 12.5098H40.3936V3.56299H41.5509V12.5098Z" fill="white"/>
<path d="M107.153 3.70649H106.693V5.12079H106.523V3.70649H106.065V3.56299H107.153V3.70649Z" fill="white"/>
<path d="M108.796 5.12092H108.628L108.59 4.41932C108.577 4.19582 108.561 3.90712 108.563 3.74782H108.557C108.505 3.92362 108.442 4.11642 108.366 4.33332L108.088 5.11492H107.963L107.703 4.34922C107.628 4.12412 107.568 3.92802 107.525 3.74782H107.519C107.515 3.93782 107.503 4.19582 107.489 4.43572L107.445 5.12092H107.283L107.392 3.56152H107.601L107.875 4.35362C107.94 4.54802 107.991 4.71342 108.032 4.87502H108.039C108.078 4.71782 108.131 4.55402 108.201 4.35362L108.485 3.56152H108.697L108.796 5.12092Z" fill="white"/>
</g>
</svg>
