<svg width="154" height="51" viewBox="0 0 154 51" fill="none" xmlns="http://www.w3.org/2000/svg">
<path d="M71.8666 7.36523C65.4088 7.36523 63.06 10.2169 63.06 15.6677V17.5965H60.4178V23.4672H63.06V38.4375H70.6922V23.4672H74.2566V17.5965H70.6922V15.6259C70.6922 14.1169 71.3626 13.5718 72.8305 13.5718C73.3755 13.5718 74.1302 13.6548 74.7592 13.9067L75.2214 7.70108C74.1305 7.44914 72.9566 7.36523 71.8666 7.36523ZM85.7326 9.68252L78.1008 11.7376V17.6083H75.4586V23.479H78.1008V32.0333C78.1008 37.443 79.7367 38.952 84.8105 38.952C86.4035 38.952 88.1232 38.695 89.6323 38.318L89.6273 32.335C88.9983 32.5021 88.165 32.6204 87.494 32.6204C86.2352 32.6204 85.7325 32.0336 85.7325 30.4817V23.479H89.6323V17.6083H85.7325L85.7326 9.68252ZM31.0925 17.0566C24.3408 17.0566 21.4475 20.3693 21.4475 24.3111C21.4475 31.0627 27.8448 29.982 28.1567 32.1946C28.2244 32.6736 27.8068 33.1989 26.512 33.2212C25.003 33.2461 23.555 32.9694 22.2019 32.6018L22.0415 38.607C23.8162 38.7981 24.8864 38.9671 26.5634 38.9465C32.4649 38.8728 36.4445 36.2181 36.292 31.6079C36.0812 25.2316 29.3997 25.4554 29.4151 23.7244C29.4194 23.1588 29.9053 22.7609 30.9662 22.76C32.0921 22.7591 33.2877 22.9179 34.4069 23.1836L34.585 17.3238C33.3785 17.179 32.1825 17.0566 31.0925 17.0566ZM49.0473 17.1197C42.6315 17.1197 37.6417 21.5645 37.6417 28.6512C37.6417 36.1578 41.7506 38.9669 47.9993 38.9669C54.289 38.9669 59.3626 34.5221 59.3626 27.5614C59.3626 20.9357 55.8829 17.1197 49.0473 17.1197ZM48.586 23.6612C50.6829 23.6612 51.4382 25.0453 51.4382 28.0222C51.4382 30.6221 50.3892 32.3418 48.4183 32.3418C46.3634 32.3418 45.5666 31.042 45.5666 27.8132C45.5666 24.8774 47.0761 23.6612 48.586 23.6612Z" fill="#009FE3"/>
<path d="M98.6888 16.0081C96.1617 16.0081 94.0974 14.0286 94.0974 11.5847C94.0974 9.14159 96.1617 7.16211 98.6888 7.16211C101.216 7.16211 103.28 9.14159 103.28 11.5847C103.28 14.0286 101.216 16.0081 98.6888 16.0081ZM94.8549 38.545V23.3801C93.8446 23.2113 92.4127 23.0425 91.1907 22.9585V17.9455C94.687 17.5668 98.436 17.44 102.522 17.5668V38.545H94.8549Z" stroke="#009FE3" stroke-width="0.824354" stroke-miterlimit="10"/>
<path d="M120.719 38.5453V25.3179C120.719 24.2648 120.424 23.5912 119.54 23.5912C117.855 23.5912 116.254 26.0343 116.254 28.3514V38.5453H108.588V23.3804C107.577 23.2116 106.145 23.0437 104.923 22.9588V17.9459C108.419 17.5671 112.168 17.4411 115.664 17.5671C115.664 18.1567 115.622 19.4626 115.453 20.3898H115.496C116.802 18.5363 118.992 17.1035 122.194 17.1035C126.827 17.1035 128.386 20.137 128.386 23.7172V38.5453H120.719ZM143.867 23.491C143.532 23.407 143.112 23.323 142.399 23.323C140.638 23.323 139.128 24.497 139.128 28.5228C139.128 31.5426 139.799 32.6326 141.141 32.6326C142.567 32.6326 143.867 31.0807 143.867 27.5588V23.491ZM139.003 48.6509C136.654 48.6509 134.222 48.3158 132.252 47.7708L132.838 40.8932C134.809 41.7322 137.241 42.2352 139.254 42.2352C142.567 42.2352 143.993 41.1452 143.993 38.7132V38.4193C143.993 37.8743 143.993 37.2873 144.16 36.2804H144.076C143.07 38.0003 141.141 39.0063 138.835 39.0063C133.761 39.0063 131.078 35.5255 131.078 29.3617C131.078 22.736 134.977 17.2012 142.986 17.2012C146.613 17.2012 148.714 17.4334 151.499 17.9142V37.8743C151.499 44.0381 148.648 48.6509 139.003 48.6509Z" stroke="#009FE3" stroke-width="0.846633" stroke-miterlimit="10"/>
<path d="M7.12661 7.04937C7.12661 4.674 5.83438 3.79994 4.25594 3.79994C2.3116 3.79994 1.16333 5.33982 1.16333 7.19333C1.16333 9.4633 2.28503 10.5207 4.02115 10.5207C5.93893 10.5207 7.12661 8.98086 7.12661 7.04937ZM6.10859 7.11449C6.10859 8.90202 5.18227 9.68524 4.16425 9.68524C2.88573 9.68524 2.18049 8.77177 2.18049 7.11449C2.18049 5.37924 3.14623 4.60887 4.16425 4.60887C5.45648 4.60887 6.10859 5.54891 6.10859 7.11449ZM15.0188 6.86685C15.0188 4.85738 14.1448 3.79994 12.6314 3.79994C11.5869 3.79994 10.7651 4.40064 10.4 5.33982L10.3735 5.32695C10.4652 4.94819 10.478 4.30894 10.478 3.91732C9.82504 3.89161 8.96384 3.93019 8.38971 4.00901V4.57029C8.76846 4.596 9.21235 4.64828 9.52512 4.70055V13.6528H10.4909V10.3896C10.9219 10.4685 11.2612 10.4813 11.7043 10.4813C13.7403 10.4813 15.0188 9.18909 15.0188 6.86685ZM13.9879 6.94481C13.9879 8.90201 13.101 9.71179 11.7694 9.71179C11.2741 9.71179 10.8825 9.65952 10.4909 9.54212V7.2713C10.4909 6.12303 11.1301 4.60885 12.4224 4.60885C13.4926 4.60885 13.9879 5.48377 13.9879 6.94481ZM20.3403 10.3639L20.2229 9.54212C19.9752 9.60725 19.6753 9.64581 19.3488 9.64581C18.5793 9.64581 18.3702 9.34589 18.3702 8.18476V4.68769H20.2751V3.91732H18.3702V1.49053L17.3916 1.76475V3.91732H15.982V4.68769H17.3916V8.58923C17.3916 9.93288 17.7695 10.507 19.0746 10.507C19.4791 10.507 19.9752 10.4419 20.3403 10.3639ZM23.7842 1.82989C23.7842 1.45113 23.4834 1.16406 23.1055 1.16406C22.7396 1.16406 22.4397 1.46398 22.4397 1.82989C22.4397 2.20779 22.7396 2.49485 23.1055 2.49485C23.4834 2.49485 23.7842 2.19493 23.7842 1.82989ZM23.588 10.4033V3.91734C22.923 3.89163 22.061 3.9302 21.4868 4.00903V4.5703C21.8656 4.59601 22.3095 4.64828 22.6222 4.70056V10.4033H23.588ZM35.7622 10.4033V5.91395C35.7622 4.45291 35.0698 3.79994 33.8436 3.79994C32.5256 3.79994 31.8341 4.73997 31.5864 5.35267C31.5599 4.85737 31.2471 3.79994 29.7852 3.79994C28.7149 3.79994 27.8666 4.42634 27.4887 5.37923L27.4758 5.36637C27.5409 4.94819 27.5795 4.3355 27.5795 3.91732C26.9145 3.89161 26.0533 3.93019 25.4792 4.00901V4.57029C25.8571 4.596 26.301 4.64827 26.6146 4.70054V10.4033H27.5795V7.32356C27.5795 5.73141 28.4544 4.60885 29.5375 4.60885C30.529 4.60885 30.6987 5.32695 30.6987 6.21385V10.4033H31.6773V7.32356C31.6773 5.63972 32.6173 4.60885 33.6216 4.60885C34.5616 4.60885 34.7827 5.24811 34.7827 6.22757V10.4033L35.7622 10.4033ZM39.9465 1.82989C39.9465 1.45113 39.6466 1.16406 39.2678 1.16406C38.9028 1.16406 38.6029 1.46398 38.6029 1.82989C38.6029 2.20779 38.9028 2.49485 39.2678 2.49485C39.6466 2.49485 39.9465 2.19493 39.9465 1.82989ZM39.7511 10.4033V3.91734C39.0853 3.89163 38.2241 3.9302 37.65 4.00903V4.5703C38.0287 4.59601 38.4718 4.64828 38.7854 4.70056V10.4033H39.7511ZM46.4042 10.4033V9.50272H44.9432C44.3296 9.50272 43.4556 9.51559 43.064 9.52843L46.3391 4.59602V3.91734H41.9808V4.79225H43.3776C44.1077 4.79225 44.7992 4.77854 45.2174 4.76569L41.9157 9.71182V10.4033L46.4042 10.4033ZM53.2279 6.42296C53.2279 5.01333 52.4969 3.79994 50.7085 3.79994C48.9081 3.79994 47.8507 5.26184 47.8507 7.19333C47.8507 9.4633 48.8953 10.5207 50.8268 10.5207C51.6357 10.5207 52.3924 10.3639 53.0316 10.1163L52.862 9.32019C52.3007 9.56784 51.6486 9.69809 51.0222 9.69809C49.5603 9.69809 48.8036 8.91573 48.8687 7.00995H53.2013C53.2278 6.77515 53.2279 6.55321 53.2279 6.42296ZM52.2098 6.29271H48.921C49.0778 5.23527 49.7299 4.55659 50.6434 4.55659C51.6357 4.55659 52.2355 5.24813 52.2098 6.29271ZM56.9966 1.25576H55.8217L56.0051 8.31503H56.814L56.9966 1.25576ZM57.1011 9.8292C57.1011 9.43759 56.8003 9.13767 56.4096 9.13767C56.018 9.13767 55.718 9.43759 55.718 9.8292C55.718 10.2071 56.018 10.507 56.4096 10.507C56.8003 10.507 57.1011 10.2071 57.1011 9.8292Z" fill="white"/>
</svg>
