<svg width="125" height="50" viewBox="0 0 125 50" fill="none" xmlns="http://www.w3.org/2000/svg">
<path d="M21.9134 12.0001C25.1379 11.9863 27.773 14.3845 28.0617 17.5197C28.0978 17.9108 28.1037 18.3013 28.0985 18.6918C28.0952 18.8999 28.1556 18.9649 28.3702 18.9688C29.2372 18.9839 30.097 19.0719 30.9351 19.3068C33.2945 19.9677 34.7056 21.5357 35.2208 23.8951C35.7347 26.2506 34.8172 28.9888 32.1585 30.39C31.577 30.6965 30.9679 30.9315 30.3365 31.1172C30.1252 31.1795 30.0766 31.1264 30.0346 30.9334C29.6946 29.3629 29.0029 27.9662 27.9193 26.7744C26.5949 25.3167 24.918 24.5403 22.9884 24.2587C22.1956 24.1432 21.3883 24.1859 20.6014 24.0008C18.0628 23.4042 16.1857 21.2712 15.9337 18.6754C15.6134 15.3709 17.944 12.468 21.2531 12.0434C21.4986 12.0119 21.7434 12.0112 21.9134 12.0001Z" fill="#CE3737"/>
<path d="M27.4563 32.6545C27.4511 35.7175 25.2491 38.2457 22.1986 38.6919C18.9872 39.1619 15.8881 36.8989 15.3526 33.6935C15.262 33.152 15.2692 32.6046 15.2607 32.0599C15.2567 31.8118 15.1839 31.7639 14.9496 31.7619C13.5759 31.7534 12.241 31.5375 11.0183 30.8733C9.46213 30.0273 8.57545 28.672 8.16854 26.9859C7.48072 24.1349 8.94627 21.2878 11.6877 20.1091C12.1314 19.9181 12.5823 19.7507 13.0476 19.6181C13.2051 19.5728 13.2793 19.5886 13.318 19.7704C13.6547 21.3521 14.3484 22.7573 15.4359 23.9596C16.6265 25.2762 18.1222 26.0454 19.8509 26.3946C20.4968 26.5252 21.1511 26.5632 21.8048 26.5993C24.5882 26.7536 27.0126 28.9883 27.3946 31.7567C27.436 32.0553 27.4583 32.3539 27.4557 32.6552L27.4563 32.6545Z" fill="#CE3737"/>
<path d="M96.6133 30.4606C95.5987 30.4606 94.6129 30.456 93.6278 30.4652C93.4683 30.4665 93.4066 30.3944 93.3403 30.2742C92.6695 29.0535 91.9765 27.8459 91.181 26.7C90.6094 25.8763 90.6159 25.871 89.615 25.871C89.3131 25.871 89.1622 26.0226 89.1622 26.3259C89.1622 27.6201 89.1576 28.9144 89.1674 30.2086C89.1687 30.4134 89.1162 30.4692 88.9108 30.4659C88.1173 30.4534 87.3232 30.456 86.5297 30.4646C86.363 30.4665 86.3164 30.4259 86.3164 30.2539C86.3217 26.2635 86.3203 22.2731 86.319 18.2834C86.319 18.1561 86.3184 18.0668 86.4903 18.0399C88.4901 17.7288 90.4919 17.5824 92.4943 17.9992C93.3423 18.1757 94.1318 18.4986 94.7829 19.0939C95.4431 19.6971 95.7549 20.4722 95.8323 21.3418C95.915 22.2731 95.8422 23.1841 95.2836 23.9854C94.8872 24.5538 94.3471 24.9502 93.7196 25.2272C93.5254 25.3125 93.5339 25.3663 93.6553 25.5252C94.7999 27.0189 95.7536 28.6302 96.5615 30.3281C96.5766 30.3596 96.5877 30.3937 96.6146 30.46L96.6133 30.4606ZM89.1622 21.9036C89.1622 22.4136 89.1609 22.9229 89.1635 23.4328C89.1635 23.5129 89.1208 23.6277 89.2751 23.6271C90.1572 23.6238 91.0458 23.6645 91.8977 23.3757C92.5967 23.1388 92.9288 22.6407 92.9327 21.8787C92.9366 21.1416 92.6026 20.6533 91.9036 20.4085C91.0596 20.1132 90.186 20.1493 89.3118 20.2044C89.1701 20.2136 89.1589 20.2891 89.1602 20.402C89.1642 20.9027 89.1622 21.4028 89.1615 21.9036H89.1622Z" fill="white"/>
<path d="M80.8812 21.1269C80.8812 19.7572 80.8852 18.4367 80.8773 17.1155C80.876 16.9029 80.9035 16.8018 81.1556 16.7697C81.8874 16.6758 82.6139 16.5445 83.3411 16.4179C83.5229 16.3864 83.5931 16.408 83.5925 16.6207C83.5866 21.058 83.5879 25.4954 83.5885 29.9334C83.5885 30.064 83.5977 30.1624 83.4146 30.207C81.865 30.5851 80.301 30.8122 78.7049 30.6304C76.5574 30.3856 75.0171 28.834 74.7683 26.6885C74.6147 25.3628 74.7079 24.0659 75.3144 22.8524C75.9897 21.5023 77.1146 20.8231 78.6084 20.724C79.3835 20.6728 80.1324 20.7837 80.8819 21.1282L80.8812 21.1269ZM80.8819 25.8432C80.8819 25.0963 80.876 24.3488 80.8865 23.6019C80.8891 23.4273 80.8274 23.3387 80.6725 23.2724C80.2026 23.0722 79.715 22.9836 79.207 23.0158C78.4916 23.0604 77.9738 23.4076 77.7257 24.0803C77.3699 25.0425 77.364 26.027 77.6961 26.995C77.977 27.8135 78.548 28.3182 79.44 28.3845C79.8488 28.4147 80.259 28.3923 80.6686 28.3444C80.8537 28.3228 80.8871 28.2486 80.8858 28.0845C80.8786 27.3376 80.8825 26.5901 80.8825 25.8432H80.8819Z" fill="white"/>
<path d="M46.1361 30.7276C44.7992 30.7001 43.4577 30.5051 42.2068 29.8757C42.0492 29.7963 41.9921 29.7359 42.0637 29.5489C42.3 28.9287 42.5159 28.3012 42.7311 27.6731C42.7777 27.5373 42.825 27.513 42.9576 27.5806C44.1416 28.1864 45.4063 28.3701 46.7202 28.2796C46.9762 28.2619 47.2217 28.2008 47.4658 28.1201C48.4214 27.8064 48.4398 26.6342 47.8458 26.1256C47.5085 25.8361 47.1114 25.655 46.7084 25.4856C45.9694 25.1759 45.195 24.9586 44.4678 24.618C43.9263 24.364 43.4419 24.0378 43.0252 23.6033C41.683 22.2047 41.8714 19.0833 44.431 18.0417C45.4732 17.6177 46.5542 17.5574 47.6535 17.6315C48.6012 17.6952 49.4938 17.9682 50.3569 18.3574C50.5433 18.4414 50.5656 18.5274 50.498 18.7046C50.2729 19.29 50.053 19.8781 49.8495 20.4721C49.7826 20.6663 49.7183 20.7044 49.5286 20.6086C48.5166 20.0993 47.4468 19.9155 46.3212 20.0671C46.1302 20.0927 45.9425 20.1295 45.7653 20.2036C45.0729 20.4911 44.8976 21.3594 45.4227 21.8976C45.6957 22.1772 46.0383 22.3471 46.3967 22.4876C47.3286 22.8519 48.2823 23.1616 49.1729 23.6256C50.1495 24.1343 50.8734 24.8576 51.0742 25.9785C51.2842 27.1514 51.2337 28.2927 50.433 29.2693C49.7997 30.0418 48.9268 30.3883 47.9751 30.5721C47.3825 30.6869 46.7813 30.7184 46.1368 30.7276H46.1361Z" fill="white"/>
<path d="M57.4521 20.6667C59.9533 20.6719 61.835 22.4079 62.0686 24.9025C62.1848 26.1443 62.0706 27.3453 61.4622 28.4532C60.712 29.821 59.5208 30.5311 57.983 30.6912C57.2572 30.7667 56.5451 30.709 55.85 30.4812C54.6391 30.0848 53.7642 29.3018 53.2399 28.15C52.5763 26.691 52.5258 25.1828 53.0521 23.6798C53.7196 21.7759 55.3834 20.6614 57.4521 20.666V20.6667ZM59.341 25.6698C59.3429 25.0909 59.2753 24.5166 59.0089 23.9811C58.6873 23.3353 58.1727 22.9894 57.4455 22.9828C56.7216 22.9763 56.1591 23.2847 55.8566 23.9397C55.3191 25.1014 55.3256 26.2887 55.871 27.4471C56.1775 28.0975 56.7295 28.406 57.4606 28.3961C58.1747 28.3863 58.6663 28.0404 58.9872 27.4261C59.2727 26.8794 59.3416 26.2854 59.3416 25.6704L59.341 25.6698Z" fill="white"/>
<path d="M108.745 25.8336C108.745 24.4035 108.75 22.9733 108.738 21.5432C108.736 21.3201 108.797 21.2223 109.016 21.1711C110.462 20.8338 111.923 20.6474 113.409 20.7307C114.261 20.7786 115.07 20.986 115.744 21.5426C116.518 22.1812 116.807 23.0613 116.933 24.0156C117.037 24.8058 116.986 25.5999 116.991 26.3921C116.999 27.6686 116.989 28.9452 116.997 30.2217C116.999 30.41 116.953 30.4678 116.758 30.4645C116.019 30.4527 115.28 30.452 114.541 30.4645C114.333 30.4685 114.285 30.4127 114.287 30.2072C114.296 28.615 114.295 27.0235 114.289 25.4312C114.288 24.9849 114.265 24.5387 114.158 24.1015C113.976 23.3671 113.583 23.0442 112.823 23.0167C112.44 23.0029 112.059 23.0285 111.677 23.0679C111.499 23.0862 111.452 23.142 111.453 23.3159C111.461 24.4284 111.457 25.5408 111.457 26.6526C111.457 27.8379 111.452 29.0233 111.462 30.2086C111.464 30.412 111.415 30.4685 111.207 30.4645C110.487 30.4507 109.765 30.4481 109.045 30.4652C108.808 30.4711 108.738 30.412 108.74 30.1705C108.751 28.7246 108.745 27.2781 108.745 25.8323V25.8336Z" fill="white"/>
<path d="M106.207 25.552C106.207 26.992 106.202 28.4319 106.212 29.8712C106.213 30.0872 106.145 30.1607 105.938 30.2079C104.448 30.5518 102.947 30.754 101.412 30.6385C99.4652 30.4921 98.2602 29.3271 98.0351 27.374C97.9596 26.7189 97.9708 26.0639 97.9701 25.4083C97.9675 23.9952 97.9727 22.5822 97.9649 21.1692C97.9636 20.9788 98.0121 20.9224 98.2064 20.925C98.9454 20.9362 99.6851 20.9381 100.423 20.925C100.631 20.9211 100.679 20.9801 100.678 21.1823C100.671 22.8414 100.672 24.5006 100.678 26.1591C100.679 26.5417 100.723 26.9218 100.822 27.2939C101.018 28.0237 101.436 28.363 102.198 28.3722C102.544 28.3768 102.89 28.3309 103.236 28.325C103.463 28.3217 103.513 28.2206 103.513 28.0073C103.505 25.7469 103.511 23.4866 103.502 21.2263C103.502 20.9985 103.538 20.9145 103.793 20.9224C104.504 20.9434 105.216 20.9401 105.928 20.9237C106.156 20.9184 106.217 20.9782 106.215 21.2046C106.205 22.6531 106.209 24.1022 106.209 25.5507C106.209 25.5507 106.208 25.5507 106.207 25.5507V25.552Z" fill="white"/>
<path d="M66.8818 21.8053C66.8818 23.3995 66.8811 24.993 66.8818 26.5872C66.8818 26.8051 66.8831 27.023 66.9146 27.2409C67.0176 27.9524 67.3327 28.2982 68.0533 28.377C68.3559 28.4098 68.3736 28.5122 68.3211 28.7675C68.2056 29.3287 68.1202 29.8957 68.0283 30.4615C68.01 30.5737 67.987 30.6459 67.8485 30.6426C67.0964 30.6282 66.3561 30.5474 65.6604 30.237C64.8328 29.8681 64.3806 29.2197 64.2506 28.3324C64.2014 27.9983 64.1804 27.6636 64.181 27.3256C64.1817 23.9246 64.183 20.5229 64.1758 17.1219C64.1758 16.8928 64.2217 16.8003 64.4737 16.7674C65.1957 16.6736 65.9137 16.5456 66.6304 16.417C66.8378 16.3796 66.8883 16.4262 66.887 16.6401C66.8778 18.3616 66.8818 20.0831 66.8818 21.8047V21.8053Z" fill="white"/>
<path d="M72.6286 25.6773C72.6286 27.1809 72.6227 28.6845 72.6345 30.1875C72.6365 30.4231 72.5662 30.4691 72.3457 30.4651C71.6166 30.4507 70.8861 30.4533 70.1569 30.4638C69.9666 30.4664 69.9115 30.4146 69.9121 30.2216C69.918 27.2052 69.918 24.1888 69.9121 21.1724C69.9121 20.9906 69.9462 20.9197 70.1477 20.923C70.8953 20.9354 71.6435 20.9341 72.3917 20.923C72.584 20.9203 72.6338 20.9748 72.6332 21.1658C72.6253 22.6694 72.6286 24.173 72.6286 25.676V25.6773Z" fill="white"/>
<path d="M69.6465 18.1933C69.6413 17.2535 70.3146 16.5775 71.2578 16.5762C72.2075 16.5749 72.8894 17.2456 72.8887 18.1789C72.8881 19.1089 72.2015 19.7849 71.2591 19.7836C70.3291 19.7823 69.6524 19.1148 69.6472 18.1933H69.6465Z" fill="white"/>
</svg>
