<svg width="37" height="46" viewBox="0 0 37 46" fill="none" xmlns="http://www.w3.org/2000/svg">
<path d="M1.68681 33.5712V33.8012C1.68681 34.2969 1.82561 34.6736 2.35701 34.6736C2.88831 34.6736 3.0549 34.2771 3.0549 33.8805C3.0549 32.4807 0.235405 33.2659 0.235405 30.8152C0.235405 29.7683 0.794505 28.8879 2.3847 28.8879C3.9749 28.8879 4.4785 29.681 4.4785 30.6803V30.835H2.97561C2.99541 30.5971 2.9498 30.3591 2.8447 30.145C2.7456 29.9852 2.5632 29.8972 2.3768 29.919C1.9802 29.919 1.7621 30.145 1.7621 30.6248C1.7621 31.9929 4.5816 31.3029 4.5816 33.6148C4.5816 35.1059 3.75281 35.7007 2.34111 35.7007C1.23871 35.7007 0.199707 35.3597 0.199707 33.9916V33.5712H1.68681ZM7.50021 35.7007C5.46991 35.7007 5.19231 34.3802 5.19231 32.2943C5.19231 30.2084 5.46991 28.8879 7.50021 28.8879C9.68131 28.8879 9.80021 30.4741 9.80021 32.2943C9.80021 34.1145 9.68131 35.7007 7.50021 35.7007ZM7.50021 34.6736C8.12681 34.6736 8.21801 34.0947 8.21801 32.2943C8.21801 30.494 8.12681 29.915 7.50021 29.915C6.87371 29.915 6.80231 30.49 6.80231 32.2943C6.80231 34.0986 6.8816 34.6736 7.4883 34.6736H7.50021ZM10.6092 29.0148H12.1518V34.3207H14.3844V35.5698H10.6092V29.0148ZM17.0175 35.7007C14.9911 35.7007 14.7135 34.3802 14.7135 32.2943C14.7135 30.2084 14.9911 28.8879 17.0175 28.8879C19.2025 28.8879 19.3214 30.4741 19.3214 32.2943C19.3214 34.1145 19.2025 35.7007 17.0175 35.7007ZM17.0175 34.6736C17.6401 34.6736 17.7313 34.0947 17.7313 32.2943C17.7313 30.494 17.6401 29.915 17.0175 29.915C16.3949 29.915 16.3195 30.49 16.3195 32.2943C16.3195 34.0986 16.4028 34.6736 17.0096 34.6736H17.0175ZM20.178 29.0148H22.4344L23.2275 33.3214L24.0206 29.0148H26.2532V35.5698H24.8414V30.4662L23.8223 35.5698H22.6327L21.5699 30.4662V35.5698H20.178V29.0148ZM29.4296 35.7007C27.4032 35.7007 27.1256 34.3802 27.1256 32.2943C27.1256 30.2084 27.4032 28.8879 29.4296 28.8879C31.6145 28.8879 31.7335 30.4741 31.7335 32.2943C31.7335 34.1145 31.6145 35.7007 29.4296 35.7007ZM29.4296 34.6736C30.0521 34.6736 30.1433 34.0947 30.1433 32.2943C30.1433 30.494 30.0521 29.915 29.4296 29.915C28.807 29.915 28.7316 30.49 28.7316 32.2943C28.7316 34.0986 28.8149 34.6736 29.4216 34.6736H29.4296ZM32.5425 29.0148H34.3032L35.5682 33.2778V29.0148H36.9997V35.5698H35.2549L33.9066 31.0571V35.5698H32.5425V29.0148ZM3.64581 42.8822V43.1083C3.64581 43.6079 3.7845 43.9807 4.3199 43.9807C4.8552 43.9807 5.0139 43.5841 5.0139 43.1876C5.0139 41.7719 2.1944 42.561 2.1944 40.1103C2.1944 39.0634 2.7575 38.1791 4.3437 38.1791C5.9299 38.1791 6.4375 38.9722 6.4375 39.9716V40.1302H4.95831C4.97701 39.893 4.93341 39.6551 4.83141 39.4402C4.73311 39.2796 4.55071 39.1903 4.36351 39.2102C3.96701 39.2102 3.74891 39.4402 3.74891 39.916C3.74891 41.2881 6.56441 40.5981 6.56441 42.91C6.56441 44.3971 5.7395 44.9959 4.3278 44.9959C3.2056 44.9959 2.16661 44.6548 2.16661 43.2867V42.8664L3.64581 42.8822ZM8.40831 42.3033L6.74681 38.3378H8.45201L9.1856 40.7726H9.20541L9.9589 38.3378H11.6085L9.9509 42.3033V44.8809H8.40831V42.3033ZM13.1709 42.8822V43.1083C13.1709 43.6079 13.3097 43.9807 13.8411 43.9807C14.3725 43.9807 14.539 43.5841 14.539 43.1876C14.539 41.7719 11.7235 42.561 11.7235 40.1103C11.7235 39.0634 12.2827 38.1791 13.8689 38.1791C15.4551 38.1791 15.9627 38.9722 15.9627 39.9716V40.1302H14.4756C14.4942 39.893 14.4506 39.6551 14.3487 39.4402C14.2495 39.2804 14.0679 39.1911 13.8808 39.2102C13.4842 39.2102 13.2621 39.4402 13.2621 39.916C13.2621 41.2881 16.0816 40.5981 16.0816 42.91C16.0816 44.3971 15.2568 44.9959 13.8411 44.9959C12.7228 44.9959 11.6839 44.6548 11.6839 43.2867V42.8664L13.1709 42.8822ZM17.7828 39.575H16.4028V38.3259H20.7014V39.575H19.3214V44.8809H17.7828V39.575ZM21.217 38.3259H25.0239V39.575H22.7754V40.8797H24.889V42.1288H22.7754V43.6555H25.127V44.9007H21.217V38.3259ZM28.569 40.6021C28.569 39.6464 28.458 39.226 27.9464 39.226C27.3278 39.226 27.2763 39.8129 27.2763 41.53C27.2763 43.4771 27.3397 43.9807 27.9821 43.9807C28.5492 43.9807 28.6166 43.3303 28.6246 42.3112H30.1116V42.5412C30.1116 43.9529 29.7151 45.0117 27.8077 45.0117C25.8249 45.0117 25.6782 43.5326 25.6782 41.5578C25.6782 39.8764 25.7694 38.195 27.9544 38.195C29.3146 38.195 30.0561 38.7859 30.0561 40.3284V40.6021H28.569ZM30.754 38.3259H32.2966V40.7766H33.5299V38.3259H35.0725V44.8809H33.5299V42.0693H32.2966V44.869H30.754V38.3259Z" fill="white"/>
<path d="M35.0531 6.70483C35.1641 8.25531 34.716 9.98431 33.6255 11.7926C29.9018 17.9828 20.1665 22.7612 11.8468 22.4638C8.71009 22.3528 6.23169 21.5279 4.56219 20.2114C5.86289 20.485 10.4113 20.1519 13.6829 18.8433C16.5131 17.6536 18.9963 15.7672 20.9001 13.359C20.9001 13.359 16.3755 12.5143 9.86409 13.1488C4.70889 13.6484 2.32959 14.0767 2.32959 14.0767C2.32959 14.0767 4.85169 13.0338 6.90579 12.3557C10.225 11.2414 13.0722 10.5038 18.1044 9.25861C24.3105 7.72397 31.5951 6.99035 35.0531 6.70483Z" fill="#FF7129"/>
<path d="M25.3572 0.0349515C29.3029 0.189611 32.2056 1.45461 33.7641 3.40961C31.9479 3.66736 27.9189 3.07254 17.4579 6.47495C11.236 8.50133 2.63477 12.8872 2.63477 12.8872C3.62017 11.9041 4.68097 11 5.80717 10.1827C6.71917 9.46893 9.83607 7.53374 10.5301 7.13719C12.5842 5.98323 16.2642 4.15512 16.2642 4.15512C14.9969 4.05876 13.7223 4.11864 12.4692 4.33357C10.316 4.72616 9.75287 4.90064 8.95977 5.19012C13.5716 1.9265 19.8054 -0.163329 25.3572 0.0349515Z" fill="#FF7129"/>
</svg>
