<svg width="125" height="50" viewBox="0 0 125 50" fill="none" xmlns="http://www.w3.org/2000/svg">
<path d="M16.8837 28.9379H15.201V31.8438H16.8837V28.9379Z" fill="#3E944F"/>
<path d="M14.422 14.8212H12.7392V17.7271H14.422V14.8212Z" fill="#3E944F"/>
<path d="M23.3228 21.2599H20.4169V22.9427H23.3228V21.2599Z" fill="#3E944F"/>
<path d="M23.3228 23.7218H20.4169V25.4046H23.3228V23.7218Z" fill="#3E944F"/>
<path d="M17.6628 17.7271H20.4168V20.4811H23.3227V14.8212H17.6628V17.7271Z" fill="#3E944F"/>
<path d="M14.422 28.9379H12.7392V31.8438H14.422V28.9379Z" fill="#3E944F"/>
<path d="M9.20603 23.7218H6.30011V25.4046H9.20603V23.7218Z" fill="#3E944F"/>
<path d="M11.96 28.9377H9.20603V26.1837H6.30011V31.8436H11.96V28.9377Z" fill="#3E944F"/>
<path d="M20.4168 26.1837V28.9377H17.6628V31.8436H23.3227V26.1837H20.4168Z" fill="#3E944F"/>
<path d="M9.20603 21.2599H6.30011V22.9427H9.20603V21.2599Z" fill="#3E944F"/>
<path d="M16.8837 14.8212H15.201V17.7271H16.8837V14.8212Z" fill="#3E944F"/>
<path d="M9.20603 20.4811V17.7271H11.96V14.8212H6.30011V20.4811H9.20603Z" fill="#3E944F"/>
<path d="M9.98511 19.0944V27.5707C9.98511 27.894 10.2461 28.1589 10.5733 28.1589H19.0496C19.3729 28.1589 19.6378 27.8979 19.6378 27.5707V19.0944C19.6378 18.7711 19.3768 18.5062 19.0496 18.5062H10.5733C10.25 18.5062 9.98511 18.7672 9.98511 19.0944ZM11.4887 27.3798C11.0875 27.3798 10.7642 27.0565 10.7642 26.6553C10.7642 26.2541 11.0875 25.9307 11.4887 25.9307C11.8899 25.9307 12.2132 26.2541 12.2132 26.6553C12.2132 27.0565 11.8899 27.3798 11.4887 27.3798Z" fill="#436475"/>
<path d="M54.5392 15.088H57.5569L62.8037 27.8991H62.9968L68.2436 15.088H71.2613V31.5686H68.8954V19.6427H68.7425L63.882 31.5445H61.9185L57.058 19.6347H56.9051V31.5686H54.5392V15.088Z" fill="#E7AF1B"/>
<path d="M47.0316 31.8185C45.8728 31.8185 44.8616 31.5529 43.9978 31.0218C43.1341 30.4907 42.4635 29.7477 41.986 28.7927C41.5086 27.8378 41.2698 26.7219 41.2698 25.4451C41.2698 24.1629 41.5086 23.0417 41.986 22.0814C42.4635 21.1211 43.1341 20.3754 43.9978 19.8443C44.8616 19.3132 45.8728 19.0476 47.0316 19.0476C48.1904 19.0476 49.2017 19.3132 50.0654 19.8443C50.9291 20.3754 51.5997 21.1211 52.0772 22.0814C52.5547 23.0417 52.7934 24.1629 52.7934 25.4451C52.7934 26.7219 52.5547 27.8378 52.0772 28.7927C51.5997 29.7477 50.9291 30.4907 50.0654 31.0218C49.2017 31.5529 48.1904 31.8185 47.0316 31.8185ZM47.0397 29.7986C47.7907 29.7986 48.4131 29.6002 48.9066 29.2032C49.4002 28.8062 49.765 28.2777 50.001 27.6179C50.2424 26.958 50.3632 26.2311 50.3632 25.4371C50.3632 24.6484 50.2424 23.9242 50.001 23.2643C49.765 22.5991 49.4002 22.0653 48.9066 21.6629C48.4131 21.2606 47.7907 21.0594 47.0397 21.0594C46.2832 21.0594 45.6556 21.2606 45.1566 21.6629C44.6631 22.0653 44.2956 22.5991 44.0542 23.2643C43.8181 23.9242 43.7001 24.6484 43.7001 25.4371C43.7001 26.2311 43.8181 26.958 44.0542 27.6179C44.2956 28.2777 44.6631 28.8062 45.1566 29.2032C45.6556 29.6002 46.2832 29.7986 47.0397 29.7986Z" fill="#E7AF1B"/>
<path d="M37.5565 19.4177C37.4706 18.6559 37.1166 18.0658 36.4943 17.6474C35.8719 17.2235 35.0887 17.0116 34.1445 17.0116C33.4685 17.0116 32.8838 17.1189 32.3902 17.3335C31.8966 17.5427 31.513 17.8324 31.2394 18.2026C30.9712 18.5674 30.8371 18.9832 30.8371 19.4499C30.8371 19.8416 30.9283 20.1795 31.1107 20.4639C31.2985 20.7482 31.5426 20.9869 31.843 21.1801C32.1488 21.3678 32.476 21.5261 32.8247 21.6549C33.1734 21.7783 33.5087 21.8802 33.8306 21.9607L35.4401 22.3791C35.9658 22.5079 36.505 22.6822 37.0576 22.9022C37.6101 23.1221 38.1225 23.4118 38.5946 23.7713C39.0667 24.1307 39.4476 24.576 39.7373 25.1071C40.0323 25.6382 40.1799 26.2739 40.1799 27.0143C40.1799 27.9478 39.9385 28.7766 39.4556 29.5009C38.9782 30.2251 38.2834 30.7965 37.3714 31.2149C36.4647 31.6334 35.3676 31.8426 34.0801 31.8426C32.8462 31.8426 31.7786 31.6468 30.8773 31.2552C29.976 30.8635 29.2706 30.3083 28.7609 29.5894C28.2513 28.8651 27.9696 28.0068 27.916 27.0143H30.4106C30.4589 27.6098 30.652 28.106 30.99 28.503C31.3333 28.8946 31.7706 29.187 32.3017 29.3802C32.8382 29.5679 33.4256 29.6618 34.064 29.6618C34.7668 29.6618 35.3918 29.5518 35.939 29.3319C36.4916 29.1066 36.9261 28.7954 37.2426 28.3984C37.5592 27.996 37.7174 27.5266 37.7174 26.9901C37.7174 26.502 37.5779 26.1023 37.299 25.7911C37.0254 25.48 36.6525 25.2224 36.1804 25.0186C35.7137 24.8147 35.1852 24.635 34.5951 24.4794L32.6477 23.9483C31.328 23.5889 30.2818 23.0604 29.5093 22.363C28.7421 21.6656 28.3585 20.7428 28.3585 19.5948C28.3585 18.6452 28.6161 17.8164 29.1311 17.1082C29.6461 16.4 30.3435 15.8502 31.2233 15.4585C32.1032 15.0615 33.0957 14.863 34.2008 14.863C35.3167 14.863 36.3011 15.0589 37.1541 15.4505C38.0125 15.8421 38.6885 16.3813 39.182 17.068C39.6756 17.7493 39.9331 18.5326 39.9545 19.4177H37.5565Z" fill="#E7AF1B"/>
<path d="M118.759 25.9854L116.578 26.3717C116.487 26.0927 116.342 25.8271 116.143 25.575C115.95 25.3228 115.687 25.1163 115.355 24.9554C115.022 24.7944 114.606 24.7139 114.107 24.7139C113.426 24.7139 112.857 24.8668 112.401 25.1726C111.945 25.4731 111.717 25.862 111.717 26.3395C111.717 26.7526 111.87 27.0852 112.176 27.3373C112.482 27.5895 112.975 27.796 113.657 27.957L115.62 28.4076C116.757 28.6705 117.605 29.0755 118.163 29.6227C118.721 30.1699 119 30.8808 119 31.7552C119 32.4956 118.785 33.1554 118.356 33.7348C117.932 34.3089 117.34 34.7595 116.578 35.0868C115.821 35.414 114.944 35.5776 113.946 35.5776C112.562 35.5776 111.433 35.2826 110.558 34.6925C109.684 34.097 109.148 33.252 108.949 32.1576L111.275 31.8035C111.42 32.4097 111.717 32.8684 112.168 33.1796C112.619 33.4854 113.206 33.6383 113.93 33.6383C114.719 33.6383 115.349 33.4746 115.821 33.1474C116.293 32.8148 116.529 32.4097 116.529 31.9323C116.529 31.546 116.385 31.2214 116.095 30.9586C115.811 30.6957 115.373 30.4972 114.783 30.3631L112.691 29.9044C111.538 29.6415 110.685 29.2231 110.132 28.649C109.585 28.075 109.311 27.3481 109.311 26.4682C109.311 25.7386 109.515 25.1002 109.923 24.553C110.33 24.0058 110.894 23.5793 111.613 23.2735C112.332 22.9623 113.155 22.8068 114.083 22.8068C115.419 22.8068 116.47 23.0965 117.238 23.6759C118.005 24.2499 118.512 25.0197 118.759 25.9854Z" fill="#2F9240"/>
<path d="M96.6373 35.3282V18.8475H99.0434V24.9714H99.1882C99.3277 24.7139 99.5289 24.4162 99.7918 24.0782C100.055 23.7402 100.419 23.4452 100.886 23.193C101.353 22.9355 101.97 22.8068 102.737 22.8068C103.735 22.8068 104.625 23.0589 105.409 23.5632C106.192 24.0675 106.806 24.7944 107.252 25.744C107.702 26.6935 107.927 27.8362 107.927 29.1721C107.927 30.5079 107.705 31.6533 107.26 32.6082C106.814 33.5578 106.203 34.2901 105.425 34.8051C104.647 35.3148 103.759 35.5696 102.761 35.5696C102.01 35.5696 101.396 35.4435 100.918 35.1914C100.446 34.9392 100.076 34.6442 99.8079 34.3062C99.5396 33.9682 99.3331 33.6678 99.1882 33.4049H98.987V35.3282H96.6373ZM98.9951 29.1479C98.9951 30.017 99.1212 30.7788 99.3733 31.4333C99.6255 32.0878 99.9903 32.6002 100.468 32.9703C100.945 33.3352 101.53 33.5176 102.222 33.5176C102.941 33.5176 103.542 33.3271 104.025 32.9462C104.507 32.5599 104.872 32.0369 105.119 31.377C105.371 30.7171 105.497 29.9741 105.497 29.1479C105.497 28.3325 105.374 27.6002 105.127 26.9511C104.886 26.3019 104.521 25.7896 104.033 25.414C103.55 25.0385 102.946 24.8507 102.222 24.8507C101.525 24.8507 100.934 25.0305 100.452 25.3899C99.9742 25.7493 99.612 26.2509 99.3653 26.8947C99.1185 27.5385 98.9951 28.2896 98.9951 29.1479Z" fill="#2F9240"/>
<path d="M88.2726 35.6018C87.4894 35.6018 86.7812 35.4569 86.1482 35.1672C85.5151 34.8722 85.0135 34.4457 84.6433 33.8877C84.2785 33.3298 84.0961 32.6458 84.0961 31.8357C84.0961 31.1383 84.2302 30.5642 84.4985 30.1136C84.7667 29.663 85.1289 29.3062 85.5849 29.0433C86.0409 28.7805 86.5505 28.582 87.1138 28.4478C87.6771 28.3137 88.2512 28.2118 88.8359 28.142C89.5763 28.0562 90.1771 27.9865 90.6385 27.9328C91.0999 27.8738 91.4352 27.7799 91.6444 27.6512C91.8536 27.5224 91.9582 27.3132 91.9582 27.0235V26.9672C91.9582 26.2644 91.7597 25.7198 91.3627 25.3336C90.9711 24.9473 90.3863 24.7542 89.6085 24.7542C88.7984 24.7542 88.16 24.9339 87.6932 25.2933C87.2319 25.6474 86.9126 26.0417 86.7356 26.4763L84.4743 25.9613C84.7426 25.2102 85.1342 24.604 85.6492 24.1426C86.1696 23.6759 86.7678 23.3379 87.4438 23.1286C88.1197 22.9141 88.8306 22.8068 89.5763 22.8068C90.0698 22.8068 90.5929 22.8658 91.1455 22.9838C91.7034 23.0965 92.2238 23.3057 92.7066 23.6115C93.1948 23.9173 93.5945 24.3545 93.9057 24.9232C94.2168 25.4865 94.3724 26.2188 94.3724 27.1201V35.3282H92.0226V33.6383H91.926C91.7705 33.9494 91.5371 34.2552 91.2259 34.5557C90.9148 34.8561 90.5151 35.1055 90.0269 35.304C89.5387 35.5025 88.9539 35.6018 88.2726 35.6018ZM88.7957 33.6705C89.4609 33.6705 90.0296 33.539 90.5017 33.2762C90.9792 33.0133 91.3413 32.6699 91.5881 32.2461C91.8402 31.8169 91.9663 31.3582 91.9663 30.87V29.2767C91.8804 29.3625 91.7141 29.443 91.4674 29.5181C91.2259 29.5879 90.9497 29.6496 90.6385 29.7032C90.3273 29.7515 90.0242 29.7971 89.7292 29.84C89.4341 29.8776 89.1873 29.9097 88.9888 29.9366C88.5221 29.9956 88.0956 30.0948 87.7093 30.2343C87.3284 30.3738 87.0226 30.575 86.7919 30.8379C86.5666 31.0954 86.454 31.4387 86.454 31.8679C86.454 32.4634 86.6739 32.914 87.1138 33.2198C87.5537 33.5202 88.1144 33.6705 88.7957 33.6705Z" fill="#2F9240"/>
<path d="M73.2107 35.3282V18.8475H75.6973V33.1876H83.1651V35.3282H73.2107Z" fill="#2F9240"/>
</svg>
