<svg width="125" height="50" viewBox="0 0 125 50" fill="none" xmlns="http://www.w3.org/2000/svg">
<path fill-rule="evenodd" clip-rule="evenodd" d="M33.029 8.61035C33.2329 8.61035 33.8958 9.57477 34.4566 10.793C35.1195 12.1635 35.4764 13.9908 35.4764 15.9703C35.4764 17.9499 35.1195 19.7772 34.4566 21.1985C33.8958 22.3659 33.2839 23.3303 33.029 23.3303C32.825 23.3303 32.5191 23.1781 32.3151 22.975C32.1112 22.7212 32.4171 21.7061 32.927 20.6909C33.5898 19.4219 33.9467 17.7469 33.9467 15.9703C33.9467 14.1938 33.5898 12.5188 32.927 11.2498C32.4171 10.2346 32.1112 9.21945 32.2641 9.01642C32.4171 8.76263 32.774 8.61035 33.029 8.61035V8.61035ZM30.1227 10.6407C30.2756 10.6407 30.7345 11.3513 31.1424 12.1635C31.5503 13.0264 31.9072 14.7014 31.9072 15.9703C31.9072 17.2393 31.5503 19.0159 31.0914 19.9295C30.5815 20.9955 30.1227 21.4015 29.8167 21.0462C29.5108 20.7417 29.5108 20.031 29.8677 19.1681C30.1227 18.356 30.3776 16.9348 30.3776 15.9703C30.3776 15.0059 30.1227 13.6355 29.8677 12.9248C29.6128 12.2142 29.4598 11.4021 29.6128 11.1483C29.8167 10.8945 30.0207 10.6407 30.1227 10.6407ZM27.3183 13.1786C27.5733 13.1786 27.9302 13.5339 28.0831 13.94C28.2361 14.3461 28.3381 15.3105 28.3381 16.1226C28.3381 16.884 28.1341 17.8484 27.8282 18.2545C27.5733 18.6606 27.1654 18.8128 26.9614 18.6098C26.7574 18.356 26.6045 17.1378 26.6555 15.9196C26.7574 14.7014 26.8084 13.5847 26.8084 13.4324C26.8084 13.2801 27.0634 13.1786 27.3183 13.1786V13.1786ZM8.45279 14.1938H23.7492V17.7469H12.5318V25.3607H23.7492V40.5883H8.45279V37.0352H19.6701V29.4214H8.45279V14.1938ZM42.1048 25.3607V40.5883H26.8084L26.7065 33.3298C26.6555 29.3199 26.8084 25.8683 27.0634 25.716C27.3183 25.513 30.7855 25.3607 42.1048 25.3607ZM30.8875 37.0352H38.5357V29.4214H30.8875V37.0352ZM45.674 25.3607H60.9703V40.5883H56.8913V29.4214H49.2431V40.5883H45.674V25.3607ZM64.0296 25.3607H79.326V40.5883H64.0296V25.3607ZM68.1086 37.0352H75.7568V29.4214H68.1086V37.0352ZM82.8951 25.3607H98.1915V29.4214H86.4643V32.9745H98.1915V37.0352H86.4643V38.8117C86.4643 40.4868 86.3623 40.5883 82.8951 40.5883V25.3607ZM101.251 25.3607H116.547V29.4214H105.33V32.9745H116.547V37.0352H105.33V38.8117C105.33 40.5375 105.279 40.5883 101.251 40.5883V25.3607Z" fill="white" fill-opacity="0.94"/>
</svg>
