<svg width="106" height="23" viewBox="0 0 106 23" fill="none" xmlns="http://www.w3.org/2000/svg">
<mask id="mask0_12_4249" style="mask-type:luminance" maskUnits="userSpaceOnUse" x="25" y="5" width="81" height="14">
<path d="M105.394 5.3186H25.1973V18.7536H105.394V5.3186Z" fill="white"/>
</mask>
<g mask="url(#mask0_12_4249)">
<path d="M25.1973 14.6198L26.0367 13.4633C26.0367 13.4633 27.267 14.3929 28.5191 14.3929C29.0578 14.3929 29.6729 14.1495 29.7905 13.5973C30.0803 12.2385 25.93 12.5747 26.4057 10.3274C26.7038 8.92746 28.0298 8.32056 29.5116 8.32056C30.8567 8.32056 31.923 8.81816 32.1609 8.96576L31.532 10.1497C31.2942 10.002 30.2279 9.50436 29.4077 9.50436C28.9894 9.50436 28.3278 9.58366 28.1911 10.2317C27.9368 11.4292 32.016 11.2405 31.543 13.4633C31.2887 14.6608 30.2306 15.6587 28.3442 15.6587C26.6627 15.6587 25.2 14.6225 25.2 14.6225L25.1973 14.6198Z" fill="white"/>
<path d="M40.0295 12.036C39.562 14.2424 38.2551 15.6449 36.1007 15.6449C35.1985 15.6449 34.5122 15.3879 34.0994 14.8657L33.2737 18.7563H31.5923L33.7741 8.47089H34.7966L35.111 9.33209C35.789 8.67319 36.653 8.35059 37.6345 8.35059C39.8409 8.35059 40.5162 9.73669 40.0295 12.0388V12.036ZM38.2387 12.036C38.6324 10.1796 38.1348 9.54529 37.0576 9.54529C35.9804 9.54529 35.1247 10.2179 34.7474 11.995C34.3701 13.7721 34.9415 14.4447 36.0187 14.4447C37.0959 14.4447 37.8478 13.8788 38.2387 12.036Z" fill="white"/>
<path d="M47.313 10.7019L46.2905 15.522H45.1477L45.052 14.5788C44.6118 15.0108 43.7232 15.6423 42.4437 15.6423C40.8962 15.6423 40.1499 14.8495 40.4315 13.5153C40.8334 11.6178 42.6515 11.1722 43.7971 11.1722C44.5762 11.1722 45.1668 11.3198 45.5906 11.4675L45.7163 10.8742C45.9269 9.87901 45.5277 9.54272 44.5052 9.54272C43.5619 9.54272 42.359 10.0813 42.359 10.0813L42.1976 8.93851C42.1976 8.93851 43.4936 8.34521 44.8551 8.34521C46.7799 8.34521 47.6548 9.11351 47.3157 10.7019H47.313ZM45.1094 13.7312L45.3937 12.3861C45.0547 12.2658 44.568 12.1564 44.0705 12.1564C43.2776 12.1564 42.2113 12.2904 41.9789 13.3813C41.8039 14.2015 42.3261 14.4722 43.0807 14.4722C43.7533 14.4722 44.5653 14.2042 45.1094 13.7312Z" fill="white"/>
<path d="M48.1875 12.0361C48.7015 9.61376 50.2544 8.32056 52.5291 8.32056C53.7266 8.32056 54.5742 8.76346 54.782 8.87286L53.9891 10.0704C53.8087 9.97736 53.0513 9.61376 52.2967 9.61376C51.2742 9.61376 50.3583 10.1251 49.9591 11.9979C49.56 13.8816 50.3775 14.3409 51.6023 14.3409C52.5045 14.3409 53.2427 13.9636 53.4942 13.8023L53.8415 14.8248C53.6063 14.9862 52.644 15.6451 51.0828 15.6451C48.7015 15.6451 47.679 14.4339 48.1875 12.0361Z" fill="white"/>
<path d="M61.896 12.3313H56.6741C56.4581 13.8514 57.1908 14.3381 58.443 14.3381C59.3042 14.3381 60.19 13.9745 60.4333 13.8405L60.8024 14.7701C60.0096 15.336 58.9078 15.6449 57.7895 15.6449C55.5422 15.6449 54.4568 14.4748 54.9762 12.0251C55.5066 9.52074 57.0951 8.32324 59.3425 8.32324C61.3738 8.32324 62.4975 9.50714 62.0327 11.6888L61.896 12.334V12.3313ZM56.89 11.3771H60.499C60.6931 10.0183 60.0068 9.50714 59.1456 9.50714C58.1231 9.50714 57.3439 10.0047 56.89 11.3771Z" fill="white"/>
<path d="M66.3223 12.0361C66.8363 9.61376 68.3893 8.32056 70.664 8.32056C71.8615 8.32056 72.709 8.76346 72.9168 8.87286L72.1239 10.0704C71.9435 9.97736 71.1862 9.61376 70.4316 9.61376C69.409 9.61376 68.4931 10.1251 68.094 11.9979C67.6948 13.8816 68.5123 14.3409 69.7371 14.3409C70.6394 14.3409 71.3775 13.9636 71.6291 13.8023L71.9763 14.8248C71.7412 14.9862 70.7788 15.6451 69.2177 15.6451C66.8363 15.6451 65.8138 14.4339 66.3223 12.0361Z" fill="white"/>
<path d="M80.3425 8.45459L78.8415 15.522H77.9803L77.7042 14.6608C77.0781 15.2677 76.2305 15.6423 75.249 15.6423C73.7809 15.6423 72.6408 14.9971 73.1302 12.6814L74.0269 8.45459H75.7083L74.8635 12.438C74.5354 13.9855 75.085 14.2562 75.9052 14.2562C77.0617 14.2562 77.5456 13.6902 77.8491 12.2631L78.6584 8.45459H80.3398H80.3425Z" fill="white"/>
<path d="M88.3589 12.0361C87.8914 14.2425 86.5845 15.645 84.4301 15.645C83.3392 15.645 82.5846 15.2677 82.2073 14.5132L81.7918 15.522H80.5396L82.7048 5.3186H84.4819L83.6728 9.1271C84.3098 8.6022 85.0917 8.3452 85.9666 8.3452C88.173 8.3452 88.8482 9.7313 88.3615 12.0334L88.3589 12.0361ZM86.5681 12.0361C86.9618 10.1797 86.4779 9.5454 85.4007 9.5454C84.3234 9.5454 83.454 10.218 83.0767 11.9951C82.6994 13.7722 83.2709 14.4448 84.3617 14.4448C85.4526 14.4448 86.1771 13.8789 86.5681 12.0361Z" fill="white"/>
<path d="M90.3788 6.58452C90.5128 5.95292 90.9698 5.50732 91.7648 5.50732C92.5608 5.50732 92.8668 5.89832 92.7218 6.58452C92.5938 7.19142 92.1318 7.59332 91.3218 7.59332C90.5128 7.59332 90.2558 7.16142 90.3788 6.58452ZM90.3328 8.45462H92.0138L90.5128 15.522H88.8315L90.3328 8.45462Z" fill="white"/>
<path d="M92.4931 12.0361C93.0071 9.61376 94.5591 8.32056 96.8341 8.32056C98.0321 8.32056 98.8791 8.76346 99.0871 8.87286L98.2941 10.0704C98.1111 9.97736 97.3541 9.61376 96.6021 9.61376C95.5791 9.61376 94.6631 10.1251 94.2641 11.9979C93.8651 13.8707 94.6821 14.3409 95.9071 14.3409C96.8101 14.3409 97.5481 13.9636 97.7991 13.8023L98.1471 14.8248C97.9111 14.9862 96.9491 15.6451 95.3881 15.6451C93.0041 15.6451 91.9841 14.4339 92.4931 12.0361Z" fill="white"/>
<path d="M98.4341 14.6198L99.2731 13.4633C99.2731 13.4633 100.503 14.3929 101.755 14.3929C102.294 14.3929 102.909 14.1495 103.027 13.5973C103.317 12.2385 99.1661 12.5747 99.6421 10.3274C99.9401 8.92746 101.266 8.32056 102.748 8.32056C104.093 8.32056 105.159 8.81816 105.397 8.96576L104.768 10.1497C104.53 10.002 103.464 9.50436 102.644 9.50436C102.226 9.50436 101.564 9.58366 101.427 10.2317C101.173 11.4292 105.252 11.2405 104.779 13.4633C104.525 14.6608 103.467 15.6587 101.58 15.6587C99.8991 15.6587 98.4361 14.6225 98.4361 14.6225L98.4341 14.6198Z" fill="white"/>
</g>
<mask id="mask1_12_4249" style="mask-type:luminance" maskUnits="userSpaceOnUse" x="0" y="0" width="21" height="23">
<path d="M20.1972 0H0V22.849H20.1972V0Z" fill="white"/>
</mask>
<g mask="url(#mask1_12_4249)">
<path d="M19.1045 5.10878C18.3931 5.51648 17.7205 5.91758 17.028 6.28158C16.9149 6.34098 16.6913 6.27088 16.5568 6.19408C14.4877 5.02298 12.4277 3.83618 10.3561 2.66918C10.2216 2.59328 9.97812 2.57338 9.85102 2.64438C7.38502 4.03508 4.92972 5.44388 2.47192 6.84938C2.43642 6.86918 2.40582 6.89728 2.32082 6.95998C2.44962 7.04258 2.55442 7.11518 2.66422 7.17788C5.02622 8.52808 7.39162 9.87418 9.74872 11.2335C9.99552 11.3755 10.1729 11.3705 10.4164 11.231C13.5023 9.45658 16.5939 7.69368 19.6847 5.92748C19.8126 5.85408 19.9447 5.78718 20.1213 5.69318C20.132 5.85238 20.1477 5.96798 20.1477 6.08348C20.1494 8.11958 20.1428 10.1548 20.1552 12.1909C20.1568 12.4765 20.0635 12.6258 19.8151 12.767C16.6839 14.5439 13.5567 16.3307 10.4362 18.1266C10.1762 18.276 9.98972 18.2793 9.72812 18.1291C6.59522 16.3266 3.45652 14.534 0.312821 12.7496C0.0743208 12.6143 -0.00655958 12.4666 2.04155e-05 12.1991C0.0190204 11.4869 0.0066208 10.7738 0.0066208 9.99058C0.194821 10.0929 0.335121 10.1647 0.472921 10.2431C3.56382 12.0085 6.65622 13.7714 9.74292 15.5442C9.98562 15.6836 10.163 15.6919 10.4114 15.5491C12.8635 14.1345 15.3213 12.729 17.7865 11.3367C18.0687 11.1774 18.1703 11.0008 18.1488 10.6872C18.1216 10.2918 18.1422 9.89318 18.1422 9.42358C17.9697 9.51358 17.8401 9.57458 17.7163 9.64558C15.2816 11.0354 12.8453 12.4228 10.4156 13.8226C10.1704 13.9637 9.99302 13.9662 9.74542 13.8234C6.61332 12.0217 3.47462 10.2291 0.331021 8.44478C0.0826207 8.30358 -0.00820958 8.14678 2.04155e-05 7.86458C0.0207204 7.23238 0.0157208 6.59938 0.00172082 5.96628C-0.00325918 5.74598 0.0652206 5.62218 0.260021 5.51158C3.44992 3.69668 6.63312 1.87188 9.82462 0.0611838C9.95012 -0.00981616 10.1812 -0.0238166 10.3017 0.0446834C13.1961 1.68288 16.0814 3.33688 18.9683 4.98828C19.0022 5.00808 19.0294 5.04118 19.1045 5.10878Z" fill="white"/>
<path d="M2.28604 15.8784C4.34354 17.0545 6.32104 18.186 8.29934 19.3175C8.78794 19.5973 9.28554 19.8631 9.76344 20.1602C9.99044 20.3013 10.1587 20.2997 10.394 20.1635C12.2352 19.0963 14.0864 18.0449 15.9351 16.9893C16.0523 16.9225 16.1737 16.8606 16.3775 16.7516C16.3775 17.293 16.3239 17.7833 16.3899 18.257C16.5013 19.0609 16.1968 19.4958 15.4697 19.8746C13.7538 20.7684 12.0933 21.7696 10.4179 22.7418C10.1736 22.8837 9.99534 22.887 9.74694 22.7443C6.60414 20.9368 3.45474 19.1401 0.302839 17.3483C0.086539 17.2253 -0.0075113 17.0925 -8.12975e-05 16.835C0.0197387 16.1896 0.0180387 15.5425 -8.12975e-05 14.8971C-0.0066813 14.6553 0.0799383 14.5233 0.285438 14.4168C0.698938 14.2022 1.10254 13.7945 1.51104 13.792C1.91874 13.7904 2.32984 14.184 2.73584 14.4118C3.06924 14.5984 3.39694 14.7948 3.77574 15.0151C3.27064 15.3081 2.81264 15.5739 2.28444 15.8793L2.28604 15.8784Z" fill="white"/>
<path d="M20.1484 17.17C18.8576 16.433 17.646 15.7406 16.3726 15.0135C17.1269 14.5835 17.8243 14.1824 18.5267 13.7904C18.5853 13.7582 18.6777 13.778 18.7528 13.7871C18.7908 13.7912 18.8263 13.8225 18.8617 13.844C19.2843 14.0974 19.8455 14.2608 20.0873 14.6322C20.2962 14.9541 20.1451 15.5112 20.1492 15.9643C20.1525 16.3348 20.1492 16.7054 20.1492 17.1709L20.1484 17.17Z" fill="white"/>
</g>
</svg>
