<svg width="78" height="34" viewBox="0 0 78 34" fill="none" xmlns="http://www.w3.org/2000/svg">
<path d="M14.4624 30.14C14.4624 29.7006 14.6908 29.5618 15.0405 29.5618H17.3587C17.6474 29.5618 17.8584 29.6459 17.8584 29.9592C17.8584 30.2724 17.6474 30.3565 17.3587 30.3565H15.4498V31.2963H17.124C17.3825 31.2963 17.5871 31.3685 17.5871 31.6754C17.5871 31.9823 17.3825 32.0545 17.124 32.0545H15.4498V33.1022H17.4071C17.6958 33.1022 17.9067 33.187 17.9067 33.5003C17.9067 33.8128 17.6958 33.8977 17.4071 33.8977H15.0405C14.6908 33.8977 14.4624 33.7589 14.4624 33.3195V30.14Z" fill="white"/>
<path d="M20.4595 29.9775C20.4595 29.6825 20.6523 29.4834 20.9536 29.4834C21.2542 29.4834 21.4469 29.6825 21.4469 29.9775V33.0666H23.0966C23.3797 33.0666 23.6089 33.2109 23.6089 33.4822C23.6089 33.7526 23.3797 33.8978 23.0966 33.8978H21.0377C20.6888 33.8978 20.4595 33.759 20.4595 33.3196V29.9775Z" fill="white"/>
<path d="M26.0596 30.14C26.0596 29.7006 26.288 29.5618 26.6377 29.5618H28.956C29.2446 29.5618 29.4556 29.6459 29.4556 29.9592C29.4556 30.2724 29.2446 30.3565 28.956 30.3565H27.047V31.2963H28.7212C28.9797 31.2963 29.1844 31.3685 29.1844 31.6754C29.1844 31.9823 28.9797 32.0545 28.7212 32.0545H27.047V33.1022H29.0043C29.293 33.1022 29.504 33.187 29.504 33.5003C29.504 33.8128 29.293 33.8977 29.0043 33.8977H26.6377C26.288 33.8977 26.0596 33.7589 26.0596 33.3195V30.14Z" fill="white"/>
<path d="M34.038 29.4597C35.1697 29.4597 35.7899 30.1703 35.7899 30.5914C35.7899 30.869 35.6392 31.0371 35.3442 31.0371C34.7724 31.0371 34.9413 30.2543 34.038 30.2543C33.4178 30.2543 32.9062 30.7905 32.9062 31.7295C32.9062 32.5186 33.2187 33.2046 34.0744 33.2046C34.8509 33.2046 34.8326 32.3743 35.3085 32.3743C35.5496 32.3743 35.7899 32.5123 35.7899 32.7534C35.7899 33.3799 35.0317 34.0001 34.0744 34.0001C32.719 34.0001 31.918 33.2229 31.918 31.7295C31.918 30.5073 32.6413 29.4597 34.038 29.4597Z" fill="white"/>
<path d="M39.3605 30.3929H38.427C38.1439 30.3929 37.9155 30.2486 37.9155 29.9773C37.9155 29.7069 38.1439 29.5618 38.427 29.5618H41.2814C41.5645 29.5618 41.7929 29.7069 41.7929 29.9773C41.7929 30.2486 41.5645 30.3929 41.2814 30.3929H40.3479V33.482C40.3479 33.777 40.1552 33.9761 39.8538 33.9761C39.5532 33.9761 39.3605 33.777 39.3605 33.482V30.3929Z" fill="white"/>
<path d="M45.2076 31.4887H46.195C46.5686 31.4887 46.9413 31.3919 46.9413 30.9042C46.9413 30.441 46.659 30.3205 46.2251 30.3205H45.2076V31.4887ZM44.2202 30.1396C44.2202 29.7003 44.4486 29.5615 44.7984 29.5615H46.4417C47.6162 29.5615 47.9295 30.2062 47.9295 30.7662C47.9295 31.2357 47.6519 31.6996 47.1824 31.8075V31.8202C47.6884 31.8924 47.7788 32.2596 47.7788 32.6989C47.7788 33.1986 47.9113 33.3857 47.9113 33.5896C47.9113 33.8188 47.6765 33.9758 47.4473 33.9758C46.9056 33.9758 46.8636 33.4516 46.8636 33.2771C46.8636 32.5181 46.7248 32.2112 46.1831 32.2112H45.2076V33.4817C45.2076 33.7767 45.0149 33.9758 44.7135 33.9758C44.4129 33.9758 44.2202 33.7767 44.2202 33.4817V30.1396Z" fill="white"/>
<path d="M52.5775 33.205C53.4745 33.205 53.7822 32.5063 53.7822 31.6759C53.7822 30.8448 53.3848 30.2547 52.5775 30.2547C51.7709 30.2547 51.3728 30.8448 51.3728 31.6759C51.3728 32.5063 51.6503 33.205 52.5775 33.205ZM52.5775 29.46C53.9987 29.46 54.7696 30.4046 54.7696 31.6759C54.7696 32.8981 54.059 33.9997 52.5775 33.9997C51.0246 33.9997 50.3862 32.9885 50.3862 31.6759C50.3862 30.4046 51.1563 29.46 52.5775 29.46Z" fill="white"/>
<path d="M57.3701 30.0618C57.3701 29.6526 57.5692 29.4836 57.9903 29.4836C58.195 29.4836 58.3758 29.5622 58.4844 29.7422L60.2126 32.5307H60.2245V29.9595C60.2245 29.6399 60.4053 29.4836 60.7003 29.4836C60.9954 29.4836 61.1762 29.6399 61.1762 29.9595V33.3619C61.1762 33.7528 61.0073 33.9757 60.5917 33.9757C60.2784 33.9757 60.1761 33.9091 60.05 33.7108L58.3337 31.0008H58.3218V33.4999C58.3218 33.8187 58.141 33.9757 57.846 33.9757C57.551 33.9757 57.3701 33.8187 57.3701 33.4999V30.0618Z" fill="white"/>
<path d="M63.9697 29.9775C63.9697 29.6825 64.1624 29.4834 64.4638 29.4834C64.7644 29.4834 64.9571 29.6825 64.9571 29.9775V33.4822C64.9571 33.7772 64.7644 33.9755 64.4638 33.9755C64.1624 33.9755 63.9697 33.7772 63.9697 33.4822V29.9775Z" fill="white"/>
<path d="M69.7501 29.4597C70.8826 29.4597 71.5028 30.1703 71.5028 30.5914C71.5028 30.869 71.3521 31.0371 71.0571 31.0371C70.4845 31.0371 70.6534 30.2543 69.7501 30.2543C69.1299 30.2543 68.6183 30.7905 68.6183 31.7295C68.6183 32.5186 68.9316 33.2046 69.7866 33.2046C70.563 33.2046 70.5448 32.3743 71.0206 32.3743C71.2617 32.3743 71.5028 32.5123 71.5028 32.7534C71.5028 33.3799 70.7438 34.0001 69.7866 34.0001C68.432 34.0001 67.6309 33.2229 67.6309 31.7295C67.6309 30.5073 68.3534 29.4597 69.7501 29.4597Z" fill="white"/>
<path d="M76.2834 31.3865C77.1869 31.5911 77.4149 32.1272 77.4149 32.6332C77.4149 33.416 76.8251 33.9997 75.6331 33.9997C74.3808 33.9997 73.8208 33.3732 73.8208 32.9036C73.8208 32.6633 73.9953 32.4944 74.2364 32.4944C74.7718 32.4944 74.6338 33.2772 75.6331 33.2772C76.1446 33.2772 76.4277 32.9941 76.4277 32.7054C76.4277 32.5309 76.3437 32.3374 76.0066 32.2533L74.8923 31.9702C73.9953 31.7418 73.8327 31.2477 73.8327 30.7845C73.8327 29.8209 74.7234 29.4592 75.5609 29.4592C76.3318 29.4592 77.2409 29.8931 77.2409 30.4712C77.2409 30.7179 77.0299 30.8622 76.7886 30.8622C76.3318 30.8622 76.4158 30.2182 75.4943 30.2182C75.0367 30.2182 74.7837 30.4292 74.7837 30.7298C74.7837 31.0312 75.1453 31.1279 75.4586 31.2001L76.2834 31.3865Z" fill="white"/>
<path d="M2.39756 24.2918C2.39756 25.3371 3.32466 25.7836 4.26686 25.7836C4.95216 25.7836 5.86096 25.51 5.86096 24.6535C5.86096 23.9159 4.83236 23.6407 3.10106 23.2822C1.67826 22.9555 0.290359 22.4923 0.290359 20.9164C0.290359 18.6529 2.24296 18.0708 4.14556 18.0708C6.06716 18.0708 7.86596 18.7211 8.05546 20.899H5.74206C5.67146 19.956 4.95216 19.6974 4.07816 19.6974C3.52936 19.6974 2.72276 19.7847 2.72276 20.5223C2.72276 21.3947 4.11306 21.516 5.48426 21.8404C6.90546 22.1671 8.29496 22.6818 8.29496 24.3267C8.29496 26.6584 6.25436 27.4118 4.24866 27.4118C2.19296 27.4118 0.170561 26.6418 0.0849609 24.2918H2.39756Z" fill="white"/>
<path d="M15.8485 22.7667C15.8485 21.3447 15.2838 19.9044 13.7246 19.9044C12.1297 19.9044 11.6158 21.328 11.6158 22.7667C11.6158 24.2061 12.1622 25.5766 13.7412 25.5766C15.3354 25.5766 15.8485 24.2061 15.8485 22.7667ZM9.2666 18.7227L11.5817 18.3103V19.4412H11.6158C12.2161 18.4808 13.1583 18.0708 14.2552 18.0708C17.0318 18.0708 18.2833 20.316 18.2833 22.8349C18.2833 25.2015 16.9977 27.4118 14.3924 27.4118C13.3114 27.4118 12.3351 26.9486 11.7363 26.0762H11.7006V32.4567L9.2666 30.2915V18.7227Z" fill="white"/>
<path d="M24.8803 22.8351C24.4687 23.1959 23.6121 23.2126 22.8579 23.3506C22.1037 23.4862 21.4168 23.7622 21.4168 24.6528C21.4168 25.5443 22.1203 25.7838 22.9102 25.7838C24.8121 25.7838 24.8803 24.292 24.8803 23.7447V22.8351ZM19.2573 21.0363C19.3945 18.7736 21.4343 18.071 23.4226 18.071C25.1888 18.071 27.3151 18.4643 27.3151 20.589V25.2016C27.3151 26.0066 27.4007 26.8124 27.6228 27.1725H25.1563C25.0698 26.8981 25.0008 26.6054 24.9818 26.3159C24.2125 27.1217 23.0982 27.412 21.9998 27.412C20.3033 27.412 18.9844 26.5729 18.9844 24.7543C19.017 20.7278 24.9818 22.8866 24.8803 20.8991C24.8803 19.8705 24.1594 19.6976 23.3036 19.6976C22.3606 19.6976 21.7777 20.0767 21.692 21.0363H19.2573Z" fill="white"/>
<path d="M28.6934 18.723L31.0076 18.3098V19.9563H31.0409C31.5041 18.8412 32.6533 18.0703 33.8691 18.0703C34.0586 18.0703 34.2307 18.106 34.402 18.156V20.4179C34.1784 20.3687 33.8191 20.333 33.5272 20.333C31.7277 20.333 31.1273 21.6012 31.1273 23.1786V27.1718H28.6934V18.723Z" fill="white"/>
<path d="M35.3423 16.2684L37.7763 14.9336V21.4996L40.8448 18.3098H43.7245L40.3808 21.5686L44.0996 27.1718H41.1517L38.7193 23.2119L37.7763 24.1216V27.1718H35.3423V16.2684Z" fill="white"/>
<path d="M45.5808 19.938H43.1802L44.8393 18.3098H45.5808V17.6262C45.5808 16.0479 46.5587 14.9336 48.547 14.9336C48.9745 14.9336 49.4218 14.9852 49.8318 15.0019V16.8196C49.5407 16.7839 49.2314 16.7673 48.9419 16.7673C48.2726 16.7673 48.0148 17.0417 48.0148 17.7793V18.3098H49.6938V19.938H48.0148V27.1726H45.5808V19.938Z" fill="white"/>
<path d="M58.6914 27.1723H56.3763V25.9375H56.3248C55.7093 26.9487 54.6458 27.4118 53.6164 27.4118C51.0285 27.4118 50.3774 25.9557 50.3774 23.762V18.3103H52.8122V23.3147C52.8122 24.7724 53.2238 25.4918 54.3706 25.4918C55.6919 25.4918 56.2566 24.7542 56.2566 22.9555V18.3103H58.6914V27.1723Z" fill="white"/>
<path d="M60.0356 18.3101H62.349V19.5441H62.4014C63.0176 18.5337 64.0795 18.0706 65.1098 18.0706C67.6976 18.0706 68.3488 19.5275 68.3488 21.7204V27.1721H65.9148V22.1677C65.9148 20.71 65.5016 19.9898 64.3547 19.9898C63.035 19.9898 62.4712 20.7274 62.4712 22.5277V27.1721H60.0356V18.3101Z" fill="white"/>
<path d="M69.4929 25.9219H69.1598C69.0583 25.9219 68.9766 25.8704 68.9766 25.7736C68.9766 25.6769 69.0583 25.6245 69.1598 25.6245H70.179C70.2805 25.6245 70.3622 25.6769 70.3622 25.7736C70.3622 25.8704 70.2805 25.9219 70.179 25.9219H69.8459V27.0251C69.8459 27.1306 69.7769 27.202 69.669 27.202C69.5619 27.202 69.4929 27.1306 69.4929 27.0251V25.9219Z" fill="white"/>
<path d="M70.5449 25.7712C70.5449 25.6292 70.6417 25.5967 70.7361 25.5967H70.84C70.9494 25.5967 71.001 25.6396 71.0374 25.7585L71.3452 26.7523H71.3499L71.6529 25.7585C71.6894 25.6396 71.7409 25.5967 71.8512 25.5967H71.9495C72.0447 25.5967 72.1414 25.6292 72.1414 25.7712V27.0298C72.1414 27.1179 72.0978 27.2019 71.9844 27.2019C71.8702 27.2019 71.8274 27.1179 71.8274 27.0298V26.0702H71.8226L71.4935 27.0988C71.4697 27.1718 71.4165 27.2019 71.3436 27.2019C71.2698 27.2019 71.2167 27.1718 71.1929 27.0988L70.8638 26.0702H70.859V27.0298C70.859 27.1179 70.8162 27.2019 70.702 27.2019C70.5878 27.2019 70.5449 27.1179 70.5449 27.0298V25.7712Z" fill="white"/>
<path d="M49.0314 3.09949C49.0314 3.09949 49.2567 4.05519 48.5358 4.18759C48.0337 4.27719 47.2232 3.77919 46.8155 3.28269C46.3127 2.66959 46.3762 2.18739 46.7672 1.75994C47.3548 1.1104 48.3597 1.36181 48.3597 1.36181C48.3597 1.36181 46.5181 -0.255303 44.5989 1.06916C42.8897 2.24609 43.3807 3.84899 44.9216 5.24799C46.3127 6.51369 45.2032 7.90009 43.8018 7.71919C42.8422 7.59789 42.4504 6.82779 42.6796 6.35429C42.8794 5.94989 43.5678 5.70159 43.5678 5.70159C43.5678 5.70159 42.7763 5.37959 41.8444 5.73099C41.0085 6.04579 40.3177 6.73819 40.3733 8.46949V16.5019C40.3733 16.5019 41.2385 15.4344 42.2537 14.3495C43.3934 13.1273 43.9136 12.2993 45.0826 12.3969C47.2946 12.5341 48.8942 11.5507 49.9816 9.97479C52.0698 6.94119 50.4344 3.55229 49.0314 3.09949Z" fill="#EE2922"/>
</svg>
