<svg width="125" height="50" viewBox="0 0 125 50" fill="none" xmlns="http://www.w3.org/2000/svg">
<mask id="mask0_243_1103" style="mask-type:luminance" maskUnits="userSpaceOnUse" x="22" y="7" width="5" height="5">
<path d="M24.4235 7.93469C23.2669 7.94637 22.3348 8.64429 22.3421 9.49592C22.3492 10.3481 23.2925 11.0303 24.4492 11.0199C25.605 11.011 26.5375 10.3125 26.5297 9.45925C26.5229 8.61279 25.5928 7.93469 24.4483 7.93469C24.4408 7.93469 24.4311 7.93469 24.4235 7.93469Z" fill="white"/>
</mask>
<g mask="url(#mask0_243_1103)">
<path d="M26.5647 8.01392H22.3628V11.1021H26.5647V8.01392Z" fill="url(#paint0_radial_243_1103)"/>
</g>
<mask id="mask1_243_1103" style="mask-type:luminance" maskUnits="userSpaceOnUse" x="22" y="38" width="5" height="4">
<path d="M24.4257 38.1758C23.2691 38.188 22.3374 38.8862 22.3449 39.7378C22.3519 40.5911 23.2964 41.2738 24.4522 41.2637C25.6083 41.2529 26.5401 40.5552 26.533 39.7012C26.526 38.8558 25.5948 38.1758 24.4501 38.1758H24.4257Z" fill="white"/>
</mask>
<g mask="url(#mask1_243_1103)">
<path d="M26.5174 38.1711H22.3153V41.2588H26.5174V38.1711Z" fill="url(#paint1_radial_243_1103)"/>
</g>
<mask id="mask2_243_1103" style="mask-type:luminance" maskUnits="userSpaceOnUse" x="17" y="15" width="10" height="10">
<path d="M17.5474 20.2567C17.5474 22.6552 19.4685 24.5971 21.8377 24.5971C24.2063 24.5971 26.1274 22.6552 26.1274 20.2567C26.1274 17.8596 24.2063 15.916 21.8377 15.916C19.4685 15.916 17.5474 17.8593 17.5474 20.2567Z" fill="white"/>
</mask>
<g mask="url(#mask2_243_1103)">
<path d="M26.1763 15.8821H17.5974V24.5626H26.1763V15.8821Z" fill="url(#paint2_radial_243_1103)"/>
</g>
<mask id="mask3_243_1103" style="mask-type:luminance" maskUnits="userSpaceOnUse" x="8" y="15" width="9" height="11">
<path d="M8.98927 18.8258C7.90319 21.4106 8.51852 24.1499 10.3626 24.9445C12.2075 25.7396 14.584 24.2875 15.67 21.7014C16.7556 19.1161 16.1419 16.3774 14.2962 15.5823C13.9546 15.4362 13.5954 15.3647 13.2285 15.3647C11.6154 15.3647 9.87456 16.7207 8.98927 18.8258Z" fill="white"/>
</mask>
<g mask="url(#mask3_243_1103)">
<path d="M16.8018 15.4318H7.94939V25.802H16.8018V15.4318Z" fill="url(#paint3_radial_243_1103)"/>
</g>
<mask id="mask4_243_1103" style="mask-type:luminance" maskUnits="userSpaceOnUse" x="14" y="9" width="8" height="7">
<path d="M16.6646 9.9113C14.8316 10.814 13.8676 12.6332 14.5127 13.9723C15.1575 15.313 17.1659 15.6666 18.9986 14.7636C20.8319 13.8598 21.7953 12.0423 21.1508 10.7018C20.747 9.86405 19.8101 9.41162 18.716 9.41162C18.062 9.41135 17.3504 9.57402 16.6646 9.9113Z" fill="white"/>
</mask>
<g mask="url(#mask4_243_1103)">
<path d="M21.7286 9.31335H13.8023V15.5623H21.7286V9.31335Z" fill="url(#paint4_radial_243_1103)"/>
</g>
<mask id="mask5_243_1103" style="mask-type:luminance" maskUnits="userSpaceOnUse" x="28" y="17" width="6" height="7">
<path d="M28.2734 20.2599C28.2734 21.8507 29.5487 23.1398 31.1195 23.1398C32.692 23.1398 33.9654 21.8507 33.9654 20.2599C33.9654 18.6693 32.692 17.3781 31.1195 17.3781C29.5487 17.3778 28.2734 18.6691 28.2734 20.2599Z" fill="white"/>
</mask>
<g mask="url(#mask5_243_1103)">
<path d="M33.9459 17.3221H28.2536V23.0815H33.9459V17.3221Z" fill="url(#paint5_radial_243_1103)"/>
</g>
<mask id="mask6_243_1103" style="mask-type:luminance" maskUnits="userSpaceOnUse" x="22" y="24" width="10" height="10">
<path d="M22.743 28.9393C22.743 31.337 24.6641 33.2806 27.0327 33.2806C29.4016 33.2806 31.3216 31.337 31.3216 28.9393C31.3216 26.5428 29.4016 24.5984 27.0327 24.5984C24.6641 24.5981 22.743 26.5425 22.743 28.9393Z" fill="white"/>
</mask>
<g mask="url(#mask6_243_1103)">
<path d="M31.2866 24.575H22.7136V33.249H31.2866V24.575Z" fill="url(#paint6_radial_243_1103)"/>
</g>
<mask id="mask7_243_1103" style="mask-type:luminance" maskUnits="userSpaceOnUse" x="32" y="24" width="9" height="10">
<path d="M33.1716 27.5128C32.0858 30.0981 32.7009 32.8377 34.545 33.6314C36.3899 34.426 38.7658 32.9734 39.8518 30.3881C40.9387 27.8028 40.3237 25.0633 38.4793 24.2695C38.1364 24.1229 37.7762 24.052 37.4095 24.052C35.7978 24.052 34.0569 25.4068 33.1716 27.5128Z" fill="white"/>
</mask>
<g mask="url(#mask7_243_1103)">
<path d="M40.9771 24.1577H32.1244V34.5266H40.9771V24.1577Z" fill="url(#paint7_radial_243_1103)"/>
</g>
<mask id="mask8_243_1103" style="mask-type:luminance" maskUnits="userSpaceOnUse" x="27" y="33" width="8" height="7">
<path d="M29.8853 34.4217C28.0528 35.3241 27.0892 37.1431 27.7323 38.4841C28.3779 39.8226 30.3858 40.1775 32.2204 39.2724C34.0523 38.3716 35.0157 36.553 34.372 35.2123C33.9667 34.3739 33.0295 33.9215 31.9356 33.9215C31.2819 33.9215 30.5711 34.0836 29.8853 34.4217Z" fill="white"/>
</mask>
<g mask="url(#mask8_243_1103)">
<path d="M34.9536 33.9763H27.0292V40.225H34.9536V33.9763Z" fill="url(#paint8_radial_243_1103)"/>
</g>
<mask id="mask9_243_1103" style="mask-type:luminance" maskUnits="userSpaceOnUse" x="14" y="26" width="7" height="6">
<path d="M14.9043 28.9328C14.9043 30.5233 16.1773 31.813 17.7498 31.813C19.3218 31.813 20.5957 30.5231 20.5957 28.9328C20.5957 27.3428 19.3218 26.0529 17.7498 26.0529C16.1773 26.0526 14.9043 27.3428 14.9043 28.9328Z" fill="white"/>
</mask>
<g mask="url(#mask9_243_1103)">
<path d="M20.5714 26.0533H14.8799V31.8143H20.5714V26.0533Z" fill="url(#paint9_radial_243_1103)"/>
</g>
<path d="M50.0816 23.5222C48.7796 23.5222 47.6981 23.4434 46.8579 23.2278C46.6936 23.1786 46.528 23.0795 46.528 22.8965V21.2731C46.528 20.9657 46.7598 20.9334 46.8741 20.945C47.373 20.9947 48.5158 21.108 49.3381 21.1278C49.7184 21.1362 50.1832 21.1289 50.5158 21.0887C51.0912 21.0194 51.5981 20.7807 51.5981 20.0576C51.5981 19.6312 51.4322 19.2467 50.4621 18.7025C49.6762 18.2617 49.543 18.19 48.1564 17.4177C46.6544 16.5813 46.275 15.4078 46.275 14.1364C46.275 12.3142 47.2968 10.8724 50.4931 10.8724C51.6954 10.8724 53.1712 10.9531 53.8138 11.0962C53.9465 11.1255 54.0613 11.2135 54.0613 11.3952V13.0531C54.0613 13.3002 53.9103 13.3882 53.7481 13.3811C53.3787 13.364 52.1945 13.2815 51.1622 13.2761C50.9025 13.2742 50.7504 13.2736 50.4275 13.2994C49.4911 13.3697 49.1428 13.622 49.1428 14.2181C49.1428 14.6814 49.3679 14.8862 50.2461 15.378C51.1249 15.8684 50.6045 15.5816 52.3556 16.5593C54.1073 17.5358 54.5799 18.5398 54.5799 19.881C54.5796 21.6372 53.4268 23.5222 50.0816 23.5222Z" fill="#E66A1F"/>
<path d="M64.6098 13.404H61.4732V23.032C61.4732 23.2137 61.3248 23.3633 61.1432 23.3633H58.9392C58.7568 23.3633 58.6095 23.2137 58.6095 23.032V13.404H55.4599C55.2788 13.404 55.1316 13.2704 55.1316 13.0892V11.3347C55.1316 11.153 55.2788 11.0197 55.4599 11.0197H64.6098C64.7914 11.0197 64.9557 11.153 64.9557 11.3347V13.0895C64.9557 13.2701 64.7914 13.404 64.6098 13.404Z" fill="#E66A1F"/>
<path d="M115.254 38.1807H114.817C114.291 38.1807 113.936 38.0558 113.607 37.2761L109.448 27.5294C109.376 27.3689 109.345 27.2326 109.265 27.2326C109.192 27.2326 109.18 27.3075 109.18 27.5389C109.18 27.7708 109.181 37.8988 109.181 37.8988C109.181 38.0813 109.033 38.1804 108.901 38.1804H108.017C107.836 38.1804 107.737 38.0479 107.737 37.8497V27.1916C107.737 25.9657 108.362 25.8329 109.005 25.8329H109.47C109.931 25.8329 110.372 25.9568 110.716 26.7674L114.853 36.4831C114.92 36.6314 114.968 36.7759 115.034 36.7759C115.094 36.7759 115.105 36.6561 115.105 36.4226V26.1126C115.105 25.9304 115.255 25.8313 115.387 25.8313H116.266C116.448 25.8313 116.547 25.9636 116.547 26.1626V36.8212C116.547 38.0465 115.896 38.1807 115.254 38.1807Z" fill="#E66A1F"/>
<path d="M53.2045 38.1989C53.0934 38.2093 51.3458 38.2744 50.0392 38.2744C47.5417 38.2744 46.5283 37.6012 46.5283 35.1941V28.8191C46.5283 26.5469 47.3433 25.7273 49.9943 25.739C50.9647 25.7431 52.9029 25.8001 53.2255 25.8365C53.3239 25.8482 53.4163 25.9307 53.4163 26.044V26.8774C53.4163 26.9934 53.3488 27.1028 53.1712 27.1028L50.0246 27.0971C48.2772 27.0971 47.9981 27.5607 47.9981 28.8194V31.1214H52.1754C52.4259 31.1214 52.5051 31.2664 52.5051 31.4527V32.0819C52.5051 32.2995 52.3924 32.4133 52.1754 32.4133H47.9981V35.1949C47.9981 36.453 48.2772 36.9166 50.0246 36.9166H53.1799C53.3134 36.9166 53.4163 36.9875 53.4163 37.1157V37.9589C53.416 38.0626 53.3571 38.184 53.2045 38.1989Z" fill="#E66A1F"/>
<path d="M67.0017 38.1772H66.0958C65.9213 38.1772 65.7986 38.0534 65.7986 37.8459V26.1523C65.7986 25.9861 65.9148 25.8333 66.0958 25.8333H67.0017C67.1762 25.8333 67.2984 25.9856 67.2984 26.1523V37.8462C67.2984 38.0558 67.1965 38.1772 67.0017 38.1772Z" fill="#E66A1F"/>
<path d="M76.6765 38.1291C76.4628 38.1821 75.7261 38.2749 74.346 38.2749C72.6981 38.2749 71.7615 37.7066 71.114 36.9008C70.2079 35.7725 70.0193 34.1523 70.0193 31.9947C70.0193 29.1694 70.3768 28.0049 71.1891 27.0482C71.8974 26.214 73.021 25.7393 74.346 25.7393C75.5118 25.7393 76.5719 25.9139 76.7084 25.9353C76.846 25.9568 76.9854 25.9837 76.9854 26.1504V26.9575C76.9854 27.0726 76.9335 27.1954 76.7252 27.178C76.1923 27.1321 75.5148 27.0884 74.6108 27.0884C73.602 27.0884 72.5171 27.3792 72.0768 28.3256C71.7058 29.1238 71.5491 29.8135 71.5491 32.0159C71.5491 34.2172 71.7574 35.1739 72.252 35.8917C72.9062 36.8389 73.8953 36.9266 74.697 36.9266C75.5348 36.9266 76.402 36.8481 76.6765 36.8299C76.9281 36.8128 76.9862 36.9065 76.9862 37.1056V37.7663C76.9857 37.9765 76.907 38.0724 76.6765 38.1291Z" fill="#E66A1F"/>
<path d="M81.6922 38.2746C80.4794 38.2746 79.4438 38.1744 79.0114 38.0918C78.7496 38.0427 78.7047 37.9794 78.7047 37.7937V37.0963C78.7047 36.8932 78.8147 36.8084 79.0285 36.8304C79.4071 36.8701 80.1151 36.9236 81.6919 36.9236C83.1782 36.9236 84.1362 36.3544 84.1362 35.1443C84.1362 34.3347 83.9219 33.8465 82.0902 32.701C81.1949 32.1408 81.2166 32.1723 80.611 31.7872C78.902 30.7004 78.3645 29.9954 78.3645 28.6514C78.3645 26.587 79.6967 25.7386 82.2734 25.7386C83.2252 25.7386 84.4853 25.8361 85.098 25.9396C85.2847 25.9706 85.3574 26.0526 85.3574 26.2185V26.9694C85.3574 27.1606 85.2928 27.2502 85.0504 27.2344C84.3897 27.1893 83.2352 27.0883 82.2983 27.0883C80.6907 27.0883 79.8756 27.4443 79.8756 28.5195C79.8756 29.5272 80.4707 29.8955 81.6703 30.6377C82.3005 31.0279 82.4326 31.1175 83.1555 31.5623C85.025 32.7113 85.6806 33.626 85.6806 34.9623C85.6806 37.3059 84.0297 38.2746 81.6922 38.2746Z" fill="#E66A1F"/>
<path d="M90.4516 38.2747C89.2382 38.2747 88.2032 38.1606 87.7719 38.0783C87.5087 38.027 87.4644 37.9648 87.4644 37.7804V37.0833C87.4644 36.8796 87.5738 36.7949 87.7881 36.8175C88.1675 36.8571 88.8745 36.9242 90.4513 36.9242C91.9371 36.9242 92.895 36.355 92.895 35.1449C92.895 34.3354 92.6807 33.8471 90.8502 32.7016C89.9549 32.1414 89.977 32.1729 89.3698 31.7878C87.6625 30.701 87.1233 29.996 87.1233 28.6521C87.1233 26.5876 88.4561 25.7393 91.0328 25.7393C91.9843 25.7393 93.2444 25.8367 93.8584 25.9402C94.0449 25.9712 94.1165 26.0532 94.1165 26.2191V26.97C94.1165 27.1612 94.0524 27.2508 93.8095 27.235C93.1485 27.19 91.9933 27.0892 91.0563 27.0892C89.4509 27.0892 88.635 27.445 88.635 28.5201C88.635 29.5279 89.2301 29.8961 90.4289 30.6383C91.0591 31.0285 91.1904 31.1181 91.9146 31.563C93.7846 32.7119 94.4397 33.6266 94.4397 34.9629C94.44 37.306 92.788 38.2747 90.4516 38.2747Z" fill="#E66A1F"/>
<path d="M63.4935 37.8136L60.5841 32.779C62.0426 32.3931 63.0724 31.4296 63.0816 29.372C63.0957 26.0231 60.3303 25.7379 58.4676 25.7379C56.8035 25.7379 55.3775 25.8134 55.3775 27.722C55.3775 29.6321 55.3761 37.8464 55.3761 37.8464C55.3761 38.0678 55.4677 38.1783 55.6731 38.1783H56.5633C56.7724 38.1783 56.8765 38.0544 56.8765 37.8464C56.8765 37.8464 56.874 28.5576 56.874 27.9824C56.874 27.697 56.8827 27.4672 56.9954 27.3372C57.1808 27.1224 57.7166 27.096 58.5844 27.096C61.034 27.096 61.5742 27.9346 61.5742 29.3753C61.5742 31.1502 60.5906 31.7531 59.2637 31.7531C58.9978 31.7531 58.6371 31.6844 58.5368 31.8443C58.4376 32.0056 58.6252 32.2921 58.7387 32.4931C59.0829 33.1 61.7013 37.7644 61.811 37.9629C61.9204 38.1617 61.9969 38.1786 62.239 38.1786H63.3286C63.5467 38.1783 63.5832 37.9485 63.4935 37.8136Z" fill="#E66A1F"/>
<path d="M100.688 25.7373C96.5728 25.7373 96.2023 28.2115 96.2023 32.0037C96.2023 36.0087 96.5625 38.2719 100.688 38.2719C104.837 38.2719 105.168 36.0087 105.168 32.0069C105.168 28.2115 104.791 25.7373 100.688 25.7373ZM100.69 36.9426C97.8307 36.9426 97.7135 35.2698 97.7135 32.0034C97.7135 28.7305 97.8213 27.0693 100.69 27.0693C103.548 27.0693 103.658 28.7471 103.658 32.0034C103.659 35.2779 103.542 36.9426 100.69 36.9426Z" fill="#E66A1F"/>
<defs>
<radialGradient id="paint0_radial_243_1103" cx="0" cy="0" r="1" gradientUnits="userSpaceOnUse" gradientTransform="translate(18.9195 15.1437) rotate(180) scale(16.3591 16.6898)">
<stop stop-color="#FDC689"/>
<stop offset="0.0055" stop-color="#FDC689"/>
<stop offset="0.3297" stop-color="#F7941E"/>
<stop offset="0.3913" stop-color="#F5901E"/>
<stop offset="1" stop-color="#E66A1F"/>
</radialGradient>
<radialGradient id="paint1_radial_243_1103" cx="0" cy="0" r="1" gradientUnits="userSpaceOnUse" gradientTransform="translate(21.721 19.4101) scale(22.0608 22.5068)">
<stop stop-color="#CCDDE7"/>
<stop offset="0.1813" stop-color="#A5C3D2"/>
<stop offset="0.3065" stop-color="#94B3C2"/>
<stop offset="0.5532" stop-color="#688A9A"/>
<stop offset="0.7857" stop-color="#395F6F"/>
<stop offset="1" stop-color="#1B495A"/>
</radialGradient>
<radialGradient id="paint2_radial_243_1103" cx="0" cy="0" r="1" gradientUnits="userSpaceOnUse" gradientTransform="translate(19.047 14.7837) rotate(180) scale(15.9143 16.1069)">
<stop stop-color="#FDC689"/>
<stop offset="0.0055" stop-color="#FDC689"/>
<stop offset="0.3297" stop-color="#F7941E"/>
<stop offset="0.3913" stop-color="#F5901E"/>
<stop offset="1" stop-color="#E66A1F"/>
</radialGradient>
<radialGradient id="paint3_radial_243_1103" cx="0" cy="0" r="1" gradientUnits="userSpaceOnUse" gradientTransform="translate(19.0195 14.9192) rotate(180) scale(15.9131 16.1057)">
<stop stop-color="#FDC689"/>
<stop offset="0.0055" stop-color="#FDC689"/>
<stop offset="0.3297" stop-color="#F7941E"/>
<stop offset="0.3913" stop-color="#F5901E"/>
<stop offset="1" stop-color="#E66A1F"/>
</radialGradient>
<radialGradient id="paint4_radial_243_1103" cx="0" cy="0" r="1" gradientUnits="userSpaceOnUse" gradientTransform="translate(18.9298 14.6787) rotate(180) scale(15.9017 16.0941)">
<stop stop-color="#FDC689"/>
<stop offset="0.0055" stop-color="#FDC689"/>
<stop offset="0.3297" stop-color="#F7941E"/>
<stop offset="0.3913" stop-color="#F5901E"/>
<stop offset="1" stop-color="#E66A1F"/>
</radialGradient>
<radialGradient id="paint5_radial_243_1103" cx="0" cy="0" r="1" gradientUnits="userSpaceOnUse" gradientTransform="translate(18.9712 14.7396) rotate(180) scale(15.9138 16.1063)">
<stop stop-color="#FDC689"/>
<stop offset="0.0055" stop-color="#FDC689"/>
<stop offset="0.3297" stop-color="#F7941E"/>
<stop offset="0.3913" stop-color="#F5901E"/>
<stop offset="1" stop-color="#E66A1F"/>
</radialGradient>
<radialGradient id="paint6_radial_243_1103" cx="0" cy="0" r="1" gradientUnits="userSpaceOnUse" gradientTransform="translate(21.8472 20.2355) scale(21.3884 21.6473)">
<stop stop-color="#CCDDE7"/>
<stop offset="0.1813" stop-color="#A5C3D2"/>
<stop offset="0.3065" stop-color="#94B3C2"/>
<stop offset="0.5532" stop-color="#688A9A"/>
<stop offset="0.7857" stop-color="#395F6F"/>
<stop offset="1" stop-color="#1B495A"/>
</radialGradient>
<radialGradient id="paint7_radial_243_1103" cx="0" cy="0" r="1" gradientUnits="userSpaceOnUse" gradientTransform="translate(21.8969 20.3814) scale(21.4018 21.6608)">
<stop stop-color="#CCDDE7"/>
<stop offset="0.1813" stop-color="#A5C3D2"/>
<stop offset="0.3065" stop-color="#94B3C2"/>
<stop offset="0.5532" stop-color="#688A9A"/>
<stop offset="0.7857" stop-color="#395F6F"/>
<stop offset="1" stop-color="#1B495A"/>
</radialGradient>
<radialGradient id="paint8_radial_243_1103" cx="0" cy="0" r="1" gradientUnits="userSpaceOnUse" gradientTransform="translate(21.8388 20.3293) scale(21.4189 21.6781)">
<stop stop-color="#CCDDE7"/>
<stop offset="0.1813" stop-color="#A5C3D2"/>
<stop offset="0.3065" stop-color="#94B3C2"/>
<stop offset="0.5532" stop-color="#688A9A"/>
<stop offset="0.7857" stop-color="#395F6F"/>
<stop offset="1" stop-color="#1B495A"/>
</radialGradient>
<radialGradient id="paint9_radial_243_1103" cx="0" cy="0" r="1" gradientUnits="userSpaceOnUse" gradientTransform="translate(21.8286 20.2694) scale(21.4142 21.6734)">
<stop stop-color="#CCDDE7"/>
<stop offset="0.1813" stop-color="#A5C3D2"/>
<stop offset="0.3065" stop-color="#94B3C2"/>
<stop offset="0.5532" stop-color="#688A9A"/>
<stop offset="0.7857" stop-color="#395F6F"/>
<stop offset="1" stop-color="#1B495A"/>
</radialGradient>
</defs>
</svg>
