<svg width="58" height="40" viewBox="0 0 58 40" fill="none" xmlns="http://www.w3.org/2000/svg">
<path d="M24.3266 28.5871C24.3093 28.5951 24.2946 28.6078 24.2842 28.6238C24.2738 28.6398 24.2682 28.6584 24.268 28.6774C24.268 28.7042 24.2786 28.7299 24.2976 28.7489C24.3166 28.7678 24.3424 28.7784 24.3693 28.7784H31.4978C31.7057 28.7777 31.9087 28.7164 32.0821 28.6021C32.2554 28.4879 32.3915 28.3256 32.4736 28.1353L39.8101 10.4776C39.8328 10.4174 39.8403 10.3525 39.832 10.2887C39.8237 10.2249 39.7998 10.1641 39.7624 10.1116C39.7251 10.0591 39.6754 10.0166 39.6177 9.9877C39.56 9.9589 39.4961 9.9446 39.4315 9.9461H20.9356C20.6742 9.9363 20.4164 10.009 20.1989 10.1539C19.9815 10.2988 19.8154 10.5084 19.7244 10.7528C19.6334 10.9973 19.6221 11.2641 19.6922 11.5154C19.7622 11.7666 19.91 11.9894 20.1145 12.152L26.2301 17.8128C26.2301 17.8128 28.704 20.0878 28.1761 23.3408C28.0057 24.4597 27.5667 25.521 26.8964 26.4344C26.2262 27.3478 25.3446 28.0863 24.3266 28.5871ZM52.6597 9.9408H46.1336C45.9258 9.9415 45.7227 10.0028 45.5494 10.1171C45.376 10.2313 45.2399 10.3936 45.1579 10.5839L37.848 28.1937C37.817 28.249 37.8005 28.3112 37.8 28.3745C37.8014 28.4793 37.8442 28.5793 37.919 28.6529C37.9938 28.7265 38.0947 28.7678 38.1999 28.7678H40.6365C42.0371 28.7716 43.4077 28.3637 44.577 27.5951C45.7463 26.8264 46.6623 25.7312 47.2106 24.4464L53.0222 10.467C53.0408 10.4196 53.0499 10.369 53.0489 10.3182C53.0449 10.217 53.0024 10.1212 52.9301 10.0501C52.8578 9.9791 52.7611 9.9381 52.6597 9.9354V9.9408ZM4.33781 23.6544H21.6874C22.919 23.6544 23.4575 22.4691 22.4978 21.5283L16.0997 15.5857C12.7513 12.3114 14.1856 4.72107 21.1435 4.72107H55.1283C55.2111 4.72062 55.2917 4.69491 55.3594 4.64739C55.4271 4.59988 55.4785 4.53284 55.5068 4.4553L56.8611 1.19698C56.8814 1.14992 56.8922 1.09936 56.8931 1.04815C56.8917 0.943341 56.8489 0.843301 56.7741 0.769691C56.6993 0.696071 56.5983 0.654801 56.4932 0.654811H18.0618C16.6832 0.651121 15.3335 1.04777 14.1774 1.79631C13.0213 2.54486 12.1089 3.61288 11.5517 4.8699L3.94321 23.1069C3.92181 23.1555 3.91091 23.208 3.91121 23.2611C3.91191 23.3148 3.92341 23.3679 3.94521 23.4171C3.96691 23.4662 3.99841 23.5105 4.03771 23.5473C4.07711 23.584 4.12351 23.6125 4.17411 23.6309C4.22481 23.6493 4.27861 23.6573 4.33251 23.6544H4.33781ZM19.4694 35.125C19.2955 34.8888 19.0671 34.6978 18.8035 34.5683C18.5399 34.4388 18.2489 34.3745 17.9551 34.3808C17.4001 34.3808 16.8678 34.6006 16.4754 34.9919C16.0829 35.3831 15.8624 35.9138 15.8624 36.4671C15.8624 37.0204 16.0829 37.5511 16.4754 37.9423C16.8678 38.3336 17.4001 38.5534 17.9551 38.5534C18.2483 38.5591 18.5385 38.495 18.8019 38.3665C19.0652 38.238 19.294 38.0488 19.4694 37.8146V38.463H20.0292V34.4871H19.4694V35.125ZM17.9551 38.0431C17.5776 37.9851 17.2333 37.7943 16.9846 37.5053C16.7359 37.2162 16.5992 36.8479 16.5992 36.4671C16.5992 36.0863 16.7359 35.718 16.9846 35.429C17.2333 35.1399 17.5776 34.9491 17.9551 34.8911C18.1619 34.8939 18.3661 34.9374 18.5559 35.0192C18.7457 35.1009 18.9175 35.2193 19.0612 35.3676C19.2049 35.5158 19.3178 35.6909 19.3933 35.8828C19.4689 36.0747 19.5056 36.2796 19.5013 36.4857C19.5035 36.6899 19.4649 36.8925 19.3878 37.0817C19.3107 37.271 19.1967 37.443 19.0523 37.5879C18.9079 37.7328 18.7361 37.8477 18.5469 37.9258C18.3576 38.004 18.1547 38.0438 17.9498 38.0431H17.9551ZM24.0654 36.5867C24.0917 36.7967 24.0694 37.0098 24 37.2098C23.9307 37.4098 23.8162 37.5912 23.6655 37.7401C23.5596 37.8453 23.4327 37.927 23.2931 37.9802C23.1535 38.0333 23.0042 38.0565 22.855 38.0484C22.6891 38.0571 22.5233 38.0293 22.3694 37.9668C22.2155 37.9043 22.0773 37.8088 21.9646 37.687C21.7615 37.3889 21.6657 37.0311 21.6927 36.6718V34.4871H21.1329V36.6824C21.1007 37.1369 21.2248 37.5887 21.4848 37.9634C21.6519 38.1627 21.863 38.3207 22.1017 38.4249C22.3404 38.5292 22.6001 38.5768 22.8604 38.564C23.1071 38.5793 23.3533 38.5269 23.5723 38.4126C23.7913 38.2983 23.9747 38.1264 24.1027 37.9156V38.4471H24.6358V34.4712H24.076L24.0654 36.5867ZM50.5323 34.3808C49.9833 34.3972 49.4618 34.6241 49.0765 35.0142C48.6911 35.4043 48.4715 35.9276 48.4636 36.4751C48.4598 36.9659 48.6314 37.4421 48.9475 37.8184C49.2637 38.1947 49.7038 38.4466 50.1891 38.5291C50.6745 38.6115 51.1735 38.5191 51.5968 38.2685C52.0201 38.0178 52.3402 37.6251 52.4997 37.1608V37.1236H51.9292C51.818 37.3959 51.6264 37.6282 51.3798 37.7896C51.1332 37.9509 50.8432 38.0338 50.5483 38.0272C50.1763 38.0192 49.8199 37.8768 49.5453 37.6265C49.2707 37.3762 49.0966 37.0351 49.0554 36.6664H52.633V36.6399C52.6667 36.2003 52.5603 35.7613 52.3291 35.3854C52.1433 35.0753 51.879 34.8193 51.5627 34.643C51.2465 34.4667 50.8893 34.3763 50.527 34.3808H50.5323ZM49.0447 36.1721C49.1013 35.8158 49.2835 35.4913 49.5586 35.257C49.8338 35.0227 50.1837 34.8939 50.5456 34.8939C50.9075 34.8939 51.2575 35.0227 51.5326 35.257C51.8077 35.4913 51.99 35.8158 52.0465 36.1721H49.0447ZM56.8238 33.0892V35.1037C56.6444 34.8742 56.4147 34.6887 56.1522 34.5615C55.8897 34.4344 55.6014 34.3689 55.3096 34.3702C55.0258 34.3559 54.7422 34.3993 54.4758 34.4977C54.2095 34.5961 53.9659 34.7475 53.7601 34.9426C53.5542 35.1377 53.3903 35.3726 53.2783 35.6328C53.1663 35.8931 53.1085 36.1733 53.1085 36.4565C53.1085 36.7397 53.1663 37.0199 53.2783 37.2802C53.3903 37.5404 53.5542 37.7752 53.7601 37.9704C53.9659 38.1655 54.2095 38.3169 54.4758 38.4153C54.7422 38.5137 55.0258 38.557 55.3096 38.5428C55.6021 38.545 55.8912 38.4795 56.154 38.3513C56.4168 38.223 56.6461 38.0357 56.8238 37.8039V38.4471H57.3836V33.0892H56.8238ZM55.3096 38.0325C54.932 37.9745 54.5878 37.7837 54.3391 37.4946C54.0904 37.2056 53.9536 36.8373 53.9536 36.4565C53.9536 36.0757 54.0904 35.7074 54.3391 35.4183C54.5878 35.1293 54.932 34.9385 55.3096 34.8805C55.5163 34.8832 55.7205 34.9268 55.9103 35.0085C56.1002 35.0903 56.2719 35.2087 56.4156 35.3569C56.5593 35.5052 56.6722 35.6803 56.7478 35.8722C56.8233 36.0641 56.86 36.269 56.8558 36.4751C56.8608 36.6804 56.8244 36.8846 56.7489 37.0756C56.6733 37.2667 56.5602 37.4407 56.416 37.5873C56.2719 37.734 56.0997 37.8504 55.9096 37.9296C55.7196 38.0088 55.5155 38.0492 55.3096 38.0484V38.0325ZM47.1893 33.0892H46.6294V34.4765H45.803V35.008H46.6294V38.479H47.1893V35.008H48.133V34.4765H47.1893V33.0892ZM38.829 34.3702C38.2801 34.3866 37.7586 34.6134 37.3732 35.0036C36.9878 35.3937 36.7683 35.917 36.7603 36.4645C36.754 36.9577 36.9247 37.4369 37.2417 37.8156C37.5587 38.1943 38.001 38.4476 38.4888 38.5297C38.9767 38.6118 39.4779 38.5174 39.9021 38.2634C40.3262 38.0095 40.6453 37.6127 40.8018 37.1448V37.1076H40.1993C40.0881 37.38 39.8965 37.6123 39.6499 37.7736C39.4033 37.935 39.1133 38.0179 38.8184 38.0112C38.4464 38.0032 38.09 37.8608 37.8154 37.6106C37.5408 37.3603 37.3667 37.0191 37.3255 36.6505H40.9031V36.6239C40.9368 36.1843 40.8304 35.7453 40.5992 35.3695C40.4138 35.0673 40.1536 34.8178 39.8437 34.6446C39.5337 34.4715 39.1843 34.3807 38.829 34.3808V34.3702ZM37.3415 36.1615C37.398 35.8052 37.5802 35.4807 37.8554 35.2463C38.1305 35.012 38.4805 34.8833 38.8424 34.8833C39.2042 34.8833 39.5542 35.012 39.8294 35.2463C40.1045 35.4807 40.2867 35.8052 40.3433 36.1615H37.3415ZM43.3984 34.3862C43.1692 34.3784 42.9415 34.425 42.7339 34.522C42.5263 34.619 42.3447 34.7637 42.204 34.9443V34.4871H41.6442V38.4683H42.204V36.2784C42.1881 36.0863 42.2115 35.893 42.2729 35.7102C42.3343 35.5275 42.4324 35.3591 42.5613 35.2153C42.7881 35.0054 43.0862 34.8887 43.3957 34.8887C43.7052 34.8887 44.0033 35.0054 44.2301 35.2153C44.3584 35.3596 44.4565 35.528 44.5187 35.7105C44.581 35.893 44.6061 36.0861 44.5927 36.2784V38.463H45.1525V36.2784C45.1683 36.0233 45.1326 35.7677 45.0474 35.5266C44.9623 35.2856 44.8294 35.064 44.6567 34.8752C44.4933 34.7099 44.2967 34.581 44.0799 34.4967C43.8631 34.4124 43.6308 34.3748 43.3984 34.3862ZM28.8106 35.1356C28.6399 34.8976 28.414 34.7043 28.1523 34.5719C27.8905 34.4396 27.6006 34.3722 27.3071 34.3755C26.752 34.3755 26.2198 34.5953 25.8273 34.9866C25.4348 35.3778 25.2144 35.9085 25.2144 36.4618C25.2144 37.0151 25.4348 37.5458 25.8273 37.937C26.2198 38.3283 26.752 38.5481 27.3071 38.5481C27.6016 38.5575 27.8937 38.4927 28.1564 38.3599C28.4192 38.2271 28.6442 38.0304 28.8106 37.788V38.0484C28.827 38.2374 28.8024 38.4276 28.7386 38.6062C28.6747 38.7849 28.5732 38.9477 28.4407 39.0838C28.3082 39.2199 28.148 39.326 27.9708 39.395C27.7936 39.464 27.6036 39.4942 27.4137 39.4836C27.1012 39.492 26.7938 39.4028 26.5347 39.2283C26.2756 39.0539 26.0777 38.803 25.9688 38.5109H25.377V38.5481C25.4959 38.9028 25.7066 39.2199 25.9878 39.4674C26.269 39.715 26.6107 39.8843 26.9784 39.9581C27.3461 40.032 27.7269 40.0079 28.0823 39.8881C28.4377 39.7684 28.7551 39.5574 29.0026 39.2763C29.2856 38.8478 29.4135 38.3359 29.3651 37.8252V34.4978H28.8053L28.8106 35.1356ZM27.3071 38.0378C26.9881 38.0516 26.6723 37.9699 26.4003 37.8033C26.1283 37.6367 25.9126 37.3927 25.7808 37.1028C25.649 36.8129 25.6073 36.4904 25.661 36.1766C25.7147 35.8629 25.8613 35.5723 26.082 35.3424C26.3026 35.1124 26.5873 34.9535 26.8993 34.8862C27.2114 34.8188 27.5364 34.8461 27.8328 34.9645C28.1291 35.0829 28.3831 35.287 28.5622 35.5505C28.7412 35.814 28.837 36.1249 28.8373 36.4432C28.8444 36.6468 28.8111 36.8498 28.7393 37.0405C28.6675 37.2312 28.5587 37.4059 28.4189 37.5546C28.2792 37.7033 28.1115 37.8229 27.9252 37.9068C27.739 37.9906 27.538 38.037 27.3337 38.0431L27.3071 38.0378ZM34.4676 34.3808C34.2041 34.3777 33.9441 34.442 33.7126 34.5677C33.4811 34.6933 33.2858 34.876 33.1454 35.0984C33.0049 34.876 32.8096 34.6933 32.5781 34.5677C32.3466 34.442 32.0866 34.3777 31.8231 34.3808C31.6199 34.3735 31.4178 34.4135 31.2327 34.4974C31.0477 34.5813 30.8847 34.707 30.7567 34.8645V34.4818H30.1969V38.463H30.7567V36.1615C30.7387 35.8828 30.7996 35.6046 30.9327 35.3589C31.0267 35.2152 31.1551 35.0971 31.3064 35.0154C31.4577 34.9337 31.627 34.891 31.7991 34.891C31.9711 34.891 32.1405 34.9337 32.2918 35.0154C32.4431 35.0971 32.5715 35.2152 32.6655 35.3589C32.7988 35.6045 32.8598 35.8828 32.8415 36.1615V38.463H33.4013V36.1615C33.3832 35.8828 33.4442 35.6046 33.5772 35.3589C33.6712 35.2152 33.7997 35.0971 33.951 35.0154C34.1023 34.9337 34.2716 34.891 34.4437 34.891C34.6157 34.891 34.7851 34.9337 34.9363 35.0154C35.0876 35.0971 35.2161 35.2152 35.3101 35.3589C35.4431 35.6046 35.5041 35.8828 35.486 36.1615V38.463H36.0459V36.103C36.0626 35.8875 36.0351 35.6709 35.9653 35.4663C35.8954 35.2617 35.7846 35.0734 35.6394 34.9128C35.4943 34.7523 35.318 34.6228 35.1211 34.5322C34.9243 34.4417 34.711 34.392 34.4943 34.3862L34.4676 34.3808ZM1.81051 33.0892H0.664211V33.6207H1.27731V37.9793H0.616211V38.479H2.45031V37.9793H1.81051V33.0892ZM4.16721 32.951H3.63401V33.7483H4.16721V32.951ZM13.9243 37.2033C13.7859 37.2012 13.65 37.2405 13.5342 37.3162C13.4184 37.3918 13.328 37.5002 13.2745 37.6275C13.2211 37.7549 13.2072 37.8952 13.2345 38.0305C13.2618 38.1658 13.3291 38.2898 13.4277 38.3867C13.5264 38.4835 13.6519 38.5486 13.788 38.5737C13.9241 38.5988 14.0647 38.5827 14.1915 38.5274C14.3184 38.4721 14.4257 38.3803 14.4997 38.2637C14.5737 38.147 14.611 38.011 14.6068 37.873C14.6042 37.6961 14.5336 37.527 14.4096 37.4004C14.2856 37.2738 14.1176 37.1995 13.9403 37.1927L13.9243 37.2033ZM10.0534 34.4978C9.68721 34.5016 9.32881 34.6038 9.01591 34.7936C8.70311 34.9834 8.44731 35.2538 8.27561 35.5763C8.10391 35.8988 8.02271 36.2615 8.04031 36.6262C8.05801 36.9909 8.17401 37.3441 8.37611 37.6486C8.57821 37.9531 8.85901 38.1976 9.18871 38.3564C9.51851 38.5153 9.88521 38.5825 10.25 38.5511C10.6149 38.5196 10.9646 38.3907 11.2621 38.1778C11.5597 37.965 11.7942 37.676 11.9409 37.3415V37.299H11.4077C11.2448 37.5682 11.001 37.7796 10.711 37.9031C10.4209 38.0266 10.0992 38.0561 9.79151 37.9873C9.48371 37.9185 9.20541 37.755 8.99601 37.5199C8.78651 37.2847 8.65661 36.9899 8.62451 36.6771H12.1382V36.5017C12.1368 36.233 12.0818 35.9673 11.9765 35.72C11.8711 35.4727 11.7174 35.2488 11.5244 35.0613C11.3314 34.8738 11.1028 34.7265 10.8521 34.6279C10.6014 34.5294 10.3335 34.4815 10.0641 34.4871L10.0534 34.4978ZM8.60321 36.2784C8.65591 35.9198 8.83631 35.5921 9.11141 35.3551C9.38641 35.1181 9.73791 34.9877 10.1014 34.9877C10.465 34.9877 10.8164 35.1181 11.0915 35.3551C11.3666 35.5921 11.547 35.9198 11.5997 36.2784H8.60321ZM4.30581 34.5137H3.14351V35.0187H3.77791V37.99H3.12751V38.4896H4.94031V37.99H4.31111L4.30581 34.5137ZM6.50251 33.3815C6.36001 33.5256 6.25201 33.6998 6.18651 33.8912C6.12091 34.0826 6.09961 34.2863 6.12391 34.4871V34.5137H5.50011V35.0452H6.13991V38.0006H5.50011V38.5056H7.31821V38.0006H6.67311V35.0452H7.31821V34.5137H6.67311V34.4287C6.65231 34.2973 6.66491 34.1628 6.70961 34.0375C6.75431 33.9121 6.82971 33.7999 6.92901 33.7111C7.08251 33.5949 7.26951 33.5315 7.46221 33.5304H7.48891V33.052H7.45691C7.11411 33.0347 6.77681 33.1424 6.50781 33.355L6.50251 33.3815Z" fill="white"/>
</svg>
