<svg width="92" height="33" viewBox="0 0 92 33" fill="none" xmlns="http://www.w3.org/2000/svg">
<mask id="mask0_12_4278" style="mask-type:luminance" maskUnits="userSpaceOnUse" x="0" y="0" width="92" height="33">
<path d="M92 0.535889H0.77002V32.7144H92V0.535889Z" fill="white"/>
</mask>
<g mask="url(#mask0_12_4278)">
<path fill-rule="evenodd" clip-rule="evenodd" d="M44.8739 29.6444L39.2979 28.6329V27.9426H37.7984V28.6329L32.2832 29.6444V30.886L38.5191 29.7456L44.8739 30.8987V29.6444ZM90.3028 25.0345V23.5172H84.1788V22.2225H87.1188V20.7786H84.1788V19.4813H87.1188V18.6595H88.5578V19.4813H92.0128V20.7786H88.5458V22.2225H91.8128V25.7779L89.3218 27.3862L91.9998 29.1109V30.8279L87.9888 28.2435L83.9786 30.8279V29.1109L86.6588 27.3862L84.1788 25.7779V24.0635L88.0018 26.5265L90.3028 25.0345ZM39.3283 18.5305H37.8287V19.0818H32.225V20.7938H33.6614V20.2223H43.4325V20.7938H44.932V19.0818H39.3283V18.5305ZM49.5141 18.9731H48.0171V30.6053H52.4171C52.6016 30.6053 52.7785 30.5321 52.9089 30.4017C53.0393 30.2713 53.1126 30.0944 53.1126 29.9099V18.9731H49.5141ZM55.0344 20.7862L54.7664 26.7819L54.1038 30.8279H55.6034L56.2634 26.7819L56.4176 23.3655H59.4522V29.5458H58.7264V30.8279H60.2563C60.4407 30.8279 60.6176 30.7546 60.748 30.6242C60.8784 30.4938 60.9517 30.3169 60.9517 30.1325V22.1593H56.4733L56.534 20.7938H61.1237V19.58H58.3597V18.6671H56.8678V19.58H53.8333V20.7938L55.0344 20.7862ZM51.6105 23.7372H49.5141V20.197H51.6105V23.7372ZM49.5141 24.951H51.6105V29.3309H49.5141V24.951ZM79.9756 30.8279H81.4928C81.5843 30.8282 81.675 30.8105 81.7597 30.7757C81.8444 30.7409 81.9213 30.6897 81.9862 30.6251C82.051 30.5605 82.1025 30.4837 82.1376 30.3992C82.1727 30.3146 82.1908 30.224 82.1908 30.1325V26.2508L83.3287 25.8108V24.3669L82.1908 24.8373V21.9519H83.359V20.6597H82.1908V18.6595H80.6912V20.6597H79.5533V21.9519H80.6912V25.3379L79.5533 25.7805V27.2522L80.6912 26.7793V29.5458H79.9654L79.9756 30.8279ZM65.3593 30.8279L65.5515 24.1292H64.1506L63.9483 30.8279H65.3593ZM70.6697 23.2416H72.2553L73.9875 26.1724H72.4019L70.6697 23.2416ZM70.6697 19.5926H72.2553L73.9875 22.5234H72.4019L70.6697 19.5926ZM68.7934 30.8304H70.1969L70.1539 29.3915C71.8557 29.0704 73.1681 28.8352 74.4376 28.5925V30.8304H75.8739V28.3017L76.6325 28.1449V26.7667L75.8739 26.9235V18.8719H74.4376V27.2168C73.0872 27.4697 71.5902 27.7504 70.1159 28.0285L70.0173 24.1292H68.6138L68.7934 30.8304ZM70.1665 21.8533V23.1708H67.8173V30.8304H66.3784V23.1708H63.9331V21.8533H66.3784V20.111L64.1405 20.2147V18.9503L70.0173 18.6595V19.8607L67.8249 19.9896V21.8508L70.1665 21.8533ZM34.6703 28.7821H33.1708V27.28H32.0303L33.7701 25.6338H32.1188V24.4908H35.0269V23.9294H32.6321V22.8421H35.0269V22.2706H32.4627V21.1908H35.0395V20.685H36.5391V21.1908H40.6154V20.685H42.115V21.1908H44.6943V22.2706H42.115V22.8421H44.5123V23.9294H42.115V24.4984H44.9826V25.6414H43.6626L45.104 27.1005H43.9711V28.7897H42.5322V27.5961H34.683L34.6703 28.7821ZM34.8499 26.3924H42.5221L41.7433 25.6338H35.6995L34.8499 26.3924ZM40.6028 24.4908V23.9294H36.5391V24.4984L40.6028 24.4908ZM40.6028 22.8446V22.2731H36.5391V22.8446H40.6028Z" fill="white"/>
<path fill-rule="evenodd" clip-rule="evenodd" d="M60.5244 12.3147L62.7852 11.809V13.0961L61.1668 13.4603C60.9962 13.4962 60.8449 13.5941 60.7422 13.7349C60.6395 13.8758 60.5926 14.0497 60.6105 14.2231C60.6284 14.3965 60.7099 14.5571 60.8392 14.674C60.9685 14.7909 61.1366 14.8558 61.3109 14.8561H63.4376C63.4892 14.8561 63.5387 14.8356 63.5753 14.7991C63.6118 14.7626 63.6323 14.7131 63.6323 14.6614V11.5384C63.6323 11.3513 63.558 11.1718 63.4256 11.0395C63.2933 10.9072 63.1139 10.8329 62.9268 10.8329H59.8923V9.62923H63.1797C63.686 9.62923 64.1716 9.83033 64.5297 10.1884C64.8877 10.5464 65.0889 11.0321 65.0889 11.5384V15.0256C65.0889 15.3005 64.9796 15.5642 64.7852 15.7587C64.5908 15.9531 64.327 16.0624 64.0521 16.0624H61.0479C60.5874 16.0622 60.1425 15.8956 59.7952 15.5934C59.4478 15.2911 59.2214 14.8735 59.1577 14.4174C59.0939 13.9614 59.1972 13.4977 59.4483 13.1118C59.6995 12.7258 60.0817 12.4437 60.5244 12.3173M78.0842 16.0624H76.6301V9.62673H78.0842V16.0624ZM82.818 16.0624H81.4423L78.9136 9.62923H80.4308L82.1504 13.9862L83.87 9.62923H85.3749L82.818 16.0624ZM90.6139 13.3743L88.0549 13.9331V12.646L89.9819 12.2237C90.1529 12.1877 90.3039 12.0899 90.4069 11.949C90.5089 11.8082 90.5559 11.6343 90.5379 11.4609C90.5199 11.2875 90.4389 11.1268 90.3099 11.0099C90.1799 10.893 90.0119 10.8282 89.8379 10.8278H87.8709C87.6829 10.8278 87.5039 10.9022 87.3719 11.0345C87.2389 11.1668 87.1649 11.3462 87.1649 11.5333V14.1481C87.1649 14.3352 87.2389 14.5147 87.3719 14.647C87.5039 14.7793 87.6829 14.8536 87.8709 14.8536H91.4919V16.0573H87.6229C87.1159 16.0573 86.6309 15.8561 86.2729 15.4981C85.9149 15.1401 85.7139 14.6544 85.7139 14.1481V11.5384C85.7139 11.0321 85.9149 10.5464 86.2729 10.1884C86.6309 9.83033 87.1159 9.62923 87.6229 9.62923H90.0909C90.5509 9.62933 90.9959 9.79593 91.3439 10.0982C91.6909 10.4005 91.9169 10.8181 91.9809 11.2741C92.0449 11.7302 91.9419 12.1939 91.6899 12.5798C91.4389 12.9657 91.0569 13.2479 90.6139 13.3743ZM75.6085 11.1464H71.6687V8.59243H75.6742V7.38873H70.9429C70.8494 7.38843 70.7567 7.40653 70.6702 7.44213C70.5837 7.47763 70.5051 7.52993 70.4388 7.59593C70.3726 7.66203 70.32 7.74043 70.2842 7.82683C70.2483 7.91323 70.2298 8.00583 70.2298 8.09933V16.0624H71.6687V12.3501H75.6085V11.1464ZM78.0842 7.55813H76.6301V8.92373H78.0842V7.55813ZM56.9184 14.1531C56.9184 14.3403 56.9928 14.5197 57.1251 14.652C57.2574 14.7843 57.4368 14.8587 57.624 14.8587H58.4458V16.0624H57.3736C56.8673 16.0624 56.3816 15.8612 56.0236 15.5032C55.6656 15.1451 55.4644 14.6595 55.4644 14.1531V8.91363L56.9184 8.44573V9.62673H58.8757V10.8304H56.9184V14.1531ZM67.4001 11.5384C67.4001 11.3513 67.4745 11.1718 67.6068 11.0395C67.7391 10.9072 67.9186 10.8329 68.1057 10.8329H69.4156V9.62923H67.8553C67.349 9.62923 66.8633 9.83033 66.5053 10.1884C66.1473 10.5464 65.9461 11.0321 65.9461 11.5384V16.0624H67.4001V11.5384ZM54.0862 7.38623H50.3462C49.0995 7.38623 48.0703 8.43063 47.9995 9.76573C47.9995 10.7646 48.4623 11.6016 49.3827 11.895H49.403L52.3161 12.7396C52.5098 12.7892 52.6809 12.903 52.8017 13.0623C52.9225 13.2216 52.9857 13.4172 52.9812 13.617C52.9764 13.9296 52.8526 14.2287 52.6351 14.4532C52.4176 14.6778 52.1226 14.811 51.8103 14.8258H48.1512V16.0725H52.1467C53.3933 16.0725 54.4226 15.0256 54.4908 13.6929C54.4908 12.6814 54.0306 11.857 53.1101 11.5637H53.0899L50.1667 10.7267C49.9735 10.6765 49.8029 10.5626 49.6826 10.4033C49.5623 10.244 49.4994 10.0487 49.5041 9.84923C49.5122 9.53753 49.6384 9.24063 49.8572 9.01853C50.076 8.79643 50.371 8.66583 50.6825 8.65313H54.0862V7.38623Z" fill="white"/>
<path fill-rule="evenodd" clip-rule="evenodd" d="M23.076 17.3345C21.4955 16.4646 19.8948 15.5644 18.3447 14.7046C16.5492 13.6931 12.5538 11.5867 10.7179 10.5827L10.6876 10.5676C10.5864 10.5119 10.6496 13.9865 10.6496 13.9865C10.8444 14.0977 12.8927 15.2028 13.1228 15.3318C14.1343 15.8982 15.1458 16.4646 16.1573 17.0311C17.8541 17.9819 19.6116 18.963 21.3463 19.9113C22.0822 20.3109 22.5373 20.7382 22.5196 21.6359C22.507 22.4881 22.0746 22.9003 21.3792 23.2771C20.0288 24.018 18.6608 24.7944 17.3332 25.5277C15.3987 26.6125 13.3984 27.7328 11.4133 28.7974C11.0884 28.9611 10.8067 29.1994 10.5915 29.4928C10.4775 29.2873 10.3141 29.1135 10.1161 28.987C7.99701 27.7758 6.13331 26.739 3.89791 25.4948L1.84961 24.3518V24.5213C1.84961 24.7918 1.84961 25.0548 1.84961 25.3128C1.84961 25.5707 1.84961 25.8033 1.84961 26.0436C1.84961 26.5341 1.84961 27.0121 1.86981 27.4875C1.89321 27.5976 1.93981 27.7015 2.00651 27.7922C2.07321 27.8829 2.15851 27.9584 2.25671 28.0135C4.56291 29.3133 6.60361 30.4487 9.02621 31.8066L10.5713 32.6689L10.6598 32.717C10.6598 32.717 14.5642 30.6282 16.0738 29.7861C18.434 28.4712 20.7891 27.1588 23.1392 25.8489C24.6843 24.9941 25.4656 23.573 25.4656 21.6107V21.5778C25.4656 19.6256 24.659 18.1968 23.0911 17.3371" fill="white"/>
<path fill-rule="evenodd" clip-rule="evenodd" d="M17.7735 7.95507C20.2162 9.31557 22.525 10.6028 24.854 11.9152C24.951 11.9733 25.0343 12.0518 25.098 12.1452C25.1618 12.2386 25.2045 12.3448 25.2232 12.4563C25.2459 13.1619 25.2434 13.8851 25.2409 14.6462C25.2409 14.9193 25.2409 15.2 25.2409 15.4908V15.6603L23.4101 14.6361C21.0128 13.2934 18.747 12.0264 16.4737 10.7317C16.3564 10.6498 16.2583 10.5434 16.1863 10.4198C16.1142 10.2963 16.0699 10.1585 16.0564 10.0161C16.0387 9.60387 16.0337 9.18917 16.0337 8.75167C16.0337 8.49877 16.0337 8.24597 16.0337 7.99307C16.0337 7.74017 16.0337 7.43167 16.0337 7.13077V6.98657L17.7735 7.95507Z" fill="white"/>
<path fill-rule="evenodd" clip-rule="evenodd" d="M3.14425 15.9183C4.72475 16.7856 6.32545 17.6884 7.87555 18.5456C9.67105 19.5571 13.6664 21.6636 15.5023 22.6675L15.5326 22.6852C15.6338 22.7408 15.5705 19.2638 15.5705 19.2638C15.3758 19.1551 13.3275 18.0475 13.0974 17.921C12.0859 17.3546 11.0744 16.7882 10.0629 16.2217C8.36614 15.2709 6.60864 14.2872 4.87144 13.3415C4.13804 12.9394 3.68295 12.5146 3.70065 11.6168C3.70065 10.7647 4.14565 10.3525 4.84105 9.97568C6.19145 9.23218 7.55944 8.45838 8.88704 7.72508C10.8215 6.64018 12.8218 5.51748 14.8069 4.45288C15.1399 4.29528 15.4298 4.05928 15.6515 3.76498C15.7654 3.97048 15.9288 4.14428 16.1269 4.27078C18.246 5.48208 20.1097 6.51628 22.3451 7.76298L24.3934 8.90348V8.73658C24.3934 8.46598 24.3934 8.20048 24.3934 7.94258C24.3934 7.68458 24.3934 7.45198 24.3934 7.21168C24.3934 6.72118 24.3934 6.24318 24.3732 5.76778C24.3496 5.65808 24.3029 5.55458 24.2362 5.46428C24.1695 5.37408 24.0843 5.29908 23.9863 5.24438C21.68 3.94458 19.6393 2.80918 17.2168 1.45122L15.6717 0.58638L15.5832 0.53833C15.5832 0.53833 11.6788 2.62708 10.1691 3.47168C7.80895 4.78328 5.45385 6.09488 3.10385 7.40648C1.55875 8.26368 0.777344 9.68228 0.777344 11.6447V11.6775C0.777344 13.6323 1.58404 15.0585 3.15184 15.9208" fill="white"/>
<path fill-rule="evenodd" clip-rule="evenodd" d="M8.44707 25.2974C6.00427 23.9344 3.69557 22.6472 1.36657 21.3373C1.26947 21.2792 1.18627 21.2008 1.12247 21.1073C1.05877 21.0139 1.01607 20.9077 0.997367 20.7962C0.974567 20.0881 0.977067 19.3674 0.979667 18.6038C0.979667 18.3332 0.979667 18.0525 0.979667 17.7617V17.5923L2.81047 18.6164C5.20777 19.9566 7.47347 21.2235 9.74687 22.5208C9.86377 22.6028 9.96147 22.7093 10.0331 22.8329C10.1047 22.9565 10.1486 23.0942 10.1616 23.2364C10.1793 23.6461 10.1844 24.0633 10.1844 24.5008C10.1844 24.7537 10.1844 24.9914 10.1844 25.2443C10.1844 25.4972 10.1844 25.8082 10.1844 26.1066V26.276L8.44707 25.2974Z" fill="white"/>
</g>
</svg>
