<svg width="175" height="49" viewBox="0 0 175 49" fill="none" xmlns="http://www.w3.org/2000/svg">
<path d="M160.983 29.467C160.748 29.5294 160.767 29.7641 160.699 29.9233C159.992 31.6169 158.679 32.5852 156.902 32.7345C155.113 32.8855 153.303 32.81 151.502 32.8182C149.4 32.8281 147.299 32.8084 145.197 32.8297C144.724 32.8346 144.536 32.7493 144.529 32.2143C144.505 30.1432 144.482 30.1448 146.589 30.1448C149.809 30.1448 153.03 30.1497 156.25 30.1366C157.535 30.1317 158.259 29.682 158.523 28.7974C158.853 27.6962 158.252 26.5852 157.117 26.2291C156.674 26.0896 156.211 26.0535 155.743 26.0551C153.368 26.0617 150.994 26.0732 148.619 26.0502C146.572 26.0305 145.118 25.0803 144.582 23.4638C143.699 20.8035 145.333 18.286 148.136 18.2171C151.873 18.1252 155.613 18.1908 159.354 18.1892C159.436 18.1892 159.557 18.1613 159.593 18.2023C160.117 18.8079 159.718 19.525 159.811 20.1864C159.875 20.6443 159.465 20.5048 159.23 20.5048C156.065 20.513 152.899 20.5114 149.732 20.5097C149.295 20.5097 148.86 20.513 148.432 20.6295C147.583 20.8626 147.03 21.4796 147.08 22.1476C147.139 22.9419 147.765 23.5868 148.676 23.6082C150.831 23.6558 152.988 23.641 155.144 23.641C156.075 23.641 157.003 23.6426 157.895 23.9495C159.544 24.5157 160.478 25.7351 160.982 27.3401V29.4637L160.983 29.467Z" fill="white"/>
<path d="M56.3214 34.6887C53.6742 34.6887 51.0271 34.6789 48.3799 34.7002C47.9024 34.7035 47.7284 34.6165 47.7251 34.0864C47.712 31.9612 47.689 31.9628 49.8209 31.9628C54.3783 31.9628 58.9357 31.9661 63.4948 31.9579C63.9838 31.9579 64.4877 31.9546 64.957 31.8413C66.6769 31.4229 67.9242 29.785 67.7666 28.2194C67.6042 26.5946 66.178 25.2867 64.3104 25.2341C61.6108 25.1587 58.9078 25.2046 56.2065 25.1849C54.8444 25.1751 53.474 25.2834 52.1201 25.0585C49.9095 24.6926 48.1239 23.7342 47.4412 21.4333C46.468 18.151 48.4998 15.1379 52.0101 14.6144C52.5484 14.534 53.0966 14.4814 53.6398 14.4814C58.4434 14.4847 63.2453 14.5126 68.0489 14.5061C68.6036 14.5061 68.794 14.6291 68.7891 15.2183C68.7727 17.0941 68.7989 17.0941 66.9526 17.0941C62.4494 17.0941 57.9461 17.1007 53.4428 17.0892C52.3646 17.0859 51.4686 17.424 50.799 18.2905C50.1622 19.116 49.9932 20.0071 50.4625 20.959C50.9336 21.9158 51.6967 22.4557 52.7962 22.4557C56.3706 22.4557 59.9466 22.4475 63.521 22.4623C66.4094 22.4738 69.1518 24.3824 69.8853 26.8572C71.0358 30.7385 68.1917 34.6099 64.0987 34.6789C61.5074 34.7215 58.9127 34.6871 56.3214 34.6887Z" fill="white"/>
<path d="M139.007 28.0554C139.007 25.0358 139.023 22.0161 138.993 18.9964C138.987 18.4023 139.067 18.1529 139.76 18.1709C141.657 18.2185 141.657 18.1808 141.657 20.0631C141.657 23.8459 141.66 27.6304 141.654 31.4132C141.654 31.9088 141.815 32.4914 141.151 32.7376C140.548 32.9624 140.031 32.7737 139.576 32.3569C137.543 30.5007 135.596 28.5543 133.647 26.6096C132.34 25.3065 130.916 24.1233 129.614 22.9499C129.614 23.8853 129.614 25.1178 129.614 26.3519C129.614 28.2031 129.595 30.0543 129.626 31.9039C129.636 32.475 129.537 32.7146 128.879 32.7048C126.923 32.6769 126.923 32.7097 126.923 30.7633C126.923 26.9805 126.923 23.1961 126.923 19.4132C126.923 18.358 127.31 18.0101 128.364 18.1102C129.079 18.1791 129.634 18.5221 130.121 19.0423C132.86 21.9668 135.654 24.8388 138.495 27.6665C138.644 27.8142 138.742 28.0128 138.864 28.1884C138.913 28.1441 138.961 28.0998 139.01 28.0554H139.007Z" fill="white"/>
<path d="M89.2407 23.0845C89.2407 24.335 89.2522 25.5872 89.239 26.8378C89.2079 29.7672 87.8113 31.6315 84.9787 32.3323C82.3348 32.9871 79.6729 32.9182 77.0651 32.1058C74.3687 31.2639 73.128 29.6113 73.087 26.8181C73.0476 24.1266 73.0903 21.4335 73.0673 18.7404C73.0624 18.2333 73.2216 18.102 73.7172 18.0987C75.4716 18.0823 75.4716 18.0626 75.4716 19.817C75.4716 21.8569 75.4716 23.8969 75.4716 25.9368C75.4716 28.6479 76.1871 29.5473 78.8654 30.0134C80.5919 30.3137 82.3397 30.3596 84.0678 29.974C86.0142 29.5407 86.7708 28.6053 86.7823 26.5982C86.7987 23.9871 86.802 21.3761 86.7741 18.765C86.7675 18.212 86.8889 18.02 87.4847 18.0265C89.2407 18.0479 89.2407 18.02 89.2407 19.7366C89.2407 20.8509 89.2407 21.9669 89.2407 23.0812V23.0845Z" fill="white"/>
<path d="M105.829 25.4184C105.829 23.2439 105.844 21.0694 105.818 18.8949C105.811 18.3583 105.911 18.1384 106.52 18.1416C108.381 18.1548 108.381 18.1269 108.381 19.9961C108.381 23.1504 108.403 26.303 108.365 29.4556C108.357 30.1137 108.56 30.2499 109.179 30.2434C112.041 30.2122 114.905 30.245 117.769 30.2155C118.363 30.2089 118.556 30.3369 118.543 30.972C118.504 32.7838 118.538 32.7855 116.717 32.7855C113.336 32.7855 109.954 32.7674 106.573 32.8019C105.941 32.8084 105.805 32.6214 105.815 32.024C105.851 29.8232 105.829 27.6208 105.829 25.4184Z" fill="white"/>
<path d="M91.8404 25.3804C91.8404 23.178 91.8584 20.974 91.8273 18.7716C91.8207 18.2579 91.9717 18.1463 92.4657 18.1447C94.3661 18.1397 94.3661 18.12 94.3661 20.0418C94.3661 23.1977 94.3792 26.352 94.3546 29.5079C94.3497 30.0691 94.4925 30.2513 95.0784 30.2464C97.97 30.2168 100.863 30.2529 103.755 30.2168C104.379 30.2086 104.523 30.3826 104.513 30.9832C104.482 32.7836 104.51 32.7852 102.68 32.7852C99.324 32.7852 95.9678 32.7639 92.6117 32.8033C91.9438 32.8115 91.8158 32.6047 91.8256 31.9909C91.8617 29.7885 91.8404 27.5845 91.8404 25.3821V25.3804Z" fill="white"/>
<path d="M123.46 25.4313C123.46 27.6599 123.446 29.8902 123.472 32.1189C123.477 32.6063 123.373 32.7622 122.852 32.7622C120.956 32.7655 120.956 32.7885 120.956 30.8683C120.956 26.8722 120.968 22.876 120.943 18.8799C120.94 18.2923 121.056 18.0823 121.696 18.0921C123.46 18.1217 123.46 18.0905 123.46 19.8842V25.4296V25.4313Z" fill="white"/>
<g clip-path="url(#clip0_2216_5145)">
<path d="M36.6155 4.63525H14.8261V45.0435H36.6155V4.63525Z" fill="#1994CF"/>
<path d="M36.6155 17.1136V13.2014V4.63525H14.8261V45.0435H36.6155V36.2475V24.449V17.1136ZM16.7822 6.59136H34.6594V13.2014H19.555C18.5655 13.2014 17.6282 13.4182 16.7822 13.8061V6.59136ZM16.7822 25.9649C17.6266 26.3513 18.5655 26.5697 19.555 26.5697H32.0675C33.2526 26.5697 34.2633 27.3195 34.6594 28.3677V32.3304C34.2633 33.3786 33.2526 34.1284 32.0675 34.1284H16.7822V25.9666V25.9649ZM34.6594 43.0874H16.7822V38.0406H32.0675C32.9869 38.0406 33.8623 37.8532 34.6594 37.5157V43.089V43.0874ZM34.6594 23.1824C33.8623 22.845 32.9869 22.6575 32.0675 22.6575H19.555C18.026 22.6575 16.7822 21.4137 16.7822 19.8847C16.7822 18.3557 18.026 17.1119 19.555 17.1119H34.6594V23.1824Z" fill="#282425"/>
</g>
<defs>
<clipPath id="clip0_2216_5145">
<rect width="21.7894" height="40.4082" fill="white" transform="translate(14.8261 4.63525)"/>
</clipPath>
</defs>
</svg>
