<svg width="113" height="25" viewBox="0 0 113 25" fill="none" xmlns="http://www.w3.org/2000/svg">
<path fill-rule="evenodd" clip-rule="evenodd" d="M52.953 8.82067V20.9156H47.7008C47.2768 20.8635 47.0111 20.6511 47.0111 20.2265V8.82067H43.1918V21.1279C43.2979 22.9855 44.4644 24.0458 46.6398 24.2047H56.6662V8.82067H52.953ZM41.7061 8.55494H31.7859C29.3989 8.6611 28.3379 10.0399 28.603 12.7989C28.7091 13.4359 28.9742 14.0195 29.6106 14.6564L37.0909 19.9608C37.6217 20.332 37.6217 20.6511 37.0909 21.0224H28.4434V24.0992H38.5225C40.9096 24.0458 41.9706 22.5074 41.5466 19.5895C41.3342 18.7415 40.7513 17.999 39.7431 17.4141L33.0586 12.6934C32.5812 12.3749 32.6874 12.1098 33.2175 11.8447H41.7061V8.55494ZM71.2556 12.003C71.679 11.8968 71.9447 12.2681 71.9447 12.9572V24.3103H75.5517L75.6585 12.1619C75.6585 10.1461 74.4914 8.97896 72.316 8.82003C72.316 8.92619 67.8063 8.92619 58.682 8.82003V24.0986H62.2903V12.003H65.2081V24.2041H69.0275V12.003H71.2556ZM93.3241 2.7198V8.92683H86.5335C84.9417 8.82067 83.7746 9.88166 83.191 11.8975V21.0224C83.191 22.9855 84.3047 24.0992 86.5335 24.3649H97.1428V2.7198H93.3241ZM93.3241 21.1273H87.5939C87.0637 21.1273 86.7992 20.8628 86.9048 20.3848V12.9578C86.9048 12.3749 87.1705 12.1098 87.5939 12.1098H93.3241V21.1273ZM103.35 21.2862C102.554 21.1273 102.448 20.8628 103.085 20.3848L108.55 16.4065V21.2862H103.35ZM100.222 8.97959V12.1098H108.126L99.7969 18.1045C98.842 18.5292 98.364 19.6963 98.4708 21.3936C98.5763 22.4553 99.1065 23.2499 100.061 23.8335C100.857 24.3115 101.494 24.4705 102.078 24.4705H112.157V12.003C112.103 10.3057 111.043 9.24468 108.973 8.97896C109.08 9.08576 106.162 9.08576 100.222 8.97959ZM80.8573 8.92683H77.1435V24.3643H80.8573V8.92683ZM80.008 3.14382C80.2737 3.40891 80.4327 3.78016 80.4327 4.15141C80.4327 4.57543 80.2737 4.84115 80.008 5.10624C79.7435 5.37133 79.3723 5.53089 79.001 5.53089C78.5764 5.53089 78.3107 5.37133 78.0462 5.10624C77.7805 4.84115 77.6216 4.57606 77.6216 4.15141C77.6216 3.78016 77.7805 3.40891 78.0462 3.14382C78.3107 2.87873 78.5764 2.7198 79.001 2.7198C79.3723 2.7198 79.7435 2.87873 80.008 3.14382ZM81.76 1.39372C80.9641 0.597814 80.0614 0.226562 79.001 0.226562C77.9394 0.226562 77.0914 0.597814 76.2955 1.39372C75.4996 2.18898 75.1283 3.09105 75.1283 4.15204C75.1283 5.21304 75.4996 6.0617 76.2955 6.8576C77.0914 7.65351 77.9394 8.02476 79.001 8.02476C80.0614 8.02476 80.9641 7.65351 81.76 6.8576C82.4491 6.06234 82.8204 5.21304 82.8204 4.15204C82.8204 3.09105 82.4491 2.18898 81.76 1.39372ZM4.04058 21.393C6.42765 23.7807 9.23938 25 12.6347 25C15.9766 25 18.7883 23.7807 21.176 21.393C23.5637 19.0053 24.8364 16.0874 24.8364 12.6927C24.8364 9.35021 23.5631 6.43232 21.176 4.04525C18.7889 1.65817 15.9772 0.437617 12.6347 0.437617C9.23938 0.437617 6.42765 1.65817 4.04058 4.04525C1.6535 6.43232 0.432949 9.35021 0.432949 12.6927C0.432949 16.088 1.65287 19.0059 4.04058 21.393ZM2.18368 12.6934C2.18368 9.77549 3.24467 7.38778 5.2605 5.37196C7.32972 3.35614 9.71679 2.29515 12.6347 2.29515C15.5526 2.29515 17.9396 3.35614 19.9555 5.37196C21.9713 7.38778 23.0323 9.77549 23.0323 12.6934C23.0323 15.6113 21.9713 17.999 19.9555 20.0676C17.9396 22.0827 15.5526 23.1444 12.6347 23.1444C9.71679 23.1444 7.32972 22.0827 5.2605 20.0676C3.24467 17.999 2.18368 15.6113 2.18368 12.6934Z" fill="#007DC1"/>
<path fill-rule="evenodd" clip-rule="evenodd" d="M11.7326 13.7535H2.18362L13.9607 2.29492L11.7326 13.7535ZM11.4675 23.3024L23.2445 11.6315H13.5894L11.4675 23.3024Z" fill="#007DC1"/>
</svg>
