<svg width="125" height="50" viewBox="0 0 125 50" fill="none" xmlns="http://www.w3.org/2000/svg">
<g clip-path="url(#clip0_243_1056)">
<path d="M23.0935 13.8393C17.9478 18.8537 12.7613 23.9798 7.5435 28.9757C6.38756 30.0818 5.42258 31.5302 3.68868 31.6418C0.876913 31.8218 -0.913008 29.0728 0.487358 26.5977C0.776766 26.0873 1.20961 25.8228 1.6085 25.4332C8.46095 18.7625 15.2625 12.0968 22.137 5.41082C22.8431 4.7238 23.7928 3.62947 24.723 3.25681C27.1749 2.27656 29.7805 4.23621 29.4325 6.84655C29.2288 8.37692 27.3396 9.70701 26.294 10.732C25.2331 11.7731 24.1484 12.81 23.0935 13.8384V13.8393Z" fill="#00AD40"/>
<path d="M23.942 27.8586C21.1829 30.5357 18.422 33.2914 15.6035 35.9854C14.8821 36.6749 13.9807 37.7912 13.1397 38.2619C12.6228 38.5518 11.4838 38.8137 10.8982 38.7309C10.7489 38.7098 10.658 38.6025 10.5435 38.5771C10.114 38.4825 9.85602 38.5095 9.41809 38.2619C7.76141 37.3256 6.99673 35.1192 7.93455 33.4181C8.42595 32.5266 9.16093 32.0103 9.83905 31.3444C12.3741 28.8566 14.9483 26.3637 17.4749 23.9123C19.3785 22.0658 21.3441 19.8831 23.325 18.1651C24.1745 17.4274 25.1837 16.9263 26.3421 17.0243C28.8747 17.239 30.5161 19.7808 29.5248 22.141C29.1208 23.1027 27.3648 24.6407 26.5535 25.4333C25.7421 26.226 24.7797 27.0465 23.942 27.8594V27.8586Z" fill="#00AD40"/>
<path d="M24.918 40.8223C23.2809 42.1499 21.833 43.9659 20.2315 45.3205C18.6622 46.6472 16.3223 46.4545 15.0119 44.8557C14.069 43.7056 14.0783 41.7916 15.0119 40.6322C15.8547 39.5852 17.1829 38.5432 18.1538 37.5943C20.0515 35.7402 21.9416 33.8761 23.8342 32.0161C25.7328 30.3506 28.9256 31.0849 29.6733 33.5558C29.8948 34.2885 29.8566 34.8749 29.6504 35.6093C29.5689 35.9008 29.4026 36.2912 29.2218 36.5337C28.3307 37.7261 26.6197 38.9751 25.5758 40.0829C25.3585 40.3297 25.0606 40.5198 24.9189 40.8223H24.918Z" fill="#00AD40"/>
<path d="M65.7077 10.2706C66.3671 10.9636 67.0444 11.6447 67.7021 12.3393C69.8579 14.6125 72.0314 16.9152 74.1048 19.2255C74.2015 19.3329 74.3263 19.4951 74.4892 19.4765V10.3974C74.4892 10.3881 74.6072 10.2706 74.6166 10.2706H77.3316C77.3468 10.2706 77.5437 10.4667 77.5437 10.4819V24.4166C77.5437 24.5172 77.1932 24.6211 77.0804 24.6313C76.7324 24.6625 75.4916 24.6744 75.2522 24.5011C75.1742 24.4445 75.1521 24.3194 75.0833 24.2468C72.3624 21.3677 69.7229 18.4422 66.9638 15.6527C66.8509 15.5386 66.8967 15.3544 66.598 15.422V24.5011C66.598 24.5104 66.48 24.6279 66.4707 24.6279H63.8405C63.8295 24.6279 63.6284 24.5552 63.6284 24.5434V10.3974C63.6284 10.3881 63.7463 10.2706 63.7557 10.2706H65.7068H65.7077Z" fill="white"/>
<path d="M102.912 15.76V10.4819C102.912 10.4709 102.986 10.2706 102.997 10.2706H105.882V24.6279H102.997C102.986 24.6279 102.912 24.4284 102.912 24.4166V18.4202C102.912 18.4109 102.794 18.2934 102.785 18.2934H97.1005C97.0852 18.2934 96.8883 18.4895 96.8883 18.5047V24.5434C96.8883 24.6837 94.3948 24.6093 94.13 24.6287C93.9993 24.616 93.9034 24.518 93.8465 24.4039L93.9187 10.2698H96.761C96.7703 10.2698 96.8883 10.3872 96.8883 10.3965V15.6324C96.8883 15.6417 97.0063 15.7592 97.0156 15.7592H102.912V15.76Z" fill="white"/>
<path d="M48.7387 10.2706H51.4537C51.463 10.2706 51.581 10.3881 51.581 10.3974V19.7723C51.581 19.7976 51.6625 20.1965 51.6811 20.2641C52.1157 21.89 53.9489 22.5804 55.4876 22.1409C56.3134 21.9052 57.1307 21.0939 57.3361 20.2649C57.3556 20.1872 57.4354 19.7985 57.4354 19.7731V10.3982C57.4354 10.3889 57.5533 10.2715 57.5627 10.2715H60.2777C60.3345 10.2715 60.5425 10.5394 60.4941 10.6475C60.3532 13.6922 60.7054 16.8434 60.4092 19.861C60.3549 20.417 60.3218 20.9891 60.1308 21.5266C58.6049 25.8059 51.5097 26.105 49.2742 22.3226C48.7684 21.4657 48.6894 20.652 48.6071 19.6928C48.3542 16.7166 48.6317 13.6474 48.5222 10.6484C48.5019 10.4692 48.6173 10.3805 48.7387 10.2723V10.2706Z" fill="white"/>
<path d="M118.355 19.392L118.267 19.9379L118.274 24.4927C118.27 24.5256 118.07 24.6279 118.058 24.6279H115.427C115.418 24.6279 115.3 24.5104 115.3 24.5011V10.3974C115.3 10.3881 115.418 10.2706 115.427 10.2706H120.942C121.149 10.2706 122.159 10.5664 122.401 10.6762C124.481 11.6159 125.139 13.4624 124.976 15.6366C124.871 17.0428 123.822 18.4101 122.535 18.9501C122.338 19.0329 121.083 19.3912 120.942 19.3912H118.355V19.392ZM118.355 12.8041V16.731C118.355 16.7842 118.491 16.8493 118.564 16.8603C118.797 16.8924 119.254 16.8772 119.503 16.8603C119.852 16.8383 120.459 16.7453 120.776 16.6076C121.769 16.1758 122.047 15.1144 121.817 14.1274C121.725 13.7294 121.046 13.1362 120.668 12.9917C120.593 12.9629 120.043 12.8032 120.009 12.8032H118.355V12.8041Z" fill="white"/>
<path d="M36.6251 21.5646C36.8126 21.3855 37.0503 21.0407 37.2446 20.8726C38.0305 20.1889 37.9584 20.5743 38.4294 21.1235C38.9437 21.7235 39.8875 22.2103 40.6751 22.266C41.5068 22.3252 42.4871 22.0319 42.9157 21.2816C43.2153 20.7568 43.1779 19.8999 42.813 19.4157C42.2002 18.6028 40.535 18.2859 39.615 17.9157C38.8274 17.5989 37.7114 16.933 37.2539 16.2121C37.0324 15.8631 36.6098 14.6725 36.648 14.288C36.7744 13.0187 37.203 11.6869 38.2648 10.9087C40.2482 9.45435 43.6108 9.72561 45.4295 11.3675C45.5815 11.5044 45.6952 11.5915 45.629 11.8188C45.3871 12.0529 44.4128 13.5004 44.2303 13.5545C43.9095 13.65 43.6617 13.1987 43.43 13.0196C42.7094 12.4635 41.6138 12.3114 40.7591 12.6309C40.3432 12.7863 39.9163 13.2325 39.8688 13.6872C39.851 13.8587 39.8425 14.3809 39.8849 14.5229C39.9036 14.5863 40.3891 15.0764 40.4688 15.1237C41.4381 15.7001 42.8792 15.9274 43.9392 16.4826C46.1722 17.6521 46.8274 20.0309 45.7919 22.2846C44.3322 25.4611 39.7186 25.6656 37.1996 23.6139C36.9798 23.4347 36.132 22.5888 36.0683 22.375C35.9325 21.9179 36.3874 21.7911 36.6259 21.5638L36.6251 21.5646Z" fill="white"/>
<path d="M91.4583 13.9441C91.4472 13.9846 91.3242 14.097 91.2537 14.0641C90.8438 13.7953 90.512 13.4489 90.074 13.2097C87.7002 11.9143 84.7781 12.821 83.5865 15.2294C82.6725 17.0783 83.0094 19.7123 84.627 21.0804C86.3652 22.5508 89.1939 22.73 90.9278 21.1421C90.9796 21.094 90.9737 20.9495 91.0815 20.9165C91.1833 20.8852 91.3556 20.8928 91.4184 20.9917C91.5992 21.2748 91.3607 23.2649 91.4608 23.7432C91.4125 24.4631 90.4594 24.3964 89.9552 24.6938C87.6111 25.2575 85.037 24.9904 83.062 23.5657C81.7465 22.6167 80.5728 21.0914 80.19 19.4994C79.3218 15.8868 80.8732 11.861 84.4972 10.4777C86.1912 9.83124 89.014 9.77631 90.6953 10.4777C90.8421 10.5394 91.4566 10.8597 91.4566 10.9864V13.9424L91.4583 13.9441Z" fill="white"/>
<path d="M112.076 10.2706V24.6279H109.234C109.224 24.6279 109.106 24.5104 109.106 24.5011V10.3974C109.106 10.3881 109.224 10.2706 109.234 10.2706H112.076Z" fill="white"/>
<path d="M96.9486 28.3614C97.423 28.2794 97.7761 28.3631 98.1563 28.6445C98.6188 28.9867 98.7936 29.4109 98.8293 29.9746C98.674 30.2661 98.6613 30.5162 98.4533 30.7875C98.0137 31.3621 97.1158 31.4694 96.4911 31.1466C95.1884 30.4723 95.5796 28.598 96.9494 28.3614H96.9486ZM97.9696 30.6024C98.0145 30.5576 98.2157 30.2095 98.231 30.1444C98.4355 29.2478 97.7981 28.7231 96.929 28.849C96.8518 28.86 96.4784 29.1261 96.4224 29.1895C95.7502 29.9467 96.6549 31.15 97.5715 30.8399C97.6216 30.823 97.9365 30.6345 97.9687 30.6024H97.9696Z" fill="white"/>
<path d="M106.283 28.3638C106.752 28.2979 107.344 28.4466 107.667 28.8049C107.705 28.8472 107.978 29.2934 107.989 29.3297C108.03 29.4717 108.03 30.2567 107.989 30.3987C107.95 30.5288 107.578 30.9623 107.455 31.0502C107 31.3747 106.156 31.4237 105.682 31.1187C104.489 30.3514 104.845 28.5666 106.283 28.3638H106.283ZM107.303 29.1261C106.739 28.5768 105.574 28.8582 105.459 29.6542C105.319 30.6378 106.433 31.2767 107.236 30.5778C107.585 30.2745 107.618 29.4328 107.303 29.1261Z" fill="white"/>
<path d="M113.346 29.186C113.335 29.1962 113.089 29.2672 113.065 29.2621C112.919 29.2317 112.647 28.8979 112.53 28.8632C112.087 28.7314 111.298 28.9384 111.158 29.415C111.118 29.5511 111.118 30.0936 111.158 30.2297C111.22 30.4418 111.639 30.8398 111.864 30.8778C112.136 30.9243 112.692 30.8034 112.844 30.5694C113.206 30.0125 112.591 30.2939 112.33 30.1604C112.145 30.0657 112.145 29.9136 112.33 29.8198C112.48 29.7438 113.395 29.7353 113.48 29.8595C113.613 30.0531 113.32 30.7798 113.158 30.9395C113.13 30.9674 112.645 31.2758 112.614 31.2843C112.422 31.3392 111.769 31.3181 111.564 31.2606C111.29 31.1837 110.726 30.6615 110.649 30.3978C110.608 30.255 110.608 29.4708 110.649 29.3289C110.664 29.2807 110.922 28.8691 110.973 28.8066C111.45 28.2244 112.507 28.2202 113.092 28.6427C113.223 28.7382 113.485 29.0576 113.347 29.1852L113.346 29.186Z" fill="white"/>
<path d="M65.7391 28.7763C65.8002 28.8625 65.7535 29.2461 65.622 29.2732C65.4387 29.3104 65.156 28.9157 64.9286 28.8659C64.5331 28.7797 64.0739 28.8371 63.7947 29.143C63.3704 29.6087 63.5053 30.3658 64.023 30.6962C64.2725 30.8559 64.7139 30.9751 64.988 30.8365C65.033 30.8137 65.3869 30.4503 65.4039 30.4064C65.5388 30.054 65.0516 30.2779 64.8149 30.1613C64.6952 30.1022 64.5662 29.9205 64.7291 29.8199C64.8972 29.8157 65.7909 29.6991 65.8358 29.7312C66.2279 30.0134 65.7569 30.7934 65.4522 31.0469C64.9939 31.428 64.197 31.4272 63.7158 31.0858C63.266 30.7664 62.9638 30.2137 63.0377 29.656C63.1743 28.625 64.2259 28.1222 65.1806 28.445C65.2171 28.4577 65.7196 28.7501 65.7382 28.7763H65.7391Z" fill="white"/>
<path d="M90.355 28.4282C90.7589 28.3301 90.736 28.6048 90.8854 28.745C91.258 29.0957 91.6501 29.449 92.0244 29.803C92.1737 29.945 92.2595 30.2365 92.5616 30.2864V28.5549C92.5616 28.4476 92.9308 28.3766 92.9826 28.4315C92.9927 28.4425 93.0623 28.6791 93.0683 28.7265C93.1345 29.2563 93.1167 30.3734 93.0742 30.9236C93.0657 31.03 93.0657 31.1762 92.9393 31.2117C92.5964 31.3081 92.6405 31.0748 92.5404 30.9844C92.1203 30.605 91.6408 30.1968 91.2427 29.7836C91.1358 29.6729 91.0314 29.4135 90.9066 29.3577C90.8888 29.3492 90.7793 29.5563 90.7793 29.569V31.3004C90.6647 31.3275 90.355 31.2878 90.355 31.1737V28.429V28.4282Z" fill="white"/>
<path d="M59.8957 28.5548C59.9305 28.4256 60.2819 28.3875 60.3201 28.4281C60.3472 28.4577 60.3065 29.0864 60.3175 29.2334C60.3608 29.8233 60.4432 30.419 60.3201 31.0038C60.3057 31.0722 60.304 31.3021 60.1936 31.2987C60.1164 31.2962 59.8448 31.041 59.7659 30.9641C59.4306 30.6379 59.1217 30.2466 58.7967 29.9069C58.6948 29.8004 58.4708 29.5435 58.3698 29.4835C58.284 29.4328 58.2 29.5537 58.2 29.568V31.0883C58.2 31.1035 58.0108 31.2894 57.9811 31.2962C57.8928 31.3156 57.6917 31.1128 57.6917 31.0883V28.4281L58.032 28.4687L59.7277 30.2441C59.7727 30.3303 59.8974 30.1689 59.8974 30.1596C59.8974 29.7878 59.8236 28.832 59.8974 28.5548H59.8957Z" fill="white"/>
<path d="M38.4387 29.9567C38.2588 30.2119 38.8869 30.735 38.9794 30.9632C39.1169 31.3003 38.9997 31.3857 38.6543 31.2868C38.37 31.2057 38.1578 30.4671 37.8778 30.2863L37.8328 31.0012C37.8268 31.0485 37.7547 31.2818 37.7437 31.2927C37.7258 31.3113 37.4347 31.3105 37.4169 31.2927C37.3872 31.2623 37.3278 30.997 37.3219 30.9226C37.2726 30.3252 37.276 29.3196 37.3219 28.7204C37.3286 28.6266 37.3134 28.5278 37.4059 28.4661C37.5111 28.3959 38.213 28.4086 38.3709 28.4433C38.9089 28.5616 39.0846 29.3086 38.7714 29.7404C38.667 29.8841 38.4498 29.9407 38.4379 29.9567H38.4387ZM37.8353 29.6111C38.6153 29.7489 38.6221 28.7154 37.8353 28.8506V29.6111Z" fill="white"/>
<path d="M42.925 28.429C43.0769 28.7974 43.2076 29.1853 43.3706 29.5487C43.5454 29.9382 43.8705 30.4689 43.991 30.8728C44.0903 31.2041 44.0716 31.45 43.688 31.259C43.4792 31.1551 43.4936 30.6329 43.211 30.5517C43.1109 30.523 42.2002 30.5027 42.1663 30.5433C42.1136 30.6058 42.0771 31.1331 41.8251 31.2599C41.4517 31.4475 41.4092 31.2041 41.5229 30.8745L42.5465 28.5997C42.639 28.4569 42.751 28.3986 42.9242 28.429H42.925ZM43.0956 30.0329L42.7985 29.3577C42.6865 29.4405 42.4209 29.9526 42.5015 30.0329H43.0947H43.0956Z" fill="white"/>
<path d="M87.4702 28.4281V31.2996C86.7446 31.3029 87.208 30.4021 86.9551 29.9542L85.9086 29.9441C85.5352 30.3641 86.1428 31.4103 85.3493 31.2996V28.4281C86.0834 28.2912 85.5886 29.1413 85.8568 29.4007C86.0181 29.5571 86.6877 29.5799 86.8787 29.4852C87.2954 29.2774 86.703 28.2768 87.4711 28.4281H87.4702Z" fill="white"/>
<path d="M77.5438 28.4281V28.8506H76.5253V29.4422C76.8368 29.4962 77.5947 29.252 77.5472 29.7388C77.5073 30.1461 76.6221 29.852 76.5253 29.9483C76.4973 29.9762 76.51 30.6582 76.5346 30.7418C76.6059 30.9894 77.3121 30.8373 77.5438 30.877V31.2996H76.1434C76.1341 31.2996 76.0161 31.1821 76.0161 31.1728V28.5549C76.0161 28.5456 76.1341 28.4281 76.1434 28.4281H77.5438Z" fill="white"/>
<path d="M81.424 28.3639C81.8484 28.3047 82.7209 28.3825 82.5435 28.9715C82.4493 29.2841 82.1599 28.9047 81.9833 28.8658C81.7126 28.8058 81.3451 28.8219 81.1109 28.9808C81.0277 29.0365 80.7179 29.3382 80.6958 29.4126C80.6576 29.5419 80.6593 30.0988 80.6984 30.2306C80.8342 30.6954 81.5225 30.9666 81.9842 30.8635C82.1675 30.823 82.5172 30.3945 82.5545 30.8365C82.5961 31.3317 81.6778 31.3528 81.3222 31.2996C81.0302 31.2565 80.5439 30.9615 80.3903 30.7072C79.8276 29.7776 80.3224 28.5194 81.4257 28.3647L81.424 28.3639Z" fill="white"/>
<path d="M51.4961 29.0197C51.3518 29.165 50.571 28.5101 50.4301 29.1017C50.3563 29.4135 51.0548 29.5774 51.2737 29.7059C51.6438 29.9239 51.7091 30.1732 51.6692 30.5856C51.5903 31.4095 50.3062 31.5523 49.9285 30.9608C49.7579 30.6937 49.763 30.343 50.1713 30.4656C50.3707 30.5247 50.341 30.9101 50.7713 30.8813C51.1515 30.8551 51.3136 30.387 51.0734 30.1588C50.801 29.9002 50.0626 29.8588 49.9684 29.3163C49.8292 28.5186 50.7051 28.0876 51.3247 28.473C51.4825 28.5718 51.5767 28.9386 51.4961 29.0197Z" fill="white"/>
<path d="M116.913 29.4421C116.947 29.4903 117.132 29.3923 117.171 29.3187L117.687 28.4399C117.997 28.4078 118.2 28.3478 118.086 28.7103C117.971 29.0728 117.444 29.6052 117.351 29.9212C117.267 30.2103 117.476 31.1888 117.121 31.2961C116.663 31.4339 116.874 30.4511 116.813 30.1756C116.715 29.7353 116.036 29.0069 115.98 28.6393C115.971 28.5852 115.972 28.4365 115.98 28.4289C115.998 28.4112 116.341 28.4154 116.409 28.4652C116.486 28.5202 116.483 28.6748 116.538 28.7602C116.632 28.9089 116.807 29.0762 116.87 29.1911C116.923 29.2858 116.903 29.4277 116.914 29.4421H116.913Z" fill="white"/>
<path d="M73.3859 28.4281V28.8506C73.2552 28.8388 72.7918 28.8236 72.7918 28.9774V31.0891C72.7918 31.166 72.4464 31.3866 72.3675 31.3004C72.3599 31.2919 72.2826 31.101 72.2826 31.0891V28.8515H71.6885V28.4289H73.3851L73.3859 28.4281Z" fill="white"/>
<path d="M101.47 28.5549C101.524 28.3521 101.98 28.4146 101.98 28.5549V30.7511C101.98 30.943 102.515 30.8297 102.661 30.9176C102.782 30.9903 102.782 31.1889 102.661 31.2607C102.516 31.3477 101.47 31.3452 101.47 31.1737V28.5557V28.5549Z" fill="white"/>
<path d="M47.0837 31.1737C47.0166 31.4289 46.6585 31.2996 46.5906 30.9895C46.5083 30.6109 46.5405 29.411 46.5711 28.9749C46.577 28.8862 46.6407 28.4578 46.661 28.4299C46.6933 28.3859 47.0837 28.4392 47.0837 28.5558V31.1737Z" fill="white"/>
<path d="M54.3809 28.6394C54.3826 28.6284 54.4615 28.44 54.4691 28.4315C54.52 28.3774 54.8901 28.4476 54.8901 28.5549V31.0883C54.8901 31.2607 54.4878 31.3816 54.3809 31.0883C54.4666 30.3413 54.2646 29.3526 54.3809 28.6394Z" fill="white"/>
</g>
<defs>
<clipPath id="clip0_243_1056">
<rect width="125" height="43.1985" fill="white" transform="translate(0 3)"/>
</clipPath>
</defs>
</svg>
