<svg width="125" height="50" viewBox="0 0 125 50" fill="none" xmlns="http://www.w3.org/2000/svg">
<path fill-rule="evenodd" clip-rule="evenodd" d="M108.329 15.9771H110.481L110.483 19.438C110.484 21.3413 110.537 23.2536 110.6 23.6869C110.663 24.1202 110.802 24.6211 110.908 24.8011C111.014 24.9801 111.244 25.2333 111.419 25.3639C111.684 25.5598 111.898 25.6003 112.679 25.6003C113.444 25.6003 113.678 25.5575 113.926 25.3752C114.095 25.2514 114.328 24.9734 114.443 24.7561C114.563 24.5321 114.701 23.9266 114.764 23.3492C114.825 22.7921 114.874 20.9057 114.878 15.9771H116.997L116.98 20.1133C116.964 24.0909 116.954 24.2733 116.715 24.8687C116.579 25.2097 116.25 25.7331 115.983 26.0347C115.675 26.3814 115.232 26.71 114.767 26.9351C114.077 27.2683 113.963 27.2886 112.738 27.2886C111.523 27.2886 111.392 27.266 110.706 26.943C110.303 26.7528 109.778 26.423 109.539 26.2114C109.302 25.9987 108.946 25.4978 108.395 24.3678L108.329 15.9771ZM46.755 31.5183C47.0053 31.5115 47.2296 31.6072 47.4641 31.8188C47.6704 32.0056 47.8317 32.2836 47.8711 32.5222C47.9083 32.7473 47.8587 33.193 47.755 33.5633C47.6547 33.919 47.4326 34.3692 47.2623 34.5628C47.0921 34.7575 46.8125 34.9849 46.6423 35.0693C46.472 35.1537 46.1293 35.2235 45.8813 35.2235C45.6073 35.2235 45.3491 35.1458 45.2218 35.0265C45.0188 34.8363 45.0064 34.8588 44.6411 36.5741H44.1902C43.8351 36.5741 43.7404 36.5325 43.7437 36.3771C43.7449 36.2691 43.9625 35.1672 44.7065 31.6781L45.1812 31.65C45.5701 31.6263 45.6558 31.6567 45.6524 31.8188C45.649 32.0011 45.6637 32.0022 45.8497 31.8334C45.9602 31.7332 46.127 31.6229 46.2195 31.5892C46.3131 31.5543 46.5532 31.5228 46.755 31.5183V31.5183ZM45.3773 33.1131C45.2826 33.345 45.2048 33.6613 45.2048 33.8166C45.2048 33.9708 45.2815 34.1734 45.3739 34.2668C45.4675 34.3591 45.6727 34.4356 45.8305 34.4356C45.9884 34.4356 46.242 34.3084 46.3942 34.1542C46.5464 33.9989 46.7212 33.6703 46.7832 33.4227C46.8583 33.1225 46.8583 32.8787 46.7832 32.6911C46.6953 32.4705 46.5904 32.4097 46.3018 32.4097C46.0977 32.4097 45.8463 32.4727 45.7415 32.5504C45.6366 32.628 45.4732 32.8813 45.3773 33.1131ZM116.766 31.5093C116.95 31.5093 117.007 31.5633 116.974 31.7062C116.949 31.8143 116.898 32.0428 116.861 32.2127C116.803 32.4817 116.74 32.5222 116.381 32.5222C116.084 32.5222 115.912 32.5943 115.772 32.7755C115.665 32.915 115.491 33.4339 115.387 33.9291C115.282 34.4244 115.175 34.9185 115.151 35.0265C115.116 35.1728 114.989 35.2235 114.652 35.2235C114.326 35.2235 114.201 35.1762 114.201 35.0547C114.201 34.9612 114.355 34.1644 114.541 33.282C114.728 32.3996 114.88 31.6657 114.879 31.65C114.879 31.6342 115.081 31.6218 115.329 31.6218C115.659 31.6218 115.776 31.6668 115.765 31.7884C115.753 31.9235 115.822 31.9133 116.131 31.7332C116.341 31.6106 116.626 31.5093 116.766 31.5093V31.5093Z" fill="white"/>
<path d="M10.7066 14.2246C10.9862 14.0186 11.4935 13.7507 11.834 13.628C12.4158 13.4187 12.7641 13.4041 22.4315 13.3883L20.6671 17.0463L16.843 17.0778C13.409 17.107 12.9975 17.1295 12.8171 17.3029C12.7066 17.4098 12.6164 17.5978 12.6176 17.7216C12.6187 17.8454 12.692 18.048 12.781 18.1718C12.9321 18.3834 13.1068 18.4003 15.5736 18.4532C18.1632 18.5083 18.2139 18.5139 18.8802 18.8246C19.2523 18.9979 19.7528 19.3277 19.993 19.5562C20.2331 19.7858 20.5769 20.1752 20.7573 20.4228C20.9377 20.6704 21.0831 20.9361 21.082 21.0137C21.0798 21.124 19.9456 21.1555 10.5375 21.1634L10.0358 20.6243C9.75962 20.3283 9.40562 19.8072 9.24891 19.4661C9.00765 18.9428 8.96255 18.6805 8.96143 17.7778C8.95917 16.8662 9.00201 16.6174 9.24666 16.0896C9.40449 15.7485 9.68408 15.2747 9.86672 15.0338C10.0494 14.7941 10.427 14.4305 10.7066 14.2246Z" fill="#0059A6"/>
<path d="M23.1925 14.2358C23.4867 14.0208 24.0065 13.7462 24.3481 13.6258C24.9208 13.4232 25.3097 13.4052 34.0053 13.3883L33.9873 17.0463L29.7596 17.0778C25.9445 17.107 25.5127 17.1284 25.3312 17.3029C25.2207 17.4098 25.1305 17.5978 25.1316 17.7216C25.1327 17.8454 25.206 18.048 25.2951 18.1718C25.4462 18.3834 25.6209 18.4003 28.0876 18.4532C30.613 18.5072 30.7426 18.5207 31.3379 18.7976C31.6784 18.9563 32.1823 19.2849 32.4552 19.5292C32.7291 19.7734 33.0989 20.1752 33.2759 20.4228C33.454 20.6704 33.5972 20.9361 33.5961 21.0137C33.5938 21.124 32.4608 21.1544 23.0516 21.1578L22.5781 20.6772C22.3176 20.4138 21.9659 19.8938 21.7968 19.5224C21.5916 19.0699 21.4721 18.5871 21.4372 18.0592C21.3977 17.4593 21.4428 17.0834 21.6266 16.4835C21.7585 16.0502 22.0448 15.4548 22.2624 15.161C22.4789 14.8672 22.8983 14.4508 23.1925 14.2358Z" fill="#0059A6"/>
<path d="M34.6073 21.1544V17.2714V13.3883L36.8903 13.3906C38.6073 13.3917 39.3413 13.4367 39.8497 13.5706C40.2218 13.6686 40.7539 13.8644 41.0335 14.0051C41.3131 14.1458 41.7821 14.4452 42.0763 14.6692C42.3706 14.8931 42.6502 15.0788 42.6964 15.0811C42.7426 15.0845 42.8565 15.0001 42.9501 14.8943C43.0425 14.7885 43.3852 14.533 43.711 14.3259C44.0369 14.1199 44.6829 13.8239 45.1485 13.6697C45.9422 13.4052 46.1383 13.3883 50.6907 13.3883L50.6727 21.0981H46.9523L46.9331 20.5917C46.9219 20.3136 46.9106 19.4008 46.9004 17.0463L46.4754 17.1307C46.242 17.1768 45.8599 17.3423 45.6276 17.4965C45.3954 17.6518 45.065 17.9894 44.8948 18.2472C44.6107 18.6771 44.5825 18.8201 44.5284 21.1544H40.808L40.7787 20.0008C40.7516 18.9788 40.7133 18.7863 40.4405 18.3125C40.2477 17.9793 39.9512 17.672 39.6524 17.4976C39.3886 17.3434 38.9816 17.1791 38.3232 17.0463L38.3277 21.1544H34.6073Z" fill="#0059A6"/>
<path d="M8.9028 24.1933V23.8557V23.518H15.1598C18.6006 23.518 21.4157 23.5563 21.4157 23.6024C21.4146 23.6486 21.3887 23.8005 21.3041 24.1933H8.9028Z" fill="#0059A6"/>
<path d="M8.9028 25.2063V24.9249V24.6435L14.9062 24.6402C18.2083 24.639 20.9479 24.6638 20.9941 24.6964C21.0403 24.7291 21.0155 24.8574 20.9377 24.9812C20.799 25.2029 20.6784 25.2074 8.9028 25.2063Z" fill="#0059A6"/>
<path d="M14.3988 26.2238C8.97946 26.2193 8.9028 26.2159 8.9028 25.9942C8.9028 25.7724 8.97946 25.7691 14.4552 25.7657C17.5093 25.7646 20.0358 25.7972 20.0696 25.84C20.1046 25.8827 20.0786 25.9874 20.0133 26.0729C19.9152 26.2024 18.9569 26.2283 14.3988 26.2238Z" fill="#0059A6"/>
<path fill-rule="evenodd" clip-rule="evenodd" d="M55.9997 15.923C55.6434 16.0141 55.1609 16.1841 54.9287 16.2989C54.6964 16.4137 54.3289 16.7108 54.1113 16.9584C53.8937 17.2049 53.6536 17.6045 53.578 17.8465C53.5014 18.0873 53.4371 18.613 53.4349 19.0159C53.4326 19.5967 53.4969 19.8735 53.7438 20.3575C53.9681 20.7976 54.2274 21.0891 54.675 21.4031C55.0155 21.6429 55.7009 21.994 56.197 22.1842C56.693 22.3745 57.3266 22.6435 57.6062 22.7819C57.8858 22.9215 58.2297 23.1815 58.3706 23.3604C58.5228 23.5529 58.6265 23.8365 58.6243 24.0526C58.622 24.3092 58.5115 24.5321 58.2545 24.7977C58.0527 25.0071 57.6851 25.2344 57.4371 25.3042C57.1891 25.3728 56.6051 25.4302 56.1406 25.4302C55.675 25.4302 55.0155 25.3841 54.675 25.3278C54.3345 25.2716 53.9151 25.1961 53.7449 25.1601L53.4349 25.0937C53.4349 26.7561 53.4653 26.9024 53.6322 26.9475C53.7404 26.9778 54.197 27.0791 54.6468 27.1726C55.0966 27.2671 55.9208 27.3448 56.4788 27.3448C57.2004 27.3448 57.6975 27.2772 58.1981 27.1129C58.5859 26.9857 59.144 26.7066 59.4382 26.4939C59.7325 26.2811 60.1259 25.8658 60.312 25.5721C60.498 25.2783 60.6975 24.809 60.7562 24.531C60.8136 24.253 60.8283 23.796 60.7888 23.518C60.7483 23.24 60.5611 22.7616 60.3728 22.4577C60.1677 22.1257 59.781 21.7329 59.41 21.4797C59.0696 21.2467 58.3593 20.8696 57.8317 20.6434C57.3041 20.4172 56.6457 20.0896 56.3661 19.9163C56.0865 19.743 55.7911 19.4571 55.7077 19.2804C55.6198 19.0958 55.5825 18.793 55.6186 18.5657C55.6536 18.3485 55.7719 18.0896 55.8836 17.9894C55.994 17.8892 56.2105 17.7429 56.3661 17.6641C56.5205 17.5865 57.0031 17.5246 57.4371 17.5268C57.8712 17.5291 58.5566 17.609 58.9591 17.7035C59.3616 17.7981 59.781 17.9039 59.8892 17.9388C60.0673 17.9962 60.0842 17.9174 60.0583 17.1351L60.0301 16.2674C58.9816 15.9432 58.2206 15.8284 57.6626 15.8025C56.9884 15.771 56.4303 15.8115 55.9997 15.923ZM76.2927 15.923C75.9365 16.0141 75.454 16.1863 75.2217 16.3045C74.9895 16.4227 74.6625 16.6636 74.4957 16.8391C74.3288 17.0147 74.0887 17.3873 73.9624 17.6653C73.8012 18.0198 73.7324 18.4081 73.7324 18.9596C73.7324 19.5032 73.8001 19.887 73.9489 20.1977C74.0673 20.4453 74.2555 20.7537 74.3683 20.8831C74.481 21.0137 74.7516 21.2523 74.9681 21.4133C75.1845 21.5753 75.844 21.9051 76.4337 22.1471C77.0233 22.388 77.72 22.6941 77.9838 22.8269C78.2476 22.9597 78.5667 23.2073 78.6918 23.3773C78.8181 23.5472 78.9196 23.8511 78.9173 24.0526C78.9151 24.3092 78.8046 24.5321 78.5475 24.7977C78.3457 25.0071 77.9782 25.2344 77.7302 25.3042C77.4821 25.3728 76.8857 25.4302 76.4055 25.4302C75.9252 25.4314 75.1383 25.356 74.658 25.2625C74.1778 25.1703 73.7719 25.0937 73.7561 25.0937C73.7403 25.0937 73.7279 25.4989 73.7279 25.9941V26.8946C74.3829 27.0578 74.8779 27.1591 75.2499 27.2255C75.6219 27.2919 76.3446 27.3459 76.8564 27.3459C77.5013 27.3448 78.003 27.2727 78.4912 27.1084C78.879 26.9778 79.348 26.7674 79.534 26.6402C79.72 26.513 80.0165 26.2766 80.1924 26.1168C80.3694 25.957 80.6287 25.5968 80.7696 25.3188C80.9105 25.0408 81.0594 24.6356 81.0999 24.4184C81.1405 24.2023 81.1371 23.796 81.0909 23.518C81.0458 23.24 80.8542 22.7616 80.6659 22.4577C80.4607 22.1246 80.0751 21.7329 79.7031 21.4797C79.3626 21.2467 78.6512 20.8696 78.1248 20.6434C77.5983 20.4172 76.9387 20.0896 76.6591 19.9163C76.3795 19.743 76.0842 19.4571 76.0007 19.2804C75.9128 19.0958 75.8756 18.793 75.9117 18.5657C75.9466 18.3485 76.065 18.0896 76.1766 17.9894C76.2871 17.8892 76.5036 17.7429 76.6591 17.6641C76.8136 17.5865 77.2961 17.5246 77.7302 17.5268C78.1642 17.5291 78.8485 17.609 79.2521 17.7035C79.6558 17.7981 80.074 17.9039 80.1822 17.9388C80.3604 17.9962 80.3773 17.9174 80.3514 17.1351L80.3232 16.2674C79.2747 15.9432 78.5137 15.8284 77.9556 15.8025C77.2815 15.771 76.7234 15.8115 76.2927 15.923V15.923ZM62.7945 19.4942C62.7956 21.429 62.8475 23.366 62.9095 23.7994C62.9715 24.2327 63.1428 24.8405 63.2917 25.15C63.4439 25.4685 63.8215 25.948 64.1631 26.2541C64.4946 26.5524 65.0448 26.9047 65.3852 27.0375C65.8824 27.2322 66.2511 27.2806 67.2454 27.284C68.3119 27.2874 68.5802 27.2491 69.162 27.0105C69.569 26.8439 70.0414 26.5299 70.3503 26.2226C70.631 25.9424 70.9681 25.4843 71.0989 25.2063C71.2296 24.9283 71.3931 24.3959 71.4619 24.0245C71.5374 23.617 71.587 21.886 71.587 19.6631L71.5859 15.977H69.3153C69.2747 24.0335 69.268 24.1505 69.0211 24.6716C68.8294 25.0757 68.6501 25.2648 68.2883 25.4449C67.9072 25.6351 67.6558 25.6756 67.0571 25.6418C66.5273 25.6126 66.2105 25.5315 65.9861 25.3695C65.8102 25.2423 65.5408 24.8877 65.3852 24.5816L65.1034 24.0245L65.0448 15.977H62.7922L62.7945 19.4942ZM83.109 20.057C83.1462 24.0278 83.1541 24.155 83.4122 24.8123C83.5982 25.2873 83.8654 25.6745 84.3108 26.1146C84.7516 26.5501 85.1518 26.8214 85.6219 27.0026C86.0627 27.1726 86.6332 27.2817 87.2566 27.3166C87.9308 27.3538 88.4156 27.3155 88.8914 27.1883C89.2634 27.0881 89.8023 26.8417 90.0886 26.6413C90.375 26.4398 90.7392 26.1236 90.897 25.9379C91.0548 25.7521 91.2871 25.3717 91.4133 25.0937C91.5396 24.8157 91.6952 24.2327 91.7583 23.7994C91.8226 23.366 91.8756 21.429 91.8767 19.4942L91.8789 15.977H89.6242C89.6264 21.6946 89.5745 23.6272 89.5114 23.9682C89.4483 24.3092 89.3085 24.7077 89.2003 24.8551C89.092 25.0026 88.8598 25.2299 88.685 25.3616C88.4731 25.5203 88.1495 25.6148 87.7268 25.643C87.375 25.6666 86.9105 25.6317 86.6929 25.5653C86.4765 25.4989 86.1428 25.2772 85.9522 25.0723C85.7324 24.836 85.5577 24.4837 85.4731 24.1089C85.3852 23.7195 85.3401 22.2326 85.3401 19.7475V15.977H83.0706L83.109 20.057ZM94.4719 21.6046V27.2322H96.3885C96.3885 20.1786 96.428 18.6782 96.5012 18.6782C96.5633 18.6782 96.7369 19.0958 96.8868 19.6068C97.0379 20.1178 97.5734 21.9535 98.0773 23.6868C98.5802 25.4201 99.0153 26.9272 99.0435 27.0352C99.0875 27.2063 99.2216 27.2288 100.074 27.2041L101.053 27.1759C103.019 20.4588 103.605 18.4846 103.623 18.4531C103.641 18.4216 103.683 20.3721 103.714 22.7864L103.773 27.1759H105.689L105.746 15.977L102.431 16.0333C100.675 22.2597 100.139 24.0943 100.109 24.1269C100.077 24.1595 99.5193 22.3384 98.8688 20.0795L97.685 15.9736L94.4719 15.977V21.6046ZM41.5972 30.3353C41.3177 30.4231 40.9501 30.6358 40.7788 30.8057C40.6074 30.9757 40.4146 31.2424 40.3503 31.3966C40.2861 31.552 40.2489 31.8761 40.2669 32.117C40.2917 32.4321 40.3808 32.6133 40.5826 32.7597C40.737 32.8722 41.2444 33.0658 41.71 33.1907C42.1745 33.3145 42.5927 33.4811 42.6378 33.5599C42.6841 33.6398 42.7246 33.7287 42.728 33.7602C42.7314 33.7918 42.6435 33.9347 42.5319 34.0788C42.3932 34.26 42.1733 34.3601 41.8227 34.4029C41.5386 34.4378 41.2038 34.4097 41.0617 34.3376C40.9005 34.2566 40.8081 34.108 40.8081 33.9291C40.8081 33.6646 40.7765 33.6488 40.2726 33.6758C39.8103 33.7006 39.7337 33.7389 39.7089 33.9572C39.6931 34.0968 39.7562 34.3624 39.8498 34.5481C39.9422 34.7338 40.1835 34.9702 40.3853 35.0737C40.6051 35.1874 41.0223 35.2639 41.4281 35.2651C41.9242 35.2673 42.2523 35.1942 42.6581 34.9927C42.9625 34.8407 43.3143 34.565 43.4405 34.3793C43.5657 34.1936 43.6897 33.839 43.7156 33.5914C43.7483 33.265 43.701 33.0635 43.542 32.8598C43.3785 32.6516 43.0674 32.512 42.347 32.3252C41.8103 32.1856 41.3402 32.0089 41.3019 31.9313C41.2635 31.8536 41.2602 31.6893 41.2928 31.5655C41.3267 31.4417 41.5228 31.2683 41.7291 31.1805C42.0008 31.0657 42.2128 31.05 42.4946 31.1243C42.7754 31.1986 42.9028 31.3066 42.9501 31.5092C43.0054 31.7478 43.0877 31.7951 43.4901 31.8187L43.9648 31.8469C43.9648 31.0837 43.8881 30.8654 43.7111 30.6819C43.5713 30.5356 43.2545 30.3589 43.0065 30.288C42.7585 30.2171 42.4541 30.1631 42.33 30.1664C42.206 30.171 41.8757 30.2464 41.5972 30.3353V30.3353ZM17.5928 30.5604C17.5387 30.7191 17.4891 30.9217 17.4823 31.0106C17.4744 31.1276 17.6075 31.1715 17.9784 31.1715C18.3854 31.1715 18.4857 31.1333 18.4868 30.9746C18.488 30.8665 18.5139 30.6639 18.5432 30.5244C18.5928 30.2948 18.5567 30.2711 18.1452 30.2711C17.7597 30.2711 17.6774 30.3139 17.5928 30.5604ZM29.2715 30.3555C29.2444 30.4017 29.1914 30.6043 29.1531 30.8057L29.0832 31.1715C30.0122 31.176 30.0471 31.1535 30.1272 30.808C30.1745 30.6054 30.2128 30.4017 30.2117 30.3555C30.2117 30.3094 30.0099 30.2711 29.7653 30.2711C29.5206 30.2711 29.2974 30.3094 29.2715 30.3555V30.3555ZM56.6073 30.5525C56.5498 30.7157 56.4969 30.9217 56.4901 31.0106C56.4822 31.1254 56.6085 31.1715 56.9298 31.1715C57.1778 31.1715 57.401 31.1333 57.4258 31.0871C57.4506 31.041 57.489 30.8508 57.5104 30.6651C57.5476 30.3488 57.5239 30.3251 57.1316 30.2925C56.7686 30.2621 56.6998 30.2959 56.6073 30.5525V30.5525ZM63.9681 30.5806C63.9309 30.7506 63.8802 30.9532 63.8542 31.0309C63.8204 31.1299 63.9579 31.1715 64.3142 31.1715C64.7494 31.1715 64.8294 31.1355 64.8768 30.9183C64.9061 30.7787 64.932 30.5761 64.9331 30.4681C64.9343 30.3128 64.8384 30.2711 64.4856 30.2711C64.0865 30.2711 64.0278 30.306 63.9681 30.5806ZM9.08438 30.6369C9.0483 30.7765 9.01786 30.9791 9.01673 31.0871C9.0156 31.2526 9.12271 31.2841 9.69204 31.2841C10.3685 31.2841 10.3685 31.2841 10.3132 31.5936C10.2828 31.7636 10.1058 32.6122 9.91865 33.4789C9.7315 34.3455 9.57817 35.0929 9.57817 35.139C9.5793 35.1852 9.80703 35.2234 10.0866 35.2234C10.3967 35.2234 10.6097 35.1683 10.6334 35.0827C10.6548 35.0051 10.8454 34.1182 11.0562 33.1119L11.4395 31.283C12.6086 31.2841 12.8645 31.2357 12.8961 31.1434C12.922 31.0657 12.9728 30.8631 13.0088 30.6932L13.0742 30.3837C9.17231 30.3837 9.14864 30.3871 9.08438 30.6369V30.6369ZM13.3662 31.1997C13.2681 31.6488 13.0393 32.6989 12.8578 33.5351C12.6762 34.3714 12.5613 35.094 12.603 35.1424C12.6458 35.1908 12.8442 35.2279 13.046 35.2268C13.2478 35.2245 13.435 35.1852 13.462 35.139C13.4902 35.0929 13.6052 34.5988 13.7191 34.0416C13.833 33.4845 14.0133 32.8891 14.1204 32.7191C14.2275 32.5492 14.4282 32.3781 14.568 32.3398C14.7078 32.3016 14.9107 32.3016 15.019 32.3398C15.1531 32.3871 15.2151 32.5267 15.2129 32.7754C15.2118 32.9769 15.1137 33.5712 14.9964 34.0979C14.878 34.6246 14.8036 35.0929 14.8296 35.139C14.8566 35.1852 15.055 35.2234 15.2726 35.2234C15.5782 35.2234 15.6886 35.166 15.763 34.9702C15.8149 34.8306 15.9705 34.1857 16.1069 33.5351C16.2986 32.6235 16.3279 32.2824 16.2366 32.0438C16.1712 31.8739 15.9908 31.6837 15.8363 31.6217C15.6807 31.5598 15.4147 31.5092 15.2444 31.5103C15.0742 31.5103 14.7822 31.5869 14.5962 31.6803C14.4102 31.7726 14.2456 31.8356 14.2298 31.8198C14.214 31.8041 14.2771 31.4743 14.3707 31.0871L14.5398 30.3837H13.5443L13.3662 31.1997ZM25.2061 30.5806C25.1745 30.6887 24.9434 31.7523 24.692 32.9442C24.4406 34.1362 24.2354 35.1356 24.2354 35.1671C24.2354 35.1987 24.4643 35.2234 24.7427 35.2234C25.1768 35.2234 25.2579 35.1863 25.3076 34.9702C25.3391 34.8306 25.4304 34.3872 25.5094 33.9853L25.6537 33.2538C27.7314 33.1435 27.7811 33.1288 27.8555 32.8598C27.8983 32.7056 27.9389 32.5154 27.9445 32.4378C27.9524 32.3353 27.6841 32.2971 26.9411 32.2971C26.205 32.2971 25.9265 32.2588 25.9254 32.1564C25.9242 32.0787 25.9626 31.8502 26.0099 31.6476L26.0956 31.2785C28.3797 31.2841 28.409 31.2773 28.5195 31.0027C28.5815 30.8485 28.6322 30.6448 28.6322 30.5525C28.6322 30.4096 28.3696 30.3837 26.9468 30.3837C25.4395 30.3837 25.2568 30.4039 25.2061 30.5806V30.5806ZM31.0663 30.5806C31.0347 30.6887 30.8036 31.7399 30.5544 32.9161C30.3042 34.0923 30.1001 35.0929 30.099 35.139C30.0978 35.1852 30.3132 35.211 30.5759 35.1953L31.0527 35.1671C31.7867 31.7658 32.0031 30.6887 32.0076 30.5806C32.0133 30.4253 31.9208 30.3837 31.5691 30.3837C31.2433 30.3837 31.1091 30.4366 31.0663 30.5806ZM61.6784 32.6066C61.4202 33.8289 61.2105 34.9184 61.2116 35.0265C61.2139 35.1807 61.3108 35.2234 61.6648 35.2234C61.9129 35.2234 62.1158 35.1987 62.1158 35.1671C62.1158 35.1356 62.321 34.1362 62.5724 32.9442C62.8238 31.7523 63.0526 30.6887 63.0797 30.5806C63.1225 30.4152 63.0515 30.3837 62.6389 30.3837H62.1474L61.6784 32.6066ZM83.7764 31.1715L83.649 31.9594C83.1676 31.6049 82.8891 31.5036 82.7189 31.5058C82.5475 31.5069 82.269 31.5632 82.0988 31.6285C81.9274 31.6949 81.6467 31.8851 81.4742 32.0506C81.3017 32.2172 81.0605 32.619 80.9387 32.9442C80.817 33.2695 80.7178 33.7118 80.7178 33.9291C80.7178 34.1463 80.7933 34.4749 80.8869 34.6607C80.9793 34.8464 81.1574 35.049 81.2815 35.1109C81.4055 35.1728 81.6839 35.2234 81.9015 35.2234C82.118 35.2234 82.4483 35.1469 82.6343 35.0546C82.9342 34.9049 82.9725 34.9049 82.9725 35.0546C82.9725 35.1762 83.0977 35.2234 83.4235 35.2234C83.7572 35.2234 83.888 35.1728 83.9263 35.0265C83.9556 34.9184 84.1834 33.8672 84.4325 32.691C84.6828 31.5148 84.8869 30.5142 84.888 30.4681C84.888 30.4219 84.667 30.3837 84.3964 30.3837H83.9049L83.7764 31.1715ZM82.0695 32.7754C82.2476 32.4839 82.3671 32.4096 82.6603 32.4074C82.8632 32.4062 83.092 32.4704 83.171 32.5481C83.2499 32.6268 83.313 32.8812 83.3119 33.1131C83.3108 33.3449 83.2341 33.6871 83.1405 33.8728C83.0481 34.0585 82.87 34.2611 82.7459 34.323C82.6219 34.3849 82.3942 34.4356 82.2386 34.4356C82.0594 34.4356 81.9128 34.3444 81.8327 34.1823C81.764 34.0427 81.7392 33.7524 81.7764 33.5351C81.8147 33.3179 81.9455 32.9769 82.0695 32.7754ZM87.4269 30.5244C87.4009 30.602 87.1732 31.6398 86.9229 32.8317C86.6715 34.0236 86.4663 35.049 86.4663 35.1109C86.4663 35.1728 86.6952 35.2234 86.9737 35.2234C87.2533 35.2234 87.481 35.1987 87.481 35.1671C87.481 35.1356 87.6873 34.1362 87.9387 32.9442C88.1901 31.7523 88.4179 30.6887 88.446 30.5806C88.4877 30.4152 88.4156 30.3837 87.9861 30.3837C87.6794 30.3837 87.4562 30.44 87.4269 30.5244V30.5244ZM70.0346 30.7866C69.6524 30.9138 69.5385 31.0151 69.4709 31.2863C69.4078 31.5407 69.3221 31.6263 69.1327 31.624C68.9602 31.6229 68.8621 31.7028 68.8249 31.875C68.7945 32.0146 68.7697 32.1665 68.7685 32.2126C68.7674 32.2588 68.8677 32.2971 68.9918 32.2971C69.1631 32.2971 69.2082 32.3578 69.1766 32.5503C69.1541 32.6899 69.0391 33.2706 68.923 33.8413C68.7471 34.7001 68.7358 34.9049 68.8587 35.0231C68.941 35.103 69.2454 35.1874 69.5352 35.2122C69.826 35.2369 70.0943 35.211 70.1327 35.1559C70.1699 35.0996 70.2341 34.915 70.2736 34.7451C70.3367 34.4704 70.3131 34.4356 70.0628 34.4356C69.9083 34.4356 69.7843 34.3973 69.7866 34.3511C69.7899 34.305 69.8801 33.8368 69.9884 33.31C70.1733 32.4062 70.2014 32.3522 70.4901 32.3252C70.658 32.3094 70.7967 32.2588 70.7978 32.2126C70.799 32.1665 70.8238 32.0146 70.8542 31.875C70.8993 31.6656 70.8598 31.6217 70.6265 31.6217C70.4168 31.6217 70.357 31.5722 70.3908 31.4248C70.4168 31.3167 70.463 31.0883 70.4957 30.9183C70.5284 30.7483 70.5453 30.6133 70.534 30.6178C70.5228 30.6223 70.2984 30.6988 70.0346 30.7866V30.7866ZM109.218 30.8699C109.04 30.9442 108.878 31.1254 108.824 31.3111C108.758 31.5385 108.661 31.6263 108.479 31.624C108.328 31.6229 108.225 31.6893 108.225 31.7906C108.225 31.8829 108.2 32.0359 108.169 32.1282C108.131 32.2408 108.187 32.2971 108.338 32.2971C108.462 32.2971 108.563 32.3477 108.563 32.4096C108.563 32.4715 108.459 33.0163 108.332 33.6196C108.206 34.2228 108.127 34.7935 108.158 34.8858C108.19 34.9781 108.332 35.0917 108.474 35.1379C108.616 35.1829 108.898 35.2212 109.099 35.2223C109.301 35.2223 109.484 35.1852 109.507 35.139C109.529 35.0929 109.58 34.915 109.62 34.7451C109.683 34.4704 109.659 34.4356 109.409 34.4356C109.254 34.4356 109.128 34.3973 109.129 34.3511C109.13 34.305 109.206 33.9369 109.298 33.5351C109.391 33.1333 109.491 32.6899 109.523 32.5503C109.562 32.3702 109.66 32.2971 109.86 32.2971C110.015 32.2971 110.168 32.2205 110.198 32.1282C110.23 32.0359 110.254 31.8829 110.254 31.7906C110.254 31.6859 110.148 31.6217 109.972 31.6217C109.798 31.6217 109.709 31.5689 109.738 31.4811C109.764 31.4034 109.815 31.2008 109.851 31.0309C109.904 30.7832 109.877 30.7236 109.719 30.7337C109.611 30.7393 109.385 30.8012 109.218 30.8699ZM20.4575 31.6983C20.2253 31.8232 20.1114 31.839 20.0911 31.7501C20.0765 31.6803 19.86 31.6217 19.612 31.6217C19.3639 31.6217 19.161 31.6465 19.161 31.678C19.161 31.7095 19.0088 32.4434 18.8228 33.31C18.6368 34.1767 18.4846 34.9623 18.4846 35.0546C18.4846 35.1762 18.6108 35.2234 18.9355 35.2234C19.3121 35.2234 19.3966 35.1807 19.444 34.9702C19.4744 34.8306 19.5759 34.35 19.6695 33.9009C19.7619 33.4518 19.9073 32.9454 19.9908 32.7754C20.0753 32.6055 20.2275 32.4276 20.329 32.3815C20.4316 32.3353 20.6029 32.2948 20.7112 32.2926C20.8205 32.2892 20.9851 32.3702 21.0776 32.4704C21.2286 32.6347 21.2196 32.7754 20.993 33.7704C20.8544 34.3838 20.7394 34.9623 20.7394 35.0546C20.7394 35.1818 20.8555 35.2167 21.2117 35.1953L21.6841 35.1671C22.0764 33.3348 22.1937 32.6133 22.1982 32.3815C22.2038 32.0472 22.1418 31.9121 21.8949 31.7309C21.7134 31.5959 21.4226 31.5047 21.1903 31.5103C20.9739 31.5148 20.6435 31.5992 20.4575 31.6983V31.6983ZM33.8825 31.6859C33.6987 31.7793 33.5612 31.803 33.5725 31.7377C33.5837 31.6735 33.3797 31.6217 33.1125 31.6217H32.6333C32.1238 34.108 31.9456 34.9229 31.9096 35.0377C31.8521 35.2212 31.9017 35.2403 32.3504 35.2065L32.8554 35.1671C33.1643 33.7715 33.3041 33.1761 33.3662 32.9442C33.4428 32.6584 33.5702 32.4862 33.7607 32.4096C33.9486 32.3346 34.1177 32.3346 34.2681 32.4096C34.3921 32.4715 34.4924 32.5604 34.4913 32.6066C34.489 32.6527 34.3752 33.238 34.2376 33.9066C34.099 34.5751 34.0121 35.1469 34.0426 35.1762C34.0742 35.2054 34.2895 35.2279 34.5217 35.2268L34.9445 35.2234C35.1339 34.2206 35.259 33.6511 35.3447 33.31C35.4394 32.933 35.6018 32.6122 35.7585 32.4895C35.9005 32.3781 36.0663 32.2869 36.1283 32.2869C36.1903 32.2869 36.3177 32.3702 36.4101 32.4704C36.5612 32.6347 36.5522 32.7754 36.3256 33.7704C36.1869 34.3838 36.0719 34.9623 36.0719 35.0546C36.0719 35.1818 36.1869 35.2167 36.5443 35.1953L37.0155 35.1671C37.4135 33.3348 37.5307 32.6133 37.533 32.3815C37.5375 32.0483 37.4721 31.911 37.2275 31.7309C37.0572 31.6049 36.7652 31.5013 36.5792 31.5024C36.3932 31.5024 36.0663 31.6184 35.8532 31.7591L35.4642 32.0157C35.0403 31.6015 34.8115 31.5103 34.5781 31.5137C34.3774 31.5159 34.064 31.5936 33.8825 31.6859V31.6859ZM49.4123 31.7512C49.153 31.884 48.8137 32.1744 48.657 32.3972C48.5014 32.6212 48.3154 33.032 48.2432 33.31C48.1699 33.588 48.1406 33.9932 48.1767 34.2105C48.2128 34.4277 48.3571 34.7169 48.4991 34.8554C48.6401 34.9927 48.9332 35.1559 49.1496 35.2167C49.3672 35.2774 49.6964 35.2966 49.8824 35.2594C50.0685 35.2223 50.3221 35.1424 50.4461 35.0816C50.5702 35.0208 50.8385 34.8126 51.0403 34.619C51.2432 34.4254 51.4078 34.2285 51.4067 34.1823C51.4056 34.1362 51.1891 34.0956 50.9253 34.0934C50.6288 34.09 50.383 34.1553 50.277 34.2667C50.1846 34.3646 49.9557 34.4446 49.7697 34.4423C49.5837 34.4412 49.3672 34.3748 49.2894 34.2971C49.2105 34.2183 49.1474 34.0405 49.1485 33.9009C49.1496 33.6533 49.1801 33.6477 50.3898 33.6477H51.6299C51.7348 32.727 51.6953 32.4693 51.5499 32.1856C51.4394 31.9695 51.2218 31.7298 51.0662 31.6521C50.9118 31.5756 50.5814 31.5114 50.3334 31.5114C50.0854 31.5103 49.6705 31.6184 49.4123 31.7512V31.7512ZM49.5983 32.5571C49.7449 32.4141 49.9828 32.2971 50.1271 32.2971C50.2725 32.2971 50.4664 32.3736 50.5589 32.4659C50.6525 32.5582 50.728 32.7113 50.728 32.8035C50.728 32.9352 50.5781 32.9724 50.0516 32.9724C49.6795 32.9724 49.3661 32.9375 49.3537 32.8947C49.3424 32.8531 49.4518 32.7011 49.5983 32.5571ZM53.2567 31.7219C53.0042 31.8424 52.6649 32.1361 52.5025 32.3725C52.3402 32.61 52.1463 33.0568 52.073 33.3663C51.9986 33.6758 51.9715 34.1058 52.011 34.323C52.0516 34.5402 52.1722 34.8081 52.2804 34.9195C52.3875 35.0321 52.666 35.1705 52.8982 35.2291C53.1722 35.2988 53.4901 35.2955 53.8001 35.2212C54.109 35.1469 54.4247 34.9567 54.6863 34.6865C54.9106 34.4558 55.126 34.1778 55.1654 34.0698C55.2274 33.9032 55.1688 33.8728 54.7866 33.8728C54.4416 33.8728 54.2838 33.9381 54.1102 34.1542C53.9692 34.3298 53.7686 34.4367 53.5747 34.4378C53.4044 34.4389 53.2004 34.3748 53.1226 34.2971C53.0437 34.2183 52.9817 34.0022 52.9839 33.8165C52.9862 33.6308 53.0888 33.2639 53.2116 33.0005C53.3334 32.7371 53.5487 32.4648 53.6874 32.395C53.8272 32.3252 54.0301 32.3004 54.1384 32.3387C54.2477 32.3781 54.3616 32.5109 54.392 32.6347C54.4382 32.8182 54.5431 32.8598 54.9557 32.8598C55.445 32.8598 55.463 32.8474 55.463 32.5222C55.463 32.3342 55.3514 32.0539 55.2094 31.8896C55.0064 31.6533 54.8328 31.5857 54.3356 31.5486C53.8791 31.5137 53.5961 31.5598 53.2567 31.7219V31.7219ZM58.6592 31.6949C58.4642 31.8018 58.1981 32.0438 58.0684 32.234C57.9377 32.4231 57.8317 32.6167 57.8317 32.6629C57.8317 32.709 58.0211 32.7484 58.2533 32.7506C58.5397 32.7529 58.7494 32.6786 58.9016 32.5188C59.0549 32.3578 59.2364 32.2937 59.4653 32.3184C59.7201 32.3443 59.8114 32.4164 59.8317 32.6066C59.8531 32.7912 59.7911 32.8733 59.6062 32.9093C59.4675 32.9375 59.1496 32.9915 58.9016 33.032C58.6536 33.0714 58.2793 33.1885 58.0696 33.2909C57.8588 33.3944 57.6186 33.6184 57.5341 33.7884C57.4495 33.9583 57.3785 34.2622 57.3762 34.4637C57.374 34.6708 57.4597 34.9139 57.5735 35.0231C57.7043 35.1491 57.9535 35.2178 58.2815 35.2167C58.5611 35.2155 58.9162 35.1435 59.0707 35.0546C59.2263 34.9657 59.3909 34.8914 59.4371 34.8903C59.4845 34.888 59.5217 34.9623 59.5217 35.0546C59.5217 35.1795 59.6536 35.2234 60.029 35.2234C60.4957 35.2234 60.5329 35.2032 60.4867 34.9702C60.4585 34.8306 60.5352 34.2352 60.6569 33.6477C60.7787 33.0602 60.879 32.4524 60.8802 32.2971C60.8813 32.1429 60.7742 31.9144 60.6412 31.7906C60.4642 31.6263 60.2127 31.5565 59.7065 31.534C59.2161 31.5114 58.9117 31.5587 58.6592 31.6949V31.6949ZM59.0707 33.6173C59.2263 33.5892 59.4416 33.5588 59.5498 33.5509C59.7268 33.5363 59.7325 33.5723 59.6062 33.8931C59.5295 34.09 59.3638 34.3196 59.2398 34.404C59.1158 34.4885 58.8881 34.5425 58.7325 34.5245C58.5521 34.5031 58.4382 34.4108 58.4168 34.2667C58.3976 34.1429 58.4732 33.9572 58.5859 33.8548C58.6975 33.7524 58.9162 33.6454 59.0707 33.6173V33.6173ZM66.1733 31.6353C66.0188 31.6972 65.7764 31.8592 65.6344 31.9943C65.4935 32.1294 65.3289 32.4051 65.268 32.6066C65.1857 32.8846 65.2003 33.0399 65.3277 33.2538C65.4529 33.4609 65.7065 33.5948 66.286 33.7602C66.8121 33.9103 67.0752 34.0416 67.0752 34.1542C67.0752 34.2465 66.9737 34.3737 66.8497 34.4356C66.7257 34.4975 66.4856 34.5357 66.3142 34.52C66.1192 34.502 65.9636 34.3984 65.8914 34.2386C65.8001 34.0326 65.6885 33.9842 65.2995 33.9853C64.8531 33.9853 64.8204 34.0056 64.8204 34.2949C64.8193 34.4648 64.888 34.7057 64.9726 34.8295C65.056 34.9533 65.3615 35.1176 65.649 35.1953C65.9376 35.2729 66.3638 35.3033 66.596 35.2651C66.8294 35.2257 67.1586 35.1244 67.3288 35.04C67.5002 34.9544 67.7426 34.7462 67.8689 34.5762C67.9951 34.4063 68.0966 34.1272 68.0943 33.9572C68.0921 33.7873 68.0391 33.5464 67.9771 33.4226C67.9061 33.2796 67.6276 33.1299 67.2161 33.0151C66.8599 32.9138 66.4799 32.7878 66.3706 32.7338C66.2093 32.6527 66.1992 32.6032 66.3142 32.4614C66.392 32.3657 66.6208 32.2892 66.8215 32.2926C67.0729 32.2959 67.224 32.368 67.3007 32.5222C67.3818 32.6831 67.5261 32.7473 67.808 32.7473C68.0819 32.7473 68.224 32.6865 68.2736 32.5503C68.3119 32.4423 68.3119 32.2397 68.2736 32.1001C68.2341 31.9605 68.0504 31.7703 67.8644 31.678C67.6783 31.5857 67.286 31.5126 66.9906 31.516C66.6964 31.5205 66.3288 31.5745 66.1733 31.6353ZM74.3469 31.5869C74.2229 31.6218 74.0008 31.7332 73.8531 31.8333C73.7054 31.9335 73.516 32.1552 73.4303 32.3252C73.3457 32.4952 73.2758 32.6595 73.2758 32.691C73.2758 32.7225 73.4664 32.7484 73.6986 32.7506C73.9812 32.7537 74.1973 32.6775 74.3469 32.5222C74.4867 32.3792 74.7133 32.2914 74.9387 32.2937C75.162 32.2959 75.3277 32.3635 75.3615 32.4659C75.3931 32.5582 75.3525 32.6977 75.2713 32.7754C75.1913 32.8531 74.8745 32.9476 74.5667 32.987C74.2601 33.0264 73.8316 33.1401 73.6141 33.2391C73.3976 33.3382 73.1315 33.5712 73.0222 33.758C72.914 33.9448 72.8249 34.2746 72.8249 34.4918C72.8249 34.7755 72.897 34.933 73.0786 35.0557C73.2183 35.1491 73.5351 35.2234 73.7832 35.22C74.0312 35.2178 74.3615 35.1435 74.516 35.0546C74.6716 34.9657 74.8362 34.8914 74.8824 34.8903C74.9297 34.888 74.9669 34.9623 74.9669 35.0546C74.9669 35.1795 75.0988 35.2234 75.4743 35.2234C75.941 35.2234 75.9782 35.2032 75.9309 34.9702C75.9015 34.8306 75.9782 34.2735 76.1 33.7321C76.2206 33.1907 76.3221 32.5829 76.3243 32.3815C76.3266 32.1485 76.2398 31.9335 76.0853 31.7906C75.9106 31.6285 75.667 31.5598 75.2082 31.5441C74.8587 31.5328 74.4709 31.552 74.3469 31.5869V31.5869ZM74.4145 33.6826C74.6253 33.6083 74.8745 33.5464 74.9669 33.5441C75.0898 33.5408 75.1214 33.6218 75.0797 33.8357C75.0492 33.9989 74.897 34.2285 74.7415 34.3444C74.587 34.4603 74.3457 34.5537 74.2059 34.5515C74.0673 34.5504 73.9196 34.4592 73.879 34.3511C73.8395 34.2431 73.8564 34.0776 73.9185 33.9853C73.9805 33.8931 74.2037 33.7557 74.4145 33.6826V33.6826ZM78.631 31.6859C78.4168 31.7973 78.2826 31.8176 78.2646 31.7411C78.2499 31.6758 78.0334 31.6217 77.7854 31.6217C77.41 31.6217 77.3254 31.6645 77.2781 31.875C77.2465 32.0146 77.0943 32.7236 76.9399 33.4507C76.7854 34.1778 76.658 34.8745 76.658 34.9983C76.658 35.1807 76.7336 35.2234 77.0526 35.2234C77.3164 35.2234 77.4803 35.1578 77.5442 35.0265C77.5971 34.9184 77.702 34.4997 77.7764 34.0979C77.8497 33.6961 77.959 33.202 78.0177 33.0005C78.0763 32.799 78.2386 32.5582 78.3773 32.4648C78.5171 32.3713 78.7324 32.2937 78.8564 32.2914C78.9804 32.2892 79.1462 32.3522 79.2228 32.4333C79.3356 32.5492 79.313 32.8328 79.1101 33.8503C78.9714 34.5504 78.8824 35.1469 78.9128 35.1762C78.9444 35.2054 79.1597 35.2279 79.3919 35.2268C79.7381 35.2245 79.8249 35.1773 79.8711 34.9702C79.9015 34.8306 80.0278 34.2352 80.1529 33.6477C80.2781 33.0602 80.3795 32.4648 80.3795 32.3252C80.3795 32.1856 80.2521 31.9459 80.0966 31.7906C79.8959 31.5902 79.6941 31.5092 79.3919 31.5103C79.1597 31.5103 78.817 31.5891 78.631 31.6859ZM90.5249 31.5891C90.4325 31.6229 90.2656 31.7332 90.1552 31.8333C89.9691 32.0022 89.9545 32.0011 89.9579 31.8187C89.9612 31.6634 89.8666 31.6217 89.5103 31.6217C89.1766 31.6217 89.0458 31.6724 89.0063 31.8187C88.977 31.9268 88.8 32.7124 88.6118 33.5633C88.3513 34.7473 88.304 35.1255 88.4111 35.1728C88.4889 35.2077 88.7008 35.22 88.8823 35.2009C89.1202 35.1762 89.2352 35.0895 89.2961 34.8858C89.3423 34.7304 89.4674 34.1992 89.5757 33.704C89.7098 33.0816 89.8519 32.7259 90.0357 32.5503C90.2036 32.3894 90.4133 32.3072 90.6095 32.3252C90.8767 32.35 90.924 32.4085 90.9511 32.7473C90.9691 32.9645 90.8835 33.5712 90.7628 34.0979C90.6411 34.6246 90.5757 35.094 90.6185 35.1424C90.6602 35.1908 90.8846 35.2279 91.1168 35.2268C91.3502 35.2245 91.5396 35.1987 91.5396 35.1671C91.5396 35.1356 91.667 34.5278 91.8214 33.8165C91.977 33.1052 92.1033 32.4209 92.1033 32.2971C92.1033 32.1733 91.977 31.9459 91.8214 31.7906C91.6163 31.5857 91.4257 31.5114 91.1168 31.5182C90.8846 31.5227 90.6185 31.5553 90.5249 31.5891ZM94.5836 31.5891C94.4911 31.6229 94.3243 31.7332 94.2138 31.8333C94.0278 32.0022 94.0131 32.0011 94.0165 31.8187C94.0199 31.6634 93.9252 31.6217 93.5689 31.6217C93.1946 31.6217 93.1089 31.6645 93.0593 31.875C93.0278 32.0146 92.8575 32.7867 92.6805 33.5914C92.5046 34.3962 92.3919 35.094 92.4291 35.1435C92.4674 35.1919 92.6715 35.2178 92.8846 35.1998C93.1833 35.1739 93.2893 35.1041 93.3558 34.8858C93.4032 34.7316 93.5306 34.1992 93.6377 33.704C93.7696 33.1007 93.9184 32.7203 94.0909 32.5503C94.2329 32.4107 94.4776 32.2971 94.6354 32.2971C94.7933 32.2971 94.9691 32.3849 95.0266 32.494C95.0965 32.6246 95.0495 33.0947 94.8857 33.9043C94.7504 34.5717 94.6659 35.1424 94.6963 35.1739C94.7279 35.2043 94.9432 35.2279 95.1754 35.2268C95.4088 35.2245 95.5982 35.1987 95.5982 35.1671C95.5982 35.1356 95.7256 34.5278 95.8801 33.8165C96.0356 33.1052 96.1619 32.4209 96.1619 32.2971C96.1619 32.1733 96.0356 31.9459 95.8801 31.7906C95.6749 31.5857 95.4843 31.5114 95.1754 31.5182C94.9432 31.5227 94.6771 31.5553 94.5836 31.5891ZM97.6839 31.785C97.4359 31.9358 97.1224 32.2273 96.986 32.431C96.8496 32.6358 96.6726 33.0444 96.5914 33.3393C96.4663 33.794 96.4697 33.9448 96.6129 34.3421C96.7064 34.5988 96.9251 34.915 97.101 35.0445C97.3344 35.2167 97.5745 35.2763 98.0029 35.2684C98.3265 35.2628 98.782 35.1626 99.0244 35.0433C99.2656 34.9263 99.6083 34.6269 99.7865 34.3793C99.9635 34.1317 100.163 33.6758 100.227 33.3663C100.326 32.8958 100.313 32.7225 100.143 32.3094C100.016 32.0033 99.8214 31.7568 99.6286 31.6623C99.4584 31.5779 99.0525 31.5092 98.7267 31.5103C98.3006 31.5114 98.0097 31.588 97.6839 31.785V31.785ZM97.9736 32.6066C98.1653 32.4175 98.4111 32.2959 98.6061 32.2948C98.7808 32.2937 98.9883 32.3578 99.0672 32.4355C99.1461 32.5143 99.2092 32.8069 99.2081 33.0849C99.207 33.3899 99.1157 33.7366 98.9804 33.9572C98.8474 34.1733 98.6286 34.3511 98.4449 34.3917C98.2746 34.4288 98.021 34.4288 97.8812 34.3917C97.7425 34.3534 97.5982 34.2093 97.561 34.0698C97.5238 33.9302 97.5317 33.6139 97.5768 33.3663C97.6253 33.1052 97.7921 32.7855 97.9736 32.6066ZM105.429 31.669C105.224 31.7523 104.956 31.9662 104.834 32.1429C104.711 32.3207 104.612 32.5289 104.614 32.6066C104.616 32.6932 104.781 32.7473 105.04 32.7484C105.324 32.7495 105.528 32.6752 105.66 32.5233C105.795 32.368 105.972 32.3061 106.224 32.3252C106.472 32.3443 106.598 32.4164 106.618 32.5503C106.635 32.6662 106.542 32.7912 106.393 32.8531C106.254 32.9116 105.912 32.9859 105.632 33.0208C105.354 33.0545 104.948 33.1975 104.73 33.3404C104.448 33.525 104.293 33.7411 104.183 34.1013C104.044 34.5627 104.049 34.628 104.251 34.8858C104.421 35.103 104.59 35.1739 104.996 35.1953C105.292 35.211 105.667 35.1503 105.857 35.0546C106.158 34.9049 106.202 34.9049 106.252 35.0546C106.293 35.1762 106.444 35.2155 106.788 35.1953C107.198 35.1716 107.261 35.1345 107.228 34.942C107.207 34.8182 107.305 34.1598 107.447 33.4789C107.588 32.7979 107.669 32.1519 107.626 32.0438C107.584 31.9358 107.372 31.7703 107.154 31.678C106.938 31.5857 106.544 31.5114 106.28 31.5137C106.018 31.5159 105.634 31.5857 105.429 31.669ZM106.027 33.5903C106.089 33.57 106.204 33.5486 106.28 33.5441C106.358 33.5396 106.421 33.6364 106.421 33.7602C106.421 33.8841 106.297 34.1125 106.145 34.2667C105.97 34.4446 105.742 34.5481 105.525 34.5481C105.32 34.5481 105.159 34.4806 105.125 34.3793C105.094 34.287 105.119 34.1092 105.181 33.9853C105.243 33.8615 105.434 33.731 105.604 33.6938C105.775 33.6578 105.965 33.6105 106.027 33.5903ZM111.499 31.6656C111.284 31.7478 110.967 31.9988 110.794 32.2239C110.622 32.4501 110.402 32.9003 110.305 33.2256C110.169 33.6882 110.156 33.9201 110.249 34.2949C110.314 34.5582 110.482 34.8633 110.621 34.9747C110.761 35.085 111.077 35.2133 111.325 35.2606C111.627 35.318 111.962 35.291 112.34 35.1784C112.65 35.0861 113.038 34.8678 113.201 34.6944C113.365 34.5211 113.586 34.2026 113.693 33.9853C113.8 33.7681 113.91 33.3629 113.938 33.0849C113.972 32.7349 113.925 32.4569 113.784 32.1856C113.673 31.9707 113.454 31.7309 113.298 31.6533C113.144 31.5756 112.763 31.5137 112.453 31.5148C112.143 31.5171 111.713 31.5846 111.499 31.6656V31.6656ZM111.821 32.4186C111.921 32.3556 112.129 32.3004 112.284 32.2971C112.439 32.2926 112.658 32.3804 112.772 32.4907C112.935 32.6505 112.963 32.8002 112.913 33.2256C112.872 33.5588 112.741 33.8874 112.565 34.0979C112.361 34.3433 112.183 34.4367 111.917 34.4401C111.71 34.4434 111.479 34.3635 111.382 34.2555C111.28 34.1395 111.224 33.8919 111.241 33.6308C111.257 33.3922 111.354 33.0478 111.455 32.8655C111.558 32.6831 111.722 32.4816 111.821 32.4186V32.4186ZM17.2974 31.875C17.2625 32.0146 17.0968 32.8013 16.9288 33.6241C16.7619 34.4457 16.6503 35.1435 16.6807 35.1739C16.7123 35.2043 16.9276 35.2279 17.1599 35.2268C17.3933 35.2245 17.5827 35.1987 17.5827 35.1671C17.5827 35.1356 17.736 34.3894 17.922 33.507C18.1092 32.6246 18.2613 31.8401 18.2602 31.7624C18.2602 31.6735 18.0945 31.6217 17.8104 31.6217C17.4384 31.6217 17.3504 31.6656 17.2974 31.875V31.875ZM28.9705 31.6499C28.9705 31.6656 28.8183 32.3871 28.6311 33.2538C28.4451 34.1204 28.2929 34.9184 28.2929 35.0265C28.2929 35.1807 28.3898 35.2234 28.7438 35.2234C29.1193 35.2234 29.2049 35.1807 29.2534 34.9702C29.285 34.8306 29.462 34.0202 29.648 33.1693L29.984 31.6217C29.1982 31.6217 28.9705 31.6341 28.9705 31.6499ZM56.312 31.7624C56.2849 31.8401 56.1147 32.6122 55.932 33.4789C55.7494 34.3455 55.6198 35.0929 55.6446 35.139C55.6694 35.1852 55.8666 35.2234 56.0831 35.2234C56.3007 35.2234 56.5014 35.1852 56.5284 35.139C56.5566 35.0929 56.7336 34.3331 56.923 33.4507C57.1124 32.5683 57.2669 31.7962 57.2669 31.7343C57.2669 31.6724 57.0628 31.6217 56.8137 31.6217C56.551 31.6217 56.339 31.6814 56.312 31.7624ZM63.3728 33.2819C63.1778 34.1947 63.0177 35.0051 63.0177 35.0827C63.0177 35.1773 63.171 35.2144 63.4878 35.1953L63.9591 35.1671C64.5295 32.5503 64.6975 31.7523 64.702 31.7062C64.7054 31.66 64.4878 31.6217 64.2172 31.6217H63.7268L63.3728 33.2819ZM100.953 32.1001C100.992 32.3635 101.11 33.1615 101.215 33.8728L101.405 35.1671H102.41C103.947 32.5064 104.393 31.7095 104.393 31.678C104.393 31.6465 104.164 31.6217 103.886 31.6217H103.378L102.195 33.9989C102.076 33.247 102.038 32.7124 102.033 32.3252L102.025 31.6217H100.881L100.953 32.1001Z" fill="white"/>
<path d="M11.7213 21.8646C11.3797 21.7296 11.0257 21.5393 10.9344 21.4425C10.7822 21.2839 11.2557 21.267 21.1914 21.267L21.3042 21.5483C21.3662 21.7025 21.4169 21.9051 21.4169 21.9986C21.4169 22.146 20.8498 22.164 16.8791 22.1392C12.5161 22.1111 12.3177 22.101 11.7213 21.8646Z" fill="#0059A6"/>
<path d="M24.2354 21.8646C23.8938 21.7296 23.5398 21.5393 23.4485 21.4425C23.2963 21.2839 23.7698 21.267 28.4935 21.267C31.3605 21.267 33.7246 21.3052 33.7483 21.3514C33.772 21.3975 33.8227 21.6001 33.931 22.1674L29.3932 22.1392C25.0302 22.1111 24.8318 22.101 24.2354 21.8646Z" fill="#0059A6"/>
<path d="M34.6074 22.1674V21.7172V21.267H38.3278V22.1674H34.6074Z" fill="#0059A6"/>
<path d="M40.808 22.1674V21.7172V21.267H44.5284V22.1674H40.808Z" fill="#0059A6"/>
<path d="M46.9523 22.1111L46.9174 21.689L46.8813 21.267H50.7291L50.6727 22.1111H46.9523Z" fill="#0059A6"/>
<path d="M17.7833 23.1241L17.7495 22.6998L17.7145 22.2743L21.4744 22.3362V23.1241H17.7833Z" fill="#0059A6"/>
<path d="M30.2917 23.1252L30.2511 22.6998L30.2094 22.2754L33.9885 22.3373V23.1252H30.2917Z" fill="#0059A6"/>
<path d="M34.6311 22.8427C34.6119 22.6885 34.6232 22.4983 34.6559 22.4206C34.701 22.3171 35.1846 22.2799 38.3289 22.2799V23.1804L34.6649 23.1241L34.6311 22.8427Z" fill="#0059A6"/>
<path d="M40.8317 22.8427C40.8126 22.6885 40.825 22.4972 40.8599 22.4184C40.9073 22.3081 41.3424 22.2822 44.4732 22.3362V23.1241H40.8655L40.8317 22.8427Z" fill="#0059A6"/>
<path d="M46.9196 22.8427C46.9005 22.6885 46.9129 22.4972 46.9478 22.4184C46.9952 22.3081 47.4416 22.2822 50.6739 22.3362V23.1241H46.9535L46.9196 22.8427Z" fill="#0059A6"/>
<path d="M21.9817 24.1933L22.1542 23.8557L22.3256 23.518H28.1294C31.321 23.518 33.9321 23.5563 33.931 23.6024C33.9298 23.6486 33.905 23.8005 33.8193 24.1933H21.9817Z" fill="#0059A6"/>
<path d="M34.6096 24.1933V23.8557V23.518H38.33V24.1933H34.6096Z" fill="#0059A6"/>
<path d="M40.8103 24.1933V23.8557V23.518H44.5307V24.1933H40.8103Z" fill="#0059A6"/>
<path d="M46.8982 24.1933V23.8557V23.518H50.7314V24.1933H46.8982Z" fill="#0059A6"/>
<path d="M21.5217 25.1433C21.5161 25.1073 21.568 24.9812 21.6367 24.8619C21.7596 24.6503 21.9479 24.6435 27.6221 24.6435C31.4529 24.6435 33.4823 24.6829 33.4823 24.7561C33.4823 24.818 33.4563 24.9452 33.4259 25.0375C33.3763 25.1849 32.6108 25.2063 27.4507 25.2063C24.1948 25.2063 21.5274 25.1782 21.5217 25.1433Z" fill="#0059A6"/>
<path d="M34.6096 25.2063V24.9249V24.6435H38.33V25.2063H34.6096Z" fill="#0059A6"/>
<path d="M40.8103 25.2063V24.9249V24.6435H44.5307V25.2063H40.8103Z" fill="#0059A6"/>
<path d="M46.9546 25.0982C46.8926 25.0386 46.8791 24.9103 46.9264 24.8135C46.9986 24.6638 47.2725 24.6424 48.843 24.6694C50.5893 24.6987 50.675 24.7111 50.675 24.9249C50.675 25.1399 50.5904 25.1511 48.8712 25.1782C47.8238 25.195 47.02 25.1613 46.9546 25.0982Z" fill="#0059A6"/>
<path d="M21.0618 26.0696C21.0516 25.9874 21.0854 25.8861 21.1373 25.8445C21.188 25.8028 23.772 25.7679 26.8769 25.7657C29.9828 25.7646 32.5522 25.7972 32.5871 25.84C32.6221 25.8827 32.5961 25.9874 32.5307 26.0729C32.4315 26.2024 31.4473 26.2283 26.7461 26.2249C22.1125 26.2204 21.0776 26.1923 21.0618 26.0696Z" fill="#0059A6"/>
<path d="M36.4698 26.2193C34.6841 26.2193 34.6096 26.2103 34.6096 25.9942C34.6096 25.7781 34.6841 25.7691 36.4698 25.7691C38.2545 25.7691 38.33 25.7781 38.33 25.9942C38.33 26.2103 38.2545 26.2193 36.4698 26.2193Z" fill="#0059A6"/>
<path d="M42.6705 26.2193C40.8847 26.2193 40.8103 26.2103 40.8103 25.9942C40.8103 25.7781 40.8847 25.7691 42.6705 25.7691C44.4552 25.7691 44.5307 25.7781 44.5307 25.9942C44.5307 26.2103 44.4552 26.2193 42.6705 26.2193Z" fill="#0059A6"/>
<path d="M46.9704 26.1349C46.9174 26.0887 46.9084 25.9863 46.9501 25.9075C47.0087 25.7983 47.463 25.7713 48.8509 25.7949C50.383 25.8208 50.675 25.8523 50.675 25.9942C50.675 26.136 50.3864 26.1675 48.8712 26.1911C47.8791 26.2069 47.0234 26.1821 46.9704 26.1349Z" fill="#0059A6"/>
<path d="M13.3301 27.2379C9.57364 27.2334 9.01784 27.2109 9.01784 27.0634C9.01784 26.916 9.59281 26.8946 13.4992 26.8901C17.5894 26.8856 17.9648 26.9002 17.8115 27.0634C17.6616 27.221 17.1283 27.2424 13.3301 27.2379Z" fill="#0059A6"/>
<path d="M25.3932 27.2379C21.2365 27.2334 20.63 27.2109 20.63 27.0634C20.63 26.916 21.2546 26.8946 25.5623 26.8901C30.0651 26.8856 30.4789 26.9002 30.3256 27.0634C30.1756 27.2221 29.6029 27.2424 25.3932 27.2379Z" fill="#0059A6"/>
<path d="M36.5262 27.2322C34.9975 27.2322 34.7224 27.2064 34.7224 27.0634C34.7224 26.9205 34.9975 26.8946 36.5262 26.8946C38.0538 26.8946 38.33 26.9205 38.33 27.0634C38.33 27.2064 38.0538 27.2322 36.5262 27.2322Z" fill="#0059A6"/>
<path d="M42.6705 27.2322C41.1914 27.2322 40.923 27.2064 40.923 27.0634C40.923 26.9205 41.1914 26.8946 42.6705 26.8946C44.1485 26.8946 44.418 26.9205 44.418 27.0634C44.418 27.2064 44.1485 27.2322 42.6705 27.2322Z" fill="#0059A6"/>
<path d="M48.8148 27.2322C47.286 27.2322 47.011 27.2064 47.011 27.0634C47.011 26.9205 47.286 26.8946 48.8148 26.8946C50.3424 26.8946 50.6186 26.9205 50.6186 27.0634C50.6186 27.2064 50.3424 27.2322 48.8148 27.2322Z" fill="#0059A6"/>
</svg>
