<svg width="130" height="30" viewBox="0 0 130 30" fill="none" xmlns="http://www.w3.org/2000/svg">
<g clip-path="url(#clip0_2216_5160)">
<path d="M20.237 10.9903C20.3674 10.7032 20.3305 10.3898 20.3608 10.0922C20.5544 8.13257 20.7361 6.17032 20.9034 4.20807C20.9257 3.94732 21.0034 3.88542 21.2537 3.88674C22.8761 3.89727 24.4999 3.89859 26.1224 3.88674C26.3766 3.88542 26.449 3.95785 26.4701 4.20807C26.6281 6.07287 26.8006 7.93634 26.9692 9.79982C27.0127 10.2845 27.0614 10.7678 27.1101 11.288C27.2879 11.1984 27.2708 11.068 27.2826 10.9614C27.5302 8.68832 27.7778 6.41527 28.0149 4.13959C28.0359 3.93547 28.1136 3.88937 28.3006 3.89069C29.7703 3.89596 31.24 3.89859 32.7084 3.88937C32.9508 3.88806 32.9758 3.96839 32.9336 4.17778C32.2106 7.71246 31.4916 11.2471 30.7752 14.7831C30.7383 14.9662 30.6751 15.0531 30.4578 15.0518C28.5825 15.0413 26.7071 15.0413 24.8331 15.0518C24.6079 15.0518 24.5579 14.9662 24.5381 14.7713C24.3406 12.8341 24.1351 10.8968 23.9323 8.95961C23.9205 8.84372 23.9165 8.72256 23.8533 8.62379C23.7111 8.62642 23.7453 8.72783 23.7387 8.79236C23.5412 10.6756 23.3423 12.5575 23.154 14.4407C23.0934 15.0439 23.1079 15.0452 22.5034 15.0452C20.7045 15.0452 18.9069 15.0413 17.1079 15.0505C16.8814 15.0505 16.7918 14.9991 16.7431 14.7608C16.0346 11.234 15.3156 7.70983 14.5873 4.18832C14.532 3.91835 14.607 3.88806 14.8467 3.88937C16.294 3.89859 17.7414 3.89991 19.1887 3.88937C19.4284 3.88806 19.5074 3.9539 19.5285 4.19359C19.7221 6.38498 19.9262 8.57506 20.1303 10.7651C20.1382 10.8455 20.1092 10.9469 20.2396 10.993L20.237 10.9903Z" fill="#EE4136"/>
<path d="M3.812 10.0591C4.70094 10.0591 5.58987 10.0749 6.47749 10.0499C6.78434 10.042 6.83965 10.1408 6.82912 10.4173C6.80805 10.9533 6.83043 11.4906 6.81858 12.0266C6.81463 12.2294 6.85546 12.3308 7.0846 12.3071C7.3875 12.2768 7.77863 12.4296 7.97486 12.2492C8.17503 12.0648 8.02622 11.6697 8.03807 11.3681C8.05124 11.0297 8.017 10.6873 8.04729 10.3501C8.07626 10.042 7.94852 9.94058 7.66669 9.87736C6.24308 9.55471 4.86029 9.10432 3.53807 8.48404C2.90067 8.18509 2.30673 7.81371 1.81024 7.30405C1.39409 6.87736 1.17942 6.36902 1.18864 5.76586C1.2005 5.01125 1.15309 4.25269 1.31507 3.5073C1.67591 1.84532 2.77293 0.8879 4.34009 0.408532C5.67811 0.000279231 7.05695 -0.0497647 8.44369 0.0358367C9.37477 0.0937823 10.2979 0.220209 11.179 0.545494C12.9964 1.2145 13.8919 2.47087 13.9406 4.39887C13.952 4.84927 13.7356 5.07447 13.2914 5.07447C11.6794 5.07447 10.0662 5.07578 8.45423 5.07447C7.99461 5.07447 8.04466 5.13768 8.04202 4.64778C8.03939 4.25401 8.03676 3.85893 8.04466 3.46516C8.04729 3.30054 7.99725 3.24128 7.82209 3.23206C6.82385 3.17938 6.81858 3.17412 6.8278 4.16182C6.83043 4.48711 6.69084 4.89536 6.88838 5.11266C7.0688 5.3102 7.47047 5.3102 7.776 5.39053C9.26283 5.78298 10.7181 6.25577 12.039 7.06305C12.7857 7.52003 13.4573 8.05998 13.8326 8.88439C13.9893 9.22679 14.0736 9.58632 14.0697 9.96428C14.0644 10.5991 14.1 11.2351 13.9722 11.8633C13.672 13.3449 12.7277 14.2523 11.3634 14.7856C10.4138 15.157 9.41691 15.3005 8.40813 15.3572C6.94764 15.4401 5.49242 15.3993 4.07407 14.9832C2.8954 14.6368 1.86819 14.0705 1.25712 12.9393C0.789609 12.074 0.752735 11.1364 0.773806 10.1895C0.777757 10.0038 0.919987 10.0631 1.01481 10.0617C1.9472 10.0578 2.8796 10.0591 3.812 10.0591Z" fill="#EE4136"/>
<path d="M66.5341 4.91627C67.1517 4.38949 67.772 4.03392 68.4621 3.79292C69.4327 3.45314 70.3993 3.43602 71.3475 3.83901C72.4761 4.31969 73.0135 5.2376 73.1623 6.41495C73.2215 6.88247 73.2413 7.35262 73.2413 7.82408C73.2413 10.1235 73.2373 12.4229 73.2466 14.7222C73.2466 14.9817 73.1767 15.0502 72.9186 15.0488C71.3067 15.037 69.6947 15.0357 68.0828 15.0488C67.7957 15.0515 67.7457 14.9567 67.747 14.6959C67.7562 12.3307 67.747 9.96543 67.7588 7.6002C67.7588 7.31574 67.7101 7.1722 67.3901 7.21697C67.1214 7.25385 66.7711 7.10767 66.5947 7.27228C66.4156 7.43954 66.538 7.79116 66.538 8.06113C66.5328 10.2736 66.5301 12.4848 66.5407 14.6972C66.5407 14.9593 66.4893 15.0528 66.2035 15.0502C64.5916 15.0357 62.9796 15.037 61.3677 15.0502C61.1109 15.0515 61.0385 14.9856 61.0385 14.7249C61.0464 10.1261 61.0464 5.52601 61.0385 0.927244C61.0385 0.667806 61.107 0.599324 61.3664 0.600641C62.9783 0.612494 64.5903 0.613811 66.2022 0.600641C66.4867 0.598007 66.5433 0.688877 66.5407 0.952266C66.5275 2.24287 66.5341 3.53216 66.5341 4.91759V4.91627Z" fill="#EE4136"/>
<path d="M75.2049 22.882V26.7169C75.2049 27.648 75.1957 28.5791 75.2102 29.5101C75.2141 29.7459 75.143 29.7959 74.9178 29.7933C73.7444 29.7814 72.571 29.7801 71.3976 29.7933C71.154 29.7959 71.1184 29.7143 71.1184 29.497C71.125 25.7845 71.1263 22.072 71.1171 18.3596C71.1171 18.0975 71.1908 18.0382 71.4424 18.0409C73.1965 18.0514 74.952 18.0554 76.7062 18.0382C77.0038 18.0356 77.1131 18.1212 77.1829 18.4083C77.7624 20.7748 78.3616 23.1361 78.9542 25.4987C78.97 25.5619 78.9753 25.6278 79.0635 25.6963C79.0635 25.5646 79.0635 25.4553 79.0635 25.346C79.0635 23.0242 79.0688 20.7024 79.0583 18.3806C79.0583 18.1067 79.1294 18.0343 79.402 18.0382C80.4766 18.054 81.5512 18.0501 82.6259 18.0409C82.8366 18.0396 82.9327 18.0698 82.9327 18.3187C82.9248 22.0536 82.9248 25.7885 82.9327 29.522C82.9327 29.7406 82.8669 29.792 82.6575 29.792C80.9244 29.7841 79.1926 29.7827 77.4595 29.792C77.2369 29.792 77.1685 29.7077 77.1145 29.5115C76.5284 27.3951 75.9332 25.2827 75.3392 23.1691C75.3116 23.069 75.2813 22.9702 75.2523 22.8714C75.2365 22.8754 75.2207 22.878 75.2062 22.882H75.2049Z" fill="#021689"/>
<path d="M108.034 11.0218C108.034 12.2597 108.027 13.4976 108.039 14.7356C108.042 14.9766 107.984 15.0529 107.731 15.0503C106.261 15.0385 104.791 15.0371 103.322 15.0503C103.048 15.0529 102.979 14.9594 103 14.7132C103.017 14.5169 102.999 14.3194 103.004 14.1219C103.011 13.9046 102.937 13.9059 102.783 14.0191C101.952 14.6315 101.021 14.9779 99.9938 15.078C99.3748 15.1385 98.7664 15.078 98.1711 14.9133C97.1768 14.6394 96.6382 13.9256 96.4236 12.9669C96.2431 12.1596 96.2458 11.3286 96.4196 10.5213C96.6843 9.28472 97.6035 8.5604 99.0337 8.34838C100.233 8.17059 101.438 8.17717 102.643 8.19034C102.917 8.19298 103.004 8.12318 102.989 7.84662C102.965 7.40939 102.965 6.96953 102.989 6.53231C103.003 6.26102 102.903 6.19254 102.654 6.21361C102.437 6.23205 102.215 6.22809 101.997 6.21361C101.801 6.20176 101.72 6.26497 101.731 6.47173C101.747 6.75619 101.728 7.04197 101.737 7.32643C101.743 7.48578 101.681 7.5345 101.527 7.53319C99.9912 7.52924 98.4556 7.52792 96.92 7.53319C96.7199 7.53319 96.7238 7.42783 96.7199 7.2856C96.6711 5.7935 97.4034 4.56216 98.8217 4.09596C101.158 3.32818 103.534 3.31501 105.84 4.22239C107.312 4.80184 108.022 5.98446 108.03 7.56874C108.035 8.71844 108.03 9.86945 108.03 11.0191L108.034 11.0218ZM102.985 10.8769C102.985 10.8005 102.99 10.7241 102.985 10.6478C102.96 10.3264 103.129 9.88525 102.912 9.71536C102.707 9.5547 102.284 9.67717 101.959 9.66269C101.787 9.65479 101.732 9.71141 101.735 9.88525C101.744 10.5398 101.744 11.1956 101.735 11.8501C101.732 12.0266 101.798 12.078 101.964 12.0727C102.237 12.0635 102.51 12.0635 102.783 12.0727C102.944 12.078 102.991 12.0134 102.987 11.8607C102.979 11.5327 102.985 11.2061 102.985 10.8782V10.8769Z" fill="#EE4136"/>
<path d="M89.707 26.5749C89.387 27.5771 89.0709 28.5529 88.7667 29.5327C88.7114 29.7105 88.6495 29.7948 88.4375 29.7935C86.9138 29.7816 85.3901 29.7829 83.8664 29.7935C83.6333 29.7948 83.5727 29.7263 83.5767 29.4998C83.5898 28.6899 83.5885 27.88 83.5767 27.0687C83.574 26.862 83.6372 26.808 83.8361 26.8145C84.2299 26.829 84.6263 26.808 85.02 26.8238C85.2281 26.8317 85.3532 26.7777 85.4612 26.5854C85.9314 25.7465 86.4173 24.9168 86.9072 24.0885C87.0007 23.9291 87.0126 23.8093 86.9112 23.6433C86.4213 22.8413 85.9432 22.0314 85.4704 21.2188C85.3809 21.0634 85.2755 21.0147 85.103 21.02C84.6763 21.0318 84.2483 21.016 83.8203 21.0279C83.6307 21.0332 83.5767 20.9699 83.5793 20.7843C83.5872 19.9519 83.5872 19.1196 83.5793 18.2873C83.578 18.1069 83.6241 18.0384 83.8163 18.0384C85.373 18.045 86.9296 18.0463 88.4862 18.0371C88.6772 18.0371 88.7193 18.1319 88.7694 18.2768C89.0775 19.1736 89.3936 20.0678 89.7149 20.9871C89.8875 20.7434 89.9586 20.4774 90.0639 20.2298C90.3392 19.5872 90.6052 18.9418 90.8633 18.2926C90.9318 18.1214 91.0069 18.0371 91.2136 18.0384C92.7479 18.049 94.2834 18.0476 95.8177 18.0397C96.0126 18.0397 96.0837 18.0806 96.0797 18.2913C96.0679 19.1236 96.0692 19.9559 96.0797 20.7882C96.081 20.9726 96.0297 21.0345 95.8414 21.0292C95.3817 21.0174 94.9208 21.0318 94.4599 21.0213C94.2795 21.0174 94.1675 21.0595 94.0714 21.232C93.6157 22.0538 93.1443 22.8677 92.6715 23.6789C92.5977 23.8066 92.5898 23.9028 92.6662 24.0358C93.1587 24.8997 93.6434 25.7676 94.1214 26.6394C94.2044 26.7895 94.3045 26.8238 94.4612 26.8211C94.9221 26.8119 95.3817 26.8264 95.8427 26.8145C96.027 26.8093 96.0824 26.862 96.081 27.0503C96.0718 27.8826 96.0679 28.7149 96.0824 29.5459C96.0863 29.7632 96.006 29.7922 95.8177 29.7908C94.2834 29.7843 92.7479 29.7829 91.2136 29.7908C91.0187 29.7908 90.9292 29.7342 90.8633 29.5485C90.5459 28.6649 90.2127 27.7878 89.8822 26.9094C89.8414 26.8001 89.8282 26.6736 89.7123 26.5735L89.707 26.5749Z" fill="#021689"/>
<path d="M79.7154 9.34407C79.7154 10.2962 79.722 11.2497 79.7101 12.2018C79.7075 12.427 79.7641 12.4995 79.9985 12.4982C80.7518 12.4929 80.7518 12.5034 80.7518 11.7528C80.7518 11.2049 80.7597 10.6571 80.7479 10.1105C80.7439 9.91168 80.8032 9.84846 81.0073 9.84846C82.5969 9.85637 84.1864 9.85242 85.776 9.85373C85.8774 9.85373 86.0038 9.81686 86.0091 9.99465C86.0433 11.0482 85.959 12.0754 85.3677 12.9933C84.7738 13.9152 83.9006 14.4472 82.8668 14.737C81.0099 15.2572 79.1412 15.2809 77.2883 14.7567C75.5512 14.2655 74.5411 13.0605 74.2145 11.3063C73.9182 9.71414 73.9709 8.12722 74.4555 6.56927C74.8243 5.38534 75.5657 4.54776 76.7602 4.15268C79.0595 3.3928 81.3537 3.38095 83.5925 4.34495C85.2163 5.04293 85.9946 6.34671 86.0064 8.10746C86.0104 8.78042 86.0064 8.78042 85.3466 8.78042C83.9217 8.78042 82.4955 8.77384 81.0705 8.78701C80.8045 8.78964 80.7373 8.70667 80.7439 8.4525C80.7597 7.76374 80.7439 7.07234 80.7531 6.38358C80.7558 6.18472 80.6965 6.12414 80.4937 6.12019C79.7127 6.10834 79.7127 6.10176 79.7127 6.87875C79.7127 7.70053 79.7127 8.52098 79.7127 9.34276L79.7154 9.34407Z" fill="#EE4136"/>
<path d="M53.9349 9.32981C53.9349 10.2938 53.9415 11.2578 53.9297 12.2205C53.927 12.4325 53.9837 12.4971 54.2023 12.4971C54.9819 12.4971 54.9819 12.5063 54.9819 11.7424C54.9819 11.2051 54.9898 10.6691 54.9779 10.1331C54.974 9.93165 55.0135 9.84605 55.244 9.84737C56.823 9.8579 58.402 9.85263 59.981 9.85395C60.093 9.85395 60.2339 9.81313 60.2378 10.0093C60.2589 11.0616 60.172 12.0901 59.5793 13.0054C58.9828 13.9273 58.1057 14.4527 57.0719 14.7411C55.2255 15.2561 53.3673 15.2758 51.5236 14.7635C49.8945 14.3118 48.866 13.2135 48.4933 11.5778C48.1127 9.90795 48.1693 8.23016 48.6724 6.58266C49.0346 5.39741 49.7747 4.55456 50.9692 4.15685C53.2685 3.39302 55.5653 3.37326 57.8041 4.34122C59.7953 5.2025 60.301 6.80917 60.2405 8.591C60.2326 8.82805 60.0772 8.77932 59.9441 8.77932C58.639 8.78064 57.334 8.77932 56.0289 8.77932C55.7655 8.77932 55.5021 8.76747 55.24 8.78327C55.0372 8.79513 54.9753 8.72401 54.9793 8.5212C54.9898 7.82059 54.9753 7.11866 54.9885 6.41804C54.9924 6.19284 54.9305 6.11778 54.6961 6.11778C53.9376 6.12041 53.9376 6.10988 53.9376 6.86317C53.9376 7.68494 53.9376 8.5054 53.9376 9.32717L53.9349 9.32981Z" fill="#EE4136"/>
<path d="M60.0667 24.0004C60.0601 23.0812 60.039 22.1619 60.2629 21.2585C60.7172 19.424 61.8722 18.3336 63.7265 17.9754C64.8617 17.7554 65.9995 17.7646 67.1163 18.0438C68.856 18.4797 69.9227 19.6136 70.2664 21.3625C70.5904 23.0061 70.5772 24.676 70.3349 26.3274C70.0531 28.2567 68.8783 29.4143 66.9872 29.8094C65.6979 30.0781 64.3955 30.0702 63.1167 29.7041C61.4666 29.2313 60.5342 28.1119 60.1984 26.4538C60.0337 25.6413 60.0693 24.8208 60.0653 24.0004H60.0667ZM64.7379 23.9938C64.7379 24.8801 64.7379 25.7664 64.7379 26.6514C64.7379 27.4284 64.7379 27.4178 65.5175 27.4271C65.7559 27.4297 65.8006 27.3573 65.7993 27.1334C65.7901 25.1869 65.7941 23.2392 65.7941 21.2927C65.7941 20.4973 65.7941 20.5065 64.9986 20.5026C64.7774 20.5026 64.7313 20.5697 64.7326 20.7765C64.7431 21.8485 64.7379 22.9205 64.7379 23.9925V23.9938Z" fill="#021689"/>
<path d="M53.8348 23.863C53.8348 24.9034 53.8427 25.9438 53.8296 26.9842C53.8269 27.2252 53.8822 27.3042 54.1351 27.2976C54.7067 27.2818 54.7067 27.2963 54.7067 26.734C54.7067 25.9675 54.7132 25.2011 54.7014 24.4346C54.6988 24.2344 54.7528 24.1752 54.9582 24.1765C56.3621 24.1857 57.7659 24.1804 59.1685 24.1844C59.2593 24.1844 59.4121 24.1172 59.4082 24.3082C59.3844 25.2142 59.4898 26.1269 59.3067 27.0263C59.0513 28.2827 58.2927 29.14 57.0969 29.5378C55.057 30.216 53.0368 30.191 51.0693 29.2046C50.0552 28.6962 49.5508 27.8376 49.3296 26.7946C48.8621 24.5887 48.8436 22.3867 49.5245 20.2125C49.8116 19.2946 50.4305 18.694 51.3247 18.3464C52.4929 17.8933 53.7031 17.784 54.9398 17.8565C55.8182 17.9078 56.6834 18.0303 57.4946 18.3977C58.6996 18.9442 59.3173 19.8964 59.3897 21.1989C59.4253 21.8428 59.4002 22.4908 59.4121 23.1361C59.4161 23.3073 59.3397 23.3297 59.1961 23.3297C57.7712 23.3257 56.3449 23.3231 54.92 23.3323C54.6988 23.3336 54.704 23.2191 54.7053 23.0663C54.708 22.2774 54.6974 21.4886 54.7119 20.7011C54.7159 20.4653 54.6395 20.4074 54.413 20.41C53.8348 20.4179 53.8335 20.4074 53.8335 20.975C53.8335 21.939 53.8335 22.903 53.8335 23.8657L53.8348 23.863Z" fill="#021689"/>
<path d="M108.119 29.7882H105.425C104.833 29.7882 104.241 29.7829 103.65 29.7921C103.469 29.7947 103.38 29.7618 103.349 29.5564C103.285 29.1244 103.174 28.7004 103.102 28.2697C103.061 28.0221 102.988 27.8786 102.692 27.9194C102.445 27.9537 102.188 27.9392 101.938 27.9221C101.716 27.9076 101.607 27.9537 101.574 28.2065C101.516 28.6503 101.403 29.0849 101.321 29.5261C101.287 29.7078 101.229 29.7974 101.009 29.7947C99.6171 29.7816 98.225 29.7816 96.833 29.7947C96.5749 29.7974 96.5525 29.7144 96.6078 29.4971C97.4744 26.0783 98.3357 22.6569 99.1983 19.2368C99.2812 18.9089 99.3642 18.5796 99.4406 18.2504C99.4748 18.1029 99.5394 18.041 99.7066 18.041C101.449 18.0476 103.193 18.0476 104.936 18.041C105.106 18.041 105.181 18.0871 105.226 18.2636C106.182 22.088 107.146 25.9098 108.122 29.7868L108.119 29.7882ZM102.354 22.5147C102.334 22.5173 102.313 22.5213 102.293 22.5239C102.19 23.2785 102.084 24.0331 101.985 24.789C101.905 25.408 101.909 25.3975 102.533 25.3896C102.741 25.3869 102.753 25.3185 102.726 25.142C102.595 24.2675 102.477 23.3904 102.354 22.5147Z" fill="#021689"/>
<path d="M108.833 8.65098C108.833 6.77828 108.866 4.90559 108.823 3.03421C108.788 1.52894 109.546 0.912611 110.76 0.667659C110.952 0.629468 111.151 0.609714 111.347 0.608397C113.079 0.604446 114.811 0.612348 116.544 0.599178C116.826 0.596544 116.891 0.684779 116.882 0.949485C116.864 1.55133 116.865 2.15449 116.882 2.75502C116.889 2.9947 116.807 3.04606 116.583 3.04079C115.97 3.02631 115.356 3.04211 114.742 3.03158C114.549 3.02762 114.462 3.07372 114.476 3.28443C114.492 3.52411 114.491 3.76643 114.476 4.00611C114.464 4.20497 114.529 4.27214 114.733 4.26819C115.357 4.25633 115.983 4.27345 116.607 4.25897C116.826 4.2537 116.885 4.32481 116.88 4.53684C116.866 5.12815 116.868 5.71946 116.88 6.31077C116.884 6.51489 116.815 6.57152 116.616 6.56757C116.025 6.55572 115.431 6.58469 114.841 6.55572C114.522 6.53992 114.472 6.65581 114.472 6.94027C114.483 9.52411 114.472 12.108 114.485 14.6918C114.487 14.9894 114.404 15.0526 114.119 15.05C112.464 15.0355 110.809 15.0382 109.153 15.05C108.899 15.0513 108.823 14.9921 108.824 14.7287C108.836 12.7032 108.83 10.6778 108.83 8.6523L108.833 8.65098Z" fill="#EE4136"/>
<path d="M40.2071 7.82557C40.2071 5.52487 40.2124 3.22549 40.2005 0.9261C40.2005 0.660077 40.2782 0.599498 40.5324 0.602132C42.1549 0.612667 43.7787 0.613984 45.4011 0.602132C45.6672 0.599498 45.7277 0.679832 45.7238 0.932685C45.7093 1.83084 45.7238 2.729 45.7133 3.62715C45.7106 3.84313 45.7738 3.90898 45.9885 3.89976C46.3941 3.88396 46.7997 3.90239 47.2054 3.89186C47.3831 3.88791 47.4595 3.934 47.4569 4.12759C47.449 5.10213 47.4503 6.07667 47.4569 7.05253C47.4569 7.23163 47.3871 7.27772 47.2238 7.27377C46.8287 7.26587 46.4336 7.28694 46.0399 7.26587C45.7817 7.25139 45.7119 7.33172 45.7133 7.59116C45.7238 9.93532 45.7198 12.2795 45.7185 14.6223C45.7185 15.103 45.7817 15.0437 45.305 15.0437C43.726 15.0464 42.147 15.0372 40.568 15.0516C40.2835 15.0543 40.1992 14.9911 40.2018 14.6934C40.215 12.4046 40.2097 10.1157 40.2097 7.82557H40.2071Z" fill="#EE4136"/>
<path d="M117.782 15.0346C117.666 14.845 117.697 14.7343 117.697 14.6303C117.696 10.0868 117.699 5.54339 117.688 0.998615C117.688 0.687816 117.755 0.594313 118.081 0.598264C119.681 0.616701 121.282 0.61275 122.882 0.600898C123.13 0.599581 123.197 0.664111 123.192 0.91038C123.176 1.80854 123.193 2.70538 123.18 3.60353C123.177 3.83136 123.236 3.90906 123.471 3.89721C123.865 3.87877 124.261 3.90511 124.655 3.88667C124.893 3.87482 124.949 3.96437 124.946 4.18694C124.935 5.10617 124.934 6.02671 124.946 6.94594C124.95 7.1843 124.895 7.27912 124.638 7.26464C124.256 7.24357 123.87 7.27386 123.487 7.2541C123.235 7.24093 123.179 7.32785 123.179 7.57017C123.188 9.91301 123.184 12.2559 123.184 14.5987V15.0214C122.798 14.6514 122.462 14.3314 122.129 14.0087C121.618 13.5135 121.1 13.0236 120.601 12.5153C120.443 12.3546 120.359 12.3783 120.217 12.5258C119.42 13.3555 118.614 14.176 117.78 15.0333L117.782 15.0346Z" fill="#EE4136"/>
<path d="M118.04 23.8631C118.04 22.0128 118.042 20.1611 118.036 18.3108C118.036 18.1238 118.083 17.9816 118.208 17.842C118.888 17.0834 119.564 16.3196 120.229 15.5492C120.368 15.3872 120.443 15.3688 120.597 15.54C121.298 16.3236 122.01 17.0979 122.729 17.867C122.864 18.0106 122.891 18.1594 122.891 18.3411C122.889 21.0356 122.895 23.7301 122.881 26.4232C122.88 26.7419 122.961 26.8236 123.277 26.8157C124.297 26.7933 125.317 26.8157 126.337 26.8025C126.572 26.7999 126.659 26.8446 126.654 27.1041C126.636 27.914 126.641 28.7252 126.651 29.5352C126.654 29.7406 126.591 29.792 126.391 29.792C123.693 29.7854 120.995 29.7854 118.298 29.7933C118.071 29.7933 118.033 29.7182 118.033 29.5154C118.04 27.6322 118.037 25.7476 118.037 23.8644L118.04 23.8631Z" fill="#021689"/>
<path d="M92.4477 5.24041C93.1957 4.71626 93.899 4.27904 94.7141 4.05121C95.5254 3.82469 95.5228 3.81943 95.5228 4.65832C95.5228 5.73163 95.5162 6.80362 95.528 7.87693C95.5307 8.11793 95.4714 8.19958 95.2185 8.19432C94.3968 8.17851 93.5737 8.19827 92.7519 8.18246C92.507 8.17851 92.4398 8.24041 92.4411 8.48931C92.4516 10.5477 92.4385 12.6061 92.4556 14.6631C92.4582 14.9937 92.3595 15.0516 92.0539 15.049C90.4209 15.0332 88.7879 15.0358 87.1536 15.0477C86.9007 15.049 86.8191 14.9871 86.8204 14.7224C86.8296 11.2193 86.8296 7.71626 86.8204 4.21319C86.8204 3.95244 86.8941 3.88396 87.1509 3.88527C88.8169 3.89581 90.4828 3.89712 92.1501 3.88527C92.4082 3.88396 92.4661 3.96561 92.4516 4.20266C92.4319 4.52531 92.4464 4.85059 92.4464 5.24041H92.4477Z" fill="#EE4136"/>
<path d="M108.771 23.9267C108.771 22.0764 108.778 20.2261 108.765 18.3771C108.763 18.0993 108.841 18.0374 109.11 18.04C110.502 18.0545 111.894 18.0571 113.286 18.0387C113.591 18.0347 113.637 18.1348 113.636 18.4087C113.625 21.0914 113.635 23.7727 113.623 26.4553C113.623 26.7358 113.678 26.824 113.977 26.8188C115.017 26.7977 116.059 26.8188 117.101 26.8056C117.331 26.803 117.395 26.8649 117.391 27.0953C117.376 27.9052 117.377 28.7152 117.391 29.5251C117.395 29.7437 117.329 29.7964 117.117 29.7951C114.431 29.7885 111.746 29.7858 109.061 29.7977C108.795 29.7977 108.766 29.7055 108.767 29.4803C108.775 27.63 108.773 25.7797 108.773 23.9307L108.771 23.9267Z" fill="#021689"/>
<path d="M33.7949 9.46795C33.7949 7.71641 33.8002 5.96356 33.7883 4.21202C33.787 3.94864 33.8647 3.88542 34.1189 3.88674C35.7861 3.89727 37.4521 3.89727 39.1193 3.88674C39.3485 3.88674 39.413 3.94732 39.413 4.17778C39.4064 7.70456 39.4064 11.23 39.413 14.7568C39.413 14.9873 39.3498 15.0492 39.1193 15.0478C37.4521 15.0386 35.7861 15.0373 34.1189 15.0478C33.8634 15.0492 33.7857 14.9873 33.7883 14.7226C33.8002 12.971 33.7949 11.2182 33.7949 9.46663V9.46795Z" fill="#EE4136"/>
<path d="M36.5933 2.82927C35.7505 2.82927 34.9077 2.82269 34.0648 2.83454C33.8515 2.83717 33.7843 2.77923 33.7896 2.56193C33.8041 2.02725 33.8027 1.48994 33.7896 0.95526C33.7856 0.753768 33.8488 0.694505 34.0503 0.695822C35.7466 0.702407 37.4441 0.702407 39.1403 0.695822C39.3431 0.695822 39.4037 0.759035 39.3998 0.957894C39.3879 1.50443 39.3879 2.05096 39.3998 2.59749C39.4037 2.79108 39.3352 2.83454 39.1548 2.83322C38.3014 2.82532 37.4467 2.82927 36.5933 2.82927Z" fill="#EE4136"/>
<path d="M127.681 22.2936C126.539 22.2884 125.624 21.3573 125.636 20.2142C125.648 19.0961 126.579 18.1795 127.702 18.1821C128.838 18.1848 129.766 19.1172 129.761 20.2524C129.755 21.4021 128.843 22.3002 127.681 22.295V22.2936ZM127.655 21.9815C128.637 22.0052 129.429 21.2598 129.451 20.2866C129.475 19.3266 128.697 18.489 127.76 18.4653C126.802 18.4416 125.971 19.2173 125.943 20.1602C125.914 21.1505 126.671 21.9565 127.654 21.9802L127.655 21.9815Z" fill="#021689"/>
<path d="M127.683 4.67793C126.55 4.67266 125.633 3.75343 125.636 2.62613C125.639 1.48697 126.575 0.561161 127.717 0.566429C128.848 0.571696 129.771 1.51858 129.761 2.66169C129.75 3.79558 128.835 4.6832 127.683 4.67793ZM127.69 4.36845C128.683 4.36845 129.458 3.60594 129.453 2.63403C129.447 1.65554 128.653 0.846938 127.712 0.864058C126.719 0.882495 125.948 1.64237 125.944 2.61033C125.94 3.58355 126.72 4.36845 127.69 4.36845Z" fill="#EE4136"/>
<path d="M126.622 21.386C126.92 21.3083 126.875 21.0739 126.875 20.8632C126.875 20.4247 126.871 19.9874 126.878 19.5489C126.88 19.3632 126.895 19.1801 126.683 19.0669C127.082 19.0669 127.482 19.0485 127.881 19.0722C128.221 19.0919 128.434 19.3026 128.465 19.5924C128.499 19.915 128.334 20.1073 128.045 20.2126C128.004 20.2271 127.967 20.2508 127.901 20.2824C128.204 20.6393 128.351 21.1016 128.816 21.3768C128.481 21.4624 128.257 21.4321 128.088 21.145C127.939 20.8922 127.74 20.667 127.569 20.4273C127.514 20.3496 127.455 20.2982 127.353 20.314C127.21 20.3377 127.279 20.4497 127.273 20.5221C127.261 20.6525 127.278 20.7855 127.268 20.9159C127.249 21.149 127.29 21.332 127.572 21.386H126.622ZM127.27 19.6674C127.27 20.2008 127.39 20.3114 127.759 20.1165C127.825 20.0809 127.894 20.0375 127.939 19.9795C128.084 19.7965 128.084 19.5963 127.962 19.4014C127.827 19.1894 127.617 19.1314 127.39 19.188C127.146 19.2486 127.322 19.4646 127.269 19.6003C127.261 19.6187 127.269 19.6437 127.269 19.6648L127.27 19.6674Z" fill="#021689"/>
<path d="M127.557 3.78767H126.632C126.936 3.66124 126.874 3.39917 126.875 3.16476C126.877 2.74992 126.873 2.33376 126.878 1.91893C126.879 1.74246 126.899 1.5673 126.692 1.45141C127.078 1.45141 127.465 1.43692 127.851 1.45668C128.159 1.47248 128.402 1.61471 128.457 1.95053C128.511 2.28504 128.346 2.49048 128.039 2.6011C128 2.61559 127.964 2.63929 127.904 2.6709C128.197 3.03043 128.357 3.47819 128.787 3.7587C128.513 3.83903 128.301 3.85352 128.133 3.59276C127.974 3.34518 127.787 3.11471 127.613 2.87634C127.542 2.77889 127.478 2.64983 127.334 2.71173C127.202 2.76704 127.285 2.904 127.272 3.00277C127.258 3.09891 127.276 3.20031 127.268 3.29777C127.249 3.52692 127.276 3.72051 127.557 3.78899V3.78767ZM127.269 2.07301C127.269 2.15993 127.281 2.24816 127.266 2.33376C127.229 2.56028 127.355 2.58267 127.532 2.5695C127.671 2.55896 127.787 2.5076 127.885 2.41937C128.075 2.2508 128.095 2.04535 127.984 1.82937C127.863 1.59101 127.647 1.51989 127.405 1.5752C127.144 1.63447 127.318 1.86493 127.269 2.0098C127.262 2.02955 127.269 2.05325 127.269 2.07433V2.07301Z" fill="#EE4136"/>
</g>
<defs>
<clipPath id="clip0_2216_5160">
<rect width="128.991" height="30" fill="white" transform="translate(0.769627)"/>
</clipPath>
</defs>
</svg>
