<svg width="140" height="36" viewBox="0 0 140 36" fill="none" xmlns="http://www.w3.org/2000/svg">
<path d="M1.43701 19.3139L6.22001 18.8639C6.51501 20.4719 7.10101 21.6539 7.98001 22.4109C8.86501 23.1629 10.06 23.5359 11.562 23.5359C13.147 23.5359 14.346 23.1959 15.159 22.5319C15.965 21.8479 16.362 21.0689 16.362 20.1799C16.362 19.6019 16.192 19.0979 15.858 18.6919C15.518 18.2959 14.928 17.9349 14.087 17.6499C13.507 17.4299 12.193 17.0749 10.145 16.5539C7.50401 15.9049 5.65001 15.0909 4.59501 14.1349C3.09701 12.7779 2.34601 11.1229 2.34601 9.18389C2.34601 7.93589 2.69001 6.75589 3.40701 5.68089C4.10601 4.58989 5.12901 3.75889 6.46101 3.18389C7.78801 2.62789 9.37901 2.33789 11.274 2.33789C14.336 2.33789 16.642 3.01689 18.197 4.36289C19.747 5.73489 20.556 7.53589 20.632 9.79689L15.68 9.96389C15.461 8.72989 15.023 7.82089 14.322 7.26289C13.634 6.70889 12.593 6.43289 11.215 6.43289C9.78501 6.43289 8.66301 6.72689 7.85901 7.32589C7.33101 7.71189 7.07201 8.20589 7.07201 8.83789C7.07201 9.42789 7.31301 9.91389 7.80401 10.3279C8.42101 10.8639 9.93601 11.4079 12.331 11.9669C14.732 12.5379 16.502 13.1289 17.646 13.7409C18.794 14.3529 19.697 15.1849 20.346 16.2489C20.99 17.2859 21.325 18.6109 21.325 20.1669C21.325 21.5689 20.931 22.8969 20.154 24.1199C19.376 25.3409 18.273 26.2649 16.851 26.8639C15.425 27.4479 13.651 27.7599 11.528 27.7599C8.43501 27.7599 6.05301 27.0369 4.39901 25.5919C2.74701 24.1519 1.75901 22.0589 1.43701 19.3139Z" fill="white"/>
<path d="M20.7 9.51367H25.666L29.908 22.1437L34.041 9.51367H38.882L32.661 26.6147L31.522 29.7357C31.11 30.7787 30.722 31.5657 30.351 32.1127C29.98 32.6697 29.551 33.1187 29.068 33.4527C28.576 33.7847 27.982 34.0527 27.288 34.2417C26.578 34.4327 25.783 34.5407 24.893 34.5407C23.996 34.5407 23.11 34.4337 22.238 34.2417L21.85 30.5487C22.578 30.7027 23.239 30.7787 23.825 30.7787C24.907 30.7787 25.712 30.4587 26.229 29.8217C26.752 29.1677 27.15 28.3427 27.427 27.3507L20.7 9.51367Z" fill="white"/>
<path d="M55.165 27.3048H50.489V18.2488C50.489 16.3418 50.391 15.1108 50.186 14.5428C49.98 13.9808 49.664 13.5428 49.203 13.2308C48.752 12.9218 48.197 12.7638 47.562 12.7638C46.74 12.7638 46.011 12.9918 45.355 13.4388C44.697 13.8828 44.255 14.4668 44.014 15.1918C43.778 15.9348 43.652 17.2838 43.652 19.2748V27.3038H38.986V9.51376H43.308V12.1198C44.863 10.1498 46.816 9.17676 49.171 9.17676C50.217 9.17676 51.165 9.36676 52.027 9.72576C52.89 10.1098 53.547 10.5738 53.98 11.1608C54.418 11.7418 54.726 12.3978 54.901 13.1268C55.074 13.8508 55.164 14.9158 55.164 16.2808L55.165 27.3048Z" fill="white"/>
<path d="M55.192 18.2217C55.192 16.6447 55.581 15.1467 56.351 13.6757C57.118 12.2197 58.209 11.1017 59.622 10.3267C61.034 9.55273 62.611 9.17773 64.35 9.17773C67.046 9.17773 69.246 10.0477 70.96 11.7957C72.682 13.5437 73.545 15.7527 73.545 18.4167C73.545 21.1077 72.674 23.3267 70.939 25.1007C69.205 26.8647 67.015 27.7607 64.382 27.7607C62.756 27.7607 61.204 27.3837 59.721 26.6497C58.242 25.9117 57.119 24.8337 56.352 23.4037C55.581 21.9877 55.192 20.2597 55.192 18.2217ZM59.978 18.4587C59.978 20.2337 60.394 21.5917 61.239 22.5137C62.079 23.4627 63.112 23.9357 64.346 23.9357C65.579 23.9357 66.611 23.4627 67.451 22.5137C68.279 21.5917 68.695 20.2187 68.695 18.4367C68.695 16.6797 68.279 15.3347 67.451 14.4047C66.611 13.4747 65.579 12.9917 64.346 12.9917C63.112 12.9917 62.079 13.4747 61.239 14.4047C60.394 15.3347 59.978 16.6937 59.978 18.4587Z" fill="white"/>
<path d="M79.282 0.394531V23.3615C79.282 24.4575 79.362 25.1795 79.515 25.5295C79.674 25.8925 79.916 26.1585 80.242 26.3385C80.572 26.5225 81.186 26.6155 82.071 26.6155V27.3045H73.584V26.6155C74.38 26.6155 74.921 26.5355 75.225 26.3615C75.506 26.1915 75.733 25.9335 75.899 25.5475C76.064 25.1725 76.14 24.4435 76.14 23.3615V7.68753C76.14 5.71553 76.1 4.50853 76.015 4.05253C75.934 3.60153 75.791 3.29953 75.603 3.13753C75.412 2.96853 75.171 2.87353 74.88 2.87353C74.562 2.87353 74.156 2.99153 73.668 3.18353L73.346 2.51053L78.444 0.394531H79.282Z" fill="white"/>
<path d="M90.495 9.45801C93.128 9.45801 95.234 10.455 96.829 12.449C98.179 14.146 98.853 16.098 98.853 18.302C98.853 19.859 98.487 21.427 97.74 23.007C96.994 24.593 95.97 25.792 94.656 26.597C93.347 27.406 91.899 27.81 90.295 27.81C87.671 27.81 85.593 26.769 84.055 24.695C82.754 22.947 82.102 20.98 82.102 18.794C82.102 17.202 82.497 15.635 83.284 14.073C84.08 12.491 85.117 11.344 86.408 10.574C87.693 9.83601 89.057 9.45801 90.495 9.45801ZM89.915 10.732C89.244 10.732 88.574 10.906 87.898 11.312C87.223 11.714 86.674 12.398 86.258 13.383C85.842 14.387 85.632 15.656 85.632 17.216C85.632 19.733 86.143 21.881 87.138 23.721C88.144 25.53 89.463 26.45 91.1 26.45C92.332 26.45 93.338 25.936 94.124 24.94C94.924 23.936 95.323 22.21 95.323 19.752C95.323 16.68 94.66 14.28 93.338 12.515C92.44 11.316 91.3 10.732 89.915 10.732Z" fill="white"/>
<path d="M102.652 20.955C101.598 20.418 100.797 19.711 100.227 18.787C99.667 17.851 99.385 16.838 99.385 15.724C99.385 14.007 100.021 12.527 101.308 11.313C102.598 10.08 104.253 9.45898 106.264 9.45898C107.908 9.45898 109.334 9.84598 110.539 10.656H114.202C114.747 10.656 115.059 10.673 115.155 10.705C115.235 10.746 115.291 10.803 115.337 10.865C115.407 10.983 115.451 11.183 115.451 11.469C115.451 11.799 115.417 12.042 115.353 12.156C115.315 12.22 115.251 12.278 115.155 12.303C115.059 12.341 114.747 12.357 114.197 12.357H111.939C112.654 13.269 113.008 14.434 113.008 15.849C113.008 17.458 112.382 18.847 111.156 19.99C109.923 21.138 108.27 21.717 106.205 21.717C105.347 21.717 104.474 21.592 103.576 21.311C103.05 21.807 102.69 22.219 102.512 22.579C102.323 22.948 102.226 23.249 102.226 23.491C102.226 23.721 102.33 23.921 102.543 24.134C102.745 24.327 103.157 24.476 103.759 24.558C104.104 24.624 104.993 24.671 106.397 24.712C108.985 24.794 110.666 24.894 111.423 25.023C112.596 25.181 113.535 25.625 114.233 26.318C114.93 27.019 115.278 27.875 115.278 28.896C115.278 30.3 114.607 31.638 113.278 32.875C111.328 34.695 108.77 35.607 105.62 35.607C103.197 35.607 101.149 35.074 99.478 33.98C98.536 33.347 98.071 32.701 98.071 32.015C98.071 31.726 98.138 31.417 98.267 31.115C98.477 30.64 98.912 30.019 99.562 29.187C99.647 29.066 100.284 28.392 101.449 27.154C100.801 26.748 100.338 26.404 100.074 26.086C99.804 25.777 99.667 25.42 99.667 25.033C99.667 24.584 99.84 24.07 100.193 23.478C100.553 22.875 101.375 22.027 102.652 20.955ZM102.497 27.305C101.921 27.93 101.49 28.53 101.191 29.094C100.892 29.621 100.753 30.137 100.753 30.588C100.753 31.207 101.112 31.725 101.84 32.176C103.101 32.946 104.92 33.346 107.293 33.346C109.553 33.346 111.217 32.946 112.298 32.151C113.379 31.362 113.911 30.52 113.911 29.622C113.911 28.981 113.59 28.518 112.946 28.239C112.29 27.962 110.994 27.801 109.044 27.76C106.207 27.674 104.021 27.51 102.497 27.305ZM105.948 10.415C105.016 10.415 104.25 10.802 103.617 11.54C102.994 12.278 102.684 13.386 102.684 14.919C102.684 16.894 103.108 18.424 103.958 19.517C104.613 20.341 105.432 20.753 106.429 20.753C107.381 20.753 108.168 20.39 108.774 19.677C109.387 18.963 109.692 17.85 109.692 16.332C109.692 14.332 109.268 12.783 108.404 11.659C107.757 10.843 106.943 10.415 105.948 10.415Z" fill="white"/>
<path d="M115.989 9.96289H124.093V10.6549H123.699C123.127 10.6549 122.702 10.7889 122.417 11.0229C122.135 11.2759 121.997 11.5799 121.997 11.9369C121.997 12.4389 122.197 13.1139 122.622 13.9809L126.847 22.7459L130.712 13.1709C130.928 12.6449 131.034 12.1389 131.034 11.6159C131.034 11.3929 130.98 11.2269 130.9 11.1159C130.796 10.9819 130.639 10.8619 130.425 10.7899C130.216 10.7049 129.832 10.6559 129.295 10.6559V9.96289H134.9V10.6549C134.433 10.7039 134.073 10.8109 133.822 10.9589C133.566 11.1149 133.291 11.3919 132.991 11.7979C132.874 11.9809 132.649 12.4559 132.342 13.2529L125.321 30.5239C124.636 32.2099 123.742 33.4669 122.631 34.3249C121.522 35.1899 120.453 35.6039 119.426 35.6039C118.679 35.6039 118.068 35.4049 117.579 34.9629C117.101 34.5389 116.86 34.0509 116.86 33.4879C116.86 32.9649 117.033 32.5539 117.381 32.2259C117.731 31.8919 118.218 31.7439 118.821 31.7439C119.241 31.7439 119.819 31.8809 120.538 32.1479C121.043 32.3219 121.365 32.4329 121.494 32.4329C121.874 32.4329 122.281 32.2259 122.737 31.8389C123.184 31.4519 123.633 30.6999 124.088 29.5889L125.311 26.5709L119.077 13.5399C118.887 13.1449 118.581 12.6639 118.171 12.0779C117.853 11.6409 117.594 11.3419 117.392 11.1799C117.102 10.9919 116.631 10.8079 115.989 10.6529V9.96289Z" fill="white"/>
<path d="M134.869 8.8137V5.3457H136.392C136.702 5.3457 136.933 5.3857 137.099 5.4587C137.265 5.5147 137.379 5.6217 137.479 5.7707C137.577 5.9407 137.621 6.1127 137.621 6.2937C137.621 6.5477 137.546 6.7537 137.38 6.9157C137.23 7.0877 136.984 7.2007 136.652 7.2457C136.777 7.3037 136.867 7.3667 136.923 7.4157C137.057 7.5357 137.185 7.6877 137.299 7.8657L137.903 8.8137H137.334L136.875 8.0977C136.74 7.9017 136.628 7.7317 136.543 7.6247C136.449 7.5077 136.383 7.4377 136.311 7.3787C136.249 7.3377 136.178 7.3217 136.108 7.2987C136.054 7.2827 135.963 7.2757 135.846 7.2757H135.324V8.8137H134.869ZM135.324 6.8837H136.302C136.509 6.8837 136.675 6.8707 136.79 6.8117C136.912 6.7867 136.997 6.7007 137.058 6.6107C137.127 6.5107 137.154 6.4047 137.154 6.2937C137.154 6.1357 137.096 6.0037 136.974 5.8957C136.859 5.7917 136.67 5.7387 136.42 5.7387H135.324V6.8837Z" fill="black"/>
<path d="M138.73 6.95048C138.73 8.33648 137.603 9.47548 136.223 9.47548C134.831 9.47548 133.704 8.33548 133.704 6.95048C133.704 5.55548 134.831 4.43848 136.223 4.43848C137.604 4.43848 138.73 5.55648 138.73 6.95048Z" stroke="white" stroke-width="0.25"/>
</svg>
