<svg width="72" height="17" viewBox="0 0 72 17" fill="none" xmlns="http://www.w3.org/2000/svg">
<path d="M5.0133 2.43024C5.0133 1.95074 4.7736 1.58854 3.7105 1.58854C2.6473 1.58854 2.4076 1.95074 2.4076 2.43024V3.73304C2.4049 3.94614 2.4503 4.15714 2.5405 4.35034C2.6308 4.54344 2.7635 4.71364 2.9288 4.84824L6.5142 7.94904C6.7568 8.12424 6.9576 8.35114 7.1018 8.61344C7.246 8.87574 7.3301 9.16674 7.348 9.46554V11.425C7.348 12.5923 5.9748 13.2489 3.7 13.2489C1.2012 13.2359 0 12.6705 0 11.4171V9.72614H2.2669V11.3572C2.2669 11.9435 2.7125 12.2848 3.7078 12.2848C4.6355 12.2848 5.081 11.9435 5.081 11.3572V9.61404C5.081 9.18414 4.9091 8.85844 4.427 8.42844L1.0996 5.52574C0.482 5.00464 0.1381 4.58254 0.1381 3.94674V2.45364C0.1381 1.23424 1.4096 0.629639 3.7078 0.629639C6.2536 0.632239 7.2802 1.23424 7.2802 2.36764V3.94674H5.0133V2.43024Z" fill="white"/>
<path d="M26.8722 2.6907C26.8722 1.4713 27.7972 0.606201 30.8563 0.606201C33.9154 0.606201 34.8378 1.4817 34.8378 2.6907V11.1149C34.8378 12.3343 33.9101 13.1994 30.8537 13.1994C27.7972 13.1994 26.8696 12.3239 26.8696 11.1149L26.8722 2.6907ZM29.1365 11.068C29.1365 11.7559 29.4127 12.2379 30.8537 12.2379C32.2946 12.2379 32.5708 11.7663 32.5708 11.0784V2.7402C32.5708 2.0523 32.3103 1.5729 30.8563 1.5729C29.4023 1.5729 29.1365 2.0523 29.1365 2.7402V11.068Z" fill="white"/>
<path d="M36.0913 0.708008H39.6976C42.6185 0.708008 43.4758 1.19011 43.4758 2.59711V5.63791C43.4758 7.04501 42.6159 7.52711 39.6976 7.52711H38.3582V13.1136H36.0913V0.708008ZM39.4578 6.56301C40.4871 6.56301 41.2089 6.42751 41.2089 5.78131V2.44341C41.2089 1.80761 40.4871 1.66171 39.4578 1.66171H38.3582V6.56301H39.4578Z" fill="white"/>
<path d="M49.1352 2.4093C49.1352 1.9273 48.8955 1.5677 47.8324 1.5677C46.7693 1.5677 46.5296 1.9273 46.5296 2.4093V3.7121C46.5272 3.9252 46.5728 4.1361 46.663 4.3292C46.7532 4.5222 46.8857 4.6925 47.0507 4.8274L50.6569 7.9177C50.8964 8.094 51.0942 8.3208 51.2365 8.5819C51.3788 8.843 51.462 9.1322 51.4803 9.429V11.3859C51.4803 12.5558 50.1072 13.2098 47.8324 13.2098C45.3257 13.2098 44.1245 12.6418 44.1245 11.3859V9.6896H46.381V11.3207C46.381 11.9044 46.8266 12.2483 47.822 12.2483C48.7496 12.2483 49.1952 11.9044 49.1952 11.3207V9.5853C49.1952 9.158 49.0258 8.8297 48.5437 8.4024L45.2215 5.4996C44.6014 4.9785 44.26 4.5564 44.26 3.9206V2.4302C44.26 1.2107 45.529 0.606201 47.8324 0.606201C50.3729 0.606201 51.4022 1.2055 51.4022 2.3416V3.9206H49.1352V2.4093Z" fill="white"/>
<path d="M65.8611 2.4093C65.8611 1.9273 65.6213 1.5677 64.5582 1.5677C63.4951 1.5677 63.2554 1.9273 63.2554 2.4093V3.7121C63.253 3.9252 63.2986 4.1361 63.3888 4.3292C63.4791 4.5222 63.6116 4.6925 63.7765 4.8274L67.3828 7.9177C67.6226 8.0937 67.8207 8.3203 67.9631 8.5815C68.1054 8.8427 68.1884 9.1321 68.2062 9.429V11.3859C68.2062 12.5558 66.833 13.2098 64.5582 13.2098C62.0516 13.2098 60.8477 12.6418 60.8477 11.3859V9.6896H63.1173V11.3207C63.1173 11.9044 63.5655 12.2483 64.5608 12.2483C65.4885 12.2483 65.934 11.9044 65.934 11.3207V9.5853C65.934 9.158 65.7621 8.8297 65.2826 8.4024L61.9447 5.4996C61.3272 4.9785 60.9832 4.5564 60.9832 3.9206V2.4302C60.9832 1.2133 62.2548 0.606201 64.5556 0.606201C67.0962 0.606201 68.128 1.2081 68.128 2.3416V3.9206H65.8611V2.4093Z" fill="white"/>
<path d="M14.3624 0.710449H16.632L11.6656 16.2741H9.396L14.3624 0.710449Z" fill="white"/>
<path d="M10.7824 10.3776L7.71289 0.736572H9.98239L11.9158 6.81557L10.7824 10.3776Z" fill="white"/>
<path d="M58.4581 0.710449H60.7277L55.7613 16.2741H53.4917L58.4581 0.710449Z" fill="white"/>
<path d="M54.8914 10.3488L51.8193 0.710449H54.0888L56.0248 6.78695L54.8914 10.3488Z" fill="white"/>
<path d="M25.4733 13.1134V2.59955C25.4733 1.19255 24.6134 0.710449 21.695 0.710449H17.3384V13.1134H19.6053V1.67455H21.471C22.5132 1.67455 23.222 1.81005 23.222 2.45625V13.1134H25.4733Z" fill="white"/>
<path d="M69.0767 2.23989C69.0741 1.95049 69.1575 1.66679 69.3163 1.42479C69.4752 1.18289 69.7022 0.993488 69.9688 0.880688C70.2354 0.767888 70.5294 0.736788 70.8137 0.791288C71.0979 0.845788 71.3596 0.983387 71.5656 1.18679C71.7715 1.39019 71.9124 1.65019 71.9705 1.93369C72.0286 2.21729 72.0011 2.51169 71.8917 2.77969C71.7822 3.04759 71.5957 3.27699 71.3557 3.43889C71.1158 3.60069 70.8331 3.68759 70.5437 3.68869C70.3516 3.69219 70.1608 3.65719 69.9824 3.58589C69.8041 3.51449 69.6418 3.40819 69.5051 3.27319C69.3684 3.13829 69.2601 2.97729 69.1865 2.79989C69.113 2.62239 69.0756 2.43199 69.0767 2.23989ZM70.5437 3.44639C70.7004 3.44679 70.8557 3.41559 71.0001 3.35469C71.1445 3.29369 71.2751 3.20419 71.3841 3.09159C71.4931 2.97889 71.5782 2.84539 71.6344 2.69909C71.6906 2.55269 71.7166 2.39659 71.711 2.23989C71.711 1.92899 71.5875 1.63069 71.3676 1.41079C71.1477 1.19089 70.8495 1.06739 70.5385 1.06739C70.2275 1.06739 69.9293 1.19089 69.7094 1.41079C69.4895 1.63069 69.3659 1.92899 69.3659 2.23989C69.3606 2.39739 69.3873 2.55419 69.4442 2.70109C69.5012 2.84799 69.5873 2.98179 69.6973 3.09449C69.8074 3.20719 69.9391 3.29649 70.0845 3.35699C70.23 3.41749 70.3862 3.44789 70.5437 3.44639ZM70.2362 3.07639H69.9757V1.41129H70.614C71.0075 1.41129 71.2029 1.55719 71.2029 1.88559C71.2061 1.94439 71.1973 2.00329 71.177 2.05869C71.1567 2.11399 71.1254 2.16469 71.085 2.20759C71.0445 2.25049 70.9958 2.28469 70.9417 2.30819C70.8876 2.33159 70.8293 2.34389 70.7704 2.34419L71.2446 3.07639H70.9632L70.5228 2.35459H70.231L70.2362 3.07639ZM70.5385 2.14089C70.7521 2.14089 70.945 2.12529 70.945 1.88029C70.945 1.67449 70.7574 1.63539 70.5828 1.63539H70.2362V2.15659L70.5385 2.14089Z" fill="white"/>
</svg>
