<svg width="140" height="27" viewBox="0 0 140 27" fill="none" xmlns="http://www.w3.org/2000/svg">
<path d="M114.29 14.0899H108.09C107.956 14.0566 107.816 14.0554 107.681 14.0864C107.546 14.1175 107.42 14.1798 107.314 14.2685C107.208 14.3571 107.124 14.4695 107.07 14.5966C107.015 14.7237 106.991 14.8618 107 14.9999C106.996 15.1344 107.022 15.2681 107.077 15.391C107.132 15.5139 107.214 15.6228 107.317 15.7095C107.42 15.7961 107.541 15.8582 107.671 15.8912C107.802 15.9242 107.938 15.9272 108.07 15.8999H113.17V22.8999C111.296 23.7842 109.241 24.2158 107.17 24.1599C101.28 24.1599 97.66 19.8999 97.66 13.7499C97.66 7.88987 101.09 2.80987 106.76 2.80987C109.041 2.8753 111.222 3.7632 112.9 5.30986C113.108 5.5537 113.401 5.70778 113.72 5.73986C113.93 5.70832 114.123 5.60578 114.267 5.44932C114.411 5.29285 114.496 5.09189 114.51 4.87987C114.499 4.70371 114.447 4.53254 114.359 4.37984C114.27 4.22713 114.147 4.09706 114 3.99987C112.008 2.12703 109.393 1.05828 106.66 0.999865C100 0.999865 95.94 6.73987 95.94 13.6599C95.94 20.9699 100.25 25.9599 107.21 25.9599C109.47 25.9599 112.47 25.5599 114.29 24.4599C114.508 24.345 114.683 24.1639 114.791 23.9428C114.899 23.7217 114.933 23.472 114.89 23.2299V14.7599C114.905 14.6745 114.901 14.5868 114.878 14.5033C114.854 14.4198 114.812 14.3429 114.754 14.2783C114.696 14.2137 114.624 14.1631 114.544 14.1304C114.463 14.0978 114.377 14.0839 114.29 14.0899ZM87.05 1.29987C87.05 1.29987 80.18 10.7599 78.63 12.9199C78.4113 13.1429 78.2421 13.4097 78.1336 13.7026C78.025 13.9956 77.9795 14.3081 78 14.6199V24.9399C77.9566 25.0889 77.9484 25.246 77.9762 25.3988C78.0039 25.5515 78.0669 25.6957 78.16 25.8199C78.2532 25.9441 78.374 26.0449 78.5128 26.1143C78.6517 26.1837 78.8048 26.2199 78.96 26.2199C79.1153 26.2199 79.2684 26.1837 79.4072 26.1143C79.5461 26.0449 79.6669 25.9441 79.76 25.8199C79.8532 25.6957 79.9161 25.5515 79.9439 25.3988C79.9717 25.246 79.9635 25.0889 79.92 24.9399V14.9999C79.8819 14.646 79.9744 14.2904 80.18 13.9999L88.61 2.42987C88.6858 2.22512 88.6925 2.00119 88.6291 1.79228C88.5657 1.58337 88.4357 1.40095 88.2588 1.27288C88.082 1.14481 87.8682 1.07811 87.6499 1.08299C87.4316 1.08786 87.221 1.16403 87.05 1.29987ZM66.87 1.38987C66.7127 1.2312 66.503 1.13523 66.28 1.11987H50.15C49.7981 1.08907 49.446 1.17709 49.15 1.36987C49.0572 1.44328 48.9833 1.5379 48.9346 1.64578C48.8858 1.75366 48.8637 1.87166 48.87 1.98987C48.8609 2.10887 48.8807 2.22831 48.9277 2.33801C48.9747 2.44771 49.0476 2.54441 49.14 2.61987C49.4396 2.80286 49.7906 2.88358 50.14 2.84987H64.39L48.91 24.2199C48.7111 24.4395 48.5853 24.7156 48.55 25.0099C48.5527 25.1227 48.5822 25.2332 48.6361 25.3323C48.69 25.4315 48.7668 25.5163 48.86 25.5799C49.0601 25.7273 49.3015 25.8078 49.55 25.8099H65.76C66.1106 25.8413 66.4619 25.757 66.76 25.5699C66.8507 25.4929 66.9235 25.3971 66.9734 25.2892C67.0233 25.1813 67.0492 25.0638 67.0492 24.9449C67.0492 24.826 67.0233 24.7085 66.9734 24.6005C66.9235 24.4926 66.8507 24.3968 66.76 24.3199C66.4625 24.1313 66.1107 24.0469 65.76 24.0799H51.22L66.84 2.73987C67.0218 2.53297 67.1338 2.27404 67.16 1.99987C67.1559 1.88377 67.1281 1.76974 67.0782 1.66482C67.0283 1.55991 66.9575 1.46633 66.87 1.38987ZM138.4 1.08987C138.191 0.950064 137.937 0.894045 137.689 0.93296C137.441 0.971874 137.216 1.10287 137.06 1.29987C137.06 1.29987 130.19 10.7599 128.64 12.9199C128.422 13.145 128.254 13.4137 128.147 13.7085C128.04 14.0032 127.997 14.3172 128.02 14.6299V24.9399C127.977 25.0889 127.968 25.246 127.996 25.3988C128.024 25.5515 128.087 25.6957 128.18 25.8199C128.273 25.9441 128.394 26.0449 128.533 26.1143C128.672 26.1837 128.825 26.2199 128.98 26.2199C129.135 26.2199 129.288 26.1837 129.427 26.1143C129.566 26.0449 129.687 25.9441 129.78 25.8199C129.873 25.6957 129.936 25.5515 129.964 25.3988C129.992 25.246 129.984 25.0889 129.94 24.9399V14.9999C129.916 14.666 130.008 14.3341 130.2 14.0599L138.62 2.43987C138.765 2.22819 138.823 1.96903 138.782 1.71594C138.741 1.46284 138.604 1.23514 138.4 1.07987V1.08987ZM13.24 12.7999L9.31003 12.2099C6.09003 11.7199 4.00003 9.92987 4.00003 7.81987C4.00003 4.16987 6.94003 2.81987 10.24 2.81987H10.33C13.33 2.81987 16.94 4.42987 16.94 7.76987C16.9208 7.89793 16.9294 8.02863 16.9653 8.15306C17.0012 8.27749 17.0635 8.39271 17.148 8.49085C17.2325 8.58899 17.3371 8.66774 17.4548 8.72172C17.5726 8.77571 17.7005 8.80366 17.83 8.80366C17.9595 8.80366 18.0875 8.77571 18.2052 8.72172C18.3229 8.66774 18.4276 8.58899 18.5121 8.49085C18.5966 8.39271 18.6589 8.27749 18.6948 8.15306C18.7307 8.02863 18.7393 7.89793 18.72 7.76987C18.72 4.05986 15.72 1.36987 10.34 1.07987C5.92003 0.999865 2.26003 3.27986 2.26003 7.78987C2.26003 11.3899 5.85003 13.4899 9.08003 13.9899L13 14.5899C15.21 14.9499 17.75 16.2999 17.75 18.9699C17.75 22.5899 13.75 24.0799 10.47 24.0799C6.61003 24.0799 3.00003 21.9999 3.00003 18.4099C3.02108 18.2832 3.01351 18.1535 2.97787 18.0301C2.94224 17.9068 2.87944 17.793 2.79409 17.6971C2.70874 17.6012 2.603 17.5256 2.48463 17.4759C2.36626 17.4262 2.23826 17.4036 2.11003 17.4099C1.97564 17.4014 1.84114 17.4246 1.71737 17.4777C1.5936 17.5307 1.484 17.612 1.39742 17.7152C1.31083 17.8183 1.24967 17.9403 1.21886 18.0714C1.18805 18.2025 1.18845 18.339 1.22003 18.4699C1.22003 22.3599 4.58003 25.8799 10.48 25.8799C17.17 25.8799 19.48 21.6599 19.48 18.9899C19.5 15.4399 16.34 13.2999 13.24 12.7999ZM39.09 1.29987C39.09 1.29987 32.22 10.7599 30.67 12.9199C30.4441 13.1395 30.2675 13.4046 30.152 13.6977C30.0365 13.9908 29.9847 14.3052 30 14.6199V24.9399C29.9566 25.0889 29.9484 25.246 29.9762 25.3988C30.0039 25.5515 30.0669 25.6957 30.16 25.8199C30.2532 25.9441 30.374 26.0449 30.5128 26.1143C30.6517 26.1837 30.8048 26.2199 30.96 26.2199C31.1153 26.2199 31.2684 26.1837 31.4072 26.1143C31.5461 26.0449 31.6669 25.9441 31.76 25.8199C31.8532 25.6957 31.9161 25.5515 31.9439 25.3988C31.9717 25.246 31.9635 25.0889 31.92 24.9399V14.9999C31.8934 14.6409 32.0002 14.2848 32.22 13.9999L40.64 2.42987C40.7126 2.22661 40.7175 2.00534 40.6539 1.7991C40.5903 1.59286 40.4617 1.41271 40.2874 1.28557C40.113 1.15844 39.9021 1.09113 39.6863 1.0937C39.4705 1.09628 39.2613 1.1686 39.09 1.29987Z" fill="white"/>
</svg>
