<svg width="51" height="53" viewBox="0 0 51 53" fill="none" xmlns="http://www.w3.org/2000/svg">
<g clip-path="url(#clip0_46_428)">
<path d="M24.4953 33.6979C24.7844 33.3556 24.858 33.1504 24.8524 32.9353C24.8509 32.8787 24.839 32.8349 24.8155 32.8111C24.7842 32.7796 24.742 32.7595 24.6977 32.7673C23.9039 32.907 23.3414 34.187 23.4368 34.5451C23.8088 34.3341 24.2037 34.0434 24.4953 33.6979Z" fill="#FF6600"/>
<path d="M49.0894 25.5049C49.1175 25.7226 49.1395 25.9405 49.1484 26.1591C49.1878 27.1233 49.0312 28.0932 48.6831 29.0784C48.6826 29.085 48.6829 29.0915 48.6824 29.098C48.6315 29.8603 48.4599 30.6036 48.1733 31.3364C49.2643 29.3658 49.5679 27.4464 49.0894 25.5049Z" fill="#FF6600"/>
<path d="M2.21777 22.154C2.98864 13.5602 4.40131 7.7824 6.92853 4.58398C3.64172 7.00207 2.27018 12.8118 2.21777 22.154Z" fill="#FF6600"/>
<path d="M36.5947 13.2314C43.7965 18.5122 47.7188 22.9857 48.5351 27.0239C48.5556 26.7561 48.5638 26.489 48.5531 26.223C48.3853 22.1162 44.4986 17.9819 36.5947 13.2314Z" fill="#FF6600"/>
<path d="M39.8666 39.4932C38.681 40.2379 37.3694 41.0002 35.9366 41.7856C34.8107 42.5493 33.6171 43.3318 32.3472 44.1378C31.3262 44.7857 30.3405 45.3966 29.3862 45.973C30.0845 45.5843 30.7983 45.1795 31.5287 44.7578C34.7462 42.9001 37.5228 41.156 39.8666 39.4932Z" fill="#FF6600"/>
<path d="M6.34703 49.3818C4.11314 46.3735 2.86196 41.2329 2.23182 33.7822C2.14232 42.0689 3.18263 47.2111 6.34703 49.3818Z" fill="#FF6600"/>
<path d="M40.4873 38.5009C44.5251 35.8424 46.9581 33.3879 47.8634 30.8408C46.4955 33.2295 44.0382 35.7388 40.4873 38.5009Z" fill="#FF6600"/>
<path d="M33.5171 9.45769C33.2294 9.25261 32.8768 9.04451 32.6183 8.9202L32.6253 8.90297C32.64 8.86471 32.6535 8.82594 32.6646 8.78651C32.6785 8.74143 32.6906 8.68337 32.6977 8.62437C32.8184 7.8085 32.6461 7.60283 32.0494 7.09898C31.9321 7.00003 31.8594 6.89081 31.8009 6.74884C31.5615 6.16913 31.0532 5.86143 30.4462 5.79963C29.8986 5.74378 29.2609 6.02326 28.7967 6.30202C28.531 6.46144 28.376 6.66843 28.3142 6.87857C28.0603 6.85966 22.3101 3.96463 22.0616 4.04152C22.0192 4.05464 22.1673 4.17294 22.4159 4.34717C23.7752 5.02503 25.222 5.82199 26.7659 6.7385C26.9971 6.87571 26.8907 7.04489 26.7074 7.10983C26.6009 7.14757 26.4687 7.15036 26.3611 7.09085C25.9264 6.83488 25.5007 6.59 25.0818 6.35369C24.6224 6.09451 24.1724 5.84713 23.7316 5.61162C19.8989 3.77479 16.6596 2.61647 13.9393 2.18218C12.4171 2.08675 11.0864 2.32042 9.91912 2.89427C9.84531 2.93055 9.77401 2.97204 9.70155 3.01111C13.4118 2.276 18.5884 3.66888 25.6232 6.93589C25.8365 7.03499 26.0498 7.13409 26.2666 7.23663C26.4616 7.32877 26.4309 7.52073 26.2938 7.60172C26.2197 7.64556 26.1158 7.65839 25.9968 7.6021C18.0314 3.82992 12.425 2.38559 8.71721 3.65598C5.07609 6.53672 3.36231 13.7063 2.57635 25.6707C2.49902 26.8477 2.43349 27.9798 2.38028 29.0711C2.91374 40.0622 4.62685 46.999 7.88426 50.1488C12.0162 51.5832 18.7468 49.6667 28.2801 45.1311C24.4213 46.533 20.0361 48.0059 17.6609 48.3907C19.2575 47.9438 26.0427 45.6157 27.6432 44.9746C29.5995 44.1906 31.877 43.4143 32.5226 43.0027L32.574 43.01C33.6355 42.4663 34.6406 41.9351 35.5917 41.4141C42.9956 36.4016 47.1801 32.307 48.2682 28.4951C48.2379 23.7165 43.0946 18.1471 32.8427 11.2146C32.5674 11.0285 32.5549 10.8384 32.6573 10.7424C32.7233 10.6461 32.9068 10.6101 33.0862 10.7069C33.1817 10.7584 33.2734 10.8093 33.368 10.8607C33.2659 10.7998 33.1614 10.7382 33.0583 10.677C33.2843 10.7897 33.5185 10.9731 33.5638 10.9205C33.6373 10.8006 32.4123 10.1411 32.5609 9.9802C32.7093 9.81921 33.5669 10.3539 33.5669 10.3539L33.4756 10.1862C35.6911 11.6783 37.6786 13.0917 39.4449 14.4403C43.9604 17.8878 47.0159 20.9078 48.6355 23.7068C49.655 25.4687 50.1072 27.1434 49.9977 28.7826C49.6414 34.1232 43.3382 39.339 30.6345 45.6007C29.4897 46.165 28.3884 46.6945 27.3256 47.1912C26.8041 47.435 26.2938 47.6693 25.7914 47.8965C24.2369 48.5998 22.7734 49.2233 21.3957 49.7651C24.2464 48.4378 27.5228 46.5714 31.2952 44.2055C30.9935 44.3562 30.6904 44.5073 30.3804 44.66C20.4983 49.5314 13.6384 51.9621 9.07644 51.0913C9.2267 51.1858 9.37894 51.2756 9.5347 51.3572C10.6617 51.9479 11.9521 52.2002 13.4326 52.1336C12.4417 52.2939 11.5206 52.3715 10.6651 52.3647C10.0947 52.2213 9.55412 52.0205 9.04507 51.7536C8.45429 51.4441 7.90794 51.0516 7.40254 50.5757C7.03415 50.4134 6.6824 50.2254 6.35139 50.0036C2.59189 47.4848 1.39062 41.187 1.69135 30.9205C1.51244 28.9615 1.27854 26.1385 1.13708 23.4641C1.10425 24.7047 1.08782 25.9997 1.08782 27.3541C1.08782 42.8514 3.19168 50.7805 9.30513 52.2782C7.99582 52.1097 6.86037 51.7027 5.8784 51.0449C1.43152 48.0655 0.00280147 39.7579 0.932214 25.6237C0.989169 24.7563 1.0511 23.9136 1.11787 23.0941C1.13276 22.9116 1.14873 22.7339 1.16413 22.5537C1.20129 22.1189 1.23999 21.691 1.28016 21.27C1.43181 23.1005 1.63309 25.4729 1.83026 27.6296C1.837 27.5044 1.84381 27.379 1.851 27.2528C1.65427 21.8521 1.76817 17.4059 2.28228 13.856C2.67002 11.7853 3.12843 9.96692 3.67032 8.39759C4.49469 6.405 5.60844 4.95994 7.06164 4.03983C7.2978 3.89031 7.54284 3.75508 7.79645 3.63332C8.36275 3.09489 8.97581 2.65876 9.64314 2.33076C9.83434 2.23679 10.0304 2.15397 10.2293 2.0773C8.25749 2.34447 6.66364 3.19926 5.39303 4.67034C6.36407 3.12384 7.5122 2.0287 8.86754 1.36243C12.7666 -0.554596 18.5666 0.908202 26.8488 5.86583C27.1123 6.02363 27.3783 6.18482 27.6469 6.34966C28.008 6.57139 28.6693 6.34995 28.1923 6.04203C28.0526 5.95722 27.9138 5.87315 27.7756 5.79018C18.8769 0.442763 12.8906 -1.16062 8.6692 0.914725C3.62363 3.39496 1.25128 11.1817 0.30508 25.584C-0.640237 39.9573 0.510314 48.2437 5.18075 51.3729C7.14043 52.6858 9.70607 53.0762 12.977 52.6198C15.4865 52.2695 18.4125 51.4195 21.8033 50.0994C24.5264 49.0392 27.5463 47.6786 30.8928 46.0288C43.8135 39.6602 50.415 34.5206 50.7893 28.9113C51.1617 23.3352 45.3735 17.407 33.5171 9.45769ZM14.9009 29.4966C14.8089 29.6216 14.713 29.6825 14.6163 29.6825C14.5788 29.6825 14.5366 29.6773 14.4957 29.6647L14.3673 29.6252C14.2892 29.6011 14.1301 29.5835 13.8869 29.5835C13.2742 29.5835 12.8214 29.6075 12.5331 29.6527C12.3829 29.6764 12.2869 29.7072 12.2485 29.7457C12.1555 29.9897 11.9794 31.2165 11.9548 31.5791C12.565 31.4725 13.6777 31.4135 14.2081 31.6817C14.4214 31.7898 14.5263 31.9823 14.5263 32.255C14.5263 32.3913 14.4853 32.5187 14.4 32.6383C14.312 32.7611 14.2181 32.8242 14.1211 32.8242C14.1014 32.8242 14.0663 32.81 14.0125 32.7885C13.3774 32.5738 12.4454 32.727 11.8777 32.8004C11.8363 33.208 11.7229 35.0785 11.7229 35.5108V36.078C11.7229 36.3587 11.7565 36.578 11.8216 36.7322C11.8632 36.8389 11.8849 36.9101 11.8849 36.9399C11.8849 37.0366 11.8238 37.1196 11.6991 37.1888C11.5807 37.2617 11.4364 37.2995 11.2663 37.2995C11.0884 37.2995 10.9382 37.256 10.8136 37.171C10.6792 37.082 10.5863 36.9634 10.5368 36.8132C10.4697 36.6236 10.4381 36.2736 10.4381 35.7637C10.4381 35.2677 10.5646 33.4256 10.5811 32.9743L10.587 32.8121C10.421 32.5868 10.338 32.3833 10.338 32.1974C10.338 31.9939 10.4466 31.8515 10.6621 31.7745C10.7862 31.0219 10.8179 30.7558 10.9002 30.0756C10.9301 29.8291 10.9458 29.7158 10.9458 29.7336L10.9635 29.613C10.8627 29.3818 10.8133 29.2177 10.8133 29.1209C10.8133 28.9766 10.8693 28.8605 10.9814 28.7671C11.0923 28.6749 11.2746 28.5974 11.5248 28.53C11.9187 28.4238 12.5565 28.3678 13.4421 28.3678C14.0369 28.3678 14.4497 28.4222 14.6813 28.53C14.9161 28.6394 15.0332 28.8264 15.0332 29.0972C15.0334 29.2397 14.9904 29.3748 14.9009 29.4966ZM16.9757 32.5165C16.9598 32.6288 16.9324 32.8608 16.8948 33.2102C16.8044 34.048 16.7179 34.9228 16.7179 35.7663C16.7179 36.0015 16.7197 36.148 16.7239 36.2051C16.7314 36.3137 16.739 36.3913 16.7476 36.4382C16.7624 36.5194 16.7887 36.6079 16.8227 36.709C16.8397 36.7599 16.8463 36.808 16.8463 36.8533C16.8463 36.9659 16.788 37.0683 16.6724 37.1558C16.5531 37.246 16.4213 37.2882 16.2791 37.2882C16.0399 37.2882 15.8581 37.1916 15.7276 37.0055C15.5994 36.8224 15.532 36.549 15.532 36.1832C15.532 35.3075 15.6595 34.404 15.7186 33.5305C15.7514 33.0448 15.756 32.7632 15.7581 32.6904C15.7593 32.6509 15.7642 32.5836 15.7642 32.4867C15.7642 32.3938 15.7516 32.305 15.7304 32.2219L15.6949 32.0816V32.054C15.691 32.0499 15.6889 32.042 15.6889 32.0302C15.6889 31.9137 15.7646 31.813 15.9162 31.7278C16.0626 31.6455 16.2324 31.6013 16.4242 31.6013C16.6179 31.6013 16.7658 31.6433 16.865 31.7278C16.967 31.8147 17.0152 31.9434 17.0152 32.1052C17.0153 32.2021 17.0009 32.3388 16.9757 32.5165ZM16.0925 30.3088C16.1664 29.5209 17.5465 29.7699 17.5129 30.4345C17.4637 31.3928 16.0109 31.1767 16.0925 30.3088ZM21.1594 33.5617C21.0326 33.5617 20.9187 33.4924 20.7897 33.4924C20.3492 33.4924 20.008 33.7936 19.7895 34.1371C19.6516 34.3541 19.5485 34.5229 19.483 34.8109C19.4205 35.0857 19.3902 35.2638 19.3902 35.6828C19.3902 35.92 19.3994 36.1038 19.4178 36.2401C19.4369 36.3823 19.472 36.5208 19.5165 36.6572C19.5489 36.7558 19.5641 36.8253 19.5641 36.8589C19.5641 36.9716 19.4937 37.0727 19.3545 37.1653C19.2113 37.2604 19.06 37.3115 18.8979 37.3115C18.7161 37.3115 18.5775 37.2563 18.481 37.1494C18.3761 37.0332 18.3046 36.847 18.2656 36.592C18.2236 36.3195 18.2024 35.9497 18.2024 35.4871C18.2024 35.175 18.2143 35.0703 18.2261 34.8348L18.2656 34.0441C18.2939 33.4751 18.3725 32.6451 18.2716 32.0758C18.2613 32.0184 18.2497 31.9631 18.2497 31.9078C18.2497 31.7893 18.3171 31.6837 18.4512 31.5956C18.5869 31.5066 18.7438 31.4631 18.9217 31.4631C19.2833 31.4631 19.4653 31.6115 19.4653 31.9078C19.4653 32.1947 19.4238 32.6489 19.4238 32.9275C19.9988 32.3839 20.5111 32.2237 21.1019 32.2237C21.4538 32.2237 21.8194 32.3975 21.8194 32.7968C21.8195 33.1419 21.534 33.5617 21.1594 33.5617ZM26.3212 35.7851C26.1618 36.216 25.958 36.5296 25.591 36.8C25.1568 37.1199 24.6892 37.2851 24.19 37.2981C23.2068 37.3235 22.4098 36.7438 22.2093 35.7669C22.0032 34.7615 22.3766 33.5095 22.8733 32.7882C23.4022 32.0201 24.7569 31.1865 25.5803 32.0363C25.8022 32.2751 25.9188 32.5712 25.9282 32.9268C25.9356 33.2065 25.8761 33.4896 25.7474 33.7804C25.6242 34.0574 25.4435 34.3242 25.207 34.5787C24.7066 35.1003 24.0382 35.4864 23.3359 35.6697C23.389 35.8795 23.4761 36.0299 23.5971 36.1224C23.7244 36.2209 23.8857 36.2695 24.0813 36.2644C24.8602 36.2441 25.3944 35.6689 25.4445 34.911C25.4574 34.7192 25.5674 34.6203 25.7708 34.6151C25.9566 34.6103 26.1118 34.6616 26.2338 34.7751C26.3568 34.8896 26.4206 35.0361 26.4254 35.2121C26.4299 35.3787 26.398 35.5774 26.3212 35.7851ZM29.311 31.71C29.679 31.6951 30.2208 31.6487 30.5325 31.8601C30.6867 31.9649 30.7638 32.1429 30.7638 32.3918C30.7638 32.4927 30.7455 32.5747 30.7064 32.637C30.6646 32.7033 30.6096 32.7338 30.5443 32.7338C30.5403 32.7338 30.5304 32.7319 30.5126 32.7278C30.4949 32.7239 30.4751 32.7232 30.4515 32.7219C29.9767 32.693 29.4963 32.7469 29.0264 32.8089C28.8747 33.751 28.8487 35.184 28.8487 35.1663C28.8487 35.5911 28.8499 36.4505 28.9058 36.5859L28.9749 36.7539C28.9946 36.8014 29.0047 36.8488 29.0047 36.9003C29.0047 37.0188 28.9473 37.1067 28.8425 37.1711C28.732 37.239 28.5916 37.2758 28.4137 37.2758C28.22 37.2758 28.0738 37.2303 27.973 37.1375C27.8723 37.0445 27.8087 36.8779 27.7713 36.6393C27.7356 36.4116 27.7121 36.1236 27.7121 35.6056C27.7121 35.1886 27.7269 34.8564 27.7535 34.4354C27.7801 34.0146 27.8207 33.471 27.8741 32.977C27.7151 32.9941 27.5145 33.0688 27.3842 33.0688C27.299 33.0688 27.2273 33.0586 27.1628 32.9748C27.1028 32.8968 27.0717 32.7988 27.0717 32.6802C27.0717 32.5677 27.0979 32.4569 27.1528 32.3501C27.2023 32.2535 27.2721 32.1719 27.3663 32.1109C27.4951 32.0278 27.6398 31.926 27.8741 31.872L28.0026 31.8424C28.06 31.5262 28.1246 31.1544 28.1984 30.9689C28.3788 30.5152 28.746 30.1179 29.1766 29.8918C29.5554 29.6929 30.3062 29.5373 30.6776 29.8182C30.8193 29.9255 30.891 30.0693 30.891 30.2473C30.891 30.4013 30.8366 30.5408 30.7231 30.6643C30.6097 30.7878 30.4702 30.8481 30.312 30.8481C30.2587 30.8481 30.2167 30.8425 30.1855 30.8302L30.0689 30.7848C30.0056 30.7602 29.9542 30.7551 29.9187 30.7551C29.3869 30.7551 29.2143 31.2842 29.1668 31.7157L29.311 31.71ZM26.9367 10.6131C27.2764 10.6883 27.7872 10.7702 28.3145 10.8547C29.6471 11.0698 31.0592 11.2977 31.1124 12.0954C31.1622 12.8404 30.8333 13.1562 30.0641 13.1522C28.725 13.1455 27.1417 12.0033 25.9255 12.1993C25.2662 12.312 25.3781 12.7551 25.2468 13.5012C25.0651 14.7102 24.7759 15.2131 23.381 15.8339C22.5837 16.1886 21.5797 16.5384 20.7628 16.8459C19.6742 17.2552 18.4398 18.6154 19.0295 19.6759C19.4534 20.2635 22.2007 19.3611 23.166 18.3667C23.6953 17.8206 24.1499 17.3732 24.4435 16.8366C24.7984 16.1767 25.2001 16.4745 25.0313 17.0449C24.4099 18.1841 23.706 18.9279 22.9642 19.5915C22.0978 20.537 22.0355 22.4089 22.7836 22.8654C23.5096 23.1134 24.3164 22.6234 24.7481 21.9951C25.1636 21.3897 25.588 20.5149 25.7123 19.4252C25.7072 18.9793 25.7057 18.2778 25.8573 17.7986C26.11 17.0142 26.6622 17.3165 26.4288 18.1059C26.1369 19.364 26.4428 20.7167 27.1301 21.7874C27.4181 22.2368 27.6818 22.6146 28.0676 22.6725C28.7322 22.5643 29.1926 21.7975 29.2831 21.2586C29.4995 19.9833 28.351 18.263 28.1206 17.8058C27.6903 16.9515 27.6274 16.1254 27.8779 15.2126C28.0139 14.7152 28.3667 14.2228 28.533 13.8133C28.6438 13.476 29.2329 13.5769 29.2387 13.9904C29.2058 14.2425 29.1803 14.4851 29.1698 14.7216C29.141 15.3509 29.3373 16.0185 29.6229 16.5885C30.058 17.4563 30.454 18.2633 30.7751 19.1834C31.2768 20.6222 31.6379 22.4125 31.0689 24.4065C30.1493 27.6274 27.6548 29.1674 24.923 29.6681C23.6909 29.8951 22.4033 29.8659 21.1723 29.6064C18.3509 29.0102 16.0167 27.1043 15.1078 24.5412C14.306 22.2789 14.7205 19.4911 16.1733 17.5718C17.2406 16.1616 19.0191 15.2503 20.6977 14.7849C21.4043 14.5891 22.0462 14.362 22.7304 14.098C23.4101 13.8113 23.7066 13.3653 23.9472 13.4491C24.0694 13.5359 24.0212 13.7536 23.8867 13.9686C23.5429 14.5196 22.7761 14.7678 22.1983 14.9742C21.6391 15.1743 21.0637 15.335 20.5031 15.534C19.0629 16.0434 17.6651 16.7107 16.7457 18.1278C15.4313 20.206 15.4099 23.2129 16.7464 25.3249C17.7978 27.0259 19.4391 28.1617 21.5597 28.6099C25.3541 29.4113 29.2029 28.1989 30.3446 24.201C30.813 22.5621 30.5701 20.6961 30.177 19.4203C29.8672 18.4161 29.3722 17.6018 28.9874 16.6449C28.7684 16.101 28.607 15.6845 28.6538 14.9502C28.2897 15.5082 28.2425 16.4008 28.4193 16.8895C28.5312 17.199 28.6738 17.4952 28.8468 17.8175C29.2751 18.6153 30.3072 20.5874 29.8326 21.9863C29.6064 22.6546 28.8364 23.452 27.8789 23.4482C27.3571 23.3512 26.8619 22.7556 26.542 22.2738C26.2815 21.883 26.0624 21.413 25.9221 20.8972C25.336 22.6955 24.3143 24.3393 22.3503 23.7263C21.4354 23.2204 21.2991 21.4594 21.8264 20.2221C20.3624 20.7401 18.8334 20.9056 18.2873 20.1227C17.2913 18.341 18.9333 16.9085 20.4013 16.2962C21.3356 15.9057 22.6326 15.4786 23.5924 14.9736C23.5926 14.9736 23.5935 14.9736 23.5935 14.9736C23.5937 14.9727 23.5939 14.9725 23.5939 14.9718C24.6623 14.4332 24.5696 13.462 24.7057 12.6712C24.8043 12.1018 24.9452 11.6276 25.5719 11.5253C26.0599 11.4436 26.733 11.5633 27.8816 11.92C28.9422 12.2491 29.6216 12.3997 30.0665 12.4016C30.2815 12.4045 30.376 12.3262 30.3629 12.1454V12.143C30.3502 11.9424 29.2419 11.7651 28.1951 11.5969C27.0603 11.4121 25.9831 11.2393 25.8104 10.6949C25.7441 10.4872 25.7335 10.308 25.7642 10.1509C25.7967 9.98318 25.8733 9.84972 25.9831 9.74136C26.084 9.64225 26.2069 9.57475 26.3466 9.5296C26.6166 9.4445 26.9623 9.45322 27.2965 9.51846H27.2996C27.4769 9.55349 27.7754 9.63419 28.1291 9.73338C28.918 9.95229 30.0135 10.256 30.5861 10.253C30.6667 10.2525 30.7371 10.2462 30.7947 10.2325C31.5645 10.0435 31.0023 9.84962 30.4847 9.83826C30.2552 9.83316 30.0208 9.82229 29.7877 9.80584C29.0644 9.75503 28.3542 9.64922 27.8467 9.48334C27.6003 9.40074 27.3912 9.30083 27.2343 9.17975C27.0204 9.01438 26.9026 8.81231 26.9085 8.56544C26.9107 8.49991 26.921 8.4305 26.9452 8.36087C26.9579 8.31836 26.9728 8.27863 26.9858 8.24608C26.9869 8.24345 26.9885 8.24146 26.9896 8.23883C27.1212 7.92599 27.3296 7.71116 27.6073 7.5881C27.6495 7.5694 27.6889 7.54676 27.7345 7.5326C28.0446 7.4371 28.4186 7.45813 28.855 7.60312C28.9365 7.62899 29.0219 7.66308 29.1167 7.69965C29.6408 7.91742 30.4719 8.20365 31.0589 8.28999C31.1805 8.30795 31.5702 8.21266 31.2506 8.04173C31.0774 7.95128 30.9032 7.97738 30.7889 7.71614C30.6165 7.32877 30.4473 7.01373 30.2892 6.99761H30.2875C30.1404 6.98229 29.63 7.14698 29.29 7.22703C28.8475 7.33023 28.7426 7.03697 29.1068 6.8184C29.5262 6.56655 30.0307 6.36322 30.3849 6.39899C30.7187 6.43329 31.0761 6.57248 31.2435 6.97848C31.3614 7.26346 31.5127 7.43468 31.6602 7.55936C32.0685 7.90364 32.1915 7.92446 32.099 8.55225C32.0958 8.57747 32.0912 8.59938 32.0845 8.62166C32.0784 8.64292 32.0707 8.66469 32.0625 8.68623C31.9713 8.90114 31.7835 9.01432 31.5277 9.05324C31.3653 9.07478 31.1683 9.06584 30.948 9.0344C30.5511 8.97554 30.056 8.83606 29.6016 8.68286C29.3166 8.58677 29.0474 8.48547 28.8292 8.39495H28.828C28.7596 8.36622 28.5244 8.26316 28.4535 8.23883C27.9664 8.07684 27.0815 8.43798 28.0834 8.76899C28.6416 8.95201 29.4947 9.05389 30.3117 9.08197C30.3743 9.08409 30.4372 9.0868 30.4992 9.08812C31.1121 9.10095 31.4957 9.24403 31.7046 9.4401C31.854 9.57929 31.929 9.74271 31.9418 9.91659C31.9444 9.95123 31.9429 9.98549 31.9405 10.0197C31.9313 10.146 31.8896 10.2694 31.8184 10.3834C31.7377 10.5169 31.6131 10.641 31.4615 10.7432C31.3186 10.8395 31.1518 10.9165 30.9713 10.9603C30.316 11.1203 28.9061 10.7277 27.9299 10.4564C27.5994 10.365 27.3223 10.29 27.1563 10.2565L27.1553 10.2561C26.5149 10.131 26.149 10.4412 26.9367 10.6131ZM18.5041 23.4131C19.0523 23.3524 19.65 23.2052 20.0174 22.935L20.3177 23.5784C20.3138 23.5795 19.2842 24.0842 18.5859 24.1594L18.5041 23.4131ZM21.3635 26.2117L22.1492 24.7396L22.7482 24.9386L22.061 26.6558L21.3635 26.2117ZM24.984 24.8516L25.6764 24.4988C25.6773 24.5035 26.0842 25.5761 26.1805 26.3379L25.4004 26.4298C25.3159 25.749 25.1636 25.4265 24.984 24.8516ZM34.1867 38.0753C34.2421 37.7599 34.5181 37.0923 34.9246 36.3531L35.0271 36.1702C34.9061 35.7737 34.8071 35.3964 34.7253 35.0417C34.5539 34.2984 34.4568 33.7702 34.3272 33.0192C34.2658 32.6633 34.2345 32.4517 34.2578 32.3191C34.3192 31.969 34.6717 31.88 34.9775 31.9336C35.26 31.9831 35.4408 32.1122 35.5279 32.3193C35.6047 32.5013 35.5143 32.846 35.5511 33.0668C35.6532 33.6811 35.7145 34.0728 35.8667 34.6781C35.9315 34.5711 35.9678 34.5131 35.9739 34.5022L36.3143 33.9337C36.7734 33.1674 37.0528 32.8457 37.2914 32.6017C37.4781 32.4111 37.6755 32.334 37.8858 32.3708C38.0454 32.3988 38.3107 32.4351 38.4551 32.5744C38.5953 32.7095 38.6556 32.8381 38.6335 32.9646C38.6227 33.0251 38.5894 33.1046 38.504 33.1647L38.2508 33.343C38.1033 33.4468 37.8309 33.7616 37.3689 34.488C36.9004 35.2249 36.4451 35.9694 36.0328 36.7398C35.6308 37.4904 35.3591 38.1645 35.303 38.4838C35.2983 38.5111 35.2923 38.5585 35.2898 38.6282C35.2857 38.7338 35.2856 38.7898 35.2841 38.7976C35.2703 38.8774 35.2257 38.9333 35.1536 38.9695C35.0806 39.006 34.9907 39.0169 34.8837 38.9981C34.6638 38.9597 34.4827 38.8475 34.3426 38.6626C34.2026 38.4775 34.1506 38.2816 34.1867 38.0753ZM32.937 29.8093C33.0442 29.9058 33.0991 30.0346 33.0991 30.1967C33.0991 30.2402 33.0883 30.3409 33.0695 30.5031C33.0331 30.8174 32.9926 31.2652 32.947 31.6903C32.7898 33.1551 32.6471 34.7008 32.7631 36.1986C32.7753 36.3565 32.7917 36.4779 32.8204 36.5585L32.8718 36.7028C32.8849 36.7392 32.8955 36.7778 32.8955 36.8253C32.8955 36.9477 32.8375 37.0538 32.7216 37.1435C32.6026 37.2355 32.4607 37.2817 32.2986 37.2817C32.0832 37.2817 31.9003 37.1856 31.7551 36.9932C31.6218 36.8161 31.5576 36.5308 31.5576 36.1414C31.5576 36.1137 31.563 35.9852 31.5693 35.754C31.5707 35.6988 31.5752 35.6593 31.5753 35.6314C31.5789 34.5978 31.6575 33.7215 31.7314 32.6922L31.8125 31.5636C31.8399 31.1801 31.8539 30.8194 31.8539 30.6376C31.8539 30.5129 31.8421 30.41 31.8184 30.3252C31.7868 30.2125 31.7729 30.1453 31.7729 30.1215C31.7729 30.0091 31.855 29.9079 32.016 29.8093C32.1712 29.7143 32.3361 29.665 32.514 29.665C32.688 29.665 32.8289 29.7121 32.937 29.8093Z" fill="#FF6600"/>
</g>
<defs>
<clipPath id="clip0_46_428">
<rect width="51" height="52.9245" fill="white" transform="translate(0 0.0380859)"/>
</clipPath>
</defs>
</svg>
