<svg width="146" height="30" viewBox="0 0 146 30" fill="none" xmlns="http://www.w3.org/2000/svg">
<g clip-path="url(#clip0_147_2)">
<path d="M55.7255 9.57812H48.438L49.7279 13.2754H53.0328V26.2216H55.3331H55.7255H56.1178H58.4122V13.2754H61.723L63.007 9.57812H55.7255Z" fill="white"/>
<path d="M71.3474 16.2822H63.0078V19.5218H71.3474V16.2822Z" fill="white"/>
<path d="M84.8816 9.88477V15.597H82.1948H81.2378H78.5511V9.88477H74.3486V25.9101H78.5511V18.8485H81.2378H82.1948H84.8816V25.9101H89.09V9.88477H84.8816Z" fill="white"/>
<path d="M108.343 13.108V10.0527H94.4697V17.4234V18.3745V25.7452H108.343V22.6899H99.2607V19.3255H106.994V18.3745V17.4234V16.4724H99.2607V13.108H108.343Z" fill="white"/>
<path d="M121.813 10.0527H115.423L109.431 25.7452H113.55L115.126 22.2262H122.104L123.679 25.7452H127.798L121.807 10.0527H121.813ZM118.621 18.6776H116.077L118.621 12.7276L121.165 18.6776H118.621Z" fill="white"/>
<path d="M137.285 10.0527H129.587V25.7452H137.285C141.618 25.7452 145.131 22.2322 145.131 17.8989C145.131 13.5657 141.618 10.0527 137.285 10.0527ZM140.81 19.3136C140.81 21.293 139.205 22.8979 137.226 22.8979H134.509V12.894H137.226C139.205 12.894 140.81 14.4989 140.81 16.4783V19.3077V19.3136Z" fill="white"/>
<path d="M14.5962 14.4716L20.2784 14.2998L18.4282 16.15L14.5962 14.4716Z" fill="white"/>
<path d="M30.4243 12.4884C29.7026 9.87642 26.197 7.89453 21.9812 7.89453C17.7654 7.89453 14.2655 9.87642 13.5381 12.4884H30.4243Z" fill="white"/>
<path d="M6.59477 14.8578L7.89838 18.9491L11.0124 21.4833C11.0124 21.4833 15.2132 19.7823 15.2132 22.9309C15.2132 26.0796 14.3627 29.2858 13.8731 29.7734C13.8731 29.7734 0.729492 29.0132 0.729492 16.4494C0.729492 11.2177 5.3814 6.32769 10.903 3.56112C15.1997 1.41084 20.0283 0.773438 23.5762 0.773438C27.5811 0.773438 34.0128 3.10803 36.7294 7.06493C39.5133 11.1217 38.4842 16.8602 34.8383 21.8827L34.7135 21.5429C34.0435 19.7247 33.4829 17.8701 33.0355 15.9848L31.9047 11.2157C31.6148 9.99085 30.8661 8.92339 29.8159 8.23223C28.3913 7.29532 26.7729 6.69439 25.0833 6.47168C22.9484 6.19138 20.7847 6.19138 18.6498 6.47168C18.2504 6.52409 17.8564 6.60537 17.4707 6.71443C16.01 7.1274 14.7791 8.0813 13.6535 9.09962C12.6684 9.99088 11.5463 11.1148 11.1046 11.9626C11.1046 11.9626 10.6649 12.5731 9.00999 13.6598C7.35505 14.7464 6.59669 14.8597 6.59669 14.8597L6.59477 14.8578Z" fill="white"/>
</g>
<defs>
<clipPath id="clip0_147_2">
<rect width="145.131" height="29.7205" fill="white"/>
</clipPath>
</defs>
</svg>
