<svg width="107" height="20" viewBox="0 0 107 20" fill="none" xmlns="http://www.w3.org/2000/svg">
<g clip-path="url(#clip0_2223_3188)">
<path d="M11.7502 1.16113H0.491709V4.02488H4.54167V15.8729H7.67916V4.02488H11.7502V1.16113Z" fill="#C6B75A"/>
<path d="M18.6288 12.8829V9.31021C18.6288 6.37627 17.0495 4.69873 14.291 4.69873C12.9925 4.69873 11.7081 5.04968 10.7675 5.66033L10.3043 5.96215L11.1676 8.47495L11.9186 7.99064C12.4872 7.61863 13.2944 7.39402 14.0243 7.39402C14.8806 7.39402 15.3299 7.70286 15.4562 8.41178C13.3435 8.50302 11.7853 9.03647 10.8096 9.99807C10.1007 10.7 9.74274 11.5914 9.74274 12.6512C9.74274 14.3639 10.9851 16.0976 13.3716 16.0976C14.263 16.0976 15.1123 15.8449 15.8071 15.3887L15.8633 15.88H18.9095L18.7621 15.0517C18.6639 14.5183 18.6147 13.7883 18.6147 12.8899L18.6288 12.8829ZM15.5404 11.9564C15.5404 12.0476 15.5194 12.1669 15.4773 12.2863C15.2948 12.8267 14.7613 13.4093 13.8278 13.4093C13.3996 13.4093 12.8943 13.2408 12.8943 12.4547C12.8943 12.1178 12.9925 11.8721 13.1961 11.6686C13.4839 11.3878 14.1226 11.065 15.5404 11.0088V11.9634V11.9564Z" fill="#C6B75A"/>
<path d="M26.7568 5.39361C26.1882 5.00757 25.4091 4.69873 24.3493 4.69873C21.9207 4.69873 19.3447 6.7202 19.3447 10.4754C19.3447 13.5356 21.3943 15.8379 24.1176 15.8379C24.995 15.8379 25.7952 15.6203 26.462 15.2062C26.3005 16.5889 25.5425 17.2346 24.1176 17.2346C22.8542 17.2346 21.9979 16.7854 21.6891 16.5889L20.931 16.1116L20.0536 18.7929L20.4958 19.0877C21.3381 19.6492 22.7068 19.9931 24.0615 19.9931C25.2126 19.9931 26.841 19.7615 28.0062 18.6665C29.1081 17.6768 29.6065 16.1748 29.6065 13.7813V8.22928C29.6065 7.08519 29.6416 6.32714 29.6837 5.64629L29.7258 4.90228H26.7989L26.7708 5.37957L26.7568 5.39361ZM26.469 11.1071C26.469 11.3668 26.4339 11.6195 26.3707 11.809C26.104 12.6021 25.4161 13.1075 24.623 13.1075C23.0578 13.1075 22.5033 11.6967 22.5033 10.3701C22.5033 8.60129 23.3455 7.45719 24.6441 7.45719C25.9426 7.45719 26.3076 8.48899 26.4058 8.81186C26.4479 8.94522 26.469 9.11368 26.469 9.3804V11.1001V11.1071Z" fill="#C6B75A"/>
<path d="M36.5062 8.48877H30.2242V11.177H36.5062V8.48877Z" fill="#C6B75A"/>
<path d="M46.81 12.7425C46.2064 13.0373 45.2237 13.2268 44.3113 13.2268C41.5037 13.2268 39.8963 11.5282 39.8963 8.57319C39.8963 5.61819 41.5739 3.78623 44.3885 3.78623C45.5958 3.78623 46.3959 4.08805 46.7679 4.27054L47.5119 4.62851L48.3261 1.87707L47.8138 1.61035C47.4277 1.4068 46.3117 0.936523 44.3323 0.936523C39.8261 0.936523 36.6816 4.10209 36.6816 8.62934C36.6816 13.1566 39.5384 16.0625 43.9603 16.0625C45.7432 16.0625 47.1048 15.6975 47.7927 15.3535L48.2981 15.1008L47.5821 12.3564L46.81 12.7284V12.7425Z" fill="#C6B75A"/>
<path d="M53.4009 4.69873C50.2002 4.69873 47.9612 7.07115 47.9612 10.4754C47.9612 13.8796 50.137 16.0976 53.2465 16.0976C55.8786 16.0976 58.7072 14.2867 58.7072 10.3209C58.7072 7.015 56.5243 4.69873 53.4009 4.69873ZM53.3588 7.40104C55.0714 7.40104 55.5206 9.3453 55.5206 10.3701C55.5206 12.1178 54.5941 13.3812 53.3166 13.3812C52.0392 13.3812 51.1127 12.1318 51.1127 10.4122C51.1127 9.02243 51.7023 7.40104 53.3517 7.40104H53.3588Z" fill="#C6B75A"/>
<path d="M64.9541 4.69873C63.8802 4.69873 63.0099 5.03564 62.3501 5.51995L62.315 4.91632H59.36L59.4161 5.67437C59.4723 6.39031 59.4934 7.14836 59.4934 8.20823V15.88H62.6379V9.42953C62.6379 9.16281 62.68 8.95926 62.7221 8.8259C62.9186 8.18717 63.5082 7.54844 64.3786 7.54844C64.7506 7.54844 65.8877 7.54844 65.8877 9.66818V15.88H69.0322V9.47164C69.0322 5.94811 66.8352 4.69873 64.9541 4.69873Z" fill="#C6B75A"/>
<path d="M75.9178 4.69843C74.8439 4.69843 73.9735 5.03534 73.3137 5.51965L73.2786 4.91601H70.3236L70.3798 5.66705C70.436 6.39 70.457 7.14805 70.457 8.2009V15.8727H73.6015V9.42221C73.6015 9.15548 73.6436 8.95193 73.6857 8.81857C73.8823 8.17984 74.4719 7.54112 75.3422 7.54112C75.7142 7.54112 76.8513 7.54112 76.8513 9.66085V15.8727H79.9958V9.46432C79.9958 5.94079 77.7989 4.69141 75.9178 4.69141V4.69843Z" fill="#C6B75A"/>
<path d="M85.9128 4.69843C82.8596 4.69843 80.7258 7.10594 80.7258 10.5523C80.7258 13.9986 82.8455 16.0762 86.1304 16.0762C87.8009 16.0762 88.938 15.7182 89.5978 15.4234L90.1242 15.1848L89.4995 12.5667L88.7345 12.8896C88.201 13.1142 87.5412 13.3248 86.362 13.3248C85.5268 13.3248 84.1791 13.058 83.8563 11.4086H90.426L90.5033 10.7067C90.5243 10.5242 90.5594 10.2434 90.5594 9.8995C90.5594 7.30949 89.1205 4.69141 85.9058 4.69141L85.9128 4.69843ZM85.7795 7.34458C86.2778 7.34458 86.6568 7.48497 86.9376 7.76572C87.2184 8.04648 87.3587 8.43253 87.4219 8.76242H83.9966C84.2283 8.12369 84.7266 7.34458 85.7795 7.34458Z" fill="#C6B75A"/>
<path d="M106.408 7.63948V4.91612H103.917V1.9541L100.814 2.78234V4.9091H99.3332V5.35831L99.1787 5.2811C98.6313 5.00736 97.6275 4.71256 96.4554 4.71256C93.0161 4.71256 90.6156 7.08498 90.6156 10.4892C90.6156 13.8934 92.8125 16.0693 96.0763 16.0693C97.445 16.0693 98.5611 15.7394 99.1436 15.4376L99.6209 15.1849L99.0173 12.5247L98.2382 12.8686C97.7609 13.0792 97.2274 13.2828 96.3852 13.2828C94.7989 13.2828 93.7671 12.1527 93.7671 10.412C93.7671 9.00117 94.469 7.4991 96.4413 7.4991C97.2976 7.4991 97.817 7.69564 98.1048 7.86409L98.8769 8.30629L99.3121 6.81826V7.63948H100.793V12.1527C100.793 13.5705 101.067 14.5111 101.635 15.1007C102.19 15.7324 103.025 16.0693 104.043 16.0693C104.752 16.0693 105.398 15.964 105.854 15.7815L106.317 15.592L106.156 12.9248L105.32 13.1494C105.166 13.1915 104.892 13.2406 104.499 13.2406C104.218 13.2406 103.895 13.2406 103.895 12.0825V7.63247H106.387L106.408 7.63948Z" fill="#C6B75A"/>
</g>
<defs>
<clipPath id="clip0_2223_3188">
<rect width="105.917" height="19.0566" fill="white" transform="translate(0.491709 0.943359)"/>
</clipPath>
</defs>
</svg>
