<svg width="190" height="22" viewBox="0 0 190 22" fill="none" xmlns="http://www.w3.org/2000/svg">
<path d="M11.0057 6.82266L11.0013 18.3546H14.3967V6.82266H21.0534V4.33984H4.33041V6.82266H11.0057Z" fill="#E40012"/>
<path d="M25.4374 13.3672H31.4865L28.4636 7.11667L25.4374 13.3672ZM26.5557 4.33984H30.3692L37.4724 18.3546H33.7885L32.5504 15.8392H24.3735L23.1342 18.3546H19.361L26.5557 4.33984Z" fill="#E40012"/>
<path d="M43.71 18.3764V4.33984H40.3049V18.3655L43.71 18.3764Z" fill="#E40012"/>
<path d="M53.3611 12.2892V18.3546H56.617V12.2892L64.1645 4.33984H59.9666L54.989 9.6866L50.0888 4.33984H45.9606L53.3611 12.2892Z" fill="#E40012"/>
<path d="M79.4661 9.58844C79.4661 7.57388 78.6385 6.74628 76.0032 6.74628H71.691C69.1613 6.74628 68.2183 7.68278 68.2183 9.58844V13.0622C68.2183 14.957 69.3454 15.9044 71.691 15.9044H76.0032C78.4098 15.9044 79.4661 14.9896 79.4661 13.0622V9.58844ZM82.8092 14.0205C82.8092 16.427 80.3917 18.3654 77.3971 18.3654H70.3875C67.3983 18.3654 64.9732 16.427 64.9732 14.0205V8.70639C64.9732 6.29981 67.1326 4.35059 70.3875 4.35059H77.3971C80.5986 4.35059 82.8092 6.29981 82.8092 8.70639V14.0205Z" fill="#E40012"/>
<path d="M97.902 12.2892V18.3546H101.158V12.2892L108.704 4.33984H104.512L99.5354 9.6866L94.6242 4.33984H90.508L97.902 12.2892Z" fill="#E40012"/>
<path d="M124.287 4.32861V13.0511C124.287 14.9676 123.231 15.8933 120.813 15.8933H117.47C115.129 15.8933 113.997 14.935 113.997 13.0511V4.32861H110.762V14.0094C110.762 16.4051 113.18 18.3543 116.174 18.3543H122.218C125.202 18.3543 127.63 16.4051 127.63 14.0094V4.32861H124.287Z" fill="#E40012"/>
<path d="M134.327 15.8936H141.416C143.834 15.8936 144.879 14.9789 144.879 13.0623V9.5777C144.879 7.55225 144.052 6.73555 141.416 6.73555H134.327V15.8936ZM130.941 4.33984H142.81C146.012 4.33984 148.222 6.28907 148.222 8.69565V14.0097C148.222 16.4163 145.805 18.3655 142.81 18.3655H130.941V4.33984Z" fill="#E40012"/>
<path d="M151.685 18.3655H166.778V15.8936H155.082V12.3436H165.417V9.88261H155.082V6.81177H166.625V4.33984H151.685V18.3655Z" fill="#E40012"/>
<path d="M181.38 18.3546H185.41V4.33984H182.175V14.6631L173.867 4.33984H169.62V18.3546H172.854V7.84627L181.38 18.3546Z" fill="#E40012"/>
</svg>
