<svg width="125" height="50" viewBox="0 0 125 50" fill="none" xmlns="http://www.w3.org/2000/svg">
<g clip-path="url(#clip0_69_381)">
<g clip-path="url(#clip1_69_381)">
<path d="M61.2932 44.2772C60.769 47.0101 58.8564 47.905 56.516 48.381C54.6253 48.767 52.772 49.3329 50.8944 49.7891C49.2033 50.2015 47.6263 49.9602 46.2708 48.8065C44.56 47.3501 43.9678 45.2664 44.6631 43.288C45.3299 41.3907 47.3675 39.8203 49.4117 39.7742C52.0043 39.715 54.6012 39.7259 57.196 39.7676C58.6458 39.7896 59.7885 40.5221 60.5672 41.7088C60.9883 42.3514 61.4533 42.4457 62.1354 42.3361C64.5109 41.9522 66.9192 41.7307 69.2683 41.2284C72.9729 40.4344 76.6665 39.5571 80.3119 38.5306C82.6939 37.8594 84.975 36.8461 87.1179 35.5673C88.7476 34.5957 90.2062 33.3937 90.9387 31.6193C91.7459 29.6628 91.1493 26.6403 88.4931 25.7476C87.664 25.4691 86.802 25.2739 85.9444 25.1115C84.2292 24.7825 82.5009 24.5215 80.7856 24.1903C80.3294 24.1026 79.8754 23.914 79.4608 23.6946C78.204 23.0278 77.9189 21.5934 78.9344 20.5888C79.4543 20.0734 80.1693 19.6084 80.8712 19.4527C82.4658 19.0951 84.0976 18.8604 85.7273 18.7332C87.2166 18.617 88.7234 18.7157 90.2215 18.7047C90.6119 18.7025 91.0023 18.6455 91.4761 18.6082C91.7569 16.6627 92.6671 14.9255 92.7219 12.8397C86.7121 12.7256 80.858 12.3966 75.1268 14.6909C76.2563 18.0226 75.8659 20.8718 72.6987 23.0432C73.1549 23.3108 73.473 23.506 73.7976 23.688C75.1926 24.4667 76.4033 25.4296 77.1534 26.8904C78.9761 30.4414 77.8136 35.8568 73.1856 37.3725C71.613 37.8879 69.8978 38.1511 68.2418 38.1862C63.5282 38.2915 58.8125 38.2235 54.0989 38.2125C53.6734 38.2125 53.2479 38.1467 52.6776 38.0985V28.5266C51.4691 28.1845 50.3746 27.8752 49.1661 27.5308C49.1661 28.3468 49.0915 29.0355 49.1792 29.7045C49.5038 32.1632 49.8833 34.6132 50.2408 37.0676C50.4053 38.1906 50.2189 38.4275 49.052 38.4319C45.5075 38.4428 41.9608 38.4384 38.4164 38.4319C37.6618 38.4319 36.9073 38.399 36.0563 38.3792C36.0168 37.9318 35.9313 37.6115 35.9708 37.3089C36.3327 34.6702 36.7209 32.036 37.096 29.3974C37.5127 26.4758 37.9229 23.5543 38.3374 20.6327C38.4361 19.9418 38.2628 19.3737 37.7781 18.8319C35.9773 16.8118 34.3279 14.6733 33.0404 12.2825C31.6783 9.74701 30.7067 7.12155 30.8317 4.14953C30.9436 1.51969 32.968 0.0896102 35.0254 -0.00689795C37.7145 -0.13192 40.114 0.583118 42.4609 1.79824C44.7047 2.96073 46.7841 4.34255 48.7142 5.96564C49.0739 6.26833 49.4424 6.56004 49.7627 6.82325C49.4161 7.63918 49.0498 7.51855 48.6506 7.21147C47.9268 6.65875 47.1942 6.11479 46.4792 5.5511C44.3319 3.85782 41.9499 2.6383 39.2915 1.96933C37.9382 1.62935 36.3371 2.3071 36.0695 3.51346C35.8786 4.37545 35.9225 5.34053 36.087 6.21788C36.3919 7.85194 37.2692 9.26227 38.1334 10.6616C40.1294 13.8947 42.6956 16.6386 45.6325 19.0008C47.9049 20.8279 50.3614 22.451 53.2479 23.1858C53.9651 23.3678 54.7833 23.3196 55.5268 23.2011C56.5116 23.0432 57.1565 22.1439 57.2047 21.0385C57.2947 18.9877 56.5577 17.1606 55.5224 15.4585C54.7284 14.1513 53.7809 12.9384 52.9343 11.6618C52.7347 11.3591 52.6623 10.9731 52.4627 10.4357C53.1273 10.3041 53.6076 10.1287 54.088 10.1265C57.9264 10.1023 61.7648 10.0475 65.601 10.1352C67.8996 10.1879 70.2114 10.4182 72.2293 11.7254C72.929 12.1795 73.587 12.6927 74.2319 13.1555C78.9432 11.346 83.7884 10.9292 88.7015 11.0323C90.7304 11.074 92.7834 10.8218 94.7618 11.3306C94.9745 12.344 93.6673 18.084 92.7197 20.3673C92.3491 20.4002 91.9236 20.4813 91.5002 20.4682C90.0416 20.4221 88.5809 20.2532 87.1267 20.3015C85.2711 20.3629 83.4155 20.5559 81.5709 20.7753C81.1124 20.8301 80.6913 21.1964 80.0245 21.5364C80.4676 21.9421 80.6935 22.2799 81.005 22.4071C81.5402 22.6243 82.1236 22.7449 82.6961 22.8458C84.5626 23.177 86.4445 23.4402 88.3045 23.8065C91.9411 24.5215 93.551 27.6251 93.0509 31.0117C92.8404 32.4352 92.1407 33.5407 91.1778 34.5145C89.2718 36.4381 86.9863 37.7673 84.4639 38.7192C83.1369 39.2215 81.8604 39.8861 80.5005 40.2677C77.9408 40.9871 75.3395 41.5596 72.7513 42.1803C71.6897 42.4348 70.6282 42.698 69.5534 42.8756C67.2175 43.2639 64.8706 43.5972 62.5324 43.9657C62.1442 44.0271 61.7648 44.1587 61.302 44.2772H61.2932ZM52.954 41.3183C52.954 41.3183 52.954 41.3249 52.954 41.3271C51.7871 41.3271 50.6181 41.292 49.4512 41.3359C47.6197 41.4017 45.8431 43.3033 46.1151 44.9813C46.5362 47.5979 48.8173 48.8306 51.0085 48.1331C51.9078 47.8458 52.8356 47.6484 53.7546 47.4247C55.0223 47.1154 56.3186 46.8961 57.5579 46.4969C58.5559 46.1766 59.2994 45.5493 59.4595 44.343C59.6087 43.2178 59.1108 42.472 58.2707 41.972C57.6741 41.6166 56.9328 41.4083 56.2375 41.3425C55.1518 41.2416 54.0507 41.3161 52.9562 41.3161L52.954 41.3183ZM69.8934 28.0156C69.9329 25.9867 68.222 24.2342 66.169 24.2013C64.0568 24.1662 62.3131 25.8485 62.2692 27.9651C62.2298 29.9457 63.9844 31.7531 66.0067 31.8123C68.0795 31.8737 69.8517 30.1409 69.8934 28.0156ZM67.972 17.5137C68.176 15.8665 66.5595 13.7433 64.2498 13.7082C62.2824 13.6775 60.2777 15.6011 60.372 17.5817C60.4619 19.4943 61.8657 21.3477 64.3113 21.328C66.4476 21.3104 67.9851 19.6983 67.9742 17.5159L67.972 17.5137Z" fill="white"/>
<path d="M49.3042 13.6732C48.4554 13.1884 47.1152 11.6706 46.4857 10.484C49.5608 8.13712 52.7676 5.92401 55.9019 3.55298C56.5051 4.2395 56.0773 4.68256 55.7856 5.09272C55.0245 6.16089 54.2261 7.20055 53.4431 8.25336C52.4013 9.65712 51.3682 11.0653 50.3176 12.4646C50.0149 12.8682 49.6683 13.2411 49.302 13.6732H49.3042Z" fill="white"/>
<path d="M64.9451 29.2943C64.0261 29.3053 63.2014 28.5727 63.1685 27.7151C63.1334 26.84 64.0919 25.8661 64.9912 25.8639C65.9958 25.8595 66.8446 26.6842 66.8249 27.6471C66.8073 28.4565 65.8642 29.2834 64.9473 29.2943H64.9451Z" fill="white"/>
<path d="M64.9166 16.9325C64.932 17.8449 64.002 18.821 63.1159 18.8166C62.3306 18.8122 61.4248 17.9239 61.3809 17.1145C61.3327 16.2481 62.2648 15.2414 63.151 15.2019C64.0437 15.1624 64.8991 16.0025 64.9166 16.9347V16.9325Z" fill="white"/>
</g>
</g>
<defs>
<clipPath id="clip0_69_381">
<rect width="125" height="50" fill="white"/>
</clipPath>
<clipPath id="clip1_69_381">
<rect width="63.9586" height="50" fill="white" transform="translate(30.8207 -0.0200195)"/>
</clipPath>
</defs>
</svg>
