<svg width="72" height="16" viewBox="0 0 72 16" fill="none" xmlns="http://www.w3.org/2000/svg">
<path d="M62.6522 7.961C62.7669 7.9911 62.896 8.0785 62.9963 8.1531L71.9999 15.7861H66.2651L57.749 7.961L65.5196 0.693604H70.9533L62.9963 7.7674C62.896 7.8635 62.7669 7.928 62.6522 7.961Z" fill="white"/>
<path d="M34.8672 0.693604C34.8672 0.693604 42.2651 0.697903 44.6306 0.697903C49.5482 0.697903 52.7023 3.9538 52.7023 8.2377C52.7023 13.0162 48.8314 15.7889 44.731 15.7889C42.2794 15.7889 34.8672 15.7889 34.8672 15.7889V0.693604ZM38.7238 12.6119C38.7238 12.6119 41.5195 12.6148 44.5016 12.6119C47.6987 12.6047 48.9317 10.7208 48.9317 8.2377C48.9317 5.9753 47.9568 3.8019 44.2579 3.799C40.7453 3.7961 38.7238 3.799 38.7238 3.799V12.6119Z" fill="white"/>
<path d="M17.4337 10.2622L11.914 7.07235V0.693848L17.4337 10.2622ZM0 10.2622L5.534 7.07235V0.693848L0 10.2622ZM8.7169 12.5977L3.1971 15.7891H14.2509L8.7169 12.5977ZM11.914 0.693848H5.534L8.7169 3.88375L11.914 0.693848ZM11.914 7.07235L8.7169 12.5977L13.0753 11.4292L11.914 7.07235ZM5.534 7.07235H11.914L8.7169 3.88375L5.534 7.07235ZM13.0753 11.4292L14.2509 15.7891L17.4337 10.2622L13.0753 11.4292ZM5.534 7.07235L8.7169 12.5977L4.3584 11.4292L5.534 7.07235ZM4.3584 11.4292L3.1971 15.7891L0 10.2622L4.3584 11.4292Z" fill="white"/>
<path d="M33.9643 0.693604H16.2295V3.8994H23.0826V15.7889H27.1256V3.8994H33.9643V0.693604Z" fill="white"/>
<path d="M57.6343 15.7889V0.693604H53.5913V15.7889H57.6343Z" fill="white"/>
</svg>
