<svg width="95" height="49" viewBox="0 0 95 49" fill="none" xmlns="http://www.w3.org/2000/svg">
<g clip-path="url(#clip0_2216_4528)">
<path d="M94.2791 0.63623H0.727272V49.7444H94.2791V0.63623Z" fill="#E98300"/>
<path d="M40.64 18.5627H21.8355C21.1038 18.5627 20.4021 18.272 19.8848 17.7547C19.3675 17.2374 19.0768 16.5357 19.0768 15.804C19.0768 15.0724 19.3675 14.3707 19.8848 13.8534C20.4021 13.3361 21.1038 13.0454 21.8355 13.0454H40.64C41.3716 13.0454 42.0733 13.3361 42.5906 13.8534C43.108 14.3707 43.3986 15.0724 43.3986 15.804C43.3986 16.5357 43.108 17.2374 42.5906 17.7547C42.0733 18.272 41.3716 18.5627 40.64 18.5627ZM39.7109 29.6163C39.7109 29.2536 39.6395 28.8945 39.5007 28.5594C39.3619 28.2243 39.1584 27.9199 38.902 27.6634C38.6455 27.407 38.3411 27.2035 38.006 27.0647C37.6709 26.9259 37.3118 26.8545 36.9491 26.8545H18.1445C17.4129 26.8545 16.7112 27.1451 16.1939 27.6625C15.6766 28.1798 15.3859 28.8815 15.3859 29.6131C15.3859 30.3448 15.6766 31.0464 16.1939 31.5638C16.7112 32.0811 17.4129 32.3718 18.1445 32.3718H36.9491C37.6805 32.3718 38.382 32.0817 38.8997 31.5651C39.4175 31.0485 39.7092 30.3477 39.7109 29.6163ZM9.84636 22.6863C9.84553 23.0495 9.91635 23.4094 10.0548 23.7452C10.1932 24.081 10.3965 24.3862 10.653 24.6433C10.9096 24.9005 11.2143 25.1045 11.5498 25.2437C11.8853 25.3829 12.245 25.4545 12.6082 25.4545H31.4127C32.1444 25.4545 32.846 25.1639 33.3634 24.6465C33.8807 24.1292 34.1714 23.4275 34.1714 22.6959C34.1714 21.9642 33.8807 21.2626 33.3634 20.7452C32.846 20.2279 32.1444 19.9372 31.4127 19.9372H12.6082C12.2463 19.9364 11.8879 20.0068 11.5532 20.1445C11.2186 20.2822 10.9144 20.4845 10.6579 20.7398C10.4015 20.9951 10.1978 21.2983 10.0585 21.6323C9.9193 21.9663 9.8472 22.3245 9.84636 22.6863ZM48.7918 13.1981L47.6209 17.5254H53.4373L49.4791 32.2063H54.4873L58.42 17.5254H64.2364L65.3818 13.1981H48.7982H48.7918ZM66.8327 13.1981L61.7418 32.2063H77.0145L78.1282 28H67.7682L68.7036 24.5445H77.9564L79.0064 20.7072H69.7345L70.6445 17.3918H80.9727L82.1118 13.2045H66.8391L66.8327 13.1981ZM44.7509 39.289C44.9577 39.2893 45.1624 39.2476 45.3527 39.1667C45.5429 39.0858 45.7149 38.9672 45.8582 38.8181L45.4382 38.2836C45.2691 38.4549 45.0422 38.557 44.8018 38.57C44.7212 38.5706 44.6413 38.554 44.5676 38.5212C44.4939 38.4885 44.428 38.4404 44.3744 38.3801C44.3208 38.3199 44.2806 38.2489 44.2567 38.1719C44.2327 38.0949 44.2255 38.0136 44.2355 37.9336C44.222 37.6911 44.3003 37.4524 44.4547 37.2649C44.6092 37.0775 44.8285 36.955 45.0691 36.9218C45.2006 36.9178 45.3304 36.9517 45.4432 37.0194C45.556 37.0871 45.647 37.1857 45.7055 37.3036L46.3418 36.8581C46.2231 36.6512 46.0485 36.4818 45.8381 36.3693C45.6277 36.2567 45.3899 36.2056 45.1518 36.2218C44.9195 36.214 44.688 36.2534 44.4713 36.3374C44.2545 36.4214 44.057 36.5483 43.8906 36.7106C43.7242 36.8729 43.5922 37.0671 43.5028 37.2816C43.4133 37.4962 43.3682 37.7266 43.37 37.959C43.3638 38.1395 43.3961 38.3191 43.4647 38.4861C43.5333 38.6531 43.6366 38.8035 43.7679 38.9275C43.8991 39.0515 44.0551 39.1461 44.2257 39.2052C44.3963 39.2642 44.5775 39.2863 44.7573 39.27L44.7509 39.289ZM47.7482 39.289C48.1907 39.2793 48.6124 39.0992 48.9254 38.7862C49.2383 38.4732 49.4184 38.0516 49.4282 37.609C49.4382 37.426 49.4086 37.2429 49.3412 37.0723C49.2739 36.9017 49.1706 36.7477 49.0382 36.6208C48.9059 36.4939 48.7477 36.3971 48.5745 36.337C48.4012 36.2769 48.217 36.255 48.0345 36.2727C47.592 36.2824 47.1703 36.4625 46.8574 36.7755C46.5444 37.0885 46.3643 37.5102 46.3545 37.9527C46.3472 38.1348 46.3791 38.3164 46.4481 38.4851C46.517 38.6538 46.6214 38.8057 46.7541 38.9306C46.8868 39.0555 47.0449 39.1505 47.2175 39.209C47.3901 39.2675 47.5732 39.2883 47.7545 39.27L47.7482 39.289ZM47.7864 38.5827C47.7013 38.5883 47.6161 38.5757 47.5363 38.5457C47.4566 38.5157 47.3842 38.469 47.3239 38.4088C47.2636 38.3485 47.217 38.2761 47.187 38.1963C47.157 38.1166 47.1444 38.0313 47.15 37.9463C47.1467 37.7124 47.23 37.4855 47.3839 37.3093C47.5378 37.1331 47.7514 37.02 47.9836 36.9918C48.0687 36.9861 48.1539 36.9988 48.2337 37.0287C48.3134 37.0587 48.3858 37.1054 48.4461 37.1657C48.5064 37.2259 48.553 37.2984 48.583 37.3781C48.613 37.4579 48.6256 37.5431 48.62 37.6281C48.6203 37.8589 48.5365 38.0819 48.3842 38.2553C48.2319 38.4286 48.0216 38.5405 47.7927 38.57L47.7864 38.5827ZM49.5427 39.219H50.37L50.8091 37.5454C50.8234 37.3868 50.8968 37.2392 51.0146 37.132C51.1324 37.0248 51.2862 36.9657 51.4455 36.9663C51.4962 36.9577 51.5483 36.9605 51.5978 36.9747C51.6473 36.9889 51.693 37.014 51.7315 37.0482C51.77 37.0824 51.8003 37.1249 51.8202 37.1724C51.84 37.2199 51.849 37.2713 51.8464 37.3227C51.8436 37.4108 51.8307 37.4983 51.8082 37.5836L51.3818 39.1809H52.2091L52.6291 37.6218C52.6827 37.4417 52.7148 37.2558 52.7245 37.0681C52.726 36.9572 52.704 36.8473 52.66 36.7454C52.6161 36.6436 52.5512 36.5521 52.4695 36.4771C52.3878 36.402 52.2913 36.345 52.1861 36.3098C52.0809 36.2746 51.9695 36.2619 51.8591 36.2727C51.5609 36.2894 51.2797 36.4164 51.07 36.629L51.1464 36.2727H50.3191L49.5427 39.219ZM52.9027 39.219H53.7236L54.1882 37.5454C54.2025 37.3868 54.2758 37.2392 54.3937 37.132C54.5115 37.0248 54.6652 36.9657 54.8245 36.9663C54.8753 36.9577 54.9274 36.9605 54.9769 36.9747C55.0264 36.9889 55.0721 37.014 55.1106 37.0482C55.1491 37.0824 55.1794 37.1249 55.1993 37.1724C55.2191 37.2199 55.2281 37.2713 55.2255 37.3227C55.223 37.4108 55.2102 37.4984 55.1873 37.5836L54.7609 39.1809H55.5818L56.0018 37.6218C56.0535 37.4499 56.0855 37.2727 56.0973 37.0936C56.1028 36.9788 56.0831 36.8642 56.0397 36.7577C55.9963 36.6513 55.9301 36.5557 55.8459 36.4775C55.7616 36.3993 55.6613 36.3405 55.5519 36.3051C55.4426 36.2697 55.3268 36.2586 55.2127 36.2727C54.9123 36.2878 54.6285 36.415 54.4173 36.629L54.5064 36.2727H53.6791L52.9027 39.219ZM57.2173 38.0545H59.2091C59.2964 37.8531 59.346 37.6374 59.3555 37.4181C59.3632 37.2624 59.3376 37.1067 59.2804 36.9616C59.2231 36.8166 59.1355 36.6854 59.0234 36.5769C58.9114 36.4685 58.7774 36.3852 58.6305 36.3327C58.4836 36.2803 58.3273 36.2598 58.1718 36.2727C57.7138 36.2777 57.2761 36.4627 56.9534 36.7878C56.6307 37.1129 56.4489 37.5519 56.4473 38.01C56.438 38.1856 56.4669 38.3612 56.5321 38.5246C56.5973 38.6879 56.6972 38.8352 56.8249 38.9562C56.9525 39.0772 57.105 39.1691 57.2716 39.2255C57.4382 39.2818 57.6151 39.3013 57.79 39.2827C58.1949 39.2922 58.5898 39.1568 58.9036 38.9009L58.5282 38.3918C58.3462 38.5346 58.1231 38.6149 57.8918 38.6209C57.8087 38.6338 57.7237 38.6285 57.6428 38.6052C57.5619 38.582 57.487 38.5414 57.4234 38.4863C57.3598 38.4312 57.309 38.3628 57.2745 38.2861C57.24 38.2093 57.2226 38.1259 57.2236 38.0418L57.2173 38.0545ZM57.2936 37.5454C57.3447 37.3668 57.451 37.209 57.5974 37.0947C57.7437 36.9804 57.9226 36.9154 58.1082 36.909C58.1687 36.8996 58.2305 36.9036 58.2892 36.921C58.348 36.9383 58.4021 36.9684 58.4478 37.0092C58.4934 37.05 58.5295 37.1004 58.5533 37.1568C58.5771 37.2132 58.5881 37.2742 58.5855 37.3354C58.5951 37.3987 58.5951 37.463 58.5855 37.5263H57.3127L57.2936 37.5454ZM61.1118 39.289C61.3165 39.2875 61.5187 39.2451 61.7067 39.1642C61.8947 39.0834 62.0646 38.9657 62.2064 38.8181L61.7864 38.2836C61.6176 38.4554 61.3905 38.5576 61.15 38.57C61.0694 38.5706 60.9895 38.554 60.9158 38.5212C60.8421 38.4885 60.7762 38.4404 60.7226 38.3801C60.669 38.3199 60.6288 38.2489 60.6049 38.1719C60.5809 38.0949 60.5737 38.0136 60.5836 37.9336C60.5702 37.6911 60.6484 37.4524 60.8029 37.2649C60.9573 37.0775 61.1767 36.955 61.4173 36.9218C61.5486 36.9186 61.6782 36.9528 61.7908 37.0204C61.9035 37.088 61.9946 37.1862 62.0536 37.3036L62.69 36.8581C62.5712 36.6512 62.3967 36.4818 62.1863 36.3693C61.9759 36.2567 61.7381 36.2056 61.5 36.2218C61.047 36.2251 60.6136 36.4065 60.2932 36.7268C59.9729 37.0471 59.7915 37.4806 59.7882 37.9336C59.7793 38.1093 59.8069 38.2849 59.8693 38.4493C59.9317 38.6138 60.0275 38.7635 60.1507 38.8891C60.2739 39.0147 60.4218 39.1134 60.585 39.1789C60.7482 39.2445 60.9233 39.2755 61.0991 39.27L61.1118 39.289ZM63.6064 39.289C63.8121 39.2916 64.016 39.2504 64.2045 39.1681L64.3955 38.4681C64.2631 38.5273 64.1204 38.5597 63.9755 38.5636C63.9447 38.5766 63.911 38.5808 63.878 38.5756C63.845 38.5704 63.8142 38.556 63.7889 38.5341C63.7637 38.5122 63.7452 38.4837 63.7354 38.4518C63.7256 38.4199 63.725 38.3858 63.7336 38.3536C63.7294 38.3113 63.7294 38.2686 63.7336 38.2263L64.0582 37.0045H64.7391L64.93 36.2981H64.2682L64.4655 35.5536H63.6445L63.4473 36.2727H63.0973L62.9064 36.979H63.2564L62.9064 38.3218C62.8739 38.44 62.8568 38.5619 62.8555 38.6845C62.863 38.7719 62.8886 38.8568 62.9306 38.9339C62.9726 39.0109 63.03 39.0785 63.0993 39.1322C63.1687 39.186 63.2484 39.2249 63.3334 39.2464C63.4185 39.2679 63.5071 39.2716 63.5936 39.2572L63.6064 39.289ZM64.8345 39.2381H65.6427L66.4255 36.2727H65.5982L64.8345 39.2381ZM65.6427 35.98H66.5082L66.7118 35.2481H65.8464L65.6427 35.98ZM67.2336 39.2254H67.9782L69.8873 36.2981H69.0027L67.8509 38.2072L67.7173 36.2981H66.9155L67.2336 39.2254ZM69.6455 39.2254H70.4727L71.2682 36.2727H70.4473L69.6455 39.2254ZM70.4918 35.999H71.37L71.5673 35.2672H70.7336L70.4918 35.999ZM72.3055 39.2763C72.5112 39.2791 72.7151 39.2379 72.9036 39.1554L73.0945 38.4554C72.9601 38.5151 72.8152 38.5475 72.6682 38.5509C72.6419 38.5576 72.6144 38.5583 72.5879 38.5529C72.5613 38.5474 72.5363 38.536 72.5148 38.5194C72.4933 38.5028 72.4759 38.4816 72.4639 38.4573C72.4519 38.4329 72.4456 38.4062 72.4455 38.379C72.4412 38.3367 72.4412 38.2941 72.4455 38.2518L72.77 37.03H73.4509L73.6418 36.3236H72.9609L73.1582 35.579H72.3373L72.1845 36.2727H71.8345L71.6436 36.979H72.0064L71.6564 38.2963C71.6221 38.4143 71.6029 38.5362 71.5991 38.659C71.6035 38.7474 71.6263 38.8339 71.666 38.913C71.7058 38.992 71.7616 39.0619 71.8298 39.1182C71.8981 39.1745 71.9773 39.216 72.0625 39.2399C72.1477 39.2638 72.237 39.2697 72.3245 39.2572L72.3055 39.2763ZM73.9982 40.0909C74.2533 40.0816 74.5005 40.0001 74.7111 39.8559C74.9218 39.7118 75.0872 39.5108 75.1882 39.2763L76.9955 36.2727H76.1045L75.0164 38.2454L74.8827 36.2727H74.0427L74.3991 39.2C74.3676 39.256 74.3212 39.3023 74.265 39.3338C74.2089 39.3652 74.1452 39.3805 74.0809 39.3781C73.9657 39.3729 73.8548 39.3329 73.7627 39.2636L73.3236 39.8618C73.5171 40.0104 73.7542 40.0909 73.9982 40.0909Z" fill="white"/>
</g>
<defs>
<clipPath id="clip0_2216_4528">
<rect width="93.5455" height="49" fill="white" transform="translate(0.727272)"/>
</clipPath>
</defs>
</svg>
