<svg width="72" height="18" viewBox="0 0 72 18" fill="none" xmlns="http://www.w3.org/2000/svg">
<path d="M23.4008 9.33992H16.1913C16.1779 10.5529 16.7079 11.301 17.8521 11.6282C19.3598 12.0606 20.8158 11.8597 22.2068 11.1518C22.5111 10.9968 22.8134 10.8399 23.2726 10.6046C23.2726 11.4503 23.3089 12.1697 23.2496 12.8796C23.2324 13.0862 22.9798 13.3732 22.7713 13.4497C20.5824 14.2457 18.3534 14.4083 16.1262 13.6449C13.8187 12.8528 12.7109 10.9337 12.8965 8.18802C13.061 5.72742 14.5841 3.90022 16.8686 3.41612C16.9317 3.40272 16.9949 3.40272 17.058 3.39122C21.4434 2.57622 23.8179 4.75162 23.3989 9.34182L23.4008 9.33992ZM20.2552 7.38252C20.2036 5.87482 19.6238 5.29892 18.2175 5.32182C16.8629 5.34292 16.1721 6.03362 16.176 7.38252H20.2552Z" fill="white"/>
<path d="M35.6137 9.33016H28.4138C28.3889 10.5318 28.9208 11.2914 30.0458 11.6224C31.5517 12.0644 33.0077 11.8654 34.4025 11.167C34.7087 11.0139 35.0129 10.8513 35.4893 10.6045C35.4893 11.477 35.5276 12.2213 35.4625 12.9579C35.4453 13.1511 35.143 13.4037 34.9192 13.4821C32.8546 14.2111 30.7519 14.3699 28.6319 13.7405C26.1503 13.0038 24.9563 11.1 25.1209 8.19936C25.2606 5.72346 26.8333 3.85986 29.1695 3.40066C29.2327 3.38916 29.2958 3.38726 29.359 3.37576C33.6889 2.59896 36.0519 4.79166 35.6137 9.32826V9.33016ZM28.3353 7.38046H32.4682C32.4337 5.98366 31.9037 5.37336 30.7193 5.32166C29.2308 5.25666 28.5305 5.83636 28.3353 7.38046Z" fill="white"/>
<path d="M41.2121 13.6945H38.0742V3.67243H41.1508C41.1891 3.92693 41.2274 4.19283 41.2656 4.44163C42.0979 4.06853 42.8709 3.59783 43.709 3.37393C45.9821 2.76553 47.8399 3.97853 47.9796 6.29943C48.1269 8.73703 48.0121 11.19 48.0121 13.6907H44.8838C44.8838 13.2372 44.8895 12.7761 44.8838 12.3131C44.8608 10.6236 44.8551 8.93603 44.7958 7.24853C44.7728 6.59793 44.4514 5.94553 43.7549 5.96843C42.936 5.99523 42.1171 6.27653 41.325 6.52523C41.214 6.55963 41.2178 7.04953 41.2178 7.32883C41.2102 9.42583 41.214 11.5248 41.214 13.6965L41.2121 13.6945Z" fill="white"/>
<path d="M66.6083 9.90224C67.3487 7.81664 68.0892 5.73304 68.8354 3.63404H72.0001C71.9465 3.85414 71.9217 4.06074 71.8451 4.24824C70.1843 8.34854 68.5044 12.4431 66.8647 16.5511C66.6159 17.1729 66.3136 17.4542 65.6191 17.3948C64.8308 17.3279 64.0329 17.3795 63.0781 17.3795C63.4876 16.3903 63.8186 15.4777 64.2434 14.609C64.5591 13.9623 64.582 13.4036 64.3046 12.7167C63.2274 10.0629 62.219 7.38044 61.1877 4.70744C61.0634 4.38604 60.9601 4.05694 60.8032 3.60344C61.8364 3.60344 62.7797 3.55754 63.7134 3.63594C63.9392 3.65514 64.2166 4.05114 64.3237 4.33054C65.0259 6.17114 65.688 8.02904 66.3615 9.88114C66.4437 9.88884 66.526 9.89454 66.6083 9.90224Z" fill="white"/>
<path d="M7.45864 3.00469V13.6965H4.10074V3.07359H-0.00146484V0.402588H11.5742V3.00469H7.45674H7.45864Z" fill="white"/>
<path d="M59.3243 6.17882C57.9275 5.87652 56.6532 5.56842 55.3617 5.34462C55.0154 5.28332 54.5868 5.40962 54.2653 5.57992C54.0262 5.70622 53.7354 6.06402 53.7621 6.28212C53.7966 6.55382 54.0912 6.93072 54.3515 7.01112C55.1991 7.27132 56.083 7.41482 56.9536 7.60622C58.733 7.99842 59.6476 8.86902 59.7701 10.2791C59.9002 11.7849 59.0085 13.0841 57.3554 13.6657C55.222 14.4177 53.0848 14.2053 50.982 13.5127C50.7563 13.4381 50.4884 13.1051 50.4654 12.8679C50.3966 12.181 50.4406 11.4845 50.4406 10.7842C51.4776 11.1784 52.4209 11.6414 53.4177 11.8825C54.1372 12.0566 54.9427 12.0241 55.6812 11.9035C56.0046 11.85 56.2533 11.3487 56.5365 11.0521C56.2571 10.7957 56.018 10.4111 55.6908 10.3116C54.8432 10.0514 53.9458 9.95582 53.0867 9.72422C51.3896 9.26692 50.5286 8.29112 50.4693 6.84462C50.4138 5.47282 51.2748 4.29412 52.8284 3.70672C54.8279 2.94912 56.8369 3.12892 58.8172 3.79092C59.0353 3.86362 59.2764 4.21192 59.3032 4.45302C59.3721 5.07862 59.3262 5.71772 59.3262 6.18072L59.3243 6.17882Z" fill="white"/>
</svg>
