<svg width="89" height="35" viewBox="0 0 89 35" fill="none" xmlns="http://www.w3.org/2000/svg">
<mask id="mask0_12_4371" style="mask-type:luminance" maskUnits="userSpaceOnUse" x="0" y="0" width="35" height="35">
<path d="M34.8672 0.276611H0.270996V34.8728H34.8672V0.276611Z" fill="white"/>
</mask>
<g mask="url(#mask0_12_4371)">
<path d="M18.7952 42.2965L16.2051 -7.13955L16.3446 -7.14722L18.9362 42.2889L18.7952 42.2965Z" fill="#0A2D72" stroke="#0A2D72" stroke-width="0.153257" stroke-miterlimit="10"/>
<path d="M13.7682 -6.88354L13.6289 -6.86149L21.3715 42.0346L21.5108 42.0126L13.7682 -6.88354Z" fill="#0A2D72" stroke="#0A2D72" stroke-width="0.153257" stroke-miterlimit="10"/>
<path d="M23.9075 41.5011L11.0952 -6.31656L11.2316 -6.35181L24.0439 41.4659L23.9075 41.5011Z" fill="#0A2D72" stroke="#0A2D72" stroke-width="0.153257" stroke-miterlimit="10"/>
<path d="M42.2853 16.1987L-7.15039 18.8076L-7.14296 18.9484L42.2928 16.3395L42.2853 16.1987Z" fill="#0A2D72" stroke="#0A2D72" stroke-width="0.153257" stroke-miterlimit="10"/>
<path d="M42.0074 13.6372L-6.88867 21.3699L-6.86667 21.5092L42.0294 13.7765L42.0074 13.6372Z" fill="#0A2D72" stroke="#0A2D72" stroke-width="0.153257" stroke-miterlimit="10"/>
<path d="M-6.32072 24.0482L-6.35742 23.9134L41.4602 11.0996L41.497 11.236L-6.32072 24.0482Z" fill="#0A2D72" stroke="#0A2D72" stroke-width="0.153257" stroke-miterlimit="10"/>
<path d="M41.4602 24.0482L-6.35742 11.236L-6.32072 11.0996L41.497 23.9134L41.4602 24.0482Z" fill="#0A2D72" stroke="#0A2D72" stroke-width="0.153257" stroke-miterlimit="10"/>
<path d="M-6.86755 13.6321L-6.88965 13.7714L42.0065 21.514L42.0285 21.3747L-6.86755 13.6321Z" fill="#0A2D72" stroke="#0A2D72" stroke-width="0.153257" stroke-miterlimit="10"/>
<path d="M-7.14545 16.209L-7.15283 16.3498L42.2829 18.9389L42.2902 18.7981L-7.14545 16.209Z" fill="#0A2D72" stroke="#0A2D72" stroke-width="0.153257" stroke-miterlimit="10"/>
<path d="M8.76588 -5.56006L8.63428 -5.50952L26.3769 40.7083L26.5085 40.6578L8.76588 -5.56006Z" fill="#0A2D72" stroke="#0A2D72" stroke-width="0.153257" stroke-miterlimit="10"/>
<path d="M40.6549 8.6377L-5.56299 26.3803L-5.51249 26.512L40.7054 8.7694L40.6549 8.6377Z" fill="#0A2D72" stroke="#0A2D72" stroke-width="0.153257" stroke-miterlimit="10"/>
<path d="M6.39572 -4.51245L6.27002 -4.44844L28.7446 39.6591L28.8703 39.5951L6.39572 -4.51245Z" fill="#0A2D72" stroke="#0A2D72" stroke-width="0.153257" stroke-miterlimit="10"/>
<path d="M39.6018 6.28589L-4.52197 28.7364L-4.45807 28.8621L39.6657 6.41159L39.6018 6.28589Z" fill="#0A2D72" stroke="#0A2D72" stroke-width="0.153257" stroke-miterlimit="10"/>
<path d="M4.14906 -3.22241L4.03076 -3.14562L30.9913 38.3742L31.1095 38.2974L4.14906 -3.22241Z" fill="#0A2D72" stroke="#0A2D72" stroke-width="0.153257" stroke-miterlimit="10"/>
<path d="M38.2969 4.04272L-3.23291 30.9883L-3.15611 31.1066L38.3736 4.16103L38.2969 4.04272Z" fill="#0A2D72" stroke="#0A2D72" stroke-width="0.153257" stroke-miterlimit="10"/>
<path d="M2.047 -1.70581L1.9375 -1.61708L33.09 36.8521L33.1996 36.7633L2.047 -1.70581Z" fill="#0A2D72" stroke="#0A2D72" stroke-width="0.153257" stroke-miterlimit="10"/>
<path d="M36.7684 1.94897L-1.7168 33.0876L-1.6281 33.1973L36.8571 2.05857L36.7684 1.94897Z" fill="#0A2D72" stroke="#0A2D72" stroke-width="0.153257" stroke-miterlimit="10"/>
<path d="M0.117277 0.0219727L0.0175781 0.121673L35.0226 35.1267L35.1223 35.027L0.117277 0.0219727Z" fill="#0A2D72" stroke="#0A2D72" stroke-width="0.153257" stroke-miterlimit="10"/>
<path d="M35.0226 0.0219727L0.0175781 35.0269L0.117277 35.1266L35.1223 0.121673L35.0226 0.0219727Z" fill="#0A2D72" stroke="#0A2D72" stroke-width="0.153257" stroke-miterlimit="10"/>
<path d="M-1.62165 1.94336L-1.71045 2.05293L36.76 33.2064L36.8487 33.0968L-1.62165 1.94336Z" fill="#0A2D72" stroke="#0A2D72" stroke-width="0.153257" stroke-miterlimit="10"/>
<path d="M-3.15133 4.0332L-3.22803 4.1515L38.2918 31.1119L38.3686 30.9936L-3.15133 4.0332Z" fill="#0A2D72" stroke="#0A2D72" stroke-width="0.153257" stroke-miterlimit="10"/>
<path d="M-4.45211 6.27393L-4.51611 6.39963L39.5928 28.8748L39.6569 28.7492L-4.45211 6.27393Z" fill="#0A2D72" stroke="#0A2D72" stroke-width="0.153257" stroke-miterlimit="10"/>
<path d="M-5.51249 8.63745L-5.56299 8.76905L40.6548 26.5117L40.7054 26.38L-5.51249 8.63745Z" fill="#0A2D72" stroke="#0A2D72" stroke-width="0.153257" stroke-miterlimit="10"/>
<path d="M33.084 -1.71045L1.94629 36.7735L2.05589 36.8622L33.1936 -1.62176L33.084 -1.71045Z" fill="#0A2D72" stroke="#0A2D72" stroke-width="0.153257" stroke-miterlimit="10"/>
<path d="M30.9711 -3.23682L4.05029 38.3077L4.16859 38.3844L31.0894 -3.16015L30.9711 -3.23682Z" fill="#0A2D72" stroke="#0A2D72" stroke-width="0.153257" stroke-miterlimit="10"/>
<path d="M28.7335 -4.51782L6.28369 39.6047L6.40929 39.6686L28.8592 -4.45388L28.7335 -4.51782Z" fill="#0A2D72" stroke="#0A2D72" stroke-width="0.153257" stroke-miterlimit="10"/>
<path d="M26.3935 -5.55005L8.61133 40.648L8.74293 40.6987L26.5251 -5.4994L26.3935 -5.55005Z" fill="#0A2D72" stroke="#0A2D72" stroke-width="0.153257" stroke-miterlimit="10"/>
<path d="M11.2316 41.5011L11.0952 41.4659L23.9075 -6.35181L24.0439 -6.31656L11.2316 41.5011Z" fill="#0A2D72" stroke="#0A2D72" stroke-width="0.153257" stroke-miterlimit="10"/>
<path d="M21.367 -6.88354L13.6343 42.0126L13.7736 42.0346L21.5063 -6.86151L21.367 -6.88354Z" fill="#0A2D72" stroke="#0A2D72" stroke-width="0.153257" stroke-miterlimit="10"/>
<path d="M16.3446 42.2965L16.2051 42.2889L18.7952 -7.14722L18.9362 -7.13955L16.3446 42.2965Z" fill="#0A2D72" stroke="#0A2D72" stroke-width="0.153257" stroke-miterlimit="10"/>
</g>
<path d="M18.6742 15.8965V17.426L18.6665 15.9639C18.6742 15.9379 18.6742 15.9164 18.6742 15.8965Z" fill="url(#paint0_linear_12_4371)"/>
<path d="M18.6819 18.8882C18.6819 18.8008 18.6789 18.7119 18.6743 18.6277V17.4246L18.6819 18.8882Z" fill="url(#paint1_linear_12_4371)"/>
<path d="M10.3047 10.2322V21.5625L13.5032 24.761H24.8365V10.2322H10.3047Z" fill="white"/>
<path d="M18.3434 16.177H14.2207C14.0077 16.177 13.8345 16.0038 13.8345 15.7908V14.5479C13.8345 14.3348 14.0077 14.1616 14.2207 14.1616H18.3434C18.5564 14.1616 18.7296 14.3348 18.7296 14.5479V15.7908C18.7296 16.0038 18.5564 16.177 18.3434 16.177Z" fill="#0A2D72"/>
<path d="M21.2275 16.177H19.5937C19.3807 16.177 19.2075 16.0038 19.2075 15.7908V14.5479C19.2075 14.3348 19.3807 14.1616 19.5937 14.1616H21.2275C21.4405 14.1616 21.6137 14.3348 21.6137 14.5479V15.7908C21.6152 16.0038 21.442 16.177 21.2275 16.177Z" fill="#0A2D72"/>
<path d="M16.7109 20.8316V14.5603C16.7109 14.3473 16.884 14.1741 17.0971 14.1741H18.34C18.553 14.1741 18.7262 14.3473 18.7262 14.5603V20.8316C18.7262 21.0446 18.553 21.2178 18.34 21.2178H17.0971C16.884 21.2178 16.7109 21.0446 16.7109 20.8316Z" fill="#0A2D72"/>
<path d="M16.9856 15.9165V16.6169H16.7113V16.5633C16.7113 16.3503 16.5366 16.1771 16.3251 16.1771H16.2944V15.9181H16.9856V15.9165Z" fill="#0A2D72"/>
<path d="M47.0039 23.6145H45.8131C45.5863 23.6145 45.4729 23.5072 45.4729 23.2927V13.2559C45.4729 13.1302 45.4101 13.0674 45.2844 13.0674H42.9028C42.6759 13.0674 42.5625 12.9601 42.5625 12.7455V11.7816C42.5625 11.567 42.6759 11.4597 42.9028 11.4597H49.9158C50.1426 11.4597 50.256 11.567 50.256 11.7816V12.7455C50.256 12.9601 50.1426 13.0674 49.9158 13.0674H47.5342C47.3947 13.0674 47.3258 13.1302 47.3258 13.2559V23.2927C47.3242 23.5072 47.2169 23.6145 47.0039 23.6145Z" fill="white"/>
<path d="M58.1438 23.6147H54.0611C53.1293 23.6147 52.4074 23.3573 51.8971 22.8392C51.3867 22.3212 51.1323 21.604 51.1323 20.6845V16.9036C51.1323 15.9718 51.3867 15.25 51.8971 14.7396C52.4074 14.2293 53.1293 13.9749 54.0611 13.9749H55.6105C56.5423 13.9749 57.2672 14.2293 57.7837 14.7396C58.3002 15.25 58.5592 15.9718 58.5592 16.9036V19.3036C58.5592 19.5304 58.4457 19.6438 58.2189 19.6438H53.1538C53.0143 19.6438 52.9454 19.7067 52.9454 19.8323V20.6446C52.9454 21.5641 53.4051 22.0254 54.3247 22.0254H58.1438C58.3707 22.0254 58.4841 22.1389 58.4841 22.3657V23.3113C58.4841 23.5136 58.3707 23.6147 58.1438 23.6147ZM53.1553 18.3595H56.5392C56.6649 18.3595 56.7277 18.2967 56.7277 18.171V16.9618C56.7277 16.4837 56.6205 16.1327 56.4059 15.9136C56.1913 15.6929 55.845 15.5825 55.3668 15.5825H54.3262C53.848 15.5825 53.5017 15.6929 53.2871 15.9136C53.0726 16.1343 52.9653 16.4837 52.9653 16.9618V18.171C52.9653 18.2967 53.0281 18.3595 53.1553 18.3595Z" fill="white"/>
<path d="M62.6239 23.6147H61.4331C61.2186 23.6147 61.1113 23.5074 61.1113 23.2929V10.6492C61.1113 10.4346 61.2186 10.3274 61.4331 10.3274H62.6239C62.8385 10.3274 62.9458 10.4346 62.9458 10.6492V23.2929C62.9458 23.5074 62.8385 23.6147 62.6239 23.6147Z" fill="white"/>
<path d="M65.894 12.3687V10.6492C65.894 10.4484 65.9952 10.3457 66.1959 10.3457H67.4251C67.6258 10.3457 67.7285 10.4469 67.7285 10.6492V12.3687C67.7285 12.5833 67.6274 12.6906 67.4251 12.6906H66.1959C65.9936 12.6906 65.894 12.5833 65.894 12.3687ZM65.894 23.2929V14.2967C65.894 14.0822 65.9952 13.9749 66.1959 13.9749H67.4067C67.6212 13.9749 67.7285 14.0822 67.7285 14.2967V23.2929C67.7285 23.4186 67.7055 23.5044 67.6626 23.5473C67.6182 23.5917 67.54 23.6132 67.4266 23.6132H66.2174C65.9998 23.6147 65.894 23.5074 65.894 23.2929Z" fill="white"/>
<path d="M72.0918 23.6147H70.901C70.6864 23.6147 70.5791 23.5074 70.5791 23.2929V14.2967C70.5791 14.0822 70.6849 13.9749 70.901 13.9749H72.0918C72.3063 13.9749 72.4136 14.0822 72.4136 14.2967V14.9772H72.4887C72.7921 14.309 73.4266 13.9749 74.3983 13.9749H75.2305C76.15 13.9749 76.855 14.2262 77.3469 14.7304C77.8389 15.2346 78.0841 15.9595 78.0841 16.9036V23.2913C78.0841 23.5059 77.9707 23.6132 77.7439 23.6132H76.5531C76.3385 23.6132 76.2312 23.5059 76.2312 23.2913V16.9787C76.2312 16.0469 75.7715 15.5795 74.8519 15.5795H73.963C72.9301 15.5795 72.4136 16.1143 72.4136 17.1856V23.2898C72.4136 23.5074 72.3063 23.6147 72.0918 23.6147Z" fill="white"/>
<path d="M82.2421 23.6147H81.0513C80.8368 23.6147 80.7295 23.5074 80.7295 23.2929V10.6492C80.7295 10.4346 80.8352 10.3274 81.0513 10.3274H82.2421C82.4567 10.3274 82.564 10.4346 82.564 10.6492V23.2929C82.564 23.5074 82.4552 23.6147 82.2421 23.6147ZM86.211 13.9749H87.572C87.686 13.9749 87.764 14.0086 87.808 14.0791C87.853 14.1481 87.836 14.24 87.761 14.3534L85.096 18.5879V18.663L87.968 23.2377C88.031 23.3389 88.04 23.4262 87.997 23.5028C87.952 23.5779 87.861 23.6163 87.723 23.6163H86.493C86.204 23.6163 85.989 23.509 85.85 23.2944L83.185 18.9281C83.097 18.7657 83.097 18.5956 83.185 18.4178L85.661 14.2783C85.776 14.076 85.959 13.9749 86.211 13.9749Z" fill="white"/>
<defs>
<linearGradient id="paint0_linear_12_4371" x1="18.6712" y1="15.896" x2="18.6712" y2="17.4255" gradientUnits="userSpaceOnUse">
<stop stop-color="#014C77"/>
<stop offset="1" stop-color="#DDDDDD"/>
</linearGradient>
<linearGradient id="paint1_linear_12_4371" x1="18.3111" y1="17.7895" x2="19.046" y2="18.524" gradientUnits="userSpaceOnUse">
<stop stop-color="#014C77"/>
<stop offset="1" stop-color="#DDDDDD"/>
</linearGradient>
</defs>
</svg>
