<svg width="289" height="52" viewBox="0 0 289 52" fill="none" xmlns="http://www.w3.org/2000/svg">
<path d="M283.692 37.8957C280.996 37.8957 279.948 36.4989 279.948 33.7891V21.2737H287.366V17.3766H279.948V10.6719H275.423V17.3766H271.833V21.2737H275.423V34.4176C275.423 38.9433 277.658 42.2677 282.742 42.2677C287.826 42.2677 285.941 42.0303 287.352 41.6112V37.2811C286.066 37.6443 284.977 37.8957 283.678 37.8957H283.692Z" fill="white"/>
<path d="M161.681 37.8957C158.985 37.8957 157.937 36.4989 157.937 33.7891V21.2737H165.354V17.3766H157.937V10.6719H153.412V17.3766H149.822V21.2737H153.412V34.4176C153.412 38.9433 155.646 42.2677 160.731 42.2677C165.815 42.2677 163.93 42.0303 165.34 41.6112V37.2811C164.055 37.6443 162.966 37.8957 161.667 37.8957H161.681Z" fill="white"/>
<path d="M73.1231 37.8957C70.4272 37.8957 69.3796 36.4989 69.3796 33.7891V21.2737H76.7967V17.3766H69.3796V10.6719H64.854V17.3766H61.2642V21.2737H64.854V34.4176C64.854 38.9433 67.0889 42.2677 72.1732 42.2677C77.2576 42.2677 75.3719 42.0303 76.7827 41.6112V37.2811C75.4977 37.6443 74.4081 37.8957 73.1091 37.8957H73.1231Z" fill="white"/>
<path d="M37.1975 29.9043L25.1849 36.8325L13.1724 29.9043V43.7746L25.1849 50.7028L37.1975 43.7746V29.9043Z" fill="#72C7E3"/>
<path d="M37.1974 16.0347L25.1848 22.9629L13.1722 16.0347V29.905L1.15967 22.9629V9.09254L13.1722 2.15039L37.1974 16.0347Z" fill="#72C7E3"/>
<path d="M37.1973 29.905L49.2098 22.9629V9.09254L37.1973 2.15039V29.905Z" fill="#72C7E3"/>
<path d="M77.6768 29.6962C77.6768 21.5947 82.6075 16.7617 89.9827 16.7617C97.3578 16.7617 101.101 21.3852 101.101 28.034C101.101 34.6828 101.101 29.794 101.003 30.9393H82.2024C82.6634 35.6606 85.4291 38.2586 90.0525 38.2586C94.6759 38.2586 96.1286 36.0237 96.9667 33.1742L100.962 34.3755C99.7184 39.1526 96.2404 42.2256 90.0525 42.2256C83.8646 42.2256 77.6907 37.658 77.6907 29.7101L77.6768 29.6962ZM82.3002 27.4054H96.841C96.5337 23.0893 94.2988 20.6588 89.829 20.6588C85.3592 20.6588 82.9148 22.8937 82.3002 27.4054Z" fill="white"/>
<path d="M108.49 41.6386H103.964V17.39H108.49V23.941H108.546C109.58 19.0103 112.75 16.7754 117.011 16.7754C123.296 16.7754 125.475 20.9239 125.475 26.12V41.6526H120.95V27.2654C120.95 23.941 119.553 20.882 115.139 20.882C110.725 20.882 108.49 23.2147 108.49 27.2654V41.6526V41.6386Z" fill="white"/>
<path d="M127.697 33.7469L131.957 32.9228C132.781 36.2472 134.443 38.6916 139.025 38.6916C143.606 38.6916 144.109 37.2948 144.165 35.0599C144.165 33.0346 142.712 32.0009 137.516 31.107C131.133 29.9057 128.786 27.6289 128.786 23.8296C128.786 20.0303 131.901 16.7617 137.977 16.7617C144.053 16.7617 146.917 19.6252 148.006 24.3464L143.69 25.38C142.81 21.7483 141.204 20.2956 137.977 20.2956C134.75 20.2956 133.298 21.5388 133.298 23.5642C133.298 25.5896 134.541 26.8327 139.528 27.6708C146.176 28.8162 148.621 31.2047 148.621 34.9482C148.621 38.6916 145.506 42.2675 138.955 42.2675C132.404 42.2675 128.716 38.7894 127.683 33.7469H127.697Z" fill="white"/>
<path d="M166.556 29.4308C166.556 21.4829 171.542 16.7617 178.917 16.7617C186.293 16.7617 191.181 21.4829 191.181 29.4308C191.181 37.3786 186.558 42.2535 178.917 42.2535C171.277 42.2535 166.556 37.3228 166.556 29.4308ZM171.067 29.3889C171.067 34.6409 173.819 38.1189 178.862 38.1189C183.904 38.1189 186.656 34.6409 186.656 29.3889C186.656 24.1369 183.75 20.9242 178.862 20.9242C173.973 20.9242 171.067 24.1927 171.067 29.3889Z" fill="white"/>
<path d="M194.031 41.6392V17.3906H198.556V24.8636H198.654C199.646 19.2065 201.923 17.3906 205.82 17.3906H207.328V22.3772H205.149C200.582 22.3772 198.556 24.1372 198.556 28.8165V41.6392H194.031Z" fill="white"/>
<path d="M209.2 41.6392V17.3906H213.726V24.8636H213.824C214.815 19.2065 217.092 17.3906 220.989 17.3906H222.498V22.3772H220.319C215.751 22.3772 213.726 24.1372 213.726 28.8165V41.6392H209.2Z" fill="white"/>
<path d="M222.959 29.6962C222.959 21.5947 227.89 16.7617 235.265 16.7617C242.64 16.7617 246.384 21.3852 246.384 28.034C246.384 34.6828 246.383 29.794 246.286 30.9393H227.485C227.946 35.6606 230.711 38.2586 235.335 38.2586C239.958 38.2586 241.411 36.0237 242.249 33.1742L246.244 34.3755C245.001 39.1526 241.523 42.2256 235.335 42.2256C229.147 42.2256 222.973 37.658 222.973 29.7101L222.959 29.6962ZM227.582 27.4054H242.123C241.816 23.0893 239.581 20.6588 235.111 20.6588C230.641 20.6588 228.197 22.8937 227.582 27.4054Z" fill="white"/>
<path d="M253.759 41.6386H249.233V17.39H253.759V23.941H253.814C254.848 19.0103 258.019 16.7754 262.279 16.7754C268.565 16.7754 270.744 20.9239 270.744 26.12V41.6526H266.218V27.2654C266.218 23.941 264.821 20.882 260.407 20.882C255.993 20.882 253.759 23.2147 253.759 27.2654V41.6526V41.6386Z" fill="white"/>
</svg>
