<svg width="125" height="50" viewBox="0 0 125 50" fill="none" xmlns="http://www.w3.org/2000/svg">
<g clip-path="url(#clip0_2485_2885)">
<path d="M100.561 23.5311V31.9582H103.264V26.3432H113.099V31.9582H115.8V23.5457L100.561 23.5311ZM102.963 20.8052H113.354C114.798 20.5183 115.871 19.2445 116.173 18.0123H100.144C100.444 19.2449 101.528 20.5183 102.963 20.8052ZM92.3771 31.9636C93.7397 31.386 94.4731 30.3868 94.7538 29.2177H82.6316L82.6393 18.0192L79.9222 18.0269V31.9636H92.3763M59.7171 20.7675H69.3141C70.7609 20.3471 71.9755 19.2445 72.2754 18.0231H57.0304V26.259H69.508V29.1492L59.7202 29.1569C58.1865 29.5845 56.8858 30.6183 56.237 31.9748L57.03 31.9601H72.1885V23.5207H59.7202V20.7671M36.0257 20.794H46.4096C47.8549 20.5056 48.9287 19.2334 49.2302 18H33.2044C33.5036 19.2334 34.5935 20.506 36.025 20.794M36.0254 26.3021H46.4092C47.8545 26.0175 48.9283 24.7434 49.2298 23.5092H33.2044C33.5036 24.7399 34.5939 26.0167 36.0254 26.3021ZM36.0254 31.9621H46.4092C47.8545 31.6748 48.9283 30.4014 49.2298 29.1688H33.2044C33.5036 30.4018 34.5939 31.6748 36.0254 31.9621ZM9 18.0338C9.31229 19.2518 10.3668 20.4967 11.8136 20.8086H16.1826L16.4056 20.8971V31.9348H19.1362V20.8971L19.3843 20.8086H23.7609C25.2238 20.4317 26.2557 19.2518 26.5626 18.0338V18.0069H9V18.0338Z" fill="#E82127"/>
</g>
<defs>
<clipPath id="clip0_2485_2885">
<rect width="125" height="50" fill="white"/>
</clipPath>
</defs>
</svg>
