<svg width="186" height="36" viewBox="0 0 186 36" fill="none" xmlns="http://www.w3.org/2000/svg">
<g clip-path="url(#clip0_2394_5095)">
<path d="M47.9256 7.12402V28.9262H40.8564V21.1798H32.2346V28.9262H25.1489V7.12402H32.2346V15.1182H40.8564V7.12402H47.9256Z" fill="#E30040"/>
<path d="M140.833 28.9262H133.152V24.252C133.152 23.6574 133.02 23.1619 132.723 22.6498C129.733 17.4801 126.744 12.2938 123.754 7.12402H131.848C133.466 9.93188 135.101 12.7397 136.72 15.5641C136.885 15.8449 137.116 15.8449 137.282 15.5641C138.9 12.7563 140.535 9.9484 142.154 7.12402H150.247C147.258 12.2938 144.268 17.4801 141.279 22.6498C140.981 23.1619 140.849 23.6574 140.849 24.252V28.9262H140.833Z" fill="#E30040"/>
<path d="M71.6272 12.2112V7.12402H51.0968V28.9262H72.1392V23.7895H58.1825V20.5026H67.0686V15.7293H58.1825V12.2112H71.6272Z" fill="#E30040"/>
<path d="M14.5616 23.327H22.3245V28.9097H13.0586C7.04645 28.9097 2.15747 24.0372 2.15747 18.0086C2.15747 11.98 7.04645 7.12402 13.0586 7.12402C16.8079 7.12402 18.6743 7.12402 22.3245 7.12402V12.7232H14.5616C11.6381 12.7232 9.2597 15.1016 9.2597 18.0251C9.2597 20.9486 11.6381 23.327 14.5616 23.327ZM94.6516 21.4276C100.845 16.9185 97.6577 7.12402 90.0104 7.12402H74.9306V28.9262H81.6034V23.261H86.707C88.0614 23.261 88.8542 23.7234 89.5314 24.8961C90.1095 25.9036 90.6876 26.9112 91.2657 27.9187C91.6951 28.662 92.1741 28.9427 93.033 28.9427H98.6322C97.3108 26.4487 95.973 23.9547 94.6516 21.4441M88.3752 17.9591H81.6034V12.1451H88.3752C89.9774 12.1451 91.2822 13.45 91.2822 15.0521C91.2822 16.6542 89.9774 17.9591 88.3752 17.9591ZM120.748 21.4441C126.942 16.935 123.754 7.14054 116.09 7.14054H101.027V28.9427H107.7V23.2775H112.804C114.158 23.2775 114.951 23.7399 115.628 24.9126C116.206 25.9202 116.784 26.9277 117.362 27.9352C117.792 28.6785 118.271 28.9593 119.13 28.9593H124.729C123.407 26.4652 122.07 23.9712 120.748 21.4606M114.472 17.9756H107.7V12.1617H114.472C116.074 12.1617 117.379 13.4665 117.379 15.0686C117.379 16.6707 116.074 17.9756 114.472 17.9756Z" fill="#E30040"/>
<path d="M161.578 26.7462C161.578 26.7462 161.578 26.8784 161.561 26.9444C161.38 29.3559 162.255 31.7343 163.989 33.419C165.724 35.1203 168.118 35.9131 170.53 35.6818C172.941 35.4341 175.105 34.1788 176.459 32.1803C177.814 30.1817 178.227 27.6712 177.55 25.3423C177.517 25.3423 177.483 25.3093 177.45 25.2928C176.823 24.9624 176.212 24.6156 175.617 24.2357C175.039 23.8723 174.461 23.4759 173.916 23.063C173.519 22.7492 173.123 22.4354 172.743 22.105C172.248 21.6591 171.769 21.1801 171.306 20.6846C170.1 23.8723 167.276 26.1682 163.923 26.6967C163.13 26.8123 162.354 26.8453 161.545 26.7628" fill="#E30040"/>
<path d="M173.47 6.05051C174.89 9.78331 176.245 13.1527 177.814 16.836C177.583 16.9021 177.351 16.803 177.236 16.5882C175.369 13.1197 173.751 9.78331 172.231 6.14961C172.066 5.76972 171.917 5.37332 171.752 4.99343C171.67 4.79523 171.587 4.59703 171.521 4.39883C171.504 4.34928 171.488 4.29973 171.455 4.25018C171.422 4.18411 171.422 4.11804 171.455 4.05198C171.455 4.01894 171.488 4.00243 171.504 3.98591C171.504 3.96939 171.537 3.95287 171.554 3.93636C171.67 3.77119 171.769 3.5895 171.851 3.40782C172 3.02793 172.049 2.5985 171.983 2.18558C171.851 1.35973 171.273 0.682545 170.48 0.40176C169.688 0.120974 168.812 0.286142 168.201 0.847714C167.573 1.39277 167.293 2.25164 167.474 3.06097C167.474 3.11052 167.507 3.16007 167.524 3.22613V3.25917L167.557 3.30872C167.557 3.30872 167.557 3.45737 167.507 3.52344L167.441 3.5895C167.359 3.67209 167.293 3.77119 167.21 3.85377C167.061 4.03546 166.913 4.21714 166.764 4.39883C166.467 4.7622 166.186 5.14209 165.922 5.52197C165.377 6.29826 164.881 7.09107 164.419 7.91691C164.303 8.13163 164.187 8.32983 164.088 8.54455C164.039 8.64365 163.973 8.75927 163.923 8.85837C163.89 8.90792 163.874 8.95747 163.841 9.02354V9.05657C163.841 9.05657 163.791 9.10612 163.774 9.12264C163.725 9.1887 163.642 9.20522 163.56 9.20522C163.527 9.20522 163.494 9.20522 163.477 9.20522C163.048 9.15567 162.602 9.13915 162.172 9.15567C161.264 9.1887 160.372 9.37039 159.53 9.70073C157.68 10.4275 156.16 11.7984 155.235 13.5657C154.36 15.2669 154.096 17.2159 154.509 19.0823C154.938 21.0643 156.094 22.8151 157.746 23.9878C159.282 25.0779 161.132 25.6064 162.998 25.4908C165.03 25.3587 166.946 24.4833 168.366 23.0298C169.671 21.6919 170.464 19.9577 170.645 18.1078C170.827 16.1753 170.332 14.2594 169.225 12.6738C168.697 11.8975 168.019 11.2368 167.26 10.6917C166.896 10.4275 166.533 10.2127 166.136 10.0145C166.037 9.965 165.938 9.91544 165.856 9.88241C165.823 9.88241 165.79 9.84938 165.757 9.83286C165.69 9.78331 165.657 9.70073 165.674 9.61814C165.674 9.58511 165.674 9.55208 165.707 9.51904C165.707 9.48601 165.74 9.46949 165.74 9.43646C165.773 9.38691 165.79 9.33736 165.823 9.28781C165.922 9.0896 166.037 8.87489 166.153 8.67668C166.599 7.86736 167.094 7.09107 167.656 6.3313C167.92 5.95141 168.218 5.60456 168.498 5.24119C168.564 5.1586 168.647 5.0595 168.713 4.97692C168.73 4.9604 168.746 4.92737 168.763 4.91085L168.796 4.87782V4.84478C168.796 4.84478 168.961 4.7622 169.043 4.77872C169.06 4.77872 169.093 4.77872 169.109 4.79523H169.159C169.159 4.79523 169.225 4.82827 169.242 4.82827C169.308 4.82827 169.357 4.84478 169.423 4.8613C169.456 4.8613 169.489 4.8613 169.506 4.8613H169.539C169.621 4.8613 169.688 4.92737 169.737 5.00995C169.737 5.04298 169.77 5.07602 169.787 5.10905L169.82 5.19164C169.919 5.42287 170.034 5.65411 170.133 5.88534C170.167 5.95141 170.183 6.00096 170.216 6.05051C170.216 6.08354 170.249 6.11658 170.249 6.13309C170.266 6.18264 170.299 6.21568 170.299 6.26523C170.299 6.31478 170.299 6.34781 170.299 6.38085C170.299 6.41388 170.266 6.44691 170.266 6.46343C170.249 6.51298 170.216 6.56253 170.2 6.61208C170.15 6.71118 170.117 6.81028 170.067 6.9259C169.902 7.3223 169.754 7.73523 169.638 8.14815C169.39 8.94095 169.225 9.75028 169.126 10.5761C171.405 12.8224 172.396 16.0597 171.769 19.1979C174.593 22.6995 179.036 24.8962 183.083 26.2671C183.991 22.3526 184.305 17.7114 182.835 13.7639C182.075 11.7488 180.886 10.0145 179.201 8.67668C177.516 7.33882 175.534 6.5295 173.486 6.05051" fill="#E30040"/>
</g>
<defs>
<clipPath id="clip0_2394_5095">
<rect width="186" height="35.4286" fill="white" transform="translate(0 0.286133)"/>
</clipPath>
</defs>
</svg>
