<svg width="125" height="50" viewBox="0 0 125 50" fill="none" xmlns="http://www.w3.org/2000/svg">
<g clip-path="url(#clip0_69_410)">
<g clip-path="url(#clip1_69_410)">
<path d="M45.2037 33.1979L48.4417 40.7948H46.6633L45.9659 38.9865H42.6631L41.9856 40.7948H40.2969L43.515 33.1979H45.2087H45.2037ZM43.1862 37.6315H45.4478L44.2921 34.7123L43.1812 37.6315H43.1862Z" fill="white"/>
<path d="M50.1903 40.7948V33.1979H54.0959C54.9826 33.1979 55.6302 33.2826 56.0437 33.5466C56.5916 33.8953 56.9005 34.4682 56.9005 35.1756C56.9005 36.0224 56.5518 36.5953 55.7697 36.9938C56.5418 37.3226 56.9204 37.8606 56.9204 38.7175C56.9204 40.1571 56.0935 40.7898 54.3698 40.7898H50.1903V40.7948ZM51.7844 36.3163H54.1208C54.8281 36.3163 55.1669 36.0523 55.1669 35.4396C55.1669 34.8268 54.8281 34.5628 54.1208 34.5628H51.7844V36.3213V36.3163ZM55.1918 38.563C55.1918 37.9304 54.8531 37.6663 54.1457 37.6663H51.7844V39.4547H54.1457C54.8531 39.4547 55.1918 39.2007 55.1918 38.563Z" fill="white"/>
<path d="M61.7126 33.1979H60.0388V40.7948H61.7126V33.1979Z" fill="white"/>
<path d="M65.7527 39.9977C65.1699 39.385 65.0652 38.7174 65.0652 37.7112V33.1929H66.6643V37.6564C66.6643 38.2791 66.6743 38.7374 66.9284 39.0313C67.2671 39.4348 67.7204 39.5294 68.3979 39.5294H70.2809V40.7898H68.2584C67.1575 40.7898 66.4252 40.715 65.7527 39.9977Z" fill="white"/>
<path d="M74.3957 33.1979H72.7219V40.7948H74.3957V33.1979Z" fill="white"/>
<path d="M81.3251 33.1979L84.5631 40.7948H82.7847L82.0873 38.9865H78.7845L78.107 40.7948H76.4133L79.6314 33.1979H81.3251ZM79.3026 37.6315H81.5642L80.4085 34.7123L79.2976 37.6315H79.3026Z" fill="white"/>
<path d="M59.3115 9.03232L62.5545 0.185059C60.5918 0.239856 58.7336 0.708123 57.0648 1.51514L58.4397 9.11203C58.7237 9.06221 59.0126 9.0373 59.3115 9.03232Z" fill="#B9183A"/>
<path d="M67.5311 18.1835L75.0682 19.6879C75.8852 18.039 76.3734 16.1958 76.4481 14.248L67.571 17.3267C67.571 17.6156 67.561 17.8995 67.5261 18.1835" fill="#B9183A"/>
<path d="M66.6892 13.8494L76.219 11.1594C75.8055 8.97747 74.864 6.98484 73.5389 5.31104L66.1363 13.0225C66.3356 13.2766 66.5199 13.5505 66.6843 13.8494" fill="#B9183A"/>
<path d="M63.6854 10.4222L71.4716 3.20886C69.8077 1.85388 67.8201 0.887451 65.6431 0.444092L62.7986 9.8742C63.1125 10.0386 63.4064 10.2179 63.6854 10.4172" fill="#B9183A"/>
<path d="M54.6538 21.0777C51.5004 17.4462 53.5329 13.5207 55.0374 11.4882L54.061 3.43799C51.1717 5.91881 49.3384 9.59521 49.3384 13.7C49.3384 21.1724 55.396 27.225 62.8634 27.225C66.9284 27.225 70.5749 25.4316 73.0507 22.5921L65.6033 21.556C64.2134 22.5971 58.918 25.9945 54.6438 21.0777" fill="#B9183A"/>
<path d="M41.9707 44.1523H40.3716V43.5197H44.2473V44.1523H42.6432V48.4962H41.9707V44.1523Z" fill="white"/>
<path d="M43.8637 46.8324C43.8637 46.5883 43.9085 46.3641 43.9982 46.1499C44.0879 45.9407 44.2124 45.7564 44.3768 45.597C44.5362 45.4376 44.7205 45.313 44.9397 45.2184C45.1539 45.1287 45.3881 45.0839 45.6371 45.0839C45.8862 45.0839 46.1154 45.1287 46.3346 45.2184C46.5488 45.308 46.7381 45.4376 46.8975 45.597C47.0569 45.7564 47.1814 45.9407 47.2761 46.1499C47.3658 46.3591 47.4106 46.5883 47.4106 46.8324C47.4106 47.0765 47.3658 47.3056 47.2761 47.5198C47.1864 47.7341 47.0569 47.9184 46.8975 48.0778C46.7381 48.2322 46.5488 48.3568 46.3346 48.4514C46.1204 48.5411 45.8862 48.5859 45.6371 48.5859C45.3881 48.5859 45.1589 48.5411 44.9397 48.4514C44.7255 48.3617 44.5362 48.2372 44.3768 48.0778C44.2174 47.9184 44.0929 47.7341 43.9982 47.5198C43.9085 47.3056 43.8637 47.0765 43.8637 46.8324ZM44.5362 46.8324C44.5362 47.0018 44.5611 47.1562 44.6109 47.3007C44.6608 47.4451 44.7355 47.5647 44.8301 47.6643C44.9248 47.7639 45.0394 47.8437 45.1739 47.9034C45.3084 47.9632 45.4628 47.9931 45.6322 47.9931C45.8015 47.9931 45.951 47.9632 46.0905 47.9034C46.225 47.8437 46.3395 47.7639 46.4342 47.6643C46.5288 47.5647 46.5986 47.4401 46.6534 47.3007C46.7032 47.1562 46.7331 47.0018 46.7331 46.8324C46.7331 46.663 46.7082 46.5086 46.6534 46.3641C46.6036 46.2197 46.5288 46.1001 46.4342 46.0005C46.3395 45.9008 46.225 45.8211 46.0905 45.7614C45.956 45.7016 45.8015 45.6717 45.6322 45.6717C45.4628 45.6717 45.3133 45.7016 45.1739 45.7614C45.0394 45.8211 44.9248 45.9008 44.8301 46.0005C44.7355 46.1001 44.6657 46.2246 44.6109 46.3641C44.5611 46.5086 44.5362 46.663 44.5362 46.8324Z" fill="white"/>
<path d="M48.1977 43.1859H48.8303V45.6468H48.8453C48.9598 45.4725 49.1193 45.338 49.3285 45.2383C49.5377 45.1387 49.7619 45.0889 50.001 45.0889C50.26 45.0889 50.4892 45.1337 50.6984 45.2234C50.9076 45.313 51.082 45.4376 51.2314 45.592C51.3809 45.7464 51.4905 45.9357 51.5702 46.145C51.6499 46.3592 51.6897 46.5883 51.6897 46.8374C51.6897 47.0865 51.6499 47.3156 51.5702 47.5249C51.4905 47.7341 51.3759 47.9234 51.2314 48.0778C51.082 48.2372 50.9076 48.3618 50.6984 48.4514C50.4892 48.5411 50.2551 48.5859 50.001 48.5859C49.7768 48.5859 49.5576 48.5361 49.3434 48.4365C49.1292 48.3369 48.9648 48.2024 48.8403 48.023H48.8253V48.5012H48.1927V43.1909L48.1977 43.1859ZM49.9263 47.9931C50.0956 47.9931 50.2451 47.9632 50.3846 47.9035C50.5191 47.8437 50.6337 47.764 50.7283 47.6643C50.823 47.5647 50.8927 47.4402 50.9475 47.3007C50.9973 47.1562 51.0272 47.0018 51.0272 46.8324C51.0272 46.663 51.0023 46.5086 50.9475 46.3642C50.8977 46.2197 50.823 46.1001 50.7283 46.0005C50.6337 45.9009 50.5191 45.8212 50.3846 45.7614C50.2501 45.7016 50.0956 45.6717 49.9263 45.6717C49.7569 45.6717 49.6075 45.7016 49.468 45.7614C49.3335 45.8212 49.2189 45.9009 49.1242 46.0005C49.0296 46.1001 48.9598 46.2247 48.9051 46.3642C48.8552 46.5086 48.8303 46.663 48.8303 46.8324C48.8303 47.0018 48.8552 47.1562 48.9051 47.3007C48.9549 47.4452 49.0296 47.5647 49.1242 47.6643C49.2189 47.764 49.3335 47.8437 49.468 47.9035C49.6025 47.9632 49.7569 47.9931 49.9263 47.9931Z" fill="white"/>
<path d="M52.0883 45.1686H52.8205L53.8119 47.769H53.8268L54.7683 45.1686H55.4508L53.8717 49.2136C53.8169 49.3581 53.7571 49.4926 53.6973 49.6122C53.6375 49.7317 53.5628 49.8314 53.4781 49.916C53.3934 50.0007 53.2938 50.0655 53.1742 50.1103C53.0547 50.1552 52.9102 50.1801 52.7359 50.1801C52.6412 50.1801 52.5466 50.1751 52.4519 50.1601C52.3573 50.1502 52.2626 50.1253 52.1729 50.0854L52.2477 49.5076C52.3722 49.5574 52.5017 49.5823 52.6263 49.5823C52.7259 49.5823 52.8056 49.5673 52.8753 49.5424C52.9451 49.5175 52.9999 49.4777 53.0497 49.4278C53.0995 49.378 53.1394 49.3232 53.1742 49.2535C53.2091 49.1887 53.239 49.114 53.2739 49.0293L53.4781 48.5013L52.0932 45.1487L52.0883 45.1686Z" fill="white"/>
<path d="M61.5831 44.5957C61.4437 44.4114 61.2643 44.2719 61.0501 44.1723C60.8359 44.0726 60.6117 44.0228 60.3826 44.0228C60.1036 44.0228 59.8446 44.0776 59.6204 44.1822C59.3912 44.2868 59.197 44.4313 59.0376 44.6156C58.8781 44.7999 58.7486 45.0142 58.659 45.2583C58.5693 45.5023 58.5245 45.7664 58.5245 46.0503C58.5245 46.3143 58.5693 46.5634 58.649 46.7926C58.7337 47.0267 58.8532 47.231 59.0126 47.4103C59.1721 47.5896 59.3663 47.7291 59.5955 47.8337C59.8246 47.9383 60.0837 47.9881 60.3776 47.9881C60.6715 47.9881 60.9156 47.9284 61.1298 47.8138C61.344 47.6942 61.5283 47.5348 61.6778 47.3206L62.2457 47.749C62.2058 47.7989 62.1411 47.8736 62.0464 47.9682C61.9518 48.0629 61.8272 48.1625 61.6728 48.2572C61.5184 48.3518 61.3341 48.4365 61.1149 48.5112C60.8957 48.5859 60.6466 48.6208 60.3577 48.6208C59.9641 48.6208 59.6104 48.5461 59.2916 48.3966C58.9728 48.2472 58.7038 48.0479 58.4846 47.8088C58.2604 47.5647 58.0911 47.2907 57.9765 46.9819C57.8619 46.678 57.8021 46.3642 57.8021 46.0503C57.8021 45.6667 57.8669 45.313 57.9914 44.9843C58.116 44.6555 58.2953 44.3765 58.5245 44.1424C58.7536 43.9082 59.0226 43.7239 59.3414 43.5894C59.6602 43.4599 60.009 43.3951 60.3925 43.3951C60.7213 43.3951 61.0451 43.4599 61.359 43.5844C61.6778 43.709 61.9368 43.9033 62.1361 44.1673L61.5732 44.5957H61.5831Z" fill="white"/>
<path d="M62.9033 43.1859H63.5359V45.6817H63.5509C63.6306 45.5023 63.7701 45.3579 63.9643 45.2483C64.1636 45.1387 64.3878 45.0839 64.6468 45.0839C64.8062 45.0839 64.9606 45.1088 65.1051 45.1586C65.2546 45.2084 65.3791 45.2832 65.4937 45.3878C65.6033 45.4924 65.6929 45.6219 65.7577 45.7863C65.8225 45.9457 65.8573 46.14 65.8573 46.3592V48.5012H65.2247V46.5335C65.2247 46.3791 65.2047 46.2446 65.1599 46.135C65.1201 46.0254 65.0603 45.9357 64.9905 45.866C64.9208 45.7963 64.8411 45.7464 64.7464 45.7166C64.6568 45.6867 64.5621 45.6717 64.4625 45.6717C64.333 45.6717 64.2084 45.6916 64.0988 45.7365C63.9843 45.7763 63.8896 45.8461 63.8049 45.9357C63.7202 46.0254 63.6555 46.145 63.6106 46.2844C63.5658 46.4239 63.5409 46.5933 63.5409 46.7826V48.4963H62.9082V43.1859H62.9033Z" fill="white"/>
<path d="M69.7628 48.4962H69.1302V47.9831H69.1152C69.0355 48.1625 68.8961 48.3069 68.7018 48.4165C68.5025 48.5261 68.2783 48.5809 68.0193 48.5809C67.8549 48.5809 67.7005 48.556 67.556 48.5062C67.4115 48.4564 67.282 48.3817 67.1724 48.2771C67.0628 48.1724 66.9732 48.0429 66.9084 47.8785C66.8436 47.7191 66.8088 47.5248 66.8088 47.3056V45.1636H67.4414V47.1313C67.4414 47.2857 67.4614 47.4202 67.5062 47.5298C67.546 47.6394 67.6058 47.7291 67.6756 47.7938C67.7453 47.8636 67.825 47.9134 67.9197 47.9433C68.0093 47.9732 68.104 47.9881 68.2036 47.9881C68.3331 47.9881 68.4577 47.9682 68.5673 47.9234C68.6818 47.8835 68.7765 47.8138 68.8612 47.7241C68.9459 47.6344 69.0106 47.5149 69.0604 47.3754C69.1103 47.2359 69.1302 47.0715 69.1302 46.8772V45.1636H69.7628V48.4962Z" fill="white"/>
<path d="M70.7143 45.1686H71.347V45.6817H71.3619C71.4018 45.592 71.4616 45.5123 71.5313 45.4376C71.6011 45.3628 71.6808 45.3031 71.7654 45.2532C71.8501 45.2034 71.9448 45.1586 72.0494 45.1287C72.154 45.0988 72.2536 45.0839 72.3583 45.0839C72.4629 45.0839 72.5575 45.0988 72.6372 45.1237L72.6073 45.8062C72.5575 45.7912 72.5027 45.7813 72.4529 45.7713C72.4031 45.7614 72.3483 45.7564 72.2985 45.7564C71.9896 45.7564 71.7505 45.8411 71.5861 46.0154C71.4217 46.1898 71.342 46.4588 71.342 46.8224V48.4962H70.7094V45.1636L70.7143 45.1686Z" fill="white"/>
<path d="M75.5714 46.0503C75.4518 45.9308 75.3322 45.8361 75.2027 45.7714C75.0732 45.7066 74.9188 45.6767 74.7444 45.6767C74.5701 45.6767 74.4206 45.7066 74.2911 45.7714C74.1616 45.8361 74.057 45.9208 73.9673 46.0304C73.8776 46.14 73.8179 46.2645 73.768 46.409C73.7232 46.5535 73.7033 46.7029 73.7033 46.8573C73.7033 47.0118 73.7282 47.1562 73.783 47.2957C73.8328 47.4352 73.9075 47.5548 74.0022 47.6594C74.0968 47.764 74.2064 47.8437 74.3409 47.9035C74.4704 47.9633 74.6199 47.9931 74.7843 47.9931C74.9636 47.9931 75.1131 47.9633 75.2426 47.8985C75.3671 47.8337 75.4867 47.7441 75.5913 47.6195L76.0396 48.0679C75.8752 48.2522 75.6859 48.3817 75.4667 48.4614C75.2476 48.5411 75.0184 48.581 74.7743 48.581C74.5153 48.581 74.2811 48.5411 74.0669 48.4564C73.8527 48.3717 73.6684 48.2522 73.514 48.1027C73.3595 47.9483 73.24 47.769 73.1553 47.5548C73.0706 47.3406 73.0308 47.1064 73.0308 46.8474C73.0308 46.5883 73.0706 46.3542 73.1553 46.14C73.24 45.9258 73.3595 45.7415 73.509 45.587C73.6634 45.4326 73.8428 45.3131 74.057 45.2234C74.2712 45.1387 74.5053 45.0939 74.7693 45.0939C75.0134 45.0939 75.2476 45.1387 75.4667 45.2234C75.6909 45.3081 75.8802 45.4426 76.0446 45.6219L75.5664 46.0553L75.5714 46.0503Z" fill="white"/>
<path d="M76.5776 43.1859H77.2103V45.6817H77.2252C77.3049 45.5023 77.4444 45.3579 77.6387 45.2483C77.838 45.1387 78.0621 45.0839 78.3212 45.0839C78.4806 45.0839 78.635 45.1088 78.7795 45.1586C78.9289 45.2084 79.0535 45.2832 79.1681 45.3878C79.2776 45.4924 79.3673 45.6219 79.4321 45.7863C79.4968 45.9457 79.5317 46.14 79.5317 46.3592V48.5012H78.899V46.5335C78.899 46.3791 78.8791 46.2446 78.8343 46.135C78.7944 46.0254 78.7347 45.9357 78.6649 45.866C78.5952 45.7963 78.5155 45.7464 78.4208 45.7166C78.3311 45.6867 78.2365 45.6717 78.1369 45.6717C78.0073 45.6717 77.8828 45.6916 77.7732 45.7365C77.6586 45.7763 77.564 45.8461 77.4793 45.9357C77.3946 46.0254 77.3299 46.145 77.28 46.2844C77.2352 46.4239 77.2103 46.5933 77.2103 46.7826V48.4963H76.5776V43.1859Z" fill="white"/>
<path d="M80.3835 43.973C80.3835 43.8485 80.4284 43.7389 80.518 43.6442C80.6077 43.5546 80.7173 43.5048 80.8468 43.5048C80.9764 43.5048 81.081 43.5496 81.1756 43.6442C81.2653 43.7339 81.3151 43.8435 81.3151 43.973C81.3151 44.1026 81.2703 44.2072 81.1756 44.3018C81.0859 44.3915 80.9764 44.4363 80.8468 44.4363C80.7173 44.4363 80.6127 44.3915 80.518 44.3018C80.4284 44.2121 80.3835 44.1026 80.3835 43.973ZM80.533 45.1636H81.1657V48.4963H80.533V45.1636Z" fill="white"/>
<path d="M82.8495 43.1859H82.2168V48.4963H82.8495V43.1859Z" fill="white"/>
<path d="M84.5382 43.1859H83.9055V48.4963H84.5382V43.1859Z" fill="white"/>
</g>
</g>
<defs>
<clipPath id="clip0_69_410">
<rect width="125" height="50" fill="white"/>
</clipPath>
<clipPath id="clip1_69_410">
<rect width="44.2662" height="50" fill="white" transform="translate(40.2969 0.185059)"/>
</clipPath>
</defs>
</svg>
