<svg width="100" height="24" viewBox="0 0 100 24" fill="none" xmlns="http://www.w3.org/2000/svg">
<path d="M15.0292 6.80697C14.7353 6.81377 14.4499 6.90697 14.209 7.07487C13.9681 7.24287 13.7823 7.47807 13.675 7.75087C13.5678 8.02377 13.5438 8.32217 13.6061 8.60857C13.6684 8.89497 13.8142 9.15667 14.0253 9.36067C14.2363 9.56477 14.5031 9.70207 14.7922 9.75547C15.0812 9.80877 15.3797 9.77577 15.65 9.66057C15.9203 9.54537 16.1504 9.35307 16.3114 9.10787C16.4724 8.86267 16.5572 8.57547 16.555 8.28237C16.5528 8.08537 16.5114 7.89077 16.4334 7.70987C16.3554 7.52887 16.2422 7.36507 16.1003 7.22787C15.9585 7.09077 15.7908 6.98297 15.6069 6.91067C15.4231 6.83847 15.2267 6.80317 15.0292 6.80697ZM19.5608 6.80697C19.2669 6.81377 18.9816 6.90697 18.7406 7.07487C18.4997 7.24287 18.3139 7.47807 18.2067 7.75087C18.0994 8.02377 18.0754 8.32217 18.1377 8.60857C18.2 8.89497 18.3459 9.15667 18.5569 9.36067C18.7679 9.56477 19.0347 9.70207 19.3238 9.75547C19.6128 9.80877 19.9113 9.77577 20.1816 9.66057C20.4519 9.54537 20.682 9.35307 20.843 9.10787C21.0041 8.86267 21.0888 8.57547 21.0866 8.28237C21.0821 7.88957 20.9224 7.51427 20.6421 7.23807C20.3618 6.96187 19.9836 6.80697 19.5895 6.80697H19.5608ZM90.03 7.95067L93.707 3.27287H91.568L88.935 6.67547L86.3019 3.27287H84.2082L87.879 7.93927L83.6001 13.2519H85.7397L88.946 9.19167L92.136 13.2519H94.212L90.03 7.95067ZM24.5513 13.2519H26.3468V1.93477H31.3488V0.276367H20.2377L18.9126 1.93477H24.5513V13.2519ZM34.3603 3.03277C33.3147 3.03157 32.2923 3.33947 31.4222 3.91737C30.5521 4.49527 29.8733 5.31727 29.4716 6.27967C29.07 7.24197 28.9634 8.30137 29.1654 9.32407C29.3675 10.3468 29.869 11.2868 30.6067 12.0255C31.3444 12.7641 32.2852 13.2682 33.3101 13.474C34.3351 13.6798 35.3982 13.5782 36.3653 13.1819C37.3323 12.7857 38.1598 12.1125 38.7433 11.2476C39.3267 10.3827 39.6399 9.36477 39.6434 8.32247C39.6494 7.62777 39.5171 6.93877 39.2542 6.29547C38.9912 5.65207 38.6027 5.06717 38.1113 4.57467C37.6199 4.08207 37.0353 3.69167 36.3914 3.42597C35.7475 3.16037 35.0571 3.02467 34.3603 3.02697V3.03277ZM34.3603 11.9995C33.6217 12.0268 32.8918 11.8337 32.2641 11.4449C31.6363 11.056 31.1393 10.4892 30.8367 9.81697C30.5341 9.14477 30.4397 8.39787 30.5656 7.67187C30.6914 6.94587 31.0319 6.27387 31.5433 5.74187C32.0547 5.20997 32.7137 4.84237 33.436 4.68627C34.1582 4.53007 34.9108 4.59247 35.5973 4.86537C36.2838 5.13827 36.8729 5.60927 37.2892 6.21797C37.7055 6.82677 37.93 7.54567 37.934 8.28237C37.9574 8.76337 37.8821 9.24417 37.7127 9.69517C37.5434 10.1462 37.2835 10.558 36.9489 10.9054C36.6144 11.2528 36.2123 11.5286 35.7672 11.7157C35.3221 11.9028 34.8433 11.9975 34.3603 11.9938V11.9995ZM48.0469 4.85127C48.3262 4.38717 48.6614 3.95887 49.045 3.57597C48.238 3.16857 47.3398 2.97407 46.436 3.01107C45.5322 3.04797 44.6529 3.31517 43.8821 3.78717C43.1113 4.25917 42.4747 4.92007 42.0329 5.70697C41.5911 6.49397 41.3589 7.38057 41.3585 8.28237V13.2404H43.0794V8.28237C43.0608 7.80337 43.1396 7.32557 43.3109 6.87767C43.4822 6.42977 43.7426 6.02107 44.0764 5.67597C44.4102 5.33097 44.8105 5.05667 45.2533 4.86977C45.6961 4.68287 46.1722 4.58707 46.653 4.58817C47.1305 4.58317 47.6043 4.67257 48.0469 4.85127ZM81.0762 10.8444C80.6292 11.3215 80.0591 11.6668 79.4284 11.8425C78.7976 12.0181 78.1306 12.0173 77.5003 11.8401C76.87 11.6629 76.3007 11.3162 75.8549 10.838C75.4091 10.3598 75.1039 9.76837 74.9728 9.12877H83.6804C83.722 8.85617 83.7431 8.58097 83.7435 8.30527C83.738 7.03397 83.2679 5.80827 82.4212 4.85757C81.5745 3.90687 80.4093 3.29647 79.1437 3.14057C77.8781 2.98457 76.5989 3.29387 75.5455 4.01047C74.4921 4.72697 73.7369 5.80177 73.421 7.03347C73.1052 8.26517 73.2506 9.56937 73.8298 10.702C74.4091 11.8346 75.3825 12.7179 76.568 13.1866C77.7534 13.6552 79.0695 13.6771 80.27 13.248C81.4704 12.819 82.4728 11.9685 83.0896 10.8558L81.0762 10.8444ZM78.4605 4.55387C79.2856 4.54557 80.0872 4.82777 80.7242 5.35087C81.3611 5.87387 81.7925 6.60417 81.9423 7.41317H74.9786C75.1379 6.61257 75.5734 5.89297 76.2094 5.37897C76.8454 4.86507 77.6418 4.58937 78.4605 4.59957V4.55387ZM54.0987 13.5206C55.4194 13.5264 56.6944 13.0388 57.6723 12.1539V13.2004H59.3932V8.32247C59.3966 7.27997 59.0897 6.26007 58.5112 5.39167C57.9328 4.52327 57.1089 3.84557 56.1438 3.44427C55.1788 3.04307 54.116 2.93627 53.09 3.13757C52.0641 3.33887 51.1211 3.83907 50.3806 4.57497C49.64 5.31087 49.1351 6.24927 48.9299 7.27147C48.7246 8.29357 48.8282 9.35347 49.2276 10.3168C49.6269 11.2802 50.3041 12.1038 51.1732 12.6833C52.0424 13.2628 53.0645 13.5721 54.1101 13.5721L54.0987 13.5206ZM54.0987 4.55387C54.8367 4.52657 55.5662 4.71947 56.1936 5.10777C56.8211 5.49607 57.3181 6.06227 57.621 6.73377C57.9239 7.40527 58.019 8.15167 57.894 8.87727C57.7691 9.60297 57.4297 10.275 56.9195 10.8074C56.4093 11.3397 55.7513 11.7082 55.0299 11.8656C54.3084 12.0231 53.5562 11.9623 52.8695 11.6912C52.1828 11.4201 51.593 10.9509 51.1753 10.3436C50.7576 9.73637 50.5312 9.01867 50.525 8.28237C50.508 7.80437 50.5879 7.32777 50.76 6.88117C50.932 6.43467 51.1927 6.02727 51.5263 5.68347C51.8599 5.33967 52.2597 5.06647 52.7017 4.88017C53.1437 4.69397 53.6188 4.59857 54.0987 4.59957V4.55387ZM71.3992 8.19657V0.276367H69.6783V4.40517C68.7826 3.58837 67.6327 3.10327 66.421 3.03097C65.2094 2.95867 64.0095 3.30357 63.0226 4.00797C62.0356 4.71247 61.3214 5.73357 60.9996 6.90037C60.6778 8.06717 60.7679 9.30877 61.2548 10.4173C61.7418 11.5257 62.596 12.4337 63.6744 12.9892C64.7528 13.5446 65.99 13.7138 67.1786 13.4683C68.3672 13.2229 69.4351 12.5777 70.2034 11.6409C70.9718 10.7041 71.3939 9.53247 71.3992 8.32247V8.19657ZM66.1161 11.948C65.3751 11.9766 64.6426 11.7832 64.013 11.3928C63.3833 11.0025 62.8853 10.4331 62.5833 9.75797C62.2813 9.08287 62.189 8.33297 62.3184 7.60517C62.4478 6.87727 62.7929 6.20477 63.3093 5.67427C63.8257 5.14377 64.4896 4.77957 65.2155 4.62877C65.9414 4.47797 66.6959 4.54727 67.3819 4.82797C68.0679 5.10857 68.6538 5.58767 69.0641 6.20337C69.4744 6.81907 69.6903 7.54317 69.684 8.28237C69.7074 8.76297 69.6323 9.24317 69.4633 9.69377C69.2943 10.1445 69.0349 10.556 68.701 10.9033C68.367 11.2507 67.9656 11.5265 67.5212 11.714C67.0768 11.9015 66.5987 11.9967 66.1161 11.9938V11.948ZM32.2723 21.6353H32.8459V18.2671H32.2723V21.6353ZM47.5823 18.2042C47.409 18.2026 47.2391 18.2516 47.0933 18.3451C46.9476 18.4386 46.8324 18.5724 46.762 18.7303C46.6947 18.5703 46.5814 18.4338 46.4365 18.3377C46.2916 18.2417 46.1215 18.1904 45.9475 18.1904C45.7735 18.1904 45.6033 18.2417 45.4584 18.3377C45.3135 18.4338 45.2003 18.5703 45.1329 18.7303V18.227H44.5937C44.5937 18.4672 44.5937 18.7074 44.5937 18.9533V21.5953H45.1673V19.6052C45.1673 18.9991 45.3911 18.7474 45.8041 18.7474C46.2171 18.7474 46.3203 18.9476 46.3203 19.3765V21.6639H46.894V19.6052C46.894 18.9991 47.1177 18.7474 47.5307 18.7474C47.9437 18.7474 48.0469 18.9476 48.0469 19.3765V21.6639H48.6206V19.325C48.5517 18.6045 48.1559 18.2671 47.5708 18.2671L47.5823 18.2042ZM32.2379 17.5866H32.8459V16.9289H32.2379V17.5866ZM34.8765 19.8283L34.6758 19.7482C34.3029 19.6052 34.1022 19.4508 34.1022 19.1763C34.1022 18.9018 34.2914 18.7131 34.6758 18.7131C34.9052 18.7135 35.1319 18.7623 35.3412 18.8561V18.3815C35.1113 18.299 34.8684 18.2583 34.6241 18.2614C34.4875 18.2496 34.3498 18.266 34.2198 18.3096C34.0897 18.3532 33.9701 18.4231 33.8684 18.5148C33.7666 18.6066 33.685 18.7183 33.6285 18.8429C33.572 18.9676 33.5418 19.1025 33.54 19.2392C33.54 19.6681 33.7178 19.8854 34.2054 20.1027L34.5783 20.2686C34.888 20.4058 35.0085 20.5659 35.0085 20.7947C35.0085 21.0234 34.7905 21.2693 34.366 21.2693C34.0821 21.2602 33.8062 21.1732 33.5687 21.0177L33.5343 21.521C33.8185 21.6576 34.1308 21.7261 34.4463 21.7211C34.5894 21.7386 34.7347 21.7241 34.8714 21.6786C35.0082 21.6331 35.1331 21.5577 35.2369 21.458C35.3408 21.3583 35.421 21.2368 35.4718 21.1022C35.5226 20.9677 35.5426 20.8236 35.5305 20.6803C35.5249 20.487 35.4581 20.3004 35.3396 20.1474C35.2211 19.9943 35.057 19.8826 34.8708 19.8283H34.8765ZM30.517 21.1321L29.8459 18.3185H29.1805L28.538 21.1321L27.8955 18.3185H27.3219L28.2168 21.6868H28.7961L29.4443 18.8275L30.1556 21.6868H30.7923L31.6757 18.3185H31.1021L30.517 21.1321ZM37.3661 19.8283L37.1653 19.7482C36.7924 19.6052 36.5917 19.4508 36.5917 19.1763C36.5917 18.9018 36.781 18.7131 37.1653 18.7131C37.3947 18.7135 37.6215 18.7623 37.8307 18.8561V18.3815C37.6008 18.299 37.358 18.2583 37.1137 18.2614C36.977 18.2496 36.8393 18.266 36.7093 18.3096C36.5793 18.3532 36.4596 18.4231 36.3579 18.5148C36.2562 18.6066 36.1745 18.7183 36.118 18.8429C36.0615 18.9676 36.0314 19.1025 36.0295 19.2392C36.0295 19.6681 36.2073 19.8854 36.6949 20.1027L37.0678 20.2686C37.3775 20.4058 37.498 20.5659 37.498 20.7947C37.498 21.0234 37.28 21.2693 36.8555 21.2693C36.5716 21.2602 36.2957 21.1732 36.0582 21.0177L36.0238 21.521C36.308 21.6576 36.6203 21.7261 36.9359 21.7211C37.079 21.7386 37.2242 21.7241 37.361 21.6786C37.4977 21.6331 37.6226 21.5577 37.7265 21.458C37.8303 21.3583 37.9106 21.2368 37.9614 21.1022C38.0121 20.9677 38.0322 20.8236 38.02 20.6803C38.0145 20.487 37.9476 20.3004 37.8291 20.1474C37.7106 19.9943 37.5465 19.8826 37.3603 19.8283H37.3661ZM38.5133 21.6868H39.15V20.9491H38.5477L38.5133 21.6868ZM25.8936 19.0848C25.2282 18.7017 25.1135 18.513 25.1135 18.2213C25.1117 18.1278 25.1294 18.0349 25.1655 17.9485C25.2017 17.8621 25.2554 17.7842 25.3234 17.7197C25.3914 17.6551 25.4721 17.6054 25.5604 17.5736C25.6486 17.5419 25.7426 17.5287 25.8362 17.5351C26.1124 17.5348 26.3836 17.6078 26.6221 17.7467V17.1748C26.3547 17.0729 26.0709 17.0205 25.7846 17.0204C25.6228 17.0009 25.4587 17.016 25.3032 17.0647C25.1477 17.1134 25.0044 17.1945 24.8828 17.3027C24.7613 17.4109 24.6642 17.5437 24.5981 17.6923C24.5321 17.8408 24.4985 18.0017 24.4997 18.1641C24.4997 18.736 24.6833 19.0448 25.5207 19.5423C26.146 19.9198 26.2378 20.1142 26.2378 20.4802C26.2351 20.5827 26.2113 20.6835 26.1679 20.7765C26.1245 20.8694 26.0625 20.9525 25.9856 21.0206C25.9087 21.0887 25.8186 21.1403 25.7209 21.1723C25.6232 21.2042 25.5199 21.2159 25.4175 21.2064C25.103 21.1813 24.7995 21.0792 24.5341 20.9091V21.5095C24.8388 21.6458 25.1696 21.7141 25.5035 21.7097C25.6812 21.7248 25.86 21.7016 26.0278 21.6416C26.1957 21.5815 26.3485 21.4861 26.4759 21.3618C26.6034 21.2374 26.7024 21.0872 26.7662 20.9212C26.83 20.7552 26.8572 20.5775 26.8458 20.4001C26.8917 19.8969 26.6508 19.4909 25.928 19.0848H25.8936ZM42.1157 19.548H43.6128V19.0448H42.1157V17.5808H43.7103V17.0776H41.5593V21.6868H43.7964V21.1836H42.1386L42.1157 19.548ZM50.72 18.2728C50.5428 18.267 50.3677 18.3118 50.2152 18.402C50.0628 18.4922 49.9394 18.6239 49.8596 18.7817V16.7345H49.286V21.0692C49.286 21.2751 49.286 21.4866 49.286 21.6925H49.8252V21.195C49.9049 21.3615 50.0313 21.5014 50.1891 21.5978C50.3469 21.6942 50.5293 21.743 50.7143 21.7383C51.4084 21.7383 51.8615 21.1664 51.8615 20.0227C51.8615 18.879 51.4715 18.2671 50.7774 18.2671L50.72 18.2728ZM50.5881 21.2865C50.0776 21.2865 49.8481 20.8519 49.8481 20.0055C49.8481 19.1592 50.0776 18.7246 50.5881 18.7246C51.0986 18.7246 51.3281 19.1592 51.3281 20.0055C51.3281 20.8519 51.1674 21.2808 50.6454 21.2808L50.5881 21.2865ZM88.487 18.3185H87.914V20.3486C87.914 20.9548 87.633 21.2579 87.197 21.2579C86.7608 21.2579 86.6231 21.0292 86.6231 20.4916V18.3185H86.0495V20.6574C86.0495 21.3951 86.4453 21.7325 87.036 21.7325C87.221 21.7409 87.404 21.6898 87.558 21.5869C87.712 21.484 87.828 21.3346 87.891 21.1607V21.6639H88.43C88.43 21.4237 88.43 21.1836 88.43 20.9377L88.487 18.3185ZM84.254 18.2728C84.069 18.2681 83.8866 18.3168 83.7288 18.4132C83.5711 18.5097 83.4447 18.6496 83.3649 18.8161V18.3185H82.8257C82.8257 18.5244 82.8257 18.736 82.8257 18.9419V23.1164H83.3994V21.2293C83.4791 21.3871 83.6025 21.5189 83.755 21.6091C83.9075 21.6993 84.0826 21.7441 84.2598 21.7383C84.9539 21.7383 85.407 21.1664 85.407 20.0227C85.407 18.879 85.0112 18.2671 84.3114 18.2671L84.254 18.2728ZM84.1221 21.2865C83.6116 21.2865 83.3821 20.8519 83.3821 20.0055C83.3821 19.1592 83.6116 18.7246 84.1221 18.7246C84.6326 18.7246 84.8621 19.1592 84.8621 20.0055C84.8621 20.8519 84.6843 21.2808 84.1737 21.2808L84.1221 21.2865ZM81.0475 18.2728C80.8742 18.2713 80.7043 18.3202 80.5585 18.4137C80.4128 18.5072 80.2976 18.6411 80.2272 18.7989C80.1599 18.6389 80.0466 18.5024 79.9017 18.4063C79.7568 18.3103 79.5867 18.2591 79.4127 18.2591C79.2387 18.2591 79.0685 18.3103 78.9236 18.4063C78.7787 18.5024 78.6655 18.6389 78.5981 18.7989V18.2957H78.0589C78.0589 18.5359 78.0589 18.776 78.0589 19.0219V21.6639H78.6325V19.6052C78.6325 18.9991 78.8563 18.7474 79.2693 18.7474C79.6823 18.7474 79.7855 18.9476 79.7855 19.3765V21.6639H80.3591V19.6052C80.3591 18.9991 80.5829 18.7474 80.9959 18.7474C81.4089 18.7474 81.5121 18.9476 81.5121 19.3765V21.6639H82.0857V19.325C82.0857 18.6045 81.6842 18.2671 81.1049 18.2671L81.0475 18.2728ZM91.373 21.7039H91.946V18.3357H91.373V21.7039ZM97.964 18.8447C97.886 18.6903 97.768 18.5593 97.623 18.4648C97.478 18.3704 97.311 18.316 97.138 18.3071C96.38 18.3071 95.91 18.879 95.91 20.0227C95.91 21.1664 96.38 21.7383 97.057 21.7383C97.245 21.7369 97.428 21.6825 97.585 21.5812C97.743 21.4799 97.868 21.3361 97.946 21.1664V21.6925C97.965 21.8226 97.954 21.9553 97.914 22.0805C97.874 22.2057 97.806 22.3201 97.714 22.415C97.623 22.5099 97.511 22.5827 97.387 22.628C97.264 22.6732 97.131 22.6897 97 22.6761C96.67 22.6625 96.349 22.5618 96.071 22.3845V22.9563C96.387 23.076 96.72 23.1455 97.057 23.1622C97.242 23.1836 97.429 23.1651 97.606 23.108C97.783 23.0509 97.946 22.9564 98.083 22.8311C98.22 22.7058 98.329 22.5525 98.401 22.3817C98.473 22.2109 98.508 22.0266 98.503 21.8412V18.9419C98.503 18.736 98.503 18.5244 98.503 18.33H97.964V18.8447ZM97.195 21.3208C96.684 21.3208 96.455 20.8862 96.455 20.0398C96.455 19.1935 96.684 18.7589 97.195 18.7589C97.706 18.7589 97.935 19.1935 97.935 20.0398C97.935 20.8862 97.774 21.2808 97.264 21.2808L97.195 21.3208ZM99.363 20.9834V21.7211H100V20.9834H99.363ZM94.229 18.3071C94.044 18.2988 93.861 18.3498 93.708 18.4527C93.554 18.5557 93.437 18.7051 93.375 18.879V18.3757H92.835C92.835 18.6159 92.835 18.8561 92.835 19.102V21.744H93.409V19.7139C93.409 19.1077 93.684 18.8046 94.126 18.8046C94.568 18.8046 94.7 19.0334 94.7 19.5709V21.744H95.273V19.4051C95.285 18.6045 94.889 18.2671 94.298 18.2671L94.229 18.3071ZM91.361 17.6266H91.969V16.969H91.361V17.6266ZM90.128 17.5008L89.554 17.6666V18.3529H89.015V18.8046H89.6V20.972C89.6 21.5438 89.87 21.7726 90.38 21.7726C90.541 21.7682 90.699 21.7393 90.851 21.6868V21.235C90.744 21.289 90.626 21.3183 90.507 21.3208C90.254 21.3208 90.157 21.1778 90.157 20.7947V18.8046H90.851V18.3529H90.174L90.128 17.5008ZM63.1676 18.3071C62.3244 18.3071 61.8598 18.9819 61.8598 20.0227C61.8598 21.0635 62.3244 21.7383 63.2193 21.7383C63.5455 21.7394 63.8681 21.6711 64.1658 21.5381V21.0349C63.9405 21.2015 63.6714 21.2989 63.3914 21.3151C62.7776 21.3151 62.4678 20.9491 62.4678 20.1714H64.3608V19.874C64.3608 18.879 63.9593 18.2671 63.2135 18.2671L63.1676 18.3071ZM62.4736 19.7196C62.4736 18.9362 62.8063 18.6674 63.1619 18.6674C63.6036 18.6674 63.8273 19.0162 63.8273 19.7196H62.4736ZM58.0509 16.7288H57.4773V18.776C57.3975 18.6182 57.2741 18.4864 57.1217 18.3963C56.9692 18.3061 56.7941 18.2613 56.6169 18.2671C55.9228 18.2671 55.4696 18.8389 55.4696 19.9827C55.4696 21.1264 55.94 21.6982 56.6169 21.6982C56.8019 21.703 56.9843 21.6542 57.1421 21.5578C57.2999 21.4614 57.4263 21.3215 57.506 21.155V21.6525H58.0509C58.0509 21.4466 58.0509 21.235 58.0509 21.0292V16.7288ZM56.7545 21.3036C56.244 21.3036 56.0146 20.869 56.0146 20.0227C56.0146 19.1763 56.244 18.7417 56.7545 18.7417C57.2651 18.7417 57.4945 19.1763 57.4945 20.0227C57.4945 20.869 57.2479 21.2808 56.7373 21.2808L56.7545 21.3036ZM61.2804 16.7288H60.7068V18.776C60.627 18.6182 60.5036 18.4864 60.3512 18.3963C60.1987 18.3061 60.0236 18.2613 59.8464 18.2671C59.1523 18.2671 58.6991 18.8389 58.6991 19.9827C58.6991 21.1264 59.1695 21.6982 59.8464 21.6982C60.0314 21.703 60.2138 21.6542 60.3716 21.5578C60.5294 21.4614 60.6558 21.3215 60.7355 21.155V21.6525H61.2747C61.2747 21.4466 61.2747 21.235 61.2747 21.0292L61.2804 16.7288ZM59.984 21.3036C59.4735 21.3036 59.2441 20.869 59.2441 20.0227C59.2441 19.1763 59.4735 18.7417 59.984 18.7417C60.4946 18.7417 60.724 19.1763 60.724 20.0227C60.724 20.869 60.4716 21.2808 59.9668 21.2808L59.984 21.3036ZM53.7832 18.29C52.9399 18.29 52.4753 18.9647 52.4753 20.0055C52.4753 21.0463 52.9399 21.7211 53.8348 21.7211C54.161 21.7222 54.4836 21.654 54.7813 21.521V21.0177C54.556 21.1843 54.2869 21.2817 54.0069 21.2979C53.3931 21.2979 53.0833 20.9319 53.0833 20.1542H54.9935V19.8568C54.9476 18.879 54.5231 18.2671 53.766 18.2671L53.7832 18.29ZM53.0432 19.7196C53.0432 18.9362 53.3759 18.6674 53.7315 18.6674C54.1732 18.6674 54.3969 19.0162 54.3969 19.7196H53.0432ZM76.0684 18.2442C75.1736 18.2442 74.709 18.919 74.709 19.9598C74.709 21.0006 75.1736 21.6754 76.0684 21.6754C76.9633 21.6754 77.4279 21.0006 77.4279 19.9598C77.4279 18.919 76.9805 18.2671 76.0684 18.2671V18.2442ZM76.0684 21.2579C75.5407 21.2579 75.2941 20.8233 75.2941 19.9769C75.2941 19.1306 75.5407 18.696 76.0684 18.696C76.5962 18.696 76.8428 19.1306 76.8428 19.9769C76.8428 20.8233 76.5962 21.2808 76.0684 21.2808V21.2579ZM71.1926 19.3479C71.1926 20.5945 71.8064 21.7039 73.2749 21.7039C73.5612 21.6999 73.8454 21.6537 74.1181 21.5667V20.9948C73.8666 21.138 73.5818 21.2129 73.2921 21.2122C72.2825 21.2122 71.8064 20.4287 71.8064 19.2392C71.8064 18.0498 72.4948 17.5237 73.2519 17.5237C73.5567 17.5155 73.8574 17.5949 74.1181 17.7524V17.1805C73.8427 17.0639 73.5454 17.0074 73.2462 17.0147C72.0359 17.0261 71.1926 17.9354 71.1926 19.3708V19.3479ZM67.4698 16.7059H66.8962V18.7532C66.8164 18.5953 66.693 18.4636 66.5406 18.3734C66.3881 18.2832 66.2129 18.2384 66.0358 18.2442C65.3417 18.2442 64.8885 18.8161 64.8885 19.9598C64.8885 21.1035 65.3589 21.6754 66.0358 21.6754C66.2208 21.6801 66.4032 21.6313 66.561 21.5349C66.7188 21.4385 66.8452 21.2986 66.9249 21.1321V21.6296H67.4641C67.4641 21.4237 67.4641 21.2121 67.4641 21.0063L67.4698 16.7059ZM66.1734 21.2808C65.6629 21.2808 65.4335 20.8462 65.4335 19.9998C65.4335 19.1535 65.6629 18.7188 66.1734 18.7188C66.684 18.7188 66.9134 19.1535 66.9134 19.9998C66.9134 20.8462 66.6553 21.2808 66.1734 21.2808ZM68.3417 21.6811H68.9498V20.9434H68.3131L68.3417 21.6811Z" fill="white"/>
<path d="M10.526 9.78068C10.2364 9.77968 9.9533 9.69468 9.7113 9.53608C9.4693 9.37738 9.2789 9.15188 9.1633 8.88708C9.0478 8.62238 9.012 8.32978 9.0605 8.04508C9.1089 7.76048 9.2395 7.49598 9.4362 7.28408C9.6329 7.07208 9.8872 6.92188 10.1682 6.85168C10.4491 6.78138 10.7445 6.79428 11.0182 6.88858C11.2919 6.98298 11.5322 7.15468 11.7096 7.38298C11.8871 7.61118 11.994 7.88598 12.0174 8.17368C11.9691 6.93208 11.4819 5.74738 10.642 4.82928C9.8022 3.91108 8.6637 3.31848 7.428 3.15628C6.1922 2.99408 4.9387 3.27268 3.8891 3.94288C2.8394 4.61298 2.0613 5.63158 1.6922 6.81838H1.4914C1.0959 6.81838 0.7165 6.97508 0.4368 7.25388C0.1571 7.53278 0 7.91088 0 8.30528C0 8.69958 0.1571 9.07778 0.4368 9.35658C0.7165 9.63548 1.0959 9.79208 1.4914 9.79208H1.6807C2.0487 10.9867 2.8303 12.0122 3.8862 12.6857C4.9421 13.3592 6.2036 13.6369 7.4458 13.4694C8.688 13.3018 9.8301 12.6998 10.6685 11.7707C11.5068 10.8416 11.9869 9.64588 12.0232 8.39678C11.9956 8.77348 11.8257 9.12578 11.5479 9.38258C11.2701 9.63938 10.9049 9.78168 10.526 9.78068ZM5.9944 9.78068C5.7004 9.77838 5.4136 9.68958 5.1701 9.52528C4.9266 9.36108 4.7373 9.12878 4.6258 8.85758C4.5143 8.58638 4.4858 8.28838 4.5437 8.00098C4.6016 7.71368 4.7434 7.44978 4.9513 7.24248C5.1592 7.03528 5.4239 6.89388 5.7121 6.83618C6.0003 6.77848 6.2993 6.80688 6.5713 6.91798C6.8434 7.02918 7.0764 7.21788 7.2411 7.46068C7.4059 7.70338 7.495 7.98928 7.4973 8.28238C7.498 8.47888 7.4598 8.67358 7.3849 8.85528C7.31 9.03708 7.1999 9.20228 7.0608 9.34148C6.9217 9.48068 6.7564 9.59118 6.5744 9.66648C6.3923 9.74188 6.1972 9.78068 6.0001 9.78068H5.9944Z" fill="#C1D72E"/>
</svg>
