<svg width="160" height="36" viewBox="0 0 160 36" fill="none" xmlns="http://www.w3.org/2000/svg">
<g clip-path="url(#clip0_2216_5207)">
<path d="M33.5 1.6001H0V5.8001H14.6V34.4001H18.9V5.8001H33.5V1.6001Z" fill="white"/>
<path d="M159.6 1.6001H154.1L143.8 14.6001L133.5 1.6001H100.6V34.4001H100.7H133.5L143.8 21.4001L154.1 34.4001H159.6L146.5 18.0001L159.6 1.6001ZM131.4 30.1001H104.9V19.9001H130.5V15.7001H104.9V5.8001H131.4L141 18.0001L131.4 30.1001Z" fill="white"/>
<path d="M66.8 34.4002H71V7.5002L66.8 2.7002V34.4002Z" fill="white"/>
<path d="M54.6 1.4C52.4 0.5 50.1 0 47.7 0C38 0 30.1 7.8 30.1 17.6C30.1 27.3 37.9 35.2 47.7 35.3C57.4 35.3 65.3 27.5 65.4 17.7C65.3 10.7 61.3 4.7 54.6 1.4ZM47.7 30.6C40.5 30.6 34.7 24.7 34.7 17.6C34.7 10.4 40.6 4.6 47.7 4.6C49.5 4.6 51.3 5 53 5.7C57.9 8.3 60.6 12.7 60.6 17.6C60.7 24.8 54.9 30.6 47.7 30.6Z" fill="white"/>
<path d="M75 34.4H89.9L75 15.5V34.4Z" fill="white"/>
<path d="M99.7 10.9001C99.7 6.6001 96.1 1.6001 90.9 1.6001H74.6L78.4 5.8001H90.3C92.8 5.9001 94.7 8.0001 94.6 10.5001V10.6001C94.8 13.1001 92.9 15.2001 90.4 15.4001H90.3H84.5L80.9 10.8001H75.2L93.5 34.4001H99.2L88.1 19.9001H91.4C96.1 19.9001 99.7 15.2001 99.7 10.9001Z" fill="white"/>
</g>
<defs>
<clipPath id="clip0_2216_5207">
<rect width="159.6" height="35.2" fill="white"/>
</clipPath>
</defs>
</svg>
