<svg width="170" height="26" viewBox="0 0 170 26" fill="none" xmlns="http://www.w3.org/2000/svg">
<g clip-path="url(#clip0_2394_5264)">
<path d="M162.656 25.4526H169.998L162.422 0.450489L151.989 0.450064L144.414 25.4522H151.757L153.096 20.8241H161.311L162.656 25.4526ZM154.686 15.2646L157.184 6.62644H157.227L159.726 15.2646H154.686ZM36.6532 25.901C44.1925 25.901 47.8368 24.5729 48.3531 17.7699C48.4764 16.1511 48.4998 14.4892 48.4998 12.9486C48.5019 11.4133 48.4764 9.74968 48.3531 8.13111C47.8368 1.32597 44.1925 0 36.6532 0C29.1139 0 25.4717 1.32597 24.9575 8.13111C24.8321 9.74968 24.8066 11.4133 24.8066 12.9486C24.8087 14.4892 24.8321 16.1511 24.9575 17.7699C25.4717 24.5729 29.1139 25.901 36.6532 25.901ZM31.9124 12.9486C31.9124 11.5757 31.9464 10.7641 31.9762 10.1619C32.1674 6.30281 33.691 5.85296 36.6532 5.85296C39.6175 5.85296 41.1411 6.30281 41.3302 10.1619C41.3599 10.7639 41.3961 11.5754 41.3961 12.9486C41.3961 14.326 41.3599 15.139 41.3302 15.7397C41.1411 19.5995 39.6175 20.0502 36.6532 20.0502C33.691 20.0502 32.1674 19.5995 31.9762 15.7397C31.9464 15.139 31.9124 14.326 31.9124 12.9486ZM0.0020752 0.461539V6.69422H7.47594V25.4632H14.9526V6.69422H22.4266V0.461539H0.0020752ZM114.717 25.4526V0.450064H107.622V25.4526H114.717ZM86.1687 9.57863V0.450064H79.1139V25.4526H86.1687V15.8113H94.3667V25.4526H101.419V0.450064H94.3667V9.57863H86.1687ZM138.054 12.3848C141.196 11.5814 142.119 9.704 142.119 6.99044C142.119 1.49554 138.661 0.449851 133.746 0.449851H121.007V25.452H134.377C140.533 25.452 142.603 22.8 142.603 18.7212C142.603 15.8774 141.953 13.3689 138.054 12.3848ZM128.06 15.1825H132.952C134.928 15.1825 135.34 16.0482 135.34 17.4562C135.34 18.8655 134.566 19.7335 132.952 19.7335H128.06V15.1825ZM128.06 6.16745H132.952C134.229 6.16745 135.019 6.77327 135.019 8.23035C135.019 9.47939 134.237 10.2482 132.952 10.2482H128.06V6.16745ZM52.6115 17.2476H59.337C59.3434 18.4605 59.4985 19.2711 60.0871 19.7189C60.7565 20.2233 61.3557 20.3899 63.3425 20.3899C65.255 20.3899 67.3502 20.3899 67.3502 18.0344C67.3502 16.1768 66.1793 15.7529 64.0182 15.6377C58.6591 15.3538 56.7212 15.2023 54.7258 13.7199C53.3659 12.7091 52.6604 10.7412 52.6604 8.0799C52.6604 3.5544 54.2392 1.96685 56.5172 0.859116C58.8674 -0.284318 68.0918 -0.284318 70.5737 0.859116C73.6953 2.29728 73.7866 5.41075 73.7866 8.29877H67.0782C67.0654 6.82639 66.7339 6.41054 66.4641 6.13664C65.7671 5.5187 64.7747 5.38823 63.3425 5.38823C61.6086 5.38823 59.6026 5.46643 59.6026 7.57204C59.6026 9.1785 60.2975 9.84998 62.1207 9.96813C64.626 10.1284 69.5622 10.2862 71.3217 11.3245C73.7888 12.7837 74.4284 14.7582 74.4284 17.9796C74.4284 22.6349 72.7624 24.0013 70.4441 25.0255C67.7688 26.207 58.8334 26.207 55.9286 24.9341C52.6774 23.5168 52.6115 20.6919 52.6115 17.2476Z" fill="#E61E1E"/>
</g>
<defs>
<clipPath id="clip0_2394_5264">
<rect width="170" height="25.9016" fill="white"/>
</clipPath>
</defs>
</svg>
