<svg width="216" height="34" viewBox="0 0 216 34" fill="none" xmlns="http://www.w3.org/2000/svg">
<g clip-path="url(#clip0_2216_5218)">
<path d="M206.666 32.3398H215.995L206.369 0.572386L193.113 0.571846L183.487 32.3393H192.818L194.519 26.4588H204.957L206.666 32.3398ZM196.539 19.395L199.714 8.41947H199.768L202.943 19.395H196.539ZM46.5685 32.9095C56.1478 32.9095 60.7782 31.222 61.4343 22.5782C61.5909 20.5214 61.6206 18.4098 61.6206 16.4523C61.6233 14.5016 61.5909 12.3878 61.4343 10.3313C60.7782 1.68476 56.1478 0 46.5685 0C36.9891 0 32.3614 1.68476 31.708 10.3313C31.5487 12.3878 31.5163 14.5016 31.5163 16.4523C31.519 18.4098 31.5487 20.5214 31.708 22.5782C32.3614 31.222 36.9891 32.9095 46.5685 32.9095ZM40.5449 16.4523C40.5449 14.7079 40.5881 13.6768 40.6259 12.9116C40.8689 8.00827 42.8047 7.4367 46.5685 7.4367C50.3349 7.4367 52.2707 8.00827 52.511 12.9116C52.5488 13.6765 52.5947 14.7076 52.5947 16.4523C52.5947 18.2024 52.5488 19.2354 52.511 19.9987C52.2707 24.9028 50.3349 25.4755 46.5685 25.4755C42.8047 25.4755 40.8689 24.9028 40.6259 19.9987C40.5881 19.2354 40.5449 18.2024 40.5449 16.4523ZM0 0.586425V8.5056H9.49621V32.3533H18.9959V8.5056H28.4924V0.586425H0ZM145.756 32.3398V0.571846H136.741V32.3398H145.756ZM109.482 12.1705V0.571846H100.519V32.3398H109.482V20.0897H119.899V32.3398H128.86V0.571846H119.899V12.1705H109.482ZM175.407 15.736C179.4 14.7152 180.572 12.3298 180.572 8.88197C180.572 1.90021 176.179 0.571576 169.934 0.571576H153.748V32.339H170.736C178.557 32.339 181.187 28.9695 181.187 23.787C181.187 20.1736 180.361 16.9864 175.407 15.736ZM162.709 19.2908H168.924C171.435 19.2908 171.959 20.3907 171.959 22.1797C171.959 23.9703 170.976 25.0732 168.924 25.0732H162.709V19.2908ZM162.709 7.83629H168.924C170.547 7.83629 171.551 8.60604 171.551 10.4574C171.551 12.0444 170.557 13.0212 168.924 13.0212H162.709V7.83629ZM66.8449 21.9145H75.3902C75.3983 23.4557 75.5954 24.4857 76.3433 25.0546C77.1938 25.6955 77.9552 25.9072 80.4796 25.9072C82.9095 25.9072 85.5717 25.9072 85.5717 22.9143C85.5717 20.5541 84.084 20.0154 81.3382 19.8691C74.529 19.5084 72.0666 19.3159 69.5314 17.4324C67.8034 16.148 66.9071 13.6476 66.9071 10.2662C66.9071 4.51618 68.9131 2.49906 71.8074 1.09158C74.7936 -0.361251 86.514 -0.361251 89.6675 1.09158C93.6337 2.9189 93.7498 6.87484 93.7498 10.5443H85.2261C85.2099 8.67354 84.7887 8.14516 84.4458 7.79714C83.5602 7.012 82.2994 6.84622 80.4796 6.84622C78.2765 6.84622 75.7277 6.94558 75.7277 9.62094C75.7277 11.6621 76.6106 12.5153 78.9271 12.6654C82.1104 12.869 88.3823 13.0696 90.6179 14.3888C93.7525 16.2428 94.5652 18.7516 94.5652 22.8447C94.5652 28.7597 92.4484 30.4957 89.5028 31.7971C86.1036 33.2983 74.7504 33.2983 71.0595 31.681C66.9286 29.8802 66.8449 26.2909 66.8449 21.9145Z" fill="#E61E1E"/>
</g>
<defs>
<clipPath id="clip0_2216_5218">
<rect width="216" height="32.9103" fill="white" transform="translate(0 0.276367)"/>
</clipPath>
</defs>
</svg>
