<svg width="125" height="50" viewBox="0 0 125 50" fill="none" xmlns="http://www.w3.org/2000/svg">
<g clip-path="url(#clip0_333_18)">
<path d="M17.9173 14.3151H0V18.2781H6.61217V35.1691H11.3051V18.2781H17.9173V14.3151Z" fill="white"/>
<path d="M30.0167 13.6882C23.9112 13.6882 18.965 18.6388 18.965 24.74C18.965 30.8412 23.9112 35.7918 30.0167 35.7918C36.1223 35.7918 41.0685 30.8412 41.0685 24.74C41.0685 18.6388 36.1223 13.6882 30.0167 13.6882ZM35.4353 28.0847C34.7182 29.9138 33.0867 31.2792 31.1073 31.627C30.7552 31.6871 30.3903 31.7257 30.021 31.7257C29.6518 31.7257 29.2868 31.6914 28.9347 31.627C26.9554 31.2792 25.3238 29.9095 24.6068 28.0847C24.1989 27.05 23.9756 25.9207 23.9756 24.74C23.9756 23.5593 24.2032 22.43 24.6068 21.391C25.3238 19.5662 26.9554 18.1965 28.9347 17.8487C29.2868 17.7843 29.6518 17.75 30.021 17.75C30.3903 17.75 30.7552 17.7843 31.1073 17.8487C33.0867 18.1965 34.7182 19.5662 35.4353 21.391C35.8432 22.43 36.0664 23.555 36.0664 24.74C36.0664 25.925 35.8432 27.05 35.4353 28.0847Z" fill="white"/>
<path d="M41.1458 14.3151H46.6716L51.8326 23.2801L56.9935 14.3151H62.5151L54.1769 27.4492V35.1691H49.484V27.4492L41.1458 14.3151Z" fill="white"/>
<path d="M62.6052 24.74C62.6052 18.6388 67.5515 13.6882 73.657 13.6882C79.7625 13.6882 84.7088 18.6388 84.7088 24.74C84.7088 30.8412 79.7625 35.7918 73.657 35.7918C67.5515 35.7918 62.6052 30.8412 62.6052 24.74ZM73.657 31.73C74.0262 31.73 74.3912 31.6957 74.7433 31.6312C76.7226 31.2835 78.3542 29.9138 79.0712 28.089C79.4791 27.0543 79.7024 25.925 79.7024 24.74C79.7024 23.555 79.4791 22.43 79.0712 21.3953C78.3542 19.5705 76.7226 18.2008 74.7433 17.853C74.3912 17.7929 74.0262 17.7586 73.657 17.7586C73.2877 17.7586 72.9228 17.7929 72.5707 17.853C70.5914 18.2008 68.9555 19.5705 68.2427 21.3953C67.8348 22.43 67.6116 23.5593 67.6116 24.74C67.6116 25.9207 67.8391 27.05 68.2427 28.089C68.9598 29.9138 70.5914 31.2835 72.5707 31.6312C72.9228 31.6914 73.2877 31.73 73.657 31.73Z" fill="white"/>
<path d="M118.07 30.5621H109.195L107.486 35.152H102.27L110.715 14.3022H116.55L125 35.152H119.783L118.066 30.5664L118.07 30.5621ZM116.705 26.9125L113.635 18.6774L110.56 26.9125H116.709H116.705Z" fill="white"/>
<path d="M103.648 14.3151H85.7306V18.2781H92.3428V35.1691H97.0357L97.0314 18.2781H103.648V14.3151Z" fill="white"/>
</g>
<defs>
<clipPath id="clip0_333_18">
<rect width="125" height="22.1035" fill="white" transform="translate(0 13.6882)"/>
</clipPath>
</defs>
</svg>
