<svg width="125" height="50" viewBox="0 0 125 50" fill="none" xmlns="http://www.w3.org/2000/svg">
<g clip-path="url(#clip0_69_473)">
<g clip-path="url(#clip1_69_473)">
<path d="M0.124997 34.3332C0.124997 35.5713 1.15949 36.8093 2.57018 36.8093H11.9794V46.3341C11.9794 47.5721 13.0139 48.8102 14.4246 48.8102H22.4695V26.1905H0.124878L0.124997 34.3332ZM29.9494 1.19036C20.1176 1.19036 12.2628 9.09482 12.2628 18.8555V22.6186H22.1399V18.8555C22.1399 14.6186 25.5744 11.1904 29.9491 11.1904C34.2765 11.1904 37.2881 14.2368 37.2881 18.7603C37.2881 23.2377 34.0417 26.5231 29.7122 26.5231H25.9967V36.5204H29.7122C39.3583 36.5204 47.1679 28.5707 47.1679 18.7588C47.1679 8.57102 39.8765 1.19006 29.9491 1.19006" fill="#4ACBD6"/>
<path d="M125.125 36.8095L118.961 29.7634L124.466 23.4292H121.029L116.092 29.3339V17.3842L113.174 18.8592V36.0494C113.174 36.4768 113.503 36.8112 113.88 36.8112H116.092V30.1449L121.548 36.8112H125.125L125.125 36.8095ZM104.048 23.0467C101.695 23.0467 99.2482 24.2872 98.0256 26.0955V36.0952C98.0256 36.475 98.3565 36.8095 98.7315 36.8095H100.943V27.286C101.647 26.3825 102.778 25.811 104.048 25.811C106.071 25.811 107.528 27.4289 107.528 29.5717V36.8095H110.398V29.4765C110.399 25.811 107.67 23.047 104.048 23.047M93.6046 17.097C92.5237 17.097 91.6285 17.9554 91.6285 19.0494C91.6285 19.5732 91.8154 20.0005 92.1451 20.3351H95.0629C95.3915 20.0005 95.5796 19.5732 95.5796 19.0494C95.5808 17.9542 94.6867 17.097 93.6046 17.097ZM95.0642 36.8095V23.4289H92.1464V36.0953C92.1464 36.475 92.4773 36.8095 92.8523 36.8095H95.0642ZM86.2656 36.0953C86.2656 36.475 86.5966 36.8095 86.9716 36.8095H89.1834V17.384L86.2656 18.8589V36.0953ZM79.7267 31.5726H83.679V28.6192H78.3148L79.7267 31.5726ZM69.4246 23.192C66.9318 23.192 64.2972 24.5253 62.9796 26.4777V41.1417C62.9796 41.5238 63.3082 41.856 63.6856 41.856H65.895V27.6682C66.6009 26.6194 67.9188 25.9527 69.3772 25.9527C71.6343 25.9527 73.2819 27.6682 73.2819 30.0956C73.2819 32.4777 71.6343 34.2873 69.3772 34.2873H67.307V36.811H69.4248C73.3295 36.811 76.1983 34.0015 76.1983 30.097C76.1971 26.1434 73.2817 23.1926 69.4248 23.1926M56.3465 32.3327V26.0485H60.1096V23.4295H56.3465V19.3843L53.4287 20.8592V32.9554C53.4287 35.4303 54.887 36.8125 57.4751 36.8125H61.2382V34.2888H58.2287C56.8156 34.2876 56.3465 33.7612 56.3465 32.3327Z" fill="white"/>
</g>
</g>
<defs>
<clipPath id="clip0_69_473">
<rect width="125" height="50" fill="white"/>
</clipPath>
<clipPath id="clip1_69_473">
<rect width="125" height="47.619" fill="white" transform="translate(0.125 1.19043)"/>
</clipPath>
</defs>
</svg>
