<svg width="53" height="51" viewBox="0 0 53 51" fill="none" xmlns="http://www.w3.org/2000/svg">
<g clip-path="url(#clip0_2394_5266)">
<path d="M8.8996 51C6.2988 51 4.06375 50.2279 2.47888 48.8056C0.894024 47.3833 0 45.3514 0 42.9538V8.5745C0 6.01434 0.772112 3.81992 2.35697 2.31633C3.94183 0.772112 6.2988 0 9.26534 0H43.6446C46.5299 0 48.6837 0.731474 50.1466 2.19442C51.6096 3.61673 52.2598 5.68924 52.2191 8.12749V44.0916C52.2191 47.5865 52.2191 50.3904 52.2191 50.3904V51H8.8996Z" fill="#00A7E5"/>
<path d="M27.8366 42.0597C28.5681 42.7099 29.3402 43.3601 32.0223 43.3601H42.6693C42.6693 43.3601 41.8972 41.8159 41.0844 41.2063C40.0685 40.4342 38.9713 40.353 37.8334 40.353H26.8207C26.8613 40.3936 27.1051 41.4095 27.8366 42.0597ZM25.0733 35.3952C25.3984 36.0047 26.2518 36.3705 27.1864 36.3705C27.1864 36.3705 28.7713 36.4518 29.7466 36.3705C30.5593 36.3299 31.0063 36.2892 31.5753 36.0047C32.0629 35.7203 32.6725 35.3139 33.0382 34.0135L36.6549 20.4C36.9394 19.3434 37.0207 18.6932 36.6549 18.1243C36.1673 17.3928 35.2326 17.2302 34.2573 17.2302C34.2573 17.2302 32.9569 17.2302 32.1442 17.2302C31.0876 17.2302 30.3968 17.3928 29.8685 17.6773C29.3402 18.0024 28.8526 18.5713 28.5681 19.6279L25.0326 33.5665C25.0326 33.5259 24.7075 34.6637 25.0733 35.3952ZM38.4836 34.5824C38.1179 35.9641 37.5896 36.9801 36.6143 37.5896C35.639 38.1992 34.4605 38.4024 31.941 38.3617C31.941 38.3617 26.9832 38.3617 24.5043 38.3617C23.1633 38.3617 20.847 38.1585 19.9123 36.9394C18.8964 35.639 19.3434 34.2573 19.6685 32.835L23.1227 19.2215C23.1227 19.2215 23.5697 16.9051 24.8701 16.0924C26.0892 15.3609 27.796 15.4016 30.5593 15.4016H37.3458C37.3458 15.4016 40.8406 15.239 41.9784 16.9051C42.9131 18.1649 42.4255 19.6685 42.1004 21.0908L38.4836 34.5824ZM36.0047 9.02148H13.6948C12.3537 9.02148 11.094 9.1434 9.99677 10.0374C9.30594 10.5657 9.18402 10.9721 8.77765 11.7442H13.0039C14.7107 11.7442 14.9952 12.5569 14.5075 14.5482L11.6223 26.0079C11.0533 28.3649 10.8908 30.3968 12.2318 32.388C13.3697 34.0948 15.0765 34.2167 15.0765 34.2167L19.9529 15.4828C19.9529 15.4828 20.278 13.3697 21.4565 12.5569C22.1474 12.0693 23.082 11.9474 24.1792 11.9474H29.5434C30.6 11.9474 32.9569 12.0287 34.1761 11.2565C35.0701 10.6063 35.5577 9.95615 36.0047 9.02148Z" fill="white"/>
</g>
<defs>
<clipPath id="clip0_2394_5266">
<rect width="52.2191" height="51" fill="white"/>
</clipPath>
</defs>
</svg>
