<svg width="186" height="13" viewBox="0 0 186 13" fill="none" xmlns="http://www.w3.org/2000/svg">
<path d="M160.2 10.3186V7.82737H167.817V5.51225H160.2V3.07623H169.965V0.639648H157.146V12.8156H170.303V10.3163L160.2 10.3186Z" fill="white"/>
<path d="M80.2581 0.602715V3.07187H72.9193C69.9718 3.07187 68.5134 4.78945 68.5128 6.73373C68.5122 8.67801 69.995 10.3735 72.9198 10.3735H80.2581V12.8549H72.1828C67.7601 12.8461 65.5752 9.89049 65.5752 6.72908C65.5752 3.56767 67.7601 0.601562 72.1828 0.601562L80.2581 0.602715Z" fill="white"/>
<path d="M31.409 0.640625H17.3428V2.95283H22.8454V12.8178H25.9034V2.954H31.4084L31.409 0.640625Z" fill="white"/>
<path d="M54.8387 7.53264L57.3038 3.38951L59.7672 7.53264H54.8387ZM62.9088 12.822H66.4498L59.0987 0.636719H55.4194L48.105 12.8156H51.6959L53.4612 9.85125H61.1412L62.9088 12.822Z" fill="white"/>
<path d="M152.639 0.642578L150.276 9.51068H150.242L147.742 0.642578H144.429L141.93 9.51068H141.896L139.532 0.642578H136.21L140.081 12.8191H143.505L146.074 4.15506H146.099L148.668 12.8191H152.092L155.963 0.642578H152.639Z" fill="white"/>
<path d="M114.265 5.74744H107.683V2.95222H114.251C114.442 2.93026 114.636 2.9508 114.817 3.01239C114.999 3.07399 115.165 3.1751 115.304 3.30846C115.442 3.44183 115.549 3.60413 115.617 3.78373C115.685 3.96332 115.712 4.15577 115.697 4.34722C115.712 4.53771 115.685 4.72914 115.617 4.90798C115.55 5.08682 115.444 5.2487 115.308 5.38216C115.171 5.51562 115.007 5.6174 114.826 5.68032C114.646 5.74324 114.454 5.76577 114.264 5.74629M114.755 0.637695H104.623V12.8183H107.681V8.06721H114.759C117.931 8.07128 118.742 6.00087 118.742 4.34722C118.742 2.57441 117.928 0.637695 114.754 0.637695" fill="white"/>
<path d="M181.509 5.74544H174.97V2.94673L181.496 2.95138C182.494 2.95138 182.941 3.47972 182.941 4.27313C182.958 4.46724 182.933 4.66266 182.867 4.84611C182.801 5.02956 182.697 5.19675 182.561 5.33635C182.425 5.47594 182.261 5.58467 182.079 5.65516C181.898 5.72564 181.703 5.75624 181.509 5.74486M184.976 6.7417C185.3 6.44071 185.557 6.07569 185.731 5.6699C185.905 5.2641 185.993 4.82642 185.989 4.38474C185.989 2.61019 185.217 0.618248 181.979 0.636848H171.912V12.8181H174.97V8.06636H181.078C182.357 8.04892 182.994 8.7598 182.938 9.79733C182.938 10.5797 182.938 12.8198 182.938 12.8198H185.999V8.93068C185.999 7.2096 184.976 6.74519 184.976 6.74519" fill="white"/>
<path d="M42.6175 5.7474H36.079V2.94868L42.6053 2.95335C43.6027 2.95335 44.0503 3.4817 44.0503 4.2751C44.0667 4.46915 44.0412 4.66445 43.9755 4.84778C43.9098 5.03112 43.8055 5.1982 43.6697 5.33771C43.5338 5.47722 43.3695 5.5859 43.188 5.65638C43.0065 5.72687 42.8119 5.75751 42.6175 5.74624M46.0858 6.74308C46.4088 6.44195 46.6656 6.07687 46.8398 5.67109C47.014 5.2653 47.1019 4.82771 47.0978 4.38612C47.0978 2.61157 46.3253 0.620201 43.0871 0.638801H33.0205V12.8189H36.0784V8.06716H42.1874C43.4661 8.04972 44.1055 8.76001 44.0474 9.7987C44.0474 10.5805 44.0474 12.8212 44.0474 12.8212H47.1076V8.93206C47.1076 7.21156 46.0846 6.74715 46.0846 6.74715" fill="white"/>
<path d="M90.1633 10.58H88.3144C85.3896 10.58 83.9062 8.68451 83.9062 6.73966C83.9062 4.7948 85.2332 2.87726 88.1807 2.87726H90.0308C92.9783 2.87726 94.5704 4.79538 94.5704 6.73966C94.5704 8.68393 93.087 10.58 90.1628 10.58M90.9905 0.494141H87.4448C83.0221 0.494141 80.9697 3.57476 80.9697 6.73792C80.9697 9.90107 83.1546 12.9608 87.5774 12.9683H90.901C95.3231 12.9608 97.508 9.89817 97.508 6.73792C97.508 3.62766 95.2632 0.595281 90.9916 0.49705" fill="white"/>
<path d="M128.874 10.58H127.025C124.1 10.58 122.617 8.68451 122.617 6.73966C122.617 4.7948 123.945 2.87726 126.892 2.87726H128.742C131.69 2.87726 133.282 4.79538 133.282 6.73966C133.282 8.68393 131.798 10.58 128.874 10.58ZM129.702 0.494141H126.156C121.734 0.494141 119.681 3.57476 119.681 6.73792C119.681 9.90107 121.866 12.9608 126.289 12.9683H129.612C134.035 12.9608 136.219 9.89817 136.219 6.73792C136.219 3.62766 133.975 0.595281 129.703 0.49705" fill="white"/>
<path d="M5.07895 0.639648H0V12.8151H5.07895V0.639648Z" fill="#E63C64"/>
<path d="M12.034 0.639648H6.95508V12.8151H12.034V0.639648Z" fill="#E63C64"/>
<path d="M6.3547 0.639648H5.67871V12.8151H6.3547V0.639648Z" fill="#E63C64"/>
</svg>
