<svg width="125" height="50" viewBox="0 0 125 50" fill="none" xmlns="http://www.w3.org/2000/svg">
<path d="M116.947 30.2157C115.342 30.2157 113.892 29.8546 112.604 29.1274C111.315 28.3807 110.295 27.3754 109.549 26.1065C108.802 24.8376 108.426 23.4028 108.426 21.7971C108.426 20.1915 108.787 18.786 109.515 17.522C110.261 16.2531 111.257 15.2575 112.501 14.5352C113.77 13.7885 115.181 13.4176 116.742 13.4176C118.304 13.4176 119.549 13.7592 120.681 14.4376C121.833 15.116 122.731 16.0579 123.36 17.2535C124.014 18.4541 124.346 19.8108 124.346 21.3286C124.346 21.5531 124.336 21.802 124.312 22.0753C124.287 22.3242 124.243 22.617 124.175 22.9587H110.564V20.4111H122.545L121.427 21.3969C121.427 20.3086 121.237 19.396 120.852 18.6493C120.466 17.8782 119.924 17.2926 119.222 16.8826C118.519 16.4532 117.67 16.2384 116.674 16.2384C115.678 16.2384 114.717 16.4629 113.926 16.9168C113.136 17.3707 112.521 18.0051 112.091 18.8152C111.662 19.6303 111.447 20.5917 111.447 21.6995C111.447 22.8074 111.672 23.8274 112.126 24.6863C112.579 25.5257 113.224 26.1797 114.058 26.6531C114.898 27.1069 115.859 27.3314 116.942 27.3314C117.845 27.3314 118.675 27.1753 119.422 26.858C120.193 26.5408 120.847 26.0674 121.388 25.433L123.355 27.4339C122.584 28.3368 121.637 29.0298 120.505 29.5032C119.397 29.9766 118.206 30.2157 116.942 30.2157H116.947Z" fill="white"/>
<path d="M100.12 30.2158C99.2171 30.2158 98.3533 30.1036 97.5383 29.8742C96.7476 29.6253 96.0107 29.2837 95.3324 28.8542C94.654 28.4003 94.0635 27.8684 93.5657 27.2583L95.5324 25.2916C96.123 26.0139 96.8013 26.5605 97.5675 26.9216C98.3386 27.2632 99.1976 27.4292 100.149 27.4292C101.101 27.4292 101.833 27.273 102.355 26.9558C102.877 26.6141 103.136 26.1505 103.136 25.5649C103.136 24.9792 102.921 24.5254 102.492 24.2081C102.082 23.8665 101.555 23.5981 100.896 23.3931C100.237 23.1686 99.5392 22.9539 98.7925 22.7489C98.0702 22.5244 97.3772 22.2414 96.7232 21.8997C96.0644 21.5581 95.5227 21.0945 95.0932 20.5088C94.6833 19.9183 94.4832 19.1375 94.4832 18.1663C94.4832 17.1951 94.7223 16.3557 95.1957 15.6529C95.6691 14.9306 96.3279 14.3743 97.1625 13.9887C98.0214 13.6032 99.0512 13.4128 100.252 13.4128C101.521 13.4128 102.638 13.6373 103.609 14.0912C104.605 14.5207 105.42 15.1795 106.054 16.058L104.088 18.0248C103.634 17.4342 103.068 16.9852 102.389 16.668C101.73 16.3508 100.984 16.1946 100.149 16.1946C99.2659 16.1946 98.5875 16.3508 98.1141 16.668C97.6603 16.9608 97.4358 17.3806 97.4358 17.9223C97.4358 18.464 97.6407 18.8837 98.0458 19.1765C98.4558 19.4693 98.9828 19.7182 99.6417 19.9232C100.32 20.1282 101.023 20.3429 101.745 20.5674C102.467 20.7724 103.16 21.0554 103.814 21.4166C104.468 21.7777 105 22.2658 105.41 22.8758C105.84 23.4858 106.054 24.2911 106.054 25.2867C106.054 26.8045 105.513 28.0002 104.424 28.8835C103.361 29.7668 101.926 30.2061 100.115 30.2061L100.12 30.2158Z" fill="white"/>
<path d="M81.7358 29.8741V13.7543H84.7909V29.8741H81.7358ZM84.7909 20.6795L83.6391 20.172C83.6391 18.1125 84.1125 16.4727 85.0642 15.2526C86.0158 14.0325 87.3823 13.4176 89.1734 13.4176C89.9884 13.4176 90.7254 13.564 91.3793 13.8568C92.0333 14.1301 92.6482 14.5938 93.2143 15.2477L91.2134 17.317C90.8718 16.9558 90.5009 16.6972 90.0909 16.5361C89.6858 16.38 89.2076 16.297 88.6658 16.297C87.5336 16.297 86.6063 16.6581 85.8841 17.3853C85.1618 18.1076 84.7957 19.2057 84.7957 20.6795H84.7909Z" fill="white"/>
<path d="M71.0089 30.2157C69.4032 30.2157 67.9538 29.8546 66.6654 29.1274C65.377 28.3807 64.357 27.3754 63.6103 26.1065C62.8636 24.8376 62.4878 23.4028 62.4878 21.7971C62.4878 20.1915 62.8489 18.786 63.5761 17.522C64.3228 16.2531 65.3184 15.2575 66.5629 14.5352C67.8318 13.7885 69.2422 13.4176 70.8039 13.4176C72.3656 13.4176 73.6101 13.7592 74.7423 14.4376C75.8941 15.116 76.792 16.0579 77.4216 17.2535C78.0756 18.4541 78.4074 19.8108 78.4074 21.3286C78.4074 21.5531 78.3977 21.802 78.3733 22.0753C78.3489 22.3242 78.305 22.617 78.2366 22.9587H64.6254V20.4111H76.6066L75.489 21.3969C75.489 20.3086 75.2987 19.396 74.9131 18.6493C74.5276 17.8782 73.9859 17.2926 73.2831 16.8826C72.5803 16.4532 71.7311 16.2384 70.7356 16.2384C69.74 16.2384 68.7785 16.4629 67.9879 16.9168C67.1973 17.3707 66.5824 18.0051 66.1529 18.8152C65.7235 19.6303 65.5087 20.5917 65.5087 21.6995C65.5087 22.8074 65.7332 23.8274 66.1871 24.6863C66.641 25.5257 67.2852 26.1797 68.1197 26.6531C68.9591 27.1069 69.9205 27.3314 71.004 27.3314C71.9068 27.3314 72.7365 27.1753 73.4832 26.858C74.2543 26.5408 74.9082 26.0674 75.45 25.433L77.4167 27.4339C76.6456 28.3368 75.6989 29.0298 74.5666 29.5032C73.4588 29.9766 72.268 30.2157 71.004 30.2157H71.0089Z" fill="white"/>
<path d="M52.3708 29.8741L44.9722 13.7544H48.3641L54.3034 27.3656H52.3366L58.3102 13.7544H61.5702L54.1717 29.8741H52.3708Z" fill="white"/>
<path d="M33.9378 30.2157C32.4688 30.2157 31.1316 29.8546 29.931 29.1274C28.7305 28.3807 27.7837 27.3754 27.0809 26.1065C26.4025 24.8376 26.0609 23.4125 26.0609 21.8313C26.0609 20.2501 26.4025 18.8201 27.0809 17.5561C27.7837 16.2872 28.7207 15.2819 29.8969 14.5352C31.0974 13.7885 32.4444 13.4176 33.9378 13.4176C35.1579 13.4176 36.2462 13.6763 37.1978 14.1985C38.169 14.6962 38.9499 15.399 39.5404 16.3019C40.1309 17.1852 40.4579 18.215 40.5262 19.3911V24.2471C40.4579 25.3988 40.1309 26.4286 39.5404 27.3363C38.9743 28.2392 38.2032 28.9517 37.232 29.4739C36.2803 29.9717 35.1823 30.2206 33.9378 30.2206V30.2157ZM34.4453 27.3314C35.9631 27.3314 37.1832 26.8239 38.1104 25.8039C39.0377 24.7644 39.5013 23.4369 39.5013 21.8313C39.5013 20.7235 39.2866 19.762 38.8571 18.947C38.4521 18.1076 37.8616 17.4634 37.0905 17.0144C36.3194 16.541 35.4263 16.3019 34.4112 16.3019C33.3961 16.3019 32.4883 16.541 31.6977 17.0144C30.9266 17.4878 30.3166 18.1466 29.8627 18.9812C29.4332 19.7962 29.2185 20.7332 29.2185 21.7971C29.2185 22.861 29.4332 23.8469 29.8627 24.6814C30.3166 25.4964 30.9364 26.1406 31.7319 26.614C32.5225 27.0874 33.4302 27.3265 34.4453 27.3265V27.3314ZM39.3013 29.8741V25.5306L39.8771 21.5922L39.3013 17.6879V13.7495H42.3905V29.8692H39.3013V29.8741Z" fill="white"/>
<path d="M13.987 29.8741V13.7543H17.0421V29.8741H13.987ZM17.0421 20.6795L15.8903 20.172C15.8903 18.1125 16.3637 16.4727 17.3154 15.2526C18.2671 14.0325 19.6335 13.4176 21.4246 13.4176C22.2396 13.4176 22.9766 13.564 23.6305 13.8568C24.2845 14.1301 24.8994 14.5938 25.4655 15.2477L23.4646 17.317C23.123 16.9558 22.7521 16.6972 22.3421 16.5361C21.9371 16.38 21.4588 16.297 20.9171 16.297C19.7848 16.297 18.8576 16.6581 18.1353 17.3853C17.413 18.1076 17.047 19.2057 17.047 20.6795H17.0421Z" fill="white"/>
<path d="M3.97259 29.8741V7H7.02768V29.8741H3.97259ZM0 16.5362V13.7544H10.9954V16.5362H0Z" fill="white"/>
<path d="M124.429 40.2351C124.429 40.0839 124.39 39.9423 124.307 39.8203C124.229 39.6934 124.097 39.5714 123.917 39.4494C123.736 39.3274 123.492 39.1956 123.18 39.0541C122.931 38.9419 122.711 38.8345 122.516 38.7271C122.321 38.6198 122.155 38.5124 122.018 38.3904C121.886 38.2733 121.784 38.1366 121.711 37.9902C121.637 37.8389 121.603 37.6583 121.603 37.4534C121.603 37.2484 121.642 37.0532 121.72 36.8775C121.798 36.7018 121.911 36.5456 122.052 36.4138C122.199 36.2772 122.369 36.1747 122.57 36.0966C122.775 36.0234 122.999 35.9844 123.253 35.9844C123.614 35.9844 123.917 36.0527 124.17 36.1942C124.424 36.3309 124.619 36.5163 124.761 36.7603C124.902 37.0044 124.971 37.2777 124.971 37.5949H124.4C124.4 37.4046 124.356 37.2289 124.263 37.0678C124.175 36.9068 124.048 36.775 123.877 36.6725C123.707 36.57 123.502 36.5212 123.253 36.5212C123.004 36.5212 122.789 36.5651 122.628 36.6579C122.467 36.7457 122.35 36.858 122.277 36.9995C122.204 37.1361 122.169 37.2825 122.169 37.4387C122.169 37.551 122.189 37.6486 122.218 37.7364C122.257 37.8194 122.316 37.9023 122.404 37.9853C122.491 38.0634 122.613 38.1464 122.77 38.2342C122.931 38.3172 123.126 38.4197 123.36 38.5368C123.697 38.6832 123.99 38.8296 124.234 38.976C124.478 39.1175 124.663 39.2884 124.8 39.4787C124.932 39.669 125 39.9082 125 40.201C125 40.4304 124.961 40.6353 124.878 40.8208C124.795 41.0014 124.683 41.1624 124.531 41.2942C124.38 41.4211 124.2 41.5236 123.99 41.5919C123.78 41.6602 123.546 41.6944 123.287 41.6944C122.897 41.6944 122.56 41.6212 122.287 41.4699C122.013 41.3186 121.808 41.1234 121.667 40.8793C121.53 40.6353 121.457 40.3718 121.457 40.0887H122.023C122.038 40.3767 122.106 40.5963 122.238 40.7525C122.369 40.9086 122.531 41.016 122.721 41.0746C122.911 41.1331 123.102 41.1624 123.292 41.1624C123.541 41.1624 123.751 41.1234 123.921 41.0404C124.092 40.9574 124.224 40.8501 124.312 40.7085C124.4 40.567 124.444 40.4108 124.444 40.24L124.429 40.2351Z" fill="white"/>
<path d="M119.344 41.6944C119.041 41.6944 118.758 41.6456 118.499 41.548C118.246 41.4455 118.026 41.2942 117.841 41.0892C117.655 40.8842 117.514 40.6256 117.411 40.3132C117.309 39.996 117.26 39.6251 117.26 39.2005V38.5661C117.26 38.1122 117.313 37.7218 117.421 37.3948C117.528 37.0678 117.675 36.7994 117.86 36.5895C118.045 36.3797 118.26 36.2284 118.494 36.1308C118.734 36.0332 118.983 35.9844 119.246 35.9844C119.549 35.9844 119.812 36.0332 120.037 36.1308C120.266 36.2284 120.461 36.3797 120.617 36.5798C120.774 36.7799 120.891 37.0336 120.969 37.3362C121.047 37.6388 121.086 37.9951 121.086 38.4099V38.8833H117.601V38.3562H120.525V38.2147C120.52 37.8535 120.466 37.551 120.373 37.3021C120.281 37.0483 120.144 36.8531 119.959 36.7213C119.773 36.5847 119.544 36.5163 119.256 36.5163C119.046 36.5163 118.851 36.5554 118.675 36.6335C118.499 36.7067 118.348 36.8287 118.216 36.9897C118.089 37.1508 117.997 37.3655 117.928 37.6242C117.865 37.8828 117.831 38.2 117.831 38.5661V39.2005C117.831 39.5373 117.865 39.8252 117.938 40.0741C118.011 40.3181 118.119 40.5231 118.255 40.6841C118.392 40.8452 118.553 40.9623 118.743 41.0453C118.934 41.1234 119.144 41.1624 119.373 41.1624C119.656 41.1624 119.905 41.1136 120.12 41.0209C120.334 40.9233 120.525 40.7769 120.691 40.5768L120.988 40.9526C120.886 41.0843 120.764 41.2063 120.613 41.3235C120.461 41.4357 120.286 41.5236 120.081 41.5919C119.876 41.6602 119.632 41.6944 119.349 41.6944H119.344Z" fill="white"/>
<path d="M116.577 36.0916V41.5918H116.01V36.0916H116.577ZM115.923 34.5104C115.923 34.3884 115.957 34.2908 116.02 34.2127C116.088 34.1297 116.181 34.0907 116.298 34.0907C116.415 34.0907 116.503 34.1297 116.567 34.2127C116.635 34.2908 116.669 34.3884 116.669 34.5104C116.669 34.6227 116.635 34.7154 116.567 34.7935C116.503 34.8716 116.411 34.9106 116.298 34.9106C116.186 34.9106 116.088 34.8716 116.02 34.7935C115.957 34.7154 115.923 34.6227 115.923 34.5104Z" fill="white"/>
<path d="M114.532 36.0917H115.054V41.7285C115.054 42.2019 114.976 42.5923 114.825 42.89C114.673 43.1926 114.463 43.4122 114.19 43.5538C113.917 43.7002 113.59 43.7734 113.214 43.7734C113.033 43.7734 112.843 43.7441 112.638 43.6855C112.433 43.627 112.243 43.5391 112.057 43.4269C111.872 43.3146 111.721 43.178 111.594 43.0218L111.857 42.6167C112.048 42.8315 112.253 42.9877 112.472 43.095C112.697 43.2024 112.926 43.2512 113.17 43.2512C113.453 43.2512 113.692 43.2024 113.887 43.1048C114.083 43.0072 114.234 42.8461 114.336 42.6216C114.439 42.402 114.488 42.1092 114.488 41.748V37.3021L114.527 36.0917H114.532ZM111.301 39.098V38.5856C111.301 38.1268 111.34 37.7315 111.423 37.3997C111.506 37.0678 111.623 36.7994 111.779 36.5895C111.935 36.3846 112.121 36.2284 112.345 36.1308C112.57 36.0332 112.819 35.9844 113.097 35.9844C113.375 35.9844 113.6 36.0332 113.8 36.1308C114.005 36.2284 114.175 36.3699 114.317 36.5505C114.458 36.7311 114.576 36.9507 114.663 37.2045C114.751 37.4582 114.815 37.7413 114.859 38.0536V39.6934C114.825 39.9814 114.766 40.2498 114.673 40.4987C114.59 40.7427 114.473 40.9526 114.327 41.1282C114.185 41.3039 114.009 41.4406 113.805 41.5382C113.6 41.6358 113.36 41.6846 113.087 41.6846C112.814 41.6846 112.565 41.6309 112.345 41.5284C112.126 41.4211 111.935 41.2649 111.779 41.0502C111.623 40.8354 111.506 40.567 111.423 40.24C111.34 39.913 111.301 39.5324 111.301 39.0883V39.098ZM111.867 38.5856V39.098C111.867 39.4494 111.891 39.7569 111.945 40.0106C111.999 40.2693 112.082 40.484 112.189 40.65C112.296 40.8159 112.433 40.9428 112.599 41.0258C112.77 41.1087 112.97 41.1478 113.199 41.1478C113.487 41.1478 113.726 41.0892 113.917 40.9721C114.112 40.8501 114.263 40.689 114.376 40.4938C114.493 40.2937 114.576 40.079 114.634 39.8447V37.9609C114.6 37.7999 114.551 37.6339 114.488 37.468C114.424 37.3021 114.336 37.1459 114.224 37.0044C114.117 36.858 113.98 36.7457 113.814 36.6579C113.648 36.57 113.448 36.5261 113.209 36.5261C112.97 36.5261 112.78 36.57 112.609 36.653C112.443 36.7359 112.306 36.858 112.194 37.0288C112.087 37.1996 112.004 37.4094 111.95 37.6681C111.901 37.9219 111.872 38.2293 111.872 38.5807L111.867 38.5856Z" fill="white"/>
<path d="M106.801 39.1224V38.5514C106.801 38.1366 106.85 37.7657 106.943 37.4485C107.04 37.1313 107.177 36.8628 107.353 36.6432C107.533 36.4236 107.748 36.2577 107.992 36.1503C108.241 36.0381 108.509 35.9844 108.807 35.9844C109.105 35.9844 109.383 36.0381 109.627 36.1503C109.876 36.2577 110.086 36.4236 110.261 36.6432C110.442 36.858 110.579 37.1264 110.676 37.4485C110.774 37.7657 110.823 38.1366 110.823 38.5514V39.1224C110.823 39.5373 110.774 39.9082 110.676 40.2303C110.579 40.5475 110.437 40.8159 110.261 41.0355C110.086 41.2503 109.876 41.4162 109.627 41.5284C109.383 41.6407 109.114 41.6944 108.812 41.6944C108.509 41.6944 108.241 41.6407 107.992 41.5284C107.748 41.4162 107.538 41.2503 107.358 41.0355C107.177 40.8159 107.04 40.5475 106.943 40.2254C106.85 39.9082 106.801 39.5373 106.801 39.1224ZM107.367 38.5563V39.1273C107.367 39.4445 107.397 39.7276 107.46 39.9765C107.524 40.2254 107.621 40.4401 107.743 40.6158C107.865 40.7915 108.021 40.9282 108.197 41.0209C108.378 41.1136 108.583 41.1624 108.812 41.1624C109.056 41.1624 109.266 41.1136 109.446 41.0209C109.632 40.9282 109.778 40.7915 109.9 40.6158C110.022 40.4401 110.11 40.2254 110.169 39.9765C110.227 39.7276 110.261 39.4445 110.261 39.1273V38.5563C110.261 38.2489 110.227 37.9707 110.164 37.7169C110.1 37.468 110.003 37.2533 109.876 37.0776C109.749 36.897 109.598 36.7603 109.417 36.6676C109.236 36.57 109.036 36.5212 108.807 36.5212C108.578 36.5212 108.382 36.57 108.202 36.6676C108.021 36.7603 107.87 36.9019 107.743 37.0776C107.621 37.2533 107.528 37.468 107.465 37.7169C107.401 37.9658 107.367 38.2489 107.367 38.5563Z" fill="white"/>
<path d="M106.059 33.7832V41.5917H105.493V33.7832H106.059Z" fill="white"/>
<path d="M100.73 39.1224V38.5514C100.73 38.1366 100.779 37.7657 100.872 37.4485C100.969 37.1313 101.106 36.8628 101.281 36.6432C101.462 36.4236 101.677 36.2577 101.921 36.1503C102.17 36.0381 102.438 35.9844 102.736 35.9844C103.033 35.9844 103.312 36.0381 103.556 36.1503C103.805 36.2577 104.014 36.4236 104.19 36.6432C104.371 36.858 104.507 37.1264 104.605 37.4485C104.703 37.7657 104.751 38.1366 104.751 38.5514V39.1224C104.751 39.5373 104.703 39.9082 104.605 40.2303C104.507 40.5475 104.366 40.8159 104.19 41.0355C104.014 41.2503 103.805 41.4162 103.556 41.5284C103.312 41.6407 103.038 41.6944 102.741 41.6944C102.443 41.6944 102.17 41.6407 101.921 41.5284C101.677 41.4162 101.467 41.2503 101.286 41.0355C101.106 40.8159 100.969 40.5475 100.872 40.2254C100.779 39.9082 100.73 39.5373 100.73 39.1224ZM101.301 38.5563V39.1273C101.301 39.4445 101.33 39.7276 101.394 39.9765C101.457 40.2254 101.555 40.4401 101.677 40.6158C101.804 40.7915 101.955 40.9282 102.131 41.0209C102.311 41.1136 102.516 41.1624 102.746 41.1624C102.99 41.1624 103.199 41.1136 103.38 41.0209C103.565 40.9282 103.712 40.7915 103.834 40.6158C103.956 40.4401 104.044 40.2254 104.102 39.9765C104.161 39.7276 104.195 39.4445 104.195 39.1273V38.5563C104.195 38.2489 104.161 37.9707 104.097 37.7169C104.034 37.468 103.936 37.2533 103.809 37.0776C103.683 36.897 103.531 36.7603 103.351 36.6676C103.17 36.57 102.965 36.5212 102.741 36.5212C102.516 36.5212 102.316 36.57 102.136 36.6676C101.955 36.7603 101.804 36.9019 101.677 37.0776C101.555 37.2533 101.462 37.468 101.399 37.7169C101.335 37.9658 101.301 38.2489 101.301 38.5563Z" fill="white"/>
<path d="M97.1138 37.263V41.587H96.5477V36.0869H97.0845L97.1089 37.263H97.1138ZM96.9869 38.4978L96.738 38.3513C96.7526 38.0244 96.8063 37.7218 96.8942 37.4387C96.9869 37.1557 97.1187 36.9019 97.2797 36.6871C97.4408 36.4675 97.636 36.2967 97.8556 36.1747C98.0752 36.0527 98.3192 35.9941 98.5876 35.9941C98.8121 35.9941 99.0171 36.0332 99.2026 36.1064C99.388 36.1796 99.5393 36.2967 99.6662 36.4578C99.7931 36.6188 99.8956 36.8238 99.959 37.0825C100.027 37.3411 100.062 37.6486 100.062 38.0146V41.5968H99.4954V38.0097C99.4954 37.6339 99.4515 37.3411 99.3685 37.1264C99.2855 36.9116 99.1635 36.7604 99.0025 36.6725C98.8463 36.5798 98.656 36.5359 98.4364 36.5359C98.2021 36.5359 97.9971 36.5993 97.8166 36.7262C97.6409 36.8531 97.4896 37.0141 97.3627 37.2142C97.2407 37.4143 97.1479 37.6291 97.0845 37.8584C97.0211 38.0878 96.9869 38.3025 96.982 38.5075L96.9869 38.4978Z" fill="white"/>
<path d="M92.7263 33.7832V41.5917H92.1602V33.7832H92.7263ZM92.5995 38.4976L92.3505 38.3512C92.3652 38.0242 92.4189 37.7216 92.5067 37.4386C92.5995 37.1555 92.7312 36.9017 92.8923 36.687C93.0533 36.4674 93.2485 36.2966 93.4682 36.1746C93.6878 36.0526 93.9318 35.994 94.2002 35.994C94.4247 35.994 94.6297 36.033 94.8151 36.1062C95.0006 36.1794 95.1519 36.2966 95.2787 36.4576C95.4056 36.6187 95.5032 36.8236 95.5716 37.0823C95.6399 37.341 95.6741 37.6484 95.6741 38.0145V41.5966H95.1079V38.0096C95.1079 37.6338 95.064 37.341 94.981 37.1262C94.8981 36.9115 94.7761 36.7602 94.615 36.6724C94.4589 36.5796 94.2734 36.5357 94.0489 36.5357C93.8147 36.5357 93.6097 36.5992 93.4291 36.726C93.2534 36.8529 93.1021 37.014 92.9752 37.2141C92.8532 37.4142 92.7605 37.6289 92.6971 37.8583C92.6336 38.0877 92.5994 38.3024 92.5946 38.5074L92.5995 38.4976Z" fill="white"/>
<path d="M89.7932 41.1624C90.003 41.1624 90.1983 41.1234 90.3837 41.0453C90.5692 40.9672 90.7253 40.8354 90.8425 40.65C90.9596 40.4645 91.0279 40.2059 91.0474 39.8838H91.5843C91.5696 40.2791 91.4818 40.6109 91.3158 40.8794C91.1499 41.1478 90.9352 41.3527 90.6716 41.4894C90.4081 41.626 90.1153 41.6992 89.7981 41.6992C89.4808 41.6992 89.1831 41.6456 88.9342 41.5382C88.6853 41.4308 88.4804 41.2698 88.3144 41.055C88.1485 40.8403 88.0216 40.5719 87.9387 40.2547C87.8557 39.9374 87.8118 39.5665 87.8118 39.1517V38.527C87.8118 38.1122 87.8557 37.7511 87.9387 37.4338C88.0216 37.1166 88.1485 36.8482 88.3144 36.6383C88.4804 36.4236 88.6853 36.2626 88.9342 36.1552C89.1831 36.0478 89.4711 35.9941 89.7981 35.9941C90.125 35.9941 90.4325 36.0673 90.696 36.2089C90.9596 36.3455 91.1694 36.5603 91.3256 36.8482C91.4867 37.1361 91.5696 37.5022 91.5843 37.9512H91.0474C91.0328 37.6095 90.9693 37.3362 90.8522 37.1264C90.74 36.9165 90.5936 36.7652 90.4081 36.6676C90.2275 36.57 90.0226 36.5212 89.7932 36.5212C89.5345 36.5212 89.31 36.5651 89.1295 36.6579C88.9489 36.7457 88.8025 36.8775 88.6902 37.0483C88.578 37.2191 88.495 37.429 88.4462 37.6779C88.3974 37.9268 88.3681 38.2098 88.3681 38.527V39.1517C88.3681 39.4738 88.3925 39.7618 88.4462 40.0107C88.495 40.2596 88.578 40.4743 88.6902 40.6451C88.8074 40.8159 88.9538 40.9428 89.1343 41.0306C89.3149 41.1185 89.5394 41.1624 89.7932 41.1624Z" fill="white"/>
<path d="M85.7328 41.6944C85.4302 41.6944 85.1471 41.6456 84.8885 41.548C84.6347 41.4455 84.4151 41.2942 84.2296 41.0892C84.0442 40.8842 83.9026 40.6256 83.8002 40.3132C83.6977 39.996 83.6489 39.6251 83.6489 39.2005V38.5661C83.6489 38.1122 83.7025 37.7218 83.8099 37.3948C83.9173 37.0678 84.0637 36.7994 84.2492 36.5895C84.4346 36.3797 84.6445 36.2284 84.8836 36.1308C85.1227 36.0332 85.3716 35.9844 85.6352 35.9844C85.9377 35.9844 86.2013 36.0332 86.4258 36.1308C86.6552 36.2284 86.8504 36.3797 87.0065 36.5798C87.1627 36.7799 87.2798 37.0336 87.3579 37.3362C87.436 37.6388 87.4751 37.9951 87.4751 38.4099V38.8833H83.9905V38.3562H86.9138V38.2147C86.9089 37.8535 86.8552 37.551 86.7625 37.3021C86.6698 37.0483 86.5331 36.8531 86.3477 36.7213C86.1622 36.5847 85.9329 36.5163 85.6449 36.5163C85.4351 36.5163 85.2399 36.5554 85.0642 36.6335C84.8885 36.7067 84.7372 36.8287 84.6054 36.9897C84.4785 37.1508 84.3809 37.3655 84.3175 37.6242C84.254 37.8828 84.2199 38.2 84.2199 38.5661V39.2005C84.2199 39.5373 84.254 39.8252 84.3272 40.0741C84.4004 40.3181 84.5078 40.5231 84.6445 40.6841C84.7811 40.8452 84.9422 40.9623 85.1325 41.0453C85.3228 41.1234 85.5327 41.1624 85.762 41.1624C86.0451 41.1624 86.294 41.1136 86.5087 41.0209C86.7235 40.9233 86.9138 40.7769 87.0797 40.5768L87.3774 40.9526C87.275 41.0843 87.1529 41.2063 87.0017 41.3235C86.8504 41.4357 86.6747 41.5236 86.4697 41.5919C86.2647 41.6602 86.0207 41.6944 85.7376 41.6944H85.7328Z" fill="white"/>
<path d="M83.2976 36.0918V36.5994H80.9501V36.0918H83.2976ZM81.7896 40.2401V34.6814H82.3605V41.6944H81.7896V40.2401Z" fill="white"/>
</svg>
