<svg width="114" height="30" viewBox="0 0 114 30" fill="none" xmlns="http://www.w3.org/2000/svg">
<g clip-path="url(#clip0_2216_5230)">
<path d="M43.4192 8.79297C43.8089 8.79297 43.8869 8.94885 43.8869 9.18267L43.6531 10.6635C43.6531 11.0532 43.4192 11.1312 42.9516 11.1312H38.6649V13.7811H42.7178C43.1075 13.7811 43.2634 13.937 43.2634 14.2488V15.5737C43.2634 15.8076 43.1075 16.0414 42.8737 16.1193H38.6649V18.9252H43.2634C43.5751 18.9252 43.8089 19.081 43.8089 19.3928V20.7178C43.8089 20.9516 43.6531 21.1854 43.4192 21.1854H36.4826C36.0929 21.1854 35.8591 21.1075 35.8591 20.6398V9.33855C35.8591 9.10473 36.0149 8.87091 36.2488 8.87091H36.3267L43.4192 8.79297Z" fill="#3DB7E4"/>
<path d="M47.6281 20.6399C47.6281 20.8737 47.4723 21.1075 47.2384 21.1075H45.4458C45.212 21.1075 44.9782 20.9517 44.9782 20.7178V9.10478C44.9782 8.71508 45.1341 8.63714 45.3679 8.63714L47.2384 8.40332C47.4723 8.40332 47.6281 8.5592 47.6281 8.87096V20.6399Z" fill="#3DB7E4"/>
<path d="M56.9027 16.977C56.9027 17.3667 56.7468 17.5226 56.2791 17.5226H51.291C51.5248 18.6137 52.4601 19.3152 53.5512 19.2373C54.3306 19.2373 55.11 19.0814 55.8115 18.7696C55.8894 18.7696 55.9674 18.6917 56.0453 18.6917C56.2012 18.6917 56.2791 18.7696 56.3571 18.9255C56.513 19.3931 56.5909 19.8608 56.6688 20.3284C56.6688 20.5622 56.513 20.6402 56.3571 20.7181C55.3439 21.1078 54.2527 21.3416 53.1615 21.3416C50.3557 21.3416 48.5631 19.627 48.5631 16.7432C48.3293 14.405 50.1998 12.3006 52.616 12.2227H53.0836C54.0968 12.2227 55.11 12.6124 55.8115 13.3918C56.5909 14.327 56.9806 15.5741 56.9027 16.8211V16.977ZM54.3306 15.8079C54.4086 15.0285 53.863 14.327 53.0836 14.2491H53.0057C52.1483 14.2491 51.4469 14.9506 51.4469 15.8079H54.3306Z" fill="#3DB7E4"/>
<path d="M64.3074 20.7961C63.4501 21.1858 62.5148 21.3416 61.5796 21.3416C58.8517 21.3416 57.2149 19.7049 57.2149 16.8991C57.2149 14.0153 58.9296 12.2227 61.7354 12.2227C62.5928 12.2227 63.4501 12.3785 64.2295 12.6903C64.4633 12.7682 64.4633 12.9241 64.3854 13.2359L64.0736 14.4829C63.9957 14.6388 63.9178 14.7167 63.8398 14.7167C63.7619 14.7167 63.6839 14.7167 63.606 14.6388C63.1383 14.405 62.5928 14.327 62.0472 14.327C60.6443 14.327 59.9428 15.2623 59.9428 16.7432C59.9428 18.3799 60.7222 19.2373 61.9693 19.2373C62.5928 19.2373 63.2163 19.1593 63.7619 18.8476C63.8398 18.8476 63.9178 18.7696 63.9178 18.7696C64.0736 18.7696 64.1516 18.8476 64.1516 19.0034C64.3074 19.4711 64.4633 19.9387 64.5413 20.4064C64.6192 20.7181 64.4633 20.7961 64.3074 20.7961Z" fill="#3DB7E4"/>
<path d="M70.4643 20.874C69.7628 21.1858 68.9834 21.3416 68.204 21.3416C67.3467 21.4196 66.5673 21.1078 65.9437 20.5622C65.3982 19.8608 65.3202 19.1593 65.3202 17.6785V10.5859C65.3202 10.1962 65.554 10.1962 65.8658 10.1183L67.5805 9.9624C67.8143 9.9624 67.9702 10.1183 67.9702 10.43V12.5344H69.9187C70.1525 12.5344 70.3084 12.6124 70.3084 12.9241V13.8594C70.3084 14.0932 70.1525 14.2491 69.9187 14.2491H67.8922V17.7564C67.8922 18.6917 68.0481 19.2373 68.8275 19.2373C69.2172 19.2373 69.6069 19.1593 69.9966 19.0034C70.0746 19.0034 70.1525 18.9255 70.2304 18.9255C70.3863 18.9255 70.4643 19.0034 70.4643 19.1593L70.6981 20.3284V20.4843C70.776 20.7181 70.6201 20.7961 70.4643 20.874Z" fill="#3DB7E4"/>
<path d="M74.0493 15.3403V20.6402C74.0493 20.874 73.8935 21.1078 73.6596 21.1078H71.867C71.6332 21.1078 71.3994 20.9519 71.3994 20.7181V13.0021C71.3994 12.6124 71.6332 12.4565 71.945 12.4565H73.3479C73.6596 12.4565 73.8155 12.5344 73.8935 12.8462L73.9714 13.3918C74.439 12.6903 75.2964 12.2227 76.1537 12.2227C76.3096 12.2227 76.4655 12.2227 76.6214 12.3006C76.8552 12.3785 76.8552 12.5344 76.7772 12.6903L76.5434 14.327C76.5434 14.4829 76.3875 14.6388 76.2317 14.6388C76.0758 14.6388 75.9978 14.5609 75.6861 14.5609C75.0626 14.6388 74.439 14.8726 74.0493 15.3403Z" fill="#3DB7E4"/>
<path d="M81.0641 21.3416C78.1024 21.3416 76.6995 19.3931 76.6995 16.7432C76.5436 14.405 78.3362 12.3785 80.6744 12.2227H81.22C84.2596 12.2227 85.5846 14.1712 85.5846 16.8211C85.7405 19.1593 83.9479 21.1858 81.6097 21.3416H81.0641ZM81.142 14.327C79.817 14.327 79.4273 15.4961 79.4273 16.7432C79.4273 18.0682 79.817 19.2373 81.142 19.2373C82.467 19.2373 82.8567 18.0682 82.8567 16.7432C82.8567 15.4182 82.467 14.327 81.142 14.327Z" fill="#3DB7E4"/>
<path d="M94.3137 20.5622C94.3137 20.9519 94.1578 21.1078 93.7681 21.1078H92.1314C91.7417 21.1078 91.5858 20.9519 91.5858 20.5622V15.8079C91.5858 15.0285 91.4299 14.5609 90.5726 14.5609C89.8711 14.5609 89.2476 14.7947 88.78 15.2623V20.5622C88.78 20.874 88.6241 21.1078 88.3124 21.1078H86.6756C86.4418 21.1078 86.208 20.9519 86.208 20.7181V13.0021C86.208 12.6903 86.3639 12.4565 86.7536 12.4565H88.2344C88.4682 12.4565 88.7021 12.5344 88.7021 12.8462L88.78 13.2359C89.5594 12.6124 90.5726 12.2227 91.5858 12.2227C93.5343 12.2227 94.3917 13.4697 94.3917 15.4182L94.3137 20.5622Z" fill="#3DB7E4"/>
<path d="M97.977 20.6402C98.055 20.8741 97.8212 21.1079 97.5873 21.1858H95.8727C95.483 21.1858 95.3271 21.0299 95.3271 20.6402V12.9242C95.3271 12.5345 95.5609 12.4565 95.8727 12.4565H97.4315C97.7432 12.4565 97.977 12.5345 97.977 12.9242V20.6402Z" fill="#3DB7E4"/>
<path d="M105.927 20.7961C105.07 21.1858 104.134 21.3416 103.199 21.3416C100.471 21.3416 98.8344 19.7049 98.8344 16.8991C98.8344 14.0153 100.549 12.2227 103.355 12.2227C104.212 12.2227 105.07 12.3785 105.849 12.6903C106.083 12.7682 106.083 12.9241 106.005 13.2359L105.693 14.4829C105.693 14.6388 105.537 14.7167 105.459 14.7167C105.381 14.7167 105.303 14.7167 105.225 14.6388C104.758 14.405 104.212 14.327 103.667 14.327C102.264 14.327 101.562 15.2623 101.562 16.7432C101.562 18.3799 102.342 19.2373 103.589 19.2373C104.212 19.2373 104.836 19.1593 105.381 18.8476C105.459 18.8476 105.537 18.7696 105.537 18.7696C105.693 18.7696 105.771 18.8476 105.771 19.0034C105.927 19.4711 106.083 19.9387 106.161 20.4064C106.239 20.7181 106.083 20.7961 105.927 20.7961Z" fill="#3DB7E4"/>
<path d="M110.136 21.3416C109.123 21.3416 108.11 21.1078 107.174 20.7181C107.018 20.7181 106.94 20.5622 106.94 20.4064V20.1725L107.33 19.0814C107.408 18.8476 107.486 18.7696 107.564 18.7696C107.642 18.7696 107.798 18.7696 107.876 18.8476C108.577 19.1593 109.435 19.3931 110.214 19.3931C110.76 19.3931 111.149 19.1593 111.149 18.7696C111.149 18.4579 110.993 18.224 110.292 17.9902L108.733 17.3667C107.642 16.977 106.94 16.0417 106.94 14.8726C106.94 13.0021 108.733 12.2227 110.292 12.2227C111.227 12.2227 112.24 12.3785 113.098 12.7682C113.254 12.8462 113.332 12.9241 113.332 13.08V13.2359L112.942 14.4829C112.942 14.6388 112.786 14.7167 112.63 14.7167H112.474C111.851 14.4829 111.149 14.327 110.526 14.327C109.902 14.327 109.668 14.6388 109.668 14.8726C109.668 15.1064 109.746 15.3403 110.37 15.5741L112.162 16.2755C113.176 16.5873 113.799 17.5226 113.721 18.5358C113.643 20.5622 111.851 21.3416 110.136 21.3416Z" fill="#3DB7E4"/>
<path d="M96.6527 11.4431C95.8733 11.4431 95.2497 10.8975 95.1718 10.1181C95.0939 9.33873 95.7174 8.63727 96.4968 8.55933C97.2762 8.48139 97.9776 9.10491 98.0556 9.88431C98.1335 10.6637 97.51 11.3652 96.7306 11.4431H96.6527Z" fill="#3DB7E4"/>
<path d="M15.758 30C7.5743 30 0.949406 23.3751 0.949406 15.1914C0.949406 11.2944 2.50828 7.47544 5.31412 4.74754C11.0817 -1.02001 20.5123 -1.02001 26.2799 4.74754C32.0475 10.5151 32.0475 19.9458 26.2799 25.7133C23.4741 28.4412 19.655 30 15.758 30ZM15.836 11.84C15.5243 11.84 15.3683 11.9958 15.3683 12.2297V13.3988C15.3683 13.7105 15.5243 13.8665 15.836 13.8665H18.7196V22.4399C18.7196 22.7516 18.7975 22.8296 19.1093 22.8296H20.9021C21.2139 22.8296 21.2918 22.7516 21.2918 22.4399V13.8665H24.0977C24.4095 13.8665 24.6431 13.7885 24.6431 13.4768L24.7991 12.2297C24.7991 12.1517 24.799 11.9959 24.7211 11.918C24.6432 11.84 24.4874 11.762 24.4094 11.84H15.836ZM8.7434 8.72237C8.43164 8.72237 8.3537 8.87825 8.3537 9.11207V10.2812C8.3537 10.5929 8.50966 10.7489 8.82142 10.7489H11.705V19.3223C11.705 19.634 11.7829 19.712 12.0947 19.712H13.8875C14.1993 19.712 14.2772 19.634 14.2772 19.3223V10.8267H17.0831C17.3949 10.8267 17.6285 10.7488 17.6285 10.437L17.7845 9.19008C17.7845 9.11214 17.7844 8.95615 17.7065 8.87821C17.6286 8.80027 17.4728 8.72244 17.3948 8.80038L8.7434 8.72237Z" fill="#3DB7E4"/>
</g>
<defs>
<clipPath id="clip0_2216_5230">
<rect width="112.701" height="29.6172" fill="white" transform="translate(0.949009 0.382812)"/>
</clipPath>
</defs>
</svg>
