<svg width="126" height="32" viewBox="0 0 126 32" fill="none" xmlns="http://www.w3.org/2000/svg">
<g clip-path="url(#clip0_2394_5274)">
<path fill-rule="evenodd" clip-rule="evenodd" d="M16.7488 17.4023H16.7266H-0.00012207L3.34692 23.1992H13.4095L18.4294 31.8943H25.1235L16.7565 17.4023H16.7488Z" fill="#D9D9D9"/>
<path fill-rule="evenodd" clip-rule="evenodd" d="M30.9894 24.6645L25.9581 15.9496L30.9781 7.25487L27.631 1.45801L19.2645 15.9496L27.6428 30.4613L30.9894 24.6645Z" fill="#D9D9D9"/>
<path fill-rule="evenodd" clip-rule="evenodd" d="M8.39099 0L0.0130615 14.511H6.70673L11.738 5.79686H21.7779L25.1246 0H8.39099Z" fill="#D9D9D9"/>
<path fill-rule="evenodd" clip-rule="evenodd" d="M47.9908 10.8431V24.6525H43.7891V10.8431H38.8749V7.25586H52.9047V10.8431H47.9908Z" fill="#D9D9D9"/>
<path fill-rule="evenodd" clip-rule="evenodd" d="M69.0361 20.9543C68.6837 21.8142 68.1798 22.5515 67.5252 23.1659C66.8698 23.78 66.0792 24.2592 65.154 24.6035C64.2284 24.947 63.2008 25.1192 62.0699 25.1192C60.9235 25.1192 59.8914 24.947 58.9744 24.6035C58.0565 24.2592 57.2788 23.78 56.64 23.1659C56.0012 22.5515 55.5094 21.8142 55.1655 20.9543C54.8216 20.0943 54.6499 19.14 54.6499 18.0921V7.25586H58.8269V17.7478C58.8269 18.2229 58.8885 18.6734 59.0108 19.0995C59.134 19.5252 59.3223 19.9064 59.5763 20.2414C59.8299 20.5776 60.1661 20.8441 60.5833 21.0402C61.0013 21.237 61.5052 21.3346 62.0946 21.3346C62.6843 21.3346 63.1878 21.237 63.6063 21.0402C64.0235 20.8441 64.3633 20.5776 64.6254 20.2414C64.8879 19.9064 65.0762 19.5252 65.1909 19.0995C65.3051 18.6734 65.3626 18.2229 65.3626 17.7478V7.25586H69.5643V18.0921C69.5643 19.14 69.3881 20.0943 69.0361 20.9543Z" fill="#D9D9D9"/>
<path fill-rule="evenodd" clip-rule="evenodd" d="M82.0954 12.5877C82.0954 12.1782 82.0083 11.8468 81.8354 11.5929C81.6632 11.3389 81.4404 11.1428 81.1691 11.0031C80.8973 10.8642 80.5931 10.7698 80.2556 10.7208C79.9182 10.6714 79.5925 10.647 79.2806 10.647H77.0334V14.7009H79.0332C79.3787 14.7009 79.7331 14.6722 80.0952 14.615C80.4574 14.5579 80.7863 14.4555 81.0828 14.308C81.3789 14.1606 81.6215 13.9475 81.8111 13.6692C82.0007 13.3905 82.0954 13.03 82.0954 12.5877ZM82.2672 24.6525L78.49 17.7478H77.0581V24.6525H72.9548V7.25586H79.5893C80.4246 7.25586 81.2387 7.34173 82.0339 7.51388C82.8286 7.68563 83.5403 7.97647 84.1714 8.38599C84.8021 8.79591 85.306 9.33667 85.6827 10.0079C86.0594 10.6799 86.2477 11.5155 86.2477 12.514C86.2477 13.6935 85.9281 14.6851 85.2898 15.4872C84.6506 16.2904 83.7659 16.8636 82.6358 17.2075L87.1814 24.6525H82.2672Z" fill="#D9D9D9"/>
<path fill-rule="evenodd" clip-rule="evenodd" d="M98.3858 12.5877C98.3858 12.1782 98.2991 11.8468 98.1261 11.5929C97.9536 11.3389 97.7312 11.1428 97.4598 11.0031C97.1876 10.8642 96.8834 10.7698 96.546 10.7208C96.2086 10.6714 95.8833 10.647 95.571 10.647H93.3241V14.7009H95.3235C95.6694 14.7009 96.0234 14.6722 96.386 14.615C96.7477 14.5579 97.077 14.4555 97.3735 14.308C97.6692 14.1606 97.9123 13.9475 98.1014 13.6692C98.291 13.3905 98.3858 13.03 98.3858 12.5877ZM98.5575 24.6525L94.7807 17.7478H93.3484V24.6525H89.2451V7.25586H95.8796C96.7149 7.25586 97.5295 7.34173 98.3246 7.51388C99.1189 7.68563 99.831 7.97647 100.462 8.38599C101.092 8.79591 101.596 9.33667 101.973 10.0079C102.35 10.6799 102.538 11.5155 102.538 12.514C102.538 13.6935 102.218 14.6851 101.58 15.4872C100.941 16.2904 100.057 16.8636 98.9265 17.2075L103.472 24.6525H98.5575Z" fill="#D9D9D9"/>
<path fill-rule="evenodd" clip-rule="evenodd" d="M105.536 24.6525H109.762V7.25586H105.536V24.6525Z" fill="#D9D9D9"/>
<path fill-rule="evenodd" clip-rule="evenodd" d="M122.539 11.7771C122.179 11.3186 121.708 10.954 121.126 10.6839C120.545 10.4133 119.984 10.278 119.443 10.278C119.164 10.278 118.882 10.3027 118.596 10.3513C118.309 10.4011 118.051 10.4955 117.822 10.6344C117.592 10.7734 117.4 10.954 117.244 11.1752C117.088 11.3964 117.011 11.6787 117.011 12.0226C117.011 12.3179 117.072 12.5629 117.195 12.7598C117.318 12.9563 117.498 13.1284 117.736 13.2759C117.973 13.4229 118.255 13.5582 118.583 13.6809C118.911 13.8045 119.279 13.9308 119.689 14.0625C120.279 14.2585 120.893 14.4761 121.532 14.7134C122.171 14.9512 122.751 15.2659 123.276 15.6592C123.801 16.0526 124.235 16.5403 124.578 17.1211C124.923 17.7032 125.095 18.4279 125.095 19.2959C125.095 20.2952 124.91 21.1592 124.541 21.8883C124.173 22.617 123.677 23.2193 123.055 23.6945C122.433 24.1692 121.72 24.5216 120.917 24.7505C120.115 24.9802 119.287 25.0944 118.436 25.0944C117.191 25.0944 115.987 24.8777 114.824 24.4435C113.661 24.0096 112.694 23.3911 111.925 22.5883L114.677 19.7872C115.103 20.3118 115.663 20.7497 116.36 21.1021C117.055 21.4541 117.748 21.6303 118.436 21.6303C118.747 21.6303 119.05 21.5975 119.345 21.5319C119.64 21.4666 119.898 21.3597 120.119 21.2123C120.34 21.0652 120.516 20.8684 120.647 20.6229C120.778 20.3766 120.844 20.0821 120.844 19.7378C120.844 19.4109 120.761 19.1319 120.598 18.9026C120.435 18.6733 120.201 18.4647 119.898 18.276C119.594 18.0876 119.218 17.9159 118.767 17.7603C118.317 17.6048 117.805 17.4367 117.232 17.2564C116.675 17.0762 116.13 16.8635 115.598 16.6172C115.065 16.3722 114.591 16.0562 114.173 15.6714C113.755 15.2866 113.419 14.82 113.165 14.2711C112.911 13.7226 112.785 13.0547 112.785 12.2685C112.785 11.302 112.981 10.4748 113.374 9.78664C113.767 9.09884 114.283 8.53338 114.922 8.09105C115.56 7.64912 116.282 7.32629 117.085 7.12051C117.887 6.91596 118.698 6.81348 119.517 6.81348C120.5 6.81348 121.503 6.99373 122.527 7.35424C123.55 7.71474 124.447 8.247 125.218 8.9514L122.539 11.7771Z" fill="#D9D9D9"/>
</g>
<defs>
<clipPath id="clip0_2394_5274">
<rect width="126" height="32" fill="white"/>
</clipPath>
</defs>
</svg>
