<svg width="83" height="25" viewBox="0 0 83 25" fill="none" xmlns="http://www.w3.org/2000/svg">
<g clip-path="url(#clip0_2216_5247)">
<path d="M15.7788 23.1597L15.5124 25H6.89632L7.1738 23.1597H15.7788Z" fill="#045CC7"/>
<path d="M16.1503 20.5864L15.8847 22.4268H7.28441L7.56268 20.5864H16.1503Z" fill="#045CC7"/>
<path d="M16.5226 18.0132L16.2562 19.8536H7.67335L7.95082 18.0132H16.5226Z" fill="#045CC7"/>
<path d="M16.895 15.4399L16.6286 17.2795H8.06151L8.33899 15.4399H16.895Z" fill="#045CC7"/>
<path d="M17.2673 12.8667L17.0009 14.7063H8.44968L8.72716 12.8667H17.2673Z" fill="#045CC7"/>
<path d="M17.6389 10.2935L17.3733 12.133H8.83785L9.11612 10.2935H17.6389Z" fill="#045CC7"/>
<path d="M18.0113 7.71973L17.7456 9.5601H9.22679L9.50426 7.71973H18.0113Z" fill="#045CC7"/>
<path d="M27.6456 5.14648L27.387 6.78606H18.1464L18.1172 6.98686H9.61494L9.64103 6.81373L0.870001 6.78606L1.11823 5.14648H27.6456Z" fill="#045CC7"/>
<path d="M28.0519 2.57275L27.7618 4.41313H1.22891L1.50718 2.57275H28.0519Z" fill="#045CC7"/>
<path d="M28.4582 0L28.1681 1.84037H1.61785L1.89612 0H28.4582Z" fill="#045CC7"/>
<path d="M41.9512 1.84037H32.8331L31.7469 0H40.914L41.9512 1.84037Z" fill="#045CC7"/>
<path d="M56.5382 0L54.9413 1.84037H46.3055L47.8778 0H56.5382Z" fill="#045CC7"/>
<path d="M54.3057 2.57275L52.7096 4.41313H44.1061L45.6793 2.57275H54.3057Z" fill="#045CC7"/>
<path d="M43.4018 4.41313H34.3525L33.2655 2.57275H42.3638L43.4018 4.41313Z" fill="#045CC7"/>
<path d="M52.074 5.14648L50.4771 6.98686H35.8711L34.7849 5.14648H52.074Z" fill="#045CC7"/>
<path d="M49.8415 7.71973L48.2446 9.5601H37.3905L36.3035 7.71973H49.8415Z" fill="#045CC7"/>
<path d="M36.3557 12.133L37.8783 10.3867L37.8229 10.2935H47.6082L47.4762 10.446L48.4699 12.133H36.3557Z" fill="#045CC7"/>
<path d="M49.9854 14.7063H34.1129L35.7169 12.8667H48.9015L49.9854 14.7063Z" fill="#045CC7"/>
<path d="M51.5008 17.2795H31.8702L33.4734 15.4399H50.417L51.5008 17.2795Z" fill="#045CC7"/>
<path d="M41.2721 18.0132L39.555 19.8536H29.6266L31.2306 18.0132H41.2721Z" fill="#045CC7"/>
<path d="M38.8712 20.5864L37.1541 22.4268H27.3831L28.9879 20.5864H38.8712Z" fill="#045CC7"/>
<path d="M36.4703 23.1597L34.7533 25H25.1403L26.7443 23.1597H36.4703Z" fill="#045CC7"/>
<path d="M53.0163 19.8536H43.2461L42.148 18.0132H51.9325L53.0163 19.8536Z" fill="#045CC7"/>
<path d="M54.5318 22.4268H44.7813L43.6832 20.5864H53.448L54.5318 22.4268Z" fill="#045CC7"/>
<path d="M56.0473 25H46.3157L45.2177 23.1597H54.9635L56.0473 25Z" fill="#045CC7"/>
<path d="M78.8353 23.1597C76.6985 24.3265 74.183 25 71.4905 25C68.7979 25 66.2824 24.3265 64.1448 23.1597H78.8353Z" fill="#045CC7"/>
<path d="M82.2093 20.5864C81.5603 21.2663 80.8306 21.8837 80.0338 22.4268H62.9455C62.1486 21.8837 61.419 21.2663 60.7699 20.5864H82.2093Z" fill="#045CC7"/>
<path d="M81.7524 19.8536H60.1209C59.6473 19.2757 59.2283 18.6598 58.8702 18.0132H67.1045C68.3022 18.8029 69.7686 19.2678 71.3521 19.2678C72.9355 19.2678 74.4004 18.8037 75.5972 18.0132H79.697L81.7524 19.8536Z" fill="#045CC7"/>
<path d="M66.1685 17.2795H58.4971C58.2212 16.6882 57.9959 16.0732 57.8244 15.4399H64.7558C65.114 16.1253 65.593 16.7467 66.1685 17.2795Z" fill="#045CC7"/>
<path d="M64.4285 14.7063H57.6513C57.5311 14.1071 57.4592 13.4928 57.4394 12.8667H64.042C64.0783 13.5078 64.2119 14.1244 64.4285 14.7063Z" fill="#045CC7"/>
<path d="M64.4285 10.2935C64.2119 10.8753 64.0783 11.4919 64.042 12.133H57.4394C57.4592 11.5069 57.5311 10.8927 57.6513 10.2935H64.4285Z" fill="#045CC7"/>
<path d="M66.1693 7.71973C65.5938 8.25255 65.114 8.87391 64.7558 9.5601H57.8244C57.9959 8.92688 58.222 8.31184 58.4979 7.71973H66.1693Z" fill="#045CC7"/>
<path d="M82.1698 5.14648L80.1041 6.98686H75.5988C74.4012 6.19711 72.9355 5.73227 71.3521 5.73227C69.7686 5.73227 68.3022 6.19711 67.1045 6.98686H58.8702C59.2283 6.3402 59.6473 5.72437 60.1209 5.14648H82.1698Z" fill="#045CC7"/>
<path d="M79.2812 7.71973L77.7009 9.12768C77.3792 8.61145 76.9863 8.13792 76.5341 7.71973H79.2812Z" fill="#045CC7"/>
<path d="M82.2101 4.41313H60.7699C61.419 3.73327 62.1486 3.11585 62.9455 2.57275H80.0338C80.8314 3.11585 81.5611 3.73327 82.2101 4.41313Z" fill="#045CC7"/>
<path d="M78.8353 1.84037H64.1448C66.2824 0.673539 68.7979 0 71.4905 0C74.183 0 76.6985 0.672749 78.8353 1.84037Z" fill="#045CC7"/>
<path d="M78.878 17.2794H76.5341C76.9206 16.9221 77.2629 16.5253 77.5554 16.0952L78.878 17.2794Z" fill="#045CC7"/>
</g>
<defs>
<clipPath id="clip0_2216_5247">
<rect width="81.3401" height="25" fill="white" transform="translate(0.869912)"/>
</clipPath>
</defs>
</svg>
