<svg width="62" height="25" viewBox="0 0 62 25" fill="none" xmlns="http://www.w3.org/2000/svg">
<path fill-rule="evenodd" clip-rule="evenodd" d="M23.8625 12.6216C23.8625 19.2141 18.5241 24.5532 11.9309 24.5532C5.3384 24.5532 0 19.2141 0 12.6216C0 6.04317 5.3384 0.690674 11.9309 0.690674C18.5241 0.690674 23.8625 6.04317 23.8625 12.6216Z" fill="white"/>
<path fill-rule="evenodd" clip-rule="evenodd" d="M23.8625 12.6216C23.8625 19.2141 18.5241 24.5532 11.9309 24.5532C5.3384 24.5532 0 19.2141 0 12.6216C0 6.04317 5.3384 0.690674 11.9309 0.690674C18.5241 0.690674 23.8625 6.04317 23.8625 12.6216Z" fill="white"/>
<path fill-rule="evenodd" clip-rule="evenodd" d="M31.4387 15.6008C31.4387 13.5745 30.8338 12.561 29.6388 12.561C28.9735 12.561 28.3988 12.8486 27.9459 13.4233V17.3698C28.3841 17.9605 29.0044 18.2623 29.8055 18.2623C30.8943 18.2623 31.4387 17.3698 31.4387 15.6008ZM34.2204 15.5404C34.2204 17.1285 33.8582 18.3987 33.1626 19.3504C32.4361 20.3498 31.4387 20.8485 30.1537 20.8485C29.2914 20.8485 28.5507 20.5756 27.9459 20.0312V20.622H25.2085V7.51022L27.9459 6.13452V10.8371C28.6112 10.2624 29.3519 9.97552 30.1537 9.97552C31.3479 9.97552 32.301 10.4137 33.0261 11.2753C33.8132 12.2585 34.2204 13.6793 34.2204 15.5404Z" fill="white"/>
<path fill-rule="evenodd" clip-rule="evenodd" d="M39.2268 20.6218H36.4893V7.50998L39.2268 6.13428V20.6218Z" fill="white"/>
<path fill-rule="evenodd" clip-rule="evenodd" d="M48.103 15.4189C48.103 14.572 47.9363 13.9073 47.6043 13.3777C47.271 12.8636 46.7877 12.6062 46.1519 12.6062C45.5168 12.6062 45.0329 12.8636 44.7157 13.3777C44.383 13.8912 44.2163 14.572 44.2163 15.4189C44.2163 16.2509 44.383 16.917 44.7009 17.3995C45.0329 17.9291 45.5168 18.202 46.1519 18.202C46.7723 18.202 47.271 17.9143 47.6191 17.3404C47.9363 16.8417 48.103 16.1897 48.103 15.4189ZM50.8861 15.4189C50.8861 17.007 50.4325 18.3068 49.5393 19.321C48.6481 20.3332 47.5129 20.8487 46.1519 20.8487C44.7916 20.8487 43.6572 20.3332 42.7653 19.321C41.8882 18.3068 41.4346 17.007 41.4346 15.4189C41.4346 13.8159 41.8882 12.5161 42.7653 11.5026C43.6572 10.4743 44.7916 9.96021 46.1519 9.96021C47.5129 9.96021 48.6481 10.4743 49.5393 11.5026C50.4325 12.5161 50.8861 13.8159 50.8861 15.4189Z" fill="white"/>
<path fill-rule="evenodd" clip-rule="evenodd" d="M62.0001 20.6219H58.7338L57.6759 18.8825C57.2673 18.2165 56.9494 17.6566 56.7222 17.1875C56.5864 17.5061 56.2685 18.0801 55.7699 18.8825L54.7113 20.6219H51.4604L55.1495 14.9656L52.0196 10.1716H55.2712L55.7699 11.0339C56.0266 11.4573 56.3452 12.0165 56.7222 12.7121C56.8439 12.5004 57.1611 11.9257 57.6759 11.0339L58.1746 10.1716H61.4402L58.2949 14.9656L62.0001 20.6219Z" fill="white"/>
<path fill-rule="evenodd" clip-rule="evenodd" d="M23.8625 12.6216C23.8625 14.5982 23.3819 16.4639 22.5317 18.1052V10.1719H19.795V15.888C19.795 17.46 19.1901 18.2477 17.9951 18.2477C17.4057 18.2477 16.9668 18.0655 16.6644 17.7174C16.3768 17.3551 16.2262 16.72 16.2262 15.8275V10.1719H13.4895V16.054C13.4895 19.245 14.7745 20.8339 17.3452 20.8339C18.3883 20.8339 19.2049 20.5301 19.795 19.9259V20.6222H20.7856C18.6034 23.0356 15.4452 24.5532 11.9309 24.5532C5.3384 24.5532 0 19.2141 0 12.6216C0 6.04317 5.3384 0.690674 11.9309 0.690674C18.5241 0.690674 23.8625 6.04317 23.8625 12.6216ZM11.7192 7.78257C11.7192 8.90157 10.8273 9.79407 9.709 9.79407C8.6041 9.79407 7.6967 8.90157 7.6967 7.78257C7.6967 6.67897 8.6041 5.77167 9.709 5.77167C10.8273 5.77167 11.7192 6.67897 11.7192 7.78257Z" fill="#ED1B2F"/>
</svg>
