<svg width="80" height="32" viewBox="0 0 80 32" fill="none" xmlns="http://www.w3.org/2000/svg">
<path d="M62.2486 23.2815C62.2658 22.491 62.331 21.7056 62.5441 20.9391C62.9772 19.3769 63.8657 18.1103 65.0447 17.0207C66.3302 15.8331 67.8202 15.0425 69.5474 14.7813C72.6443 14.3121 75.3512 15.0924 77.5648 17.3884C78.7089 18.5743 79.5238 19.9509 79.8208 21.5664C80.3298 24.323 79.7768 26.8253 77.8414 28.9478C76.5249 30.3914 74.9456 31.4088 73.0191 31.7577C69.2897 32.4365 66.2099 31.3263 63.883 28.2741C62.7934 26.8442 62.3121 25.2201 62.2468 23.4482C62.2451 23.3932 62.2468 23.3383 62.2468 23.2833L62.2486 23.2815Z" fill="white"/>
<path d="M59.5145 23.3261C59.5402 24.5291 59.3409 25.6875 58.8322 26.7857C58.2341 28.0763 57.3387 29.135 56.2388 30.0166C54.546 31.376 52.6022 31.9999 50.4282 31.9415C48.7921 31.8968 47.2677 31.5084 45.8894 30.6113C44.5935 29.7674 43.5435 28.6641 42.7993 27.3253C42.0603 25.9951 41.7303 24.5308 41.8008 22.9875C41.8506 21.9083 42.0225 20.8616 42.4693 19.8717C43.1344 18.392 44.1914 17.2354 45.4872 16.2919C47.0718 15.1387 48.8557 14.6162 50.8183 14.6592C52.0918 14.6867 53.3292 14.8775 54.4652 15.4618C57.184 16.8624 58.9353 19.0124 59.4663 22.0732C59.4938 22.2279 59.5093 22.386 59.5145 22.5441C59.5231 22.8054 59.5162 23.0649 59.5162 23.3261H59.5145Z" fill="white"/>
<path d="M6.04539 14.3979H20.8375V14.6694C20.8375 18.33 20.8254 21.9889 20.8444 25.6496C20.8512 26.9935 20.3855 28.1244 19.5038 29.1091C18.2114 30.5562 16.5977 31.4017 14.6746 31.6406C13.0041 31.8468 11.3714 31.7145 9.82809 30.9772C8.49619 30.3396 7.46159 29.3583 6.68479 28.1209C6.32729 27.5503 6.13999 26.8973 6.13479 26.2047C6.10729 22.3464 6.07469 18.4899 6.04199 14.6316C6.04199 14.5577 6.04199 14.4838 6.04199 14.3979H6.04539Z" fill="#E2017A"/>
<path d="M25.1147 22.9789C25.1147 20.1982 25.1147 17.4175 25.1147 14.6368C25.1147 14.4363 25.2167 14.3361 25.4206 14.3361C27.4056 14.3361 29.3906 14.355 31.3756 14.3309C33.0993 14.3086 34.5894 14.8843 35.8972 15.9705C37.9235 17.6547 38.9426 19.8425 39.0904 22.453C39.2021 24.4088 38.8274 26.2494 37.743 27.9096C36.6465 29.5887 35.2115 30.8501 33.2454 31.4018C32.7505 31.541 32.2194 31.6081 31.7038 31.6132C29.602 31.6355 27.5001 31.6235 25.3983 31.6235C25.1147 31.6235 25.1147 31.6235 25.1147 31.3417C25.1147 28.5541 25.1147 25.7665 25.1147 22.9789Z" fill="white"/>
<path d="M12.8455 11.9575L10.5133 12.071C10.4996 11.9747 10.4807 11.8957 10.4773 11.8166C10.4154 10.5019 10.3587 9.18542 10.2951 7.87072C10.2057 5.99402 10.1043 4.11732 10.0253 2.24052C10.0064 1.80572 10.0459 1.36582 10.0974 0.934426C10.1164 0.767716 10.2212 0.599296 10.3209 0.456646C10.7144 -0.108774 11.4586 -0.137984 11.9089 0.384466C12.2096 0.733346 12.3213 1.15612 12.3437 1.60122C12.433 3.43672 12.5172 5.27222 12.6032 7.10942C12.6702 8.52722 12.7389 9.94512 12.8094 11.3629C12.818 11.5537 12.8317 11.7444 12.8455 11.9593V11.9575Z" fill="#E2017A"/>
<path d="M16.7161 12.1157L14.3857 11.9163C14.3994 11.7083 14.4097 11.5141 14.4252 11.3199C14.53 10.1186 14.6383 8.91725 14.7397 7.71425C14.8428 6.50605 14.9373 5.29615 15.0456 4.08795C15.0834 3.65835 15.1298 3.22865 15.2123 2.80595C15.2811 2.45015 15.4684 2.14085 15.7691 1.91915C16.1919 1.60975 16.747 1.67675 17.077 2.08415C17.4276 2.51715 17.486 3.03105 17.4431 3.56215C17.3537 4.65515 17.2609 5.74815 17.1664 6.83945C17.0633 8.04765 16.955 9.25585 16.8519 10.4657C16.8055 11.0036 16.7625 11.5433 16.7161 12.1138V12.1157Z" fill="#E2017A"/>
<path d="M8.44417 12.3785C7.68107 12.4576 6.92667 12.5366 6.14127 12.6174C6.11197 12.3905 6.08107 12.1826 6.06047 11.9746C5.86287 10.0721 5.66687 8.16791 5.47097 6.26541C5.38677 5.45421 5.28367 4.64311 5.23727 3.82841C5.22007 3.51741 5.28017 3.17711 5.39877 2.89011C5.72187 2.10641 6.60527 2.00501 7.13627 2.66491C7.39927 2.99151 7.51957 3.37471 7.56427 3.78381C7.76357 5.65881 7.95607 7.53551 8.15197 9.41051C8.25337 10.3798 8.35827 11.3473 8.46137 12.3149C8.46137 12.3269 8.45617 12.3407 8.44587 12.3785H8.44417Z" fill="#E2017A"/>
<path d="M20.8871 12.6139C20.0897 12.528 19.3249 12.4455 18.5498 12.3613C18.6255 11.6549 18.6959 10.9813 18.7681 10.3093C18.8729 9.34175 18.9726 8.37415 19.0843 7.40665C19.1256 7.05425 19.1789 6.70025 19.2545 6.35485C19.2906 6.19155 19.3748 6.03345 19.4641 5.88905C19.703 5.51095 20.0382 5.26865 20.5073 5.32535C20.9662 5.38205 21.224 5.69315 21.3769 6.10565C21.5454 6.55935 21.4972 7.02335 21.4457 7.48735C21.3237 8.59075 21.2051 9.69405 21.0848 10.7991C21.0195 11.392 20.9559 11.9832 20.8854 12.6139H20.8871Z" fill="#E2017A"/>
<path d="M4.50203 23.8555C4.16693 23.4345 3.86443 22.979 3.48813 22.5975C2.65633 21.7537 1.78493 20.9477 0.930832 20.1244C0.554432 19.7601 0.209032 19.3751 0.0508324 18.8544C-0.0590676 18.4883 0.0148333 18.1635 0.234733 17.8645C0.793333 17.1049 1.83653 16.9846 2.55493 17.5947C3.16673 18.1137 3.78373 18.6275 4.39203 19.15C4.45053 19.1998 4.50553 19.2926 4.50553 19.3665C4.51233 20.848 4.51063 22.3294 4.51063 23.8126C4.51063 23.8298 4.50383 23.8469 4.50203 23.8555Z" fill="#E2017A"/>
</svg>
