<svg width="110" height="39" viewBox="0 0 110 39" fill="none" xmlns="http://www.w3.org/2000/svg">
<path d="M12.7046 20.0862C12.7046 16.7688 12.7754 13.4483 12.6877 10.1325C12.5846 6.27346 14.4218 3.70386 17.7561 2.02823C20.1242 0.838832 22.6768 0.258748 25.2895 0.137192C29.0932 -0.0412952 32.9137 -0.192086 36.6758 0.680348C38.8853 1.19273 40.998 1.92514 42.8367 3.29919C44.7785 4.7517 45.8602 6.66275 45.8633 9.11233C45.8725 16.5396 45.8633 23.9668 45.8817 31.3925C45.8817 31.9572 45.6709 32.0664 45.1632 32.0603C43.1921 32.0372 41.2211 32.0295 39.25 32.0649C38.6715 32.0757 38.5268 31.911 38.5284 31.3371C38.5484 24.1653 38.5022 16.9935 38.5607 9.82167C38.5807 7.42901 37.5036 5.85802 35.4525 4.82248C34.0631 4.12084 32.5706 3.77002 31.0304 3.67001C28.7023 3.51922 26.3774 3.48691 24.1355 4.32087C21.2489 5.39641 19.9903 7.17052 19.9903 10.2263C19.9888 17.1935 19.9795 24.1622 20.0057 31.1294C20.0088 31.8372 19.8811 32.0987 19.1025 32.0726C17.2099 32.0095 15.3142 32.0295 13.4201 32.0649C12.8447 32.0757 12.6862 31.9156 12.6908 31.3386C12.7169 27.5873 12.7046 23.8345 12.7046 20.0832V20.0862Z" fill="#107DC1"/>
<path d="M33.1845 18.5277C33.1845 21.999 33.1091 25.4718 33.2092 28.94C33.2922 31.8389 32.0382 33.9222 29.721 35.4948C27.316 37.1258 24.6079 37.8967 21.7552 38.2044C18.6178 38.5429 15.4512 38.5244 12.3277 38.3013C8.63638 38.0382 5.0297 37.1842 2.26315 34.41C0.9168 33.059 0.193618 31.4034 0.128993 29.477C-0.124889 22.0021 0.0889877 14.5271 0.00743745 7.0522C0.00128271 6.51059 0.205928 6.34595 0.72908 6.35056C2.67398 6.3721 4.62041 6.38441 6.56531 6.34441C7.20232 6.3321 7.38235 6.51366 7.38081 7.15376C7.35773 13.9932 7.45928 20.8342 7.33311 27.6721C7.25464 31.8942 9.22261 33.8576 12.9493 34.5993C15.3358 35.0732 17.7546 35.1901 20.1765 34.7116C23.9909 33.9592 25.9158 31.645 25.9327 27.7583C25.9635 20.9188 25.9527 14.0794 25.9266 7.23992C25.9235 6.54136 26.102 6.3244 26.8159 6.34287C28.6839 6.39211 30.5534 6.38441 32.4213 6.34595C33.0307 6.33364 33.1999 6.5152 33.1953 7.11836C33.1691 10.9205 33.1815 14.7225 33.183 18.5262L33.1845 18.5277Z" fill="#79C5EE"/>
<path d="M60.0699 22.4331C60.0699 20.7236 60.0684 19.0142 60.0699 17.3047C60.073 14.6597 61.3224 13.2226 63.9613 12.7779C65.0045 12.6025 66.0508 12.6779 67.0971 12.6702C69.2728 12.6563 71.4485 12.7009 73.6211 12.6455C74.3412 12.6271 74.5089 12.8579 74.4428 13.5072C74.3904 14.0119 74.4105 14.5274 74.4397 15.0367C74.4628 15.4429 74.3089 15.5475 73.9135 15.5521C70.9977 15.5875 68.0803 15.6521 65.1645 15.6983C63.892 15.7183 63.3596 16.2245 63.3335 17.5032C63.3181 18.2433 63.3627 18.9849 63.3196 19.722C63.2873 20.2728 63.4966 20.4036 64.0213 20.4005C67.2448 20.379 70.4699 20.4067 73.6934 20.3744C74.3043 20.3682 74.5028 20.5298 74.4428 21.1329C74.3781 21.7884 74.6474 22.667 74.312 23.0532C73.9227 23.5025 73.0195 23.1932 72.3409 23.1978C69.5513 23.2163 66.7632 23.2163 63.9736 23.1948C63.4873 23.1917 63.2996 23.2932 63.3165 23.8241C63.3581 25.0981 63.3258 26.3752 63.3319 27.6508C63.3381 29.0433 63.8997 29.6157 65.3568 29.6265C68.1465 29.648 70.9346 29.6526 73.7242 29.6218C74.3043 29.6157 74.4966 29.7634 74.4412 30.3404C74.3797 30.9959 74.6382 31.8529 74.3074 32.2622C73.9581 32.6961 73.0641 32.3961 72.4102 32.3992C69.7744 32.4146 67.1386 32.4192 64.5029 32.3976C61.7609 32.3761 60.0945 30.6928 60.0715 27.9447C60.0576 26.1075 60.0684 24.2718 60.0684 22.4347L60.0699 22.4331Z" fill="#D9D9D9"/>
<path d="M49.6084 23.1253C49.6084 20.3219 49.6207 17.5168 49.5977 14.7134C49.593 14.1918 49.7177 14.0102 50.2716 14.021C52.138 14.0563 54.0044 14.0487 55.8709 14.0302C56.3309 14.0256 56.5448 14.0948 56.5433 14.6426C56.5217 20.3019 56.5248 25.9611 56.5371 31.6204C56.5371 32.0728 56.4325 32.242 55.9447 32.2359C54.0275 32.2097 52.1088 32.2082 50.1916 32.2359C49.6992 32.242 49.6007 32.0651 49.6038 31.6158C49.6207 28.7862 49.613 25.9565 49.613 23.1269H49.61L49.6084 23.1253Z" fill="#E47926"/>
<path d="M88.4248 32.4002C86.94 32.4002 85.4536 32.3479 83.9703 32.4125C82.0716 32.4956 80.9868 31.0385 80.9514 29.5475C80.8914 26.9964 80.8991 24.4437 80.9407 21.8925C80.9668 20.3769 82.1455 19.2645 83.7503 19.2352C86.2584 19.1906 88.768 19.1875 91.276 19.2322C93.1163 19.2645 94.241 20.4754 94.2426 22.2972C94.2426 23.0112 94.2718 23.7282 94.221 24.4406C94.1041 26.0639 92.9563 27.1687 91.3222 27.1933C89.0449 27.2272 86.7661 27.2256 84.4873 27.1964C83.8965 27.1887 83.6965 27.3241 83.7057 27.9519C83.7349 29.9553 83.7057 29.9553 85.7306 29.9568C88.2386 29.9568 90.7482 29.9691 93.2563 29.9476C93.7194 29.9429 93.861 30.0491 93.8641 30.5323C93.8764 32.4002 93.8948 32.4002 92.0315 32.4002C90.8282 32.4002 89.625 32.4002 88.4217 32.4002H88.4248ZM87.2677 24.5837C88.3171 24.5837 89.365 24.5714 90.4143 24.5899C90.8744 24.5976 91.2006 24.4129 91.4253 24.0329C92.1038 22.8819 91.4453 21.6879 90.1097 21.6725C88.7541 21.6571 87.3985 21.6679 86.0429 21.6679C83.698 21.6679 83.6011 21.7787 83.718 24.1129C83.7365 24.476 83.8334 24.5976 84.1996 24.5899C85.2228 24.5699 86.246 24.5822 87.2693 24.5822L87.2677 24.5837Z" fill="#D9D9D9"/>
<path d="M103.606 19.2153C105.218 19.2153 106.831 19.2306 108.442 19.2045C108.899 19.1968 109.049 19.303 109.052 19.7907C109.065 21.671 109.085 21.671 107.218 21.671C104.787 21.671 102.356 21.671 99.925 21.671C98.8864 21.671 98.5063 22.051 98.5032 23.102C98.4971 24.9899 98.4971 26.8779 98.5032 28.7659C98.5063 29.6983 98.7463 29.943 99.688 29.9445C102.579 29.9522 105.472 29.9599 108.363 29.9353C108.892 29.9306 109.112 30.0599 109.045 30.6092C108.965 31.2539 109.331 32.1202 108.88 32.491C108.492 32.8095 107.658 32.6064 107.023 32.6064C104.336 32.6033 101.648 32.651 98.9648 32.5587C96.7968 32.4849 95.6813 31.2231 95.6782 29.0859C95.6736 26.8148 95.6751 24.5453 95.6782 22.2742C95.6797 20.557 96.9492 19.2722 98.694 19.2168C98.7448 19.2153 98.7971 19.2153 98.8479 19.2153C100.434 19.2153 102.021 19.2153 103.607 19.2153H103.606Z" fill="#D9D9D9"/>
<path d="M79.2681 22.589C79.2681 25.651 79.2589 28.7115 79.2789 31.7734C79.282 32.2458 79.1973 32.472 78.665 32.412C77.9372 32.3289 76.9601 32.7213 76.54 32.255C76.1785 31.8519 76.4169 30.8979 76.4154 30.1886C76.4108 24.6016 76.4216 19.0147 76.4016 13.4262C76.4 12.8507 76.5016 12.5753 77.1478 12.6537C77.6264 12.7122 78.1218 12.703 78.6034 12.6537C79.1466 12.6014 79.2851 12.7907 79.2804 13.3246C79.2543 16.4112 79.2681 19.4978 79.2681 22.586V22.589Z" fill="#D9D9D9"/>
<path d="M56.8726 7.21684C56.8802 9.33715 55.2262 10.9958 53.0997 10.9989C51.0056 11.002 49.3068 9.30022 49.3161 7.20607C49.3253 5.095 51.0071 3.41629 53.1089 3.42091C55.2277 3.42552 56.8633 5.07499 56.8726 7.2153V7.21684Z" fill="#E47926"/>
</svg>
