<svg width="149" height="28" viewBox="0 0 149 28" fill="none" xmlns="http://www.w3.org/2000/svg">
<path d="M14.4165 0C14.9617 0.287112 15.5674 0.110241 16.1465 0.213214C17.9467 0.534247 19.6342 1.10362 21.1982 2.04734C23.5678 3.47684 25.3498 5.44665 26.5443 7.92163C27.4068 9.70851 27.849 11.5935 27.8732 13.6057C27.9035 16.1279 27.3947 18.4781 26.1687 20.6878C25.1851 22.4602 23.8743 23.9381 22.2521 25.1399C20.4095 26.504 18.3319 27.3907 16.0677 27.6924C12.0942 28.2218 8.46592 27.3156 5.27377 24.8237C3.0544 23.0913 1.5292 20.8623 0.663016 18.2298C0.0354879 16.3303 -0.142594 14.352 0.111809 12.3264C0.334714 10.548 0.830195 8.8823 1.67821 7.31954C2.93932 4.9972 4.72014 3.17883 7.03157 1.85835C8.64037 0.938869 10.3739 0.438543 12.1802 0.123567C12.6006 0.0508806 13.0476 0.266518 13.4486 0.00121144H14.4165V0ZM13.892 19.7671C13.4583 18.3509 13.0803 17.0814 12.6817 15.819C11.549 12.2307 10.403 8.64607 9.27759 5.05535C9.19158 4.77914 9.08497 4.6895 8.79665 4.69192C7.46527 4.70767 6.13389 4.70403 4.80373 4.69555C4.45362 4.69313 4.31309 4.69313 4.46816 5.15106C5.54634 8.34806 6.58092 11.5608 7.62518 14.7699C8.77726 18.3122 9.92692 21.8569 11.0717 25.4015C11.159 25.6705 11.2619 25.8037 11.5927 25.7977C13.0246 25.7722 14.4577 25.7577 15.8884 25.8025C16.3948 25.8183 16.5777 25.6208 16.7183 25.1932C17.7008 22.2094 18.6954 19.2292 19.6948 16.2515C20.9293 12.5712 22.1673 8.89078 23.42 5.21648C23.5569 4.81428 23.5011 4.68707 23.0626 4.69192C21.7724 4.70888 20.481 4.70646 19.1896 4.69192C18.8601 4.68829 18.7159 4.78036 18.6118 5.12319C18.086 6.8386 17.5142 8.53825 16.9642 10.2464C16.3318 12.215 15.7104 14.186 15.0768 16.1546C14.7085 17.3006 14.3269 18.4418 13.892 19.7647V19.7671Z" fill="#0457A5"/>
<path d="M148.877 18.4384C147.863 18.9157 146.993 19.6208 146.063 20.2277C143.962 21.6003 141.887 23.0116 139.796 24.3987C139.607 24.5247 139.353 24.7173 139.147 24.5308C138.94 24.343 139.189 24.131 139.286 23.9602C140.528 21.7602 140.812 19.3688 140.638 16.9132C140.514 15.1724 139.894 13.5599 139.007 12.0577C138.9 11.8748 138.742 11.687 138.877 11.5295C139.072 11.3018 139.287 11.5465 139.442 11.6495C142.592 13.7441 145.733 15.852 148.876 17.9562V18.4384H148.877Z" fill="#0457A5"/>
<path d="M45.1872 25.4266C43.7892 25.4266 42.4796 25.4194 41.17 25.4327C40.8902 25.4351 40.8466 25.3479 40.7703 25.0814C40.6818 24.7724 40.7739 24.4054 40.4965 24.1364C39.434 25.1189 38.1342 25.4884 36.7204 25.6907C35.4266 25.8761 34.2139 25.7053 33.0049 25.3055C31.6505 24.8585 30.662 23.4544 30.4875 22.0467C30.3724 21.1199 30.4439 20.2429 30.7686 19.407C31.321 17.9823 32.5361 17.339 33.9426 16.9974C35.2643 16.6764 36.6114 16.5165 37.9634 16.382C38.5243 16.3263 39.0791 16.1857 39.5988 15.958C40.5849 15.5243 40.7521 14.0027 39.8471 13.3485C38.8489 12.6265 36.8803 12.6095 35.8627 13.4127C35.486 13.7108 35.303 14.1202 35.2412 14.5757C35.1928 14.9295 35.0547 15.0785 34.6731 15.0712C33.544 15.0494 32.4149 15.0506 31.2859 15.07C30.88 15.0773 30.8619 14.9525 30.92 14.5806C31.0945 13.4842 31.4846 12.5284 32.3168 11.7482C33.3308 10.7984 34.5653 10.3672 35.8881 10.1261C37.0184 9.92014 38.1669 9.96981 39.3056 10.0134C40.7109 10.0679 42.0617 10.3817 43.2368 11.2103C44.344 11.9917 44.6542 13.1571 44.6663 14.411C44.6929 17.1403 44.6869 19.8709 44.6675 22.6003C44.6614 23.5537 44.7668 24.4744 45.1872 25.4254V25.4266ZM40.4323 18.2319C39.6327 18.5505 38.8174 18.7043 37.9803 18.8194C37.1783 18.9296 36.3606 19.035 35.6144 19.4348C34.9129 19.8104 34.6912 20.4512 34.6488 21.1345C34.6052 21.8407 35.1673 22.4525 35.8312 22.7203C36.5108 22.994 37.2219 22.9601 37.8955 22.8717C38.9386 22.7348 39.7333 22.169 40.1125 21.1224C40.4504 20.1908 40.4504 19.2301 40.4335 18.2331L40.4323 18.2319Z" fill="white"/>
<path d="M137.229 20.6064C136.442 23.2618 134.882 25.0305 132.053 25.5672C130.128 25.9319 128.292 25.8131 126.505 25.0124C124.314 24.0287 123.094 22.2333 122.655 19.9873C122.239 17.8552 122.35 15.7109 123.465 13.7278C124.586 11.7325 126.28 10.5247 128.522 10.1346C130.117 9.85722 131.698 9.88145 133.228 10.5853C134.501 11.1716 135.485 12.0245 136.205 13.2153C137.182 14.8278 137.5 16.5904 137.513 18.4415C137.515 18.8498 137.388 18.9285 137.007 18.9273C133.781 18.9128 130.554 18.9334 127.328 18.9055C126.806 18.9006 126.659 19.0497 126.728 19.5354C126.983 21.3247 127.879 22.3957 129.863 22.5362C131.092 22.6234 132.305 22.4381 132.99 21.3671C133.514 20.5494 134.153 20.5955 134.895 20.6051C135.66 20.6148 136.427 20.6076 137.23 20.6076L137.229 20.6064ZM133.217 16.2682C132.919 14.6703 132.28 13.4104 130.468 13.1778C128.74 12.9549 127.012 13.9737 126.728 15.9181C126.682 16.2306 126.83 16.2742 127.103 16.273C129.134 16.2633 131.165 16.2682 133.217 16.2682Z" fill="white"/>
<path d="M80.9066 14.8212C80.3627 14.8212 79.8175 14.8212 79.2736 14.8212C79.0955 14.8212 78.9574 14.8503 78.9126 14.5704C78.7672 13.6558 78.2063 13.1724 77.282 12.9713C76.5527 12.8126 75.8319 12.7714 75.1353 12.9301C74.2873 13.1239 73.9444 13.6291 73.9553 14.0568C73.9675 14.5595 74.4557 15.2197 75.0372 15.4196C75.999 15.7479 76.9985 15.926 77.9858 16.1574C79.3693 16.4809 80.7758 16.7668 81.9739 17.6002C83.0872 18.3756 83.5112 20.0001 83.3598 21.2176C83.1672 22.7658 82.3761 23.8852 81.1307 24.7211C80.2379 25.3195 79.1936 25.5231 78.1433 25.6684C77.053 25.8199 75.9651 25.8175 74.8724 25.6721C72.9268 25.4128 71.2126 24.749 70.069 23.0493C69.599 22.3491 69.4815 21.5362 69.3628 20.7258C69.3191 20.4253 69.4476 20.3563 69.7323 20.3599C70.8213 20.3744 71.9104 20.3829 72.9983 20.3551C73.2915 20.3478 73.4429 20.5029 73.4599 20.6967C73.5762 22.085 74.5162 22.6592 75.7119 22.847C76.7744 23.0142 77.8526 22.9912 78.6957 22.1068C79.3984 21.3702 79.2796 20.4483 78.3589 19.9868C77.2335 19.4222 75.999 19.203 74.7864 18.911C73.69 18.6469 72.59 18.4083 71.5749 17.8534C70.1768 17.089 69.4391 15.4427 69.748 13.8932C70.235 11.4461 72.2302 10.3776 74.3902 10.1171C75.9033 9.93422 77.408 9.90151 78.8968 10.2492C80.9429 10.7277 82.3846 11.8653 82.8788 13.9986C83.0424 14.7025 82.9648 14.8236 82.238 14.8236C81.7946 14.8236 81.3512 14.8236 80.9066 14.8236V14.8212Z" fill="white"/>
<path d="M98.1515 15.7865C97.6076 15.7865 97.0612 15.7647 96.5197 15.7949C96.1902 15.8131 96.0509 15.6726 95.9927 15.3855C95.6511 13.6785 94.5814 13.2691 93.3094 13.16C92.1573 13.0607 91.0755 13.5865 90.4249 14.8403C89.3879 16.8356 89.3855 18.8938 90.3389 20.8878C90.9737 22.2156 91.9683 22.682 93.6861 22.5318C94.8176 22.4324 95.857 21.4766 96.0896 20.2058C96.195 19.6279 96.407 19.4801 96.9619 19.5092C97.8862 19.5577 98.8166 19.5431 99.7433 19.5129C100.212 19.4971 100.398 19.5129 100.25 20.098C100 21.0829 99.7724 22.0605 99.1824 22.9085C98.2327 24.275 96.9304 25.1655 95.3131 25.5168C92.8793 26.045 90.5485 25.8487 88.4309 24.3671C86.85 23.2611 85.9402 21.7165 85.6106 19.886C85.166 17.4158 85.4471 14.9893 86.9396 12.8984C88.0311 11.3683 89.5527 10.3701 91.5007 10.1133C93.1349 9.89763 94.7437 9.90853 96.3004 10.49C98.4725 11.3017 99.8306 12.8245 100.224 15.1371C100.296 15.5575 100.25 15.8664 99.6658 15.7974C99.1691 15.7392 98.6591 15.7852 98.1551 15.7852L98.1515 15.7865Z" fill="white"/>
<path d="M120.436 22.173C120.436 23.1118 120.436 24.1125 120.436 25.1144C120.436 25.2791 120.447 25.4075 120.202 25.433C118.574 25.6026 116.951 25.6777 115.361 25.1858C114.029 24.7739 113.299 23.7624 113.298 22.3813C113.298 19.509 113.287 16.6379 113.309 13.7656C113.313 13.3343 113.195 13.2156 112.775 13.2458C112.253 13.2834 111.725 13.2265 111.204 13.264C110.806 13.2931 110.735 13.1392 110.749 12.7867C110.776 12.1446 110.778 11.5014 110.749 10.8593C110.732 10.4825 110.818 10.3238 111.236 10.3529C111.778 10.3917 112.325 10.3432 112.869 10.3699C113.207 10.3868 113.314 10.2875 113.308 9.94103C113.287 8.73686 113.313 7.53147 113.292 6.32608C113.286 5.97961 113.395 5.88996 113.732 5.89602C114.861 5.9154 115.991 5.91904 117.12 5.89481C117.485 5.88754 117.544 6.02201 117.539 6.34304C117.522 7.52784 117.545 8.71263 117.525 9.89742C117.519 10.2512 117.584 10.3941 117.98 10.3723C118.664 10.336 119.352 10.3772 120.037 10.3553C120.346 10.3457 120.457 10.428 120.446 10.7527C120.421 11.4747 120.428 12.1992 120.443 12.9212C120.449 13.1865 120.363 13.2664 120.1 13.2604C119.395 13.2446 118.688 13.2677 117.983 13.2495C117.671 13.241 117.521 13.2798 117.524 13.6577C117.542 16.1279 117.53 18.598 117.536 21.0681C117.537 21.6266 117.971 22.1415 118.49 22.1657C119.124 22.196 119.761 22.173 120.437 22.173H120.436Z" fill="white"/>
<path d="M52.5407 12.9176C53.7921 10.8811 55.4615 9.84657 57.7959 9.99437C58.1509 10.0174 58.2369 10.1652 58.2332 10.4814C58.2223 11.4239 58.2296 12.3676 58.2296 13.3101C58.2296 14.0261 58.1448 14.1472 57.4494 13.9594C56.6511 13.7438 55.9266 13.9291 55.1986 14.1666C53.786 14.6257 53.0955 15.7172 52.9211 17.0886C52.594 19.6556 52.8363 22.2433 52.7975 24.8212C52.7902 25.3191 52.68 25.4597 52.1748 25.4391C51.1087 25.3955 50.039 25.4124 48.9718 25.4342C48.6265 25.4415 48.5393 25.3361 48.5405 24.9993C48.5514 20.2638 48.5514 15.5295 48.5405 10.7939C48.5405 10.4632 48.6156 10.3469 48.9669 10.3542C50.0342 10.3772 51.1027 10.3711 52.1712 10.3566C52.4559 10.353 52.5564 10.4269 52.5479 10.7224C52.5273 11.4202 52.5419 12.1192 52.5419 12.9164L52.5407 12.9176Z" fill="white"/>
<path d="M66.0955 17.9488C66.0955 20.2772 66.087 22.6056 66.1039 24.9328C66.1064 25.3084 66.0325 25.4489 65.6181 25.438C64.5109 25.4065 63.4012 25.415 62.2927 25.4343C61.9584 25.4404 61.8518 25.3568 61.853 25.0079C61.8651 20.2712 61.8639 15.5344 61.853 10.7977C61.853 10.4706 61.9208 10.3482 62.277 10.3555C63.3855 10.3785 64.4951 10.3906 65.6024 10.3507C66.0712 10.3337 66.1051 10.5227 66.1027 10.9031C66.087 13.2509 66.0955 15.5998 66.0955 17.9476V17.9488Z" fill="white"/>
<path d="M107.728 17.9397C107.728 20.2475 107.711 22.5553 107.741 24.8619C107.747 25.3538 107.595 25.4519 107.14 25.4373C106.094 25.4046 105.045 25.4131 103.997 25.4349C103.627 25.4422 103.482 25.3756 103.484 24.9564C103.501 20.2403 103.5 15.5253 103.484 10.8092C103.483 10.4179 103.609 10.3488 103.963 10.3561C105.051 10.3779 106.14 10.3888 107.228 10.3525C107.68 10.3379 107.74 10.5003 107.738 10.8964C107.719 13.2442 107.729 15.5919 107.729 17.9397H107.728Z" fill="white"/>
</svg>
