<svg width="125" height="50" viewBox="0 0 125 50" fill="none" xmlns="http://www.w3.org/2000/svg">
<g clip-path="url(#clip0_72_3)">
<path d="M68.0896 2.84134C67.227 3.97074 66.593 5.29241 66.3315 6.69202C66.2033 7.37971 66.1617 8.08991 66.2864 8.7776C66.761 11.4123 69.2537 13.4563 71.0413 15.2508C73.404 17.6205 75.8846 20.7471 79.1532 21.8107C80.5355 22.2611 82.0373 22.145 83.4006 21.563C85.0843 20.8424 87.7051 18.2787 87.7051 18.2787V49.5484H55.8915C56.7299 48.5386 57.8419 47.5806 58.5954 46.5101C57.4695 44.7364 44.1905 27.3191 44.1905 27.3191L39.7872 31.7016L50.9166 45.1278L37.7051 34.5095L37.7588 -0.293945H71.386C71.386 -0.293945 69.0493 1.58376 68.0896 2.84134ZM64.9422 26.692C64.9422 26.692 66.9169 28.542 67.7744 29.5761C68.4309 30.3678 69.0978 32.3806 67.3794 32.3529C66.1669 32.3321 65.0046 30.8736 64.2268 30.0975C63.0022 28.8763 61.7758 27.6551 60.5546 26.4305C59.4979 25.3721 58.4378 24.3241 57.4262 23.2242C56.8147 22.5607 55.4965 21.6479 55.9469 20.5877C57.0711 17.9427 60.8438 23.0544 60.8438 23.0544L65.6005 18.4814C65.6005 18.4814 65.3199 18.1298 65.2142 18.0241C64.5196 17.3191 63.0559 16.1464 62.0772 15.6042C61.1037 15.0655 59.808 14.5735 58.6717 14.7572C56.2604 15.1469 54.2805 16.4079 52.6419 18.2112C51.8918 19.0357 51.2734 20.0681 50.8386 21.0953C50.4316 22.0618 50.2064 23.122 50.3259 24.1647C50.4472 25.2162 50.9149 26.2053 51.5229 27.0714C52.408 28.3376 53.5634 29.415 54.6478 30.5063C56.4614 32.3269 58.9176 34.7294 60.4576 36.0061C61.1123 36.5483 62.4825 37.5131 63.3694 37.766C64.3671 38.0501 65.7321 38.031 66.7229 37.7729C68.7964 37.2359 70.8629 35.3028 72.0928 33.6035C73.4144 31.7778 73.7972 29.5467 73.1823 27.4196C72.5899 25.3704 69.4425 22.2559 69.4425 22.2559L64.9405 26.692H64.9422ZM73.165 40.5133H85.6386V39.2955H80.2306V32.9331H78.5972V39.2955H73.165V40.5133ZM83.6708 42.0861H75.1813V43.3558H83.6708V42.0861ZM76.9135 46.1585H81.7203V44.9252H76.9135V46.1585Z" fill="#30328C"/>
<path d="M87.7034 8.80878L85.0981 6.41314L80.7295 10.8147C80.7295 10.8147 82.8948 12.8431 83.8163 13.9655C84.2667 14.5146 84.6114 14.9841 84.3446 15.6458C84.1662 16.0875 83.8458 16.4218 83.3677 16.4928C82.2816 16.6556 81.3912 15.4223 80.7174 14.7589C79.5949 13.6503 75.2679 9.29899 74.213 8.24754C73.4578 7.49577 71.71 6.35424 71.71 5.19367C71.71 3.79059 73.1234 4.00018 73.9254 4.57008C74.9821 5.32012 76.7264 7.21861 76.7264 7.21861L81.5073 2.59883L78.0654 -0.293945H87.7051V8.80704L87.7034 8.80878Z" fill="#30328C"/>
<path d="M46.8702 49.5484H37.9286L37.7865 42.9158L46.8702 49.5484Z" fill="#30328C"/>
</g>
<defs>
<clipPath id="clip0_72_3">
<rect width="125" height="50" fill="white"/>
</clipPath>
</defs>
</svg>
