<svg width="125" height="50" viewBox="0 0 125 50" fill="none" xmlns="http://www.w3.org/2000/svg">
<path d="M88.4296 17.5351C89.0964 23.4238 84.3762 28.3209 79.6414 31.0957C69.0412 37.2511 54.2716 37.6367 43.1668 32.5425C38.7742 30.4549 34.599 27.2974 32.5984 22.7047C29.8063 16.2738 32.9725 9.81974 38.4755 6.12299C45.0079 1.66369 53.4452 0.376345 61.1142 1.26357C58.9396 1.53611 56.8028 1.91593 54.7123 2.41173C48.783 3.87884 42.6246 6.36944 38.5712 11.0404C34.5033 15.8447 35.5587 21.1594 40.2935 24.9924C49.2556 32.209 64.7327 33.0905 75.4286 29.6662C81.1752 27.7874 87.5308 24.1023 88.4267 17.5351H88.4296Z" fill="#FA6E36"/>
<path d="M56.0722 25.6245H55.0139L48.957 10.4953C48.7105 9.86324 48.4641 9.36164 48.2176 8.99921C47.9712 8.63679 47.6899 8.37004 47.371 8.20187C47.0521 8.03371 46.6578 7.94963 46.1823 7.94963V7.11169H53.2684V7.94963C53.0394 7.94963 52.7842 7.96702 52.5001 8.00471C52.2159 8.04241 51.9753 8.12939 51.7723 8.27146C51.5694 8.41063 51.4679 8.65708 51.4679 9.01371C51.4679 9.38774 51.6187 9.95602 51.9173 10.7186L55.1182 19.0254L56.1504 21.9625H56.2838L57.2087 19.1646L60.5402 10.2721C60.6271 10.0662 60.6996 9.84874 60.7518 9.61389C60.804 9.38194 60.8301 9.14418 60.8301 8.90063C60.8301 8.52661 60.688 8.27726 60.4068 8.14679C60.1255 8.01631 59.6761 7.95252 59.0586 7.95252V7.11459H64.6109V7.95252C64.2398 7.95252 63.9267 7.99312 63.6715 8.0772C63.4164 8.16128 63.1873 8.32945 62.9844 8.5817C62.7814 8.83395 62.5668 9.20217 62.3378 9.68638C62.1087 10.1706 61.8362 10.8055 61.5173 11.5884L56.0693 25.6274L56.0722 25.6245Z" fill="#FA6E36"/>
<path d="M66.4114 25.9028H65.5909L65.3531 19.8633H66.1737C66.4897 21.1507 66.8608 22.1336 67.2842 22.8149C67.7075 23.4963 68.2323 23.9631 68.8585 24.2124C69.4848 24.4647 70.2474 24.5894 71.1462 24.5894C71.8159 24.5894 72.39 24.4908 72.8655 24.2965C73.341 24.1023 73.7122 23.7833 73.976 23.3455C74.2399 22.9077 74.3732 22.3336 74.3732 21.6262C74.3732 20.8056 74.1558 20.1243 73.7267 19.585C73.2946 19.0457 72.7438 18.5644 72.074 18.144C71.4042 17.7236 70.7084 17.3002 69.9835 16.8711C69.279 16.442 68.6005 15.9868 67.9481 15.4997C67.2958 15.0155 66.7623 14.4356 66.3476 13.7659C65.933 13.0932 65.7272 12.2756 65.7272 11.3042C65.7272 10.3329 65.9562 9.49211 66.4143 8.82815C66.8724 8.16708 67.4813 7.65968 68.2381 7.30305C68.9948 6.94933 69.8327 6.77246 70.749 6.77246C71.5608 6.77246 72.1871 6.84205 72.6278 6.98122C73.0685 7.12039 73.4164 7.26536 73.6716 7.41613C73.9267 7.5669 74.1616 7.63939 74.3732 7.63939C74.5849 7.63939 74.756 7.5785 74.8893 7.45672C75.0227 7.33495 75.1213 7.12619 75.1938 6.82755H75.8809L76.0665 12.4205H75.272C74.9009 10.8722 74.408 9.72697 73.7904 8.98182C73.1729 8.23667 72.1958 7.87134 70.8562 7.89164C69.9574 7.89164 69.2616 8.11199 68.7658 8.5498C68.2729 8.98761 68.0264 9.64578 68.0264 10.5214C68.0264 11.2115 68.212 11.8029 68.5831 12.2958C68.9542 12.7916 69.4384 13.2324 70.0386 13.6238C70.6388 14.0152 71.2622 14.4153 71.9174 14.827C72.5002 15.1808 73.0859 15.5374 73.6745 15.8911C74.266 16.2449 74.8023 16.645 75.2865 17.0944C75.7707 17.5409 76.1593 18.0628 76.4492 18.6601C76.7392 19.2573 76.8841 19.9735 76.8841 20.8143C76.8841 21.8958 76.6493 22.8091 76.1825 23.5543C75.7157 24.2994 75.0749 24.8648 74.266 25.2446C73.4541 25.6274 72.5379 25.8187 71.5144 25.8187C70.5982 25.8187 69.853 25.7491 69.279 25.61C68.7049 25.4708 68.2555 25.3316 67.9307 25.1895C67.6031 25.0504 67.3363 24.9808 67.1247 24.9808C66.9478 24.9808 66.7884 25.0649 66.6492 25.233C66.5071 25.4012 66.4288 25.6245 66.4114 25.9057V25.9028Z" fill="#FA6E36"/>
<path d="M30.5022 48.2167L28 41.751H29.5715L31.3633 46.7235L33.1465 41.751H34.7179L32.2273 48.2167H30.5022Z" fill="#FA6E36"/>
<path d="M35.321 48.2167V41.751H36.6983V48.2167H35.321Z" fill="#FA6E36"/>
<path d="M37.9769 48.2167V41.751H40.5255C42.5522 41.751 43.9555 43.0412 43.9555 44.9896C43.9555 46.938 42.5493 48.2167 40.5255 48.2167H37.9769ZM39.3513 47.0047H40.5226C41.8013 47.0047 42.5493 46.0827 42.5493 44.9896C42.5493 43.8965 41.8505 42.9629 40.5226 42.9629H39.3513V47.0047Z" fill="#FA6E36"/>
<path d="M44.9384 48.2167V41.751H49.5136V42.9339H46.3156V44.3402H49.4469V45.5231H46.3156V47.025H49.5136V48.2167H44.9384Z" fill="#FA6E36"/>
<path d="M53.654 41.6437C55.6111 41.6437 57.0376 43.0384 57.0376 44.9868C57.0376 46.9352 55.614 48.3298 53.654 48.3298C51.694 48.3298 50.282 46.9352 50.282 44.9868C50.282 43.0384 51.7056 41.6437 53.654 41.6437ZM53.654 42.8673C52.4623 42.8673 51.6969 43.7777 51.6969 44.9897C51.6969 46.2016 52.4623 47.112 53.654 47.112C54.8457 47.112 55.6227 46.19 55.6227 44.9897C55.6227 43.7893 54.8486 42.8673 53.654 42.8673Z" fill="#FA6E36"/>
<path d="M58.3162 46.2596C58.7714 46.7351 59.4789 47.1323 60.3719 47.1323C61.1287 47.1323 61.4969 46.7728 61.4969 46.4046C61.4969 45.9204 60.9344 45.7551 60.1892 45.5811C59.1339 45.3376 57.7769 45.0477 57.7769 43.6037C57.7769 42.5281 58.7076 41.6553 60.2298 41.6553C61.2562 41.6553 62.1116 41.9656 62.7494 42.5571L61.984 43.566C61.4592 43.0818 60.7633 42.8586 60.1313 42.8586C59.4992 42.8586 59.1803 43.1311 59.1803 43.5168C59.1803 43.9517 59.7224 44.0879 60.4705 44.2619C61.5375 44.5055 62.8944 44.8244 62.8944 46.2596C62.8944 47.4426 62.0507 48.3327 60.3052 48.3327C59.0643 48.3327 58.1713 47.9152 57.5624 47.3063L58.3191 46.2596H58.3162Z" fill="#FA6E36"/>
<path d="M65.2488 48.2167V42.9629H63.3584V41.751H68.5165V42.9629H66.6347V48.2167H65.2488Z" fill="#FA6E36"/>
<path d="M73.054 48.2167L71.784 45.9H70.775V48.2167H69.3978V41.751H72.4219C73.7701 41.751 74.5936 42.6324 74.5936 43.8357C74.5936 45.0389 73.8774 45.5898 73.1787 45.7551L74.6313 48.2167H73.0511H73.054ZM72.219 42.9339H70.775V44.7171H72.219C72.7727 44.7171 73.1874 44.3691 73.1874 43.8241C73.1874 43.279 72.7698 42.931 72.219 42.931V42.9339Z" fill="#FA6E36"/>
<path d="M78.6962 41.6437C80.6533 41.6437 82.0799 43.0384 82.0799 44.9868C82.0799 46.9352 80.6562 48.3298 78.6962 48.3298C76.7362 48.3298 75.3242 46.9352 75.3242 44.9868C75.3242 43.0384 76.7478 41.6437 78.6962 41.6437ZM78.6962 42.8673C77.5046 42.8673 76.7391 43.7777 76.7391 44.9897C76.7391 46.2016 77.5046 47.112 78.6962 47.112C79.8879 47.112 80.6649 46.19 80.6649 44.9897C80.6649 43.7893 79.8908 42.8673 78.6962 42.8673Z" fill="#FA6E36"/>
<path d="M87.5076 48.2167L84.4256 43.8733V48.2167H83.0483V41.751H84.4633L87.4584 45.9377V41.751H88.8356V48.2167H87.5076Z" fill="#FA6E36"/>
<path d="M93.2485 41.6437C94.5851 41.6437 95.4288 42.2932 95.9246 43.0586L94.7794 43.6791C94.4778 43.2239 93.9269 42.8644 93.2485 42.8644C92.0771 42.8644 91.2218 43.7661 91.2218 44.9867C91.2218 46.2074 92.0742 47.1091 93.2485 47.1091C93.8399 47.1091 94.3618 46.8656 94.6431 46.6133V45.8276H92.9179V44.6446H96V47.1178C95.3418 47.8543 94.4198 48.3385 93.2456 48.3385C91.3551 48.3385 89.804 47.0192 89.804 44.9838C89.804 42.9484 91.3551 41.6408 93.2456 41.6408L93.2485 41.6437Z" fill="#FA6E36"/>
<path fill-rule="evenodd" clip-rule="evenodd" d="M54.3847 44.9867C54.3847 44.5686 54.0785 44.2693 53.6586 44.2693C53.2404 44.2693 52.9349 44.5686 52.9349 44.9867C52.9349 45.4049 53.2379 45.7041 53.6586 45.7041C54.0792 45.7041 54.3847 45.4049 54.3847 44.9867Z" fill="#FA6E36"/>
</svg>
