<svg width="65" height="65" viewBox="0 0 65 65" fill="none" xmlns="http://www.w3.org/2000/svg">
<mask id="mask0_1217_15942" style="mask-type:luminance" maskUnits="userSpaceOnUse" x="2" y="14" width="61" height="51">
<path d="M62.4076 14H2.59277V65H62.4076V14Z" fill="white"/>
</mask>
<g mask="url(#mask0_1217_15942)">
<path d="M2.59277 14V46.0312C2.67022 46.0097 2.75196 45.9968 2.83801 45.9968H62.2754V14H2.59277ZM50.6202 32.8832V40.1155H11.6191V20.2557H53.6233V21.9379H50.2503V23.6588H53.6233V24.5064H50.2503V26.2273H53.6233V27.0706H50.2503V28.7916H53.6233V29.6391H50.2503V31.3601H53.6233V32.9348L50.6202 32.8832Z" fill="white"/>
<path d="M14.3467 26.3908L17.6036 26.3005V22.708L14.3467 22.7984V26.3908Z" fill="white"/>
<path d="M28.6177 25.2764H21.437V32.543H28.6177V25.2764Z" fill="white"/>
<path d="M39.6148 25.3662H32.4341V28.9544H39.6148V25.3662Z" fill="white"/>
<path d="M40.1266 33.3896H36.874V36.9821H40.1266V33.3896Z" fill="white"/>
<path d="M46.5113 33.3896H43.2544V36.9821H46.5113V33.3896Z" fill="white"/>
<path d="M36.0265 52.7819V61.7653H44.8808V64.8931H20.9554V61.7653H29.4095V52.7819H2.59277V47.6836C2.67022 47.7051 2.75196 47.718 2.83801 47.718H62.2754V52.7819H36.0265Z" fill="white"/>
<path fill-rule="evenodd" clip-rule="evenodd" d="M14.3467 22.7984L17.6036 22.708V26.3005L14.3467 26.3908V22.7984Z" fill="white"/>
<path d="M28.6177 25.2764H21.437V32.543H28.6177V25.2764Z" fill="white"/>
<path d="M39.6148 25.3662H32.4341V28.9544H39.6148V25.3662Z" fill="white"/>
<path d="M40.1266 33.3896H36.874V36.9821H40.1266V33.3896Z" fill="white"/>
<path d="M46.5113 33.3896H43.2544V36.9821H46.5113V33.3896Z" fill="white"/>
<path d="M28.6177 25.2764H21.437V32.543H28.6177V25.2764Z" fill="white"/>
<path d="M39.6148 25.3662H32.4341V28.9544H39.6148V25.3662Z" fill="white"/>
<path d="M46.5113 33.3896H43.2544V36.9821H46.5113V33.3896Z" fill="white"/>
<path d="M40.1266 33.3896H36.874V36.9821H40.1266V33.3896Z" fill="white"/>
<path fill-rule="evenodd" clip-rule="evenodd" d="M17.6036 22.708V26.3005L14.3467 26.3908V22.7984L17.6036 22.708Z" fill="white"/>
</g>
</svg>
