<svg width="48" height="40" viewBox="0 0 48 40" fill="none" xmlns="http://www.w3.org/2000/svg">
<path d="M7.27804 10.5231L1.11084 0H47.6099L41.3778 10.5231H7.27804Z" fill="#0072BD"/>
<path d="M35.0145 21.2913L24.231 39.3859L13.6411 21.2913H35.0145Z" fill="#0072BD"/>
<path d="M5.5218 20.0846H3.1322L0 11.739H2.1869L4.3339 17.6053H4.3608L6.5345 11.739H8.7219L5.5218 20.0846Z" fill="white"/>
<path d="M9.07227 11.739H11.1911V20.0846H9.07227V11.739Z" fill="white"/>
<path d="M14.0263 17.3147C14.0263 18.4243 15.0255 18.8568 16.1596 18.8568C16.902 18.8568 18.0359 18.67 18.0359 17.8161C18.0359 16.9166 16.5917 16.7638 15.1742 16.4367C13.7427 16.1096 12.2983 15.6297 12.2983 14.0653C12.2983 12.3587 14.1613 11.5388 15.9028 11.5388C17.9145 11.5388 19.7643 12.3006 19.7643 14.2288H17.712C17.6444 13.2238 16.8211 12.9656 15.8082 12.9656C15.1333 12.9656 14.3504 13.2109 14.3504 13.9125C14.3504 14.5559 14.8092 14.6377 17.2261 15.1757C17.9281 15.3263 20.0884 15.7137 20.0884 17.6052C20.0884 19.1377 18.6978 20.2831 16.0782 20.2831C13.9452 20.2831 11.9475 19.3711 11.9744 17.3147H14.0263Z" fill="white"/>
<path d="M20.8447 11.739H22.9637V14.9412H26.8652V11.739H28.9849V20.0846H26.8652V16.4841H22.9637V20.0846H20.8447V11.739Z" fill="white"/>
<path d="M32.6581 16.8586H35.1565L33.9407 13.7963H33.9149L32.6581 16.8586ZM32.8604 11.739H35.0339L38.6384 20.0846H36.4391L35.7096 18.2259H32.1051L31.3497 20.0846H29.2021L32.8604 11.739Z" fill="white"/>
<path d="M40.405 16.8349L36.8564 11.739H39.245L41.5004 15.0337L43.7405 11.739H46.1034L42.5247 16.8822V20.0846H40.405V16.8349Z" fill="white"/>
<path d="M45.2212 18.7338H45.4923C45.6645 18.7338 45.7936 18.7082 45.7936 18.5217C45.7936 18.357 45.6172 18.3314 45.4773 18.3314H45.2212V18.7338ZM44.9178 18.0936H45.4966C45.8797 18.0936 46.097 18.2144 46.097 18.5473C46.097 18.829 45.9206 18.9387 45.6946 18.957L46.1035 19.6267H45.785L45.4127 18.9718H45.2212V19.6267H44.9178V18.0936ZM45.4644 19.9413C46.0303 19.9413 46.4952 19.4875 46.4952 18.8619C46.4952 18.24 46.0303 17.7904 45.4644 17.7904C44.8898 17.7904 44.4314 18.24 44.4314 18.8619C44.4314 19.4875 44.8898 19.9413 45.4644 19.9413ZM45.4644 17.4978C46.2068 17.4978 46.8696 18.0314 46.8696 18.8619C46.8696 19.6962 46.2068 20.234 45.4644 20.234C44.7219 20.234 44.0591 19.6962 44.0591 18.8619C44.0591 18.0314 44.7219 17.4978 45.4644 17.4978Z" fill="white"/>
</svg>
