<svg width="225" height="39" viewBox="0 0 225 39" fill="none" xmlns="http://www.w3.org/2000/svg">
<path d="M13.6478 38.0991L10.9482 32.1001L8.24864 38.0991H5.73656L0 27.1509H4.31179L7.04884 33.0749L9.78589 27.1509H12.1105L14.8476 33.0749L17.6221 27.1509H21.8964L16.1973 38.0991H13.6478Z" fill="#466494"/>
<path d="M37.9429 38.0986H34.0435V36.8988H34.006C33.3312 37.9861 31.9814 38.4736 30.7066 38.4736C27.4446 38.4736 25.195 35.774 25.195 32.6245C25.195 29.5125 27.4446 26.813 30.6691 26.813C31.9439 26.813 33.2562 27.2629 34.081 28.2377V27.1504H37.9804V38.0986H37.9429ZM29.2068 32.6245C29.2068 34.0118 30.1067 35.0616 31.7189 35.0616C33.3312 35.0616 34.231 34.0118 34.231 32.6245C34.231 31.2748 33.3312 30.1499 31.7189 30.1499C30.1067 30.1499 29.2068 31.3122 29.2068 32.6245Z" fill="#466494"/>
<path d="M48.741 31.0876L52.7903 27.1507H58.0769L52.6028 32.2124L58.4144 38.0989H52.9778L48.741 33.6372V38.0989H44.8416V20.4019H48.741V31.0876Z" fill="#466494"/>
<path d="M74.0865 33.2618H65.9128C65.9128 34.8366 66.7377 35.6989 68.3499 35.6989C69.1748 35.6989 69.7747 35.4365 70.2246 34.6866H73.974C73.3366 37.2737 70.8995 38.436 68.3874 38.436C64.7505 38.436 62.051 36.3738 62.051 32.6244C62.051 28.9875 64.5631 26.7754 68.125 26.7754C71.9119 26.7754 74.124 29.1 74.124 32.8494V33.2618H74.0865ZM70.4871 31.0497C70.2996 29.9999 69.3248 29.325 68.275 29.325C67.1501 29.325 66.2128 29.9249 65.9503 31.0497H70.4871Z" fill="#466494"/>
<path d="M85.4095 38.0988H81.5101V30.3751H80.1603V27.1506H81.5101V25.7633C81.5101 24.2636 81.5476 23.1388 82.6349 21.939C83.6098 20.8142 84.9971 20.1768 86.4593 20.1768C87.0592 20.1768 87.5841 20.2892 88.109 20.5517V23.8886C87.6591 23.7012 87.2467 23.5137 86.7593 23.5137C85.7469 23.5137 85.4095 24.1136 85.4095 25.3509V27.1131H88.109V30.3001H85.4095V38.0988Z" fill="#466494"/>
<path d="M99.2077 22.9886C99.2077 24.1884 98.2328 25.1633 97.033 25.1633C95.8332 25.1633 94.8584 24.1884 94.8584 22.9886C94.8584 21.7888 95.8332 20.814 97.033 20.814C98.2328 20.814 99.2077 21.7888 99.2077 22.9886ZM98.9827 38.0986H95.0834V27.1504H98.9827V38.0986Z" fill="#466494"/>
<path d="M116.68 33.2618H108.506C108.506 34.8366 109.331 35.6989 110.943 35.6989C111.768 35.6989 112.368 35.4365 112.818 34.6866H116.567C115.93 37.2737 113.493 38.436 110.981 38.436C107.344 38.436 104.644 36.3738 104.644 32.6244C104.644 28.9875 107.156 26.7754 110.718 26.7754C114.505 26.7754 116.717 29.1 116.717 32.8494V33.2618H116.68ZM113.08 31.0497C112.893 29.9999 111.918 29.325 110.868 29.325C109.744 29.325 108.806 29.9249 108.581 31.0497H113.08Z" fill="#466494"/>
<path d="M126.39 20.4019H122.491V38.0614H126.39V20.4019Z" fill="#466494"/>
<path d="M141.051 36.8616H141.013C140.338 37.949 138.989 38.4364 137.714 38.4364C134.452 38.4364 132.202 35.7368 132.202 32.5873C132.202 29.4754 134.452 26.7758 137.676 26.7758C138.951 26.7758 140.263 27.2257 141.088 28.2006V20.4019H144.95V38.0614H141.051V36.8616ZM136.177 32.6248C136.177 34.0121 137.076 35.0619 138.689 35.0619C140.301 35.0619 141.201 34.0121 141.201 32.6248C141.201 31.2751 140.301 30.1502 138.689 30.1502C137.076 30.1502 136.177 31.3126 136.177 32.6248Z" fill="#466494"/>
<path d="M162.684 32.7745L165.271 27.1504H169.621L163.922 38.0986H161.447L155.711 27.1504H160.06L162.684 32.7745Z" fill="#466494"/>
<path d="M184.094 33.2618H175.92C175.92 34.8366 176.745 35.6989 178.357 35.6989C179.182 35.6989 179.782 35.4365 180.232 34.6866H183.981C183.344 37.2737 180.907 38.436 178.395 38.436C174.758 38.436 172.058 36.3738 172.058 32.6244C172.058 28.9875 174.57 26.7754 178.132 26.7754C181.919 26.7754 184.131 29.1 184.131 32.8494V33.2618H184.094ZM180.494 31.0497C180.307 29.9999 179.332 29.325 178.282 29.325C177.157 29.325 176.22 29.9249 175.995 31.0497H180.494Z" fill="#466494"/>
<path d="M194.142 38.0984H190.243V30.3746H189.005V27.1502H190.243V23.8882H194.142V27.1502H196.354V30.3746H194.142V38.0984Z" fill="#466494"/>
<path d="M205.728 38.0984H201.828V30.3746H200.554V27.1502H201.828V23.8882H205.728V27.1502H207.902V30.3746H205.728V38.0984Z" fill="#466494"/>
<path d="M224.962 33.2618H216.789C216.789 34.8366 217.613 35.6989 219.226 35.6989C220.051 35.6989 220.65 35.4365 221.1 34.6866H224.85C224.212 37.2737 221.775 38.436 219.263 38.436C215.626 38.436 212.927 36.3738 212.927 32.6244C212.927 28.9875 215.439 26.7754 219.001 26.7754C222.788 26.7754 225 29.1 225 32.8494V33.2618H224.962ZM221.363 31.0497C221.175 29.9999 220.201 29.325 219.151 29.325C218.026 29.325 217.089 29.9249 216.826 31.0497H221.363Z" fill="#466494"/>
<path d="M165.947 1.87939C210.077 6.6786 217.463 19.0516 217.463 19.0516C217.463 19.0516 202.316 10.0156 163.472 5.96622L165.947 1.87939Z" fill="#B7202E"/>
<path d="M160.097 1.31738C161.072 1.39237 162.047 1.50485 163.022 1.57983L160.51 5.66667C159.535 5.59168 158.56 5.4792 157.585 5.40421L160.097 1.31738Z" fill="#B7202E"/>
<path d="M154.136 0.830078C155.148 0.905066 156.123 0.980056 157.098 1.05504L154.586 5.14187C153.611 5.06688 152.636 4.9919 151.624 4.91691L154.136 0.830078Z" fill="#B7202E"/>
<path d="M129.39 0.00487632C137.301 0.0423701 144.538 0.267326 151.137 0.642264L148.624 4.7291C140.863 4.27917 132.39 4.01671 123.091 4.01671C43.4543 4.12919 2.69849 21.0014 2.69849 21.0014C2.69849 21.0014 48.2535 -0.370062 129.39 0.00487632Z" fill="#B7202E"/>
<path d="M99.2077 22.9886C99.2077 24.1884 98.2328 25.1633 97.033 25.1633C95.8332 25.1633 94.8584 24.1884 94.8584 22.9886C94.8584 21.7888 95.8332 20.814 97.033 20.814C98.2328 20.814 99.2077 21.7888 99.2077 22.9886Z" fill="#B7202E"/>
<path d="M99.395 22.876C99.395 24.1508 98.3452 25.1631 97.1079 25.1631C95.8331 25.1631 94.8208 24.1133 94.8208 22.876C94.8208 21.6012 95.8706 20.5889 97.1079 20.5889C98.3452 20.5889 99.395 21.6387 99.395 22.876Z" fill="#B7202E"/>
<path d="M154.436 33.2624H147.912V31.0503H153.236L154.436 33.2624Z" fill="#466494"/>
</svg>
