<svg width="125" height="50" viewBox="0 0 125 50" fill="none" xmlns="http://www.w3.org/2000/svg">
<g clip-path="url(#clip0_40_87)">
<path d="M91.585 27.6035C87.0408 27.6035 82.4966 27.6008 77.9551 27.6035C77.2032 27.6035 76.7465 27.9829 76.6782 28.6145C76.6098 29.2433 77.0418 29.7475 77.7801 29.8802C77.9933 29.9173 78.2121 29.9253 78.4308 29.9253C79.6749 29.9306 80.9217 29.9014 82.1657 29.9333C85.4468 30.0155 87.8529 31.5094 89.2063 34.3832C90.4968 37.1217 90.0949 39.7778 88.1864 42.1448C86.658 44.0447 84.5746 44.9734 82.0919 44.9787C72.2625 44.9894 62.433 44.9787 52.6008 45C52.0075 45 51.7833 44.8063 51.5892 44.2968C49.9678 40.0034 48.3163 35.7232 46.6704 31.4378C46.5446 31.1088 46.4106 30.7824 46.211 30.2782C45.8146 31.3051 45.4782 32.1649 45.1447 33.0273C43.6545 36.8722 42.1617 40.7145 40.677 44.5621C40.5622 44.8567 40.4118 44.9947 40.0618 44.992C37.6147 44.9787 35.1676 44.9761 32.7232 44.992C32.3076 44.9947 32.2256 44.7957 32.1436 44.4719C31.583 42.2934 31.0061 40.1201 30.432 37.9443C30.3937 37.801 30.3472 37.6603 30.3034 37.517C30.0792 37.5515 30.1066 37.724 30.0738 37.8487C29.516 40.0273 28.9473 42.2032 28.4168 44.3897C28.3075 44.8408 28.1352 45.0026 27.6403 44.9947C25.3026 44.9655 22.9649 44.9681 20.6299 44.9947C20.135 45 19.9053 44.8593 19.733 44.4029C16.925 37.0341 14.0951 29.6732 11.2734 22.3097C10.8141 21.1076 10.8168 21.1076 12.1183 21.1076C14.2154 21.1076 16.3126 21.1235 18.4097 21.097C18.9237 21.0891 19.1698 21.2217 19.353 21.7179C20.5615 24.9871 21.8083 28.2403 23.0441 31.4988C23.0961 31.6342 23.1672 31.7615 23.2957 32.0348C23.4324 31.536 23.539 31.1698 23.632 30.801C24.4112 27.7574 25.1987 24.7191 25.9561 21.6702C26.0627 21.235 26.2322 21.0917 26.697 21.097C29.0348 21.1209 31.3725 21.1235 33.7075 21.097C34.2298 21.0891 34.4102 21.2642 34.5278 21.7392C35.3398 24.9924 36.182 28.2377 37.0186 31.4856C37.0542 31.6289 37.1034 31.7668 37.169 31.9738C37.5108 31.5041 37.6256 31.0106 37.8034 30.5515C38.9517 27.5769 40.0891 24.5997 41.2129 21.6171C41.3551 21.243 41.5465 21.1023 41.9675 21.105C44.7865 21.1235 47.6027 21.1262 50.4217 21.105C50.8783 21.1023 51.0587 21.2562 51.2091 21.6543C53.2078 26.9162 55.2284 32.1728 57.2435 37.4295C57.3173 37.6232 57.3994 37.8142 57.6236 38.0079C57.6236 37.7983 57.6236 37.5887 57.6236 37.3817C57.6236 32.1888 57.6345 26.9931 57.6072 21.8002C57.6044 21.227 57.7685 21.097 58.3372 21.105C60.6093 21.1368 62.8814 21.1368 65.1535 21.105C65.6812 21.097 65.8043 21.2509 65.8015 21.7445C65.7851 27.1285 65.8015 32.5125 65.7769 37.8991C65.7769 38.4643 65.9027 38.6474 66.5234 38.6421C71.1524 38.5997 75.7841 38.5944 80.4131 38.5838C80.8642 38.5838 81.2853 38.5307 81.6052 38.1778C81.9224 37.8275 82.0345 37.4268 81.8322 37.0022C81.6107 36.5405 81.2115 36.3017 80.6811 36.3017C79.3276 36.2991 77.9715 36.3229 76.618 36.2938C73.5311 36.2327 71.1141 34.9617 69.654 32.3029C68.1475 29.5618 68.3389 26.8127 70.1981 24.2706C71.7594 22.1345 74.0069 21.1448 76.6727 21.1262C81.5669 21.0944 86.4584 21.1182 91.3526 21.1182C91.4593 21.1182 91.5659 21.1448 91.6753 21.1607C91.6753 23.0819 91.6753 25.0057 91.6753 26.9268C91.6753 27.155 91.7245 27.3938 91.585 27.6061V27.6035Z" fill="#024A98"/>
<path d="M99.9353 21.2457C101.201 23.3739 102.467 25.4993 103.73 27.6275C104.359 28.6862 104.983 29.7476 105.644 30.8674C105.838 30.61 105.773 30.3765 105.773 30.1642C105.778 27.3648 105.789 24.568 105.762 21.7711C105.756 21.2325 105.923 21.0998 106.459 21.1078C108.775 21.1369 111.091 21.1316 113.404 21.1104C113.855 21.1078 114 21.2219 113.997 21.6756C113.984 29.2647 113.984 36.8538 113.997 44.4429C113.997 44.9099 113.825 44.9974 113.39 44.9948C111.031 44.9762 108.671 44.9736 106.314 44.9974C105.877 45.0028 105.652 44.8488 105.445 44.4959C103.749 41.6062 102.038 38.7272 100.329 35.8454C100.209 35.6438 100.072 35.4554 99.9407 35.259C99.845 34.9512 99.8423 34.6354 99.8423 34.317C99.8423 30.1881 99.8423 26.0592 99.845 21.9303C99.845 21.7021 99.7931 21.4633 99.9325 21.2484L99.9353 21.2457Z" fill="#024A98"/>
<path d="M99.9353 21.2456C99.7986 21.4605 99.8478 21.6993 99.8478 21.9276C99.8478 26.0564 99.8478 30.1853 99.8451 34.3142C99.8451 34.6326 99.8451 34.9484 99.9435 35.2562C99.9326 38.199 99.9244 41.1417 99.908 44.0845C99.9025 45.122 100.023 44.9761 98.9537 44.9787C96.7937 44.984 94.6337 44.9787 92.4737 44.9787C91.9031 44.9787 91.6179 44.7107 91.6179 44.1747C91.6179 38.9234 91.6179 33.6721 91.6179 28.4207C91.6179 28.1474 91.596 27.8714 91.5851 27.5981C91.7245 27.3859 91.6753 27.147 91.6753 26.9188C91.678 24.9977 91.6753 23.0739 91.6753 21.1527C94.3329 21.1421 96.9878 21.1288 99.6455 21.1235C99.7412 21.1235 99.8369 21.2005 99.9298 21.2403L99.9353 21.2456Z" fill="#C32606"/>
<path d="M95.7383 3C99.8997 3 103.074 6.11524 103.069 10.1937C103.066 14.1289 99.7849 17.2202 95.6152 17.2176C91.6124 17.2149 88.3997 14.0068 88.3997 10.0133C88.4024 6.13116 91.6807 3 95.7383 3ZM95.9789 15.3654C98.992 15.1929 101.297 12.7437 101.212 9.99469C101.125 7.11296 98.6283 4.7699 95.6836 4.80174C92.81 4.83359 90.3656 7.13154 90.3492 9.87528C90.5351 9.70811 90.6964 9.57544 90.8468 9.42949C91.8065 8.50341 92.758 7.56672 93.7259 6.64594C94.106 6.28506 94.795 6.23465 95.1641 6.5398C95.5961 6.89538 95.7137 7.35178 95.4567 7.8533C95.3637 8.03639 95.2051 8.1956 95.052 8.3442C93.8216 9.5489 92.583 10.7456 91.3499 11.945C91.2405 12.0512 91.1366 12.1573 91.0273 12.2608C90.8031 12.4731 90.9534 12.6641 91.0929 12.8154C91.287 13.025 91.3964 12.7835 91.503 12.6854C91.7901 12.4253 92.0608 12.1467 92.3397 11.8787C93.9556 10.329 95.5688 8.77938 97.1874 7.23237C97.6932 6.74678 98.3795 6.70963 98.8115 7.13154C99.2545 7.56406 99.2107 8.19295 98.6994 8.71039C98.5928 8.81653 98.4834 8.92001 98.3768 9.02616C96.616 10.735 94.8524 12.4412 93.097 14.1581C92.974 14.2801 92.6404 14.4022 92.9521 14.6437C93.1435 14.7923 93.3705 14.8931 93.581 14.6384C93.663 14.5402 93.7642 14.4579 93.8572 14.3677C95.0465 13.2134 96.2359 12.0591 97.4225 10.9022C97.5456 10.7828 97.6632 10.6554 97.7971 10.5466C98.2811 10.1645 98.8771 10.1619 99.2873 10.5307C99.7411 10.942 99.7849 11.5019 99.3775 12.0167C99.1916 12.2502 98.9701 12.4598 98.7568 12.6694C97.8682 13.5371 96.9741 14.3995 95.9762 15.3681L95.9789 15.3654Z" fill="#C32606"/>
</g>
<defs>
<clipPath id="clip0_40_87">
<rect width="103" height="42" fill="white" transform="translate(11 3)"/>
</clipPath>
</defs>
</svg>
