<svg width="104" height="20" viewBox="0 0 104 20" fill="none" xmlns="http://www.w3.org/2000/svg">
<path fill-rule="evenodd" clip-rule="evenodd" d="M9.58835 19.1773C4.54945 19.1773 0.46875 15.0992 0.46875 10.0723V0.987061H9.56875C14.6077 0.987061 18.6882 5.06506 18.6882 10.0921V19.1773H9.58835ZM10.8176 12.7583L11.8584 10.2998L11.7407 10.0213L10.7078 12.4681L10.8176 12.7583ZM10.637 12.2917L11.67 9.85266L11.5599 9.59386L10.5309 12.0251L10.637 12.2917ZM10.4642 11.8486L11.4893 9.42526L11.3911 9.19016L10.3778 11.6174L10.4642 11.8486ZM12.3258 3.51226L9.60015 6.46486H10.2325L8.73615 9.98216L7.61285 6.98636H6.16365L5.15035 9.81746L4.19205 6.99416H1.80805L4.12135 13.8876H5.45275L6.70565 10.2919L8.02525 13.8876H9.17995L11.9173 7.17846L12.3218 7.52746V3.51216L12.3258 3.51226ZM15.0436 6.98636H13.7789L12.0784 10.8213L11.9291 10.4684L10.8846 12.9348L11.2577 13.8916H12.8718L14.4546 10.2959L15.3069 11.9193L14.3366 14.1622L13.7789 13.6955V17.3265L16.3751 15.1032L15.8528 14.9189L17.4121 11.8369L15.0436 6.98636ZM22.3525 17.7913C22.1641 17.7932 21.9763 17.7695 21.7943 17.721C21.6384 17.6799 21.49 17.6145 21.3546 17.527C21.2376 17.4517 21.1393 17.3507 21.0672 17.2317C20.9993 17.1168 20.9642 16.9855 20.9657 16.8521C20.9657 16.7283 21.0277 16.6665 21.1517 16.6665C21.2045 16.6653 21.2563 16.6822 21.2984 16.7142C21.319 16.7305 21.3353 16.7516 21.3461 16.7756C21.3568 16.7995 21.3617 16.8258 21.3602 16.852C21.3619 16.9248 21.3855 16.9953 21.4279 17.0545C21.4787 17.1272 21.5452 17.1878 21.6223 17.2316C21.7202 17.2876 21.8255 17.3292 21.9352 17.3554C22.0717 17.3887 22.212 17.4047 22.3525 17.4031C22.5493 17.4069 22.7453 17.3784 22.933 17.3189C23.0983 17.2626 23.2223 17.1763 23.305 17.0601C23.3493 17.0131 23.3797 16.9547 23.3926 16.8914C23.4057 16.8246 23.4066 16.756 23.3952 16.6889C23.3713 16.5768 23.3167 16.4736 23.2374 16.3909C23.1577 16.313 23.0641 16.251 22.9612 16.2081C22.8455 16.1593 22.7243 16.1244 22.6003 16.1041C22.4688 16.0816 22.3335 16.061 22.1945 16.0422C22.0666 16.0197 21.9369 15.9944 21.8055 15.9663C21.6813 15.9407 21.5611 15.8991 21.4477 15.8425C21.3447 15.7916 21.2542 15.7186 21.1826 15.6287C21.1131 15.5407 21.0784 15.4254 21.0784 15.2828C21.0734 15.1195 21.1207 14.9589 21.2136 14.8245C21.3037 14.6991 21.4188 14.5937 21.5518 14.5151C21.6882 14.4341 21.8367 14.3752 21.9916 14.3407C22.1339 14.307 22.2794 14.2891 22.4256 14.2873C22.5988 14.2856 22.7712 14.3122 22.9358 14.3661C23.0821 14.4134 23.2186 14.4868 23.3388 14.5827C23.4493 14.6717 23.5389 14.7841 23.6011 14.9116C23.6636 15.0414 23.6954 15.1838 23.694 15.3278C23.6934 15.3744 23.6764 15.4192 23.646 15.4543C23.6301 15.4738 23.6098 15.4893 23.5868 15.4996C23.5638 15.5098 23.5387 15.5146 23.5135 15.5134C23.4859 15.5142 23.4585 15.5094 23.4328 15.4993C23.4071 15.4891 23.3838 15.4738 23.3643 15.4543C23.3464 15.4384 23.3319 15.4189 23.3217 15.3972C23.3115 15.3754 23.3058 15.3518 23.305 15.3278C23.3058 15.2375 23.2835 15.1485 23.2402 15.0692C23.1949 14.9882 23.1324 14.9181 23.057 14.8639C22.9725 14.8031 22.8781 14.7574 22.778 14.729C22.6635 14.6961 22.5448 14.6799 22.4256 14.6811C22.3225 14.682 22.2197 14.6924 22.1185 14.712C22.0107 14.7317 21.9061 14.7667 21.8083 14.8161C21.7169 14.8614 21.6356 14.9246 21.5689 15.0018C21.5036 15.0806 21.4695 15.1806 21.4729 15.2829C21.4711 15.3337 21.487 15.3834 21.5181 15.4236C21.5563 15.4668 21.6047 15.4997 21.659 15.5192C21.7383 15.5498 21.8203 15.5724 21.9041 15.5867C22.0036 15.6055 22.123 15.6262 22.2621 15.6486C22.4012 15.6709 22.5488 15.6991 22.7047 15.7329C22.8587 15.766 23.0088 15.815 23.1527 15.8791C23.2945 15.9422 23.4235 16.0309 23.5333 16.1406C23.6498 16.2617 23.7308 16.4125 23.7673 16.5765C23.835 16.8614 23.788 17.107 23.6263 17.3132C23.4895 17.4807 23.3076 17.6056 23.1021 17.673C22.8608 17.755 22.6073 17.7951 22.3525 17.7913ZM27.3582 17.7969C27.3093 17.797 27.2622 17.7789 27.2257 17.7463C27.2059 17.7289 27.1903 17.7071 27.18 17.6828C27.1698 17.6584 27.1651 17.6321 27.1665 17.6057V15.671C27.1712 15.5058 27.1425 15.3412 27.082 15.1874C27.0281 15.0595 26.9428 14.9473 26.834 14.8612C26.7324 14.7998 26.6208 14.757 26.5042 14.7346C26.3601 14.7084 26.2137 14.6962 26.0672 14.6981C25.94 14.6994 25.814 14.7232 25.6951 14.7684C25.5635 14.8178 25.445 14.8967 25.3486 14.999C25.2362 15.1203 25.149 15.2627 25.092 15.418C25.0244 15.5904 24.9907 15.8022 24.9906 16.0535V17.6057C24.9921 17.6313 24.9883 17.657 24.9796 17.6812C24.9709 17.7054 24.9573 17.7275 24.9398 17.7463C24.9219 17.7635 24.9006 17.7768 24.8774 17.7855C24.8541 17.7942 24.8294 17.7981 24.8046 17.7969C24.7476 17.7992 24.6918 17.7813 24.6468 17.7463C24.6263 17.7293 24.61 17.7077 24.5993 17.6833C24.5885 17.6589 24.5835 17.6323 24.5849 17.6057V12.6927C24.5853 12.6675 24.5911 12.6428 24.6017 12.62C24.6124 12.5973 24.6278 12.577 24.6468 12.5606C24.668 12.5408 24.6927 12.5254 24.7198 12.5153C24.7468 12.5051 24.7757 12.5004 24.8046 12.5014C24.8301 12.5004 24.8556 12.5052 24.8791 12.5155C24.9025 12.5257 24.9232 12.5411 24.9398 12.5606C24.9724 12.5968 24.9906 12.6439 24.9906 12.6927V14.7938C25.1215 14.635 25.2858 14.5072 25.472 14.4197C25.6582 14.3322 25.8615 14.2871 26.0672 14.2876C26.2397 14.2886 26.4119 14.2998 26.583 14.3214C26.7644 14.3423 26.9389 14.4038 27.0933 14.5013C27.4127 14.7451 27.5723 15.135 27.5724 15.671V17.6057C27.5737 17.6321 27.5691 17.6584 27.5589 17.6827C27.5487 17.7071 27.5332 17.7288 27.5134 17.7463C27.4696 17.7815 27.4144 17.7996 27.3582 17.7969ZM31.3491 17.7744C31.3209 17.7748 31.293 17.7695 31.2668 17.7589C31.2407 17.7483 31.2171 17.7326 31.1972 17.7127C31.1772 17.6929 31.1613 17.6692 31.1507 17.6431C31.14 17.617 31.1347 17.5891 31.135 17.5609V17.2288C31.0687 17.3024 30.9971 17.371 30.9208 17.434C30.8383 17.502 30.7485 17.5604 30.6529 17.6084C30.5463 17.6616 30.4337 17.7021 30.3177 17.7293C30.1809 17.7607 30.041 17.7757 29.9007 17.7743C29.6893 17.775 29.4803 17.7289 29.2888 17.6393C29.0942 17.5486 28.9221 17.4161 28.7845 17.2512C28.64 17.091 28.5304 16.9023 28.4629 16.6973C28.3202 16.2684 28.3202 15.8047 28.4629 15.3757C28.5337 15.1688 28.6429 14.9771 28.7845 14.8105C28.9221 14.6457 29.0942 14.5132 29.2888 14.4225C29.4803 14.3329 29.6893 14.2868 29.9007 14.2875C30.1749 14.2875 30.4133 14.3278 30.6163 14.4084C30.8134 14.4851 30.9907 14.6053 31.135 14.7599V14.5012C31.1346 14.473 31.1401 14.445 31.1507 14.4189C31.1614 14.3928 31.177 14.3691 31.197 14.3492C31.2169 14.3293 31.2407 14.3136 31.2668 14.303C31.2929 14.2924 31.3209 14.2871 31.3491 14.2875C31.3743 14.288 31.3992 14.2937 31.422 14.3044C31.4448 14.315 31.465 14.3304 31.4815 14.3494C31.501 14.3695 31.5164 14.3933 31.5266 14.4194C31.5368 14.4454 31.5417 14.4733 31.541 14.5012V17.5606C31.5417 17.5886 31.5368 17.6164 31.5266 17.6424C31.5164 17.6684 31.501 17.6922 31.4815 17.7122C31.465 17.7313 31.4448 17.7467 31.422 17.7574C31.3992 17.7681 31.3743 17.774 31.3491 17.7744ZM29.9007 14.7151C29.743 14.7134 29.587 14.7471 29.444 14.8135C29.306 14.8784 29.183 14.9713 29.083 15.0863C28.9777 15.2093 28.8973 15.3515 28.8463 15.5052C28.7884 15.6783 28.76 15.8598 28.762 16.0423C28.7601 16.222 28.7886 16.4008 28.8463 16.5709C28.8981 16.7242 28.9785 16.8664 29.083 16.9899C29.1828 17.1066 29.3057 17.2015 29.444 17.2684C29.5864 17.3367 29.7427 17.3713 29.9007 17.3696C30.0539 17.3728 30.2064 17.349 30.3514 17.2993C30.4721 17.2564 30.5854 17.1947 30.687 17.1165C30.7827 17.0419 30.867 16.9538 30.9375 16.855C31.0095 16.755 31.0754 16.6508 31.135 16.5429V15.57C30.992 15 30.5806 14.7151 29.9007 14.7151ZM32.7301 17.7744C32.702 17.7748 32.674 17.7695 32.6479 17.7589C32.6218 17.7483 32.598 17.7326 32.5781 17.7127C32.5581 17.6929 32.5424 17.6692 32.5317 17.6431C32.521 17.617 32.5157 17.5891 32.516 17.5609V14.4789C32.5165 14.4537 32.5223 14.429 32.533 14.4062C32.5437 14.3835 32.5589 14.3632 32.5779 14.3468C32.5981 14.3274 32.6221 14.3122 32.6482 14.302C32.6743 14.2919 32.7021 14.287 32.7301 14.2877C32.7542 14.2884 32.7778 14.294 32.7996 14.3042C32.8214 14.3144 32.841 14.3288 32.857 14.3468C32.8754 14.3636 32.8901 14.384 32.9004 14.4067C32.9106 14.4294 32.9161 14.454 32.9165 14.4789V14.8051C32.9416 14.7723 32.9698 14.7422 33.0009 14.7151C33.0309 14.6889 33.0591 14.6645 33.0854 14.642C33.2018 14.5332 33.339 14.449 33.4887 14.3944C33.6429 14.3377 33.8061 14.3091 33.9705 14.31C34.0045 14.31 34.0429 14.311 34.0862 14.3128C34.1254 14.3141 34.1641 14.3207 34.2015 14.3325C34.2269 14.335 34.2514 14.3425 34.2738 14.3547C34.2961 14.3668 34.3158 14.3834 34.3316 14.4034C34.3474 14.4233 34.359 14.4463 34.3657 14.4708C34.3724 14.4954 34.374 14.521 34.3705 14.5463C34.3482 14.6737 34.2768 14.7375 34.1563 14.7375H34.1339C34.1094 14.7218 34.0812 14.7131 34.0522 14.7121C34.0203 14.7103 33.9931 14.7093 33.9705 14.7093C33.8519 14.709 33.7343 14.731 33.6238 14.774C33.5205 14.8124 33.4256 14.8707 33.3447 14.9455C33.1986 15.0622 33.0875 15.2169 33.0235 15.3926C32.9482 15.6007 32.912 15.8209 32.9165 16.0422V17.5606C32.9171 17.5885 32.9122 17.6163 32.902 17.6424C32.8918 17.6684 32.8765 17.6921 32.857 17.7122C32.8414 17.7308 32.822 17.746 32.8001 17.7567C32.7783 17.7674 32.7544 17.7735 32.7301 17.7744ZM36.5691 17.7688C36.3379 17.7726 36.1083 17.7315 35.8927 17.6479C35.7002 17.5721 35.5295 17.4493 35.3966 17.2908C35.111 16.9834 34.9681 16.5616 34.968 16.0254C34.9648 15.7799 35.003 15.5357 35.0807 15.3028C35.1487 15.0997 35.2581 14.913 35.4021 14.7545C35.5428 14.6035 35.7151 14.4854 35.9066 14.4086C36.1175 14.3255 36.3424 14.2844 36.5691 14.2877C36.7848 14.2855 36.9993 14.3207 37.2031 14.3917C37.386 14.4545 37.5526 14.5573 37.6908 14.6926C37.8336 14.8353 37.9459 15.0056 38.0206 15.1931C38.1013 15.4004 38.1517 15.6182 38.1702 15.8398C38.1705 15.8707 38.164 15.9012 38.1513 15.9294C38.1386 15.9575 38.1201 15.9825 38.0969 16.0028C38.0785 16.0179 38.0573 16.0293 38.0346 16.0365C38.0095 16.0467 37.9827 16.0524 37.9557 16.0534H35.3741C35.3741 16.4732 35.4765 16.7966 35.6814 17.0235C35.8862 17.2503 36.182 17.3637 36.5691 17.3637C36.8269 17.3683 37.0804 17.298 37.299 17.1612C37.5099 17.028 37.6728 16.831 37.7641 16.5988C37.813 16.5201 37.8769 16.4808 37.9557 16.4807C37.9678 16.481 37.9796 16.4849 37.9894 16.492C38.0012 16.4997 38.015 16.5036 38.029 16.5033C38.059 16.5119 38.0855 16.5296 38.1051 16.5539C38.1212 16.5751 38.1354 16.5976 38.1475 16.6213C38.1587 16.6441 38.1646 16.6691 38.1646 16.6945C38.1646 16.7198 38.1587 16.7448 38.1475 16.7676C38.0142 17.0675 37.797 17.3224 37.5219 17.5014C37.2474 17.6795 36.9298 17.7687 36.5691 17.7688ZM37.7416 15.6487C37.6813 15.3337 37.5515 15.0956 37.3526 14.9345C37.1533 14.7733 36.8921 14.6927 36.5691 14.6926C36.3583 14.6926 36.1827 14.7263 36.0421 14.7938C35.9113 14.8539 35.7936 14.9389 35.6953 15.0441C35.6097 15.1364 35.5409 15.243 35.4922 15.3591C35.4526 15.4529 35.4207 15.5497 35.3966 15.6487H37.7416ZM44.7149 17.7745C44.6867 17.7749 44.6586 17.7696 44.6325 17.7591C44.6064 17.7485 44.5828 17.7328 44.5629 17.7129C44.5429 17.693 44.527 17.6693 44.5164 17.6432C44.5057 17.6171 44.5004 17.5892 44.5006 17.561V17.2288C44.4342 17.3023 44.3627 17.3709 44.2863 17.434C44.2038 17.5019 44.114 17.5604 44.0186 17.6084C43.9119 17.6616 43.7993 17.7021 43.6832 17.7293C43.5464 17.7607 43.4063 17.7758 43.266 17.7743C43.0546 17.7749 42.8458 17.7289 42.6543 17.6393C42.4597 17.5486 42.2874 17.4161 42.1498 17.2512C42.0053 17.091 41.8959 16.9023 41.8284 16.6973C41.6856 16.2684 41.6856 15.8047 41.8284 15.3757C41.8992 15.1688 42.0082 14.9771 42.1498 14.8105C42.2875 14.6457 42.4598 14.5133 42.6543 14.4225C42.8458 14.333 43.0546 14.2869 43.266 14.2875C43.5401 14.2875 43.7788 14.3278 43.9818 14.4084C44.179 14.4851 44.3562 14.6053 44.5006 14.7599V14.5012C44.5003 14.473 44.5056 14.445 44.5163 14.4189C44.527 14.3928 44.5427 14.3691 44.5627 14.3492C44.5826 14.3293 44.6064 14.3136 44.6325 14.303C44.6586 14.2924 44.6867 14.2871 44.7149 14.2875C44.74 14.288 44.7647 14.2938 44.7875 14.3044C44.8104 14.3151 44.8307 14.3304 44.8472 14.3494C44.8666 14.3696 44.8818 14.3934 44.8919 14.4194C44.9021 14.4455 44.907 14.4733 44.9063 14.5012V17.5606C44.907 17.5885 44.9021 17.6163 44.8919 17.6423C44.8818 17.6684 44.8666 17.6921 44.8472 17.7122C44.8307 17.7313 44.8105 17.7466 44.7877 17.7573C44.7649 17.768 44.7401 17.774 44.7149 17.7745ZM43.266 14.7152C43.1083 14.7136 42.9522 14.7472 42.8092 14.8136C42.6713 14.8785 42.5484 14.9714 42.4484 15.0864C42.3431 15.2094 42.2628 15.3517 42.2118 15.5053C42.1539 15.6784 42.1253 15.86 42.1273 16.0425C42.1255 16.2222 42.154 16.4009 42.2118 16.5711C42.2636 16.7244 42.3438 16.8665 42.4484 16.99C42.5482 17.1068 42.671 17.2016 42.8092 17.2685C42.9517 17.3368 43.108 17.3714 43.266 17.3698C43.4192 17.3729 43.5719 17.3491 43.7169 17.2995C43.8377 17.2565 43.9508 17.1949 44.0523 17.1167C44.148 17.0419 44.2325 16.9538 44.3032 16.8552C44.375 16.755 44.4409 16.6508 44.5006 16.543V15.5701C44.3577 15 43.9461 14.7152 43.266 14.7152ZM46.9245 17.7858H46.902C46.8635 17.7843 46.8262 17.7716 46.7948 17.7493C46.7754 17.736 46.7589 17.719 46.7463 17.6992C46.7337 17.6793 46.7252 17.6571 46.7215 17.6339L45.707 14.5409C45.6959 14.5178 45.6907 14.4923 45.6922 14.4667C45.6936 14.4412 45.7016 14.4164 45.7152 14.3947C45.7268 14.3706 45.7438 14.3494 45.7649 14.3328C45.7859 14.3163 45.8103 14.3047 45.8365 14.2991C45.8454 14.2892 45.8573 14.2823 45.8703 14.2794C45.8815 14.2776 45.8927 14.2767 45.904 14.2766C45.9497 14.2768 45.9941 14.2915 46.0308 14.3187C46.0651 14.3398 46.0902 14.3729 46.1014 14.4116L46.9472 17.0379L47.9618 14.8727C47.9854 14.8381 48.0172 14.81 48.0546 14.7912C48.0882 14.7722 48.1259 14.7616 48.1644 14.7602C48.2011 14.7621 48.2369 14.7727 48.2687 14.7912C48.3062 14.81 48.3382 14.838 48.3619 14.8727L49.3372 17.0379L50.2222 14.4116C50.2332 14.3728 50.2585 14.3396 50.2929 14.3187C50.3295 14.2915 50.3737 14.2768 50.4193 14.2766C50.4315 14.2757 50.4439 14.2772 50.4556 14.281C50.4672 14.2849 50.4779 14.291 50.4871 14.2991C50.5127 14.3044 50.5367 14.3163 50.5564 14.3336C50.5761 14.3508 50.5911 14.3728 50.5998 14.3975C50.6223 14.4498 50.6282 14.5077 50.6168 14.5634L49.5795 17.6733C49.5659 17.7095 49.5385 17.7388 49.5034 17.7549C49.4642 17.7753 49.4207 17.786 49.3765 17.7858C49.3342 17.7855 49.2925 17.7749 49.2552 17.7549C49.2201 17.7388 49.1927 17.7095 49.1791 17.6733L48.1644 15.4463L47.099 17.6733C47.0954 17.6932 47.0867 17.712 47.0739 17.7277C47.0611 17.7434 47.0445 17.7557 47.0257 17.7633C46.9937 17.777 46.9593 17.7848 46.9245 17.7858ZM52.8206 17.7689C52.5895 17.7727 52.36 17.7316 52.1446 17.648C51.952 17.5723 51.7813 17.4495 51.6484 17.2909C51.3625 16.9835 51.2196 16.5617 51.2199 16.0255C51.2165 15.78 51.2547 15.5357 51.3326 15.3029C51.4005 15.0998 51.5098 14.9131 51.6538 14.7546C51.7945 14.6036 51.9669 14.4855 52.1585 14.4087C52.3692 14.3256 52.5941 14.2846 52.8206 14.2878C53.0365 14.2856 53.2512 14.3208 53.455 14.3918C53.6379 14.4548 53.8043 14.5576 53.9426 14.6927C54.0855 14.8354 54.1977 15.0057 54.2725 15.1932C54.353 15.4005 54.4033 15.6183 54.4216 15.84C54.4219 15.8708 54.4156 15.9014 54.403 15.9296C54.3903 15.9577 54.3716 15.9828 54.3483 16.0031C54.3301 16.0183 54.3091 16.0297 54.2864 16.0368C54.2613 16.047 54.2346 16.0527 54.2075 16.0537H51.6259C51.6259 16.4736 51.7282 16.7969 51.9328 17.0238C52.1374 17.2506 52.4334 17.364 52.8206 17.364C53.0785 17.3686 53.3323 17.2983 53.551 17.1615C53.7618 17.0282 53.9246 16.8312 54.016 16.5991C54.0645 16.5204 54.1286 16.481 54.2075 16.481C54.2196 16.4813 54.2315 16.4852 54.2413 16.4923C54.2531 16.5 54.2668 16.5039 54.2808 16.5036C54.3108 16.5122 54.3372 16.5299 54.3567 16.5542C54.373 16.5752 54.3873 16.5978 54.3991 16.6217C54.4103 16.6444 54.416 16.6694 54.416 16.6948C54.416 16.7201 54.4103 16.7452 54.3991 16.7679C54.2659 17.0679 54.0485 17.3228 53.7734 17.5017C53.4992 17.6796 53.1816 17.7689 52.8206 17.7689ZM53.9935 15.6488C53.9331 15.3338 53.8035 15.0958 53.6045 14.9346C53.4052 14.7734 53.1439 14.6928 52.8206 14.6927C52.6102 14.6927 52.4345 14.7265 52.2936 14.794C52.1629 14.8541 52.0452 14.9391 51.947 15.0442C51.8614 15.1365 51.7927 15.2431 51.744 15.3592C51.7044 15.453 51.6724 15.5498 51.6484 15.6488H53.9935ZM56.4005 17.7915C56.2121 17.7933 56.0244 17.7696 55.8424 17.7212C55.6865 17.68 55.5381 17.6145 55.4027 17.5271C55.2857 17.4517 55.1873 17.3508 55.1151 17.2318C55.0474 17.1169 55.0124 16.9857 55.0137 16.8523C55.0137 16.7285 55.0757 16.6666 55.1999 16.6666C55.2527 16.6654 55.3043 16.6823 55.3462 16.7144C55.3668 16.7307 55.3832 16.7517 55.394 16.7757C55.4048 16.7997 55.4096 16.8259 55.4081 16.8521C55.4099 16.9249 55.4335 16.9955 55.4759 17.0546C55.5268 17.1274 55.5934 17.1879 55.6706 17.2317C55.7685 17.2877 55.8737 17.3294 55.9834 17.3555C56.1199 17.3888 56.26 17.4049 56.4005 17.4033C56.5973 17.407 56.7935 17.3785 56.9811 17.319C57.1464 17.2627 57.2705 17.1765 57.3534 17.0602C57.3975 17.0131 57.4276 16.9547 57.4405 16.8915C57.4538 16.8248 57.4547 16.7561 57.4433 16.689C57.4194 16.577 57.3647 16.4738 57.2855 16.391C57.2058 16.3131 57.1122 16.2511 57.0093 16.2082C56.8936 16.1595 56.7725 16.1246 56.6487 16.1042C56.5169 16.0817 56.3815 16.0611 56.2427 16.0423C56.1146 16.0198 55.9852 15.9946 55.8537 15.9664C55.7295 15.9409 55.6092 15.8993 55.4957 15.8426C55.3928 15.7917 55.3023 15.7187 55.2308 15.6289C55.1612 15.5408 55.1263 15.4255 55.1262 15.2829C55.1212 15.1196 55.1689 14.959 55.2619 14.8247C55.3518 14.6991 55.4669 14.5937 55.6 14.5152C55.7364 14.4342 55.8849 14.3753 56.0398 14.3409C56.182 14.3071 56.3275 14.2892 56.4736 14.2874C56.6469 14.2857 56.8192 14.3123 56.9839 14.3662C57.1303 14.4135 57.2669 14.4869 57.3871 14.5828C57.4975 14.672 57.587 14.7843 57.6492 14.9118C57.7116 15.0416 57.7433 15.184 57.7419 15.328C57.7415 15.3745 57.7245 15.4193 57.694 15.4545C57.678 15.474 57.6579 15.4895 57.6349 15.4997C57.6119 15.51 57.5868 15.5147 57.5616 15.5135C57.5341 15.5143 57.5066 15.5095 57.481 15.4994C57.4553 15.4892 57.4319 15.474 57.4124 15.4545C57.3944 15.4385 57.3799 15.4191 57.3698 15.3973C57.3596 15.3756 57.3541 15.352 57.3534 15.328C57.3542 15.2376 57.3317 15.1485 57.2883 15.0693C57.243 14.9883 57.1806 14.9182 57.1052 14.864C57.0207 14.8032 56.9261 14.7576 56.826 14.7291C56.7114 14.6962 56.5928 14.68 56.4736 14.6812C56.3706 14.6822 56.2678 14.6925 56.1667 14.7122C56.0589 14.7318 55.9544 14.7669 55.8565 14.8162C55.7651 14.8615 55.6837 14.9246 55.617 15.0019C55.5517 15.0807 55.5176 15.1808 55.5212 15.2831C55.5193 15.3337 55.5352 15.3835 55.5661 15.4237C55.6043 15.4669 55.6527 15.4998 55.7071 15.5193C55.7864 15.55 55.8686 15.5726 55.9524 15.5868C56.0518 15.6057 56.1711 15.6263 56.3103 15.6487C56.4494 15.6711 56.5969 15.6992 56.7528 15.7331C56.9068 15.7661 57.0568 15.8151 57.2007 15.8792C57.3426 15.9423 57.4716 16.0309 57.5813 16.1408C57.6981 16.2617 57.779 16.4125 57.8153 16.5766C57.883 16.8616 57.8361 17.1071 57.6745 17.3133C57.5376 17.4808 57.3558 17.6056 57.1503 17.6732C56.909 17.7551 56.6554 17.7952 56.4005 17.7915ZM60.0418 17.7915C59.8265 17.7938 59.6131 17.7504 59.4159 17.6641C59.2186 17.5778 59.0418 17.4506 58.8974 17.2909C58.7514 17.1282 58.6376 16.9393 58.562 16.7342C58.4796 16.511 58.4387 16.2747 58.4411 16.0368C58.4388 15.8017 58.4797 15.5682 58.562 15.3479C58.6377 15.1446 58.7515 14.9575 58.8974 14.7968C59.0425 14.6382 59.2195 14.5119 59.4167 14.4261C59.6138 14.3403 59.8268 14.2971 60.0418 14.2991C60.2603 14.2968 60.4767 14.3419 60.6762 14.4312C60.8674 14.5178 61.039 14.6421 61.1809 14.7968C61.3266 14.9576 61.4404 15.1446 61.5162 15.3479C61.5984 15.5682 61.6394 15.8017 61.6372 16.0368C61.6396 16.2747 61.5986 16.511 61.5162 16.7342C61.4404 16.9392 61.3267 17.1281 61.1809 17.2909C61.0397 17.447 60.8679 17.5724 60.6762 17.6593C60.4767 17.7486 60.2603 17.7937 60.0418 17.7915ZM60.0418 14.6984C59.8739 14.6966 59.7076 14.7311 59.5543 14.7996C59.4093 14.8646 59.2796 14.9595 59.1737 15.0781C59.0654 15.2015 58.9822 15.3447 58.9286 15.4999C58.8686 15.6725 58.8391 15.8542 58.8412 16.0369C58.839 16.2224 58.8685 16.407 58.9286 16.5824C58.9821 16.7393 59.0653 16.8844 59.1737 17.0098C59.2789 17.1298 59.4087 17.2257 59.5543 17.291C59.7076 17.3595 59.8739 17.3941 60.0418 17.3922C60.2052 17.3935 60.3669 17.359 60.5156 17.291C60.6605 17.2248 60.79 17.129 60.8958 17.0098C61.0061 16.8848 61.0913 16.7397 61.1467 16.5824C61.2086 16.4073 61.2392 16.2227 61.2371 16.0369C61.239 15.854 61.2084 15.6721 61.1467 15.4999C61.0913 15.3443 61.006 15.2011 60.8958 15.0781C60.7893 14.9604 60.66 14.8656 60.5156 14.7996C60.367 14.7316 60.2052 14.6972 60.0418 14.6984ZM66.5641 17.7745C66.5361 17.7752 66.5082 17.7704 66.4821 17.7602C66.456 17.7501 66.4322 17.7349 66.412 17.7155C66.3929 17.6991 66.3776 17.6788 66.3669 17.656C66.3562 17.6332 66.3505 17.6085 66.3501 17.5833V15.5304C66.3501 15.3392 66.3199 15.1893 66.2596 15.0805C66.2087 14.9823 66.1354 14.8975 66.0455 14.833C65.9687 14.7792 65.8812 14.7428 65.789 14.7262C65.7174 14.7129 65.6449 14.7053 65.5721 14.7037C65.4787 14.7042 65.3861 14.7213 65.2986 14.7543C65.2031 14.7903 65.1173 14.8481 65.0479 14.923C64.966 15.0128 64.9025 15.1179 64.8616 15.2324C64.8093 15.3823 64.7845 15.5405 64.7885 15.6992V17.5831C64.7885 17.632 64.7703 17.6791 64.7375 17.7153C64.72 17.7351 64.6983 17.7508 64.674 17.761C64.6496 17.7712 64.6232 17.7758 64.5968 17.7744C64.5688 17.775 64.5409 17.7701 64.5148 17.76C64.4886 17.7499 64.4647 17.7347 64.4444 17.7153C64.4254 17.6989 64.41 17.6786 64.3994 17.6558C64.3887 17.633 64.383 17.6083 64.3825 17.5831V15.5304C64.385 15.408 64.3619 15.2863 64.3148 15.1733C64.2733 15.0754 64.2119 14.9873 64.1344 14.9146C64.0608 14.8463 63.9748 14.7928 63.8809 14.7572C63.791 14.7223 63.6955 14.7042 63.599 14.7037C63.5075 14.7046 63.4169 14.7218 63.3314 14.7543C63.2358 14.7903 63.1498 14.8481 63.0804 14.923C62.9987 15.0125 62.9364 15.1178 62.8973 15.2325C62.8467 15.3828 62.8227 15.5408 62.8267 15.6993V17.5832C62.8239 17.6331 62.803 17.6802 62.7676 17.7154C62.7323 17.7507 62.6851 17.7717 62.6352 17.7744C62.6072 17.7751 62.5793 17.7703 62.5532 17.7602C62.5271 17.75 62.5032 17.7348 62.483 17.7154C62.4639 17.699 62.4484 17.6787 62.4377 17.6559C62.427 17.6331 62.4212 17.6084 62.4207 17.5832V14.4733C62.4194 14.4466 62.4243 14.42 62.4351 14.3956C62.4459 14.3712 62.4624 14.3497 62.483 14.3327C62.5261 14.2983 62.5801 14.2803 62.6352 14.2821C62.6841 14.2821 62.7313 14.3001 62.7677 14.3327C62.7875 14.3502 62.8031 14.3719 62.8133 14.3963C62.8235 14.4206 62.828 14.4469 62.8267 14.4733V14.6083C62.9283 14.5056 63.0516 14.4269 63.1875 14.3777C63.35 14.3191 63.5232 14.2953 63.6956 14.3079C63.8679 14.3205 64.0356 14.3692 64.1879 14.4508C64.3586 14.5408 64.5004 14.6773 64.5968 14.8445C64.6978 14.6759 64.8418 14.5372 65.0139 14.4424C65.1853 14.35 65.3774 14.3026 65.5721 14.3046C65.7243 14.303 65.8758 14.3219 66.0229 14.3608C66.1502 14.3943 66.2693 14.4537 66.3727 14.5352C66.5038 14.6435 66.6031 14.7854 66.66 14.9457C66.7238 15.1339 66.7543 15.3318 66.7502 15.5305V17.5831C66.7503 17.6315 66.7332 17.6783 66.7021 17.7153C66.6853 17.7352 66.6641 17.7509 66.6402 17.7611C66.6162 17.7714 66.5901 17.7761 66.5641 17.7745ZM69.1346 17.7689C68.9035 17.7727 68.6739 17.7316 68.4583 17.648C68.2657 17.5723 68.0951 17.4495 67.9622 17.2909C67.6762 16.9835 67.5334 16.5617 67.5336 16.0255C67.5303 15.78 67.5684 15.5357 67.6463 15.3029C67.7142 15.0998 67.8236 14.913 67.9677 14.7546C68.1083 14.6035 68.2807 14.4854 68.4722 14.4087C68.6831 14.3256 68.908 14.2845 69.1346 14.2878C69.3504 14.2857 69.565 14.3209 69.7688 14.3918C69.9517 14.4547 70.1182 14.5575 70.2565 14.6927C70.3994 14.8353 70.5116 15.0056 70.5862 15.1932C70.6669 15.4005 70.7172 15.6183 70.7357 15.84C70.7359 15.8709 70.7296 15.9014 70.7168 15.9296C70.7041 15.9578 70.6854 15.9828 70.662 16.0031C70.6438 16.0183 70.6229 16.0297 70.6003 16.0368C70.5752 16.047 70.5484 16.0528 70.5213 16.0537H67.9397C67.9397 16.4736 68.042 16.7969 68.2469 17.0238C68.4514 17.2507 68.7473 17.3641 69.1346 17.364C69.3924 17.3686 69.6461 17.2982 69.8647 17.1615C70.0756 17.0283 70.2384 16.8313 70.3297 16.5991C70.3786 16.5204 70.4425 16.4811 70.5213 16.481C70.5336 16.4813 70.5453 16.4853 70.5553 16.4923C70.5669 16.5 70.5807 16.504 70.5947 16.5036C70.6246 16.5123 70.6511 16.5299 70.6707 16.5542C70.6868 16.5754 70.7011 16.598 70.7132 16.6217C70.7243 16.6444 70.7301 16.6694 70.7301 16.6948C70.7301 16.7201 70.7243 16.7452 70.7132 16.7679C70.5799 17.0679 70.3623 17.3228 70.0871 17.5017C69.8129 17.6796 69.4954 17.7689 69.1346 17.7689ZM70.3071 15.6488C70.2468 15.3338 70.1172 15.0958 69.9182 14.9346C69.719 14.7734 69.4577 14.6928 69.1346 14.6927C68.9239 14.6927 68.7482 14.7265 68.6075 14.794C68.4768 14.8541 68.3589 14.9391 68.2608 15.0442C68.1751 15.1365 68.1064 15.2431 68.0578 15.3592C68.0181 15.453 67.9861 15.5498 67.9622 15.6488H70.3071ZM77.252 17.7971C77.2031 17.797 77.156 17.779 77.1196 17.7464C77.0998 17.729 77.0842 17.7072 77.0739 17.6829C77.0637 17.6585 77.059 17.6322 77.0603 17.6058V15.671C77.065 15.5057 77.0361 15.3412 76.9756 15.1874C76.9218 15.0595 76.8366 14.9473 76.7278 14.8612C76.6262 14.7998 76.5144 14.757 76.3978 14.7346C76.2538 14.7084 76.1076 14.6961 75.9612 14.6981C75.8339 14.6994 75.708 14.7232 75.5891 14.7684C75.4575 14.8178 75.3388 14.8967 75.2424 14.999C75.13 15.1203 75.0428 15.2627 74.9859 15.418C74.9181 15.5904 74.8843 15.8022 74.8844 16.0535V17.6057C74.8858 17.6313 74.8821 17.657 74.8734 17.6812C74.8647 17.7053 74.8511 17.7275 74.8336 17.7463C74.8157 17.7634 74.7945 17.7768 74.7713 17.7855C74.748 17.7942 74.7233 17.7981 74.6985 17.7969C74.6416 17.7993 74.5855 17.7813 74.5406 17.7463C74.52 17.7293 74.5036 17.7078 74.4928 17.6833C74.482 17.6589 74.4772 17.6323 74.4785 17.6057V12.6927C74.479 12.6675 74.4848 12.6427 74.4955 12.62C74.5062 12.5972 74.5215 12.577 74.5406 12.5606C74.5617 12.5408 74.5865 12.5253 74.6136 12.5152C74.6407 12.505 74.6696 12.5004 74.6985 12.5014C74.724 12.5005 74.7494 12.5053 74.7728 12.5155C74.7962 12.5258 74.817 12.5412 74.8336 12.5606C74.8662 12.5969 74.8843 12.6439 74.8844 12.6927V14.7938C75.0152 14.635 75.1798 14.5072 75.366 14.4197C75.5522 14.3321 75.7554 14.287 75.9612 14.2876C76.1337 14.2886 76.3059 14.2999 76.4771 14.3214C76.6584 14.3424 76.8327 14.4039 76.987 14.5013C77.3064 14.7451 77.466 15.135 77.466 15.671V17.6057C77.4674 17.6321 77.4628 17.6584 77.4525 17.6827C77.4423 17.7071 77.4268 17.7288 77.407 17.7463C77.3632 17.7815 77.3081 17.7997 77.252 17.7971ZM81.2431 17.7745C81.2149 17.7749 81.1869 17.7696 81.1608 17.7591C81.1347 17.7485 81.111 17.7328 81.091 17.7129C81.0711 17.693 81.0554 17.6693 81.0448 17.6432C81.0341 17.6171 81.0286 17.5892 81.0289 17.561V17.2288C80.9625 17.3023 80.8908 17.3709 80.8145 17.434C80.732 17.502 80.6423 17.5604 80.5468 17.6084C80.4401 17.6616 80.3276 17.7021 80.2115 17.7293C80.0747 17.7607 79.9346 17.7758 79.7943 17.7743C79.5829 17.7749 79.3741 17.7288 79.1826 17.6393C78.9881 17.5485 78.8158 17.416 78.6781 17.2512C78.5336 17.091 78.4241 16.9023 78.3566 16.6973C78.2143 16.2683 78.2143 15.8048 78.3566 15.3757C78.4274 15.1688 78.5364 14.9771 78.6781 14.8105C78.8158 14.6458 78.9881 14.5134 79.1826 14.4225C79.3741 14.333 79.5829 14.2869 79.7943 14.2875C80.0684 14.2875 80.3071 14.3278 80.5103 14.4084C80.7073 14.4852 80.8846 14.6053 81.0289 14.7599V14.5012C81.0286 14.473 81.0339 14.445 81.0446 14.4189C81.0552 14.3928 81.071 14.3691 81.091 14.3492C81.1109 14.3293 81.1347 14.3136 81.1608 14.303C81.1869 14.2924 81.2149 14.2871 81.2431 14.2875C81.2682 14.288 81.2931 14.2938 81.3159 14.3044C81.3387 14.3151 81.359 14.3304 81.3755 14.3494C81.3949 14.3696 81.4101 14.3934 81.4202 14.4194C81.4304 14.4455 81.4353 14.4733 81.4346 14.5012V17.5606C81.4352 17.5885 81.4303 17.6163 81.4202 17.6423C81.4101 17.6684 81.3949 17.6921 81.3755 17.7122C81.359 17.7313 81.3387 17.7466 81.3159 17.7573C81.2931 17.768 81.2683 17.774 81.2431 17.7745ZM79.7943 14.7152C79.6366 14.7136 79.4806 14.7472 79.3376 14.8136C79.1998 14.8785 79.077 14.9714 78.9771 15.0864C78.8718 15.2094 78.7913 15.3517 78.7401 15.5053C78.6822 15.6784 78.6535 15.86 78.6555 16.0425C78.6537 16.2222 78.6823 16.4009 78.7401 16.5711C78.7921 16.7243 78.8726 16.8665 78.9771 16.99C79.0768 17.1068 79.1995 17.2016 79.3376 17.2685C79.4801 17.3368 79.6363 17.3714 79.7943 17.3698C79.9476 17.3729 80.1004 17.3491 80.2455 17.2995C80.3662 17.2563 80.4792 17.1947 80.5809 17.1167C80.6764 17.0418 80.7608 16.9538 80.8315 16.8552C80.9033 16.755 80.9692 16.6508 81.0289 16.543V15.5701C80.886 15 80.4744 14.7152 79.7943 14.7152ZM82.6241 17.7745C82.5959 17.775 82.568 17.7697 82.5419 17.7591C82.5157 17.7486 82.492 17.7329 82.472 17.713C82.452 17.6931 82.4361 17.6694 82.4254 17.6433C82.4147 17.6172 82.4094 17.5892 82.4097 17.561V14.479C82.4102 14.4539 82.416 14.4291 82.4267 14.4064C82.4373 14.3836 82.4526 14.3633 82.4715 14.3469C82.4918 14.3275 82.5158 14.3123 82.5419 14.3021C82.5681 14.292 82.596 14.2871 82.6241 14.2878C82.6481 14.2886 82.6718 14.2942 82.6935 14.3044C82.7153 14.3145 82.7347 14.329 82.7507 14.3469C82.769 14.3637 82.7838 14.3841 82.7939 14.4068C82.8041 14.4295 82.8095 14.4541 82.8098 14.479V14.8052C82.8351 14.7726 82.8636 14.7424 82.8947 14.7152C82.9247 14.689 82.9527 14.6647 82.979 14.6421C83.0954 14.5335 83.2324 14.4493 83.3819 14.3945C83.5363 14.3379 83.6996 14.3093 83.864 14.3101C83.8978 14.3101 83.9364 14.3111 83.9798 14.313C84.019 14.3142 84.0578 14.3208 84.0952 14.3327C84.1205 14.3351 84.1452 14.3426 84.1676 14.3548C84.1899 14.367 84.2096 14.3836 84.2254 14.4035C84.2412 14.4235 84.2527 14.4464 84.2594 14.471C84.2662 14.4955 84.268 14.5212 84.2646 14.5464C84.242 14.6739 84.1706 14.7376 84.0504 14.7376H84.0278C84.0032 14.722 83.9749 14.7132 83.9458 14.7122C83.9139 14.7104 83.8866 14.7094 83.864 14.7094C83.7455 14.7091 83.6279 14.7311 83.5175 14.7741C83.4141 14.8125 83.3193 14.8708 83.2383 14.9456C83.0924 15.0625 82.9813 15.2171 82.9171 15.3927C82.8418 15.6008 82.8054 15.821 82.8098 16.0423V17.5607C82.8105 17.5886 82.8056 17.6164 82.7955 17.6425C82.7853 17.6685 82.7701 17.6922 82.7507 17.7123C82.7351 17.7309 82.7158 17.746 82.694 17.7567C82.6722 17.7673 82.6484 17.7736 82.6241 17.7745ZM87.6808 17.7745C87.6529 17.7754 87.6251 17.7703 87.5993 17.7596C87.5736 17.7489 87.5505 17.7329 87.5312 17.7127C87.5118 17.6926 87.4965 17.6688 87.4863 17.6428C87.4761 17.6168 87.4712 17.589 87.4718 17.561V17.3023C87.2014 17.6172 86.8294 17.7747 86.356 17.7747C85.9048 17.7747 85.5326 17.6172 85.2395 17.3023C85.1053 17.1434 85.0074 16.9573 84.9521 16.7568C84.8894 16.5259 84.859 16.2874 84.862 16.0482C84.8607 15.8164 84.8999 15.5861 84.9778 15.3678C85.0488 15.1642 85.1566 14.9755 85.2959 14.811C85.4283 14.6559 85.5902 14.5288 85.7724 14.4371C85.9532 14.3455 86.1533 14.2982 86.356 14.2992C86.5688 14.2989 86.7787 14.3501 86.9675 14.4483C87.1639 14.55 87.3358 14.6929 87.4718 14.8673V12.7152C87.4712 12.6872 87.4761 12.6593 87.4863 12.6333C87.4965 12.6072 87.5117 12.5834 87.5312 12.5633C87.5505 12.5431 87.5736 12.5271 87.5993 12.5164C87.6251 12.5057 87.6529 12.5006 87.6808 12.5014C87.706 12.5019 87.7306 12.5077 87.7534 12.5184C87.7763 12.529 87.7967 12.5443 87.8132 12.5633C87.8326 12.5835 87.8477 12.6073 87.8578 12.6333C87.868 12.6594 87.873 12.6872 87.8723 12.7152V17.5606C87.873 17.5885 87.868 17.6163 87.8578 17.6423C87.8477 17.6684 87.8326 17.6921 87.8132 17.7122C87.7967 17.7313 87.7764 17.7466 87.7536 17.7573C87.7308 17.768 87.706 17.774 87.6808 17.7745ZM86.356 14.7208C86.2095 14.7208 86.0653 14.7565 85.9357 14.8249C85.8014 14.8951 85.6827 14.9917 85.5865 15.1089C85.4836 15.2347 85.4034 15.3774 85.3497 15.5307C85.2904 15.6967 85.2608 15.8718 85.2621 16.048C85.2621 16.4755 85.3543 16.8035 85.5385 17.0321C85.7227 17.2606 85.9952 17.375 86.356 17.3751C87.0999 17.3751 87.4718 16.9327 87.4718 16.0479C87.4731 15.8717 87.4436 15.6966 87.3846 15.5306C87.3306 15.3768 87.2496 15.2339 87.1451 15.1088C87.0468 14.9914 86.926 14.8948 86.7899 14.8248C86.6558 14.7557 86.5069 14.7202 86.356 14.7208ZM89.89 17.7858H89.868C89.829 17.7843 89.7921 17.7716 89.7601 17.7493C89.7411 17.736 89.7251 17.7189 89.7121 17.6991C89.7001 17.6793 89.691 17.6571 89.687 17.6339L88.6725 14.5409C88.6614 14.5178 88.6564 14.4923 88.6579 14.4667C88.6594 14.4411 88.6674 14.4163 88.6812 14.3947C88.6928 14.3706 88.7096 14.3494 88.7307 14.3328C88.7517 14.3163 88.7762 14.3047 88.8024 14.2991C88.8113 14.2891 88.8232 14.2822 88.8362 14.2794C88.8474 14.2776 88.8586 14.2766 88.8699 14.2766C88.9156 14.2768 88.96 14.2916 88.9967 14.3187C89.031 14.3398 89.056 14.3729 89.067 14.4116L89.9131 17.0379L90.927 14.8727C90.951 14.838 90.9831 14.81 91.0201 14.7912C91.0541 14.7722 91.0921 14.7616 91.1301 14.7602C91.1671 14.7622 91.203 14.7728 91.235 14.7912C91.272 14.8101 91.304 14.8381 91.328 14.8727L92.3031 17.0379L93.188 14.4116C93.199 14.3729 93.2241 14.3397 93.2581 14.3187C93.2951 14.2916 93.3401 14.2768 93.3851 14.2766C93.3971 14.2757 93.4101 14.2772 93.4211 14.2811C93.4331 14.2849 93.444 14.2911 93.453 14.2991C93.479 14.3045 93.502 14.3164 93.522 14.3336C93.542 14.3508 93.5571 14.3729 93.5661 14.3975C93.5881 14.4498 93.594 14.5077 93.582 14.5634L92.545 17.6733C92.532 17.7095 92.5041 17.7388 92.4691 17.7549C92.4301 17.7753 92.3871 17.786 92.3421 17.7858C92.3001 17.7856 92.2581 17.7749 92.2211 17.7549C92.2041 17.7469 92.188 17.7357 92.175 17.7217C92.162 17.7077 92.1521 17.6912 92.1451 17.6733L91.1301 15.4463L90.065 17.6733C90.061 17.6932 90.0521 17.7119 90.0401 17.7276C90.0271 17.7433 90.0101 17.7556 89.9921 17.7633C89.9591 17.777 89.925 17.7848 89.89 17.7858ZM97.179 17.7745C97.151 17.7749 97.123 17.7696 97.097 17.7591C97.071 17.7485 97.0471 17.7328 97.0271 17.7129C97.0071 17.693 96.991 17.6693 96.981 17.6432C96.97 17.6171 96.965 17.5892 96.965 17.561V17.2288C96.898 17.3023 96.827 17.3709 96.75 17.434C96.668 17.502 96.578 17.5604 96.483 17.6084C96.376 17.6616 96.263 17.7021 96.147 17.7293C96.011 17.7607 95.8711 17.7758 95.7301 17.7743C95.5191 17.7749 95.31 17.7289 95.119 17.6393C94.924 17.5486 94.752 17.4161 94.614 17.2512C94.469 17.091 94.36 16.9023 94.293 16.6973C94.15 16.2683 94.15 15.8048 94.293 15.3757C94.363 15.1688 94.472 14.9771 94.614 14.8105C94.752 14.6457 94.924 14.5133 95.119 14.4225C95.31 14.333 95.5191 14.2869 95.7301 14.2875C96.0051 14.2875 96.243 14.3278 96.446 14.4084C96.643 14.4852 96.821 14.6053 96.965 14.7599V14.5012C96.965 14.473 96.97 14.445 96.981 14.4189C96.991 14.3928 97.0071 14.3691 97.0271 14.3492C97.0471 14.3293 97.071 14.3136 97.097 14.303C97.123 14.2924 97.151 14.2871 97.179 14.2875C97.204 14.288 97.229 14.2937 97.252 14.3044C97.275 14.3151 97.2951 14.3304 97.3111 14.3494C97.3311 14.3695 97.346 14.3933 97.356 14.4194C97.366 14.4454 97.371 14.4733 97.371 14.5012V17.5606C97.371 17.5886 97.366 17.6163 97.356 17.6424C97.346 17.6684 97.3311 17.6921 97.3111 17.7122C97.2951 17.7313 97.275 17.7466 97.252 17.7573C97.229 17.768 97.204 17.7741 97.179 17.7745ZM95.7301 14.7152C95.5731 14.7136 95.417 14.7472 95.274 14.8136C95.136 14.8784 95.0131 14.9713 94.9131 15.0864C94.8081 15.2094 94.7271 15.3517 94.6761 15.5053C94.6181 15.6784 94.589 15.86 94.591 16.0425C94.59 16.2222 94.6181 16.4009 94.6761 16.5711C94.7281 16.7243 94.8081 16.8665 94.9131 16.99C95.0131 17.1068 95.135 17.2017 95.274 17.2685C95.416 17.3368 95.5721 17.3714 95.7301 17.3698C95.8841 17.3729 96.036 17.3491 96.181 17.2995C96.302 17.2563 96.415 17.1947 96.517 17.1167C96.612 17.0418 96.697 16.9538 96.767 16.8552C96.839 16.755 96.905 16.6508 96.965 16.543V15.5701C96.822 15 96.4101 14.7152 95.7301 14.7152ZM98.56 17.7745C98.532 17.7749 98.504 17.7696 98.478 17.7591C98.452 17.7485 98.4281 17.7328 98.4081 17.7129C98.3881 17.693 98.372 17.6693 98.362 17.6432C98.351 17.6171 98.3461 17.5892 98.3461 17.561V14.479C98.3461 14.4539 98.3521 14.4291 98.3631 14.4064C98.3731 14.3836 98.3891 14.3633 98.4081 14.3469C98.4281 14.3275 98.452 14.3123 98.478 14.3022C98.504 14.292 98.532 14.2871 98.56 14.2878C98.584 14.2885 98.6081 14.2942 98.6301 14.3043C98.6511 14.3145 98.671 14.329 98.687 14.3469C98.705 14.3637 98.7201 14.3841 98.7301 14.4068C98.7401 14.4295 98.746 14.4541 98.746 14.479V14.8052C98.771 14.7726 98.8 14.7425 98.83 14.7152C98.861 14.689 98.8891 14.6646 98.9151 14.6421C99.0321 14.5334 99.1691 14.4492 99.3181 14.3945C99.4731 14.3379 99.636 14.3093 99.8 14.3101C99.834 14.3101 99.873 14.3111 99.916 14.313C99.955 14.3142 99.9941 14.3208 100.031 14.3327C100.057 14.3351 100.081 14.3426 100.104 14.3548C100.126 14.367 100.146 14.3835 100.161 14.4035C100.177 14.4235 100.189 14.4464 100.196 14.471C100.202 14.4955 100.204 14.5212 100.2 14.5464C100.178 14.6739 100.106 14.7376 99.9861 14.7376H99.9641C99.9391 14.722 99.911 14.7132 99.882 14.7122C99.85 14.7104 99.823 14.7094 99.8 14.7094C99.682 14.7091 99.5641 14.7311 99.4541 14.7741C99.3501 14.8125 99.256 14.8708 99.175 14.9456C99.029 15.0624 98.917 15.2171 98.853 15.3927C98.778 15.6008 98.742 15.821 98.746 16.0423V17.5607C98.747 17.5886 98.7421 17.6164 98.7321 17.6425C98.7221 17.6685 98.706 17.6922 98.687 17.7123C98.671 17.7309 98.6521 17.7461 98.6301 17.7567C98.6081 17.7674 98.584 17.7736 98.56 17.7745ZM102.399 17.7689C102.168 17.7727 101.938 17.7316 101.723 17.648C101.53 17.5723 101.359 17.4495 101.226 17.2909C100.941 16.9835 100.798 16.5617 100.798 16.0255C100.795 15.78 100.833 15.5357 100.911 15.3029C100.978 15.0998 101.088 14.913 101.232 14.7546C101.373 14.6035 101.545 14.4854 101.736 14.4087C101.947 14.3256 102.172 14.2845 102.399 14.2878C102.615 14.2857 102.829 14.3209 103.033 14.3918C103.216 14.4547 103.382 14.5575 103.521 14.6927C103.664 14.8353 103.776 15.0056 103.851 15.1932C103.931 15.4005 103.982 15.6183 104 15.84C104 15.8709 103.994 15.9014 103.981 15.9296C103.968 15.9578 103.95 15.9828 103.926 16.0031C103.908 16.0183 103.887 16.0297 103.864 16.0368C103.839 16.047 103.813 16.0528 103.786 16.0537H101.204C101.204 16.4736 101.306 16.7969 101.511 17.0238C101.716 17.2507 102.012 17.3641 102.399 17.364C102.657 17.3686 102.91 17.2982 103.129 17.1615C103.34 17.0283 103.503 16.8313 103.594 16.5991C103.643 16.5204 103.707 16.4811 103.786 16.481C103.798 16.4813 103.81 16.4853 103.82 16.4923C103.831 16.5 103.845 16.504 103.859 16.5036C103.889 16.5123 103.915 16.5299 103.935 16.5542C103.951 16.5754 103.965 16.598 103.977 16.6217C103.989 16.6444 103.994 16.6694 103.994 16.6948C103.994 16.7201 103.989 16.7452 103.977 16.7679C103.844 17.0679 103.627 17.3228 103.351 17.5017C103.077 17.6796 102.76 17.7689 102.399 17.7689ZM103.571 15.6488C103.511 15.3338 103.381 15.0958 103.182 14.9346C102.983 14.7734 102.722 14.6928 102.399 14.6927C102.188 14.6927 102.012 14.7265 101.872 14.794C101.741 14.8541 101.623 14.9391 101.525 15.0442C101.439 15.1365 101.371 15.2431 101.322 15.3592C101.282 15.453 101.25 15.5498 101.226 15.6488H103.571ZM45.2925 10.3259L41.4617 2.36756H43.2137L46.09 8.34266L48.966 2.36756H50.7179L46.8871 10.3259H45.2925ZM22.7674 10.3259C22.2901 10.3257 21.8323 10.1363 21.4946 9.79896C21.1568 9.46176 20.9666 9.00436 20.9657 8.52706V2.36756H22.3854V8.30906C22.3857 8.46806 22.4491 8.62046 22.5616 8.73286C22.6741 8.84526 22.8266 8.90836 22.9857 8.90846H25.8792V2.36756H27.2989V8.90846H30.1923C30.3514 8.90836 30.504 8.84526 30.6165 8.73286C30.7291 8.62056 30.7925 8.46806 30.7928 8.30906V2.36756H32.2124V8.52706C32.2115 9.00436 32.0213 9.46176 31.6835 9.79896C31.3458 10.1362 30.8882 10.3257 30.4109 10.3259H22.7674ZM75.9445 10.3259V7.05546H70.8125V10.326H69.3931V2.36746H70.8125V5.63796H75.9445V2.36746H77.364V10.326L75.9445 10.3259ZM60.5109 10.3259V8.90846H66.4617C66.6208 8.90856 66.7734 8.84546 66.886 8.73306C66.9986 8.62066 67.062 8.46816 67.0623 8.30906V7.65506C67.062 7.49586 66.9986 7.34336 66.886 7.23096C66.7734 7.11856 66.6208 7.05536 66.4617 7.05546H62.3127C61.8354 7.05526 61.3777 6.86586 61.0399 6.52856C60.7021 6.19136 60.5119 5.73396 60.5109 5.25656V4.16626C60.5119 3.68896 60.7021 3.23146 61.0399 2.89426C61.3777 2.55706 61.8354 2.36756 62.3127 2.36746H68.4821V3.78486H62.5309C62.3718 3.78496 62.2193 3.84806 62.1067 3.96046C61.9942 4.07286 61.9308 4.22526 61.9305 4.38436V5.03856C61.9308 5.19766 61.9942 5.35006 62.1067 5.46246C62.2193 5.57476 62.3718 5.63796 62.5309 5.63796H66.6803C67.1576 5.63806 67.6154 5.82756 67.9532 6.16476C68.291 6.50206 68.4812 6.95946 68.4821 7.43686V8.52716C68.4812 9.00446 68.291 9.46186 67.9532 9.79916C67.6153 10.1364 67.1576 10.3259 66.6803 10.326L60.5109 10.3259ZM51.6289 10.3259V2.36746H59.5998V3.78486H53.0484V5.63796H58.5082V7.05546H53.0484V8.90846H59.5998V10.326L51.6289 10.3259ZM96.0291 10.3259V2.36756H104V3.78496H97.4491V5.63806H102.908V7.05526H97.4491V8.90836H104V10.3258L96.0291 10.3259ZM39.6746 10.3259V7.60036H34.5431V10.3259H33.1235V4.16636C33.1244 3.68906 33.3146 3.23166 33.6524 2.89446C33.9901 2.55726 34.4477 2.36776 34.925 2.36756H39.2929C39.7701 2.36776 40.2277 2.55726 40.5655 2.89446C40.9032 3.23166 41.0934 3.68906 41.0943 4.16636V10.3259H39.6746ZM39.6746 6.18316V4.38436C39.6743 4.22526 39.611 4.07286 39.4985 3.96056C39.3859 3.84816 39.2333 3.78496 39.0743 3.78496H35.1436C34.9845 3.78496 34.8319 3.84816 34.7194 3.96056C34.6068 4.07286 34.5434 4.22526 34.5431 4.38436V6.18316H39.6746ZM84.8262 10.3259V7.60036H79.6944V10.3259H78.2749V4.16636C78.2758 3.68906 78.466 3.23166 78.8038 2.89446C79.1415 2.55726 79.5993 2.36776 80.0766 2.36756H84.444C84.9213 2.36766 85.379 2.55716 85.7168 2.89436C86.0546 3.23156 86.2449 3.68906 86.2458 4.16636V10.3259H84.8262ZM84.8262 6.18316V4.38436C84.8259 4.22526 84.7624 4.07286 84.6499 3.96056C84.5373 3.84816 84.3848 3.78496 84.2258 3.78496H80.295C80.136 3.78496 79.9833 3.84816 79.8707 3.96046C79.7581 4.07286 79.6948 4.22526 79.6944 4.38436V6.18316H84.8262ZM93.446 10.3259L89.688 7.60036H88.5775V10.3259H87.1581V2.36756H93.3271C93.8041 2.36766 94.2621 2.55716 94.6001 2.89436C94.9381 3.23156 95.128 3.68906 95.129 4.16636V5.80156C95.128 6.27886 94.9381 6.73636 94.6001 7.07356C94.2621 7.41076 93.8041 7.60026 93.3271 7.60036H92.104L95.86 10.3259H93.446ZM93.1091 6.18316C93.2681 6.18306 93.4211 6.11996 93.5331 6.00746C93.6461 5.89506 93.709 5.74256 93.709 5.58356V4.38436C93.709 4.22526 93.6461 4.07286 93.5331 3.96056C93.4201 3.84816 93.2681 3.78496 93.1091 3.78496H88.5775V6.18316H93.1091Z" fill="white"/>
</svg>
