<svg width="213" height="29" viewBox="0 0 213 29" fill="none" xmlns="http://www.w3.org/2000/svg">
<g clip-path="url(#clip0_2216_5312)">
<path d="M0 5.1499L1.64 28.0699H8L12.73 16.6699L12.71 28.0699H19.08L29.92 5.1499H23.2L17.66 18.7999L17.48 5.1499H12.28L6.7 18.7999L6.48 5.1499H0Z" fill="#EF7800"/>
<path d="M53.9 6.18018H47.96L47.09 10.3502H53.03L53.9 6.18018Z" fill="#EF7800"/>
<path d="M43.41 28.07H49.35L52.62 11.96H46.67L43.41 28.07Z" fill="#EF7800"/>
<path fill-rule="evenodd" clip-rule="evenodd" d="M31.93 18.2301C32.38 16.5801 33.43 15.6201 35.02 15.6201C36.52 15.6201 37.27 16.5501 37.27 17.7201C37.27 17.8701 37.24 18.0801 37.21 18.2301H31.93ZM36.19 23.2401C35.89 23.7801 35.14 24.3501 33.85 24.3501C31.99 24.3501 31.42 22.9701 31.42 21.3201H42.53C42.8 20.3601 42.83 19.4601 42.83 18.6201C42.83 13.7301 38.66 11.6201 35.21 11.6201C31.34 11.6201 25.87 14.1501 25.87 21.3001C25.87 25.0801 27.95 28.3001 33.47 28.3001C40.19 28.3001 41.51 24.3001 41.9 23.2501H36.2L36.19 23.2401Z" fill="#EF7800"/>
<path fill-rule="evenodd" clip-rule="evenodd" d="M64.4 18.8399C64.4 20.6999 63.62 23.6699 61.31 23.6699C59.75 23.6699 59.12 22.5299 59.12 21.1199C59.12 18.8699 59.9 15.9599 62.27 15.9599C63.8 15.9599 64.4 17.0999 64.4 18.8399ZM67.32 5.1499L67.22 5.5399L65.49 14.0399C64.44 12.3499 62.76 11.8099 60.96 11.8099C56.31 11.8099 53.22 15.9199 53.22 21.8299C53.22 23.7199 53.89 28.2899 58.91 28.2899C60.71 28.2899 62.05 27.4699 63.07 25.9999L62.77 28.0599H68.59L73.29 5.1499H67.33H67.32Z" fill="#EF7800"/>
<path d="M71.79 28.0699H77.73L79.65 18.8599C79.92 17.5099 80.67 16.5499 82.14 16.5499C83.1 16.5499 83.64 16.9999 83.64 17.9899C83.64 18.4099 83.49 19.0399 83.4 19.4299L81.6 28.0699H87.54L89.58 18.3599C89.82 17.2199 90.66 16.5599 91.83 16.5599C92.79 16.5599 93.36 17.0699 93.36 18.0599C93.36 18.5099 93.06 20.0399 93 20.3399L91.41 28.0699H97.35L99.24 18.8999C99.36 18.2099 99.6 17.1599 99.6 16.4399C99.6 13.2299 97.7 11.6299 94.67 11.6299C92.6 11.6299 90.81 12.7799 89.52 14.3999C89.13 12.4799 87.41 11.6299 85.37 11.6299C83.33 11.6299 81.63 12.7799 80.43 14.2499H80.37L80.81 11.9699H75.05L71.79 28.0799V28.0699Z" fill="#EF7800"/>
<path d="M119.63 11.96H113.69L112.31 18.54C111.83 20.52 111.71 23.43 109.04 23.43C108.17 23.43 107.33 22.92 107.33 21.96C107.33 21.96 107.33 21.15 107.57 20.34L109.34 11.96H103.4C101.6 20.54 101.06 22.68 101.06 24.03C101.06 27 103.17 28.3 105.87 28.3C107.88 28.3 109.73 27.33 111.02 25.8H111.08L110.6 28.07H116.36L119.63 11.96Z" fill="#EF7800"/>
<path d="M105.59 10.2598H110.88L111.72 6.25977H106.43L105.59 10.2598Z" fill="#EF7800"/>
<path d="M112.94 10.2598H118.22L119.06 6.25977H113.78L112.94 10.2598Z" fill="#EF7800"/>
<path d="M124.2 5.1001H130.19L125.46 28.0701H119.51L124.2 5.1001Z" fill="#EF7800"/>
<path d="M133.47 5.1001H139.47L134.8 28.0701H128.86L133.47 5.1001Z" fill="#EF7800"/>
<path fill-rule="evenodd" clip-rule="evenodd" d="M144.77 18.2699C145.22 16.6199 146.27 15.6599 147.86 15.6599C149.36 15.6599 150.11 16.5899 150.11 17.7599C150.11 17.9099 150.08 18.1199 150.05 18.2699H144.76H144.77ZM149.04 23.2799C148.74 23.8199 147.99 24.3899 146.7 24.3899C144.84 24.3899 144.27 23.0099 144.27 21.3599H155.38C155.65 20.3999 155.68 19.4999 155.68 18.6599C155.68 13.7699 151.51 11.6699 148.06 11.6699C144.19 11.6699 138.72 14.1899 138.72 21.3299C138.72 25.1099 140.81 28.3399 146.33 28.3399C153.05 28.3399 154.36 24.3299 154.75 23.2799H149.05H149.04Z" fill="#EF7800"/>
<path d="M156.24 28.0701H162.18L163.53 21.3101C164.22 18.0401 165.48 16.9601 168 16.9601C168.75 16.9601 169.56 17.0801 170.28 17.3501L171.39 11.8001C170.85 11.6201 170.28 11.5601 169.29 11.5601C167.76 11.5601 165.81 12.7301 164.76 14.3801L164.7 14.6801L165.21 11.9501H159.45L156.24 28.0801V28.0701Z" fill="#EF7800"/>
<path d="M183.55 4.59977H190.94C191.71 4.59977 192.08 4.89977 192.67 5.61977C192.88 5.87977 193.37 6.46977 193.95 7.18977L196.86 3.61977C195.86 2.38977 195.12 1.48977 195.12 1.48977C194.39 0.599766 193.6 0.00976562 192.15 0.00976562H183.54C182.35 0.00976562 181.12 0.789766 181.12 2.31977C181.12 3.84977 182.33 4.60977 183.54 4.60977L183.55 4.59977Z" fill="white"/>
<path d="M210.18 23.56H202.79C202.02 23.56 201.64 23.26 201.05 22.54C200.84 22.28 200.36 21.69 199.77 20.96L196.85 24.53C197.85 25.76 198.59 26.67 198.59 26.67C199.32 27.56 200.11 28.15 201.56 28.15H210.17C211.36 28.15 212.59 27.37 212.59 25.84C212.59 24.31 211.38 23.56 210.17 23.56H210.18Z" fill="#EF7800"/>
<path d="M195.4 15.6C194.89 15.02 194.65 14.54 194.65 14.08C194.65 13.62 194.9 13.12 195.4 12.56C195.45 12.5 200.22 6.63 201.05 5.62C201.64 4.9 202.01 4.6 202.79 4.6H210.18C211.39 4.6 212.6 3.85 212.6 2.31C212.6 0.77 211.37 0 210.18 0H201.57C200.11 0 199.33 0.59 198.6 1.48C198.6 1.48 191.97 9.65 191.26 10.42C190.35 11.41 189.9 11.76 188.3 11.76H183.55C182.36 11.76 181.13 12.54 181.13 14.09C181.13 15.64 182.34 16.39 183.55 16.39H188.3C189.89 16.39 190.35 16.74 191.26 17.73C191.53 18.03 192.66 19.4 193.96 20.98L196.88 17.4C196.05 16.39 195.43 15.62 195.41 15.59L195.4 15.6Z" fill="#EF7800"/>
<path d="M210.18 11.7702H205.43C203.84 11.7702 203.38 11.4202 202.47 10.4302C202.2 10.1402 201.07 8.76018 199.77 7.18018L196.85 10.7602C197.68 11.7802 198.3 12.5402 198.31 12.5602C198.81 13.1202 199.06 13.6402 199.06 14.0802C199.06 14.5202 198.83 15.0202 198.31 15.6002C198.26 15.6602 193.49 21.5302 192.66 22.5402C192.07 23.2602 191.7 23.5602 190.93 23.5602H183.54C182.33 23.5602 181.12 24.3102 181.12 25.8402C181.12 27.3702 182.35 28.1502 183.54 28.1502H192.15C193.6 28.1502 194.39 27.5602 195.12 26.6702C195.12 26.6702 201.76 18.5002 202.46 17.7302C203.37 16.7402 203.83 16.3902 205.42 16.3902H210.17C211.38 16.3902 212.59 15.6402 212.59 14.0902C212.59 12.5402 211.36 11.7602 210.17 11.7602L210.18 11.7702Z" fill="white"/>
</g>
<defs>
<clipPath id="clip0_2216_5312">
<rect width="212.6" height="28.35" fill="white"/>
</clipPath>
</defs>
</svg>
