<svg width="94" height="29" viewBox="0 0 94 29" fill="none" xmlns="http://www.w3.org/2000/svg">
<path d="M24.4801 6.80431L19.1161 24.0003H17.0281L12.6721 10.8843C12.6321 10.7563 12.5921 10.6203 12.5521 10.4763C12.5201 10.3323 12.4841 10.1803 12.4441 10.0203C12.4041 10.1803 12.3641 10.3323 12.3241 10.4763C12.2841 10.6203 12.2441 10.7563 12.2041 10.8843L7.82407 24.0003H5.73607L0.37207 6.80431H2.30407C2.51207 6.80431 2.68407 6.85631 2.82007 6.96031C2.96407 7.06431 3.05607 7.19631 3.09607 7.35631L6.64807 19.3083C6.70407 19.5243 6.75607 19.7563 6.80407 20.0043C6.86007 20.2523 6.91207 20.5163 6.96007 20.7963C7.01607 20.5163 7.07207 20.2523 7.12807 20.0043C7.19207 19.7483 7.26007 19.5163 7.33207 19.3083L11.3761 7.35631C11.4241 7.22031 11.5161 7.09631 11.6521 6.9843C11.7961 6.86431 11.9681 6.80431 12.1681 6.80431H12.8401C13.0481 6.80431 13.2161 6.85631 13.3441 6.96031C13.4721 7.06431 13.5681 7.19631 13.6321 7.35631L17.6641 19.3083C17.7361 19.5163 17.8001 19.7403 17.8561 19.9803C17.9201 20.2203 17.9801 20.4723 18.0361 20.7363C18.0761 20.4723 18.1201 20.2203 18.1681 19.9803C18.2161 19.7403 18.2681 19.5163 18.3241 19.3083L21.8881 7.35631C21.9281 7.21231 22.0161 7.08431 22.1521 6.97231C22.2961 6.86031 22.4681 6.80431 22.6681 6.80431H24.4801Z" fill="white"/>
<path d="M37.6478 22.1043L37.6358 24.0003H27.0398V6.80431H37.6358V8.7003H29.3678V14.4123H36.0638V16.2363H29.3678V22.1043H37.6478Z" fill="white"/>
<path d="M58.7834 6.80431V24.0003H56.7434V11.3643C56.7434 11.1963 56.7474 11.0163 56.7554 10.8243C56.7714 10.6323 56.7874 10.4363 56.8034 10.2363L50.8994 20.9883C50.7154 21.3483 50.4354 21.5283 50.0594 21.5283H49.7234C49.3474 21.5283 49.0674 21.3483 48.8834 20.9883L42.8594 10.1883C42.9074 10.6123 42.9314 11.0043 42.9314 11.3643V24.0003H40.8914V6.80431H42.6074C42.8154 6.80431 42.9754 6.82431 43.0874 6.86431C43.1994 6.9043 43.3074 7.0163 43.4114 7.2003L49.3514 17.7843C49.4474 17.9763 49.5394 18.1763 49.6274 18.3843C49.7234 18.5923 49.8114 18.8043 49.8914 19.0203C49.9714 18.8043 50.0554 18.5923 50.1434 18.3843C50.2314 18.1683 50.3274 17.9643 50.4314 17.7723L56.2634 7.2003C56.3594 7.0163 56.4634 6.9043 56.5754 6.86431C56.6954 6.82431 56.8594 6.80431 57.0674 6.80431H58.7834Z" fill="white"/>
<path d="M79.0684 15.4083C79.0684 16.6963 78.8644 17.8803 78.4564 18.9603C78.0484 20.0323 77.4724 20.9563 76.7284 21.7323C75.9844 22.5083 75.0884 23.1123 74.0404 23.5443C73.0004 23.9683 71.8484 24.1803 70.5844 24.1803C69.3204 24.1803 68.1684 23.9683 67.1284 23.5443C66.0884 23.1123 65.1964 22.5083 64.4524 21.7323C63.7084 20.9563 63.1324 20.0323 62.7244 18.9603C62.3164 17.8803 62.1124 16.6963 62.1124 15.4083C62.1124 14.1203 62.3164 12.9403 62.7244 11.8683C63.1324 10.7883 63.7084 9.86031 64.4524 9.08431C65.1964 8.30031 66.0884 7.69231 67.1284 7.2603C68.1684 6.8283 69.3204 6.6123 70.5844 6.6123C71.8484 6.6123 73.0004 6.8283 74.0404 7.2603C75.0884 7.69231 75.9844 8.30031 76.7284 9.08431C77.4724 9.86031 78.0484 10.7883 78.4564 11.8683C78.8644 12.9403 79.0684 14.1203 79.0684 15.4083ZM76.6804 15.4083C76.6804 14.3523 76.5364 13.4043 76.2484 12.5643C75.9604 11.7243 75.5524 11.0163 75.0244 10.4403C74.4964 9.85631 73.8564 9.40831 73.1044 9.0963C72.3524 8.78431 71.5124 8.62831 70.5844 8.62831C69.6644 8.62831 68.8284 8.78431 68.0764 9.0963C67.3244 9.40831 66.6804 9.85631 66.1444 10.4403C65.6164 11.0163 65.2084 11.7243 64.9204 12.5643C64.6324 13.4043 64.4884 14.3523 64.4884 15.4083C64.4884 16.4643 64.6324 17.4123 64.9204 18.2523C65.2084 19.0843 65.6164 19.7923 66.1444 20.3763C66.6804 20.9523 67.3244 21.3963 68.0764 21.7083C68.8284 22.0123 69.6644 22.1643 70.5844 22.1643C71.5124 22.1643 72.3524 22.0123 73.1044 21.7083C73.8564 21.3963 74.4964 20.9523 75.0244 20.3763C75.5524 19.7923 75.9604 19.0843 76.2484 18.2523C76.5364 17.4123 76.6804 16.4643 76.6804 15.4083Z" fill="white"/>
<path d="M91.1952 9.4923C91.1232 9.61231 91.0432 9.70431 90.9552 9.7683C90.8752 9.82431 90.7752 9.85231 90.6552 9.85231C90.5192 9.85231 90.3592 9.78431 90.1752 9.6483C89.9912 9.51231 89.7592 9.36431 89.4792 9.20431C89.2072 9.03631 88.8752 8.88431 88.4832 8.74831C88.0992 8.61231 87.6312 8.5443 87.0792 8.5443C86.5592 8.5443 86.0992 8.6163 85.6992 8.7603C85.3072 8.89631 84.9752 9.08431 84.7032 9.32431C84.4392 9.56431 84.2392 9.84831 84.1032 10.1763C83.9672 10.4963 83.8992 10.8443 83.8992 11.2203C83.8992 11.7003 84.0152 12.1003 84.2472 12.4203C84.4872 12.7323 84.7992 13.0003 85.1832 13.2243C85.5752 13.4483 86.0152 13.6443 86.5032 13.8123C86.9992 13.9723 87.5032 14.1403 88.0152 14.3163C88.5352 14.4923 89.0392 14.6923 89.5272 14.9163C90.0232 15.1323 90.4632 15.4083 90.8472 15.7443C91.2392 16.0803 91.5512 16.4923 91.7832 16.9803C92.0232 17.4683 92.1432 18.0683 92.1432 18.7803C92.1432 19.5323 92.0152 20.2403 91.7592 20.9043C91.5032 21.5603 91.1272 22.1323 90.6312 22.6203C90.1432 23.1083 89.5392 23.4923 88.8192 23.7723C88.1072 24.0523 87.2952 24.1923 86.3832 24.1923C85.2632 24.1923 84.2472 23.9923 83.3352 23.5923C82.4232 23.1843 81.6432 22.6363 80.9952 21.9483L81.6672 20.8443C81.7312 20.7563 81.8072 20.6843 81.8952 20.6283C81.9912 20.5643 82.0952 20.5323 82.2072 20.5323C82.3112 20.5323 82.4272 20.5763 82.5552 20.6643C82.6912 20.7443 82.8432 20.8483 83.0112 20.9763C83.1792 21.1043 83.3712 21.2443 83.5872 21.3963C83.8032 21.5483 84.0472 21.6883 84.3192 21.8163C84.5992 21.9443 84.9152 22.0523 85.2672 22.1403C85.6192 22.2203 86.0152 22.2603 86.4552 22.2603C87.0072 22.2603 87.4992 22.1843 87.9312 22.0323C88.3632 21.8803 88.7272 21.6683 89.0232 21.3963C89.3272 21.1163 89.5592 20.7843 89.7192 20.4003C89.8792 20.0163 89.9592 19.5883 89.9592 19.1163C89.9592 18.5963 89.8392 18.1723 89.5992 17.8443C89.3672 17.5083 89.0592 17.2283 88.6752 17.0043C88.2912 16.7803 87.8512 16.5923 87.3552 16.4403C86.8592 16.2803 86.3552 16.1203 85.8432 15.9603C85.3312 15.7923 84.8272 15.6003 84.3312 15.3843C83.8352 15.1683 83.3952 14.8883 83.0112 14.5443C82.6272 14.2003 82.3152 13.7723 82.0752 13.2603C81.8432 12.7403 81.7272 12.1003 81.7272 11.3403C81.7272 10.7323 81.8432 10.1443 82.0752 9.57631C82.3152 9.00831 82.6592 8.50431 83.1072 8.06431C83.5632 7.62431 84.1192 7.27231 84.7752 7.00831C85.4392 6.74431 86.1992 6.6123 87.0552 6.6123C88.0152 6.6123 88.8872 6.76431 89.6712 7.06831C90.4632 7.37231 91.1592 7.81231 91.7592 8.3883L91.1952 9.4923Z" fill="white"/>
</svg>
