<svg width="125" height="50" viewBox="0 0 125 50" fill="none" xmlns="http://www.w3.org/2000/svg">
<path d="M80.6912 40.9119C80.6912 41.469 80.4892 41.9036 80.0849 42.2155C79.6807 42.5273 79.1321 42.6832 78.4392 42.6832C77.6887 42.6832 77.1112 42.5863 76.7069 42.3929V41.6826C76.9669 41.7924 77.25 41.8791 77.5557 41.9425C77.8617 42.006 78.165 42.0377 78.4652 42.0377C78.9561 42.0377 79.3256 41.9446 79.5739 41.7583C79.8226 41.5721 79.9464 41.3128 79.9464 40.9808C79.9464 40.7615 79.9024 40.5817 79.8144 40.4415C79.7261 40.3013 79.579 40.1723 79.3726 40.0539C79.1662 39.9356 78.8524 39.8012 78.4304 39.6511C77.8412 39.4402 77.4206 39.1905 77.1681 38.9019C76.9153 38.6133 76.7891 38.2363 76.7891 37.7717C76.7891 37.2838 76.9727 36.8953 77.3391 36.6067C77.7058 36.318 78.1909 36.1734 78.7944 36.1734C79.4241 36.1734 80.0027 36.2887 80.5312 36.52L80.3016 37.161C79.7793 36.9417 79.271 36.8318 78.777 36.8318C78.3871 36.8318 78.0828 36.9157 77.8631 37.0829C77.6437 37.2504 77.5338 37.4827 77.5338 37.7802C77.5338 37.9996 77.5744 38.1793 77.655 38.3196C77.7358 38.4598 77.8723 38.588 78.0643 38.7051C78.2561 38.8221 78.5501 38.9514 78.9455 39.0926C79.6097 39.3294 80.0665 39.5835 80.3166 39.8547C80.566 40.1259 80.6912 40.4787 80.6912 40.9119Z" fill="#686D6E"/>
<path d="M87.5442 39.4222C87.5442 40.4357 87.288 41.2326 86.7756 41.8129C86.2628 42.3932 85.5505 42.6835 84.6379 42.6835C83.7056 42.6835 82.9858 42.3983 82.4792 41.8283C81.9726 41.2582 81.7188 40.4531 81.7188 39.4136C81.7188 38.383 81.9729 37.5837 82.4809 37.0164C82.9892 36.4491 83.7107 36.1652 84.6465 36.1652C85.556 36.1652 86.2662 36.4538 86.7773 37.0314C87.2883 37.609 87.5438 38.4059 87.5438 39.4222H87.5442ZM82.4986 39.4222C82.4986 40.2798 82.6811 40.93 83.0465 41.3732C83.4115 41.8163 83.9423 42.0381 84.6379 42.0381C85.3397 42.0381 85.8695 41.8173 86.2273 41.3756C86.5856 40.9338 86.7643 40.2825 86.7643 39.4222C86.7643 38.5703 86.5862 37.9242 86.2297 37.4841C85.8729 37.0437 85.3455 36.8236 84.6465 36.8236C83.9475 36.8236 83.4115 37.045 83.0465 37.4885C82.6811 37.9317 82.4986 38.5761 82.4986 39.4222Z" fill="#686D6E"/>
<path d="M89.0185 42.5969V36.2648H89.7547V41.9296H92.548V42.5965H89.0182L89.0185 42.5969Z" fill="#686D6E"/>
<path d="M98.4656 36.2648V40.362C98.4656 41.0839 98.2476 41.6512 97.8116 42.064C97.3756 42.4768 96.7766 42.6832 96.0141 42.6832C95.2516 42.6832 94.6621 42.4754 94.2446 42.0596C93.8273 41.6437 93.6189 41.0719 93.6189 40.3446V36.2648H94.3551V40.3965C94.3551 40.9249 94.4994 41.3305 94.7883 41.6133C95.0773 41.8961 95.5017 42.0377 96.0615 42.0377C96.5954 42.0377 97.0068 41.8955 97.2958 41.6113C97.5847 41.3271 97.729 40.9191 97.729 40.3879V36.2648H98.4652H98.4656Z" fill="#686D6E"/>
<path d="M102.153 42.5969H101.417V36.9188H99.4116V36.2648H104.158V36.9188H102.153V42.5969Z" fill="#686D6E"/>
<path d="M105.173 42.5969V36.2648H105.909V42.5969H105.173Z" fill="#686D6E"/>
<path d="M113.204 39.4222C113.204 40.4357 112.948 41.2326 112.435 41.8129C111.923 42.3932 111.211 42.6835 110.298 42.6835C109.366 42.6835 108.646 42.3983 108.139 41.8283C107.633 41.2582 107.379 40.4531 107.379 39.4136C107.379 38.383 107.633 37.5837 108.141 37.0164C108.649 36.4491 109.371 36.1652 110.307 36.1652C111.216 36.1652 111.926 36.4538 112.437 37.0314C112.948 37.609 113.204 38.4059 113.204 39.4222H113.204ZM108.159 39.4222C108.159 40.2798 108.341 40.93 108.707 41.3732C109.072 41.8163 109.602 42.0381 110.298 42.0381C111 42.0381 111.529 41.8173 111.887 41.3756C112.246 40.9338 112.424 40.2825 112.424 39.4222C112.424 38.5703 112.246 37.9242 111.889 37.4841C111.533 37.0437 111.005 36.8236 110.307 36.8236C109.608 36.8236 109.072 37.045 108.707 37.4885C108.341 37.9317 108.159 38.5761 108.159 39.4222Z" fill="#686D6E"/>
<path d="M119.624 42.5969H118.784L115.323 37.2828H115.289C115.335 37.9064 115.358 38.4782 115.358 38.9978V42.5969H114.678V36.2648H115.51L118.961 41.5574H118.996C118.99 41.4793 118.977 41.2289 118.957 40.8058C118.937 40.3828 118.93 40.0806 118.936 39.8984V36.2648H119.625L119.624 42.5969Z" fill="#686D6E"/>
<path d="M125 40.9119C125 41.469 124.798 41.9036 124.394 42.2155C123.99 42.5273 123.441 42.6832 122.748 42.6832C121.998 42.6832 121.42 42.5863 121.016 42.3929V41.6826C121.276 41.7924 121.559 41.8791 121.865 41.9425C122.171 42.006 122.474 42.0377 122.774 42.0377C123.265 42.0377 123.634 41.9446 123.883 41.7583C124.131 41.5721 124.255 41.3128 124.255 40.9808C124.255 40.7615 124.211 40.5817 124.123 40.4415C124.035 40.3013 123.888 40.1723 123.681 40.0539C123.475 39.9356 123.161 39.8012 122.739 39.6511C122.15 39.4402 121.729 39.1905 121.477 38.9019C121.224 38.6133 121.098 38.2363 121.098 37.7717C121.098 37.2838 121.281 36.8953 121.648 36.6067C122.015 36.318 122.5 36.1734 123.103 36.1734C123.733 36.1734 124.312 36.2887 124.84 36.52L124.61 37.161C124.088 36.9417 123.58 36.8318 123.086 36.8318C122.696 36.8318 122.392 36.9157 122.172 37.0829C121.952 37.2501 121.843 37.4827 121.843 37.7802C121.843 37.9996 121.883 38.1793 121.964 38.3196C122.045 38.4598 122.181 38.588 122.373 38.7051C122.565 38.8221 122.859 38.9514 123.254 39.0926C123.918 39.3294 124.375 39.5835 124.625 39.8547C124.875 40.1259 125 40.4787 125 40.9119Z" fill="#686D6E"/>
<path d="M22.2503 15.5762L18.9613 30.5297H13.7666L12.2922 23.8354C12.0363 22.6772 11.846 21.7967 11.7232 21.1918L11.4625 19.8774L11.2009 18.5636H11.0944L10.8328 19.8774L10.5721 21.2072C10.4582 21.7912 10.2743 22.6666 10.0181 23.8354L8.54369 30.5297H3.27228L0 15.5762H3.54929L4.96267 22.5056C5.13631 23.3707 5.31166 24.2986 5.48496 25.2897L5.73195 26.6822L5.99259 28.0745H6.05399L6.36103 26.6822L6.65305 25.2897C6.80725 24.5907 7.01671 23.6685 7.28315 22.5202L8.8804 15.5762H13.3685L14.9661 22.5202C15.2622 23.8241 15.4734 24.7483 15.5962 25.2897L15.8882 26.6822L16.1803 28.0745H16.2567L16.519 26.6822L16.7646 25.2897C16.94 24.3304 17.1177 23.4021 17.3037 22.5056L18.7317 15.5762H22.2513H22.2503ZM27.3972 21.5046C27.3972 20.0657 27.5916 19.132 27.9809 18.7038C28.3807 18.2771 29.2353 18.0628 30.547 18.0628C31.8989 18.0628 32.7743 18.2405 33.1745 18.5947C33.5846 18.9505 33.7896 19.7218 33.7896 20.9107L33.8046 21.505L27.3972 21.5046ZM33.7746 25.7444C33.7729 26.6935 33.5784 27.3151 33.1892 27.6067C32.7999 27.8865 31.9604 28.027 30.6695 28.027C29.339 28.027 28.4462 27.7845 27.9955 27.2922C27.5555 26.8027 27.3354 25.8222 27.3354 24.3522C27.3354 24.2471 27.3443 24.0284 27.3654 23.6948H37.3072V22.599C37.3072 19.7423 36.8626 17.8288 35.9702 16.8579C35.0781 15.8791 33.3222 15.3879 30.7008 15.3879C27.9645 15.3879 26.1261 15.8897 25.1845 16.8893C24.2416 17.8909 23.7698 19.8463 23.7698 22.7563C23.7698 26.0306 24.2204 28.1744 25.1231 29.1862C26.0241 30.1981 27.9341 30.7026 30.8537 30.7026C35.1562 30.7026 37.3075 29.2429 37.3075 26.324V25.7444H33.7746ZM40.6176 30.53H44.1355V21.6619C44.1355 19.3769 45.3197 18.2347 47.6866 18.2347C49.2435 18.2354 50.1029 18.7932 50.2677 19.9088L50.3454 20.9564V30.53H53.8637V20.3475C53.8637 17.0517 52.1273 15.4036 48.6554 15.4036C46.2677 15.4036 44.7315 16.3066 44.0445 18.1099L43.968 18.0945L44.1059 15.5762H40.6176V30.53ZM62.4159 15.5762V12.2292H58.8977V15.5762H55.9215V18.2982H58.8977V30.53H62.4159V18.2982H65.215V15.5762H62.4159ZM67.7006 30.53H71.2182V21.723C71.2182 19.3564 72.0898 18.172 73.8303 18.172C74.3509 18.172 74.7596 18.3173 75.0564 18.6059L75.0445 15.3411C73.2419 15.3411 71.9203 16.1234 71.0814 17.6875L71.0033 17.6719L71.2185 15.5759H67.701L67.7006 30.53ZM83.4637 18.2347C84.9067 18.2347 85.8281 18.5005 86.2283 19.0327C86.6285 19.5639 86.827 20.7845 86.827 22.6935C86.827 24.9564 86.6326 26.3847 86.2447 26.9794C85.8643 27.5733 84.9418 27.8718 83.4783 27.8718C81.9623 27.8718 81.0149 27.5887 80.6345 27.0271C80.2552 26.4629 80.0658 25.0556 80.0658 22.803C80.0658 20.8326 80.2671 19.5802 80.6662 19.0491C81.0654 18.5063 81.9984 18.2347 83.4637 18.2347ZM83.4937 15.4039C80.5735 15.4039 78.678 15.8733 77.8081 16.8118C76.9372 17.7507 76.5012 19.789 76.5012 22.9286C76.5012 26.1934 76.9416 28.3047 77.8228 29.264C78.7142 30.2233 80.6615 30.7026 83.6625 30.7026C86.4279 30.7026 88.2407 30.1879 89.1015 29.1532C89.9618 28.1219 90.393 25.9481 90.393 22.6304C90.393 19.659 89.9526 17.7145 89.0714 16.7961C88.1913 15.8682 86.3307 15.4039 83.4937 15.4039ZM93.3279 30.53H96.8462V21.6619C96.8462 19.3769 98.0299 18.2347 100.395 18.2347C101.953 18.2354 102.813 18.7932 102.978 19.9088L103.054 20.9564V30.53H106.574V20.3475C106.574 17.0517 104.838 15.4036 101.364 15.4036C98.978 15.4036 97.4404 16.3066 96.7547 18.1099L96.678 18.0945L96.8158 15.5762H93.3276L93.3279 30.53ZM110.016 15.5762V30.53H113.535V15.5762H110.016ZM124.732 27.8189C124.443 27.8537 124.113 27.8718 123.744 27.8718C122.206 27.8718 121.239 27.6067 120.84 27.0739C120.45 26.5318 120.255 25.2173 120.255 23.1309C120.255 20.9735 120.435 19.6174 120.793 19.0648C121.152 18.5118 122.034 18.2347 123.437 18.2347C123.929 18.2347 124.362 18.29 124.732 18.3982V15.4442C124.31 15.4176 123.856 15.4025 123.373 15.4025C120.742 15.4039 118.97 15.9252 118.058 16.9681C117.146 18.0116 116.691 20.0329 116.691 23.0378C116.691 26.1142 117.145 28.1635 118.058 29.1859C118.97 30.1977 120.809 30.7023 123.576 30.7023C123.979 30.7023 124.365 30.6904 124.732 30.6661V27.8189ZM111.803 8C110.472 8 109.349 9.13534 109.349 10.4798C109.349 11.8625 110.472 12.9862 111.856 12.9862C113.222 12.9862 114.335 11.8505 114.335 10.4535C114.335 9.09986 113.199 8 111.803 8Z" fill="#C90130"/>
</svg>
