<svg width="177" height="49" viewBox="0 0 177 49" fill="none" xmlns="http://www.w3.org/2000/svg">
<g clip-path="url(#clip0_1_8969)">
<path d="M74.0073 18.1843H77.0259V20.8477H79.4177V22.9822H77.0208V28.1272C76.9983 28.3291 77.02 28.5335 77.0844 28.7262C77.1488 28.9189 77.2543 29.0953 77.3937 29.2431C77.5331 29.3909 77.7029 29.5066 77.8915 29.5822C78.0801 29.6578 78.2828 29.6915 78.4857 29.681C78.7698 29.7001 79.055 29.6701 79.3289 29.5921V31.4552C78.6527 31.6617 77.9493 31.7649 77.2423 31.7614C74.7566 31.7614 74.0022 30.1638 74.0022 28.166V18.1843" fill="white"/>
<path d="M102.018 20.8442H98.9993V31.4608H102.062V25.0653C102.062 23.778 102.727 22.9348 103.971 22.9348C104.243 22.9274 104.513 22.9793 104.763 23.0869C105.013 23.1945 105.237 23.3553 105.419 23.558C105.6 23.7607 105.736 24.0006 105.815 24.2609C105.895 24.5211 105.917 24.7957 105.88 25.0653V31.4608H108.942V24.3558C108.993 23.8454 108.931 23.33 108.76 22.8464C108.589 22.3628 108.313 21.9229 107.952 21.5582C107.591 21.1935 107.154 20.913 106.673 20.7366C106.191 20.5602 105.676 20.4924 105.165 20.5379C104.561 20.4847 103.955 20.6071 103.42 20.8906C102.884 21.1741 102.442 21.6064 102.147 22.1355H102.103V20.8442H102.018Z" fill="white"/>
<path d="M97.9784 20.5369C95.2222 20.5369 94.5607 22.0906 94.383 22.5785H94.3422V20.8431H91.5859V31.4598H94.6484V26.1739C94.6156 25.7342 94.6803 25.2927 94.8379 24.8809C94.9955 24.4691 95.2422 24.0973 95.5603 23.7919C95.8783 23.4865 96.2599 23.2552 96.6778 23.1144C97.0956 22.9737 97.5394 22.927 97.9774 22.9777L97.9784 20.5369Z" fill="white"/>
<path d="M70.5006 23.8222L72.4534 22.4951C72.187 22.051 71.1662 20.4973 68.1037 20.4973C65.8395 20.4973 63.9315 21.6519 63.9315 23.7374C63.9315 25.6464 65.3076 26.5784 66.8613 27.0664C67.3054 27.1991 67.7933 27.3328 68.1884 27.4655C69.0316 27.732 69.6533 27.9535 69.6533 28.5752C69.6533 29.1519 69.0316 29.5521 67.9179 29.5521C67.4563 29.5754 66.9972 29.4718 66.5903 29.2526C66.1834 29.0334 65.8443 28.707 65.6098 28.3087L63.5681 29.4633C63.7457 29.9513 64.8554 31.7275 68.1404 31.7275C70.6262 31.7275 72.7127 30.6617 72.7127 28.3587C72.7127 26.4059 71.3366 25.5178 69.6941 25.0298C69.3009 24.8911 68.9009 24.7725 68.4957 24.6746C67.7413 24.453 66.9869 24.2305 66.9869 23.5649C66.9869 23.032 67.4749 22.7217 68.363 22.7217C68.7866 22.6865 69.2116 22.771 69.5895 22.9656C69.9674 23.1601 70.2831 23.4569 70.5006 23.8222Z" fill="white"/>
<path d="M50.3922 16.2314L47.5962 27.0625L44.8399 16.2314H41.022L38.181 27.3728L35.3441 16.2314H32.104L36.0546 31.4572H40.0941L42.8503 20.671L45.6066 31.4572H49.4245L53.3751 16.2314H50.3922Z" fill="white"/>
<path d="M62.9545 26.13C62.9545 23.3339 61.312 20.5369 57.7166 20.5369C54.4765 20.5369 52.4338 22.9787 52.4338 26.13C52.4338 29.2813 54.4316 31.7232 57.8442 31.7232C58.7246 31.798 59.6077 31.616 60.3868 31.1993C61.1658 30.7826 61.8074 30.149 62.2338 29.3752L60.1922 28.1768C59.9849 28.6039 59.654 28.9589 59.2424 29.1955C58.8308 29.4322 58.3575 29.5396 57.8841 29.5039C57.5659 29.4972 57.2523 29.4273 56.9615 29.2983C56.6706 29.1693 56.4083 28.9837 56.1899 28.7524C55.9714 28.5211 55.8011 28.2487 55.6888 27.9509C55.5766 27.6532 55.5247 27.3361 55.5362 27.0181H63.0383C62.9545 27.062 62.9545 26.1739 62.9545 26.13ZM55.4963 24.9754C55.629 23.777 56.2507 22.7112 57.7156 22.7112C58.0113 22.7096 58.3043 22.7675 58.5772 22.8812C58.8502 22.995 59.0975 23.1625 59.3045 23.3737C59.5114 23.5848 59.6739 23.8354 59.7822 24.1106C59.8905 24.3857 59.9424 24.6798 59.9349 24.9754H55.4963Z" fill="white"/>
<path d="M90.166 26.13C90.166 23.3339 88.5235 20.5369 84.9281 20.5369C81.688 20.5369 79.6453 22.9787 79.6453 26.13C79.6453 29.2813 81.643 31.7232 85.0557 31.7232C85.936 31.798 86.8191 31.616 87.5982 31.1993C88.3773 30.7826 89.0188 30.149 89.4453 29.3752L87.4036 28.1768C87.1963 28.6039 86.8654 28.9589 86.4538 29.1955C86.0422 29.4322 85.5689 29.5396 85.0955 29.5039C84.7774 29.4972 84.4638 29.4273 84.1729 29.2983C83.8821 29.1693 83.6198 28.9837 83.4013 28.7524C83.1828 28.5211 83.0125 28.2487 82.9003 27.9509C82.788 27.6532 82.7361 27.3361 82.7476 27.0181H90.2497C90.166 27.062 90.166 26.1739 90.166 26.13ZM82.7078 24.9754C82.8405 23.777 83.4622 22.7112 84.9271 22.7112C85.2228 22.7096 85.5158 22.7675 85.7887 22.8812C86.0616 22.995 86.3089 23.1625 86.5159 23.3737C86.7229 23.5848 86.8854 23.8354 86.9937 24.1106C87.102 24.3857 87.1539 24.6798 87.1464 24.9754H82.7078Z" fill="white"/>
<path d="M151.334 18.1843H154.353V20.8477H156.745V22.9822H154.348V28.1272C154.325 28.3291 154.347 28.5335 154.411 28.7262C154.476 28.9189 154.581 29.0953 154.721 29.2431C154.86 29.3909 155.03 29.5066 155.218 29.5822C155.407 29.6578 155.61 29.6915 155.813 29.681C156.097 29.7001 156.382 29.6701 156.656 29.5921V31.4552C155.98 31.6617 155.276 31.7649 154.569 31.7614C152.084 31.7614 151.329 30.1638 151.329 28.166V18.1843" fill="white"/>
<path d="M119.951 16.2314H114.757V31.4572H119.951C124.79 31.4572 127.674 29.1491 127.674 23.8224C127.63 18.5396 124.659 16.2314 119.951 16.2314ZM119.729 28.9265H117.994V18.7621H119.729C123.68 18.7621 124.257 21.4254 124.257 23.8663C124.301 26.2632 123.724 28.9265 119.728 28.9265H119.729Z" fill="white"/>
<path d="M172.152 16.2314H169.001V31.4572H172.152V16.2314Z" fill="white"/>
<path d="M175.127 29.1489C174.872 29.1489 174.623 29.2244 174.412 29.3659C174.2 29.5073 174.035 29.7084 173.938 29.9436C173.84 30.1788 173.815 30.4376 173.864 30.6873C173.914 30.937 174.037 31.1664 174.217 31.3464C174.397 31.5265 174.626 31.6491 174.876 31.6987C175.125 31.7484 175.384 31.7229 175.619 31.6255C175.855 31.528 176.056 31.3631 176.197 31.1514C176.339 30.9397 176.414 30.6908 176.414 30.4362C176.414 30.0949 176.278 29.7676 176.037 29.5263C175.795 29.2849 175.468 29.1492 175.127 29.1489ZM175.127 31.5458C174.916 31.5468 174.71 31.4853 174.534 31.369C174.358 31.2527 174.221 31.0868 174.139 30.8924C174.057 30.698 174.035 30.4838 174.076 30.2768C174.116 30.0699 174.217 29.8795 174.365 29.7298C174.513 29.58 174.703 29.4777 174.909 29.4357C175.116 29.3937 175.33 29.4139 175.526 29.4938C175.721 29.5737 175.888 29.7097 176.006 29.8845C176.123 30.0593 176.187 30.2652 176.188 30.476C176.185 30.7573 176.073 31.0266 175.875 31.2264C175.676 31.4262 175.408 31.5408 175.127 31.5458Z" fill="white"/>
<path d="M175.615 30.7467C175.619 30.6778 175.6 30.6095 175.559 30.5536C175.519 30.4977 175.46 30.4577 175.393 30.4404C175.472 30.4219 175.542 30.3761 175.591 30.3112C175.64 30.2462 175.664 30.1662 175.66 30.0852C175.66 29.7789 175.438 29.686 175.127 29.686H174.638V31.1948H174.904V30.5691H175.082C175.26 30.5691 175.348 30.6579 175.388 30.9243C175.396 31.0143 175.411 31.1034 175.433 31.1907H175.7C175.659 31.1897 175.615 30.9243 175.615 30.7467ZM175.127 30.3475H174.905V29.9035H175.127C175.191 29.8989 175.255 29.9193 175.305 29.9606C175.354 30.0019 175.386 30.0608 175.393 30.125C175.392 30.2577 175.304 30.3465 175.126 30.3465L175.127 30.3475Z" fill="white"/>
<path d="M141.169 20.8434V21.998H141.125C140.824 21.5133 140.396 21.1204 139.887 20.8621C139.379 20.6038 138.809 20.49 138.24 20.5331C135 20.5331 133.802 23.1964 133.802 25.9037C133.802 28.6109 135 31.2304 138.24 31.2304C138.811 31.2886 139.386 31.1814 139.898 30.9217C140.409 30.6619 140.835 30.2606 141.125 29.7655H141.169V31.0088C141.187 31.3149 141.142 31.6214 141.036 31.9091C140.93 32.1967 140.765 32.4592 140.552 32.6799C140.339 32.9006 140.083 33.0747 139.799 33.1912C139.516 33.3077 139.211 33.3641 138.905 33.3568C138.441 33.3647 137.983 33.2498 137.577 33.0237C137.172 32.7977 136.834 32.4685 136.597 32.0695C136.33 32.2022 134.555 33.268 134.555 33.268C134.776 33.712 135.665 35.6159 138.993 35.6159C142.5 35.6159 144.187 33.3966 144.187 30.2442V20.8434H141.169ZM139.127 28.9662C137.392 28.9662 137.086 27.2797 137.086 25.9037C137.086 24.3499 137.53 22.8412 139.127 22.8412C140.725 22.8412 141.169 24.3499 141.169 25.9037C141.169 27.2399 140.814 28.9713 139.127 28.9713V28.9662Z" fill="white"/>
<path d="M161.854 20.5374C161.059 20.4846 160.264 20.6268 159.537 20.9517C158.809 21.2766 158.173 21.7742 157.682 22.4014L159.457 23.7285C159.705 23.3872 160.033 23.1117 160.413 22.926C160.792 22.7402 161.21 22.6499 161.632 22.6627C163.008 22.6627 163.852 23.3283 163.852 24.4829V24.7044H162.525C159.417 24.7044 157.42 25.859 157.42 28.2559C157.464 28.9914 157.73 29.6963 158.183 30.2773C158.636 30.8583 159.255 31.2879 159.958 31.5093C160.66 31.7307 161.414 31.7334 162.118 31.517C162.823 31.3006 163.444 30.8753 163.902 30.2975H163.946V31.3684H166.919V24.7544C166.914 21.6919 164.473 20.5374 161.854 20.5374ZM163.852 27.2402C163.852 28.4835 163.319 29.5881 161.988 29.5881C161.79 29.6079 161.59 29.5858 161.402 29.5233C161.213 29.4608 161.04 29.3592 160.894 29.2252C160.747 29.0912 160.63 28.9278 160.551 28.7456C160.472 28.5635 160.432 28.3667 160.434 28.1681C160.434 27.28 161.056 26.6144 162.653 26.6144H163.852V27.2402Z" fill="white"/>
<path d="M132.379 20.8479H129.228V31.4574H132.379V20.8479Z" fill="white"/>
<path d="M130.826 19.3379C131.757 19.3379 132.512 18.5829 132.512 17.6515C132.512 16.7201 131.757 15.9651 130.826 15.9651C129.894 15.9651 129.139 16.7201 129.139 17.6515C129.139 18.5829 129.894 19.3379 130.826 19.3379Z" fill="white"/>
<path d="M149.38 20.8479H146.229V31.4574H149.38V20.8479Z" fill="white"/>
<path d="M147.827 19.3379C148.758 19.3379 149.513 18.5829 149.513 17.6515C149.513 16.7201 148.758 15.9651 147.827 15.9651C146.895 15.9651 146.14 16.7201 146.14 17.6515C146.14 18.5829 146.895 19.3379 147.827 19.3379Z" fill="white"/>
<path d="M20.2073 16.2322H23.7587C24.1692 16.2372 24.5615 16.4025 24.8518 16.6928C25.1421 16.9831 25.3074 17.3754 25.3124 17.7859V21.3364C25.3121 21.6396 25.2225 21.9361 25.0549 22.1888C24.8873 22.4415 24.649 22.6394 24.3698 22.7576C24.0905 22.8759 23.7827 22.9095 23.4845 22.854C23.1863 22.7986 22.9111 22.6567 22.693 22.446L19.1415 18.8945C18.9166 18.6822 18.7608 18.4071 18.6943 18.1051C18.6278 17.803 18.6537 17.4879 18.7686 17.2008C18.8836 16.9136 19.0822 16.6677 19.3388 16.495C19.5954 16.3222 19.898 16.2307 20.2073 16.2322Z" fill="#5DA7FB"/>
<path d="M12.3948 24.799H9.86517C9.50901 24.8013 9.15593 24.7329 8.82644 24.5976C8.49693 24.4624 8.19757 24.2631 7.94572 24.0112C7.69387 23.7594 7.49454 23.46 7.3593 23.1305C7.22407 22.801 7.15562 22.4479 7.15792 22.0918V17.7859C7.15289 17.3752 6.98744 16.9828 6.69692 16.6925C6.40641 16.4021 6.01388 16.2369 5.60319 16.2322H2.05274C1.74948 16.2325 1.45302 16.3221 1.2003 16.4897C0.947575 16.6574 0.749748 16.8956 0.631458 17.1749C0.513168 17.4541 0.479641 17.762 0.535054 18.0601C0.590467 18.3583 0.732369 18.6335 0.943089 18.8516L2.32224 20.2277L4.18628 22.0918L4.23017 22.1357L4.53642 22.4419L9.5528 27.4134L9.99686 27.8574L10.1296 27.9901L11.9936 29.8542L13.1033 31.0087C13.3187 31.2265 13.5945 31.3747 13.8951 31.434C14.1956 31.4934 14.507 31.4613 14.7891 31.3418C15.0712 31.2223 15.3109 31.0209 15.4774 30.7637C15.6438 30.5066 15.7293 30.2054 15.7227 29.8991V26.3527C15.7177 25.9422 15.5524 25.5499 15.2621 25.2596C14.9718 24.9694 14.5795 24.804 14.169 24.799H12.3948Z" fill="#FC1859"/>
<path d="M21.9824 24.799H19.4528C19.0967 24.8013 18.7436 24.7329 18.4141 24.5976C18.0846 24.4624 17.7852 24.2631 17.5334 24.0112C17.2815 23.7594 17.0822 23.46 16.947 23.1305C16.8117 22.801 16.7433 22.4479 16.7456 22.0918V17.7859C16.7405 17.3752 16.5751 16.9828 16.2846 16.6925C15.9941 16.4021 15.6015 16.2369 15.1908 16.2322H11.6404C11.3371 16.2325 11.0407 16.3221 10.7879 16.4897C10.5352 16.6574 10.3374 16.8956 10.2191 17.1749C10.1008 17.4541 10.0673 17.762 10.1227 18.0601C10.1781 18.3583 10.32 18.6335 10.5307 18.8516L11.9099 20.2277L13.7739 22.0918L13.8178 22.1357L14.1241 22.4419L19.1415 27.4613L19.5855 27.9054L19.7182 28.0381L21.5823 29.9022L22.7368 31.0567C22.9523 31.2745 23.2281 31.4226 23.5286 31.482C23.8292 31.5414 24.1406 31.5092 24.4227 31.3897C24.7048 31.2703 24.9445 31.0689 25.1109 30.8117C25.2774 30.5545 25.3628 30.2533 25.3563 29.9471V26.3976C25.3513 25.9871 25.186 25.5949 24.8957 25.3046C24.6054 25.0143 24.2131 24.849 23.8026 24.8439H21.9824V24.799Z" fill="#995DFF"/>
<path d="M27.9756 30.0817H27.4876V31.4578H27.31V30.0817H26.821V29.9041H28.0195V30.0817H27.9756Z" fill="#995DFF"/>
<path d="M28.241 29.9478H28.5074L29.0403 31.1462L29.5681 29.9478H29.8345V31.4566H29.6569V30.1693L29.0801 31.4566H28.9913L28.4584 30.1693V31.4566H28.2808V29.9478H28.241Z" fill="#995DFF"/>
</g>
<defs>
<clipPath id="clip0_1_8969">
<rect width="176.604" height="49" fill="white"/>
</clipPath>
</defs>
</svg>
