<svg width="125" height="50" viewBox="0 0 125 50" fill="none" xmlns="http://www.w3.org/2000/svg">
<g clip-path="url(#clip0_40_44)">
<path d="M41.8252 20.9401C41.5147 22.0389 41.1942 23.1376 40.8938 24.2388C40.0331 27.3725 39.1825 30.5088 38.3243 33.6425C38.0845 34.5154 37.5772 34.9899 36.8856 35.0026C36.2015 35.0153 35.6664 34.5585 35.4241 33.6856C34.0788 28.8163 32.7435 23.9419 31.4032 19.0701C31.2417 18.4839 31.0574 17.9054 30.906 17.3167C30.6611 16.3652 31.0675 15.5786 31.8954 15.3654C32.8142 15.1294 33.5134 15.5532 33.7658 16.5555C34.8082 20.7042 35.8355 24.8579 36.9789 29.0447C37.1758 28.357 37.3752 27.6694 37.5671 26.9818C38.5388 23.4674 39.503 19.9505 40.4799 16.4362C40.7121 15.6039 41.179 15.2081 41.8555 15.1979C42.5824 15.1878 43.0696 15.576 43.3068 16.4311C44.4275 20.4707 45.5356 24.5128 46.6437 28.555C46.6891 28.7199 46.7245 28.8772 46.8784 29.0675C47.3101 27.3522 47.7366 25.6801 48.1531 24.0054C48.7639 21.5415 49.3621 19.0777 49.9705 16.6138C50.1825 15.7536 50.7655 15.2588 51.5051 15.2944C52.2144 15.3274 52.7848 15.8145 52.9287 16.5047C53.0145 16.9209 52.8353 17.2913 52.7318 17.6745C51.2628 23.031 49.7912 28.39 48.3146 33.7465C48.0951 34.5433 47.5902 34.9899 46.9365 35.0026C46.2499 35.0153 45.7375 34.5839 45.5003 33.7415C44.3114 29.4811 43.1276 25.2182 41.9438 20.9579C41.906 20.9528 41.8656 20.9478 41.8277 20.9427L41.8252 20.9401Z" fill="white"/>
<path d="M81.3272 26.1393C81.3272 28.4611 81.3272 30.7854 81.3272 33.1071C81.3272 34.3327 80.8224 34.9899 79.8784 35C78.9091 35.0102 78.3993 34.3479 78.3993 33.0792C78.3993 28.3697 78.3892 23.6603 78.4119 18.9534C78.4144 18.3672 78.2579 18.2073 77.685 18.2276C76.3825 18.2708 75.0801 18.253 73.7777 18.2378C72.8841 18.2276 72.3465 17.8318 72.1698 17.1137C71.9704 16.2967 72.45 15.5202 73.2703 15.3553C73.4748 15.3147 73.6843 15.2944 73.8938 15.2944C77.8642 15.2918 81.8371 15.2918 85.8075 15.2944C86.86 15.2944 87.3598 15.6369 87.5542 16.4692C87.7359 17.2584 87.2664 18.0399 86.4638 18.1617C85.2143 18.352 83.9498 18.2175 82.6902 18.2378C81.3272 18.2581 81.3272 18.2429 81.3272 19.6182V26.1419V26.1393Z" fill="white"/>
<path d="M12.9495 23.178C15.9305 23.178 18.9114 23.178 21.8924 23.178C22.7001 23.178 23.3286 23.4876 23.6744 24.2336C23.9697 24.8705 23.9142 25.5049 23.5002 26.0859C23.0661 26.6949 22.4401 26.8548 21.7334 26.8548C18.3334 26.8497 14.9309 26.8548 11.531 26.8548C9.01193 26.8548 6.49288 26.8624 3.97384 26.8522C3.03992 26.8497 2.40133 26.4006 2.1262 25.6114C1.86874 24.8705 2.06815 24.1296 2.66383 23.6145C3.07021 23.2643 3.54979 23.1755 4.06975 23.178C7.03051 23.1856 9.99128 23.1806 12.9495 23.1806V23.178Z" fill="#0682BB"/>
<path d="M12.947 31.0823C15.9304 31.0823 18.9114 31.0823 21.8949 31.0823C23.056 31.0823 23.8233 31.7851 23.8359 32.8432C23.8485 33.9445 23.0863 34.7336 21.9327 34.7336C15.9254 34.7438 9.91806 34.7438 3.91071 34.7336C2.94398 34.7336 2.23471 34.1399 2.04036 33.2594C1.86872 32.488 2.29024 31.6329 3.01971 31.2472C3.33269 31.0823 3.66083 31.0772 3.99906 31.0797C6.98253 31.0797 9.96349 31.0797 12.947 31.0797V31.0823Z" fill="#065D83"/>
<path d="M12.9117 18.9278C9.8651 18.9278 6.81852 18.9278 3.77194 18.9278C2.98442 18.9278 2.46194 18.5066 2.16157 17.8215C1.85111 17.1187 2.00003 16.4564 2.49727 15.8829C2.86832 15.4541 3.36809 15.2993 3.90824 15.2993C9.91811 15.2942 15.928 15.2892 21.9378 15.2993C22.9349 15.2993 23.687 15.921 23.8208 16.7507C23.9672 17.6642 23.5432 18.4508 22.7254 18.8111C22.3821 18.9634 22.0262 18.9304 21.6728 18.9329C18.7524 18.938 15.8321 18.9354 12.9092 18.9354C12.9092 18.9329 12.9092 18.9304 12.9092 18.9278H12.9117Z" fill="#169FD9"/>
<path d="M122.995 16.7382C123.008 17.2153 122.796 17.5781 122.47 17.9105C120.309 20.0952 118.171 22.3028 115.993 24.4672C115.569 24.8884 115.536 25.0965 115.97 25.5355C118.146 27.7329 120.282 29.9709 122.44 32.1835C122.922 32.6783 123.141 33.234 122.904 33.9014C122.712 34.4419 122.301 34.7489 121.733 34.8225C121.248 34.8859 120.817 34.7463 120.478 34.3835C117.899 31.6126 115.317 28.8418 112.75 26.0582C112.111 25.3655 112.124 24.5992 112.767 23.9141C115.317 21.2016 117.881 18.5043 120.436 15.7968C120.91 15.2919 121.486 15.1777 122.096 15.4112C122.672 15.6319 122.972 16.1064 122.99 16.7382H122.995Z" fill="white"/>
<path d="M111.112 24.9975C111.112 27.7836 111.112 30.5671 111.112 33.3532C111.112 34.3352 110.534 34.9924 109.678 35C108.817 35.0076 108.199 34.3073 108.199 33.3152C108.199 27.7658 108.199 22.2165 108.199 16.6671C108.199 15.6623 108.799 14.995 109.685 15C110.551 15.0076 111.112 15.6445 111.112 16.6417C111.112 19.4278 111.112 22.2114 111.112 24.9975Z" fill="white"/>
<path d="M97.3527 23.5105C99.2205 23.5105 101.088 23.5105 102.956 23.5105C104.052 23.5105 104.67 24.0535 104.668 24.9974C104.668 25.9236 104.034 26.4869 102.949 26.4869C99.2357 26.492 95.5202 26.492 91.8073 26.4869C90.7497 26.4869 90.0581 25.8779 90.0631 24.9898C90.0657 24.1017 90.7623 23.513 91.8149 23.5105C93.6625 23.5105 95.5076 23.5105 97.3552 23.5105H97.3527Z" fill="white"/>
<path d="M97.3703 18.2428C95.5252 18.2428 93.6776 18.2479 91.8324 18.2428C90.8051 18.2377 90.3028 17.8748 90.1211 17.0299C89.9545 16.2636 90.4089 15.5379 91.1711 15.3603C91.3327 15.3222 91.5018 15.2943 91.6659 15.2917C95.4621 15.2867 99.2609 15.2816 103.057 15.2917C104.147 15.2943 104.738 15.9236 104.665 16.9284C104.622 17.5221 104.185 18.0398 103.592 18.1616C103.327 18.2149 103.052 18.2377 102.782 18.2377C100.977 18.2453 99.1725 18.2402 97.3703 18.2402V18.2428Z" fill="white"/>
<path d="M62.3259 23.5106C64.1937 23.5106 66.059 23.5106 67.9268 23.5106C68.9971 23.5106 69.6054 24.0333 69.618 24.9468C69.6306 25.9085 69.0324 26.4845 67.9597 26.487C64.2038 26.4946 60.4505 26.4972 56.6946 26.487C55.5563 26.4819 54.9227 25.7638 55.0817 24.7286C55.2004 23.9547 55.7582 23.5182 56.6618 23.5131C58.5498 23.5055 60.4378 23.5131 62.3259 23.5131V23.5106Z" fill="white"/>
<path d="M62.293 15.2867C64.2063 15.2867 66.117 15.2841 68.0303 15.2867C68.6537 15.2867 69.1914 15.4744 69.4791 16.091C69.7189 16.6036 69.6861 17.1085 69.3883 17.5932C69.0904 18.0753 68.6159 18.2352 68.0959 18.2352C64.2719 18.2453 60.4479 18.2504 56.6214 18.2352C55.6168 18.2301 55.0337 17.6287 55.0489 16.733C55.064 15.8424 55.6648 15.2968 56.6794 15.2892C58.5498 15.2791 60.4201 15.2867 62.2905 15.2867H62.293Z" fill="white"/>
<path d="M62.3561 34.6626C60.4656 34.6626 58.575 34.6296 56.6845 34.6753C55.4957 34.7032 55.0691 33.9394 55.0539 33.2518C55.0312 32.3485 55.6597 31.737 56.687 31.7344C60.4681 31.7217 64.2492 31.7243 68.0303 31.7344C68.6437 31.7344 69.1939 31.9323 69.4741 32.5515C69.7189 33.0869 69.6937 33.6096 69.3504 34.1044C69.0425 34.5459 68.6033 34.6702 68.0884 34.6677C66.1776 34.6575 64.2644 34.6651 62.3536 34.6651L62.3561 34.6626Z" fill="white"/>
<path d="M97.3805 34.6625C95.4899 34.6625 93.5968 34.6345 91.7088 34.6726C90.5477 34.698 90.1161 33.9748 90.0757 33.2364C90.0278 32.3889 90.7143 31.7419 91.6785 31.7368C95.4823 31.7216 99.2836 31.7241 103.087 31.7368C103.756 31.7368 104.322 31.9906 104.574 32.6833C104.786 33.2669 104.685 33.7947 104.264 34.259C103.953 34.6016 103.552 34.665 103.118 34.665C101.207 34.6599 99.2937 34.665 97.383 34.665L97.3805 34.6625Z" fill="white"/>
</g>
<defs>
<clipPath id="clip0_40_44">
<rect width="121" height="20" fill="white" transform="translate(2 15)"/>
</clipPath>
</defs>
</svg>
