<svg width="169" height="24" viewBox="0 0 169 24" fill="none" xmlns="http://www.w3.org/2000/svg">
<path d="M0.956131 23.9785L3.88779 6.87837H11.0462L9.28486 17.7691L15.9182 6.87837H24.1339L22.2289 17.835L29.0624 6.87837H31.6738L21.4071 23.9785H14.0132L16.3444 10.912L8.38064 23.9785H0.956131Z" fill="#D92F16"/>
<path d="M44.8977 6.78182L38.0855 23.9785H31.0118L37.8264 6.78182H44.8977ZM40.306 0.668905H47.2619L45.4958 5.12408H38.5423L40.306 0.668905Z" fill="#D92F16"/>
<path d="M55.0112 11.2031L49.9485 23.9775H42.7901L49.5647 6.87975H64.5573C65.3014 6.87975 65.8948 7.06577 66.3351 7.43311C66.7425 7.73452 67.0062 8.17956 67.1263 8.7659C67.1781 8.98253 67.204 9.23684 67.204 9.52883C67.2055 9.83958 67.1811 10.1499 67.131 10.4566C67.0747 10.8082 66.9961 11.1558 66.8956 11.4974L66.4906 12.6677L62.0071 23.9775H54.9076L59.9561 11.236C60.0244 11.0618 60.0597 10.9158 60.0574 10.798C60.055 10.6803 60.0315 10.5743 59.9891 10.4872C59.9326 10.3789 59.8502 10.3035 59.7419 10.2612C59.6335 10.2171 59.5174 10.1947 59.4004 10.1952H56.3204C56.2015 10.1987 56.0839 10.221 55.9719 10.2612C55.8372 10.3035 55.7112 10.3697 55.5999 10.4566C55.4963 10.5202 55.3903 10.6191 55.2796 10.7486C55.1663 10.8847 55.0757 11.0381 55.0112 11.2031Z" fill="#D92F16"/>
<path d="M83.5912 0.638672L81.1305 6.84813H85.0629H88.993C89.3862 6.84813 89.69 6.86932 89.9066 6.91171C90.1232 6.95409 90.2881 6.99884 90.3987 7.04358C90.5094 7.08832 90.5754 7.12364 90.6013 7.1566C90.6272 7.18957 90.6224 7.20605 90.5824 7.20605C90.7881 7.3087 90.9708 7.45211 91.1193 7.62755C91.2676 7.8018 91.3854 7.99725 91.4749 8.21388C91.6468 8.66835 91.708 9.20994 91.6538 9.83866C91.6053 10.1669 91.5393 10.4923 91.456 10.8135C91.3665 11.1597 91.2465 11.5294 91.0934 11.9202L88.2842 19.0057C88.1313 19.3943 87.9568 19.774 87.7614 20.143C87.5869 20.4711 87.3886 20.7859 87.168 21.0849C86.902 21.4546 86.6312 21.7843 86.3486 22.0786C86.066 22.373 85.7811 22.6131 85.4867 22.8086C85.2042 23.0252 84.924 23.2042 84.6438 23.3455C84.3635 23.4867 84.088 23.5998 83.8196 23.6869C83.4334 23.8164 83.132 23.8988 82.9154 23.9318L82.4209 23.9954C82.3078 24.0048 82.2278 24.0001 82.176 23.9789H74.7114H67.2139L76.461 0.638672H83.5912ZM83.7654 10.1966H80.6548C80.5371 10.1966 80.4099 10.2343 80.2733 10.3096C80.1339 10.3865 80.0036 10.479 79.8848 10.5851C79.7435 10.6958 79.6211 10.8182 79.5151 10.9595C79.4207 11.0851 79.3424 11.2219 79.282 11.3669L76.0372 19.559C75.9871 19.6772 75.9653 19.8054 75.9736 19.9334C75.9877 20.0512 76.016 20.1548 76.0584 20.2396C76.1076 20.34 76.1774 20.4291 76.2632 20.5009C76.3456 20.5669 76.4469 20.5975 76.5623 20.5975H79.6705C79.7925 20.5923 79.9117 20.5593 80.019 20.5009C80.1582 20.4327 80.2867 20.3447 80.4005 20.2396C80.5229 20.1336 80.6313 20.0182 80.7278 19.9005C80.819 19.7868 80.8936 19.6608 80.9492 19.5261L84.194 11.3339C84.2364 11.2256 84.2623 11.1008 84.2693 10.9595C84.2764 10.8182 84.2623 10.6958 84.227 10.5851C84.1916 10.4744 84.1351 10.385 84.0574 10.3096C84.0188 10.2721 83.9731 10.2428 83.9229 10.2234C83.8728 10.2039 83.8192 10.1948 83.7654 10.1966Z" fill="#D92F16"/>
<path d="M113.727 6.87837C114.002 6.87837 114.261 6.90191 114.509 6.9443C114.756 6.98668 114.98 7.05262 115.18 7.13974C115.367 7.21742 115.535 7.33378 115.674 7.48118C115.815 7.63935 115.928 7.82107 116.006 8.01806C116.08 8.26589 116.122 8.52241 116.129 8.781C116.136 9.12512 116.103 9.46888 116.03 9.80531C115.976 10.0455 115.905 10.2975 115.816 10.5682L115.491 11.4631L112.283 19.5563L111.86 20.517L111.4 21.3459C111.207 21.6391 110.997 21.9213 110.772 22.1913C110.55 22.4503 110.329 22.6669 110.103 22.8412C109.893 23.0317 109.664 23.2005 109.42 23.3451C109.178 23.4864 108.942 23.5994 108.711 23.6865C108.415 23.7948 108.116 23.8702 107.814 23.9126C107.513 23.955 107.225 23.9785 106.952 23.9785H94.8937C94.5805 23.9785 94.2861 23.9479 94.0083 23.882C93.7435 23.8222 93.4931 23.711 93.2712 23.5547C93.1063 23.4243 92.9598 23.2722 92.8356 23.1026C92.7085 22.9283 92.6096 22.7329 92.5389 22.5162C92.4895 22.2996 92.4612 22.0618 92.4541 21.8004C92.4471 21.539 92.4824 21.247 92.5531 20.9221C92.5837 20.7502 92.6308 20.5594 92.692 20.3546C92.7532 20.1497 92.8309 19.926 92.9251 19.6882L96.1982 11.4301L96.5608 10.5847L96.947 9.83828C97.1573 9.48876 97.3885 9.15221 97.6393 8.83045C97.8771 8.52669 98.1126 8.27708 98.3457 8.08164C98.5935 7.86003 98.8634 7.66435 99.151 7.49766C99.4148 7.34696 99.6714 7.22687 99.9234 7.13974C100.183 7.05553 100.448 6.99021 100.717 6.9443C100.964 6.90253 101.213 6.88048 101.463 6.87837H113.727ZM108.104 10.2598H104.23C104.171 10.2598 104.096 10.2927 104.002 10.3587C103.908 10.4246 103.825 10.5 103.75 10.5847C103.677 10.6714 103.611 10.7643 103.554 10.8626C103.493 10.9591 103.448 11.051 103.413 11.1381L100.079 19.5563C100.029 19.6744 100.008 19.8028 100.018 19.9307C100.029 20.0508 100.058 20.1544 100.102 20.2392C100.135 20.3475 100.194 20.4346 100.277 20.5006C100.359 20.5665 100.449 20.5971 100.545 20.5971H103.919C104.04 20.5908 104.159 20.5578 104.266 20.5006C104.397 20.437 104.521 20.3605 104.638 20.2721C104.769 20.185 104.882 20.0838 104.979 19.9637C105.076 19.8436 105.144 19.7306 105.186 19.6222L108.537 11.1711C108.577 11.0627 108.598 10.9544 108.591 10.8461C108.588 10.7437 108.562 10.6433 108.516 10.5518C108.473 10.467 108.412 10.3964 108.337 10.3422C108.262 10.288 108.184 10.2598 108.104 10.2598Z" fill="#D92F16"/>
<path d="M128.017 11.2031L122.955 23.9775H115.796L122.571 6.87975H137.563C138.308 6.87975 138.899 7.06577 139.341 7.43311C139.749 7.73452 140.012 8.17956 140.132 8.7659C140.188 9.01643 140.214 9.27233 140.213 9.52883C140.213 9.82318 140.189 10.1316 140.137 10.4566C140.08 10.808 140.001 11.1555 139.902 11.4974C139.796 11.8647 139.659 12.2533 139.497 12.6677L135.013 23.9775H127.914L132.962 11.236C133.031 11.0618 133.066 10.9158 133.061 10.798C133.063 10.6908 133.041 10.5845 132.995 10.4872C132.941 10.3789 132.856 10.3035 132.748 10.2612C132.64 10.2171 132.524 10.1947 132.407 10.1952H129.327C129.207 10.1989 129.089 10.2211 128.976 10.2612C128.841 10.3035 128.719 10.3695 128.606 10.4566C128.502 10.5202 128.396 10.6191 128.286 10.7486C128.172 10.8847 128.082 11.0381 128.017 11.2031Z" fill="#D92F16"/>
<path d="M168.291 0.670286L159.056 23.9775H144.035C143.623 23.9775 143.312 23.9634 143.1 23.9304C142.888 23.8975 142.735 23.8551 142.639 23.8009C142.542 23.7468 142.483 23.6973 142.46 23.6526C142.436 23.6078 142.413 23.5796 142.382 23.556C142.182 23.4281 142.008 23.2626 141.871 23.0686C141.734 22.8732 141.628 22.6683 141.558 22.4517C141.485 22.2196 141.442 21.9789 141.431 21.7358C141.417 21.4768 141.421 21.2154 141.447 20.9564C141.479 20.6769 141.53 20.3999 141.6 20.1275C141.667 19.8561 141.752 19.5894 141.855 19.3293L144.871 11.7235C145.024 11.3349 145.196 10.9652 145.382 10.6191C145.562 10.2814 145.764 9.95574 145.987 9.64421C146.192 9.35716 146.417 9.0849 146.661 8.82947L147.372 8.1466C147.644 7.93802 147.93 7.74841 148.229 7.5791C148.518 7.41663 148.81 7.28241 149.109 7.17409L150.037 6.86326C150.266 6.8091 150.43 6.7832 150.539 6.7832C150.647 6.7832 150.715 6.79262 150.746 6.81381C150.777 6.83501 150.8 6.84678 150.821 6.84678H154.751H158.686L161.133 0.670286H168.291ZM156.567 10.1952H153.397C153.299 10.1952 153.181 10.2353 153.044 10.3106C152.908 10.386 152.776 10.4778 152.656 10.5861C152.536 10.6944 152.425 10.8122 152.324 10.944C152.222 11.0759 152.147 11.2031 152.095 11.3349L148.825 19.5907C148.779 19.7045 148.756 19.826 148.756 19.9486C148.749 20.0638 148.781 20.1782 148.846 20.2735C148.883 20.3818 148.94 20.469 149.022 20.5326C149.105 20.5961 149.204 20.6314 149.321 20.6314H152.432C152.553 20.6228 152.67 20.583 152.771 20.5161C152.896 20.4429 153.017 20.3619 153.131 20.2735C153.252 20.164 153.363 20.0443 153.463 19.9156C153.562 19.7861 153.635 19.666 153.678 19.5577L156.963 11.269C157.005 11.1607 157.028 11.0406 157.031 10.9111C157.033 10.7816 157.017 10.6615 156.981 10.5531C156.953 10.4538 156.897 10.3642 156.821 10.2941C156.748 10.2282 156.666 10.1952 156.567 10.1952Z" fill="#D92F16"/>
</svg>
