<svg width="118" height="40" viewBox="0 0 118 40" fill="none" xmlns="http://www.w3.org/2000/svg">
<path d="M0.647949 39.3433C0.676464 39.2334 0.730324 39.1532 0.784185 39.0708C1.28899 38.2914 1.79486 37.513 2.29756 36.7315C3.13821 35.423 3.97357 34.1103 4.81422 32.8018C5.47111 31.7785 6.13538 30.7604 6.79333 29.7381C7.46394 28.6968 8.13034 27.6534 8.79778 26.61C9.59196 25.3701 10.384 24.1282 11.1793 22.8894C11.6725 22.1206 12.172 21.356 12.6662 20.5882C13.2619 19.6609 13.8522 18.7295 14.4489 17.8022C14.959 17.008 15.4754 16.2191 15.9866 15.426C16.9761 13.8894 17.9657 12.3528 18.9531 10.8151C19.1939 10.4402 19.4284 10.0611 19.666 9.68512C19.6861 9.65343 19.7082 9.62175 19.7336 9.59429C19.7727 9.55205 19.8117 9.55416 19.8434 9.6038C19.8952 9.68723 19.9459 9.77066 19.9987 9.85409C20.7252 11.0211 21.4508 12.188 22.1774 13.3529C22.8448 14.4227 23.5165 15.4904 24.1829 16.5613C24.8577 17.6438 25.5283 18.7295 26.2 19.813C26.8685 20.8913 27.5349 21.9706 28.2055 23.0467C28.7008 23.842 29.2025 24.6319 29.6978 25.4272C30.1931 26.2213 30.6831 27.0198 31.1774 27.815C31.6473 28.5711 32.1194 29.3273 32.5904 30.0824C33.0741 30.8576 33.5567 31.6327 34.0404 32.409C34.5072 33.1588 34.975 33.9086 35.4418 34.6584C36.0195 35.5878 36.5961 36.5193 37.1749 37.4486C37.5223 38.0062 37.8708 38.5628 38.2183 39.1194C38.2605 39.187 38.3471 39.2545 38.2964 39.339C38.2531 39.4098 38.1581 39.3739 38.0852 39.3739C25.6867 39.3739 13.2883 39.3739 0.889794 39.3739C0.815867 39.3739 0.738773 39.3908 0.649005 39.3443L0.647949 39.3433Z" fill="#B6C0C8"/>
<path d="M39.2208 31.1173C39.017 30.8005 38.8248 30.5047 38.6358 30.2069C38.2165 29.5437 37.7993 28.8773 37.3801 28.2141C36.7475 27.2119 36.1117 26.2107 35.4802 25.2085C34.6184 23.8419 33.7598 22.4732 32.898 21.1066C32.4756 20.436 32.0479 19.7686 31.6233 19.099C31.0055 18.1232 30.3909 17.1452 29.7731 16.1694C29.3538 15.5062 28.9303 14.844 28.511 14.1808C27.8605 13.1532 27.2121 12.1256 26.5636 11.0981C26.2901 10.664 26.0197 10.2268 25.7451 9.7938C25.2562 9.0218 24.764 8.25296 24.2761 7.48096C23.7196 6.60019 23.1672 5.7173 22.6107 4.83652C22.1798 4.15323 21.7457 3.47205 21.3127 2.78982C20.7794 1.94812 20.2461 1.10641 19.7138 0.263655C19.6906 0.226692 19.6684 0.18656 19.6695 0.139036C19.7445 0.0883441 19.8215 0.10841 19.8934 0.10841C26.269 0.107354 32.6446 0.107354 39.0202 0.107354C39.0582 0.107354 39.0962 0.109466 39.1332 0.107354C39.2156 0.104185 39.2631 0.136924 39.261 0.225636C39.2599 0.27844 39.261 0.331245 39.261 0.384049C39.261 10.5489 39.261 20.7148 39.261 30.8797C39.261 30.9451 39.2789 31.0148 39.2198 31.1152L39.2208 31.1173Z" fill="#B6C0C8"/>
<path d="M0.0261814 30.9503C-0.01395 30.8658 0.00400352 30.7898 0.00400352 30.7169C0.00294743 20.6049 0.00294743 10.4928 0.00189134 0.379734C0.00189134 0.372341 0.00189134 0.364948 0.00189134 0.357556C0.00294743 0.110431 0.00294742 0.109375 0.250072 0.109375C6.61089 0.109375 12.9717 0.109375 19.3325 0.109375C19.3547 0.109375 19.3779 0.109375 19.4001 0.109375C19.5913 0.114655 19.605 0.134721 19.5026 0.296303C19.1255 0.897217 18.7464 1.49708 18.3673 2.09693C17.8266 2.95237 17.2869 3.8078 16.7441 4.66217C16.3713 5.2483 15.9932 5.83126 15.6214 6.41739C14.8896 7.5717 14.1619 8.72811 13.4311 9.88242C12.9823 10.59 12.5282 11.2944 12.0793 12.002C11.2862 13.2513 10.4962 14.5028 9.70312 15.7511C9.15607 16.6118 8.60479 17.4683 8.05879 18.329C7.29735 19.5277 6.54013 20.7274 5.77975 21.9261C4.96656 23.2071 4.15232 24.4871 3.33807 25.7681C2.79947 26.6151 2.26192 27.4631 1.72437 28.3112C1.19105 29.1529 0.658778 29.9946 0.125454 30.8352C0.101164 30.8732 0.0874345 30.9186 0.0251253 30.9503H0.0261814Z" fill="#B6C0C8"/>
<path d="M74.2427 7.9909C74.2427 10.3185 74.248 12.6461 74.2406 14.9738C74.2364 16.259 74.0062 17.5041 73.4485 18.669C72.2604 21.1487 70.2951 22.5924 67.5725 22.9757C65.3494 23.2894 63.3259 22.7761 61.5253 21.4222C61.4503 21.3663 61.3669 21.3177 61.3025 21.2522C61.1557 21.1033 61.0448 21.1466 60.9001 21.2723C59.562 22.435 57.9695 22.9462 56.229 23.0454C54.9585 23.1183 53.7155 22.9631 52.538 22.4572C50.1544 21.4338 48.7234 19.6047 48.095 17.1187C47.9176 16.4164 47.8437 15.6993 47.8447 14.9727C47.8479 10.1844 47.8458 5.39503 47.8468 0.60673C47.8468 0.117761 47.7962 0.170566 48.2661 0.170566C49.657 0.168454 51.0479 0.170566 52.4398 0.170566C52.8654 0.170566 52.8263 0.137827 52.8263 0.561318C52.8263 4.4002 52.8263 8.23908 52.8263 12.078C52.8263 13.0147 52.8274 13.9504 52.8263 14.8872C52.8263 15.2906 52.8738 15.6866 52.9784 16.0763C53.2477 17.0817 53.8908 17.6858 54.9163 17.8653C55.5014 17.9678 56.0907 17.9646 56.6673 17.8083C57.4763 17.5897 58.0128 17.0722 58.281 16.2759C58.4669 15.7225 58.4996 15.1501 58.4996 14.5735C58.4996 9.95839 58.4996 5.34434 58.4996 0.729236C58.4996 0.356789 58.6795 0.170566 59.0393 0.170566C60.39 0.170566 61.7407 0.167397 63.0925 0.171622C63.6586 0.173734 63.5878 0.0871347 63.5878 0.648974C63.59 5.33061 63.5889 10.0123 63.5878 14.6939C63.5878 15.1364 63.6206 15.5747 63.7262 16.0066C63.986 17.0701 64.6545 17.6985 65.7307 17.8738C66.2883 17.9646 66.8533 17.9614 67.4035 17.8167C68.4976 17.5284 69.0183 16.7469 69.1925 15.6845C69.2464 15.355 69.2654 15.0213 69.2654 14.6854C69.2622 10.1379 69.2633 5.58936 69.2633 1.04184C69.2633 0.895042 69.2622 0.74719 69.2633 0.600394C69.2696 0.113537 69.2136 0.171622 69.6899 0.170566C71.0681 0.168454 72.4453 0.168454 73.8235 0.170566C74.3008 0.170566 74.2438 0.129378 74.2438 0.607786C74.2448 3.06953 74.2438 5.53021 74.2438 7.99196L74.2427 7.9909Z" fill="white"/>
<path d="M109.537 18.3055C110.043 18.4386 110.537 18.4903 111.046 18.4343C111.978 18.3319 112.835 18.0024 113.669 17.6C114.125 17.3793 114.574 17.1438 115.045 16.9051C115.127 16.9875 115.144 17.0942 115.172 17.1892C115.54 18.4586 115.907 19.7291 116.272 20.9996C116.368 21.3333 116.367 21.3365 116.068 21.4833C114.077 22.4591 111.977 22.9861 109.756 22.8942C106.703 22.7675 104.353 21.365 102.81 18.7438C99.9913 13.9555 102.633 7.79425 108.028 6.46147C111.35 5.64088 114.866 6.96099 116.827 9.76385C116.881 9.84095 116.933 9.91804 116.984 9.99725C117.193 10.3215 117.194 10.3236 116.933 10.5929C115.818 11.7472 114.703 12.9004 113.586 14.0547C112.303 15.3812 111.02 16.7076 109.737 18.0351C109.665 18.1101 109.576 18.1745 109.537 18.3076V18.3055ZM106.599 16.0434C108.219 14.4138 109.821 12.8033 111.435 11.179C111.347 11.104 111.302 11.0565 111.248 11.0195C110.42 10.4545 109.528 10.3817 108.617 10.7492C107.317 11.2741 106.531 12.2773 106.118 13.5932C106 13.9671 105.992 14.3578 106.038 14.7444C106.096 15.2133 106.257 15.642 106.598 16.0434H106.599Z" fill="white"/>
<path d="M91.9644 18.3719C92.0183 18.6063 91.993 18.808 91.993 19.0066C91.9961 20.2105 91.9951 21.4134 91.993 22.6174C91.993 22.8993 91.9866 22.9036 91.7089 22.9057C90.7056 22.912 89.7065 22.9046 88.7191 22.6649C86.6291 22.1569 85.2678 20.879 84.6204 18.8366C84.3025 17.8343 84.1842 16.8004 84.1842 15.7517C84.1842 11.2179 84.1842 6.68521 84.1842 2.15142C84.1842 2.08489 84.1874 2.0173 84.1842 1.95076C84.1811 1.83776 84.2244 1.77334 84.3469 1.77862C84.4007 1.78073 84.4535 1.77862 84.5074 1.77862C85.7916 1.77862 87.0748 1.77862 88.359 1.77862C88.6842 1.77862 88.6885 1.78285 88.6895 2.10601C88.6916 3.47048 88.6895 4.83389 88.6916 6.19835C88.6916 6.53947 88.6959 6.54264 89.0422 6.54264C89.9515 6.54369 90.8608 6.54264 91.7701 6.54369C92.1091 6.54369 92.1155 6.54792 92.1155 6.86263C92.1176 8.09297 92.1186 9.32332 92.1155 10.5537C92.1155 10.8483 92.1091 10.8525 91.7976 10.8525C90.8746 10.8546 89.9526 10.8525 89.0296 10.8546C88.6969 10.8546 88.6927 10.8589 88.6916 11.1736C88.6906 12.725 88.6895 14.2764 88.6937 15.8278C88.6948 16.3252 88.7613 16.8152 88.9345 17.2841C89.2746 18.2019 89.9008 18.6106 90.8735 18.5725C91.2368 18.5588 91.5811 18.45 91.9623 18.3719H91.9644Z" fill="white"/>
<path d="M101.47 18.3652C101.47 19.1414 101.47 19.8627 101.47 20.583C101.47 21.2779 101.47 21.9738 101.47 22.6687C101.47 22.7933 101.479 22.9053 101.292 22.9063C100.168 22.9127 99.048 22.9085 97.9507 22.6001C95.8353 22.0055 94.5712 20.5967 94.0051 18.513C93.7411 17.5382 93.6577 16.5413 93.6577 15.5348C93.6598 11.0813 93.6577 6.62886 93.6577 2.17533C93.6577 2.1088 93.663 2.04121 93.6577 1.97467C93.644 1.81204 93.7295 1.76346 93.8752 1.77507C93.928 1.7793 93.9819 1.77507 94.0358 1.77507C95.2925 1.77507 96.5493 1.77507 97.8071 1.77507C98.2031 1.77507 98.1693 1.75818 98.1693 2.14893C98.1693 3.45953 98.1672 4.77014 98.1704 6.08075C98.1714 6.58872 98.0964 6.54014 98.6488 6.5412C99.5179 6.54331 100.387 6.5412 101.256 6.54226C101.588 6.54226 101.593 6.54754 101.593 6.86859C101.595 8.09893 101.595 9.32928 101.593 10.5596C101.593 10.8437 101.586 10.849 101.306 10.85C100.37 10.8532 99.4334 10.85 98.4977 10.8522C98.1746 10.8522 98.1704 10.8564 98.1704 11.1817C98.1693 12.733 98.1704 14.2844 98.1704 15.8358C98.1704 16.2118 98.221 16.5814 98.3129 16.9468C98.6424 18.2479 99.5221 18.7929 100.84 18.5088C101.034 18.4666 101.228 18.419 101.469 18.3631L101.47 18.3652Z" fill="white"/>
<path d="M81.4697 14.5453C81.4697 17.0725 81.4697 19.5986 81.4697 22.1259C81.4697 22.6074 81.5162 22.5641 81.0483 22.5641C79.8053 22.5641 78.5623 22.5641 77.3182 22.5641C76.9686 22.5641 76.957 22.6085 76.957 22.2272C76.957 17.12 76.957 12.0138 76.9591 6.90657C76.9591 6.54856 76.9623 6.54539 77.2981 6.54539C78.5686 6.54434 79.838 6.54539 81.1085 6.54539C81.4697 6.54539 81.4708 6.54856 81.4708 6.92453C81.4708 9.46442 81.4708 12.0043 81.4708 14.5453H81.4697Z" fill="white"/>
<path d="M103.471 37.1522C104.005 37.2747 104.479 37.3465 104.959 37.3719C105.335 37.3919 105.708 37.3719 106.07 37.2599C106.82 37.0308 107.169 36.565 107.17 35.7888C107.172 34.8394 107.167 33.89 107.17 32.9416C107.171 32.6121 107.096 32.3069 106.934 32.0217C106.517 31.2835 105.741 31.0332 105.018 31.4029C104.293 31.7736 103.993 32.6543 104.343 33.3904C104.721 34.1878 105.677 34.4888 106.447 34.0526C106.514 34.0146 106.579 33.9766 106.699 33.9069V35.0242C106.699 35.3051 106.702 35.586 106.699 35.867C106.694 36.1468 106.692 36.1532 106.376 36.206C105.059 36.4277 103.939 36.0486 103.051 35.0538C102.079 33.9671 101.91 32.3808 102.599 31.0871C103.281 29.805 104.719 29.0584 106.148 29.2453C107.61 29.4364 108.817 30.521 109.141 31.9457C109.207 32.2319 109.239 32.5244 109.238 32.8212C109.233 33.6904 109.233 34.5595 109.238 35.4287C109.239 35.7645 109.204 36.0972 109.133 36.4235C108.793 37.9939 107.76 38.8451 106.239 39.1641C105.421 39.3362 104.591 39.2971 103.763 39.2327C103.56 39.2169 103.462 39.1503 103.469 38.9169C103.487 38.3445 103.474 37.7711 103.474 37.1533L103.471 37.1522Z" fill="white"/>
<path d="M111.134 37.1697C111.327 37.2151 111.479 37.2531 111.632 37.2858C112.305 37.4305 112.981 37.4907 113.658 37.3291C114.384 37.1559 114.781 36.6395 114.736 35.9414C114.358 36.0851 113.992 36.2445 113.596 36.3206C111.996 36.6279 110.711 35.6964 110.519 34.0806C110.484 33.787 110.479 33.4945 110.48 33.1998C110.481 32.036 110.48 30.8733 110.481 29.7095C110.481 29.3789 110.485 29.3757 110.805 29.3747C111.286 29.3715 111.768 29.3715 112.249 29.3747C112.531 29.3768 112.536 29.381 112.536 29.6598C112.539 30.7698 112.539 31.8797 112.538 32.9897C112.538 33.1914 112.551 33.3889 112.608 33.5842C112.754 34.0891 113.075 34.352 113.588 34.3795C114.147 34.4101 114.558 34.1778 114.755 33.712C114.855 33.4744 114.877 33.2231 114.877 32.9664C114.874 31.8966 114.876 30.8268 114.876 29.757C114.876 29.3588 114.837 29.3726 115.272 29.3726C115.74 29.3726 116.209 29.3821 116.676 29.3694C116.889 29.3641 116.946 29.4412 116.945 29.6471C116.938 31.6801 116.943 33.712 116.934 35.745C116.933 36.0238 116.895 36.3068 116.837 36.5804C116.52 38.0853 115.558 38.9428 114.087 39.2533C113.174 39.4455 112.252 39.3727 111.332 39.2702C111.208 39.2565 111.132 39.2238 111.133 39.0822C111.137 38.457 111.134 37.8318 111.134 37.1707V37.1697Z" fill="white"/>
<path d="M69.2317 29.8011C69.4968 29.6722 69.7302 29.5434 69.9752 29.442C70.5064 29.2202 71.0609 29.1695 71.6269 29.2667C72.3715 29.3945 72.8847 29.8232 73.2058 30.4939C73.4043 30.9079 73.5036 31.3504 73.5416 31.8066C73.6208 32.7676 73.5701 33.7318 73.5817 34.6939C73.5881 35.242 73.5849 35.7901 73.5817 36.3393C73.5807 36.6319 73.5765 36.6371 73.3051 36.6392C72.72 36.6435 72.1339 36.6403 71.5255 36.6403C71.5255 36.2126 71.5255 35.8261 71.5255 35.4395C71.5255 34.5165 71.5234 33.5945 71.5266 32.6715C71.5266 32.4561 71.5097 32.2449 71.4474 32.0379C71.2974 31.5404 70.9637 31.2733 70.4589 31.2479C69.9213 31.2215 69.4884 31.4781 69.3004 31.9386C69.2022 32.1783 69.1853 32.4297 69.1863 32.6863C69.1884 33.8902 69.1884 35.0931 69.1863 36.2971C69.1863 36.6371 69.1831 36.6392 68.8346 36.6403C68.3393 36.6424 67.8451 36.6361 67.3508 36.6435C67.1797 36.6456 67.1048 36.5864 67.1227 36.4111C67.1322 36.3182 67.1238 36.2242 67.1238 36.1302C67.1238 33.0813 67.1238 30.0324 67.1238 26.9834C67.1238 26.957 67.1238 26.9296 67.1238 26.9032C67.1269 26.5589 67.1269 26.5568 67.4712 26.5557C67.9391 26.5536 68.4069 26.5525 68.8758 26.5557C69.1831 26.5578 69.1863 26.561 69.1874 26.8588C69.1895 27.7142 69.1863 28.5707 69.1895 29.4262C69.1895 29.5423 69.1599 29.6638 69.2349 29.8021L69.2317 29.8011Z" fill="white"/>
<path d="M97.6568 36.7949C95.551 36.7865 93.856 35.0756 93.8781 32.9793C93.9014 30.8756 95.608 29.2059 97.7191 29.2228C99.788 29.2386 101.476 30.9632 101.458 33.0427C101.44 35.1295 99.7437 36.8034 97.6558 36.7949H97.6568ZM97.6568 34.7007C98.6136 34.7028 99.3719 33.9498 99.3656 33.0036C99.3592 32.0721 98.6115 31.3212 97.6832 31.3138C96.7349 31.3075 95.9755 32.0658 95.9776 33.0173C95.9798 33.9551 96.7211 34.6986 97.6568 34.7007Z" fill="white"/>
<path d="M89.8413 33.0246C89.8666 35.0755 88.1188 36.8297 86.0246 36.7959C83.9388 36.7621 82.2691 35.0903 82.2744 32.9961C82.2797 30.8945 83.9811 29.2132 86.0932 29.2227C88.1716 29.2322 89.8466 30.9325 89.8413 33.0246ZM87.7492 33.0162C87.7534 32.0815 87.0131 31.3264 86.0837 31.3159C85.1322 31.3053 84.3676 32.0572 84.3665 33.0056C84.3655 33.9455 85.0984 34.6911 86.033 34.7027C86.9899 34.7144 87.746 33.9709 87.7492 33.0162Z" fill="white"/>
<path d="M56.7231 34.7092C57.1456 34.8275 57.5332 34.7641 57.9176 34.6406C58.2883 34.5223 58.6368 34.3544 58.9747 34.1653C59.1321 34.0777 59.2039 34.0946 59.2535 34.2794C59.3972 34.8074 59.5566 35.3302 59.7108 35.8561C59.752 35.9955 59.7583 36.1043 59.5894 36.1804C58.3242 36.7475 57.022 37.0294 55.6607 36.5943C54.0628 36.0832 52.974 34.4389 53.0997 32.7893C53.2338 31.0266 54.479 29.5946 56.1666 29.2978C57.7169 29.0254 58.9779 29.5376 59.9421 30.7774C60.1649 31.0636 60.1565 31.0731 59.9094 31.3297C58.9261 32.3489 57.9408 33.3659 56.9586 34.3861C56.8773 34.4705 56.7685 34.536 56.7221 34.7092H56.7231ZM57.4983 31.4744C56.9872 30.9791 56.1254 31.1734 55.6206 31.7036C55.0598 32.2918 54.8686 33.199 55.3175 33.6109C56.0388 32.9044 56.759 32.1989 57.4983 31.4744Z" fill="white"/>
<path d="M47.6113 26.5274C47.7444 26.4482 47.8669 26.4767 47.9852 26.4767C49.9368 26.4746 51.8895 26.4756 53.8412 26.4756C53.9077 26.4756 53.9753 26.4788 54.0419 26.4756C54.1707 26.4682 54.2404 26.5115 54.2393 26.6552C54.2362 27.2973 54.2341 27.9394 54.2415 28.5804C54.2436 28.7758 54.1327 28.7906 53.9838 28.7895C53.4494 28.7863 52.914 28.7863 52.3796 28.7895C52.0564 28.7916 52.0511 28.7958 52.0511 29.1222C52.049 31.4751 52.049 33.8292 52.049 36.1821C52.049 36.2624 52.0437 36.3427 52.0501 36.4229C52.0617 36.5676 52.0226 36.6447 51.8547 36.6426C51.2401 36.6352 50.6244 36.6362 50.0097 36.6426C49.8365 36.6447 49.7795 36.5824 49.7816 36.4092C49.79 35.8072 49.7848 35.2063 49.7848 34.6043C49.7848 32.8523 49.7848 31.1013 49.7848 29.3492C49.7848 29.2552 49.7858 29.1623 49.7848 29.0683C49.7774 28.7969 49.7763 28.7937 49.488 28.7916C49.0202 28.7885 48.5523 28.7916 48.0845 28.7906C47.9905 28.7906 47.8975 28.7863 47.8035 28.7885C47.6726 28.7916 47.6113 28.7388 47.6124 28.5994C47.6156 27.9056 47.6145 27.2107 47.6145 26.5284L47.6113 26.5274Z" fill="white"/>
<path d="M79.275 36.6399C79.2022 36.4773 79.2317 36.3432 79.2307 36.2122C79.2286 35.0495 79.2275 33.8867 79.2307 32.7229C79.2307 32.4937 79.2148 32.2688 79.1451 32.0502C78.9783 31.5253 78.5474 31.2254 77.9898 31.2444C77.4226 31.2634 77.0382 31.5813 76.9305 32.1526C76.8883 32.3733 76.8904 32.6046 76.8893 32.8317C76.8861 33.9818 76.8893 35.1308 76.8872 36.2809C76.8872 36.6357 76.8851 36.6389 76.5503 36.641C76.0687 36.6442 75.5882 36.6368 75.1066 36.6452C74.9155 36.6484 74.8215 36.6125 74.8236 36.3844C74.8342 35.021 74.8078 33.6576 74.8352 32.2941C74.8711 30.4808 76.1448 29.2484 77.9602 29.2262C78.2675 29.222 78.5727 29.2389 78.8779 29.2917C80.2614 29.5325 81.1073 30.4354 81.2425 31.8337C81.2668 32.0861 81.2774 32.3406 81.2784 32.5941C81.2816 33.8371 81.2816 35.0801 81.2784 36.3231C81.2784 36.6347 81.2742 36.6378 80.9795 36.6399C80.4071 36.6431 79.8337 36.6399 79.275 36.6399Z" fill="white"/>
<path d="M66.1542 36.3663C65.039 36.9133 63.9502 36.9524 62.8614 36.4782C61.2804 35.7886 60.3806 34.1485 60.6246 32.4672C60.8685 30.7912 62.2055 29.47 63.9037 29.2482C64.5933 29.1585 65.2619 29.263 65.905 29.5355C66.0708 29.6062 66.1352 29.6791 66.0444 29.8608C65.8057 30.3392 65.5755 30.8218 65.3569 31.3087C65.2787 31.4829 65.1974 31.5114 65.0211 31.4386C64.5511 31.2442 64.078 31.2675 63.6228 31.4924C62.8138 31.8948 62.4685 32.8474 62.8212 33.6775C63.1666 34.4896 64.0695 34.893 64.9186 34.6153C64.9566 34.6026 64.9989 34.5963 65.0316 34.5751C65.1932 34.4748 65.2851 34.5086 65.3675 34.6903C65.6125 35.2373 65.8765 35.777 66.1553 36.3652L66.1542 36.3663Z" fill="white"/>
<path d="M79.2329 5.58717C77.6836 5.56077 76.4817 4.33465 76.5103 2.81072C76.5388 1.29312 77.805 0.0743901 79.3195 0.106073C80.8381 0.137755 82.0547 1.40401 82.023 2.91844C81.9914 4.42336 80.7483 5.61252 79.2318 5.58717H79.2329Z" fill="white"/>
<path d="M92.8866 31.5928C92.8866 33.1558 92.8866 34.7188 92.8866 36.2818C92.8866 36.6525 92.9214 36.6399 92.5497 36.6388C92.0554 36.6388 91.5612 36.6325 91.067 36.642C90.8895 36.6451 90.824 36.5807 90.8409 36.4096C90.8483 36.3304 90.8409 36.2491 90.8409 36.1688C90.8409 33.1094 90.8409 30.0499 90.8409 26.9904C90.8409 26.4982 90.7892 26.5563 91.257 26.5532C91.6974 26.55 92.1389 26.55 92.5793 26.5532C92.8792 26.5553 92.8834 26.5584 92.8834 26.8605C92.8855 28.3168 92.8834 29.7732 92.8834 31.2295C92.8834 31.3499 92.8834 31.4703 92.8834 31.5907L92.8866 31.5928Z" fill="white"/>
</svg>
