<svg width="39" height="45" viewBox="0 0 39 45" fill="none" xmlns="http://www.w3.org/2000/svg">
<mask id="mask0_12_4456" style="mask-type:luminance" maskUnits="userSpaceOnUse" x="0" y="0" width="39" height="45">
<path d="M38.9999 0.739502H0.919922V44.8107H38.9999V0.739502Z" fill="white"/>
</mask>
<g mask="url(#mask0_12_4456)">
<path d="M19.9599 0.739502C9.44572 0.739502 0.919922 9.2653 0.919922 19.7795C0.919922 30.2937 9.44572 38.8195 19.9599 38.8195C30.4741 38.8195 38.9999 30.2937 38.9999 19.7795C38.9999 9.2653 30.4741 0.739502 19.9599 0.739502ZM19.9599 35.2134C11.4496 35.2134 4.52602 28.2898 4.52602 19.7795C4.52602 16.3074 5.67992 13.098 7.62202 10.5171V26.0386C7.62202 27.6459 8.90472 28.9543 10.4811 28.9543H10.646C12.2223 28.9543 13.5051 27.6459 13.5051 26.0386V19.5271C13.5051 19.3416 13.6338 19.1871 13.7884 19.1871H13.8708C14.0254 19.1871 14.1541 19.3416 14.1541 19.5271V26.0386C14.1541 27.6459 15.4369 28.9543 17.0132 28.9543C18.5896 28.9543 19.8723 27.6459 19.8723 26.0386V16.9616C19.8723 16.2507 19.2954 15.6737 18.5844 15.6737C17.8735 15.6737 17.2966 16.2507 17.2966 16.9616V26.0386C17.2966 26.224 17.1678 26.3786 17.0132 26.3786C16.8587 26.3786 16.7299 26.224 16.7299 26.0386V19.5271C16.7299 17.9198 15.4472 16.6113 13.8708 16.6113H13.7884C12.212 16.6113 10.9293 17.9198 10.9293 19.5271V26.0386C10.9293 26.224 10.8005 26.3786 10.646 26.3786H10.4811C10.3266 26.3786 10.1978 26.224 10.1978 26.0386V8.1371C10.1978 8.0392 10.1875 7.94647 10.1669 7.85889C12.8354 5.66434 16.2457 4.34556 19.9599 4.34556C21.9226 4.34556 23.7978 4.71647 25.5235 5.38616V15.3286C25.5235 15.9674 25.0135 16.4825 24.3902 16.4825C22.3451 16.4825 20.6811 18.1568 20.6811 20.2122V20.2998C20.6811 22.3553 22.3451 24.0295 24.3902 24.0295H29.4851C30.1084 24.0295 30.6184 24.5446 30.6184 25.2246C30.6184 25.8583 30.1084 26.3786 29.4851 26.3786H21.7114C21.0005 26.3786 20.4235 26.9556 20.4235 27.6665C20.4235 28.3774 21.0005 28.9543 21.7114 28.9543H29.4851C31.5302 28.9543 33.1941 27.2801 33.1941 25.1834C33.1941 23.0868 31.5302 21.4537 29.4851 21.4537H24.3902C23.7669 21.4537 23.2569 20.9386 23.2569 20.2998V20.2122C23.2569 19.5734 23.7669 19.0583 24.3902 19.0583C26.4354 19.0583 28.0993 17.384 28.0993 15.3286V6.67404C32.4729 9.3992 35.3938 14.2519 35.3938 19.7795C35.3938 28.2898 28.4702 35.2134 19.9599 35.2134Z" fill="white"/>
<path d="M4.31976 43.4919L4.66486 41.3386H5.39125L4.74736 44.7643H4.01065L3.58826 42.745L3.17096 44.7643H2.43426L1.78516 41.3386H2.51675L2.85675 43.4919L3.28426 41.3386H3.89735L4.32486 43.4919H4.31976Z" fill="white"/>
<path d="M9.70831 43.358C9.70831 43.8165 9.59491 44.1771 9.36311 44.4295C9.13131 44.6819 8.81191 44.8107 8.40491 44.8107C7.99801 44.8107 7.67861 44.6871 7.44681 44.4347C7.21491 44.1822 7.09651 43.8319 7.09131 43.3786V42.7913C7.09131 42.3225 7.20461 41.9516 7.43651 41.6889C7.66831 41.4262 7.98771 41.2922 8.39461 41.2922C8.80161 41.2922 9.11591 41.421 9.34771 41.6837C9.57951 41.9413 9.69801 42.3071 9.70311 42.7759V43.3631L9.70831 43.358ZM8.97161 42.7862C8.97161 42.4771 8.92521 42.2453 8.83251 42.0959C8.73981 41.9465 8.59551 41.8692 8.39981 41.8692C8.20401 41.8692 8.05981 41.9413 7.96711 42.0856C7.87431 42.2298 7.82801 42.4513 7.82281 42.7501V43.358C7.82281 43.6568 7.86921 43.8783 7.96711 44.0225C8.05981 44.1668 8.20921 44.2337 8.40491 44.2337C8.60071 44.2337 8.73981 44.1668 8.83251 44.0277C8.92521 43.8886 8.97161 43.6722 8.97681 43.3837V42.7862H8.97161Z" fill="white"/>
<path d="M12.7067 43.5125H12.3409V44.7643H11.6094V41.3386H12.7788C13.1445 41.3386 13.4279 41.4262 13.6288 41.6065C13.8297 41.7868 13.9276 42.0392 13.9276 42.374C13.9276 42.8274 13.7524 43.1468 13.4021 43.3271L14.0358 44.7283V44.7592H13.2476L12.7015 43.5074L12.7067 43.5125ZM12.3461 42.9356H12.7633C12.9076 42.9356 13.0209 42.8892 13.093 42.7965C13.1651 42.7037 13.2012 42.5801 13.2012 42.4307C13.2012 42.0856 13.057 41.9156 12.7736 41.9156H12.3461V42.9356Z" fill="white"/>
<path d="M16.5391 44.1874H17.8218V44.7592H15.8076V41.3334H16.5391V44.1874Z" fill="white"/>
<path d="M19.625 44.7643V41.3386H20.5831C21.0056 41.3386 21.3456 41.4674 21.5928 41.7198C21.8453 41.9722 21.974 42.3225 21.9792 42.7656V43.3219C21.9792 43.7701 21.8556 44.1256 21.6031 44.3831C21.3507 44.6407 21.0056 44.7695 20.5625 44.7695H19.625V44.7643ZM20.3565 41.9156V44.1925H20.578C20.8201 44.1925 20.9953 44.1307 21.0931 44.0122C21.191 43.8886 21.2425 43.6825 21.2477 43.3837V42.7862C21.2477 42.4668 21.2013 42.2453 21.1034 42.1165C21.0056 41.9877 20.8459 41.9259 20.6192 41.9156H20.3513H20.3565Z" fill="white"/>
<path d="M25.4104 43.8628C25.4104 43.7237 25.3743 43.6156 25.2971 43.5486C25.2198 43.4816 25.0859 43.4043 24.8849 43.3271C24.5192 43.1983 24.2616 43.0437 24.1019 42.8686C23.9422 42.6934 23.8649 42.4874 23.8649 42.2504C23.8649 41.9619 23.9731 41.7301 24.1895 41.555C24.4059 41.3798 24.6789 41.2922 25.0137 41.2922C25.2353 41.2922 25.4362 41.3386 25.6062 41.4262C25.7813 41.5137 25.9153 41.6425 26.008 41.8022C26.1007 41.9619 26.1471 42.1474 26.1471 42.3534H25.4156C25.4156 42.1937 25.3795 42.0701 25.3074 41.9877C25.2353 41.9053 25.1322 41.864 24.9931 41.864C24.8643 41.864 24.7665 41.9001 24.6943 41.9722C24.6222 42.0444 24.5862 42.1371 24.5862 42.2607C24.5862 42.3534 24.6274 42.441 24.7046 42.5183C24.7819 42.5956 24.9262 42.6728 25.1271 42.7553C25.4825 42.8737 25.7349 43.0231 25.8998 43.1983C26.0595 43.3734 26.1419 43.6001 26.1419 43.868C26.1419 44.1668 26.044 44.3986 25.8431 44.5686C25.6422 44.7386 25.3692 44.821 25.024 44.821C24.7922 44.821 24.5759 44.7747 24.3853 44.6819C24.1946 44.5892 24.0401 44.4604 23.9319 44.2904C23.8237 44.1204 23.7671 43.9195 23.7671 43.6877H24.5037C24.5037 43.8834 24.5449 44.0277 24.6274 44.1204C24.7098 44.208 24.8437 44.2544 25.024 44.2544C25.2816 44.2544 25.4052 44.1256 25.4052 43.8731L25.4104 43.8628Z" fill="white"/>
<path d="M29.8817 43.2807H28.7432V44.1874H30.0929V44.7592H28.0117V41.3334H30.0878V41.9104H28.7432V42.7192H29.8817V43.2755V43.2807Z" fill="white"/>
<path d="M32.8437 41.3386L33.5289 43.8165L34.2089 41.3386H35.1671V44.7643H34.4304V43.8371L34.4974 42.4101L33.771 44.7643H33.2713L32.5449 42.4101L32.6119 43.8371V44.7643H31.8804V41.3386H32.8386H32.8437Z" fill="white"/>
<path d="M37.8922 44.7643H37.1606V41.3386H37.8922V44.7643Z" fill="white"/>
</g>
</svg>
