<svg width="99" height="33" viewBox="0 0 99 33" fill="none" xmlns="http://www.w3.org/2000/svg">
<path d="M68.2772 17.627H62.902V18.9477H64.8677V24.9833H66.4035V18.9477H68.2772V17.627ZM55.607 17.627H50.8155V24.9833H55.5687V23.6855H52.3052V21.9655H54.9236V20.6447H52.3052V18.894H55.5687L55.607 17.627ZM44.611 17.627H39.8501V24.9833H44.611V23.6855H41.3014V21.9655H43.9199V20.6447H41.3014V18.894H44.5726L44.611 17.627ZM48.0511 15.0546L49.464 7.69824H47.9282L47.0221 13.7722H46.8609L45.5401 7.69824H43.774L42.4532 13.7722H42.292L41.4012 7.70594H39.8654L41.2169 15.0546H43.4822L44.634 9.45674L45.7935 15.0546H48.0511ZM45.6322 24.9833H49.8479V23.6625H47.122V17.627H45.6322V24.9833ZM50.5083 9.20334H52.0441V7.70594H50.5083V9.20334ZM54.6241 9.20334H56.1138V7.70594H54.6241V9.20334ZM56.1138 12.5743V9.89444H54.6241V12.605C54.5989 12.9349 54.45 13.2431 54.2072 13.468C53.9645 13.6928 53.6458 13.8177 53.315 13.8177C52.9841 13.8177 52.6654 13.6928 52.4226 13.468C52.1799 13.2431 52.031 12.9349 52.0057 12.605V9.89444H50.4699V12.5743C50.4699 14.4095 51.4374 15.1927 53.2727 15.1927C55.108 15.1927 56.0755 14.4249 56.0755 12.5743H56.1138ZM58.1487 17.627H56.6975V24.9833H58.1872V22.1651L59.1854 22.0499L60.4217 24.9833H62.1341L60.4831 21.3205L62.1341 17.627H60.3987L59.1854 20.7522L58.1872 20.8597L58.1487 17.627ZM61.4507 10.1478C61.4507 10.8005 61.1435 11.3149 60.3987 11.3149H59.0625V9.01134H60.4217C60.5734 9.00174 60.7254 9.02614 60.8666 9.08274C61.0077 9.13944 61.1344 9.22684 61.2374 9.33864C61.3405 9.45054 61.4172 9.58394 61.462 9.72924C61.5069 9.87454 61.5188 10.028 61.4967 10.1785L61.4507 10.1478ZM63.0325 10.1785C63.0325 8.50454 62.1187 7.75964 60.4371 7.75964H57.5268V15.0546H59.0625V12.5896H60.4985L61.3662 15.0546H63.0018L61.9574 12.2364C62.3123 12.0142 62.5999 11.6995 62.7894 11.326C62.9787 10.9526 63.0628 10.5346 63.0325 10.117V10.1785ZM67.2943 9.01134H69.237V7.70594H63.8618V9.01904H65.8276V15.0546H67.3634L67.2943 9.01134ZM70.7651 18.894H72.1166C72.8307 18.894 73.1839 19.3624 73.1839 20.0688C73.1839 20.7752 72.8845 21.2437 72.1166 21.2437H70.7344L70.7651 18.894ZM72.1166 17.627H69.2754V24.9833H70.7651V22.5184H72.201L73.061 24.9833H74.6966L73.6524 22.1729C74.0086 21.9516 74.2977 21.6373 74.4886 21.2638C74.6793 20.8903 74.7646 20.4718 74.7351 20.0534C74.7351 18.3718 73.8136 17.627 72.1396 17.627H72.1166ZM74.5201 15.0622H76.0098V7.70594H74.5201V10.7083H71.7863V7.70594H70.2506V15.0546H71.7863V11.983H74.5201V15.0622ZM80.3099 21.3512C80.3099 23.0482 80.0104 23.8161 78.7741 23.8161C77.5378 23.8161 77.2384 23.0482 77.2384 21.3512C77.2384 19.6542 77.5378 18.7942 78.7741 18.7942C80.0104 18.7942 80.3099 19.6542 80.3099 21.3512ZM81.8457 21.3512C81.8457 18.8632 81.0778 17.5118 78.7741 17.5118C76.4705 17.5118 75.7026 18.8786 75.7026 21.3512C75.7026 23.8238 76.4705 25.1138 78.7741 25.1138C81.0778 25.1138 81.8457 23.8391 81.8457 21.3512ZM86.499 24.9833H88.9559V17.627H87.4739V23.6855H87.3669L85.5853 17.627H83.0666V24.9833H84.564V18.894H84.6715L86.499 24.9833ZM90.5229 24.9833H92.0199V17.627H90.5459L90.5229 24.9833ZM97.2189 21.3205L98.8159 17.627H97.1189L95.9209 20.7522L94.9309 20.8597V17.627H93.3949V24.9833H94.9309V22.1651L95.9209 22.0499L97.1569 24.9833H98.8769L97.2189 21.3205Z" fill="white"/>
<path d="M32.147 0.665039H0.665039V32.147H32.147V0.665039Z" fill="#E3000B"/>
<path d="M32.147 0.665039H0.665039V32.147H32.147V0.665039Z" stroke="white" stroke-width="0.669831"/>
<path d="M13.0669 22.937L20.5114 10.3776H29.6352L27.765 13.5017H22.3983L21.4954 14.962H26.8781L25.022 18.0827H19.6152L18.5428 19.8738H23.9516L22.1089 22.937H13.0669ZM6.9225 10.3776H3.6792V22.937H7.0712L8.5208 20.7794L8.8342 22.937H12.1258L19.6091 10.3776H16.0048L12.0079 16.9654L11.6556 14.962H8.3252L6.9145 16.8931L6.9225 10.3776Z" fill="white"/>
</svg>
