<svg width="125" height="50" viewBox="0 0 125 50" fill="none" xmlns="http://www.w3.org/2000/svg">
<path d="M114.369 19.6602C114.378 19.6219 114.415 19.5973 114.48 19.5858C114.534 19.5766 115.048 19.5666 115.623 19.5635C116.197 19.5606 116.741 19.5683 116.997 19.603L116.996 30.2388L116.803 30.2572C116.697 30.2675 116.121 30.268 115.522 30.2592C114.577 30.2446 114.429 30.2366 114.392 30.1968C114.354 30.1564 114.349 29.5348 114.352 24.9341C114.354 22.0651 114.361 19.6917 114.369 19.6602Z" fill="#89898A"/>
<path d="M21.6518 10.1514C22.0062 10.1413 22.3016 10.1282 22.3084 10.1222C22.3153 10.1159 22.8757 10.1173 23.5536 10.1253C24.2314 10.133 24.9215 10.1465 25.0866 10.1551C25.2518 10.1637 25.7026 10.1834 26.0884 10.1992C26.4743 10.2149 26.8993 10.2341 27.033 10.2418C27.1667 10.2496 27.5019 10.2693 27.7772 10.2856C28.0529 10.3022 28.51 10.3415 28.7933 10.3729C29.0767 10.4044 29.4952 10.4623 29.7236 10.5015C29.952 10.5404 30.3319 10.6172 30.568 10.6716C30.8041 10.7262 31.1714 10.8233 31.3838 10.8874C31.5961 10.9516 31.9568 11.0749 32.1852 11.162C32.4136 11.249 32.8321 11.4334 33.1155 11.572C33.3989 11.7105 33.7918 11.9252 33.9885 12.0492C34.1854 12.1732 34.5069 12.3968 34.7032 12.5462C34.8996 12.6957 35.2327 12.9854 35.4437 13.1901C35.6544 13.3948 35.9277 13.6845 36.0508 13.8343C36.1739 13.9837 36.3439 14.2027 36.4284 14.321C36.5125 14.4389 36.6628 14.6645 36.7621 14.822C36.8611 14.9794 37.0498 15.3273 37.1809 15.595C37.3122 15.8627 37.484 16.2557 37.563 16.4682C37.642 16.6806 37.7582 17.035 37.8214 17.2555C37.8847 17.4759 37.9749 17.8304 38.0221 18.0428C38.0693 18.2552 38.1412 18.6097 38.1815 18.8301C38.2219 19.0506 38.2866 19.4499 38.3252 19.7176C38.3639 19.9853 38.4214 20.462 38.4529 20.7769C38.4844 21.0918 38.5233 21.5362 38.5393 21.7646C38.5556 21.9928 38.5783 22.489 38.59 22.8669C38.6017 23.2448 38.6112 23.9405 38.6112 24.4129C38.6112 24.8853 38.6006 25.7164 38.5874 26.2595C38.5742 26.8026 38.5599 27.2535 38.5554 27.2615C38.5508 27.2695 38.5385 27.5656 38.5282 27.92C38.5176 28.2741 38.5027 28.6738 38.4947 28.8075C38.4864 28.9412 38.4672 29.2118 38.4517 29.4087C38.4363 29.6054 38.3974 29.9661 38.3656 30.2103C38.3338 30.4546 38.2757 30.8282 38.2368 31.0406C38.1978 31.253 38.1011 31.6911 38.0215 32.014C37.942 32.3369 37.7891 32.8649 37.6821 33.1878C37.5747 33.5108 37.427 33.9099 37.3535 34.0753C37.2802 34.2408 37.1422 34.524 37.0475 34.7052C36.9524 34.8864 36.7687 35.1953 36.6387 35.3923C36.5091 35.589 36.2955 35.8853 36.1647 36.0508C36.0336 36.2162 35.7385 36.5395 35.5084 36.7694C35.2785 36.9996 34.9551 37.295 34.7899 37.4258C34.6248 37.557 34.3154 37.7788 34.103 37.9188C33.8906 38.0591 33.4847 38.2879 33.2013 38.4276C32.918 38.5673 32.4737 38.758 32.2138 38.8516C31.9539 38.9449 31.5612 39.0732 31.3408 39.1362C31.1204 39.1994 30.7661 39.2905 30.5537 39.3389C30.3413 39.3873 29.9741 39.4594 29.7379 39.4989C29.5018 39.5384 29.0962 39.5965 28.8363 39.628C28.5764 39.6595 28.2031 39.6982 28.0062 39.7145C27.8096 39.7305 27.4486 39.7563 27.2048 39.7712C26.9609 39.7864 26.5035 39.809 26.1886 39.8216C25.8738 39.8339 25.1525 39.8442 24.5857 39.8442C24.019 39.8442 23.04 39.8347 22.4103 39.8233C21.7806 39.8115 21.0273 39.7892 20.7359 39.7732C20.4445 39.7574 20.0197 39.7305 19.7913 39.7136C19.5629 39.6967 19.1444 39.6581 18.861 39.6272C18.5777 39.5965 18.1721 39.5459 17.9594 39.5144C17.7467 39.4829 17.3669 39.4179 17.115 39.3698C16.8631 39.3217 16.5282 39.2504 16.3708 39.2109C16.2134 39.1717 15.9558 39.1001 15.7983 39.052C15.6409 39.0036 15.3704 38.9097 15.1972 38.8427C15.0241 38.776 14.7086 38.6346 14.496 38.5281C14.2833 38.4219 14.0194 38.2827 13.9092 38.2189C13.799 38.155 13.6124 38.0382 13.4941 37.9598C13.3762 37.8811 13.1764 37.7393 13.0505 37.6449C12.9245 37.5504 12.699 37.3672 12.5496 37.238C12.4002 37.1089 12.1526 36.8762 12 36.7204C11.8472 36.5647 11.6883 36.3986 11.6471 36.3514C11.6059 36.3041 11.461 36.1238 11.3254 35.9506C11.1897 35.7774 10.9859 35.4939 10.8725 35.3207C10.7592 35.1475 10.5955 34.877 10.5087 34.7195C10.4217 34.562 10.2734 34.2591 10.1793 34.0467C10.0848 33.8343 9.95401 33.5056 9.88817 33.3167C9.82263 33.1277 9.72588 32.8056 9.67321 32.6009C9.62055 32.3962 9.53782 32.0097 9.48974 31.742C9.44136 31.4743 9.3698 31.0492 9.33088 30.7973C9.29195 30.5453 9.22812 30.0815 9.1889 29.7666C9.14998 29.4517 9.09788 28.9879 9.07355 28.7359C9.04922 28.484 9.01659 28.1167 9.00142 27.92C8.98597 27.723 8.9582 27.2982 8.9396 26.9752C8.92099 26.6523 8.90467 25.8667 8.90296 25.2288C8.90153 24.5909 8.91011 23.8245 8.92214 23.5254C8.93444 23.2262 8.96364 22.7171 8.98682 22.3945C9.0103 22.0715 9.04951 21.6077 9.07355 21.3638C9.09788 21.1196 9.14969 20.6624 9.18919 20.3475C9.22841 20.0326 9.3054 19.4915 9.35979 19.145C9.41446 18.7986 9.50319 18.2962 9.55729 18.0285C9.6111 17.7608 9.715 17.3357 9.78799 17.0837C9.8607 16.8318 9.99179 16.4453 10.0788 16.2248C10.1655 16.0044 10.3381 15.6242 10.4621 15.3803C10.586 15.136 10.7887 14.7819 10.9126 14.5929C11.0365 14.404 11.2329 14.1269 11.3491 13.9774C11.4653 13.8277 11.7218 13.5394 11.919 13.3364C12.1162 13.1334 12.413 12.8563 12.5782 12.7209C12.7436 12.5852 12.9818 12.4022 13.1077 12.3137C13.2337 12.2256 13.4655 12.0758 13.623 11.9811C13.7804 11.8866 14.0703 11.7286 14.267 11.6298C14.4639 11.5313 14.7599 11.3956 14.9253 11.328C15.0908 11.2608 15.361 11.1585 15.5264 11.101C15.6916 11.0435 16.0073 10.945 16.2277 10.8826C16.4481 10.8201 16.9118 10.7119 17.2581 10.6424C17.6045 10.5728 18.1005 10.4835 18.3601 10.444C18.6197 10.4042 19.0643 10.346 19.3476 10.3145C19.631 10.2831 20.1205 10.2375 20.4353 10.2135C20.7502 10.1891 21.2977 10.1611 21.6518 10.1514Z" fill="#FF6200"/>
<path fill-rule="evenodd" clip-rule="evenodd" d="M19.7274 19.4184C23.8638 19.4198 24.7711 19.427 24.9723 19.4599C25.106 19.4819 25.3253 19.534 25.4589 19.5758C25.5926 19.6176 25.8182 19.7115 25.9598 19.7845C26.1015 19.8573 26.3142 19.9895 26.4321 20.0783C26.5503 20.167 26.7498 20.3482 26.8758 20.4805C27.0017 20.6128 27.1652 20.8109 27.2387 20.9208C27.3126 21.0305 27.4176 21.2172 27.4723 21.3351C27.527 21.4533 27.5991 21.6334 27.6326 21.7359C27.6661 21.8384 27.7125 22.0317 27.7356 22.1654C27.7717 22.3726 27.778 23.0463 27.7777 26.7246C27.7774 31.0022 27.7769 31.0411 27.7202 31.0978C27.6647 31.1533 27.624 31.155 26.3677 31.1562C25.1644 31.1573 25.0679 31.1539 24.944 31.0548L24.9357 27.2185C24.928 23.616 24.9245 23.3715 24.8759 23.2103C24.8475 23.1159 24.7806 22.955 24.7273 22.8525C24.6738 22.75 24.575 22.6011 24.5078 22.5215C24.4405 22.4416 24.3277 22.3288 24.2568 22.2707C24.1858 22.2126 24.0444 22.121 23.9419 22.0675C23.8394 22.0136 23.6723 21.9472 23.5698 21.9194C23.3986 21.8731 23.1559 21.8688 20.5214 21.8653C18.9471 21.8633 17.6267 21.8719 17.5875 21.8839C17.5483 21.8962 17.4999 21.9389 17.4802 21.9787C17.4521 22.0354 17.4444 23.0074 17.4444 26.5457C17.4444 31.0024 17.4438 31.0411 17.3871 31.0978C17.3316 31.1533 17.2915 31.155 16.0347 31.1553C14.9278 31.1553 14.73 31.1493 14.6107 31.0691V25.3003C14.6107 19.5644 14.611 19.5312 14.6682 19.4739C14.7252 19.4169 14.7578 19.4166 19.7274 19.4184ZM30.1792 19.4169H32.7579L32.901 19.5601L32.9019 25.2788C32.903 30.9858 32.903 30.9979 32.7865 31.155H30.1532L30.0951 31.0763C30.0367 30.9979 30.0367 30.987 30.0413 19.5575L30.1792 19.4169ZM21.2012 23.941C22.4695 23.9418 22.5866 23.9458 22.6332 23.9911C22.6819 24.038 22.6845 24.2198 22.6833 27.5406C22.6825 31.0016 22.6819 31.0411 22.6252 31.0978C22.5697 31.1533 22.5299 31.155 21.1941 31.155C19.8585 31.155 19.8187 31.1533 19.7629 31.0978C19.7062 31.0411 19.7056 31.0024 19.7056 27.5477C19.7056 24.093 19.7062 24.0543 19.7629 23.9977C19.8187 23.9418 19.8579 23.9404 21.2012 23.941V23.941Z" fill="white"/>
<path fill-rule="evenodd" clip-rule="evenodd" d="M73.3454 19.2561C73.7627 19.2644 74.1365 19.2773 74.1757 19.2847C74.2152 19.2922 74.3054 19.3056 74.3761 19.3148C74.4471 19.3237 74.6274 19.3511 74.7768 19.3758C74.9265 19.4004 75.1389 19.4471 75.2491 19.4791C75.3593 19.5112 75.5205 19.5644 75.6069 19.5971C75.6936 19.63 75.8868 19.7208 76.0363 19.7992C76.186 19.8774 76.4112 20.0082 76.5372 20.0904C76.6631 20.1722 76.9015 20.3681 77.0667 20.5255C77.2499 20.7002 77.4302 20.9057 77.5284 21.052C77.6168 21.1843 77.7345 21.3824 77.79 21.4926C77.8453 21.6029 77.9243 21.7766 77.9658 21.8791C78.007 21.9816 78.0677 22.162 78.1003 22.2799C78.1329 22.3982 78.1761 22.5591 78.1965 22.6378C78.2168 22.7165 78.2474 22.8646 78.2646 22.9671C78.282 23.0696 78.3087 23.2691 78.3244 23.4108C78.3402 23.5525 78.3602 23.7973 78.3691 23.9548C78.3779 24.1122 78.3868 24.6213 78.3885 25.0856C78.3905 25.55 78.3834 26.0848 78.3728 26.2738C78.3619 26.4627 78.3393 26.727 78.3227 26.8607C78.3058 26.9944 78.274 27.2102 78.252 27.3402C78.2297 27.4702 78.1993 27.599 78.1842 27.6265C78.169 27.654 78.1295 27.7797 78.0966 27.9056C78.0611 28.0408 77.9597 28.2813 77.8493 28.4926C77.7465 28.6895 77.6343 28.8871 77.6005 28.9317C77.5668 28.9764 77.4734 29.0795 77.3936 29.1608C77.3134 29.2421 77.1975 29.3537 77.136 29.4093C77.0741 29.4645 76.9594 29.557 76.8806 29.6145C76.8019 29.6724 76.6474 29.7606 76.5372 29.8104C76.427 29.8605 76.2853 29.9243 76.2223 29.9521C76.1593 29.9799 76.0242 30.0297 75.9218 30.0629C75.8196 30.0958 75.6198 30.1488 75.4781 30.1803C75.3364 30.212 75.1303 30.2564 75.0201 30.2796C74.9099 30.3025 74.6781 30.3383 74.5049 30.3589C74.2874 30.3847 73.7825 30.3964 72.8734 30.3961C71.5601 30.3958 71.5556 30.3958 71.0844 30.3151C70.8248 30.2707 70.5543 30.2149 70.4833 30.1911C70.4126 30.1674 70.2515 30.1179 70.1255 30.0809C69.9996 30.0443 69.8095 29.9744 69.7033 29.926C69.5971 29.8777 69.4909 29.8381 69.4672 29.8381C69.4437 29.8381 69.4211 29.8281 69.4171 29.8161C69.4131 29.8041 69.3392 29.7494 69.2528 29.6944C69.1664 29.6397 68.9989 29.5181 68.8807 29.4239C68.7625 29.33 68.5724 29.1593 68.4582 29.0445C68.344 28.93 68.2507 28.8232 68.2507 28.8075C68.2507 28.7917 68.2146 28.7176 68.1708 28.6429C68.1268 28.5681 68.0615 28.4362 68.0257 28.3494C67.9902 28.2627 67.923 28.0373 67.8766 27.8484C67.8299 27.6594 67.7778 27.3502 67.7601 27.1613C67.7426 26.9723 67.7358 26.676 67.7452 26.5028C67.7544 26.3296 67.7827 26.0782 67.8079 25.9445C67.8331 25.8108 67.8737 25.6305 67.8981 25.5437C67.9224 25.457 67.9679 25.3218 67.9994 25.2431C68.0306 25.1644 68.0709 25.0679 68.089 25.0284C68.107 24.9892 68.1562 24.9053 68.198 24.8423C68.2398 24.7793 68.3363 24.6697 68.4127 24.5989C68.4888 24.5282 68.648 24.3982 68.7659 24.3104C68.8841 24.2225 69.0481 24.1097 69.1309 24.0598C69.2136 24.01 69.4068 23.9164 69.5602 23.8523C69.7136 23.7882 69.9876 23.6977 70.1685 23.6513C70.3497 23.6049 70.7232 23.5293 70.9985 23.483C71.2742 23.4369 71.6669 23.3862 71.8716 23.3702C72.0762 23.3541 72.4369 23.3258 72.673 23.3072C72.9355 23.2866 73.3024 23.2808 73.6176 23.2923C73.901 23.3026 74.3455 23.3229 74.6051 23.3375C74.865 23.3518 75.1933 23.3733 75.5926 23.4065L75.5711 23.1222C75.5594 22.9662 75.5445 22.8125 75.5385 22.781C75.5322 22.7495 75.5124 22.6659 75.4944 22.5949C75.4764 22.5239 75.4269 22.3839 75.3842 22.2837C75.323 22.1405 75.2757 22.0787 75.1632 21.9945C75.0845 21.9358 74.9557 21.8548 74.877 21.8147C74.7983 21.7744 74.6374 21.7194 74.5192 21.6925C74.4013 21.6656 74.2596 21.6269 74.2044 21.6063C74.1494 21.5857 73.9304 21.553 73.7178 21.5339C73.4696 21.5115 73.1164 21.5052 72.7303 21.5164C72.3997 21.5261 72.0069 21.5525 71.8572 21.5754C71.7078 21.598 71.3921 21.6578 71.156 21.7079C70.9198 21.758 70.5077 21.8542 70.24 21.9218C69.9724 21.9894 69.6633 22.0712 69.5531 22.1033C69.4429 22.1357 69.2625 22.1892 69.1523 22.2227C69.0218 22.2619 68.9119 22.2777 68.8375 22.2674C68.7745 22.2588 68.7064 22.229 68.6858 22.2015C68.6563 22.1614 68.6526 21.9424 68.6675 21.1205C68.6809 20.3815 68.6964 20.0695 68.7221 20.0182C68.7422 19.9787 68.7825 19.9381 68.8123 19.9275C68.8418 19.9172 68.9563 19.8739 69.0665 19.8318C69.1767 19.7898 69.3507 19.7308 69.4529 19.7007C69.5554 19.6704 69.7806 19.614 69.9538 19.575C70.127 19.5361 70.3783 19.4857 70.5119 19.4634C70.6459 19.4408 70.8454 19.4138 70.9556 19.4035C71.0658 19.3932 71.1626 19.3804 71.1703 19.3746C71.1783 19.3686 71.3005 19.3549 71.4422 19.344C71.5839 19.3328 71.7095 19.3191 71.7213 19.3131C71.733 19.3073 71.9262 19.2945 72.1506 19.2844C72.375 19.2744 72.5648 19.2607 72.5725 19.2538C72.5803 19.2467 72.928 19.2478 73.3454 19.2561V19.2561ZM71.9717 25.5013C71.7751 25.5242 71.5269 25.556 71.4207 25.5721C71.3145 25.5881 71.1534 25.6276 71.0629 25.66C70.9725 25.6923 70.834 25.7524 70.7552 25.7931C70.6765 25.834 70.5992 25.8815 70.5835 25.8987C70.5675 25.9162 70.5016 25.9946 70.437 26.0734C70.3725 26.1521 70.2967 26.2617 70.2686 26.3167C70.2389 26.3757 70.2151 26.4934 70.2114 26.603C70.208 26.7055 70.2168 26.8859 70.2311 27.0038C70.2455 27.1221 70.2898 27.2893 70.3299 27.376C70.37 27.4628 70.4627 27.609 70.536 27.7012C70.6093 27.7937 70.7209 27.8991 70.7839 27.9357C70.8468 27.9724 70.9885 28.0339 71.0987 28.0728C71.2089 28.1115 71.3635 28.1567 71.4422 28.1736C71.5209 28.1902 71.6368 28.2126 71.6998 28.2229C71.7628 28.2332 72.2202 28.2455 72.7159 28.2503C73.3313 28.2564 73.7312 28.2469 73.9754 28.2206C74.1723 28.1994 74.3913 28.1607 74.462 28.1347C74.533 28.1086 74.6197 28.0817 74.6552 28.0751C74.6907 28.0686 74.7871 28.0319 74.8699 27.9941C74.9526 27.956 75.0822 27.869 75.1581 27.8009C75.2342 27.7324 75.3204 27.638 75.3499 27.5907C75.3794 27.5435 75.4346 27.4084 75.4727 27.2901C75.5107 27.1722 75.556 26.9403 75.5734 26.7748C75.5906 26.6093 75.6118 26.2712 75.6204 26.0233C75.6287 25.7753 75.6258 25.5715 75.6141 25.5703C75.6023 25.5689 75.5668 25.564 75.5353 25.5589C75.5039 25.554 75.3688 25.542 75.2348 25.5325C75.1011 25.5231 74.9594 25.5082 74.9199 25.4996C74.8807 25.491 74.7004 25.4739 74.5192 25.4613C74.3383 25.449 73.836 25.4386 73.4029 25.4384C72.9701 25.4384 72.5514 25.4429 72.4726 25.4487C72.3939 25.4547 72.1687 25.4782 71.9717 25.5013V25.5013ZM86.6698 19.4061C87.1106 19.4087 87.6001 19.425 87.7575 19.4425C87.915 19.4597 88.2178 19.5015 88.4302 19.535C88.6429 19.5684 88.952 19.64 89.1171 19.6938C89.2826 19.748 89.5402 19.8502 89.6896 19.9214C89.8393 19.9927 90.0162 20.0889 90.0832 20.1347C90.1502 20.1808 90.2114 20.2186 90.2191 20.2186C90.2272 20.2186 90.3156 20.2799 90.4161 20.3546C90.5163 20.4293 90.6743 20.5616 90.767 20.6481C90.8597 20.7345 90.9734 20.8571 91.0195 20.92C91.0655 20.983 91.1714 21.1247 91.2547 21.235C91.3377 21.3452 91.4062 21.4451 91.4064 21.4568C91.4067 21.4686 91.4368 21.5267 91.4734 21.5857C91.5098 21.6447 91.5982 21.8285 91.6701 21.9937C91.7416 22.1588 91.8335 22.4297 91.8744 22.5949C91.9151 22.7601 91.9612 22.9665 91.9769 23.0529C91.9929 23.1394 92.0121 23.2556 92.0198 23.3106C92.0276 23.3656 92.0419 23.4944 92.0519 23.5969C92.0619 23.6994 92.0768 23.8153 92.0851 23.8546C92.0934 23.8941 92.1069 24.274 92.1149 24.6991C92.1243 25.1821 92.1174 25.601 92.0968 25.8157C92.0788 26.0046 92.0502 26.2494 92.0336 26.3597C92.017 26.4699 91.9844 26.6631 91.9609 26.7891C91.9377 26.9151 91.8925 27.1278 91.8601 27.2615C91.8281 27.3952 91.79 27.5177 91.7757 27.5335C91.7614 27.5492 91.7494 27.5813 91.7494 27.605C91.7491 27.6288 91.7018 27.7639 91.644 27.9056C91.5865 28.0474 91.5129 28.2086 91.4806 28.2635C91.4485 28.3185 91.3961 28.3938 91.3644 28.4304C91.3329 28.4671 91.3065 28.5057 91.306 28.5163C91.3054 28.5269 91.241 28.6294 91.1629 28.7442C91.0847 28.8587 91.0109 28.9523 90.9991 28.9518C90.9874 28.9512 90.9777 28.9635 90.9777 28.9793C90.9777 28.995 90.9359 29.0491 90.8846 29.0995C90.8334 29.1499 90.6823 29.2804 90.5483 29.3892C90.4146 29.4983 90.2921 29.6019 90.2764 29.6197C90.2607 29.6374 90.19 29.6833 90.119 29.7216C90.0483 29.7597 89.9195 29.827 89.8327 29.8708C89.7463 29.9149 89.566 29.9905 89.432 30.0391C89.2983 30.0878 89.0407 30.166 88.8595 30.2129C88.6786 30.2599 88.3695 30.3251 88.1726 30.3581C87.8663 30.409 87.6728 30.4185 86.8273 30.4239C86.2843 30.4276 85.6789 30.4196 85.482 30.4064C85.2853 30.393 84.9825 30.3618 84.8093 30.3366C84.6362 30.3117 84.4238 30.2716 84.337 30.2478C84.2506 30.2238 84.0832 30.18 83.9649 30.1502C83.847 30.1204 83.6859 30.0752 83.6071 30.0494C83.5284 30.0239 83.3481 29.9464 83.2064 29.8774C83.0647 29.8081 82.923 29.7356 82.8916 29.7162C82.8601 29.6967 82.828 29.6732 82.82 29.6638C82.8123 29.6546 82.7479 29.6134 82.6769 29.5722C82.6062 29.5309 82.4387 29.3892 82.3048 29.2572C82.1711 29.125 81.9882 28.9214 81.8989 28.8049C81.8096 28.6881 81.6676 28.4831 81.5832 28.3494C81.477 28.1805 81.394 27.9964 81.3118 27.7482C81.2469 27.5515 81.1607 27.2678 81.1203 27.1183C81.08 26.9689 81.0193 26.6789 80.985 26.4742C80.9331 26.163 80.9208 25.9494 80.91 25.1715C80.8985 24.3501 80.904 24.1807 80.9578 23.7257C80.9924 23.4309 81.062 23.0329 81.1206 22.7953C81.1767 22.5668 81.2406 22.3447 81.2629 22.3014C81.2849 22.2582 81.303 22.2035 81.303 22.1797C81.303 22.156 81.3299 22.0755 81.3628 22.0008C81.3957 21.9261 81.4784 21.7489 81.5463 21.6072C81.6144 21.4654 81.7515 21.2398 81.8508 21.1061C81.9504 20.9724 82.1416 20.75 82.2756 20.6123C82.4098 20.4743 82.5967 20.3157 82.6912 20.2598C82.7857 20.2037 82.8878 20.1425 82.9185 20.1239C82.9491 20.105 83.0393 20.0503 83.1188 20.0019C83.1984 19.9535 83.3733 19.8676 83.507 19.8107C83.6409 19.754 83.847 19.681 83.9649 19.6489C84.0832 19.6168 84.3279 19.565 84.5088 19.5341C84.69 19.5029 84.9024 19.4688 84.9811 19.4585C85.0598 19.4479 85.2916 19.431 85.4963 19.4207C85.7009 19.4101 86.229 19.4038 86.6698 19.4061V19.4061ZM85.2387 21.7048C85.097 21.738 84.949 21.7795 84.9095 21.797C84.8703 21.8144 84.7735 21.8617 84.6948 21.9015C84.6161 21.9415 84.5019 22.0011 84.4409 22.034C84.38 22.0669 84.2512 22.1878 84.1547 22.3023C84.0582 22.4168 83.9392 22.5843 83.8902 22.6745C83.8413 22.7646 83.7686 22.9284 83.7288 23.0386C83.689 23.1489 83.6355 23.3613 83.61 23.511C83.5845 23.6605 83.551 23.9825 83.5359 24.2268C83.521 24.471 83.5081 24.8701 83.5078 25.1143C83.5075 25.3585 83.5218 25.674 83.5393 25.8157C83.5571 25.9574 83.5945 26.2022 83.6229 26.3597C83.6512 26.5171 83.6942 26.7167 83.7185 26.8034C83.7428 26.8902 83.8147 27.0671 83.8782 27.1971C83.9506 27.3457 84.0465 27.4862 84.1367 27.5764C84.2154 27.6551 84.3345 27.7548 84.4014 27.7974C84.4684 27.8404 84.5554 27.8939 84.5947 27.9162C84.6342 27.9386 84.7114 27.9795 84.7664 28.0076C84.8216 28.0356 84.9696 28.0872 85.0956 28.1224C85.2215 28.1576 85.4018 28.2011 85.4963 28.2194C85.5907 28.2375 85.7519 28.2581 85.8541 28.2652C85.9566 28.2721 86.2462 28.2778 86.4981 28.2778C86.75 28.2778 87.0462 28.2727 87.1564 28.2664C87.2666 28.2601 87.447 28.2389 87.5572 28.2194C87.6674 28.1997 87.8348 28.1582 87.9293 28.127C88.0237 28.0958 88.1654 28.0405 88.2441 28.0044C88.3228 27.9683 88.484 27.8719 88.6019 27.79C88.7201 27.7081 88.8816 27.5655 88.9609 27.4728C89.0404 27.3803 89.1249 27.2724 89.1489 27.2329C89.173 27.1936 89.2199 27.0906 89.2537 27.0038C89.2872 26.9171 89.3421 26.7175 89.3756 26.5601C89.4177 26.3631 89.444 26.0997 89.4601 25.7155C89.4729 25.4086 89.4732 24.816 89.4609 24.3985C89.4437 23.8191 89.4248 23.5723 89.3805 23.3536C89.3484 23.1961 89.3003 23.0028 89.2734 22.9241C89.2462 22.8454 89.1881 22.7165 89.1441 22.6378C89.1 22.5591 88.9872 22.4111 88.8939 22.3086C88.786 22.1903 88.6472 22.0784 88.5129 22.0017C88.3964 21.9352 88.2081 21.8482 88.0939 21.8084C87.9797 21.7686 87.793 21.7174 87.6788 21.695C87.5646 21.6724 87.3393 21.6401 87.1779 21.6235C87.0165 21.6066 86.6429 21.5946 86.3478 21.5966C86.0527 21.5986 85.7404 21.6103 85.6537 21.6223C85.5673 21.6344 85.3804 21.6713 85.2387 21.7048V21.7048ZM99.5037 19.4184C100.153 19.4173 100.494 19.4287 100.71 19.4588C100.875 19.482 101.087 19.5129 101.182 19.5278C101.276 19.5424 101.438 19.5699 101.54 19.5888C101.642 19.6077 101.835 19.6592 101.969 19.7033C102.103 19.7474 102.341 19.8456 102.499 19.9217C102.766 20.0511 102.799 20.0597 102.999 20.0569C103.198 20.054 103.236 20.0428 103.515 19.9031C103.68 19.8201 103.854 19.7405 103.901 19.7262C103.948 19.7116 104.077 19.6761 104.187 19.6469C104.298 19.6177 104.459 19.5802 104.545 19.5639C104.632 19.5473 104.748 19.5266 104.803 19.5175C104.858 19.5086 104.967 19.4946 105.046 19.4866C105.125 19.4783 105.234 19.4642 105.289 19.4554C105.345 19.4465 105.783 19.4336 106.263 19.4267C106.926 19.4173 107.228 19.425 107.522 19.4582C107.735 19.4823 107.979 19.5135 108.066 19.5275C108.153 19.5415 108.339 19.5819 108.481 19.6168C108.623 19.652 108.867 19.7414 109.025 19.8152C109.182 19.8894 109.433 20.0285 109.583 20.1247C109.745 20.2292 109.936 20.3844 110.055 20.5101C110.176 20.6375 110.312 20.8218 110.399 20.977C110.477 21.1179 110.575 21.3432 110.615 21.4775C110.655 21.6117 110.703 21.8376 110.722 21.9793C110.741 22.1211 110.764 22.308 110.774 22.3945C110.783 22.4809 110.796 24.2751 110.814 30.2103L110.735 30.2415C110.681 30.2633 110.278 30.2699 109.449 30.263C108.785 30.2576 108.232 30.2427 108.218 30.2295C108.206 30.2163 108.187 28.5993 108.178 26.6365C108.164 23.479 108.156 23.0309 108.113 22.7523C108.087 22.5791 108.043 22.3678 108.015 22.2828C107.979 22.1697 107.931 22.0979 107.837 22.014C107.766 21.951 107.628 21.8628 107.529 21.8179C107.431 21.7729 107.27 21.722 107.171 21.7045C107.073 21.6873 106.883 21.6627 106.749 21.6501C106.615 21.6372 106.274 21.6321 105.991 21.6386C105.707 21.6449 105.366 21.6693 105.232 21.6928C105.098 21.7165 104.926 21.7583 104.85 21.7858C104.761 21.8179 104.659 21.8883 104.571 21.9793C104.494 22.0581 104.426 22.1483 104.419 22.1797C104.413 22.2112 104.387 22.3143 104.361 22.4088C104.335 22.5033 104.307 22.6516 104.3 22.738C104.292 22.8245 104.283 24.5402 104.28 26.5506C104.276 28.5607 104.263 30.2163 104.249 30.2295C104.236 30.2424 103.708 30.2547 103.076 30.2564C102.444 30.2584 101.865 30.255 101.79 30.2493C101.661 30.2395 101.654 30.2341 101.641 30.1459C101.633 30.0947 101.624 28.4877 101.621 26.5744C101.617 24.6611 101.602 22.9479 101.588 22.7667C101.567 22.5113 101.544 22.399 101.485 22.2656C101.426 22.1325 101.366 22.0584 101.22 21.9364C101.089 21.8273 100.989 21.7683 100.892 21.7446C100.815 21.7257 100.682 21.6971 100.595 21.681C100.509 21.6647 100.167 21.6464 99.8366 21.6401C99.506 21.6338 99.1582 21.6384 99.0638 21.6501C98.9693 21.6618 98.8148 21.6865 98.7203 21.7048C98.6258 21.7228 98.4907 21.7592 98.4197 21.7849C98.349 21.811 98.2331 21.8734 98.1621 21.9238C98.0914 21.9742 97.9996 22.0589 97.9581 22.1119C97.9165 22.1649 97.8559 22.2986 97.8232 22.4088C97.7906 22.519 97.7554 22.6544 97.7451 22.7094C97.7348 22.7644 97.7182 24.4735 97.7082 26.5077C97.6982 28.5415 97.679 30.2163 97.6661 30.2295C97.6529 30.2424 97.071 30.2533 96.3732 30.2533C95.6753 30.2533 95.0934 30.2427 95.0803 30.2295C95.0674 30.2163 95.0545 28.5157 95.0522 26.4504C95.0496 24.3851 95.0585 22.5599 95.0714 22.3945C95.0846 22.2293 95.1163 21.9779 95.1424 21.8362C95.1681 21.6945 95.2028 21.527 95.2191 21.464C95.2351 21.401 95.3238 21.1949 95.416 21.0059C95.5216 20.7886 95.635 20.6045 95.724 20.5049C95.8016 20.4185 95.9985 20.2558 96.1619 20.1436C96.3254 20.0314 96.5234 19.9071 96.6022 19.8676C96.6809 19.8278 96.842 19.7631 96.96 19.7233C97.0782 19.6838 97.2519 19.6311 97.3464 19.6068C97.4408 19.5822 97.5696 19.555 97.6326 19.5461C97.6956 19.5372 97.831 19.5181 97.9332 19.5032C98.0356 19.4886 98.2222 19.4685 98.3482 19.4585C98.4741 19.4485 98.5818 19.4359 98.5878 19.4302C98.5935 19.4244 99.0057 19.4193 99.5037 19.4184ZM57.3821 19.553C58.1724 19.5567 58.8611 19.5664 58.9123 19.5745C58.9916 19.5868 59.0051 19.6002 59.0036 19.6675C59.0028 19.7107 58.9804 19.8001 58.9535 19.8659C58.9269 19.9318 58.8396 20.0606 58.7595 20.1522C58.6793 20.2438 58.5434 20.4024 58.4578 20.5049C58.3722 20.6074 58.264 20.7425 58.2173 20.8055C58.1704 20.8685 58.1194 20.9372 58.1037 20.9584C58.088 20.9796 58.0224 21.0572 57.9577 21.1305C57.8933 21.2038 57.8203 21.2894 57.7954 21.3209C57.7705 21.3524 57.6815 21.4617 57.5971 21.5642C57.5126 21.6667 57.3744 21.8405 57.2897 21.9507C57.2049 22.0609 57.1185 22.1703 57.0973 22.1941C57.0761 22.2178 56.9977 22.3143 56.9233 22.4088C56.8486 22.5033 56.7681 22.6049 56.7444 22.6344C56.7206 22.6642 56.6505 22.7478 56.5887 22.8205C56.5271 22.8932 56.4195 23.03 56.3497 23.1245C56.2801 23.219 56.2148 23.3029 56.2045 23.3106C56.1942 23.3183 56.1419 23.3828 56.0878 23.4538C56.0339 23.5245 55.9738 23.6018 55.9541 23.6255C55.9346 23.6493 55.8496 23.7458 55.7652 23.8403C55.6805 23.9347 55.5665 24.0702 55.5116 24.1409C55.4569 24.2116 55.3773 24.3212 55.3353 24.3842C55.2932 24.4472 55.2259 24.5277 55.1856 24.5632C55.1455 24.5987 55.1128 24.6373 55.1134 24.649C55.1137 24.6608 55.0816 24.6865 55.0419 24.7063C55.0004 24.7266 54.9694 24.7667 54.9694 24.7993C54.9694 24.8308 55.0112 24.9179 55.0622 24.9926C55.1134 25.0673 55.1873 25.1655 55.2268 25.2108C55.2663 25.2563 55.3275 25.3238 55.363 25.3611C55.3985 25.3986 55.4274 25.4355 55.4274 25.4435C55.4274 25.4515 55.4887 25.538 55.5634 25.6359C55.6381 25.7341 55.7251 25.8412 55.7566 25.8738C55.7881 25.9067 55.8267 25.9543 55.8425 25.9795C55.8582 26.0049 55.9478 26.1263 56.0414 26.2497C56.135 26.3731 56.2197 26.4805 56.2292 26.4885C56.2389 26.4965 56.3202 26.5996 56.4098 26.7175C56.4991 26.8358 56.6502 27.029 56.745 27.147C56.84 27.2652 56.9774 27.439 57.0507 27.5335C57.1236 27.6279 57.257 27.802 57.3472 27.92C57.4371 28.0382 57.5384 28.1605 57.5722 28.1919C57.6057 28.2234 57.6329 28.2652 57.6323 28.285C57.6317 28.3047 57.6417 28.3239 57.654 28.3279C57.6666 28.3319 57.7728 28.4576 57.8902 28.6071C58.0078 28.7565 58.1421 28.9306 58.189 28.9936C58.2357 29.0566 58.3579 29.2057 58.4606 29.3254C58.5634 29.4448 58.6664 29.5799 58.6899 29.626C58.7131 29.6718 58.7744 29.7511 58.8259 29.8024C58.8774 29.8536 58.9195 29.9017 58.9195 29.9097C58.9195 29.9177 58.9355 29.9412 58.9553 29.9621C58.975 29.983 58.9873 30.0506 58.9824 30.1124C58.9761 30.1986 58.9595 30.2295 58.9109 30.2458C58.8763 30.2573 58.1684 30.267 55.8281 30.2676L55.7423 30.196C55.695 30.1568 55.6564 30.1116 55.6564 30.0958C55.6564 30.0801 55.6152 30.0059 55.5648 29.9312C55.5144 29.8565 55.4595 29.7797 55.4432 29.7611C55.4266 29.7425 55.381 29.6804 55.3415 29.6234C55.3023 29.5664 55.2273 29.4657 55.1752 29.3998C55.1232 29.334 55.0593 29.2541 55.0336 29.2226C55.0075 29.1911 54.96 29.1267 54.9277 29.0795C54.8953 29.0322 54.814 28.9194 54.7473 28.829C54.6806 28.7385 54.626 28.658 54.626 28.65C54.626 28.642 54.5716 28.5616 54.5055 28.4711C54.4391 28.3806 54.3615 28.2807 54.3334 28.2492C54.3051 28.2177 54.2519 28.1533 54.2149 28.1061C54.1783 28.0588 54.0649 27.8976 53.9633 27.7482C53.8617 27.5987 53.702 27.3797 53.6081 27.2615C53.5142 27.1435 53.3926 26.9786 53.3376 26.8956C53.2827 26.8126 53.2248 26.7453 53.2091 26.7462C53.1934 26.7467 53.137 26.7957 53.0835 26.8541C53.0302 26.9128 52.9149 27.0639 52.827 27.1899C52.7394 27.3159 52.6601 27.4252 52.6507 27.4333C52.6415 27.4413 52.5608 27.5443 52.4712 27.6623C52.3819 27.7805 52.2892 27.9028 52.2657 27.9343C52.2419 27.9658 52.183 28.0431 52.1349 28.1061C52.0865 28.169 52.0307 28.2335 52.0104 28.2492C51.9903 28.265 51.8856 28.4004 51.7777 28.5498C51.67 28.6993 51.5186 28.8991 51.4413 28.9936C51.3643 29.088 51.2856 29.1845 51.2667 29.2083C51.2478 29.2321 51.1748 29.3274 51.1044 29.4202C51.034 29.5132 50.9378 29.6446 50.8906 29.7125C50.8434 29.78 50.7441 29.9037 50.6699 29.987C50.5961 30.0706 50.5165 30.1645 50.4933 30.196C50.4527 30.2518 50.4155 30.2533 48.9107 30.2584C48.0111 30.2616 47.343 30.2527 47.3055 30.237C47.2589 30.2178 47.2411 30.1866 47.2411 30.1244C47.2411 30.0772 47.2637 29.9996 47.2912 29.9524C47.3187 29.9048 47.351 29.8662 47.3628 29.8665C47.3745 29.8665 47.3842 29.8539 47.3842 29.8381C47.3842 29.8224 47.4132 29.7789 47.4487 29.7417C47.4841 29.7044 47.5646 29.6011 47.6275 29.5121C47.6905 29.423 47.7744 29.3139 47.8136 29.2698C47.8531 29.2255 47.9238 29.1407 47.971 29.0812C48.0183 29.0216 48.0829 28.9455 48.1144 28.9117C48.1462 28.8779 48.1977 28.8083 48.2289 28.7571C48.2604 28.7056 48.2956 28.6638 48.3074 28.664C48.3191 28.664 48.3288 28.6452 48.3288 28.6214C48.3288 28.5976 48.3417 28.5784 48.3574 28.5784C48.3732 28.5784 48.3952 28.5558 48.4061 28.5283C48.4173 28.5009 48.4528 28.4508 48.4848 28.4173C48.5172 28.3838 48.5904 28.2999 48.6483 28.2312C48.7058 28.1625 48.8209 28.0159 48.9039 27.9056C48.9869 27.7954 49.0753 27.6861 49.0999 27.6623C49.1248 27.6385 49.1835 27.5733 49.2307 27.5169C49.2777 27.4607 49.355 27.3648 49.4022 27.3044C49.4494 27.2437 49.5041 27.177 49.5238 27.1561C49.5436 27.1355 49.5596 27.1086 49.5596 27.0969C49.5599 27.0851 49.6017 27.0302 49.6527 26.9749C49.7039 26.9196 49.7651 26.8478 49.7886 26.8149C49.8124 26.7819 49.8831 26.6923 49.946 26.6159C50.009 26.5392 50.0894 26.447 50.1249 26.4109C50.1604 26.3748 50.1893 26.339 50.1893 26.331C50.1893 26.323 50.2486 26.2426 50.3213 26.1521C50.3937 26.0616 50.4741 25.9617 50.5002 25.9302C50.526 25.8987 50.5689 25.8406 50.5952 25.8014C50.6218 25.7619 50.7037 25.6654 50.7773 25.5867C50.8508 25.5079 50.9839 25.3476 51.0727 25.2302C51.1614 25.1128 51.2501 24.9937 51.2699 24.9654C51.3008 24.9207 51.2859 24.8901 51.156 24.7349C51.0735 24.6364 50.9994 24.5497 50.9911 24.5417C50.9828 24.5337 50.9232 24.4567 50.8588 24.3699C50.7944 24.2832 50.7043 24.1726 50.6588 24.1243C50.613 24.0756 50.5371 23.9868 50.4899 23.927C50.4427 23.8672 50.3906 23.8036 50.3742 23.7861C50.3579 23.7687 50.3067 23.7028 50.26 23.6399C50.2134 23.5769 50.1682 23.519 50.1596 23.511C50.1507 23.503 50.1123 23.4515 50.074 23.3965C50.0356 23.3415 49.9887 23.2771 49.9701 23.2534C49.9512 23.2296 49.8287 23.083 49.6976 22.9273C49.5668 22.7715 49.3905 22.5525 49.306 22.4406C49.2216 22.3286 49.0871 22.1597 49.0069 22.0652C48.927 21.9707 48.8415 21.8731 48.8171 21.8482C48.7925 21.8236 48.7467 21.7675 48.7152 21.7237C48.6837 21.6796 48.5549 21.5153 48.429 21.3581C48.3031 21.2012 48.1439 20.9996 48.0755 20.9103C48.0071 20.8213 47.8262 20.5937 47.6736 20.4047C47.5211 20.2158 47.3694 20.0225 47.3362 19.9753C47.303 19.928 47.2606 19.8316 47.242 19.7606C47.2114 19.6452 47.2134 19.628 47.2603 19.5954C47.3012 19.5673 47.6542 19.5599 48.8584 19.5616C49.7085 19.563 50.4298 19.5753 50.4613 19.5888C50.4927 19.6022 50.5088 19.6143 50.497 19.6154C50.4853 19.6165 50.5122 19.6721 50.5572 19.7391C50.6021 19.8061 50.6576 19.8799 50.6802 19.9037C50.7028 19.9275 50.765 20.0111 50.8179 20.0898C50.8706 20.1685 50.9802 20.3165 51.0609 20.419C51.1419 20.5215 51.3094 20.7468 51.4336 20.92C51.5575 21.0933 51.6732 21.2479 51.6906 21.2636C51.7081 21.2793 51.7851 21.389 51.8618 21.507C51.9385 21.6252 52.0542 21.7849 52.1186 21.8625C52.1832 21.9401 52.2554 22.032 52.2788 22.0669C52.3026 22.1019 52.3759 22.2058 52.4423 22.2983C52.5084 22.3905 52.6661 22.6078 52.7929 22.781C52.9194 22.9542 53.0268 23.1088 53.0314 23.1245C53.0362 23.1403 53.0855 23.1079 53.1407 23.0529C53.1962 22.998 53.2858 22.8883 53.3399 22.8096C53.394 22.7309 53.5022 22.5828 53.5804 22.4804C53.6588 22.3779 53.7361 22.2774 53.7521 22.2565C53.7684 22.2356 53.8042 22.1938 53.8317 22.1634C53.8591 22.1331 53.8818 22.1016 53.8818 22.0939C53.8818 22.0861 53.9422 21.9991 54.0163 21.9006C54.0901 21.8021 54.2092 21.6507 54.2811 21.5642C54.3526 21.4777 54.421 21.4036 54.4328 21.3996C54.4445 21.3956 54.4542 21.3733 54.4542 21.3495C54.4542 21.3257 54.4737 21.3 54.4972 21.2922C54.5209 21.2845 54.5401 21.2619 54.5398 21.2421C54.5395 21.2224 54.5656 21.1872 54.5973 21.1634C54.6291 21.1396 54.6552 21.1044 54.6549 21.0847C54.6546 21.0649 54.6643 21.0492 54.6761 21.0495C54.6878 21.05 54.7287 20.9951 54.7668 20.9278C54.8049 20.8605 54.863 20.7697 54.8956 20.7257C54.9285 20.6818 55.0067 20.5839 55.0696 20.5081C55.1326 20.4319 55.2096 20.3392 55.2408 20.3014C55.272 20.2639 55.3415 20.1685 55.3956 20.0898C55.4497 20.0111 55.5016 19.9401 55.511 19.9323C55.5204 19.9246 55.5536 19.8691 55.5851 19.8089C55.6163 19.7491 55.6679 19.6747 55.6993 19.6437C55.7308 19.6125 55.799 19.5779 55.8508 19.5664C55.9026 19.5553 56.5915 19.549 57.3821 19.553V19.553ZM63.2699 19.5659C63.9761 19.5707 64.5614 19.581 64.5712 19.5888C64.5809 19.5965 64.5915 21.9885 64.5949 24.9044C64.5984 27.82 64.5903 30.2163 64.5775 30.2295C64.5643 30.2424 63.9761 30.2533 63.2702 30.2533C62.5644 30.2533 61.9762 30.2427 61.963 30.2295C61.9498 30.2163 61.9347 27.8355 61.9292 24.9388C61.9215 20.9349 61.9272 19.6583 61.953 19.6148C61.9859 19.5584 62.0119 19.5576 63.2699 19.5659V19.5659Z" fill="#89898A"/>
</svg>
