<svg width="117" height="27" viewBox="0 0 117 27" fill="none" xmlns="http://www.w3.org/2000/svg">
<path d="M0.46566 0.539062H8.31729L13.8236 10.7797L19.7815 0.539062H27.3127L17.4363 17.5534V26.4902H9.89781V17.5534L0.46566 0.539062ZM76.6949 6.99226V10.5466H87.5838V16.3006H76.6949V20.1609H88.8002V26.483H69.0982V0.55363H88.8584V6.99226H76.6949ZM55.9369 7.26903C51.8946 7.64049 50.7656 11.559 50.7656 11.559C50.0009 16.439 52.7176 18.1579 52.7176 18.1579C55.4489 20.2992 57.8525 19.2868 57.8525 19.2868V16.6939H55.6237V10.4301H65.4273V26.5048H55.3688C52.2078 26.2499 51.3265 25.5507 51.3265 25.5507C43.4821 21.938 43.5986 13.6494 43.5986 13.6494C43.3437 4.73437 51.3265 1.43494 51.3265 1.43494C51.8946 0.925089 55.3688 0.55363 55.3688 0.55363H65.4273V7.26903H55.9369Z" fill="#707176"/>
<path fill-rule="evenodd" clip-rule="evenodd" d="M45.9805 26.4902H38.8937L37.6263 22.8775H28.9589L27.3711 26.4902H19.84L29.833 0.53898H36.8616L45.9805 26.4902ZM35.2228 16.7375L33.2708 11.7993L31.3552 16.7375H35.2228ZM102.916 27C95.4429 27 89.4049 20.962 89.4049 13.4964C89.4049 6.03075 95.4429 0 102.916 0C110.389 0 116.427 6.03075 116.427 13.4964C116.427 20.962 110.389 27 102.916 27ZM109.187 13.4891C109.187 10.0294 106.39 7.23253 102.93 7.23253C99.4707 7.23253 96.6665 10.0294 96.6665 13.4891C96.6665 16.9487 99.4707 19.7383 102.93 19.7383C106.39 19.7383 109.187 16.9487 109.187 13.4891Z" fill="#707176"/>
</svg>
