<svg width="88" height="34" viewBox="0 0 88 34" fill="none" xmlns="http://www.w3.org/2000/svg">
<g clip-path="url(#clip0_2216_5357)">
<path d="M15.9539 1.58249C12.4826 1.9468 12.2276 2.33712 13.8696 5.47274C15.9956 9.53474 18.2308 13.5395 20.4583 17.6379C20.6665 17.5 20.846 17.4427 20.9189 17.323C23.2348 13.412 25.5429 9.49831 27.8433 5.57943C27.9968 5.31922 28.0957 5.02777 28.2076 4.74674C28.8789 3.04231 28.434 2.29028 26.6202 1.87914C26.0634 1.75164 25.5533 1.41075 25.0225 1.16615C25.5846 1.01522 26.1414 0.744594 26.7061 0.734185C29.3889 0.687346 32.0718 0.713368 35.1424 0.713368C34.7781 1.21819 34.6193 1.67877 34.3825 1.72561C32.5766 2.08471 31.5696 3.3858 30.7083 4.80138C27.7626 9.64663 24.856 14.5179 21.9597 19.3944C21.7542 19.7431 21.6709 20.2115 21.6657 20.6252C21.6397 23.3549 21.6319 26.0872 21.6553 28.8168C21.6787 31.3878 22.6103 32.2933 25.2151 32.3636C25.431 32.3688 25.6704 32.3064 25.8604 32.3792C26.1961 32.5067 26.5005 32.7123 26.8206 32.8866C26.5109 33.0272 26.2013 33.2848 25.8916 33.2874C22.1627 33.316 18.4364 33.3082 14.7075 33.303C12.9744 33.303 11.2388 33.3082 9.50574 33.2509C9.22471 33.2431 8.95408 32.9257 8.67825 32.7513C8.94888 32.6212 9.20649 32.4261 9.49273 32.3766C9.87265 32.309 10.2708 32.3766 10.6611 32.3506C12.735 32.2101 13.5938 31.4606 13.69 29.4075C13.8097 26.8548 13.7837 24.2969 13.7837 21.7415C13.7837 21.372 13.6458 20.9687 13.4663 20.6382C10.6221 15.4365 7.7779 10.2321 4.88689 5.0564C3.99694 3.46647 3.09139 1.8245 0.934183 1.65796C0.772849 1.64495 0.49962 1.32228 0.520438 1.17916C0.54646 1.00221 0.806677 0.825261 1.00184 0.723777C1.13976 0.653518 1.34272 0.705561 1.51447 0.705561C6.02403 0.705561 10.531 0.695153 15.0406 0.726379C15.4283 0.728981 15.8134 1.01002 16.1985 1.16354C16.1153 1.30406 16.0346 1.44198 15.9513 1.58249H15.9539Z" fill="#003499"/>
<path d="M86.4105 26.0687C86.6447 27.5468 86.5015 28.736 85.2421 29.8731C81.2607 33.4641 76.5664 34.3306 71.4558 33.9013C63.9979 33.2742 58.4527 28.546 56.7092 21.3302C54.3126 11.4107 61.9812 0.926535 72.1662 0.0964412C75.3512 -0.163776 78.3645 0.372272 81.3102 1.50682C81.8749 1.7254 82.4369 1.95439 83.0172 2.12353C84.5837 2.57891 85.2187 2.24063 85.864 0.744382C85.9915 0.452939 86.3142 0.244765 86.5484 -0.00244141C86.7097 0.299411 87.0064 0.598661 87.009 0.900513C87.0402 4.06476 87.0376 7.2316 87.0038 10.3984C87.0011 10.7029 86.7175 11.0021 86.564 11.304C86.2986 11.0308 85.89 10.7992 85.7937 10.4739C84.9064 7.48922 83.3295 5.02236 80.5582 3.48447C75.0051 0.4061 68.3852 3.02389 66.2384 9.23527C64.3726 14.6296 64.5548 20.1072 66.4778 25.4234C68.7053 31.5827 75.7962 33.6437 81.6927 29.92C83.3581 28.8687 84.7737 27.4219 86.4105 26.0661V26.0687Z" fill="#003499"/>
<path d="M36.3653 32.4698C37.1745 32.3683 37.9916 32.3137 38.7879 32.155C39.9276 31.9286 40.612 31.226 40.7317 30.0342C40.7629 29.7323 40.8488 29.4331 40.8488 29.1338C40.8462 21.0281 40.8878 12.9197 40.7942 4.81392C40.7681 2.5188 39.7429 1.73815 37.4321 1.66009C37.0939 1.64968 36.753 1.62886 36.4147 1.61325C36.347 1.49355 36.282 1.37645 36.2143 1.25675C36.4876 1.072 36.7608 0.731111 37.034 0.728509C42.1941 0.697283 47.3542 0.699885 52.5143 0.728509C52.7694 0.728509 53.0218 1.02776 53.2742 1.18649C53.027 1.34522 52.798 1.58202 52.53 1.64447C51.9861 1.76678 51.4136 1.76157 50.8672 1.86566C49.7222 2.08684 49.0196 2.7582 48.8765 3.95C48.8193 4.42099 48.7282 4.89459 48.7282 5.36818C48.7204 13.1721 48.7126 20.9786 48.7334 28.7825C48.736 29.9067 48.7256 31.1583 49.933 31.736C50.685 32.0951 51.5854 32.1315 52.405 32.3631C52.7173 32.4516 52.9931 32.678 53.2846 32.8419C52.9775 32.9929 52.6705 33.2739 52.3634 33.2765C47.2918 33.3051 42.2175 33.3077 37.1459 33.2791C36.8362 33.2791 36.5266 32.9851 36.2169 32.8263C36.269 32.7092 36.321 32.5895 36.3705 32.4724L36.3653 32.4698Z" fill="#003499"/>
</g>
<defs>
<clipPath id="clip0_2216_5357">
<rect width="86.5093" height="34" fill="white" transform="translate(0.520363)"/>
</clipPath>
</defs>
</svg>
