<svg width="125" height="50" viewBox="0 0 125 50" fill="none" xmlns="http://www.w3.org/2000/svg">
<g clip-path="url(#clip0_38_248)">
<g clip-path="url(#clip1_38_248)">
<path d="M48.2643 23.814C48.2262 24.1301 48.2003 24.4499 48.1855 24.7721L36.83 24.6635C36.8657 23.809 36.9445 22.9645 37.064 22.1348L48.2643 23.814Z" fill="#149DDF"/>
<path d="M48.8888 21.0112C48.7853 21.3186 48.6929 21.6298 48.6104 21.9459L37.5898 19.4875C37.8005 18.6603 38.0517 17.8491 38.3424 17.0576L48.8888 21.0112Z" fill="#149DDF"/>
<path d="M50.0945 18.3825C49.9258 18.6652 49.7681 18.9554 49.6216 19.2517L39.4065 14.5746C39.7834 13.8091 40.1984 13.067 40.6492 12.3484L50.0945 18.3825Z" fill="#149DDF"/>
<path d="M51.8348 16.0477C51.6069 16.2934 51.3889 16.5465 51.182 16.8083L42.2035 10.1371C42.7306 9.46665 43.291 8.82336 43.8822 8.21094L51.8348 16.0477Z" fill="#149DDF"/>
<path d="M54.0407 14.1165C53.7635 14.3104 53.4938 14.5153 53.2315 14.7302L45.8615 6.36493C46.5154 5.81672 47.1978 5.30184 47.9047 4.82153L54.0407 14.1165Z" fill="#149DDF"/>
<path d="M56.6197 12.689C56.3019 12.8212 55.9915 12.9656 55.6873 13.1212L50.2263 3.42493C50.9801 3.02365 51.756 2.66064 52.5529 2.33838L56.6197 12.689Z" fill="#149DDF"/>
<path d="M59.4585 11.8435C59.1161 11.9052 58.7787 11.9805 58.4461 12.0682L55.1183 1.45575C55.9398 1.22239 56.7773 1.02977 57.6296 0.880371L59.4585 11.8435Z" fill="#149DDF"/>
<path d="M62.9083 0.516051L62.423 11.6285C62.2641 11.6211 62.104 11.6187 61.9427 11.6187C61.753 11.6187 61.5658 11.6224 61.3786 11.631L60.3243 0.556797C60.8798 0.518521 61.4414 0.5 62.0067 0.5C62.3085 0.5 62.609 0.504939 62.9083 0.516051Z" fill="#149DDF"/>
<path d="M68.1588 1.25813L65.3729 12.0508C65.0354 11.9632 64.6942 11.8891 64.3481 11.8298L65.6167 0.756836C66.4789 0.881543 67.3274 1.04946 68.1588 1.25813Z" fill="#149DDF"/>
<path d="M73.1444 3.09543L68.1662 13.1053C67.8546 12.9473 67.5368 12.8003 67.2117 12.667L70.76 2.06567C71.5753 2.36818 72.3709 2.71267 73.1444 3.09543Z" fill="#149DDF"/>
<path d="M77.6398 5.94759L70.6627 14.7388C70.393 14.5166 70.1146 14.3054 69.8276 14.1054L75.5202 4.43506C76.2542 4.90302 76.9612 5.40802 77.6398 5.94759Z" fill="#149DDF"/>
<path d="M81.4443 9.6825L72.7503 16.8661C72.5347 16.5932 72.3081 16.3278 72.0717 16.0722L79.6843 7.75757C80.3038 8.36875 80.8913 9.01081 81.4443 9.6825Z" fill="#149DDF"/>
<path d="M84.3854 14.1374L74.3279 19.3838C74.1777 19.0726 74.0151 18.7664 73.8402 18.4688L83.0663 11.8816C83.5442 12.6088 83.9851 13.3608 84.3854 14.1374Z" fill="#149DDF"/>
<path d="M86.3252 19.1122L75.328 22.1693C75.248 21.8347 75.1556 21.505 75.0497 21.1803L85.5099 16.6304C85.8239 17.4379 86.0961 18.2664 86.3252 19.1122Z" fill="#149DDF"/>
<path d="M87.17 24.3845L75.7098 25.0858C75.7024 24.745 75.6814 24.4067 75.6482 24.0721L86.8966 21.7878C87.0321 22.6398 87.1245 23.5066 87.17 24.3845Z" fill="#149DDF"/>
<path d="M68.0503 16.0501C66.9751 16.0538 65.629 17.4354 65.3654 18.4812C64.9331 18.1516 62.9095 17.6132 61.2087 18.6208C59.8539 19.4221 59.2504 20.2889 58.7627 21.7878C60.5103 19.9024 62.6386 19.6888 65.1326 20.2975C65.1425 20.3 64.7003 21.8496 64.6301 21.9767C64.3924 22.4101 64.2717 22.8559 63.949 23.23C63.3246 23.9523 62.5068 24.5425 61.5584 24.7302C60.4561 24.9487 59.1802 24.6301 58.2158 24.0795C57.1234 23.4559 56.3191 22.4348 56.0408 21.2001C55.8462 20.3407 55.8831 19.427 56.1639 18.5911C56.228 18.401 56.3056 18.2145 56.3942 18.0343C56.898 17.0119 57.8131 16.3069 58.7836 15.7562C59.844 15.1549 61.0498 14.8203 62.2703 14.8203C63.2692 14.8203 64.2188 15.0277 65.0821 15.4006C65.0255 15.3759 64.9368 15.1055 64.9035 15.0438C64.3271 13.9782 63.1645 13.409 62.0018 13.2127C59.8822 12.8546 57.6616 13.4238 56.0346 14.84C55.0419 15.7031 54.2882 16.8354 53.8904 18.1269C53.6871 18.7912 53.5763 19.4986 53.5763 20.2308C53.5763 21.873 54.1281 23.3843 55.0592 24.5894C55.4287 25.0672 55.8585 25.4982 56.3351 25.8686C56.4595 25.9649 56.5901 26.0599 56.7219 26.1488C57.2564 26.5082 57.8389 26.7971 58.4609 27.002C59.8699 27.4663 61.4205 27.4749 62.8344 27.0243C64.5648 26.4736 66.0477 25.2487 66.9209 23.6522C67.7153 22.2027 67.538 20.7309 67.7215 19.1245C67.7646 18.7455 67.921 18.338 68.1599 18.0417C68.4038 17.7379 68.9211 17.4428 69.3103 17.4354C69.7007 17.428 70.0813 17.5354 70.4557 17.6441C70.1847 16.6008 69.1268 16.0464 68.0503 16.0501ZM68.075 17.2354C67.9087 17.2354 67.7732 17.0996 67.7732 16.9329C67.7732 16.7662 67.9087 16.6316 68.075 16.6316C68.2412 16.6316 68.3767 16.7662 68.3767 16.9329C68.3767 17.0996 68.2412 17.2354 68.075 17.2354Z" fill="#585558"/>
<path d="M86.3363 28.022C85.3312 40.5828 74.8612 50.4667 62.0807 50.5001C49.3001 50.4667 38.8289 40.584 37.8239 28.022C38.0911 27.3219 38.9742 26.97 39.6676 27.4442C40.6603 28.1208 41.8106 28.9024 42.626 29.4444C43.4992 30.0247 44.4155 30.5495 45.3712 30.9866C48.1646 32.4497 51.5478 32.7028 54.5382 31.6681C55.2316 31.4274 56.2822 30.8693 56.8672 30.4248C58.0643 29.516 58.9955 28.5381 60.5621 28.1628C61.056 28.0442 61.5671 27.9788 62.0794 27.9701C62.593 27.9788 63.1041 28.0442 63.598 28.1628C65.1647 28.5381 66.0945 29.516 67.2917 30.4248C67.8779 30.8693 68.9285 31.4274 69.6219 31.6681C72.6123 32.7041 75.9955 32.4497 78.7901 30.9853C79.7446 30.5495 80.6609 30.0235 81.5329 29.4444C82.3483 28.9024 83.4986 28.1208 84.4925 27.4442C85.1859 26.97 86.069 27.3219 86.3363 28.022Z" fill="url(#paint0_radial_38_248)"/>
<path d="M46.0203 37.3232C46.1041 37.2898 47.869 35.5871 47.869 35.5871L47.5352 35.4303L47.0869 35.2204C47.0869 35.2204 46.9366 32.7658 45.0387 32.8498C44.3465 32.8806 43.6334 33.1041 43.0422 33.4671C42.3242 33.9092 41.6911 34.3993 41.4264 35.2377C41.1061 36.2502 41.43 37.3478 42.2639 38.0035C42.8723 38.4826 43.6851 38.6653 44.4315 38.8073L44.7406 38.1233C44.1852 38.0035 43.61 37.8738 43.1531 37.5343C42.9055 37.3503 42.7023 37.1108 42.5422 36.8466C42.408 36.6231 42.3008 36.3774 42.2749 36.1181C42.2417 35.7847 42.2306 35.2562 42.4116 34.9735C42.8612 34.2759 43.5952 33.9536 44.3786 33.8067C45.1779 33.656 45.9119 34.0339 46.1127 34.5339C46.3134 35.034 46.4206 35.7464 46.3381 35.9464C46.2555 36.1465 45.588 36.8379 45.588 36.8379L46.0215 37.3219L46.0203 37.3232Z" fill="#ECFFB2"/>
<path d="M48.5439 36.9453L50.3975 38.3628L49.9861 38.8641L49.3248 38.3912L49.3383 40.3099L50.9751 39.9062L50.5625 39.4234L51.0022 38.8641L52.6514 40.347L51.9912 40.8149L51.607 40.4433L49.1203 41.2829L47.869 42.509L48.4331 43.114L48.0217 43.5832L46.2629 42.2188L46.662 41.6681L47.1977 42.1089L48.4885 40.6766L48.5845 37.9504L48.1584 37.4972L48.5439 36.9453Z" fill="#ECFFB2"/>
<path d="M53.5676 40.4248L53.2388 41.0372L53.8497 41.3508L52.3779 45.2427L51.3914 45.3834V45.6971L55.1638 47.2664L56.51 45.6032L55.9619 45.1958L54.851 46.1527L53.16 45.4785L54.9446 41.7916C54.9446 41.7916 55.5555 41.9176 55.5703 41.8707C55.585 41.8237 55.9151 41.3212 55.9151 41.3212L53.5676 40.4273V40.4248Z" fill="#ECFFB2"/>
<path d="M63.5869 44.6708C63.5709 43.8781 63.5549 43.0867 63.5389 42.294L62.758 42.2137C62.7297 42.2112 62.6989 42.2088 62.6767 42.2248C62.6583 42.2384 62.6496 42.2631 62.6422 42.2853C62.6004 42.4113 62.5597 42.5384 62.5179 42.6644C62.0277 42.5051 61.5326 42.3446 61.0202 42.3001C60.5078 42.2557 59.9672 42.3409 59.5435 42.6335C58.4486 43.3929 58.2121 44.8461 58.5237 46.0092C58.9264 47.5181 60.6877 48.7071 62.1644 48.0527C62.8713 47.7391 63.1682 47.4069 63.6448 46.8118C63.4921 46.613 63.4736 46.3797 63.3209 46.1809C62.9538 46.6167 62.6829 46.7995 62.1693 47.0452C61.7222 47.2588 61.2012 47.3378 60.7382 47.1316C60.0053 46.8044 59.3674 46.0117 59.3563 45.2388C59.3477 44.6399 59.4326 44.2201 59.7245 43.6979C59.8366 43.4978 60.3773 43.1509 60.5891 43.0669C61.0461 42.8879 61.652 43.0731 62.0437 43.3336C62.4809 43.6238 62.7088 44.13 62.9588 44.5708C62.9797 44.6066 63.0019 44.6449 63.0388 44.6634C63.0696 44.6795 63.1066 44.6782 63.1411 44.6782C63.2901 44.6745 63.4379 44.672 63.5869 44.6683V44.6708Z" fill="#ECFFB2"/>
<path d="M68.0085 41.1199C66.379 41.3669 65.4024 42.9584 65.6524 44.6154C65.9024 46.2724 67.2843 47.3701 68.9137 47.1231C70.5419 46.8762 71.659 45.3328 71.409 43.6746C71.159 42.0163 69.6367 40.8742 68.0085 41.1199ZM68.8644 46.4119C67.7363 46.5823 66.8741 45.56 66.7005 44.4105C66.5268 43.2609 67.0232 42.0139 68.1501 41.8435C69.277 41.6731 70.1909 42.6979 70.3646 43.845C70.5382 44.992 69.9914 46.2403 68.8644 46.4107V46.4119Z" fill="#ECFFB2"/>
<path d="M74.6667 43.583L74.307 43.9398L74.8083 44.4572L76.4833 43.1867L75.8576 42.5594L75.3958 42.8891L73.1493 40.19L77.9071 41.6643L78.3295 41.3037C78.3295 41.3037 75.4968 37.6946 75.4808 37.6317C75.4648 37.5687 75.95 37.1291 75.9352 37.0662C75.9205 37.0032 75.5128 36.4858 75.5128 36.4858L73.8846 37.9761L74.3193 38.433L74.9647 37.9761L76.1224 39.985L72.9449 38.8627L71.207 40.2628L71.5667 40.5962L72.3019 40.2628L74.6654 43.5818L74.6667 43.583Z" fill="#ECFFB2"/>
<path d="M80.3235 38.1626L80.0661 38.5997L80.6819 38.9726L81.9776 37.3144L81.2128 36.8674L80.8507 37.3045L77.9908 35.2709L82.9666 35.4783L83.2831 35.0215C83.2831 35.0215 79.624 32.2582 79.5932 32.2014C79.5624 32.1446 79.9196 31.5951 79.8875 31.5396C79.8555 31.484 79.3308 31.0864 79.3308 31.0864L78.1374 32.9447L78.6744 33.2756L79.1818 32.6681L80.8137 34.3128L77.4563 34.0423L76.1335 35.8413L76.5671 36.071L77.1927 35.5598L80.3235 38.1626Z" fill="#ECFFB2"/>
</g>
</g>
<defs>
<radialGradient id="paint0_radial_38_248" cx="0" cy="0" r="1" gradientUnits="userSpaceOnUse" gradientTransform="translate(62.7507 33.2634) scale(17.4533 17.4972)">
<stop stop-color="white"/>
<stop offset="0.71" stop-color="#94C20D"/>
<stop offset="1" stop-color="#3EAB33"/>
</radialGradient>
<clipPath id="clip0_38_248">
<rect width="125" height="50" fill="white"/>
</clipPath>
<clipPath id="clip1_38_248">
<rect width="50.3401" height="50" fill="white" transform="translate(36.83 0.5)"/>
</clipPath>
</defs>
</svg>
