<svg width="125" height="50" viewBox="0 0 125 50" fill="none" xmlns="http://www.w3.org/2000/svg">
<path d="M116.095 40.1855H37.7742L37.7517 25.3906C37.739 17.254 37.781 10.5551 37.8445 10.5029C37.9133 10.4521 55.5493 10.4102 116.095 10.4102V40.1855ZM36.9998 10.4795L37.0701 40.1846H7.99979V25.2969L8.00076 10.4072L36.9998 10.4795ZM31.0017 21.1895C30.5742 21.174 29.9391 21.2507 29.5906 21.3594C29.2407 21.4681 28.6696 21.7652 28.3211 22.0205C27.8794 22.3436 27.5447 22.7616 27.2244 23.3965C26.8406 24.1542 26.7631 24.4637 26.7674 25.2256C26.7716 25.7293 26.8516 26.3827 26.9461 26.6777L27.1209 27.2129L24.2986 30.0195C23.1645 29.6669 22.6099 29.6056 22.1824 29.6465C21.7944 29.6832 21.2223 29.8214 20.9119 29.9512C20.5676 30.0951 20.0557 30.529 19.6013 31.0596C19.1457 31.5886 18.7657 32.2034 18.6287 32.6338C18.4805 33.0952 18.4252 33.6334 18.4676 34.1865C18.5169 34.8074 18.6687 35.2786 19.0369 35.9502C19.3473 36.516 19.7475 37.0147 20.0847 37.249C20.3838 37.4592 20.8836 37.7368 21.1941 37.8652C21.6062 38.036 22.0258 38.0831 22.7469 38.0352C23.369 37.9956 23.943 37.861 24.2986 37.6748C24.609 37.5126 25.031 37.232 25.2371 37.0527C25.4431 36.8735 25.7991 36.3764 26.0291 35.9502C26.259 35.5213 26.49 34.8273 26.5437 34.3984C26.6072 33.8834 26.5718 33.3607 26.4363 32.8457L26.2332 32.0693L29.0291 29.1064C29.8475 29.3703 30.4658 29.4493 30.9314 29.4521C31.5296 29.455 31.9837 29.3597 32.4832 29.127C32.8712 28.9449 33.411 28.5761 33.6834 28.3037C33.9543 28.0313 34.3333 27.4958 34.5252 27.1162C34.8059 26.5575 34.8726 26.2213 34.867 25.3662C34.8613 24.6285 34.774 24.1158 34.5779 23.6729C34.424 23.3243 34.0799 22.7937 33.8133 22.4961C33.548 22.1984 32.9806 21.7891 32.5545 21.5859C32.0592 21.3503 31.497 21.2078 31.0017 21.1895ZM50.8992 22.6855L50.9012 25.8955C50.9026 28.9686 50.9168 29.1358 51.2342 29.8115C51.416 30.1992 51.685 30.6268 51.8318 30.7627C51.9786 30.8967 52.3842 31.0928 52.7342 31.1973C53.0826 31.3016 53.6706 31.3652 54.0388 31.3398C54.4072 31.3144 54.9637 31.1669 55.2742 31.0117C55.5844 30.8566 55.9167 30.6067 56.0144 30.457C56.1117 30.3062 56.2604 30.2269 56.3465 30.2803C56.4311 30.3325 56.5642 30.567 56.6404 30.7998C56.7758 31.2158 56.796 31.2225 57.8611 31.2578L58.9431 31.2939V22.6855H56.1209C56.1209 26.0761 56.0569 27.3774 55.9793 27.7656C55.8777 28.2736 55.7294 28.5518 55.45 28.7578C55.2369 28.9157 54.9352 29.0455 54.7801 29.0469C54.6248 29.0468 54.3386 28.9238 54.1453 28.7715L53.7928 28.4971L53.7303 22.6855H50.8992ZM68.5388 22.6855V25.7549C68.5403 27.4422 68.6012 29.0455 68.6746 29.3184C68.7495 29.5907 68.9555 30.0334 69.1346 30.3057C69.3137 30.578 69.681 30.9108 69.9519 31.0449C70.2228 31.1803 70.729 31.3129 71.0789 31.3369C71.4274 31.3623 71.9686 31.3285 72.2791 31.2607C72.5895 31.1929 73.0813 30.9501 73.3719 30.7217C73.6624 30.4932 73.9495 30.3048 74.0076 30.3018C74.0655 30.301 74.1783 30.5064 74.2586 30.7598L74.4051 31.2227L76.5828 31.2939V22.6855H73.7605C73.7605 26.0761 73.6965 27.3774 73.6189 27.7656C73.5173 28.2736 73.369 28.5518 73.0896 28.7578C72.8766 28.9157 72.5749 29.0455 72.4197 29.0469C72.2644 29.0468 71.9782 28.9238 71.7849 28.7715L71.4324 28.4971L71.3699 22.6855H68.5388ZM48.2185 20.2861C47.2779 20.2861 46.6665 20.3417 46.6658 20.4277C46.6651 20.5067 46.269 21.4035 45.784 22.4229L44.9021 24.2783L43.0672 20.2891C40.7184 20.2862 40.0361 20.3348 40.0349 20.3926C40.037 20.4513 40.2018 20.785 40.4031 21.1328C40.6049 21.4813 41.35 22.8799 42.0584 24.2373L43.3465 26.707L43.491 31.2227L46.3836 31.2939V26.9189C47.6238 24.4583 48.3856 22.9976 48.8767 22.0859C49.366 21.1777 49.7674 20.4021 49.7703 20.3574C49.7685 20.318 49.071 20.2861 48.2185 20.2861ZM60.4949 22.6855V24.9434C62.9831 24.9434 63.5977 24.9982 63.6004 25.084C63.6004 25.1616 62.869 26.1778 61.9773 27.3418L60.3543 29.459V31.2939H67.1277V28.8945C64.6867 28.8945 63.996 28.8355 63.9529 28.7539C63.9144 28.6751 64.5813 27.6903 65.4344 26.5664L66.9871 24.5195V22.6855H60.4949ZM78.5584 19.5811V31.2939H81.3806L81.3826 28.8242C82.3191 28.1698 82.41 28.1496 82.5242 28.3301C82.5963 28.4461 82.858 28.891 83.1062 29.3184C83.3545 29.7458 83.6925 30.3477 83.8562 30.6582L84.1551 31.2227C86.5978 31.2777 87.3074 31.2622 87.3074 31.2227C87.3058 31.1804 87.1047 30.7849 86.8601 30.3408C86.6145 29.8947 85.9472 28.8156 85.3787 27.9424L84.3445 26.3545C85.2941 25.2059 85.7693 24.5858 86.0135 24.2373C86.2589 23.8889 86.6344 23.3941 86.8474 23.1387L87.2371 22.6729L84.1326 22.6758C83.1394 23.9412 82.7429 24.4677 82.6101 24.6611C82.4789 24.8559 82.1471 25.3317 81.8748 25.7197C81.6028 26.1073 81.3766 26.361 81.3719 26.2842C81.369 26.2047 81.3695 24.6651 81.3709 22.8613L81.3767 19.5811H78.5584ZM88.4353 22.6855V31.2939H91.2576V22.6855H88.4353ZM93.5164 20.2861V31.2939H96.3387V26.7773H99.7263L99.7967 31.2227L102.689 31.2939V20.2861H99.7263V24.2373H96.3387V20.2861H93.5164ZM104.944 20.2861L104.981 25.7549L105.017 31.2227C107.423 31.2862 108.663 31.2376 109.322 31.1543C109.981 31.0725 110.791 30.8784 111.121 30.7246C111.451 30.5722 112.051 30.1138 112.453 29.7061C112.856 29.2983 113.342 28.6171 113.533 28.1895C113.811 27.5686 113.894 27.1035 113.949 25.8604C114.004 24.6456 113.967 24.139 113.778 23.5322C113.647 23.1048 113.331 22.4697 113.079 22.1211C112.78 21.7078 112.326 21.3308 111.782 21.043C111.322 20.7989 110.612 20.5294 110.204 20.4434C109.796 20.3573 108.446 20.2861 107.204 20.2861H104.944ZM22.6756 12.7139C22.1479 12.6871 21.4892 12.7539 21.1238 12.8682C20.7753 12.9782 20.171 13.3475 19.783 13.6904C19.3273 14.0925 18.9594 14.5824 18.7449 15.0762C18.4571 15.7365 18.4214 15.9852 18.492 16.8994C18.5371 17.4807 18.5924 18.1273 18.615 18.335C18.6473 18.6439 18.4067 18.9671 17.2781 20.1338L15.9021 21.5566C15.136 21.2293 14.5814 21.1318 14.1736 21.1318C13.7658 21.1304 13.1154 21.2379 12.7273 21.3691C12.259 21.5272 11.7818 21.8483 11.3064 22.3223C10.8323 22.7978 10.5104 23.2757 10.3523 23.7441C10.2212 24.1321 10.1152 24.8626 10.118 25.3662C10.1208 25.9776 10.2181 26.4956 10.4099 26.9189C10.5666 27.2675 10.9311 27.7979 11.2176 28.0957C11.5054 28.3934 12.0417 28.7898 12.4099 28.9775C12.7782 29.1638 13.3825 29.3563 13.7508 29.4043C14.1726 29.4578 14.7076 29.4098 15.1971 29.2744C15.6246 29.1558 16.2597 28.8439 16.6082 28.5801C16.9567 28.3176 17.4319 27.7881 17.6619 27.4043C17.9906 26.8569 18.0954 26.4942 18.1433 25.7197C18.1814 25.1076 18.1293 24.4738 18.0066 24.0547L17.8074 23.377L20.6297 20.5479C21.6129 20.8751 22.248 20.9523 22.6756 20.9326C23.103 20.9129 23.7381 20.7715 24.0867 20.6191C24.4353 20.4667 24.979 20.0914 25.2937 19.7852C25.6421 19.4465 25.9879 18.9093 26.1756 18.417C26.3632 17.926 26.4856 17.285 26.4871 16.7939C26.4885 16.3482 26.3947 15.6963 26.2791 15.3477C26.1633 14.9977 25.854 14.4579 25.5916 14.1475C25.3305 13.8371 24.7733 13.3981 24.3543 13.1709C23.7842 12.8619 23.3628 12.7477 22.6756 12.7139ZM108.828 22.5811C109.216 22.6163 109.742 22.7654 109.998 22.9121C110.253 23.0588 110.585 23.4337 110.736 23.7441C110.946 24.173 111.012 24.612 111.013 25.5781C111.016 26.6208 110.96 26.9597 110.699 27.4746C110.524 27.8189 110.199 28.2331 109.979 28.3926C109.718 28.5829 109.301 28.6994 108.78 28.7305C108.217 28.7643 107.95 28.7239 107.878 28.5898C107.82 28.4834 107.759 27.1573 107.744 25.6416C107.719 23.3831 107.75 22.8509 107.918 22.7012C108.05 22.5827 108.369 22.5401 108.828 22.5811ZM30.7547 23.8203C30.89 23.8175 31.1764 23.9002 31.3894 24.0059C31.6109 24.1159 31.8778 24.4325 32.0105 24.7471C32.1558 25.0898 32.2098 25.4497 32.1521 25.7051C32.1013 25.9309 31.8847 26.2642 31.6717 26.4463C31.4247 26.6564 31.103 26.7773 30.7898 26.7773C30.4288 26.7773 30.1818 26.6634 29.8728 26.3545C29.6118 26.0935 29.4479 25.7828 29.4451 25.543C29.4438 25.3298 29.5493 24.9386 29.6805 24.6748C29.8117 24.4124 30.0524 24.1137 30.2146 24.0107C30.3754 23.9078 30.6192 23.8218 30.7547 23.8203ZM14.1033 23.8184C14.3162 23.8156 14.6334 23.8806 14.8084 23.9609C14.9833 24.0414 15.201 24.2786 15.2928 24.4902C15.3843 24.7002 15.4718 24.9666 15.4861 25.084C15.5002 25.1996 15.5043 25.4383 15.4959 25.6133C15.486 25.7882 15.324 26.0894 15.1336 26.2842C14.8725 26.5495 14.6348 26.6383 14.1805 26.6426C13.7008 26.6468 13.4923 26.5643 13.1805 26.2539C12.9083 25.9803 12.7891 25.721 12.7918 25.4023C12.7946 25.1499 12.9018 24.756 13.0301 24.5273C13.157 24.2988 13.3649 24.0459 13.489 23.9668C13.6132 23.8878 13.8902 23.8212 14.1033 23.8184ZM90.201 19.3857C89.8905 19.3547 89.4455 19.3844 89.2127 19.4521C88.9799 19.5199 88.7089 19.6883 88.6101 19.8252C88.5129 19.9621 88.4321 20.313 88.4334 20.6035C88.4362 20.9774 88.5401 21.2366 88.7898 21.4863C89.062 21.7583 89.2878 21.8388 89.7771 21.8389C90.1271 21.8389 90.5875 21.7523 90.8006 21.6465C91.0134 21.5407 91.2357 21.3506 91.2937 21.2236C91.3516 21.0966 91.4002 20.8012 91.4002 20.5684C91.4 20.3271 91.2632 19.9942 91.0828 19.7939C90.874 19.5627 90.5733 19.4239 90.201 19.3857Z" fill="white"/>
</svg>
