<svg width="189" height="43" viewBox="0 0 189 43" fill="none" xmlns="http://www.w3.org/2000/svg">
<path d="M104.963 23.6762L100.005 29.5742L109.335 40.6637C109.653 41.0525 110.046 41.3741 110.49 41.61C110.934 41.8459 111.42 41.9914 111.92 42.038C112.421 42.0846 112.925 42.0314 113.405 41.8815C113.885 41.7317 114.33 41.4881 114.715 41.1649C115.1 40.8417 115.417 40.4453 115.648 39.9987C115.878 39.5521 116.018 39.0641 116.059 38.5632C116.099 38.0622 116.04 37.5581 115.885 37.0801C115.729 36.6022 115.48 36.1598 115.153 35.7787L104.963 23.6762ZM115.153 6.27554C115.803 5.50314 116.12 4.50399 116.034 3.49789C115.948 2.49179 115.465 1.56116 114.693 0.910715C113.92 0.260274 112.921 -0.0566923 111.915 0.0295448C110.909 0.115782 109.978 0.598158 109.328 1.37056L99.9979 12.4601L104.956 18.3647L115.153 6.27554ZM88.975 4.70275L88.935 4.64943L86.2293 1.37056C85.5774 0.612612 84.6531 0.142172 83.6567 0.0612498C82.6602 -0.0196726 81.6721 0.295446 80.9065 0.938275C80.1409 1.5811 79.6595 2.49982 79.5668 3.4952C79.4741 4.49058 79.7775 5.48239 80.4113 6.25555L92.8137 21.0305L80.4113 35.7787C80.0888 36.1608 79.8447 36.6025 79.6929 37.0789C79.5411 37.5553 79.4847 38.0568 79.5268 38.555C79.5688 39.0532 79.7086 39.5382 79.9381 39.9823C80.1677 40.4265 80.4824 40.8211 80.8644 41.1436C81.636 41.7949 82.6346 42.1131 83.6407 42.0281C84.1389 41.986 84.6239 41.8462 85.068 41.6167C85.5122 41.3872 85.9068 41.0724 86.2293 40.6904L88.935 37.4715L88.975 37.4182L102.73 21.0305L88.975 4.70275Z" fill="white"/>
<path d="M28.4758 34.3994H10.9418L20.7584 21.0707L31.3481 6.62899C31.6476 6.22658 31.8642 5.76875 31.9855 5.28203C32.1068 4.79531 32.1303 4.28936 32.0547 3.79349C31.9791 3.29762 31.8058 2.82168 31.545 2.39323C31.2841 1.96478 30.9409 1.59234 30.5351 1.29748C29.9275 0.861549 29.2033 0.6178 28.4558 0.597724H3.61765C2.70481 0.637329 1.84249 1.02782 1.21056 1.68777C0.578634 2.34771 0.225883 3.22614 0.225883 4.13984C0.225883 5.05355 0.578634 5.93198 1.21056 6.59192C1.84249 7.25186 2.70481 7.64235 3.61765 7.68196H21.185L11.3683 21.0107L0.745306 35.4458C0.334916 35.9989 0.0832268 36.6536 0.0173535 37.3392C-0.0485198 38.0248 0.0739191 38.7154 0.37148 39.3365C0.669042 39.9577 1.13045 40.4859 1.70599 40.8643C2.28153 41.2426 2.9494 41.4568 3.63765 41.4837H28.4758C29.3886 41.4441 30.2509 41.0536 30.8829 40.3936C31.5148 39.7337 31.8676 38.8553 31.8676 37.9416C31.8676 37.0279 31.5148 36.1494 30.8829 35.4895C30.2509 34.8295 29.3886 34.4391 28.4758 34.3994ZM185.375 34.3994H169.801V3.8566C169.801 2.84913 169.4 1.88292 168.688 1.17052C167.976 0.458128 167.009 0.0579095 166.002 0.0579095C164.994 0.0579095 164.028 0.458128 163.316 1.17052C162.603 1.88292 162.203 2.84913 162.203 3.8566V37.9449C162.203 38.8834 162.576 39.7835 163.24 40.4472C163.903 41.1108 164.803 41.4837 165.742 41.4837H185.362C186.275 41.4441 187.137 41.0536 187.769 40.3936C188.401 39.7337 188.754 38.8553 188.754 37.9416C188.754 37.0279 188.401 36.1494 187.769 35.4895C187.137 34.8295 186.275 34.4391 185.362 34.3994M149.667 34.3994H133.86V24.1096H144.376C145.289 24.07 146.151 23.6795 146.783 23.0196C147.415 22.3597 147.768 21.4812 147.768 20.5675C147.768 19.6538 147.415 18.7754 146.783 18.1155C146.151 17.4555 145.289 17.065 144.376 17.0254H133.86V7.69529H149.667C150.146 7.71603 150.623 7.63978 151.071 7.47112C151.519 7.30246 151.928 7.0449 152.273 6.71394C152.619 6.38298 152.894 5.98548 153.082 5.54538C153.27 5.10528 153.367 4.6317 153.367 4.15317C153.367 3.67464 153.27 3.20106 153.082 2.76096C152.894 2.32086 152.619 1.92336 152.273 1.5924C151.928 1.26144 151.519 1.00388 151.071 0.83522C150.623 0.666564 150.146 0.590311 149.667 0.611053H129.814C128.875 0.611051 127.974 0.983674 127.31 1.64713C126.645 2.31059 126.271 3.21068 126.269 4.14984V37.9382C126.269 38.8785 126.642 39.7803 127.307 40.4452C127.972 41.1101 128.874 41.4837 129.814 41.4837H149.674C150.152 41.5044 150.63 41.4282 151.077 41.2595C151.525 41.0909 151.934 40.8333 152.28 40.5023C152.626 40.1714 152.901 39.7739 153.088 39.3338C153.276 38.8937 153.373 38.4201 153.373 37.9416C153.373 37.463 153.276 36.9895 153.088 36.5494C152.901 36.1093 152.626 35.7118 152.28 35.3808C151.934 35.0498 151.525 34.7923 151.077 34.6236C150.63 34.455 150.152 34.3787 149.674 34.3994M71.6476 0.704354C70.8116 0.142361 69.7865 -0.0645298 68.7979 0.129187C67.8094 0.322904 66.9382 0.901363 66.3761 1.73733L59.4185 12.0671L55.6198 17.7185L51.8411 12.0671L44.8635 1.71734C44.5881 1.29682 44.2319 0.935144 43.8157 0.653285C43.3994 0.371427 42.9314 0.174989 42.4386 0.0753566C41.9459 -0.0242756 41.4383 -0.02512 40.9453 0.0728723C40.4522 0.170865 39.9835 0.365745 39.5663 0.646217C39.1491 0.926689 38.7918 1.28717 38.5149 1.70678C38.2381 2.12638 38.0473 2.59676 37.9536 3.09065C37.8599 3.58453 37.8652 4.09211 37.9691 4.58395C38.073 5.07579 38.2735 5.54211 38.559 5.95588L51.8411 25.6824V38.2315C51.8411 39.2389 52.2413 40.2052 52.9537 40.9175C53.6661 41.6299 54.6323 42.0302 55.6398 42.0302C56.6473 42.0302 57.6135 41.6299 58.3259 40.9175C59.0383 40.2052 59.4385 39.2389 59.4385 38.2315V25.6824L72.7006 5.95588C73.2526 5.11844 73.4516 4.09693 73.2545 3.1135C73.0573 2.13007 72.4798 1.26426 71.6476 0.704354Z" fill="white"/>
</svg>
