<svg width="97" height="34" viewBox="0 0 97 34" fill="none" xmlns="http://www.w3.org/2000/svg">
<path d="M34.6884 22.4251C32.1687 22.4251 30.6843 21.3306 30.6843 19.2412C30.6843 16.7028 33.1853 15.7267 36.5812 15.3962V14.7507C36.5812 13.3068 35.8016 12.6613 34.336 12.6613C33.4192 12.6613 32.4213 12.9357 31.7009 13.3255L31.2893 12.2715C32.1687 11.8193 33.3599 11.5106 34.4919 11.5106C36.7777 11.5106 38.1841 12.5834 38.1841 14.9284V21.683C37.3453 22.132 36.0948 22.4251 34.6884 22.4251ZM36.5812 16.2912C33.9056 16.603 32.3246 17.3452 32.3246 19.2007C32.3246 20.6258 33.204 21.4272 34.8443 21.4272C35.5085 21.4272 36.1727 21.29 36.5812 21.0749V16.2912Z" fill="white"/>
<path d="M46.4294 22.2286V14.9658C46.4294 13.3847 45.7838 12.602 44.0656 12.602C43.3421 12.602 42.7558 12.7205 42.2101 12.9544V22.2286H40.4919V12.2496C41.4679 11.8005 42.7558 11.5074 44.0656 11.5074C46.8971 11.5074 48.1476 12.7361 48.1476 14.9626V22.2286H46.4294Z" fill="white"/>
<path d="M53.0312 22.3285C51.5281 22.3285 50.5115 21.4116 50.5115 19.6715V12.7798H49.3015V11.7039H50.5115V9.28401L52.2297 8.75391V11.7039H54.0665V12.7798H52.2297V19.6715C52.2297 20.5884 52.6788 21.1372 53.5395 21.1372C53.736 21.1372 53.9106 21.1185 54.0665 21.0592V22.1538C53.7921 22.2692 53.4397 22.3285 53.0312 22.3285Z" fill="white"/>
<path d="M67.4789 22.2286V14.8878C67.4789 13.5001 66.8552 12.602 65.3116 12.602C64.4509 12.602 63.7679 12.9918 63.2628 13.5999V22.2286H61.5632V14.6134C61.5632 13.4034 60.899 12.5989 59.3398 12.5989C58.5383 12.5989 57.9521 12.6986 57.3658 12.9512V22.2286H55.6663V12.2496C56.6829 11.8005 57.8523 11.5074 59.2774 11.5074C60.8584 11.5074 61.7566 11.9378 62.4395 12.7361C63.1411 11.9752 64.217 11.5074 65.4675 11.5074C68.0464 11.5074 69.1784 12.8951 69.1784 14.9034V22.2286H67.4789Z" fill="white"/>
<path d="M71.5046 22.2287V18.4897V15.2403V11.704H72.4339H73.2228V14.3827V16.9305V22.2287H72.3809H71.5046Z" fill="white"/>
<path d="M78.9048 22.425C76.3664 22.425 74.8228 20.1767 74.8228 16.9553C74.8228 13.734 76.3851 11.5074 78.9048 11.5074C79.8809 11.5074 80.7011 11.76 81.2686 12.1903L80.8601 13.207C80.4485 12.8951 79.8248 12.6768 79.198 12.6768C77.5203 12.6768 76.5816 14.4949 76.5816 16.9148C76.5816 19.2973 77.539 21.1714 79.198 21.1714C79.8248 21.1714 80.4298 20.975 80.8383 20.6662L81.2686 21.739C80.6979 22.1725 79.8809 22.425 78.9048 22.425Z" fill="white"/>
<path d="M87.0439 12.8577C86.7319 12.7392 86.3609 12.6799 85.971 12.6799C85.5032 12.6799 85.0137 12.7579 84.6426 12.9544V22.2286H82.9243V12.2496C83.8224 11.8005 85.0137 11.5074 86.5169 11.5074C86.9099 11.5074 87.3369 11.5448 87.4339 11.5635L87.0439 12.8577Z" fill="white"/>
<path d="M91.8399 22.425C88.9899 22.425 87.6799 20.1205 87.6799 16.9553C87.6799 13.8119 88.9869 11.5074 91.8399 11.5074C94.6899 11.5074 95.9999 13.8119 95.9999 16.9553C95.9969 20.1205 94.6899 22.425 91.8399 22.425ZM91.8399 12.602C90.0059 12.602 89.3979 14.5759 89.3979 16.9179C89.3979 19.2598 90.0059 21.2712 91.8399 21.2712C93.6769 21.2712 94.2819 19.2598 94.2819 16.9179C94.2819 14.5759 93.6739 12.602 91.8399 12.602Z" fill="white"/>
<path d="M14.4124 17.1175H17.3219C17.4186 17.4762 17.7491 17.735 18.142 17.735C18.6129 17.735 18.9934 17.367 18.9934 16.8961C18.9934 16.4253 18.6129 16.0292 18.142 16.0292C17.746 16.0292 17.4154 16.3099 17.3219 16.6778H14.4124V15.4305H15.7658C15.7658 15.4305 15.878 15.4429 15.9467 15.3899C16.0683 15.2964 16.3801 14.9939 16.3801 14.9939L17.2346 14.1394C17.3531 14.2018 17.484 14.2392 17.6275 14.2392C18.0984 14.2392 18.4819 13.8557 18.4819 13.3848C18.4819 12.9139 18.1015 12.5303 17.6275 12.5303C17.1566 12.5303 16.7762 12.9108 16.7762 13.3848C16.7762 13.5532 16.8261 13.7091 16.9102 13.8432L15.9155 14.8411C15.9155 14.8411 15.7907 14.9596 15.744 14.9783C15.7159 14.9908 15.641 14.9908 15.641 14.9908H14.4217V14.4575V13.0916C14.9799 12.9887 15.4009 12.4991 15.4009 11.9129C15.4009 11.2487 14.8614 10.7123 14.2003 10.7123C13.5361 10.7123 12.9997 11.2487 12.9997 11.9129C12.9997 12.4991 13.4238 12.9887 13.982 13.0916V14.9939C13.982 14.9939 12.6879 14.9939 12.6567 14.9814C12.6068 14.9627 12.4852 14.8442 12.4852 14.8442L11.4873 13.8463C11.5715 13.7153 11.6214 13.5594 11.6214 13.3879C11.6214 12.917 11.2409 12.5334 10.7669 12.5334C10.296 12.5334 9.91248 12.9139 9.91248 13.3879C9.91248 13.8588 10.2929 14.2423 10.7669 14.2423C10.9104 14.2423 11.0414 14.2049 11.1599 14.1426L12.0143 14.997C12.0143 14.997 12.323 15.2995 12.4447 15.3931C12.5133 15.4461 12.6255 15.4336 12.6255 15.4336H13.9789V16.681H11.0694C10.9727 16.313 10.6453 16.0323 10.2493 16.0323C9.77838 16.0323 9.39478 16.4284 9.39478 16.8993C9.39478 17.3701 9.77528 17.7381 10.2493 17.7381C10.6422 17.7381 10.9727 17.4793 11.0694 17.1207H13.9789V18.3369H12.6255C12.6255 18.3369 12.5133 18.3244 12.4447 18.3774C12.323 18.4741 12.0143 18.7734 12.0143 18.7734L11.1599 19.6279C11.0414 19.5655 10.9104 19.5281 10.7669 19.5281C10.296 19.5281 9.91248 19.9117 9.91248 20.3825C9.91248 20.8534 10.2929 21.237 10.7669 21.237C11.2378 21.237 11.6214 20.8565 11.6214 20.3825C11.6214 20.2141 11.5715 20.0582 11.4873 19.9241L12.4852 18.9262C12.4852 18.9262 12.6068 18.8077 12.6567 18.7859C12.6848 18.7734 12.7596 18.7734 12.7596 18.7734H13.982V20.6757C13.4238 20.7786 12.9997 21.2682 12.9997 21.8544C12.9997 22.5156 13.5392 23.055 14.2003 23.055C14.8614 23.055 15.4009 22.5156 15.4009 21.8544C15.4009 21.2682 14.9768 20.7786 14.4217 20.6757V18.7734H15.641C15.641 18.7734 15.7159 18.7734 15.744 18.7859C15.7938 18.8046 15.9155 18.9262 15.9155 18.9262L16.9102 19.9241C16.8261 20.0551 16.7762 20.2141 16.7762 20.3825C16.7762 20.8534 17.1566 21.237 17.6275 21.237C18.0984 21.237 18.4819 20.8565 18.4819 20.3825C18.4819 19.9117 18.1015 19.5281 17.6275 19.5281C17.484 19.5281 17.3531 19.5655 17.2346 19.6279L16.3801 18.7734C16.3801 18.7734 16.0683 18.4709 15.9467 18.3774C15.878 18.3244 15.7658 18.3369 15.7658 18.3369H14.4124V17.6103V17.1175ZM18.142 16.4658C18.3728 16.4658 18.5599 16.6529 18.5599 16.8837C18.5599 17.1144 18.3728 17.3015 18.142 17.3015C17.9113 17.3015 17.7242 17.1144 17.7242 16.8837C17.7242 16.6529 17.9144 16.4658 18.142 16.4658ZM17.6244 12.97C17.8551 12.97 18.0422 13.1571 18.0422 13.3879C18.0422 13.6187 17.8551 13.8058 17.6244 13.8058C17.3936 13.8058 17.2065 13.6187 17.2065 13.3879C17.2065 13.1571 17.3936 12.97 17.6244 12.97ZM10.7607 13.8026C10.5299 13.8026 10.3428 13.6155 10.3428 13.3848C10.3428 13.154 10.5299 12.9669 10.7607 12.9669C10.9915 12.9669 11.1786 13.154 11.1786 13.3848C11.1786 13.6155 10.9915 13.8026 10.7607 13.8026ZM10.2399 17.2984C10.0092 17.2984 9.82198 17.1113 9.82198 16.8805C9.82198 16.6498 10.0092 16.4627 10.2399 16.4627C10.4707 16.4627 10.6578 16.6498 10.6578 16.8805C10.6578 17.1113 10.4707 17.2984 10.2399 17.2984ZM10.7607 20.7942C10.5299 20.7942 10.3428 20.6071 10.3428 20.3763C10.3428 20.1455 10.5299 19.9584 10.7607 19.9584C10.9915 19.9584 11.1786 20.1455 11.1786 20.3763C11.1786 20.6071 10.9915 20.7942 10.7607 20.7942ZM17.6244 19.9584C17.8551 19.9584 18.0422 20.1455 18.0422 20.3763C18.0422 20.6071 17.8551 20.7942 17.6244 20.7942C17.3936 20.7942 17.2065 20.6071 17.2065 20.3763C17.2065 20.1455 17.3936 19.9584 17.6244 19.9584ZM14.1941 22.6091C13.7762 22.6091 13.4363 22.2692 13.4363 21.8513C13.4363 21.4335 13.7762 21.0935 14.1941 21.0935C14.612 21.0935 14.9519 21.4335 14.9519 21.8513C14.9519 22.2692 14.612 22.6091 14.1941 22.6091ZM14.1941 11.152C14.612 11.152 14.9519 11.4919 14.9519 11.9098C14.9519 12.3276 14.612 12.6675 14.1941 12.6675C13.7762 12.6675 13.4363 12.3276 13.4363 11.9098C13.4332 11.4919 13.7762 11.152 14.1941 11.152Z" fill="white"/>
<path d="M27.3695 10.0793C27.3788 9.50866 27.0795 8.97846 26.5836 8.69156L14.9831 1.98383C14.4935 1.70005 13.8916 1.70005 13.402 1.98383L1.7858 8.71026C1.2994 8.99406 1 9.51176 1 10.0762V23.71C1 24.2744 1.2994 24.7952 1.789 25.0759L13.4051 31.7743C13.8916 32.0581 14.4935 32.0581 14.9799 31.7743L26.5961 25.079C27.0857 24.7983 27.3851 24.2744 27.3851 23.7131L27.3695 10.0793ZM22.3956 22.2007L14.6432 26.6725C14.3687 26.8284 14.0319 26.8284 13.7575 26.6725L6.0051 22.2007C5.7307 22.0416 5.5623 21.7516 5.5623 21.4335V12.3371C5.5623 12.019 5.7307 11.729 6.002 11.5699L13.7575 7.07936C14.0319 6.92036 14.3687 6.92036 14.6432 7.07936L22.3893 11.5575C22.6669 11.7196 22.8353 12.0159 22.829 12.3371V12.4244L22.8384 21.4367C22.8384 21.7516 22.67 22.0448 22.3956 22.2007Z" fill="white"/>
</svg>
